{
  "bwv": 1006,
  "category": "solo_violin_partita",
  "instrument": "violin",
  "form": "",
  "movement": 4,
  "tonic": "E",
  "mode": "major",
  "confidence": "verified",
  "ticks_per_beat": 384,
  "duration_seconds": 249.5,
  "tempos": [
    {
      "tick": 0,
      "bpm": 120
    },
    {
      "tick": 16896,
      "bpm": 110
    },
    {
      "tick": 18432,
      "bpm": 120
    },
    {
      "tick": 28032,
      "bpm": 115
    },
    {
      "tick": 28416,
      "bpm": 105
    },
    {
      "tick": 29184,
      "bpm": 110
    },
    {
      "tick": 29568,
      "bpm": 120
    },
    {
      "tick": 38400,
      "bpm": 110
    },
    {
      "tick": 38784,
      "bpm": 100
    },
    {
      "tick": 39168,
      "bpm": 120
    },
    {
      "tick": 40704,
      "bpm": 115
    },
    {
      "tick": 41088,
      "bpm": 100
    },
    {
      "tick": 41472,
      "bpm": 110
    },
    {
      "tick": 41664,
      "bpm": 120
    },
    {
      "tick": 46464,
      "bpm": 110
    },
    {
      "tick": 46848,
      "bpm": 100
    },
    {
      "tick": 48384,
      "bpm": 120
    },
    {
      "tick": 57984,
      "bpm": 115
    },
    {
      "tick": 58368,
      "bpm": 105
    },
    {
      "tick": 59136,
      "bpm": 110
    },
    {
      "tick": 59520,
      "bpm": 120
    },
    {
      "tick": 68352,
      "bpm": 115
    },
    {
      "tick": 68736,
      "bpm": 105
    },
    {
      "tick": 69120,
      "bpm": 120
    },
    {
      "tick": 70656,
      "bpm": 115
    },
    {
      "tick": 71040,
      "bpm": 105
    },
    {
      "tick": 71616,
      "bpm": 120
    },
    {
      "tick": 76800,
      "bpm": 100
    },
    {
      "tick": 78336,
      "bpm": 130
    },
    {
      "tick": 86784,
      "bpm": 120
    },
    {
      "tick": 87168,
      "bpm": 110
    },
    {
      "tick": 87552,
      "bpm": 130
    },
    {
      "tick": 94848,
      "bpm": 125
    },
    {
      "tick": 95232,
      "bpm": 120
    },
    {
      "tick": 95424,
      "bpm": 110
    },
    {
      "tick": 96768,
      "bpm": 130
    },
    {
      "tick": 105216,
      "bpm": 125
    },
    {
      "tick": 105600,
      "bpm": 120
    },
    {
      "tick": 105792,
      "bpm": 110
    },
    {
      "tick": 105984,
      "bpm": 130
    },
    {
      "tick": 113280,
      "bpm": 125
    },
    {
      "tick": 113664,
      "bpm": 120
    },
    {
      "tick": 113856,
      "bpm": 110
    },
    {
      "tick": 114048,
      "bpm": 120
    },
    {
      "tick": 115200,
      "bpm": 130
    },
    {
      "tick": 122880,
      "bpm": 125
    },
    {
      "tick": 123264,
      "bpm": 120
    },
    {
      "tick": 124032,
      "bpm": 130
    },
    {
      "tick": 128256,
      "bpm": 125
    },
    {
      "tick": 128640,
      "bpm": 120
    },
    {
      "tick": 128832,
      "bpm": 110
    },
    {
      "tick": 129024,
      "bpm": 130
    },
    {
      "tick": 129792,
      "bpm": 125
    },
    {
      "tick": 130176,
      "bpm": 120
    },
    {
      "tick": 130368,
      "bpm": 110
    },
    {
      "tick": 131328,
      "bpm": 120
    },
    {
      "tick": 132096,
      "bpm": 110
    },
    {
      "tick": 133632,
      "bpm": 130
    },
    {
      "tick": 141312,
      "bpm": 125
    },
    {
      "tick": 141696,
      "bpm": 120
    },
    {
      "tick": 142464,
      "bpm": 130
    },
    {
      "tick": 146688,
      "bpm": 125
    },
    {
      "tick": 147072,
      "bpm": 120
    },
    {
      "tick": 147264,
      "bpm": 110
    },
    {
      "tick": 147456,
      "bpm": 130
    },
    {
      "tick": 148224,
      "bpm": 120
    },
    {
      "tick": 148608,
      "bpm": 110
    },
    {
      "tick": 148800,
      "bpm": 100
    },
    {
      "tick": 149760,
      "bpm": 110
    },
    {
      "tick": 150528,
      "bpm": 100
    },
    {
      "tick": 150720,
      "bpm": 90
    },
    {
      "tick": 152064,
      "bpm": 120
    },
    {
      "tick": 159360,
      "bpm": 115
    },
    {
      "tick": 159744,
      "bpm": 105
    },
    {
      "tick": 161280,
      "bpm": 120
    },
    {
      "tick": 170880,
      "bpm": 115
    },
    {
      "tick": 171264,
      "bpm": 105
    },
    {
      "tick": 172416,
      "bpm": 120
    },
    {
      "tick": 181248,
      "bpm": 115
    },
    {
      "tick": 181632,
      "bpm": 105
    },
    {
      "tick": 182016,
      "bpm": 120
    },
    {
      "tick": 183552,
      "bpm": 115
    },
    {
      "tick": 183936,
      "bpm": 110
    },
    {
      "tick": 184512,
      "bpm": 120
    },
    {
      "tick": 189312,
      "bpm": 110
    },
    {
      "tick": 189696,
      "bpm": 90
    }
  ],
  "time_signatures": [
    {
      "tick": 0,
      "numerator": 3,
      "denominator": 4
    }
  ],
  "track_type": "solo_string",
  "voice_count": 2,
  "total_notes": 1000,
  "tracks": [
    {
      "role": "solo_0",
      "notes": [
        {
          "pitch": 80,
          "onset": 0.0,
          "duration": 1.0,
          "velocity": 100
        },
        {
          "pitch": 80,
          "onset": 1.0,
          "duration": 0.5,
          "velocity": 100
        },
        {
          "pitch": 78,
          "onset": 1.5,
          "duration": 0.5,
          "velocity": 100
        },
        {
          "pitch": 80,
          "onset": 2.0,
          "duration": 1.0,
          "velocity": 100
        },
        {
          "pitch": 76,
          "onset": 3.0,
          "duration": 1.0,
          "velocity": 100
        },
        {
          "pitch": 78,
          "onset": 4.0,
          "duration": 0.5,
          "velocity": 100
        },
        {
          "pitch": 75,
          "onset": 4.5,
          "duration": 0.5,
          "velocity": 100
        },
        {
          "pitch": 76,
          "onset": 5.0,
          "duration": 1.0,
          "velocity": 100
        },
        {
          "pitch": 71,
          "onset": 6.0,
          "duration": 1.0,
          "velocity": 100
        },
        {
          "pitch": 73,
          "onset": 7.0,
          "duration": 1.0,
          "velocity": 100
        },
        {
          "pitch": 75,
          "onset": 8.0,
          "duration": 1.0,
          "velocity": 100
        },
        {
          "pitch": 76,
          "onset": 9.0,
          "duration": 0.5,
          "velocity": 100
        },
        {
          "pitch": 75,
          "onset": 9.5,
          "duration": 0.5,
          "velocity": 100
        },
        {
          "pitch": 76,
          "onset": 10.0,
          "duration": 0.5,
          "velocity": 100
        },
        {
          "pitch": 78,
          "onset": 10.5,
          "duration": 0.5,
          "velocity": 100
        },
        {
          "pitch": 76,
          "onset": 11.0,
          "duration": 0.5,
          "velocity": 100
        },
        {
          "pitch": 78,
          "onset": 11.5,
          "duration": 0.5,
          "velocity": 100
        },
        {
          "pitch": 80,
          "onset": 12.0,
          "duration": 1.0,
          "velocity": 100
        },
        {
          "pitch": 78,
          "onset": 13.0,
          "duration": 1.0,
          "velocity": 100
        },
        {
          "pitch": 78,
          "onset": 14.0,
          "duration": 0.5,
          "velocity": 100
        },
        {
          "pitch": 80,
          "onset": 14.5,
          "duration": 0.25,
          "velocity": 100
        },
        {
          "pitch": 81,
          "onset": 14.75,
          "duration": 0.25,
          "velocity": 100
        },
        {
          "pitch": 80,
          "onset": 15.0,
          "duration": 0.5,
          "velocity": 100
        },
        {
          "pitch": 78,
          "onset": 15.5,
          "duration": 0.5,
          "velocity": 100
        },
        {
          "pitch": 80,
          "onset": 16.0,
          "duration": 0.5,
          "velocity": 100
        },
        {
          "pitch": 81,
          "onset": 16.5,
          "duration": 0.5,
          "velocity": 100
        },
        {
          "pitch": 83,
          "onset": 17.0,
          "duration": 0.5,
          "velocity": 100
        },
        {
          "pitch": 80,
          "onset": 17.5,
          "duration": 0.5,
          "velocity": 100
        },
        {
          "pitch": 76,
          "onset": 18.0,
          "duration": 1.0,
          "velocity": 100
        },
        {
          "pitch": 81,
          "onset": 19.0,
          "duration": 1.0,
          "velocity": 100
        },
        {
          "pitch": 80,
          "onset": 20.0,
          "duration": 1.0,
          "velocity": 100
        },
        {
          "pitch": 78,
          "onset": 21.0,
          "duration": 3.0,
          "velocity": 100
        },
        {
          "pitch": 80,
          "onset": 24.0,
          "duration": 1.0,
          "velocity": 100
        },
        {
          "pitch": 80,
          "onset": 25.0,
          "duration": 0.5,
          "velocity": 100
        },
        {
          "pitch": 78,
          "onset": 25.5,
          "duration": 0.5,
          "velocity": 100
        },
        {
          "pitch": 80,
          "onset": 26.0,
          "duration": 1.0,
          "velocity": 100
        },
        {
          "pitch": 76,
          "onset": 27.0,
          "duration": 1.0,
          "velocity": 100
        },
        {
          "pitch": 78,
          "onset": 28.0,
          "duration": 0.5,
          "velocity": 100
        },
        {
          "pitch": 75,
          "onset": 28.5,
          "duration": 0.5,
          "velocity": 100
        },
        {
          "pitch": 76,
          "onset": 29.0,
          "duration": 1.0,
          "velocity": 100
        },
        {
          "pitch": 71,
          "onset": 30.0,
          "duration": 1.0,
          "velocity": 100
        },
        {
          "pitch": 73,
          "onset": 31.0,
          "duration": 1.0,
          "velocity": 100
        },
        {
          "pitch": 75,
          "onset": 32.0,
          "duration": 1.0,
          "velocity": 100
        },
        {
          "pitch": 76,
          "onset": 33.0,
          "duration": 0.5,
          "velocity": 100
        },
        {
          "pitch": 75,
          "onset": 33.5,
          "duration": 0.5,
          "velocity": 100
        },
        {
          "pitch": 76,
          "onset": 34.0,
          "duration": 0.5,
          "velocity": 100
        },
        {
          "pitch": 78,
          "onset": 34.5,
          "duration": 0.5,
          "velocity": 100
        },
        {
          "pitch": 76,
          "onset": 35.0,
          "duration": 0.5,
          "velocity": 100
        },
        {
          "pitch": 78,
          "onset": 35.5,
          "duration": 0.5,
          "velocity": 100
        },
        {
          "pitch": 80,
          "onset": 36.0,
          "duration": 1.0,
          "velocity": 100
        },
        {
          "pitch": 78,
          "onset": 37.0,
          "duration": 1.0,
          "velocity": 100
        },
        {
          "pitch": 78,
          "onset": 38.0,
          "duration": 0.5,
          "velocity": 100
        },
        {
          "pitch": 80,
          "onset": 38.5,
          "duration": 0.25,
          "velocity": 100
        },
        {
          "pitch": 81,
          "onset": 38.75,
          "duration": 0.25,
          "velocity": 100
        },
        {
          "pitch": 80,
          "onset": 39.0,
          "duration": 0.5,
          "velocity": 100
        },
        {
          "pitch": 78,
          "onset": 39.5,
          "duration": 0.5,
          "velocity": 100
        },
        {
          "pitch": 80,
          "onset": 40.0,
          "duration": 0.5,
          "velocity": 100
        },
        {
          "pitch": 81,
          "onset": 40.5,
          "duration": 0.5,
          "velocity": 100
        },
        {
          "pitch": 83,
          "onset": 41.0,
          "duration": 0.5,
          "velocity": 100
        },
        {
          "pitch": 80,
          "onset": 41.5,
          "duration": 0.5,
          "velocity": 100
        },
        {
          "pitch": 76,
          "onset": 42.0,
          "duration": 1.0,
          "velocity": 100
        },
        {
          "pitch": 81,
          "onset": 43.0,
          "duration": 1.0,
          "velocity": 100
        },
        {
          "pitch": 80,
          "onset": 44.0,
          "duration": 1.0,
          "velocity": 100
        },
        {
          "pitch": 78,
          "onset": 45.0,
          "duration": 3.0,
          "velocity": 100
        },
        {
          "pitch": 83,
          "onset": 48.0,
          "duration": 1.0,
          "velocity": 100
        },
        {
          "pitch": 83,
          "onset": 49.0,
          "duration": 0.5,
          "velocity": 100
        },
        {
          "pitch": 82,
          "onset": 49.5,
          "duration": 0.5,
          "velocity": 100
        },
        {
          "pitch": 83,
          "onset": 50.0,
          "duration": 1.0,
          "velocity": 100
        },
        {
          "pitch": 75,
          "onset": 51.0,
          "duration": 1.0,
          "velocity": 100
        },
        {
          "pitch": 76,
          "onset": 52.0,
          "duration": 0.5,
          "velocity": 100
        },
        {
          "pitch": 73,
          "onset": 52.5,
          "duration": 0.5,
          "velocity": 100
        },
        {
          "pitch": 75,
          "onset": 53.0,
          "duration": 1.0,
          "velocity": 100
        },
        {
          "pitch": 76,
          "onset": 54.0,
          "duration": 1.0,
          "velocity": 100
        },
        {
          "pitch": 83,
          "onset": 54.0,
          "duration": 1.0,
          "velocity": 100
        },
        {
          "pitch": 75,
          "onset": 55.0,
          "duration": 1.0,
          "velocity": 100
        },
        {
          "pitch": 83,
          "onset": 55.0,
          "duration": 0.5,
          "velocity": 100
        },
        {
          "pitch": 82,
          "onset": 55.5,
          "duration": 0.5,
          "velocity": 100
        },
        {
          "pitch": 73,
          "onset": 56.0,
          "duration": 1.0,
          "velocity": 100
        },
        {
          "pitch": 83,
          "onset": 56.0,
          "duration": 1.0,
          "velocity": 100
        },
        {
          "pitch": 73,
          "onset": 57.0,
          "duration": 1.0,
          "velocity": 100
        },
        {
          "pitch": 71,
          "onset": 58.0,
          "duration": 2.0,
          "velocity": 100
        },
        {
          "pitch": 72,
          "onset": 60.0,
          "duration": 1.0,
          "velocity": 100
        },
        {
          "pitch": 81,
          "onset": 60.0,
          "duration": 1.0,
          "velocity": 100
        },
        {
          "pitch": 80,
          "onset": 61.0,
          "duration": 1.0,
          "velocity": 100
        },
        {
          "pitch": 78,
          "onset": 62.0,
          "duration": 1.0,
          "velocity": 100
        },
        {
          "pitch": 73,
          "onset": 63.0,
          "duration": 1.0,
          "velocity": 100
        },
        {
          "pitch": 76,
          "onset": 63.0,
          "duration": 1.0,
          "velocity": 100
        },
        {
          "pitch": 76,
          "onset": 64.0,
          "duration": 0.5,
          "velocity": 100
        },
        {
          "pitch": 78,
          "onset": 64.5,
          "duration": 0.5,
          "velocity": 100
        },
        {
          "pitch": 80,
          "onset": 65.0,
          "duration": 1.0,
          "velocity": 100
        },
        {
          "pitch": 80,
          "onset": 66.0,
          "duration": 0.5,
          "velocity": 100
        },
        {
          "pitch": 78,
          "onset": 66.5,
          "duration": 0.5,
          "velocity": 100
        },
        {
          "pitch": 81,
          "onset": 67.0,
          "duration": 1.0,
          "velocity": 100
        },
        {
          "pitch": 80,
          "onset": 68.0,
          "duration": 1.0,
          "velocity": 100
        },
        {
          "pitch": 78,
          "onset": 69.0,
          "duration": 0.5,
          "velocity": 100
        },
        {
          "pitch": 76,
          "onset": 69.5,
          "duration": 0.5,
          "velocity": 100
        },
        {
          "pitch": 78,
          "onset": 70.0,
          "duration": 0.5,
          "velocity": 100
        },
        {
          "pitch": 75,
          "onset": 70.5,
          "duration": 0.5,
          "velocity": 100
        },
        {
          "pitch": 76,
          "onset": 71.0,
          "duration": 0.5,
          "velocity": 100
        },
        {
          "pitch": 78,
          "onset": 71.5,
          "duration": 0.5,
          "velocity": 100
        },
        {
          "pitch": 80,
          "onset": 72.0,
          "duration": 1.0,
          "velocity": 100
        },
        {
          "pitch": 73,
          "onset": 73.0,
          "duration": 1.0,
          "velocity": 100
        },
        {
          "pitch": 72,
          "onset": 74.0,
          "duration": 1.0,
          "velocity": 100
        },
        {
          "pitch": 73,
          "onset": 75.0,
          "duration": 1.5,
          "velocity": 100
        },
        {
          "pitch": 76,
          "onset": 76.5,
          "duration": 0.5,
          "velocity": 100
        },
        {
          "pitch": 75,
          "onset": 77.0,
          "duration": 0.5,
          "velocity": 100
        },
        {
          "pitch": 78,
          "onset": 77.5,
          "duration": 0.5,
          "velocity": 100
        },
        {
          "pitch": 68,
          "onset": 78.0,
          "duration": 0.5,
          "velocity": 100
        },
        {
          "pitch": 69,
          "onset": 78.5,
          "duration": 0.5,
          "velocity": 100
        },
        {
          "pitch": 71,
          "onset": 79.0,
          "duration": 0.5,
          "velocity": 100
        },
        {
          "pitch": 73,
          "onset": 79.5,
          "duration": 0.5,
          "velocity": 100
        },
        {
          "pitch": 74,
          "onset": 80.0,
          "duration": 0.5,
          "velocity": 100
        },
        {
          "pitch": 64,
          "onset": 80.5,
          "duration": 0.5,
          "velocity": 100
        },
        {
          "pitch": 57,
          "onset": 81.0,
          "duration": 0.5,
          "velocity": 100
        },
        {
          "pitch": 64,
          "onset": 81.5,
          "duration": 0.5,
          "velocity": 100
        },
        {
          "pitch": 74,
          "onset": 82.0,
          "duration": 0.5,
          "velocity": 100
        },
        {
          "pitch": 71,
          "onset": 82.5,
          "duration": 0.5,
          "velocity": 100
        },
        {
          "pitch": 73,
          "onset": 83.0,
          "duration": 0.5,
          "velocity": 100
        },
        {
          "pitch": 69,
          "onset": 83.5,
          "duration": 0.5,
          "velocity": 100
        },
        {
          "pitch": 66,
          "onset": 84.0,
          "duration": 0.5,
          "velocity": 100
        },
        {
          "pitch": 68,
          "onset": 84.5,
          "duration": 0.5,
          "velocity": 100
        },
        {
          "pitch": 69,
          "onset": 85.0,
          "duration": 0.5,
          "velocity": 100
        },
        {
          "pitch": 71,
          "onset": 85.5,
          "duration": 0.5,
          "velocity": 100
        },
        {
          "pitch": 73,
          "onset": 86.0,
          "duration": 0.5,
          "velocity": 100
        },
        {
          "pitch": 69,
          "onset": 86.5,
          "duration": 0.5,
          "velocity": 100
        },
        {
          "pitch": 56,
          "onset": 87.0,
          "duration": 0.5,
          "velocity": 100
        },
        {
          "pitch": 66,
          "onset": 87.5,
          "duration": 0.5,
          "velocity": 100
        },
        {
          "pitch": 73,
          "onset": 88.0,
          "duration": 0.5,
          "velocity": 100
        },
        {
          "pitch": 69,
          "onset": 88.5,
          "duration": 0.5,
          "velocity": 100
        },
        {
          "pitch": 71,
          "onset": 89.0,
          "duration": 0.5,
          "velocity": 100
        },
        {
          "pitch": 68,
          "onset": 89.5,
          "duration": 0.5,
          "velocity": 100
        },
        {
          "pitch": 64,
          "onset": 90.0,
          "duration": 0.5,
          "velocity": 100
        },
        {
          "pitch": 66,
          "onset": 90.5,
          "duration": 0.5,
          "velocity": 100
        },
        {
          "pitch": 68,
          "onset": 91.0,
          "duration": 0.5,
          "velocity": 100
        },
        {
          "pitch": 69,
          "onset": 91.5,
          "duration": 0.5,
          "velocity": 100
        },
        {
          "pitch": 71,
          "onset": 92.0,
          "duration": 0.5,
          "velocity": 100
        },
        {
          "pitch": 68,
          "onset": 92.5,
          "duration": 0.5,
          "velocity": 100
        },
        {
          "pitch": 69,
          "onset": 93.0,
          "duration": 0.5,
          "velocity": 100
        },
        {
          "pitch": 64,
          "onset": 93.5,
          "duration": 0.5,
          "velocity": 100
        },
        {
          "pitch": 66,
          "onset": 94.0,
          "duration": 0.5,
          "velocity": 100
        },
        {
          "pitch": 69,
          "onset": 94.5,
          "duration": 0.5,
          "velocity": 100
        },
        {
          "pitch": 63,
          "onset": 95.0,
          "duration": 0.5,
          "velocity": 100
        },
        {
          "pitch": 66,
          "onset": 95.5,
          "duration": 0.5,
          "velocity": 100
        },
        {
          "pitch": 68,
          "onset": 96.0,
          "duration": 0.5,
          "velocity": 100
        },
        {
          "pitch": 71,
          "onset": 96.5,
          "duration": 0.5,
          "velocity": 100
        },
        {
          "pitch": 73,
          "onset": 97.0,
          "duration": 0.5,
          "velocity": 100
        },
        {
          "pitch": 76,
          "onset": 97.5,
          "duration": 0.5,
          "velocity": 100
        },
        {
          "pitch": 78,
          "onset": 98.0,
          "duration": 0.5,
          "velocity": 100
        },
        {
          "pitch": 81,
          "onset": 98.5,
          "duration": 0.5,
          "velocity": 100
        },
        {
          "pitch": 76,
          "onset": 99.0,
          "duration": 0.5,
          "velocity": 100
        },
        {
          "pitch": 75,
          "onset": 99.5,
          "duration": 0.5,
          "velocity": 100
        },
        {
          "pitch": 76,
          "onset": 100.0,
          "duration": 0.5,
          "velocity": 100
        },
        {
          "pitch": 75,
          "onset": 100.5,
          "duration": 0.5,
          "velocity": 100
        },
        {
          "pitch": 73,
          "onset": 101.0,
          "duration": 0.5,
          "velocity": 100
        },
        {
          "pitch": 71,
          "onset": 101.5,
          "duration": 0.5,
          "velocity": 100
        },
        {
          "pitch": 80,
          "onset": 102.0,
          "duration": 1.0,
          "velocity": 100
        },
        {
          "pitch": 80,
          "onset": 103.0,
          "duration": 0.5,
          "velocity": 100
        },
        {
          "pitch": 78,
          "onset": 103.5,
          "duration": 0.5,
          "velocity": 100
        },
        {
          "pitch": 80,
          "onset": 104.0,
          "duration": 1.0,
          "velocity": 100
        },
        {
          "pitch": 76,
          "onset": 105.0,
          "duration": 1.0,
          "velocity": 100
        },
        {
          "pitch": 78,
          "onset": 106.0,
          "duration": 0.5,
          "velocity": 100
        },
        {
          "pitch": 75,
          "onset": 106.5,
          "duration": 0.5,
          "velocity": 100
        },
        {
          "pitch": 76,
          "onset": 107.0,
          "duration": 1.0,
          "velocity": 100
        },
        {
          "pitch": 68,
          "onset": 108.0,
          "duration": 0.5,
          "velocity": 100
        },
        {
          "pitch": 71,
          "onset": 108.5,
          "duration": 0.5,
          "velocity": 100
        },
        {
          "pitch": 64,
          "onset": 109.0,
          "duration": 0.5,
          "velocity": 100
        },
        {
          "pitch": 68,
          "onset": 109.5,
          "duration": 0.5,
          "velocity": 100
        },
        {
          "pitch": 71,
          "onset": 110.0,
          "duration": 0.5,
          "velocity": 100
        },
        {
          "pitch": 74,
          "onset": 110.5,
          "duration": 0.5,
          "velocity": 100
        },
        {
          "pitch": 57,
          "onset": 111.0,
          "duration": 0.5,
          "velocity": 100
        },
        {
          "pitch": 64,
          "onset": 111.5,
          "duration": 0.5,
          "velocity": 100
        },
        {
          "pitch": 74,
          "onset": 112.0,
          "duration": 0.5,
          "velocity": 100
        },
        {
          "pitch": 71,
          "onset": 112.5,
          "duration": 0.5,
          "velocity": 100
        },
        {
          "pitch": 73,
          "onset": 113.0,
          "duration": 0.5,
          "velocity": 100
        },
        {
          "pitch": 69,
          "onset": 113.5,
          "duration": 0.5,
          "velocity": 100
        },
        {
          "pitch": 66,
          "onset": 114.0,
          "duration": 0.5,
          "velocity": 100
        },
        {
          "pitch": 76,
          "onset": 114.5,
          "duration": 0.5,
          "velocity": 100
        },
        {
          "pitch": 75,
          "onset": 115.0,
          "duration": 0.5,
          "velocity": 100
        },
        {
          "pitch": 78,
          "onset": 115.5,
          "duration": 0.5,
          "velocity": 100
        },
        {
          "pitch": 81,
          "onset": 116.0,
          "duration": 0.5,
          "velocity": 100
        },
        {
          "pitch": 64,
          "onset": 116.5,
          "duration": 0.5,
          "velocity": 100
        },
        {
          "pitch": 63,
          "onset": 117.0,
          "duration": 0.5,
          "velocity": 100
        },
        {
          "pitch": 71,
          "onset": 117.5,
          "duration": 0.5,
          "velocity": 100
        },
        {
          "pitch": 78,
          "onset": 118.0,
          "duration": 0.5,
          "velocity": 100
        },
        {
          "pitch": 81,
          "onset": 118.5,
          "duration": 0.5,
          "velocity": 100
        },
        {
          "pitch": 80,
          "onset": 119.0,
          "duration": 1.0,
          "velocity": 100
        },
        {
          "pitch": 78,
          "onset": 120.0,
          "duration": 1.0,
          "velocity": 100
        },
        {
          "pitch": 71,
          "onset": 121.0,
          "duration": 1.0,
          "velocity": 100
        },
        {
          "pitch": 75,
          "onset": 122.0,
          "duration": 1.0,
          "velocity": 100
        },
        {
          "pitch": 76,
          "onset": 123.0,
          "duration": 3.0,
          "velocity": 100
        },
        {
          "pitch": 83,
          "onset": 126.0,
          "duration": 1.0,
          "velocity": 100
        },
        {
          "pitch": 83,
          "onset": 127.0,
          "duration": 0.5,
          "velocity": 100
        },
        {
          "pitch": 82,
          "onset": 127.5,
          "duration": 0.5,
          "velocity": 100
        },
        {
          "pitch": 83,
          "onset": 128.0,
          "duration": 1.0,
          "velocity": 100
        },
        {
          "pitch": 75,
          "onset": 129.0,
          "duration": 1.0,
          "velocity": 100
        },
        {
          "pitch": 76,
          "onset": 130.0,
          "duration": 0.5,
          "velocity": 100
        },
        {
          "pitch": 73,
          "onset": 130.5,
          "duration": 0.5,
          "velocity": 100
        },
        {
          "pitch": 75,
          "onset": 131.0,
          "duration": 1.0,
          "velocity": 100
        },
        {
          "pitch": 76,
          "onset": 132.0,
          "duration": 1.0,
          "velocity": 100
        },
        {
          "pitch": 83,
          "onset": 132.0,
          "duration": 1.0,
          "velocity": 100
        },
        {
          "pitch": 75,
          "onset": 133.0,
          "duration": 1.0,
          "velocity": 100
        },
        {
          "pitch": 83,
          "onset": 133.0,
          "duration": 0.5,
          "velocity": 100
        },
        {
          "pitch": 82,
          "onset": 133.5,
          "duration": 0.5,
          "velocity": 100
        },
        {
          "pitch": 73,
          "onset": 134.0,
          "duration": 1.0,
          "velocity": 100
        },
        {
          "pitch": 83,
          "onset": 134.0,
          "duration": 1.0,
          "velocity": 100
        },
        {
          "pitch": 73,
          "onset": 135.0,
          "duration": 1.0,
          "velocity": 100
        },
        {
          "pitch": 71,
          "onset": 136.0,
          "duration": 2.0,
          "velocity": 100
        },
        {
          "pitch": 72,
          "onset": 138.0,
          "duration": 1.0,
          "velocity": 100
        },
        {
          "pitch": 81,
          "onset": 138.0,
          "duration": 1.0,
          "velocity": 100
        },
        {
          "pitch": 80,
          "onset": 139.0,
          "duration": 1.0,
          "velocity": 100
        },
        {
          "pitch": 78,
          "onset": 140.0,
          "duration": 1.0,
          "velocity": 100
        },
        {
          "pitch": 73,
          "onset": 141.0,
          "duration": 1.0,
          "velocity": 100
        },
        {
          "pitch": 76,
          "onset": 141.0,
          "duration": 1.0,
          "velocity": 100
        },
        {
          "pitch": 76,
          "onset": 142.0,
          "duration": 0.5,
          "velocity": 100
        },
        {
          "pitch": 78,
          "onset": 142.5,
          "duration": 0.5,
          "velocity": 100
        },
        {
          "pitch": 80,
          "onset": 143.0,
          "duration": 1.0,
          "velocity": 100
        },
        {
          "pitch": 80,
          "onset": 144.0,
          "duration": 0.5,
          "velocity": 100
        },
        {
          "pitch": 78,
          "onset": 144.5,
          "duration": 0.5,
          "velocity": 100
        },
        {
          "pitch": 81,
          "onset": 145.0,
          "duration": 1.0,
          "velocity": 100
        },
        {
          "pitch": 80,
          "onset": 146.0,
          "duration": 1.0,
          "velocity": 100
        },
        {
          "pitch": 78,
          "onset": 147.0,
          "duration": 0.5,
          "velocity": 100
        },
        {
          "pitch": 76,
          "onset": 147.5,
          "duration": 0.5,
          "velocity": 100
        },
        {
          "pitch": 78,
          "onset": 148.0,
          "duration": 0.5,
          "velocity": 100
        },
        {
          "pitch": 75,
          "onset": 148.5,
          "duration": 0.5,
          "velocity": 100
        },
        {
          "pitch": 76,
          "onset": 149.0,
          "duration": 0.5,
          "velocity": 100
        },
        {
          "pitch": 78,
          "onset": 149.5,
          "duration": 0.5,
          "velocity": 100
        },
        {
          "pitch": 80,
          "onset": 150.0,
          "duration": 1.0,
          "velocity": 100
        },
        {
          "pitch": 73,
          "onset": 151.0,
          "duration": 1.0,
          "velocity": 100
        },
        {
          "pitch": 72,
          "onset": 152.0,
          "duration": 1.0,
          "velocity": 100
        },
        {
          "pitch": 73,
          "onset": 153.0,
          "duration": 1.5,
          "velocity": 100
        },
        {
          "pitch": 76,
          "onset": 154.5,
          "duration": 0.5,
          "velocity": 100
        },
        {
          "pitch": 75,
          "onset": 155.0,
          "duration": 0.5,
          "velocity": 100
        },
        {
          "pitch": 78,
          "onset": 155.5,
          "duration": 0.5,
          "velocity": 100
        },
        {
          "pitch": 68,
          "onset": 156.0,
          "duration": 0.5,
          "velocity": 100
        },
        {
          "pitch": 69,
          "onset": 156.5,
          "duration": 0.5,
          "velocity": 100
        },
        {
          "pitch": 71,
          "onset": 157.0,
          "duration": 0.5,
          "velocity": 100
        },
        {
          "pitch": 73,
          "onset": 157.5,
          "duration": 0.5,
          "velocity": 100
        },
        {
          "pitch": 74,
          "onset": 158.0,
          "duration": 0.5,
          "velocity": 100
        },
        {
          "pitch": 64,
          "onset": 158.5,
          "duration": 0.5,
          "velocity": 100
        },
        {
          "pitch": 57,
          "onset": 159.0,
          "duration": 0.5,
          "velocity": 100
        },
        {
          "pitch": 64,
          "onset": 159.5,
          "duration": 0.5,
          "velocity": 100
        },
        {
          "pitch": 74,
          "onset": 160.0,
          "duration": 0.5,
          "velocity": 100
        },
        {
          "pitch": 71,
          "onset": 160.5,
          "duration": 0.5,
          "velocity": 100
        },
        {
          "pitch": 73,
          "onset": 161.0,
          "duration": 0.5,
          "velocity": 100
        },
        {
          "pitch": 69,
          "onset": 161.5,
          "duration": 0.5,
          "velocity": 100
        },
        {
          "pitch": 66,
          "onset": 162.0,
          "duration": 0.5,
          "velocity": 100
        },
        {
          "pitch": 68,
          "onset": 162.5,
          "duration": 0.5,
          "velocity": 100
        },
        {
          "pitch": 69,
          "onset": 163.0,
          "duration": 0.5,
          "velocity": 100
        },
        {
          "pitch": 71,
          "onset": 163.5,
          "duration": 0.5,
          "velocity": 100
        },
        {
          "pitch": 73,
          "onset": 164.0,
          "duration": 0.5,
          "velocity": 100
        },
        {
          "pitch": 69,
          "onset": 164.5,
          "duration": 0.5,
          "velocity": 100
        },
        {
          "pitch": 56,
          "onset": 165.0,
          "duration": 0.5,
          "velocity": 100
        },
        {
          "pitch": 66,
          "onset": 165.5,
          "duration": 0.5,
          "velocity": 100
        },
        {
          "pitch": 73,
          "onset": 166.0,
          "duration": 0.5,
          "velocity": 100
        },
        {
          "pitch": 69,
          "onset": 166.5,
          "duration": 0.5,
          "velocity": 100
        },
        {
          "pitch": 71,
          "onset": 167.0,
          "duration": 0.5,
          "velocity": 100
        },
        {
          "pitch": 68,
          "onset": 167.5,
          "duration": 0.5,
          "velocity": 100
        },
        {
          "pitch": 64,
          "onset": 168.0,
          "duration": 0.5,
          "velocity": 100
        },
        {
          "pitch": 66,
          "onset": 168.5,
          "duration": 0.5,
          "velocity": 100
        },
        {
          "pitch": 68,
          "onset": 169.0,
          "duration": 0.5,
          "velocity": 100
        },
        {
          "pitch": 69,
          "onset": 169.5,
          "duration": 0.5,
          "velocity": 100
        },
        {
          "pitch": 71,
          "onset": 170.0,
          "duration": 0.5,
          "velocity": 100
        },
        {
          "pitch": 68,
          "onset": 170.5,
          "duration": 0.5,
          "velocity": 100
        },
        {
          "pitch": 69,
          "onset": 171.0,
          "duration": 0.5,
          "velocity": 100
        },
        {
          "pitch": 64,
          "onset": 171.5,
          "duration": 0.5,
          "velocity": 100
        },
        {
          "pitch": 66,
          "onset": 172.0,
          "duration": 0.5,
          "velocity": 100
        },
        {
          "pitch": 69,
          "onset": 172.5,
          "duration": 0.5,
          "velocity": 100
        },
        {
          "pitch": 63,
          "onset": 173.0,
          "duration": 0.5,
          "velocity": 100
        },
        {
          "pitch": 66,
          "onset": 173.5,
          "duration": 0.5,
          "velocity": 100
        },
        {
          "pitch": 68,
          "onset": 174.0,
          "duration": 0.5,
          "velocity": 100
        },
        {
          "pitch": 71,
          "onset": 174.5,
          "duration": 0.5,
          "velocity": 100
        },
        {
          "pitch": 73,
          "onset": 175.0,
          "duration": 0.5,
          "velocity": 100
        },
        {
          "pitch": 76,
          "onset": 175.5,
          "duration": 0.5,
          "velocity": 100
        },
        {
          "pitch": 78,
          "onset": 176.0,
          "duration": 0.5,
          "velocity": 100
        },
        {
          "pitch": 81,
          "onset": 176.5,
          "duration": 0.5,
          "velocity": 100
        },
        {
          "pitch": 76,
          "onset": 177.0,
          "duration": 0.5,
          "velocity": 100
        },
        {
          "pitch": 75,
          "onset": 177.5,
          "duration": 0.5,
          "velocity": 100
        },
        {
          "pitch": 76,
          "onset": 178.0,
          "duration": 0.5,
          "velocity": 100
        },
        {
          "pitch": 75,
          "onset": 178.5,
          "duration": 0.5,
          "velocity": 100
        },
        {
          "pitch": 73,
          "onset": 179.0,
          "duration": 0.5,
          "velocity": 100
        },
        {
          "pitch": 71,
          "onset": 179.5,
          "duration": 0.5,
          "velocity": 100
        },
        {
          "pitch": 80,
          "onset": 180.0,
          "duration": 1.0,
          "velocity": 100
        },
        {
          "pitch": 80,
          "onset": 181.0,
          "duration": 0.5,
          "velocity": 100
        },
        {
          "pitch": 78,
          "onset": 181.5,
          "duration": 0.5,
          "velocity": 100
        },
        {
          "pitch": 80,
          "onset": 182.0,
          "duration": 1.0,
          "velocity": 100
        },
        {
          "pitch": 76,
          "onset": 183.0,
          "duration": 1.0,
          "velocity": 100
        },
        {
          "pitch": 78,
          "onset": 184.0,
          "duration": 0.5,
          "velocity": 100
        },
        {
          "pitch": 75,
          "onset": 184.5,
          "duration": 0.5,
          "velocity": 100
        },
        {
          "pitch": 76,
          "onset": 185.0,
          "duration": 1.0,
          "velocity": 100
        },
        {
          "pitch": 68,
          "onset": 186.0,
          "duration": 0.5,
          "velocity": 100
        },
        {
          "pitch": 71,
          "onset": 186.5,
          "duration": 0.5,
          "velocity": 100
        },
        {
          "pitch": 64,
          "onset": 187.0,
          "duration": 0.5,
          "velocity": 100
        },
        {
          "pitch": 68,
          "onset": 187.5,
          "duration": 0.5,
          "velocity": 100
        },
        {
          "pitch": 71,
          "onset": 188.0,
          "duration": 0.5,
          "velocity": 100
        },
        {
          "pitch": 74,
          "onset": 188.5,
          "duration": 0.5,
          "velocity": 100
        },
        {
          "pitch": 57,
          "onset": 189.0,
          "duration": 0.5,
          "velocity": 100
        },
        {
          "pitch": 64,
          "onset": 189.5,
          "duration": 0.5,
          "velocity": 100
        },
        {
          "pitch": 74,
          "onset": 190.0,
          "duration": 0.5,
          "velocity": 100
        },
        {
          "pitch": 71,
          "onset": 190.5,
          "duration": 0.5,
          "velocity": 100
        },
        {
          "pitch": 73,
          "onset": 191.0,
          "duration": 0.5,
          "velocity": 100
        },
        {
          "pitch": 69,
          "onset": 191.5,
          "duration": 0.5,
          "velocity": 100
        },
        {
          "pitch": 66,
          "onset": 192.0,
          "duration": 0.5,
          "velocity": 100
        },
        {
          "pitch": 76,
          "onset": 192.5,
          "duration": 0.5,
          "velocity": 100
        },
        {
          "pitch": 75,
          "onset": 193.0,
          "duration": 0.5,
          "velocity": 100
        },
        {
          "pitch": 78,
          "onset": 193.5,
          "duration": 0.5,
          "velocity": 100
        },
        {
          "pitch": 81,
          "onset": 194.0,
          "duration": 0.5,
          "velocity": 100
        },
        {
          "pitch": 64,
          "onset": 194.5,
          "duration": 0.5,
          "velocity": 100
        },
        {
          "pitch": 63,
          "onset": 195.0,
          "duration": 0.5,
          "velocity": 100
        },
        {
          "pitch": 71,
          "onset": 195.5,
          "duration": 0.5,
          "velocity": 100
        },
        {
          "pitch": 78,
          "onset": 196.0,
          "duration": 0.5,
          "velocity": 100
        },
        {
          "pitch": 81,
          "onset": 196.5,
          "duration": 0.5,
          "velocity": 100
        },
        {
          "pitch": 80,
          "onset": 197.0,
          "duration": 1.0,
          "velocity": 100
        },
        {
          "pitch": 78,
          "onset": 198.0,
          "duration": 1.0,
          "velocity": 100
        },
        {
          "pitch": 71,
          "onset": 199.0,
          "duration": 1.0,
          "velocity": 100
        },
        {
          "pitch": 75,
          "onset": 200.0,
          "duration": 1.0,
          "velocity": 100
        },
        {
          "pitch": 76,
          "onset": 201.0,
          "duration": 3.0,
          "velocity": 100
        },
        {
          "pitch": 71,
          "onset": 204.0,
          "duration": 8.0,
          "velocity": 100
        },
        {
          "pitch": 69,
          "onset": 213.0,
          "duration": 3.0,
          "velocity": 100
        },
        {
          "pitch": 64,
          "onset": 216.0,
          "duration": 0.5,
          "velocity": 100
        },
        {
          "pitch": 68,
          "onset": 216.5,
          "duration": 0.5,
          "velocity": 100
        },
        {
          "pitch": 68,
          "onset": 217.0,
          "duration": 0.5,
          "velocity": 100
        },
        {
          "pitch": 71,
          "onset": 217.5,
          "duration": 0.5,
          "velocity": 100
        },
        {
          "pitch": 71,
          "onset": 218.0,
          "duration": 0.5,
          "velocity": 100
        },
        {
          "pitch": 76,
          "onset": 218.5,
          "duration": 0.5,
          "velocity": 100
        },
        {
          "pitch": 75,
          "onset": 219.0,
          "duration": 0.5,
          "velocity": 100
        },
        {
          "pitch": 71,
          "onset": 219.5,
          "duration": 0.5,
          "velocity": 100
        },
        {
          "pitch": 71,
          "onset": 220.0,
          "duration": 0.5,
          "velocity": 100
        },
        {
          "pitch": 75,
          "onset": 220.5,
          "duration": 0.5,
          "velocity": 100
        },
        {
          "pitch": 75,
          "onset": 221.0,
          "duration": 0.5,
          "velocity": 100
        },
        {
          "pitch": 78,
          "onset": 221.5,
          "duration": 0.5,
          "velocity": 100
        },
        {
          "pitch": 78,
          "onset": 222.0,
          "duration": 0.5,
          "velocity": 100
        },
        {
          "pitch": 80,
          "onset": 222.5,
          "duration": 0.5,
          "velocity": 100
        },
        {
          "pitch": 81,
          "onset": 223.0,
          "duration": 0.5,
          "velocity": 100
        },
        {
          "pitch": 78,
          "onset": 223.5,
          "duration": 0.5,
          "velocity": 100
        },
        {
          "pitch": 83,
          "onset": 224.0,
          "duration": 1.0,
          "velocity": 100
        },
        {
          "pitch": 81,
          "onset": 225.0,
          "duration": 0.5,
          "velocity": 100
        },
        {
          "pitch": 80,
          "onset": 225.5,
          "duration": 0.5,
          "velocity": 100
        },
        {
          "pitch": 81,
          "onset": 226.0,
          "duration": 0.5,
          "velocity": 100
        },
        {
          "pitch": 80,
          "onset": 226.5,
          "duration": 0.5,
          "velocity": 100
        },
        {
          "pitch": 78,
          "onset": 227.0,
          "duration": 0.5,
          "velocity": 100
        },
        {
          "pitch": 76,
          "onset": 227.5,
          "duration": 0.5,
          "velocity": 100
        },
        {
          "pitch": 71,
          "onset": 228.0,
          "duration": 6.0,
          "velocity": 100
        },
        {
          "pitch": 76,
          "onset": 234.0,
          "duration": 6.0,
          "velocity": 100
        },
        {
          "pitch": 71,
          "onset": 240.0,
          "duration": 0.5,
          "velocity": 100
        },
        {
          "pitch": 75,
          "onset": 240.5,
          "duration": 0.5,
          "velocity": 100
        },
        {
          "pitch": 75,
          "onset": 241.0,
          "duration": 0.5,
          "velocity": 100
        },
        {
          "pitch": 78,
          "onset": 241.5,
          "duration": 0.5,
          "velocity": 100
        },
        {
          "pitch": 78,
          "onset": 242.0,
          "duration": 0.5,
          "velocity": 100
        },
        {
          "pitch": 83,
          "onset": 242.5,
          "duration": 0.5,
          "velocity": 100
        },
        {
          "pitch": 73,
          "onset": 243.0,
          "duration": 0.5,
          "velocity": 100
        },
        {
          "pitch": 75,
          "onset": 243.5,
          "duration": 0.5,
          "velocity": 100
        },
        {
          "pitch": 76,
          "onset": 244.0,
          "duration": 0.5,
          "velocity": 100
        },
        {
          "pitch": 80,
          "onset": 244.5,
          "duration": 0.5,
          "velocity": 100
        },
        {
          "pitch": 70,
          "onset": 245.0,
          "duration": 0.5,
          "velocity": 100
        },
        {
          "pitch": 78,
          "onset": 245.5,
          "duration": 0.5,
          "velocity": 100
        },
        {
          "pitch": 76,
          "onset": 246.0,
          "duration": 0.5,
          "velocity": 100
        },
        {
          "pitch": 75,
          "onset": 246.5,
          "duration": 0.5,
          "velocity": 100
        },
        {
          "pitch": 73,
          "onset": 247.0,
          "duration": 0.5,
          "velocity": 100
        },
        {
          "pitch": 71,
          "onset": 247.5,
          "duration": 0.5,
          "velocity": 100
        },
        {
          "pitch": 66,
          "onset": 248.0,
          "duration": 0.5,
          "velocity": 100
        },
        {
          "pitch": 70,
          "onset": 248.5,
          "duration": 0.5,
          "velocity": 100
        },
        {
          "pitch": 59,
          "onset": 249.0,
          "duration": 3.0,
          "velocity": 100
        },
        {
          "pitch": 71,
          "onset": 252.0,
          "duration": 8.0,
          "velocity": 100
        },
        {
          "pitch": 69,
          "onset": 261.0,
          "duration": 3.0,
          "velocity": 100
        },
        {
          "pitch": 64,
          "onset": 264.0,
          "duration": 0.5,
          "velocity": 100
        },
        {
          "pitch": 68,
          "onset": 264.5,
          "duration": 0.5,
          "velocity": 100
        },
        {
          "pitch": 68,
          "onset": 265.0,
          "duration": 0.5,
          "velocity": 100
        },
        {
          "pitch": 71,
          "onset": 265.5,
          "duration": 0.5,
          "velocity": 100
        },
        {
          "pitch": 71,
          "onset": 266.0,
          "duration": 0.5,
          "velocity": 100
        },
        {
          "pitch": 76,
          "onset": 266.5,
          "duration": 0.5,
          "velocity": 100
        },
        {
          "pitch": 75,
          "onset": 267.0,
          "duration": 0.5,
          "velocity": 100
        },
        {
          "pitch": 71,
          "onset": 267.5,
          "duration": 0.5,
          "velocity": 100
        },
        {
          "pitch": 71,
          "onset": 268.0,
          "duration": 0.5,
          "velocity": 100
        },
        {
          "pitch": 75,
          "onset": 268.5,
          "duration": 0.5,
          "velocity": 100
        },
        {
          "pitch": 75,
          "onset": 269.0,
          "duration": 0.5,
          "velocity": 100
        },
        {
          "pitch": 78,
          "onset": 269.5,
          "duration": 0.5,
          "velocity": 100
        },
        {
          "pitch": 78,
          "onset": 270.0,
          "duration": 0.5,
          "velocity": 100
        },
        {
          "pitch": 80,
          "onset": 270.5,
          "duration": 0.5,
          "velocity": 100
        },
        {
          "pitch": 81,
          "onset": 271.0,
          "duration": 0.5,
          "velocity": 100
        },
        {
          "pitch": 78,
          "onset": 271.5,
          "duration": 0.5,
          "velocity": 100
        },
        {
          "pitch": 83,
          "onset": 272.0,
          "duration": 1.0,
          "velocity": 100
        },
        {
          "pitch": 81,
          "onset": 273.0,
          "duration": 0.5,
          "velocity": 100
        },
        {
          "pitch": 80,
          "onset": 273.5,
          "duration": 0.5,
          "velocity": 100
        },
        {
          "pitch": 81,
          "onset": 274.0,
          "duration": 0.5,
          "velocity": 100
        },
        {
          "pitch": 80,
          "onset": 274.5,
          "duration": 0.5,
          "velocity": 100
        },
        {
          "pitch": 78,
          "onset": 275.0,
          "duration": 0.5,
          "velocity": 100
        },
        {
          "pitch": 76,
          "onset": 275.5,
          "duration": 0.5,
          "velocity": 100
        },
        {
          "pitch": 71,
          "onset": 276.0,
          "duration": 6.0,
          "velocity": 100
        },
        {
          "pitch": 76,
          "onset": 282.0,
          "duration": 6.0,
          "velocity": 100
        },
        {
          "pitch": 71,
          "onset": 288.0,
          "duration": 0.5,
          "velocity": 100
        },
        {
          "pitch": 75,
          "onset": 288.5,
          "duration": 0.5,
          "velocity": 100
        },
        {
          "pitch": 75,
          "onset": 289.0,
          "duration": 0.5,
          "velocity": 100
        },
        {
          "pitch": 78,
          "onset": 289.5,
          "duration": 0.5,
          "velocity": 100
        },
        {
          "pitch": 78,
          "onset": 290.0,
          "duration": 0.5,
          "velocity": 100
        },
        {
          "pitch": 83,
          "onset": 290.5,
          "duration": 0.5,
          "velocity": 100
        },
        {
          "pitch": 73,
          "onset": 291.0,
          "duration": 0.5,
          "velocity": 100
        },
        {
          "pitch": 75,
          "onset": 291.5,
          "duration": 0.5,
          "velocity": 100
        },
        {
          "pitch": 76,
          "onset": 292.0,
          "duration": 0.5,
          "velocity": 100
        },
        {
          "pitch": 80,
          "onset": 292.5,
          "duration": 0.5,
          "velocity": 100
        },
        {
          "pitch": 70,
          "onset": 293.0,
          "duration": 0.5,
          "velocity": 100
        },
        {
          "pitch": 78,
          "onset": 293.5,
          "duration": 0.5,
          "velocity": 100
        },
        {
          "pitch": 76,
          "onset": 294.0,
          "duration": 0.5,
          "velocity": 100
        },
        {
          "pitch": 75,
          "onset": 294.5,
          "duration": 0.5,
          "velocity": 100
        },
        {
          "pitch": 73,
          "onset": 295.0,
          "duration": 0.5,
          "velocity": 100
        },
        {
          "pitch": 71,
          "onset": 295.5,
          "duration": 0.5,
          "velocity": 100
        },
        {
          "pitch": 66,
          "onset": 296.0,
          "duration": 0.5,
          "velocity": 100
        },
        {
          "pitch": 70,
          "onset": 296.5,
          "duration": 0.5,
          "velocity": 100
        },
        {
          "pitch": 59,
          "onset": 297.0,
          "duration": 3.0,
          "velocity": 100
        },
        {
          "pitch": 75,
          "onset": 300.0,
          "duration": 1.0,
          "velocity": 100
        },
        {
          "pitch": 76,
          "onset": 301.0,
          "duration": 0.5,
          "velocity": 100
        },
        {
          "pitch": 75,
          "onset": 301.5,
          "duration": 0.5,
          "velocity": 100
        },
        {
          "pitch": 73,
          "onset": 302.0,
          "duration": 0.5,
          "velocity": 100
        },
        {
          "pitch": 71,
          "onset": 302.5,
          "duration": 0.5,
          "velocity": 100
        },
        {
          "pitch": 76,
          "onset": 303.0,
          "duration": 0.5,
          "velocity": 100
        },
        {
          "pitch": 78,
          "onset": 303.5,
          "duration": 0.5,
          "velocity": 100
        },
        {
          "pitch": 80,
          "onset": 304.0,
          "duration": 0.5,
          "velocity": 100
        },
        {
          "pitch": 81,
          "onset": 304.5,
          "duration": 0.5,
          "velocity": 100
        },
        {
          "pitch": 83,
          "onset": 305.0,
          "duration": 0.5,
          "velocity": 100
        },
        {
          "pitch": 80,
          "onset": 305.5,
          "duration": 0.5,
          "velocity": 100
        },
        {
          "pitch": 78,
          "onset": 306.0,
          "duration": 0.5,
          "velocity": 100
        },
        {
          "pitch": 77,
          "onset": 306.5,
          "duration": 0.5,
          "velocity": 100
        },
        {
          "pitch": 78,
          "onset": 307.0,
          "duration": 0.5,
          "velocity": 100
        },
        {
          "pitch": 77,
          "onset": 307.5,
          "duration": 0.5,
          "velocity": 100
        },
        {
          "pitch": 75,
          "onset": 308.0,
          "duration": 0.5,
          "velocity": 100
        },
        {
          "pitch": 73,
          "onset": 308.5,
          "duration": 0.5,
          "velocity": 100
        },
        {
          "pitch": 78,
          "onset": 309.0,
          "duration": 0.5,
          "velocity": 100
        },
        {
          "pitch": 80,
          "onset": 309.5,
          "duration": 0.5,
          "velocity": 100
        },
        {
          "pitch": 81,
          "onset": 310.0,
          "duration": 0.5,
          "velocity": 100
        },
        {
          "pitch": 73,
          "onset": 310.5,
          "duration": 0.5,
          "velocity": 100
        },
        {
          "pitch": 66,
          "onset": 311.0,
          "duration": 1.0,
          "velocity": 100
        },
        {
          "pitch": 65,
          "onset": 312.0,
          "duration": 0.5,
          "velocity": 100
        },
        {
          "pitch": 73,
          "onset": 312.5,
          "duration": 0.5,
          "velocity": 100
        },
        {
          "pitch": 83,
          "onset": 313.0,
          "duration": 0.5,
          "velocity": 100
        },
        {
          "pitch": 80,
          "onset": 313.5,
          "duration": 0.5,
          "velocity": 100
        },
        {
          "pitch": 81,
          "onset": 314.0,
          "duration": 0.5,
          "velocity": 100
        },
        {
          "pitch": 78,
          "onset": 314.5,
          "duration": 0.5,
          "velocity": 100
        },
        {
          "pitch": 80,
          "onset": 315.0,
          "duration": 0.5,
          "velocity": 100
        },
        {
          "pitch": 73,
          "onset": 315.5,
          "duration": 0.5,
          "velocity": 100
        },
        {
          "pitch": 74,
          "onset": 316.0,
          "duration": 0.5,
          "velocity": 100
        },
        {
          "pitch": 71,
          "onset": 316.5,
          "duration": 0.5,
          "velocity": 100
        },
        {
          "pitch": 65,
          "onset": 317.0,
          "duration": 0.5,
          "velocity": 100
        },
        {
          "pitch": 73,
          "onset": 317.5,
          "duration": 0.5,
          "velocity": 100
        },
        {
          "pitch": 83,
          "onset": 318.0,
          "duration": 0.5,
          "velocity": 100
        },
        {
          "pitch": 80,
          "onset": 318.5,
          "duration": 0.5,
          "velocity": 100
        },
        {
          "pitch": 81,
          "onset": 319.0,
          "duration": 0.5,
          "velocity": 100
        },
        {
          "pitch": 78,
          "onset": 319.5,
          "duration": 0.5,
          "velocity": 100
        },
        {
          "pitch": 73,
          "onset": 320.0,
          "duration": 0.5,
          "velocity": 100
        },
        {
          "pitch": 77,
          "onset": 320.5,
          "duration": 0.5,
          "velocity": 100
        },
        {
          "pitch": 78,
          "onset": 321.0,
          "duration": 0.5,
          "velocity": 100
        },
        {
          "pitch": 73,
          "onset": 321.5,
          "duration": 0.5,
          "velocity": 100
        },
        {
          "pitch": 66,
          "onset": 322.0,
          "duration": 0.5,
          "velocity": 100
        },
        {
          "pitch": 73,
          "onset": 322.5,
          "duration": 0.5,
          "velocity": 100
        },
        {
          "pitch": 78,
          "onset": 323.0,
          "duration": 0.5,
          "velocity": 100
        },
        {
          "pitch": 80,
          "onset": 323.5,
          "duration": 0.5,
          "velocity": 100
        },
        {
          "pitch": 81,
          "onset": 324.0,
          "duration": 1.0,
          "velocity": 100
        },
        {
          "pitch": 83,
          "onset": 325.0,
          "duration": 0.5,
          "velocity": 100
        },
        {
          "pitch": 81,
          "onset": 325.5,
          "duration": 0.5,
          "velocity": 100
        },
        {
          "pitch": 80,
          "onset": 326.0,
          "duration": 0.5,
          "velocity": 100
        },
        {
          "pitch": 78,
          "onset": 326.5,
          "duration": 0.5,
          "velocity": 100
        },
        {
          "pitch": 80,
          "onset": 327.0,
          "duration": 0.5,
          "velocity": 100
        },
        {
          "pitch": 81,
          "onset": 327.5,
          "duration": 0.5,
          "velocity": 100
        },
        {
          "pitch": 83,
          "onset": 328.0,
          "duration": 0.5,
          "velocity": 100
        },
        {
          "pitch": 74,
          "onset": 328.5,
          "duration": 0.5,
          "velocity": 100
        },
        {
          "pitch": 68,
          "onset": 329.0,
          "duration": 0.5,
          "velocity": 100
        },
        {
          "pitch": 74,
          "onset": 329.5,
          "duration": 0.5,
          "velocity": 100
        },
        {
          "pitch": 73,
          "onset": 330.0,
          "duration": 0.5,
          "velocity": 100
        },
        {
          "pitch": 76,
          "onset": 330.5,
          "duration": 0.5,
          "velocity": 100
        },
        {
          "pitch": 81,
          "onset": 331.0,
          "duration": 0.5,
          "velocity": 100
        },
        {
          "pitch": 78,
          "onset": 331.5,
          "duration": 0.5,
          "velocity": 100
        },
        {
          "pitch": 80,
          "onset": 332.0,
          "duration": 0.5,
          "velocity": 100
        },
        {
          "pitch": 76,
          "onset": 332.5,
          "duration": 0.5,
          "velocity": 100
        },
        {
          "pitch": 75,
          "onset": 333.0,
          "duration": 0.5,
          "velocity": 100
        },
        {
          "pitch": 73,
          "onset": 333.5,
          "duration": 0.5,
          "velocity": 100
        },
        {
          "pitch": 76,
          "onset": 334.0,
          "duration": 0.5,
          "velocity": 100
        },
        {
          "pitch": 75,
          "onset": 334.5,
          "duration": 0.5,
          "velocity": 100
        },
        {
          "pitch": 73,
          "onset": 335.0,
          "duration": 0.5,
          "velocity": 100
        },
        {
          "pitch": 71,
          "onset": 335.5,
          "duration": 0.5,
          "velocity": 100
        },
        {
          "pitch": 71,
          "onset": 336.0,
          "duration": 1.0,
          "velocity": 100
        },
        {
          "pitch": 80,
          "onset": 336.0,
          "duration": 1.0,
          "velocity": 100
        },
        {
          "pitch": 81,
          "onset": 337.0,
          "duration": 0.5,
          "velocity": 100
        },
        {
          "pitch": 80,
          "onset": 337.5,
          "duration": 0.5,
          "velocity": 100
        },
        {
          "pitch": 78,
          "onset": 338.0,
          "duration": 0.5,
          "velocity": 100
        },
        {
          "pitch": 76,
          "onset": 338.5,
          "duration": 0.5,
          "velocity": 100
        },
        {
          "pitch": 78,
          "onset": 339.0,
          "duration": 0.5,
          "velocity": 100
        },
        {
          "pitch": 75,
          "onset": 339.5,
          "duration": 0.5,
          "velocity": 100
        },
        {
          "pitch": 83,
          "onset": 340.0,
          "duration": 2.0,
          "velocity": 100
        },
        {
          "pitch": 68,
          "onset": 342.0,
          "duration": 0.5,
          "velocity": 100
        },
        {
          "pitch": 71,
          "onset": 342.5,
          "duration": 0.5,
          "velocity": 100
        },
        {
          "pitch": 73,
          "onset": 343.0,
          "duration": 0.5,
          "velocity": 100
        },
        {
          "pitch": 69,
          "onset": 343.5,
          "duration": 0.5,
          "velocity": 100
        },
        {
          "pitch": 66,
          "onset": 344.0,
          "duration": 0.5,
          "velocity": 100
        },
        {
          "pitch": 75,
          "onset": 344.5,
          "duration": 0.5,
          "velocity": 100
        },
        {
          "pitch": 76,
          "onset": 345.0,
          "duration": 3.0,
          "velocity": 100
        },
        {
          "pitch": 75,
          "onset": 348.0,
          "duration": 1.0,
          "velocity": 100
        },
        {
          "pitch": 76,
          "onset": 349.0,
          "duration": 0.5,
          "velocity": 100
        },
        {
          "pitch": 75,
          "onset": 349.5,
          "duration": 0.5,
          "velocity": 100
        },
        {
          "pitch": 73,
          "onset": 350.0,
          "duration": 0.5,
          "velocity": 100
        },
        {
          "pitch": 71,
          "onset": 350.5,
          "duration": 0.5,
          "velocity": 100
        },
        {
          "pitch": 76,
          "onset": 351.0,
          "duration": 0.5,
          "velocity": 100
        },
        {
          "pitch": 78,
          "onset": 351.5,
          "duration": 0.5,
          "velocity": 100
        },
        {
          "pitch": 80,
          "onset": 352.0,
          "duration": 0.5,
          "velocity": 100
        },
        {
          "pitch": 81,
          "onset": 352.5,
          "duration": 0.5,
          "velocity": 100
        },
        {
          "pitch": 83,
          "onset": 353.0,
          "duration": 0.5,
          "velocity": 100
        },
        {
          "pitch": 80,
          "onset": 353.5,
          "duration": 0.5,
          "velocity": 100
        },
        {
          "pitch": 78,
          "onset": 354.0,
          "duration": 0.5,
          "velocity": 100
        },
        {
          "pitch": 77,
          "onset": 354.5,
          "duration": 0.5,
          "velocity": 100
        },
        {
          "pitch": 78,
          "onset": 355.0,
          "duration": 0.5,
          "velocity": 100
        },
        {
          "pitch": 77,
          "onset": 355.5,
          "duration": 0.5,
          "velocity": 100
        },
        {
          "pitch": 75,
          "onset": 356.0,
          "duration": 0.5,
          "velocity": 100
        },
        {
          "pitch": 73,
          "onset": 356.5,
          "duration": 0.5,
          "velocity": 100
        },
        {
          "pitch": 78,
          "onset": 357.0,
          "duration": 0.5,
          "velocity": 100
        },
        {
          "pitch": 80,
          "onset": 357.5,
          "duration": 0.5,
          "velocity": 100
        },
        {
          "pitch": 81,
          "onset": 358.0,
          "duration": 0.5,
          "velocity": 100
        },
        {
          "pitch": 73,
          "onset": 358.5,
          "duration": 0.5,
          "velocity": 100
        },
        {
          "pitch": 66,
          "onset": 359.0,
          "duration": 1.0,
          "velocity": 100
        },
        {
          "pitch": 65,
          "onset": 360.0,
          "duration": 0.5,
          "velocity": 100
        },
        {
          "pitch": 73,
          "onset": 360.5,
          "duration": 0.5,
          "velocity": 100
        },
        {
          "pitch": 83,
          "onset": 361.0,
          "duration": 0.5,
          "velocity": 100
        },
        {
          "pitch": 80,
          "onset": 361.5,
          "duration": 0.5,
          "velocity": 100
        },
        {
          "pitch": 81,
          "onset": 362.0,
          "duration": 0.5,
          "velocity": 100
        },
        {
          "pitch": 78,
          "onset": 362.5,
          "duration": 0.5,
          "velocity": 100
        },
        {
          "pitch": 80,
          "onset": 363.0,
          "duration": 0.5,
          "velocity": 100
        },
        {
          "pitch": 73,
          "onset": 363.5,
          "duration": 0.5,
          "velocity": 100
        },
        {
          "pitch": 74,
          "onset": 364.0,
          "duration": 0.5,
          "velocity": 100
        },
        {
          "pitch": 71,
          "onset": 364.5,
          "duration": 0.5,
          "velocity": 100
        },
        {
          "pitch": 65,
          "onset": 365.0,
          "duration": 0.5,
          "velocity": 100
        },
        {
          "pitch": 73,
          "onset": 365.5,
          "duration": 0.5,
          "velocity": 100
        },
        {
          "pitch": 83,
          "onset": 366.0,
          "duration": 0.5,
          "velocity": 100
        },
        {
          "pitch": 80,
          "onset": 366.5,
          "duration": 0.5,
          "velocity": 100
        },
        {
          "pitch": 81,
          "onset": 367.0,
          "duration": 0.5,
          "velocity": 100
        },
        {
          "pitch": 78,
          "onset": 367.5,
          "duration": 0.5,
          "velocity": 100
        },
        {
          "pitch": 73,
          "onset": 368.0,
          "duration": 0.5,
          "velocity": 100
        },
        {
          "pitch": 77,
          "onset": 368.5,
          "duration": 0.5,
          "velocity": 100
        },
        {
          "pitch": 78,
          "onset": 369.0,
          "duration": 0.5,
          "velocity": 100
        },
        {
          "pitch": 73,
          "onset": 369.5,
          "duration": 0.5,
          "velocity": 100
        },
        {
          "pitch": 66,
          "onset": 370.0,
          "duration": 0.5,
          "velocity": 100
        },
        {
          "pitch": 73,
          "onset": 370.5,
          "duration": 0.5,
          "velocity": 100
        },
        {
          "pitch": 78,
          "onset": 371.0,
          "duration": 0.5,
          "velocity": 100
        },
        {
          "pitch": 80,
          "onset": 371.5,
          "duration": 0.5,
          "velocity": 100
        },
        {
          "pitch": 81,
          "onset": 372.0,
          "duration": 1.0,
          "velocity": 100
        },
        {
          "pitch": 83,
          "onset": 373.0,
          "duration": 0.5,
          "velocity": 100
        },
        {
          "pitch": 81,
          "onset": 373.5,
          "duration": 0.5,
          "velocity": 100
        },
        {
          "pitch": 80,
          "onset": 374.0,
          "duration": 0.5,
          "velocity": 100
        },
        {
          "pitch": 78,
          "onset": 374.5,
          "duration": 0.5,
          "velocity": 100
        },
        {
          "pitch": 80,
          "onset": 375.0,
          "duration": 0.5,
          "velocity": 100
        },
        {
          "pitch": 81,
          "onset": 375.5,
          "duration": 0.5,
          "velocity": 100
        },
        {
          "pitch": 83,
          "onset": 376.0,
          "duration": 0.5,
          "velocity": 100
        },
        {
          "pitch": 74,
          "onset": 376.5,
          "duration": 0.5,
          "velocity": 100
        },
        {
          "pitch": 68,
          "onset": 377.0,
          "duration": 0.5,
          "velocity": 100
        },
        {
          "pitch": 74,
          "onset": 377.5,
          "duration": 0.5,
          "velocity": 100
        },
        {
          "pitch": 73,
          "onset": 378.0,
          "duration": 0.5,
          "velocity": 100
        },
        {
          "pitch": 76,
          "onset": 378.5,
          "duration": 0.5,
          "velocity": 100
        },
        {
          "pitch": 81,
          "onset": 379.0,
          "duration": 0.5,
          "velocity": 100
        },
        {
          "pitch": 78,
          "onset": 379.5,
          "duration": 0.5,
          "velocity": 100
        },
        {
          "pitch": 80,
          "onset": 380.0,
          "duration": 0.5,
          "velocity": 100
        },
        {
          "pitch": 76,
          "onset": 380.5,
          "duration": 0.5,
          "velocity": 100
        },
        {
          "pitch": 75,
          "onset": 381.0,
          "duration": 0.5,
          "velocity": 100
        },
        {
          "pitch": 73,
          "onset": 381.5,
          "duration": 0.5,
          "velocity": 100
        },
        {
          "pitch": 76,
          "onset": 382.0,
          "duration": 0.5,
          "velocity": 100
        },
        {
          "pitch": 75,
          "onset": 382.5,
          "duration": 0.5,
          "velocity": 100
        },
        {
          "pitch": 73,
          "onset": 383.0,
          "duration": 0.5,
          "velocity": 100
        },
        {
          "pitch": 71,
          "onset": 383.5,
          "duration": 0.5,
          "velocity": 100
        },
        {
          "pitch": 71,
          "onset": 384.0,
          "duration": 1.0,
          "velocity": 100
        },
        {
          "pitch": 80,
          "onset": 384.0,
          "duration": 1.0,
          "velocity": 100
        },
        {
          "pitch": 81,
          "onset": 385.0,
          "duration": 0.5,
          "velocity": 100
        },
        {
          "pitch": 80,
          "onset": 385.5,
          "duration": 0.5,
          "velocity": 100
        },
        {
          "pitch": 78,
          "onset": 386.0,
          "duration": 0.5,
          "velocity": 100
        },
        {
          "pitch": 76,
          "onset": 386.5,
          "duration": 0.5,
          "velocity": 100
        },
        {
          "pitch": 78,
          "onset": 387.0,
          "duration": 0.5,
          "velocity": 100
        },
        {
          "pitch": 75,
          "onset": 387.5,
          "duration": 0.5,
          "velocity": 100
        },
        {
          "pitch": 83,
          "onset": 388.0,
          "duration": 2.0,
          "velocity": 100
        },
        {
          "pitch": 68,
          "onset": 390.0,
          "duration": 0.5,
          "velocity": 100
        },
        {
          "pitch": 71,
          "onset": 390.5,
          "duration": 0.5,
          "velocity": 100
        },
        {
          "pitch": 73,
          "onset": 391.0,
          "duration": 0.5,
          "velocity": 100
        },
        {
          "pitch": 69,
          "onset": 391.5,
          "duration": 0.5,
          "velocity": 100
        },
        {
          "pitch": 66,
          "onset": 392.0,
          "duration": 0.5,
          "velocity": 100
        },
        {
          "pitch": 75,
          "onset": 392.5,
          "duration": 0.5,
          "velocity": 100
        },
        {
          "pitch": 76,
          "onset": 393.0,
          "duration": 3.0,
          "velocity": 100
        },
        {
          "pitch": 80,
          "onset": 396.0,
          "duration": 1.0,
          "velocity": 100
        },
        {
          "pitch": 80,
          "onset": 397.0,
          "duration": 0.5,
          "velocity": 100
        },
        {
          "pitch": 78,
          "onset": 397.5,
          "duration": 0.5,
          "velocity": 100
        },
        {
          "pitch": 80,
          "onset": 398.0,
          "duration": 1.0,
          "velocity": 100
        },
        {
          "pitch": 76,
          "onset": 399.0,
          "duration": 1.0,
          "velocity": 100
        },
        {
          "pitch": 78,
          "onset": 400.0,
          "duration": 0.5,
          "velocity": 100
        },
        {
          "pitch": 75,
          "onset": 400.5,
          "duration": 0.5,
          "velocity": 100
        },
        {
          "pitch": 76,
          "onset": 401.0,
          "duration": 1.0,
          "velocity": 100
        },
        {
          "pitch": 71,
          "onset": 402.0,
          "duration": 1.0,
          "velocity": 100
        },
        {
          "pitch": 73,
          "onset": 403.0,
          "duration": 1.0,
          "velocity": 100
        },
        {
          "pitch": 75,
          "onset": 404.0,
          "duration": 1.0,
          "velocity": 100
        },
        {
          "pitch": 76,
          "onset": 405.0,
          "duration": 0.5,
          "velocity": 100
        },
        {
          "pitch": 75,
          "onset": 405.5,
          "duration": 0.5,
          "velocity": 100
        },
        {
          "pitch": 76,
          "onset": 406.0,
          "duration": 0.5,
          "velocity": 100
        },
        {
          "pitch": 78,
          "onset": 406.5,
          "duration": 0.5,
          "velocity": 100
        },
        {
          "pitch": 76,
          "onset": 407.0,
          "duration": 0.5,
          "velocity": 100
        },
        {
          "pitch": 78,
          "onset": 407.5,
          "duration": 0.5,
          "velocity": 100
        },
        {
          "pitch": 80,
          "onset": 408.0,
          "duration": 1.0,
          "velocity": 100
        },
        {
          "pitch": 78,
          "onset": 409.0,
          "duration": 1.0,
          "velocity": 100
        },
        {
          "pitch": 78,
          "onset": 410.0,
          "duration": 0.5,
          "velocity": 100
        },
        {
          "pitch": 80,
          "onset": 410.5,
          "duration": 0.25,
          "velocity": 100
        },
        {
          "pitch": 81,
          "onset": 410.75,
          "duration": 0.25,
          "velocity": 100
        },
        {
          "pitch": 80,
          "onset": 411.0,
          "duration": 0.5,
          "velocity": 100
        },
        {
          "pitch": 78,
          "onset": 411.5,
          "duration": 0.5,
          "velocity": 100
        },
        {
          "pitch": 80,
          "onset": 412.0,
          "duration": 0.5,
          "velocity": 100
        },
        {
          "pitch": 81,
          "onset": 412.5,
          "duration": 0.5,
          "velocity": 100
        },
        {
          "pitch": 83,
          "onset": 413.0,
          "duration": 0.5,
          "velocity": 100
        },
        {
          "pitch": 80,
          "onset": 413.5,
          "duration": 0.5,
          "velocity": 100
        },
        {
          "pitch": 76,
          "onset": 414.0,
          "duration": 1.0,
          "velocity": 100
        },
        {
          "pitch": 81,
          "onset": 415.0,
          "duration": 1.0,
          "velocity": 100
        },
        {
          "pitch": 80,
          "onset": 416.0,
          "duration": 1.0,
          "velocity": 100
        },
        {
          "pitch": 78,
          "onset": 417.0,
          "duration": 3.0,
          "velocity": 100
        },
        {
          "pitch": 83,
          "onset": 420.0,
          "duration": 1.0,
          "velocity": 100
        },
        {
          "pitch": 83,
          "onset": 421.0,
          "duration": 0.5,
          "velocity": 100
        },
        {
          "pitch": 82,
          "onset": 421.5,
          "duration": 0.5,
          "velocity": 100
        },
        {
          "pitch": 83,
          "onset": 422.0,
          "duration": 1.0,
          "velocity": 100
        },
        {
          "pitch": 75,
          "onset": 423.0,
          "duration": 1.0,
          "velocity": 100
        },
        {
          "pitch": 76,
          "onset": 424.0,
          "duration": 0.5,
          "velocity": 100
        },
        {
          "pitch": 73,
          "onset": 424.5,
          "duration": 0.5,
          "velocity": 100
        },
        {
          "pitch": 75,
          "onset": 425.0,
          "duration": 1.0,
          "velocity": 100
        },
        {
          "pitch": 76,
          "onset": 426.0,
          "duration": 1.0,
          "velocity": 100
        },
        {
          "pitch": 83,
          "onset": 426.0,
          "duration": 1.0,
          "velocity": 100
        },
        {
          "pitch": 75,
          "onset": 427.0,
          "duration": 1.0,
          "velocity": 100
        },
        {
          "pitch": 83,
          "onset": 427.0,
          "duration": 0.5,
          "velocity": 100
        },
        {
          "pitch": 82,
          "onset": 427.5,
          "duration": 0.5,
          "velocity": 100
        },
        {
          "pitch": 73,
          "onset": 428.0,
          "duration": 1.0,
          "velocity": 100
        },
        {
          "pitch": 83,
          "onset": 428.0,
          "duration": 1.0,
          "velocity": 100
        },
        {
          "pitch": 73,
          "onset": 429.0,
          "duration": 1.0,
          "velocity": 100
        },
        {
          "pitch": 71,
          "onset": 430.0,
          "duration": 2.0,
          "velocity": 100
        },
        {
          "pitch": 72,
          "onset": 432.0,
          "duration": 1.0,
          "velocity": 100
        },
        {
          "pitch": 81,
          "onset": 432.0,
          "duration": 1.0,
          "velocity": 100
        },
        {
          "pitch": 80,
          "onset": 433.0,
          "duration": 1.0,
          "velocity": 100
        },
        {
          "pitch": 78,
          "onset": 434.0,
          "duration": 1.0,
          "velocity": 100
        },
        {
          "pitch": 73,
          "onset": 435.0,
          "duration": 1.0,
          "velocity": 100
        },
        {
          "pitch": 76,
          "onset": 435.0,
          "duration": 1.0,
          "velocity": 100
        },
        {
          "pitch": 76,
          "onset": 436.0,
          "duration": 0.5,
          "velocity": 100
        },
        {
          "pitch": 78,
          "onset": 436.5,
          "duration": 0.5,
          "velocity": 100
        },
        {
          "pitch": 80,
          "onset": 437.0,
          "duration": 1.0,
          "velocity": 100
        },
        {
          "pitch": 80,
          "onset": 438.0,
          "duration": 0.5,
          "velocity": 100
        },
        {
          "pitch": 78,
          "onset": 438.5,
          "duration": 0.5,
          "velocity": 100
        },
        {
          "pitch": 81,
          "onset": 439.0,
          "duration": 1.0,
          "velocity": 100
        },
        {
          "pitch": 80,
          "onset": 440.0,
          "duration": 1.0,
          "velocity": 100
        },
        {
          "pitch": 78,
          "onset": 441.0,
          "duration": 0.5,
          "velocity": 100
        },
        {
          "pitch": 76,
          "onset": 441.5,
          "duration": 0.5,
          "velocity": 100
        },
        {
          "pitch": 78,
          "onset": 442.0,
          "duration": 0.5,
          "velocity": 100
        },
        {
          "pitch": 75,
          "onset": 442.5,
          "duration": 0.5,
          "velocity": 100
        },
        {
          "pitch": 76,
          "onset": 443.0,
          "duration": 0.5,
          "velocity": 100
        },
        {
          "pitch": 78,
          "onset": 443.5,
          "duration": 0.5,
          "velocity": 100
        },
        {
          "pitch": 80,
          "onset": 444.0,
          "duration": 1.0,
          "velocity": 100
        },
        {
          "pitch": 73,
          "onset": 445.0,
          "duration": 1.0,
          "velocity": 100
        },
        {
          "pitch": 72,
          "onset": 446.0,
          "duration": 1.0,
          "velocity": 100
        },
        {
          "pitch": 73,
          "onset": 447.0,
          "duration": 1.5,
          "velocity": 100
        },
        {
          "pitch": 76,
          "onset": 448.5,
          "duration": 0.5,
          "velocity": 100
        },
        {
          "pitch": 75,
          "onset": 449.0,
          "duration": 0.5,
          "velocity": 100
        },
        {
          "pitch": 78,
          "onset": 449.5,
          "duration": 0.5,
          "velocity": 100
        },
        {
          "pitch": 68,
          "onset": 450.0,
          "duration": 0.5,
          "velocity": 100
        },
        {
          "pitch": 69,
          "onset": 450.5,
          "duration": 0.5,
          "velocity": 100
        },
        {
          "pitch": 71,
          "onset": 451.0,
          "duration": 0.5,
          "velocity": 100
        },
        {
          "pitch": 73,
          "onset": 451.5,
          "duration": 0.5,
          "velocity": 100
        },
        {
          "pitch": 74,
          "onset": 452.0,
          "duration": 0.5,
          "velocity": 100
        },
        {
          "pitch": 64,
          "onset": 452.5,
          "duration": 0.5,
          "velocity": 100
        },
        {
          "pitch": 57,
          "onset": 453.0,
          "duration": 0.5,
          "velocity": 100
        },
        {
          "pitch": 64,
          "onset": 453.5,
          "duration": 0.5,
          "velocity": 100
        },
        {
          "pitch": 74,
          "onset": 454.0,
          "duration": 0.5,
          "velocity": 100
        },
        {
          "pitch": 71,
          "onset": 454.5,
          "duration": 0.5,
          "velocity": 100
        },
        {
          "pitch": 73,
          "onset": 455.0,
          "duration": 0.5,
          "velocity": 100
        },
        {
          "pitch": 69,
          "onset": 455.5,
          "duration": 0.5,
          "velocity": 100
        },
        {
          "pitch": 66,
          "onset": 456.0,
          "duration": 0.5,
          "velocity": 100
        },
        {
          "pitch": 68,
          "onset": 456.5,
          "duration": 0.5,
          "velocity": 100
        },
        {
          "pitch": 69,
          "onset": 457.0,
          "duration": 0.5,
          "velocity": 100
        },
        {
          "pitch": 71,
          "onset": 457.5,
          "duration": 0.5,
          "velocity": 100
        },
        {
          "pitch": 73,
          "onset": 458.0,
          "duration": 0.5,
          "velocity": 100
        },
        {
          "pitch": 69,
          "onset": 458.5,
          "duration": 0.5,
          "velocity": 100
        },
        {
          "pitch": 56,
          "onset": 459.0,
          "duration": 0.5,
          "velocity": 100
        },
        {
          "pitch": 66,
          "onset": 459.5,
          "duration": 0.5,
          "velocity": 100
        },
        {
          "pitch": 73,
          "onset": 460.0,
          "duration": 0.5,
          "velocity": 100
        },
        {
          "pitch": 69,
          "onset": 460.5,
          "duration": 0.5,
          "velocity": 100
        },
        {
          "pitch": 71,
          "onset": 461.0,
          "duration": 0.5,
          "velocity": 100
        },
        {
          "pitch": 68,
          "onset": 461.5,
          "duration": 0.5,
          "velocity": 100
        },
        {
          "pitch": 64,
          "onset": 462.0,
          "duration": 0.5,
          "velocity": 100
        },
        {
          "pitch": 66,
          "onset": 462.5,
          "duration": 0.5,
          "velocity": 100
        },
        {
          "pitch": 68,
          "onset": 463.0,
          "duration": 0.5,
          "velocity": 100
        },
        {
          "pitch": 69,
          "onset": 463.5,
          "duration": 0.5,
          "velocity": 100
        },
        {
          "pitch": 71,
          "onset": 464.0,
          "duration": 0.5,
          "velocity": 100
        },
        {
          "pitch": 68,
          "onset": 464.5,
          "duration": 0.5,
          "velocity": 100
        },
        {
          "pitch": 69,
          "onset": 465.0,
          "duration": 0.5,
          "velocity": 100
        },
        {
          "pitch": 64,
          "onset": 465.5,
          "duration": 0.5,
          "velocity": 100
        },
        {
          "pitch": 66,
          "onset": 466.0,
          "duration": 0.5,
          "velocity": 100
        },
        {
          "pitch": 69,
          "onset": 466.5,
          "duration": 0.5,
          "velocity": 100
        },
        {
          "pitch": 63,
          "onset": 467.0,
          "duration": 0.5,
          "velocity": 100
        },
        {
          "pitch": 66,
          "onset": 467.5,
          "duration": 0.5,
          "velocity": 100
        },
        {
          "pitch": 68,
          "onset": 468.0,
          "duration": 0.5,
          "velocity": 100
        },
        {
          "pitch": 71,
          "onset": 468.5,
          "duration": 0.5,
          "velocity": 100
        },
        {
          "pitch": 73,
          "onset": 469.0,
          "duration": 0.5,
          "velocity": 100
        },
        {
          "pitch": 76,
          "onset": 469.5,
          "duration": 0.5,
          "velocity": 100
        },
        {
          "pitch": 78,
          "onset": 470.0,
          "duration": 0.5,
          "velocity": 100
        },
        {
          "pitch": 81,
          "onset": 470.5,
          "duration": 0.5,
          "velocity": 100
        },
        {
          "pitch": 76,
          "onset": 471.0,
          "duration": 0.5,
          "velocity": 100
        },
        {
          "pitch": 75,
          "onset": 471.5,
          "duration": 0.5,
          "velocity": 100
        },
        {
          "pitch": 76,
          "onset": 472.0,
          "duration": 0.5,
          "velocity": 100
        },
        {
          "pitch": 75,
          "onset": 472.5,
          "duration": 0.5,
          "velocity": 100
        },
        {
          "pitch": 73,
          "onset": 473.0,
          "duration": 0.5,
          "velocity": 100
        },
        {
          "pitch": 71,
          "onset": 473.5,
          "duration": 0.5,
          "velocity": 100
        },
        {
          "pitch": 80,
          "onset": 474.0,
          "duration": 1.0,
          "velocity": 100
        },
        {
          "pitch": 80,
          "onset": 475.0,
          "duration": 0.5,
          "velocity": 100
        },
        {
          "pitch": 78,
          "onset": 475.5,
          "duration": 0.5,
          "velocity": 100
        },
        {
          "pitch": 80,
          "onset": 476.0,
          "duration": 1.0,
          "velocity": 100
        },
        {
          "pitch": 76,
          "onset": 477.0,
          "duration": 1.0,
          "velocity": 100
        },
        {
          "pitch": 78,
          "onset": 478.0,
          "duration": 0.5,
          "velocity": 100
        },
        {
          "pitch": 75,
          "onset": 478.5,
          "duration": 0.5,
          "velocity": 100
        },
        {
          "pitch": 76,
          "onset": 479.0,
          "duration": 1.0,
          "velocity": 100
        },
        {
          "pitch": 68,
          "onset": 480.0,
          "duration": 0.5,
          "velocity": 100
        },
        {
          "pitch": 71,
          "onset": 480.5,
          "duration": 0.5,
          "velocity": 100
        },
        {
          "pitch": 64,
          "onset": 481.0,
          "duration": 0.5,
          "velocity": 100
        },
        {
          "pitch": 68,
          "onset": 481.5,
          "duration": 0.5,
          "velocity": 100
        },
        {
          "pitch": 71,
          "onset": 482.0,
          "duration": 0.5,
          "velocity": 100
        },
        {
          "pitch": 74,
          "onset": 482.5,
          "duration": 0.5,
          "velocity": 100
        },
        {
          "pitch": 57,
          "onset": 483.0,
          "duration": 0.5,
          "velocity": 100
        },
        {
          "pitch": 64,
          "onset": 483.5,
          "duration": 0.5,
          "velocity": 100
        },
        {
          "pitch": 74,
          "onset": 484.0,
          "duration": 0.5,
          "velocity": 100
        },
        {
          "pitch": 71,
          "onset": 484.5,
          "duration": 0.5,
          "velocity": 100
        },
        {
          "pitch": 73,
          "onset": 485.0,
          "duration": 0.5,
          "velocity": 100
        },
        {
          "pitch": 69,
          "onset": 485.5,
          "duration": 0.5,
          "velocity": 100
        },
        {
          "pitch": 66,
          "onset": 486.0,
          "duration": 0.5,
          "velocity": 100
        },
        {
          "pitch": 76,
          "onset": 486.5,
          "duration": 0.5,
          "velocity": 100
        },
        {
          "pitch": 75,
          "onset": 487.0,
          "duration": 0.5,
          "velocity": 100
        },
        {
          "pitch": 78,
          "onset": 487.5,
          "duration": 0.5,
          "velocity": 100
        },
        {
          "pitch": 81,
          "onset": 488.0,
          "duration": 0.5,
          "velocity": 100
        },
        {
          "pitch": 64,
          "onset": 488.5,
          "duration": 0.5,
          "velocity": 100
        },
        {
          "pitch": 63,
          "onset": 489.0,
          "duration": 0.5,
          "velocity": 100
        },
        {
          "pitch": 71,
          "onset": 489.5,
          "duration": 0.5,
          "velocity": 100
        },
        {
          "pitch": 78,
          "onset": 490.0,
          "duration": 0.5,
          "velocity": 100
        },
        {
          "pitch": 81,
          "onset": 490.5,
          "duration": 0.5,
          "velocity": 100
        },
        {
          "pitch": 80,
          "onset": 491.0,
          "duration": 1.0,
          "velocity": 100
        },
        {
          "pitch": 78,
          "onset": 492.0,
          "duration": 1.0,
          "velocity": 100
        },
        {
          "pitch": 71,
          "onset": 493.0,
          "duration": 1.0,
          "velocity": 100
        },
        {
          "pitch": 75,
          "onset": 494.0,
          "duration": 1.0,
          "velocity": 100
        },
        {
          "pitch": 76,
          "onset": 495.0,
          "duration": 3.0,
          "velocity": 100
        },
        {
          "pitch": 64,
          "onset": 499.5,
          "duration": 0.5,
          "velocity": 1
        }
      ]
    },
    {
      "role": "solo_1",
      "notes": [
        {
          "pitch": 76,
          "onset": 0.0,
          "duration": 1.0,
          "velocity": 100
        },
        {
          "pitch": 75,
          "onset": 1.0,
          "duration": 1.0,
          "velocity": 100
        },
        {
          "pitch": 71,
          "onset": 2.0,
          "duration": 1.0,
          "velocity": 100
        },
        {
          "pitch": 73,
          "onset": 3.0,
          "duration": 1.0,
          "velocity": 100
        },
        {
          "pitch": 68,
          "onset": 6.0,
          "duration": 1.0,
          "velocity": 100
        },
        {
          "pitch": 69,
          "onset": 7.0,
          "duration": 1.0,
          "velocity": 100
        },
        {
          "pitch": 66,
          "onset": 8.0,
          "duration": 1.0,
          "velocity": 100
        },
        {
          "pitch": 64,
          "onset": 9.0,
          "duration": 0.5,
          "velocity": 100
        },
        {
          "pitch": 76,
          "onset": 12.0,
          "duration": 1.0,
          "velocity": 100
        },
        {
          "pitch": 75,
          "onset": 13.0,
          "duration": 1.0,
          "velocity": 100
        },
        {
          "pitch": 71,
          "onset": 14.0,
          "duration": 1.0,
          "velocity": 100
        },
        {
          "pitch": 76,
          "onset": 15.0,
          "duration": 0.5,
          "velocity": 100
        },
        {
          "pitch": 73,
          "onset": 18.0,
          "duration": 1.0,
          "velocity": 100
        },
        {
          "pitch": 75,
          "onset": 19.0,
          "duration": 1.0,
          "velocity": 100
        },
        {
          "pitch": 76,
          "onset": 20.0,
          "duration": 1.0,
          "velocity": 100
        },
        {
          "pitch": 71,
          "onset": 21.0,
          "duration": 3.0,
          "velocity": 100
        },
        {
          "pitch": 76,
          "onset": 24.0,
          "duration": 1.0,
          "velocity": 100
        },
        {
          "pitch": 75,
          "onset": 25.0,
          "duration": 1.0,
          "velocity": 100
        },
        {
          "pitch": 71,
          "onset": 26.0,
          "duration": 1.0,
          "velocity": 100
        },
        {
          "pitch": 73,
          "onset": 27.0,
          "duration": 1.0,
          "velocity": 100
        },
        {
          "pitch": 68,
          "onset": 30.0,
          "duration": 1.0,
          "velocity": 100
        },
        {
          "pitch": 69,
          "onset": 31.0,
          "duration": 1.0,
          "velocity": 100
        },
        {
          "pitch": 66,
          "onset": 32.0,
          "duration": 1.0,
          "velocity": 100
        },
        {
          "pitch": 64,
          "onset": 33.0,
          "duration": 0.5,
          "velocity": 100
        },
        {
          "pitch": 76,
          "onset": 36.0,
          "duration": 1.0,
          "velocity": 100
        },
        {
          "pitch": 75,
          "onset": 37.0,
          "duration": 1.0,
          "velocity": 100
        },
        {
          "pitch": 71,
          "onset": 38.0,
          "duration": 1.0,
          "velocity": 100
        },
        {
          "pitch": 76,
          "onset": 39.0,
          "duration": 0.5,
          "velocity": 100
        },
        {
          "pitch": 73,
          "onset": 42.0,
          "duration": 1.0,
          "velocity": 100
        },
        {
          "pitch": 75,
          "onset": 43.0,
          "duration": 1.0,
          "velocity": 100
        },
        {
          "pitch": 76,
          "onset": 44.0,
          "duration": 1.0,
          "velocity": 100
        },
        {
          "pitch": 71,
          "onset": 45.0,
          "duration": 3.0,
          "velocity": 100
        },
        {
          "pitch": 75,
          "onset": 48.0,
          "duration": 1.0,
          "velocity": 100
        },
        {
          "pitch": 73,
          "onset": 49.0,
          "duration": 1.0,
          "velocity": 100
        },
        {
          "pitch": 71,
          "onset": 50.0,
          "duration": 1.0,
          "velocity": 100
        },
        {
          "pitch": 69,
          "onset": 51.0,
          "duration": 1.0,
          "velocity": 100
        },
        {
          "pitch": 68,
          "onset": 54.0,
          "duration": 1.0,
          "velocity": 100
        },
        {
          "pitch": 66,
          "onset": 55.0,
          "duration": 1.0,
          "velocity": 100
        },
        {
          "pitch": 64,
          "onset": 56.0,
          "duration": 1.0,
          "velocity": 100
        },
        {
          "pitch": 63,
          "onset": 57.0,
          "duration": 3.0,
          "velocity": 100
        },
        {
          "pitch": 63,
          "onset": 60.0,
          "duration": 1.0,
          "velocity": 100
        },
        {
          "pitch": 61,
          "onset": 63.0,
          "duration": 1.0,
          "velocity": 100
        },
        {
          "pitch": 68,
          "onset": 63.0,
          "duration": 1.0,
          "velocity": 100
        },
        {
          "pitch": 73,
          "onset": 64.0,
          "duration": 0.5,
          "velocity": 100
        },
        {
          "pitch": 75,
          "onset": 64.5,
          "duration": 0.5,
          "velocity": 100
        },
        {
          "pitch": 76,
          "onset": 65.0,
          "duration": 1.0,
          "velocity": 100
        },
        {
          "pitch": 75,
          "onset": 66.0,
          "duration": 1.0,
          "velocity": 100
        },
        {
          "pitch": 73,
          "onset": 67.0,
          "duration": 1.0,
          "velocity": 100
        },
        {
          "pitch": 72,
          "onset": 68.0,
          "duration": 1.0,
          "velocity": 100
        },
        {
          "pitch": 73,
          "onset": 69.0,
          "duration": 1.0,
          "velocity": 100
        },
        {
          "pitch": 69,
          "onset": 71.0,
          "duration": 1.0,
          "velocity": 100
        },
        {
          "pitch": 73,
          "onset": 71.0,
          "duration": 1.0,
          "velocity": 100
        },
        {
          "pitch": 64,
          "onset": 72.0,
          "duration": 1.0,
          "velocity": 100
        },
        {
          "pitch": 73,
          "onset": 72.0,
          "duration": 1.0,
          "velocity": 100
        },
        {
          "pitch": 66,
          "onset": 73.0,
          "duration": 1.0,
          "velocity": 100
        },
        {
          "pitch": 68,
          "onset": 74.0,
          "duration": 1.0,
          "velocity": 100
        },
        {
          "pitch": 61,
          "onset": 75.0,
          "duration": 1.5,
          "velocity": 100
        },
        {
          "pitch": 68,
          "onset": 75.0,
          "duration": 1.5,
          "velocity": 100
        },
        {
          "pitch": 61,
          "onset": 90.0,
          "duration": 1.0,
          "velocity": 100
        },
        {
          "pitch": 76,
          "onset": 102.0,
          "duration": 1.0,
          "velocity": 100
        },
        {
          "pitch": 75,
          "onset": 103.0,
          "duration": 1.0,
          "velocity": 100
        },
        {
          "pitch": 71,
          "onset": 104.0,
          "duration": 1.0,
          "velocity": 100
        },
        {
          "pitch": 73,
          "onset": 105.0,
          "duration": 1.0,
          "velocity": 100
        },
        {
          "pitch": 64,
          "onset": 119.0,
          "duration": 1.0,
          "velocity": 100
        },
        {
          "pitch": 71,
          "onset": 119.0,
          "duration": 1.0,
          "velocity": 100
        },
        {
          "pitch": 69,
          "onset": 120.0,
          "duration": 1.0,
          "velocity": 100
        },
        {
          "pitch": 73,
          "onset": 120.0,
          "duration": 1.0,
          "velocity": 100
        },
        {
          "pitch": 68,
          "onset": 121.0,
          "duration": 1.0,
          "velocity": 100
        },
        {
          "pitch": 59,
          "onset": 122.0,
          "duration": 1.0,
          "velocity": 100
        },
        {
          "pitch": 66,
          "onset": 122.0,
          "duration": 1.0,
          "velocity": 100
        },
        {
          "pitch": 71,
          "onset": 123.0,
          "duration": 3.0,
          "velocity": 100
        },
        {
          "pitch": 75,
          "onset": 126.0,
          "duration": 1.0,
          "velocity": 100
        },
        {
          "pitch": 73,
          "onset": 127.0,
          "duration": 1.0,
          "velocity": 100
        },
        {
          "pitch": 71,
          "onset": 128.0,
          "duration": 1.0,
          "velocity": 100
        },
        {
          "pitch": 69,
          "onset": 129.0,
          "duration": 1.0,
          "velocity": 100
        },
        {
          "pitch": 68,
          "onset": 132.0,
          "duration": 1.0,
          "velocity": 100
        },
        {
          "pitch": 66,
          "onset": 133.0,
          "duration": 1.0,
          "velocity": 100
        },
        {
          "pitch": 64,
          "onset": 134.0,
          "duration": 1.0,
          "velocity": 100
        },
        {
          "pitch": 63,
          "onset": 135.0,
          "duration": 3.0,
          "velocity": 100
        },
        {
          "pitch": 63,
          "onset": 138.0,
          "duration": 1.0,
          "velocity": 100
        },
        {
          "pitch": 61,
          "onset": 141.0,
          "duration": 1.0,
          "velocity": 100
        },
        {
          "pitch": 68,
          "onset": 141.0,
          "duration": 1.0,
          "velocity": 100
        },
        {
          "pitch": 73,
          "onset": 142.0,
          "duration": 0.5,
          "velocity": 100
        },
        {
          "pitch": 75,
          "onset": 142.5,
          "duration": 0.5,
          "velocity": 100
        },
        {
          "pitch": 76,
          "onset": 143.0,
          "duration": 1.0,
          "velocity": 100
        },
        {
          "pitch": 75,
          "onset": 144.0,
          "duration": 1.0,
          "velocity": 100
        },
        {
          "pitch": 73,
          "onset": 145.0,
          "duration": 1.0,
          "velocity": 100
        },
        {
          "pitch": 72,
          "onset": 146.0,
          "duration": 1.0,
          "velocity": 100
        },
        {
          "pitch": 73,
          "onset": 147.0,
          "duration": 1.0,
          "velocity": 100
        },
        {
          "pitch": 69,
          "onset": 149.0,
          "duration": 1.0,
          "velocity": 100
        },
        {
          "pitch": 73,
          "onset": 149.0,
          "duration": 1.0,
          "velocity": 100
        },
        {
          "pitch": 64,
          "onset": 150.0,
          "duration": 1.0,
          "velocity": 100
        },
        {
          "pitch": 73,
          "onset": 150.0,
          "duration": 1.0,
          "velocity": 100
        },
        {
          "pitch": 66,
          "onset": 151.0,
          "duration": 1.0,
          "velocity": 100
        },
        {
          "pitch": 68,
          "onset": 152.0,
          "duration": 1.0,
          "velocity": 100
        },
        {
          "pitch": 61,
          "onset": 153.0,
          "duration": 1.5,
          "velocity": 100
        },
        {
          "pitch": 68,
          "onset": 153.0,
          "duration": 1.5,
          "velocity": 100
        },
        {
          "pitch": 61,
          "onset": 168.0,
          "duration": 1.0,
          "velocity": 100
        },
        {
          "pitch": 76,
          "onset": 180.0,
          "duration": 1.0,
          "velocity": 100
        },
        {
          "pitch": 75,
          "onset": 181.0,
          "duration": 1.0,
          "velocity": 100
        },
        {
          "pitch": 71,
          "onset": 182.0,
          "duration": 1.0,
          "velocity": 100
        },
        {
          "pitch": 73,
          "onset": 183.0,
          "duration": 1.0,
          "velocity": 100
        },
        {
          "pitch": 64,
          "onset": 197.0,
          "duration": 1.0,
          "velocity": 100
        },
        {
          "pitch": 71,
          "onset": 197.0,
          "duration": 1.0,
          "velocity": 100
        },
        {
          "pitch": 69,
          "onset": 198.0,
          "duration": 1.0,
          "velocity": 100
        },
        {
          "pitch": 73,
          "onset": 198.0,
          "duration": 1.0,
          "velocity": 100
        },
        {
          "pitch": 68,
          "onset": 199.0,
          "duration": 1.0,
          "velocity": 100
        },
        {
          "pitch": 59,
          "onset": 200.0,
          "duration": 1.0,
          "velocity": 100
        },
        {
          "pitch": 66,
          "onset": 200.0,
          "duration": 1.0,
          "velocity": 100
        },
        {
          "pitch": 71,
          "onset": 201.0,
          "duration": 3.0,
          "velocity": 100
        },
        {
          "pitch": 68,
          "onset": 204.0,
          "duration": 1.0,
          "velocity": 100
        },
        {
          "pitch": 69,
          "onset": 205.0,
          "duration": 0.5,
          "velocity": 100
        },
        {
          "pitch": 68,
          "onset": 205.5,
          "duration": 0.5,
          "velocity": 100
        },
        {
          "pitch": 66,
          "onset": 206.0,
          "duration": 0.5,
          "velocity": 100
        },
        {
          "pitch": 64,
          "onset": 206.5,
          "duration": 0.5,
          "velocity": 100
        },
        {
          "pitch": 66,
          "onset": 207.0,
          "duration": 0.5,
          "velocity": 100
        },
        {
          "pitch": 68,
          "onset": 207.5,
          "duration": 0.5,
          "velocity": 100
        },
        {
          "pitch": 68,
          "onset": 208.0,
          "duration": 0.5,
          "velocity": 100
        },
        {
          "pitch": 69,
          "onset": 208.5,
          "duration": 1.5,
          "velocity": 100
        },
        {
          "pitch": 68,
          "onset": 210.0,
          "duration": 0.5,
          "velocity": 100
        },
        {
          "pitch": 66,
          "onset": 210.5,
          "duration": 0.5,
          "velocity": 100
        },
        {
          "pitch": 69,
          "onset": 211.0,
          "duration": 0.5,
          "velocity": 100
        },
        {
          "pitch": 68,
          "onset": 211.5,
          "duration": 0.5,
          "velocity": 100
        },
        {
          "pitch": 66,
          "onset": 212.0,
          "duration": 0.5,
          "velocity": 100
        },
        {
          "pitch": 64,
          "onset": 212.5,
          "duration": 0.5,
          "velocity": 100
        },
        {
          "pitch": 63,
          "onset": 213.0,
          "duration": 0.5,
          "velocity": 100
        },
        {
          "pitch": 64,
          "onset": 213.5,
          "duration": 0.5,
          "velocity": 100
        },
        {
          "pitch": 66,
          "onset": 214.0,
          "duration": 1.0,
          "velocity": 100
        },
        {
          "pitch": 59,
          "onset": 215.0,
          "duration": 1.0,
          "velocity": 100
        },
        {
          "pitch": 68,
          "onset": 228.0,
          "duration": 1.0,
          "velocity": 100
        },
        {
          "pitch": 69,
          "onset": 229.0,
          "duration": 0.5,
          "velocity": 100
        },
        {
          "pitch": 68,
          "onset": 229.5,
          "duration": 0.5,
          "velocity": 100
        },
        {
          "pitch": 66,
          "onset": 230.0,
          "duration": 0.5,
          "velocity": 100
        },
        {
          "pitch": 64,
          "onset": 230.5,
          "duration": 0.5,
          "velocity": 100
        },
        {
          "pitch": 66,
          "onset": 231.0,
          "duration": 0.5,
          "velocity": 100
        },
        {
          "pitch": 68,
          "onset": 231.5,
          "duration": 0.5,
          "velocity": 100
        },
        {
          "pitch": 68,
          "onset": 232.0,
          "duration": 0.5,
          "velocity": 100
        },
        {
          "pitch": 69,
          "onset": 232.5,
          "duration": 1.5,
          "velocity": 100
        },
        {
          "pitch": 68,
          "onset": 234.0,
          "duration": 0.5,
          "velocity": 100
        },
        {
          "pitch": 64,
          "onset": 234.5,
          "duration": 0.5,
          "velocity": 100
        },
        {
          "pitch": 64,
          "onset": 235.0,
          "duration": 0.5,
          "velocity": 100
        },
        {
          "pitch": 68,
          "onset": 235.5,
          "duration": 0.5,
          "velocity": 100
        },
        {
          "pitch": 68,
          "onset": 236.0,
          "duration": 0.5,
          "velocity": 100
        },
        {
          "pitch": 71,
          "onset": 236.5,
          "duration": 0.5,
          "velocity": 100
        },
        {
          "pitch": 70,
          "onset": 237.0,
          "duration": 0.5,
          "velocity": 100
        },
        {
          "pitch": 71,
          "onset": 237.5,
          "duration": 0.5,
          "velocity": 100
        },
        {
          "pitch": 73,
          "onset": 238.0,
          "duration": 1.0,
          "velocity": 100
        },
        {
          "pitch": 66,
          "onset": 239.0,
          "duration": 1.0,
          "velocity": 100
        },
        {
          "pitch": 68,
          "onset": 252.0,
          "duration": 1.0,
          "velocity": 100
        },
        {
          "pitch": 69,
          "onset": 253.0,
          "duration": 0.5,
          "velocity": 100
        },
        {
          "pitch": 68,
          "onset": 253.5,
          "duration": 0.5,
          "velocity": 100
        },
        {
          "pitch": 66,
          "onset": 254.0,
          "duration": 0.5,
          "velocity": 100
        },
        {
          "pitch": 64,
          "onset": 254.5,
          "duration": 0.5,
          "velocity": 100
        },
        {
          "pitch": 66,
          "onset": 255.0,
          "duration": 0.5,
          "velocity": 100
        },
        {
          "pitch": 68,
          "onset": 255.5,
          "duration": 0.5,
          "velocity": 100
        },
        {
          "pitch": 68,
          "onset": 256.0,
          "duration": 0.5,
          "velocity": 100
        },
        {
          "pitch": 69,
          "onset": 256.5,
          "duration": 1.5,
          "velocity": 100
        },
        {
          "pitch": 68,
          "onset": 258.0,
          "duration": 0.5,
          "velocity": 100
        },
        {
          "pitch": 66,
          "onset": 258.5,
          "duration": 0.5,
          "velocity": 100
        },
        {
          "pitch": 69,
          "onset": 259.0,
          "duration": 0.5,
          "velocity": 100
        },
        {
          "pitch": 68,
          "onset": 259.5,
          "duration": 0.5,
          "velocity": 100
        },
        {
          "pitch": 66,
          "onset": 260.0,
          "duration": 0.5,
          "velocity": 100
        },
        {
          "pitch": 64,
          "onset": 260.5,
          "duration": 0.5,
          "velocity": 100
        },
        {
          "pitch": 63,
          "onset": 261.0,
          "duration": 0.5,
          "velocity": 100
        },
        {
          "pitch": 64,
          "onset": 261.5,
          "duration": 0.5,
          "velocity": 100
        },
        {
          "pitch": 66,
          "onset": 262.0,
          "duration": 1.0,
          "velocity": 100
        },
        {
          "pitch": 59,
          "onset": 263.0,
          "duration": 1.0,
          "velocity": 100
        },
        {
          "pitch": 68,
          "onset": 276.0,
          "duration": 1.0,
          "velocity": 100
        },
        {
          "pitch": 69,
          "onset": 277.0,
          "duration": 0.5,
          "velocity": 100
        },
        {
          "pitch": 68,
          "onset": 277.5,
          "duration": 0.5,
          "velocity": 100
        },
        {
          "pitch": 66,
          "onset": 278.0,
          "duration": 0.5,
          "velocity": 100
        },
        {
          "pitch": 64,
          "onset": 278.5,
          "duration": 0.5,
          "velocity": 100
        },
        {
          "pitch": 66,
          "onset": 279.0,
          "duration": 0.5,
          "velocity": 100
        },
        {
          "pitch": 68,
          "onset": 279.5,
          "duration": 0.5,
          "velocity": 100
        },
        {
          "pitch": 68,
          "onset": 280.0,
          "duration": 0.5,
          "velocity": 100
        },
        {
          "pitch": 69,
          "onset": 280.5,
          "duration": 1.5,
          "velocity": 100
        },
        {
          "pitch": 68,
          "onset": 282.0,
          "duration": 0.5,
          "velocity": 100
        },
        {
          "pitch": 64,
          "onset": 282.5,
          "duration": 0.5,
          "velocity": 100
        },
        {
          "pitch": 64,
          "onset": 283.0,
          "duration": 0.5,
          "velocity": 100
        },
        {
          "pitch": 68,
          "onset": 283.5,
          "duration": 0.5,
          "velocity": 100
        },
        {
          "pitch": 68,
          "onset": 284.0,
          "duration": 0.5,
          "velocity": 100
        },
        {
          "pitch": 71,
          "onset": 284.5,
          "duration": 0.5,
          "velocity": 100
        },
        {
          "pitch": 70,
          "onset": 285.0,
          "duration": 0.5,
          "velocity": 100
        },
        {
          "pitch": 71,
          "onset": 285.5,
          "duration": 0.5,
          "velocity": 100
        },
        {
          "pitch": 73,
          "onset": 286.0,
          "duration": 1.0,
          "velocity": 100
        },
        {
          "pitch": 66,
          "onset": 287.0,
          "duration": 1.0,
          "velocity": 100
        },
        {
          "pitch": 69,
          "onset": 300.0,
          "duration": 1.0,
          "velocity": 100
        },
        {
          "pitch": 68,
          "onset": 303.0,
          "duration": 1.0,
          "velocity": 100
        },
        {
          "pitch": 71,
          "onset": 303.0,
          "duration": 1.0,
          "velocity": 100
        },
        {
          "pitch": 74,
          "onset": 304.0,
          "duration": 1.0,
          "velocity": 100
        },
        {
          "pitch": 71,
          "onset": 306.0,
          "duration": 1.0,
          "velocity": 100
        },
        {
          "pitch": 69,
          "onset": 309.0,
          "duration": 1.0,
          "velocity": 100
        },
        {
          "pitch": 75,
          "onset": 324.0,
          "duration": 1.0,
          "velocity": 100
        },
        {
          "pitch": 76,
          "onset": 327.0,
          "duration": 1.0,
          "velocity": 100
        },
        {
          "pitch": 64,
          "onset": 336.0,
          "duration": 1.0,
          "velocity": 100
        },
        {
          "pitch": 69,
          "onset": 339.0,
          "duration": 0.5,
          "velocity": 100
        },
        {
          "pitch": 69,
          "onset": 340.0,
          "duration": 2.0,
          "velocity": 100
        },
        {
          "pitch": 69,
          "onset": 348.0,
          "duration": 1.0,
          "velocity": 100
        },
        {
          "pitch": 68,
          "onset": 351.0,
          "duration": 1.0,
          "velocity": 100
        },
        {
          "pitch": 71,
          "onset": 351.0,
          "duration": 1.0,
          "velocity": 100
        },
        {
          "pitch": 74,
          "onset": 352.0,
          "duration": 1.0,
          "velocity": 100
        },
        {
          "pitch": 71,
          "onset": 354.0,
          "duration": 1.0,
          "velocity": 100
        },
        {
          "pitch": 69,
          "onset": 357.0,
          "duration": 1.0,
          "velocity": 100
        },
        {
          "pitch": 75,
          "onset": 372.0,
          "duration": 1.0,
          "velocity": 100
        },
        {
          "pitch": 76,
          "onset": 375.0,
          "duration": 1.0,
          "velocity": 100
        },
        {
          "pitch": 64,
          "onset": 384.0,
          "duration": 1.0,
          "velocity": 100
        },
        {
          "pitch": 69,
          "onset": 387.0,
          "duration": 0.5,
          "velocity": 100
        },
        {
          "pitch": 69,
          "onset": 388.0,
          "duration": 2.0,
          "velocity": 100
        },
        {
          "pitch": 76,
          "onset": 396.0,
          "duration": 1.0,
          "velocity": 100
        },
        {
          "pitch": 75,
          "onset": 397.0,
          "duration": 1.0,
          "velocity": 100
        },
        {
          "pitch": 71,
          "onset": 398.0,
          "duration": 1.0,
          "velocity": 100
        },
        {
          "pitch": 73,
          "onset": 399.0,
          "duration": 1.0,
          "velocity": 100
        },
        {
          "pitch": 68,
          "onset": 402.0,
          "duration": 1.0,
          "velocity": 100
        },
        {
          "pitch": 69,
          "onset": 403.0,
          "duration": 1.0,
          "velocity": 100
        },
        {
          "pitch": 66,
          "onset": 404.0,
          "duration": 1.0,
          "velocity": 100
        },
        {
          "pitch": 64,
          "onset": 405.0,
          "duration": 0.5,
          "velocity": 100
        },
        {
          "pitch": 76,
          "onset": 408.0,
          "duration": 1.0,
          "velocity": 100
        },
        {
          "pitch": 75,
          "onset": 409.0,
          "duration": 1.0,
          "velocity": 100
        },
        {
          "pitch": 71,
          "onset": 410.0,
          "duration": 1.0,
          "velocity": 100
        },
        {
          "pitch": 76,
          "onset": 411.0,
          "duration": 0.5,
          "velocity": 100
        },
        {
          "pitch": 73,
          "onset": 414.0,
          "duration": 1.0,
          "velocity": 100
        },
        {
          "pitch": 75,
          "onset": 415.0,
          "duration": 1.0,
          "velocity": 100
        },
        {
          "pitch": 76,
          "onset": 416.0,
          "duration": 1.0,
          "velocity": 100
        },
        {
          "pitch": 71,
          "onset": 417.0,
          "duration": 3.0,
          "velocity": 100
        },
        {
          "pitch": 75,
          "onset": 420.0,
          "duration": 1.0,
          "velocity": 100
        },
        {
          "pitch": 73,
          "onset": 421.0,
          "duration": 1.0,
          "velocity": 100
        },
        {
          "pitch": 71,
          "onset": 422.0,
          "duration": 1.0,
          "velocity": 100
        },
        {
          "pitch": 69,
          "onset": 423.0,
          "duration": 1.0,
          "velocity": 100
        },
        {
          "pitch": 68,
          "onset": 426.0,
          "duration": 1.0,
          "velocity": 100
        },
        {
          "pitch": 66,
          "onset": 427.0,
          "duration": 1.0,
          "velocity": 100
        },
        {
          "pitch": 64,
          "onset": 428.0,
          "duration": 1.0,
          "velocity": 100
        },
        {
          "pitch": 63,
          "onset": 429.0,
          "duration": 3.0,
          "velocity": 100
        },
        {
          "pitch": 63,
          "onset": 432.0,
          "duration": 1.0,
          "velocity": 100
        },
        {
          "pitch": 61,
          "onset": 435.0,
          "duration": 1.0,
          "velocity": 100
        },
        {
          "pitch": 68,
          "onset": 435.0,
          "duration": 1.0,
          "velocity": 100
        },
        {
          "pitch": 73,
          "onset": 436.0,
          "duration": 0.5,
          "velocity": 100
        },
        {
          "pitch": 75,
          "onset": 436.5,
          "duration": 0.5,
          "velocity": 100
        },
        {
          "pitch": 76,
          "onset": 437.0,
          "duration": 1.0,
          "velocity": 100
        },
        {
          "pitch": 75,
          "onset": 438.0,
          "duration": 1.0,
          "velocity": 100
        },
        {
          "pitch": 73,
          "onset": 439.0,
          "duration": 1.0,
          "velocity": 100
        },
        {
          "pitch": 72,
          "onset": 440.0,
          "duration": 1.0,
          "velocity": 100
        },
        {
          "pitch": 73,
          "onset": 441.0,
          "duration": 1.0,
          "velocity": 100
        },
        {
          "pitch": 69,
          "onset": 443.0,
          "duration": 1.0,
          "velocity": 100
        },
        {
          "pitch": 73,
          "onset": 443.0,
          "duration": 1.0,
          "velocity": 100
        },
        {
          "pitch": 64,
          "onset": 444.0,
          "duration": 1.0,
          "velocity": 100
        },
        {
          "pitch": 73,
          "onset": 444.0,
          "duration": 1.0,
          "velocity": 100
        },
        {
          "pitch": 66,
          "onset": 445.0,
          "duration": 1.0,
          "velocity": 100
        },
        {
          "pitch": 68,
          "onset": 446.0,
          "duration": 1.0,
          "velocity": 100
        },
        {
          "pitch": 61,
          "onset": 447.0,
          "duration": 1.5,
          "velocity": 100
        },
        {
          "pitch": 68,
          "onset": 447.0,
          "duration": 1.5,
          "velocity": 100
        },
        {
          "pitch": 61,
          "onset": 462.0,
          "duration": 1.0,
          "velocity": 100
        },
        {
          "pitch": 76,
          "onset": 474.0,
          "duration": 1.0,
          "velocity": 100
        },
        {
          "pitch": 75,
          "onset": 475.0,
          "duration": 1.0,
          "velocity": 100
        },
        {
          "pitch": 71,
          "onset": 476.0,
          "duration": 1.0,
          "velocity": 100
        },
        {
          "pitch": 73,
          "onset": 477.0,
          "duration": 1.0,
          "velocity": 100
        },
        {
          "pitch": 64,
          "onset": 491.0,
          "duration": 1.0,
          "velocity": 100
        },
        {
          "pitch": 71,
          "onset": 491.0,
          "duration": 1.0,
          "velocity": 100
        },
        {
          "pitch": 69,
          "onset": 492.0,
          "duration": 1.0,
          "velocity": 100
        },
        {
          "pitch": 73,
          "onset": 492.0,
          "duration": 1.0,
          "velocity": 100
        },
        {
          "pitch": 68,
          "onset": 493.0,
          "duration": 1.0,
          "velocity": 100
        },
        {
          "pitch": 59,
          "onset": 494.0,
          "duration": 1.0,
          "velocity": 100
        },
        {
          "pitch": 66,
          "onset": 494.0,
          "duration": 1.0,
          "velocity": 100
        },
        {
          "pitch": 71,
          "onset": 495.0,
          "duration": 3.0,
          "velocity": 100
        }
      ]
    }
  ]
}