{
  "bwv": 1009,
  "category": "solo_cello_suite",
  "instrument": "cello",
  "form": "",
  "movement": 5,
  "ticks_per_beat": 384,
  "duration_seconds": 272.6,
  "tempos": [
    {
      "tick": 0,
      "bpm": 140
    },
    {
      "tick": 48,
      "bpm": 240
    },
    {
      "tick": 720,
      "bpm": 140
    },
    {
      "tick": 11904,
      "bpm": 135
    },
    {
      "tick": 12672,
      "bpm": 130
    },
    {
      "tick": 13440,
      "bpm": 140
    },
    {
      "tick": 24192,
      "bpm": 135
    },
    {
      "tick": 24576,
      "bpm": 130
    },
    {
      "tick": 24960,
      "bpm": 120
    },
    {
      "tick": 25728,
      "bpm": 140
    },
    {
      "tick": 36480,
      "bpm": 135
    },
    {
      "tick": 37248,
      "bpm": 130
    },
    {
      "tick": 38016,
      "bpm": 140
    },
    {
      "tick": 54528,
      "bpm": 135
    },
    {
      "tick": 54720,
      "bpm": 130
    },
    {
      "tick": 56448,
      "bpm": 140
    },
    {
      "tick": 67200,
      "bpm": 135
    },
    {
      "tick": 67968,
      "bpm": 130
    },
    {
      "tick": 68736,
      "bpm": 140
    },
    {
      "tick": 84096,
      "bpm": 135
    },
    {
      "tick": 84480,
      "bpm": 130
    },
    {
      "tick": 85248,
      "bpm": 120
    },
    {
      "tick": 85632,
      "bpm": 100
    },
    {
      "tick": 87168,
      "bpm": 140
    },
    {
      "tick": 97536,
      "bpm": 135
    },
    {
      "tick": 97920,
      "bpm": 130
    },
    {
      "tick": 98112,
      "bpm": 120
    },
    {
      "tick": 99456,
      "bpm": 140
    },
    {
      "tick": 109824,
      "bpm": 135
    },
    {
      "tick": 110016,
      "bpm": 130
    },
    {
      "tick": 110208,
      "bpm": 120
    },
    {
      "tick": 110400,
      "bpm": 100
    },
    {
      "tick": 111744,
      "bpm": 140
    },
    {
      "tick": 122880,
      "bpm": 135
    },
    {
      "tick": 123264,
      "bpm": 130
    },
    {
      "tick": 124032,
      "bpm": 140
    },
    {
      "tick": 134400,
      "bpm": 135
    },
    {
      "tick": 134784,
      "bpm": 130
    },
    {
      "tick": 134976,
      "bpm": 120
    },
    {
      "tick": 136320,
      "bpm": 140
    },
    {
      "tick": 147072,
      "bpm": 135
    },
    {
      "tick": 147264,
      "bpm": 135
    },
    {
      "tick": 147456,
      "bpm": 130
    },
    {
      "tick": 147840,
      "bpm": 125
    },
    {
      "tick": 148608,
      "bpm": 140
    },
    {
      "tick": 158592,
      "bpm": 135
    },
    {
      "tick": 158976,
      "bpm": 130
    },
    {
      "tick": 159168,
      "bpm": 120
    },
    {
      "tick": 159360,
      "bpm": 100
    },
    {
      "tick": 159552,
      "bpm": 80
    },
    {
      "tick": 160896,
      "bpm": 140
    },
    {
      "tick": 172032,
      "bpm": 130
    },
    {
      "tick": 172416,
      "bpm": 125
    },
    {
      "tick": 173184,
      "bpm": 140
    },
    {
      "tick": 184320,
      "bpm": 135
    },
    {
      "tick": 184704,
      "bpm": 130
    },
    {
      "tick": 185472,
      "bpm": 140
    },
    {
      "tick": 200832,
      "bpm": 135
    },
    {
      "tick": 201984,
      "bpm": 130
    },
    {
      "tick": 202368,
      "bpm": 120
    },
    {
      "tick": 203904,
      "bpm": 140
    },
    {
      "tick": 215040,
      "bpm": 135
    },
    {
      "tick": 215424,
      "bpm": 130
    },
    {
      "tick": 216192,
      "bpm": 140
    },
    {
      "tick": 231168,
      "bpm": 135
    },
    {
      "tick": 231552,
      "bpm": 130
    },
    {
      "tick": 231936,
      "bpm": 120
    },
    {
      "tick": 232704,
      "bpm": 100
    },
    {
      "tick": 233088,
      "bpm": 80
    }
  ],
  "time_signatures": [
    {
      "tick": 0,
      "numerator": 4,
      "denominator": 4
    }
  ],
  "track_type": "solo_string",
  "voice_count": 2,
  "total_notes": 1035,
  "tracks": [
    {
      "role": "solo_0",
      "notes": [
        {
          "pitch": 52,
          "onset": 3.0,
          "duration": 0.5,
          "velocity": 100
        },
        {
          "pitch": 53,
          "onset": 3.5,
          "duration": 0.5,
          "velocity": 100
        },
        {
          "pitch": 55,
          "onset": 4.0,
          "duration": 1.0,
          "velocity": 100
        },
        {
          "pitch": 48,
          "onset": 5.0,
          "duration": 0.5,
          "velocity": 100
        },
        {
          "pitch": 47,
          "onset": 5.5,
          "duration": 0.5,
          "velocity": 100
        },
        {
          "pitch": 48,
          "onset": 6.0,
          "duration": 0.75,
          "velocity": 100
        },
        {
          "pitch": 60,
          "onset": 7.0,
          "duration": 0.75,
          "velocity": 100
        },
        {
          "pitch": 50,
          "onset": 8.0,
          "duration": 1.0,
          "velocity": 100
        },
        {
          "pitch": 59,
          "onset": 8.25,
          "duration": 0.75,
          "velocity": 100
        },
        {
          "pitch": 57,
          "onset": 9.0,
          "duration": 0.5,
          "velocity": 100
        },
        {
          "pitch": 59,
          "onset": 9.5,
          "duration": 0.5,
          "velocity": 100
        },
        {
          "pitch": 55,
          "onset": 10.0,
          "duration": 0.75,
          "velocity": 100
        },
        {
          "pitch": 50,
          "onset": 11.0,
          "duration": 0.5,
          "velocity": 100
        },
        {
          "pitch": 52,
          "onset": 11.5,
          "duration": 0.5,
          "velocity": 100
        },
        {
          "pitch": 53,
          "onset": 12.0,
          "duration": 1.0,
          "velocity": 100
        },
        {
          "pitch": 47,
          "onset": 13.0,
          "duration": 0.5,
          "velocity": 100
        },
        {
          "pitch": 45,
          "onset": 13.5,
          "duration": 0.5,
          "velocity": 100
        },
        {
          "pitch": 47,
          "onset": 14.0,
          "duration": 0.75,
          "velocity": 100
        },
        {
          "pitch": 55,
          "onset": 15.0,
          "duration": 0.75,
          "velocity": 100
        },
        {
          "pitch": 43,
          "onset": 16.0,
          "duration": 1.0,
          "velocity": 100
        },
        {
          "pitch": 53,
          "onset": 16.25,
          "duration": 0.25,
          "velocity": 100
        },
        {
          "pitch": 52,
          "onset": 16.5,
          "duration": 0.5,
          "velocity": 100
        },
        {
          "pitch": 50,
          "onset": 17.0,
          "duration": 0.5,
          "velocity": 100
        },
        {
          "pitch": 52,
          "onset": 17.5,
          "duration": 0.5,
          "velocity": 100
        },
        {
          "pitch": 48,
          "onset": 18.0,
          "duration": 0.75,
          "velocity": 100
        },
        {
          "pitch": 60,
          "onset": 19.0,
          "duration": 0.5,
          "velocity": 100
        },
        {
          "pitch": 59,
          "onset": 19.5,
          "duration": 0.5,
          "velocity": 100
        },
        {
          "pitch": 57,
          "onset": 20.0,
          "duration": 0.5,
          "velocity": 100
        },
        {
          "pitch": 59,
          "onset": 20.5,
          "duration": 0.5,
          "velocity": 100
        },
        {
          "pitch": 60,
          "onset": 21.0,
          "duration": 0.375,
          "velocity": 100
        },
        {
          "pitch": 55,
          "onset": 21.5,
          "duration": 0.375,
          "velocity": 100
        },
        {
          "pitch": 54,
          "onset": 22.0,
          "duration": 0.5,
          "velocity": 100
        },
        {
          "pitch": 59,
          "onset": 22.5,
          "duration": 0.5,
          "velocity": 100
        },
        {
          "pitch": 60,
          "onset": 23.0,
          "duration": 0.375,
          "velocity": 100
        },
        {
          "pitch": 52,
          "onset": 23.5,
          "duration": 0.375,
          "velocity": 100
        },
        {
          "pitch": 50,
          "onset": 24.0,
          "duration": 0.5,
          "velocity": 100
        },
        {
          "pitch": 59,
          "onset": 24.5,
          "duration": 0.5,
          "velocity": 100
        },
        {
          "pitch": 60,
          "onset": 25.0,
          "duration": 0.375,
          "velocity": 100
        },
        {
          "pitch": 48,
          "onset": 25.5,
          "duration": 0.375,
          "velocity": 100
        },
        {
          "pitch": 47,
          "onset": 26.0,
          "duration": 0.5,
          "velocity": 100
        },
        {
          "pitch": 50,
          "onset": 26.5,
          "duration": 0.5,
          "velocity": 100
        },
        {
          "pitch": 54,
          "onset": 27.0,
          "duration": 0.5,
          "velocity": 100
        },
        {
          "pitch": 57,
          "onset": 27.5,
          "duration": 0.5,
          "velocity": 100
        },
        {
          "pitch": 62,
          "onset": 28.0,
          "duration": 0.75,
          "velocity": 100
        },
        {
          "pitch": 59,
          "onset": 29.0,
          "duration": 0.5,
          "velocity": 100
        },
        {
          "pitch": 55,
          "onset": 29.5,
          "duration": 0.5,
          "velocity": 100
        },
        {
          "pitch": 50,
          "onset": 30.0,
          "duration": 0.75,
          "velocity": 100
        },
        {
          "pitch": 54,
          "onset": 31.0,
          "duration": 0.75,
          "velocity": 100
        },
        {
          "pitch": 55,
          "onset": 32.0,
          "duration": 0.75,
          "velocity": 100
        },
        {
          "pitch": 50,
          "onset": 33.0,
          "duration": 0.75,
          "velocity": 100
        },
        {
          "pitch": 43,
          "onset": 34.0,
          "duration": 0.75,
          "velocity": 100
        },
        {
          "pitch": 52,
          "onset": 35.0,
          "duration": 0.5,
          "velocity": 100
        },
        {
          "pitch": 53,
          "onset": 35.5,
          "duration": 0.5,
          "velocity": 100
        },
        {
          "pitch": 55,
          "onset": 36.0,
          "duration": 1.0,
          "velocity": 100
        },
        {
          "pitch": 48,
          "onset": 37.0,
          "duration": 0.5,
          "velocity": 100
        },
        {
          "pitch": 47,
          "onset": 37.5,
          "duration": 0.5,
          "velocity": 100
        },
        {
          "pitch": 48,
          "onset": 38.0,
          "duration": 0.75,
          "velocity": 100
        },
        {
          "pitch": 60,
          "onset": 39.0,
          "duration": 0.75,
          "velocity": 100
        },
        {
          "pitch": 50,
          "onset": 40.0,
          "duration": 1.0,
          "velocity": 100
        },
        {
          "pitch": 59,
          "onset": 40.25,
          "duration": 0.75,
          "velocity": 100
        },
        {
          "pitch": 57,
          "onset": 41.0,
          "duration": 0.5,
          "velocity": 100
        },
        {
          "pitch": 59,
          "onset": 41.5,
          "duration": 0.5,
          "velocity": 100
        },
        {
          "pitch": 55,
          "onset": 42.0,
          "duration": 0.75,
          "velocity": 100
        },
        {
          "pitch": 50,
          "onset": 43.0,
          "duration": 0.5,
          "velocity": 100
        },
        {
          "pitch": 52,
          "onset": 43.5,
          "duration": 0.5,
          "velocity": 100
        },
        {
          "pitch": 53,
          "onset": 44.0,
          "duration": 1.0,
          "velocity": 100
        },
        {
          "pitch": 47,
          "onset": 45.0,
          "duration": 0.5,
          "velocity": 100
        },
        {
          "pitch": 45,
          "onset": 45.5,
          "duration": 0.5,
          "velocity": 100
        },
        {
          "pitch": 47,
          "onset": 46.0,
          "duration": 0.75,
          "velocity": 100
        },
        {
          "pitch": 55,
          "onset": 47.0,
          "duration": 0.75,
          "velocity": 100
        },
        {
          "pitch": 43,
          "onset": 48.0,
          "duration": 1.0,
          "velocity": 100
        },
        {
          "pitch": 53,
          "onset": 48.25,
          "duration": 0.25,
          "velocity": 100
        },
        {
          "pitch": 52,
          "onset": 48.5,
          "duration": 0.5,
          "velocity": 100
        },
        {
          "pitch": 50,
          "onset": 49.0,
          "duration": 0.5,
          "velocity": 100
        },
        {
          "pitch": 52,
          "onset": 49.5,
          "duration": 0.5,
          "velocity": 100
        },
        {
          "pitch": 48,
          "onset": 50.0,
          "duration": 0.75,
          "velocity": 100
        },
        {
          "pitch": 60,
          "onset": 51.0,
          "duration": 0.5,
          "velocity": 100
        },
        {
          "pitch": 59,
          "onset": 51.5,
          "duration": 0.5,
          "velocity": 100
        },
        {
          "pitch": 57,
          "onset": 52.0,
          "duration": 0.5,
          "velocity": 100
        },
        {
          "pitch": 59,
          "onset": 52.5,
          "duration": 0.5,
          "velocity": 100
        },
        {
          "pitch": 60,
          "onset": 53.0,
          "duration": 0.375,
          "velocity": 100
        },
        {
          "pitch": 55,
          "onset": 53.5,
          "duration": 0.375,
          "velocity": 100
        },
        {
          "pitch": 54,
          "onset": 54.0,
          "duration": 0.5,
          "velocity": 100
        },
        {
          "pitch": 59,
          "onset": 54.5,
          "duration": 0.5,
          "velocity": 100
        },
        {
          "pitch": 60,
          "onset": 55.0,
          "duration": 0.375,
          "velocity": 100
        },
        {
          "pitch": 52,
          "onset": 55.5,
          "duration": 0.375,
          "velocity": 100
        },
        {
          "pitch": 50,
          "onset": 56.0,
          "duration": 0.5,
          "velocity": 100
        },
        {
          "pitch": 59,
          "onset": 56.5,
          "duration": 0.5,
          "velocity": 100
        },
        {
          "pitch": 60,
          "onset": 57.0,
          "duration": 0.375,
          "velocity": 100
        },
        {
          "pitch": 48,
          "onset": 57.5,
          "duration": 0.375,
          "velocity": 100
        },
        {
          "pitch": 47,
          "onset": 58.0,
          "duration": 0.5,
          "velocity": 100
        },
        {
          "pitch": 50,
          "onset": 58.5,
          "duration": 0.5,
          "velocity": 100
        },
        {
          "pitch": 54,
          "onset": 59.0,
          "duration": 0.5,
          "velocity": 100
        },
        {
          "pitch": 57,
          "onset": 59.5,
          "duration": 0.5,
          "velocity": 100
        },
        {
          "pitch": 62,
          "onset": 60.0,
          "duration": 0.75,
          "velocity": 100
        },
        {
          "pitch": 59,
          "onset": 61.0,
          "duration": 0.5,
          "velocity": 100
        },
        {
          "pitch": 55,
          "onset": 61.5,
          "duration": 0.5,
          "velocity": 100
        },
        {
          "pitch": 50,
          "onset": 62.0,
          "duration": 0.75,
          "velocity": 100
        },
        {
          "pitch": 54,
          "onset": 63.0,
          "duration": 0.75,
          "velocity": 100
        },
        {
          "pitch": 55,
          "onset": 64.0,
          "duration": 0.75,
          "velocity": 100
        },
        {
          "pitch": 50,
          "onset": 65.0,
          "duration": 0.75,
          "velocity": 100
        },
        {
          "pitch": 43,
          "onset": 66.0,
          "duration": 0.75,
          "velocity": 100
        },
        {
          "pitch": 59,
          "onset": 67.0,
          "duration": 0.5,
          "velocity": 100
        },
        {
          "pitch": 60,
          "onset": 67.5,
          "duration": 0.5,
          "velocity": 100
        },
        {
          "pitch": 62,
          "onset": 68.0,
          "duration": 1.0,
          "velocity": 100
        },
        {
          "pitch": 59,
          "onset": 69.0,
          "duration": 0.5,
          "velocity": 100
        },
        {
          "pitch": 55,
          "onset": 69.5,
          "duration": 0.5,
          "velocity": 100
        },
        {
          "pitch": 53,
          "onset": 70.0,
          "duration": 0.75,
          "velocity": 100
        },
        {
          "pitch": 59,
          "onset": 71.0,
          "duration": 0.75,
          "velocity": 100
        },
        {
          "pitch": 52,
          "onset": 72.0,
          "duration": 0.5,
          "velocity": 100
        },
        {
          "pitch": 55,
          "onset": 72.5,
          "duration": 0.5,
          "velocity": 100
        },
        {
          "pitch": 60,
          "onset": 73.0,
          "duration": 0.5,
          "velocity": 100
        },
        {
          "pitch": 62,
          "onset": 73.5,
          "duration": 0.5,
          "velocity": 100
        },
        {
          "pitch": 64,
          "onset": 74.0,
          "duration": 1.0,
          "velocity": 100
        },
        {
          "pitch": 60,
          "onset": 75.0,
          "duration": 0.5,
          "velocity": 100
        },
        {
          "pitch": 56,
          "onset": 75.5,
          "duration": 0.5,
          "velocity": 100
        },
        {
          "pitch": 57,
          "onset": 76.0,
          "duration": 1.0,
          "velocity": 100
        },
        {
          "pitch": 53,
          "onset": 77.0,
          "duration": 0.5,
          "velocity": 100
        },
        {
          "pitch": 57,
          "onset": 77.5,
          "duration": 0.5,
          "velocity": 100
        },
        {
          "pitch": 50,
          "onset": 78.0,
          "duration": 0.5,
          "velocity": 100
        },
        {
          "pitch": 60,
          "onset": 78.5,
          "duration": 0.5,
          "velocity": 100
        },
        {
          "pitch": 59,
          "onset": 79.0,
          "duration": 0.5,
          "velocity": 100
        },
        {
          "pitch": 57,
          "onset": 79.5,
          "duration": 0.5,
          "velocity": 100
        },
        {
          "pitch": 52,
          "onset": 80.0,
          "duration": 0.5,
          "velocity": 100
        },
        {
          "pitch": 57,
          "onset": 80.5,
          "duration": 0.5,
          "velocity": 100
        },
        {
          "pitch": 56,
          "onset": 81.0,
          "duration": 0.5,
          "velocity": 100
        },
        {
          "pitch": 54,
          "onset": 81.5,
          "duration": 0.5,
          "velocity": 100
        },
        {
          "pitch": 52,
          "onset": 82.0,
          "duration": 1.0,
          "velocity": 100
        },
        {
          "pitch": 59,
          "onset": 83.0,
          "duration": 0.5,
          "velocity": 100
        },
        {
          "pitch": 52,
          "onset": 83.5,
          "duration": 0.5,
          "velocity": 100
        },
        {
          "pitch": 60,
          "onset": 84.0,
          "duration": 0.5,
          "velocity": 100
        },
        {
          "pitch": 57,
          "onset": 84.5,
          "duration": 0.5,
          "velocity": 100
        },
        {
          "pitch": 56,
          "onset": 85.0,
          "duration": 0.5,
          "velocity": 100
        },
        {
          "pitch": 57,
          "onset": 85.5,
          "duration": 0.5,
          "velocity": 100
        },
        {
          "pitch": 59,
          "onset": 86.0,
          "duration": 0.75,
          "velocity": 100
        },
        {
          "pitch": 60,
          "onset": 87.0,
          "duration": 0.75,
          "velocity": 100
        },
        {
          "pitch": 62,
          "onset": 88.0,
          "duration": 0.5,
          "velocity": 100
        },
        {
          "pitch": 59,
          "onset": 88.5,
          "duration": 0.5,
          "velocity": 100
        },
        {
          "pitch": 57,
          "onset": 89.0,
          "duration": 0.5,
          "velocity": 100
        },
        {
          "pitch": 59,
          "onset": 89.5,
          "duration": 0.5,
          "velocity": 100
        },
        {
          "pitch": 60,
          "onset": 90.0,
          "duration": 0.75,
          "velocity": 100
        },
        {
          "pitch": 62,
          "onset": 91.0,
          "duration": 0.75,
          "velocity": 100
        },
        {
          "pitch": 64,
          "onset": 92.5,
          "duration": 0.5,
          "velocity": 100
        },
        {
          "pitch": 59,
          "onset": 93.0,
          "duration": 0.5,
          "velocity": 100
        },
        {
          "pitch": 60,
          "onset": 93.5,
          "duration": 0.5,
          "velocity": 100
        },
        {
          "pitch": 52,
          "onset": 94.0,
          "duration": 0.75,
          "velocity": 100
        },
        {
          "pitch": 57,
          "onset": 95.0,
          "duration": 0.5,
          "velocity": 100
        },
        {
          "pitch": 56,
          "onset": 95.5,
          "duration": 0.5,
          "velocity": 100
        },
        {
          "pitch": 57,
          "onset": 96.0,
          "duration": 0.75,
          "velocity": 100
        },
        {
          "pitch": 52,
          "onset": 97.0,
          "duration": 0.75,
          "velocity": 100
        },
        {
          "pitch": 45,
          "onset": 98.0,
          "duration": 0.75,
          "velocity": 100
        },
        {
          "pitch": 57,
          "onset": 99.0,
          "duration": 0.5,
          "velocity": 100
        },
        {
          "pitch": 59,
          "onset": 99.5,
          "duration": 0.5,
          "velocity": 100
        },
        {
          "pitch": 60,
          "onset": 100.0,
          "duration": 1.0,
          "velocity": 100
        },
        {
          "pitch": 54,
          "onset": 101.0,
          "duration": 0.5,
          "velocity": 100
        },
        {
          "pitch": 52,
          "onset": 101.5,
          "duration": 0.5,
          "velocity": 100
        },
        {
          "pitch": 54,
          "onset": 102.0,
          "duration": 0.75,
          "velocity": 100
        },
        {
          "pitch": 50,
          "onset": 103.0,
          "duration": 0.75,
          "velocity": 100
        },
        {
          "pitch": 48,
          "onset": 104.5,
          "duration": 0.5,
          "velocity": 100
        },
        {
          "pitch": 60,
          "onset": 105.0,
          "duration": 0.375,
          "velocity": 100
        },
        {
          "pitch": 57,
          "onset": 105.5,
          "duration": 0.375,
          "velocity": 100
        },
        {
          "pitch": 59,
          "onset": 106.0,
          "duration": 0.75,
          "velocity": 100
        },
        {
          "pitch": 55,
          "onset": 107.0,
          "duration": 0.5,
          "velocity": 100
        },
        {
          "pitch": 53,
          "onset": 107.5,
          "duration": 0.5,
          "velocity": 100
        },
        {
          "pitch": 52,
          "onset": 108.0,
          "duration": 0.5,
          "velocity": 100
        },
        {
          "pitch": 55,
          "onset": 108.5,
          "duration": 0.5,
          "velocity": 100
        },
        {
          "pitch": 60,
          "onset": 109.0,
          "duration": 0.5,
          "velocity": 100
        },
        {
          "pitch": 65,
          "onset": 110.5,
          "duration": 0.5,
          "velocity": 100
        },
        {
          "pitch": 64,
          "onset": 111.0,
          "duration": 0.5,
          "velocity": 100
        },
        {
          "pitch": 60,
          "onset": 111.5,
          "duration": 0.5,
          "velocity": 100
        },
        {
          "pitch": 62,
          "onset": 112.0,
          "duration": 0.5,
          "velocity": 100
        },
        {
          "pitch": 60,
          "onset": 112.5,
          "duration": 0.5,
          "velocity": 100
        },
        {
          "pitch": 59,
          "onset": 113.0,
          "duration": 0.5,
          "velocity": 100
        },
        {
          "pitch": 57,
          "onset": 113.5,
          "duration": 0.5,
          "velocity": 100
        },
        {
          "pitch": 55,
          "onset": 114.0,
          "duration": 0.75,
          "velocity": 100
        },
        {
          "pitch": 59,
          "onset": 115.0,
          "duration": 0.5,
          "velocity": 100
        },
        {
          "pitch": 60,
          "onset": 115.5,
          "duration": 0.5,
          "velocity": 100
        },
        {
          "pitch": 62,
          "onset": 116.0,
          "duration": 0.5,
          "velocity": 100
        },
        {
          "pitch": 59,
          "onset": 116.5,
          "duration": 0.5,
          "velocity": 100
        },
        {
          "pitch": 55,
          "onset": 117.0,
          "duration": 0.5,
          "velocity": 100
        },
        {
          "pitch": 57,
          "onset": 117.5,
          "duration": 0.5,
          "velocity": 100
        },
        {
          "pitch": 59,
          "onset": 118.0,
          "duration": 0.5,
          "velocity": 100
        },
        {
          "pitch": 55,
          "onset": 118.5,
          "duration": 0.5,
          "velocity": 100
        },
        {
          "pitch": 50,
          "onset": 119.0,
          "duration": 0.5,
          "velocity": 100
        },
        {
          "pitch": 52,
          "onset": 119.5,
          "duration": 0.5,
          "velocity": 100
        },
        {
          "pitch": 53,
          "onset": 120.0,
          "duration": 0.5,
          "velocity": 100
        },
        {
          "pitch": 50,
          "onset": 120.5,
          "duration": 0.5,
          "velocity": 100
        },
        {
          "pitch": 47,
          "onset": 121.0,
          "duration": 0.5,
          "velocity": 100
        },
        {
          "pitch": 48,
          "onset": 121.5,
          "duration": 0.5,
          "velocity": 100
        },
        {
          "pitch": 50,
          "onset": 122.0,
          "duration": 0.5,
          "velocity": 100
        },
        {
          "pitch": 47,
          "onset": 122.5,
          "duration": 0.75,
          "velocity": 100
        },
        {
          "pitch": 53,
          "onset": 123.5,
          "duration": 0.5,
          "velocity": 100
        },
        {
          "pitch": 52,
          "onset": 124.0,
          "duration": 0.5,
          "velocity": 100
        },
        {
          "pitch": 48,
          "onset": 124.5,
          "duration": 0.75,
          "velocity": 100
        },
        {
          "pitch": 55,
          "onset": 125.5,
          "duration": 0.5,
          "velocity": 100
        },
        {
          "pitch": 52,
          "onset": 126.0,
          "duration": 0.5,
          "velocity": 100
        },
        {
          "pitch": 48,
          "onset": 126.5,
          "duration": 0.75,
          "velocity": 100
        },
        {
          "pitch": 60,
          "onset": 127.5,
          "duration": 0.5,
          "velocity": 100
        },
        {
          "pitch": 55,
          "onset": 128.0,
          "duration": 0.5,
          "velocity": 100
        },
        {
          "pitch": 52,
          "onset": 128.5,
          "duration": 0.5,
          "velocity": 100
        },
        {
          "pitch": 53,
          "onset": 129.0,
          "duration": 0.5,
          "velocity": 100
        },
        {
          "pitch": 50,
          "onset": 129.5,
          "duration": 0.5,
          "velocity": 100
        },
        {
          "pitch": 52,
          "onset": 130.0,
          "duration": 0.5,
          "velocity": 100
        },
        {
          "pitch": 48,
          "onset": 130.5,
          "duration": 0.75,
          "velocity": 100
        },
        {
          "pitch": 52,
          "onset": 131.5,
          "duration": 0.5,
          "velocity": 100
        },
        {
          "pitch": 50,
          "onset": 132.0,
          "duration": 0.5,
          "velocity": 100
        },
        {
          "pitch": 52,
          "onset": 132.5,
          "duration": 0.5,
          "velocity": 100
        },
        {
          "pitch": 53,
          "onset": 133.0,
          "duration": 0.5,
          "velocity": 100
        },
        {
          "pitch": 48,
          "onset": 133.5,
          "duration": 0.5,
          "velocity": 100
        },
        {
          "pitch": 47,
          "onset": 134.0,
          "duration": 0.5,
          "velocity": 100
        },
        {
          "pitch": 52,
          "onset": 134.5,
          "duration": 0.5,
          "velocity": 100
        },
        {
          "pitch": 53,
          "onset": 135.0,
          "duration": 0.5,
          "velocity": 100
        },
        {
          "pitch": 52,
          "onset": 136.5,
          "duration": 0.5,
          "velocity": 100
        },
        {
          "pitch": 53,
          "onset": 137.0,
          "duration": 0.75,
          "velocity": 100
        },
        {
          "pitch": 43,
          "onset": 138.5,
          "duration": 0.5,
          "velocity": 100
        },
        {
          "pitch": 47,
          "onset": 139.0,
          "duration": 0.5,
          "velocity": 100
        },
        {
          "pitch": 50,
          "onset": 139.5,
          "duration": 0.5,
          "velocity": 100
        },
        {
          "pitch": 55,
          "onset": 140.0,
          "duration": 0.75,
          "velocity": 100
        },
        {
          "pitch": 52,
          "onset": 141.0,
          "duration": 0.5,
          "velocity": 100
        },
        {
          "pitch": 48,
          "onset": 141.5,
          "duration": 0.5,
          "velocity": 100
        },
        {
          "pitch": 47,
          "onset": 143.0,
          "duration": 0.75,
          "velocity": 100
        },
        {
          "pitch": 48,
          "onset": 144.0,
          "duration": 2.0,
          "velocity": 100
        },
        {
          "pitch": 59,
          "onset": 147.0,
          "duration": 0.5,
          "velocity": 100
        },
        {
          "pitch": 60,
          "onset": 147.5,
          "duration": 0.5,
          "velocity": 100
        },
        {
          "pitch": 62,
          "onset": 148.0,
          "duration": 1.0,
          "velocity": 100
        },
        {
          "pitch": 59,
          "onset": 149.0,
          "duration": 0.5,
          "velocity": 100
        },
        {
          "pitch": 55,
          "onset": 149.5,
          "duration": 0.5,
          "velocity": 100
        },
        {
          "pitch": 53,
          "onset": 150.0,
          "duration": 0.75,
          "velocity": 100
        },
        {
          "pitch": 59,
          "onset": 151.0,
          "duration": 0.75,
          "velocity": 100
        },
        {
          "pitch": 52,
          "onset": 152.0,
          "duration": 0.5,
          "velocity": 100
        },
        {
          "pitch": 55,
          "onset": 152.5,
          "duration": 0.5,
          "velocity": 100
        },
        {
          "pitch": 60,
          "onset": 153.0,
          "duration": 0.5,
          "velocity": 100
        },
        {
          "pitch": 62,
          "onset": 153.5,
          "duration": 0.5,
          "velocity": 100
        },
        {
          "pitch": 64,
          "onset": 154.0,
          "duration": 1.0,
          "velocity": 100
        },
        {
          "pitch": 60,
          "onset": 155.0,
          "duration": 0.5,
          "velocity": 100
        },
        {
          "pitch": 56,
          "onset": 155.5,
          "duration": 0.5,
          "velocity": 100
        },
        {
          "pitch": 57,
          "onset": 156.0,
          "duration": 1.0,
          "velocity": 100
        },
        {
          "pitch": 53,
          "onset": 157.0,
          "duration": 0.5,
          "velocity": 100
        },
        {
          "pitch": 57,
          "onset": 157.5,
          "duration": 0.5,
          "velocity": 100
        },
        {
          "pitch": 50,
          "onset": 158.0,
          "duration": 0.5,
          "velocity": 100
        },
        {
          "pitch": 60,
          "onset": 158.5,
          "duration": 0.5,
          "velocity": 100
        },
        {
          "pitch": 59,
          "onset": 159.0,
          "duration": 0.5,
          "velocity": 100
        },
        {
          "pitch": 57,
          "onset": 159.5,
          "duration": 0.5,
          "velocity": 100
        },
        {
          "pitch": 52,
          "onset": 160.0,
          "duration": 0.5,
          "velocity": 100
        },
        {
          "pitch": 57,
          "onset": 160.5,
          "duration": 0.5,
          "velocity": 100
        },
        {
          "pitch": 56,
          "onset": 161.0,
          "duration": 0.5,
          "velocity": 100
        },
        {
          "pitch": 54,
          "onset": 161.5,
          "duration": 0.5,
          "velocity": 100
        },
        {
          "pitch": 52,
          "onset": 162.0,
          "duration": 1.0,
          "velocity": 100
        },
        {
          "pitch": 59,
          "onset": 163.0,
          "duration": 0.5,
          "velocity": 100
        },
        {
          "pitch": 52,
          "onset": 163.5,
          "duration": 0.5,
          "velocity": 100
        },
        {
          "pitch": 60,
          "onset": 164.0,
          "duration": 0.5,
          "velocity": 100
        },
        {
          "pitch": 57,
          "onset": 164.5,
          "duration": 0.5,
          "velocity": 100
        },
        {
          "pitch": 56,
          "onset": 165.0,
          "duration": 0.5,
          "velocity": 100
        },
        {
          "pitch": 57,
          "onset": 165.5,
          "duration": 0.5,
          "velocity": 100
        },
        {
          "pitch": 59,
          "onset": 166.0,
          "duration": 0.75,
          "velocity": 100
        },
        {
          "pitch": 60,
          "onset": 167.0,
          "duration": 0.75,
          "velocity": 100
        },
        {
          "pitch": 62,
          "onset": 168.0,
          "duration": 0.5,
          "velocity": 100
        },
        {
          "pitch": 59,
          "onset": 168.5,
          "duration": 0.5,
          "velocity": 100
        },
        {
          "pitch": 57,
          "onset": 169.0,
          "duration": 0.5,
          "velocity": 100
        },
        {
          "pitch": 59,
          "onset": 169.5,
          "duration": 0.5,
          "velocity": 100
        },
        {
          "pitch": 60,
          "onset": 170.0,
          "duration": 0.75,
          "velocity": 100
        },
        {
          "pitch": 62,
          "onset": 171.0,
          "duration": 0.75,
          "velocity": 100
        },
        {
          "pitch": 64,
          "onset": 172.5,
          "duration": 0.5,
          "velocity": 100
        },
        {
          "pitch": 59,
          "onset": 173.0,
          "duration": 0.5,
          "velocity": 100
        },
        {
          "pitch": 60,
          "onset": 173.5,
          "duration": 0.5,
          "velocity": 100
        },
        {
          "pitch": 52,
          "onset": 174.0,
          "duration": 0.75,
          "velocity": 100
        },
        {
          "pitch": 57,
          "onset": 175.0,
          "duration": 0.5,
          "velocity": 100
        },
        {
          "pitch": 56,
          "onset": 175.5,
          "duration": 0.5,
          "velocity": 100
        },
        {
          "pitch": 57,
          "onset": 176.0,
          "duration": 0.75,
          "velocity": 100
        },
        {
          "pitch": 52,
          "onset": 177.0,
          "duration": 0.75,
          "velocity": 100
        },
        {
          "pitch": 45,
          "onset": 178.0,
          "duration": 0.75,
          "velocity": 100
        },
        {
          "pitch": 57,
          "onset": 179.0,
          "duration": 0.5,
          "velocity": 100
        },
        {
          "pitch": 59,
          "onset": 179.5,
          "duration": 0.5,
          "velocity": 100
        },
        {
          "pitch": 60,
          "onset": 180.0,
          "duration": 1.0,
          "velocity": 100
        },
        {
          "pitch": 54,
          "onset": 181.0,
          "duration": 0.5,
          "velocity": 100
        },
        {
          "pitch": 52,
          "onset": 181.5,
          "duration": 0.5,
          "velocity": 100
        },
        {
          "pitch": 54,
          "onset": 182.0,
          "duration": 0.75,
          "velocity": 100
        },
        {
          "pitch": 50,
          "onset": 183.0,
          "duration": 0.75,
          "velocity": 100
        },
        {
          "pitch": 48,
          "onset": 184.5,
          "duration": 0.5,
          "velocity": 100
        },
        {
          "pitch": 60,
          "onset": 185.0,
          "duration": 0.375,
          "velocity": 100
        },
        {
          "pitch": 57,
          "onset": 185.5,
          "duration": 0.375,
          "velocity": 100
        },
        {
          "pitch": 59,
          "onset": 186.0,
          "duration": 0.75,
          "velocity": 100
        },
        {
          "pitch": 55,
          "onset": 187.0,
          "duration": 0.5,
          "velocity": 100
        },
        {
          "pitch": 53,
          "onset": 187.5,
          "duration": 0.5,
          "velocity": 100
        },
        {
          "pitch": 52,
          "onset": 188.0,
          "duration": 0.5,
          "velocity": 100
        },
        {
          "pitch": 55,
          "onset": 188.5,
          "duration": 0.5,
          "velocity": 100
        },
        {
          "pitch": 60,
          "onset": 189.0,
          "duration": 0.5,
          "velocity": 100
        },
        {
          "pitch": 65,
          "onset": 190.5,
          "duration": 0.5,
          "velocity": 100
        },
        {
          "pitch": 64,
          "onset": 191.0,
          "duration": 0.5,
          "velocity": 100
        },
        {
          "pitch": 60,
          "onset": 191.5,
          "duration": 0.5,
          "velocity": 100
        },
        {
          "pitch": 62,
          "onset": 192.0,
          "duration": 0.5,
          "velocity": 100
        },
        {
          "pitch": 60,
          "onset": 192.5,
          "duration": 0.5,
          "velocity": 100
        },
        {
          "pitch": 59,
          "onset": 193.0,
          "duration": 0.5,
          "velocity": 100
        },
        {
          "pitch": 57,
          "onset": 193.5,
          "duration": 0.5,
          "velocity": 100
        },
        {
          "pitch": 55,
          "onset": 194.0,
          "duration": 0.75,
          "velocity": 100
        },
        {
          "pitch": 59,
          "onset": 195.0,
          "duration": 0.5,
          "velocity": 100
        },
        {
          "pitch": 60,
          "onset": 195.5,
          "duration": 0.5,
          "velocity": 100
        },
        {
          "pitch": 62,
          "onset": 196.0,
          "duration": 0.5,
          "velocity": 100
        },
        {
          "pitch": 59,
          "onset": 196.5,
          "duration": 0.5,
          "velocity": 100
        },
        {
          "pitch": 55,
          "onset": 197.0,
          "duration": 0.5,
          "velocity": 100
        },
        {
          "pitch": 57,
          "onset": 197.5,
          "duration": 0.5,
          "velocity": 100
        },
        {
          "pitch": 59,
          "onset": 198.0,
          "duration": 0.5,
          "velocity": 100
        },
        {
          "pitch": 55,
          "onset": 198.5,
          "duration": 0.5,
          "velocity": 100
        },
        {
          "pitch": 50,
          "onset": 199.0,
          "duration": 0.5,
          "velocity": 100
        },
        {
          "pitch": 52,
          "onset": 199.5,
          "duration": 0.5,
          "velocity": 100
        },
        {
          "pitch": 53,
          "onset": 200.0,
          "duration": 0.5,
          "velocity": 100
        },
        {
          "pitch": 50,
          "onset": 200.5,
          "duration": 0.5,
          "velocity": 100
        },
        {
          "pitch": 47,
          "onset": 201.0,
          "duration": 0.5,
          "velocity": 100
        },
        {
          "pitch": 48,
          "onset": 201.5,
          "duration": 0.5,
          "velocity": 100
        },
        {
          "pitch": 50,
          "onset": 202.0,
          "duration": 0.5,
          "velocity": 100
        },
        {
          "pitch": 47,
          "onset": 202.5,
          "duration": 0.75,
          "velocity": 100
        },
        {
          "pitch": 53,
          "onset": 203.5,
          "duration": 0.5,
          "velocity": 100
        },
        {
          "pitch": 52,
          "onset": 204.0,
          "duration": 0.5,
          "velocity": 100
        },
        {
          "pitch": 48,
          "onset": 204.5,
          "duration": 0.75,
          "velocity": 100
        },
        {
          "pitch": 55,
          "onset": 205.5,
          "duration": 0.5,
          "velocity": 100
        },
        {
          "pitch": 52,
          "onset": 206.0,
          "duration": 0.5,
          "velocity": 100
        },
        {
          "pitch": 48,
          "onset": 206.5,
          "duration": 0.75,
          "velocity": 100
        },
        {
          "pitch": 60,
          "onset": 207.5,
          "duration": 0.5,
          "velocity": 100
        },
        {
          "pitch": 55,
          "onset": 208.0,
          "duration": 0.5,
          "velocity": 100
        },
        {
          "pitch": 52,
          "onset": 208.5,
          "duration": 0.5,
          "velocity": 100
        },
        {
          "pitch": 53,
          "onset": 209.0,
          "duration": 0.5,
          "velocity": 100
        },
        {
          "pitch": 50,
          "onset": 209.5,
          "duration": 0.5,
          "velocity": 100
        },
        {
          "pitch": 52,
          "onset": 210.0,
          "duration": 0.5,
          "velocity": 100
        },
        {
          "pitch": 48,
          "onset": 210.5,
          "duration": 0.75,
          "velocity": 100
        },
        {
          "pitch": 52,
          "onset": 211.5,
          "duration": 0.5,
          "velocity": 100
        },
        {
          "pitch": 50,
          "onset": 212.0,
          "duration": 0.5,
          "velocity": 100
        },
        {
          "pitch": 52,
          "onset": 212.5,
          "duration": 0.5,
          "velocity": 100
        },
        {
          "pitch": 53,
          "onset": 213.0,
          "duration": 0.5,
          "velocity": 100
        },
        {
          "pitch": 48,
          "onset": 213.5,
          "duration": 0.5,
          "velocity": 100
        },
        {
          "pitch": 47,
          "onset": 214.0,
          "duration": 0.5,
          "velocity": 100
        },
        {
          "pitch": 52,
          "onset": 214.5,
          "duration": 0.5,
          "velocity": 100
        },
        {
          "pitch": 53,
          "onset": 215.0,
          "duration": 0.5,
          "velocity": 100
        },
        {
          "pitch": 52,
          "onset": 216.5,
          "duration": 0.5,
          "velocity": 100
        },
        {
          "pitch": 53,
          "onset": 217.0,
          "duration": 0.75,
          "velocity": 100
        },
        {
          "pitch": 43,
          "onset": 218.5,
          "duration": 0.5,
          "velocity": 100
        },
        {
          "pitch": 47,
          "onset": 219.0,
          "duration": 0.5,
          "velocity": 100
        },
        {
          "pitch": 50,
          "onset": 219.5,
          "duration": 0.5,
          "velocity": 100
        },
        {
          "pitch": 55,
          "onset": 220.0,
          "duration": 0.75,
          "velocity": 100
        },
        {
          "pitch": 52,
          "onset": 221.0,
          "duration": 0.5,
          "velocity": 100
        },
        {
          "pitch": 48,
          "onset": 221.5,
          "duration": 0.5,
          "velocity": 100
        },
        {
          "pitch": 47,
          "onset": 223.0,
          "duration": 0.75,
          "velocity": 100
        },
        {
          "pitch": 48,
          "onset": 224.0,
          "duration": 2.0,
          "velocity": 100
        },
        {
          "pitch": 60,
          "onset": 227.0,
          "duration": 0.5,
          "velocity": 75
        },
        {
          "pitch": 62,
          "onset": 227.5,
          "duration": 0.5,
          "velocity": 75
        },
        {
          "pitch": 63,
          "onset": 228.0,
          "duration": 1.0,
          "velocity": 75
        },
        {
          "pitch": 62,
          "onset": 229.0,
          "duration": 0.5,
          "velocity": 75
        },
        {
          "pitch": 60,
          "onset": 229.5,
          "duration": 0.5,
          "velocity": 75
        },
        {
          "pitch": 59,
          "onset": 230.0,
          "duration": 1.0,
          "velocity": 75
        },
        {
          "pitch": 60,
          "onset": 231.0,
          "duration": 1.0,
          "velocity": 75
        },
        {
          "pitch": 62,
          "onset": 232.0,
          "duration": 0.5,
          "velocity": 75
        },
        {
          "pitch": 60,
          "onset": 232.5,
          "duration": 0.5,
          "velocity": 75
        },
        {
          "pitch": 59,
          "onset": 233.0,
          "duration": 0.5,
          "velocity": 75
        },
        {
          "pitch": 57,
          "onset": 233.5,
          "duration": 0.5,
          "velocity": 75
        },
        {
          "pitch": 55,
          "onset": 234.0,
          "duration": 0.5,
          "velocity": 75
        },
        {
          "pitch": 53,
          "onset": 234.5,
          "duration": 0.5,
          "velocity": 75
        },
        {
          "pitch": 51,
          "onset": 235.0,
          "duration": 0.5,
          "velocity": 75
        },
        {
          "pitch": 50,
          "onset": 235.5,
          "duration": 0.5,
          "velocity": 75
        },
        {
          "pitch": 51,
          "onset": 236.0,
          "duration": 0.5,
          "velocity": 75
        },
        {
          "pitch": 55,
          "onset": 236.5,
          "duration": 0.5,
          "velocity": 75
        },
        {
          "pitch": 53,
          "onset": 237.0,
          "duration": 0.5,
          "velocity": 75
        },
        {
          "pitch": 51,
          "onset": 237.5,
          "duration": 0.5,
          "velocity": 75
        },
        {
          "pitch": 50,
          "onset": 238.0,
          "duration": 0.5,
          "velocity": 75
        },
        {
          "pitch": 53,
          "onset": 238.5,
          "duration": 0.5,
          "velocity": 75
        },
        {
          "pitch": 51,
          "onset": 239.0,
          "duration": 0.5,
          "velocity": 75
        },
        {
          "pitch": 50,
          "onset": 239.5,
          "duration": 0.5,
          "velocity": 75
        },
        {
          "pitch": 48,
          "onset": 240.0,
          "duration": 0.5,
          "velocity": 75
        },
        {
          "pitch": 47,
          "onset": 240.5,
          "duration": 0.5,
          "velocity": 75
        },
        {
          "pitch": 48,
          "onset": 241.0,
          "duration": 0.5,
          "velocity": 75
        },
        {
          "pitch": 50,
          "onset": 241.5,
          "duration": 0.5,
          "velocity": 75
        },
        {
          "pitch": 51,
          "onset": 242.0,
          "duration": 0.5,
          "velocity": 75
        },
        {
          "pitch": 53,
          "onset": 242.5,
          "duration": 0.5,
          "velocity": 75
        },
        {
          "pitch": 55,
          "onset": 243.0,
          "duration": 0.5,
          "velocity": 75
        },
        {
          "pitch": 56,
          "onset": 243.5,
          "duration": 0.5,
          "velocity": 75
        },
        {
          "pitch": 58,
          "onset": 244.0,
          "duration": 1.0,
          "velocity": 75
        },
        {
          "pitch": 56,
          "onset": 245.0,
          "duration": 0.5,
          "velocity": 75
        },
        {
          "pitch": 55,
          "onset": 245.5,
          "duration": 0.5,
          "velocity": 75
        },
        {
          "pitch": 53,
          "onset": 246.0,
          "duration": 1.0,
          "velocity": 75
        },
        {
          "pitch": 51,
          "onset": 247.0,
          "duration": 1.0,
          "velocity": 75
        },
        {
          "pitch": 50,
          "onset": 248.0,
          "duration": 0.5,
          "velocity": 75
        },
        {
          "pitch": 51,
          "onset": 248.5,
          "duration": 0.5,
          "velocity": 75
        },
        {
          "pitch": 53,
          "onset": 249.0,
          "duration": 0.5,
          "velocity": 75
        },
        {
          "pitch": 55,
          "onset": 249.5,
          "duration": 0.5,
          "velocity": 75
        },
        {
          "pitch": 56,
          "onset": 250.0,
          "duration": 0.5,
          "velocity": 75
        },
        {
          "pitch": 58,
          "onset": 250.5,
          "duration": 0.5,
          "velocity": 75
        },
        {
          "pitch": 60,
          "onset": 251.0,
          "duration": 0.5,
          "velocity": 75
        },
        {
          "pitch": 62,
          "onset": 251.5,
          "duration": 0.5,
          "velocity": 75
        },
        {
          "pitch": 63,
          "onset": 252.0,
          "duration": 1.0,
          "velocity": 75
        },
        {
          "pitch": 62,
          "onset": 253.0,
          "duration": 0.5,
          "velocity": 75
        },
        {
          "pitch": 60,
          "onset": 253.5,
          "duration": 0.5,
          "velocity": 75
        },
        {
          "pitch": 58,
          "onset": 254.0,
          "duration": 0.5,
          "velocity": 75
        },
        {
          "pitch": 56,
          "onset": 254.5,
          "duration": 0.5,
          "velocity": 75
        },
        {
          "pitch": 55,
          "onset": 255.0,
          "duration": 0.5,
          "velocity": 75
        },
        {
          "pitch": 53,
          "onset": 255.5,
          "duration": 0.5,
          "velocity": 75
        },
        {
          "pitch": 51,
          "onset": 256.0,
          "duration": 0.1562,
          "velocity": 75
        },
        {
          "pitch": 53,
          "onset": 256.1562,
          "duration": 0.1562,
          "velocity": 75
        },
        {
          "pitch": 51,
          "onset": 256.3438,
          "duration": 0.1562,
          "velocity": 75
        },
        {
          "pitch": 53,
          "onset": 256.5,
          "duration": 0.1562,
          "velocity": 75
        },
        {
          "pitch": 51,
          "onset": 256.6562,
          "duration": 0.1562,
          "velocity": 75
        },
        {
          "pitch": 53,
          "onset": 256.8438,
          "duration": 0.1562,
          "velocity": 75
        },
        {
          "pitch": 51,
          "onset": 257.0,
          "duration": 1.5,
          "velocity": 75
        },
        {
          "pitch": 60,
          "onset": 259.0,
          "duration": 0.5,
          "velocity": 75
        },
        {
          "pitch": 62,
          "onset": 259.5,
          "duration": 0.5,
          "velocity": 75
        },
        {
          "pitch": 63,
          "onset": 260.0,
          "duration": 1.0,
          "velocity": 75
        },
        {
          "pitch": 62,
          "onset": 261.0,
          "duration": 0.5,
          "velocity": 75
        },
        {
          "pitch": 60,
          "onset": 261.5,
          "duration": 0.5,
          "velocity": 75
        },
        {
          "pitch": 59,
          "onset": 262.0,
          "duration": 1.0,
          "velocity": 75
        },
        {
          "pitch": 60,
          "onset": 263.0,
          "duration": 1.0,
          "velocity": 75
        },
        {
          "pitch": 62,
          "onset": 264.0,
          "duration": 0.5,
          "velocity": 75
        },
        {
          "pitch": 60,
          "onset": 264.5,
          "duration": 0.5,
          "velocity": 75
        },
        {
          "pitch": 59,
          "onset": 265.0,
          "duration": 0.5,
          "velocity": 75
        },
        {
          "pitch": 57,
          "onset": 265.5,
          "duration": 0.5,
          "velocity": 75
        },
        {
          "pitch": 55,
          "onset": 266.0,
          "duration": 0.5,
          "velocity": 75
        },
        {
          "pitch": 53,
          "onset": 266.5,
          "duration": 0.5,
          "velocity": 75
        },
        {
          "pitch": 51,
          "onset": 267.0,
          "duration": 0.5,
          "velocity": 75
        },
        {
          "pitch": 50,
          "onset": 267.5,
          "duration": 0.5,
          "velocity": 75
        },
        {
          "pitch": 51,
          "onset": 268.0,
          "duration": 0.5,
          "velocity": 75
        },
        {
          "pitch": 55,
          "onset": 268.5,
          "duration": 0.5,
          "velocity": 75
        },
        {
          "pitch": 53,
          "onset": 269.0,
          "duration": 0.5,
          "velocity": 75
        },
        {
          "pitch": 51,
          "onset": 269.5,
          "duration": 0.5,
          "velocity": 75
        },
        {
          "pitch": 50,
          "onset": 270.0,
          "duration": 0.5,
          "velocity": 75
        },
        {
          "pitch": 53,
          "onset": 270.5,
          "duration": 0.5,
          "velocity": 75
        },
        {
          "pitch": 51,
          "onset": 271.0,
          "duration": 0.5,
          "velocity": 75
        },
        {
          "pitch": 50,
          "onset": 271.5,
          "duration": 0.5,
          "velocity": 75
        },
        {
          "pitch": 48,
          "onset": 272.0,
          "duration": 0.5,
          "velocity": 75
        },
        {
          "pitch": 47,
          "onset": 272.5,
          "duration": 0.5,
          "velocity": 75
        },
        {
          "pitch": 48,
          "onset": 273.0,
          "duration": 0.5,
          "velocity": 75
        },
        {
          "pitch": 50,
          "onset": 273.5,
          "duration": 0.5,
          "velocity": 75
        },
        {
          "pitch": 51,
          "onset": 274.0,
          "duration": 0.5,
          "velocity": 75
        },
        {
          "pitch": 53,
          "onset": 274.5,
          "duration": 0.5,
          "velocity": 75
        },
        {
          "pitch": 55,
          "onset": 275.0,
          "duration": 0.5,
          "velocity": 75
        },
        {
          "pitch": 56,
          "onset": 275.5,
          "duration": 0.5,
          "velocity": 75
        },
        {
          "pitch": 58,
          "onset": 276.0,
          "duration": 1.0,
          "velocity": 75
        },
        {
          "pitch": 56,
          "onset": 277.0,
          "duration": 0.5,
          "velocity": 75
        },
        {
          "pitch": 55,
          "onset": 277.5,
          "duration": 0.5,
          "velocity": 75
        },
        {
          "pitch": 53,
          "onset": 278.0,
          "duration": 1.0,
          "velocity": 75
        },
        {
          "pitch": 51,
          "onset": 279.0,
          "duration": 1.0,
          "velocity": 75
        },
        {
          "pitch": 50,
          "onset": 280.0,
          "duration": 0.5,
          "velocity": 75
        },
        {
          "pitch": 51,
          "onset": 280.5,
          "duration": 0.5,
          "velocity": 75
        },
        {
          "pitch": 53,
          "onset": 281.0,
          "duration": 0.5,
          "velocity": 75
        },
        {
          "pitch": 55,
          "onset": 281.5,
          "duration": 0.5,
          "velocity": 75
        },
        {
          "pitch": 56,
          "onset": 282.0,
          "duration": 0.5,
          "velocity": 75
        },
        {
          "pitch": 58,
          "onset": 282.5,
          "duration": 0.5,
          "velocity": 75
        },
        {
          "pitch": 60,
          "onset": 283.0,
          "duration": 0.5,
          "velocity": 75
        },
        {
          "pitch": 62,
          "onset": 283.5,
          "duration": 0.5,
          "velocity": 75
        },
        {
          "pitch": 63,
          "onset": 284.0,
          "duration": 1.0,
          "velocity": 75
        },
        {
          "pitch": 62,
          "onset": 285.0,
          "duration": 0.5,
          "velocity": 75
        },
        {
          "pitch": 60,
          "onset": 285.5,
          "duration": 0.5,
          "velocity": 75
        },
        {
          "pitch": 58,
          "onset": 286.0,
          "duration": 0.5,
          "velocity": 75
        },
        {
          "pitch": 56,
          "onset": 286.5,
          "duration": 0.5,
          "velocity": 75
        },
        {
          "pitch": 55,
          "onset": 287.0,
          "duration": 0.5,
          "velocity": 75
        },
        {
          "pitch": 53,
          "onset": 287.5,
          "duration": 0.5,
          "velocity": 75
        },
        {
          "pitch": 51,
          "onset": 288.0,
          "duration": 2.5,
          "velocity": 75
        },
        {
          "pitch": 51,
          "onset": 291.0,
          "duration": 0.5,
          "velocity": 75
        },
        {
          "pitch": 53,
          "onset": 291.5,
          "duration": 0.5,
          "velocity": 75
        },
        {
          "pitch": 55,
          "onset": 292.0,
          "duration": 1.0,
          "velocity": 75
        },
        {
          "pitch": 55,
          "onset": 293.0,
          "duration": 0.5,
          "velocity": 75
        },
        {
          "pitch": 53,
          "onset": 293.5,
          "duration": 0.5,
          "velocity": 75
        },
        {
          "pitch": 55,
          "onset": 294.0,
          "duration": 1.0,
          "velocity": 75
        },
        {
          "pitch": 57,
          "onset": 295.0,
          "duration": 1.0,
          "velocity": 75
        },
        {
          "pitch": 58,
          "onset": 296.0,
          "duration": 0.5,
          "velocity": 75
        },
        {
          "pitch": 57,
          "onset": 296.5,
          "duration": 0.5,
          "velocity": 75
        },
        {
          "pitch": 58,
          "onset": 297.0,
          "duration": 0.5,
          "velocity": 75
        },
        {
          "pitch": 60,
          "onset": 297.5,
          "duration": 0.5,
          "velocity": 75
        },
        {
          "pitch": 58,
          "onset": 298.0,
          "duration": 0.5,
          "velocity": 75
        },
        {
          "pitch": 60,
          "onset": 298.5,
          "duration": 0.5,
          "velocity": 75
        },
        {
          "pitch": 62,
          "onset": 299.0,
          "duration": 0.5,
          "velocity": 75
        },
        {
          "pitch": 58,
          "onset": 299.5,
          "duration": 0.5,
          "velocity": 75
        },
        {
          "pitch": 55,
          "onset": 300.0,
          "duration": 0.5,
          "velocity": 75
        },
        {
          "pitch": 58,
          "onset": 300.5,
          "duration": 0.5,
          "velocity": 75
        },
        {
          "pitch": 57,
          "onset": 301.0,
          "duration": 0.5,
          "velocity": 75
        },
        {
          "pitch": 58,
          "onset": 301.5,
          "duration": 0.5,
          "velocity": 75
        },
        {
          "pitch": 60,
          "onset": 302.0,
          "duration": 0.5,
          "velocity": 75
        },
        {
          "pitch": 58,
          "onset": 302.5,
          "duration": 0.5,
          "velocity": 75
        },
        {
          "pitch": 57,
          "onset": 303.0,
          "duration": 0.5,
          "velocity": 75
        },
        {
          "pitch": 55,
          "onset": 303.5,
          "duration": 0.5,
          "velocity": 75
        },
        {
          "pitch": 54,
          "onset": 304.0,
          "duration": 1.0,
          "velocity": 75
        },
        {
          "pitch": 52,
          "onset": 305.0,
          "duration": 0.5,
          "velocity": 75
        },
        {
          "pitch": 54,
          "onset": 305.5,
          "duration": 0.5,
          "velocity": 75
        },
        {
          "pitch": 50,
          "onset": 306.0,
          "duration": 1.0,
          "velocity": 75
        },
        {
          "pitch": 62,
          "onset": 307.0,
          "duration": 0.5,
          "velocity": 75
        },
        {
          "pitch": 60,
          "onset": 307.5,
          "duration": 0.5,
          "velocity": 75
        },
        {
          "pitch": 62,
          "onset": 308.0,
          "duration": 1.0,
          "velocity": 75
        },
        {
          "pitch": 51,
          "onset": 309.0,
          "duration": 0.5,
          "velocity": 75
        },
        {
          "pitch": 50,
          "onset": 309.5,
          "duration": 0.5,
          "velocity": 75
        },
        {
          "pitch": 51,
          "onset": 310.0,
          "duration": 1.0,
          "velocity": 75
        },
        {
          "pitch": 55,
          "onset": 311.0,
          "duration": 1.0,
          "velocity": 75
        },
        {
          "pitch": 60,
          "onset": 312.0,
          "duration": 0.5,
          "velocity": 75
        },
        {
          "pitch": 59,
          "onset": 312.5,
          "duration": 0.5,
          "velocity": 75
        },
        {
          "pitch": 60,
          "onset": 313.0,
          "duration": 0.5,
          "velocity": 75
        },
        {
          "pitch": 62,
          "onset": 313.5,
          "duration": 0.5,
          "velocity": 75
        },
        {
          "pitch": 63,
          "onset": 314.0,
          "duration": 1.0,
          "velocity": 75
        },
        {
          "pitch": 62,
          "onset": 315.0,
          "duration": 1.0,
          "velocity": 75
        },
        {
          "pitch": 60,
          "onset": 316.0,
          "duration": 0.5,
          "velocity": 75
        },
        {
          "pitch": 58,
          "onset": 316.5,
          "duration": 0.5,
          "velocity": 75
        },
        {
          "pitch": 57,
          "onset": 317.0,
          "duration": 0.5,
          "velocity": 75
        },
        {
          "pitch": 55,
          "onset": 317.5,
          "duration": 0.5,
          "velocity": 75
        },
        {
          "pitch": 58,
          "onset": 318.0,
          "duration": 0.5,
          "velocity": 75
        },
        {
          "pitch": 57,
          "onset": 318.5,
          "duration": 0.5,
          "velocity": 75
        },
        {
          "pitch": 55,
          "onset": 319.0,
          "duration": 0.5,
          "velocity": 75
        },
        {
          "pitch": 54,
          "onset": 319.5,
          "duration": 0.5,
          "velocity": 75
        },
        {
          "pitch": 55,
          "onset": 320.0,
          "duration": 0.75,
          "velocity": 75
        },
        {
          "pitch": 50,
          "onset": 321.0,
          "duration": 0.75,
          "velocity": 75
        },
        {
          "pitch": 55,
          "onset": 323.0,
          "duration": 0.5,
          "velocity": 75
        },
        {
          "pitch": 56,
          "onset": 323.5,
          "duration": 0.5,
          "velocity": 75
        },
        {
          "pitch": 58,
          "onset": 324.0,
          "duration": 1.0,
          "velocity": 75
        },
        {
          "pitch": 56,
          "onset": 325.0,
          "duration": 0.5,
          "velocity": 75
        },
        {
          "pitch": 55,
          "onset": 325.5,
          "duration": 0.5,
          "velocity": 75
        },
        {
          "pitch": 53,
          "onset": 326.0,
          "duration": 0.5,
          "velocity": 75
        },
        {
          "pitch": 52,
          "onset": 326.5,
          "duration": 0.5,
          "velocity": 75
        },
        {
          "pitch": 53,
          "onset": 327.0,
          "duration": 0.5,
          "velocity": 75
        },
        {
          "pitch": 55,
          "onset": 327.5,
          "duration": 0.5,
          "velocity": 75
        },
        {
          "pitch": 58,
          "onset": 328.0,
          "duration": 0.5,
          "velocity": 75
        },
        {
          "pitch": 56,
          "onset": 328.5,
          "duration": 0.5,
          "velocity": 75
        },
        {
          "pitch": 55,
          "onset": 329.0,
          "duration": 0.5,
          "velocity": 75
        },
        {
          "pitch": 53,
          "onset": 329.5,
          "duration": 0.5,
          "velocity": 75
        },
        {
          "pitch": 62,
          "onset": 330.0,
          "duration": 2.5,
          "velocity": 75
        },
        {
          "pitch": 59,
          "onset": 332.5,
          "duration": 0.5,
          "velocity": 75
        },
        {
          "pitch": 60,
          "onset": 333.0,
          "duration": 0.5,
          "velocity": 75
        },
        {
          "pitch": 62,
          "onset": 333.5,
          "duration": 0.5,
          "velocity": 75
        },
        {
          "pitch": 63,
          "onset": 334.0,
          "duration": 0.5,
          "velocity": 75
        },
        {
          "pitch": 62,
          "onset": 334.5,
          "duration": 0.5,
          "velocity": 75
        },
        {
          "pitch": 60,
          "onset": 335.0,
          "duration": 0.5,
          "velocity": 75
        },
        {
          "pitch": 63,
          "onset": 335.5,
          "duration": 0.5,
          "velocity": 75
        },
        {
          "pitch": 62,
          "onset": 336.0,
          "duration": 0.5,
          "velocity": 75
        },
        {
          "pitch": 60,
          "onset": 336.5,
          "duration": 0.5,
          "velocity": 75
        },
        {
          "pitch": 59,
          "onset": 337.0,
          "duration": 0.5,
          "velocity": 75
        },
        {
          "pitch": 57,
          "onset": 337.5,
          "duration": 0.5,
          "velocity": 75
        },
        {
          "pitch": 55,
          "onset": 338.0,
          "duration": 0.5,
          "velocity": 75
        },
        {
          "pitch": 53,
          "onset": 338.5,
          "duration": 0.5,
          "velocity": 75
        },
        {
          "pitch": 51,
          "onset": 339.0,
          "duration": 0.5,
          "velocity": 75
        },
        {
          "pitch": 50,
          "onset": 339.5,
          "duration": 0.5,
          "velocity": 75
        },
        {
          "pitch": 51,
          "onset": 340.0,
          "duration": 0.5,
          "velocity": 75
        },
        {
          "pitch": 50,
          "onset": 340.5,
          "duration": 0.5,
          "velocity": 75
        },
        {
          "pitch": 53,
          "onset": 341.0,
          "duration": 0.5,
          "velocity": 75
        },
        {
          "pitch": 51,
          "onset": 341.5,
          "duration": 0.5,
          "velocity": 75
        },
        {
          "pitch": 55,
          "onset": 342.0,
          "duration": 0.5,
          "velocity": 75
        },
        {
          "pitch": 53,
          "onset": 342.5,
          "duration": 0.5,
          "velocity": 75
        },
        {
          "pitch": 56,
          "onset": 343.0,
          "duration": 0.5,
          "velocity": 75
        },
        {
          "pitch": 55,
          "onset": 343.5,
          "duration": 0.5,
          "velocity": 75
        },
        {
          "pitch": 43,
          "onset": 344.0,
          "duration": 0.5,
          "velocity": 75
        },
        {
          "pitch": 45,
          "onset": 344.5,
          "duration": 0.5,
          "velocity": 75
        },
        {
          "pitch": 47,
          "onset": 345.0,
          "duration": 0.5,
          "velocity": 75
        },
        {
          "pitch": 48,
          "onset": 345.5,
          "duration": 0.5,
          "velocity": 75
        },
        {
          "pitch": 50,
          "onset": 346.0,
          "duration": 0.5,
          "velocity": 75
        },
        {
          "pitch": 51,
          "onset": 346.5,
          "duration": 0.5,
          "velocity": 75
        },
        {
          "pitch": 53,
          "onset": 347.0,
          "duration": 0.5,
          "velocity": 75
        },
        {
          "pitch": 50,
          "onset": 347.5,
          "duration": 0.5,
          "velocity": 75
        },
        {
          "pitch": 53,
          "onset": 348.0,
          "duration": 0.5,
          "velocity": 75
        },
        {
          "pitch": 51,
          "onset": 348.5,
          "duration": 0.5,
          "velocity": 75
        },
        {
          "pitch": 50,
          "onset": 349.0,
          "duration": 0.5,
          "velocity": 75
        },
        {
          "pitch": 48,
          "onset": 349.5,
          "duration": 0.5,
          "velocity": 75
        },
        {
          "pitch": 51,
          "onset": 350.0,
          "duration": 0.5,
          "velocity": 75
        },
        {
          "pitch": 50,
          "onset": 350.5,
          "duration": 0.5,
          "velocity": 75
        },
        {
          "pitch": 48,
          "onset": 351.0,
          "duration": 0.5,
          "velocity": 75
        },
        {
          "pitch": 47,
          "onset": 351.5,
          "duration": 0.5,
          "velocity": 75
        },
        {
          "pitch": 48,
          "onset": 352.0,
          "duration": 2.5,
          "velocity": 75
        },
        {
          "pitch": 51,
          "onset": 355.0,
          "duration": 0.5,
          "velocity": 75
        },
        {
          "pitch": 53,
          "onset": 355.5,
          "duration": 0.5,
          "velocity": 75
        },
        {
          "pitch": 55,
          "onset": 356.0,
          "duration": 1.0,
          "velocity": 75
        },
        {
          "pitch": 55,
          "onset": 357.0,
          "duration": 0.5,
          "velocity": 75
        },
        {
          "pitch": 53,
          "onset": 357.5,
          "duration": 0.5,
          "velocity": 75
        },
        {
          "pitch": 55,
          "onset": 358.0,
          "duration": 1.0,
          "velocity": 75
        },
        {
          "pitch": 57,
          "onset": 359.0,
          "duration": 1.0,
          "velocity": 75
        },
        {
          "pitch": 58,
          "onset": 360.0,
          "duration": 0.5,
          "velocity": 75
        },
        {
          "pitch": 57,
          "onset": 360.5,
          "duration": 0.5,
          "velocity": 75
        },
        {
          "pitch": 58,
          "onset": 361.0,
          "duration": 0.5,
          "velocity": 75
        },
        {
          "pitch": 60,
          "onset": 361.5,
          "duration": 0.5,
          "velocity": 75
        },
        {
          "pitch": 58,
          "onset": 362.0,
          "duration": 0.5,
          "velocity": 75
        },
        {
          "pitch": 60,
          "onset": 362.5,
          "duration": 0.5,
          "velocity": 75
        },
        {
          "pitch": 62,
          "onset": 363.0,
          "duration": 0.5,
          "velocity": 75
        },
        {
          "pitch": 58,
          "onset": 363.5,
          "duration": 0.5,
          "velocity": 75
        },
        {
          "pitch": 55,
          "onset": 364.0,
          "duration": 0.5,
          "velocity": 75
        },
        {
          "pitch": 58,
          "onset": 364.5,
          "duration": 0.5,
          "velocity": 75
        },
        {
          "pitch": 57,
          "onset": 365.0,
          "duration": 0.5,
          "velocity": 75
        },
        {
          "pitch": 58,
          "onset": 365.5,
          "duration": 0.5,
          "velocity": 75
        },
        {
          "pitch": 60,
          "onset": 366.0,
          "duration": 0.5,
          "velocity": 75
        },
        {
          "pitch": 58,
          "onset": 366.5,
          "duration": 0.5,
          "velocity": 75
        },
        {
          "pitch": 57,
          "onset": 367.0,
          "duration": 0.5,
          "velocity": 75
        },
        {
          "pitch": 55,
          "onset": 367.5,
          "duration": 0.5,
          "velocity": 75
        },
        {
          "pitch": 54,
          "onset": 368.0,
          "duration": 1.0,
          "velocity": 75
        },
        {
          "pitch": 52,
          "onset": 369.0,
          "duration": 0.5,
          "velocity": 81
        },
        {
          "pitch": 54,
          "onset": 369.5,
          "duration": 0.5,
          "velocity": 84
        },
        {
          "pitch": 50,
          "onset": 370.0,
          "duration": 1.0,
          "velocity": 87
        },
        {
          "pitch": 62,
          "onset": 371.0,
          "duration": 0.5,
          "velocity": 94
        },
        {
          "pitch": 60,
          "onset": 371.5,
          "duration": 0.5,
          "velocity": 97
        },
        {
          "pitch": 62,
          "onset": 372.0,
          "duration": 1.0,
          "velocity": 100
        },
        {
          "pitch": 51,
          "onset": 373.0,
          "duration": 0.5,
          "velocity": 80
        },
        {
          "pitch": 50,
          "onset": 373.5,
          "duration": 0.5,
          "velocity": 83
        },
        {
          "pitch": 51,
          "onset": 374.0,
          "duration": 1.0,
          "velocity": 86
        },
        {
          "pitch": 55,
          "onset": 375.0,
          "duration": 1.0,
          "velocity": 93
        },
        {
          "pitch": 60,
          "onset": 376.0,
          "duration": 0.5,
          "velocity": 100
        },
        {
          "pitch": 59,
          "onset": 376.5,
          "duration": 0.5,
          "velocity": 100
        },
        {
          "pitch": 60,
          "onset": 377.0,
          "duration": 0.5,
          "velocity": 100
        },
        {
          "pitch": 62,
          "onset": 377.5,
          "duration": 0.5,
          "velocity": 100
        },
        {
          "pitch": 63,
          "onset": 378.0,
          "duration": 1.0,
          "velocity": 100
        },
        {
          "pitch": 62,
          "onset": 379.0,
          "duration": 1.0,
          "velocity": 100
        },
        {
          "pitch": 60,
          "onset": 380.0,
          "duration": 0.5,
          "velocity": 100
        },
        {
          "pitch": 58,
          "onset": 380.5,
          "duration": 0.5,
          "velocity": 100
        },
        {
          "pitch": 57,
          "onset": 381.0,
          "duration": 0.5,
          "velocity": 100
        },
        {
          "pitch": 55,
          "onset": 381.5,
          "duration": 0.5,
          "velocity": 100
        },
        {
          "pitch": 58,
          "onset": 382.0,
          "duration": 0.5,
          "velocity": 100
        },
        {
          "pitch": 57,
          "onset": 382.5,
          "duration": 0.5,
          "velocity": 100
        },
        {
          "pitch": 55,
          "onset": 383.0,
          "duration": 0.5,
          "velocity": 100
        },
        {
          "pitch": 54,
          "onset": 383.5,
          "duration": 0.5,
          "velocity": 100
        },
        {
          "pitch": 55,
          "onset": 384.0,
          "duration": 0.75,
          "velocity": 100
        },
        {
          "pitch": 50,
          "onset": 385.0,
          "duration": 0.75,
          "velocity": 90
        },
        {
          "pitch": 55,
          "onset": 387.0,
          "duration": 0.5,
          "velocity": 80
        },
        {
          "pitch": 56,
          "onset": 387.5,
          "duration": 0.5,
          "velocity": 75
        },
        {
          "pitch": 58,
          "onset": 388.0,
          "duration": 1.0,
          "velocity": 75
        },
        {
          "pitch": 56,
          "onset": 389.0,
          "duration": 0.5,
          "velocity": 75
        },
        {
          "pitch": 55,
          "onset": 389.5,
          "duration": 0.5,
          "velocity": 75
        },
        {
          "pitch": 53,
          "onset": 390.0,
          "duration": 0.5,
          "velocity": 75
        },
        {
          "pitch": 52,
          "onset": 390.5,
          "duration": 0.5,
          "velocity": 75
        },
        {
          "pitch": 53,
          "onset": 391.0,
          "duration": 0.5,
          "velocity": 75
        },
        {
          "pitch": 55,
          "onset": 391.5,
          "duration": 0.5,
          "velocity": 75
        },
        {
          "pitch": 58,
          "onset": 392.0,
          "duration": 0.5,
          "velocity": 75
        },
        {
          "pitch": 56,
          "onset": 392.5,
          "duration": 0.5,
          "velocity": 75
        },
        {
          "pitch": 55,
          "onset": 393.0,
          "duration": 0.5,
          "velocity": 75
        },
        {
          "pitch": 53,
          "onset": 393.5,
          "duration": 0.5,
          "velocity": 75
        },
        {
          "pitch": 62,
          "onset": 394.0,
          "duration": 2.5,
          "velocity": 75
        },
        {
          "pitch": 59,
          "onset": 396.5,
          "duration": 0.5,
          "velocity": 75
        },
        {
          "pitch": 60,
          "onset": 397.0,
          "duration": 0.5,
          "velocity": 75
        },
        {
          "pitch": 62,
          "onset": 397.5,
          "duration": 0.5,
          "velocity": 75
        },
        {
          "pitch": 63,
          "onset": 398.0,
          "duration": 0.5,
          "velocity": 75
        },
        {
          "pitch": 62,
          "onset": 398.5,
          "duration": 0.5,
          "velocity": 75
        },
        {
          "pitch": 60,
          "onset": 399.0,
          "duration": 0.5,
          "velocity": 75
        },
        {
          "pitch": 63,
          "onset": 399.5,
          "duration": 0.5,
          "velocity": 75
        },
        {
          "pitch": 62,
          "onset": 400.0,
          "duration": 0.5,
          "velocity": 75
        },
        {
          "pitch": 60,
          "onset": 400.5,
          "duration": 0.5,
          "velocity": 75
        },
        {
          "pitch": 59,
          "onset": 401.0,
          "duration": 0.5,
          "velocity": 75
        },
        {
          "pitch": 57,
          "onset": 401.5,
          "duration": 0.5,
          "velocity": 75
        },
        {
          "pitch": 55,
          "onset": 402.0,
          "duration": 0.5,
          "velocity": 75
        },
        {
          "pitch": 53,
          "onset": 402.5,
          "duration": 0.5,
          "velocity": 75
        },
        {
          "pitch": 51,
          "onset": 403.0,
          "duration": 0.5,
          "velocity": 75
        },
        {
          "pitch": 50,
          "onset": 403.5,
          "duration": 0.5,
          "velocity": 75
        },
        {
          "pitch": 51,
          "onset": 404.0,
          "duration": 0.5,
          "velocity": 75
        },
        {
          "pitch": 50,
          "onset": 404.5,
          "duration": 0.5,
          "velocity": 75
        },
        {
          "pitch": 53,
          "onset": 405.0,
          "duration": 0.5,
          "velocity": 75
        },
        {
          "pitch": 51,
          "onset": 405.5,
          "duration": 0.5,
          "velocity": 75
        },
        {
          "pitch": 55,
          "onset": 406.0,
          "duration": 0.5,
          "velocity": 75
        },
        {
          "pitch": 53,
          "onset": 406.5,
          "duration": 0.5,
          "velocity": 75
        },
        {
          "pitch": 56,
          "onset": 407.0,
          "duration": 0.5,
          "velocity": 75
        },
        {
          "pitch": 55,
          "onset": 407.5,
          "duration": 0.5,
          "velocity": 75
        },
        {
          "pitch": 43,
          "onset": 408.0,
          "duration": 0.5,
          "velocity": 75
        },
        {
          "pitch": 45,
          "onset": 408.5,
          "duration": 0.5,
          "velocity": 75
        },
        {
          "pitch": 47,
          "onset": 409.0,
          "duration": 0.5,
          "velocity": 75
        },
        {
          "pitch": 48,
          "onset": 409.5,
          "duration": 0.5,
          "velocity": 75
        },
        {
          "pitch": 50,
          "onset": 410.0,
          "duration": 0.5,
          "velocity": 75
        },
        {
          "pitch": 51,
          "onset": 410.5,
          "duration": 0.5,
          "velocity": 75
        },
        {
          "pitch": 53,
          "onset": 411.0,
          "duration": 0.5,
          "velocity": 75
        },
        {
          "pitch": 50,
          "onset": 411.5,
          "duration": 0.5,
          "velocity": 75
        },
        {
          "pitch": 53,
          "onset": 412.0,
          "duration": 0.5,
          "velocity": 75
        },
        {
          "pitch": 51,
          "onset": 412.5,
          "duration": 0.5,
          "velocity": 75
        },
        {
          "pitch": 50,
          "onset": 413.0,
          "duration": 0.5,
          "velocity": 75
        },
        {
          "pitch": 48,
          "onset": 413.5,
          "duration": 0.5,
          "velocity": 75
        },
        {
          "pitch": 51,
          "onset": 414.0,
          "duration": 0.5,
          "velocity": 75
        },
        {
          "pitch": 50,
          "onset": 414.5,
          "duration": 0.5,
          "velocity": 75
        },
        {
          "pitch": 48,
          "onset": 415.0,
          "duration": 0.5,
          "velocity": 75
        },
        {
          "pitch": 47,
          "onset": 415.5,
          "duration": 0.5,
          "velocity": 75
        },
        {
          "pitch": 48,
          "onset": 416.0,
          "duration": 2.5,
          "velocity": 75
        },
        {
          "pitch": 52,
          "onset": 419.0,
          "duration": 0.5,
          "velocity": 100
        },
        {
          "pitch": 53,
          "onset": 419.5,
          "duration": 0.5,
          "velocity": 100
        },
        {
          "pitch": 55,
          "onset": 420.0,
          "duration": 1.0,
          "velocity": 100
        },
        {
          "pitch": 48,
          "onset": 421.0,
          "duration": 0.5,
          "velocity": 100
        },
        {
          "pitch": 47,
          "onset": 421.5,
          "duration": 0.5,
          "velocity": 100
        },
        {
          "pitch": 48,
          "onset": 422.0,
          "duration": 0.75,
          "velocity": 100
        },
        {
          "pitch": 60,
          "onset": 423.0,
          "duration": 0.75,
          "velocity": 100
        },
        {
          "pitch": 50,
          "onset": 424.0,
          "duration": 1.0,
          "velocity": 100
        },
        {
          "pitch": 59,
          "onset": 424.25,
          "duration": 0.75,
          "velocity": 100
        },
        {
          "pitch": 57,
          "onset": 425.0,
          "duration": 0.5,
          "velocity": 100
        },
        {
          "pitch": 59,
          "onset": 425.5,
          "duration": 0.5,
          "velocity": 100
        },
        {
          "pitch": 55,
          "onset": 426.0,
          "duration": 0.75,
          "velocity": 100
        },
        {
          "pitch": 50,
          "onset": 427.0,
          "duration": 0.5,
          "velocity": 100
        },
        {
          "pitch": 52,
          "onset": 427.5,
          "duration": 0.5,
          "velocity": 100
        },
        {
          "pitch": 53,
          "onset": 428.0,
          "duration": 1.0,
          "velocity": 100
        },
        {
          "pitch": 47,
          "onset": 429.0,
          "duration": 0.5,
          "velocity": 100
        },
        {
          "pitch": 45,
          "onset": 429.5,
          "duration": 0.5,
          "velocity": 100
        },
        {
          "pitch": 47,
          "onset": 430.0,
          "duration": 0.75,
          "velocity": 100
        },
        {
          "pitch": 55,
          "onset": 431.0,
          "duration": 0.75,
          "velocity": 100
        },
        {
          "pitch": 43,
          "onset": 432.0,
          "duration": 1.0,
          "velocity": 100
        },
        {
          "pitch": 53,
          "onset": 432.25,
          "duration": 0.25,
          "velocity": 100
        },
        {
          "pitch": 52,
          "onset": 432.5,
          "duration": 0.5,
          "velocity": 100
        },
        {
          "pitch": 50,
          "onset": 433.0,
          "duration": 0.5,
          "velocity": 100
        },
        {
          "pitch": 52,
          "onset": 433.5,
          "duration": 0.5,
          "velocity": 100
        },
        {
          "pitch": 48,
          "onset": 434.0,
          "duration": 0.75,
          "velocity": 100
        },
        {
          "pitch": 60,
          "onset": 435.0,
          "duration": 0.5,
          "velocity": 100
        },
        {
          "pitch": 59,
          "onset": 435.5,
          "duration": 0.5,
          "velocity": 100
        },
        {
          "pitch": 57,
          "onset": 436.0,
          "duration": 0.5,
          "velocity": 100
        },
        {
          "pitch": 59,
          "onset": 436.5,
          "duration": 0.5,
          "velocity": 100
        },
        {
          "pitch": 60,
          "onset": 437.0,
          "duration": 0.375,
          "velocity": 100
        },
        {
          "pitch": 55,
          "onset": 437.5,
          "duration": 0.375,
          "velocity": 100
        },
        {
          "pitch": 54,
          "onset": 438.0,
          "duration": 0.5,
          "velocity": 100
        },
        {
          "pitch": 59,
          "onset": 438.5,
          "duration": 0.5,
          "velocity": 100
        },
        {
          "pitch": 60,
          "onset": 439.0,
          "duration": 0.375,
          "velocity": 100
        },
        {
          "pitch": 52,
          "onset": 439.5,
          "duration": 0.375,
          "velocity": 100
        },
        {
          "pitch": 50,
          "onset": 440.0,
          "duration": 0.5,
          "velocity": 100
        },
        {
          "pitch": 59,
          "onset": 440.5,
          "duration": 0.5,
          "velocity": 100
        },
        {
          "pitch": 60,
          "onset": 441.0,
          "duration": 0.375,
          "velocity": 100
        },
        {
          "pitch": 48,
          "onset": 441.5,
          "duration": 0.375,
          "velocity": 100
        },
        {
          "pitch": 47,
          "onset": 442.0,
          "duration": 0.5,
          "velocity": 100
        },
        {
          "pitch": 50,
          "onset": 442.5,
          "duration": 0.5,
          "velocity": 100
        },
        {
          "pitch": 54,
          "onset": 443.0,
          "duration": 0.5,
          "velocity": 100
        },
        {
          "pitch": 57,
          "onset": 443.5,
          "duration": 0.5,
          "velocity": 100
        },
        {
          "pitch": 62,
          "onset": 444.0,
          "duration": 0.75,
          "velocity": 100
        },
        {
          "pitch": 59,
          "onset": 445.0,
          "duration": 0.5,
          "velocity": 100
        },
        {
          "pitch": 55,
          "onset": 445.5,
          "duration": 0.5,
          "velocity": 100
        },
        {
          "pitch": 50,
          "onset": 446.0,
          "duration": 0.75,
          "velocity": 100
        },
        {
          "pitch": 54,
          "onset": 447.0,
          "duration": 0.75,
          "velocity": 100
        },
        {
          "pitch": 55,
          "onset": 448.0,
          "duration": 0.75,
          "velocity": 100
        },
        {
          "pitch": 50,
          "onset": 449.0,
          "duration": 0.75,
          "velocity": 100
        },
        {
          "pitch": 43,
          "onset": 450.0,
          "duration": 0.75,
          "velocity": 100
        },
        {
          "pitch": 59,
          "onset": 451.0,
          "duration": 0.5,
          "velocity": 100
        },
        {
          "pitch": 60,
          "onset": 451.5,
          "duration": 0.5,
          "velocity": 100
        },
        {
          "pitch": 62,
          "onset": 452.0,
          "duration": 1.0,
          "velocity": 100
        },
        {
          "pitch": 59,
          "onset": 453.0,
          "duration": 0.5,
          "velocity": 100
        },
        {
          "pitch": 55,
          "onset": 453.5,
          "duration": 0.5,
          "velocity": 100
        },
        {
          "pitch": 53,
          "onset": 454.0,
          "duration": 0.75,
          "velocity": 100
        },
        {
          "pitch": 59,
          "onset": 455.0,
          "duration": 0.75,
          "velocity": 100
        },
        {
          "pitch": 52,
          "onset": 456.0,
          "duration": 0.5,
          "velocity": 100
        },
        {
          "pitch": 55,
          "onset": 456.5,
          "duration": 0.5,
          "velocity": 100
        },
        {
          "pitch": 60,
          "onset": 457.0,
          "duration": 0.5,
          "velocity": 100
        },
        {
          "pitch": 62,
          "onset": 457.5,
          "duration": 0.5,
          "velocity": 100
        },
        {
          "pitch": 64,
          "onset": 458.0,
          "duration": 1.0,
          "velocity": 100
        },
        {
          "pitch": 60,
          "onset": 459.0,
          "duration": 0.5,
          "velocity": 100
        },
        {
          "pitch": 56,
          "onset": 459.5,
          "duration": 0.5,
          "velocity": 100
        },
        {
          "pitch": 57,
          "onset": 460.0,
          "duration": 1.0,
          "velocity": 100
        },
        {
          "pitch": 53,
          "onset": 461.0,
          "duration": 0.5,
          "velocity": 100
        },
        {
          "pitch": 57,
          "onset": 461.5,
          "duration": 0.5,
          "velocity": 100
        },
        {
          "pitch": 50,
          "onset": 462.0,
          "duration": 0.5,
          "velocity": 100
        },
        {
          "pitch": 60,
          "onset": 462.5,
          "duration": 0.5,
          "velocity": 100
        },
        {
          "pitch": 59,
          "onset": 463.0,
          "duration": 0.5,
          "velocity": 100
        },
        {
          "pitch": 57,
          "onset": 463.5,
          "duration": 0.5,
          "velocity": 100
        },
        {
          "pitch": 52,
          "onset": 464.0,
          "duration": 0.5,
          "velocity": 100
        },
        {
          "pitch": 57,
          "onset": 464.5,
          "duration": 0.5,
          "velocity": 100
        },
        {
          "pitch": 56,
          "onset": 465.0,
          "duration": 0.5,
          "velocity": 100
        },
        {
          "pitch": 54,
          "onset": 465.5,
          "duration": 0.5,
          "velocity": 100
        },
        {
          "pitch": 52,
          "onset": 466.0,
          "duration": 1.0,
          "velocity": 100
        },
        {
          "pitch": 59,
          "onset": 467.0,
          "duration": 0.5,
          "velocity": 100
        },
        {
          "pitch": 52,
          "onset": 467.5,
          "duration": 0.5,
          "velocity": 100
        },
        {
          "pitch": 60,
          "onset": 468.0,
          "duration": 0.5,
          "velocity": 100
        },
        {
          "pitch": 57,
          "onset": 468.5,
          "duration": 0.5,
          "velocity": 100
        },
        {
          "pitch": 56,
          "onset": 469.0,
          "duration": 0.5,
          "velocity": 100
        },
        {
          "pitch": 57,
          "onset": 469.5,
          "duration": 0.5,
          "velocity": 100
        },
        {
          "pitch": 59,
          "onset": 470.0,
          "duration": 0.75,
          "velocity": 100
        },
        {
          "pitch": 60,
          "onset": 471.0,
          "duration": 0.75,
          "velocity": 100
        },
        {
          "pitch": 62,
          "onset": 472.0,
          "duration": 0.5,
          "velocity": 100
        },
        {
          "pitch": 59,
          "onset": 472.5,
          "duration": 0.5,
          "velocity": 100
        },
        {
          "pitch": 57,
          "onset": 473.0,
          "duration": 0.5,
          "velocity": 100
        },
        {
          "pitch": 59,
          "onset": 473.5,
          "duration": 0.5,
          "velocity": 100
        },
        {
          "pitch": 60,
          "onset": 474.0,
          "duration": 0.75,
          "velocity": 100
        },
        {
          "pitch": 62,
          "onset": 475.0,
          "duration": 0.75,
          "velocity": 100
        },
        {
          "pitch": 64,
          "onset": 476.5,
          "duration": 0.5,
          "velocity": 100
        },
        {
          "pitch": 59,
          "onset": 477.0,
          "duration": 0.5,
          "velocity": 100
        },
        {
          "pitch": 60,
          "onset": 477.5,
          "duration": 0.5,
          "velocity": 100
        },
        {
          "pitch": 52,
          "onset": 478.0,
          "duration": 0.75,
          "velocity": 100
        },
        {
          "pitch": 57,
          "onset": 479.0,
          "duration": 0.5,
          "velocity": 100
        },
        {
          "pitch": 56,
          "onset": 479.5,
          "duration": 0.5,
          "velocity": 100
        },
        {
          "pitch": 57,
          "onset": 480.0,
          "duration": 0.75,
          "velocity": 100
        },
        {
          "pitch": 52,
          "onset": 481.0,
          "duration": 0.75,
          "velocity": 100
        },
        {
          "pitch": 45,
          "onset": 482.0,
          "duration": 0.75,
          "velocity": 100
        },
        {
          "pitch": 57,
          "onset": 483.0,
          "duration": 0.5,
          "velocity": 100
        },
        {
          "pitch": 59,
          "onset": 483.5,
          "duration": 0.5,
          "velocity": 100
        },
        {
          "pitch": 60,
          "onset": 484.0,
          "duration": 1.0,
          "velocity": 100
        },
        {
          "pitch": 54,
          "onset": 485.0,
          "duration": 0.5,
          "velocity": 100
        },
        {
          "pitch": 52,
          "onset": 485.5,
          "duration": 0.5,
          "velocity": 100
        },
        {
          "pitch": 54,
          "onset": 486.0,
          "duration": 0.75,
          "velocity": 100
        },
        {
          "pitch": 50,
          "onset": 487.0,
          "duration": 0.75,
          "velocity": 100
        },
        {
          "pitch": 48,
          "onset": 488.5,
          "duration": 0.5,
          "velocity": 100
        },
        {
          "pitch": 60,
          "onset": 489.0,
          "duration": 0.375,
          "velocity": 100
        },
        {
          "pitch": 57,
          "onset": 489.5,
          "duration": 0.375,
          "velocity": 100
        },
        {
          "pitch": 59,
          "onset": 490.0,
          "duration": 0.75,
          "velocity": 100
        },
        {
          "pitch": 55,
          "onset": 491.0,
          "duration": 0.5,
          "velocity": 100
        },
        {
          "pitch": 53,
          "onset": 491.5,
          "duration": 0.5,
          "velocity": 100
        },
        {
          "pitch": 52,
          "onset": 492.0,
          "duration": 0.5,
          "velocity": 100
        },
        {
          "pitch": 55,
          "onset": 492.5,
          "duration": 0.5,
          "velocity": 100
        },
        {
          "pitch": 60,
          "onset": 493.0,
          "duration": 0.5,
          "velocity": 100
        },
        {
          "pitch": 65,
          "onset": 494.5,
          "duration": 0.5,
          "velocity": 100
        },
        {
          "pitch": 64,
          "onset": 495.0,
          "duration": 0.5,
          "velocity": 100
        },
        {
          "pitch": 60,
          "onset": 495.5,
          "duration": 0.5,
          "velocity": 100
        },
        {
          "pitch": 62,
          "onset": 496.0,
          "duration": 0.5,
          "velocity": 100
        },
        {
          "pitch": 60,
          "onset": 496.5,
          "duration": 0.5,
          "velocity": 100
        },
        {
          "pitch": 59,
          "onset": 497.0,
          "duration": 0.5,
          "velocity": 100
        },
        {
          "pitch": 57,
          "onset": 497.5,
          "duration": 0.5,
          "velocity": 100
        },
        {
          "pitch": 55,
          "onset": 498.0,
          "duration": 0.75,
          "velocity": 100
        },
        {
          "pitch": 59,
          "onset": 499.0,
          "duration": 0.5,
          "velocity": 100
        },
        {
          "pitch": 60,
          "onset": 499.5,
          "duration": 0.5,
          "velocity": 100
        },
        {
          "pitch": 62,
          "onset": 500.0,
          "duration": 0.5,
          "velocity": 100
        },
        {
          "pitch": 59,
          "onset": 500.5,
          "duration": 0.5,
          "velocity": 100
        },
        {
          "pitch": 55,
          "onset": 501.0,
          "duration": 0.5,
          "velocity": 100
        },
        {
          "pitch": 57,
          "onset": 501.5,
          "duration": 0.5,
          "velocity": 100
        },
        {
          "pitch": 59,
          "onset": 502.0,
          "duration": 0.5,
          "velocity": 100
        },
        {
          "pitch": 55,
          "onset": 502.5,
          "duration": 0.5,
          "velocity": 100
        },
        {
          "pitch": 50,
          "onset": 503.0,
          "duration": 0.5,
          "velocity": 100
        },
        {
          "pitch": 52,
          "onset": 503.5,
          "duration": 0.5,
          "velocity": 100
        },
        {
          "pitch": 53,
          "onset": 504.0,
          "duration": 0.5,
          "velocity": 100
        },
        {
          "pitch": 50,
          "onset": 504.5,
          "duration": 0.5,
          "velocity": 100
        },
        {
          "pitch": 47,
          "onset": 505.0,
          "duration": 0.5,
          "velocity": 100
        },
        {
          "pitch": 48,
          "onset": 505.5,
          "duration": 0.5,
          "velocity": 100
        },
        {
          "pitch": 50,
          "onset": 506.0,
          "duration": 0.5,
          "velocity": 100
        },
        {
          "pitch": 47,
          "onset": 506.5,
          "duration": 0.75,
          "velocity": 100
        },
        {
          "pitch": 53,
          "onset": 507.5,
          "duration": 0.5,
          "velocity": 100
        },
        {
          "pitch": 52,
          "onset": 508.0,
          "duration": 0.5,
          "velocity": 100
        },
        {
          "pitch": 48,
          "onset": 508.5,
          "duration": 0.75,
          "velocity": 100
        },
        {
          "pitch": 55,
          "onset": 509.5,
          "duration": 0.5,
          "velocity": 100
        },
        {
          "pitch": 52,
          "onset": 510.0,
          "duration": 0.5,
          "velocity": 100
        },
        {
          "pitch": 48,
          "onset": 510.5,
          "duration": 0.75,
          "velocity": 100
        },
        {
          "pitch": 60,
          "onset": 511.5,
          "duration": 0.5,
          "velocity": 100
        },
        {
          "pitch": 55,
          "onset": 512.0,
          "duration": 0.5,
          "velocity": 100
        },
        {
          "pitch": 52,
          "onset": 512.5,
          "duration": 0.5,
          "velocity": 100
        },
        {
          "pitch": 53,
          "onset": 513.0,
          "duration": 0.5,
          "velocity": 100
        },
        {
          "pitch": 50,
          "onset": 513.5,
          "duration": 0.5,
          "velocity": 100
        },
        {
          "pitch": 52,
          "onset": 514.0,
          "duration": 0.5,
          "velocity": 100
        },
        {
          "pitch": 48,
          "onset": 514.5,
          "duration": 0.75,
          "velocity": 100
        },
        {
          "pitch": 52,
          "onset": 515.5,
          "duration": 0.5,
          "velocity": 100
        },
        {
          "pitch": 50,
          "onset": 516.0,
          "duration": 0.5,
          "velocity": 100
        },
        {
          "pitch": 52,
          "onset": 516.5,
          "duration": 0.5,
          "velocity": 100
        },
        {
          "pitch": 53,
          "onset": 517.0,
          "duration": 0.5,
          "velocity": 100
        },
        {
          "pitch": 48,
          "onset": 517.5,
          "duration": 0.5,
          "velocity": 100
        },
        {
          "pitch": 47,
          "onset": 518.0,
          "duration": 0.5,
          "velocity": 100
        },
        {
          "pitch": 52,
          "onset": 518.5,
          "duration": 0.5,
          "velocity": 100
        },
        {
          "pitch": 53,
          "onset": 519.0,
          "duration": 0.5,
          "velocity": 100
        },
        {
          "pitch": 52,
          "onset": 520.5,
          "duration": 0.5,
          "velocity": 100
        },
        {
          "pitch": 53,
          "onset": 521.0,
          "duration": 0.75,
          "velocity": 100
        },
        {
          "pitch": 43,
          "onset": 522.5,
          "duration": 0.5,
          "velocity": 100
        },
        {
          "pitch": 47,
          "onset": 523.0,
          "duration": 0.5,
          "velocity": 100
        },
        {
          "pitch": 50,
          "onset": 523.5,
          "duration": 0.5,
          "velocity": 100
        },
        {
          "pitch": 55,
          "onset": 524.0,
          "duration": 0.75,
          "velocity": 100
        },
        {
          "pitch": 52,
          "onset": 525.0,
          "duration": 0.5,
          "velocity": 100
        },
        {
          "pitch": 48,
          "onset": 525.5,
          "duration": 0.5,
          "velocity": 100
        },
        {
          "pitch": 47,
          "onset": 527.0,
          "duration": 0.75,
          "velocity": 100
        },
        {
          "pitch": 48,
          "onset": 528.0,
          "duration": 2.0,
          "velocity": 100
        },
        {
          "pitch": 59,
          "onset": 531.0,
          "duration": 0.5,
          "velocity": 100
        },
        {
          "pitch": 60,
          "onset": 531.5,
          "duration": 0.5,
          "velocity": 100
        },
        {
          "pitch": 62,
          "onset": 532.0,
          "duration": 1.0,
          "velocity": 100
        },
        {
          "pitch": 59,
          "onset": 533.0,
          "duration": 0.5,
          "velocity": 100
        },
        {
          "pitch": 55,
          "onset": 533.5,
          "duration": 0.5,
          "velocity": 100
        },
        {
          "pitch": 53,
          "onset": 534.0,
          "duration": 0.75,
          "velocity": 100
        },
        {
          "pitch": 59,
          "onset": 535.0,
          "duration": 0.75,
          "velocity": 100
        },
        {
          "pitch": 52,
          "onset": 536.0,
          "duration": 0.5,
          "velocity": 100
        },
        {
          "pitch": 55,
          "onset": 536.5,
          "duration": 0.5,
          "velocity": 100
        },
        {
          "pitch": 60,
          "onset": 537.0,
          "duration": 0.5,
          "velocity": 100
        },
        {
          "pitch": 62,
          "onset": 537.5,
          "duration": 0.5,
          "velocity": 100
        },
        {
          "pitch": 64,
          "onset": 538.0,
          "duration": 1.0,
          "velocity": 100
        },
        {
          "pitch": 60,
          "onset": 539.0,
          "duration": 0.5,
          "velocity": 100
        },
        {
          "pitch": 56,
          "onset": 539.5,
          "duration": 0.5,
          "velocity": 100
        },
        {
          "pitch": 57,
          "onset": 540.0,
          "duration": 1.0,
          "velocity": 100
        },
        {
          "pitch": 53,
          "onset": 541.0,
          "duration": 0.5,
          "velocity": 100
        },
        {
          "pitch": 57,
          "onset": 541.5,
          "duration": 0.5,
          "velocity": 100
        },
        {
          "pitch": 50,
          "onset": 542.0,
          "duration": 0.5,
          "velocity": 100
        },
        {
          "pitch": 60,
          "onset": 542.5,
          "duration": 0.5,
          "velocity": 100
        },
        {
          "pitch": 59,
          "onset": 543.0,
          "duration": 0.5,
          "velocity": 100
        },
        {
          "pitch": 57,
          "onset": 543.5,
          "duration": 0.5,
          "velocity": 100
        },
        {
          "pitch": 52,
          "onset": 544.0,
          "duration": 0.5,
          "velocity": 100
        },
        {
          "pitch": 57,
          "onset": 544.5,
          "duration": 0.5,
          "velocity": 100
        },
        {
          "pitch": 56,
          "onset": 545.0,
          "duration": 0.5,
          "velocity": 100
        },
        {
          "pitch": 54,
          "onset": 545.5,
          "duration": 0.5,
          "velocity": 100
        },
        {
          "pitch": 52,
          "onset": 546.0,
          "duration": 1.0,
          "velocity": 100
        },
        {
          "pitch": 59,
          "onset": 547.0,
          "duration": 0.5,
          "velocity": 100
        },
        {
          "pitch": 52,
          "onset": 547.5,
          "duration": 0.5,
          "velocity": 100
        },
        {
          "pitch": 60,
          "onset": 548.0,
          "duration": 0.5,
          "velocity": 100
        },
        {
          "pitch": 57,
          "onset": 548.5,
          "duration": 0.5,
          "velocity": 100
        },
        {
          "pitch": 56,
          "onset": 549.0,
          "duration": 0.5,
          "velocity": 100
        },
        {
          "pitch": 57,
          "onset": 549.5,
          "duration": 0.5,
          "velocity": 100
        },
        {
          "pitch": 59,
          "onset": 550.0,
          "duration": 0.75,
          "velocity": 100
        },
        {
          "pitch": 60,
          "onset": 551.0,
          "duration": 0.75,
          "velocity": 100
        },
        {
          "pitch": 62,
          "onset": 552.0,
          "duration": 0.5,
          "velocity": 100
        },
        {
          "pitch": 59,
          "onset": 552.5,
          "duration": 0.5,
          "velocity": 100
        },
        {
          "pitch": 57,
          "onset": 553.0,
          "duration": 0.5,
          "velocity": 100
        },
        {
          "pitch": 59,
          "onset": 553.5,
          "duration": 0.5,
          "velocity": 100
        },
        {
          "pitch": 60,
          "onset": 554.0,
          "duration": 0.75,
          "velocity": 100
        },
        {
          "pitch": 62,
          "onset": 555.0,
          "duration": 0.75,
          "velocity": 100
        },
        {
          "pitch": 64,
          "onset": 556.5,
          "duration": 0.5,
          "velocity": 100
        },
        {
          "pitch": 59,
          "onset": 557.0,
          "duration": 0.5,
          "velocity": 100
        },
        {
          "pitch": 60,
          "onset": 557.5,
          "duration": 0.5,
          "velocity": 100
        },
        {
          "pitch": 52,
          "onset": 558.0,
          "duration": 0.75,
          "velocity": 100
        },
        {
          "pitch": 57,
          "onset": 559.0,
          "duration": 0.5,
          "velocity": 100
        },
        {
          "pitch": 56,
          "onset": 559.5,
          "duration": 0.5,
          "velocity": 100
        },
        {
          "pitch": 57,
          "onset": 560.0,
          "duration": 0.75,
          "velocity": 100
        },
        {
          "pitch": 52,
          "onset": 561.0,
          "duration": 0.75,
          "velocity": 100
        },
        {
          "pitch": 45,
          "onset": 562.0,
          "duration": 0.75,
          "velocity": 100
        },
        {
          "pitch": 57,
          "onset": 563.0,
          "duration": 0.5,
          "velocity": 100
        },
        {
          "pitch": 59,
          "onset": 563.5,
          "duration": 0.5,
          "velocity": 100
        },
        {
          "pitch": 60,
          "onset": 564.0,
          "duration": 1.0,
          "velocity": 100
        },
        {
          "pitch": 54,
          "onset": 565.0,
          "duration": 0.5,
          "velocity": 100
        },
        {
          "pitch": 52,
          "onset": 565.5,
          "duration": 0.5,
          "velocity": 100
        },
        {
          "pitch": 54,
          "onset": 566.0,
          "duration": 0.75,
          "velocity": 100
        },
        {
          "pitch": 50,
          "onset": 567.0,
          "duration": 0.75,
          "velocity": 100
        },
        {
          "pitch": 48,
          "onset": 568.5,
          "duration": 0.5,
          "velocity": 100
        },
        {
          "pitch": 60,
          "onset": 569.0,
          "duration": 0.375,
          "velocity": 100
        },
        {
          "pitch": 57,
          "onset": 569.5,
          "duration": 0.375,
          "velocity": 100
        },
        {
          "pitch": 59,
          "onset": 570.0,
          "duration": 0.75,
          "velocity": 100
        },
        {
          "pitch": 55,
          "onset": 571.0,
          "duration": 0.5,
          "velocity": 100
        },
        {
          "pitch": 53,
          "onset": 571.5,
          "duration": 0.5,
          "velocity": 100
        },
        {
          "pitch": 52,
          "onset": 572.0,
          "duration": 0.5,
          "velocity": 100
        },
        {
          "pitch": 55,
          "onset": 572.5,
          "duration": 0.5,
          "velocity": 100
        },
        {
          "pitch": 60,
          "onset": 573.0,
          "duration": 0.5,
          "velocity": 100
        },
        {
          "pitch": 65,
          "onset": 574.5,
          "duration": 0.5,
          "velocity": 100
        },
        {
          "pitch": 64,
          "onset": 575.0,
          "duration": 0.5,
          "velocity": 100
        },
        {
          "pitch": 60,
          "onset": 575.5,
          "duration": 0.5,
          "velocity": 100
        },
        {
          "pitch": 62,
          "onset": 576.0,
          "duration": 0.5,
          "velocity": 100
        },
        {
          "pitch": 60,
          "onset": 576.5,
          "duration": 0.5,
          "velocity": 100
        },
        {
          "pitch": 59,
          "onset": 577.0,
          "duration": 0.5,
          "velocity": 100
        },
        {
          "pitch": 57,
          "onset": 577.5,
          "duration": 0.5,
          "velocity": 100
        },
        {
          "pitch": 55,
          "onset": 578.0,
          "duration": 0.75,
          "velocity": 100
        },
        {
          "pitch": 59,
          "onset": 579.0,
          "duration": 0.5,
          "velocity": 100
        },
        {
          "pitch": 60,
          "onset": 579.5,
          "duration": 0.5,
          "velocity": 100
        },
        {
          "pitch": 62,
          "onset": 580.0,
          "duration": 0.5,
          "velocity": 100
        },
        {
          "pitch": 59,
          "onset": 580.5,
          "duration": 0.5,
          "velocity": 100
        },
        {
          "pitch": 55,
          "onset": 581.0,
          "duration": 0.5,
          "velocity": 100
        },
        {
          "pitch": 57,
          "onset": 581.5,
          "duration": 0.5,
          "velocity": 100
        },
        {
          "pitch": 59,
          "onset": 582.0,
          "duration": 0.5,
          "velocity": 100
        },
        {
          "pitch": 55,
          "onset": 582.5,
          "duration": 0.5,
          "velocity": 100
        },
        {
          "pitch": 50,
          "onset": 583.0,
          "duration": 0.5,
          "velocity": 100
        },
        {
          "pitch": 52,
          "onset": 583.5,
          "duration": 0.5,
          "velocity": 100
        },
        {
          "pitch": 53,
          "onset": 584.0,
          "duration": 0.5,
          "velocity": 100
        },
        {
          "pitch": 50,
          "onset": 584.5,
          "duration": 0.5,
          "velocity": 100
        },
        {
          "pitch": 47,
          "onset": 585.0,
          "duration": 0.5,
          "velocity": 100
        },
        {
          "pitch": 48,
          "onset": 585.5,
          "duration": 0.5,
          "velocity": 100
        },
        {
          "pitch": 50,
          "onset": 586.0,
          "duration": 0.5,
          "velocity": 100
        },
        {
          "pitch": 47,
          "onset": 586.5,
          "duration": 0.75,
          "velocity": 100
        },
        {
          "pitch": 53,
          "onset": 587.5,
          "duration": 0.5,
          "velocity": 100
        },
        {
          "pitch": 52,
          "onset": 588.0,
          "duration": 0.5,
          "velocity": 100
        },
        {
          "pitch": 48,
          "onset": 588.5,
          "duration": 0.75,
          "velocity": 100
        },
        {
          "pitch": 55,
          "onset": 589.5,
          "duration": 0.5,
          "velocity": 100
        },
        {
          "pitch": 52,
          "onset": 590.0,
          "duration": 0.5,
          "velocity": 100
        },
        {
          "pitch": 48,
          "onset": 590.5,
          "duration": 0.75,
          "velocity": 100
        },
        {
          "pitch": 60,
          "onset": 591.5,
          "duration": 0.5,
          "velocity": 100
        },
        {
          "pitch": 55,
          "onset": 592.0,
          "duration": 0.5,
          "velocity": 100
        },
        {
          "pitch": 52,
          "onset": 592.5,
          "duration": 0.5,
          "velocity": 100
        },
        {
          "pitch": 53,
          "onset": 593.0,
          "duration": 0.5,
          "velocity": 100
        },
        {
          "pitch": 50,
          "onset": 593.5,
          "duration": 0.5,
          "velocity": 100
        },
        {
          "pitch": 52,
          "onset": 594.0,
          "duration": 0.5,
          "velocity": 100
        },
        {
          "pitch": 48,
          "onset": 594.5,
          "duration": 0.75,
          "velocity": 100
        },
        {
          "pitch": 52,
          "onset": 595.5,
          "duration": 0.5,
          "velocity": 100
        },
        {
          "pitch": 50,
          "onset": 596.0,
          "duration": 0.5,
          "velocity": 100
        },
        {
          "pitch": 52,
          "onset": 596.5,
          "duration": 0.5,
          "velocity": 100
        },
        {
          "pitch": 53,
          "onset": 597.0,
          "duration": 0.5,
          "velocity": 100
        },
        {
          "pitch": 48,
          "onset": 597.5,
          "duration": 0.5,
          "velocity": 100
        },
        {
          "pitch": 47,
          "onset": 598.0,
          "duration": 0.5,
          "velocity": 100
        },
        {
          "pitch": 52,
          "onset": 598.5,
          "duration": 0.5,
          "velocity": 100
        },
        {
          "pitch": 53,
          "onset": 599.0,
          "duration": 0.5,
          "velocity": 100
        },
        {
          "pitch": 52,
          "onset": 600.5,
          "duration": 0.5,
          "velocity": 100
        },
        {
          "pitch": 53,
          "onset": 601.0,
          "duration": 0.75,
          "velocity": 100
        },
        {
          "pitch": 43,
          "onset": 602.5,
          "duration": 0.5,
          "velocity": 100
        },
        {
          "pitch": 47,
          "onset": 603.0,
          "duration": 0.5,
          "velocity": 100
        },
        {
          "pitch": 50,
          "onset": 603.5,
          "duration": 0.5,
          "velocity": 100
        },
        {
          "pitch": 55,
          "onset": 604.0,
          "duration": 0.75,
          "velocity": 100
        },
        {
          "pitch": 52,
          "onset": 605.0,
          "duration": 0.5,
          "velocity": 100
        },
        {
          "pitch": 48,
          "onset": 605.5,
          "duration": 0.5,
          "velocity": 100
        },
        {
          "pitch": 47,
          "onset": 607.0,
          "duration": 0.75,
          "velocity": 100
        },
        {
          "pitch": 48,
          "onset": 608.0,
          "duration": 4.0,
          "velocity": 100
        },
        {
          "pitch": 40,
          "onset": 615.5,
          "duration": 0.25,
          "velocity": 1
        }
      ]
    },
    {
      "role": "solo_1",
      "notes": [
        {
          "pitch": 48,
          "onset": 0.0,
          "duration": 0.25,
          "velocity": 1
        },
        {
          "pitch": 43,
          "onset": 8.0,
          "duration": 0.5,
          "velocity": 100
        },
        {
          "pitch": 36,
          "onset": 16.0,
          "duration": 0.5,
          "velocity": 100
        },
        {
          "pitch": 43,
          "onset": 40.0,
          "duration": 0.5,
          "velocity": 100
        },
        {
          "pitch": 36,
          "onset": 48.0,
          "duration": 0.5,
          "velocity": 100
        },
        {
          "pitch": 52,
          "onset": 86.5,
          "duration": 0.75,
          "velocity": 100
        },
        {
          "pitch": 52,
          "onset": 87.5,
          "duration": 0.5,
          "velocity": 100
        },
        {
          "pitch": 52,
          "onset": 90.5,
          "duration": 0.75,
          "velocity": 100
        },
        {
          "pitch": 50,
          "onset": 91.5,
          "duration": 0.5,
          "velocity": 100
        },
        {
          "pitch": 48,
          "onset": 92.0,
          "duration": 0.75,
          "velocity": 100
        },
        {
          "pitch": 43,
          "onset": 104.0,
          "duration": 0.75,
          "velocity": 100
        },
        {
          "pitch": 52,
          "onset": 109.5,
          "duration": 0.5,
          "velocity": 100
        },
        {
          "pitch": 50,
          "onset": 110.0,
          "duration": 0.75,
          "velocity": 100
        },
        {
          "pitch": 43,
          "onset": 123.0,
          "duration": 0.75,
          "velocity": 100
        },
        {
          "pitch": 43,
          "onset": 125.0,
          "duration": 0.75,
          "velocity": 100
        },
        {
          "pitch": 43,
          "onset": 127.0,
          "duration": 0.75,
          "velocity": 100
        },
        {
          "pitch": 43,
          "onset": 131.0,
          "duration": 0.75,
          "velocity": 100
        },
        {
          "pitch": 45,
          "onset": 135.5,
          "duration": 0.5,
          "velocity": 100
        },
        {
          "pitch": 43,
          "onset": 136.0,
          "duration": 0.75,
          "velocity": 100
        },
        {
          "pitch": 41,
          "onset": 137.5,
          "duration": 0.5,
          "velocity": 100
        },
        {
          "pitch": 40,
          "onset": 138.0,
          "duration": 0.75,
          "velocity": 100
        },
        {
          "pitch": 43,
          "onset": 142.0,
          "duration": 0.75,
          "velocity": 100
        },
        {
          "pitch": 36,
          "onset": 144.0,
          "duration": 2.0,
          "velocity": 100
        },
        {
          "pitch": 52,
          "onset": 166.5,
          "duration": 0.75,
          "velocity": 100
        },
        {
          "pitch": 52,
          "onset": 167.5,
          "duration": 0.5,
          "velocity": 100
        },
        {
          "pitch": 52,
          "onset": 170.5,
          "duration": 0.75,
          "velocity": 100
        },
        {
          "pitch": 50,
          "onset": 171.5,
          "duration": 0.5,
          "velocity": 100
        },
        {
          "pitch": 48,
          "onset": 172.0,
          "duration": 0.75,
          "velocity": 100
        },
        {
          "pitch": 43,
          "onset": 184.0,
          "duration": 0.75,
          "velocity": 100
        },
        {
          "pitch": 52,
          "onset": 189.5,
          "duration": 0.5,
          "velocity": 100
        },
        {
          "pitch": 50,
          "onset": 190.0,
          "duration": 0.75,
          "velocity": 100
        },
        {
          "pitch": 43,
          "onset": 203.0,
          "duration": 0.75,
          "velocity": 100
        },
        {
          "pitch": 43,
          "onset": 205.0,
          "duration": 0.75,
          "velocity": 100
        },
        {
          "pitch": 43,
          "onset": 207.0,
          "duration": 0.75,
          "velocity": 100
        },
        {
          "pitch": 43,
          "onset": 211.0,
          "duration": 0.75,
          "velocity": 100
        },
        {
          "pitch": 45,
          "onset": 215.5,
          "duration": 0.5,
          "velocity": 100
        },
        {
          "pitch": 43,
          "onset": 216.0,
          "duration": 0.75,
          "velocity": 100
        },
        {
          "pitch": 41,
          "onset": 217.5,
          "duration": 0.5,
          "velocity": 100
        },
        {
          "pitch": 40,
          "onset": 218.0,
          "duration": 0.75,
          "velocity": 100
        },
        {
          "pitch": 43,
          "onset": 222.0,
          "duration": 0.75,
          "velocity": 100
        },
        {
          "pitch": 36,
          "onset": 224.0,
          "duration": 2.0,
          "velocity": 100
        },
        {
          "pitch": 43,
          "onset": 322.0,
          "duration": 0.75,
          "velocity": 75
        },
        {
          "pitch": 36,
          "onset": 352.0,
          "duration": 2.5,
          "velocity": 75
        },
        {
          "pitch": 43,
          "onset": 386.0,
          "duration": 0.75,
          "velocity": 75
        },
        {
          "pitch": 36,
          "onset": 416.0,
          "duration": 2.5,
          "velocity": 75
        },
        {
          "pitch": 43,
          "onset": 424.0,
          "duration": 0.5,
          "velocity": 100
        },
        {
          "pitch": 36,
          "onset": 432.0,
          "duration": 0.5,
          "velocity": 100
        },
        {
          "pitch": 52,
          "onset": 470.5,
          "duration": 0.75,
          "velocity": 100
        },
        {
          "pitch": 52,
          "onset": 471.5,
          "duration": 0.5,
          "velocity": 100
        },
        {
          "pitch": 52,
          "onset": 474.5,
          "duration": 0.75,
          "velocity": 100
        },
        {
          "pitch": 50,
          "onset": 475.5,
          "duration": 0.5,
          "velocity": 100
        },
        {
          "pitch": 48,
          "onset": 476.0,
          "duration": 0.75,
          "velocity": 100
        },
        {
          "pitch": 43,
          "onset": 488.0,
          "duration": 0.75,
          "velocity": 100
        },
        {
          "pitch": 52,
          "onset": 493.5,
          "duration": 0.5,
          "velocity": 100
        },
        {
          "pitch": 50,
          "onset": 494.0,
          "duration": 0.75,
          "velocity": 100
        },
        {
          "pitch": 43,
          "onset": 507.0,
          "duration": 0.75,
          "velocity": 100
        },
        {
          "pitch": 43,
          "onset": 509.0,
          "duration": 0.75,
          "velocity": 100
        },
        {
          "pitch": 43,
          "onset": 511.0,
          "duration": 0.75,
          "velocity": 100
        },
        {
          "pitch": 43,
          "onset": 515.0,
          "duration": 0.75,
          "velocity": 100
        },
        {
          "pitch": 45,
          "onset": 519.5,
          "duration": 0.5,
          "velocity": 100
        },
        {
          "pitch": 43,
          "onset": 520.0,
          "duration": 0.75,
          "velocity": 100
        },
        {
          "pitch": 41,
          "onset": 521.5,
          "duration": 0.5,
          "velocity": 100
        },
        {
          "pitch": 40,
          "onset": 522.0,
          "duration": 0.75,
          "velocity": 100
        },
        {
          "pitch": 43,
          "onset": 526.0,
          "duration": 0.75,
          "velocity": 100
        },
        {
          "pitch": 36,
          "onset": 528.0,
          "duration": 2.0,
          "velocity": 100
        },
        {
          "pitch": 52,
          "onset": 550.5,
          "duration": 0.75,
          "velocity": 100
        },
        {
          "pitch": 52,
          "onset": 551.5,
          "duration": 0.5,
          "velocity": 100
        },
        {
          "pitch": 52,
          "onset": 554.5,
          "duration": 0.75,
          "velocity": 100
        },
        {
          "pitch": 50,
          "onset": 555.5,
          "duration": 0.5,
          "velocity": 100
        },
        {
          "pitch": 48,
          "onset": 556.0,
          "duration": 0.75,
          "velocity": 100
        },
        {
          "pitch": 43,
          "onset": 568.0,
          "duration": 0.75,
          "velocity": 100
        },
        {
          "pitch": 52,
          "onset": 573.5,
          "duration": 0.5,
          "velocity": 100
        },
        {
          "pitch": 50,
          "onset": 574.0,
          "duration": 0.75,
          "velocity": 100
        },
        {
          "pitch": 43,
          "onset": 587.0,
          "duration": 0.75,
          "velocity": 100
        },
        {
          "pitch": 43,
          "onset": 589.0,
          "duration": 0.75,
          "velocity": 100
        },
        {
          "pitch": 43,
          "onset": 591.0,
          "duration": 0.75,
          "velocity": 100
        },
        {
          "pitch": 43,
          "onset": 595.0,
          "duration": 0.75,
          "velocity": 100
        },
        {
          "pitch": 45,
          "onset": 599.5,
          "duration": 0.5,
          "velocity": 100
        },
        {
          "pitch": 43,
          "onset": 600.0,
          "duration": 0.75,
          "velocity": 100
        },
        {
          "pitch": 41,
          "onset": 601.5,
          "duration": 0.5,
          "velocity": 100
        },
        {
          "pitch": 40,
          "onset": 602.0,
          "duration": 0.75,
          "velocity": 100
        },
        {
          "pitch": 43,
          "onset": 606.0,
          "duration": 0.75,
          "velocity": 100
        },
        {
          "pitch": 36,
          "onset": 608.0,
          "duration": 4.0,
          "velocity": 100
        }
      ]
    }
  ]
}