{
  "bwv": 1004,
  "category": "solo_violin_partita",
  "instrument": "violin",
  "form": "",
  "movement": 1,
  "tonic": "D",
  "mode": "minor",
  "confidence": "verified",
  "ticks_per_beat": 384,
  "duration_seconds": 273.3,
  "tempos": [
    {
      "tick": 0,
      "bpm": 60
    },
    {
      "tick": 2304,
      "bpm": 55
    },
    {
      "tick": 2496,
      "bpm": 55
    },
    {
      "tick": 2592,
      "bpm": 50
    },
    {
      "tick": 2976,
      "bpm": 55
    },
    {
      "tick": 3072,
      "bpm": 60
    },
    {
      "tick": 5952,
      "bpm": 55
    },
    {
      "tick": 6048,
      "bpm": 55
    },
    {
      "tick": 6240,
      "bpm": 60
    },
    {
      "tick": 9216,
      "bpm": 55
    },
    {
      "tick": 9408,
      "bpm": 55
    },
    {
      "tick": 9504,
      "bpm": 50
    },
    {
      "tick": 9696,
      "bpm": 60
    },
    {
      "tick": 11520,
      "bpm": 40
    },
    {
      "tick": 11616,
      "bpm": 60
    },
    {
      "tick": 14208,
      "bpm": 55
    },
    {
      "tick": 14400,
      "bpm": 55
    },
    {
      "tick": 14688,
      "bpm": 60
    },
    {
      "tick": 16512,
      "bpm": 60
    },
    {
      "tick": 16704,
      "bpm": 55
    },
    {
      "tick": 16800,
      "bpm": 55
    },
    {
      "tick": 16992,
      "bpm": 60
    },
    {
      "tick": 18816,
      "bpm": 60
    },
    {
      "tick": 19008,
      "bpm": 55
    },
    {
      "tick": 19104,
      "bpm": 55
    },
    {
      "tick": 19296,
      "bpm": 60
    },
    {
      "tick": 21120,
      "bpm": 60
    },
    {
      "tick": 21312,
      "bpm": 55
    },
    {
      "tick": 21408,
      "bpm": 50
    },
    {
      "tick": 21600,
      "bpm": 60
    },
    {
      "tick": 23424,
      "bpm": 60
    },
    {
      "tick": 23616,
      "bpm": 55
    },
    {
      "tick": 23712,
      "bpm": 55
    },
    {
      "tick": 24192,
      "bpm": 60
    },
    {
      "tick": 24576,
      "bpm": 60
    },
    {
      "tick": 24960,
      "bpm": 55
    },
    {
      "tick": 25152,
      "bpm": 55
    },
    {
      "tick": 26112,
      "bpm": 60
    },
    {
      "tick": 26880,
      "bpm": 60
    },
    {
      "tick": 27072,
      "bpm": 55
    },
    {
      "tick": 27168,
      "bpm": 50
    },
    {
      "tick": 27744,
      "bpm": 60
    },
    {
      "tick": 30336,
      "bpm": 60
    },
    {
      "tick": 30528,
      "bpm": 55
    },
    {
      "tick": 30624,
      "bpm": 55
    },
    {
      "tick": 30816,
      "bpm": 60
    },
    {
      "tick": 33408,
      "bpm": 60
    },
    {
      "tick": 33792,
      "bpm": 55
    },
    {
      "tick": 33984,
      "bpm": 55
    },
    {
      "tick": 34080,
      "bpm": 50
    },
    {
      "tick": 34272,
      "bpm": 60
    },
    {
      "tick": 35712,
      "bpm": 60
    },
    {
      "tick": 35904,
      "bpm": 55
    },
    {
      "tick": 36096,
      "bpm": 40
    },
    {
      "tick": 36192,
      "bpm": 60
    },
    {
      "tick": 38784,
      "bpm": 60
    },
    {
      "tick": 38976,
      "bpm": 55
    },
    {
      "tick": 39072,
      "bpm": 55
    },
    {
      "tick": 39264,
      "bpm": 60
    },
    {
      "tick": 41088,
      "bpm": 60
    },
    {
      "tick": 41280,
      "bpm": 55
    },
    {
      "tick": 41376,
      "bpm": 55
    },
    {
      "tick": 41568,
      "bpm": 60
    },
    {
      "tick": 43392,
      "bpm": 55
    },
    {
      "tick": 43584,
      "bpm": 55
    },
    {
      "tick": 43680,
      "bpm": 50
    },
    {
      "tick": 43872,
      "bpm": 60
    },
    {
      "tick": 45696,
      "bpm": 55
    },
    {
      "tick": 45888,
      "bpm": 55
    },
    {
      "tick": 45984,
      "bpm": 50
    },
    {
      "tick": 46176,
      "bpm": 60
    },
    {
      "tick": 48000,
      "bpm": 60
    },
    {
      "tick": 48192,
      "bpm": 55
    },
    {
      "tick": 48288,
      "bpm": 50
    },
    {
      "tick": 48768,
      "bpm": 55
    },
    {
      "tick": 49536,
      "bpm": 55
    },
    {
      "tick": 49728,
      "bpm": 55
    },
    {
      "tick": 50688,
      "bpm": 60
    },
    {
      "tick": 51840,
      "bpm": 60
    },
    {
      "tick": 52224,
      "bpm": 55
    },
    {
      "tick": 52416,
      "bpm": 55
    },
    {
      "tick": 52512,
      "bpm": 50
    },
    {
      "tick": 52704,
      "bpm": 60
    },
    {
      "tick": 55680,
      "bpm": 55
    },
    {
      "tick": 55872,
      "bpm": 55
    },
    {
      "tick": 55968,
      "bpm": 50
    },
    {
      "tick": 56160,
      "bpm": 60
    },
    {
      "tick": 57216,
      "bpm": 60
    },
    {
      "tick": 57408,
      "bpm": 55
    },
    {
      "tick": 57504,
      "bpm": 55
    },
    {
      "tick": 57600,
      "bpm": 40
    },
    {
      "tick": 57696,
      "bpm": 60
    },
    {
      "tick": 59520,
      "bpm": 60
    },
    {
      "tick": 59712,
      "bpm": 55
    },
    {
      "tick": 59808,
      "bpm": 55
    },
    {
      "tick": 60288,
      "bpm": 60
    },
    {
      "tick": 64512,
      "bpm": 60
    },
    {
      "tick": 64896,
      "bpm": 55
    },
    {
      "tick": 65088,
      "bpm": 55
    },
    {
      "tick": 65184,
      "bpm": 50
    },
    {
      "tick": 65280,
      "bpm": 60
    },
    {
      "tick": 66048,
      "bpm": 60
    },
    {
      "tick": 66432,
      "bpm": 60
    },
    {
      "tick": 66816,
      "bpm": 55
    },
    {
      "tick": 67008,
      "bpm": 55
    },
    {
      "tick": 67104,
      "bpm": 50
    },
    {
      "tick": 67296,
      "bpm": 60
    },
    {
      "tick": 71040,
      "bpm": 55
    },
    {
      "tick": 71232,
      "bpm": 55
    },
    {
      "tick": 71328,
      "bpm": 50
    },
    {
      "tick": 71520,
      "bpm": 60
    },
    {
      "tick": 72576,
      "bpm": 60
    },
    {
      "tick": 72768,
      "bpm": 55
    },
    {
      "tick": 72864,
      "bpm": 50
    },
    {
      "tick": 73056,
      "bpm": 60
    },
    {
      "tick": 74112,
      "bpm": 60
    },
    {
      "tick": 74304,
      "bpm": 55
    },
    {
      "tick": 75264,
      "bpm": 60
    },
    {
      "tick": 76800,
      "bpm": 55
    },
    {
      "tick": 76992,
      "bpm": 55
    },
    {
      "tick": 77088,
      "bpm": 50
    },
    {
      "tick": 77280,
      "bpm": 60
    },
    {
      "tick": 80256,
      "bpm": 55
    },
    {
      "tick": 80448,
      "bpm": 55
    },
    {
      "tick": 80544,
      "bpm": 50
    },
    {
      "tick": 80736,
      "bpm": 60
    },
    {
      "tick": 81792,
      "bpm": 55
    },
    {
      "tick": 81984,
      "bpm": 55
    },
    {
      "tick": 82080,
      "bpm": 50
    },
    {
      "tick": 82272,
      "bpm": 60
    },
    {
      "tick": 84096,
      "bpm": 60
    },
    {
      "tick": 84288,
      "bpm": 55
    },
    {
      "tick": 84384,
      "bpm": 55
    },
    {
      "tick": 84864,
      "bpm": 60
    },
    {
      "tick": 86784,
      "bpm": 50
    },
    {
      "tick": 86880,
      "bpm": 60
    },
    {
      "tick": 88320,
      "bpm": 50
    },
    {
      "tick": 88416,
      "bpm": 60
    },
    {
      "tick": 89472,
      "bpm": 60
    },
    {
      "tick": 89664,
      "bpm": 55
    },
    {
      "tick": 89760,
      "bpm": 55
    },
    {
      "tick": 89856,
      "bpm": 60
    },
    {
      "tick": 90624,
      "bpm": 65
    },
    {
      "tick": 91008,
      "bpm": 60
    },
    {
      "tick": 91392,
      "bpm": 60
    },
    {
      "tick": 91584,
      "bpm": 55
    },
    {
      "tick": 91680,
      "bpm": 55
    },
    {
      "tick": 91872,
      "bpm": 55
    },
    {
      "tick": 91968,
      "bpm": 60
    },
    {
      "tick": 95616,
      "bpm": 55
    },
    {
      "tick": 95808,
      "bpm": 55
    },
    {
      "tick": 95904,
      "bpm": 55
    },
    {
      "tick": 96096,
      "bpm": 60
    },
    {
      "tick": 97152,
      "bpm": 55
    },
    {
      "tick": 97344,
      "bpm": 50
    },
    {
      "tick": 97440,
      "bpm": 40
    },
    {
      "tick": 97632,
      "bpm": 60
    },
    {
      "tick": 97920,
      "bpm": 55
    },
    {
      "tick": 98304,
      "bpm": 55
    },
    {
      "tick": 98688,
      "bpm": 50
    },
    {
      "tick": 98880,
      "bpm": 45
    }
  ],
  "time_signatures": [
    {
      "tick": 0,
      "numerator": 4,
      "denominator": 4
    }
  ],
  "track_type": "solo_string",
  "voice_count": 2,
  "total_notes": 1095,
  "tracks": [
    {
      "role": "solo_0",
      "notes": [
        {
          "pitch": 62,
          "onset": 3.75,
          "duration": 0.25,
          "velocity": 100
        },
        {
          "pitch": 62,
          "onset": 4.0,
          "duration": 0.75,
          "velocity": 100
        },
        {
          "pitch": 64,
          "onset": 4.75,
          "duration": 0.25,
          "velocity": 100
        },
        {
          "pitch": 65,
          "onset": 5.0,
          "duration": 0.25,
          "velocity": 100
        },
        {
          "pitch": 67,
          "onset": 5.25,
          "duration": 0.25,
          "velocity": 100
        },
        {
          "pitch": 69,
          "onset": 5.5,
          "duration": 0.25,
          "velocity": 100
        },
        {
          "pitch": 70,
          "onset": 5.75,
          "duration": 0.25,
          "velocity": 100
        },
        {
          "pitch": 61,
          "onset": 6.0,
          "duration": 0.25,
          "velocity": 100
        },
        {
          "pitch": 70,
          "onset": 6.25,
          "duration": 0.25,
          "velocity": 100
        },
        {
          "pitch": 69,
          "onset": 6.5,
          "duration": 0.25,
          "velocity": 100
        },
        {
          "pitch": 67,
          "onset": 6.75,
          "duration": 0.25,
          "velocity": 100
        },
        {
          "pitch": 76,
          "onset": 7.0,
          "duration": 0.75,
          "velocity": 100
        },
        {
          "pitch": 67,
          "onset": 7.75,
          "duration": 0.25,
          "velocity": 100
        },
        {
          "pitch": 65,
          "onset": 8.0,
          "duration": 0.25,
          "velocity": 100
        },
        {
          "pitch": 61,
          "onset": 8.25,
          "duration": 0.25,
          "velocity": 100
        },
        {
          "pitch": 62,
          "onset": 8.5,
          "duration": 0.25,
          "velocity": 100
        },
        {
          "pitch": 57,
          "onset": 8.75,
          "duration": 0.25,
          "velocity": 100
        },
        {
          "pitch": 58,
          "onset": 9.0,
          "duration": 0.25,
          "velocity": 100
        },
        {
          "pitch": 62,
          "onset": 9.25,
          "duration": 0.25,
          "velocity": 100
        },
        {
          "pitch": 65,
          "onset": 9.5,
          "duration": 0.25,
          "velocity": 100
        },
        {
          "pitch": 67,
          "onset": 9.75,
          "duration": 0.25,
          "velocity": 100
        },
        {
          "pitch": 61,
          "onset": 10.0,
          "duration": 0.25,
          "velocity": 100
        },
        {
          "pitch": 57,
          "onset": 10.25,
          "duration": 0.25,
          "velocity": 100
        },
        {
          "pitch": 61,
          "onset": 10.5,
          "duration": 0.25,
          "velocity": 100
        },
        {
          "pitch": 64,
          "onset": 10.75,
          "duration": 0.25,
          "velocity": 100
        },
        {
          "pitch": 69,
          "onset": 11.0,
          "duration": 0.1562,
          "velocity": 100
        },
        {
          "pitch": 67,
          "onset": 11.1562,
          "duration": 0.1562,
          "velocity": 100
        },
        {
          "pitch": 65,
          "onset": 11.3438,
          "duration": 0.1562,
          "velocity": 100
        },
        {
          "pitch": 67,
          "onset": 11.5,
          "duration": 0.1562,
          "velocity": 100
        },
        {
          "pitch": 65,
          "onset": 11.6562,
          "duration": 0.1562,
          "velocity": 100
        },
        {
          "pitch": 64,
          "onset": 11.8438,
          "duration": 0.1562,
          "velocity": 100
        },
        {
          "pitch": 65,
          "onset": 12.0,
          "duration": 0.25,
          "velocity": 100
        },
        {
          "pitch": 62,
          "onset": 12.25,
          "duration": 0.25,
          "velocity": 100
        },
        {
          "pitch": 65,
          "onset": 12.5,
          "duration": 0.25,
          "velocity": 100
        },
        {
          "pitch": 69,
          "onset": 12.75,
          "duration": 0.25,
          "velocity": 100
        },
        {
          "pitch": 70,
          "onset": 13.0,
          "duration": 0.1562,
          "velocity": 100
        },
        {
          "pitch": 69,
          "onset": 13.1562,
          "duration": 0.1562,
          "velocity": 100
        },
        {
          "pitch": 67,
          "onset": 13.3438,
          "duration": 0.1562,
          "velocity": 100
        },
        {
          "pitch": 69,
          "onset": 13.5,
          "duration": 0.1562,
          "velocity": 100
        },
        {
          "pitch": 67,
          "onset": 13.6562,
          "duration": 0.1562,
          "velocity": 100
        },
        {
          "pitch": 65,
          "onset": 13.8438,
          "duration": 0.1562,
          "velocity": 100
        },
        {
          "pitch": 64,
          "onset": 14.0,
          "duration": 0.25,
          "velocity": 100
        },
        {
          "pitch": 67,
          "onset": 14.25,
          "duration": 0.25,
          "velocity": 100
        },
        {
          "pitch": 70,
          "onset": 14.5,
          "duration": 0.25,
          "velocity": 100
        },
        {
          "pitch": 74,
          "onset": 14.75,
          "duration": 0.25,
          "velocity": 100
        },
        {
          "pitch": 72,
          "onset": 15.0,
          "duration": 0.1562,
          "velocity": 100
        },
        {
          "pitch": 70,
          "onset": 15.1562,
          "duration": 0.1562,
          "velocity": 100
        },
        {
          "pitch": 69,
          "onset": 15.3438,
          "duration": 0.1562,
          "velocity": 100
        },
        {
          "pitch": 70,
          "onset": 15.5,
          "duration": 0.1562,
          "velocity": 100
        },
        {
          "pitch": 69,
          "onset": 15.6562,
          "duration": 0.1562,
          "velocity": 100
        },
        {
          "pitch": 67,
          "onset": 15.8438,
          "duration": 0.1562,
          "velocity": 100
        },
        {
          "pitch": 69,
          "onset": 16.0,
          "duration": 0.25,
          "velocity": 100
        },
        {
          "pitch": 65,
          "onset": 16.25,
          "duration": 0.25,
          "velocity": 100
        },
        {
          "pitch": 69,
          "onset": 16.5,
          "duration": 0.25,
          "velocity": 100
        },
        {
          "pitch": 72,
          "onset": 16.75,
          "duration": 0.25,
          "velocity": 100
        },
        {
          "pitch": 77,
          "onset": 17.0,
          "duration": 0.25,
          "velocity": 100
        },
        {
          "pitch": 79,
          "onset": 17.25,
          "duration": 0.25,
          "velocity": 100
        },
        {
          "pitch": 81,
          "onset": 17.5,
          "duration": 0.25,
          "velocity": 100
        },
        {
          "pitch": 72,
          "onset": 17.75,
          "duration": 0.25,
          "velocity": 100
        },
        {
          "pitch": 74,
          "onset": 18.0,
          "duration": 0.25,
          "velocity": 100
        },
        {
          "pitch": 69,
          "onset": 18.25,
          "duration": 0.25,
          "velocity": 100
        },
        {
          "pitch": 70,
          "onset": 18.5,
          "duration": 0.25,
          "velocity": 100
        },
        {
          "pitch": 74,
          "onset": 18.75,
          "duration": 0.25,
          "velocity": 100
        },
        {
          "pitch": 79,
          "onset": 19.0,
          "duration": 0.25,
          "velocity": 100
        },
        {
          "pitch": 81,
          "onset": 19.25,
          "duration": 0.25,
          "velocity": 100
        },
        {
          "pitch": 82,
          "onset": 19.5,
          "duration": 0.25,
          "velocity": 100
        },
        {
          "pitch": 74,
          "onset": 19.75,
          "duration": 0.25,
          "velocity": 100
        },
        {
          "pitch": 76,
          "onset": 20.0,
          "duration": 0.25,
          "velocity": 100
        },
        {
          "pitch": 70,
          "onset": 20.25,
          "duration": 0.25,
          "velocity": 100
        },
        {
          "pitch": 72,
          "onset": 20.5,
          "duration": 0.25,
          "velocity": 100
        },
        {
          "pitch": 67,
          "onset": 20.75,
          "duration": 0.25,
          "velocity": 100
        },
        {
          "pitch": 69,
          "onset": 21.0,
          "duration": 0.25,
          "velocity": 100
        },
        {
          "pitch": 70,
          "onset": 21.25,
          "duration": 0.25,
          "velocity": 100
        },
        {
          "pitch": 72,
          "onset": 21.5,
          "duration": 0.25,
          "velocity": 100
        },
        {
          "pitch": 64,
          "onset": 21.75,
          "duration": 0.25,
          "velocity": 100
        },
        {
          "pitch": 65,
          "onset": 22.0,
          "duration": 0.25,
          "velocity": 100
        },
        {
          "pitch": 57,
          "onset": 22.25,
          "duration": 0.25,
          "velocity": 100
        },
        {
          "pitch": 58,
          "onset": 22.5,
          "duration": 0.25,
          "velocity": 100
        },
        {
          "pitch": 67,
          "onset": 22.75,
          "duration": 0.25,
          "velocity": 100
        },
        {
          "pitch": 60,
          "onset": 23.0,
          "duration": 0.25,
          "velocity": 100
        },
        {
          "pitch": 64,
          "onset": 23.25,
          "duration": 0.25,
          "velocity": 100
        },
        {
          "pitch": 67,
          "onset": 23.5,
          "duration": 0.25,
          "velocity": 100
        },
        {
          "pitch": 70,
          "onset": 23.75,
          "duration": 0.25,
          "velocity": 100
        },
        {
          "pitch": 69,
          "onset": 24.0,
          "duration": 0.25,
          "velocity": 100
        },
        {
          "pitch": 67,
          "onset": 24.25,
          "duration": 0.25,
          "velocity": 100
        },
        {
          "pitch": 65,
          "onset": 24.5,
          "duration": 0.25,
          "velocity": 100
        },
        {
          "pitch": 69,
          "onset": 24.75,
          "duration": 0.25,
          "velocity": 100
        },
        {
          "pitch": 74,
          "onset": 25.0,
          "duration": 0.25,
          "velocity": 100
        },
        {
          "pitch": 65,
          "onset": 25.25,
          "duration": 0.25,
          "velocity": 100
        },
        {
          "pitch": 64,
          "onset": 25.5,
          "duration": 0.25,
          "velocity": 100
        },
        {
          "pitch": 62,
          "onset": 25.75,
          "duration": 0.25,
          "velocity": 100
        },
        {
          "pitch": 61,
          "onset": 26.0,
          "duration": 0.25,
          "velocity": 100
        },
        {
          "pitch": 76,
          "onset": 26.25,
          "duration": 0.25,
          "velocity": 100
        },
        {
          "pitch": 77,
          "onset": 26.5,
          "duration": 0.25,
          "velocity": 100
        },
        {
          "pitch": 79,
          "onset": 26.75,
          "duration": 0.25,
          "velocity": 100
        },
        {
          "pitch": 69,
          "onset": 27.0,
          "duration": 0.25,
          "velocity": 100
        },
        {
          "pitch": 79,
          "onset": 27.25,
          "duration": 0.25,
          "velocity": 100
        },
        {
          "pitch": 77,
          "onset": 27.5,
          "duration": 0.25,
          "velocity": 100
        },
        {
          "pitch": 76,
          "onset": 27.75,
          "duration": 0.25,
          "velocity": 100
        },
        {
          "pitch": 77,
          "onset": 28.0,
          "duration": 0.25,
          "velocity": 100
        },
        {
          "pitch": 76,
          "onset": 28.25,
          "duration": 0.25,
          "velocity": 100
        },
        {
          "pitch": 74,
          "onset": 28.5,
          "duration": 0.25,
          "velocity": 100
        },
        {
          "pitch": 64,
          "onset": 28.75,
          "duration": 0.25,
          "velocity": 110
        },
        {
          "pitch": 62,
          "onset": 29.0,
          "duration": 0.25,
          "velocity": 110
        },
        {
          "pitch": 60,
          "onset": 29.25,
          "duration": 0.25,
          "velocity": 110
        },
        {
          "pitch": 59,
          "onset": 29.5,
          "duration": 0.25,
          "velocity": 110
        },
        {
          "pitch": 57,
          "onset": 29.75,
          "duration": 0.25,
          "velocity": 110
        },
        {
          "pitch": 56,
          "onset": 30.0,
          "duration": 0.25,
          "velocity": 110
        },
        {
          "pitch": 71,
          "onset": 30.25,
          "duration": 0.25,
          "velocity": 100
        },
        {
          "pitch": 72,
          "onset": 30.5,
          "duration": 0.25,
          "velocity": 100
        },
        {
          "pitch": 74,
          "onset": 30.75,
          "duration": 0.25,
          "velocity": 100
        },
        {
          "pitch": 64,
          "onset": 31.0,
          "duration": 0.25,
          "velocity": 100
        },
        {
          "pitch": 74,
          "onset": 31.25,
          "duration": 0.25,
          "velocity": 100
        },
        {
          "pitch": 72,
          "onset": 31.5,
          "duration": 0.25,
          "velocity": 100
        },
        {
          "pitch": 71,
          "onset": 31.75,
          "duration": 0.25,
          "velocity": 100
        },
        {
          "pitch": 72,
          "onset": 32.0,
          "duration": 0.25,
          "velocity": 100
        },
        {
          "pitch": 71,
          "onset": 32.25,
          "duration": 0.25,
          "velocity": 100
        },
        {
          "pitch": 69,
          "onset": 32.5,
          "duration": 0.25,
          "velocity": 100
        },
        {
          "pitch": 71,
          "onset": 32.75,
          "duration": 0.25,
          "velocity": 100
        },
        {
          "pitch": 72,
          "onset": 33.0,
          "duration": 0.25,
          "velocity": 100
        },
        {
          "pitch": 77,
          "onset": 33.25,
          "duration": 0.125,
          "velocity": 100
        },
        {
          "pitch": 76,
          "onset": 33.375,
          "duration": 0.125,
          "velocity": 100
        },
        {
          "pitch": 74,
          "onset": 33.5,
          "duration": 0.25,
          "velocity": 100
        },
        {
          "pitch": 72,
          "onset": 33.75,
          "duration": 0.25,
          "velocity": 100
        },
        {
          "pitch": 71,
          "onset": 34.0,
          "duration": 0.25,
          "velocity": 100
        },
        {
          "pitch": 69,
          "onset": 34.25,
          "duration": 0.25,
          "velocity": 100
        },
        {
          "pitch": 67,
          "onset": 34.5,
          "duration": 0.25,
          "velocity": 100
        },
        {
          "pitch": 69,
          "onset": 34.75,
          "duration": 0.25,
          "velocity": 100
        },
        {
          "pitch": 71,
          "onset": 35.0,
          "duration": 0.25,
          "velocity": 100
        },
        {
          "pitch": 76,
          "onset": 35.25,
          "duration": 0.125,
          "velocity": 100
        },
        {
          "pitch": 74,
          "onset": 35.375,
          "duration": 0.125,
          "velocity": 100
        },
        {
          "pitch": 72,
          "onset": 35.5,
          "duration": 0.25,
          "velocity": 100
        },
        {
          "pitch": 71,
          "onset": 35.75,
          "duration": 0.25,
          "velocity": 100
        },
        {
          "pitch": 69,
          "onset": 36.0,
          "duration": 0.25,
          "velocity": 100
        },
        {
          "pitch": 67,
          "onset": 36.25,
          "duration": 0.25,
          "velocity": 100
        },
        {
          "pitch": 65,
          "onset": 36.5,
          "duration": 0.25,
          "velocity": 100
        },
        {
          "pitch": 67,
          "onset": 36.75,
          "duration": 0.125,
          "velocity": 100
        },
        {
          "pitch": 69,
          "onset": 36.875,
          "duration": 0.125,
          "velocity": 100
        },
        {
          "pitch": 62,
          "onset": 37.0,
          "duration": 0.25,
          "velocity": 100
        },
        {
          "pitch": 72,
          "onset": 37.25,
          "duration": 0.25,
          "velocity": 100
        },
        {
          "pitch": 71,
          "onset": 37.5,
          "duration": 0.25,
          "velocity": 100
        },
        {
          "pitch": 69,
          "onset": 37.75,
          "duration": 0.25,
          "velocity": 100
        },
        {
          "pitch": 68,
          "onset": 38.0,
          "duration": 0.25,
          "velocity": 85
        },
        {
          "pitch": 66,
          "onset": 38.25,
          "duration": 0.25,
          "velocity": 85
        },
        {
          "pitch": 64,
          "onset": 38.5,
          "duration": 0.25,
          "velocity": 85
        },
        {
          "pitch": 66,
          "onset": 38.75,
          "duration": 0.25,
          "velocity": 85
        },
        {
          "pitch": 68,
          "onset": 39.0,
          "duration": 0.25,
          "velocity": 85
        },
        {
          "pitch": 69,
          "onset": 39.25,
          "duration": 0.25,
          "velocity": 85
        },
        {
          "pitch": 71,
          "onset": 39.5,
          "duration": 0.25,
          "velocity": 85
        },
        {
          "pitch": 72,
          "onset": 39.75,
          "duration": 0.25,
          "velocity": 85
        },
        {
          "pitch": 74,
          "onset": 40.0,
          "duration": 0.25,
          "velocity": 85
        },
        {
          "pitch": 76,
          "onset": 40.25,
          "duration": 0.25,
          "velocity": 85
        },
        {
          "pitch": 77,
          "onset": 40.5,
          "duration": 0.25,
          "velocity": 85
        },
        {
          "pitch": 76,
          "onset": 40.75,
          "duration": 0.25,
          "velocity": 85
        },
        {
          "pitch": 74,
          "onset": 41.0,
          "duration": 0.25,
          "velocity": 85
        },
        {
          "pitch": 72,
          "onset": 41.25,
          "duration": 0.25,
          "velocity": 85
        },
        {
          "pitch": 71,
          "onset": 41.5,
          "duration": 0.25,
          "velocity": 85
        },
        {
          "pitch": 69,
          "onset": 41.75,
          "duration": 0.25,
          "velocity": 85
        },
        {
          "pitch": 80,
          "onset": 42.0,
          "duration": 0.25,
          "velocity": 100
        },
        {
          "pitch": 81,
          "onset": 42.25,
          "duration": 0.25,
          "velocity": 100
        },
        {
          "pitch": 83,
          "onset": 42.5,
          "duration": 0.25,
          "velocity": 100
        },
        {
          "pitch": 81,
          "onset": 42.75,
          "duration": 0.25,
          "velocity": 100
        },
        {
          "pitch": 80,
          "onset": 43.0,
          "duration": 0.25,
          "velocity": 100
        },
        {
          "pitch": 78,
          "onset": 43.25,
          "duration": 0.25,
          "velocity": 100
        },
        {
          "pitch": 76,
          "onset": 43.5,
          "duration": 0.25,
          "velocity": 100
        },
        {
          "pitch": 74,
          "onset": 43.75,
          "duration": 0.25,
          "velocity": 100
        },
        {
          "pitch": 72,
          "onset": 44.0,
          "duration": 0.25,
          "velocity": 121
        },
        {
          "pitch": 74,
          "onset": 44.25,
          "duration": 0.125,
          "velocity": 100
        },
        {
          "pitch": 76,
          "onset": 44.375,
          "duration": 0.125,
          "velocity": 100
        },
        {
          "pitch": 77,
          "onset": 44.5,
          "duration": 0.25,
          "velocity": 100
        },
        {
          "pitch": 81,
          "onset": 44.75,
          "duration": 0.25,
          "velocity": 100
        },
        {
          "pitch": 71,
          "onset": 45.0,
          "duration": 0.25,
          "velocity": 120
        },
        {
          "pitch": 72,
          "onset": 45.25,
          "duration": 0.125,
          "velocity": 100
        },
        {
          "pitch": 74,
          "onset": 45.375,
          "duration": 0.125,
          "velocity": 100
        },
        {
          "pitch": 76,
          "onset": 45.5,
          "duration": 0.25,
          "velocity": 100
        },
        {
          "pitch": 79,
          "onset": 45.75,
          "duration": 0.25,
          "velocity": 100
        },
        {
          "pitch": 69,
          "onset": 46.0,
          "duration": 0.25,
          "velocity": 121
        },
        {
          "pitch": 71,
          "onset": 46.25,
          "duration": 0.125,
          "velocity": 100
        },
        {
          "pitch": 72,
          "onset": 46.375,
          "duration": 0.125,
          "velocity": 100
        },
        {
          "pitch": 74,
          "onset": 46.5,
          "duration": 0.25,
          "velocity": 100
        },
        {
          "pitch": 77,
          "onset": 46.75,
          "duration": 0.25,
          "velocity": 100
        },
        {
          "pitch": 67,
          "onset": 47.0,
          "duration": 0.25,
          "velocity": 120
        },
        {
          "pitch": 69,
          "onset": 47.25,
          "duration": 0.125,
          "velocity": 100
        },
        {
          "pitch": 71,
          "onset": 47.375,
          "duration": 0.125,
          "velocity": 100
        },
        {
          "pitch": 72,
          "onset": 47.5,
          "duration": 0.25,
          "velocity": 100
        },
        {
          "pitch": 76,
          "onset": 47.75,
          "duration": 0.25,
          "velocity": 100
        },
        {
          "pitch": 65,
          "onset": 48.0,
          "duration": 0.25,
          "velocity": 123
        },
        {
          "pitch": 67,
          "onset": 48.25,
          "duration": 0.125,
          "velocity": 100
        },
        {
          "pitch": 69,
          "onset": 48.375,
          "duration": 0.125,
          "velocity": 100
        },
        {
          "pitch": 71,
          "onset": 48.5,
          "duration": 0.25,
          "velocity": 100
        },
        {
          "pitch": 74,
          "onset": 48.75,
          "duration": 0.25,
          "velocity": 100
        },
        {
          "pitch": 64,
          "onset": 49.0,
          "duration": 0.25,
          "velocity": 121
        },
        {
          "pitch": 66,
          "onset": 49.25,
          "duration": 0.125,
          "velocity": 100
        },
        {
          "pitch": 68,
          "onset": 49.375,
          "duration": 0.125,
          "velocity": 100
        },
        {
          "pitch": 69,
          "onset": 49.5,
          "duration": 0.25,
          "velocity": 100
        },
        {
          "pitch": 72,
          "onset": 49.75,
          "duration": 0.25,
          "velocity": 100
        },
        {
          "pitch": 62,
          "onset": 50.0,
          "duration": 0.25,
          "velocity": 100
        },
        {
          "pitch": 61,
          "onset": 50.25,
          "duration": 0.25,
          "velocity": 100
        },
        {
          "pitch": 62,
          "onset": 50.5,
          "duration": 0.25,
          "velocity": 100
        },
        {
          "pitch": 65,
          "onset": 50.75,
          "duration": 0.25,
          "velocity": 100
        },
        {
          "pitch": 70,
          "onset": 51.0,
          "duration": 0.25,
          "velocity": 100
        },
        {
          "pitch": 72,
          "onset": 51.25,
          "duration": 0.25,
          "velocity": 100
        },
        {
          "pitch": 74,
          "onset": 51.5,
          "duration": 0.25,
          "velocity": 100
        },
        {
          "pitch": 70,
          "onset": 51.75,
          "duration": 0.25,
          "velocity": 100
        },
        {
          "pitch": 65,
          "onset": 52.0,
          "duration": 0.25,
          "velocity": 100
        },
        {
          "pitch": 64,
          "onset": 52.25,
          "duration": 0.25,
          "velocity": 100
        },
        {
          "pitch": 65,
          "onset": 52.5,
          "duration": 0.25,
          "velocity": 100
        },
        {
          "pitch": 70,
          "onset": 52.75,
          "duration": 0.25,
          "velocity": 100
        },
        {
          "pitch": 74,
          "onset": 53.0,
          "duration": 0.25,
          "velocity": 100
        },
        {
          "pitch": 76,
          "onset": 53.25,
          "duration": 0.25,
          "velocity": 100
        },
        {
          "pitch": 77,
          "onset": 53.5,
          "duration": 0.25,
          "velocity": 100
        },
        {
          "pitch": 74,
          "onset": 53.75,
          "duration": 0.25,
          "velocity": 100
        },
        {
          "pitch": 70,
          "onset": 54.0,
          "duration": 0.25,
          "velocity": 100
        },
        {
          "pitch": 69,
          "onset": 54.25,
          "duration": 0.25,
          "velocity": 102
        },
        {
          "pitch": 70,
          "onset": 54.5,
          "duration": 0.25,
          "velocity": 105
        },
        {
          "pitch": 74,
          "onset": 54.75,
          "duration": 0.25,
          "velocity": 108
        },
        {
          "pitch": 77,
          "onset": 55.0,
          "duration": 0.25,
          "velocity": 111
        },
        {
          "pitch": 79,
          "onset": 55.25,
          "duration": 0.125,
          "velocity": 114
        },
        {
          "pitch": 81,
          "onset": 55.375,
          "duration": 0.125,
          "velocity": 115
        },
        {
          "pitch": 82,
          "onset": 55.5,
          "duration": 0.25,
          "velocity": 117
        },
        {
          "pitch": 81,
          "onset": 55.75,
          "duration": 0.25,
          "velocity": 119
        },
        {
          "pitch": 80,
          "onset": 56.0,
          "duration": 0.25,
          "velocity": 120
        },
        {
          "pitch": 83,
          "onset": 56.25,
          "duration": 0.125,
          "velocity": 120
        },
        {
          "pitch": 81,
          "onset": 56.375,
          "duration": 0.125,
          "velocity": 120
        },
        {
          "pitch": 80,
          "onset": 56.5,
          "duration": 0.25,
          "velocity": 120
        },
        {
          "pitch": 77,
          "onset": 56.75,
          "duration": 0.125,
          "velocity": 120
        },
        {
          "pitch": 76,
          "onset": 56.875,
          "duration": 0.125,
          "velocity": 120
        },
        {
          "pitch": 74,
          "onset": 57.0,
          "duration": 0.25,
          "velocity": 120
        },
        {
          "pitch": 77,
          "onset": 57.25,
          "duration": 0.125,
          "velocity": 120
        },
        {
          "pitch": 76,
          "onset": 57.375,
          "duration": 0.125,
          "velocity": 120
        },
        {
          "pitch": 74,
          "onset": 57.5,
          "duration": 0.25,
          "velocity": 120
        },
        {
          "pitch": 71,
          "onset": 57.75,
          "duration": 0.125,
          "velocity": 120
        },
        {
          "pitch": 69,
          "onset": 57.875,
          "duration": 0.125,
          "velocity": 120
        },
        {
          "pitch": 68,
          "onset": 58.0,
          "duration": 0.25,
          "velocity": 120
        },
        {
          "pitch": 71,
          "onset": 58.25,
          "duration": 0.25,
          "velocity": 120
        },
        {
          "pitch": 76,
          "onset": 58.5,
          "duration": 0.25,
          "velocity": 120
        },
        {
          "pitch": 80,
          "onset": 58.75,
          "duration": 0.25,
          "velocity": 120
        },
        {
          "pitch": 83,
          "onset": 59.0,
          "duration": 0.25,
          "velocity": 120
        },
        {
          "pitch": 76,
          "onset": 59.25,
          "duration": 0.25,
          "velocity": 120
        },
        {
          "pitch": 86,
          "onset": 59.5,
          "duration": 0.25,
          "velocity": 120
        },
        {
          "pitch": 84,
          "onset": 59.75,
          "duration": 0.125,
          "velocity": 120
        },
        {
          "pitch": 83,
          "onset": 59.875,
          "duration": 0.125,
          "velocity": 120
        },
        {
          "pitch": 84,
          "onset": 60.0,
          "duration": 0.25,
          "velocity": 120
        },
        {
          "pitch": 83,
          "onset": 60.25,
          "duration": 0.125,
          "velocity": 120
        },
        {
          "pitch": 81,
          "onset": 60.375,
          "duration": 0.125,
          "velocity": 120
        },
        {
          "pitch": 80,
          "onset": 60.5,
          "duration": 0.25,
          "velocity": 120
        },
        {
          "pitch": 81,
          "onset": 60.75,
          "duration": 0.25,
          "velocity": 120
        },
        {
          "pitch": 72,
          "onset": 61.0,
          "duration": 0.1562,
          "velocity": 100
        },
        {
          "pitch": 74,
          "onset": 61.1562,
          "duration": 0.1562,
          "velocity": 100
        },
        {
          "pitch": 76,
          "onset": 61.3438,
          "duration": 0.1562,
          "velocity": 100
        },
        {
          "pitch": 74,
          "onset": 61.5,
          "duration": 0.1562,
          "velocity": 100
        },
        {
          "pitch": 72,
          "onset": 61.6562,
          "duration": 0.1562,
          "velocity": 100
        },
        {
          "pitch": 71,
          "onset": 61.8438,
          "duration": 0.1562,
          "velocity": 100
        },
        {
          "pitch": 69,
          "onset": 62.0,
          "duration": 0.75,
          "velocity": 100
        },
        {
          "pitch": 71,
          "onset": 62.75,
          "duration": 0.25,
          "velocity": 100
        },
        {
          "pitch": 73,
          "onset": 63.0,
          "duration": 0.25,
          "velocity": 100
        },
        {
          "pitch": 74,
          "onset": 63.25,
          "duration": 0.25,
          "velocity": 100
        },
        {
          "pitch": 76,
          "onset": 63.5,
          "duration": 0.25,
          "velocity": 100
        },
        {
          "pitch": 67,
          "onset": 63.75,
          "duration": 0.25,
          "velocity": 100
        },
        {
          "pitch": 65,
          "onset": 64.0,
          "duration": 0.25,
          "velocity": 100
        },
        {
          "pitch": 62,
          "onset": 64.25,
          "duration": 0.25,
          "velocity": 100
        },
        {
          "pitch": 65,
          "onset": 64.5,
          "duration": 0.25,
          "velocity": 100
        },
        {
          "pitch": 69,
          "onset": 64.75,
          "duration": 0.25,
          "velocity": 100
        },
        {
          "pitch": 74,
          "onset": 65.0,
          "duration": 0.25,
          "velocity": 100
        },
        {
          "pitch": 77,
          "onset": 65.25,
          "duration": 0.25,
          "velocity": 100
        },
        {
          "pitch": 80,
          "onset": 65.5,
          "duration": 0.25,
          "velocity": 100
        },
        {
          "pitch": 62,
          "onset": 65.75,
          "duration": 0.5,
          "velocity": 100
        },
        {
          "pitch": 73,
          "onset": 66.25,
          "duration": 1.25,
          "velocity": 100
        },
        {
          "pitch": 81,
          "onset": 66.25,
          "duration": 1.25,
          "velocity": 100
        },
        {
          "pitch": 62,
          "onset": 67.75,
          "duration": 0.25,
          "velocity": 100
        },
        {
          "pitch": 62,
          "onset": 68.0,
          "duration": 0.75,
          "velocity": 100
        },
        {
          "pitch": 64,
          "onset": 68.75,
          "duration": 0.25,
          "velocity": 100
        },
        {
          "pitch": 65,
          "onset": 69.0,
          "duration": 0.25,
          "velocity": 100
        },
        {
          "pitch": 67,
          "onset": 69.25,
          "duration": 0.25,
          "velocity": 100
        },
        {
          "pitch": 69,
          "onset": 69.5,
          "duration": 0.25,
          "velocity": 100
        },
        {
          "pitch": 70,
          "onset": 69.75,
          "duration": 0.25,
          "velocity": 100
        },
        {
          "pitch": 61,
          "onset": 70.0,
          "duration": 0.25,
          "velocity": 100
        },
        {
          "pitch": 70,
          "onset": 70.25,
          "duration": 0.25,
          "velocity": 100
        },
        {
          "pitch": 69,
          "onset": 70.5,
          "duration": 0.25,
          "velocity": 100
        },
        {
          "pitch": 67,
          "onset": 70.75,
          "duration": 0.25,
          "velocity": 100
        },
        {
          "pitch": 76,
          "onset": 71.0,
          "duration": 0.75,
          "velocity": 100
        },
        {
          "pitch": 67,
          "onset": 71.75,
          "duration": 0.25,
          "velocity": 100
        },
        {
          "pitch": 65,
          "onset": 72.0,
          "duration": 0.25,
          "velocity": 100
        },
        {
          "pitch": 61,
          "onset": 72.25,
          "duration": 0.25,
          "velocity": 100
        },
        {
          "pitch": 62,
          "onset": 72.5,
          "duration": 0.25,
          "velocity": 100
        },
        {
          "pitch": 57,
          "onset": 72.75,
          "duration": 0.25,
          "velocity": 100
        },
        {
          "pitch": 58,
          "onset": 73.0,
          "duration": 0.25,
          "velocity": 100
        },
        {
          "pitch": 62,
          "onset": 73.25,
          "duration": 0.25,
          "velocity": 100
        },
        {
          "pitch": 65,
          "onset": 73.5,
          "duration": 0.25,
          "velocity": 100
        },
        {
          "pitch": 67,
          "onset": 73.75,
          "duration": 0.25,
          "velocity": 100
        },
        {
          "pitch": 61,
          "onset": 74.0,
          "duration": 0.25,
          "velocity": 100
        },
        {
          "pitch": 57,
          "onset": 74.25,
          "duration": 0.25,
          "velocity": 100
        },
        {
          "pitch": 61,
          "onset": 74.5,
          "duration": 0.25,
          "velocity": 100
        },
        {
          "pitch": 64,
          "onset": 74.75,
          "duration": 0.25,
          "velocity": 100
        },
        {
          "pitch": 69,
          "onset": 75.0,
          "duration": 0.1562,
          "velocity": 100
        },
        {
          "pitch": 67,
          "onset": 75.1562,
          "duration": 0.1562,
          "velocity": 100
        },
        {
          "pitch": 65,
          "onset": 75.3438,
          "duration": 0.1562,
          "velocity": 100
        },
        {
          "pitch": 67,
          "onset": 75.5,
          "duration": 0.1562,
          "velocity": 100
        },
        {
          "pitch": 65,
          "onset": 75.6562,
          "duration": 0.1562,
          "velocity": 100
        },
        {
          "pitch": 64,
          "onset": 75.8438,
          "duration": 0.1562,
          "velocity": 100
        },
        {
          "pitch": 65,
          "onset": 76.0,
          "duration": 0.25,
          "velocity": 100
        },
        {
          "pitch": 62,
          "onset": 76.25,
          "duration": 0.25,
          "velocity": 100
        },
        {
          "pitch": 65,
          "onset": 76.5,
          "duration": 0.25,
          "velocity": 100
        },
        {
          "pitch": 69,
          "onset": 76.75,
          "duration": 0.25,
          "velocity": 100
        },
        {
          "pitch": 70,
          "onset": 77.0,
          "duration": 0.1562,
          "velocity": 100
        },
        {
          "pitch": 69,
          "onset": 77.1562,
          "duration": 0.1562,
          "velocity": 100
        },
        {
          "pitch": 67,
          "onset": 77.3438,
          "duration": 0.1562,
          "velocity": 100
        },
        {
          "pitch": 69,
          "onset": 77.5,
          "duration": 0.1562,
          "velocity": 100
        },
        {
          "pitch": 67,
          "onset": 77.6562,
          "duration": 0.1562,
          "velocity": 100
        },
        {
          "pitch": 65,
          "onset": 77.8438,
          "duration": 0.1562,
          "velocity": 100
        },
        {
          "pitch": 64,
          "onset": 78.0,
          "duration": 0.25,
          "velocity": 100
        },
        {
          "pitch": 67,
          "onset": 78.25,
          "duration": 0.25,
          "velocity": 100
        },
        {
          "pitch": 70,
          "onset": 78.5,
          "duration": 0.25,
          "velocity": 100
        },
        {
          "pitch": 74,
          "onset": 78.75,
          "duration": 0.25,
          "velocity": 100
        },
        {
          "pitch": 72,
          "onset": 79.0,
          "duration": 0.1562,
          "velocity": 100
        },
        {
          "pitch": 70,
          "onset": 79.1562,
          "duration": 0.1562,
          "velocity": 100
        },
        {
          "pitch": 69,
          "onset": 79.3438,
          "duration": 0.1562,
          "velocity": 100
        },
        {
          "pitch": 70,
          "onset": 79.5,
          "duration": 0.1562,
          "velocity": 100
        },
        {
          "pitch": 69,
          "onset": 79.6562,
          "duration": 0.1562,
          "velocity": 100
        },
        {
          "pitch": 67,
          "onset": 79.8438,
          "duration": 0.1562,
          "velocity": 100
        },
        {
          "pitch": 69,
          "onset": 80.0,
          "duration": 0.25,
          "velocity": 100
        },
        {
          "pitch": 65,
          "onset": 80.25,
          "duration": 0.25,
          "velocity": 100
        },
        {
          "pitch": 69,
          "onset": 80.5,
          "duration": 0.25,
          "velocity": 100
        },
        {
          "pitch": 72,
          "onset": 80.75,
          "duration": 0.25,
          "velocity": 100
        },
        {
          "pitch": 77,
          "onset": 81.0,
          "duration": 0.25,
          "velocity": 100
        },
        {
          "pitch": 79,
          "onset": 81.25,
          "duration": 0.25,
          "velocity": 100
        },
        {
          "pitch": 81,
          "onset": 81.5,
          "duration": 0.25,
          "velocity": 100
        },
        {
          "pitch": 72,
          "onset": 81.75,
          "duration": 0.25,
          "velocity": 100
        },
        {
          "pitch": 74,
          "onset": 82.0,
          "duration": 0.25,
          "velocity": 100
        },
        {
          "pitch": 69,
          "onset": 82.25,
          "duration": 0.25,
          "velocity": 100
        },
        {
          "pitch": 70,
          "onset": 82.5,
          "duration": 0.25,
          "velocity": 100
        },
        {
          "pitch": 74,
          "onset": 82.75,
          "duration": 0.25,
          "velocity": 100
        },
        {
          "pitch": 79,
          "onset": 83.0,
          "duration": 0.25,
          "velocity": 100
        },
        {
          "pitch": 81,
          "onset": 83.25,
          "duration": 0.25,
          "velocity": 100
        },
        {
          "pitch": 82,
          "onset": 83.5,
          "duration": 0.25,
          "velocity": 100
        },
        {
          "pitch": 74,
          "onset": 83.75,
          "duration": 0.25,
          "velocity": 100
        },
        {
          "pitch": 76,
          "onset": 84.0,
          "duration": 0.25,
          "velocity": 100
        },
        {
          "pitch": 70,
          "onset": 84.25,
          "duration": 0.25,
          "velocity": 100
        },
        {
          "pitch": 72,
          "onset": 84.5,
          "duration": 0.25,
          "velocity": 100
        },
        {
          "pitch": 67,
          "onset": 84.75,
          "duration": 0.25,
          "velocity": 100
        },
        {
          "pitch": 69,
          "onset": 85.0,
          "duration": 0.25,
          "velocity": 100
        },
        {
          "pitch": 70,
          "onset": 85.25,
          "duration": 0.25,
          "velocity": 100
        },
        {
          "pitch": 72,
          "onset": 85.5,
          "duration": 0.25,
          "velocity": 100
        },
        {
          "pitch": 64,
          "onset": 85.75,
          "duration": 0.25,
          "velocity": 100
        },
        {
          "pitch": 65,
          "onset": 86.0,
          "duration": 0.25,
          "velocity": 100
        },
        {
          "pitch": 57,
          "onset": 86.25,
          "duration": 0.25,
          "velocity": 100
        },
        {
          "pitch": 58,
          "onset": 86.5,
          "duration": 0.25,
          "velocity": 100
        },
        {
          "pitch": 67,
          "onset": 86.75,
          "duration": 0.25,
          "velocity": 100
        },
        {
          "pitch": 60,
          "onset": 87.0,
          "duration": 0.25,
          "velocity": 100
        },
        {
          "pitch": 64,
          "onset": 87.25,
          "duration": 0.25,
          "velocity": 100
        },
        {
          "pitch": 67,
          "onset": 87.5,
          "duration": 0.25,
          "velocity": 100
        },
        {
          "pitch": 70,
          "onset": 87.75,
          "duration": 0.25,
          "velocity": 100
        },
        {
          "pitch": 69,
          "onset": 88.0,
          "duration": 0.25,
          "velocity": 100
        },
        {
          "pitch": 67,
          "onset": 88.25,
          "duration": 0.25,
          "velocity": 100
        },
        {
          "pitch": 65,
          "onset": 88.5,
          "duration": 0.25,
          "velocity": 100
        },
        {
          "pitch": 69,
          "onset": 88.75,
          "duration": 0.25,
          "velocity": 100
        },
        {
          "pitch": 74,
          "onset": 89.0,
          "duration": 0.25,
          "velocity": 100
        },
        {
          "pitch": 65,
          "onset": 89.25,
          "duration": 0.25,
          "velocity": 100
        },
        {
          "pitch": 64,
          "onset": 89.5,
          "duration": 0.25,
          "velocity": 100
        },
        {
          "pitch": 62,
          "onset": 89.75,
          "duration": 0.25,
          "velocity": 100
        },
        {
          "pitch": 61,
          "onset": 90.0,
          "duration": 0.25,
          "velocity": 100
        },
        {
          "pitch": 76,
          "onset": 90.25,
          "duration": 0.25,
          "velocity": 100
        },
        {
          "pitch": 77,
          "onset": 90.5,
          "duration": 0.25,
          "velocity": 100
        },
        {
          "pitch": 79,
          "onset": 90.75,
          "duration": 0.25,
          "velocity": 100
        },
        {
          "pitch": 69,
          "onset": 91.0,
          "duration": 0.25,
          "velocity": 100
        },
        {
          "pitch": 79,
          "onset": 91.25,
          "duration": 0.25,
          "velocity": 100
        },
        {
          "pitch": 77,
          "onset": 91.5,
          "duration": 0.25,
          "velocity": 100
        },
        {
          "pitch": 76,
          "onset": 91.75,
          "duration": 0.25,
          "velocity": 100
        },
        {
          "pitch": 77,
          "onset": 92.0,
          "duration": 0.25,
          "velocity": 100
        },
        {
          "pitch": 76,
          "onset": 92.25,
          "duration": 0.25,
          "velocity": 100
        },
        {
          "pitch": 74,
          "onset": 92.5,
          "duration": 0.25,
          "velocity": 100
        },
        {
          "pitch": 64,
          "onset": 92.75,
          "duration": 0.25,
          "velocity": 110
        },
        {
          "pitch": 62,
          "onset": 93.0,
          "duration": 0.25,
          "velocity": 110
        },
        {
          "pitch": 60,
          "onset": 93.25,
          "duration": 0.25,
          "velocity": 110
        },
        {
          "pitch": 59,
          "onset": 93.5,
          "duration": 0.25,
          "velocity": 110
        },
        {
          "pitch": 57,
          "onset": 93.75,
          "duration": 0.25,
          "velocity": 110
        },
        {
          "pitch": 56,
          "onset": 94.0,
          "duration": 0.25,
          "velocity": 110
        },
        {
          "pitch": 71,
          "onset": 94.25,
          "duration": 0.25,
          "velocity": 100
        },
        {
          "pitch": 72,
          "onset": 94.5,
          "duration": 0.25,
          "velocity": 100
        },
        {
          "pitch": 74,
          "onset": 94.75,
          "duration": 0.25,
          "velocity": 100
        },
        {
          "pitch": 64,
          "onset": 95.0,
          "duration": 0.25,
          "velocity": 100
        },
        {
          "pitch": 74,
          "onset": 95.25,
          "duration": 0.25,
          "velocity": 100
        },
        {
          "pitch": 72,
          "onset": 95.5,
          "duration": 0.25,
          "velocity": 100
        },
        {
          "pitch": 71,
          "onset": 95.75,
          "duration": 0.25,
          "velocity": 100
        },
        {
          "pitch": 72,
          "onset": 96.0,
          "duration": 0.25,
          "velocity": 100
        },
        {
          "pitch": 71,
          "onset": 96.25,
          "duration": 0.25,
          "velocity": 100
        },
        {
          "pitch": 69,
          "onset": 96.5,
          "duration": 0.25,
          "velocity": 100
        },
        {
          "pitch": 71,
          "onset": 96.75,
          "duration": 0.25,
          "velocity": 100
        },
        {
          "pitch": 72,
          "onset": 97.0,
          "duration": 0.25,
          "velocity": 100
        },
        {
          "pitch": 77,
          "onset": 97.25,
          "duration": 0.125,
          "velocity": 100
        },
        {
          "pitch": 76,
          "onset": 97.375,
          "duration": 0.125,
          "velocity": 100
        },
        {
          "pitch": 74,
          "onset": 97.5,
          "duration": 0.25,
          "velocity": 100
        },
        {
          "pitch": 72,
          "onset": 97.75,
          "duration": 0.25,
          "velocity": 100
        },
        {
          "pitch": 71,
          "onset": 98.0,
          "duration": 0.25,
          "velocity": 100
        },
        {
          "pitch": 69,
          "onset": 98.25,
          "duration": 0.25,
          "velocity": 100
        },
        {
          "pitch": 67,
          "onset": 98.5,
          "duration": 0.25,
          "velocity": 100
        },
        {
          "pitch": 69,
          "onset": 98.75,
          "duration": 0.25,
          "velocity": 100
        },
        {
          "pitch": 71,
          "onset": 99.0,
          "duration": 0.25,
          "velocity": 100
        },
        {
          "pitch": 76,
          "onset": 99.25,
          "duration": 0.125,
          "velocity": 100
        },
        {
          "pitch": 74,
          "onset": 99.375,
          "duration": 0.125,
          "velocity": 100
        },
        {
          "pitch": 72,
          "onset": 99.5,
          "duration": 0.25,
          "velocity": 100
        },
        {
          "pitch": 71,
          "onset": 99.75,
          "duration": 0.25,
          "velocity": 100
        },
        {
          "pitch": 69,
          "onset": 100.0,
          "duration": 0.25,
          "velocity": 100
        },
        {
          "pitch": 67,
          "onset": 100.25,
          "duration": 0.25,
          "velocity": 100
        },
        {
          "pitch": 65,
          "onset": 100.5,
          "duration": 0.25,
          "velocity": 100
        },
        {
          "pitch": 67,
          "onset": 100.75,
          "duration": 0.125,
          "velocity": 100
        },
        {
          "pitch": 69,
          "onset": 100.875,
          "duration": 0.125,
          "velocity": 100
        },
        {
          "pitch": 62,
          "onset": 101.0,
          "duration": 0.25,
          "velocity": 100
        },
        {
          "pitch": 72,
          "onset": 101.25,
          "duration": 0.25,
          "velocity": 100
        },
        {
          "pitch": 71,
          "onset": 101.5,
          "duration": 0.25,
          "velocity": 100
        },
        {
          "pitch": 69,
          "onset": 101.75,
          "duration": 0.25,
          "velocity": 100
        },
        {
          "pitch": 68,
          "onset": 102.0,
          "duration": 0.25,
          "velocity": 85
        },
        {
          "pitch": 66,
          "onset": 102.25,
          "duration": 0.25,
          "velocity": 85
        },
        {
          "pitch": 64,
          "onset": 102.5,
          "duration": 0.25,
          "velocity": 85
        },
        {
          "pitch": 66,
          "onset": 102.75,
          "duration": 0.25,
          "velocity": 85
        },
        {
          "pitch": 68,
          "onset": 103.0,
          "duration": 0.25,
          "velocity": 85
        },
        {
          "pitch": 69,
          "onset": 103.25,
          "duration": 0.25,
          "velocity": 85
        },
        {
          "pitch": 71,
          "onset": 103.5,
          "duration": 0.25,
          "velocity": 85
        },
        {
          "pitch": 72,
          "onset": 103.75,
          "duration": 0.25,
          "velocity": 85
        },
        {
          "pitch": 74,
          "onset": 104.0,
          "duration": 0.25,
          "velocity": 85
        },
        {
          "pitch": 76,
          "onset": 104.25,
          "duration": 0.25,
          "velocity": 85
        },
        {
          "pitch": 77,
          "onset": 104.5,
          "duration": 0.25,
          "velocity": 85
        },
        {
          "pitch": 76,
          "onset": 104.75,
          "duration": 0.25,
          "velocity": 85
        },
        {
          "pitch": 74,
          "onset": 105.0,
          "duration": 0.25,
          "velocity": 85
        },
        {
          "pitch": 72,
          "onset": 105.25,
          "duration": 0.25,
          "velocity": 85
        },
        {
          "pitch": 71,
          "onset": 105.5,
          "duration": 0.25,
          "velocity": 85
        },
        {
          "pitch": 69,
          "onset": 105.75,
          "duration": 0.25,
          "velocity": 85
        },
        {
          "pitch": 80,
          "onset": 106.0,
          "duration": 0.25,
          "velocity": 100
        },
        {
          "pitch": 81,
          "onset": 106.25,
          "duration": 0.25,
          "velocity": 100
        },
        {
          "pitch": 83,
          "onset": 106.5,
          "duration": 0.25,
          "velocity": 100
        },
        {
          "pitch": 81,
          "onset": 106.75,
          "duration": 0.25,
          "velocity": 100
        },
        {
          "pitch": 80,
          "onset": 107.0,
          "duration": 0.25,
          "velocity": 100
        },
        {
          "pitch": 78,
          "onset": 107.25,
          "duration": 0.25,
          "velocity": 100
        },
        {
          "pitch": 76,
          "onset": 107.5,
          "duration": 0.25,
          "velocity": 100
        },
        {
          "pitch": 74,
          "onset": 107.75,
          "duration": 0.25,
          "velocity": 100
        },
        {
          "pitch": 72,
          "onset": 108.0,
          "duration": 0.25,
          "velocity": 121
        },
        {
          "pitch": 74,
          "onset": 108.25,
          "duration": 0.125,
          "velocity": 100
        },
        {
          "pitch": 76,
          "onset": 108.375,
          "duration": 0.125,
          "velocity": 100
        },
        {
          "pitch": 77,
          "onset": 108.5,
          "duration": 0.25,
          "velocity": 100
        },
        {
          "pitch": 81,
          "onset": 108.75,
          "duration": 0.25,
          "velocity": 100
        },
        {
          "pitch": 71,
          "onset": 109.0,
          "duration": 0.25,
          "velocity": 120
        },
        {
          "pitch": 72,
          "onset": 109.25,
          "duration": 0.125,
          "velocity": 100
        },
        {
          "pitch": 74,
          "onset": 109.375,
          "duration": 0.125,
          "velocity": 100
        },
        {
          "pitch": 76,
          "onset": 109.5,
          "duration": 0.25,
          "velocity": 100
        },
        {
          "pitch": 79,
          "onset": 109.75,
          "duration": 0.25,
          "velocity": 100
        },
        {
          "pitch": 69,
          "onset": 110.0,
          "duration": 0.25,
          "velocity": 121
        },
        {
          "pitch": 71,
          "onset": 110.25,
          "duration": 0.125,
          "velocity": 100
        },
        {
          "pitch": 72,
          "onset": 110.375,
          "duration": 0.125,
          "velocity": 100
        },
        {
          "pitch": 74,
          "onset": 110.5,
          "duration": 0.25,
          "velocity": 100
        },
        {
          "pitch": 77,
          "onset": 110.75,
          "duration": 0.25,
          "velocity": 100
        },
        {
          "pitch": 67,
          "onset": 111.0,
          "duration": 0.25,
          "velocity": 120
        },
        {
          "pitch": 69,
          "onset": 111.25,
          "duration": 0.125,
          "velocity": 100
        },
        {
          "pitch": 71,
          "onset": 111.375,
          "duration": 0.125,
          "velocity": 100
        },
        {
          "pitch": 72,
          "onset": 111.5,
          "duration": 0.25,
          "velocity": 100
        },
        {
          "pitch": 76,
          "onset": 111.75,
          "duration": 0.25,
          "velocity": 100
        },
        {
          "pitch": 65,
          "onset": 112.0,
          "duration": 0.25,
          "velocity": 123
        },
        {
          "pitch": 67,
          "onset": 112.25,
          "duration": 0.125,
          "velocity": 100
        },
        {
          "pitch": 69,
          "onset": 112.375,
          "duration": 0.125,
          "velocity": 100
        },
        {
          "pitch": 71,
          "onset": 112.5,
          "duration": 0.25,
          "velocity": 100
        },
        {
          "pitch": 74,
          "onset": 112.75,
          "duration": 0.25,
          "velocity": 100
        },
        {
          "pitch": 64,
          "onset": 113.0,
          "duration": 0.25,
          "velocity": 121
        },
        {
          "pitch": 66,
          "onset": 113.25,
          "duration": 0.125,
          "velocity": 100
        },
        {
          "pitch": 68,
          "onset": 113.375,
          "duration": 0.125,
          "velocity": 100
        },
        {
          "pitch": 69,
          "onset": 113.5,
          "duration": 0.25,
          "velocity": 100
        },
        {
          "pitch": 72,
          "onset": 113.75,
          "duration": 0.25,
          "velocity": 100
        },
        {
          "pitch": 62,
          "onset": 114.0,
          "duration": 0.25,
          "velocity": 100
        },
        {
          "pitch": 61,
          "onset": 114.25,
          "duration": 0.25,
          "velocity": 100
        },
        {
          "pitch": 62,
          "onset": 114.5,
          "duration": 0.25,
          "velocity": 100
        },
        {
          "pitch": 65,
          "onset": 114.75,
          "duration": 0.25,
          "velocity": 100
        },
        {
          "pitch": 70,
          "onset": 115.0,
          "duration": 0.25,
          "velocity": 100
        },
        {
          "pitch": 72,
          "onset": 115.25,
          "duration": 0.25,
          "velocity": 100
        },
        {
          "pitch": 74,
          "onset": 115.5,
          "duration": 0.25,
          "velocity": 100
        },
        {
          "pitch": 70,
          "onset": 115.75,
          "duration": 0.25,
          "velocity": 100
        },
        {
          "pitch": 65,
          "onset": 116.0,
          "duration": 0.25,
          "velocity": 100
        },
        {
          "pitch": 64,
          "onset": 116.25,
          "duration": 0.25,
          "velocity": 100
        },
        {
          "pitch": 65,
          "onset": 116.5,
          "duration": 0.25,
          "velocity": 100
        },
        {
          "pitch": 70,
          "onset": 116.75,
          "duration": 0.25,
          "velocity": 100
        },
        {
          "pitch": 74,
          "onset": 117.0,
          "duration": 0.25,
          "velocity": 100
        },
        {
          "pitch": 76,
          "onset": 117.25,
          "duration": 0.25,
          "velocity": 100
        },
        {
          "pitch": 77,
          "onset": 117.5,
          "duration": 0.25,
          "velocity": 100
        },
        {
          "pitch": 74,
          "onset": 117.75,
          "duration": 0.25,
          "velocity": 100
        },
        {
          "pitch": 70,
          "onset": 118.0,
          "duration": 0.25,
          "velocity": 100
        },
        {
          "pitch": 69,
          "onset": 118.25,
          "duration": 0.25,
          "velocity": 102
        },
        {
          "pitch": 70,
          "onset": 118.5,
          "duration": 0.25,
          "velocity": 105
        },
        {
          "pitch": 74,
          "onset": 118.75,
          "duration": 0.25,
          "velocity": 108
        },
        {
          "pitch": 77,
          "onset": 119.0,
          "duration": 0.25,
          "velocity": 111
        },
        {
          "pitch": 79,
          "onset": 119.25,
          "duration": 0.125,
          "velocity": 114
        },
        {
          "pitch": 81,
          "onset": 119.375,
          "duration": 0.125,
          "velocity": 115
        },
        {
          "pitch": 82,
          "onset": 119.5,
          "duration": 0.25,
          "velocity": 117
        },
        {
          "pitch": 81,
          "onset": 119.75,
          "duration": 0.25,
          "velocity": 119
        },
        {
          "pitch": 80,
          "onset": 120.0,
          "duration": 0.25,
          "velocity": 120
        },
        {
          "pitch": 83,
          "onset": 120.25,
          "duration": 0.125,
          "velocity": 120
        },
        {
          "pitch": 81,
          "onset": 120.375,
          "duration": 0.125,
          "velocity": 120
        },
        {
          "pitch": 80,
          "onset": 120.5,
          "duration": 0.25,
          "velocity": 120
        },
        {
          "pitch": 77,
          "onset": 120.75,
          "duration": 0.125,
          "velocity": 120
        },
        {
          "pitch": 76,
          "onset": 120.875,
          "duration": 0.125,
          "velocity": 120
        },
        {
          "pitch": 74,
          "onset": 121.0,
          "duration": 0.25,
          "velocity": 120
        },
        {
          "pitch": 77,
          "onset": 121.25,
          "duration": 0.125,
          "velocity": 120
        },
        {
          "pitch": 76,
          "onset": 121.375,
          "duration": 0.125,
          "velocity": 120
        },
        {
          "pitch": 74,
          "onset": 121.5,
          "duration": 0.25,
          "velocity": 120
        },
        {
          "pitch": 71,
          "onset": 121.75,
          "duration": 0.125,
          "velocity": 120
        },
        {
          "pitch": 69,
          "onset": 121.875,
          "duration": 0.125,
          "velocity": 120
        },
        {
          "pitch": 68,
          "onset": 122.0,
          "duration": 0.25,
          "velocity": 120
        },
        {
          "pitch": 71,
          "onset": 122.25,
          "duration": 0.25,
          "velocity": 120
        },
        {
          "pitch": 76,
          "onset": 122.5,
          "duration": 0.25,
          "velocity": 120
        },
        {
          "pitch": 80,
          "onset": 122.75,
          "duration": 0.25,
          "velocity": 120
        },
        {
          "pitch": 83,
          "onset": 123.0,
          "duration": 0.25,
          "velocity": 120
        },
        {
          "pitch": 76,
          "onset": 123.25,
          "duration": 0.25,
          "velocity": 120
        },
        {
          "pitch": 86,
          "onset": 123.5,
          "duration": 0.25,
          "velocity": 120
        },
        {
          "pitch": 84,
          "onset": 123.75,
          "duration": 0.125,
          "velocity": 120
        },
        {
          "pitch": 83,
          "onset": 123.875,
          "duration": 0.125,
          "velocity": 120
        },
        {
          "pitch": 84,
          "onset": 124.0,
          "duration": 0.25,
          "velocity": 120
        },
        {
          "pitch": 83,
          "onset": 124.25,
          "duration": 0.125,
          "velocity": 120
        },
        {
          "pitch": 81,
          "onset": 124.375,
          "duration": 0.125,
          "velocity": 120
        },
        {
          "pitch": 80,
          "onset": 124.5,
          "duration": 0.25,
          "velocity": 120
        },
        {
          "pitch": 81,
          "onset": 124.75,
          "duration": 0.25,
          "velocity": 120
        },
        {
          "pitch": 72,
          "onset": 125.0,
          "duration": 0.1562,
          "velocity": 100
        },
        {
          "pitch": 74,
          "onset": 125.1562,
          "duration": 0.1562,
          "velocity": 100
        },
        {
          "pitch": 76,
          "onset": 125.3438,
          "duration": 0.1562,
          "velocity": 100
        },
        {
          "pitch": 74,
          "onset": 125.5,
          "duration": 0.1562,
          "velocity": 100
        },
        {
          "pitch": 72,
          "onset": 125.6562,
          "duration": 0.1562,
          "velocity": 100
        },
        {
          "pitch": 71,
          "onset": 125.8438,
          "duration": 0.1562,
          "velocity": 100
        },
        {
          "pitch": 69,
          "onset": 126.0,
          "duration": 0.75,
          "velocity": 100
        },
        {
          "pitch": 71,
          "onset": 126.75,
          "duration": 0.25,
          "velocity": 100
        },
        {
          "pitch": 73,
          "onset": 127.0,
          "duration": 0.25,
          "velocity": 100
        },
        {
          "pitch": 74,
          "onset": 127.25,
          "duration": 0.25,
          "velocity": 100
        },
        {
          "pitch": 76,
          "onset": 127.5,
          "duration": 0.25,
          "velocity": 100
        },
        {
          "pitch": 67,
          "onset": 127.75,
          "duration": 0.25,
          "velocity": 100
        },
        {
          "pitch": 65,
          "onset": 128.0,
          "duration": 0.25,
          "velocity": 100
        },
        {
          "pitch": 62,
          "onset": 128.25,
          "duration": 0.25,
          "velocity": 100
        },
        {
          "pitch": 65,
          "onset": 128.5,
          "duration": 0.25,
          "velocity": 100
        },
        {
          "pitch": 69,
          "onset": 128.75,
          "duration": 0.25,
          "velocity": 100
        },
        {
          "pitch": 74,
          "onset": 129.0,
          "duration": 0.25,
          "velocity": 100
        },
        {
          "pitch": 77,
          "onset": 129.25,
          "duration": 0.25,
          "velocity": 100
        },
        {
          "pitch": 80,
          "onset": 129.5,
          "duration": 0.25,
          "velocity": 100
        },
        {
          "pitch": 62,
          "onset": 129.75,
          "duration": 0.5,
          "velocity": 100
        },
        {
          "pitch": 73,
          "onset": 130.25,
          "duration": 1.25,
          "velocity": 100
        },
        {
          "pitch": 81,
          "onset": 130.25,
          "duration": 1.25,
          "velocity": 100
        },
        {
          "pitch": 76,
          "onset": 131.75,
          "duration": 0.25,
          "velocity": 100
        },
        {
          "pitch": 76,
          "onset": 132.0,
          "duration": 0.75,
          "velocity": 100
        },
        {
          "pitch": 77,
          "onset": 132.75,
          "duration": 0.25,
          "velocity": 100
        },
        {
          "pitch": 76,
          "onset": 133.0,
          "duration": 0.25,
          "velocity": 100
        },
        {
          "pitch": 74,
          "onset": 133.25,
          "duration": 0.25,
          "velocity": 100
        },
        {
          "pitch": 73,
          "onset": 133.5,
          "duration": 0.25,
          "velocity": 100
        },
        {
          "pitch": 71,
          "onset": 133.75,
          "duration": 0.25,
          "velocity": 100
        },
        {
          "pitch": 69,
          "onset": 134.0,
          "duration": 0.25,
          "velocity": 100
        },
        {
          "pitch": 67,
          "onset": 134.25,
          "duration": 0.125,
          "velocity": 100
        },
        {
          "pitch": 69,
          "onset": 134.375,
          "duration": 0.125,
          "velocity": 100
        },
        {
          "pitch": 70,
          "onset": 134.5,
          "duration": 0.25,
          "velocity": 100
        },
        {
          "pitch": 69,
          "onset": 134.75,
          "duration": 0.25,
          "velocity": 100
        },
        {
          "pitch": 67,
          "onset": 135.0,
          "duration": 0.25,
          "velocity": 100
        },
        {
          "pitch": 65,
          "onset": 135.25,
          "duration": 0.25,
          "velocity": 100
        },
        {
          "pitch": 64,
          "onset": 135.5,
          "duration": 0.25,
          "velocity": 100
        },
        {
          "pitch": 65,
          "onset": 135.75,
          "duration": 0.25,
          "velocity": 100
        },
        {
          "pitch": 67,
          "onset": 136.0,
          "duration": 0.25,
          "velocity": 100
        },
        {
          "pitch": 65,
          "onset": 136.25,
          "duration": 0.25,
          "velocity": 100
        },
        {
          "pitch": 64,
          "onset": 136.5,
          "duration": 0.25,
          "velocity": 100
        },
        {
          "pitch": 62,
          "onset": 136.75,
          "duration": 0.25,
          "velocity": 100
        },
        {
          "pitch": 77,
          "onset": 137.0,
          "duration": 0.25,
          "velocity": 80
        },
        {
          "pitch": 69,
          "onset": 137.25,
          "duration": 0.25,
          "velocity": 80
        },
        {
          "pitch": 70,
          "onset": 137.5,
          "duration": 0.25,
          "velocity": 80
        },
        {
          "pitch": 62,
          "onset": 137.75,
          "duration": 0.25,
          "velocity": 80
        },
        {
          "pitch": 60,
          "onset": 138.0,
          "duration": 0.25,
          "velocity": 80
        },
        {
          "pitch": 67,
          "onset": 138.25,
          "duration": 0.25,
          "velocity": 80
        },
        {
          "pitch": 70,
          "onset": 138.5,
          "duration": 0.25,
          "velocity": 80
        },
        {
          "pitch": 75,
          "onset": 138.75,
          "duration": 0.25,
          "velocity": 80
        },
        {
          "pitch": 69,
          "onset": 139.0,
          "duration": 0.25,
          "velocity": 80
        },
        {
          "pitch": 72,
          "onset": 139.25,
          "duration": 0.25,
          "velocity": 80
        },
        {
          "pitch": 77,
          "onset": 139.5,
          "duration": 0.25,
          "velocity": 80
        },
        {
          "pitch": 75,
          "onset": 139.75,
          "duration": 0.25,
          "velocity": 80
        },
        {
          "pitch": 74,
          "onset": 140.0,
          "duration": 0.25,
          "velocity": 80
        },
        {
          "pitch": 69,
          "onset": 140.25,
          "duration": 0.25,
          "velocity": 80
        },
        {
          "pitch": 70,
          "onset": 140.5,
          "duration": 0.25,
          "velocity": 80
        },
        {
          "pitch": 74,
          "onset": 140.75,
          "duration": 0.25,
          "velocity": 80
        },
        {
          "pitch": 63,
          "onset": 141.0,
          "duration": 0.25,
          "velocity": 80
        },
        {
          "pitch": 67,
          "onset": 141.25,
          "duration": 0.25,
          "velocity": 82
        },
        {
          "pitch": 69,
          "onset": 141.5,
          "duration": 0.25,
          "velocity": 85
        },
        {
          "pitch": 70,
          "onset": 141.75,
          "duration": 0.25,
          "velocity": 88
        },
        {
          "pitch": 72,
          "onset": 142.0,
          "duration": 0.25,
          "velocity": 91
        },
        {
          "pitch": 74,
          "onset": 142.25,
          "duration": 0.25,
          "velocity": 94
        },
        {
          "pitch": 75,
          "onset": 142.5,
          "duration": 0.25,
          "velocity": 97
        },
        {
          "pitch": 72,
          "onset": 142.75,
          "duration": 0.25,
          "velocity": 99
        },
        {
          "pitch": 81,
          "onset": 143.0,
          "duration": 0.1562,
          "velocity": 100
        },
        {
          "pitch": 79,
          "onset": 143.1562,
          "duration": 0.1562,
          "velocity": 100
        },
        {
          "pitch": 78,
          "onset": 143.3438,
          "duration": 0.1562,
          "velocity": 100
        },
        {
          "pitch": 79,
          "onset": 143.5,
          "duration": 0.1562,
          "velocity": 100
        },
        {
          "pitch": 78,
          "onset": 143.6562,
          "duration": 0.1562,
          "velocity": 100
        },
        {
          "pitch": 76,
          "onset": 143.8438,
          "duration": 0.1562,
          "velocity": 100
        },
        {
          "pitch": 78,
          "onset": 144.0,
          "duration": 0.25,
          "velocity": 100
        },
        {
          "pitch": 72,
          "onset": 144.25,
          "duration": 0.125,
          "velocity": 100
        },
        {
          "pitch": 74,
          "onset": 144.375,
          "duration": 0.125,
          "velocity": 100
        },
        {
          "pitch": 75,
          "onset": 144.5,
          "duration": 0.25,
          "velocity": 100
        },
        {
          "pitch": 74,
          "onset": 144.75,
          "duration": 0.25,
          "velocity": 100
        },
        {
          "pitch": 72,
          "onset": 145.0,
          "duration": 0.25,
          "velocity": 100
        },
        {
          "pitch": 70,
          "onset": 145.25,
          "duration": 0.125,
          "velocity": 100
        },
        {
          "pitch": 69,
          "onset": 145.375,
          "duration": 0.125,
          "velocity": 100
        },
        {
          "pitch": 74,
          "onset": 145.5,
          "duration": 0.25,
          "velocity": 100
        },
        {
          "pitch": 72,
          "onset": 145.75,
          "duration": 0.25,
          "velocity": 100
        },
        {
          "pitch": 70,
          "onset": 146.0,
          "duration": 0.25,
          "velocity": 123
        },
        {
          "pitch": 72,
          "onset": 146.25,
          "duration": 0.125,
          "velocity": 100
        },
        {
          "pitch": 74,
          "onset": 146.375,
          "duration": 0.125,
          "velocity": 100
        },
        {
          "pitch": 75,
          "onset": 146.5,
          "duration": 0.25,
          "velocity": 100
        },
        {
          "pitch": 79,
          "onset": 146.75,
          "duration": 0.25,
          "velocity": 100
        },
        {
          "pitch": 69,
          "onset": 147.0,
          "duration": 0.25,
          "velocity": 121
        },
        {
          "pitch": 70,
          "onset": 147.25,
          "duration": 0.125,
          "velocity": 100
        },
        {
          "pitch": 72,
          "onset": 147.375,
          "duration": 0.125,
          "velocity": 100
        },
        {
          "pitch": 74,
          "onset": 147.5,
          "duration": 0.25,
          "velocity": 100
        },
        {
          "pitch": 77,
          "onset": 147.75,
          "duration": 0.25,
          "velocity": 100
        },
        {
          "pitch": 67,
          "onset": 148.0,
          "duration": 0.25,
          "velocity": 122
        },
        {
          "pitch": 69,
          "onset": 148.25,
          "duration": 0.125,
          "velocity": 100
        },
        {
          "pitch": 70,
          "onset": 148.375,
          "duration": 0.125,
          "velocity": 100
        },
        {
          "pitch": 72,
          "onset": 148.5,
          "duration": 0.25,
          "velocity": 100
        },
        {
          "pitch": 75,
          "onset": 148.75,
          "duration": 0.25,
          "velocity": 100
        },
        {
          "pitch": 65,
          "onset": 149.0,
          "duration": 0.25,
          "velocity": 124
        },
        {
          "pitch": 67,
          "onset": 149.25,
          "duration": 0.125,
          "velocity": 100
        },
        {
          "pitch": 69,
          "onset": 149.375,
          "duration": 0.125,
          "velocity": 100
        },
        {
          "pitch": 70,
          "onset": 149.5,
          "duration": 0.25,
          "velocity": 100
        },
        {
          "pitch": 74,
          "onset": 149.75,
          "duration": 0.25,
          "velocity": 100
        },
        {
          "pitch": 63,
          "onset": 150.0,
          "duration": 0.25,
          "velocity": 123
        },
        {
          "pitch": 79,
          "onset": 150.25,
          "duration": 0.125,
          "velocity": 100
        },
        {
          "pitch": 77,
          "onset": 150.375,
          "duration": 0.125,
          "velocity": 100
        },
        {
          "pitch": 75,
          "onset": 150.5,
          "duration": 0.25,
          "velocity": 100
        },
        {
          "pitch": 72,
          "onset": 150.75,
          "duration": 0.125,
          "velocity": 100
        },
        {
          "pitch": 70,
          "onset": 150.875,
          "duration": 0.125,
          "velocity": 100
        },
        {
          "pitch": 69,
          "onset": 151.0,
          "duration": 0.25,
          "velocity": 100
        },
        {
          "pitch": 72,
          "onset": 151.25,
          "duration": 0.125,
          "velocity": 100
        },
        {
          "pitch": 70,
          "onset": 151.375,
          "duration": 0.125,
          "velocity": 100
        },
        {
          "pitch": 69,
          "onset": 151.5,
          "duration": 0.25,
          "velocity": 100
        },
        {
          "pitch": 66,
          "onset": 151.75,
          "duration": 0.125,
          "velocity": 100
        },
        {
          "pitch": 64,
          "onset": 151.875,
          "duration": 0.125,
          "velocity": 100
        },
        {
          "pitch": 62,
          "onset": 152.0,
          "duration": 0.25,
          "velocity": 100
        },
        {
          "pitch": 66,
          "onset": 152.25,
          "duration": 0.25,
          "velocity": 100
        },
        {
          "pitch": 69,
          "onset": 152.5,
          "duration": 0.25,
          "velocity": 100
        },
        {
          "pitch": 72,
          "onset": 152.75,
          "duration": 0.25,
          "velocity": 100
        },
        {
          "pitch": 75,
          "onset": 153.0,
          "duration": 0.1562,
          "velocity": 100
        },
        {
          "pitch": 74,
          "onset": 153.1562,
          "duration": 0.1562,
          "velocity": 100
        },
        {
          "pitch": 72,
          "onset": 153.3438,
          "duration": 0.1562,
          "velocity": 100
        },
        {
          "pitch": 78,
          "onset": 153.5,
          "duration": 0.1562,
          "velocity": 100
        },
        {
          "pitch": 76,
          "onset": 153.6562,
          "duration": 0.1562,
          "velocity": 100
        },
        {
          "pitch": 74,
          "onset": 153.8438,
          "duration": 0.1562,
          "velocity": 100
        },
        {
          "pitch": 82,
          "onset": 154.0,
          "duration": 0.25,
          "velocity": 110
        },
        {
          "pitch": 81,
          "onset": 154.25,
          "duration": 0.125,
          "velocity": 110
        },
        {
          "pitch": 79,
          "onset": 154.375,
          "duration": 0.125,
          "velocity": 110
        },
        {
          "pitch": 78,
          "onset": 154.5,
          "duration": 0.25,
          "velocity": 110
        },
        {
          "pitch": 79,
          "onset": 154.75,
          "duration": 0.25,
          "velocity": 110
        },
        {
          "pitch": 70,
          "onset": 155.0,
          "duration": 0.1562,
          "velocity": 110
        },
        {
          "pitch": 72,
          "onset": 155.1562,
          "duration": 0.1562,
          "velocity": 110
        },
        {
          "pitch": 74,
          "onset": 155.3438,
          "duration": 0.1562,
          "velocity": 110
        },
        {
          "pitch": 72,
          "onset": 155.5,
          "duration": 0.1562,
          "velocity": 110
        },
        {
          "pitch": 70,
          "onset": 155.6562,
          "duration": 0.1562,
          "velocity": 110
        },
        {
          "pitch": 69,
          "onset": 155.8438,
          "duration": 0.1562,
          "velocity": 110
        },
        {
          "pitch": 67,
          "onset": 156.0,
          "duration": 0.75,
          "velocity": 110
        },
        {
          "pitch": 69,
          "onset": 156.75,
          "duration": 0.25,
          "velocity": 100
        },
        {
          "pitch": 70,
          "onset": 157.0,
          "duration": 0.25,
          "velocity": 100
        },
        {
          "pitch": 72,
          "onset": 157.25,
          "duration": 0.25,
          "velocity": 100
        },
        {
          "pitch": 74,
          "onset": 157.5,
          "duration": 0.25,
          "velocity": 100
        },
        {
          "pitch": 65,
          "onset": 157.75,
          "duration": 0.25,
          "velocity": 100
        },
        {
          "pitch": 64,
          "onset": 158.0,
          "duration": 0.25,
          "velocity": 100
        },
        {
          "pitch": 60,
          "onset": 158.25,
          "duration": 0.25,
          "velocity": 100
        },
        {
          "pitch": 64,
          "onset": 158.5,
          "duration": 0.25,
          "velocity": 100
        },
        {
          "pitch": 67,
          "onset": 158.75,
          "duration": 0.25,
          "velocity": 100
        },
        {
          "pitch": 70,
          "onset": 159.0,
          "duration": 0.25,
          "velocity": 100
        },
        {
          "pitch": 76,
          "onset": 159.25,
          "duration": 0.125,
          "velocity": 100
        },
        {
          "pitch": 77,
          "onset": 159.375,
          "duration": 0.125,
          "velocity": 100
        },
        {
          "pitch": 79,
          "onset": 159.5,
          "duration": 0.25,
          "velocity": 100
        },
        {
          "pitch": 70,
          "onset": 159.75,
          "duration": 0.25,
          "velocity": 100
        },
        {
          "pitch": 69,
          "onset": 160.0,
          "duration": 0.25,
          "velocity": 100
        },
        {
          "pitch": 65,
          "onset": 160.25,
          "duration": 0.25,
          "velocity": 100
        },
        {
          "pitch": 69,
          "onset": 160.5,
          "duration": 0.25,
          "velocity": 100
        },
        {
          "pitch": 72,
          "onset": 160.75,
          "duration": 0.25,
          "velocity": 100
        },
        {
          "pitch": 77,
          "onset": 161.0,
          "duration": 0.25,
          "velocity": 100
        },
        {
          "pitch": 69,
          "onset": 161.25,
          "duration": 0.25,
          "velocity": 100
        },
        {
          "pitch": 67,
          "onset": 161.5,
          "duration": 0.25,
          "velocity": 100
        },
        {
          "pitch": 65,
          "onset": 161.75,
          "duration": 0.25,
          "velocity": 100
        },
        {
          "pitch": 60,
          "onset": 162.0,
          "duration": 0.25,
          "velocity": 100
        },
        {
          "pitch": 67,
          "onset": 162.25,
          "duration": 0.25,
          "velocity": 100
        },
        {
          "pitch": 72,
          "onset": 162.5,
          "duration": 0.25,
          "velocity": 100
        },
        {
          "pitch": 74,
          "onset": 162.75,
          "duration": 0.25,
          "velocity": 100
        },
        {
          "pitch": 76,
          "onset": 163.0,
          "duration": 0.25,
          "velocity": 100
        },
        {
          "pitch": 70,
          "onset": 163.25,
          "duration": 0.25,
          "velocity": 100
        },
        {
          "pitch": 69,
          "onset": 163.5,
          "duration": 0.25,
          "velocity": 100
        },
        {
          "pitch": 67,
          "onset": 163.75,
          "duration": 0.25,
          "velocity": 100
        },
        {
          "pitch": 65,
          "onset": 164.0,
          "duration": 0.25,
          "velocity": 100
        },
        {
          "pitch": 62,
          "onset": 164.25,
          "duration": 0.25,
          "velocity": 100
        },
        {
          "pitch": 65,
          "onset": 164.5,
          "duration": 0.25,
          "velocity": 100
        },
        {
          "pitch": 69,
          "onset": 164.75,
          "duration": 0.25,
          "velocity": 100
        },
        {
          "pitch": 74,
          "onset": 165.0,
          "duration": 0.25,
          "velocity": 100
        },
        {
          "pitch": 65,
          "onset": 165.25,
          "duration": 0.25,
          "velocity": 100
        },
        {
          "pitch": 64,
          "onset": 165.5,
          "duration": 0.25,
          "velocity": 100
        },
        {
          "pitch": 62,
          "onset": 165.75,
          "duration": 0.25,
          "velocity": 100
        },
        {
          "pitch": 57,
          "onset": 166.0,
          "duration": 0.25,
          "velocity": 100
        },
        {
          "pitch": 64,
          "onset": 166.25,
          "duration": 0.25,
          "velocity": 100
        },
        {
          "pitch": 69,
          "onset": 166.5,
          "duration": 0.25,
          "velocity": 100
        },
        {
          "pitch": 70,
          "onset": 166.75,
          "duration": 0.25,
          "velocity": 100
        },
        {
          "pitch": 72,
          "onset": 167.0,
          "duration": 0.25,
          "velocity": 100
        },
        {
          "pitch": 67,
          "onset": 167.25,
          "duration": 0.25,
          "velocity": 100
        },
        {
          "pitch": 65,
          "onset": 167.5,
          "duration": 0.25,
          "velocity": 100
        },
        {
          "pitch": 63,
          "onset": 167.75,
          "duration": 0.25,
          "velocity": 100
        },
        {
          "pitch": 62,
          "onset": 168.0,
          "duration": 0.25,
          "velocity": 100
        },
        {
          "pitch": 58,
          "onset": 168.25,
          "duration": 0.25,
          "velocity": 100
        },
        {
          "pitch": 62,
          "onset": 168.5,
          "duration": 0.25,
          "velocity": 100
        },
        {
          "pitch": 65,
          "onset": 168.75,
          "duration": 0.25,
          "velocity": 100
        },
        {
          "pitch": 70,
          "onset": 169.0,
          "duration": 0.25,
          "velocity": 100
        },
        {
          "pitch": 69,
          "onset": 169.25,
          "duration": 0.25,
          "velocity": 100
        },
        {
          "pitch": 67,
          "onset": 169.5,
          "duration": 0.25,
          "velocity": 100
        },
        {
          "pitch": 65,
          "onset": 169.75,
          "duration": 0.25,
          "velocity": 100
        },
        {
          "pitch": 76,
          "onset": 170.0,
          "duration": 0.25,
          "velocity": 115
        },
        {
          "pitch": 77,
          "onset": 170.25,
          "duration": 0.125,
          "velocity": 115
        },
        {
          "pitch": 79,
          "onset": 170.375,
          "duration": 0.125,
          "velocity": 115
        },
        {
          "pitch": 77,
          "onset": 170.5,
          "duration": 0.25,
          "velocity": 115
        },
        {
          "pitch": 76,
          "onset": 170.75,
          "duration": 0.25,
          "velocity": 115
        },
        {
          "pitch": 74,
          "onset": 171.0,
          "duration": 0.25,
          "velocity": 115
        },
        {
          "pitch": 72,
          "onset": 171.25,
          "duration": 0.25,
          "velocity": 115
        },
        {
          "pitch": 70,
          "onset": 171.5,
          "duration": 0.25,
          "velocity": 115
        },
        {
          "pitch": 79,
          "onset": 171.75,
          "duration": 0.25,
          "velocity": 115
        },
        {
          "pitch": 69,
          "onset": 172.0,
          "duration": 0.125,
          "velocity": 120
        },
        {
          "pitch": 67,
          "onset": 172.125,
          "duration": 0.125,
          "velocity": 120
        },
        {
          "pitch": 65,
          "onset": 172.25,
          "duration": 0.125,
          "velocity": 120
        },
        {
          "pitch": 64,
          "onset": 172.375,
          "duration": 0.125,
          "velocity": 120
        },
        {
          "pitch": 65,
          "onset": 172.5,
          "duration": 0.25,
          "velocity": 120
        },
        {
          "pitch": 58,
          "onset": 172.75,
          "duration": 0.25,
          "velocity": 120
        },
        {
          "pitch": 60,
          "onset": 173.0,
          "duration": 0.25,
          "velocity": 115
        },
        {
          "pitch": 64,
          "onset": 173.25,
          "duration": 0.25,
          "velocity": 115
        },
        {
          "pitch": 67,
          "onset": 173.5,
          "duration": 0.25,
          "velocity": 115
        },
        {
          "pitch": 69,
          "onset": 173.75,
          "duration": 0.25,
          "velocity": 115
        },
        {
          "pitch": 70,
          "onset": 174.0,
          "duration": 0.25,
          "velocity": 115
        },
        {
          "pitch": 69,
          "onset": 174.25,
          "duration": 0.25,
          "velocity": 115
        },
        {
          "pitch": 67,
          "onset": 174.5,
          "duration": 0.25,
          "velocity": 115
        },
        {
          "pitch": 65,
          "onset": 174.75,
          "duration": 0.25,
          "velocity": 115
        },
        {
          "pitch": 81,
          "onset": 175.0,
          "duration": 0.25,
          "velocity": 80
        },
        {
          "pitch": 76,
          "onset": 175.25,
          "duration": 0.25,
          "velocity": 80
        },
        {
          "pitch": 77,
          "onset": 175.5,
          "duration": 0.25,
          "velocity": 80
        },
        {
          "pitch": 74,
          "onset": 175.75,
          "duration": 0.25,
          "velocity": 80
        },
        {
          "pitch": 71,
          "onset": 176.0,
          "duration": 0.25,
          "velocity": 80
        },
        {
          "pitch": 74,
          "onset": 176.25,
          "duration": 0.25,
          "velocity": 80
        },
        {
          "pitch": 77,
          "onset": 176.5,
          "duration": 0.25,
          "velocity": 80
        },
        {
          "pitch": 81,
          "onset": 176.75,
          "duration": 0.25,
          "velocity": 80
        },
        {
          "pitch": 79,
          "onset": 177.0,
          "duration": 0.25,
          "velocity": 80
        },
        {
          "pitch": 76,
          "onset": 177.25,
          "duration": 0.25,
          "velocity": 80
        },
        {
          "pitch": 73,
          "onset": 177.5,
          "duration": 0.25,
          "velocity": 80
        },
        {
          "pitch": 79,
          "onset": 177.75,
          "duration": 0.25,
          "velocity": 80
        },
        {
          "pitch": 62,
          "onset": 178.0,
          "duration": 0.25,
          "velocity": 80
        },
        {
          "pitch": 69,
          "onset": 178.25,
          "duration": 0.25,
          "velocity": 80
        },
        {
          "pitch": 73,
          "onset": 178.5,
          "duration": 0.25,
          "velocity": 80
        },
        {
          "pitch": 79,
          "onset": 178.75,
          "duration": 0.25,
          "velocity": 80
        },
        {
          "pitch": 77,
          "onset": 179.0,
          "duration": 0.25,
          "velocity": 80
        },
        {
          "pitch": 73,
          "onset": 179.25,
          "duration": 0.25,
          "velocity": 80
        },
        {
          "pitch": 74,
          "onset": 179.5,
          "duration": 0.25,
          "velocity": 80
        },
        {
          "pitch": 70,
          "onset": 179.75,
          "duration": 0.25,
          "velocity": 80
        },
        {
          "pitch": 67,
          "onset": 180.0,
          "duration": 0.25,
          "velocity": 80
        },
        {
          "pitch": 70,
          "onset": 180.25,
          "duration": 0.25,
          "velocity": 80
        },
        {
          "pitch": 74,
          "onset": 180.5,
          "duration": 0.25,
          "velocity": 80
        },
        {
          "pitch": 77,
          "onset": 180.75,
          "duration": 0.25,
          "velocity": 80
        },
        {
          "pitch": 75,
          "onset": 181.0,
          "duration": 0.25,
          "velocity": 80
        },
        {
          "pitch": 72,
          "onset": 181.25,
          "duration": 0.25,
          "velocity": 80
        },
        {
          "pitch": 69,
          "onset": 181.5,
          "duration": 0.25,
          "velocity": 80
        },
        {
          "pitch": 75,
          "onset": 181.75,
          "duration": 0.25,
          "velocity": 80
        },
        {
          "pitch": 58,
          "onset": 182.0,
          "duration": 0.25,
          "velocity": 80
        },
        {
          "pitch": 65,
          "onset": 182.25,
          "duration": 0.25,
          "velocity": 80
        },
        {
          "pitch": 69,
          "onset": 182.5,
          "duration": 0.25,
          "velocity": 80
        },
        {
          "pitch": 75,
          "onset": 182.75,
          "duration": 0.25,
          "velocity": 80
        },
        {
          "pitch": 74,
          "onset": 183.0,
          "duration": 0.25,
          "velocity": 80
        },
        {
          "pitch": 69,
          "onset": 183.25,
          "duration": 0.25,
          "velocity": 80
        },
        {
          "pitch": 70,
          "onset": 183.5,
          "duration": 0.25,
          "velocity": 80
        },
        {
          "pitch": 67,
          "onset": 183.75,
          "duration": 0.25,
          "velocity": 80
        },
        {
          "pitch": 64,
          "onset": 184.0,
          "duration": 0.25,
          "velocity": 80
        },
        {
          "pitch": 67,
          "onset": 184.25,
          "duration": 0.25,
          "velocity": 80
        },
        {
          "pitch": 70,
          "onset": 184.5,
          "duration": 0.25,
          "velocity": 80
        },
        {
          "pitch": 74,
          "onset": 184.75,
          "duration": 0.25,
          "velocity": 80
        },
        {
          "pitch": 72,
          "onset": 185.0,
          "duration": 0.25,
          "velocity": 80
        },
        {
          "pitch": 69,
          "onset": 185.25,
          "duration": 0.25,
          "velocity": 80
        },
        {
          "pitch": 66,
          "onset": 185.5,
          "duration": 0.25,
          "velocity": 80
        },
        {
          "pitch": 72,
          "onset": 185.75,
          "duration": 0.25,
          "velocity": 80
        },
        {
          "pitch": 70,
          "onset": 186.0,
          "duration": 0.25,
          "velocity": 100
        },
        {
          "pitch": 69,
          "onset": 186.25,
          "duration": 0.25,
          "velocity": 100
        },
        {
          "pitch": 67,
          "onset": 186.5,
          "duration": 0.25,
          "velocity": 100
        },
        {
          "pitch": 65,
          "onset": 186.75,
          "duration": 0.25,
          "velocity": 100
        },
        {
          "pitch": 63,
          "onset": 187.0,
          "duration": 0.25,
          "velocity": 100
        },
        {
          "pitch": 62,
          "onset": 187.25,
          "duration": 0.25,
          "velocity": 100
        },
        {
          "pitch": 63,
          "onset": 187.5,
          "duration": 0.25,
          "velocity": 100
        },
        {
          "pitch": 67,
          "onset": 187.75,
          "duration": 0.25,
          "velocity": 100
        },
        {
          "pitch": 70,
          "onset": 188.0,
          "duration": 0.25,
          "velocity": 100
        },
        {
          "pitch": 69,
          "onset": 188.25,
          "duration": 0.25,
          "velocity": 100
        },
        {
          "pitch": 70,
          "onset": 188.5,
          "duration": 0.25,
          "velocity": 100
        },
        {
          "pitch": 75,
          "onset": 188.75,
          "duration": 0.25,
          "velocity": 100
        },
        {
          "pitch": 79,
          "onset": 189.0,
          "duration": 0.25,
          "velocity": 110
        },
        {
          "pitch": 78,
          "onset": 189.25,
          "duration": 0.25,
          "velocity": 112
        },
        {
          "pitch": 79,
          "onset": 189.5,
          "duration": 0.25,
          "velocity": 115
        },
        {
          "pitch": 82,
          "onset": 189.75,
          "duration": 0.25,
          "velocity": 118
        },
        {
          "pitch": 73,
          "onset": 190.0,
          "duration": 0.25,
          "velocity": 120
        },
        {
          "pitch": 69,
          "onset": 190.25,
          "duration": 0.125,
          "velocity": 100
        },
        {
          "pitch": 71,
          "onset": 190.375,
          "duration": 0.125,
          "velocity": 100
        },
        {
          "pitch": 73,
          "onset": 190.5,
          "duration": 0.25,
          "velocity": 100
        },
        {
          "pitch": 76,
          "onset": 190.75,
          "duration": 0.25,
          "velocity": 100
        },
        {
          "pitch": 67,
          "onset": 191.0,
          "duration": 0.25,
          "velocity": 120
        },
        {
          "pitch": 70,
          "onset": 191.25,
          "duration": 0.125,
          "velocity": 100
        },
        {
          "pitch": 69,
          "onset": 191.375,
          "duration": 0.125,
          "velocity": 100
        },
        {
          "pitch": 67,
          "onset": 191.5,
          "duration": 0.25,
          "velocity": 121
        },
        {
          "pitch": 65,
          "onset": 191.75,
          "duration": 0.125,
          "velocity": 100
        },
        {
          "pitch": 64,
          "onset": 191.875,
          "duration": 0.125,
          "velocity": 100
        },
        {
          "pitch": 65,
          "onset": 192.0,
          "duration": 0.25,
          "velocity": 123
        },
        {
          "pitch": 69,
          "onset": 192.25,
          "duration": 0.125,
          "velocity": 100
        },
        {
          "pitch": 67,
          "onset": 192.375,
          "duration": 0.125,
          "velocity": 100
        },
        {
          "pitch": 65,
          "onset": 192.5,
          "duration": 0.25,
          "velocity": 120
        },
        {
          "pitch": 64,
          "onset": 192.75,
          "duration": 0.125,
          "velocity": 100
        },
        {
          "pitch": 62,
          "onset": 192.875,
          "duration": 0.125,
          "velocity": 100
        },
        {
          "pitch": 57,
          "onset": 193.0,
          "duration": 0.25,
          "velocity": 100
        },
        {
          "pitch": 64,
          "onset": 193.25,
          "duration": 0.25,
          "velocity": 100
        },
        {
          "pitch": 74,
          "onset": 193.5,
          "duration": 0.25,
          "velocity": 100
        },
        {
          "pitch": 73,
          "onset": 193.75,
          "duration": 0.5,
          "velocity": 100
        },
        {
          "pitch": 74,
          "onset": 194.25,
          "duration": 1.25,
          "velocity": 100
        },
        {
          "pitch": 76,
          "onset": 195.75,
          "duration": 0.25,
          "velocity": 100
        },
        {
          "pitch": 76,
          "onset": 196.0,
          "duration": 0.75,
          "velocity": 100
        },
        {
          "pitch": 77,
          "onset": 196.75,
          "duration": 0.25,
          "velocity": 100
        },
        {
          "pitch": 76,
          "onset": 197.0,
          "duration": 0.25,
          "velocity": 100
        },
        {
          "pitch": 74,
          "onset": 197.25,
          "duration": 0.25,
          "velocity": 100
        },
        {
          "pitch": 73,
          "onset": 197.5,
          "duration": 0.25,
          "velocity": 100
        },
        {
          "pitch": 71,
          "onset": 197.75,
          "duration": 0.25,
          "velocity": 100
        },
        {
          "pitch": 69,
          "onset": 198.0,
          "duration": 0.25,
          "velocity": 100
        },
        {
          "pitch": 67,
          "onset": 198.25,
          "duration": 0.125,
          "velocity": 100
        },
        {
          "pitch": 69,
          "onset": 198.375,
          "duration": 0.125,
          "velocity": 100
        },
        {
          "pitch": 70,
          "onset": 198.5,
          "duration": 0.25,
          "velocity": 100
        },
        {
          "pitch": 69,
          "onset": 198.75,
          "duration": 0.25,
          "velocity": 100
        },
        {
          "pitch": 67,
          "onset": 199.0,
          "duration": 0.25,
          "velocity": 100
        },
        {
          "pitch": 65,
          "onset": 199.25,
          "duration": 0.25,
          "velocity": 100
        },
        {
          "pitch": 64,
          "onset": 199.5,
          "duration": 0.25,
          "velocity": 100
        },
        {
          "pitch": 65,
          "onset": 199.75,
          "duration": 0.25,
          "velocity": 100
        },
        {
          "pitch": 67,
          "onset": 200.0,
          "duration": 0.25,
          "velocity": 100
        },
        {
          "pitch": 65,
          "onset": 200.25,
          "duration": 0.25,
          "velocity": 100
        },
        {
          "pitch": 64,
          "onset": 200.5,
          "duration": 0.25,
          "velocity": 100
        },
        {
          "pitch": 62,
          "onset": 200.75,
          "duration": 0.25,
          "velocity": 100
        },
        {
          "pitch": 77,
          "onset": 201.0,
          "duration": 0.25,
          "velocity": 80
        },
        {
          "pitch": 69,
          "onset": 201.25,
          "duration": 0.25,
          "velocity": 80
        },
        {
          "pitch": 70,
          "onset": 201.5,
          "duration": 0.25,
          "velocity": 80
        },
        {
          "pitch": 62,
          "onset": 201.75,
          "duration": 0.25,
          "velocity": 80
        },
        {
          "pitch": 60,
          "onset": 202.0,
          "duration": 0.25,
          "velocity": 80
        },
        {
          "pitch": 67,
          "onset": 202.25,
          "duration": 0.25,
          "velocity": 80
        },
        {
          "pitch": 70,
          "onset": 202.5,
          "duration": 0.25,
          "velocity": 80
        },
        {
          "pitch": 75,
          "onset": 202.75,
          "duration": 0.25,
          "velocity": 80
        },
        {
          "pitch": 69,
          "onset": 203.0,
          "duration": 0.25,
          "velocity": 80
        },
        {
          "pitch": 72,
          "onset": 203.25,
          "duration": 0.25,
          "velocity": 80
        },
        {
          "pitch": 77,
          "onset": 203.5,
          "duration": 0.25,
          "velocity": 80
        },
        {
          "pitch": 75,
          "onset": 203.75,
          "duration": 0.25,
          "velocity": 80
        },
        {
          "pitch": 74,
          "onset": 204.0,
          "duration": 0.25,
          "velocity": 80
        },
        {
          "pitch": 69,
          "onset": 204.25,
          "duration": 0.25,
          "velocity": 80
        },
        {
          "pitch": 70,
          "onset": 204.5,
          "duration": 0.25,
          "velocity": 80
        },
        {
          "pitch": 74,
          "onset": 204.75,
          "duration": 0.25,
          "velocity": 80
        },
        {
          "pitch": 63,
          "onset": 205.0,
          "duration": 0.25,
          "velocity": 80
        },
        {
          "pitch": 67,
          "onset": 205.25,
          "duration": 0.25,
          "velocity": 82
        },
        {
          "pitch": 69,
          "onset": 205.5,
          "duration": 0.25,
          "velocity": 85
        },
        {
          "pitch": 70,
          "onset": 205.75,
          "duration": 0.25,
          "velocity": 88
        },
        {
          "pitch": 72,
          "onset": 206.0,
          "duration": 0.25,
          "velocity": 91
        },
        {
          "pitch": 74,
          "onset": 206.25,
          "duration": 0.25,
          "velocity": 94
        },
        {
          "pitch": 75,
          "onset": 206.5,
          "duration": 0.25,
          "velocity": 97
        },
        {
          "pitch": 72,
          "onset": 206.75,
          "duration": 0.25,
          "velocity": 99
        },
        {
          "pitch": 81,
          "onset": 207.0,
          "duration": 0.1562,
          "velocity": 100
        },
        {
          "pitch": 79,
          "onset": 207.1562,
          "duration": 0.1562,
          "velocity": 100
        },
        {
          "pitch": 78,
          "onset": 207.3438,
          "duration": 0.1562,
          "velocity": 100
        },
        {
          "pitch": 79,
          "onset": 207.5,
          "duration": 0.1562,
          "velocity": 100
        },
        {
          "pitch": 78,
          "onset": 207.6562,
          "duration": 0.1562,
          "velocity": 100
        },
        {
          "pitch": 76,
          "onset": 207.8438,
          "duration": 0.1562,
          "velocity": 100
        },
        {
          "pitch": 78,
          "onset": 208.0,
          "duration": 0.25,
          "velocity": 100
        },
        {
          "pitch": 72,
          "onset": 208.25,
          "duration": 0.125,
          "velocity": 100
        },
        {
          "pitch": 74,
          "onset": 208.375,
          "duration": 0.125,
          "velocity": 100
        },
        {
          "pitch": 75,
          "onset": 208.5,
          "duration": 0.25,
          "velocity": 100
        },
        {
          "pitch": 74,
          "onset": 208.75,
          "duration": 0.25,
          "velocity": 100
        },
        {
          "pitch": 72,
          "onset": 209.0,
          "duration": 0.25,
          "velocity": 100
        },
        {
          "pitch": 70,
          "onset": 209.25,
          "duration": 0.125,
          "velocity": 100
        },
        {
          "pitch": 69,
          "onset": 209.375,
          "duration": 0.125,
          "velocity": 100
        },
        {
          "pitch": 74,
          "onset": 209.5,
          "duration": 0.25,
          "velocity": 100
        },
        {
          "pitch": 72,
          "onset": 209.75,
          "duration": 0.25,
          "velocity": 100
        },
        {
          "pitch": 70,
          "onset": 210.0,
          "duration": 0.25,
          "velocity": 123
        },
        {
          "pitch": 72,
          "onset": 210.25,
          "duration": 0.125,
          "velocity": 100
        },
        {
          "pitch": 74,
          "onset": 210.375,
          "duration": 0.125,
          "velocity": 100
        },
        {
          "pitch": 75,
          "onset": 210.5,
          "duration": 0.25,
          "velocity": 100
        },
        {
          "pitch": 79,
          "onset": 210.75,
          "duration": 0.25,
          "velocity": 100
        },
        {
          "pitch": 69,
          "onset": 211.0,
          "duration": 0.25,
          "velocity": 121
        },
        {
          "pitch": 70,
          "onset": 211.25,
          "duration": 0.125,
          "velocity": 100
        },
        {
          "pitch": 72,
          "onset": 211.375,
          "duration": 0.125,
          "velocity": 100
        },
        {
          "pitch": 74,
          "onset": 211.5,
          "duration": 0.25,
          "velocity": 100
        },
        {
          "pitch": 77,
          "onset": 211.75,
          "duration": 0.25,
          "velocity": 100
        },
        {
          "pitch": 67,
          "onset": 212.0,
          "duration": 0.25,
          "velocity": 122
        },
        {
          "pitch": 69,
          "onset": 212.25,
          "duration": 0.125,
          "velocity": 100
        },
        {
          "pitch": 70,
          "onset": 212.375,
          "duration": 0.125,
          "velocity": 100
        },
        {
          "pitch": 72,
          "onset": 212.5,
          "duration": 0.25,
          "velocity": 100
        },
        {
          "pitch": 75,
          "onset": 212.75,
          "duration": 0.25,
          "velocity": 100
        },
        {
          "pitch": 65,
          "onset": 213.0,
          "duration": 0.25,
          "velocity": 124
        },
        {
          "pitch": 67,
          "onset": 213.25,
          "duration": 0.125,
          "velocity": 100
        },
        {
          "pitch": 69,
          "onset": 213.375,
          "duration": 0.125,
          "velocity": 100
        },
        {
          "pitch": 70,
          "onset": 213.5,
          "duration": 0.25,
          "velocity": 100
        },
        {
          "pitch": 74,
          "onset": 213.75,
          "duration": 0.25,
          "velocity": 100
        },
        {
          "pitch": 63,
          "onset": 214.0,
          "duration": 0.25,
          "velocity": 123
        },
        {
          "pitch": 79,
          "onset": 214.25,
          "duration": 0.125,
          "velocity": 100
        },
        {
          "pitch": 77,
          "onset": 214.375,
          "duration": 0.125,
          "velocity": 100
        },
        {
          "pitch": 75,
          "onset": 214.5,
          "duration": 0.25,
          "velocity": 100
        },
        {
          "pitch": 72,
          "onset": 214.75,
          "duration": 0.125,
          "velocity": 100
        },
        {
          "pitch": 70,
          "onset": 214.875,
          "duration": 0.125,
          "velocity": 100
        },
        {
          "pitch": 69,
          "onset": 215.0,
          "duration": 0.25,
          "velocity": 100
        },
        {
          "pitch": 72,
          "onset": 215.25,
          "duration": 0.125,
          "velocity": 100
        },
        {
          "pitch": 70,
          "onset": 215.375,
          "duration": 0.125,
          "velocity": 100
        },
        {
          "pitch": 69,
          "onset": 215.5,
          "duration": 0.25,
          "velocity": 100
        },
        {
          "pitch": 66,
          "onset": 215.75,
          "duration": 0.125,
          "velocity": 100
        },
        {
          "pitch": 64,
          "onset": 215.875,
          "duration": 0.125,
          "velocity": 100
        },
        {
          "pitch": 62,
          "onset": 216.0,
          "duration": 0.25,
          "velocity": 100
        },
        {
          "pitch": 66,
          "onset": 216.25,
          "duration": 0.25,
          "velocity": 100
        },
        {
          "pitch": 69,
          "onset": 216.5,
          "duration": 0.25,
          "velocity": 100
        },
        {
          "pitch": 72,
          "onset": 216.75,
          "duration": 0.25,
          "velocity": 100
        },
        {
          "pitch": 75,
          "onset": 217.0,
          "duration": 0.1562,
          "velocity": 100
        },
        {
          "pitch": 74,
          "onset": 217.1562,
          "duration": 0.1562,
          "velocity": 100
        },
        {
          "pitch": 72,
          "onset": 217.3438,
          "duration": 0.1562,
          "velocity": 100
        },
        {
          "pitch": 78,
          "onset": 217.5,
          "duration": 0.1562,
          "velocity": 100
        },
        {
          "pitch": 76,
          "onset": 217.6562,
          "duration": 0.1562,
          "velocity": 100
        },
        {
          "pitch": 74,
          "onset": 217.8438,
          "duration": 0.1562,
          "velocity": 100
        },
        {
          "pitch": 82,
          "onset": 218.0,
          "duration": 0.25,
          "velocity": 110
        },
        {
          "pitch": 81,
          "onset": 218.25,
          "duration": 0.125,
          "velocity": 110
        },
        {
          "pitch": 79,
          "onset": 218.375,
          "duration": 0.125,
          "velocity": 110
        },
        {
          "pitch": 78,
          "onset": 218.5,
          "duration": 0.25,
          "velocity": 110
        },
        {
          "pitch": 79,
          "onset": 218.75,
          "duration": 0.25,
          "velocity": 110
        },
        {
          "pitch": 70,
          "onset": 219.0,
          "duration": 0.1562,
          "velocity": 110
        },
        {
          "pitch": 72,
          "onset": 219.1562,
          "duration": 0.1562,
          "velocity": 110
        },
        {
          "pitch": 74,
          "onset": 219.3438,
          "duration": 0.1562,
          "velocity": 110
        },
        {
          "pitch": 72,
          "onset": 219.5,
          "duration": 0.1562,
          "velocity": 110
        },
        {
          "pitch": 70,
          "onset": 219.6562,
          "duration": 0.1562,
          "velocity": 110
        },
        {
          "pitch": 69,
          "onset": 219.8438,
          "duration": 0.1562,
          "velocity": 110
        },
        {
          "pitch": 67,
          "onset": 220.0,
          "duration": 0.75,
          "velocity": 110
        },
        {
          "pitch": 69,
          "onset": 220.75,
          "duration": 0.25,
          "velocity": 100
        },
        {
          "pitch": 70,
          "onset": 221.0,
          "duration": 0.25,
          "velocity": 100
        },
        {
          "pitch": 72,
          "onset": 221.25,
          "duration": 0.25,
          "velocity": 100
        },
        {
          "pitch": 74,
          "onset": 221.5,
          "duration": 0.25,
          "velocity": 100
        },
        {
          "pitch": 65,
          "onset": 221.75,
          "duration": 0.25,
          "velocity": 100
        },
        {
          "pitch": 64,
          "onset": 222.0,
          "duration": 0.25,
          "velocity": 100
        },
        {
          "pitch": 60,
          "onset": 222.25,
          "duration": 0.25,
          "velocity": 100
        },
        {
          "pitch": 64,
          "onset": 222.5,
          "duration": 0.25,
          "velocity": 100
        },
        {
          "pitch": 67,
          "onset": 222.75,
          "duration": 0.25,
          "velocity": 100
        },
        {
          "pitch": 70,
          "onset": 223.0,
          "duration": 0.25,
          "velocity": 100
        },
        {
          "pitch": 76,
          "onset": 223.25,
          "duration": 0.125,
          "velocity": 100
        },
        {
          "pitch": 77,
          "onset": 223.375,
          "duration": 0.125,
          "velocity": 100
        },
        {
          "pitch": 79,
          "onset": 223.5,
          "duration": 0.25,
          "velocity": 100
        },
        {
          "pitch": 70,
          "onset": 223.75,
          "duration": 0.25,
          "velocity": 100
        },
        {
          "pitch": 69,
          "onset": 224.0,
          "duration": 0.25,
          "velocity": 100
        },
        {
          "pitch": 65,
          "onset": 224.25,
          "duration": 0.25,
          "velocity": 100
        },
        {
          "pitch": 69,
          "onset": 224.5,
          "duration": 0.25,
          "velocity": 100
        },
        {
          "pitch": 72,
          "onset": 224.75,
          "duration": 0.25,
          "velocity": 100
        },
        {
          "pitch": 77,
          "onset": 225.0,
          "duration": 0.25,
          "velocity": 100
        },
        {
          "pitch": 69,
          "onset": 225.25,
          "duration": 0.25,
          "velocity": 100
        },
        {
          "pitch": 67,
          "onset": 225.5,
          "duration": 0.25,
          "velocity": 100
        },
        {
          "pitch": 65,
          "onset": 225.75,
          "duration": 0.25,
          "velocity": 100
        },
        {
          "pitch": 60,
          "onset": 226.0,
          "duration": 0.25,
          "velocity": 100
        },
        {
          "pitch": 67,
          "onset": 226.25,
          "duration": 0.25,
          "velocity": 100
        },
        {
          "pitch": 72,
          "onset": 226.5,
          "duration": 0.25,
          "velocity": 100
        },
        {
          "pitch": 74,
          "onset": 226.75,
          "duration": 0.25,
          "velocity": 100
        },
        {
          "pitch": 76,
          "onset": 227.0,
          "duration": 0.25,
          "velocity": 100
        },
        {
          "pitch": 70,
          "onset": 227.25,
          "duration": 0.25,
          "velocity": 100
        },
        {
          "pitch": 69,
          "onset": 227.5,
          "duration": 0.25,
          "velocity": 100
        },
        {
          "pitch": 67,
          "onset": 227.75,
          "duration": 0.25,
          "velocity": 100
        },
        {
          "pitch": 65,
          "onset": 228.0,
          "duration": 0.25,
          "velocity": 100
        },
        {
          "pitch": 62,
          "onset": 228.25,
          "duration": 0.25,
          "velocity": 100
        },
        {
          "pitch": 65,
          "onset": 228.5,
          "duration": 0.25,
          "velocity": 100
        },
        {
          "pitch": 69,
          "onset": 228.75,
          "duration": 0.25,
          "velocity": 100
        },
        {
          "pitch": 74,
          "onset": 229.0,
          "duration": 0.25,
          "velocity": 100
        },
        {
          "pitch": 65,
          "onset": 229.25,
          "duration": 0.25,
          "velocity": 100
        },
        {
          "pitch": 64,
          "onset": 229.5,
          "duration": 0.25,
          "velocity": 100
        },
        {
          "pitch": 62,
          "onset": 229.75,
          "duration": 0.25,
          "velocity": 100
        },
        {
          "pitch": 57,
          "onset": 230.0,
          "duration": 0.25,
          "velocity": 100
        },
        {
          "pitch": 64,
          "onset": 230.25,
          "duration": 0.25,
          "velocity": 100
        },
        {
          "pitch": 69,
          "onset": 230.5,
          "duration": 0.25,
          "velocity": 100
        },
        {
          "pitch": 70,
          "onset": 230.75,
          "duration": 0.25,
          "velocity": 100
        },
        {
          "pitch": 72,
          "onset": 231.0,
          "duration": 0.25,
          "velocity": 100
        },
        {
          "pitch": 67,
          "onset": 231.25,
          "duration": 0.25,
          "velocity": 100
        },
        {
          "pitch": 65,
          "onset": 231.5,
          "duration": 0.25,
          "velocity": 100
        },
        {
          "pitch": 63,
          "onset": 231.75,
          "duration": 0.25,
          "velocity": 100
        },
        {
          "pitch": 62,
          "onset": 232.0,
          "duration": 0.25,
          "velocity": 100
        },
        {
          "pitch": 58,
          "onset": 232.25,
          "duration": 0.25,
          "velocity": 100
        },
        {
          "pitch": 62,
          "onset": 232.5,
          "duration": 0.25,
          "velocity": 100
        },
        {
          "pitch": 65,
          "onset": 232.75,
          "duration": 0.25,
          "velocity": 100
        },
        {
          "pitch": 70,
          "onset": 233.0,
          "duration": 0.25,
          "velocity": 100
        },
        {
          "pitch": 69,
          "onset": 233.25,
          "duration": 0.25,
          "velocity": 100
        },
        {
          "pitch": 67,
          "onset": 233.5,
          "duration": 0.25,
          "velocity": 100
        },
        {
          "pitch": 65,
          "onset": 233.75,
          "duration": 0.25,
          "velocity": 100
        },
        {
          "pitch": 76,
          "onset": 234.0,
          "duration": 0.25,
          "velocity": 115
        },
        {
          "pitch": 77,
          "onset": 234.25,
          "duration": 0.125,
          "velocity": 115
        },
        {
          "pitch": 79,
          "onset": 234.375,
          "duration": 0.125,
          "velocity": 115
        },
        {
          "pitch": 77,
          "onset": 234.5,
          "duration": 0.25,
          "velocity": 115
        },
        {
          "pitch": 76,
          "onset": 234.75,
          "duration": 0.25,
          "velocity": 115
        },
        {
          "pitch": 74,
          "onset": 235.0,
          "duration": 0.25,
          "velocity": 115
        },
        {
          "pitch": 72,
          "onset": 235.25,
          "duration": 0.25,
          "velocity": 115
        },
        {
          "pitch": 70,
          "onset": 235.5,
          "duration": 0.25,
          "velocity": 115
        },
        {
          "pitch": 79,
          "onset": 235.75,
          "duration": 0.25,
          "velocity": 115
        },
        {
          "pitch": 69,
          "onset": 236.0,
          "duration": 0.125,
          "velocity": 120
        },
        {
          "pitch": 67,
          "onset": 236.125,
          "duration": 0.125,
          "velocity": 120
        },
        {
          "pitch": 65,
          "onset": 236.25,
          "duration": 0.125,
          "velocity": 120
        },
        {
          "pitch": 64,
          "onset": 236.375,
          "duration": 0.125,
          "velocity": 120
        },
        {
          "pitch": 65,
          "onset": 236.5,
          "duration": 0.25,
          "velocity": 120
        },
        {
          "pitch": 58,
          "onset": 236.75,
          "duration": 0.25,
          "velocity": 120
        },
        {
          "pitch": 60,
          "onset": 237.0,
          "duration": 0.25,
          "velocity": 115
        },
        {
          "pitch": 64,
          "onset": 237.25,
          "duration": 0.25,
          "velocity": 115
        },
        {
          "pitch": 67,
          "onset": 237.5,
          "duration": 0.25,
          "velocity": 115
        },
        {
          "pitch": 69,
          "onset": 237.75,
          "duration": 0.25,
          "velocity": 115
        },
        {
          "pitch": 70,
          "onset": 238.0,
          "duration": 0.25,
          "velocity": 115
        },
        {
          "pitch": 69,
          "onset": 238.25,
          "duration": 0.25,
          "velocity": 115
        },
        {
          "pitch": 67,
          "onset": 238.5,
          "duration": 0.25,
          "velocity": 115
        },
        {
          "pitch": 65,
          "onset": 238.75,
          "duration": 0.25,
          "velocity": 115
        },
        {
          "pitch": 81,
          "onset": 239.0,
          "duration": 0.25,
          "velocity": 80
        },
        {
          "pitch": 76,
          "onset": 239.25,
          "duration": 0.25,
          "velocity": 80
        },
        {
          "pitch": 77,
          "onset": 239.5,
          "duration": 0.25,
          "velocity": 80
        },
        {
          "pitch": 74,
          "onset": 239.75,
          "duration": 0.25,
          "velocity": 80
        },
        {
          "pitch": 71,
          "onset": 240.0,
          "duration": 0.25,
          "velocity": 80
        },
        {
          "pitch": 74,
          "onset": 240.25,
          "duration": 0.25,
          "velocity": 80
        },
        {
          "pitch": 77,
          "onset": 240.5,
          "duration": 0.25,
          "velocity": 80
        },
        {
          "pitch": 81,
          "onset": 240.75,
          "duration": 0.25,
          "velocity": 80
        },
        {
          "pitch": 79,
          "onset": 241.0,
          "duration": 0.25,
          "velocity": 80
        },
        {
          "pitch": 76,
          "onset": 241.25,
          "duration": 0.25,
          "velocity": 80
        },
        {
          "pitch": 73,
          "onset": 241.5,
          "duration": 0.25,
          "velocity": 80
        },
        {
          "pitch": 79,
          "onset": 241.75,
          "duration": 0.25,
          "velocity": 80
        },
        {
          "pitch": 62,
          "onset": 242.0,
          "duration": 0.25,
          "velocity": 80
        },
        {
          "pitch": 69,
          "onset": 242.25,
          "duration": 0.25,
          "velocity": 80
        },
        {
          "pitch": 73,
          "onset": 242.5,
          "duration": 0.25,
          "velocity": 80
        },
        {
          "pitch": 79,
          "onset": 242.75,
          "duration": 0.25,
          "velocity": 80
        },
        {
          "pitch": 77,
          "onset": 243.0,
          "duration": 0.25,
          "velocity": 80
        },
        {
          "pitch": 73,
          "onset": 243.25,
          "duration": 0.25,
          "velocity": 80
        },
        {
          "pitch": 74,
          "onset": 243.5,
          "duration": 0.25,
          "velocity": 80
        },
        {
          "pitch": 70,
          "onset": 243.75,
          "duration": 0.25,
          "velocity": 80
        },
        {
          "pitch": 67,
          "onset": 244.0,
          "duration": 0.25,
          "velocity": 80
        },
        {
          "pitch": 70,
          "onset": 244.25,
          "duration": 0.25,
          "velocity": 80
        },
        {
          "pitch": 74,
          "onset": 244.5,
          "duration": 0.25,
          "velocity": 80
        },
        {
          "pitch": 77,
          "onset": 244.75,
          "duration": 0.25,
          "velocity": 80
        },
        {
          "pitch": 75,
          "onset": 245.0,
          "duration": 0.25,
          "velocity": 80
        },
        {
          "pitch": 72,
          "onset": 245.25,
          "duration": 0.25,
          "velocity": 80
        },
        {
          "pitch": 69,
          "onset": 245.5,
          "duration": 0.25,
          "velocity": 80
        },
        {
          "pitch": 75,
          "onset": 245.75,
          "duration": 0.25,
          "velocity": 80
        },
        {
          "pitch": 58,
          "onset": 246.0,
          "duration": 0.25,
          "velocity": 80
        },
        {
          "pitch": 65,
          "onset": 246.25,
          "duration": 0.25,
          "velocity": 80
        },
        {
          "pitch": 69,
          "onset": 246.5,
          "duration": 0.25,
          "velocity": 80
        },
        {
          "pitch": 75,
          "onset": 246.75,
          "duration": 0.25,
          "velocity": 80
        },
        {
          "pitch": 74,
          "onset": 247.0,
          "duration": 0.25,
          "velocity": 80
        },
        {
          "pitch": 69,
          "onset": 247.25,
          "duration": 0.25,
          "velocity": 80
        },
        {
          "pitch": 70,
          "onset": 247.5,
          "duration": 0.25,
          "velocity": 80
        },
        {
          "pitch": 67,
          "onset": 247.75,
          "duration": 0.25,
          "velocity": 80
        },
        {
          "pitch": 64,
          "onset": 248.0,
          "duration": 0.25,
          "velocity": 80
        },
        {
          "pitch": 67,
          "onset": 248.25,
          "duration": 0.25,
          "velocity": 80
        },
        {
          "pitch": 70,
          "onset": 248.5,
          "duration": 0.25,
          "velocity": 80
        },
        {
          "pitch": 74,
          "onset": 248.75,
          "duration": 0.25,
          "velocity": 80
        },
        {
          "pitch": 72,
          "onset": 249.0,
          "duration": 0.25,
          "velocity": 80
        },
        {
          "pitch": 69,
          "onset": 249.25,
          "duration": 0.25,
          "velocity": 80
        },
        {
          "pitch": 66,
          "onset": 249.5,
          "duration": 0.25,
          "velocity": 80
        },
        {
          "pitch": 72,
          "onset": 249.75,
          "duration": 0.25,
          "velocity": 80
        },
        {
          "pitch": 70,
          "onset": 250.0,
          "duration": 0.25,
          "velocity": 100
        },
        {
          "pitch": 69,
          "onset": 250.25,
          "duration": 0.25,
          "velocity": 100
        },
        {
          "pitch": 67,
          "onset": 250.5,
          "duration": 0.25,
          "velocity": 100
        },
        {
          "pitch": 65,
          "onset": 250.75,
          "duration": 0.25,
          "velocity": 100
        },
        {
          "pitch": 63,
          "onset": 251.0,
          "duration": 0.25,
          "velocity": 100
        },
        {
          "pitch": 62,
          "onset": 251.25,
          "duration": 0.25,
          "velocity": 100
        },
        {
          "pitch": 63,
          "onset": 251.5,
          "duration": 0.25,
          "velocity": 100
        },
        {
          "pitch": 67,
          "onset": 251.75,
          "duration": 0.25,
          "velocity": 100
        },
        {
          "pitch": 70,
          "onset": 252.0,
          "duration": 0.25,
          "velocity": 100
        },
        {
          "pitch": 69,
          "onset": 252.25,
          "duration": 0.25,
          "velocity": 100
        },
        {
          "pitch": 70,
          "onset": 252.5,
          "duration": 0.25,
          "velocity": 100
        },
        {
          "pitch": 75,
          "onset": 252.75,
          "duration": 0.25,
          "velocity": 100
        },
        {
          "pitch": 79,
          "onset": 253.0,
          "duration": 0.25,
          "velocity": 110
        },
        {
          "pitch": 78,
          "onset": 253.25,
          "duration": 0.25,
          "velocity": 112
        },
        {
          "pitch": 79,
          "onset": 253.5,
          "duration": 0.25,
          "velocity": 115
        },
        {
          "pitch": 82,
          "onset": 253.75,
          "duration": 0.25,
          "velocity": 118
        },
        {
          "pitch": 73,
          "onset": 254.0,
          "duration": 0.25,
          "velocity": 120
        },
        {
          "pitch": 69,
          "onset": 254.25,
          "duration": 0.125,
          "velocity": 100
        },
        {
          "pitch": 71,
          "onset": 254.375,
          "duration": 0.125,
          "velocity": 100
        },
        {
          "pitch": 73,
          "onset": 254.5,
          "duration": 0.25,
          "velocity": 100
        },
        {
          "pitch": 76,
          "onset": 254.75,
          "duration": 0.25,
          "velocity": 100
        },
        {
          "pitch": 67,
          "onset": 255.0,
          "duration": 0.25,
          "velocity": 120
        },
        {
          "pitch": 70,
          "onset": 255.25,
          "duration": 0.125,
          "velocity": 100
        },
        {
          "pitch": 69,
          "onset": 255.375,
          "duration": 0.125,
          "velocity": 100
        },
        {
          "pitch": 67,
          "onset": 255.5,
          "duration": 0.25,
          "velocity": 121
        },
        {
          "pitch": 65,
          "onset": 255.75,
          "duration": 0.125,
          "velocity": 100
        },
        {
          "pitch": 64,
          "onset": 255.875,
          "duration": 0.125,
          "velocity": 100
        },
        {
          "pitch": 65,
          "onset": 256.0,
          "duration": 0.25,
          "velocity": 123
        },
        {
          "pitch": 69,
          "onset": 256.25,
          "duration": 0.125,
          "velocity": 100
        },
        {
          "pitch": 67,
          "onset": 256.375,
          "duration": 0.125,
          "velocity": 100
        },
        {
          "pitch": 65,
          "onset": 256.5,
          "duration": 0.25,
          "velocity": 120
        },
        {
          "pitch": 64,
          "onset": 256.75,
          "duration": 0.125,
          "velocity": 100
        },
        {
          "pitch": 62,
          "onset": 256.875,
          "duration": 0.125,
          "velocity": 100
        },
        {
          "pitch": 57,
          "onset": 257.0,
          "duration": 0.25,
          "velocity": 100
        },
        {
          "pitch": 64,
          "onset": 257.25,
          "duration": 0.25,
          "velocity": 100
        },
        {
          "pitch": 74,
          "onset": 257.5,
          "duration": 0.25,
          "velocity": 100
        },
        {
          "pitch": 73,
          "onset": 257.75,
          "duration": 0.5,
          "velocity": 100
        },
        {
          "pitch": 74,
          "onset": 258.25,
          "duration": 2.5,
          "velocity": 100
        },
        {
          "pitch": 62,
          "onset": 263.0,
          "duration": 0.5,
          "velocity": 1
        }
      ]
    },
    {
      "role": "solo_1",
      "notes": [
        {
          "pitch": 62,
          "onset": 4.0,
          "duration": 0.75,
          "velocity": 100
        },
        {
          "pitch": 57,
          "onset": 66.25,
          "duration": 1.25,
          "velocity": 100
        },
        {
          "pitch": 64,
          "onset": 66.25,
          "duration": 1.25,
          "velocity": 100
        },
        {
          "pitch": 62,
          "onset": 68.0,
          "duration": 0.75,
          "velocity": 100
        },
        {
          "pitch": 57,
          "onset": 130.25,
          "duration": 1.25,
          "velocity": 100
        },
        {
          "pitch": 64,
          "onset": 130.25,
          "duration": 1.25,
          "velocity": 100
        },
        {
          "pitch": 76,
          "onset": 132.0,
          "duration": 0.75,
          "velocity": 100
        },
        {
          "pitch": 62,
          "onset": 194.25,
          "duration": 1.25,
          "velocity": 100
        },
        {
          "pitch": 76,
          "onset": 196.0,
          "duration": 0.75,
          "velocity": 100
        },
        {
          "pitch": 62,
          "onset": 258.25,
          "duration": 2.5,
          "velocity": 100
        }
      ]
    }
  ]
}