{
  "bwv": 1007,
  "category": "solo_cello_suite",
  "instrument": "cello",
  "form": "",
  "movement": 1,
  "ticks_per_beat": 384,
  "duration_seconds": 173.2,
  "tempos": [
    {
      "tick": 0,
      "bpm": 50
    },
    {
      "tick": 96,
      "bpm": 60
    },
    {
      "tick": 1152,
      "bpm": 60
    },
    {
      "tick": 1344,
      "bpm": 55
    },
    {
      "tick": 1440,
      "bpm": 50
    },
    {
      "tick": 1632,
      "bpm": 60
    },
    {
      "tick": 2688,
      "bpm": 60
    },
    {
      "tick": 2880,
      "bpm": 55
    },
    {
      "tick": 2976,
      "bpm": 50
    },
    {
      "tick": 3168,
      "bpm": 60
    },
    {
      "tick": 4224,
      "bpm": 60
    },
    {
      "tick": 4416,
      "bpm": 55
    },
    {
      "tick": 4512,
      "bpm": 50
    },
    {
      "tick": 4704,
      "bpm": 60
    },
    {
      "tick": 5760,
      "bpm": 60
    },
    {
      "tick": 5952,
      "bpm": 55
    },
    {
      "tick": 6048,
      "bpm": 50
    },
    {
      "tick": 6240,
      "bpm": 60
    },
    {
      "tick": 8832,
      "bpm": 55
    },
    {
      "tick": 9024,
      "bpm": 50
    },
    {
      "tick": 9120,
      "bpm": 50
    },
    {
      "tick": 9216,
      "bpm": 45
    },
    {
      "tick": 9312,
      "bpm": 55
    },
    {
      "tick": 9408,
      "bpm": 60
    },
    {
      "tick": 14976,
      "bpm": 60
    },
    {
      "tick": 15168,
      "bpm": 55
    },
    {
      "tick": 15264,
      "bpm": 50
    },
    {
      "tick": 15456,
      "bpm": 60
    },
    {
      "tick": 16512,
      "bpm": 60
    },
    {
      "tick": 16704,
      "bpm": 55
    },
    {
      "tick": 16800,
      "bpm": 50
    },
    {
      "tick": 16992,
      "bpm": 60
    },
    {
      "tick": 17088,
      "bpm": 60
    },
    {
      "tick": 18048,
      "bpm": 60
    },
    {
      "tick": 18240,
      "bpm": 55
    },
    {
      "tick": 18336,
      "bpm": 50
    },
    {
      "tick": 18528,
      "bpm": 60
    },
    {
      "tick": 21120,
      "bpm": 55
    },
    {
      "tick": 21312,
      "bpm": 55
    },
    {
      "tick": 21408,
      "bpm": 50
    },
    {
      "tick": 21600,
      "bpm": 55
    },
    {
      "tick": 21696,
      "bpm": 60
    },
    {
      "tick": 22656,
      "bpm": 60
    },
    {
      "tick": 22848,
      "bpm": 55
    },
    {
      "tick": 22944,
      "bpm": 50
    },
    {
      "tick": 23136,
      "bpm": 60
    },
    {
      "tick": 24384,
      "bpm": 60
    },
    {
      "tick": 24480,
      "bpm": 55
    },
    {
      "tick": 24672,
      "bpm": 60
    },
    {
      "tick": 25920,
      "bpm": 60
    },
    {
      "tick": 26016,
      "bpm": 55
    },
    {
      "tick": 26208,
      "bpm": 60
    },
    {
      "tick": 27264,
      "bpm": 60
    },
    {
      "tick": 27456,
      "bpm": 55
    },
    {
      "tick": 27552,
      "bpm": 50
    },
    {
      "tick": 27648,
      "bpm": 45
    },
    {
      "tick": 27744,
      "bpm": 55
    },
    {
      "tick": 27840,
      "bpm": 60
    },
    {
      "tick": 28800,
      "bpm": 60
    },
    {
      "tick": 28992,
      "bpm": 55
    },
    {
      "tick": 29088,
      "bpm": 50
    },
    {
      "tick": 29184,
      "bpm": 45
    },
    {
      "tick": 29280,
      "bpm": 55
    },
    {
      "tick": 29376,
      "bpm": 60
    },
    {
      "tick": 31872,
      "bpm": 60
    },
    {
      "tick": 32064,
      "bpm": 55
    },
    {
      "tick": 32160,
      "bpm": 55
    },
    {
      "tick": 32256,
      "bpm": 50
    },
    {
      "tick": 32352,
      "bpm": 55
    },
    {
      "tick": 32544,
      "bpm": 50
    },
    {
      "tick": 32640,
      "bpm": 50
    },
    {
      "tick": 33024,
      "bpm": 60
    },
    {
      "tick": 34656,
      "bpm": 65
    },
    {
      "tick": 34752,
      "bpm": 70
    },
    {
      "tick": 37632,
      "bpm": 65
    },
    {
      "tick": 37824,
      "bpm": 65
    },
    {
      "tick": 38016,
      "bpm": 60
    },
    {
      "tick": 38208,
      "bpm": 60
    },
    {
      "tick": 38304,
      "bpm": 55
    },
    {
      "tick": 38496,
      "bpm": 60
    },
    {
      "tick": 39552,
      "bpm": 60
    },
    {
      "tick": 39744,
      "bpm": 55
    },
    {
      "tick": 39840,
      "bpm": 50
    },
    {
      "tick": 40032,
      "bpm": 60
    },
    {
      "tick": 44160,
      "bpm": 60
    },
    {
      "tick": 44352,
      "bpm": 55
    },
    {
      "tick": 44448,
      "bpm": 50
    },
    {
      "tick": 44736,
      "bpm": 60
    },
    {
      "tick": 48384,
      "bpm": 60
    },
    {
      "tick": 48576,
      "bpm": 65
    },
    {
      "tick": 48768,
      "bpm": 65
    },
    {
      "tick": 49152,
      "bpm": 65
    },
    {
      "tick": 49536,
      "bpm": 65
    },
    {
      "tick": 51648,
      "bpm": 65
    },
    {
      "tick": 52224,
      "bpm": 70
    },
    {
      "tick": 59136,
      "bpm": 65
    },
    {
      "tick": 59328,
      "bpm": 65
    },
    {
      "tick": 59520,
      "bpm": 60
    },
    {
      "tick": 59616,
      "bpm": 60
    },
    {
      "tick": 59712,
      "bpm": 55
    },
    {
      "tick": 59808,
      "bpm": 50
    },
    {
      "tick": 60000,
      "bpm": 60
    },
    {
      "tick": 64128,
      "bpm": 60
    },
    {
      "tick": 64320,
      "bpm": 55
    }
  ],
  "time_signatures": [
    {
      "tick": 0,
      "numerator": 4,
      "denominator": 4
    }
  ],
  "track_type": "solo_string",
  "voice_count": 2,
  "total_notes": 657,
  "tracks": [
    {
      "role": "solo_0",
      "notes": [
        {
          "pitch": 50,
          "onset": 0.25,
          "duration": 0.25,
          "velocity": 80
        },
        {
          "pitch": 59,
          "onset": 0.5,
          "duration": 0.25,
          "velocity": 80
        },
        {
          "pitch": 57,
          "onset": 0.75,
          "duration": 0.25,
          "velocity": 80
        },
        {
          "pitch": 59,
          "onset": 1.0,
          "duration": 0.25,
          "velocity": 80
        },
        {
          "pitch": 50,
          "onset": 1.25,
          "duration": 0.25,
          "velocity": 80
        },
        {
          "pitch": 59,
          "onset": 1.5,
          "duration": 0.25,
          "velocity": 80
        },
        {
          "pitch": 50,
          "onset": 1.75,
          "duration": 0.25,
          "velocity": 80
        },
        {
          "pitch": 50,
          "onset": 2.25,
          "duration": 0.25,
          "velocity": 80
        },
        {
          "pitch": 59,
          "onset": 2.5,
          "duration": 0.25,
          "velocity": 80
        },
        {
          "pitch": 57,
          "onset": 2.75,
          "duration": 0.25,
          "velocity": 80
        },
        {
          "pitch": 59,
          "onset": 3.0,
          "duration": 0.25,
          "velocity": 80
        },
        {
          "pitch": 50,
          "onset": 3.25,
          "duration": 0.25,
          "velocity": 80
        },
        {
          "pitch": 59,
          "onset": 3.5,
          "duration": 0.25,
          "velocity": 80
        },
        {
          "pitch": 50,
          "onset": 3.75,
          "duration": 0.25,
          "velocity": 80
        },
        {
          "pitch": 52,
          "onset": 4.25,
          "duration": 0.25,
          "velocity": 80
        },
        {
          "pitch": 60,
          "onset": 4.5,
          "duration": 0.25,
          "velocity": 80
        },
        {
          "pitch": 59,
          "onset": 4.75,
          "duration": 0.25,
          "velocity": 80
        },
        {
          "pitch": 60,
          "onset": 5.0,
          "duration": 0.25,
          "velocity": 80
        },
        {
          "pitch": 52,
          "onset": 5.25,
          "duration": 0.25,
          "velocity": 80
        },
        {
          "pitch": 60,
          "onset": 5.5,
          "duration": 0.25,
          "velocity": 80
        },
        {
          "pitch": 52,
          "onset": 5.75,
          "duration": 0.25,
          "velocity": 80
        },
        {
          "pitch": 52,
          "onset": 6.25,
          "duration": 0.25,
          "velocity": 80
        },
        {
          "pitch": 60,
          "onset": 6.5,
          "duration": 0.25,
          "velocity": 80
        },
        {
          "pitch": 59,
          "onset": 6.75,
          "duration": 0.25,
          "velocity": 80
        },
        {
          "pitch": 60,
          "onset": 7.0,
          "duration": 0.25,
          "velocity": 80
        },
        {
          "pitch": 52,
          "onset": 7.25,
          "duration": 0.25,
          "velocity": 80
        },
        {
          "pitch": 60,
          "onset": 7.5,
          "duration": 0.25,
          "velocity": 80
        },
        {
          "pitch": 52,
          "onset": 7.75,
          "duration": 0.25,
          "velocity": 80
        },
        {
          "pitch": 54,
          "onset": 8.25,
          "duration": 0.25,
          "velocity": 80
        },
        {
          "pitch": 60,
          "onset": 8.5,
          "duration": 0.25,
          "velocity": 80
        },
        {
          "pitch": 59,
          "onset": 8.75,
          "duration": 0.25,
          "velocity": 80
        },
        {
          "pitch": 60,
          "onset": 9.0,
          "duration": 0.25,
          "velocity": 80
        },
        {
          "pitch": 54,
          "onset": 9.25,
          "duration": 0.25,
          "velocity": 80
        },
        {
          "pitch": 60,
          "onset": 9.5,
          "duration": 0.25,
          "velocity": 80
        },
        {
          "pitch": 54,
          "onset": 9.75,
          "duration": 0.25,
          "velocity": 80
        },
        {
          "pitch": 54,
          "onset": 10.25,
          "duration": 0.25,
          "velocity": 80
        },
        {
          "pitch": 60,
          "onset": 10.5,
          "duration": 0.25,
          "velocity": 80
        },
        {
          "pitch": 59,
          "onset": 10.75,
          "duration": 0.25,
          "velocity": 80
        },
        {
          "pitch": 60,
          "onset": 11.0,
          "duration": 0.25,
          "velocity": 80
        },
        {
          "pitch": 54,
          "onset": 11.25,
          "duration": 0.25,
          "velocity": 80
        },
        {
          "pitch": 60,
          "onset": 11.5,
          "duration": 0.25,
          "velocity": 80
        },
        {
          "pitch": 54,
          "onset": 11.75,
          "duration": 0.25,
          "velocity": 80
        },
        {
          "pitch": 55,
          "onset": 12.25,
          "duration": 0.25,
          "velocity": 80
        },
        {
          "pitch": 59,
          "onset": 12.5,
          "duration": 0.25,
          "velocity": 80
        },
        {
          "pitch": 57,
          "onset": 12.75,
          "duration": 0.25,
          "velocity": 80
        },
        {
          "pitch": 59,
          "onset": 13.0,
          "duration": 0.25,
          "velocity": 80
        },
        {
          "pitch": 55,
          "onset": 13.25,
          "duration": 0.25,
          "velocity": 80
        },
        {
          "pitch": 59,
          "onset": 13.5,
          "duration": 0.25,
          "velocity": 80
        },
        {
          "pitch": 55,
          "onset": 13.75,
          "duration": 0.25,
          "velocity": 80
        },
        {
          "pitch": 55,
          "onset": 14.25,
          "duration": 0.25,
          "velocity": 80
        },
        {
          "pitch": 59,
          "onset": 14.5,
          "duration": 0.25,
          "velocity": 80
        },
        {
          "pitch": 57,
          "onset": 14.75,
          "duration": 0.25,
          "velocity": 80
        },
        {
          "pitch": 59,
          "onset": 15.0,
          "duration": 0.25,
          "velocity": 80
        },
        {
          "pitch": 55,
          "onset": 15.25,
          "duration": 0.25,
          "velocity": 80
        },
        {
          "pitch": 59,
          "onset": 15.5,
          "duration": 0.25,
          "velocity": 80
        },
        {
          "pitch": 54,
          "onset": 15.75,
          "duration": 0.25,
          "velocity": 80
        },
        {
          "pitch": 52,
          "onset": 16.25,
          "duration": 0.25,
          "velocity": 80
        },
        {
          "pitch": 59,
          "onset": 16.5,
          "duration": 0.25,
          "velocity": 80
        },
        {
          "pitch": 57,
          "onset": 16.75,
          "duration": 0.25,
          "velocity": 80
        },
        {
          "pitch": 59,
          "onset": 17.0,
          "duration": 0.25,
          "velocity": 80
        },
        {
          "pitch": 55,
          "onset": 17.25,
          "duration": 0.25,
          "velocity": 80
        },
        {
          "pitch": 54,
          "onset": 17.5,
          "duration": 0.25,
          "velocity": 80
        },
        {
          "pitch": 55,
          "onset": 17.75,
          "duration": 0.25,
          "velocity": 80
        },
        {
          "pitch": 52,
          "onset": 18.0,
          "duration": 0.25,
          "velocity": 80
        },
        {
          "pitch": 55,
          "onset": 18.25,
          "duration": 0.25,
          "velocity": 80
        },
        {
          "pitch": 54,
          "onset": 18.5,
          "duration": 0.25,
          "velocity": 80
        },
        {
          "pitch": 55,
          "onset": 18.75,
          "duration": 0.25,
          "velocity": 80
        },
        {
          "pitch": 47,
          "onset": 19.0,
          "duration": 0.25,
          "velocity": 80
        },
        {
          "pitch": 50,
          "onset": 19.25,
          "duration": 0.25,
          "velocity": 80
        },
        {
          "pitch": 49,
          "onset": 19.5,
          "duration": 0.25,
          "velocity": 80
        },
        {
          "pitch": 47,
          "onset": 19.75,
          "duration": 0.25,
          "velocity": 80
        },
        {
          "pitch": 55,
          "onset": 20.25,
          "duration": 0.25,
          "velocity": 80
        },
        {
          "pitch": 57,
          "onset": 20.5,
          "duration": 0.25,
          "velocity": 80
        },
        {
          "pitch": 55,
          "onset": 20.75,
          "duration": 0.25,
          "velocity": 80
        },
        {
          "pitch": 57,
          "onset": 21.0,
          "duration": 0.25,
          "velocity": 80
        },
        {
          "pitch": 55,
          "onset": 21.25,
          "duration": 0.25,
          "velocity": 80
        },
        {
          "pitch": 57,
          "onset": 21.5,
          "duration": 0.25,
          "velocity": 80
        },
        {
          "pitch": 55,
          "onset": 21.75,
          "duration": 0.25,
          "velocity": 80
        },
        {
          "pitch": 55,
          "onset": 22.25,
          "duration": 0.25,
          "velocity": 80
        },
        {
          "pitch": 57,
          "onset": 22.5,
          "duration": 0.25,
          "velocity": 80
        },
        {
          "pitch": 55,
          "onset": 22.75,
          "duration": 0.25,
          "velocity": 80
        },
        {
          "pitch": 57,
          "onset": 23.0,
          "duration": 0.25,
          "velocity": 80
        },
        {
          "pitch": 55,
          "onset": 23.25,
          "duration": 0.25,
          "velocity": 80
        },
        {
          "pitch": 57,
          "onset": 23.5,
          "duration": 0.25,
          "velocity": 80
        },
        {
          "pitch": 55,
          "onset": 23.75,
          "duration": 0.25,
          "velocity": 80
        },
        {
          "pitch": 54,
          "onset": 24.0,
          "duration": 0.25,
          "velocity": 80
        },
        {
          "pitch": 57,
          "onset": 24.25,
          "duration": 0.25,
          "velocity": 80
        },
        {
          "pitch": 62,
          "onset": 24.5,
          "duration": 0.25,
          "velocity": 80
        },
        {
          "pitch": 61,
          "onset": 24.75,
          "duration": 0.25,
          "velocity": 80
        },
        {
          "pitch": 62,
          "onset": 25.0,
          "duration": 0.25,
          "velocity": 80
        },
        {
          "pitch": 57,
          "onset": 25.25,
          "duration": 0.25,
          "velocity": 80
        },
        {
          "pitch": 55,
          "onset": 25.5,
          "duration": 0.25,
          "velocity": 80
        },
        {
          "pitch": 57,
          "onset": 25.75,
          "duration": 0.25,
          "velocity": 80
        },
        {
          "pitch": 54,
          "onset": 26.0,
          "duration": 0.25,
          "velocity": 80
        },
        {
          "pitch": 57,
          "onset": 26.25,
          "duration": 0.25,
          "velocity": 80
        },
        {
          "pitch": 55,
          "onset": 26.5,
          "duration": 0.25,
          "velocity": 80
        },
        {
          "pitch": 57,
          "onset": 26.75,
          "duration": 0.25,
          "velocity": 80
        },
        {
          "pitch": 50,
          "onset": 27.0,
          "duration": 0.25,
          "velocity": 80
        },
        {
          "pitch": 54,
          "onset": 27.25,
          "duration": 0.25,
          "velocity": 80
        },
        {
          "pitch": 52,
          "onset": 27.5,
          "duration": 0.25,
          "velocity": 80
        },
        {
          "pitch": 50,
          "onset": 27.75,
          "duration": 0.25,
          "velocity": 80
        },
        {
          "pitch": 47,
          "onset": 28.25,
          "duration": 0.25,
          "velocity": 80
        },
        {
          "pitch": 55,
          "onset": 28.5,
          "duration": 0.25,
          "velocity": 80
        },
        {
          "pitch": 54,
          "onset": 28.75,
          "duration": 0.25,
          "velocity": 80
        },
        {
          "pitch": 55,
          "onset": 29.0,
          "duration": 0.25,
          "velocity": 80
        },
        {
          "pitch": 47,
          "onset": 29.25,
          "duration": 0.25,
          "velocity": 80
        },
        {
          "pitch": 55,
          "onset": 29.5,
          "duration": 0.25,
          "velocity": 80
        },
        {
          "pitch": 47,
          "onset": 29.75,
          "duration": 0.25,
          "velocity": 80
        },
        {
          "pitch": 47,
          "onset": 30.25,
          "duration": 0.25,
          "velocity": 80
        },
        {
          "pitch": 55,
          "onset": 30.5,
          "duration": 0.25,
          "velocity": 80
        },
        {
          "pitch": 54,
          "onset": 30.75,
          "duration": 0.25,
          "velocity": 80
        },
        {
          "pitch": 55,
          "onset": 31.0,
          "duration": 0.25,
          "velocity": 80
        },
        {
          "pitch": 47,
          "onset": 31.25,
          "duration": 0.25,
          "velocity": 80
        },
        {
          "pitch": 55,
          "onset": 31.5,
          "duration": 0.25,
          "velocity": 80
        },
        {
          "pitch": 47,
          "onset": 31.75,
          "duration": 0.25,
          "velocity": 80
        },
        {
          "pitch": 49,
          "onset": 32.25,
          "duration": 0.25,
          "velocity": 80
        },
        {
          "pitch": 50,
          "onset": 32.5,
          "duration": 0.25,
          "velocity": 80
        },
        {
          "pitch": 52,
          "onset": 32.75,
          "duration": 0.25,
          "velocity": 80
        },
        {
          "pitch": 50,
          "onset": 33.0,
          "duration": 0.25,
          "velocity": 80
        },
        {
          "pitch": 49,
          "onset": 33.25,
          "duration": 0.25,
          "velocity": 80
        },
        {
          "pitch": 47,
          "onset": 33.5,
          "duration": 0.25,
          "velocity": 80
        },
        {
          "pitch": 45,
          "onset": 33.75,
          "duration": 0.25,
          "velocity": 80
        },
        {
          "pitch": 55,
          "onset": 34.0,
          "duration": 0.25,
          "velocity": 80
        },
        {
          "pitch": 54,
          "onset": 34.25,
          "duration": 0.25,
          "velocity": 80
        },
        {
          "pitch": 52,
          "onset": 34.5,
          "duration": 0.25,
          "velocity": 80
        },
        {
          "pitch": 62,
          "onset": 34.75,
          "duration": 0.25,
          "velocity": 80
        },
        {
          "pitch": 61,
          "onset": 35.0,
          "duration": 0.25,
          "velocity": 80
        },
        {
          "pitch": 59,
          "onset": 35.25,
          "duration": 0.25,
          "velocity": 80
        },
        {
          "pitch": 57,
          "onset": 35.5,
          "duration": 0.25,
          "velocity": 80
        },
        {
          "pitch": 55,
          "onset": 35.75,
          "duration": 0.25,
          "velocity": 80
        },
        {
          "pitch": 54,
          "onset": 36.0,
          "duration": 0.25,
          "velocity": 80
        },
        {
          "pitch": 52,
          "onset": 36.25,
          "duration": 0.25,
          "velocity": 80
        },
        {
          "pitch": 50,
          "onset": 36.5,
          "duration": 0.25,
          "velocity": 80
        },
        {
          "pitch": 62,
          "onset": 36.75,
          "duration": 0.25,
          "velocity": 80
        },
        {
          "pitch": 57,
          "onset": 37.0,
          "duration": 0.25,
          "velocity": 80
        },
        {
          "pitch": 62,
          "onset": 37.25,
          "duration": 0.25,
          "velocity": 80
        },
        {
          "pitch": 54,
          "onset": 37.5,
          "duration": 0.25,
          "velocity": 80
        },
        {
          "pitch": 57,
          "onset": 37.75,
          "duration": 0.25,
          "velocity": 80
        },
        {
          "pitch": 50,
          "onset": 38.0,
          "duration": 0.25,
          "velocity": 80
        },
        {
          "pitch": 52,
          "onset": 38.25,
          "duration": 0.25,
          "velocity": 80
        },
        {
          "pitch": 54,
          "onset": 38.5,
          "duration": 0.25,
          "velocity": 80
        },
        {
          "pitch": 57,
          "onset": 38.75,
          "duration": 0.25,
          "velocity": 80
        },
        {
          "pitch": 55,
          "onset": 39.0,
          "duration": 0.25,
          "velocity": 80
        },
        {
          "pitch": 54,
          "onset": 39.25,
          "duration": 0.25,
          "velocity": 80
        },
        {
          "pitch": 52,
          "onset": 39.5,
          "duration": 0.25,
          "velocity": 80
        },
        {
          "pitch": 50,
          "onset": 39.75,
          "duration": 0.25,
          "velocity": 80
        },
        {
          "pitch": 56,
          "onset": 40.0,
          "duration": 0.25,
          "velocity": 80
        },
        {
          "pitch": 50,
          "onset": 40.25,
          "duration": 0.25,
          "velocity": 80
        },
        {
          "pitch": 53,
          "onset": 40.5,
          "duration": 0.25,
          "velocity": 80
        },
        {
          "pitch": 52,
          "onset": 40.75,
          "duration": 0.25,
          "velocity": 80
        },
        {
          "pitch": 53,
          "onset": 41.0,
          "duration": 0.25,
          "velocity": 80
        },
        {
          "pitch": 50,
          "onset": 41.25,
          "duration": 0.25,
          "velocity": 80
        },
        {
          "pitch": 56,
          "onset": 41.5,
          "duration": 0.25,
          "velocity": 80
        },
        {
          "pitch": 50,
          "onset": 41.75,
          "duration": 0.25,
          "velocity": 80
        },
        {
          "pitch": 59,
          "onset": 42.0,
          "duration": 0.25,
          "velocity": 80
        },
        {
          "pitch": 50,
          "onset": 42.25,
          "duration": 0.25,
          "velocity": 80
        },
        {
          "pitch": 53,
          "onset": 42.5,
          "duration": 0.25,
          "velocity": 80
        },
        {
          "pitch": 52,
          "onset": 42.75,
          "duration": 0.25,
          "velocity": 80
        },
        {
          "pitch": 53,
          "onset": 43.0,
          "duration": 0.25,
          "velocity": 80
        },
        {
          "pitch": 50,
          "onset": 43.25,
          "duration": 0.25,
          "velocity": 80
        },
        {
          "pitch": 56,
          "onset": 43.5,
          "duration": 0.25,
          "velocity": 80
        },
        {
          "pitch": 50,
          "onset": 43.75,
          "duration": 0.25,
          "velocity": 80
        },
        {
          "pitch": 48,
          "onset": 44.0,
          "duration": 0.25,
          "velocity": 80
        },
        {
          "pitch": 52,
          "onset": 44.25,
          "duration": 0.25,
          "velocity": 80
        },
        {
          "pitch": 57,
          "onset": 44.5,
          "duration": 0.25,
          "velocity": 80
        },
        {
          "pitch": 59,
          "onset": 44.75,
          "duration": 0.25,
          "velocity": 80
        },
        {
          "pitch": 60,
          "onset": 45.0,
          "duration": 0.25,
          "velocity": 80
        },
        {
          "pitch": 57,
          "onset": 45.25,
          "duration": 0.25,
          "velocity": 80
        },
        {
          "pitch": 52,
          "onset": 45.5,
          "duration": 0.25,
          "velocity": 80
        },
        {
          "pitch": 50,
          "onset": 45.75,
          "duration": 0.25,
          "velocity": 80
        },
        {
          "pitch": 48,
          "onset": 46.0,
          "duration": 0.25,
          "velocity": 80
        },
        {
          "pitch": 52,
          "onset": 46.25,
          "duration": 0.25,
          "velocity": 80
        },
        {
          "pitch": 57,
          "onset": 46.5,
          "duration": 0.25,
          "velocity": 80
        },
        {
          "pitch": 59,
          "onset": 46.75,
          "duration": 0.25,
          "velocity": 80
        },
        {
          "pitch": 60,
          "onset": 47.0,
          "duration": 0.25,
          "velocity": 80
        },
        {
          "pitch": 57,
          "onset": 47.25,
          "duration": 0.25,
          "velocity": 80
        },
        {
          "pitch": 54,
          "onset": 47.5,
          "duration": 0.25,
          "velocity": 80
        },
        {
          "pitch": 52,
          "onset": 47.75,
          "duration": 0.25,
          "velocity": 80
        },
        {
          "pitch": 51,
          "onset": 48.0,
          "duration": 0.25,
          "velocity": 80
        },
        {
          "pitch": 54,
          "onset": 48.25,
          "duration": 0.25,
          "velocity": 80
        },
        {
          "pitch": 51,
          "onset": 48.5,
          "duration": 0.25,
          "velocity": 80
        },
        {
          "pitch": 54,
          "onset": 48.75,
          "duration": 0.25,
          "velocity": 80
        },
        {
          "pitch": 57,
          "onset": 49.0,
          "duration": 0.25,
          "velocity": 80
        },
        {
          "pitch": 54,
          "onset": 49.25,
          "duration": 0.25,
          "velocity": 80
        },
        {
          "pitch": 57,
          "onset": 49.5,
          "duration": 0.25,
          "velocity": 80
        },
        {
          "pitch": 54,
          "onset": 49.75,
          "duration": 0.25,
          "velocity": 80
        },
        {
          "pitch": 51,
          "onset": 50.0,
          "duration": 0.25,
          "velocity": 80
        },
        {
          "pitch": 54,
          "onset": 50.25,
          "duration": 0.25,
          "velocity": 80
        },
        {
          "pitch": 51,
          "onset": 50.5,
          "duration": 0.25,
          "velocity": 80
        },
        {
          "pitch": 54,
          "onset": 50.75,
          "duration": 0.25,
          "velocity": 80
        },
        {
          "pitch": 57,
          "onset": 51.0,
          "duration": 0.25,
          "velocity": 80
        },
        {
          "pitch": 54,
          "onset": 51.25,
          "duration": 0.25,
          "velocity": 80
        },
        {
          "pitch": 57,
          "onset": 51.5,
          "duration": 0.25,
          "velocity": 80
        },
        {
          "pitch": 54,
          "onset": 51.75,
          "duration": 0.25,
          "velocity": 80
        },
        {
          "pitch": 55,
          "onset": 52.0,
          "duration": 0.25,
          "velocity": 80
        },
        {
          "pitch": 54,
          "onset": 52.25,
          "duration": 0.25,
          "velocity": 80
        },
        {
          "pitch": 52,
          "onset": 52.5,
          "duration": 0.25,
          "velocity": 80
        },
        {
          "pitch": 55,
          "onset": 52.75,
          "duration": 0.25,
          "velocity": 80
        },
        {
          "pitch": 54,
          "onset": 53.0,
          "duration": 0.25,
          "velocity": 80
        },
        {
          "pitch": 55,
          "onset": 53.25,
          "duration": 0.25,
          "velocity": 80
        },
        {
          "pitch": 57,
          "onset": 53.5,
          "duration": 0.25,
          "velocity": 80
        },
        {
          "pitch": 54,
          "onset": 53.75,
          "duration": 0.25,
          "velocity": 80
        },
        {
          "pitch": 55,
          "onset": 54.0,
          "duration": 0.25,
          "velocity": 80
        },
        {
          "pitch": 54,
          "onset": 54.25,
          "duration": 0.25,
          "velocity": 80
        },
        {
          "pitch": 52,
          "onset": 54.5,
          "duration": 0.25,
          "velocity": 80
        },
        {
          "pitch": 50,
          "onset": 54.75,
          "duration": 0.25,
          "velocity": 80
        },
        {
          "pitch": 48,
          "onset": 55.0,
          "duration": 0.25,
          "velocity": 80
        },
        {
          "pitch": 47,
          "onset": 55.25,
          "duration": 0.25,
          "velocity": 80
        },
        {
          "pitch": 45,
          "onset": 55.5,
          "duration": 0.25,
          "velocity": 80
        },
        {
          "pitch": 43,
          "onset": 55.75,
          "duration": 0.25,
          "velocity": 80
        },
        {
          "pitch": 48,
          "onset": 56.25,
          "duration": 0.25,
          "velocity": 80
        },
        {
          "pitch": 50,
          "onset": 56.5,
          "duration": 0.25,
          "velocity": 80
        },
        {
          "pitch": 48,
          "onset": 56.75,
          "duration": 0.25,
          "velocity": 80
        },
        {
          "pitch": 50,
          "onset": 57.0,
          "duration": 0.25,
          "velocity": 80
        },
        {
          "pitch": 48,
          "onset": 57.25,
          "duration": 0.25,
          "velocity": 80
        },
        {
          "pitch": 50,
          "onset": 57.5,
          "duration": 0.25,
          "velocity": 80
        },
        {
          "pitch": 48,
          "onset": 57.75,
          "duration": 0.25,
          "velocity": 80
        },
        {
          "pitch": 48,
          "onset": 58.25,
          "duration": 0.25,
          "velocity": 80
        },
        {
          "pitch": 50,
          "onset": 58.5,
          "duration": 0.25,
          "velocity": 80
        },
        {
          "pitch": 48,
          "onset": 58.75,
          "duration": 0.25,
          "velocity": 80
        },
        {
          "pitch": 50,
          "onset": 59.0,
          "duration": 0.25,
          "velocity": 80
        },
        {
          "pitch": 48,
          "onset": 59.25,
          "duration": 0.25,
          "velocity": 80
        },
        {
          "pitch": 50,
          "onset": 59.5,
          "duration": 0.25,
          "velocity": 80
        },
        {
          "pitch": 48,
          "onset": 59.75,
          "duration": 0.25,
          "velocity": 80
        },
        {
          "pitch": 47,
          "onset": 60.25,
          "duration": 0.25,
          "velocity": 100
        },
        {
          "pitch": 53,
          "onset": 60.5,
          "duration": 0.25,
          "velocity": 100
        },
        {
          "pitch": 52,
          "onset": 60.75,
          "duration": 0.25,
          "velocity": 100
        },
        {
          "pitch": 53,
          "onset": 61.0,
          "duration": 0.25,
          "velocity": 100
        },
        {
          "pitch": 47,
          "onset": 61.25,
          "duration": 0.25,
          "velocity": 100
        },
        {
          "pitch": 53,
          "onset": 61.5,
          "duration": 0.25,
          "velocity": 100
        },
        {
          "pitch": 47,
          "onset": 61.75,
          "duration": 0.25,
          "velocity": 100
        },
        {
          "pitch": 47,
          "onset": 62.25,
          "duration": 0.25,
          "velocity": 100
        },
        {
          "pitch": 53,
          "onset": 62.5,
          "duration": 0.25,
          "velocity": 100
        },
        {
          "pitch": 52,
          "onset": 62.75,
          "duration": 0.25,
          "velocity": 100
        },
        {
          "pitch": 53,
          "onset": 63.0,
          "duration": 0.25,
          "velocity": 100
        },
        {
          "pitch": 47,
          "onset": 63.25,
          "duration": 0.25,
          "velocity": 100
        },
        {
          "pitch": 53,
          "onset": 63.5,
          "duration": 0.25,
          "velocity": 100
        },
        {
          "pitch": 47,
          "onset": 63.75,
          "duration": 0.25,
          "velocity": 100
        },
        {
          "pitch": 48,
          "onset": 64.25,
          "duration": 0.25,
          "velocity": 100
        },
        {
          "pitch": 52,
          "onset": 64.5,
          "duration": 0.25,
          "velocity": 100
        },
        {
          "pitch": 50,
          "onset": 64.75,
          "duration": 0.25,
          "velocity": 100
        },
        {
          "pitch": 52,
          "onset": 65.0,
          "duration": 0.25,
          "velocity": 100
        },
        {
          "pitch": 48,
          "onset": 65.25,
          "duration": 0.25,
          "velocity": 100
        },
        {
          "pitch": 52,
          "onset": 65.5,
          "duration": 0.25,
          "velocity": 100
        },
        {
          "pitch": 48,
          "onset": 65.75,
          "duration": 0.25,
          "velocity": 100
        },
        {
          "pitch": 48,
          "onset": 66.25,
          "duration": 0.25,
          "velocity": 100
        },
        {
          "pitch": 52,
          "onset": 66.5,
          "duration": 0.25,
          "velocity": 100
        },
        {
          "pitch": 50,
          "onset": 66.75,
          "duration": 0.25,
          "velocity": 100
        },
        {
          "pitch": 52,
          "onset": 67.0,
          "duration": 0.25,
          "velocity": 100
        },
        {
          "pitch": 48,
          "onset": 67.25,
          "duration": 0.25,
          "velocity": 100
        },
        {
          "pitch": 52,
          "onset": 67.5,
          "duration": 0.25,
          "velocity": 100
        },
        {
          "pitch": 48,
          "onset": 67.75,
          "duration": 0.25,
          "velocity": 100
        },
        {
          "pitch": 54,
          "onset": 68.25,
          "duration": 0.25,
          "velocity": 100
        },
        {
          "pitch": 60,
          "onset": 68.5,
          "duration": 0.25,
          "velocity": 100
        },
        {
          "pitch": 59,
          "onset": 68.75,
          "duration": 0.25,
          "velocity": 100
        },
        {
          "pitch": 60,
          "onset": 69.0,
          "duration": 0.25,
          "velocity": 100
        },
        {
          "pitch": 54,
          "onset": 69.25,
          "duration": 0.25,
          "velocity": 100
        },
        {
          "pitch": 60,
          "onset": 69.5,
          "duration": 0.25,
          "velocity": 100
        },
        {
          "pitch": 54,
          "onset": 69.75,
          "duration": 0.25,
          "velocity": 100
        },
        {
          "pitch": 54,
          "onset": 70.25,
          "duration": 0.25,
          "velocity": 100
        },
        {
          "pitch": 60,
          "onset": 70.5,
          "duration": 0.25,
          "velocity": 100
        },
        {
          "pitch": 59,
          "onset": 70.75,
          "duration": 0.25,
          "velocity": 100
        },
        {
          "pitch": 60,
          "onset": 71.0,
          "duration": 0.25,
          "velocity": 100
        },
        {
          "pitch": 54,
          "onset": 71.25,
          "duration": 0.25,
          "velocity": 100
        },
        {
          "pitch": 60,
          "onset": 71.5,
          "duration": 0.25,
          "velocity": 100
        },
        {
          "pitch": 54,
          "onset": 71.75,
          "duration": 0.25,
          "velocity": 100
        },
        {
          "pitch": 50,
          "onset": 72.25,
          "duration": 0.25,
          "velocity": 100
        },
        {
          "pitch": 59,
          "onset": 72.5,
          "duration": 0.25,
          "velocity": 100
        },
        {
          "pitch": 57,
          "onset": 72.75,
          "duration": 0.25,
          "velocity": 100
        },
        {
          "pitch": 59,
          "onset": 73.0,
          "duration": 0.25,
          "velocity": 100
        },
        {
          "pitch": 55,
          "onset": 73.25,
          "duration": 0.25,
          "velocity": 100
        },
        {
          "pitch": 54,
          "onset": 73.5,
          "duration": 0.25,
          "velocity": 100
        },
        {
          "pitch": 52,
          "onset": 73.75,
          "duration": 0.25,
          "velocity": 100
        },
        {
          "pitch": 50,
          "onset": 74.0,
          "duration": 0.25,
          "velocity": 100
        },
        {
          "pitch": 48,
          "onset": 74.25,
          "duration": 0.25,
          "velocity": 100
        },
        {
          "pitch": 47,
          "onset": 74.5,
          "duration": 0.25,
          "velocity": 100
        },
        {
          "pitch": 45,
          "onset": 74.75,
          "duration": 0.25,
          "velocity": 100
        },
        {
          "pitch": 43,
          "onset": 75.0,
          "duration": 0.25,
          "velocity": 100
        },
        {
          "pitch": 42,
          "onset": 75.25,
          "duration": 0.25,
          "velocity": 100
        },
        {
          "pitch": 40,
          "onset": 75.5,
          "duration": 0.25,
          "velocity": 100
        },
        {
          "pitch": 38,
          "onset": 75.75,
          "duration": 0.25,
          "velocity": 100
        },
        {
          "pitch": 45,
          "onset": 76.25,
          "duration": 0.25,
          "velocity": 100
        },
        {
          "pitch": 52,
          "onset": 76.5,
          "duration": 0.25,
          "velocity": 100
        },
        {
          "pitch": 54,
          "onset": 76.75,
          "duration": 0.25,
          "velocity": 100
        },
        {
          "pitch": 55,
          "onset": 77.0,
          "duration": 0.25,
          "velocity": 100
        },
        {
          "pitch": 52,
          "onset": 77.25,
          "duration": 0.25,
          "velocity": 100
        },
        {
          "pitch": 54,
          "onset": 77.5,
          "duration": 0.25,
          "velocity": 100
        },
        {
          "pitch": 55,
          "onset": 77.75,
          "duration": 0.25,
          "velocity": 100
        },
        {
          "pitch": 45,
          "onset": 78.25,
          "duration": 0.25,
          "velocity": 100
        },
        {
          "pitch": 52,
          "onset": 78.5,
          "duration": 0.25,
          "velocity": 100
        },
        {
          "pitch": 54,
          "onset": 78.75,
          "duration": 0.25,
          "velocity": 100
        },
        {
          "pitch": 55,
          "onset": 79.0,
          "duration": 0.25,
          "velocity": 100
        },
        {
          "pitch": 52,
          "onset": 79.25,
          "duration": 0.25,
          "velocity": 100
        },
        {
          "pitch": 54,
          "onset": 79.5,
          "duration": 0.25,
          "velocity": 100
        },
        {
          "pitch": 55,
          "onset": 79.75,
          "duration": 0.25,
          "velocity": 100
        },
        {
          "pitch": 45,
          "onset": 80.25,
          "duration": 0.25,
          "velocity": 100
        },
        {
          "pitch": 50,
          "onset": 80.5,
          "duration": 0.25,
          "velocity": 100
        },
        {
          "pitch": 52,
          "onset": 80.75,
          "duration": 0.25,
          "velocity": 100
        },
        {
          "pitch": 54,
          "onset": 81.0,
          "duration": 0.25,
          "velocity": 100
        },
        {
          "pitch": 50,
          "onset": 81.25,
          "duration": 0.25,
          "velocity": 100
        },
        {
          "pitch": 52,
          "onset": 81.5,
          "duration": 0.25,
          "velocity": 100
        },
        {
          "pitch": 54,
          "onset": 81.75,
          "duration": 0.25,
          "velocity": 100
        },
        {
          "pitch": 45,
          "onset": 82.25,
          "duration": 0.25,
          "velocity": 100
        },
        {
          "pitch": 50,
          "onset": 82.5,
          "duration": 0.25,
          "velocity": 100
        },
        {
          "pitch": 52,
          "onset": 82.75,
          "duration": 0.25,
          "velocity": 100
        },
        {
          "pitch": 54,
          "onset": 83.0,
          "duration": 0.25,
          "velocity": 100
        },
        {
          "pitch": 50,
          "onset": 83.25,
          "duration": 0.25,
          "velocity": 100
        },
        {
          "pitch": 52,
          "onset": 83.5,
          "duration": 0.25,
          "velocity": 100
        },
        {
          "pitch": 54,
          "onset": 83.75,
          "duration": 0.25,
          "velocity": 100
        },
        {
          "pitch": 45,
          "onset": 84.25,
          "duration": 0.25,
          "velocity": 100
        },
        {
          "pitch": 50,
          "onset": 84.5,
          "duration": 0.25,
          "velocity": 100
        },
        {
          "pitch": 54,
          "onset": 84.75,
          "duration": 0.25,
          "velocity": 100
        },
        {
          "pitch": 59,
          "onset": 85.0,
          "duration": 0.25,
          "velocity": 100
        },
        {
          "pitch": 61,
          "onset": 85.25,
          "duration": 0.5,
          "velocity": 100
        },
        {
          "pitch": 62,
          "onset": 85.75,
          "duration": 3.25,
          "velocity": 100
        },
        {
          "pitch": 45,
          "onset": 90.25,
          "duration": 0.25,
          "velocity": 100
        },
        {
          "pitch": 47,
          "onset": 90.5,
          "duration": 0.25,
          "velocity": 100
        },
        {
          "pitch": 48,
          "onset": 90.75,
          "duration": 0.25,
          "velocity": 100
        },
        {
          "pitch": 50,
          "onset": 91.0,
          "duration": 0.25,
          "velocity": 100
        },
        {
          "pitch": 52,
          "onset": 91.25,
          "duration": 0.25,
          "velocity": 100
        },
        {
          "pitch": 54,
          "onset": 91.5,
          "duration": 0.25,
          "velocity": 100
        },
        {
          "pitch": 55,
          "onset": 91.75,
          "duration": 0.25,
          "velocity": 100
        },
        {
          "pitch": 57,
          "onset": 92.0,
          "duration": 0.25,
          "velocity": 100
        },
        {
          "pitch": 54,
          "onset": 92.25,
          "duration": 0.25,
          "velocity": 100
        },
        {
          "pitch": 50,
          "onset": 92.5,
          "duration": 0.25,
          "velocity": 100
        },
        {
          "pitch": 52,
          "onset": 92.75,
          "duration": 0.25,
          "velocity": 100
        },
        {
          "pitch": 54,
          "onset": 93.0,
          "duration": 0.25,
          "velocity": 100
        },
        {
          "pitch": 55,
          "onset": 93.25,
          "duration": 0.25,
          "velocity": 100
        },
        {
          "pitch": 57,
          "onset": 93.5,
          "duration": 0.25,
          "velocity": 100
        },
        {
          "pitch": 59,
          "onset": 93.75,
          "duration": 0.25,
          "velocity": 100
        },
        {
          "pitch": 60,
          "onset": 94.0,
          "duration": 0.25,
          "velocity": 100
        },
        {
          "pitch": 57,
          "onset": 94.25,
          "duration": 0.25,
          "velocity": 100
        },
        {
          "pitch": 54,
          "onset": 94.5,
          "duration": 0.25,
          "velocity": 100
        },
        {
          "pitch": 55,
          "onset": 94.75,
          "duration": 0.25,
          "velocity": 100
        },
        {
          "pitch": 57,
          "onset": 95.0,
          "duration": 0.25,
          "velocity": 100
        },
        {
          "pitch": 59,
          "onset": 95.25,
          "duration": 0.25,
          "velocity": 100
        },
        {
          "pitch": 60,
          "onset": 95.5,
          "duration": 0.25,
          "velocity": 100
        },
        {
          "pitch": 62,
          "onset": 95.75,
          "duration": 0.25,
          "velocity": 100
        },
        {
          "pitch": 63,
          "onset": 96.0,
          "duration": 0.25,
          "velocity": 100
        },
        {
          "pitch": 62,
          "onset": 96.25,
          "duration": 0.25,
          "velocity": 100
        },
        {
          "pitch": 61,
          "onset": 96.5,
          "duration": 0.25,
          "velocity": 100
        },
        {
          "pitch": 62,
          "onset": 96.75,
          "duration": 0.25,
          "velocity": 100
        },
        {
          "pitch": 62,
          "onset": 97.0,
          "duration": 0.25,
          "velocity": 100
        },
        {
          "pitch": 60,
          "onset": 97.25,
          "duration": 0.25,
          "velocity": 100
        },
        {
          "pitch": 59,
          "onset": 97.5,
          "duration": 0.25,
          "velocity": 100
        },
        {
          "pitch": 60,
          "onset": 97.75,
          "duration": 0.25,
          "velocity": 100
        },
        {
          "pitch": 60,
          "onset": 98.0,
          "duration": 0.25,
          "velocity": 100
        },
        {
          "pitch": 57,
          "onset": 98.25,
          "duration": 0.25,
          "velocity": 100
        },
        {
          "pitch": 54,
          "onset": 98.5,
          "duration": 0.25,
          "velocity": 100
        },
        {
          "pitch": 52,
          "onset": 98.75,
          "duration": 0.25,
          "velocity": 100
        },
        {
          "pitch": 50,
          "onset": 99.0,
          "duration": 0.25,
          "velocity": 100
        },
        {
          "pitch": 45,
          "onset": 99.25,
          "duration": 0.25,
          "velocity": 100
        },
        {
          "pitch": 47,
          "onset": 99.5,
          "duration": 0.25,
          "velocity": 100
        },
        {
          "pitch": 48,
          "onset": 99.75,
          "duration": 0.25,
          "velocity": 100
        },
        {
          "pitch": 45,
          "onset": 100.25,
          "duration": 0.25,
          "velocity": 100
        },
        {
          "pitch": 50,
          "onset": 100.5,
          "duration": 0.25,
          "velocity": 100
        },
        {
          "pitch": 54,
          "onset": 100.75,
          "duration": 0.25,
          "velocity": 100
        },
        {
          "pitch": 57,
          "onset": 101.0,
          "duration": 0.25,
          "velocity": 100
        },
        {
          "pitch": 59,
          "onset": 101.25,
          "duration": 0.25,
          "velocity": 100
        },
        {
          "pitch": 60,
          "onset": 101.5,
          "duration": 0.25,
          "velocity": 100
        },
        {
          "pitch": 57,
          "onset": 101.75,
          "duration": 0.25,
          "velocity": 100
        },
        {
          "pitch": 59,
          "onset": 102.0,
          "duration": 0.25,
          "velocity": 100
        },
        {
          "pitch": 55,
          "onset": 102.25,
          "duration": 0.25,
          "velocity": 100
        },
        {
          "pitch": 50,
          "onset": 102.5,
          "duration": 0.25,
          "velocity": 100
        },
        {
          "pitch": 48,
          "onset": 102.75,
          "duration": 0.25,
          "velocity": 100
        },
        {
          "pitch": 47,
          "onset": 103.0,
          "duration": 0.25,
          "velocity": 100
        },
        {
          "pitch": 43,
          "onset": 103.25,
          "duration": 0.25,
          "velocity": 100
        },
        {
          "pitch": 45,
          "onset": 103.5,
          "duration": 0.25,
          "velocity": 100
        },
        {
          "pitch": 47,
          "onset": 103.75,
          "duration": 0.25,
          "velocity": 100
        },
        {
          "pitch": 43,
          "onset": 104.25,
          "duration": 0.25,
          "velocity": 100
        },
        {
          "pitch": 47,
          "onset": 104.5,
          "duration": 0.25,
          "velocity": 100
        },
        {
          "pitch": 50,
          "onset": 104.75,
          "duration": 0.25,
          "velocity": 100
        },
        {
          "pitch": 55,
          "onset": 105.0,
          "duration": 0.25,
          "velocity": 100
        },
        {
          "pitch": 57,
          "onset": 105.25,
          "duration": 0.25,
          "velocity": 100
        },
        {
          "pitch": 59,
          "onset": 105.5,
          "duration": 0.25,
          "velocity": 100
        },
        {
          "pitch": 55,
          "onset": 105.75,
          "duration": 0.25,
          "velocity": 100
        },
        {
          "pitch": 61,
          "onset": 106.0,
          "duration": 0.25,
          "velocity": 100
        },
        {
          "pitch": 58,
          "onset": 106.25,
          "duration": 0.25,
          "velocity": 100
        },
        {
          "pitch": 57,
          "onset": 106.5,
          "duration": 0.25,
          "velocity": 100
        },
        {
          "pitch": 58,
          "onset": 106.75,
          "duration": 0.25,
          "velocity": 100
        },
        {
          "pitch": 58,
          "onset": 107.0,
          "duration": 0.25,
          "velocity": 100
        },
        {
          "pitch": 57,
          "onset": 107.25,
          "duration": 0.25,
          "velocity": 100
        },
        {
          "pitch": 56,
          "onset": 107.5,
          "duration": 0.25,
          "velocity": 100
        },
        {
          "pitch": 57,
          "onset": 107.75,
          "duration": 0.25,
          "velocity": 100
        },
        {
          "pitch": 57,
          "onset": 108.0,
          "duration": 0.25,
          "velocity": 100
        },
        {
          "pitch": 55,
          "onset": 108.25,
          "duration": 0.25,
          "velocity": 100
        },
        {
          "pitch": 54,
          "onset": 108.5,
          "duration": 0.25,
          "velocity": 100
        },
        {
          "pitch": 55,
          "onset": 108.75,
          "duration": 0.25,
          "velocity": 100
        },
        {
          "pitch": 55,
          "onset": 109.0,
          "duration": 0.25,
          "velocity": 100
        },
        {
          "pitch": 52,
          "onset": 109.25,
          "duration": 0.25,
          "velocity": 100
        },
        {
          "pitch": 49,
          "onset": 109.5,
          "duration": 0.25,
          "velocity": 100
        },
        {
          "pitch": 47,
          "onset": 109.75,
          "duration": 0.25,
          "velocity": 100
        },
        {
          "pitch": 45,
          "onset": 110.0,
          "duration": 0.25,
          "velocity": 100
        },
        {
          "pitch": 49,
          "onset": 110.25,
          "duration": 0.25,
          "velocity": 100
        },
        {
          "pitch": 52,
          "onset": 110.5,
          "duration": 0.25,
          "velocity": 100
        },
        {
          "pitch": 55,
          "onset": 110.75,
          "duration": 0.25,
          "velocity": 100
        },
        {
          "pitch": 57,
          "onset": 111.0,
          "duration": 0.25,
          "velocity": 100
        },
        {
          "pitch": 61,
          "onset": 111.25,
          "duration": 0.25,
          "velocity": 100
        },
        {
          "pitch": 62,
          "onset": 111.5,
          "duration": 0.25,
          "velocity": 100
        },
        {
          "pitch": 61,
          "onset": 111.75,
          "duration": 0.25,
          "velocity": 100
        },
        {
          "pitch": 62,
          "onset": 112.0,
          "duration": 0.25,
          "velocity": 100
        },
        {
          "pitch": 57,
          "onset": 112.25,
          "duration": 0.25,
          "velocity": 100
        },
        {
          "pitch": 54,
          "onset": 112.5,
          "duration": 0.25,
          "velocity": 100
        },
        {
          "pitch": 52,
          "onset": 112.75,
          "duration": 0.25,
          "velocity": 100
        },
        {
          "pitch": 54,
          "onset": 113.0,
          "duration": 0.25,
          "velocity": 100
        },
        {
          "pitch": 57,
          "onset": 113.25,
          "duration": 0.25,
          "velocity": 100
        },
        {
          "pitch": 50,
          "onset": 113.5,
          "duration": 0.25,
          "velocity": 100
        },
        {
          "pitch": 54,
          "onset": 113.75,
          "duration": 0.25,
          "velocity": 100
        },
        {
          "pitch": 45,
          "onset": 114.0,
          "duration": 0.25,
          "velocity": 100
        },
        {
          "pitch": 50,
          "onset": 114.25,
          "duration": 0.25,
          "velocity": 100
        },
        {
          "pitch": 49,
          "onset": 114.5,
          "duration": 0.25,
          "velocity": 100
        },
        {
          "pitch": 47,
          "onset": 114.75,
          "duration": 0.25,
          "velocity": 100
        },
        {
          "pitch": 45,
          "onset": 115.0,
          "duration": 0.25,
          "velocity": 100
        },
        {
          "pitch": 43,
          "onset": 115.25,
          "duration": 0.25,
          "velocity": 100
        },
        {
          "pitch": 42,
          "onset": 115.5,
          "duration": 0.25,
          "velocity": 100
        },
        {
          "pitch": 40,
          "onset": 115.75,
          "duration": 0.25,
          "velocity": 100
        },
        {
          "pitch": 60,
          "onset": 116.5,
          "duration": 0.25,
          "velocity": 100
        },
        {
          "pitch": 59,
          "onset": 116.75,
          "duration": 0.25,
          "velocity": 100
        },
        {
          "pitch": 57,
          "onset": 117.0,
          "duration": 0.25,
          "velocity": 100
        },
        {
          "pitch": 55,
          "onset": 117.25,
          "duration": 0.25,
          "velocity": 100
        },
        {
          "pitch": 54,
          "onset": 117.5,
          "duration": 0.25,
          "velocity": 100
        },
        {
          "pitch": 52,
          "onset": 117.75,
          "duration": 0.25,
          "velocity": 100
        },
        {
          "pitch": 50,
          "onset": 118.0,
          "duration": 0.25,
          "velocity": 100
        },
        {
          "pitch": 60,
          "onset": 118.25,
          "duration": 0.25,
          "velocity": 100
        },
        {
          "pitch": 59,
          "onset": 118.5,
          "duration": 0.25,
          "velocity": 100
        },
        {
          "pitch": 57,
          "onset": 118.75,
          "duration": 0.25,
          "velocity": 100
        },
        {
          "pitch": 55,
          "onset": 119.0,
          "duration": 0.25,
          "velocity": 100
        },
        {
          "pitch": 54,
          "onset": 119.25,
          "duration": 0.25,
          "velocity": 100
        },
        {
          "pitch": 52,
          "onset": 119.5,
          "duration": 0.25,
          "velocity": 100
        },
        {
          "pitch": 50,
          "onset": 119.75,
          "duration": 0.25,
          "velocity": 100
        },
        {
          "pitch": 48,
          "onset": 120.0,
          "duration": 0.25,
          "velocity": 100
        },
        {
          "pitch": 59,
          "onset": 120.25,
          "duration": 0.25,
          "velocity": 100
        },
        {
          "pitch": 57,
          "onset": 120.5,
          "duration": 0.25,
          "velocity": 100
        },
        {
          "pitch": 55,
          "onset": 120.75,
          "duration": 0.25,
          "velocity": 100
        },
        {
          "pitch": 54,
          "onset": 121.0,
          "duration": 0.25,
          "velocity": 100
        },
        {
          "pitch": 52,
          "onset": 121.25,
          "duration": 0.25,
          "velocity": 100
        },
        {
          "pitch": 50,
          "onset": 121.5,
          "duration": 0.25,
          "velocity": 100
        },
        {
          "pitch": 48,
          "onset": 121.75,
          "duration": 0.25,
          "velocity": 100
        },
        {
          "pitch": 47,
          "onset": 122.0,
          "duration": 0.25,
          "velocity": 100
        },
        {
          "pitch": 57,
          "onset": 122.25,
          "duration": 0.25,
          "velocity": 100
        },
        {
          "pitch": 55,
          "onset": 122.5,
          "duration": 0.25,
          "velocity": 100
        },
        {
          "pitch": 54,
          "onset": 122.75,
          "duration": 0.25,
          "velocity": 100
        },
        {
          "pitch": 52,
          "onset": 123.0,
          "duration": 0.25,
          "velocity": 100
        },
        {
          "pitch": 50,
          "onset": 123.25,
          "duration": 0.25,
          "velocity": 100
        },
        {
          "pitch": 48,
          "onset": 123.5,
          "duration": 0.25,
          "velocity": 100
        },
        {
          "pitch": 47,
          "onset": 123.75,
          "duration": 0.25,
          "velocity": 100
        },
        {
          "pitch": 45,
          "onset": 124.0,
          "duration": 0.25,
          "velocity": 100
        },
        {
          "pitch": 55,
          "onset": 124.25,
          "duration": 0.25,
          "velocity": 100
        },
        {
          "pitch": 54,
          "onset": 124.5,
          "duration": 0.25,
          "velocity": 100
        },
        {
          "pitch": 52,
          "onset": 124.75,
          "duration": 0.25,
          "velocity": 100
        },
        {
          "pitch": 54,
          "onset": 125.0,
          "duration": 0.25,
          "velocity": 100
        },
        {
          "pitch": 57,
          "onset": 125.25,
          "duration": 0.25,
          "velocity": 100
        },
        {
          "pitch": 50,
          "onset": 125.5,
          "duration": 0.25,
          "velocity": 100
        },
        {
          "pitch": 57,
          "onset": 125.75,
          "duration": 0.25,
          "velocity": 100
        },
        {
          "pitch": 52,
          "onset": 126.0,
          "duration": 0.25,
          "velocity": 100
        },
        {
          "pitch": 57,
          "onset": 126.25,
          "duration": 0.25,
          "velocity": 100
        },
        {
          "pitch": 54,
          "onset": 126.5,
          "duration": 0.25,
          "velocity": 100
        },
        {
          "pitch": 57,
          "onset": 126.75,
          "duration": 0.25,
          "velocity": 100
        },
        {
          "pitch": 55,
          "onset": 127.0,
          "duration": 0.25,
          "velocity": 100
        },
        {
          "pitch": 57,
          "onset": 127.25,
          "duration": 0.25,
          "velocity": 100
        },
        {
          "pitch": 52,
          "onset": 127.5,
          "duration": 0.25,
          "velocity": 100
        },
        {
          "pitch": 57,
          "onset": 127.75,
          "duration": 0.25,
          "velocity": 100
        },
        {
          "pitch": 54,
          "onset": 128.0,
          "duration": 0.25,
          "velocity": 100
        },
        {
          "pitch": 57,
          "onset": 128.25,
          "duration": 0.25,
          "velocity": 100
        },
        {
          "pitch": 50,
          "onset": 128.5,
          "duration": 0.25,
          "velocity": 100
        },
        {
          "pitch": 57,
          "onset": 128.75,
          "duration": 0.25,
          "velocity": 100
        },
        {
          "pitch": 55,
          "onset": 129.0,
          "duration": 0.25,
          "velocity": 100
        },
        {
          "pitch": 57,
          "onset": 129.25,
          "duration": 0.25,
          "velocity": 100
        },
        {
          "pitch": 52,
          "onset": 129.5,
          "duration": 0.25,
          "velocity": 100
        },
        {
          "pitch": 57,
          "onset": 129.75,
          "duration": 0.25,
          "velocity": 100
        },
        {
          "pitch": 54,
          "onset": 130.0,
          "duration": 0.25,
          "velocity": 100
        },
        {
          "pitch": 57,
          "onset": 130.25,
          "duration": 0.25,
          "velocity": 100
        },
        {
          "pitch": 50,
          "onset": 130.5,
          "duration": 0.25,
          "velocity": 100
        },
        {
          "pitch": 57,
          "onset": 130.75,
          "duration": 0.25,
          "velocity": 100
        },
        {
          "pitch": 55,
          "onset": 131.0,
          "duration": 0.25,
          "velocity": 100
        },
        {
          "pitch": 57,
          "onset": 131.25,
          "duration": 0.25,
          "velocity": 100
        },
        {
          "pitch": 52,
          "onset": 131.5,
          "duration": 0.25,
          "velocity": 100
        },
        {
          "pitch": 57,
          "onset": 131.75,
          "duration": 0.25,
          "velocity": 100
        },
        {
          "pitch": 54,
          "onset": 132.0,
          "duration": 0.25,
          "velocity": 100
        },
        {
          "pitch": 57,
          "onset": 132.25,
          "duration": 0.25,
          "velocity": 100
        },
        {
          "pitch": 50,
          "onset": 132.5,
          "duration": 0.25,
          "velocity": 100
        },
        {
          "pitch": 57,
          "onset": 132.75,
          "duration": 0.25,
          "velocity": 100
        },
        {
          "pitch": 52,
          "onset": 133.0,
          "duration": 0.25,
          "velocity": 100
        },
        {
          "pitch": 57,
          "onset": 133.25,
          "duration": 0.25,
          "velocity": 100
        },
        {
          "pitch": 54,
          "onset": 133.5,
          "duration": 0.25,
          "velocity": 100
        },
        {
          "pitch": 57,
          "onset": 133.75,
          "duration": 0.25,
          "velocity": 100
        },
        {
          "pitch": 57,
          "onset": 134.25,
          "duration": 0.5,
          "velocity": 100
        },
        {
          "pitch": 57,
          "onset": 134.75,
          "duration": 0.5,
          "velocity": 100
        },
        {
          "pitch": 57,
          "onset": 135.25,
          "duration": 0.5,
          "velocity": 100
        },
        {
          "pitch": 57,
          "onset": 135.75,
          "duration": 0.5,
          "velocity": 100
        },
        {
          "pitch": 57,
          "onset": 136.25,
          "duration": 0.5,
          "velocity": 100
        },
        {
          "pitch": 57,
          "onset": 136.75,
          "duration": 0.5,
          "velocity": 100
        },
        {
          "pitch": 57,
          "onset": 137.25,
          "duration": 0.5,
          "velocity": 100
        },
        {
          "pitch": 57,
          "onset": 137.75,
          "duration": 0.5,
          "velocity": 100
        },
        {
          "pitch": 57,
          "onset": 138.25,
          "duration": 0.5,
          "velocity": 100
        },
        {
          "pitch": 57,
          "onset": 138.75,
          "duration": 0.5,
          "velocity": 100
        },
        {
          "pitch": 57,
          "onset": 139.25,
          "duration": 0.5,
          "velocity": 100
        },
        {
          "pitch": 57,
          "onset": 139.75,
          "duration": 0.5,
          "velocity": 100
        },
        {
          "pitch": 57,
          "onset": 140.25,
          "duration": 0.5,
          "velocity": 100
        },
        {
          "pitch": 57,
          "onset": 140.75,
          "duration": 0.5,
          "velocity": 100
        },
        {
          "pitch": 57,
          "onset": 141.25,
          "duration": 0.5,
          "velocity": 100
        },
        {
          "pitch": 57,
          "onset": 141.75,
          "duration": 0.5,
          "velocity": 100
        },
        {
          "pitch": 57,
          "onset": 142.25,
          "duration": 0.5,
          "velocity": 100
        },
        {
          "pitch": 57,
          "onset": 142.75,
          "duration": 0.5,
          "velocity": 100
        },
        {
          "pitch": 57,
          "onset": 143.25,
          "duration": 0.5,
          "velocity": 100
        },
        {
          "pitch": 57,
          "onset": 143.75,
          "duration": 0.5,
          "velocity": 100
        },
        {
          "pitch": 57,
          "onset": 144.25,
          "duration": 0.5,
          "velocity": 100
        },
        {
          "pitch": 57,
          "onset": 144.75,
          "duration": 0.5,
          "velocity": 100
        },
        {
          "pitch": 57,
          "onset": 145.25,
          "duration": 0.5,
          "velocity": 100
        },
        {
          "pitch": 57,
          "onset": 145.75,
          "duration": 0.25,
          "velocity": 100
        },
        {
          "pitch": 55,
          "onset": 146.0,
          "duration": 0.25,
          "velocity": 100
        },
        {
          "pitch": 57,
          "onset": 146.25,
          "duration": 0.25,
          "velocity": 100
        },
        {
          "pitch": 54,
          "onset": 146.5,
          "duration": 0.25,
          "velocity": 100
        },
        {
          "pitch": 57,
          "onset": 146.75,
          "duration": 0.25,
          "velocity": 100
        },
        {
          "pitch": 55,
          "onset": 147.0,
          "duration": 0.25,
          "velocity": 100
        },
        {
          "pitch": 57,
          "onset": 147.25,
          "duration": 0.25,
          "velocity": 100
        },
        {
          "pitch": 52,
          "onset": 147.5,
          "duration": 0.25,
          "velocity": 100
        },
        {
          "pitch": 57,
          "onset": 147.75,
          "duration": 0.25,
          "velocity": 100
        },
        {
          "pitch": 54,
          "onset": 148.0,
          "duration": 0.25,
          "velocity": 100
        },
        {
          "pitch": 57,
          "onset": 148.25,
          "duration": 0.25,
          "velocity": 100
        },
        {
          "pitch": 50,
          "onset": 148.5,
          "duration": 0.25,
          "velocity": 100
        },
        {
          "pitch": 52,
          "onset": 148.75,
          "duration": 0.25,
          "velocity": 100
        },
        {
          "pitch": 53,
          "onset": 149.0,
          "duration": 0.25,
          "velocity": 100
        },
        {
          "pitch": 50,
          "onset": 149.25,
          "duration": 0.25,
          "velocity": 100
        },
        {
          "pitch": 54,
          "onset": 149.5,
          "duration": 0.25,
          "velocity": 100
        },
        {
          "pitch": 50,
          "onset": 149.75,
          "duration": 0.25,
          "velocity": 100
        },
        {
          "pitch": 55,
          "onset": 150.0,
          "duration": 0.25,
          "velocity": 100
        },
        {
          "pitch": 50,
          "onset": 150.25,
          "duration": 0.25,
          "velocity": 100
        },
        {
          "pitch": 56,
          "onset": 150.5,
          "duration": 0.25,
          "velocity": 100
        },
        {
          "pitch": 50,
          "onset": 150.75,
          "duration": 0.25,
          "velocity": 100
        },
        {
          "pitch": 57,
          "onset": 151.0,
          "duration": 0.25,
          "velocity": 100
        },
        {
          "pitch": 50,
          "onset": 151.25,
          "duration": 0.25,
          "velocity": 100
        },
        {
          "pitch": 58,
          "onset": 151.5,
          "duration": 0.25,
          "velocity": 100
        },
        {
          "pitch": 50,
          "onset": 151.75,
          "duration": 0.25,
          "velocity": 100
        },
        {
          "pitch": 59,
          "onset": 152.0,
          "duration": 0.25,
          "velocity": 100
        },
        {
          "pitch": 50,
          "onset": 152.25,
          "duration": 0.25,
          "velocity": 100
        },
        {
          "pitch": 60,
          "onset": 152.5,
          "duration": 0.25,
          "velocity": 100
        },
        {
          "pitch": 50,
          "onset": 152.75,
          "duration": 0.25,
          "velocity": 100
        },
        {
          "pitch": 61,
          "onset": 153.0,
          "duration": 0.25,
          "velocity": 100
        },
        {
          "pitch": 50,
          "onset": 153.25,
          "duration": 0.25,
          "velocity": 100
        },
        {
          "pitch": 62,
          "onset": 153.5,
          "duration": 0.25,
          "velocity": 100
        },
        {
          "pitch": 50,
          "onset": 153.75,
          "duration": 0.25,
          "velocity": 100
        },
        {
          "pitch": 63,
          "onset": 154.0,
          "duration": 0.25,
          "velocity": 100
        },
        {
          "pitch": 50,
          "onset": 154.25,
          "duration": 0.25,
          "velocity": 100
        },
        {
          "pitch": 64,
          "onset": 154.5,
          "duration": 0.25,
          "velocity": 100
        },
        {
          "pitch": 50,
          "onset": 154.75,
          "duration": 0.25,
          "velocity": 100
        },
        {
          "pitch": 65,
          "onset": 155.0,
          "duration": 0.25,
          "velocity": 100
        },
        {
          "pitch": 50,
          "onset": 155.25,
          "duration": 0.25,
          "velocity": 100
        },
        {
          "pitch": 66,
          "onset": 155.5,
          "duration": 0.25,
          "velocity": 100
        },
        {
          "pitch": 50,
          "onset": 155.75,
          "duration": 0.25,
          "velocity": 100
        },
        {
          "pitch": 67,
          "onset": 156.0,
          "duration": 0.25,
          "velocity": 100
        },
        {
          "pitch": 59,
          "onset": 156.25,
          "duration": 0.25,
          "velocity": 100
        },
        {
          "pitch": 50,
          "onset": 156.5,
          "duration": 0.25,
          "velocity": 100
        },
        {
          "pitch": 59,
          "onset": 156.75,
          "duration": 0.25,
          "velocity": 100
        },
        {
          "pitch": 67,
          "onset": 157.0,
          "duration": 0.25,
          "velocity": 100
        },
        {
          "pitch": 59,
          "onset": 157.25,
          "duration": 0.25,
          "velocity": 100
        },
        {
          "pitch": 67,
          "onset": 157.5,
          "duration": 0.25,
          "velocity": 100
        },
        {
          "pitch": 59,
          "onset": 157.75,
          "duration": 0.25,
          "velocity": 100
        },
        {
          "pitch": 67,
          "onset": 158.0,
          "duration": 0.25,
          "velocity": 100
        },
        {
          "pitch": 59,
          "onset": 158.25,
          "duration": 0.25,
          "velocity": 100
        },
        {
          "pitch": 50,
          "onset": 158.5,
          "duration": 0.25,
          "velocity": 100
        },
        {
          "pitch": 59,
          "onset": 158.75,
          "duration": 0.25,
          "velocity": 100
        },
        {
          "pitch": 67,
          "onset": 159.0,
          "duration": 0.25,
          "velocity": 100
        },
        {
          "pitch": 59,
          "onset": 159.25,
          "duration": 0.25,
          "velocity": 100
        },
        {
          "pitch": 67,
          "onset": 159.5,
          "duration": 0.25,
          "velocity": 100
        },
        {
          "pitch": 59,
          "onset": 159.75,
          "duration": 0.25,
          "velocity": 100
        },
        {
          "pitch": 67,
          "onset": 160.0,
          "duration": 0.25,
          "velocity": 100
        },
        {
          "pitch": 57,
          "onset": 160.25,
          "duration": 0.25,
          "velocity": 100
        },
        {
          "pitch": 50,
          "onset": 160.5,
          "duration": 0.25,
          "velocity": 100
        },
        {
          "pitch": 57,
          "onset": 160.75,
          "duration": 0.25,
          "velocity": 100
        },
        {
          "pitch": 67,
          "onset": 161.0,
          "duration": 0.25,
          "velocity": 100
        },
        {
          "pitch": 57,
          "onset": 161.25,
          "duration": 0.25,
          "velocity": 100
        },
        {
          "pitch": 67,
          "onset": 161.5,
          "duration": 0.25,
          "velocity": 100
        },
        {
          "pitch": 57,
          "onset": 161.75,
          "duration": 0.25,
          "velocity": 100
        },
        {
          "pitch": 67,
          "onset": 162.0,
          "duration": 0.25,
          "velocity": 100
        },
        {
          "pitch": 57,
          "onset": 162.25,
          "duration": 0.25,
          "velocity": 100
        },
        {
          "pitch": 50,
          "onset": 162.5,
          "duration": 0.25,
          "velocity": 100
        },
        {
          "pitch": 57,
          "onset": 162.75,
          "duration": 0.25,
          "velocity": 100
        },
        {
          "pitch": 67,
          "onset": 163.0,
          "duration": 0.25,
          "velocity": 100
        },
        {
          "pitch": 57,
          "onset": 163.25,
          "duration": 0.25,
          "velocity": 100
        },
        {
          "pitch": 67,
          "onset": 163.5,
          "duration": 0.25,
          "velocity": 100
        },
        {
          "pitch": 57,
          "onset": 163.75,
          "duration": 0.25,
          "velocity": 100
        },
        {
          "pitch": 66,
          "onset": 164.0,
          "duration": 0.25,
          "velocity": 100
        },
        {
          "pitch": 60,
          "onset": 164.25,
          "duration": 0.25,
          "velocity": 100
        },
        {
          "pitch": 50,
          "onset": 164.5,
          "duration": 0.25,
          "velocity": 100
        },
        {
          "pitch": 60,
          "onset": 164.75,
          "duration": 0.25,
          "velocity": 100
        },
        {
          "pitch": 66,
          "onset": 165.0,
          "duration": 0.25,
          "velocity": 100
        },
        {
          "pitch": 60,
          "onset": 165.25,
          "duration": 0.25,
          "velocity": 100
        },
        {
          "pitch": 66,
          "onset": 165.5,
          "duration": 0.25,
          "velocity": 100
        },
        {
          "pitch": 60,
          "onset": 165.75,
          "duration": 0.25,
          "velocity": 100
        },
        {
          "pitch": 66,
          "onset": 166.0,
          "duration": 0.25,
          "velocity": 100
        },
        {
          "pitch": 60,
          "onset": 166.25,
          "duration": 0.25,
          "velocity": 100
        },
        {
          "pitch": 50,
          "onset": 166.5,
          "duration": 0.25,
          "velocity": 100
        },
        {
          "pitch": 60,
          "onset": 166.75,
          "duration": 0.25,
          "velocity": 100
        },
        {
          "pitch": 66,
          "onset": 167.0,
          "duration": 0.25,
          "velocity": 100
        },
        {
          "pitch": 60,
          "onset": 167.25,
          "duration": 0.25,
          "velocity": 100
        },
        {
          "pitch": 66,
          "onset": 167.5,
          "duration": 0.25,
          "velocity": 100
        },
        {
          "pitch": 60,
          "onset": 167.75,
          "duration": 0.5,
          "velocity": 100
        },
        {
          "pitch": 59,
          "onset": 168.75,
          "duration": 3.25,
          "velocity": 100
        },
        {
          "pitch": 67,
          "onset": 168.75,
          "duration": 3.25,
          "velocity": 100
        },
        {
          "pitch": 55,
          "onset": 174.25,
          "duration": 0.25,
          "velocity": 1
        }
      ]
    },
    {
      "role": "solo_1",
      "notes": [
        {
          "pitch": 43,
          "onset": 0.0,
          "duration": 0.375,
          "velocity": 80
        },
        {
          "pitch": 43,
          "onset": 2.0,
          "duration": 0.375,
          "velocity": 80
        },
        {
          "pitch": 43,
          "onset": 4.0,
          "duration": 0.375,
          "velocity": 80
        },
        {
          "pitch": 43,
          "onset": 6.0,
          "duration": 0.375,
          "velocity": 80
        },
        {
          "pitch": 43,
          "onset": 8.0,
          "duration": 0.375,
          "velocity": 80
        },
        {
          "pitch": 43,
          "onset": 10.0,
          "duration": 0.375,
          "velocity": 80
        },
        {
          "pitch": 43,
          "onset": 12.0,
          "duration": 0.375,
          "velocity": 80
        },
        {
          "pitch": 43,
          "onset": 14.0,
          "duration": 0.375,
          "velocity": 80
        },
        {
          "pitch": 43,
          "onset": 16.0,
          "duration": 0.375,
          "velocity": 80
        },
        {
          "pitch": 49,
          "onset": 20.0,
          "duration": 0.375,
          "velocity": 80
        },
        {
          "pitch": 49,
          "onset": 22.0,
          "duration": 0.375,
          "velocity": 80
        },
        {
          "pitch": 40,
          "onset": 28.0,
          "duration": 0.375,
          "velocity": 80
        },
        {
          "pitch": 40,
          "onset": 30.0,
          "duration": 0.375,
          "velocity": 80
        },
        {
          "pitch": 40,
          "onset": 32.0,
          "duration": 0.375,
          "velocity": 80
        },
        {
          "pitch": 42,
          "onset": 56.0,
          "duration": 0.375,
          "velocity": 80
        },
        {
          "pitch": 42,
          "onset": 58.0,
          "duration": 0.375,
          "velocity": 80
        },
        {
          "pitch": 43,
          "onset": 60.0,
          "duration": 0.375,
          "velocity": 100
        },
        {
          "pitch": 43,
          "onset": 62.0,
          "duration": 0.375,
          "velocity": 100
        },
        {
          "pitch": 43,
          "onset": 64.0,
          "duration": 0.375,
          "velocity": 100
        },
        {
          "pitch": 43,
          "onset": 66.0,
          "duration": 0.375,
          "velocity": 100
        },
        {
          "pitch": 43,
          "onset": 68.0,
          "duration": 0.375,
          "velocity": 100
        },
        {
          "pitch": 43,
          "onset": 70.0,
          "duration": 0.375,
          "velocity": 100
        },
        {
          "pitch": 43,
          "onset": 72.0,
          "duration": 0.375,
          "velocity": 100
        },
        {
          "pitch": 37,
          "onset": 76.0,
          "duration": 0.375,
          "velocity": 100
        },
        {
          "pitch": 37,
          "onset": 78.0,
          "duration": 0.375,
          "velocity": 100
        },
        {
          "pitch": 36,
          "onset": 80.0,
          "duration": 0.375,
          "velocity": 100
        },
        {
          "pitch": 36,
          "onset": 82.0,
          "duration": 0.375,
          "velocity": 100
        },
        {
          "pitch": 36,
          "onset": 84.0,
          "duration": 0.375,
          "velocity": 100
        },
        {
          "pitch": 38,
          "onset": 100.0,
          "duration": 0.375,
          "velocity": 100
        },
        {
          "pitch": 38,
          "onset": 104.0,
          "duration": 0.375,
          "velocity": 100
        },
        {
          "pitch": 38,
          "onset": 116.0,
          "duration": 0.375,
          "velocity": 100
        },
        {
          "pitch": 55,
          "onset": 134.0,
          "duration": 0.5,
          "velocity": 100
        },
        {
          "pitch": 57,
          "onset": 134.5,
          "duration": 0.5,
          "velocity": 100
        },
        {
          "pitch": 59,
          "onset": 135.0,
          "duration": 0.5,
          "velocity": 100
        },
        {
          "pitch": 50,
          "onset": 135.5,
          "duration": 0.5,
          "velocity": 100
        },
        {
          "pitch": 57,
          "onset": 136.0,
          "duration": 0.5,
          "velocity": 100
        },
        {
          "pitch": 59,
          "onset": 136.5,
          "duration": 0.5,
          "velocity": 100
        },
        {
          "pitch": 60,
          "onset": 137.0,
          "duration": 0.5,
          "velocity": 100
        },
        {
          "pitch": 50,
          "onset": 137.5,
          "duration": 0.5,
          "velocity": 100
        },
        {
          "pitch": 59,
          "onset": 138.0,
          "duration": 0.5,
          "velocity": 100
        },
        {
          "pitch": 60,
          "onset": 138.5,
          "duration": 0.5,
          "velocity": 100
        },
        {
          "pitch": 62,
          "onset": 139.0,
          "duration": 0.5,
          "velocity": 100
        },
        {
          "pitch": 59,
          "onset": 139.5,
          "duration": 0.5,
          "velocity": 100
        },
        {
          "pitch": 60,
          "onset": 140.0,
          "duration": 0.5,
          "velocity": 100
        },
        {
          "pitch": 59,
          "onset": 140.5,
          "duration": 0.5,
          "velocity": 100
        },
        {
          "pitch": 60,
          "onset": 141.0,
          "duration": 0.5,
          "velocity": 100
        },
        {
          "pitch": 57,
          "onset": 141.5,
          "duration": 0.5,
          "velocity": 100
        },
        {
          "pitch": 59,
          "onset": 142.0,
          "duration": 0.5,
          "velocity": 100
        },
        {
          "pitch": 57,
          "onset": 142.5,
          "duration": 0.5,
          "velocity": 100
        },
        {
          "pitch": 59,
          "onset": 143.0,
          "duration": 0.5,
          "velocity": 100
        },
        {
          "pitch": 55,
          "onset": 143.5,
          "duration": 0.5,
          "velocity": 100
        },
        {
          "pitch": 57,
          "onset": 144.0,
          "duration": 0.5,
          "velocity": 100
        },
        {
          "pitch": 55,
          "onset": 144.5,
          "duration": 0.5,
          "velocity": 100
        },
        {
          "pitch": 57,
          "onset": 145.0,
          "duration": 0.5,
          "velocity": 100
        },
        {
          "pitch": 54,
          "onset": 145.5,
          "duration": 0.5,
          "velocity": 100
        },
        {
          "pitch": 43,
          "onset": 168.25,
          "duration": 3.75,
          "velocity": 100
        }
      ]
    }
  ]
}