{
  "bwv": 1009,
  "category": "solo_cello_suite",
  "instrument": "cello",
  "form": "",
  "movement": 4,
  "ticks_per_beat": 384,
  "duration_seconds": 181.3,
  "tempos": [
    {
      "tick": 0,
      "bpm": 50
    },
    {
      "tick": 384,
      "bpm": 45
    },
    {
      "tick": 768,
      "bpm": 40
    },
    {
      "tick": 1152,
      "bpm": 50
    },
    {
      "tick": 1536,
      "bpm": 45
    },
    {
      "tick": 1920,
      "bpm": 40
    },
    {
      "tick": 2304,
      "bpm": 50
    },
    {
      "tick": 4224,
      "bpm": 45
    },
    {
      "tick": 4416,
      "bpm": 40
    },
    {
      "tick": 4608,
      "bpm": 50
    },
    {
      "tick": 9600,
      "bpm": 45
    },
    {
      "tick": 9984,
      "bpm": 40
    },
    {
      "tick": 10368,
      "bpm": 50
    },
    {
      "tick": 10752,
      "bpm": 45
    },
    {
      "tick": 11136,
      "bpm": 40
    },
    {
      "tick": 11520,
      "bpm": 50
    },
    {
      "tick": 13440,
      "bpm": 45
    },
    {
      "tick": 13632,
      "bpm": 40
    },
    {
      "tick": 13824,
      "bpm": 50
    },
    {
      "tick": 26112,
      "bpm": 50
    },
    {
      "tick": 26304,
      "bpm": 50
    },
    {
      "tick": 26400,
      "bpm": 45
    },
    {
      "tick": 28416,
      "bpm": 50
    },
    {
      "tick": 31872,
      "bpm": 45
    },
    {
      "tick": 32064,
      "bpm": 40
    },
    {
      "tick": 32256,
      "bpm": 50
    },
    {
      "tick": 35328,
      "bpm": 50
    },
    {
      "tick": 35520,
      "bpm": 45
    },
    {
      "tick": 35616,
      "bpm": 40
    },
    {
      "tick": 35712,
      "bpm": 45
    },
    {
      "tick": 36864,
      "bpm": 50
    },
    {
      "tick": 37632,
      "bpm": 50
    },
    {
      "tick": 37824,
      "bpm": 50
    },
    {
      "tick": 37920,
      "bpm": 45
    },
    {
      "tick": 38016,
      "bpm": 50
    },
    {
      "tick": 38784,
      "bpm": 50
    },
    {
      "tick": 38976,
      "bpm": 50
    },
    {
      "tick": 39072,
      "bpm": 45
    },
    {
      "tick": 39168,
      "bpm": 50
    },
    {
      "tick": 44544,
      "bpm": 50
    },
    {
      "tick": 44736,
      "bpm": 50
    },
    {
      "tick": 44832,
      "bpm": 45
    },
    {
      "tick": 44928,
      "bpm": 45
    },
    {
      "tick": 46080,
      "bpm": 50
    },
    {
      "tick": 50304,
      "bpm": 45
    },
    {
      "tick": 50496,
      "bpm": 40
    },
    {
      "tick": 50688,
      "bpm": 50
    },
    {
      "tick": 53760,
      "bpm": 50
    },
    {
      "tick": 53952,
      "bpm": 45
    },
    {
      "tick": 54048,
      "bpm": 40
    }
  ],
  "time_signatures": [
    {
      "tick": 0,
      "numerator": 3,
      "denominator": 4
    }
  ],
  "track_type": "solo_string",
  "voice_count": 2,
  "total_notes": 443,
  "tracks": [
    {
      "role": "solo_0",
      "notes": [
        {
          "pitch": 52,
          "onset": 0.0,
          "duration": 1.0,
          "velocity": 80
        },
        {
          "pitch": 60,
          "onset": 0.125,
          "duration": 0.8438,
          "velocity": 80
        },
        {
          "pitch": 60,
          "onset": 1.0,
          "duration": 0.75,
          "velocity": 80
        },
        {
          "pitch": 57,
          "onset": 1.75,
          "duration": 0.25,
          "velocity": 80
        },
        {
          "pitch": 59,
          "onset": 2.0,
          "duration": 1.0,
          "velocity": 80
        },
        {
          "pitch": 52,
          "onset": 3.0,
          "duration": 1.0,
          "velocity": 80
        },
        {
          "pitch": 58,
          "onset": 3.125,
          "duration": 0.8438,
          "velocity": 80
        },
        {
          "pitch": 58,
          "onset": 4.0,
          "duration": 0.75,
          "velocity": 80
        },
        {
          "pitch": 55,
          "onset": 4.75,
          "duration": 0.25,
          "velocity": 80
        },
        {
          "pitch": 57,
          "onset": 5.0,
          "duration": 1.0,
          "velocity": 80
        },
        {
          "pitch": 50,
          "onset": 6.0,
          "duration": 0.5,
          "velocity": 80
        },
        {
          "pitch": 52,
          "onset": 6.5,
          "duration": 0.25,
          "velocity": 80
        },
        {
          "pitch": 53,
          "onset": 6.75,
          "duration": 0.25,
          "velocity": 80
        },
        {
          "pitch": 53,
          "onset": 7.125,
          "duration": 0.5938,
          "velocity": 80
        },
        {
          "pitch": 50,
          "onset": 7.75,
          "duration": 0.25,
          "velocity": 80
        },
        {
          "pitch": 52,
          "onset": 8.0,
          "duration": 0.5,
          "velocity": 80
        },
        {
          "pitch": 53,
          "onset": 8.5,
          "duration": 0.5,
          "velocity": 80
        },
        {
          "pitch": 48,
          "onset": 9.0,
          "duration": 0.25,
          "velocity": 80
        },
        {
          "pitch": 47,
          "onset": 9.25,
          "duration": 0.25,
          "velocity": 80
        },
        {
          "pitch": 48,
          "onset": 9.5,
          "duration": 0.25,
          "velocity": 80
        },
        {
          "pitch": 45,
          "onset": 9.75,
          "duration": 0.25,
          "velocity": 80
        },
        {
          "pitch": 47,
          "onset": 10.0,
          "duration": 0.5,
          "velocity": 80
        },
        {
          "pitch": 50,
          "onset": 10.5,
          "duration": 0.5,
          "velocity": 80
        },
        {
          "pitch": 48,
          "onset": 12.0,
          "duration": 1.0,
          "velocity": 80
        },
        {
          "pitch": 55,
          "onset": 12.125,
          "duration": 0.8438,
          "velocity": 80
        },
        {
          "pitch": 55,
          "onset": 13.0,
          "duration": 0.75,
          "velocity": 80
        },
        {
          "pitch": 52,
          "onset": 13.75,
          "duration": 0.25,
          "velocity": 80
        },
        {
          "pitch": 54,
          "onset": 14.0,
          "duration": 0.25,
          "velocity": 80
        },
        {
          "pitch": 50,
          "onset": 14.25,
          "duration": 0.25,
          "velocity": 80
        },
        {
          "pitch": 54,
          "onset": 14.5,
          "duration": 0.25,
          "velocity": 80
        },
        {
          "pitch": 57,
          "onset": 14.75,
          "duration": 0.25,
          "velocity": 80
        },
        {
          "pitch": 54,
          "onset": 15.0,
          "duration": 1.0,
          "velocity": 80
        },
        {
          "pitch": 60,
          "onset": 15.125,
          "duration": 0.8438,
          "velocity": 80
        },
        {
          "pitch": 60,
          "onset": 16.125,
          "duration": 0.5938,
          "velocity": 80
        },
        {
          "pitch": 57,
          "onset": 16.75,
          "duration": 0.25,
          "velocity": 80
        },
        {
          "pitch": 60,
          "onset": 17.0,
          "duration": 0.25,
          "velocity": 80
        },
        {
          "pitch": 59,
          "onset": 17.25,
          "duration": 0.25,
          "velocity": 80
        },
        {
          "pitch": 57,
          "onset": 17.5,
          "duration": 0.25,
          "velocity": 80
        },
        {
          "pitch": 55,
          "onset": 17.75,
          "duration": 0.25,
          "velocity": 80
        },
        {
          "pitch": 55,
          "onset": 18.0,
          "duration": 0.5,
          "velocity": 80
        },
        {
          "pitch": 57,
          "onset": 18.125,
          "duration": 0.375,
          "velocity": 80
        },
        {
          "pitch": 58,
          "onset": 18.5,
          "duration": 0.25,
          "velocity": 80
        },
        {
          "pitch": 60,
          "onset": 18.75,
          "duration": 0.25,
          "velocity": 80
        },
        {
          "pitch": 58,
          "onset": 19.0,
          "duration": 0.5,
          "velocity": 80
        },
        {
          "pitch": 57,
          "onset": 19.5,
          "duration": 0.25,
          "velocity": 80
        },
        {
          "pitch": 60,
          "onset": 19.75,
          "duration": 0.25,
          "velocity": 80
        },
        {
          "pitch": 63,
          "onset": 20.0,
          "duration": 0.5,
          "velocity": 80
        },
        {
          "pitch": 54,
          "onset": 20.5,
          "duration": 0.5,
          "velocity": 80
        },
        {
          "pitch": 55,
          "onset": 21.0,
          "duration": 1.0,
          "velocity": 80
        },
        {
          "pitch": 55,
          "onset": 22.0,
          "duration": 2.0,
          "velocity": 80
        },
        {
          "pitch": 52,
          "onset": 24.0,
          "duration": 1.0,
          "velocity": 80
        },
        {
          "pitch": 60,
          "onset": 24.125,
          "duration": 0.8438,
          "velocity": 80
        },
        {
          "pitch": 60,
          "onset": 25.0,
          "duration": 0.75,
          "velocity": 80
        },
        {
          "pitch": 57,
          "onset": 25.75,
          "duration": 0.25,
          "velocity": 80
        },
        {
          "pitch": 59,
          "onset": 26.0,
          "duration": 1.0,
          "velocity": 80
        },
        {
          "pitch": 52,
          "onset": 27.0,
          "duration": 1.0,
          "velocity": 80
        },
        {
          "pitch": 58,
          "onset": 27.125,
          "duration": 0.8438,
          "velocity": 80
        },
        {
          "pitch": 58,
          "onset": 28.0,
          "duration": 0.75,
          "velocity": 80
        },
        {
          "pitch": 55,
          "onset": 28.75,
          "duration": 0.25,
          "velocity": 80
        },
        {
          "pitch": 57,
          "onset": 29.0,
          "duration": 1.0,
          "velocity": 80
        },
        {
          "pitch": 50,
          "onset": 30.0,
          "duration": 0.5,
          "velocity": 80
        },
        {
          "pitch": 52,
          "onset": 30.5,
          "duration": 0.25,
          "velocity": 80
        },
        {
          "pitch": 53,
          "onset": 30.75,
          "duration": 0.25,
          "velocity": 80
        },
        {
          "pitch": 53,
          "onset": 31.125,
          "duration": 0.5938,
          "velocity": 80
        },
        {
          "pitch": 50,
          "onset": 31.75,
          "duration": 0.25,
          "velocity": 80
        },
        {
          "pitch": 52,
          "onset": 32.0,
          "duration": 0.5,
          "velocity": 80
        },
        {
          "pitch": 53,
          "onset": 32.5,
          "duration": 0.5,
          "velocity": 80
        },
        {
          "pitch": 48,
          "onset": 33.0,
          "duration": 0.25,
          "velocity": 80
        },
        {
          "pitch": 47,
          "onset": 33.25,
          "duration": 0.25,
          "velocity": 80
        },
        {
          "pitch": 48,
          "onset": 33.5,
          "duration": 0.25,
          "velocity": 80
        },
        {
          "pitch": 45,
          "onset": 33.75,
          "duration": 0.25,
          "velocity": 80
        },
        {
          "pitch": 47,
          "onset": 34.0,
          "duration": 0.5,
          "velocity": 80
        },
        {
          "pitch": 50,
          "onset": 34.5,
          "duration": 0.5,
          "velocity": 80
        },
        {
          "pitch": 48,
          "onset": 36.0,
          "duration": 1.0,
          "velocity": 80
        },
        {
          "pitch": 55,
          "onset": 36.125,
          "duration": 0.8438,
          "velocity": 80
        },
        {
          "pitch": 55,
          "onset": 37.0,
          "duration": 0.75,
          "velocity": 80
        },
        {
          "pitch": 52,
          "onset": 37.75,
          "duration": 0.25,
          "velocity": 80
        },
        {
          "pitch": 54,
          "onset": 38.0,
          "duration": 0.25,
          "velocity": 80
        },
        {
          "pitch": 50,
          "onset": 38.25,
          "duration": 0.25,
          "velocity": 80
        },
        {
          "pitch": 54,
          "onset": 38.5,
          "duration": 0.25,
          "velocity": 80
        },
        {
          "pitch": 57,
          "onset": 38.75,
          "duration": 0.25,
          "velocity": 80
        },
        {
          "pitch": 54,
          "onset": 39.0,
          "duration": 1.0,
          "velocity": 80
        },
        {
          "pitch": 60,
          "onset": 39.125,
          "duration": 0.8438,
          "velocity": 80
        },
        {
          "pitch": 60,
          "onset": 40.125,
          "duration": 0.5938,
          "velocity": 80
        },
        {
          "pitch": 57,
          "onset": 40.75,
          "duration": 0.25,
          "velocity": 80
        },
        {
          "pitch": 60,
          "onset": 41.0,
          "duration": 0.25,
          "velocity": 80
        },
        {
          "pitch": 59,
          "onset": 41.25,
          "duration": 0.25,
          "velocity": 80
        },
        {
          "pitch": 57,
          "onset": 41.5,
          "duration": 0.25,
          "velocity": 80
        },
        {
          "pitch": 55,
          "onset": 41.75,
          "duration": 0.25,
          "velocity": 80
        },
        {
          "pitch": 55,
          "onset": 42.0,
          "duration": 0.5,
          "velocity": 80
        },
        {
          "pitch": 57,
          "onset": 42.125,
          "duration": 0.375,
          "velocity": 80
        },
        {
          "pitch": 58,
          "onset": 42.5,
          "duration": 0.25,
          "velocity": 80
        },
        {
          "pitch": 60,
          "onset": 42.75,
          "duration": 0.25,
          "velocity": 80
        },
        {
          "pitch": 58,
          "onset": 43.0,
          "duration": 0.5,
          "velocity": 80
        },
        {
          "pitch": 57,
          "onset": 43.5,
          "duration": 0.25,
          "velocity": 80
        },
        {
          "pitch": 60,
          "onset": 43.75,
          "duration": 0.25,
          "velocity": 80
        },
        {
          "pitch": 63,
          "onset": 44.0,
          "duration": 0.5,
          "velocity": 80
        },
        {
          "pitch": 54,
          "onset": 44.5,
          "duration": 0.5,
          "velocity": 80
        },
        {
          "pitch": 55,
          "onset": 45.0,
          "duration": 1.0,
          "velocity": 80
        },
        {
          "pitch": 55,
          "onset": 46.0,
          "duration": 1.75,
          "velocity": 80
        },
        {
          "pitch": 50,
          "onset": 48.0,
          "duration": 0.5,
          "velocity": 80
        },
        {
          "pitch": 59,
          "onset": 48.125,
          "duration": 0.8438,
          "velocity": 80
        },
        {
          "pitch": 53,
          "onset": 48.5,
          "duration": 0.25,
          "velocity": 80
        },
        {
          "pitch": 52,
          "onset": 48.75,
          "duration": 0.25,
          "velocity": 80
        },
        {
          "pitch": 53,
          "onset": 49.0,
          "duration": 0.75,
          "velocity": 80
        },
        {
          "pitch": 59,
          "onset": 49.125,
          "duration": 0.8438,
          "velocity": 80
        },
        {
          "pitch": 52,
          "onset": 49.75,
          "duration": 0.25,
          "velocity": 80
        },
        {
          "pitch": 50,
          "onset": 50.0,
          "duration": 0.25,
          "velocity": 80
        },
        {
          "pitch": 48,
          "onset": 50.25,
          "duration": 0.25,
          "velocity": 80
        },
        {
          "pitch": 47,
          "onset": 50.5,
          "duration": 0.25,
          "velocity": 80
        },
        {
          "pitch": 45,
          "onset": 50.75,
          "duration": 0.25,
          "velocity": 80
        },
        {
          "pitch": 50,
          "onset": 51.0,
          "duration": 0.5,
          "velocity": 80
        },
        {
          "pitch": 59,
          "onset": 51.125,
          "duration": 0.8438,
          "velocity": 80
        },
        {
          "pitch": 53,
          "onset": 51.5,
          "duration": 0.25,
          "velocity": 80
        },
        {
          "pitch": 52,
          "onset": 51.75,
          "duration": 0.25,
          "velocity": 80
        },
        {
          "pitch": 53,
          "onset": 52.0,
          "duration": 0.75,
          "velocity": 80
        },
        {
          "pitch": 59,
          "onset": 52.125,
          "duration": 0.8438,
          "velocity": 80
        },
        {
          "pitch": 52,
          "onset": 52.75,
          "duration": 0.25,
          "velocity": 80
        },
        {
          "pitch": 50,
          "onset": 53.0,
          "duration": 0.25,
          "velocity": 80
        },
        {
          "pitch": 48,
          "onset": 53.25,
          "duration": 0.25,
          "velocity": 80
        },
        {
          "pitch": 50,
          "onset": 53.5,
          "duration": 0.25,
          "velocity": 80
        },
        {
          "pitch": 47,
          "onset": 53.75,
          "duration": 0.25,
          "velocity": 80
        },
        {
          "pitch": 52,
          "onset": 54.25,
          "duration": 0.25,
          "velocity": 80
        },
        {
          "pitch": 56,
          "onset": 54.5,
          "duration": 0.25,
          "velocity": 80
        },
        {
          "pitch": 59,
          "onset": 54.75,
          "duration": 0.25,
          "velocity": 80
        },
        {
          "pitch": 57,
          "onset": 55.0,
          "duration": 0.75,
          "velocity": 80
        },
        {
          "pitch": 59,
          "onset": 55.75,
          "duration": 0.125,
          "velocity": 80
        },
        {
          "pitch": 60,
          "onset": 55.875,
          "duration": 0.1875,
          "velocity": 80
        },
        {
          "pitch": 59,
          "onset": 56.5,
          "duration": 0.5,
          "velocity": 80
        },
        {
          "pitch": 57,
          "onset": 57.0,
          "duration": 0.5,
          "velocity": 80
        },
        {
          "pitch": 54,
          "onset": 57.5,
          "duration": 0.5,
          "velocity": 80
        },
        {
          "pitch": 57,
          "onset": 58.0,
          "duration": 0.25,
          "velocity": 80
        },
        {
          "pitch": 56,
          "onset": 58.25,
          "duration": 0.25,
          "velocity": 80
        },
        {
          "pitch": 54,
          "onset": 58.5,
          "duration": 0.25,
          "velocity": 80
        },
        {
          "pitch": 52,
          "onset": 58.75,
          "duration": 0.25,
          "velocity": 80
        },
        {
          "pitch": 50,
          "onset": 59.0,
          "duration": 0.0625,
          "velocity": 80
        },
        {
          "pitch": 52,
          "onset": 59.0625,
          "duration": 0.0625,
          "velocity": 80
        },
        {
          "pitch": 50,
          "onset": 59.125,
          "duration": 0.0625,
          "velocity": 80
        },
        {
          "pitch": 52,
          "onset": 59.1875,
          "duration": 0.0625,
          "velocity": 80
        },
        {
          "pitch": 50,
          "onset": 59.25,
          "duration": 0.25,
          "velocity": 80
        },
        {
          "pitch": 49,
          "onset": 59.5,
          "duration": 0.25,
          "velocity": 80
        },
        {
          "pitch": 50,
          "onset": 59.75,
          "duration": 0.25,
          "velocity": 80
        },
        {
          "pitch": 49,
          "onset": 60.0,
          "duration": 0.375,
          "velocity": 80
        },
        {
          "pitch": 57,
          "onset": 60.5,
          "duration": 0.375,
          "velocity": 80
        },
        {
          "pitch": 64,
          "onset": 61.0,
          "duration": 0.5,
          "velocity": 80
        },
        {
          "pitch": 67,
          "onset": 61.5,
          "duration": 0.25,
          "velocity": 80
        },
        {
          "pitch": 65,
          "onset": 61.75,
          "duration": 0.25,
          "velocity": 80
        },
        {
          "pitch": 67,
          "onset": 62.0,
          "duration": 0.375,
          "velocity": 80
        },
        {
          "pitch": 64,
          "onset": 62.5,
          "duration": 0.375,
          "velocity": 80
        },
        {
          "pitch": 61,
          "onset": 63.0,
          "duration": 0.5,
          "velocity": 80
        },
        {
          "pitch": 58,
          "onset": 63.5,
          "duration": 1.0,
          "velocity": 80
        },
        {
          "pitch": 57,
          "onset": 64.5,
          "duration": 0.25,
          "velocity": 80
        },
        {
          "pitch": 55,
          "onset": 64.75,
          "duration": 0.25,
          "velocity": 80
        },
        {
          "pitch": 53,
          "onset": 65.0,
          "duration": 0.25,
          "velocity": 80
        },
        {
          "pitch": 52,
          "onset": 65.25,
          "duration": 0.25,
          "velocity": 80
        },
        {
          "pitch": 55,
          "onset": 65.5,
          "duration": 0.375,
          "velocity": 80
        },
        {
          "pitch": 65,
          "onset": 66.5,
          "duration": 0.5938,
          "velocity": 86
        },
        {
          "pitch": 64,
          "onset": 67.5,
          "duration": 0.5,
          "velocity": 100
        },
        {
          "pitch": 57,
          "onset": 68.0,
          "duration": 0.25,
          "velocity": 100
        },
        {
          "pitch": 59,
          "onset": 68.25,
          "duration": 0.25,
          "velocity": 100
        },
        {
          "pitch": 62,
          "onset": 68.5,
          "duration": 0.25,
          "velocity": 100
        },
        {
          "pitch": 61,
          "onset": 68.75,
          "duration": 0.25,
          "velocity": 100
        },
        {
          "pitch": 62,
          "onset": 69.0,
          "duration": 0.75,
          "velocity": 100
        },
        {
          "pitch": 53,
          "onset": 70.0,
          "duration": 2.0,
          "velocity": 100
        },
        {
          "pitch": 62,
          "onset": 70.125,
          "duration": 1.875,
          "velocity": 100
        },
        {
          "pitch": 54,
          "onset": 72.125,
          "duration": 0.625,
          "velocity": 80
        },
        {
          "pitch": 55,
          "onset": 72.75,
          "duration": 0.125,
          "velocity": 80
        },
        {
          "pitch": 57,
          "onset": 72.875,
          "duration": 0.125,
          "velocity": 80
        },
        {
          "pitch": 55,
          "onset": 73.0,
          "duration": 0.25,
          "velocity": 80
        },
        {
          "pitch": 54,
          "onset": 73.25,
          "duration": 0.25,
          "velocity": 80
        },
        {
          "pitch": 52,
          "onset": 73.5,
          "duration": 0.25,
          "velocity": 80
        },
        {
          "pitch": 54,
          "onset": 73.75,
          "duration": 0.25,
          "velocity": 80
        },
        {
          "pitch": 55,
          "onset": 74.0,
          "duration": 0.25,
          "velocity": 80
        },
        {
          "pitch": 52,
          "onset": 74.25,
          "duration": 0.25,
          "velocity": 80
        },
        {
          "pitch": 54,
          "onset": 74.5,
          "duration": 0.25,
          "velocity": 80
        },
        {
          "pitch": 57,
          "onset": 74.75,
          "duration": 0.25,
          "velocity": 80
        },
        {
          "pitch": 54,
          "onset": 75.0,
          "duration": 1.0,
          "velocity": 80
        },
        {
          "pitch": 60,
          "onset": 75.125,
          "duration": 0.625,
          "velocity": 80
        },
        {
          "pitch": 62,
          "onset": 75.75,
          "duration": 0.125,
          "velocity": 80
        },
        {
          "pitch": 64,
          "onset": 75.875,
          "duration": 0.125,
          "velocity": 80
        },
        {
          "pitch": 62,
          "onset": 76.0,
          "duration": 0.25,
          "velocity": 80
        },
        {
          "pitch": 60,
          "onset": 76.25,
          "duration": 0.25,
          "velocity": 80
        },
        {
          "pitch": 59,
          "onset": 76.5,
          "duration": 0.25,
          "velocity": 80
        },
        {
          "pitch": 60,
          "onset": 76.75,
          "duration": 0.25,
          "velocity": 80
        },
        {
          "pitch": 62,
          "onset": 77.0,
          "duration": 0.25,
          "velocity": 80
        },
        {
          "pitch": 59,
          "onset": 77.25,
          "duration": 0.25,
          "velocity": 80
        },
        {
          "pitch": 60,
          "onset": 77.5,
          "duration": 0.25,
          "velocity": 80
        },
        {
          "pitch": 64,
          "onset": 77.75,
          "duration": 0.25,
          "velocity": 80
        },
        {
          "pitch": 62,
          "onset": 78.0,
          "duration": 0.5,
          "velocity": 80
        },
        {
          "pitch": 47,
          "onset": 78.5,
          "duration": 0.5,
          "velocity": 80
        },
        {
          "pitch": 48,
          "onset": 79.0,
          "duration": 0.5,
          "velocity": 80
        },
        {
          "pitch": 57,
          "onset": 79.5,
          "duration": 0.5,
          "velocity": 80
        },
        {
          "pitch": 59,
          "onset": 80.0,
          "duration": 0.5,
          "velocity": 80
        },
        {
          "pitch": 60,
          "onset": 80.5,
          "duration": 0.5,
          "velocity": 80
        },
        {
          "pitch": 50,
          "onset": 81.0,
          "duration": 1.0,
          "velocity": 80
        },
        {
          "pitch": 60,
          "onset": 81.125,
          "duration": 0.375,
          "velocity": 80
        },
        {
          "pitch": 59,
          "onset": 81.5,
          "duration": 0.5,
          "velocity": 80
        },
        {
          "pitch": 57,
          "onset": 82.0,
          "duration": 0.5,
          "velocity": 80
        },
        {
          "pitch": 59,
          "onset": 82.5,
          "duration": 0.5,
          "velocity": 80
        },
        {
          "pitch": 55,
          "onset": 83.0,
          "duration": 0.5312,
          "velocity": 80
        },
        {
          "pitch": 52,
          "onset": 84.5,
          "duration": 0.25,
          "velocity": 80
        },
        {
          "pitch": 53,
          "onset": 84.75,
          "duration": 0.25,
          "velocity": 80
        },
        {
          "pitch": 55,
          "onset": 85.0,
          "duration": 0.25,
          "velocity": 80
        },
        {
          "pitch": 53,
          "onset": 85.25,
          "duration": 0.25,
          "velocity": 80
        },
        {
          "pitch": 52,
          "onset": 85.5,
          "duration": 0.25,
          "velocity": 80
        },
        {
          "pitch": 55,
          "onset": 85.75,
          "duration": 0.25,
          "velocity": 80
        },
        {
          "pitch": 53,
          "onset": 86.0,
          "duration": 0.5,
          "velocity": 80
        },
        {
          "pitch": 47,
          "onset": 86.5,
          "duration": 0.5,
          "velocity": 80
        },
        {
          "pitch": 48,
          "onset": 87.0,
          "duration": 0.5,
          "velocity": 80
        },
        {
          "pitch": 54,
          "onset": 87.5,
          "duration": 0.25,
          "velocity": 80
        },
        {
          "pitch": 55,
          "onset": 87.75,
          "duration": 0.25,
          "velocity": 80
        },
        {
          "pitch": 57,
          "onset": 88.0,
          "duration": 0.25,
          "velocity": 80
        },
        {
          "pitch": 55,
          "onset": 88.25,
          "duration": 0.25,
          "velocity": 80
        },
        {
          "pitch": 54,
          "onset": 88.5,
          "duration": 0.25,
          "velocity": 80
        },
        {
          "pitch": 57,
          "onset": 88.75,
          "duration": 0.25,
          "velocity": 80
        },
        {
          "pitch": 55,
          "onset": 89.0,
          "duration": 0.25,
          "velocity": 80
        },
        {
          "pitch": 62,
          "onset": 89.25,
          "duration": 0.25,
          "velocity": 80
        },
        {
          "pitch": 55,
          "onset": 89.5,
          "duration": 0.25,
          "velocity": 80
        },
        {
          "pitch": 53,
          "onset": 89.75,
          "duration": 0.25,
          "velocity": 80
        },
        {
          "pitch": 52,
          "onset": 90.0,
          "duration": 0.5,
          "velocity": 80
        },
        {
          "pitch": 48,
          "onset": 90.5,
          "duration": 0.5938,
          "velocity": 80
        },
        {
          "pitch": 50,
          "onset": 91.5,
          "duration": 0.5938,
          "velocity": 80
        },
        {
          "pitch": 48,
          "onset": 92.5,
          "duration": 0.25,
          "velocity": 80
        },
        {
          "pitch": 47,
          "onset": 92.75,
          "duration": 0.25,
          "velocity": 80
        },
        {
          "pitch": 48,
          "onset": 93.0,
          "duration": 1.0,
          "velocity": 80
        },
        {
          "pitch": 52,
          "onset": 94.0,
          "duration": 2.0,
          "velocity": 80
        },
        {
          "pitch": 60,
          "onset": 94.125,
          "duration": 1.875,
          "velocity": 80
        },
        {
          "pitch": 50,
          "onset": 96.0,
          "duration": 0.5,
          "velocity": 80
        },
        {
          "pitch": 59,
          "onset": 96.125,
          "duration": 0.8438,
          "velocity": 80
        },
        {
          "pitch": 53,
          "onset": 96.5,
          "duration": 0.25,
          "velocity": 80
        },
        {
          "pitch": 52,
          "onset": 96.75,
          "duration": 0.25,
          "velocity": 80
        },
        {
          "pitch": 53,
          "onset": 97.0,
          "duration": 0.75,
          "velocity": 80
        },
        {
          "pitch": 59,
          "onset": 97.125,
          "duration": 0.8438,
          "velocity": 80
        },
        {
          "pitch": 52,
          "onset": 97.75,
          "duration": 0.25,
          "velocity": 80
        },
        {
          "pitch": 50,
          "onset": 98.0,
          "duration": 0.25,
          "velocity": 80
        },
        {
          "pitch": 48,
          "onset": 98.25,
          "duration": 0.25,
          "velocity": 80
        },
        {
          "pitch": 47,
          "onset": 98.5,
          "duration": 0.25,
          "velocity": 80
        },
        {
          "pitch": 45,
          "onset": 98.75,
          "duration": 0.25,
          "velocity": 80
        },
        {
          "pitch": 50,
          "onset": 99.0,
          "duration": 0.5,
          "velocity": 80
        },
        {
          "pitch": 59,
          "onset": 99.125,
          "duration": 0.8438,
          "velocity": 80
        },
        {
          "pitch": 53,
          "onset": 99.5,
          "duration": 0.25,
          "velocity": 80
        },
        {
          "pitch": 52,
          "onset": 99.75,
          "duration": 0.25,
          "velocity": 80
        },
        {
          "pitch": 53,
          "onset": 100.0,
          "duration": 0.75,
          "velocity": 80
        },
        {
          "pitch": 59,
          "onset": 100.125,
          "duration": 0.8438,
          "velocity": 80
        },
        {
          "pitch": 52,
          "onset": 100.75,
          "duration": 0.25,
          "velocity": 80
        },
        {
          "pitch": 50,
          "onset": 101.0,
          "duration": 0.25,
          "velocity": 80
        },
        {
          "pitch": 48,
          "onset": 101.25,
          "duration": 0.25,
          "velocity": 80
        },
        {
          "pitch": 50,
          "onset": 101.5,
          "duration": 0.25,
          "velocity": 80
        },
        {
          "pitch": 47,
          "onset": 101.75,
          "duration": 0.25,
          "velocity": 80
        },
        {
          "pitch": 52,
          "onset": 102.25,
          "duration": 0.25,
          "velocity": 80
        },
        {
          "pitch": 56,
          "onset": 102.5,
          "duration": 0.25,
          "velocity": 80
        },
        {
          "pitch": 59,
          "onset": 102.75,
          "duration": 0.25,
          "velocity": 80
        },
        {
          "pitch": 57,
          "onset": 103.0,
          "duration": 0.75,
          "velocity": 80
        },
        {
          "pitch": 59,
          "onset": 103.75,
          "duration": 0.125,
          "velocity": 80
        },
        {
          "pitch": 60,
          "onset": 103.875,
          "duration": 0.1875,
          "velocity": 80
        },
        {
          "pitch": 59,
          "onset": 104.5,
          "duration": 0.5,
          "velocity": 80
        },
        {
          "pitch": 57,
          "onset": 105.0,
          "duration": 0.5,
          "velocity": 80
        },
        {
          "pitch": 54,
          "onset": 105.5,
          "duration": 0.5,
          "velocity": 80
        },
        {
          "pitch": 57,
          "onset": 106.0,
          "duration": 0.25,
          "velocity": 80
        },
        {
          "pitch": 56,
          "onset": 106.25,
          "duration": 0.25,
          "velocity": 80
        },
        {
          "pitch": 54,
          "onset": 106.5,
          "duration": 0.25,
          "velocity": 80
        },
        {
          "pitch": 52,
          "onset": 106.75,
          "duration": 0.25,
          "velocity": 80
        },
        {
          "pitch": 50,
          "onset": 107.0,
          "duration": 0.0625,
          "velocity": 80
        },
        {
          "pitch": 52,
          "onset": 107.0625,
          "duration": 0.0625,
          "velocity": 80
        },
        {
          "pitch": 50,
          "onset": 107.125,
          "duration": 0.0625,
          "velocity": 80
        },
        {
          "pitch": 52,
          "onset": 107.1875,
          "duration": 0.0625,
          "velocity": 80
        },
        {
          "pitch": 50,
          "onset": 107.25,
          "duration": 0.25,
          "velocity": 80
        },
        {
          "pitch": 49,
          "onset": 107.5,
          "duration": 0.25,
          "velocity": 80
        },
        {
          "pitch": 50,
          "onset": 107.75,
          "duration": 0.25,
          "velocity": 80
        },
        {
          "pitch": 49,
          "onset": 108.0,
          "duration": 0.375,
          "velocity": 80
        },
        {
          "pitch": 57,
          "onset": 108.5,
          "duration": 0.375,
          "velocity": 80
        },
        {
          "pitch": 64,
          "onset": 109.0,
          "duration": 0.5,
          "velocity": 80
        },
        {
          "pitch": 67,
          "onset": 109.5,
          "duration": 0.25,
          "velocity": 80
        },
        {
          "pitch": 65,
          "onset": 109.75,
          "duration": 0.25,
          "velocity": 80
        },
        {
          "pitch": 67,
          "onset": 110.0,
          "duration": 0.375,
          "velocity": 80
        },
        {
          "pitch": 64,
          "onset": 110.5,
          "duration": 0.375,
          "velocity": 80
        },
        {
          "pitch": 61,
          "onset": 111.0,
          "duration": 0.5,
          "velocity": 80
        },
        {
          "pitch": 58,
          "onset": 111.5,
          "duration": 1.0,
          "velocity": 80
        },
        {
          "pitch": 57,
          "onset": 112.5,
          "duration": 0.25,
          "velocity": 80
        },
        {
          "pitch": 55,
          "onset": 112.75,
          "duration": 0.25,
          "velocity": 80
        },
        {
          "pitch": 53,
          "onset": 113.0,
          "duration": 0.25,
          "velocity": 80
        },
        {
          "pitch": 52,
          "onset": 113.25,
          "duration": 0.25,
          "velocity": 80
        },
        {
          "pitch": 55,
          "onset": 113.5,
          "duration": 0.375,
          "velocity": 80
        },
        {
          "pitch": 65,
          "onset": 114.5,
          "duration": 0.5938,
          "velocity": 86
        },
        {
          "pitch": 64,
          "onset": 115.5,
          "duration": 0.5,
          "velocity": 100
        },
        {
          "pitch": 57,
          "onset": 116.0,
          "duration": 0.25,
          "velocity": 100
        },
        {
          "pitch": 59,
          "onset": 116.25,
          "duration": 0.25,
          "velocity": 100
        },
        {
          "pitch": 62,
          "onset": 116.5,
          "duration": 0.25,
          "velocity": 100
        },
        {
          "pitch": 61,
          "onset": 116.75,
          "duration": 0.25,
          "velocity": 100
        },
        {
          "pitch": 62,
          "onset": 117.0,
          "duration": 0.75,
          "velocity": 100
        },
        {
          "pitch": 53,
          "onset": 118.0,
          "duration": 2.0,
          "velocity": 100
        },
        {
          "pitch": 62,
          "onset": 118.125,
          "duration": 1.875,
          "velocity": 100
        },
        {
          "pitch": 54,
          "onset": 120.125,
          "duration": 0.625,
          "velocity": 80
        },
        {
          "pitch": 55,
          "onset": 120.75,
          "duration": 0.125,
          "velocity": 80
        },
        {
          "pitch": 57,
          "onset": 120.875,
          "duration": 0.125,
          "velocity": 80
        },
        {
          "pitch": 55,
          "onset": 121.0,
          "duration": 0.25,
          "velocity": 80
        },
        {
          "pitch": 54,
          "onset": 121.25,
          "duration": 0.25,
          "velocity": 80
        },
        {
          "pitch": 52,
          "onset": 121.5,
          "duration": 0.25,
          "velocity": 80
        },
        {
          "pitch": 54,
          "onset": 121.75,
          "duration": 0.25,
          "velocity": 80
        },
        {
          "pitch": 55,
          "onset": 122.0,
          "duration": 0.25,
          "velocity": 80
        },
        {
          "pitch": 52,
          "onset": 122.25,
          "duration": 0.25,
          "velocity": 80
        },
        {
          "pitch": 54,
          "onset": 122.5,
          "duration": 0.25,
          "velocity": 80
        },
        {
          "pitch": 57,
          "onset": 122.75,
          "duration": 0.25,
          "velocity": 80
        },
        {
          "pitch": 54,
          "onset": 123.0,
          "duration": 1.0,
          "velocity": 80
        },
        {
          "pitch": 60,
          "onset": 123.125,
          "duration": 0.625,
          "velocity": 80
        },
        {
          "pitch": 62,
          "onset": 123.75,
          "duration": 0.125,
          "velocity": 80
        },
        {
          "pitch": 64,
          "onset": 123.875,
          "duration": 0.125,
          "velocity": 80
        },
        {
          "pitch": 62,
          "onset": 124.0,
          "duration": 0.25,
          "velocity": 80
        },
        {
          "pitch": 60,
          "onset": 124.25,
          "duration": 0.25,
          "velocity": 80
        },
        {
          "pitch": 59,
          "onset": 124.5,
          "duration": 0.25,
          "velocity": 80
        },
        {
          "pitch": 60,
          "onset": 124.75,
          "duration": 0.25,
          "velocity": 80
        },
        {
          "pitch": 62,
          "onset": 125.0,
          "duration": 0.25,
          "velocity": 80
        },
        {
          "pitch": 59,
          "onset": 125.25,
          "duration": 0.25,
          "velocity": 80
        },
        {
          "pitch": 60,
          "onset": 125.5,
          "duration": 0.25,
          "velocity": 80
        },
        {
          "pitch": 64,
          "onset": 125.75,
          "duration": 0.25,
          "velocity": 80
        },
        {
          "pitch": 62,
          "onset": 126.0,
          "duration": 0.5,
          "velocity": 80
        },
        {
          "pitch": 47,
          "onset": 126.5,
          "duration": 0.5,
          "velocity": 80
        },
        {
          "pitch": 48,
          "onset": 127.0,
          "duration": 0.5,
          "velocity": 80
        },
        {
          "pitch": 57,
          "onset": 127.5,
          "duration": 0.5,
          "velocity": 80
        },
        {
          "pitch": 59,
          "onset": 128.0,
          "duration": 0.5,
          "velocity": 80
        },
        {
          "pitch": 60,
          "onset": 128.5,
          "duration": 0.5,
          "velocity": 80
        },
        {
          "pitch": 50,
          "onset": 129.0,
          "duration": 1.0,
          "velocity": 80
        },
        {
          "pitch": 60,
          "onset": 129.125,
          "duration": 0.375,
          "velocity": 80
        },
        {
          "pitch": 59,
          "onset": 129.5,
          "duration": 0.5,
          "velocity": 80
        },
        {
          "pitch": 57,
          "onset": 130.0,
          "duration": 0.5,
          "velocity": 80
        },
        {
          "pitch": 59,
          "onset": 130.5,
          "duration": 0.5,
          "velocity": 80
        },
        {
          "pitch": 55,
          "onset": 131.0,
          "duration": 0.5312,
          "velocity": 80
        },
        {
          "pitch": 52,
          "onset": 132.5,
          "duration": 0.25,
          "velocity": 80
        },
        {
          "pitch": 53,
          "onset": 132.75,
          "duration": 0.25,
          "velocity": 80
        },
        {
          "pitch": 55,
          "onset": 133.0,
          "duration": 0.25,
          "velocity": 80
        },
        {
          "pitch": 53,
          "onset": 133.25,
          "duration": 0.25,
          "velocity": 80
        },
        {
          "pitch": 52,
          "onset": 133.5,
          "duration": 0.25,
          "velocity": 80
        },
        {
          "pitch": 55,
          "onset": 133.75,
          "duration": 0.25,
          "velocity": 80
        },
        {
          "pitch": 53,
          "onset": 134.0,
          "duration": 0.5,
          "velocity": 80
        },
        {
          "pitch": 47,
          "onset": 134.5,
          "duration": 0.5,
          "velocity": 80
        },
        {
          "pitch": 48,
          "onset": 135.0,
          "duration": 0.5,
          "velocity": 80
        },
        {
          "pitch": 54,
          "onset": 135.5,
          "duration": 0.25,
          "velocity": 80
        },
        {
          "pitch": 55,
          "onset": 135.75,
          "duration": 0.25,
          "velocity": 80
        },
        {
          "pitch": 57,
          "onset": 136.0,
          "duration": 0.25,
          "velocity": 80
        },
        {
          "pitch": 55,
          "onset": 136.25,
          "duration": 0.25,
          "velocity": 80
        },
        {
          "pitch": 54,
          "onset": 136.5,
          "duration": 0.25,
          "velocity": 80
        },
        {
          "pitch": 57,
          "onset": 136.75,
          "duration": 0.25,
          "velocity": 80
        },
        {
          "pitch": 55,
          "onset": 137.0,
          "duration": 0.25,
          "velocity": 80
        },
        {
          "pitch": 62,
          "onset": 137.25,
          "duration": 0.25,
          "velocity": 80
        },
        {
          "pitch": 55,
          "onset": 137.5,
          "duration": 0.25,
          "velocity": 80
        },
        {
          "pitch": 53,
          "onset": 137.75,
          "duration": 0.25,
          "velocity": 80
        },
        {
          "pitch": 52,
          "onset": 138.0,
          "duration": 0.5,
          "velocity": 80
        },
        {
          "pitch": 48,
          "onset": 138.5,
          "duration": 0.5938,
          "velocity": 80
        },
        {
          "pitch": 50,
          "onset": 139.5,
          "duration": 0.5938,
          "velocity": 80
        },
        {
          "pitch": 48,
          "onset": 140.5,
          "duration": 0.25,
          "velocity": 80
        },
        {
          "pitch": 47,
          "onset": 140.75,
          "duration": 0.25,
          "velocity": 80
        },
        {
          "pitch": 48,
          "onset": 141.0,
          "duration": 1.0,
          "velocity": 80
        },
        {
          "pitch": 52,
          "onset": 142.0,
          "duration": 3.0,
          "velocity": 80
        },
        {
          "pitch": 60,
          "onset": 142.125,
          "duration": 2.875,
          "velocity": 80
        },
        {
          "pitch": 48,
          "onset": 146.25,
          "duration": 0.25,
          "velocity": 1
        }
      ]
    },
    {
      "role": "solo_1",
      "notes": [
        {
          "pitch": 36,
          "onset": 0.0,
          "duration": 0.375,
          "velocity": 80
        },
        {
          "pitch": 43,
          "onset": 0.0,
          "duration": 0.375,
          "velocity": 80
        },
        {
          "pitch": 50,
          "onset": 1.0,
          "duration": 1.0,
          "velocity": 80
        },
        {
          "pitch": 36,
          "onset": 3.0,
          "duration": 0.375,
          "velocity": 80
        },
        {
          "pitch": 43,
          "onset": 3.0,
          "duration": 0.375,
          "velocity": 80
        },
        {
          "pitch": 53,
          "onset": 4.0,
          "duration": 1.0,
          "velocity": 80
        },
        {
          "pitch": 47,
          "onset": 6.0,
          "duration": 0.5,
          "velocity": 80
        },
        {
          "pitch": 36,
          "onset": 7.0,
          "duration": 0.375,
          "velocity": 80
        },
        {
          "pitch": 43,
          "onset": 7.0,
          "duration": 0.75,
          "velocity": 80
        },
        {
          "pitch": 43,
          "onset": 11.0,
          "duration": 0.5,
          "velocity": 80
        },
        {
          "pitch": 41,
          "onset": 11.5,
          "duration": 0.5,
          "velocity": 80
        },
        {
          "pitch": 40,
          "onset": 12.0,
          "duration": 0.375,
          "velocity": 80
        },
        {
          "pitch": 45,
          "onset": 13.0,
          "duration": 1.0,
          "velocity": 80
        },
        {
          "pitch": 38,
          "onset": 15.0,
          "duration": 0.375,
          "velocity": 80
        },
        {
          "pitch": 45,
          "onset": 15.0,
          "duration": 0.375,
          "velocity": 80
        },
        {
          "pitch": 43,
          "onset": 16.0,
          "duration": 0.375,
          "velocity": 80
        },
        {
          "pitch": 50,
          "onset": 16.0,
          "duration": 1.0,
          "velocity": 80
        },
        {
          "pitch": 49,
          "onset": 18.0,
          "duration": 0.375,
          "velocity": 80
        },
        {
          "pitch": 50,
          "onset": 19.0,
          "duration": 0.5,
          "velocity": 80
        },
        {
          "pitch": 43,
          "onset": 22.0,
          "duration": 2.0,
          "velocity": 80
        },
        {
          "pitch": 36,
          "onset": 24.0,
          "duration": 0.375,
          "velocity": 80
        },
        {
          "pitch": 43,
          "onset": 24.0,
          "duration": 0.375,
          "velocity": 80
        },
        {
          "pitch": 50,
          "onset": 25.0,
          "duration": 1.0,
          "velocity": 80
        },
        {
          "pitch": 36,
          "onset": 27.0,
          "duration": 0.375,
          "velocity": 80
        },
        {
          "pitch": 43,
          "onset": 27.0,
          "duration": 0.375,
          "velocity": 80
        },
        {
          "pitch": 53,
          "onset": 28.0,
          "duration": 1.0,
          "velocity": 80
        },
        {
          "pitch": 47,
          "onset": 30.0,
          "duration": 0.5,
          "velocity": 80
        },
        {
          "pitch": 36,
          "onset": 31.0,
          "duration": 0.375,
          "velocity": 80
        },
        {
          "pitch": 43,
          "onset": 31.0,
          "duration": 0.75,
          "velocity": 80
        },
        {
          "pitch": 43,
          "onset": 35.0,
          "duration": 0.5,
          "velocity": 80
        },
        {
          "pitch": 41,
          "onset": 35.5,
          "duration": 0.5,
          "velocity": 80
        },
        {
          "pitch": 40,
          "onset": 36.0,
          "duration": 0.375,
          "velocity": 80
        },
        {
          "pitch": 45,
          "onset": 37.0,
          "duration": 1.0,
          "velocity": 80
        },
        {
          "pitch": 38,
          "onset": 39.0,
          "duration": 0.375,
          "velocity": 80
        },
        {
          "pitch": 45,
          "onset": 39.0,
          "duration": 0.375,
          "velocity": 80
        },
        {
          "pitch": 43,
          "onset": 40.0,
          "duration": 0.375,
          "velocity": 80
        },
        {
          "pitch": 50,
          "onset": 40.0,
          "duration": 1.0,
          "velocity": 80
        },
        {
          "pitch": 49,
          "onset": 42.0,
          "duration": 0.375,
          "velocity": 80
        },
        {
          "pitch": 50,
          "onset": 43.0,
          "duration": 0.5,
          "velocity": 80
        },
        {
          "pitch": 43,
          "onset": 46.0,
          "duration": 1.75,
          "velocity": 80
        },
        {
          "pitch": 43,
          "onset": 48.0,
          "duration": 0.375,
          "velocity": 80
        },
        {
          "pitch": 43,
          "onset": 49.0,
          "duration": 0.375,
          "velocity": 80
        },
        {
          "pitch": 44,
          "onset": 51.0,
          "duration": 0.375,
          "velocity": 80
        },
        {
          "pitch": 44,
          "onset": 52.0,
          "duration": 0.375,
          "velocity": 80
        },
        {
          "pitch": 48,
          "onset": 54.0,
          "duration": 0.3125,
          "velocity": 80
        },
        {
          "pitch": 50,
          "onset": 56.0,
          "duration": 0.375,
          "velocity": 80
        },
        {
          "pitch": 49,
          "onset": 65.75,
          "duration": 0.25,
          "velocity": 80
        },
        {
          "pitch": 50,
          "onset": 66.0,
          "duration": 0.5938,
          "velocity": 80
        },
        {
          "pitch": 55,
          "onset": 67.0,
          "duration": 0.5938,
          "velocity": 93
        },
        {
          "pitch": 38,
          "onset": 70.0,
          "duration": 0.375,
          "velocity": 100
        },
        {
          "pitch": 45,
          "onset": 70.0,
          "duration": 0.375,
          "velocity": 100
        },
        {
          "pitch": 36,
          "onset": 72.0,
          "duration": 0.375,
          "velocity": 80
        },
        {
          "pitch": 45,
          "onset": 72.0,
          "duration": 1.0,
          "velocity": 80
        },
        {
          "pitch": 45,
          "onset": 75.0,
          "duration": 0.375,
          "velocity": 80
        },
        {
          "pitch": 50,
          "onset": 80.0,
          "duration": 1.0,
          "velocity": 80
        },
        {
          "pitch": 43,
          "onset": 81.0,
          "duration": 0.375,
          "velocity": 80
        },
        {
          "pitch": 45,
          "onset": 83.5,
          "duration": 0.5,
          "velocity": 80
        },
        {
          "pitch": 46,
          "onset": 84.0,
          "duration": 0.5312,
          "velocity": 80
        },
        {
          "pitch": 45,
          "onset": 85.0,
          "duration": 1.0,
          "velocity": 80
        },
        {
          "pitch": 47,
          "onset": 88.0,
          "duration": 1.0,
          "velocity": 80
        },
        {
          "pitch": 41,
          "onset": 91.0,
          "duration": 0.5938,
          "velocity": 80
        },
        {
          "pitch": 43,
          "onset": 92.0,
          "duration": 0.5938,
          "velocity": 80
        },
        {
          "pitch": 36,
          "onset": 94.0,
          "duration": 0.375,
          "velocity": 80
        },
        {
          "pitch": 43,
          "onset": 94.0,
          "duration": 0.375,
          "velocity": 80
        },
        {
          "pitch": 43,
          "onset": 96.0,
          "duration": 0.375,
          "velocity": 80
        },
        {
          "pitch": 43,
          "onset": 97.0,
          "duration": 0.375,
          "velocity": 80
        },
        {
          "pitch": 44,
          "onset": 99.0,
          "duration": 0.375,
          "velocity": 80
        },
        {
          "pitch": 44,
          "onset": 100.0,
          "duration": 0.375,
          "velocity": 80
        },
        {
          "pitch": 48,
          "onset": 102.0,
          "duration": 0.3125,
          "velocity": 80
        },
        {
          "pitch": 50,
          "onset": 104.0,
          "duration": 0.375,
          "velocity": 80
        },
        {
          "pitch": 49,
          "onset": 113.75,
          "duration": 0.25,
          "velocity": 80
        },
        {
          "pitch": 50,
          "onset": 114.0,
          "duration": 0.5938,
          "velocity": 80
        },
        {
          "pitch": 55,
          "onset": 115.0,
          "duration": 0.5938,
          "velocity": 93
        },
        {
          "pitch": 38,
          "onset": 118.0,
          "duration": 0.375,
          "velocity": 100
        },
        {
          "pitch": 45,
          "onset": 118.0,
          "duration": 0.375,
          "velocity": 100
        },
        {
          "pitch": 36,
          "onset": 120.0,
          "duration": 0.375,
          "velocity": 80
        },
        {
          "pitch": 45,
          "onset": 120.0,
          "duration": 1.0,
          "velocity": 80
        },
        {
          "pitch": 45,
          "onset": 123.0,
          "duration": 0.375,
          "velocity": 80
        },
        {
          "pitch": 50,
          "onset": 128.0,
          "duration": 1.0,
          "velocity": 80
        },
        {
          "pitch": 43,
          "onset": 129.0,
          "duration": 0.375,
          "velocity": 80
        },
        {
          "pitch": 45,
          "onset": 131.5,
          "duration": 0.5,
          "velocity": 80
        },
        {
          "pitch": 46,
          "onset": 132.0,
          "duration": 0.5312,
          "velocity": 80
        },
        {
          "pitch": 45,
          "onset": 133.0,
          "duration": 1.0,
          "velocity": 80
        },
        {
          "pitch": 47,
          "onset": 136.0,
          "duration": 1.0,
          "velocity": 80
        },
        {
          "pitch": 41,
          "onset": 139.0,
          "duration": 0.5938,
          "velocity": 80
        },
        {
          "pitch": 43,
          "onset": 140.0,
          "duration": 0.5938,
          "velocity": 80
        },
        {
          "pitch": 36,
          "onset": 142.0,
          "duration": 0.375,
          "velocity": 80
        },
        {
          "pitch": 43,
          "onset": 142.0,
          "duration": 0.375,
          "velocity": 80
        }
      ]
    }
  ]
}