{
  "bwv": 1008,
  "category": "solo_cello_suite",
  "instrument": "cello",
  "form": "",
  "movement": 4,
  "ticks_per_beat": 384,
  "duration_seconds": 219.4,
  "tempos": [
    {
      "tick": 0,
      "bpm": 50
    },
    {
      "tick": 4224,
      "bpm": 45
    },
    {
      "tick": 4512,
      "bpm": 40
    },
    {
      "tick": 4608,
      "bpm": 50
    },
    {
      "tick": 8640,
      "bpm": 45
    },
    {
      "tick": 8832,
      "bpm": 45
    },
    {
      "tick": 9024,
      "bpm": 40
    },
    {
      "tick": 9216,
      "bpm": 50
    },
    {
      "tick": 17856,
      "bpm": 45
    },
    {
      "tick": 18048,
      "bpm": 40
    },
    {
      "tick": 18240,
      "bpm": 40
    },
    {
      "tick": 18432,
      "bpm": 45
    },
    {
      "tick": 18528,
      "bpm": 50
    },
    {
      "tick": 22464,
      "bpm": 45
    },
    {
      "tick": 22656,
      "bpm": 40
    },
    {
      "tick": 22848,
      "bpm": 40
    },
    {
      "tick": 23040,
      "bpm": 50
    },
    {
      "tick": 26112,
      "bpm": 45
    },
    {
      "tick": 26304,
      "bpm": 40
    },
    {
      "tick": 26496,
      "bpm": 45
    },
    {
      "tick": 26880,
      "bpm": 40
    },
    {
      "tick": 27648,
      "bpm": 50
    },
    {
      "tick": 31872,
      "bpm": 45
    },
    {
      "tick": 32064,
      "bpm": 40
    },
    {
      "tick": 32256,
      "bpm": 50
    },
    {
      "tick": 36480,
      "bpm": 45
    },
    {
      "tick": 36672,
      "bpm": 40
    },
    {
      "tick": 36864,
      "bpm": 50
    },
    {
      "tick": 44544,
      "bpm": 45
    },
    {
      "tick": 44736,
      "bpm": 45
    },
    {
      "tick": 44928,
      "bpm": 45
    },
    {
      "tick": 45312,
      "bpm": 40
    },
    {
      "tick": 46080,
      "bpm": 50
    },
    {
      "tick": 49152,
      "bpm": 45
    },
    {
      "tick": 49344,
      "bpm": 45
    },
    {
      "tick": 49632,
      "bpm": 50
    },
    {
      "tick": 50304,
      "bpm": 45
    },
    {
      "tick": 50496,
      "bpm": 40
    },
    {
      "tick": 50688,
      "bpm": 50
    },
    {
      "tick": 54528,
      "bpm": 45
    },
    {
      "tick": 54912,
      "bpm": 45
    },
    {
      "tick": 55104,
      "bpm": 40
    },
    {
      "tick": 55296,
      "bpm": 50
    },
    {
      "tick": 61056,
      "bpm": 45
    },
    {
      "tick": 61248,
      "bpm": 45
    },
    {
      "tick": 61344,
      "bpm": 40
    },
    {
      "tick": 62016,
      "bpm": 45
    },
    {
      "tick": 62592,
      "bpm": 40
    },
    {
      "tick": 62784,
      "bpm": 40
    },
    {
      "tick": 62976,
      "bpm": 35
    },
    {
      "tick": 63168,
      "bpm": 30
    }
  ],
  "time_signatures": [
    {
      "tick": 0,
      "numerator": 3,
      "denominator": 4
    }
  ],
  "track_type": "solo_string",
  "voice_count": 2,
  "total_notes": 553,
  "tracks": [
    {
      "role": "solo_0",
      "notes": [
        {
          "pitch": 50,
          "onset": 0.0,
          "duration": 0.75,
          "velocity": 80
        },
        {
          "pitch": 52,
          "onset": 0.75,
          "duration": 0.25,
          "velocity": 80
        },
        {
          "pitch": 52,
          "onset": 1.0,
          "duration": 0.0625,
          "velocity": 80
        },
        {
          "pitch": 53,
          "onset": 1.0625,
          "duration": 0.0625,
          "velocity": 80
        },
        {
          "pitch": 52,
          "onset": 1.125,
          "duration": 0.0625,
          "velocity": 80
        },
        {
          "pitch": 53,
          "onset": 1.1875,
          "duration": 0.0625,
          "velocity": 80
        },
        {
          "pitch": 52,
          "onset": 1.25,
          "duration": 0.0625,
          "velocity": 80
        },
        {
          "pitch": 53,
          "onset": 1.3125,
          "duration": 0.0625,
          "velocity": 80
        },
        {
          "pitch": 52,
          "onset": 1.375,
          "duration": 0.0625,
          "velocity": 80
        },
        {
          "pitch": 53,
          "onset": 1.4375,
          "duration": 0.0625,
          "velocity": 80
        },
        {
          "pitch": 52,
          "onset": 1.5,
          "duration": 0.0625,
          "velocity": 80
        },
        {
          "pitch": 53,
          "onset": 1.5625,
          "duration": 0.0625,
          "velocity": 80
        },
        {
          "pitch": 52,
          "onset": 1.625,
          "duration": 0.0625,
          "velocity": 80
        },
        {
          "pitch": 53,
          "onset": 1.6875,
          "duration": 0.0625,
          "velocity": 80
        },
        {
          "pitch": 52,
          "onset": 1.75,
          "duration": 0.0625,
          "velocity": 80
        },
        {
          "pitch": 53,
          "onset": 1.8125,
          "duration": 0.0625,
          "velocity": 80
        },
        {
          "pitch": 52,
          "onset": 1.875,
          "duration": 0.0625,
          "velocity": 80
        },
        {
          "pitch": 53,
          "onset": 1.9375,
          "duration": 0.0625,
          "velocity": 80
        },
        {
          "pitch": 52,
          "onset": 2.0,
          "duration": 0.5,
          "velocity": 80
        },
        {
          "pitch": 50,
          "onset": 2.5,
          "duration": 0.25,
          "velocity": 80
        },
        {
          "pitch": 52,
          "onset": 2.75,
          "duration": 0.25,
          "velocity": 80
        },
        {
          "pitch": 45,
          "onset": 3.0,
          "duration": 1.5,
          "velocity": 80
        },
        {
          "pitch": 53,
          "onset": 3.25,
          "duration": 1.25,
          "velocity": 80
        },
        {
          "pitch": 52,
          "onset": 4.5,
          "duration": 0.5,
          "velocity": 80
        },
        {
          "pitch": 50,
          "onset": 5.0,
          "duration": 0.5,
          "velocity": 80
        },
        {
          "pitch": 48,
          "onset": 5.5,
          "duration": 0.5,
          "velocity": 80
        },
        {
          "pitch": 46,
          "onset": 6.0,
          "duration": 0.5,
          "velocity": 80
        },
        {
          "pitch": 55,
          "onset": 6.5,
          "duration": 0.5,
          "velocity": 80
        },
        {
          "pitch": 53,
          "onset": 7.0,
          "duration": 0.0625,
          "velocity": 80
        },
        {
          "pitch": 55,
          "onset": 7.0625,
          "duration": 0.0625,
          "velocity": 80
        },
        {
          "pitch": 53,
          "onset": 7.125,
          "duration": 0.375,
          "velocity": 80
        },
        {
          "pitch": 52,
          "onset": 7.5,
          "duration": 0.25,
          "velocity": 80
        },
        {
          "pitch": 53,
          "onset": 7.75,
          "duration": 0.25,
          "velocity": 80
        },
        {
          "pitch": 55,
          "onset": 8.0,
          "duration": 0.25,
          "velocity": 80
        },
        {
          "pitch": 57,
          "onset": 8.25,
          "duration": 0.25,
          "velocity": 80
        },
        {
          "pitch": 58,
          "onset": 8.5,
          "duration": 0.25,
          "velocity": 80
        },
        {
          "pitch": 50,
          "onset": 8.75,
          "duration": 0.25,
          "velocity": 80
        },
        {
          "pitch": 49,
          "onset": 9.0,
          "duration": 0.0625,
          "velocity": 80
        },
        {
          "pitch": 50,
          "onset": 9.0625,
          "duration": 0.0625,
          "velocity": 80
        },
        {
          "pitch": 49,
          "onset": 9.125,
          "duration": 0.0625,
          "velocity": 80
        },
        {
          "pitch": 50,
          "onset": 9.1875,
          "duration": 0.0625,
          "velocity": 80
        },
        {
          "pitch": 49,
          "onset": 9.25,
          "duration": 0.0625,
          "velocity": 80
        },
        {
          "pitch": 50,
          "onset": 9.3125,
          "duration": 0.0625,
          "velocity": 80
        },
        {
          "pitch": 49,
          "onset": 9.375,
          "duration": 0.0625,
          "velocity": 80
        },
        {
          "pitch": 50,
          "onset": 9.4375,
          "duration": 0.0625,
          "velocity": 80
        },
        {
          "pitch": 49,
          "onset": 9.5,
          "duration": 1.0,
          "velocity": 80
        },
        {
          "pitch": 47,
          "onset": 10.5,
          "duration": 0.5,
          "velocity": 80
        },
        {
          "pitch": 45,
          "onset": 11.0,
          "duration": 0.5,
          "velocity": 80
        },
        {
          "pitch": 43,
          "onset": 11.5,
          "duration": 0.5,
          "velocity": 80
        },
        {
          "pitch": 45,
          "onset": 12.0,
          "duration": 1.0,
          "velocity": 80
        },
        {
          "pitch": 50,
          "onset": 12.25,
          "duration": 0.5,
          "velocity": 80
        },
        {
          "pitch": 52,
          "onset": 12.75,
          "duration": 0.25,
          "velocity": 80
        },
        {
          "pitch": 52,
          "onset": 13.0,
          "duration": 0.0625,
          "velocity": 80
        },
        {
          "pitch": 53,
          "onset": 13.0625,
          "duration": 0.0625,
          "velocity": 80
        },
        {
          "pitch": 52,
          "onset": 13.125,
          "duration": 0.0625,
          "velocity": 80
        },
        {
          "pitch": 53,
          "onset": 13.1875,
          "duration": 0.0625,
          "velocity": 80
        },
        {
          "pitch": 52,
          "onset": 13.25,
          "duration": 0.0625,
          "velocity": 80
        },
        {
          "pitch": 53,
          "onset": 13.3125,
          "duration": 0.0625,
          "velocity": 80
        },
        {
          "pitch": 52,
          "onset": 13.375,
          "duration": 0.0625,
          "velocity": 80
        },
        {
          "pitch": 53,
          "onset": 13.4375,
          "duration": 0.0625,
          "velocity": 80
        },
        {
          "pitch": 52,
          "onset": 13.5,
          "duration": 0.0625,
          "velocity": 80
        },
        {
          "pitch": 53,
          "onset": 13.5625,
          "duration": 0.0625,
          "velocity": 80
        },
        {
          "pitch": 52,
          "onset": 13.625,
          "duration": 0.0625,
          "velocity": 80
        },
        {
          "pitch": 53,
          "onset": 13.6875,
          "duration": 0.0625,
          "velocity": 80
        },
        {
          "pitch": 52,
          "onset": 13.75,
          "duration": 0.0625,
          "velocity": 80
        },
        {
          "pitch": 53,
          "onset": 13.8125,
          "duration": 0.0625,
          "velocity": 80
        },
        {
          "pitch": 52,
          "onset": 13.875,
          "duration": 0.0625,
          "velocity": 80
        },
        {
          "pitch": 53,
          "onset": 13.9375,
          "duration": 0.0625,
          "velocity": 80
        },
        {
          "pitch": 52,
          "onset": 14.0,
          "duration": 0.5,
          "velocity": 80
        },
        {
          "pitch": 50,
          "onset": 14.5,
          "duration": 0.25,
          "velocity": 80
        },
        {
          "pitch": 52,
          "onset": 14.75,
          "duration": 0.25,
          "velocity": 80
        },
        {
          "pitch": 45,
          "onset": 15.0,
          "duration": 1.5,
          "velocity": 80
        },
        {
          "pitch": 53,
          "onset": 15.25,
          "duration": 1.25,
          "velocity": 80
        },
        {
          "pitch": 50,
          "onset": 16.5,
          "duration": 0.5,
          "velocity": 80
        },
        {
          "pitch": 52,
          "onset": 17.0,
          "duration": 0.5,
          "velocity": 80
        },
        {
          "pitch": 53,
          "onset": 17.5,
          "duration": 0.5,
          "velocity": 80
        },
        {
          "pitch": 55,
          "onset": 18.0,
          "duration": 0.5,
          "velocity": 80
        },
        {
          "pitch": 58,
          "onset": 18.5,
          "duration": 0.25,
          "velocity": 80
        },
        {
          "pitch": 57,
          "onset": 18.75,
          "duration": 0.25,
          "velocity": 80
        },
        {
          "pitch": 60,
          "onset": 19.0,
          "duration": 0.25,
          "velocity": 80
        },
        {
          "pitch": 58,
          "onset": 19.25,
          "duration": 0.25,
          "velocity": 80
        },
        {
          "pitch": 57,
          "onset": 19.5,
          "duration": 0.25,
          "velocity": 80
        },
        {
          "pitch": 55,
          "onset": 19.75,
          "duration": 0.25,
          "velocity": 80
        },
        {
          "pitch": 62,
          "onset": 20.0,
          "duration": 0.375,
          "velocity": 80
        },
        {
          "pitch": 53,
          "onset": 20.5,
          "duration": 0.375,
          "velocity": 80
        },
        {
          "pitch": 43,
          "onset": 21.0,
          "duration": 1.5,
          "velocity": 80
        },
        {
          "pitch": 52,
          "onset": 21.25,
          "duration": 0.3125,
          "velocity": 80
        },
        {
          "pitch": 53,
          "onset": 21.5625,
          "duration": 0.0625,
          "velocity": 80
        },
        {
          "pitch": 52,
          "onset": 21.625,
          "duration": 0.0625,
          "velocity": 80
        },
        {
          "pitch": 53,
          "onset": 21.6875,
          "duration": 0.0625,
          "velocity": 80
        },
        {
          "pitch": 52,
          "onset": 21.75,
          "duration": 0.75,
          "velocity": 80
        },
        {
          "pitch": 50,
          "onset": 22.5,
          "duration": 0.5,
          "velocity": 80
        },
        {
          "pitch": 48,
          "onset": 23.0,
          "duration": 0.5,
          "velocity": 80
        },
        {
          "pitch": 46,
          "onset": 23.5,
          "duration": 0.5,
          "velocity": 80
        },
        {
          "pitch": 53,
          "onset": 24.0,
          "duration": 0.5,
          "velocity": 74
        },
        {
          "pitch": 55,
          "onset": 24.5,
          "duration": 0.25,
          "velocity": 77
        },
        {
          "pitch": 57,
          "onset": 24.75,
          "duration": 0.25,
          "velocity": 79
        },
        {
          "pitch": 50,
          "onset": 25.0,
          "duration": 1.5,
          "velocity": 81
        },
        {
          "pitch": 57,
          "onset": 25.25,
          "duration": 1.25,
          "velocity": 82
        },
        {
          "pitch": 55,
          "onset": 26.5,
          "duration": 0.25,
          "velocity": 91
        },
        {
          "pitch": 53,
          "onset": 26.75,
          "duration": 0.25,
          "velocity": 93
        },
        {
          "pitch": 55,
          "onset": 27.0,
          "duration": 0.5,
          "velocity": 95
        },
        {
          "pitch": 57,
          "onset": 27.5,
          "duration": 0.25,
          "velocity": 99
        },
        {
          "pitch": 58,
          "onset": 27.75,
          "duration": 0.25,
          "velocity": 100
        },
        {
          "pitch": 53,
          "onset": 28.0,
          "duration": 2.0,
          "velocity": 110
        },
        {
          "pitch": 58,
          "onset": 28.25,
          "duration": 1.25,
          "velocity": 110
        },
        {
          "pitch": 60,
          "onset": 29.5,
          "duration": 0.25,
          "velocity": 110
        },
        {
          "pitch": 62,
          "onset": 29.75,
          "duration": 0.25,
          "velocity": 110
        },
        {
          "pitch": 52,
          "onset": 30.0,
          "duration": 0.5,
          "velocity": 100
        },
        {
          "pitch": 53,
          "onset": 30.5,
          "duration": 0.375,
          "velocity": 94
        },
        {
          "pitch": 53,
          "onset": 32.0,
          "duration": 0.5,
          "velocity": 76
        },
        {
          "pitch": 52,
          "onset": 32.5,
          "duration": 0.375,
          "velocity": 70
        },
        {
          "pitch": 53,
          "onset": 33.0,
          "duration": 1.0,
          "velocity": 80
        },
        {
          "pitch": 41,
          "onset": 34.0,
          "duration": 2.0,
          "velocity": 80
        },
        {
          "pitch": 50,
          "onset": 36.0,
          "duration": 0.75,
          "velocity": 80
        },
        {
          "pitch": 52,
          "onset": 36.75,
          "duration": 0.25,
          "velocity": 80
        },
        {
          "pitch": 52,
          "onset": 37.0,
          "duration": 0.0625,
          "velocity": 80
        },
        {
          "pitch": 53,
          "onset": 37.0625,
          "duration": 0.0625,
          "velocity": 80
        },
        {
          "pitch": 52,
          "onset": 37.125,
          "duration": 0.0625,
          "velocity": 80
        },
        {
          "pitch": 53,
          "onset": 37.1875,
          "duration": 0.0625,
          "velocity": 80
        },
        {
          "pitch": 52,
          "onset": 37.25,
          "duration": 0.0625,
          "velocity": 80
        },
        {
          "pitch": 53,
          "onset": 37.3125,
          "duration": 0.0625,
          "velocity": 80
        },
        {
          "pitch": 52,
          "onset": 37.375,
          "duration": 0.0625,
          "velocity": 80
        },
        {
          "pitch": 53,
          "onset": 37.4375,
          "duration": 0.0625,
          "velocity": 80
        },
        {
          "pitch": 52,
          "onset": 37.5,
          "duration": 0.0625,
          "velocity": 80
        },
        {
          "pitch": 53,
          "onset": 37.5625,
          "duration": 0.0625,
          "velocity": 80
        },
        {
          "pitch": 52,
          "onset": 37.625,
          "duration": 0.0625,
          "velocity": 80
        },
        {
          "pitch": 53,
          "onset": 37.6875,
          "duration": 0.0625,
          "velocity": 80
        },
        {
          "pitch": 52,
          "onset": 37.75,
          "duration": 0.0625,
          "velocity": 80
        },
        {
          "pitch": 53,
          "onset": 37.8125,
          "duration": 0.0625,
          "velocity": 80
        },
        {
          "pitch": 52,
          "onset": 37.875,
          "duration": 0.0625,
          "velocity": 80
        },
        {
          "pitch": 53,
          "onset": 37.9375,
          "duration": 0.0625,
          "velocity": 80
        },
        {
          "pitch": 52,
          "onset": 38.0,
          "duration": 0.5,
          "velocity": 80
        },
        {
          "pitch": 50,
          "onset": 38.5,
          "duration": 0.25,
          "velocity": 80
        },
        {
          "pitch": 52,
          "onset": 38.75,
          "duration": 0.25,
          "velocity": 80
        },
        {
          "pitch": 45,
          "onset": 39.0,
          "duration": 1.5,
          "velocity": 80
        },
        {
          "pitch": 53,
          "onset": 39.25,
          "duration": 1.25,
          "velocity": 80
        },
        {
          "pitch": 52,
          "onset": 40.5,
          "duration": 0.5,
          "velocity": 80
        },
        {
          "pitch": 50,
          "onset": 41.0,
          "duration": 0.5,
          "velocity": 80
        },
        {
          "pitch": 48,
          "onset": 41.5,
          "duration": 0.5,
          "velocity": 80
        },
        {
          "pitch": 46,
          "onset": 42.0,
          "duration": 0.5,
          "velocity": 80
        },
        {
          "pitch": 55,
          "onset": 42.5,
          "duration": 0.5,
          "velocity": 80
        },
        {
          "pitch": 53,
          "onset": 43.0,
          "duration": 0.0625,
          "velocity": 80
        },
        {
          "pitch": 55,
          "onset": 43.0625,
          "duration": 0.0625,
          "velocity": 80
        },
        {
          "pitch": 53,
          "onset": 43.125,
          "duration": 0.375,
          "velocity": 80
        },
        {
          "pitch": 52,
          "onset": 43.5,
          "duration": 0.25,
          "velocity": 80
        },
        {
          "pitch": 53,
          "onset": 43.75,
          "duration": 0.25,
          "velocity": 80
        },
        {
          "pitch": 55,
          "onset": 44.0,
          "duration": 0.25,
          "velocity": 80
        },
        {
          "pitch": 57,
          "onset": 44.25,
          "duration": 0.25,
          "velocity": 80
        },
        {
          "pitch": 58,
          "onset": 44.5,
          "duration": 0.25,
          "velocity": 80
        },
        {
          "pitch": 50,
          "onset": 44.75,
          "duration": 0.25,
          "velocity": 80
        },
        {
          "pitch": 49,
          "onset": 45.0,
          "duration": 0.0625,
          "velocity": 80
        },
        {
          "pitch": 50,
          "onset": 45.0625,
          "duration": 0.0625,
          "velocity": 80
        },
        {
          "pitch": 49,
          "onset": 45.125,
          "duration": 0.0625,
          "velocity": 80
        },
        {
          "pitch": 50,
          "onset": 45.1875,
          "duration": 0.0625,
          "velocity": 80
        },
        {
          "pitch": 49,
          "onset": 45.25,
          "duration": 0.0625,
          "velocity": 80
        },
        {
          "pitch": 50,
          "onset": 45.3125,
          "duration": 0.0625,
          "velocity": 80
        },
        {
          "pitch": 49,
          "onset": 45.375,
          "duration": 0.0625,
          "velocity": 80
        },
        {
          "pitch": 50,
          "onset": 45.4375,
          "duration": 0.0625,
          "velocity": 80
        },
        {
          "pitch": 49,
          "onset": 45.5,
          "duration": 1.0,
          "velocity": 80
        },
        {
          "pitch": 47,
          "onset": 46.5,
          "duration": 0.5,
          "velocity": 80
        },
        {
          "pitch": 45,
          "onset": 47.0,
          "duration": 0.5,
          "velocity": 80
        },
        {
          "pitch": 43,
          "onset": 47.5,
          "duration": 0.5,
          "velocity": 80
        },
        {
          "pitch": 45,
          "onset": 48.0,
          "duration": 1.0,
          "velocity": 80
        },
        {
          "pitch": 50,
          "onset": 48.25,
          "duration": 0.5,
          "velocity": 80
        },
        {
          "pitch": 52,
          "onset": 48.75,
          "duration": 0.25,
          "velocity": 80
        },
        {
          "pitch": 52,
          "onset": 49.0,
          "duration": 0.0625,
          "velocity": 80
        },
        {
          "pitch": 53,
          "onset": 49.0625,
          "duration": 0.0625,
          "velocity": 80
        },
        {
          "pitch": 52,
          "onset": 49.125,
          "duration": 0.0625,
          "velocity": 80
        },
        {
          "pitch": 53,
          "onset": 49.1875,
          "duration": 0.0625,
          "velocity": 80
        },
        {
          "pitch": 52,
          "onset": 49.25,
          "duration": 0.0625,
          "velocity": 80
        },
        {
          "pitch": 53,
          "onset": 49.3125,
          "duration": 0.0625,
          "velocity": 80
        },
        {
          "pitch": 52,
          "onset": 49.375,
          "duration": 0.0625,
          "velocity": 80
        },
        {
          "pitch": 53,
          "onset": 49.4375,
          "duration": 0.0625,
          "velocity": 80
        },
        {
          "pitch": 52,
          "onset": 49.5,
          "duration": 0.0625,
          "velocity": 80
        },
        {
          "pitch": 53,
          "onset": 49.5625,
          "duration": 0.0625,
          "velocity": 80
        },
        {
          "pitch": 52,
          "onset": 49.625,
          "duration": 0.0625,
          "velocity": 80
        },
        {
          "pitch": 53,
          "onset": 49.6875,
          "duration": 0.0625,
          "velocity": 80
        },
        {
          "pitch": 52,
          "onset": 49.75,
          "duration": 0.0625,
          "velocity": 80
        },
        {
          "pitch": 53,
          "onset": 49.8125,
          "duration": 0.0625,
          "velocity": 80
        },
        {
          "pitch": 52,
          "onset": 49.875,
          "duration": 0.0625,
          "velocity": 80
        },
        {
          "pitch": 53,
          "onset": 49.9375,
          "duration": 0.0625,
          "velocity": 80
        },
        {
          "pitch": 52,
          "onset": 50.0,
          "duration": 0.5,
          "velocity": 80
        },
        {
          "pitch": 50,
          "onset": 50.5,
          "duration": 0.25,
          "velocity": 80
        },
        {
          "pitch": 52,
          "onset": 50.75,
          "duration": 0.25,
          "velocity": 80
        },
        {
          "pitch": 45,
          "onset": 51.0,
          "duration": 1.5,
          "velocity": 80
        },
        {
          "pitch": 53,
          "onset": 51.25,
          "duration": 1.25,
          "velocity": 80
        },
        {
          "pitch": 50,
          "onset": 52.5,
          "duration": 0.5,
          "velocity": 80
        },
        {
          "pitch": 52,
          "onset": 53.0,
          "duration": 0.5,
          "velocity": 80
        },
        {
          "pitch": 53,
          "onset": 53.5,
          "duration": 0.5,
          "velocity": 80
        },
        {
          "pitch": 55,
          "onset": 54.0,
          "duration": 0.5,
          "velocity": 80
        },
        {
          "pitch": 58,
          "onset": 54.5,
          "duration": 0.25,
          "velocity": 80
        },
        {
          "pitch": 57,
          "onset": 54.75,
          "duration": 0.25,
          "velocity": 80
        },
        {
          "pitch": 60,
          "onset": 55.0,
          "duration": 0.25,
          "velocity": 80
        },
        {
          "pitch": 58,
          "onset": 55.25,
          "duration": 0.25,
          "velocity": 80
        },
        {
          "pitch": 57,
          "onset": 55.5,
          "duration": 0.25,
          "velocity": 80
        },
        {
          "pitch": 55,
          "onset": 55.75,
          "duration": 0.25,
          "velocity": 80
        },
        {
          "pitch": 62,
          "onset": 56.0,
          "duration": 0.375,
          "velocity": 80
        },
        {
          "pitch": 53,
          "onset": 56.5,
          "duration": 0.375,
          "velocity": 80
        },
        {
          "pitch": 43,
          "onset": 57.0,
          "duration": 1.5,
          "velocity": 80
        },
        {
          "pitch": 52,
          "onset": 57.25,
          "duration": 0.3125,
          "velocity": 80
        },
        {
          "pitch": 53,
          "onset": 57.5625,
          "duration": 0.0625,
          "velocity": 80
        },
        {
          "pitch": 52,
          "onset": 57.625,
          "duration": 0.0625,
          "velocity": 80
        },
        {
          "pitch": 53,
          "onset": 57.6875,
          "duration": 0.0625,
          "velocity": 80
        },
        {
          "pitch": 52,
          "onset": 57.75,
          "duration": 0.75,
          "velocity": 80
        },
        {
          "pitch": 50,
          "onset": 58.5,
          "duration": 0.5,
          "velocity": 80
        },
        {
          "pitch": 48,
          "onset": 59.0,
          "duration": 0.5,
          "velocity": 80
        },
        {
          "pitch": 46,
          "onset": 59.5,
          "duration": 0.5,
          "velocity": 80
        },
        {
          "pitch": 53,
          "onset": 60.0,
          "duration": 0.5,
          "velocity": 74
        },
        {
          "pitch": 55,
          "onset": 60.5,
          "duration": 0.25,
          "velocity": 77
        },
        {
          "pitch": 57,
          "onset": 60.75,
          "duration": 0.25,
          "velocity": 79
        },
        {
          "pitch": 50,
          "onset": 61.0,
          "duration": 1.5,
          "velocity": 81
        },
        {
          "pitch": 57,
          "onset": 61.25,
          "duration": 1.25,
          "velocity": 82
        },
        {
          "pitch": 55,
          "onset": 62.5,
          "duration": 0.25,
          "velocity": 91
        },
        {
          "pitch": 53,
          "onset": 62.75,
          "duration": 0.25,
          "velocity": 93
        },
        {
          "pitch": 55,
          "onset": 63.0,
          "duration": 0.5,
          "velocity": 95
        },
        {
          "pitch": 57,
          "onset": 63.5,
          "duration": 0.25,
          "velocity": 99
        },
        {
          "pitch": 58,
          "onset": 63.75,
          "duration": 0.25,
          "velocity": 100
        },
        {
          "pitch": 53,
          "onset": 64.0,
          "duration": 2.0,
          "velocity": 110
        },
        {
          "pitch": 58,
          "onset": 64.25,
          "duration": 1.25,
          "velocity": 110
        },
        {
          "pitch": 60,
          "onset": 65.5,
          "duration": 0.25,
          "velocity": 110
        },
        {
          "pitch": 62,
          "onset": 65.75,
          "duration": 0.25,
          "velocity": 110
        },
        {
          "pitch": 52,
          "onset": 66.0,
          "duration": 0.5,
          "velocity": 100
        },
        {
          "pitch": 53,
          "onset": 66.5,
          "duration": 0.375,
          "velocity": 94
        },
        {
          "pitch": 53,
          "onset": 68.0,
          "duration": 0.5,
          "velocity": 76
        },
        {
          "pitch": 52,
          "onset": 68.5,
          "duration": 0.375,
          "velocity": 70
        },
        {
          "pitch": 53,
          "onset": 69.0,
          "duration": 1.0,
          "velocity": 80
        },
        {
          "pitch": 41,
          "onset": 70.0,
          "duration": 1.75,
          "velocity": 80
        },
        {
          "pitch": 57,
          "onset": 72.0,
          "duration": 1.0,
          "velocity": 80
        },
        {
          "pitch": 57,
          "onset": 73.0,
          "duration": 0.0625,
          "velocity": 80
        },
        {
          "pitch": 58,
          "onset": 73.0625,
          "duration": 0.0625,
          "velocity": 80
        },
        {
          "pitch": 57,
          "onset": 73.125,
          "duration": 0.0625,
          "velocity": 80
        },
        {
          "pitch": 58,
          "onset": 73.1875,
          "duration": 0.0625,
          "velocity": 80
        },
        {
          "pitch": 57,
          "onset": 73.25,
          "duration": 0.0625,
          "velocity": 80
        },
        {
          "pitch": 58,
          "onset": 73.3125,
          "duration": 0.0625,
          "velocity": 80
        },
        {
          "pitch": 57,
          "onset": 73.375,
          "duration": 0.0625,
          "velocity": 80
        },
        {
          "pitch": 58,
          "onset": 73.4375,
          "duration": 0.0625,
          "velocity": 80
        },
        {
          "pitch": 57,
          "onset": 73.5,
          "duration": 1.0,
          "velocity": 80
        },
        {
          "pitch": 58,
          "onset": 74.5,
          "duration": 0.5,
          "velocity": 80
        },
        {
          "pitch": 60,
          "onset": 75.0,
          "duration": 0.5,
          "velocity": 80
        },
        {
          "pitch": 58,
          "onset": 75.5,
          "duration": 0.25,
          "velocity": 80
        },
        {
          "pitch": 57,
          "onset": 75.75,
          "duration": 0.25,
          "velocity": 80
        },
        {
          "pitch": 54,
          "onset": 76.0,
          "duration": 0.0625,
          "velocity": 80
        },
        {
          "pitch": 55,
          "onset": 76.0625,
          "duration": 0.0625,
          "velocity": 80
        },
        {
          "pitch": 54,
          "onset": 76.125,
          "duration": 0.0625,
          "velocity": 80
        },
        {
          "pitch": 55,
          "onset": 76.1875,
          "duration": 0.0625,
          "velocity": 80
        },
        {
          "pitch": 54,
          "onset": 76.25,
          "duration": 0.0625,
          "velocity": 80
        },
        {
          "pitch": 55,
          "onset": 76.3125,
          "duration": 0.0625,
          "velocity": 80
        },
        {
          "pitch": 54,
          "onset": 76.375,
          "duration": 0.0625,
          "velocity": 80
        },
        {
          "pitch": 55,
          "onset": 76.4375,
          "duration": 0.0625,
          "velocity": 80
        },
        {
          "pitch": 54,
          "onset": 76.5,
          "duration": 0.25,
          "velocity": 80
        },
        {
          "pitch": 51,
          "onset": 76.75,
          "duration": 0.25,
          "velocity": 80
        },
        {
          "pitch": 50,
          "onset": 77.0,
          "duration": 0.5,
          "velocity": 80
        },
        {
          "pitch": 48,
          "onset": 77.5,
          "duration": 0.5,
          "velocity": 80
        },
        {
          "pitch": 55,
          "onset": 78.5,
          "duration": 0.375,
          "velocity": 80
        },
        {
          "pitch": 54,
          "onset": 79.5,
          "duration": 0.375,
          "velocity": 80
        },
        {
          "pitch": 63,
          "onset": 80.0,
          "duration": 0.5,
          "velocity": 80
        },
        {
          "pitch": 62,
          "onset": 80.5,
          "duration": 0.375,
          "velocity": 80
        },
        {
          "pitch": 50,
          "onset": 81.0,
          "duration": 1.5,
          "velocity": 80
        },
        {
          "pitch": 58,
          "onset": 81.25,
          "duration": 0.25,
          "velocity": 80
        },
        {
          "pitch": 60,
          "onset": 81.5,
          "duration": 0.0625,
          "velocity": 80
        },
        {
          "pitch": 58,
          "onset": 81.5625,
          "duration": 0.0625,
          "velocity": 80
        },
        {
          "pitch": 60,
          "onset": 81.625,
          "duration": 0.0625,
          "velocity": 80
        },
        {
          "pitch": 58,
          "onset": 81.6875,
          "duration": 0.0625,
          "velocity": 80
        },
        {
          "pitch": 60,
          "onset": 81.75,
          "duration": 0.0625,
          "velocity": 80
        },
        {
          "pitch": 58,
          "onset": 81.8125,
          "duration": 0.6875,
          "velocity": 80
        },
        {
          "pitch": 57,
          "onset": 82.5,
          "duration": 0.5,
          "velocity": 80
        },
        {
          "pitch": 55,
          "onset": 83.0,
          "duration": 0.5,
          "velocity": 80
        },
        {
          "pitch": 53,
          "onset": 83.5,
          "duration": 0.5,
          "velocity": 80
        },
        {
          "pitch": 52,
          "onset": 84.0,
          "duration": 0.625,
          "velocity": 80
        },
        {
          "pitch": 53,
          "onset": 85.5,
          "duration": 0.5,
          "velocity": 80
        },
        {
          "pitch": 55,
          "onset": 86.0,
          "duration": 0.5,
          "velocity": 80
        },
        {
          "pitch": 57,
          "onset": 86.5,
          "duration": 0.5,
          "velocity": 80
        },
        {
          "pitch": 50,
          "onset": 87.0,
          "duration": 0.625,
          "velocity": 80
        },
        {
          "pitch": 51,
          "onset": 88.5,
          "duration": 0.5,
          "velocity": 80
        },
        {
          "pitch": 53,
          "onset": 89.0,
          "duration": 0.5,
          "velocity": 80
        },
        {
          "pitch": 55,
          "onset": 89.5,
          "duration": 0.5,
          "velocity": 80
        },
        {
          "pitch": 58,
          "onset": 90.5,
          "duration": 0.5,
          "velocity": 80
        },
        {
          "pitch": 57,
          "onset": 91.0,
          "duration": 0.5,
          "velocity": 80
        },
        {
          "pitch": 55,
          "onset": 91.5,
          "duration": 0.25,
          "velocity": 80
        },
        {
          "pitch": 53,
          "onset": 91.75,
          "duration": 0.25,
          "velocity": 80
        },
        {
          "pitch": 52,
          "onset": 92.0,
          "duration": 0.5,
          "velocity": 80
        },
        {
          "pitch": 53,
          "onset": 92.5,
          "duration": 0.25,
          "velocity": 80
        },
        {
          "pitch": 50,
          "onset": 92.75,
          "duration": 0.25,
          "velocity": 80
        },
        {
          "pitch": 52,
          "onset": 93.5,
          "duration": 0.25,
          "velocity": 80
        },
        {
          "pitch": 57,
          "onset": 93.75,
          "duration": 0.25,
          "velocity": 80
        },
        {
          "pitch": 55,
          "onset": 94.75,
          "duration": 0.25,
          "velocity": 80
        },
        {
          "pitch": 53,
          "onset": 95.0,
          "duration": 0.5,
          "velocity": 80
        },
        {
          "pitch": 52,
          "onset": 95.5,
          "duration": 0.5,
          "velocity": 80
        },
        {
          "pitch": 50,
          "onset": 96.0,
          "duration": 0.5,
          "velocity": 80
        },
        {
          "pitch": 52,
          "onset": 96.5,
          "duration": 0.25,
          "velocity": 81
        },
        {
          "pitch": 53,
          "onset": 96.75,
          "duration": 0.25,
          "velocity": 82
        },
        {
          "pitch": 53,
          "onset": 97.0,
          "duration": 1.5,
          "velocity": 83
        },
        {
          "pitch": 52,
          "onset": 98.5,
          "duration": 0.25,
          "velocity": 89
        },
        {
          "pitch": 50,
          "onset": 98.75,
          "duration": 0.25,
          "velocity": 90
        },
        {
          "pitch": 52,
          "onset": 99.0,
          "duration": 0.5,
          "velocity": 90
        },
        {
          "pitch": 53,
          "onset": 99.5,
          "duration": 0.25,
          "velocity": 92
        },
        {
          "pitch": 55,
          "onset": 99.75,
          "duration": 0.25,
          "velocity": 93
        },
        {
          "pitch": 46,
          "onset": 100.0,
          "duration": 1.5,
          "velocity": 94
        },
        {
          "pitch": 55,
          "onset": 100.25,
          "duration": 1.25,
          "velocity": 95
        },
        {
          "pitch": 57,
          "onset": 101.5,
          "duration": 0.25,
          "velocity": 100
        },
        {
          "pitch": 58,
          "onset": 101.75,
          "duration": 0.25,
          "velocity": 100
        },
        {
          "pitch": 50,
          "onset": 102.0,
          "duration": 0.5,
          "velocity": 100
        },
        {
          "pitch": 57,
          "onset": 102.125,
          "duration": 0.375,
          "velocity": 100
        },
        {
          "pitch": 61,
          "onset": 102.5,
          "duration": 0.25,
          "velocity": 100
        },
        {
          "pitch": 62,
          "onset": 102.75,
          "duration": 0.25,
          "velocity": 100
        },
        {
          "pitch": 50,
          "onset": 103.0,
          "duration": 0.5,
          "velocity": 100
        },
        {
          "pitch": 52,
          "onset": 103.5,
          "duration": 0.25,
          "velocity": 100
        },
        {
          "pitch": 53,
          "onset": 103.75,
          "duration": 0.125,
          "velocity": 100
        },
        {
          "pitch": 55,
          "onset": 103.875,
          "duration": 0.125,
          "velocity": 100
        },
        {
          "pitch": 53,
          "onset": 104.0,
          "duration": 0.0625,
          "velocity": 100
        },
        {
          "pitch": 55,
          "onset": 104.0625,
          "duration": 0.0625,
          "velocity": 100
        },
        {
          "pitch": 53,
          "onset": 104.125,
          "duration": 0.0625,
          "velocity": 100
        },
        {
          "pitch": 55,
          "onset": 104.1875,
          "duration": 0.0625,
          "velocity": 100
        },
        {
          "pitch": 53,
          "onset": 104.25,
          "duration": 0.25,
          "velocity": 95
        },
        {
          "pitch": 52,
          "onset": 104.5,
          "duration": 0.25,
          "velocity": 87
        },
        {
          "pitch": 50,
          "onset": 104.75,
          "duration": 0.25,
          "velocity": 78
        },
        {
          "pitch": 50,
          "onset": 105.0,
          "duration": 1.0,
          "velocity": 70
        },
        {
          "pitch": 45,
          "onset": 106.25,
          "duration": 0.25,
          "velocity": 74
        },
        {
          "pitch": 47,
          "onset": 106.5,
          "duration": 0.25,
          "velocity": 78
        },
        {
          "pitch": 49,
          "onset": 106.75,
          "duration": 0.25,
          "velocity": 83
        },
        {
          "pitch": 50,
          "onset": 107.0,
          "duration": 0.25,
          "velocity": 87
        },
        {
          "pitch": 52,
          "onset": 107.25,
          "duration": 0.25,
          "velocity": 92
        },
        {
          "pitch": 53,
          "onset": 107.5,
          "duration": 0.25,
          "velocity": 96
        },
        {
          "pitch": 55,
          "onset": 107.75,
          "duration": 0.25,
          "velocity": 100
        },
        {
          "pitch": 57,
          "onset": 108.0,
          "duration": 0.25,
          "velocity": 100
        },
        {
          "pitch": 59,
          "onset": 108.25,
          "duration": 0.25,
          "velocity": 100
        },
        {
          "pitch": 60,
          "onset": 108.5,
          "duration": 0.25,
          "velocity": 100
        },
        {
          "pitch": 59,
          "onset": 108.75,
          "duration": 0.25,
          "velocity": 100
        },
        {
          "pitch": 60,
          "onset": 109.0,
          "duration": 1.5,
          "velocity": 100
        },
        {
          "pitch": 59,
          "onset": 110.5,
          "duration": 0.25,
          "velocity": 100
        },
        {
          "pitch": 57,
          "onset": 110.75,
          "duration": 0.25,
          "velocity": 100
        },
        {
          "pitch": 50,
          "onset": 111.0,
          "duration": 1.0,
          "velocity": 100
        },
        {
          "pitch": 59,
          "onset": 111.125,
          "duration": 0.125,
          "velocity": 100
        },
        {
          "pitch": 61,
          "onset": 111.25,
          "duration": 0.25,
          "velocity": 100
        },
        {
          "pitch": 62,
          "onset": 111.5,
          "duration": 0.25,
          "velocity": 100
        },
        {
          "pitch": 61,
          "onset": 111.75,
          "duration": 0.25,
          "velocity": 100
        },
        {
          "pitch": 62,
          "onset": 112.0,
          "duration": 1.5,
          "velocity": 100
        },
        {
          "pitch": 64,
          "onset": 113.5,
          "duration": 0.25,
          "velocity": 100
        },
        {
          "pitch": 65,
          "onset": 113.75,
          "duration": 0.25,
          "velocity": 100
        },
        {
          "pitch": 62,
          "onset": 114.0,
          "duration": 0.25,
          "velocity": 100
        },
        {
          "pitch": 61,
          "onset": 114.25,
          "duration": 0.25,
          "velocity": 100
        },
        {
          "pitch": 62,
          "onset": 114.5,
          "duration": 0.25,
          "velocity": 100
        },
        {
          "pitch": 53,
          "onset": 114.75,
          "duration": 0.25,
          "velocity": 100
        },
        {
          "pitch": 52,
          "onset": 115.5,
          "duration": 0.375,
          "velocity": 92
        },
        {
          "pitch": 62,
          "onset": 116.0,
          "duration": 0.5,
          "velocity": 90
        },
        {
          "pitch": 61,
          "onset": 116.5,
          "duration": 0.5,
          "velocity": 80
        },
        {
          "pitch": 62,
          "onset": 117.0,
          "duration": 1.0,
          "velocity": 70
        },
        {
          "pitch": 57,
          "onset": 120.0,
          "duration": 1.0,
          "velocity": 80
        },
        {
          "pitch": 57,
          "onset": 121.0,
          "duration": 0.0625,
          "velocity": 80
        },
        {
          "pitch": 58,
          "onset": 121.0625,
          "duration": 0.0625,
          "velocity": 80
        },
        {
          "pitch": 57,
          "onset": 121.125,
          "duration": 0.0625,
          "velocity": 80
        },
        {
          "pitch": 58,
          "onset": 121.1875,
          "duration": 0.0625,
          "velocity": 80
        },
        {
          "pitch": 57,
          "onset": 121.25,
          "duration": 0.0625,
          "velocity": 80
        },
        {
          "pitch": 58,
          "onset": 121.3125,
          "duration": 0.0625,
          "velocity": 80
        },
        {
          "pitch": 57,
          "onset": 121.375,
          "duration": 0.0625,
          "velocity": 80
        },
        {
          "pitch": 58,
          "onset": 121.4375,
          "duration": 0.0625,
          "velocity": 80
        },
        {
          "pitch": 57,
          "onset": 121.5,
          "duration": 1.0,
          "velocity": 80
        },
        {
          "pitch": 58,
          "onset": 122.5,
          "duration": 0.5,
          "velocity": 80
        },
        {
          "pitch": 60,
          "onset": 123.0,
          "duration": 0.5,
          "velocity": 80
        },
        {
          "pitch": 58,
          "onset": 123.5,
          "duration": 0.25,
          "velocity": 80
        },
        {
          "pitch": 57,
          "onset": 123.75,
          "duration": 0.25,
          "velocity": 80
        },
        {
          "pitch": 54,
          "onset": 124.0,
          "duration": 0.0625,
          "velocity": 80
        },
        {
          "pitch": 55,
          "onset": 124.0625,
          "duration": 0.0625,
          "velocity": 80
        },
        {
          "pitch": 54,
          "onset": 124.125,
          "duration": 0.0625,
          "velocity": 80
        },
        {
          "pitch": 55,
          "onset": 124.1875,
          "duration": 0.0625,
          "velocity": 80
        },
        {
          "pitch": 54,
          "onset": 124.25,
          "duration": 0.0625,
          "velocity": 80
        },
        {
          "pitch": 55,
          "onset": 124.3125,
          "duration": 0.0625,
          "velocity": 80
        },
        {
          "pitch": 54,
          "onset": 124.375,
          "duration": 0.0625,
          "velocity": 80
        },
        {
          "pitch": 55,
          "onset": 124.4375,
          "duration": 0.0625,
          "velocity": 80
        },
        {
          "pitch": 54,
          "onset": 124.5,
          "duration": 0.25,
          "velocity": 80
        },
        {
          "pitch": 51,
          "onset": 124.75,
          "duration": 0.25,
          "velocity": 80
        },
        {
          "pitch": 50,
          "onset": 125.0,
          "duration": 0.5,
          "velocity": 80
        },
        {
          "pitch": 48,
          "onset": 125.5,
          "duration": 0.5,
          "velocity": 80
        },
        {
          "pitch": 55,
          "onset": 126.5,
          "duration": 0.375,
          "velocity": 80
        },
        {
          "pitch": 54,
          "onset": 127.5,
          "duration": 0.375,
          "velocity": 80
        },
        {
          "pitch": 63,
          "onset": 128.0,
          "duration": 0.5,
          "velocity": 80
        },
        {
          "pitch": 62,
          "onset": 128.5,
          "duration": 0.375,
          "velocity": 80
        },
        {
          "pitch": 50,
          "onset": 129.0,
          "duration": 1.5,
          "velocity": 80
        },
        {
          "pitch": 58,
          "onset": 129.25,
          "duration": 0.25,
          "velocity": 80
        },
        {
          "pitch": 60,
          "onset": 129.5,
          "duration": 0.0625,
          "velocity": 80
        },
        {
          "pitch": 58,
          "onset": 129.5625,
          "duration": 0.0625,
          "velocity": 80
        },
        {
          "pitch": 60,
          "onset": 129.625,
          "duration": 0.0625,
          "velocity": 80
        },
        {
          "pitch": 58,
          "onset": 129.6875,
          "duration": 0.0625,
          "velocity": 80
        },
        {
          "pitch": 60,
          "onset": 129.75,
          "duration": 0.0625,
          "velocity": 80
        },
        {
          "pitch": 58,
          "onset": 129.8125,
          "duration": 0.6875,
          "velocity": 80
        },
        {
          "pitch": 57,
          "onset": 130.5,
          "duration": 0.5,
          "velocity": 80
        },
        {
          "pitch": 55,
          "onset": 131.0,
          "duration": 0.5,
          "velocity": 80
        },
        {
          "pitch": 53,
          "onset": 131.5,
          "duration": 0.5,
          "velocity": 80
        },
        {
          "pitch": 52,
          "onset": 132.0,
          "duration": 0.625,
          "velocity": 80
        },
        {
          "pitch": 53,
          "onset": 133.5,
          "duration": 0.5,
          "velocity": 80
        },
        {
          "pitch": 55,
          "onset": 134.0,
          "duration": 0.5,
          "velocity": 80
        },
        {
          "pitch": 57,
          "onset": 134.5,
          "duration": 0.5,
          "velocity": 80
        },
        {
          "pitch": 50,
          "onset": 135.0,
          "duration": 0.625,
          "velocity": 80
        },
        {
          "pitch": 51,
          "onset": 136.5,
          "duration": 0.5,
          "velocity": 80
        },
        {
          "pitch": 53,
          "onset": 137.0,
          "duration": 0.5,
          "velocity": 80
        },
        {
          "pitch": 55,
          "onset": 137.5,
          "duration": 0.5,
          "velocity": 80
        },
        {
          "pitch": 58,
          "onset": 138.5,
          "duration": 0.5,
          "velocity": 80
        },
        {
          "pitch": 57,
          "onset": 139.0,
          "duration": 0.5,
          "velocity": 80
        },
        {
          "pitch": 55,
          "onset": 139.5,
          "duration": 0.25,
          "velocity": 80
        },
        {
          "pitch": 53,
          "onset": 139.75,
          "duration": 0.25,
          "velocity": 80
        },
        {
          "pitch": 52,
          "onset": 140.0,
          "duration": 0.5,
          "velocity": 80
        },
        {
          "pitch": 53,
          "onset": 140.5,
          "duration": 0.25,
          "velocity": 80
        },
        {
          "pitch": 50,
          "onset": 140.75,
          "duration": 0.25,
          "velocity": 80
        },
        {
          "pitch": 52,
          "onset": 141.5,
          "duration": 0.25,
          "velocity": 80
        },
        {
          "pitch": 57,
          "onset": 141.75,
          "duration": 0.25,
          "velocity": 80
        },
        {
          "pitch": 55,
          "onset": 142.75,
          "duration": 0.25,
          "velocity": 80
        },
        {
          "pitch": 53,
          "onset": 143.0,
          "duration": 0.5,
          "velocity": 80
        },
        {
          "pitch": 52,
          "onset": 143.5,
          "duration": 0.5,
          "velocity": 80
        },
        {
          "pitch": 50,
          "onset": 144.0,
          "duration": 0.5,
          "velocity": 80
        },
        {
          "pitch": 52,
          "onset": 144.5,
          "duration": 0.25,
          "velocity": 81
        },
        {
          "pitch": 53,
          "onset": 144.75,
          "duration": 0.25,
          "velocity": 82
        },
        {
          "pitch": 53,
          "onset": 145.0,
          "duration": 1.5,
          "velocity": 83
        },
        {
          "pitch": 52,
          "onset": 146.5,
          "duration": 0.25,
          "velocity": 89
        },
        {
          "pitch": 50,
          "onset": 146.75,
          "duration": 0.25,
          "velocity": 90
        },
        {
          "pitch": 52,
          "onset": 147.0,
          "duration": 0.5,
          "velocity": 90
        },
        {
          "pitch": 53,
          "onset": 147.5,
          "duration": 0.25,
          "velocity": 92
        },
        {
          "pitch": 55,
          "onset": 147.75,
          "duration": 0.25,
          "velocity": 93
        },
        {
          "pitch": 46,
          "onset": 148.0,
          "duration": 1.5,
          "velocity": 94
        },
        {
          "pitch": 55,
          "onset": 148.25,
          "duration": 1.25,
          "velocity": 95
        },
        {
          "pitch": 57,
          "onset": 149.5,
          "duration": 0.25,
          "velocity": 100
        },
        {
          "pitch": 58,
          "onset": 149.75,
          "duration": 0.25,
          "velocity": 100
        },
        {
          "pitch": 50,
          "onset": 150.0,
          "duration": 0.5,
          "velocity": 100
        },
        {
          "pitch": 57,
          "onset": 150.125,
          "duration": 0.375,
          "velocity": 100
        },
        {
          "pitch": 61,
          "onset": 150.5,
          "duration": 0.25,
          "velocity": 100
        },
        {
          "pitch": 62,
          "onset": 150.75,
          "duration": 0.25,
          "velocity": 100
        },
        {
          "pitch": 50,
          "onset": 151.0,
          "duration": 0.5,
          "velocity": 100
        },
        {
          "pitch": 52,
          "onset": 151.5,
          "duration": 0.25,
          "velocity": 100
        },
        {
          "pitch": 53,
          "onset": 151.75,
          "duration": 0.125,
          "velocity": 100
        },
        {
          "pitch": 55,
          "onset": 151.875,
          "duration": 0.125,
          "velocity": 100
        },
        {
          "pitch": 53,
          "onset": 152.0,
          "duration": 0.0625,
          "velocity": 100
        },
        {
          "pitch": 55,
          "onset": 152.0625,
          "duration": 0.0625,
          "velocity": 100
        },
        {
          "pitch": 53,
          "onset": 152.125,
          "duration": 0.0625,
          "velocity": 100
        },
        {
          "pitch": 55,
          "onset": 152.1875,
          "duration": 0.0625,
          "velocity": 100
        },
        {
          "pitch": 53,
          "onset": 152.25,
          "duration": 0.25,
          "velocity": 95
        },
        {
          "pitch": 52,
          "onset": 152.5,
          "duration": 0.25,
          "velocity": 87
        },
        {
          "pitch": 50,
          "onset": 152.75,
          "duration": 0.25,
          "velocity": 78
        },
        {
          "pitch": 50,
          "onset": 153.0,
          "duration": 1.0,
          "velocity": 70
        },
        {
          "pitch": 45,
          "onset": 154.25,
          "duration": 0.25,
          "velocity": 74
        },
        {
          "pitch": 47,
          "onset": 154.5,
          "duration": 0.25,
          "velocity": 78
        },
        {
          "pitch": 49,
          "onset": 154.75,
          "duration": 0.25,
          "velocity": 83
        },
        {
          "pitch": 50,
          "onset": 155.0,
          "duration": 0.25,
          "velocity": 87
        },
        {
          "pitch": 52,
          "onset": 155.25,
          "duration": 0.25,
          "velocity": 92
        },
        {
          "pitch": 53,
          "onset": 155.5,
          "duration": 0.25,
          "velocity": 96
        },
        {
          "pitch": 55,
          "onset": 155.75,
          "duration": 0.25,
          "velocity": 100
        },
        {
          "pitch": 57,
          "onset": 156.0,
          "duration": 0.25,
          "velocity": 100
        },
        {
          "pitch": 59,
          "onset": 156.25,
          "duration": 0.25,
          "velocity": 100
        },
        {
          "pitch": 60,
          "onset": 156.5,
          "duration": 0.25,
          "velocity": 100
        },
        {
          "pitch": 59,
          "onset": 156.75,
          "duration": 0.25,
          "velocity": 100
        },
        {
          "pitch": 60,
          "onset": 157.0,
          "duration": 1.5,
          "velocity": 100
        },
        {
          "pitch": 59,
          "onset": 158.5,
          "duration": 0.25,
          "velocity": 100
        },
        {
          "pitch": 57,
          "onset": 158.75,
          "duration": 0.25,
          "velocity": 100
        },
        {
          "pitch": 50,
          "onset": 159.0,
          "duration": 1.0,
          "velocity": 100
        },
        {
          "pitch": 59,
          "onset": 159.125,
          "duration": 0.125,
          "velocity": 100
        },
        {
          "pitch": 61,
          "onset": 159.25,
          "duration": 0.25,
          "velocity": 100
        },
        {
          "pitch": 62,
          "onset": 159.5,
          "duration": 0.25,
          "velocity": 100
        },
        {
          "pitch": 61,
          "onset": 159.75,
          "duration": 0.25,
          "velocity": 100
        },
        {
          "pitch": 62,
          "onset": 160.0,
          "duration": 1.5,
          "velocity": 100
        },
        {
          "pitch": 64,
          "onset": 161.5,
          "duration": 0.25,
          "velocity": 100
        },
        {
          "pitch": 65,
          "onset": 161.75,
          "duration": 0.25,
          "velocity": 100
        },
        {
          "pitch": 62,
          "onset": 162.0,
          "duration": 0.25,
          "velocity": 100
        },
        {
          "pitch": 61,
          "onset": 162.25,
          "duration": 0.25,
          "velocity": 100
        },
        {
          "pitch": 62,
          "onset": 162.5,
          "duration": 0.25,
          "velocity": 100
        },
        {
          "pitch": 53,
          "onset": 162.75,
          "duration": 0.25,
          "velocity": 100
        },
        {
          "pitch": 52,
          "onset": 163.5,
          "duration": 0.375,
          "velocity": 92
        },
        {
          "pitch": 62,
          "onset": 164.0,
          "duration": 0.5,
          "velocity": 90
        },
        {
          "pitch": 61,
          "onset": 164.5,
          "duration": 0.5,
          "velocity": 80
        },
        {
          "pitch": 62,
          "onset": 165.0,
          "duration": 1.0,
          "velocity": 70
        },
        {
          "pitch": 41,
          "onset": 169.5,
          "duration": 0.25,
          "velocity": 1
        }
      ]
    },
    {
      "role": "solo_1",
      "notes": [
        {
          "pitch": 50,
          "onset": 0.0,
          "duration": 1.0,
          "velocity": 80
        },
        {
          "pitch": 45,
          "onset": 1.0,
          "duration": 2.0,
          "velocity": 80
        },
        {
          "pitch": 38,
          "onset": 3.0,
          "duration": 0.5,
          "velocity": 80
        },
        {
          "pitch": 41,
          "onset": 12.0,
          "duration": 0.5,
          "velocity": 80
        },
        {
          "pitch": 45,
          "onset": 13.0,
          "duration": 2.0,
          "velocity": 80
        },
        {
          "pitch": 38,
          "onset": 15.0,
          "duration": 0.5,
          "velocity": 80
        },
        {
          "pitch": 36,
          "onset": 21.0,
          "duration": 0.5,
          "velocity": 80
        },
        {
          "pitch": 45,
          "onset": 24.0,
          "duration": 1.0,
          "velocity": 74
        },
        {
          "pitch": 46,
          "onset": 25.0,
          "duration": 0.5,
          "velocity": 81
        },
        {
          "pitch": 46,
          "onset": 27.0,
          "duration": 1.0,
          "velocity": 95
        },
        {
          "pitch": 43,
          "onset": 28.0,
          "duration": 0.5,
          "velocity": 110
        },
        {
          "pitch": 36,
          "onset": 31.0,
          "duration": 0.5,
          "velocity": 88
        },
        {
          "pitch": 43,
          "onset": 31.5,
          "duration": 0.375,
          "velocity": 82
        },
        {
          "pitch": 50,
          "onset": 36.0,
          "duration": 1.0,
          "velocity": 80
        },
        {
          "pitch": 45,
          "onset": 37.0,
          "duration": 2.0,
          "velocity": 80
        },
        {
          "pitch": 38,
          "onset": 39.0,
          "duration": 0.5,
          "velocity": 80
        },
        {
          "pitch": 41,
          "onset": 48.0,
          "duration": 0.5,
          "velocity": 80
        },
        {
          "pitch": 45,
          "onset": 49.0,
          "duration": 2.0,
          "velocity": 80
        },
        {
          "pitch": 38,
          "onset": 51.0,
          "duration": 0.5,
          "velocity": 80
        },
        {
          "pitch": 36,
          "onset": 57.0,
          "duration": 0.5,
          "velocity": 80
        },
        {
          "pitch": 45,
          "onset": 60.0,
          "duration": 1.0,
          "velocity": 74
        },
        {
          "pitch": 46,
          "onset": 61.0,
          "duration": 0.5,
          "velocity": 81
        },
        {
          "pitch": 46,
          "onset": 63.0,
          "duration": 1.0,
          "velocity": 95
        },
        {
          "pitch": 43,
          "onset": 64.0,
          "duration": 0.5,
          "velocity": 110
        },
        {
          "pitch": 36,
          "onset": 67.0,
          "duration": 0.5,
          "velocity": 88
        },
        {
          "pitch": 43,
          "onset": 67.5,
          "duration": 0.375,
          "velocity": 82
        },
        {
          "pitch": 53,
          "onset": 72.0,
          "duration": 0.5,
          "velocity": 80
        },
        {
          "pitch": 51,
          "onset": 72.5,
          "duration": 0.5,
          "velocity": 80
        },
        {
          "pitch": 51,
          "onset": 73.0,
          "duration": 1.5,
          "velocity": 80
        },
        {
          "pitch": 50,
          "onset": 75.0,
          "duration": 1.0,
          "velocity": 80
        },
        {
          "pitch": 46,
          "onset": 78.0,
          "duration": 0.5938,
          "velocity": 80
        },
        {
          "pitch": 45,
          "onset": 79.0,
          "duration": 0.5938,
          "velocity": 80
        },
        {
          "pitch": 43,
          "onset": 81.0,
          "duration": 0.5,
          "velocity": 80
        },
        {
          "pitch": 46,
          "onset": 84.5,
          "duration": 0.5,
          "velocity": 80
        },
        {
          "pitch": 45,
          "onset": 85.0,
          "duration": 0.625,
          "velocity": 80
        },
        {
          "pitch": 44,
          "onset": 87.5,
          "duration": 0.5,
          "velocity": 80
        },
        {
          "pitch": 43,
          "onset": 88.0,
          "duration": 0.625,
          "velocity": 80
        },
        {
          "pitch": 49,
          "onset": 90.0,
          "duration": 0.625,
          "velocity": 80
        },
        {
          "pitch": 49,
          "onset": 93.0,
          "duration": 0.625,
          "velocity": 80
        },
        {
          "pitch": 45,
          "onset": 94.0,
          "duration": 0.8438,
          "velocity": 80
        },
        {
          "pitch": 46,
          "onset": 96.0,
          "duration": 1.0,
          "velocity": 80
        },
        {
          "pitch": 43,
          "onset": 97.0,
          "duration": 2.0,
          "velocity": 83
        },
        {
          "pitch": 43,
          "onset": 99.0,
          "duration": 1.0,
          "velocity": 90
        },
        {
          "pitch": 37,
          "onset": 100.0,
          "duration": 0.5,
          "velocity": 94
        },
        {
          "pitch": 41,
          "onset": 102.0,
          "duration": 0.25,
          "velocity": 100
        },
        {
          "pitch": 45,
          "onset": 102.0,
          "duration": 0.375,
          "velocity": 100
        },
        {
          "pitch": 43,
          "onset": 103.5,
          "duration": 0.5,
          "velocity": 100
        },
        {
          "pitch": 45,
          "onset": 104.0,
          "duration": 1.0,
          "velocity": 100
        },
        {
          "pitch": 38,
          "onset": 106.0,
          "duration": 0.375,
          "velocity": 70
        },
        {
          "pitch": 53,
          "onset": 108.0,
          "duration": 1.0,
          "velocity": 100
        },
        {
          "pitch": 54,
          "onset": 109.0,
          "duration": 1.5,
          "velocity": 100
        },
        {
          "pitch": 43,
          "onset": 111.0,
          "duration": 0.5,
          "velocity": 100
        },
        {
          "pitch": 56,
          "onset": 112.0,
          "duration": 1.5,
          "velocity": 100
        },
        {
          "pitch": 45,
          "onset": 115.0,
          "duration": 0.5938,
          "velocity": 100
        },
        {
          "pitch": 38,
          "onset": 118.0,
          "duration": 1.75,
          "velocity": 70
        },
        {
          "pitch": 53,
          "onset": 120.0,
          "duration": 0.5,
          "velocity": 80
        },
        {
          "pitch": 51,
          "onset": 120.5,
          "duration": 0.5,
          "velocity": 80
        },
        {
          "pitch": 51,
          "onset": 121.0,
          "duration": 1.5,
          "velocity": 80
        },
        {
          "pitch": 50,
          "onset": 123.0,
          "duration": 1.0,
          "velocity": 80
        },
        {
          "pitch": 46,
          "onset": 126.0,
          "duration": 0.5938,
          "velocity": 80
        },
        {
          "pitch": 45,
          "onset": 127.0,
          "duration": 0.5938,
          "velocity": 80
        },
        {
          "pitch": 43,
          "onset": 129.0,
          "duration": 0.5,
          "velocity": 80
        },
        {
          "pitch": 46,
          "onset": 132.5,
          "duration": 0.5,
          "velocity": 80
        },
        {
          "pitch": 45,
          "onset": 133.0,
          "duration": 0.625,
          "velocity": 80
        },
        {
          "pitch": 44,
          "onset": 135.5,
          "duration": 0.5,
          "velocity": 80
        },
        {
          "pitch": 43,
          "onset": 136.0,
          "duration": 0.625,
          "velocity": 80
        },
        {
          "pitch": 49,
          "onset": 138.0,
          "duration": 0.625,
          "velocity": 80
        },
        {
          "pitch": 49,
          "onset": 141.0,
          "duration": 0.625,
          "velocity": 80
        },
        {
          "pitch": 45,
          "onset": 142.0,
          "duration": 0.8438,
          "velocity": 80
        },
        {
          "pitch": 46,
          "onset": 144.0,
          "duration": 1.0,
          "velocity": 80
        },
        {
          "pitch": 43,
          "onset": 145.0,
          "duration": 2.0,
          "velocity": 83
        },
        {
          "pitch": 43,
          "onset": 147.0,
          "duration": 1.0,
          "velocity": 90
        },
        {
          "pitch": 37,
          "onset": 148.0,
          "duration": 0.5,
          "velocity": 94
        },
        {
          "pitch": 41,
          "onset": 150.0,
          "duration": 0.25,
          "velocity": 100
        },
        {
          "pitch": 45,
          "onset": 150.0,
          "duration": 0.375,
          "velocity": 100
        },
        {
          "pitch": 43,
          "onset": 151.5,
          "duration": 0.5,
          "velocity": 100
        },
        {
          "pitch": 45,
          "onset": 152.0,
          "duration": 1.0,
          "velocity": 100
        },
        {
          "pitch": 38,
          "onset": 154.0,
          "duration": 0.375,
          "velocity": 70
        },
        {
          "pitch": 53,
          "onset": 156.0,
          "duration": 1.0,
          "velocity": 100
        },
        {
          "pitch": 54,
          "onset": 157.0,
          "duration": 1.5,
          "velocity": 100
        },
        {
          "pitch": 43,
          "onset": 159.0,
          "duration": 0.5,
          "velocity": 100
        },
        {
          "pitch": 56,
          "onset": 160.0,
          "duration": 1.5,
          "velocity": 100
        },
        {
          "pitch": 45,
          "onset": 163.0,
          "duration": 0.5938,
          "velocity": 100
        },
        {
          "pitch": 38,
          "onset": 166.0,
          "duration": 2.0,
          "velocity": 70
        }
      ]
    }
  ]
}