{
  "bwv": 1004,
  "category": "solo_violin_partita",
  "instrument": "violin",
  "form": "",
  "movement": 2,
  "ticks_per_beat": 384,
  "duration_seconds": 153.6,
  "tempos": [
    {
      "tick": 0,
      "bpm": 135
    },
    {
      "tick": 19200,
      "bpm": 130
    },
    {
      "tick": 19392,
      "bpm": 120
    },
    {
      "tick": 19584,
      "bpm": 90
    },
    {
      "tick": 19712,
      "bpm": 135
    },
    {
      "tick": 20736,
      "bpm": 90
    },
    {
      "tick": 20864,
      "bpm": 135
    },
    {
      "tick": 27264,
      "bpm": 130
    },
    {
      "tick": 27456,
      "bpm": 120
    },
    {
      "tick": 28800,
      "bpm": 135
    },
    {
      "tick": 46848,
      "bpm": 130
    },
    {
      "tick": 47040,
      "bpm": 120
    },
    {
      "tick": 47232,
      "bpm": 85
    },
    {
      "tick": 47360,
      "bpm": 135
    },
    {
      "tick": 48384,
      "bpm": 80
    },
    {
      "tick": 48512,
      "bpm": 135
    },
    {
      "tick": 54528,
      "bpm": 130
    },
    {
      "tick": 54912,
      "bpm": 125
    },
    {
      "tick": 55104,
      "bpm": 110
    },
    {
      "tick": 56448,
      "bpm": 135
    },
    {
      "tick": 60288,
      "bpm": 130
    },
    {
      "tick": 60672,
      "bpm": 125
    },
    {
      "tick": 60864,
      "bpm": 115
    },
    {
      "tick": 61056,
      "bpm": 100
    },
    {
      "tick": 61184,
      "bpm": 135
    },
    {
      "tick": 77952,
      "bpm": 130
    },
    {
      "tick": 78144,
      "bpm": 120
    },
    {
      "tick": 78528,
      "bpm": 135
    },
    {
      "tick": 82944,
      "bpm": 130
    },
    {
      "tick": 83328,
      "bpm": 125
    },
    {
      "tick": 83712,
      "bpm": 120
    },
    {
      "tick": 83904,
      "bpm": 100
    },
    {
      "tick": 84096,
      "bpm": 120
    },
    {
      "tick": 89088,
      "bpm": 120
    },
    {
      "tick": 89472,
      "bpm": 115
    },
    {
      "tick": 89664,
      "bpm": 100
    },
    {
      "tick": 91008,
      "bpm": 135
    },
    {
      "tick": 94848,
      "bpm": 130
    },
    {
      "tick": 95232,
      "bpm": 125
    },
    {
      "tick": 95424,
      "bpm": 115
    },
    {
      "tick": 95616,
      "bpm": 80
    },
    {
      "tick": 95744,
      "bpm": 135
    },
    {
      "tick": 105600,
      "bpm": 130
    },
    {
      "tick": 105792,
      "bpm": 125
    },
    {
      "tick": 105984,
      "bpm": 135
    },
    {
      "tick": 112512,
      "bpm": 130
    },
    {
      "tick": 112704,
      "bpm": 120
    },
    {
      "tick": 113088,
      "bpm": 135
    },
    {
      "tick": 117504,
      "bpm": 130
    },
    {
      "tick": 117888,
      "bpm": 125
    },
    {
      "tick": 118272,
      "bpm": 120
    },
    {
      "tick": 118464,
      "bpm": 80
    },
    {
      "tick": 119040,
      "bpm": 120
    },
    {
      "tick": 122112,
      "bpm": 120
    },
    {
      "tick": 123264,
      "bpm": 115
    },
    {
      "tick": 123648,
      "bpm": 110
    },
    {
      "tick": 124032,
      "bpm": 100
    },
    {
      "tick": 124224,
      "bpm": 80
    }
  ],
  "time_signatures": [
    {
      "tick": 0,
      "numerator": 3,
      "denominator": 4
    }
  ],
  "track_type": "solo_string",
  "voice_count": 2,
  "total_notes": 867,
  "tracks": [
    {
      "role": "solo_0",
      "notes": [
        {
          "pitch": 69,
          "onset": 2.75,
          "duration": 0.25,
          "velocity": 100
        },
        {
          "pitch": 65,
          "onset": 3.0,
          "duration": 1.0,
          "velocity": 100
        },
        {
          "pitch": 69,
          "onset": 3.0,
          "duration": 1.0,
          "velocity": 100
        },
        {
          "pitch": 61,
          "onset": 4.0,
          "duration": 0.3438,
          "velocity": 100
        },
        {
          "pitch": 70,
          "onset": 4.3438,
          "duration": 0.3438,
          "velocity": 100
        },
        {
          "pitch": 69,
          "onset": 4.6562,
          "duration": 0.3438,
          "velocity": 100
        },
        {
          "pitch": 67,
          "onset": 5.0,
          "duration": 0.3438,
          "velocity": 100
        },
        {
          "pitch": 65,
          "onset": 5.3438,
          "duration": 0.3438,
          "velocity": 100
        },
        {
          "pitch": 64,
          "onset": 5.6562,
          "duration": 0.3125,
          "velocity": 100
        },
        {
          "pitch": 65,
          "onset": 6.0,
          "duration": 1.0,
          "velocity": 100
        },
        {
          "pitch": 57,
          "onset": 7.0,
          "duration": 0.3438,
          "velocity": 100
        },
        {
          "pitch": 67,
          "onset": 7.3438,
          "duration": 0.3438,
          "velocity": 100
        },
        {
          "pitch": 65,
          "onset": 7.6562,
          "duration": 0.3438,
          "velocity": 100
        },
        {
          "pitch": 64,
          "onset": 8.0,
          "duration": 0.3438,
          "velocity": 100
        },
        {
          "pitch": 62,
          "onset": 8.3438,
          "duration": 0.3438,
          "velocity": 100
        },
        {
          "pitch": 61,
          "onset": 8.6562,
          "duration": 0.3125,
          "velocity": 100
        },
        {
          "pitch": 62,
          "onset": 9.0,
          "duration": 0.75,
          "velocity": 100
        },
        {
          "pitch": 58,
          "onset": 9.75,
          "duration": 0.25,
          "velocity": 100
        },
        {
          "pitch": 55,
          "onset": 10.0,
          "duration": 0.75,
          "velocity": 100
        },
        {
          "pitch": 65,
          "onset": 10.75,
          "duration": 0.25,
          "velocity": 100
        },
        {
          "pitch": 64,
          "onset": 11.0,
          "duration": 0.75,
          "velocity": 100
        },
        {
          "pitch": 62,
          "onset": 11.75,
          "duration": 0.25,
          "velocity": 100
        },
        {
          "pitch": 61,
          "onset": 12.0,
          "duration": 0.75,
          "velocity": 100
        },
        {
          "pitch": 57,
          "onset": 12.75,
          "duration": 0.25,
          "velocity": 100
        },
        {
          "pitch": 61,
          "onset": 13.0,
          "duration": 0.75,
          "velocity": 100
        },
        {
          "pitch": 64,
          "onset": 13.75,
          "duration": 0.25,
          "velocity": 100
        },
        {
          "pitch": 69,
          "onset": 14.0,
          "duration": 0.75,
          "velocity": 100
        },
        {
          "pitch": 67,
          "onset": 14.75,
          "duration": 0.25,
          "velocity": 100
        },
        {
          "pitch": 65,
          "onset": 15.0,
          "duration": 0.3438,
          "velocity": 100
        },
        {
          "pitch": 62,
          "onset": 15.3438,
          "duration": 0.3438,
          "velocity": 100
        },
        {
          "pitch": 64,
          "onset": 15.6562,
          "duration": 0.3438,
          "velocity": 100
        },
        {
          "pitch": 65,
          "onset": 16.0,
          "duration": 0.3438,
          "velocity": 100
        },
        {
          "pitch": 67,
          "onset": 16.3438,
          "duration": 0.3438,
          "velocity": 100
        },
        {
          "pitch": 69,
          "onset": 16.6562,
          "duration": 0.3438,
          "velocity": 100
        },
        {
          "pitch": 70,
          "onset": 17.0,
          "duration": 0.3438,
          "velocity": 100
        },
        {
          "pitch": 72,
          "onset": 17.3438,
          "duration": 0.3438,
          "velocity": 100
        },
        {
          "pitch": 74,
          "onset": 17.6562,
          "duration": 0.3125,
          "velocity": 100
        },
        {
          "pitch": 72,
          "onset": 18.0,
          "duration": 0.75,
          "velocity": 100
        },
        {
          "pitch": 69,
          "onset": 18.75,
          "duration": 0.25,
          "velocity": 100
        },
        {
          "pitch": 65,
          "onset": 19.0,
          "duration": 0.75,
          "velocity": 100
        },
        {
          "pitch": 60,
          "onset": 19.75,
          "duration": 0.25,
          "velocity": 100
        },
        {
          "pitch": 57,
          "onset": 20.0,
          "duration": 0.75,
          "velocity": 100
        },
        {
          "pitch": 63,
          "onset": 20.75,
          "duration": 0.25,
          "velocity": 100
        },
        {
          "pitch": 62,
          "onset": 21.0,
          "duration": 0.3438,
          "velocity": 100
        },
        {
          "pitch": 58,
          "onset": 21.3438,
          "duration": 0.3438,
          "velocity": 100
        },
        {
          "pitch": 60,
          "onset": 21.6562,
          "duration": 0.3438,
          "velocity": 100
        },
        {
          "pitch": 62,
          "onset": 22.0,
          "duration": 0.3438,
          "velocity": 100
        },
        {
          "pitch": 64,
          "onset": 22.3438,
          "duration": 0.3438,
          "velocity": 100
        },
        {
          "pitch": 65,
          "onset": 22.6562,
          "duration": 0.3438,
          "velocity": 100
        },
        {
          "pitch": 67,
          "onset": 23.0,
          "duration": 0.3438,
          "velocity": 100
        },
        {
          "pitch": 69,
          "onset": 23.3438,
          "duration": 0.3438,
          "velocity": 100
        },
        {
          "pitch": 70,
          "onset": 23.6562,
          "duration": 0.3125,
          "velocity": 100
        },
        {
          "pitch": 69,
          "onset": 24.0,
          "duration": 0.3438,
          "velocity": 100
        },
        {
          "pitch": 65,
          "onset": 24.3438,
          "duration": 0.3438,
          "velocity": 100
        },
        {
          "pitch": 67,
          "onset": 24.6562,
          "duration": 0.3438,
          "velocity": 100
        },
        {
          "pitch": 69,
          "onset": 25.0,
          "duration": 0.3438,
          "velocity": 100
        },
        {
          "pitch": 70,
          "onset": 25.3438,
          "duration": 0.3438,
          "velocity": 100
        },
        {
          "pitch": 72,
          "onset": 25.6562,
          "duration": 0.3438,
          "velocity": 100
        },
        {
          "pitch": 74,
          "onset": 26.0,
          "duration": 0.3438,
          "velocity": 100
        },
        {
          "pitch": 75,
          "onset": 26.3438,
          "duration": 0.3438,
          "velocity": 100
        },
        {
          "pitch": 72,
          "onset": 26.6562,
          "duration": 0.3125,
          "velocity": 100
        },
        {
          "pitch": 74,
          "onset": 27.0,
          "duration": 0.3125,
          "velocity": 100
        },
        {
          "pitch": 70,
          "onset": 27.3438,
          "duration": 0.3438,
          "velocity": 100
        },
        {
          "pitch": 72,
          "onset": 27.6562,
          "duration": 0.3438,
          "velocity": 100
        },
        {
          "pitch": 74,
          "onset": 28.0,
          "duration": 0.3438,
          "velocity": 100
        },
        {
          "pitch": 76,
          "onset": 28.3438,
          "duration": 0.3438,
          "velocity": 100
        },
        {
          "pitch": 77,
          "onset": 28.6562,
          "duration": 0.3438,
          "velocity": 100
        },
        {
          "pitch": 79,
          "onset": 29.0,
          "duration": 0.3438,
          "velocity": 100
        },
        {
          "pitch": 81,
          "onset": 29.3438,
          "duration": 0.3438,
          "velocity": 100
        },
        {
          "pitch": 82,
          "onset": 29.6562,
          "duration": 0.3125,
          "velocity": 100
        },
        {
          "pitch": 64,
          "onset": 30.0,
          "duration": 0.75,
          "velocity": 100
        },
        {
          "pitch": 72,
          "onset": 30.75,
          "duration": 0.25,
          "velocity": 100
        },
        {
          "pitch": 79,
          "onset": 31.0,
          "duration": 0.75,
          "velocity": 100
        },
        {
          "pitch": 82,
          "onset": 31.75,
          "duration": 0.25,
          "velocity": 100
        },
        {
          "pitch": 81,
          "onset": 32.0,
          "duration": 0.75,
          "velocity": 100
        },
        {
          "pitch": 79,
          "onset": 32.75,
          "duration": 0.25,
          "velocity": 100
        },
        {
          "pitch": 81,
          "onset": 33.0,
          "duration": 0.3438,
          "velocity": 100
        },
        {
          "pitch": 79,
          "onset": 33.3438,
          "duration": 0.3438,
          "velocity": 100
        },
        {
          "pitch": 77,
          "onset": 33.6562,
          "duration": 0.3125,
          "velocity": 100
        },
        {
          "pitch": 76,
          "onset": 34.0,
          "duration": 0.3438,
          "velocity": 100
        },
        {
          "pitch": 77,
          "onset": 34.3438,
          "duration": 0.3438,
          "velocity": 100
        },
        {
          "pitch": 79,
          "onset": 34.6562,
          "duration": 0.3125,
          "velocity": 100
        },
        {
          "pitch": 72,
          "onset": 35.0,
          "duration": 0.3438,
          "velocity": 100
        },
        {
          "pitch": 74,
          "onset": 35.3438,
          "duration": 0.3438,
          "velocity": 100
        },
        {
          "pitch": 76,
          "onset": 35.6562,
          "duration": 0.3125,
          "velocity": 100
        },
        {
          "pitch": 77,
          "onset": 36.0,
          "duration": 0.3438,
          "velocity": 100
        },
        {
          "pitch": 72,
          "onset": 36.3438,
          "duration": 0.3438,
          "velocity": 100
        },
        {
          "pitch": 70,
          "onset": 36.6562,
          "duration": 0.3125,
          "velocity": 100
        },
        {
          "pitch": 69,
          "onset": 37.0,
          "duration": 0.3438,
          "velocity": 100
        },
        {
          "pitch": 70,
          "onset": 37.3438,
          "duration": 0.3438,
          "velocity": 100
        },
        {
          "pitch": 72,
          "onset": 37.6562,
          "duration": 0.3125,
          "velocity": 100
        },
        {
          "pitch": 65,
          "onset": 38.0,
          "duration": 0.3438,
          "velocity": 100
        },
        {
          "pitch": 67,
          "onset": 38.3438,
          "duration": 0.3438,
          "velocity": 100
        },
        {
          "pitch": 69,
          "onset": 38.6562,
          "duration": 0.3125,
          "velocity": 100
        },
        {
          "pitch": 62,
          "onset": 39.0,
          "duration": 0.75,
          "velocity": 100
        },
        {
          "pitch": 66,
          "onset": 39.75,
          "duration": 0.25,
          "velocity": 100
        },
        {
          "pitch": 69,
          "onset": 40.0,
          "duration": 0.75,
          "velocity": 100
        },
        {
          "pitch": 72,
          "onset": 40.75,
          "duration": 0.25,
          "velocity": 100
        },
        {
          "pitch": 70,
          "onset": 41.0,
          "duration": 0.75,
          "velocity": 100
        },
        {
          "pitch": 69,
          "onset": 41.75,
          "duration": 0.25,
          "velocity": 100
        },
        {
          "pitch": 70,
          "onset": 42.0,
          "duration": 0.3125,
          "velocity": 100
        },
        {
          "pitch": 74,
          "onset": 42.3438,
          "duration": 0.3438,
          "velocity": 100
        },
        {
          "pitch": 72,
          "onset": 42.6562,
          "duration": 0.3438,
          "velocity": 100
        },
        {
          "pitch": 70,
          "onset": 43.0,
          "duration": 0.3438,
          "velocity": 100
        },
        {
          "pitch": 69,
          "onset": 43.3438,
          "duration": 0.3438,
          "velocity": 100
        },
        {
          "pitch": 67,
          "onset": 43.6562,
          "duration": 0.3438,
          "velocity": 100
        },
        {
          "pitch": 65,
          "onset": 44.0,
          "duration": 0.3438,
          "velocity": 100
        },
        {
          "pitch": 64,
          "onset": 44.3438,
          "duration": 0.3438,
          "velocity": 100
        },
        {
          "pitch": 62,
          "onset": 44.6562,
          "duration": 0.3125,
          "velocity": 100
        },
        {
          "pitch": 61,
          "onset": 45.0,
          "duration": 0.75,
          "velocity": 100
        },
        {
          "pitch": 64,
          "onset": 45.75,
          "duration": 0.25,
          "velocity": 100
        },
        {
          "pitch": 69,
          "onset": 46.0,
          "duration": 0.75,
          "velocity": 100
        },
        {
          "pitch": 79,
          "onset": 46.75,
          "duration": 0.25,
          "velocity": 100
        },
        {
          "pitch": 77,
          "onset": 47.0,
          "duration": 0.75,
          "velocity": 100
        },
        {
          "pitch": 76,
          "onset": 47.75,
          "duration": 0.25,
          "velocity": 100
        },
        {
          "pitch": 77,
          "onset": 48.0,
          "duration": 0.3125,
          "velocity": 100
        },
        {
          "pitch": 69,
          "onset": 48.3438,
          "duration": 0.3438,
          "velocity": 100
        },
        {
          "pitch": 67,
          "onset": 48.6562,
          "duration": 0.3438,
          "velocity": 100
        },
        {
          "pitch": 65,
          "onset": 49.0,
          "duration": 0.3438,
          "velocity": 100
        },
        {
          "pitch": 64,
          "onset": 49.3438,
          "duration": 0.3438,
          "velocity": 100
        },
        {
          "pitch": 62,
          "onset": 49.6562,
          "duration": 0.3438,
          "velocity": 100
        },
        {
          "pitch": 60,
          "onset": 50.0,
          "duration": 0.3438,
          "velocity": 100
        },
        {
          "pitch": 59,
          "onset": 50.3438,
          "duration": 0.3438,
          "velocity": 100
        },
        {
          "pitch": 57,
          "onset": 50.6562,
          "duration": 0.3438,
          "velocity": 100
        },
        {
          "pitch": 56,
          "onset": 51.0,
          "duration": 0.3125,
          "velocity": 100
        },
        {
          "pitch": 74,
          "onset": 51.3438,
          "duration": 0.3125,
          "velocity": 100
        },
        {
          "pitch": 76,
          "onset": 51.6562,
          "duration": 0.3125,
          "velocity": 100
        },
        {
          "pitch": 77,
          "onset": 52.0,
          "duration": 0.3438,
          "velocity": 100
        },
        {
          "pitch": 76,
          "onset": 52.3438,
          "duration": 0.3438,
          "velocity": 100
        },
        {
          "pitch": 74,
          "onset": 52.6562,
          "duration": 0.3125,
          "velocity": 100
        },
        {
          "pitch": 72,
          "onset": 53.0,
          "duration": 0.3438,
          "velocity": 100
        },
        {
          "pitch": 74,
          "onset": 53.3438,
          "duration": 0.3438,
          "velocity": 100
        },
        {
          "pitch": 71,
          "onset": 53.6562,
          "duration": 0.3125,
          "velocity": 100
        },
        {
          "pitch": 57,
          "onset": 54.0,
          "duration": 0.3125,
          "velocity": 100
        },
        {
          "pitch": 72,
          "onset": 54.3438,
          "duration": 0.3125,
          "velocity": 100
        },
        {
          "pitch": 74,
          "onset": 54.6562,
          "duration": 0.3125,
          "velocity": 100
        },
        {
          "pitch": 76,
          "onset": 55.0,
          "duration": 0.3438,
          "velocity": 100
        },
        {
          "pitch": 74,
          "onset": 55.3438,
          "duration": 0.3438,
          "velocity": 100
        },
        {
          "pitch": 72,
          "onset": 55.6562,
          "duration": 0.3125,
          "velocity": 100
        },
        {
          "pitch": 71,
          "onset": 56.0,
          "duration": 0.3438,
          "velocity": 100
        },
        {
          "pitch": 72,
          "onset": 56.3438,
          "duration": 0.3438,
          "velocity": 100
        },
        {
          "pitch": 69,
          "onset": 56.6562,
          "duration": 0.3125,
          "velocity": 100
        },
        {
          "pitch": 68,
          "onset": 57.0,
          "duration": 0.3125,
          "velocity": 100
        },
        {
          "pitch": 62,
          "onset": 57.3438,
          "duration": 0.3125,
          "velocity": 100
        },
        {
          "pitch": 64,
          "onset": 57.6562,
          "duration": 0.3125,
          "velocity": 100
        },
        {
          "pitch": 65,
          "onset": 58.0,
          "duration": 0.3438,
          "velocity": 100
        },
        {
          "pitch": 64,
          "onset": 58.3438,
          "duration": 0.3438,
          "velocity": 100
        },
        {
          "pitch": 62,
          "onset": 58.6562,
          "duration": 0.3125,
          "velocity": 100
        },
        {
          "pitch": 60,
          "onset": 59.0,
          "duration": 0.3438,
          "velocity": 100
        },
        {
          "pitch": 62,
          "onset": 59.3438,
          "duration": 0.3438,
          "velocity": 100
        },
        {
          "pitch": 59,
          "onset": 59.6562,
          "duration": 0.3125,
          "velocity": 100
        },
        {
          "pitch": 60,
          "onset": 60.0,
          "duration": 0.3438,
          "velocity": 100
        },
        {
          "pitch": 64,
          "onset": 60.3438,
          "duration": 0.3438,
          "velocity": 100
        },
        {
          "pitch": 69,
          "onset": 60.6562,
          "duration": 0.3125,
          "velocity": 100
        },
        {
          "pitch": 72,
          "onset": 61.0,
          "duration": 0.3438,
          "velocity": 100
        },
        {
          "pitch": 76,
          "onset": 61.3438,
          "duration": 0.3438,
          "velocity": 100
        },
        {
          "pitch": 81,
          "onset": 61.6562,
          "duration": 0.3125,
          "velocity": 100
        },
        {
          "pitch": 83,
          "onset": 62.0,
          "duration": 0.3438,
          "velocity": 100
        },
        {
          "pitch": 80,
          "onset": 62.3438,
          "duration": 0.3438,
          "velocity": 100
        },
        {
          "pitch": 81,
          "onset": 62.6562,
          "duration": 0.3125,
          "velocity": 100
        },
        {
          "pitch": 77,
          "onset": 63.0,
          "duration": 0.3438,
          "velocity": 100
        },
        {
          "pitch": 73,
          "onset": 63.3438,
          "duration": 0.3438,
          "velocity": 100
        },
        {
          "pitch": 74,
          "onset": 63.6562,
          "duration": 0.3125,
          "velocity": 100
        },
        {
          "pitch": 70,
          "onset": 64.0,
          "duration": 0.3438,
          "velocity": 100
        },
        {
          "pitch": 68,
          "onset": 64.3438,
          "duration": 0.3438,
          "velocity": 100
        },
        {
          "pitch": 69,
          "onset": 64.6562,
          "duration": 0.3125,
          "velocity": 100
        },
        {
          "pitch": 65,
          "onset": 65.0,
          "duration": 0.3438,
          "velocity": 100
        },
        {
          "pitch": 61,
          "onset": 65.3438,
          "duration": 0.3438,
          "velocity": 100
        },
        {
          "pitch": 62,
          "onset": 65.6562,
          "duration": 0.3125,
          "velocity": 100
        },
        {
          "pitch": 56,
          "onset": 66.0,
          "duration": 0.3125,
          "velocity": 100
        },
        {
          "pitch": 83,
          "onset": 66.3438,
          "duration": 0.3125,
          "velocity": 100
        },
        {
          "pitch": 81,
          "onset": 66.6562,
          "duration": 0.3125,
          "velocity": 100
        },
        {
          "pitch": 80,
          "onset": 67.0,
          "duration": 0.3125,
          "velocity": 100
        },
        {
          "pitch": 77,
          "onset": 67.3438,
          "duration": 0.3438,
          "velocity": 100
        },
        {
          "pitch": 76,
          "onset": 67.6562,
          "duration": 0.3438,
          "velocity": 100
        },
        {
          "pitch": 74,
          "onset": 68.0,
          "duration": 0.3438,
          "velocity": 100
        },
        {
          "pitch": 72,
          "onset": 68.3438,
          "duration": 0.3438,
          "velocity": 100
        },
        {
          "pitch": 71,
          "onset": 68.6562,
          "duration": 0.3125,
          "velocity": 100
        },
        {
          "pitch": 72,
          "onset": 69.0,
          "duration": 0.3125,
          "velocity": 100
        },
        {
          "pitch": 76,
          "onset": 69.3438,
          "duration": 0.3438,
          "velocity": 100
        },
        {
          "pitch": 74,
          "onset": 69.6562,
          "duration": 0.3438,
          "velocity": 100
        },
        {
          "pitch": 72,
          "onset": 70.0,
          "duration": 0.3438,
          "velocity": 100
        },
        {
          "pitch": 71,
          "onset": 70.3438,
          "duration": 0.3438,
          "velocity": 100
        },
        {
          "pitch": 69,
          "onset": 70.6562,
          "duration": 0.3125,
          "velocity": 100
        },
        {
          "pitch": 64,
          "onset": 71.0,
          "duration": 0.3438,
          "velocity": 100
        },
        {
          "pitch": 69,
          "onset": 71.3438,
          "duration": 0.3438,
          "velocity": 100
        },
        {
          "pitch": 68,
          "onset": 71.6562,
          "duration": 0.3125,
          "velocity": 100
        },
        {
          "pitch": 57,
          "onset": 72.0,
          "duration": 2.5,
          "velocity": 100
        },
        {
          "pitch": 69,
          "onset": 74.75,
          "duration": 0.25,
          "velocity": 100
        },
        {
          "pitch": 65,
          "onset": 75.0,
          "duration": 1.0,
          "velocity": 100
        },
        {
          "pitch": 69,
          "onset": 75.0,
          "duration": 1.0,
          "velocity": 100
        },
        {
          "pitch": 61,
          "onset": 76.0,
          "duration": 0.3438,
          "velocity": 100
        },
        {
          "pitch": 70,
          "onset": 76.3438,
          "duration": 0.3438,
          "velocity": 100
        },
        {
          "pitch": 69,
          "onset": 76.6562,
          "duration": 0.3438,
          "velocity": 100
        },
        {
          "pitch": 67,
          "onset": 77.0,
          "duration": 0.3438,
          "velocity": 100
        },
        {
          "pitch": 65,
          "onset": 77.3438,
          "duration": 0.3438,
          "velocity": 100
        },
        {
          "pitch": 64,
          "onset": 77.6562,
          "duration": 0.3125,
          "velocity": 100
        },
        {
          "pitch": 65,
          "onset": 78.0,
          "duration": 1.0,
          "velocity": 100
        },
        {
          "pitch": 57,
          "onset": 79.0,
          "duration": 0.3438,
          "velocity": 100
        },
        {
          "pitch": 67,
          "onset": 79.3438,
          "duration": 0.3438,
          "velocity": 100
        },
        {
          "pitch": 65,
          "onset": 79.6562,
          "duration": 0.3438,
          "velocity": 100
        },
        {
          "pitch": 64,
          "onset": 80.0,
          "duration": 0.3438,
          "velocity": 100
        },
        {
          "pitch": 62,
          "onset": 80.3438,
          "duration": 0.3438,
          "velocity": 100
        },
        {
          "pitch": 61,
          "onset": 80.6562,
          "duration": 0.3125,
          "velocity": 100
        },
        {
          "pitch": 62,
          "onset": 81.0,
          "duration": 0.75,
          "velocity": 100
        },
        {
          "pitch": 58,
          "onset": 81.75,
          "duration": 0.25,
          "velocity": 100
        },
        {
          "pitch": 55,
          "onset": 82.0,
          "duration": 0.75,
          "velocity": 100
        },
        {
          "pitch": 65,
          "onset": 82.75,
          "duration": 0.25,
          "velocity": 100
        },
        {
          "pitch": 64,
          "onset": 83.0,
          "duration": 0.75,
          "velocity": 100
        },
        {
          "pitch": 62,
          "onset": 83.75,
          "duration": 0.25,
          "velocity": 100
        },
        {
          "pitch": 61,
          "onset": 84.0,
          "duration": 0.75,
          "velocity": 100
        },
        {
          "pitch": 57,
          "onset": 84.75,
          "duration": 0.25,
          "velocity": 100
        },
        {
          "pitch": 61,
          "onset": 85.0,
          "duration": 0.75,
          "velocity": 100
        },
        {
          "pitch": 64,
          "onset": 85.75,
          "duration": 0.25,
          "velocity": 100
        },
        {
          "pitch": 69,
          "onset": 86.0,
          "duration": 0.75,
          "velocity": 100
        },
        {
          "pitch": 67,
          "onset": 86.75,
          "duration": 0.25,
          "velocity": 100
        },
        {
          "pitch": 65,
          "onset": 87.0,
          "duration": 0.3438,
          "velocity": 100
        },
        {
          "pitch": 62,
          "onset": 87.3438,
          "duration": 0.3438,
          "velocity": 100
        },
        {
          "pitch": 64,
          "onset": 87.6562,
          "duration": 0.3438,
          "velocity": 100
        },
        {
          "pitch": 65,
          "onset": 88.0,
          "duration": 0.3438,
          "velocity": 100
        },
        {
          "pitch": 67,
          "onset": 88.3438,
          "duration": 0.3438,
          "velocity": 100
        },
        {
          "pitch": 69,
          "onset": 88.6562,
          "duration": 0.3438,
          "velocity": 100
        },
        {
          "pitch": 70,
          "onset": 89.0,
          "duration": 0.3438,
          "velocity": 100
        },
        {
          "pitch": 72,
          "onset": 89.3438,
          "duration": 0.3438,
          "velocity": 100
        },
        {
          "pitch": 74,
          "onset": 89.6562,
          "duration": 0.3125,
          "velocity": 100
        },
        {
          "pitch": 72,
          "onset": 90.0,
          "duration": 0.75,
          "velocity": 100
        },
        {
          "pitch": 69,
          "onset": 90.75,
          "duration": 0.25,
          "velocity": 100
        },
        {
          "pitch": 65,
          "onset": 91.0,
          "duration": 0.75,
          "velocity": 100
        },
        {
          "pitch": 60,
          "onset": 91.75,
          "duration": 0.25,
          "velocity": 100
        },
        {
          "pitch": 57,
          "onset": 92.0,
          "duration": 0.75,
          "velocity": 100
        },
        {
          "pitch": 63,
          "onset": 92.75,
          "duration": 0.25,
          "velocity": 100
        },
        {
          "pitch": 62,
          "onset": 93.0,
          "duration": 0.3438,
          "velocity": 100
        },
        {
          "pitch": 58,
          "onset": 93.3438,
          "duration": 0.3438,
          "velocity": 100
        },
        {
          "pitch": 60,
          "onset": 93.6562,
          "duration": 0.3438,
          "velocity": 100
        },
        {
          "pitch": 62,
          "onset": 94.0,
          "duration": 0.3438,
          "velocity": 100
        },
        {
          "pitch": 64,
          "onset": 94.3438,
          "duration": 0.3438,
          "velocity": 100
        },
        {
          "pitch": 65,
          "onset": 94.6562,
          "duration": 0.3438,
          "velocity": 100
        },
        {
          "pitch": 67,
          "onset": 95.0,
          "duration": 0.3438,
          "velocity": 100
        },
        {
          "pitch": 69,
          "onset": 95.3438,
          "duration": 0.3438,
          "velocity": 100
        },
        {
          "pitch": 70,
          "onset": 95.6562,
          "duration": 0.3125,
          "velocity": 100
        },
        {
          "pitch": 69,
          "onset": 96.0,
          "duration": 0.3438,
          "velocity": 100
        },
        {
          "pitch": 65,
          "onset": 96.3438,
          "duration": 0.3438,
          "velocity": 100
        },
        {
          "pitch": 67,
          "onset": 96.6562,
          "duration": 0.3438,
          "velocity": 100
        },
        {
          "pitch": 69,
          "onset": 97.0,
          "duration": 0.3438,
          "velocity": 100
        },
        {
          "pitch": 70,
          "onset": 97.3438,
          "duration": 0.3438,
          "velocity": 100
        },
        {
          "pitch": 72,
          "onset": 97.6562,
          "duration": 0.3438,
          "velocity": 100
        },
        {
          "pitch": 74,
          "onset": 98.0,
          "duration": 0.3438,
          "velocity": 100
        },
        {
          "pitch": 75,
          "onset": 98.3438,
          "duration": 0.3438,
          "velocity": 100
        },
        {
          "pitch": 72,
          "onset": 98.6562,
          "duration": 0.3125,
          "velocity": 100
        },
        {
          "pitch": 74,
          "onset": 99.0,
          "duration": 0.3125,
          "velocity": 100
        },
        {
          "pitch": 70,
          "onset": 99.3438,
          "duration": 0.3438,
          "velocity": 100
        },
        {
          "pitch": 72,
          "onset": 99.6562,
          "duration": 0.3438,
          "velocity": 100
        },
        {
          "pitch": 74,
          "onset": 100.0,
          "duration": 0.3438,
          "velocity": 100
        },
        {
          "pitch": 76,
          "onset": 100.3438,
          "duration": 0.3438,
          "velocity": 100
        },
        {
          "pitch": 77,
          "onset": 100.6562,
          "duration": 0.3438,
          "velocity": 100
        },
        {
          "pitch": 79,
          "onset": 101.0,
          "duration": 0.3438,
          "velocity": 100
        },
        {
          "pitch": 81,
          "onset": 101.3438,
          "duration": 0.3438,
          "velocity": 100
        },
        {
          "pitch": 82,
          "onset": 101.6562,
          "duration": 0.3125,
          "velocity": 100
        },
        {
          "pitch": 64,
          "onset": 102.0,
          "duration": 0.75,
          "velocity": 100
        },
        {
          "pitch": 72,
          "onset": 102.75,
          "duration": 0.25,
          "velocity": 100
        },
        {
          "pitch": 79,
          "onset": 103.0,
          "duration": 0.75,
          "velocity": 100
        },
        {
          "pitch": 82,
          "onset": 103.75,
          "duration": 0.25,
          "velocity": 100
        },
        {
          "pitch": 81,
          "onset": 104.0,
          "duration": 0.75,
          "velocity": 100
        },
        {
          "pitch": 79,
          "onset": 104.75,
          "duration": 0.25,
          "velocity": 100
        },
        {
          "pitch": 81,
          "onset": 105.0,
          "duration": 0.3438,
          "velocity": 100
        },
        {
          "pitch": 79,
          "onset": 105.3438,
          "duration": 0.3438,
          "velocity": 100
        },
        {
          "pitch": 77,
          "onset": 105.6562,
          "duration": 0.3125,
          "velocity": 100
        },
        {
          "pitch": 76,
          "onset": 106.0,
          "duration": 0.3438,
          "velocity": 100
        },
        {
          "pitch": 77,
          "onset": 106.3438,
          "duration": 0.3438,
          "velocity": 100
        },
        {
          "pitch": 79,
          "onset": 106.6562,
          "duration": 0.3125,
          "velocity": 100
        },
        {
          "pitch": 72,
          "onset": 107.0,
          "duration": 0.3438,
          "velocity": 100
        },
        {
          "pitch": 74,
          "onset": 107.3438,
          "duration": 0.3438,
          "velocity": 100
        },
        {
          "pitch": 76,
          "onset": 107.6562,
          "duration": 0.3125,
          "velocity": 100
        },
        {
          "pitch": 77,
          "onset": 108.0,
          "duration": 0.3438,
          "velocity": 100
        },
        {
          "pitch": 72,
          "onset": 108.3438,
          "duration": 0.3438,
          "velocity": 100
        },
        {
          "pitch": 70,
          "onset": 108.6562,
          "duration": 0.3125,
          "velocity": 100
        },
        {
          "pitch": 69,
          "onset": 109.0,
          "duration": 0.3438,
          "velocity": 100
        },
        {
          "pitch": 70,
          "onset": 109.3438,
          "duration": 0.3438,
          "velocity": 100
        },
        {
          "pitch": 72,
          "onset": 109.6562,
          "duration": 0.3125,
          "velocity": 100
        },
        {
          "pitch": 65,
          "onset": 110.0,
          "duration": 0.3438,
          "velocity": 100
        },
        {
          "pitch": 67,
          "onset": 110.3438,
          "duration": 0.3438,
          "velocity": 100
        },
        {
          "pitch": 69,
          "onset": 110.6562,
          "duration": 0.3125,
          "velocity": 100
        },
        {
          "pitch": 62,
          "onset": 111.0,
          "duration": 0.75,
          "velocity": 100
        },
        {
          "pitch": 66,
          "onset": 111.75,
          "duration": 0.25,
          "velocity": 100
        },
        {
          "pitch": 69,
          "onset": 112.0,
          "duration": 0.75,
          "velocity": 100
        },
        {
          "pitch": 72,
          "onset": 112.75,
          "duration": 0.25,
          "velocity": 100
        },
        {
          "pitch": 70,
          "onset": 113.0,
          "duration": 0.75,
          "velocity": 100
        },
        {
          "pitch": 69,
          "onset": 113.75,
          "duration": 0.25,
          "velocity": 100
        },
        {
          "pitch": 70,
          "onset": 114.0,
          "duration": 0.3125,
          "velocity": 100
        },
        {
          "pitch": 74,
          "onset": 114.3438,
          "duration": 0.3438,
          "velocity": 100
        },
        {
          "pitch": 72,
          "onset": 114.6562,
          "duration": 0.3438,
          "velocity": 100
        },
        {
          "pitch": 70,
          "onset": 115.0,
          "duration": 0.3438,
          "velocity": 100
        },
        {
          "pitch": 69,
          "onset": 115.3438,
          "duration": 0.3438,
          "velocity": 100
        },
        {
          "pitch": 67,
          "onset": 115.6562,
          "duration": 0.3438,
          "velocity": 100
        },
        {
          "pitch": 65,
          "onset": 116.0,
          "duration": 0.3438,
          "velocity": 100
        },
        {
          "pitch": 64,
          "onset": 116.3438,
          "duration": 0.3438,
          "velocity": 100
        },
        {
          "pitch": 62,
          "onset": 116.6562,
          "duration": 0.3125,
          "velocity": 100
        },
        {
          "pitch": 61,
          "onset": 117.0,
          "duration": 0.75,
          "velocity": 100
        },
        {
          "pitch": 64,
          "onset": 117.75,
          "duration": 0.25,
          "velocity": 100
        },
        {
          "pitch": 69,
          "onset": 118.0,
          "duration": 0.75,
          "velocity": 100
        },
        {
          "pitch": 79,
          "onset": 118.75,
          "duration": 0.25,
          "velocity": 100
        },
        {
          "pitch": 77,
          "onset": 119.0,
          "duration": 0.75,
          "velocity": 100
        },
        {
          "pitch": 76,
          "onset": 119.75,
          "duration": 0.25,
          "velocity": 100
        },
        {
          "pitch": 77,
          "onset": 120.0,
          "duration": 0.3125,
          "velocity": 100
        },
        {
          "pitch": 69,
          "onset": 120.3438,
          "duration": 0.3438,
          "velocity": 100
        },
        {
          "pitch": 67,
          "onset": 120.6562,
          "duration": 0.3438,
          "velocity": 100
        },
        {
          "pitch": 65,
          "onset": 121.0,
          "duration": 0.3438,
          "velocity": 100
        },
        {
          "pitch": 64,
          "onset": 121.3438,
          "duration": 0.3438,
          "velocity": 100
        },
        {
          "pitch": 62,
          "onset": 121.6562,
          "duration": 0.3438,
          "velocity": 100
        },
        {
          "pitch": 60,
          "onset": 122.0,
          "duration": 0.3438,
          "velocity": 100
        },
        {
          "pitch": 59,
          "onset": 122.3438,
          "duration": 0.3438,
          "velocity": 100
        },
        {
          "pitch": 57,
          "onset": 122.6562,
          "duration": 0.3438,
          "velocity": 100
        },
        {
          "pitch": 56,
          "onset": 123.0,
          "duration": 0.3125,
          "velocity": 100
        },
        {
          "pitch": 74,
          "onset": 123.3438,
          "duration": 0.3125,
          "velocity": 100
        },
        {
          "pitch": 76,
          "onset": 123.6562,
          "duration": 0.3125,
          "velocity": 100
        },
        {
          "pitch": 77,
          "onset": 124.0,
          "duration": 0.3438,
          "velocity": 100
        },
        {
          "pitch": 76,
          "onset": 124.3438,
          "duration": 0.3438,
          "velocity": 100
        },
        {
          "pitch": 74,
          "onset": 124.6562,
          "duration": 0.3125,
          "velocity": 100
        },
        {
          "pitch": 72,
          "onset": 125.0,
          "duration": 0.3438,
          "velocity": 100
        },
        {
          "pitch": 74,
          "onset": 125.3438,
          "duration": 0.3438,
          "velocity": 100
        },
        {
          "pitch": 71,
          "onset": 125.6562,
          "duration": 0.3125,
          "velocity": 100
        },
        {
          "pitch": 57,
          "onset": 126.0,
          "duration": 0.3125,
          "velocity": 100
        },
        {
          "pitch": 72,
          "onset": 126.3438,
          "duration": 0.3125,
          "velocity": 100
        },
        {
          "pitch": 74,
          "onset": 126.6562,
          "duration": 0.3125,
          "velocity": 100
        },
        {
          "pitch": 76,
          "onset": 127.0,
          "duration": 0.3438,
          "velocity": 100
        },
        {
          "pitch": 74,
          "onset": 127.3438,
          "duration": 0.3438,
          "velocity": 100
        },
        {
          "pitch": 72,
          "onset": 127.6562,
          "duration": 0.3125,
          "velocity": 100
        },
        {
          "pitch": 71,
          "onset": 128.0,
          "duration": 0.3438,
          "velocity": 100
        },
        {
          "pitch": 72,
          "onset": 128.3438,
          "duration": 0.3438,
          "velocity": 100
        },
        {
          "pitch": 69,
          "onset": 128.6562,
          "duration": 0.3125,
          "velocity": 100
        },
        {
          "pitch": 68,
          "onset": 129.0,
          "duration": 0.3125,
          "velocity": 100
        },
        {
          "pitch": 62,
          "onset": 129.3438,
          "duration": 0.3125,
          "velocity": 100
        },
        {
          "pitch": 64,
          "onset": 129.6562,
          "duration": 0.3125,
          "velocity": 100
        },
        {
          "pitch": 65,
          "onset": 130.0,
          "duration": 0.3438,
          "velocity": 100
        },
        {
          "pitch": 64,
          "onset": 130.3438,
          "duration": 0.3438,
          "velocity": 100
        },
        {
          "pitch": 62,
          "onset": 130.6562,
          "duration": 0.3125,
          "velocity": 100
        },
        {
          "pitch": 60,
          "onset": 131.0,
          "duration": 0.3438,
          "velocity": 100
        },
        {
          "pitch": 62,
          "onset": 131.3438,
          "duration": 0.3438,
          "velocity": 100
        },
        {
          "pitch": 59,
          "onset": 131.6562,
          "duration": 0.3125,
          "velocity": 100
        },
        {
          "pitch": 60,
          "onset": 132.0,
          "duration": 0.3438,
          "velocity": 100
        },
        {
          "pitch": 64,
          "onset": 132.3438,
          "duration": 0.3438,
          "velocity": 100
        },
        {
          "pitch": 69,
          "onset": 132.6562,
          "duration": 0.3125,
          "velocity": 100
        },
        {
          "pitch": 72,
          "onset": 133.0,
          "duration": 0.3438,
          "velocity": 100
        },
        {
          "pitch": 76,
          "onset": 133.3438,
          "duration": 0.3438,
          "velocity": 100
        },
        {
          "pitch": 81,
          "onset": 133.6562,
          "duration": 0.3125,
          "velocity": 100
        },
        {
          "pitch": 83,
          "onset": 134.0,
          "duration": 0.3438,
          "velocity": 100
        },
        {
          "pitch": 80,
          "onset": 134.3438,
          "duration": 0.3438,
          "velocity": 100
        },
        {
          "pitch": 81,
          "onset": 134.6562,
          "duration": 0.3125,
          "velocity": 100
        },
        {
          "pitch": 77,
          "onset": 135.0,
          "duration": 0.3438,
          "velocity": 100
        },
        {
          "pitch": 73,
          "onset": 135.3438,
          "duration": 0.3438,
          "velocity": 100
        },
        {
          "pitch": 74,
          "onset": 135.6562,
          "duration": 0.3125,
          "velocity": 100
        },
        {
          "pitch": 70,
          "onset": 136.0,
          "duration": 0.3438,
          "velocity": 100
        },
        {
          "pitch": 68,
          "onset": 136.3438,
          "duration": 0.3438,
          "velocity": 100
        },
        {
          "pitch": 69,
          "onset": 136.6562,
          "duration": 0.3125,
          "velocity": 100
        },
        {
          "pitch": 65,
          "onset": 137.0,
          "duration": 0.3438,
          "velocity": 100
        },
        {
          "pitch": 61,
          "onset": 137.3438,
          "duration": 0.3438,
          "velocity": 100
        },
        {
          "pitch": 62,
          "onset": 137.6562,
          "duration": 0.3125,
          "velocity": 100
        },
        {
          "pitch": 56,
          "onset": 138.0,
          "duration": 0.3125,
          "velocity": 100
        },
        {
          "pitch": 83,
          "onset": 138.3438,
          "duration": 0.3125,
          "velocity": 100
        },
        {
          "pitch": 81,
          "onset": 138.6562,
          "duration": 0.3125,
          "velocity": 100
        },
        {
          "pitch": 80,
          "onset": 139.0,
          "duration": 0.3125,
          "velocity": 100
        },
        {
          "pitch": 77,
          "onset": 139.3438,
          "duration": 0.3438,
          "velocity": 100
        },
        {
          "pitch": 76,
          "onset": 139.6562,
          "duration": 0.3438,
          "velocity": 100
        },
        {
          "pitch": 74,
          "onset": 140.0,
          "duration": 0.3438,
          "velocity": 100
        },
        {
          "pitch": 72,
          "onset": 140.3438,
          "duration": 0.3438,
          "velocity": 100
        },
        {
          "pitch": 71,
          "onset": 140.6562,
          "duration": 0.3125,
          "velocity": 100
        },
        {
          "pitch": 72,
          "onset": 141.0,
          "duration": 0.3125,
          "velocity": 100
        },
        {
          "pitch": 76,
          "onset": 141.3438,
          "duration": 0.3438,
          "velocity": 100
        },
        {
          "pitch": 74,
          "onset": 141.6562,
          "duration": 0.3438,
          "velocity": 100
        },
        {
          "pitch": 72,
          "onset": 142.0,
          "duration": 0.3438,
          "velocity": 100
        },
        {
          "pitch": 71,
          "onset": 142.3438,
          "duration": 0.3438,
          "velocity": 100
        },
        {
          "pitch": 69,
          "onset": 142.6562,
          "duration": 0.3125,
          "velocity": 100
        },
        {
          "pitch": 64,
          "onset": 143.0,
          "duration": 0.3438,
          "velocity": 100
        },
        {
          "pitch": 69,
          "onset": 143.3438,
          "duration": 0.3438,
          "velocity": 100
        },
        {
          "pitch": 68,
          "onset": 143.6562,
          "duration": 0.3125,
          "velocity": 100
        },
        {
          "pitch": 57,
          "onset": 144.0,
          "duration": 2.5,
          "velocity": 100
        },
        {
          "pitch": 76,
          "onset": 146.75,
          "duration": 0.25,
          "velocity": 100
        },
        {
          "pitch": 73,
          "onset": 147.0,
          "duration": 1.0,
          "velocity": 100
        },
        {
          "pitch": 76,
          "onset": 147.0,
          "duration": 1.0,
          "velocity": 100
        },
        {
          "pitch": 68,
          "onset": 148.0,
          "duration": 0.3438,
          "velocity": 100
        },
        {
          "pitch": 77,
          "onset": 148.3438,
          "duration": 0.3438,
          "velocity": 100
        },
        {
          "pitch": 76,
          "onset": 148.6562,
          "duration": 0.3125,
          "velocity": 100
        },
        {
          "pitch": 74,
          "onset": 149.0,
          "duration": 0.3438,
          "velocity": 100
        },
        {
          "pitch": 73,
          "onset": 149.3438,
          "duration": 0.3438,
          "velocity": 100
        },
        {
          "pitch": 71,
          "onset": 149.6562,
          "duration": 0.3125,
          "velocity": 100
        },
        {
          "pitch": 73,
          "onset": 150.0,
          "duration": 0.3438,
          "velocity": 100
        },
        {
          "pitch": 69,
          "onset": 150.3438,
          "duration": 0.3438,
          "velocity": 100
        },
        {
          "pitch": 64,
          "onset": 150.6562,
          "duration": 0.3125,
          "velocity": 100
        },
        {
          "pitch": 57,
          "onset": 151.0,
          "duration": 0.3125,
          "velocity": 100
        },
        {
          "pitch": 70,
          "onset": 151.3438,
          "duration": 0.3438,
          "velocity": 100
        },
        {
          "pitch": 69,
          "onset": 151.6562,
          "duration": 0.3438,
          "velocity": 100
        },
        {
          "pitch": 67,
          "onset": 152.0,
          "duration": 0.3438,
          "velocity": 100
        },
        {
          "pitch": 65,
          "onset": 152.3438,
          "duration": 0.3438,
          "velocity": 100
        },
        {
          "pitch": 64,
          "onset": 152.6562,
          "duration": 0.3125,
          "velocity": 100
        },
        {
          "pitch": 65,
          "onset": 153.0,
          "duration": 0.75,
          "velocity": 100
        },
        {
          "pitch": 74,
          "onset": 153.75,
          "duration": 0.25,
          "velocity": 100
        },
        {
          "pitch": 64,
          "onset": 154.0,
          "duration": 0.75,
          "velocity": 100
        },
        {
          "pitch": 79,
          "onset": 154.75,
          "duration": 0.25,
          "velocity": 100
        },
        {
          "pitch": 77,
          "onset": 155.0,
          "duration": 0.75,
          "velocity": 100
        },
        {
          "pitch": 76,
          "onset": 155.75,
          "duration": 0.25,
          "velocity": 100
        },
        {
          "pitch": 77,
          "onset": 156.0,
          "duration": 0.75,
          "velocity": 100
        },
        {
          "pitch": 74,
          "onset": 156.75,
          "duration": 0.25,
          "velocity": 100
        },
        {
          "pitch": 69,
          "onset": 157.0,
          "duration": 0.75,
          "velocity": 100
        },
        {
          "pitch": 65,
          "onset": 157.75,
          "duration": 0.25,
          "velocity": 100
        },
        {
          "pitch": 62,
          "onset": 158.0,
          "duration": 0.75,
          "velocity": 100
        },
        {
          "pitch": 65,
          "onset": 158.75,
          "duration": 0.25,
          "velocity": 100
        },
        {
          "pitch": 57,
          "onset": 159.0,
          "duration": 0.3125,
          "velocity": 100
        },
        {
          "pitch": 75,
          "onset": 159.3438,
          "duration": 0.3125,
          "velocity": 100
        },
        {
          "pitch": 74,
          "onset": 159.6562,
          "duration": 0.3125,
          "velocity": 100
        },
        {
          "pitch": 72,
          "onset": 160.0,
          "duration": 0.3438,
          "velocity": 100
        },
        {
          "pitch": 70,
          "onset": 160.3438,
          "duration": 0.3438,
          "velocity": 100
        },
        {
          "pitch": 69,
          "onset": 160.6562,
          "duration": 0.3125,
          "velocity": 100
        },
        {
          "pitch": 79,
          "onset": 161.0,
          "duration": 0.3438,
          "velocity": 100
        },
        {
          "pitch": 77,
          "onset": 161.3438,
          "duration": 0.3438,
          "velocity": 100
        },
        {
          "pitch": 75,
          "onset": 161.6562,
          "duration": 0.3125,
          "velocity": 100
        },
        {
          "pitch": 74,
          "onset": 162.0,
          "duration": 0.75,
          "velocity": 100
        },
        {
          "pitch": 70,
          "onset": 162.75,
          "duration": 0.25,
          "velocity": 100
        },
        {
          "pitch": 65,
          "onset": 163.0,
          "duration": 0.75,
          "velocity": 100
        },
        {
          "pitch": 62,
          "onset": 163.75,
          "duration": 0.25,
          "velocity": 100
        },
        {
          "pitch": 58,
          "onset": 164.0,
          "duration": 0.75,
          "velocity": 100
        },
        {
          "pitch": 74,
          "onset": 164.75,
          "duration": 0.25,
          "velocity": 100
        },
        {
          "pitch": 66,
          "onset": 165.0,
          "duration": 0.3125,
          "velocity": 100
        },
        {
          "pitch": 84,
          "onset": 165.3438,
          "duration": 0.3125,
          "velocity": 100
        },
        {
          "pitch": 82,
          "onset": 165.6562,
          "duration": 0.3125,
          "velocity": 100
        },
        {
          "pitch": 81,
          "onset": 166.0,
          "duration": 0.3438,
          "velocity": 100
        },
        {
          "pitch": 79,
          "onset": 166.3438,
          "duration": 0.3438,
          "velocity": 100
        },
        {
          "pitch": 78,
          "onset": 166.6562,
          "duration": 0.3438,
          "velocity": 100
        },
        {
          "pitch": 75,
          "onset": 167.0,
          "duration": 0.3438,
          "velocity": 100
        },
        {
          "pitch": 74,
          "onset": 167.3438,
          "duration": 0.3438,
          "velocity": 100
        },
        {
          "pitch": 72,
          "onset": 167.6562,
          "duration": 0.3125,
          "velocity": 100
        },
        {
          "pitch": 70,
          "onset": 168.0,
          "duration": 0.3125,
          "velocity": 100
        },
        {
          "pitch": 67,
          "onset": 168.3438,
          "duration": 0.3438,
          "velocity": 100
        },
        {
          "pitch": 69,
          "onset": 168.6562,
          "duration": 0.3438,
          "velocity": 100
        },
        {
          "pitch": 70,
          "onset": 169.0,
          "duration": 0.3438,
          "velocity": 100
        },
        {
          "pitch": 72,
          "onset": 169.3438,
          "duration": 0.3438,
          "velocity": 100
        },
        {
          "pitch": 74,
          "onset": 169.6562,
          "duration": 0.3125,
          "velocity": 100
        },
        {
          "pitch": 75,
          "onset": 170.0,
          "duration": 0.3438,
          "velocity": 100
        },
        {
          "pitch": 74,
          "onset": 170.3438,
          "duration": 0.3438,
          "velocity": 100
        },
        {
          "pitch": 75,
          "onset": 170.6562,
          "duration": 0.3125,
          "velocity": 100
        },
        {
          "pitch": 69,
          "onset": 171.0,
          "duration": 0.3125,
          "velocity": 100
        },
        {
          "pitch": 65,
          "onset": 171.3438,
          "duration": 0.3438,
          "velocity": 100
        },
        {
          "pitch": 67,
          "onset": 171.6562,
          "duration": 0.3438,
          "velocity": 100
        },
        {
          "pitch": 69,
          "onset": 172.0,
          "duration": 0.3438,
          "velocity": 100
        },
        {
          "pitch": 70,
          "onset": 172.3438,
          "duration": 0.3438,
          "velocity": 100
        },
        {
          "pitch": 72,
          "onset": 172.6562,
          "duration": 0.3125,
          "velocity": 100
        },
        {
          "pitch": 74,
          "onset": 173.0,
          "duration": 0.3438,
          "velocity": 100
        },
        {
          "pitch": 72,
          "onset": 173.3438,
          "duration": 0.3438,
          "velocity": 100
        },
        {
          "pitch": 74,
          "onset": 173.6562,
          "duration": 0.3125,
          "velocity": 100
        },
        {
          "pitch": 63,
          "onset": 174.0,
          "duration": 0.75,
          "velocity": 100
        },
        {
          "pitch": 74,
          "onset": 174.75,
          "duration": 0.25,
          "velocity": 100
        },
        {
          "pitch": 79,
          "onset": 175.0,
          "duration": 0.75,
          "velocity": 100
        },
        {
          "pitch": 70,
          "onset": 175.75,
          "duration": 0.25,
          "velocity": 100
        },
        {
          "pitch": 72,
          "onset": 176.0,
          "duration": 0.75,
          "velocity": 100
        },
        {
          "pitch": 75,
          "onset": 176.75,
          "duration": 0.25,
          "velocity": 100
        },
        {
          "pitch": 66,
          "onset": 177.0,
          "duration": 0.3125,
          "velocity": 100
        },
        {
          "pitch": 69,
          "onset": 177.3438,
          "duration": 0.3438,
          "velocity": 100
        },
        {
          "pitch": 67,
          "onset": 177.6562,
          "duration": 0.3438,
          "velocity": 100
        },
        {
          "pitch": 66,
          "onset": 178.0,
          "duration": 0.3438,
          "velocity": 100
        },
        {
          "pitch": 63,
          "onset": 178.3438,
          "duration": 0.3438,
          "velocity": 100
        },
        {
          "pitch": 62,
          "onset": 178.6562,
          "duration": 0.3438,
          "velocity": 100
        },
        {
          "pitch": 60,
          "onset": 179.0,
          "duration": 0.3438,
          "velocity": 100
        },
        {
          "pitch": 58,
          "onset": 179.3438,
          "duration": 0.3438,
          "velocity": 100
        },
        {
          "pitch": 57,
          "onset": 179.6562,
          "duration": 0.3125,
          "velocity": 100
        },
        {
          "pitch": 58,
          "onset": 180.0,
          "duration": 0.3438,
          "velocity": 100
        },
        {
          "pitch": 62,
          "onset": 180.3438,
          "duration": 0.3438,
          "velocity": 100
        },
        {
          "pitch": 67,
          "onset": 180.6562,
          "duration": 0.3125,
          "velocity": 100
        },
        {
          "pitch": 70,
          "onset": 181.0,
          "duration": 0.3438,
          "velocity": 100
        },
        {
          "pitch": 74,
          "onset": 181.3438,
          "duration": 0.3438,
          "velocity": 100
        },
        {
          "pitch": 79,
          "onset": 181.6562,
          "duration": 0.3125,
          "velocity": 100
        },
        {
          "pitch": 74,
          "onset": 182.0,
          "duration": 0.3438,
          "velocity": 100
        },
        {
          "pitch": 79,
          "onset": 182.3438,
          "duration": 0.3438,
          "velocity": 100
        },
        {
          "pitch": 78,
          "onset": 182.6562,
          "duration": 0.3125,
          "velocity": 100
        },
        {
          "pitch": 79,
          "onset": 183.0,
          "duration": 0.3125,
          "velocity": 100
        },
        {
          "pitch": 74,
          "onset": 183.3438,
          "duration": 0.3438,
          "velocity": 100
        },
        {
          "pitch": 72,
          "onset": 183.6562,
          "duration": 0.3438,
          "velocity": 100
        },
        {
          "pitch": 70,
          "onset": 184.0,
          "duration": 0.3438,
          "velocity": 100
        },
        {
          "pitch": 69,
          "onset": 184.3438,
          "duration": 0.3438,
          "velocity": 100
        },
        {
          "pitch": 67,
          "onset": 184.6562,
          "duration": 0.3438,
          "velocity": 100
        },
        {
          "pitch": 65,
          "onset": 185.0,
          "duration": 0.3438,
          "velocity": 100
        },
        {
          "pitch": 64,
          "onset": 185.3438,
          "duration": 0.3438,
          "velocity": 100
        },
        {
          "pitch": 62,
          "onset": 185.6562,
          "duration": 0.3125,
          "velocity": 100
        },
        {
          "pitch": 64,
          "onset": 186.0,
          "duration": 0.75,
          "velocity": 100
        },
        {
          "pitch": 67,
          "onset": 186.75,
          "duration": 0.25,
          "velocity": 100
        },
        {
          "pitch": 70,
          "onset": 187.0,
          "duration": 0.75,
          "velocity": 100
        },
        {
          "pitch": 74,
          "onset": 187.75,
          "duration": 0.25,
          "velocity": 100
        },
        {
          "pitch": 72,
          "onset": 188.0,
          "duration": 0.75,
          "velocity": 100
        },
        {
          "pitch": 70,
          "onset": 188.75,
          "duration": 0.25,
          "velocity": 100
        },
        {
          "pitch": 69,
          "onset": 189.0,
          "duration": 0.3125,
          "velocity": 100
        },
        {
          "pitch": 65,
          "onset": 189.3438,
          "duration": 0.3438,
          "velocity": 100
        },
        {
          "pitch": 67,
          "onset": 189.6562,
          "duration": 0.3438,
          "velocity": 100
        },
        {
          "pitch": 69,
          "onset": 190.0,
          "duration": 0.3438,
          "velocity": 100
        },
        {
          "pitch": 71,
          "onset": 190.3438,
          "duration": 0.3438,
          "velocity": 100
        },
        {
          "pitch": 73,
          "onset": 190.6562,
          "duration": 0.3438,
          "velocity": 100
        },
        {
          "pitch": 74,
          "onset": 191.0,
          "duration": 0.3438,
          "velocity": 100
        },
        {
          "pitch": 76,
          "onset": 191.3438,
          "duration": 0.3438,
          "velocity": 100
        },
        {
          "pitch": 77,
          "onset": 191.6562,
          "duration": 0.3125,
          "velocity": 100
        },
        {
          "pitch": 79,
          "onset": 192.0,
          "duration": 0.3125,
          "velocity": 100
        },
        {
          "pitch": 81,
          "onset": 192.3438,
          "duration": 0.3438,
          "velocity": 100
        },
        {
          "pitch": 79,
          "onset": 192.6562,
          "duration": 0.3438,
          "velocity": 100
        },
        {
          "pitch": 77,
          "onset": 193.0,
          "duration": 0.3438,
          "velocity": 100
        },
        {
          "pitch": 76,
          "onset": 193.3438,
          "duration": 0.3438,
          "velocity": 100
        },
        {
          "pitch": 74,
          "onset": 193.6562,
          "duration": 0.3438,
          "velocity": 100
        },
        {
          "pitch": 73,
          "onset": 194.0,
          "duration": 0.3438,
          "velocity": 100
        },
        {
          "pitch": 71,
          "onset": 194.3438,
          "duration": 0.3438,
          "velocity": 100
        },
        {
          "pitch": 69,
          "onset": 194.6562,
          "duration": 0.3125,
          "velocity": 100
        },
        {
          "pitch": 77,
          "onset": 195.0,
          "duration": 0.3125,
          "velocity": 100
        },
        {
          "pitch": 79,
          "onset": 195.3438,
          "duration": 0.3438,
          "velocity": 100
        },
        {
          "pitch": 77,
          "onset": 195.6562,
          "duration": 0.3438,
          "velocity": 100
        },
        {
          "pitch": 76,
          "onset": 196.0,
          "duration": 0.3438,
          "velocity": 100
        },
        {
          "pitch": 74,
          "onset": 196.3438,
          "duration": 0.3438,
          "velocity": 100
        },
        {
          "pitch": 72,
          "onset": 196.6562,
          "duration": 0.3438,
          "velocity": 100
        },
        {
          "pitch": 70,
          "onset": 197.0,
          "duration": 0.3438,
          "velocity": 100
        },
        {
          "pitch": 69,
          "onset": 197.3438,
          "duration": 0.3438,
          "velocity": 100
        },
        {
          "pitch": 67,
          "onset": 197.6562,
          "duration": 0.3125,
          "velocity": 100
        },
        {
          "pitch": 76,
          "onset": 198.0,
          "duration": 0.3125,
          "velocity": 100
        },
        {
          "pitch": 77,
          "onset": 198.3438,
          "duration": 0.3438,
          "velocity": 100
        },
        {
          "pitch": 76,
          "onset": 198.6562,
          "duration": 0.3438,
          "velocity": 100
        },
        {
          "pitch": 74,
          "onset": 199.0,
          "duration": 0.3438,
          "velocity": 100
        },
        {
          "pitch": 72,
          "onset": 199.3438,
          "duration": 0.3438,
          "velocity": 100
        },
        {
          "pitch": 70,
          "onset": 199.6562,
          "duration": 0.3438,
          "velocity": 100
        },
        {
          "pitch": 69,
          "onset": 200.0,
          "duration": 0.3438,
          "velocity": 100
        },
        {
          "pitch": 72,
          "onset": 200.3438,
          "duration": 0.3438,
          "velocity": 100
        },
        {
          "pitch": 75,
          "onset": 200.6562,
          "duration": 0.3125,
          "velocity": 100
        },
        {
          "pitch": 74,
          "onset": 201.0,
          "duration": 0.3125,
          "velocity": 100
        },
        {
          "pitch": 75,
          "onset": 201.3438,
          "duration": 0.3438,
          "velocity": 100
        },
        {
          "pitch": 74,
          "onset": 201.6562,
          "duration": 0.3438,
          "velocity": 100
        },
        {
          "pitch": 72,
          "onset": 202.0,
          "duration": 0.3438,
          "velocity": 100
        },
        {
          "pitch": 70,
          "onset": 202.3438,
          "duration": 0.3438,
          "velocity": 100
        },
        {
          "pitch": 69,
          "onset": 202.6562,
          "duration": 0.3125,
          "velocity": 100
        },
        {
          "pitch": 68,
          "onset": 203.0,
          "duration": 0.3438,
          "velocity": 100
        },
        {
          "pitch": 74,
          "onset": 203.3438,
          "duration": 0.3438,
          "velocity": 100
        },
        {
          "pitch": 83,
          "onset": 203.6562,
          "duration": 0.3125,
          "velocity": 100
        },
        {
          "pitch": 73,
          "onset": 204.0,
          "duration": 0.25,
          "velocity": 100
        },
        {
          "pitch": 74,
          "onset": 204.25,
          "duration": 0.125,
          "velocity": 100
        },
        {
          "pitch": 73,
          "onset": 204.375,
          "duration": 0.125,
          "velocity": 100
        },
        {
          "pitch": 74,
          "onset": 204.5,
          "duration": 0.125,
          "velocity": 100
        },
        {
          "pitch": 73,
          "onset": 204.625,
          "duration": 0.375,
          "velocity": 100
        },
        {
          "pitch": 57,
          "onset": 205.0,
          "duration": 0.3125,
          "velocity": 100
        },
        {
          "pitch": 69,
          "onset": 205.3438,
          "duration": 0.3438,
          "velocity": 100
        },
        {
          "pitch": 71,
          "onset": 205.6562,
          "duration": 0.3438,
          "velocity": 100
        },
        {
          "pitch": 73,
          "onset": 206.0,
          "duration": 0.3438,
          "velocity": 100
        },
        {
          "pitch": 74,
          "onset": 206.3438,
          "duration": 0.3438,
          "velocity": 100
        },
        {
          "pitch": 76,
          "onset": 206.6562,
          "duration": 0.3125,
          "velocity": 100
        },
        {
          "pitch": 67,
          "onset": 207.0,
          "duration": 0.3438,
          "velocity": 100
        },
        {
          "pitch": 66,
          "onset": 207.3438,
          "duration": 0.3438,
          "velocity": 100
        },
        {
          "pitch": 67,
          "onset": 207.6562,
          "duration": 0.3125,
          "velocity": 100
        },
        {
          "pitch": 61,
          "onset": 208.0,
          "duration": 0.3125,
          "velocity": 100
        },
        {
          "pitch": 67,
          "onset": 208.3438,
          "duration": 0.3438,
          "velocity": 100
        },
        {
          "pitch": 69,
          "onset": 208.6562,
          "duration": 0.3438,
          "velocity": 100
        },
        {
          "pitch": 70,
          "onset": 209.0,
          "duration": 0.3438,
          "velocity": 100
        },
        {
          "pitch": 69,
          "onset": 209.3438,
          "duration": 0.3438,
          "velocity": 100
        },
        {
          "pitch": 67,
          "onset": 209.6562,
          "duration": 0.3125,
          "velocity": 100
        },
        {
          "pitch": 65,
          "onset": 210.0,
          "duration": 0.3438,
          "velocity": 100
        },
        {
          "pitch": 67,
          "onset": 210.3438,
          "duration": 0.3438,
          "velocity": 100
        },
        {
          "pitch": 69,
          "onset": 210.6562,
          "duration": 0.3125,
          "velocity": 100
        },
        {
          "pitch": 62,
          "onset": 211.0,
          "duration": 0.3125,
          "velocity": 100
        },
        {
          "pitch": 74,
          "onset": 211.3438,
          "duration": 0.3438,
          "velocity": 100
        },
        {
          "pitch": 76,
          "onset": 211.6562,
          "duration": 0.3438,
          "velocity": 100
        },
        {
          "pitch": 77,
          "onset": 212.0,
          "duration": 0.3438,
          "velocity": 100
        },
        {
          "pitch": 79,
          "onset": 212.3438,
          "duration": 0.3438,
          "velocity": 100
        },
        {
          "pitch": 81,
          "onset": 212.6562,
          "duration": 0.3125,
          "velocity": 100
        },
        {
          "pitch": 72,
          "onset": 213.0,
          "duration": 0.3438,
          "velocity": 100
        },
        {
          "pitch": 71,
          "onset": 213.3438,
          "duration": 0.3438,
          "velocity": 100
        },
        {
          "pitch": 72,
          "onset": 213.6562,
          "duration": 0.3125,
          "velocity": 100
        },
        {
          "pitch": 66,
          "onset": 214.0,
          "duration": 0.3125,
          "velocity": 100
        },
        {
          "pitch": 72,
          "onset": 214.3438,
          "duration": 0.3438,
          "velocity": 100
        },
        {
          "pitch": 74,
          "onset": 214.6562,
          "duration": 0.3438,
          "velocity": 100
        },
        {
          "pitch": 75,
          "onset": 215.0,
          "duration": 0.3438,
          "velocity": 100
        },
        {
          "pitch": 74,
          "onset": 215.3438,
          "duration": 0.3438,
          "velocity": 100
        },
        {
          "pitch": 72,
          "onset": 215.6562,
          "duration": 0.3125,
          "velocity": 100
        },
        {
          "pitch": 70,
          "onset": 216.0,
          "duration": 0.3438,
          "velocity": 100
        },
        {
          "pitch": 66,
          "onset": 216.3438,
          "duration": 0.3438,
          "velocity": 100
        },
        {
          "pitch": 67,
          "onset": 216.6562,
          "duration": 0.3125,
          "velocity": 100
        },
        {
          "pitch": 75,
          "onset": 217.0,
          "duration": 0.3438,
          "velocity": 100
        },
        {
          "pitch": 73,
          "onset": 217.3438,
          "duration": 0.3438,
          "velocity": 100
        },
        {
          "pitch": 74,
          "onset": 217.6562,
          "duration": 0.3125,
          "velocity": 100
        },
        {
          "pitch": 82,
          "onset": 218.0,
          "duration": 0.3438,
          "velocity": 100
        },
        {
          "pitch": 78,
          "onset": 218.3438,
          "duration": 0.3438,
          "velocity": 100
        },
        {
          "pitch": 79,
          "onset": 218.6562,
          "duration": 0.3125,
          "velocity": 100
        },
        {
          "pitch": 79,
          "onset": 219.0,
          "duration": 1.0,
          "velocity": 100
        },
        {
          "pitch": 85,
          "onset": 219.0,
          "duration": 1.3438,
          "velocity": 100
        },
        {
          "pitch": 86,
          "onset": 220.3438,
          "duration": 0.3438,
          "velocity": 100
        },
        {
          "pitch": 85,
          "onset": 220.6562,
          "duration": 0.3125,
          "velocity": 100
        },
        {
          "pitch": 86,
          "onset": 221.0,
          "duration": 0.3438,
          "velocity": 100
        },
        {
          "pitch": 84,
          "onset": 221.3438,
          "duration": 0.3438,
          "velocity": 100
        },
        {
          "pitch": 82,
          "onset": 221.6562,
          "duration": 0.3125,
          "velocity": 100
        },
        {
          "pitch": 81,
          "onset": 222.0,
          "duration": 0.3438,
          "velocity": 100
        },
        {
          "pitch": 79,
          "onset": 222.3438,
          "duration": 0.3438,
          "velocity": 100
        },
        {
          "pitch": 77,
          "onset": 222.6562,
          "duration": 0.3125,
          "velocity": 100
        },
        {
          "pitch": 76,
          "onset": 223.0,
          "duration": 0.3438,
          "velocity": 100
        },
        {
          "pitch": 77,
          "onset": 223.3438,
          "duration": 0.3438,
          "velocity": 100
        },
        {
          "pitch": 74,
          "onset": 223.6562,
          "duration": 0.3125,
          "velocity": 100
        },
        {
          "pitch": 69,
          "onset": 224.0,
          "duration": 0.3438,
          "velocity": 100
        },
        {
          "pitch": 74,
          "onset": 224.3438,
          "duration": 0.3438,
          "velocity": 100
        },
        {
          "pitch": 73,
          "onset": 224.6562,
          "duration": 0.3125,
          "velocity": 100
        },
        {
          "pitch": 74,
          "onset": 225.0,
          "duration": 0.75,
          "velocity": 100
        },
        {
          "pitch": 70,
          "onset": 225.75,
          "duration": 0.25,
          "velocity": 110
        },
        {
          "pitch": 68,
          "onset": 226.0,
          "duration": 1.3125,
          "velocity": 110
        },
        {
          "pitch": 69,
          "onset": 227.3438,
          "duration": 0.3125,
          "velocity": 110
        },
        {
          "pitch": 71,
          "onset": 227.6562,
          "duration": 0.3125,
          "velocity": 110
        },
        {
          "pitch": 61,
          "onset": 228.0,
          "duration": 0.3438,
          "velocity": 110
        },
        {
          "pitch": 64,
          "onset": 228.3438,
          "duration": 0.3438,
          "velocity": 110
        },
        {
          "pitch": 67,
          "onset": 228.6562,
          "duration": 0.3125,
          "velocity": 110
        },
        {
          "pitch": 70,
          "onset": 229.0,
          "duration": 1.3125,
          "velocity": 110
        },
        {
          "pitch": 69,
          "onset": 230.3438,
          "duration": 0.3125,
          "velocity": 110
        },
        {
          "pitch": 67,
          "onset": 230.6562,
          "duration": 0.3125,
          "velocity": 110
        },
        {
          "pitch": 65,
          "onset": 231.0,
          "duration": 0.3438,
          "velocity": 110
        },
        {
          "pitch": 69,
          "onset": 231.3438,
          "duration": 0.3438,
          "velocity": 110
        },
        {
          "pitch": 73,
          "onset": 231.6562,
          "duration": 0.3125,
          "velocity": 110
        },
        {
          "pitch": 74,
          "onset": 232.0,
          "duration": 0.3438,
          "velocity": 110
        },
        {
          "pitch": 77,
          "onset": 232.3438,
          "duration": 0.3438,
          "velocity": 110
        },
        {
          "pitch": 81,
          "onset": 232.6562,
          "duration": 0.3125,
          "velocity": 110
        },
        {
          "pitch": 57,
          "onset": 233.0,
          "duration": 0.3125,
          "velocity": 110
        },
        {
          "pitch": 62,
          "onset": 233.3438,
          "duration": 0.3125,
          "velocity": 110
        },
        {
          "pitch": 61,
          "onset": 233.6562,
          "duration": 0.3125,
          "velocity": 110
        },
        {
          "pitch": 62,
          "onset": 234.0,
          "duration": 2.0,
          "velocity": 110
        },
        {
          "pitch": 76,
          "onset": 236.75,
          "duration": 0.25,
          "velocity": 100
        },
        {
          "pitch": 73,
          "onset": 237.0,
          "duration": 1.0,
          "velocity": 100
        },
        {
          "pitch": 76,
          "onset": 237.0,
          "duration": 1.0,
          "velocity": 100
        },
        {
          "pitch": 68,
          "onset": 238.0,
          "duration": 0.3438,
          "velocity": 100
        },
        {
          "pitch": 77,
          "onset": 238.3438,
          "duration": 0.3438,
          "velocity": 100
        },
        {
          "pitch": 76,
          "onset": 238.6562,
          "duration": 0.3125,
          "velocity": 100
        },
        {
          "pitch": 74,
          "onset": 239.0,
          "duration": 0.3438,
          "velocity": 100
        },
        {
          "pitch": 73,
          "onset": 239.3438,
          "duration": 0.3438,
          "velocity": 100
        },
        {
          "pitch": 71,
          "onset": 239.6562,
          "duration": 0.3125,
          "velocity": 100
        },
        {
          "pitch": 73,
          "onset": 240.0,
          "duration": 0.3438,
          "velocity": 100
        },
        {
          "pitch": 69,
          "onset": 240.3438,
          "duration": 0.3438,
          "velocity": 100
        },
        {
          "pitch": 64,
          "onset": 240.6562,
          "duration": 0.3125,
          "velocity": 100
        },
        {
          "pitch": 57,
          "onset": 241.0,
          "duration": 0.3125,
          "velocity": 100
        },
        {
          "pitch": 70,
          "onset": 241.3438,
          "duration": 0.3438,
          "velocity": 100
        },
        {
          "pitch": 69,
          "onset": 241.6562,
          "duration": 0.3438,
          "velocity": 100
        },
        {
          "pitch": 67,
          "onset": 242.0,
          "duration": 0.3438,
          "velocity": 100
        },
        {
          "pitch": 65,
          "onset": 242.3438,
          "duration": 0.3438,
          "velocity": 100
        },
        {
          "pitch": 64,
          "onset": 242.6562,
          "duration": 0.3125,
          "velocity": 100
        },
        {
          "pitch": 65,
          "onset": 243.0,
          "duration": 0.75,
          "velocity": 100
        },
        {
          "pitch": 74,
          "onset": 243.75,
          "duration": 0.25,
          "velocity": 100
        },
        {
          "pitch": 64,
          "onset": 244.0,
          "duration": 0.75,
          "velocity": 100
        },
        {
          "pitch": 79,
          "onset": 244.75,
          "duration": 0.25,
          "velocity": 100
        },
        {
          "pitch": 77,
          "onset": 245.0,
          "duration": 0.75,
          "velocity": 100
        },
        {
          "pitch": 76,
          "onset": 245.75,
          "duration": 0.25,
          "velocity": 100
        },
        {
          "pitch": 77,
          "onset": 246.0,
          "duration": 0.75,
          "velocity": 100
        },
        {
          "pitch": 74,
          "onset": 246.75,
          "duration": 0.25,
          "velocity": 100
        },
        {
          "pitch": 69,
          "onset": 247.0,
          "duration": 0.75,
          "velocity": 100
        },
        {
          "pitch": 65,
          "onset": 247.75,
          "duration": 0.25,
          "velocity": 100
        },
        {
          "pitch": 62,
          "onset": 248.0,
          "duration": 0.75,
          "velocity": 100
        },
        {
          "pitch": 65,
          "onset": 248.75,
          "duration": 0.25,
          "velocity": 100
        },
        {
          "pitch": 57,
          "onset": 249.0,
          "duration": 0.3125,
          "velocity": 100
        },
        {
          "pitch": 75,
          "onset": 249.3438,
          "duration": 0.3125,
          "velocity": 100
        },
        {
          "pitch": 74,
          "onset": 249.6562,
          "duration": 0.3125,
          "velocity": 100
        },
        {
          "pitch": 72,
          "onset": 250.0,
          "duration": 0.3438,
          "velocity": 100
        },
        {
          "pitch": 70,
          "onset": 250.3438,
          "duration": 0.3438,
          "velocity": 100
        },
        {
          "pitch": 69,
          "onset": 250.6562,
          "duration": 0.3125,
          "velocity": 100
        },
        {
          "pitch": 79,
          "onset": 251.0,
          "duration": 0.3438,
          "velocity": 100
        },
        {
          "pitch": 77,
          "onset": 251.3438,
          "duration": 0.3438,
          "velocity": 100
        },
        {
          "pitch": 75,
          "onset": 251.6562,
          "duration": 0.3125,
          "velocity": 100
        },
        {
          "pitch": 74,
          "onset": 252.0,
          "duration": 0.75,
          "velocity": 100
        },
        {
          "pitch": 70,
          "onset": 252.75,
          "duration": 0.25,
          "velocity": 100
        },
        {
          "pitch": 65,
          "onset": 253.0,
          "duration": 0.75,
          "velocity": 100
        },
        {
          "pitch": 62,
          "onset": 253.75,
          "duration": 0.25,
          "velocity": 100
        },
        {
          "pitch": 58,
          "onset": 254.0,
          "duration": 0.75,
          "velocity": 100
        },
        {
          "pitch": 74,
          "onset": 254.75,
          "duration": 0.25,
          "velocity": 100
        },
        {
          "pitch": 66,
          "onset": 255.0,
          "duration": 0.3125,
          "velocity": 100
        },
        {
          "pitch": 84,
          "onset": 255.3438,
          "duration": 0.3125,
          "velocity": 100
        },
        {
          "pitch": 82,
          "onset": 255.6562,
          "duration": 0.3125,
          "velocity": 100
        },
        {
          "pitch": 81,
          "onset": 256.0,
          "duration": 0.3438,
          "velocity": 100
        },
        {
          "pitch": 79,
          "onset": 256.3438,
          "duration": 0.3438,
          "velocity": 100
        },
        {
          "pitch": 78,
          "onset": 256.6562,
          "duration": 0.3438,
          "velocity": 100
        },
        {
          "pitch": 75,
          "onset": 257.0,
          "duration": 0.3438,
          "velocity": 100
        },
        {
          "pitch": 74,
          "onset": 257.3438,
          "duration": 0.3438,
          "velocity": 100
        },
        {
          "pitch": 72,
          "onset": 257.6562,
          "duration": 0.3125,
          "velocity": 100
        },
        {
          "pitch": 70,
          "onset": 258.0,
          "duration": 0.3125,
          "velocity": 100
        },
        {
          "pitch": 67,
          "onset": 258.3438,
          "duration": 0.3438,
          "velocity": 100
        },
        {
          "pitch": 69,
          "onset": 258.6562,
          "duration": 0.3438,
          "velocity": 100
        },
        {
          "pitch": 70,
          "onset": 259.0,
          "duration": 0.3438,
          "velocity": 100
        },
        {
          "pitch": 72,
          "onset": 259.3438,
          "duration": 0.3438,
          "velocity": 100
        },
        {
          "pitch": 74,
          "onset": 259.6562,
          "duration": 0.3125,
          "velocity": 100
        },
        {
          "pitch": 75,
          "onset": 260.0,
          "duration": 0.3438,
          "velocity": 100
        },
        {
          "pitch": 74,
          "onset": 260.3438,
          "duration": 0.3438,
          "velocity": 100
        },
        {
          "pitch": 75,
          "onset": 260.6562,
          "duration": 0.3125,
          "velocity": 100
        },
        {
          "pitch": 69,
          "onset": 261.0,
          "duration": 0.3125,
          "velocity": 100
        },
        {
          "pitch": 65,
          "onset": 261.3438,
          "duration": 0.3438,
          "velocity": 100
        },
        {
          "pitch": 67,
          "onset": 261.6562,
          "duration": 0.3438,
          "velocity": 100
        },
        {
          "pitch": 69,
          "onset": 262.0,
          "duration": 0.3438,
          "velocity": 100
        },
        {
          "pitch": 70,
          "onset": 262.3438,
          "duration": 0.3438,
          "velocity": 100
        },
        {
          "pitch": 72,
          "onset": 262.6562,
          "duration": 0.3125,
          "velocity": 100
        },
        {
          "pitch": 74,
          "onset": 263.0,
          "duration": 0.3438,
          "velocity": 100
        },
        {
          "pitch": 72,
          "onset": 263.3438,
          "duration": 0.3438,
          "velocity": 100
        },
        {
          "pitch": 74,
          "onset": 263.6562,
          "duration": 0.3125,
          "velocity": 100
        },
        {
          "pitch": 63,
          "onset": 264.0,
          "duration": 0.75,
          "velocity": 100
        },
        {
          "pitch": 74,
          "onset": 264.75,
          "duration": 0.25,
          "velocity": 100
        },
        {
          "pitch": 79,
          "onset": 265.0,
          "duration": 0.75,
          "velocity": 100
        },
        {
          "pitch": 70,
          "onset": 265.75,
          "duration": 0.25,
          "velocity": 100
        },
        {
          "pitch": 72,
          "onset": 266.0,
          "duration": 0.75,
          "velocity": 100
        },
        {
          "pitch": 75,
          "onset": 266.75,
          "duration": 0.25,
          "velocity": 100
        },
        {
          "pitch": 66,
          "onset": 267.0,
          "duration": 0.3125,
          "velocity": 100
        },
        {
          "pitch": 69,
          "onset": 267.3438,
          "duration": 0.3438,
          "velocity": 100
        },
        {
          "pitch": 67,
          "onset": 267.6562,
          "duration": 0.3438,
          "velocity": 100
        },
        {
          "pitch": 66,
          "onset": 268.0,
          "duration": 0.3438,
          "velocity": 100
        },
        {
          "pitch": 63,
          "onset": 268.3438,
          "duration": 0.3438,
          "velocity": 100
        },
        {
          "pitch": 62,
          "onset": 268.6562,
          "duration": 0.3438,
          "velocity": 100
        },
        {
          "pitch": 60,
          "onset": 269.0,
          "duration": 0.3438,
          "velocity": 100
        },
        {
          "pitch": 58,
          "onset": 269.3438,
          "duration": 0.3438,
          "velocity": 100
        },
        {
          "pitch": 57,
          "onset": 269.6562,
          "duration": 0.3125,
          "velocity": 100
        },
        {
          "pitch": 58,
          "onset": 270.0,
          "duration": 0.3438,
          "velocity": 100
        },
        {
          "pitch": 62,
          "onset": 270.3438,
          "duration": 0.3438,
          "velocity": 100
        },
        {
          "pitch": 67,
          "onset": 270.6562,
          "duration": 0.3125,
          "velocity": 100
        },
        {
          "pitch": 70,
          "onset": 271.0,
          "duration": 0.3438,
          "velocity": 100
        },
        {
          "pitch": 74,
          "onset": 271.3438,
          "duration": 0.3438,
          "velocity": 100
        },
        {
          "pitch": 79,
          "onset": 271.6562,
          "duration": 0.3125,
          "velocity": 100
        },
        {
          "pitch": 74,
          "onset": 272.0,
          "duration": 0.3438,
          "velocity": 100
        },
        {
          "pitch": 79,
          "onset": 272.3438,
          "duration": 0.3438,
          "velocity": 100
        },
        {
          "pitch": 78,
          "onset": 272.6562,
          "duration": 0.3125,
          "velocity": 100
        },
        {
          "pitch": 79,
          "onset": 273.0,
          "duration": 0.3125,
          "velocity": 100
        },
        {
          "pitch": 74,
          "onset": 273.3438,
          "duration": 0.3438,
          "velocity": 100
        },
        {
          "pitch": 72,
          "onset": 273.6562,
          "duration": 0.3438,
          "velocity": 100
        },
        {
          "pitch": 70,
          "onset": 274.0,
          "duration": 0.3438,
          "velocity": 100
        },
        {
          "pitch": 69,
          "onset": 274.3438,
          "duration": 0.3438,
          "velocity": 100
        },
        {
          "pitch": 67,
          "onset": 274.6562,
          "duration": 0.3438,
          "velocity": 100
        },
        {
          "pitch": 65,
          "onset": 275.0,
          "duration": 0.3438,
          "velocity": 100
        },
        {
          "pitch": 64,
          "onset": 275.3438,
          "duration": 0.3438,
          "velocity": 100
        },
        {
          "pitch": 62,
          "onset": 275.6562,
          "duration": 0.3125,
          "velocity": 100
        },
        {
          "pitch": 64,
          "onset": 276.0,
          "duration": 0.75,
          "velocity": 100
        },
        {
          "pitch": 67,
          "onset": 276.75,
          "duration": 0.25,
          "velocity": 100
        },
        {
          "pitch": 70,
          "onset": 277.0,
          "duration": 0.75,
          "velocity": 100
        },
        {
          "pitch": 74,
          "onset": 277.75,
          "duration": 0.25,
          "velocity": 100
        },
        {
          "pitch": 72,
          "onset": 278.0,
          "duration": 0.75,
          "velocity": 100
        },
        {
          "pitch": 70,
          "onset": 278.75,
          "duration": 0.25,
          "velocity": 100
        },
        {
          "pitch": 69,
          "onset": 279.0,
          "duration": 0.3125,
          "velocity": 100
        },
        {
          "pitch": 65,
          "onset": 279.3438,
          "duration": 0.3438,
          "velocity": 100
        },
        {
          "pitch": 67,
          "onset": 279.6562,
          "duration": 0.3438,
          "velocity": 100
        },
        {
          "pitch": 69,
          "onset": 280.0,
          "duration": 0.3438,
          "velocity": 100
        },
        {
          "pitch": 71,
          "onset": 280.3438,
          "duration": 0.3438,
          "velocity": 100
        },
        {
          "pitch": 73,
          "onset": 280.6562,
          "duration": 0.3438,
          "velocity": 100
        },
        {
          "pitch": 74,
          "onset": 281.0,
          "duration": 0.3438,
          "velocity": 100
        },
        {
          "pitch": 76,
          "onset": 281.3438,
          "duration": 0.3438,
          "velocity": 100
        },
        {
          "pitch": 77,
          "onset": 281.6562,
          "duration": 0.3125,
          "velocity": 100
        },
        {
          "pitch": 79,
          "onset": 282.0,
          "duration": 0.3125,
          "velocity": 100
        },
        {
          "pitch": 81,
          "onset": 282.3438,
          "duration": 0.3438,
          "velocity": 100
        },
        {
          "pitch": 79,
          "onset": 282.6562,
          "duration": 0.3438,
          "velocity": 100
        },
        {
          "pitch": 77,
          "onset": 283.0,
          "duration": 0.3438,
          "velocity": 100
        },
        {
          "pitch": 76,
          "onset": 283.3438,
          "duration": 0.3438,
          "velocity": 100
        },
        {
          "pitch": 74,
          "onset": 283.6562,
          "duration": 0.3438,
          "velocity": 100
        },
        {
          "pitch": 73,
          "onset": 284.0,
          "duration": 0.3438,
          "velocity": 100
        },
        {
          "pitch": 71,
          "onset": 284.3438,
          "duration": 0.3438,
          "velocity": 100
        },
        {
          "pitch": 69,
          "onset": 284.6562,
          "duration": 0.3125,
          "velocity": 100
        },
        {
          "pitch": 77,
          "onset": 285.0,
          "duration": 0.3125,
          "velocity": 100
        },
        {
          "pitch": 79,
          "onset": 285.3438,
          "duration": 0.3438,
          "velocity": 100
        },
        {
          "pitch": 77,
          "onset": 285.6562,
          "duration": 0.3438,
          "velocity": 100
        },
        {
          "pitch": 76,
          "onset": 286.0,
          "duration": 0.3438,
          "velocity": 100
        },
        {
          "pitch": 74,
          "onset": 286.3438,
          "duration": 0.3438,
          "velocity": 100
        },
        {
          "pitch": 72,
          "onset": 286.6562,
          "duration": 0.3438,
          "velocity": 100
        },
        {
          "pitch": 70,
          "onset": 287.0,
          "duration": 0.3438,
          "velocity": 100
        },
        {
          "pitch": 69,
          "onset": 287.3438,
          "duration": 0.3438,
          "velocity": 100
        },
        {
          "pitch": 67,
          "onset": 287.6562,
          "duration": 0.3125,
          "velocity": 100
        },
        {
          "pitch": 76,
          "onset": 288.0,
          "duration": 0.3125,
          "velocity": 100
        },
        {
          "pitch": 77,
          "onset": 288.3438,
          "duration": 0.3438,
          "velocity": 100
        },
        {
          "pitch": 76,
          "onset": 288.6562,
          "duration": 0.3438,
          "velocity": 100
        },
        {
          "pitch": 74,
          "onset": 289.0,
          "duration": 0.3438,
          "velocity": 100
        },
        {
          "pitch": 72,
          "onset": 289.3438,
          "duration": 0.3438,
          "velocity": 100
        },
        {
          "pitch": 70,
          "onset": 289.6562,
          "duration": 0.3438,
          "velocity": 100
        },
        {
          "pitch": 69,
          "onset": 290.0,
          "duration": 0.3438,
          "velocity": 100
        },
        {
          "pitch": 72,
          "onset": 290.3438,
          "duration": 0.3438,
          "velocity": 100
        },
        {
          "pitch": 75,
          "onset": 290.6562,
          "duration": 0.3125,
          "velocity": 100
        },
        {
          "pitch": 74,
          "onset": 291.0,
          "duration": 0.3125,
          "velocity": 100
        },
        {
          "pitch": 75,
          "onset": 291.3438,
          "duration": 0.3438,
          "velocity": 100
        },
        {
          "pitch": 74,
          "onset": 291.6562,
          "duration": 0.3438,
          "velocity": 100
        },
        {
          "pitch": 72,
          "onset": 292.0,
          "duration": 0.3438,
          "velocity": 100
        },
        {
          "pitch": 70,
          "onset": 292.3438,
          "duration": 0.3438,
          "velocity": 100
        },
        {
          "pitch": 69,
          "onset": 292.6562,
          "duration": 0.3125,
          "velocity": 100
        },
        {
          "pitch": 68,
          "onset": 293.0,
          "duration": 0.3438,
          "velocity": 100
        },
        {
          "pitch": 74,
          "onset": 293.3438,
          "duration": 0.3438,
          "velocity": 100
        },
        {
          "pitch": 83,
          "onset": 293.6562,
          "duration": 0.3125,
          "velocity": 100
        },
        {
          "pitch": 73,
          "onset": 294.0,
          "duration": 0.25,
          "velocity": 100
        },
        {
          "pitch": 74,
          "onset": 294.25,
          "duration": 0.125,
          "velocity": 100
        },
        {
          "pitch": 73,
          "onset": 294.375,
          "duration": 0.125,
          "velocity": 100
        },
        {
          "pitch": 74,
          "onset": 294.5,
          "duration": 0.125,
          "velocity": 100
        },
        {
          "pitch": 73,
          "onset": 294.625,
          "duration": 0.375,
          "velocity": 100
        },
        {
          "pitch": 57,
          "onset": 295.0,
          "duration": 0.3125,
          "velocity": 100
        },
        {
          "pitch": 69,
          "onset": 295.3438,
          "duration": 0.3438,
          "velocity": 100
        },
        {
          "pitch": 71,
          "onset": 295.6562,
          "duration": 0.3438,
          "velocity": 100
        },
        {
          "pitch": 73,
          "onset": 296.0,
          "duration": 0.3438,
          "velocity": 100
        },
        {
          "pitch": 74,
          "onset": 296.3438,
          "duration": 0.3438,
          "velocity": 100
        },
        {
          "pitch": 76,
          "onset": 296.6562,
          "duration": 0.3125,
          "velocity": 100
        },
        {
          "pitch": 67,
          "onset": 297.0,
          "duration": 0.3438,
          "velocity": 100
        },
        {
          "pitch": 66,
          "onset": 297.3438,
          "duration": 0.3438,
          "velocity": 100
        },
        {
          "pitch": 67,
          "onset": 297.6562,
          "duration": 0.3125,
          "velocity": 100
        },
        {
          "pitch": 61,
          "onset": 298.0,
          "duration": 0.3125,
          "velocity": 100
        },
        {
          "pitch": 67,
          "onset": 298.3438,
          "duration": 0.3438,
          "velocity": 100
        },
        {
          "pitch": 69,
          "onset": 298.6562,
          "duration": 0.3438,
          "velocity": 100
        },
        {
          "pitch": 70,
          "onset": 299.0,
          "duration": 0.3438,
          "velocity": 100
        },
        {
          "pitch": 69,
          "onset": 299.3438,
          "duration": 0.3438,
          "velocity": 100
        },
        {
          "pitch": 67,
          "onset": 299.6562,
          "duration": 0.3125,
          "velocity": 100
        },
        {
          "pitch": 65,
          "onset": 300.0,
          "duration": 0.3438,
          "velocity": 100
        },
        {
          "pitch": 67,
          "onset": 300.3438,
          "duration": 0.3438,
          "velocity": 100
        },
        {
          "pitch": 69,
          "onset": 300.6562,
          "duration": 0.3125,
          "velocity": 100
        },
        {
          "pitch": 62,
          "onset": 301.0,
          "duration": 0.3125,
          "velocity": 100
        },
        {
          "pitch": 74,
          "onset": 301.3438,
          "duration": 0.3438,
          "velocity": 100
        },
        {
          "pitch": 76,
          "onset": 301.6562,
          "duration": 0.3438,
          "velocity": 100
        },
        {
          "pitch": 77,
          "onset": 302.0,
          "duration": 0.3438,
          "velocity": 100
        },
        {
          "pitch": 79,
          "onset": 302.3438,
          "duration": 0.3438,
          "velocity": 100
        },
        {
          "pitch": 81,
          "onset": 302.6562,
          "duration": 0.3125,
          "velocity": 100
        },
        {
          "pitch": 72,
          "onset": 303.0,
          "duration": 0.3438,
          "velocity": 100
        },
        {
          "pitch": 71,
          "onset": 303.3438,
          "duration": 0.3438,
          "velocity": 100
        },
        {
          "pitch": 72,
          "onset": 303.6562,
          "duration": 0.3125,
          "velocity": 100
        },
        {
          "pitch": 66,
          "onset": 304.0,
          "duration": 0.3125,
          "velocity": 100
        },
        {
          "pitch": 72,
          "onset": 304.3438,
          "duration": 0.3438,
          "velocity": 100
        },
        {
          "pitch": 74,
          "onset": 304.6562,
          "duration": 0.3438,
          "velocity": 100
        },
        {
          "pitch": 75,
          "onset": 305.0,
          "duration": 0.3438,
          "velocity": 100
        },
        {
          "pitch": 74,
          "onset": 305.3438,
          "duration": 0.3438,
          "velocity": 100
        },
        {
          "pitch": 72,
          "onset": 305.6562,
          "duration": 0.3125,
          "velocity": 100
        },
        {
          "pitch": 70,
          "onset": 306.0,
          "duration": 0.3438,
          "velocity": 100
        },
        {
          "pitch": 66,
          "onset": 306.3438,
          "duration": 0.3438,
          "velocity": 100
        },
        {
          "pitch": 67,
          "onset": 306.6562,
          "duration": 0.3125,
          "velocity": 100
        },
        {
          "pitch": 75,
          "onset": 307.0,
          "duration": 0.3438,
          "velocity": 100
        },
        {
          "pitch": 73,
          "onset": 307.3438,
          "duration": 0.3438,
          "velocity": 100
        },
        {
          "pitch": 74,
          "onset": 307.6562,
          "duration": 0.3125,
          "velocity": 100
        },
        {
          "pitch": 82,
          "onset": 308.0,
          "duration": 0.3438,
          "velocity": 100
        },
        {
          "pitch": 78,
          "onset": 308.3438,
          "duration": 0.3438,
          "velocity": 100
        },
        {
          "pitch": 79,
          "onset": 308.6562,
          "duration": 0.3125,
          "velocity": 100
        },
        {
          "pitch": 79,
          "onset": 309.0,
          "duration": 1.0,
          "velocity": 100
        },
        {
          "pitch": 85,
          "onset": 309.0,
          "duration": 1.3438,
          "velocity": 100
        },
        {
          "pitch": 86,
          "onset": 310.3438,
          "duration": 0.3438,
          "velocity": 100
        },
        {
          "pitch": 85,
          "onset": 310.6562,
          "duration": 0.3125,
          "velocity": 100
        },
        {
          "pitch": 86,
          "onset": 311.0,
          "duration": 0.3438,
          "velocity": 100
        },
        {
          "pitch": 84,
          "onset": 311.3438,
          "duration": 0.3438,
          "velocity": 100
        },
        {
          "pitch": 82,
          "onset": 311.6562,
          "duration": 0.3125,
          "velocity": 100
        },
        {
          "pitch": 81,
          "onset": 312.0,
          "duration": 0.3438,
          "velocity": 100
        },
        {
          "pitch": 79,
          "onset": 312.3438,
          "duration": 0.3438,
          "velocity": 100
        },
        {
          "pitch": 77,
          "onset": 312.6562,
          "duration": 0.3125,
          "velocity": 100
        },
        {
          "pitch": 76,
          "onset": 313.0,
          "duration": 0.3438,
          "velocity": 100
        },
        {
          "pitch": 77,
          "onset": 313.3438,
          "duration": 0.3438,
          "velocity": 100
        },
        {
          "pitch": 74,
          "onset": 313.6562,
          "duration": 0.3125,
          "velocity": 100
        },
        {
          "pitch": 69,
          "onset": 314.0,
          "duration": 0.3438,
          "velocity": 100
        },
        {
          "pitch": 74,
          "onset": 314.3438,
          "duration": 0.3438,
          "velocity": 100
        },
        {
          "pitch": 73,
          "onset": 314.6562,
          "duration": 0.3125,
          "velocity": 100
        },
        {
          "pitch": 74,
          "onset": 315.0,
          "duration": 0.75,
          "velocity": 100
        },
        {
          "pitch": 70,
          "onset": 315.75,
          "duration": 0.25,
          "velocity": 110
        },
        {
          "pitch": 68,
          "onset": 316.0,
          "duration": 1.3125,
          "velocity": 110
        },
        {
          "pitch": 69,
          "onset": 317.3438,
          "duration": 0.3125,
          "velocity": 110
        },
        {
          "pitch": 71,
          "onset": 317.6562,
          "duration": 0.3125,
          "velocity": 110
        },
        {
          "pitch": 61,
          "onset": 318.0,
          "duration": 0.3438,
          "velocity": 110
        },
        {
          "pitch": 64,
          "onset": 318.3438,
          "duration": 0.3438,
          "velocity": 110
        },
        {
          "pitch": 67,
          "onset": 318.6562,
          "duration": 0.3125,
          "velocity": 110
        },
        {
          "pitch": 70,
          "onset": 319.0,
          "duration": 1.3125,
          "velocity": 110
        },
        {
          "pitch": 69,
          "onset": 320.3438,
          "duration": 0.3125,
          "velocity": 110
        },
        {
          "pitch": 67,
          "onset": 320.6562,
          "duration": 0.3125,
          "velocity": 110
        },
        {
          "pitch": 65,
          "onset": 321.0,
          "duration": 0.3438,
          "velocity": 110
        },
        {
          "pitch": 69,
          "onset": 321.3438,
          "duration": 0.3438,
          "velocity": 110
        },
        {
          "pitch": 73,
          "onset": 321.6562,
          "duration": 0.3125,
          "velocity": 110
        },
        {
          "pitch": 74,
          "onset": 322.0,
          "duration": 0.3438,
          "velocity": 110
        },
        {
          "pitch": 77,
          "onset": 322.3438,
          "duration": 0.3438,
          "velocity": 110
        },
        {
          "pitch": 81,
          "onset": 322.6562,
          "duration": 0.3125,
          "velocity": 110
        },
        {
          "pitch": 57,
          "onset": 323.0,
          "duration": 0.3125,
          "velocity": 110
        },
        {
          "pitch": 62,
          "onset": 323.3438,
          "duration": 0.3125,
          "velocity": 110
        },
        {
          "pitch": 61,
          "onset": 323.6562,
          "duration": 0.5625,
          "velocity": 110
        },
        {
          "pitch": 62,
          "onset": 324.2188,
          "duration": 2.0,
          "velocity": 110
        },
        {
          "pitch": 62,
          "onset": 330.5,
          "duration": 0.5,
          "velocity": 1
        }
      ]
    },
    {
      "role": "solo_1",
      "notes": [
        {
          "pitch": 62,
          "onset": 3.0,
          "duration": 1.0,
          "velocity": 100
        },
        {
          "pitch": 62,
          "onset": 6.0,
          "duration": 1.0,
          "velocity": 100
        },
        {
          "pitch": 62,
          "onset": 75.0,
          "duration": 1.0,
          "velocity": 100
        },
        {
          "pitch": 62,
          "onset": 78.0,
          "duration": 1.0,
          "velocity": 100
        },
        {
          "pitch": 69,
          "onset": 147.0,
          "duration": 1.0,
          "velocity": 100
        },
        {
          "pitch": 69,
          "onset": 204.0,
          "duration": 1.0,
          "velocity": 100
        },
        {
          "pitch": 69,
          "onset": 219.0,
          "duration": 1.0,
          "velocity": 100
        },
        {
          "pitch": 69,
          "onset": 237.0,
          "duration": 1.0,
          "velocity": 100
        },
        {
          "pitch": 69,
          "onset": 294.0,
          "duration": 1.0,
          "velocity": 100
        },
        {
          "pitch": 69,
          "onset": 309.0,
          "duration": 1.0,
          "velocity": 100
        }
      ]
    }
  ]
}