{
  "bwv": 1008,
  "category": "solo_cello_suite",
  "instrument": "cello",
  "form": "",
  "movement": 6,
  "ticks_per_beat": 384,
  "duration_seconds": 153.5,
  "tempos": [
    {
      "tick": 0,
      "bpm": 95
    },
    {
      "tick": 9216,
      "bpm": 90
    },
    {
      "tick": 9792,
      "bpm": 95
    },
    {
      "tick": 13440,
      "bpm": 90
    },
    {
      "tick": 13536,
      "bpm": 90
    },
    {
      "tick": 13632,
      "bpm": 85
    },
    {
      "tick": 13728,
      "bpm": 80
    },
    {
      "tick": 14208,
      "bpm": 95
    },
    {
      "tick": 27648,
      "bpm": 90
    },
    {
      "tick": 28224,
      "bpm": 95
    },
    {
      "tick": 31680,
      "bpm": 90
    },
    {
      "tick": 31872,
      "bpm": 85
    },
    {
      "tick": 32064,
      "bpm": 80
    },
    {
      "tick": 32160,
      "bpm": 70
    },
    {
      "tick": 32256,
      "bpm": 80
    },
    {
      "tick": 32928,
      "bpm": 95
    },
    {
      "tick": 36480,
      "bpm": 90
    },
    {
      "tick": 36576,
      "bpm": 85
    },
    {
      "tick": 36672,
      "bpm": 80
    },
    {
      "tick": 36768,
      "bpm": 70
    },
    {
      "tick": 37248,
      "bpm": 95
    },
    {
      "tick": 52992,
      "bpm": 90
    },
    {
      "tick": 53184,
      "bpm": 85
    },
    {
      "tick": 53376,
      "bpm": 80
    },
    {
      "tick": 53472,
      "bpm": 70
    },
    {
      "tick": 53664,
      "bpm": 95
    },
    {
      "tick": 78240,
      "bpm": 90
    },
    {
      "tick": 78336,
      "bpm": 85
    },
    {
      "tick": 78528,
      "bpm": 80
    },
    {
      "tick": 78720,
      "bpm": 75
    },
    {
      "tick": 78816,
      "bpm": 65
    },
    {
      "tick": 78912,
      "bpm": 80
    },
    {
      "tick": 79008,
      "bpm": 95
    },
    {
      "tick": 82560,
      "bpm": 90
    },
    {
      "tick": 82656,
      "bpm": 85
    },
    {
      "tick": 82752,
      "bpm": 80
    },
    {
      "tick": 82848,
      "bpm": 70
    },
    {
      "tick": 83040,
      "bpm": 80
    },
    {
      "tick": 83616,
      "bpm": 85
    },
    {
      "tick": 83712,
      "bpm": 90
    },
    {
      "tick": 83904,
      "bpm": 95
    },
    {
      "tick": 84864,
      "bpm": 90
    },
    {
      "tick": 84960,
      "bpm": 85
    },
    {
      "tick": 85056,
      "bpm": 80
    },
    {
      "tick": 85152,
      "bpm": 70
    },
    {
      "tick": 85632,
      "bpm": 90
    },
    {
      "tick": 86784,
      "bpm": 85
    },
    {
      "tick": 86880,
      "bpm": 80
    },
    {
      "tick": 87360,
      "bpm": 70
    }
  ],
  "time_signatures": [
    {
      "tick": 0,
      "numerator": 3,
      "denominator": 8
    }
  ],
  "track_type": "solo_string",
  "voice_count": 2,
  "total_notes": 825,
  "tracks": [
    {
      "role": "solo_0",
      "notes": [
        {
          "pitch": 50,
          "onset": 0.0,
          "duration": 0.25,
          "velocity": 1
        },
        {
          "pitch": 57,
          "onset": 1.0,
          "duration": 0.5,
          "velocity": 100
        },
        {
          "pitch": 50,
          "onset": 1.5,
          "duration": 1.0,
          "velocity": 100
        },
        {
          "pitch": 58,
          "onset": 2.5,
          "duration": 0.5,
          "velocity": 100
        },
        {
          "pitch": 49,
          "onset": 3.0,
          "duration": 1.0,
          "velocity": 100
        },
        {
          "pitch": 55,
          "onset": 4.0,
          "duration": 0.5,
          "velocity": 100
        },
        {
          "pitch": 53,
          "onset": 4.5,
          "duration": 0.25,
          "velocity": 100
        },
        {
          "pitch": 52,
          "onset": 4.75,
          "duration": 0.25,
          "velocity": 100
        },
        {
          "pitch": 53,
          "onset": 5.0,
          "duration": 0.25,
          "velocity": 100
        },
        {
          "pitch": 55,
          "onset": 5.25,
          "duration": 0.25,
          "velocity": 100
        },
        {
          "pitch": 57,
          "onset": 5.5,
          "duration": 0.5,
          "velocity": 100
        },
        {
          "pitch": 50,
          "onset": 6.0,
          "duration": 1.0,
          "velocity": 100
        },
        {
          "pitch": 62,
          "onset": 7.0,
          "duration": 0.5,
          "velocity": 100
        },
        {
          "pitch": 52,
          "onset": 7.5,
          "duration": 0.25,
          "velocity": 100
        },
        {
          "pitch": 53,
          "onset": 7.75,
          "duration": 0.25,
          "velocity": 100
        },
        {
          "pitch": 55,
          "onset": 8.0,
          "duration": 0.375,
          "velocity": 100
        },
        {
          "pitch": 58,
          "onset": 8.5,
          "duration": 0.375,
          "velocity": 100
        },
        {
          "pitch": 48,
          "onset": 9.0,
          "duration": 0.25,
          "velocity": 100
        },
        {
          "pitch": 50,
          "onset": 9.25,
          "duration": 0.25,
          "velocity": 100
        },
        {
          "pitch": 52,
          "onset": 9.5,
          "duration": 0.375,
          "velocity": 100
        },
        {
          "pitch": 60,
          "onset": 10.0,
          "duration": 0.375,
          "velocity": 100
        },
        {
          "pitch": 57,
          "onset": 10.5,
          "duration": 0.25,
          "velocity": 100
        },
        {
          "pitch": 55,
          "onset": 10.75,
          "duration": 0.25,
          "velocity": 100
        },
        {
          "pitch": 57,
          "onset": 11.0,
          "duration": 0.25,
          "velocity": 100
        },
        {
          "pitch": 58,
          "onset": 11.25,
          "duration": 0.25,
          "velocity": 100
        },
        {
          "pitch": 60,
          "onset": 11.5,
          "duration": 0.25,
          "velocity": 100
        },
        {
          "pitch": 57,
          "onset": 11.75,
          "duration": 0.25,
          "velocity": 100
        },
        {
          "pitch": 53,
          "onset": 12.0,
          "duration": 0.125,
          "velocity": 100
        },
        {
          "pitch": 55,
          "onset": 12.125,
          "duration": 0.125,
          "velocity": 100
        },
        {
          "pitch": 53,
          "onset": 12.25,
          "duration": 0.125,
          "velocity": 100
        },
        {
          "pitch": 55,
          "onset": 12.375,
          "duration": 0.125,
          "velocity": 100
        },
        {
          "pitch": 53,
          "onset": 12.5,
          "duration": 0.5,
          "velocity": 100
        },
        {
          "pitch": 57,
          "onset": 13.0,
          "duration": 0.5,
          "velocity": 100
        },
        {
          "pitch": 55,
          "onset": 14.0,
          "duration": 0.375,
          "velocity": 100
        },
        {
          "pitch": 49,
          "onset": 14.5,
          "duration": 0.375,
          "velocity": 100
        },
        {
          "pitch": 50,
          "onset": 15.0,
          "duration": 0.5,
          "velocity": 100
        },
        {
          "pitch": 53,
          "onset": 15.5,
          "duration": 0.25,
          "velocity": 100
        },
        {
          "pitch": 48,
          "onset": 15.75,
          "duration": 0.25,
          "velocity": 100
        },
        {
          "pitch": 46,
          "onset": 16.0,
          "duration": 0.25,
          "velocity": 100
        },
        {
          "pitch": 45,
          "onset": 16.25,
          "duration": 0.25,
          "velocity": 100
        },
        {
          "pitch": 51,
          "onset": 17.0,
          "duration": 0.375,
          "velocity": 100
        },
        {
          "pitch": 45,
          "onset": 17.5,
          "duration": 0.375,
          "velocity": 100
        },
        {
          "pitch": 46,
          "onset": 18.0,
          "duration": 0.5,
          "velocity": 100
        },
        {
          "pitch": 50,
          "onset": 18.5,
          "duration": 0.25,
          "velocity": 100
        },
        {
          "pitch": 45,
          "onset": 18.75,
          "duration": 0.25,
          "velocity": 100
        },
        {
          "pitch": 43,
          "onset": 19.0,
          "duration": 0.375,
          "velocity": 100
        },
        {
          "pitch": 49,
          "onset": 20.0,
          "duration": 0.375,
          "velocity": 100
        },
        {
          "pitch": 58,
          "onset": 20.5,
          "duration": 0.375,
          "velocity": 100
        },
        {
          "pitch": 57,
          "onset": 21.0,
          "duration": 0.5,
          "velocity": 100
        },
        {
          "pitch": 55,
          "onset": 21.5,
          "duration": 0.25,
          "velocity": 100
        },
        {
          "pitch": 53,
          "onset": 21.75,
          "duration": 0.25,
          "velocity": 100
        },
        {
          "pitch": 52,
          "onset": 22.0,
          "duration": 0.25,
          "velocity": 100
        },
        {
          "pitch": 50,
          "onset": 22.25,
          "duration": 0.25,
          "velocity": 100
        },
        {
          "pitch": 52,
          "onset": 22.5,
          "duration": 0.25,
          "velocity": 100
        },
        {
          "pitch": 53,
          "onset": 22.75,
          "duration": 0.25,
          "velocity": 100
        },
        {
          "pitch": 55,
          "onset": 23.0,
          "duration": 0.25,
          "velocity": 100
        },
        {
          "pitch": 52,
          "onset": 23.25,
          "duration": 0.25,
          "velocity": 100
        },
        {
          "pitch": 53,
          "onset": 23.5,
          "duration": 0.25,
          "velocity": 100
        },
        {
          "pitch": 50,
          "onset": 23.75,
          "duration": 0.25,
          "velocity": 100
        },
        {
          "pitch": 52,
          "onset": 24.0,
          "duration": 0.5,
          "velocity": 100
        },
        {
          "pitch": 45,
          "onset": 24.5,
          "duration": 0.375,
          "velocity": 100
        },
        {
          "pitch": 60,
          "onset": 25.0,
          "duration": 0.375,
          "velocity": 100
        },
        {
          "pitch": 60,
          "onset": 25.5,
          "duration": 0.25,
          "velocity": 100
        },
        {
          "pitch": 62,
          "onset": 25.75,
          "duration": 0.25,
          "velocity": 100
        },
        {
          "pitch": 63,
          "onset": 26.0,
          "duration": 0.25,
          "velocity": 100
        },
        {
          "pitch": 60,
          "onset": 26.25,
          "duration": 0.25,
          "velocity": 100
        },
        {
          "pitch": 62,
          "onset": 26.5,
          "duration": 0.25,
          "velocity": 100
        },
        {
          "pitch": 57,
          "onset": 26.75,
          "duration": 0.25,
          "velocity": 100
        },
        {
          "pitch": 58,
          "onset": 27.0,
          "duration": 1.0,
          "velocity": 100
        },
        {
          "pitch": 58,
          "onset": 28.0,
          "duration": 0.5,
          "velocity": 100
        },
        {
          "pitch": 58,
          "onset": 28.5,
          "duration": 0.25,
          "velocity": 100
        },
        {
          "pitch": 60,
          "onset": 28.75,
          "duration": 0.25,
          "velocity": 100
        },
        {
          "pitch": 62,
          "onset": 29.0,
          "duration": 0.25,
          "velocity": 100
        },
        {
          "pitch": 58,
          "onset": 29.25,
          "duration": 0.25,
          "velocity": 100
        },
        {
          "pitch": 60,
          "onset": 29.5,
          "duration": 0.25,
          "velocity": 100
        },
        {
          "pitch": 55,
          "onset": 29.75,
          "duration": 0.25,
          "velocity": 100
        },
        {
          "pitch": 57,
          "onset": 30.0,
          "duration": 1.0,
          "velocity": 100
        },
        {
          "pitch": 57,
          "onset": 31.0,
          "duration": 0.5,
          "velocity": 100
        },
        {
          "pitch": 59,
          "onset": 31.5,
          "duration": 0.25,
          "velocity": 100
        },
        {
          "pitch": 60,
          "onset": 31.75,
          "duration": 0.25,
          "velocity": 100
        },
        {
          "pitch": 62,
          "onset": 32.0,
          "duration": 0.25,
          "velocity": 100
        },
        {
          "pitch": 59,
          "onset": 32.25,
          "duration": 0.25,
          "velocity": 100
        },
        {
          "pitch": 60,
          "onset": 32.5,
          "duration": 0.25,
          "velocity": 100
        },
        {
          "pitch": 57,
          "onset": 32.75,
          "duration": 0.25,
          "velocity": 100
        },
        {
          "pitch": 62,
          "onset": 33.0,
          "duration": 0.25,
          "velocity": 100
        },
        {
          "pitch": 64,
          "onset": 33.25,
          "duration": 0.25,
          "velocity": 100
        },
        {
          "pitch": 65,
          "onset": 33.5,
          "duration": 0.25,
          "velocity": 100
        },
        {
          "pitch": 62,
          "onset": 33.75,
          "duration": 0.25,
          "velocity": 100
        },
        {
          "pitch": 64,
          "onset": 34.0,
          "duration": 0.25,
          "velocity": 100
        },
        {
          "pitch": 60,
          "onset": 34.25,
          "duration": 0.25,
          "velocity": 100
        },
        {
          "pitch": 59,
          "onset": 34.5,
          "duration": 0.25,
          "velocity": 100
        },
        {
          "pitch": 60,
          "onset": 34.75,
          "duration": 0.25,
          "velocity": 100
        },
        {
          "pitch": 62,
          "onset": 35.0,
          "duration": 0.25,
          "velocity": 100
        },
        {
          "pitch": 59,
          "onset": 35.25,
          "duration": 0.25,
          "velocity": 100
        },
        {
          "pitch": 60,
          "onset": 35.5,
          "duration": 0.25,
          "velocity": 100
        },
        {
          "pitch": 57,
          "onset": 35.75,
          "duration": 0.25,
          "velocity": 100
        },
        {
          "pitch": 64,
          "onset": 36.0,
          "duration": 1.0,
          "velocity": 100
        },
        {
          "pitch": 56,
          "onset": 37.0,
          "duration": 0.5,
          "velocity": 100
        },
        {
          "pitch": 57,
          "onset": 37.5938,
          "duration": 0.1562,
          "velocity": 100
        },
        {
          "pitch": 59,
          "onset": 37.75,
          "duration": 0.25,
          "velocity": 100
        },
        {
          "pitch": 60,
          "onset": 38.0,
          "duration": 0.25,
          "velocity": 100
        },
        {
          "pitch": 57,
          "onset": 38.25,
          "duration": 0.25,
          "velocity": 100
        },
        {
          "pitch": 62,
          "onset": 38.5,
          "duration": 0.25,
          "velocity": 100
        },
        {
          "pitch": 59,
          "onset": 38.75,
          "duration": 0.25,
          "velocity": 100
        },
        {
          "pitch": 57,
          "onset": 39.0,
          "duration": 0.25,
          "velocity": 100
        },
        {
          "pitch": 59,
          "onset": 39.25,
          "duration": 0.25,
          "velocity": 100
        },
        {
          "pitch": 60,
          "onset": 39.5,
          "duration": 0.25,
          "velocity": 100
        },
        {
          "pitch": 57,
          "onset": 39.75,
          "duration": 0.25,
          "velocity": 100
        },
        {
          "pitch": 62,
          "onset": 40.0,
          "duration": 0.25,
          "velocity": 100
        },
        {
          "pitch": 59,
          "onset": 40.25,
          "duration": 0.25,
          "velocity": 100
        },
        {
          "pitch": 57,
          "onset": 40.5,
          "duration": 0.25,
          "velocity": 100
        },
        {
          "pitch": 59,
          "onset": 40.75,
          "duration": 0.25,
          "velocity": 100
        },
        {
          "pitch": 60,
          "onset": 41.0,
          "duration": 0.25,
          "velocity": 100
        },
        {
          "pitch": 57,
          "onset": 41.25,
          "duration": 0.25,
          "velocity": 100
        },
        {
          "pitch": 62,
          "onset": 41.5,
          "duration": 0.25,
          "velocity": 100
        },
        {
          "pitch": 59,
          "onset": 41.75,
          "duration": 0.25,
          "velocity": 100
        },
        {
          "pitch": 57,
          "onset": 42.0,
          "duration": 0.25,
          "velocity": 100
        },
        {
          "pitch": 59,
          "onset": 42.25,
          "duration": 0.25,
          "velocity": 100
        },
        {
          "pitch": 60,
          "onset": 42.5,
          "duration": 0.25,
          "velocity": 100
        },
        {
          "pitch": 57,
          "onset": 42.75,
          "duration": 0.25,
          "velocity": 100
        },
        {
          "pitch": 62,
          "onset": 43.0,
          "duration": 0.25,
          "velocity": 100
        },
        {
          "pitch": 64,
          "onset": 43.25,
          "duration": 0.25,
          "velocity": 100
        },
        {
          "pitch": 65,
          "onset": 43.5,
          "duration": 0.5,
          "velocity": 100
        },
        {
          "pitch": 64,
          "onset": 44.0,
          "duration": 0.25,
          "velocity": 100
        },
        {
          "pitch": 62,
          "onset": 44.25,
          "duration": 0.25,
          "velocity": 100
        },
        {
          "pitch": 60,
          "onset": 44.5,
          "duration": 0.25,
          "velocity": 100
        },
        {
          "pitch": 59,
          "onset": 44.75,
          "duration": 0.25,
          "velocity": 100
        },
        {
          "pitch": 64,
          "onset": 45.25,
          "duration": 0.25,
          "velocity": 100
        },
        {
          "pitch": 62,
          "onset": 45.5,
          "duration": 0.25,
          "velocity": 100
        },
        {
          "pitch": 60,
          "onset": 45.75,
          "duration": 0.25,
          "velocity": 100
        },
        {
          "pitch": 59,
          "onset": 46.0,
          "duration": 0.25,
          "velocity": 100
        },
        {
          "pitch": 56,
          "onset": 46.25,
          "duration": 0.25,
          "velocity": 100
        },
        {
          "pitch": 57,
          "onset": 46.5,
          "duration": 0.25,
          "velocity": 100
        },
        {
          "pitch": 53,
          "onset": 46.75,
          "duration": 0.25,
          "velocity": 100
        },
        {
          "pitch": 52,
          "onset": 47.0,
          "duration": 0.25,
          "velocity": 100
        },
        {
          "pitch": 50,
          "onset": 47.25,
          "duration": 0.25,
          "velocity": 100
        },
        {
          "pitch": 52,
          "onset": 47.5,
          "duration": 0.25,
          "velocity": 100
        },
        {
          "pitch": 49,
          "onset": 47.75,
          "duration": 0.25,
          "velocity": 100
        },
        {
          "pitch": 45,
          "onset": 48.0,
          "duration": 1.0,
          "velocity": 100
        },
        {
          "pitch": 57,
          "onset": 49.0,
          "duration": 0.5,
          "velocity": 100
        },
        {
          "pitch": 50,
          "onset": 49.5,
          "duration": 1.0,
          "velocity": 100
        },
        {
          "pitch": 58,
          "onset": 50.5,
          "duration": 0.5,
          "velocity": 100
        },
        {
          "pitch": 49,
          "onset": 51.0,
          "duration": 1.0,
          "velocity": 100
        },
        {
          "pitch": 55,
          "onset": 52.0,
          "duration": 0.5,
          "velocity": 100
        },
        {
          "pitch": 53,
          "onset": 52.5,
          "duration": 0.25,
          "velocity": 100
        },
        {
          "pitch": 52,
          "onset": 52.75,
          "duration": 0.25,
          "velocity": 100
        },
        {
          "pitch": 53,
          "onset": 53.0,
          "duration": 0.25,
          "velocity": 100
        },
        {
          "pitch": 55,
          "onset": 53.25,
          "duration": 0.25,
          "velocity": 100
        },
        {
          "pitch": 57,
          "onset": 53.5,
          "duration": 0.5,
          "velocity": 100
        },
        {
          "pitch": 50,
          "onset": 54.0,
          "duration": 1.0,
          "velocity": 100
        },
        {
          "pitch": 62,
          "onset": 55.0,
          "duration": 0.5,
          "velocity": 100
        },
        {
          "pitch": 52,
          "onset": 55.5,
          "duration": 0.25,
          "velocity": 100
        },
        {
          "pitch": 53,
          "onset": 55.75,
          "duration": 0.25,
          "velocity": 100
        },
        {
          "pitch": 55,
          "onset": 56.0,
          "duration": 0.375,
          "velocity": 100
        },
        {
          "pitch": 58,
          "onset": 56.5,
          "duration": 0.375,
          "velocity": 100
        },
        {
          "pitch": 48,
          "onset": 57.0,
          "duration": 0.25,
          "velocity": 100
        },
        {
          "pitch": 50,
          "onset": 57.25,
          "duration": 0.25,
          "velocity": 100
        },
        {
          "pitch": 52,
          "onset": 57.5,
          "duration": 0.375,
          "velocity": 100
        },
        {
          "pitch": 60,
          "onset": 58.0,
          "duration": 0.375,
          "velocity": 100
        },
        {
          "pitch": 57,
          "onset": 58.5,
          "duration": 0.25,
          "velocity": 100
        },
        {
          "pitch": 55,
          "onset": 58.75,
          "duration": 0.25,
          "velocity": 100
        },
        {
          "pitch": 57,
          "onset": 59.0,
          "duration": 0.25,
          "velocity": 100
        },
        {
          "pitch": 58,
          "onset": 59.25,
          "duration": 0.25,
          "velocity": 100
        },
        {
          "pitch": 60,
          "onset": 59.5,
          "duration": 0.25,
          "velocity": 100
        },
        {
          "pitch": 57,
          "onset": 59.75,
          "duration": 0.25,
          "velocity": 100
        },
        {
          "pitch": 53,
          "onset": 60.0,
          "duration": 0.125,
          "velocity": 100
        },
        {
          "pitch": 55,
          "onset": 60.125,
          "duration": 0.125,
          "velocity": 100
        },
        {
          "pitch": 53,
          "onset": 60.25,
          "duration": 0.125,
          "velocity": 100
        },
        {
          "pitch": 55,
          "onset": 60.375,
          "duration": 0.125,
          "velocity": 100
        },
        {
          "pitch": 53,
          "onset": 60.5,
          "duration": 0.5,
          "velocity": 100
        },
        {
          "pitch": 57,
          "onset": 61.0,
          "duration": 0.5,
          "velocity": 100
        },
        {
          "pitch": 55,
          "onset": 62.0,
          "duration": 0.375,
          "velocity": 100
        },
        {
          "pitch": 49,
          "onset": 62.5,
          "duration": 0.375,
          "velocity": 100
        },
        {
          "pitch": 50,
          "onset": 63.0,
          "duration": 0.5,
          "velocity": 100
        },
        {
          "pitch": 53,
          "onset": 63.5,
          "duration": 0.25,
          "velocity": 100
        },
        {
          "pitch": 48,
          "onset": 63.75,
          "duration": 0.25,
          "velocity": 100
        },
        {
          "pitch": 46,
          "onset": 64.0,
          "duration": 0.25,
          "velocity": 100
        },
        {
          "pitch": 45,
          "onset": 64.25,
          "duration": 0.25,
          "velocity": 100
        },
        {
          "pitch": 51,
          "onset": 65.0,
          "duration": 0.375,
          "velocity": 100
        },
        {
          "pitch": 45,
          "onset": 65.5,
          "duration": 0.375,
          "velocity": 100
        },
        {
          "pitch": 46,
          "onset": 66.0,
          "duration": 0.5,
          "velocity": 100
        },
        {
          "pitch": 50,
          "onset": 66.5,
          "duration": 0.25,
          "velocity": 100
        },
        {
          "pitch": 45,
          "onset": 66.75,
          "duration": 0.25,
          "velocity": 100
        },
        {
          "pitch": 43,
          "onset": 67.0,
          "duration": 0.375,
          "velocity": 100
        },
        {
          "pitch": 49,
          "onset": 68.0,
          "duration": 0.375,
          "velocity": 100
        },
        {
          "pitch": 58,
          "onset": 68.5,
          "duration": 0.375,
          "velocity": 100
        },
        {
          "pitch": 57,
          "onset": 69.0,
          "duration": 0.5,
          "velocity": 100
        },
        {
          "pitch": 55,
          "onset": 69.5,
          "duration": 0.25,
          "velocity": 100
        },
        {
          "pitch": 53,
          "onset": 69.75,
          "duration": 0.25,
          "velocity": 100
        },
        {
          "pitch": 52,
          "onset": 70.0,
          "duration": 0.25,
          "velocity": 100
        },
        {
          "pitch": 50,
          "onset": 70.25,
          "duration": 0.25,
          "velocity": 100
        },
        {
          "pitch": 52,
          "onset": 70.5,
          "duration": 0.25,
          "velocity": 100
        },
        {
          "pitch": 53,
          "onset": 70.75,
          "duration": 0.25,
          "velocity": 100
        },
        {
          "pitch": 55,
          "onset": 71.0,
          "duration": 0.25,
          "velocity": 100
        },
        {
          "pitch": 52,
          "onset": 71.25,
          "duration": 0.25,
          "velocity": 100
        },
        {
          "pitch": 53,
          "onset": 71.5,
          "duration": 0.25,
          "velocity": 100
        },
        {
          "pitch": 50,
          "onset": 71.75,
          "duration": 0.25,
          "velocity": 100
        },
        {
          "pitch": 52,
          "onset": 72.0,
          "duration": 0.5,
          "velocity": 100
        },
        {
          "pitch": 45,
          "onset": 72.5,
          "duration": 0.375,
          "velocity": 100
        },
        {
          "pitch": 60,
          "onset": 73.0,
          "duration": 0.375,
          "velocity": 100
        },
        {
          "pitch": 60,
          "onset": 73.5,
          "duration": 0.25,
          "velocity": 100
        },
        {
          "pitch": 62,
          "onset": 73.75,
          "duration": 0.25,
          "velocity": 100
        },
        {
          "pitch": 63,
          "onset": 74.0,
          "duration": 0.25,
          "velocity": 100
        },
        {
          "pitch": 60,
          "onset": 74.25,
          "duration": 0.25,
          "velocity": 100
        },
        {
          "pitch": 62,
          "onset": 74.5,
          "duration": 0.25,
          "velocity": 100
        },
        {
          "pitch": 57,
          "onset": 74.75,
          "duration": 0.25,
          "velocity": 100
        },
        {
          "pitch": 58,
          "onset": 75.0,
          "duration": 1.0,
          "velocity": 100
        },
        {
          "pitch": 58,
          "onset": 76.0,
          "duration": 0.5,
          "velocity": 100
        },
        {
          "pitch": 58,
          "onset": 76.5,
          "duration": 0.25,
          "velocity": 100
        },
        {
          "pitch": 60,
          "onset": 76.75,
          "duration": 0.25,
          "velocity": 100
        },
        {
          "pitch": 62,
          "onset": 77.0,
          "duration": 0.25,
          "velocity": 100
        },
        {
          "pitch": 58,
          "onset": 77.25,
          "duration": 0.25,
          "velocity": 100
        },
        {
          "pitch": 60,
          "onset": 77.5,
          "duration": 0.25,
          "velocity": 100
        },
        {
          "pitch": 55,
          "onset": 77.75,
          "duration": 0.25,
          "velocity": 100
        },
        {
          "pitch": 57,
          "onset": 78.0,
          "duration": 1.0,
          "velocity": 100
        },
        {
          "pitch": 57,
          "onset": 79.0,
          "duration": 0.5,
          "velocity": 100
        },
        {
          "pitch": 59,
          "onset": 79.5,
          "duration": 0.25,
          "velocity": 100
        },
        {
          "pitch": 60,
          "onset": 79.75,
          "duration": 0.25,
          "velocity": 100
        },
        {
          "pitch": 62,
          "onset": 80.0,
          "duration": 0.25,
          "velocity": 100
        },
        {
          "pitch": 59,
          "onset": 80.25,
          "duration": 0.25,
          "velocity": 100
        },
        {
          "pitch": 60,
          "onset": 80.5,
          "duration": 0.25,
          "velocity": 100
        },
        {
          "pitch": 57,
          "onset": 80.75,
          "duration": 0.25,
          "velocity": 100
        },
        {
          "pitch": 62,
          "onset": 81.0,
          "duration": 0.25,
          "velocity": 100
        },
        {
          "pitch": 64,
          "onset": 81.25,
          "duration": 0.25,
          "velocity": 100
        },
        {
          "pitch": 65,
          "onset": 81.5,
          "duration": 0.25,
          "velocity": 100
        },
        {
          "pitch": 62,
          "onset": 81.75,
          "duration": 0.25,
          "velocity": 100
        },
        {
          "pitch": 64,
          "onset": 82.0,
          "duration": 0.25,
          "velocity": 100
        },
        {
          "pitch": 60,
          "onset": 82.25,
          "duration": 0.25,
          "velocity": 100
        },
        {
          "pitch": 59,
          "onset": 82.5,
          "duration": 0.25,
          "velocity": 100
        },
        {
          "pitch": 60,
          "onset": 82.75,
          "duration": 0.25,
          "velocity": 100
        },
        {
          "pitch": 62,
          "onset": 83.0,
          "duration": 0.25,
          "velocity": 100
        },
        {
          "pitch": 59,
          "onset": 83.25,
          "duration": 0.25,
          "velocity": 100
        },
        {
          "pitch": 60,
          "onset": 83.5,
          "duration": 0.25,
          "velocity": 100
        },
        {
          "pitch": 57,
          "onset": 83.75,
          "duration": 0.25,
          "velocity": 100
        },
        {
          "pitch": 64,
          "onset": 84.0,
          "duration": 1.0,
          "velocity": 100
        },
        {
          "pitch": 56,
          "onset": 85.0,
          "duration": 0.5,
          "velocity": 100
        },
        {
          "pitch": 57,
          "onset": 85.5,
          "duration": 0.25,
          "velocity": 100
        },
        {
          "pitch": 59,
          "onset": 85.75,
          "duration": 0.25,
          "velocity": 100
        },
        {
          "pitch": 60,
          "onset": 86.0,
          "duration": 0.25,
          "velocity": 100
        },
        {
          "pitch": 57,
          "onset": 86.25,
          "duration": 0.25,
          "velocity": 100
        },
        {
          "pitch": 62,
          "onset": 86.5,
          "duration": 0.25,
          "velocity": 100
        },
        {
          "pitch": 59,
          "onset": 86.75,
          "duration": 0.25,
          "velocity": 100
        },
        {
          "pitch": 57,
          "onset": 87.0,
          "duration": 0.25,
          "velocity": 100
        },
        {
          "pitch": 59,
          "onset": 87.25,
          "duration": 0.25,
          "velocity": 100
        },
        {
          "pitch": 60,
          "onset": 87.5,
          "duration": 0.25,
          "velocity": 100
        },
        {
          "pitch": 57,
          "onset": 87.75,
          "duration": 0.25,
          "velocity": 100
        },
        {
          "pitch": 62,
          "onset": 88.0,
          "duration": 0.25,
          "velocity": 100
        },
        {
          "pitch": 59,
          "onset": 88.25,
          "duration": 0.25,
          "velocity": 100
        },
        {
          "pitch": 57,
          "onset": 88.5,
          "duration": 0.25,
          "velocity": 100
        },
        {
          "pitch": 59,
          "onset": 88.75,
          "duration": 0.25,
          "velocity": 100
        },
        {
          "pitch": 60,
          "onset": 89.0,
          "duration": 0.25,
          "velocity": 100
        },
        {
          "pitch": 57,
          "onset": 89.25,
          "duration": 0.25,
          "velocity": 100
        },
        {
          "pitch": 62,
          "onset": 89.5,
          "duration": 0.25,
          "velocity": 100
        },
        {
          "pitch": 59,
          "onset": 89.75,
          "duration": 0.25,
          "velocity": 100
        },
        {
          "pitch": 57,
          "onset": 90.0,
          "duration": 0.25,
          "velocity": 100
        },
        {
          "pitch": 59,
          "onset": 90.25,
          "duration": 0.25,
          "velocity": 100
        },
        {
          "pitch": 60,
          "onset": 90.5,
          "duration": 0.25,
          "velocity": 100
        },
        {
          "pitch": 57,
          "onset": 90.75,
          "duration": 0.25,
          "velocity": 100
        },
        {
          "pitch": 62,
          "onset": 91.0,
          "duration": 0.25,
          "velocity": 100
        },
        {
          "pitch": 64,
          "onset": 91.25,
          "duration": 0.25,
          "velocity": 100
        },
        {
          "pitch": 65,
          "onset": 91.5,
          "duration": 0.5,
          "velocity": 100
        },
        {
          "pitch": 64,
          "onset": 92.0,
          "duration": 0.25,
          "velocity": 100
        },
        {
          "pitch": 62,
          "onset": 92.25,
          "duration": 0.25,
          "velocity": 100
        },
        {
          "pitch": 60,
          "onset": 92.5,
          "duration": 0.25,
          "velocity": 100
        },
        {
          "pitch": 59,
          "onset": 92.75,
          "duration": 0.25,
          "velocity": 100
        },
        {
          "pitch": 64,
          "onset": 93.25,
          "duration": 0.25,
          "velocity": 100
        },
        {
          "pitch": 62,
          "onset": 93.5,
          "duration": 0.25,
          "velocity": 100
        },
        {
          "pitch": 60,
          "onset": 93.75,
          "duration": 0.25,
          "velocity": 100
        },
        {
          "pitch": 59,
          "onset": 94.0,
          "duration": 0.25,
          "velocity": 100
        },
        {
          "pitch": 56,
          "onset": 94.25,
          "duration": 0.25,
          "velocity": 100
        },
        {
          "pitch": 57,
          "onset": 94.5,
          "duration": 0.25,
          "velocity": 100
        },
        {
          "pitch": 53,
          "onset": 94.75,
          "duration": 0.25,
          "velocity": 100
        },
        {
          "pitch": 52,
          "onset": 95.0,
          "duration": 0.25,
          "velocity": 100
        },
        {
          "pitch": 50,
          "onset": 95.25,
          "duration": 0.25,
          "velocity": 100
        },
        {
          "pitch": 52,
          "onset": 95.5,
          "duration": 0.25,
          "velocity": 100
        },
        {
          "pitch": 49,
          "onset": 95.75,
          "duration": 0.25,
          "velocity": 100
        },
        {
          "pitch": 45,
          "onset": 96.0,
          "duration": 0.875,
          "velocity": 100
        },
        {
          "pitch": 60,
          "onset": 97.0,
          "duration": 0.375,
          "velocity": 100
        },
        {
          "pitch": 62,
          "onset": 98.5,
          "duration": 0.375,
          "velocity": 100
        },
        {
          "pitch": 58,
          "onset": 100.0,
          "duration": 0.375,
          "velocity": 100
        },
        {
          "pitch": 57,
          "onset": 100.5,
          "duration": 0.25,
          "velocity": 100
        },
        {
          "pitch": 55,
          "onset": 100.75,
          "duration": 0.25,
          "velocity": 100
        },
        {
          "pitch": 57,
          "onset": 101.0,
          "duration": 0.25,
          "velocity": 100
        },
        {
          "pitch": 58,
          "onset": 101.25,
          "duration": 0.25,
          "velocity": 100
        },
        {
          "pitch": 60,
          "onset": 101.5,
          "duration": 0.375,
          "velocity": 100
        },
        {
          "pitch": 57,
          "onset": 103.0,
          "duration": 0.375,
          "velocity": 100
        },
        {
          "pitch": 50,
          "onset": 103.5,
          "duration": 0.25,
          "velocity": 100
        },
        {
          "pitch": 52,
          "onset": 103.75,
          "duration": 0.25,
          "velocity": 100
        },
        {
          "pitch": 53,
          "onset": 104.0,
          "duration": 0.25,
          "velocity": 100
        },
        {
          "pitch": 50,
          "onset": 104.25,
          "duration": 0.25,
          "velocity": 100
        },
        {
          "pitch": 48,
          "onset": 104.5,
          "duration": 0.25,
          "velocity": 100
        },
        {
          "pitch": 47,
          "onset": 104.75,
          "duration": 0.25,
          "velocity": 100
        },
        {
          "pitch": 55,
          "onset": 105.0,
          "duration": 0.25,
          "velocity": 100
        },
        {
          "pitch": 57,
          "onset": 105.25,
          "duration": 0.25,
          "velocity": 100
        },
        {
          "pitch": 55,
          "onset": 105.5,
          "duration": 0.25,
          "velocity": 100
        },
        {
          "pitch": 53,
          "onset": 105.75,
          "duration": 0.25,
          "velocity": 100
        },
        {
          "pitch": 52,
          "onset": 106.0,
          "duration": 0.25,
          "velocity": 100
        },
        {
          "pitch": 50,
          "onset": 106.25,
          "duration": 0.25,
          "velocity": 100
        },
        {
          "pitch": 52,
          "onset": 106.5,
          "duration": 0.25,
          "velocity": 100
        },
        {
          "pitch": 50,
          "onset": 106.75,
          "duration": 0.25,
          "velocity": 100
        },
        {
          "pitch": 52,
          "onset": 107.0,
          "duration": 0.25,
          "velocity": 100
        },
        {
          "pitch": 53,
          "onset": 107.25,
          "duration": 0.25,
          "velocity": 100
        },
        {
          "pitch": 55,
          "onset": 107.5,
          "duration": 0.25,
          "velocity": 100
        },
        {
          "pitch": 52,
          "onset": 107.75,
          "duration": 0.25,
          "velocity": 100
        },
        {
          "pitch": 52,
          "onset": 109.0,
          "duration": 0.375,
          "velocity": 100
        },
        {
          "pitch": 54,
          "onset": 109.5,
          "duration": 0.25,
          "velocity": 100
        },
        {
          "pitch": 55,
          "onset": 109.75,
          "duration": 0.25,
          "velocity": 100
        },
        {
          "pitch": 57,
          "onset": 110.0,
          "duration": 0.25,
          "velocity": 100
        },
        {
          "pitch": 48,
          "onset": 110.25,
          "duration": 0.25,
          "velocity": 100
        },
        {
          "pitch": 46,
          "onset": 110.5,
          "duration": 0.25,
          "velocity": 100
        },
        {
          "pitch": 45,
          "onset": 110.75,
          "duration": 0.25,
          "velocity": 100
        },
        {
          "pitch": 50,
          "onset": 111.25,
          "duration": 0.25,
          "velocity": 100
        },
        {
          "pitch": 55,
          "onset": 111.5,
          "duration": 0.25,
          "velocity": 100
        },
        {
          "pitch": 46,
          "onset": 111.75,
          "duration": 0.25,
          "velocity": 100
        },
        {
          "pitch": 45,
          "onset": 112.0,
          "duration": 0.25,
          "velocity": 100
        },
        {
          "pitch": 43,
          "onset": 112.25,
          "duration": 0.25,
          "velocity": 100
        },
        {
          "pitch": 45,
          "onset": 112.75,
          "duration": 0.25,
          "velocity": 100
        },
        {
          "pitch": 48,
          "onset": 113.0,
          "duration": 0.25,
          "velocity": 100
        },
        {
          "pitch": 51,
          "onset": 113.25,
          "duration": 0.25,
          "velocity": 100
        },
        {
          "pitch": 50,
          "onset": 113.5,
          "duration": 0.25,
          "velocity": 100
        },
        {
          "pitch": 48,
          "onset": 113.75,
          "duration": 0.25,
          "velocity": 100
        },
        {
          "pitch": 46,
          "onset": 114.0,
          "duration": 0.25,
          "velocity": 100
        },
        {
          "pitch": 45,
          "onset": 114.25,
          "duration": 0.25,
          "velocity": 100
        },
        {
          "pitch": 46,
          "onset": 114.5,
          "duration": 0.25,
          "velocity": 100
        },
        {
          "pitch": 50,
          "onset": 114.75,
          "duration": 0.25,
          "velocity": 100
        },
        {
          "pitch": 55,
          "onset": 115.0,
          "duration": 0.25,
          "velocity": 100
        },
        {
          "pitch": 58,
          "onset": 115.25,
          "duration": 0.25,
          "velocity": 100
        },
        {
          "pitch": 56,
          "onset": 115.5,
          "duration": 0.25,
          "velocity": 100
        },
        {
          "pitch": 55,
          "onset": 115.75,
          "duration": 0.25,
          "velocity": 100
        },
        {
          "pitch": 56,
          "onset": 116.0,
          "duration": 0.25,
          "velocity": 100
        },
        {
          "pitch": 54,
          "onset": 116.25,
          "duration": 0.25,
          "velocity": 100
        },
        {
          "pitch": 55,
          "onset": 116.5,
          "duration": 0.25,
          "velocity": 100
        },
        {
          "pitch": 63,
          "onset": 116.75,
          "duration": 0.375,
          "velocity": 100
        },
        {
          "pitch": 55,
          "onset": 117.5,
          "duration": 0.375,
          "velocity": 100
        },
        {
          "pitch": 54,
          "onset": 118.0,
          "duration": 0.375,
          "velocity": 100
        },
        {
          "pitch": 55,
          "onset": 118.5,
          "duration": 0.25,
          "velocity": 100
        },
        {
          "pitch": 51,
          "onset": 118.75,
          "duration": 0.25,
          "velocity": 100
        },
        {
          "pitch": 50,
          "onset": 119.0,
          "duration": 0.25,
          "velocity": 100
        },
        {
          "pitch": 48,
          "onset": 119.25,
          "duration": 0.25,
          "velocity": 100
        },
        {
          "pitch": 50,
          "onset": 119.5,
          "duration": 0.25,
          "velocity": 100
        },
        {
          "pitch": 46,
          "onset": 119.75,
          "duration": 0.375,
          "velocity": 100
        },
        {
          "pitch": 58,
          "onset": 121.0,
          "duration": 0.5,
          "velocity": 100
        },
        {
          "pitch": 58,
          "onset": 121.5,
          "duration": 1.0,
          "velocity": 100
        },
        {
          "pitch": 50,
          "onset": 123.25,
          "duration": 0.25,
          "velocity": 100
        },
        {
          "pitch": 52,
          "onset": 123.5,
          "duration": 0.25,
          "velocity": 100
        },
        {
          "pitch": 48,
          "onset": 123.75,
          "duration": 0.25,
          "velocity": 100
        },
        {
          "pitch": 50,
          "onset": 124.0,
          "duration": 0.25,
          "velocity": 100
        },
        {
          "pitch": 46,
          "onset": 124.25,
          "duration": 0.25,
          "velocity": 100
        },
        {
          "pitch": 45,
          "onset": 124.5,
          "duration": 0.25,
          "velocity": 100
        },
        {
          "pitch": 46,
          "onset": 124.75,
          "duration": 0.25,
          "velocity": 100
        },
        {
          "pitch": 48,
          "onset": 125.0,
          "duration": 0.25,
          "velocity": 100
        },
        {
          "pitch": 45,
          "onset": 125.25,
          "duration": 0.25,
          "velocity": 100
        },
        {
          "pitch": 46,
          "onset": 125.5,
          "duration": 0.25,
          "velocity": 100
        },
        {
          "pitch": 43,
          "onset": 125.75,
          "duration": 0.25,
          "velocity": 100
        },
        {
          "pitch": 57,
          "onset": 127.0,
          "duration": 0.375,
          "velocity": 100
        },
        {
          "pitch": 57,
          "onset": 127.5,
          "duration": 1.0,
          "velocity": 100
        },
        {
          "pitch": 48,
          "onset": 129.25,
          "duration": 0.25,
          "velocity": 100
        },
        {
          "pitch": 50,
          "onset": 129.5,
          "duration": 0.25,
          "velocity": 100
        },
        {
          "pitch": 46,
          "onset": 129.75,
          "duration": 0.25,
          "velocity": 100
        },
        {
          "pitch": 48,
          "onset": 130.0,
          "duration": 0.25,
          "velocity": 100
        },
        {
          "pitch": 45,
          "onset": 130.25,
          "duration": 0.25,
          "velocity": 100
        },
        {
          "pitch": 43,
          "onset": 130.5,
          "duration": 0.25,
          "velocity": 100
        },
        {
          "pitch": 45,
          "onset": 130.75,
          "duration": 0.25,
          "velocity": 100
        },
        {
          "pitch": 46,
          "onset": 131.0,
          "duration": 0.25,
          "velocity": 100
        },
        {
          "pitch": 43,
          "onset": 131.25,
          "duration": 0.25,
          "velocity": 100
        },
        {
          "pitch": 45,
          "onset": 131.5,
          "duration": 0.25,
          "velocity": 100
        },
        {
          "pitch": 41,
          "onset": 131.75,
          "duration": 0.375,
          "velocity": 100
        },
        {
          "pitch": 55,
          "onset": 133.0,
          "duration": 0.375,
          "velocity": 100
        },
        {
          "pitch": 45,
          "onset": 133.5,
          "duration": 0.25,
          "velocity": 100
        },
        {
          "pitch": 47,
          "onset": 133.75,
          "duration": 0.25,
          "velocity": 100
        },
        {
          "pitch": 49,
          "onset": 134.0,
          "duration": 0.25,
          "velocity": 100
        },
        {
          "pitch": 50,
          "onset": 134.25,
          "duration": 0.25,
          "velocity": 100
        },
        {
          "pitch": 52,
          "onset": 134.5,
          "duration": 0.25,
          "velocity": 100
        },
        {
          "pitch": 55,
          "onset": 134.75,
          "duration": 0.25,
          "velocity": 100
        },
        {
          "pitch": 53,
          "onset": 135.0,
          "duration": 0.25,
          "velocity": 100
        },
        {
          "pitch": 55,
          "onset": 135.25,
          "duration": 0.25,
          "velocity": 100
        },
        {
          "pitch": 57,
          "onset": 135.5,
          "duration": 0.25,
          "velocity": 100
        },
        {
          "pitch": 61,
          "onset": 135.75,
          "duration": 0.25,
          "velocity": 100
        },
        {
          "pitch": 62,
          "onset": 136.0,
          "duration": 0.25,
          "velocity": 100
        },
        {
          "pitch": 53,
          "onset": 136.25,
          "duration": 0.25,
          "velocity": 100
        },
        {
          "pitch": 52,
          "onset": 136.5,
          "duration": 0.25,
          "velocity": 100
        },
        {
          "pitch": 53,
          "onset": 136.75,
          "duration": 0.25,
          "velocity": 100
        },
        {
          "pitch": 55,
          "onset": 137.0,
          "duration": 0.25,
          "velocity": 100
        },
        {
          "pitch": 57,
          "onset": 137.25,
          "duration": 0.25,
          "velocity": 100
        },
        {
          "pitch": 58,
          "onset": 137.5,
          "duration": 0.25,
          "velocity": 100
        },
        {
          "pitch": 50,
          "onset": 137.75,
          "duration": 0.25,
          "velocity": 100
        },
        {
          "pitch": 49,
          "onset": 138.0,
          "duration": 0.25,
          "velocity": 100
        },
        {
          "pitch": 50,
          "onset": 138.25,
          "duration": 0.25,
          "velocity": 100
        },
        {
          "pitch": 52,
          "onset": 138.5,
          "duration": 0.25,
          "velocity": 100
        },
        {
          "pitch": 45,
          "onset": 138.75,
          "duration": 0.25,
          "velocity": 100
        },
        {
          "pitch": 46,
          "onset": 139.0,
          "duration": 0.375,
          "velocity": 100
        },
        {
          "pitch": 50,
          "onset": 139.5625,
          "duration": 0.1875,
          "velocity": 100
        },
        {
          "pitch": 52,
          "onset": 139.75,
          "duration": 0.25,
          "velocity": 100
        },
        {
          "pitch": 53,
          "onset": 140.0,
          "duration": 0.25,
          "velocity": 100
        },
        {
          "pitch": 50,
          "onset": 140.25,
          "duration": 0.25,
          "velocity": 100
        },
        {
          "pitch": 55,
          "onset": 140.5,
          "duration": 0.25,
          "velocity": 100
        },
        {
          "pitch": 52,
          "onset": 140.75,
          "duration": 0.25,
          "velocity": 100
        },
        {
          "pitch": 50,
          "onset": 141.0,
          "duration": 0.25,
          "velocity": 100
        },
        {
          "pitch": 52,
          "onset": 141.25,
          "duration": 0.25,
          "velocity": 100
        },
        {
          "pitch": 53,
          "onset": 141.5,
          "duration": 0.25,
          "velocity": 100
        },
        {
          "pitch": 50,
          "onset": 141.75,
          "duration": 0.25,
          "velocity": 100
        },
        {
          "pitch": 55,
          "onset": 142.0,
          "duration": 0.25,
          "velocity": 100
        },
        {
          "pitch": 52,
          "onset": 142.25,
          "duration": 0.25,
          "velocity": 100
        },
        {
          "pitch": 50,
          "onset": 142.5,
          "duration": 0.25,
          "velocity": 100
        },
        {
          "pitch": 52,
          "onset": 142.75,
          "duration": 0.25,
          "velocity": 100
        },
        {
          "pitch": 53,
          "onset": 143.0,
          "duration": 0.25,
          "velocity": 100
        },
        {
          "pitch": 50,
          "onset": 143.25,
          "duration": 0.25,
          "velocity": 100
        },
        {
          "pitch": 55,
          "onset": 143.5,
          "duration": 0.25,
          "velocity": 100
        },
        {
          "pitch": 52,
          "onset": 143.75,
          "duration": 0.25,
          "velocity": 100
        },
        {
          "pitch": 50,
          "onset": 144.0,
          "duration": 0.25,
          "velocity": 100
        },
        {
          "pitch": 52,
          "onset": 144.25,
          "duration": 0.25,
          "velocity": 100
        },
        {
          "pitch": 53,
          "onset": 144.5,
          "duration": 0.25,
          "velocity": 100
        },
        {
          "pitch": 50,
          "onset": 144.75,
          "duration": 0.25,
          "velocity": 100
        },
        {
          "pitch": 55,
          "onset": 145.0,
          "duration": 0.25,
          "velocity": 100
        },
        {
          "pitch": 52,
          "onset": 145.25,
          "duration": 0.25,
          "velocity": 100
        },
        {
          "pitch": 58,
          "onset": 145.75,
          "duration": 0.25,
          "velocity": 100
        },
        {
          "pitch": 57,
          "onset": 146.0,
          "duration": 0.25,
          "velocity": 100
        },
        {
          "pitch": 55,
          "onset": 146.25,
          "duration": 0.25,
          "velocity": 100
        },
        {
          "pitch": 53,
          "onset": 146.5,
          "duration": 0.25,
          "velocity": 100
        },
        {
          "pitch": 52,
          "onset": 146.75,
          "duration": 0.375,
          "velocity": 100
        },
        {
          "pitch": 57,
          "onset": 147.25,
          "duration": 0.25,
          "velocity": 100
        },
        {
          "pitch": 55,
          "onset": 147.5,
          "duration": 0.25,
          "velocity": 100
        },
        {
          "pitch": 53,
          "onset": 147.75,
          "duration": 0.25,
          "velocity": 100
        },
        {
          "pitch": 52,
          "onset": 148.0,
          "duration": 0.25,
          "velocity": 100
        },
        {
          "pitch": 49,
          "onset": 148.25,
          "duration": 0.25,
          "velocity": 100
        },
        {
          "pitch": 50,
          "onset": 148.5,
          "duration": 0.25,
          "velocity": 100
        },
        {
          "pitch": 46,
          "onset": 148.75,
          "duration": 0.25,
          "velocity": 100
        },
        {
          "pitch": 45,
          "onset": 149.0,
          "duration": 0.25,
          "velocity": 100
        },
        {
          "pitch": 43,
          "onset": 149.25,
          "duration": 0.25,
          "velocity": 100
        },
        {
          "pitch": 45,
          "onset": 149.5,
          "duration": 0.375,
          "velocity": 100
        },
        {
          "pitch": 45,
          "onset": 150.25,
          "duration": 0.25,
          "velocity": 100
        },
        {
          "pitch": 50,
          "onset": 150.5,
          "duration": 0.25,
          "velocity": 100
        },
        {
          "pitch": 52,
          "onset": 150.75,
          "duration": 0.25,
          "velocity": 100
        },
        {
          "pitch": 53,
          "onset": 151.0,
          "duration": 0.25,
          "velocity": 100
        },
        {
          "pitch": 50,
          "onset": 151.25,
          "duration": 0.25,
          "velocity": 100
        },
        {
          "pitch": 51,
          "onset": 151.5,
          "duration": 0.25,
          "velocity": 100
        },
        {
          "pitch": 53,
          "onset": 151.75,
          "duration": 0.25,
          "velocity": 100
        },
        {
          "pitch": 55,
          "onset": 152.0,
          "duration": 0.25,
          "velocity": 100
        },
        {
          "pitch": 51,
          "onset": 152.25,
          "duration": 0.25,
          "velocity": 100
        },
        {
          "pitch": 53,
          "onset": 152.5,
          "duration": 0.25,
          "velocity": 100
        },
        {
          "pitch": 50,
          "onset": 152.75,
          "duration": 0.25,
          "velocity": 100
        },
        {
          "pitch": 55,
          "onset": 153.0,
          "duration": 0.25,
          "velocity": 100
        },
        {
          "pitch": 57,
          "onset": 153.25,
          "duration": 0.25,
          "velocity": 100
        },
        {
          "pitch": 58,
          "onset": 153.5,
          "duration": 0.25,
          "velocity": 100
        },
        {
          "pitch": 55,
          "onset": 153.75,
          "duration": 0.25,
          "velocity": 100
        },
        {
          "pitch": 57,
          "onset": 154.0,
          "duration": 0.25,
          "velocity": 100
        },
        {
          "pitch": 53,
          "onset": 154.25,
          "duration": 0.25,
          "velocity": 100
        },
        {
          "pitch": 51,
          "onset": 154.5,
          "duration": 0.25,
          "velocity": 100
        },
        {
          "pitch": 53,
          "onset": 154.75,
          "duration": 0.25,
          "velocity": 100
        },
        {
          "pitch": 55,
          "onset": 155.0,
          "duration": 0.25,
          "velocity": 100
        },
        {
          "pitch": 51,
          "onset": 155.25,
          "duration": 0.25,
          "velocity": 100
        },
        {
          "pitch": 53,
          "onset": 155.5,
          "duration": 0.25,
          "velocity": 100
        },
        {
          "pitch": 50,
          "onset": 155.75,
          "duration": 0.25,
          "velocity": 100
        },
        {
          "pitch": 52,
          "onset": 156.0,
          "duration": 1.0,
          "velocity": 100
        },
        {
          "pitch": 61,
          "onset": 156.25,
          "duration": 0.75,
          "velocity": 100
        },
        {
          "pitch": 62,
          "onset": 157.0,
          "duration": 0.25,
          "velocity": 100
        },
        {
          "pitch": 60,
          "onset": 157.25,
          "duration": 0.25,
          "velocity": 100
        },
        {
          "pitch": 58,
          "onset": 157.5,
          "duration": 0.25,
          "velocity": 100
        },
        {
          "pitch": 57,
          "onset": 157.75,
          "duration": 0.25,
          "velocity": 100
        },
        {
          "pitch": 55,
          "onset": 158.0,
          "duration": 0.25,
          "velocity": 100
        },
        {
          "pitch": 53,
          "onset": 158.25,
          "duration": 0.25,
          "velocity": 100
        },
        {
          "pitch": 52,
          "onset": 158.5,
          "duration": 0.25,
          "velocity": 100
        },
        {
          "pitch": 50,
          "onset": 158.75,
          "duration": 0.25,
          "velocity": 100
        },
        {
          "pitch": 49,
          "onset": 159.0,
          "duration": 0.25,
          "velocity": 100
        },
        {
          "pitch": 47,
          "onset": 159.25,
          "duration": 0.25,
          "velocity": 100
        },
        {
          "pitch": 45,
          "onset": 159.5,
          "duration": 0.25,
          "velocity": 100
        },
        {
          "pitch": 43,
          "onset": 159.75,
          "duration": 0.25,
          "velocity": 100
        },
        {
          "pitch": 41,
          "onset": 160.0,
          "duration": 0.25,
          "velocity": 100
        },
        {
          "pitch": 40,
          "onset": 160.25,
          "duration": 0.25,
          "velocity": 100
        },
        {
          "pitch": 41,
          "onset": 160.75,
          "duration": 0.25,
          "velocity": 100
        },
        {
          "pitch": 45,
          "onset": 161.0,
          "duration": 0.25,
          "velocity": 100
        },
        {
          "pitch": 50,
          "onset": 161.25,
          "duration": 0.25,
          "velocity": 100
        },
        {
          "pitch": 53,
          "onset": 161.5,
          "duration": 0.25,
          "velocity": 100
        },
        {
          "pitch": 57,
          "onset": 161.75,
          "duration": 0.25,
          "velocity": 100
        },
        {
          "pitch": 62,
          "onset": 162.0,
          "duration": 1.0,
          "velocity": 100
        },
        {
          "pitch": 60,
          "onset": 163.0,
          "duration": 0.375,
          "velocity": 100
        },
        {
          "pitch": 62,
          "onset": 164.5,
          "duration": 0.375,
          "velocity": 100
        },
        {
          "pitch": 58,
          "onset": 166.0,
          "duration": 0.375,
          "velocity": 100
        },
        {
          "pitch": 57,
          "onset": 166.5,
          "duration": 0.25,
          "velocity": 100
        },
        {
          "pitch": 55,
          "onset": 166.75,
          "duration": 0.25,
          "velocity": 100
        },
        {
          "pitch": 57,
          "onset": 167.0,
          "duration": 0.25,
          "velocity": 100
        },
        {
          "pitch": 58,
          "onset": 167.25,
          "duration": 0.25,
          "velocity": 100
        },
        {
          "pitch": 60,
          "onset": 167.5,
          "duration": 0.375,
          "velocity": 100
        },
        {
          "pitch": 57,
          "onset": 169.0,
          "duration": 0.375,
          "velocity": 100
        },
        {
          "pitch": 50,
          "onset": 169.5,
          "duration": 0.25,
          "velocity": 100
        },
        {
          "pitch": 52,
          "onset": 169.75,
          "duration": 0.25,
          "velocity": 100
        },
        {
          "pitch": 53,
          "onset": 170.0,
          "duration": 0.25,
          "velocity": 100
        },
        {
          "pitch": 50,
          "onset": 170.25,
          "duration": 0.25,
          "velocity": 100
        },
        {
          "pitch": 48,
          "onset": 170.5,
          "duration": 0.25,
          "velocity": 100
        },
        {
          "pitch": 47,
          "onset": 170.75,
          "duration": 0.25,
          "velocity": 100
        },
        {
          "pitch": 55,
          "onset": 171.0,
          "duration": 0.25,
          "velocity": 100
        },
        {
          "pitch": 57,
          "onset": 171.25,
          "duration": 0.25,
          "velocity": 100
        },
        {
          "pitch": 55,
          "onset": 171.5,
          "duration": 0.25,
          "velocity": 100
        },
        {
          "pitch": 53,
          "onset": 171.75,
          "duration": 0.25,
          "velocity": 100
        },
        {
          "pitch": 52,
          "onset": 172.0,
          "duration": 0.25,
          "velocity": 100
        },
        {
          "pitch": 50,
          "onset": 172.25,
          "duration": 0.25,
          "velocity": 100
        },
        {
          "pitch": 52,
          "onset": 172.5,
          "duration": 0.25,
          "velocity": 100
        },
        {
          "pitch": 50,
          "onset": 172.75,
          "duration": 0.25,
          "velocity": 100
        },
        {
          "pitch": 52,
          "onset": 173.0,
          "duration": 0.25,
          "velocity": 100
        },
        {
          "pitch": 53,
          "onset": 173.25,
          "duration": 0.25,
          "velocity": 100
        },
        {
          "pitch": 55,
          "onset": 173.5,
          "duration": 0.25,
          "velocity": 100
        },
        {
          "pitch": 52,
          "onset": 173.75,
          "duration": 0.25,
          "velocity": 100
        },
        {
          "pitch": 52,
          "onset": 175.0,
          "duration": 0.375,
          "velocity": 100
        },
        {
          "pitch": 54,
          "onset": 175.5,
          "duration": 0.25,
          "velocity": 100
        },
        {
          "pitch": 55,
          "onset": 175.75,
          "duration": 0.25,
          "velocity": 100
        },
        {
          "pitch": 57,
          "onset": 176.0,
          "duration": 0.25,
          "velocity": 100
        },
        {
          "pitch": 48,
          "onset": 176.25,
          "duration": 0.25,
          "velocity": 100
        },
        {
          "pitch": 46,
          "onset": 176.5,
          "duration": 0.25,
          "velocity": 100
        },
        {
          "pitch": 45,
          "onset": 176.75,
          "duration": 0.25,
          "velocity": 100
        },
        {
          "pitch": 50,
          "onset": 177.25,
          "duration": 0.25,
          "velocity": 100
        },
        {
          "pitch": 55,
          "onset": 177.5,
          "duration": 0.25,
          "velocity": 100
        },
        {
          "pitch": 46,
          "onset": 177.75,
          "duration": 0.25,
          "velocity": 100
        },
        {
          "pitch": 45,
          "onset": 178.0,
          "duration": 0.25,
          "velocity": 100
        },
        {
          "pitch": 43,
          "onset": 178.25,
          "duration": 0.25,
          "velocity": 100
        },
        {
          "pitch": 45,
          "onset": 178.75,
          "duration": 0.25,
          "velocity": 100
        },
        {
          "pitch": 48,
          "onset": 179.0,
          "duration": 0.25,
          "velocity": 100
        },
        {
          "pitch": 51,
          "onset": 179.25,
          "duration": 0.25,
          "velocity": 100
        },
        {
          "pitch": 50,
          "onset": 179.5,
          "duration": 0.25,
          "velocity": 100
        },
        {
          "pitch": 48,
          "onset": 179.75,
          "duration": 0.25,
          "velocity": 100
        },
        {
          "pitch": 46,
          "onset": 180.0,
          "duration": 0.25,
          "velocity": 100
        },
        {
          "pitch": 45,
          "onset": 180.25,
          "duration": 0.25,
          "velocity": 100
        },
        {
          "pitch": 46,
          "onset": 180.5,
          "duration": 0.25,
          "velocity": 100
        },
        {
          "pitch": 50,
          "onset": 180.75,
          "duration": 0.25,
          "velocity": 100
        },
        {
          "pitch": 55,
          "onset": 181.0,
          "duration": 0.25,
          "velocity": 100
        },
        {
          "pitch": 58,
          "onset": 181.25,
          "duration": 0.25,
          "velocity": 100
        },
        {
          "pitch": 56,
          "onset": 181.5,
          "duration": 0.25,
          "velocity": 100
        },
        {
          "pitch": 55,
          "onset": 181.75,
          "duration": 0.25,
          "velocity": 100
        },
        {
          "pitch": 56,
          "onset": 182.0,
          "duration": 0.25,
          "velocity": 100
        },
        {
          "pitch": 54,
          "onset": 182.25,
          "duration": 0.25,
          "velocity": 100
        },
        {
          "pitch": 55,
          "onset": 182.5,
          "duration": 0.25,
          "velocity": 100
        },
        {
          "pitch": 63,
          "onset": 182.75,
          "duration": 0.375,
          "velocity": 100
        },
        {
          "pitch": 55,
          "onset": 183.5,
          "duration": 0.375,
          "velocity": 100
        },
        {
          "pitch": 54,
          "onset": 184.0,
          "duration": 0.375,
          "velocity": 100
        },
        {
          "pitch": 55,
          "onset": 184.5,
          "duration": 0.25,
          "velocity": 100
        },
        {
          "pitch": 51,
          "onset": 184.75,
          "duration": 0.25,
          "velocity": 100
        },
        {
          "pitch": 50,
          "onset": 185.0,
          "duration": 0.25,
          "velocity": 100
        },
        {
          "pitch": 48,
          "onset": 185.25,
          "duration": 0.25,
          "velocity": 100
        },
        {
          "pitch": 50,
          "onset": 185.5,
          "duration": 0.25,
          "velocity": 100
        },
        {
          "pitch": 46,
          "onset": 185.75,
          "duration": 0.375,
          "velocity": 100
        },
        {
          "pitch": 58,
          "onset": 187.0,
          "duration": 0.5,
          "velocity": 100
        },
        {
          "pitch": 58,
          "onset": 187.5,
          "duration": 1.0,
          "velocity": 100
        },
        {
          "pitch": 50,
          "onset": 189.25,
          "duration": 0.25,
          "velocity": 100
        },
        {
          "pitch": 52,
          "onset": 189.5,
          "duration": 0.25,
          "velocity": 100
        },
        {
          "pitch": 48,
          "onset": 189.75,
          "duration": 0.25,
          "velocity": 100
        },
        {
          "pitch": 50,
          "onset": 190.0,
          "duration": 0.25,
          "velocity": 100
        },
        {
          "pitch": 46,
          "onset": 190.25,
          "duration": 0.25,
          "velocity": 100
        },
        {
          "pitch": 45,
          "onset": 190.5,
          "duration": 0.25,
          "velocity": 100
        },
        {
          "pitch": 46,
          "onset": 190.75,
          "duration": 0.25,
          "velocity": 100
        },
        {
          "pitch": 48,
          "onset": 191.0,
          "duration": 0.25,
          "velocity": 100
        },
        {
          "pitch": 45,
          "onset": 191.25,
          "duration": 0.25,
          "velocity": 100
        },
        {
          "pitch": 46,
          "onset": 191.5,
          "duration": 0.25,
          "velocity": 100
        },
        {
          "pitch": 43,
          "onset": 191.75,
          "duration": 0.25,
          "velocity": 100
        },
        {
          "pitch": 57,
          "onset": 193.0,
          "duration": 0.375,
          "velocity": 100
        },
        {
          "pitch": 57,
          "onset": 193.5,
          "duration": 1.0,
          "velocity": 100
        },
        {
          "pitch": 48,
          "onset": 195.25,
          "duration": 0.25,
          "velocity": 100
        },
        {
          "pitch": 50,
          "onset": 195.5,
          "duration": 0.25,
          "velocity": 100
        },
        {
          "pitch": 46,
          "onset": 195.75,
          "duration": 0.25,
          "velocity": 100
        },
        {
          "pitch": 48,
          "onset": 196.0,
          "duration": 0.25,
          "velocity": 100
        },
        {
          "pitch": 45,
          "onset": 196.25,
          "duration": 0.25,
          "velocity": 100
        },
        {
          "pitch": 43,
          "onset": 196.5,
          "duration": 0.25,
          "velocity": 100
        },
        {
          "pitch": 45,
          "onset": 196.75,
          "duration": 0.25,
          "velocity": 100
        },
        {
          "pitch": 46,
          "onset": 197.0,
          "duration": 0.25,
          "velocity": 100
        },
        {
          "pitch": 43,
          "onset": 197.25,
          "duration": 0.25,
          "velocity": 100
        },
        {
          "pitch": 45,
          "onset": 197.5,
          "duration": 0.25,
          "velocity": 100
        },
        {
          "pitch": 41,
          "onset": 197.75,
          "duration": 0.375,
          "velocity": 100
        },
        {
          "pitch": 55,
          "onset": 199.0,
          "duration": 0.375,
          "velocity": 100
        },
        {
          "pitch": 45,
          "onset": 199.5,
          "duration": 0.25,
          "velocity": 100
        },
        {
          "pitch": 47,
          "onset": 199.75,
          "duration": 0.25,
          "velocity": 100
        },
        {
          "pitch": 49,
          "onset": 200.0,
          "duration": 0.25,
          "velocity": 100
        },
        {
          "pitch": 50,
          "onset": 200.25,
          "duration": 0.25,
          "velocity": 100
        },
        {
          "pitch": 52,
          "onset": 200.5,
          "duration": 0.25,
          "velocity": 100
        },
        {
          "pitch": 55,
          "onset": 200.75,
          "duration": 0.25,
          "velocity": 100
        },
        {
          "pitch": 53,
          "onset": 201.0,
          "duration": 0.25,
          "velocity": 100
        },
        {
          "pitch": 55,
          "onset": 201.25,
          "duration": 0.25,
          "velocity": 100
        },
        {
          "pitch": 57,
          "onset": 201.5,
          "duration": 0.25,
          "velocity": 100
        },
        {
          "pitch": 61,
          "onset": 201.75,
          "duration": 0.25,
          "velocity": 100
        },
        {
          "pitch": 62,
          "onset": 202.0,
          "duration": 0.25,
          "velocity": 100
        },
        {
          "pitch": 53,
          "onset": 202.25,
          "duration": 0.25,
          "velocity": 100
        },
        {
          "pitch": 52,
          "onset": 202.5,
          "duration": 0.25,
          "velocity": 100
        },
        {
          "pitch": 53,
          "onset": 202.75,
          "duration": 0.25,
          "velocity": 100
        },
        {
          "pitch": 55,
          "onset": 203.0,
          "duration": 0.25,
          "velocity": 100
        },
        {
          "pitch": 57,
          "onset": 203.25,
          "duration": 0.25,
          "velocity": 100
        },
        {
          "pitch": 58,
          "onset": 203.5,
          "duration": 0.25,
          "velocity": 100
        },
        {
          "pitch": 50,
          "onset": 203.75,
          "duration": 0.25,
          "velocity": 100
        },
        {
          "pitch": 49,
          "onset": 204.0,
          "duration": 0.25,
          "velocity": 100
        },
        {
          "pitch": 50,
          "onset": 204.25,
          "duration": 0.25,
          "velocity": 100
        },
        {
          "pitch": 52,
          "onset": 204.5,
          "duration": 0.25,
          "velocity": 100
        },
        {
          "pitch": 45,
          "onset": 204.75,
          "duration": 0.25,
          "velocity": 100
        },
        {
          "pitch": 46,
          "onset": 205.0,
          "duration": 0.375,
          "velocity": 100
        },
        {
          "pitch": 50,
          "onset": 205.5,
          "duration": 0.25,
          "velocity": 100
        },
        {
          "pitch": 52,
          "onset": 205.75,
          "duration": 0.25,
          "velocity": 100
        },
        {
          "pitch": 53,
          "onset": 206.0,
          "duration": 0.25,
          "velocity": 100
        },
        {
          "pitch": 50,
          "onset": 206.25,
          "duration": 0.25,
          "velocity": 100
        },
        {
          "pitch": 55,
          "onset": 206.5,
          "duration": 0.25,
          "velocity": 100
        },
        {
          "pitch": 52,
          "onset": 206.75,
          "duration": 0.25,
          "velocity": 100
        },
        {
          "pitch": 50,
          "onset": 207.0,
          "duration": 0.25,
          "velocity": 100
        },
        {
          "pitch": 52,
          "onset": 207.25,
          "duration": 0.25,
          "velocity": 100
        },
        {
          "pitch": 53,
          "onset": 207.5,
          "duration": 0.25,
          "velocity": 100
        },
        {
          "pitch": 50,
          "onset": 207.75,
          "duration": 0.25,
          "velocity": 100
        },
        {
          "pitch": 55,
          "onset": 208.0,
          "duration": 0.25,
          "velocity": 100
        },
        {
          "pitch": 52,
          "onset": 208.25,
          "duration": 0.25,
          "velocity": 100
        },
        {
          "pitch": 50,
          "onset": 208.5,
          "duration": 0.25,
          "velocity": 100
        },
        {
          "pitch": 52,
          "onset": 208.75,
          "duration": 0.25,
          "velocity": 100
        },
        {
          "pitch": 53,
          "onset": 209.0,
          "duration": 0.25,
          "velocity": 100
        },
        {
          "pitch": 50,
          "onset": 209.25,
          "duration": 0.25,
          "velocity": 100
        },
        {
          "pitch": 55,
          "onset": 209.5,
          "duration": 0.25,
          "velocity": 100
        },
        {
          "pitch": 52,
          "onset": 209.75,
          "duration": 0.25,
          "velocity": 100
        },
        {
          "pitch": 50,
          "onset": 210.0,
          "duration": 0.25,
          "velocity": 100
        },
        {
          "pitch": 52,
          "onset": 210.25,
          "duration": 0.25,
          "velocity": 100
        },
        {
          "pitch": 53,
          "onset": 210.5,
          "duration": 0.25,
          "velocity": 100
        },
        {
          "pitch": 50,
          "onset": 210.75,
          "duration": 0.25,
          "velocity": 100
        },
        {
          "pitch": 55,
          "onset": 211.0,
          "duration": 0.25,
          "velocity": 100
        },
        {
          "pitch": 52,
          "onset": 211.25,
          "duration": 0.25,
          "velocity": 100
        },
        {
          "pitch": 58,
          "onset": 211.75,
          "duration": 0.25,
          "velocity": 100
        },
        {
          "pitch": 57,
          "onset": 212.0,
          "duration": 0.25,
          "velocity": 100
        },
        {
          "pitch": 55,
          "onset": 212.25,
          "duration": 0.25,
          "velocity": 100
        },
        {
          "pitch": 53,
          "onset": 212.5,
          "duration": 0.25,
          "velocity": 100
        },
        {
          "pitch": 52,
          "onset": 212.75,
          "duration": 0.375,
          "velocity": 100
        },
        {
          "pitch": 57,
          "onset": 213.25,
          "duration": 0.25,
          "velocity": 100
        },
        {
          "pitch": 55,
          "onset": 213.5,
          "duration": 0.25,
          "velocity": 100
        },
        {
          "pitch": 53,
          "onset": 213.75,
          "duration": 0.25,
          "velocity": 100
        },
        {
          "pitch": 52,
          "onset": 214.0,
          "duration": 0.25,
          "velocity": 100
        },
        {
          "pitch": 49,
          "onset": 214.25,
          "duration": 0.25,
          "velocity": 100
        },
        {
          "pitch": 50,
          "onset": 214.5,
          "duration": 0.25,
          "velocity": 100
        },
        {
          "pitch": 46,
          "onset": 214.75,
          "duration": 0.25,
          "velocity": 100
        },
        {
          "pitch": 45,
          "onset": 215.0,
          "duration": 0.25,
          "velocity": 100
        },
        {
          "pitch": 43,
          "onset": 215.25,
          "duration": 0.25,
          "velocity": 100
        },
        {
          "pitch": 45,
          "onset": 215.5,
          "duration": 0.375,
          "velocity": 100
        },
        {
          "pitch": 45,
          "onset": 216.25,
          "duration": 0.25,
          "velocity": 100
        },
        {
          "pitch": 50,
          "onset": 216.5,
          "duration": 0.25,
          "velocity": 100
        },
        {
          "pitch": 52,
          "onset": 216.75,
          "duration": 0.25,
          "velocity": 100
        },
        {
          "pitch": 53,
          "onset": 217.0,
          "duration": 0.25,
          "velocity": 100
        },
        {
          "pitch": 50,
          "onset": 217.25,
          "duration": 0.25,
          "velocity": 100
        },
        {
          "pitch": 51,
          "onset": 217.5,
          "duration": 0.25,
          "velocity": 100
        },
        {
          "pitch": 53,
          "onset": 217.75,
          "duration": 0.25,
          "velocity": 100
        },
        {
          "pitch": 55,
          "onset": 218.0,
          "duration": 0.25,
          "velocity": 100
        },
        {
          "pitch": 51,
          "onset": 218.25,
          "duration": 0.25,
          "velocity": 100
        },
        {
          "pitch": 53,
          "onset": 218.5,
          "duration": 0.25,
          "velocity": 100
        },
        {
          "pitch": 50,
          "onset": 218.75,
          "duration": 0.25,
          "velocity": 100
        },
        {
          "pitch": 55,
          "onset": 219.0,
          "duration": 0.25,
          "velocity": 100
        },
        {
          "pitch": 57,
          "onset": 219.25,
          "duration": 0.25,
          "velocity": 100
        },
        {
          "pitch": 58,
          "onset": 219.5,
          "duration": 0.25,
          "velocity": 100
        },
        {
          "pitch": 55,
          "onset": 219.75,
          "duration": 0.25,
          "velocity": 100
        },
        {
          "pitch": 57,
          "onset": 220.0,
          "duration": 0.25,
          "velocity": 100
        },
        {
          "pitch": 53,
          "onset": 220.25,
          "duration": 0.25,
          "velocity": 100
        },
        {
          "pitch": 51,
          "onset": 220.5,
          "duration": 0.25,
          "velocity": 100
        },
        {
          "pitch": 53,
          "onset": 220.75,
          "duration": 0.25,
          "velocity": 100
        },
        {
          "pitch": 55,
          "onset": 221.0,
          "duration": 0.25,
          "velocity": 100
        },
        {
          "pitch": 51,
          "onset": 221.25,
          "duration": 0.25,
          "velocity": 100
        },
        {
          "pitch": 53,
          "onset": 221.5,
          "duration": 0.25,
          "velocity": 100
        },
        {
          "pitch": 50,
          "onset": 221.75,
          "duration": 0.25,
          "velocity": 100
        },
        {
          "pitch": 52,
          "onset": 222.0,
          "duration": 1.0,
          "velocity": 100
        },
        {
          "pitch": 61,
          "onset": 222.25,
          "duration": 0.75,
          "velocity": 100
        },
        {
          "pitch": 62,
          "onset": 223.0,
          "duration": 0.25,
          "velocity": 100
        },
        {
          "pitch": 60,
          "onset": 223.25,
          "duration": 0.25,
          "velocity": 100
        },
        {
          "pitch": 58,
          "onset": 223.5,
          "duration": 0.25,
          "velocity": 100
        },
        {
          "pitch": 57,
          "onset": 223.75,
          "duration": 0.25,
          "velocity": 100
        },
        {
          "pitch": 55,
          "onset": 224.0,
          "duration": 0.25,
          "velocity": 100
        },
        {
          "pitch": 53,
          "onset": 224.25,
          "duration": 0.25,
          "velocity": 100
        },
        {
          "pitch": 52,
          "onset": 224.5,
          "duration": 0.25,
          "velocity": 100
        },
        {
          "pitch": 50,
          "onset": 224.75,
          "duration": 0.25,
          "velocity": 100
        },
        {
          "pitch": 49,
          "onset": 225.0,
          "duration": 0.25,
          "velocity": 100
        },
        {
          "pitch": 47,
          "onset": 225.25,
          "duration": 0.25,
          "velocity": 100
        },
        {
          "pitch": 45,
          "onset": 225.5,
          "duration": 0.25,
          "velocity": 100
        },
        {
          "pitch": 43,
          "onset": 225.75,
          "duration": 0.25,
          "velocity": 100
        },
        {
          "pitch": 41,
          "onset": 226.0,
          "duration": 0.25,
          "velocity": 100
        },
        {
          "pitch": 40,
          "onset": 226.25,
          "duration": 0.25,
          "velocity": 100
        },
        {
          "pitch": 41,
          "onset": 226.75,
          "duration": 0.25,
          "velocity": 100
        },
        {
          "pitch": 45,
          "onset": 227.0,
          "duration": 0.25,
          "velocity": 100
        },
        {
          "pitch": 50,
          "onset": 227.25,
          "duration": 0.25,
          "velocity": 100
        },
        {
          "pitch": 53,
          "onset": 227.5,
          "duration": 0.25,
          "velocity": 100
        },
        {
          "pitch": 57,
          "onset": 227.75,
          "duration": 0.5,
          "velocity": 100
        },
        {
          "pitch": 62,
          "onset": 228.25,
          "duration": 2.75,
          "velocity": 100
        },
        {
          "pitch": 50,
          "onset": 234.25,
          "duration": 0.25,
          "velocity": 1
        }
      ]
    },
    {
      "role": "solo_1",
      "notes": [
        {
          "pitch": 50,
          "onset": 0.0,
          "duration": 0.25,
          "velocity": 1
        },
        {
          "pitch": 47,
          "onset": 13.5,
          "duration": 0.625,
          "velocity": 100
        },
        {
          "pitch": 43,
          "onset": 16.5,
          "duration": 0.625,
          "velocity": 100
        },
        {
          "pitch": 41,
          "onset": 19.25,
          "duration": 0.25,
          "velocity": 100
        },
        {
          "pitch": 40,
          "onset": 19.5,
          "duration": 0.625,
          "velocity": 100
        },
        {
          "pitch": 45,
          "onset": 22.5,
          "duration": 1.5,
          "velocity": 100
        },
        {
          "pitch": 50,
          "onset": 25.5,
          "duration": 1.5,
          "velocity": 100
        },
        {
          "pitch": 50,
          "onset": 27.0,
          "duration": 0.5,
          "velocity": 100
        },
        {
          "pitch": 43,
          "onset": 27.5,
          "duration": 0.375,
          "velocity": 100
        },
        {
          "pitch": 50,
          "onset": 28.0,
          "duration": 0.375,
          "velocity": 100
        },
        {
          "pitch": 52,
          "onset": 28.5,
          "duration": 1.5,
          "velocity": 100
        },
        {
          "pitch": 53,
          "onset": 30.0,
          "duration": 0.5,
          "velocity": 100
        },
        {
          "pitch": 41,
          "onset": 30.5,
          "duration": 0.375,
          "velocity": 100
        },
        {
          "pitch": 53,
          "onset": 31.0,
          "duration": 0.375,
          "velocity": 100
        },
        {
          "pitch": 50,
          "onset": 31.5,
          "duration": 0.5,
          "velocity": 100
        },
        {
          "pitch": 50,
          "onset": 32.0,
          "duration": 0.5,
          "velocity": 100
        },
        {
          "pitch": 50,
          "onset": 32.5,
          "duration": 0.5,
          "velocity": 100
        },
        {
          "pitch": 50,
          "onset": 33.0,
          "duration": 0.5,
          "velocity": 100
        },
        {
          "pitch": 50,
          "onset": 33.5,
          "duration": 0.5,
          "velocity": 100
        },
        {
          "pitch": 50,
          "onset": 34.0,
          "duration": 0.5,
          "velocity": 100
        },
        {
          "pitch": 50,
          "onset": 34.5,
          "duration": 0.5,
          "velocity": 100
        },
        {
          "pitch": 50,
          "onset": 35.0,
          "duration": 0.5,
          "velocity": 100
        },
        {
          "pitch": 50,
          "onset": 35.5,
          "duration": 0.5,
          "velocity": 100
        },
        {
          "pitch": 50,
          "onset": 36.0,
          "duration": 1.0,
          "velocity": 100
        },
        {
          "pitch": 48,
          "onset": 37.5,
          "duration": 0.25,
          "velocity": 100
        },
        {
          "pitch": 52,
          "onset": 37.5,
          "duration": 0.5,
          "velocity": 100
        },
        {
          "pitch": 50,
          "onset": 39.0,
          "duration": 0.5,
          "velocity": 100
        },
        {
          "pitch": 52,
          "onset": 40.5,
          "duration": 0.5,
          "velocity": 100
        },
        {
          "pitch": 53,
          "onset": 42.0,
          "duration": 0.5,
          "velocity": 100
        },
        {
          "pitch": 56,
          "onset": 43.5,
          "duration": 0.5,
          "velocity": 100
        },
        {
          "pitch": 36,
          "onset": 45.0,
          "duration": 0.375,
          "velocity": 100
        },
        {
          "pitch": 47,
          "onset": 61.5,
          "duration": 0.625,
          "velocity": 100
        },
        {
          "pitch": 43,
          "onset": 64.5,
          "duration": 0.625,
          "velocity": 100
        },
        {
          "pitch": 41,
          "onset": 67.25,
          "duration": 0.25,
          "velocity": 100
        },
        {
          "pitch": 40,
          "onset": 67.5,
          "duration": 0.625,
          "velocity": 100
        },
        {
          "pitch": 45,
          "onset": 70.5,
          "duration": 1.5,
          "velocity": 100
        },
        {
          "pitch": 50,
          "onset": 73.5,
          "duration": 1.5,
          "velocity": 100
        },
        {
          "pitch": 50,
          "onset": 75.0,
          "duration": 0.5,
          "velocity": 100
        },
        {
          "pitch": 43,
          "onset": 75.5,
          "duration": 0.375,
          "velocity": 100
        },
        {
          "pitch": 50,
          "onset": 76.0,
          "duration": 0.375,
          "velocity": 100
        },
        {
          "pitch": 52,
          "onset": 76.5,
          "duration": 1.5,
          "velocity": 100
        },
        {
          "pitch": 53,
          "onset": 78.0,
          "duration": 0.5,
          "velocity": 100
        },
        {
          "pitch": 41,
          "onset": 78.5,
          "duration": 0.375,
          "velocity": 100
        },
        {
          "pitch": 53,
          "onset": 79.0,
          "duration": 0.375,
          "velocity": 100
        },
        {
          "pitch": 50,
          "onset": 79.5,
          "duration": 0.5,
          "velocity": 100
        },
        {
          "pitch": 50,
          "onset": 80.0,
          "duration": 0.5,
          "velocity": 100
        },
        {
          "pitch": 50,
          "onset": 80.5,
          "duration": 0.5,
          "velocity": 100
        },
        {
          "pitch": 50,
          "onset": 81.0,
          "duration": 0.5,
          "velocity": 100
        },
        {
          "pitch": 50,
          "onset": 81.5,
          "duration": 0.5,
          "velocity": 100
        },
        {
          "pitch": 50,
          "onset": 82.0,
          "duration": 0.5,
          "velocity": 100
        },
        {
          "pitch": 50,
          "onset": 82.5,
          "duration": 0.5,
          "velocity": 100
        },
        {
          "pitch": 50,
          "onset": 83.0,
          "duration": 0.5,
          "velocity": 100
        },
        {
          "pitch": 50,
          "onset": 83.5,
          "duration": 0.5,
          "velocity": 100
        },
        {
          "pitch": 50,
          "onset": 84.0,
          "duration": 1.0,
          "velocity": 100
        },
        {
          "pitch": 48,
          "onset": 85.5,
          "duration": 0.5,
          "velocity": 100
        },
        {
          "pitch": 52,
          "onset": 85.5,
          "duration": 0.5,
          "velocity": 100
        },
        {
          "pitch": 50,
          "onset": 87.0,
          "duration": 0.5,
          "velocity": 100
        },
        {
          "pitch": 52,
          "onset": 88.5,
          "duration": 0.5,
          "velocity": 100
        },
        {
          "pitch": 53,
          "onset": 90.0,
          "duration": 0.5,
          "velocity": 100
        },
        {
          "pitch": 56,
          "onset": 91.5,
          "duration": 0.5,
          "velocity": 100
        },
        {
          "pitch": 36,
          "onset": 93.0,
          "duration": 0.375,
          "velocity": 100
        },
        {
          "pitch": 53,
          "onset": 97.5,
          "duration": 1.125,
          "velocity": 100
        },
        {
          "pitch": 52,
          "onset": 99.0,
          "duration": 1.125,
          "velocity": 100
        },
        {
          "pitch": 53,
          "onset": 102.0,
          "duration": 1.125,
          "velocity": 100
        },
        {
          "pitch": 48,
          "onset": 108.0,
          "duration": 1.125,
          "velocity": 100
        },
        {
          "pitch": 46,
          "onset": 111.0,
          "duration": 0.375,
          "velocity": 100
        },
        {
          "pitch": 42,
          "onset": 112.5,
          "duration": 0.375,
          "velocity": 100
        },
        {
          "pitch": 50,
          "onset": 117.0,
          "duration": 0.625,
          "velocity": 100
        },
        {
          "pitch": 43,
          "onset": 120.0,
          "duration": 1.125,
          "velocity": 100
        },
        {
          "pitch": 52,
          "onset": 121.5,
          "duration": 0.25,
          "velocity": 100
        },
        {
          "pitch": 53,
          "onset": 121.75,
          "duration": 0.25,
          "velocity": 100
        },
        {
          "pitch": 55,
          "onset": 122.0,
          "duration": 0.25,
          "velocity": 100
        },
        {
          "pitch": 52,
          "onset": 122.25,
          "duration": 0.25,
          "velocity": 100
        },
        {
          "pitch": 53,
          "onset": 122.5,
          "duration": 0.25,
          "velocity": 100
        },
        {
          "pitch": 50,
          "onset": 122.75,
          "duration": 0.375,
          "velocity": 100
        },
        {
          "pitch": 48,
          "onset": 123.0,
          "duration": 0.375,
          "velocity": 100
        },
        {
          "pitch": 41,
          "onset": 126.0,
          "duration": 1.125,
          "velocity": 100
        },
        {
          "pitch": 50,
          "onset": 127.5,
          "duration": 0.25,
          "velocity": 100
        },
        {
          "pitch": 52,
          "onset": 127.75,
          "duration": 0.25,
          "velocity": 100
        },
        {
          "pitch": 53,
          "onset": 128.0,
          "duration": 0.25,
          "velocity": 100
        },
        {
          "pitch": 50,
          "onset": 128.25,
          "duration": 0.25,
          "velocity": 100
        },
        {
          "pitch": 52,
          "onset": 128.5,
          "duration": 0.25,
          "velocity": 100
        },
        {
          "pitch": 48,
          "onset": 128.75,
          "duration": 0.25,
          "velocity": 100
        },
        {
          "pitch": 46,
          "onset": 129.0,
          "duration": 0.375,
          "velocity": 100
        },
        {
          "pitch": 40,
          "onset": 132.0,
          "duration": 1.125,
          "velocity": 100
        },
        {
          "pitch": 43,
          "onset": 139.25,
          "duration": 0.25,
          "velocity": 100
        },
        {
          "pitch": 41,
          "onset": 139.5,
          "duration": 0.5,
          "velocity": 100
        },
        {
          "pitch": 45,
          "onset": 139.5,
          "duration": 0.5,
          "velocity": 100
        },
        {
          "pitch": 43,
          "onset": 141.0,
          "duration": 0.5,
          "velocity": 100
        },
        {
          "pitch": 45,
          "onset": 142.5,
          "duration": 0.5,
          "velocity": 100
        },
        {
          "pitch": 46,
          "onset": 144.0,
          "duration": 0.5,
          "velocity": 100
        },
        {
          "pitch": 49,
          "onset": 145.5,
          "duration": 0.375,
          "velocity": 100
        },
        {
          "pitch": 41,
          "onset": 147.0,
          "duration": 0.375,
          "velocity": 100
        },
        {
          "pitch": 41,
          "onset": 149.75,
          "duration": 0.25,
          "velocity": 100
        },
        {
          "pitch": 38,
          "onset": 150.0,
          "duration": 0.375,
          "velocity": 100
        },
        {
          "pitch": 43,
          "onset": 151.5,
          "duration": 0.5,
          "velocity": 100
        },
        {
          "pitch": 43,
          "onset": 152.0,
          "duration": 0.5,
          "velocity": 100
        },
        {
          "pitch": 43,
          "onset": 152.5,
          "duration": 0.5,
          "velocity": 100
        },
        {
          "pitch": 43,
          "onset": 153.0,
          "duration": 0.5,
          "velocity": 100
        },
        {
          "pitch": 43,
          "onset": 153.5,
          "duration": 0.5,
          "velocity": 100
        },
        {
          "pitch": 43,
          "onset": 154.0,
          "duration": 0.5,
          "velocity": 100
        },
        {
          "pitch": 43,
          "onset": 154.5,
          "duration": 0.5,
          "velocity": 100
        },
        {
          "pitch": 43,
          "onset": 155.0,
          "duration": 0.5,
          "velocity": 100
        },
        {
          "pitch": 43,
          "onset": 155.5,
          "duration": 0.5,
          "velocity": 100
        },
        {
          "pitch": 43,
          "onset": 156.0,
          "duration": 0.5,
          "velocity": 100
        },
        {
          "pitch": 38,
          "onset": 160.5,
          "duration": 0.375,
          "velocity": 100
        },
        {
          "pitch": 53,
          "onset": 163.5,
          "duration": 1.125,
          "velocity": 100
        },
        {
          "pitch": 52,
          "onset": 165.0,
          "duration": 1.125,
          "velocity": 100
        },
        {
          "pitch": 53,
          "onset": 168.0,
          "duration": 1.125,
          "velocity": 100
        },
        {
          "pitch": 48,
          "onset": 174.0,
          "duration": 1.125,
          "velocity": 100
        },
        {
          "pitch": 46,
          "onset": 177.0,
          "duration": 0.375,
          "velocity": 100
        },
        {
          "pitch": 42,
          "onset": 178.5,
          "duration": 0.375,
          "velocity": 100
        },
        {
          "pitch": 50,
          "onset": 183.0,
          "duration": 0.625,
          "velocity": 100
        },
        {
          "pitch": 43,
          "onset": 186.0,
          "duration": 1.125,
          "velocity": 100
        },
        {
          "pitch": 52,
          "onset": 187.5,
          "duration": 0.25,
          "velocity": 100
        },
        {
          "pitch": 53,
          "onset": 187.75,
          "duration": 0.25,
          "velocity": 100
        },
        {
          "pitch": 55,
          "onset": 188.0,
          "duration": 0.25,
          "velocity": 100
        },
        {
          "pitch": 52,
          "onset": 188.25,
          "duration": 0.25,
          "velocity": 100
        },
        {
          "pitch": 53,
          "onset": 188.5,
          "duration": 0.25,
          "velocity": 100
        },
        {
          "pitch": 50,
          "onset": 188.75,
          "duration": 0.375,
          "velocity": 100
        },
        {
          "pitch": 48,
          "onset": 189.0,
          "duration": 0.375,
          "velocity": 100
        },
        {
          "pitch": 41,
          "onset": 192.0,
          "duration": 1.125,
          "velocity": 100
        },
        {
          "pitch": 50,
          "onset": 193.5,
          "duration": 0.25,
          "velocity": 100
        },
        {
          "pitch": 52,
          "onset": 193.75,
          "duration": 0.25,
          "velocity": 100
        },
        {
          "pitch": 53,
          "onset": 194.0,
          "duration": 0.25,
          "velocity": 100
        },
        {
          "pitch": 50,
          "onset": 194.25,
          "duration": 0.25,
          "velocity": 100
        },
        {
          "pitch": 52,
          "onset": 194.5,
          "duration": 0.25,
          "velocity": 100
        },
        {
          "pitch": 48,
          "onset": 194.75,
          "duration": 0.25,
          "velocity": 100
        },
        {
          "pitch": 46,
          "onset": 195.0,
          "duration": 0.375,
          "velocity": 100
        },
        {
          "pitch": 40,
          "onset": 198.0,
          "duration": 1.125,
          "velocity": 100
        },
        {
          "pitch": 43,
          "onset": 205.25,
          "duration": 0.25,
          "velocity": 100
        },
        {
          "pitch": 41,
          "onset": 205.5,
          "duration": 0.5,
          "velocity": 100
        },
        {
          "pitch": 45,
          "onset": 205.5,
          "duration": 0.5,
          "velocity": 100
        },
        {
          "pitch": 43,
          "onset": 207.0,
          "duration": 0.5,
          "velocity": 100
        },
        {
          "pitch": 45,
          "onset": 208.5,
          "duration": 0.5,
          "velocity": 100
        },
        {
          "pitch": 46,
          "onset": 210.0,
          "duration": 0.5,
          "velocity": 100
        },
        {
          "pitch": 49,
          "onset": 211.5,
          "duration": 0.375,
          "velocity": 100
        },
        {
          "pitch": 41,
          "onset": 213.0,
          "duration": 0.375,
          "velocity": 100
        },
        {
          "pitch": 41,
          "onset": 215.75,
          "duration": 0.25,
          "velocity": 100
        },
        {
          "pitch": 38,
          "onset": 216.0,
          "duration": 0.375,
          "velocity": 100
        },
        {
          "pitch": 43,
          "onset": 217.5,
          "duration": 0.5,
          "velocity": 100
        },
        {
          "pitch": 43,
          "onset": 218.0,
          "duration": 0.5,
          "velocity": 100
        },
        {
          "pitch": 43,
          "onset": 218.5,
          "duration": 0.5,
          "velocity": 100
        },
        {
          "pitch": 43,
          "onset": 219.0,
          "duration": 0.5,
          "velocity": 100
        },
        {
          "pitch": 43,
          "onset": 219.5,
          "duration": 0.5,
          "velocity": 100
        },
        {
          "pitch": 43,
          "onset": 220.0,
          "duration": 0.5,
          "velocity": 100
        },
        {
          "pitch": 43,
          "onset": 220.5,
          "duration": 0.5,
          "velocity": 100
        },
        {
          "pitch": 43,
          "onset": 221.0,
          "duration": 0.5,
          "velocity": 100
        },
        {
          "pitch": 43,
          "onset": 221.5,
          "duration": 0.5,
          "velocity": 100
        },
        {
          "pitch": 43,
          "onset": 222.0,
          "duration": 0.5,
          "velocity": 100
        },
        {
          "pitch": 38,
          "onset": 226.5,
          "duration": 0.375,
          "velocity": 100
        }
      ]
    }
  ]
}