{
  "bwv": 1007,
  "category": "solo_cello_suite",
  "instrument": "cello",
  "form": "",
  "movement": 4,
  "tonic": "G",
  "mode": "major",
  "confidence": "verified",
  "ticks_per_beat": 384,
  "duration_seconds": 127.7,
  "tempos": [
    {
      "tick": 0,
      "bpm": 50
    },
    {
      "tick": 8256,
      "bpm": 45
    },
    {
      "tick": 8352,
      "bpm": 45
    },
    {
      "tick": 8832,
      "bpm": 40
    },
    {
      "tick": 9216,
      "bpm": 50
    },
    {
      "tick": 17472,
      "bpm": 45
    },
    {
      "tick": 17568,
      "bpm": 45
    },
    {
      "tick": 18048,
      "bpm": 35
    },
    {
      "tick": 18432,
      "bpm": 50
    },
    {
      "tick": 22080,
      "bpm": 45
    },
    {
      "tick": 22176,
      "bpm": 45
    },
    {
      "tick": 22272,
      "bpm": 40
    },
    {
      "tick": 22656,
      "bpm": 35
    },
    {
      "tick": 23040,
      "bpm": 50
    },
    {
      "tick": 26688,
      "bpm": 45
    },
    {
      "tick": 26784,
      "bpm": 45
    },
    {
      "tick": 26880,
      "bpm": 40
    },
    {
      "tick": 27264,
      "bpm": 35
    },
    {
      "tick": 27648,
      "bpm": 50
    },
    {
      "tick": 34560,
      "bpm": 45
    },
    {
      "tick": 34752,
      "bpm": 40
    },
    {
      "tick": 34848,
      "bpm": 40
    },
    {
      "tick": 35040,
      "bpm": 45
    },
    {
      "tick": 35808,
      "bpm": 45
    },
    {
      "tick": 35904,
      "bpm": 40
    },
    {
      "tick": 36000,
      "bpm": 40
    },
    {
      "tick": 36096,
      "bpm": 30
    }
  ],
  "time_signatures": [
    {
      "tick": 0,
      "numerator": 3,
      "denominator": 4
    }
  ],
  "track_type": "solo_string",
  "voice_count": 2,
  "total_notes": 387,
  "tracks": [
    {
      "role": "solo_0",
      "notes": [
        {
          "pitch": 50,
          "onset": 0.0,
          "duration": 1.0,
          "velocity": 90
        },
        {
          "pitch": 59,
          "onset": 0.25,
          "duration": 0.75,
          "velocity": 90
        },
        {
          "pitch": 52,
          "onset": 1.0,
          "duration": 2.0,
          "velocity": 90
        },
        {
          "pitch": 60,
          "onset": 1.0,
          "duration": 1.5,
          "velocity": 90
        },
        {
          "pitch": 59,
          "onset": 2.5,
          "duration": 0.5,
          "velocity": 90
        },
        {
          "pitch": 54,
          "onset": 3.0,
          "duration": 0.2188,
          "velocity": 90
        },
        {
          "pitch": 57,
          "onset": 3.25,
          "duration": 0.2188,
          "velocity": 90
        },
        {
          "pitch": 59,
          "onset": 3.5,
          "duration": 0.2188,
          "velocity": 90
        },
        {
          "pitch": 60,
          "onset": 3.75,
          "duration": 0.2188,
          "velocity": 90
        },
        {
          "pitch": 50,
          "onset": 4.0,
          "duration": 0.5,
          "velocity": 90
        },
        {
          "pitch": 59,
          "onset": 4.0,
          "duration": 0.0625,
          "velocity": 90
        },
        {
          "pitch": 60,
          "onset": 4.0625,
          "duration": 0.0625,
          "velocity": 90
        },
        {
          "pitch": 59,
          "onset": 4.125,
          "duration": 0.0625,
          "velocity": 90
        },
        {
          "pitch": 60,
          "onset": 4.1875,
          "duration": 0.0625,
          "velocity": 90
        },
        {
          "pitch": 59,
          "onset": 4.25,
          "duration": 0.0625,
          "velocity": 90
        },
        {
          "pitch": 60,
          "onset": 4.3125,
          "duration": 0.0625,
          "velocity": 90
        },
        {
          "pitch": 59,
          "onset": 4.375,
          "duration": 0.0625,
          "velocity": 90
        },
        {
          "pitch": 60,
          "onset": 4.4375,
          "duration": 0.0625,
          "velocity": 90
        },
        {
          "pitch": 59,
          "onset": 4.5,
          "duration": 0.5,
          "velocity": 90
        },
        {
          "pitch": 57,
          "onset": 5.0,
          "duration": 0.5,
          "velocity": 90
        },
        {
          "pitch": 55,
          "onset": 5.5,
          "duration": 0.5,
          "velocity": 90
        },
        {
          "pitch": 62,
          "onset": 6.0,
          "duration": 0.5,
          "velocity": 90
        },
        {
          "pitch": 53,
          "onset": 6.5,
          "duration": 0.5,
          "velocity": 90
        },
        {
          "pitch": 52,
          "onset": 7.0,
          "duration": 0.75,
          "velocity": 90
        },
        {
          "pitch": 50,
          "onset": 7.75,
          "duration": 0.0938,
          "velocity": 90
        },
        {
          "pitch": 48,
          "onset": 7.8438,
          "duration": 0.0938,
          "velocity": 90
        },
        {
          "pitch": 47,
          "onset": 7.9062,
          "duration": 0.0938,
          "velocity": 90
        },
        {
          "pitch": 48,
          "onset": 8.0,
          "duration": 0.5,
          "velocity": 90
        },
        {
          "pitch": 52,
          "onset": 8.5,
          "duration": 0.5,
          "velocity": 90
        },
        {
          "pitch": 54,
          "onset": 9.0,
          "duration": 0.2188,
          "velocity": 90
        },
        {
          "pitch": 60,
          "onset": 9.25,
          "duration": 0.2188,
          "velocity": 90
        },
        {
          "pitch": 59,
          "onset": 9.5,
          "duration": 0.2188,
          "velocity": 90
        },
        {
          "pitch": 55,
          "onset": 9.75,
          "duration": 0.2188,
          "velocity": 90
        },
        {
          "pitch": 45,
          "onset": 10.0,
          "duration": 1.0,
          "velocity": 90
        },
        {
          "pitch": 54,
          "onset": 10.0,
          "duration": 0.0625,
          "velocity": 90
        },
        {
          "pitch": 55,
          "onset": 10.0625,
          "duration": 0.0625,
          "velocity": 90
        },
        {
          "pitch": 54,
          "onset": 10.125,
          "duration": 0.0625,
          "velocity": 90
        },
        {
          "pitch": 55,
          "onset": 10.1875,
          "duration": 0.0625,
          "velocity": 90
        },
        {
          "pitch": 54,
          "onset": 10.25,
          "duration": 0.0625,
          "velocity": 90
        },
        {
          "pitch": 55,
          "onset": 10.3125,
          "duration": 0.0625,
          "velocity": 90
        },
        {
          "pitch": 54,
          "onset": 10.375,
          "duration": 0.0625,
          "velocity": 90
        },
        {
          "pitch": 55,
          "onset": 10.4375,
          "duration": 0.0625,
          "velocity": 90
        },
        {
          "pitch": 54,
          "onset": 10.5,
          "duration": 0.5,
          "velocity": 90
        },
        {
          "pitch": 52,
          "onset": 11.0,
          "duration": 0.5,
          "velocity": 90
        },
        {
          "pitch": 50,
          "onset": 11.5,
          "duration": 0.5,
          "velocity": 90
        },
        {
          "pitch": 57,
          "onset": 12.0,
          "duration": 0.25,
          "velocity": 90
        },
        {
          "pitch": 54,
          "onset": 12.25,
          "duration": 0.25,
          "velocity": 90
        },
        {
          "pitch": 50,
          "onset": 12.5,
          "duration": 0.25,
          "velocity": 90
        },
        {
          "pitch": 48,
          "onset": 12.75,
          "duration": 0.25,
          "velocity": 90
        },
        {
          "pitch": 47,
          "onset": 13.0,
          "duration": 0.75,
          "velocity": 90
        },
        {
          "pitch": 43,
          "onset": 13.75,
          "duration": 0.25,
          "velocity": 90
        },
        {
          "pitch": 47,
          "onset": 14.0,
          "duration": 0.25,
          "velocity": 90
        },
        {
          "pitch": 50,
          "onset": 14.25,
          "duration": 0.25,
          "velocity": 90
        },
        {
          "pitch": 55,
          "onset": 14.5,
          "duration": 0.25,
          "velocity": 90
        },
        {
          "pitch": 57,
          "onset": 14.75,
          "duration": 0.25,
          "velocity": 90
        },
        {
          "pitch": 59,
          "onset": 15.0,
          "duration": 0.25,
          "velocity": 90
        },
        {
          "pitch": 55,
          "onset": 15.25,
          "duration": 0.25,
          "velocity": 90
        },
        {
          "pitch": 52,
          "onset": 15.5,
          "duration": 0.25,
          "velocity": 90
        },
        {
          "pitch": 50,
          "onset": 15.75,
          "duration": 0.25,
          "velocity": 90
        },
        {
          "pitch": 49,
          "onset": 16.0,
          "duration": 0.0625,
          "velocity": 90
        },
        {
          "pitch": 50,
          "onset": 16.0625,
          "duration": 0.0625,
          "velocity": 90
        },
        {
          "pitch": 49,
          "onset": 16.125,
          "duration": 0.0625,
          "velocity": 90
        },
        {
          "pitch": 50,
          "onset": 16.1875,
          "duration": 0.0625,
          "velocity": 90
        },
        {
          "pitch": 49,
          "onset": 16.25,
          "duration": 0.0625,
          "velocity": 90
        },
        {
          "pitch": 50,
          "onset": 16.3125,
          "duration": 0.0625,
          "velocity": 90
        },
        {
          "pitch": 49,
          "onset": 16.375,
          "duration": 0.0625,
          "velocity": 90
        },
        {
          "pitch": 50,
          "onset": 16.4375,
          "duration": 0.0625,
          "velocity": 90
        },
        {
          "pitch": 49,
          "onset": 16.5,
          "duration": 0.25,
          "velocity": 90
        },
        {
          "pitch": 45,
          "onset": 16.75,
          "duration": 0.125,
          "velocity": 90
        },
        {
          "pitch": 47,
          "onset": 16.875,
          "duration": 0.125,
          "velocity": 90
        },
        {
          "pitch": 49,
          "onset": 17.0,
          "duration": 0.25,
          "velocity": 90
        },
        {
          "pitch": 50,
          "onset": 17.25,
          "duration": 0.25,
          "velocity": 90
        },
        {
          "pitch": 52,
          "onset": 17.5,
          "duration": 0.25,
          "velocity": 90
        },
        {
          "pitch": 54,
          "onset": 17.75,
          "duration": 0.25,
          "velocity": 90
        },
        {
          "pitch": 55,
          "onset": 18.0,
          "duration": 0.25,
          "velocity": 90
        },
        {
          "pitch": 61,
          "onset": 18.25,
          "duration": 0.25,
          "velocity": 90
        },
        {
          "pitch": 62,
          "onset": 18.5,
          "duration": 0.25,
          "velocity": 90
        },
        {
          "pitch": 61,
          "onset": 18.75,
          "duration": 0.25,
          "velocity": 90
        },
        {
          "pitch": 62,
          "onset": 19.0,
          "duration": 0.25,
          "velocity": 90
        },
        {
          "pitch": 57,
          "onset": 19.25,
          "duration": 0.25,
          "velocity": 90
        },
        {
          "pitch": 55,
          "onset": 19.5,
          "duration": 0.25,
          "velocity": 90
        },
        {
          "pitch": 54,
          "onset": 19.75,
          "duration": 0.25,
          "velocity": 90
        },
        {
          "pitch": 52,
          "onset": 20.0,
          "duration": 0.25,
          "velocity": 90
        },
        {
          "pitch": 55,
          "onset": 20.25,
          "duration": 0.25,
          "velocity": 90
        },
        {
          "pitch": 54,
          "onset": 20.5,
          "duration": 0.25,
          "velocity": 90
        },
        {
          "pitch": 50,
          "onset": 20.75,
          "duration": 0.25,
          "velocity": 90
        },
        {
          "pitch": 50,
          "onset": 21.25,
          "duration": 0.25,
          "velocity": 90
        },
        {
          "pitch": 52,
          "onset": 21.5,
          "duration": 0.25,
          "velocity": 90
        },
        {
          "pitch": 49,
          "onset": 21.75,
          "duration": 0.25,
          "velocity": 85
        },
        {
          "pitch": 50,
          "onset": 22.0,
          "duration": 1.0,
          "velocity": 80
        },
        {
          "pitch": 38,
          "onset": 23.0,
          "duration": 0.75,
          "velocity": 71
        },
        {
          "pitch": 50,
          "onset": 24.0,
          "duration": 1.0,
          "velocity": 90
        },
        {
          "pitch": 59,
          "onset": 24.0,
          "duration": 1.0,
          "velocity": 90
        },
        {
          "pitch": 52,
          "onset": 25.0,
          "duration": 2.0,
          "velocity": 90
        },
        {
          "pitch": 60,
          "onset": 25.0,
          "duration": 1.5,
          "velocity": 90
        },
        {
          "pitch": 59,
          "onset": 26.5,
          "duration": 0.5,
          "velocity": 90
        },
        {
          "pitch": 54,
          "onset": 27.0,
          "duration": 0.2188,
          "velocity": 90
        },
        {
          "pitch": 57,
          "onset": 27.25,
          "duration": 0.2188,
          "velocity": 90
        },
        {
          "pitch": 59,
          "onset": 27.5,
          "duration": 0.2188,
          "velocity": 90
        },
        {
          "pitch": 60,
          "onset": 27.75,
          "duration": 0.2188,
          "velocity": 90
        },
        {
          "pitch": 50,
          "onset": 28.0,
          "duration": 1.0,
          "velocity": 90
        },
        {
          "pitch": 59,
          "onset": 28.0,
          "duration": 0.0625,
          "velocity": 90
        },
        {
          "pitch": 60,
          "onset": 28.0625,
          "duration": 0.0625,
          "velocity": 90
        },
        {
          "pitch": 59,
          "onset": 28.125,
          "duration": 0.0625,
          "velocity": 90
        },
        {
          "pitch": 60,
          "onset": 28.1875,
          "duration": 0.0625,
          "velocity": 90
        },
        {
          "pitch": 59,
          "onset": 28.25,
          "duration": 0.0625,
          "velocity": 90
        },
        {
          "pitch": 60,
          "onset": 28.3125,
          "duration": 0.0625,
          "velocity": 90
        },
        {
          "pitch": 59,
          "onset": 28.375,
          "duration": 0.0625,
          "velocity": 90
        },
        {
          "pitch": 60,
          "onset": 28.4375,
          "duration": 0.0625,
          "velocity": 90
        },
        {
          "pitch": 59,
          "onset": 28.5,
          "duration": 0.5,
          "velocity": 90
        },
        {
          "pitch": 57,
          "onset": 29.0,
          "duration": 0.5,
          "velocity": 90
        },
        {
          "pitch": 55,
          "onset": 29.5,
          "duration": 0.5,
          "velocity": 90
        },
        {
          "pitch": 62,
          "onset": 30.0,
          "duration": 0.5,
          "velocity": 90
        },
        {
          "pitch": 53,
          "onset": 30.5,
          "duration": 0.5,
          "velocity": 90
        },
        {
          "pitch": 52,
          "onset": 31.0,
          "duration": 0.75,
          "velocity": 90
        },
        {
          "pitch": 50,
          "onset": 31.75,
          "duration": 0.0938,
          "velocity": 90
        },
        {
          "pitch": 48,
          "onset": 31.8438,
          "duration": 0.0938,
          "velocity": 90
        },
        {
          "pitch": 47,
          "onset": 31.9062,
          "duration": 0.0938,
          "velocity": 90
        },
        {
          "pitch": 48,
          "onset": 32.0,
          "duration": 0.5,
          "velocity": 90
        },
        {
          "pitch": 52,
          "onset": 32.5,
          "duration": 0.5,
          "velocity": 90
        },
        {
          "pitch": 54,
          "onset": 33.0,
          "duration": 0.2188,
          "velocity": 90
        },
        {
          "pitch": 60,
          "onset": 33.25,
          "duration": 0.2188,
          "velocity": 90
        },
        {
          "pitch": 59,
          "onset": 33.5,
          "duration": 0.2188,
          "velocity": 90
        },
        {
          "pitch": 55,
          "onset": 33.75,
          "duration": 0.2188,
          "velocity": 90
        },
        {
          "pitch": 45,
          "onset": 34.0,
          "duration": 1.0,
          "velocity": 90
        },
        {
          "pitch": 54,
          "onset": 34.0,
          "duration": 0.0625,
          "velocity": 90
        },
        {
          "pitch": 55,
          "onset": 34.0625,
          "duration": 0.0625,
          "velocity": 90
        },
        {
          "pitch": 54,
          "onset": 34.125,
          "duration": 0.0625,
          "velocity": 90
        },
        {
          "pitch": 55,
          "onset": 34.1875,
          "duration": 0.0625,
          "velocity": 90
        },
        {
          "pitch": 54,
          "onset": 34.25,
          "duration": 0.0625,
          "velocity": 90
        },
        {
          "pitch": 55,
          "onset": 34.3125,
          "duration": 0.0625,
          "velocity": 90
        },
        {
          "pitch": 54,
          "onset": 34.375,
          "duration": 0.0625,
          "velocity": 90
        },
        {
          "pitch": 55,
          "onset": 34.4375,
          "duration": 0.0625,
          "velocity": 90
        },
        {
          "pitch": 54,
          "onset": 34.5,
          "duration": 0.5,
          "velocity": 90
        },
        {
          "pitch": 52,
          "onset": 35.0,
          "duration": 0.5,
          "velocity": 90
        },
        {
          "pitch": 50,
          "onset": 35.5,
          "duration": 0.5,
          "velocity": 90
        },
        {
          "pitch": 57,
          "onset": 36.0,
          "duration": 0.25,
          "velocity": 90
        },
        {
          "pitch": 54,
          "onset": 36.25,
          "duration": 0.25,
          "velocity": 90
        },
        {
          "pitch": 50,
          "onset": 36.5,
          "duration": 0.25,
          "velocity": 90
        },
        {
          "pitch": 48,
          "onset": 36.75,
          "duration": 0.25,
          "velocity": 90
        },
        {
          "pitch": 47,
          "onset": 37.0,
          "duration": 0.75,
          "velocity": 90
        },
        {
          "pitch": 43,
          "onset": 37.75,
          "duration": 0.25,
          "velocity": 90
        },
        {
          "pitch": 47,
          "onset": 38.0,
          "duration": 0.25,
          "velocity": 90
        },
        {
          "pitch": 50,
          "onset": 38.25,
          "duration": 0.25,
          "velocity": 90
        },
        {
          "pitch": 55,
          "onset": 38.5,
          "duration": 0.25,
          "velocity": 90
        },
        {
          "pitch": 57,
          "onset": 38.75,
          "duration": 0.25,
          "velocity": 90
        },
        {
          "pitch": 59,
          "onset": 39.0,
          "duration": 0.25,
          "velocity": 90
        },
        {
          "pitch": 55,
          "onset": 39.25,
          "duration": 0.25,
          "velocity": 90
        },
        {
          "pitch": 52,
          "onset": 39.5,
          "duration": 0.25,
          "velocity": 90
        },
        {
          "pitch": 50,
          "onset": 39.75,
          "duration": 0.25,
          "velocity": 90
        },
        {
          "pitch": 49,
          "onset": 40.0,
          "duration": 0.0625,
          "velocity": 90
        },
        {
          "pitch": 50,
          "onset": 40.0625,
          "duration": 0.0625,
          "velocity": 90
        },
        {
          "pitch": 49,
          "onset": 40.125,
          "duration": 0.0625,
          "velocity": 90
        },
        {
          "pitch": 50,
          "onset": 40.1875,
          "duration": 0.0625,
          "velocity": 90
        },
        {
          "pitch": 49,
          "onset": 40.25,
          "duration": 0.0625,
          "velocity": 90
        },
        {
          "pitch": 50,
          "onset": 40.3125,
          "duration": 0.0625,
          "velocity": 90
        },
        {
          "pitch": 49,
          "onset": 40.375,
          "duration": 0.0625,
          "velocity": 90
        },
        {
          "pitch": 50,
          "onset": 40.4375,
          "duration": 0.0625,
          "velocity": 90
        },
        {
          "pitch": 49,
          "onset": 40.5,
          "duration": 0.25,
          "velocity": 90
        },
        {
          "pitch": 45,
          "onset": 40.75,
          "duration": 0.125,
          "velocity": 90
        },
        {
          "pitch": 47,
          "onset": 40.875,
          "duration": 0.125,
          "velocity": 90
        },
        {
          "pitch": 49,
          "onset": 41.0,
          "duration": 0.25,
          "velocity": 90
        },
        {
          "pitch": 50,
          "onset": 41.25,
          "duration": 0.25,
          "velocity": 90
        },
        {
          "pitch": 52,
          "onset": 41.5,
          "duration": 0.25,
          "velocity": 90
        },
        {
          "pitch": 54,
          "onset": 41.75,
          "duration": 0.25,
          "velocity": 90
        },
        {
          "pitch": 55,
          "onset": 42.0,
          "duration": 0.25,
          "velocity": 90
        },
        {
          "pitch": 61,
          "onset": 42.25,
          "duration": 0.25,
          "velocity": 90
        },
        {
          "pitch": 62,
          "onset": 42.5,
          "duration": 0.25,
          "velocity": 90
        },
        {
          "pitch": 61,
          "onset": 42.75,
          "duration": 0.25,
          "velocity": 90
        },
        {
          "pitch": 62,
          "onset": 43.0,
          "duration": 0.25,
          "velocity": 90
        },
        {
          "pitch": 57,
          "onset": 43.25,
          "duration": 0.25,
          "velocity": 90
        },
        {
          "pitch": 55,
          "onset": 43.5,
          "duration": 0.25,
          "velocity": 90
        },
        {
          "pitch": 54,
          "onset": 43.75,
          "duration": 0.25,
          "velocity": 90
        },
        {
          "pitch": 52,
          "onset": 44.0,
          "duration": 0.25,
          "velocity": 90
        },
        {
          "pitch": 55,
          "onset": 44.25,
          "duration": 0.25,
          "velocity": 90
        },
        {
          "pitch": 54,
          "onset": 44.5,
          "duration": 0.25,
          "velocity": 90
        },
        {
          "pitch": 50,
          "onset": 44.75,
          "duration": 0.25,
          "velocity": 90
        },
        {
          "pitch": 50,
          "onset": 45.25,
          "duration": 0.25,
          "velocity": 90
        },
        {
          "pitch": 52,
          "onset": 45.5,
          "duration": 0.25,
          "velocity": 90
        },
        {
          "pitch": 49,
          "onset": 45.75,
          "duration": 0.25,
          "velocity": 85
        },
        {
          "pitch": 50,
          "onset": 46.0,
          "duration": 1.0,
          "velocity": 80
        },
        {
          "pitch": 38,
          "onset": 47.0,
          "duration": 0.75,
          "velocity": 71
        },
        {
          "pitch": 54,
          "onset": 48.0,
          "duration": 0.5,
          "velocity": 90
        },
        {
          "pitch": 52,
          "onset": 48.5,
          "duration": 0.25,
          "velocity": 90
        },
        {
          "pitch": 50,
          "onset": 48.75,
          "duration": 0.25,
          "velocity": 90
        },
        {
          "pitch": 54,
          "onset": 49.25,
          "duration": 1.25,
          "velocity": 90
        },
        {
          "pitch": 60,
          "onset": 49.25,
          "duration": 1.25,
          "velocity": 90
        },
        {
          "pitch": 59,
          "onset": 50.5,
          "duration": 0.25,
          "velocity": 90
        },
        {
          "pitch": 57,
          "onset": 50.75,
          "duration": 0.25,
          "velocity": 90
        },
        {
          "pitch": 59,
          "onset": 51.0,
          "duration": 0.25,
          "velocity": 90
        },
        {
          "pitch": 54,
          "onset": 51.25,
          "duration": 0.25,
          "velocity": 90
        },
        {
          "pitch": 55,
          "onset": 51.5,
          "duration": 0.25,
          "velocity": 90
        },
        {
          "pitch": 52,
          "onset": 51.75,
          "duration": 0.25,
          "velocity": 90
        },
        {
          "pitch": 51,
          "onset": 52.0,
          "duration": 0.0625,
          "velocity": 90
        },
        {
          "pitch": 52,
          "onset": 52.0625,
          "duration": 0.0625,
          "velocity": 90
        },
        {
          "pitch": 51,
          "onset": 52.125,
          "duration": 0.0625,
          "velocity": 90
        },
        {
          "pitch": 52,
          "onset": 52.1875,
          "duration": 0.0625,
          "velocity": 90
        },
        {
          "pitch": 51,
          "onset": 52.25,
          "duration": 0.0625,
          "velocity": 90
        },
        {
          "pitch": 52,
          "onset": 52.3125,
          "duration": 0.0625,
          "velocity": 90
        },
        {
          "pitch": 51,
          "onset": 52.375,
          "duration": 0.0625,
          "velocity": 90
        },
        {
          "pitch": 52,
          "onset": 52.4375,
          "duration": 0.0625,
          "velocity": 90
        },
        {
          "pitch": 51,
          "onset": 52.5,
          "duration": 0.25,
          "velocity": 90
        },
        {
          "pitch": 52,
          "onset": 52.75,
          "duration": 0.25,
          "velocity": 90
        },
        {
          "pitch": 54,
          "onset": 53.0,
          "duration": 0.25,
          "velocity": 90
        },
        {
          "pitch": 55,
          "onset": 53.25,
          "duration": 0.25,
          "velocity": 90
        },
        {
          "pitch": 57,
          "onset": 53.5,
          "duration": 0.25,
          "velocity": 90
        },
        {
          "pitch": 59,
          "onset": 53.75,
          "duration": 0.25,
          "velocity": 90
        },
        {
          "pitch": 57,
          "onset": 54.25,
          "duration": 0.25,
          "velocity": 90
        },
        {
          "pitch": 59,
          "onset": 54.5,
          "duration": 0.25,
          "velocity": 90
        },
        {
          "pitch": 60,
          "onset": 54.75,
          "duration": 0.25,
          "velocity": 90
        },
        {
          "pitch": 59,
          "onset": 55.0,
          "duration": 0.0625,
          "velocity": 90
        },
        {
          "pitch": 60,
          "onset": 55.0625,
          "duration": 0.0625,
          "velocity": 90
        },
        {
          "pitch": 59,
          "onset": 55.125,
          "duration": 0.0625,
          "velocity": 90
        },
        {
          "pitch": 60,
          "onset": 55.1875,
          "duration": 0.0625,
          "velocity": 90
        },
        {
          "pitch": 59,
          "onset": 55.25,
          "duration": 0.0625,
          "velocity": 90
        },
        {
          "pitch": 60,
          "onset": 55.3125,
          "duration": 0.0625,
          "velocity": 90
        },
        {
          "pitch": 59,
          "onset": 55.375,
          "duration": 0.125,
          "velocity": 90
        },
        {
          "pitch": 57,
          "onset": 55.5,
          "duration": 0.25,
          "velocity": 90
        },
        {
          "pitch": 55,
          "onset": 55.75,
          "duration": 0.25,
          "velocity": 90
        },
        {
          "pitch": 54,
          "onset": 56.0,
          "duration": 0.25,
          "velocity": 90
        },
        {
          "pitch": 52,
          "onset": 56.25,
          "duration": 0.25,
          "velocity": 90
        },
        {
          "pitch": 57,
          "onset": 56.5,
          "duration": 0.25,
          "velocity": 90
        },
        {
          "pitch": 54,
          "onset": 56.75,
          "duration": 0.25,
          "velocity": 90
        },
        {
          "pitch": 55,
          "onset": 57.0,
          "duration": 0.25,
          "velocity": 90
        },
        {
          "pitch": 52,
          "onset": 57.25,
          "duration": 0.25,
          "velocity": 90
        },
        {
          "pitch": 54,
          "onset": 57.5,
          "duration": 0.25,
          "velocity": 90
        },
        {
          "pitch": 51,
          "onset": 57.75,
          "duration": 0.25,
          "velocity": 90
        },
        {
          "pitch": 52,
          "onset": 58.0,
          "duration": 1.0,
          "velocity": 90
        },
        {
          "pitch": 40,
          "onset": 59.0,
          "duration": 0.75,
          "velocity": 75
        },
        {
          "pitch": 50,
          "onset": 60.0,
          "duration": 0.75,
          "velocity": 90
        },
        {
          "pitch": 52,
          "onset": 60.75,
          "duration": 0.125,
          "velocity": 90
        },
        {
          "pitch": 53,
          "onset": 60.875,
          "duration": 0.125,
          "velocity": 90
        },
        {
          "pitch": 52,
          "onset": 61.0,
          "duration": 0.75,
          "velocity": 90
        },
        {
          "pitch": 54,
          "onset": 61.75,
          "duration": 0.25,
          "velocity": 90
        },
        {
          "pitch": 55,
          "onset": 62.0,
          "duration": 0.25,
          "velocity": 90
        },
        {
          "pitch": 57,
          "onset": 62.25,
          "duration": 0.25,
          "velocity": 90
        },
        {
          "pitch": 59,
          "onset": 62.5,
          "duration": 0.25,
          "velocity": 90
        },
        {
          "pitch": 60,
          "onset": 62.75,
          "duration": 0.25,
          "velocity": 90
        },
        {
          "pitch": 62,
          "onset": 63.25,
          "duration": 0.25,
          "velocity": 90
        },
        {
          "pitch": 60,
          "onset": 63.5,
          "duration": 0.25,
          "velocity": 90
        },
        {
          "pitch": 59,
          "onset": 63.75,
          "duration": 0.25,
          "velocity": 90
        },
        {
          "pitch": 60,
          "onset": 64.0,
          "duration": 0.75,
          "velocity": 90
        },
        {
          "pitch": 59,
          "onset": 64.75,
          "duration": 0.25,
          "velocity": 90
        },
        {
          "pitch": 57,
          "onset": 65.0,
          "duration": 0.25,
          "velocity": 90
        },
        {
          "pitch": 55,
          "onset": 65.25,
          "duration": 0.25,
          "velocity": 90
        },
        {
          "pitch": 54,
          "onset": 65.5,
          "duration": 0.25,
          "velocity": 90
        },
        {
          "pitch": 52,
          "onset": 65.75,
          "duration": 0.25,
          "velocity": 90
        },
        {
          "pitch": 50,
          "onset": 66.0,
          "duration": 1.25,
          "velocity": 90
        },
        {
          "pitch": 52,
          "onset": 67.25,
          "duration": 0.25,
          "velocity": 90
        },
        {
          "pitch": 54,
          "onset": 67.5,
          "duration": 0.25,
          "velocity": 90
        },
        {
          "pitch": 55,
          "onset": 67.75,
          "duration": 0.25,
          "velocity": 90
        },
        {
          "pitch": 57,
          "onset": 68.0,
          "duration": 0.25,
          "velocity": 90
        },
        {
          "pitch": 60,
          "onset": 68.25,
          "duration": 0.25,
          "velocity": 90
        },
        {
          "pitch": 59,
          "onset": 68.5,
          "duration": 0.25,
          "velocity": 90
        },
        {
          "pitch": 55,
          "onset": 68.75,
          "duration": 0.25,
          "velocity": 90
        },
        {
          "pitch": 50,
          "onset": 69.0,
          "duration": 0.25,
          "velocity": 90
        },
        {
          "pitch": 55,
          "onset": 69.25,
          "duration": 0.25,
          "velocity": 90
        },
        {
          "pitch": 57,
          "onset": 69.5,
          "duration": 0.25,
          "velocity": 90
        },
        {
          "pitch": 54,
          "onset": 69.75,
          "duration": 0.25,
          "velocity": 90
        },
        {
          "pitch": 55,
          "onset": 70.0,
          "duration": 1.0,
          "velocity": 80
        },
        {
          "pitch": 43,
          "onset": 71.0,
          "duration": 0.75,
          "velocity": 70
        },
        {
          "pitch": 54,
          "onset": 72.0,
          "duration": 0.5,
          "velocity": 90
        },
        {
          "pitch": 52,
          "onset": 72.5,
          "duration": 0.25,
          "velocity": 90
        },
        {
          "pitch": 50,
          "onset": 72.75,
          "duration": 0.25,
          "velocity": 90
        },
        {
          "pitch": 54,
          "onset": 73.25,
          "duration": 1.25,
          "velocity": 90
        },
        {
          "pitch": 60,
          "onset": 73.25,
          "duration": 1.25,
          "velocity": 90
        },
        {
          "pitch": 59,
          "onset": 74.5,
          "duration": 0.25,
          "velocity": 90
        },
        {
          "pitch": 57,
          "onset": 74.75,
          "duration": 0.25,
          "velocity": 90
        },
        {
          "pitch": 59,
          "onset": 75.0,
          "duration": 0.25,
          "velocity": 90
        },
        {
          "pitch": 54,
          "onset": 75.25,
          "duration": 0.25,
          "velocity": 90
        },
        {
          "pitch": 55,
          "onset": 75.5,
          "duration": 0.25,
          "velocity": 90
        },
        {
          "pitch": 52,
          "onset": 75.75,
          "duration": 0.25,
          "velocity": 90
        },
        {
          "pitch": 51,
          "onset": 76.0,
          "duration": 0.0625,
          "velocity": 90
        },
        {
          "pitch": 52,
          "onset": 76.0625,
          "duration": 0.0625,
          "velocity": 90
        },
        {
          "pitch": 51,
          "onset": 76.125,
          "duration": 0.0625,
          "velocity": 90
        },
        {
          "pitch": 52,
          "onset": 76.1875,
          "duration": 0.0625,
          "velocity": 90
        },
        {
          "pitch": 51,
          "onset": 76.25,
          "duration": 0.0625,
          "velocity": 90
        },
        {
          "pitch": 52,
          "onset": 76.3125,
          "duration": 0.0625,
          "velocity": 90
        },
        {
          "pitch": 51,
          "onset": 76.375,
          "duration": 0.0625,
          "velocity": 90
        },
        {
          "pitch": 52,
          "onset": 76.4375,
          "duration": 0.0625,
          "velocity": 90
        },
        {
          "pitch": 51,
          "onset": 76.5,
          "duration": 0.25,
          "velocity": 90
        },
        {
          "pitch": 52,
          "onset": 76.75,
          "duration": 0.25,
          "velocity": 90
        },
        {
          "pitch": 54,
          "onset": 77.0,
          "duration": 0.25,
          "velocity": 90
        },
        {
          "pitch": 55,
          "onset": 77.25,
          "duration": 0.25,
          "velocity": 90
        },
        {
          "pitch": 57,
          "onset": 77.5,
          "duration": 0.25,
          "velocity": 90
        },
        {
          "pitch": 59,
          "onset": 77.75,
          "duration": 0.25,
          "velocity": 90
        },
        {
          "pitch": 57,
          "onset": 78.25,
          "duration": 0.25,
          "velocity": 90
        },
        {
          "pitch": 59,
          "onset": 78.5,
          "duration": 0.25,
          "velocity": 90
        },
        {
          "pitch": 60,
          "onset": 78.75,
          "duration": 0.25,
          "velocity": 90
        },
        {
          "pitch": 59,
          "onset": 79.0,
          "duration": 0.0625,
          "velocity": 90
        },
        {
          "pitch": 60,
          "onset": 79.0625,
          "duration": 0.0625,
          "velocity": 90
        },
        {
          "pitch": 59,
          "onset": 79.125,
          "duration": 0.0625,
          "velocity": 90
        },
        {
          "pitch": 60,
          "onset": 79.1875,
          "duration": 0.0625,
          "velocity": 90
        },
        {
          "pitch": 59,
          "onset": 79.25,
          "duration": 0.0625,
          "velocity": 90
        },
        {
          "pitch": 60,
          "onset": 79.3125,
          "duration": 0.0625,
          "velocity": 90
        },
        {
          "pitch": 59,
          "onset": 79.375,
          "duration": 0.125,
          "velocity": 90
        },
        {
          "pitch": 57,
          "onset": 79.5,
          "duration": 0.25,
          "velocity": 90
        },
        {
          "pitch": 55,
          "onset": 79.75,
          "duration": 0.25,
          "velocity": 90
        },
        {
          "pitch": 54,
          "onset": 80.0,
          "duration": 0.25,
          "velocity": 90
        },
        {
          "pitch": 52,
          "onset": 80.25,
          "duration": 0.25,
          "velocity": 90
        },
        {
          "pitch": 57,
          "onset": 80.5,
          "duration": 0.25,
          "velocity": 90
        },
        {
          "pitch": 54,
          "onset": 80.75,
          "duration": 0.25,
          "velocity": 90
        },
        {
          "pitch": 55,
          "onset": 81.0,
          "duration": 0.25,
          "velocity": 90
        },
        {
          "pitch": 52,
          "onset": 81.25,
          "duration": 0.25,
          "velocity": 90
        },
        {
          "pitch": 54,
          "onset": 81.5,
          "duration": 0.25,
          "velocity": 90
        },
        {
          "pitch": 51,
          "onset": 81.75,
          "duration": 0.25,
          "velocity": 90
        },
        {
          "pitch": 52,
          "onset": 82.0,
          "duration": 1.0,
          "velocity": 90
        },
        {
          "pitch": 40,
          "onset": 83.0,
          "duration": 0.75,
          "velocity": 75
        },
        {
          "pitch": 50,
          "onset": 84.0,
          "duration": 0.75,
          "velocity": 90
        },
        {
          "pitch": 52,
          "onset": 84.75,
          "duration": 0.125,
          "velocity": 90
        },
        {
          "pitch": 53,
          "onset": 84.875,
          "duration": 0.125,
          "velocity": 90
        },
        {
          "pitch": 52,
          "onset": 85.0,
          "duration": 0.75,
          "velocity": 90
        },
        {
          "pitch": 54,
          "onset": 85.75,
          "duration": 0.25,
          "velocity": 90
        },
        {
          "pitch": 55,
          "onset": 86.0,
          "duration": 0.25,
          "velocity": 90
        },
        {
          "pitch": 57,
          "onset": 86.25,
          "duration": 0.25,
          "velocity": 90
        },
        {
          "pitch": 59,
          "onset": 86.5,
          "duration": 0.25,
          "velocity": 90
        },
        {
          "pitch": 60,
          "onset": 86.75,
          "duration": 0.25,
          "velocity": 90
        },
        {
          "pitch": 62,
          "onset": 87.25,
          "duration": 0.25,
          "velocity": 90
        },
        {
          "pitch": 60,
          "onset": 87.5,
          "duration": 0.25,
          "velocity": 90
        },
        {
          "pitch": 59,
          "onset": 87.75,
          "duration": 0.25,
          "velocity": 90
        },
        {
          "pitch": 60,
          "onset": 88.0,
          "duration": 0.75,
          "velocity": 90
        },
        {
          "pitch": 59,
          "onset": 88.75,
          "duration": 0.25,
          "velocity": 90
        },
        {
          "pitch": 57,
          "onset": 89.0,
          "duration": 0.25,
          "velocity": 90
        },
        {
          "pitch": 55,
          "onset": 89.25,
          "duration": 0.25,
          "velocity": 90
        },
        {
          "pitch": 54,
          "onset": 89.5,
          "duration": 0.25,
          "velocity": 90
        },
        {
          "pitch": 52,
          "onset": 89.75,
          "duration": 0.25,
          "velocity": 90
        },
        {
          "pitch": 50,
          "onset": 90.0,
          "duration": 1.25,
          "velocity": 90
        },
        {
          "pitch": 52,
          "onset": 91.25,
          "duration": 0.25,
          "velocity": 90
        },
        {
          "pitch": 54,
          "onset": 91.5,
          "duration": 0.25,
          "velocity": 90
        },
        {
          "pitch": 55,
          "onset": 91.75,
          "duration": 0.25,
          "velocity": 90
        },
        {
          "pitch": 57,
          "onset": 92.0,
          "duration": 0.25,
          "velocity": 90
        },
        {
          "pitch": 60,
          "onset": 92.25,
          "duration": 0.25,
          "velocity": 90
        },
        {
          "pitch": 59,
          "onset": 92.5,
          "duration": 0.25,
          "velocity": 90
        },
        {
          "pitch": 55,
          "onset": 92.75,
          "duration": 0.25,
          "velocity": 90
        },
        {
          "pitch": 50,
          "onset": 93.0,
          "duration": 0.25,
          "velocity": 90
        },
        {
          "pitch": 55,
          "onset": 93.25,
          "duration": 0.25,
          "velocity": 90
        },
        {
          "pitch": 57,
          "onset": 93.5,
          "duration": 0.25,
          "velocity": 90
        },
        {
          "pitch": 54,
          "onset": 93.75,
          "duration": 0.25,
          "velocity": 90
        },
        {
          "pitch": 55,
          "onset": 94.0,
          "duration": 1.0,
          "velocity": 80
        },
        {
          "pitch": 43,
          "onset": 95.0,
          "duration": 1.5,
          "velocity": 73
        },
        {
          "pitch": 43,
          "onset": 97.75,
          "duration": 0.25,
          "velocity": 1
        }
      ]
    },
    {
      "role": "solo_1",
      "notes": [
        {
          "pitch": 43,
          "onset": 0.0,
          "duration": 0.5,
          "velocity": 90
        },
        {
          "pitch": 43,
          "onset": 1.0,
          "duration": 0.75,
          "velocity": 90
        },
        {
          "pitch": 43,
          "onset": 4.0,
          "duration": 0.5,
          "velocity": 90
        },
        {
          "pitch": 38,
          "onset": 10.0,
          "duration": 0.5,
          "velocity": 90
        },
        {
          "pitch": 45,
          "onset": 21.0,
          "duration": 0.375,
          "velocity": 90
        },
        {
          "pitch": 43,
          "onset": 24.0,
          "duration": 0.5,
          "velocity": 90
        },
        {
          "pitch": 43,
          "onset": 25.0,
          "duration": 0.5,
          "velocity": 90
        },
        {
          "pitch": 43,
          "onset": 28.0,
          "duration": 0.5,
          "velocity": 90
        },
        {
          "pitch": 38,
          "onset": 34.0,
          "duration": 0.5,
          "velocity": 90
        },
        {
          "pitch": 45,
          "onset": 45.0,
          "duration": 0.375,
          "velocity": 90
        },
        {
          "pitch": 38,
          "onset": 48.0,
          "duration": 0.25,
          "velocity": 90
        },
        {
          "pitch": 45,
          "onset": 48.0,
          "duration": 0.25,
          "velocity": 90
        },
        {
          "pitch": 38,
          "onset": 49.0,
          "duration": 0.5,
          "velocity": 90
        },
        {
          "pitch": 45,
          "onset": 49.0,
          "duration": 0.75,
          "velocity": 90
        },
        {
          "pitch": 43,
          "onset": 51.0,
          "duration": 0.25,
          "velocity": 90
        },
        {
          "pitch": 50,
          "onset": 51.0,
          "duration": 0.25,
          "velocity": 90
        },
        {
          "pitch": 45,
          "onset": 52.0,
          "duration": 0.75,
          "velocity": 90
        },
        {
          "pitch": 51,
          "onset": 54.0,
          "duration": 0.375,
          "velocity": 90
        },
        {
          "pitch": 47,
          "onset": 60.0,
          "duration": 0.75,
          "velocity": 90
        },
        {
          "pitch": 36,
          "onset": 61.0,
          "duration": 0.75,
          "velocity": 90
        },
        {
          "pitch": 43,
          "onset": 61.0,
          "duration": 0.75,
          "velocity": 90
        },
        {
          "pitch": 44,
          "onset": 63.0,
          "duration": 0.375,
          "velocity": 90
        },
        {
          "pitch": 45,
          "onset": 64.0,
          "duration": 0.75,
          "velocity": 90
        },
        {
          "pitch": 52,
          "onset": 64.0,
          "duration": 0.75,
          "velocity": 90
        },
        {
          "pitch": 47,
          "onset": 66.25,
          "duration": 0.25,
          "velocity": 90
        },
        {
          "pitch": 48,
          "onset": 66.5,
          "duration": 0.25,
          "velocity": 90
        },
        {
          "pitch": 45,
          "onset": 66.75,
          "duration": 0.25,
          "velocity": 90
        },
        {
          "pitch": 47,
          "onset": 67.0,
          "duration": 0.25,
          "velocity": 90
        },
        {
          "pitch": 38,
          "onset": 72.0,
          "duration": 0.25,
          "velocity": 90
        },
        {
          "pitch": 45,
          "onset": 72.0,
          "duration": 0.25,
          "velocity": 90
        },
        {
          "pitch": 38,
          "onset": 73.0,
          "duration": 0.5,
          "velocity": 90
        },
        {
          "pitch": 45,
          "onset": 73.0,
          "duration": 0.75,
          "velocity": 90
        },
        {
          "pitch": 43,
          "onset": 75.0,
          "duration": 0.25,
          "velocity": 90
        },
        {
          "pitch": 50,
          "onset": 75.0,
          "duration": 0.25,
          "velocity": 90
        },
        {
          "pitch": 45,
          "onset": 76.0,
          "duration": 0.75,
          "velocity": 90
        },
        {
          "pitch": 51,
          "onset": 78.0,
          "duration": 0.375,
          "velocity": 90
        },
        {
          "pitch": 47,
          "onset": 84.0,
          "duration": 0.75,
          "velocity": 90
        },
        {
          "pitch": 36,
          "onset": 85.0,
          "duration": 0.75,
          "velocity": 90
        },
        {
          "pitch": 43,
          "onset": 85.0,
          "duration": 0.75,
          "velocity": 90
        },
        {
          "pitch": 44,
          "onset": 87.0,
          "duration": 0.375,
          "velocity": 90
        },
        {
          "pitch": 45,
          "onset": 88.0,
          "duration": 0.75,
          "velocity": 90
        },
        {
          "pitch": 52,
          "onset": 88.0,
          "duration": 0.75,
          "velocity": 90
        },
        {
          "pitch": 47,
          "onset": 90.25,
          "duration": 0.25,
          "velocity": 90
        },
        {
          "pitch": 48,
          "onset": 90.5,
          "duration": 0.25,
          "velocity": 90
        },
        {
          "pitch": 45,
          "onset": 90.75,
          "duration": 0.25,
          "velocity": 90
        },
        {
          "pitch": 47,
          "onset": 91.0,
          "duration": 0.25,
          "velocity": 90
        }
      ]
    }
  ]
}