{
  "bwv": 1010,
  "category": "solo_cello_suite",
  "instrument": "cello",
  "form": "",
  "movement": 4,
  "ticks_per_beat": 384,
  "duration_seconds": 245.5,
  "tempos": [
    {
      "tick": 0,
      "bpm": 50
    },
    {
      "tick": 26112,
      "bpm": 45
    },
    {
      "tick": 26304,
      "bpm": 45
    },
    {
      "tick": 26400,
      "bpm": 40
    },
    {
      "tick": 26496,
      "bpm": 45
    },
    {
      "tick": 27648,
      "bpm": 50
    },
    {
      "tick": 36096,
      "bpm": 45
    },
    {
      "tick": 36480,
      "bpm": 45
    },
    {
      "tick": 36864,
      "bpm": 50
    },
    {
      "tick": 45312,
      "bpm": 45
    },
    {
      "tick": 45504,
      "bpm": 45
    },
    {
      "tick": 45600,
      "bpm": 40
    },
    {
      "tick": 45696,
      "bpm": 50
    },
    {
      "tick": 49920,
      "bpm": 45
    },
    {
      "tick": 50112,
      "bpm": 45
    },
    {
      "tick": 50208,
      "bpm": 40
    },
    {
      "tick": 50688,
      "bpm": 50
    },
    {
      "tick": 54912,
      "bpm": 45
    },
    {
      "tick": 55200,
      "bpm": 40
    },
    {
      "tick": 55296,
      "bpm": 50
    },
    {
      "tick": 59136,
      "bpm": 45
    },
    {
      "tick": 59520,
      "bpm": 45
    },
    {
      "tick": 59808,
      "bpm": 40
    },
    {
      "tick": 59904,
      "bpm": 50
    },
    {
      "tick": 72384,
      "bpm": 45
    },
    {
      "tick": 72480,
      "bpm": 45
    },
    {
      "tick": 72672,
      "bpm": 50
    },
    {
      "tick": 73056,
      "bpm": 45
    },
    {
      "tick": 73152,
      "bpm": 40
    }
  ],
  "time_signatures": [
    {
      "tick": 0,
      "numerator": 3,
      "denominator": 4
    }
  ],
  "track_type": "solo_string",
  "voice_count": 2,
  "total_notes": 426,
  "tracks": [
    {
      "role": "solo_0",
      "notes": [
        {
          "pitch": 58,
          "onset": 0.0,
          "duration": 1.0,
          "velocity": 80
        },
        {
          "pitch": 60,
          "onset": 1.0,
          "duration": 1.0,
          "velocity": 80
        },
        {
          "pitch": 61,
          "onset": 2.0,
          "duration": 1.0,
          "velocity": 80
        },
        {
          "pitch": 51,
          "onset": 3.0,
          "duration": 1.0,
          "velocity": 80
        },
        {
          "pitch": 61,
          "onset": 3.25,
          "duration": 0.5,
          "velocity": 80
        },
        {
          "pitch": 58,
          "onset": 3.75,
          "duration": 0.25,
          "velocity": 80
        },
        {
          "pitch": 60,
          "onset": 4.0,
          "duration": 1.25,
          "velocity": 80
        },
        {
          "pitch": 58,
          "onset": 5.25,
          "duration": 0.25,
          "velocity": 80
        },
        {
          "pitch": 56,
          "onset": 5.5,
          "duration": 0.25,
          "velocity": 80
        },
        {
          "pitch": 55,
          "onset": 5.75,
          "duration": 0.25,
          "velocity": 80
        },
        {
          "pitch": 53,
          "onset": 6.0,
          "duration": 1.0,
          "velocity": 80
        },
        {
          "pitch": 55,
          "onset": 7.0,
          "duration": 1.0,
          "velocity": 80
        },
        {
          "pitch": 56,
          "onset": 8.0,
          "duration": 1.0,
          "velocity": 80
        },
        {
          "pitch": 46,
          "onset": 9.0,
          "duration": 1.0,
          "velocity": 80
        },
        {
          "pitch": 56,
          "onset": 9.25,
          "duration": 0.5,
          "velocity": 80
        },
        {
          "pitch": 53,
          "onset": 9.75,
          "duration": 0.25,
          "velocity": 80
        },
        {
          "pitch": 55,
          "onset": 10.0,
          "duration": 0.75,
          "velocity": 80
        },
        {
          "pitch": 58,
          "onset": 10.75,
          "duration": 0.25,
          "velocity": 80
        },
        {
          "pitch": 51,
          "onset": 11.0,
          "duration": 1.75,
          "velocity": 80
        },
        {
          "pitch": 48,
          "onset": 12.75,
          "duration": 0.25,
          "velocity": 80
        },
        {
          "pitch": 50,
          "onset": 13.0,
          "duration": 0.75,
          "velocity": 80
        },
        {
          "pitch": 53,
          "onset": 13.75,
          "duration": 0.25,
          "velocity": 80
        },
        {
          "pitch": 56,
          "onset": 14.0,
          "duration": 1.75,
          "velocity": 80
        },
        {
          "pitch": 46,
          "onset": 15.0,
          "duration": 0.75,
          "velocity": 80
        },
        {
          "pitch": 53,
          "onset": 15.75,
          "duration": 0.25,
          "velocity": 80
        },
        {
          "pitch": 55,
          "onset": 16.0,
          "duration": 0.75,
          "velocity": 80
        },
        {
          "pitch": 58,
          "onset": 16.75,
          "duration": 0.25,
          "velocity": 80
        },
        {
          "pitch": 61,
          "onset": 17.0,
          "duration": 1.75,
          "velocity": 80
        },
        {
          "pitch": 58,
          "onset": 18.75,
          "duration": 0.25,
          "velocity": 80
        },
        {
          "pitch": 60,
          "onset": 19.0,
          "duration": 0.75,
          "velocity": 80
        },
        {
          "pitch": 64,
          "onset": 19.75,
          "duration": 0.25,
          "velocity": 80
        },
        {
          "pitch": 67,
          "onset": 20.0,
          "duration": 1.0,
          "velocity": 80
        },
        {
          "pitch": 58,
          "onset": 21.0,
          "duration": 1.0,
          "velocity": 80
        },
        {
          "pitch": 57,
          "onset": 22.0,
          "duration": 0.75,
          "velocity": 80
        },
        {
          "pitch": 55,
          "onset": 22.75,
          "duration": 0.25,
          "velocity": 80
        },
        {
          "pitch": 53,
          "onset": 23.0,
          "duration": 0.75,
          "velocity": 80
        },
        {
          "pitch": 51,
          "onset": 23.75,
          "duration": 0.25,
          "velocity": 80
        },
        {
          "pitch": 58,
          "onset": 24.0,
          "duration": 0.75,
          "velocity": 80
        },
        {
          "pitch": 62,
          "onset": 24.75,
          "duration": 0.25,
          "velocity": 80
        },
        {
          "pitch": 65,
          "onset": 25.0,
          "duration": 0.75,
          "velocity": 80
        },
        {
          "pitch": 57,
          "onset": 25.75,
          "duration": 0.25,
          "velocity": 80
        },
        {
          "pitch": 58,
          "onset": 26.0,
          "duration": 1.75,
          "velocity": 80
        },
        {
          "pitch": 62,
          "onset": 27.75,
          "duration": 0.25,
          "velocity": 80
        },
        {
          "pitch": 67,
          "onset": 28.0,
          "duration": 0.75,
          "velocity": 80
        },
        {
          "pitch": 57,
          "onset": 28.75,
          "duration": 0.25,
          "velocity": 80
        },
        {
          "pitch": 58,
          "onset": 29.0,
          "duration": 1.5,
          "velocity": 80
        },
        {
          "pitch": 57,
          "onset": 30.5,
          "duration": 0.25,
          "velocity": 80
        },
        {
          "pitch": 55,
          "onset": 30.75,
          "duration": 0.25,
          "velocity": 80
        },
        {
          "pitch": 53,
          "onset": 31.0,
          "duration": 0.5,
          "velocity": 80
        },
        {
          "pitch": 51,
          "onset": 31.5,
          "duration": 0.5,
          "velocity": 80
        },
        {
          "pitch": 50,
          "onset": 32.0,
          "duration": 0.5,
          "velocity": 80
        },
        {
          "pitch": 51,
          "onset": 32.5,
          "duration": 0.25,
          "velocity": 80
        },
        {
          "pitch": 48,
          "onset": 32.75,
          "duration": 0.25,
          "velocity": 80
        },
        {
          "pitch": 48,
          "onset": 33.0,
          "duration": 0.5,
          "velocity": 80
        },
        {
          "pitch": 46,
          "onset": 33.5,
          "duration": 0.0625,
          "velocity": 80
        },
        {
          "pitch": 48,
          "onset": 33.5625,
          "duration": 0.0625,
          "velocity": 80
        },
        {
          "pitch": 46,
          "onset": 33.625,
          "duration": 0.0625,
          "velocity": 80
        },
        {
          "pitch": 48,
          "onset": 33.6875,
          "duration": 0.0625,
          "velocity": 80
        },
        {
          "pitch": 46,
          "onset": 33.75,
          "duration": 0.0625,
          "velocity": 80
        },
        {
          "pitch": 48,
          "onset": 33.8125,
          "duration": 0.0625,
          "velocity": 80
        },
        {
          "pitch": 46,
          "onset": 33.875,
          "duration": 0.0625,
          "velocity": 80
        },
        {
          "pitch": 48,
          "onset": 33.9375,
          "duration": 0.0625,
          "velocity": 80
        },
        {
          "pitch": 46,
          "onset": 34.0,
          "duration": 1.5,
          "velocity": 80
        },
        {
          "pitch": 58,
          "onset": 36.0,
          "duration": 1.0,
          "velocity": 80
        },
        {
          "pitch": 60,
          "onset": 37.0,
          "duration": 1.0,
          "velocity": 80
        },
        {
          "pitch": 61,
          "onset": 38.0,
          "duration": 1.0,
          "velocity": 80
        },
        {
          "pitch": 51,
          "onset": 39.0,
          "duration": 1.0,
          "velocity": 80
        },
        {
          "pitch": 61,
          "onset": 39.25,
          "duration": 0.5,
          "velocity": 80
        },
        {
          "pitch": 58,
          "onset": 39.75,
          "duration": 0.25,
          "velocity": 80
        },
        {
          "pitch": 60,
          "onset": 40.0,
          "duration": 1.25,
          "velocity": 80
        },
        {
          "pitch": 58,
          "onset": 41.25,
          "duration": 0.25,
          "velocity": 80
        },
        {
          "pitch": 56,
          "onset": 41.5,
          "duration": 0.25,
          "velocity": 80
        },
        {
          "pitch": 55,
          "onset": 41.75,
          "duration": 0.25,
          "velocity": 80
        },
        {
          "pitch": 53,
          "onset": 42.0,
          "duration": 1.0,
          "velocity": 80
        },
        {
          "pitch": 55,
          "onset": 43.0,
          "duration": 1.0,
          "velocity": 80
        },
        {
          "pitch": 56,
          "onset": 44.0,
          "duration": 1.0,
          "velocity": 80
        },
        {
          "pitch": 46,
          "onset": 45.0,
          "duration": 1.0,
          "velocity": 80
        },
        {
          "pitch": 56,
          "onset": 45.25,
          "duration": 0.5,
          "velocity": 80
        },
        {
          "pitch": 53,
          "onset": 45.75,
          "duration": 0.25,
          "velocity": 80
        },
        {
          "pitch": 55,
          "onset": 46.0,
          "duration": 0.75,
          "velocity": 80
        },
        {
          "pitch": 58,
          "onset": 46.75,
          "duration": 0.25,
          "velocity": 80
        },
        {
          "pitch": 51,
          "onset": 47.0,
          "duration": 1.75,
          "velocity": 80
        },
        {
          "pitch": 48,
          "onset": 48.75,
          "duration": 0.25,
          "velocity": 80
        },
        {
          "pitch": 50,
          "onset": 49.0,
          "duration": 0.75,
          "velocity": 80
        },
        {
          "pitch": 53,
          "onset": 49.75,
          "duration": 0.25,
          "velocity": 80
        },
        {
          "pitch": 56,
          "onset": 50.0,
          "duration": 1.75,
          "velocity": 80
        },
        {
          "pitch": 46,
          "onset": 51.0,
          "duration": 0.75,
          "velocity": 80
        },
        {
          "pitch": 53,
          "onset": 51.75,
          "duration": 0.25,
          "velocity": 80
        },
        {
          "pitch": 55,
          "onset": 52.0,
          "duration": 0.75,
          "velocity": 80
        },
        {
          "pitch": 58,
          "onset": 52.75,
          "duration": 0.25,
          "velocity": 80
        },
        {
          "pitch": 61,
          "onset": 53.0,
          "duration": 1.75,
          "velocity": 80
        },
        {
          "pitch": 58,
          "onset": 54.75,
          "duration": 0.25,
          "velocity": 80
        },
        {
          "pitch": 60,
          "onset": 55.0,
          "duration": 0.75,
          "velocity": 80
        },
        {
          "pitch": 64,
          "onset": 55.75,
          "duration": 0.25,
          "velocity": 80
        },
        {
          "pitch": 67,
          "onset": 56.0,
          "duration": 1.0,
          "velocity": 80
        },
        {
          "pitch": 58,
          "onset": 57.0,
          "duration": 1.0,
          "velocity": 80
        },
        {
          "pitch": 57,
          "onset": 58.0,
          "duration": 0.75,
          "velocity": 80
        },
        {
          "pitch": 55,
          "onset": 58.75,
          "duration": 0.25,
          "velocity": 80
        },
        {
          "pitch": 53,
          "onset": 59.0,
          "duration": 0.75,
          "velocity": 80
        },
        {
          "pitch": 51,
          "onset": 59.75,
          "duration": 0.25,
          "velocity": 80
        },
        {
          "pitch": 58,
          "onset": 60.0,
          "duration": 0.75,
          "velocity": 80
        },
        {
          "pitch": 62,
          "onset": 60.75,
          "duration": 0.25,
          "velocity": 80
        },
        {
          "pitch": 65,
          "onset": 61.0,
          "duration": 0.75,
          "velocity": 80
        },
        {
          "pitch": 57,
          "onset": 61.75,
          "duration": 0.25,
          "velocity": 80
        },
        {
          "pitch": 58,
          "onset": 62.0,
          "duration": 1.75,
          "velocity": 80
        },
        {
          "pitch": 62,
          "onset": 63.75,
          "duration": 0.25,
          "velocity": 80
        },
        {
          "pitch": 67,
          "onset": 64.0,
          "duration": 0.75,
          "velocity": 80
        },
        {
          "pitch": 57,
          "onset": 64.75,
          "duration": 0.25,
          "velocity": 80
        },
        {
          "pitch": 58,
          "onset": 65.0,
          "duration": 1.5,
          "velocity": 80
        },
        {
          "pitch": 57,
          "onset": 66.5,
          "duration": 0.25,
          "velocity": 80
        },
        {
          "pitch": 55,
          "onset": 66.75,
          "duration": 0.25,
          "velocity": 80
        },
        {
          "pitch": 53,
          "onset": 67.0,
          "duration": 0.5,
          "velocity": 80
        },
        {
          "pitch": 51,
          "onset": 67.5,
          "duration": 0.5,
          "velocity": 80
        },
        {
          "pitch": 50,
          "onset": 68.0,
          "duration": 0.5,
          "velocity": 80
        },
        {
          "pitch": 51,
          "onset": 68.5,
          "duration": 0.25,
          "velocity": 80
        },
        {
          "pitch": 48,
          "onset": 68.75,
          "duration": 0.25,
          "velocity": 80
        },
        {
          "pitch": 46,
          "onset": 69.0,
          "duration": 2.5,
          "velocity": 80
        },
        {
          "pitch": 53,
          "onset": 72.0,
          "duration": 1.0,
          "velocity": 80
        },
        {
          "pitch": 55,
          "onset": 73.0,
          "duration": 1.0,
          "velocity": 80
        },
        {
          "pitch": 56,
          "onset": 74.0,
          "duration": 1.75,
          "velocity": 80
        },
        {
          "pitch": 53,
          "onset": 75.75,
          "duration": 0.25,
          "velocity": 80
        },
        {
          "pitch": 55,
          "onset": 76.0,
          "duration": 1.25,
          "velocity": 80
        },
        {
          "pitch": 53,
          "onset": 77.25,
          "duration": 0.25,
          "velocity": 80
        },
        {
          "pitch": 51,
          "onset": 77.5,
          "duration": 0.25,
          "velocity": 80
        },
        {
          "pitch": 50,
          "onset": 77.75,
          "duration": 0.25,
          "velocity": 80
        },
        {
          "pitch": 55,
          "onset": 78.0,
          "duration": 0.75,
          "velocity": 80
        },
        {
          "pitch": 63,
          "onset": 78.25,
          "duration": 0.5938,
          "velocity": 80
        },
        {
          "pitch": 53,
          "onset": 79.0,
          "duration": 0.75,
          "velocity": 80
        },
        {
          "pitch": 62,
          "onset": 79.25,
          "duration": 0.5938,
          "velocity": 80
        },
        {
          "pitch": 54,
          "onset": 80.0,
          "duration": 0.75,
          "velocity": 80
        },
        {
          "pitch": 60,
          "onset": 80.25,
          "duration": 0.5938,
          "velocity": 80
        },
        {
          "pitch": 50,
          "onset": 81.0,
          "duration": 0.75,
          "velocity": 80
        },
        {
          "pitch": 60,
          "onset": 81.25,
          "duration": 0.5,
          "velocity": 82
        },
        {
          "pitch": 57,
          "onset": 81.75,
          "duration": 0.25,
          "velocity": 80
        },
        {
          "pitch": 59,
          "onset": 82.0,
          "duration": 0.75,
          "velocity": 80
        },
        {
          "pitch": 62,
          "onset": 82.75,
          "duration": 0.25,
          "velocity": 80
        },
        {
          "pitch": 55,
          "onset": 83.0,
          "duration": 0.75,
          "velocity": 80
        },
        {
          "pitch": 53,
          "onset": 83.75,
          "duration": 0.25,
          "velocity": 80
        },
        {
          "pitch": 52,
          "onset": 84.0,
          "duration": 1.0,
          "velocity": 80
        },
        {
          "pitch": 53,
          "onset": 85.0,
          "duration": 1.0,
          "velocity": 80
        },
        {
          "pitch": 55,
          "onset": 86.0,
          "duration": 1.0,
          "velocity": 80
        },
        {
          "pitch": 48,
          "onset": 87.0,
          "duration": 0.75,
          "velocity": 80
        },
        {
          "pitch": 56,
          "onset": 87.25,
          "duration": 0.5,
          "velocity": 80
        },
        {
          "pitch": 53,
          "onset": 87.75,
          "duration": 0.25,
          "velocity": 80
        },
        {
          "pitch": 50,
          "onset": 88.0,
          "duration": 0.75,
          "velocity": 80
        },
        {
          "pitch": 59,
          "onset": 88.75,
          "duration": 0.25,
          "velocity": 80
        },
        {
          "pitch": 60,
          "onset": 89.0,
          "duration": 1.75,
          "velocity": 80
        },
        {
          "pitch": 62,
          "onset": 90.75,
          "duration": 0.25,
          "velocity": 80
        },
        {
          "pitch": 62,
          "onset": 91.0,
          "duration": 0.0625,
          "velocity": 80
        },
        {
          "pitch": 63,
          "onset": 91.0625,
          "duration": 0.0625,
          "velocity": 80
        },
        {
          "pitch": 62,
          "onset": 91.125,
          "duration": 0.0625,
          "velocity": 80
        },
        {
          "pitch": 63,
          "onset": 91.1875,
          "duration": 0.0625,
          "velocity": 80
        },
        {
          "pitch": 62,
          "onset": 91.25,
          "duration": 0.0625,
          "velocity": 80
        },
        {
          "pitch": 63,
          "onset": 91.3125,
          "duration": 0.0625,
          "velocity": 80
        },
        {
          "pitch": 62,
          "onset": 91.375,
          "duration": 0.0625,
          "velocity": 80
        },
        {
          "pitch": 63,
          "onset": 91.4375,
          "duration": 0.0625,
          "velocity": 80
        },
        {
          "pitch": 62,
          "onset": 91.5,
          "duration": 1.0,
          "velocity": 80
        },
        {
          "pitch": 60,
          "onset": 92.5,
          "duration": 0.5,
          "velocity": 80
        },
        {
          "pitch": 60,
          "onset": 93.0,
          "duration": 0.75,
          "velocity": 80
        },
        {
          "pitch": 55,
          "onset": 93.75,
          "duration": 0.25,
          "velocity": 80
        },
        {
          "pitch": 51,
          "onset": 94.0,
          "duration": 0.75,
          "velocity": 80
        },
        {
          "pitch": 55,
          "onset": 94.75,
          "duration": 0.25,
          "velocity": 80
        },
        {
          "pitch": 48,
          "onset": 95.0,
          "duration": 0.75,
          "velocity": 80
        },
        {
          "pitch": 46,
          "onset": 95.75,
          "duration": 0.25,
          "velocity": 80
        },
        {
          "pitch": 53,
          "onset": 96.0,
          "duration": 1.0,
          "velocity": 80
        },
        {
          "pitch": 60,
          "onset": 96.25,
          "duration": 0.75,
          "velocity": 80
        },
        {
          "pitch": 62,
          "onset": 97.0,
          "duration": 1.0,
          "velocity": 80
        },
        {
          "pitch": 63,
          "onset": 98.0,
          "duration": 1.0,
          "velocity": 80
        },
        {
          "pitch": 53,
          "onset": 99.0,
          "duration": 1.0,
          "velocity": 80
        },
        {
          "pitch": 63,
          "onset": 99.25,
          "duration": 0.5,
          "velocity": 80
        },
        {
          "pitch": 60,
          "onset": 99.75,
          "duration": 0.25,
          "velocity": 80
        },
        {
          "pitch": 62,
          "onset": 100.0,
          "duration": 0.75,
          "velocity": 80
        },
        {
          "pitch": 65,
          "onset": 100.75,
          "duration": 0.25,
          "velocity": 80
        },
        {
          "pitch": 56,
          "onset": 101.0,
          "duration": 1.75,
          "velocity": 80
        },
        {
          "pitch": 46,
          "onset": 102.0,
          "duration": 1.0,
          "velocity": 80
        },
        {
          "pitch": 53,
          "onset": 102.75,
          "duration": 0.25,
          "velocity": 80
        },
        {
          "pitch": 55,
          "onset": 103.0,
          "duration": 0.75,
          "velocity": 80
        },
        {
          "pitch": 58,
          "onset": 103.75,
          "duration": 0.25,
          "velocity": 80
        },
        {
          "pitch": 45,
          "onset": 104.0,
          "duration": 1.0,
          "velocity": 80
        },
        {
          "pitch": 51,
          "onset": 104.25,
          "duration": 1.5,
          "velocity": 80
        },
        {
          "pitch": 48,
          "onset": 105.75,
          "duration": 0.25,
          "velocity": 80
        },
        {
          "pitch": 50,
          "onset": 106.0,
          "duration": 0.75,
          "velocity": 80
        },
        {
          "pitch": 53,
          "onset": 106.75,
          "duration": 0.25,
          "velocity": 80
        },
        {
          "pitch": 46,
          "onset": 107.0,
          "duration": 0.75,
          "velocity": 80
        },
        {
          "pitch": 44,
          "onset": 107.75,
          "duration": 0.25,
          "velocity": 80
        },
        {
          "pitch": 51,
          "onset": 108.0,
          "duration": 0.75,
          "velocity": 80
        },
        {
          "pitch": 55,
          "onset": 108.75,
          "duration": 0.25,
          "velocity": 80
        },
        {
          "pitch": 58,
          "onset": 109.0,
          "duration": 0.75,
          "velocity": 80
        },
        {
          "pitch": 50,
          "onset": 109.75,
          "duration": 0.25,
          "velocity": 80
        },
        {
          "pitch": 51,
          "onset": 110.0,
          "duration": 1.75,
          "velocity": 80
        },
        {
          "pitch": 55,
          "onset": 111.75,
          "duration": 0.25,
          "velocity": 80
        },
        {
          "pitch": 60,
          "onset": 112.0,
          "duration": 0.75,
          "velocity": 80
        },
        {
          "pitch": 50,
          "onset": 112.75,
          "duration": 0.25,
          "velocity": 80
        },
        {
          "pitch": 51,
          "onset": 113.0,
          "duration": 1.75,
          "velocity": 80
        },
        {
          "pitch": 56,
          "onset": 114.75,
          "duration": 0.25,
          "velocity": 80
        },
        {
          "pitch": 55,
          "onset": 115.0,
          "duration": 0.75,
          "velocity": 80
        },
        {
          "pitch": 53,
          "onset": 115.75,
          "duration": 0.25,
          "velocity": 80
        },
        {
          "pitch": 51,
          "onset": 116.0,
          "duration": 0.5,
          "velocity": 80
        },
        {
          "pitch": 53,
          "onset": 116.5,
          "duration": 0.25,
          "velocity": 80
        },
        {
          "pitch": 50,
          "onset": 116.75,
          "duration": 0.25,
          "velocity": 80
        },
        {
          "pitch": 51,
          "onset": 117.0,
          "duration": 0.5,
          "velocity": 80
        },
        {
          "pitch": 55,
          "onset": 117.5,
          "duration": 0.25,
          "velocity": 80
        },
        {
          "pitch": 58,
          "onset": 117.75,
          "duration": 0.25,
          "velocity": 80
        },
        {
          "pitch": 63,
          "onset": 118.0,
          "duration": 0.5,
          "velocity": 80
        },
        {
          "pitch": 58,
          "onset": 118.5,
          "duration": 0.25,
          "velocity": 80
        },
        {
          "pitch": 55,
          "onset": 118.75,
          "duration": 0.25,
          "velocity": 80
        },
        {
          "pitch": 51,
          "onset": 119.0,
          "duration": 1.75,
          "velocity": 80
        },
        {
          "pitch": 54,
          "onset": 120.75,
          "duration": 0.25,
          "velocity": 91
        },
        {
          "pitch": 60,
          "onset": 121.0,
          "duration": 0.75,
          "velocity": 94
        },
        {
          "pitch": 53,
          "onset": 121.75,
          "duration": 0.25,
          "velocity": 100
        },
        {
          "pitch": 63,
          "onset": 122.0,
          "duration": 1.5,
          "velocity": 100
        },
        {
          "pitch": 53,
          "onset": 123.0,
          "duration": 0.5,
          "velocity": 100
        },
        {
          "pitch": 62,
          "onset": 123.5,
          "duration": 0.25,
          "velocity": 100
        },
        {
          "pitch": 60,
          "onset": 123.75,
          "duration": 0.25,
          "velocity": 100
        },
        {
          "pitch": 62,
          "onset": 124.0,
          "duration": 0.75,
          "velocity": 100
        },
        {
          "pitch": 65,
          "onset": 124.75,
          "duration": 0.25,
          "velocity": 100
        },
        {
          "pitch": 58,
          "onset": 125.0,
          "duration": 1.5,
          "velocity": 100
        },
        {
          "pitch": 51,
          "onset": 126.0,
          "duration": 0.5,
          "velocity": 100
        },
        {
          "pitch": 56,
          "onset": 126.5,
          "duration": 0.25,
          "velocity": 80
        },
        {
          "pitch": 55,
          "onset": 126.75,
          "duration": 0.25,
          "velocity": 80
        },
        {
          "pitch": 53,
          "onset": 127.0,
          "duration": 0.5,
          "velocity": 80
        },
        {
          "pitch": 51,
          "onset": 127.5,
          "duration": 0.5,
          "velocity": 80
        },
        {
          "pitch": 46,
          "onset": 128.0,
          "duration": 0.5,
          "velocity": 80
        },
        {
          "pitch": 51,
          "onset": 128.5,
          "duration": 0.25,
          "velocity": 80
        },
        {
          "pitch": 50,
          "onset": 128.75,
          "duration": 0.25,
          "velocity": 80
        },
        {
          "pitch": 43,
          "onset": 129.25,
          "duration": 0.25,
          "velocity": 80
        },
        {
          "pitch": 46,
          "onset": 129.5,
          "duration": 0.25,
          "velocity": 80
        },
        {
          "pitch": 50,
          "onset": 129.75,
          "duration": 0.25,
          "velocity": 80
        },
        {
          "pitch": 51,
          "onset": 130.0,
          "duration": 0.25,
          "velocity": 80
        },
        {
          "pitch": 55,
          "onset": 130.25,
          "duration": 0.25,
          "velocity": 80
        },
        {
          "pitch": 58,
          "onset": 130.5,
          "duration": 0.25,
          "velocity": 80
        },
        {
          "pitch": 62,
          "onset": 130.75,
          "duration": 0.25,
          "velocity": 80
        },
        {
          "pitch": 63,
          "onset": 131.0,
          "duration": 1.0,
          "velocity": 80
        },
        {
          "pitch": 53,
          "onset": 132.0,
          "duration": 1.0,
          "velocity": 80
        },
        {
          "pitch": 55,
          "onset": 133.0,
          "duration": 1.0,
          "velocity": 80
        },
        {
          "pitch": 56,
          "onset": 134.0,
          "duration": 1.75,
          "velocity": 80
        },
        {
          "pitch": 53,
          "onset": 135.75,
          "duration": 0.25,
          "velocity": 80
        },
        {
          "pitch": 55,
          "onset": 136.0,
          "duration": 1.25,
          "velocity": 80
        },
        {
          "pitch": 53,
          "onset": 137.25,
          "duration": 0.25,
          "velocity": 80
        },
        {
          "pitch": 51,
          "onset": 137.5,
          "duration": 0.25,
          "velocity": 80
        },
        {
          "pitch": 50,
          "onset": 137.75,
          "duration": 0.25,
          "velocity": 80
        },
        {
          "pitch": 55,
          "onset": 138.0,
          "duration": 1.0,
          "velocity": 100
        },
        {
          "pitch": 63,
          "onset": 138.0,
          "duration": 1.0,
          "velocity": 100
        },
        {
          "pitch": 53,
          "onset": 139.0,
          "duration": 1.0,
          "velocity": 100
        },
        {
          "pitch": 62,
          "onset": 139.0,
          "duration": 1.0,
          "velocity": 100
        },
        {
          "pitch": 54,
          "onset": 140.0,
          "duration": 1.0,
          "velocity": 100
        },
        {
          "pitch": 60,
          "onset": 140.0,
          "duration": 1.0,
          "velocity": 100
        },
        {
          "pitch": 50,
          "onset": 141.0,
          "duration": 0.75,
          "velocity": 100
        },
        {
          "pitch": 60,
          "onset": 141.0,
          "duration": 0.75,
          "velocity": 100
        },
        {
          "pitch": 57,
          "onset": 141.75,
          "duration": 0.25,
          "velocity": 80
        },
        {
          "pitch": 59,
          "onset": 142.0,
          "duration": 0.75,
          "velocity": 80
        },
        {
          "pitch": 62,
          "onset": 142.75,
          "duration": 0.25,
          "velocity": 80
        },
        {
          "pitch": 55,
          "onset": 143.0,
          "duration": 0.75,
          "velocity": 80
        },
        {
          "pitch": 53,
          "onset": 143.75,
          "duration": 0.25,
          "velocity": 80
        },
        {
          "pitch": 52,
          "onset": 144.0,
          "duration": 1.0,
          "velocity": 80
        },
        {
          "pitch": 53,
          "onset": 145.0,
          "duration": 1.0,
          "velocity": 80
        },
        {
          "pitch": 55,
          "onset": 146.0,
          "duration": 1.0,
          "velocity": 80
        },
        {
          "pitch": 48,
          "onset": 147.0,
          "duration": 0.75,
          "velocity": 80
        },
        {
          "pitch": 56,
          "onset": 147.25,
          "duration": 0.5,
          "velocity": 80
        },
        {
          "pitch": 53,
          "onset": 147.75,
          "duration": 0.25,
          "velocity": 80
        },
        {
          "pitch": 50,
          "onset": 148.0,
          "duration": 0.75,
          "velocity": 80
        },
        {
          "pitch": 59,
          "onset": 148.75,
          "duration": 0.25,
          "velocity": 80
        },
        {
          "pitch": 60,
          "onset": 149.0,
          "duration": 1.75,
          "velocity": 80
        },
        {
          "pitch": 62,
          "onset": 150.75,
          "duration": 0.25,
          "velocity": 80
        },
        {
          "pitch": 62,
          "onset": 151.0,
          "duration": 0.0625,
          "velocity": 80
        },
        {
          "pitch": 63,
          "onset": 151.0625,
          "duration": 0.0625,
          "velocity": 80
        },
        {
          "pitch": 62,
          "onset": 151.125,
          "duration": 0.0625,
          "velocity": 80
        },
        {
          "pitch": 63,
          "onset": 151.1875,
          "duration": 0.0625,
          "velocity": 80
        },
        {
          "pitch": 62,
          "onset": 151.25,
          "duration": 0.0625,
          "velocity": 80
        },
        {
          "pitch": 63,
          "onset": 151.3125,
          "duration": 0.0625,
          "velocity": 80
        },
        {
          "pitch": 62,
          "onset": 151.375,
          "duration": 0.0625,
          "velocity": 80
        },
        {
          "pitch": 63,
          "onset": 151.4375,
          "duration": 0.0625,
          "velocity": 80
        },
        {
          "pitch": 62,
          "onset": 151.5,
          "duration": 1.0,
          "velocity": 80
        },
        {
          "pitch": 60,
          "onset": 152.5,
          "duration": 0.5,
          "velocity": 80
        },
        {
          "pitch": 60,
          "onset": 153.0,
          "duration": 0.75,
          "velocity": 80
        },
        {
          "pitch": 55,
          "onset": 153.75,
          "duration": 0.25,
          "velocity": 80
        },
        {
          "pitch": 51,
          "onset": 154.0,
          "duration": 0.75,
          "velocity": 80
        },
        {
          "pitch": 55,
          "onset": 154.75,
          "duration": 0.25,
          "velocity": 80
        },
        {
          "pitch": 48,
          "onset": 155.0,
          "duration": 0.75,
          "velocity": 80
        },
        {
          "pitch": 46,
          "onset": 155.75,
          "duration": 0.25,
          "velocity": 80
        },
        {
          "pitch": 53,
          "onset": 156.0,
          "duration": 1.0,
          "velocity": 80
        },
        {
          "pitch": 60,
          "onset": 156.25,
          "duration": 0.75,
          "velocity": 80
        },
        {
          "pitch": 62,
          "onset": 157.0,
          "duration": 1.0,
          "velocity": 80
        },
        {
          "pitch": 63,
          "onset": 158.0,
          "duration": 1.0,
          "velocity": 80
        },
        {
          "pitch": 53,
          "onset": 159.0,
          "duration": 1.0,
          "velocity": 80
        },
        {
          "pitch": 63,
          "onset": 159.25,
          "duration": 0.5,
          "velocity": 80
        },
        {
          "pitch": 60,
          "onset": 159.75,
          "duration": 0.25,
          "velocity": 80
        },
        {
          "pitch": 62,
          "onset": 160.0,
          "duration": 0.75,
          "velocity": 80
        },
        {
          "pitch": 65,
          "onset": 160.75,
          "duration": 0.25,
          "velocity": 80
        },
        {
          "pitch": 56,
          "onset": 161.0,
          "duration": 1.75,
          "velocity": 80
        },
        {
          "pitch": 46,
          "onset": 162.0,
          "duration": 1.0,
          "velocity": 80
        },
        {
          "pitch": 53,
          "onset": 162.75,
          "duration": 0.25,
          "velocity": 80
        },
        {
          "pitch": 55,
          "onset": 163.0,
          "duration": 0.75,
          "velocity": 80
        },
        {
          "pitch": 58,
          "onset": 163.75,
          "duration": 0.25,
          "velocity": 80
        },
        {
          "pitch": 45,
          "onset": 164.0,
          "duration": 1.0,
          "velocity": 80
        },
        {
          "pitch": 51,
          "onset": 164.25,
          "duration": 1.5,
          "velocity": 80
        },
        {
          "pitch": 48,
          "onset": 165.75,
          "duration": 0.25,
          "velocity": 80
        },
        {
          "pitch": 50,
          "onset": 166.0,
          "duration": 0.75,
          "velocity": 80
        },
        {
          "pitch": 53,
          "onset": 166.75,
          "duration": 0.25,
          "velocity": 80
        },
        {
          "pitch": 46,
          "onset": 167.0,
          "duration": 0.75,
          "velocity": 80
        },
        {
          "pitch": 44,
          "onset": 167.75,
          "duration": 0.25,
          "velocity": 80
        },
        {
          "pitch": 51,
          "onset": 168.0,
          "duration": 0.75,
          "velocity": 80
        },
        {
          "pitch": 55,
          "onset": 168.75,
          "duration": 0.25,
          "velocity": 80
        },
        {
          "pitch": 58,
          "onset": 169.0,
          "duration": 0.75,
          "velocity": 80
        },
        {
          "pitch": 50,
          "onset": 169.75,
          "duration": 0.25,
          "velocity": 80
        },
        {
          "pitch": 51,
          "onset": 170.0,
          "duration": 1.75,
          "velocity": 80
        },
        {
          "pitch": 55,
          "onset": 171.75,
          "duration": 0.25,
          "velocity": 80
        },
        {
          "pitch": 60,
          "onset": 172.0,
          "duration": 0.75,
          "velocity": 80
        },
        {
          "pitch": 50,
          "onset": 172.75,
          "duration": 0.25,
          "velocity": 80
        },
        {
          "pitch": 51,
          "onset": 173.0,
          "duration": 1.75,
          "velocity": 80
        },
        {
          "pitch": 56,
          "onset": 174.75,
          "duration": 0.25,
          "velocity": 80
        },
        {
          "pitch": 55,
          "onset": 175.0,
          "duration": 0.75,
          "velocity": 80
        },
        {
          "pitch": 53,
          "onset": 175.75,
          "duration": 0.25,
          "velocity": 80
        },
        {
          "pitch": 51,
          "onset": 176.0,
          "duration": 0.5,
          "velocity": 80
        },
        {
          "pitch": 53,
          "onset": 176.5,
          "duration": 0.25,
          "velocity": 80
        },
        {
          "pitch": 50,
          "onset": 176.75,
          "duration": 0.25,
          "velocity": 80
        },
        {
          "pitch": 51,
          "onset": 177.0,
          "duration": 0.5,
          "velocity": 80
        },
        {
          "pitch": 55,
          "onset": 177.5,
          "duration": 0.25,
          "velocity": 80
        },
        {
          "pitch": 58,
          "onset": 177.75,
          "duration": 0.25,
          "velocity": 80
        },
        {
          "pitch": 63,
          "onset": 178.0,
          "duration": 0.5,
          "velocity": 80
        },
        {
          "pitch": 58,
          "onset": 178.5,
          "duration": 0.25,
          "velocity": 80
        },
        {
          "pitch": 55,
          "onset": 178.75,
          "duration": 0.25,
          "velocity": 80
        },
        {
          "pitch": 51,
          "onset": 179.0,
          "duration": 1.75,
          "velocity": 80
        },
        {
          "pitch": 54,
          "onset": 180.75,
          "duration": 0.25,
          "velocity": 91
        },
        {
          "pitch": 60,
          "onset": 181.0,
          "duration": 0.75,
          "velocity": 94
        },
        {
          "pitch": 53,
          "onset": 181.75,
          "duration": 0.25,
          "velocity": 100
        },
        {
          "pitch": 63,
          "onset": 182.0,
          "duration": 1.5,
          "velocity": 100
        },
        {
          "pitch": 53,
          "onset": 183.0,
          "duration": 0.5,
          "velocity": 100
        },
        {
          "pitch": 62,
          "onset": 183.5,
          "duration": 0.25,
          "velocity": 100
        },
        {
          "pitch": 60,
          "onset": 183.75,
          "duration": 0.25,
          "velocity": 100
        },
        {
          "pitch": 62,
          "onset": 184.0,
          "duration": 0.75,
          "velocity": 100
        },
        {
          "pitch": 65,
          "onset": 184.75,
          "duration": 0.25,
          "velocity": 87
        },
        {
          "pitch": 58,
          "onset": 185.0,
          "duration": 1.5,
          "velocity": 80
        },
        {
          "pitch": 51,
          "onset": 186.0,
          "duration": 0.5,
          "velocity": 80
        },
        {
          "pitch": 56,
          "onset": 186.5,
          "duration": 0.25,
          "velocity": 80
        },
        {
          "pitch": 55,
          "onset": 186.75,
          "duration": 0.25,
          "velocity": 80
        },
        {
          "pitch": 53,
          "onset": 187.0,
          "duration": 0.5,
          "velocity": 80
        },
        {
          "pitch": 51,
          "onset": 187.5,
          "duration": 0.5,
          "velocity": 80
        },
        {
          "pitch": 46,
          "onset": 188.0,
          "duration": 0.5,
          "velocity": 80
        },
        {
          "pitch": 51,
          "onset": 188.5,
          "duration": 0.25,
          "velocity": 80
        },
        {
          "pitch": 50,
          "onset": 188.75,
          "duration": 0.25,
          "velocity": 80
        },
        {
          "pitch": 43,
          "onset": 189.25,
          "duration": 0.25,
          "velocity": 80
        },
        {
          "pitch": 46,
          "onset": 189.5,
          "duration": 0.25,
          "velocity": 80
        },
        {
          "pitch": 50,
          "onset": 189.75,
          "duration": 0.25,
          "velocity": 80
        },
        {
          "pitch": 51,
          "onset": 190.0,
          "duration": 0.25,
          "velocity": 80
        },
        {
          "pitch": 55,
          "onset": 190.25,
          "duration": 0.25,
          "velocity": 80
        },
        {
          "pitch": 58,
          "onset": 190.5,
          "duration": 0.25,
          "velocity": 80
        },
        {
          "pitch": 62,
          "onset": 190.75,
          "duration": 0.5,
          "velocity": 80
        },
        {
          "pitch": 63,
          "onset": 191.25,
          "duration": 1.75,
          "velocity": 80
        },
        {
          "pitch": 51,
          "onset": 194.25,
          "duration": 0.25,
          "velocity": 1
        }
      ]
    },
    {
      "role": "solo_1",
      "notes": [
        {
          "pitch": 51,
          "onset": 0.0,
          "duration": 3.0,
          "velocity": 80
        },
        {
          "pitch": 44,
          "onset": 3.0,
          "duration": 0.375,
          "velocity": 80
        },
        {
          "pitch": 46,
          "onset": 6.0,
          "duration": 3.0,
          "velocity": 80
        },
        {
          "pitch": 39,
          "onset": 9.0,
          "duration": 0.375,
          "velocity": 80
        },
        {
          "pitch": 46,
          "onset": 12.0,
          "duration": 0.5,
          "velocity": 80
        },
        {
          "pitch": 39,
          "onset": 15.0,
          "duration": 0.375,
          "velocity": 80
        },
        {
          "pitch": 52,
          "onset": 18.0,
          "duration": 0.75,
          "velocity": 80
        },
        {
          "pitch": 53,
          "onset": 21.0,
          "duration": 1.0,
          "velocity": 80
        },
        {
          "pitch": 50,
          "onset": 24.0,
          "duration": 1.0,
          "velocity": 80
        },
        {
          "pitch": 51,
          "onset": 27.0,
          "duration": 1.0,
          "velocity": 80
        },
        {
          "pitch": 53,
          "onset": 30.0,
          "duration": 1.0,
          "velocity": 80
        },
        {
          "pitch": 51,
          "onset": 36.0,
          "duration": 3.0,
          "velocity": 80
        },
        {
          "pitch": 44,
          "onset": 39.0,
          "duration": 0.375,
          "velocity": 80
        },
        {
          "pitch": 46,
          "onset": 42.0,
          "duration": 3.0,
          "velocity": 80
        },
        {
          "pitch": 39,
          "onset": 45.0,
          "duration": 0.375,
          "velocity": 80
        },
        {
          "pitch": 46,
          "onset": 48.0,
          "duration": 0.5,
          "velocity": 80
        },
        {
          "pitch": 39,
          "onset": 51.0,
          "duration": 0.375,
          "velocity": 80
        },
        {
          "pitch": 52,
          "onset": 54.0,
          "duration": 0.75,
          "velocity": 80
        },
        {
          "pitch": 53,
          "onset": 57.0,
          "duration": 1.0,
          "velocity": 80
        },
        {
          "pitch": 50,
          "onset": 60.0,
          "duration": 1.0,
          "velocity": 80
        },
        {
          "pitch": 51,
          "onset": 63.0,
          "duration": 1.0,
          "velocity": 80
        },
        {
          "pitch": 53,
          "onset": 66.0,
          "duration": 1.0,
          "velocity": 80
        },
        {
          "pitch": 46,
          "onset": 72.0,
          "duration": 3.0,
          "velocity": 80
        },
        {
          "pitch": 47,
          "onset": 75.0,
          "duration": 0.75,
          "velocity": 80
        },
        {
          "pitch": 48,
          "onset": 78.0,
          "duration": 0.375,
          "velocity": 80
        },
        {
          "pitch": 44,
          "onset": 79.0,
          "duration": 0.375,
          "velocity": 80
        },
        {
          "pitch": 45,
          "onset": 80.0,
          "duration": 0.375,
          "velocity": 80
        },
        {
          "pitch": 43,
          "onset": 81.0,
          "duration": 0.5,
          "velocity": 80
        },
        {
          "pitch": 46,
          "onset": 84.0,
          "duration": 1.0,
          "velocity": 80
        },
        {
          "pitch": 44,
          "onset": 85.0,
          "duration": 1.0,
          "velocity": 80
        },
        {
          "pitch": 43,
          "onset": 86.0,
          "duration": 1.0,
          "velocity": 80
        },
        {
          "pitch": 41,
          "onset": 87.0,
          "duration": 0.375,
          "velocity": 80
        },
        {
          "pitch": 51,
          "onset": 89.0,
          "duration": 1.0,
          "velocity": 80
        },
        {
          "pitch": 53,
          "onset": 90.0,
          "duration": 1.0,
          "velocity": 80
        },
        {
          "pitch": 55,
          "onset": 91.0,
          "duration": 2.0,
          "velocity": 80
        },
        {
          "pitch": 45,
          "onset": 96.0,
          "duration": 0.5,
          "velocity": 80
        },
        {
          "pitch": 46,
          "onset": 99.0,
          "duration": 0.5,
          "velocity": 80
        },
        {
          "pitch": 39,
          "onset": 102.0,
          "duration": 0.5,
          "velocity": 80
        },
        {
          "pitch": 36,
          "onset": 104.0,
          "duration": 0.5,
          "velocity": 80
        },
        {
          "pitch": 46,
          "onset": 105.0,
          "duration": 0.75,
          "velocity": 80
        },
        {
          "pitch": 43,
          "onset": 108.0,
          "duration": 1.0,
          "velocity": 80
        },
        {
          "pitch": 44,
          "onset": 111.0,
          "duration": 1.0,
          "velocity": 80
        },
        {
          "pitch": 46,
          "onset": 114.0,
          "duration": 1.0,
          "velocity": 80
        },
        {
          "pitch": 48,
          "onset": 117.0,
          "duration": 1.0,
          "velocity": 80
        },
        {
          "pitch": 45,
          "onset": 120.0,
          "duration": 1.0,
          "velocity": 85
        },
        {
          "pitch": 44,
          "onset": 123.0,
          "duration": 0.25,
          "velocity": 100
        },
        {
          "pitch": 43,
          "onset": 126.0,
          "duration": 0.375,
          "velocity": 100
        },
        {
          "pitch": 46,
          "onset": 127.0,
          "duration": 0.5,
          "velocity": 80
        },
        {
          "pitch": 39,
          "onset": 129.0,
          "duration": 0.375,
          "velocity": 80
        },
        {
          "pitch": 46,
          "onset": 132.0,
          "duration": 3.0,
          "velocity": 80
        },
        {
          "pitch": 47,
          "onset": 135.0,
          "duration": 0.75,
          "velocity": 80
        },
        {
          "pitch": 48,
          "onset": 138.0,
          "duration": 0.375,
          "velocity": 100
        },
        {
          "pitch": 44,
          "onset": 139.0,
          "duration": 0.375,
          "velocity": 100
        },
        {
          "pitch": 45,
          "onset": 140.0,
          "duration": 0.375,
          "velocity": 100
        },
        {
          "pitch": 43,
          "onset": 141.0,
          "duration": 0.5,
          "velocity": 100
        },
        {
          "pitch": 46,
          "onset": 144.0,
          "duration": 1.0,
          "velocity": 80
        },
        {
          "pitch": 44,
          "onset": 145.0,
          "duration": 1.0,
          "velocity": 80
        },
        {
          "pitch": 43,
          "onset": 146.0,
          "duration": 1.0,
          "velocity": 80
        },
        {
          "pitch": 41,
          "onset": 147.0,
          "duration": 0.375,
          "velocity": 80
        },
        {
          "pitch": 51,
          "onset": 149.0,
          "duration": 1.0,
          "velocity": 80
        },
        {
          "pitch": 53,
          "onset": 150.0,
          "duration": 1.0,
          "velocity": 80
        },
        {
          "pitch": 55,
          "onset": 151.0,
          "duration": 2.0,
          "velocity": 80
        },
        {
          "pitch": 45,
          "onset": 156.0,
          "duration": 0.5,
          "velocity": 80
        },
        {
          "pitch": 46,
          "onset": 159.0,
          "duration": 0.5,
          "velocity": 80
        },
        {
          "pitch": 39,
          "onset": 162.0,
          "duration": 0.5,
          "velocity": 80
        },
        {
          "pitch": 36,
          "onset": 164.0,
          "duration": 0.5,
          "velocity": 80
        },
        {
          "pitch": 46,
          "onset": 165.0,
          "duration": 0.75,
          "velocity": 80
        },
        {
          "pitch": 43,
          "onset": 168.0,
          "duration": 1.0,
          "velocity": 80
        },
        {
          "pitch": 44,
          "onset": 171.0,
          "duration": 1.0,
          "velocity": 80
        },
        {
          "pitch": 46,
          "onset": 174.0,
          "duration": 1.0,
          "velocity": 80
        },
        {
          "pitch": 48,
          "onset": 177.0,
          "duration": 1.0,
          "velocity": 80
        },
        {
          "pitch": 45,
          "onset": 180.0,
          "duration": 1.0,
          "velocity": 85
        },
        {
          "pitch": 44,
          "onset": 183.0,
          "duration": 0.25,
          "velocity": 100
        },
        {
          "pitch": 43,
          "onset": 186.0,
          "duration": 0.375,
          "velocity": 80
        },
        {
          "pitch": 46,
          "onset": 187.0,
          "duration": 0.5,
          "velocity": 80
        },
        {
          "pitch": 39,
          "onset": 189.0,
          "duration": 0.375,
          "velocity": 80
        }
      ]
    }
  ]
}