{
  "bwv": 1001,
  "category": "solo_violin_sonata",
  "instrument": "violin",
  "form": "",
  "movement": 1,
  "ticks_per_beat": 480,
  "duration_seconds": 215.8,
  "tempos": [
    {
      "tick": 0,
      "bpm": 50
    },
    {
      "tick": 1200,
      "bpm": 50
    },
    {
      "tick": 1680,
      "bpm": 40
    },
    {
      "tick": 1800,
      "bpm": 50
    },
    {
      "tick": 1920,
      "bpm": 50
    },
    {
      "tick": 3120,
      "bpm": 55
    },
    {
      "tick": 3780,
      "bpm": 40
    },
    {
      "tick": 4560,
      "bpm": 55
    },
    {
      "tick": 4800,
      "bpm": 60
    },
    {
      "tick": 5520,
      "bpm": 50
    },
    {
      "tick": 6120,
      "bpm": 40
    },
    {
      "tick": 6240,
      "bpm": 60
    },
    {
      "tick": 6720,
      "bpm": 55
    },
    {
      "tick": 7200,
      "bpm": 55
    },
    {
      "tick": 7680,
      "bpm": 55
    },
    {
      "tick": 8160,
      "bpm": 50
    },
    {
      "tick": 8400,
      "bpm": 50
    },
    {
      "tick": 9120,
      "bpm": 60
    },
    {
      "tick": 9660,
      "bpm": 35
    },
    {
      "tick": 10080,
      "bpm": 50
    },
    {
      "tick": 10320,
      "bpm": 50
    },
    {
      "tick": 10560,
      "bpm": 55
    },
    {
      "tick": 10800,
      "bpm": 55
    },
    {
      "tick": 11280,
      "bpm": 40
    },
    {
      "tick": 11640,
      "bpm": 55
    },
    {
      "tick": 12000,
      "bpm": 55
    },
    {
      "tick": 12480,
      "bpm": 55
    },
    {
      "tick": 12960,
      "bpm": 50
    },
    {
      "tick": 13440,
      "bpm": 55
    },
    {
      "tick": 13920,
      "bpm": 50
    },
    {
      "tick": 14160,
      "bpm": 45
    },
    {
      "tick": 14760,
      "bpm": 70
    },
    {
      "tick": 15600,
      "bpm": 60
    },
    {
      "tick": 16200,
      "bpm": 55
    },
    {
      "tick": 16800,
      "bpm": 50
    },
    {
      "tick": 17520,
      "bpm": 45
    },
    {
      "tick": 17760,
      "bpm": 40
    },
    {
      "tick": 18240,
      "bpm": 45
    },
    {
      "tick": 18720,
      "bpm": 50
    },
    {
      "tick": 18960,
      "bpm": 45
    },
    {
      "tick": 20520,
      "bpm": 50
    },
    {
      "tick": 21000,
      "bpm": 45
    },
    {
      "tick": 21360,
      "bpm": 50
    },
    {
      "tick": 22560,
      "bpm": 45
    },
    {
      "tick": 22800,
      "bpm": 45
    },
    {
      "tick": 23280,
      "bpm": 45
    },
    {
      "tick": 23880,
      "bpm": 45
    },
    {
      "tick": 24480,
      "bpm": 45
    },
    {
      "tick": 24960,
      "bpm": 50
    },
    {
      "tick": 25200,
      "bpm": 50
    },
    {
      "tick": 25680,
      "bpm": 45
    },
    {
      "tick": 26400,
      "bpm": 55
    },
    {
      "tick": 27360,
      "bpm": 50
    },
    {
      "tick": 27840,
      "bpm": 55
    },
    {
      "tick": 28560,
      "bpm": 55
    },
    {
      "tick": 28800,
      "bpm": 50
    },
    {
      "tick": 29160,
      "bpm": 55
    },
    {
      "tick": 30480,
      "bpm": 50
    },
    {
      "tick": 30720,
      "bpm": 55
    },
    {
      "tick": 31920,
      "bpm": 55
    },
    {
      "tick": 34320,
      "bpm": 55
    },
    {
      "tick": 34440,
      "bpm": 50
    },
    {
      "tick": 34680,
      "bpm": 40
    },
    {
      "tick": 35160,
      "bpm": 55
    },
    {
      "tick": 35520,
      "bpm": 55
    },
    {
      "tick": 36240,
      "bpm": 55
    },
    {
      "tick": 36480,
      "bpm": 60
    },
    {
      "tick": 36960,
      "bpm": 45
    },
    {
      "tick": 37440,
      "bpm": 50
    },
    {
      "tick": 38160,
      "bpm": 50
    },
    {
      "tick": 38280,
      "bpm": 45
    },
    {
      "tick": 38340,
      "bpm": 40
    },
    {
      "tick": 38400,
      "bpm": 50
    },
    {
      "tick": 38880,
      "bpm": 50
    },
    {
      "tick": 39360,
      "bpm": 50
    },
    {
      "tick": 39840,
      "bpm": 50
    },
    {
      "tick": 40080,
      "bpm": 45
    },
    {
      "tick": 40440,
      "bpm": 30
    },
    {
      "tick": 40680,
      "bpm": 45
    },
    {
      "tick": 40800,
      "bpm": 50
    },
    {
      "tick": 41280,
      "bpm": 50
    },
    {
      "tick": 41760,
      "bpm": 55
    },
    {
      "tick": 42000,
      "bpm": 50
    },
    {
      "tick": 42240,
      "bpm": 55
    },
    {
      "tick": 42720,
      "bpm": 50
    },
    {
      "tick": 43680,
      "bpm": 50
    },
    {
      "tick": 44640,
      "bpm": 55
    },
    {
      "tick": 45840,
      "bpm": 50
    },
    {
      "tick": 45960,
      "bpm": 40
    },
    {
      "tick": 46080,
      "bpm": 35
    },
    {
      "tick": 46800,
      "bpm": 50
    },
    {
      "tick": 47280,
      "bpm": 50
    },
    {
      "tick": 47640,
      "bpm": 50
    },
    {
      "tick": 47940,
      "bpm": 45
    },
    {
      "tick": 48480,
      "bpm": 50
    },
    {
      "tick": 48600,
      "bpm": 55
    },
    {
      "tick": 49080,
      "bpm": 60
    },
    {
      "tick": 49320,
      "bpm": 50
    },
    {
      "tick": 49680,
      "bpm": 40
    },
    {
      "tick": 50400,
      "bpm": 50
    },
    {
      "tick": 50640,
      "bpm": 50
    },
    {
      "tick": 50880,
      "bpm": 50
    },
    {
      "tick": 51720,
      "bpm": 50
    },
    {
      "tick": 52080,
      "bpm": 50
    },
    {
      "tick": 52800,
      "bpm": 30
    },
    {
      "tick": 52920,
      "bpm": 50
    },
    {
      "tick": 53040,
      "bpm": 50
    },
    {
      "tick": 53160,
      "bpm": 55
    },
    {
      "tick": 53520,
      "bpm": 50
    },
    {
      "tick": 53640,
      "bpm": 45
    },
    {
      "tick": 53700,
      "bpm": 40
    },
    {
      "tick": 53760,
      "bpm": 60
    },
    {
      "tick": 54840,
      "bpm": 50
    },
    {
      "tick": 54960,
      "bpm": 50
    },
    {
      "tick": 55080,
      "bpm": 50
    },
    {
      "tick": 55440,
      "bpm": 40
    },
    {
      "tick": 55560,
      "bpm": 35
    },
    {
      "tick": 55680,
      "bpm": 50
    },
    {
      "tick": 56280,
      "bpm": 60
    },
    {
      "tick": 57120,
      "bpm": 55
    },
    {
      "tick": 58080,
      "bpm": 50
    },
    {
      "tick": 58320,
      "bpm": 40
    },
    {
      "tick": 59040,
      "bpm": 55
    },
    {
      "tick": 59640,
      "bpm": 40
    },
    {
      "tick": 59880,
      "bpm": 50
    },
    {
      "tick": 60000,
      "bpm": 50
    },
    {
      "tick": 60120,
      "bpm": 50
    },
    {
      "tick": 60240,
      "bpm": 55
    },
    {
      "tick": 60360,
      "bpm": 55
    },
    {
      "tick": 60720,
      "bpm": 55
    },
    {
      "tick": 60840,
      "bpm": 50
    },
    {
      "tick": 61920,
      "bpm": 40
    },
    {
      "tick": 62400,
      "bpm": 50
    },
    {
      "tick": 63000,
      "bpm": 40
    },
    {
      "tick": 63360,
      "bpm": 50
    },
    {
      "tick": 63600,
      "bpm": 45
    },
    {
      "tick": 63720,
      "bpm": 40
    },
    {
      "tick": 64080,
      "bpm": 35
    },
    {
      "tick": 64800,
      "bpm": 55
    },
    {
      "tick": 65340,
      "bpm": 30
    },
    {
      "tick": 65640,
      "bpm": 40
    },
    {
      "tick": 65760,
      "bpm": 45
    },
    {
      "tick": 65880,
      "bpm": 50
    },
    {
      "tick": 67080,
      "bpm": 40
    },
    {
      "tick": 67200,
      "bpm": 40
    },
    {
      "tick": 67560,
      "bpm": 35
    },
    {
      "tick": 68160,
      "bpm": 45
    },
    {
      "tick": 68880,
      "bpm": 40
    },
    {
      "tick": 69120,
      "bpm": 45
    },
    {
      "tick": 69480,
      "bpm": 40
    },
    {
      "tick": 70080,
      "bpm": 45
    },
    {
      "tick": 71040,
      "bpm": 50
    },
    {
      "tick": 72480,
      "bpm": 45
    },
    {
      "tick": 72720,
      "bpm": 40
    },
    {
      "tick": 73320,
      "bpm": 50
    },
    {
      "tick": 73800,
      "bpm": 40
    },
    {
      "tick": 74280,
      "bpm": 50
    },
    {
      "tick": 74760,
      "bpm": 45
    },
    {
      "tick": 74880,
      "bpm": 50
    },
    {
      "tick": 75120,
      "bpm": 55
    },
    {
      "tick": 75360,
      "bpm": 55
    },
    {
      "tick": 75600,
      "bpm": 60
    },
    {
      "tick": 76560,
      "bpm": 55
    },
    {
      "tick": 77280,
      "bpm": 40
    },
    {
      "tick": 77760,
      "bpm": 55
    },
    {
      "tick": 78780,
      "bpm": 40
    },
    {
      "tick": 79080,
      "bpm": 50
    },
    {
      "tick": 79200,
      "bpm": 55
    },
    {
      "tick": 79320,
      "bpm": 55
    },
    {
      "tick": 80100,
      "bpm": 40
    },
    {
      "tick": 80400,
      "bpm": 35
    }
  ],
  "time_signatures": [
    {
      "tick": 0,
      "numerator": 4,
      "denominator": 4
    }
  ],
  "track_type": "solo_string",
  "voice_count": 3,
  "total_notes": 599,
  "tracks": [
    {
      "role": "solo_0",
      "notes": [
        {
          "pitch": 70,
          "onset": 0.0,
          "duration": 1.5,
          "velocity": 70
        },
        {
          "pitch": 79,
          "onset": 0.0,
          "duration": 2.25,
          "velocity": 70
        },
        {
          "pitch": 77,
          "onset": 2.25,
          "duration": 0.25,
          "velocity": 70
        },
        {
          "pitch": 75,
          "onset": 2.5,
          "duration": 0.25,
          "velocity": 70
        },
        {
          "pitch": 74,
          "onset": 2.75,
          "duration": 0.25,
          "velocity": 70
        },
        {
          "pitch": 72,
          "onset": 3.0,
          "duration": 0.25,
          "velocity": 70
        },
        {
          "pitch": 70,
          "onset": 3.25,
          "duration": 0.25,
          "velocity": 70
        },
        {
          "pitch": 69,
          "onset": 3.5,
          "duration": 0.25,
          "velocity": 70
        },
        {
          "pitch": 70,
          "onset": 3.75,
          "duration": 0.125,
          "velocity": 70
        },
        {
          "pitch": 67,
          "onset": 3.875,
          "duration": 0.125,
          "velocity": 70
        },
        {
          "pitch": 67,
          "onset": 4.0,
          "duration": 1.0,
          "velocity": 70
        },
        {
          "pitch": 66,
          "onset": 5.0,
          "duration": 1.25,
          "velocity": 70
        },
        {
          "pitch": 64,
          "onset": 6.25,
          "duration": 0.25,
          "velocity": 70
        },
        {
          "pitch": 62,
          "onset": 6.5,
          "duration": 0.25,
          "velocity": 70
        },
        {
          "pitch": 64,
          "onset": 6.75,
          "duration": 0.25,
          "velocity": 70
        },
        {
          "pitch": 66,
          "onset": 7.0,
          "duration": 0.25,
          "velocity": 70
        },
        {
          "pitch": 67,
          "onset": 7.25,
          "duration": 0.25,
          "velocity": 70
        },
        {
          "pitch": 69,
          "onset": 7.5,
          "duration": 0.25,
          "velocity": 70
        },
        {
          "pitch": 72,
          "onset": 7.75,
          "duration": 0.125,
          "velocity": 70
        },
        {
          "pitch": 70,
          "onset": 7.875,
          "duration": 0.125,
          "velocity": 70
        },
        {
          "pitch": 72,
          "onset": 8.0,
          "duration": 1.25,
          "velocity": 70
        },
        {
          "pitch": 78,
          "onset": 8.0,
          "duration": 1.9688,
          "velocity": 70
        },
        {
          "pitch": 74,
          "onset": 9.25,
          "duration": 0.125,
          "velocity": 70
        },
        {
          "pitch": 72,
          "onset": 9.375,
          "duration": 0.125,
          "velocity": 70
        },
        {
          "pitch": 70,
          "onset": 9.5,
          "duration": 0.25,
          "velocity": 70
        },
        {
          "pitch": 72,
          "onset": 9.75,
          "duration": 0.25,
          "velocity": 70
        },
        {
          "pitch": 74,
          "onset": 10.0,
          "duration": 0.0625,
          "velocity": 70
        },
        {
          "pitch": 72,
          "onset": 10.0625,
          "duration": 0.0625,
          "velocity": 70
        },
        {
          "pitch": 74,
          "onset": 10.125,
          "duration": 0.0625,
          "velocity": 70
        },
        {
          "pitch": 72,
          "onset": 10.1875,
          "duration": 0.0625,
          "velocity": 70
        },
        {
          "pitch": 74,
          "onset": 10.25,
          "duration": 0.0625,
          "velocity": 70
        },
        {
          "pitch": 72,
          "onset": 10.3125,
          "duration": 0.0625,
          "velocity": 70
        },
        {
          "pitch": 74,
          "onset": 10.375,
          "duration": 0.0625,
          "velocity": 70
        },
        {
          "pitch": 72,
          "onset": 10.4375,
          "duration": 0.0625,
          "velocity": 70
        },
        {
          "pitch": 74,
          "onset": 10.5,
          "duration": 0.0625,
          "velocity": 70
        },
        {
          "pitch": 72,
          "onset": 10.5625,
          "duration": 0.0625,
          "velocity": 70
        },
        {
          "pitch": 74,
          "onset": 10.625,
          "duration": 0.0625,
          "velocity": 70
        },
        {
          "pitch": 72,
          "onset": 10.6875,
          "duration": 0.0625,
          "velocity": 70
        },
        {
          "pitch": 70,
          "onset": 10.75,
          "duration": 0.125,
          "velocity": 70
        },
        {
          "pitch": 72,
          "onset": 10.875,
          "duration": 0.125,
          "velocity": 70
        },
        {
          "pitch": 74,
          "onset": 11.0,
          "duration": 0.5,
          "velocity": 70
        },
        {
          "pitch": 69,
          "onset": 11.5,
          "duration": 0.5,
          "velocity": 70
        },
        {
          "pitch": 70,
          "onset": 12.0,
          "duration": 0.75,
          "velocity": 100
        },
        {
          "pitch": 79,
          "onset": 12.125,
          "duration": 0.625,
          "velocity": 100
        },
        {
          "pitch": 67,
          "onset": 13.25,
          "duration": 0.25,
          "velocity": 100
        },
        {
          "pitch": 69,
          "onset": 13.5,
          "duration": 0.125,
          "velocity": 100
        },
        {
          "pitch": 70,
          "onset": 13.625,
          "duration": 0.125,
          "velocity": 100
        },
        {
          "pitch": 72,
          "onset": 13.75,
          "duration": 0.125,
          "velocity": 100
        },
        {
          "pitch": 74,
          "onset": 13.875,
          "duration": 0.125,
          "velocity": 100
        },
        {
          "pitch": 75,
          "onset": 14.0,
          "duration": 1.0,
          "velocity": 100
        },
        {
          "pitch": 67,
          "onset": 15.0,
          "duration": 1.0,
          "velocity": 90
        },
        {
          "pitch": 70,
          "onset": 15.0,
          "duration": 1.0,
          "velocity": 90
        },
        {
          "pitch": 70,
          "onset": 16.0,
          "duration": 0.5,
          "velocity": 85
        },
        {
          "pitch": 69,
          "onset": 16.5,
          "duration": 0.5,
          "velocity": 80
        },
        {
          "pitch": 75,
          "onset": 17.0,
          "duration": 0.5,
          "velocity": 75
        },
        {
          "pitch": 74,
          "onset": 17.5,
          "duration": 0.5,
          "velocity": 70
        },
        {
          "pitch": 74,
          "onset": 18.0,
          "duration": 1.0,
          "velocity": 60
        },
        {
          "pitch": 74,
          "onset": 19.0,
          "duration": 1.0,
          "velocity": 100
        },
        {
          "pitch": 82,
          "onset": 19.125,
          "duration": 0.375,
          "velocity": 100
        },
        {
          "pitch": 78,
          "onset": 19.5,
          "duration": 0.5,
          "velocity": 100
        },
        {
          "pitch": 74,
          "onset": 20.0,
          "duration": 0.75,
          "velocity": 100
        },
        {
          "pitch": 79,
          "onset": 20.125,
          "duration": 0.625,
          "velocity": 100
        },
        {
          "pitch": 75,
          "onset": 20.75,
          "duration": 0.25,
          "velocity": 70
        },
        {
          "pitch": 74,
          "onset": 21.0,
          "duration": 0.25,
          "velocity": 70
        },
        {
          "pitch": 72,
          "onset": 21.25,
          "duration": 0.25,
          "velocity": 70
        },
        {
          "pitch": 70,
          "onset": 21.5,
          "duration": 0.25,
          "velocity": 70
        },
        {
          "pitch": 72,
          "onset": 21.75,
          "duration": 0.125,
          "velocity": 70
        },
        {
          "pitch": 69,
          "onset": 21.875,
          "duration": 0.125,
          "velocity": 70
        },
        {
          "pitch": 70,
          "onset": 22.0,
          "duration": 0.25,
          "velocity": 70
        },
        {
          "pitch": 66,
          "onset": 22.25,
          "duration": 0.25,
          "velocity": 70
        },
        {
          "pitch": 67,
          "onset": 22.5,
          "duration": 0.25,
          "velocity": 70
        },
        {
          "pitch": 62,
          "onset": 22.75,
          "duration": 0.25,
          "velocity": 70
        },
        {
          "pitch": 63,
          "onset": 23.0,
          "duration": 0.25,
          "velocity": 70
        },
        {
          "pitch": 74,
          "onset": 23.25,
          "duration": 0.125,
          "velocity": 70
        },
        {
          "pitch": 72,
          "onset": 23.375,
          "duration": 0.125,
          "velocity": 70
        },
        {
          "pitch": 70,
          "onset": 23.5,
          "duration": 0.125,
          "velocity": 70
        },
        {
          "pitch": 72,
          "onset": 23.625,
          "duration": 0.125,
          "velocity": 70
        },
        {
          "pitch": 72,
          "onset": 23.75,
          "duration": 0.0312,
          "velocity": 70
        },
        {
          "pitch": 74,
          "onset": 23.7812,
          "duration": 0.0312,
          "velocity": 70
        },
        {
          "pitch": 72,
          "onset": 23.8438,
          "duration": 0.0312,
          "velocity": 70
        },
        {
          "pitch": 70,
          "onset": 23.875,
          "duration": 0.0625,
          "velocity": 70
        },
        {
          "pitch": 72,
          "onset": 23.9375,
          "duration": 0.0625,
          "velocity": 70
        },
        {
          "pitch": 79,
          "onset": 24.125,
          "duration": 0.875,
          "velocity": 100
        },
        {
          "pitch": 78,
          "onset": 25.0,
          "duration": 1.0,
          "velocity": 100
        },
        {
          "pitch": 81,
          "onset": 26.0,
          "duration": 1.0,
          "velocity": 100
        },
        {
          "pitch": 72,
          "onset": 27.0,
          "duration": 1.0,
          "velocity": 70
        },
        {
          "pitch": 70,
          "onset": 28.0,
          "duration": 0.5,
          "velocity": 70
        },
        {
          "pitch": 74,
          "onset": 28.5,
          "duration": 0.5,
          "velocity": 70
        },
        {
          "pitch": 78,
          "onset": 29.0,
          "duration": 0.5,
          "velocity": 70
        },
        {
          "pitch": 81,
          "onset": 29.5,
          "duration": 0.5,
          "velocity": 65
        },
        {
          "pitch": 79,
          "onset": 30.0,
          "duration": 0.75,
          "velocity": 60
        },
        {
          "pitch": 70,
          "onset": 31.0,
          "duration": 0.5,
          "velocity": 100
        },
        {
          "pitch": 69,
          "onset": 32.0,
          "duration": 0.5,
          "velocity": 100
        },
        {
          "pitch": 82,
          "onset": 32.5,
          "duration": 0.25,
          "velocity": 100
        },
        {
          "pitch": 81,
          "onset": 32.75,
          "duration": 0.125,
          "velocity": 100
        },
        {
          "pitch": 79,
          "onset": 32.875,
          "duration": 0.125,
          "velocity": 100
        },
        {
          "pitch": 77,
          "onset": 33.0,
          "duration": 0.0625,
          "velocity": 100
        },
        {
          "pitch": 79,
          "onset": 33.0625,
          "duration": 0.0625,
          "velocity": 100
        },
        {
          "pitch": 77,
          "onset": 33.125,
          "duration": 0.0625,
          "velocity": 100
        },
        {
          "pitch": 79,
          "onset": 33.1875,
          "duration": 0.0625,
          "velocity": 100
        },
        {
          "pitch": 77,
          "onset": 33.25,
          "duration": 0.0625,
          "velocity": 100
        },
        {
          "pitch": 79,
          "onset": 33.3125,
          "duration": 0.0625,
          "velocity": 100
        },
        {
          "pitch": 77,
          "onset": 33.375,
          "duration": 0.0625,
          "velocity": 100
        },
        {
          "pitch": 79,
          "onset": 33.4375,
          "duration": 0.0625,
          "velocity": 100
        },
        {
          "pitch": 77,
          "onset": 33.5,
          "duration": 0.25,
          "velocity": 100
        },
        {
          "pitch": 76,
          "onset": 33.75,
          "duration": 0.25,
          "velocity": 100
        },
        {
          "pitch": 77,
          "onset": 34.0,
          "duration": 1.0,
          "velocity": 100
        },
        {
          "pitch": 69,
          "onset": 35.0,
          "duration": 1.0,
          "velocity": 70
        },
        {
          "pitch": 70,
          "onset": 36.0,
          "duration": 0.375,
          "velocity": 70
        },
        {
          "pitch": 77,
          "onset": 36.0,
          "duration": 0.5,
          "velocity": 70
        },
        {
          "pitch": 74,
          "onset": 36.5,
          "duration": 0.5,
          "velocity": 70
        },
        {
          "pitch": 75,
          "onset": 37.0,
          "duration": 0.75,
          "velocity": 60
        },
        {
          "pitch": 82,
          "onset": 38.0,
          "duration": 0.5,
          "velocity": 55
        },
        {
          "pitch": 79,
          "onset": 38.5,
          "duration": 0.5,
          "velocity": 55
        },
        {
          "pitch": 79,
          "onset": 39.0,
          "duration": 0.5,
          "velocity": 55
        },
        {
          "pitch": 75,
          "onset": 39.5,
          "duration": 0.5,
          "velocity": 55
        },
        {
          "pitch": 75,
          "onset": 40.0,
          "duration": 0.5,
          "velocity": 55
        },
        {
          "pitch": 73,
          "onset": 40.5,
          "duration": 0.5,
          "velocity": 60
        },
        {
          "pitch": 81,
          "onset": 41.0,
          "duration": 0.75,
          "velocity": 70
        },
        {
          "pitch": 81,
          "onset": 42.75,
          "duration": 0.25,
          "velocity": 70
        },
        {
          "pitch": 79,
          "onset": 43.0,
          "duration": 0.25,
          "velocity": 70
        },
        {
          "pitch": 77,
          "onset": 43.25,
          "duration": 0.25,
          "velocity": 70
        },
        {
          "pitch": 76,
          "onset": 43.5,
          "duration": 0.25,
          "velocity": 70
        },
        {
          "pitch": 74,
          "onset": 43.75,
          "duration": 0.25,
          "velocity": 70
        },
        {
          "pitch": 74,
          "onset": 44.5,
          "duration": 0.5,
          "velocity": 70
        },
        {
          "pitch": 79,
          "onset": 45.0,
          "duration": 0.5,
          "velocity": 70
        },
        {
          "pitch": 76,
          "onset": 45.5,
          "duration": 0.5,
          "velocity": 70
        },
        {
          "pitch": 74,
          "onset": 46.0,
          "duration": 0.5,
          "velocity": 70
        },
        {
          "pitch": 73,
          "onset": 46.5,
          "duration": 0.5,
          "velocity": 70
        },
        {
          "pitch": 69,
          "onset": 47.0,
          "duration": 0.5,
          "velocity": 70
        },
        {
          "pitch": 79,
          "onset": 47.5,
          "duration": 0.5,
          "velocity": 70
        },
        {
          "pitch": 79,
          "onset": 48.5,
          "duration": 0.5,
          "velocity": 70
        },
        {
          "pitch": 77,
          "onset": 49.0,
          "duration": 0.5,
          "velocity": 70
        },
        {
          "pitch": 79,
          "onset": 49.5,
          "duration": 0.25,
          "velocity": 70
        },
        {
          "pitch": 76,
          "onset": 49.75,
          "duration": 0.25,
          "velocity": 70
        },
        {
          "pitch": 77,
          "onset": 50.0,
          "duration": 1.0,
          "velocity": 70
        },
        {
          "pitch": 69,
          "onset": 51.0,
          "duration": 1.0,
          "velocity": 70
        },
        {
          "pitch": 69,
          "onset": 52.0,
          "duration": 0.5,
          "velocity": 70
        },
        {
          "pitch": 62,
          "onset": 52.5,
          "duration": 0.5,
          "velocity": 70
        },
        {
          "pitch": 67,
          "onset": 53.0,
          "duration": 0.5,
          "velocity": 70
        },
        {
          "pitch": 77,
          "onset": 53.5,
          "duration": 0.5,
          "velocity": 65
        },
        {
          "pitch": 76,
          "onset": 54.0,
          "duration": 1.125,
          "velocity": 55
        },
        {
          "pitch": 77,
          "onset": 55.125,
          "duration": 0.125,
          "velocity": 80
        },
        {
          "pitch": 79,
          "onset": 55.25,
          "duration": 0.125,
          "velocity": 80
        },
        {
          "pitch": 81,
          "onset": 55.375,
          "duration": 0.125,
          "velocity": 80
        },
        {
          "pitch": 82,
          "onset": 55.5,
          "duration": 0.125,
          "velocity": 80
        },
        {
          "pitch": 76,
          "onset": 55.625,
          "duration": 0.125,
          "velocity": 80
        },
        {
          "pitch": 77,
          "onset": 55.75,
          "duration": 0.125,
          "velocity": 90
        },
        {
          "pitch": 79,
          "onset": 55.875,
          "duration": 0.125,
          "velocity": 95
        },
        {
          "pitch": 74,
          "onset": 56.0,
          "duration": 1.0,
          "velocity": 100
        },
        {
          "pitch": 73,
          "onset": 57.0,
          "duration": 1.0,
          "velocity": 100
        },
        {
          "pitch": 67,
          "onset": 58.0,
          "duration": 0.25,
          "velocity": 100
        },
        {
          "pitch": 65,
          "onset": 58.25,
          "duration": 0.5,
          "velocity": 100
        },
        {
          "pitch": 67,
          "onset": 58.75,
          "duration": 0.125,
          "velocity": 100
        },
        {
          "pitch": 64,
          "onset": 58.875,
          "duration": 0.125,
          "velocity": 100
        },
        {
          "pitch": 65,
          "onset": 59.0,
          "duration": 0.5,
          "velocity": 100
        },
        {
          "pitch": 74,
          "onset": 59.5,
          "duration": 0.5,
          "velocity": 100
        },
        {
          "pitch": 74,
          "onset": 60.0,
          "duration": 0.375,
          "velocity": 100
        },
        {
          "pitch": 73,
          "onset": 60.375,
          "duration": 0.125,
          "velocity": 100
        },
        {
          "pitch": 71,
          "onset": 60.5,
          "duration": 0.25,
          "velocity": 100
        },
        {
          "pitch": 73,
          "onset": 60.75,
          "duration": 0.25,
          "velocity": 100
        },
        {
          "pitch": 74,
          "onset": 61.0,
          "duration": 0.25,
          "velocity": 100
        },
        {
          "pitch": 76,
          "onset": 61.25,
          "duration": 0.25,
          "velocity": 100
        },
        {
          "pitch": 77,
          "onset": 61.5,
          "duration": 0.25,
          "velocity": 100
        },
        {
          "pitch": 79,
          "onset": 61.75,
          "duration": 0.125,
          "velocity": 100
        },
        {
          "pitch": 76,
          "onset": 61.875,
          "duration": 0.125,
          "velocity": 100
        },
        {
          "pitch": 74,
          "onset": 62.0,
          "duration": 0.25,
          "velocity": 100
        },
        {
          "pitch": 73,
          "onset": 62.25,
          "duration": 0.0625,
          "velocity": 100
        },
        {
          "pitch": 74,
          "onset": 62.3125,
          "duration": 0.0625,
          "velocity": 100
        },
        {
          "pitch": 73,
          "onset": 62.375,
          "duration": 0.0625,
          "velocity": 100
        },
        {
          "pitch": 74,
          "onset": 62.4375,
          "duration": 0.0625,
          "velocity": 100
        },
        {
          "pitch": 73,
          "onset": 62.5,
          "duration": 0.0625,
          "velocity": 100
        },
        {
          "pitch": 74,
          "onset": 62.5625,
          "duration": 0.0625,
          "velocity": 100
        },
        {
          "pitch": 73,
          "onset": 62.625,
          "duration": 0.0625,
          "velocity": 100
        },
        {
          "pitch": 74,
          "onset": 62.6875,
          "duration": 0.0625,
          "velocity": 100
        },
        {
          "pitch": 73,
          "onset": 62.75,
          "duration": 0.0625,
          "velocity": 100
        },
        {
          "pitch": 74,
          "onset": 62.8125,
          "duration": 0.0625,
          "velocity": 100
        },
        {
          "pitch": 73,
          "onset": 62.875,
          "duration": 0.0625,
          "velocity": 100
        },
        {
          "pitch": 74,
          "onset": 62.9375,
          "duration": 0.0625,
          "velocity": 100
        },
        {
          "pitch": 73,
          "onset": 63.0,
          "duration": 0.5,
          "velocity": 100
        },
        {
          "pitch": 74,
          "onset": 63.5,
          "duration": 0.5,
          "velocity": 100
        },
        {
          "pitch": 74,
          "onset": 64.0,
          "duration": 2.25,
          "velocity": 100
        },
        {
          "pitch": 74,
          "onset": 66.25,
          "duration": 0.25,
          "velocity": 100
        },
        {
          "pitch": 72,
          "onset": 66.5,
          "duration": 0.25,
          "velocity": 100
        },
        {
          "pitch": 70,
          "onset": 66.75,
          "duration": 0.25,
          "velocity": 100
        },
        {
          "pitch": 69,
          "onset": 67.0,
          "duration": 0.125,
          "velocity": 100
        },
        {
          "pitch": 70,
          "onset": 67.125,
          "duration": 0.125,
          "velocity": 100
        },
        {
          "pitch": 69,
          "onset": 67.25,
          "duration": 0.125,
          "velocity": 100
        },
        {
          "pitch": 70,
          "onset": 67.375,
          "duration": 0.125,
          "velocity": 100
        },
        {
          "pitch": 70,
          "onset": 67.5,
          "duration": 0.0625,
          "velocity": 100
        },
        {
          "pitch": 72,
          "onset": 67.5625,
          "duration": 0.0625,
          "velocity": 100
        },
        {
          "pitch": 70,
          "onset": 67.625,
          "duration": 0.0625,
          "velocity": 100
        },
        {
          "pitch": 72,
          "onset": 67.6875,
          "duration": 0.0625,
          "velocity": 100
        },
        {
          "pitch": 70,
          "onset": 67.75,
          "duration": 0.125,
          "velocity": 100
        },
        {
          "pitch": 69,
          "onset": 67.875,
          "duration": 0.0625,
          "velocity": 100
        },
        {
          "pitch": 70,
          "onset": 67.9375,
          "duration": 0.0625,
          "velocity": 100
        },
        {
          "pitch": 72,
          "onset": 68.125,
          "duration": 0.375,
          "velocity": 100
        },
        {
          "pitch": 75,
          "onset": 68.5,
          "duration": 0.25,
          "velocity": 90
        },
        {
          "pitch": 74,
          "onset": 68.75,
          "duration": 0.25,
          "velocity": 90
        },
        {
          "pitch": 75,
          "onset": 69.0,
          "duration": 1.25,
          "velocity": 90
        },
        {
          "pitch": 78,
          "onset": 70.0,
          "duration": 0.5,
          "velocity": 75
        },
        {
          "pitch": 75,
          "onset": 70.25,
          "duration": 0.25,
          "velocity": 70
        },
        {
          "pitch": 74,
          "onset": 70.5,
          "duration": 0.25,
          "velocity": 70
        },
        {
          "pitch": 72,
          "onset": 70.75,
          "duration": 0.25,
          "velocity": 70
        },
        {
          "pitch": 70,
          "onset": 71.0,
          "duration": 0.5,
          "velocity": 70
        },
        {
          "pitch": 72,
          "onset": 71.5,
          "duration": 0.25,
          "velocity": 65
        },
        {
          "pitch": 69,
          "onset": 71.75,
          "duration": 0.25,
          "velocity": 60
        },
        {
          "pitch": 69,
          "onset": 72.0,
          "duration": 0.25,
          "velocity": 100
        },
        {
          "pitch": 79,
          "onset": 72.0,
          "duration": 0.5,
          "velocity": 100
        },
        {
          "pitch": 70,
          "onset": 72.25,
          "duration": 0.75,
          "velocity": 90
        },
        {
          "pitch": 67,
          "onset": 73.25,
          "duration": 0.25,
          "velocity": 100
        },
        {
          "pitch": 70,
          "onset": 73.5,
          "duration": 0.25,
          "velocity": 100
        },
        {
          "pitch": 74,
          "onset": 73.75,
          "duration": 0.25,
          "velocity": 100
        },
        {
          "pitch": 79,
          "onset": 74.0,
          "duration": 0.25,
          "velocity": 100
        },
        {
          "pitch": 77,
          "onset": 74.25,
          "duration": 0.25,
          "velocity": 100
        },
        {
          "pitch": 75,
          "onset": 74.5,
          "duration": 0.25,
          "velocity": 100
        },
        {
          "pitch": 74,
          "onset": 74.75,
          "duration": 0.25,
          "velocity": 100
        },
        {
          "pitch": 72,
          "onset": 75.0,
          "duration": 0.25,
          "velocity": 100
        },
        {
          "pitch": 70,
          "onset": 75.25,
          "duration": 0.25,
          "velocity": 100
        },
        {
          "pitch": 69,
          "onset": 75.5,
          "duration": 0.125,
          "velocity": 100
        },
        {
          "pitch": 67,
          "onset": 75.625,
          "duration": 0.125,
          "velocity": 100
        },
        {
          "pitch": 66,
          "onset": 75.75,
          "duration": 0.125,
          "velocity": 100
        },
        {
          "pitch": 67,
          "onset": 75.875,
          "duration": 0.125,
          "velocity": 100
        },
        {
          "pitch": 69,
          "onset": 76.0,
          "duration": 1.9688,
          "velocity": 100
        },
        {
          "pitch": 71,
          "onset": 78.0,
          "duration": 0.5,
          "velocity": 100
        },
        {
          "pitch": 71,
          "onset": 80.0,
          "duration": 0.5,
          "velocity": 70
        },
        {
          "pitch": 74,
          "onset": 80.5,
          "duration": 0.5,
          "velocity": 70
        },
        {
          "pitch": 74,
          "onset": 81.0,
          "duration": 0.5,
          "velocity": 70
        },
        {
          "pitch": 72,
          "onset": 81.5,
          "duration": 0.5,
          "velocity": 70
        },
        {
          "pitch": 75,
          "onset": 82.0,
          "duration": 0.5,
          "velocity": 70
        },
        {
          "pitch": 74,
          "onset": 82.5,
          "duration": 0.5,
          "velocity": 75
        },
        {
          "pitch": 74,
          "onset": 83.0,
          "duration": 0.5,
          "velocity": 80
        },
        {
          "pitch": 75,
          "onset": 83.5,
          "duration": 0.5,
          "velocity": 90
        },
        {
          "pitch": 75,
          "onset": 84.0,
          "duration": 0.25,
          "velocity": 100
        },
        {
          "pitch": 74,
          "onset": 84.25,
          "duration": 0.5,
          "velocity": 100
        },
        {
          "pitch": 70,
          "onset": 84.75,
          "duration": 0.25,
          "velocity": 100
        },
        {
          "pitch": 72,
          "onset": 85.0,
          "duration": 0.25,
          "velocity": 100
        },
        {
          "pitch": 74,
          "onset": 85.25,
          "duration": 0.25,
          "velocity": 100
        },
        {
          "pitch": 75,
          "onset": 85.5,
          "duration": 0.25,
          "velocity": 100
        },
        {
          "pitch": 77,
          "onset": 85.75,
          "duration": 0.125,
          "velocity": 100
        },
        {
          "pitch": 79,
          "onset": 85.875,
          "duration": 0.125,
          "velocity": 100
        },
        {
          "pitch": 80,
          "onset": 86.0,
          "duration": 0.5,
          "velocity": 100
        },
        {
          "pitch": 70,
          "onset": 86.5,
          "duration": 0.5,
          "velocity": 100
        },
        {
          "pitch": 80,
          "onset": 87.5,
          "duration": 0.5,
          "velocity": 100
        },
        {
          "pitch": 80,
          "onset": 88.5,
          "duration": 0.5,
          "velocity": 100
        },
        {
          "pitch": 79,
          "onset": 89.0,
          "duration": 1.0,
          "velocity": 100
        },
        {
          "pitch": 73,
          "onset": 90.0,
          "duration": 1.0,
          "velocity": 100
        },
        {
          "pitch": 63,
          "onset": 91.0,
          "duration": 0.25,
          "velocity": 80
        },
        {
          "pitch": 67,
          "onset": 91.25,
          "duration": 0.25,
          "velocity": 85
        },
        {
          "pitch": 70,
          "onset": 91.5,
          "duration": 0.25,
          "velocity": 90
        },
        {
          "pitch": 73,
          "onset": 91.75,
          "duration": 0.25,
          "velocity": 95
        },
        {
          "pitch": 72,
          "onset": 92.5,
          "duration": 0.5,
          "velocity": 100
        },
        {
          "pitch": 80,
          "onset": 93.125,
          "duration": 0.375,
          "velocity": 100
        },
        {
          "pitch": 79,
          "onset": 93.5,
          "duration": 0.25,
          "velocity": 100
        },
        {
          "pitch": 77,
          "onset": 93.75,
          "duration": 0.25,
          "velocity": 100
        },
        {
          "pitch": 75,
          "onset": 94.125,
          "duration": 0.875,
          "velocity": 100
        },
        {
          "pitch": 74,
          "onset": 95.0,
          "duration": 0.0625,
          "velocity": 100
        },
        {
          "pitch": 75,
          "onset": 95.0625,
          "duration": 0.0625,
          "velocity": 100
        },
        {
          "pitch": 74,
          "onset": 95.125,
          "duration": 0.0625,
          "velocity": 100
        },
        {
          "pitch": 75,
          "onset": 95.1875,
          "duration": 0.0625,
          "velocity": 100
        },
        {
          "pitch": 74,
          "onset": 95.25,
          "duration": 0.0625,
          "velocity": 100
        },
        {
          "pitch": 75,
          "onset": 95.3125,
          "duration": 0.0625,
          "velocity": 100
        },
        {
          "pitch": 74,
          "onset": 95.375,
          "duration": 0.0625,
          "velocity": 100
        },
        {
          "pitch": 75,
          "onset": 95.4375,
          "duration": 0.0625,
          "velocity": 100
        },
        {
          "pitch": 74,
          "onset": 95.5,
          "duration": 0.25,
          "velocity": 100
        },
        {
          "pitch": 75,
          "onset": 95.75,
          "duration": 0.25,
          "velocity": 100
        },
        {
          "pitch": 75,
          "onset": 96.125,
          "duration": 1.375,
          "velocity": 100
        },
        {
          "pitch": 59,
          "onset": 98.0,
          "duration": 0.25,
          "velocity": 60
        },
        {
          "pitch": 62,
          "onset": 98.25,
          "duration": 0.25,
          "velocity": 60
        },
        {
          "pitch": 65,
          "onset": 98.5,
          "duration": 0.25,
          "velocity": 60
        },
        {
          "pitch": 68,
          "onset": 98.75,
          "duration": 0.25,
          "velocity": 60
        },
        {
          "pitch": 71,
          "onset": 99.0,
          "duration": 0.25,
          "velocity": 60
        },
        {
          "pitch": 74,
          "onset": 99.25,
          "duration": 0.25,
          "velocity": 60
        },
        {
          "pitch": 77,
          "onset": 99.5,
          "duration": 0.25,
          "velocity": 60
        },
        {
          "pitch": 80,
          "onset": 99.75,
          "duration": 0.125,
          "velocity": 55
        },
        {
          "pitch": 79,
          "onset": 99.875,
          "duration": 0.125,
          "velocity": 50
        },
        {
          "pitch": 79,
          "onset": 100.125,
          "duration": 0.625,
          "velocity": 100
        },
        {
          "pitch": 80,
          "onset": 100.75,
          "duration": 0.125,
          "velocity": 100
        },
        {
          "pitch": 79,
          "onset": 100.875,
          "duration": 0.125,
          "velocity": 100
        },
        {
          "pitch": 78,
          "onset": 101.0,
          "duration": 0.125,
          "velocity": 100
        },
        {
          "pitch": 79,
          "onset": 101.125,
          "duration": 0.125,
          "velocity": 100
        },
        {
          "pitch": 74,
          "onset": 101.25,
          "duration": 0.125,
          "velocity": 100
        },
        {
          "pitch": 75,
          "onset": 101.375,
          "duration": 0.125,
          "velocity": 95
        },
        {
          "pitch": 71,
          "onset": 101.5,
          "duration": 0.125,
          "velocity": 90
        },
        {
          "pitch": 72,
          "onset": 101.625,
          "duration": 0.125,
          "velocity": 85
        },
        {
          "pitch": 66,
          "onset": 101.75,
          "duration": 0.25,
          "velocity": 80
        },
        {
          "pitch": 67,
          "onset": 102.0,
          "duration": 0.25,
          "velocity": 75
        },
        {
          "pitch": 75,
          "onset": 102.25,
          "duration": 0.5,
          "velocity": 70
        },
        {
          "pitch": 74,
          "onset": 102.75,
          "duration": 0.5,
          "velocity": 70
        },
        {
          "pitch": 72,
          "onset": 103.25,
          "duration": 0.0625,
          "velocity": 70
        },
        {
          "pitch": 74,
          "onset": 103.3125,
          "duration": 0.0625,
          "velocity": 70
        },
        {
          "pitch": 72,
          "onset": 103.375,
          "duration": 0.0625,
          "velocity": 70
        },
        {
          "pitch": 71,
          "onset": 103.4375,
          "duration": 0.0625,
          "velocity": 70
        },
        {
          "pitch": 72,
          "onset": 103.5,
          "duration": 0.5,
          "velocity": 70
        },
        {
          "pitch": 72,
          "onset": 104.0,
          "duration": 0.75,
          "velocity": 100
        },
        {
          "pitch": 70,
          "onset": 104.75,
          "duration": 0.125,
          "velocity": 100
        },
        {
          "pitch": 68,
          "onset": 104.875,
          "duration": 0.125,
          "velocity": 100
        },
        {
          "pitch": 67,
          "onset": 105.0,
          "duration": 0.25,
          "velocity": 100
        },
        {
          "pitch": 65,
          "onset": 105.25,
          "duration": 0.25,
          "velocity": 100
        },
        {
          "pitch": 63,
          "onset": 105.5,
          "duration": 0.25,
          "velocity": 100
        },
        {
          "pitch": 62,
          "onset": 105.75,
          "duration": 0.25,
          "velocity": 100
        },
        {
          "pitch": 60,
          "onset": 106.0,
          "duration": 0.25,
          "velocity": 100
        },
        {
          "pitch": 59,
          "onset": 106.25,
          "duration": 0.25,
          "velocity": 100
        },
        {
          "pitch": 60,
          "onset": 106.5,
          "duration": 0.25,
          "velocity": 100
        },
        {
          "pitch": 55,
          "onset": 106.75,
          "duration": 0.25,
          "velocity": 100
        },
        {
          "pitch": 60,
          "onset": 107.0,
          "duration": 0.25,
          "velocity": 100
        },
        {
          "pitch": 63,
          "onset": 107.25,
          "duration": 0.25,
          "velocity": 100
        },
        {
          "pitch": 67,
          "onset": 107.5,
          "duration": 0.25,
          "velocity": 100
        },
        {
          "pitch": 72,
          "onset": 107.75,
          "duration": 0.25,
          "velocity": 100
        },
        {
          "pitch": 72,
          "onset": 108.5,
          "duration": 0.25,
          "velocity": 100
        },
        {
          "pitch": 77,
          "onset": 108.75,
          "duration": 0.25,
          "velocity": 100
        },
        {
          "pitch": 71,
          "onset": 109.0,
          "duration": 0.0625,
          "velocity": 100
        },
        {
          "pitch": 72,
          "onset": 109.0625,
          "duration": 0.0625,
          "velocity": 100
        },
        {
          "pitch": 71,
          "onset": 109.125,
          "duration": 0.0625,
          "velocity": 100
        },
        {
          "pitch": 72,
          "onset": 109.1875,
          "duration": 0.0625,
          "velocity": 100
        },
        {
          "pitch": 71,
          "onset": 109.25,
          "duration": 0.0625,
          "velocity": 100
        },
        {
          "pitch": 72,
          "onset": 109.3125,
          "duration": 0.0625,
          "velocity": 100
        },
        {
          "pitch": 71,
          "onset": 109.375,
          "duration": 0.0625,
          "velocity": 100
        },
        {
          "pitch": 72,
          "onset": 109.4375,
          "duration": 0.0625,
          "velocity": 100
        },
        {
          "pitch": 71,
          "onset": 109.5,
          "duration": 0.0625,
          "velocity": 100
        },
        {
          "pitch": 72,
          "onset": 109.5625,
          "duration": 0.0625,
          "velocity": 100
        },
        {
          "pitch": 71,
          "onset": 109.625,
          "duration": 0.0625,
          "velocity": 100
        },
        {
          "pitch": 72,
          "onset": 109.6875,
          "duration": 0.0625,
          "velocity": 100
        },
        {
          "pitch": 71,
          "onset": 109.75,
          "duration": 0.0625,
          "velocity": 100
        },
        {
          "pitch": 72,
          "onset": 109.8125,
          "duration": 0.0625,
          "velocity": 100
        },
        {
          "pitch": 71,
          "onset": 109.875,
          "duration": 0.0625,
          "velocity": 100
        },
        {
          "pitch": 72,
          "onset": 109.9375,
          "duration": 0.0625,
          "velocity": 100
        },
        {
          "pitch": 71,
          "onset": 110.0,
          "duration": 0.25,
          "velocity": 100
        },
        {
          "pitch": 69,
          "onset": 110.25,
          "duration": 0.25,
          "velocity": 100
        },
        {
          "pitch": 67,
          "onset": 110.5,
          "duration": 0.25,
          "velocity": 100
        },
        {
          "pitch": 69,
          "onset": 110.75,
          "duration": 0.25,
          "velocity": 100
        },
        {
          "pitch": 71,
          "onset": 111.0,
          "duration": 0.25,
          "velocity": 100
        },
        {
          "pitch": 72,
          "onset": 111.25,
          "duration": 0.25,
          "velocity": 100
        },
        {
          "pitch": 74,
          "onset": 111.5,
          "duration": 0.25,
          "velocity": 100
        },
        {
          "pitch": 77,
          "onset": 111.75,
          "duration": 0.125,
          "velocity": 100
        },
        {
          "pitch": 75,
          "onset": 111.875,
          "duration": 0.125,
          "velocity": 100
        },
        {
          "pitch": 71,
          "onset": 112.0,
          "duration": 1.5,
          "velocity": 100
        },
        {
          "pitch": 77,
          "onset": 112.0,
          "duration": 2.25,
          "velocity": 100
        },
        {
          "pitch": 80,
          "onset": 114.25,
          "duration": 0.25,
          "velocity": 70
        },
        {
          "pitch": 79,
          "onset": 114.5,
          "duration": 0.25,
          "velocity": 70
        },
        {
          "pitch": 77,
          "onset": 114.75,
          "duration": 0.25,
          "velocity": 70
        },
        {
          "pitch": 79,
          "onset": 115.0,
          "duration": 0.25,
          "velocity": 70
        },
        {
          "pitch": 77,
          "onset": 115.25,
          "duration": 0.25,
          "velocity": 70
        },
        {
          "pitch": 75,
          "onset": 115.5,
          "duration": 0.25,
          "velocity": 70
        },
        {
          "pitch": 74,
          "onset": 115.75,
          "duration": 0.25,
          "velocity": 70
        },
        {
          "pitch": 75,
          "onset": 116.125,
          "duration": 0.625,
          "velocity": 100
        },
        {
          "pitch": 72,
          "onset": 117.25,
          "duration": 0.25,
          "velocity": 100
        },
        {
          "pitch": 74,
          "onset": 117.5,
          "duration": 0.125,
          "velocity": 100
        },
        {
          "pitch": 75,
          "onset": 117.625,
          "duration": 0.125,
          "velocity": 100
        },
        {
          "pitch": 77,
          "onset": 117.75,
          "duration": 0.125,
          "velocity": 100
        },
        {
          "pitch": 79,
          "onset": 117.875,
          "duration": 0.125,
          "velocity": 100
        },
        {
          "pitch": 80,
          "onset": 118.0,
          "duration": 1.0,
          "velocity": 100
        },
        {
          "pitch": 68,
          "onset": 119.0,
          "duration": 1.0,
          "velocity": 100
        },
        {
          "pitch": 75,
          "onset": 119.0625,
          "duration": 0.9375,
          "velocity": 100
        },
        {
          "pitch": 75,
          "onset": 120.0625,
          "duration": 0.4375,
          "velocity": 100
        },
        {
          "pitch": 74,
          "onset": 120.5,
          "duration": 0.5,
          "velocity": 100
        },
        {
          "pitch": 80,
          "onset": 121.0,
          "duration": 0.5,
          "velocity": 90
        },
        {
          "pitch": 79,
          "onset": 121.5,
          "duration": 0.5,
          "velocity": 80
        },
        {
          "pitch": 79,
          "onset": 122.0,
          "duration": 1.0,
          "velocity": 70
        },
        {
          "pitch": 75,
          "onset": 123.0,
          "duration": 0.5,
          "velocity": 100
        },
        {
          "pitch": 79,
          "onset": 123.125,
          "duration": 0.875,
          "velocity": 100
        },
        {
          "pitch": 71,
          "onset": 123.5,
          "duration": 0.5,
          "velocity": 100
        },
        {
          "pitch": 72,
          "onset": 124.0,
          "duration": 0.75,
          "velocity": 100
        },
        {
          "pitch": 79,
          "onset": 124.125,
          "duration": 0.375,
          "velocity": 100
        },
        {
          "pitch": 70,
          "onset": 124.75,
          "duration": 0.25,
          "velocity": 80
        },
        {
          "pitch": 68,
          "onset": 125.0,
          "duration": 0.25,
          "velocity": 80
        },
        {
          "pitch": 67,
          "onset": 125.25,
          "duration": 0.25,
          "velocity": 80
        },
        {
          "pitch": 68,
          "onset": 125.5,
          "duration": 0.25,
          "velocity": 80
        },
        {
          "pitch": 72,
          "onset": 125.75,
          "duration": 0.25,
          "velocity": 80
        },
        {
          "pitch": 77,
          "onset": 126.0,
          "duration": 0.25,
          "velocity": 80
        },
        {
          "pitch": 79,
          "onset": 126.25,
          "duration": 0.25,
          "velocity": 80
        },
        {
          "pitch": 75,
          "onset": 126.5,
          "duration": 0.25,
          "velocity": 90
        },
        {
          "pitch": 77,
          "onset": 126.75,
          "duration": 0.25,
          "velocity": 100
        },
        {
          "pitch": 77,
          "onset": 127.0,
          "duration": 0.0625,
          "velocity": 100
        },
        {
          "pitch": 79,
          "onset": 127.0625,
          "duration": 0.0625,
          "velocity": 100
        },
        {
          "pitch": 77,
          "onset": 127.125,
          "duration": 0.0625,
          "velocity": 100
        },
        {
          "pitch": 79,
          "onset": 127.1875,
          "duration": 0.0625,
          "velocity": 100
        },
        {
          "pitch": 77,
          "onset": 127.25,
          "duration": 0.0625,
          "velocity": 100
        },
        {
          "pitch": 79,
          "onset": 127.3125,
          "duration": 0.0625,
          "velocity": 100
        },
        {
          "pitch": 77,
          "onset": 127.375,
          "duration": 0.0625,
          "velocity": 100
        },
        {
          "pitch": 79,
          "onset": 127.4375,
          "duration": 0.0625,
          "velocity": 100
        },
        {
          "pitch": 77,
          "onset": 127.5,
          "duration": 0.0625,
          "velocity": 100
        },
        {
          "pitch": 79,
          "onset": 127.5625,
          "duration": 0.0625,
          "velocity": 100
        },
        {
          "pitch": 77,
          "onset": 127.625,
          "duration": 0.125,
          "velocity": 100
        },
        {
          "pitch": 75,
          "onset": 127.75,
          "duration": 0.125,
          "velocity": 100
        },
        {
          "pitch": 77,
          "onset": 127.875,
          "duration": 0.125,
          "velocity": 100
        },
        {
          "pitch": 72,
          "onset": 128.0,
          "duration": 1.0,
          "velocity": 100
        },
        {
          "pitch": 79,
          "onset": 128.125,
          "duration": 1.875,
          "velocity": 100
        },
        {
          "pitch": 71,
          "onset": 129.0,
          "duration": 1.0,
          "velocity": 80
        },
        {
          "pitch": 74,
          "onset": 130.0,
          "duration": 1.0,
          "velocity": 80
        },
        {
          "pitch": 77,
          "onset": 130.0,
          "duration": 1.0,
          "velocity": 80
        },
        {
          "pitch": 74,
          "onset": 131.0,
          "duration": 1.0,
          "velocity": 100
        },
        {
          "pitch": 77,
          "onset": 131.125,
          "duration": 0.875,
          "velocity": 100
        },
        {
          "pitch": 67,
          "onset": 132.0,
          "duration": 0.25,
          "velocity": 70
        },
        {
          "pitch": 71,
          "onset": 132.25,
          "duration": 0.25,
          "velocity": 70
        },
        {
          "pitch": 74,
          "onset": 132.5,
          "duration": 0.25,
          "velocity": 70
        },
        {
          "pitch": 77,
          "onset": 132.75,
          "duration": 0.25,
          "velocity": 70
        },
        {
          "pitch": 80,
          "onset": 133.0,
          "duration": 0.5,
          "velocity": 65
        },
        {
          "pitch": 79,
          "onset": 133.5,
          "duration": 0.5,
          "velocity": 60
        },
        {
          "pitch": 75,
          "onset": 134.0,
          "duration": 0.75,
          "velocity": 50
        },
        {
          "pitch": 75,
          "onset": 135.0,
          "duration": 1.0,
          "velocity": 100
        },
        {
          "pitch": 79,
          "onset": 135.125,
          "duration": 0.875,
          "velocity": 100
        },
        {
          "pitch": 75,
          "onset": 136.0,
          "duration": 0.75,
          "velocity": 100
        },
        {
          "pitch": 81,
          "onset": 136.125,
          "duration": 1.875,
          "velocity": 100
        },
        {
          "pitch": 74,
          "onset": 136.75,
          "duration": 0.25,
          "velocity": 100
        },
        {
          "pitch": 72,
          "onset": 137.0,
          "duration": 0.25,
          "velocity": 100
        },
        {
          "pitch": 74,
          "onset": 137.25,
          "duration": 0.25,
          "velocity": 100
        },
        {
          "pitch": 72,
          "onset": 137.5,
          "duration": 0.125,
          "velocity": 100
        },
        {
          "pitch": 70,
          "onset": 137.625,
          "duration": 0.125,
          "velocity": 100
        },
        {
          "pitch": 72,
          "onset": 137.75,
          "duration": 0.125,
          "velocity": 100
        },
        {
          "pitch": 69,
          "onset": 137.875,
          "duration": 0.125,
          "velocity": 100
        },
        {
          "pitch": 70,
          "onset": 138.0,
          "duration": 0.625,
          "velocity": 100
        },
        {
          "pitch": 69,
          "onset": 138.625,
          "duration": 0.125,
          "velocity": 90
        },
        {
          "pitch": 67,
          "onset": 138.75,
          "duration": 0.125,
          "velocity": 85
        },
        {
          "pitch": 66,
          "onset": 138.875,
          "duration": 0.125,
          "velocity": 80
        },
        {
          "pitch": 67,
          "onset": 139.0,
          "duration": 0.25,
          "velocity": 75
        },
        {
          "pitch": 62,
          "onset": 139.25,
          "duration": 0.25,
          "velocity": 70
        },
        {
          "pitch": 58,
          "onset": 139.5,
          "duration": 0.25,
          "velocity": 70
        },
        {
          "pitch": 55,
          "onset": 139.75,
          "duration": 0.25,
          "velocity": 70
        },
        {
          "pitch": 60,
          "onset": 140.0,
          "duration": 0.25,
          "velocity": 60
        },
        {
          "pitch": 63,
          "onset": 140.25,
          "duration": 0.25,
          "velocity": 60
        },
        {
          "pitch": 70,
          "onset": 140.5,
          "duration": 0.25,
          "velocity": 60
        },
        {
          "pitch": 67,
          "onset": 140.75,
          "duration": 0.25,
          "velocity": 60
        },
        {
          "pitch": 68,
          "onset": 141.0,
          "duration": 0.75,
          "velocity": 60
        },
        {
          "pitch": 75,
          "onset": 142.0,
          "duration": 0.5,
          "velocity": 60
        },
        {
          "pitch": 72,
          "onset": 142.5,
          "duration": 0.5,
          "velocity": 65
        },
        {
          "pitch": 72,
          "onset": 143.0,
          "duration": 0.5,
          "velocity": 70
        },
        {
          "pitch": 80,
          "onset": 143.0,
          "duration": 0.5,
          "velocity": 70
        },
        {
          "pitch": 69,
          "onset": 143.5,
          "duration": 0.5,
          "velocity": 70
        },
        {
          "pitch": 78,
          "onset": 143.5,
          "duration": 0.5,
          "velocity": 70
        },
        {
          "pitch": 69,
          "onset": 144.0,
          "duration": 0.5,
          "velocity": 90
        },
        {
          "pitch": 78,
          "onset": 144.0,
          "duration": 0.25,
          "velocity": 90
        },
        {
          "pitch": 79,
          "onset": 144.25,
          "duration": 0.25,
          "velocity": 90
        },
        {
          "pitch": 81,
          "onset": 144.5,
          "duration": 0.25,
          "velocity": 90
        },
        {
          "pitch": 78,
          "onset": 144.75,
          "duration": 0.25,
          "velocity": 90
        },
        {
          "pitch": 74,
          "onset": 145.0,
          "duration": 0.75,
          "velocity": 90
        },
        {
          "pitch": 74,
          "onset": 146.75,
          "duration": 0.25,
          "velocity": 80
        },
        {
          "pitch": 72,
          "onset": 147.0,
          "duration": 0.25,
          "velocity": 80
        },
        {
          "pitch": 70,
          "onset": 147.25,
          "duration": 0.25,
          "velocity": 80
        },
        {
          "pitch": 69,
          "onset": 147.5,
          "duration": 0.25,
          "velocity": 80
        },
        {
          "pitch": 70,
          "onset": 147.75,
          "duration": 0.125,
          "velocity": 80
        },
        {
          "pitch": 67,
          "onset": 147.875,
          "duration": 0.125,
          "velocity": 80
        },
        {
          "pitch": 67,
          "onset": 148.5,
          "duration": 0.5,
          "velocity": 80
        },
        {
          "pitch": 72,
          "onset": 149.0,
          "duration": 0.5,
          "velocity": 80
        },
        {
          "pitch": 69,
          "onset": 149.5,
          "duration": 0.5,
          "velocity": 80
        },
        {
          "pitch": 67,
          "onset": 150.0,
          "duration": 0.5,
          "velocity": 80
        },
        {
          "pitch": 66,
          "onset": 150.5,
          "duration": 0.5,
          "velocity": 80
        },
        {
          "pitch": 62,
          "onset": 151.0,
          "duration": 0.5,
          "velocity": 80
        },
        {
          "pitch": 72,
          "onset": 151.5,
          "duration": 0.5,
          "velocity": 80
        },
        {
          "pitch": 72,
          "onset": 152.75,
          "duration": 0.25,
          "velocity": 70
        },
        {
          "pitch": 70,
          "onset": 153.0,
          "duration": 0.5,
          "velocity": 70
        },
        {
          "pitch": 72,
          "onset": 153.5,
          "duration": 0.25,
          "velocity": 70
        },
        {
          "pitch": 69,
          "onset": 153.75,
          "duration": 0.25,
          "velocity": 70
        },
        {
          "pitch": 70,
          "onset": 154.0,
          "duration": 0.75,
          "velocity": 70
        },
        {
          "pitch": 68,
          "onset": 158.0,
          "duration": 0.5,
          "velocity": 80
        },
        {
          "pitch": 71,
          "onset": 158.5,
          "duration": 0.5,
          "velocity": 85
        },
        {
          "pitch": 72,
          "onset": 159.0,
          "duration": 0.5,
          "velocity": 90
        },
        {
          "pitch": 75,
          "onset": 159.5,
          "duration": 0.5,
          "velocity": 95
        },
        {
          "pitch": 69,
          "onset": 160.0,
          "duration": 1.9688,
          "velocity": 110
        },
        {
          "pitch": 79,
          "onset": 160.125,
          "duration": 0.875,
          "velocity": 110
        },
        {
          "pitch": 78,
          "onset": 161.0,
          "duration": 1.0,
          "velocity": 110
        },
        {
          "pitch": 82,
          "onset": 162.0,
          "duration": 0.75,
          "velocity": 120
        },
        {
          "pitch": 81,
          "onset": 162.75,
          "duration": 0.0938,
          "velocity": 120
        },
        {
          "pitch": 79,
          "onset": 162.8438,
          "duration": 0.0938,
          "velocity": 120
        },
        {
          "pitch": 78,
          "onset": 162.9062,
          "duration": 0.0938,
          "velocity": 120
        },
        {
          "pitch": 69,
          "onset": 163.0,
          "duration": 0.75,
          "velocity": 120
        },
        {
          "pitch": 79,
          "onset": 163.125,
          "duration": 0.875,
          "velocity": 120
        },
        {
          "pitch": 69,
          "onset": 164.0,
          "duration": 0.75,
          "velocity": 100
        },
        {
          "pitch": 79,
          "onset": 164.0625,
          "duration": 0.6875,
          "velocity": 100
        },
        {
          "pitch": 70,
          "onset": 164.75,
          "duration": 0.25,
          "velocity": 100
        },
        {
          "pitch": 72,
          "onset": 165.0,
          "duration": 0.25,
          "velocity": 100
        },
        {
          "pitch": 74,
          "onset": 165.25,
          "duration": 0.25,
          "velocity": 100
        },
        {
          "pitch": 76,
          "onset": 165.5,
          "duration": 0.25,
          "velocity": 100
        },
        {
          "pitch": 78,
          "onset": 165.75,
          "duration": 0.25,
          "velocity": 100
        },
        {
          "pitch": 79,
          "onset": 166.0,
          "duration": 0.125,
          "velocity": 100
        },
        {
          "pitch": 81,
          "onset": 166.125,
          "duration": 0.125,
          "velocity": 100
        },
        {
          "pitch": 82,
          "onset": 166.25,
          "duration": 0.125,
          "velocity": 100
        },
        {
          "pitch": 81,
          "onset": 166.375,
          "duration": 0.125,
          "velocity": 100
        },
        {
          "pitch": 82,
          "onset": 166.5,
          "duration": 0.125,
          "velocity": 100
        },
        {
          "pitch": 79,
          "onset": 166.625,
          "duration": 0.125,
          "velocity": 100
        },
        {
          "pitch": 80,
          "onset": 166.75,
          "duration": 0.125,
          "velocity": 100
        },
        {
          "pitch": 78,
          "onset": 166.875,
          "duration": 0.0625,
          "velocity": 100
        },
        {
          "pitch": 79,
          "onset": 166.9375,
          "duration": 0.0625,
          "velocity": 100
        },
        {
          "pitch": 79,
          "onset": 167.0,
          "duration": 0.5,
          "velocity": 100
        },
        {
          "pitch": 78,
          "onset": 167.5,
          "duration": 0.0625,
          "velocity": 100
        },
        {
          "pitch": 79,
          "onset": 167.5625,
          "duration": 0.0625,
          "velocity": 100
        },
        {
          "pitch": 78,
          "onset": 167.625,
          "duration": 0.0625,
          "velocity": 100
        },
        {
          "pitch": 76,
          "onset": 167.6875,
          "duration": 0.0625,
          "velocity": 100
        },
        {
          "pitch": 78,
          "onset": 167.75,
          "duration": 0.25,
          "velocity": 100
        },
        {
          "pitch": 79,
          "onset": 168.0,
          "duration": 0.5,
          "velocity": 100
        },
        {
          "pitch": 70,
          "onset": 168.5,
          "duration": 3.0,
          "velocity": 120
        },
        {
          "pitch": 79,
          "onset": 168.625,
          "duration": 2.875,
          "velocity": 120
        },
        {
          "pitch": 79,
          "onset": 173.25,
          "duration": 0.25,
          "velocity": 1
        }
      ]
    },
    {
      "role": "solo_1",
      "notes": [
        {
          "pitch": 62,
          "onset": 0.0,
          "duration": 0.5,
          "velocity": 70
        },
        {
          "pitch": 72,
          "onset": 4.0,
          "duration": 1.9688,
          "velocity": 70
        },
        {
          "pitch": 62,
          "onset": 8.0,
          "duration": 0.5,
          "velocity": 70
        },
        {
          "pitch": 62,
          "onset": 12.0,
          "duration": 0.5,
          "velocity": 100
        },
        {
          "pitch": 65,
          "onset": 16.0,
          "duration": 1.0,
          "velocity": 80
        },
        {
          "pitch": 62,
          "onset": 19.0,
          "duration": 0.5,
          "velocity": 100
        },
        {
          "pitch": 63,
          "onset": 20.0,
          "duration": 0.5,
          "velocity": 100
        },
        {
          "pitch": 74,
          "onset": 24.0,
          "duration": 1.9688,
          "velocity": 100
        },
        {
          "pitch": 62,
          "onset": 27.0,
          "duration": 1.0,
          "velocity": 70
        },
        {
          "pitch": 62,
          "onset": 28.0,
          "duration": 1.0,
          "velocity": 70
        },
        {
          "pitch": 65,
          "onset": 31.0,
          "duration": 0.5,
          "velocity": 100
        },
        {
          "pitch": 64,
          "onset": 32.0,
          "duration": 0.5,
          "velocity": 100
        },
        {
          "pitch": 62,
          "onset": 35.0,
          "duration": 1.0,
          "velocity": 70
        },
        {
          "pitch": 67,
          "onset": 36.0,
          "duration": 0.375,
          "velocity": 70
        },
        {
          "pitch": 70,
          "onset": 39.0,
          "duration": 0.5,
          "velocity": 55
        },
        {
          "pitch": 67,
          "onset": 39.5,
          "duration": 0.5,
          "velocity": 55
        },
        {
          "pitch": 67,
          "onset": 40.0,
          "duration": 0.75,
          "velocity": 55
        },
        {
          "pitch": 65,
          "onset": 42.0,
          "duration": 0.75,
          "velocity": 70
        },
        {
          "pitch": 64,
          "onset": 44.0,
          "duration": 0.5625,
          "velocity": 70
        },
        {
          "pitch": 62,
          "onset": 48.0,
          "duration": 0.5,
          "velocity": 70
        },
        {
          "pitch": 60,
          "onset": 51.0,
          "duration": 1.0,
          "velocity": 70
        },
        {
          "pitch": 58,
          "onset": 52.0,
          "duration": 0.75,
          "velocity": 70
        },
        {
          "pitch": 67,
          "onset": 56.0,
          "duration": 1.5,
          "velocity": 100
        },
        {
          "pitch": 64,
          "onset": 60.0,
          "duration": 0.75,
          "velocity": 100
        },
        {
          "pitch": 62,
          "onset": 64.0,
          "duration": 1.0,
          "velocity": 100
        },
        {
          "pitch": 66,
          "onset": 68.0,
          "duration": 0.5,
          "velocity": 100
        },
        {
          "pitch": 62,
          "onset": 72.0,
          "duration": 0.5,
          "velocity": 100
        },
        {
          "pitch": 67,
          "onset": 76.0,
          "duration": 1.0,
          "velocity": 100
        },
        {
          "pitch": 66,
          "onset": 77.0,
          "duration": 1.0,
          "velocity": 100
        },
        {
          "pitch": 65,
          "onset": 78.0,
          "duration": 0.75,
          "velocity": 100
        },
        {
          "pitch": 67,
          "onset": 78.75,
          "duration": 0.125,
          "velocity": 100
        },
        {
          "pitch": 68,
          "onset": 78.875,
          "duration": 0.125,
          "velocity": 100
        },
        {
          "pitch": 67,
          "onset": 79.0,
          "duration": 0.25,
          "velocity": 100
        },
        {
          "pitch": 65,
          "onset": 79.25,
          "duration": 0.25,
          "velocity": 100
        },
        {
          "pitch": 63,
          "onset": 79.5,
          "duration": 0.25,
          "velocity": 90
        },
        {
          "pitch": 65,
          "onset": 79.75,
          "duration": 0.125,
          "velocity": 80
        },
        {
          "pitch": 62,
          "onset": 79.875,
          "duration": 0.125,
          "velocity": 70
        },
        {
          "pitch": 62,
          "onset": 80.0,
          "duration": 0.75,
          "velocity": 70
        },
        {
          "pitch": 63,
          "onset": 81.0,
          "duration": 0.75,
          "velocity": 70
        },
        {
          "pitch": 65,
          "onset": 82.0,
          "duration": 0.75,
          "velocity": 70
        },
        {
          "pitch": 67,
          "onset": 83.0,
          "duration": 0.75,
          "velocity": 70
        },
        {
          "pitch": 65,
          "onset": 84.0,
          "duration": 0.75,
          "velocity": 100
        },
        {
          "pitch": 62,
          "onset": 87.0,
          "duration": 0.75,
          "velocity": 100
        },
        {
          "pitch": 63,
          "onset": 88.0,
          "duration": 0.75,
          "velocity": 100
        },
        {
          "pitch": 56,
          "onset": 92.0,
          "duration": 0.5,
          "velocity": 100
        },
        {
          "pitch": 72,
          "onset": 93.0,
          "duration": 0.75,
          "velocity": 100
        },
        {
          "pitch": 65,
          "onset": 94.0,
          "duration": 0.75,
          "velocity": 100
        },
        {
          "pitch": 66,
          "onset": 96.0,
          "duration": 1.5,
          "velocity": 100
        },
        {
          "pitch": 72,
          "onset": 100.0,
          "duration": 0.5,
          "velocity": 100
        },
        {
          "pitch": 62,
          "onset": 108.0,
          "duration": 0.5,
          "velocity": 100
        },
        {
          "pitch": 62,
          "onset": 112.0,
          "duration": 0.75,
          "velocity": 100
        },
        {
          "pitch": 67,
          "onset": 116.0,
          "duration": 0.75,
          "velocity": 100
        },
        {
          "pitch": 60,
          "onset": 119.0,
          "duration": 0.25,
          "velocity": 100
        },
        {
          "pitch": 65,
          "onset": 120.0,
          "duration": 0.75,
          "velocity": 100
        },
        {
          "pitch": 63,
          "onset": 123.0,
          "duration": 0.75,
          "velocity": 100
        },
        {
          "pitch": 63,
          "onset": 124.0,
          "duration": 0.75,
          "velocity": 100
        },
        {
          "pitch": 62,
          "onset": 128.0,
          "duration": 0.75,
          "velocity": 100
        },
        {
          "pitch": 67,
          "onset": 131.0,
          "duration": 0.75,
          "velocity": 100
        },
        {
          "pitch": 60,
          "onset": 132.0,
          "duration": 0.5,
          "velocity": 70
        },
        {
          "pitch": 67,
          "onset": 135.0,
          "duration": 0.75,
          "velocity": 100
        },
        {
          "pitch": 66,
          "onset": 136.0,
          "duration": 0.25,
          "velocity": 100
        },
        {
          "pitch": 58,
          "onset": 146.0,
          "duration": 0.75,
          "velocity": 90
        },
        {
          "pitch": 55,
          "onset": 154.75,
          "duration": 0.25,
          "velocity": 70
        },
        {
          "pitch": 57,
          "onset": 155.0,
          "duration": 0.5,
          "velocity": 70
        },
        {
          "pitch": 60,
          "onset": 155.5,
          "duration": 0.25,
          "velocity": 70
        },
        {
          "pitch": 58,
          "onset": 155.75,
          "duration": 0.25,
          "velocity": 70
        },
        {
          "pitch": 60,
          "onset": 156.0,
          "duration": 0.5,
          "velocity": 60
        },
        {
          "pitch": 62,
          "onset": 156.5,
          "duration": 0.5,
          "velocity": 65
        },
        {
          "pitch": 63,
          "onset": 157.0,
          "duration": 0.5,
          "velocity": 70
        },
        {
          "pitch": 67,
          "onset": 157.5,
          "duration": 0.5,
          "velocity": 75
        },
        {
          "pitch": 62,
          "onset": 160.0,
          "duration": 0.75,
          "velocity": 110
        },
        {
          "pitch": 64,
          "onset": 163.0,
          "duration": 0.5,
          "velocity": 120
        },
        {
          "pitch": 62,
          "onset": 164.0,
          "duration": 0.25,
          "velocity": 100
        },
        {
          "pitch": 62,
          "onset": 168.5,
          "duration": 0.75,
          "velocity": 110
        }
      ]
    },
    {
      "role": "solo_2",
      "notes": [
        {
          "pitch": 55,
          "onset": 0.0,
          "duration": 0.5,
          "velocity": 70
        },
        {
          "pitch": 57,
          "onset": 4.0,
          "duration": 0.5,
          "velocity": 70
        },
        {
          "pitch": 55,
          "onset": 12.0,
          "duration": 0.5,
          "velocity": 100
        },
        {
          "pitch": 62,
          "onset": 24.0,
          "duration": 0.5,
          "velocity": 100
        },
        {
          "pitch": 55,
          "onset": 28.0,
          "duration": 0.5,
          "velocity": 70
        },
        {
          "pitch": 55,
          "onset": 31.0,
          "duration": 0.5,
          "velocity": 100
        },
        {
          "pitch": 61,
          "onset": 32.0,
          "duration": 0.5,
          "velocity": 100
        },
        {
          "pitch": 57,
          "onset": 56.0,
          "duration": 1.0,
          "velocity": 100
        },
        {
          "pitch": 57,
          "onset": 60.0,
          "duration": 0.5,
          "velocity": 100
        },
        {
          "pitch": 57,
          "onset": 68.0,
          "duration": 0.25,
          "velocity": 100
        },
        {
          "pitch": 55,
          "onset": 72.0,
          "duration": 0.25,
          "velocity": 100
        },
        {
          "pitch": 62,
          "onset": 76.0,
          "duration": 0.5,
          "velocity": 100
        },
        {
          "pitch": 55,
          "onset": 78.0,
          "duration": 0.25,
          "velocity": 100
        },
        {
          "pitch": 57,
          "onset": 80.0,
          "duration": 0.25,
          "velocity": 70
        },
        {
          "pitch": 56,
          "onset": 84.0,
          "duration": 0.25,
          "velocity": 100
        },
        {
          "pitch": 65,
          "onset": 93.0,
          "duration": 0.25,
          "velocity": 100
        },
        {
          "pitch": 58,
          "onset": 94.0,
          "duration": 0.25,
          "velocity": 100
        },
        {
          "pitch": 57,
          "onset": 96.0,
          "duration": 0.5,
          "velocity": 100
        },
        {
          "pitch": 63,
          "onset": 100.0,
          "duration": 0.25,
          "velocity": 100
        },
        {
          "pitch": 55,
          "onset": 112.0,
          "duration": 0.25,
          "velocity": 100
        },
        {
          "pitch": 60,
          "onset": 116.0,
          "duration": 0.25,
          "velocity": 100
        },
        {
          "pitch": 58,
          "onset": 120.0,
          "duration": 0.25,
          "velocity": 100
        },
        {
          "pitch": 55,
          "onset": 123.0,
          "duration": 0.25,
          "velocity": 100
        },
        {
          "pitch": 56,
          "onset": 124.0,
          "duration": 0.25,
          "velocity": 100
        },
        {
          "pitch": 55,
          "onset": 128.0,
          "duration": 0.25,
          "velocity": 100
        },
        {
          "pitch": 59,
          "onset": 131.0,
          "duration": 0.25,
          "velocity": 100
        },
        {
          "pitch": 60,
          "onset": 135.0,
          "duration": 0.25,
          "velocity": 100
        },
        {
          "pitch": 57,
          "onset": 148.0,
          "duration": 0.5,
          "velocity": 80
        },
        {
          "pitch": 55,
          "onset": 152.0,
          "duration": 0.75,
          "velocity": 80
        },
        {
          "pitch": 60,
          "onset": 160.0,
          "duration": 0.25,
          "velocity": 110
        },
        {
          "pitch": 61,
          "onset": 163.0,
          "duration": 0.25,
          "velocity": 120
        },
        {
          "pitch": 55,
          "onset": 168.5,
          "duration": 0.5,
          "velocity": 120
        }
      ]
    }
  ]
}