{
  "bwv": 1012,
  "category": "solo_cello_suite",
  "instrument": "cello",
  "form": "",
  "movement": 2,
  "ticks_per_beat": 384,
  "duration_seconds": 359.3,
  "tempos": [
    {
      "tick": 0,
      "bpm": 30
    },
    {
      "tick": 24,
      "bpm": 120
    },
    {
      "tick": 1412,
      "bpm": 30
    },
    {
      "tick": 2112,
      "bpm": 25
    },
    {
      "tick": 2208,
      "bpm": 25
    },
    {
      "tick": 2256,
      "bpm": 25
    },
    {
      "tick": 2304,
      "bpm": 30
    },
    {
      "tick": 2880,
      "bpm": 25
    },
    {
      "tick": 2976,
      "bpm": 25
    },
    {
      "tick": 3024,
      "bpm": 25
    },
    {
      "tick": 3072,
      "bpm": 30
    },
    {
      "tick": 3744,
      "bpm": 25
    },
    {
      "tick": 3792,
      "bpm": 25
    },
    {
      "tick": 3840,
      "bpm": 30
    },
    {
      "tick": 4512,
      "bpm": 25
    },
    {
      "tick": 4560,
      "bpm": 25
    },
    {
      "tick": 4608,
      "bpm": 30
    },
    {
      "tick": 4896,
      "bpm": 25
    },
    {
      "tick": 4944,
      "bpm": 25
    },
    {
      "tick": 4992,
      "bpm": 30
    },
    {
      "tick": 5664,
      "bpm": 25
    },
    {
      "tick": 5712,
      "bpm": 25
    },
    {
      "tick": 5760,
      "bpm": 30
    },
    {
      "tick": 7872,
      "bpm": 25
    },
    {
      "tick": 7968,
      "bpm": 25
    },
    {
      "tick": 8064,
      "bpm": 30
    },
    {
      "tick": 10848,
      "bpm": 25
    },
    {
      "tick": 10896,
      "bpm": 25
    },
    {
      "tick": 10944,
      "bpm": 30
    },
    {
      "tick": 12960,
      "bpm": 25
    },
    {
      "tick": 13008,
      "bpm": 25
    },
    {
      "tick": 13056,
      "bpm": 25
    },
    {
      "tick": 13344,
      "bpm": 25
    },
    {
      "tick": 13392,
      "bpm": 25
    },
    {
      "tick": 13728,
      "bpm": 30
    },
    {
      "tick": 14496,
      "bpm": 25
    },
    {
      "tick": 14544,
      "bpm": 20
    },
    {
      "tick": 14592,
      "bpm": 30
    },
    {
      "tick": 15264,
      "bpm": 25
    },
    {
      "tick": 15312,
      "bpm": 25
    },
    {
      "tick": 15336,
      "bpm": 20
    },
    {
      "tick": 15360,
      "bpm": 30
    },
    {
      "tick": 15936,
      "bpm": 25
    },
    {
      "tick": 16032,
      "bpm": 25
    },
    {
      "tick": 16080,
      "bpm": 25
    },
    {
      "tick": 16104,
      "bpm": 20
    },
    {
      "tick": 16128,
      "bpm": 30
    },
    {
      "tick": 17184,
      "bpm": 25
    },
    {
      "tick": 17232,
      "bpm": 25
    },
    {
      "tick": 17280,
      "bpm": 30
    },
    {
      "tick": 20160,
      "bpm": 25
    },
    {
      "tick": 20256,
      "bpm": 25
    },
    {
      "tick": 20352,
      "bpm": 30
    },
    {
      "tick": 23136,
      "bpm": 25
    },
    {
      "tick": 23184,
      "bpm": 25
    },
    {
      "tick": 23232,
      "bpm": 30
    },
    {
      "tick": 25152,
      "bpm": 25
    },
    {
      "tick": 25200,
      "bpm": 25
    },
    {
      "tick": 25248,
      "bpm": 25
    },
    {
      "tick": 25296,
      "bpm": 20
    },
    {
      "tick": 25344,
      "bpm": 25
    },
    {
      "tick": 25536,
      "bpm": 25
    },
    {
      "tick": 25584,
      "bpm": 20
    },
    {
      "tick": 26016,
      "bpm": 25
    },
    {
      "tick": 26112,
      "bpm": 30
    },
    {
      "tick": 28704,
      "bpm": 25
    },
    {
      "tick": 28752,
      "bpm": 25
    },
    {
      "tick": 28776,
      "bpm": 20
    },
    {
      "tick": 28800,
      "bpm": 25
    },
    {
      "tick": 29040,
      "bpm": 25
    },
    {
      "tick": 29088,
      "bpm": 25
    },
    {
      "tick": 29136,
      "bpm": 25
    },
    {
      "tick": 29184,
      "bpm": 30
    },
    {
      "tick": 31392,
      "bpm": 25
    },
    {
      "tick": 31440,
      "bpm": 25
    },
    {
      "tick": 31488,
      "bpm": 25
    },
    {
      "tick": 31584,
      "bpm": 30
    },
    {
      "tick": 34464,
      "bpm": 25
    },
    {
      "tick": 34512,
      "bpm": 25
    },
    {
      "tick": 34560,
      "bpm": 30
    },
    {
      "tick": 35904,
      "bpm": 25
    },
    {
      "tick": 36000,
      "bpm": 25
    },
    {
      "tick": 36048,
      "bpm": 25
    },
    {
      "tick": 36096,
      "bpm": 30
    },
    {
      "tick": 36672,
      "bpm": 25
    },
    {
      "tick": 36768,
      "bpm": 25
    },
    {
      "tick": 36816,
      "bpm": 20
    },
    {
      "tick": 36864,
      "bpm": 30
    },
    {
      "tick": 41664,
      "bpm": 25
    },
    {
      "tick": 41712,
      "bpm": 25
    },
    {
      "tick": 41760,
      "bpm": 20
    },
    {
      "tick": 41808,
      "bpm": 20
    },
    {
      "tick": 42000,
      "bpm": 30
    },
    {
      "tick": 43584,
      "bpm": 25
    },
    {
      "tick": 43632,
      "bpm": 25
    },
    {
      "tick": 43680,
      "bpm": 25
    },
    {
      "tick": 43728,
      "bpm": 20
    },
    {
      "tick": 43776,
      "bpm": 25
    },
    {
      "tick": 43872,
      "bpm": 25
    },
    {
      "tick": 43920,
      "bpm": 20
    },
    {
      "tick": 44448,
      "bpm": 25
    },
    {
      "tick": 44544,
      "bpm": 30
    },
    {
      "tick": 45120,
      "bpm": 25
    },
    {
      "tick": 45216,
      "bpm": 25
    },
    {
      "tick": 45264,
      "bpm": 25
    },
    {
      "tick": 45288,
      "bpm": 20
    },
    {
      "tick": 45312,
      "bpm": 30
    },
    {
      "tick": 47040,
      "bpm": 25
    },
    {
      "tick": 47088,
      "bpm": 25
    },
    {
      "tick": 47136,
      "bpm": 25
    },
    {
      "tick": 47184,
      "bpm": 20
    },
    {
      "tick": 47232,
      "bpm": 25
    },
    {
      "tick": 47424,
      "bpm": 25
    },
    {
      "tick": 47472,
      "bpm": 25
    },
    {
      "tick": 47520,
      "bpm": 20
    },
    {
      "tick": 47568,
      "bpm": 20
    },
    {
      "tick": 47616,
      "bpm": 30
    },
    {
      "tick": 52896,
      "bpm": 25
    },
    {
      "tick": 52944,
      "bpm": 25
    },
    {
      "tick": 52992,
      "bpm": 30
    },
    {
      "tick": 55104,
      "bpm": 25
    },
    {
      "tick": 55152,
      "bpm": 25
    },
    {
      "tick": 55200,
      "bpm": 25
    },
    {
      "tick": 55248,
      "bpm": 20
    },
    {
      "tick": 55296,
      "bpm": 25
    },
    {
      "tick": 56256,
      "bpm": 25
    },
    {
      "tick": 56304,
      "bpm": 25
    },
    {
      "tick": 56352,
      "bpm": 20
    },
    {
      "tick": 56400,
      "bpm": 20
    },
    {
      "tick": 56448,
      "bpm": 25
    },
    {
      "tick": 56688,
      "bpm": 25
    },
    {
      "tick": 56736,
      "bpm": 25
    },
    {
      "tick": 56784,
      "bpm": 20
    },
    {
      "tick": 56832,
      "bpm": 30
    },
    {
      "tick": 58608,
      "bpm": 25
    },
    {
      "tick": 58656,
      "bpm": 25
    },
    {
      "tick": 58704,
      "bpm": 25
    },
    {
      "tick": 58848,
      "bpm": 30
    },
    {
      "tick": 60096,
      "bpm": 25
    },
    {
      "tick": 60144,
      "bpm": 25
    },
    {
      "tick": 60192,
      "bpm": 25
    },
    {
      "tick": 60240,
      "bpm": 20
    },
    {
      "tick": 60432,
      "bpm": 30
    },
    {
      "tick": 62016,
      "bpm": 25
    },
    {
      "tick": 62064,
      "bpm": 25
    },
    {
      "tick": 62112,
      "bpm": 25
    },
    {
      "tick": 62160,
      "bpm": 20
    },
    {
      "tick": 62208,
      "bpm": 25
    },
    {
      "tick": 62304,
      "bpm": 25
    },
    {
      "tick": 62352,
      "bpm": 20
    }
  ],
  "time_signatures": [
    {
      "tick": 0,
      "numerator": 8,
      "denominator": 8
    }
  ],
  "track_type": "solo_string",
  "voice_count": 2,
  "total_notes": 1217,
  "tracks": [
    {
      "role": "solo_0",
      "notes": [
        {
          "pitch": 50,
          "onset": 0.0,
          "duration": 0.125,
          "velocity": 1
        },
        {
          "pitch": 66,
          "onset": 3.75,
          "duration": 0.25,
          "velocity": 80
        },
        {
          "pitch": 57,
          "onset": 4.0,
          "duration": 1.0,
          "velocity": 80
        },
        {
          "pitch": 66,
          "onset": 4.125,
          "duration": 1.0,
          "velocity": 80
        },
        {
          "pitch": 64,
          "onset": 5.125,
          "duration": 0.125,
          "velocity": 80
        },
        {
          "pitch": 67,
          "onset": 5.25,
          "duration": 0.125,
          "velocity": 80
        },
        {
          "pitch": 66,
          "onset": 5.375,
          "duration": 0.125,
          "velocity": 80
        },
        {
          "pitch": 64,
          "onset": 5.5,
          "duration": 0.125,
          "velocity": 80
        },
        {
          "pitch": 62,
          "onset": 5.625,
          "duration": 0.125,
          "velocity": 80
        },
        {
          "pitch": 64,
          "onset": 5.75,
          "duration": 0.0625,
          "velocity": 80
        },
        {
          "pitch": 61,
          "onset": 5.8125,
          "duration": 0.0625,
          "velocity": 80
        },
        {
          "pitch": 62,
          "onset": 5.875,
          "duration": 0.125,
          "velocity": 80
        },
        {
          "pitch": 62,
          "onset": 6.0,
          "duration": 0.5,
          "velocity": 80
        },
        {
          "pitch": 61,
          "onset": 6.5,
          "duration": 0.0312,
          "velocity": 80
        },
        {
          "pitch": 62,
          "onset": 6.5312,
          "duration": 0.0312,
          "velocity": 80
        },
        {
          "pitch": 61,
          "onset": 6.5938,
          "duration": 0.0312,
          "velocity": 80
        },
        {
          "pitch": 62,
          "onset": 6.625,
          "duration": 0.0312,
          "velocity": 80
        },
        {
          "pitch": 61,
          "onset": 6.6562,
          "duration": 0.0312,
          "velocity": 80
        },
        {
          "pitch": 62,
          "onset": 6.7188,
          "duration": 0.0312,
          "velocity": 80
        },
        {
          "pitch": 61,
          "onset": 6.75,
          "duration": 0.125,
          "velocity": 80
        },
        {
          "pitch": 62,
          "onset": 6.875,
          "duration": 0.0625,
          "velocity": 80
        },
        {
          "pitch": 64,
          "onset": 6.9375,
          "duration": 0.0625,
          "velocity": 80
        },
        {
          "pitch": 62,
          "onset": 7.0,
          "duration": 0.125,
          "velocity": 80
        },
        {
          "pitch": 61,
          "onset": 7.125,
          "duration": 0.125,
          "velocity": 80
        },
        {
          "pitch": 59,
          "onset": 7.25,
          "duration": 0.125,
          "velocity": 80
        },
        {
          "pitch": 57,
          "onset": 7.375,
          "duration": 0.125,
          "velocity": 80
        },
        {
          "pitch": 59,
          "onset": 7.5,
          "duration": 0.0625,
          "velocity": 80
        },
        {
          "pitch": 61,
          "onset": 7.5625,
          "duration": 0.0625,
          "velocity": 80
        },
        {
          "pitch": 59,
          "onset": 7.625,
          "duration": 0.0625,
          "velocity": 80
        },
        {
          "pitch": 61,
          "onset": 7.6875,
          "duration": 0.0625,
          "velocity": 80
        },
        {
          "pitch": 61,
          "onset": 7.75,
          "duration": 0.125,
          "velocity": 80
        },
        {
          "pitch": 59,
          "onset": 7.875,
          "duration": 0.0625,
          "velocity": 80
        },
        {
          "pitch": 61,
          "onset": 7.9375,
          "duration": 0.0625,
          "velocity": 80
        },
        {
          "pitch": 62,
          "onset": 8.0,
          "duration": 0.75,
          "velocity": 80
        },
        {
          "pitch": 69,
          "onset": 8.75,
          "duration": 0.375,
          "velocity": 80
        },
        {
          "pitch": 67,
          "onset": 9.125,
          "duration": 0.125,
          "velocity": 80
        },
        {
          "pitch": 66,
          "onset": 9.25,
          "duration": 0.125,
          "velocity": 80
        },
        {
          "pitch": 64,
          "onset": 9.375,
          "duration": 0.125,
          "velocity": 80
        },
        {
          "pitch": 62,
          "onset": 9.5,
          "duration": 0.0625,
          "velocity": 80
        },
        {
          "pitch": 61,
          "onset": 9.5625,
          "duration": 0.0625,
          "velocity": 80
        },
        {
          "pitch": 62,
          "onset": 9.625,
          "duration": 0.0625,
          "velocity": 80
        },
        {
          "pitch": 64,
          "onset": 9.6875,
          "duration": 0.0625,
          "velocity": 80
        },
        {
          "pitch": 66,
          "onset": 9.75,
          "duration": 0.0625,
          "velocity": 80
        },
        {
          "pitch": 64,
          "onset": 9.8125,
          "duration": 0.0625,
          "velocity": 80
        },
        {
          "pitch": 67,
          "onset": 9.875,
          "duration": 0.0625,
          "velocity": 80
        },
        {
          "pitch": 66,
          "onset": 9.9375,
          "duration": 0.0625,
          "velocity": 80
        },
        {
          "pitch": 67,
          "onset": 10.0,
          "duration": 0.3125,
          "velocity": 80
        },
        {
          "pitch": 66,
          "onset": 10.3125,
          "duration": 0.0625,
          "velocity": 80
        },
        {
          "pitch": 64,
          "onset": 10.375,
          "duration": 0.0625,
          "velocity": 80
        },
        {
          "pitch": 66,
          "onset": 10.4375,
          "duration": 0.0625,
          "velocity": 80
        },
        {
          "pitch": 67,
          "onset": 10.5,
          "duration": 0.125,
          "velocity": 80
        },
        {
          "pitch": 66,
          "onset": 10.625,
          "duration": 0.125,
          "velocity": 80
        },
        {
          "pitch": 67,
          "onset": 10.75,
          "duration": 0.125,
          "velocity": 80
        },
        {
          "pitch": 71,
          "onset": 10.875,
          "duration": 0.125,
          "velocity": 80
        },
        {
          "pitch": 67,
          "onset": 11.0,
          "duration": 0.0312,
          "velocity": 80
        },
        {
          "pitch": 69,
          "onset": 11.0312,
          "duration": 0.0312,
          "velocity": 80
        },
        {
          "pitch": 67,
          "onset": 11.0938,
          "duration": 0.0312,
          "velocity": 80
        },
        {
          "pitch": 69,
          "onset": 11.125,
          "duration": 0.0312,
          "velocity": 80
        },
        {
          "pitch": 67,
          "onset": 11.1562,
          "duration": 0.0312,
          "velocity": 80
        },
        {
          "pitch": 69,
          "onset": 11.2188,
          "duration": 0.0312,
          "velocity": 80
        },
        {
          "pitch": 67,
          "onset": 11.25,
          "duration": 0.5,
          "velocity": 80
        },
        {
          "pitch": 66,
          "onset": 11.75,
          "duration": 0.125,
          "velocity": 80
        },
        {
          "pitch": 67,
          "onset": 11.875,
          "duration": 0.125,
          "velocity": 80
        },
        {
          "pitch": 57,
          "onset": 12.0,
          "duration": 0.5,
          "velocity": 80
        },
        {
          "pitch": 66,
          "onset": 12.0,
          "duration": 0.0312,
          "velocity": 80
        },
        {
          "pitch": 67,
          "onset": 12.0312,
          "duration": 0.0312,
          "velocity": 80
        },
        {
          "pitch": 66,
          "onset": 12.0938,
          "duration": 0.0312,
          "velocity": 80
        },
        {
          "pitch": 67,
          "onset": 12.125,
          "duration": 0.0312,
          "velocity": 80
        },
        {
          "pitch": 66,
          "onset": 12.1562,
          "duration": 0.0312,
          "velocity": 80
        },
        {
          "pitch": 67,
          "onset": 12.2188,
          "duration": 0.0312,
          "velocity": 80
        },
        {
          "pitch": 66,
          "onset": 12.25,
          "duration": 0.25,
          "velocity": 80
        },
        {
          "pitch": 64,
          "onset": 12.5,
          "duration": 0.25,
          "velocity": 80
        },
        {
          "pitch": 66,
          "onset": 12.75,
          "duration": 0.125,
          "velocity": 80
        },
        {
          "pitch": 62,
          "onset": 12.875,
          "duration": 0.125,
          "velocity": 80
        },
        {
          "pitch": 74,
          "onset": 13.0,
          "duration": 0.75,
          "velocity": 80
        },
        {
          "pitch": 74,
          "onset": 13.75,
          "duration": 0.25,
          "velocity": 80
        },
        {
          "pitch": 64,
          "onset": 14.125,
          "duration": 0.125,
          "velocity": 80
        },
        {
          "pitch": 71,
          "onset": 14.25,
          "duration": 0.125,
          "velocity": 80
        },
        {
          "pitch": 74,
          "onset": 14.375,
          "duration": 0.125,
          "velocity": 80
        },
        {
          "pitch": 73,
          "onset": 14.5,
          "duration": 0.125,
          "velocity": 80
        },
        {
          "pitch": 71,
          "onset": 14.625,
          "duration": 0.125,
          "velocity": 80
        },
        {
          "pitch": 70,
          "onset": 14.75,
          "duration": 0.0625,
          "velocity": 80
        },
        {
          "pitch": 71,
          "onset": 14.8125,
          "duration": 0.0625,
          "velocity": 80
        },
        {
          "pitch": 74,
          "onset": 14.875,
          "duration": 0.0625,
          "velocity": 80
        },
        {
          "pitch": 73,
          "onset": 14.9375,
          "duration": 0.0625,
          "velocity": 80
        },
        {
          "pitch": 73,
          "onset": 15.0,
          "duration": 0.5,
          "velocity": 80
        },
        {
          "pitch": 64,
          "onset": 15.875,
          "duration": 0.125,
          "velocity": 80
        },
        {
          "pitch": 59,
          "onset": 16.0,
          "duration": 0.25,
          "velocity": 80
        },
        {
          "pitch": 64,
          "onset": 16.25,
          "duration": 0.125,
          "velocity": 80
        },
        {
          "pitch": 67,
          "onset": 16.375,
          "duration": 0.125,
          "velocity": 80
        },
        {
          "pitch": 66,
          "onset": 16.5,
          "duration": 0.125,
          "velocity": 80
        },
        {
          "pitch": 64,
          "onset": 16.625,
          "duration": 0.125,
          "velocity": 80
        },
        {
          "pitch": 62,
          "onset": 16.75,
          "duration": 0.125,
          "velocity": 80
        },
        {
          "pitch": 64,
          "onset": 16.875,
          "duration": 0.0625,
          "velocity": 80
        },
        {
          "pitch": 61,
          "onset": 16.9375,
          "duration": 0.0625,
          "velocity": 80
        },
        {
          "pitch": 62,
          "onset": 17.0,
          "duration": 0.375,
          "velocity": 80
        },
        {
          "pitch": 59,
          "onset": 17.375,
          "duration": 0.0625,
          "velocity": 80
        },
        {
          "pitch": 61,
          "onset": 17.4375,
          "duration": 0.0625,
          "velocity": 80
        },
        {
          "pitch": 62,
          "onset": 17.5,
          "duration": 0.125,
          "velocity": 80
        },
        {
          "pitch": 64,
          "onset": 17.625,
          "duration": 0.125,
          "velocity": 80
        },
        {
          "pitch": 66,
          "onset": 17.75,
          "duration": 0.125,
          "velocity": 80
        },
        {
          "pitch": 69,
          "onset": 17.875,
          "duration": 0.0625,
          "velocity": 80
        },
        {
          "pitch": 68,
          "onset": 17.9375,
          "duration": 0.0625,
          "velocity": 80
        },
        {
          "pitch": 61,
          "onset": 18.0,
          "duration": 0.25,
          "velocity": 80
        },
        {
          "pitch": 69,
          "onset": 18.0,
          "duration": 0.25,
          "velocity": 80
        },
        {
          "pitch": 69,
          "onset": 19.375,
          "duration": 0.125,
          "velocity": 80
        },
        {
          "pitch": 71,
          "onset": 19.5,
          "duration": 0.125,
          "velocity": 80
        },
        {
          "pitch": 69,
          "onset": 19.625,
          "duration": 0.125,
          "velocity": 80
        },
        {
          "pitch": 68,
          "onset": 19.75,
          "duration": 0.125,
          "velocity": 80
        },
        {
          "pitch": 69,
          "onset": 19.875,
          "duration": 0.125,
          "velocity": 80
        },
        {
          "pitch": 59,
          "onset": 20.0,
          "duration": 0.5,
          "velocity": 80
        },
        {
          "pitch": 69,
          "onset": 20.0625,
          "duration": 0.1875,
          "velocity": 80
        },
        {
          "pitch": 68,
          "onset": 20.25,
          "duration": 0.25,
          "velocity": 80
        },
        {
          "pitch": 66,
          "onset": 20.5,
          "duration": 0.25,
          "velocity": 80
        },
        {
          "pitch": 64,
          "onset": 20.75,
          "duration": 0.25,
          "velocity": 80
        },
        {
          "pitch": 64,
          "onset": 21.0,
          "duration": 0.75,
          "velocity": 80
        },
        {
          "pitch": 64,
          "onset": 21.75,
          "duration": 0.25,
          "velocity": 80
        },
        {
          "pitch": 61,
          "onset": 22.0,
          "duration": 0.25,
          "velocity": 80
        },
        {
          "pitch": 64,
          "onset": 22.125,
          "duration": 0.125,
          "velocity": 80
        },
        {
          "pitch": 66,
          "onset": 22.25,
          "duration": 0.125,
          "velocity": 80
        },
        {
          "pitch": 68,
          "onset": 22.375,
          "duration": 0.125,
          "velocity": 80
        },
        {
          "pitch": 69,
          "onset": 22.5,
          "duration": 0.125,
          "velocity": 80
        },
        {
          "pitch": 68,
          "onset": 22.625,
          "duration": 0.125,
          "velocity": 80
        },
        {
          "pitch": 69,
          "onset": 22.75,
          "duration": 0.125,
          "velocity": 80
        },
        {
          "pitch": 66,
          "onset": 22.875,
          "duration": 0.125,
          "velocity": 80
        },
        {
          "pitch": 62,
          "onset": 23.0,
          "duration": 0.0312,
          "velocity": 80
        },
        {
          "pitch": 64,
          "onset": 23.0312,
          "duration": 0.0312,
          "velocity": 80
        },
        {
          "pitch": 62,
          "onset": 23.0938,
          "duration": 0.0312,
          "velocity": 80
        },
        {
          "pitch": 64,
          "onset": 23.125,
          "duration": 0.0312,
          "velocity": 80
        },
        {
          "pitch": 62,
          "onset": 23.1562,
          "duration": 0.0312,
          "velocity": 80
        },
        {
          "pitch": 64,
          "onset": 23.2188,
          "duration": 0.0312,
          "velocity": 80
        },
        {
          "pitch": 62,
          "onset": 23.25,
          "duration": 0.125,
          "velocity": 80
        },
        {
          "pitch": 61,
          "onset": 23.375,
          "duration": 0.125,
          "velocity": 80
        },
        {
          "pitch": 59,
          "onset": 23.5,
          "duration": 0.125,
          "velocity": 80
        },
        {
          "pitch": 62,
          "onset": 23.625,
          "duration": 0.125,
          "velocity": 80
        },
        {
          "pitch": 66,
          "onset": 23.75,
          "duration": 0.125,
          "velocity": 80
        },
        {
          "pitch": 69,
          "onset": 23.875,
          "duration": 0.125,
          "velocity": 80
        },
        {
          "pitch": 62,
          "onset": 24.0,
          "duration": 0.25,
          "velocity": 80
        },
        {
          "pitch": 68,
          "onset": 24.0312,
          "duration": 0.0938,
          "velocity": 80
        },
        {
          "pitch": 69,
          "onset": 24.125,
          "duration": 0.125,
          "velocity": 80
        },
        {
          "pitch": 71,
          "onset": 24.25,
          "duration": 0.125,
          "velocity": 80
        },
        {
          "pitch": 69,
          "onset": 24.375,
          "duration": 0.125,
          "velocity": 80
        },
        {
          "pitch": 68,
          "onset": 24.5,
          "duration": 0.125,
          "velocity": 80
        },
        {
          "pitch": 66,
          "onset": 24.625,
          "duration": 0.125,
          "velocity": 80
        },
        {
          "pitch": 64,
          "onset": 24.75,
          "duration": 0.125,
          "velocity": 80
        },
        {
          "pitch": 66,
          "onset": 24.875,
          "duration": 0.0625,
          "velocity": 80
        },
        {
          "pitch": 62,
          "onset": 24.9375,
          "duration": 0.0625,
          "velocity": 80
        },
        {
          "pitch": 61,
          "onset": 25.0,
          "duration": 0.0312,
          "velocity": 80
        },
        {
          "pitch": 62,
          "onset": 25.0312,
          "duration": 0.0312,
          "velocity": 80
        },
        {
          "pitch": 61,
          "onset": 25.0938,
          "duration": 0.0312,
          "velocity": 80
        },
        {
          "pitch": 62,
          "onset": 25.125,
          "duration": 0.0312,
          "velocity": 80
        },
        {
          "pitch": 61,
          "onset": 25.1562,
          "duration": 0.0312,
          "velocity": 80
        },
        {
          "pitch": 62,
          "onset": 25.2188,
          "duration": 0.0312,
          "velocity": 80
        },
        {
          "pitch": 61,
          "onset": 25.25,
          "duration": 0.125,
          "velocity": 80
        },
        {
          "pitch": 59,
          "onset": 25.375,
          "duration": 0.125,
          "velocity": 80
        },
        {
          "pitch": 57,
          "onset": 25.5,
          "duration": 0.125,
          "velocity": 80
        },
        {
          "pitch": 56,
          "onset": 25.625,
          "duration": 0.125,
          "velocity": 80
        },
        {
          "pitch": 57,
          "onset": 25.75,
          "duration": 0.125,
          "velocity": 80
        },
        {
          "pitch": 61,
          "onset": 25.875,
          "duration": 0.125,
          "velocity": 80
        },
        {
          "pitch": 61,
          "onset": 26.0,
          "duration": 0.25,
          "velocity": 80
        },
        {
          "pitch": 66,
          "onset": 26.0938,
          "duration": 0.2812,
          "velocity": 80
        },
        {
          "pitch": 64,
          "onset": 26.375,
          "duration": 0.125,
          "velocity": 80
        },
        {
          "pitch": 62,
          "onset": 26.5,
          "duration": 0.125,
          "velocity": 80
        },
        {
          "pitch": 61,
          "onset": 26.625,
          "duration": 0.125,
          "velocity": 80
        },
        {
          "pitch": 62,
          "onset": 26.75,
          "duration": 0.125,
          "velocity": 80
        },
        {
          "pitch": 66,
          "onset": 26.875,
          "duration": 0.125,
          "velocity": 80
        },
        {
          "pitch": 71,
          "onset": 27.0,
          "duration": 0.125,
          "velocity": 80
        },
        {
          "pitch": 68,
          "onset": 27.125,
          "duration": 0.125,
          "velocity": 80
        },
        {
          "pitch": 69,
          "onset": 27.25,
          "duration": 0.125,
          "velocity": 80
        },
        {
          "pitch": 66,
          "onset": 27.375,
          "duration": 0.125,
          "velocity": 80
        },
        {
          "pitch": 64,
          "onset": 27.5,
          "duration": 0.125,
          "velocity": 80
        },
        {
          "pitch": 61,
          "onset": 27.625,
          "duration": 0.125,
          "velocity": 80
        },
        {
          "pitch": 62,
          "onset": 27.75,
          "duration": 0.125,
          "velocity": 80
        },
        {
          "pitch": 59,
          "onset": 27.875,
          "duration": 0.125,
          "velocity": 80
        },
        {
          "pitch": 57,
          "onset": 28.0,
          "duration": 0.125,
          "velocity": 80
        },
        {
          "pitch": 54,
          "onset": 28.125,
          "duration": 0.125,
          "velocity": 80
        },
        {
          "pitch": 56,
          "onset": 28.25,
          "duration": 0.125,
          "velocity": 80
        },
        {
          "pitch": 59,
          "onset": 28.375,
          "duration": 0.125,
          "velocity": 80
        },
        {
          "pitch": 64,
          "onset": 28.5,
          "duration": 0.375,
          "velocity": 80
        },
        {
          "pitch": 64,
          "onset": 29.375,
          "duration": 0.125,
          "velocity": 80
        },
        {
          "pitch": 62,
          "onset": 29.5,
          "duration": 0.125,
          "velocity": 80
        },
        {
          "pitch": 61,
          "onset": 29.625,
          "duration": 0.125,
          "velocity": 80
        },
        {
          "pitch": 59,
          "onset": 29.75,
          "duration": 0.125,
          "velocity": 80
        },
        {
          "pitch": 57,
          "onset": 29.875,
          "duration": 0.125,
          "velocity": 80
        },
        {
          "pitch": 66,
          "onset": 30.125,
          "duration": 0.125,
          "velocity": 80
        },
        {
          "pitch": 64,
          "onset": 30.25,
          "duration": 0.125,
          "velocity": 80
        },
        {
          "pitch": 62,
          "onset": 30.375,
          "duration": 0.125,
          "velocity": 80
        },
        {
          "pitch": 61,
          "onset": 30.5,
          "duration": 0.125,
          "velocity": 80
        },
        {
          "pitch": 56,
          "onset": 30.625,
          "duration": 0.125,
          "velocity": 80
        },
        {
          "pitch": 57,
          "onset": 30.75,
          "duration": 0.125,
          "velocity": 80
        },
        {
          "pitch": 62,
          "onset": 30.875,
          "duration": 0.125,
          "velocity": 80
        },
        {
          "pitch": 59,
          "onset": 31.0,
          "duration": 0.75,
          "velocity": 80
        },
        {
          "pitch": 57,
          "onset": 31.75,
          "duration": 0.25,
          "velocity": 80
        },
        {
          "pitch": 57,
          "onset": 32.0,
          "duration": 0.375,
          "velocity": 80
        },
        {
          "pitch": 59,
          "onset": 32.375,
          "duration": 0.125,
          "velocity": 80
        },
        {
          "pitch": 61,
          "onset": 32.5,
          "duration": 0.125,
          "velocity": 80
        },
        {
          "pitch": 62,
          "onset": 32.625,
          "duration": 0.125,
          "velocity": 80
        },
        {
          "pitch": 64,
          "onset": 32.75,
          "duration": 0.125,
          "velocity": 80
        },
        {
          "pitch": 67,
          "onset": 32.875,
          "duration": 0.125,
          "velocity": 80
        },
        {
          "pitch": 66,
          "onset": 33.0,
          "duration": 0.125,
          "velocity": 80
        },
        {
          "pitch": 64,
          "onset": 33.125,
          "duration": 0.125,
          "velocity": 80
        },
        {
          "pitch": 62,
          "onset": 33.25,
          "duration": 0.125,
          "velocity": 80
        },
        {
          "pitch": 61,
          "onset": 33.375,
          "duration": 0.125,
          "velocity": 80
        },
        {
          "pitch": 62,
          "onset": 33.5,
          "duration": 0.125,
          "velocity": 80
        },
        {
          "pitch": 59,
          "onset": 33.625,
          "duration": 0.125,
          "velocity": 80
        },
        {
          "pitch": 69,
          "onset": 33.75,
          "duration": 0.125,
          "velocity": 80
        },
        {
          "pitch": 68,
          "onset": 33.875,
          "duration": 0.125,
          "velocity": 80
        },
        {
          "pitch": 69,
          "onset": 34.0,
          "duration": 0.375,
          "velocity": 80
        },
        {
          "pitch": 64,
          "onset": 34.375,
          "duration": 0.125,
          "velocity": 80
        },
        {
          "pitch": 61,
          "onset": 34.5,
          "duration": 0.25,
          "velocity": 80
        },
        {
          "pitch": 59,
          "onset": 34.75,
          "duration": 0.125,
          "velocity": 80
        },
        {
          "pitch": 57,
          "onset": 34.875,
          "duration": 0.125,
          "velocity": 80
        },
        {
          "pitch": 66,
          "onset": 35.75,
          "duration": 0.25,
          "velocity": 80
        },
        {
          "pitch": 57,
          "onset": 36.0,
          "duration": 1.0,
          "velocity": 80
        },
        {
          "pitch": 66,
          "onset": 36.125,
          "duration": 1.0,
          "velocity": 80
        },
        {
          "pitch": 64,
          "onset": 37.125,
          "duration": 0.125,
          "velocity": 80
        },
        {
          "pitch": 67,
          "onset": 37.25,
          "duration": 0.125,
          "velocity": 80
        },
        {
          "pitch": 66,
          "onset": 37.375,
          "duration": 0.125,
          "velocity": 80
        },
        {
          "pitch": 64,
          "onset": 37.5,
          "duration": 0.125,
          "velocity": 80
        },
        {
          "pitch": 62,
          "onset": 37.625,
          "duration": 0.125,
          "velocity": 80
        },
        {
          "pitch": 64,
          "onset": 37.75,
          "duration": 0.0625,
          "velocity": 80
        },
        {
          "pitch": 61,
          "onset": 37.8125,
          "duration": 0.0625,
          "velocity": 80
        },
        {
          "pitch": 62,
          "onset": 37.875,
          "duration": 0.125,
          "velocity": 80
        },
        {
          "pitch": 62,
          "onset": 38.0,
          "duration": 0.5,
          "velocity": 80
        },
        {
          "pitch": 61,
          "onset": 38.5,
          "duration": 0.0312,
          "velocity": 80
        },
        {
          "pitch": 62,
          "onset": 38.5312,
          "duration": 0.0312,
          "velocity": 80
        },
        {
          "pitch": 61,
          "onset": 38.5938,
          "duration": 0.0312,
          "velocity": 80
        },
        {
          "pitch": 62,
          "onset": 38.625,
          "duration": 0.0312,
          "velocity": 80
        },
        {
          "pitch": 61,
          "onset": 38.6562,
          "duration": 0.0312,
          "velocity": 80
        },
        {
          "pitch": 62,
          "onset": 38.7188,
          "duration": 0.0312,
          "velocity": 80
        },
        {
          "pitch": 61,
          "onset": 38.75,
          "duration": 0.125,
          "velocity": 80
        },
        {
          "pitch": 62,
          "onset": 38.875,
          "duration": 0.0625,
          "velocity": 80
        },
        {
          "pitch": 64,
          "onset": 38.9375,
          "duration": 0.0625,
          "velocity": 80
        },
        {
          "pitch": 62,
          "onset": 39.0,
          "duration": 0.125,
          "velocity": 80
        },
        {
          "pitch": 61,
          "onset": 39.125,
          "duration": 0.125,
          "velocity": 80
        },
        {
          "pitch": 59,
          "onset": 39.25,
          "duration": 0.125,
          "velocity": 80
        },
        {
          "pitch": 57,
          "onset": 39.375,
          "duration": 0.125,
          "velocity": 80
        },
        {
          "pitch": 59,
          "onset": 39.5,
          "duration": 0.0625,
          "velocity": 80
        },
        {
          "pitch": 61,
          "onset": 39.5625,
          "duration": 0.0625,
          "velocity": 80
        },
        {
          "pitch": 59,
          "onset": 39.625,
          "duration": 0.0625,
          "velocity": 80
        },
        {
          "pitch": 61,
          "onset": 39.6875,
          "duration": 0.0625,
          "velocity": 80
        },
        {
          "pitch": 61,
          "onset": 39.75,
          "duration": 0.125,
          "velocity": 80
        },
        {
          "pitch": 59,
          "onset": 39.875,
          "duration": 0.0625,
          "velocity": 80
        },
        {
          "pitch": 61,
          "onset": 39.9375,
          "duration": 0.0625,
          "velocity": 80
        },
        {
          "pitch": 62,
          "onset": 40.0,
          "duration": 0.75,
          "velocity": 80
        },
        {
          "pitch": 69,
          "onset": 40.75,
          "duration": 0.375,
          "velocity": 80
        },
        {
          "pitch": 67,
          "onset": 41.125,
          "duration": 0.125,
          "velocity": 80
        },
        {
          "pitch": 66,
          "onset": 41.25,
          "duration": 0.125,
          "velocity": 80
        },
        {
          "pitch": 64,
          "onset": 41.375,
          "duration": 0.125,
          "velocity": 80
        },
        {
          "pitch": 62,
          "onset": 41.5,
          "duration": 0.0625,
          "velocity": 80
        },
        {
          "pitch": 61,
          "onset": 41.5625,
          "duration": 0.0625,
          "velocity": 80
        },
        {
          "pitch": 62,
          "onset": 41.625,
          "duration": 0.0625,
          "velocity": 80
        },
        {
          "pitch": 64,
          "onset": 41.6875,
          "duration": 0.0625,
          "velocity": 80
        },
        {
          "pitch": 66,
          "onset": 41.75,
          "duration": 0.0625,
          "velocity": 80
        },
        {
          "pitch": 64,
          "onset": 41.8125,
          "duration": 0.0625,
          "velocity": 80
        },
        {
          "pitch": 67,
          "onset": 41.875,
          "duration": 0.0625,
          "velocity": 80
        },
        {
          "pitch": 66,
          "onset": 41.9375,
          "duration": 0.0625,
          "velocity": 80
        },
        {
          "pitch": 67,
          "onset": 42.0,
          "duration": 0.3125,
          "velocity": 80
        },
        {
          "pitch": 66,
          "onset": 42.3125,
          "duration": 0.0625,
          "velocity": 80
        },
        {
          "pitch": 64,
          "onset": 42.375,
          "duration": 0.0625,
          "velocity": 80
        },
        {
          "pitch": 66,
          "onset": 42.4375,
          "duration": 0.0625,
          "velocity": 80
        },
        {
          "pitch": 67,
          "onset": 42.5,
          "duration": 0.125,
          "velocity": 80
        },
        {
          "pitch": 66,
          "onset": 42.625,
          "duration": 0.125,
          "velocity": 80
        },
        {
          "pitch": 67,
          "onset": 42.75,
          "duration": 0.125,
          "velocity": 80
        },
        {
          "pitch": 71,
          "onset": 42.875,
          "duration": 0.125,
          "velocity": 80
        },
        {
          "pitch": 67,
          "onset": 43.0,
          "duration": 0.0312,
          "velocity": 80
        },
        {
          "pitch": 69,
          "onset": 43.0312,
          "duration": 0.0312,
          "velocity": 80
        },
        {
          "pitch": 67,
          "onset": 43.0938,
          "duration": 0.0312,
          "velocity": 80
        },
        {
          "pitch": 69,
          "onset": 43.125,
          "duration": 0.0312,
          "velocity": 80
        },
        {
          "pitch": 67,
          "onset": 43.1562,
          "duration": 0.0312,
          "velocity": 80
        },
        {
          "pitch": 69,
          "onset": 43.2188,
          "duration": 0.0312,
          "velocity": 80
        },
        {
          "pitch": 67,
          "onset": 43.25,
          "duration": 0.5,
          "velocity": 80
        },
        {
          "pitch": 66,
          "onset": 43.75,
          "duration": 0.125,
          "velocity": 80
        },
        {
          "pitch": 67,
          "onset": 43.875,
          "duration": 0.125,
          "velocity": 80
        },
        {
          "pitch": 57,
          "onset": 44.0,
          "duration": 0.5,
          "velocity": 80
        },
        {
          "pitch": 66,
          "onset": 44.0,
          "duration": 0.0312,
          "velocity": 80
        },
        {
          "pitch": 67,
          "onset": 44.0312,
          "duration": 0.0312,
          "velocity": 80
        },
        {
          "pitch": 66,
          "onset": 44.0938,
          "duration": 0.0312,
          "velocity": 80
        },
        {
          "pitch": 67,
          "onset": 44.125,
          "duration": 0.0312,
          "velocity": 80
        },
        {
          "pitch": 66,
          "onset": 44.1562,
          "duration": 0.0312,
          "velocity": 80
        },
        {
          "pitch": 67,
          "onset": 44.2188,
          "duration": 0.0312,
          "velocity": 80
        },
        {
          "pitch": 66,
          "onset": 44.25,
          "duration": 0.25,
          "velocity": 80
        },
        {
          "pitch": 64,
          "onset": 44.5,
          "duration": 0.25,
          "velocity": 80
        },
        {
          "pitch": 66,
          "onset": 44.75,
          "duration": 0.125,
          "velocity": 80
        },
        {
          "pitch": 62,
          "onset": 44.875,
          "duration": 0.125,
          "velocity": 80
        },
        {
          "pitch": 74,
          "onset": 45.0,
          "duration": 0.75,
          "velocity": 80
        },
        {
          "pitch": 74,
          "onset": 45.75,
          "duration": 0.25,
          "velocity": 80
        },
        {
          "pitch": 64,
          "onset": 46.125,
          "duration": 0.125,
          "velocity": 80
        },
        {
          "pitch": 71,
          "onset": 46.25,
          "duration": 0.125,
          "velocity": 80
        },
        {
          "pitch": 74,
          "onset": 46.375,
          "duration": 0.125,
          "velocity": 80
        },
        {
          "pitch": 73,
          "onset": 46.5,
          "duration": 0.125,
          "velocity": 80
        },
        {
          "pitch": 71,
          "onset": 46.625,
          "duration": 0.125,
          "velocity": 80
        },
        {
          "pitch": 70,
          "onset": 46.75,
          "duration": 0.0625,
          "velocity": 80
        },
        {
          "pitch": 71,
          "onset": 46.8125,
          "duration": 0.0625,
          "velocity": 80
        },
        {
          "pitch": 74,
          "onset": 46.875,
          "duration": 0.0625,
          "velocity": 80
        },
        {
          "pitch": 73,
          "onset": 46.9375,
          "duration": 0.0625,
          "velocity": 80
        },
        {
          "pitch": 73,
          "onset": 47.0,
          "duration": 0.5,
          "velocity": 80
        },
        {
          "pitch": 64,
          "onset": 47.875,
          "duration": 0.125,
          "velocity": 80
        },
        {
          "pitch": 59,
          "onset": 48.0,
          "duration": 0.25,
          "velocity": 80
        },
        {
          "pitch": 64,
          "onset": 48.25,
          "duration": 0.125,
          "velocity": 80
        },
        {
          "pitch": 67,
          "onset": 48.375,
          "duration": 0.125,
          "velocity": 80
        },
        {
          "pitch": 66,
          "onset": 48.5,
          "duration": 0.125,
          "velocity": 80
        },
        {
          "pitch": 64,
          "onset": 48.625,
          "duration": 0.125,
          "velocity": 80
        },
        {
          "pitch": 62,
          "onset": 48.75,
          "duration": 0.125,
          "velocity": 80
        },
        {
          "pitch": 64,
          "onset": 48.875,
          "duration": 0.0625,
          "velocity": 80
        },
        {
          "pitch": 61,
          "onset": 48.9375,
          "duration": 0.0625,
          "velocity": 80
        },
        {
          "pitch": 62,
          "onset": 49.0,
          "duration": 0.375,
          "velocity": 80
        },
        {
          "pitch": 59,
          "onset": 49.375,
          "duration": 0.0625,
          "velocity": 80
        },
        {
          "pitch": 61,
          "onset": 49.4375,
          "duration": 0.0625,
          "velocity": 80
        },
        {
          "pitch": 62,
          "onset": 49.5,
          "duration": 0.125,
          "velocity": 80
        },
        {
          "pitch": 64,
          "onset": 49.625,
          "duration": 0.125,
          "velocity": 80
        },
        {
          "pitch": 66,
          "onset": 49.75,
          "duration": 0.125,
          "velocity": 80
        },
        {
          "pitch": 69,
          "onset": 49.875,
          "duration": 0.0625,
          "velocity": 80
        },
        {
          "pitch": 68,
          "onset": 49.9375,
          "duration": 0.0625,
          "velocity": 80
        },
        {
          "pitch": 61,
          "onset": 50.0,
          "duration": 0.25,
          "velocity": 80
        },
        {
          "pitch": 69,
          "onset": 50.0,
          "duration": 0.25,
          "velocity": 80
        },
        {
          "pitch": 69,
          "onset": 51.375,
          "duration": 0.125,
          "velocity": 80
        },
        {
          "pitch": 71,
          "onset": 51.5,
          "duration": 0.125,
          "velocity": 80
        },
        {
          "pitch": 69,
          "onset": 51.625,
          "duration": 0.125,
          "velocity": 80
        },
        {
          "pitch": 68,
          "onset": 51.75,
          "duration": 0.125,
          "velocity": 80
        },
        {
          "pitch": 69,
          "onset": 51.875,
          "duration": 0.125,
          "velocity": 80
        },
        {
          "pitch": 59,
          "onset": 52.0,
          "duration": 0.5,
          "velocity": 100
        },
        {
          "pitch": 69,
          "onset": 52.0625,
          "duration": 0.1875,
          "velocity": 100
        },
        {
          "pitch": 68,
          "onset": 52.25,
          "duration": 0.25,
          "velocity": 100
        },
        {
          "pitch": 66,
          "onset": 52.5,
          "duration": 0.25,
          "velocity": 100
        },
        {
          "pitch": 64,
          "onset": 52.75,
          "duration": 0.25,
          "velocity": 100
        },
        {
          "pitch": 64,
          "onset": 53.0,
          "duration": 0.75,
          "velocity": 100
        },
        {
          "pitch": 64,
          "onset": 53.75,
          "duration": 0.25,
          "velocity": 100
        },
        {
          "pitch": 61,
          "onset": 54.0,
          "duration": 0.25,
          "velocity": 100
        },
        {
          "pitch": 64,
          "onset": 54.125,
          "duration": 0.125,
          "velocity": 100
        },
        {
          "pitch": 66,
          "onset": 54.25,
          "duration": 0.125,
          "velocity": 100
        },
        {
          "pitch": 68,
          "onset": 54.375,
          "duration": 0.125,
          "velocity": 100
        },
        {
          "pitch": 69,
          "onset": 54.5,
          "duration": 0.125,
          "velocity": 100
        },
        {
          "pitch": 68,
          "onset": 54.625,
          "duration": 0.125,
          "velocity": 100
        },
        {
          "pitch": 69,
          "onset": 54.75,
          "duration": 0.125,
          "velocity": 100
        },
        {
          "pitch": 66,
          "onset": 54.875,
          "duration": 0.125,
          "velocity": 100
        },
        {
          "pitch": 62,
          "onset": 55.0,
          "duration": 0.0312,
          "velocity": 100
        },
        {
          "pitch": 64,
          "onset": 55.0312,
          "duration": 0.0312,
          "velocity": 100
        },
        {
          "pitch": 62,
          "onset": 55.0938,
          "duration": 0.0312,
          "velocity": 100
        },
        {
          "pitch": 64,
          "onset": 55.125,
          "duration": 0.0312,
          "velocity": 100
        },
        {
          "pitch": 62,
          "onset": 55.1562,
          "duration": 0.0312,
          "velocity": 100
        },
        {
          "pitch": 64,
          "onset": 55.2188,
          "duration": 0.0312,
          "velocity": 100
        },
        {
          "pitch": 62,
          "onset": 55.25,
          "duration": 0.125,
          "velocity": 100
        },
        {
          "pitch": 61,
          "onset": 55.375,
          "duration": 0.125,
          "velocity": 100
        },
        {
          "pitch": 59,
          "onset": 55.5,
          "duration": 0.125,
          "velocity": 100
        },
        {
          "pitch": 62,
          "onset": 55.625,
          "duration": 0.125,
          "velocity": 100
        },
        {
          "pitch": 66,
          "onset": 55.75,
          "duration": 0.125,
          "velocity": 100
        },
        {
          "pitch": 69,
          "onset": 55.875,
          "duration": 0.125,
          "velocity": 100
        },
        {
          "pitch": 62,
          "onset": 56.0,
          "duration": 0.25,
          "velocity": 100
        },
        {
          "pitch": 68,
          "onset": 56.0312,
          "duration": 0.0938,
          "velocity": 100
        },
        {
          "pitch": 69,
          "onset": 56.125,
          "duration": 0.125,
          "velocity": 100
        },
        {
          "pitch": 71,
          "onset": 56.25,
          "duration": 0.125,
          "velocity": 100
        },
        {
          "pitch": 69,
          "onset": 56.375,
          "duration": 0.125,
          "velocity": 100
        },
        {
          "pitch": 68,
          "onset": 56.5,
          "duration": 0.125,
          "velocity": 100
        },
        {
          "pitch": 66,
          "onset": 56.625,
          "duration": 0.125,
          "velocity": 100
        },
        {
          "pitch": 64,
          "onset": 56.75,
          "duration": 0.125,
          "velocity": 100
        },
        {
          "pitch": 66,
          "onset": 56.875,
          "duration": 0.0625,
          "velocity": 100
        },
        {
          "pitch": 62,
          "onset": 56.9375,
          "duration": 0.0625,
          "velocity": 100
        },
        {
          "pitch": 61,
          "onset": 57.0,
          "duration": 0.0312,
          "velocity": 100
        },
        {
          "pitch": 62,
          "onset": 57.0312,
          "duration": 0.0312,
          "velocity": 100
        },
        {
          "pitch": 61,
          "onset": 57.0938,
          "duration": 0.0312,
          "velocity": 100
        },
        {
          "pitch": 62,
          "onset": 57.125,
          "duration": 0.0312,
          "velocity": 100
        },
        {
          "pitch": 61,
          "onset": 57.1562,
          "duration": 0.0312,
          "velocity": 100
        },
        {
          "pitch": 62,
          "onset": 57.2188,
          "duration": 0.0312,
          "velocity": 100
        },
        {
          "pitch": 61,
          "onset": 57.25,
          "duration": 0.125,
          "velocity": 100
        },
        {
          "pitch": 59,
          "onset": 57.375,
          "duration": 0.125,
          "velocity": 100
        },
        {
          "pitch": 57,
          "onset": 57.5,
          "duration": 0.125,
          "velocity": 100
        },
        {
          "pitch": 56,
          "onset": 57.625,
          "duration": 0.125,
          "velocity": 100
        },
        {
          "pitch": 57,
          "onset": 57.75,
          "duration": 0.125,
          "velocity": 100
        },
        {
          "pitch": 61,
          "onset": 57.875,
          "duration": 0.125,
          "velocity": 100
        },
        {
          "pitch": 61,
          "onset": 58.0,
          "duration": 0.25,
          "velocity": 100
        },
        {
          "pitch": 66,
          "onset": 58.0938,
          "duration": 0.2812,
          "velocity": 100
        },
        {
          "pitch": 64,
          "onset": 58.375,
          "duration": 0.125,
          "velocity": 100
        },
        {
          "pitch": 62,
          "onset": 58.5,
          "duration": 0.125,
          "velocity": 100
        },
        {
          "pitch": 61,
          "onset": 58.625,
          "duration": 0.125,
          "velocity": 100
        },
        {
          "pitch": 62,
          "onset": 58.75,
          "duration": 0.125,
          "velocity": 100
        },
        {
          "pitch": 66,
          "onset": 58.875,
          "duration": 0.125,
          "velocity": 100
        },
        {
          "pitch": 71,
          "onset": 59.0,
          "duration": 0.125,
          "velocity": 100
        },
        {
          "pitch": 68,
          "onset": 59.125,
          "duration": 0.125,
          "velocity": 100
        },
        {
          "pitch": 69,
          "onset": 59.25,
          "duration": 0.125,
          "velocity": 100
        },
        {
          "pitch": 66,
          "onset": 59.375,
          "duration": 0.125,
          "velocity": 100
        },
        {
          "pitch": 64,
          "onset": 59.5,
          "duration": 0.125,
          "velocity": 100
        },
        {
          "pitch": 61,
          "onset": 59.625,
          "duration": 0.125,
          "velocity": 100
        },
        {
          "pitch": 62,
          "onset": 59.75,
          "duration": 0.125,
          "velocity": 100
        },
        {
          "pitch": 59,
          "onset": 59.875,
          "duration": 0.125,
          "velocity": 100
        },
        {
          "pitch": 57,
          "onset": 60.0,
          "duration": 0.125,
          "velocity": 100
        },
        {
          "pitch": 54,
          "onset": 60.125,
          "duration": 0.125,
          "velocity": 100
        },
        {
          "pitch": 56,
          "onset": 60.25,
          "duration": 0.125,
          "velocity": 100
        },
        {
          "pitch": 59,
          "onset": 60.375,
          "duration": 0.125,
          "velocity": 100
        },
        {
          "pitch": 64,
          "onset": 60.5,
          "duration": 0.375,
          "velocity": 100
        },
        {
          "pitch": 64,
          "onset": 61.375,
          "duration": 0.125,
          "velocity": 100
        },
        {
          "pitch": 62,
          "onset": 61.5,
          "duration": 0.125,
          "velocity": 100
        },
        {
          "pitch": 61,
          "onset": 61.625,
          "duration": 0.125,
          "velocity": 100
        },
        {
          "pitch": 59,
          "onset": 61.75,
          "duration": 0.125,
          "velocity": 100
        },
        {
          "pitch": 57,
          "onset": 61.875,
          "duration": 0.125,
          "velocity": 100
        },
        {
          "pitch": 66,
          "onset": 62.125,
          "duration": 0.125,
          "velocity": 100
        },
        {
          "pitch": 64,
          "onset": 62.25,
          "duration": 0.125,
          "velocity": 100
        },
        {
          "pitch": 62,
          "onset": 62.375,
          "duration": 0.125,
          "velocity": 100
        },
        {
          "pitch": 61,
          "onset": 62.5,
          "duration": 0.125,
          "velocity": 100
        },
        {
          "pitch": 56,
          "onset": 62.625,
          "duration": 0.125,
          "velocity": 100
        },
        {
          "pitch": 57,
          "onset": 62.75,
          "duration": 0.125,
          "velocity": 100
        },
        {
          "pitch": 62,
          "onset": 62.875,
          "duration": 0.125,
          "velocity": 100
        },
        {
          "pitch": 59,
          "onset": 63.0,
          "duration": 0.75,
          "velocity": 100
        },
        {
          "pitch": 57,
          "onset": 63.75,
          "duration": 0.25,
          "velocity": 100
        },
        {
          "pitch": 57,
          "onset": 64.0,
          "duration": 0.375,
          "velocity": 100
        },
        {
          "pitch": 59,
          "onset": 64.375,
          "duration": 0.125,
          "velocity": 100
        },
        {
          "pitch": 61,
          "onset": 64.5,
          "duration": 0.125,
          "velocity": 100
        },
        {
          "pitch": 62,
          "onset": 64.625,
          "duration": 0.125,
          "velocity": 100
        },
        {
          "pitch": 64,
          "onset": 64.75,
          "duration": 0.125,
          "velocity": 100
        },
        {
          "pitch": 67,
          "onset": 64.875,
          "duration": 0.125,
          "velocity": 100
        },
        {
          "pitch": 66,
          "onset": 65.0,
          "duration": 0.125,
          "velocity": 100
        },
        {
          "pitch": 64,
          "onset": 65.125,
          "duration": 0.125,
          "velocity": 100
        },
        {
          "pitch": 62,
          "onset": 65.25,
          "duration": 0.125,
          "velocity": 100
        },
        {
          "pitch": 61,
          "onset": 65.375,
          "duration": 0.125,
          "velocity": 100
        },
        {
          "pitch": 62,
          "onset": 65.5,
          "duration": 0.125,
          "velocity": 100
        },
        {
          "pitch": 59,
          "onset": 65.625,
          "duration": 0.125,
          "velocity": 100
        },
        {
          "pitch": 69,
          "onset": 65.75,
          "duration": 0.125,
          "velocity": 100
        },
        {
          "pitch": 68,
          "onset": 65.875,
          "duration": 0.125,
          "velocity": 100
        },
        {
          "pitch": 69,
          "onset": 66.0,
          "duration": 0.375,
          "velocity": 100
        },
        {
          "pitch": 64,
          "onset": 66.375,
          "duration": 0.125,
          "velocity": 100
        },
        {
          "pitch": 61,
          "onset": 66.5,
          "duration": 0.25,
          "velocity": 100
        },
        {
          "pitch": 59,
          "onset": 66.75,
          "duration": 0.125,
          "velocity": 100
        },
        {
          "pitch": 57,
          "onset": 66.875,
          "duration": 0.125,
          "velocity": 100
        },
        {
          "pitch": 64,
          "onset": 67.75,
          "duration": 0.25,
          "velocity": 100
        },
        {
          "pitch": 61,
          "onset": 68.0,
          "duration": 0.5,
          "velocity": 100
        },
        {
          "pitch": 64,
          "onset": 68.0625,
          "duration": 0.5625,
          "velocity": 100
        },
        {
          "pitch": 67,
          "onset": 68.625,
          "duration": 0.125,
          "velocity": 80
        },
        {
          "pitch": 66,
          "onset": 68.75,
          "duration": 0.125,
          "velocity": 80
        },
        {
          "pitch": 64,
          "onset": 68.875,
          "duration": 0.125,
          "velocity": 80
        },
        {
          "pitch": 62,
          "onset": 69.0,
          "duration": 0.125,
          "velocity": 80
        },
        {
          "pitch": 61,
          "onset": 69.125,
          "duration": 0.125,
          "velocity": 80
        },
        {
          "pitch": 59,
          "onset": 69.25,
          "duration": 0.125,
          "velocity": 80
        },
        {
          "pitch": 61,
          "onset": 69.375,
          "duration": 0.125,
          "velocity": 80
        },
        {
          "pitch": 62,
          "onset": 69.5,
          "duration": 0.125,
          "velocity": 80
        },
        {
          "pitch": 61,
          "onset": 69.625,
          "duration": 0.125,
          "velocity": 80
        },
        {
          "pitch": 59,
          "onset": 69.75,
          "duration": 0.125,
          "velocity": 80
        },
        {
          "pitch": 61,
          "onset": 69.875,
          "duration": 0.0625,
          "velocity": 80
        },
        {
          "pitch": 57,
          "onset": 69.9375,
          "duration": 0.0625,
          "velocity": 80
        },
        {
          "pitch": 61,
          "onset": 70.0,
          "duration": 0.75,
          "velocity": 100
        },
        {
          "pitch": 69,
          "onset": 70.0625,
          "duration": 0.6875,
          "velocity": 100
        },
        {
          "pitch": 67,
          "onset": 70.75,
          "duration": 0.125,
          "velocity": 100
        },
        {
          "pitch": 66,
          "onset": 70.875,
          "duration": 0.125,
          "velocity": 100
        },
        {
          "pitch": 64,
          "onset": 71.0,
          "duration": 0.125,
          "velocity": 100
        },
        {
          "pitch": 62,
          "onset": 71.125,
          "duration": 0.125,
          "velocity": 100
        },
        {
          "pitch": 61,
          "onset": 71.25,
          "duration": 0.125,
          "velocity": 100
        },
        {
          "pitch": 59,
          "onset": 71.375,
          "duration": 0.125,
          "velocity": 100
        },
        {
          "pitch": 57,
          "onset": 71.5,
          "duration": 0.125,
          "velocity": 100
        },
        {
          "pitch": 55,
          "onset": 71.625,
          "duration": 0.125,
          "velocity": 100
        },
        {
          "pitch": 54,
          "onset": 71.75,
          "duration": 0.125,
          "velocity": 100
        },
        {
          "pitch": 55,
          "onset": 71.875,
          "duration": 0.125,
          "velocity": 100
        },
        {
          "pitch": 54,
          "onset": 72.0,
          "duration": 0.0312,
          "velocity": 100
        },
        {
          "pitch": 55,
          "onset": 72.0312,
          "duration": 0.0312,
          "velocity": 100
        },
        {
          "pitch": 54,
          "onset": 72.0938,
          "duration": 0.0312,
          "velocity": 100
        },
        {
          "pitch": 55,
          "onset": 72.125,
          "duration": 0.0312,
          "velocity": 100
        },
        {
          "pitch": 54,
          "onset": 72.1562,
          "duration": 0.0312,
          "velocity": 100
        },
        {
          "pitch": 55,
          "onset": 72.2188,
          "duration": 0.0312,
          "velocity": 100
        },
        {
          "pitch": 54,
          "onset": 72.25,
          "duration": 0.0625,
          "velocity": 100
        },
        {
          "pitch": 57,
          "onset": 72.3125,
          "duration": 0.0625,
          "velocity": 100
        },
        {
          "pitch": 59,
          "onset": 72.375,
          "duration": 0.0625,
          "velocity": 100
        },
        {
          "pitch": 61,
          "onset": 72.4375,
          "duration": 0.0625,
          "velocity": 100
        },
        {
          "pitch": 62,
          "onset": 72.5,
          "duration": 0.125,
          "velocity": 100
        },
        {
          "pitch": 59,
          "onset": 72.625,
          "duration": 0.125,
          "velocity": 100
        },
        {
          "pitch": 55,
          "onset": 72.75,
          "duration": 0.125,
          "velocity": 100
        },
        {
          "pitch": 54,
          "onset": 72.875,
          "duration": 0.125,
          "velocity": 100
        },
        {
          "pitch": 67,
          "onset": 73.25,
          "duration": 0.125,
          "velocity": 100
        },
        {
          "pitch": 66,
          "onset": 73.375,
          "duration": 0.125,
          "velocity": 100
        },
        {
          "pitch": 67,
          "onset": 73.5,
          "duration": 0.125,
          "velocity": 100
        },
        {
          "pitch": 64,
          "onset": 73.625,
          "duration": 0.125,
          "velocity": 100
        },
        {
          "pitch": 61,
          "onset": 73.75,
          "duration": 0.125,
          "velocity": 100
        },
        {
          "pitch": 57,
          "onset": 73.875,
          "duration": 0.125,
          "velocity": 100
        },
        {
          "pitch": 57,
          "onset": 74.25,
          "duration": 0.125,
          "velocity": 100
        },
        {
          "pitch": 59,
          "onset": 74.375,
          "duration": 0.125,
          "velocity": 100
        },
        {
          "pitch": 61,
          "onset": 74.5,
          "duration": 0.125,
          "velocity": 100
        },
        {
          "pitch": 62,
          "onset": 74.625,
          "duration": 0.125,
          "velocity": 100
        },
        {
          "pitch": 64,
          "onset": 74.75,
          "duration": 0.125,
          "velocity": 100
        },
        {
          "pitch": 66,
          "onset": 74.875,
          "duration": 0.0625,
          "velocity": 100
        },
        {
          "pitch": 67,
          "onset": 74.9375,
          "duration": 0.0625,
          "velocity": 100
        },
        {
          "pitch": 66,
          "onset": 75.0,
          "duration": 0.4375,
          "velocity": 100
        },
        {
          "pitch": 50,
          "onset": 75.375,
          "duration": 0.0625,
          "velocity": 100
        },
        {
          "pitch": 52,
          "onset": 75.4375,
          "duration": 0.0625,
          "velocity": 100
        },
        {
          "pitch": 54,
          "onset": 75.5,
          "duration": 0.125,
          "velocity": 100
        },
        {
          "pitch": 50,
          "onset": 75.625,
          "duration": 0.125,
          "velocity": 100
        },
        {
          "pitch": 52,
          "onset": 75.75,
          "duration": 0.125,
          "velocity": 100
        },
        {
          "pitch": 54,
          "onset": 75.875,
          "duration": 0.125,
          "velocity": 100
        },
        {
          "pitch": 57,
          "onset": 76.75,
          "duration": 0.25,
          "velocity": 100
        },
        {
          "pitch": 59,
          "onset": 77.0,
          "duration": 0.125,
          "velocity": 100
        },
        {
          "pitch": 57,
          "onset": 77.125,
          "duration": 0.125,
          "velocity": 100
        },
        {
          "pitch": 59,
          "onset": 77.25,
          "duration": 0.125,
          "velocity": 100
        },
        {
          "pitch": 60,
          "onset": 77.375,
          "duration": 0.125,
          "velocity": 100
        },
        {
          "pitch": 59,
          "onset": 77.5,
          "duration": 0.125,
          "velocity": 100
        },
        {
          "pitch": 60,
          "onset": 77.625,
          "duration": 0.125,
          "velocity": 100
        },
        {
          "pitch": 60,
          "onset": 77.75,
          "duration": 0.0312,
          "velocity": 100
        },
        {
          "pitch": 62,
          "onset": 77.7812,
          "duration": 0.0312,
          "velocity": 100
        },
        {
          "pitch": 60,
          "onset": 77.8438,
          "duration": 0.0312,
          "velocity": 100
        },
        {
          "pitch": 59,
          "onset": 77.875,
          "duration": 0.0625,
          "velocity": 100
        },
        {
          "pitch": 60,
          "onset": 77.9375,
          "duration": 0.0625,
          "velocity": 100
        },
        {
          "pitch": 55,
          "onset": 78.0,
          "duration": 0.75,
          "velocity": 100
        },
        {
          "pitch": 62,
          "onset": 78.0,
          "duration": 0.25,
          "velocity": 100
        },
        {
          "pitch": 66,
          "onset": 80.875,
          "duration": 0.125,
          "velocity": 100
        },
        {
          "pitch": 66,
          "onset": 81.0,
          "duration": 0.125,
          "velocity": 100
        },
        {
          "pitch": 65,
          "onset": 81.125,
          "duration": 0.125,
          "velocity": 100
        },
        {
          "pitch": 68,
          "onset": 81.25,
          "duration": 0.125,
          "velocity": 100
        },
        {
          "pitch": 66,
          "onset": 81.375,
          "duration": 0.125,
          "velocity": 100
        },
        {
          "pitch": 69,
          "onset": 81.5,
          "duration": 0.125,
          "velocity": 100
        },
        {
          "pitch": 68,
          "onset": 81.625,
          "duration": 0.125,
          "velocity": 100
        },
        {
          "pitch": 71,
          "onset": 81.75,
          "duration": 0.125,
          "velocity": 100
        },
        {
          "pitch": 62,
          "onset": 81.875,
          "duration": 0.125,
          "velocity": 100
        },
        {
          "pitch": 61,
          "onset": 82.375,
          "duration": 0.125,
          "velocity": 100
        },
        {
          "pitch": 71,
          "onset": 82.5,
          "duration": 0.125,
          "velocity": 100
        },
        {
          "pitch": 69,
          "onset": 82.625,
          "duration": 0.125,
          "velocity": 100
        },
        {
          "pitch": 71,
          "onset": 82.75,
          "duration": 0.125,
          "velocity": 100
        },
        {
          "pitch": 68,
          "onset": 82.875,
          "duration": 0.125,
          "velocity": 100
        },
        {
          "pitch": 61,
          "onset": 83.0,
          "duration": 0.375,
          "velocity": 100
        },
        {
          "pitch": 69,
          "onset": 83.0625,
          "duration": 0.3125,
          "velocity": 100
        },
        {
          "pitch": 68,
          "onset": 83.375,
          "duration": 0.125,
          "velocity": 100
        },
        {
          "pitch": 66,
          "onset": 83.5,
          "duration": 0.125,
          "velocity": 100
        },
        {
          "pitch": 64,
          "onset": 83.625,
          "duration": 0.125,
          "velocity": 100
        },
        {
          "pitch": 62,
          "onset": 83.75,
          "duration": 0.125,
          "velocity": 100
        },
        {
          "pitch": 64,
          "onset": 83.875,
          "duration": 0.0625,
          "velocity": 100
        },
        {
          "pitch": 61,
          "onset": 83.9375,
          "duration": 0.0625,
          "velocity": 100
        },
        {
          "pitch": 54,
          "onset": 84.0,
          "duration": 0.375,
          "velocity": 100
        },
        {
          "pitch": 62,
          "onset": 84.0625,
          "duration": 0.3125,
          "velocity": 100
        },
        {
          "pitch": 61,
          "onset": 84.375,
          "duration": 0.125,
          "velocity": 100
        },
        {
          "pitch": 59,
          "onset": 84.5,
          "duration": 0.125,
          "velocity": 100
        },
        {
          "pitch": 57,
          "onset": 84.625,
          "duration": 0.125,
          "velocity": 100
        },
        {
          "pitch": 55,
          "onset": 84.75,
          "duration": 0.125,
          "velocity": 100
        },
        {
          "pitch": 57,
          "onset": 84.875,
          "duration": 0.0625,
          "velocity": 100
        },
        {
          "pitch": 54,
          "onset": 84.9375,
          "duration": 0.0625,
          "velocity": 100
        },
        {
          "pitch": 55,
          "onset": 85.0,
          "duration": 0.3125,
          "velocity": 100
        },
        {
          "pitch": 50,
          "onset": 85.3125,
          "duration": 0.0625,
          "velocity": 100
        },
        {
          "pitch": 52,
          "onset": 85.375,
          "duration": 0.0625,
          "velocity": 100
        },
        {
          "pitch": 54,
          "onset": 85.4375,
          "duration": 0.0625,
          "velocity": 100
        },
        {
          "pitch": 55,
          "onset": 85.5,
          "duration": 0.125,
          "velocity": 100
        },
        {
          "pitch": 57,
          "onset": 85.625,
          "duration": 0.125,
          "velocity": 100
        },
        {
          "pitch": 59,
          "onset": 85.75,
          "duration": 0.125,
          "velocity": 100
        },
        {
          "pitch": 61,
          "onset": 85.875,
          "duration": 0.0625,
          "velocity": 100
        },
        {
          "pitch": 62,
          "onset": 85.9375,
          "duration": 0.0625,
          "velocity": 100
        },
        {
          "pitch": 62,
          "onset": 86.0,
          "duration": 0.25,
          "velocity": 100
        },
        {
          "pitch": 53,
          "onset": 86.25,
          "duration": 0.0312,
          "velocity": 100
        },
        {
          "pitch": 54,
          "onset": 86.2812,
          "duration": 0.0312,
          "velocity": 100
        },
        {
          "pitch": 53,
          "onset": 86.3438,
          "duration": 0.0312,
          "velocity": 100
        },
        {
          "pitch": 54,
          "onset": 86.375,
          "duration": 0.0312,
          "velocity": 100
        },
        {
          "pitch": 53,
          "onset": 86.4062,
          "duration": 0.0312,
          "velocity": 100
        },
        {
          "pitch": 54,
          "onset": 86.4688,
          "duration": 0.0312,
          "velocity": 100
        },
        {
          "pitch": 53,
          "onset": 86.5,
          "duration": 0.25,
          "velocity": 100
        },
        {
          "pitch": 54,
          "onset": 86.75,
          "duration": 0.125,
          "velocity": 100
        },
        {
          "pitch": 56,
          "onset": 86.875,
          "duration": 0.125,
          "velocity": 100
        },
        {
          "pitch": 66,
          "onset": 88.125,
          "duration": 0.125,
          "velocity": 100
        },
        {
          "pitch": 68,
          "onset": 88.25,
          "duration": 0.125,
          "velocity": 100
        },
        {
          "pitch": 69,
          "onset": 88.375,
          "duration": 0.125,
          "velocity": 100
        },
        {
          "pitch": 69,
          "onset": 88.625,
          "duration": 0.125,
          "velocity": 100
        },
        {
          "pitch": 68,
          "onset": 88.75,
          "duration": 0.125,
          "velocity": 100
        },
        {
          "pitch": 71,
          "onset": 88.875,
          "duration": 0.125,
          "velocity": 100
        },
        {
          "pitch": 66,
          "onset": 89.0,
          "duration": 0.5,
          "velocity": 100
        },
        {
          "pitch": 65,
          "onset": 89.5,
          "duration": 0.0312,
          "velocity": 100
        },
        {
          "pitch": 66,
          "onset": 89.5312,
          "duration": 0.0312,
          "velocity": 100
        },
        {
          "pitch": 65,
          "onset": 89.5938,
          "duration": 0.0312,
          "velocity": 100
        },
        {
          "pitch": 66,
          "onset": 89.625,
          "duration": 0.0312,
          "velocity": 100
        },
        {
          "pitch": 65,
          "onset": 89.6562,
          "duration": 0.0312,
          "velocity": 100
        },
        {
          "pitch": 66,
          "onset": 89.7188,
          "duration": 0.0312,
          "velocity": 100
        },
        {
          "pitch": 65,
          "onset": 89.75,
          "duration": 0.125,
          "velocity": 100
        },
        {
          "pitch": 66,
          "onset": 89.875,
          "duration": 0.125,
          "velocity": 100
        },
        {
          "pitch": 66,
          "onset": 90.0,
          "duration": 0.375,
          "velocity": 100
        },
        {
          "pitch": 61,
          "onset": 90.375,
          "duration": 0.125,
          "velocity": 80
        },
        {
          "pitch": 66,
          "onset": 90.5,
          "duration": 0.125,
          "velocity": 80
        },
        {
          "pitch": 68,
          "onset": 90.625,
          "duration": 0.125,
          "velocity": 80
        },
        {
          "pitch": 69,
          "onset": 90.75,
          "duration": 0.125,
          "velocity": 80
        },
        {
          "pitch": 68,
          "onset": 90.875,
          "duration": 0.125,
          "velocity": 80
        },
        {
          "pitch": 69,
          "onset": 91.0,
          "duration": 0.125,
          "velocity": 80
        },
        {
          "pitch": 71,
          "onset": 91.125,
          "duration": 0.125,
          "velocity": 80
        },
        {
          "pitch": 73,
          "onset": 91.25,
          "duration": 0.125,
          "velocity": 80
        },
        {
          "pitch": 69,
          "onset": 91.375,
          "duration": 0.125,
          "velocity": 80
        },
        {
          "pitch": 63,
          "onset": 91.5,
          "duration": 0.125,
          "velocity": 80
        },
        {
          "pitch": 64,
          "onset": 91.625,
          "duration": 0.125,
          "velocity": 80
        },
        {
          "pitch": 63,
          "onset": 91.75,
          "duration": 0.125,
          "velocity": 80
        },
        {
          "pitch": 64,
          "onset": 91.875,
          "duration": 0.125,
          "velocity": 80
        },
        {
          "pitch": 63,
          "onset": 92.0625,
          "duration": 0.0625,
          "velocity": 80
        },
        {
          "pitch": 64,
          "onset": 92.125,
          "duration": 0.0625,
          "velocity": 80
        },
        {
          "pitch": 63,
          "onset": 92.1875,
          "duration": 0.125,
          "velocity": 80
        },
        {
          "pitch": 57,
          "onset": 92.3125,
          "duration": 0.0625,
          "velocity": 80
        },
        {
          "pitch": 59,
          "onset": 92.375,
          "duration": 0.0625,
          "velocity": 80
        },
        {
          "pitch": 60,
          "onset": 92.4375,
          "duration": 0.0625,
          "velocity": 80
        },
        {
          "pitch": 60,
          "onset": 92.5,
          "duration": 0.3125,
          "velocity": 80
        },
        {
          "pitch": 57,
          "onset": 92.8125,
          "duration": 0.0625,
          "velocity": 80
        },
        {
          "pitch": 59,
          "onset": 92.875,
          "duration": 0.0625,
          "velocity": 80
        },
        {
          "pitch": 60,
          "onset": 92.9375,
          "duration": 0.0625,
          "velocity": 80
        },
        {
          "pitch": 60,
          "onset": 93.0,
          "duration": 0.25,
          "velocity": 80
        },
        {
          "pitch": 59,
          "onset": 93.25,
          "duration": 0.125,
          "velocity": 80
        },
        {
          "pitch": 69,
          "onset": 93.375,
          "duration": 0.125,
          "velocity": 80
        },
        {
          "pitch": 67,
          "onset": 93.5,
          "duration": 0.0312,
          "velocity": 80
        },
        {
          "pitch": 69,
          "onset": 93.5312,
          "duration": 0.0312,
          "velocity": 80
        },
        {
          "pitch": 67,
          "onset": 93.5938,
          "duration": 0.0312,
          "velocity": 80
        },
        {
          "pitch": 66,
          "onset": 93.625,
          "duration": 0.0625,
          "velocity": 80
        },
        {
          "pitch": 67,
          "onset": 93.6875,
          "duration": 0.0625,
          "velocity": 80
        },
        {
          "pitch": 69,
          "onset": 93.75,
          "duration": 0.125,
          "velocity": 80
        },
        {
          "pitch": 66,
          "onset": 93.875,
          "duration": 0.125,
          "velocity": 80
        },
        {
          "pitch": 59,
          "onset": 94.0,
          "duration": 0.75,
          "velocity": 80
        },
        {
          "pitch": 67,
          "onset": 94.0625,
          "duration": 0.6875,
          "velocity": 80
        },
        {
          "pitch": 69,
          "onset": 94.75,
          "duration": 0.125,
          "velocity": 80
        },
        {
          "pitch": 71,
          "onset": 94.875,
          "duration": 0.125,
          "velocity": 80
        },
        {
          "pitch": 69,
          "onset": 95.0,
          "duration": 0.125,
          "velocity": 80
        },
        {
          "pitch": 67,
          "onset": 95.125,
          "duration": 0.125,
          "velocity": 80
        },
        {
          "pitch": 66,
          "onset": 95.25,
          "duration": 0.125,
          "velocity": 80
        },
        {
          "pitch": 64,
          "onset": 95.375,
          "duration": 0.125,
          "velocity": 80
        },
        {
          "pitch": 62,
          "onset": 95.5,
          "duration": 0.125,
          "velocity": 80
        },
        {
          "pitch": 61,
          "onset": 95.625,
          "duration": 0.125,
          "velocity": 80
        },
        {
          "pitch": 64,
          "onset": 95.75,
          "duration": 0.125,
          "velocity": 80
        },
        {
          "pitch": 62,
          "onset": 95.875,
          "duration": 0.125,
          "velocity": 80
        },
        {
          "pitch": 62,
          "onset": 96.0,
          "duration": 0.25,
          "velocity": 80
        },
        {
          "pitch": 47,
          "onset": 96.25,
          "duration": 0.125,
          "velocity": 80
        },
        {
          "pitch": 49,
          "onset": 96.375,
          "duration": 0.125,
          "velocity": 80
        },
        {
          "pitch": 50,
          "onset": 96.5,
          "duration": 0.125,
          "velocity": 80
        },
        {
          "pitch": 52,
          "onset": 96.625,
          "duration": 0.125,
          "velocity": 80
        },
        {
          "pitch": 54,
          "onset": 96.75,
          "duration": 0.125,
          "velocity": 80
        },
        {
          "pitch": 50,
          "onset": 96.875,
          "duration": 0.125,
          "velocity": 80
        },
        {
          "pitch": 56,
          "onset": 97.0,
          "duration": 0.125,
          "velocity": 80
        },
        {
          "pitch": 59,
          "onset": 97.125,
          "duration": 0.125,
          "velocity": 80
        },
        {
          "pitch": 52,
          "onset": 97.25,
          "duration": 0.125,
          "velocity": 80
        },
        {
          "pitch": 54,
          "onset": 97.375,
          "duration": 0.125,
          "velocity": 80
        },
        {
          "pitch": 56,
          "onset": 97.5,
          "duration": 0.125,
          "velocity": 80
        },
        {
          "pitch": 57,
          "onset": 97.625,
          "duration": 0.125,
          "velocity": 80
        },
        {
          "pitch": 59,
          "onset": 97.75,
          "duration": 0.125,
          "velocity": 80
        },
        {
          "pitch": 61,
          "onset": 97.875,
          "duration": 0.125,
          "velocity": 80
        },
        {
          "pitch": 62,
          "onset": 98.0,
          "duration": 0.125,
          "velocity": 80
        },
        {
          "pitch": 61,
          "onset": 98.125,
          "duration": 0.125,
          "velocity": 80
        },
        {
          "pitch": 59,
          "onset": 98.25,
          "duration": 0.125,
          "velocity": 80
        },
        {
          "pitch": 61,
          "onset": 98.375,
          "duration": 0.125,
          "velocity": 80
        },
        {
          "pitch": 62,
          "onset": 98.5,
          "duration": 0.125,
          "velocity": 80
        },
        {
          "pitch": 59,
          "onset": 98.625,
          "duration": 0.125,
          "velocity": 80
        },
        {
          "pitch": 61,
          "onset": 98.75,
          "duration": 0.125,
          "velocity": 80
        },
        {
          "pitch": 57,
          "onset": 98.875,
          "duration": 0.125,
          "velocity": 80
        },
        {
          "pitch": 69,
          "onset": 99.0,
          "duration": 0.375,
          "velocity": 80
        },
        {
          "pitch": 55,
          "onset": 99.375,
          "duration": 0.125,
          "velocity": 80
        },
        {
          "pitch": 57,
          "onset": 99.5,
          "duration": 0.125,
          "velocity": 80
        },
        {
          "pitch": 55,
          "onset": 99.625,
          "duration": 0.125,
          "velocity": 80
        },
        {
          "pitch": 54,
          "onset": 99.75,
          "duration": 0.125,
          "velocity": 80
        },
        {
          "pitch": 55,
          "onset": 99.875,
          "duration": 0.125,
          "velocity": 80
        },
        {
          "pitch": 69,
          "onset": 100.375,
          "duration": 0.125,
          "velocity": 80
        },
        {
          "pitch": 67,
          "onset": 100.5,
          "duration": 0.125,
          "velocity": 80
        },
        {
          "pitch": 66,
          "onset": 100.625,
          "duration": 0.125,
          "velocity": 80
        },
        {
          "pitch": 64,
          "onset": 100.75,
          "duration": 0.125,
          "velocity": 80
        },
        {
          "pitch": 62,
          "onset": 100.875,
          "duration": 0.125,
          "velocity": 80
        },
        {
          "pitch": 60,
          "onset": 101.0,
          "duration": 0.125,
          "velocity": 80
        },
        {
          "pitch": 59,
          "onset": 101.125,
          "duration": 0.125,
          "velocity": 80
        },
        {
          "pitch": 60,
          "onset": 101.25,
          "duration": 0.125,
          "velocity": 80
        },
        {
          "pitch": 69,
          "onset": 101.375,
          "duration": 0.125,
          "velocity": 80
        },
        {
          "pitch": 60,
          "onset": 101.5,
          "duration": 0.125,
          "velocity": 80
        },
        {
          "pitch": 59,
          "onset": 101.625,
          "duration": 0.125,
          "velocity": 80
        },
        {
          "pitch": 60,
          "onset": 101.75,
          "duration": 0.125,
          "velocity": 80
        },
        {
          "pitch": 57,
          "onset": 101.875,
          "duration": 0.125,
          "velocity": 80
        },
        {
          "pitch": 54,
          "onset": 102.125,
          "duration": 0.125,
          "velocity": 80
        },
        {
          "pitch": 59,
          "onset": 102.25,
          "duration": 0.125,
          "velocity": 80
        },
        {
          "pitch": 63,
          "onset": 102.375,
          "duration": 0.125,
          "velocity": 80
        },
        {
          "pitch": 66,
          "onset": 102.5,
          "duration": 0.125,
          "velocity": 80
        },
        {
          "pitch": 69,
          "onset": 102.625,
          "duration": 0.125,
          "velocity": 80
        },
        {
          "pitch": 67,
          "onset": 102.75,
          "duration": 0.125,
          "velocity": 80
        },
        {
          "pitch": 66,
          "onset": 102.875,
          "duration": 0.125,
          "velocity": 80
        },
        {
          "pitch": 67,
          "onset": 103.0,
          "duration": 0.125,
          "velocity": 80
        },
        {
          "pitch": 52,
          "onset": 103.125,
          "duration": 0.125,
          "velocity": 80
        },
        {
          "pitch": 54,
          "onset": 103.25,
          "duration": 0.125,
          "velocity": 80
        },
        {
          "pitch": 55,
          "onset": 103.375,
          "duration": 0.125,
          "velocity": 80
        },
        {
          "pitch": 57,
          "onset": 103.5,
          "duration": 0.125,
          "velocity": 80
        },
        {
          "pitch": 59,
          "onset": 103.625,
          "duration": 0.125,
          "velocity": 80
        },
        {
          "pitch": 61,
          "onset": 103.75,
          "duration": 0.125,
          "velocity": 80
        },
        {
          "pitch": 62,
          "onset": 103.875,
          "duration": 0.125,
          "velocity": 80
        },
        {
          "pitch": 61,
          "onset": 104.0,
          "duration": 0.125,
          "velocity": 80
        },
        {
          "pitch": 64,
          "onset": 104.125,
          "duration": 0.125,
          "velocity": 80
        },
        {
          "pitch": 57,
          "onset": 104.25,
          "duration": 0.125,
          "velocity": 80
        },
        {
          "pitch": 61,
          "onset": 104.375,
          "duration": 0.125,
          "velocity": 80
        },
        {
          "pitch": 64,
          "onset": 104.5,
          "duration": 0.125,
          "velocity": 80
        },
        {
          "pitch": 67,
          "onset": 104.625,
          "duration": 0.125,
          "velocity": 80
        },
        {
          "pitch": 66,
          "onset": 104.75,
          "duration": 0.125,
          "velocity": 80
        },
        {
          "pitch": 64,
          "onset": 104.875,
          "duration": 0.125,
          "velocity": 80
        },
        {
          "pitch": 66,
          "onset": 105.0,
          "duration": 0.25,
          "velocity": 80
        },
        {
          "pitch": 50,
          "onset": 105.25,
          "duration": 0.125,
          "velocity": 80
        },
        {
          "pitch": 52,
          "onset": 105.375,
          "duration": 0.125,
          "velocity": 80
        },
        {
          "pitch": 54,
          "onset": 105.5,
          "duration": 0.125,
          "velocity": 80
        },
        {
          "pitch": 55,
          "onset": 105.625,
          "duration": 0.125,
          "velocity": 80
        },
        {
          "pitch": 57,
          "onset": 105.75,
          "duration": 0.125,
          "velocity": 80
        },
        {
          "pitch": 48,
          "onset": 105.875,
          "duration": 0.125,
          "velocity": 80
        },
        {
          "pitch": 66,
          "onset": 106.375,
          "duration": 0.125,
          "velocity": 100
        },
        {
          "pitch": 71,
          "onset": 106.5,
          "duration": 0.125,
          "velocity": 100
        },
        {
          "pitch": 69,
          "onset": 106.625,
          "duration": 0.125,
          "velocity": 100
        },
        {
          "pitch": 67,
          "onset": 106.75,
          "duration": 0.125,
          "velocity": 100
        },
        {
          "pitch": 66,
          "onset": 106.875,
          "duration": 0.125,
          "velocity": 100
        },
        {
          "pitch": 64,
          "onset": 107.0,
          "duration": 0.125,
          "velocity": 100
        },
        {
          "pitch": 61,
          "onset": 107.125,
          "duration": 0.125,
          "velocity": 100
        },
        {
          "pitch": 62,
          "onset": 107.25,
          "duration": 0.125,
          "velocity": 100
        },
        {
          "pitch": 59,
          "onset": 107.375,
          "duration": 0.125,
          "velocity": 100
        },
        {
          "pitch": 57,
          "onset": 107.5,
          "duration": 0.125,
          "velocity": 100
        },
        {
          "pitch": 54,
          "onset": 107.625,
          "duration": 0.125,
          "velocity": 100
        },
        {
          "pitch": 55,
          "onset": 107.75,
          "duration": 0.125,
          "velocity": 100
        },
        {
          "pitch": 52,
          "onset": 107.875,
          "duration": 0.125,
          "velocity": 100
        },
        {
          "pitch": 50,
          "onset": 108.0,
          "duration": 0.125,
          "velocity": 100
        },
        {
          "pitch": 47,
          "onset": 108.125,
          "duration": 0.125,
          "velocity": 100
        },
        {
          "pitch": 49,
          "onset": 108.25,
          "duration": 0.125,
          "velocity": 100
        },
        {
          "pitch": 52,
          "onset": 108.375,
          "duration": 0.125,
          "velocity": 100
        },
        {
          "pitch": 57,
          "onset": 108.5,
          "duration": 0.125,
          "velocity": 100
        },
        {
          "pitch": 61,
          "onset": 108.625,
          "duration": 0.125,
          "velocity": 100
        },
        {
          "pitch": 64,
          "onset": 108.75,
          "duration": 0.125,
          "velocity": 100
        },
        {
          "pitch": 68,
          "onset": 108.875,
          "duration": 0.125,
          "velocity": 100
        },
        {
          "pitch": 69,
          "onset": 109.0,
          "duration": 0.25,
          "velocity": 100
        },
        {
          "pitch": 57,
          "onset": 109.375,
          "duration": 0.125,
          "velocity": 80
        },
        {
          "pitch": 55,
          "onset": 109.5,
          "duration": 0.125,
          "velocity": 80
        },
        {
          "pitch": 54,
          "onset": 109.625,
          "duration": 0.125,
          "velocity": 80
        },
        {
          "pitch": 52,
          "onset": 109.75,
          "duration": 0.125,
          "velocity": 80
        },
        {
          "pitch": 50,
          "onset": 109.875,
          "duration": 0.125,
          "velocity": 80
        },
        {
          "pitch": 59,
          "onset": 110.125,
          "duration": 0.125,
          "velocity": 80
        },
        {
          "pitch": 57,
          "onset": 110.25,
          "duration": 0.125,
          "velocity": 80
        },
        {
          "pitch": 55,
          "onset": 110.375,
          "duration": 0.125,
          "velocity": 80
        },
        {
          "pitch": 54,
          "onset": 110.5,
          "duration": 0.125,
          "velocity": 80
        },
        {
          "pitch": 49,
          "onset": 110.625,
          "duration": 0.125,
          "velocity": 80
        },
        {
          "pitch": 50,
          "onset": 110.75,
          "duration": 0.125,
          "velocity": 80
        },
        {
          "pitch": 55,
          "onset": 110.875,
          "duration": 0.125,
          "velocity": 80
        },
        {
          "pitch": 52,
          "onset": 111.0,
          "duration": 0.75,
          "velocity": 80
        },
        {
          "pitch": 50,
          "onset": 111.75,
          "duration": 0.25,
          "velocity": 80
        },
        {
          "pitch": 50,
          "onset": 112.0,
          "duration": 0.375,
          "velocity": 80
        },
        {
          "pitch": 52,
          "onset": 112.375,
          "duration": 0.125,
          "velocity": 80
        },
        {
          "pitch": 54,
          "onset": 112.5,
          "duration": 0.125,
          "velocity": 80
        },
        {
          "pitch": 55,
          "onset": 112.625,
          "duration": 0.125,
          "velocity": 80
        },
        {
          "pitch": 57,
          "onset": 112.75,
          "duration": 0.125,
          "velocity": 80
        },
        {
          "pitch": 60,
          "onset": 112.875,
          "duration": 0.125,
          "velocity": 80
        },
        {
          "pitch": 59,
          "onset": 113.0,
          "duration": 0.125,
          "velocity": 80
        },
        {
          "pitch": 57,
          "onset": 113.125,
          "duration": 0.125,
          "velocity": 80
        },
        {
          "pitch": 55,
          "onset": 113.25,
          "duration": 0.125,
          "velocity": 80
        },
        {
          "pitch": 54,
          "onset": 113.375,
          "duration": 0.125,
          "velocity": 80
        },
        {
          "pitch": 55,
          "onset": 113.5,
          "duration": 0.125,
          "velocity": 80
        },
        {
          "pitch": 52,
          "onset": 113.625,
          "duration": 0.125,
          "velocity": 80
        },
        {
          "pitch": 62,
          "onset": 113.75,
          "duration": 0.125,
          "velocity": 80
        },
        {
          "pitch": 61,
          "onset": 113.875,
          "duration": 0.125,
          "velocity": 80
        },
        {
          "pitch": 62,
          "onset": 114.0,
          "duration": 0.375,
          "velocity": 80
        },
        {
          "pitch": 57,
          "onset": 114.375,
          "duration": 0.125,
          "velocity": 80
        },
        {
          "pitch": 54,
          "onset": 114.5,
          "duration": 0.0312,
          "velocity": 80
        },
        {
          "pitch": 55,
          "onset": 114.5312,
          "duration": 0.0312,
          "velocity": 80
        },
        {
          "pitch": 54,
          "onset": 114.5938,
          "duration": 0.0312,
          "velocity": 80
        },
        {
          "pitch": 55,
          "onset": 114.625,
          "duration": 0.0312,
          "velocity": 80
        },
        {
          "pitch": 54,
          "onset": 114.6562,
          "duration": 0.0938,
          "velocity": 80
        },
        {
          "pitch": 52,
          "onset": 114.75,
          "duration": 0.125,
          "velocity": 80
        },
        {
          "pitch": 50,
          "onset": 114.875,
          "duration": 0.125,
          "velocity": 80
        },
        {
          "pitch": 64,
          "onset": 115.75,
          "duration": 0.25,
          "velocity": 100
        },
        {
          "pitch": 61,
          "onset": 116.0,
          "duration": 0.5,
          "velocity": 100
        },
        {
          "pitch": 64,
          "onset": 116.0625,
          "duration": 0.5625,
          "velocity": 100
        },
        {
          "pitch": 67,
          "onset": 116.625,
          "duration": 0.125,
          "velocity": 80
        },
        {
          "pitch": 66,
          "onset": 116.75,
          "duration": 0.125,
          "velocity": 80
        },
        {
          "pitch": 64,
          "onset": 116.875,
          "duration": 0.125,
          "velocity": 80
        },
        {
          "pitch": 62,
          "onset": 117.0,
          "duration": 0.125,
          "velocity": 80
        },
        {
          "pitch": 61,
          "onset": 117.125,
          "duration": 0.125,
          "velocity": 80
        },
        {
          "pitch": 59,
          "onset": 117.25,
          "duration": 0.125,
          "velocity": 80
        },
        {
          "pitch": 61,
          "onset": 117.375,
          "duration": 0.125,
          "velocity": 80
        },
        {
          "pitch": 62,
          "onset": 117.5,
          "duration": 0.125,
          "velocity": 80
        },
        {
          "pitch": 61,
          "onset": 117.625,
          "duration": 0.125,
          "velocity": 80
        },
        {
          "pitch": 59,
          "onset": 117.75,
          "duration": 0.125,
          "velocity": 80
        },
        {
          "pitch": 61,
          "onset": 117.875,
          "duration": 0.0625,
          "velocity": 80
        },
        {
          "pitch": 57,
          "onset": 117.9375,
          "duration": 0.0625,
          "velocity": 80
        },
        {
          "pitch": 61,
          "onset": 118.0,
          "duration": 0.75,
          "velocity": 100
        },
        {
          "pitch": 69,
          "onset": 118.0625,
          "duration": 0.6875,
          "velocity": 100
        },
        {
          "pitch": 67,
          "onset": 118.75,
          "duration": 0.125,
          "velocity": 100
        },
        {
          "pitch": 66,
          "onset": 118.875,
          "duration": 0.125,
          "velocity": 100
        },
        {
          "pitch": 64,
          "onset": 119.0,
          "duration": 0.125,
          "velocity": 100
        },
        {
          "pitch": 62,
          "onset": 119.125,
          "duration": 0.125,
          "velocity": 100
        },
        {
          "pitch": 61,
          "onset": 119.25,
          "duration": 0.125,
          "velocity": 100
        },
        {
          "pitch": 59,
          "onset": 119.375,
          "duration": 0.125,
          "velocity": 100
        },
        {
          "pitch": 57,
          "onset": 119.5,
          "duration": 0.125,
          "velocity": 100
        },
        {
          "pitch": 55,
          "onset": 119.625,
          "duration": 0.125,
          "velocity": 100
        },
        {
          "pitch": 54,
          "onset": 119.75,
          "duration": 0.125,
          "velocity": 100
        },
        {
          "pitch": 55,
          "onset": 119.875,
          "duration": 0.125,
          "velocity": 100
        },
        {
          "pitch": 54,
          "onset": 120.0,
          "duration": 0.0312,
          "velocity": 100
        },
        {
          "pitch": 55,
          "onset": 120.0312,
          "duration": 0.0312,
          "velocity": 100
        },
        {
          "pitch": 54,
          "onset": 120.0938,
          "duration": 0.0312,
          "velocity": 100
        },
        {
          "pitch": 55,
          "onset": 120.125,
          "duration": 0.0312,
          "velocity": 100
        },
        {
          "pitch": 54,
          "onset": 120.1562,
          "duration": 0.0312,
          "velocity": 100
        },
        {
          "pitch": 55,
          "onset": 120.2188,
          "duration": 0.0312,
          "velocity": 100
        },
        {
          "pitch": 54,
          "onset": 120.25,
          "duration": 0.0625,
          "velocity": 100
        },
        {
          "pitch": 57,
          "onset": 120.3125,
          "duration": 0.0625,
          "velocity": 100
        },
        {
          "pitch": 59,
          "onset": 120.375,
          "duration": 0.0625,
          "velocity": 100
        },
        {
          "pitch": 61,
          "onset": 120.4375,
          "duration": 0.0625,
          "velocity": 100
        },
        {
          "pitch": 62,
          "onset": 120.5,
          "duration": 0.125,
          "velocity": 100
        },
        {
          "pitch": 59,
          "onset": 120.625,
          "duration": 0.125,
          "velocity": 100
        },
        {
          "pitch": 55,
          "onset": 120.75,
          "duration": 0.125,
          "velocity": 100
        },
        {
          "pitch": 54,
          "onset": 120.875,
          "duration": 0.125,
          "velocity": 100
        },
        {
          "pitch": 67,
          "onset": 121.25,
          "duration": 0.125,
          "velocity": 100
        },
        {
          "pitch": 66,
          "onset": 121.375,
          "duration": 0.125,
          "velocity": 100
        },
        {
          "pitch": 67,
          "onset": 121.5,
          "duration": 0.125,
          "velocity": 100
        },
        {
          "pitch": 64,
          "onset": 121.625,
          "duration": 0.125,
          "velocity": 100
        },
        {
          "pitch": 61,
          "onset": 121.75,
          "duration": 0.125,
          "velocity": 100
        },
        {
          "pitch": 57,
          "onset": 121.875,
          "duration": 0.125,
          "velocity": 100
        },
        {
          "pitch": 57,
          "onset": 122.25,
          "duration": 0.125,
          "velocity": 100
        },
        {
          "pitch": 59,
          "onset": 122.375,
          "duration": 0.125,
          "velocity": 100
        },
        {
          "pitch": 61,
          "onset": 122.5,
          "duration": 0.125,
          "velocity": 100
        },
        {
          "pitch": 62,
          "onset": 122.625,
          "duration": 0.125,
          "velocity": 100
        },
        {
          "pitch": 64,
          "onset": 122.75,
          "duration": 0.125,
          "velocity": 100
        },
        {
          "pitch": 66,
          "onset": 122.875,
          "duration": 0.0625,
          "velocity": 100
        },
        {
          "pitch": 67,
          "onset": 122.9375,
          "duration": 0.0625,
          "velocity": 100
        },
        {
          "pitch": 66,
          "onset": 123.0,
          "duration": 0.4375,
          "velocity": 100
        },
        {
          "pitch": 50,
          "onset": 123.375,
          "duration": 0.0625,
          "velocity": 100
        },
        {
          "pitch": 52,
          "onset": 123.4375,
          "duration": 0.0625,
          "velocity": 100
        },
        {
          "pitch": 54,
          "onset": 123.5,
          "duration": 0.125,
          "velocity": 100
        },
        {
          "pitch": 50,
          "onset": 123.625,
          "duration": 0.125,
          "velocity": 100
        },
        {
          "pitch": 52,
          "onset": 123.75,
          "duration": 0.125,
          "velocity": 100
        },
        {
          "pitch": 54,
          "onset": 123.875,
          "duration": 0.125,
          "velocity": 100
        },
        {
          "pitch": 57,
          "onset": 124.75,
          "duration": 0.25,
          "velocity": 100
        },
        {
          "pitch": 59,
          "onset": 125.0,
          "duration": 0.125,
          "velocity": 100
        },
        {
          "pitch": 57,
          "onset": 125.125,
          "duration": 0.125,
          "velocity": 100
        },
        {
          "pitch": 59,
          "onset": 125.25,
          "duration": 0.125,
          "velocity": 100
        },
        {
          "pitch": 60,
          "onset": 125.375,
          "duration": 0.125,
          "velocity": 100
        },
        {
          "pitch": 59,
          "onset": 125.5,
          "duration": 0.125,
          "velocity": 100
        },
        {
          "pitch": 60,
          "onset": 125.625,
          "duration": 0.125,
          "velocity": 100
        },
        {
          "pitch": 60,
          "onset": 125.75,
          "duration": 0.0312,
          "velocity": 100
        },
        {
          "pitch": 62,
          "onset": 125.7812,
          "duration": 0.0312,
          "velocity": 100
        },
        {
          "pitch": 60,
          "onset": 125.8438,
          "duration": 0.0312,
          "velocity": 100
        },
        {
          "pitch": 59,
          "onset": 125.875,
          "duration": 0.0625,
          "velocity": 100
        },
        {
          "pitch": 60,
          "onset": 125.9375,
          "duration": 0.0625,
          "velocity": 100
        },
        {
          "pitch": 55,
          "onset": 126.0,
          "duration": 0.75,
          "velocity": 100
        },
        {
          "pitch": 62,
          "onset": 126.0,
          "duration": 0.25,
          "velocity": 100
        },
        {
          "pitch": 66,
          "onset": 128.875,
          "duration": 0.125,
          "velocity": 100
        },
        {
          "pitch": 66,
          "onset": 129.0,
          "duration": 0.125,
          "velocity": 100
        },
        {
          "pitch": 65,
          "onset": 129.125,
          "duration": 0.125,
          "velocity": 100
        },
        {
          "pitch": 68,
          "onset": 129.25,
          "duration": 0.125,
          "velocity": 100
        },
        {
          "pitch": 66,
          "onset": 129.375,
          "duration": 0.125,
          "velocity": 100
        },
        {
          "pitch": 69,
          "onset": 129.5,
          "duration": 0.125,
          "velocity": 100
        },
        {
          "pitch": 68,
          "onset": 129.625,
          "duration": 0.125,
          "velocity": 100
        },
        {
          "pitch": 71,
          "onset": 129.75,
          "duration": 0.125,
          "velocity": 100
        },
        {
          "pitch": 62,
          "onset": 129.875,
          "duration": 0.125,
          "velocity": 100
        },
        {
          "pitch": 61,
          "onset": 130.375,
          "duration": 0.125,
          "velocity": 100
        },
        {
          "pitch": 71,
          "onset": 130.5,
          "duration": 0.125,
          "velocity": 100
        },
        {
          "pitch": 69,
          "onset": 130.625,
          "duration": 0.125,
          "velocity": 100
        },
        {
          "pitch": 71,
          "onset": 130.75,
          "duration": 0.125,
          "velocity": 100
        },
        {
          "pitch": 68,
          "onset": 130.875,
          "duration": 0.125,
          "velocity": 100
        },
        {
          "pitch": 61,
          "onset": 131.0,
          "duration": 0.375,
          "velocity": 100
        },
        {
          "pitch": 69,
          "onset": 131.0625,
          "duration": 0.3125,
          "velocity": 100
        },
        {
          "pitch": 68,
          "onset": 131.375,
          "duration": 0.125,
          "velocity": 100
        },
        {
          "pitch": 66,
          "onset": 131.5,
          "duration": 0.125,
          "velocity": 100
        },
        {
          "pitch": 64,
          "onset": 131.625,
          "duration": 0.125,
          "velocity": 100
        },
        {
          "pitch": 62,
          "onset": 131.75,
          "duration": 0.125,
          "velocity": 100
        },
        {
          "pitch": 64,
          "onset": 131.875,
          "duration": 0.0625,
          "velocity": 100
        },
        {
          "pitch": 61,
          "onset": 131.9375,
          "duration": 0.0625,
          "velocity": 100
        },
        {
          "pitch": 54,
          "onset": 132.0,
          "duration": 0.375,
          "velocity": 100
        },
        {
          "pitch": 62,
          "onset": 132.0625,
          "duration": 0.3125,
          "velocity": 100
        },
        {
          "pitch": 61,
          "onset": 132.375,
          "duration": 0.125,
          "velocity": 100
        },
        {
          "pitch": 59,
          "onset": 132.5,
          "duration": 0.125,
          "velocity": 100
        },
        {
          "pitch": 57,
          "onset": 132.625,
          "duration": 0.125,
          "velocity": 100
        },
        {
          "pitch": 55,
          "onset": 132.75,
          "duration": 0.125,
          "velocity": 100
        },
        {
          "pitch": 57,
          "onset": 132.875,
          "duration": 0.0625,
          "velocity": 100
        },
        {
          "pitch": 54,
          "onset": 132.9375,
          "duration": 0.0625,
          "velocity": 100
        },
        {
          "pitch": 55,
          "onset": 133.0,
          "duration": 0.3125,
          "velocity": 100
        },
        {
          "pitch": 50,
          "onset": 133.3125,
          "duration": 0.0625,
          "velocity": 100
        },
        {
          "pitch": 52,
          "onset": 133.375,
          "duration": 0.0625,
          "velocity": 100
        },
        {
          "pitch": 54,
          "onset": 133.4375,
          "duration": 0.0625,
          "velocity": 100
        },
        {
          "pitch": 55,
          "onset": 133.5,
          "duration": 0.125,
          "velocity": 100
        },
        {
          "pitch": 57,
          "onset": 133.625,
          "duration": 0.125,
          "velocity": 100
        },
        {
          "pitch": 59,
          "onset": 133.75,
          "duration": 0.125,
          "velocity": 100
        },
        {
          "pitch": 61,
          "onset": 133.875,
          "duration": 0.0625,
          "velocity": 100
        },
        {
          "pitch": 62,
          "onset": 133.9375,
          "duration": 0.0625,
          "velocity": 100
        },
        {
          "pitch": 62,
          "onset": 134.0,
          "duration": 0.25,
          "velocity": 100
        },
        {
          "pitch": 53,
          "onset": 134.25,
          "duration": 0.0312,
          "velocity": 100
        },
        {
          "pitch": 54,
          "onset": 134.2812,
          "duration": 0.0312,
          "velocity": 100
        },
        {
          "pitch": 53,
          "onset": 134.3438,
          "duration": 0.0312,
          "velocity": 100
        },
        {
          "pitch": 54,
          "onset": 134.375,
          "duration": 0.0312,
          "velocity": 100
        },
        {
          "pitch": 53,
          "onset": 134.4062,
          "duration": 0.0312,
          "velocity": 100
        },
        {
          "pitch": 54,
          "onset": 134.4688,
          "duration": 0.0312,
          "velocity": 100
        },
        {
          "pitch": 53,
          "onset": 134.5,
          "duration": 0.25,
          "velocity": 100
        },
        {
          "pitch": 54,
          "onset": 134.75,
          "duration": 0.125,
          "velocity": 100
        },
        {
          "pitch": 56,
          "onset": 134.875,
          "duration": 0.125,
          "velocity": 100
        },
        {
          "pitch": 66,
          "onset": 136.125,
          "duration": 0.125,
          "velocity": 100
        },
        {
          "pitch": 68,
          "onset": 136.25,
          "duration": 0.125,
          "velocity": 100
        },
        {
          "pitch": 69,
          "onset": 136.375,
          "duration": 0.125,
          "velocity": 100
        },
        {
          "pitch": 69,
          "onset": 136.625,
          "duration": 0.125,
          "velocity": 100
        },
        {
          "pitch": 68,
          "onset": 136.75,
          "duration": 0.125,
          "velocity": 100
        },
        {
          "pitch": 71,
          "onset": 136.875,
          "duration": 0.125,
          "velocity": 100
        },
        {
          "pitch": 66,
          "onset": 137.0,
          "duration": 0.5,
          "velocity": 100
        },
        {
          "pitch": 65,
          "onset": 137.5,
          "duration": 0.0312,
          "velocity": 100
        },
        {
          "pitch": 66,
          "onset": 137.5312,
          "duration": 0.0312,
          "velocity": 100
        },
        {
          "pitch": 65,
          "onset": 137.5938,
          "duration": 0.0312,
          "velocity": 100
        },
        {
          "pitch": 66,
          "onset": 137.625,
          "duration": 0.0312,
          "velocity": 100
        },
        {
          "pitch": 65,
          "onset": 137.6562,
          "duration": 0.0312,
          "velocity": 100
        },
        {
          "pitch": 66,
          "onset": 137.7188,
          "duration": 0.0312,
          "velocity": 100
        },
        {
          "pitch": 65,
          "onset": 137.75,
          "duration": 0.125,
          "velocity": 100
        },
        {
          "pitch": 66,
          "onset": 137.875,
          "duration": 0.125,
          "velocity": 100
        },
        {
          "pitch": 66,
          "onset": 138.0,
          "duration": 0.375,
          "velocity": 100
        },
        {
          "pitch": 61,
          "onset": 138.375,
          "duration": 0.125,
          "velocity": 80
        },
        {
          "pitch": 66,
          "onset": 138.5,
          "duration": 0.125,
          "velocity": 80
        },
        {
          "pitch": 68,
          "onset": 138.625,
          "duration": 0.125,
          "velocity": 80
        },
        {
          "pitch": 69,
          "onset": 138.75,
          "duration": 0.125,
          "velocity": 80
        },
        {
          "pitch": 68,
          "onset": 138.875,
          "duration": 0.125,
          "velocity": 80
        },
        {
          "pitch": 69,
          "onset": 139.0,
          "duration": 0.125,
          "velocity": 80
        },
        {
          "pitch": 71,
          "onset": 139.125,
          "duration": 0.125,
          "velocity": 80
        },
        {
          "pitch": 73,
          "onset": 139.25,
          "duration": 0.125,
          "velocity": 80
        },
        {
          "pitch": 69,
          "onset": 139.375,
          "duration": 0.125,
          "velocity": 80
        },
        {
          "pitch": 63,
          "onset": 139.5,
          "duration": 0.125,
          "velocity": 80
        },
        {
          "pitch": 64,
          "onset": 139.625,
          "duration": 0.125,
          "velocity": 80
        },
        {
          "pitch": 63,
          "onset": 139.75,
          "duration": 0.125,
          "velocity": 80
        },
        {
          "pitch": 64,
          "onset": 139.875,
          "duration": 0.125,
          "velocity": 80
        },
        {
          "pitch": 63,
          "onset": 140.0625,
          "duration": 0.0625,
          "velocity": 80
        },
        {
          "pitch": 64,
          "onset": 140.125,
          "duration": 0.0625,
          "velocity": 80
        },
        {
          "pitch": 63,
          "onset": 140.1875,
          "duration": 0.125,
          "velocity": 80
        },
        {
          "pitch": 57,
          "onset": 140.3125,
          "duration": 0.0625,
          "velocity": 80
        },
        {
          "pitch": 59,
          "onset": 140.375,
          "duration": 0.0625,
          "velocity": 80
        },
        {
          "pitch": 60,
          "onset": 140.4375,
          "duration": 0.0625,
          "velocity": 80
        },
        {
          "pitch": 60,
          "onset": 140.5,
          "duration": 0.3125,
          "velocity": 80
        },
        {
          "pitch": 57,
          "onset": 140.8125,
          "duration": 0.0625,
          "velocity": 80
        },
        {
          "pitch": 59,
          "onset": 140.875,
          "duration": 0.0625,
          "velocity": 80
        },
        {
          "pitch": 60,
          "onset": 140.9375,
          "duration": 0.0625,
          "velocity": 80
        },
        {
          "pitch": 60,
          "onset": 141.0,
          "duration": 0.25,
          "velocity": 80
        },
        {
          "pitch": 59,
          "onset": 141.25,
          "duration": 0.125,
          "velocity": 80
        },
        {
          "pitch": 69,
          "onset": 141.375,
          "duration": 0.125,
          "velocity": 80
        },
        {
          "pitch": 67,
          "onset": 141.5,
          "duration": 0.0312,
          "velocity": 80
        },
        {
          "pitch": 69,
          "onset": 141.5312,
          "duration": 0.0312,
          "velocity": 80
        },
        {
          "pitch": 67,
          "onset": 141.5938,
          "duration": 0.0312,
          "velocity": 80
        },
        {
          "pitch": 66,
          "onset": 141.625,
          "duration": 0.0625,
          "velocity": 80
        },
        {
          "pitch": 67,
          "onset": 141.6875,
          "duration": 0.0625,
          "velocity": 80
        },
        {
          "pitch": 69,
          "onset": 141.75,
          "duration": 0.125,
          "velocity": 80
        },
        {
          "pitch": 66,
          "onset": 141.875,
          "duration": 0.125,
          "velocity": 80
        },
        {
          "pitch": 59,
          "onset": 142.0,
          "duration": 0.75,
          "velocity": 80
        },
        {
          "pitch": 67,
          "onset": 142.0625,
          "duration": 0.6875,
          "velocity": 80
        },
        {
          "pitch": 69,
          "onset": 142.75,
          "duration": 0.125,
          "velocity": 80
        },
        {
          "pitch": 71,
          "onset": 142.875,
          "duration": 0.125,
          "velocity": 80
        },
        {
          "pitch": 69,
          "onset": 143.0,
          "duration": 0.125,
          "velocity": 80
        },
        {
          "pitch": 67,
          "onset": 143.125,
          "duration": 0.125,
          "velocity": 80
        },
        {
          "pitch": 66,
          "onset": 143.25,
          "duration": 0.125,
          "velocity": 80
        },
        {
          "pitch": 64,
          "onset": 143.375,
          "duration": 0.125,
          "velocity": 80
        },
        {
          "pitch": 62,
          "onset": 143.5,
          "duration": 0.125,
          "velocity": 80
        },
        {
          "pitch": 61,
          "onset": 143.625,
          "duration": 0.125,
          "velocity": 80
        },
        {
          "pitch": 64,
          "onset": 143.75,
          "duration": 0.125,
          "velocity": 80
        },
        {
          "pitch": 62,
          "onset": 143.875,
          "duration": 0.125,
          "velocity": 80
        },
        {
          "pitch": 62,
          "onset": 144.0,
          "duration": 0.25,
          "velocity": 80
        },
        {
          "pitch": 47,
          "onset": 144.25,
          "duration": 0.125,
          "velocity": 80
        },
        {
          "pitch": 49,
          "onset": 144.375,
          "duration": 0.125,
          "velocity": 80
        },
        {
          "pitch": 50,
          "onset": 144.5,
          "duration": 0.125,
          "velocity": 80
        },
        {
          "pitch": 52,
          "onset": 144.625,
          "duration": 0.125,
          "velocity": 80
        },
        {
          "pitch": 54,
          "onset": 144.75,
          "duration": 0.125,
          "velocity": 80
        },
        {
          "pitch": 50,
          "onset": 144.875,
          "duration": 0.125,
          "velocity": 80
        },
        {
          "pitch": 56,
          "onset": 145.0,
          "duration": 0.125,
          "velocity": 80
        },
        {
          "pitch": 59,
          "onset": 145.125,
          "duration": 0.125,
          "velocity": 80
        },
        {
          "pitch": 52,
          "onset": 145.25,
          "duration": 0.125,
          "velocity": 80
        },
        {
          "pitch": 54,
          "onset": 145.375,
          "duration": 0.125,
          "velocity": 80
        },
        {
          "pitch": 56,
          "onset": 145.5,
          "duration": 0.125,
          "velocity": 80
        },
        {
          "pitch": 57,
          "onset": 145.625,
          "duration": 0.125,
          "velocity": 80
        },
        {
          "pitch": 59,
          "onset": 145.75,
          "duration": 0.125,
          "velocity": 80
        },
        {
          "pitch": 61,
          "onset": 145.875,
          "duration": 0.125,
          "velocity": 80
        },
        {
          "pitch": 62,
          "onset": 146.0,
          "duration": 0.125,
          "velocity": 80
        },
        {
          "pitch": 61,
          "onset": 146.125,
          "duration": 0.125,
          "velocity": 80
        },
        {
          "pitch": 59,
          "onset": 146.25,
          "duration": 0.125,
          "velocity": 80
        },
        {
          "pitch": 61,
          "onset": 146.375,
          "duration": 0.125,
          "velocity": 80
        },
        {
          "pitch": 62,
          "onset": 146.5,
          "duration": 0.125,
          "velocity": 80
        },
        {
          "pitch": 59,
          "onset": 146.625,
          "duration": 0.125,
          "velocity": 80
        },
        {
          "pitch": 61,
          "onset": 146.75,
          "duration": 0.125,
          "velocity": 80
        },
        {
          "pitch": 57,
          "onset": 146.875,
          "duration": 0.125,
          "velocity": 80
        },
        {
          "pitch": 69,
          "onset": 147.0,
          "duration": 0.375,
          "velocity": 80
        },
        {
          "pitch": 55,
          "onset": 147.375,
          "duration": 0.125,
          "velocity": 80
        },
        {
          "pitch": 57,
          "onset": 147.5,
          "duration": 0.125,
          "velocity": 80
        },
        {
          "pitch": 55,
          "onset": 147.625,
          "duration": 0.125,
          "velocity": 80
        },
        {
          "pitch": 54,
          "onset": 147.75,
          "duration": 0.125,
          "velocity": 80
        },
        {
          "pitch": 55,
          "onset": 147.875,
          "duration": 0.125,
          "velocity": 80
        },
        {
          "pitch": 69,
          "onset": 148.375,
          "duration": 0.125,
          "velocity": 80
        },
        {
          "pitch": 67,
          "onset": 148.5,
          "duration": 0.125,
          "velocity": 80
        },
        {
          "pitch": 66,
          "onset": 148.625,
          "duration": 0.125,
          "velocity": 80
        },
        {
          "pitch": 64,
          "onset": 148.75,
          "duration": 0.125,
          "velocity": 80
        },
        {
          "pitch": 62,
          "onset": 148.875,
          "duration": 0.125,
          "velocity": 80
        },
        {
          "pitch": 60,
          "onset": 149.0,
          "duration": 0.125,
          "velocity": 80
        },
        {
          "pitch": 59,
          "onset": 149.125,
          "duration": 0.125,
          "velocity": 80
        },
        {
          "pitch": 60,
          "onset": 149.25,
          "duration": 0.125,
          "velocity": 80
        },
        {
          "pitch": 69,
          "onset": 149.375,
          "duration": 0.125,
          "velocity": 80
        },
        {
          "pitch": 60,
          "onset": 149.5,
          "duration": 0.125,
          "velocity": 80
        },
        {
          "pitch": 59,
          "onset": 149.625,
          "duration": 0.125,
          "velocity": 80
        },
        {
          "pitch": 60,
          "onset": 149.75,
          "duration": 0.125,
          "velocity": 80
        },
        {
          "pitch": 57,
          "onset": 149.875,
          "duration": 0.125,
          "velocity": 80
        },
        {
          "pitch": 54,
          "onset": 150.125,
          "duration": 0.125,
          "velocity": 80
        },
        {
          "pitch": 59,
          "onset": 150.25,
          "duration": 0.125,
          "velocity": 80
        },
        {
          "pitch": 63,
          "onset": 150.375,
          "duration": 0.125,
          "velocity": 80
        },
        {
          "pitch": 66,
          "onset": 150.5,
          "duration": 0.125,
          "velocity": 80
        },
        {
          "pitch": 69,
          "onset": 150.625,
          "duration": 0.125,
          "velocity": 80
        },
        {
          "pitch": 67,
          "onset": 150.75,
          "duration": 0.125,
          "velocity": 80
        },
        {
          "pitch": 66,
          "onset": 150.875,
          "duration": 0.125,
          "velocity": 80
        },
        {
          "pitch": 67,
          "onset": 151.0,
          "duration": 0.125,
          "velocity": 80
        },
        {
          "pitch": 52,
          "onset": 151.125,
          "duration": 0.125,
          "velocity": 80
        },
        {
          "pitch": 54,
          "onset": 151.25,
          "duration": 0.125,
          "velocity": 80
        },
        {
          "pitch": 55,
          "onset": 151.375,
          "duration": 0.125,
          "velocity": 80
        },
        {
          "pitch": 57,
          "onset": 151.5,
          "duration": 0.125,
          "velocity": 80
        },
        {
          "pitch": 59,
          "onset": 151.625,
          "duration": 0.125,
          "velocity": 80
        },
        {
          "pitch": 61,
          "onset": 151.75,
          "duration": 0.125,
          "velocity": 80
        },
        {
          "pitch": 62,
          "onset": 151.875,
          "duration": 0.125,
          "velocity": 80
        },
        {
          "pitch": 61,
          "onset": 152.0,
          "duration": 0.125,
          "velocity": 80
        },
        {
          "pitch": 64,
          "onset": 152.125,
          "duration": 0.125,
          "velocity": 80
        },
        {
          "pitch": 57,
          "onset": 152.25,
          "duration": 0.125,
          "velocity": 80
        },
        {
          "pitch": 61,
          "onset": 152.375,
          "duration": 0.125,
          "velocity": 80
        },
        {
          "pitch": 64,
          "onset": 152.5,
          "duration": 0.125,
          "velocity": 80
        },
        {
          "pitch": 67,
          "onset": 152.625,
          "duration": 0.125,
          "velocity": 80
        },
        {
          "pitch": 66,
          "onset": 152.75,
          "duration": 0.125,
          "velocity": 80
        },
        {
          "pitch": 64,
          "onset": 152.875,
          "duration": 0.125,
          "velocity": 80
        },
        {
          "pitch": 66,
          "onset": 153.0,
          "duration": 0.25,
          "velocity": 80
        },
        {
          "pitch": 50,
          "onset": 153.25,
          "duration": 0.125,
          "velocity": 80
        },
        {
          "pitch": 52,
          "onset": 153.375,
          "duration": 0.125,
          "velocity": 80
        },
        {
          "pitch": 54,
          "onset": 153.5,
          "duration": 0.125,
          "velocity": 80
        },
        {
          "pitch": 55,
          "onset": 153.625,
          "duration": 0.125,
          "velocity": 80
        },
        {
          "pitch": 57,
          "onset": 153.75,
          "duration": 0.125,
          "velocity": 80
        },
        {
          "pitch": 48,
          "onset": 153.875,
          "duration": 0.125,
          "velocity": 80
        },
        {
          "pitch": 66,
          "onset": 154.375,
          "duration": 0.125,
          "velocity": 100
        },
        {
          "pitch": 71,
          "onset": 154.5,
          "duration": 0.125,
          "velocity": 100
        },
        {
          "pitch": 69,
          "onset": 154.625,
          "duration": 0.125,
          "velocity": 100
        },
        {
          "pitch": 67,
          "onset": 154.75,
          "duration": 0.125,
          "velocity": 100
        },
        {
          "pitch": 66,
          "onset": 154.875,
          "duration": 0.125,
          "velocity": 100
        },
        {
          "pitch": 64,
          "onset": 155.0,
          "duration": 0.125,
          "velocity": 100
        },
        {
          "pitch": 61,
          "onset": 155.125,
          "duration": 0.125,
          "velocity": 100
        },
        {
          "pitch": 62,
          "onset": 155.25,
          "duration": 0.125,
          "velocity": 100
        },
        {
          "pitch": 59,
          "onset": 155.375,
          "duration": 0.125,
          "velocity": 100
        },
        {
          "pitch": 57,
          "onset": 155.5,
          "duration": 0.125,
          "velocity": 100
        },
        {
          "pitch": 54,
          "onset": 155.625,
          "duration": 0.125,
          "velocity": 100
        },
        {
          "pitch": 55,
          "onset": 155.75,
          "duration": 0.125,
          "velocity": 100
        },
        {
          "pitch": 52,
          "onset": 155.875,
          "duration": 0.125,
          "velocity": 100
        },
        {
          "pitch": 50,
          "onset": 156.0,
          "duration": 0.125,
          "velocity": 100
        },
        {
          "pitch": 47,
          "onset": 156.125,
          "duration": 0.125,
          "velocity": 100
        },
        {
          "pitch": 49,
          "onset": 156.25,
          "duration": 0.125,
          "velocity": 100
        },
        {
          "pitch": 52,
          "onset": 156.375,
          "duration": 0.125,
          "velocity": 100
        },
        {
          "pitch": 57,
          "onset": 156.5,
          "duration": 0.125,
          "velocity": 100
        },
        {
          "pitch": 61,
          "onset": 156.625,
          "duration": 0.125,
          "velocity": 100
        },
        {
          "pitch": 64,
          "onset": 156.75,
          "duration": 0.125,
          "velocity": 100
        },
        {
          "pitch": 68,
          "onset": 156.875,
          "duration": 0.125,
          "velocity": 100
        },
        {
          "pitch": 69,
          "onset": 157.0,
          "duration": 0.25,
          "velocity": 100
        },
        {
          "pitch": 57,
          "onset": 157.375,
          "duration": 0.125,
          "velocity": 80
        },
        {
          "pitch": 55,
          "onset": 157.5,
          "duration": 0.125,
          "velocity": 80
        },
        {
          "pitch": 54,
          "onset": 157.625,
          "duration": 0.125,
          "velocity": 80
        },
        {
          "pitch": 52,
          "onset": 157.75,
          "duration": 0.125,
          "velocity": 80
        },
        {
          "pitch": 50,
          "onset": 157.875,
          "duration": 0.125,
          "velocity": 80
        },
        {
          "pitch": 59,
          "onset": 158.125,
          "duration": 0.125,
          "velocity": 80
        },
        {
          "pitch": 57,
          "onset": 158.25,
          "duration": 0.125,
          "velocity": 80
        },
        {
          "pitch": 55,
          "onset": 158.375,
          "duration": 0.125,
          "velocity": 80
        },
        {
          "pitch": 54,
          "onset": 158.5,
          "duration": 0.125,
          "velocity": 80
        },
        {
          "pitch": 49,
          "onset": 158.625,
          "duration": 0.125,
          "velocity": 80
        },
        {
          "pitch": 50,
          "onset": 158.75,
          "duration": 0.125,
          "velocity": 80
        },
        {
          "pitch": 55,
          "onset": 158.875,
          "duration": 0.125,
          "velocity": 80
        },
        {
          "pitch": 52,
          "onset": 159.0,
          "duration": 0.75,
          "velocity": 80
        },
        {
          "pitch": 50,
          "onset": 159.75,
          "duration": 0.25,
          "velocity": 80
        },
        {
          "pitch": 50,
          "onset": 160.0,
          "duration": 0.375,
          "velocity": 80
        },
        {
          "pitch": 52,
          "onset": 160.375,
          "duration": 0.125,
          "velocity": 80
        },
        {
          "pitch": 54,
          "onset": 160.5,
          "duration": 0.125,
          "velocity": 80
        },
        {
          "pitch": 55,
          "onset": 160.625,
          "duration": 0.125,
          "velocity": 80
        },
        {
          "pitch": 57,
          "onset": 160.75,
          "duration": 0.125,
          "velocity": 80
        },
        {
          "pitch": 60,
          "onset": 160.875,
          "duration": 0.125,
          "velocity": 80
        },
        {
          "pitch": 59,
          "onset": 161.0,
          "duration": 0.125,
          "velocity": 80
        },
        {
          "pitch": 57,
          "onset": 161.125,
          "duration": 0.125,
          "velocity": 80
        },
        {
          "pitch": 55,
          "onset": 161.25,
          "duration": 0.125,
          "velocity": 80
        },
        {
          "pitch": 54,
          "onset": 161.375,
          "duration": 0.125,
          "velocity": 80
        },
        {
          "pitch": 55,
          "onset": 161.5,
          "duration": 0.125,
          "velocity": 80
        },
        {
          "pitch": 52,
          "onset": 161.625,
          "duration": 0.125,
          "velocity": 80
        },
        {
          "pitch": 62,
          "onset": 161.75,
          "duration": 0.125,
          "velocity": 80
        },
        {
          "pitch": 61,
          "onset": 161.875,
          "duration": 0.125,
          "velocity": 80
        },
        {
          "pitch": 62,
          "onset": 162.0,
          "duration": 0.375,
          "velocity": 80
        },
        {
          "pitch": 57,
          "onset": 162.375,
          "duration": 0.125,
          "velocity": 80
        },
        {
          "pitch": 54,
          "onset": 162.5,
          "duration": 0.0312,
          "velocity": 80
        },
        {
          "pitch": 55,
          "onset": 162.5312,
          "duration": 0.0312,
          "velocity": 80
        },
        {
          "pitch": 54,
          "onset": 162.5938,
          "duration": 0.0312,
          "velocity": 80
        },
        {
          "pitch": 55,
          "onset": 162.625,
          "duration": 0.0312,
          "velocity": 80
        },
        {
          "pitch": 54,
          "onset": 162.6562,
          "duration": 0.0938,
          "velocity": 80
        },
        {
          "pitch": 52,
          "onset": 162.75,
          "duration": 0.125,
          "velocity": 80
        },
        {
          "pitch": 50,
          "onset": 162.875,
          "duration": 0.25,
          "velocity": 80
        },
        {
          "pitch": 50,
          "onset": 165.125,
          "duration": 0.125,
          "velocity": 1
        }
      ]
    },
    {
      "role": "solo_1",
      "notes": [
        {
          "pitch": 50,
          "onset": 0.0,
          "duration": 0.125,
          "velocity": 1
        },
        {
          "pitch": 50,
          "onset": 4.0,
          "duration": 1.0,
          "velocity": 80
        },
        {
          "pitch": 52,
          "onset": 6.0,
          "duration": 1.0,
          "velocity": 80
        },
        {
          "pitch": 54,
          "onset": 8.0,
          "duration": 0.75,
          "velocity": 80
        },
        {
          "pitch": 59,
          "onset": 9.0,
          "duration": 0.5,
          "velocity": 80
        },
        {
          "pitch": 52,
          "onset": 10.0,
          "duration": 0.5,
          "velocity": 80
        },
        {
          "pitch": 59,
          "onset": 10.0,
          "duration": 0.5,
          "velocity": 80
        },
        {
          "pitch": 57,
          "onset": 11.0,
          "duration": 1.0,
          "velocity": 80
        },
        {
          "pitch": 50,
          "onset": 12.0,
          "duration": 0.5,
          "velocity": 80
        },
        {
          "pitch": 66,
          "onset": 13.0,
          "duration": 0.75,
          "velocity": 80
        },
        {
          "pitch": 66,
          "onset": 13.75,
          "duration": 0.25,
          "velocity": 80
        },
        {
          "pitch": 56,
          "onset": 14.0,
          "duration": 0.1875,
          "velocity": 80
        },
        {
          "pitch": 58,
          "onset": 15.5,
          "duration": 0.4062,
          "velocity": 80
        },
        {
          "pitch": 54,
          "onset": 18.0,
          "duration": 0.375,
          "velocity": 80
        },
        {
          "pitch": 56,
          "onset": 18.375,
          "duration": 0.125,
          "velocity": 80
        },
        {
          "pitch": 57,
          "onset": 18.5,
          "duration": 0.125,
          "velocity": 80
        },
        {
          "pitch": 59,
          "onset": 18.625,
          "duration": 0.125,
          "velocity": 80
        },
        {
          "pitch": 61,
          "onset": 18.75,
          "duration": 0.125,
          "velocity": 80
        },
        {
          "pitch": 57,
          "onset": 18.875,
          "duration": 0.125,
          "velocity": 80
        },
        {
          "pitch": 51,
          "onset": 19.0,
          "duration": 0.0312,
          "velocity": 80
        },
        {
          "pitch": 52,
          "onset": 19.0312,
          "duration": 0.0312,
          "velocity": 80
        },
        {
          "pitch": 51,
          "onset": 19.0938,
          "duration": 0.0312,
          "velocity": 80
        },
        {
          "pitch": 52,
          "onset": 19.125,
          "duration": 0.0312,
          "velocity": 80
        },
        {
          "pitch": 51,
          "onset": 19.1562,
          "duration": 0.0312,
          "velocity": 80
        },
        {
          "pitch": 52,
          "onset": 19.2188,
          "duration": 0.0312,
          "velocity": 80
        },
        {
          "pitch": 51,
          "onset": 19.25,
          "duration": 0.1875,
          "velocity": 80
        },
        {
          "pitch": 52,
          "onset": 20.0,
          "duration": 0.25,
          "velocity": 80
        },
        {
          "pitch": 61,
          "onset": 21.0,
          "duration": 0.75,
          "velocity": 80
        },
        {
          "pitch": 61,
          "onset": 21.75,
          "duration": 0.25,
          "velocity": 80
        },
        {
          "pitch": 54,
          "onset": 22.0,
          "duration": 0.1875,
          "velocity": 80
        },
        {
          "pitch": 52,
          "onset": 24.0,
          "duration": 0.1875,
          "velocity": 80
        },
        {
          "pitch": 50,
          "onset": 26.0,
          "duration": 0.1875,
          "velocity": 80
        },
        {
          "pitch": 50,
          "onset": 28.875,
          "duration": 0.125,
          "velocity": 80
        },
        {
          "pitch": 49,
          "onset": 29.0,
          "duration": 0.4375,
          "velocity": 80
        },
        {
          "pitch": 50,
          "onset": 30.0,
          "duration": 0.1875,
          "velocity": 80
        },
        {
          "pitch": 52,
          "onset": 31.0,
          "duration": 1.0,
          "velocity": 80
        },
        {
          "pitch": 57,
          "onset": 32.0,
          "duration": 0.25,
          "velocity": 80
        },
        {
          "pitch": 45,
          "onset": 35.0,
          "duration": 0.625,
          "velocity": 80
        },
        {
          "pitch": 50,
          "onset": 36.0,
          "duration": 1.0,
          "velocity": 80
        },
        {
          "pitch": 52,
          "onset": 38.0,
          "duration": 1.0,
          "velocity": 80
        },
        {
          "pitch": 54,
          "onset": 40.0,
          "duration": 0.75,
          "velocity": 80
        },
        {
          "pitch": 59,
          "onset": 41.0,
          "duration": 0.5,
          "velocity": 80
        },
        {
          "pitch": 52,
          "onset": 42.0,
          "duration": 0.5,
          "velocity": 80
        },
        {
          "pitch": 59,
          "onset": 42.0,
          "duration": 0.5,
          "velocity": 80
        },
        {
          "pitch": 57,
          "onset": 43.0,
          "duration": 1.0,
          "velocity": 80
        },
        {
          "pitch": 50,
          "onset": 44.0,
          "duration": 0.5,
          "velocity": 80
        },
        {
          "pitch": 66,
          "onset": 45.0,
          "duration": 0.75,
          "velocity": 80
        },
        {
          "pitch": 66,
          "onset": 45.75,
          "duration": 0.25,
          "velocity": 80
        },
        {
          "pitch": 56,
          "onset": 46.0,
          "duration": 0.1875,
          "velocity": 80
        },
        {
          "pitch": 58,
          "onset": 47.5,
          "duration": 0.4062,
          "velocity": 80
        },
        {
          "pitch": 54,
          "onset": 50.0,
          "duration": 0.375,
          "velocity": 80
        },
        {
          "pitch": 56,
          "onset": 50.375,
          "duration": 0.125,
          "velocity": 80
        },
        {
          "pitch": 57,
          "onset": 50.5,
          "duration": 0.125,
          "velocity": 80
        },
        {
          "pitch": 59,
          "onset": 50.625,
          "duration": 0.125,
          "velocity": 80
        },
        {
          "pitch": 61,
          "onset": 50.75,
          "duration": 0.125,
          "velocity": 80
        },
        {
          "pitch": 57,
          "onset": 50.875,
          "duration": 0.125,
          "velocity": 80
        },
        {
          "pitch": 51,
          "onset": 51.0,
          "duration": 0.0312,
          "velocity": 80
        },
        {
          "pitch": 52,
          "onset": 51.0312,
          "duration": 0.0312,
          "velocity": 80
        },
        {
          "pitch": 51,
          "onset": 51.0938,
          "duration": 0.0312,
          "velocity": 80
        },
        {
          "pitch": 52,
          "onset": 51.125,
          "duration": 0.0312,
          "velocity": 80
        },
        {
          "pitch": 51,
          "onset": 51.1562,
          "duration": 0.0312,
          "velocity": 80
        },
        {
          "pitch": 52,
          "onset": 51.2188,
          "duration": 0.0312,
          "velocity": 80
        },
        {
          "pitch": 51,
          "onset": 51.25,
          "duration": 0.1875,
          "velocity": 80
        },
        {
          "pitch": 52,
          "onset": 52.0,
          "duration": 0.25,
          "velocity": 100
        },
        {
          "pitch": 61,
          "onset": 53.0,
          "duration": 0.75,
          "velocity": 100
        },
        {
          "pitch": 61,
          "onset": 53.75,
          "duration": 0.25,
          "velocity": 100
        },
        {
          "pitch": 54,
          "onset": 54.0,
          "duration": 0.1875,
          "velocity": 100
        },
        {
          "pitch": 52,
          "onset": 56.0,
          "duration": 0.1875,
          "velocity": 100
        },
        {
          "pitch": 50,
          "onset": 58.0,
          "duration": 0.1875,
          "velocity": 100
        },
        {
          "pitch": 50,
          "onset": 60.875,
          "duration": 0.125,
          "velocity": 100
        },
        {
          "pitch": 49,
          "onset": 61.0,
          "duration": 0.4375,
          "velocity": 100
        },
        {
          "pitch": 50,
          "onset": 62.0,
          "duration": 0.1875,
          "velocity": 100
        },
        {
          "pitch": 52,
          "onset": 63.0,
          "duration": 1.0,
          "velocity": 100
        },
        {
          "pitch": 57,
          "onset": 64.0,
          "duration": 0.25,
          "velocity": 100
        },
        {
          "pitch": 45,
          "onset": 67.0,
          "duration": 0.625,
          "velocity": 100
        },
        {
          "pitch": 45,
          "onset": 68.0,
          "duration": 0.1875,
          "velocity": 100
        },
        {
          "pitch": 52,
          "onset": 68.0,
          "duration": 0.1875,
          "velocity": 100
        },
        {
          "pitch": 43,
          "onset": 70.0,
          "duration": 0.1875,
          "velocity": 100
        },
        {
          "pitch": 52,
          "onset": 70.0,
          "duration": 0.1875,
          "velocity": 100
        },
        {
          "pitch": 52,
          "onset": 73.0,
          "duration": 0.3125,
          "velocity": 100
        },
        {
          "pitch": 50,
          "onset": 74.0,
          "duration": 0.3125,
          "velocity": 100
        },
        {
          "pitch": 36,
          "onset": 76.0,
          "duration": 0.75,
          "velocity": 100
        },
        {
          "pitch": 47,
          "onset": 78.0,
          "duration": 0.75,
          "velocity": 100
        },
        {
          "pitch": 47,
          "onset": 78.75,
          "duration": 0.25,
          "velocity": 100
        },
        {
          "pitch": 48,
          "onset": 79.0,
          "duration": 0.125,
          "velocity": 100
        },
        {
          "pitch": 47,
          "onset": 79.125,
          "duration": 0.125,
          "velocity": 100
        },
        {
          "pitch": 48,
          "onset": 79.25,
          "duration": 0.125,
          "velocity": 100
        },
        {
          "pitch": 50,
          "onset": 79.375,
          "duration": 0.125,
          "velocity": 100
        },
        {
          "pitch": 48,
          "onset": 79.5,
          "duration": 0.0625,
          "velocity": 100
        },
        {
          "pitch": 50,
          "onset": 79.5625,
          "duration": 0.0625,
          "velocity": 100
        },
        {
          "pitch": 50,
          "onset": 79.625,
          "duration": 0.1875,
          "velocity": 100
        },
        {
          "pitch": 48,
          "onset": 79.8125,
          "duration": 0.0625,
          "velocity": 100
        },
        {
          "pitch": 50,
          "onset": 79.875,
          "duration": 0.0625,
          "velocity": 100
        },
        {
          "pitch": 52,
          "onset": 79.9375,
          "duration": 0.0625,
          "velocity": 100
        },
        {
          "pitch": 45,
          "onset": 80.0,
          "duration": 0.5,
          "velocity": 100
        },
        {
          "pitch": 44,
          "onset": 80.5,
          "duration": 0.4375,
          "velocity": 100
        },
        {
          "pitch": 53,
          "onset": 82.0,
          "duration": 0.4375,
          "velocity": 100
        },
        {
          "pitch": 54,
          "onset": 83.0,
          "duration": 0.1875,
          "velocity": 100
        },
        {
          "pitch": 47,
          "onset": 84.0,
          "duration": 0.1875,
          "velocity": 100
        },
        {
          "pitch": 49,
          "onset": 87.0,
          "duration": 0.125,
          "velocity": 100
        },
        {
          "pitch": 47,
          "onset": 87.125,
          "duration": 0.25,
          "velocity": 100
        },
        {
          "pitch": 50,
          "onset": 87.375,
          "duration": 0.125,
          "velocity": 100
        },
        {
          "pitch": 49,
          "onset": 87.5,
          "duration": 0.25,
          "velocity": 100
        },
        {
          "pitch": 50,
          "onset": 87.75,
          "duration": 0.125,
          "velocity": 100
        },
        {
          "pitch": 47,
          "onset": 87.875,
          "duration": 0.125,
          "velocity": 100
        },
        {
          "pitch": 45,
          "onset": 88.0,
          "duration": 0.1875,
          "velocity": 100
        },
        {
          "pitch": 59,
          "onset": 88.5,
          "duration": 0.1875,
          "velocity": 100
        },
        {
          "pitch": 61,
          "onset": 89.0,
          "duration": 0.5,
          "velocity": 100
        },
        {
          "pitch": 47,
          "onset": 92.0,
          "duration": 0.1875,
          "velocity": 80
        },
        {
          "pitch": 54,
          "onset": 92.0,
          "duration": 0.75,
          "velocity": 80
        },
        {
          "pitch": 52,
          "onset": 94.0,
          "duration": 0.1875,
          "velocity": 80
        },
        {
          "pitch": 54,
          "onset": 100.0,
          "duration": 0.4375,
          "velocity": 80
        },
        {
          "pitch": 51,
          "onset": 102.0,
          "duration": 0.1875,
          "velocity": 80
        },
        {
          "pitch": 43,
          "onset": 106.0,
          "duration": 0.4375,
          "velocity": 100
        },
        {
          "pitch": 42,
          "onset": 109.25,
          "duration": 0.1875,
          "velocity": 100
        },
        {
          "pitch": 43,
          "onset": 110.0,
          "duration": 0.1875,
          "velocity": 80
        },
        {
          "pitch": 45,
          "onset": 111.0,
          "duration": 1.0,
          "velocity": 80
        },
        {
          "pitch": 38,
          "onset": 115.0,
          "duration": 0.625,
          "velocity": 80
        },
        {
          "pitch": 45,
          "onset": 116.0,
          "duration": 0.1875,
          "velocity": 100
        },
        {
          "pitch": 52,
          "onset": 116.0,
          "duration": 0.1875,
          "velocity": 100
        },
        {
          "pitch": 43,
          "onset": 118.0,
          "duration": 0.1875,
          "velocity": 100
        },
        {
          "pitch": 52,
          "onset": 118.0,
          "duration": 0.1875,
          "velocity": 100
        },
        {
          "pitch": 52,
          "onset": 121.0,
          "duration": 0.3125,
          "velocity": 100
        },
        {
          "pitch": 50,
          "onset": 122.0,
          "duration": 0.3125,
          "velocity": 100
        },
        {
          "pitch": 36,
          "onset": 124.0,
          "duration": 0.75,
          "velocity": 100
        },
        {
          "pitch": 47,
          "onset": 126.0,
          "duration": 0.75,
          "velocity": 100
        },
        {
          "pitch": 47,
          "onset": 126.75,
          "duration": 0.25,
          "velocity": 100
        },
        {
          "pitch": 48,
          "onset": 127.0,
          "duration": 0.125,
          "velocity": 100
        },
        {
          "pitch": 47,
          "onset": 127.125,
          "duration": 0.125,
          "velocity": 100
        },
        {
          "pitch": 48,
          "onset": 127.25,
          "duration": 0.125,
          "velocity": 100
        },
        {
          "pitch": 50,
          "onset": 127.375,
          "duration": 0.125,
          "velocity": 100
        },
        {
          "pitch": 48,
          "onset": 127.5,
          "duration": 0.0625,
          "velocity": 100
        },
        {
          "pitch": 50,
          "onset": 127.5625,
          "duration": 0.0625,
          "velocity": 100
        },
        {
          "pitch": 50,
          "onset": 127.625,
          "duration": 0.1875,
          "velocity": 100
        },
        {
          "pitch": 48,
          "onset": 127.8125,
          "duration": 0.0625,
          "velocity": 100
        },
        {
          "pitch": 50,
          "onset": 127.875,
          "duration": 0.0625,
          "velocity": 100
        },
        {
          "pitch": 52,
          "onset": 127.9375,
          "duration": 0.0625,
          "velocity": 100
        },
        {
          "pitch": 45,
          "onset": 128.0,
          "duration": 0.5,
          "velocity": 100
        },
        {
          "pitch": 44,
          "onset": 128.5,
          "duration": 0.4375,
          "velocity": 100
        },
        {
          "pitch": 53,
          "onset": 130.0,
          "duration": 0.4375,
          "velocity": 100
        },
        {
          "pitch": 54,
          "onset": 131.0,
          "duration": 0.1875,
          "velocity": 100
        },
        {
          "pitch": 47,
          "onset": 132.0,
          "duration": 0.1875,
          "velocity": 100
        },
        {
          "pitch": 49,
          "onset": 135.0,
          "duration": 0.125,
          "velocity": 100
        },
        {
          "pitch": 47,
          "onset": 135.125,
          "duration": 0.25,
          "velocity": 100
        },
        {
          "pitch": 50,
          "onset": 135.375,
          "duration": 0.125,
          "velocity": 100
        },
        {
          "pitch": 49,
          "onset": 135.5,
          "duration": 0.25,
          "velocity": 100
        },
        {
          "pitch": 50,
          "onset": 135.75,
          "duration": 0.125,
          "velocity": 100
        },
        {
          "pitch": 47,
          "onset": 135.875,
          "duration": 0.125,
          "velocity": 100
        },
        {
          "pitch": 45,
          "onset": 136.0,
          "duration": 0.1875,
          "velocity": 100
        },
        {
          "pitch": 59,
          "onset": 136.5,
          "duration": 0.1875,
          "velocity": 100
        },
        {
          "pitch": 61,
          "onset": 137.0,
          "duration": 0.5,
          "velocity": 100
        },
        {
          "pitch": 47,
          "onset": 140.0,
          "duration": 0.1875,
          "velocity": 80
        },
        {
          "pitch": 54,
          "onset": 140.0,
          "duration": 0.75,
          "velocity": 80
        },
        {
          "pitch": 52,
          "onset": 142.0,
          "duration": 0.1875,
          "velocity": 80
        },
        {
          "pitch": 54,
          "onset": 148.0,
          "duration": 0.4375,
          "velocity": 80
        },
        {
          "pitch": 51,
          "onset": 150.0,
          "duration": 0.1875,
          "velocity": 80
        },
        {
          "pitch": 43,
          "onset": 154.0,
          "duration": 0.4375,
          "velocity": 100
        },
        {
          "pitch": 42,
          "onset": 157.25,
          "duration": 0.1875,
          "velocity": 100
        },
        {
          "pitch": 43,
          "onset": 158.0,
          "duration": 0.1875,
          "velocity": 80
        },
        {
          "pitch": 45,
          "onset": 159.0,
          "duration": 1.0,
          "velocity": 80
        },
        {
          "pitch": 38,
          "onset": 163.125,
          "duration": 1.375,
          "velocity": 100
        }
      ]
    }
  ]
}