{
  "bwv": 1011,
  "category": "solo_cello_suite",
  "instrument": "cello",
  "form": "",
  "movement": 5,
  "ticks_per_beat": 384,
  "duration_seconds": 263.3,
  "tempos": [
    {
      "tick": 0,
      "bpm": 145
    },
    {
      "tick": 48,
      "bpm": 240
    },
    {
      "tick": 720,
      "bpm": 145
    },
    {
      "tick": 13056,
      "bpm": 140
    },
    {
      "tick": 13440,
      "bpm": 135
    },
    {
      "tick": 13632,
      "bpm": 130
    },
    {
      "tick": 13824,
      "bpm": 140
    },
    {
      "tick": 17664,
      "bpm": 140
    },
    {
      "tick": 18048,
      "bpm": 135
    },
    {
      "tick": 18240,
      "bpm": 130
    },
    {
      "tick": 19200,
      "bpm": 145
    },
    {
      "tick": 31488,
      "bpm": 140
    },
    {
      "tick": 31872,
      "bpm": 135
    },
    {
      "tick": 32064,
      "bpm": 130
    },
    {
      "tick": 32256,
      "bpm": 140
    },
    {
      "tick": 32640,
      "bpm": 140
    },
    {
      "tick": 36096,
      "bpm": 135
    },
    {
      "tick": 36480,
      "bpm": 130
    },
    {
      "tick": 36672,
      "bpm": 120
    },
    {
      "tick": 37632,
      "bpm": 145
    },
    {
      "tick": 48384,
      "bpm": 140
    },
    {
      "tick": 48768,
      "bpm": 135
    },
    {
      "tick": 48960,
      "bpm": 130
    },
    {
      "tick": 49152,
      "bpm": 145
    },
    {
      "tick": 52992,
      "bpm": 135
    },
    {
      "tick": 53760,
      "bpm": 140
    },
    {
      "tick": 54528,
      "bpm": 135
    },
    {
      "tick": 54720,
      "bpm": 130
    },
    {
      "tick": 54912,
      "bpm": 125
    },
    {
      "tick": 55104,
      "bpm": 120
    },
    {
      "tick": 56064,
      "bpm": 145
    },
    {
      "tick": 61440,
      "bpm": 140
    },
    {
      "tick": 61824,
      "bpm": 135
    },
    {
      "tick": 62016,
      "bpm": 130
    },
    {
      "tick": 62400,
      "bpm": 140
    },
    {
      "tick": 62592,
      "bpm": 145
    },
    {
      "tick": 64512,
      "bpm": 140
    },
    {
      "tick": 64896,
      "bpm": 135
    },
    {
      "tick": 65088,
      "bpm": 130
    },
    {
      "tick": 65472,
      "bpm": 145
    },
    {
      "tick": 67584,
      "bpm": 140
    },
    {
      "tick": 67776,
      "bpm": 135
    },
    {
      "tick": 67968,
      "bpm": 130
    },
    {
      "tick": 68160,
      "bpm": 125
    },
    {
      "tick": 68352,
      "bpm": 135
    },
    {
      "tick": 68544,
      "bpm": 140
    },
    {
      "tick": 72192,
      "bpm": 140
    },
    {
      "tick": 72576,
      "bpm": 135
    },
    {
      "tick": 72960,
      "bpm": 130
    },
    {
      "tick": 73344,
      "bpm": 125
    },
    {
      "tick": 73536,
      "bpm": 120
    },
    {
      "tick": 74496,
      "bpm": 145
    },
    {
      "tick": 80640,
      "bpm": 140
    },
    {
      "tick": 81024,
      "bpm": 135
    },
    {
      "tick": 81216,
      "bpm": 130
    },
    {
      "tick": 81600,
      "bpm": 145
    },
    {
      "tick": 85248,
      "bpm": 140
    },
    {
      "tick": 85632,
      "bpm": 135
    },
    {
      "tick": 85824,
      "bpm": 130
    },
    {
      "tick": 86016,
      "bpm": 145
    },
    {
      "tick": 90240,
      "bpm": 140
    },
    {
      "tick": 91392,
      "bpm": 135
    },
    {
      "tick": 91776,
      "bpm": 130
    },
    {
      "tick": 91968,
      "bpm": 125
    },
    {
      "tick": 92928,
      "bpm": 145
    },
    {
      "tick": 98304,
      "bpm": 140
    },
    {
      "tick": 98496,
      "bpm": 140
    },
    {
      "tick": 98688,
      "bpm": 135
    },
    {
      "tick": 98880,
      "bpm": 130
    },
    {
      "tick": 99264,
      "bpm": 145
    },
    {
      "tick": 101376,
      "bpm": 140
    },
    {
      "tick": 101760,
      "bpm": 135
    },
    {
      "tick": 101952,
      "bpm": 130
    },
    {
      "tick": 102336,
      "bpm": 145
    },
    {
      "tick": 104448,
      "bpm": 140
    },
    {
      "tick": 104832,
      "bpm": 135
    },
    {
      "tick": 105024,
      "bpm": 130
    },
    {
      "tick": 105216,
      "bpm": 140
    },
    {
      "tick": 109056,
      "bpm": 140
    },
    {
      "tick": 109440,
      "bpm": 135
    },
    {
      "tick": 109824,
      "bpm": 130
    },
    {
      "tick": 110016,
      "bpm": 125
    },
    {
      "tick": 110208,
      "bpm": 120
    },
    {
      "tick": 110400,
      "bpm": 100
    },
    {
      "tick": 111360,
      "bpm": 145
    },
    {
      "tick": 122112,
      "bpm": 140
    },
    {
      "tick": 122304,
      "bpm": 140
    },
    {
      "tick": 122496,
      "bpm": 135
    },
    {
      "tick": 122688,
      "bpm": 130
    },
    {
      "tick": 123648,
      "bpm": 145
    },
    {
      "tick": 149760,
      "bpm": 140
    },
    {
      "tick": 149952,
      "bpm": 135
    },
    {
      "tick": 150144,
      "bpm": 130
    },
    {
      "tick": 150336,
      "bpm": 125
    },
    {
      "tick": 151296,
      "bpm": 145
    },
    {
      "tick": 155904,
      "bpm": 140
    },
    {
      "tick": 156288,
      "bpm": 135
    },
    {
      "tick": 156480,
      "bpm": 130
    },
    {
      "tick": 157056,
      "bpm": 125
    },
    {
      "tick": 157440,
      "bpm": 145
    },
    {
      "tick": 162048,
      "bpm": 140
    },
    {
      "tick": 162432,
      "bpm": 135
    },
    {
      "tick": 162624,
      "bpm": 130
    },
    {
      "tick": 163008,
      "bpm": 140
    },
    {
      "tick": 163776,
      "bpm": 145
    },
    {
      "tick": 166656,
      "bpm": 130
    },
    {
      "tick": 166848,
      "bpm": 145
    },
    {
      "tick": 167424,
      "bpm": 130
    },
    {
      "tick": 167616,
      "bpm": 145
    },
    {
      "tick": 168192,
      "bpm": 130
    },
    {
      "tick": 168384,
      "bpm": 145
    },
    {
      "tick": 177216,
      "bpm": 140
    },
    {
      "tick": 177600,
      "bpm": 135
    },
    {
      "tick": 177792,
      "bpm": 130
    },
    {
      "tick": 177984,
      "bpm": 120
    },
    {
      "tick": 178176,
      "bpm": 100
    },
    {
      "tick": 178560,
      "bpm": 80
    },
    {
      "tick": 178944,
      "bpm": 145
    },
    {
      "tick": 191232,
      "bpm": 140
    },
    {
      "tick": 191424,
      "bpm": 135
    },
    {
      "tick": 191616,
      "bpm": 130
    },
    {
      "tick": 191808,
      "bpm": 125
    },
    {
      "tick": 192000,
      "bpm": 145
    },
    {
      "tick": 195840,
      "bpm": 140
    },
    {
      "tick": 196032,
      "bpm": 135
    },
    {
      "tick": 196224,
      "bpm": 130
    },
    {
      "tick": 196416,
      "bpm": 125
    },
    {
      "tick": 197376,
      "bpm": 145
    },
    {
      "tick": 213504,
      "bpm": 140
    },
    {
      "tick": 214272,
      "bpm": 140
    },
    {
      "tick": 214464,
      "bpm": 135
    },
    {
      "tick": 214656,
      "bpm": 130
    },
    {
      "tick": 214848,
      "bpm": 125
    },
    {
      "tick": 215808,
      "bpm": 140
    },
    {
      "tick": 216576,
      "bpm": 145
    },
    {
      "tick": 221184,
      "bpm": 140
    },
    {
      "tick": 221568,
      "bpm": 135
    },
    {
      "tick": 221760,
      "bpm": 130
    },
    {
      "tick": 222144,
      "bpm": 145
    },
    {
      "tick": 224256,
      "bpm": 140
    },
    {
      "tick": 224640,
      "bpm": 140
    },
    {
      "tick": 224832,
      "bpm": 135
    },
    {
      "tick": 225216,
      "bpm": 145
    },
    {
      "tick": 227328,
      "bpm": 140
    },
    {
      "tick": 227520,
      "bpm": 140
    },
    {
      "tick": 227712,
      "bpm": 135
    },
    {
      "tick": 227904,
      "bpm": 130
    },
    {
      "tick": 228096,
      "bpm": 140
    },
    {
      "tick": 231552,
      "bpm": 140
    },
    {
      "tick": 231744,
      "bpm": 140
    },
    {
      "tick": 232320,
      "bpm": 135
    },
    {
      "tick": 232704,
      "bpm": 130
    },
    {
      "tick": 232896,
      "bpm": 125
    },
    {
      "tick": 233088,
      "bpm": 120
    }
  ],
  "time_signatures": [
    {
      "tick": 0,
      "numerator": 4,
      "denominator": 4
    }
  ],
  "track_type": "solo_string",
  "voice_count": 2,
  "total_notes": 1421,
  "tracks": [
    {
      "role": "solo_0",
      "notes": [
        {
          "pitch": 48,
          "onset": 0.0,
          "duration": 0.25,
          "velocity": 1
        },
        {
          "pitch": 51,
          "onset": 2.0,
          "duration": 0.6562,
          "velocity": 100
        },
        {
          "pitch": 55,
          "onset": 2.0,
          "duration": 0.6562,
          "velocity": 100
        },
        {
          "pitch": 60,
          "onset": 3.0,
          "duration": 0.6562,
          "velocity": 100
        },
        {
          "pitch": 56,
          "onset": 4.0,
          "duration": 1.0,
          "velocity": 100
        },
        {
          "pitch": 58,
          "onset": 5.0,
          "duration": 0.5,
          "velocity": 100
        },
        {
          "pitch": 55,
          "onset": 5.5,
          "duration": 0.5,
          "velocity": 100
        },
        {
          "pitch": 56,
          "onset": 6.0,
          "duration": 1.0,
          "velocity": 100
        },
        {
          "pitch": 58,
          "onset": 7.0,
          "duration": 0.5,
          "velocity": 100
        },
        {
          "pitch": 53,
          "onset": 7.5,
          "duration": 0.5,
          "velocity": 100
        },
        {
          "pitch": 55,
          "onset": 8.0,
          "duration": 1.0,
          "velocity": 100
        },
        {
          "pitch": 51,
          "onset": 9.0,
          "duration": 0.5,
          "velocity": 100
        },
        {
          "pitch": 47,
          "onset": 9.5,
          "duration": 0.5,
          "velocity": 100
        },
        {
          "pitch": 48,
          "onset": 10.0,
          "duration": 1.0,
          "velocity": 100
        },
        {
          "pitch": 56,
          "onset": 11.0,
          "duration": 0.5,
          "velocity": 100
        },
        {
          "pitch": 51,
          "onset": 11.5,
          "duration": 0.5,
          "velocity": 100
        },
        {
          "pitch": 53,
          "onset": 12.0,
          "duration": 1.0,
          "velocity": 100
        },
        {
          "pitch": 50,
          "onset": 13.0,
          "duration": 0.5,
          "velocity": 100
        },
        {
          "pitch": 45,
          "onset": 13.5,
          "duration": 0.5,
          "velocity": 100
        },
        {
          "pitch": 47,
          "onset": 14.0,
          "duration": 0.5,
          "velocity": 100
        },
        {
          "pitch": 50,
          "onset": 14.5,
          "duration": 0.5,
          "velocity": 100
        },
        {
          "pitch": 55,
          "onset": 15.0,
          "duration": 0.6562,
          "velocity": 100
        },
        {
          "pitch": 43,
          "onset": 16.0,
          "duration": 1.0,
          "velocity": 100
        },
        {
          "pitch": 51,
          "onset": 16.0,
          "duration": 0.1562,
          "velocity": 100
        },
        {
          "pitch": 53,
          "onset": 16.1562,
          "duration": 0.1562,
          "velocity": 100
        },
        {
          "pitch": 51,
          "onset": 16.3438,
          "duration": 0.1562,
          "velocity": 100
        },
        {
          "pitch": 53,
          "onset": 16.5,
          "duration": 0.1562,
          "velocity": 100
        },
        {
          "pitch": 51,
          "onset": 16.6562,
          "duration": 0.3438,
          "velocity": 100
        },
        {
          "pitch": 50,
          "onset": 17.0,
          "duration": 0.5,
          "velocity": 100
        },
        {
          "pitch": 48,
          "onset": 17.5,
          "duration": 0.5,
          "velocity": 100
        },
        {
          "pitch": 55,
          "onset": 18.0,
          "duration": 0.75,
          "velocity": 100
        },
        {
          "pitch": 60,
          "onset": 19.0,
          "duration": 0.75,
          "velocity": 100
        },
        {
          "pitch": 56,
          "onset": 20.0,
          "duration": 0.75,
          "velocity": 100
        },
        {
          "pitch": 58,
          "onset": 21.0,
          "duration": 0.75,
          "velocity": 100
        },
        {
          "pitch": 56,
          "onset": 22.0,
          "duration": 0.75,
          "velocity": 100
        },
        {
          "pitch": 58,
          "onset": 23.0,
          "duration": 0.75,
          "velocity": 100
        },
        {
          "pitch": 55,
          "onset": 24.0,
          "duration": 0.75,
          "velocity": 100
        },
        {
          "pitch": 56,
          "onset": 25.0,
          "duration": 0.75,
          "velocity": 100
        },
        {
          "pitch": 55,
          "onset": 26.0,
          "duration": 0.75,
          "velocity": 100
        },
        {
          "pitch": 58,
          "onset": 27.0,
          "duration": 0.75,
          "velocity": 100
        },
        {
          "pitch": 60,
          "onset": 28.0,
          "duration": 0.75,
          "velocity": 100
        },
        {
          "pitch": 61,
          "onset": 29.0,
          "duration": 0.75,
          "velocity": 100
        },
        {
          "pitch": 60,
          "onset": 30.0,
          "duration": 0.75,
          "velocity": 100
        },
        {
          "pitch": 63,
          "onset": 31.0,
          "duration": 0.75,
          "velocity": 100
        },
        {
          "pitch": 62,
          "onset": 32.0,
          "duration": 0.75,
          "velocity": 100
        },
        {
          "pitch": 63,
          "onset": 33.0,
          "duration": 0.5,
          "velocity": 100
        },
        {
          "pitch": 62,
          "onset": 33.5,
          "duration": 0.5,
          "velocity": 100
        },
        {
          "pitch": 60,
          "onset": 34.0,
          "duration": 0.5,
          "velocity": 100
        },
        {
          "pitch": 58,
          "onset": 34.5,
          "duration": 0.5,
          "velocity": 100
        },
        {
          "pitch": 57,
          "onset": 35.0,
          "duration": 0.5,
          "velocity": 100
        },
        {
          "pitch": 55,
          "onset": 35.5,
          "duration": 0.5,
          "velocity": 100
        },
        {
          "pitch": 55,
          "onset": 36.0,
          "duration": 1.0,
          "velocity": 100
        },
        {
          "pitch": 57,
          "onset": 36.0,
          "duration": 1.0,
          "velocity": 100
        },
        {
          "pitch": 58,
          "onset": 37.0,
          "duration": 0.5,
          "velocity": 100
        },
        {
          "pitch": 55,
          "onset": 37.5,
          "duration": 0.5,
          "velocity": 100
        },
        {
          "pitch": 57,
          "onset": 38.0,
          "duration": 1.0,
          "velocity": 100
        },
        {
          "pitch": 60,
          "onset": 39.0,
          "duration": 0.5,
          "velocity": 100
        },
        {
          "pitch": 57,
          "onset": 39.5,
          "duration": 0.5,
          "velocity": 100
        },
        {
          "pitch": 58,
          "onset": 40.0,
          "duration": 1.0,
          "velocity": 100
        },
        {
          "pitch": 60,
          "onset": 41.0,
          "duration": 0.5,
          "velocity": 100
        },
        {
          "pitch": 57,
          "onset": 41.5,
          "duration": 0.5,
          "velocity": 100
        },
        {
          "pitch": 55,
          "onset": 42.0,
          "duration": 1.0,
          "velocity": 100
        },
        {
          "pitch": 58,
          "onset": 42.0,
          "duration": 1.0,
          "velocity": 100
        },
        {
          "pitch": 63,
          "onset": 43.0,
          "duration": 0.5,
          "velocity": 100
        },
        {
          "pitch": 60,
          "onset": 43.5,
          "duration": 0.5,
          "velocity": 100
        },
        {
          "pitch": 62,
          "onset": 44.0,
          "duration": 0.6562,
          "velocity": 100
        },
        {
          "pitch": 50,
          "onset": 45.0,
          "duration": 0.6562,
          "velocity": 100
        },
        {
          "pitch": 55,
          "onset": 45.0,
          "duration": 0.6562,
          "velocity": 100
        },
        {
          "pitch": 55,
          "onset": 46.0,
          "duration": 1.0,
          "velocity": 100
        },
        {
          "pitch": 58,
          "onset": 46.0,
          "duration": 0.5,
          "velocity": 100
        },
        {
          "pitch": 57,
          "onset": 46.5,
          "duration": 0.5,
          "velocity": 100
        },
        {
          "pitch": 55,
          "onset": 47.0,
          "duration": 0.5,
          "velocity": 100
        },
        {
          "pitch": 54,
          "onset": 47.5,
          "duration": 0.5,
          "velocity": 100
        },
        {
          "pitch": 50,
          "onset": 48.0,
          "duration": 1.5,
          "velocity": 100
        },
        {
          "pitch": 55,
          "onset": 48.0,
          "duration": 1.5,
          "velocity": 100
        },
        {
          "pitch": 51,
          "onset": 50.0,
          "duration": 0.6562,
          "velocity": 100
        },
        {
          "pitch": 55,
          "onset": 50.0,
          "duration": 0.6562,
          "velocity": 100
        },
        {
          "pitch": 60,
          "onset": 51.0,
          "duration": 0.6562,
          "velocity": 100
        },
        {
          "pitch": 56,
          "onset": 52.0,
          "duration": 1.0,
          "velocity": 100
        },
        {
          "pitch": 58,
          "onset": 53.0,
          "duration": 0.5,
          "velocity": 100
        },
        {
          "pitch": 55,
          "onset": 53.5,
          "duration": 0.5,
          "velocity": 100
        },
        {
          "pitch": 56,
          "onset": 54.0,
          "duration": 1.0,
          "velocity": 100
        },
        {
          "pitch": 58,
          "onset": 55.0,
          "duration": 0.5,
          "velocity": 100
        },
        {
          "pitch": 53,
          "onset": 55.5,
          "duration": 0.5,
          "velocity": 100
        },
        {
          "pitch": 55,
          "onset": 56.0,
          "duration": 1.0,
          "velocity": 100
        },
        {
          "pitch": 51,
          "onset": 57.0,
          "duration": 0.5,
          "velocity": 100
        },
        {
          "pitch": 47,
          "onset": 57.5,
          "duration": 0.5,
          "velocity": 100
        },
        {
          "pitch": 48,
          "onset": 58.0,
          "duration": 1.0,
          "velocity": 100
        },
        {
          "pitch": 56,
          "onset": 59.0,
          "duration": 0.5,
          "velocity": 100
        },
        {
          "pitch": 51,
          "onset": 59.5,
          "duration": 0.5,
          "velocity": 100
        },
        {
          "pitch": 53,
          "onset": 60.0,
          "duration": 1.0,
          "velocity": 100
        },
        {
          "pitch": 50,
          "onset": 61.0,
          "duration": 0.5,
          "velocity": 100
        },
        {
          "pitch": 45,
          "onset": 61.5,
          "duration": 0.5,
          "velocity": 100
        },
        {
          "pitch": 47,
          "onset": 62.0,
          "duration": 0.5,
          "velocity": 100
        },
        {
          "pitch": 50,
          "onset": 62.5,
          "duration": 0.5,
          "velocity": 100
        },
        {
          "pitch": 55,
          "onset": 63.0,
          "duration": 0.6562,
          "velocity": 100
        },
        {
          "pitch": 43,
          "onset": 64.0,
          "duration": 1.0,
          "velocity": 100
        },
        {
          "pitch": 51,
          "onset": 64.0,
          "duration": 0.1562,
          "velocity": 100
        },
        {
          "pitch": 53,
          "onset": 64.1562,
          "duration": 0.1562,
          "velocity": 100
        },
        {
          "pitch": 51,
          "onset": 64.3438,
          "duration": 0.1562,
          "velocity": 100
        },
        {
          "pitch": 53,
          "onset": 64.5,
          "duration": 0.1562,
          "velocity": 100
        },
        {
          "pitch": 51,
          "onset": 64.6562,
          "duration": 0.3438,
          "velocity": 100
        },
        {
          "pitch": 50,
          "onset": 65.0,
          "duration": 0.5,
          "velocity": 100
        },
        {
          "pitch": 48,
          "onset": 65.5,
          "duration": 0.5,
          "velocity": 100
        },
        {
          "pitch": 55,
          "onset": 66.0,
          "duration": 0.75,
          "velocity": 100
        },
        {
          "pitch": 60,
          "onset": 67.0,
          "duration": 0.75,
          "velocity": 100
        },
        {
          "pitch": 56,
          "onset": 68.0,
          "duration": 0.75,
          "velocity": 100
        },
        {
          "pitch": 58,
          "onset": 69.0,
          "duration": 0.75,
          "velocity": 100
        },
        {
          "pitch": 56,
          "onset": 70.0,
          "duration": 0.75,
          "velocity": 100
        },
        {
          "pitch": 58,
          "onset": 71.0,
          "duration": 0.75,
          "velocity": 100
        },
        {
          "pitch": 55,
          "onset": 72.0,
          "duration": 0.75,
          "velocity": 100
        },
        {
          "pitch": 56,
          "onset": 73.0,
          "duration": 0.75,
          "velocity": 100
        },
        {
          "pitch": 55,
          "onset": 74.0,
          "duration": 0.75,
          "velocity": 100
        },
        {
          "pitch": 58,
          "onset": 75.0,
          "duration": 0.75,
          "velocity": 100
        },
        {
          "pitch": 60,
          "onset": 76.0,
          "duration": 0.75,
          "velocity": 100
        },
        {
          "pitch": 61,
          "onset": 77.0,
          "duration": 0.75,
          "velocity": 100
        },
        {
          "pitch": 60,
          "onset": 78.0,
          "duration": 0.75,
          "velocity": 100
        },
        {
          "pitch": 63,
          "onset": 79.0,
          "duration": 0.75,
          "velocity": 100
        },
        {
          "pitch": 62,
          "onset": 80.0,
          "duration": 0.75,
          "velocity": 100
        },
        {
          "pitch": 63,
          "onset": 81.0,
          "duration": 0.5,
          "velocity": 100
        },
        {
          "pitch": 62,
          "onset": 81.5,
          "duration": 0.5,
          "velocity": 100
        },
        {
          "pitch": 60,
          "onset": 82.0,
          "duration": 0.5,
          "velocity": 100
        },
        {
          "pitch": 58,
          "onset": 82.5,
          "duration": 0.5,
          "velocity": 100
        },
        {
          "pitch": 57,
          "onset": 83.0,
          "duration": 0.5,
          "velocity": 100
        },
        {
          "pitch": 55,
          "onset": 83.5,
          "duration": 0.5,
          "velocity": 100
        },
        {
          "pitch": 55,
          "onset": 84.0,
          "duration": 1.0,
          "velocity": 100
        },
        {
          "pitch": 57,
          "onset": 84.0,
          "duration": 1.0,
          "velocity": 100
        },
        {
          "pitch": 58,
          "onset": 85.0,
          "duration": 0.5,
          "velocity": 100
        },
        {
          "pitch": 55,
          "onset": 85.5,
          "duration": 0.5,
          "velocity": 100
        },
        {
          "pitch": 57,
          "onset": 86.0,
          "duration": 1.0,
          "velocity": 100
        },
        {
          "pitch": 60,
          "onset": 87.0,
          "duration": 0.5,
          "velocity": 100
        },
        {
          "pitch": 57,
          "onset": 87.5,
          "duration": 0.5,
          "velocity": 100
        },
        {
          "pitch": 58,
          "onset": 88.0,
          "duration": 1.0,
          "velocity": 100
        },
        {
          "pitch": 60,
          "onset": 89.0,
          "duration": 0.5,
          "velocity": 100
        },
        {
          "pitch": 57,
          "onset": 89.5,
          "duration": 0.5,
          "velocity": 100
        },
        {
          "pitch": 55,
          "onset": 90.0,
          "duration": 1.0,
          "velocity": 100
        },
        {
          "pitch": 58,
          "onset": 90.0,
          "duration": 1.0,
          "velocity": 100
        },
        {
          "pitch": 63,
          "onset": 91.0,
          "duration": 0.5,
          "velocity": 100
        },
        {
          "pitch": 60,
          "onset": 91.5,
          "duration": 0.5,
          "velocity": 100
        },
        {
          "pitch": 62,
          "onset": 92.0,
          "duration": 0.6562,
          "velocity": 100
        },
        {
          "pitch": 50,
          "onset": 93.0,
          "duration": 0.6562,
          "velocity": 100
        },
        {
          "pitch": 55,
          "onset": 93.0,
          "duration": 0.6562,
          "velocity": 100
        },
        {
          "pitch": 55,
          "onset": 94.0,
          "duration": 1.0,
          "velocity": 100
        },
        {
          "pitch": 58,
          "onset": 94.0,
          "duration": 0.5,
          "velocity": 100
        },
        {
          "pitch": 57,
          "onset": 94.5,
          "duration": 0.5,
          "velocity": 100
        },
        {
          "pitch": 55,
          "onset": 95.0,
          "duration": 0.5,
          "velocity": 100
        },
        {
          "pitch": 54,
          "onset": 95.5,
          "duration": 0.5,
          "velocity": 100
        },
        {
          "pitch": 50,
          "onset": 96.0,
          "duration": 1.5,
          "velocity": 100
        },
        {
          "pitch": 55,
          "onset": 96.0,
          "duration": 1.5,
          "velocity": 100
        },
        {
          "pitch": 50,
          "onset": 98.0,
          "duration": 0.6562,
          "velocity": 100
        },
        {
          "pitch": 58,
          "onset": 98.0,
          "duration": 0.6562,
          "velocity": 100
        },
        {
          "pitch": 55,
          "onset": 99.0,
          "duration": 0.6562,
          "velocity": 100
        },
        {
          "pitch": 43,
          "onset": 100.0,
          "duration": 1.0,
          "velocity": 100
        },
        {
          "pitch": 52,
          "onset": 100.0,
          "duration": 1.0,
          "velocity": 100
        },
        {
          "pitch": 53,
          "onset": 101.0,
          "duration": 0.5,
          "velocity": 100
        },
        {
          "pitch": 50,
          "onset": 101.5,
          "duration": 0.5,
          "velocity": 100
        },
        {
          "pitch": 46,
          "onset": 102.0,
          "duration": 1.0,
          "velocity": 100
        },
        {
          "pitch": 52,
          "onset": 102.0,
          "duration": 1.0,
          "velocity": 100
        },
        {
          "pitch": 60,
          "onset": 103.0,
          "duration": 0.5,
          "velocity": 100
        },
        {
          "pitch": 52,
          "onset": 103.5,
          "duration": 0.5,
          "velocity": 100
        },
        {
          "pitch": 53,
          "onset": 104.0,
          "duration": 1.0,
          "velocity": 100
        },
        {
          "pitch": 55,
          "onset": 105.0,
          "duration": 0.5,
          "velocity": 100
        },
        {
          "pitch": 52,
          "onset": 105.5,
          "duration": 0.5,
          "velocity": 100
        },
        {
          "pitch": 53,
          "onset": 106.0,
          "duration": 1.0,
          "velocity": 100
        },
        {
          "pitch": 60,
          "onset": 107.0,
          "duration": 0.5,
          "velocity": 100
        },
        {
          "pitch": 53,
          "onset": 107.5,
          "duration": 0.5,
          "velocity": 100
        },
        {
          "pitch": 55,
          "onset": 108.0,
          "duration": 1.0,
          "velocity": 100
        },
        {
          "pitch": 56,
          "onset": 109.0,
          "duration": 0.5,
          "velocity": 100
        },
        {
          "pitch": 53,
          "onset": 109.5,
          "duration": 0.5,
          "velocity": 100
        },
        {
          "pitch": 52,
          "onset": 110.0,
          "duration": 1.0,
          "velocity": 100
        },
        {
          "pitch": 55,
          "onset": 110.0,
          "duration": 1.0,
          "velocity": 100
        },
        {
          "pitch": 60,
          "onset": 111.0,
          "duration": 0.5,
          "velocity": 100
        },
        {
          "pitch": 55,
          "onset": 111.5,
          "duration": 0.5,
          "velocity": 100
        },
        {
          "pitch": 58,
          "onset": 112.0,
          "duration": 0.5,
          "velocity": 100
        },
        {
          "pitch": 56,
          "onset": 112.5,
          "duration": 0.5,
          "velocity": 100
        },
        {
          "pitch": 55,
          "onset": 113.0,
          "duration": 0.5,
          "velocity": 100
        },
        {
          "pitch": 53,
          "onset": 113.5,
          "duration": 0.5,
          "velocity": 100
        },
        {
          "pitch": 56,
          "onset": 114.0,
          "duration": 0.5,
          "velocity": 100
        },
        {
          "pitch": 55,
          "onset": 114.5,
          "duration": 0.5,
          "velocity": 100
        },
        {
          "pitch": 53,
          "onset": 115.0,
          "duration": 0.5,
          "velocity": 100
        },
        {
          "pitch": 51,
          "onset": 115.5,
          "duration": 0.5,
          "velocity": 100
        },
        {
          "pitch": 50,
          "onset": 116.0,
          "duration": 0.75,
          "velocity": 100
        },
        {
          "pitch": 51,
          "onset": 117.0,
          "duration": 0.75,
          "velocity": 100
        },
        {
          "pitch": 50,
          "onset": 118.0,
          "duration": 0.75,
          "velocity": 100
        },
        {
          "pitch": 58,
          "onset": 119.0,
          "duration": 0.75,
          "velocity": 100
        },
        {
          "pitch": 51,
          "onset": 120.0,
          "duration": 0.75,
          "velocity": 100
        },
        {
          "pitch": 53,
          "onset": 121.0,
          "duration": 0.75,
          "velocity": 100
        },
        {
          "pitch": 51,
          "onset": 122.0,
          "duration": 0.75,
          "velocity": 100
        },
        {
          "pitch": 58,
          "onset": 123.0,
          "duration": 0.75,
          "velocity": 100
        },
        {
          "pitch": 53,
          "onset": 124.0,
          "duration": 0.75,
          "velocity": 100
        },
        {
          "pitch": 55,
          "onset": 125.0,
          "duration": 0.75,
          "velocity": 100
        },
        {
          "pitch": 53,
          "onset": 126.0,
          "duration": 0.75,
          "velocity": 100
        },
        {
          "pitch": 58,
          "onset": 127.0,
          "duration": 0.75,
          "velocity": 100
        },
        {
          "pitch": 56,
          "onset": 128.0,
          "duration": 0.5,
          "velocity": 100
        },
        {
          "pitch": 55,
          "onset": 128.5,
          "duration": 0.5,
          "velocity": 100
        },
        {
          "pitch": 53,
          "onset": 129.0,
          "duration": 0.5,
          "velocity": 100
        },
        {
          "pitch": 51,
          "onset": 129.5,
          "duration": 0.5,
          "velocity": 100
        },
        {
          "pitch": 51,
          "onset": 130.0,
          "duration": 0.6562,
          "velocity": 100
        },
        {
          "pitch": 56,
          "onset": 130.0,
          "duration": 0.6562,
          "velocity": 100
        },
        {
          "pitch": 51,
          "onset": 131.0,
          "duration": 0.6562,
          "velocity": 100
        },
        {
          "pitch": 55,
          "onset": 131.0,
          "duration": 0.6562,
          "velocity": 100
        },
        {
          "pitch": 53,
          "onset": 132.0,
          "duration": 0.5,
          "velocity": 100
        },
        {
          "pitch": 51,
          "onset": 132.5,
          "duration": 0.5,
          "velocity": 100
        },
        {
          "pitch": 53,
          "onset": 133.0,
          "duration": 0.5,
          "velocity": 100
        },
        {
          "pitch": 50,
          "onset": 133.5,
          "duration": 0.5,
          "velocity": 100
        },
        {
          "pitch": 51,
          "onset": 134.0,
          "duration": 0.6562,
          "velocity": 100
        },
        {
          "pitch": 60,
          "onset": 134.0,
          "duration": 0.6562,
          "velocity": 100
        },
        {
          "pitch": 51,
          "onset": 135.0,
          "duration": 0.6562,
          "velocity": 100
        },
        {
          "pitch": 58,
          "onset": 135.0,
          "duration": 0.6562,
          "velocity": 100
        },
        {
          "pitch": 44,
          "onset": 136.0,
          "duration": 1.0,
          "velocity": 100
        },
        {
          "pitch": 51,
          "onset": 136.0,
          "duration": 0.5,
          "velocity": 100
        },
        {
          "pitch": 50,
          "onset": 136.5,
          "duration": 0.5,
          "velocity": 100
        },
        {
          "pitch": 51,
          "onset": 137.0,
          "duration": 0.5,
          "velocity": 100
        },
        {
          "pitch": 48,
          "onset": 137.5,
          "duration": 0.5,
          "velocity": 100
        },
        {
          "pitch": 44,
          "onset": 138.0,
          "duration": 0.6562,
          "velocity": 100
        },
        {
          "pitch": 50,
          "onset": 138.0,
          "duration": 0.6562,
          "velocity": 100
        },
        {
          "pitch": 56,
          "onset": 139.0,
          "duration": 1.0,
          "velocity": 100
        },
        {
          "pitch": 56,
          "onset": 140.0,
          "duration": 0.5,
          "velocity": 100
        },
        {
          "pitch": 53,
          "onset": 140.5,
          "duration": 0.5,
          "velocity": 100
        },
        {
          "pitch": 55,
          "onset": 141.0,
          "duration": 0.5,
          "velocity": 100
        },
        {
          "pitch": 51,
          "onset": 141.5,
          "duration": 0.5,
          "velocity": 100
        },
        {
          "pitch": 55,
          "onset": 142.0,
          "duration": 0.5,
          "velocity": 100
        },
        {
          "pitch": 53,
          "onset": 142.5,
          "duration": 0.5,
          "velocity": 100
        },
        {
          "pitch": 51,
          "onset": 143.0,
          "duration": 0.5,
          "velocity": 100
        },
        {
          "pitch": 50,
          "onset": 143.5,
          "duration": 0.5,
          "velocity": 100
        },
        {
          "pitch": 46,
          "onset": 144.0,
          "duration": 1.5,
          "velocity": 100
        },
        {
          "pitch": 51,
          "onset": 144.0,
          "duration": 1.5,
          "velocity": 100
        },
        {
          "pitch": 46,
          "onset": 146.0,
          "duration": 0.6562,
          "velocity": 100
        },
        {
          "pitch": 55,
          "onset": 146.0,
          "duration": 0.6562,
          "velocity": 100
        },
        {
          "pitch": 51,
          "onset": 147.0,
          "duration": 0.6562,
          "velocity": 100
        },
        {
          "pitch": 58,
          "onset": 148.0,
          "duration": 1.0,
          "velocity": 100
        },
        {
          "pitch": 60,
          "onset": 149.0,
          "duration": 0.5,
          "velocity": 100
        },
        {
          "pitch": 57,
          "onset": 149.5,
          "duration": 0.5,
          "velocity": 100
        },
        {
          "pitch": 58,
          "onset": 150.0,
          "duration": 1.0,
          "velocity": 100
        },
        {
          "pitch": 60,
          "onset": 151.0,
          "duration": 0.5,
          "velocity": 100
        },
        {
          "pitch": 55,
          "onset": 151.5,
          "duration": 0.5,
          "velocity": 100
        },
        {
          "pitch": 58,
          "onset": 152.0,
          "duration": 0.5,
          "velocity": 100
        },
        {
          "pitch": 57,
          "onset": 152.5,
          "duration": 0.5,
          "velocity": 100
        },
        {
          "pitch": 55,
          "onset": 153.0,
          "duration": 0.5,
          "velocity": 100
        },
        {
          "pitch": 53,
          "onset": 153.5,
          "duration": 0.5,
          "velocity": 100
        },
        {
          "pitch": 57,
          "onset": 154.0,
          "duration": 0.5,
          "velocity": 100
        },
        {
          "pitch": 55,
          "onset": 154.5,
          "duration": 0.5,
          "velocity": 100
        },
        {
          "pitch": 59,
          "onset": 155.0,
          "duration": 0.5,
          "velocity": 100
        },
        {
          "pitch": 57,
          "onset": 155.5,
          "duration": 0.5,
          "velocity": 100
        },
        {
          "pitch": 60,
          "onset": 156.0,
          "duration": 0.5,
          "velocity": 100
        },
        {
          "pitch": 59,
          "onset": 156.5,
          "duration": 0.5,
          "velocity": 100
        },
        {
          "pitch": 62,
          "onset": 157.0,
          "duration": 0.5,
          "velocity": 100
        },
        {
          "pitch": 59,
          "onset": 157.5,
          "duration": 0.5,
          "velocity": 100
        },
        {
          "pitch": 60,
          "onset": 158.0,
          "duration": 0.5,
          "velocity": 100
        },
        {
          "pitch": 50,
          "onset": 160.5,
          "duration": 0.5,
          "velocity": 100
        },
        {
          "pitch": 60,
          "onset": 161.0,
          "duration": 0.5,
          "velocity": 100
        },
        {
          "pitch": 59,
          "onset": 161.5,
          "duration": 0.5,
          "velocity": 100
        },
        {
          "pitch": 63,
          "onset": 162.0,
          "duration": 0.75,
          "velocity": 100
        },
        {
          "pitch": 62,
          "onset": 164.0,
          "duration": 0.75,
          "velocity": 100
        },
        {
          "pitch": 60,
          "onset": 166.0,
          "duration": 0.75,
          "velocity": 100
        },
        {
          "pitch": 50,
          "onset": 168.0,
          "duration": 2.0,
          "velocity": 100
        },
        {
          "pitch": 60,
          "onset": 168.0,
          "duration": 0.5,
          "velocity": 100
        },
        {
          "pitch": 59,
          "onset": 168.5,
          "duration": 0.5,
          "velocity": 100
        },
        {
          "pitch": 57,
          "onset": 169.0,
          "duration": 0.5,
          "velocity": 100
        },
        {
          "pitch": 55,
          "onset": 169.5,
          "duration": 0.5,
          "velocity": 100
        },
        {
          "pitch": 60,
          "onset": 170.0,
          "duration": 0.75,
          "velocity": 100
        },
        {
          "pitch": 58,
          "onset": 172.0,
          "duration": 0.75,
          "velocity": 100
        },
        {
          "pitch": 56,
          "onset": 174.0,
          "duration": 0.75,
          "velocity": 100
        },
        {
          "pitch": 50,
          "onset": 176.0,
          "duration": 0.5,
          "velocity": 100
        },
        {
          "pitch": 55,
          "onset": 176.0,
          "duration": 0.5,
          "velocity": 100
        },
        {
          "pitch": 53,
          "onset": 176.5,
          "duration": 0.5,
          "velocity": 100
        },
        {
          "pitch": 51,
          "onset": 177.0,
          "duration": 0.5,
          "velocity": 100
        },
        {
          "pitch": 50,
          "onset": 177.5,
          "duration": 0.5,
          "velocity": 100
        },
        {
          "pitch": 48,
          "onset": 178.0,
          "duration": 1.0,
          "velocity": 100
        },
        {
          "pitch": 51,
          "onset": 179.0,
          "duration": 0.5,
          "velocity": 100
        },
        {
          "pitch": 48,
          "onset": 179.5,
          "duration": 0.5,
          "velocity": 100
        },
        {
          "pitch": 48,
          "onset": 180.0,
          "duration": 1.0,
          "velocity": 100
        },
        {
          "pitch": 50,
          "onset": 180.0,
          "duration": 1.0,
          "velocity": 100
        },
        {
          "pitch": 51,
          "onset": 181.0,
          "duration": 0.5,
          "velocity": 100
        },
        {
          "pitch": 48,
          "onset": 181.5,
          "duration": 0.5,
          "velocity": 100
        },
        {
          "pitch": 50,
          "onset": 182.0,
          "duration": 1.0,
          "velocity": 100
        },
        {
          "pitch": 53,
          "onset": 183.0,
          "duration": 0.5,
          "velocity": 100
        },
        {
          "pitch": 50,
          "onset": 183.5,
          "duration": 0.5,
          "velocity": 100
        },
        {
          "pitch": 51,
          "onset": 184.0,
          "duration": 1.0,
          "velocity": 100
        },
        {
          "pitch": 53,
          "onset": 185.0,
          "duration": 0.5,
          "velocity": 100
        },
        {
          "pitch": 50,
          "onset": 185.5,
          "duration": 0.5,
          "velocity": 100
        },
        {
          "pitch": 48,
          "onset": 186.0,
          "duration": 1.0,
          "velocity": 100
        },
        {
          "pitch": 51,
          "onset": 186.0,
          "duration": 1.0,
          "velocity": 100
        },
        {
          "pitch": 56,
          "onset": 187.0,
          "duration": 0.5,
          "velocity": 100
        },
        {
          "pitch": 53,
          "onset": 187.5,
          "duration": 0.5,
          "velocity": 100
        },
        {
          "pitch": 55,
          "onset": 188.0,
          "duration": 0.6562,
          "velocity": 100
        },
        {
          "pitch": 48,
          "onset": 189.0,
          "duration": 0.6562,
          "velocity": 100
        },
        {
          "pitch": 48,
          "onset": 190.0,
          "duration": 0.5,
          "velocity": 100
        },
        {
          "pitch": 51,
          "onset": 190.0,
          "duration": 0.5,
          "velocity": 100
        },
        {
          "pitch": 50,
          "onset": 190.5,
          "duration": 0.75,
          "velocity": 100
        },
        {
          "pitch": 47,
          "onset": 191.5,
          "duration": 0.5,
          "velocity": 100
        },
        {
          "pitch": 48,
          "onset": 192.0,
          "duration": 1.5,
          "velocity": 100
        },
        {
          "pitch": 50,
          "onset": 194.0,
          "duration": 0.6562,
          "velocity": 100
        },
        {
          "pitch": 58,
          "onset": 194.0,
          "duration": 0.6562,
          "velocity": 100
        },
        {
          "pitch": 55,
          "onset": 195.0,
          "duration": 0.6562,
          "velocity": 100
        },
        {
          "pitch": 43,
          "onset": 196.0,
          "duration": 1.0,
          "velocity": 100
        },
        {
          "pitch": 52,
          "onset": 196.0,
          "duration": 1.0,
          "velocity": 100
        },
        {
          "pitch": 53,
          "onset": 197.0,
          "duration": 0.5,
          "velocity": 100
        },
        {
          "pitch": 50,
          "onset": 197.5,
          "duration": 0.5,
          "velocity": 100
        },
        {
          "pitch": 46,
          "onset": 198.0,
          "duration": 1.0,
          "velocity": 100
        },
        {
          "pitch": 52,
          "onset": 198.0,
          "duration": 1.0,
          "velocity": 100
        },
        {
          "pitch": 60,
          "onset": 199.0,
          "duration": 0.5,
          "velocity": 100
        },
        {
          "pitch": 52,
          "onset": 199.5,
          "duration": 0.5,
          "velocity": 100
        },
        {
          "pitch": 53,
          "onset": 200.0,
          "duration": 1.0,
          "velocity": 100
        },
        {
          "pitch": 55,
          "onset": 201.0,
          "duration": 0.5,
          "velocity": 100
        },
        {
          "pitch": 52,
          "onset": 201.5,
          "duration": 0.5,
          "velocity": 100
        },
        {
          "pitch": 53,
          "onset": 202.0,
          "duration": 1.0,
          "velocity": 100
        },
        {
          "pitch": 60,
          "onset": 203.0,
          "duration": 0.5,
          "velocity": 100
        },
        {
          "pitch": 53,
          "onset": 203.5,
          "duration": 0.5,
          "velocity": 100
        },
        {
          "pitch": 55,
          "onset": 204.0,
          "duration": 1.0,
          "velocity": 100
        },
        {
          "pitch": 56,
          "onset": 205.0,
          "duration": 0.5,
          "velocity": 100
        },
        {
          "pitch": 53,
          "onset": 205.5,
          "duration": 0.5,
          "velocity": 100
        },
        {
          "pitch": 52,
          "onset": 206.0,
          "duration": 1.0,
          "velocity": 100
        },
        {
          "pitch": 55,
          "onset": 206.0,
          "duration": 1.0,
          "velocity": 100
        },
        {
          "pitch": 60,
          "onset": 207.0,
          "duration": 0.5,
          "velocity": 100
        },
        {
          "pitch": 55,
          "onset": 207.5,
          "duration": 0.5,
          "velocity": 100
        },
        {
          "pitch": 58,
          "onset": 208.0,
          "duration": 0.5,
          "velocity": 100
        },
        {
          "pitch": 56,
          "onset": 208.5,
          "duration": 0.5,
          "velocity": 100
        },
        {
          "pitch": 55,
          "onset": 209.0,
          "duration": 0.5,
          "velocity": 100
        },
        {
          "pitch": 53,
          "onset": 209.5,
          "duration": 0.5,
          "velocity": 100
        },
        {
          "pitch": 56,
          "onset": 210.0,
          "duration": 0.5,
          "velocity": 100
        },
        {
          "pitch": 55,
          "onset": 210.5,
          "duration": 0.5,
          "velocity": 100
        },
        {
          "pitch": 53,
          "onset": 211.0,
          "duration": 0.5,
          "velocity": 100
        },
        {
          "pitch": 51,
          "onset": 211.5,
          "duration": 0.5,
          "velocity": 100
        },
        {
          "pitch": 50,
          "onset": 212.0,
          "duration": 0.75,
          "velocity": 100
        },
        {
          "pitch": 51,
          "onset": 213.0,
          "duration": 0.75,
          "velocity": 100
        },
        {
          "pitch": 50,
          "onset": 214.0,
          "duration": 0.75,
          "velocity": 100
        },
        {
          "pitch": 58,
          "onset": 215.0,
          "duration": 0.75,
          "velocity": 100
        },
        {
          "pitch": 51,
          "onset": 216.0,
          "duration": 0.75,
          "velocity": 100
        },
        {
          "pitch": 53,
          "onset": 217.0,
          "duration": 0.75,
          "velocity": 100
        },
        {
          "pitch": 51,
          "onset": 218.0,
          "duration": 0.75,
          "velocity": 100
        },
        {
          "pitch": 58,
          "onset": 219.0,
          "duration": 0.75,
          "velocity": 100
        },
        {
          "pitch": 53,
          "onset": 220.0,
          "duration": 0.75,
          "velocity": 100
        },
        {
          "pitch": 55,
          "onset": 221.0,
          "duration": 0.75,
          "velocity": 100
        },
        {
          "pitch": 53,
          "onset": 222.0,
          "duration": 0.75,
          "velocity": 100
        },
        {
          "pitch": 58,
          "onset": 223.0,
          "duration": 0.75,
          "velocity": 100
        },
        {
          "pitch": 56,
          "onset": 224.0,
          "duration": 0.5,
          "velocity": 100
        },
        {
          "pitch": 55,
          "onset": 224.5,
          "duration": 0.5,
          "velocity": 100
        },
        {
          "pitch": 53,
          "onset": 225.0,
          "duration": 0.5,
          "velocity": 100
        },
        {
          "pitch": 51,
          "onset": 225.5,
          "duration": 0.5,
          "velocity": 100
        },
        {
          "pitch": 51,
          "onset": 226.0,
          "duration": 0.6562,
          "velocity": 100
        },
        {
          "pitch": 56,
          "onset": 226.0,
          "duration": 0.6562,
          "velocity": 100
        },
        {
          "pitch": 51,
          "onset": 227.0,
          "duration": 0.6562,
          "velocity": 100
        },
        {
          "pitch": 55,
          "onset": 227.0,
          "duration": 0.6562,
          "velocity": 100
        },
        {
          "pitch": 53,
          "onset": 228.0,
          "duration": 0.5,
          "velocity": 100
        },
        {
          "pitch": 51,
          "onset": 228.5,
          "duration": 0.5,
          "velocity": 100
        },
        {
          "pitch": 53,
          "onset": 229.0,
          "duration": 0.5,
          "velocity": 100
        },
        {
          "pitch": 50,
          "onset": 229.5,
          "duration": 0.5,
          "velocity": 100
        },
        {
          "pitch": 51,
          "onset": 230.0,
          "duration": 0.6562,
          "velocity": 100
        },
        {
          "pitch": 60,
          "onset": 230.0,
          "duration": 0.6562,
          "velocity": 100
        },
        {
          "pitch": 51,
          "onset": 231.0,
          "duration": 0.6562,
          "velocity": 100
        },
        {
          "pitch": 58,
          "onset": 231.0,
          "duration": 0.6562,
          "velocity": 100
        },
        {
          "pitch": 44,
          "onset": 232.0,
          "duration": 1.0,
          "velocity": 100
        },
        {
          "pitch": 51,
          "onset": 232.0,
          "duration": 0.5,
          "velocity": 100
        },
        {
          "pitch": 50,
          "onset": 232.5,
          "duration": 0.5,
          "velocity": 100
        },
        {
          "pitch": 51,
          "onset": 233.0,
          "duration": 0.5,
          "velocity": 100
        },
        {
          "pitch": 48,
          "onset": 233.5,
          "duration": 0.5,
          "velocity": 100
        },
        {
          "pitch": 44,
          "onset": 234.0,
          "duration": 0.6562,
          "velocity": 100
        },
        {
          "pitch": 50,
          "onset": 234.0,
          "duration": 0.6562,
          "velocity": 100
        },
        {
          "pitch": 56,
          "onset": 235.0,
          "duration": 1.0,
          "velocity": 100
        },
        {
          "pitch": 56,
          "onset": 236.0,
          "duration": 0.5,
          "velocity": 100
        },
        {
          "pitch": 53,
          "onset": 236.5,
          "duration": 0.5,
          "velocity": 100
        },
        {
          "pitch": 55,
          "onset": 237.0,
          "duration": 0.5,
          "velocity": 100
        },
        {
          "pitch": 51,
          "onset": 237.5,
          "duration": 0.5,
          "velocity": 100
        },
        {
          "pitch": 55,
          "onset": 238.0,
          "duration": 0.5,
          "velocity": 100
        },
        {
          "pitch": 53,
          "onset": 238.5,
          "duration": 0.5,
          "velocity": 100
        },
        {
          "pitch": 51,
          "onset": 239.0,
          "duration": 0.5,
          "velocity": 100
        },
        {
          "pitch": 50,
          "onset": 239.5,
          "duration": 0.5,
          "velocity": 100
        },
        {
          "pitch": 46,
          "onset": 240.0,
          "duration": 1.5,
          "velocity": 100
        },
        {
          "pitch": 51,
          "onset": 240.0,
          "duration": 1.5,
          "velocity": 100
        },
        {
          "pitch": 46,
          "onset": 242.0,
          "duration": 0.6562,
          "velocity": 100
        },
        {
          "pitch": 55,
          "onset": 242.0,
          "duration": 0.6562,
          "velocity": 100
        },
        {
          "pitch": 51,
          "onset": 243.0,
          "duration": 0.6562,
          "velocity": 100
        },
        {
          "pitch": 58,
          "onset": 244.0,
          "duration": 1.0,
          "velocity": 100
        },
        {
          "pitch": 60,
          "onset": 245.0,
          "duration": 0.5,
          "velocity": 100
        },
        {
          "pitch": 57,
          "onset": 245.5,
          "duration": 0.5,
          "velocity": 100
        },
        {
          "pitch": 58,
          "onset": 246.0,
          "duration": 1.0,
          "velocity": 100
        },
        {
          "pitch": 60,
          "onset": 247.0,
          "duration": 0.5,
          "velocity": 100
        },
        {
          "pitch": 55,
          "onset": 247.5,
          "duration": 0.5,
          "velocity": 100
        },
        {
          "pitch": 58,
          "onset": 248.0,
          "duration": 0.5,
          "velocity": 100
        },
        {
          "pitch": 57,
          "onset": 248.5,
          "duration": 0.5,
          "velocity": 100
        },
        {
          "pitch": 55,
          "onset": 249.0,
          "duration": 0.5,
          "velocity": 100
        },
        {
          "pitch": 53,
          "onset": 249.5,
          "duration": 0.5,
          "velocity": 100
        },
        {
          "pitch": 57,
          "onset": 250.0,
          "duration": 0.5,
          "velocity": 100
        },
        {
          "pitch": 55,
          "onset": 250.5,
          "duration": 0.5,
          "velocity": 100
        },
        {
          "pitch": 59,
          "onset": 251.0,
          "duration": 0.5,
          "velocity": 100
        },
        {
          "pitch": 57,
          "onset": 251.5,
          "duration": 0.5,
          "velocity": 100
        },
        {
          "pitch": 60,
          "onset": 252.0,
          "duration": 0.5,
          "velocity": 100
        },
        {
          "pitch": 59,
          "onset": 252.5,
          "duration": 0.5,
          "velocity": 100
        },
        {
          "pitch": 62,
          "onset": 253.0,
          "duration": 0.5,
          "velocity": 100
        },
        {
          "pitch": 59,
          "onset": 253.5,
          "duration": 0.5,
          "velocity": 100
        },
        {
          "pitch": 60,
          "onset": 254.0,
          "duration": 0.5,
          "velocity": 100
        },
        {
          "pitch": 50,
          "onset": 256.5,
          "duration": 0.5,
          "velocity": 100
        },
        {
          "pitch": 60,
          "onset": 257.0,
          "duration": 0.5,
          "velocity": 100
        },
        {
          "pitch": 59,
          "onset": 257.5,
          "duration": 0.5,
          "velocity": 100
        },
        {
          "pitch": 63,
          "onset": 258.0,
          "duration": 0.75,
          "velocity": 100
        },
        {
          "pitch": 62,
          "onset": 260.0,
          "duration": 0.75,
          "velocity": 100
        },
        {
          "pitch": 60,
          "onset": 262.0,
          "duration": 0.75,
          "velocity": 100
        },
        {
          "pitch": 50,
          "onset": 264.0,
          "duration": 2.0,
          "velocity": 100
        },
        {
          "pitch": 60,
          "onset": 264.0,
          "duration": 0.5,
          "velocity": 100
        },
        {
          "pitch": 59,
          "onset": 264.5,
          "duration": 0.5,
          "velocity": 100
        },
        {
          "pitch": 57,
          "onset": 265.0,
          "duration": 0.5,
          "velocity": 100
        },
        {
          "pitch": 55,
          "onset": 265.5,
          "duration": 0.5,
          "velocity": 100
        },
        {
          "pitch": 60,
          "onset": 266.0,
          "duration": 0.75,
          "velocity": 100
        },
        {
          "pitch": 58,
          "onset": 268.0,
          "duration": 0.75,
          "velocity": 100
        },
        {
          "pitch": 56,
          "onset": 270.0,
          "duration": 0.75,
          "velocity": 100
        },
        {
          "pitch": 50,
          "onset": 272.0,
          "duration": 0.5,
          "velocity": 100
        },
        {
          "pitch": 55,
          "onset": 272.0,
          "duration": 0.5,
          "velocity": 100
        },
        {
          "pitch": 53,
          "onset": 272.5,
          "duration": 0.5,
          "velocity": 100
        },
        {
          "pitch": 51,
          "onset": 273.0,
          "duration": 0.5,
          "velocity": 100
        },
        {
          "pitch": 50,
          "onset": 273.5,
          "duration": 0.5,
          "velocity": 100
        },
        {
          "pitch": 48,
          "onset": 274.0,
          "duration": 1.0,
          "velocity": 100
        },
        {
          "pitch": 51,
          "onset": 275.0,
          "duration": 0.5,
          "velocity": 100
        },
        {
          "pitch": 48,
          "onset": 275.5,
          "duration": 0.5,
          "velocity": 100
        },
        {
          "pitch": 48,
          "onset": 276.0,
          "duration": 1.0,
          "velocity": 100
        },
        {
          "pitch": 50,
          "onset": 276.0,
          "duration": 1.0,
          "velocity": 100
        },
        {
          "pitch": 51,
          "onset": 277.0,
          "duration": 0.5,
          "velocity": 100
        },
        {
          "pitch": 48,
          "onset": 277.5,
          "duration": 0.5,
          "velocity": 100
        },
        {
          "pitch": 50,
          "onset": 278.0,
          "duration": 1.0,
          "velocity": 100
        },
        {
          "pitch": 53,
          "onset": 279.0,
          "duration": 0.5,
          "velocity": 100
        },
        {
          "pitch": 50,
          "onset": 279.5,
          "duration": 0.5,
          "velocity": 100
        },
        {
          "pitch": 51,
          "onset": 280.0,
          "duration": 1.0,
          "velocity": 100
        },
        {
          "pitch": 53,
          "onset": 281.0,
          "duration": 0.5,
          "velocity": 100
        },
        {
          "pitch": 50,
          "onset": 281.5,
          "duration": 0.5,
          "velocity": 100
        },
        {
          "pitch": 48,
          "onset": 282.0,
          "duration": 1.0,
          "velocity": 100
        },
        {
          "pitch": 51,
          "onset": 282.0,
          "duration": 1.0,
          "velocity": 100
        },
        {
          "pitch": 56,
          "onset": 283.0,
          "duration": 0.5,
          "velocity": 100
        },
        {
          "pitch": 53,
          "onset": 283.5,
          "duration": 0.5,
          "velocity": 100
        },
        {
          "pitch": 55,
          "onset": 284.0,
          "duration": 0.6562,
          "velocity": 100
        },
        {
          "pitch": 48,
          "onset": 285.0,
          "duration": 0.6562,
          "velocity": 100
        },
        {
          "pitch": 48,
          "onset": 286.0,
          "duration": 0.5,
          "velocity": 100
        },
        {
          "pitch": 51,
          "onset": 286.0,
          "duration": 0.5,
          "velocity": 100
        },
        {
          "pitch": 50,
          "onset": 286.5,
          "duration": 0.75,
          "velocity": 100
        },
        {
          "pitch": 47,
          "onset": 287.5,
          "duration": 0.5,
          "velocity": 100
        },
        {
          "pitch": 48,
          "onset": 288.0,
          "duration": 1.5,
          "velocity": 100
        },
        {
          "pitch": 55,
          "onset": 290.0,
          "duration": 0.3438,
          "velocity": 80
        },
        {
          "pitch": 53,
          "onset": 290.3438,
          "duration": 0.3438,
          "velocity": 80
        },
        {
          "pitch": 55,
          "onset": 290.6562,
          "duration": 0.3125,
          "velocity": 80
        },
        {
          "pitch": 56,
          "onset": 291.0,
          "duration": 0.3438,
          "velocity": 80
        },
        {
          "pitch": 55,
          "onset": 291.3438,
          "duration": 0.3438,
          "velocity": 80
        },
        {
          "pitch": 53,
          "onset": 291.6562,
          "duration": 0.3125,
          "velocity": 80
        },
        {
          "pitch": 55,
          "onset": 292.0,
          "duration": 1.3438,
          "velocity": 80
        },
        {
          "pitch": 53,
          "onset": 293.3438,
          "duration": 0.3438,
          "velocity": 80
        },
        {
          "pitch": 51,
          "onset": 293.6562,
          "duration": 0.3438,
          "velocity": 80
        },
        {
          "pitch": 50,
          "onset": 294.0,
          "duration": 0.3438,
          "velocity": 80
        },
        {
          "pitch": 51,
          "onset": 294.3438,
          "duration": 0.3438,
          "velocity": 80
        },
        {
          "pitch": 53,
          "onset": 294.6562,
          "duration": 0.3438,
          "velocity": 80
        },
        {
          "pitch": 51,
          "onset": 295.0,
          "duration": 0.3438,
          "velocity": 80
        },
        {
          "pitch": 50,
          "onset": 295.3438,
          "duration": 0.3438,
          "velocity": 80
        },
        {
          "pitch": 48,
          "onset": 295.6562,
          "duration": 0.3125,
          "velocity": 80
        },
        {
          "pitch": 47,
          "onset": 296.0,
          "duration": 0.3438,
          "velocity": 80
        },
        {
          "pitch": 48,
          "onset": 296.3438,
          "duration": 0.3438,
          "velocity": 80
        },
        {
          "pitch": 50,
          "onset": 296.6562,
          "duration": 0.3438,
          "velocity": 80
        },
        {
          "pitch": 43,
          "onset": 297.0,
          "duration": 0.3438,
          "velocity": 80
        },
        {
          "pitch": 47,
          "onset": 297.3438,
          "duration": 0.3438,
          "velocity": 80
        },
        {
          "pitch": 50,
          "onset": 297.6562,
          "duration": 0.3125,
          "velocity": 80
        },
        {
          "pitch": 55,
          "onset": 298.0,
          "duration": 0.3438,
          "velocity": 80
        },
        {
          "pitch": 53,
          "onset": 298.3438,
          "duration": 0.3438,
          "velocity": 80
        },
        {
          "pitch": 55,
          "onset": 298.6562,
          "duration": 0.3125,
          "velocity": 80
        },
        {
          "pitch": 56,
          "onset": 299.0,
          "duration": 0.3438,
          "velocity": 80
        },
        {
          "pitch": 55,
          "onset": 299.3438,
          "duration": 0.3438,
          "velocity": 80
        },
        {
          "pitch": 53,
          "onset": 299.6562,
          "duration": 0.3125,
          "velocity": 80
        },
        {
          "pitch": 55,
          "onset": 300.0,
          "duration": 0.3438,
          "velocity": 80
        },
        {
          "pitch": 53,
          "onset": 300.3438,
          "duration": 0.3438,
          "velocity": 80
        },
        {
          "pitch": 51,
          "onset": 300.6562,
          "duration": 0.3438,
          "velocity": 80
        },
        {
          "pitch": 50,
          "onset": 301.0,
          "duration": 0.3438,
          "velocity": 80
        },
        {
          "pitch": 51,
          "onset": 301.3438,
          "duration": 0.3438,
          "velocity": 80
        },
        {
          "pitch": 53,
          "onset": 301.6562,
          "duration": 0.3438,
          "velocity": 80
        },
        {
          "pitch": 51,
          "onset": 302.0,
          "duration": 0.3438,
          "velocity": 80
        },
        {
          "pitch": 50,
          "onset": 302.3438,
          "duration": 0.3438,
          "velocity": 80
        },
        {
          "pitch": 48,
          "onset": 302.6562,
          "duration": 0.3125,
          "velocity": 80
        },
        {
          "pitch": 47,
          "onset": 303.0,
          "duration": 0.3438,
          "velocity": 80
        },
        {
          "pitch": 48,
          "onset": 303.3438,
          "duration": 0.3438,
          "velocity": 80
        },
        {
          "pitch": 50,
          "onset": 303.6562,
          "duration": 0.3438,
          "velocity": 80
        },
        {
          "pitch": 48,
          "onset": 304.0,
          "duration": 1.0,
          "velocity": 80
        },
        {
          "pitch": 55,
          "onset": 306.0,
          "duration": 0.3438,
          "velocity": 80
        },
        {
          "pitch": 53,
          "onset": 306.3438,
          "duration": 0.3438,
          "velocity": 80
        },
        {
          "pitch": 55,
          "onset": 306.6562,
          "duration": 0.3125,
          "velocity": 80
        },
        {
          "pitch": 56,
          "onset": 307.0,
          "duration": 0.3438,
          "velocity": 80
        },
        {
          "pitch": 55,
          "onset": 307.3438,
          "duration": 0.3438,
          "velocity": 80
        },
        {
          "pitch": 53,
          "onset": 307.6562,
          "duration": 0.3125,
          "velocity": 80
        },
        {
          "pitch": 55,
          "onset": 308.0,
          "duration": 1.3438,
          "velocity": 80
        },
        {
          "pitch": 53,
          "onset": 309.3438,
          "duration": 0.3438,
          "velocity": 80
        },
        {
          "pitch": 51,
          "onset": 309.6562,
          "duration": 0.3438,
          "velocity": 80
        },
        {
          "pitch": 50,
          "onset": 310.0,
          "duration": 0.3438,
          "velocity": 80
        },
        {
          "pitch": 51,
          "onset": 310.3438,
          "duration": 0.3438,
          "velocity": 80
        },
        {
          "pitch": 53,
          "onset": 310.6562,
          "duration": 0.3438,
          "velocity": 80
        },
        {
          "pitch": 51,
          "onset": 311.0,
          "duration": 0.3438,
          "velocity": 80
        },
        {
          "pitch": 50,
          "onset": 311.3438,
          "duration": 0.3438,
          "velocity": 80
        },
        {
          "pitch": 48,
          "onset": 311.6562,
          "duration": 0.3125,
          "velocity": 80
        },
        {
          "pitch": 47,
          "onset": 312.0,
          "duration": 0.3438,
          "velocity": 80
        },
        {
          "pitch": 48,
          "onset": 312.3438,
          "duration": 0.3438,
          "velocity": 80
        },
        {
          "pitch": 50,
          "onset": 312.6562,
          "duration": 0.3438,
          "velocity": 80
        },
        {
          "pitch": 43,
          "onset": 313.0,
          "duration": 0.3438,
          "velocity": 80
        },
        {
          "pitch": 47,
          "onset": 313.3438,
          "duration": 0.3438,
          "velocity": 80
        },
        {
          "pitch": 50,
          "onset": 313.6562,
          "duration": 0.3125,
          "velocity": 80
        },
        {
          "pitch": 55,
          "onset": 314.0,
          "duration": 0.3438,
          "velocity": 80
        },
        {
          "pitch": 53,
          "onset": 314.3438,
          "duration": 0.3438,
          "velocity": 80
        },
        {
          "pitch": 55,
          "onset": 314.6562,
          "duration": 0.3125,
          "velocity": 80
        },
        {
          "pitch": 56,
          "onset": 315.0,
          "duration": 0.3438,
          "velocity": 80
        },
        {
          "pitch": 55,
          "onset": 315.3438,
          "duration": 0.3438,
          "velocity": 80
        },
        {
          "pitch": 53,
          "onset": 315.6562,
          "duration": 0.3125,
          "velocity": 80
        },
        {
          "pitch": 55,
          "onset": 316.0,
          "duration": 0.3438,
          "velocity": 80
        },
        {
          "pitch": 53,
          "onset": 316.3438,
          "duration": 0.3438,
          "velocity": 80
        },
        {
          "pitch": 51,
          "onset": 316.6562,
          "duration": 0.3438,
          "velocity": 80
        },
        {
          "pitch": 50,
          "onset": 317.0,
          "duration": 0.3438,
          "velocity": 80
        },
        {
          "pitch": 51,
          "onset": 317.3438,
          "duration": 0.3438,
          "velocity": 80
        },
        {
          "pitch": 53,
          "onset": 317.6562,
          "duration": 0.3438,
          "velocity": 80
        },
        {
          "pitch": 51,
          "onset": 318.0,
          "duration": 0.3438,
          "velocity": 80
        },
        {
          "pitch": 50,
          "onset": 318.3438,
          "duration": 0.3438,
          "velocity": 80
        },
        {
          "pitch": 48,
          "onset": 318.6562,
          "duration": 0.3125,
          "velocity": 80
        },
        {
          "pitch": 47,
          "onset": 319.0,
          "duration": 0.3438,
          "velocity": 80
        },
        {
          "pitch": 48,
          "onset": 319.3438,
          "duration": 0.3438,
          "velocity": 80
        },
        {
          "pitch": 50,
          "onset": 319.6562,
          "duration": 0.3438,
          "velocity": 80
        },
        {
          "pitch": 48,
          "onset": 320.0,
          "duration": 1.0,
          "velocity": 80
        },
        {
          "pitch": 51,
          "onset": 322.0,
          "duration": 0.3438,
          "velocity": 80
        },
        {
          "pitch": 50,
          "onset": 322.3438,
          "duration": 0.3438,
          "velocity": 80
        },
        {
          "pitch": 51,
          "onset": 322.6562,
          "duration": 0.3438,
          "velocity": 80
        },
        {
          "pitch": 53,
          "onset": 323.0,
          "duration": 0.3438,
          "velocity": 80
        },
        {
          "pitch": 51,
          "onset": 323.3438,
          "duration": 0.3438,
          "velocity": 80
        },
        {
          "pitch": 50,
          "onset": 323.6562,
          "duration": 0.3125,
          "velocity": 80
        },
        {
          "pitch": 51,
          "onset": 324.0,
          "duration": 1.3438,
          "velocity": 80
        },
        {
          "pitch": 53,
          "onset": 325.3438,
          "duration": 0.3438,
          "velocity": 80
        },
        {
          "pitch": 55,
          "onset": 325.6562,
          "duration": 0.3438,
          "velocity": 80
        },
        {
          "pitch": 56,
          "onset": 326.0,
          "duration": 0.3438,
          "velocity": 80
        },
        {
          "pitch": 55,
          "onset": 326.3438,
          "duration": 0.3438,
          "velocity": 80
        },
        {
          "pitch": 53,
          "onset": 326.6562,
          "duration": 0.3438,
          "velocity": 80
        },
        {
          "pitch": 55,
          "onset": 327.0,
          "duration": 0.3438,
          "velocity": 80
        },
        {
          "pitch": 53,
          "onset": 327.3438,
          "duration": 0.3438,
          "velocity": 80
        },
        {
          "pitch": 51,
          "onset": 327.6562,
          "duration": 0.3125,
          "velocity": 80
        },
        {
          "pitch": 50,
          "onset": 328.0,
          "duration": 0.3438,
          "velocity": 80
        },
        {
          "pitch": 51,
          "onset": 328.3438,
          "duration": 0.3438,
          "velocity": 80
        },
        {
          "pitch": 53,
          "onset": 328.6562,
          "duration": 0.3438,
          "velocity": 80
        },
        {
          "pitch": 46,
          "onset": 329.0,
          "duration": 0.3438,
          "velocity": 80
        },
        {
          "pitch": 50,
          "onset": 329.3438,
          "duration": 0.3438,
          "velocity": 80
        },
        {
          "pitch": 53,
          "onset": 329.6562,
          "duration": 0.3438,
          "velocity": 80
        },
        {
          "pitch": 58,
          "onset": 330.0,
          "duration": 0.3438,
          "velocity": 80
        },
        {
          "pitch": 57,
          "onset": 330.3438,
          "duration": 0.3438,
          "velocity": 80
        },
        {
          "pitch": 58,
          "onset": 330.6562,
          "duration": 0.3438,
          "velocity": 80
        },
        {
          "pitch": 60,
          "onset": 331.0,
          "duration": 0.3438,
          "velocity": 80
        },
        {
          "pitch": 58,
          "onset": 331.3438,
          "duration": 0.3438,
          "velocity": 80
        },
        {
          "pitch": 57,
          "onset": 331.6562,
          "duration": 0.3125,
          "velocity": 80
        },
        {
          "pitch": 58,
          "onset": 332.0,
          "duration": 0.3438,
          "velocity": 80
        },
        {
          "pitch": 57,
          "onset": 332.3438,
          "duration": 0.3438,
          "velocity": 80
        },
        {
          "pitch": 55,
          "onset": 332.6562,
          "duration": 0.3438,
          "velocity": 80
        },
        {
          "pitch": 63,
          "onset": 333.0,
          "duration": 0.3438,
          "velocity": 80
        },
        {
          "pitch": 62,
          "onset": 333.3438,
          "duration": 0.3438,
          "velocity": 80
        },
        {
          "pitch": 60,
          "onset": 333.6562,
          "duration": 0.3438,
          "velocity": 80
        },
        {
          "pitch": 58,
          "onset": 334.0,
          "duration": 0.3438,
          "velocity": 80
        },
        {
          "pitch": 57,
          "onset": 334.3438,
          "duration": 0.3438,
          "velocity": 80
        },
        {
          "pitch": 55,
          "onset": 334.6562,
          "duration": 0.3438,
          "velocity": 80
        },
        {
          "pitch": 54,
          "onset": 335.0,
          "duration": 0.3438,
          "velocity": 80
        },
        {
          "pitch": 55,
          "onset": 335.3438,
          "duration": 0.3438,
          "velocity": 80
        },
        {
          "pitch": 57,
          "onset": 335.6562,
          "duration": 0.3125,
          "velocity": 80
        },
        {
          "pitch": 55,
          "onset": 336.0,
          "duration": 1.0,
          "velocity": 80
        },
        {
          "pitch": 55,
          "onset": 338.0,
          "duration": 0.3438,
          "velocity": 80
        },
        {
          "pitch": 53,
          "onset": 338.3438,
          "duration": 0.3438,
          "velocity": 80
        },
        {
          "pitch": 55,
          "onset": 338.6562,
          "duration": 0.3125,
          "velocity": 80
        },
        {
          "pitch": 56,
          "onset": 339.0,
          "duration": 0.3438,
          "velocity": 80
        },
        {
          "pitch": 55,
          "onset": 339.3438,
          "duration": 0.3438,
          "velocity": 80
        },
        {
          "pitch": 53,
          "onset": 339.6562,
          "duration": 0.3125,
          "velocity": 80
        },
        {
          "pitch": 55,
          "onset": 340.0,
          "duration": 1.3438,
          "velocity": 80
        },
        {
          "pitch": 53,
          "onset": 341.3438,
          "duration": 0.3438,
          "velocity": 80
        },
        {
          "pitch": 51,
          "onset": 341.6562,
          "duration": 0.3438,
          "velocity": 80
        },
        {
          "pitch": 50,
          "onset": 342.0,
          "duration": 0.3438,
          "velocity": 80
        },
        {
          "pitch": 51,
          "onset": 342.3438,
          "duration": 0.3438,
          "velocity": 80
        },
        {
          "pitch": 53,
          "onset": 342.6562,
          "duration": 0.3438,
          "velocity": 80
        },
        {
          "pitch": 51,
          "onset": 343.0,
          "duration": 0.3438,
          "velocity": 80
        },
        {
          "pitch": 50,
          "onset": 343.3438,
          "duration": 0.3438,
          "velocity": 80
        },
        {
          "pitch": 48,
          "onset": 343.6562,
          "duration": 0.3125,
          "velocity": 80
        },
        {
          "pitch": 47,
          "onset": 344.0,
          "duration": 0.3438,
          "velocity": 80
        },
        {
          "pitch": 48,
          "onset": 344.3438,
          "duration": 0.3438,
          "velocity": 80
        },
        {
          "pitch": 50,
          "onset": 344.6562,
          "duration": 0.3438,
          "velocity": 80
        },
        {
          "pitch": 43,
          "onset": 345.0,
          "duration": 0.3438,
          "velocity": 80
        },
        {
          "pitch": 47,
          "onset": 345.3438,
          "duration": 0.3438,
          "velocity": 80
        },
        {
          "pitch": 50,
          "onset": 345.6562,
          "duration": 0.3125,
          "velocity": 80
        },
        {
          "pitch": 55,
          "onset": 346.0,
          "duration": 0.3438,
          "velocity": 80
        },
        {
          "pitch": 53,
          "onset": 346.3438,
          "duration": 0.3438,
          "velocity": 80
        },
        {
          "pitch": 55,
          "onset": 346.6562,
          "duration": 0.3125,
          "velocity": 80
        },
        {
          "pitch": 56,
          "onset": 347.0,
          "duration": 0.3438,
          "velocity": 80
        },
        {
          "pitch": 55,
          "onset": 347.3438,
          "duration": 0.3438,
          "velocity": 80
        },
        {
          "pitch": 53,
          "onset": 347.6562,
          "duration": 0.3125,
          "velocity": 80
        },
        {
          "pitch": 55,
          "onset": 348.0,
          "duration": 0.3438,
          "velocity": 80
        },
        {
          "pitch": 53,
          "onset": 348.3438,
          "duration": 0.3438,
          "velocity": 80
        },
        {
          "pitch": 51,
          "onset": 348.6562,
          "duration": 0.3438,
          "velocity": 80
        },
        {
          "pitch": 50,
          "onset": 349.0,
          "duration": 0.3438,
          "velocity": 80
        },
        {
          "pitch": 51,
          "onset": 349.3438,
          "duration": 0.3438,
          "velocity": 80
        },
        {
          "pitch": 53,
          "onset": 349.6562,
          "duration": 0.3438,
          "velocity": 80
        },
        {
          "pitch": 51,
          "onset": 350.0,
          "duration": 0.3438,
          "velocity": 80
        },
        {
          "pitch": 50,
          "onset": 350.3438,
          "duration": 0.3438,
          "velocity": 80
        },
        {
          "pitch": 48,
          "onset": 350.6562,
          "duration": 0.3125,
          "velocity": 80
        },
        {
          "pitch": 47,
          "onset": 351.0,
          "duration": 0.3438,
          "velocity": 80
        },
        {
          "pitch": 48,
          "onset": 351.3438,
          "duration": 0.3438,
          "velocity": 80
        },
        {
          "pitch": 50,
          "onset": 351.6562,
          "duration": 0.3438,
          "velocity": 80
        },
        {
          "pitch": 48,
          "onset": 352.0,
          "duration": 0.3438,
          "velocity": 80
        },
        {
          "pitch": 43,
          "onset": 352.3438,
          "duration": 0.5,
          "velocity": 80
        },
        {
          "pitch": 43,
          "onset": 353.6562,
          "duration": 0.3438,
          "velocity": 88
        },
        {
          "pitch": 48,
          "onset": 354.0,
          "duration": 0.3438,
          "velocity": 90
        },
        {
          "pitch": 51,
          "onset": 354.3438,
          "duration": 0.3438,
          "velocity": 92
        },
        {
          "pitch": 55,
          "onset": 354.6562,
          "duration": 0.3438,
          "velocity": 94
        },
        {
          "pitch": 60,
          "onset": 355.0,
          "duration": 0.3438,
          "velocity": 96
        },
        {
          "pitch": 62,
          "onset": 355.3438,
          "duration": 0.3438,
          "velocity": 98
        },
        {
          "pitch": 59,
          "onset": 355.6562,
          "duration": 0.3125,
          "velocity": 100
        },
        {
          "pitch": 60,
          "onset": 356.0,
          "duration": 1.3438,
          "velocity": 100
        },
        {
          "pitch": 58,
          "onset": 357.3438,
          "duration": 0.3438,
          "velocity": 100
        },
        {
          "pitch": 56,
          "onset": 357.6562,
          "duration": 0.3438,
          "velocity": 100
        },
        {
          "pitch": 55,
          "onset": 358.0,
          "duration": 0.3438,
          "velocity": 100
        },
        {
          "pitch": 56,
          "onset": 358.3438,
          "duration": 0.3438,
          "velocity": 100
        },
        {
          "pitch": 58,
          "onset": 358.6562,
          "duration": 0.3438,
          "velocity": 100
        },
        {
          "pitch": 56,
          "onset": 359.0,
          "duration": 0.3438,
          "velocity": 100
        },
        {
          "pitch": 55,
          "onset": 359.3438,
          "duration": 0.3438,
          "velocity": 100
        },
        {
          "pitch": 53,
          "onset": 359.6562,
          "duration": 0.3125,
          "velocity": 100
        },
        {
          "pitch": 52,
          "onset": 360.0,
          "duration": 0.3438,
          "velocity": 100
        },
        {
          "pitch": 53,
          "onset": 360.3438,
          "duration": 0.3438,
          "velocity": 100
        },
        {
          "pitch": 55,
          "onset": 360.6562,
          "duration": 0.3438,
          "velocity": 100
        },
        {
          "pitch": 48,
          "onset": 361.0,
          "duration": 0.3438,
          "velocity": 100
        },
        {
          "pitch": 50,
          "onset": 361.3438,
          "duration": 0.3438,
          "velocity": 100
        },
        {
          "pitch": 52,
          "onset": 361.6562,
          "duration": 0.3438,
          "velocity": 100
        },
        {
          "pitch": 53,
          "onset": 362.0,
          "duration": 0.3438,
          "velocity": 100
        },
        {
          "pitch": 52,
          "onset": 362.3438,
          "duration": 0.3438,
          "velocity": 100
        },
        {
          "pitch": 53,
          "onset": 362.6562,
          "duration": 0.3438,
          "velocity": 100
        },
        {
          "pitch": 55,
          "onset": 363.0,
          "duration": 0.3438,
          "velocity": 100
        },
        {
          "pitch": 53,
          "onset": 363.3438,
          "duration": 0.3438,
          "velocity": 100
        },
        {
          "pitch": 52,
          "onset": 363.6562,
          "duration": 0.3125,
          "velocity": 100
        },
        {
          "pitch": 53,
          "onset": 364.0,
          "duration": 0.25,
          "velocity": 100
        },
        {
          "pitch": 51,
          "onset": 364.3438,
          "duration": 0.3438,
          "velocity": 100
        },
        {
          "pitch": 49,
          "onset": 364.6562,
          "duration": 0.3438,
          "velocity": 100
        },
        {
          "pitch": 48,
          "onset": 365.0,
          "duration": 0.3438,
          "velocity": 100
        },
        {
          "pitch": 49,
          "onset": 365.3438,
          "duration": 0.3438,
          "velocity": 100
        },
        {
          "pitch": 51,
          "onset": 365.6562,
          "duration": 0.3438,
          "velocity": 100
        },
        {
          "pitch": 49,
          "onset": 366.0,
          "duration": 0.25,
          "velocity": 100
        },
        {
          "pitch": 52,
          "onset": 366.3438,
          "duration": 0.3438,
          "velocity": 100
        },
        {
          "pitch": 53,
          "onset": 366.6562,
          "duration": 0.3438,
          "velocity": 100
        },
        {
          "pitch": 55,
          "onset": 367.0,
          "duration": 0.3438,
          "velocity": 100
        },
        {
          "pitch": 53,
          "onset": 367.3438,
          "duration": 0.3438,
          "velocity": 100
        },
        {
          "pitch": 52,
          "onset": 367.6562,
          "duration": 0.3125,
          "velocity": 100
        },
        {
          "pitch": 53,
          "onset": 368.0,
          "duration": 0.25,
          "velocity": 100
        },
        {
          "pitch": 48,
          "onset": 368.3438,
          "duration": 0.3438,
          "velocity": 100
        },
        {
          "pitch": 46,
          "onset": 368.6562,
          "duration": 0.3438,
          "velocity": 100
        },
        {
          "pitch": 45,
          "onset": 369.0,
          "duration": 0.3438,
          "velocity": 100
        },
        {
          "pitch": 46,
          "onset": 369.3438,
          "duration": 0.3438,
          "velocity": 100
        },
        {
          "pitch": 48,
          "onset": 369.6562,
          "duration": 0.3438,
          "velocity": 100
        },
        {
          "pitch": 46,
          "onset": 370.0,
          "duration": 0.25,
          "velocity": 100
        },
        {
          "pitch": 52,
          "onset": 370.3438,
          "duration": 0.3438,
          "velocity": 100
        },
        {
          "pitch": 53,
          "onset": 370.6562,
          "duration": 0.3438,
          "velocity": 100
        },
        {
          "pitch": 55,
          "onset": 371.0,
          "duration": 0.3438,
          "velocity": 100
        },
        {
          "pitch": 53,
          "onset": 371.3438,
          "duration": 0.3438,
          "velocity": 100
        },
        {
          "pitch": 52,
          "onset": 371.6562,
          "duration": 0.3125,
          "velocity": 100
        },
        {
          "pitch": 47,
          "onset": 372.0,
          "duration": 0.25,
          "velocity": 100
        },
        {
          "pitch": 53,
          "onset": 372.3438,
          "duration": 0.3438,
          "velocity": 100
        },
        {
          "pitch": 55,
          "onset": 372.6562,
          "duration": 0.3438,
          "velocity": 100
        },
        {
          "pitch": 56,
          "onset": 373.0,
          "duration": 0.3438,
          "velocity": 100
        },
        {
          "pitch": 55,
          "onset": 373.3438,
          "duration": 0.3438,
          "velocity": 100
        },
        {
          "pitch": 53,
          "onset": 373.6562,
          "duration": 0.3438,
          "velocity": 100
        },
        {
          "pitch": 60,
          "onset": 374.0,
          "duration": 0.3438,
          "velocity": 100
        },
        {
          "pitch": 58,
          "onset": 374.3438,
          "duration": 0.3438,
          "velocity": 100
        },
        {
          "pitch": 56,
          "onset": 374.6562,
          "duration": 0.3438,
          "velocity": 100
        },
        {
          "pitch": 55,
          "onset": 375.0,
          "duration": 0.3438,
          "velocity": 100
        },
        {
          "pitch": 53,
          "onset": 375.3438,
          "duration": 0.3438,
          "velocity": 100
        },
        {
          "pitch": 52,
          "onset": 375.6562,
          "duration": 0.3125,
          "velocity": 100
        },
        {
          "pitch": 53,
          "onset": 376.0,
          "duration": 0.3438,
          "velocity": 100
        },
        {
          "pitch": 55,
          "onset": 376.3438,
          "duration": 0.3438,
          "velocity": 100
        },
        {
          "pitch": 56,
          "onset": 376.6562,
          "duration": 0.3438,
          "velocity": 100
        },
        {
          "pitch": 55,
          "onset": 377.0,
          "duration": 0.3438,
          "velocity": 100
        },
        {
          "pitch": 56,
          "onset": 377.3438,
          "duration": 0.3438,
          "velocity": 100
        },
        {
          "pitch": 53,
          "onset": 377.6562,
          "duration": 0.3438,
          "velocity": 100
        },
        {
          "pitch": 59,
          "onset": 378.0,
          "duration": 0.3438,
          "velocity": 100
        },
        {
          "pitch": 60,
          "onset": 378.3438,
          "duration": 0.3438,
          "velocity": 100
        },
        {
          "pitch": 62,
          "onset": 378.6562,
          "duration": 0.3438,
          "velocity": 100
        },
        {
          "pitch": 60,
          "onset": 379.0,
          "duration": 0.3438,
          "velocity": 100
        },
        {
          "pitch": 62,
          "onset": 379.3438,
          "duration": 0.3438,
          "velocity": 100
        },
        {
          "pitch": 59,
          "onset": 379.6562,
          "duration": 0.3125,
          "velocity": 100
        },
        {
          "pitch": 60,
          "onset": 380.0,
          "duration": 0.3438,
          "velocity": 100
        },
        {
          "pitch": 58,
          "onset": 380.3438,
          "duration": 0.3438,
          "velocity": 100
        },
        {
          "pitch": 56,
          "onset": 380.6562,
          "duration": 0.3438,
          "velocity": 100
        },
        {
          "pitch": 55,
          "onset": 381.0,
          "duration": 0.3438,
          "velocity": 100
        },
        {
          "pitch": 53,
          "onset": 381.3438,
          "duration": 0.3438,
          "velocity": 100
        },
        {
          "pitch": 51,
          "onset": 381.6562,
          "duration": 0.3438,
          "velocity": 100
        },
        {
          "pitch": 56,
          "onset": 382.0,
          "duration": 0.3438,
          "velocity": 100
        },
        {
          "pitch": 55,
          "onset": 382.3438,
          "duration": 0.3438,
          "velocity": 96
        },
        {
          "pitch": 53,
          "onset": 382.6562,
          "duration": 0.3438,
          "velocity": 92
        },
        {
          "pitch": 51,
          "onset": 383.0,
          "duration": 0.3438,
          "velocity": 88
        },
        {
          "pitch": 50,
          "onset": 383.3438,
          "duration": 0.3438,
          "velocity": 84
        },
        {
          "pitch": 48,
          "onset": 383.6562,
          "duration": 0.3125,
          "velocity": 80
        },
        {
          "pitch": 47,
          "onset": 384.0,
          "duration": 0.3125,
          "velocity": 80
        },
        {
          "pitch": 48,
          "onset": 384.3438,
          "duration": 0.3125,
          "velocity": 80
        },
        {
          "pitch": 50,
          "onset": 384.6562,
          "duration": 0.3125,
          "velocity": 80
        },
        {
          "pitch": 43,
          "onset": 385.0,
          "duration": 0.3125,
          "velocity": 80
        },
        {
          "pitch": 47,
          "onset": 385.3438,
          "duration": 0.3125,
          "velocity": 80
        },
        {
          "pitch": 50,
          "onset": 385.6562,
          "duration": 0.3125,
          "velocity": 80
        },
        {
          "pitch": 55,
          "onset": 386.0,
          "duration": 0.3438,
          "velocity": 80
        },
        {
          "pitch": 53,
          "onset": 386.3438,
          "duration": 0.3438,
          "velocity": 80
        },
        {
          "pitch": 55,
          "onset": 386.6562,
          "duration": 0.3125,
          "velocity": 80
        },
        {
          "pitch": 56,
          "onset": 387.0,
          "duration": 0.3438,
          "velocity": 80
        },
        {
          "pitch": 55,
          "onset": 387.3438,
          "duration": 0.3438,
          "velocity": 80
        },
        {
          "pitch": 53,
          "onset": 387.6562,
          "duration": 0.3125,
          "velocity": 80
        },
        {
          "pitch": 55,
          "onset": 388.0,
          "duration": 0.3438,
          "velocity": 80
        },
        {
          "pitch": 53,
          "onset": 388.3438,
          "duration": 0.3438,
          "velocity": 80
        },
        {
          "pitch": 51,
          "onset": 388.6562,
          "duration": 0.3438,
          "velocity": 80
        },
        {
          "pitch": 50,
          "onset": 389.0,
          "duration": 0.3438,
          "velocity": 80
        },
        {
          "pitch": 51,
          "onset": 389.3438,
          "duration": 0.3438,
          "velocity": 80
        },
        {
          "pitch": 53,
          "onset": 389.6562,
          "duration": 0.3438,
          "velocity": 80
        },
        {
          "pitch": 51,
          "onset": 390.0,
          "duration": 0.3438,
          "velocity": 80
        },
        {
          "pitch": 50,
          "onset": 390.3438,
          "duration": 0.3438,
          "velocity": 80
        },
        {
          "pitch": 48,
          "onset": 390.6562,
          "duration": 0.3125,
          "velocity": 80
        },
        {
          "pitch": 47,
          "onset": 391.0,
          "duration": 0.3438,
          "velocity": 80
        },
        {
          "pitch": 48,
          "onset": 391.3438,
          "duration": 0.3438,
          "velocity": 80
        },
        {
          "pitch": 50,
          "onset": 391.6562,
          "duration": 0.3438,
          "velocity": 80
        },
        {
          "pitch": 48,
          "onset": 392.0,
          "duration": 1.0,
          "velocity": 80
        },
        {
          "pitch": 51,
          "onset": 394.0,
          "duration": 0.3438,
          "velocity": 80
        },
        {
          "pitch": 50,
          "onset": 394.3438,
          "duration": 0.3438,
          "velocity": 80
        },
        {
          "pitch": 51,
          "onset": 394.6562,
          "duration": 0.3438,
          "velocity": 80
        },
        {
          "pitch": 53,
          "onset": 395.0,
          "duration": 0.3438,
          "velocity": 80
        },
        {
          "pitch": 51,
          "onset": 395.3438,
          "duration": 0.3438,
          "velocity": 80
        },
        {
          "pitch": 50,
          "onset": 395.6562,
          "duration": 0.3125,
          "velocity": 80
        },
        {
          "pitch": 51,
          "onset": 396.0,
          "duration": 1.3438,
          "velocity": 80
        },
        {
          "pitch": 53,
          "onset": 397.3438,
          "duration": 0.3438,
          "velocity": 80
        },
        {
          "pitch": 55,
          "onset": 397.6562,
          "duration": 0.3438,
          "velocity": 80
        },
        {
          "pitch": 56,
          "onset": 398.0,
          "duration": 0.3438,
          "velocity": 80
        },
        {
          "pitch": 55,
          "onset": 398.3438,
          "duration": 0.3438,
          "velocity": 80
        },
        {
          "pitch": 53,
          "onset": 398.6562,
          "duration": 0.3438,
          "velocity": 80
        },
        {
          "pitch": 55,
          "onset": 399.0,
          "duration": 0.3438,
          "velocity": 80
        },
        {
          "pitch": 53,
          "onset": 399.3438,
          "duration": 0.3438,
          "velocity": 80
        },
        {
          "pitch": 51,
          "onset": 399.6562,
          "duration": 0.3125,
          "velocity": 80
        },
        {
          "pitch": 50,
          "onset": 400.0,
          "duration": 0.3438,
          "velocity": 80
        },
        {
          "pitch": 51,
          "onset": 400.3438,
          "duration": 0.3438,
          "velocity": 80
        },
        {
          "pitch": 53,
          "onset": 400.6562,
          "duration": 0.3438,
          "velocity": 80
        },
        {
          "pitch": 46,
          "onset": 401.0,
          "duration": 0.3438,
          "velocity": 80
        },
        {
          "pitch": 50,
          "onset": 401.3438,
          "duration": 0.3438,
          "velocity": 80
        },
        {
          "pitch": 53,
          "onset": 401.6562,
          "duration": 0.3438,
          "velocity": 80
        },
        {
          "pitch": 58,
          "onset": 402.0,
          "duration": 0.3438,
          "velocity": 80
        },
        {
          "pitch": 57,
          "onset": 402.3438,
          "duration": 0.3438,
          "velocity": 80
        },
        {
          "pitch": 58,
          "onset": 402.6562,
          "duration": 0.3438,
          "velocity": 80
        },
        {
          "pitch": 60,
          "onset": 403.0,
          "duration": 0.3438,
          "velocity": 80
        },
        {
          "pitch": 58,
          "onset": 403.3438,
          "duration": 0.3438,
          "velocity": 80
        },
        {
          "pitch": 57,
          "onset": 403.6562,
          "duration": 0.3125,
          "velocity": 80
        },
        {
          "pitch": 58,
          "onset": 404.0,
          "duration": 0.3438,
          "velocity": 80
        },
        {
          "pitch": 57,
          "onset": 404.3438,
          "duration": 0.3438,
          "velocity": 80
        },
        {
          "pitch": 55,
          "onset": 404.6562,
          "duration": 0.3438,
          "velocity": 80
        },
        {
          "pitch": 63,
          "onset": 405.0,
          "duration": 0.3438,
          "velocity": 80
        },
        {
          "pitch": 62,
          "onset": 405.3438,
          "duration": 0.3438,
          "velocity": 80
        },
        {
          "pitch": 60,
          "onset": 405.6562,
          "duration": 0.3438,
          "velocity": 80
        },
        {
          "pitch": 58,
          "onset": 406.0,
          "duration": 0.3438,
          "velocity": 80
        },
        {
          "pitch": 57,
          "onset": 406.3438,
          "duration": 0.3438,
          "velocity": 80
        },
        {
          "pitch": 55,
          "onset": 406.6562,
          "duration": 0.3438,
          "velocity": 80
        },
        {
          "pitch": 54,
          "onset": 407.0,
          "duration": 0.3438,
          "velocity": 80
        },
        {
          "pitch": 55,
          "onset": 407.3438,
          "duration": 0.3438,
          "velocity": 80
        },
        {
          "pitch": 57,
          "onset": 407.6562,
          "duration": 0.3125,
          "velocity": 80
        },
        {
          "pitch": 55,
          "onset": 408.0,
          "duration": 1.0,
          "velocity": 80
        },
        {
          "pitch": 55,
          "onset": 410.0,
          "duration": 0.3438,
          "velocity": 80
        },
        {
          "pitch": 53,
          "onset": 410.3438,
          "duration": 0.3438,
          "velocity": 80
        },
        {
          "pitch": 55,
          "onset": 410.6562,
          "duration": 0.3125,
          "velocity": 80
        },
        {
          "pitch": 56,
          "onset": 411.0,
          "duration": 0.3438,
          "velocity": 80
        },
        {
          "pitch": 55,
          "onset": 411.3438,
          "duration": 0.3438,
          "velocity": 80
        },
        {
          "pitch": 53,
          "onset": 411.6562,
          "duration": 0.3125,
          "velocity": 80
        },
        {
          "pitch": 55,
          "onset": 412.0,
          "duration": 1.3438,
          "velocity": 80
        },
        {
          "pitch": 53,
          "onset": 413.3438,
          "duration": 0.3438,
          "velocity": 80
        },
        {
          "pitch": 51,
          "onset": 413.6562,
          "duration": 0.3438,
          "velocity": 80
        },
        {
          "pitch": 50,
          "onset": 414.0,
          "duration": 0.3438,
          "velocity": 80
        },
        {
          "pitch": 51,
          "onset": 414.3438,
          "duration": 0.3438,
          "velocity": 80
        },
        {
          "pitch": 53,
          "onset": 414.6562,
          "duration": 0.3438,
          "velocity": 80
        },
        {
          "pitch": 51,
          "onset": 415.0,
          "duration": 0.3438,
          "velocity": 80
        },
        {
          "pitch": 50,
          "onset": 415.3438,
          "duration": 0.3438,
          "velocity": 80
        },
        {
          "pitch": 48,
          "onset": 415.6562,
          "duration": 0.3125,
          "velocity": 80
        },
        {
          "pitch": 47,
          "onset": 416.0,
          "duration": 0.3438,
          "velocity": 80
        },
        {
          "pitch": 48,
          "onset": 416.3438,
          "duration": 0.3438,
          "velocity": 80
        },
        {
          "pitch": 50,
          "onset": 416.6562,
          "duration": 0.3438,
          "velocity": 80
        },
        {
          "pitch": 43,
          "onset": 417.0,
          "duration": 0.3438,
          "velocity": 80
        },
        {
          "pitch": 47,
          "onset": 417.3438,
          "duration": 0.3438,
          "velocity": 80
        },
        {
          "pitch": 50,
          "onset": 417.6562,
          "duration": 0.3125,
          "velocity": 80
        },
        {
          "pitch": 55,
          "onset": 418.0,
          "duration": 0.3438,
          "velocity": 80
        },
        {
          "pitch": 53,
          "onset": 418.3438,
          "duration": 0.3438,
          "velocity": 80
        },
        {
          "pitch": 55,
          "onset": 418.6562,
          "duration": 0.3125,
          "velocity": 80
        },
        {
          "pitch": 56,
          "onset": 419.0,
          "duration": 0.3438,
          "velocity": 80
        },
        {
          "pitch": 55,
          "onset": 419.3438,
          "duration": 0.3438,
          "velocity": 80
        },
        {
          "pitch": 53,
          "onset": 419.6562,
          "duration": 0.3125,
          "velocity": 80
        },
        {
          "pitch": 55,
          "onset": 420.0,
          "duration": 0.3438,
          "velocity": 80
        },
        {
          "pitch": 53,
          "onset": 420.3438,
          "duration": 0.3438,
          "velocity": 80
        },
        {
          "pitch": 51,
          "onset": 420.6562,
          "duration": 0.3438,
          "velocity": 80
        },
        {
          "pitch": 50,
          "onset": 421.0,
          "duration": 0.3438,
          "velocity": 80
        },
        {
          "pitch": 51,
          "onset": 421.3438,
          "duration": 0.3438,
          "velocity": 80
        },
        {
          "pitch": 53,
          "onset": 421.6562,
          "duration": 0.3438,
          "velocity": 80
        },
        {
          "pitch": 51,
          "onset": 422.0,
          "duration": 0.3438,
          "velocity": 80
        },
        {
          "pitch": 50,
          "onset": 422.3438,
          "duration": 0.3438,
          "velocity": 80
        },
        {
          "pitch": 48,
          "onset": 422.6562,
          "duration": 0.3125,
          "velocity": 80
        },
        {
          "pitch": 47,
          "onset": 423.0,
          "duration": 0.3438,
          "velocity": 80
        },
        {
          "pitch": 48,
          "onset": 423.3438,
          "duration": 0.3438,
          "velocity": 80
        },
        {
          "pitch": 50,
          "onset": 423.6562,
          "duration": 0.3438,
          "velocity": 80
        },
        {
          "pitch": 48,
          "onset": 424.0,
          "duration": 0.3438,
          "velocity": 80
        },
        {
          "pitch": 43,
          "onset": 424.3438,
          "duration": 0.5,
          "velocity": 80
        },
        {
          "pitch": 43,
          "onset": 425.6562,
          "duration": 0.3438,
          "velocity": 88
        },
        {
          "pitch": 48,
          "onset": 426.0,
          "duration": 0.3438,
          "velocity": 90
        },
        {
          "pitch": 51,
          "onset": 426.3438,
          "duration": 0.3438,
          "velocity": 92
        },
        {
          "pitch": 55,
          "onset": 426.6562,
          "duration": 0.3438,
          "velocity": 94
        },
        {
          "pitch": 60,
          "onset": 427.0,
          "duration": 0.3438,
          "velocity": 96
        },
        {
          "pitch": 62,
          "onset": 427.3438,
          "duration": 0.3438,
          "velocity": 98
        },
        {
          "pitch": 59,
          "onset": 427.6562,
          "duration": 0.3125,
          "velocity": 100
        },
        {
          "pitch": 60,
          "onset": 428.0,
          "duration": 1.3438,
          "velocity": 100
        },
        {
          "pitch": 58,
          "onset": 429.3438,
          "duration": 0.3438,
          "velocity": 100
        },
        {
          "pitch": 56,
          "onset": 429.6562,
          "duration": 0.3438,
          "velocity": 100
        },
        {
          "pitch": 55,
          "onset": 430.0,
          "duration": 0.3438,
          "velocity": 100
        },
        {
          "pitch": 56,
          "onset": 430.3438,
          "duration": 0.3438,
          "velocity": 100
        },
        {
          "pitch": 58,
          "onset": 430.6562,
          "duration": 0.3438,
          "velocity": 100
        },
        {
          "pitch": 56,
          "onset": 431.0,
          "duration": 0.3438,
          "velocity": 100
        },
        {
          "pitch": 55,
          "onset": 431.3438,
          "duration": 0.3438,
          "velocity": 100
        },
        {
          "pitch": 53,
          "onset": 431.6562,
          "duration": 0.3125,
          "velocity": 100
        },
        {
          "pitch": 52,
          "onset": 432.0,
          "duration": 0.3438,
          "velocity": 100
        },
        {
          "pitch": 53,
          "onset": 432.3438,
          "duration": 0.3438,
          "velocity": 100
        },
        {
          "pitch": 55,
          "onset": 432.6562,
          "duration": 0.3438,
          "velocity": 100
        },
        {
          "pitch": 48,
          "onset": 433.0,
          "duration": 0.3438,
          "velocity": 100
        },
        {
          "pitch": 50,
          "onset": 433.3438,
          "duration": 0.3438,
          "velocity": 100
        },
        {
          "pitch": 52,
          "onset": 433.6562,
          "duration": 0.3438,
          "velocity": 100
        },
        {
          "pitch": 53,
          "onset": 434.0,
          "duration": 0.3438,
          "velocity": 100
        },
        {
          "pitch": 52,
          "onset": 434.3438,
          "duration": 0.3438,
          "velocity": 100
        },
        {
          "pitch": 53,
          "onset": 434.6562,
          "duration": 0.3438,
          "velocity": 100
        },
        {
          "pitch": 55,
          "onset": 435.0,
          "duration": 0.3438,
          "velocity": 100
        },
        {
          "pitch": 53,
          "onset": 435.3438,
          "duration": 0.3438,
          "velocity": 100
        },
        {
          "pitch": 52,
          "onset": 435.6562,
          "duration": 0.3125,
          "velocity": 100
        },
        {
          "pitch": 53,
          "onset": 436.0,
          "duration": 0.25,
          "velocity": 100
        },
        {
          "pitch": 51,
          "onset": 436.3438,
          "duration": 0.3438,
          "velocity": 100
        },
        {
          "pitch": 49,
          "onset": 436.6562,
          "duration": 0.3438,
          "velocity": 100
        },
        {
          "pitch": 48,
          "onset": 437.0,
          "duration": 0.3438,
          "velocity": 100
        },
        {
          "pitch": 49,
          "onset": 437.3438,
          "duration": 0.3438,
          "velocity": 100
        },
        {
          "pitch": 51,
          "onset": 437.6562,
          "duration": 0.3438,
          "velocity": 100
        },
        {
          "pitch": 49,
          "onset": 438.0,
          "duration": 0.25,
          "velocity": 100
        },
        {
          "pitch": 52,
          "onset": 438.3438,
          "duration": 0.3438,
          "velocity": 100
        },
        {
          "pitch": 53,
          "onset": 438.6562,
          "duration": 0.3438,
          "velocity": 100
        },
        {
          "pitch": 55,
          "onset": 439.0,
          "duration": 0.3438,
          "velocity": 100
        },
        {
          "pitch": 53,
          "onset": 439.3438,
          "duration": 0.3438,
          "velocity": 100
        },
        {
          "pitch": 52,
          "onset": 439.6562,
          "duration": 0.3125,
          "velocity": 100
        },
        {
          "pitch": 53,
          "onset": 440.0,
          "duration": 0.25,
          "velocity": 100
        },
        {
          "pitch": 48,
          "onset": 440.3438,
          "duration": 0.3438,
          "velocity": 100
        },
        {
          "pitch": 46,
          "onset": 440.6562,
          "duration": 0.3438,
          "velocity": 100
        },
        {
          "pitch": 45,
          "onset": 441.0,
          "duration": 0.3438,
          "velocity": 100
        },
        {
          "pitch": 46,
          "onset": 441.3438,
          "duration": 0.3438,
          "velocity": 100
        },
        {
          "pitch": 48,
          "onset": 441.6562,
          "duration": 0.3438,
          "velocity": 100
        },
        {
          "pitch": 46,
          "onset": 442.0,
          "duration": 0.25,
          "velocity": 100
        },
        {
          "pitch": 52,
          "onset": 442.3438,
          "duration": 0.3438,
          "velocity": 100
        },
        {
          "pitch": 53,
          "onset": 442.6562,
          "duration": 0.3438,
          "velocity": 100
        },
        {
          "pitch": 55,
          "onset": 443.0,
          "duration": 0.3438,
          "velocity": 100
        },
        {
          "pitch": 53,
          "onset": 443.3438,
          "duration": 0.3438,
          "velocity": 100
        },
        {
          "pitch": 52,
          "onset": 443.6562,
          "duration": 0.3125,
          "velocity": 100
        },
        {
          "pitch": 47,
          "onset": 444.0,
          "duration": 0.25,
          "velocity": 100
        },
        {
          "pitch": 53,
          "onset": 444.3438,
          "duration": 0.3438,
          "velocity": 100
        },
        {
          "pitch": 55,
          "onset": 444.6562,
          "duration": 0.3438,
          "velocity": 100
        },
        {
          "pitch": 56,
          "onset": 445.0,
          "duration": 0.3438,
          "velocity": 100
        },
        {
          "pitch": 55,
          "onset": 445.3438,
          "duration": 0.3438,
          "velocity": 100
        },
        {
          "pitch": 53,
          "onset": 445.6562,
          "duration": 0.3438,
          "velocity": 100
        },
        {
          "pitch": 60,
          "onset": 446.0,
          "duration": 0.3438,
          "velocity": 100
        },
        {
          "pitch": 58,
          "onset": 446.3438,
          "duration": 0.3438,
          "velocity": 100
        },
        {
          "pitch": 56,
          "onset": 446.6562,
          "duration": 0.3438,
          "velocity": 100
        },
        {
          "pitch": 55,
          "onset": 447.0,
          "duration": 0.3438,
          "velocity": 100
        },
        {
          "pitch": 53,
          "onset": 447.3438,
          "duration": 0.3438,
          "velocity": 100
        },
        {
          "pitch": 52,
          "onset": 447.6562,
          "duration": 0.3125,
          "velocity": 100
        },
        {
          "pitch": 53,
          "onset": 448.0,
          "duration": 0.3438,
          "velocity": 100
        },
        {
          "pitch": 55,
          "onset": 448.3438,
          "duration": 0.3438,
          "velocity": 100
        },
        {
          "pitch": 56,
          "onset": 448.6562,
          "duration": 0.3438,
          "velocity": 100
        },
        {
          "pitch": 55,
          "onset": 449.0,
          "duration": 0.3438,
          "velocity": 100
        },
        {
          "pitch": 56,
          "onset": 449.3438,
          "duration": 0.3438,
          "velocity": 100
        },
        {
          "pitch": 53,
          "onset": 449.6562,
          "duration": 0.3438,
          "velocity": 100
        },
        {
          "pitch": 59,
          "onset": 450.0,
          "duration": 0.3438,
          "velocity": 100
        },
        {
          "pitch": 60,
          "onset": 450.3438,
          "duration": 0.3438,
          "velocity": 100
        },
        {
          "pitch": 62,
          "onset": 450.6562,
          "duration": 0.3438,
          "velocity": 100
        },
        {
          "pitch": 60,
          "onset": 451.0,
          "duration": 0.3438,
          "velocity": 100
        },
        {
          "pitch": 62,
          "onset": 451.3438,
          "duration": 0.3438,
          "velocity": 100
        },
        {
          "pitch": 59,
          "onset": 451.6562,
          "duration": 0.3125,
          "velocity": 100
        },
        {
          "pitch": 60,
          "onset": 452.0,
          "duration": 0.3438,
          "velocity": 100
        },
        {
          "pitch": 58,
          "onset": 452.3438,
          "duration": 0.3438,
          "velocity": 100
        },
        {
          "pitch": 56,
          "onset": 452.6562,
          "duration": 0.3438,
          "velocity": 100
        },
        {
          "pitch": 55,
          "onset": 453.0,
          "duration": 0.3438,
          "velocity": 100
        },
        {
          "pitch": 53,
          "onset": 453.3438,
          "duration": 0.3438,
          "velocity": 100
        },
        {
          "pitch": 51,
          "onset": 453.6562,
          "duration": 0.3438,
          "velocity": 100
        },
        {
          "pitch": 56,
          "onset": 454.0,
          "duration": 0.3438,
          "velocity": 100
        },
        {
          "pitch": 55,
          "onset": 454.3438,
          "duration": 0.3438,
          "velocity": 96
        },
        {
          "pitch": 53,
          "onset": 454.6562,
          "duration": 0.3438,
          "velocity": 92
        },
        {
          "pitch": 51,
          "onset": 455.0,
          "duration": 0.3438,
          "velocity": 88
        },
        {
          "pitch": 50,
          "onset": 455.3438,
          "duration": 0.3438,
          "velocity": 84
        },
        {
          "pitch": 48,
          "onset": 455.6562,
          "duration": 0.3125,
          "velocity": 80
        },
        {
          "pitch": 47,
          "onset": 456.0,
          "duration": 0.3125,
          "velocity": 80
        },
        {
          "pitch": 48,
          "onset": 456.3438,
          "duration": 0.3125,
          "velocity": 80
        },
        {
          "pitch": 50,
          "onset": 456.6562,
          "duration": 0.3125,
          "velocity": 80
        },
        {
          "pitch": 43,
          "onset": 457.0,
          "duration": 0.3125,
          "velocity": 80
        },
        {
          "pitch": 47,
          "onset": 457.3438,
          "duration": 0.3125,
          "velocity": 80
        },
        {
          "pitch": 50,
          "onset": 457.6562,
          "duration": 0.3125,
          "velocity": 80
        },
        {
          "pitch": 55,
          "onset": 458.0,
          "duration": 0.3438,
          "velocity": 80
        },
        {
          "pitch": 53,
          "onset": 458.3438,
          "duration": 0.3438,
          "velocity": 80
        },
        {
          "pitch": 55,
          "onset": 458.6562,
          "duration": 0.3125,
          "velocity": 80
        },
        {
          "pitch": 56,
          "onset": 459.0,
          "duration": 0.3438,
          "velocity": 80
        },
        {
          "pitch": 55,
          "onset": 459.3438,
          "duration": 0.3438,
          "velocity": 80
        },
        {
          "pitch": 53,
          "onset": 459.6562,
          "duration": 0.3125,
          "velocity": 80
        },
        {
          "pitch": 55,
          "onset": 460.0,
          "duration": 0.3438,
          "velocity": 80
        },
        {
          "pitch": 53,
          "onset": 460.3438,
          "duration": 0.3438,
          "velocity": 80
        },
        {
          "pitch": 51,
          "onset": 460.6562,
          "duration": 0.3438,
          "velocity": 80
        },
        {
          "pitch": 50,
          "onset": 461.0,
          "duration": 0.3438,
          "velocity": 80
        },
        {
          "pitch": 51,
          "onset": 461.3438,
          "duration": 0.3438,
          "velocity": 80
        },
        {
          "pitch": 53,
          "onset": 461.6562,
          "duration": 0.3438,
          "velocity": 80
        },
        {
          "pitch": 51,
          "onset": 462.0,
          "duration": 0.3438,
          "velocity": 80
        },
        {
          "pitch": 50,
          "onset": 462.3438,
          "duration": 0.3438,
          "velocity": 80
        },
        {
          "pitch": 48,
          "onset": 462.6562,
          "duration": 0.3125,
          "velocity": 80
        },
        {
          "pitch": 47,
          "onset": 463.0,
          "duration": 0.3438,
          "velocity": 80
        },
        {
          "pitch": 48,
          "onset": 463.3438,
          "duration": 0.3438,
          "velocity": 80
        },
        {
          "pitch": 50,
          "onset": 463.6562,
          "duration": 0.3438,
          "velocity": 80
        },
        {
          "pitch": 48,
          "onset": 464.0,
          "duration": 1.0,
          "velocity": 80
        },
        {
          "pitch": 51,
          "onset": 466.0,
          "duration": 0.6562,
          "velocity": 100
        },
        {
          "pitch": 55,
          "onset": 466.0,
          "duration": 0.6562,
          "velocity": 100
        },
        {
          "pitch": 60,
          "onset": 467.0,
          "duration": 0.6562,
          "velocity": 100
        },
        {
          "pitch": 56,
          "onset": 468.0,
          "duration": 1.0,
          "velocity": 100
        },
        {
          "pitch": 58,
          "onset": 469.0,
          "duration": 0.5,
          "velocity": 100
        },
        {
          "pitch": 55,
          "onset": 469.5,
          "duration": 0.5,
          "velocity": 100
        },
        {
          "pitch": 56,
          "onset": 470.0,
          "duration": 1.0,
          "velocity": 100
        },
        {
          "pitch": 58,
          "onset": 471.0,
          "duration": 0.5,
          "velocity": 100
        },
        {
          "pitch": 53,
          "onset": 471.5,
          "duration": 0.5,
          "velocity": 100
        },
        {
          "pitch": 55,
          "onset": 472.0,
          "duration": 1.0,
          "velocity": 100
        },
        {
          "pitch": 51,
          "onset": 473.0,
          "duration": 0.5,
          "velocity": 100
        },
        {
          "pitch": 47,
          "onset": 473.5,
          "duration": 0.5,
          "velocity": 100
        },
        {
          "pitch": 48,
          "onset": 474.0,
          "duration": 1.0,
          "velocity": 100
        },
        {
          "pitch": 56,
          "onset": 475.0,
          "duration": 0.5,
          "velocity": 100
        },
        {
          "pitch": 51,
          "onset": 475.5,
          "duration": 0.5,
          "velocity": 100
        },
        {
          "pitch": 53,
          "onset": 476.0,
          "duration": 1.0,
          "velocity": 100
        },
        {
          "pitch": 50,
          "onset": 477.0,
          "duration": 0.5,
          "velocity": 100
        },
        {
          "pitch": 45,
          "onset": 477.5,
          "duration": 0.5,
          "velocity": 100
        },
        {
          "pitch": 47,
          "onset": 478.0,
          "duration": 0.5,
          "velocity": 100
        },
        {
          "pitch": 50,
          "onset": 478.5,
          "duration": 0.5,
          "velocity": 100
        },
        {
          "pitch": 55,
          "onset": 479.0,
          "duration": 0.6562,
          "velocity": 100
        },
        {
          "pitch": 43,
          "onset": 480.0,
          "duration": 1.0,
          "velocity": 100
        },
        {
          "pitch": 51,
          "onset": 480.0,
          "duration": 0.1562,
          "velocity": 100
        },
        {
          "pitch": 53,
          "onset": 480.1562,
          "duration": 0.1562,
          "velocity": 100
        },
        {
          "pitch": 51,
          "onset": 480.3438,
          "duration": 0.1562,
          "velocity": 100
        },
        {
          "pitch": 53,
          "onset": 480.5,
          "duration": 0.1562,
          "velocity": 100
        },
        {
          "pitch": 51,
          "onset": 480.6562,
          "duration": 0.3438,
          "velocity": 100
        },
        {
          "pitch": 50,
          "onset": 481.0,
          "duration": 0.5,
          "velocity": 100
        },
        {
          "pitch": 48,
          "onset": 481.5,
          "duration": 0.5,
          "velocity": 100
        },
        {
          "pitch": 55,
          "onset": 482.0,
          "duration": 0.75,
          "velocity": 100
        },
        {
          "pitch": 60,
          "onset": 483.0,
          "duration": 0.75,
          "velocity": 100
        },
        {
          "pitch": 56,
          "onset": 484.0,
          "duration": 0.75,
          "velocity": 100
        },
        {
          "pitch": 58,
          "onset": 485.0,
          "duration": 0.75,
          "velocity": 100
        },
        {
          "pitch": 56,
          "onset": 486.0,
          "duration": 0.75,
          "velocity": 100
        },
        {
          "pitch": 58,
          "onset": 487.0,
          "duration": 0.75,
          "velocity": 100
        },
        {
          "pitch": 55,
          "onset": 488.0,
          "duration": 0.75,
          "velocity": 100
        },
        {
          "pitch": 56,
          "onset": 489.0,
          "duration": 0.75,
          "velocity": 100
        },
        {
          "pitch": 55,
          "onset": 490.0,
          "duration": 0.75,
          "velocity": 100
        },
        {
          "pitch": 58,
          "onset": 491.0,
          "duration": 0.75,
          "velocity": 100
        },
        {
          "pitch": 60,
          "onset": 492.0,
          "duration": 0.75,
          "velocity": 100
        },
        {
          "pitch": 61,
          "onset": 493.0,
          "duration": 0.75,
          "velocity": 100
        },
        {
          "pitch": 60,
          "onset": 494.0,
          "duration": 0.75,
          "velocity": 100
        },
        {
          "pitch": 63,
          "onset": 495.0,
          "duration": 0.75,
          "velocity": 100
        },
        {
          "pitch": 62,
          "onset": 496.0,
          "duration": 0.75,
          "velocity": 100
        },
        {
          "pitch": 63,
          "onset": 497.0,
          "duration": 0.5,
          "velocity": 100
        },
        {
          "pitch": 62,
          "onset": 497.5,
          "duration": 0.5,
          "velocity": 100
        },
        {
          "pitch": 60,
          "onset": 498.0,
          "duration": 0.5,
          "velocity": 100
        },
        {
          "pitch": 58,
          "onset": 498.5,
          "duration": 0.5,
          "velocity": 100
        },
        {
          "pitch": 57,
          "onset": 499.0,
          "duration": 0.5,
          "velocity": 100
        },
        {
          "pitch": 55,
          "onset": 499.5,
          "duration": 0.5,
          "velocity": 100
        },
        {
          "pitch": 55,
          "onset": 500.0,
          "duration": 1.0,
          "velocity": 100
        },
        {
          "pitch": 57,
          "onset": 500.0,
          "duration": 1.0,
          "velocity": 100
        },
        {
          "pitch": 58,
          "onset": 501.0,
          "duration": 0.5,
          "velocity": 100
        },
        {
          "pitch": 55,
          "onset": 501.5,
          "duration": 0.5,
          "velocity": 100
        },
        {
          "pitch": 57,
          "onset": 502.0,
          "duration": 1.0,
          "velocity": 100
        },
        {
          "pitch": 60,
          "onset": 503.0,
          "duration": 0.5,
          "velocity": 100
        },
        {
          "pitch": 57,
          "onset": 503.5,
          "duration": 0.5,
          "velocity": 100
        },
        {
          "pitch": 58,
          "onset": 504.0,
          "duration": 1.0,
          "velocity": 100
        },
        {
          "pitch": 60,
          "onset": 505.0,
          "duration": 0.5,
          "velocity": 100
        },
        {
          "pitch": 57,
          "onset": 505.5,
          "duration": 0.5,
          "velocity": 100
        },
        {
          "pitch": 55,
          "onset": 506.0,
          "duration": 1.0,
          "velocity": 100
        },
        {
          "pitch": 58,
          "onset": 506.0,
          "duration": 1.0,
          "velocity": 100
        },
        {
          "pitch": 63,
          "onset": 507.0,
          "duration": 0.5,
          "velocity": 100
        },
        {
          "pitch": 60,
          "onset": 507.5,
          "duration": 0.5,
          "velocity": 100
        },
        {
          "pitch": 62,
          "onset": 508.0,
          "duration": 0.6562,
          "velocity": 100
        },
        {
          "pitch": 50,
          "onset": 509.0,
          "duration": 0.6562,
          "velocity": 100
        },
        {
          "pitch": 55,
          "onset": 509.0,
          "duration": 0.6562,
          "velocity": 100
        },
        {
          "pitch": 55,
          "onset": 510.0,
          "duration": 1.0,
          "velocity": 100
        },
        {
          "pitch": 58,
          "onset": 510.0,
          "duration": 0.5,
          "velocity": 100
        },
        {
          "pitch": 57,
          "onset": 510.5,
          "duration": 0.5,
          "velocity": 100
        },
        {
          "pitch": 55,
          "onset": 511.0,
          "duration": 0.5,
          "velocity": 100
        },
        {
          "pitch": 54,
          "onset": 511.5,
          "duration": 0.5,
          "velocity": 100
        },
        {
          "pitch": 50,
          "onset": 512.0,
          "duration": 1.5,
          "velocity": 100
        },
        {
          "pitch": 55,
          "onset": 512.0,
          "duration": 1.5,
          "velocity": 100
        },
        {
          "pitch": 50,
          "onset": 514.0,
          "duration": 0.6562,
          "velocity": 100
        },
        {
          "pitch": 58,
          "onset": 514.0,
          "duration": 0.6562,
          "velocity": 100
        },
        {
          "pitch": 55,
          "onset": 515.0,
          "duration": 0.6562,
          "velocity": 100
        },
        {
          "pitch": 43,
          "onset": 516.0,
          "duration": 1.0,
          "velocity": 100
        },
        {
          "pitch": 52,
          "onset": 516.0,
          "duration": 1.0,
          "velocity": 100
        },
        {
          "pitch": 53,
          "onset": 517.0,
          "duration": 0.5,
          "velocity": 100
        },
        {
          "pitch": 50,
          "onset": 517.5,
          "duration": 0.5,
          "velocity": 100
        },
        {
          "pitch": 46,
          "onset": 518.0,
          "duration": 1.0,
          "velocity": 100
        },
        {
          "pitch": 52,
          "onset": 518.0,
          "duration": 1.0,
          "velocity": 100
        },
        {
          "pitch": 60,
          "onset": 519.0,
          "duration": 0.5,
          "velocity": 100
        },
        {
          "pitch": 52,
          "onset": 519.5,
          "duration": 0.5,
          "velocity": 100
        },
        {
          "pitch": 53,
          "onset": 520.0,
          "duration": 1.0,
          "velocity": 100
        },
        {
          "pitch": 55,
          "onset": 521.0,
          "duration": 0.5,
          "velocity": 100
        },
        {
          "pitch": 52,
          "onset": 521.5,
          "duration": 0.5,
          "velocity": 100
        },
        {
          "pitch": 53,
          "onset": 522.0,
          "duration": 1.0,
          "velocity": 100
        },
        {
          "pitch": 60,
          "onset": 523.0,
          "duration": 0.5,
          "velocity": 100
        },
        {
          "pitch": 53,
          "onset": 523.5,
          "duration": 0.5,
          "velocity": 100
        },
        {
          "pitch": 55,
          "onset": 524.0,
          "duration": 1.0,
          "velocity": 100
        },
        {
          "pitch": 56,
          "onset": 525.0,
          "duration": 0.5,
          "velocity": 100
        },
        {
          "pitch": 53,
          "onset": 525.5,
          "duration": 0.5,
          "velocity": 100
        },
        {
          "pitch": 52,
          "onset": 526.0,
          "duration": 1.0,
          "velocity": 100
        },
        {
          "pitch": 55,
          "onset": 526.0,
          "duration": 1.0,
          "velocity": 100
        },
        {
          "pitch": 60,
          "onset": 527.0,
          "duration": 0.5,
          "velocity": 100
        },
        {
          "pitch": 55,
          "onset": 527.5,
          "duration": 0.5,
          "velocity": 100
        },
        {
          "pitch": 58,
          "onset": 528.0,
          "duration": 0.5,
          "velocity": 100
        },
        {
          "pitch": 56,
          "onset": 528.5,
          "duration": 0.5,
          "velocity": 100
        },
        {
          "pitch": 55,
          "onset": 529.0,
          "duration": 0.5,
          "velocity": 100
        },
        {
          "pitch": 53,
          "onset": 529.5,
          "duration": 0.5,
          "velocity": 100
        },
        {
          "pitch": 56,
          "onset": 530.0,
          "duration": 0.5,
          "velocity": 100
        },
        {
          "pitch": 55,
          "onset": 530.5,
          "duration": 0.5,
          "velocity": 100
        },
        {
          "pitch": 53,
          "onset": 531.0,
          "duration": 0.5,
          "velocity": 100
        },
        {
          "pitch": 51,
          "onset": 531.5,
          "duration": 0.5,
          "velocity": 100
        },
        {
          "pitch": 50,
          "onset": 532.0,
          "duration": 0.75,
          "velocity": 100
        },
        {
          "pitch": 51,
          "onset": 533.0,
          "duration": 0.75,
          "velocity": 100
        },
        {
          "pitch": 50,
          "onset": 534.0,
          "duration": 0.75,
          "velocity": 100
        },
        {
          "pitch": 58,
          "onset": 535.0,
          "duration": 0.75,
          "velocity": 100
        },
        {
          "pitch": 51,
          "onset": 536.0,
          "duration": 0.75,
          "velocity": 100
        },
        {
          "pitch": 53,
          "onset": 537.0,
          "duration": 0.75,
          "velocity": 100
        },
        {
          "pitch": 51,
          "onset": 538.0,
          "duration": 0.75,
          "velocity": 100
        },
        {
          "pitch": 58,
          "onset": 539.0,
          "duration": 0.75,
          "velocity": 100
        },
        {
          "pitch": 53,
          "onset": 540.0,
          "duration": 0.75,
          "velocity": 100
        },
        {
          "pitch": 55,
          "onset": 541.0,
          "duration": 0.75,
          "velocity": 100
        },
        {
          "pitch": 53,
          "onset": 542.0,
          "duration": 0.75,
          "velocity": 100
        },
        {
          "pitch": 58,
          "onset": 543.0,
          "duration": 0.75,
          "velocity": 100
        },
        {
          "pitch": 56,
          "onset": 544.0,
          "duration": 0.5,
          "velocity": 100
        },
        {
          "pitch": 55,
          "onset": 544.5,
          "duration": 0.5,
          "velocity": 100
        },
        {
          "pitch": 53,
          "onset": 545.0,
          "duration": 0.5,
          "velocity": 100
        },
        {
          "pitch": 51,
          "onset": 545.5,
          "duration": 0.5,
          "velocity": 100
        },
        {
          "pitch": 51,
          "onset": 546.0,
          "duration": 0.6562,
          "velocity": 100
        },
        {
          "pitch": 56,
          "onset": 546.0,
          "duration": 0.6562,
          "velocity": 100
        },
        {
          "pitch": 51,
          "onset": 547.0,
          "duration": 0.6562,
          "velocity": 100
        },
        {
          "pitch": 55,
          "onset": 547.0,
          "duration": 0.6562,
          "velocity": 100
        },
        {
          "pitch": 53,
          "onset": 548.0,
          "duration": 0.5,
          "velocity": 100
        },
        {
          "pitch": 51,
          "onset": 548.5,
          "duration": 0.5,
          "velocity": 100
        },
        {
          "pitch": 53,
          "onset": 549.0,
          "duration": 0.5,
          "velocity": 100
        },
        {
          "pitch": 50,
          "onset": 549.5,
          "duration": 0.5,
          "velocity": 100
        },
        {
          "pitch": 51,
          "onset": 550.0,
          "duration": 0.6562,
          "velocity": 100
        },
        {
          "pitch": 60,
          "onset": 550.0,
          "duration": 0.6562,
          "velocity": 100
        },
        {
          "pitch": 51,
          "onset": 551.0,
          "duration": 0.6562,
          "velocity": 100
        },
        {
          "pitch": 58,
          "onset": 551.0,
          "duration": 0.6562,
          "velocity": 100
        },
        {
          "pitch": 44,
          "onset": 552.0,
          "duration": 1.0,
          "velocity": 100
        },
        {
          "pitch": 51,
          "onset": 552.0,
          "duration": 0.5,
          "velocity": 100
        },
        {
          "pitch": 50,
          "onset": 552.5,
          "duration": 0.5,
          "velocity": 100
        },
        {
          "pitch": 51,
          "onset": 553.0,
          "duration": 0.5,
          "velocity": 100
        },
        {
          "pitch": 48,
          "onset": 553.5,
          "duration": 0.5,
          "velocity": 100
        },
        {
          "pitch": 44,
          "onset": 554.0,
          "duration": 0.6562,
          "velocity": 100
        },
        {
          "pitch": 50,
          "onset": 554.0,
          "duration": 0.6562,
          "velocity": 100
        },
        {
          "pitch": 56,
          "onset": 555.0,
          "duration": 1.0,
          "velocity": 100
        },
        {
          "pitch": 56,
          "onset": 556.0,
          "duration": 0.5,
          "velocity": 100
        },
        {
          "pitch": 53,
          "onset": 556.5,
          "duration": 0.5,
          "velocity": 100
        },
        {
          "pitch": 55,
          "onset": 557.0,
          "duration": 0.5,
          "velocity": 100
        },
        {
          "pitch": 51,
          "onset": 557.5,
          "duration": 0.5,
          "velocity": 100
        },
        {
          "pitch": 55,
          "onset": 558.0,
          "duration": 0.5,
          "velocity": 100
        },
        {
          "pitch": 53,
          "onset": 558.5,
          "duration": 0.5,
          "velocity": 100
        },
        {
          "pitch": 51,
          "onset": 559.0,
          "duration": 0.5,
          "velocity": 100
        },
        {
          "pitch": 50,
          "onset": 559.5,
          "duration": 0.5,
          "velocity": 100
        },
        {
          "pitch": 46,
          "onset": 560.0,
          "duration": 1.5,
          "velocity": 100
        },
        {
          "pitch": 51,
          "onset": 560.0,
          "duration": 1.5,
          "velocity": 100
        },
        {
          "pitch": 46,
          "onset": 562.0,
          "duration": 0.6562,
          "velocity": 100
        },
        {
          "pitch": 55,
          "onset": 562.0,
          "duration": 0.6562,
          "velocity": 100
        },
        {
          "pitch": 51,
          "onset": 563.0,
          "duration": 0.6562,
          "velocity": 100
        },
        {
          "pitch": 58,
          "onset": 564.0,
          "duration": 1.0,
          "velocity": 100
        },
        {
          "pitch": 60,
          "onset": 565.0,
          "duration": 0.5,
          "velocity": 100
        },
        {
          "pitch": 57,
          "onset": 565.5,
          "duration": 0.5,
          "velocity": 100
        },
        {
          "pitch": 58,
          "onset": 566.0,
          "duration": 1.0,
          "velocity": 100
        },
        {
          "pitch": 60,
          "onset": 567.0,
          "duration": 0.5,
          "velocity": 100
        },
        {
          "pitch": 55,
          "onset": 567.5,
          "duration": 0.5,
          "velocity": 100
        },
        {
          "pitch": 58,
          "onset": 568.0,
          "duration": 0.5,
          "velocity": 100
        },
        {
          "pitch": 57,
          "onset": 568.5,
          "duration": 0.5,
          "velocity": 100
        },
        {
          "pitch": 55,
          "onset": 569.0,
          "duration": 0.5,
          "velocity": 100
        },
        {
          "pitch": 53,
          "onset": 569.5,
          "duration": 0.5,
          "velocity": 100
        },
        {
          "pitch": 57,
          "onset": 570.0,
          "duration": 0.5,
          "velocity": 100
        },
        {
          "pitch": 55,
          "onset": 570.5,
          "duration": 0.5,
          "velocity": 100
        },
        {
          "pitch": 59,
          "onset": 571.0,
          "duration": 0.5,
          "velocity": 100
        },
        {
          "pitch": 57,
          "onset": 571.5,
          "duration": 0.5,
          "velocity": 100
        },
        {
          "pitch": 60,
          "onset": 572.0,
          "duration": 0.5,
          "velocity": 100
        },
        {
          "pitch": 59,
          "onset": 572.5,
          "duration": 0.5,
          "velocity": 100
        },
        {
          "pitch": 62,
          "onset": 573.0,
          "duration": 0.5,
          "velocity": 100
        },
        {
          "pitch": 59,
          "onset": 573.5,
          "duration": 0.5,
          "velocity": 100
        },
        {
          "pitch": 60,
          "onset": 574.0,
          "duration": 0.5,
          "velocity": 100
        },
        {
          "pitch": 50,
          "onset": 576.5,
          "duration": 0.5,
          "velocity": 100
        },
        {
          "pitch": 60,
          "onset": 577.0,
          "duration": 0.5,
          "velocity": 100
        },
        {
          "pitch": 59,
          "onset": 577.5,
          "duration": 0.5,
          "velocity": 100
        },
        {
          "pitch": 63,
          "onset": 578.0,
          "duration": 0.75,
          "velocity": 100
        },
        {
          "pitch": 62,
          "onset": 580.0,
          "duration": 0.75,
          "velocity": 100
        },
        {
          "pitch": 60,
          "onset": 582.0,
          "duration": 0.75,
          "velocity": 100
        },
        {
          "pitch": 50,
          "onset": 584.0,
          "duration": 2.0,
          "velocity": 100
        },
        {
          "pitch": 60,
          "onset": 584.0,
          "duration": 0.5,
          "velocity": 100
        },
        {
          "pitch": 59,
          "onset": 584.5,
          "duration": 0.5,
          "velocity": 100
        },
        {
          "pitch": 57,
          "onset": 585.0,
          "duration": 0.5,
          "velocity": 100
        },
        {
          "pitch": 55,
          "onset": 585.5,
          "duration": 0.5,
          "velocity": 100
        },
        {
          "pitch": 60,
          "onset": 586.0,
          "duration": 0.75,
          "velocity": 100
        },
        {
          "pitch": 58,
          "onset": 588.0,
          "duration": 0.75,
          "velocity": 100
        },
        {
          "pitch": 56,
          "onset": 590.0,
          "duration": 0.75,
          "velocity": 100
        },
        {
          "pitch": 50,
          "onset": 592.0,
          "duration": 0.5,
          "velocity": 100
        },
        {
          "pitch": 55,
          "onset": 592.0,
          "duration": 0.5,
          "velocity": 100
        },
        {
          "pitch": 53,
          "onset": 592.5,
          "duration": 0.5,
          "velocity": 100
        },
        {
          "pitch": 51,
          "onset": 593.0,
          "duration": 0.5,
          "velocity": 100
        },
        {
          "pitch": 50,
          "onset": 593.5,
          "duration": 0.5,
          "velocity": 100
        },
        {
          "pitch": 48,
          "onset": 594.0,
          "duration": 1.0,
          "velocity": 100
        },
        {
          "pitch": 51,
          "onset": 595.0,
          "duration": 0.5,
          "velocity": 100
        },
        {
          "pitch": 48,
          "onset": 595.5,
          "duration": 0.5,
          "velocity": 100
        },
        {
          "pitch": 48,
          "onset": 596.0,
          "duration": 1.0,
          "velocity": 100
        },
        {
          "pitch": 50,
          "onset": 596.0,
          "duration": 1.0,
          "velocity": 100
        },
        {
          "pitch": 51,
          "onset": 597.0,
          "duration": 0.5,
          "velocity": 100
        },
        {
          "pitch": 48,
          "onset": 597.5,
          "duration": 0.5,
          "velocity": 100
        },
        {
          "pitch": 50,
          "onset": 598.0,
          "duration": 1.0,
          "velocity": 100
        },
        {
          "pitch": 53,
          "onset": 599.0,
          "duration": 0.5,
          "velocity": 100
        },
        {
          "pitch": 50,
          "onset": 599.5,
          "duration": 0.5,
          "velocity": 100
        },
        {
          "pitch": 51,
          "onset": 600.0,
          "duration": 1.0,
          "velocity": 100
        },
        {
          "pitch": 53,
          "onset": 601.0,
          "duration": 0.5,
          "velocity": 100
        },
        {
          "pitch": 50,
          "onset": 601.5,
          "duration": 0.5,
          "velocity": 100
        },
        {
          "pitch": 48,
          "onset": 602.0,
          "duration": 1.0,
          "velocity": 100
        },
        {
          "pitch": 51,
          "onset": 602.0,
          "duration": 1.0,
          "velocity": 100
        },
        {
          "pitch": 56,
          "onset": 603.0,
          "duration": 0.5,
          "velocity": 100
        },
        {
          "pitch": 53,
          "onset": 603.5,
          "duration": 0.5,
          "velocity": 100
        },
        {
          "pitch": 55,
          "onset": 604.0,
          "duration": 0.6562,
          "velocity": 100
        },
        {
          "pitch": 48,
          "onset": 605.0,
          "duration": 0.6562,
          "velocity": 100
        },
        {
          "pitch": 48,
          "onset": 606.0,
          "duration": 0.5,
          "velocity": 100
        },
        {
          "pitch": 51,
          "onset": 606.0,
          "duration": 0.5,
          "velocity": 100
        },
        {
          "pitch": 50,
          "onset": 606.5,
          "duration": 0.75,
          "velocity": 100
        },
        {
          "pitch": 47,
          "onset": 607.5,
          "duration": 1.0,
          "velocity": 100
        },
        {
          "pitch": 48,
          "onset": 608.5,
          "duration": 6.5,
          "velocity": 100
        },
        {
          "pitch": 48,
          "onset": 618.5,
          "duration": 0.25,
          "velocity": 1
        }
      ]
    },
    {
      "role": "solo_1",
      "notes": [
        {
          "pitch": 48,
          "onset": 0.0,
          "duration": 0.25,
          "velocity": 1
        },
        {
          "pitch": 48,
          "onset": 2.0,
          "duration": 0.5,
          "velocity": 100
        },
        {
          "pitch": 53,
          "onset": 4.0,
          "duration": 1.0,
          "velocity": 100
        },
        {
          "pitch": 50,
          "onset": 6.0,
          "duration": 1.0,
          "velocity": 100
        },
        {
          "pitch": 36,
          "onset": 16.0,
          "duration": 0.75,
          "velocity": 100
        },
        {
          "pitch": 51,
          "onset": 18.5,
          "duration": 0.75,
          "velocity": 100
        },
        {
          "pitch": 55,
          "onset": 19.5,
          "duration": 0.5,
          "velocity": 100
        },
        {
          "pitch": 53,
          "onset": 20.5,
          "duration": 0.75,
          "velocity": 100
        },
        {
          "pitch": 52,
          "onset": 21.5,
          "duration": 0.5,
          "velocity": 100
        },
        {
          "pitch": 53,
          "onset": 22.5,
          "duration": 0.75,
          "velocity": 100
        },
        {
          "pitch": 50,
          "onset": 23.5,
          "duration": 0.5,
          "velocity": 100
        },
        {
          "pitch": 51,
          "onset": 24.5,
          "duration": 0.75,
          "velocity": 100
        },
        {
          "pitch": 50,
          "onset": 25.5,
          "duration": 0.5,
          "velocity": 100
        },
        {
          "pitch": 51,
          "onset": 26.5,
          "duration": 0.75,
          "velocity": 100
        },
        {
          "pitch": 55,
          "onset": 27.5,
          "duration": 0.5,
          "velocity": 100
        },
        {
          "pitch": 56,
          "onset": 28.5,
          "duration": 0.75,
          "velocity": 100
        },
        {
          "pitch": 55,
          "onset": 29.5,
          "duration": 0.5,
          "velocity": 100
        },
        {
          "pitch": 56,
          "onset": 30.5,
          "duration": 0.75,
          "velocity": 100
        },
        {
          "pitch": 57,
          "onset": 31.5,
          "duration": 0.5,
          "velocity": 100
        },
        {
          "pitch": 58,
          "onset": 32.5,
          "duration": 0.75,
          "velocity": 100
        },
        {
          "pitch": 48,
          "onset": 36.0,
          "duration": 0.5,
          "velocity": 100
        },
        {
          "pitch": 51,
          "onset": 38.0,
          "duration": 1.0,
          "velocity": 100
        },
        {
          "pitch": 50,
          "onset": 40.0,
          "duration": 1.0,
          "velocity": 100
        },
        {
          "pitch": 46,
          "onset": 45.0,
          "duration": 0.6562,
          "velocity": 100
        },
        {
          "pitch": 48,
          "onset": 46.0,
          "duration": 0.6562,
          "velocity": 100
        },
        {
          "pitch": 50,
          "onset": 47.0,
          "duration": 0.5,
          "velocity": 100
        },
        {
          "pitch": 43,
          "onset": 48.0,
          "duration": 0.75,
          "velocity": 100
        },
        {
          "pitch": 48,
          "onset": 50.0,
          "duration": 0.5,
          "velocity": 100
        },
        {
          "pitch": 53,
          "onset": 52.0,
          "duration": 1.0,
          "velocity": 100
        },
        {
          "pitch": 50,
          "onset": 54.0,
          "duration": 1.0,
          "velocity": 100
        },
        {
          "pitch": 36,
          "onset": 64.0,
          "duration": 0.75,
          "velocity": 100
        },
        {
          "pitch": 51,
          "onset": 66.5,
          "duration": 0.75,
          "velocity": 100
        },
        {
          "pitch": 55,
          "onset": 67.5,
          "duration": 0.5,
          "velocity": 100
        },
        {
          "pitch": 53,
          "onset": 68.5,
          "duration": 0.75,
          "velocity": 100
        },
        {
          "pitch": 52,
          "onset": 69.5,
          "duration": 0.5,
          "velocity": 100
        },
        {
          "pitch": 53,
          "onset": 70.5,
          "duration": 0.75,
          "velocity": 100
        },
        {
          "pitch": 50,
          "onset": 71.5,
          "duration": 0.5,
          "velocity": 100
        },
        {
          "pitch": 51,
          "onset": 72.5,
          "duration": 0.75,
          "velocity": 100
        },
        {
          "pitch": 50,
          "onset": 73.5,
          "duration": 0.5,
          "velocity": 100
        },
        {
          "pitch": 51,
          "onset": 74.5,
          "duration": 0.75,
          "velocity": 100
        },
        {
          "pitch": 55,
          "onset": 75.5,
          "duration": 0.5,
          "velocity": 100
        },
        {
          "pitch": 56,
          "onset": 76.5,
          "duration": 0.75,
          "velocity": 100
        },
        {
          "pitch": 55,
          "onset": 77.5,
          "duration": 0.5,
          "velocity": 100
        },
        {
          "pitch": 56,
          "onset": 78.5,
          "duration": 0.75,
          "velocity": 100
        },
        {
          "pitch": 57,
          "onset": 79.5,
          "duration": 0.5,
          "velocity": 100
        },
        {
          "pitch": 58,
          "onset": 80.5,
          "duration": 0.75,
          "velocity": 100
        },
        {
          "pitch": 48,
          "onset": 84.0,
          "duration": 0.5,
          "velocity": 100
        },
        {
          "pitch": 51,
          "onset": 86.0,
          "duration": 1.0,
          "velocity": 100
        },
        {
          "pitch": 50,
          "onset": 88.0,
          "duration": 1.0,
          "velocity": 100
        },
        {
          "pitch": 46,
          "onset": 93.0,
          "duration": 0.6562,
          "velocity": 100
        },
        {
          "pitch": 48,
          "onset": 94.0,
          "duration": 0.6562,
          "velocity": 100
        },
        {
          "pitch": 50,
          "onset": 95.0,
          "duration": 0.5,
          "velocity": 100
        },
        {
          "pitch": 43,
          "onset": 96.0,
          "duration": 0.75,
          "velocity": 100
        },
        {
          "pitch": 43,
          "onset": 98.0,
          "duration": 0.5,
          "velocity": 100
        },
        {
          "pitch": 36,
          "onset": 100.0,
          "duration": 0.5,
          "velocity": 100
        },
        {
          "pitch": 44,
          "onset": 104.0,
          "duration": 1.0,
          "velocity": 100
        },
        {
          "pitch": 52,
          "onset": 108.0,
          "duration": 1.0,
          "velocity": 100
        },
        {
          "pitch": 48,
          "onset": 110.0,
          "duration": 0.5,
          "velocity": 100
        },
        {
          "pitch": 53,
          "onset": 112.0,
          "duration": 1.0,
          "velocity": 100
        },
        {
          "pitch": 44,
          "onset": 116.5,
          "duration": 0.75,
          "velocity": 100
        },
        {
          "pitch": 48,
          "onset": 117.5,
          "duration": 0.5,
          "velocity": 100
        },
        {
          "pitch": 44,
          "onset": 118.5,
          "duration": 0.75,
          "velocity": 100
        },
        {
          "pitch": 50,
          "onset": 119.5,
          "duration": 0.5,
          "velocity": 100
        },
        {
          "pitch": 43,
          "onset": 120.5,
          "duration": 0.75,
          "velocity": 100
        },
        {
          "pitch": 50,
          "onset": 121.5,
          "duration": 0.5,
          "velocity": 100
        },
        {
          "pitch": 43,
          "onset": 122.5,
          "duration": 0.75,
          "velocity": 100
        },
        {
          "pitch": 51,
          "onset": 123.5,
          "duration": 0.5,
          "velocity": 100
        },
        {
          "pitch": 46,
          "onset": 124.5,
          "duration": 0.75,
          "velocity": 100
        },
        {
          "pitch": 51,
          "onset": 125.5,
          "duration": 0.5,
          "velocity": 100
        },
        {
          "pitch": 46,
          "onset": 126.5,
          "duration": 0.75,
          "velocity": 100
        },
        {
          "pitch": 53,
          "onset": 127.5,
          "duration": 0.5,
          "velocity": 100
        },
        {
          "pitch": 48,
          "onset": 130.0,
          "duration": 0.5,
          "velocity": 100
        },
        {
          "pitch": 46,
          "onset": 131.0,
          "duration": 0.5,
          "velocity": 100
        },
        {
          "pitch": 44,
          "onset": 132.0,
          "duration": 1.0,
          "velocity": 100
        },
        {
          "pitch": 44,
          "onset": 134.0,
          "duration": 0.5,
          "velocity": 100
        },
        {
          "pitch": 43,
          "onset": 135.0,
          "duration": 0.5,
          "velocity": 100
        },
        {
          "pitch": 41,
          "onset": 136.0,
          "duration": 0.5,
          "velocity": 100
        },
        {
          "pitch": 41,
          "onset": 138.0,
          "duration": 0.5,
          "velocity": 100
        },
        {
          "pitch": 50,
          "onset": 139.0,
          "duration": 1.0,
          "velocity": 100
        },
        {
          "pitch": 51,
          "onset": 140.0,
          "duration": 0.5,
          "velocity": 100
        },
        {
          "pitch": 46,
          "onset": 142.0,
          "duration": 0.5,
          "velocity": 100
        },
        {
          "pitch": 39,
          "onset": 144.0,
          "duration": 0.75,
          "velocity": 100
        },
        {
          "pitch": 39,
          "onset": 146.0,
          "duration": 0.6562,
          "velocity": 100
        },
        {
          "pitch": 50,
          "onset": 148.0,
          "duration": 1.0,
          "velocity": 100
        },
        {
          "pitch": 52,
          "onset": 151.0,
          "duration": 1.0,
          "velocity": 100
        },
        {
          "pitch": 53,
          "onset": 152.0,
          "duration": 1.0,
          "velocity": 100
        },
        {
          "pitch": 53,
          "onset": 154.0,
          "duration": 1.0,
          "velocity": 100
        },
        {
          "pitch": 54,
          "onset": 156.0,
          "duration": 1.0,
          "velocity": 100
        },
        {
          "pitch": 51,
          "onset": 158.5,
          "duration": 0.5,
          "velocity": 100
        },
        {
          "pitch": 50,
          "onset": 159.0,
          "duration": 0.5,
          "velocity": 100
        },
        {
          "pitch": 48,
          "onset": 159.5,
          "duration": 0.5,
          "velocity": 100
        },
        {
          "pitch": 43,
          "onset": 160.0,
          "duration": 0.75,
          "velocity": 100
        },
        {
          "pitch": 55,
          "onset": 162.5,
          "duration": 0.5,
          "velocity": 100
        },
        {
          "pitch": 56,
          "onset": 163.0,
          "duration": 0.5,
          "velocity": 100
        },
        {
          "pitch": 53,
          "onset": 163.5,
          "duration": 0.5,
          "velocity": 100
        },
        {
          "pitch": 53,
          "onset": 164.5,
          "duration": 0.5,
          "velocity": 100
        },
        {
          "pitch": 55,
          "onset": 165.0,
          "duration": 0.5,
          "velocity": 100
        },
        {
          "pitch": 51,
          "onset": 165.5,
          "duration": 0.5,
          "velocity": 100
        },
        {
          "pitch": 51,
          "onset": 166.5,
          "duration": 0.5,
          "velocity": 100
        },
        {
          "pitch": 53,
          "onset": 167.0,
          "duration": 0.5,
          "velocity": 100
        },
        {
          "pitch": 50,
          "onset": 167.5,
          "duration": 0.5,
          "velocity": 100
        },
        {
          "pitch": 43,
          "onset": 168.0,
          "duration": 0.75,
          "velocity": 100
        },
        {
          "pitch": 51,
          "onset": 170.5,
          "duration": 0.5,
          "velocity": 100
        },
        {
          "pitch": 53,
          "onset": 171.0,
          "duration": 0.5,
          "velocity": 100
        },
        {
          "pitch": 50,
          "onset": 171.5,
          "duration": 0.5,
          "velocity": 100
        },
        {
          "pitch": 50,
          "onset": 172.5,
          "duration": 0.5,
          "velocity": 100
        },
        {
          "pitch": 51,
          "onset": 173.0,
          "duration": 0.5,
          "velocity": 100
        },
        {
          "pitch": 48,
          "onset": 173.5,
          "duration": 0.5,
          "velocity": 100
        },
        {
          "pitch": 48,
          "onset": 174.5,
          "duration": 0.5,
          "velocity": 100
        },
        {
          "pitch": 50,
          "onset": 175.0,
          "duration": 0.5,
          "velocity": 100
        },
        {
          "pitch": 47,
          "onset": 175.5,
          "duration": 0.5,
          "velocity": 100
        },
        {
          "pitch": 41,
          "onset": 176.0,
          "duration": 0.5,
          "velocity": 100
        },
        {
          "pitch": 47,
          "onset": 176.0,
          "duration": 0.5,
          "velocity": 100
        },
        {
          "pitch": 39,
          "onset": 178.0,
          "duration": 1.0,
          "velocity": 100
        },
        {
          "pitch": 41,
          "onset": 180.0,
          "duration": 0.5,
          "velocity": 100
        },
        {
          "pitch": 44,
          "onset": 182.0,
          "duration": 1.0,
          "velocity": 100
        },
        {
          "pitch": 43,
          "onset": 184.0,
          "duration": 1.0,
          "velocity": 100
        },
        {
          "pitch": 41,
          "onset": 186.0,
          "duration": 0.5,
          "velocity": 100
        },
        {
          "pitch": 39,
          "onset": 189.0,
          "duration": 0.6562,
          "velocity": 100
        },
        {
          "pitch": 41,
          "onset": 190.0,
          "duration": 0.5,
          "velocity": 100
        },
        {
          "pitch": 43,
          "onset": 191.0,
          "duration": 0.75,
          "velocity": 100
        },
        {
          "pitch": 36,
          "onset": 192.0,
          "duration": 1.5,
          "velocity": 100
        },
        {
          "pitch": 43,
          "onset": 194.0,
          "duration": 0.5,
          "velocity": 100
        },
        {
          "pitch": 36,
          "onset": 196.0,
          "duration": 0.5,
          "velocity": 100
        },
        {
          "pitch": 44,
          "onset": 200.0,
          "duration": 1.0,
          "velocity": 100
        },
        {
          "pitch": 52,
          "onset": 204.0,
          "duration": 1.0,
          "velocity": 100
        },
        {
          "pitch": 48,
          "onset": 206.0,
          "duration": 0.5,
          "velocity": 100
        },
        {
          "pitch": 53,
          "onset": 208.0,
          "duration": 1.0,
          "velocity": 100
        },
        {
          "pitch": 44,
          "onset": 212.5,
          "duration": 0.75,
          "velocity": 100
        },
        {
          "pitch": 48,
          "onset": 213.5,
          "duration": 0.5,
          "velocity": 100
        },
        {
          "pitch": 44,
          "onset": 214.5,
          "duration": 0.75,
          "velocity": 100
        },
        {
          "pitch": 50,
          "onset": 215.5,
          "duration": 0.5,
          "velocity": 100
        },
        {
          "pitch": 43,
          "onset": 216.5,
          "duration": 0.75,
          "velocity": 100
        },
        {
          "pitch": 50,
          "onset": 217.5,
          "duration": 0.5,
          "velocity": 100
        },
        {
          "pitch": 43,
          "onset": 218.5,
          "duration": 0.75,
          "velocity": 100
        },
        {
          "pitch": 51,
          "onset": 219.5,
          "duration": 0.5,
          "velocity": 100
        },
        {
          "pitch": 46,
          "onset": 220.5,
          "duration": 0.75,
          "velocity": 100
        },
        {
          "pitch": 51,
          "onset": 221.5,
          "duration": 0.5,
          "velocity": 100
        },
        {
          "pitch": 46,
          "onset": 222.5,
          "duration": 0.75,
          "velocity": 100
        },
        {
          "pitch": 53,
          "onset": 223.5,
          "duration": 0.5,
          "velocity": 100
        },
        {
          "pitch": 48,
          "onset": 226.0,
          "duration": 0.5,
          "velocity": 100
        },
        {
          "pitch": 46,
          "onset": 227.0,
          "duration": 0.5,
          "velocity": 100
        },
        {
          "pitch": 44,
          "onset": 228.0,
          "duration": 1.0,
          "velocity": 100
        },
        {
          "pitch": 44,
          "onset": 230.0,
          "duration": 0.5,
          "velocity": 100
        },
        {
          "pitch": 43,
          "onset": 231.0,
          "duration": 0.5,
          "velocity": 100
        },
        {
          "pitch": 41,
          "onset": 232.0,
          "duration": 0.5,
          "velocity": 100
        },
        {
          "pitch": 41,
          "onset": 234.0,
          "duration": 0.5,
          "velocity": 100
        },
        {
          "pitch": 50,
          "onset": 235.0,
          "duration": 1.0,
          "velocity": 100
        },
        {
          "pitch": 51,
          "onset": 236.0,
          "duration": 0.5,
          "velocity": 100
        },
        {
          "pitch": 46,
          "onset": 238.0,
          "duration": 0.5,
          "velocity": 100
        },
        {
          "pitch": 39,
          "onset": 240.0,
          "duration": 0.75,
          "velocity": 100
        },
        {
          "pitch": 39,
          "onset": 242.0,
          "duration": 0.6562,
          "velocity": 100
        },
        {
          "pitch": 50,
          "onset": 244.0,
          "duration": 1.0,
          "velocity": 100
        },
        {
          "pitch": 52,
          "onset": 247.0,
          "duration": 1.0,
          "velocity": 100
        },
        {
          "pitch": 53,
          "onset": 248.0,
          "duration": 1.0,
          "velocity": 100
        },
        {
          "pitch": 53,
          "onset": 250.0,
          "duration": 1.0,
          "velocity": 100
        },
        {
          "pitch": 54,
          "onset": 252.0,
          "duration": 1.0,
          "velocity": 100
        },
        {
          "pitch": 51,
          "onset": 254.5,
          "duration": 0.5,
          "velocity": 100
        },
        {
          "pitch": 50,
          "onset": 255.0,
          "duration": 0.5,
          "velocity": 100
        },
        {
          "pitch": 48,
          "onset": 255.5,
          "duration": 0.5,
          "velocity": 100
        },
        {
          "pitch": 43,
          "onset": 256.0,
          "duration": 0.75,
          "velocity": 100
        },
        {
          "pitch": 55,
          "onset": 258.5,
          "duration": 0.5,
          "velocity": 100
        },
        {
          "pitch": 56,
          "onset": 259.0,
          "duration": 0.5,
          "velocity": 100
        },
        {
          "pitch": 53,
          "onset": 259.5,
          "duration": 0.5,
          "velocity": 100
        },
        {
          "pitch": 53,
          "onset": 260.5,
          "duration": 0.5,
          "velocity": 100
        },
        {
          "pitch": 55,
          "onset": 261.0,
          "duration": 0.5,
          "velocity": 100
        },
        {
          "pitch": 51,
          "onset": 261.5,
          "duration": 0.5,
          "velocity": 100
        },
        {
          "pitch": 51,
          "onset": 262.5,
          "duration": 0.5,
          "velocity": 100
        },
        {
          "pitch": 53,
          "onset": 263.0,
          "duration": 0.5,
          "velocity": 100
        },
        {
          "pitch": 50,
          "onset": 263.5,
          "duration": 0.5,
          "velocity": 100
        },
        {
          "pitch": 43,
          "onset": 264.0,
          "duration": 0.75,
          "velocity": 100
        },
        {
          "pitch": 51,
          "onset": 266.5,
          "duration": 0.5,
          "velocity": 100
        },
        {
          "pitch": 53,
          "onset": 267.0,
          "duration": 0.5,
          "velocity": 100
        },
        {
          "pitch": 50,
          "onset": 267.5,
          "duration": 0.5,
          "velocity": 100
        },
        {
          "pitch": 50,
          "onset": 268.5,
          "duration": 0.5,
          "velocity": 100
        },
        {
          "pitch": 51,
          "onset": 269.0,
          "duration": 0.5,
          "velocity": 100
        },
        {
          "pitch": 48,
          "onset": 269.5,
          "duration": 0.5,
          "velocity": 100
        },
        {
          "pitch": 48,
          "onset": 270.5,
          "duration": 0.5,
          "velocity": 100
        },
        {
          "pitch": 50,
          "onset": 271.0,
          "duration": 0.5,
          "velocity": 100
        },
        {
          "pitch": 47,
          "onset": 271.5,
          "duration": 0.5,
          "velocity": 100
        },
        {
          "pitch": 41,
          "onset": 272.0,
          "duration": 0.5,
          "velocity": 100
        },
        {
          "pitch": 47,
          "onset": 272.0,
          "duration": 0.5,
          "velocity": 100
        },
        {
          "pitch": 39,
          "onset": 274.0,
          "duration": 1.0,
          "velocity": 100
        },
        {
          "pitch": 41,
          "onset": 276.0,
          "duration": 0.5,
          "velocity": 100
        },
        {
          "pitch": 44,
          "onset": 278.0,
          "duration": 1.0,
          "velocity": 100
        },
        {
          "pitch": 43,
          "onset": 280.0,
          "duration": 1.0,
          "velocity": 100
        },
        {
          "pitch": 41,
          "onset": 282.0,
          "duration": 0.5,
          "velocity": 100
        },
        {
          "pitch": 39,
          "onset": 285.0,
          "duration": 0.6562,
          "velocity": 100
        },
        {
          "pitch": 41,
          "onset": 286.0,
          "duration": 0.5,
          "velocity": 100
        },
        {
          "pitch": 43,
          "onset": 287.0,
          "duration": 0.75,
          "velocity": 100
        },
        {
          "pitch": 36,
          "onset": 288.0,
          "duration": 1.5,
          "velocity": 100
        },
        {
          "pitch": 36,
          "onset": 305.0,
          "duration": 1.0,
          "velocity": 80
        },
        {
          "pitch": 36,
          "onset": 321.0,
          "duration": 1.0,
          "velocity": 80
        },
        {
          "pitch": 55,
          "onset": 336.0,
          "duration": 1.0,
          "velocity": 80
        },
        {
          "pitch": 43,
          "onset": 337.0,
          "duration": 1.0,
          "velocity": 80
        },
        {
          "pitch": 39,
          "onset": 352.6562,
          "duration": 0.3438,
          "velocity": 80
        },
        {
          "pitch": 36,
          "onset": 353.0,
          "duration": 0.3438,
          "velocity": 85
        },
        {
          "pitch": 39,
          "onset": 353.3438,
          "duration": 0.5,
          "velocity": 86
        },
        {
          "pitch": 36,
          "onset": 393.0,
          "duration": 1.0,
          "velocity": 80
        },
        {
          "pitch": 55,
          "onset": 408.0,
          "duration": 1.0,
          "velocity": 80
        },
        {
          "pitch": 43,
          "onset": 409.0,
          "duration": 1.0,
          "velocity": 80
        },
        {
          "pitch": 39,
          "onset": 424.6562,
          "duration": 0.3438,
          "velocity": 80
        },
        {
          "pitch": 36,
          "onset": 425.0,
          "duration": 0.3438,
          "velocity": 85
        },
        {
          "pitch": 39,
          "onset": 425.3438,
          "duration": 0.5,
          "velocity": 86
        },
        {
          "pitch": 36,
          "onset": 465.0,
          "duration": 1.0,
          "velocity": 80
        },
        {
          "pitch": 48,
          "onset": 466.0,
          "duration": 0.5,
          "velocity": 100
        },
        {
          "pitch": 53,
          "onset": 468.0,
          "duration": 1.0,
          "velocity": 100
        },
        {
          "pitch": 50,
          "onset": 470.0,
          "duration": 1.0,
          "velocity": 100
        },
        {
          "pitch": 36,
          "onset": 480.0,
          "duration": 0.75,
          "velocity": 100
        },
        {
          "pitch": 51,
          "onset": 482.5,
          "duration": 0.75,
          "velocity": 100
        },
        {
          "pitch": 55,
          "onset": 483.5,
          "duration": 0.5,
          "velocity": 100
        },
        {
          "pitch": 53,
          "onset": 484.5,
          "duration": 0.75,
          "velocity": 100
        },
        {
          "pitch": 52,
          "onset": 485.5,
          "duration": 0.5,
          "velocity": 100
        },
        {
          "pitch": 53,
          "onset": 486.5,
          "duration": 0.75,
          "velocity": 100
        },
        {
          "pitch": 50,
          "onset": 487.5,
          "duration": 0.5,
          "velocity": 100
        },
        {
          "pitch": 51,
          "onset": 488.5,
          "duration": 0.75,
          "velocity": 100
        },
        {
          "pitch": 50,
          "onset": 489.5,
          "duration": 0.5,
          "velocity": 100
        },
        {
          "pitch": 51,
          "onset": 490.5,
          "duration": 0.75,
          "velocity": 100
        },
        {
          "pitch": 55,
          "onset": 491.5,
          "duration": 0.5,
          "velocity": 100
        },
        {
          "pitch": 56,
          "onset": 492.5,
          "duration": 0.75,
          "velocity": 100
        },
        {
          "pitch": 55,
          "onset": 493.5,
          "duration": 0.5,
          "velocity": 100
        },
        {
          "pitch": 56,
          "onset": 494.5,
          "duration": 0.75,
          "velocity": 100
        },
        {
          "pitch": 57,
          "onset": 495.5,
          "duration": 0.5,
          "velocity": 100
        },
        {
          "pitch": 58,
          "onset": 496.5,
          "duration": 0.75,
          "velocity": 100
        },
        {
          "pitch": 48,
          "onset": 500.0,
          "duration": 0.5,
          "velocity": 100
        },
        {
          "pitch": 51,
          "onset": 502.0,
          "duration": 1.0,
          "velocity": 100
        },
        {
          "pitch": 50,
          "onset": 504.0,
          "duration": 1.0,
          "velocity": 100
        },
        {
          "pitch": 46,
          "onset": 509.0,
          "duration": 0.6562,
          "velocity": 100
        },
        {
          "pitch": 48,
          "onset": 510.0,
          "duration": 0.6562,
          "velocity": 100
        },
        {
          "pitch": 50,
          "onset": 511.0,
          "duration": 0.5,
          "velocity": 100
        },
        {
          "pitch": 43,
          "onset": 512.0,
          "duration": 0.75,
          "velocity": 100
        },
        {
          "pitch": 43,
          "onset": 514.0,
          "duration": 0.5,
          "velocity": 100
        },
        {
          "pitch": 36,
          "onset": 516.0,
          "duration": 0.5,
          "velocity": 100
        },
        {
          "pitch": 44,
          "onset": 520.0,
          "duration": 1.0,
          "velocity": 100
        },
        {
          "pitch": 52,
          "onset": 524.0,
          "duration": 1.0,
          "velocity": 100
        },
        {
          "pitch": 48,
          "onset": 526.0,
          "duration": 0.5,
          "velocity": 100
        },
        {
          "pitch": 53,
          "onset": 528.0,
          "duration": 1.0,
          "velocity": 100
        },
        {
          "pitch": 44,
          "onset": 532.5,
          "duration": 0.75,
          "velocity": 100
        },
        {
          "pitch": 48,
          "onset": 533.5,
          "duration": 0.5,
          "velocity": 100
        },
        {
          "pitch": 44,
          "onset": 534.5,
          "duration": 0.75,
          "velocity": 100
        },
        {
          "pitch": 50,
          "onset": 535.5,
          "duration": 0.5,
          "velocity": 100
        },
        {
          "pitch": 43,
          "onset": 536.5,
          "duration": 0.75,
          "velocity": 100
        },
        {
          "pitch": 50,
          "onset": 537.5,
          "duration": 0.5,
          "velocity": 100
        },
        {
          "pitch": 43,
          "onset": 538.5,
          "duration": 0.75,
          "velocity": 100
        },
        {
          "pitch": 51,
          "onset": 539.5,
          "duration": 0.5,
          "velocity": 100
        },
        {
          "pitch": 46,
          "onset": 540.5,
          "duration": 0.75,
          "velocity": 100
        },
        {
          "pitch": 51,
          "onset": 541.5,
          "duration": 0.5,
          "velocity": 100
        },
        {
          "pitch": 46,
          "onset": 542.5,
          "duration": 0.75,
          "velocity": 100
        },
        {
          "pitch": 53,
          "onset": 543.5,
          "duration": 0.5,
          "velocity": 100
        },
        {
          "pitch": 48,
          "onset": 546.0,
          "duration": 0.5,
          "velocity": 100
        },
        {
          "pitch": 46,
          "onset": 547.0,
          "duration": 0.5,
          "velocity": 100
        },
        {
          "pitch": 44,
          "onset": 548.0,
          "duration": 1.0,
          "velocity": 100
        },
        {
          "pitch": 44,
          "onset": 550.0,
          "duration": 0.5,
          "velocity": 100
        },
        {
          "pitch": 43,
          "onset": 551.0,
          "duration": 0.5,
          "velocity": 100
        },
        {
          "pitch": 41,
          "onset": 552.0,
          "duration": 0.5,
          "velocity": 100
        },
        {
          "pitch": 41,
          "onset": 554.0,
          "duration": 0.5,
          "velocity": 100
        },
        {
          "pitch": 50,
          "onset": 555.0,
          "duration": 1.0,
          "velocity": 100
        },
        {
          "pitch": 51,
          "onset": 556.0,
          "duration": 0.5,
          "velocity": 100
        },
        {
          "pitch": 46,
          "onset": 558.0,
          "duration": 0.5,
          "velocity": 100
        },
        {
          "pitch": 39,
          "onset": 560.0,
          "duration": 0.75,
          "velocity": 100
        },
        {
          "pitch": 39,
          "onset": 562.0,
          "duration": 0.6562,
          "velocity": 100
        },
        {
          "pitch": 50,
          "onset": 564.0,
          "duration": 1.0,
          "velocity": 100
        },
        {
          "pitch": 52,
          "onset": 567.0,
          "duration": 1.0,
          "velocity": 100
        },
        {
          "pitch": 53,
          "onset": 568.0,
          "duration": 1.0,
          "velocity": 100
        },
        {
          "pitch": 53,
          "onset": 570.0,
          "duration": 1.0,
          "velocity": 100
        },
        {
          "pitch": 54,
          "onset": 572.0,
          "duration": 1.0,
          "velocity": 100
        },
        {
          "pitch": 51,
          "onset": 574.5,
          "duration": 0.5,
          "velocity": 100
        },
        {
          "pitch": 50,
          "onset": 575.0,
          "duration": 0.5,
          "velocity": 100
        },
        {
          "pitch": 48,
          "onset": 575.5,
          "duration": 0.5,
          "velocity": 100
        },
        {
          "pitch": 43,
          "onset": 576.0,
          "duration": 0.75,
          "velocity": 100
        },
        {
          "pitch": 55,
          "onset": 578.5,
          "duration": 0.5,
          "velocity": 100
        },
        {
          "pitch": 56,
          "onset": 579.0,
          "duration": 0.5,
          "velocity": 100
        },
        {
          "pitch": 53,
          "onset": 579.5,
          "duration": 0.5,
          "velocity": 100
        },
        {
          "pitch": 53,
          "onset": 580.5,
          "duration": 0.5,
          "velocity": 100
        },
        {
          "pitch": 55,
          "onset": 581.0,
          "duration": 0.5,
          "velocity": 100
        },
        {
          "pitch": 51,
          "onset": 581.5,
          "duration": 0.5,
          "velocity": 100
        },
        {
          "pitch": 51,
          "onset": 582.5,
          "duration": 0.5,
          "velocity": 100
        },
        {
          "pitch": 53,
          "onset": 583.0,
          "duration": 0.5,
          "velocity": 100
        },
        {
          "pitch": 50,
          "onset": 583.5,
          "duration": 0.5,
          "velocity": 100
        },
        {
          "pitch": 43,
          "onset": 584.0,
          "duration": 0.75,
          "velocity": 100
        },
        {
          "pitch": 51,
          "onset": 586.5,
          "duration": 0.5,
          "velocity": 100
        },
        {
          "pitch": 53,
          "onset": 587.0,
          "duration": 0.5,
          "velocity": 100
        },
        {
          "pitch": 50,
          "onset": 587.5,
          "duration": 0.5,
          "velocity": 100
        },
        {
          "pitch": 50,
          "onset": 588.5,
          "duration": 0.5,
          "velocity": 100
        },
        {
          "pitch": 51,
          "onset": 589.0,
          "duration": 0.5,
          "velocity": 100
        },
        {
          "pitch": 48,
          "onset": 589.5,
          "duration": 0.5,
          "velocity": 100
        },
        {
          "pitch": 48,
          "onset": 590.5,
          "duration": 0.5,
          "velocity": 100
        },
        {
          "pitch": 50,
          "onset": 591.0,
          "duration": 0.5,
          "velocity": 100
        },
        {
          "pitch": 47,
          "onset": 591.5,
          "duration": 0.5,
          "velocity": 100
        },
        {
          "pitch": 41,
          "onset": 592.0,
          "duration": 0.5,
          "velocity": 100
        },
        {
          "pitch": 47,
          "onset": 592.0,
          "duration": 0.5,
          "velocity": 100
        },
        {
          "pitch": 39,
          "onset": 594.0,
          "duration": 1.0,
          "velocity": 100
        },
        {
          "pitch": 41,
          "onset": 596.0,
          "duration": 0.5,
          "velocity": 100
        },
        {
          "pitch": 44,
          "onset": 598.0,
          "duration": 1.0,
          "velocity": 100
        },
        {
          "pitch": 43,
          "onset": 600.0,
          "duration": 1.0,
          "velocity": 100
        },
        {
          "pitch": 41,
          "onset": 602.0,
          "duration": 0.5,
          "velocity": 100
        },
        {
          "pitch": 39,
          "onset": 605.0,
          "duration": 0.6562,
          "velocity": 100
        },
        {
          "pitch": 41,
          "onset": 606.0,
          "duration": 0.5,
          "velocity": 100
        },
        {
          "pitch": 43,
          "onset": 607.0,
          "duration": 0.75,
          "velocity": 100
        },
        {
          "pitch": 36,
          "onset": 608.5,
          "duration": 6.5,
          "velocity": 100
        }
      ]
    }
  ]
}