{
  "bwv": 1009,
  "category": "solo_cello_suite",
  "instrument": "cello",
  "form": "",
  "movement": 6,
  "tonic": "C",
  "mode": "major",
  "confidence": "verified",
  "ticks_per_beat": 384,
  "duration_seconds": 204.9,
  "tempos": [
    {
      "tick": 0,
      "bpm": 100
    },
    {
      "tick": 17280,
      "bpm": 100
    },
    {
      "tick": 17664,
      "bpm": 95
    },
    {
      "tick": 17856,
      "bpm": 95
    },
    {
      "tick": 18048,
      "bpm": 90
    },
    {
      "tick": 18240,
      "bpm": 85
    },
    {
      "tick": 18336,
      "bpm": 75
    },
    {
      "tick": 18432,
      "bpm": 95
    },
    {
      "tick": 19008,
      "bpm": 100
    },
    {
      "tick": 27072,
      "bpm": 100
    },
    {
      "tick": 27264,
      "bpm": 95
    },
    {
      "tick": 27456,
      "bpm": 90
    },
    {
      "tick": 28032,
      "bpm": 100
    },
    {
      "tick": 38592,
      "bpm": 100
    },
    {
      "tick": 38784,
      "bpm": 95
    },
    {
      "tick": 38976,
      "bpm": 90
    },
    {
      "tick": 39168,
      "bpm": 95
    },
    {
      "tick": 39744,
      "bpm": 100
    },
    {
      "tick": 45312,
      "bpm": 95
    },
    {
      "tick": 45504,
      "bpm": 90
    },
    {
      "tick": 45696,
      "bpm": 85
    },
    {
      "tick": 45888,
      "bpm": 80
    },
    {
      "tick": 45984,
      "bpm": 70
    },
    {
      "tick": 46080,
      "bpm": 90
    },
    {
      "tick": 46656,
      "bpm": 100
    },
    {
      "tick": 54528,
      "bpm": 95
    },
    {
      "tick": 54720,
      "bpm": 90
    },
    {
      "tick": 54912,
      "bpm": 90
    },
    {
      "tick": 55008,
      "bpm": 85
    },
    {
      "tick": 55680,
      "bpm": 90
    },
    {
      "tick": 55872,
      "bpm": 100
    },
    {
      "tick": 68544,
      "bpm": 100
    },
    {
      "tick": 68736,
      "bpm": 95
    },
    {
      "tick": 68928,
      "bpm": 90
    },
    {
      "tick": 69504,
      "bpm": 100
    },
    {
      "tick": 79872,
      "bpm": 95
    },
    {
      "tick": 80256,
      "bpm": 90
    },
    {
      "tick": 80352,
      "bpm": 85
    },
    {
      "tick": 80448,
      "bpm": 75
    },
    {
      "tick": 81024,
      "bpm": 90
    },
    {
      "tick": 81216,
      "bpm": 100
    },
    {
      "tick": 89280,
      "bpm": 100
    },
    {
      "tick": 89472,
      "bpm": 95
    },
    {
      "tick": 89664,
      "bpm": 90
    },
    {
      "tick": 90240,
      "bpm": 100
    },
    {
      "tick": 103104,
      "bpm": 100
    },
    {
      "tick": 103296,
      "bpm": 95
    },
    {
      "tick": 103488,
      "bpm": 90
    },
    {
      "tick": 104064,
      "bpm": 95
    },
    {
      "tick": 104256,
      "bpm": 100
    },
    {
      "tick": 107712,
      "bpm": 100
    },
    {
      "tick": 107904,
      "bpm": 95
    },
    {
      "tick": 108096,
      "bpm": 90
    },
    {
      "tick": 108864,
      "bpm": 85
    },
    {
      "tick": 108960,
      "bpm": 90
    },
    {
      "tick": 109056,
      "bpm": 95
    },
    {
      "tick": 109152,
      "bpm": 100
    },
    {
      "tick": 114048,
      "bpm": 100
    },
    {
      "tick": 114432,
      "bpm": 95
    },
    {
      "tick": 114624,
      "bpm": 95
    },
    {
      "tick": 114816,
      "bpm": 90
    },
    {
      "tick": 114912,
      "bpm": 85
    },
    {
      "tick": 115584,
      "bpm": 95
    },
    {
      "tick": 120000,
      "bpm": 95
    },
    {
      "tick": 123264,
      "bpm": 95
    },
    {
      "tick": 123456,
      "bpm": 90
    },
    {
      "tick": 123840,
      "bpm": 85
    },
    {
      "tick": 124032,
      "bpm": 75
    },
    {
      "tick": 124224,
      "bpm": 50
    }
  ],
  "time_signatures": [
    {
      "tick": 0,
      "numerator": 3,
      "denominator": 8
    }
  ],
  "track_type": "solo_string",
  "voice_count": 2,
  "total_notes": 1056,
  "tracks": [
    {
      "role": "solo_0",
      "notes": [
        {
          "pitch": 55,
          "onset": 1.0,
          "duration": 0.375,
          "velocity": 80
        },
        {
          "pitch": 60,
          "onset": 1.5,
          "duration": 0.375,
          "velocity": 80
        },
        {
          "pitch": 48,
          "onset": 2.0,
          "duration": 0.25,
          "velocity": 80
        },
        {
          "pitch": 50,
          "onset": 2.25,
          "duration": 0.25,
          "velocity": 80
        },
        {
          "pitch": 52,
          "onset": 2.5,
          "duration": 0.25,
          "velocity": 80
        },
        {
          "pitch": 53,
          "onset": 2.75,
          "duration": 0.25,
          "velocity": 80
        },
        {
          "pitch": 55,
          "onset": 3.0,
          "duration": 0.5,
          "velocity": 80
        },
        {
          "pitch": 57,
          "onset": 3.5,
          "duration": 0.375,
          "velocity": 80
        },
        {
          "pitch": 59,
          "onset": 4.0,
          "duration": 0.375,
          "velocity": 80
        },
        {
          "pitch": 60,
          "onset": 4.5,
          "duration": 0.5,
          "velocity": 80
        },
        {
          "pitch": 55,
          "onset": 5.0,
          "duration": 0.375,
          "velocity": 80
        },
        {
          "pitch": 64,
          "onset": 5.5,
          "duration": 0.375,
          "velocity": 80
        },
        {
          "pitch": 60,
          "onset": 6.0,
          "duration": 0.5,
          "velocity": 80
        },
        {
          "pitch": 55,
          "onset": 6.5,
          "duration": 0.375,
          "velocity": 80
        },
        {
          "pitch": 64,
          "onset": 7.0,
          "duration": 0.375,
          "velocity": 80
        },
        {
          "pitch": 62,
          "onset": 7.5,
          "duration": 0.25,
          "velocity": 80
        },
        {
          "pitch": 60,
          "onset": 7.75,
          "duration": 0.25,
          "velocity": 80
        },
        {
          "pitch": 62,
          "onset": 8.0,
          "duration": 0.25,
          "velocity": 80
        },
        {
          "pitch": 64,
          "onset": 8.25,
          "duration": 0.25,
          "velocity": 80
        },
        {
          "pitch": 65,
          "onset": 8.5,
          "duration": 0.375,
          "velocity": 80
        },
        {
          "pitch": 59,
          "onset": 9.0,
          "duration": 0.5,
          "velocity": 80
        },
        {
          "pitch": 60,
          "onset": 9.5,
          "duration": 0.375,
          "velocity": 80
        },
        {
          "pitch": 52,
          "onset": 10.0,
          "duration": 0.375,
          "velocity": 80
        },
        {
          "pitch": 43,
          "onset": 10.5,
          "duration": 0.5,
          "velocity": 80
        },
        {
          "pitch": 50,
          "onset": 11.0,
          "duration": 0.375,
          "velocity": 80
        },
        {
          "pitch": 60,
          "onset": 11.5,
          "duration": 0.375,
          "velocity": 80
        },
        {
          "pitch": 59,
          "onset": 12.0,
          "duration": 0.5,
          "velocity": 80
        },
        {
          "pitch": 55,
          "onset": 12.5,
          "duration": 0.375,
          "velocity": 80
        },
        {
          "pitch": 62,
          "onset": 13.0,
          "duration": 0.375,
          "velocity": 80
        },
        {
          "pitch": 62,
          "onset": 13.5,
          "duration": 0.5,
          "velocity": 80
        },
        {
          "pitch": 54,
          "onset": 14.0,
          "duration": 0.375,
          "velocity": 80
        },
        {
          "pitch": 55,
          "onset": 14.5,
          "duration": 0.375,
          "velocity": 80
        },
        {
          "pitch": 52,
          "onset": 15.0,
          "duration": 0.375,
          "velocity": 80
        },
        {
          "pitch": 64,
          "onset": 15.5,
          "duration": 0.25,
          "velocity": 80
        },
        {
          "pitch": 62,
          "onset": 15.75,
          "duration": 0.25,
          "velocity": 80
        },
        {
          "pitch": 60,
          "onset": 16.0,
          "duration": 0.25,
          "velocity": 80
        },
        {
          "pitch": 59,
          "onset": 16.25,
          "duration": 0.25,
          "velocity": 80
        },
        {
          "pitch": 60,
          "onset": 16.5,
          "duration": 0.375,
          "velocity": 80
        },
        {
          "pitch": 45,
          "onset": 17.0,
          "duration": 0.25,
          "velocity": 80
        },
        {
          "pitch": 47,
          "onset": 17.25,
          "duration": 0.25,
          "velocity": 80
        },
        {
          "pitch": 48,
          "onset": 17.5,
          "duration": 0.25,
          "velocity": 80
        },
        {
          "pitch": 50,
          "onset": 17.75,
          "duration": 0.25,
          "velocity": 80
        },
        {
          "pitch": 52,
          "onset": 18.0,
          "duration": 0.5,
          "velocity": 80
        },
        {
          "pitch": 45,
          "onset": 18.5,
          "duration": 0.375,
          "velocity": 80
        },
        {
          "pitch": 60,
          "onset": 19.0,
          "duration": 0.375,
          "velocity": 80
        },
        {
          "pitch": 60,
          "onset": 19.5,
          "duration": 0.375,
          "velocity": 80
        },
        {
          "pitch": 52,
          "onset": 20.0,
          "duration": 0.5,
          "velocity": 80
        },
        {
          "pitch": 54,
          "onset": 20.5,
          "duration": 0.375,
          "velocity": 80
        },
        {
          "pitch": 50,
          "onset": 21.0,
          "duration": 0.375,
          "velocity": 80
        },
        {
          "pitch": 62,
          "onset": 21.5,
          "duration": 0.25,
          "velocity": 80
        },
        {
          "pitch": 60,
          "onset": 21.75,
          "duration": 0.25,
          "velocity": 80
        },
        {
          "pitch": 59,
          "onset": 22.0,
          "duration": 0.25,
          "velocity": 80
        },
        {
          "pitch": 57,
          "onset": 22.25,
          "duration": 0.25,
          "velocity": 80
        },
        {
          "pitch": 59,
          "onset": 22.5,
          "duration": 0.375,
          "velocity": 80
        },
        {
          "pitch": 43,
          "onset": 23.0,
          "duration": 0.25,
          "velocity": 80
        },
        {
          "pitch": 45,
          "onset": 23.25,
          "duration": 0.25,
          "velocity": 80
        },
        {
          "pitch": 47,
          "onset": 23.5,
          "duration": 0.25,
          "velocity": 80
        },
        {
          "pitch": 48,
          "onset": 23.75,
          "duration": 0.25,
          "velocity": 80
        },
        {
          "pitch": 50,
          "onset": 24.0,
          "duration": 0.5,
          "velocity": 80
        },
        {
          "pitch": 43,
          "onset": 24.5,
          "duration": 0.375,
          "velocity": 80
        },
        {
          "pitch": 59,
          "onset": 25.0,
          "duration": 0.375,
          "velocity": 80
        },
        {
          "pitch": 59,
          "onset": 25.5,
          "duration": 0.375,
          "velocity": 80
        },
        {
          "pitch": 50,
          "onset": 26.0,
          "duration": 0.5,
          "velocity": 80
        },
        {
          "pitch": 52,
          "onset": 26.5,
          "duration": 0.375,
          "velocity": 80
        },
        {
          "pitch": 48,
          "onset": 27.0,
          "duration": 0.375,
          "velocity": 80
        },
        {
          "pitch": 60,
          "onset": 27.5,
          "duration": 0.25,
          "velocity": 80
        },
        {
          "pitch": 59,
          "onset": 27.75,
          "duration": 0.25,
          "velocity": 80
        },
        {
          "pitch": 57,
          "onset": 28.0,
          "duration": 0.25,
          "velocity": 80
        },
        {
          "pitch": 55,
          "onset": 28.25,
          "duration": 0.25,
          "velocity": 80
        },
        {
          "pitch": 54,
          "onset": 28.5,
          "duration": 0.375,
          "velocity": 80
        },
        {
          "pitch": 57,
          "onset": 29.0,
          "duration": 0.25,
          "velocity": 80
        },
        {
          "pitch": 55,
          "onset": 29.25,
          "duration": 0.25,
          "velocity": 80
        },
        {
          "pitch": 54,
          "onset": 29.5,
          "duration": 0.25,
          "velocity": 80
        },
        {
          "pitch": 52,
          "onset": 29.75,
          "duration": 0.25,
          "velocity": 80
        },
        {
          "pitch": 50,
          "onset": 30.0,
          "duration": 1.0,
          "velocity": 80
        },
        {
          "pitch": 50,
          "onset": 31.0,
          "duration": 0.5,
          "velocity": 80
        },
        {
          "pitch": 50,
          "onset": 31.75,
          "duration": 0.375,
          "velocity": 80
        },
        {
          "pitch": 50,
          "onset": 32.25,
          "duration": 0.375,
          "velocity": 80
        },
        {
          "pitch": 50,
          "onset": 32.75,
          "duration": 0.25,
          "velocity": 80
        },
        {
          "pitch": 50,
          "onset": 33.25,
          "duration": 0.375,
          "velocity": 80
        },
        {
          "pitch": 50,
          "onset": 33.75,
          "duration": 0.375,
          "velocity": 80
        },
        {
          "pitch": 50,
          "onset": 34.25,
          "duration": 0.25,
          "velocity": 80
        },
        {
          "pitch": 50,
          "onset": 34.75,
          "duration": 0.375,
          "velocity": 80
        },
        {
          "pitch": 50,
          "onset": 35.25,
          "duration": 0.375,
          "velocity": 80
        },
        {
          "pitch": 50,
          "onset": 35.75,
          "duration": 0.25,
          "velocity": 80
        },
        {
          "pitch": 50,
          "onset": 36.25,
          "duration": 0.375,
          "velocity": 80
        },
        {
          "pitch": 50,
          "onset": 36.75,
          "duration": 0.375,
          "velocity": 80
        },
        {
          "pitch": 50,
          "onset": 37.25,
          "duration": 0.25,
          "velocity": 80
        },
        {
          "pitch": 53,
          "onset": 37.5,
          "duration": 0.375,
          "velocity": 80
        },
        {
          "pitch": 52,
          "onset": 38.0,
          "duration": 0.375,
          "velocity": 81
        },
        {
          "pitch": 50,
          "onset": 38.5,
          "duration": 0.375,
          "velocity": 82
        },
        {
          "pitch": 52,
          "onset": 39.0,
          "duration": 0.375,
          "velocity": 83
        },
        {
          "pitch": 50,
          "onset": 39.5,
          "duration": 0.375,
          "velocity": 84
        },
        {
          "pitch": 52,
          "onset": 40.0,
          "duration": 0.375,
          "velocity": 85
        },
        {
          "pitch": 53,
          "onset": 40.5,
          "duration": 0.375,
          "velocity": 86
        },
        {
          "pitch": 52,
          "onset": 41.0,
          "duration": 0.375,
          "velocity": 87
        },
        {
          "pitch": 50,
          "onset": 41.5,
          "duration": 0.375,
          "velocity": 88
        },
        {
          "pitch": 52,
          "onset": 42.0,
          "duration": 0.375,
          "velocity": 89
        },
        {
          "pitch": 54,
          "onset": 42.5,
          "duration": 0.375,
          "velocity": 90
        },
        {
          "pitch": 55,
          "onset": 43.0,
          "duration": 0.375,
          "velocity": 91
        },
        {
          "pitch": 54,
          "onset": 43.5,
          "duration": 0.375,
          "velocity": 92
        },
        {
          "pitch": 55,
          "onset": 44.0,
          "duration": 0.375,
          "velocity": 93
        },
        {
          "pitch": 57,
          "onset": 44.5,
          "duration": 0.375,
          "velocity": 94
        },
        {
          "pitch": 55,
          "onset": 45.0,
          "duration": 0.375,
          "velocity": 95
        },
        {
          "pitch": 57,
          "onset": 45.5,
          "duration": 0.375,
          "velocity": 96
        },
        {
          "pitch": 59,
          "onset": 46.0,
          "duration": 0.375,
          "velocity": 97
        },
        {
          "pitch": 57,
          "onset": 46.5,
          "duration": 0.375,
          "velocity": 98
        },
        {
          "pitch": 59,
          "onset": 47.0,
          "duration": 0.375,
          "velocity": 99
        },
        {
          "pitch": 60,
          "onset": 47.5,
          "duration": 0.375,
          "velocity": 100
        },
        {
          "pitch": 57,
          "onset": 49.0,
          "duration": 0.375,
          "velocity": 100
        },
        {
          "pitch": 60,
          "onset": 49.5,
          "duration": 0.25,
          "velocity": 100
        },
        {
          "pitch": 62,
          "onset": 49.75,
          "duration": 0.25,
          "velocity": 100
        },
        {
          "pitch": 63,
          "onset": 50.0,
          "duration": 0.375,
          "velocity": 100
        },
        {
          "pitch": 62,
          "onset": 50.5,
          "duration": 0.375,
          "velocity": 100
        },
        {
          "pitch": 60,
          "onset": 51.0,
          "duration": 0.375,
          "velocity": 100
        },
        {
          "pitch": 58,
          "onset": 51.5,
          "duration": 0.375,
          "velocity": 100
        },
        {
          "pitch": 57,
          "onset": 52.0,
          "duration": 0.375,
          "velocity": 100
        },
        {
          "pitch": 66,
          "onset": 52.5,
          "duration": 0.5,
          "velocity": 100
        },
        {
          "pitch": 67,
          "onset": 53.0,
          "duration": 0.375,
          "velocity": 100
        },
        {
          "pitch": 57,
          "onset": 53.5,
          "duration": 0.375,
          "velocity": 100
        },
        {
          "pitch": 66,
          "onset": 54.0,
          "duration": 0.5,
          "velocity": 100
        },
        {
          "pitch": 67,
          "onset": 54.5,
          "duration": 0.375,
          "velocity": 100
        },
        {
          "pitch": 57,
          "onset": 55.0,
          "duration": 0.375,
          "velocity": 100
        },
        {
          "pitch": 60,
          "onset": 55.5,
          "duration": 0.25,
          "velocity": 100
        },
        {
          "pitch": 62,
          "onset": 55.75,
          "duration": 0.25,
          "velocity": 100
        },
        {
          "pitch": 63,
          "onset": 56.0,
          "duration": 0.375,
          "velocity": 100
        },
        {
          "pitch": 62,
          "onset": 56.5,
          "duration": 0.375,
          "velocity": 100
        },
        {
          "pitch": 60,
          "onset": 57.0,
          "duration": 0.375,
          "velocity": 100
        },
        {
          "pitch": 58,
          "onset": 57.5,
          "duration": 0.375,
          "velocity": 100
        },
        {
          "pitch": 57,
          "onset": 58.0,
          "duration": 0.375,
          "velocity": 100
        },
        {
          "pitch": 61,
          "onset": 58.5,
          "duration": 0.5,
          "velocity": 100
        },
        {
          "pitch": 62,
          "onset": 59.0,
          "duration": 0.375,
          "velocity": 100
        },
        {
          "pitch": 57,
          "onset": 59.5,
          "duration": 0.375,
          "velocity": 100
        },
        {
          "pitch": 61,
          "onset": 60.0,
          "duration": 0.5,
          "velocity": 100
        },
        {
          "pitch": 62,
          "onset": 60.5,
          "duration": 0.375,
          "velocity": 93
        },
        {
          "pitch": 50,
          "onset": 61.0,
          "duration": 0.375,
          "velocity": 86
        },
        {
          "pitch": 47,
          "onset": 61.75,
          "duration": 0.25,
          "velocity": 80
        },
        {
          "pitch": 50,
          "onset": 62.0,
          "duration": 0.375,
          "velocity": 80
        },
        {
          "pitch": 52,
          "onset": 62.5,
          "duration": 0.375,
          "velocity": 80
        },
        {
          "pitch": 48,
          "onset": 63.25,
          "duration": 0.25,
          "velocity": 80
        },
        {
          "pitch": 52,
          "onset": 63.5,
          "duration": 0.375,
          "velocity": 80
        },
        {
          "pitch": 54,
          "onset": 64.0,
          "duration": 0.375,
          "velocity": 80
        },
        {
          "pitch": 50,
          "onset": 64.75,
          "duration": 0.25,
          "velocity": 80
        },
        {
          "pitch": 55,
          "onset": 65.0,
          "duration": 0.25,
          "velocity": 80
        },
        {
          "pitch": 52,
          "onset": 65.25,
          "duration": 0.25,
          "velocity": 80
        },
        {
          "pitch": 53,
          "onset": 65.5,
          "duration": 0.25,
          "velocity": 80
        },
        {
          "pitch": 50,
          "onset": 65.75,
          "duration": 0.25,
          "velocity": 80
        },
        {
          "pitch": 52,
          "onset": 66.25,
          "duration": 0.25,
          "velocity": 80
        },
        {
          "pitch": 57,
          "onset": 66.5,
          "duration": 0.25,
          "velocity": 80
        },
        {
          "pitch": 59,
          "onset": 66.75,
          "duration": 0.25,
          "velocity": 80
        },
        {
          "pitch": 60,
          "onset": 67.0,
          "duration": 0.25,
          "velocity": 80
        },
        {
          "pitch": 57,
          "onset": 67.25,
          "duration": 0.25,
          "velocity": 80
        },
        {
          "pitch": 62,
          "onset": 67.5,
          "duration": 0.25,
          "velocity": 80
        },
        {
          "pitch": 57,
          "onset": 67.75,
          "duration": 0.25,
          "velocity": 80
        },
        {
          "pitch": 54,
          "onset": 68.0,
          "duration": 0.25,
          "velocity": 80
        },
        {
          "pitch": 52,
          "onset": 68.25,
          "duration": 0.25,
          "velocity": 80
        },
        {
          "pitch": 50,
          "onset": 68.5,
          "duration": 0.25,
          "velocity": 80
        },
        {
          "pitch": 48,
          "onset": 68.75,
          "duration": 0.25,
          "velocity": 80
        },
        {
          "pitch": 50,
          "onset": 69.25,
          "duration": 0.25,
          "velocity": 80
        },
        {
          "pitch": 55,
          "onset": 69.5,
          "duration": 0.375,
          "velocity": 80
        },
        {
          "pitch": 54,
          "onset": 70.25,
          "duration": 0.25,
          "velocity": 80
        },
        {
          "pitch": 55,
          "onset": 70.5,
          "duration": 0.375,
          "velocity": 80
        },
        {
          "pitch": 50,
          "onset": 71.0,
          "duration": 0.375,
          "velocity": 80
        },
        {
          "pitch": 47,
          "onset": 71.5,
          "duration": 0.375,
          "velocity": 80
        },
        {
          "pitch": 55,
          "onset": 73.0,
          "duration": 0.375,
          "velocity": 80
        },
        {
          "pitch": 60,
          "onset": 73.5,
          "duration": 0.375,
          "velocity": 80
        },
        {
          "pitch": 48,
          "onset": 74.0,
          "duration": 0.25,
          "velocity": 80
        },
        {
          "pitch": 50,
          "onset": 74.25,
          "duration": 0.25,
          "velocity": 80
        },
        {
          "pitch": 52,
          "onset": 74.5,
          "duration": 0.25,
          "velocity": 80
        },
        {
          "pitch": 53,
          "onset": 74.75,
          "duration": 0.25,
          "velocity": 80
        },
        {
          "pitch": 55,
          "onset": 75.0,
          "duration": 0.5,
          "velocity": 80
        },
        {
          "pitch": 57,
          "onset": 75.5,
          "duration": 0.375,
          "velocity": 80
        },
        {
          "pitch": 59,
          "onset": 76.0,
          "duration": 0.375,
          "velocity": 80
        },
        {
          "pitch": 60,
          "onset": 76.5,
          "duration": 0.5,
          "velocity": 80
        },
        {
          "pitch": 55,
          "onset": 77.0,
          "duration": 0.375,
          "velocity": 80
        },
        {
          "pitch": 64,
          "onset": 77.5,
          "duration": 0.375,
          "velocity": 80
        },
        {
          "pitch": 60,
          "onset": 78.0,
          "duration": 0.5,
          "velocity": 80
        },
        {
          "pitch": 55,
          "onset": 78.5,
          "duration": 0.375,
          "velocity": 80
        },
        {
          "pitch": 64,
          "onset": 79.0,
          "duration": 0.375,
          "velocity": 80
        },
        {
          "pitch": 62,
          "onset": 79.5,
          "duration": 0.25,
          "velocity": 80
        },
        {
          "pitch": 60,
          "onset": 79.75,
          "duration": 0.25,
          "velocity": 80
        },
        {
          "pitch": 62,
          "onset": 80.0,
          "duration": 0.25,
          "velocity": 80
        },
        {
          "pitch": 64,
          "onset": 80.25,
          "duration": 0.25,
          "velocity": 80
        },
        {
          "pitch": 65,
          "onset": 80.5,
          "duration": 0.375,
          "velocity": 80
        },
        {
          "pitch": 59,
          "onset": 81.0,
          "duration": 0.5,
          "velocity": 80
        },
        {
          "pitch": 60,
          "onset": 81.5,
          "duration": 0.375,
          "velocity": 80
        },
        {
          "pitch": 52,
          "onset": 82.0,
          "duration": 0.375,
          "velocity": 80
        },
        {
          "pitch": 43,
          "onset": 82.5,
          "duration": 0.5,
          "velocity": 80
        },
        {
          "pitch": 50,
          "onset": 83.0,
          "duration": 0.375,
          "velocity": 80
        },
        {
          "pitch": 60,
          "onset": 83.5,
          "duration": 0.375,
          "velocity": 80
        },
        {
          "pitch": 59,
          "onset": 84.0,
          "duration": 0.5,
          "velocity": 80
        },
        {
          "pitch": 55,
          "onset": 84.5,
          "duration": 0.375,
          "velocity": 80
        },
        {
          "pitch": 62,
          "onset": 85.0,
          "duration": 0.375,
          "velocity": 80
        },
        {
          "pitch": 62,
          "onset": 85.5,
          "duration": 0.5,
          "velocity": 80
        },
        {
          "pitch": 54,
          "onset": 86.0,
          "duration": 0.375,
          "velocity": 80
        },
        {
          "pitch": 55,
          "onset": 86.5,
          "duration": 0.375,
          "velocity": 80
        },
        {
          "pitch": 52,
          "onset": 87.0,
          "duration": 0.375,
          "velocity": 80
        },
        {
          "pitch": 64,
          "onset": 87.5,
          "duration": 0.25,
          "velocity": 80
        },
        {
          "pitch": 62,
          "onset": 87.75,
          "duration": 0.25,
          "velocity": 80
        },
        {
          "pitch": 60,
          "onset": 88.0,
          "duration": 0.25,
          "velocity": 80
        },
        {
          "pitch": 59,
          "onset": 88.25,
          "duration": 0.25,
          "velocity": 80
        },
        {
          "pitch": 60,
          "onset": 88.5,
          "duration": 0.375,
          "velocity": 80
        },
        {
          "pitch": 45,
          "onset": 89.0,
          "duration": 0.25,
          "velocity": 80
        },
        {
          "pitch": 47,
          "onset": 89.25,
          "duration": 0.25,
          "velocity": 80
        },
        {
          "pitch": 48,
          "onset": 89.5,
          "duration": 0.25,
          "velocity": 80
        },
        {
          "pitch": 50,
          "onset": 89.75,
          "duration": 0.25,
          "velocity": 80
        },
        {
          "pitch": 52,
          "onset": 90.0,
          "duration": 0.5,
          "velocity": 80
        },
        {
          "pitch": 45,
          "onset": 90.5,
          "duration": 0.375,
          "velocity": 80
        },
        {
          "pitch": 60,
          "onset": 91.0,
          "duration": 0.375,
          "velocity": 80
        },
        {
          "pitch": 60,
          "onset": 91.5,
          "duration": 0.375,
          "velocity": 80
        },
        {
          "pitch": 52,
          "onset": 92.0,
          "duration": 0.5,
          "velocity": 80
        },
        {
          "pitch": 54,
          "onset": 92.5,
          "duration": 0.375,
          "velocity": 80
        },
        {
          "pitch": 50,
          "onset": 93.0,
          "duration": 0.375,
          "velocity": 80
        },
        {
          "pitch": 62,
          "onset": 93.5,
          "duration": 0.25,
          "velocity": 80
        },
        {
          "pitch": 60,
          "onset": 93.75,
          "duration": 0.25,
          "velocity": 80
        },
        {
          "pitch": 59,
          "onset": 94.0,
          "duration": 0.25,
          "velocity": 80
        },
        {
          "pitch": 57,
          "onset": 94.25,
          "duration": 0.25,
          "velocity": 80
        },
        {
          "pitch": 59,
          "onset": 94.5,
          "duration": 0.375,
          "velocity": 80
        },
        {
          "pitch": 43,
          "onset": 95.0,
          "duration": 0.25,
          "velocity": 80
        },
        {
          "pitch": 45,
          "onset": 95.25,
          "duration": 0.25,
          "velocity": 80
        },
        {
          "pitch": 47,
          "onset": 95.5,
          "duration": 0.25,
          "velocity": 80
        },
        {
          "pitch": 48,
          "onset": 95.75,
          "duration": 0.25,
          "velocity": 80
        },
        {
          "pitch": 50,
          "onset": 96.0,
          "duration": 0.5,
          "velocity": 80
        },
        {
          "pitch": 43,
          "onset": 96.5,
          "duration": 0.375,
          "velocity": 80
        },
        {
          "pitch": 59,
          "onset": 97.0,
          "duration": 0.375,
          "velocity": 80
        },
        {
          "pitch": 59,
          "onset": 97.5,
          "duration": 0.375,
          "velocity": 80
        },
        {
          "pitch": 50,
          "onset": 98.0,
          "duration": 0.5,
          "velocity": 80
        },
        {
          "pitch": 52,
          "onset": 98.5,
          "duration": 0.375,
          "velocity": 80
        },
        {
          "pitch": 48,
          "onset": 99.0,
          "duration": 0.375,
          "velocity": 80
        },
        {
          "pitch": 60,
          "onset": 99.5,
          "duration": 0.25,
          "velocity": 80
        },
        {
          "pitch": 59,
          "onset": 99.75,
          "duration": 0.25,
          "velocity": 80
        },
        {
          "pitch": 57,
          "onset": 100.0,
          "duration": 0.25,
          "velocity": 80
        },
        {
          "pitch": 55,
          "onset": 100.25,
          "duration": 0.25,
          "velocity": 80
        },
        {
          "pitch": 54,
          "onset": 100.5,
          "duration": 0.375,
          "velocity": 80
        },
        {
          "pitch": 57,
          "onset": 101.0,
          "duration": 0.25,
          "velocity": 80
        },
        {
          "pitch": 55,
          "onset": 101.25,
          "duration": 0.25,
          "velocity": 80
        },
        {
          "pitch": 54,
          "onset": 101.5,
          "duration": 0.25,
          "velocity": 80
        },
        {
          "pitch": 52,
          "onset": 101.75,
          "duration": 0.25,
          "velocity": 80
        },
        {
          "pitch": 50,
          "onset": 102.0,
          "duration": 1.0,
          "velocity": 80
        },
        {
          "pitch": 50,
          "onset": 103.0,
          "duration": 0.5,
          "velocity": 80
        },
        {
          "pitch": 50,
          "onset": 103.75,
          "duration": 0.375,
          "velocity": 80
        },
        {
          "pitch": 50,
          "onset": 104.25,
          "duration": 0.375,
          "velocity": 80
        },
        {
          "pitch": 50,
          "onset": 104.75,
          "duration": 0.25,
          "velocity": 80
        },
        {
          "pitch": 50,
          "onset": 105.25,
          "duration": 0.375,
          "velocity": 80
        },
        {
          "pitch": 50,
          "onset": 105.75,
          "duration": 0.375,
          "velocity": 80
        },
        {
          "pitch": 50,
          "onset": 106.25,
          "duration": 0.25,
          "velocity": 80
        },
        {
          "pitch": 50,
          "onset": 106.75,
          "duration": 0.375,
          "velocity": 80
        },
        {
          "pitch": 50,
          "onset": 107.25,
          "duration": 0.375,
          "velocity": 80
        },
        {
          "pitch": 50,
          "onset": 107.75,
          "duration": 0.25,
          "velocity": 80
        },
        {
          "pitch": 50,
          "onset": 108.25,
          "duration": 0.375,
          "velocity": 80
        },
        {
          "pitch": 50,
          "onset": 108.75,
          "duration": 0.375,
          "velocity": 80
        },
        {
          "pitch": 50,
          "onset": 109.25,
          "duration": 0.25,
          "velocity": 80
        },
        {
          "pitch": 53,
          "onset": 109.5,
          "duration": 0.375,
          "velocity": 80
        },
        {
          "pitch": 52,
          "onset": 110.0,
          "duration": 0.375,
          "velocity": 81
        },
        {
          "pitch": 50,
          "onset": 110.5,
          "duration": 0.375,
          "velocity": 82
        },
        {
          "pitch": 52,
          "onset": 111.0,
          "duration": 0.375,
          "velocity": 83
        },
        {
          "pitch": 50,
          "onset": 111.5,
          "duration": 0.375,
          "velocity": 84
        },
        {
          "pitch": 52,
          "onset": 112.0,
          "duration": 0.375,
          "velocity": 85
        },
        {
          "pitch": 53,
          "onset": 112.5,
          "duration": 0.375,
          "velocity": 86
        },
        {
          "pitch": 52,
          "onset": 113.0,
          "duration": 0.375,
          "velocity": 87
        },
        {
          "pitch": 50,
          "onset": 113.5,
          "duration": 0.375,
          "velocity": 88
        },
        {
          "pitch": 52,
          "onset": 114.0,
          "duration": 0.375,
          "velocity": 89
        },
        {
          "pitch": 54,
          "onset": 114.5,
          "duration": 0.375,
          "velocity": 90
        },
        {
          "pitch": 55,
          "onset": 115.0,
          "duration": 0.375,
          "velocity": 91
        },
        {
          "pitch": 54,
          "onset": 115.5,
          "duration": 0.375,
          "velocity": 92
        },
        {
          "pitch": 55,
          "onset": 116.0,
          "duration": 0.375,
          "velocity": 93
        },
        {
          "pitch": 57,
          "onset": 116.5,
          "duration": 0.375,
          "velocity": 94
        },
        {
          "pitch": 55,
          "onset": 117.0,
          "duration": 0.375,
          "velocity": 95
        },
        {
          "pitch": 57,
          "onset": 117.5,
          "duration": 0.375,
          "velocity": 96
        },
        {
          "pitch": 59,
          "onset": 118.0,
          "duration": 0.375,
          "velocity": 97
        },
        {
          "pitch": 57,
          "onset": 118.5,
          "duration": 0.375,
          "velocity": 98
        },
        {
          "pitch": 59,
          "onset": 119.0,
          "duration": 0.375,
          "velocity": 99
        },
        {
          "pitch": 60,
          "onset": 119.5,
          "duration": 0.375,
          "velocity": 100
        },
        {
          "pitch": 57,
          "onset": 121.0,
          "duration": 0.375,
          "velocity": 100
        },
        {
          "pitch": 60,
          "onset": 121.5,
          "duration": 0.25,
          "velocity": 100
        },
        {
          "pitch": 62,
          "onset": 121.75,
          "duration": 0.25,
          "velocity": 100
        },
        {
          "pitch": 63,
          "onset": 122.0,
          "duration": 0.375,
          "velocity": 100
        },
        {
          "pitch": 62,
          "onset": 122.5,
          "duration": 0.375,
          "velocity": 100
        },
        {
          "pitch": 60,
          "onset": 123.0,
          "duration": 0.375,
          "velocity": 100
        },
        {
          "pitch": 58,
          "onset": 123.5,
          "duration": 0.375,
          "velocity": 100
        },
        {
          "pitch": 57,
          "onset": 124.0,
          "duration": 0.375,
          "velocity": 100
        },
        {
          "pitch": 66,
          "onset": 124.5,
          "duration": 0.5,
          "velocity": 100
        },
        {
          "pitch": 67,
          "onset": 125.0,
          "duration": 0.375,
          "velocity": 100
        },
        {
          "pitch": 57,
          "onset": 125.5,
          "duration": 0.375,
          "velocity": 100
        },
        {
          "pitch": 66,
          "onset": 126.0,
          "duration": 0.5,
          "velocity": 100
        },
        {
          "pitch": 67,
          "onset": 126.5,
          "duration": 0.375,
          "velocity": 100
        },
        {
          "pitch": 57,
          "onset": 127.0,
          "duration": 0.375,
          "velocity": 100
        },
        {
          "pitch": 60,
          "onset": 127.5,
          "duration": 0.25,
          "velocity": 100
        },
        {
          "pitch": 62,
          "onset": 127.75,
          "duration": 0.25,
          "velocity": 100
        },
        {
          "pitch": 63,
          "onset": 128.0,
          "duration": 0.375,
          "velocity": 100
        },
        {
          "pitch": 62,
          "onset": 128.5,
          "duration": 0.375,
          "velocity": 100
        },
        {
          "pitch": 60,
          "onset": 129.0,
          "duration": 0.375,
          "velocity": 100
        },
        {
          "pitch": 58,
          "onset": 129.5,
          "duration": 0.375,
          "velocity": 100
        },
        {
          "pitch": 57,
          "onset": 130.0,
          "duration": 0.375,
          "velocity": 100
        },
        {
          "pitch": 61,
          "onset": 130.5,
          "duration": 0.5,
          "velocity": 100
        },
        {
          "pitch": 62,
          "onset": 131.0,
          "duration": 0.375,
          "velocity": 100
        },
        {
          "pitch": 57,
          "onset": 131.5,
          "duration": 0.375,
          "velocity": 100
        },
        {
          "pitch": 61,
          "onset": 132.0,
          "duration": 0.5,
          "velocity": 100
        },
        {
          "pitch": 62,
          "onset": 132.5,
          "duration": 0.375,
          "velocity": 93
        },
        {
          "pitch": 50,
          "onset": 133.0,
          "duration": 0.375,
          "velocity": 86
        },
        {
          "pitch": 47,
          "onset": 133.75,
          "duration": 0.25,
          "velocity": 80
        },
        {
          "pitch": 50,
          "onset": 134.0,
          "duration": 0.375,
          "velocity": 80
        },
        {
          "pitch": 52,
          "onset": 134.5,
          "duration": 0.375,
          "velocity": 80
        },
        {
          "pitch": 48,
          "onset": 135.25,
          "duration": 0.25,
          "velocity": 80
        },
        {
          "pitch": 52,
          "onset": 135.5,
          "duration": 0.375,
          "velocity": 80
        },
        {
          "pitch": 54,
          "onset": 136.0,
          "duration": 0.375,
          "velocity": 80
        },
        {
          "pitch": 50,
          "onset": 136.75,
          "duration": 0.25,
          "velocity": 80
        },
        {
          "pitch": 55,
          "onset": 137.0,
          "duration": 0.25,
          "velocity": 80
        },
        {
          "pitch": 52,
          "onset": 137.25,
          "duration": 0.25,
          "velocity": 80
        },
        {
          "pitch": 53,
          "onset": 137.5,
          "duration": 0.25,
          "velocity": 80
        },
        {
          "pitch": 50,
          "onset": 137.75,
          "duration": 0.25,
          "velocity": 80
        },
        {
          "pitch": 52,
          "onset": 138.25,
          "duration": 0.25,
          "velocity": 80
        },
        {
          "pitch": 57,
          "onset": 138.5,
          "duration": 0.25,
          "velocity": 80
        },
        {
          "pitch": 59,
          "onset": 138.75,
          "duration": 0.25,
          "velocity": 80
        },
        {
          "pitch": 60,
          "onset": 139.0,
          "duration": 0.25,
          "velocity": 80
        },
        {
          "pitch": 57,
          "onset": 139.25,
          "duration": 0.25,
          "velocity": 80
        },
        {
          "pitch": 62,
          "onset": 139.5,
          "duration": 0.25,
          "velocity": 80
        },
        {
          "pitch": 57,
          "onset": 139.75,
          "duration": 0.25,
          "velocity": 80
        },
        {
          "pitch": 54,
          "onset": 140.0,
          "duration": 0.25,
          "velocity": 80
        },
        {
          "pitch": 52,
          "onset": 140.25,
          "duration": 0.25,
          "velocity": 80
        },
        {
          "pitch": 50,
          "onset": 140.5,
          "duration": 0.25,
          "velocity": 80
        },
        {
          "pitch": 48,
          "onset": 140.75,
          "duration": 0.25,
          "velocity": 80
        },
        {
          "pitch": 50,
          "onset": 141.25,
          "duration": 0.25,
          "velocity": 80
        },
        {
          "pitch": 55,
          "onset": 141.5,
          "duration": 0.375,
          "velocity": 80
        },
        {
          "pitch": 54,
          "onset": 142.25,
          "duration": 0.25,
          "velocity": 80
        },
        {
          "pitch": 55,
          "onset": 142.5,
          "duration": 0.375,
          "velocity": 80
        },
        {
          "pitch": 50,
          "onset": 143.0,
          "duration": 0.375,
          "velocity": 80
        },
        {
          "pitch": 47,
          "onset": 143.5,
          "duration": 0.375,
          "velocity": 80
        },
        {
          "pitch": 62,
          "onset": 145.0,
          "duration": 0.25,
          "velocity": 80
        },
        {
          "pitch": 60,
          "onset": 145.25,
          "duration": 0.25,
          "velocity": 80
        },
        {
          "pitch": 59,
          "onset": 145.5,
          "duration": 0.25,
          "velocity": 80
        },
        {
          "pitch": 60,
          "onset": 145.75,
          "duration": 0.25,
          "velocity": 80
        },
        {
          "pitch": 57,
          "onset": 146.0,
          "duration": 0.25,
          "velocity": 80
        },
        {
          "pitch": 59,
          "onset": 146.25,
          "duration": 0.25,
          "velocity": 80
        },
        {
          "pitch": 55,
          "onset": 146.5,
          "duration": 0.25,
          "velocity": 80
        },
        {
          "pitch": 57,
          "onset": 146.75,
          "duration": 0.25,
          "velocity": 80
        },
        {
          "pitch": 53,
          "onset": 147.0,
          "duration": 0.25,
          "velocity": 80
        },
        {
          "pitch": 55,
          "onset": 147.25,
          "duration": 0.25,
          "velocity": 80
        },
        {
          "pitch": 52,
          "onset": 147.5,
          "duration": 0.25,
          "velocity": 80
        },
        {
          "pitch": 53,
          "onset": 147.75,
          "duration": 0.25,
          "velocity": 80
        },
        {
          "pitch": 50,
          "onset": 148.0,
          "duration": 0.25,
          "velocity": 80
        },
        {
          "pitch": 52,
          "onset": 148.25,
          "duration": 0.25,
          "velocity": 80
        },
        {
          "pitch": 55,
          "onset": 148.75,
          "duration": 0.25,
          "velocity": 80
        },
        {
          "pitch": 57,
          "onset": 149.0,
          "duration": 0.25,
          "velocity": 80
        },
        {
          "pitch": 59,
          "onset": 149.25,
          "duration": 0.25,
          "velocity": 80
        },
        {
          "pitch": 60,
          "onset": 149.5,
          "duration": 0.25,
          "velocity": 80
        },
        {
          "pitch": 62,
          "onset": 149.75,
          "duration": 0.25,
          "velocity": 80
        },
        {
          "pitch": 64,
          "onset": 150.0,
          "duration": 0.375,
          "velocity": 80
        },
        {
          "pitch": 64,
          "onset": 151.0,
          "duration": 0.375,
          "velocity": 80
        },
        {
          "pitch": 53,
          "onset": 151.5,
          "duration": 0.25,
          "velocity": 80
        },
        {
          "pitch": 57,
          "onset": 151.75,
          "duration": 0.25,
          "velocity": 80
        },
        {
          "pitch": 59,
          "onset": 152.0,
          "duration": 0.25,
          "velocity": 80
        },
        {
          "pitch": 60,
          "onset": 152.25,
          "duration": 0.25,
          "velocity": 80
        },
        {
          "pitch": 62,
          "onset": 152.5,
          "duration": 0.25,
          "velocity": 80
        },
        {
          "pitch": 60,
          "onset": 152.75,
          "duration": 0.25,
          "velocity": 80
        },
        {
          "pitch": 54,
          "onset": 153.25,
          "duration": 0.25,
          "velocity": 80
        },
        {
          "pitch": 56,
          "onset": 153.5,
          "duration": 0.25,
          "velocity": 80
        },
        {
          "pitch": 57,
          "onset": 153.75,
          "duration": 0.25,
          "velocity": 80
        },
        {
          "pitch": 59,
          "onset": 154.0,
          "duration": 0.25,
          "velocity": 80
        },
        {
          "pitch": 57,
          "onset": 154.25,
          "duration": 0.25,
          "velocity": 80
        },
        {
          "pitch": 56,
          "onset": 154.5,
          "duration": 0.25,
          "velocity": 80
        },
        {
          "pitch": 54,
          "onset": 154.75,
          "duration": 0.25,
          "velocity": 80
        },
        {
          "pitch": 56,
          "onset": 155.0,
          "duration": 0.25,
          "velocity": 80
        },
        {
          "pitch": 57,
          "onset": 155.25,
          "duration": 0.25,
          "velocity": 80
        },
        {
          "pitch": 59,
          "onset": 155.5,
          "duration": 0.25,
          "velocity": 80
        },
        {
          "pitch": 56,
          "onset": 155.75,
          "duration": 0.25,
          "velocity": 80
        },
        {
          "pitch": 52,
          "onset": 156.0,
          "duration": 0.125,
          "velocity": 80
        },
        {
          "pitch": 53,
          "onset": 156.125,
          "duration": 0.125,
          "velocity": 80
        },
        {
          "pitch": 52,
          "onset": 156.25,
          "duration": 0.125,
          "velocity": 80
        },
        {
          "pitch": 53,
          "onset": 156.375,
          "duration": 0.125,
          "velocity": 80
        },
        {
          "pitch": 52,
          "onset": 156.5,
          "duration": 0.5,
          "velocity": 80
        },
        {
          "pitch": 59,
          "onset": 157.0,
          "duration": 0.375,
          "velocity": 80
        },
        {
          "pitch": 60,
          "onset": 157.5,
          "duration": 0.375,
          "velocity": 80
        },
        {
          "pitch": 52,
          "onset": 158.0,
          "duration": 0.5,
          "velocity": 80
        },
        {
          "pitch": 53,
          "onset": 158.5,
          "duration": 0.375,
          "velocity": 80
        },
        {
          "pitch": 50,
          "onset": 159.0,
          "duration": 0.375,
          "velocity": 80
        },
        {
          "pitch": 62,
          "onset": 159.5,
          "duration": 0.25,
          "velocity": 80
        },
        {
          "pitch": 60,
          "onset": 159.75,
          "duration": 0.25,
          "velocity": 80
        },
        {
          "pitch": 59,
          "onset": 160.0,
          "duration": 0.25,
          "velocity": 80
        },
        {
          "pitch": 57,
          "onset": 160.25,
          "duration": 0.25,
          "velocity": 80
        },
        {
          "pitch": 59,
          "onset": 160.5,
          "duration": 0.375,
          "velocity": 80
        },
        {
          "pitch": 43,
          "onset": 161.0,
          "duration": 0.25,
          "velocity": 80
        },
        {
          "pitch": 45,
          "onset": 161.25,
          "duration": 0.25,
          "velocity": 80
        },
        {
          "pitch": 47,
          "onset": 161.5,
          "duration": 0.25,
          "velocity": 80
        },
        {
          "pitch": 48,
          "onset": 161.75,
          "duration": 0.25,
          "velocity": 80
        },
        {
          "pitch": 50,
          "onset": 162.0,
          "duration": 0.5,
          "velocity": 80
        },
        {
          "pitch": 43,
          "onset": 162.5,
          "duration": 0.375,
          "velocity": 80
        },
        {
          "pitch": 58,
          "onset": 163.0,
          "duration": 0.375,
          "velocity": 80
        },
        {
          "pitch": 58,
          "onset": 163.5,
          "duration": 0.375,
          "velocity": 80
        },
        {
          "pitch": 50,
          "onset": 164.0,
          "duration": 0.5,
          "velocity": 80
        },
        {
          "pitch": 52,
          "onset": 164.5,
          "duration": 0.375,
          "velocity": 80
        },
        {
          "pitch": 48,
          "onset": 165.0,
          "duration": 0.375,
          "velocity": 80
        },
        {
          "pitch": 60,
          "onset": 165.5,
          "duration": 0.25,
          "velocity": 80
        },
        {
          "pitch": 58,
          "onset": 165.75,
          "duration": 0.25,
          "velocity": 80
        },
        {
          "pitch": 57,
          "onset": 166.0,
          "duration": 0.25,
          "velocity": 80
        },
        {
          "pitch": 55,
          "onset": 166.25,
          "duration": 0.25,
          "velocity": 80
        },
        {
          "pitch": 57,
          "onset": 166.5,
          "duration": 0.375,
          "velocity": 80
        },
        {
          "pitch": 57,
          "onset": 169.0,
          "duration": 0.375,
          "velocity": 80
        },
        {
          "pitch": 53,
          "onset": 169.5,
          "duration": 0.375,
          "velocity": 80
        },
        {
          "pitch": 49,
          "onset": 170.0,
          "duration": 0.5,
          "velocity": 80
        },
        {
          "pitch": 50,
          "onset": 170.5,
          "duration": 0.375,
          "velocity": 80
        },
        {
          "pitch": 58,
          "onset": 171.0,
          "duration": 0.375,
          "velocity": 80
        },
        {
          "pitch": 56,
          "onset": 171.5,
          "duration": 0.5,
          "velocity": 85
        },
        {
          "pitch": 57,
          "onset": 172.0,
          "duration": 0.375,
          "velocity": 90
        },
        {
          "pitch": 62,
          "onset": 172.5,
          "duration": 0.25,
          "velocity": 95
        },
        {
          "pitch": 64,
          "onset": 172.75,
          "duration": 0.25,
          "velocity": 98
        },
        {
          "pitch": 65,
          "onset": 173.0,
          "duration": 0.375,
          "velocity": 100
        },
        {
          "pitch": 56,
          "onset": 173.5,
          "duration": 0.375,
          "velocity": 100
        },
        {
          "pitch": 50,
          "onset": 174.0,
          "duration": 1.0,
          "velocity": 100
        },
        {
          "pitch": 65,
          "onset": 175.0,
          "duration": 0.5,
          "velocity": 100
        },
        {
          "pitch": 64,
          "onset": 175.5,
          "duration": 0.375,
          "velocity": 100
        },
        {
          "pitch": 62,
          "onset": 176.0,
          "duration": 0.25,
          "velocity": 100
        },
        {
          "pitch": 60,
          "onset": 176.25,
          "duration": 0.25,
          "velocity": 100
        },
        {
          "pitch": 59,
          "onset": 176.5,
          "duration": 0.25,
          "velocity": 100
        },
        {
          "pitch": 57,
          "onset": 176.75,
          "duration": 0.25,
          "velocity": 100
        },
        {
          "pitch": 59,
          "onset": 177.0,
          "duration": 0.25,
          "velocity": 100
        },
        {
          "pitch": 62,
          "onset": 177.25,
          "duration": 0.25,
          "velocity": 100
        },
        {
          "pitch": 60,
          "onset": 177.5,
          "duration": 0.25,
          "velocity": 100
        },
        {
          "pitch": 57,
          "onset": 177.75,
          "duration": 0.25,
          "velocity": 100
        },
        {
          "pitch": 59,
          "onset": 178.0,
          "duration": 0.25,
          "velocity": 100
        },
        {
          "pitch": 56,
          "onset": 178.25,
          "duration": 0.25,
          "velocity": 100
        },
        {
          "pitch": 57,
          "onset": 178.5,
          "duration": 0.375,
          "velocity": 100
        },
        {
          "pitch": 52,
          "onset": 179.0,
          "duration": 0.375,
          "velocity": 90
        },
        {
          "pitch": 48,
          "onset": 179.5,
          "duration": 0.375,
          "velocity": 90
        },
        {
          "pitch": 60,
          "onset": 181.0,
          "duration": 0.5,
          "velocity": 80
        },
        {
          "pitch": 60,
          "onset": 181.5,
          "duration": 1.0,
          "velocity": 80
        },
        {
          "pitch": 60,
          "onset": 184.0,
          "duration": 0.5,
          "velocity": 80
        },
        {
          "pitch": 59,
          "onset": 184.5,
          "duration": 1.0,
          "velocity": 80
        },
        {
          "pitch": 52,
          "onset": 186.0,
          "duration": 0.25,
          "velocity": 80
        },
        {
          "pitch": 53,
          "onset": 186.25,
          "duration": 0.25,
          "velocity": 80
        },
        {
          "pitch": 55,
          "onset": 186.5,
          "duration": 0.25,
          "velocity": 80
        },
        {
          "pitch": 57,
          "onset": 186.75,
          "duration": 0.25,
          "velocity": 80
        },
        {
          "pitch": 58,
          "onset": 187.0,
          "duration": 0.25,
          "velocity": 80
        },
        {
          "pitch": 55,
          "onset": 187.25,
          "duration": 0.25,
          "velocity": 80
        },
        {
          "pitch": 57,
          "onset": 187.5,
          "duration": 0.25,
          "velocity": 80
        },
        {
          "pitch": 55,
          "onset": 187.75,
          "duration": 0.25,
          "velocity": 80
        },
        {
          "pitch": 53,
          "onset": 188.0,
          "duration": 0.25,
          "velocity": 80
        },
        {
          "pitch": 52,
          "onset": 188.25,
          "duration": 0.25,
          "velocity": 80
        },
        {
          "pitch": 53,
          "onset": 188.5,
          "duration": 0.25,
          "velocity": 80
        },
        {
          "pitch": 62,
          "onset": 188.75,
          "duration": 0.25,
          "velocity": 80
        },
        {
          "pitch": 60,
          "onset": 189.0,
          "duration": 0.25,
          "velocity": 80
        },
        {
          "pitch": 59,
          "onset": 189.25,
          "duration": 0.25,
          "velocity": 80
        },
        {
          "pitch": 57,
          "onset": 189.5,
          "duration": 0.25,
          "velocity": 80
        },
        {
          "pitch": 55,
          "onset": 189.75,
          "duration": 0.25,
          "velocity": 80
        },
        {
          "pitch": 60,
          "onset": 190.0,
          "duration": 0.25,
          "velocity": 80
        },
        {
          "pitch": 52,
          "onset": 190.25,
          "duration": 0.25,
          "velocity": 80
        },
        {
          "pitch": 53,
          "onset": 190.75,
          "duration": 0.25,
          "velocity": 80
        },
        {
          "pitch": 52,
          "onset": 191.0,
          "duration": 0.25,
          "velocity": 80
        },
        {
          "pitch": 50,
          "onset": 191.25,
          "duration": 0.25,
          "velocity": 80
        },
        {
          "pitch": 52,
          "onset": 191.5,
          "duration": 0.25,
          "velocity": 80
        },
        {
          "pitch": 48,
          "onset": 191.75,
          "duration": 0.25,
          "velocity": 80
        },
        {
          "pitch": 55,
          "onset": 192.0,
          "duration": 1.0,
          "velocity": 80
        },
        {
          "pitch": 55,
          "onset": 193.0,
          "duration": 0.375,
          "velocity": 80
        },
        {
          "pitch": 53,
          "onset": 193.5,
          "duration": 0.375,
          "velocity": 80
        },
        {
          "pitch": 52,
          "onset": 194.0,
          "duration": 0.375,
          "velocity": 80
        },
        {
          "pitch": 50,
          "onset": 194.5,
          "duration": 0.375,
          "velocity": 80
        },
        {
          "pitch": 52,
          "onset": 195.0,
          "duration": 0.375,
          "velocity": 80
        },
        {
          "pitch": 50,
          "onset": 195.5,
          "duration": 0.375,
          "velocity": 80
        },
        {
          "pitch": 52,
          "onset": 196.0,
          "duration": 0.375,
          "velocity": 80
        },
        {
          "pitch": 53,
          "onset": 196.5,
          "duration": 0.375,
          "velocity": 80
        },
        {
          "pitch": 52,
          "onset": 197.0,
          "duration": 0.375,
          "velocity": 80
        },
        {
          "pitch": 50,
          "onset": 197.5,
          "duration": 0.375,
          "velocity": 80
        },
        {
          "pitch": 52,
          "onset": 198.0,
          "duration": 0.375,
          "velocity": 80
        },
        {
          "pitch": 54,
          "onset": 198.5,
          "duration": 0.375,
          "velocity": 81
        },
        {
          "pitch": 55,
          "onset": 199.0,
          "duration": 0.375,
          "velocity": 83
        },
        {
          "pitch": 54,
          "onset": 199.5,
          "duration": 0.25,
          "velocity": 85
        },
        {
          "pitch": 57,
          "onset": 199.75,
          "duration": 0.375,
          "velocity": 86
        },
        {
          "pitch": 57,
          "onset": 200.25,
          "duration": 0.375,
          "velocity": 87
        },
        {
          "pitch": 57,
          "onset": 200.75,
          "duration": 0.375,
          "velocity": 89
        },
        {
          "pitch": 57,
          "onset": 201.25,
          "duration": 0.375,
          "velocity": 91
        },
        {
          "pitch": 57,
          "onset": 201.75,
          "duration": 0.375,
          "velocity": 93
        },
        {
          "pitch": 57,
          "onset": 202.25,
          "duration": 0.25,
          "velocity": 94
        },
        {
          "pitch": 54,
          "onset": 202.5,
          "duration": 0.25,
          "velocity": 95
        },
        {
          "pitch": 60,
          "onset": 202.75,
          "duration": 0.375,
          "velocity": 96
        },
        {
          "pitch": 60,
          "onset": 203.25,
          "duration": 0.375,
          "velocity": 98
        },
        {
          "pitch": 60,
          "onset": 203.75,
          "duration": 0.375,
          "velocity": 100
        },
        {
          "pitch": 60,
          "onset": 204.25,
          "duration": 0.375,
          "velocity": 100
        },
        {
          "pitch": 60,
          "onset": 204.75,
          "duration": 0.375,
          "velocity": 100
        },
        {
          "pitch": 60,
          "onset": 205.25,
          "duration": 0.25,
          "velocity": 100
        },
        {
          "pitch": 59,
          "onset": 205.5,
          "duration": 0.375,
          "velocity": 100
        },
        {
          "pitch": 57,
          "onset": 206.0,
          "duration": 0.375,
          "velocity": 100
        },
        {
          "pitch": 59,
          "onset": 206.5,
          "duration": 0.375,
          "velocity": 100
        },
        {
          "pitch": 60,
          "onset": 207.0,
          "duration": 0.375,
          "velocity": 100
        },
        {
          "pitch": 59,
          "onset": 207.5,
          "duration": 0.375,
          "velocity": 100
        },
        {
          "pitch": 57,
          "onset": 208.0,
          "duration": 0.375,
          "velocity": 100
        },
        {
          "pitch": 59,
          "onset": 208.5,
          "duration": 0.375,
          "velocity": 100
        },
        {
          "pitch": 62,
          "onset": 209.0,
          "duration": 0.375,
          "velocity": 100
        },
        {
          "pitch": 65,
          "onset": 209.5,
          "duration": 0.375,
          "velocity": 100
        },
        {
          "pitch": 50,
          "onset": 211.0,
          "duration": 0.375,
          "velocity": 100
        },
        {
          "pitch": 53,
          "onset": 211.5,
          "duration": 0.25,
          "velocity": 100
        },
        {
          "pitch": 55,
          "onset": 211.75,
          "duration": 0.25,
          "velocity": 100
        },
        {
          "pitch": 56,
          "onset": 212.0,
          "duration": 0.375,
          "velocity": 100
        },
        {
          "pitch": 55,
          "onset": 212.5,
          "duration": 0.375,
          "velocity": 100
        },
        {
          "pitch": 53,
          "onset": 213.0,
          "duration": 0.375,
          "velocity": 100
        },
        {
          "pitch": 51,
          "onset": 213.5,
          "duration": 0.375,
          "velocity": 100
        },
        {
          "pitch": 50,
          "onset": 214.0,
          "duration": 0.375,
          "velocity": 100
        },
        {
          "pitch": 59,
          "onset": 214.5,
          "duration": 0.5,
          "velocity": 100
        },
        {
          "pitch": 60,
          "onset": 215.0,
          "duration": 0.375,
          "velocity": 100
        },
        {
          "pitch": 50,
          "onset": 215.5,
          "duration": 0.375,
          "velocity": 100
        },
        {
          "pitch": 59,
          "onset": 216.0,
          "duration": 0.5,
          "velocity": 100
        },
        {
          "pitch": 60,
          "onset": 216.5,
          "duration": 0.375,
          "velocity": 100
        },
        {
          "pitch": 50,
          "onset": 217.0,
          "duration": 0.375,
          "velocity": 100
        },
        {
          "pitch": 53,
          "onset": 217.5,
          "duration": 0.25,
          "velocity": 100
        },
        {
          "pitch": 55,
          "onset": 217.75,
          "duration": 0.25,
          "velocity": 100
        },
        {
          "pitch": 56,
          "onset": 218.0,
          "duration": 0.375,
          "velocity": 100
        },
        {
          "pitch": 55,
          "onset": 218.5,
          "duration": 0.375,
          "velocity": 100
        },
        {
          "pitch": 53,
          "onset": 219.0,
          "duration": 0.375,
          "velocity": 100
        },
        {
          "pitch": 51,
          "onset": 219.5,
          "duration": 0.375,
          "velocity": 100
        },
        {
          "pitch": 50,
          "onset": 220.0,
          "duration": 0.375,
          "velocity": 100
        },
        {
          "pitch": 54,
          "onset": 220.5,
          "duration": 0.5,
          "velocity": 100
        },
        {
          "pitch": 55,
          "onset": 221.0,
          "duration": 0.375,
          "velocity": 100
        },
        {
          "pitch": 50,
          "onset": 221.5,
          "duration": 0.375,
          "velocity": 100
        },
        {
          "pitch": 54,
          "onset": 222.0,
          "duration": 0.5,
          "velocity": 100
        },
        {
          "pitch": 55,
          "onset": 222.5,
          "duration": 0.25,
          "velocity": 90
        },
        {
          "pitch": 53,
          "onset": 222.75,
          "duration": 0.25,
          "velocity": 87
        },
        {
          "pitch": 52,
          "onset": 223.0,
          "duration": 0.25,
          "velocity": 83
        },
        {
          "pitch": 50,
          "onset": 223.25,
          "duration": 0.25,
          "velocity": 80
        },
        {
          "pitch": 52,
          "onset": 223.75,
          "duration": 0.25,
          "velocity": 80
        },
        {
          "pitch": 55,
          "onset": 224.0,
          "duration": 0.375,
          "velocity": 80
        },
        {
          "pitch": 57,
          "onset": 224.5,
          "duration": 0.375,
          "velocity": 80
        },
        {
          "pitch": 53,
          "onset": 225.25,
          "duration": 0.25,
          "velocity": 80
        },
        {
          "pitch": 57,
          "onset": 225.5,
          "duration": 0.375,
          "velocity": 80
        },
        {
          "pitch": 59,
          "onset": 226.0,
          "duration": 0.375,
          "velocity": 80
        },
        {
          "pitch": 55,
          "onset": 226.75,
          "duration": 0.25,
          "velocity": 80
        },
        {
          "pitch": 60,
          "onset": 227.0,
          "duration": 0.25,
          "velocity": 80
        },
        {
          "pitch": 57,
          "onset": 227.25,
          "duration": 0.25,
          "velocity": 80
        },
        {
          "pitch": 58,
          "onset": 227.5,
          "duration": 0.25,
          "velocity": 80
        },
        {
          "pitch": 55,
          "onset": 227.75,
          "duration": 0.25,
          "velocity": 80
        },
        {
          "pitch": 57,
          "onset": 228.0,
          "duration": 0.25,
          "velocity": 80
        },
        {
          "pitch": 53,
          "onset": 228.25,
          "duration": 0.25,
          "velocity": 80
        },
        {
          "pitch": 50,
          "onset": 228.5,
          "duration": 0.25,
          "velocity": 80
        },
        {
          "pitch": 53,
          "onset": 228.75,
          "duration": 0.25,
          "velocity": 80
        },
        {
          "pitch": 52,
          "onset": 229.0,
          "duration": 0.25,
          "velocity": 80
        },
        {
          "pitch": 50,
          "onset": 229.25,
          "duration": 0.25,
          "velocity": 80
        },
        {
          "pitch": 55,
          "onset": 229.5,
          "duration": 0.25,
          "velocity": 80
        },
        {
          "pitch": 50,
          "onset": 229.75,
          "duration": 0.375,
          "velocity": 80
        },
        {
          "pitch": 43,
          "onset": 231.25,
          "duration": 0.25,
          "velocity": 80
        },
        {
          "pitch": 48,
          "onset": 231.5,
          "duration": 0.375,
          "velocity": 80
        },
        {
          "pitch": 47,
          "onset": 232.25,
          "duration": 0.25,
          "velocity": 80
        },
        {
          "pitch": 48,
          "onset": 232.5,
          "duration": 0.375,
          "velocity": 80
        },
        {
          "pitch": 52,
          "onset": 233.0,
          "duration": 0.375,
          "velocity": 85
        },
        {
          "pitch": 55,
          "onset": 233.5,
          "duration": 0.375,
          "velocity": 90
        },
        {
          "pitch": 52,
          "onset": 234.0,
          "duration": 1.0,
          "velocity": 100
        },
        {
          "pitch": 60,
          "onset": 234.0,
          "duration": 1.0,
          "velocity": 100
        },
        {
          "pitch": 62,
          "onset": 235.0,
          "duration": 0.25,
          "velocity": 80
        },
        {
          "pitch": 60,
          "onset": 235.25,
          "duration": 0.25,
          "velocity": 80
        },
        {
          "pitch": 59,
          "onset": 235.5,
          "duration": 0.25,
          "velocity": 80
        },
        {
          "pitch": 60,
          "onset": 235.75,
          "duration": 0.25,
          "velocity": 80
        },
        {
          "pitch": 57,
          "onset": 236.0,
          "duration": 0.25,
          "velocity": 80
        },
        {
          "pitch": 59,
          "onset": 236.25,
          "duration": 0.25,
          "velocity": 80
        },
        {
          "pitch": 55,
          "onset": 236.5,
          "duration": 0.25,
          "velocity": 80
        },
        {
          "pitch": 57,
          "onset": 236.75,
          "duration": 0.25,
          "velocity": 80
        },
        {
          "pitch": 53,
          "onset": 237.0,
          "duration": 0.25,
          "velocity": 80
        },
        {
          "pitch": 55,
          "onset": 237.25,
          "duration": 0.25,
          "velocity": 80
        },
        {
          "pitch": 52,
          "onset": 237.5,
          "duration": 0.25,
          "velocity": 80
        },
        {
          "pitch": 53,
          "onset": 237.75,
          "duration": 0.25,
          "velocity": 80
        },
        {
          "pitch": 50,
          "onset": 238.0,
          "duration": 0.25,
          "velocity": 80
        },
        {
          "pitch": 52,
          "onset": 238.25,
          "duration": 0.25,
          "velocity": 80
        },
        {
          "pitch": 55,
          "onset": 238.75,
          "duration": 0.25,
          "velocity": 80
        },
        {
          "pitch": 57,
          "onset": 239.0,
          "duration": 0.25,
          "velocity": 80
        },
        {
          "pitch": 59,
          "onset": 239.25,
          "duration": 0.25,
          "velocity": 80
        },
        {
          "pitch": 60,
          "onset": 239.5,
          "duration": 0.25,
          "velocity": 80
        },
        {
          "pitch": 62,
          "onset": 239.75,
          "duration": 0.25,
          "velocity": 80
        },
        {
          "pitch": 64,
          "onset": 240.0,
          "duration": 0.375,
          "velocity": 80
        },
        {
          "pitch": 64,
          "onset": 241.0,
          "duration": 0.375,
          "velocity": 80
        },
        {
          "pitch": 53,
          "onset": 241.5,
          "duration": 0.25,
          "velocity": 80
        },
        {
          "pitch": 57,
          "onset": 241.75,
          "duration": 0.25,
          "velocity": 80
        },
        {
          "pitch": 59,
          "onset": 242.0,
          "duration": 0.25,
          "velocity": 80
        },
        {
          "pitch": 60,
          "onset": 242.25,
          "duration": 0.25,
          "velocity": 80
        },
        {
          "pitch": 62,
          "onset": 242.5,
          "duration": 0.25,
          "velocity": 80
        },
        {
          "pitch": 60,
          "onset": 242.75,
          "duration": 0.25,
          "velocity": 80
        },
        {
          "pitch": 54,
          "onset": 243.25,
          "duration": 0.25,
          "velocity": 80
        },
        {
          "pitch": 56,
          "onset": 243.5,
          "duration": 0.25,
          "velocity": 80
        },
        {
          "pitch": 57,
          "onset": 243.75,
          "duration": 0.25,
          "velocity": 80
        },
        {
          "pitch": 59,
          "onset": 244.0,
          "duration": 0.25,
          "velocity": 80
        },
        {
          "pitch": 57,
          "onset": 244.25,
          "duration": 0.25,
          "velocity": 80
        },
        {
          "pitch": 56,
          "onset": 244.5,
          "duration": 0.25,
          "velocity": 80
        },
        {
          "pitch": 54,
          "onset": 244.75,
          "duration": 0.25,
          "velocity": 80
        },
        {
          "pitch": 56,
          "onset": 245.0,
          "duration": 0.25,
          "velocity": 80
        },
        {
          "pitch": 57,
          "onset": 245.25,
          "duration": 0.25,
          "velocity": 80
        },
        {
          "pitch": 59,
          "onset": 245.5,
          "duration": 0.25,
          "velocity": 80
        },
        {
          "pitch": 56,
          "onset": 245.75,
          "duration": 0.25,
          "velocity": 80
        },
        {
          "pitch": 52,
          "onset": 246.0,
          "duration": 0.125,
          "velocity": 80
        },
        {
          "pitch": 53,
          "onset": 246.125,
          "duration": 0.125,
          "velocity": 80
        },
        {
          "pitch": 52,
          "onset": 246.25,
          "duration": 0.125,
          "velocity": 80
        },
        {
          "pitch": 53,
          "onset": 246.375,
          "duration": 0.125,
          "velocity": 80
        },
        {
          "pitch": 52,
          "onset": 246.5,
          "duration": 0.5,
          "velocity": 80
        },
        {
          "pitch": 59,
          "onset": 247.0,
          "duration": 0.375,
          "velocity": 80
        },
        {
          "pitch": 60,
          "onset": 247.5,
          "duration": 0.375,
          "velocity": 80
        },
        {
          "pitch": 52,
          "onset": 248.0,
          "duration": 0.5,
          "velocity": 80
        },
        {
          "pitch": 53,
          "onset": 248.5,
          "duration": 0.375,
          "velocity": 80
        },
        {
          "pitch": 50,
          "onset": 249.0,
          "duration": 0.375,
          "velocity": 80
        },
        {
          "pitch": 62,
          "onset": 249.5,
          "duration": 0.25,
          "velocity": 80
        },
        {
          "pitch": 60,
          "onset": 249.75,
          "duration": 0.25,
          "velocity": 80
        },
        {
          "pitch": 59,
          "onset": 250.0,
          "duration": 0.25,
          "velocity": 80
        },
        {
          "pitch": 57,
          "onset": 250.25,
          "duration": 0.25,
          "velocity": 80
        },
        {
          "pitch": 59,
          "onset": 250.5,
          "duration": 0.375,
          "velocity": 80
        },
        {
          "pitch": 43,
          "onset": 251.0,
          "duration": 0.25,
          "velocity": 80
        },
        {
          "pitch": 45,
          "onset": 251.25,
          "duration": 0.25,
          "velocity": 80
        },
        {
          "pitch": 47,
          "onset": 251.5,
          "duration": 0.25,
          "velocity": 80
        },
        {
          "pitch": 48,
          "onset": 251.75,
          "duration": 0.25,
          "velocity": 80
        },
        {
          "pitch": 50,
          "onset": 252.0,
          "duration": 0.5,
          "velocity": 80
        },
        {
          "pitch": 43,
          "onset": 252.5,
          "duration": 0.375,
          "velocity": 80
        },
        {
          "pitch": 58,
          "onset": 253.0,
          "duration": 0.375,
          "velocity": 80
        },
        {
          "pitch": 58,
          "onset": 253.5,
          "duration": 0.375,
          "velocity": 80
        },
        {
          "pitch": 50,
          "onset": 254.0,
          "duration": 0.5,
          "velocity": 80
        },
        {
          "pitch": 52,
          "onset": 254.5,
          "duration": 0.375,
          "velocity": 80
        },
        {
          "pitch": 48,
          "onset": 255.0,
          "duration": 0.375,
          "velocity": 80
        },
        {
          "pitch": 60,
          "onset": 255.5,
          "duration": 0.25,
          "velocity": 80
        },
        {
          "pitch": 58,
          "onset": 255.75,
          "duration": 0.25,
          "velocity": 80
        },
        {
          "pitch": 57,
          "onset": 256.0,
          "duration": 0.25,
          "velocity": 80
        },
        {
          "pitch": 55,
          "onset": 256.25,
          "duration": 0.25,
          "velocity": 80
        },
        {
          "pitch": 57,
          "onset": 256.5,
          "duration": 0.375,
          "velocity": 80
        },
        {
          "pitch": 57,
          "onset": 259.0,
          "duration": 0.375,
          "velocity": 80
        },
        {
          "pitch": 53,
          "onset": 259.5,
          "duration": 0.375,
          "velocity": 80
        },
        {
          "pitch": 49,
          "onset": 260.0,
          "duration": 0.5,
          "velocity": 80
        },
        {
          "pitch": 50,
          "onset": 260.5,
          "duration": 0.375,
          "velocity": 80
        },
        {
          "pitch": 58,
          "onset": 261.0,
          "duration": 0.375,
          "velocity": 80
        },
        {
          "pitch": 56,
          "onset": 261.5,
          "duration": 0.5,
          "velocity": 85
        },
        {
          "pitch": 57,
          "onset": 262.0,
          "duration": 0.375,
          "velocity": 90
        },
        {
          "pitch": 62,
          "onset": 262.5,
          "duration": 0.25,
          "velocity": 95
        },
        {
          "pitch": 64,
          "onset": 262.75,
          "duration": 0.25,
          "velocity": 98
        },
        {
          "pitch": 65,
          "onset": 263.0,
          "duration": 0.375,
          "velocity": 100
        },
        {
          "pitch": 56,
          "onset": 263.5,
          "duration": 0.375,
          "velocity": 100
        },
        {
          "pitch": 50,
          "onset": 264.0,
          "duration": 1.0,
          "velocity": 100
        },
        {
          "pitch": 65,
          "onset": 265.0,
          "duration": 0.5,
          "velocity": 100
        },
        {
          "pitch": 64,
          "onset": 265.5,
          "duration": 0.375,
          "velocity": 100
        },
        {
          "pitch": 62,
          "onset": 266.0,
          "duration": 0.25,
          "velocity": 100
        },
        {
          "pitch": 60,
          "onset": 266.25,
          "duration": 0.25,
          "velocity": 100
        },
        {
          "pitch": 59,
          "onset": 266.5,
          "duration": 0.25,
          "velocity": 100
        },
        {
          "pitch": 57,
          "onset": 266.75,
          "duration": 0.25,
          "velocity": 100
        },
        {
          "pitch": 59,
          "onset": 267.0,
          "duration": 0.25,
          "velocity": 100
        },
        {
          "pitch": 62,
          "onset": 267.25,
          "duration": 0.25,
          "velocity": 100
        },
        {
          "pitch": 60,
          "onset": 267.5,
          "duration": 0.25,
          "velocity": 100
        },
        {
          "pitch": 57,
          "onset": 267.75,
          "duration": 0.25,
          "velocity": 100
        },
        {
          "pitch": 59,
          "onset": 268.0,
          "duration": 0.25,
          "velocity": 100
        },
        {
          "pitch": 56,
          "onset": 268.25,
          "duration": 0.25,
          "velocity": 100
        },
        {
          "pitch": 57,
          "onset": 268.5,
          "duration": 0.375,
          "velocity": 100
        },
        {
          "pitch": 52,
          "onset": 269.0,
          "duration": 0.375,
          "velocity": 90
        },
        {
          "pitch": 48,
          "onset": 269.5,
          "duration": 0.375,
          "velocity": 90
        },
        {
          "pitch": 60,
          "onset": 271.0,
          "duration": 0.5,
          "velocity": 80
        },
        {
          "pitch": 60,
          "onset": 271.5,
          "duration": 1.0,
          "velocity": 80
        },
        {
          "pitch": 60,
          "onset": 274.0,
          "duration": 0.5,
          "velocity": 80
        },
        {
          "pitch": 59,
          "onset": 274.5,
          "duration": 1.0,
          "velocity": 80
        },
        {
          "pitch": 52,
          "onset": 276.0,
          "duration": 0.25,
          "velocity": 80
        },
        {
          "pitch": 53,
          "onset": 276.25,
          "duration": 0.25,
          "velocity": 80
        },
        {
          "pitch": 55,
          "onset": 276.5,
          "duration": 0.25,
          "velocity": 80
        },
        {
          "pitch": 57,
          "onset": 276.75,
          "duration": 0.25,
          "velocity": 80
        },
        {
          "pitch": 58,
          "onset": 277.0,
          "duration": 0.25,
          "velocity": 80
        },
        {
          "pitch": 55,
          "onset": 277.25,
          "duration": 0.25,
          "velocity": 80
        },
        {
          "pitch": 57,
          "onset": 277.5,
          "duration": 0.25,
          "velocity": 80
        },
        {
          "pitch": 55,
          "onset": 277.75,
          "duration": 0.25,
          "velocity": 80
        },
        {
          "pitch": 53,
          "onset": 278.0,
          "duration": 0.25,
          "velocity": 80
        },
        {
          "pitch": 52,
          "onset": 278.25,
          "duration": 0.25,
          "velocity": 80
        },
        {
          "pitch": 53,
          "onset": 278.5,
          "duration": 0.25,
          "velocity": 80
        },
        {
          "pitch": 62,
          "onset": 278.75,
          "duration": 0.25,
          "velocity": 80
        },
        {
          "pitch": 60,
          "onset": 279.0,
          "duration": 0.25,
          "velocity": 80
        },
        {
          "pitch": 59,
          "onset": 279.25,
          "duration": 0.25,
          "velocity": 80
        },
        {
          "pitch": 57,
          "onset": 279.5,
          "duration": 0.25,
          "velocity": 80
        },
        {
          "pitch": 55,
          "onset": 279.75,
          "duration": 0.25,
          "velocity": 80
        },
        {
          "pitch": 60,
          "onset": 280.0,
          "duration": 0.25,
          "velocity": 80
        },
        {
          "pitch": 52,
          "onset": 280.25,
          "duration": 0.25,
          "velocity": 80
        },
        {
          "pitch": 53,
          "onset": 280.75,
          "duration": 0.25,
          "velocity": 80
        },
        {
          "pitch": 52,
          "onset": 281.0,
          "duration": 0.25,
          "velocity": 80
        },
        {
          "pitch": 50,
          "onset": 281.25,
          "duration": 0.25,
          "velocity": 80
        },
        {
          "pitch": 52,
          "onset": 281.5,
          "duration": 0.25,
          "velocity": 80
        },
        {
          "pitch": 48,
          "onset": 281.75,
          "duration": 0.25,
          "velocity": 80
        },
        {
          "pitch": 55,
          "onset": 282.0,
          "duration": 1.0,
          "velocity": 80
        },
        {
          "pitch": 55,
          "onset": 283.0,
          "duration": 0.375,
          "velocity": 80
        },
        {
          "pitch": 53,
          "onset": 283.5,
          "duration": 0.375,
          "velocity": 80
        },
        {
          "pitch": 52,
          "onset": 284.0,
          "duration": 0.375,
          "velocity": 80
        },
        {
          "pitch": 50,
          "onset": 284.5,
          "duration": 0.375,
          "velocity": 80
        },
        {
          "pitch": 52,
          "onset": 285.0,
          "duration": 0.375,
          "velocity": 80
        },
        {
          "pitch": 50,
          "onset": 285.5,
          "duration": 0.375,
          "velocity": 80
        },
        {
          "pitch": 52,
          "onset": 286.0,
          "duration": 0.375,
          "velocity": 80
        },
        {
          "pitch": 53,
          "onset": 286.5,
          "duration": 0.375,
          "velocity": 80
        },
        {
          "pitch": 52,
          "onset": 287.0,
          "duration": 0.375,
          "velocity": 80
        },
        {
          "pitch": 50,
          "onset": 287.5,
          "duration": 0.375,
          "velocity": 80
        },
        {
          "pitch": 52,
          "onset": 288.0,
          "duration": 0.375,
          "velocity": 80
        },
        {
          "pitch": 54,
          "onset": 288.5,
          "duration": 0.375,
          "velocity": 81
        },
        {
          "pitch": 55,
          "onset": 289.0,
          "duration": 0.375,
          "velocity": 83
        },
        {
          "pitch": 54,
          "onset": 289.5,
          "duration": 0.25,
          "velocity": 85
        },
        {
          "pitch": 57,
          "onset": 289.75,
          "duration": 0.375,
          "velocity": 86
        },
        {
          "pitch": 57,
          "onset": 290.25,
          "duration": 0.375,
          "velocity": 87
        },
        {
          "pitch": 57,
          "onset": 290.75,
          "duration": 0.375,
          "velocity": 89
        },
        {
          "pitch": 57,
          "onset": 291.25,
          "duration": 0.375,
          "velocity": 91
        },
        {
          "pitch": 57,
          "onset": 291.75,
          "duration": 0.375,
          "velocity": 93
        },
        {
          "pitch": 57,
          "onset": 292.25,
          "duration": 0.25,
          "velocity": 94
        },
        {
          "pitch": 54,
          "onset": 292.5,
          "duration": 0.25,
          "velocity": 95
        },
        {
          "pitch": 60,
          "onset": 292.75,
          "duration": 0.375,
          "velocity": 96
        },
        {
          "pitch": 60,
          "onset": 293.25,
          "duration": 0.375,
          "velocity": 98
        },
        {
          "pitch": 60,
          "onset": 293.75,
          "duration": 0.375,
          "velocity": 100
        },
        {
          "pitch": 60,
          "onset": 294.25,
          "duration": 0.375,
          "velocity": 100
        },
        {
          "pitch": 60,
          "onset": 294.75,
          "duration": 0.375,
          "velocity": 100
        },
        {
          "pitch": 60,
          "onset": 295.25,
          "duration": 0.25,
          "velocity": 100
        },
        {
          "pitch": 59,
          "onset": 295.5,
          "duration": 0.375,
          "velocity": 100
        },
        {
          "pitch": 57,
          "onset": 296.0,
          "duration": 0.375,
          "velocity": 100
        },
        {
          "pitch": 59,
          "onset": 296.5,
          "duration": 0.375,
          "velocity": 100
        },
        {
          "pitch": 60,
          "onset": 297.0,
          "duration": 0.375,
          "velocity": 100
        },
        {
          "pitch": 59,
          "onset": 297.5,
          "duration": 0.375,
          "velocity": 100
        },
        {
          "pitch": 57,
          "onset": 298.0,
          "duration": 0.375,
          "velocity": 100
        },
        {
          "pitch": 59,
          "onset": 298.5,
          "duration": 0.375,
          "velocity": 100
        },
        {
          "pitch": 62,
          "onset": 299.0,
          "duration": 0.375,
          "velocity": 100
        },
        {
          "pitch": 65,
          "onset": 299.5,
          "duration": 0.375,
          "velocity": 100
        },
        {
          "pitch": 50,
          "onset": 301.0,
          "duration": 0.375,
          "velocity": 100
        },
        {
          "pitch": 53,
          "onset": 301.5,
          "duration": 0.25,
          "velocity": 100
        },
        {
          "pitch": 55,
          "onset": 301.75,
          "duration": 0.25,
          "velocity": 100
        },
        {
          "pitch": 56,
          "onset": 302.0,
          "duration": 0.375,
          "velocity": 100
        },
        {
          "pitch": 55,
          "onset": 302.5,
          "duration": 0.375,
          "velocity": 100
        },
        {
          "pitch": 53,
          "onset": 303.0,
          "duration": 0.375,
          "velocity": 100
        },
        {
          "pitch": 51,
          "onset": 303.5,
          "duration": 0.375,
          "velocity": 100
        },
        {
          "pitch": 50,
          "onset": 304.0,
          "duration": 0.375,
          "velocity": 100
        },
        {
          "pitch": 59,
          "onset": 304.5,
          "duration": 0.5,
          "velocity": 100
        },
        {
          "pitch": 60,
          "onset": 305.0,
          "duration": 0.375,
          "velocity": 100
        },
        {
          "pitch": 50,
          "onset": 305.5,
          "duration": 0.375,
          "velocity": 100
        },
        {
          "pitch": 59,
          "onset": 306.0,
          "duration": 0.5,
          "velocity": 100
        },
        {
          "pitch": 60,
          "onset": 306.5,
          "duration": 0.375,
          "velocity": 100
        },
        {
          "pitch": 50,
          "onset": 307.0,
          "duration": 0.375,
          "velocity": 100
        },
        {
          "pitch": 53,
          "onset": 307.5,
          "duration": 0.25,
          "velocity": 100
        },
        {
          "pitch": 55,
          "onset": 307.75,
          "duration": 0.25,
          "velocity": 100
        },
        {
          "pitch": 56,
          "onset": 308.0,
          "duration": 0.375,
          "velocity": 100
        },
        {
          "pitch": 55,
          "onset": 308.5,
          "duration": 0.375,
          "velocity": 100
        },
        {
          "pitch": 53,
          "onset": 309.0,
          "duration": 0.375,
          "velocity": 100
        },
        {
          "pitch": 51,
          "onset": 309.5,
          "duration": 0.375,
          "velocity": 100
        },
        {
          "pitch": 50,
          "onset": 310.0,
          "duration": 0.375,
          "velocity": 100
        },
        {
          "pitch": 54,
          "onset": 310.5,
          "duration": 0.5,
          "velocity": 100
        },
        {
          "pitch": 55,
          "onset": 311.0,
          "duration": 0.375,
          "velocity": 100
        },
        {
          "pitch": 50,
          "onset": 311.5,
          "duration": 0.375,
          "velocity": 100
        },
        {
          "pitch": 54,
          "onset": 312.0,
          "duration": 0.5,
          "velocity": 100
        },
        {
          "pitch": 55,
          "onset": 312.5,
          "duration": 0.25,
          "velocity": 90
        },
        {
          "pitch": 53,
          "onset": 312.75,
          "duration": 0.25,
          "velocity": 87
        },
        {
          "pitch": 52,
          "onset": 313.0,
          "duration": 0.25,
          "velocity": 83
        },
        {
          "pitch": 50,
          "onset": 313.25,
          "duration": 0.25,
          "velocity": 80
        },
        {
          "pitch": 52,
          "onset": 313.75,
          "duration": 0.25,
          "velocity": 80
        },
        {
          "pitch": 55,
          "onset": 314.0,
          "duration": 0.375,
          "velocity": 80
        },
        {
          "pitch": 57,
          "onset": 314.5,
          "duration": 0.375,
          "velocity": 80
        },
        {
          "pitch": 53,
          "onset": 315.25,
          "duration": 0.25,
          "velocity": 80
        },
        {
          "pitch": 57,
          "onset": 315.5,
          "duration": 0.375,
          "velocity": 80
        },
        {
          "pitch": 59,
          "onset": 316.0,
          "duration": 0.375,
          "velocity": 80
        },
        {
          "pitch": 55,
          "onset": 316.75,
          "duration": 0.25,
          "velocity": 80
        },
        {
          "pitch": 60,
          "onset": 317.0,
          "duration": 0.25,
          "velocity": 80
        },
        {
          "pitch": 57,
          "onset": 317.25,
          "duration": 0.25,
          "velocity": 80
        },
        {
          "pitch": 58,
          "onset": 317.5,
          "duration": 0.25,
          "velocity": 80
        },
        {
          "pitch": 55,
          "onset": 317.75,
          "duration": 0.25,
          "velocity": 80
        },
        {
          "pitch": 57,
          "onset": 318.0,
          "duration": 0.25,
          "velocity": 80
        },
        {
          "pitch": 53,
          "onset": 318.25,
          "duration": 0.25,
          "velocity": 80
        },
        {
          "pitch": 50,
          "onset": 318.5,
          "duration": 0.25,
          "velocity": 80
        },
        {
          "pitch": 53,
          "onset": 318.75,
          "duration": 0.25,
          "velocity": 80
        },
        {
          "pitch": 52,
          "onset": 319.0,
          "duration": 0.25,
          "velocity": 80
        },
        {
          "pitch": 50,
          "onset": 319.25,
          "duration": 0.25,
          "velocity": 80
        },
        {
          "pitch": 55,
          "onset": 319.5,
          "duration": 0.25,
          "velocity": 80
        },
        {
          "pitch": 50,
          "onset": 319.75,
          "duration": 0.375,
          "velocity": 80
        },
        {
          "pitch": 43,
          "onset": 321.25,
          "duration": 0.25,
          "velocity": 80
        },
        {
          "pitch": 48,
          "onset": 321.5,
          "duration": 0.375,
          "velocity": 80
        },
        {
          "pitch": 47,
          "onset": 322.25,
          "duration": 0.25,
          "velocity": 80
        },
        {
          "pitch": 48,
          "onset": 322.5,
          "duration": 0.375,
          "velocity": 80
        },
        {
          "pitch": 52,
          "onset": 323.0,
          "duration": 0.375,
          "velocity": 85
        },
        {
          "pitch": 55,
          "onset": 323.5,
          "duration": 0.375,
          "velocity": 90
        },
        {
          "pitch": 52,
          "onset": 324.0,
          "duration": 2.5,
          "velocity": 100
        },
        {
          "pitch": 60,
          "onset": 324.0,
          "duration": 2.5,
          "velocity": 100
        },
        {
          "pitch": 48,
          "onset": 329.75,
          "duration": 0.25,
          "velocity": 1
        }
      ]
    },
    {
      "role": "solo_1",
      "notes": [
        {
          "pitch": 48,
          "onset": 0.0,
          "duration": 0.25,
          "velocity": 1
        },
        {
          "pitch": 48,
          "onset": 31.5,
          "duration": 0.375,
          "velocity": 80
        },
        {
          "pitch": 47,
          "onset": 32.0,
          "duration": 0.375,
          "velocity": 80
        },
        {
          "pitch": 45,
          "onset": 32.5,
          "duration": 0.375,
          "velocity": 80
        },
        {
          "pitch": 47,
          "onset": 33.0,
          "duration": 0.375,
          "velocity": 80
        },
        {
          "pitch": 45,
          "onset": 33.5,
          "duration": 0.375,
          "velocity": 80
        },
        {
          "pitch": 47,
          "onset": 34.0,
          "duration": 0.375,
          "velocity": 80
        },
        {
          "pitch": 48,
          "onset": 34.5,
          "duration": 0.375,
          "velocity": 80
        },
        {
          "pitch": 47,
          "onset": 35.0,
          "duration": 0.375,
          "velocity": 80
        },
        {
          "pitch": 45,
          "onset": 35.5,
          "duration": 0.375,
          "velocity": 80
        },
        {
          "pitch": 47,
          "onset": 36.0,
          "duration": 0.375,
          "velocity": 80
        },
        {
          "pitch": 45,
          "onset": 36.5,
          "duration": 0.375,
          "velocity": 80
        },
        {
          "pitch": 43,
          "onset": 37.0,
          "duration": 0.375,
          "velocity": 80
        },
        {
          "pitch": 43,
          "onset": 37.75,
          "duration": 0.375,
          "velocity": 80
        },
        {
          "pitch": 43,
          "onset": 38.25,
          "duration": 0.375,
          "velocity": 81
        },
        {
          "pitch": 43,
          "onset": 38.75,
          "duration": 0.25,
          "velocity": 82
        },
        {
          "pitch": 43,
          "onset": 39.25,
          "duration": 0.375,
          "velocity": 83
        },
        {
          "pitch": 43,
          "onset": 39.75,
          "duration": 0.375,
          "velocity": 84
        },
        {
          "pitch": 43,
          "onset": 40.25,
          "duration": 0.25,
          "velocity": 85
        },
        {
          "pitch": 43,
          "onset": 40.75,
          "duration": 0.375,
          "velocity": 86
        },
        {
          "pitch": 43,
          "onset": 41.25,
          "duration": 0.375,
          "velocity": 87
        },
        {
          "pitch": 43,
          "onset": 41.75,
          "duration": 0.25,
          "velocity": 88
        },
        {
          "pitch": 43,
          "onset": 42.25,
          "duration": 0.375,
          "velocity": 89
        },
        {
          "pitch": 43,
          "onset": 42.75,
          "duration": 0.375,
          "velocity": 90
        },
        {
          "pitch": 43,
          "onset": 43.25,
          "duration": 0.25,
          "velocity": 91
        },
        {
          "pitch": 43,
          "onset": 43.75,
          "duration": 0.375,
          "velocity": 92
        },
        {
          "pitch": 43,
          "onset": 44.25,
          "duration": 0.375,
          "velocity": 93
        },
        {
          "pitch": 43,
          "onset": 44.75,
          "duration": 0.375,
          "velocity": 94
        },
        {
          "pitch": 43,
          "onset": 45.25,
          "duration": 0.375,
          "velocity": 95
        },
        {
          "pitch": 43,
          "onset": 45.75,
          "duration": 0.375,
          "velocity": 96
        },
        {
          "pitch": 43,
          "onset": 46.25,
          "duration": 0.375,
          "velocity": 97
        },
        {
          "pitch": 43,
          "onset": 46.75,
          "duration": 0.375,
          "velocity": 98
        },
        {
          "pitch": 43,
          "onset": 47.25,
          "duration": 0.375,
          "velocity": 99
        },
        {
          "pitch": 50,
          "onset": 48.0,
          "duration": 1.0,
          "velocity": 100
        },
        {
          "pitch": 50,
          "onset": 49.5,
          "duration": 0.5,
          "velocity": 100
        },
        {
          "pitch": 50,
          "onset": 50.0,
          "duration": 0.5,
          "velocity": 100
        },
        {
          "pitch": 50,
          "onset": 50.5,
          "duration": 0.5,
          "velocity": 100
        },
        {
          "pitch": 50,
          "onset": 51.0,
          "duration": 0.5,
          "velocity": 100
        },
        {
          "pitch": 50,
          "onset": 51.5,
          "duration": 0.5,
          "velocity": 100
        },
        {
          "pitch": 50,
          "onset": 52.0,
          "duration": 0.5,
          "velocity": 100
        },
        {
          "pitch": 50,
          "onset": 52.5,
          "duration": 1.0,
          "velocity": 100
        },
        {
          "pitch": 50,
          "onset": 53.5,
          "duration": 0.5,
          "velocity": 100
        },
        {
          "pitch": 50,
          "onset": 54.0,
          "duration": 1.0,
          "velocity": 100
        },
        {
          "pitch": 50,
          "onset": 55.0,
          "duration": 0.5,
          "velocity": 100
        },
        {
          "pitch": 50,
          "onset": 55.5,
          "duration": 0.5,
          "velocity": 100
        },
        {
          "pitch": 50,
          "onset": 56.0,
          "duration": 0.5,
          "velocity": 100
        },
        {
          "pitch": 50,
          "onset": 56.5,
          "duration": 0.5,
          "velocity": 100
        },
        {
          "pitch": 50,
          "onset": 57.0,
          "duration": 0.5,
          "velocity": 100
        },
        {
          "pitch": 50,
          "onset": 57.5,
          "duration": 0.5,
          "velocity": 100
        },
        {
          "pitch": 50,
          "onset": 58.0,
          "duration": 0.5,
          "velocity": 100
        },
        {
          "pitch": 50,
          "onset": 58.5,
          "duration": 1.0,
          "velocity": 100
        },
        {
          "pitch": 50,
          "onset": 59.5,
          "duration": 0.5,
          "velocity": 100
        },
        {
          "pitch": 50,
          "onset": 60.0,
          "duration": 1.0,
          "velocity": 100
        },
        {
          "pitch": 43,
          "onset": 61.5,
          "duration": 0.375,
          "velocity": 80
        },
        {
          "pitch": 45,
          "onset": 63.0,
          "duration": 0.375,
          "velocity": 80
        },
        {
          "pitch": 47,
          "onset": 64.5,
          "duration": 0.375,
          "velocity": 80
        },
        {
          "pitch": 48,
          "onset": 66.0,
          "duration": 0.375,
          "velocity": 80
        },
        {
          "pitch": 47,
          "onset": 69.0,
          "duration": 0.375,
          "velocity": 80
        },
        {
          "pitch": 47,
          "onset": 69.75,
          "duration": 0.25,
          "velocity": 80
        },
        {
          "pitch": 45,
          "onset": 70.0,
          "duration": 0.375,
          "velocity": 80
        },
        {
          "pitch": 43,
          "onset": 72.0,
          "duration": 1.0,
          "velocity": 80
        },
        {
          "pitch": 48,
          "onset": 103.5,
          "duration": 0.375,
          "velocity": 80
        },
        {
          "pitch": 47,
          "onset": 104.0,
          "duration": 0.375,
          "velocity": 80
        },
        {
          "pitch": 45,
          "onset": 104.5,
          "duration": 0.375,
          "velocity": 80
        },
        {
          "pitch": 47,
          "onset": 105.0,
          "duration": 0.375,
          "velocity": 80
        },
        {
          "pitch": 45,
          "onset": 105.5,
          "duration": 0.375,
          "velocity": 80
        },
        {
          "pitch": 47,
          "onset": 106.0,
          "duration": 0.375,
          "velocity": 80
        },
        {
          "pitch": 48,
          "onset": 106.5,
          "duration": 0.375,
          "velocity": 80
        },
        {
          "pitch": 47,
          "onset": 107.0,
          "duration": 0.375,
          "velocity": 80
        },
        {
          "pitch": 45,
          "onset": 107.5,
          "duration": 0.375,
          "velocity": 80
        },
        {
          "pitch": 47,
          "onset": 108.0,
          "duration": 0.375,
          "velocity": 80
        },
        {
          "pitch": 45,
          "onset": 108.5,
          "duration": 0.375,
          "velocity": 80
        },
        {
          "pitch": 43,
          "onset": 109.0,
          "duration": 0.375,
          "velocity": 80
        },
        {
          "pitch": 43,
          "onset": 109.75,
          "duration": 0.375,
          "velocity": 80
        },
        {
          "pitch": 43,
          "onset": 110.25,
          "duration": 0.375,
          "velocity": 81
        },
        {
          "pitch": 43,
          "onset": 110.75,
          "duration": 0.25,
          "velocity": 82
        },
        {
          "pitch": 43,
          "onset": 111.25,
          "duration": 0.375,
          "velocity": 83
        },
        {
          "pitch": 43,
          "onset": 111.75,
          "duration": 0.375,
          "velocity": 84
        },
        {
          "pitch": 43,
          "onset": 112.25,
          "duration": 0.25,
          "velocity": 85
        },
        {
          "pitch": 43,
          "onset": 112.75,
          "duration": 0.375,
          "velocity": 86
        },
        {
          "pitch": 43,
          "onset": 113.25,
          "duration": 0.375,
          "velocity": 87
        },
        {
          "pitch": 43,
          "onset": 113.75,
          "duration": 0.25,
          "velocity": 88
        },
        {
          "pitch": 43,
          "onset": 114.25,
          "duration": 0.375,
          "velocity": 89
        },
        {
          "pitch": 43,
          "onset": 114.75,
          "duration": 0.375,
          "velocity": 90
        },
        {
          "pitch": 43,
          "onset": 115.25,
          "duration": 0.25,
          "velocity": 91
        },
        {
          "pitch": 43,
          "onset": 115.75,
          "duration": 0.375,
          "velocity": 92
        },
        {
          "pitch": 43,
          "onset": 116.25,
          "duration": 0.375,
          "velocity": 93
        },
        {
          "pitch": 43,
          "onset": 116.75,
          "duration": 0.375,
          "velocity": 94
        },
        {
          "pitch": 43,
          "onset": 117.25,
          "duration": 0.375,
          "velocity": 95
        },
        {
          "pitch": 43,
          "onset": 117.75,
          "duration": 0.375,
          "velocity": 96
        },
        {
          "pitch": 43,
          "onset": 118.25,
          "duration": 0.375,
          "velocity": 97
        },
        {
          "pitch": 43,
          "onset": 118.75,
          "duration": 0.375,
          "velocity": 98
        },
        {
          "pitch": 43,
          "onset": 119.25,
          "duration": 0.375,
          "velocity": 99
        },
        {
          "pitch": 50,
          "onset": 120.0,
          "duration": 1.0,
          "velocity": 100
        },
        {
          "pitch": 50,
          "onset": 121.5,
          "duration": 0.5,
          "velocity": 100
        },
        {
          "pitch": 50,
          "onset": 122.0,
          "duration": 0.5,
          "velocity": 100
        },
        {
          "pitch": 50,
          "onset": 122.5,
          "duration": 0.5,
          "velocity": 100
        },
        {
          "pitch": 50,
          "onset": 123.0,
          "duration": 0.5,
          "velocity": 100
        },
        {
          "pitch": 50,
          "onset": 123.5,
          "duration": 0.5,
          "velocity": 100
        },
        {
          "pitch": 50,
          "onset": 124.0,
          "duration": 0.5,
          "velocity": 100
        },
        {
          "pitch": 50,
          "onset": 124.5,
          "duration": 1.0,
          "velocity": 100
        },
        {
          "pitch": 50,
          "onset": 125.5,
          "duration": 0.5,
          "velocity": 100
        },
        {
          "pitch": 50,
          "onset": 126.0,
          "duration": 1.0,
          "velocity": 100
        },
        {
          "pitch": 50,
          "onset": 127.0,
          "duration": 0.5,
          "velocity": 100
        },
        {
          "pitch": 50,
          "onset": 127.5,
          "duration": 0.5,
          "velocity": 100
        },
        {
          "pitch": 50,
          "onset": 128.0,
          "duration": 0.5,
          "velocity": 100
        },
        {
          "pitch": 50,
          "onset": 128.5,
          "duration": 0.5,
          "velocity": 100
        },
        {
          "pitch": 50,
          "onset": 129.0,
          "duration": 0.5,
          "velocity": 100
        },
        {
          "pitch": 50,
          "onset": 129.5,
          "duration": 0.5,
          "velocity": 100
        },
        {
          "pitch": 50,
          "onset": 130.0,
          "duration": 0.5,
          "velocity": 100
        },
        {
          "pitch": 50,
          "onset": 130.5,
          "duration": 1.0,
          "velocity": 100
        },
        {
          "pitch": 50,
          "onset": 131.5,
          "duration": 0.5,
          "velocity": 100
        },
        {
          "pitch": 50,
          "onset": 132.0,
          "duration": 1.0,
          "velocity": 100
        },
        {
          "pitch": 43,
          "onset": 133.5,
          "duration": 0.375,
          "velocity": 80
        },
        {
          "pitch": 45,
          "onset": 135.0,
          "duration": 0.375,
          "velocity": 80
        },
        {
          "pitch": 47,
          "onset": 136.5,
          "duration": 0.375,
          "velocity": 80
        },
        {
          "pitch": 48,
          "onset": 138.0,
          "duration": 0.375,
          "velocity": 80
        },
        {
          "pitch": 47,
          "onset": 141.0,
          "duration": 0.375,
          "velocity": 80
        },
        {
          "pitch": 47,
          "onset": 141.75,
          "duration": 0.25,
          "velocity": 80
        },
        {
          "pitch": 45,
          "onset": 142.0,
          "duration": 0.375,
          "velocity": 80
        },
        {
          "pitch": 43,
          "onset": 144.0,
          "duration": 1.0,
          "velocity": 80
        },
        {
          "pitch": 48,
          "onset": 148.5,
          "duration": 0.375,
          "velocity": 80
        },
        {
          "pitch": 36,
          "onset": 150.5,
          "duration": 0.375,
          "velocity": 80
        },
        {
          "pitch": 50,
          "onset": 153.0,
          "duration": 0.375,
          "velocity": 80
        },
        {
          "pitch": 41,
          "onset": 167.0,
          "duration": 0.25,
          "velocity": 80
        },
        {
          "pitch": 43,
          "onset": 167.25,
          "duration": 0.25,
          "velocity": 80
        },
        {
          "pitch": 45,
          "onset": 167.5,
          "duration": 0.25,
          "velocity": 80
        },
        {
          "pitch": 46,
          "onset": 167.75,
          "duration": 0.25,
          "velocity": 80
        },
        {
          "pitch": 48,
          "onset": 168.0,
          "duration": 0.5,
          "velocity": 80
        },
        {
          "pitch": 41,
          "onset": 168.5,
          "duration": 0.375,
          "velocity": 80
        },
        {
          "pitch": 45,
          "onset": 180.0,
          "duration": 1.0,
          "velocity": 80
        },
        {
          "pitch": 54,
          "onset": 181.5,
          "duration": 0.25,
          "velocity": 80
        },
        {
          "pitch": 52,
          "onset": 181.75,
          "duration": 0.25,
          "velocity": 80
        },
        {
          "pitch": 54,
          "onset": 182.0,
          "duration": 0.375,
          "velocity": 80
        },
        {
          "pitch": 50,
          "onset": 182.5,
          "duration": 0.375,
          "velocity": 80
        },
        {
          "pitch": 38,
          "onset": 183.0,
          "duration": 0.25,
          "velocity": 80
        },
        {
          "pitch": 45,
          "onset": 183.25,
          "duration": 0.25,
          "velocity": 80
        },
        {
          "pitch": 50,
          "onset": 183.5,
          "duration": 0.375,
          "velocity": 80
        },
        {
          "pitch": 54,
          "onset": 184.0,
          "duration": 0.375,
          "velocity": 80
        },
        {
          "pitch": 55,
          "onset": 184.5,
          "duration": 0.25,
          "velocity": 80
        },
        {
          "pitch": 54,
          "onset": 184.75,
          "duration": 0.25,
          "velocity": 80
        },
        {
          "pitch": 55,
          "onset": 185.0,
          "duration": 0.375,
          "velocity": 80
        },
        {
          "pitch": 50,
          "onset": 185.5,
          "duration": 0.375,
          "velocity": 80
        },
        {
          "pitch": 43,
          "onset": 190.5,
          "duration": 0.375,
          "velocity": 80
        },
        {
          "pitch": 43,
          "onset": 193.75,
          "duration": 0.375,
          "velocity": 80
        },
        {
          "pitch": 43,
          "onset": 194.25,
          "duration": 0.375,
          "velocity": 80
        },
        {
          "pitch": 43,
          "onset": 194.75,
          "duration": 0.375,
          "velocity": 80
        },
        {
          "pitch": 43,
          "onset": 195.25,
          "duration": 0.375,
          "velocity": 80
        },
        {
          "pitch": 43,
          "onset": 195.75,
          "duration": 0.375,
          "velocity": 80
        },
        {
          "pitch": 43,
          "onset": 196.25,
          "duration": 0.375,
          "velocity": 80
        },
        {
          "pitch": 43,
          "onset": 196.75,
          "duration": 0.375,
          "velocity": 80
        },
        {
          "pitch": 43,
          "onset": 197.25,
          "duration": 0.375,
          "velocity": 80
        },
        {
          "pitch": 43,
          "onset": 197.75,
          "duration": 0.375,
          "velocity": 80
        },
        {
          "pitch": 43,
          "onset": 198.25,
          "duration": 0.375,
          "velocity": 80
        },
        {
          "pitch": 43,
          "onset": 198.75,
          "duration": 0.375,
          "velocity": 82
        },
        {
          "pitch": 43,
          "onset": 199.25,
          "duration": 0.25,
          "velocity": 84
        },
        {
          "pitch": 43,
          "onset": 199.5,
          "duration": 0.5,
          "velocity": 85
        },
        {
          "pitch": 50,
          "onset": 200.0,
          "duration": 0.375,
          "velocity": 86
        },
        {
          "pitch": 52,
          "onset": 200.5,
          "duration": 0.375,
          "velocity": 88
        },
        {
          "pitch": 54,
          "onset": 201.0,
          "duration": 0.375,
          "velocity": 90
        },
        {
          "pitch": 55,
          "onset": 201.5,
          "duration": 0.375,
          "velocity": 92
        },
        {
          "pitch": 52,
          "onset": 202.0,
          "duration": 0.375,
          "velocity": 93
        },
        {
          "pitch": 43,
          "onset": 202.5,
          "duration": 0.5,
          "velocity": 95
        },
        {
          "pitch": 50,
          "onset": 203.0,
          "duration": 0.375,
          "velocity": 97
        },
        {
          "pitch": 52,
          "onset": 203.5,
          "duration": 0.375,
          "velocity": 99
        },
        {
          "pitch": 54,
          "onset": 204.0,
          "duration": 0.375,
          "velocity": 100
        },
        {
          "pitch": 52,
          "onset": 204.5,
          "duration": 0.375,
          "velocity": 100
        },
        {
          "pitch": 50,
          "onset": 205.0,
          "duration": 0.375,
          "velocity": 100
        },
        {
          "pitch": 50,
          "onset": 205.75,
          "duration": 0.375,
          "velocity": 100
        },
        {
          "pitch": 50,
          "onset": 206.25,
          "duration": 0.375,
          "velocity": 100
        },
        {
          "pitch": 50,
          "onset": 206.75,
          "duration": 0.375,
          "velocity": 100
        },
        {
          "pitch": 50,
          "onset": 207.25,
          "duration": 0.375,
          "velocity": 100
        },
        {
          "pitch": 50,
          "onset": 207.75,
          "duration": 0.375,
          "velocity": 100
        },
        {
          "pitch": 50,
          "onset": 208.25,
          "duration": 0.375,
          "velocity": 100
        },
        {
          "pitch": 50,
          "onset": 208.75,
          "duration": 0.375,
          "velocity": 100
        },
        {
          "pitch": 50,
          "onset": 209.25,
          "duration": 0.375,
          "velocity": 100
        },
        {
          "pitch": 43,
          "onset": 210.0,
          "duration": 1.0,
          "velocity": 100
        },
        {
          "pitch": 43,
          "onset": 211.5,
          "duration": 0.5,
          "velocity": 100
        },
        {
          "pitch": 43,
          "onset": 212.0,
          "duration": 0.5,
          "velocity": 100
        },
        {
          "pitch": 43,
          "onset": 212.5,
          "duration": 0.5,
          "velocity": 100
        },
        {
          "pitch": 43,
          "onset": 213.0,
          "duration": 0.5,
          "velocity": 100
        },
        {
          "pitch": 43,
          "onset": 213.5,
          "duration": 0.5,
          "velocity": 100
        },
        {
          "pitch": 43,
          "onset": 214.0,
          "duration": 0.5,
          "velocity": 100
        },
        {
          "pitch": 43,
          "onset": 214.5,
          "duration": 1.0,
          "velocity": 100
        },
        {
          "pitch": 43,
          "onset": 215.5,
          "duration": 0.5,
          "velocity": 100
        },
        {
          "pitch": 43,
          "onset": 216.0,
          "duration": 1.0,
          "velocity": 100
        },
        {
          "pitch": 43,
          "onset": 217.0,
          "duration": 0.5,
          "velocity": 100
        },
        {
          "pitch": 43,
          "onset": 217.5,
          "duration": 0.5,
          "velocity": 100
        },
        {
          "pitch": 43,
          "onset": 218.0,
          "duration": 0.5,
          "velocity": 100
        },
        {
          "pitch": 43,
          "onset": 218.5,
          "duration": 0.5,
          "velocity": 100
        },
        {
          "pitch": 43,
          "onset": 219.0,
          "duration": 0.5,
          "velocity": 100
        },
        {
          "pitch": 43,
          "onset": 219.5,
          "duration": 0.5,
          "velocity": 100
        },
        {
          "pitch": 43,
          "onset": 220.0,
          "duration": 0.5,
          "velocity": 100
        },
        {
          "pitch": 43,
          "onset": 220.5,
          "duration": 1.0,
          "velocity": 100
        },
        {
          "pitch": 43,
          "onset": 221.5,
          "duration": 0.5,
          "velocity": 100
        },
        {
          "pitch": 43,
          "onset": 222.0,
          "duration": 0.5,
          "velocity": 100
        },
        {
          "pitch": 48,
          "onset": 223.5,
          "duration": 0.375,
          "velocity": 80
        },
        {
          "pitch": 50,
          "onset": 225.0,
          "duration": 0.375,
          "velocity": 80
        },
        {
          "pitch": 52,
          "onset": 226.5,
          "duration": 0.375,
          "velocity": 80
        },
        {
          "pitch": 47,
          "onset": 230.0,
          "duration": 0.25,
          "velocity": 80
        },
        {
          "pitch": 45,
          "onset": 230.25,
          "duration": 0.25,
          "velocity": 80
        },
        {
          "pitch": 43,
          "onset": 230.5,
          "duration": 0.25,
          "velocity": 80
        },
        {
          "pitch": 41,
          "onset": 230.75,
          "duration": 0.25,
          "velocity": 80
        },
        {
          "pitch": 40,
          "onset": 231.0,
          "duration": 0.375,
          "velocity": 80
        },
        {
          "pitch": 40,
          "onset": 231.75,
          "duration": 0.25,
          "velocity": 80
        },
        {
          "pitch": 38,
          "onset": 232.0,
          "duration": 0.375,
          "velocity": 80
        },
        {
          "pitch": 36,
          "onset": 234.0,
          "duration": 0.5,
          "velocity": 100
        },
        {
          "pitch": 43,
          "onset": 234.0,
          "duration": 0.5,
          "velocity": 100
        },
        {
          "pitch": 48,
          "onset": 238.5,
          "duration": 0.375,
          "velocity": 80
        },
        {
          "pitch": 36,
          "onset": 240.5,
          "duration": 0.375,
          "velocity": 80
        },
        {
          "pitch": 50,
          "onset": 243.0,
          "duration": 0.375,
          "velocity": 80
        },
        {
          "pitch": 41,
          "onset": 257.0,
          "duration": 0.25,
          "velocity": 80
        },
        {
          "pitch": 43,
          "onset": 257.25,
          "duration": 0.25,
          "velocity": 80
        },
        {
          "pitch": 45,
          "onset": 257.5,
          "duration": 0.25,
          "velocity": 80
        },
        {
          "pitch": 46,
          "onset": 257.75,
          "duration": 0.25,
          "velocity": 80
        },
        {
          "pitch": 48,
          "onset": 258.0,
          "duration": 0.5,
          "velocity": 80
        },
        {
          "pitch": 41,
          "onset": 258.5,
          "duration": 0.375,
          "velocity": 80
        },
        {
          "pitch": 45,
          "onset": 270.0,
          "duration": 1.0,
          "velocity": 80
        },
        {
          "pitch": 54,
          "onset": 271.5,
          "duration": 0.25,
          "velocity": 80
        },
        {
          "pitch": 52,
          "onset": 271.75,
          "duration": 0.25,
          "velocity": 80
        },
        {
          "pitch": 54,
          "onset": 272.0,
          "duration": 0.375,
          "velocity": 80
        },
        {
          "pitch": 50,
          "onset": 272.5,
          "duration": 0.375,
          "velocity": 80
        },
        {
          "pitch": 38,
          "onset": 273.0,
          "duration": 0.25,
          "velocity": 80
        },
        {
          "pitch": 45,
          "onset": 273.25,
          "duration": 0.25,
          "velocity": 80
        },
        {
          "pitch": 50,
          "onset": 273.5,
          "duration": 0.375,
          "velocity": 80
        },
        {
          "pitch": 54,
          "onset": 274.0,
          "duration": 0.375,
          "velocity": 80
        },
        {
          "pitch": 55,
          "onset": 274.5,
          "duration": 0.25,
          "velocity": 80
        },
        {
          "pitch": 54,
          "onset": 274.75,
          "duration": 0.25,
          "velocity": 80
        },
        {
          "pitch": 55,
          "onset": 275.0,
          "duration": 0.375,
          "velocity": 80
        },
        {
          "pitch": 50,
          "onset": 275.5,
          "duration": 0.375,
          "velocity": 80
        },
        {
          "pitch": 43,
          "onset": 280.5,
          "duration": 0.375,
          "velocity": 80
        },
        {
          "pitch": 43,
          "onset": 283.75,
          "duration": 0.375,
          "velocity": 80
        },
        {
          "pitch": 43,
          "onset": 284.25,
          "duration": 0.375,
          "velocity": 80
        },
        {
          "pitch": 43,
          "onset": 284.75,
          "duration": 0.375,
          "velocity": 80
        },
        {
          "pitch": 43,
          "onset": 285.25,
          "duration": 0.375,
          "velocity": 80
        },
        {
          "pitch": 43,
          "onset": 285.75,
          "duration": 0.375,
          "velocity": 80
        },
        {
          "pitch": 43,
          "onset": 286.25,
          "duration": 0.375,
          "velocity": 80
        },
        {
          "pitch": 43,
          "onset": 286.75,
          "duration": 0.375,
          "velocity": 80
        },
        {
          "pitch": 43,
          "onset": 287.25,
          "duration": 0.375,
          "velocity": 80
        },
        {
          "pitch": 43,
          "onset": 287.75,
          "duration": 0.375,
          "velocity": 80
        },
        {
          "pitch": 43,
          "onset": 288.25,
          "duration": 0.375,
          "velocity": 80
        },
        {
          "pitch": 43,
          "onset": 288.75,
          "duration": 0.375,
          "velocity": 82
        },
        {
          "pitch": 43,
          "onset": 289.25,
          "duration": 0.25,
          "velocity": 84
        },
        {
          "pitch": 43,
          "onset": 289.5,
          "duration": 0.5,
          "velocity": 85
        },
        {
          "pitch": 50,
          "onset": 290.0,
          "duration": 0.375,
          "velocity": 86
        },
        {
          "pitch": 52,
          "onset": 290.5,
          "duration": 0.375,
          "velocity": 88
        },
        {
          "pitch": 54,
          "onset": 291.0,
          "duration": 0.375,
          "velocity": 90
        },
        {
          "pitch": 55,
          "onset": 291.5,
          "duration": 0.375,
          "velocity": 92
        },
        {
          "pitch": 52,
          "onset": 292.0,
          "duration": 0.375,
          "velocity": 93
        },
        {
          "pitch": 43,
          "onset": 292.5,
          "duration": 0.5,
          "velocity": 95
        },
        {
          "pitch": 50,
          "onset": 293.0,
          "duration": 0.375,
          "velocity": 97
        },
        {
          "pitch": 52,
          "onset": 293.5,
          "duration": 0.375,
          "velocity": 99
        },
        {
          "pitch": 54,
          "onset": 294.0,
          "duration": 0.375,
          "velocity": 100
        },
        {
          "pitch": 52,
          "onset": 294.5,
          "duration": 0.375,
          "velocity": 100
        },
        {
          "pitch": 50,
          "onset": 295.0,
          "duration": 0.375,
          "velocity": 100
        },
        {
          "pitch": 50,
          "onset": 295.75,
          "duration": 0.375,
          "velocity": 100
        },
        {
          "pitch": 50,
          "onset": 296.25,
          "duration": 0.375,
          "velocity": 100
        },
        {
          "pitch": 50,
          "onset": 296.75,
          "duration": 0.375,
          "velocity": 100
        },
        {
          "pitch": 50,
          "onset": 297.25,
          "duration": 0.375,
          "velocity": 100
        },
        {
          "pitch": 50,
          "onset": 297.75,
          "duration": 0.375,
          "velocity": 100
        },
        {
          "pitch": 50,
          "onset": 298.25,
          "duration": 0.375,
          "velocity": 100
        },
        {
          "pitch": 50,
          "onset": 298.75,
          "duration": 0.375,
          "velocity": 100
        },
        {
          "pitch": 50,
          "onset": 299.25,
          "duration": 0.375,
          "velocity": 100
        },
        {
          "pitch": 43,
          "onset": 300.0,
          "duration": 1.0,
          "velocity": 100
        },
        {
          "pitch": 43,
          "onset": 301.5,
          "duration": 0.5,
          "velocity": 100
        },
        {
          "pitch": 43,
          "onset": 302.0,
          "duration": 0.5,
          "velocity": 100
        },
        {
          "pitch": 43,
          "onset": 302.5,
          "duration": 0.5,
          "velocity": 100
        },
        {
          "pitch": 43,
          "onset": 303.0,
          "duration": 0.5,
          "velocity": 100
        },
        {
          "pitch": 43,
          "onset": 303.5,
          "duration": 0.5,
          "velocity": 100
        },
        {
          "pitch": 43,
          "onset": 304.0,
          "duration": 0.5,
          "velocity": 100
        },
        {
          "pitch": 43,
          "onset": 304.5,
          "duration": 1.0,
          "velocity": 100
        },
        {
          "pitch": 43,
          "onset": 305.5,
          "duration": 0.5,
          "velocity": 100
        },
        {
          "pitch": 43,
          "onset": 306.0,
          "duration": 1.0,
          "velocity": 100
        },
        {
          "pitch": 43,
          "onset": 307.0,
          "duration": 0.5,
          "velocity": 100
        },
        {
          "pitch": 43,
          "onset": 307.5,
          "duration": 0.5,
          "velocity": 100
        },
        {
          "pitch": 43,
          "onset": 308.0,
          "duration": 0.5,
          "velocity": 100
        },
        {
          "pitch": 43,
          "onset": 308.5,
          "duration": 0.5,
          "velocity": 100
        },
        {
          "pitch": 43,
          "onset": 309.0,
          "duration": 0.5,
          "velocity": 100
        },
        {
          "pitch": 43,
          "onset": 309.5,
          "duration": 0.5,
          "velocity": 100
        },
        {
          "pitch": 43,
          "onset": 310.0,
          "duration": 0.5,
          "velocity": 100
        },
        {
          "pitch": 43,
          "onset": 310.5,
          "duration": 1.0,
          "velocity": 100
        },
        {
          "pitch": 43,
          "onset": 311.5,
          "duration": 0.5,
          "velocity": 100
        },
        {
          "pitch": 43,
          "onset": 312.0,
          "duration": 0.5,
          "velocity": 100
        },
        {
          "pitch": 48,
          "onset": 313.5,
          "duration": 0.375,
          "velocity": 80
        },
        {
          "pitch": 50,
          "onset": 315.0,
          "duration": 0.375,
          "velocity": 80
        },
        {
          "pitch": 52,
          "onset": 316.5,
          "duration": 0.375,
          "velocity": 80
        },
        {
          "pitch": 47,
          "onset": 320.0,
          "duration": 0.25,
          "velocity": 80
        },
        {
          "pitch": 45,
          "onset": 320.25,
          "duration": 0.25,
          "velocity": 80
        },
        {
          "pitch": 43,
          "onset": 320.5,
          "duration": 0.25,
          "velocity": 80
        },
        {
          "pitch": 41,
          "onset": 320.75,
          "duration": 0.25,
          "velocity": 80
        },
        {
          "pitch": 40,
          "onset": 321.0,
          "duration": 0.375,
          "velocity": 80
        },
        {
          "pitch": 40,
          "onset": 321.75,
          "duration": 0.25,
          "velocity": 80
        },
        {
          "pitch": 38,
          "onset": 322.0,
          "duration": 0.375,
          "velocity": 80
        },
        {
          "pitch": 36,
          "onset": 324.0,
          "duration": 0.5,
          "velocity": 100
        },
        {
          "pitch": 43,
          "onset": 324.0,
          "duration": 0.5,
          "velocity": 100
        }
      ]
    }
  ]
}