{
  "bwv": 1007,
  "category": "solo_cello_suite",
  "instrument": "cello",
  "form": "",
  "movement": 6,
  "tonic": "G",
  "mode": "major",
  "confidence": "verified",
  "ticks_per_beat": 384,
  "duration_seconds": 107.8,
  "tempos": [
    {
      "tick": 0,
      "bpm": 120
    },
    {
      "tick": 48,
      "bpm": 240
    },
    {
      "tick": 904,
      "bpm": 120
    },
    {
      "tick": 13824,
      "bpm": 115
    },
    {
      "tick": 14016,
      "bpm": 110
    },
    {
      "tick": 14208,
      "bpm": 100
    },
    {
      "tick": 14784,
      "bpm": 120
    },
    {
      "tick": 27648,
      "bpm": 115
    },
    {
      "tick": 27840,
      "bpm": 110
    },
    {
      "tick": 28032,
      "bpm": 100
    },
    {
      "tick": 28608,
      "bpm": 115
    },
    {
      "tick": 28800,
      "bpm": 120
    },
    {
      "tick": 52992,
      "bpm": 115
    },
    {
      "tick": 53376,
      "bpm": 110
    },
    {
      "tick": 53952,
      "bpm": 120
    },
    {
      "tick": 67008,
      "bpm": 115
    },
    {
      "tick": 67200,
      "bpm": 110
    },
    {
      "tick": 67776,
      "bpm": 120
    },
    {
      "tick": 71232,
      "bpm": 115
    },
    {
      "tick": 71616,
      "bpm": 120
    },
    {
      "tick": 76800,
      "bpm": 115
    },
    {
      "tick": 76992,
      "bpm": 110
    },
    {
      "tick": 77184,
      "bpm": 120
    },
    {
      "tick": 77952,
      "bpm": 115
    },
    {
      "tick": 78144,
      "bpm": 110
    },
    {
      "tick": 78336,
      "bpm": 105
    },
    {
      "tick": 78720,
      "bpm": 100
    }
  ],
  "time_signatures": [
    {
      "tick": 0,
      "numerator": 3,
      "denominator": 4
    }
  ],
  "track_type": "solo_string",
  "voice_count": 2,
  "total_notes": 435,
  "tracks": [
    {
      "role": "solo_0",
      "notes": [
        {
          "pitch": 50,
          "onset": 2.5,
          "duration": 0.5,
          "velocity": 100
        },
        {
          "pitch": 55,
          "onset": 3.0,
          "duration": 0.5,
          "velocity": 100
        },
        {
          "pitch": 50,
          "onset": 3.5,
          "duration": 0.5,
          "velocity": 100
        },
        {
          "pitch": 52,
          "onset": 4.0,
          "duration": 0.5,
          "velocity": 100
        },
        {
          "pitch": 52,
          "onset": 4.5,
          "duration": 0.5,
          "velocity": 100
        },
        {
          "pitch": 48,
          "onset": 5.0,
          "duration": 0.5,
          "velocity": 100
        },
        {
          "pitch": 50,
          "onset": 5.5,
          "duration": 0.5,
          "velocity": 100
        },
        {
          "pitch": 50,
          "onset": 6.0,
          "duration": 0.375,
          "velocity": 100
        },
        {
          "pitch": 55,
          "onset": 6.5,
          "duration": 0.375,
          "velocity": 100
        },
        {
          "pitch": 50,
          "onset": 7.0,
          "duration": 0.375,
          "velocity": 100
        },
        {
          "pitch": 47,
          "onset": 7.5,
          "duration": 0.375,
          "velocity": 100
        },
        {
          "pitch": 43,
          "onset": 8.0,
          "duration": 0.375,
          "velocity": 100
        },
        {
          "pitch": 50,
          "onset": 8.5,
          "duration": 0.375,
          "velocity": 100
        },
        {
          "pitch": 55,
          "onset": 9.0,
          "duration": 0.25,
          "velocity": 100
        },
        {
          "pitch": 57,
          "onset": 9.25,
          "duration": 0.25,
          "velocity": 100
        },
        {
          "pitch": 59,
          "onset": 9.5,
          "duration": 0.375,
          "velocity": 100
        },
        {
          "pitch": 57,
          "onset": 10.0,
          "duration": 0.375,
          "velocity": 100
        },
        {
          "pitch": 57,
          "onset": 10.5,
          "duration": 0.25,
          "velocity": 100
        },
        {
          "pitch": 59,
          "onset": 10.75,
          "duration": 0.25,
          "velocity": 100
        },
        {
          "pitch": 60,
          "onset": 11.0,
          "duration": 0.375,
          "velocity": 100
        },
        {
          "pitch": 59,
          "onset": 11.5,
          "duration": 0.375,
          "velocity": 100
        },
        {
          "pitch": 50,
          "onset": 12.0,
          "duration": 1.5,
          "velocity": 100
        },
        {
          "pitch": 59,
          "onset": 12.25,
          "duration": 0.4062,
          "velocity": 100
        },
        {
          "pitch": 60,
          "onset": 12.6562,
          "duration": 0.1562,
          "velocity": 100
        },
        {
          "pitch": 59,
          "onset": 12.8438,
          "duration": 0.1562,
          "velocity": 100
        },
        {
          "pitch": 60,
          "onset": 13.0,
          "duration": 0.1562,
          "velocity": 100
        },
        {
          "pitch": 59,
          "onset": 13.1562,
          "duration": 0.3438,
          "velocity": 100
        },
        {
          "pitch": 57,
          "onset": 13.5,
          "duration": 1.0,
          "velocity": 100
        },
        {
          "pitch": 57,
          "onset": 14.5,
          "duration": 0.5,
          "velocity": 100
        },
        {
          "pitch": 59,
          "onset": 15.0,
          "duration": 0.5,
          "velocity": 100
        },
        {
          "pitch": 54,
          "onset": 15.5,
          "duration": 0.5,
          "velocity": 100
        },
        {
          "pitch": 55,
          "onset": 16.0,
          "duration": 0.5,
          "velocity": 100
        },
        {
          "pitch": 55,
          "onset": 16.5,
          "duration": 0.5,
          "velocity": 100
        },
        {
          "pitch": 52,
          "onset": 17.0,
          "duration": 0.5,
          "velocity": 100
        },
        {
          "pitch": 55,
          "onset": 17.5,
          "duration": 0.5,
          "velocity": 100
        },
        {
          "pitch": 57,
          "onset": 18.0,
          "duration": 0.5,
          "velocity": 100
        },
        {
          "pitch": 52,
          "onset": 18.5,
          "duration": 0.5,
          "velocity": 100
        },
        {
          "pitch": 54,
          "onset": 19.0,
          "duration": 0.5,
          "velocity": 100
        },
        {
          "pitch": 54,
          "onset": 19.5,
          "duration": 0.5,
          "velocity": 100
        },
        {
          "pitch": 50,
          "onset": 20.0,
          "duration": 0.5,
          "velocity": 100
        },
        {
          "pitch": 54,
          "onset": 20.5,
          "duration": 0.5,
          "velocity": 100
        },
        {
          "pitch": 55,
          "onset": 21.0,
          "duration": 0.375,
          "velocity": 100
        },
        {
          "pitch": 59,
          "onset": 21.5,
          "duration": 0.375,
          "velocity": 100
        },
        {
          "pitch": 55,
          "onset": 22.0,
          "duration": 0.375,
          "velocity": 100
        },
        {
          "pitch": 52,
          "onset": 22.5,
          "duration": 0.375,
          "velocity": 100
        },
        {
          "pitch": 47,
          "onset": 23.0,
          "duration": 0.375,
          "velocity": 100
        },
        {
          "pitch": 50,
          "onset": 23.5,
          "duration": 0.375,
          "velocity": 100
        },
        {
          "pitch": 49,
          "onset": 24.0,
          "duration": 0.5,
          "velocity": 100
        },
        {
          "pitch": 52,
          "onset": 24.5,
          "duration": 0.5,
          "velocity": 100
        },
        {
          "pitch": 57,
          "onset": 25.0,
          "duration": 0.5,
          "velocity": 100
        },
        {
          "pitch": 52,
          "onset": 26.5,
          "duration": 0.5,
          "velocity": 100
        },
        {
          "pitch": 53,
          "onset": 27.0,
          "duration": 0.5,
          "velocity": 100
        },
        {
          "pitch": 52,
          "onset": 27.5,
          "duration": 0.5,
          "velocity": 100
        },
        {
          "pitch": 55,
          "onset": 28.0,
          "duration": 0.5,
          "velocity": 100
        },
        {
          "pitch": 55,
          "onset": 28.5,
          "duration": 0.5,
          "velocity": 100
        },
        {
          "pitch": 53,
          "onset": 29.0,
          "duration": 0.5,
          "velocity": 100
        },
        {
          "pitch": 57,
          "onset": 29.5,
          "duration": 0.5,
          "velocity": 100
        },
        {
          "pitch": 57,
          "onset": 30.0,
          "duration": 0.5,
          "velocity": 100
        },
        {
          "pitch": 55,
          "onset": 30.5,
          "duration": 0.5,
          "velocity": 100
        },
        {
          "pitch": 58,
          "onset": 31.0,
          "duration": 0.5,
          "velocity": 100
        },
        {
          "pitch": 58,
          "onset": 31.5,
          "duration": 0.5,
          "velocity": 100
        },
        {
          "pitch": 57,
          "onset": 32.0,
          "duration": 0.4062,
          "velocity": 100
        },
        {
          "pitch": 55,
          "onset": 32.5,
          "duration": 0.375,
          "velocity": 100
        },
        {
          "pitch": 53,
          "onset": 33.0,
          "duration": 0.5,
          "velocity": 100
        },
        {
          "pitch": 52,
          "onset": 33.5,
          "duration": 0.5,
          "velocity": 100
        },
        {
          "pitch": 50,
          "onset": 34.0,
          "duration": 0.5,
          "velocity": 100
        },
        {
          "pitch": 45,
          "onset": 34.5,
          "duration": 0.5,
          "velocity": 100
        },
        {
          "pitch": 50,
          "onset": 35.0,
          "duration": 0.375,
          "velocity": 100
        },
        {
          "pitch": 49,
          "onset": 35.5,
          "duration": 0.375,
          "velocity": 100
        },
        {
          "pitch": 50,
          "onset": 36.0,
          "duration": 0.375,
          "velocity": 100
        },
        {
          "pitch": 45,
          "onset": 36.5,
          "duration": 0.375,
          "velocity": 100
        },
        {
          "pitch": 42,
          "onset": 37.0,
          "duration": 0.375,
          "velocity": 100
        },
        {
          "pitch": 50,
          "onset": 38.5,
          "duration": 0.5,
          "velocity": 100
        },
        {
          "pitch": 55,
          "onset": 39.0,
          "duration": 0.5,
          "velocity": 100
        },
        {
          "pitch": 50,
          "onset": 39.5,
          "duration": 0.5,
          "velocity": 100
        },
        {
          "pitch": 52,
          "onset": 40.0,
          "duration": 0.5,
          "velocity": 100
        },
        {
          "pitch": 52,
          "onset": 40.5,
          "duration": 0.5,
          "velocity": 100
        },
        {
          "pitch": 48,
          "onset": 41.0,
          "duration": 0.5,
          "velocity": 100
        },
        {
          "pitch": 50,
          "onset": 41.5,
          "duration": 0.5,
          "velocity": 100
        },
        {
          "pitch": 50,
          "onset": 42.0,
          "duration": 0.375,
          "velocity": 100
        },
        {
          "pitch": 55,
          "onset": 42.5,
          "duration": 0.375,
          "velocity": 100
        },
        {
          "pitch": 50,
          "onset": 43.0,
          "duration": 0.375,
          "velocity": 100
        },
        {
          "pitch": 47,
          "onset": 43.5,
          "duration": 0.375,
          "velocity": 100
        },
        {
          "pitch": 43,
          "onset": 44.0,
          "duration": 0.375,
          "velocity": 100
        },
        {
          "pitch": 50,
          "onset": 44.5,
          "duration": 0.375,
          "velocity": 100
        },
        {
          "pitch": 55,
          "onset": 45.0,
          "duration": 0.25,
          "velocity": 100
        },
        {
          "pitch": 57,
          "onset": 45.25,
          "duration": 0.25,
          "velocity": 100
        },
        {
          "pitch": 59,
          "onset": 45.5,
          "duration": 0.375,
          "velocity": 100
        },
        {
          "pitch": 57,
          "onset": 46.0,
          "duration": 0.375,
          "velocity": 100
        },
        {
          "pitch": 57,
          "onset": 46.5,
          "duration": 0.25,
          "velocity": 100
        },
        {
          "pitch": 59,
          "onset": 46.75,
          "duration": 0.25,
          "velocity": 100
        },
        {
          "pitch": 60,
          "onset": 47.0,
          "duration": 0.375,
          "velocity": 100
        },
        {
          "pitch": 59,
          "onset": 47.5,
          "duration": 0.375,
          "velocity": 100
        },
        {
          "pitch": 50,
          "onset": 48.0,
          "duration": 1.5,
          "velocity": 100
        },
        {
          "pitch": 59,
          "onset": 48.25,
          "duration": 0.4062,
          "velocity": 100
        },
        {
          "pitch": 60,
          "onset": 48.6562,
          "duration": 0.1562,
          "velocity": 100
        },
        {
          "pitch": 59,
          "onset": 48.8438,
          "duration": 0.1562,
          "velocity": 100
        },
        {
          "pitch": 60,
          "onset": 49.0,
          "duration": 0.1562,
          "velocity": 100
        },
        {
          "pitch": 59,
          "onset": 49.1562,
          "duration": 0.3438,
          "velocity": 100
        },
        {
          "pitch": 57,
          "onset": 49.5,
          "duration": 1.0,
          "velocity": 100
        },
        {
          "pitch": 57,
          "onset": 50.5,
          "duration": 0.5,
          "velocity": 100
        },
        {
          "pitch": 59,
          "onset": 51.0,
          "duration": 0.5,
          "velocity": 100
        },
        {
          "pitch": 54,
          "onset": 51.5,
          "duration": 0.5,
          "velocity": 100
        },
        {
          "pitch": 55,
          "onset": 52.0,
          "duration": 0.5,
          "velocity": 100
        },
        {
          "pitch": 55,
          "onset": 52.5,
          "duration": 0.5,
          "velocity": 100
        },
        {
          "pitch": 52,
          "onset": 53.0,
          "duration": 0.5,
          "velocity": 100
        },
        {
          "pitch": 55,
          "onset": 53.5,
          "duration": 0.5,
          "velocity": 100
        },
        {
          "pitch": 57,
          "onset": 54.0,
          "duration": 0.5,
          "velocity": 100
        },
        {
          "pitch": 52,
          "onset": 54.5,
          "duration": 0.5,
          "velocity": 100
        },
        {
          "pitch": 54,
          "onset": 55.0,
          "duration": 0.5,
          "velocity": 100
        },
        {
          "pitch": 54,
          "onset": 55.5,
          "duration": 0.5,
          "velocity": 100
        },
        {
          "pitch": 50,
          "onset": 56.0,
          "duration": 0.5,
          "velocity": 100
        },
        {
          "pitch": 54,
          "onset": 56.5,
          "duration": 0.5,
          "velocity": 100
        },
        {
          "pitch": 55,
          "onset": 57.0,
          "duration": 0.375,
          "velocity": 100
        },
        {
          "pitch": 59,
          "onset": 57.5,
          "duration": 0.375,
          "velocity": 100
        },
        {
          "pitch": 55,
          "onset": 58.0,
          "duration": 0.375,
          "velocity": 100
        },
        {
          "pitch": 52,
          "onset": 58.5,
          "duration": 0.375,
          "velocity": 100
        },
        {
          "pitch": 47,
          "onset": 59.0,
          "duration": 0.375,
          "velocity": 100
        },
        {
          "pitch": 50,
          "onset": 59.5,
          "duration": 0.375,
          "velocity": 100
        },
        {
          "pitch": 49,
          "onset": 60.0,
          "duration": 0.5,
          "velocity": 100
        },
        {
          "pitch": 52,
          "onset": 60.5,
          "duration": 0.5,
          "velocity": 100
        },
        {
          "pitch": 57,
          "onset": 61.0,
          "duration": 0.5,
          "velocity": 100
        },
        {
          "pitch": 52,
          "onset": 62.5,
          "duration": 0.5,
          "velocity": 100
        },
        {
          "pitch": 53,
          "onset": 63.0,
          "duration": 0.5,
          "velocity": 100
        },
        {
          "pitch": 52,
          "onset": 63.5,
          "duration": 0.5,
          "velocity": 100
        },
        {
          "pitch": 55,
          "onset": 64.0,
          "duration": 0.5,
          "velocity": 100
        },
        {
          "pitch": 55,
          "onset": 64.5,
          "duration": 0.5,
          "velocity": 100
        },
        {
          "pitch": 53,
          "onset": 65.0,
          "duration": 0.5,
          "velocity": 100
        },
        {
          "pitch": 57,
          "onset": 65.5,
          "duration": 0.5,
          "velocity": 100
        },
        {
          "pitch": 57,
          "onset": 66.0,
          "duration": 0.5,
          "velocity": 100
        },
        {
          "pitch": 55,
          "onset": 66.5,
          "duration": 0.5,
          "velocity": 100
        },
        {
          "pitch": 58,
          "onset": 67.0,
          "duration": 0.5,
          "velocity": 100
        },
        {
          "pitch": 58,
          "onset": 67.5,
          "duration": 0.5,
          "velocity": 100
        },
        {
          "pitch": 57,
          "onset": 68.0,
          "duration": 0.4062,
          "velocity": 100
        },
        {
          "pitch": 55,
          "onset": 68.5,
          "duration": 0.375,
          "velocity": 100
        },
        {
          "pitch": 53,
          "onset": 69.0,
          "duration": 0.5,
          "velocity": 100
        },
        {
          "pitch": 52,
          "onset": 69.5,
          "duration": 0.5,
          "velocity": 100
        },
        {
          "pitch": 50,
          "onset": 70.0,
          "duration": 0.5,
          "velocity": 100
        },
        {
          "pitch": 45,
          "onset": 70.5,
          "duration": 0.5,
          "velocity": 100
        },
        {
          "pitch": 50,
          "onset": 71.0,
          "duration": 0.375,
          "velocity": 100
        },
        {
          "pitch": 49,
          "onset": 71.5,
          "duration": 0.375,
          "velocity": 100
        },
        {
          "pitch": 50,
          "onset": 72.0,
          "duration": 0.375,
          "velocity": 100
        },
        {
          "pitch": 45,
          "onset": 72.5,
          "duration": 0.375,
          "velocity": 100
        },
        {
          "pitch": 42,
          "onset": 73.0,
          "duration": 0.375,
          "velocity": 100
        },
        {
          "pitch": 57,
          "onset": 74.5,
          "duration": 0.5,
          "velocity": 100
        },
        {
          "pitch": 57,
          "onset": 75.0,
          "duration": 0.5,
          "velocity": 100
        },
        {
          "pitch": 54,
          "onset": 75.5,
          "duration": 0.5,
          "velocity": 100
        },
        {
          "pitch": 55,
          "onset": 76.0,
          "duration": 0.5,
          "velocity": 100
        },
        {
          "pitch": 55,
          "onset": 76.5,
          "duration": 0.5,
          "velocity": 100
        },
        {
          "pitch": 52,
          "onset": 77.0,
          "duration": 0.5,
          "velocity": 100
        },
        {
          "pitch": 54,
          "onset": 77.5,
          "duration": 0.5,
          "velocity": 100
        },
        {
          "pitch": 54,
          "onset": 78.0,
          "duration": 0.25,
          "velocity": 100
        },
        {
          "pitch": 55,
          "onset": 78.25,
          "duration": 0.25,
          "velocity": 100
        },
        {
          "pitch": 57,
          "onset": 78.5,
          "duration": 0.375,
          "velocity": 100
        },
        {
          "pitch": 54,
          "onset": 79.0,
          "duration": 0.375,
          "velocity": 100
        },
        {
          "pitch": 50,
          "onset": 79.5,
          "duration": 0.375,
          "velocity": 100
        },
        {
          "pitch": 60,
          "onset": 80.0,
          "duration": 0.5,
          "velocity": 100
        },
        {
          "pitch": 59,
          "onset": 80.5,
          "duration": 0.5,
          "velocity": 100
        },
        {
          "pitch": 59,
          "onset": 81.0,
          "duration": 0.5,
          "velocity": 100
        },
        {
          "pitch": 55,
          "onset": 81.5,
          "duration": 0.5,
          "velocity": 100
        },
        {
          "pitch": 57,
          "onset": 82.0,
          "duration": 0.5,
          "velocity": 100
        },
        {
          "pitch": 57,
          "onset": 82.5,
          "duration": 0.5,
          "velocity": 100
        },
        {
          "pitch": 54,
          "onset": 83.0,
          "duration": 0.5,
          "velocity": 100
        },
        {
          "pitch": 55,
          "onset": 83.5,
          "duration": 0.5,
          "velocity": 100
        },
        {
          "pitch": 55,
          "onset": 84.0,
          "duration": 0.25,
          "velocity": 100
        },
        {
          "pitch": 57,
          "onset": 84.25,
          "duration": 0.25,
          "velocity": 100
        },
        {
          "pitch": 59,
          "onset": 84.5,
          "duration": 0.4062,
          "velocity": 100
        },
        {
          "pitch": 55,
          "onset": 85.0,
          "duration": 0.375,
          "velocity": 100
        },
        {
          "pitch": 52,
          "onset": 85.5,
          "duration": 0.375,
          "velocity": 100
        },
        {
          "pitch": 62,
          "onset": 86.0,
          "duration": 0.5,
          "velocity": 100
        },
        {
          "pitch": 60,
          "onset": 86.5,
          "duration": 0.5,
          "velocity": 100
        },
        {
          "pitch": 57,
          "onset": 87.0,
          "duration": 0.375,
          "velocity": 100
        },
        {
          "pitch": 62,
          "onset": 87.5,
          "duration": 0.5,
          "velocity": 100
        },
        {
          "pitch": 60,
          "onset": 88.0,
          "duration": 0.375,
          "velocity": 100
        },
        {
          "pitch": 50,
          "onset": 88.5,
          "duration": 0.375,
          "velocity": 100
        },
        {
          "pitch": 60,
          "onset": 89.0,
          "duration": 0.5,
          "velocity": 100
        },
        {
          "pitch": 59,
          "onset": 89.5,
          "duration": 0.375,
          "velocity": 100
        },
        {
          "pitch": 55,
          "onset": 90.0,
          "duration": 0.375,
          "velocity": 100
        },
        {
          "pitch": 60,
          "onset": 90.5,
          "duration": 0.5,
          "velocity": 100
        },
        {
          "pitch": 59,
          "onset": 91.0,
          "duration": 0.375,
          "velocity": 100
        },
        {
          "pitch": 48,
          "onset": 91.5,
          "duration": 0.375,
          "velocity": 100
        },
        {
          "pitch": 59,
          "onset": 92.0,
          "duration": 0.5,
          "velocity": 100
        },
        {
          "pitch": 57,
          "onset": 92.5,
          "duration": 0.375,
          "velocity": 100
        },
        {
          "pitch": 55,
          "onset": 93.0,
          "duration": 0.5,
          "velocity": 100
        },
        {
          "pitch": 54,
          "onset": 93.5,
          "duration": 0.375,
          "velocity": 100
        },
        {
          "pitch": 52,
          "onset": 94.0,
          "duration": 0.375,
          "velocity": 100
        },
        {
          "pitch": 47,
          "onset": 94.5,
          "duration": 0.5,
          "velocity": 100
        },
        {
          "pitch": 52,
          "onset": 95.0,
          "duration": 0.375,
          "velocity": 100
        },
        {
          "pitch": 51,
          "onset": 95.5,
          "duration": 0.375,
          "velocity": 100
        },
        {
          "pitch": 52,
          "onset": 96.0,
          "duration": 0.375,
          "velocity": 100
        },
        {
          "pitch": 47,
          "onset": 96.5,
          "duration": 0.375,
          "velocity": 100
        },
        {
          "pitch": 43,
          "onset": 97.0,
          "duration": 0.375,
          "velocity": 100
        },
        {
          "pitch": 55,
          "onset": 98.5,
          "duration": 0.5,
          "velocity": 100
        },
        {
          "pitch": 57,
          "onset": 99.0,
          "duration": 0.5,
          "velocity": 100
        },
        {
          "pitch": 54,
          "onset": 99.5,
          "duration": 0.5,
          "velocity": 100
        },
        {
          "pitch": 55,
          "onset": 100.0,
          "duration": 0.5,
          "velocity": 100
        },
        {
          "pitch": 61,
          "onset": 100.5,
          "duration": 0.25,
          "velocity": 100
        },
        {
          "pitch": 62,
          "onset": 100.75,
          "duration": 0.25,
          "velocity": 100
        },
        {
          "pitch": 64,
          "onset": 101.0,
          "duration": 0.375,
          "velocity": 100
        },
        {
          "pitch": 54,
          "onset": 101.5,
          "duration": 0.375,
          "velocity": 100
        },
        {
          "pitch": 55,
          "onset": 102.0,
          "duration": 0.375,
          "velocity": 100
        },
        {
          "pitch": 52,
          "onset": 102.5,
          "duration": 0.5,
          "velocity": 100
        },
        {
          "pitch": 53,
          "onset": 103.0,
          "duration": 0.5,
          "velocity": 100
        },
        {
          "pitch": 59,
          "onset": 103.5,
          "duration": 0.25,
          "velocity": 100
        },
        {
          "pitch": 60,
          "onset": 103.75,
          "duration": 0.25,
          "velocity": 100
        },
        {
          "pitch": 62,
          "onset": 104.0,
          "duration": 0.375,
          "velocity": 100
        },
        {
          "pitch": 52,
          "onset": 104.5,
          "duration": 0.375,
          "velocity": 100
        },
        {
          "pitch": 53,
          "onset": 105.0,
          "duration": 0.375,
          "velocity": 100
        },
        {
          "pitch": 50,
          "onset": 105.5,
          "duration": 0.5,
          "velocity": 100
        },
        {
          "pitch": 52,
          "onset": 106.0,
          "duration": 0.5,
          "velocity": 100
        },
        {
          "pitch": 57,
          "onset": 106.5,
          "duration": 0.25,
          "velocity": 100
        },
        {
          "pitch": 59,
          "onset": 106.75,
          "duration": 0.25,
          "velocity": 100
        },
        {
          "pitch": 60,
          "onset": 107.0,
          "duration": 0.375,
          "velocity": 100
        },
        {
          "pitch": 57,
          "onset": 107.5,
          "duration": 0.375,
          "velocity": 100
        },
        {
          "pitch": 54,
          "onset": 108.0,
          "duration": 0.25,
          "velocity": 100
        },
        {
          "pitch": 55,
          "onset": 108.25,
          "duration": 0.25,
          "velocity": 100
        },
        {
          "pitch": 57,
          "onset": 108.5,
          "duration": 0.375,
          "velocity": 100
        },
        {
          "pitch": 54,
          "onset": 109.0,
          "duration": 0.375,
          "velocity": 100
        },
        {
          "pitch": 50,
          "onset": 109.5,
          "duration": 1.0,
          "velocity": 100
        },
        {
          "pitch": 57,
          "onset": 110.5,
          "duration": 0.5,
          "velocity": 85
        },
        {
          "pitch": 58,
          "onset": 111.0,
          "duration": 0.5,
          "velocity": 85
        },
        {
          "pitch": 57,
          "onset": 111.5,
          "duration": 0.5,
          "velocity": 85
        },
        {
          "pitch": 60,
          "onset": 112.0,
          "duration": 0.5,
          "velocity": 85
        },
        {
          "pitch": 60,
          "onset": 112.5,
          "duration": 0.5,
          "velocity": 85
        },
        {
          "pitch": 58,
          "onset": 113.0,
          "duration": 0.5,
          "velocity": 85
        },
        {
          "pitch": 62,
          "onset": 113.5,
          "duration": 0.5,
          "velocity": 85
        },
        {
          "pitch": 62,
          "onset": 114.0,
          "duration": 0.5,
          "velocity": 85
        },
        {
          "pitch": 60,
          "onset": 114.5,
          "duration": 0.5,
          "velocity": 85
        },
        {
          "pitch": 63,
          "onset": 115.0,
          "duration": 0.5,
          "velocity": 85
        },
        {
          "pitch": 63,
          "onset": 115.5,
          "duration": 0.5,
          "velocity": 85
        },
        {
          "pitch": 62,
          "onset": 116.0,
          "duration": 0.5,
          "velocity": 85
        },
        {
          "pitch": 60,
          "onset": 116.5,
          "duration": 0.5,
          "velocity": 85
        },
        {
          "pitch": 58,
          "onset": 117.0,
          "duration": 0.375,
          "velocity": 85
        },
        {
          "pitch": 57,
          "onset": 117.5,
          "duration": 0.5,
          "velocity": 85
        },
        {
          "pitch": 55,
          "onset": 118.0,
          "duration": 0.5,
          "velocity": 85
        },
        {
          "pitch": 50,
          "onset": 118.5,
          "duration": 0.5,
          "velocity": 85
        },
        {
          "pitch": 55,
          "onset": 119.0,
          "duration": 0.375,
          "velocity": 85
        },
        {
          "pitch": 54,
          "onset": 119.5,
          "duration": 0.375,
          "velocity": 85
        },
        {
          "pitch": 55,
          "onset": 120.0,
          "duration": 0.375,
          "velocity": 85
        },
        {
          "pitch": 47,
          "onset": 120.5,
          "duration": 0.25,
          "velocity": 100
        },
        {
          "pitch": 48,
          "onset": 120.75,
          "duration": 0.25,
          "velocity": 100
        },
        {
          "pitch": 50,
          "onset": 121.0,
          "duration": 0.375,
          "velocity": 100
        },
        {
          "pitch": 43,
          "onset": 121.5,
          "duration": 0.5,
          "velocity": 100
        },
        {
          "pitch": 47,
          "onset": 122.0,
          "duration": 0.375,
          "velocity": 100
        },
        {
          "pitch": 52,
          "onset": 122.5,
          "duration": 0.375,
          "velocity": 100
        },
        {
          "pitch": 55,
          "onset": 123.0,
          "duration": 0.375,
          "velocity": 100
        },
        {
          "pitch": 52,
          "onset": 123.5,
          "duration": 0.25,
          "velocity": 100
        },
        {
          "pitch": 53,
          "onset": 123.75,
          "duration": 0.25,
          "velocity": 100
        },
        {
          "pitch": 55,
          "onset": 124.0,
          "duration": 0.375,
          "velocity": 100
        },
        {
          "pitch": 47,
          "onset": 124.5,
          "duration": 0.5,
          "velocity": 100
        },
        {
          "pitch": 48,
          "onset": 125.0,
          "duration": 0.375,
          "velocity": 100
        },
        {
          "pitch": 52,
          "onset": 125.5,
          "duration": 0.375,
          "velocity": 100
        },
        {
          "pitch": 57,
          "onset": 126.0,
          "duration": 0.375,
          "velocity": 100
        },
        {
          "pitch": 54,
          "onset": 126.5,
          "duration": 0.25,
          "velocity": 100
        },
        {
          "pitch": 55,
          "onset": 126.75,
          "duration": 0.25,
          "velocity": 100
        },
        {
          "pitch": 57,
          "onset": 127.0,
          "duration": 0.375,
          "velocity": 100
        },
        {
          "pitch": 49,
          "onset": 127.5,
          "duration": 0.5,
          "velocity": 100
        },
        {
          "pitch": 50,
          "onset": 128.0,
          "duration": 0.375,
          "velocity": 100
        },
        {
          "pitch": 54,
          "onset": 128.5,
          "duration": 0.375,
          "velocity": 100
        },
        {
          "pitch": 59,
          "onset": 129.0,
          "duration": 0.375,
          "velocity": 100
        },
        {
          "pitch": 55,
          "onset": 129.5,
          "duration": 0.25,
          "velocity": 100
        },
        {
          "pitch": 57,
          "onset": 129.75,
          "duration": 0.25,
          "velocity": 100
        },
        {
          "pitch": 59,
          "onset": 130.0,
          "duration": 0.375,
          "velocity": 100
        },
        {
          "pitch": 51,
          "onset": 130.5,
          "duration": 0.5,
          "velocity": 100
        },
        {
          "pitch": 52,
          "onset": 131.0,
          "duration": 0.375,
          "velocity": 100
        },
        {
          "pitch": 60,
          "onset": 131.5,
          "duration": 0.375,
          "velocity": 100
        },
        {
          "pitch": 52,
          "onset": 132.0,
          "duration": 0.5,
          "velocity": 100
        },
        {
          "pitch": 54,
          "onset": 132.5,
          "duration": 0.375,
          "velocity": 100
        },
        {
          "pitch": 62,
          "onset": 133.0,
          "duration": 0.375,
          "velocity": 100
        },
        {
          "pitch": 54,
          "onset": 133.5,
          "duration": 0.5,
          "velocity": 100
        },
        {
          "pitch": 55,
          "onset": 134.0,
          "duration": 0.375,
          "velocity": 100
        },
        {
          "pitch": 64,
          "onset": 134.5,
          "duration": 0.375,
          "velocity": 100
        },
        {
          "pitch": 50,
          "onset": 135.0,
          "duration": 0.5,
          "velocity": 100
        },
        {
          "pitch": 52,
          "onset": 135.5,
          "duration": 0.25,
          "velocity": 100
        },
        {
          "pitch": 54,
          "onset": 135.75,
          "duration": 0.25,
          "velocity": 100
        },
        {
          "pitch": 55,
          "onset": 136.0,
          "duration": 0.25,
          "velocity": 100
        },
        {
          "pitch": 57,
          "onset": 136.25,
          "duration": 0.25,
          "velocity": 100
        },
        {
          "pitch": 59,
          "onset": 136.5,
          "duration": 0.5,
          "velocity": 100
        },
        {
          "pitch": 55,
          "onset": 137.0,
          "duration": 0.375,
          "velocity": 100
        },
        {
          "pitch": 54,
          "onset": 137.5,
          "duration": 0.375,
          "velocity": 100
        },
        {
          "pitch": 55,
          "onset": 138.0,
          "duration": 0.375,
          "velocity": 100
        },
        {
          "pitch": 50,
          "onset": 138.5,
          "duration": 0.375,
          "velocity": 100
        },
        {
          "pitch": 47,
          "onset": 139.0,
          "duration": 0.375,
          "velocity": 100
        },
        {
          "pitch": 43,
          "onset": 139.5,
          "duration": 1.0,
          "velocity": 100
        },
        {
          "pitch": 57,
          "onset": 140.5,
          "duration": 0.5,
          "velocity": 100
        },
        {
          "pitch": 57,
          "onset": 141.0,
          "duration": 0.5,
          "velocity": 100
        },
        {
          "pitch": 54,
          "onset": 141.5,
          "duration": 0.5,
          "velocity": 100
        },
        {
          "pitch": 55,
          "onset": 142.0,
          "duration": 0.5,
          "velocity": 100
        },
        {
          "pitch": 55,
          "onset": 142.5,
          "duration": 0.5,
          "velocity": 100
        },
        {
          "pitch": 52,
          "onset": 143.0,
          "duration": 0.5,
          "velocity": 100
        },
        {
          "pitch": 54,
          "onset": 143.5,
          "duration": 0.5,
          "velocity": 100
        },
        {
          "pitch": 54,
          "onset": 144.0,
          "duration": 0.25,
          "velocity": 100
        },
        {
          "pitch": 55,
          "onset": 144.25,
          "duration": 0.25,
          "velocity": 100
        },
        {
          "pitch": 57,
          "onset": 144.5,
          "duration": 0.375,
          "velocity": 100
        },
        {
          "pitch": 54,
          "onset": 145.0,
          "duration": 0.375,
          "velocity": 100
        },
        {
          "pitch": 50,
          "onset": 145.5,
          "duration": 0.375,
          "velocity": 100
        },
        {
          "pitch": 60,
          "onset": 146.0,
          "duration": 0.5,
          "velocity": 100
        },
        {
          "pitch": 59,
          "onset": 146.5,
          "duration": 0.5,
          "velocity": 100
        },
        {
          "pitch": 59,
          "onset": 147.0,
          "duration": 0.5,
          "velocity": 100
        },
        {
          "pitch": 55,
          "onset": 147.5,
          "duration": 0.5,
          "velocity": 100
        },
        {
          "pitch": 57,
          "onset": 148.0,
          "duration": 0.5,
          "velocity": 100
        },
        {
          "pitch": 57,
          "onset": 148.5,
          "duration": 0.5,
          "velocity": 100
        },
        {
          "pitch": 54,
          "onset": 149.0,
          "duration": 0.5,
          "velocity": 100
        },
        {
          "pitch": 55,
          "onset": 149.5,
          "duration": 0.5,
          "velocity": 100
        },
        {
          "pitch": 55,
          "onset": 150.0,
          "duration": 0.25,
          "velocity": 100
        },
        {
          "pitch": 57,
          "onset": 150.25,
          "duration": 0.25,
          "velocity": 100
        },
        {
          "pitch": 59,
          "onset": 150.5,
          "duration": 0.4062,
          "velocity": 100
        },
        {
          "pitch": 55,
          "onset": 151.0,
          "duration": 0.375,
          "velocity": 100
        },
        {
          "pitch": 52,
          "onset": 151.5,
          "duration": 0.375,
          "velocity": 100
        },
        {
          "pitch": 62,
          "onset": 152.0,
          "duration": 0.5,
          "velocity": 100
        },
        {
          "pitch": 60,
          "onset": 152.5,
          "duration": 0.5,
          "velocity": 100
        },
        {
          "pitch": 57,
          "onset": 153.0,
          "duration": 0.375,
          "velocity": 100
        },
        {
          "pitch": 62,
          "onset": 153.5,
          "duration": 0.5,
          "velocity": 100
        },
        {
          "pitch": 60,
          "onset": 154.0,
          "duration": 0.375,
          "velocity": 100
        },
        {
          "pitch": 50,
          "onset": 154.5,
          "duration": 0.375,
          "velocity": 100
        },
        {
          "pitch": 60,
          "onset": 155.0,
          "duration": 0.5,
          "velocity": 100
        },
        {
          "pitch": 59,
          "onset": 155.5,
          "duration": 0.375,
          "velocity": 100
        },
        {
          "pitch": 55,
          "onset": 156.0,
          "duration": 0.375,
          "velocity": 100
        },
        {
          "pitch": 60,
          "onset": 156.5,
          "duration": 0.5,
          "velocity": 100
        },
        {
          "pitch": 59,
          "onset": 157.0,
          "duration": 0.375,
          "velocity": 100
        },
        {
          "pitch": 48,
          "onset": 157.5,
          "duration": 0.375,
          "velocity": 100
        },
        {
          "pitch": 59,
          "onset": 158.0,
          "duration": 0.5,
          "velocity": 100
        },
        {
          "pitch": 57,
          "onset": 158.5,
          "duration": 0.375,
          "velocity": 100
        },
        {
          "pitch": 55,
          "onset": 159.0,
          "duration": 0.5,
          "velocity": 100
        },
        {
          "pitch": 54,
          "onset": 159.5,
          "duration": 0.375,
          "velocity": 100
        },
        {
          "pitch": 52,
          "onset": 160.0,
          "duration": 0.375,
          "velocity": 100
        },
        {
          "pitch": 47,
          "onset": 160.5,
          "duration": 0.5,
          "velocity": 100
        },
        {
          "pitch": 52,
          "onset": 161.0,
          "duration": 0.375,
          "velocity": 100
        },
        {
          "pitch": 51,
          "onset": 161.5,
          "duration": 0.375,
          "velocity": 100
        },
        {
          "pitch": 52,
          "onset": 162.0,
          "duration": 0.375,
          "velocity": 100
        },
        {
          "pitch": 47,
          "onset": 162.5,
          "duration": 0.375,
          "velocity": 100
        },
        {
          "pitch": 43,
          "onset": 163.0,
          "duration": 0.375,
          "velocity": 100
        },
        {
          "pitch": 55,
          "onset": 164.5,
          "duration": 0.5,
          "velocity": 100
        },
        {
          "pitch": 57,
          "onset": 165.0,
          "duration": 0.5,
          "velocity": 100
        },
        {
          "pitch": 54,
          "onset": 165.5,
          "duration": 0.5,
          "velocity": 100
        },
        {
          "pitch": 55,
          "onset": 166.0,
          "duration": 0.5,
          "velocity": 100
        },
        {
          "pitch": 61,
          "onset": 166.5,
          "duration": 0.25,
          "velocity": 100
        },
        {
          "pitch": 62,
          "onset": 166.75,
          "duration": 0.25,
          "velocity": 100
        },
        {
          "pitch": 64,
          "onset": 167.0,
          "duration": 0.375,
          "velocity": 100
        },
        {
          "pitch": 54,
          "onset": 167.5,
          "duration": 0.375,
          "velocity": 100
        },
        {
          "pitch": 55,
          "onset": 168.0,
          "duration": 0.375,
          "velocity": 100
        },
        {
          "pitch": 52,
          "onset": 168.5,
          "duration": 0.5,
          "velocity": 100
        },
        {
          "pitch": 53,
          "onset": 169.0,
          "duration": 0.5,
          "velocity": 100
        },
        {
          "pitch": 59,
          "onset": 169.5,
          "duration": 0.25,
          "velocity": 100
        },
        {
          "pitch": 60,
          "onset": 169.75,
          "duration": 0.25,
          "velocity": 100
        },
        {
          "pitch": 62,
          "onset": 170.0,
          "duration": 0.375,
          "velocity": 100
        },
        {
          "pitch": 52,
          "onset": 170.5,
          "duration": 0.375,
          "velocity": 100
        },
        {
          "pitch": 53,
          "onset": 171.0,
          "duration": 0.375,
          "velocity": 100
        },
        {
          "pitch": 50,
          "onset": 171.5,
          "duration": 0.5,
          "velocity": 100
        },
        {
          "pitch": 52,
          "onset": 172.0,
          "duration": 0.5,
          "velocity": 100
        },
        {
          "pitch": 57,
          "onset": 172.5,
          "duration": 0.25,
          "velocity": 100
        },
        {
          "pitch": 59,
          "onset": 172.75,
          "duration": 0.25,
          "velocity": 100
        },
        {
          "pitch": 60,
          "onset": 173.0,
          "duration": 0.375,
          "velocity": 100
        },
        {
          "pitch": 57,
          "onset": 173.5,
          "duration": 0.375,
          "velocity": 100
        },
        {
          "pitch": 54,
          "onset": 174.0,
          "duration": 0.25,
          "velocity": 100
        },
        {
          "pitch": 55,
          "onset": 174.25,
          "duration": 0.25,
          "velocity": 100
        },
        {
          "pitch": 57,
          "onset": 174.5,
          "duration": 0.375,
          "velocity": 100
        },
        {
          "pitch": 54,
          "onset": 175.0,
          "duration": 0.375,
          "velocity": 100
        },
        {
          "pitch": 50,
          "onset": 175.5,
          "duration": 1.0,
          "velocity": 100
        },
        {
          "pitch": 57,
          "onset": 176.5,
          "duration": 0.5,
          "velocity": 85
        },
        {
          "pitch": 58,
          "onset": 177.0,
          "duration": 0.5,
          "velocity": 85
        },
        {
          "pitch": 57,
          "onset": 177.5,
          "duration": 0.5,
          "velocity": 85
        },
        {
          "pitch": 60,
          "onset": 178.0,
          "duration": 0.5,
          "velocity": 85
        },
        {
          "pitch": 60,
          "onset": 178.5,
          "duration": 0.5,
          "velocity": 85
        },
        {
          "pitch": 58,
          "onset": 179.0,
          "duration": 0.5,
          "velocity": 85
        },
        {
          "pitch": 62,
          "onset": 179.5,
          "duration": 0.5,
          "velocity": 85
        },
        {
          "pitch": 62,
          "onset": 180.0,
          "duration": 0.5,
          "velocity": 85
        },
        {
          "pitch": 60,
          "onset": 180.5,
          "duration": 0.5,
          "velocity": 85
        },
        {
          "pitch": 63,
          "onset": 181.0,
          "duration": 0.5,
          "velocity": 85
        },
        {
          "pitch": 63,
          "onset": 181.5,
          "duration": 0.5,
          "velocity": 85
        },
        {
          "pitch": 62,
          "onset": 182.0,
          "duration": 0.5,
          "velocity": 85
        },
        {
          "pitch": 60,
          "onset": 182.5,
          "duration": 0.5,
          "velocity": 85
        },
        {
          "pitch": 58,
          "onset": 183.0,
          "duration": 0.375,
          "velocity": 85
        },
        {
          "pitch": 57,
          "onset": 183.5,
          "duration": 0.5,
          "velocity": 85
        },
        {
          "pitch": 55,
          "onset": 184.0,
          "duration": 0.5,
          "velocity": 85
        },
        {
          "pitch": 50,
          "onset": 184.5,
          "duration": 0.5,
          "velocity": 85
        },
        {
          "pitch": 55,
          "onset": 185.0,
          "duration": 0.375,
          "velocity": 85
        },
        {
          "pitch": 54,
          "onset": 185.5,
          "duration": 0.375,
          "velocity": 85
        },
        {
          "pitch": 55,
          "onset": 186.0,
          "duration": 0.375,
          "velocity": 85
        },
        {
          "pitch": 47,
          "onset": 186.5,
          "duration": 0.25,
          "velocity": 100
        },
        {
          "pitch": 48,
          "onset": 186.75,
          "duration": 0.25,
          "velocity": 100
        },
        {
          "pitch": 50,
          "onset": 187.0,
          "duration": 0.375,
          "velocity": 100
        },
        {
          "pitch": 43,
          "onset": 187.5,
          "duration": 0.5,
          "velocity": 100
        },
        {
          "pitch": 47,
          "onset": 188.0,
          "duration": 0.375,
          "velocity": 100
        },
        {
          "pitch": 52,
          "onset": 188.5,
          "duration": 0.375,
          "velocity": 100
        },
        {
          "pitch": 55,
          "onset": 189.0,
          "duration": 0.375,
          "velocity": 100
        },
        {
          "pitch": 52,
          "onset": 189.5,
          "duration": 0.25,
          "velocity": 100
        },
        {
          "pitch": 53,
          "onset": 189.75,
          "duration": 0.25,
          "velocity": 100
        },
        {
          "pitch": 55,
          "onset": 190.0,
          "duration": 0.375,
          "velocity": 100
        },
        {
          "pitch": 47,
          "onset": 190.5,
          "duration": 0.5,
          "velocity": 100
        },
        {
          "pitch": 48,
          "onset": 191.0,
          "duration": 0.375,
          "velocity": 100
        },
        {
          "pitch": 52,
          "onset": 191.5,
          "duration": 0.375,
          "velocity": 100
        },
        {
          "pitch": 57,
          "onset": 192.0,
          "duration": 0.375,
          "velocity": 100
        },
        {
          "pitch": 54,
          "onset": 192.5,
          "duration": 0.25,
          "velocity": 100
        },
        {
          "pitch": 55,
          "onset": 192.75,
          "duration": 0.25,
          "velocity": 100
        },
        {
          "pitch": 57,
          "onset": 193.0,
          "duration": 0.375,
          "velocity": 100
        },
        {
          "pitch": 49,
          "onset": 193.5,
          "duration": 0.5,
          "velocity": 100
        },
        {
          "pitch": 50,
          "onset": 194.0,
          "duration": 0.375,
          "velocity": 100
        },
        {
          "pitch": 54,
          "onset": 194.5,
          "duration": 0.375,
          "velocity": 100
        },
        {
          "pitch": 59,
          "onset": 195.0,
          "duration": 0.375,
          "velocity": 100
        },
        {
          "pitch": 55,
          "onset": 195.5,
          "duration": 0.25,
          "velocity": 100
        },
        {
          "pitch": 57,
          "onset": 195.75,
          "duration": 0.25,
          "velocity": 100
        },
        {
          "pitch": 59,
          "onset": 196.0,
          "duration": 0.375,
          "velocity": 100
        },
        {
          "pitch": 51,
          "onset": 196.5,
          "duration": 0.5,
          "velocity": 100
        },
        {
          "pitch": 52,
          "onset": 197.0,
          "duration": 0.375,
          "velocity": 100
        },
        {
          "pitch": 60,
          "onset": 197.5,
          "duration": 0.375,
          "velocity": 100
        },
        {
          "pitch": 52,
          "onset": 198.0,
          "duration": 0.5,
          "velocity": 100
        },
        {
          "pitch": 54,
          "onset": 198.5,
          "duration": 0.375,
          "velocity": 100
        },
        {
          "pitch": 62,
          "onset": 199.0,
          "duration": 0.375,
          "velocity": 100
        },
        {
          "pitch": 54,
          "onset": 199.5,
          "duration": 0.5,
          "velocity": 100
        },
        {
          "pitch": 55,
          "onset": 200.0,
          "duration": 0.375,
          "velocity": 100
        },
        {
          "pitch": 64,
          "onset": 200.5,
          "duration": 0.375,
          "velocity": 100
        },
        {
          "pitch": 50,
          "onset": 201.0,
          "duration": 0.5,
          "velocity": 100
        },
        {
          "pitch": 52,
          "onset": 201.5,
          "duration": 0.25,
          "velocity": 100
        },
        {
          "pitch": 54,
          "onset": 201.75,
          "duration": 0.25,
          "velocity": 100
        },
        {
          "pitch": 55,
          "onset": 202.0,
          "duration": 0.25,
          "velocity": 100
        },
        {
          "pitch": 57,
          "onset": 202.25,
          "duration": 0.25,
          "velocity": 100
        },
        {
          "pitch": 59,
          "onset": 202.5,
          "duration": 0.5,
          "velocity": 100
        },
        {
          "pitch": 55,
          "onset": 203.0,
          "duration": 0.375,
          "velocity": 100
        },
        {
          "pitch": 54,
          "onset": 203.5,
          "duration": 0.375,
          "velocity": 100
        },
        {
          "pitch": 55,
          "onset": 204.0,
          "duration": 0.375,
          "velocity": 100
        },
        {
          "pitch": 50,
          "onset": 204.5,
          "duration": 0.375,
          "velocity": 100
        },
        {
          "pitch": 47,
          "onset": 205.0,
          "duration": 0.5,
          "velocity": 100
        },
        {
          "pitch": 43,
          "onset": 205.75,
          "duration": 3.25,
          "velocity": 100
        },
        {
          "pitch": 43,
          "onset": 213.25,
          "duration": 0.25,
          "velocity": 1
        }
      ]
    },
    {
      "role": "solo_1",
      "notes": [
        {
          "pitch": 43,
          "onset": 12.0,
          "duration": 0.75,
          "velocity": 100
        },
        {
          "pitch": 50,
          "onset": 13.5,
          "duration": 1.0,
          "velocity": 100
        },
        {
          "pitch": 45,
          "onset": 25.5,
          "duration": 1.25,
          "velocity": 100
        },
        {
          "pitch": 38,
          "onset": 37.5,
          "duration": 1.0,
          "velocity": 100
        },
        {
          "pitch": 43,
          "onset": 48.0,
          "duration": 0.75,
          "velocity": 100
        },
        {
          "pitch": 50,
          "onset": 49.5,
          "duration": 1.0,
          "velocity": 100
        },
        {
          "pitch": 45,
          "onset": 61.5,
          "duration": 1.25,
          "velocity": 100
        },
        {
          "pitch": 38,
          "onset": 73.5,
          "duration": 1.0,
          "velocity": 100
        },
        {
          "pitch": 40,
          "onset": 97.5,
          "duration": 1.25,
          "velocity": 100
        },
        {
          "pitch": 40,
          "onset": 163.5,
          "duration": 1.25,
          "velocity": 100
        }
      ]
    }
  ]
}