{
  "bwv": 1008,
  "category": "solo_cello_suite",
  "instrument": "cello",
  "form": "",
  "movement": 1,
  "tonic": "D",
  "mode": "minor",
  "confidence": "verified",
  "ticks_per_beat": 384,
  "duration_seconds": 192.2,
  "tempos": [
    {
      "tick": 0,
      "bpm": 65
    },
    {
      "tick": 2304,
      "bpm": 60
    },
    {
      "tick": 2496,
      "bpm": 60
    },
    {
      "tick": 2592,
      "bpm": 50
    },
    {
      "tick": 2688,
      "bpm": 40
    },
    {
      "tick": 2976,
      "bpm": 60
    },
    {
      "tick": 3360,
      "bpm": 65
    },
    {
      "tick": 4224,
      "bpm": 60
    },
    {
      "tick": 4416,
      "bpm": 50
    },
    {
      "tick": 4608,
      "bpm": 65
    },
    {
      "tick": 12480,
      "bpm": 60
    },
    {
      "tick": 12576,
      "bpm": 55
    },
    {
      "tick": 12672,
      "bpm": 65
    },
    {
      "tick": 13440,
      "bpm": 60
    },
    {
      "tick": 13632,
      "bpm": 50
    },
    {
      "tick": 13728,
      "bpm": 40
    },
    {
      "tick": 13824,
      "bpm": 65
    },
    {
      "tick": 14688,
      "bpm": 60
    },
    {
      "tick": 14784,
      "bpm": 60
    },
    {
      "tick": 14880,
      "bpm": 55
    },
    {
      "tick": 15072,
      "bpm": 65
    },
    {
      "tick": 19584,
      "bpm": 60
    },
    {
      "tick": 19776,
      "bpm": 55
    },
    {
      "tick": 19872,
      "bpm": 50
    },
    {
      "tick": 19968,
      "bpm": 40
    },
    {
      "tick": 20256,
      "bpm": 60
    },
    {
      "tick": 20928,
      "bpm": 55
    },
    {
      "tick": 21024,
      "bpm": 50
    },
    {
      "tick": 21408,
      "bpm": 60
    },
    {
      "tick": 22080,
      "bpm": 55
    },
    {
      "tick": 22176,
      "bpm": 50
    },
    {
      "tick": 22560,
      "bpm": 60
    },
    {
      "tick": 22944,
      "bpm": 55
    },
    {
      "tick": 23136,
      "bpm": 65
    },
    {
      "tick": 27264,
      "bpm": 60
    },
    {
      "tick": 27456,
      "bpm": 55
    },
    {
      "tick": 27552,
      "bpm": 50
    },
    {
      "tick": 27744,
      "bpm": 65
    },
    {
      "tick": 33024,
      "bpm": 60
    },
    {
      "tick": 33216,
      "bpm": 55
    },
    {
      "tick": 33312,
      "bpm": 45
    },
    {
      "tick": 33504,
      "bpm": 60
    },
    {
      "tick": 38112,
      "bpm": 65
    },
    {
      "tick": 39264,
      "bpm": 65
    },
    {
      "tick": 42240,
      "bpm": 60
    },
    {
      "tick": 42432,
      "bpm": 60
    },
    {
      "tick": 42528,
      "bpm": 50
    },
    {
      "tick": 42720,
      "bpm": 65
    },
    {
      "tick": 43392,
      "bpm": 60
    },
    {
      "tick": 43584,
      "bpm": 55
    },
    {
      "tick": 43680,
      "bpm": 50
    },
    {
      "tick": 43872,
      "bpm": 60
    },
    {
      "tick": 44544,
      "bpm": 60
    },
    {
      "tick": 44736,
      "bpm": 50
    },
    {
      "tick": 44832,
      "bpm": 45
    },
    {
      "tick": 44928,
      "bpm": 65
    },
    {
      "tick": 53568,
      "bpm": 65
    },
    {
      "tick": 53760,
      "bpm": 60
    },
    {
      "tick": 53856,
      "bpm": 60
    },
    {
      "tick": 53952,
      "bpm": 55
    },
    {
      "tick": 54048,
      "bpm": 45
    },
    {
      "tick": 55296,
      "bpm": 60
    },
    {
      "tick": 60672,
      "bpm": 60
    },
    {
      "tick": 60864,
      "bpm": 55
    },
    {
      "tick": 60960,
      "bpm": 45
    },
    {
      "tick": 61344,
      "bpm": 60
    },
    {
      "tick": 61440,
      "bpm": 60
    },
    {
      "tick": 65280,
      "bpm": 60
    },
    {
      "tick": 65472,
      "bpm": 55
    },
    {
      "tick": 65568,
      "bpm": 50
    },
    {
      "tick": 65760,
      "bpm": 60
    },
    {
      "tick": 66432,
      "bpm": 55
    },
    {
      "tick": 66624,
      "bpm": 50
    },
    {
      "tick": 66720,
      "bpm": 40
    },
    {
      "tick": 66816,
      "bpm": 60
    },
    {
      "tick": 70656,
      "bpm": 45
    }
  ],
  "time_signatures": [
    {
      "tick": 0,
      "numerator": 3,
      "denominator": 4
    }
  ],
  "track_type": "solo_string",
  "voice_count": 2,
  "total_notes": 651,
  "tracks": [
    {
      "role": "solo_0",
      "notes": [
        {
          "pitch": 50,
          "onset": 0.0,
          "duration": 0.5,
          "velocity": 70
        },
        {
          "pitch": 53,
          "onset": 0.5,
          "duration": 0.5,
          "velocity": 70
        },
        {
          "pitch": 57,
          "onset": 1.0,
          "duration": 1.25,
          "velocity": 71
        },
        {
          "pitch": 53,
          "onset": 2.25,
          "duration": 0.25,
          "velocity": 74
        },
        {
          "pitch": 52,
          "onset": 2.5,
          "duration": 0.25,
          "velocity": 74
        },
        {
          "pitch": 50,
          "onset": 2.75,
          "duration": 0.25,
          "velocity": 75
        },
        {
          "pitch": 49,
          "onset": 3.0,
          "duration": 0.25,
          "velocity": 75
        },
        {
          "pitch": 52,
          "onset": 3.25,
          "duration": 0.25,
          "velocity": 76
        },
        {
          "pitch": 55,
          "onset": 3.5,
          "duration": 0.25,
          "velocity": 76
        },
        {
          "pitch": 57,
          "onset": 3.75,
          "duration": 0.25,
          "velocity": 77
        },
        {
          "pitch": 58,
          "onset": 4.0,
          "duration": 1.25,
          "velocity": 77
        },
        {
          "pitch": 57,
          "onset": 5.25,
          "duration": 0.25,
          "velocity": 80
        },
        {
          "pitch": 55,
          "onset": 5.5,
          "duration": 0.25,
          "velocity": 80
        },
        {
          "pitch": 53,
          "onset": 5.75,
          "duration": 0.25,
          "velocity": 80
        },
        {
          "pitch": 52,
          "onset": 6.0,
          "duration": 0.25,
          "velocity": 80
        },
        {
          "pitch": 55,
          "onset": 6.25,
          "duration": 0.25,
          "velocity": 85
        },
        {
          "pitch": 58,
          "onset": 6.5,
          "duration": 0.25,
          "velocity": 90
        },
        {
          "pitch": 61,
          "onset": 6.75,
          "duration": 0.25,
          "velocity": 95
        },
        {
          "pitch": 64,
          "onset": 7.0,
          "duration": 0.75,
          "velocity": 100
        },
        {
          "pitch": 58,
          "onset": 7.75,
          "duration": 0.25,
          "velocity": 100
        },
        {
          "pitch": 57,
          "onset": 8.0,
          "duration": 0.25,
          "velocity": 97
        },
        {
          "pitch": 55,
          "onset": 8.25,
          "duration": 0.25,
          "velocity": 93
        },
        {
          "pitch": 53,
          "onset": 8.5,
          "duration": 0.25,
          "velocity": 89
        },
        {
          "pitch": 52,
          "onset": 8.75,
          "duration": 0.25,
          "velocity": 85
        },
        {
          "pitch": 53,
          "onset": 9.0,
          "duration": 0.25,
          "velocity": 81
        },
        {
          "pitch": 55,
          "onset": 9.25,
          "duration": 0.25,
          "velocity": 77
        },
        {
          "pitch": 57,
          "onset": 9.5,
          "duration": 0.25,
          "velocity": 74
        },
        {
          "pitch": 53,
          "onset": 9.75,
          "duration": 0.25,
          "velocity": 70
        },
        {
          "pitch": 50,
          "onset": 10.0,
          "duration": 0.5,
          "velocity": 70
        },
        {
          "pitch": 48,
          "onset": 10.5,
          "duration": 0.5,
          "velocity": 70
        },
        {
          "pitch": 46,
          "onset": 11.0,
          "duration": 0.5,
          "velocity": 70
        },
        {
          "pitch": 45,
          "onset": 11.5,
          "duration": 0.5,
          "velocity": 70
        },
        {
          "pitch": 46,
          "onset": 12.0,
          "duration": 0.25,
          "velocity": 80
        },
        {
          "pitch": 50,
          "onset": 12.25,
          "duration": 0.25,
          "velocity": 80
        },
        {
          "pitch": 53,
          "onset": 12.5,
          "duration": 0.25,
          "velocity": 80
        },
        {
          "pitch": 57,
          "onset": 12.75,
          "duration": 0.25,
          "velocity": 80
        },
        {
          "pitch": 62,
          "onset": 13.0,
          "duration": 0.75,
          "velocity": 80
        },
        {
          "pitch": 60,
          "onset": 13.75,
          "duration": 0.25,
          "velocity": 80
        },
        {
          "pitch": 58,
          "onset": 14.0,
          "duration": 0.25,
          "velocity": 80
        },
        {
          "pitch": 57,
          "onset": 14.25,
          "duration": 0.25,
          "velocity": 80
        },
        {
          "pitch": 55,
          "onset": 14.5,
          "duration": 0.25,
          "velocity": 80
        },
        {
          "pitch": 53,
          "onset": 14.75,
          "duration": 0.25,
          "velocity": 80
        },
        {
          "pitch": 52,
          "onset": 15.0,
          "duration": 0.25,
          "velocity": 80
        },
        {
          "pitch": 55,
          "onset": 15.25,
          "duration": 0.25,
          "velocity": 80
        },
        {
          "pitch": 58,
          "onset": 15.5,
          "duration": 0.25,
          "velocity": 80
        },
        {
          "pitch": 62,
          "onset": 15.75,
          "duration": 0.25,
          "velocity": 80
        },
        {
          "pitch": 60,
          "onset": 16.0,
          "duration": 0.25,
          "velocity": 80
        },
        {
          "pitch": 57,
          "onset": 16.25,
          "duration": 0.25,
          "velocity": 80
        },
        {
          "pitch": 58,
          "onset": 16.5,
          "duration": 0.25,
          "velocity": 80
        },
        {
          "pitch": 55,
          "onset": 16.75,
          "duration": 0.25,
          "velocity": 80
        },
        {
          "pitch": 53,
          "onset": 17.0,
          "duration": 0.25,
          "velocity": 80
        },
        {
          "pitch": 52,
          "onset": 17.25,
          "duration": 0.25,
          "velocity": 80
        },
        {
          "pitch": 55,
          "onset": 17.5,
          "duration": 0.25,
          "velocity": 80
        },
        {
          "pitch": 46,
          "onset": 17.75,
          "duration": 0.25,
          "velocity": 80
        },
        {
          "pitch": 45,
          "onset": 18.0,
          "duration": 0.25,
          "velocity": 80
        },
        {
          "pitch": 48,
          "onset": 18.25,
          "duration": 0.25,
          "velocity": 80
        },
        {
          "pitch": 52,
          "onset": 18.5,
          "duration": 0.25,
          "velocity": 80
        },
        {
          "pitch": 55,
          "onset": 18.75,
          "duration": 0.25,
          "velocity": 80
        },
        {
          "pitch": 60,
          "onset": 19.0,
          "duration": 0.75,
          "velocity": 80
        },
        {
          "pitch": 58,
          "onset": 19.75,
          "duration": 0.25,
          "velocity": 80
        },
        {
          "pitch": 57,
          "onset": 20.0,
          "duration": 0.25,
          "velocity": 80
        },
        {
          "pitch": 55,
          "onset": 20.25,
          "duration": 0.25,
          "velocity": 80
        },
        {
          "pitch": 53,
          "onset": 20.5,
          "duration": 0.25,
          "velocity": 80
        },
        {
          "pitch": 52,
          "onset": 20.75,
          "duration": 0.25,
          "velocity": 80
        },
        {
          "pitch": 50,
          "onset": 21.0,
          "duration": 0.25,
          "velocity": 80
        },
        {
          "pitch": 53,
          "onset": 21.25,
          "duration": 0.25,
          "velocity": 80
        },
        {
          "pitch": 57,
          "onset": 21.5,
          "duration": 0.25,
          "velocity": 80
        },
        {
          "pitch": 60,
          "onset": 21.75,
          "duration": 0.25,
          "velocity": 80
        },
        {
          "pitch": 58,
          "onset": 22.0,
          "duration": 0.25,
          "velocity": 80
        },
        {
          "pitch": 55,
          "onset": 22.25,
          "duration": 0.25,
          "velocity": 80
        },
        {
          "pitch": 57,
          "onset": 22.5,
          "duration": 0.25,
          "velocity": 80
        },
        {
          "pitch": 53,
          "onset": 22.75,
          "duration": 0.25,
          "velocity": 80
        },
        {
          "pitch": 52,
          "onset": 23.0,
          "duration": 0.25,
          "velocity": 80
        },
        {
          "pitch": 53,
          "onset": 23.25,
          "duration": 0.25,
          "velocity": 80
        },
        {
          "pitch": 57,
          "onset": 23.5,
          "duration": 0.25,
          "velocity": 80
        },
        {
          "pitch": 53,
          "onset": 23.75,
          "duration": 0.25,
          "velocity": 80
        },
        {
          "pitch": 43,
          "onset": 24.0,
          "duration": 0.25,
          "velocity": 80
        },
        {
          "pitch": 46,
          "onset": 24.25,
          "duration": 0.25,
          "velocity": 80
        },
        {
          "pitch": 50,
          "onset": 24.5,
          "duration": 0.25,
          "velocity": 80
        },
        {
          "pitch": 53,
          "onset": 24.75,
          "duration": 0.25,
          "velocity": 80
        },
        {
          "pitch": 58,
          "onset": 25.0,
          "duration": 0.75,
          "velocity": 80
        },
        {
          "pitch": 57,
          "onset": 25.75,
          "duration": 0.25,
          "velocity": 80
        },
        {
          "pitch": 55,
          "onset": 26.0,
          "duration": 0.25,
          "velocity": 80
        },
        {
          "pitch": 53,
          "onset": 26.25,
          "duration": 0.25,
          "velocity": 80
        },
        {
          "pitch": 52,
          "onset": 26.5,
          "duration": 0.25,
          "velocity": 80
        },
        {
          "pitch": 55,
          "onset": 26.75,
          "duration": 0.25,
          "velocity": 80
        },
        {
          "pitch": 45,
          "onset": 27.0,
          "duration": 0.25,
          "velocity": 80
        },
        {
          "pitch": 48,
          "onset": 27.25,
          "duration": 0.25,
          "velocity": 80
        },
        {
          "pitch": 52,
          "onset": 27.5,
          "duration": 0.25,
          "velocity": 80
        },
        {
          "pitch": 55,
          "onset": 27.75,
          "duration": 0.25,
          "velocity": 80
        },
        {
          "pitch": 60,
          "onset": 28.0,
          "duration": 0.25,
          "velocity": 80
        },
        {
          "pitch": 57,
          "onset": 28.25,
          "duration": 0.25,
          "velocity": 80
        },
        {
          "pitch": 52,
          "onset": 28.5,
          "duration": 0.25,
          "velocity": 80
        },
        {
          "pitch": 55,
          "onset": 28.75,
          "duration": 0.25,
          "velocity": 80
        },
        {
          "pitch": 53,
          "onset": 29.0,
          "duration": 0.25,
          "velocity": 80
        },
        {
          "pitch": 57,
          "onset": 29.25,
          "duration": 0.25,
          "velocity": 80
        },
        {
          "pitch": 50,
          "onset": 29.5,
          "duration": 0.25,
          "velocity": 80
        },
        {
          "pitch": 51,
          "onset": 29.75,
          "duration": 0.25,
          "velocity": 80
        },
        {
          "pitch": 50,
          "onset": 30.0,
          "duration": 0.25,
          "velocity": 80
        },
        {
          "pitch": 45,
          "onset": 30.25,
          "duration": 0.25,
          "velocity": 80
        },
        {
          "pitch": 46,
          "onset": 30.5,
          "duration": 0.25,
          "velocity": 80
        },
        {
          "pitch": 50,
          "onset": 30.75,
          "duration": 0.25,
          "velocity": 80
        },
        {
          "pitch": 55,
          "onset": 31.0,
          "duration": 0.25,
          "velocity": 80
        },
        {
          "pitch": 58,
          "onset": 31.25,
          "duration": 0.25,
          "velocity": 80
        },
        {
          "pitch": 57,
          "onset": 31.5,
          "duration": 0.25,
          "velocity": 80
        },
        {
          "pitch": 60,
          "onset": 31.75,
          "duration": 0.25,
          "velocity": 80
        },
        {
          "pitch": 58,
          "onset": 32.0,
          "duration": 0.25,
          "velocity": 80
        },
        {
          "pitch": 55,
          "onset": 32.25,
          "duration": 0.25,
          "velocity": 80
        },
        {
          "pitch": 62,
          "onset": 32.5,
          "duration": 0.25,
          "velocity": 80
        },
        {
          "pitch": 53,
          "onset": 32.75,
          "duration": 0.25,
          "velocity": 80
        },
        {
          "pitch": 52,
          "onset": 33.0,
          "duration": 0.25,
          "velocity": 80
        },
        {
          "pitch": 47,
          "onset": 33.25,
          "duration": 0.25,
          "velocity": 80
        },
        {
          "pitch": 48,
          "onset": 33.5,
          "duration": 0.25,
          "velocity": 80
        },
        {
          "pitch": 52,
          "onset": 33.75,
          "duration": 0.25,
          "velocity": 80
        },
        {
          "pitch": 55,
          "onset": 34.0,
          "duration": 0.25,
          "velocity": 80
        },
        {
          "pitch": 50,
          "onset": 34.25,
          "duration": 0.25,
          "velocity": 80
        },
        {
          "pitch": 52,
          "onset": 34.5,
          "duration": 0.25,
          "velocity": 80
        },
        {
          "pitch": 48,
          "onset": 34.75,
          "duration": 0.25,
          "velocity": 80
        },
        {
          "pitch": 46,
          "onset": 35.0,
          "duration": 0.25,
          "velocity": 80
        },
        {
          "pitch": 43,
          "onset": 35.25,
          "duration": 0.25,
          "velocity": 80
        },
        {
          "pitch": 52,
          "onset": 35.5,
          "duration": 0.25,
          "velocity": 80
        },
        {
          "pitch": 46,
          "onset": 35.75,
          "duration": 0.25,
          "velocity": 80
        },
        {
          "pitch": 41,
          "onset": 36.0,
          "duration": 0.5,
          "velocity": 70
        },
        {
          "pitch": 45,
          "onset": 36.5,
          "duration": 0.5,
          "velocity": 70
        },
        {
          "pitch": 48,
          "onset": 37.0,
          "duration": 1.25,
          "velocity": 70
        },
        {
          "pitch": 46,
          "onset": 38.25,
          "duration": 0.25,
          "velocity": 70
        },
        {
          "pitch": 45,
          "onset": 38.5,
          "duration": 0.25,
          "velocity": 70
        },
        {
          "pitch": 43,
          "onset": 38.75,
          "duration": 0.25,
          "velocity": 70
        },
        {
          "pitch": 42,
          "onset": 39.0,
          "duration": 0.25,
          "velocity": 70
        },
        {
          "pitch": 45,
          "onset": 39.25,
          "duration": 0.25,
          "velocity": 70
        },
        {
          "pitch": 46,
          "onset": 39.5,
          "duration": 0.25,
          "velocity": 70
        },
        {
          "pitch": 48,
          "onset": 39.75,
          "duration": 0.25,
          "velocity": 70
        },
        {
          "pitch": 38,
          "onset": 40.0,
          "duration": 0.25,
          "velocity": 70
        },
        {
          "pitch": 48,
          "onset": 40.25,
          "duration": 0.25,
          "velocity": 70
        },
        {
          "pitch": 46,
          "onset": 40.5,
          "duration": 0.25,
          "velocity": 70
        },
        {
          "pitch": 45,
          "onset": 40.75,
          "duration": 0.25,
          "velocity": 70
        },
        {
          "pitch": 54,
          "onset": 41.0,
          "duration": 0.25,
          "velocity": 70
        },
        {
          "pitch": 51,
          "onset": 41.25,
          "duration": 0.25,
          "velocity": 70
        },
        {
          "pitch": 50,
          "onset": 41.5,
          "duration": 0.25,
          "velocity": 70
        },
        {
          "pitch": 48,
          "onset": 41.75,
          "duration": 0.25,
          "velocity": 70
        },
        {
          "pitch": 46,
          "onset": 42.0,
          "duration": 0.25,
          "velocity": 70
        },
        {
          "pitch": 45,
          "onset": 42.25,
          "duration": 0.25,
          "velocity": 70
        },
        {
          "pitch": 43,
          "onset": 42.5,
          "duration": 0.25,
          "velocity": 70
        },
        {
          "pitch": 46,
          "onset": 42.75,
          "duration": 0.25,
          "velocity": 70
        },
        {
          "pitch": 50,
          "onset": 43.0,
          "duration": 1.25,
          "velocity": 70
        },
        {
          "pitch": 48,
          "onset": 44.25,
          "duration": 0.25,
          "velocity": 70
        },
        {
          "pitch": 46,
          "onset": 44.5,
          "duration": 0.25,
          "velocity": 70
        },
        {
          "pitch": 45,
          "onset": 44.75,
          "duration": 0.25,
          "velocity": 70
        },
        {
          "pitch": 44,
          "onset": 45.0,
          "duration": 0.25,
          "velocity": 70
        },
        {
          "pitch": 47,
          "onset": 45.25,
          "duration": 0.25,
          "velocity": 70
        },
        {
          "pitch": 48,
          "onset": 45.5,
          "duration": 0.25,
          "velocity": 70
        },
        {
          "pitch": 50,
          "onset": 45.75,
          "duration": 0.25,
          "velocity": 70
        },
        {
          "pitch": 40,
          "onset": 46.0,
          "duration": 0.25,
          "velocity": 70
        },
        {
          "pitch": 50,
          "onset": 46.25,
          "duration": 0.25,
          "velocity": 70
        },
        {
          "pitch": 48,
          "onset": 46.5,
          "duration": 0.25,
          "velocity": 70
        },
        {
          "pitch": 47,
          "onset": 46.75,
          "duration": 0.25,
          "velocity": 70
        },
        {
          "pitch": 56,
          "onset": 47.0,
          "duration": 0.25,
          "velocity": 70
        },
        {
          "pitch": 53,
          "onset": 47.25,
          "duration": 0.25,
          "velocity": 70
        },
        {
          "pitch": 52,
          "onset": 47.5,
          "duration": 0.25,
          "velocity": 70
        },
        {
          "pitch": 50,
          "onset": 47.75,
          "duration": 0.25,
          "velocity": 70
        },
        {
          "pitch": 48,
          "onset": 48.0,
          "duration": 0.25,
          "velocity": 70
        },
        {
          "pitch": 47,
          "onset": 48.25,
          "duration": 0.25,
          "velocity": 70
        },
        {
          "pitch": 45,
          "onset": 48.5,
          "duration": 0.25,
          "velocity": 70
        },
        {
          "pitch": 48,
          "onset": 48.75,
          "duration": 0.25,
          "velocity": 70
        },
        {
          "pitch": 53,
          "onset": 49.0,
          "duration": 0.25,
          "velocity": 70
        },
        {
          "pitch": 52,
          "onset": 49.25,
          "duration": 0.25,
          "velocity": 70
        },
        {
          "pitch": 53,
          "onset": 49.5,
          "duration": 0.25,
          "velocity": 70
        },
        {
          "pitch": 56,
          "onset": 49.75,
          "duration": 0.25,
          "velocity": 70
        },
        {
          "pitch": 57,
          "onset": 50.0,
          "duration": 0.25,
          "velocity": 70
        },
        {
          "pitch": 53,
          "onset": 50.25,
          "duration": 0.25,
          "velocity": 70
        },
        {
          "pitch": 50,
          "onset": 50.5,
          "duration": 0.25,
          "velocity": 70
        },
        {
          "pitch": 48,
          "onset": 50.75,
          "duration": 0.25,
          "velocity": 70
        },
        {
          "pitch": 47,
          "onset": 51.0,
          "duration": 0.25,
          "velocity": 75
        },
        {
          "pitch": 50,
          "onset": 51.25,
          "duration": 0.25,
          "velocity": 81
        },
        {
          "pitch": 56,
          "onset": 51.5,
          "duration": 0.25,
          "velocity": 87
        },
        {
          "pitch": 59,
          "onset": 51.75,
          "duration": 0.25,
          "velocity": 94
        },
        {
          "pitch": 62,
          "onset": 52.0,
          "duration": 0.75,
          "velocity": 100
        },
        {
          "pitch": 60,
          "onset": 52.75,
          "duration": 0.25,
          "velocity": 100
        },
        {
          "pitch": 59,
          "onset": 53.0,
          "duration": 0.25,
          "velocity": 100
        },
        {
          "pitch": 57,
          "onset": 53.25,
          "duration": 0.25,
          "velocity": 100
        },
        {
          "pitch": 56,
          "onset": 53.5,
          "duration": 0.25,
          "velocity": 100
        },
        {
          "pitch": 57,
          "onset": 53.75,
          "duration": 0.25,
          "velocity": 100
        },
        {
          "pitch": 48,
          "onset": 54.0,
          "duration": 0.25,
          "velocity": 100
        },
        {
          "pitch": 52,
          "onset": 54.25,
          "duration": 0.25,
          "velocity": 100
        },
        {
          "pitch": 57,
          "onset": 54.5,
          "duration": 0.25,
          "velocity": 100
        },
        {
          "pitch": 60,
          "onset": 54.75,
          "duration": 0.25,
          "velocity": 100
        },
        {
          "pitch": 64,
          "onset": 55.0,
          "duration": 0.75,
          "velocity": 100
        },
        {
          "pitch": 60,
          "onset": 55.75,
          "duration": 0.25,
          "velocity": 100
        },
        {
          "pitch": 59,
          "onset": 56.0,
          "duration": 0.25,
          "velocity": 100
        },
        {
          "pitch": 57,
          "onset": 56.25,
          "duration": 0.25,
          "velocity": 100
        },
        {
          "pitch": 56,
          "onset": 56.5,
          "duration": 0.25,
          "velocity": 100
        },
        {
          "pitch": 57,
          "onset": 56.75,
          "duration": 0.25,
          "velocity": 100
        },
        {
          "pitch": 50,
          "onset": 57.0,
          "duration": 0.25,
          "velocity": 100
        },
        {
          "pitch": 53,
          "onset": 57.25,
          "duration": 0.25,
          "velocity": 100
        },
        {
          "pitch": 57,
          "onset": 57.5,
          "duration": 0.25,
          "velocity": 100
        },
        {
          "pitch": 62,
          "onset": 57.75,
          "duration": 0.25,
          "velocity": 100
        },
        {
          "pitch": 65,
          "onset": 58.0,
          "duration": 0.75,
          "velocity": 100
        },
        {
          "pitch": 64,
          "onset": 58.75,
          "duration": 0.25,
          "velocity": 100
        },
        {
          "pitch": 62,
          "onset": 59.0,
          "duration": 0.25,
          "velocity": 100
        },
        {
          "pitch": 60,
          "onset": 59.25,
          "duration": 0.25,
          "velocity": 100
        },
        {
          "pitch": 59,
          "onset": 59.5,
          "duration": 0.25,
          "velocity": 100
        },
        {
          "pitch": 62,
          "onset": 59.75,
          "duration": 0.25,
          "velocity": 100
        },
        {
          "pitch": 62,
          "onset": 60.25,
          "duration": 0.25,
          "velocity": 100
        },
        {
          "pitch": 60,
          "onset": 60.5,
          "duration": 0.25,
          "velocity": 100
        },
        {
          "pitch": 59,
          "onset": 60.75,
          "duration": 0.375,
          "velocity": 100
        },
        {
          "pitch": 60,
          "onset": 61.25,
          "duration": 0.25,
          "velocity": 100
        },
        {
          "pitch": 59,
          "onset": 61.5,
          "duration": 0.25,
          "velocity": 100
        },
        {
          "pitch": 57,
          "onset": 61.75,
          "duration": 0.375,
          "velocity": 100
        },
        {
          "pitch": 59,
          "onset": 62.25,
          "duration": 0.25,
          "velocity": 100
        },
        {
          "pitch": 57,
          "onset": 62.5,
          "duration": 0.25,
          "velocity": 100
        },
        {
          "pitch": 56,
          "onset": 62.75,
          "duration": 0.25,
          "velocity": 100
        },
        {
          "pitch": 57,
          "onset": 63.25,
          "duration": 0.25,
          "velocity": 100
        },
        {
          "pitch": 55,
          "onset": 63.5,
          "duration": 0.25,
          "velocity": 100
        },
        {
          "pitch": 53,
          "onset": 63.75,
          "duration": 0.375,
          "velocity": 100
        },
        {
          "pitch": 55,
          "onset": 64.25,
          "duration": 0.25,
          "velocity": 100
        },
        {
          "pitch": 53,
          "onset": 64.5,
          "duration": 0.25,
          "velocity": 100
        },
        {
          "pitch": 52,
          "onset": 64.75,
          "duration": 0.375,
          "velocity": 100
        },
        {
          "pitch": 53,
          "onset": 65.25,
          "duration": 0.25,
          "velocity": 100
        },
        {
          "pitch": 52,
          "onset": 65.5,
          "duration": 0.25,
          "velocity": 100
        },
        {
          "pitch": 50,
          "onset": 65.75,
          "duration": 0.25,
          "velocity": 100
        },
        {
          "pitch": 50,
          "onset": 66.25,
          "duration": 0.25,
          "velocity": 100
        },
        {
          "pitch": 52,
          "onset": 66.5,
          "duration": 0.25,
          "velocity": 100
        },
        {
          "pitch": 53,
          "onset": 66.75,
          "duration": 0.25,
          "velocity": 100
        },
        {
          "pitch": 59,
          "onset": 67.0,
          "duration": 0.25,
          "velocity": 100
        },
        {
          "pitch": 53,
          "onset": 67.25,
          "duration": 0.25,
          "velocity": 100
        },
        {
          "pitch": 52,
          "onset": 67.5,
          "duration": 0.25,
          "velocity": 100
        },
        {
          "pitch": 50,
          "onset": 67.75,
          "duration": 0.375,
          "velocity": 100
        },
        {
          "pitch": 50,
          "onset": 68.25,
          "duration": 0.25,
          "velocity": 100
        },
        {
          "pitch": 48,
          "onset": 68.5,
          "duration": 0.25,
          "velocity": 100
        },
        {
          "pitch": 47,
          "onset": 68.75,
          "duration": 0.25,
          "velocity": 100
        },
        {
          "pitch": 45,
          "onset": 69.0,
          "duration": 0.25,
          "velocity": 100
        },
        {
          "pitch": 47,
          "onset": 69.25,
          "duration": 0.25,
          "velocity": 100
        },
        {
          "pitch": 48,
          "onset": 69.5,
          "duration": 0.25,
          "velocity": 100
        },
        {
          "pitch": 52,
          "onset": 69.75,
          "duration": 0.25,
          "velocity": 100
        },
        {
          "pitch": 57,
          "onset": 70.0,
          "duration": 0.25,
          "velocity": 100
        },
        {
          "pitch": 59,
          "onset": 70.25,
          "duration": 0.25,
          "velocity": 100
        },
        {
          "pitch": 60,
          "onset": 70.5,
          "duration": 0.25,
          "velocity": 100
        },
        {
          "pitch": 57,
          "onset": 70.75,
          "duration": 0.25,
          "velocity": 100
        },
        {
          "pitch": 52,
          "onset": 71.0,
          "duration": 0.25,
          "velocity": 95
        },
        {
          "pitch": 48,
          "onset": 71.25,
          "duration": 0.25,
          "velocity": 89
        },
        {
          "pitch": 45,
          "onset": 71.5,
          "duration": 0.25,
          "velocity": 82
        },
        {
          "pitch": 43,
          "onset": 71.75,
          "duration": 0.25,
          "velocity": 75
        },
        {
          "pitch": 45,
          "onset": 72.25,
          "duration": 0.25,
          "velocity": 70
        },
        {
          "pitch": 48,
          "onset": 72.5,
          "duration": 0.25,
          "velocity": 70
        },
        {
          "pitch": 50,
          "onset": 72.75,
          "duration": 0.25,
          "velocity": 71
        },
        {
          "pitch": 51,
          "onset": 73.0,
          "duration": 0.75,
          "velocity": 71
        },
        {
          "pitch": 50,
          "onset": 73.75,
          "duration": 0.25,
          "velocity": 73
        },
        {
          "pitch": 48,
          "onset": 74.0,
          "duration": 0.25,
          "velocity": 73
        },
        {
          "pitch": 46,
          "onset": 74.25,
          "duration": 0.25,
          "velocity": 74
        },
        {
          "pitch": 48,
          "onset": 74.5,
          "duration": 0.375,
          "velocity": 74
        },
        {
          "pitch": 57,
          "onset": 74.75,
          "duration": 0.25,
          "velocity": 75
        },
        {
          "pitch": 46,
          "onset": 75.0,
          "duration": 0.25,
          "velocity": 75
        },
        {
          "pitch": 45,
          "onset": 75.25,
          "duration": 0.25,
          "velocity": 76
        },
        {
          "pitch": 46,
          "onset": 75.5,
          "duration": 0.25,
          "velocity": 76
        },
        {
          "pitch": 50,
          "onset": 75.75,
          "duration": 0.375,
          "velocity": 77
        },
        {
          "pitch": 51,
          "onset": 76.25,
          "duration": 0.25,
          "velocity": 78
        },
        {
          "pitch": 53,
          "onset": 76.5,
          "duration": 0.25,
          "velocity": 78
        },
        {
          "pitch": 55,
          "onset": 76.75,
          "duration": 0.375,
          "velocity": 79
        },
        {
          "pitch": 55,
          "onset": 77.25,
          "duration": 0.25,
          "velocity": 80
        },
        {
          "pitch": 53,
          "onset": 77.5,
          "duration": 0.25,
          "velocity": 80
        },
        {
          "pitch": 51,
          "onset": 77.75,
          "duration": 0.25,
          "velocity": 80
        },
        {
          "pitch": 50,
          "onset": 78.0,
          "duration": 0.25,
          "velocity": 80
        },
        {
          "pitch": 48,
          "onset": 78.25,
          "duration": 0.25,
          "velocity": 81
        },
        {
          "pitch": 50,
          "onset": 78.5,
          "duration": 0.25,
          "velocity": 82
        },
        {
          "pitch": 53,
          "onset": 78.75,
          "duration": 0.375,
          "velocity": 83
        },
        {
          "pitch": 55,
          "onset": 79.25,
          "duration": 0.25,
          "velocity": 86
        },
        {
          "pitch": 57,
          "onset": 79.5,
          "duration": 0.25,
          "velocity": 87
        },
        {
          "pitch": 58,
          "onset": 79.75,
          "duration": 0.375,
          "velocity": 89
        },
        {
          "pitch": 58,
          "onset": 80.25,
          "duration": 0.25,
          "velocity": 91
        },
        {
          "pitch": 57,
          "onset": 80.5,
          "duration": 0.25,
          "velocity": 93
        },
        {
          "pitch": 55,
          "onset": 80.75,
          "duration": 0.25,
          "velocity": 94
        },
        {
          "pitch": 53,
          "onset": 81.0,
          "duration": 0.25,
          "velocity": 95
        },
        {
          "pitch": 52,
          "onset": 81.25,
          "duration": 0.25,
          "velocity": 97
        },
        {
          "pitch": 53,
          "onset": 81.5,
          "duration": 0.25,
          "velocity": 98
        },
        {
          "pitch": 57,
          "onset": 81.75,
          "duration": 0.375,
          "velocity": 99
        },
        {
          "pitch": 58,
          "onset": 82.25,
          "duration": 0.25,
          "velocity": 100
        },
        {
          "pitch": 60,
          "onset": 82.5,
          "duration": 0.25,
          "velocity": 100
        },
        {
          "pitch": 62,
          "onset": 82.75,
          "duration": 0.375,
          "velocity": 100
        },
        {
          "pitch": 62,
          "onset": 83.25,
          "duration": 0.25,
          "velocity": 100
        },
        {
          "pitch": 60,
          "onset": 83.5,
          "duration": 0.25,
          "velocity": 100
        },
        {
          "pitch": 58,
          "onset": 83.75,
          "duration": 0.25,
          "velocity": 100
        },
        {
          "pitch": 57,
          "onset": 84.0,
          "duration": 0.25,
          "velocity": 100
        },
        {
          "pitch": 55,
          "onset": 84.25,
          "duration": 0.25,
          "velocity": 100
        },
        {
          "pitch": 57,
          "onset": 84.5,
          "duration": 0.25,
          "velocity": 100
        },
        {
          "pitch": 60,
          "onset": 84.75,
          "duration": 0.375,
          "velocity": 100
        },
        {
          "pitch": 62,
          "onset": 85.25,
          "duration": 0.25,
          "velocity": 100
        },
        {
          "pitch": 64,
          "onset": 85.5,
          "duration": 0.25,
          "velocity": 100
        },
        {
          "pitch": 65,
          "onset": 85.75,
          "duration": 0.375,
          "velocity": 100
        },
        {
          "pitch": 65,
          "onset": 86.25,
          "duration": 0.25,
          "velocity": 100
        },
        {
          "pitch": 64,
          "onset": 86.5,
          "duration": 0.25,
          "velocity": 100
        },
        {
          "pitch": 62,
          "onset": 86.75,
          "duration": 0.25,
          "velocity": 100
        },
        {
          "pitch": 61,
          "onset": 87.0,
          "duration": 0.25,
          "velocity": 100
        },
        {
          "pitch": 55,
          "onset": 87.25,
          "duration": 0.25,
          "velocity": 100
        },
        {
          "pitch": 53,
          "onset": 87.5,
          "duration": 0.25,
          "velocity": 100
        },
        {
          "pitch": 52,
          "onset": 87.75,
          "duration": 0.375,
          "velocity": 100
        },
        {
          "pitch": 52,
          "onset": 88.25,
          "duration": 0.25,
          "velocity": 100
        },
        {
          "pitch": 53,
          "onset": 88.5,
          "duration": 0.25,
          "velocity": 100
        },
        {
          "pitch": 55,
          "onset": 88.75,
          "duration": 0.25,
          "velocity": 100
        },
        {
          "pitch": 61,
          "onset": 89.0,
          "duration": 0.25,
          "velocity": 100
        },
        {
          "pitch": 58,
          "onset": 89.25,
          "duration": 0.25,
          "velocity": 100
        },
        {
          "pitch": 57,
          "onset": 89.5,
          "duration": 0.25,
          "velocity": 100
        },
        {
          "pitch": 55,
          "onset": 89.75,
          "duration": 0.25,
          "velocity": 100
        },
        {
          "pitch": 53,
          "onset": 90.0,
          "duration": 0.25,
          "velocity": 100
        },
        {
          "pitch": 55,
          "onset": 90.25,
          "duration": 0.25,
          "velocity": 100
        },
        {
          "pitch": 57,
          "onset": 90.5,
          "duration": 0.25,
          "velocity": 100
        },
        {
          "pitch": 61,
          "onset": 90.75,
          "duration": 0.25,
          "velocity": 100
        },
        {
          "pitch": 62,
          "onset": 91.0,
          "duration": 0.25,
          "velocity": 100
        },
        {
          "pitch": 57,
          "onset": 91.25,
          "duration": 0.25,
          "velocity": 100
        },
        {
          "pitch": 55,
          "onset": 91.5,
          "duration": 0.25,
          "velocity": 100
        },
        {
          "pitch": 53,
          "onset": 91.75,
          "duration": 0.25,
          "velocity": 100
        },
        {
          "pitch": 57,
          "onset": 92.0,
          "duration": 0.25,
          "velocity": 100
        },
        {
          "pitch": 53,
          "onset": 92.25,
          "duration": 0.25,
          "velocity": 100
        },
        {
          "pitch": 52,
          "onset": 92.5,
          "duration": 0.25,
          "velocity": 100
        },
        {
          "pitch": 50,
          "onset": 92.75,
          "duration": 0.25,
          "velocity": 100
        },
        {
          "pitch": 56,
          "onset": 93.0,
          "duration": 0.25,
          "velocity": 100
        },
        {
          "pitch": 50,
          "onset": 93.25,
          "duration": 0.25,
          "velocity": 100
        },
        {
          "pitch": 52,
          "onset": 93.5,
          "duration": 0.25,
          "velocity": 100
        },
        {
          "pitch": 53,
          "onset": 93.75,
          "duration": 0.375,
          "velocity": 100
        },
        {
          "pitch": 53,
          "onset": 94.25,
          "duration": 0.25,
          "velocity": 100
        },
        {
          "pitch": 52,
          "onset": 94.5,
          "duration": 0.25,
          "velocity": 100
        },
        {
          "pitch": 50,
          "onset": 94.75,
          "duration": 0.25,
          "velocity": 100
        },
        {
          "pitch": 56,
          "onset": 95.0,
          "duration": 0.25,
          "velocity": 100
        },
        {
          "pitch": 53,
          "onset": 95.25,
          "duration": 0.25,
          "velocity": 100
        },
        {
          "pitch": 52,
          "onset": 95.5,
          "duration": 0.25,
          "velocity": 100
        },
        {
          "pitch": 50,
          "onset": 95.75,
          "duration": 0.25,
          "velocity": 100
        },
        {
          "pitch": 49,
          "onset": 96.0,
          "duration": 0.25,
          "velocity": 100
        },
        {
          "pitch": 47,
          "onset": 96.25,
          "duration": 0.25,
          "velocity": 100
        },
        {
          "pitch": 49,
          "onset": 96.5,
          "duration": 0.25,
          "velocity": 100
        },
        {
          "pitch": 52,
          "onset": 96.75,
          "duration": 0.25,
          "velocity": 100
        },
        {
          "pitch": 57,
          "onset": 97.0,
          "duration": 0.25,
          "velocity": 100
        },
        {
          "pitch": 52,
          "onset": 97.25,
          "duration": 0.25,
          "velocity": 100
        },
        {
          "pitch": 49,
          "onset": 97.5,
          "duration": 0.25,
          "velocity": 100
        },
        {
          "pitch": 52,
          "onset": 97.75,
          "duration": 0.375,
          "velocity": 100
        },
        {
          "pitch": 55,
          "onset": 98.25,
          "duration": 0.25,
          "velocity": 100
        },
        {
          "pitch": 53,
          "onset": 98.5,
          "duration": 0.25,
          "velocity": 100
        },
        {
          "pitch": 52,
          "onset": 98.75,
          "duration": 0.25,
          "velocity": 100
        },
        {
          "pitch": 53,
          "onset": 99.0,
          "duration": 0.25,
          "velocity": 100
        },
        {
          "pitch": 52,
          "onset": 99.25,
          "duration": 0.25,
          "velocity": 100
        },
        {
          "pitch": 53,
          "onset": 99.5,
          "duration": 0.25,
          "velocity": 100
        },
        {
          "pitch": 57,
          "onset": 99.75,
          "duration": 0.25,
          "velocity": 100
        },
        {
          "pitch": 62,
          "onset": 100.0,
          "duration": 0.25,
          "velocity": 100
        },
        {
          "pitch": 57,
          "onset": 100.25,
          "duration": 0.25,
          "velocity": 100
        },
        {
          "pitch": 53,
          "onset": 100.5,
          "duration": 0.25,
          "velocity": 100
        },
        {
          "pitch": 57,
          "onset": 100.75,
          "duration": 0.375,
          "velocity": 100
        },
        {
          "pitch": 60,
          "onset": 101.25,
          "duration": 0.25,
          "velocity": 100
        },
        {
          "pitch": 58,
          "onset": 101.5,
          "duration": 0.25,
          "velocity": 100
        },
        {
          "pitch": 57,
          "onset": 101.75,
          "duration": 0.25,
          "velocity": 100
        },
        {
          "pitch": 55,
          "onset": 102.0,
          "duration": 0.25,
          "velocity": 100
        },
        {
          "pitch": 53,
          "onset": 102.25,
          "duration": 0.25,
          "velocity": 100
        },
        {
          "pitch": 55,
          "onset": 102.5,
          "duration": 0.25,
          "velocity": 100
        },
        {
          "pitch": 61,
          "onset": 102.75,
          "duration": 0.25,
          "velocity": 100
        },
        {
          "pitch": 64,
          "onset": 103.0,
          "duration": 0.25,
          "velocity": 100
        },
        {
          "pitch": 61,
          "onset": 103.25,
          "duration": 0.25,
          "velocity": 100
        },
        {
          "pitch": 55,
          "onset": 103.5,
          "duration": 0.25,
          "velocity": 100
        },
        {
          "pitch": 61,
          "onset": 103.75,
          "duration": 0.375,
          "velocity": 100
        },
        {
          "pitch": 55,
          "onset": 104.25,
          "duration": 0.25,
          "velocity": 100
        },
        {
          "pitch": 53,
          "onset": 104.5,
          "duration": 0.25,
          "velocity": 100
        },
        {
          "pitch": 52,
          "onset": 104.75,
          "duration": 0.25,
          "velocity": 100
        },
        {
          "pitch": 50,
          "onset": 105.0,
          "duration": 0.25,
          "velocity": 100
        },
        {
          "pitch": 57,
          "onset": 105.25,
          "duration": 0.25,
          "velocity": 100
        },
        {
          "pitch": 62,
          "onset": 105.5,
          "duration": 0.25,
          "velocity": 100
        },
        {
          "pitch": 64,
          "onset": 105.75,
          "duration": 0.25,
          "velocity": 100
        },
        {
          "pitch": 65,
          "onset": 106.0,
          "duration": 0.25,
          "velocity": 100
        },
        {
          "pitch": 62,
          "onset": 106.25,
          "duration": 0.25,
          "velocity": 100
        },
        {
          "pitch": 57,
          "onset": 106.5,
          "duration": 0.25,
          "velocity": 100
        },
        {
          "pitch": 53,
          "onset": 106.75,
          "duration": 0.375,
          "velocity": 100
        },
        {
          "pitch": 60,
          "onset": 107.25,
          "duration": 0.25,
          "velocity": 100
        },
        {
          "pitch": 58,
          "onset": 107.5,
          "duration": 0.25,
          "velocity": 100
        },
        {
          "pitch": 57,
          "onset": 107.75,
          "duration": 0.25,
          "velocity": 100
        },
        {
          "pitch": 55,
          "onset": 108.0,
          "duration": 0.25,
          "velocity": 100
        },
        {
          "pitch": 57,
          "onset": 108.25,
          "duration": 0.25,
          "velocity": 100
        },
        {
          "pitch": 58,
          "onset": 108.5,
          "duration": 0.25,
          "velocity": 100
        },
        {
          "pitch": 50,
          "onset": 108.75,
          "duration": 0.25,
          "velocity": 99
        },
        {
          "pitch": 51,
          "onset": 109.0,
          "duration": 0.25,
          "velocity": 99
        },
        {
          "pitch": 53,
          "onset": 109.25,
          "duration": 0.25,
          "velocity": 98
        },
        {
          "pitch": 55,
          "onset": 109.5,
          "duration": 0.25,
          "velocity": 98
        },
        {
          "pitch": 57,
          "onset": 109.75,
          "duration": 0.25,
          "velocity": 97
        },
        {
          "pitch": 58,
          "onset": 110.0,
          "duration": 0.375,
          "velocity": 97
        },
        {
          "pitch": 63,
          "onset": 110.5,
          "duration": 0.375,
          "velocity": 96
        },
        {
          "pitch": 53,
          "onset": 111.0,
          "duration": 0.25,
          "velocity": 95
        },
        {
          "pitch": 55,
          "onset": 111.25,
          "duration": 0.25,
          "velocity": 95
        },
        {
          "pitch": 57,
          "onset": 111.5,
          "duration": 0.25,
          "velocity": 94
        },
        {
          "pitch": 49,
          "onset": 111.75,
          "duration": 0.25,
          "velocity": 94
        },
        {
          "pitch": 50,
          "onset": 112.0,
          "duration": 0.25,
          "velocity": 93
        },
        {
          "pitch": 52,
          "onset": 112.25,
          "duration": 0.25,
          "velocity": 93
        },
        {
          "pitch": 53,
          "onset": 112.5,
          "duration": 0.25,
          "velocity": 92
        },
        {
          "pitch": 55,
          "onset": 112.75,
          "duration": 0.25,
          "velocity": 92
        },
        {
          "pitch": 57,
          "onset": 113.0,
          "duration": 0.375,
          "velocity": 91
        },
        {
          "pitch": 62,
          "onset": 113.5,
          "duration": 0.375,
          "velocity": 90
        },
        {
          "pitch": 52,
          "onset": 114.0,
          "duration": 0.25,
          "velocity": 90
        },
        {
          "pitch": 53,
          "onset": 114.25,
          "duration": 0.25,
          "velocity": 89
        },
        {
          "pitch": 55,
          "onset": 114.5,
          "duration": 0.25,
          "velocity": 89
        },
        {
          "pitch": 46,
          "onset": 114.75,
          "duration": 0.25,
          "velocity": 88
        },
        {
          "pitch": 45,
          "onset": 115.0,
          "duration": 0.25,
          "velocity": 88
        },
        {
          "pitch": 47,
          "onset": 115.25,
          "duration": 0.25,
          "velocity": 87
        },
        {
          "pitch": 49,
          "onset": 115.5,
          "duration": 0.25,
          "velocity": 87
        },
        {
          "pitch": 50,
          "onset": 115.75,
          "duration": 0.25,
          "velocity": 86
        },
        {
          "pitch": 52,
          "onset": 116.0,
          "duration": 0.375,
          "velocity": 86
        },
        {
          "pitch": 55,
          "onset": 116.5,
          "duration": 0.375,
          "velocity": 85
        },
        {
          "pitch": 45,
          "onset": 117.5,
          "duration": 0.5,
          "velocity": 70
        },
        {
          "pitch": 55,
          "onset": 118.0,
          "duration": 1.25,
          "velocity": 70
        },
        {
          "pitch": 58,
          "onset": 119.25,
          "duration": 0.25,
          "velocity": 70
        },
        {
          "pitch": 57,
          "onset": 119.5,
          "duration": 0.25,
          "velocity": 70
        },
        {
          "pitch": 55,
          "onset": 119.75,
          "duration": 0.25,
          "velocity": 70
        },
        {
          "pitch": 53,
          "onset": 120.0,
          "duration": 0.25,
          "velocity": 70
        },
        {
          "pitch": 52,
          "onset": 120.25,
          "duration": 0.25,
          "velocity": 70
        },
        {
          "pitch": 50,
          "onset": 120.5,
          "duration": 0.25,
          "velocity": 70
        },
        {
          "pitch": 52,
          "onset": 120.75,
          "duration": 0.25,
          "velocity": 70
        },
        {
          "pitch": 53,
          "onset": 121.0,
          "duration": 0.25,
          "velocity": 70
        },
        {
          "pitch": 50,
          "onset": 121.25,
          "duration": 0.25,
          "velocity": 70
        },
        {
          "pitch": 57,
          "onset": 121.5,
          "duration": 0.25,
          "velocity": 70
        },
        {
          "pitch": 53,
          "onset": 121.75,
          "duration": 0.25,
          "velocity": 70
        },
        {
          "pitch": 62,
          "onset": 122.0,
          "duration": 0.25,
          "velocity": 70
        },
        {
          "pitch": 57,
          "onset": 122.25,
          "duration": 0.25,
          "velocity": 70
        },
        {
          "pitch": 53,
          "onset": 122.5,
          "duration": 0.25,
          "velocity": 70
        },
        {
          "pitch": 50,
          "onset": 122.75,
          "duration": 0.25,
          "velocity": 70
        },
        {
          "pitch": 53,
          "onset": 123.5,
          "duration": 0.5,
          "velocity": 70
        },
        {
          "pitch": 62,
          "onset": 124.0,
          "duration": 1.25,
          "velocity": 70
        },
        {
          "pitch": 65,
          "onset": 125.25,
          "duration": 0.25,
          "velocity": 70
        },
        {
          "pitch": 64,
          "onset": 125.5,
          "duration": 0.25,
          "velocity": 70
        },
        {
          "pitch": 62,
          "onset": 125.75,
          "duration": 0.25,
          "velocity": 70
        },
        {
          "pitch": 61,
          "onset": 126.0,
          "duration": 0.25,
          "velocity": 70
        },
        {
          "pitch": 59,
          "onset": 126.25,
          "duration": 0.25,
          "velocity": 70
        },
        {
          "pitch": 57,
          "onset": 126.5,
          "duration": 0.25,
          "velocity": 70
        },
        {
          "pitch": 59,
          "onset": 126.75,
          "duration": 0.25,
          "velocity": 70
        },
        {
          "pitch": 61,
          "onset": 127.0,
          "duration": 0.375,
          "velocity": 70
        },
        {
          "pitch": 62,
          "onset": 127.5,
          "duration": 0.375,
          "velocity": 78
        },
        {
          "pitch": 64,
          "onset": 128.0,
          "duration": 0.375,
          "velocity": 87
        },
        {
          "pitch": 65,
          "onset": 128.5,
          "duration": 0.375,
          "velocity": 96
        },
        {
          "pitch": 67,
          "onset": 129.0,
          "duration": 0.25,
          "velocity": 100
        },
        {
          "pitch": 64,
          "onset": 129.25,
          "duration": 0.25,
          "velocity": 100
        },
        {
          "pitch": 61,
          "onset": 129.5,
          "duration": 0.25,
          "velocity": 100
        },
        {
          "pitch": 64,
          "onset": 129.75,
          "duration": 0.25,
          "velocity": 100
        },
        {
          "pitch": 57,
          "onset": 130.0,
          "duration": 0.25,
          "velocity": 100
        },
        {
          "pitch": 61,
          "onset": 130.25,
          "duration": 0.25,
          "velocity": 100
        },
        {
          "pitch": 64,
          "onset": 130.5,
          "duration": 0.25,
          "velocity": 100
        },
        {
          "pitch": 65,
          "onset": 130.75,
          "duration": 0.25,
          "velocity": 100
        },
        {
          "pitch": 67,
          "onset": 131.0,
          "duration": 0.25,
          "velocity": 100
        },
        {
          "pitch": 65,
          "onset": 131.25,
          "duration": 0.25,
          "velocity": 100
        },
        {
          "pitch": 67,
          "onset": 131.5,
          "duration": 0.25,
          "velocity": 100
        },
        {
          "pitch": 64,
          "onset": 131.75,
          "duration": 0.25,
          "velocity": 100
        },
        {
          "pitch": 65,
          "onset": 132.0,
          "duration": 0.25,
          "velocity": 100
        },
        {
          "pitch": 62,
          "onset": 132.25,
          "duration": 0.25,
          "velocity": 100
        },
        {
          "pitch": 61,
          "onset": 132.5,
          "duration": 0.25,
          "velocity": 100
        },
        {
          "pitch": 62,
          "onset": 132.75,
          "duration": 0.25,
          "velocity": 100
        },
        {
          "pitch": 57,
          "onset": 133.0,
          "duration": 0.25,
          "velocity": 100
        },
        {
          "pitch": 61,
          "onset": 133.25,
          "duration": 0.25,
          "velocity": 100
        },
        {
          "pitch": 62,
          "onset": 133.5,
          "duration": 0.25,
          "velocity": 100
        },
        {
          "pitch": 64,
          "onset": 133.75,
          "duration": 0.25,
          "velocity": 100
        },
        {
          "pitch": 65,
          "onset": 134.0,
          "duration": 0.25,
          "velocity": 100
        },
        {
          "pitch": 64,
          "onset": 134.25,
          "duration": 0.25,
          "velocity": 100
        },
        {
          "pitch": 65,
          "onset": 134.5,
          "duration": 0.25,
          "velocity": 100
        },
        {
          "pitch": 62,
          "onset": 134.75,
          "duration": 0.25,
          "velocity": 100
        },
        {
          "pitch": 64,
          "onset": 135.0,
          "duration": 0.25,
          "velocity": 100
        },
        {
          "pitch": 61,
          "onset": 135.25,
          "duration": 0.25,
          "velocity": 100
        },
        {
          "pitch": 59,
          "onset": 135.5,
          "duration": 0.25,
          "velocity": 100
        },
        {
          "pitch": 61,
          "onset": 135.75,
          "duration": 0.25,
          "velocity": 100
        },
        {
          "pitch": 57,
          "onset": 136.0,
          "duration": 0.25,
          "velocity": 100
        },
        {
          "pitch": 59,
          "onset": 136.25,
          "duration": 0.25,
          "velocity": 100
        },
        {
          "pitch": 61,
          "onset": 136.5,
          "duration": 0.25,
          "velocity": 100
        },
        {
          "pitch": 62,
          "onset": 136.75,
          "duration": 0.25,
          "velocity": 100
        },
        {
          "pitch": 64,
          "onset": 137.0,
          "duration": 0.25,
          "velocity": 100
        },
        {
          "pitch": 62,
          "onset": 137.25,
          "duration": 0.25,
          "velocity": 100
        },
        {
          "pitch": 64,
          "onset": 137.5,
          "duration": 0.25,
          "velocity": 100
        },
        {
          "pitch": 61,
          "onset": 137.75,
          "duration": 0.25,
          "velocity": 100
        },
        {
          "pitch": 62,
          "onset": 138.0,
          "duration": 0.25,
          "velocity": 100
        },
        {
          "pitch": 59,
          "onset": 138.25,
          "duration": 0.25,
          "velocity": 100
        },
        {
          "pitch": 57,
          "onset": 138.5,
          "duration": 0.25,
          "velocity": 100
        },
        {
          "pitch": 59,
          "onset": 138.75,
          "duration": 0.25,
          "velocity": 100
        },
        {
          "pitch": 53,
          "onset": 139.0,
          "duration": 0.25,
          "velocity": 100
        },
        {
          "pitch": 56,
          "onset": 139.25,
          "duration": 0.25,
          "velocity": 100
        },
        {
          "pitch": 59,
          "onset": 139.5,
          "duration": 0.25,
          "velocity": 100
        },
        {
          "pitch": 61,
          "onset": 139.75,
          "duration": 0.25,
          "velocity": 100
        },
        {
          "pitch": 62,
          "onset": 140.0,
          "duration": 0.25,
          "velocity": 100
        },
        {
          "pitch": 61,
          "onset": 140.25,
          "duration": 0.25,
          "velocity": 100
        },
        {
          "pitch": 62,
          "onset": 140.5,
          "duration": 0.25,
          "velocity": 100
        },
        {
          "pitch": 59,
          "onset": 140.75,
          "duration": 0.25,
          "velocity": 100
        },
        {
          "pitch": 52,
          "onset": 141.25,
          "duration": 1.75,
          "velocity": 100
        },
        {
          "pitch": 61,
          "onset": 141.25,
          "duration": 1.75,
          "velocity": 100
        },
        {
          "pitch": 58,
          "onset": 144.0,
          "duration": 0.25,
          "velocity": 70
        },
        {
          "pitch": 55,
          "onset": 144.25,
          "duration": 0.25,
          "velocity": 70
        },
        {
          "pitch": 54,
          "onset": 144.5,
          "duration": 0.25,
          "velocity": 70
        },
        {
          "pitch": 55,
          "onset": 144.75,
          "duration": 0.25,
          "velocity": 70
        },
        {
          "pitch": 51,
          "onset": 145.0,
          "duration": 0.25,
          "velocity": 70
        },
        {
          "pitch": 55,
          "onset": 145.25,
          "duration": 0.25,
          "velocity": 70
        },
        {
          "pitch": 50,
          "onset": 145.5,
          "duration": 0.25,
          "velocity": 70
        },
        {
          "pitch": 55,
          "onset": 145.75,
          "duration": 0.25,
          "velocity": 70
        },
        {
          "pitch": 51,
          "onset": 146.0,
          "duration": 0.25,
          "velocity": 70
        },
        {
          "pitch": 55,
          "onset": 146.25,
          "duration": 0.25,
          "velocity": 70
        },
        {
          "pitch": 58,
          "onset": 146.5,
          "duration": 0.25,
          "velocity": 70
        },
        {
          "pitch": 50,
          "onset": 146.75,
          "duration": 0.25,
          "velocity": 70
        },
        {
          "pitch": 49,
          "onset": 147.0,
          "duration": 0.25,
          "velocity": 70
        },
        {
          "pitch": 52,
          "onset": 147.25,
          "duration": 0.25,
          "velocity": 70
        },
        {
          "pitch": 55,
          "onset": 147.5,
          "duration": 0.25,
          "velocity": 70
        },
        {
          "pitch": 57,
          "onset": 147.75,
          "duration": 0.25,
          "velocity": 70
        },
        {
          "pitch": 58,
          "onset": 148.0,
          "duration": 0.75,
          "velocity": 70
        },
        {
          "pitch": 57,
          "onset": 148.75,
          "duration": 0.25,
          "velocity": 70
        },
        {
          "pitch": 55,
          "onset": 149.0,
          "duration": 0.25,
          "velocity": 70
        },
        {
          "pitch": 54,
          "onset": 149.25,
          "duration": 0.25,
          "velocity": 70
        },
        {
          "pitch": 55,
          "onset": 149.5,
          "duration": 0.25,
          "velocity": 70
        },
        {
          "pitch": 64,
          "onset": 149.75,
          "duration": 0.25,
          "velocity": 70
        },
        {
          "pitch": 53,
          "onset": 150.0,
          "duration": 0.25,
          "velocity": 70
        },
        {
          "pitch": 62,
          "onset": 150.25,
          "duration": 0.25,
          "velocity": 70
        },
        {
          "pitch": 58,
          "onset": 150.5,
          "duration": 0.25,
          "velocity": 70
        },
        {
          "pitch": 55,
          "onset": 150.75,
          "duration": 0.25,
          "velocity": 70
        },
        {
          "pitch": 57,
          "onset": 151.0,
          "duration": 0.25,
          "velocity": 70
        },
        {
          "pitch": 53,
          "onset": 151.25,
          "duration": 0.25,
          "velocity": 70
        },
        {
          "pitch": 52,
          "onset": 151.5,
          "duration": 0.25,
          "velocity": 70
        },
        {
          "pitch": 55,
          "onset": 151.75,
          "duration": 0.25,
          "velocity": 70
        },
        {
          "pitch": 53,
          "onset": 152.0,
          "duration": 0.25,
          "velocity": 70
        },
        {
          "pitch": 50,
          "onset": 152.25,
          "duration": 0.25,
          "velocity": 70
        },
        {
          "pitch": 49,
          "onset": 152.5,
          "duration": 0.25,
          "velocity": 70
        },
        {
          "pitch": 52,
          "onset": 152.75,
          "duration": 0.25,
          "velocity": 70
        },
        {
          "pitch": 50,
          "onset": 153.0,
          "duration": 0.25,
          "velocity": 70
        },
        {
          "pitch": 46,
          "onset": 153.25,
          "duration": 0.25,
          "velocity": 70
        },
        {
          "pitch": 45,
          "onset": 153.5,
          "duration": 0.25,
          "velocity": 70
        },
        {
          "pitch": 43,
          "onset": 153.75,
          "duration": 0.25,
          "velocity": 70
        },
        {
          "pitch": 42,
          "onset": 154.0,
          "duration": 0.25,
          "velocity": 70
        },
        {
          "pitch": 45,
          "onset": 154.25,
          "duration": 0.25,
          "velocity": 70
        },
        {
          "pitch": 48,
          "onset": 154.5,
          "duration": 0.25,
          "velocity": 70
        },
        {
          "pitch": 51,
          "onset": 154.75,
          "duration": 0.25,
          "velocity": 70
        },
        {
          "pitch": 50,
          "onset": 155.0,
          "duration": 0.25,
          "velocity": 70
        },
        {
          "pitch": 48,
          "onset": 155.25,
          "duration": 0.25,
          "velocity": 70
        },
        {
          "pitch": 46,
          "onset": 155.5,
          "duration": 0.25,
          "velocity": 70
        },
        {
          "pitch": 45,
          "onset": 155.75,
          "duration": 0.25,
          "velocity": 70
        },
        {
          "pitch": 46,
          "onset": 156.0,
          "duration": 0.25,
          "velocity": 70
        },
        {
          "pitch": 43,
          "onset": 156.25,
          "duration": 0.25,
          "velocity": 70
        },
        {
          "pitch": 42,
          "onset": 156.5,
          "duration": 0.25,
          "velocity": 70
        },
        {
          "pitch": 43,
          "onset": 156.75,
          "duration": 0.25,
          "velocity": 70
        },
        {
          "pitch": 39,
          "onset": 157.0,
          "duration": 0.25,
          "velocity": 70
        },
        {
          "pitch": 43,
          "onset": 157.25,
          "duration": 0.25,
          "velocity": 70
        },
        {
          "pitch": 38,
          "onset": 157.5,
          "duration": 0.25,
          "velocity": 70
        },
        {
          "pitch": 43,
          "onset": 157.75,
          "duration": 0.25,
          "velocity": 70
        },
        {
          "pitch": 39,
          "onset": 158.0,
          "duration": 0.25,
          "velocity": 75
        },
        {
          "pitch": 43,
          "onset": 158.25,
          "duration": 0.25,
          "velocity": 81
        },
        {
          "pitch": 46,
          "onset": 158.5,
          "duration": 0.25,
          "velocity": 87
        },
        {
          "pitch": 38,
          "onset": 158.75,
          "duration": 0.25,
          "velocity": 94
        },
        {
          "pitch": 46,
          "onset": 159.0,
          "duration": 1.0,
          "velocity": 100
        },
        {
          "pitch": 55,
          "onset": 159.25,
          "duration": 0.5,
          "velocity": 100
        },
        {
          "pitch": 53,
          "onset": 159.75,
          "duration": 0.25,
          "velocity": 100
        },
        {
          "pitch": 52,
          "onset": 160.0,
          "duration": 0.25,
          "velocity": 100
        },
        {
          "pitch": 50,
          "onset": 160.25,
          "duration": 0.25,
          "velocity": 100
        },
        {
          "pitch": 49,
          "onset": 160.5,
          "duration": 0.25,
          "velocity": 100
        },
        {
          "pitch": 47,
          "onset": 160.75,
          "duration": 0.25,
          "velocity": 100
        },
        {
          "pitch": 45,
          "onset": 161.0,
          "duration": 0.25,
          "velocity": 100
        },
        {
          "pitch": 43,
          "onset": 161.25,
          "duration": 0.25,
          "velocity": 100
        },
        {
          "pitch": 41,
          "onset": 161.5,
          "duration": 0.25,
          "velocity": 100
        },
        {
          "pitch": 40,
          "onset": 161.75,
          "duration": 0.25,
          "velocity": 100
        },
        {
          "pitch": 45,
          "onset": 162.25,
          "duration": 0.25,
          "velocity": 100
        },
        {
          "pitch": 50,
          "onset": 162.5,
          "duration": 0.25,
          "velocity": 100
        },
        {
          "pitch": 52,
          "onset": 162.75,
          "duration": 0.25,
          "velocity": 100
        },
        {
          "pitch": 53,
          "onset": 163.0,
          "duration": 0.25,
          "velocity": 100
        },
        {
          "pitch": 52,
          "onset": 163.25,
          "duration": 0.25,
          "velocity": 100
        },
        {
          "pitch": 50,
          "onset": 163.5,
          "duration": 0.25,
          "velocity": 100
        },
        {
          "pitch": 48,
          "onset": 163.75,
          "duration": 0.25,
          "velocity": 100
        },
        {
          "pitch": 46,
          "onset": 164.0,
          "duration": 0.25,
          "velocity": 100
        },
        {
          "pitch": 45,
          "onset": 164.25,
          "duration": 0.25,
          "velocity": 100
        },
        {
          "pitch": 43,
          "onset": 164.5,
          "duration": 0.25,
          "velocity": 100
        },
        {
          "pitch": 41,
          "onset": 164.75,
          "duration": 0.25,
          "velocity": 100
        },
        {
          "pitch": 45,
          "onset": 165.25,
          "duration": 0.25,
          "velocity": 100
        },
        {
          "pitch": 49,
          "onset": 165.5,
          "duration": 0.25,
          "velocity": 100
        },
        {
          "pitch": 52,
          "onset": 165.75,
          "duration": 0.25,
          "velocity": 100
        },
        {
          "pitch": 55,
          "onset": 166.0,
          "duration": 0.25,
          "velocity": 100
        },
        {
          "pitch": 53,
          "onset": 166.25,
          "duration": 0.25,
          "velocity": 100
        },
        {
          "pitch": 52,
          "onset": 166.5,
          "duration": 0.25,
          "velocity": 100
        },
        {
          "pitch": 50,
          "onset": 166.75,
          "duration": 0.25,
          "velocity": 100
        },
        {
          "pitch": 49,
          "onset": 167.0,
          "duration": 0.25,
          "velocity": 100
        },
        {
          "pitch": 47,
          "onset": 167.25,
          "duration": 0.25,
          "velocity": 100
        },
        {
          "pitch": 45,
          "onset": 167.5,
          "duration": 0.25,
          "velocity": 100
        },
        {
          "pitch": 43,
          "onset": 167.75,
          "duration": 0.25,
          "velocity": 100
        },
        {
          "pitch": 45,
          "onset": 168.25,
          "duration": 0.25,
          "velocity": 100
        },
        {
          "pitch": 50,
          "onset": 168.5,
          "duration": 0.25,
          "velocity": 100
        },
        {
          "pitch": 53,
          "onset": 168.75,
          "duration": 0.25,
          "velocity": 100
        },
        {
          "pitch": 57,
          "onset": 169.0,
          "duration": 0.25,
          "velocity": 100
        },
        {
          "pitch": 50,
          "onset": 169.25,
          "duration": 0.25,
          "velocity": 100
        },
        {
          "pitch": 53,
          "onset": 169.5,
          "duration": 0.25,
          "velocity": 100
        },
        {
          "pitch": 57,
          "onset": 169.75,
          "duration": 0.25,
          "velocity": 100
        },
        {
          "pitch": 62,
          "onset": 170.0,
          "duration": 0.25,
          "velocity": 100
        },
        {
          "pitch": 58,
          "onset": 170.25,
          "duration": 0.25,
          "velocity": 100
        },
        {
          "pitch": 60,
          "onset": 170.5,
          "duration": 0.25,
          "velocity": 100
        },
        {
          "pitch": 57,
          "onset": 170.75,
          "duration": 0.25,
          "velocity": 100
        },
        {
          "pitch": 50,
          "onset": 171.25,
          "duration": 0.25,
          "velocity": 100
        },
        {
          "pitch": 55,
          "onset": 171.5,
          "duration": 0.25,
          "velocity": 100
        },
        {
          "pitch": 57,
          "onset": 171.75,
          "duration": 0.25,
          "velocity": 100
        },
        {
          "pitch": 58,
          "onset": 172.0,
          "duration": 0.25,
          "velocity": 100
        },
        {
          "pitch": 55,
          "onset": 172.25,
          "duration": 0.25,
          "velocity": 100
        },
        {
          "pitch": 54,
          "onset": 172.5,
          "duration": 0.25,
          "velocity": 100
        },
        {
          "pitch": 55,
          "onset": 172.75,
          "duration": 0.25,
          "velocity": 100
        },
        {
          "pitch": 63,
          "onset": 173.0,
          "duration": 0.375,
          "velocity": 100
        },
        {
          "pitch": 62,
          "onset": 173.5,
          "duration": 0.375,
          "velocity": 100
        },
        {
          "pitch": 55,
          "onset": 174.0,
          "duration": 3.0,
          "velocity": 100
        },
        {
          "pitch": 61,
          "onset": 174.5,
          "duration": 2.5,
          "velocity": 100
        },
        {
          "pitch": 53,
          "onset": 177.0,
          "duration": 3.0,
          "velocity": 100
        },
        {
          "pitch": 62,
          "onset": 177.5,
          "duration": 2.5,
          "velocity": 100
        },
        {
          "pitch": 52,
          "onset": 180.0,
          "duration": 3.0,
          "velocity": 100
        },
        {
          "pitch": 62,
          "onset": 180.5,
          "duration": 2.5,
          "velocity": 100
        },
        {
          "pitch": 52,
          "onset": 183.0,
          "duration": 3.0,
          "velocity": 100
        },
        {
          "pitch": 61,
          "onset": 183.5,
          "duration": 2.5,
          "velocity": 100
        },
        {
          "pitch": 53,
          "onset": 186.0,
          "duration": 4.0,
          "velocity": 100
        },
        {
          "pitch": 62,
          "onset": 186.5,
          "duration": 3.5,
          "velocity": 100
        },
        {
          "pitch": 62,
          "onset": 192.25,
          "duration": 0.25,
          "velocity": 1
        }
      ]
    },
    {
      "role": "solo_1",
      "notes": [
        {
          "pitch": 50,
          "onset": 0.0,
          "duration": 0.25,
          "velocity": 1
        },
        {
          "pitch": 48,
          "onset": 60.0,
          "duration": 0.375,
          "velocity": 100
        },
        {
          "pitch": 57,
          "onset": 61.0,
          "duration": 0.375,
          "velocity": 100
        },
        {
          "pitch": 50,
          "onset": 62.0,
          "duration": 0.375,
          "velocity": 100
        },
        {
          "pitch": 48,
          "onset": 63.0,
          "duration": 0.375,
          "velocity": 100
        },
        {
          "pitch": 49,
          "onset": 64.0,
          "duration": 0.375,
          "velocity": 100
        },
        {
          "pitch": 50,
          "onset": 65.0,
          "duration": 0.375,
          "velocity": 100
        },
        {
          "pitch": 44,
          "onset": 66.0,
          "duration": 0.375,
          "velocity": 100
        },
        {
          "pitch": 44,
          "onset": 68.0,
          "duration": 0.375,
          "velocity": 100
        },
        {
          "pitch": 42,
          "onset": 72.0,
          "duration": 0.375,
          "velocity": 100
        },
        {
          "pitch": 43,
          "onset": 76.0,
          "duration": 0.375,
          "velocity": 100
        },
        {
          "pitch": 45,
          "onset": 77.0,
          "duration": 0.375,
          "velocity": 100
        },
        {
          "pitch": 46,
          "onset": 79.0,
          "duration": 0.375,
          "velocity": 85
        },
        {
          "pitch": 49,
          "onset": 80.0,
          "duration": 0.375,
          "velocity": 90
        },
        {
          "pitch": 50,
          "onset": 82.0,
          "duration": 0.375,
          "velocity": 100
        },
        {
          "pitch": 52,
          "onset": 83.0,
          "duration": 0.375,
          "velocity": 100
        },
        {
          "pitch": 53,
          "onset": 85.0,
          "duration": 0.375,
          "velocity": 100
        },
        {
          "pitch": 55,
          "onset": 86.0,
          "duration": 0.375,
          "velocity": 100
        },
        {
          "pitch": 45,
          "onset": 88.0,
          "duration": 0.375,
          "velocity": 100
        },
        {
          "pitch": 45,
          "onset": 94.0,
          "duration": 0.375,
          "velocity": 100
        },
        {
          "pitch": 45,
          "onset": 98.0,
          "duration": 0.375,
          "velocity": 100
        },
        {
          "pitch": 50,
          "onset": 101.0,
          "duration": 0.375,
          "velocity": 100
        },
        {
          "pitch": 45,
          "onset": 104.0,
          "duration": 0.375,
          "velocity": 100
        },
        {
          "pitch": 50,
          "onset": 107.0,
          "duration": 0.375,
          "velocity": 100
        },
        {
          "pitch": 55,
          "onset": 110.25,
          "duration": 0.375,
          "velocity": 96
        },
        {
          "pitch": 55,
          "onset": 110.75,
          "duration": 0.25,
          "velocity": 95
        },
        {
          "pitch": 53,
          "onset": 113.25,
          "duration": 0.375,
          "velocity": 91
        },
        {
          "pitch": 53,
          "onset": 113.75,
          "duration": 0.25,
          "velocity": 90
        },
        {
          "pitch": 46,
          "onset": 116.25,
          "duration": 0.375,
          "velocity": 85
        },
        {
          "pitch": 46,
          "onset": 116.75,
          "duration": 0.25,
          "velocity": 85
        },
        {
          "pitch": 37,
          "onset": 117.0,
          "duration": 0.75,
          "velocity": 70
        },
        {
          "pitch": 44,
          "onset": 123.0,
          "duration": 0.75,
          "velocity": 70
        },
        {
          "pitch": 57,
          "onset": 127.25,
          "duration": 0.375,
          "velocity": 74
        },
        {
          "pitch": 57,
          "onset": 127.75,
          "duration": 0.375,
          "velocity": 83
        },
        {
          "pitch": 57,
          "onset": 128.25,
          "duration": 0.375,
          "velocity": 92
        },
        {
          "pitch": 57,
          "onset": 128.75,
          "duration": 0.25,
          "velocity": 100
        },
        {
          "pitch": 43,
          "onset": 141.0,
          "duration": 0.75,
          "velocity": 100
        },
        {
          "pitch": 37,
          "onset": 159.0,
          "duration": 0.5,
          "velocity": 100
        },
        {
          "pitch": 38,
          "onset": 162.0,
          "duration": 0.375,
          "velocity": 100
        },
        {
          "pitch": 40,
          "onset": 165.0,
          "duration": 0.375,
          "velocity": 100
        },
        {
          "pitch": 41,
          "onset": 168.0,
          "duration": 0.375,
          "velocity": 100
        },
        {
          "pitch": 43,
          "onset": 171.0,
          "duration": 0.375,
          "velocity": 100
        },
        {
          "pitch": 55,
          "onset": 173.25,
          "duration": 0.375,
          "velocity": 100
        },
        {
          "pitch": 55,
          "onset": 173.75,
          "duration": 0.25,
          "velocity": 100
        },
        {
          "pitch": 45,
          "onset": 174.0,
          "duration": 1.0,
          "velocity": 100
        },
        {
          "pitch": 45,
          "onset": 177.0,
          "duration": 1.0,
          "velocity": 100
        },
        {
          "pitch": 45,
          "onset": 180.0,
          "duration": 1.0,
          "velocity": 100
        },
        {
          "pitch": 45,
          "onset": 183.0,
          "duration": 1.0,
          "velocity": 100
        },
        {
          "pitch": 38,
          "onset": 186.0,
          "duration": 1.0,
          "velocity": 100
        },
        {
          "pitch": 45,
          "onset": 186.0,
          "duration": 1.0,
          "velocity": 100
        }
      ]
    }
  ]
}