{
  "bwv": 1010,
  "category": "solo_cello_suite",
  "instrument": "cello",
  "form": "",
  "movement": 2,
  "ticks_per_beat": 384,
  "duration_seconds": 206.4,
  "tempos": [
    {
      "tick": 0,
      "bpm": 95
    },
    {
      "tick": 48,
      "bpm": 240
    },
    {
      "tick": 1288,
      "bpm": 95
    },
    {
      "tick": 9600,
      "bpm": 95
    },
    {
      "tick": 9792,
      "bpm": 90
    },
    {
      "tick": 9888,
      "bpm": 90
    },
    {
      "tick": 10464,
      "bpm": 95
    },
    {
      "tick": 24960,
      "bpm": 95
    },
    {
      "tick": 25152,
      "bpm": 90
    },
    {
      "tick": 25248,
      "bpm": 85
    },
    {
      "tick": 25920,
      "bpm": 95
    },
    {
      "tick": 34176,
      "bpm": 95
    },
    {
      "tick": 34368,
      "bpm": 90
    },
    {
      "tick": 34464,
      "bpm": 90
    },
    {
      "tick": 35040,
      "bpm": 95
    },
    {
      "tick": 49152,
      "bpm": 95
    },
    {
      "tick": 49536,
      "bpm": 90
    },
    {
      "tick": 49728,
      "bpm": 90
    },
    {
      "tick": 49824,
      "bpm": 85
    },
    {
      "tick": 50496,
      "bpm": 95
    },
    {
      "tick": 64896,
      "bpm": 95
    },
    {
      "tick": 65088,
      "bpm": 90
    },
    {
      "tick": 65280,
      "bpm": 90
    },
    {
      "tick": 65472,
      "bpm": 85
    },
    {
      "tick": 65856,
      "bpm": 95
    },
    {
      "tick": 86016,
      "bpm": 95
    },
    {
      "tick": 86208,
      "bpm": 90
    },
    {
      "tick": 86400,
      "bpm": 90
    },
    {
      "tick": 86592,
      "bpm": 80
    },
    {
      "tick": 87360,
      "bpm": 95
    },
    {
      "tick": 95616,
      "bpm": 95
    },
    {
      "tick": 95808,
      "bpm": 90
    },
    {
      "tick": 96576,
      "bpm": 95
    },
    {
      "tick": 101760,
      "bpm": 95
    },
    {
      "tick": 101952,
      "bpm": 90
    },
    {
      "tick": 102144,
      "bpm": 90
    },
    {
      "tick": 102336,
      "bpm": 85
    },
    {
      "tick": 102720,
      "bpm": 95
    },
    {
      "tick": 105024,
      "bpm": 95
    },
    {
      "tick": 105216,
      "bpm": 90
    },
    {
      "tick": 105408,
      "bpm": 90
    },
    {
      "tick": 105792,
      "bpm": 95
    },
    {
      "tick": 122112,
      "bpm": 95
    },
    {
      "tick": 122880,
      "bpm": 90
    },
    {
      "tick": 123072,
      "bpm": 90
    },
    {
      "tick": 123168,
      "bpm": 80
    }
  ],
  "time_signatures": [
    {
      "tick": 0,
      "numerator": 4,
      "denominator": 4
    }
  ],
  "track_type": "solo_string",
  "voice_count": 2,
  "total_notes": 1068,
  "tracks": [
    {
      "role": "solo_0",
      "notes": [
        {
          "pitch": 58,
          "onset": 3.5,
          "duration": 0.5,
          "velocity": 80
        },
        {
          "pitch": 63,
          "onset": 4.0,
          "duration": 0.5,
          "velocity": 80
        },
        {
          "pitch": 62,
          "onset": 4.5,
          "duration": 0.25,
          "velocity": 80
        },
        {
          "pitch": 60,
          "onset": 4.75,
          "duration": 0.25,
          "velocity": 80
        },
        {
          "pitch": 58,
          "onset": 5.0,
          "duration": 0.25,
          "velocity": 80
        },
        {
          "pitch": 56,
          "onset": 5.25,
          "duration": 0.25,
          "velocity": 80
        },
        {
          "pitch": 55,
          "onset": 5.5,
          "duration": 0.25,
          "velocity": 80
        },
        {
          "pitch": 56,
          "onset": 5.75,
          "duration": 0.25,
          "velocity": 80
        },
        {
          "pitch": 58,
          "onset": 6.0,
          "duration": 0.25,
          "velocity": 80
        },
        {
          "pitch": 56,
          "onset": 6.25,
          "duration": 0.25,
          "velocity": 80
        },
        {
          "pitch": 55,
          "onset": 6.5,
          "duration": 0.25,
          "velocity": 80
        },
        {
          "pitch": 53,
          "onset": 6.75,
          "duration": 0.25,
          "velocity": 80
        },
        {
          "pitch": 51,
          "onset": 7.0,
          "duration": 0.25,
          "velocity": 80
        },
        {
          "pitch": 50,
          "onset": 7.25,
          "duration": 0.25,
          "velocity": 80
        },
        {
          "pitch": 48,
          "onset": 7.5,
          "duration": 0.25,
          "velocity": 80
        },
        {
          "pitch": 46,
          "onset": 7.75,
          "duration": 0.25,
          "velocity": 80
        },
        {
          "pitch": 48,
          "onset": 8.0,
          "duration": 0.25,
          "velocity": 80
        },
        {
          "pitch": 51,
          "onset": 8.25,
          "duration": 0.25,
          "velocity": 80
        },
        {
          "pitch": 53,
          "onset": 8.5,
          "duration": 0.25,
          "velocity": 80
        },
        {
          "pitch": 55,
          "onset": 8.75,
          "duration": 0.25,
          "velocity": 80
        },
        {
          "pitch": 56,
          "onset": 9.0,
          "duration": 0.25,
          "velocity": 80
        },
        {
          "pitch": 55,
          "onset": 9.25,
          "duration": 0.25,
          "velocity": 80
        },
        {
          "pitch": 53,
          "onset": 9.5,
          "duration": 0.25,
          "velocity": 80
        },
        {
          "pitch": 51,
          "onset": 9.75,
          "duration": 0.25,
          "velocity": 80
        },
        {
          "pitch": 50,
          "onset": 10.0,
          "duration": 0.25,
          "velocity": 80
        },
        {
          "pitch": 51,
          "onset": 10.25,
          "duration": 0.25,
          "velocity": 80
        },
        {
          "pitch": 53,
          "onset": 10.5,
          "duration": 0.25,
          "velocity": 80
        },
        {
          "pitch": 50,
          "onset": 10.75,
          "duration": 0.25,
          "velocity": 80
        },
        {
          "pitch": 46,
          "onset": 11.0,
          "duration": 0.125,
          "velocity": 80
        },
        {
          "pitch": 48,
          "onset": 11.125,
          "duration": 0.125,
          "velocity": 80
        },
        {
          "pitch": 46,
          "onset": 11.25,
          "duration": 0.25,
          "velocity": 80
        },
        {
          "pitch": 44,
          "onset": 11.5,
          "duration": 0.5,
          "velocity": 80
        },
        {
          "pitch": 43,
          "onset": 12.0,
          "duration": 0.25,
          "velocity": 80
        },
        {
          "pitch": 46,
          "onset": 12.25,
          "duration": 0.25,
          "velocity": 80
        },
        {
          "pitch": 48,
          "onset": 12.5,
          "duration": 0.25,
          "velocity": 80
        },
        {
          "pitch": 50,
          "onset": 12.75,
          "duration": 0.25,
          "velocity": 80
        },
        {
          "pitch": 51,
          "onset": 13.0,
          "duration": 0.3438,
          "velocity": 80
        },
        {
          "pitch": 61,
          "onset": 13.5,
          "duration": 0.75,
          "velocity": 80
        },
        {
          "pitch": 60,
          "onset": 14.5,
          "duration": 0.5,
          "velocity": 80
        },
        {
          "pitch": 53,
          "onset": 15.0,
          "duration": 0.5,
          "velocity": 80
        },
        {
          "pitch": 51,
          "onset": 15.5,
          "duration": 0.5,
          "velocity": 80
        },
        {
          "pitch": 44,
          "onset": 16.25,
          "duration": 0.25,
          "velocity": 80
        },
        {
          "pitch": 46,
          "onset": 16.5,
          "duration": 0.25,
          "velocity": 80
        },
        {
          "pitch": 48,
          "onset": 16.75,
          "duration": 0.25,
          "velocity": 80
        },
        {
          "pitch": 50,
          "onset": 17.0,
          "duration": 0.375,
          "velocity": 80
        },
        {
          "pitch": 60,
          "onset": 17.5,
          "duration": 0.5,
          "velocity": 80
        },
        {
          "pitch": 58,
          "onset": 18.5,
          "duration": 0.5,
          "velocity": 80
        },
        {
          "pitch": 51,
          "onset": 19.0,
          "duration": 0.5,
          "velocity": 80
        },
        {
          "pitch": 50,
          "onset": 19.5,
          "duration": 0.5,
          "velocity": 80
        },
        {
          "pitch": 43,
          "onset": 20.25,
          "duration": 0.25,
          "velocity": 80
        },
        {
          "pitch": 44,
          "onset": 20.5,
          "duration": 0.25,
          "velocity": 80
        },
        {
          "pitch": 46,
          "onset": 20.75,
          "duration": 0.25,
          "velocity": 80
        },
        {
          "pitch": 48,
          "onset": 21.0,
          "duration": 0.375,
          "velocity": 80
        },
        {
          "pitch": 58,
          "onset": 21.5,
          "duration": 0.5,
          "velocity": 80
        },
        {
          "pitch": 56,
          "onset": 22.5,
          "duration": 0.5,
          "velocity": 80
        },
        {
          "pitch": 58,
          "onset": 23.5,
          "duration": 0.25,
          "velocity": 80
        },
        {
          "pitch": 56,
          "onset": 23.75,
          "duration": 0.25,
          "velocity": 80
        },
        {
          "pitch": 55,
          "onset": 24.0,
          "duration": 0.25,
          "velocity": 80
        },
        {
          "pitch": 53,
          "onset": 24.25,
          "duration": 0.25,
          "velocity": 80
        },
        {
          "pitch": 51,
          "onset": 24.5,
          "duration": 0.25,
          "velocity": 80
        },
        {
          "pitch": 55,
          "onset": 24.75,
          "duration": 0.25,
          "velocity": 80
        },
        {
          "pitch": 53,
          "onset": 25.0,
          "duration": 0.25,
          "velocity": 80
        },
        {
          "pitch": 51,
          "onset": 25.25,
          "duration": 0.25,
          "velocity": 80
        },
        {
          "pitch": 50,
          "onset": 25.5,
          "duration": 0.25,
          "velocity": 80
        },
        {
          "pitch": 53,
          "onset": 25.75,
          "duration": 0.25,
          "velocity": 80
        },
        {
          "pitch": 46,
          "onset": 26.0,
          "duration": 1.0,
          "velocity": 80
        },
        {
          "pitch": 51,
          "onset": 26.25,
          "duration": 1.0,
          "velocity": 80
        },
        {
          "pitch": 53,
          "onset": 27.25,
          "duration": 0.25,
          "velocity": 80
        },
        {
          "pitch": 50,
          "onset": 27.5,
          "duration": 0.25,
          "velocity": 80
        },
        {
          "pitch": 51,
          "onset": 27.75,
          "duration": 0.25,
          "velocity": 80
        },
        {
          "pitch": 53,
          "onset": 28.0,
          "duration": 0.25,
          "velocity": 80
        },
        {
          "pitch": 51,
          "onset": 28.25,
          "duration": 0.25,
          "velocity": 80
        },
        {
          "pitch": 50,
          "onset": 28.5,
          "duration": 0.25,
          "velocity": 80
        },
        {
          "pitch": 48,
          "onset": 28.75,
          "duration": 0.25,
          "velocity": 80
        },
        {
          "pitch": 46,
          "onset": 29.0,
          "duration": 0.25,
          "velocity": 80
        },
        {
          "pitch": 48,
          "onset": 29.25,
          "duration": 0.25,
          "velocity": 80
        },
        {
          "pitch": 50,
          "onset": 29.5,
          "duration": 0.25,
          "velocity": 80
        },
        {
          "pitch": 51,
          "onset": 29.75,
          "duration": 0.25,
          "velocity": 80
        },
        {
          "pitch": 53,
          "onset": 30.0,
          "duration": 0.25,
          "velocity": 80
        },
        {
          "pitch": 55,
          "onset": 30.25,
          "duration": 0.25,
          "velocity": 80
        },
        {
          "pitch": 56,
          "onset": 30.5,
          "duration": 0.25,
          "velocity": 80
        },
        {
          "pitch": 53,
          "onset": 30.75,
          "duration": 0.25,
          "velocity": 80
        },
        {
          "pitch": 55,
          "onset": 31.0,
          "duration": 0.25,
          "velocity": 80
        },
        {
          "pitch": 53,
          "onset": 31.25,
          "duration": 0.25,
          "velocity": 80
        },
        {
          "pitch": 51,
          "onset": 31.5,
          "duration": 0.25,
          "velocity": 80
        },
        {
          "pitch": 53,
          "onset": 31.75,
          "duration": 0.25,
          "velocity": 80
        },
        {
          "pitch": 55,
          "onset": 32.0,
          "duration": 0.25,
          "velocity": 80
        },
        {
          "pitch": 53,
          "onset": 32.25,
          "duration": 0.25,
          "velocity": 80
        },
        {
          "pitch": 51,
          "onset": 32.5,
          "duration": 0.25,
          "velocity": 80
        },
        {
          "pitch": 50,
          "onset": 32.75,
          "duration": 0.25,
          "velocity": 80
        },
        {
          "pitch": 48,
          "onset": 33.0,
          "duration": 0.25,
          "velocity": 80
        },
        {
          "pitch": 50,
          "onset": 33.25,
          "duration": 0.25,
          "velocity": 80
        },
        {
          "pitch": 51,
          "onset": 33.5,
          "duration": 0.25,
          "velocity": 80
        },
        {
          "pitch": 53,
          "onset": 33.75,
          "duration": 0.25,
          "velocity": 80
        },
        {
          "pitch": 55,
          "onset": 34.0,
          "duration": 0.25,
          "velocity": 80
        },
        {
          "pitch": 57,
          "onset": 34.25,
          "duration": 0.25,
          "velocity": 80
        },
        {
          "pitch": 58,
          "onset": 34.5,
          "duration": 0.25,
          "velocity": 80
        },
        {
          "pitch": 55,
          "onset": 34.75,
          "duration": 0.25,
          "velocity": 80
        },
        {
          "pitch": 57,
          "onset": 35.0,
          "duration": 0.25,
          "velocity": 80
        },
        {
          "pitch": 55,
          "onset": 35.25,
          "duration": 0.25,
          "velocity": 80
        },
        {
          "pitch": 53,
          "onset": 35.5,
          "duration": 0.25,
          "velocity": 80
        },
        {
          "pitch": 55,
          "onset": 35.75,
          "duration": 0.25,
          "velocity": 80
        },
        {
          "pitch": 57,
          "onset": 36.0,
          "duration": 0.25,
          "velocity": 80
        },
        {
          "pitch": 55,
          "onset": 36.25,
          "duration": 0.25,
          "velocity": 80
        },
        {
          "pitch": 53,
          "onset": 36.5,
          "duration": 0.25,
          "velocity": 80
        },
        {
          "pitch": 51,
          "onset": 36.75,
          "duration": 0.25,
          "velocity": 80
        },
        {
          "pitch": 50,
          "onset": 37.0,
          "duration": 0.375,
          "velocity": 80
        },
        {
          "pitch": 60,
          "onset": 37.5,
          "duration": 0.375,
          "velocity": 80
        },
        {
          "pitch": 43,
          "onset": 38.0,
          "duration": 0.25,
          "velocity": 80
        },
        {
          "pitch": 46,
          "onset": 38.25,
          "duration": 0.25,
          "velocity": 80
        },
        {
          "pitch": 48,
          "onset": 38.5,
          "duration": 0.25,
          "velocity": 80
        },
        {
          "pitch": 50,
          "onset": 38.75,
          "duration": 0.25,
          "velocity": 80
        },
        {
          "pitch": 51,
          "onset": 39.0,
          "duration": 0.375,
          "velocity": 80
        },
        {
          "pitch": 62,
          "onset": 39.5,
          "duration": 0.375,
          "velocity": 80
        },
        {
          "pitch": 60,
          "onset": 40.0,
          "duration": 0.25,
          "velocity": 80
        },
        {
          "pitch": 58,
          "onset": 40.25,
          "duration": 0.25,
          "velocity": 80
        },
        {
          "pitch": 57,
          "onset": 40.5,
          "duration": 0.25,
          "velocity": 80
        },
        {
          "pitch": 55,
          "onset": 40.75,
          "duration": 0.25,
          "velocity": 80
        },
        {
          "pitch": 53,
          "onset": 41.0,
          "duration": 0.375,
          "velocity": 80
        },
        {
          "pitch": 63,
          "onset": 41.5,
          "duration": 0.375,
          "velocity": 80
        },
        {
          "pitch": 46,
          "onset": 42.0,
          "duration": 0.25,
          "velocity": 80
        },
        {
          "pitch": 50,
          "onset": 42.25,
          "duration": 0.25,
          "velocity": 80
        },
        {
          "pitch": 51,
          "onset": 42.5,
          "duration": 0.25,
          "velocity": 80
        },
        {
          "pitch": 53,
          "onset": 42.75,
          "duration": 0.25,
          "velocity": 80
        },
        {
          "pitch": 55,
          "onset": 43.0,
          "duration": 0.375,
          "velocity": 80
        },
        {
          "pitch": 65,
          "onset": 43.5,
          "duration": 0.375,
          "velocity": 80
        },
        {
          "pitch": 63,
          "onset": 44.0,
          "duration": 0.25,
          "velocity": 80
        },
        {
          "pitch": 62,
          "onset": 44.25,
          "duration": 0.25,
          "velocity": 80
        },
        {
          "pitch": 60,
          "onset": 44.5,
          "duration": 0.25,
          "velocity": 80
        },
        {
          "pitch": 58,
          "onset": 44.75,
          "duration": 0.25,
          "velocity": 80
        },
        {
          "pitch": 57,
          "onset": 45.0,
          "duration": 0.375,
          "velocity": 80
        },
        {
          "pitch": 67,
          "onset": 45.5,
          "duration": 0.5,
          "velocity": 80
        },
        {
          "pitch": 65,
          "onset": 46.0,
          "duration": 0.25,
          "velocity": 80
        },
        {
          "pitch": 63,
          "onset": 46.25,
          "duration": 0.25,
          "velocity": 80
        },
        {
          "pitch": 62,
          "onset": 46.5,
          "duration": 0.25,
          "velocity": 80
        },
        {
          "pitch": 60,
          "onset": 46.75,
          "duration": 0.25,
          "velocity": 80
        },
        {
          "pitch": 58,
          "onset": 47.0,
          "duration": 0.375,
          "velocity": 80
        },
        {
          "pitch": 56,
          "onset": 47.5,
          "duration": 0.5,
          "velocity": 80
        },
        {
          "pitch": 55,
          "onset": 48.0,
          "duration": 0.25,
          "velocity": 80
        },
        {
          "pitch": 53,
          "onset": 48.25,
          "duration": 0.25,
          "velocity": 80
        },
        {
          "pitch": 51,
          "onset": 48.5,
          "duration": 0.25,
          "velocity": 80
        },
        {
          "pitch": 50,
          "onset": 48.75,
          "duration": 0.25,
          "velocity": 80
        },
        {
          "pitch": 48,
          "onset": 49.0,
          "duration": 0.375,
          "velocity": 80
        },
        {
          "pitch": 46,
          "onset": 49.5,
          "duration": 0.375,
          "velocity": 80
        },
        {
          "pitch": 51,
          "onset": 50.25,
          "duration": 0.25,
          "velocity": 80
        },
        {
          "pitch": 55,
          "onset": 50.5,
          "duration": 1.0,
          "velocity": 80
        },
        {
          "pitch": 53,
          "onset": 51.5,
          "duration": 0.25,
          "velocity": 80
        },
        {
          "pitch": 51,
          "onset": 51.75,
          "duration": 0.25,
          "velocity": 80
        },
        {
          "pitch": 50,
          "onset": 52.0,
          "duration": 0.25,
          "velocity": 80
        },
        {
          "pitch": 48,
          "onset": 52.25,
          "duration": 0.25,
          "velocity": 80
        },
        {
          "pitch": 46,
          "onset": 52.5,
          "duration": 0.25,
          "velocity": 80
        },
        {
          "pitch": 50,
          "onset": 52.75,
          "duration": 0.25,
          "velocity": 80
        },
        {
          "pitch": 48,
          "onset": 53.0,
          "duration": 0.25,
          "velocity": 80
        },
        {
          "pitch": 46,
          "onset": 53.25,
          "duration": 0.25,
          "velocity": 80
        },
        {
          "pitch": 45,
          "onset": 53.5,
          "duration": 0.25,
          "velocity": 80
        },
        {
          "pitch": 48,
          "onset": 53.75,
          "duration": 0.25,
          "velocity": 80
        },
        {
          "pitch": 46,
          "onset": 54.0,
          "duration": 0.25,
          "velocity": 80
        },
        {
          "pitch": 50,
          "onset": 54.25,
          "duration": 0.25,
          "velocity": 80
        },
        {
          "pitch": 48,
          "onset": 54.5,
          "duration": 0.25,
          "velocity": 80
        },
        {
          "pitch": 46,
          "onset": 54.75,
          "duration": 0.25,
          "velocity": 80
        },
        {
          "pitch": 48,
          "onset": 55.0,
          "duration": 0.25,
          "velocity": 80
        },
        {
          "pitch": 51,
          "onset": 55.25,
          "duration": 0.25,
          "velocity": 80
        },
        {
          "pitch": 50,
          "onset": 55.5,
          "duration": 0.25,
          "velocity": 80
        },
        {
          "pitch": 48,
          "onset": 55.75,
          "duration": 0.25,
          "velocity": 80
        },
        {
          "pitch": 50,
          "onset": 56.0,
          "duration": 0.25,
          "velocity": 80
        },
        {
          "pitch": 51,
          "onset": 56.25,
          "duration": 0.25,
          "velocity": 80
        },
        {
          "pitch": 53,
          "onset": 56.5,
          "duration": 0.25,
          "velocity": 80
        },
        {
          "pitch": 55,
          "onset": 56.75,
          "duration": 0.25,
          "velocity": 80
        },
        {
          "pitch": 56,
          "onset": 57.0,
          "duration": 0.375,
          "velocity": 80
        },
        {
          "pitch": 46,
          "onset": 57.5,
          "duration": 0.375,
          "velocity": 80
        },
        {
          "pitch": 56,
          "onset": 58.5,
          "duration": 0.5,
          "velocity": 90
        },
        {
          "pitch": 55,
          "onset": 59.0,
          "duration": 0.25,
          "velocity": 80
        },
        {
          "pitch": 53,
          "onset": 59.25,
          "duration": 0.25,
          "velocity": 80
        },
        {
          "pitch": 51,
          "onset": 59.5,
          "duration": 0.25,
          "velocity": 80
        },
        {
          "pitch": 50,
          "onset": 59.75,
          "duration": 0.25,
          "velocity": 80
        },
        {
          "pitch": 48,
          "onset": 60.0,
          "duration": 0.25,
          "velocity": 80
        },
        {
          "pitch": 50,
          "onset": 60.25,
          "duration": 0.25,
          "velocity": 80
        },
        {
          "pitch": 51,
          "onset": 60.5,
          "duration": 0.25,
          "velocity": 80
        },
        {
          "pitch": 53,
          "onset": 60.75,
          "duration": 0.25,
          "velocity": 80
        },
        {
          "pitch": 55,
          "onset": 61.0,
          "duration": 0.375,
          "velocity": 80
        },
        {
          "pitch": 58,
          "onset": 61.5,
          "duration": 0.375,
          "velocity": 80
        },
        {
          "pitch": 57,
          "onset": 62.0,
          "duration": 0.25,
          "velocity": 80
        },
        {
          "pitch": 58,
          "onset": 62.25,
          "duration": 0.25,
          "velocity": 80
        },
        {
          "pitch": 60,
          "onset": 62.5,
          "duration": 0.25,
          "velocity": 80
        },
        {
          "pitch": 58,
          "onset": 62.75,
          "duration": 0.25,
          "velocity": 80
        },
        {
          "pitch": 57,
          "onset": 63.0,
          "duration": 0.25,
          "velocity": 80
        },
        {
          "pitch": 55,
          "onset": 63.25,
          "duration": 0.25,
          "velocity": 80
        },
        {
          "pitch": 53,
          "onset": 63.5,
          "duration": 0.25,
          "velocity": 80
        },
        {
          "pitch": 51,
          "onset": 63.75,
          "duration": 0.25,
          "velocity": 80
        },
        {
          "pitch": 50,
          "onset": 64.0,
          "duration": 0.25,
          "velocity": 80
        },
        {
          "pitch": 48,
          "onset": 64.25,
          "duration": 0.25,
          "velocity": 80
        },
        {
          "pitch": 46,
          "onset": 64.5,
          "duration": 0.25,
          "velocity": 80
        },
        {
          "pitch": 50,
          "onset": 64.75,
          "duration": 0.25,
          "velocity": 80
        },
        {
          "pitch": 48,
          "onset": 65.0,
          "duration": 0.25,
          "velocity": 80
        },
        {
          "pitch": 46,
          "onset": 65.25,
          "duration": 0.25,
          "velocity": 80
        },
        {
          "pitch": 45,
          "onset": 65.5,
          "duration": 0.25,
          "velocity": 80
        },
        {
          "pitch": 48,
          "onset": 65.75,
          "duration": 0.25,
          "velocity": 80
        },
        {
          "pitch": 46,
          "onset": 66.0,
          "duration": 1.5,
          "velocity": 80
        },
        {
          "pitch": 58,
          "onset": 67.5,
          "duration": 0.5,
          "velocity": 80
        },
        {
          "pitch": 63,
          "onset": 68.0,
          "duration": 0.5,
          "velocity": 80
        },
        {
          "pitch": 62,
          "onset": 68.5,
          "duration": 0.25,
          "velocity": 80
        },
        {
          "pitch": 60,
          "onset": 68.75,
          "duration": 0.25,
          "velocity": 80
        },
        {
          "pitch": 58,
          "onset": 69.0,
          "duration": 0.25,
          "velocity": 80
        },
        {
          "pitch": 56,
          "onset": 69.25,
          "duration": 0.25,
          "velocity": 80
        },
        {
          "pitch": 55,
          "onset": 69.5,
          "duration": 0.25,
          "velocity": 80
        },
        {
          "pitch": 56,
          "onset": 69.75,
          "duration": 0.25,
          "velocity": 80
        },
        {
          "pitch": 58,
          "onset": 70.0,
          "duration": 0.25,
          "velocity": 80
        },
        {
          "pitch": 56,
          "onset": 70.25,
          "duration": 0.25,
          "velocity": 80
        },
        {
          "pitch": 55,
          "onset": 70.5,
          "duration": 0.25,
          "velocity": 80
        },
        {
          "pitch": 53,
          "onset": 70.75,
          "duration": 0.25,
          "velocity": 80
        },
        {
          "pitch": 51,
          "onset": 71.0,
          "duration": 0.25,
          "velocity": 80
        },
        {
          "pitch": 50,
          "onset": 71.25,
          "duration": 0.25,
          "velocity": 80
        },
        {
          "pitch": 48,
          "onset": 71.5,
          "duration": 0.25,
          "velocity": 80
        },
        {
          "pitch": 46,
          "onset": 71.75,
          "duration": 0.25,
          "velocity": 80
        },
        {
          "pitch": 48,
          "onset": 72.0,
          "duration": 0.25,
          "velocity": 80
        },
        {
          "pitch": 51,
          "onset": 72.25,
          "duration": 0.25,
          "velocity": 80
        },
        {
          "pitch": 53,
          "onset": 72.5,
          "duration": 0.25,
          "velocity": 80
        },
        {
          "pitch": 55,
          "onset": 72.75,
          "duration": 0.25,
          "velocity": 80
        },
        {
          "pitch": 56,
          "onset": 73.0,
          "duration": 0.25,
          "velocity": 80
        },
        {
          "pitch": 55,
          "onset": 73.25,
          "duration": 0.25,
          "velocity": 80
        },
        {
          "pitch": 53,
          "onset": 73.5,
          "duration": 0.25,
          "velocity": 80
        },
        {
          "pitch": 51,
          "onset": 73.75,
          "duration": 0.25,
          "velocity": 80
        },
        {
          "pitch": 50,
          "onset": 74.0,
          "duration": 0.25,
          "velocity": 80
        },
        {
          "pitch": 51,
          "onset": 74.25,
          "duration": 0.25,
          "velocity": 80
        },
        {
          "pitch": 53,
          "onset": 74.5,
          "duration": 0.25,
          "velocity": 80
        },
        {
          "pitch": 50,
          "onset": 74.75,
          "duration": 0.25,
          "velocity": 80
        },
        {
          "pitch": 46,
          "onset": 75.0,
          "duration": 0.125,
          "velocity": 80
        },
        {
          "pitch": 48,
          "onset": 75.125,
          "duration": 0.125,
          "velocity": 80
        },
        {
          "pitch": 46,
          "onset": 75.25,
          "duration": 0.25,
          "velocity": 80
        },
        {
          "pitch": 44,
          "onset": 75.5,
          "duration": 0.5,
          "velocity": 80
        },
        {
          "pitch": 43,
          "onset": 76.0,
          "duration": 0.25,
          "velocity": 80
        },
        {
          "pitch": 46,
          "onset": 76.25,
          "duration": 0.25,
          "velocity": 80
        },
        {
          "pitch": 48,
          "onset": 76.5,
          "duration": 0.25,
          "velocity": 80
        },
        {
          "pitch": 50,
          "onset": 76.75,
          "duration": 0.25,
          "velocity": 80
        },
        {
          "pitch": 51,
          "onset": 77.0,
          "duration": 0.3438,
          "velocity": 80
        },
        {
          "pitch": 61,
          "onset": 77.5,
          "duration": 0.4375,
          "velocity": 80
        },
        {
          "pitch": 60,
          "onset": 78.5,
          "duration": 0.5,
          "velocity": 80
        },
        {
          "pitch": 53,
          "onset": 79.0,
          "duration": 0.5,
          "velocity": 80
        },
        {
          "pitch": 51,
          "onset": 79.5,
          "duration": 0.5,
          "velocity": 80
        },
        {
          "pitch": 44,
          "onset": 80.25,
          "duration": 0.25,
          "velocity": 80
        },
        {
          "pitch": 46,
          "onset": 80.5,
          "duration": 0.25,
          "velocity": 80
        },
        {
          "pitch": 48,
          "onset": 80.75,
          "duration": 0.25,
          "velocity": 80
        },
        {
          "pitch": 50,
          "onset": 81.0,
          "duration": 0.375,
          "velocity": 80
        },
        {
          "pitch": 60,
          "onset": 81.5,
          "duration": 0.5,
          "velocity": 80
        },
        {
          "pitch": 58,
          "onset": 82.5,
          "duration": 0.5,
          "velocity": 80
        },
        {
          "pitch": 51,
          "onset": 83.0,
          "duration": 0.5,
          "velocity": 80
        },
        {
          "pitch": 50,
          "onset": 83.5,
          "duration": 0.5,
          "velocity": 80
        },
        {
          "pitch": 43,
          "onset": 84.25,
          "duration": 0.25,
          "velocity": 80
        },
        {
          "pitch": 44,
          "onset": 84.5,
          "duration": 0.25,
          "velocity": 80
        },
        {
          "pitch": 46,
          "onset": 84.75,
          "duration": 0.25,
          "velocity": 80
        },
        {
          "pitch": 48,
          "onset": 85.0,
          "duration": 0.375,
          "velocity": 80
        },
        {
          "pitch": 58,
          "onset": 85.5,
          "duration": 0.5,
          "velocity": 80
        },
        {
          "pitch": 56,
          "onset": 86.5,
          "duration": 0.5,
          "velocity": 80
        },
        {
          "pitch": 58,
          "onset": 87.5,
          "duration": 0.25,
          "velocity": 80
        },
        {
          "pitch": 56,
          "onset": 87.75,
          "duration": 0.25,
          "velocity": 80
        },
        {
          "pitch": 55,
          "onset": 88.0,
          "duration": 0.25,
          "velocity": 80
        },
        {
          "pitch": 53,
          "onset": 88.25,
          "duration": 0.25,
          "velocity": 80
        },
        {
          "pitch": 51,
          "onset": 88.5,
          "duration": 0.25,
          "velocity": 80
        },
        {
          "pitch": 55,
          "onset": 88.75,
          "duration": 0.25,
          "velocity": 80
        },
        {
          "pitch": 53,
          "onset": 89.0,
          "duration": 0.25,
          "velocity": 80
        },
        {
          "pitch": 51,
          "onset": 89.25,
          "duration": 0.25,
          "velocity": 80
        },
        {
          "pitch": 50,
          "onset": 89.5,
          "duration": 0.25,
          "velocity": 80
        },
        {
          "pitch": 53,
          "onset": 89.75,
          "duration": 0.25,
          "velocity": 80
        },
        {
          "pitch": 46,
          "onset": 90.0,
          "duration": 1.0,
          "velocity": 80
        },
        {
          "pitch": 51,
          "onset": 90.25,
          "duration": 1.0,
          "velocity": 80
        },
        {
          "pitch": 53,
          "onset": 91.25,
          "duration": 0.25,
          "velocity": 80
        },
        {
          "pitch": 50,
          "onset": 91.5,
          "duration": 0.25,
          "velocity": 80
        },
        {
          "pitch": 51,
          "onset": 91.75,
          "duration": 0.25,
          "velocity": 80
        },
        {
          "pitch": 53,
          "onset": 92.0,
          "duration": 0.25,
          "velocity": 80
        },
        {
          "pitch": 51,
          "onset": 92.25,
          "duration": 0.25,
          "velocity": 80
        },
        {
          "pitch": 50,
          "onset": 92.5,
          "duration": 0.25,
          "velocity": 80
        },
        {
          "pitch": 48,
          "onset": 92.75,
          "duration": 0.25,
          "velocity": 80
        },
        {
          "pitch": 46,
          "onset": 93.0,
          "duration": 0.25,
          "velocity": 80
        },
        {
          "pitch": 48,
          "onset": 93.25,
          "duration": 0.25,
          "velocity": 80
        },
        {
          "pitch": 50,
          "onset": 93.5,
          "duration": 0.25,
          "velocity": 80
        },
        {
          "pitch": 51,
          "onset": 93.75,
          "duration": 0.25,
          "velocity": 80
        },
        {
          "pitch": 53,
          "onset": 94.0,
          "duration": 0.25,
          "velocity": 80
        },
        {
          "pitch": 55,
          "onset": 94.25,
          "duration": 0.25,
          "velocity": 80
        },
        {
          "pitch": 56,
          "onset": 94.5,
          "duration": 0.25,
          "velocity": 80
        },
        {
          "pitch": 53,
          "onset": 94.75,
          "duration": 0.25,
          "velocity": 80
        },
        {
          "pitch": 55,
          "onset": 95.0,
          "duration": 0.25,
          "velocity": 80
        },
        {
          "pitch": 53,
          "onset": 95.25,
          "duration": 0.25,
          "velocity": 80
        },
        {
          "pitch": 51,
          "onset": 95.5,
          "duration": 0.25,
          "velocity": 80
        },
        {
          "pitch": 53,
          "onset": 95.75,
          "duration": 0.25,
          "velocity": 80
        },
        {
          "pitch": 55,
          "onset": 96.0,
          "duration": 0.25,
          "velocity": 80
        },
        {
          "pitch": 53,
          "onset": 96.25,
          "duration": 0.25,
          "velocity": 80
        },
        {
          "pitch": 51,
          "onset": 96.5,
          "duration": 0.25,
          "velocity": 80
        },
        {
          "pitch": 50,
          "onset": 96.75,
          "duration": 0.25,
          "velocity": 80
        },
        {
          "pitch": 48,
          "onset": 97.0,
          "duration": 0.25,
          "velocity": 80
        },
        {
          "pitch": 50,
          "onset": 97.25,
          "duration": 0.25,
          "velocity": 80
        },
        {
          "pitch": 51,
          "onset": 97.5,
          "duration": 0.25,
          "velocity": 80
        },
        {
          "pitch": 53,
          "onset": 97.75,
          "duration": 0.25,
          "velocity": 80
        },
        {
          "pitch": 55,
          "onset": 98.0,
          "duration": 0.25,
          "velocity": 80
        },
        {
          "pitch": 57,
          "onset": 98.25,
          "duration": 0.25,
          "velocity": 80
        },
        {
          "pitch": 58,
          "onset": 98.5,
          "duration": 0.25,
          "velocity": 80
        },
        {
          "pitch": 55,
          "onset": 98.75,
          "duration": 0.25,
          "velocity": 80
        },
        {
          "pitch": 57,
          "onset": 99.0,
          "duration": 0.25,
          "velocity": 80
        },
        {
          "pitch": 55,
          "onset": 99.25,
          "duration": 0.25,
          "velocity": 80
        },
        {
          "pitch": 53,
          "onset": 99.5,
          "duration": 0.25,
          "velocity": 80
        },
        {
          "pitch": 55,
          "onset": 99.75,
          "duration": 0.25,
          "velocity": 80
        },
        {
          "pitch": 57,
          "onset": 100.0,
          "duration": 0.25,
          "velocity": 80
        },
        {
          "pitch": 55,
          "onset": 100.25,
          "duration": 0.25,
          "velocity": 80
        },
        {
          "pitch": 53,
          "onset": 100.5,
          "duration": 0.25,
          "velocity": 80
        },
        {
          "pitch": 51,
          "onset": 100.75,
          "duration": 0.25,
          "velocity": 80
        },
        {
          "pitch": 50,
          "onset": 101.0,
          "duration": 0.375,
          "velocity": 80
        },
        {
          "pitch": 60,
          "onset": 101.5,
          "duration": 0.375,
          "velocity": 80
        },
        {
          "pitch": 43,
          "onset": 102.0,
          "duration": 0.25,
          "velocity": 80
        },
        {
          "pitch": 46,
          "onset": 102.25,
          "duration": 0.25,
          "velocity": 80
        },
        {
          "pitch": 48,
          "onset": 102.5,
          "duration": 0.25,
          "velocity": 80
        },
        {
          "pitch": 50,
          "onset": 102.75,
          "duration": 0.25,
          "velocity": 80
        },
        {
          "pitch": 51,
          "onset": 103.0,
          "duration": 0.375,
          "velocity": 80
        },
        {
          "pitch": 62,
          "onset": 103.5,
          "duration": 0.375,
          "velocity": 80
        },
        {
          "pitch": 60,
          "onset": 104.0,
          "duration": 0.25,
          "velocity": 80
        },
        {
          "pitch": 58,
          "onset": 104.25,
          "duration": 0.25,
          "velocity": 80
        },
        {
          "pitch": 57,
          "onset": 104.5,
          "duration": 0.25,
          "velocity": 80
        },
        {
          "pitch": 55,
          "onset": 104.75,
          "duration": 0.25,
          "velocity": 80
        },
        {
          "pitch": 53,
          "onset": 105.0,
          "duration": 0.375,
          "velocity": 80
        },
        {
          "pitch": 63,
          "onset": 105.5,
          "duration": 0.375,
          "velocity": 80
        },
        {
          "pitch": 46,
          "onset": 106.0,
          "duration": 0.25,
          "velocity": 80
        },
        {
          "pitch": 50,
          "onset": 106.25,
          "duration": 0.25,
          "velocity": 80
        },
        {
          "pitch": 51,
          "onset": 106.5,
          "duration": 0.25,
          "velocity": 80
        },
        {
          "pitch": 53,
          "onset": 106.75,
          "duration": 0.25,
          "velocity": 80
        },
        {
          "pitch": 55,
          "onset": 107.0,
          "duration": 0.375,
          "velocity": 80
        },
        {
          "pitch": 65,
          "onset": 107.5,
          "duration": 0.375,
          "velocity": 80
        },
        {
          "pitch": 63,
          "onset": 108.0,
          "duration": 0.25,
          "velocity": 80
        },
        {
          "pitch": 62,
          "onset": 108.25,
          "duration": 0.25,
          "velocity": 80
        },
        {
          "pitch": 60,
          "onset": 108.5,
          "duration": 0.25,
          "velocity": 80
        },
        {
          "pitch": 58,
          "onset": 108.75,
          "duration": 0.25,
          "velocity": 80
        },
        {
          "pitch": 57,
          "onset": 109.0,
          "duration": 0.375,
          "velocity": 80
        },
        {
          "pitch": 67,
          "onset": 109.5,
          "duration": 0.5,
          "velocity": 80
        },
        {
          "pitch": 65,
          "onset": 110.0,
          "duration": 0.25,
          "velocity": 80
        },
        {
          "pitch": 63,
          "onset": 110.25,
          "duration": 0.25,
          "velocity": 80
        },
        {
          "pitch": 62,
          "onset": 110.5,
          "duration": 0.25,
          "velocity": 80
        },
        {
          "pitch": 60,
          "onset": 110.75,
          "duration": 0.25,
          "velocity": 80
        },
        {
          "pitch": 58,
          "onset": 111.0,
          "duration": 0.375,
          "velocity": 80
        },
        {
          "pitch": 56,
          "onset": 111.5,
          "duration": 0.5,
          "velocity": 80
        },
        {
          "pitch": 55,
          "onset": 112.0,
          "duration": 0.25,
          "velocity": 80
        },
        {
          "pitch": 53,
          "onset": 112.25,
          "duration": 0.25,
          "velocity": 80
        },
        {
          "pitch": 51,
          "onset": 112.5,
          "duration": 0.25,
          "velocity": 80
        },
        {
          "pitch": 50,
          "onset": 112.75,
          "duration": 0.25,
          "velocity": 80
        },
        {
          "pitch": 48,
          "onset": 113.0,
          "duration": 0.375,
          "velocity": 80
        },
        {
          "pitch": 46,
          "onset": 113.5,
          "duration": 0.375,
          "velocity": 80
        },
        {
          "pitch": 51,
          "onset": 114.25,
          "duration": 0.25,
          "velocity": 80
        },
        {
          "pitch": 55,
          "onset": 114.5,
          "duration": 1.0,
          "velocity": 80
        },
        {
          "pitch": 53,
          "onset": 115.5,
          "duration": 0.25,
          "velocity": 80
        },
        {
          "pitch": 51,
          "onset": 115.75,
          "duration": 0.25,
          "velocity": 80
        },
        {
          "pitch": 50,
          "onset": 116.0,
          "duration": 0.25,
          "velocity": 80
        },
        {
          "pitch": 48,
          "onset": 116.25,
          "duration": 0.25,
          "velocity": 80
        },
        {
          "pitch": 46,
          "onset": 116.5,
          "duration": 0.25,
          "velocity": 80
        },
        {
          "pitch": 50,
          "onset": 116.75,
          "duration": 0.25,
          "velocity": 80
        },
        {
          "pitch": 48,
          "onset": 117.0,
          "duration": 0.25,
          "velocity": 80
        },
        {
          "pitch": 46,
          "onset": 117.25,
          "duration": 0.25,
          "velocity": 80
        },
        {
          "pitch": 45,
          "onset": 117.5,
          "duration": 0.25,
          "velocity": 80
        },
        {
          "pitch": 48,
          "onset": 117.75,
          "duration": 0.25,
          "velocity": 80
        },
        {
          "pitch": 46,
          "onset": 118.0,
          "duration": 0.25,
          "velocity": 80
        },
        {
          "pitch": 50,
          "onset": 118.25,
          "duration": 0.25,
          "velocity": 80
        },
        {
          "pitch": 48,
          "onset": 118.5,
          "duration": 0.25,
          "velocity": 80
        },
        {
          "pitch": 46,
          "onset": 118.75,
          "duration": 0.25,
          "velocity": 80
        },
        {
          "pitch": 48,
          "onset": 119.0,
          "duration": 0.25,
          "velocity": 80
        },
        {
          "pitch": 51,
          "onset": 119.25,
          "duration": 0.25,
          "velocity": 80
        },
        {
          "pitch": 50,
          "onset": 119.5,
          "duration": 0.25,
          "velocity": 80
        },
        {
          "pitch": 48,
          "onset": 119.75,
          "duration": 0.25,
          "velocity": 80
        },
        {
          "pitch": 50,
          "onset": 120.0,
          "duration": 0.25,
          "velocity": 80
        },
        {
          "pitch": 51,
          "onset": 120.25,
          "duration": 0.25,
          "velocity": 80
        },
        {
          "pitch": 53,
          "onset": 120.5,
          "duration": 0.25,
          "velocity": 80
        },
        {
          "pitch": 55,
          "onset": 120.75,
          "duration": 0.25,
          "velocity": 80
        },
        {
          "pitch": 56,
          "onset": 121.0,
          "duration": 0.375,
          "velocity": 80
        },
        {
          "pitch": 46,
          "onset": 121.5,
          "duration": 0.375,
          "velocity": 80
        },
        {
          "pitch": 56,
          "onset": 122.5,
          "duration": 0.5,
          "velocity": 90
        },
        {
          "pitch": 55,
          "onset": 123.0,
          "duration": 0.25,
          "velocity": 80
        },
        {
          "pitch": 53,
          "onset": 123.25,
          "duration": 0.25,
          "velocity": 80
        },
        {
          "pitch": 51,
          "onset": 123.5,
          "duration": 0.25,
          "velocity": 80
        },
        {
          "pitch": 50,
          "onset": 123.75,
          "duration": 0.25,
          "velocity": 80
        },
        {
          "pitch": 48,
          "onset": 124.0,
          "duration": 0.25,
          "velocity": 80
        },
        {
          "pitch": 50,
          "onset": 124.25,
          "duration": 0.25,
          "velocity": 80
        },
        {
          "pitch": 51,
          "onset": 124.5,
          "duration": 0.25,
          "velocity": 80
        },
        {
          "pitch": 53,
          "onset": 124.75,
          "duration": 0.25,
          "velocity": 80
        },
        {
          "pitch": 55,
          "onset": 125.0,
          "duration": 0.375,
          "velocity": 80
        },
        {
          "pitch": 58,
          "onset": 125.5,
          "duration": 0.375,
          "velocity": 80
        },
        {
          "pitch": 57,
          "onset": 126.0,
          "duration": 0.25,
          "velocity": 80
        },
        {
          "pitch": 58,
          "onset": 126.25,
          "duration": 0.25,
          "velocity": 80
        },
        {
          "pitch": 60,
          "onset": 126.5,
          "duration": 0.25,
          "velocity": 80
        },
        {
          "pitch": 58,
          "onset": 126.75,
          "duration": 0.25,
          "velocity": 80
        },
        {
          "pitch": 57,
          "onset": 127.0,
          "duration": 0.25,
          "velocity": 80
        },
        {
          "pitch": 55,
          "onset": 127.25,
          "duration": 0.25,
          "velocity": 80
        },
        {
          "pitch": 53,
          "onset": 127.5,
          "duration": 0.25,
          "velocity": 80
        },
        {
          "pitch": 51,
          "onset": 127.75,
          "duration": 0.25,
          "velocity": 80
        },
        {
          "pitch": 50,
          "onset": 128.0,
          "duration": 0.25,
          "velocity": 80
        },
        {
          "pitch": 48,
          "onset": 128.25,
          "duration": 0.25,
          "velocity": 80
        },
        {
          "pitch": 46,
          "onset": 128.5,
          "duration": 0.25,
          "velocity": 80
        },
        {
          "pitch": 50,
          "onset": 128.75,
          "duration": 0.25,
          "velocity": 80
        },
        {
          "pitch": 48,
          "onset": 129.0,
          "duration": 0.25,
          "velocity": 80
        },
        {
          "pitch": 46,
          "onset": 129.25,
          "duration": 0.25,
          "velocity": 80
        },
        {
          "pitch": 45,
          "onset": 129.5,
          "duration": 0.25,
          "velocity": 80
        },
        {
          "pitch": 48,
          "onset": 129.75,
          "duration": 0.25,
          "velocity": 80
        },
        {
          "pitch": 46,
          "onset": 130.0,
          "duration": 1.5,
          "velocity": 80
        },
        {
          "pitch": 53,
          "onset": 131.5,
          "duration": 0.5,
          "velocity": 80
        },
        {
          "pitch": 58,
          "onset": 132.0,
          "duration": 0.5,
          "velocity": 80
        },
        {
          "pitch": 57,
          "onset": 132.5,
          "duration": 0.25,
          "velocity": 80
        },
        {
          "pitch": 55,
          "onset": 132.75,
          "duration": 0.25,
          "velocity": 80
        },
        {
          "pitch": 53,
          "onset": 133.0,
          "duration": 0.25,
          "velocity": 80
        },
        {
          "pitch": 51,
          "onset": 133.25,
          "duration": 0.25,
          "velocity": 80
        },
        {
          "pitch": 50,
          "onset": 133.5,
          "duration": 0.25,
          "velocity": 80
        },
        {
          "pitch": 51,
          "onset": 133.75,
          "duration": 0.25,
          "velocity": 80
        },
        {
          "pitch": 53,
          "onset": 134.0,
          "duration": 0.25,
          "velocity": 80
        },
        {
          "pitch": 51,
          "onset": 134.25,
          "duration": 0.25,
          "velocity": 80
        },
        {
          "pitch": 50,
          "onset": 134.5,
          "duration": 0.25,
          "velocity": 80
        },
        {
          "pitch": 48,
          "onset": 134.75,
          "duration": 0.25,
          "velocity": 80
        },
        {
          "pitch": 51,
          "onset": 136.25,
          "duration": 0.25,
          "velocity": 80
        },
        {
          "pitch": 53,
          "onset": 136.5,
          "duration": 0.25,
          "velocity": 80
        },
        {
          "pitch": 55,
          "onset": 136.75,
          "duration": 0.25,
          "velocity": 80
        },
        {
          "pitch": 50,
          "onset": 137.0,
          "duration": 0.25,
          "velocity": 80
        },
        {
          "pitch": 56,
          "onset": 137.25,
          "duration": 0.25,
          "velocity": 80
        },
        {
          "pitch": 55,
          "onset": 137.5,
          "duration": 0.25,
          "velocity": 80
        },
        {
          "pitch": 53,
          "onset": 137.75,
          "duration": 0.25,
          "velocity": 80
        },
        {
          "pitch": 55,
          "onset": 138.0,
          "duration": 0.25,
          "velocity": 80
        },
        {
          "pitch": 56,
          "onset": 138.25,
          "duration": 0.25,
          "velocity": 80
        },
        {
          "pitch": 58,
          "onset": 138.5,
          "duration": 0.25,
          "velocity": 80
        },
        {
          "pitch": 55,
          "onset": 138.75,
          "duration": 0.25,
          "velocity": 80
        },
        {
          "pitch": 51,
          "onset": 139.0,
          "duration": 0.5,
          "velocity": 80
        },
        {
          "pitch": 50,
          "onset": 139.5,
          "duration": 0.25,
          "velocity": 80
        },
        {
          "pitch": 48,
          "onset": 139.75,
          "duration": 0.25,
          "velocity": 80
        },
        {
          "pitch": 47,
          "onset": 140.0,
          "duration": 0.25,
          "velocity": 80
        },
        {
          "pitch": 48,
          "onset": 140.25,
          "duration": 0.25,
          "velocity": 80
        },
        {
          "pitch": 50,
          "onset": 140.5,
          "duration": 0.25,
          "velocity": 80
        },
        {
          "pitch": 51,
          "onset": 140.75,
          "duration": 0.25,
          "velocity": 80
        },
        {
          "pitch": 53,
          "onset": 141.0,
          "duration": 0.375,
          "velocity": 80
        },
        {
          "pitch": 56,
          "onset": 141.5,
          "duration": 0.375,
          "velocity": 80
        },
        {
          "pitch": 62,
          "onset": 142.0,
          "duration": 0.25,
          "velocity": 80
        },
        {
          "pitch": 60,
          "onset": 142.25,
          "duration": 0.25,
          "velocity": 80
        },
        {
          "pitch": 59,
          "onset": 142.5,
          "duration": 0.25,
          "velocity": 80
        },
        {
          "pitch": 57,
          "onset": 142.75,
          "duration": 0.25,
          "velocity": 80
        },
        {
          "pitch": 55,
          "onset": 143.0,
          "duration": 0.5,
          "velocity": 80
        },
        {
          "pitch": 53,
          "onset": 143.5,
          "duration": 0.5,
          "velocity": 80
        },
        {
          "pitch": 48,
          "onset": 144.0,
          "duration": 0.25,
          "velocity": 80
        },
        {
          "pitch": 50,
          "onset": 144.25,
          "duration": 0.25,
          "velocity": 80
        },
        {
          "pitch": 51,
          "onset": 144.5,
          "duration": 0.25,
          "velocity": 80
        },
        {
          "pitch": 53,
          "onset": 144.75,
          "duration": 0.25,
          "velocity": 80
        },
        {
          "pitch": 55,
          "onset": 145.0,
          "duration": 0.25,
          "velocity": 80
        },
        {
          "pitch": 59,
          "onset": 145.25,
          "duration": 0.25,
          "velocity": 80
        },
        {
          "pitch": 60,
          "onset": 145.5,
          "duration": 0.25,
          "velocity": 80
        },
        {
          "pitch": 62,
          "onset": 145.75,
          "duration": 0.25,
          "velocity": 80
        },
        {
          "pitch": 63,
          "onset": 146.0,
          "duration": 0.25,
          "velocity": 80
        },
        {
          "pitch": 62,
          "onset": 146.25,
          "duration": 0.25,
          "velocity": 80
        },
        {
          "pitch": 60,
          "onset": 146.5,
          "duration": 0.25,
          "velocity": 80
        },
        {
          "pitch": 58,
          "onset": 146.75,
          "duration": 0.25,
          "velocity": 80
        },
        {
          "pitch": 56,
          "onset": 147.0,
          "duration": 0.25,
          "velocity": 80
        },
        {
          "pitch": 55,
          "onset": 147.25,
          "duration": 0.25,
          "velocity": 80
        },
        {
          "pitch": 53,
          "onset": 147.5,
          "duration": 0.25,
          "velocity": 80
        },
        {
          "pitch": 51,
          "onset": 147.75,
          "duration": 0.25,
          "velocity": 80
        },
        {
          "pitch": 56,
          "onset": 148.0,
          "duration": 0.25,
          "velocity": 80
        },
        {
          "pitch": 55,
          "onset": 148.25,
          "duration": 0.25,
          "velocity": 80
        },
        {
          "pitch": 53,
          "onset": 148.5,
          "duration": 0.25,
          "velocity": 80
        },
        {
          "pitch": 51,
          "onset": 148.75,
          "duration": 0.25,
          "velocity": 80
        },
        {
          "pitch": 50,
          "onset": 149.0,
          "duration": 0.25,
          "velocity": 80
        },
        {
          "pitch": 48,
          "onset": 149.25,
          "duration": 0.25,
          "velocity": 80
        },
        {
          "pitch": 47,
          "onset": 149.5,
          "duration": 0.25,
          "velocity": 80
        },
        {
          "pitch": 45,
          "onset": 149.75,
          "duration": 0.25,
          "velocity": 80
        },
        {
          "pitch": 53,
          "onset": 150.0,
          "duration": 0.25,
          "velocity": 80
        },
        {
          "pitch": 51,
          "onset": 150.25,
          "duration": 0.25,
          "velocity": 80
        },
        {
          "pitch": 50,
          "onset": 150.5,
          "duration": 0.25,
          "velocity": 80
        },
        {
          "pitch": 48,
          "onset": 150.75,
          "duration": 0.25,
          "velocity": 83
        },
        {
          "pitch": 60,
          "onset": 152.5,
          "duration": 0.375,
          "velocity": 100
        },
        {
          "pitch": 59,
          "onset": 153.5,
          "duration": 0.375,
          "velocity": 100
        },
        {
          "pitch": 51,
          "onset": 154.0,
          "duration": 1.0,
          "velocity": 100
        },
        {
          "pitch": 60,
          "onset": 154.25,
          "duration": 1.25,
          "velocity": 100
        },
        {
          "pitch": 60,
          "onset": 155.5,
          "duration": 0.25,
          "velocity": 80
        },
        {
          "pitch": 62,
          "onset": 155.75,
          "duration": 0.25,
          "velocity": 80
        },
        {
          "pitch": 63,
          "onset": 156.0,
          "duration": 0.25,
          "velocity": 80
        },
        {
          "pitch": 62,
          "onset": 156.25,
          "duration": 0.25,
          "velocity": 80
        },
        {
          "pitch": 63,
          "onset": 156.5,
          "duration": 0.25,
          "velocity": 80
        },
        {
          "pitch": 62,
          "onset": 156.75,
          "duration": 0.25,
          "velocity": 80
        },
        {
          "pitch": 60,
          "onset": 157.0,
          "duration": 0.25,
          "velocity": 80
        },
        {
          "pitch": 58,
          "onset": 157.25,
          "duration": 0.25,
          "velocity": 80
        },
        {
          "pitch": 60,
          "onset": 157.5,
          "duration": 0.25,
          "velocity": 80
        },
        {
          "pitch": 58,
          "onset": 157.75,
          "duration": 0.25,
          "velocity": 80
        },
        {
          "pitch": 56,
          "onset": 158.0,
          "duration": 0.25,
          "velocity": 80
        },
        {
          "pitch": 58,
          "onset": 158.25,
          "duration": 0.25,
          "velocity": 80
        },
        {
          "pitch": 56,
          "onset": 158.5,
          "duration": 0.25,
          "velocity": 80
        },
        {
          "pitch": 58,
          "onset": 158.75,
          "duration": 0.25,
          "velocity": 80
        },
        {
          "pitch": 60,
          "onset": 159.0,
          "duration": 0.25,
          "velocity": 80
        },
        {
          "pitch": 62,
          "onset": 159.25,
          "duration": 0.25,
          "velocity": 80
        },
        {
          "pitch": 60,
          "onset": 159.5,
          "duration": 0.25,
          "velocity": 80
        },
        {
          "pitch": 62,
          "onset": 159.75,
          "duration": 0.25,
          "velocity": 80
        },
        {
          "pitch": 63,
          "onset": 160.0,
          "duration": 0.25,
          "velocity": 80
        },
        {
          "pitch": 62,
          "onset": 160.25,
          "duration": 0.25,
          "velocity": 80
        },
        {
          "pitch": 63,
          "onset": 160.5,
          "duration": 0.25,
          "velocity": 80
        },
        {
          "pitch": 62,
          "onset": 160.75,
          "duration": 0.25,
          "velocity": 80
        },
        {
          "pitch": 60,
          "onset": 161.0,
          "duration": 0.25,
          "velocity": 80
        },
        {
          "pitch": 58,
          "onset": 161.25,
          "duration": 0.25,
          "velocity": 80
        },
        {
          "pitch": 56,
          "onset": 161.5,
          "duration": 0.25,
          "velocity": 80
        },
        {
          "pitch": 55,
          "onset": 161.75,
          "duration": 0.25,
          "velocity": 80
        },
        {
          "pitch": 54,
          "onset": 162.0,
          "duration": 0.25,
          "velocity": 80
        },
        {
          "pitch": 55,
          "onset": 162.25,
          "duration": 0.25,
          "velocity": 80
        },
        {
          "pitch": 57,
          "onset": 162.5,
          "duration": 0.25,
          "velocity": 80
        },
        {
          "pitch": 60,
          "onset": 162.75,
          "duration": 0.25,
          "velocity": 80
        },
        {
          "pitch": 62,
          "onset": 163.0,
          "duration": 0.375,
          "velocity": 80
        },
        {
          "pitch": 48,
          "onset": 163.5,
          "duration": 0.375,
          "velocity": 80
        },
        {
          "pitch": 46,
          "onset": 164.0,
          "duration": 0.375,
          "velocity": 80
        },
        {
          "pitch": 62,
          "onset": 164.5,
          "duration": 0.375,
          "velocity": 80
        },
        {
          "pitch": 51,
          "onset": 165.0,
          "duration": 0.25,
          "velocity": 80
        },
        {
          "pitch": 55,
          "onset": 165.25,
          "duration": 0.25,
          "velocity": 80
        },
        {
          "pitch": 57,
          "onset": 165.5,
          "duration": 0.25,
          "velocity": 80
        },
        {
          "pitch": 58,
          "onset": 165.75,
          "duration": 0.25,
          "velocity": 80
        },
        {
          "pitch": 60,
          "onset": 166.0,
          "duration": 0.375,
          "velocity": 80
        },
        {
          "pitch": 45,
          "onset": 166.5,
          "duration": 0.375,
          "velocity": 80
        },
        {
          "pitch": 50,
          "onset": 167.0,
          "duration": 0.25,
          "velocity": 80
        },
        {
          "pitch": 54,
          "onset": 167.25,
          "duration": 0.25,
          "velocity": 80
        },
        {
          "pitch": 55,
          "onset": 167.5,
          "duration": 0.25,
          "velocity": 80
        },
        {
          "pitch": 57,
          "onset": 167.75,
          "duration": 0.25,
          "velocity": 80
        },
        {
          "pitch": 58,
          "onset": 168.0,
          "duration": 0.25,
          "velocity": 80
        },
        {
          "pitch": 57,
          "onset": 168.25,
          "duration": 0.25,
          "velocity": 80
        },
        {
          "pitch": 55,
          "onset": 168.5,
          "duration": 0.25,
          "velocity": 80
        },
        {
          "pitch": 58,
          "onset": 168.75,
          "duration": 0.25,
          "velocity": 80
        },
        {
          "pitch": 57,
          "onset": 169.0,
          "duration": 0.25,
          "velocity": 80
        },
        {
          "pitch": 55,
          "onset": 169.25,
          "duration": 0.25,
          "velocity": 80
        },
        {
          "pitch": 54,
          "onset": 169.5,
          "duration": 0.25,
          "velocity": 80
        },
        {
          "pitch": 57,
          "onset": 169.75,
          "duration": 0.25,
          "velocity": 80
        },
        {
          "pitch": 55,
          "onset": 170.0,
          "duration": 0.375,
          "velocity": 80
        },
        {
          "pitch": 50,
          "onset": 170.5,
          "duration": 0.375,
          "velocity": 80
        },
        {
          "pitch": 58,
          "onset": 171.5,
          "duration": 0.25,
          "velocity": 80
        },
        {
          "pitch": 60,
          "onset": 171.75,
          "duration": 0.25,
          "velocity": 80
        },
        {
          "pitch": 61,
          "onset": 172.0,
          "duration": 0.25,
          "velocity": 80
        },
        {
          "pitch": 60,
          "onset": 172.25,
          "duration": 0.25,
          "velocity": 80
        },
        {
          "pitch": 61,
          "onset": 172.5,
          "duration": 0.25,
          "velocity": 80
        },
        {
          "pitch": 60,
          "onset": 172.75,
          "duration": 0.25,
          "velocity": 80
        },
        {
          "pitch": 58,
          "onset": 173.0,
          "duration": 0.25,
          "velocity": 80
        },
        {
          "pitch": 56,
          "onset": 173.25,
          "duration": 0.25,
          "velocity": 80
        },
        {
          "pitch": 58,
          "onset": 173.5,
          "duration": 0.25,
          "velocity": 80
        },
        {
          "pitch": 56,
          "onset": 173.75,
          "duration": 0.25,
          "velocity": 80
        },
        {
          "pitch": 55,
          "onset": 174.0,
          "duration": 0.25,
          "velocity": 80
        },
        {
          "pitch": 53,
          "onset": 174.25,
          "duration": 0.25,
          "velocity": 80
        },
        {
          "pitch": 55,
          "onset": 174.5,
          "duration": 0.25,
          "velocity": 80
        },
        {
          "pitch": 53,
          "onset": 174.75,
          "duration": 0.25,
          "velocity": 80
        },
        {
          "pitch": 52,
          "onset": 175.0,
          "duration": 0.25,
          "velocity": 80
        },
        {
          "pitch": 55,
          "onset": 175.25,
          "duration": 0.25,
          "velocity": 80
        },
        {
          "pitch": 56,
          "onset": 175.5,
          "duration": 0.25,
          "velocity": 80
        },
        {
          "pitch": 58,
          "onset": 175.75,
          "duration": 0.25,
          "velocity": 80
        },
        {
          "pitch": 60,
          "onset": 176.0,
          "duration": 0.25,
          "velocity": 80
        },
        {
          "pitch": 58,
          "onset": 176.25,
          "duration": 0.25,
          "velocity": 80
        },
        {
          "pitch": 56,
          "onset": 176.5,
          "duration": 0.25,
          "velocity": 80
        },
        {
          "pitch": 60,
          "onset": 176.75,
          "duration": 0.25,
          "velocity": 80
        },
        {
          "pitch": 58,
          "onset": 177.0,
          "duration": 0.25,
          "velocity": 80
        },
        {
          "pitch": 56,
          "onset": 177.25,
          "duration": 0.25,
          "velocity": 80
        },
        {
          "pitch": 55,
          "onset": 177.5,
          "duration": 0.25,
          "velocity": 80
        },
        {
          "pitch": 58,
          "onset": 177.75,
          "duration": 0.25,
          "velocity": 80
        },
        {
          "pitch": 56,
          "onset": 178.0,
          "duration": 0.375,
          "velocity": 80
        },
        {
          "pitch": 53,
          "onset": 178.5,
          "duration": 0.375,
          "velocity": 80
        },
        {
          "pitch": 53,
          "onset": 179.5,
          "duration": 0.25,
          "velocity": 80
        },
        {
          "pitch": 55,
          "onset": 179.75,
          "duration": 0.25,
          "velocity": 80
        },
        {
          "pitch": 56,
          "onset": 180.0,
          "duration": 0.25,
          "velocity": 80
        },
        {
          "pitch": 55,
          "onset": 180.25,
          "duration": 0.25,
          "velocity": 80
        },
        {
          "pitch": 53,
          "onset": 180.5,
          "duration": 0.25,
          "velocity": 80
        },
        {
          "pitch": 51,
          "onset": 180.75,
          "duration": 0.25,
          "velocity": 80
        },
        {
          "pitch": 50,
          "onset": 181.0,
          "duration": 0.25,
          "velocity": 80
        },
        {
          "pitch": 51,
          "onset": 181.25,
          "duration": 0.25,
          "velocity": 80
        },
        {
          "pitch": 53,
          "onset": 181.5,
          "duration": 0.25,
          "velocity": 80
        },
        {
          "pitch": 55,
          "onset": 181.75,
          "duration": 0.25,
          "velocity": 80
        },
        {
          "pitch": 56,
          "onset": 182.0,
          "duration": 0.25,
          "velocity": 80
        },
        {
          "pitch": 58,
          "onset": 182.25,
          "duration": 0.25,
          "velocity": 80
        },
        {
          "pitch": 60,
          "onset": 182.5,
          "duration": 0.25,
          "velocity": 80
        },
        {
          "pitch": 62,
          "onset": 182.75,
          "duration": 0.25,
          "velocity": 80
        },
        {
          "pitch": 63,
          "onset": 183.0,
          "duration": 0.25,
          "velocity": 80
        },
        {
          "pitch": 62,
          "onset": 183.25,
          "duration": 0.25,
          "velocity": 80
        },
        {
          "pitch": 63,
          "onset": 183.5,
          "duration": 0.25,
          "velocity": 80
        },
        {
          "pitch": 62,
          "onset": 183.75,
          "duration": 0.25,
          "velocity": 80
        },
        {
          "pitch": 63,
          "onset": 184.0,
          "duration": 0.25,
          "velocity": 80
        },
        {
          "pitch": 62,
          "onset": 184.25,
          "duration": 0.25,
          "velocity": 80
        },
        {
          "pitch": 60,
          "onset": 184.5,
          "duration": 0.25,
          "velocity": 80
        },
        {
          "pitch": 58,
          "onset": 184.75,
          "duration": 0.25,
          "velocity": 80
        },
        {
          "pitch": 56,
          "onset": 185.0,
          "duration": 0.25,
          "velocity": 80
        },
        {
          "pitch": 55,
          "onset": 185.25,
          "duration": 0.25,
          "velocity": 80
        },
        {
          "pitch": 53,
          "onset": 185.5,
          "duration": 0.25,
          "velocity": 80
        },
        {
          "pitch": 51,
          "onset": 185.75,
          "duration": 0.25,
          "velocity": 80
        },
        {
          "pitch": 53,
          "onset": 186.0,
          "duration": 0.25,
          "velocity": 80
        },
        {
          "pitch": 51,
          "onset": 186.25,
          "duration": 0.25,
          "velocity": 80
        },
        {
          "pitch": 50,
          "onset": 186.5,
          "duration": 0.25,
          "velocity": 80
        },
        {
          "pitch": 48,
          "onset": 186.75,
          "duration": 0.25,
          "velocity": 83
        },
        {
          "pitch": 46,
          "onset": 187.0,
          "duration": 0.375,
          "velocity": 84
        },
        {
          "pitch": 53,
          "onset": 187.5,
          "duration": 0.375,
          "velocity": 88
        },
        {
          "pitch": 46,
          "onset": 188.0,
          "duration": 0.25,
          "velocity": 92
        },
        {
          "pitch": 48,
          "onset": 188.25,
          "duration": 0.25,
          "velocity": 94
        },
        {
          "pitch": 50,
          "onset": 188.5,
          "duration": 0.25,
          "velocity": 96
        },
        {
          "pitch": 51,
          "onset": 188.75,
          "duration": 0.25,
          "velocity": 98
        },
        {
          "pitch": 53,
          "onset": 189.0,
          "duration": 0.375,
          "velocity": 100
        },
        {
          "pitch": 55,
          "onset": 189.5,
          "duration": 0.375,
          "velocity": 100
        },
        {
          "pitch": 48,
          "onset": 190.0,
          "duration": 0.375,
          "velocity": 100
        },
        {
          "pitch": 56,
          "onset": 190.5,
          "duration": 0.375,
          "velocity": 100
        },
        {
          "pitch": 50,
          "onset": 191.0,
          "duration": 0.375,
          "velocity": 100
        },
        {
          "pitch": 56,
          "onset": 191.5,
          "duration": 0.375,
          "velocity": 100
        },
        {
          "pitch": 51,
          "onset": 192.0,
          "duration": 0.25,
          "velocity": 100
        },
        {
          "pitch": 53,
          "onset": 192.25,
          "duration": 0.25,
          "velocity": 100
        },
        {
          "pitch": 55,
          "onset": 192.5,
          "duration": 0.25,
          "velocity": 100
        },
        {
          "pitch": 56,
          "onset": 192.75,
          "duration": 0.25,
          "velocity": 100
        },
        {
          "pitch": 58,
          "onset": 193.0,
          "duration": 0.375,
          "velocity": 100
        },
        {
          "pitch": 60,
          "onset": 193.5,
          "duration": 0.375,
          "velocity": 100
        },
        {
          "pitch": 53,
          "onset": 194.0,
          "duration": 0.375,
          "velocity": 100
        },
        {
          "pitch": 61,
          "onset": 194.5,
          "duration": 0.375,
          "velocity": 100
        },
        {
          "pitch": 55,
          "onset": 195.0,
          "duration": 0.375,
          "velocity": 100
        },
        {
          "pitch": 61,
          "onset": 195.5,
          "duration": 0.375,
          "velocity": 100
        },
        {
          "pitch": 60,
          "onset": 196.0,
          "duration": 0.25,
          "velocity": 100
        },
        {
          "pitch": 58,
          "onset": 196.25,
          "duration": 0.25,
          "velocity": 100
        },
        {
          "pitch": 56,
          "onset": 196.5,
          "duration": 0.25,
          "velocity": 100
        },
        {
          "pitch": 55,
          "onset": 196.75,
          "duration": 0.25,
          "velocity": 100
        },
        {
          "pitch": 56,
          "onset": 197.0,
          "duration": 0.375,
          "velocity": 100
        },
        {
          "pitch": 60,
          "onset": 197.5,
          "duration": 0.375,
          "velocity": 100
        },
        {
          "pitch": 65,
          "onset": 198.0,
          "duration": 0.25,
          "velocity": 100
        },
        {
          "pitch": 63,
          "onset": 198.25,
          "duration": 0.25,
          "velocity": 100
        },
        {
          "pitch": 62,
          "onset": 198.5,
          "duration": 0.25,
          "velocity": 100
        },
        {
          "pitch": 63,
          "onset": 198.75,
          "duration": 0.25,
          "velocity": 100
        },
        {
          "pitch": 65,
          "onset": 199.0,
          "duration": 0.25,
          "velocity": 100
        },
        {
          "pitch": 63,
          "onset": 199.25,
          "duration": 0.25,
          "velocity": 100
        },
        {
          "pitch": 62,
          "onset": 199.5,
          "duration": 0.25,
          "velocity": 100
        },
        {
          "pitch": 60,
          "onset": 199.75,
          "duration": 0.25,
          "velocity": 100
        },
        {
          "pitch": 58,
          "onset": 200.0,
          "duration": 0.25,
          "velocity": 100
        },
        {
          "pitch": 56,
          "onset": 200.25,
          "duration": 0.25,
          "velocity": 100
        },
        {
          "pitch": 55,
          "onset": 200.5,
          "duration": 0.25,
          "velocity": 100
        },
        {
          "pitch": 53,
          "onset": 200.75,
          "duration": 0.25,
          "velocity": 100
        },
        {
          "pitch": 55,
          "onset": 201.0,
          "duration": 0.375,
          "velocity": 100
        },
        {
          "pitch": 58,
          "onset": 201.5,
          "duration": 0.375,
          "velocity": 100
        },
        {
          "pitch": 63,
          "onset": 202.0,
          "duration": 0.25,
          "velocity": 100
        },
        {
          "pitch": 62,
          "onset": 202.25,
          "duration": 0.25,
          "velocity": 100
        },
        {
          "pitch": 60,
          "onset": 202.5,
          "duration": 0.25,
          "velocity": 100
        },
        {
          "pitch": 62,
          "onset": 202.75,
          "duration": 0.25,
          "velocity": 100
        },
        {
          "pitch": 63,
          "onset": 203.0,
          "duration": 0.25,
          "velocity": 100
        },
        {
          "pitch": 62,
          "onset": 203.25,
          "duration": 0.25,
          "velocity": 100
        },
        {
          "pitch": 60,
          "onset": 203.5,
          "duration": 0.25,
          "velocity": 100
        },
        {
          "pitch": 58,
          "onset": 203.75,
          "duration": 0.25,
          "velocity": 100
        },
        {
          "pitch": 56,
          "onset": 204.0,
          "duration": 0.25,
          "velocity": 100
        },
        {
          "pitch": 55,
          "onset": 204.25,
          "duration": 0.25,
          "velocity": 100
        },
        {
          "pitch": 53,
          "onset": 204.5,
          "duration": 0.25,
          "velocity": 100
        },
        {
          "pitch": 55,
          "onset": 204.75,
          "duration": 0.25,
          "velocity": 100
        },
        {
          "pitch": 56,
          "onset": 205.0,
          "duration": 0.25,
          "velocity": 100
        },
        {
          "pitch": 55,
          "onset": 205.25,
          "duration": 0.25,
          "velocity": 100
        },
        {
          "pitch": 53,
          "onset": 205.5,
          "duration": 0.25,
          "velocity": 100
        },
        {
          "pitch": 51,
          "onset": 205.75,
          "duration": 0.25,
          "velocity": 100
        },
        {
          "pitch": 50,
          "onset": 206.0,
          "duration": 0.25,
          "velocity": 100
        },
        {
          "pitch": 48,
          "onset": 206.25,
          "duration": 0.25,
          "velocity": 100
        },
        {
          "pitch": 46,
          "onset": 206.5,
          "duration": 0.25,
          "velocity": 100
        },
        {
          "pitch": 48,
          "onset": 206.75,
          "duration": 0.25,
          "velocity": 100
        },
        {
          "pitch": 50,
          "onset": 207.0,
          "duration": 0.25,
          "velocity": 100
        },
        {
          "pitch": 48,
          "onset": 207.25,
          "duration": 0.25,
          "velocity": 100
        },
        {
          "pitch": 46,
          "onset": 207.5,
          "duration": 0.25,
          "velocity": 100
        },
        {
          "pitch": 44,
          "onset": 207.75,
          "duration": 0.25,
          "velocity": 100
        },
        {
          "pitch": 46,
          "onset": 208.25,
          "duration": 0.25,
          "velocity": 100
        },
        {
          "pitch": 48,
          "onset": 208.5,
          "duration": 0.25,
          "velocity": 100
        },
        {
          "pitch": 50,
          "onset": 208.75,
          "duration": 0.25,
          "velocity": 100
        },
        {
          "pitch": 51,
          "onset": 209.0,
          "duration": 0.375,
          "velocity": 100
        },
        {
          "pitch": 61,
          "onset": 209.5,
          "duration": 0.375,
          "velocity": 100
        },
        {
          "pitch": 61,
          "onset": 210.5,
          "duration": 0.375,
          "velocity": 100
        },
        {
          "pitch": 60,
          "onset": 211.0,
          "duration": 0.25,
          "velocity": 100
        },
        {
          "pitch": 58,
          "onset": 211.25,
          "duration": 0.25,
          "velocity": 100
        },
        {
          "pitch": 56,
          "onset": 211.5,
          "duration": 0.25,
          "velocity": 100
        },
        {
          "pitch": 55,
          "onset": 211.75,
          "duration": 0.25,
          "velocity": 100
        },
        {
          "pitch": 56,
          "onset": 212.0,
          "duration": 0.25,
          "velocity": 100
        },
        {
          "pitch": 55,
          "onset": 212.25,
          "duration": 0.25,
          "velocity": 100
        },
        {
          "pitch": 53,
          "onset": 212.5,
          "duration": 0.25,
          "velocity": 100
        },
        {
          "pitch": 51,
          "onset": 212.75,
          "duration": 0.25,
          "velocity": 100
        },
        {
          "pitch": 50,
          "onset": 213.0,
          "duration": 0.375,
          "velocity": 100
        },
        {
          "pitch": 60,
          "onset": 213.5,
          "duration": 0.375,
          "velocity": 100
        },
        {
          "pitch": 60,
          "onset": 214.5,
          "duration": 0.375,
          "velocity": 100
        },
        {
          "pitch": 58,
          "onset": 215.0,
          "duration": 0.25,
          "velocity": 100
        },
        {
          "pitch": 56,
          "onset": 215.25,
          "duration": 0.25,
          "velocity": 100
        },
        {
          "pitch": 55,
          "onset": 215.5,
          "duration": 0.25,
          "velocity": 100
        },
        {
          "pitch": 53,
          "onset": 215.75,
          "duration": 0.25,
          "velocity": 100
        },
        {
          "pitch": 55,
          "onset": 216.0,
          "duration": 0.25,
          "velocity": 100
        },
        {
          "pitch": 53,
          "onset": 216.25,
          "duration": 0.25,
          "velocity": 100
        },
        {
          "pitch": 51,
          "onset": 216.5,
          "duration": 0.25,
          "velocity": 100
        },
        {
          "pitch": 50,
          "onset": 216.75,
          "duration": 0.25,
          "velocity": 100
        },
        {
          "pitch": 48,
          "onset": 217.0,
          "duration": 0.25,
          "velocity": 100
        },
        {
          "pitch": 46,
          "onset": 217.25,
          "duration": 0.25,
          "velocity": 100
        },
        {
          "pitch": 44,
          "onset": 217.5,
          "duration": 0.25,
          "velocity": 100
        },
        {
          "pitch": 43,
          "onset": 217.75,
          "duration": 0.25,
          "velocity": 100
        },
        {
          "pitch": 56,
          "onset": 218.25,
          "duration": 0.25,
          "velocity": 100
        },
        {
          "pitch": 55,
          "onset": 218.5,
          "duration": 0.25,
          "velocity": 100
        },
        {
          "pitch": 53,
          "onset": 218.75,
          "duration": 0.25,
          "velocity": 100
        },
        {
          "pitch": 56,
          "onset": 219.25,
          "duration": 0.25,
          "velocity": 100
        },
        {
          "pitch": 55,
          "onset": 219.5,
          "duration": 0.25,
          "velocity": 100
        },
        {
          "pitch": 53,
          "onset": 219.75,
          "duration": 0.25,
          "velocity": 100
        },
        {
          "pitch": 55,
          "onset": 220.25,
          "duration": 0.25,
          "velocity": 100
        },
        {
          "pitch": 53,
          "onset": 220.5,
          "duration": 0.25,
          "velocity": 100
        },
        {
          "pitch": 51,
          "onset": 220.75,
          "duration": 0.25,
          "velocity": 100
        },
        {
          "pitch": 54,
          "onset": 221.25,
          "duration": 0.25,
          "velocity": 100
        },
        {
          "pitch": 53,
          "onset": 221.5,
          "duration": 0.25,
          "velocity": 100
        },
        {
          "pitch": 51,
          "onset": 221.75,
          "duration": 0.25,
          "velocity": 100
        },
        {
          "pitch": 53,
          "onset": 222.25,
          "duration": 0.25,
          "velocity": 100
        },
        {
          "pitch": 60,
          "onset": 222.5,
          "duration": 1.0,
          "velocity": 100
        },
        {
          "pitch": 58,
          "onset": 223.5,
          "duration": 0.25,
          "velocity": 100
        },
        {
          "pitch": 56,
          "onset": 223.75,
          "duration": 0.25,
          "velocity": 100
        },
        {
          "pitch": 55,
          "onset": 224.0,
          "duration": 0.25,
          "velocity": 100
        },
        {
          "pitch": 53,
          "onset": 224.25,
          "duration": 0.25,
          "velocity": 100
        },
        {
          "pitch": 51,
          "onset": 224.5,
          "duration": 0.25,
          "velocity": 100
        },
        {
          "pitch": 53,
          "onset": 224.75,
          "duration": 0.25,
          "velocity": 100
        },
        {
          "pitch": 62,
          "onset": 225.5,
          "duration": 0.375,
          "velocity": 100
        },
        {
          "pitch": 55,
          "onset": 226.0,
          "duration": 1.25,
          "velocity": 100
        },
        {
          "pitch": 63,
          "onset": 226.0,
          "duration": 1.25,
          "velocity": 100
        },
        {
          "pitch": 53,
          "onset": 227.5,
          "duration": 0.5,
          "velocity": 80
        },
        {
          "pitch": 58,
          "onset": 228.0,
          "duration": 0.5,
          "velocity": 80
        },
        {
          "pitch": 57,
          "onset": 228.5,
          "duration": 0.25,
          "velocity": 80
        },
        {
          "pitch": 55,
          "onset": 228.75,
          "duration": 0.25,
          "velocity": 80
        },
        {
          "pitch": 53,
          "onset": 229.0,
          "duration": 0.25,
          "velocity": 80
        },
        {
          "pitch": 51,
          "onset": 229.25,
          "duration": 0.25,
          "velocity": 80
        },
        {
          "pitch": 50,
          "onset": 229.5,
          "duration": 0.25,
          "velocity": 80
        },
        {
          "pitch": 51,
          "onset": 229.75,
          "duration": 0.25,
          "velocity": 80
        },
        {
          "pitch": 53,
          "onset": 230.0,
          "duration": 0.25,
          "velocity": 80
        },
        {
          "pitch": 51,
          "onset": 230.25,
          "duration": 0.25,
          "velocity": 80
        },
        {
          "pitch": 50,
          "onset": 230.5,
          "duration": 0.25,
          "velocity": 80
        },
        {
          "pitch": 48,
          "onset": 230.75,
          "duration": 0.25,
          "velocity": 80
        },
        {
          "pitch": 51,
          "onset": 232.25,
          "duration": 0.25,
          "velocity": 80
        },
        {
          "pitch": 53,
          "onset": 232.5,
          "duration": 0.25,
          "velocity": 80
        },
        {
          "pitch": 55,
          "onset": 232.75,
          "duration": 0.25,
          "velocity": 80
        },
        {
          "pitch": 50,
          "onset": 233.0,
          "duration": 0.25,
          "velocity": 80
        },
        {
          "pitch": 56,
          "onset": 233.25,
          "duration": 0.25,
          "velocity": 80
        },
        {
          "pitch": 55,
          "onset": 233.5,
          "duration": 0.25,
          "velocity": 80
        },
        {
          "pitch": 53,
          "onset": 233.75,
          "duration": 0.25,
          "velocity": 80
        },
        {
          "pitch": 55,
          "onset": 234.0,
          "duration": 0.25,
          "velocity": 80
        },
        {
          "pitch": 56,
          "onset": 234.25,
          "duration": 0.25,
          "velocity": 80
        },
        {
          "pitch": 58,
          "onset": 234.5,
          "duration": 0.25,
          "velocity": 80
        },
        {
          "pitch": 55,
          "onset": 234.75,
          "duration": 0.25,
          "velocity": 80
        },
        {
          "pitch": 51,
          "onset": 235.0,
          "duration": 0.5,
          "velocity": 80
        },
        {
          "pitch": 50,
          "onset": 235.5,
          "duration": 0.25,
          "velocity": 80
        },
        {
          "pitch": 48,
          "onset": 235.75,
          "duration": 0.25,
          "velocity": 80
        },
        {
          "pitch": 47,
          "onset": 236.0,
          "duration": 0.25,
          "velocity": 80
        },
        {
          "pitch": 48,
          "onset": 236.25,
          "duration": 0.25,
          "velocity": 80
        },
        {
          "pitch": 50,
          "onset": 236.5,
          "duration": 0.25,
          "velocity": 80
        },
        {
          "pitch": 51,
          "onset": 236.75,
          "duration": 0.25,
          "velocity": 80
        },
        {
          "pitch": 53,
          "onset": 237.0,
          "duration": 0.375,
          "velocity": 80
        },
        {
          "pitch": 56,
          "onset": 237.5,
          "duration": 0.375,
          "velocity": 80
        },
        {
          "pitch": 62,
          "onset": 238.0,
          "duration": 0.25,
          "velocity": 80
        },
        {
          "pitch": 60,
          "onset": 238.25,
          "duration": 0.25,
          "velocity": 80
        },
        {
          "pitch": 59,
          "onset": 238.5,
          "duration": 0.25,
          "velocity": 80
        },
        {
          "pitch": 57,
          "onset": 238.75,
          "duration": 0.25,
          "velocity": 80
        },
        {
          "pitch": 55,
          "onset": 239.0,
          "duration": 0.3438,
          "velocity": 80
        },
        {
          "pitch": 53,
          "onset": 239.5,
          "duration": 0.3438,
          "velocity": 80
        },
        {
          "pitch": 48,
          "onset": 240.0,
          "duration": 0.25,
          "velocity": 80
        },
        {
          "pitch": 50,
          "onset": 240.25,
          "duration": 0.25,
          "velocity": 80
        },
        {
          "pitch": 51,
          "onset": 240.5,
          "duration": 0.25,
          "velocity": 80
        },
        {
          "pitch": 53,
          "onset": 240.75,
          "duration": 0.25,
          "velocity": 80
        },
        {
          "pitch": 55,
          "onset": 241.0,
          "duration": 0.25,
          "velocity": 80
        },
        {
          "pitch": 59,
          "onset": 241.25,
          "duration": 0.25,
          "velocity": 80
        },
        {
          "pitch": 60,
          "onset": 241.5,
          "duration": 0.25,
          "velocity": 80
        },
        {
          "pitch": 62,
          "onset": 241.75,
          "duration": 0.25,
          "velocity": 80
        },
        {
          "pitch": 63,
          "onset": 242.0,
          "duration": 0.25,
          "velocity": 80
        },
        {
          "pitch": 62,
          "onset": 242.25,
          "duration": 0.25,
          "velocity": 80
        },
        {
          "pitch": 60,
          "onset": 242.5,
          "duration": 0.25,
          "velocity": 80
        },
        {
          "pitch": 58,
          "onset": 242.75,
          "duration": 0.25,
          "velocity": 80
        },
        {
          "pitch": 56,
          "onset": 243.0,
          "duration": 0.25,
          "velocity": 80
        },
        {
          "pitch": 55,
          "onset": 243.25,
          "duration": 0.25,
          "velocity": 80
        },
        {
          "pitch": 53,
          "onset": 243.5,
          "duration": 0.25,
          "velocity": 80
        },
        {
          "pitch": 51,
          "onset": 243.75,
          "duration": 0.25,
          "velocity": 80
        },
        {
          "pitch": 56,
          "onset": 244.0,
          "duration": 0.25,
          "velocity": 80
        },
        {
          "pitch": 55,
          "onset": 244.25,
          "duration": 0.25,
          "velocity": 80
        },
        {
          "pitch": 53,
          "onset": 244.5,
          "duration": 0.25,
          "velocity": 80
        },
        {
          "pitch": 51,
          "onset": 244.75,
          "duration": 0.25,
          "velocity": 80
        },
        {
          "pitch": 50,
          "onset": 245.0,
          "duration": 0.25,
          "velocity": 80
        },
        {
          "pitch": 48,
          "onset": 245.25,
          "duration": 0.25,
          "velocity": 80
        },
        {
          "pitch": 47,
          "onset": 245.5,
          "duration": 0.25,
          "velocity": 80
        },
        {
          "pitch": 45,
          "onset": 245.75,
          "duration": 0.25,
          "velocity": 80
        },
        {
          "pitch": 53,
          "onset": 246.0,
          "duration": 0.25,
          "velocity": 80
        },
        {
          "pitch": 51,
          "onset": 246.25,
          "duration": 0.25,
          "velocity": 80
        },
        {
          "pitch": 50,
          "onset": 246.5,
          "duration": 0.25,
          "velocity": 80
        },
        {
          "pitch": 48,
          "onset": 246.75,
          "duration": 0.25,
          "velocity": 83
        },
        {
          "pitch": 60,
          "onset": 248.5,
          "duration": 0.375,
          "velocity": 100
        },
        {
          "pitch": 59,
          "onset": 249.5,
          "duration": 0.375,
          "velocity": 100
        },
        {
          "pitch": 51,
          "onset": 250.0,
          "duration": 1.0,
          "velocity": 100
        },
        {
          "pitch": 60,
          "onset": 250.25,
          "duration": 1.25,
          "velocity": 100
        },
        {
          "pitch": 60,
          "onset": 251.5,
          "duration": 0.25,
          "velocity": 80
        },
        {
          "pitch": 62,
          "onset": 251.75,
          "duration": 0.25,
          "velocity": 80
        },
        {
          "pitch": 63,
          "onset": 252.0,
          "duration": 0.25,
          "velocity": 80
        },
        {
          "pitch": 62,
          "onset": 252.25,
          "duration": 0.25,
          "velocity": 80
        },
        {
          "pitch": 63,
          "onset": 252.5,
          "duration": 0.25,
          "velocity": 80
        },
        {
          "pitch": 62,
          "onset": 252.75,
          "duration": 0.25,
          "velocity": 80
        },
        {
          "pitch": 60,
          "onset": 253.0,
          "duration": 0.25,
          "velocity": 80
        },
        {
          "pitch": 58,
          "onset": 253.25,
          "duration": 0.25,
          "velocity": 80
        },
        {
          "pitch": 60,
          "onset": 253.5,
          "duration": 0.25,
          "velocity": 80
        },
        {
          "pitch": 58,
          "onset": 253.75,
          "duration": 0.25,
          "velocity": 80
        },
        {
          "pitch": 56,
          "onset": 254.0,
          "duration": 0.25,
          "velocity": 80
        },
        {
          "pitch": 58,
          "onset": 254.25,
          "duration": 0.25,
          "velocity": 80
        },
        {
          "pitch": 56,
          "onset": 254.5,
          "duration": 0.25,
          "velocity": 80
        },
        {
          "pitch": 58,
          "onset": 254.75,
          "duration": 0.25,
          "velocity": 80
        },
        {
          "pitch": 60,
          "onset": 255.0,
          "duration": 0.25,
          "velocity": 80
        },
        {
          "pitch": 62,
          "onset": 255.25,
          "duration": 0.25,
          "velocity": 80
        },
        {
          "pitch": 60,
          "onset": 255.5,
          "duration": 0.25,
          "velocity": 80
        },
        {
          "pitch": 62,
          "onset": 255.75,
          "duration": 0.25,
          "velocity": 80
        },
        {
          "pitch": 63,
          "onset": 256.0,
          "duration": 0.25,
          "velocity": 80
        },
        {
          "pitch": 62,
          "onset": 256.25,
          "duration": 0.25,
          "velocity": 80
        },
        {
          "pitch": 63,
          "onset": 256.5,
          "duration": 0.25,
          "velocity": 80
        },
        {
          "pitch": 62,
          "onset": 256.75,
          "duration": 0.25,
          "velocity": 80
        },
        {
          "pitch": 60,
          "onset": 257.0,
          "duration": 0.25,
          "velocity": 80
        },
        {
          "pitch": 58,
          "onset": 257.25,
          "duration": 0.25,
          "velocity": 80
        },
        {
          "pitch": 56,
          "onset": 257.5,
          "duration": 0.25,
          "velocity": 80
        },
        {
          "pitch": 55,
          "onset": 257.75,
          "duration": 0.25,
          "velocity": 80
        },
        {
          "pitch": 54,
          "onset": 258.0,
          "duration": 0.25,
          "velocity": 80
        },
        {
          "pitch": 55,
          "onset": 258.25,
          "duration": 0.25,
          "velocity": 80
        },
        {
          "pitch": 57,
          "onset": 258.5,
          "duration": 0.25,
          "velocity": 80
        },
        {
          "pitch": 60,
          "onset": 258.75,
          "duration": 0.25,
          "velocity": 80
        },
        {
          "pitch": 62,
          "onset": 259.0,
          "duration": 0.375,
          "velocity": 80
        },
        {
          "pitch": 48,
          "onset": 259.5,
          "duration": 0.375,
          "velocity": 80
        },
        {
          "pitch": 46,
          "onset": 260.0,
          "duration": 0.375,
          "velocity": 80
        },
        {
          "pitch": 62,
          "onset": 260.5,
          "duration": 0.375,
          "velocity": 80
        },
        {
          "pitch": 51,
          "onset": 261.0,
          "duration": 0.25,
          "velocity": 80
        },
        {
          "pitch": 55,
          "onset": 261.25,
          "duration": 0.25,
          "velocity": 80
        },
        {
          "pitch": 57,
          "onset": 261.5,
          "duration": 0.25,
          "velocity": 80
        },
        {
          "pitch": 58,
          "onset": 261.75,
          "duration": 0.25,
          "velocity": 80
        },
        {
          "pitch": 60,
          "onset": 262.0,
          "duration": 0.375,
          "velocity": 80
        },
        {
          "pitch": 45,
          "onset": 262.5,
          "duration": 0.375,
          "velocity": 80
        },
        {
          "pitch": 50,
          "onset": 263.0,
          "duration": 0.25,
          "velocity": 80
        },
        {
          "pitch": 54,
          "onset": 263.25,
          "duration": 0.25,
          "velocity": 80
        },
        {
          "pitch": 55,
          "onset": 263.5,
          "duration": 0.25,
          "velocity": 80
        },
        {
          "pitch": 57,
          "onset": 263.75,
          "duration": 0.25,
          "velocity": 80
        },
        {
          "pitch": 58,
          "onset": 264.0,
          "duration": 0.25,
          "velocity": 80
        },
        {
          "pitch": 57,
          "onset": 264.25,
          "duration": 0.25,
          "velocity": 80
        },
        {
          "pitch": 55,
          "onset": 264.5,
          "duration": 0.25,
          "velocity": 80
        },
        {
          "pitch": 58,
          "onset": 264.75,
          "duration": 0.25,
          "velocity": 80
        },
        {
          "pitch": 57,
          "onset": 265.0,
          "duration": 0.25,
          "velocity": 80
        },
        {
          "pitch": 55,
          "onset": 265.25,
          "duration": 0.25,
          "velocity": 80
        },
        {
          "pitch": 54,
          "onset": 265.5,
          "duration": 0.25,
          "velocity": 80
        },
        {
          "pitch": 57,
          "onset": 265.75,
          "duration": 0.25,
          "velocity": 80
        },
        {
          "pitch": 55,
          "onset": 266.0,
          "duration": 0.375,
          "velocity": 80
        },
        {
          "pitch": 50,
          "onset": 266.5,
          "duration": 0.375,
          "velocity": 80
        },
        {
          "pitch": 58,
          "onset": 267.5,
          "duration": 0.25,
          "velocity": 80
        },
        {
          "pitch": 60,
          "onset": 267.75,
          "duration": 0.25,
          "velocity": 80
        },
        {
          "pitch": 61,
          "onset": 268.0,
          "duration": 0.25,
          "velocity": 80
        },
        {
          "pitch": 60,
          "onset": 268.25,
          "duration": 0.25,
          "velocity": 80
        },
        {
          "pitch": 61,
          "onset": 268.5,
          "duration": 0.25,
          "velocity": 80
        },
        {
          "pitch": 60,
          "onset": 268.75,
          "duration": 0.25,
          "velocity": 80
        },
        {
          "pitch": 58,
          "onset": 269.0,
          "duration": 0.25,
          "velocity": 80
        },
        {
          "pitch": 56,
          "onset": 269.25,
          "duration": 0.25,
          "velocity": 80
        },
        {
          "pitch": 58,
          "onset": 269.5,
          "duration": 0.25,
          "velocity": 80
        },
        {
          "pitch": 56,
          "onset": 269.75,
          "duration": 0.25,
          "velocity": 80
        },
        {
          "pitch": 55,
          "onset": 270.0,
          "duration": 0.25,
          "velocity": 80
        },
        {
          "pitch": 53,
          "onset": 270.25,
          "duration": 0.25,
          "velocity": 80
        },
        {
          "pitch": 55,
          "onset": 270.5,
          "duration": 0.25,
          "velocity": 80
        },
        {
          "pitch": 53,
          "onset": 270.75,
          "duration": 0.25,
          "velocity": 80
        },
        {
          "pitch": 52,
          "onset": 271.0,
          "duration": 0.25,
          "velocity": 80
        },
        {
          "pitch": 55,
          "onset": 271.25,
          "duration": 0.25,
          "velocity": 80
        },
        {
          "pitch": 56,
          "onset": 271.5,
          "duration": 0.25,
          "velocity": 80
        },
        {
          "pitch": 58,
          "onset": 271.75,
          "duration": 0.25,
          "velocity": 80
        },
        {
          "pitch": 60,
          "onset": 272.0,
          "duration": 0.25,
          "velocity": 80
        },
        {
          "pitch": 58,
          "onset": 272.25,
          "duration": 0.25,
          "velocity": 80
        },
        {
          "pitch": 56,
          "onset": 272.5,
          "duration": 0.25,
          "velocity": 80
        },
        {
          "pitch": 60,
          "onset": 272.75,
          "duration": 0.25,
          "velocity": 80
        },
        {
          "pitch": 58,
          "onset": 273.0,
          "duration": 0.25,
          "velocity": 80
        },
        {
          "pitch": 56,
          "onset": 273.25,
          "duration": 0.25,
          "velocity": 80
        },
        {
          "pitch": 55,
          "onset": 273.5,
          "duration": 0.25,
          "velocity": 80
        },
        {
          "pitch": 58,
          "onset": 273.75,
          "duration": 0.25,
          "velocity": 80
        },
        {
          "pitch": 56,
          "onset": 274.0,
          "duration": 0.375,
          "velocity": 80
        },
        {
          "pitch": 53,
          "onset": 274.5,
          "duration": 0.375,
          "velocity": 80
        },
        {
          "pitch": 53,
          "onset": 275.5,
          "duration": 0.25,
          "velocity": 80
        },
        {
          "pitch": 55,
          "onset": 275.75,
          "duration": 0.25,
          "velocity": 80
        },
        {
          "pitch": 56,
          "onset": 276.0,
          "duration": 0.25,
          "velocity": 80
        },
        {
          "pitch": 55,
          "onset": 276.25,
          "duration": 0.25,
          "velocity": 80
        },
        {
          "pitch": 53,
          "onset": 276.5,
          "duration": 0.25,
          "velocity": 80
        },
        {
          "pitch": 51,
          "onset": 276.75,
          "duration": 0.25,
          "velocity": 80
        },
        {
          "pitch": 50,
          "onset": 277.0,
          "duration": 0.25,
          "velocity": 80
        },
        {
          "pitch": 51,
          "onset": 277.25,
          "duration": 0.25,
          "velocity": 80
        },
        {
          "pitch": 53,
          "onset": 277.5,
          "duration": 0.25,
          "velocity": 80
        },
        {
          "pitch": 55,
          "onset": 277.75,
          "duration": 0.25,
          "velocity": 80
        },
        {
          "pitch": 56,
          "onset": 278.0,
          "duration": 0.25,
          "velocity": 80
        },
        {
          "pitch": 58,
          "onset": 278.25,
          "duration": 0.25,
          "velocity": 80
        },
        {
          "pitch": 60,
          "onset": 278.5,
          "duration": 0.25,
          "velocity": 80
        },
        {
          "pitch": 62,
          "onset": 278.75,
          "duration": 0.25,
          "velocity": 80
        },
        {
          "pitch": 63,
          "onset": 279.0,
          "duration": 0.25,
          "velocity": 80
        },
        {
          "pitch": 62,
          "onset": 279.25,
          "duration": 0.25,
          "velocity": 80
        },
        {
          "pitch": 63,
          "onset": 279.5,
          "duration": 0.25,
          "velocity": 80
        },
        {
          "pitch": 62,
          "onset": 279.75,
          "duration": 0.25,
          "velocity": 80
        },
        {
          "pitch": 63,
          "onset": 280.0,
          "duration": 0.25,
          "velocity": 80
        },
        {
          "pitch": 62,
          "onset": 280.25,
          "duration": 0.25,
          "velocity": 80
        },
        {
          "pitch": 60,
          "onset": 280.5,
          "duration": 0.25,
          "velocity": 80
        },
        {
          "pitch": 58,
          "onset": 280.75,
          "duration": 0.25,
          "velocity": 80
        },
        {
          "pitch": 56,
          "onset": 281.0,
          "duration": 0.25,
          "velocity": 80
        },
        {
          "pitch": 55,
          "onset": 281.25,
          "duration": 0.25,
          "velocity": 80
        },
        {
          "pitch": 53,
          "onset": 281.5,
          "duration": 0.25,
          "velocity": 80
        },
        {
          "pitch": 51,
          "onset": 281.75,
          "duration": 0.25,
          "velocity": 80
        },
        {
          "pitch": 53,
          "onset": 282.0,
          "duration": 0.25,
          "velocity": 80
        },
        {
          "pitch": 51,
          "onset": 282.25,
          "duration": 0.25,
          "velocity": 80
        },
        {
          "pitch": 50,
          "onset": 282.5,
          "duration": 0.25,
          "velocity": 80
        },
        {
          "pitch": 48,
          "onset": 282.75,
          "duration": 0.25,
          "velocity": 83
        },
        {
          "pitch": 46,
          "onset": 283.0,
          "duration": 0.375,
          "velocity": 84
        },
        {
          "pitch": 53,
          "onset": 283.5,
          "duration": 0.375,
          "velocity": 88
        },
        {
          "pitch": 46,
          "onset": 284.0,
          "duration": 0.25,
          "velocity": 92
        },
        {
          "pitch": 48,
          "onset": 284.25,
          "duration": 0.25,
          "velocity": 94
        },
        {
          "pitch": 50,
          "onset": 284.5,
          "duration": 0.25,
          "velocity": 96
        },
        {
          "pitch": 51,
          "onset": 284.75,
          "duration": 0.25,
          "velocity": 98
        },
        {
          "pitch": 53,
          "onset": 285.0,
          "duration": 0.375,
          "velocity": 100
        },
        {
          "pitch": 55,
          "onset": 285.5,
          "duration": 0.375,
          "velocity": 100
        },
        {
          "pitch": 48,
          "onset": 286.0,
          "duration": 0.375,
          "velocity": 100
        },
        {
          "pitch": 56,
          "onset": 286.5,
          "duration": 0.375,
          "velocity": 100
        },
        {
          "pitch": 50,
          "onset": 287.0,
          "duration": 0.375,
          "velocity": 100
        },
        {
          "pitch": 56,
          "onset": 287.5,
          "duration": 0.375,
          "velocity": 100
        },
        {
          "pitch": 51,
          "onset": 288.0,
          "duration": 0.25,
          "velocity": 100
        },
        {
          "pitch": 53,
          "onset": 288.25,
          "duration": 0.25,
          "velocity": 100
        },
        {
          "pitch": 55,
          "onset": 288.5,
          "duration": 0.25,
          "velocity": 100
        },
        {
          "pitch": 56,
          "onset": 288.75,
          "duration": 0.25,
          "velocity": 100
        },
        {
          "pitch": 58,
          "onset": 289.0,
          "duration": 0.375,
          "velocity": 100
        },
        {
          "pitch": 60,
          "onset": 289.5,
          "duration": 0.375,
          "velocity": 100
        },
        {
          "pitch": 53,
          "onset": 290.0,
          "duration": 0.375,
          "velocity": 100
        },
        {
          "pitch": 61,
          "onset": 290.5,
          "duration": 0.375,
          "velocity": 100
        },
        {
          "pitch": 55,
          "onset": 291.0,
          "duration": 0.375,
          "velocity": 100
        },
        {
          "pitch": 61,
          "onset": 291.5,
          "duration": 0.375,
          "velocity": 100
        },
        {
          "pitch": 60,
          "onset": 292.0,
          "duration": 0.25,
          "velocity": 100
        },
        {
          "pitch": 58,
          "onset": 292.25,
          "duration": 0.25,
          "velocity": 100
        },
        {
          "pitch": 56,
          "onset": 292.5,
          "duration": 0.25,
          "velocity": 100
        },
        {
          "pitch": 55,
          "onset": 292.75,
          "duration": 0.25,
          "velocity": 100
        },
        {
          "pitch": 56,
          "onset": 293.0,
          "duration": 0.375,
          "velocity": 100
        },
        {
          "pitch": 60,
          "onset": 293.5,
          "duration": 0.375,
          "velocity": 100
        },
        {
          "pitch": 65,
          "onset": 294.0,
          "duration": 0.25,
          "velocity": 100
        },
        {
          "pitch": 63,
          "onset": 294.25,
          "duration": 0.25,
          "velocity": 100
        },
        {
          "pitch": 62,
          "onset": 294.5,
          "duration": 0.25,
          "velocity": 100
        },
        {
          "pitch": 63,
          "onset": 294.75,
          "duration": 0.25,
          "velocity": 100
        },
        {
          "pitch": 65,
          "onset": 295.0,
          "duration": 0.25,
          "velocity": 100
        },
        {
          "pitch": 63,
          "onset": 295.25,
          "duration": 0.25,
          "velocity": 100
        },
        {
          "pitch": 62,
          "onset": 295.5,
          "duration": 0.25,
          "velocity": 100
        },
        {
          "pitch": 60,
          "onset": 295.75,
          "duration": 0.25,
          "velocity": 100
        },
        {
          "pitch": 58,
          "onset": 296.0,
          "duration": 0.25,
          "velocity": 100
        },
        {
          "pitch": 56,
          "onset": 296.25,
          "duration": 0.25,
          "velocity": 100
        },
        {
          "pitch": 55,
          "onset": 296.5,
          "duration": 0.25,
          "velocity": 100
        },
        {
          "pitch": 53,
          "onset": 296.75,
          "duration": 0.25,
          "velocity": 100
        },
        {
          "pitch": 55,
          "onset": 297.0,
          "duration": 0.375,
          "velocity": 100
        },
        {
          "pitch": 58,
          "onset": 297.5,
          "duration": 0.375,
          "velocity": 100
        },
        {
          "pitch": 63,
          "onset": 298.0,
          "duration": 0.25,
          "velocity": 100
        },
        {
          "pitch": 62,
          "onset": 298.25,
          "duration": 0.25,
          "velocity": 100
        },
        {
          "pitch": 60,
          "onset": 298.5,
          "duration": 0.25,
          "velocity": 100
        },
        {
          "pitch": 62,
          "onset": 298.75,
          "duration": 0.25,
          "velocity": 100
        },
        {
          "pitch": 63,
          "onset": 299.0,
          "duration": 0.25,
          "velocity": 100
        },
        {
          "pitch": 62,
          "onset": 299.25,
          "duration": 0.25,
          "velocity": 100
        },
        {
          "pitch": 60,
          "onset": 299.5,
          "duration": 0.25,
          "velocity": 100
        },
        {
          "pitch": 58,
          "onset": 299.75,
          "duration": 0.25,
          "velocity": 100
        },
        {
          "pitch": 56,
          "onset": 300.0,
          "duration": 0.25,
          "velocity": 100
        },
        {
          "pitch": 55,
          "onset": 300.25,
          "duration": 0.25,
          "velocity": 100
        },
        {
          "pitch": 53,
          "onset": 300.5,
          "duration": 0.25,
          "velocity": 100
        },
        {
          "pitch": 55,
          "onset": 300.75,
          "duration": 0.25,
          "velocity": 100
        },
        {
          "pitch": 56,
          "onset": 301.0,
          "duration": 0.25,
          "velocity": 100
        },
        {
          "pitch": 55,
          "onset": 301.25,
          "duration": 0.25,
          "velocity": 100
        },
        {
          "pitch": 53,
          "onset": 301.5,
          "duration": 0.25,
          "velocity": 100
        },
        {
          "pitch": 51,
          "onset": 301.75,
          "duration": 0.25,
          "velocity": 100
        },
        {
          "pitch": 50,
          "onset": 302.0,
          "duration": 0.25,
          "velocity": 100
        },
        {
          "pitch": 48,
          "onset": 302.25,
          "duration": 0.25,
          "velocity": 100
        },
        {
          "pitch": 46,
          "onset": 302.5,
          "duration": 0.25,
          "velocity": 100
        },
        {
          "pitch": 48,
          "onset": 302.75,
          "duration": 0.25,
          "velocity": 100
        },
        {
          "pitch": 50,
          "onset": 303.0,
          "duration": 0.25,
          "velocity": 100
        },
        {
          "pitch": 48,
          "onset": 303.25,
          "duration": 0.25,
          "velocity": 100
        },
        {
          "pitch": 46,
          "onset": 303.5,
          "duration": 0.25,
          "velocity": 100
        },
        {
          "pitch": 44,
          "onset": 303.75,
          "duration": 0.25,
          "velocity": 100
        },
        {
          "pitch": 46,
          "onset": 304.25,
          "duration": 0.25,
          "velocity": 100
        },
        {
          "pitch": 48,
          "onset": 304.5,
          "duration": 0.25,
          "velocity": 100
        },
        {
          "pitch": 50,
          "onset": 304.75,
          "duration": 0.25,
          "velocity": 100
        },
        {
          "pitch": 51,
          "onset": 305.0,
          "duration": 0.375,
          "velocity": 100
        },
        {
          "pitch": 61,
          "onset": 305.5,
          "duration": 0.375,
          "velocity": 100
        },
        {
          "pitch": 61,
          "onset": 306.5,
          "duration": 0.375,
          "velocity": 100
        },
        {
          "pitch": 60,
          "onset": 307.0,
          "duration": 0.25,
          "velocity": 100
        },
        {
          "pitch": 58,
          "onset": 307.25,
          "duration": 0.25,
          "velocity": 100
        },
        {
          "pitch": 56,
          "onset": 307.5,
          "duration": 0.25,
          "velocity": 100
        },
        {
          "pitch": 55,
          "onset": 307.75,
          "duration": 0.25,
          "velocity": 100
        },
        {
          "pitch": 56,
          "onset": 308.0,
          "duration": 0.25,
          "velocity": 100
        },
        {
          "pitch": 55,
          "onset": 308.25,
          "duration": 0.25,
          "velocity": 100
        },
        {
          "pitch": 53,
          "onset": 308.5,
          "duration": 0.25,
          "velocity": 100
        },
        {
          "pitch": 51,
          "onset": 308.75,
          "duration": 0.25,
          "velocity": 100
        },
        {
          "pitch": 50,
          "onset": 309.0,
          "duration": 0.375,
          "velocity": 100
        },
        {
          "pitch": 60,
          "onset": 309.5,
          "duration": 0.375,
          "velocity": 100
        },
        {
          "pitch": 60,
          "onset": 310.5,
          "duration": 0.375,
          "velocity": 100
        },
        {
          "pitch": 58,
          "onset": 311.0,
          "duration": 0.25,
          "velocity": 100
        },
        {
          "pitch": 56,
          "onset": 311.25,
          "duration": 0.25,
          "velocity": 100
        },
        {
          "pitch": 55,
          "onset": 311.5,
          "duration": 0.25,
          "velocity": 100
        },
        {
          "pitch": 53,
          "onset": 311.75,
          "duration": 0.25,
          "velocity": 100
        },
        {
          "pitch": 55,
          "onset": 312.0,
          "duration": 0.25,
          "velocity": 100
        },
        {
          "pitch": 53,
          "onset": 312.25,
          "duration": 0.25,
          "velocity": 100
        },
        {
          "pitch": 51,
          "onset": 312.5,
          "duration": 0.25,
          "velocity": 100
        },
        {
          "pitch": 50,
          "onset": 312.75,
          "duration": 0.25,
          "velocity": 100
        },
        {
          "pitch": 48,
          "onset": 313.0,
          "duration": 0.25,
          "velocity": 100
        },
        {
          "pitch": 46,
          "onset": 313.25,
          "duration": 0.25,
          "velocity": 100
        },
        {
          "pitch": 44,
          "onset": 313.5,
          "duration": 0.25,
          "velocity": 100
        },
        {
          "pitch": 43,
          "onset": 313.75,
          "duration": 0.25,
          "velocity": 100
        },
        {
          "pitch": 56,
          "onset": 314.25,
          "duration": 0.25,
          "velocity": 100
        },
        {
          "pitch": 55,
          "onset": 314.5,
          "duration": 0.25,
          "velocity": 100
        },
        {
          "pitch": 53,
          "onset": 314.75,
          "duration": 0.25,
          "velocity": 100
        },
        {
          "pitch": 56,
          "onset": 315.25,
          "duration": 0.25,
          "velocity": 100
        },
        {
          "pitch": 55,
          "onset": 315.5,
          "duration": 0.25,
          "velocity": 100
        },
        {
          "pitch": 53,
          "onset": 315.75,
          "duration": 0.25,
          "velocity": 100
        },
        {
          "pitch": 55,
          "onset": 316.25,
          "duration": 0.25,
          "velocity": 100
        },
        {
          "pitch": 53,
          "onset": 316.5,
          "duration": 0.25,
          "velocity": 100
        },
        {
          "pitch": 51,
          "onset": 316.75,
          "duration": 0.25,
          "velocity": 100
        },
        {
          "pitch": 54,
          "onset": 317.25,
          "duration": 0.25,
          "velocity": 100
        },
        {
          "pitch": 53,
          "onset": 317.5,
          "duration": 0.25,
          "velocity": 100
        },
        {
          "pitch": 51,
          "onset": 317.75,
          "duration": 0.25,
          "velocity": 100
        },
        {
          "pitch": 53,
          "onset": 318.25,
          "duration": 0.25,
          "velocity": 100
        },
        {
          "pitch": 60,
          "onset": 318.5,
          "duration": 1.0,
          "velocity": 100
        },
        {
          "pitch": 58,
          "onset": 319.5,
          "duration": 0.25,
          "velocity": 100
        },
        {
          "pitch": 56,
          "onset": 319.75,
          "duration": 0.25,
          "velocity": 100
        },
        {
          "pitch": 55,
          "onset": 320.0,
          "duration": 0.25,
          "velocity": 100
        },
        {
          "pitch": 53,
          "onset": 320.25,
          "duration": 0.25,
          "velocity": 100
        },
        {
          "pitch": 51,
          "onset": 320.5,
          "duration": 0.25,
          "velocity": 100
        },
        {
          "pitch": 53,
          "onset": 320.75,
          "duration": 0.25,
          "velocity": 100
        },
        {
          "pitch": 62,
          "onset": 321.5,
          "duration": 0.5,
          "velocity": 100
        },
        {
          "pitch": 55,
          "onset": 322.25,
          "duration": 3.75,
          "velocity": 100
        },
        {
          "pitch": 63,
          "onset": 322.5,
          "duration": 3.5,
          "velocity": 100
        },
        {
          "pitch": 51,
          "onset": 328.25,
          "duration": 0.25,
          "velocity": 1
        }
      ]
    },
    {
      "role": "solo_1",
      "notes": [
        {
          "pitch": 51,
          "onset": 0.0,
          "duration": 0.25,
          "velocity": 1
        },
        {
          "pitch": 44,
          "onset": 14.0,
          "duration": 0.75,
          "velocity": 80
        },
        {
          "pitch": 41,
          "onset": 16.0,
          "duration": 0.375,
          "velocity": 80
        },
        {
          "pitch": 43,
          "onset": 18.0,
          "duration": 0.375,
          "velocity": 80
        },
        {
          "pitch": 39,
          "onset": 20.0,
          "duration": 0.375,
          "velocity": 80
        },
        {
          "pitch": 41,
          "onset": 22.0,
          "duration": 0.375,
          "velocity": 80
        },
        {
          "pitch": 50,
          "onset": 23.0,
          "duration": 0.375,
          "velocity": 80
        },
        {
          "pitch": 39,
          "onset": 26.0,
          "duration": 0.5,
          "velocity": 80
        },
        {
          "pitch": 45,
          "onset": 50.0,
          "duration": 0.375,
          "velocity": 80
        },
        {
          "pitch": 39,
          "onset": 58.0,
          "duration": 0.375,
          "velocity": 80
        },
        {
          "pitch": 44,
          "onset": 78.0,
          "duration": 0.75,
          "velocity": 80
        },
        {
          "pitch": 41,
          "onset": 80.0,
          "duration": 0.375,
          "velocity": 80
        },
        {
          "pitch": 43,
          "onset": 82.0,
          "duration": 0.375,
          "velocity": 80
        },
        {
          "pitch": 39,
          "onset": 84.0,
          "duration": 0.375,
          "velocity": 80
        },
        {
          "pitch": 41,
          "onset": 86.0,
          "duration": 0.375,
          "velocity": 80
        },
        {
          "pitch": 50,
          "onset": 87.0,
          "duration": 0.375,
          "velocity": 80
        },
        {
          "pitch": 39,
          "onset": 90.0,
          "duration": 0.5,
          "velocity": 80
        },
        {
          "pitch": 45,
          "onset": 114.0,
          "duration": 0.375,
          "velocity": 80
        },
        {
          "pitch": 39,
          "onset": 122.0,
          "duration": 0.375,
          "velocity": 80
        },
        {
          "pitch": 46,
          "onset": 135.0,
          "duration": 0.25,
          "velocity": 80
        },
        {
          "pitch": 44,
          "onset": 135.25,
          "duration": 0.25,
          "velocity": 80
        },
        {
          "pitch": 43,
          "onset": 135.5,
          "duration": 0.25,
          "velocity": 80
        },
        {
          "pitch": 41,
          "onset": 135.75,
          "duration": 0.25,
          "velocity": 80
        },
        {
          "pitch": 43,
          "onset": 136.0,
          "duration": 0.375,
          "velocity": 80
        },
        {
          "pitch": 47,
          "onset": 151.0,
          "duration": 0.25,
          "velocity": 86
        },
        {
          "pitch": 45,
          "onset": 151.25,
          "duration": 0.25,
          "velocity": 90
        },
        {
          "pitch": 43,
          "onset": 151.5,
          "duration": 0.25,
          "velocity": 93
        },
        {
          "pitch": 41,
          "onset": 151.75,
          "duration": 0.25,
          "velocity": 97
        },
        {
          "pitch": 39,
          "onset": 152.0,
          "duration": 0.375,
          "velocity": 100
        },
        {
          "pitch": 43,
          "onset": 153.0,
          "duration": 0.375,
          "velocity": 100
        },
        {
          "pitch": 36,
          "onset": 154.0,
          "duration": 0.5,
          "velocity": 100
        },
        {
          "pitch": 43,
          "onset": 154.0,
          "duration": 0.5,
          "velocity": 100
        },
        {
          "pitch": 43,
          "onset": 171.0,
          "duration": 0.375,
          "velocity": 80
        },
        {
          "pitch": 41,
          "onset": 179.0,
          "duration": 0.375,
          "velocity": 80
        },
        {
          "pitch": 43,
          "onset": 208.0,
          "duration": 0.375,
          "velocity": 100
        },
        {
          "pitch": 44,
          "onset": 210.0,
          "duration": 0.375,
          "velocity": 100
        },
        {
          "pitch": 43,
          "onset": 214.0,
          "duration": 0.375,
          "velocity": 100
        },
        {
          "pitch": 41,
          "onset": 218.0,
          "duration": 0.375,
          "velocity": 100
        },
        {
          "pitch": 46,
          "onset": 219.0,
          "duration": 0.375,
          "velocity": 100
        },
        {
          "pitch": 39,
          "onset": 220.0,
          "duration": 0.375,
          "velocity": 100
        },
        {
          "pitch": 45,
          "onset": 221.0,
          "duration": 0.375,
          "velocity": 100
        },
        {
          "pitch": 50,
          "onset": 222.0,
          "duration": 0.375,
          "velocity": 100
        },
        {
          "pitch": 46,
          "onset": 225.0,
          "duration": 0.375,
          "velocity": 100
        },
        {
          "pitch": 39,
          "onset": 226.0,
          "duration": 0.5,
          "velocity": 100
        },
        {
          "pitch": 46,
          "onset": 226.0,
          "duration": 0.5,
          "velocity": 100
        },
        {
          "pitch": 46,
          "onset": 231.0,
          "duration": 0.25,
          "velocity": 80
        },
        {
          "pitch": 44,
          "onset": 231.25,
          "duration": 0.25,
          "velocity": 80
        },
        {
          "pitch": 43,
          "onset": 231.5,
          "duration": 0.25,
          "velocity": 80
        },
        {
          "pitch": 41,
          "onset": 231.75,
          "duration": 0.25,
          "velocity": 80
        },
        {
          "pitch": 43,
          "onset": 232.0,
          "duration": 0.375,
          "velocity": 80
        },
        {
          "pitch": 47,
          "onset": 247.0,
          "duration": 0.25,
          "velocity": 86
        },
        {
          "pitch": 45,
          "onset": 247.25,
          "duration": 0.25,
          "velocity": 90
        },
        {
          "pitch": 43,
          "onset": 247.5,
          "duration": 0.25,
          "velocity": 93
        },
        {
          "pitch": 41,
          "onset": 247.75,
          "duration": 0.25,
          "velocity": 97
        },
        {
          "pitch": 39,
          "onset": 248.0,
          "duration": 0.375,
          "velocity": 100
        },
        {
          "pitch": 43,
          "onset": 249.0,
          "duration": 0.375,
          "velocity": 100
        },
        {
          "pitch": 36,
          "onset": 250.0,
          "duration": 0.5,
          "velocity": 100
        },
        {
          "pitch": 43,
          "onset": 250.0,
          "duration": 0.5,
          "velocity": 100
        },
        {
          "pitch": 43,
          "onset": 267.0,
          "duration": 0.375,
          "velocity": 80
        },
        {
          "pitch": 41,
          "onset": 275.0,
          "duration": 0.375,
          "velocity": 80
        },
        {
          "pitch": 43,
          "onset": 304.0,
          "duration": 0.375,
          "velocity": 100
        },
        {
          "pitch": 44,
          "onset": 306.0,
          "duration": 0.375,
          "velocity": 100
        },
        {
          "pitch": 43,
          "onset": 310.0,
          "duration": 0.375,
          "velocity": 100
        },
        {
          "pitch": 41,
          "onset": 314.0,
          "duration": 0.375,
          "velocity": 100
        },
        {
          "pitch": 46,
          "onset": 315.0,
          "duration": 0.375,
          "velocity": 100
        },
        {
          "pitch": 39,
          "onset": 316.0,
          "duration": 0.375,
          "velocity": 100
        },
        {
          "pitch": 45,
          "onset": 317.0,
          "duration": 0.375,
          "velocity": 100
        },
        {
          "pitch": 50,
          "onset": 318.0,
          "duration": 0.375,
          "velocity": 100
        },
        {
          "pitch": 46,
          "onset": 321.0,
          "duration": 0.375,
          "velocity": 100
        },
        {
          "pitch": 39,
          "onset": 322.25,
          "duration": 0.75,
          "velocity": 100
        },
        {
          "pitch": 46,
          "onset": 322.25,
          "duration": 0.75,
          "velocity": 100
        }
      ]
    }
  ]
}