{
  "bwv": 1011,
  "category": "solo_cello_suite",
  "instrument": "cello",
  "form": "",
  "movement": 2,
  "ticks_per_beat": 384,
  "duration_seconds": 225.8,
  "tempos": [
    {
      "tick": 0,
      "bpm": 80
    },
    {
      "tick": 48,
      "bpm": 240
    },
    {
      "tick": 1288,
      "bpm": 80
    },
    {
      "tick": 2688,
      "bpm": 75
    },
    {
      "tick": 3072,
      "bpm": 80
    },
    {
      "tick": 4224,
      "bpm": 75
    },
    {
      "tick": 4512,
      "bpm": 70
    },
    {
      "tick": 4608,
      "bpm": 80
    },
    {
      "tick": 7296,
      "bpm": 80
    },
    {
      "tick": 7488,
      "bpm": 75
    },
    {
      "tick": 7584,
      "bpm": 70
    },
    {
      "tick": 7680,
      "bpm": 80
    },
    {
      "tick": 8448,
      "bpm": 80
    },
    {
      "tick": 8832,
      "bpm": 75
    },
    {
      "tick": 9024,
      "bpm": 70
    },
    {
      "tick": 9120,
      "bpm": 70
    },
    {
      "tick": 9216,
      "bpm": 80
    },
    {
      "tick": 13440,
      "bpm": 75
    },
    {
      "tick": 13728,
      "bpm": 70
    },
    {
      "tick": 13824,
      "bpm": 80
    },
    {
      "tick": 14592,
      "bpm": 80
    },
    {
      "tick": 14976,
      "bpm": 75
    },
    {
      "tick": 15168,
      "bpm": 70
    },
    {
      "tick": 15264,
      "bpm": 70
    },
    {
      "tick": 15360,
      "bpm": 80
    },
    {
      "tick": 16128,
      "bpm": 80
    },
    {
      "tick": 16512,
      "bpm": 75
    },
    {
      "tick": 16608,
      "bpm": 70
    },
    {
      "tick": 16704,
      "bpm": 60
    },
    {
      "tick": 16896,
      "bpm": 80
    },
    {
      "tick": 18048,
      "bpm": 75
    },
    {
      "tick": 18240,
      "bpm": 70
    },
    {
      "tick": 18336,
      "bpm": 70
    },
    {
      "tick": 18432,
      "bpm": 80
    },
    {
      "tick": 21120,
      "bpm": 75
    },
    {
      "tick": 21312,
      "bpm": 75
    },
    {
      "tick": 21408,
      "bpm": 70
    },
    {
      "tick": 21504,
      "bpm": 75
    },
    {
      "tick": 22272,
      "bpm": 80
    },
    {
      "tick": 27648,
      "bpm": 75
    },
    {
      "tick": 28032,
      "bpm": 70
    },
    {
      "tick": 28320,
      "bpm": 60
    },
    {
      "tick": 28992,
      "bpm": 80
    },
    {
      "tick": 29952,
      "bpm": 80
    },
    {
      "tick": 30336,
      "bpm": 70
    },
    {
      "tick": 30624,
      "bpm": 65
    },
    {
      "tick": 30720,
      "bpm": 80
    },
    {
      "tick": 31488,
      "bpm": 80
    },
    {
      "tick": 31872,
      "bpm": 70
    },
    {
      "tick": 32160,
      "bpm": 65
    },
    {
      "tick": 32256,
      "bpm": 80
    },
    {
      "tick": 34560,
      "bpm": 80
    },
    {
      "tick": 34944,
      "bpm": 75
    },
    {
      "tick": 35136,
      "bpm": 70
    },
    {
      "tick": 35232,
      "bpm": 65
    },
    {
      "tick": 35328,
      "bpm": 80
    },
    {
      "tick": 36096,
      "bpm": 80
    },
    {
      "tick": 36576,
      "bpm": 75
    },
    {
      "tick": 36672,
      "bpm": 70
    },
    {
      "tick": 36768,
      "bpm": 65
    },
    {
      "tick": 36864,
      "bpm": 80
    },
    {
      "tick": 38016,
      "bpm": 75
    },
    {
      "tick": 38304,
      "bpm": 70
    },
    {
      "tick": 38400,
      "bpm": 80
    },
    {
      "tick": 39552,
      "bpm": 80
    },
    {
      "tick": 39744,
      "bpm": 75
    },
    {
      "tick": 39840,
      "bpm": 70
    },
    {
      "tick": 39936,
      "bpm": 80
    },
    {
      "tick": 40704,
      "bpm": 80
    },
    {
      "tick": 41088,
      "bpm": 75
    },
    {
      "tick": 41376,
      "bpm": 70
    },
    {
      "tick": 41472,
      "bpm": 80
    },
    {
      "tick": 42240,
      "bpm": 80
    },
    {
      "tick": 42624,
      "bpm": 75
    },
    {
      "tick": 42720,
      "bpm": 75
    },
    {
      "tick": 42816,
      "bpm": 70
    },
    {
      "tick": 42912,
      "bpm": 65
    },
    {
      "tick": 43008,
      "bpm": 80
    },
    {
      "tick": 43776,
      "bpm": 80
    },
    {
      "tick": 44160,
      "bpm": 75
    },
    {
      "tick": 44256,
      "bpm": 75
    },
    {
      "tick": 44352,
      "bpm": 70
    },
    {
      "tick": 44448,
      "bpm": 65
    },
    {
      "tick": 44544,
      "bpm": 75
    },
    {
      "tick": 45792,
      "bpm": 75
    },
    {
      "tick": 45888,
      "bpm": 70
    },
    {
      "tick": 45984,
      "bpm": 60
    },
    {
      "tick": 46080,
      "bpm": 80
    },
    {
      "tick": 48384,
      "bpm": 80
    },
    {
      "tick": 48768,
      "bpm": 75
    },
    {
      "tick": 48960,
      "bpm": 70
    },
    {
      "tick": 49056,
      "bpm": 65
    },
    {
      "tick": 49152,
      "bpm": 75
    },
    {
      "tick": 50400,
      "bpm": 70
    },
    {
      "tick": 50496,
      "bpm": 70
    },
    {
      "tick": 50688,
      "bpm": 80
    },
    {
      "tick": 55296,
      "bpm": 75
    },
    {
      "tick": 55680,
      "bpm": 70
    },
    {
      "tick": 55968,
      "bpm": 60
    },
    {
      "tick": 56640,
      "bpm": 80
    },
    {
      "tick": 66816,
      "bpm": 80
    },
    {
      "tick": 67008,
      "bpm": 75
    },
    {
      "tick": 67200,
      "bpm": 70
    },
    {
      "tick": 67392,
      "bpm": 65
    },
    {
      "tick": 67488,
      "bpm": 60
    },
    {
      "tick": 67584,
      "bpm": 75
    },
    {
      "tick": 69120,
      "bpm": 80
    },
    {
      "tick": 78336,
      "bpm": 80
    },
    {
      "tick": 79488,
      "bpm": 75
    },
    {
      "tick": 79584,
      "bpm": 75
    },
    {
      "tick": 79680,
      "bpm": 70
    },
    {
      "tick": 79776,
      "bpm": 65
    },
    {
      "tick": 79872,
      "bpm": 80
    },
    {
      "tick": 82944,
      "bpm": 80
    },
    {
      "tick": 83328,
      "bpm": 75
    },
    {
      "tick": 84288,
      "bpm": 80
    },
    {
      "tick": 91776,
      "bpm": 75
    },
    {
      "tick": 92160,
      "bpm": 80
    },
    {
      "tick": 93312,
      "bpm": 75
    },
    {
      "tick": 93696,
      "bpm": 80
    },
    {
      "tick": 94464,
      "bpm": 80
    },
    {
      "tick": 94848,
      "bpm": 75
    },
    {
      "tick": 95136,
      "bpm": 70
    },
    {
      "tick": 95232,
      "bpm": 75
    },
    {
      "tick": 96768,
      "bpm": 80
    },
    {
      "tick": 104064,
      "bpm": 75
    },
    {
      "tick": 104448,
      "bpm": 80
    },
    {
      "tick": 105216,
      "bpm": 80
    },
    {
      "tick": 105600,
      "bpm": 75
    },
    {
      "tick": 105696,
      "bpm": 70
    },
    {
      "tick": 105792,
      "bpm": 65
    },
    {
      "tick": 105984,
      "bpm": 80
    },
    {
      "tick": 106752,
      "bpm": 80
    },
    {
      "tick": 107136,
      "bpm": 75
    },
    {
      "tick": 107232,
      "bpm": 70
    },
    {
      "tick": 107328,
      "bpm": 70
    },
    {
      "tick": 107424,
      "bpm": 60
    },
    {
      "tick": 107520,
      "bpm": 80
    },
    {
      "tick": 109440,
      "bpm": 75
    },
    {
      "tick": 109824,
      "bpm": 75
    },
    {
      "tick": 110400,
      "bpm": 70
    }
  ],
  "time_signatures": [
    {
      "tick": 0,
      "numerator": 4,
      "denominator": 4
    }
  ],
  "track_type": "solo_string",
  "voice_count": 2,
  "total_notes": 899,
  "tracks": [
    {
      "role": "solo_0",
      "notes": [
        {
          "pitch": 48,
          "onset": 0.0,
          "duration": 0.25,
          "velocity": 1
        },
        {
          "pitch": 60,
          "onset": 3.5,
          "duration": 0.5,
          "velocity": 100
        },
        {
          "pitch": 51,
          "onset": 4.0,
          "duration": 1.0,
          "velocity": 100
        },
        {
          "pitch": 60,
          "onset": 4.25,
          "duration": 1.0,
          "velocity": 100
        },
        {
          "pitch": 58,
          "onset": 5.25,
          "duration": 0.25,
          "velocity": 100
        },
        {
          "pitch": 56,
          "onset": 5.5,
          "duration": 0.25,
          "velocity": 100
        },
        {
          "pitch": 55,
          "onset": 5.75,
          "duration": 0.25,
          "velocity": 100
        },
        {
          "pitch": 56,
          "onset": 6.0,
          "duration": 0.75,
          "velocity": 100
        },
        {
          "pitch": 53,
          "onset": 6.75,
          "duration": 0.25,
          "velocity": 100
        },
        {
          "pitch": 55,
          "onset": 7.0,
          "duration": 0.75,
          "velocity": 100
        },
        {
          "pitch": 50,
          "onset": 7.75,
          "duration": 0.25,
          "velocity": 100
        },
        {
          "pitch": 51,
          "onset": 8.0,
          "duration": 1.0,
          "velocity": 100
        },
        {
          "pitch": 44,
          "onset": 10.0,
          "duration": 0.75,
          "velocity": 100
        },
        {
          "pitch": 43,
          "onset": 11.0,
          "duration": 0.75,
          "velocity": 100
        },
        {
          "pitch": 50,
          "onset": 11.75,
          "duration": 0.25,
          "velocity": 100
        },
        {
          "pitch": 43,
          "onset": 12.0,
          "duration": 0.5,
          "velocity": 100
        },
        {
          "pitch": 50,
          "onset": 12.25,
          "duration": 0.5,
          "velocity": 100
        },
        {
          "pitch": 48,
          "onset": 12.75,
          "duration": 0.125,
          "velocity": 100
        },
        {
          "pitch": 47,
          "onset": 12.875,
          "duration": 0.125,
          "velocity": 100
        },
        {
          "pitch": 48,
          "onset": 13.0,
          "duration": 0.75,
          "velocity": 100
        },
        {
          "pitch": 55,
          "onset": 13.75,
          "duration": 0.25,
          "velocity": 100
        },
        {
          "pitch": 44,
          "onset": 14.0,
          "duration": 0.75,
          "velocity": 100
        },
        {
          "pitch": 55,
          "onset": 14.75,
          "duration": 0.25,
          "velocity": 100
        },
        {
          "pitch": 53,
          "onset": 15.0,
          "duration": 0.25,
          "velocity": 100
        },
        {
          "pitch": 51,
          "onset": 15.25,
          "duration": 0.25,
          "velocity": 100
        },
        {
          "pitch": 50,
          "onset": 15.5,
          "duration": 0.25,
          "velocity": 100
        },
        {
          "pitch": 48,
          "onset": 15.75,
          "duration": 0.25,
          "velocity": 100
        },
        {
          "pitch": 47,
          "onset": 16.0,
          "duration": 0.75,
          "velocity": 100
        },
        {
          "pitch": 44,
          "onset": 16.75,
          "duration": 0.25,
          "velocity": 100
        },
        {
          "pitch": 43,
          "onset": 17.0,
          "duration": 0.25,
          "velocity": 100
        },
        {
          "pitch": 47,
          "onset": 17.25,
          "duration": 0.25,
          "velocity": 100
        },
        {
          "pitch": 50,
          "onset": 17.5,
          "duration": 0.25,
          "velocity": 100
        },
        {
          "pitch": 53,
          "onset": 17.75,
          "duration": 0.25,
          "velocity": 100
        },
        {
          "pitch": 56,
          "onset": 18.0,
          "duration": 0.75,
          "velocity": 100
        },
        {
          "pitch": 55,
          "onset": 18.75,
          "duration": 0.25,
          "velocity": 100
        },
        {
          "pitch": 53,
          "onset": 19.0,
          "duration": 0.25,
          "velocity": 100
        },
        {
          "pitch": 51,
          "onset": 19.25,
          "duration": 0.25,
          "velocity": 100
        },
        {
          "pitch": 53,
          "onset": 19.5,
          "duration": 0.25,
          "velocity": 100
        },
        {
          "pitch": 50,
          "onset": 19.75,
          "duration": 0.25,
          "velocity": 100
        },
        {
          "pitch": 43,
          "onset": 20.0,
          "duration": 0.75,
          "velocity": 100
        },
        {
          "pitch": 51,
          "onset": 20.25,
          "duration": 0.5,
          "velocity": 100
        },
        {
          "pitch": 50,
          "onset": 20.75,
          "duration": 0.25,
          "velocity": 80
        },
        {
          "pitch": 48,
          "onset": 21.0,
          "duration": 0.25,
          "velocity": 80
        },
        {
          "pitch": 47,
          "onset": 21.25,
          "duration": 0.25,
          "velocity": 80
        },
        {
          "pitch": 48,
          "onset": 21.5,
          "duration": 0.25,
          "velocity": 80
        },
        {
          "pitch": 50,
          "onset": 21.75,
          "duration": 0.25,
          "velocity": 80
        },
        {
          "pitch": 51,
          "onset": 22.0,
          "duration": 0.25,
          "velocity": 80
        },
        {
          "pitch": 50,
          "onset": 22.25,
          "duration": 0.25,
          "velocity": 82
        },
        {
          "pitch": 51,
          "onset": 22.5,
          "duration": 0.25,
          "velocity": 85
        },
        {
          "pitch": 53,
          "onset": 22.75,
          "duration": 0.25,
          "velocity": 88
        },
        {
          "pitch": 55,
          "onset": 23.0,
          "duration": 0.25,
          "velocity": 91
        },
        {
          "pitch": 53,
          "onset": 23.25,
          "duration": 0.25,
          "velocity": 94
        },
        {
          "pitch": 55,
          "onset": 23.5,
          "duration": 0.25,
          "velocity": 97
        },
        {
          "pitch": 56,
          "onset": 23.75,
          "duration": 0.25,
          "velocity": 100
        },
        {
          "pitch": 51,
          "onset": 24.0,
          "duration": 1.0,
          "velocity": 100
        },
        {
          "pitch": 58,
          "onset": 24.25,
          "duration": 1.0,
          "velocity": 100
        },
        {
          "pitch": 56,
          "onset": 25.25,
          "duration": 0.25,
          "velocity": 80
        },
        {
          "pitch": 55,
          "onset": 25.5,
          "duration": 0.25,
          "velocity": 80
        },
        {
          "pitch": 53,
          "onset": 25.75,
          "duration": 0.25,
          "velocity": 80
        },
        {
          "pitch": 55,
          "onset": 26.0,
          "duration": 0.75,
          "velocity": 80
        },
        {
          "pitch": 53,
          "onset": 26.75,
          "duration": 0.125,
          "velocity": 80
        },
        {
          "pitch": 51,
          "onset": 26.875,
          "duration": 0.125,
          "velocity": 80
        },
        {
          "pitch": 61,
          "onset": 27.0,
          "duration": 0.75,
          "velocity": 80
        },
        {
          "pitch": 58,
          "onset": 27.75,
          "duration": 0.25,
          "velocity": 80
        },
        {
          "pitch": 51,
          "onset": 28.0,
          "duration": 1.0,
          "velocity": 100
        },
        {
          "pitch": 60,
          "onset": 28.25,
          "duration": 1.0,
          "velocity": 100
        },
        {
          "pitch": 58,
          "onset": 29.25,
          "duration": 0.25,
          "velocity": 80
        },
        {
          "pitch": 56,
          "onset": 29.5,
          "duration": 0.25,
          "velocity": 80
        },
        {
          "pitch": 55,
          "onset": 29.75,
          "duration": 0.25,
          "velocity": 80
        },
        {
          "pitch": 56,
          "onset": 30.0,
          "duration": 0.75,
          "velocity": 80
        },
        {
          "pitch": 60,
          "onset": 30.75,
          "duration": 0.25,
          "velocity": 80
        },
        {
          "pitch": 52,
          "onset": 31.0,
          "duration": 0.0938,
          "velocity": 80
        },
        {
          "pitch": 53,
          "onset": 31.0938,
          "duration": 0.0938,
          "velocity": 80
        },
        {
          "pitch": 52,
          "onset": 31.1562,
          "duration": 0.0938,
          "velocity": 80
        },
        {
          "pitch": 53,
          "onset": 31.25,
          "duration": 0.0938,
          "velocity": 80
        },
        {
          "pitch": 52,
          "onset": 31.3438,
          "duration": 0.0938,
          "velocity": 80
        },
        {
          "pitch": 53,
          "onset": 31.4062,
          "duration": 0.0938,
          "velocity": 80
        },
        {
          "pitch": 52,
          "onset": 31.5,
          "duration": 0.25,
          "velocity": 80
        },
        {
          "pitch": 53,
          "onset": 31.75,
          "duration": 0.25,
          "velocity": 80
        },
        {
          "pitch": 48,
          "onset": 32.0,
          "duration": 1.0,
          "velocity": 100
        },
        {
          "pitch": 55,
          "onset": 32.25,
          "duration": 1.0,
          "velocity": 100
        },
        {
          "pitch": 53,
          "onset": 33.25,
          "duration": 0.25,
          "velocity": 80
        },
        {
          "pitch": 52,
          "onset": 33.5,
          "duration": 0.25,
          "velocity": 80
        },
        {
          "pitch": 53,
          "onset": 33.75,
          "duration": 0.125,
          "velocity": 80
        },
        {
          "pitch": 55,
          "onset": 33.875,
          "duration": 0.125,
          "velocity": 80
        },
        {
          "pitch": 48,
          "onset": 34.0,
          "duration": 0.75,
          "velocity": 80
        },
        {
          "pitch": 58,
          "onset": 34.75,
          "duration": 0.25,
          "velocity": 80
        },
        {
          "pitch": 56,
          "onset": 35.0,
          "duration": 0.75,
          "velocity": 80
        },
        {
          "pitch": 58,
          "onset": 35.75,
          "duration": 0.125,
          "velocity": 80
        },
        {
          "pitch": 55,
          "onset": 35.875,
          "duration": 0.125,
          "velocity": 80
        },
        {
          "pitch": 53,
          "onset": 36.0,
          "duration": 1.0,
          "velocity": 100
        },
        {
          "pitch": 56,
          "onset": 36.25,
          "duration": 1.25,
          "velocity": 100
        },
        {
          "pitch": 60,
          "onset": 37.5,
          "duration": 0.25,
          "velocity": 80
        },
        {
          "pitch": 58,
          "onset": 37.75,
          "duration": 0.25,
          "velocity": 80
        },
        {
          "pitch": 56,
          "onset": 38.0,
          "duration": 0.25,
          "velocity": 80
        },
        {
          "pitch": 55,
          "onset": 38.25,
          "duration": 0.25,
          "velocity": 80
        },
        {
          "pitch": 53,
          "onset": 38.5,
          "duration": 0.25,
          "velocity": 80
        },
        {
          "pitch": 51,
          "onset": 38.75,
          "duration": 0.25,
          "velocity": 80
        },
        {
          "pitch": 50,
          "onset": 39.0,
          "duration": 0.25,
          "velocity": 80
        },
        {
          "pitch": 51,
          "onset": 39.25,
          "duration": 0.25,
          "velocity": 80
        },
        {
          "pitch": 53,
          "onset": 39.5,
          "duration": 0.25,
          "velocity": 80
        },
        {
          "pitch": 50,
          "onset": 39.75,
          "duration": 0.25,
          "velocity": 80
        },
        {
          "pitch": 44,
          "onset": 40.0,
          "duration": 1.25,
          "velocity": 80
        },
        {
          "pitch": 53,
          "onset": 41.25,
          "duration": 0.25,
          "velocity": 80
        },
        {
          "pitch": 51,
          "onset": 41.5,
          "duration": 0.25,
          "velocity": 80
        },
        {
          "pitch": 50,
          "onset": 41.75,
          "duration": 0.25,
          "velocity": 80
        },
        {
          "pitch": 48,
          "onset": 42.0,
          "duration": 0.25,
          "velocity": 80
        },
        {
          "pitch": 46,
          "onset": 42.25,
          "duration": 0.25,
          "velocity": 80
        },
        {
          "pitch": 44,
          "onset": 42.5,
          "duration": 0.25,
          "velocity": 80
        },
        {
          "pitch": 43,
          "onset": 42.75,
          "duration": 0.25,
          "velocity": 80
        },
        {
          "pitch": 53,
          "onset": 44.0,
          "duration": 1.0,
          "velocity": 100
        },
        {
          "pitch": 56,
          "onset": 44.25,
          "duration": 1.0,
          "velocity": 100
        },
        {
          "pitch": 55,
          "onset": 45.25,
          "duration": 0.25,
          "velocity": 100
        },
        {
          "pitch": 56,
          "onset": 45.5,
          "duration": 0.25,
          "velocity": 100
        },
        {
          "pitch": 53,
          "onset": 45.75,
          "duration": 0.25,
          "velocity": 100
        },
        {
          "pitch": 63,
          "onset": 46.0,
          "duration": 0.25,
          "velocity": 100
        },
        {
          "pitch": 62,
          "onset": 46.25,
          "duration": 1.0,
          "velocity": 100
        },
        {
          "pitch": 60,
          "onset": 47.25,
          "duration": 0.25,
          "velocity": 100
        },
        {
          "pitch": 62,
          "onset": 47.5,
          "duration": 0.25,
          "velocity": 100
        },
        {
          "pitch": 58,
          "onset": 47.75,
          "duration": 0.25,
          "velocity": 100
        },
        {
          "pitch": 65,
          "onset": 48.0,
          "duration": 1.25,
          "velocity": 100
        },
        {
          "pitch": 63,
          "onset": 49.25,
          "duration": 0.25,
          "velocity": 100
        },
        {
          "pitch": 62,
          "onset": 49.5,
          "duration": 0.25,
          "velocity": 100
        },
        {
          "pitch": 60,
          "onset": 49.75,
          "duration": 0.25,
          "velocity": 100
        },
        {
          "pitch": 58,
          "onset": 50.0,
          "duration": 0.75,
          "velocity": 100
        },
        {
          "pitch": 55,
          "onset": 50.75,
          "duration": 0.25,
          "velocity": 100
        },
        {
          "pitch": 56,
          "onset": 51.0,
          "duration": 0.75,
          "velocity": 100
        },
        {
          "pitch": 65,
          "onset": 51.75,
          "duration": 0.25,
          "velocity": 100
        },
        {
          "pitch": 55,
          "onset": 52.0,
          "duration": 0.625,
          "velocity": 100
        },
        {
          "pitch": 56,
          "onset": 52.625,
          "duration": 0.125,
          "velocity": 100
        },
        {
          "pitch": 55,
          "onset": 52.75,
          "duration": 0.125,
          "velocity": 100
        },
        {
          "pitch": 53,
          "onset": 52.875,
          "duration": 0.125,
          "velocity": 100
        },
        {
          "pitch": 55,
          "onset": 53.0,
          "duration": 0.75,
          "velocity": 100
        },
        {
          "pitch": 56,
          "onset": 53.75,
          "duration": 0.25,
          "velocity": 100
        },
        {
          "pitch": 55,
          "onset": 54.0,
          "duration": 1.0,
          "velocity": 100
        },
        {
          "pitch": 53,
          "onset": 55.0,
          "duration": 0.0938,
          "velocity": 100
        },
        {
          "pitch": 55,
          "onset": 55.0938,
          "duration": 0.0938,
          "velocity": 100
        },
        {
          "pitch": 53,
          "onset": 55.1562,
          "duration": 0.0938,
          "velocity": 100
        },
        {
          "pitch": 55,
          "onset": 55.25,
          "duration": 0.0938,
          "velocity": 100
        },
        {
          "pitch": 53,
          "onset": 55.3438,
          "duration": 0.0938,
          "velocity": 100
        },
        {
          "pitch": 55,
          "onset": 55.4062,
          "duration": 0.0938,
          "velocity": 100
        },
        {
          "pitch": 53,
          "onset": 55.5,
          "duration": 0.25,
          "velocity": 100
        },
        {
          "pitch": 51,
          "onset": 55.75,
          "duration": 0.125,
          "velocity": 100
        },
        {
          "pitch": 50,
          "onset": 55.875,
          "duration": 0.125,
          "velocity": 100
        },
        {
          "pitch": 51,
          "onset": 56.0,
          "duration": 1.0,
          "velocity": 100
        },
        {
          "pitch": 58,
          "onset": 57.75,
          "duration": 0.25,
          "velocity": 80
        },
        {
          "pitch": 57,
          "onset": 58.0,
          "duration": 1.0,
          "velocity": 80
        },
        {
          "pitch": 55,
          "onset": 59.0,
          "duration": 0.25,
          "velocity": 80
        },
        {
          "pitch": 54,
          "onset": 59.25,
          "duration": 0.25,
          "velocity": 80
        },
        {
          "pitch": 55,
          "onset": 59.5,
          "duration": 0.5,
          "velocity": 80
        },
        {
          "pitch": 54,
          "onset": 60.0,
          "duration": 1.0,
          "velocity": 100
        },
        {
          "pitch": 62,
          "onset": 60.25,
          "duration": 1.0,
          "velocity": 100
        },
        {
          "pitch": 51,
          "onset": 61.25,
          "duration": 0.25,
          "velocity": 80
        },
        {
          "pitch": 50,
          "onset": 61.5,
          "duration": 0.25,
          "velocity": 80
        },
        {
          "pitch": 48,
          "onset": 61.75,
          "duration": 0.25,
          "velocity": 80
        },
        {
          "pitch": 46,
          "onset": 62.0,
          "duration": 0.0938,
          "velocity": 80
        },
        {
          "pitch": 48,
          "onset": 62.0938,
          "duration": 0.0938,
          "velocity": 80
        },
        {
          "pitch": 46,
          "onset": 62.1562,
          "duration": 0.0938,
          "velocity": 80
        },
        {
          "pitch": 48,
          "onset": 62.25,
          "duration": 0.0938,
          "velocity": 80
        },
        {
          "pitch": 46,
          "onset": 62.3438,
          "duration": 0.0938,
          "velocity": 80
        },
        {
          "pitch": 48,
          "onset": 62.4062,
          "duration": 0.0938,
          "velocity": 80
        },
        {
          "pitch": 46,
          "onset": 62.5,
          "duration": 0.25,
          "velocity": 80
        },
        {
          "pitch": 48,
          "onset": 62.75,
          "duration": 0.25,
          "velocity": 80
        },
        {
          "pitch": 50,
          "onset": 63.0,
          "duration": 0.25,
          "velocity": 80
        },
        {
          "pitch": 52,
          "onset": 63.25,
          "duration": 0.25,
          "velocity": 80
        },
        {
          "pitch": 54,
          "onset": 63.5,
          "duration": 0.25,
          "velocity": 80
        },
        {
          "pitch": 55,
          "onset": 63.75,
          "duration": 0.25,
          "velocity": 80
        },
        {
          "pitch": 57,
          "onset": 64.0,
          "duration": 0.25,
          "velocity": 80
        },
        {
          "pitch": 55,
          "onset": 64.25,
          "duration": 0.25,
          "velocity": 83
        },
        {
          "pitch": 54,
          "onset": 64.5,
          "duration": 0.25,
          "velocity": 87
        },
        {
          "pitch": 55,
          "onset": 64.75,
          "duration": 0.25,
          "velocity": 91
        },
        {
          "pitch": 57,
          "onset": 65.0,
          "duration": 0.25,
          "velocity": 95
        },
        {
          "pitch": 58,
          "onset": 65.25,
          "duration": 0.25,
          "velocity": 99
        },
        {
          "pitch": 60,
          "onset": 65.5,
          "duration": 0.25,
          "velocity": 103
        },
        {
          "pitch": 62,
          "onset": 65.75,
          "duration": 0.25,
          "velocity": 106
        },
        {
          "pitch": 63,
          "onset": 66.0,
          "duration": 0.75,
          "velocity": 110
        },
        {
          "pitch": 62,
          "onset": 66.75,
          "duration": 0.125,
          "velocity": 110
        },
        {
          "pitch": 60,
          "onset": 66.875,
          "duration": 0.125,
          "velocity": 110
        },
        {
          "pitch": 62,
          "onset": 67.0,
          "duration": 0.75,
          "velocity": 110
        },
        {
          "pitch": 54,
          "onset": 67.75,
          "duration": 0.25,
          "velocity": 110
        },
        {
          "pitch": 50,
          "onset": 68.0,
          "duration": 1.0,
          "velocity": 110
        },
        {
          "pitch": 55,
          "onset": 68.25,
          "duration": 0.75,
          "velocity": 110
        },
        {
          "pitch": 48,
          "onset": 69.0,
          "duration": 0.25,
          "velocity": 110
        },
        {
          "pitch": 57,
          "onset": 69.25,
          "duration": 0.25,
          "velocity": 110
        },
        {
          "pitch": 55,
          "onset": 69.5,
          "duration": 0.25,
          "velocity": 110
        },
        {
          "pitch": 57,
          "onset": 69.75,
          "duration": 0.25,
          "velocity": 110
        },
        {
          "pitch": 57,
          "onset": 70.0,
          "duration": 0.0938,
          "velocity": 110
        },
        {
          "pitch": 58,
          "onset": 70.0938,
          "duration": 0.0938,
          "velocity": 110
        },
        {
          "pitch": 57,
          "onset": 70.1562,
          "duration": 0.0938,
          "velocity": 110
        },
        {
          "pitch": 58,
          "onset": 70.25,
          "duration": 0.0938,
          "velocity": 110
        },
        {
          "pitch": 57,
          "onset": 70.3438,
          "duration": 0.0938,
          "velocity": 110
        },
        {
          "pitch": 58,
          "onset": 70.4062,
          "duration": 0.0938,
          "velocity": 110
        },
        {
          "pitch": 57,
          "onset": 70.5,
          "duration": 1.0,
          "velocity": 110
        },
        {
          "pitch": 55,
          "onset": 71.5,
          "duration": 0.5,
          "velocity": 110
        },
        {
          "pitch": 55,
          "onset": 72.0,
          "duration": 0.75,
          "velocity": 110
        },
        {
          "pitch": 50,
          "onset": 72.75,
          "duration": 0.25,
          "velocity": 80
        },
        {
          "pitch": 47,
          "onset": 73.0,
          "duration": 0.75,
          "velocity": 80
        },
        {
          "pitch": 50,
          "onset": 73.75,
          "duration": 0.25,
          "velocity": 80
        },
        {
          "pitch": 43,
          "onset": 74.0,
          "duration": 1.25,
          "velocity": 80
        },
        {
          "pitch": 60,
          "onset": 75.5,
          "duration": 0.5,
          "velocity": 100
        },
        {
          "pitch": 51,
          "onset": 76.0,
          "duration": 1.0,
          "velocity": 100
        },
        {
          "pitch": 60,
          "onset": 76.25,
          "duration": 1.0,
          "velocity": 100
        },
        {
          "pitch": 58,
          "onset": 77.25,
          "duration": 0.25,
          "velocity": 100
        },
        {
          "pitch": 56,
          "onset": 77.5,
          "duration": 0.25,
          "velocity": 100
        },
        {
          "pitch": 55,
          "onset": 77.75,
          "duration": 0.25,
          "velocity": 100
        },
        {
          "pitch": 56,
          "onset": 78.0,
          "duration": 0.75,
          "velocity": 100
        },
        {
          "pitch": 53,
          "onset": 78.75,
          "duration": 0.25,
          "velocity": 100
        },
        {
          "pitch": 55,
          "onset": 79.0,
          "duration": 0.75,
          "velocity": 100
        },
        {
          "pitch": 50,
          "onset": 79.75,
          "duration": 0.25,
          "velocity": 100
        },
        {
          "pitch": 51,
          "onset": 80.0,
          "duration": 1.0,
          "velocity": 100
        },
        {
          "pitch": 44,
          "onset": 82.0,
          "duration": 0.75,
          "velocity": 100
        },
        {
          "pitch": 43,
          "onset": 83.0,
          "duration": 0.75,
          "velocity": 100
        },
        {
          "pitch": 50,
          "onset": 83.75,
          "duration": 0.25,
          "velocity": 100
        },
        {
          "pitch": 43,
          "onset": 84.0,
          "duration": 0.5,
          "velocity": 100
        },
        {
          "pitch": 50,
          "onset": 84.25,
          "duration": 0.5,
          "velocity": 100
        },
        {
          "pitch": 48,
          "onset": 84.75,
          "duration": 0.125,
          "velocity": 100
        },
        {
          "pitch": 47,
          "onset": 84.875,
          "duration": 0.125,
          "velocity": 100
        },
        {
          "pitch": 48,
          "onset": 85.0,
          "duration": 0.75,
          "velocity": 100
        },
        {
          "pitch": 55,
          "onset": 85.75,
          "duration": 0.25,
          "velocity": 100
        },
        {
          "pitch": 44,
          "onset": 86.0,
          "duration": 0.75,
          "velocity": 100
        },
        {
          "pitch": 55,
          "onset": 86.75,
          "duration": 0.25,
          "velocity": 100
        },
        {
          "pitch": 53,
          "onset": 87.0,
          "duration": 0.25,
          "velocity": 100
        },
        {
          "pitch": 51,
          "onset": 87.25,
          "duration": 0.25,
          "velocity": 100
        },
        {
          "pitch": 50,
          "onset": 87.5,
          "duration": 0.25,
          "velocity": 100
        },
        {
          "pitch": 48,
          "onset": 87.75,
          "duration": 0.25,
          "velocity": 100
        },
        {
          "pitch": 47,
          "onset": 88.0,
          "duration": 0.75,
          "velocity": 100
        },
        {
          "pitch": 44,
          "onset": 88.75,
          "duration": 0.25,
          "velocity": 100
        },
        {
          "pitch": 43,
          "onset": 89.0,
          "duration": 0.25,
          "velocity": 100
        },
        {
          "pitch": 47,
          "onset": 89.25,
          "duration": 0.25,
          "velocity": 100
        },
        {
          "pitch": 50,
          "onset": 89.5,
          "duration": 0.25,
          "velocity": 100
        },
        {
          "pitch": 53,
          "onset": 89.75,
          "duration": 0.25,
          "velocity": 100
        },
        {
          "pitch": 56,
          "onset": 90.0,
          "duration": 0.75,
          "velocity": 100
        },
        {
          "pitch": 55,
          "onset": 90.75,
          "duration": 0.25,
          "velocity": 100
        },
        {
          "pitch": 53,
          "onset": 91.0,
          "duration": 0.25,
          "velocity": 100
        },
        {
          "pitch": 51,
          "onset": 91.25,
          "duration": 0.25,
          "velocity": 100
        },
        {
          "pitch": 53,
          "onset": 91.5,
          "duration": 0.25,
          "velocity": 100
        },
        {
          "pitch": 50,
          "onset": 91.75,
          "duration": 0.25,
          "velocity": 100
        },
        {
          "pitch": 43,
          "onset": 92.0,
          "duration": 0.75,
          "velocity": 100
        },
        {
          "pitch": 51,
          "onset": 92.25,
          "duration": 0.5,
          "velocity": 100
        },
        {
          "pitch": 50,
          "onset": 92.75,
          "duration": 0.25,
          "velocity": 80
        },
        {
          "pitch": 48,
          "onset": 93.0,
          "duration": 0.25,
          "velocity": 80
        },
        {
          "pitch": 47,
          "onset": 93.25,
          "duration": 0.25,
          "velocity": 80
        },
        {
          "pitch": 48,
          "onset": 93.5,
          "duration": 0.25,
          "velocity": 80
        },
        {
          "pitch": 50,
          "onset": 93.75,
          "duration": 0.25,
          "velocity": 80
        },
        {
          "pitch": 51,
          "onset": 94.0,
          "duration": 0.25,
          "velocity": 80
        },
        {
          "pitch": 50,
          "onset": 94.25,
          "duration": 0.25,
          "velocity": 82
        },
        {
          "pitch": 51,
          "onset": 94.5,
          "duration": 0.25,
          "velocity": 85
        },
        {
          "pitch": 53,
          "onset": 94.75,
          "duration": 0.25,
          "velocity": 88
        },
        {
          "pitch": 55,
          "onset": 95.0,
          "duration": 0.25,
          "velocity": 91
        },
        {
          "pitch": 53,
          "onset": 95.25,
          "duration": 0.25,
          "velocity": 94
        },
        {
          "pitch": 55,
          "onset": 95.5,
          "duration": 0.25,
          "velocity": 97
        },
        {
          "pitch": 56,
          "onset": 95.75,
          "duration": 0.25,
          "velocity": 100
        },
        {
          "pitch": 51,
          "onset": 96.0,
          "duration": 1.0,
          "velocity": 100
        },
        {
          "pitch": 58,
          "onset": 96.25,
          "duration": 1.0,
          "velocity": 100
        },
        {
          "pitch": 56,
          "onset": 97.25,
          "duration": 0.25,
          "velocity": 80
        },
        {
          "pitch": 55,
          "onset": 97.5,
          "duration": 0.25,
          "velocity": 80
        },
        {
          "pitch": 53,
          "onset": 97.75,
          "duration": 0.25,
          "velocity": 80
        },
        {
          "pitch": 55,
          "onset": 98.0,
          "duration": 0.75,
          "velocity": 80
        },
        {
          "pitch": 53,
          "onset": 98.75,
          "duration": 0.125,
          "velocity": 80
        },
        {
          "pitch": 51,
          "onset": 98.875,
          "duration": 0.125,
          "velocity": 80
        },
        {
          "pitch": 61,
          "onset": 99.0,
          "duration": 0.75,
          "velocity": 80
        },
        {
          "pitch": 58,
          "onset": 99.75,
          "duration": 0.25,
          "velocity": 80
        },
        {
          "pitch": 51,
          "onset": 100.0,
          "duration": 1.0,
          "velocity": 100
        },
        {
          "pitch": 60,
          "onset": 100.25,
          "duration": 1.0,
          "velocity": 100
        },
        {
          "pitch": 58,
          "onset": 101.25,
          "duration": 0.25,
          "velocity": 80
        },
        {
          "pitch": 56,
          "onset": 101.5,
          "duration": 0.25,
          "velocity": 80
        },
        {
          "pitch": 55,
          "onset": 101.75,
          "duration": 0.25,
          "velocity": 80
        },
        {
          "pitch": 56,
          "onset": 102.0,
          "duration": 0.75,
          "velocity": 80
        },
        {
          "pitch": 60,
          "onset": 102.75,
          "duration": 0.25,
          "velocity": 80
        },
        {
          "pitch": 52,
          "onset": 103.0,
          "duration": 0.0938,
          "velocity": 80
        },
        {
          "pitch": 53,
          "onset": 103.0938,
          "duration": 0.0938,
          "velocity": 80
        },
        {
          "pitch": 52,
          "onset": 103.1562,
          "duration": 0.0938,
          "velocity": 80
        },
        {
          "pitch": 53,
          "onset": 103.25,
          "duration": 0.0938,
          "velocity": 80
        },
        {
          "pitch": 52,
          "onset": 103.3438,
          "duration": 0.0938,
          "velocity": 80
        },
        {
          "pitch": 53,
          "onset": 103.4062,
          "duration": 0.0938,
          "velocity": 80
        },
        {
          "pitch": 52,
          "onset": 103.5,
          "duration": 0.25,
          "velocity": 80
        },
        {
          "pitch": 53,
          "onset": 103.75,
          "duration": 0.25,
          "velocity": 80
        },
        {
          "pitch": 48,
          "onset": 104.0,
          "duration": 1.0,
          "velocity": 100
        },
        {
          "pitch": 55,
          "onset": 104.25,
          "duration": 1.0,
          "velocity": 100
        },
        {
          "pitch": 53,
          "onset": 105.25,
          "duration": 0.25,
          "velocity": 80
        },
        {
          "pitch": 52,
          "onset": 105.5,
          "duration": 0.25,
          "velocity": 80
        },
        {
          "pitch": 53,
          "onset": 105.75,
          "duration": 0.125,
          "velocity": 80
        },
        {
          "pitch": 55,
          "onset": 105.875,
          "duration": 0.125,
          "velocity": 80
        },
        {
          "pitch": 48,
          "onset": 106.0,
          "duration": 0.75,
          "velocity": 80
        },
        {
          "pitch": 58,
          "onset": 106.75,
          "duration": 0.25,
          "velocity": 80
        },
        {
          "pitch": 56,
          "onset": 107.0,
          "duration": 0.75,
          "velocity": 80
        },
        {
          "pitch": 58,
          "onset": 107.75,
          "duration": 0.125,
          "velocity": 80
        },
        {
          "pitch": 55,
          "onset": 107.875,
          "duration": 0.125,
          "velocity": 80
        },
        {
          "pitch": 53,
          "onset": 108.0,
          "duration": 1.0,
          "velocity": 100
        },
        {
          "pitch": 56,
          "onset": 108.25,
          "duration": 1.25,
          "velocity": 100
        },
        {
          "pitch": 60,
          "onset": 109.5,
          "duration": 0.25,
          "velocity": 80
        },
        {
          "pitch": 58,
          "onset": 109.75,
          "duration": 0.25,
          "velocity": 80
        },
        {
          "pitch": 56,
          "onset": 110.0,
          "duration": 0.25,
          "velocity": 80
        },
        {
          "pitch": 55,
          "onset": 110.25,
          "duration": 0.25,
          "velocity": 80
        },
        {
          "pitch": 53,
          "onset": 110.5,
          "duration": 0.25,
          "velocity": 80
        },
        {
          "pitch": 51,
          "onset": 110.75,
          "duration": 0.25,
          "velocity": 80
        },
        {
          "pitch": 50,
          "onset": 111.0,
          "duration": 0.25,
          "velocity": 80
        },
        {
          "pitch": 51,
          "onset": 111.25,
          "duration": 0.25,
          "velocity": 80
        },
        {
          "pitch": 53,
          "onset": 111.5,
          "duration": 0.25,
          "velocity": 80
        },
        {
          "pitch": 50,
          "onset": 111.75,
          "duration": 0.25,
          "velocity": 80
        },
        {
          "pitch": 44,
          "onset": 112.0,
          "duration": 1.25,
          "velocity": 80
        },
        {
          "pitch": 53,
          "onset": 113.25,
          "duration": 0.25,
          "velocity": 80
        },
        {
          "pitch": 51,
          "onset": 113.5,
          "duration": 0.25,
          "velocity": 80
        },
        {
          "pitch": 50,
          "onset": 113.75,
          "duration": 0.25,
          "velocity": 80
        },
        {
          "pitch": 48,
          "onset": 114.0,
          "duration": 0.25,
          "velocity": 80
        },
        {
          "pitch": 46,
          "onset": 114.25,
          "duration": 0.25,
          "velocity": 80
        },
        {
          "pitch": 44,
          "onset": 114.5,
          "duration": 0.25,
          "velocity": 80
        },
        {
          "pitch": 43,
          "onset": 114.75,
          "duration": 0.25,
          "velocity": 80
        },
        {
          "pitch": 53,
          "onset": 116.0,
          "duration": 1.0,
          "velocity": 100
        },
        {
          "pitch": 56,
          "onset": 116.25,
          "duration": 1.0,
          "velocity": 100
        },
        {
          "pitch": 55,
          "onset": 117.25,
          "duration": 0.25,
          "velocity": 100
        },
        {
          "pitch": 56,
          "onset": 117.5,
          "duration": 0.25,
          "velocity": 100
        },
        {
          "pitch": 53,
          "onset": 117.75,
          "duration": 0.25,
          "velocity": 100
        },
        {
          "pitch": 63,
          "onset": 118.0,
          "duration": 0.25,
          "velocity": 100
        },
        {
          "pitch": 62,
          "onset": 118.25,
          "duration": 1.0,
          "velocity": 100
        },
        {
          "pitch": 60,
          "onset": 119.25,
          "duration": 0.25,
          "velocity": 100
        },
        {
          "pitch": 62,
          "onset": 119.5,
          "duration": 0.25,
          "velocity": 100
        },
        {
          "pitch": 58,
          "onset": 119.75,
          "duration": 0.25,
          "velocity": 100
        },
        {
          "pitch": 65,
          "onset": 120.0,
          "duration": 1.25,
          "velocity": 100
        },
        {
          "pitch": 63,
          "onset": 121.25,
          "duration": 0.25,
          "velocity": 100
        },
        {
          "pitch": 62,
          "onset": 121.5,
          "duration": 0.25,
          "velocity": 100
        },
        {
          "pitch": 60,
          "onset": 121.75,
          "duration": 0.25,
          "velocity": 100
        },
        {
          "pitch": 58,
          "onset": 122.0,
          "duration": 0.75,
          "velocity": 100
        },
        {
          "pitch": 55,
          "onset": 122.75,
          "duration": 0.25,
          "velocity": 100
        },
        {
          "pitch": 56,
          "onset": 123.0,
          "duration": 0.75,
          "velocity": 100
        },
        {
          "pitch": 65,
          "onset": 123.75,
          "duration": 0.25,
          "velocity": 100
        },
        {
          "pitch": 55,
          "onset": 124.0,
          "duration": 0.625,
          "velocity": 100
        },
        {
          "pitch": 56,
          "onset": 124.625,
          "duration": 0.125,
          "velocity": 100
        },
        {
          "pitch": 55,
          "onset": 124.75,
          "duration": 0.125,
          "velocity": 100
        },
        {
          "pitch": 53,
          "onset": 124.875,
          "duration": 0.125,
          "velocity": 100
        },
        {
          "pitch": 55,
          "onset": 125.0,
          "duration": 0.75,
          "velocity": 100
        },
        {
          "pitch": 56,
          "onset": 125.75,
          "duration": 0.25,
          "velocity": 100
        },
        {
          "pitch": 55,
          "onset": 126.0,
          "duration": 1.0,
          "velocity": 100
        },
        {
          "pitch": 53,
          "onset": 127.0,
          "duration": 0.0938,
          "velocity": 100
        },
        {
          "pitch": 55,
          "onset": 127.0938,
          "duration": 0.0938,
          "velocity": 100
        },
        {
          "pitch": 53,
          "onset": 127.1562,
          "duration": 0.0938,
          "velocity": 100
        },
        {
          "pitch": 55,
          "onset": 127.25,
          "duration": 0.0938,
          "velocity": 100
        },
        {
          "pitch": 53,
          "onset": 127.3438,
          "duration": 0.0938,
          "velocity": 100
        },
        {
          "pitch": 55,
          "onset": 127.4062,
          "duration": 0.0938,
          "velocity": 100
        },
        {
          "pitch": 53,
          "onset": 127.5,
          "duration": 0.25,
          "velocity": 100
        },
        {
          "pitch": 51,
          "onset": 127.75,
          "duration": 0.125,
          "velocity": 100
        },
        {
          "pitch": 50,
          "onset": 127.875,
          "duration": 0.125,
          "velocity": 100
        },
        {
          "pitch": 51,
          "onset": 128.0,
          "duration": 1.0,
          "velocity": 100
        },
        {
          "pitch": 58,
          "onset": 129.75,
          "duration": 0.25,
          "velocity": 80
        },
        {
          "pitch": 57,
          "onset": 130.0,
          "duration": 1.0,
          "velocity": 80
        },
        {
          "pitch": 55,
          "onset": 131.0,
          "duration": 0.25,
          "velocity": 80
        },
        {
          "pitch": 54,
          "onset": 131.25,
          "duration": 0.25,
          "velocity": 80
        },
        {
          "pitch": 55,
          "onset": 131.5,
          "duration": 0.5,
          "velocity": 80
        },
        {
          "pitch": 54,
          "onset": 132.0,
          "duration": 1.0,
          "velocity": 100
        },
        {
          "pitch": 62,
          "onset": 132.25,
          "duration": 1.0,
          "velocity": 100
        },
        {
          "pitch": 51,
          "onset": 133.25,
          "duration": 0.25,
          "velocity": 80
        },
        {
          "pitch": 50,
          "onset": 133.5,
          "duration": 0.25,
          "velocity": 80
        },
        {
          "pitch": 48,
          "onset": 133.75,
          "duration": 0.25,
          "velocity": 80
        },
        {
          "pitch": 46,
          "onset": 134.0,
          "duration": 0.0938,
          "velocity": 80
        },
        {
          "pitch": 48,
          "onset": 134.0938,
          "duration": 0.0938,
          "velocity": 80
        },
        {
          "pitch": 46,
          "onset": 134.1562,
          "duration": 0.0938,
          "velocity": 80
        },
        {
          "pitch": 48,
          "onset": 134.25,
          "duration": 0.0938,
          "velocity": 80
        },
        {
          "pitch": 46,
          "onset": 134.3438,
          "duration": 0.0938,
          "velocity": 80
        },
        {
          "pitch": 48,
          "onset": 134.4062,
          "duration": 0.0938,
          "velocity": 80
        },
        {
          "pitch": 46,
          "onset": 134.5,
          "duration": 0.25,
          "velocity": 80
        },
        {
          "pitch": 48,
          "onset": 134.75,
          "duration": 0.25,
          "velocity": 80
        },
        {
          "pitch": 50,
          "onset": 135.0,
          "duration": 0.25,
          "velocity": 80
        },
        {
          "pitch": 52,
          "onset": 135.25,
          "duration": 0.25,
          "velocity": 80
        },
        {
          "pitch": 54,
          "onset": 135.5,
          "duration": 0.25,
          "velocity": 80
        },
        {
          "pitch": 55,
          "onset": 135.75,
          "duration": 0.25,
          "velocity": 80
        },
        {
          "pitch": 57,
          "onset": 136.0,
          "duration": 0.25,
          "velocity": 80
        },
        {
          "pitch": 55,
          "onset": 136.25,
          "duration": 0.25,
          "velocity": 83
        },
        {
          "pitch": 54,
          "onset": 136.5,
          "duration": 0.25,
          "velocity": 87
        },
        {
          "pitch": 55,
          "onset": 136.75,
          "duration": 0.25,
          "velocity": 91
        },
        {
          "pitch": 57,
          "onset": 137.0,
          "duration": 0.25,
          "velocity": 95
        },
        {
          "pitch": 58,
          "onset": 137.25,
          "duration": 0.25,
          "velocity": 99
        },
        {
          "pitch": 60,
          "onset": 137.5,
          "duration": 0.25,
          "velocity": 103
        },
        {
          "pitch": 62,
          "onset": 137.75,
          "duration": 0.25,
          "velocity": 106
        },
        {
          "pitch": 63,
          "onset": 138.0,
          "duration": 0.75,
          "velocity": 110
        },
        {
          "pitch": 62,
          "onset": 138.75,
          "duration": 0.125,
          "velocity": 110
        },
        {
          "pitch": 60,
          "onset": 138.875,
          "duration": 0.125,
          "velocity": 110
        },
        {
          "pitch": 62,
          "onset": 139.0,
          "duration": 0.75,
          "velocity": 110
        },
        {
          "pitch": 54,
          "onset": 139.75,
          "duration": 0.25,
          "velocity": 110
        },
        {
          "pitch": 50,
          "onset": 140.0,
          "duration": 1.0,
          "velocity": 110
        },
        {
          "pitch": 55,
          "onset": 140.25,
          "duration": 0.75,
          "velocity": 110
        },
        {
          "pitch": 48,
          "onset": 141.0,
          "duration": 0.25,
          "velocity": 110
        },
        {
          "pitch": 57,
          "onset": 141.25,
          "duration": 0.25,
          "velocity": 110
        },
        {
          "pitch": 55,
          "onset": 141.5,
          "duration": 0.25,
          "velocity": 110
        },
        {
          "pitch": 57,
          "onset": 141.75,
          "duration": 0.25,
          "velocity": 110
        },
        {
          "pitch": 57,
          "onset": 142.0,
          "duration": 0.0938,
          "velocity": 110
        },
        {
          "pitch": 58,
          "onset": 142.0938,
          "duration": 0.0938,
          "velocity": 110
        },
        {
          "pitch": 57,
          "onset": 142.1562,
          "duration": 0.0938,
          "velocity": 110
        },
        {
          "pitch": 58,
          "onset": 142.25,
          "duration": 0.0938,
          "velocity": 110
        },
        {
          "pitch": 57,
          "onset": 142.3438,
          "duration": 0.0938,
          "velocity": 110
        },
        {
          "pitch": 58,
          "onset": 142.4062,
          "duration": 0.0938,
          "velocity": 110
        },
        {
          "pitch": 57,
          "onset": 142.5,
          "duration": 1.0,
          "velocity": 110
        },
        {
          "pitch": 55,
          "onset": 143.5,
          "duration": 0.5,
          "velocity": 110
        },
        {
          "pitch": 55,
          "onset": 144.0,
          "duration": 0.75,
          "velocity": 110
        },
        {
          "pitch": 50,
          "onset": 144.75,
          "duration": 0.25,
          "velocity": 80
        },
        {
          "pitch": 47,
          "onset": 145.0,
          "duration": 0.75,
          "velocity": 80
        },
        {
          "pitch": 50,
          "onset": 145.75,
          "duration": 0.25,
          "velocity": 80
        },
        {
          "pitch": 43,
          "onset": 146.0,
          "duration": 1.25,
          "velocity": 80
        },
        {
          "pitch": 62,
          "onset": 147.5,
          "duration": 0.5,
          "velocity": 100
        },
        {
          "pitch": 59,
          "onset": 148.0,
          "duration": 1.0,
          "velocity": 100
        },
        {
          "pitch": 62,
          "onset": 148.25,
          "duration": 1.0,
          "velocity": 100
        },
        {
          "pitch": 60,
          "onset": 149.25,
          "duration": 0.25,
          "velocity": 100
        },
        {
          "pitch": 62,
          "onset": 149.5,
          "duration": 0.25,
          "velocity": 100
        },
        {
          "pitch": 63,
          "onset": 149.75,
          "duration": 0.25,
          "velocity": 100
        },
        {
          "pitch": 59,
          "onset": 150.0,
          "duration": 0.75,
          "velocity": 100
        },
        {
          "pitch": 56,
          "onset": 150.75,
          "duration": 0.25,
          "velocity": 100
        },
        {
          "pitch": 55,
          "onset": 151.0,
          "duration": 0.75,
          "velocity": 100
        },
        {
          "pitch": 53,
          "onset": 151.75,
          "duration": 0.25,
          "velocity": 100
        },
        {
          "pitch": 51,
          "onset": 152.0,
          "duration": 0.75,
          "velocity": 100
        },
        {
          "pitch": 55,
          "onset": 152.75,
          "duration": 0.25,
          "velocity": 100
        },
        {
          "pitch": 60,
          "onset": 153.0,
          "duration": 0.25,
          "velocity": 100
        },
        {
          "pitch": 50,
          "onset": 153.25,
          "duration": 0.25,
          "velocity": 100
        },
        {
          "pitch": 51,
          "onset": 153.5,
          "duration": 0.25,
          "velocity": 100
        },
        {
          "pitch": 53,
          "onset": 153.75,
          "duration": 0.25,
          "velocity": 100
        },
        {
          "pitch": 47,
          "onset": 154.0,
          "duration": 0.0938,
          "velocity": 100
        },
        {
          "pitch": 48,
          "onset": 154.0938,
          "duration": 0.0938,
          "velocity": 100
        },
        {
          "pitch": 47,
          "onset": 154.1562,
          "duration": 0.0938,
          "velocity": 100
        },
        {
          "pitch": 48,
          "onset": 154.25,
          "duration": 0.0938,
          "velocity": 100
        },
        {
          "pitch": 47,
          "onset": 154.3438,
          "duration": 0.0938,
          "velocity": 100
        },
        {
          "pitch": 48,
          "onset": 154.4062,
          "duration": 0.0938,
          "velocity": 100
        },
        {
          "pitch": 47,
          "onset": 154.5,
          "duration": 0.25,
          "velocity": 100
        },
        {
          "pitch": 55,
          "onset": 154.75,
          "duration": 0.25,
          "velocity": 100
        },
        {
          "pitch": 62,
          "onset": 155.0,
          "duration": 0.75,
          "velocity": 100
        },
        {
          "pitch": 63,
          "onset": 155.75,
          "duration": 0.125,
          "velocity": 100
        },
        {
          "pitch": 65,
          "onset": 155.875,
          "duration": 0.125,
          "velocity": 100
        },
        {
          "pitch": 63,
          "onset": 156.0,
          "duration": 1.0,
          "velocity": 100
        },
        {
          "pitch": 62,
          "onset": 157.75,
          "duration": 0.25,
          "velocity": 100
        },
        {
          "pitch": 60,
          "onset": 158.0,
          "duration": 0.75,
          "velocity": 100
        },
        {
          "pitch": 58,
          "onset": 158.75,
          "duration": 0.125,
          "velocity": 100
        },
        {
          "pitch": 57,
          "onset": 158.875,
          "duration": 0.125,
          "velocity": 100
        },
        {
          "pitch": 58,
          "onset": 159.0,
          "duration": 0.75,
          "velocity": 100
        },
        {
          "pitch": 60,
          "onset": 159.75,
          "duration": 0.25,
          "velocity": 100
        },
        {
          "pitch": 57,
          "onset": 160.0,
          "duration": 1.25,
          "velocity": 100
        },
        {
          "pitch": 57,
          "onset": 161.25,
          "duration": 0.25,
          "velocity": 80
        },
        {
          "pitch": 58,
          "onset": 161.5,
          "duration": 0.25,
          "velocity": 80
        },
        {
          "pitch": 60,
          "onset": 161.75,
          "duration": 0.25,
          "velocity": 80
        },
        {
          "pitch": 53,
          "onset": 162.0,
          "duration": 0.75,
          "velocity": 80
        },
        {
          "pitch": 55,
          "onset": 162.75,
          "duration": 0.125,
          "velocity": 80
        },
        {
          "pitch": 57,
          "onset": 162.875,
          "duration": 0.125,
          "velocity": 80
        },
        {
          "pitch": 57,
          "onset": 163.0,
          "duration": 0.0938,
          "velocity": 80
        },
        {
          "pitch": 58,
          "onset": 163.0938,
          "duration": 0.0938,
          "velocity": 80
        },
        {
          "pitch": 57,
          "onset": 163.1562,
          "duration": 0.0938,
          "velocity": 80
        },
        {
          "pitch": 58,
          "onset": 163.25,
          "duration": 0.0938,
          "velocity": 80
        },
        {
          "pitch": 57,
          "onset": 163.3438,
          "duration": 0.0938,
          "velocity": 80
        },
        {
          "pitch": 58,
          "onset": 163.4062,
          "duration": 0.0938,
          "velocity": 80
        },
        {
          "pitch": 57,
          "onset": 163.5,
          "duration": 0.25,
          "velocity": 80
        },
        {
          "pitch": 55,
          "onset": 163.75,
          "duration": 0.125,
          "velocity": 80
        },
        {
          "pitch": 57,
          "onset": 163.875,
          "duration": 0.125,
          "velocity": 80
        },
        {
          "pitch": 58,
          "onset": 164.0,
          "duration": 1.0,
          "velocity": 80
        },
        {
          "pitch": 58,
          "onset": 165.25,
          "duration": 0.25,
          "velocity": 80
        },
        {
          "pitch": 56,
          "onset": 165.5,
          "duration": 0.25,
          "velocity": 80
        },
        {
          "pitch": 55,
          "onset": 165.75,
          "duration": 0.25,
          "velocity": 80
        },
        {
          "pitch": 53,
          "onset": 166.0,
          "duration": 0.75,
          "velocity": 80
        },
        {
          "pitch": 51,
          "onset": 166.75,
          "duration": 0.25,
          "velocity": 80
        },
        {
          "pitch": 53,
          "onset": 167.0,
          "duration": 0.75,
          "velocity": 80
        },
        {
          "pitch": 55,
          "onset": 167.75,
          "duration": 0.25,
          "velocity": 80
        },
        {
          "pitch": 51,
          "onset": 168.0,
          "duration": 1.0,
          "velocity": 100
        },
        {
          "pitch": 56,
          "onset": 168.0,
          "duration": 1.0,
          "velocity": 100
        },
        {
          "pitch": 56,
          "onset": 170.0,
          "duration": 1.0,
          "velocity": 80
        },
        {
          "pitch": 50,
          "onset": 172.0,
          "duration": 0.75,
          "velocity": 100
        },
        {
          "pitch": 56,
          "onset": 172.25,
          "duration": 0.75,
          "velocity": 100
        },
        {
          "pitch": 51,
          "onset": 172.75,
          "duration": 0.125,
          "velocity": 80
        },
        {
          "pitch": 50,
          "onset": 172.875,
          "duration": 0.125,
          "velocity": 80
        },
        {
          "pitch": 48,
          "onset": 173.0,
          "duration": 0.5,
          "velocity": 80
        },
        {
          "pitch": 50,
          "onset": 173.5,
          "duration": 0.25,
          "velocity": 80
        },
        {
          "pitch": 46,
          "onset": 173.75,
          "duration": 0.25,
          "velocity": 80
        },
        {
          "pitch": 55,
          "onset": 174.0,
          "duration": 0.625,
          "velocity": 80
        },
        {
          "pitch": 53,
          "onset": 174.625,
          "duration": 0.125,
          "velocity": 80
        },
        {
          "pitch": 51,
          "onset": 174.75,
          "duration": 0.125,
          "velocity": 80
        },
        {
          "pitch": 50,
          "onset": 174.875,
          "duration": 0.125,
          "velocity": 80
        },
        {
          "pitch": 51,
          "onset": 175.0,
          "duration": 0.75,
          "velocity": 80
        },
        {
          "pitch": 55,
          "onset": 175.75,
          "duration": 0.25,
          "velocity": 80
        },
        {
          "pitch": 43,
          "onset": 176.625,
          "duration": 0.125,
          "velocity": 80
        },
        {
          "pitch": 44,
          "onset": 176.75,
          "duration": 0.125,
          "velocity": 80
        },
        {
          "pitch": 46,
          "onset": 176.875,
          "duration": 0.125,
          "velocity": 80
        },
        {
          "pitch": 48,
          "onset": 177.0,
          "duration": 0.25,
          "velocity": 80
        },
        {
          "pitch": 46,
          "onset": 177.25,
          "duration": 0.25,
          "velocity": 80
        },
        {
          "pitch": 56,
          "onset": 177.5,
          "duration": 0.5,
          "velocity": 80
        },
        {
          "pitch": 55,
          "onset": 178.0,
          "duration": 1.0,
          "velocity": 80
        },
        {
          "pitch": 53,
          "onset": 179.0,
          "duration": 0.0938,
          "velocity": 80
        },
        {
          "pitch": 55,
          "onset": 179.0938,
          "duration": 0.0938,
          "velocity": 80
        },
        {
          "pitch": 53,
          "onset": 179.1562,
          "duration": 0.0938,
          "velocity": 80
        },
        {
          "pitch": 52,
          "onset": 179.25,
          "duration": 0.25,
          "velocity": 80
        },
        {
          "pitch": 53,
          "onset": 179.5,
          "duration": 0.5,
          "velocity": 80
        },
        {
          "pitch": 46,
          "onset": 180.0,
          "duration": 1.25,
          "velocity": 100
        },
        {
          "pitch": 52,
          "onset": 180.25,
          "duration": 0.75,
          "velocity": 100
        },
        {
          "pitch": 46,
          "onset": 181.25,
          "duration": 0.25,
          "velocity": 80
        },
        {
          "pitch": 44,
          "onset": 181.5,
          "duration": 0.25,
          "velocity": 80
        },
        {
          "pitch": 43,
          "onset": 181.75,
          "duration": 0.25,
          "velocity": 80
        },
        {
          "pitch": 44,
          "onset": 182.0,
          "duration": 0.75,
          "velocity": 80
        },
        {
          "pitch": 53,
          "onset": 182.75,
          "duration": 0.25,
          "velocity": 80
        },
        {
          "pitch": 55,
          "onset": 183.0,
          "duration": 0.75,
          "velocity": 80
        },
        {
          "pitch": 56,
          "onset": 183.75,
          "duration": 0.25,
          "velocity": 80
        },
        {
          "pitch": 52,
          "onset": 184.0,
          "duration": 0.75,
          "velocity": 80
        },
        {
          "pitch": 58,
          "onset": 184.75,
          "duration": 0.25,
          "velocity": 80
        },
        {
          "pitch": 56,
          "onset": 185.0,
          "duration": 0.5,
          "velocity": 80
        },
        {
          "pitch": 58,
          "onset": 185.5,
          "duration": 0.25,
          "velocity": 80
        },
        {
          "pitch": 55,
          "onset": 185.75,
          "duration": 0.25,
          "velocity": 80
        },
        {
          "pitch": 55,
          "onset": 186.0,
          "duration": 0.0938,
          "velocity": 80
        },
        {
          "pitch": 56,
          "onset": 186.0938,
          "duration": 0.0938,
          "velocity": 80
        },
        {
          "pitch": 55,
          "onset": 186.1562,
          "duration": 0.0938,
          "velocity": 80
        },
        {
          "pitch": 56,
          "onset": 186.25,
          "duration": 0.0938,
          "velocity": 80
        },
        {
          "pitch": 55,
          "onset": 186.3438,
          "duration": 0.0938,
          "velocity": 80
        },
        {
          "pitch": 56,
          "onset": 186.4062,
          "duration": 0.0938,
          "velocity": 80
        },
        {
          "pitch": 55,
          "onset": 186.5,
          "duration": 1.0,
          "velocity": 80
        },
        {
          "pitch": 53,
          "onset": 187.5,
          "duration": 0.5,
          "velocity": 80
        },
        {
          "pitch": 53,
          "onset": 188.0,
          "duration": 1.25,
          "velocity": 80
        },
        {
          "pitch": 53,
          "onset": 189.25,
          "duration": 0.25,
          "velocity": 80
        },
        {
          "pitch": 51,
          "onset": 189.5,
          "duration": 0.25,
          "velocity": 80
        },
        {
          "pitch": 50,
          "onset": 189.75,
          "duration": 0.25,
          "velocity": 80
        },
        {
          "pitch": 51,
          "onset": 190.0,
          "duration": 0.75,
          "velocity": 80
        },
        {
          "pitch": 60,
          "onset": 190.75,
          "duration": 0.25,
          "velocity": 80
        },
        {
          "pitch": 58,
          "onset": 191.0,
          "duration": 0.25,
          "velocity": 80
        },
        {
          "pitch": 57,
          "onset": 191.25,
          "duration": 0.25,
          "velocity": 80
        },
        {
          "pitch": 55,
          "onset": 191.5,
          "duration": 0.25,
          "velocity": 80
        },
        {
          "pitch": 53,
          "onset": 191.75,
          "duration": 0.25,
          "velocity": 80
        },
        {
          "pitch": 58,
          "onset": 192.0,
          "duration": 0.75,
          "velocity": 80
        },
        {
          "pitch": 56,
          "onset": 192.75,
          "duration": 0.125,
          "velocity": 80
        },
        {
          "pitch": 55,
          "onset": 192.875,
          "duration": 0.125,
          "velocity": 80
        },
        {
          "pitch": 53,
          "onset": 193.0,
          "duration": 0.75,
          "velocity": 80
        },
        {
          "pitch": 55,
          "onset": 193.75,
          "duration": 0.25,
          "velocity": 80
        },
        {
          "pitch": 56,
          "onset": 194.0,
          "duration": 0.75,
          "velocity": 80
        },
        {
          "pitch": 55,
          "onset": 194.75,
          "duration": 0.25,
          "velocity": 80
        },
        {
          "pitch": 53,
          "onset": 195.0,
          "duration": 0.25,
          "velocity": 80
        },
        {
          "pitch": 51,
          "onset": 195.25,
          "duration": 0.25,
          "velocity": 80
        },
        {
          "pitch": 50,
          "onset": 195.5,
          "duration": 0.25,
          "velocity": 80
        },
        {
          "pitch": 51,
          "onset": 195.75,
          "duration": 0.125,
          "velocity": 80
        },
        {
          "pitch": 53,
          "onset": 195.875,
          "duration": 0.125,
          "velocity": 80
        },
        {
          "pitch": 47,
          "onset": 196.0,
          "duration": 0.0938,
          "velocity": 80
        },
        {
          "pitch": 48,
          "onset": 196.0938,
          "duration": 0.0938,
          "velocity": 80
        },
        {
          "pitch": 47,
          "onset": 196.1562,
          "duration": 0.0938,
          "velocity": 80
        },
        {
          "pitch": 48,
          "onset": 196.25,
          "duration": 0.0938,
          "velocity": 80
        },
        {
          "pitch": 47,
          "onset": 196.3438,
          "duration": 0.0938,
          "velocity": 80
        },
        {
          "pitch": 48,
          "onset": 196.4062,
          "duration": 0.0938,
          "velocity": 80
        },
        {
          "pitch": 47,
          "onset": 196.5,
          "duration": 0.25,
          "velocity": 80
        },
        {
          "pitch": 56,
          "onset": 196.75,
          "duration": 0.25,
          "velocity": 100
        },
        {
          "pitch": 62,
          "onset": 197.0,
          "duration": 0.5,
          "velocity": 100
        },
        {
          "pitch": 63,
          "onset": 197.5,
          "duration": 0.125,
          "velocity": 100
        },
        {
          "pitch": 62,
          "onset": 197.625,
          "duration": 0.125,
          "velocity": 100
        },
        {
          "pitch": 60,
          "onset": 197.75,
          "duration": 0.125,
          "velocity": 100
        },
        {
          "pitch": 62,
          "onset": 197.875,
          "duration": 0.125,
          "velocity": 100
        },
        {
          "pitch": 63,
          "onset": 198.0,
          "duration": 0.75,
          "velocity": 100
        },
        {
          "pitch": 48,
          "onset": 198.75,
          "duration": 0.25,
          "velocity": 100
        },
        {
          "pitch": 43,
          "onset": 199.0,
          "duration": 0.75,
          "velocity": 100
        },
        {
          "pitch": 44,
          "onset": 199.75,
          "duration": 0.125,
          "velocity": 100
        },
        {
          "pitch": 46,
          "onset": 199.875,
          "duration": 0.125,
          "velocity": 100
        },
        {
          "pitch": 55,
          "onset": 200.75,
          "duration": 0.25,
          "velocity": 100
        },
        {
          "pitch": 53,
          "onset": 201.0,
          "duration": 0.75,
          "velocity": 100
        },
        {
          "pitch": 63,
          "onset": 201.75,
          "duration": 0.25,
          "velocity": 100
        },
        {
          "pitch": 62,
          "onset": 202.0,
          "duration": 0.75,
          "velocity": 100
        },
        {
          "pitch": 60,
          "onset": 202.75,
          "duration": 0.25,
          "velocity": 100
        },
        {
          "pitch": 62,
          "onset": 203.0,
          "duration": 0.25,
          "velocity": 100
        },
        {
          "pitch": 59,
          "onset": 203.25,
          "duration": 0.25,
          "velocity": 100
        },
        {
          "pitch": 60,
          "onset": 203.5,
          "duration": 0.5,
          "velocity": 100
        },
        {
          "pitch": 53,
          "onset": 204.0,
          "duration": 0.75,
          "velocity": 100
        },
        {
          "pitch": 59,
          "onset": 204.25,
          "duration": 0.5,
          "velocity": 100
        },
        {
          "pitch": 55,
          "onset": 204.75,
          "duration": 0.25,
          "velocity": 100
        },
        {
          "pitch": 56,
          "onset": 205.0,
          "duration": 0.25,
          "velocity": 100
        },
        {
          "pitch": 55,
          "onset": 205.25,
          "duration": 0.25,
          "velocity": 100
        },
        {
          "pitch": 53,
          "onset": 205.5,
          "duration": 0.25,
          "velocity": 100
        },
        {
          "pitch": 51,
          "onset": 205.75,
          "duration": 0.25,
          "velocity": 100
        },
        {
          "pitch": 50,
          "onset": 206.0,
          "duration": 0.25,
          "velocity": 100
        },
        {
          "pitch": 48,
          "onset": 206.25,
          "duration": 0.25,
          "velocity": 100
        },
        {
          "pitch": 47,
          "onset": 206.5,
          "duration": 0.25,
          "velocity": 100
        },
        {
          "pitch": 48,
          "onset": 206.75,
          "duration": 0.25,
          "velocity": 100
        },
        {
          "pitch": 50,
          "onset": 207.0,
          "duration": 0.25,
          "velocity": 100
        },
        {
          "pitch": 51,
          "onset": 207.25,
          "duration": 0.25,
          "velocity": 100
        },
        {
          "pitch": 53,
          "onset": 207.5,
          "duration": 0.25,
          "velocity": 100
        },
        {
          "pitch": 50,
          "onset": 207.75,
          "duration": 0.25,
          "velocity": 100
        },
        {
          "pitch": 59,
          "onset": 208.75,
          "duration": 0.25,
          "velocity": 100
        },
        {
          "pitch": 60,
          "onset": 209.0,
          "duration": 0.25,
          "velocity": 100
        },
        {
          "pitch": 59,
          "onset": 209.25,
          "duration": 0.25,
          "velocity": 100
        },
        {
          "pitch": 57,
          "onset": 209.5,
          "duration": 0.25,
          "velocity": 100
        },
        {
          "pitch": 55,
          "onset": 209.75,
          "duration": 0.25,
          "velocity": 100
        },
        {
          "pitch": 60,
          "onset": 210.0,
          "duration": 1.5,
          "velocity": 100
        },
        {
          "pitch": 54,
          "onset": 211.5,
          "duration": 0.5,
          "velocity": 100
        },
        {
          "pitch": 55,
          "onset": 212.0,
          "duration": 0.75,
          "velocity": 100
        },
        {
          "pitch": 63,
          "onset": 212.75,
          "duration": 0.25,
          "velocity": 100
        },
        {
          "pitch": 62,
          "onset": 213.0,
          "duration": 0.25,
          "velocity": 100
        },
        {
          "pitch": 63,
          "onset": 213.25,
          "duration": 0.25,
          "velocity": 100
        },
        {
          "pitch": 65,
          "onset": 213.5,
          "duration": 0.25,
          "velocity": 100
        },
        {
          "pitch": 62,
          "onset": 213.75,
          "duration": 0.25,
          "velocity": 100
        },
        {
          "pitch": 59,
          "onset": 214.0,
          "duration": 1.5,
          "velocity": 100
        },
        {
          "pitch": 60,
          "onset": 215.5,
          "duration": 0.5,
          "velocity": 90
        },
        {
          "pitch": 60,
          "onset": 216.0,
          "duration": 0.75,
          "velocity": 80
        },
        {
          "pitch": 55,
          "onset": 216.75,
          "duration": 0.25,
          "velocity": 80
        },
        {
          "pitch": 51,
          "onset": 217.0,
          "duration": 0.75,
          "velocity": 80
        },
        {
          "pitch": 48,
          "onset": 217.75,
          "duration": 0.25,
          "velocity": 80
        },
        {
          "pitch": 51,
          "onset": 218.0,
          "duration": 1.25,
          "velocity": 100
        },
        {
          "pitch": 60,
          "onset": 218.25,
          "duration": 1.0,
          "velocity": 100
        },
        {
          "pitch": 62,
          "onset": 219.5,
          "duration": 0.5,
          "velocity": 100
        },
        {
          "pitch": 59,
          "onset": 220.0,
          "duration": 1.0,
          "velocity": 100
        },
        {
          "pitch": 62,
          "onset": 220.25,
          "duration": 1.0,
          "velocity": 100
        },
        {
          "pitch": 60,
          "onset": 221.25,
          "duration": 0.25,
          "velocity": 100
        },
        {
          "pitch": 62,
          "onset": 221.5,
          "duration": 0.25,
          "velocity": 100
        },
        {
          "pitch": 63,
          "onset": 221.75,
          "duration": 0.25,
          "velocity": 100
        },
        {
          "pitch": 59,
          "onset": 222.0,
          "duration": 0.75,
          "velocity": 100
        },
        {
          "pitch": 56,
          "onset": 222.75,
          "duration": 0.25,
          "velocity": 100
        },
        {
          "pitch": 55,
          "onset": 223.0,
          "duration": 0.75,
          "velocity": 100
        },
        {
          "pitch": 53,
          "onset": 223.75,
          "duration": 0.25,
          "velocity": 100
        },
        {
          "pitch": 51,
          "onset": 224.0,
          "duration": 0.75,
          "velocity": 100
        },
        {
          "pitch": 55,
          "onset": 224.75,
          "duration": 0.25,
          "velocity": 100
        },
        {
          "pitch": 60,
          "onset": 225.0,
          "duration": 0.25,
          "velocity": 100
        },
        {
          "pitch": 50,
          "onset": 225.25,
          "duration": 0.25,
          "velocity": 100
        },
        {
          "pitch": 51,
          "onset": 225.5,
          "duration": 0.25,
          "velocity": 100
        },
        {
          "pitch": 53,
          "onset": 225.75,
          "duration": 0.25,
          "velocity": 100
        },
        {
          "pitch": 47,
          "onset": 226.0,
          "duration": 0.0938,
          "velocity": 100
        },
        {
          "pitch": 48,
          "onset": 226.0938,
          "duration": 0.0938,
          "velocity": 100
        },
        {
          "pitch": 47,
          "onset": 226.1562,
          "duration": 0.0938,
          "velocity": 100
        },
        {
          "pitch": 48,
          "onset": 226.25,
          "duration": 0.0938,
          "velocity": 100
        },
        {
          "pitch": 47,
          "onset": 226.3438,
          "duration": 0.0938,
          "velocity": 100
        },
        {
          "pitch": 48,
          "onset": 226.4062,
          "duration": 0.0938,
          "velocity": 100
        },
        {
          "pitch": 47,
          "onset": 226.5,
          "duration": 0.25,
          "velocity": 100
        },
        {
          "pitch": 55,
          "onset": 226.75,
          "duration": 0.25,
          "velocity": 100
        },
        {
          "pitch": 62,
          "onset": 227.0,
          "duration": 0.75,
          "velocity": 100
        },
        {
          "pitch": 63,
          "onset": 227.75,
          "duration": 0.125,
          "velocity": 100
        },
        {
          "pitch": 65,
          "onset": 227.875,
          "duration": 0.125,
          "velocity": 100
        },
        {
          "pitch": 63,
          "onset": 228.0,
          "duration": 1.0,
          "velocity": 100
        },
        {
          "pitch": 62,
          "onset": 229.75,
          "duration": 0.25,
          "velocity": 100
        },
        {
          "pitch": 60,
          "onset": 230.0,
          "duration": 0.75,
          "velocity": 100
        },
        {
          "pitch": 58,
          "onset": 230.75,
          "duration": 0.125,
          "velocity": 100
        },
        {
          "pitch": 57,
          "onset": 230.875,
          "duration": 0.125,
          "velocity": 100
        },
        {
          "pitch": 58,
          "onset": 231.0,
          "duration": 0.75,
          "velocity": 100
        },
        {
          "pitch": 60,
          "onset": 231.75,
          "duration": 0.25,
          "velocity": 100
        },
        {
          "pitch": 57,
          "onset": 232.0,
          "duration": 1.25,
          "velocity": 100
        },
        {
          "pitch": 57,
          "onset": 233.25,
          "duration": 0.25,
          "velocity": 80
        },
        {
          "pitch": 58,
          "onset": 233.5,
          "duration": 0.25,
          "velocity": 80
        },
        {
          "pitch": 60,
          "onset": 233.75,
          "duration": 0.25,
          "velocity": 80
        },
        {
          "pitch": 53,
          "onset": 234.0,
          "duration": 0.75,
          "velocity": 80
        },
        {
          "pitch": 55,
          "onset": 234.75,
          "duration": 0.125,
          "velocity": 80
        },
        {
          "pitch": 57,
          "onset": 234.875,
          "duration": 0.125,
          "velocity": 80
        },
        {
          "pitch": 57,
          "onset": 235.0,
          "duration": 0.0938,
          "velocity": 80
        },
        {
          "pitch": 58,
          "onset": 235.0938,
          "duration": 0.0938,
          "velocity": 80
        },
        {
          "pitch": 57,
          "onset": 235.1562,
          "duration": 0.0938,
          "velocity": 80
        },
        {
          "pitch": 58,
          "onset": 235.25,
          "duration": 0.0938,
          "velocity": 80
        },
        {
          "pitch": 57,
          "onset": 235.3438,
          "duration": 0.0938,
          "velocity": 80
        },
        {
          "pitch": 58,
          "onset": 235.4062,
          "duration": 0.0938,
          "velocity": 80
        },
        {
          "pitch": 57,
          "onset": 235.5,
          "duration": 0.25,
          "velocity": 80
        },
        {
          "pitch": 55,
          "onset": 235.75,
          "duration": 0.125,
          "velocity": 80
        },
        {
          "pitch": 57,
          "onset": 235.875,
          "duration": 0.125,
          "velocity": 80
        },
        {
          "pitch": 58,
          "onset": 236.0,
          "duration": 1.0,
          "velocity": 80
        },
        {
          "pitch": 58,
          "onset": 237.25,
          "duration": 0.25,
          "velocity": 80
        },
        {
          "pitch": 56,
          "onset": 237.5,
          "duration": 0.25,
          "velocity": 80
        },
        {
          "pitch": 55,
          "onset": 237.75,
          "duration": 0.25,
          "velocity": 80
        },
        {
          "pitch": 53,
          "onset": 238.0,
          "duration": 0.75,
          "velocity": 80
        },
        {
          "pitch": 51,
          "onset": 238.75,
          "duration": 0.25,
          "velocity": 80
        },
        {
          "pitch": 53,
          "onset": 239.0,
          "duration": 0.75,
          "velocity": 80
        },
        {
          "pitch": 55,
          "onset": 239.75,
          "duration": 0.25,
          "velocity": 80
        },
        {
          "pitch": 51,
          "onset": 240.0,
          "duration": 1.0,
          "velocity": 100
        },
        {
          "pitch": 56,
          "onset": 240.0,
          "duration": 1.0,
          "velocity": 100
        },
        {
          "pitch": 56,
          "onset": 242.0,
          "duration": 1.0,
          "velocity": 80
        },
        {
          "pitch": 50,
          "onset": 244.0,
          "duration": 0.75,
          "velocity": 100
        },
        {
          "pitch": 56,
          "onset": 244.25,
          "duration": 0.75,
          "velocity": 100
        },
        {
          "pitch": 51,
          "onset": 244.75,
          "duration": 0.125,
          "velocity": 80
        },
        {
          "pitch": 50,
          "onset": 244.875,
          "duration": 0.125,
          "velocity": 80
        },
        {
          "pitch": 48,
          "onset": 245.0,
          "duration": 0.5,
          "velocity": 80
        },
        {
          "pitch": 50,
          "onset": 245.5,
          "duration": 0.25,
          "velocity": 80
        },
        {
          "pitch": 46,
          "onset": 245.75,
          "duration": 0.25,
          "velocity": 80
        },
        {
          "pitch": 55,
          "onset": 246.0,
          "duration": 0.625,
          "velocity": 80
        },
        {
          "pitch": 53,
          "onset": 246.625,
          "duration": 0.125,
          "velocity": 80
        },
        {
          "pitch": 51,
          "onset": 246.75,
          "duration": 0.125,
          "velocity": 80
        },
        {
          "pitch": 50,
          "onset": 246.875,
          "duration": 0.125,
          "velocity": 80
        },
        {
          "pitch": 51,
          "onset": 247.0,
          "duration": 0.75,
          "velocity": 80
        },
        {
          "pitch": 55,
          "onset": 247.75,
          "duration": 0.25,
          "velocity": 80
        },
        {
          "pitch": 43,
          "onset": 248.625,
          "duration": 0.125,
          "velocity": 80
        },
        {
          "pitch": 44,
          "onset": 248.75,
          "duration": 0.125,
          "velocity": 80
        },
        {
          "pitch": 46,
          "onset": 248.875,
          "duration": 0.125,
          "velocity": 80
        },
        {
          "pitch": 48,
          "onset": 249.0,
          "duration": 0.25,
          "velocity": 80
        },
        {
          "pitch": 46,
          "onset": 249.25,
          "duration": 0.25,
          "velocity": 80
        },
        {
          "pitch": 56,
          "onset": 249.5,
          "duration": 0.5,
          "velocity": 80
        },
        {
          "pitch": 55,
          "onset": 250.0,
          "duration": 1.0,
          "velocity": 80
        },
        {
          "pitch": 53,
          "onset": 251.0,
          "duration": 0.0938,
          "velocity": 80
        },
        {
          "pitch": 55,
          "onset": 251.0938,
          "duration": 0.0938,
          "velocity": 80
        },
        {
          "pitch": 53,
          "onset": 251.1562,
          "duration": 0.0938,
          "velocity": 80
        },
        {
          "pitch": 52,
          "onset": 251.25,
          "duration": 0.25,
          "velocity": 80
        },
        {
          "pitch": 53,
          "onset": 251.5,
          "duration": 0.5,
          "velocity": 80
        },
        {
          "pitch": 46,
          "onset": 252.0,
          "duration": 1.25,
          "velocity": 100
        },
        {
          "pitch": 52,
          "onset": 252.25,
          "duration": 0.75,
          "velocity": 100
        },
        {
          "pitch": 46,
          "onset": 253.25,
          "duration": 0.25,
          "velocity": 80
        },
        {
          "pitch": 44,
          "onset": 253.5,
          "duration": 0.25,
          "velocity": 80
        },
        {
          "pitch": 43,
          "onset": 253.75,
          "duration": 0.25,
          "velocity": 80
        },
        {
          "pitch": 44,
          "onset": 254.0,
          "duration": 0.75,
          "velocity": 80
        },
        {
          "pitch": 53,
          "onset": 254.75,
          "duration": 0.25,
          "velocity": 80
        },
        {
          "pitch": 55,
          "onset": 255.0,
          "duration": 0.75,
          "velocity": 80
        },
        {
          "pitch": 56,
          "onset": 255.75,
          "duration": 0.25,
          "velocity": 80
        },
        {
          "pitch": 52,
          "onset": 256.0,
          "duration": 0.75,
          "velocity": 80
        },
        {
          "pitch": 58,
          "onset": 256.75,
          "duration": 0.25,
          "velocity": 80
        },
        {
          "pitch": 56,
          "onset": 257.0,
          "duration": 0.5,
          "velocity": 80
        },
        {
          "pitch": 58,
          "onset": 257.5,
          "duration": 0.25,
          "velocity": 80
        },
        {
          "pitch": 55,
          "onset": 257.75,
          "duration": 0.25,
          "velocity": 80
        },
        {
          "pitch": 55,
          "onset": 258.0,
          "duration": 0.0938,
          "velocity": 80
        },
        {
          "pitch": 56,
          "onset": 258.0938,
          "duration": 0.0938,
          "velocity": 80
        },
        {
          "pitch": 55,
          "onset": 258.1562,
          "duration": 0.0938,
          "velocity": 80
        },
        {
          "pitch": 56,
          "onset": 258.25,
          "duration": 0.0938,
          "velocity": 80
        },
        {
          "pitch": 55,
          "onset": 258.3438,
          "duration": 0.0938,
          "velocity": 80
        },
        {
          "pitch": 56,
          "onset": 258.4062,
          "duration": 0.0938,
          "velocity": 80
        },
        {
          "pitch": 55,
          "onset": 258.5,
          "duration": 1.0,
          "velocity": 80
        },
        {
          "pitch": 53,
          "onset": 259.5,
          "duration": 0.5,
          "velocity": 80
        },
        {
          "pitch": 53,
          "onset": 260.0,
          "duration": 1.25,
          "velocity": 80
        },
        {
          "pitch": 53,
          "onset": 261.25,
          "duration": 0.25,
          "velocity": 80
        },
        {
          "pitch": 51,
          "onset": 261.5,
          "duration": 0.25,
          "velocity": 80
        },
        {
          "pitch": 50,
          "onset": 261.75,
          "duration": 0.25,
          "velocity": 80
        },
        {
          "pitch": 51,
          "onset": 262.0,
          "duration": 0.75,
          "velocity": 80
        },
        {
          "pitch": 60,
          "onset": 262.75,
          "duration": 0.25,
          "velocity": 80
        },
        {
          "pitch": 58,
          "onset": 263.0,
          "duration": 0.25,
          "velocity": 80
        },
        {
          "pitch": 57,
          "onset": 263.25,
          "duration": 0.25,
          "velocity": 80
        },
        {
          "pitch": 55,
          "onset": 263.5,
          "duration": 0.25,
          "velocity": 80
        },
        {
          "pitch": 53,
          "onset": 263.75,
          "duration": 0.25,
          "velocity": 80
        },
        {
          "pitch": 58,
          "onset": 264.0,
          "duration": 0.75,
          "velocity": 80
        },
        {
          "pitch": 56,
          "onset": 264.75,
          "duration": 0.125,
          "velocity": 80
        },
        {
          "pitch": 55,
          "onset": 264.875,
          "duration": 0.125,
          "velocity": 80
        },
        {
          "pitch": 53,
          "onset": 265.0,
          "duration": 0.75,
          "velocity": 80
        },
        {
          "pitch": 55,
          "onset": 265.75,
          "duration": 0.25,
          "velocity": 80
        },
        {
          "pitch": 56,
          "onset": 266.0,
          "duration": 0.75,
          "velocity": 80
        },
        {
          "pitch": 55,
          "onset": 266.75,
          "duration": 0.25,
          "velocity": 80
        },
        {
          "pitch": 53,
          "onset": 267.0,
          "duration": 0.25,
          "velocity": 80
        },
        {
          "pitch": 51,
          "onset": 267.25,
          "duration": 0.25,
          "velocity": 80
        },
        {
          "pitch": 50,
          "onset": 267.5,
          "duration": 0.25,
          "velocity": 80
        },
        {
          "pitch": 51,
          "onset": 267.75,
          "duration": 0.125,
          "velocity": 80
        },
        {
          "pitch": 53,
          "onset": 267.875,
          "duration": 0.125,
          "velocity": 80
        },
        {
          "pitch": 47,
          "onset": 268.0,
          "duration": 0.0938,
          "velocity": 80
        },
        {
          "pitch": 48,
          "onset": 268.0938,
          "duration": 0.0938,
          "velocity": 80
        },
        {
          "pitch": 47,
          "onset": 268.1562,
          "duration": 0.0938,
          "velocity": 80
        },
        {
          "pitch": 48,
          "onset": 268.25,
          "duration": 0.0938,
          "velocity": 80
        },
        {
          "pitch": 47,
          "onset": 268.3438,
          "duration": 0.0938,
          "velocity": 80
        },
        {
          "pitch": 48,
          "onset": 268.4062,
          "duration": 0.0938,
          "velocity": 80
        },
        {
          "pitch": 47,
          "onset": 268.5,
          "duration": 0.25,
          "velocity": 80
        },
        {
          "pitch": 56,
          "onset": 268.75,
          "duration": 0.25,
          "velocity": 100
        },
        {
          "pitch": 62,
          "onset": 269.0,
          "duration": 0.5,
          "velocity": 100
        },
        {
          "pitch": 63,
          "onset": 269.5,
          "duration": 0.125,
          "velocity": 100
        },
        {
          "pitch": 62,
          "onset": 269.625,
          "duration": 0.125,
          "velocity": 100
        },
        {
          "pitch": 60,
          "onset": 269.75,
          "duration": 0.125,
          "velocity": 100
        },
        {
          "pitch": 62,
          "onset": 269.875,
          "duration": 0.125,
          "velocity": 100
        },
        {
          "pitch": 63,
          "onset": 270.0,
          "duration": 0.75,
          "velocity": 100
        },
        {
          "pitch": 48,
          "onset": 270.75,
          "duration": 0.25,
          "velocity": 100
        },
        {
          "pitch": 43,
          "onset": 271.0,
          "duration": 0.75,
          "velocity": 100
        },
        {
          "pitch": 44,
          "onset": 271.75,
          "duration": 0.125,
          "velocity": 100
        },
        {
          "pitch": 46,
          "onset": 271.875,
          "duration": 0.125,
          "velocity": 100
        },
        {
          "pitch": 55,
          "onset": 272.75,
          "duration": 0.25,
          "velocity": 100
        },
        {
          "pitch": 53,
          "onset": 273.0,
          "duration": 0.75,
          "velocity": 100
        },
        {
          "pitch": 63,
          "onset": 273.75,
          "duration": 0.25,
          "velocity": 100
        },
        {
          "pitch": 62,
          "onset": 274.0,
          "duration": 0.75,
          "velocity": 100
        },
        {
          "pitch": 60,
          "onset": 274.75,
          "duration": 0.25,
          "velocity": 100
        },
        {
          "pitch": 62,
          "onset": 275.0,
          "duration": 0.25,
          "velocity": 100
        },
        {
          "pitch": 59,
          "onset": 275.25,
          "duration": 0.25,
          "velocity": 100
        },
        {
          "pitch": 60,
          "onset": 275.5,
          "duration": 0.5,
          "velocity": 100
        },
        {
          "pitch": 53,
          "onset": 276.0,
          "duration": 0.75,
          "velocity": 100
        },
        {
          "pitch": 59,
          "onset": 276.25,
          "duration": 0.5,
          "velocity": 100
        },
        {
          "pitch": 55,
          "onset": 276.75,
          "duration": 0.25,
          "velocity": 100
        },
        {
          "pitch": 56,
          "onset": 277.0,
          "duration": 0.25,
          "velocity": 100
        },
        {
          "pitch": 55,
          "onset": 277.25,
          "duration": 0.25,
          "velocity": 100
        },
        {
          "pitch": 53,
          "onset": 277.5,
          "duration": 0.25,
          "velocity": 100
        },
        {
          "pitch": 51,
          "onset": 277.75,
          "duration": 0.25,
          "velocity": 100
        },
        {
          "pitch": 50,
          "onset": 278.0,
          "duration": 0.25,
          "velocity": 100
        },
        {
          "pitch": 48,
          "onset": 278.25,
          "duration": 0.25,
          "velocity": 100
        },
        {
          "pitch": 47,
          "onset": 278.5,
          "duration": 0.25,
          "velocity": 100
        },
        {
          "pitch": 48,
          "onset": 278.75,
          "duration": 0.25,
          "velocity": 100
        },
        {
          "pitch": 50,
          "onset": 279.0,
          "duration": 0.25,
          "velocity": 100
        },
        {
          "pitch": 51,
          "onset": 279.25,
          "duration": 0.25,
          "velocity": 100
        },
        {
          "pitch": 53,
          "onset": 279.5,
          "duration": 0.25,
          "velocity": 100
        },
        {
          "pitch": 50,
          "onset": 279.75,
          "duration": 0.25,
          "velocity": 100
        },
        {
          "pitch": 59,
          "onset": 280.75,
          "duration": 0.25,
          "velocity": 100
        },
        {
          "pitch": 60,
          "onset": 281.0,
          "duration": 0.25,
          "velocity": 100
        },
        {
          "pitch": 59,
          "onset": 281.25,
          "duration": 0.25,
          "velocity": 100
        },
        {
          "pitch": 57,
          "onset": 281.5,
          "duration": 0.25,
          "velocity": 100
        },
        {
          "pitch": 55,
          "onset": 281.75,
          "duration": 0.25,
          "velocity": 100
        },
        {
          "pitch": 60,
          "onset": 282.0,
          "duration": 1.5,
          "velocity": 100
        },
        {
          "pitch": 54,
          "onset": 283.5,
          "duration": 0.5,
          "velocity": 100
        },
        {
          "pitch": 55,
          "onset": 284.0,
          "duration": 0.75,
          "velocity": 100
        },
        {
          "pitch": 63,
          "onset": 284.75,
          "duration": 0.25,
          "velocity": 100
        },
        {
          "pitch": 62,
          "onset": 285.0,
          "duration": 0.25,
          "velocity": 100
        },
        {
          "pitch": 63,
          "onset": 285.25,
          "duration": 0.25,
          "velocity": 100
        },
        {
          "pitch": 65,
          "onset": 285.5,
          "duration": 0.25,
          "velocity": 100
        },
        {
          "pitch": 62,
          "onset": 285.75,
          "duration": 0.25,
          "velocity": 100
        },
        {
          "pitch": 59,
          "onset": 286.0,
          "duration": 1.5,
          "velocity": 100
        },
        {
          "pitch": 60,
          "onset": 287.5,
          "duration": 0.5,
          "velocity": 90
        },
        {
          "pitch": 60,
          "onset": 288.0,
          "duration": 0.75,
          "velocity": 80
        },
        {
          "pitch": 55,
          "onset": 288.75,
          "duration": 0.25,
          "velocity": 80
        },
        {
          "pitch": 51,
          "onset": 289.0,
          "duration": 0.75,
          "velocity": 80
        },
        {
          "pitch": 48,
          "onset": 289.75,
          "duration": 0.5,
          "velocity": 100
        },
        {
          "pitch": 51,
          "onset": 290.25,
          "duration": 2.75,
          "velocity": 100
        },
        {
          "pitch": 60,
          "onset": 290.5,
          "duration": 2.5,
          "velocity": 100
        },
        {
          "pitch": 48,
          "onset": 295.25,
          "duration": 0.25,
          "velocity": 1
        }
      ]
    },
    {
      "role": "solo_1",
      "notes": [
        {
          "pitch": 48,
          "onset": 0.0,
          "duration": 0.25,
          "velocity": 1
        },
        {
          "pitch": 36,
          "onset": 4.0,
          "duration": 0.5,
          "velocity": 100
        },
        {
          "pitch": 43,
          "onset": 4.0,
          "duration": 0.5,
          "velocity": 100
        },
        {
          "pitch": 47,
          "onset": 7.0,
          "duration": 1.0,
          "velocity": 100
        },
        {
          "pitch": 48,
          "onset": 8.0,
          "duration": 1.25,
          "velocity": 100
        },
        {
          "pitch": 46,
          "onset": 9.25,
          "duration": 0.25,
          "velocity": 100
        },
        {
          "pitch": 44,
          "onset": 9.5,
          "duration": 0.25,
          "velocity": 100
        },
        {
          "pitch": 43,
          "onset": 9.75,
          "duration": 0.25,
          "velocity": 100
        },
        {
          "pitch": 41,
          "onset": 10.75,
          "duration": 0.25,
          "velocity": 100
        },
        {
          "pitch": 39,
          "onset": 12.0,
          "duration": 0.5,
          "velocity": 100
        },
        {
          "pitch": 36,
          "onset": 20.0,
          "duration": 0.5,
          "velocity": 100
        },
        {
          "pitch": 43,
          "onset": 24.0,
          "duration": 0.5,
          "velocity": 100
        },
        {
          "pitch": 44,
          "onset": 28.0,
          "duration": 0.5,
          "velocity": 100
        },
        {
          "pitch": 40,
          "onset": 32.0,
          "duration": 0.5,
          "velocity": 100
        },
        {
          "pitch": 41,
          "onset": 36.0,
          "duration": 0.5,
          "velocity": 100
        },
        {
          "pitch": 48,
          "onset": 36.0,
          "duration": 0.5,
          "velocity": 100
        },
        {
          "pitch": 41,
          "onset": 43.0,
          "duration": 0.25,
          "velocity": 80
        },
        {
          "pitch": 43,
          "onset": 43.25,
          "duration": 0.25,
          "velocity": 80
        },
        {
          "pitch": 44,
          "onset": 43.5,
          "duration": 0.25,
          "velocity": 80
        },
        {
          "pitch": 41,
          "onset": 43.75,
          "duration": 0.25,
          "velocity": 80
        },
        {
          "pitch": 38,
          "onset": 44.0,
          "duration": 0.5,
          "velocity": 100
        },
        {
          "pitch": 46,
          "onset": 44.0,
          "duration": 0.5,
          "velocity": 100
        },
        {
          "pitch": 56,
          "onset": 48.0,
          "duration": 1.0,
          "velocity": 100
        },
        {
          "pitch": 51,
          "onset": 52.0,
          "duration": 1.0,
          "velocity": 100
        },
        {
          "pitch": 47,
          "onset": 54.0,
          "duration": 1.0,
          "velocity": 100
        },
        {
          "pitch": 48,
          "onset": 56.0,
          "duration": 1.0,
          "velocity": 100
        },
        {
          "pitch": 36,
          "onset": 57.0,
          "duration": 0.875,
          "velocity": 100
        },
        {
          "pitch": 36,
          "onset": 60.0,
          "duration": 0.5,
          "velocity": 100
        },
        {
          "pitch": 45,
          "onset": 60.0,
          "duration": 0.5,
          "velocity": 100
        },
        {
          "pitch": 46,
          "onset": 68.0,
          "duration": 0.5,
          "velocity": 110
        },
        {
          "pitch": 50,
          "onset": 70.0,
          "duration": 2.0,
          "velocity": 110
        },
        {
          "pitch": 36,
          "onset": 76.0,
          "duration": 0.5,
          "velocity": 100
        },
        {
          "pitch": 43,
          "onset": 76.0,
          "duration": 0.5,
          "velocity": 100
        },
        {
          "pitch": 47,
          "onset": 79.0,
          "duration": 1.0,
          "velocity": 100
        },
        {
          "pitch": 48,
          "onset": 80.0,
          "duration": 1.25,
          "velocity": 100
        },
        {
          "pitch": 46,
          "onset": 81.25,
          "duration": 0.25,
          "velocity": 100
        },
        {
          "pitch": 44,
          "onset": 81.5,
          "duration": 0.25,
          "velocity": 100
        },
        {
          "pitch": 43,
          "onset": 81.75,
          "duration": 0.25,
          "velocity": 100
        },
        {
          "pitch": 41,
          "onset": 82.75,
          "duration": 0.25,
          "velocity": 100
        },
        {
          "pitch": 39,
          "onset": 84.0,
          "duration": 0.5,
          "velocity": 100
        },
        {
          "pitch": 36,
          "onset": 92.0,
          "duration": 0.5,
          "velocity": 100
        },
        {
          "pitch": 43,
          "onset": 96.0,
          "duration": 0.5,
          "velocity": 100
        },
        {
          "pitch": 44,
          "onset": 100.0,
          "duration": 0.5,
          "velocity": 100
        },
        {
          "pitch": 40,
          "onset": 104.0,
          "duration": 0.5,
          "velocity": 100
        },
        {
          "pitch": 41,
          "onset": 108.0,
          "duration": 0.5,
          "velocity": 100
        },
        {
          "pitch": 48,
          "onset": 108.0,
          "duration": 0.5,
          "velocity": 100
        },
        {
          "pitch": 41,
          "onset": 115.0,
          "duration": 0.25,
          "velocity": 80
        },
        {
          "pitch": 43,
          "onset": 115.25,
          "duration": 0.25,
          "velocity": 80
        },
        {
          "pitch": 44,
          "onset": 115.5,
          "duration": 0.25,
          "velocity": 80
        },
        {
          "pitch": 41,
          "onset": 115.75,
          "duration": 0.25,
          "velocity": 80
        },
        {
          "pitch": 38,
          "onset": 116.0,
          "duration": 0.5,
          "velocity": 100
        },
        {
          "pitch": 46,
          "onset": 116.0,
          "duration": 0.5,
          "velocity": 100
        },
        {
          "pitch": 56,
          "onset": 120.0,
          "duration": 1.0,
          "velocity": 100
        },
        {
          "pitch": 51,
          "onset": 124.0,
          "duration": 1.0,
          "velocity": 100
        },
        {
          "pitch": 47,
          "onset": 126.0,
          "duration": 1.0,
          "velocity": 100
        },
        {
          "pitch": 48,
          "onset": 128.0,
          "duration": 1.0,
          "velocity": 100
        },
        {
          "pitch": 36,
          "onset": 129.0,
          "duration": 0.875,
          "velocity": 100
        },
        {
          "pitch": 36,
          "onset": 132.0,
          "duration": 0.5,
          "velocity": 100
        },
        {
          "pitch": 45,
          "onset": 132.0,
          "duration": 0.5,
          "velocity": 100
        },
        {
          "pitch": 46,
          "onset": 140.0,
          "duration": 0.5,
          "velocity": 110
        },
        {
          "pitch": 50,
          "onset": 142.0,
          "duration": 2.0,
          "velocity": 110
        },
        {
          "pitch": 43,
          "onset": 148.0,
          "duration": 0.5,
          "velocity": 100
        },
        {
          "pitch": 36,
          "onset": 157.0,
          "duration": 0.875,
          "velocity": 100
        },
        {
          "pitch": 51,
          "onset": 160.0,
          "duration": 1.0,
          "velocity": 100
        },
        {
          "pitch": 50,
          "onset": 164.0,
          "duration": 1.0,
          "velocity": 80
        },
        {
          "pitch": 38,
          "onset": 165.0,
          "duration": 0.375,
          "velocity": 80
        },
        {
          "pitch": 48,
          "onset": 168.0,
          "duration": 1.25,
          "velocity": 100
        },
        {
          "pitch": 48,
          "onset": 169.25,
          "duration": 0.25,
          "velocity": 80
        },
        {
          "pitch": 50,
          "onset": 169.5,
          "duration": 0.25,
          "velocity": 80
        },
        {
          "pitch": 51,
          "onset": 169.75,
          "duration": 0.25,
          "velocity": 80
        },
        {
          "pitch": 50,
          "onset": 170.0,
          "duration": 0.75,
          "velocity": 80
        },
        {
          "pitch": 50,
          "onset": 170.75,
          "duration": 0.25,
          "velocity": 80
        },
        {
          "pitch": 51,
          "onset": 171.0,
          "duration": 0.75,
          "velocity": 80
        },
        {
          "pitch": 53,
          "onset": 171.75,
          "duration": 0.25,
          "velocity": 80
        },
        {
          "pitch": 46,
          "onset": 172.0,
          "duration": 0.5,
          "velocity": 100
        },
        {
          "pitch": 51,
          "onset": 174.0,
          "duration": 0.5,
          "velocity": 80
        },
        {
          "pitch": 37,
          "onset": 176.0,
          "duration": 0.75,
          "velocity": 80
        },
        {
          "pitch": 36,
          "onset": 180.0,
          "duration": 0.5,
          "velocity": 100
        },
        {
          "pitch": 48,
          "onset": 186.0,
          "duration": 1.5,
          "velocity": 80
        },
        {
          "pitch": 45,
          "onset": 188.0,
          "duration": 1.0,
          "velocity": 80
        },
        {
          "pitch": 50,
          "onset": 192.0,
          "duration": 1.0,
          "velocity": 80
        },
        {
          "pitch": 44,
          "onset": 200.0,
          "duration": 0.875,
          "velocity": 100
        },
        {
          "pitch": 43,
          "onset": 204.0,
          "duration": 0.5,
          "velocity": 100
        },
        {
          "pitch": 44,
          "onset": 208.0,
          "duration": 0.875,
          "velocity": 100
        },
        {
          "pitch": 45,
          "onset": 211.5,
          "duration": 0.5,
          "velocity": 100
        },
        {
          "pitch": 43,
          "onset": 212.0,
          "duration": 0.75,
          "velocity": 100
        },
        {
          "pitch": 50,
          "onset": 214.0,
          "duration": 2.0,
          "velocity": 100
        },
        {
          "pitch": 36,
          "onset": 218.0,
          "duration": 0.5,
          "velocity": 100
        },
        {
          "pitch": 43,
          "onset": 218.0,
          "duration": 0.5,
          "velocity": 100
        },
        {
          "pitch": 43,
          "onset": 220.0,
          "duration": 0.5,
          "velocity": 100
        },
        {
          "pitch": 36,
          "onset": 229.0,
          "duration": 0.875,
          "velocity": 100
        },
        {
          "pitch": 51,
          "onset": 232.0,
          "duration": 1.0,
          "velocity": 100
        },
        {
          "pitch": 50,
          "onset": 236.0,
          "duration": 1.0,
          "velocity": 80
        },
        {
          "pitch": 38,
          "onset": 237.0,
          "duration": 0.375,
          "velocity": 80
        },
        {
          "pitch": 48,
          "onset": 240.0,
          "duration": 1.25,
          "velocity": 100
        },
        {
          "pitch": 48,
          "onset": 241.25,
          "duration": 0.25,
          "velocity": 80
        },
        {
          "pitch": 50,
          "onset": 241.5,
          "duration": 0.25,
          "velocity": 80
        },
        {
          "pitch": 51,
          "onset": 241.75,
          "duration": 0.25,
          "velocity": 80
        },
        {
          "pitch": 50,
          "onset": 242.0,
          "duration": 0.75,
          "velocity": 80
        },
        {
          "pitch": 50,
          "onset": 242.75,
          "duration": 0.25,
          "velocity": 80
        },
        {
          "pitch": 51,
          "onset": 243.0,
          "duration": 0.75,
          "velocity": 80
        },
        {
          "pitch": 53,
          "onset": 243.75,
          "duration": 0.25,
          "velocity": 80
        },
        {
          "pitch": 46,
          "onset": 244.0,
          "duration": 0.5,
          "velocity": 100
        },
        {
          "pitch": 51,
          "onset": 246.0,
          "duration": 0.5,
          "velocity": 80
        },
        {
          "pitch": 37,
          "onset": 248.0,
          "duration": 0.75,
          "velocity": 80
        },
        {
          "pitch": 36,
          "onset": 252.0,
          "duration": 0.5,
          "velocity": 100
        },
        {
          "pitch": 48,
          "onset": 258.0,
          "duration": 1.5,
          "velocity": 80
        },
        {
          "pitch": 45,
          "onset": 260.0,
          "duration": 1.0,
          "velocity": 80
        },
        {
          "pitch": 50,
          "onset": 264.0,
          "duration": 1.0,
          "velocity": 80
        },
        {
          "pitch": 44,
          "onset": 272.0,
          "duration": 0.875,
          "velocity": 100
        },
        {
          "pitch": 43,
          "onset": 276.0,
          "duration": 0.5,
          "velocity": 100
        },
        {
          "pitch": 44,
          "onset": 280.0,
          "duration": 0.875,
          "velocity": 100
        },
        {
          "pitch": 45,
          "onset": 283.5,
          "duration": 0.5,
          "velocity": 100
        },
        {
          "pitch": 43,
          "onset": 284.0,
          "duration": 0.75,
          "velocity": 100
        },
        {
          "pitch": 50,
          "onset": 286.0,
          "duration": 2.0,
          "velocity": 100
        },
        {
          "pitch": 36,
          "onset": 290.25,
          "duration": 0.75,
          "velocity": 100
        },
        {
          "pitch": 43,
          "onset": 290.25,
          "duration": 0.75,
          "velocity": 100
        }
      ]
    }
  ]
}