{
  "bwv": 540,
  "category": "organ_pf",
  "instrument": "organ",
  "form": "toccata",
  "movement": null,
  "ticks_per_beat": 384,
  "duration_seconds": 516.1,
  "tempos": [
    {
      "tick": 0,
      "bpm": 80
    },
    {
      "tick": 30528,
      "bpm": 80
    },
    {
      "tick": 30720,
      "bpm": 75
    },
    {
      "tick": 30912,
      "bpm": 75
    },
    {
      "tick": 31008,
      "bpm": 70
    },
    {
      "tick": 31200,
      "bpm": 80
    },
    {
      "tick": 45504,
      "bpm": 80
    },
    {
      "tick": 45696,
      "bpm": 75
    },
    {
      "tick": 45888,
      "bpm": 70
    },
    {
      "tick": 45984,
      "bpm": 60
    },
    {
      "tick": 46272,
      "bpm": 75
    },
    {
      "tick": 47232,
      "bpm": 80
    },
    {
      "tick": 77760,
      "bpm": 80
    },
    {
      "tick": 77952,
      "bpm": 75
    },
    {
      "tick": 78144,
      "bpm": 75
    },
    {
      "tick": 78240,
      "bpm": 70
    },
    {
      "tick": 78432,
      "bpm": 80
    },
    {
      "tick": 96192,
      "bpm": 75
    },
    {
      "tick": 96384,
      "bpm": 70
    },
    {
      "tick": 96576,
      "bpm": 65
    },
    {
      "tick": 96670,
      "bpm": 50
    },
    {
      "tick": 96768,
      "bpm": 70
    },
    {
      "tick": 100224,
      "bpm": 70
    },
    {
      "tick": 100608,
      "bpm": 65
    },
    {
      "tick": 100800,
      "bpm": 75
    },
    {
      "tick": 112320,
      "bpm": 75
    },
    {
      "tick": 116544,
      "bpm": 70
    },
    {
      "tick": 116736,
      "bpm": 65
    },
    {
      "tick": 116928,
      "bpm": 75
    },
    {
      "tick": 154560,
      "bpm": 75
    },
    {
      "tick": 154752,
      "bpm": 65
    },
    {
      "tick": 155136,
      "bpm": 75
    },
    {
      "tick": 181440,
      "bpm": 70
    },
    {
      "tick": 182016,
      "bpm": 65
    },
    {
      "tick": 182592,
      "bpm": 70
    },
    {
      "tick": 183168,
      "bpm": 75
    },
    {
      "tick": 190272,
      "bpm": 75
    },
    {
      "tick": 190464,
      "bpm": 70
    },
    {
      "tick": 190752,
      "bpm": 75
    },
    {
      "tick": 218496,
      "bpm": 75
    },
    {
      "tick": 219072,
      "bpm": 75
    },
    {
      "tick": 219264,
      "bpm": 70
    },
    {
      "tick": 219552,
      "bpm": 75
    },
    {
      "tick": 242496,
      "bpm": 70
    },
    {
      "tick": 243072,
      "bpm": 65
    },
    {
      "tick": 243648,
      "bpm": 70
    },
    {
      "tick": 244224,
      "bpm": 75
    },
    {
      "tick": 250560,
      "bpm": 70
    },
    {
      "tick": 251136,
      "bpm": 60
    },
    {
      "tick": 251328,
      "bpm": 55
    },
    {
      "tick": 251520,
      "bpm": 35
    }
  ],
  "time_signatures": [
    {
      "tick": 0,
      "numerator": 3,
      "denominator": 8
    }
  ],
  "track_type": "manual",
  "voice_count": 2,
  "total_notes": 4541,
  "tracks": [
    {
      "role": "manual",
      "notes": [
        {
          "pitch": 65,
          "onset": 0.0,
          "duration": 0.25,
          "velocity": 100
        },
        {
          "pitch": 64,
          "onset": 0.25,
          "duration": 0.25,
          "velocity": 100
        },
        {
          "pitch": 65,
          "onset": 0.5,
          "duration": 0.25,
          "velocity": 100
        },
        {
          "pitch": 60,
          "onset": 0.75,
          "duration": 0.25,
          "velocity": 100
        },
        {
          "pitch": 69,
          "onset": 1.0,
          "duration": 0.25,
          "velocity": 100
        },
        {
          "pitch": 65,
          "onset": 1.25,
          "duration": 0.25,
          "velocity": 100
        },
        {
          "pitch": 67,
          "onset": 1.5,
          "duration": 0.25,
          "velocity": 100
        },
        {
          "pitch": 65,
          "onset": 1.75,
          "duration": 0.25,
          "velocity": 100
        },
        {
          "pitch": 67,
          "onset": 2.0,
          "duration": 0.25,
          "velocity": 100
        },
        {
          "pitch": 60,
          "onset": 2.25,
          "duration": 0.25,
          "velocity": 100
        },
        {
          "pitch": 70,
          "onset": 2.5,
          "duration": 0.25,
          "velocity": 100
        },
        {
          "pitch": 67,
          "onset": 2.75,
          "duration": 0.25,
          "velocity": 100
        },
        {
          "pitch": 53,
          "onset": 3.0,
          "duration": 0.25,
          "velocity": 100
        },
        {
          "pitch": 69,
          "onset": 3.0,
          "duration": 0.5,
          "velocity": 100
        },
        {
          "pitch": 52,
          "onset": 3.25,
          "duration": 0.25,
          "velocity": 100
        },
        {
          "pitch": 53,
          "onset": 3.5,
          "duration": 0.25,
          "velocity": 100
        },
        {
          "pitch": 65,
          "onset": 3.5,
          "duration": 0.5,
          "velocity": 100
        },
        {
          "pitch": 48,
          "onset": 3.75,
          "duration": 0.25,
          "velocity": 100
        },
        {
          "pitch": 57,
          "onset": 4.0,
          "duration": 0.25,
          "velocity": 100
        },
        {
          "pitch": 77,
          "onset": 4.0,
          "duration": 1.0,
          "velocity": 100
        },
        {
          "pitch": 53,
          "onset": 4.25,
          "duration": 0.25,
          "velocity": 100
        },
        {
          "pitch": 55,
          "onset": 4.5,
          "duration": 0.25,
          "velocity": 100
        },
        {
          "pitch": 53,
          "onset": 4.75,
          "duration": 0.25,
          "velocity": 100
        },
        {
          "pitch": 55,
          "onset": 5.0,
          "duration": 0.25,
          "velocity": 100
        },
        {
          "pitch": 76,
          "onset": 5.0,
          "duration": 0.125,
          "velocity": 100
        },
        {
          "pitch": 77,
          "onset": 5.125,
          "duration": 0.125,
          "velocity": 100
        },
        {
          "pitch": 48,
          "onset": 5.25,
          "duration": 0.25,
          "velocity": 100
        },
        {
          "pitch": 76,
          "onset": 5.25,
          "duration": 0.125,
          "velocity": 100
        },
        {
          "pitch": 77,
          "onset": 5.375,
          "duration": 0.125,
          "velocity": 100
        },
        {
          "pitch": 58,
          "onset": 5.5,
          "duration": 0.25,
          "velocity": 100
        },
        {
          "pitch": 76,
          "onset": 5.5,
          "duration": 0.125,
          "velocity": 100
        },
        {
          "pitch": 77,
          "onset": 5.625,
          "duration": 0.125,
          "velocity": 100
        },
        {
          "pitch": 55,
          "onset": 5.75,
          "duration": 0.25,
          "velocity": 100
        },
        {
          "pitch": 74,
          "onset": 5.75,
          "duration": 0.125,
          "velocity": 100
        },
        {
          "pitch": 76,
          "onset": 5.875,
          "duration": 0.125,
          "velocity": 100
        },
        {
          "pitch": 57,
          "onset": 6.0,
          "duration": 0.5,
          "velocity": 100
        },
        {
          "pitch": 77,
          "onset": 6.0,
          "duration": 0.25,
          "velocity": 100
        },
        {
          "pitch": 76,
          "onset": 6.25,
          "duration": 0.25,
          "velocity": 100
        },
        {
          "pitch": 53,
          "onset": 6.5,
          "duration": 0.5,
          "velocity": 100
        },
        {
          "pitch": 77,
          "onset": 6.5,
          "duration": 0.25,
          "velocity": 100
        },
        {
          "pitch": 72,
          "onset": 6.75,
          "duration": 0.25,
          "velocity": 100
        },
        {
          "pitch": 65,
          "onset": 7.0,
          "duration": 1.0,
          "velocity": 100
        },
        {
          "pitch": 74,
          "onset": 7.0,
          "duration": 0.25,
          "velocity": 100
        },
        {
          "pitch": 69,
          "onset": 7.25,
          "duration": 0.25,
          "velocity": 100
        },
        {
          "pitch": 70,
          "onset": 7.5,
          "duration": 0.25,
          "velocity": 100
        },
        {
          "pitch": 69,
          "onset": 7.75,
          "duration": 0.25,
          "velocity": 100
        },
        {
          "pitch": 64,
          "onset": 8.0,
          "duration": 0.125,
          "velocity": 100
        },
        {
          "pitch": 70,
          "onset": 8.0,
          "duration": 0.25,
          "velocity": 100
        },
        {
          "pitch": 65,
          "onset": 8.125,
          "duration": 0.125,
          "velocity": 100
        },
        {
          "pitch": 64,
          "onset": 8.25,
          "duration": 0.125,
          "velocity": 100
        },
        {
          "pitch": 67,
          "onset": 8.25,
          "duration": 0.25,
          "velocity": 100
        },
        {
          "pitch": 65,
          "onset": 8.375,
          "duration": 0.125,
          "velocity": 100
        },
        {
          "pitch": 64,
          "onset": 8.5,
          "duration": 0.125,
          "velocity": 100
        },
        {
          "pitch": 72,
          "onset": 8.5,
          "duration": 0.25,
          "velocity": 100
        },
        {
          "pitch": 65,
          "onset": 8.625,
          "duration": 0.125,
          "velocity": 100
        },
        {
          "pitch": 62,
          "onset": 8.75,
          "duration": 0.125,
          "velocity": 100
        },
        {
          "pitch": 67,
          "onset": 8.75,
          "duration": 0.25,
          "velocity": 100
        },
        {
          "pitch": 64,
          "onset": 8.875,
          "duration": 0.125,
          "velocity": 100
        },
        {
          "pitch": 65,
          "onset": 9.0,
          "duration": 0.25,
          "velocity": 100
        },
        {
          "pitch": 69,
          "onset": 9.0,
          "duration": 0.25,
          "velocity": 100
        },
        {
          "pitch": 64,
          "onset": 9.25,
          "duration": 0.25,
          "velocity": 100
        },
        {
          "pitch": 70,
          "onset": 9.25,
          "duration": 0.25,
          "velocity": 100
        },
        {
          "pitch": 65,
          "onset": 9.5,
          "duration": 0.25,
          "velocity": 100
        },
        {
          "pitch": 69,
          "onset": 9.5,
          "duration": 0.25,
          "velocity": 100
        },
        {
          "pitch": 60,
          "onset": 9.75,
          "duration": 0.25,
          "velocity": 100
        },
        {
          "pitch": 67,
          "onset": 9.75,
          "duration": 0.25,
          "velocity": 100
        },
        {
          "pitch": 62,
          "onset": 10.0,
          "duration": 0.25,
          "velocity": 100
        },
        {
          "pitch": 65,
          "onset": 10.0,
          "duration": 0.25,
          "velocity": 100
        },
        {
          "pitch": 57,
          "onset": 10.25,
          "duration": 0.25,
          "velocity": 100
        },
        {
          "pitch": 69,
          "onset": 10.25,
          "duration": 0.25,
          "velocity": 100
        },
        {
          "pitch": 58,
          "onset": 10.5,
          "duration": 0.25,
          "velocity": 100
        },
        {
          "pitch": 67,
          "onset": 10.5,
          "duration": 0.25,
          "velocity": 100
        },
        {
          "pitch": 57,
          "onset": 10.75,
          "duration": 0.25,
          "velocity": 100
        },
        {
          "pitch": 69,
          "onset": 10.75,
          "duration": 0.25,
          "velocity": 100
        },
        {
          "pitch": 58,
          "onset": 11.0,
          "duration": 0.25,
          "velocity": 100
        },
        {
          "pitch": 67,
          "onset": 11.0,
          "duration": 0.25,
          "velocity": 100
        },
        {
          "pitch": 55,
          "onset": 11.25,
          "duration": 0.25,
          "velocity": 100
        },
        {
          "pitch": 65,
          "onset": 11.25,
          "duration": 0.25,
          "velocity": 100
        },
        {
          "pitch": 60,
          "onset": 11.5,
          "duration": 0.25,
          "velocity": 100
        },
        {
          "pitch": 64,
          "onset": 11.5,
          "duration": 0.25,
          "velocity": 100
        },
        {
          "pitch": 55,
          "onset": 11.75,
          "duration": 0.25,
          "velocity": 100
        },
        {
          "pitch": 67,
          "onset": 11.75,
          "duration": 0.25,
          "velocity": 100
        },
        {
          "pitch": 57,
          "onset": 12.0,
          "duration": 0.25,
          "velocity": 100
        },
        {
          "pitch": 65,
          "onset": 12.0,
          "duration": 0.25,
          "velocity": 100
        },
        {
          "pitch": 58,
          "onset": 12.25,
          "duration": 0.25,
          "velocity": 100
        },
        {
          "pitch": 64,
          "onset": 12.25,
          "duration": 0.25,
          "velocity": 100
        },
        {
          "pitch": 57,
          "onset": 12.5,
          "duration": 0.25,
          "velocity": 100
        },
        {
          "pitch": 65,
          "onset": 12.5,
          "duration": 0.25,
          "velocity": 100
        },
        {
          "pitch": 55,
          "onset": 12.75,
          "duration": 0.25,
          "velocity": 100
        },
        {
          "pitch": 67,
          "onset": 12.75,
          "duration": 0.25,
          "velocity": 100
        },
        {
          "pitch": 53,
          "onset": 13.0,
          "duration": 0.25,
          "velocity": 100
        },
        {
          "pitch": 69,
          "onset": 13.0,
          "duration": 0.25,
          "velocity": 100
        },
        {
          "pitch": 57,
          "onset": 13.25,
          "duration": 0.25,
          "velocity": 100
        },
        {
          "pitch": 65,
          "onset": 13.25,
          "duration": 0.25,
          "velocity": 100
        },
        {
          "pitch": 55,
          "onset": 13.5,
          "duration": 0.25,
          "velocity": 100
        },
        {
          "pitch": 67,
          "onset": 13.5,
          "duration": 0.25,
          "velocity": 100
        },
        {
          "pitch": 57,
          "onset": 13.75,
          "duration": 0.25,
          "velocity": 100
        },
        {
          "pitch": 65,
          "onset": 13.75,
          "duration": 0.25,
          "velocity": 100
        },
        {
          "pitch": 55,
          "onset": 14.0,
          "duration": 0.25,
          "velocity": 100
        },
        {
          "pitch": 67,
          "onset": 14.0,
          "duration": 0.25,
          "velocity": 100
        },
        {
          "pitch": 53,
          "onset": 14.25,
          "duration": 0.25,
          "velocity": 100
        },
        {
          "pitch": 69,
          "onset": 14.25,
          "duration": 0.25,
          "velocity": 100
        },
        {
          "pitch": 52,
          "onset": 14.5,
          "duration": 0.25,
          "velocity": 100
        },
        {
          "pitch": 70,
          "onset": 14.5,
          "duration": 0.25,
          "velocity": 100
        },
        {
          "pitch": 55,
          "onset": 14.75,
          "duration": 0.25,
          "velocity": 100
        },
        {
          "pitch": 67,
          "onset": 14.75,
          "duration": 0.25,
          "velocity": 100
        },
        {
          "pitch": 53,
          "onset": 15.0,
          "duration": 0.25,
          "velocity": 100
        },
        {
          "pitch": 69,
          "onset": 15.0,
          "duration": 0.25,
          "velocity": 100
        },
        {
          "pitch": 52,
          "onset": 15.25,
          "duration": 0.25,
          "velocity": 100
        },
        {
          "pitch": 67,
          "onset": 15.25,
          "duration": 0.25,
          "velocity": 100
        },
        {
          "pitch": 53,
          "onset": 15.5,
          "duration": 0.25,
          "velocity": 100
        },
        {
          "pitch": 69,
          "onset": 15.5,
          "duration": 0.25,
          "velocity": 100
        },
        {
          "pitch": 55,
          "onset": 15.75,
          "duration": 0.25,
          "velocity": 100
        },
        {
          "pitch": 70,
          "onset": 15.75,
          "duration": 0.25,
          "velocity": 100
        },
        {
          "pitch": 57,
          "onset": 16.0,
          "duration": 0.25,
          "velocity": 100
        },
        {
          "pitch": 72,
          "onset": 16.0,
          "duration": 0.25,
          "velocity": 100
        },
        {
          "pitch": 53,
          "onset": 16.25,
          "duration": 0.25,
          "velocity": 100
        },
        {
          "pitch": 69,
          "onset": 16.25,
          "duration": 0.25,
          "velocity": 100
        },
        {
          "pitch": 55,
          "onset": 16.5,
          "duration": 0.25,
          "velocity": 100
        },
        {
          "pitch": 70,
          "onset": 16.5,
          "duration": 0.25,
          "velocity": 100
        },
        {
          "pitch": 53,
          "onset": 16.75,
          "duration": 0.25,
          "velocity": 100
        },
        {
          "pitch": 69,
          "onset": 16.75,
          "duration": 0.25,
          "velocity": 100
        },
        {
          "pitch": 55,
          "onset": 17.0,
          "duration": 0.25,
          "velocity": 100
        },
        {
          "pitch": 70,
          "onset": 17.0,
          "duration": 0.25,
          "velocity": 100
        },
        {
          "pitch": 57,
          "onset": 17.25,
          "duration": 0.25,
          "velocity": 100
        },
        {
          "pitch": 72,
          "onset": 17.25,
          "duration": 0.25,
          "velocity": 100
        },
        {
          "pitch": 58,
          "onset": 17.5,
          "duration": 0.25,
          "velocity": 100
        },
        {
          "pitch": 74,
          "onset": 17.5,
          "duration": 0.25,
          "velocity": 100
        },
        {
          "pitch": 55,
          "onset": 17.75,
          "duration": 0.25,
          "velocity": 100
        },
        {
          "pitch": 70,
          "onset": 17.75,
          "duration": 0.25,
          "velocity": 100
        },
        {
          "pitch": 57,
          "onset": 18.0,
          "duration": 0.25,
          "velocity": 100
        },
        {
          "pitch": 72,
          "onset": 18.0,
          "duration": 0.25,
          "velocity": 100
        },
        {
          "pitch": 55,
          "onset": 18.25,
          "duration": 0.25,
          "velocity": 100
        },
        {
          "pitch": 70,
          "onset": 18.25,
          "duration": 0.25,
          "velocity": 100
        },
        {
          "pitch": 57,
          "onset": 18.5,
          "duration": 0.25,
          "velocity": 100
        },
        {
          "pitch": 72,
          "onset": 18.5,
          "duration": 0.25,
          "velocity": 100
        },
        {
          "pitch": 58,
          "onset": 18.75,
          "duration": 0.25,
          "velocity": 100
        },
        {
          "pitch": 65,
          "onset": 18.75,
          "duration": 0.25,
          "velocity": 100
        },
        {
          "pitch": 60,
          "onset": 19.0,
          "duration": 0.25,
          "velocity": 100
        },
        {
          "pitch": 75,
          "onset": 19.0,
          "duration": 0.25,
          "velocity": 100
        },
        {
          "pitch": 57,
          "onset": 19.25,
          "duration": 0.25,
          "velocity": 100
        },
        {
          "pitch": 72,
          "onset": 19.25,
          "duration": 0.25,
          "velocity": 100
        },
        {
          "pitch": 58,
          "onset": 19.5,
          "duration": 0.25,
          "velocity": 100
        },
        {
          "pitch": 74,
          "onset": 19.5,
          "duration": 0.25,
          "velocity": 100
        },
        {
          "pitch": 57,
          "onset": 19.75,
          "duration": 0.25,
          "velocity": 100
        },
        {
          "pitch": 72,
          "onset": 19.75,
          "duration": 0.25,
          "velocity": 100
        },
        {
          "pitch": 58,
          "onset": 20.0,
          "duration": 0.25,
          "velocity": 100
        },
        {
          "pitch": 74,
          "onset": 20.0,
          "duration": 0.25,
          "velocity": 100
        },
        {
          "pitch": 60,
          "onset": 20.25,
          "duration": 0.25,
          "velocity": 100
        },
        {
          "pitch": 65,
          "onset": 20.25,
          "duration": 0.25,
          "velocity": 100
        },
        {
          "pitch": 62,
          "onset": 20.5,
          "duration": 0.25,
          "velocity": 100
        },
        {
          "pitch": 77,
          "onset": 20.5,
          "duration": 0.25,
          "velocity": 100
        },
        {
          "pitch": 58,
          "onset": 20.75,
          "duration": 0.25,
          "velocity": 100
        },
        {
          "pitch": 74,
          "onset": 20.75,
          "duration": 0.25,
          "velocity": 100
        },
        {
          "pitch": 60,
          "onset": 21.0,
          "duration": 0.25,
          "velocity": 100
        },
        {
          "pitch": 75,
          "onset": 21.0,
          "duration": 0.25,
          "velocity": 100
        },
        {
          "pitch": 58,
          "onset": 21.25,
          "duration": 0.25,
          "velocity": 100
        },
        {
          "pitch": 74,
          "onset": 21.25,
          "duration": 0.25,
          "velocity": 100
        },
        {
          "pitch": 60,
          "onset": 21.5,
          "duration": 0.25,
          "velocity": 100
        },
        {
          "pitch": 75,
          "onset": 21.5,
          "duration": 0.25,
          "velocity": 100
        },
        {
          "pitch": 53,
          "onset": 21.75,
          "duration": 0.25,
          "velocity": 100
        },
        {
          "pitch": 77,
          "onset": 21.75,
          "duration": 0.25,
          "velocity": 100
        },
        {
          "pitch": 63,
          "onset": 22.0,
          "duration": 0.25,
          "velocity": 100
        },
        {
          "pitch": 79,
          "onset": 22.0,
          "duration": 0.25,
          "velocity": 100
        },
        {
          "pitch": 60,
          "onset": 22.25,
          "duration": 0.25,
          "velocity": 100
        },
        {
          "pitch": 81,
          "onset": 22.25,
          "duration": 0.25,
          "velocity": 100
        },
        {
          "pitch": 62,
          "onset": 22.5,
          "duration": 0.25,
          "velocity": 100
        },
        {
          "pitch": 82,
          "onset": 22.5,
          "duration": 0.25,
          "velocity": 100
        },
        {
          "pitch": 60,
          "onset": 22.75,
          "duration": 0.25,
          "velocity": 100
        },
        {
          "pitch": 81,
          "onset": 22.75,
          "duration": 0.25,
          "velocity": 100
        },
        {
          "pitch": 62,
          "onset": 23.0,
          "duration": 0.25,
          "velocity": 100
        },
        {
          "pitch": 82,
          "onset": 23.0,
          "duration": 0.25,
          "velocity": 100
        },
        {
          "pitch": 53,
          "onset": 23.25,
          "duration": 0.25,
          "velocity": 100
        },
        {
          "pitch": 84,
          "onset": 23.25,
          "duration": 0.25,
          "velocity": 100
        },
        {
          "pitch": 65,
          "onset": 23.5,
          "duration": 0.25,
          "velocity": 100
        },
        {
          "pitch": 81,
          "onset": 23.5,
          "duration": 0.25,
          "velocity": 100
        },
        {
          "pitch": 62,
          "onset": 23.75,
          "duration": 0.25,
          "velocity": 100
        },
        {
          "pitch": 82,
          "onset": 23.75,
          "duration": 0.25,
          "velocity": 100
        },
        {
          "pitch": 63,
          "onset": 24.0,
          "duration": 0.25,
          "velocity": 100
        },
        {
          "pitch": 84,
          "onset": 24.0,
          "duration": 0.25,
          "velocity": 100
        },
        {
          "pitch": 62,
          "onset": 24.25,
          "duration": 0.25,
          "velocity": 100
        },
        {
          "pitch": 82,
          "onset": 24.25,
          "duration": 0.25,
          "velocity": 100
        },
        {
          "pitch": 63,
          "onset": 24.5,
          "duration": 0.25,
          "velocity": 100
        },
        {
          "pitch": 81,
          "onset": 24.5,
          "duration": 0.25,
          "velocity": 100
        },
        {
          "pitch": 65,
          "onset": 24.75,
          "duration": 0.25,
          "velocity": 100
        },
        {
          "pitch": 79,
          "onset": 24.75,
          "duration": 0.25,
          "velocity": 100
        },
        {
          "pitch": 67,
          "onset": 25.0,
          "duration": 0.25,
          "velocity": 100
        },
        {
          "pitch": 77,
          "onset": 25.0,
          "duration": 0.25,
          "velocity": 100
        },
        {
          "pitch": 69,
          "onset": 25.25,
          "duration": 0.25,
          "velocity": 100
        },
        {
          "pitch": 75,
          "onset": 25.25,
          "duration": 0.25,
          "velocity": 100
        },
        {
          "pitch": 70,
          "onset": 25.5,
          "duration": 0.25,
          "velocity": 100
        },
        {
          "pitch": 74,
          "onset": 25.5,
          "duration": 0.25,
          "velocity": 100
        },
        {
          "pitch": 69,
          "onset": 25.75,
          "duration": 0.25,
          "velocity": 100
        },
        {
          "pitch": 77,
          "onset": 25.75,
          "duration": 0.25,
          "velocity": 100
        },
        {
          "pitch": 70,
          "onset": 26.0,
          "duration": 0.25,
          "velocity": 100
        },
        {
          "pitch": 79,
          "onset": 26.0,
          "duration": 0.25,
          "velocity": 100
        },
        {
          "pitch": 72,
          "onset": 26.25,
          "duration": 0.25,
          "velocity": 100
        },
        {
          "pitch": 77,
          "onset": 26.25,
          "duration": 0.25,
          "velocity": 100
        },
        {
          "pitch": 69,
          "onset": 26.5,
          "duration": 0.25,
          "velocity": 100
        },
        {
          "pitch": 75,
          "onset": 26.5,
          "duration": 0.25,
          "velocity": 100
        },
        {
          "pitch": 70,
          "onset": 26.75,
          "duration": 0.25,
          "velocity": 100
        },
        {
          "pitch": 74,
          "onset": 26.75,
          "duration": 0.25,
          "velocity": 100
        },
        {
          "pitch": 72,
          "onset": 27.0,
          "duration": 0.25,
          "velocity": 100
        },
        {
          "pitch": 75,
          "onset": 27.0,
          "duration": 0.25,
          "velocity": 100
        },
        {
          "pitch": 70,
          "onset": 27.25,
          "duration": 0.25,
          "velocity": 100
        },
        {
          "pitch": 74,
          "onset": 27.25,
          "duration": 0.25,
          "velocity": 100
        },
        {
          "pitch": 69,
          "onset": 27.5,
          "duration": 0.25,
          "velocity": 100
        },
        {
          "pitch": 75,
          "onset": 27.5,
          "duration": 0.25,
          "velocity": 100
        },
        {
          "pitch": 67,
          "onset": 27.75,
          "duration": 0.25,
          "velocity": 100
        },
        {
          "pitch": 72,
          "onset": 27.75,
          "duration": 0.25,
          "velocity": 100
        },
        {
          "pitch": 65,
          "onset": 28.0,
          "duration": 0.25,
          "velocity": 100
        },
        {
          "pitch": 77,
          "onset": 28.0,
          "duration": 0.25,
          "velocity": 100
        },
        {
          "pitch": 63,
          "onset": 28.25,
          "duration": 0.25,
          "velocity": 100
        },
        {
          "pitch": 69,
          "onset": 28.25,
          "duration": 0.25,
          "velocity": 100
        },
        {
          "pitch": 62,
          "onset": 28.5,
          "duration": 0.25,
          "velocity": 100
        },
        {
          "pitch": 70,
          "onset": 28.5,
          "duration": 0.25,
          "velocity": 100
        },
        {
          "pitch": 65,
          "onset": 28.75,
          "duration": 0.25,
          "velocity": 100
        },
        {
          "pitch": 69,
          "onset": 28.75,
          "duration": 0.25,
          "velocity": 100
        },
        {
          "pitch": 67,
          "onset": 29.0,
          "duration": 0.25,
          "velocity": 100
        },
        {
          "pitch": 70,
          "onset": 29.0,
          "duration": 0.25,
          "velocity": 100
        },
        {
          "pitch": 65,
          "onset": 29.25,
          "duration": 0.25,
          "velocity": 100
        },
        {
          "pitch": 72,
          "onset": 29.25,
          "duration": 0.25,
          "velocity": 100
        },
        {
          "pitch": 63,
          "onset": 29.5,
          "duration": 0.25,
          "velocity": 100
        },
        {
          "pitch": 69,
          "onset": 29.5,
          "duration": 0.25,
          "velocity": 100
        },
        {
          "pitch": 62,
          "onset": 29.75,
          "duration": 0.25,
          "velocity": 100
        },
        {
          "pitch": 70,
          "onset": 29.75,
          "duration": 0.25,
          "velocity": 100
        },
        {
          "pitch": 63,
          "onset": 30.0,
          "duration": 0.25,
          "velocity": 100
        },
        {
          "pitch": 72,
          "onset": 30.0,
          "duration": 0.25,
          "velocity": 100
        },
        {
          "pitch": 62,
          "onset": 30.25,
          "duration": 0.25,
          "velocity": 100
        },
        {
          "pitch": 70,
          "onset": 30.25,
          "duration": 0.25,
          "velocity": 100
        },
        {
          "pitch": 63,
          "onset": 30.5,
          "duration": 0.25,
          "velocity": 100
        },
        {
          "pitch": 72,
          "onset": 30.5,
          "duration": 0.25,
          "velocity": 100
        },
        {
          "pitch": 60,
          "onset": 30.75,
          "duration": 0.25,
          "velocity": 100
        },
        {
          "pitch": 74,
          "onset": 30.75,
          "duration": 0.25,
          "velocity": 100
        },
        {
          "pitch": 65,
          "onset": 31.0,
          "duration": 0.25,
          "velocity": 100
        },
        {
          "pitch": 70,
          "onset": 31.0,
          "duration": 0.25,
          "velocity": 100
        },
        {
          "pitch": 57,
          "onset": 31.25,
          "duration": 0.25,
          "velocity": 100
        },
        {
          "pitch": 72,
          "onset": 31.25,
          "duration": 0.25,
          "velocity": 100
        },
        {
          "pitch": 58,
          "onset": 31.5,
          "duration": 0.25,
          "velocity": 100
        },
        {
          "pitch": 74,
          "onset": 31.5,
          "duration": 0.25,
          "velocity": 100
        },
        {
          "pitch": 57,
          "onset": 31.75,
          "duration": 0.25,
          "velocity": 100
        },
        {
          "pitch": 72,
          "onset": 31.75,
          "duration": 0.25,
          "velocity": 100
        },
        {
          "pitch": 58,
          "onset": 32.0,
          "duration": 0.25,
          "velocity": 100
        },
        {
          "pitch": 74,
          "onset": 32.0,
          "duration": 0.25,
          "velocity": 100
        },
        {
          "pitch": 60,
          "onset": 32.25,
          "duration": 0.25,
          "velocity": 100
        },
        {
          "pitch": 75,
          "onset": 32.25,
          "duration": 0.25,
          "velocity": 100
        },
        {
          "pitch": 57,
          "onset": 32.5,
          "duration": 0.25,
          "velocity": 100
        },
        {
          "pitch": 77,
          "onset": 32.5,
          "duration": 0.25,
          "velocity": 100
        },
        {
          "pitch": 58,
          "onset": 32.75,
          "duration": 0.25,
          "velocity": 100
        },
        {
          "pitch": 79,
          "onset": 32.75,
          "duration": 0.25,
          "velocity": 100
        },
        {
          "pitch": 60,
          "onset": 33.0,
          "duration": 0.25,
          "velocity": 100
        },
        {
          "pitch": 69,
          "onset": 33.0,
          "duration": 0.25,
          "velocity": 100
        },
        {
          "pitch": 58,
          "onset": 33.25,
          "duration": 0.25,
          "velocity": 100
        },
        {
          "pitch": 72,
          "onset": 33.25,
          "duration": 0.25,
          "velocity": 100
        },
        {
          "pitch": 60,
          "onset": 33.5,
          "duration": 0.25,
          "velocity": 100
        },
        {
          "pitch": 70,
          "onset": 33.5,
          "duration": 0.25,
          "velocity": 100
        },
        {
          "pitch": 62,
          "onset": 33.75,
          "duration": 0.25,
          "velocity": 100
        },
        {
          "pitch": 69,
          "onset": 33.75,
          "duration": 0.25,
          "velocity": 100
        },
        {
          "pitch": 58,
          "onset": 34.0,
          "duration": 0.25,
          "velocity": 100
        },
        {
          "pitch": 67,
          "onset": 34.0,
          "duration": 0.25,
          "velocity": 100
        },
        {
          "pitch": 60,
          "onset": 34.25,
          "duration": 0.25,
          "velocity": 100
        },
        {
          "pitch": 65,
          "onset": 34.25,
          "duration": 0.25,
          "velocity": 100
        },
        {
          "pitch": 62,
          "onset": 34.5,
          "duration": 0.25,
          "velocity": 100
        },
        {
          "pitch": 70,
          "onset": 34.5,
          "duration": 0.25,
          "velocity": 100
        },
        {
          "pitch": 60,
          "onset": 34.75,
          "duration": 0.25,
          "velocity": 100
        },
        {
          "pitch": 69,
          "onset": 34.75,
          "duration": 0.25,
          "velocity": 100
        },
        {
          "pitch": 62,
          "onset": 35.0,
          "duration": 0.25,
          "velocity": 100
        },
        {
          "pitch": 70,
          "onset": 35.0,
          "duration": 0.25,
          "velocity": 100
        },
        {
          "pitch": 63,
          "onset": 35.25,
          "duration": 0.25,
          "velocity": 100
        },
        {
          "pitch": 65,
          "onset": 35.25,
          "duration": 0.25,
          "velocity": 100
        },
        {
          "pitch": 65,
          "onset": 35.5,
          "duration": 0.25,
          "velocity": 100
        },
        {
          "pitch": 74,
          "onset": 35.5,
          "duration": 0.25,
          "velocity": 100
        },
        {
          "pitch": 67,
          "onset": 35.75,
          "duration": 0.25,
          "velocity": 100
        },
        {
          "pitch": 70,
          "onset": 35.75,
          "duration": 0.25,
          "velocity": 100
        },
        {
          "pitch": 57,
          "onset": 36.0,
          "duration": 0.25,
          "velocity": 100
        },
        {
          "pitch": 72,
          "onset": 36.0,
          "duration": 0.25,
          "velocity": 100
        },
        {
          "pitch": 60,
          "onset": 36.25,
          "duration": 0.25,
          "velocity": 100
        },
        {
          "pitch": 70,
          "onset": 36.25,
          "duration": 0.25,
          "velocity": 100
        },
        {
          "pitch": 58,
          "onset": 36.5,
          "duration": 0.25,
          "velocity": 100
        },
        {
          "pitch": 72,
          "onset": 36.5,
          "duration": 0.25,
          "velocity": 100
        },
        {
          "pitch": 57,
          "onset": 36.75,
          "duration": 0.25,
          "velocity": 100
        },
        {
          "pitch": 65,
          "onset": 36.75,
          "duration": 0.25,
          "velocity": 100
        },
        {
          "pitch": 55,
          "onset": 37.0,
          "duration": 0.25,
          "velocity": 100
        },
        {
          "pitch": 75,
          "onset": 37.0,
          "duration": 0.25,
          "velocity": 100
        },
        {
          "pitch": 53,
          "onset": 37.25,
          "duration": 0.25,
          "velocity": 100
        },
        {
          "pitch": 72,
          "onset": 37.25,
          "duration": 0.25,
          "velocity": 100
        },
        {
          "pitch": 58,
          "onset": 37.5,
          "duration": 0.25,
          "velocity": 100
        },
        {
          "pitch": 74,
          "onset": 37.5,
          "duration": 0.5,
          "velocity": 100
        },
        {
          "pitch": 57,
          "onset": 37.75,
          "duration": 0.25,
          "velocity": 100
        },
        {
          "pitch": 58,
          "onset": 38.0,
          "duration": 0.25,
          "velocity": 100
        },
        {
          "pitch": 65,
          "onset": 38.0,
          "duration": 0.5,
          "velocity": 100
        },
        {
          "pitch": 53,
          "onset": 38.25,
          "duration": 0.25,
          "velocity": 100
        },
        {
          "pitch": 62,
          "onset": 38.5,
          "duration": 0.25,
          "velocity": 100
        },
        {
          "pitch": 70,
          "onset": 38.5,
          "duration": 1.0,
          "velocity": 100
        },
        {
          "pitch": 58,
          "onset": 38.75,
          "duration": 0.25,
          "velocity": 100
        },
        {
          "pitch": 60,
          "onset": 39.0,
          "duration": 0.25,
          "velocity": 100
        },
        {
          "pitch": 58,
          "onset": 39.25,
          "duration": 0.25,
          "velocity": 100
        },
        {
          "pitch": 60,
          "onset": 39.5,
          "duration": 0.25,
          "velocity": 100
        },
        {
          "pitch": 69,
          "onset": 39.5,
          "duration": 0.125,
          "velocity": 100
        },
        {
          "pitch": 70,
          "onset": 39.625,
          "duration": 0.125,
          "velocity": 100
        },
        {
          "pitch": 53,
          "onset": 39.75,
          "duration": 0.25,
          "velocity": 100
        },
        {
          "pitch": 69,
          "onset": 39.75,
          "duration": 0.125,
          "velocity": 100
        },
        {
          "pitch": 70,
          "onset": 39.875,
          "duration": 0.125,
          "velocity": 100
        },
        {
          "pitch": 63,
          "onset": 40.0,
          "duration": 0.25,
          "velocity": 100
        },
        {
          "pitch": 69,
          "onset": 40.0,
          "duration": 0.125,
          "velocity": 100
        },
        {
          "pitch": 70,
          "onset": 40.125,
          "duration": 0.125,
          "velocity": 100
        },
        {
          "pitch": 60,
          "onset": 40.25,
          "duration": 0.25,
          "velocity": 100
        },
        {
          "pitch": 67,
          "onset": 40.25,
          "duration": 0.125,
          "velocity": 100
        },
        {
          "pitch": 69,
          "onset": 40.375,
          "duration": 0.125,
          "velocity": 100
        },
        {
          "pitch": 62,
          "onset": 40.5,
          "duration": 0.5,
          "velocity": 100
        },
        {
          "pitch": 70,
          "onset": 40.5,
          "duration": 0.25,
          "velocity": 100
        },
        {
          "pitch": 69,
          "onset": 40.75,
          "duration": 0.25,
          "velocity": 100
        },
        {
          "pitch": 53,
          "onset": 41.0,
          "duration": 0.5,
          "velocity": 100
        },
        {
          "pitch": 70,
          "onset": 41.0,
          "duration": 0.25,
          "velocity": 100
        },
        {
          "pitch": 65,
          "onset": 41.25,
          "duration": 0.25,
          "velocity": 100
        },
        {
          "pitch": 58,
          "onset": 41.5,
          "duration": 1.0,
          "velocity": 100
        },
        {
          "pitch": 67,
          "onset": 41.5,
          "duration": 0.25,
          "velocity": 100
        },
        {
          "pitch": 62,
          "onset": 41.75,
          "duration": 0.25,
          "velocity": 100
        },
        {
          "pitch": 63,
          "onset": 42.0,
          "duration": 0.25,
          "velocity": 100
        },
        {
          "pitch": 62,
          "onset": 42.25,
          "duration": 0.25,
          "velocity": 100
        },
        {
          "pitch": 57,
          "onset": 42.5,
          "duration": 0.125,
          "velocity": 100
        },
        {
          "pitch": 63,
          "onset": 42.5,
          "duration": 0.25,
          "velocity": 100
        },
        {
          "pitch": 58,
          "onset": 42.625,
          "duration": 0.125,
          "velocity": 100
        },
        {
          "pitch": 57,
          "onset": 42.75,
          "duration": 0.125,
          "velocity": 100
        },
        {
          "pitch": 60,
          "onset": 42.75,
          "duration": 0.25,
          "velocity": 100
        },
        {
          "pitch": 58,
          "onset": 42.875,
          "duration": 0.125,
          "velocity": 100
        },
        {
          "pitch": 57,
          "onset": 43.0,
          "duration": 0.125,
          "velocity": 100
        },
        {
          "pitch": 65,
          "onset": 43.0,
          "duration": 0.25,
          "velocity": 100
        },
        {
          "pitch": 58,
          "onset": 43.125,
          "duration": 0.125,
          "velocity": 100
        },
        {
          "pitch": 55,
          "onset": 43.25,
          "duration": 0.125,
          "velocity": 100
        },
        {
          "pitch": 60,
          "onset": 43.25,
          "duration": 0.25,
          "velocity": 100
        },
        {
          "pitch": 57,
          "onset": 43.375,
          "duration": 0.125,
          "velocity": 100
        },
        {
          "pitch": 58,
          "onset": 43.5,
          "duration": 0.25,
          "velocity": 100
        },
        {
          "pitch": 62,
          "onset": 43.5,
          "duration": 0.25,
          "velocity": 100
        },
        {
          "pitch": 57,
          "onset": 43.75,
          "duration": 0.25,
          "velocity": 100
        },
        {
          "pitch": 60,
          "onset": 43.75,
          "duration": 0.25,
          "velocity": 100
        },
        {
          "pitch": 58,
          "onset": 44.0,
          "duration": 0.25,
          "velocity": 100
        },
        {
          "pitch": 62,
          "onset": 44.0,
          "duration": 0.25,
          "velocity": 100
        },
        {
          "pitch": 53,
          "onset": 44.25,
          "duration": 0.25,
          "velocity": 100
        },
        {
          "pitch": 65,
          "onset": 44.25,
          "duration": 0.25,
          "velocity": 100
        },
        {
          "pitch": 55,
          "onset": 44.5,
          "duration": 0.25,
          "velocity": 100
        },
        {
          "pitch": 58,
          "onset": 44.5,
          "duration": 0.25,
          "velocity": 100
        },
        {
          "pitch": 50,
          "onset": 44.75,
          "duration": 0.25,
          "velocity": 100
        },
        {
          "pitch": 62,
          "onset": 44.75,
          "duration": 0.25,
          "velocity": 100
        },
        {
          "pitch": 51,
          "onset": 45.0,
          "duration": 0.25,
          "velocity": 100
        },
        {
          "pitch": 60,
          "onset": 45.0,
          "duration": 0.25,
          "velocity": 100
        },
        {
          "pitch": 50,
          "onset": 45.25,
          "duration": 0.25,
          "velocity": 100
        },
        {
          "pitch": 58,
          "onset": 45.25,
          "duration": 0.25,
          "velocity": 100
        },
        {
          "pitch": 51,
          "onset": 45.5,
          "duration": 0.25,
          "velocity": 100
        },
        {
          "pitch": 60,
          "onset": 45.5,
          "duration": 0.25,
          "velocity": 100
        },
        {
          "pitch": 48,
          "onset": 45.75,
          "duration": 0.25,
          "velocity": 100
        },
        {
          "pitch": 63,
          "onset": 45.75,
          "duration": 0.25,
          "velocity": 100
        },
        {
          "pitch": 53,
          "onset": 46.0,
          "duration": 0.25,
          "velocity": 100
        },
        {
          "pitch": 57,
          "onset": 46.0,
          "duration": 0.25,
          "velocity": 100
        },
        {
          "pitch": 48,
          "onset": 46.25,
          "duration": 0.25,
          "velocity": 100
        },
        {
          "pitch": 60,
          "onset": 46.25,
          "duration": 0.25,
          "velocity": 100
        },
        {
          "pitch": 50,
          "onset": 46.5,
          "duration": 0.25,
          "velocity": 100
        },
        {
          "pitch": 58,
          "onset": 46.5,
          "duration": 0.25,
          "velocity": 100
        },
        {
          "pitch": 48,
          "onset": 46.75,
          "duration": 0.25,
          "velocity": 100
        },
        {
          "pitch": 57,
          "onset": 46.75,
          "duration": 0.25,
          "velocity": 100
        },
        {
          "pitch": 50,
          "onset": 47.0,
          "duration": 0.25,
          "velocity": 100
        },
        {
          "pitch": 58,
          "onset": 47.0,
          "duration": 0.25,
          "velocity": 100
        },
        {
          "pitch": 53,
          "onset": 47.25,
          "duration": 0.25,
          "velocity": 100
        },
        {
          "pitch": 60,
          "onset": 47.25,
          "duration": 0.25,
          "velocity": 100
        },
        {
          "pitch": 46,
          "onset": 47.5,
          "duration": 0.25,
          "velocity": 100
        },
        {
          "pitch": 62,
          "onset": 47.5,
          "duration": 0.25,
          "velocity": 100
        },
        {
          "pitch": 50,
          "onset": 47.75,
          "duration": 0.25,
          "velocity": 100
        },
        {
          "pitch": 63,
          "onset": 47.75,
          "duration": 0.25,
          "velocity": 100
        },
        {
          "pitch": 48,
          "onset": 48.0,
          "duration": 0.25,
          "velocity": 100
        },
        {
          "pitch": 65,
          "onset": 48.0,
          "duration": 0.25,
          "velocity": 100
        },
        {
          "pitch": 46,
          "onset": 48.25,
          "duration": 0.25,
          "velocity": 100
        },
        {
          "pitch": 67,
          "onset": 48.25,
          "duration": 0.25,
          "velocity": 100
        },
        {
          "pitch": 48,
          "onset": 48.5,
          "duration": 0.25,
          "velocity": 100
        },
        {
          "pitch": 69,
          "onset": 48.5,
          "duration": 0.25,
          "velocity": 100
        },
        {
          "pitch": 51,
          "onset": 48.75,
          "duration": 0.25,
          "velocity": 100
        },
        {
          "pitch": 70,
          "onset": 48.75,
          "duration": 0.25,
          "velocity": 100
        },
        {
          "pitch": 45,
          "onset": 49.0,
          "duration": 0.25,
          "velocity": 100
        },
        {
          "pitch": 72,
          "onset": 49.0,
          "duration": 0.25,
          "velocity": 100
        },
        {
          "pitch": 48,
          "onset": 49.25,
          "duration": 0.25,
          "velocity": 100
        },
        {
          "pitch": 69,
          "onset": 49.25,
          "duration": 0.25,
          "velocity": 100
        },
        {
          "pitch": 46,
          "onset": 49.5,
          "duration": 0.25,
          "velocity": 100
        },
        {
          "pitch": 74,
          "onset": 49.5,
          "duration": 0.25,
          "velocity": 100
        },
        {
          "pitch": 45,
          "onset": 49.75,
          "duration": 0.25,
          "velocity": 100
        },
        {
          "pitch": 72,
          "onset": 49.75,
          "duration": 0.25,
          "velocity": 100
        },
        {
          "pitch": 46,
          "onset": 50.0,
          "duration": 0.25,
          "velocity": 100
        },
        {
          "pitch": 74,
          "onset": 50.0,
          "duration": 0.25,
          "velocity": 100
        },
        {
          "pitch": 48,
          "onset": 50.25,
          "duration": 0.25,
          "velocity": 100
        },
        {
          "pitch": 75,
          "onset": 50.25,
          "duration": 0.25,
          "velocity": 100
        },
        {
          "pitch": 50,
          "onset": 50.5,
          "duration": 0.25,
          "velocity": 100
        },
        {
          "pitch": 77,
          "onset": 50.5,
          "duration": 0.25,
          "velocity": 100
        },
        {
          "pitch": 51,
          "onset": 50.75,
          "duration": 0.25,
          "velocity": 100
        },
        {
          "pitch": 79,
          "onset": 50.75,
          "duration": 0.25,
          "velocity": 100
        },
        {
          "pitch": 53,
          "onset": 51.0,
          "duration": 0.25,
          "velocity": 100
        },
        {
          "pitch": 81,
          "onset": 51.0,
          "duration": 0.25,
          "velocity": 100
        },
        {
          "pitch": 55,
          "onset": 51.25,
          "duration": 0.25,
          "velocity": 100
        },
        {
          "pitch": 82,
          "onset": 51.25,
          "duration": 0.25,
          "velocity": 100
        },
        {
          "pitch": 57,
          "onset": 51.5,
          "duration": 0.25,
          "velocity": 100
        },
        {
          "pitch": 84,
          "onset": 51.5,
          "duration": 1.25,
          "velocity": 100
        },
        {
          "pitch": 58,
          "onset": 51.75,
          "duration": 0.25,
          "velocity": 100
        },
        {
          "pitch": 79,
          "onset": 51.75,
          "duration": 0.25,
          "velocity": 100
        },
        {
          "pitch": 60,
          "onset": 52.0,
          "duration": 0.25,
          "velocity": 100
        },
        {
          "pitch": 81,
          "onset": 52.0,
          "duration": 0.25,
          "velocity": 100
        },
        {
          "pitch": 57,
          "onset": 52.25,
          "duration": 0.25,
          "velocity": 100
        },
        {
          "pitch": 75,
          "onset": 52.25,
          "duration": 0.25,
          "velocity": 100
        },
        {
          "pitch": 62,
          "onset": 52.5,
          "duration": 0.25,
          "velocity": 100
        },
        {
          "pitch": 77,
          "onset": 52.5,
          "duration": 0.75,
          "velocity": 100
        },
        {
          "pitch": 60,
          "onset": 52.75,
          "duration": 0.25,
          "velocity": 100
        },
        {
          "pitch": 81,
          "onset": 52.75,
          "duration": 0.25,
          "velocity": 100
        },
        {
          "pitch": 62,
          "onset": 53.0,
          "duration": 0.25,
          "velocity": 100
        },
        {
          "pitch": 82,
          "onset": 53.0,
          "duration": 0.75,
          "velocity": 100
        },
        {
          "pitch": 63,
          "onset": 53.25,
          "duration": 0.25,
          "velocity": 100
        },
        {
          "pitch": 72,
          "onset": 53.25,
          "duration": 0.25,
          "velocity": 100
        },
        {
          "pitch": 65,
          "onset": 53.5,
          "duration": 0.25,
          "velocity": 100
        },
        {
          "pitch": 74,
          "onset": 53.5,
          "duration": 1.0,
          "velocity": 100
        },
        {
          "pitch": 67,
          "onset": 53.75,
          "duration": 0.25,
          "velocity": 100
        },
        {
          "pitch": 82,
          "onset": 53.75,
          "duration": 0.25,
          "velocity": 100
        },
        {
          "pitch": 69,
          "onset": 54.0,
          "duration": 0.25,
          "velocity": 100
        },
        {
          "pitch": 75,
          "onset": 54.0,
          "duration": 1.5,
          "velocity": 100
        },
        {
          "pitch": 70,
          "onset": 54.25,
          "duration": 0.25,
          "velocity": 100
        },
        {
          "pitch": 72,
          "onset": 54.5,
          "duration": 1.5,
          "velocity": 100
        },
        {
          "pitch": 72,
          "onset": 54.5,
          "duration": 0.25,
          "velocity": 100
        },
        {
          "pitch": 67,
          "onset": 54.75,
          "duration": 0.25,
          "velocity": 100
        },
        {
          "pitch": 69,
          "onset": 55.0,
          "duration": 0.5,
          "velocity": 100
        },
        {
          "pitch": 63,
          "onset": 55.25,
          "duration": 0.25,
          "velocity": 100
        },
        {
          "pitch": 65,
          "onset": 55.5,
          "duration": 0.25,
          "velocity": 100
        },
        {
          "pitch": 74,
          "onset": 55.5,
          "duration": 1.75,
          "velocity": 100
        },
        {
          "pitch": 69,
          "onset": 55.75,
          "duration": 0.25,
          "velocity": 100
        },
        {
          "pitch": 70,
          "onset": 56.0,
          "duration": 1.0,
          "velocity": 100
        },
        {
          "pitch": 70,
          "onset": 56.0,
          "duration": 0.25,
          "velocity": 100
        },
        {
          "pitch": 65,
          "onset": 56.25,
          "duration": 0.25,
          "velocity": 100
        },
        {
          "pitch": 67,
          "onset": 56.5,
          "duration": 0.5,
          "velocity": 100
        },
        {
          "pitch": 62,
          "onset": 56.75,
          "duration": 0.25,
          "velocity": 100
        },
        {
          "pitch": 63,
          "onset": 57.0,
          "duration": 1.25,
          "velocity": 100
        },
        {
          "pitch": 67,
          "onset": 57.0,
          "duration": 0.75,
          "velocity": 100
        },
        {
          "pitch": 70,
          "onset": 57.25,
          "duration": 0.25,
          "velocity": 100
        },
        {
          "pitch": 72,
          "onset": 57.5,
          "duration": 1.25,
          "velocity": 100
        },
        {
          "pitch": 67,
          "onset": 57.75,
          "duration": 0.25,
          "velocity": 100
        },
        {
          "pitch": 69,
          "onset": 58.0,
          "duration": 0.25,
          "velocity": 100
        },
        {
          "pitch": 60,
          "onset": 58.25,
          "duration": 0.25,
          "velocity": 100
        },
        {
          "pitch": 63,
          "onset": 58.25,
          "duration": 0.25,
          "velocity": 100
        },
        {
          "pitch": 62,
          "onset": 58.5,
          "duration": 1.25,
          "velocity": 100
        },
        {
          "pitch": 65,
          "onset": 58.5,
          "duration": 0.75,
          "velocity": 100
        },
        {
          "pitch": 69,
          "onset": 58.75,
          "duration": 0.25,
          "velocity": 100
        },
        {
          "pitch": 70,
          "onset": 59.0,
          "duration": 1.25,
          "velocity": 100
        },
        {
          "pitch": 65,
          "onset": 59.25,
          "duration": 0.25,
          "velocity": 100
        },
        {
          "pitch": 67,
          "onset": 59.5,
          "duration": 0.25,
          "velocity": 100
        },
        {
          "pitch": 58,
          "onset": 59.75,
          "duration": 0.25,
          "velocity": 100
        },
        {
          "pitch": 62,
          "onset": 59.75,
          "duration": 0.25,
          "velocity": 100
        },
        {
          "pitch": 60,
          "onset": 60.0,
          "duration": 1.25,
          "velocity": 100
        },
        {
          "pitch": 63,
          "onset": 60.0,
          "duration": 0.75,
          "velocity": 100
        },
        {
          "pitch": 67,
          "onset": 60.25,
          "duration": 0.25,
          "velocity": 100
        },
        {
          "pitch": 69,
          "onset": 60.5,
          "duration": 1.25,
          "velocity": 100
        },
        {
          "pitch": 62,
          "onset": 60.75,
          "duration": 0.25,
          "velocity": 100
        },
        {
          "pitch": 63,
          "onset": 61.0,
          "duration": 0.5,
          "velocity": 100
        },
        {
          "pitch": 53,
          "onset": 61.25,
          "duration": 0.25,
          "velocity": 100
        },
        {
          "pitch": 58,
          "onset": 61.5,
          "duration": 1.25,
          "velocity": 100
        },
        {
          "pitch": 62,
          "onset": 61.5,
          "duration": 0.75,
          "velocity": 100
        },
        {
          "pitch": 65,
          "onset": 61.75,
          "duration": 0.25,
          "velocity": 100
        },
        {
          "pitch": 67,
          "onset": 62.0,
          "duration": 1.25,
          "velocity": 100
        },
        {
          "pitch": 60,
          "onset": 62.25,
          "duration": 0.25,
          "velocity": 100
        },
        {
          "pitch": 62,
          "onset": 62.5,
          "duration": 0.5,
          "velocity": 100
        },
        {
          "pitch": 52,
          "onset": 62.75,
          "duration": 0.25,
          "velocity": 100
        },
        {
          "pitch": 57,
          "onset": 63.0,
          "duration": 1.25,
          "velocity": 100
        },
        {
          "pitch": 60,
          "onset": 63.0,
          "duration": 0.75,
          "velocity": 100
        },
        {
          "pitch": 64,
          "onset": 63.25,
          "duration": 0.25,
          "velocity": 100
        },
        {
          "pitch": 65,
          "onset": 63.5,
          "duration": 1.25,
          "velocity": 100
        },
        {
          "pitch": 58,
          "onset": 63.75,
          "duration": 0.25,
          "velocity": 100
        },
        {
          "pitch": 60,
          "onset": 64.0,
          "duration": 0.5,
          "velocity": 100
        },
        {
          "pitch": 50,
          "onset": 64.25,
          "duration": 0.25,
          "velocity": 100
        },
        {
          "pitch": 55,
          "onset": 64.5,
          "duration": 1.25,
          "velocity": 100
        },
        {
          "pitch": 58,
          "onset": 64.5,
          "duration": 0.75,
          "velocity": 100
        },
        {
          "pitch": 62,
          "onset": 64.75,
          "duration": 0.25,
          "velocity": 100
        },
        {
          "pitch": 64,
          "onset": 65.0,
          "duration": 1.0,
          "velocity": 100
        },
        {
          "pitch": 57,
          "onset": 65.25,
          "duration": 0.25,
          "velocity": 100
        },
        {
          "pitch": 58,
          "onset": 65.5,
          "duration": 0.5,
          "velocity": 100
        },
        {
          "pitch": 48,
          "onset": 65.75,
          "duration": 0.25,
          "velocity": 100
        },
        {
          "pitch": 53,
          "onset": 66.0,
          "duration": 1.0,
          "velocity": 100
        },
        {
          "pitch": 57,
          "onset": 66.0,
          "duration": 0.5,
          "velocity": 100
        },
        {
          "pitch": 65,
          "onset": 66.0,
          "duration": 0.25,
          "velocity": 100
        },
        {
          "pitch": 64,
          "onset": 66.25,
          "duration": 0.25,
          "velocity": 100
        },
        {
          "pitch": 48,
          "onset": 66.5,
          "duration": 0.5,
          "velocity": 100
        },
        {
          "pitch": 65,
          "onset": 66.5,
          "duration": 0.25,
          "velocity": 100
        },
        {
          "pitch": 60,
          "onset": 66.75,
          "duration": 0.25,
          "velocity": 100
        },
        {
          "pitch": 53,
          "onset": 67.0,
          "duration": 1.0,
          "velocity": 100
        },
        {
          "pitch": 69,
          "onset": 67.0,
          "duration": 0.25,
          "velocity": 100
        },
        {
          "pitch": 65,
          "onset": 67.25,
          "duration": 0.25,
          "velocity": 100
        },
        {
          "pitch": 67,
          "onset": 67.5,
          "duration": 0.25,
          "velocity": 100
        },
        {
          "pitch": 65,
          "onset": 67.75,
          "duration": 0.25,
          "velocity": 100
        },
        {
          "pitch": 52,
          "onset": 68.0,
          "duration": 0.125,
          "velocity": 100
        },
        {
          "pitch": 67,
          "onset": 68.0,
          "duration": 0.25,
          "velocity": 100
        },
        {
          "pitch": 53,
          "onset": 68.125,
          "duration": 0.125,
          "velocity": 100
        },
        {
          "pitch": 52,
          "onset": 68.25,
          "duration": 0.125,
          "velocity": 100
        },
        {
          "pitch": 60,
          "onset": 68.25,
          "duration": 0.25,
          "velocity": 100
        },
        {
          "pitch": 53,
          "onset": 68.375,
          "duration": 0.125,
          "velocity": 100
        },
        {
          "pitch": 52,
          "onset": 68.5,
          "duration": 0.125,
          "velocity": 100
        },
        {
          "pitch": 70,
          "onset": 68.5,
          "duration": 0.25,
          "velocity": 100
        },
        {
          "pitch": 53,
          "onset": 68.625,
          "duration": 0.125,
          "velocity": 100
        },
        {
          "pitch": 50,
          "onset": 68.75,
          "duration": 0.125,
          "velocity": 100
        },
        {
          "pitch": 67,
          "onset": 68.75,
          "duration": 0.25,
          "velocity": 100
        },
        {
          "pitch": 52,
          "onset": 68.875,
          "duration": 0.125,
          "velocity": 100
        },
        {
          "pitch": 53,
          "onset": 69.0,
          "duration": 0.25,
          "velocity": 100
        },
        {
          "pitch": 69,
          "onset": 69.0,
          "duration": 0.25,
          "velocity": 100
        },
        {
          "pitch": 52,
          "onset": 69.25,
          "duration": 0.25,
          "velocity": 100
        },
        {
          "pitch": 67,
          "onset": 69.25,
          "duration": 0.25,
          "velocity": 100
        },
        {
          "pitch": 53,
          "onset": 69.5,
          "duration": 0.25,
          "velocity": 100
        },
        {
          "pitch": 69,
          "onset": 69.5,
          "duration": 0.25,
          "velocity": 100
        },
        {
          "pitch": 48,
          "onset": 69.75,
          "duration": 0.25,
          "velocity": 100
        },
        {
          "pitch": 70,
          "onset": 69.75,
          "duration": 0.25,
          "velocity": 100
        },
        {
          "pitch": 57,
          "onset": 70.0,
          "duration": 0.25,
          "velocity": 100
        },
        {
          "pitch": 72,
          "onset": 70.0,
          "duration": 0.25,
          "velocity": 100
        },
        {
          "pitch": 53,
          "onset": 70.25,
          "duration": 0.25,
          "velocity": 100
        },
        {
          "pitch": 69,
          "onset": 70.25,
          "duration": 0.25,
          "velocity": 100
        },
        {
          "pitch": 55,
          "onset": 70.5,
          "duration": 0.25,
          "velocity": 100
        },
        {
          "pitch": 70,
          "onset": 70.5,
          "duration": 0.25,
          "velocity": 100
        },
        {
          "pitch": 53,
          "onset": 70.75,
          "duration": 0.25,
          "velocity": 100
        },
        {
          "pitch": 69,
          "onset": 70.75,
          "duration": 0.25,
          "velocity": 100
        },
        {
          "pitch": 55,
          "onset": 71.0,
          "duration": 0.25,
          "velocity": 100
        },
        {
          "pitch": 70,
          "onset": 71.0,
          "duration": 0.25,
          "velocity": 100
        },
        {
          "pitch": 48,
          "onset": 71.25,
          "duration": 0.25,
          "velocity": 100
        },
        {
          "pitch": 72,
          "onset": 71.25,
          "duration": 0.25,
          "velocity": 100
        },
        {
          "pitch": 58,
          "onset": 71.5,
          "duration": 0.25,
          "velocity": 100
        },
        {
          "pitch": 74,
          "onset": 71.5,
          "duration": 0.25,
          "velocity": 100
        },
        {
          "pitch": 55,
          "onset": 71.75,
          "duration": 0.25,
          "velocity": 100
        },
        {
          "pitch": 70,
          "onset": 71.75,
          "duration": 0.25,
          "velocity": 100
        },
        {
          "pitch": 57,
          "onset": 72.0,
          "duration": 0.25,
          "velocity": 100
        },
        {
          "pitch": 72,
          "onset": 72.0,
          "duration": 0.25,
          "velocity": 100
        },
        {
          "pitch": 55,
          "onset": 72.25,
          "duration": 0.25,
          "velocity": 100
        },
        {
          "pitch": 70,
          "onset": 72.25,
          "duration": 0.25,
          "velocity": 100
        },
        {
          "pitch": 57,
          "onset": 72.5,
          "duration": 0.25,
          "velocity": 100
        },
        {
          "pitch": 72,
          "onset": 72.5,
          "duration": 0.25,
          "velocity": 100
        },
        {
          "pitch": 58,
          "onset": 72.75,
          "duration": 0.25,
          "velocity": 100
        },
        {
          "pitch": 74,
          "onset": 72.75,
          "duration": 0.25,
          "velocity": 100
        },
        {
          "pitch": 60,
          "onset": 73.0,
          "duration": 0.25,
          "velocity": 100
        },
        {
          "pitch": 75,
          "onset": 73.0,
          "duration": 0.25,
          "velocity": 100
        },
        {
          "pitch": 57,
          "onset": 73.25,
          "duration": 0.25,
          "velocity": 100
        },
        {
          "pitch": 72,
          "onset": 73.25,
          "duration": 0.25,
          "velocity": 100
        },
        {
          "pitch": 58,
          "onset": 73.5,
          "duration": 0.25,
          "velocity": 100
        },
        {
          "pitch": 74,
          "onset": 73.5,
          "duration": 0.25,
          "velocity": 100
        },
        {
          "pitch": 57,
          "onset": 73.75,
          "duration": 0.25,
          "velocity": 100
        },
        {
          "pitch": 72,
          "onset": 73.75,
          "duration": 0.25,
          "velocity": 100
        },
        {
          "pitch": 58,
          "onset": 74.0,
          "duration": 0.25,
          "velocity": 100
        },
        {
          "pitch": 74,
          "onset": 74.0,
          "duration": 0.25,
          "velocity": 100
        },
        {
          "pitch": 60,
          "onset": 74.25,
          "duration": 0.25,
          "velocity": 100
        },
        {
          "pitch": 76,
          "onset": 74.25,
          "duration": 0.25,
          "velocity": 100
        },
        {
          "pitch": 62,
          "onset": 74.5,
          "duration": 0.25,
          "velocity": 100
        },
        {
          "pitch": 77,
          "onset": 74.5,
          "duration": 0.25,
          "velocity": 100
        },
        {
          "pitch": 58,
          "onset": 74.75,
          "duration": 0.25,
          "velocity": 100
        },
        {
          "pitch": 79,
          "onset": 74.75,
          "duration": 0.25,
          "velocity": 100
        },
        {
          "pitch": 60,
          "onset": 75.0,
          "duration": 0.25,
          "velocity": 100
        },
        {
          "pitch": 81,
          "onset": 75.0,
          "duration": 0.25,
          "velocity": 100
        },
        {
          "pitch": 58,
          "onset": 75.25,
          "duration": 0.25,
          "velocity": 100
        },
        {
          "pitch": 79,
          "onset": 75.25,
          "duration": 0.25,
          "velocity": 100
        },
        {
          "pitch": 60,
          "onset": 75.5,
          "duration": 0.25,
          "velocity": 100
        },
        {
          "pitch": 81,
          "onset": 75.5,
          "duration": 0.25,
          "velocity": 100
        },
        {
          "pitch": 62,
          "onset": 75.75,
          "duration": 0.25,
          "velocity": 100
        },
        {
          "pitch": 82,
          "onset": 75.75,
          "duration": 0.25,
          "velocity": 100
        },
        {
          "pitch": 63,
          "onset": 76.0,
          "duration": 0.25,
          "velocity": 100
        },
        {
          "pitch": 79,
          "onset": 76.0,
          "duration": 0.25,
          "velocity": 100
        },
        {
          "pitch": 60,
          "onset": 76.25,
          "duration": 0.25,
          "velocity": 100
        },
        {
          "pitch": 81,
          "onset": 76.25,
          "duration": 0.25,
          "velocity": 100
        },
        {
          "pitch": 62,
          "onset": 76.5,
          "duration": 0.25,
          "velocity": 100
        },
        {
          "pitch": 82,
          "onset": 76.5,
          "duration": 0.25,
          "velocity": 100
        },
        {
          "pitch": 60,
          "onset": 76.75,
          "duration": 0.25,
          "velocity": 100
        },
        {
          "pitch": 81,
          "onset": 76.75,
          "duration": 0.25,
          "velocity": 100
        },
        {
          "pitch": 62,
          "onset": 77.0,
          "duration": 0.25,
          "velocity": 100
        },
        {
          "pitch": 82,
          "onset": 77.0,
          "duration": 0.25,
          "velocity": 100
        },
        {
          "pitch": 64,
          "onset": 77.25,
          "duration": 0.25,
          "velocity": 100
        },
        {
          "pitch": 84,
          "onset": 77.25,
          "duration": 0.25,
          "velocity": 100
        },
        {
          "pitch": 65,
          "onset": 77.5,
          "duration": 0.25,
          "velocity": 100
        },
        {
          "pitch": 81,
          "onset": 77.5,
          "duration": 0.25,
          "velocity": 100
        },
        {
          "pitch": 67,
          "onset": 77.75,
          "duration": 0.25,
          "velocity": 100
        },
        {
          "pitch": 82,
          "onset": 77.75,
          "duration": 0.25,
          "velocity": 100
        },
        {
          "pitch": 69,
          "onset": 78.0,
          "duration": 0.25,
          "velocity": 100
        },
        {
          "pitch": 84,
          "onset": 78.0,
          "duration": 0.5,
          "velocity": 100
        },
        {
          "pitch": 67,
          "onset": 78.25,
          "duration": 0.25,
          "velocity": 100
        },
        {
          "pitch": 69,
          "onset": 78.5,
          "duration": 0.25,
          "velocity": 100
        },
        {
          "pitch": 70,
          "onset": 78.75,
          "duration": 0.25,
          "velocity": 100
        },
        {
          "pitch": 67,
          "onset": 79.0,
          "duration": 0.25,
          "velocity": 100
        },
        {
          "pitch": 69,
          "onset": 79.25,
          "duration": 0.25,
          "velocity": 100
        },
        {
          "pitch": 70,
          "onset": 79.5,
          "duration": 0.25,
          "velocity": 100
        },
        {
          "pitch": 69,
          "onset": 79.75,
          "duration": 0.25,
          "velocity": 100
        },
        {
          "pitch": 70,
          "onset": 80.0,
          "duration": 0.25,
          "velocity": 100
        },
        {
          "pitch": 72,
          "onset": 80.25,
          "duration": 0.25,
          "velocity": 100
        },
        {
          "pitch": 69,
          "onset": 80.5,
          "duration": 0.25,
          "velocity": 100
        },
        {
          "pitch": 70,
          "onset": 80.75,
          "duration": 0.25,
          "velocity": 100
        },
        {
          "pitch": 72,
          "onset": 81.0,
          "duration": 0.5,
          "velocity": 100
        },
        {
          "pitch": 48,
          "onset": 120.5,
          "duration": 0.5,
          "velocity": 110
        },
        {
          "pitch": 55,
          "onset": 120.5,
          "duration": 0.5,
          "velocity": 110
        },
        {
          "pitch": 64,
          "onset": 120.5,
          "duration": 0.5,
          "velocity": 100
        },
        {
          "pitch": 67,
          "onset": 120.5,
          "duration": 0.5,
          "velocity": 100
        },
        {
          "pitch": 72,
          "onset": 120.5,
          "duration": 0.5,
          "velocity": 100
        },
        {
          "pitch": 50,
          "onset": 121.0,
          "duration": 0.5,
          "velocity": 110
        },
        {
          "pitch": 53,
          "onset": 121.0,
          "duration": 0.5,
          "velocity": 110
        },
        {
          "pitch": 62,
          "onset": 121.0,
          "duration": 0.5,
          "velocity": 100
        },
        {
          "pitch": 67,
          "onset": 121.0,
          "duration": 0.5,
          "velocity": 100
        },
        {
          "pitch": 71,
          "onset": 121.0,
          "duration": 0.5,
          "velocity": 100
        },
        {
          "pitch": 48,
          "onset": 121.5,
          "duration": 1.0,
          "velocity": 110
        },
        {
          "pitch": 55,
          "onset": 121.5,
          "duration": 1.0,
          "velocity": 110
        },
        {
          "pitch": 64,
          "onset": 121.5,
          "duration": 1.0,
          "velocity": 100
        },
        {
          "pitch": 67,
          "onset": 121.5,
          "duration": 1.0,
          "velocity": 100
        },
        {
          "pitch": 72,
          "onset": 121.5,
          "duration": 1.0,
          "velocity": 100
        },
        {
          "pitch": 48,
          "onset": 123.0,
          "duration": 0.25,
          "velocity": 100
        },
        {
          "pitch": 47,
          "onset": 123.25,
          "duration": 0.25,
          "velocity": 100
        },
        {
          "pitch": 48,
          "onset": 123.5,
          "duration": 0.25,
          "velocity": 100
        },
        {
          "pitch": 43,
          "onset": 123.75,
          "duration": 0.25,
          "velocity": 100
        },
        {
          "pitch": 52,
          "onset": 124.0,
          "duration": 0.25,
          "velocity": 100
        },
        {
          "pitch": 48,
          "onset": 124.25,
          "duration": 0.25,
          "velocity": 100
        },
        {
          "pitch": 50,
          "onset": 124.5,
          "duration": 0.25,
          "velocity": 100
        },
        {
          "pitch": 48,
          "onset": 124.75,
          "duration": 0.25,
          "velocity": 100
        },
        {
          "pitch": 50,
          "onset": 125.0,
          "duration": 0.25,
          "velocity": 100
        },
        {
          "pitch": 43,
          "onset": 125.25,
          "duration": 0.25,
          "velocity": 100
        },
        {
          "pitch": 53,
          "onset": 125.5,
          "duration": 0.25,
          "velocity": 100
        },
        {
          "pitch": 50,
          "onset": 125.75,
          "duration": 0.25,
          "velocity": 100
        },
        {
          "pitch": 52,
          "onset": 126.0,
          "duration": 0.5,
          "velocity": 100
        },
        {
          "pitch": 72,
          "onset": 126.0,
          "duration": 0.25,
          "velocity": 100
        },
        {
          "pitch": 71,
          "onset": 126.25,
          "duration": 0.25,
          "velocity": 100
        },
        {
          "pitch": 48,
          "onset": 126.5,
          "duration": 0.5,
          "velocity": 100
        },
        {
          "pitch": 72,
          "onset": 126.5,
          "duration": 0.25,
          "velocity": 100
        },
        {
          "pitch": 67,
          "onset": 126.75,
          "duration": 0.25,
          "velocity": 100
        },
        {
          "pitch": 60,
          "onset": 127.0,
          "duration": 1.0,
          "velocity": 100
        },
        {
          "pitch": 76,
          "onset": 127.0,
          "duration": 0.25,
          "velocity": 100
        },
        {
          "pitch": 72,
          "onset": 127.25,
          "duration": 0.25,
          "velocity": 100
        },
        {
          "pitch": 74,
          "onset": 127.5,
          "duration": 0.25,
          "velocity": 100
        },
        {
          "pitch": 72,
          "onset": 127.75,
          "duration": 0.25,
          "velocity": 100
        },
        {
          "pitch": 59,
          "onset": 128.0,
          "duration": 0.125,
          "velocity": 100
        },
        {
          "pitch": 74,
          "onset": 128.0,
          "duration": 0.25,
          "velocity": 100
        },
        {
          "pitch": 60,
          "onset": 128.125,
          "duration": 0.125,
          "velocity": 100
        },
        {
          "pitch": 59,
          "onset": 128.25,
          "duration": 0.125,
          "velocity": 100
        },
        {
          "pitch": 67,
          "onset": 128.25,
          "duration": 0.25,
          "velocity": 100
        },
        {
          "pitch": 60,
          "onset": 128.375,
          "duration": 0.125,
          "velocity": 100
        },
        {
          "pitch": 59,
          "onset": 128.5,
          "duration": 0.125,
          "velocity": 100
        },
        {
          "pitch": 77,
          "onset": 128.5,
          "duration": 0.25,
          "velocity": 100
        },
        {
          "pitch": 60,
          "onset": 128.625,
          "duration": 0.125,
          "velocity": 100
        },
        {
          "pitch": 57,
          "onset": 128.75,
          "duration": 0.125,
          "velocity": 100
        },
        {
          "pitch": 74,
          "onset": 128.75,
          "duration": 0.25,
          "velocity": 100
        },
        {
          "pitch": 59,
          "onset": 128.875,
          "duration": 0.125,
          "velocity": 100
        },
        {
          "pitch": 60,
          "onset": 129.0,
          "duration": 0.25,
          "velocity": 100
        },
        {
          "pitch": 76,
          "onset": 129.0,
          "duration": 0.5,
          "velocity": 100
        },
        {
          "pitch": 59,
          "onset": 129.25,
          "duration": 0.25,
          "velocity": 100
        },
        {
          "pitch": 60,
          "onset": 129.5,
          "duration": 0.25,
          "velocity": 100
        },
        {
          "pitch": 72,
          "onset": 129.5,
          "duration": 0.5,
          "velocity": 100
        },
        {
          "pitch": 55,
          "onset": 129.75,
          "duration": 0.25,
          "velocity": 100
        },
        {
          "pitch": 57,
          "onset": 130.0,
          "duration": 0.25,
          "velocity": 100
        },
        {
          "pitch": 84,
          "onset": 130.0,
          "duration": 1.0,
          "velocity": 100
        },
        {
          "pitch": 52,
          "onset": 130.25,
          "duration": 0.25,
          "velocity": 100
        },
        {
          "pitch": 53,
          "onset": 130.5,
          "duration": 0.25,
          "velocity": 100
        },
        {
          "pitch": 52,
          "onset": 130.75,
          "duration": 0.25,
          "velocity": 100
        },
        {
          "pitch": 53,
          "onset": 131.0,
          "duration": 0.25,
          "velocity": 100
        },
        {
          "pitch": 83,
          "onset": 131.0,
          "duration": 0.125,
          "velocity": 100
        },
        {
          "pitch": 84,
          "onset": 131.125,
          "duration": 0.125,
          "velocity": 100
        },
        {
          "pitch": 50,
          "onset": 131.25,
          "duration": 0.25,
          "velocity": 100
        },
        {
          "pitch": 83,
          "onset": 131.25,
          "duration": 0.125,
          "velocity": 100
        },
        {
          "pitch": 84,
          "onset": 131.375,
          "duration": 0.125,
          "velocity": 100
        },
        {
          "pitch": 55,
          "onset": 131.5,
          "duration": 0.25,
          "velocity": 100
        },
        {
          "pitch": 83,
          "onset": 131.5,
          "duration": 0.125,
          "velocity": 100
        },
        {
          "pitch": 84,
          "onset": 131.625,
          "duration": 0.125,
          "velocity": 100
        },
        {
          "pitch": 50,
          "onset": 131.75,
          "duration": 0.25,
          "velocity": 100
        },
        {
          "pitch": 81,
          "onset": 131.75,
          "duration": 0.125,
          "velocity": 100
        },
        {
          "pitch": 83,
          "onset": 131.875,
          "duration": 0.125,
          "velocity": 100
        },
        {
          "pitch": 52,
          "onset": 132.0,
          "duration": 0.25,
          "velocity": 100
        },
        {
          "pitch": 84,
          "onset": 132.0,
          "duration": 0.25,
          "velocity": 100
        },
        {
          "pitch": 53,
          "onset": 132.25,
          "duration": 0.25,
          "velocity": 100
        },
        {
          "pitch": 83,
          "onset": 132.25,
          "duration": 0.25,
          "velocity": 100
        },
        {
          "pitch": 52,
          "onset": 132.5,
          "duration": 0.25,
          "velocity": 100
        },
        {
          "pitch": 84,
          "onset": 132.5,
          "duration": 0.25,
          "velocity": 100
        },
        {
          "pitch": 50,
          "onset": 132.75,
          "duration": 0.25,
          "velocity": 100
        },
        {
          "pitch": 79,
          "onset": 132.75,
          "duration": 0.25,
          "velocity": 100
        },
        {
          "pitch": 48,
          "onset": 133.0,
          "duration": 0.25,
          "velocity": 100
        },
        {
          "pitch": 81,
          "onset": 133.0,
          "duration": 0.25,
          "velocity": 100
        },
        {
          "pitch": 52,
          "onset": 133.25,
          "duration": 0.25,
          "velocity": 100
        },
        {
          "pitch": 76,
          "onset": 133.25,
          "duration": 0.25,
          "velocity": 100
        },
        {
          "pitch": 50,
          "onset": 133.5,
          "duration": 0.25,
          "velocity": 100
        },
        {
          "pitch": 77,
          "onset": 133.5,
          "duration": 0.25,
          "velocity": 100
        },
        {
          "pitch": 52,
          "onset": 133.75,
          "duration": 0.25,
          "velocity": 100
        },
        {
          "pitch": 76,
          "onset": 133.75,
          "duration": 0.25,
          "velocity": 100
        },
        {
          "pitch": 50,
          "onset": 134.0,
          "duration": 0.25,
          "velocity": 100
        },
        {
          "pitch": 77,
          "onset": 134.0,
          "duration": 0.25,
          "velocity": 100
        },
        {
          "pitch": 48,
          "onset": 134.25,
          "duration": 0.25,
          "velocity": 100
        },
        {
          "pitch": 74,
          "onset": 134.25,
          "duration": 0.25,
          "velocity": 100
        },
        {
          "pitch": 47,
          "onset": 134.5,
          "duration": 0.25,
          "velocity": 100
        },
        {
          "pitch": 79,
          "onset": 134.5,
          "duration": 0.25,
          "velocity": 100
        },
        {
          "pitch": 50,
          "onset": 134.75,
          "duration": 0.25,
          "velocity": 100
        },
        {
          "pitch": 74,
          "onset": 134.75,
          "duration": 0.25,
          "velocity": 100
        },
        {
          "pitch": 48,
          "onset": 135.0,
          "duration": 0.25,
          "velocity": 100
        },
        {
          "pitch": 76,
          "onset": 135.0,
          "duration": 0.25,
          "velocity": 100
        },
        {
          "pitch": 47,
          "onset": 135.25,
          "duration": 0.25,
          "velocity": 100
        },
        {
          "pitch": 77,
          "onset": 135.25,
          "duration": 0.25,
          "velocity": 100
        },
        {
          "pitch": 48,
          "onset": 135.5,
          "duration": 0.25,
          "velocity": 100
        },
        {
          "pitch": 76,
          "onset": 135.5,
          "duration": 0.25,
          "velocity": 100
        },
        {
          "pitch": 50,
          "onset": 135.75,
          "duration": 0.25,
          "velocity": 100
        },
        {
          "pitch": 74,
          "onset": 135.75,
          "duration": 0.25,
          "velocity": 100
        },
        {
          "pitch": 52,
          "onset": 136.0,
          "duration": 0.25,
          "velocity": 100
        },
        {
          "pitch": 72,
          "onset": 136.0,
          "duration": 0.25,
          "velocity": 100
        },
        {
          "pitch": 48,
          "onset": 136.25,
          "duration": 0.25,
          "velocity": 100
        },
        {
          "pitch": 76,
          "onset": 136.25,
          "duration": 0.25,
          "velocity": 100
        },
        {
          "pitch": 50,
          "onset": 136.5,
          "duration": 0.25,
          "velocity": 100
        },
        {
          "pitch": 74,
          "onset": 136.5,
          "duration": 0.25,
          "velocity": 100
        },
        {
          "pitch": 48,
          "onset": 136.75,
          "duration": 0.25,
          "velocity": 100
        },
        {
          "pitch": 76,
          "onset": 136.75,
          "duration": 0.25,
          "velocity": 100
        },
        {
          "pitch": 50,
          "onset": 137.0,
          "duration": 0.25,
          "velocity": 100
        },
        {
          "pitch": 74,
          "onset": 137.0,
          "duration": 0.25,
          "velocity": 100
        },
        {
          "pitch": 52,
          "onset": 137.25,
          "duration": 0.25,
          "velocity": 100
        },
        {
          "pitch": 72,
          "onset": 137.25,
          "duration": 0.25,
          "velocity": 100
        },
        {
          "pitch": 53,
          "onset": 137.5,
          "duration": 0.25,
          "velocity": 100
        },
        {
          "pitch": 71,
          "onset": 137.5,
          "duration": 0.25,
          "velocity": 100
        },
        {
          "pitch": 50,
          "onset": 137.75,
          "duration": 0.25,
          "velocity": 100
        },
        {
          "pitch": 74,
          "onset": 137.75,
          "duration": 0.25,
          "velocity": 100
        },
        {
          "pitch": 52,
          "onset": 138.0,
          "duration": 0.25,
          "velocity": 100
        },
        {
          "pitch": 72,
          "onset": 138.0,
          "duration": 0.25,
          "velocity": 100
        },
        {
          "pitch": 50,
          "onset": 138.25,
          "duration": 0.25,
          "velocity": 100
        },
        {
          "pitch": 71,
          "onset": 138.25,
          "duration": 0.25,
          "velocity": 100
        },
        {
          "pitch": 52,
          "onset": 138.5,
          "duration": 0.25,
          "velocity": 100
        },
        {
          "pitch": 72,
          "onset": 138.5,
          "duration": 0.25,
          "velocity": 100
        },
        {
          "pitch": 53,
          "onset": 138.75,
          "duration": 0.25,
          "velocity": 100
        },
        {
          "pitch": 74,
          "onset": 138.75,
          "duration": 0.25,
          "velocity": 100
        },
        {
          "pitch": 55,
          "onset": 139.0,
          "duration": 0.25,
          "velocity": 100
        },
        {
          "pitch": 76,
          "onset": 139.0,
          "duration": 0.25,
          "velocity": 100
        },
        {
          "pitch": 52,
          "onset": 139.25,
          "duration": 0.25,
          "velocity": 100
        },
        {
          "pitch": 72,
          "onset": 139.25,
          "duration": 0.25,
          "velocity": 100
        },
        {
          "pitch": 53,
          "onset": 139.5,
          "duration": 0.25,
          "velocity": 100
        },
        {
          "pitch": 74,
          "onset": 139.5,
          "duration": 0.25,
          "velocity": 100
        },
        {
          "pitch": 52,
          "onset": 139.75,
          "duration": 0.25,
          "velocity": 100
        },
        {
          "pitch": 72,
          "onset": 139.75,
          "duration": 0.25,
          "velocity": 100
        },
        {
          "pitch": 53,
          "onset": 140.0,
          "duration": 0.25,
          "velocity": 100
        },
        {
          "pitch": 74,
          "onset": 140.0,
          "duration": 0.25,
          "velocity": 100
        },
        {
          "pitch": 55,
          "onset": 140.25,
          "duration": 0.25,
          "velocity": 100
        },
        {
          "pitch": 76,
          "onset": 140.25,
          "duration": 0.25,
          "velocity": 100
        },
        {
          "pitch": 57,
          "onset": 140.5,
          "duration": 0.25,
          "velocity": 100
        },
        {
          "pitch": 77,
          "onset": 140.5,
          "duration": 0.25,
          "velocity": 100
        },
        {
          "pitch": 53,
          "onset": 140.75,
          "duration": 0.25,
          "velocity": 100
        },
        {
          "pitch": 74,
          "onset": 140.75,
          "duration": 0.25,
          "velocity": 100
        },
        {
          "pitch": 55,
          "onset": 141.0,
          "duration": 0.25,
          "velocity": 100
        },
        {
          "pitch": 76,
          "onset": 141.0,
          "duration": 0.25,
          "velocity": 100
        },
        {
          "pitch": 53,
          "onset": 141.25,
          "duration": 0.25,
          "velocity": 100
        },
        {
          "pitch": 74,
          "onset": 141.25,
          "duration": 0.25,
          "velocity": 100
        },
        {
          "pitch": 55,
          "onset": 141.5,
          "duration": 0.25,
          "velocity": 100
        },
        {
          "pitch": 76,
          "onset": 141.5,
          "duration": 0.25,
          "velocity": 100
        },
        {
          "pitch": 48,
          "onset": 141.75,
          "duration": 0.25,
          "velocity": 100
        },
        {
          "pitch": 77,
          "onset": 141.75,
          "duration": 0.25,
          "velocity": 100
        },
        {
          "pitch": 58,
          "onset": 142.0,
          "duration": 0.25,
          "velocity": 100
        },
        {
          "pitch": 79,
          "onset": 142.0,
          "duration": 0.25,
          "velocity": 100
        },
        {
          "pitch": 55,
          "onset": 142.25,
          "duration": 0.25,
          "velocity": 100
        },
        {
          "pitch": 76,
          "onset": 142.25,
          "duration": 0.25,
          "velocity": 100
        },
        {
          "pitch": 57,
          "onset": 142.5,
          "duration": 0.25,
          "velocity": 100
        },
        {
          "pitch": 77,
          "onset": 142.5,
          "duration": 0.25,
          "velocity": 100
        },
        {
          "pitch": 55,
          "onset": 142.75,
          "duration": 0.25,
          "velocity": 100
        },
        {
          "pitch": 76,
          "onset": 142.75,
          "duration": 0.25,
          "velocity": 100
        },
        {
          "pitch": 57,
          "onset": 143.0,
          "duration": 0.25,
          "velocity": 100
        },
        {
          "pitch": 77,
          "onset": 143.0,
          "duration": 0.25,
          "velocity": 100
        },
        {
          "pitch": 48,
          "onset": 143.25,
          "duration": 0.25,
          "velocity": 100
        },
        {
          "pitch": 79,
          "onset": 143.25,
          "duration": 0.25,
          "velocity": 100
        },
        {
          "pitch": 60,
          "onset": 143.5,
          "duration": 0.25,
          "velocity": 100
        },
        {
          "pitch": 81,
          "onset": 143.5,
          "duration": 0.25,
          "velocity": 100
        },
        {
          "pitch": 57,
          "onset": 143.75,
          "duration": 0.25,
          "velocity": 100
        },
        {
          "pitch": 77,
          "onset": 143.75,
          "duration": 0.25,
          "velocity": 100
        },
        {
          "pitch": 58,
          "onset": 144.0,
          "duration": 0.25,
          "velocity": 100
        },
        {
          "pitch": 79,
          "onset": 144.0,
          "duration": 0.25,
          "velocity": 100
        },
        {
          "pitch": 57,
          "onset": 144.25,
          "duration": 0.25,
          "velocity": 100
        },
        {
          "pitch": 77,
          "onset": 144.25,
          "duration": 0.25,
          "velocity": 100
        },
        {
          "pitch": 58,
          "onset": 144.5,
          "duration": 0.25,
          "velocity": 100
        },
        {
          "pitch": 79,
          "onset": 144.5,
          "duration": 0.25,
          "velocity": 100
        },
        {
          "pitch": 60,
          "onset": 144.75,
          "duration": 0.25,
          "velocity": 100
        },
        {
          "pitch": 72,
          "onset": 144.75,
          "duration": 0.25,
          "velocity": 100
        },
        {
          "pitch": 62,
          "onset": 145.0,
          "duration": 0.25,
          "velocity": 100
        },
        {
          "pitch": 82,
          "onset": 145.0,
          "duration": 0.25,
          "velocity": 100
        },
        {
          "pitch": 64,
          "onset": 145.25,
          "duration": 0.25,
          "velocity": 100
        },
        {
          "pitch": 79,
          "onset": 145.25,
          "duration": 0.25,
          "velocity": 100
        },
        {
          "pitch": 65,
          "onset": 145.5,
          "duration": 0.25,
          "velocity": 100
        },
        {
          "pitch": 81,
          "onset": 145.5,
          "duration": 0.25,
          "velocity": 100
        },
        {
          "pitch": 64,
          "onset": 145.75,
          "duration": 0.25,
          "velocity": 100
        },
        {
          "pitch": 79,
          "onset": 145.75,
          "duration": 0.25,
          "velocity": 100
        },
        {
          "pitch": 65,
          "onset": 146.0,
          "duration": 0.25,
          "velocity": 100
        },
        {
          "pitch": 81,
          "onset": 146.0,
          "duration": 0.25,
          "velocity": 100
        },
        {
          "pitch": 67,
          "onset": 146.25,
          "duration": 0.25,
          "velocity": 100
        },
        {
          "pitch": 72,
          "onset": 146.25,
          "duration": 0.25,
          "velocity": 100
        },
        {
          "pitch": 64,
          "onset": 146.5,
          "duration": 0.25,
          "velocity": 100
        },
        {
          "pitch": 84,
          "onset": 146.5,
          "duration": 0.25,
          "velocity": 100
        },
        {
          "pitch": 65,
          "onset": 146.75,
          "duration": 0.25,
          "velocity": 100
        },
        {
          "pitch": 81,
          "onset": 146.75,
          "duration": 0.25,
          "velocity": 100
        },
        {
          "pitch": 67,
          "onset": 147.0,
          "duration": 0.25,
          "velocity": 100
        },
        {
          "pitch": 82,
          "onset": 147.0,
          "duration": 0.25,
          "velocity": 100
        },
        {
          "pitch": 65,
          "onset": 147.25,
          "duration": 0.25,
          "velocity": 100
        },
        {
          "pitch": 81,
          "onset": 147.25,
          "duration": 0.25,
          "velocity": 100
        },
        {
          "pitch": 64,
          "onset": 147.5,
          "duration": 0.25,
          "velocity": 100
        },
        {
          "pitch": 82,
          "onset": 147.5,
          "duration": 0.25,
          "velocity": 100
        },
        {
          "pitch": 62,
          "onset": 147.75,
          "duration": 0.25,
          "velocity": 100
        },
        {
          "pitch": 84,
          "onset": 147.75,
          "duration": 0.25,
          "velocity": 100
        },
        {
          "pitch": 60,
          "onset": 148.0,
          "duration": 0.25,
          "velocity": 100
        },
        {
          "pitch": 86,
          "onset": 148.0,
          "duration": 0.25,
          "velocity": 100
        },
        {
          "pitch": 58,
          "onset": 148.25,
          "duration": 0.25,
          "velocity": 100
        },
        {
          "pitch": 76,
          "onset": 148.25,
          "duration": 0.25,
          "velocity": 100
        },
        {
          "pitch": 57,
          "onset": 148.5,
          "duration": 0.25,
          "velocity": 100
        },
        {
          "pitch": 77,
          "onset": 148.5,
          "duration": 0.25,
          "velocity": 100
        },
        {
          "pitch": 60,
          "onset": 148.75,
          "duration": 0.25,
          "velocity": 100
        },
        {
          "pitch": 76,
          "onset": 148.75,
          "duration": 0.25,
          "velocity": 100
        },
        {
          "pitch": 62,
          "onset": 149.0,
          "duration": 0.25,
          "velocity": 100
        },
        {
          "pitch": 77,
          "onset": 149.0,
          "duration": 0.25,
          "velocity": 100
        },
        {
          "pitch": 60,
          "onset": 149.25,
          "duration": 0.25,
          "velocity": 100
        },
        {
          "pitch": 79,
          "onset": 149.25,
          "duration": 0.25,
          "velocity": 100
        },
        {
          "pitch": 58,
          "onset": 149.5,
          "duration": 0.25,
          "velocity": 100
        },
        {
          "pitch": 76,
          "onset": 149.5,
          "duration": 0.25,
          "velocity": 100
        },
        {
          "pitch": 57,
          "onset": 149.75,
          "duration": 0.25,
          "velocity": 100
        },
        {
          "pitch": 77,
          "onset": 149.75,
          "duration": 0.25,
          "velocity": 100
        },
        {
          "pitch": 58,
          "onset": 150.0,
          "duration": 0.25,
          "velocity": 100
        },
        {
          "pitch": 79,
          "onset": 150.0,
          "duration": 0.25,
          "velocity": 100
        },
        {
          "pitch": 57,
          "onset": 150.25,
          "duration": 0.25,
          "velocity": 100
        },
        {
          "pitch": 77,
          "onset": 150.25,
          "duration": 0.25,
          "velocity": 100
        },
        {
          "pitch": 58,
          "onset": 150.5,
          "duration": 0.25,
          "velocity": 100
        },
        {
          "pitch": 76,
          "onset": 150.5,
          "duration": 0.25,
          "velocity": 100
        },
        {
          "pitch": 55,
          "onset": 150.75,
          "duration": 0.25,
          "velocity": 100
        },
        {
          "pitch": 74,
          "onset": 150.75,
          "duration": 0.25,
          "velocity": 100
        },
        {
          "pitch": 60,
          "onset": 151.0,
          "duration": 0.25,
          "velocity": 100
        },
        {
          "pitch": 72,
          "onset": 151.0,
          "duration": 0.25,
          "velocity": 100
        },
        {
          "pitch": 52,
          "onset": 151.25,
          "duration": 0.25,
          "velocity": 100
        },
        {
          "pitch": 70,
          "onset": 151.25,
          "duration": 0.25,
          "velocity": 100
        },
        {
          "pitch": 53,
          "onset": 151.5,
          "duration": 0.25,
          "velocity": 100
        },
        {
          "pitch": 69,
          "onset": 151.5,
          "duration": 0.25,
          "velocity": 100
        },
        {
          "pitch": 52,
          "onset": 151.75,
          "duration": 0.25,
          "velocity": 100
        },
        {
          "pitch": 72,
          "onset": 151.75,
          "duration": 0.25,
          "velocity": 100
        },
        {
          "pitch": 53,
          "onset": 152.0,
          "duration": 0.25,
          "velocity": 100
        },
        {
          "pitch": 74,
          "onset": 152.0,
          "duration": 0.25,
          "velocity": 100
        },
        {
          "pitch": 55,
          "onset": 152.25,
          "duration": 0.25,
          "velocity": 100
        },
        {
          "pitch": 72,
          "onset": 152.25,
          "duration": 0.25,
          "velocity": 100
        },
        {
          "pitch": 52,
          "onset": 152.5,
          "duration": 0.25,
          "velocity": 100
        },
        {
          "pitch": 70,
          "onset": 152.5,
          "duration": 0.25,
          "velocity": 100
        },
        {
          "pitch": 53,
          "onset": 152.75,
          "duration": 0.25,
          "velocity": 100
        },
        {
          "pitch": 69,
          "onset": 152.75,
          "duration": 0.25,
          "velocity": 100
        },
        {
          "pitch": 55,
          "onset": 153.0,
          "duration": 0.25,
          "velocity": 100
        },
        {
          "pitch": 70,
          "onset": 153.0,
          "duration": 0.25,
          "velocity": 100
        },
        {
          "pitch": 53,
          "onset": 153.25,
          "duration": 0.25,
          "velocity": 100
        },
        {
          "pitch": 69,
          "onset": 153.25,
          "duration": 0.25,
          "velocity": 100
        },
        {
          "pitch": 55,
          "onset": 153.5,
          "duration": 0.25,
          "velocity": 100
        },
        {
          "pitch": 70,
          "onset": 153.5,
          "duration": 0.25,
          "velocity": 100
        },
        {
          "pitch": 57,
          "onset": 153.75,
          "duration": 0.25,
          "velocity": 100
        },
        {
          "pitch": 67,
          "onset": 153.75,
          "duration": 0.25,
          "velocity": 100
        },
        {
          "pitch": 53,
          "onset": 154.0,
          "duration": 0.25,
          "velocity": 100
        },
        {
          "pitch": 72,
          "onset": 154.0,
          "duration": 0.25,
          "velocity": 100
        },
        {
          "pitch": 55,
          "onset": 154.25,
          "duration": 0.25,
          "velocity": 100
        },
        {
          "pitch": 64,
          "onset": 154.25,
          "duration": 0.25,
          "velocity": 100
        },
        {
          "pitch": 57,
          "onset": 154.5,
          "duration": 0.25,
          "velocity": 100
        },
        {
          "pitch": 65,
          "onset": 154.5,
          "duration": 0.25,
          "velocity": 100
        },
        {
          "pitch": 55,
          "onset": 154.75,
          "duration": 0.25,
          "velocity": 100
        },
        {
          "pitch": 64,
          "onset": 154.75,
          "duration": 0.25,
          "velocity": 100
        },
        {
          "pitch": 57,
          "onset": 155.0,
          "duration": 0.25,
          "velocity": 100
        },
        {
          "pitch": 65,
          "onset": 155.0,
          "duration": 0.25,
          "velocity": 100
        },
        {
          "pitch": 58,
          "onset": 155.25,
          "duration": 0.25,
          "velocity": 100
        },
        {
          "pitch": 67,
          "onset": 155.25,
          "duration": 0.25,
          "velocity": 100
        },
        {
          "pitch": 60,
          "onset": 155.5,
          "duration": 0.25,
          "velocity": 100
        },
        {
          "pitch": 64,
          "onset": 155.5,
          "duration": 0.25,
          "velocity": 100
        },
        {
          "pitch": 62,
          "onset": 155.75,
          "duration": 0.25,
          "velocity": 100
        },
        {
          "pitch": 65,
          "onset": 155.75,
          "duration": 0.25,
          "velocity": 100
        },
        {
          "pitch": 52,
          "onset": 156.0,
          "duration": 0.25,
          "velocity": 100
        },
        {
          "pitch": 67,
          "onset": 156.0,
          "duration": 0.25,
          "velocity": 100
        },
        {
          "pitch": 55,
          "onset": 156.25,
          "duration": 0.25,
          "velocity": 100
        },
        {
          "pitch": 65,
          "onset": 156.25,
          "duration": 0.25,
          "velocity": 100
        },
        {
          "pitch": 53,
          "onset": 156.5,
          "duration": 0.25,
          "velocity": 100
        },
        {
          "pitch": 67,
          "onset": 156.5,
          "duration": 0.25,
          "velocity": 100
        },
        {
          "pitch": 52,
          "onset": 156.75,
          "duration": 0.25,
          "velocity": 100
        },
        {
          "pitch": 69,
          "onset": 156.75,
          "duration": 0.25,
          "velocity": 100
        },
        {
          "pitch": 50,
          "onset": 157.0,
          "duration": 0.25,
          "velocity": 100
        },
        {
          "pitch": 65,
          "onset": 157.0,
          "duration": 0.25,
          "velocity": 100
        },
        {
          "pitch": 48,
          "onset": 157.25,
          "duration": 0.25,
          "velocity": 100
        },
        {
          "pitch": 67,
          "onset": 157.25,
          "duration": 0.25,
          "velocity": 100
        },
        {
          "pitch": 53,
          "onset": 157.5,
          "duration": 0.25,
          "velocity": 100
        },
        {
          "pitch": 69,
          "onset": 157.5,
          "duration": 0.25,
          "velocity": 100
        },
        {
          "pitch": 52,
          "onset": 157.75,
          "duration": 0.25,
          "velocity": 100
        },
        {
          "pitch": 67,
          "onset": 157.75,
          "duration": 0.25,
          "velocity": 100
        },
        {
          "pitch": 53,
          "onset": 158.0,
          "duration": 0.25,
          "velocity": 100
        },
        {
          "pitch": 69,
          "onset": 158.0,
          "duration": 0.25,
          "velocity": 100
        },
        {
          "pitch": 48,
          "onset": 158.25,
          "duration": 0.25,
          "velocity": 100
        },
        {
          "pitch": 70,
          "onset": 158.25,
          "duration": 0.25,
          "velocity": 100
        },
        {
          "pitch": 57,
          "onset": 158.5,
          "duration": 0.25,
          "velocity": 100
        },
        {
          "pitch": 72,
          "onset": 158.5,
          "duration": 0.25,
          "velocity": 100
        },
        {
          "pitch": 53,
          "onset": 158.75,
          "duration": 0.25,
          "velocity": 100
        },
        {
          "pitch": 74,
          "onset": 158.75,
          "duration": 0.25,
          "velocity": 100
        },
        {
          "pitch": 55,
          "onset": 159.0,
          "duration": 0.25,
          "velocity": 100
        },
        {
          "pitch": 64,
          "onset": 159.0,
          "duration": 0.25,
          "velocity": 100
        },
        {
          "pitch": 53,
          "onset": 159.25,
          "duration": 0.25,
          "velocity": 100
        },
        {
          "pitch": 67,
          "onset": 159.25,
          "duration": 0.25,
          "velocity": 100
        },
        {
          "pitch": 55,
          "onset": 159.5,
          "duration": 0.25,
          "velocity": 100
        },
        {
          "pitch": 65,
          "onset": 159.5,
          "duration": 0.25,
          "velocity": 100
        },
        {
          "pitch": 48,
          "onset": 159.75,
          "duration": 0.25,
          "velocity": 100
        },
        {
          "pitch": 64,
          "onset": 159.75,
          "duration": 0.25,
          "velocity": 100
        },
        {
          "pitch": 58,
          "onset": 160.0,
          "duration": 0.25,
          "velocity": 100
        },
        {
          "pitch": 62,
          "onset": 160.0,
          "duration": 0.25,
          "velocity": 100
        },
        {
          "pitch": 55,
          "onset": 160.25,
          "duration": 0.25,
          "velocity": 100
        },
        {
          "pitch": 60,
          "onset": 160.25,
          "duration": 0.25,
          "velocity": 100
        },
        {
          "pitch": 57,
          "onset": 160.5,
          "duration": 0.5,
          "velocity": 100
        },
        {
          "pitch": 65,
          "onset": 160.5,
          "duration": 0.25,
          "velocity": 100
        },
        {
          "pitch": 64,
          "onset": 160.75,
          "duration": 0.25,
          "velocity": 100
        },
        {
          "pitch": 48,
          "onset": 161.0,
          "duration": 0.5,
          "velocity": 100
        },
        {
          "pitch": 65,
          "onset": 161.0,
          "duration": 0.25,
          "velocity": 100
        },
        {
          "pitch": 60,
          "onset": 161.25,
          "duration": 0.25,
          "velocity": 100
        },
        {
          "pitch": 53,
          "onset": 161.5,
          "duration": 1.0,
          "velocity": 100
        },
        {
          "pitch": 69,
          "onset": 161.5,
          "duration": 0.25,
          "velocity": 100
        },
        {
          "pitch": 65,
          "onset": 161.75,
          "duration": 0.25,
          "velocity": 100
        },
        {
          "pitch": 67,
          "onset": 162.0,
          "duration": 0.25,
          "velocity": 100
        },
        {
          "pitch": 65,
          "onset": 162.25,
          "duration": 0.25,
          "velocity": 100
        },
        {
          "pitch": 52,
          "onset": 162.5,
          "duration": 0.125,
          "velocity": 100
        },
        {
          "pitch": 67,
          "onset": 162.5,
          "duration": 0.25,
          "velocity": 100
        },
        {
          "pitch": 53,
          "onset": 162.625,
          "duration": 0.125,
          "velocity": 100
        },
        {
          "pitch": 52,
          "onset": 162.75,
          "duration": 0.125,
          "velocity": 100
        },
        {
          "pitch": 60,
          "onset": 162.75,
          "duration": 0.25,
          "velocity": 100
        },
        {
          "pitch": 53,
          "onset": 162.875,
          "duration": 0.125,
          "velocity": 100
        },
        {
          "pitch": 52,
          "onset": 163.0,
          "duration": 0.125,
          "velocity": 100
        },
        {
          "pitch": 70,
          "onset": 163.0,
          "duration": 0.25,
          "velocity": 100
        },
        {
          "pitch": 53,
          "onset": 163.125,
          "duration": 0.125,
          "velocity": 100
        },
        {
          "pitch": 50,
          "onset": 163.25,
          "duration": 0.125,
          "velocity": 100
        },
        {
          "pitch": 67,
          "onset": 163.25,
          "duration": 0.25,
          "velocity": 100
        },
        {
          "pitch": 52,
          "onset": 163.375,
          "duration": 0.125,
          "velocity": 100
        },
        {
          "pitch": 53,
          "onset": 163.5,
          "duration": 0.25,
          "velocity": 100
        },
        {
          "pitch": 69,
          "onset": 163.5,
          "duration": 0.5,
          "velocity": 100
        },
        {
          "pitch": 52,
          "onset": 163.75,
          "duration": 0.25,
          "velocity": 100
        },
        {
          "pitch": 53,
          "onset": 164.0,
          "duration": 0.25,
          "velocity": 100
        },
        {
          "pitch": 60,
          "onset": 164.0,
          "duration": 0.5,
          "velocity": 100
        },
        {
          "pitch": 48,
          "onset": 164.25,
          "duration": 0.25,
          "velocity": 100
        },
        {
          "pitch": 50,
          "onset": 164.5,
          "duration": 0.25,
          "velocity": 100
        },
        {
          "pitch": 65,
          "onset": 164.5,
          "duration": 1.0,
          "velocity": 100
        },
        {
          "pitch": 45,
          "onset": 164.75,
          "duration": 0.25,
          "velocity": 100
        },
        {
          "pitch": 46,
          "onset": 165.0,
          "duration": 0.25,
          "velocity": 100
        },
        {
          "pitch": 45,
          "onset": 165.25,
          "duration": 0.25,
          "velocity": 100
        },
        {
          "pitch": 46,
          "onset": 165.5,
          "duration": 0.25,
          "velocity": 100
        },
        {
          "pitch": 64,
          "onset": 165.5,
          "duration": 0.125,
          "velocity": 100
        },
        {
          "pitch": 65,
          "onset": 165.625,
          "duration": 0.125,
          "velocity": 100
        },
        {
          "pitch": 43,
          "onset": 165.75,
          "duration": 0.25,
          "velocity": 100
        },
        {
          "pitch": 64,
          "onset": 165.75,
          "duration": 0.125,
          "velocity": 100
        },
        {
          "pitch": 65,
          "onset": 165.875,
          "duration": 0.125,
          "velocity": 100
        },
        {
          "pitch": 48,
          "onset": 166.0,
          "duration": 0.25,
          "velocity": 100
        },
        {
          "pitch": 64,
          "onset": 166.0,
          "duration": 0.125,
          "velocity": 100
        },
        {
          "pitch": 65,
          "onset": 166.125,
          "duration": 0.125,
          "velocity": 100
        },
        {
          "pitch": 43,
          "onset": 166.25,
          "duration": 0.25,
          "velocity": 100
        },
        {
          "pitch": 62,
          "onset": 166.25,
          "duration": 0.125,
          "velocity": 100
        },
        {
          "pitch": 64,
          "onset": 166.375,
          "duration": 0.125,
          "velocity": 100
        },
        {
          "pitch": 45,
          "onset": 166.5,
          "duration": 0.25,
          "velocity": 100
        },
        {
          "pitch": 65,
          "onset": 166.5,
          "duration": 0.25,
          "velocity": 100
        },
        {
          "pitch": 43,
          "onset": 166.75,
          "duration": 0.25,
          "velocity": 100
        },
        {
          "pitch": 64,
          "onset": 166.75,
          "duration": 0.25,
          "velocity": 100
        },
        {
          "pitch": 45,
          "onset": 167.0,
          "duration": 0.25,
          "velocity": 100
        },
        {
          "pitch": 65,
          "onset": 167.0,
          "duration": 0.25,
          "velocity": 100
        },
        {
          "pitch": 48,
          "onset": 167.25,
          "duration": 0.25,
          "velocity": 100
        },
        {
          "pitch": 60,
          "onset": 167.25,
          "duration": 0.25,
          "velocity": 100
        },
        {
          "pitch": 41,
          "onset": 167.5,
          "duration": 0.25,
          "velocity": 100
        },
        {
          "pitch": 62,
          "onset": 167.5,
          "duration": 0.25,
          "velocity": 100
        },
        {
          "pitch": 45,
          "onset": 167.75,
          "duration": 0.25,
          "velocity": 100
        },
        {
          "pitch": 57,
          "onset": 167.75,
          "duration": 0.25,
          "velocity": 100
        },
        {
          "pitch": 43,
          "onset": 168.0,
          "duration": 0.25,
          "velocity": 100
        },
        {
          "pitch": 58,
          "onset": 168.0,
          "duration": 0.25,
          "velocity": 100
        },
        {
          "pitch": 41,
          "onset": 168.25,
          "duration": 0.25,
          "velocity": 100
        },
        {
          "pitch": 57,
          "onset": 168.25,
          "duration": 0.25,
          "velocity": 100
        },
        {
          "pitch": 43,
          "onset": 168.5,
          "duration": 0.25,
          "velocity": 100
        },
        {
          "pitch": 58,
          "onset": 168.5,
          "duration": 0.25,
          "velocity": 100
        },
        {
          "pitch": 46,
          "onset": 168.75,
          "duration": 0.25,
          "velocity": 100
        },
        {
          "pitch": 55,
          "onset": 168.75,
          "duration": 0.25,
          "velocity": 100
        },
        {
          "pitch": 40,
          "onset": 169.0,
          "duration": 0.25,
          "velocity": 100
        },
        {
          "pitch": 60,
          "onset": 169.0,
          "duration": 0.25,
          "velocity": 100
        },
        {
          "pitch": 43,
          "onset": 169.25,
          "duration": 0.25,
          "velocity": 100
        },
        {
          "pitch": 55,
          "onset": 169.25,
          "duration": 0.25,
          "velocity": 100
        },
        {
          "pitch": 41,
          "onset": 169.5,
          "duration": 0.25,
          "velocity": 100
        },
        {
          "pitch": 57,
          "onset": 169.5,
          "duration": 0.25,
          "velocity": 100
        },
        {
          "pitch": 40,
          "onset": 169.75,
          "duration": 0.25,
          "velocity": 100
        },
        {
          "pitch": 55,
          "onset": 169.75,
          "duration": 0.25,
          "velocity": 100
        },
        {
          "pitch": 41,
          "onset": 170.0,
          "duration": 0.25,
          "velocity": 100
        },
        {
          "pitch": 57,
          "onset": 170.0,
          "duration": 0.25,
          "velocity": 100
        },
        {
          "pitch": 43,
          "onset": 170.25,
          "duration": 0.25,
          "velocity": 100
        },
        {
          "pitch": 60,
          "onset": 170.25,
          "duration": 0.25,
          "velocity": 100
        },
        {
          "pitch": 45,
          "onset": 170.5,
          "duration": 0.25,
          "velocity": 100
        },
        {
          "pitch": 53,
          "onset": 170.5,
          "duration": 0.25,
          "velocity": 100
        },
        {
          "pitch": 46,
          "onset": 170.75,
          "duration": 0.25,
          "velocity": 100
        },
        {
          "pitch": 57,
          "onset": 170.75,
          "duration": 0.25,
          "velocity": 100
        },
        {
          "pitch": 40,
          "onset": 171.0,
          "duration": 0.25,
          "velocity": 100
        },
        {
          "pitch": 55,
          "onset": 171.0,
          "duration": 0.25,
          "velocity": 100
        },
        {
          "pitch": 38,
          "onset": 171.25,
          "duration": 0.25,
          "velocity": 100
        },
        {
          "pitch": 53,
          "onset": 171.25,
          "duration": 0.25,
          "velocity": 100
        },
        {
          "pitch": 40,
          "onset": 171.5,
          "duration": 0.25,
          "velocity": 100
        },
        {
          "pitch": 55,
          "onset": 171.5,
          "duration": 0.25,
          "velocity": 100
        },
        {
          "pitch": 41,
          "onset": 171.75,
          "duration": 0.25,
          "velocity": 100
        },
        {
          "pitch": 58,
          "onset": 171.75,
          "duration": 0.25,
          "velocity": 100
        },
        {
          "pitch": 43,
          "onset": 172.0,
          "duration": 0.25,
          "velocity": 100
        },
        {
          "pitch": 52,
          "onset": 172.0,
          "duration": 0.25,
          "velocity": 100
        },
        {
          "pitch": 40,
          "onset": 172.25,
          "duration": 0.25,
          "velocity": 100
        },
        {
          "pitch": 55,
          "onset": 172.25,
          "duration": 0.25,
          "velocity": 100
        },
        {
          "pitch": 45,
          "onset": 172.5,
          "duration": 0.25,
          "velocity": 100
        },
        {
          "pitch": 53,
          "onset": 172.5,
          "duration": 0.25,
          "velocity": 100
        },
        {
          "pitch": 43,
          "onset": 172.75,
          "duration": 0.25,
          "velocity": 100
        },
        {
          "pitch": 52,
          "onset": 172.75,
          "duration": 0.25,
          "velocity": 100
        },
        {
          "pitch": 45,
          "onset": 173.0,
          "duration": 0.25,
          "velocity": 100
        },
        {
          "pitch": 53,
          "onset": 173.0,
          "duration": 0.25,
          "velocity": 100
        },
        {
          "pitch": 46,
          "onset": 173.25,
          "duration": 0.25,
          "velocity": 100
        },
        {
          "pitch": 55,
          "onset": 173.25,
          "duration": 0.25,
          "velocity": 100
        },
        {
          "pitch": 48,
          "onset": 173.5,
          "duration": 0.25,
          "velocity": 100
        },
        {
          "pitch": 57,
          "onset": 173.5,
          "duration": 0.25,
          "velocity": 100
        },
        {
          "pitch": 50,
          "onset": 173.75,
          "duration": 0.25,
          "velocity": 100
        },
        {
          "pitch": 58,
          "onset": 173.75,
          "duration": 0.25,
          "velocity": 100
        },
        {
          "pitch": 52,
          "onset": 174.0,
          "duration": 0.25,
          "velocity": 100
        },
        {
          "pitch": 60,
          "onset": 174.0,
          "duration": 0.25,
          "velocity": 100
        },
        {
          "pitch": 53,
          "onset": 174.25,
          "duration": 0.25,
          "velocity": 100
        },
        {
          "pitch": 62,
          "onset": 174.25,
          "duration": 0.25,
          "velocity": 100
        },
        {
          "pitch": 55,
          "onset": 174.5,
          "duration": 0.25,
          "velocity": 100
        },
        {
          "pitch": 64,
          "onset": 174.5,
          "duration": 0.25,
          "velocity": 100
        },
        {
          "pitch": 57,
          "onset": 174.75,
          "duration": 0.25,
          "velocity": 100
        },
        {
          "pitch": 65,
          "onset": 174.75,
          "duration": 0.25,
          "velocity": 100
        },
        {
          "pitch": 58,
          "onset": 175.0,
          "duration": 0.25,
          "velocity": 100
        },
        {
          "pitch": 67,
          "onset": 175.0,
          "duration": 0.25,
          "velocity": 100
        },
        {
          "pitch": 55,
          "onset": 175.25,
          "duration": 0.25,
          "velocity": 100
        },
        {
          "pitch": 64,
          "onset": 175.25,
          "duration": 0.25,
          "velocity": 100
        },
        {
          "pitch": 60,
          "onset": 175.5,
          "duration": 0.25,
          "velocity": 100
        },
        {
          "pitch": 69,
          "onset": 175.5,
          "duration": 0.25,
          "velocity": 100
        },
        {
          "pitch": 58,
          "onset": 175.75,
          "duration": 0.25,
          "velocity": 100
        },
        {
          "pitch": 67,
          "onset": 175.75,
          "duration": 0.25,
          "velocity": 100
        },
        {
          "pitch": 60,
          "onset": 176.0,
          "duration": 0.25,
          "velocity": 100
        },
        {
          "pitch": 69,
          "onset": 176.0,
          "duration": 0.25,
          "velocity": 100
        },
        {
          "pitch": 55,
          "onset": 176.25,
          "duration": 0.25,
          "velocity": 100
        },
        {
          "pitch": 70,
          "onset": 176.25,
          "duration": 0.25,
          "velocity": 100
        },
        {
          "pitch": 57,
          "onset": 176.5,
          "duration": 0.25,
          "velocity": 100
        },
        {
          "pitch": 72,
          "onset": 176.5,
          "duration": 0.25,
          "velocity": 100
        },
        {
          "pitch": 53,
          "onset": 176.75,
          "duration": 0.25,
          "velocity": 100
        },
        {
          "pitch": 74,
          "onset": 176.75,
          "duration": 0.25,
          "velocity": 100
        },
        {
          "pitch": 58,
          "onset": 177.0,
          "duration": 0.25,
          "velocity": 100
        },
        {
          "pitch": 76,
          "onset": 177.0,
          "duration": 0.25,
          "velocity": 100
        },
        {
          "pitch": 57,
          "onset": 177.25,
          "duration": 0.25,
          "velocity": 100
        },
        {
          "pitch": 77,
          "onset": 177.25,
          "duration": 0.25,
          "velocity": 100
        },
        {
          "pitch": 58,
          "onset": 177.5,
          "duration": 0.25,
          "velocity": 100
        },
        {
          "pitch": 79,
          "onset": 177.5,
          "duration": 0.25,
          "velocity": 100
        },
        {
          "pitch": 53,
          "onset": 177.75,
          "duration": 0.25,
          "velocity": 100
        },
        {
          "pitch": 74,
          "onset": 177.75,
          "duration": 0.25,
          "velocity": 100
        },
        {
          "pitch": 55,
          "onset": 178.0,
          "duration": 0.25,
          "velocity": 100
        },
        {
          "pitch": 76,
          "onset": 178.0,
          "duration": 0.25,
          "velocity": 100
        },
        {
          "pitch": 52,
          "onset": 178.25,
          "duration": 0.25,
          "velocity": 100
        },
        {
          "pitch": 70,
          "onset": 178.25,
          "duration": 0.25,
          "velocity": 100
        },
        {
          "pitch": 57,
          "onset": 178.5,
          "duration": 0.25,
          "velocity": 100
        },
        {
          "pitch": 72,
          "onset": 178.5,
          "duration": 0.25,
          "velocity": 100
        },
        {
          "pitch": 55,
          "onset": 178.75,
          "duration": 0.25,
          "velocity": 100
        },
        {
          "pitch": 76,
          "onset": 178.75,
          "duration": 0.25,
          "velocity": 100
        },
        {
          "pitch": 57,
          "onset": 179.0,
          "duration": 0.25,
          "velocity": 100
        },
        {
          "pitch": 77,
          "onset": 179.0,
          "duration": 0.25,
          "velocity": 100
        },
        {
          "pitch": 52,
          "onset": 179.25,
          "duration": 0.25,
          "velocity": 100
        },
        {
          "pitch": 72,
          "onset": 179.25,
          "duration": 0.25,
          "velocity": 100
        },
        {
          "pitch": 53,
          "onset": 179.5,
          "duration": 0.25,
          "velocity": 100
        },
        {
          "pitch": 74,
          "onset": 179.5,
          "duration": 0.25,
          "velocity": 100
        },
        {
          "pitch": 50,
          "onset": 179.75,
          "duration": 0.25,
          "velocity": 100
        },
        {
          "pitch": 69,
          "onset": 179.75,
          "duration": 0.25,
          "velocity": 100
        },
        {
          "pitch": 55,
          "onset": 180.0,
          "duration": 0.25,
          "velocity": 100
        },
        {
          "pitch": 70,
          "onset": 180.0,
          "duration": 1.25,
          "velocity": 100
        },
        {
          "pitch": 53,
          "onset": 180.25,
          "duration": 0.25,
          "velocity": 100
        },
        {
          "pitch": 55,
          "onset": 180.5,
          "duration": 0.25,
          "velocity": 100
        },
        {
          "pitch": 50,
          "onset": 180.75,
          "duration": 0.25,
          "velocity": 100
        },
        {
          "pitch": 52,
          "onset": 181.0,
          "duration": 0.75,
          "velocity": 100
        },
        {
          "pitch": 58,
          "onset": 181.25,
          "duration": 0.25,
          "velocity": 100
        },
        {
          "pitch": 67,
          "onset": 181.25,
          "duration": 0.25,
          "velocity": 100
        },
        {
          "pitch": 60,
          "onset": 181.5,
          "duration": 0.75,
          "velocity": 100
        },
        {
          "pitch": 69,
          "onset": 181.5,
          "duration": 1.25,
          "velocity": 100
        },
        {
          "pitch": 52,
          "onset": 181.75,
          "duration": 0.25,
          "velocity": 100
        },
        {
          "pitch": 53,
          "onset": 182.0,
          "duration": 1.25,
          "velocity": 100
        },
        {
          "pitch": 60,
          "onset": 182.25,
          "duration": 0.25,
          "velocity": 100
        },
        {
          "pitch": 62,
          "onset": 182.5,
          "duration": 0.25,
          "velocity": 100
        },
        {
          "pitch": 57,
          "onset": 182.75,
          "duration": 0.25,
          "velocity": 100
        },
        {
          "pitch": 65,
          "onset": 182.75,
          "duration": 0.25,
          "velocity": 100
        },
        {
          "pitch": 59,
          "onset": 183.0,
          "duration": 0.75,
          "velocity": 100
        },
        {
          "pitch": 67,
          "onset": 183.0,
          "duration": 1.25,
          "velocity": 100
        },
        {
          "pitch": 50,
          "onset": 183.25,
          "duration": 0.25,
          "velocity": 100
        },
        {
          "pitch": 52,
          "onset": 183.5,
          "duration": 1.25,
          "velocity": 100
        },
        {
          "pitch": 59,
          "onset": 183.75,
          "duration": 0.25,
          "velocity": 100
        },
        {
          "pitch": 60,
          "onset": 184.0,
          "duration": 0.25,
          "velocity": 100
        },
        {
          "pitch": 55,
          "onset": 184.25,
          "duration": 0.25,
          "velocity": 100
        },
        {
          "pitch": 60,
          "onset": 184.25,
          "duration": 0.25,
          "velocity": 100
        },
        {
          "pitch": 57,
          "onset": 184.5,
          "duration": 0.75,
          "velocity": 100
        },
        {
          "pitch": 65,
          "onset": 184.5,
          "duration": 1.25,
          "velocity": 100
        },
        {
          "pitch": 48,
          "onset": 184.75,
          "duration": 0.25,
          "velocity": 100
        },
        {
          "pitch": 50,
          "onset": 185.0,
          "duration": 1.25,
          "velocity": 100
        },
        {
          "pitch": 57,
          "onset": 185.25,
          "duration": 0.25,
          "velocity": 100
        },
        {
          "pitch": 59,
          "onset": 185.5,
          "duration": 0.25,
          "velocity": 100
        },
        {
          "pitch": 53,
          "onset": 185.75,
          "duration": 0.25,
          "velocity": 100
        },
        {
          "pitch": 59,
          "onset": 185.75,
          "duration": 0.25,
          "velocity": 100
        },
        {
          "pitch": 55,
          "onset": 186.0,
          "duration": 0.75,
          "velocity": 100
        },
        {
          "pitch": 64,
          "onset": 186.0,
          "duration": 1.25,
          "velocity": 100
        },
        {
          "pitch": 47,
          "onset": 186.25,
          "duration": 0.25,
          "velocity": 100
        },
        {
          "pitch": 48,
          "onset": 186.5,
          "duration": 1.25,
          "velocity": 100
        },
        {
          "pitch": 55,
          "onset": 186.75,
          "duration": 0.25,
          "velocity": 100
        },
        {
          "pitch": 57,
          "onset": 187.0,
          "duration": 0.25,
          "velocity": 100
        },
        {
          "pitch": 52,
          "onset": 187.25,
          "duration": 0.25,
          "velocity": 100
        },
        {
          "pitch": 57,
          "onset": 187.25,
          "duration": 0.25,
          "velocity": 100
        },
        {
          "pitch": 53,
          "onset": 187.5,
          "duration": 0.75,
          "velocity": 100
        },
        {
          "pitch": 62,
          "onset": 187.5,
          "duration": 1.25,
          "velocity": 100
        },
        {
          "pitch": 45,
          "onset": 187.75,
          "duration": 0.25,
          "velocity": 100
        },
        {
          "pitch": 47,
          "onset": 188.0,
          "duration": 1.0,
          "velocity": 100
        },
        {
          "pitch": 53,
          "onset": 188.25,
          "duration": 0.25,
          "velocity": 100
        },
        {
          "pitch": 55,
          "onset": 188.5,
          "duration": 0.25,
          "velocity": 100
        },
        {
          "pitch": 50,
          "onset": 188.75,
          "duration": 0.25,
          "velocity": 100
        },
        {
          "pitch": 55,
          "onset": 188.75,
          "duration": 0.25,
          "velocity": 100
        },
        {
          "pitch": 48,
          "onset": 189.0,
          "duration": 0.25,
          "velocity": 100
        },
        {
          "pitch": 52,
          "onset": 189.0,
          "duration": 0.5,
          "velocity": 100
        },
        {
          "pitch": 60,
          "onset": 189.0,
          "duration": 0.5,
          "velocity": 100
        },
        {
          "pitch": 47,
          "onset": 189.25,
          "duration": 0.25,
          "velocity": 100
        },
        {
          "pitch": 48,
          "onset": 189.5,
          "duration": 0.25,
          "velocity": 100
        },
        {
          "pitch": 55,
          "onset": 189.5,
          "duration": 0.5,
          "velocity": 100
        },
        {
          "pitch": 43,
          "onset": 189.75,
          "duration": 0.25,
          "velocity": 100
        },
        {
          "pitch": 52,
          "onset": 190.0,
          "duration": 0.25,
          "velocity": 100
        },
        {
          "pitch": 60,
          "onset": 190.0,
          "duration": 1.0,
          "velocity": 100
        },
        {
          "pitch": 48,
          "onset": 190.25,
          "duration": 0.25,
          "velocity": 100
        },
        {
          "pitch": 50,
          "onset": 190.5,
          "duration": 0.25,
          "velocity": 100
        },
        {
          "pitch": 48,
          "onset": 190.75,
          "duration": 0.25,
          "velocity": 100
        },
        {
          "pitch": 50,
          "onset": 191.0,
          "duration": 0.25,
          "velocity": 100
        },
        {
          "pitch": 59,
          "onset": 191.0,
          "duration": 0.125,
          "velocity": 100
        },
        {
          "pitch": 60,
          "onset": 191.125,
          "duration": 0.125,
          "velocity": 100
        },
        {
          "pitch": 43,
          "onset": 191.25,
          "duration": 0.25,
          "velocity": 100
        },
        {
          "pitch": 59,
          "onset": 191.25,
          "duration": 0.125,
          "velocity": 100
        },
        {
          "pitch": 60,
          "onset": 191.375,
          "duration": 0.125,
          "velocity": 100
        },
        {
          "pitch": 53,
          "onset": 191.5,
          "duration": 0.25,
          "velocity": 100
        },
        {
          "pitch": 59,
          "onset": 191.5,
          "duration": 0.125,
          "velocity": 100
        },
        {
          "pitch": 60,
          "onset": 191.625,
          "duration": 0.125,
          "velocity": 100
        },
        {
          "pitch": 50,
          "onset": 191.75,
          "duration": 0.25,
          "velocity": 100
        },
        {
          "pitch": 57,
          "onset": 191.75,
          "duration": 0.125,
          "velocity": 100
        },
        {
          "pitch": 59,
          "onset": 191.875,
          "duration": 0.125,
          "velocity": 100
        },
        {
          "pitch": 52,
          "onset": 192.0,
          "duration": 0.25,
          "velocity": 100
        },
        {
          "pitch": 60,
          "onset": 192.0,
          "duration": 0.25,
          "velocity": 100
        },
        {
          "pitch": 50,
          "onset": 192.25,
          "duration": 0.25,
          "velocity": 100
        },
        {
          "pitch": 59,
          "onset": 192.25,
          "duration": 0.25,
          "velocity": 100
        },
        {
          "pitch": 52,
          "onset": 192.5,
          "duration": 0.25,
          "velocity": 100
        },
        {
          "pitch": 60,
          "onset": 192.5,
          "duration": 0.25,
          "velocity": 100
        },
        {
          "pitch": 53,
          "onset": 192.75,
          "duration": 0.25,
          "velocity": 100
        },
        {
          "pitch": 55,
          "onset": 192.75,
          "duration": 0.25,
          "velocity": 100
        },
        {
          "pitch": 55,
          "onset": 193.0,
          "duration": 0.25,
          "velocity": 100
        },
        {
          "pitch": 64,
          "onset": 193.0,
          "duration": 0.25,
          "velocity": 100
        },
        {
          "pitch": 52,
          "onset": 193.25,
          "duration": 0.25,
          "velocity": 100
        },
        {
          "pitch": 60,
          "onset": 193.25,
          "duration": 0.25,
          "velocity": 100
        },
        {
          "pitch": 53,
          "onset": 193.5,
          "duration": 0.25,
          "velocity": 100
        },
        {
          "pitch": 62,
          "onset": 193.5,
          "duration": 0.25,
          "velocity": 100
        },
        {
          "pitch": 52,
          "onset": 193.75,
          "duration": 0.25,
          "velocity": 100
        },
        {
          "pitch": 60,
          "onset": 193.75,
          "duration": 0.25,
          "velocity": 100
        },
        {
          "pitch": 53,
          "onset": 194.0,
          "duration": 0.25,
          "velocity": 100
        },
        {
          "pitch": 62,
          "onset": 194.0,
          "duration": 0.25,
          "velocity": 100
        },
        {
          "pitch": 55,
          "onset": 194.25,
          "duration": 0.25,
          "velocity": 100
        },
        {
          "pitch": 55,
          "onset": 194.25,
          "duration": 0.25,
          "velocity": 100
        },
        {
          "pitch": 57,
          "onset": 194.5,
          "duration": 0.25,
          "velocity": 100
        },
        {
          "pitch": 65,
          "onset": 194.5,
          "duration": 0.25,
          "velocity": 100
        },
        {
          "pitch": 53,
          "onset": 194.75,
          "duration": 0.25,
          "velocity": 100
        },
        {
          "pitch": 62,
          "onset": 194.75,
          "duration": 0.25,
          "velocity": 100
        },
        {
          "pitch": 55,
          "onset": 195.0,
          "duration": 0.25,
          "velocity": 100
        },
        {
          "pitch": 64,
          "onset": 195.0,
          "duration": 0.25,
          "velocity": 100
        },
        {
          "pitch": 53,
          "onset": 195.25,
          "duration": 0.25,
          "velocity": 100
        },
        {
          "pitch": 62,
          "onset": 195.25,
          "duration": 0.25,
          "velocity": 100
        },
        {
          "pitch": 55,
          "onset": 195.5,
          "duration": 0.25,
          "velocity": 100
        },
        {
          "pitch": 64,
          "onset": 195.5,
          "duration": 0.25,
          "velocity": 100
        },
        {
          "pitch": 57,
          "onset": 195.75,
          "duration": 0.25,
          "velocity": 100
        },
        {
          "pitch": 65,
          "onset": 195.75,
          "duration": 0.25,
          "velocity": 100
        },
        {
          "pitch": 58,
          "onset": 196.0,
          "duration": 0.25,
          "velocity": 100
        },
        {
          "pitch": 67,
          "onset": 196.0,
          "duration": 0.25,
          "velocity": 100
        },
        {
          "pitch": 55,
          "onset": 196.25,
          "duration": 0.25,
          "velocity": 100
        },
        {
          "pitch": 64,
          "onset": 196.25,
          "duration": 0.25,
          "velocity": 100
        },
        {
          "pitch": 57,
          "onset": 196.5,
          "duration": 0.25,
          "velocity": 100
        },
        {
          "pitch": 65,
          "onset": 196.5,
          "duration": 0.25,
          "velocity": 100
        },
        {
          "pitch": 55,
          "onset": 196.75,
          "duration": 0.25,
          "velocity": 100
        },
        {
          "pitch": 64,
          "onset": 196.75,
          "duration": 0.25,
          "velocity": 100
        },
        {
          "pitch": 57,
          "onset": 197.0,
          "duration": 0.25,
          "velocity": 100
        },
        {
          "pitch": 65,
          "onset": 197.0,
          "duration": 0.25,
          "velocity": 100
        },
        {
          "pitch": 59,
          "onset": 197.25,
          "duration": 0.25,
          "velocity": 100
        },
        {
          "pitch": 67,
          "onset": 197.25,
          "duration": 0.25,
          "velocity": 100
        },
        {
          "pitch": 60,
          "onset": 197.5,
          "duration": 0.25,
          "velocity": 100
        },
        {
          "pitch": 69,
          "onset": 197.5,
          "duration": 0.25,
          "velocity": 100
        },
        {
          "pitch": 62,
          "onset": 197.75,
          "duration": 0.25,
          "velocity": 100
        },
        {
          "pitch": 65,
          "onset": 197.75,
          "duration": 0.25,
          "velocity": 100
        },
        {
          "pitch": 64,
          "onset": 198.0,
          "duration": 0.25,
          "velocity": 100
        },
        {
          "pitch": 67,
          "onset": 198.0,
          "duration": 0.25,
          "velocity": 100
        },
        {
          "pitch": 62,
          "onset": 198.25,
          "duration": 0.25,
          "velocity": 100
        },
        {
          "pitch": 65,
          "onset": 198.25,
          "duration": 0.25,
          "velocity": 100
        },
        {
          "pitch": 64,
          "onset": 198.5,
          "duration": 0.25,
          "velocity": 100
        },
        {
          "pitch": 67,
          "onset": 198.5,
          "duration": 0.25,
          "velocity": 100
        },
        {
          "pitch": 65,
          "onset": 198.75,
          "duration": 0.25,
          "velocity": 100
        },
        {
          "pitch": 69,
          "onset": 198.75,
          "duration": 0.25,
          "velocity": 100
        },
        {
          "pitch": 62,
          "onset": 199.0,
          "duration": 0.25,
          "velocity": 100
        },
        {
          "pitch": 70,
          "onset": 199.0,
          "duration": 0.25,
          "velocity": 100
        },
        {
          "pitch": 64,
          "onset": 199.25,
          "duration": 0.25,
          "velocity": 100
        },
        {
          "pitch": 67,
          "onset": 199.25,
          "duration": 0.25,
          "velocity": 100
        },
        {
          "pitch": 65,
          "onset": 199.5,
          "duration": 0.25,
          "velocity": 100
        },
        {
          "pitch": 69,
          "onset": 199.5,
          "duration": 0.25,
          "velocity": 100
        },
        {
          "pitch": 64,
          "onset": 199.75,
          "duration": 0.25,
          "velocity": 100
        },
        {
          "pitch": 67,
          "onset": 199.75,
          "duration": 0.25,
          "velocity": 100
        },
        {
          "pitch": 65,
          "onset": 200.0,
          "duration": 0.25,
          "velocity": 100
        },
        {
          "pitch": 69,
          "onset": 200.0,
          "duration": 0.25,
          "velocity": 100
        },
        {
          "pitch": 67,
          "onset": 200.25,
          "duration": 0.25,
          "velocity": 100
        },
        {
          "pitch": 71,
          "onset": 200.25,
          "duration": 0.25,
          "velocity": 100
        },
        {
          "pitch": 64,
          "onset": 200.5,
          "duration": 0.25,
          "velocity": 100
        },
        {
          "pitch": 72,
          "onset": 200.5,
          "duration": 0.25,
          "velocity": 100
        },
        {
          "pitch": 65,
          "onset": 200.75,
          "duration": 0.25,
          "velocity": 100
        },
        {
          "pitch": 74,
          "onset": 200.75,
          "duration": 0.25,
          "velocity": 100
        },
        {
          "pitch": 67,
          "onset": 201.0,
          "duration": 0.5,
          "velocity": 100
        },
        {
          "pitch": 76,
          "onset": 201.0,
          "duration": 0.25,
          "velocity": 100
        },
        {
          "pitch": 74,
          "onset": 201.25,
          "duration": 0.25,
          "velocity": 100
        },
        {
          "pitch": 76,
          "onset": 201.5,
          "duration": 0.25,
          "velocity": 100
        },
        {
          "pitch": 77,
          "onset": 201.75,
          "duration": 0.25,
          "velocity": 100
        },
        {
          "pitch": 74,
          "onset": 202.0,
          "duration": 0.25,
          "velocity": 100
        },
        {
          "pitch": 76,
          "onset": 202.25,
          "duration": 0.25,
          "velocity": 100
        },
        {
          "pitch": 77,
          "onset": 202.5,
          "duration": 0.25,
          "velocity": 100
        },
        {
          "pitch": 76,
          "onset": 202.75,
          "duration": 0.25,
          "velocity": 100
        },
        {
          "pitch": 77,
          "onset": 203.0,
          "duration": 0.25,
          "velocity": 100
        },
        {
          "pitch": 79,
          "onset": 203.25,
          "duration": 0.25,
          "velocity": 100
        },
        {
          "pitch": 76,
          "onset": 203.5,
          "duration": 0.25,
          "velocity": 100
        },
        {
          "pitch": 77,
          "onset": 203.75,
          "duration": 0.25,
          "velocity": 100
        },
        {
          "pitch": 79,
          "onset": 204.0,
          "duration": 0.5,
          "velocity": 100
        },
        {
          "pitch": 48,
          "onset": 252.5,
          "duration": 0.25,
          "velocity": 100
        },
        {
          "pitch": 51,
          "onset": 252.5,
          "duration": 0.25,
          "velocity": 100
        },
        {
          "pitch": 63,
          "onset": 252.5,
          "duration": 0.25,
          "velocity": 100
        },
        {
          "pitch": 67,
          "onset": 252.5,
          "duration": 0.25,
          "velocity": 100
        },
        {
          "pitch": 72,
          "onset": 252.5,
          "duration": 0.25,
          "velocity": 100
        },
        {
          "pitch": 50,
          "onset": 253.0,
          "duration": 0.5,
          "velocity": 100
        },
        {
          "pitch": 53,
          "onset": 253.0,
          "duration": 0.5,
          "velocity": 100
        },
        {
          "pitch": 55,
          "onset": 253.0,
          "duration": 0.5,
          "velocity": 100
        },
        {
          "pitch": 62,
          "onset": 253.0,
          "duration": 0.5,
          "velocity": 100
        },
        {
          "pitch": 67,
          "onset": 253.0,
          "duration": 0.5,
          "velocity": 100
        },
        {
          "pitch": 71,
          "onset": 253.0,
          "duration": 0.5,
          "velocity": 100
        },
        {
          "pitch": 51,
          "onset": 254.0,
          "duration": 0.25,
          "velocity": 100
        },
        {
          "pitch": 60,
          "onset": 254.0,
          "duration": 0.25,
          "velocity": 100
        },
        {
          "pitch": 67,
          "onset": 254.0,
          "duration": 0.25,
          "velocity": 100
        },
        {
          "pitch": 72,
          "onset": 254.0,
          "duration": 0.25,
          "velocity": 100
        },
        {
          "pitch": 75,
          "onset": 254.0,
          "duration": 0.25,
          "velocity": 100
        },
        {
          "pitch": 53,
          "onset": 254.5,
          "duration": 0.5,
          "velocity": 100
        },
        {
          "pitch": 55,
          "onset": 254.5,
          "duration": 0.5,
          "velocity": 100
        },
        {
          "pitch": 62,
          "onset": 254.5,
          "duration": 0.5,
          "velocity": 100
        },
        {
          "pitch": 67,
          "onset": 254.5,
          "duration": 0.5,
          "velocity": 100
        },
        {
          "pitch": 71,
          "onset": 254.5,
          "duration": 0.5,
          "velocity": 100
        },
        {
          "pitch": 74,
          "onset": 254.5,
          "duration": 0.5,
          "velocity": 100
        },
        {
          "pitch": 51,
          "onset": 255.5,
          "duration": 0.25,
          "velocity": 100
        },
        {
          "pitch": 60,
          "onset": 255.5,
          "duration": 0.25,
          "velocity": 100
        },
        {
          "pitch": 67,
          "onset": 255.5,
          "duration": 0.25,
          "velocity": 100
        },
        {
          "pitch": 72,
          "onset": 255.5,
          "duration": 0.25,
          "velocity": 100
        },
        {
          "pitch": 79,
          "onset": 255.5,
          "duration": 0.25,
          "velocity": 100
        },
        {
          "pitch": 50,
          "onset": 256.0,
          "duration": 0.5,
          "velocity": 100
        },
        {
          "pitch": 55,
          "onset": 256.0,
          "duration": 0.5,
          "velocity": 100
        },
        {
          "pitch": 62,
          "onset": 256.0,
          "duration": 0.5,
          "velocity": 100
        },
        {
          "pitch": 67,
          "onset": 256.0,
          "duration": 0.5,
          "velocity": 100
        },
        {
          "pitch": 71,
          "onset": 256.0,
          "duration": 0.5,
          "velocity": 100
        },
        {
          "pitch": 77,
          "onset": 256.0,
          "duration": 0.5,
          "velocity": 100
        },
        {
          "pitch": 48,
          "onset": 257.0,
          "duration": 0.25,
          "velocity": 100
        },
        {
          "pitch": 51,
          "onset": 257.0,
          "duration": 0.25,
          "velocity": 100
        },
        {
          "pitch": 67,
          "onset": 257.0,
          "duration": 0.25,
          "velocity": 100
        },
        {
          "pitch": 72,
          "onset": 257.0,
          "duration": 0.25,
          "velocity": 100
        },
        {
          "pitch": 75,
          "onset": 257.0,
          "duration": 0.25,
          "velocity": 100
        },
        {
          "pitch": 46,
          "onset": 257.5,
          "duration": 0.5,
          "velocity": 100
        },
        {
          "pitch": 55,
          "onset": 257.5,
          "duration": 0.5,
          "velocity": 100
        },
        {
          "pitch": 58,
          "onset": 257.5,
          "duration": 0.5,
          "velocity": 100
        },
        {
          "pitch": 67,
          "onset": 257.5,
          "duration": 0.5,
          "velocity": 100
        },
        {
          "pitch": 74,
          "onset": 257.5,
          "duration": 0.5,
          "velocity": 100
        },
        {
          "pitch": 44,
          "onset": 258.5,
          "duration": 0.25,
          "velocity": 100
        },
        {
          "pitch": 53,
          "onset": 258.5,
          "duration": 0.25,
          "velocity": 100
        },
        {
          "pitch": 68,
          "onset": 258.5,
          "duration": 0.25,
          "velocity": 100
        },
        {
          "pitch": 72,
          "onset": 258.5,
          "duration": 0.25,
          "velocity": 100
        },
        {
          "pitch": 77,
          "onset": 258.5,
          "duration": 0.25,
          "velocity": 100
        },
        {
          "pitch": 43,
          "onset": 259.0,
          "duration": 0.5,
          "velocity": 100
        },
        {
          "pitch": 51,
          "onset": 259.0,
          "duration": 0.5,
          "velocity": 100
        },
        {
          "pitch": 55,
          "onset": 259.0,
          "duration": 0.5,
          "velocity": 100
        },
        {
          "pitch": 63,
          "onset": 259.0,
          "duration": 0.5,
          "velocity": 100
        },
        {
          "pitch": 70,
          "onset": 259.0,
          "duration": 0.5,
          "velocity": 100
        },
        {
          "pitch": 75,
          "onset": 259.0,
          "duration": 0.5,
          "velocity": 100
        },
        {
          "pitch": 41,
          "onset": 260.0,
          "duration": 0.25,
          "velocity": 100
        },
        {
          "pitch": 53,
          "onset": 260.0,
          "duration": 0.25,
          "velocity": 100
        },
        {
          "pitch": 65,
          "onset": 260.0,
          "duration": 0.25,
          "velocity": 100
        },
        {
          "pitch": 68,
          "onset": 260.0,
          "duration": 0.25,
          "velocity": 100
        },
        {
          "pitch": 74,
          "onset": 260.0,
          "duration": 0.25,
          "velocity": 100
        },
        {
          "pitch": 42,
          "onset": 260.5,
          "duration": 0.5,
          "velocity": 100
        },
        {
          "pitch": 48,
          "onset": 260.5,
          "duration": 0.5,
          "velocity": 100
        },
        {
          "pitch": 63,
          "onset": 260.5,
          "duration": 0.5,
          "velocity": 100
        },
        {
          "pitch": 69,
          "onset": 260.5,
          "duration": 0.5,
          "velocity": 100
        },
        {
          "pitch": 72,
          "onset": 260.5,
          "duration": 0.5,
          "velocity": 100
        },
        {
          "pitch": 43,
          "onset": 261.5,
          "duration": 0.25,
          "velocity": 100
        },
        {
          "pitch": 55,
          "onset": 261.5,
          "duration": 0.25,
          "velocity": 100
        },
        {
          "pitch": 60,
          "onset": 261.5,
          "duration": 0.25,
          "velocity": 100
        },
        {
          "pitch": 63,
          "onset": 261.5,
          "duration": 0.25,
          "velocity": 100
        },
        {
          "pitch": 72,
          "onset": 261.5,
          "duration": 0.25,
          "velocity": 100
        },
        {
          "pitch": 55,
          "onset": 262.0,
          "duration": 0.5,
          "velocity": 100
        },
        {
          "pitch": 62,
          "onset": 262.0,
          "duration": 0.5,
          "velocity": 100
        },
        {
          "pitch": 65,
          "onset": 262.0,
          "duration": 0.5,
          "velocity": 100
        },
        {
          "pitch": 67,
          "onset": 262.0,
          "duration": 0.5,
          "velocity": 100
        },
        {
          "pitch": 71,
          "onset": 262.0,
          "duration": 0.5,
          "velocity": 100
        },
        {
          "pitch": 48,
          "onset": 262.5,
          "duration": 1.0,
          "velocity": 100
        },
        {
          "pitch": 55,
          "onset": 262.5,
          "duration": 0.25,
          "velocity": 100
        },
        {
          "pitch": 60,
          "onset": 262.5,
          "duration": 1.0,
          "velocity": 100
        },
        {
          "pitch": 64,
          "onset": 262.5,
          "duration": 1.0,
          "velocity": 100
        },
        {
          "pitch": 67,
          "onset": 262.5,
          "duration": 1.0,
          "velocity": 100
        },
        {
          "pitch": 72,
          "onset": 262.5,
          "duration": 1.0,
          "velocity": 100
        },
        {
          "pitch": 72,
          "onset": 264.25,
          "duration": 0.25,
          "velocity": 100
        },
        {
          "pitch": 76,
          "onset": 264.5,
          "duration": 0.25,
          "velocity": 100
        },
        {
          "pitch": 72,
          "onset": 264.75,
          "duration": 0.25,
          "velocity": 100
        },
        {
          "pitch": 79,
          "onset": 265.0,
          "duration": 0.25,
          "velocity": 100
        },
        {
          "pitch": 76,
          "onset": 265.25,
          "duration": 0.25,
          "velocity": 100
        },
        {
          "pitch": 84,
          "onset": 265.5,
          "duration": 1.0,
          "velocity": 100
        },
        {
          "pitch": 60,
          "onset": 265.75,
          "duration": 0.25,
          "velocity": 100
        },
        {
          "pitch": 64,
          "onset": 266.0,
          "duration": 0.25,
          "velocity": 100
        },
        {
          "pitch": 72,
          "onset": 266.0,
          "duration": 0.5,
          "velocity": 100
        },
        {
          "pitch": 60,
          "onset": 266.25,
          "duration": 0.25,
          "velocity": 100
        },
        {
          "pitch": 67,
          "onset": 266.5,
          "duration": 0.25,
          "velocity": 100
        },
        {
          "pitch": 76,
          "onset": 266.5,
          "duration": 0.5,
          "velocity": 100
        },
        {
          "pitch": 82,
          "onset": 266.5,
          "duration": 0.5,
          "velocity": 100
        },
        {
          "pitch": 64,
          "onset": 266.75,
          "duration": 0.25,
          "velocity": 100
        },
        {
          "pitch": 72,
          "onset": 267.0,
          "duration": 0.5,
          "velocity": 100
        },
        {
          "pitch": 77,
          "onset": 267.0,
          "duration": 0.5,
          "velocity": 100
        },
        {
          "pitch": 81,
          "onset": 267.0,
          "duration": 0.5,
          "velocity": 100
        },
        {
          "pitch": 53,
          "onset": 267.25,
          "duration": 0.25,
          "velocity": 100
        },
        {
          "pitch": 57,
          "onset": 267.5,
          "duration": 0.25,
          "velocity": 100
        },
        {
          "pitch": 69,
          "onset": 267.5,
          "duration": 0.5,
          "velocity": 100
        },
        {
          "pitch": 72,
          "onset": 267.5,
          "duration": 0.5,
          "velocity": 100
        },
        {
          "pitch": 77,
          "onset": 267.5,
          "duration": 0.5,
          "velocity": 100
        },
        {
          "pitch": 53,
          "onset": 267.75,
          "duration": 0.25,
          "velocity": 100
        },
        {
          "pitch": 60,
          "onset": 268.0,
          "duration": 0.25,
          "velocity": 100
        },
        {
          "pitch": 67,
          "onset": 268.0,
          "duration": 0.5,
          "velocity": 100
        },
        {
          "pitch": 70,
          "onset": 268.0,
          "duration": 0.5,
          "velocity": 100
        },
        {
          "pitch": 72,
          "onset": 268.0,
          "duration": 0.5,
          "velocity": 100
        },
        {
          "pitch": 76,
          "onset": 268.0,
          "duration": 0.5,
          "velocity": 100
        },
        {
          "pitch": 48,
          "onset": 268.25,
          "duration": 0.25,
          "velocity": 100
        },
        {
          "pitch": 53,
          "onset": 268.5,
          "duration": 1.0,
          "velocity": 100
        },
        {
          "pitch": 65,
          "onset": 268.5,
          "duration": 1.0,
          "velocity": 100
        },
        {
          "pitch": 69,
          "onset": 268.5,
          "duration": 1.0,
          "velocity": 100
        },
        {
          "pitch": 72,
          "onset": 268.5,
          "duration": 1.0,
          "velocity": 100
        },
        {
          "pitch": 77,
          "onset": 268.5,
          "duration": 1.0,
          "velocity": 100
        },
        {
          "pitch": 65,
          "onset": 270.25,
          "duration": 0.25,
          "velocity": 100
        },
        {
          "pitch": 69,
          "onset": 270.5,
          "duration": 0.25,
          "velocity": 100
        },
        {
          "pitch": 65,
          "onset": 270.75,
          "duration": 0.25,
          "velocity": 100
        },
        {
          "pitch": 72,
          "onset": 271.0,
          "duration": 0.25,
          "velocity": 100
        },
        {
          "pitch": 69,
          "onset": 271.25,
          "duration": 0.25,
          "velocity": 100
        },
        {
          "pitch": 77,
          "onset": 271.5,
          "duration": 1.0,
          "velocity": 100
        },
        {
          "pitch": 53,
          "onset": 271.75,
          "duration": 0.25,
          "velocity": 100
        },
        {
          "pitch": 57,
          "onset": 272.0,
          "duration": 0.25,
          "velocity": 100
        },
        {
          "pitch": 65,
          "onset": 272.0,
          "duration": 0.5,
          "velocity": 100
        },
        {
          "pitch": 53,
          "onset": 272.25,
          "duration": 0.25,
          "velocity": 100
        },
        {
          "pitch": 60,
          "onset": 272.5,
          "duration": 0.25,
          "velocity": 100
        },
        {
          "pitch": 69,
          "onset": 272.5,
          "duration": 0.5,
          "velocity": 100
        },
        {
          "pitch": 75,
          "onset": 272.5,
          "duration": 0.5,
          "velocity": 100
        },
        {
          "pitch": 57,
          "onset": 272.75,
          "duration": 0.25,
          "velocity": 100
        },
        {
          "pitch": 65,
          "onset": 273.0,
          "duration": 0.5,
          "velocity": 100
        },
        {
          "pitch": 70,
          "onset": 273.0,
          "duration": 0.5,
          "velocity": 100
        },
        {
          "pitch": 74,
          "onset": 273.0,
          "duration": 0.5,
          "velocity": 100
        },
        {
          "pitch": 46,
          "onset": 273.25,
          "duration": 0.25,
          "velocity": 100
        },
        {
          "pitch": 50,
          "onset": 273.5,
          "duration": 0.25,
          "velocity": 100
        },
        {
          "pitch": 62,
          "onset": 273.5,
          "duration": 0.5,
          "velocity": 100
        },
        {
          "pitch": 65,
          "onset": 273.5,
          "duration": 0.5,
          "velocity": 100
        },
        {
          "pitch": 70,
          "onset": 273.5,
          "duration": 0.5,
          "velocity": 100
        },
        {
          "pitch": 46,
          "onset": 273.75,
          "duration": 0.25,
          "velocity": 100
        },
        {
          "pitch": 53,
          "onset": 274.0,
          "duration": 0.25,
          "velocity": 100
        },
        {
          "pitch": 60,
          "onset": 274.0,
          "duration": 0.5,
          "velocity": 100
        },
        {
          "pitch": 63,
          "onset": 274.0,
          "duration": 0.5,
          "velocity": 100
        },
        {
          "pitch": 65,
          "onset": 274.0,
          "duration": 0.5,
          "velocity": 100
        },
        {
          "pitch": 69,
          "onset": 274.0,
          "duration": 0.5,
          "velocity": 100
        },
        {
          "pitch": 41,
          "onset": 274.25,
          "duration": 0.25,
          "velocity": 100
        },
        {
          "pitch": 46,
          "onset": 274.5,
          "duration": 1.0,
          "velocity": 100
        },
        {
          "pitch": 58,
          "onset": 274.5,
          "duration": 1.0,
          "velocity": 100
        },
        {
          "pitch": 62,
          "onset": 274.5,
          "duration": 1.0,
          "velocity": 100
        },
        {
          "pitch": 65,
          "onset": 274.5,
          "duration": 1.0,
          "velocity": 100
        },
        {
          "pitch": 70,
          "onset": 274.5,
          "duration": 1.0,
          "velocity": 100
        },
        {
          "pitch": 70,
          "onset": 276.25,
          "duration": 0.25,
          "velocity": 100
        },
        {
          "pitch": 74,
          "onset": 276.5,
          "duration": 0.25,
          "velocity": 100
        },
        {
          "pitch": 70,
          "onset": 276.75,
          "duration": 0.25,
          "velocity": 100
        },
        {
          "pitch": 77,
          "onset": 277.0,
          "duration": 0.25,
          "velocity": 100
        },
        {
          "pitch": 74,
          "onset": 277.25,
          "duration": 0.25,
          "velocity": 100
        },
        {
          "pitch": 82,
          "onset": 277.5,
          "duration": 1.0,
          "velocity": 100
        },
        {
          "pitch": 58,
          "onset": 277.75,
          "duration": 0.25,
          "velocity": 100
        },
        {
          "pitch": 62,
          "onset": 278.0,
          "duration": 0.25,
          "velocity": 100
        },
        {
          "pitch": 70,
          "onset": 278.0,
          "duration": 0.5,
          "velocity": 100
        },
        {
          "pitch": 58,
          "onset": 278.25,
          "duration": 0.25,
          "velocity": 100
        },
        {
          "pitch": 65,
          "onset": 278.5,
          "duration": 0.25,
          "velocity": 100
        },
        {
          "pitch": 74,
          "onset": 278.5,
          "duration": 0.5,
          "velocity": 100
        },
        {
          "pitch": 81,
          "onset": 278.5,
          "duration": 0.5,
          "velocity": 100
        },
        {
          "pitch": 62,
          "onset": 278.75,
          "duration": 0.25,
          "velocity": 100
        },
        {
          "pitch": 70,
          "onset": 279.0,
          "duration": 0.5,
          "velocity": 100
        },
        {
          "pitch": 76,
          "onset": 279.0,
          "duration": 0.5,
          "velocity": 100
        },
        {
          "pitch": 79,
          "onset": 279.0,
          "duration": 0.5,
          "velocity": 100
        },
        {
          "pitch": 52,
          "onset": 279.25,
          "duration": 0.25,
          "velocity": 100
        },
        {
          "pitch": 55,
          "onset": 279.5,
          "duration": 0.25,
          "velocity": 100
        },
        {
          "pitch": 67,
          "onset": 279.5,
          "duration": 0.5,
          "velocity": 100
        },
        {
          "pitch": 70,
          "onset": 279.5,
          "duration": 0.5,
          "velocity": 100
        },
        {
          "pitch": 76,
          "onset": 279.5,
          "duration": 0.5,
          "velocity": 100
        },
        {
          "pitch": 52,
          "onset": 279.75,
          "duration": 0.25,
          "velocity": 100
        },
        {
          "pitch": 58,
          "onset": 280.0,
          "duration": 0.25,
          "velocity": 100
        },
        {
          "pitch": 65,
          "onset": 280.0,
          "duration": 0.5,
          "velocity": 100
        },
        {
          "pitch": 70,
          "onset": 280.0,
          "duration": 0.5,
          "velocity": 100
        },
        {
          "pitch": 74,
          "onset": 280.0,
          "duration": 0.5,
          "velocity": 100
        },
        {
          "pitch": 55,
          "onset": 280.25,
          "duration": 0.25,
          "velocity": 100
        },
        {
          "pitch": 57,
          "onset": 280.5,
          "duration": 1.0,
          "velocity": 100
        },
        {
          "pitch": 64,
          "onset": 280.5,
          "duration": 1.0,
          "velocity": 100
        },
        {
          "pitch": 69,
          "onset": 280.5,
          "duration": 1.0,
          "velocity": 100
        },
        {
          "pitch": 73,
          "onset": 280.5,
          "duration": 1.0,
          "velocity": 100
        },
        {
          "pitch": 69,
          "onset": 282.25,
          "duration": 0.25,
          "velocity": 100
        },
        {
          "pitch": 73,
          "onset": 282.5,
          "duration": 0.25,
          "velocity": 100
        },
        {
          "pitch": 69,
          "onset": 282.75,
          "duration": 0.25,
          "velocity": 100
        },
        {
          "pitch": 76,
          "onset": 283.0,
          "duration": 0.25,
          "velocity": 100
        },
        {
          "pitch": 73,
          "onset": 283.25,
          "duration": 0.25,
          "velocity": 100
        },
        {
          "pitch": 81,
          "onset": 283.5,
          "duration": 1.0,
          "velocity": 100
        },
        {
          "pitch": 57,
          "onset": 283.75,
          "duration": 0.25,
          "velocity": 100
        },
        {
          "pitch": 61,
          "onset": 284.0,
          "duration": 0.25,
          "velocity": 100
        },
        {
          "pitch": 69,
          "onset": 284.0,
          "duration": 0.5,
          "velocity": 100
        },
        {
          "pitch": 57,
          "onset": 284.25,
          "duration": 0.25,
          "velocity": 100
        },
        {
          "pitch": 64,
          "onset": 284.5,
          "duration": 0.25,
          "velocity": 100
        },
        {
          "pitch": 73,
          "onset": 284.5,
          "duration": 0.5,
          "velocity": 100
        },
        {
          "pitch": 79,
          "onset": 284.5,
          "duration": 0.5,
          "velocity": 100
        },
        {
          "pitch": 61,
          "onset": 284.75,
          "duration": 0.25,
          "velocity": 100
        },
        {
          "pitch": 69,
          "onset": 285.0,
          "duration": 0.5,
          "velocity": 100
        },
        {
          "pitch": 74,
          "onset": 285.0,
          "duration": 0.5,
          "velocity": 100
        },
        {
          "pitch": 77,
          "onset": 285.0,
          "duration": 0.5,
          "velocity": 100
        },
        {
          "pitch": 50,
          "onset": 285.25,
          "duration": 0.25,
          "velocity": 100
        },
        {
          "pitch": 53,
          "onset": 285.5,
          "duration": 0.25,
          "velocity": 100
        },
        {
          "pitch": 65,
          "onset": 285.5,
          "duration": 0.5,
          "velocity": 100
        },
        {
          "pitch": 69,
          "onset": 285.5,
          "duration": 0.5,
          "velocity": 100
        },
        {
          "pitch": 74,
          "onset": 285.5,
          "duration": 0.5,
          "velocity": 100
        },
        {
          "pitch": 50,
          "onset": 285.75,
          "duration": 0.25,
          "velocity": 100
        },
        {
          "pitch": 57,
          "onset": 286.0,
          "duration": 0.25,
          "velocity": 100
        },
        {
          "pitch": 63,
          "onset": 286.0,
          "duration": 0.5,
          "velocity": 100
        },
        {
          "pitch": 69,
          "onset": 286.0,
          "duration": 0.5,
          "velocity": 100
        },
        {
          "pitch": 72,
          "onset": 286.0,
          "duration": 0.5,
          "velocity": 100
        },
        {
          "pitch": 54,
          "onset": 286.25,
          "duration": 0.25,
          "velocity": 100
        },
        {
          "pitch": 55,
          "onset": 286.5,
          "duration": 1.0,
          "velocity": 100
        },
        {
          "pitch": 62,
          "onset": 286.5,
          "duration": 1.0,
          "velocity": 100
        },
        {
          "pitch": 67,
          "onset": 286.5,
          "duration": 1.0,
          "velocity": 100
        },
        {
          "pitch": 70,
          "onset": 286.5,
          "duration": 1.0,
          "velocity": 100
        },
        {
          "pitch": 67,
          "onset": 288.25,
          "duration": 0.25,
          "velocity": 100
        },
        {
          "pitch": 70,
          "onset": 288.5,
          "duration": 0.25,
          "velocity": 100
        },
        {
          "pitch": 67,
          "onset": 288.75,
          "duration": 0.25,
          "velocity": 100
        },
        {
          "pitch": 74,
          "onset": 289.0,
          "duration": 0.25,
          "velocity": 100
        },
        {
          "pitch": 70,
          "onset": 289.25,
          "duration": 0.25,
          "velocity": 100
        },
        {
          "pitch": 79,
          "onset": 289.5,
          "duration": 1.0,
          "velocity": 100
        },
        {
          "pitch": 55,
          "onset": 289.75,
          "duration": 0.25,
          "velocity": 100
        },
        {
          "pitch": 58,
          "onset": 290.0,
          "duration": 0.25,
          "velocity": 100
        },
        {
          "pitch": 67,
          "onset": 290.0,
          "duration": 0.5,
          "velocity": 100
        },
        {
          "pitch": 55,
          "onset": 290.25,
          "duration": 0.25,
          "velocity": 100
        },
        {
          "pitch": 62,
          "onset": 290.5,
          "duration": 0.25,
          "velocity": 100
        },
        {
          "pitch": 70,
          "onset": 290.5,
          "duration": 0.5,
          "velocity": 100
        },
        {
          "pitch": 77,
          "onset": 290.5,
          "duration": 0.5,
          "velocity": 100
        },
        {
          "pitch": 58,
          "onset": 290.75,
          "duration": 0.25,
          "velocity": 100
        },
        {
          "pitch": 67,
          "onset": 291.0,
          "duration": 1.0,
          "velocity": 100
        },
        {
          "pitch": 70,
          "onset": 291.0,
          "duration": 1.0,
          "velocity": 100
        },
        {
          "pitch": 76,
          "onset": 291.0,
          "duration": 1.0,
          "velocity": 100
        },
        {
          "pitch": 64,
          "onset": 291.25,
          "duration": 0.25,
          "velocity": 100
        },
        {
          "pitch": 61,
          "onset": 291.5,
          "duration": 0.25,
          "velocity": 100
        },
        {
          "pitch": 64,
          "onset": 291.75,
          "duration": 0.25,
          "velocity": 100
        },
        {
          "pitch": 57,
          "onset": 292.0,
          "duration": 0.25,
          "velocity": 100
        },
        {
          "pitch": 65,
          "onset": 292.0,
          "duration": 0.5,
          "velocity": 100
        },
        {
          "pitch": 69,
          "onset": 292.0,
          "duration": 0.5,
          "velocity": 100
        },
        {
          "pitch": 74,
          "onset": 292.0,
          "duration": 0.5,
          "velocity": 100
        },
        {
          "pitch": 62,
          "onset": 292.25,
          "duration": 0.25,
          "velocity": 100
        },
        {
          "pitch": 58,
          "onset": 292.5,
          "duration": 0.25,
          "velocity": 100
        },
        {
          "pitch": 67,
          "onset": 292.5,
          "duration": 0.5,
          "velocity": 100
        },
        {
          "pitch": 70,
          "onset": 292.5,
          "duration": 1.0,
          "velocity": 100
        },
        {
          "pitch": 75,
          "onset": 292.5,
          "duration": 0.5,
          "velocity": 100
        },
        {
          "pitch": 63,
          "onset": 292.75,
          "duration": 0.25,
          "velocity": 100
        },
        {
          "pitch": 55,
          "onset": 293.0,
          "duration": 0.25,
          "velocity": 100
        },
        {
          "pitch": 64,
          "onset": 293.0,
          "duration": 0.5,
          "velocity": 100
        },
        {
          "pitch": 73,
          "onset": 293.0,
          "duration": 0.5,
          "velocity": 100
        },
        {
          "pitch": 58,
          "onset": 293.25,
          "duration": 0.25,
          "velocity": 100
        },
        {
          "pitch": 50,
          "onset": 293.5,
          "duration": 0.25,
          "velocity": 100
        },
        {
          "pitch": 65,
          "onset": 293.5,
          "duration": 0.5,
          "velocity": 100
        },
        {
          "pitch": 71,
          "onset": 293.5,
          "duration": 0.5,
          "velocity": 100
        },
        {
          "pitch": 74,
          "onset": 293.5,
          "duration": 0.5,
          "velocity": 100
        },
        {
          "pitch": 53,
          "onset": 293.75,
          "duration": 0.25,
          "velocity": 100
        },
        {
          "pitch": 50,
          "onset": 294.5,
          "duration": 0.25,
          "velocity": 100
        },
        {
          "pitch": 53,
          "onset": 294.5,
          "duration": 0.25,
          "velocity": 100
        },
        {
          "pitch": 65,
          "onset": 294.5,
          "duration": 0.25,
          "velocity": 100
        },
        {
          "pitch": 69,
          "onset": 294.5,
          "duration": 0.25,
          "velocity": 100
        },
        {
          "pitch": 74,
          "onset": 294.5,
          "duration": 0.25,
          "velocity": 100
        },
        {
          "pitch": 52,
          "onset": 295.0,
          "duration": 0.5,
          "velocity": 100
        },
        {
          "pitch": 55,
          "onset": 295.0,
          "duration": 0.5,
          "velocity": 100
        },
        {
          "pitch": 57,
          "onset": 295.0,
          "duration": 0.5,
          "velocity": 100
        },
        {
          "pitch": 64,
          "onset": 295.0,
          "duration": 0.5,
          "velocity": 100
        },
        {
          "pitch": 69,
          "onset": 295.0,
          "duration": 0.5,
          "velocity": 100
        },
        {
          "pitch": 73,
          "onset": 295.0,
          "duration": 0.5,
          "velocity": 100
        },
        {
          "pitch": 53,
          "onset": 296.0,
          "duration": 0.25,
          "velocity": 100
        },
        {
          "pitch": 62,
          "onset": 296.0,
          "duration": 0.25,
          "velocity": 100
        },
        {
          "pitch": 69,
          "onset": 296.0,
          "duration": 0.25,
          "velocity": 100
        },
        {
          "pitch": 74,
          "onset": 296.0,
          "duration": 0.25,
          "velocity": 100
        },
        {
          "pitch": 77,
          "onset": 296.0,
          "duration": 0.25,
          "velocity": 100
        },
        {
          "pitch": 55,
          "onset": 296.5,
          "duration": 0.5,
          "velocity": 100
        },
        {
          "pitch": 57,
          "onset": 296.5,
          "duration": 0.5,
          "velocity": 100
        },
        {
          "pitch": 64,
          "onset": 296.5,
          "duration": 0.5,
          "velocity": 100
        },
        {
          "pitch": 69,
          "onset": 296.5,
          "duration": 0.5,
          "velocity": 100
        },
        {
          "pitch": 73,
          "onset": 296.5,
          "duration": 0.5,
          "velocity": 100
        },
        {
          "pitch": 76,
          "onset": 296.5,
          "duration": 0.5,
          "velocity": 100
        },
        {
          "pitch": 53,
          "onset": 297.5,
          "duration": 0.25,
          "velocity": 100
        },
        {
          "pitch": 62,
          "onset": 297.5,
          "duration": 0.25,
          "velocity": 100
        },
        {
          "pitch": 69,
          "onset": 297.5,
          "duration": 0.25,
          "velocity": 100
        },
        {
          "pitch": 74,
          "onset": 297.5,
          "duration": 0.25,
          "velocity": 100
        },
        {
          "pitch": 81,
          "onset": 297.5,
          "duration": 0.25,
          "velocity": 100
        },
        {
          "pitch": 52,
          "onset": 298.0,
          "duration": 0.5,
          "velocity": 100
        },
        {
          "pitch": 57,
          "onset": 298.0,
          "duration": 0.5,
          "velocity": 100
        },
        {
          "pitch": 64,
          "onset": 298.0,
          "duration": 0.5,
          "velocity": 100
        },
        {
          "pitch": 69,
          "onset": 298.0,
          "duration": 0.5,
          "velocity": 100
        },
        {
          "pitch": 73,
          "onset": 298.0,
          "duration": 0.5,
          "velocity": 100
        },
        {
          "pitch": 79,
          "onset": 298.0,
          "duration": 0.5,
          "velocity": 100
        },
        {
          "pitch": 50,
          "onset": 299.0,
          "duration": 0.25,
          "velocity": 100
        },
        {
          "pitch": 53,
          "onset": 299.0,
          "duration": 0.25,
          "velocity": 100
        },
        {
          "pitch": 69,
          "onset": 299.0,
          "duration": 0.25,
          "velocity": 100
        },
        {
          "pitch": 74,
          "onset": 299.0,
          "duration": 0.25,
          "velocity": 100
        },
        {
          "pitch": 77,
          "onset": 299.0,
          "duration": 0.25,
          "velocity": 100
        },
        {
          "pitch": 52,
          "onset": 299.5,
          "duration": 0.5,
          "velocity": 100
        },
        {
          "pitch": 57,
          "onset": 299.5,
          "duration": 0.5,
          "velocity": 100
        },
        {
          "pitch": 60,
          "onset": 299.5,
          "duration": 0.5,
          "velocity": 100
        },
        {
          "pitch": 69,
          "onset": 299.5,
          "duration": 0.5,
          "velocity": 100
        },
        {
          "pitch": 76,
          "onset": 299.5,
          "duration": 0.5,
          "velocity": 100
        },
        {
          "pitch": 46,
          "onset": 300.5,
          "duration": 0.25,
          "velocity": 100
        },
        {
          "pitch": 55,
          "onset": 300.5,
          "duration": 0.25,
          "velocity": 100
        },
        {
          "pitch": 70,
          "onset": 300.5,
          "duration": 0.25,
          "velocity": 100
        },
        {
          "pitch": 74,
          "onset": 300.5,
          "duration": 0.25,
          "velocity": 100
        },
        {
          "pitch": 79,
          "onset": 300.5,
          "duration": 0.25,
          "velocity": 100
        },
        {
          "pitch": 45,
          "onset": 301.0,
          "duration": 0.5,
          "velocity": 100
        },
        {
          "pitch": 53,
          "onset": 301.0,
          "duration": 0.5,
          "velocity": 100
        },
        {
          "pitch": 57,
          "onset": 301.0,
          "duration": 0.5,
          "velocity": 100
        },
        {
          "pitch": 65,
          "onset": 301.0,
          "duration": 0.5,
          "velocity": 100
        },
        {
          "pitch": 72,
          "onset": 301.0,
          "duration": 0.5,
          "velocity": 100
        },
        {
          "pitch": 77,
          "onset": 301.0,
          "duration": 0.5,
          "velocity": 100
        },
        {
          "pitch": 43,
          "onset": 302.0,
          "duration": 0.25,
          "velocity": 100
        },
        {
          "pitch": 55,
          "onset": 302.0,
          "duration": 0.25,
          "velocity": 100
        },
        {
          "pitch": 67,
          "onset": 302.0,
          "duration": 0.25,
          "velocity": 100
        },
        {
          "pitch": 70,
          "onset": 302.0,
          "duration": 0.25,
          "velocity": 100
        },
        {
          "pitch": 76,
          "onset": 302.0,
          "duration": 0.25,
          "velocity": 100
        },
        {
          "pitch": 44,
          "onset": 302.5,
          "duration": 0.5,
          "velocity": 100
        },
        {
          "pitch": 50,
          "onset": 302.5,
          "duration": 0.5,
          "velocity": 100
        },
        {
          "pitch": 65,
          "onset": 302.5,
          "duration": 0.5,
          "velocity": 100
        },
        {
          "pitch": 71,
          "onset": 302.5,
          "duration": 0.5,
          "velocity": 100
        },
        {
          "pitch": 74,
          "onset": 302.5,
          "duration": 0.5,
          "velocity": 100
        },
        {
          "pitch": 45,
          "onset": 303.5,
          "duration": 0.25,
          "velocity": 100
        },
        {
          "pitch": 57,
          "onset": 303.5,
          "duration": 0.25,
          "velocity": 100
        },
        {
          "pitch": 65,
          "onset": 303.5,
          "duration": 0.25,
          "velocity": 100
        },
        {
          "pitch": 69,
          "onset": 303.5,
          "duration": 0.25,
          "velocity": 100
        },
        {
          "pitch": 74,
          "onset": 303.5,
          "duration": 0.25,
          "velocity": 100
        },
        {
          "pitch": 57,
          "onset": 304.0,
          "duration": 0.5,
          "velocity": 100
        },
        {
          "pitch": 64,
          "onset": 304.0,
          "duration": 0.5,
          "velocity": 100
        },
        {
          "pitch": 67,
          "onset": 304.0,
          "duration": 0.5,
          "velocity": 100
        },
        {
          "pitch": 69,
          "onset": 304.0,
          "duration": 0.5,
          "velocity": 100
        },
        {
          "pitch": 73,
          "onset": 304.0,
          "duration": 0.5,
          "velocity": 100
        },
        {
          "pitch": 65,
          "onset": 304.5,
          "duration": 1.0,
          "velocity": 100
        },
        {
          "pitch": 70,
          "onset": 304.5,
          "duration": 1.0,
          "velocity": 100
        },
        {
          "pitch": 74,
          "onset": 304.5,
          "duration": 1.0,
          "velocity": 100
        },
        {
          "pitch": 46,
          "onset": 304.75,
          "duration": 0.25,
          "velocity": 100
        },
        {
          "pitch": 50,
          "onset": 305.0,
          "duration": 0.25,
          "velocity": 100
        },
        {
          "pitch": 46,
          "onset": 305.25,
          "duration": 0.25,
          "velocity": 100
        },
        {
          "pitch": 53,
          "onset": 305.5,
          "duration": 0.25,
          "velocity": 100
        },
        {
          "pitch": 50,
          "onset": 305.75,
          "duration": 0.25,
          "velocity": 100
        },
        {
          "pitch": 58,
          "onset": 306.0,
          "duration": 1.0,
          "velocity": 100
        },
        {
          "pitch": 63,
          "onset": 306.25,
          "duration": 0.25,
          "velocity": 100
        },
        {
          "pitch": 67,
          "onset": 306.5,
          "duration": 0.25,
          "velocity": 100
        },
        {
          "pitch": 63,
          "onset": 306.75,
          "duration": 0.25,
          "velocity": 100
        },
        {
          "pitch": 70,
          "onset": 307.0,
          "duration": 0.25,
          "velocity": 100
        },
        {
          "pitch": 67,
          "onset": 307.25,
          "duration": 1.25,
          "velocity": 100
        },
        {
          "pitch": 72,
          "onset": 307.5,
          "duration": 1.0,
          "velocity": 100
        },
        {
          "pitch": 76,
          "onset": 307.5,
          "duration": 1.0,
          "velocity": 100
        },
        {
          "pitch": 48,
          "onset": 307.75,
          "duration": 0.25,
          "velocity": 100
        },
        {
          "pitch": 52,
          "onset": 308.0,
          "duration": 0.25,
          "velocity": 100
        },
        {
          "pitch": 48,
          "onset": 308.25,
          "duration": 0.25,
          "velocity": 100
        },
        {
          "pitch": 55,
          "onset": 308.5,
          "duration": 0.25,
          "velocity": 100
        },
        {
          "pitch": 52,
          "onset": 308.75,
          "duration": 0.25,
          "velocity": 100
        },
        {
          "pitch": 60,
          "onset": 309.0,
          "duration": 1.0,
          "velocity": 100
        },
        {
          "pitch": 65,
          "onset": 309.25,
          "duration": 0.25,
          "velocity": 100
        },
        {
          "pitch": 69,
          "onset": 309.5,
          "duration": 0.25,
          "velocity": 100
        },
        {
          "pitch": 65,
          "onset": 309.75,
          "duration": 0.25,
          "velocity": 100
        },
        {
          "pitch": 72,
          "onset": 310.0,
          "duration": 0.25,
          "velocity": 100
        },
        {
          "pitch": 69,
          "onset": 310.25,
          "duration": 1.25,
          "velocity": 100
        },
        {
          "pitch": 74,
          "onset": 310.5,
          "duration": 1.0,
          "velocity": 100
        },
        {
          "pitch": 78,
          "onset": 310.5,
          "duration": 1.0,
          "velocity": 100
        },
        {
          "pitch": 50,
          "onset": 310.75,
          "duration": 0.25,
          "velocity": 100
        },
        {
          "pitch": 54,
          "onset": 311.0,
          "duration": 0.25,
          "velocity": 100
        },
        {
          "pitch": 50,
          "onset": 311.25,
          "duration": 0.25,
          "velocity": 100
        },
        {
          "pitch": 57,
          "onset": 311.5,
          "duration": 0.25,
          "velocity": 100
        },
        {
          "pitch": 54,
          "onset": 311.75,
          "duration": 0.25,
          "velocity": 100
        },
        {
          "pitch": 62,
          "onset": 312.0,
          "duration": 1.0,
          "velocity": 100
        },
        {
          "pitch": 67,
          "onset": 312.25,
          "duration": 0.25,
          "velocity": 100
        },
        {
          "pitch": 70,
          "onset": 312.5,
          "duration": 0.25,
          "velocity": 100
        },
        {
          "pitch": 67,
          "onset": 312.75,
          "duration": 0.25,
          "velocity": 100
        },
        {
          "pitch": 74,
          "onset": 313.0,
          "duration": 0.25,
          "velocity": 100
        },
        {
          "pitch": 70,
          "onset": 313.25,
          "duration": 0.25,
          "velocity": 100
        },
        {
          "pitch": 55,
          "onset": 313.5,
          "duration": 1.0,
          "velocity": 100
        },
        {
          "pitch": 58,
          "onset": 313.5,
          "duration": 1.0,
          "velocity": 100
        },
        {
          "pitch": 63,
          "onset": 313.5,
          "duration": 1.0,
          "velocity": 100
        },
        {
          "pitch": 79,
          "onset": 313.5,
          "duration": 0.25,
          "velocity": 100
        },
        {
          "pitch": 77,
          "onset": 313.75,
          "duration": 0.25,
          "velocity": 100
        },
        {
          "pitch": 79,
          "onset": 314.0,
          "duration": 0.25,
          "velocity": 100
        },
        {
          "pitch": 74,
          "onset": 314.25,
          "duration": 0.25,
          "velocity": 100
        },
        {
          "pitch": 75,
          "onset": 314.5,
          "duration": 0.25,
          "velocity": 100
        },
        {
          "pitch": 70,
          "onset": 314.75,
          "duration": 0.25,
          "velocity": 100
        },
        {
          "pitch": 55,
          "onset": 315.0,
          "duration": 1.0,
          "velocity": 100
        },
        {
          "pitch": 58,
          "onset": 315.0,
          "duration": 1.0,
          "velocity": 100
        },
        {
          "pitch": 63,
          "onset": 315.0,
          "duration": 1.0,
          "velocity": 100
        },
        {
          "pitch": 67,
          "onset": 315.0,
          "duration": 0.25,
          "velocity": 100
        },
        {
          "pitch": 65,
          "onset": 315.25,
          "duration": 0.25,
          "velocity": 100
        },
        {
          "pitch": 67,
          "onset": 315.5,
          "duration": 0.25,
          "velocity": 100
        },
        {
          "pitch": 62,
          "onset": 315.75,
          "duration": 0.25,
          "velocity": 100
        },
        {
          "pitch": 63,
          "onset": 316.0,
          "duration": 0.25,
          "velocity": 100
        },
        {
          "pitch": 58,
          "onset": 316.25,
          "duration": 1.25,
          "velocity": 100
        },
        {
          "pitch": 55,
          "onset": 316.5,
          "duration": 0.25,
          "velocity": 100
        },
        {
          "pitch": 63,
          "onset": 316.5,
          "duration": 1.0,
          "velocity": 100
        },
        {
          "pitch": 67,
          "onset": 316.5,
          "duration": 1.0,
          "velocity": 100
        },
        {
          "pitch": 70,
          "onset": 316.5,
          "duration": 1.0,
          "velocity": 100
        },
        {
          "pitch": 53,
          "onset": 316.75,
          "duration": 0.25,
          "velocity": 100
        },
        {
          "pitch": 55,
          "onset": 317.0,
          "duration": 0.25,
          "velocity": 100
        },
        {
          "pitch": 50,
          "onset": 317.25,
          "duration": 0.25,
          "velocity": 100
        },
        {
          "pitch": 51,
          "onset": 317.5,
          "duration": 0.25,
          "velocity": 100
        },
        {
          "pitch": 46,
          "onset": 317.75,
          "duration": 1.25,
          "velocity": 100
        },
        {
          "pitch": 52,
          "onset": 318.0,
          "duration": 1.0,
          "velocity": 100
        },
        {
          "pitch": 67,
          "onset": 318.0,
          "duration": 1.0,
          "velocity": 100
        },
        {
          "pitch": 70,
          "onset": 318.0,
          "duration": 1.0,
          "velocity": 100
        },
        {
          "pitch": 73,
          "onset": 318.0,
          "duration": 1.0,
          "velocity": 100
        },
        {
          "pitch": 45,
          "onset": 319.5,
          "duration": 1.0,
          "velocity": 100
        },
        {
          "pitch": 52,
          "onset": 319.5,
          "duration": 1.0,
          "velocity": 100
        },
        {
          "pitch": 67,
          "onset": 319.5,
          "duration": 1.0,
          "velocity": 100
        },
        {
          "pitch": 69,
          "onset": 319.5,
          "duration": 1.0,
          "velocity": 100
        },
        {
          "pitch": 76,
          "onset": 319.5,
          "duration": 1.0,
          "velocity": 100
        },
        {
          "pitch": 45,
          "onset": 321.0,
          "duration": 1.0,
          "velocity": 100
        },
        {
          "pitch": 52,
          "onset": 321.0,
          "duration": 1.0,
          "velocity": 100
        },
        {
          "pitch": 64,
          "onset": 321.0,
          "duration": 1.0,
          "velocity": 100
        },
        {
          "pitch": 69,
          "onset": 321.0,
          "duration": 1.0,
          "velocity": 100
        },
        {
          "pitch": 73,
          "onset": 321.0,
          "duration": 1.0,
          "velocity": 100
        },
        {
          "pitch": 45,
          "onset": 322.5,
          "duration": 1.0,
          "velocity": 100
        },
        {
          "pitch": 52,
          "onset": 322.5,
          "duration": 1.0,
          "velocity": 100
        },
        {
          "pitch": 61,
          "onset": 322.5,
          "duration": 1.0,
          "velocity": 100
        },
        {
          "pitch": 64,
          "onset": 322.5,
          "duration": 1.0,
          "velocity": 100
        },
        {
          "pitch": 69,
          "onset": 322.5,
          "duration": 1.0,
          "velocity": 100
        },
        {
          "pitch": 45,
          "onset": 324.0,
          "duration": 0.5,
          "velocity": 100
        },
        {
          "pitch": 50,
          "onset": 324.0,
          "duration": 0.5,
          "velocity": 100
        },
        {
          "pitch": 74,
          "onset": 324.0,
          "duration": 0.5,
          "velocity": 100
        },
        {
          "pitch": 77,
          "onset": 324.0,
          "duration": 0.5,
          "velocity": 100
        },
        {
          "pitch": 81,
          "onset": 324.0,
          "duration": 0.5,
          "velocity": 100
        },
        {
          "pitch": 50,
          "onset": 324.5,
          "duration": 0.5,
          "velocity": 100
        },
        {
          "pitch": 57,
          "onset": 324.5,
          "duration": 0.5,
          "velocity": 100
        },
        {
          "pitch": 69,
          "onset": 324.5,
          "duration": 0.5,
          "velocity": 100
        },
        {
          "pitch": 74,
          "onset": 324.5,
          "duration": 0.5,
          "velocity": 100
        },
        {
          "pitch": 77,
          "onset": 324.5,
          "duration": 0.5,
          "velocity": 100
        },
        {
          "pitch": 55,
          "onset": 325.0,
          "duration": 0.5,
          "velocity": 100
        },
        {
          "pitch": 57,
          "onset": 325.0,
          "duration": 0.5,
          "velocity": 100
        },
        {
          "pitch": 69,
          "onset": 325.0,
          "duration": 0.5,
          "velocity": 100
        },
        {
          "pitch": 73,
          "onset": 325.0,
          "duration": 0.5,
          "velocity": 100
        },
        {
          "pitch": 76,
          "onset": 325.0,
          "duration": 0.5,
          "velocity": 100
        },
        {
          "pitch": 50,
          "onset": 325.5,
          "duration": 0.25,
          "velocity": 100
        },
        {
          "pitch": 57,
          "onset": 325.5,
          "duration": 0.5,
          "velocity": 100
        },
        {
          "pitch": 69,
          "onset": 325.5,
          "duration": 0.5,
          "velocity": 100
        },
        {
          "pitch": 74,
          "onset": 325.5,
          "duration": 0.5,
          "velocity": 100
        },
        {
          "pitch": 77,
          "onset": 325.5,
          "duration": 0.5,
          "velocity": 100
        },
        {
          "pitch": 49,
          "onset": 325.75,
          "duration": 0.25,
          "velocity": 100
        },
        {
          "pitch": 50,
          "onset": 326.0,
          "duration": 0.25,
          "velocity": 100
        },
        {
          "pitch": 65,
          "onset": 326.0,
          "duration": 0.5,
          "velocity": 100
        },
        {
          "pitch": 69,
          "onset": 326.0,
          "duration": 0.5,
          "velocity": 100
        },
        {
          "pitch": 74,
          "onset": 326.0,
          "duration": 0.5,
          "velocity": 100
        },
        {
          "pitch": 45,
          "onset": 326.25,
          "duration": 0.25,
          "velocity": 100
        },
        {
          "pitch": 52,
          "onset": 326.5,
          "duration": 0.25,
          "velocity": 100
        },
        {
          "pitch": 64,
          "onset": 326.5,
          "duration": 0.5,
          "velocity": 100
        },
        {
          "pitch": 67,
          "onset": 326.5,
          "duration": 0.5,
          "velocity": 100
        },
        {
          "pitch": 69,
          "onset": 326.5,
          "duration": 0.5,
          "velocity": 100
        },
        {
          "pitch": 73,
          "onset": 326.5,
          "duration": 0.5,
          "velocity": 100
        },
        {
          "pitch": 45,
          "onset": 326.75,
          "duration": 0.25,
          "velocity": 100
        },
        {
          "pitch": 53,
          "onset": 327.0,
          "duration": 0.5,
          "velocity": 100
        },
        {
          "pitch": 62,
          "onset": 327.0,
          "duration": 0.5,
          "velocity": 100
        },
        {
          "pitch": 65,
          "onset": 327.0,
          "duration": 0.5,
          "velocity": 100
        },
        {
          "pitch": 69,
          "onset": 327.0,
          "duration": 0.5,
          "velocity": 100
        },
        {
          "pitch": 74,
          "onset": 327.0,
          "duration": 0.25,
          "velocity": 100
        },
        {
          "pitch": 73,
          "onset": 327.25,
          "duration": 0.25,
          "velocity": 100
        },
        {
          "pitch": 57,
          "onset": 327.5,
          "duration": 0.5,
          "velocity": 100
        },
        {
          "pitch": 74,
          "onset": 327.5,
          "duration": 0.25,
          "velocity": 100
        },
        {
          "pitch": 69,
          "onset": 327.75,
          "duration": 0.25,
          "velocity": 100
        },
        {
          "pitch": 62,
          "onset": 328.0,
          "duration": 1.0,
          "velocity": 100
        },
        {
          "pitch": 77,
          "onset": 328.0,
          "duration": 0.25,
          "velocity": 100
        },
        {
          "pitch": 74,
          "onset": 328.25,
          "duration": 0.25,
          "velocity": 100
        },
        {
          "pitch": 76,
          "onset": 328.5,
          "duration": 0.25,
          "velocity": 100
        },
        {
          "pitch": 74,
          "onset": 328.75,
          "duration": 0.25,
          "velocity": 100
        },
        {
          "pitch": 61,
          "onset": 329.0,
          "duration": 0.125,
          "velocity": 100
        },
        {
          "pitch": 76,
          "onset": 329.0,
          "duration": 0.25,
          "velocity": 100
        },
        {
          "pitch": 62,
          "onset": 329.125,
          "duration": 0.125,
          "velocity": 100
        },
        {
          "pitch": 61,
          "onset": 329.25,
          "duration": 0.125,
          "velocity": 100
        },
        {
          "pitch": 69,
          "onset": 329.25,
          "duration": 0.25,
          "velocity": 100
        },
        {
          "pitch": 62,
          "onset": 329.375,
          "duration": 0.125,
          "velocity": 100
        },
        {
          "pitch": 61,
          "onset": 329.5,
          "duration": 0.125,
          "velocity": 100
        },
        {
          "pitch": 79,
          "onset": 329.5,
          "duration": 0.25,
          "velocity": 100
        },
        {
          "pitch": 62,
          "onset": 329.625,
          "duration": 0.125,
          "velocity": 100
        },
        {
          "pitch": 59,
          "onset": 329.75,
          "duration": 0.125,
          "velocity": 100
        },
        {
          "pitch": 76,
          "onset": 329.75,
          "duration": 0.25,
          "velocity": 100
        },
        {
          "pitch": 61,
          "onset": 329.875,
          "duration": 0.125,
          "velocity": 100
        },
        {
          "pitch": 62,
          "onset": 330.0,
          "duration": 0.25,
          "velocity": 100
        },
        {
          "pitch": 77,
          "onset": 330.0,
          "duration": 0.5,
          "velocity": 100
        },
        {
          "pitch": 61,
          "onset": 330.25,
          "duration": 0.25,
          "velocity": 100
        },
        {
          "pitch": 62,
          "onset": 330.5,
          "duration": 0.25,
          "velocity": 100
        },
        {
          "pitch": 69,
          "onset": 330.5,
          "duration": 0.5,
          "velocity": 100
        },
        {
          "pitch": 57,
          "onset": 330.75,
          "duration": 0.25,
          "velocity": 100
        },
        {
          "pitch": 65,
          "onset": 331.0,
          "duration": 0.25,
          "velocity": 100
        },
        {
          "pitch": 74,
          "onset": 331.0,
          "duration": 1.0,
          "velocity": 100
        },
        {
          "pitch": 62,
          "onset": 331.25,
          "duration": 0.25,
          "velocity": 100
        },
        {
          "pitch": 64,
          "onset": 331.5,
          "duration": 0.25,
          "velocity": 100
        },
        {
          "pitch": 62,
          "onset": 331.75,
          "duration": 0.25,
          "velocity": 100
        },
        {
          "pitch": 64,
          "onset": 332.0,
          "duration": 0.25,
          "velocity": 100
        },
        {
          "pitch": 73,
          "onset": 332.0,
          "duration": 0.125,
          "velocity": 100
        },
        {
          "pitch": 74,
          "onset": 332.125,
          "duration": 0.125,
          "velocity": 100
        },
        {
          "pitch": 57,
          "onset": 332.25,
          "duration": 0.25,
          "velocity": 100
        },
        {
          "pitch": 73,
          "onset": 332.25,
          "duration": 0.125,
          "velocity": 100
        },
        {
          "pitch": 74,
          "onset": 332.375,
          "duration": 0.125,
          "velocity": 100
        },
        {
          "pitch": 67,
          "onset": 332.5,
          "duration": 0.25,
          "velocity": 100
        },
        {
          "pitch": 73,
          "onset": 332.5,
          "duration": 0.125,
          "velocity": 100
        },
        {
          "pitch": 74,
          "onset": 332.625,
          "duration": 0.125,
          "velocity": 100
        },
        {
          "pitch": 64,
          "onset": 332.75,
          "duration": 0.25,
          "velocity": 100
        },
        {
          "pitch": 71,
          "onset": 332.75,
          "duration": 0.125,
          "velocity": 100
        },
        {
          "pitch": 73,
          "onset": 332.875,
          "duration": 0.125,
          "velocity": 100
        },
        {
          "pitch": 65,
          "onset": 333.0,
          "duration": 0.5,
          "velocity": 100
        },
        {
          "pitch": 74,
          "onset": 333.0,
          "duration": 0.5,
          "velocity": 100
        },
        {
          "pitch": 57,
          "onset": 333.5,
          "duration": 0.5,
          "velocity": 100
        },
        {
          "pitch": 77,
          "onset": 333.5,
          "duration": 0.5,
          "velocity": 100
        },
        {
          "pitch": 62,
          "onset": 334.0,
          "duration": 1.0,
          "velocity": 100
        },
        {
          "pitch": 81,
          "onset": 334.0,
          "duration": 0.5,
          "velocity": 100
        },
        {
          "pitch": 79,
          "onset": 334.5,
          "duration": 0.125,
          "velocity": 100
        },
        {
          "pitch": 81,
          "onset": 334.625,
          "duration": 0.125,
          "velocity": 100
        },
        {
          "pitch": 79,
          "onset": 334.75,
          "duration": 0.125,
          "velocity": 100
        },
        {
          "pitch": 81,
          "onset": 334.875,
          "duration": 0.125,
          "velocity": 100
        },
        {
          "pitch": 61,
          "onset": 335.0,
          "duration": 0.5,
          "velocity": 100
        },
        {
          "pitch": 79,
          "onset": 335.0,
          "duration": 0.125,
          "velocity": 100
        },
        {
          "pitch": 81,
          "onset": 335.125,
          "duration": 0.125,
          "velocity": 100
        },
        {
          "pitch": 79,
          "onset": 335.25,
          "duration": 0.125,
          "velocity": 100
        },
        {
          "pitch": 81,
          "onset": 335.375,
          "duration": 0.125,
          "velocity": 100
        },
        {
          "pitch": 64,
          "onset": 335.5,
          "duration": 1.0,
          "velocity": 100
        },
        {
          "pitch": 79,
          "onset": 335.5,
          "duration": 0.125,
          "velocity": 100
        },
        {
          "pitch": 81,
          "onset": 335.625,
          "duration": 0.125,
          "velocity": 100
        },
        {
          "pitch": 77,
          "onset": 335.75,
          "duration": 0.125,
          "velocity": 100
        },
        {
          "pitch": 79,
          "onset": 335.875,
          "duration": 0.125,
          "velocity": 100
        },
        {
          "pitch": 81,
          "onset": 336.0,
          "duration": 0.125,
          "velocity": 100
        },
        {
          "pitch": 82,
          "onset": 336.125,
          "duration": 0.125,
          "velocity": 100
        },
        {
          "pitch": 81,
          "onset": 336.25,
          "duration": 0.125,
          "velocity": 100
        },
        {
          "pitch": 82,
          "onset": 336.375,
          "duration": 0.125,
          "velocity": 100
        },
        {
          "pitch": 62,
          "onset": 336.5,
          "duration": 0.5,
          "velocity": 100
        },
        {
          "pitch": 81,
          "onset": 336.5,
          "duration": 0.125,
          "velocity": 100
        },
        {
          "pitch": 82,
          "onset": 336.625,
          "duration": 0.125,
          "velocity": 100
        },
        {
          "pitch": 81,
          "onset": 336.75,
          "duration": 0.125,
          "velocity": 100
        },
        {
          "pitch": 82,
          "onset": 336.875,
          "duration": 0.125,
          "velocity": 100
        },
        {
          "pitch": 65,
          "onset": 337.0,
          "duration": 1.0,
          "velocity": 100
        },
        {
          "pitch": 81,
          "onset": 337.0,
          "duration": 0.125,
          "velocity": 100
        },
        {
          "pitch": 82,
          "onset": 337.125,
          "duration": 0.125,
          "velocity": 100
        },
        {
          "pitch": 79,
          "onset": 337.25,
          "duration": 0.125,
          "velocity": 100
        },
        {
          "pitch": 81,
          "onset": 337.375,
          "duration": 0.125,
          "velocity": 100
        },
        {
          "pitch": 82,
          "onset": 337.5,
          "duration": 0.25,
          "velocity": 100
        },
        {
          "pitch": 81,
          "onset": 337.75,
          "duration": 0.25,
          "velocity": 100
        },
        {
          "pitch": 64,
          "onset": 338.0,
          "duration": 0.5,
          "velocity": 100
        },
        {
          "pitch": 79,
          "onset": 338.0,
          "duration": 0.25,
          "velocity": 100
        },
        {
          "pitch": 77,
          "onset": 338.25,
          "duration": 0.25,
          "velocity": 100
        },
        {
          "pitch": 67,
          "onset": 338.5,
          "duration": 1.0,
          "velocity": 100
        },
        {
          "pitch": 76,
          "onset": 338.5,
          "duration": 0.25,
          "velocity": 100
        },
        {
          "pitch": 74,
          "onset": 338.75,
          "duration": 0.25,
          "velocity": 100
        },
        {
          "pitch": 73,
          "onset": 339.0,
          "duration": 0.25,
          "velocity": 100
        },
        {
          "pitch": 65,
          "onset": 339.25,
          "duration": 0.25,
          "velocity": 100
        },
        {
          "pitch": 74,
          "onset": 339.25,
          "duration": 0.25,
          "velocity": 100
        },
        {
          "pitch": 67,
          "onset": 339.5,
          "duration": 0.25,
          "velocity": 100
        },
        {
          "pitch": 76,
          "onset": 339.5,
          "duration": 0.125,
          "velocity": 100
        },
        {
          "pitch": 74,
          "onset": 339.625,
          "duration": 0.125,
          "velocity": 100
        },
        {
          "pitch": 64,
          "onset": 339.75,
          "duration": 0.25,
          "velocity": 100
        },
        {
          "pitch": 73,
          "onset": 339.75,
          "duration": 0.125,
          "velocity": 100
        },
        {
          "pitch": 74,
          "onset": 339.875,
          "duration": 0.125,
          "velocity": 100
        },
        {
          "pitch": 69,
          "onset": 340.0,
          "duration": 0.25,
          "velocity": 100
        },
        {
          "pitch": 76,
          "onset": 340.0,
          "duration": 0.75,
          "velocity": 100
        },
        {
          "pitch": 64,
          "onset": 340.25,
          "duration": 0.25,
          "velocity": 100
        },
        {
          "pitch": 65,
          "onset": 340.5,
          "duration": 1.75,
          "velocity": 100
        },
        {
          "pitch": 74,
          "onset": 340.75,
          "duration": 0.25,
          "velocity": 100
        },
        {
          "pitch": 76,
          "onset": 341.0,
          "duration": 0.25,
          "velocity": 100
        },
        {
          "pitch": 73,
          "onset": 341.25,
          "duration": 0.25,
          "velocity": 100
        },
        {
          "pitch": 77,
          "onset": 341.5,
          "duration": 0.25,
          "velocity": 100
        },
        {
          "pitch": 73,
          "onset": 341.75,
          "duration": 0.25,
          "velocity": 100
        },
        {
          "pitch": 74,
          "onset": 342.0,
          "duration": 2.0,
          "velocity": 100
        },
        {
          "pitch": 64,
          "onset": 342.25,
          "duration": 0.25,
          "velocity": 100
        },
        {
          "pitch": 65,
          "onset": 342.5,
          "duration": 0.25,
          "velocity": 100
        },
        {
          "pitch": 62,
          "onset": 342.75,
          "duration": 0.25,
          "velocity": 100
        },
        {
          "pitch": 67,
          "onset": 343.0,
          "duration": 0.25,
          "velocity": 100
        },
        {
          "pitch": 62,
          "onset": 343.25,
          "duration": 0.25,
          "velocity": 100
        },
        {
          "pitch": 64,
          "onset": 343.5,
          "duration": 0.25,
          "velocity": 100
        },
        {
          "pitch": 62,
          "onset": 343.75,
          "duration": 0.25,
          "velocity": 100
        },
        {
          "pitch": 64,
          "onset": 344.0,
          "duration": 0.25,
          "velocity": 100
        },
        {
          "pitch": 82,
          "onset": 344.0,
          "duration": 0.5,
          "velocity": 100
        },
        {
          "pitch": 60,
          "onset": 344.25,
          "duration": 0.25,
          "velocity": 100
        },
        {
          "pitch": 65,
          "onset": 344.5,
          "duration": 0.25,
          "velocity": 100
        },
        {
          "pitch": 72,
          "onset": 344.5,
          "duration": 1.0,
          "velocity": 100
        },
        {
          "pitch": 60,
          "onset": 344.75,
          "duration": 0.25,
          "velocity": 100
        },
        {
          "pitch": 62,
          "onset": 345.0,
          "duration": 0.25,
          "velocity": 100
        },
        {
          "pitch": 60,
          "onset": 345.25,
          "duration": 0.25,
          "velocity": 100
        },
        {
          "pitch": 62,
          "onset": 345.5,
          "duration": 0.25,
          "velocity": 100
        },
        {
          "pitch": 81,
          "onset": 345.5,
          "duration": 0.5,
          "velocity": 100
        },
        {
          "pitch": 58,
          "onset": 345.75,
          "duration": 0.25,
          "velocity": 100
        },
        {
          "pitch": 64,
          "onset": 346.0,
          "duration": 0.25,
          "velocity": 100
        },
        {
          "pitch": 70,
          "onset": 346.0,
          "duration": 1.0,
          "velocity": 100
        },
        {
          "pitch": 58,
          "onset": 346.25,
          "duration": 0.25,
          "velocity": 100
        },
        {
          "pitch": 60,
          "onset": 346.5,
          "duration": 0.25,
          "velocity": 100
        },
        {
          "pitch": 58,
          "onset": 346.75,
          "duration": 0.25,
          "velocity": 100
        },
        {
          "pitch": 60,
          "onset": 347.0,
          "duration": 0.25,
          "velocity": 100
        },
        {
          "pitch": 79,
          "onset": 347.0,
          "duration": 0.5,
          "velocity": 100
        },
        {
          "pitch": 57,
          "onset": 347.25,
          "duration": 0.25,
          "velocity": 100
        },
        {
          "pitch": 62,
          "onset": 347.5,
          "duration": 0.25,
          "velocity": 100
        },
        {
          "pitch": 69,
          "onset": 347.5,
          "duration": 1.0,
          "velocity": 100
        },
        {
          "pitch": 57,
          "onset": 347.75,
          "duration": 0.25,
          "velocity": 100
        },
        {
          "pitch": 59,
          "onset": 348.0,
          "duration": 0.75,
          "velocity": 100
        },
        {
          "pitch": 77,
          "onset": 348.5,
          "duration": 0.5,
          "velocity": 100
        },
        {
          "pitch": 62,
          "onset": 348.75,
          "duration": 0.25,
          "velocity": 100
        },
        {
          "pitch": 61,
          "onset": 349.0,
          "duration": 0.25,
          "velocity": 100
        },
        {
          "pitch": 67,
          "onset": 349.0,
          "duration": 0.75,
          "velocity": 100
        },
        {
          "pitch": 62,
          "onset": 349.25,
          "duration": 0.25,
          "velocity": 100
        },
        {
          "pitch": 64,
          "onset": 349.5,
          "duration": 1.75,
          "velocity": 100
        },
        {
          "pitch": 69,
          "onset": 349.75,
          "duration": 0.25,
          "velocity": 100
        },
        {
          "pitch": 71,
          "onset": 350.0,
          "duration": 0.25,
          "velocity": 100
        },
        {
          "pitch": 73,
          "onset": 350.25,
          "duration": 0.25,
          "velocity": 100
        },
        {
          "pitch": 74,
          "onset": 350.5,
          "duration": 0.25,
          "velocity": 100
        },
        {
          "pitch": 76,
          "onset": 350.75,
          "duration": 0.25,
          "velocity": 100
        },
        {
          "pitch": 65,
          "onset": 351.0,
          "duration": 1.75,
          "velocity": 100
        },
        {
          "pitch": 62,
          "onset": 351.25,
          "duration": 0.25,
          "velocity": 100
        },
        {
          "pitch": 60,
          "onset": 351.5,
          "duration": 0.25,
          "velocity": 100
        },
        {
          "pitch": 58,
          "onset": 351.75,
          "duration": 0.25,
          "velocity": 100
        },
        {
          "pitch": 57,
          "onset": 352.0,
          "duration": 0.25,
          "velocity": 100
        },
        {
          "pitch": 55,
          "onset": 352.25,
          "duration": 0.25,
          "velocity": 100
        },
        {
          "pitch": 62,
          "onset": 352.5,
          "duration": 0.75,
          "velocity": 100
        },
        {
          "pitch": 64,
          "onset": 352.75,
          "duration": 0.25,
          "velocity": 100
        },
        {
          "pitch": 65,
          "onset": 353.0,
          "duration": 0.75,
          "velocity": 100
        },
        {
          "pitch": 61,
          "onset": 353.25,
          "duration": 0.25,
          "velocity": 100
        },
        {
          "pitch": 62,
          "onset": 353.5,
          "duration": 0.75,
          "velocity": 100
        },
        {
          "pitch": 65,
          "onset": 353.75,
          "duration": 0.125,
          "velocity": 100
        },
        {
          "pitch": 67,
          "onset": 353.875,
          "duration": 0.0625,
          "velocity": 100
        },
        {
          "pitch": 69,
          "onset": 353.9375,
          "duration": 0.0625,
          "velocity": 100
        },
        {
          "pitch": 70,
          "onset": 354.0,
          "duration": 0.25,
          "velocity": 100
        },
        {
          "pitch": 60,
          "onset": 354.25,
          "duration": 0.25,
          "velocity": 100
        },
        {
          "pitch": 69,
          "onset": 354.25,
          "duration": 0.25,
          "velocity": 100
        },
        {
          "pitch": 58,
          "onset": 354.5,
          "duration": 0.25,
          "velocity": 100
        },
        {
          "pitch": 67,
          "onset": 354.5,
          "duration": 0.25,
          "velocity": 100
        },
        {
          "pitch": 57,
          "onset": 354.75,
          "duration": 0.25,
          "velocity": 100
        },
        {
          "pitch": 65,
          "onset": 354.75,
          "duration": 0.25,
          "velocity": 100
        },
        {
          "pitch": 55,
          "onset": 355.0,
          "duration": 0.25,
          "velocity": 100
        },
        {
          "pitch": 64,
          "onset": 355.0,
          "duration": 0.25,
          "velocity": 100
        },
        {
          "pitch": 53,
          "onset": 355.25,
          "duration": 0.25,
          "velocity": 100
        },
        {
          "pitch": 62,
          "onset": 355.25,
          "duration": 0.25,
          "velocity": 100
        },
        {
          "pitch": 53,
          "onset": 355.5,
          "duration": 0.25,
          "velocity": 100
        },
        {
          "pitch": 62,
          "onset": 355.5,
          "duration": 0.25,
          "velocity": 100
        },
        {
          "pitch": 52,
          "onset": 355.75,
          "duration": 0.125,
          "velocity": 100
        },
        {
          "pitch": 61,
          "onset": 355.75,
          "duration": 0.125,
          "velocity": 100
        },
        {
          "pitch": 53,
          "onset": 355.875,
          "duration": 0.125,
          "velocity": 100
        },
        {
          "pitch": 62,
          "onset": 355.875,
          "duration": 0.125,
          "velocity": 100
        },
        {
          "pitch": 52,
          "onset": 356.0,
          "duration": 0.125,
          "velocity": 100
        },
        {
          "pitch": 61,
          "onset": 356.0,
          "duration": 0.125,
          "velocity": 100
        },
        {
          "pitch": 53,
          "onset": 356.125,
          "duration": 0.125,
          "velocity": 100
        },
        {
          "pitch": 62,
          "onset": 356.125,
          "duration": 0.125,
          "velocity": 100
        },
        {
          "pitch": 52,
          "onset": 356.25,
          "duration": 0.75,
          "velocity": 100
        },
        {
          "pitch": 61,
          "onset": 356.25,
          "duration": 0.75,
          "velocity": 100
        },
        {
          "pitch": 69,
          "onset": 357.25,
          "duration": 0.25,
          "velocity": 100
        },
        {
          "pitch": 73,
          "onset": 357.5,
          "duration": 0.25,
          "velocity": 100
        },
        {
          "pitch": 69,
          "onset": 357.75,
          "duration": 0.25,
          "velocity": 100
        },
        {
          "pitch": 76,
          "onset": 358.0,
          "duration": 0.25,
          "velocity": 100
        },
        {
          "pitch": 73,
          "onset": 358.25,
          "duration": 0.25,
          "velocity": 100
        },
        {
          "pitch": 81,
          "onset": 358.5,
          "duration": 1.0,
          "velocity": 100
        },
        {
          "pitch": 57,
          "onset": 358.75,
          "duration": 0.25,
          "velocity": 100
        },
        {
          "pitch": 61,
          "onset": 359.0,
          "duration": 0.25,
          "velocity": 100
        },
        {
          "pitch": 69,
          "onset": 359.0,
          "duration": 0.5,
          "velocity": 100
        },
        {
          "pitch": 57,
          "onset": 359.25,
          "duration": 0.25,
          "velocity": 100
        },
        {
          "pitch": 64,
          "onset": 359.5,
          "duration": 0.25,
          "velocity": 100
        },
        {
          "pitch": 73,
          "onset": 359.5,
          "duration": 0.5,
          "velocity": 100
        },
        {
          "pitch": 79,
          "onset": 359.5,
          "duration": 0.5,
          "velocity": 100
        },
        {
          "pitch": 61,
          "onset": 359.75,
          "duration": 0.25,
          "velocity": 100
        },
        {
          "pitch": 69,
          "onset": 360.0,
          "duration": 0.5,
          "velocity": 100
        },
        {
          "pitch": 74,
          "onset": 360.0,
          "duration": 0.5,
          "velocity": 100
        },
        {
          "pitch": 77,
          "onset": 360.0,
          "duration": 0.5,
          "velocity": 100
        },
        {
          "pitch": 50,
          "onset": 360.25,
          "duration": 0.25,
          "velocity": 100
        },
        {
          "pitch": 53,
          "onset": 360.5,
          "duration": 0.25,
          "velocity": 100
        },
        {
          "pitch": 65,
          "onset": 360.5,
          "duration": 0.5,
          "velocity": 100
        },
        {
          "pitch": 69,
          "onset": 360.5,
          "duration": 0.5,
          "velocity": 100
        },
        {
          "pitch": 74,
          "onset": 360.5,
          "duration": 0.5,
          "velocity": 100
        },
        {
          "pitch": 50,
          "onset": 360.75,
          "duration": 0.25,
          "velocity": 100
        },
        {
          "pitch": 57,
          "onset": 361.0,
          "duration": 0.25,
          "velocity": 100
        },
        {
          "pitch": 64,
          "onset": 361.0,
          "duration": 0.5,
          "velocity": 100
        },
        {
          "pitch": 67,
          "onset": 361.0,
          "duration": 0.5,
          "velocity": 100
        },
        {
          "pitch": 69,
          "onset": 361.0,
          "duration": 0.5,
          "velocity": 100
        },
        {
          "pitch": 73,
          "onset": 361.0,
          "duration": 0.5,
          "velocity": 100
        },
        {
          "pitch": 45,
          "onset": 361.25,
          "duration": 0.25,
          "velocity": 100
        },
        {
          "pitch": 50,
          "onset": 361.5,
          "duration": 1.0,
          "velocity": 100
        },
        {
          "pitch": 62,
          "onset": 361.5,
          "duration": 1.0,
          "velocity": 100
        },
        {
          "pitch": 66,
          "onset": 361.5,
          "duration": 1.0,
          "velocity": 100
        },
        {
          "pitch": 69,
          "onset": 361.5,
          "duration": 1.0,
          "velocity": 100
        },
        {
          "pitch": 74,
          "onset": 361.5,
          "duration": 1.0,
          "velocity": 100
        },
        {
          "pitch": 62,
          "onset": 363.25,
          "duration": 0.25,
          "velocity": 100
        },
        {
          "pitch": 66,
          "onset": 363.5,
          "duration": 0.25,
          "velocity": 100
        },
        {
          "pitch": 62,
          "onset": 363.75,
          "duration": 0.25,
          "velocity": 100
        },
        {
          "pitch": 69,
          "onset": 364.0,
          "duration": 0.25,
          "velocity": 100
        },
        {
          "pitch": 66,
          "onset": 364.25,
          "duration": 0.25,
          "velocity": 100
        },
        {
          "pitch": 74,
          "onset": 364.5,
          "duration": 1.0,
          "velocity": 100
        },
        {
          "pitch": 50,
          "onset": 364.75,
          "duration": 0.25,
          "velocity": 100
        },
        {
          "pitch": 54,
          "onset": 365.0,
          "duration": 0.25,
          "velocity": 100
        },
        {
          "pitch": 62,
          "onset": 365.0,
          "duration": 0.5,
          "velocity": 100
        },
        {
          "pitch": 50,
          "onset": 365.25,
          "duration": 0.25,
          "velocity": 100
        },
        {
          "pitch": 57,
          "onset": 365.5,
          "duration": 0.25,
          "velocity": 100
        },
        {
          "pitch": 66,
          "onset": 365.5,
          "duration": 0.5,
          "velocity": 100
        },
        {
          "pitch": 72,
          "onset": 365.5,
          "duration": 0.5,
          "velocity": 100
        },
        {
          "pitch": 54,
          "onset": 365.75,
          "duration": 0.25,
          "velocity": 100
        },
        {
          "pitch": 62,
          "onset": 366.0,
          "duration": 0.5,
          "velocity": 100
        },
        {
          "pitch": 67,
          "onset": 366.0,
          "duration": 0.5,
          "velocity": 100
        },
        {
          "pitch": 71,
          "onset": 366.0,
          "duration": 0.5,
          "velocity": 100
        },
        {
          "pitch": 55,
          "onset": 366.25,
          "duration": 0.25,
          "velocity": 100
        },
        {
          "pitch": 59,
          "onset": 366.5,
          "duration": 0.25,
          "velocity": 100
        },
        {
          "pitch": 71,
          "onset": 366.5,
          "duration": 0.5,
          "velocity": 100
        },
        {
          "pitch": 74,
          "onset": 366.5,
          "duration": 0.5,
          "velocity": 100
        },
        {
          "pitch": 79,
          "onset": 366.5,
          "duration": 0.5,
          "velocity": 100
        },
        {
          "pitch": 55,
          "onset": 366.75,
          "duration": 0.25,
          "velocity": 100
        },
        {
          "pitch": 62,
          "onset": 367.0,
          "duration": 0.25,
          "velocity": 100
        },
        {
          "pitch": 69,
          "onset": 367.0,
          "duration": 0.5,
          "velocity": 100
        },
        {
          "pitch": 72,
          "onset": 367.0,
          "duration": 0.5,
          "velocity": 100
        },
        {
          "pitch": 74,
          "onset": 367.0,
          "duration": 0.5,
          "velocity": 100
        },
        {
          "pitch": 78,
          "onset": 367.0,
          "duration": 0.5,
          "velocity": 100
        },
        {
          "pitch": 50,
          "onset": 367.25,
          "duration": 0.25,
          "velocity": 100
        },
        {
          "pitch": 55,
          "onset": 367.5,
          "duration": 1.0,
          "velocity": 100
        },
        {
          "pitch": 67,
          "onset": 367.5,
          "duration": 1.0,
          "velocity": 100
        },
        {
          "pitch": 71,
          "onset": 367.5,
          "duration": 1.0,
          "velocity": 100
        },
        {
          "pitch": 74,
          "onset": 367.5,
          "duration": 1.0,
          "velocity": 100
        },
        {
          "pitch": 79,
          "onset": 367.5,
          "duration": 1.0,
          "velocity": 100
        },
        {
          "pitch": 67,
          "onset": 369.25,
          "duration": 0.25,
          "velocity": 100
        },
        {
          "pitch": 71,
          "onset": 369.5,
          "duration": 0.25,
          "velocity": 100
        },
        {
          "pitch": 67,
          "onset": 369.75,
          "duration": 0.25,
          "velocity": 100
        },
        {
          "pitch": 74,
          "onset": 370.0,
          "duration": 0.25,
          "velocity": 100
        },
        {
          "pitch": 71,
          "onset": 370.25,
          "duration": 0.25,
          "velocity": 100
        },
        {
          "pitch": 79,
          "onset": 370.5,
          "duration": 1.0,
          "velocity": 100
        },
        {
          "pitch": 55,
          "onset": 370.75,
          "duration": 0.25,
          "velocity": 100
        },
        {
          "pitch": 59,
          "onset": 371.0,
          "duration": 0.25,
          "velocity": 100
        },
        {
          "pitch": 67,
          "onset": 371.0,
          "duration": 0.5,
          "velocity": 100
        },
        {
          "pitch": 55,
          "onset": 371.25,
          "duration": 0.25,
          "velocity": 100
        },
        {
          "pitch": 62,
          "onset": 371.5,
          "duration": 0.25,
          "velocity": 100
        },
        {
          "pitch": 71,
          "onset": 371.5,
          "duration": 0.5,
          "velocity": 100
        },
        {
          "pitch": 77,
          "onset": 371.5,
          "duration": 0.5,
          "velocity": 100
        },
        {
          "pitch": 59,
          "onset": 371.75,
          "duration": 0.25,
          "velocity": 100
        },
        {
          "pitch": 67,
          "onset": 372.0,
          "duration": 0.5,
          "velocity": 100
        },
        {
          "pitch": 72,
          "onset": 372.0,
          "duration": 0.5,
          "velocity": 100
        },
        {
          "pitch": 76,
          "onset": 372.0,
          "duration": 0.5,
          "velocity": 100
        },
        {
          "pitch": 48,
          "onset": 372.25,
          "duration": 0.25,
          "velocity": 100
        },
        {
          "pitch": 52,
          "onset": 372.5,
          "duration": 0.25,
          "velocity": 100
        },
        {
          "pitch": 64,
          "onset": 372.5,
          "duration": 0.5,
          "velocity": 100
        },
        {
          "pitch": 67,
          "onset": 372.5,
          "duration": 0.5,
          "velocity": 100
        },
        {
          "pitch": 72,
          "onset": 372.5,
          "duration": 0.5,
          "velocity": 100
        },
        {
          "pitch": 48,
          "onset": 372.75,
          "duration": 0.25,
          "velocity": 100
        },
        {
          "pitch": 55,
          "onset": 373.0,
          "duration": 0.25,
          "velocity": 100
        },
        {
          "pitch": 62,
          "onset": 373.0,
          "duration": 0.5,
          "velocity": 100
        },
        {
          "pitch": 67,
          "onset": 373.0,
          "duration": 0.5,
          "velocity": 100
        },
        {
          "pitch": 70,
          "onset": 373.0,
          "duration": 0.5,
          "velocity": 100
        },
        {
          "pitch": 52,
          "onset": 373.25,
          "duration": 0.25,
          "velocity": 100
        },
        {
          "pitch": 53,
          "onset": 373.5,
          "duration": 1.0,
          "velocity": 100
        },
        {
          "pitch": 60,
          "onset": 373.5,
          "duration": 1.0,
          "velocity": 100
        },
        {
          "pitch": 65,
          "onset": 373.5,
          "duration": 1.0,
          "velocity": 100
        },
        {
          "pitch": 69,
          "onset": 373.5,
          "duration": 1.0,
          "velocity": 100
        },
        {
          "pitch": 65,
          "onset": 375.25,
          "duration": 0.25,
          "velocity": 100
        },
        {
          "pitch": 69,
          "onset": 375.5,
          "duration": 0.25,
          "velocity": 100
        },
        {
          "pitch": 65,
          "onset": 375.75,
          "duration": 0.25,
          "velocity": 100
        },
        {
          "pitch": 72,
          "onset": 376.0,
          "duration": 0.25,
          "velocity": 100
        },
        {
          "pitch": 69,
          "onset": 376.25,
          "duration": 0.25,
          "velocity": 100
        },
        {
          "pitch": 77,
          "onset": 376.5,
          "duration": 1.0,
          "velocity": 100
        },
        {
          "pitch": 53,
          "onset": 376.75,
          "duration": 0.25,
          "velocity": 100
        },
        {
          "pitch": 57,
          "onset": 377.0,
          "duration": 0.25,
          "velocity": 100
        },
        {
          "pitch": 65,
          "onset": 377.0,
          "duration": 0.5,
          "velocity": 100
        },
        {
          "pitch": 53,
          "onset": 377.25,
          "duration": 0.25,
          "velocity": 100
        },
        {
          "pitch": 60,
          "onset": 377.5,
          "duration": 0.25,
          "velocity": 100
        },
        {
          "pitch": 69,
          "onset": 377.5,
          "duration": 0.5,
          "velocity": 100
        },
        {
          "pitch": 76,
          "onset": 377.5,
          "duration": 0.5,
          "velocity": 100
        },
        {
          "pitch": 57,
          "onset": 377.75,
          "duration": 0.25,
          "velocity": 100
        },
        {
          "pitch": 65,
          "onset": 378.0,
          "duration": 0.5,
          "velocity": 100
        },
        {
          "pitch": 71,
          "onset": 378.0,
          "duration": 0.5,
          "velocity": 100
        },
        {
          "pitch": 74,
          "onset": 378.0,
          "duration": 0.5,
          "velocity": 100
        },
        {
          "pitch": 47,
          "onset": 378.25,
          "duration": 0.25,
          "velocity": 100
        },
        {
          "pitch": 50,
          "onset": 378.5,
          "duration": 0.25,
          "velocity": 100
        },
        {
          "pitch": 62,
          "onset": 378.5,
          "duration": 0.5,
          "velocity": 100
        },
        {
          "pitch": 65,
          "onset": 378.5,
          "duration": 0.5,
          "velocity": 100
        },
        {
          "pitch": 71,
          "onset": 378.5,
          "duration": 0.5,
          "velocity": 100
        },
        {
          "pitch": 47,
          "onset": 378.75,
          "duration": 0.25,
          "velocity": 100
        },
        {
          "pitch": 53,
          "onset": 379.0,
          "duration": 0.25,
          "velocity": 100
        },
        {
          "pitch": 60,
          "onset": 379.0,
          "duration": 0.5,
          "velocity": 100
        },
        {
          "pitch": 65,
          "onset": 379.0,
          "duration": 0.5,
          "velocity": 100
        },
        {
          "pitch": 69,
          "onset": 379.0,
          "duration": 0.5,
          "velocity": 100
        },
        {
          "pitch": 50,
          "onset": 379.25,
          "duration": 0.25,
          "velocity": 100
        },
        {
          "pitch": 52,
          "onset": 379.5,
          "duration": 1.0,
          "velocity": 100
        },
        {
          "pitch": 59,
          "onset": 379.5,
          "duration": 1.0,
          "velocity": 100
        },
        {
          "pitch": 64,
          "onset": 379.5,
          "duration": 1.0,
          "velocity": 100
        },
        {
          "pitch": 68,
          "onset": 379.5,
          "duration": 1.0,
          "velocity": 100
        },
        {
          "pitch": 64,
          "onset": 381.25,
          "duration": 0.25,
          "velocity": 100
        },
        {
          "pitch": 68,
          "onset": 381.5,
          "duration": 0.25,
          "velocity": 100
        },
        {
          "pitch": 64,
          "onset": 381.75,
          "duration": 0.25,
          "velocity": 100
        },
        {
          "pitch": 71,
          "onset": 382.0,
          "duration": 0.25,
          "velocity": 100
        },
        {
          "pitch": 68,
          "onset": 382.25,
          "duration": 0.25,
          "velocity": 100
        },
        {
          "pitch": 76,
          "onset": 382.5,
          "duration": 1.0,
          "velocity": 100
        },
        {
          "pitch": 52,
          "onset": 382.75,
          "duration": 0.25,
          "velocity": 100
        },
        {
          "pitch": 56,
          "onset": 383.0,
          "duration": 0.25,
          "velocity": 100
        },
        {
          "pitch": 64,
          "onset": 383.0,
          "duration": 0.5,
          "velocity": 100
        },
        {
          "pitch": 52,
          "onset": 383.25,
          "duration": 0.25,
          "velocity": 100
        },
        {
          "pitch": 59,
          "onset": 383.5,
          "duration": 0.25,
          "velocity": 100
        },
        {
          "pitch": 68,
          "onset": 383.5,
          "duration": 0.5,
          "velocity": 100
        },
        {
          "pitch": 74,
          "onset": 383.5,
          "duration": 0.5,
          "velocity": 100
        },
        {
          "pitch": 56,
          "onset": 383.75,
          "duration": 0.25,
          "velocity": 100
        },
        {
          "pitch": 64,
          "onset": 384.0,
          "duration": 0.5,
          "velocity": 100
        },
        {
          "pitch": 69,
          "onset": 384.0,
          "duration": 0.5,
          "velocity": 100
        },
        {
          "pitch": 72,
          "onset": 384.0,
          "duration": 0.5,
          "velocity": 100
        },
        {
          "pitch": 45,
          "onset": 384.25,
          "duration": 0.25,
          "velocity": 100
        },
        {
          "pitch": 48,
          "onset": 384.5,
          "duration": 0.25,
          "velocity": 100
        },
        {
          "pitch": 60,
          "onset": 384.5,
          "duration": 0.5,
          "velocity": 100
        },
        {
          "pitch": 64,
          "onset": 384.5,
          "duration": 0.5,
          "velocity": 100
        },
        {
          "pitch": 69,
          "onset": 384.5,
          "duration": 0.5,
          "velocity": 100
        },
        {
          "pitch": 45,
          "onset": 384.75,
          "duration": 0.25,
          "velocity": 100
        },
        {
          "pitch": 52,
          "onset": 385.0,
          "duration": 0.25,
          "velocity": 100
        },
        {
          "pitch": 58,
          "onset": 385.0,
          "duration": 0.5,
          "velocity": 100
        },
        {
          "pitch": 64,
          "onset": 385.0,
          "duration": 0.5,
          "velocity": 100
        },
        {
          "pitch": 67,
          "onset": 385.0,
          "duration": 0.5,
          "velocity": 100
        },
        {
          "pitch": 49,
          "onset": 385.25,
          "duration": 0.25,
          "velocity": 100
        },
        {
          "pitch": 50,
          "onset": 385.5,
          "duration": 1.0,
          "velocity": 100
        },
        {
          "pitch": 57,
          "onset": 385.5,
          "duration": 1.0,
          "velocity": 100
        },
        {
          "pitch": 62,
          "onset": 385.5,
          "duration": 1.0,
          "velocity": 100
        },
        {
          "pitch": 65,
          "onset": 385.5,
          "duration": 1.0,
          "velocity": 100
        },
        {
          "pitch": 62,
          "onset": 387.25,
          "duration": 0.25,
          "velocity": 100
        },
        {
          "pitch": 65,
          "onset": 387.5,
          "duration": 0.25,
          "velocity": 100
        },
        {
          "pitch": 62,
          "onset": 387.75,
          "duration": 0.25,
          "velocity": 100
        },
        {
          "pitch": 69,
          "onset": 388.0,
          "duration": 0.25,
          "velocity": 100
        },
        {
          "pitch": 65,
          "onset": 388.25,
          "duration": 0.25,
          "velocity": 100
        },
        {
          "pitch": 74,
          "onset": 388.5,
          "duration": 1.0,
          "velocity": 100
        },
        {
          "pitch": 50,
          "onset": 388.75,
          "duration": 0.25,
          "velocity": 100
        },
        {
          "pitch": 53,
          "onset": 389.0,
          "duration": 0.25,
          "velocity": 100
        },
        {
          "pitch": 62,
          "onset": 389.0,
          "duration": 0.5,
          "velocity": 100
        },
        {
          "pitch": 50,
          "onset": 389.25,
          "duration": 0.25,
          "velocity": 100
        },
        {
          "pitch": 57,
          "onset": 389.5,
          "duration": 0.25,
          "velocity": 100
        },
        {
          "pitch": 65,
          "onset": 389.5,
          "duration": 0.5,
          "velocity": 100
        },
        {
          "pitch": 72,
          "onset": 389.5,
          "duration": 0.5,
          "velocity": 100
        },
        {
          "pitch": 53,
          "onset": 389.75,
          "duration": 0.25,
          "velocity": 100
        },
        {
          "pitch": 62,
          "onset": 390.0,
          "duration": 1.0,
          "velocity": 100
        },
        {
          "pitch": 65,
          "onset": 390.0,
          "duration": 1.0,
          "velocity": 100
        },
        {
          "pitch": 71,
          "onset": 390.0,
          "duration": 1.0,
          "velocity": 100
        },
        {
          "pitch": 59,
          "onset": 390.25,
          "duration": 0.25,
          "velocity": 100
        },
        {
          "pitch": 56,
          "onset": 390.5,
          "duration": 0.25,
          "velocity": 100
        },
        {
          "pitch": 59,
          "onset": 390.75,
          "duration": 0.25,
          "velocity": 100
        },
        {
          "pitch": 52,
          "onset": 391.0,
          "duration": 0.25,
          "velocity": 100
        },
        {
          "pitch": 60,
          "onset": 391.0,
          "duration": 0.5,
          "velocity": 100
        },
        {
          "pitch": 64,
          "onset": 391.0,
          "duration": 0.5,
          "velocity": 100
        },
        {
          "pitch": 69,
          "onset": 391.0,
          "duration": 0.5,
          "velocity": 100
        },
        {
          "pitch": 57,
          "onset": 391.25,
          "duration": 0.25,
          "velocity": 100
        },
        {
          "pitch": 53,
          "onset": 391.5,
          "duration": 0.25,
          "velocity": 100
        },
        {
          "pitch": 62,
          "onset": 391.5,
          "duration": 0.5,
          "velocity": 100
        },
        {
          "pitch": 65,
          "onset": 391.5,
          "duration": 0.5,
          "velocity": 100
        },
        {
          "pitch": 70,
          "onset": 391.5,
          "duration": 0.5,
          "velocity": 100
        },
        {
          "pitch": 58,
          "onset": 391.75,
          "duration": 0.25,
          "velocity": 100
        },
        {
          "pitch": 50,
          "onset": 392.0,
          "duration": 0.25,
          "velocity": 100
        },
        {
          "pitch": 59,
          "onset": 392.0,
          "duration": 0.5,
          "velocity": 100
        },
        {
          "pitch": 68,
          "onset": 392.0,
          "duration": 0.5,
          "velocity": 100
        },
        {
          "pitch": 53,
          "onset": 392.25,
          "duration": 0.25,
          "velocity": 100
        },
        {
          "pitch": 45,
          "onset": 392.5,
          "duration": 0.25,
          "velocity": 100
        },
        {
          "pitch": 60,
          "onset": 392.5,
          "duration": 0.5,
          "velocity": 100
        },
        {
          "pitch": 66,
          "onset": 392.5,
          "duration": 0.5,
          "velocity": 100
        },
        {
          "pitch": 69,
          "onset": 392.5,
          "duration": 0.5,
          "velocity": 100
        },
        {
          "pitch": 48,
          "onset": 392.75,
          "duration": 0.25,
          "velocity": 100
        },
        {
          "pitch": 45,
          "onset": 393.5,
          "duration": 0.25,
          "velocity": 100
        },
        {
          "pitch": 52,
          "onset": 393.5,
          "duration": 0.25,
          "velocity": 100
        },
        {
          "pitch": 60,
          "onset": 393.5,
          "duration": 0.25,
          "velocity": 100
        },
        {
          "pitch": 64,
          "onset": 393.5,
          "duration": 0.25,
          "velocity": 100
        },
        {
          "pitch": 69,
          "onset": 393.5,
          "duration": 0.25,
          "velocity": 100
        },
        {
          "pitch": 47,
          "onset": 394.0,
          "duration": 0.5,
          "velocity": 100
        },
        {
          "pitch": 50,
          "onset": 394.0,
          "duration": 0.5,
          "velocity": 100
        },
        {
          "pitch": 52,
          "onset": 394.0,
          "duration": 0.5,
          "velocity": 100
        },
        {
          "pitch": 59,
          "onset": 394.0,
          "duration": 0.5,
          "velocity": 100
        },
        {
          "pitch": 64,
          "onset": 394.0,
          "duration": 0.5,
          "velocity": 100
        },
        {
          "pitch": 68,
          "onset": 394.0,
          "duration": 0.5,
          "velocity": 100
        },
        {
          "pitch": 48,
          "onset": 395.0,
          "duration": 0.25,
          "velocity": 100
        },
        {
          "pitch": 57,
          "onset": 395.0,
          "duration": 0.25,
          "velocity": 100
        },
        {
          "pitch": 64,
          "onset": 395.0,
          "duration": 0.25,
          "velocity": 100
        },
        {
          "pitch": 69,
          "onset": 395.0,
          "duration": 0.25,
          "velocity": 100
        },
        {
          "pitch": 72,
          "onset": 395.0,
          "duration": 0.25,
          "velocity": 100
        },
        {
          "pitch": 50,
          "onset": 395.5,
          "duration": 0.5,
          "velocity": 100
        },
        {
          "pitch": 52,
          "onset": 395.5,
          "duration": 0.5,
          "velocity": 100
        },
        {
          "pitch": 59,
          "onset": 395.5,
          "duration": 0.5,
          "velocity": 100
        },
        {
          "pitch": 64,
          "onset": 395.5,
          "duration": 0.5,
          "velocity": 100
        },
        {
          "pitch": 68,
          "onset": 395.5,
          "duration": 0.5,
          "velocity": 100
        },
        {
          "pitch": 71,
          "onset": 395.5,
          "duration": 0.5,
          "velocity": 100
        },
        {
          "pitch": 48,
          "onset": 396.5,
          "duration": 0.25,
          "velocity": 100
        },
        {
          "pitch": 57,
          "onset": 396.5,
          "duration": 0.25,
          "velocity": 100
        },
        {
          "pitch": 64,
          "onset": 396.5,
          "duration": 0.25,
          "velocity": 100
        },
        {
          "pitch": 69,
          "onset": 396.5,
          "duration": 0.25,
          "velocity": 100
        },
        {
          "pitch": 76,
          "onset": 396.5,
          "duration": 0.25,
          "velocity": 100
        },
        {
          "pitch": 47,
          "onset": 397.0,
          "duration": 0.5,
          "velocity": 100
        },
        {
          "pitch": 52,
          "onset": 397.0,
          "duration": 0.5,
          "velocity": 100
        },
        {
          "pitch": 59,
          "onset": 397.0,
          "duration": 0.5,
          "velocity": 100
        },
        {
          "pitch": 64,
          "onset": 397.0,
          "duration": 0.5,
          "velocity": 100
        },
        {
          "pitch": 68,
          "onset": 397.0,
          "duration": 0.5,
          "velocity": 100
        },
        {
          "pitch": 74,
          "onset": 397.0,
          "duration": 0.5,
          "velocity": 100
        },
        {
          "pitch": 45,
          "onset": 398.0,
          "duration": 0.25,
          "velocity": 100
        },
        {
          "pitch": 52,
          "onset": 398.0,
          "duration": 0.25,
          "velocity": 100
        },
        {
          "pitch": 64,
          "onset": 398.0,
          "duration": 0.25,
          "velocity": 100
        },
        {
          "pitch": 69,
          "onset": 398.0,
          "duration": 0.25,
          "velocity": 100
        },
        {
          "pitch": 72,
          "onset": 398.0,
          "duration": 0.25,
          "velocity": 100
        },
        {
          "pitch": 43,
          "onset": 398.5,
          "duration": 0.5,
          "velocity": 100
        },
        {
          "pitch": 52,
          "onset": 398.5,
          "duration": 0.5,
          "velocity": 100
        },
        {
          "pitch": 55,
          "onset": 398.5,
          "duration": 0.5,
          "velocity": 100
        },
        {
          "pitch": 64,
          "onset": 398.5,
          "duration": 0.5,
          "velocity": 100
        },
        {
          "pitch": 71,
          "onset": 398.5,
          "duration": 0.5,
          "velocity": 100
        },
        {
          "pitch": 41,
          "onset": 399.5,
          "duration": 0.25,
          "velocity": 100
        },
        {
          "pitch": 50,
          "onset": 399.5,
          "duration": 0.25,
          "velocity": 100
        },
        {
          "pitch": 65,
          "onset": 399.5,
          "duration": 0.25,
          "velocity": 100
        },
        {
          "pitch": 69,
          "onset": 399.5,
          "duration": 0.25,
          "velocity": 100
        },
        {
          "pitch": 74,
          "onset": 399.5,
          "duration": 0.25,
          "velocity": 100
        },
        {
          "pitch": 40,
          "onset": 400.0,
          "duration": 0.5,
          "velocity": 100
        },
        {
          "pitch": 48,
          "onset": 400.0,
          "duration": 0.5,
          "velocity": 100
        },
        {
          "pitch": 52,
          "onset": 400.0,
          "duration": 0.5,
          "velocity": 100
        },
        {
          "pitch": 60,
          "onset": 400.0,
          "duration": 0.5,
          "velocity": 100
        },
        {
          "pitch": 67,
          "onset": 400.0,
          "duration": 0.5,
          "velocity": 100
        },
        {
          "pitch": 72,
          "onset": 400.0,
          "duration": 0.5,
          "velocity": 100
        },
        {
          "pitch": 38,
          "onset": 401.0,
          "duration": 0.25,
          "velocity": 100
        },
        {
          "pitch": 50,
          "onset": 401.0,
          "duration": 0.25,
          "velocity": 100
        },
        {
          "pitch": 62,
          "onset": 401.0,
          "duration": 0.25,
          "velocity": 100
        },
        {
          "pitch": 65,
          "onset": 401.0,
          "duration": 0.25,
          "velocity": 100
        },
        {
          "pitch": 71,
          "onset": 401.0,
          "duration": 0.25,
          "velocity": 100
        },
        {
          "pitch": 39,
          "onset": 401.5,
          "duration": 0.5,
          "velocity": 100
        },
        {
          "pitch": 45,
          "onset": 401.5,
          "duration": 0.5,
          "velocity": 100
        },
        {
          "pitch": 60,
          "onset": 401.5,
          "duration": 0.5,
          "velocity": 100
        },
        {
          "pitch": 66,
          "onset": 401.5,
          "duration": 0.5,
          "velocity": 100
        },
        {
          "pitch": 69,
          "onset": 401.5,
          "duration": 0.5,
          "velocity": 100
        },
        {
          "pitch": 40,
          "onset": 402.5,
          "duration": 0.25,
          "velocity": 100
        },
        {
          "pitch": 52,
          "onset": 402.5,
          "duration": 0.25,
          "velocity": 100
        },
        {
          "pitch": 60,
          "onset": 402.5,
          "duration": 0.25,
          "velocity": 100
        },
        {
          "pitch": 64,
          "onset": 402.5,
          "duration": 0.25,
          "velocity": 100
        },
        {
          "pitch": 69,
          "onset": 402.5,
          "duration": 0.25,
          "velocity": 100
        },
        {
          "pitch": 52,
          "onset": 403.0,
          "duration": 0.5,
          "velocity": 100
        },
        {
          "pitch": 59,
          "onset": 403.0,
          "duration": 0.5,
          "velocity": 100
        },
        {
          "pitch": 62,
          "onset": 403.0,
          "duration": 0.5,
          "velocity": 100
        },
        {
          "pitch": 64,
          "onset": 403.0,
          "duration": 0.5,
          "velocity": 100
        },
        {
          "pitch": 68,
          "onset": 403.0,
          "duration": 0.5,
          "velocity": 100
        },
        {
          "pitch": 45,
          "onset": 403.5,
          "duration": 1.0,
          "velocity": 100
        },
        {
          "pitch": 57,
          "onset": 403.5,
          "duration": 1.0,
          "velocity": 100
        },
        {
          "pitch": 60,
          "onset": 403.5,
          "duration": 0.5,
          "velocity": 100
        },
        {
          "pitch": 64,
          "onset": 403.5,
          "duration": 0.5,
          "velocity": 100
        },
        {
          "pitch": 69,
          "onset": 403.5,
          "duration": 0.5,
          "velocity": 100
        },
        {
          "pitch": 72,
          "onset": 404.0,
          "duration": 0.5,
          "velocity": 100
        },
        {
          "pitch": 76,
          "onset": 404.0,
          "duration": 0.5,
          "velocity": 100
        },
        {
          "pitch": 81,
          "onset": 404.0,
          "duration": 0.5,
          "velocity": 100
        },
        {
          "pitch": 71,
          "onset": 404.5,
          "duration": 0.5,
          "velocity": 100
        },
        {
          "pitch": 76,
          "onset": 404.5,
          "duration": 0.5,
          "velocity": 100
        },
        {
          "pitch": 80,
          "onset": 404.5,
          "duration": 0.5,
          "velocity": 100
        },
        {
          "pitch": 57,
          "onset": 405.0,
          "duration": 0.25,
          "velocity": 100
        },
        {
          "pitch": 69,
          "onset": 405.0,
          "duration": 1.0,
          "velocity": 100
        },
        {
          "pitch": 76,
          "onset": 405.0,
          "duration": 1.0,
          "velocity": 100
        },
        {
          "pitch": 81,
          "onset": 405.0,
          "duration": 1.0,
          "velocity": 100
        },
        {
          "pitch": 56,
          "onset": 405.25,
          "duration": 0.25,
          "velocity": 100
        },
        {
          "pitch": 57,
          "onset": 405.5,
          "duration": 0.25,
          "velocity": 100
        },
        {
          "pitch": 52,
          "onset": 405.75,
          "duration": 0.25,
          "velocity": 100
        },
        {
          "pitch": 60,
          "onset": 406.0,
          "duration": 0.25,
          "velocity": 100
        },
        {
          "pitch": 76,
          "onset": 406.0,
          "duration": 0.5,
          "velocity": 100
        },
        {
          "pitch": 81,
          "onset": 406.0,
          "duration": 0.5,
          "velocity": 100
        },
        {
          "pitch": 57,
          "onset": 406.25,
          "duration": 0.25,
          "velocity": 100
        },
        {
          "pitch": 59,
          "onset": 406.5,
          "duration": 0.25,
          "velocity": 100
        },
        {
          "pitch": 74,
          "onset": 406.5,
          "duration": 0.75,
          "velocity": 100
        },
        {
          "pitch": 77,
          "onset": 406.5,
          "duration": 0.5,
          "velocity": 100
        },
        {
          "pitch": 57,
          "onset": 406.75,
          "duration": 0.25,
          "velocity": 100
        },
        {
          "pitch": 59,
          "onset": 407.0,
          "duration": 0.25,
          "velocity": 100
        },
        {
          "pitch": 76,
          "onset": 407.0,
          "duration": 1.75,
          "velocity": 100
        },
        {
          "pitch": 52,
          "onset": 407.25,
          "duration": 0.25,
          "velocity": 100
        },
        {
          "pitch": 72,
          "onset": 407.25,
          "duration": 0.25,
          "velocity": 100
        },
        {
          "pitch": 62,
          "onset": 407.5,
          "duration": 0.25,
          "velocity": 100
        },
        {
          "pitch": 71,
          "onset": 407.5,
          "duration": 0.25,
          "velocity": 100
        },
        {
          "pitch": 59,
          "onset": 407.75,
          "duration": 0.25,
          "velocity": 100
        },
        {
          "pitch": 74,
          "onset": 407.75,
          "duration": 0.25,
          "velocity": 100
        },
        {
          "pitch": 60,
          "onset": 408.0,
          "duration": 0.5,
          "velocity": 100
        },
        {
          "pitch": 72,
          "onset": 408.0,
          "duration": 0.75,
          "velocity": 100
        },
        {
          "pitch": 64,
          "onset": 408.5,
          "duration": 0.5,
          "velocity": 100
        },
        {
          "pitch": 71,
          "onset": 408.75,
          "duration": 0.25,
          "velocity": 100
        },
        {
          "pitch": 74,
          "onset": 408.75,
          "duration": 0.25,
          "velocity": 100
        },
        {
          "pitch": 69,
          "onset": 409.0,
          "duration": 0.5,
          "velocity": 100
        },
        {
          "pitch": 69,
          "onset": 409.0,
          "duration": 1.0,
          "velocity": 100
        },
        {
          "pitch": 72,
          "onset": 409.0,
          "duration": 0.25,
          "velocity": 100
        },
        {
          "pitch": 76,
          "onset": 409.25,
          "duration": 0.25,
          "velocity": 100
        },
        {
          "pitch": 65,
          "onset": 409.5,
          "duration": 0.5,
          "velocity": 100
        },
        {
          "pitch": 74,
          "onset": 409.5,
          "duration": 0.25,
          "velocity": 100
        },
        {
          "pitch": 72,
          "onset": 409.75,
          "duration": 0.25,
          "velocity": 100
        },
        {
          "pitch": 62,
          "onset": 410.0,
          "duration": 0.5,
          "velocity": 100
        },
        {
          "pitch": 68,
          "onset": 410.0,
          "duration": 0.125,
          "velocity": 100
        },
        {
          "pitch": 71,
          "onset": 410.0,
          "duration": 0.125,
          "velocity": 100
        },
        {
          "pitch": 69,
          "onset": 410.125,
          "duration": 0.125,
          "velocity": 100
        },
        {
          "pitch": 72,
          "onset": 410.125,
          "duration": 0.125,
          "velocity": 100
        },
        {
          "pitch": 68,
          "onset": 410.25,
          "duration": 0.5,
          "velocity": 100
        },
        {
          "pitch": 71,
          "onset": 410.25,
          "duration": 0.5,
          "velocity": 100
        },
        {
          "pitch": 64,
          "onset": 410.5,
          "duration": 0.5,
          "velocity": 100
        },
        {
          "pitch": 66,
          "onset": 410.75,
          "duration": 0.125,
          "velocity": 100
        },
        {
          "pitch": 69,
          "onset": 410.75,
          "duration": 0.25,
          "velocity": 100
        },
        {
          "pitch": 68,
          "onset": 410.875,
          "duration": 0.125,
          "velocity": 100
        },
        {
          "pitch": 64,
          "onset": 411.0,
          "duration": 0.5,
          "velocity": 100
        },
        {
          "pitch": 69,
          "onset": 411.0,
          "duration": 0.25,
          "velocity": 100
        },
        {
          "pitch": 69,
          "onset": 411.0,
          "duration": 0.5,
          "velocity": 100
        },
        {
          "pitch": 67,
          "onset": 411.25,
          "duration": 0.25,
          "velocity": 100
        },
        {
          "pitch": 60,
          "onset": 411.5,
          "duration": 0.5,
          "velocity": 100
        },
        {
          "pitch": 69,
          "onset": 411.5,
          "duration": 0.25,
          "velocity": 100
        },
        {
          "pitch": 64,
          "onset": 411.75,
          "duration": 0.25,
          "velocity": 100
        },
        {
          "pitch": 64,
          "onset": 412.0,
          "duration": 0.5,
          "velocity": 100
        },
        {
          "pitch": 72,
          "onset": 412.0,
          "duration": 0.25,
          "velocity": 100
        },
        {
          "pitch": 69,
          "onset": 412.25,
          "duration": 0.25,
          "velocity": 100
        },
        {
          "pitch": 62,
          "onset": 412.5,
          "duration": 0.125,
          "velocity": 100
        },
        {
          "pitch": 71,
          "onset": 412.5,
          "duration": 0.25,
          "velocity": 100
        },
        {
          "pitch": 64,
          "onset": 412.625,
          "duration": 0.125,
          "velocity": 100
        },
        {
          "pitch": 62,
          "onset": 412.75,
          "duration": 1.0,
          "velocity": 100
        },
        {
          "pitch": 69,
          "onset": 412.75,
          "duration": 0.25,
          "velocity": 100
        },
        {
          "pitch": 71,
          "onset": 413.0,
          "duration": 0.25,
          "velocity": 100
        },
        {
          "pitch": 64,
          "onset": 413.25,
          "duration": 0.25,
          "velocity": 100
        },
        {
          "pitch": 74,
          "onset": 413.5,
          "duration": 0.25,
          "velocity": 100
        },
        {
          "pitch": 60,
          "onset": 413.75,
          "duration": 0.125,
          "velocity": 100
        },
        {
          "pitch": 71,
          "onset": 413.75,
          "duration": 0.25,
          "velocity": 100
        },
        {
          "pitch": 62,
          "onset": 413.875,
          "duration": 0.125,
          "velocity": 100
        },
        {
          "pitch": 64,
          "onset": 414.0,
          "duration": 0.125,
          "velocity": 100
        },
        {
          "pitch": 72,
          "onset": 414.0,
          "duration": 0.25,
          "velocity": 100
        },
        {
          "pitch": 65,
          "onset": 414.125,
          "duration": 0.125,
          "velocity": 100
        },
        {
          "pitch": 64,
          "onset": 414.25,
          "duration": 1.0,
          "velocity": 100
        },
        {
          "pitch": 71,
          "onset": 414.25,
          "duration": 0.25,
          "velocity": 100
        },
        {
          "pitch": 72,
          "onset": 414.5,
          "duration": 0.25,
          "velocity": 100
        },
        {
          "pitch": 69,
          "onset": 414.75,
          "duration": 0.25,
          "velocity": 100
        },
        {
          "pitch": 76,
          "onset": 415.0,
          "duration": 0.25,
          "velocity": 100
        },
        {
          "pitch": 62,
          "onset": 415.25,
          "duration": 0.125,
          "velocity": 100
        },
        {
          "pitch": 72,
          "onset": 415.25,
          "duration": 0.25,
          "velocity": 100
        },
        {
          "pitch": 64,
          "onset": 415.375,
          "duration": 0.125,
          "velocity": 100
        },
        {
          "pitch": 65,
          "onset": 415.5,
          "duration": 0.25,
          "velocity": 100
        },
        {
          "pitch": 74,
          "onset": 415.5,
          "duration": 0.25,
          "velocity": 100
        },
        {
          "pitch": 64,
          "onset": 415.75,
          "duration": 0.25,
          "velocity": 100
        },
        {
          "pitch": 72,
          "onset": 415.75,
          "duration": 0.25,
          "velocity": 100
        },
        {
          "pitch": 62,
          "onset": 416.0,
          "duration": 0.25,
          "velocity": 100
        },
        {
          "pitch": 74,
          "onset": 416.0,
          "duration": 0.25,
          "velocity": 100
        },
        {
          "pitch": 60,
          "onset": 416.25,
          "duration": 0.25,
          "velocity": 100
        },
        {
          "pitch": 71,
          "onset": 416.25,
          "duration": 0.25,
          "velocity": 100
        },
        {
          "pitch": 59,
          "onset": 416.5,
          "duration": 0.25,
          "velocity": 100
        },
        {
          "pitch": 77,
          "onset": 416.5,
          "duration": 0.25,
          "velocity": 100
        },
        {
          "pitch": 57,
          "onset": 416.75,
          "duration": 0.25,
          "velocity": 100
        },
        {
          "pitch": 74,
          "onset": 416.75,
          "duration": 0.25,
          "velocity": 100
        },
        {
          "pitch": 56,
          "onset": 417.0,
          "duration": 0.25,
          "velocity": 100
        },
        {
          "pitch": 76,
          "onset": 417.0,
          "duration": 3.25,
          "velocity": 100
        },
        {
          "pitch": 57,
          "onset": 417.25,
          "duration": 0.25,
          "velocity": 100
        },
        {
          "pitch": 57,
          "onset": 417.5,
          "duration": 0.0625,
          "velocity": 100
        },
        {
          "pitch": 58,
          "onset": 417.5625,
          "duration": 0.0625,
          "velocity": 100
        },
        {
          "pitch": 57,
          "onset": 417.625,
          "duration": 0.125,
          "velocity": 100
        },
        {
          "pitch": 56,
          "onset": 417.75,
          "duration": 0.125,
          "velocity": 100
        },
        {
          "pitch": 57,
          "onset": 417.875,
          "duration": 0.125,
          "velocity": 100
        },
        {
          "pitch": 59,
          "onset": 418.0,
          "duration": 0.75,
          "velocity": 100
        },
        {
          "pitch": 57,
          "onset": 418.75,
          "duration": 0.25,
          "velocity": 100
        },
        {
          "pitch": 59,
          "onset": 419.0,
          "duration": 0.25,
          "velocity": 100
        },
        {
          "pitch": 56,
          "onset": 419.25,
          "duration": 0.25,
          "velocity": 100
        },
        {
          "pitch": 60,
          "onset": 419.5,
          "duration": 0.25,
          "velocity": 100
        },
        {
          "pitch": 56,
          "onset": 419.75,
          "duration": 0.25,
          "velocity": 100
        },
        {
          "pitch": 57,
          "onset": 420.0,
          "duration": 2.0,
          "velocity": 100
        },
        {
          "pitch": 74,
          "onset": 420.25,
          "duration": 0.25,
          "velocity": 100
        },
        {
          "pitch": 76,
          "onset": 420.5,
          "duration": 0.25,
          "velocity": 100
        },
        {
          "pitch": 72,
          "onset": 420.75,
          "duration": 0.25,
          "velocity": 100
        },
        {
          "pitch": 77,
          "onset": 421.0,
          "duration": 0.25,
          "velocity": 100
        },
        {
          "pitch": 72,
          "onset": 421.25,
          "duration": 0.25,
          "velocity": 100
        },
        {
          "pitch": 74,
          "onset": 421.5,
          "duration": 0.25,
          "velocity": 100
        },
        {
          "pitch": 72,
          "onset": 421.75,
          "duration": 0.25,
          "velocity": 100
        },
        {
          "pitch": 65,
          "onset": 422.0,
          "duration": 0.5,
          "velocity": 100
        },
        {
          "pitch": 74,
          "onset": 422.0,
          "duration": 0.25,
          "velocity": 100
        },
        {
          "pitch": 71,
          "onset": 422.25,
          "duration": 0.25,
          "velocity": 100
        },
        {
          "pitch": 55,
          "onset": 422.5,
          "duration": 1.0,
          "velocity": 100
        },
        {
          "pitch": 76,
          "onset": 422.5,
          "duration": 0.25,
          "velocity": 100
        },
        {
          "pitch": 71,
          "onset": 422.75,
          "duration": 0.25,
          "velocity": 100
        },
        {
          "pitch": 72,
          "onset": 423.0,
          "duration": 0.25,
          "velocity": 100
        },
        {
          "pitch": 71,
          "onset": 423.25,
          "duration": 0.25,
          "velocity": 100
        },
        {
          "pitch": 64,
          "onset": 423.5,
          "duration": 0.5,
          "velocity": 100
        },
        {
          "pitch": 72,
          "onset": 423.5,
          "duration": 0.25,
          "velocity": 100
        },
        {
          "pitch": 69,
          "onset": 423.75,
          "duration": 0.25,
          "velocity": 100
        },
        {
          "pitch": 53,
          "onset": 424.0,
          "duration": 1.0,
          "velocity": 100
        },
        {
          "pitch": 74,
          "onset": 424.0,
          "duration": 0.25,
          "velocity": 100
        },
        {
          "pitch": 69,
          "onset": 424.25,
          "duration": 0.25,
          "velocity": 100
        },
        {
          "pitch": 71,
          "onset": 424.5,
          "duration": 0.25,
          "velocity": 100
        },
        {
          "pitch": 69,
          "onset": 424.75,
          "duration": 0.25,
          "velocity": 100
        },
        {
          "pitch": 62,
          "onset": 425.0,
          "duration": 0.5,
          "velocity": 100
        },
        {
          "pitch": 71,
          "onset": 425.0,
          "duration": 0.25,
          "velocity": 100
        },
        {
          "pitch": 67,
          "onset": 425.25,
          "duration": 0.25,
          "velocity": 100
        },
        {
          "pitch": 52,
          "onset": 425.5,
          "duration": 1.0,
          "velocity": 100
        },
        {
          "pitch": 72,
          "onset": 425.5,
          "duration": 0.25,
          "velocity": 100
        },
        {
          "pitch": 67,
          "onset": 425.75,
          "duration": 0.25,
          "velocity": 100
        },
        {
          "pitch": 69,
          "onset": 426.0,
          "duration": 0.25,
          "velocity": 100
        },
        {
          "pitch": 67,
          "onset": 426.25,
          "duration": 0.25,
          "velocity": 100
        },
        {
          "pitch": 60,
          "onset": 426.5,
          "duration": 0.5,
          "velocity": 100
        },
        {
          "pitch": 69,
          "onset": 426.5,
          "duration": 0.25,
          "velocity": 100
        },
        {
          "pitch": 66,
          "onset": 426.75,
          "duration": 0.25,
          "velocity": 100
        },
        {
          "pitch": 50,
          "onset": 427.0,
          "duration": 0.75,
          "velocity": 100
        },
        {
          "pitch": 71,
          "onset": 427.0,
          "duration": 0.25,
          "velocity": 100
        },
        {
          "pitch": 66,
          "onset": 427.25,
          "duration": 0.25,
          "velocity": 100
        },
        {
          "pitch": 68,
          "onset": 427.5,
          "duration": 1.75,
          "velocity": 100
        },
        {
          "pitch": 54,
          "onset": 427.75,
          "duration": 0.25,
          "velocity": 100
        },
        {
          "pitch": 56,
          "onset": 428.0,
          "duration": 0.25,
          "velocity": 100
        },
        {
          "pitch": 59,
          "onset": 428.25,
          "duration": 0.25,
          "velocity": 100
        },
        {
          "pitch": 52,
          "onset": 428.5,
          "duration": 0.25,
          "velocity": 100
        },
        {
          "pitch": 62,
          "onset": 428.75,
          "duration": 0.25,
          "velocity": 100
        },
        {
          "pitch": 60,
          "onset": 429.0,
          "duration": 1.75,
          "velocity": 100
        },
        {
          "pitch": 71,
          "onset": 429.25,
          "duration": 0.25,
          "velocity": 100
        },
        {
          "pitch": 68,
          "onset": 429.5,
          "duration": 0.25,
          "velocity": 100
        },
        {
          "pitch": 64,
          "onset": 429.75,
          "duration": 0.25,
          "velocity": 100
        },
        {
          "pitch": 74,
          "onset": 430.0,
          "duration": 0.25,
          "velocity": 100
        },
        {
          "pitch": 68,
          "onset": 430.25,
          "duration": 0.25,
          "velocity": 100
        },
        {
          "pitch": 69,
          "onset": 430.5,
          "duration": 0.75,
          "velocity": 100
        },
        {
          "pitch": 59,
          "onset": 430.75,
          "duration": 0.25,
          "velocity": 100
        },
        {
          "pitch": 60,
          "onset": 431.0,
          "duration": 0.75,
          "velocity": 100
        },
        {
          "pitch": 68,
          "onset": 431.25,
          "duration": 0.25,
          "velocity": 100
        },
        {
          "pitch": 69,
          "onset": 431.5,
          "duration": 0.75,
          "velocity": 100
        },
        {
          "pitch": 60,
          "onset": 431.75,
          "duration": 0.125,
          "velocity": 100
        },
        {
          "pitch": 62,
          "onset": 431.875,
          "duration": 0.0625,
          "velocity": 100
        },
        {
          "pitch": 64,
          "onset": 431.9375,
          "duration": 0.0625,
          "velocity": 100
        },
        {
          "pitch": 65,
          "onset": 432.0,
          "duration": 0.25,
          "velocity": 100
        },
        {
          "pitch": 64,
          "onset": 432.25,
          "duration": 0.25,
          "velocity": 100
        },
        {
          "pitch": 72,
          "onset": 432.25,
          "duration": 0.25,
          "velocity": 100
        },
        {
          "pitch": 62,
          "onset": 432.5,
          "duration": 0.25,
          "velocity": 100
        },
        {
          "pitch": 77,
          "onset": 432.5,
          "duration": 0.25,
          "velocity": 100
        },
        {
          "pitch": 60,
          "onset": 432.75,
          "duration": 0.25,
          "velocity": 100
        },
        {
          "pitch": 76,
          "onset": 432.75,
          "duration": 0.25,
          "velocity": 100
        },
        {
          "pitch": 59,
          "onset": 433.0,
          "duration": 0.25,
          "velocity": 100
        },
        {
          "pitch": 74,
          "onset": 433.0,
          "duration": 0.25,
          "velocity": 100
        },
        {
          "pitch": 57,
          "onset": 433.25,
          "duration": 0.25,
          "velocity": 100
        },
        {
          "pitch": 72,
          "onset": 433.25,
          "duration": 0.25,
          "velocity": 100
        },
        {
          "pitch": 56,
          "onset": 433.5,
          "duration": 0.125,
          "velocity": 100
        },
        {
          "pitch": 71,
          "onset": 433.5,
          "duration": 0.125,
          "velocity": 100
        },
        {
          "pitch": 57,
          "onset": 433.625,
          "duration": 0.125,
          "velocity": 100
        },
        {
          "pitch": 72,
          "onset": 433.625,
          "duration": 0.125,
          "velocity": 100
        },
        {
          "pitch": 56,
          "onset": 433.75,
          "duration": 0.75,
          "velocity": 100
        },
        {
          "pitch": 71,
          "onset": 433.75,
          "duration": 0.75,
          "velocity": 100
        },
        {
          "pitch": 64,
          "onset": 435.25,
          "duration": 0.25,
          "velocity": 100
        },
        {
          "pitch": 68,
          "onset": 435.5,
          "duration": 0.25,
          "velocity": 100
        },
        {
          "pitch": 64,
          "onset": 435.75,
          "duration": 0.25,
          "velocity": 100
        },
        {
          "pitch": 71,
          "onset": 436.0,
          "duration": 0.25,
          "velocity": 100
        },
        {
          "pitch": 68,
          "onset": 436.25,
          "duration": 0.25,
          "velocity": 100
        },
        {
          "pitch": 76,
          "onset": 436.5,
          "duration": 1.0,
          "velocity": 100
        },
        {
          "pitch": 52,
          "onset": 436.75,
          "duration": 0.25,
          "velocity": 100
        },
        {
          "pitch": 56,
          "onset": 437.0,
          "duration": 0.25,
          "velocity": 100
        },
        {
          "pitch": 64,
          "onset": 437.0,
          "duration": 0.5,
          "velocity": 100
        },
        {
          "pitch": 52,
          "onset": 437.25,
          "duration": 0.25,
          "velocity": 100
        },
        {
          "pitch": 59,
          "onset": 437.5,
          "duration": 0.25,
          "velocity": 100
        },
        {
          "pitch": 68,
          "onset": 437.5,
          "duration": 0.5,
          "velocity": 100
        },
        {
          "pitch": 74,
          "onset": 437.5,
          "duration": 0.5,
          "velocity": 100
        },
        {
          "pitch": 56,
          "onset": 437.75,
          "duration": 0.25,
          "velocity": 100
        },
        {
          "pitch": 64,
          "onset": 438.0,
          "duration": 0.5,
          "velocity": 100
        },
        {
          "pitch": 69,
          "onset": 438.0,
          "duration": 0.5,
          "velocity": 100
        },
        {
          "pitch": 72,
          "onset": 438.0,
          "duration": 0.5,
          "velocity": 100
        },
        {
          "pitch": 57,
          "onset": 438.25,
          "duration": 0.25,
          "velocity": 100
        },
        {
          "pitch": 60,
          "onset": 438.5,
          "duration": 0.25,
          "velocity": 100
        },
        {
          "pitch": 72,
          "onset": 438.5,
          "duration": 0.5,
          "velocity": 100
        },
        {
          "pitch": 76,
          "onset": 438.5,
          "duration": 0.5,
          "velocity": 100
        },
        {
          "pitch": 81,
          "onset": 438.5,
          "duration": 0.5,
          "velocity": 100
        },
        {
          "pitch": 57,
          "onset": 438.75,
          "duration": 0.25,
          "velocity": 100
        },
        {
          "pitch": 64,
          "onset": 439.0,
          "duration": 0.25,
          "velocity": 100
        },
        {
          "pitch": 71,
          "onset": 439.0,
          "duration": 0.5,
          "velocity": 100
        },
        {
          "pitch": 74,
          "onset": 439.0,
          "duration": 0.5,
          "velocity": 100
        },
        {
          "pitch": 76,
          "onset": 439.0,
          "duration": 0.5,
          "velocity": 100
        },
        {
          "pitch": 80,
          "onset": 439.0,
          "duration": 0.5,
          "velocity": 100
        },
        {
          "pitch": 52,
          "onset": 439.25,
          "duration": 0.25,
          "velocity": 100
        },
        {
          "pitch": 57,
          "onset": 439.5,
          "duration": 1.0,
          "velocity": 100
        },
        {
          "pitch": 69,
          "onset": 439.5,
          "duration": 1.0,
          "velocity": 100
        },
        {
          "pitch": 73,
          "onset": 439.5,
          "duration": 1.0,
          "velocity": 100
        },
        {
          "pitch": 76,
          "onset": 439.5,
          "duration": 1.0,
          "velocity": 100
        },
        {
          "pitch": 81,
          "onset": 439.5,
          "duration": 1.0,
          "velocity": 100
        },
        {
          "pitch": 69,
          "onset": 441.25,
          "duration": 0.25,
          "velocity": 100
        },
        {
          "pitch": 73,
          "onset": 441.5,
          "duration": 0.25,
          "velocity": 100
        },
        {
          "pitch": 69,
          "onset": 441.75,
          "duration": 0.25,
          "velocity": 100
        },
        {
          "pitch": 76,
          "onset": 442.0,
          "duration": 0.25,
          "velocity": 100
        },
        {
          "pitch": 73,
          "onset": 442.25,
          "duration": 0.25,
          "velocity": 100
        },
        {
          "pitch": 81,
          "onset": 442.5,
          "duration": 1.0,
          "velocity": 100
        },
        {
          "pitch": 57,
          "onset": 442.75,
          "duration": 0.25,
          "velocity": 100
        },
        {
          "pitch": 61,
          "onset": 443.0,
          "duration": 0.25,
          "velocity": 100
        },
        {
          "pitch": 69,
          "onset": 443.0,
          "duration": 0.5,
          "velocity": 100
        },
        {
          "pitch": 57,
          "onset": 443.25,
          "duration": 0.25,
          "velocity": 100
        },
        {
          "pitch": 64,
          "onset": 443.5,
          "duration": 0.25,
          "velocity": 100
        },
        {
          "pitch": 73,
          "onset": 443.5,
          "duration": 0.5,
          "velocity": 100
        },
        {
          "pitch": 79,
          "onset": 443.5,
          "duration": 0.5,
          "velocity": 100
        },
        {
          "pitch": 61,
          "onset": 443.75,
          "duration": 0.25,
          "velocity": 100
        },
        {
          "pitch": 69,
          "onset": 444.0,
          "duration": 0.5,
          "velocity": 100
        },
        {
          "pitch": 74,
          "onset": 444.0,
          "duration": 0.5,
          "velocity": 100
        },
        {
          "pitch": 77,
          "onset": 444.0,
          "duration": 0.5,
          "velocity": 100
        },
        {
          "pitch": 50,
          "onset": 444.25,
          "duration": 0.25,
          "velocity": 100
        },
        {
          "pitch": 53,
          "onset": 444.5,
          "duration": 0.25,
          "velocity": 100
        },
        {
          "pitch": 65,
          "onset": 444.5,
          "duration": 0.5,
          "velocity": 100
        },
        {
          "pitch": 69,
          "onset": 444.5,
          "duration": 0.5,
          "velocity": 100
        },
        {
          "pitch": 74,
          "onset": 444.5,
          "duration": 0.5,
          "velocity": 100
        },
        {
          "pitch": 50,
          "onset": 444.75,
          "duration": 0.25,
          "velocity": 100
        },
        {
          "pitch": 57,
          "onset": 445.0,
          "duration": 0.25,
          "velocity": 100
        },
        {
          "pitch": 64,
          "onset": 445.0,
          "duration": 0.5,
          "velocity": 100
        },
        {
          "pitch": 67,
          "onset": 445.0,
          "duration": 0.5,
          "velocity": 100
        },
        {
          "pitch": 69,
          "onset": 445.0,
          "duration": 0.5,
          "velocity": 100
        },
        {
          "pitch": 73,
          "onset": 445.0,
          "duration": 0.5,
          "velocity": 100
        },
        {
          "pitch": 45,
          "onset": 445.25,
          "duration": 0.25,
          "velocity": 100
        },
        {
          "pitch": 50,
          "onset": 445.5,
          "duration": 1.0,
          "velocity": 100
        },
        {
          "pitch": 62,
          "onset": 445.5,
          "duration": 1.0,
          "velocity": 100
        },
        {
          "pitch": 66,
          "onset": 445.5,
          "duration": 1.0,
          "velocity": 100
        },
        {
          "pitch": 69,
          "onset": 445.5,
          "duration": 1.0,
          "velocity": 100
        },
        {
          "pitch": 74,
          "onset": 445.5,
          "duration": 1.0,
          "velocity": 100
        },
        {
          "pitch": 62,
          "onset": 447.25,
          "duration": 0.25,
          "velocity": 100
        },
        {
          "pitch": 66,
          "onset": 447.5,
          "duration": 0.25,
          "velocity": 100
        },
        {
          "pitch": 62,
          "onset": 447.75,
          "duration": 0.25,
          "velocity": 100
        },
        {
          "pitch": 69,
          "onset": 448.0,
          "duration": 0.25,
          "velocity": 100
        },
        {
          "pitch": 66,
          "onset": 448.25,
          "duration": 0.25,
          "velocity": 100
        },
        {
          "pitch": 74,
          "onset": 448.5,
          "duration": 1.0,
          "velocity": 100
        },
        {
          "pitch": 50,
          "onset": 448.75,
          "duration": 0.25,
          "velocity": 100
        },
        {
          "pitch": 54,
          "onset": 449.0,
          "duration": 0.25,
          "velocity": 100
        },
        {
          "pitch": 62,
          "onset": 449.0,
          "duration": 0.5,
          "velocity": 100
        },
        {
          "pitch": 50,
          "onset": 449.25,
          "duration": 0.25,
          "velocity": 100
        },
        {
          "pitch": 57,
          "onset": 449.5,
          "duration": 0.25,
          "velocity": 100
        },
        {
          "pitch": 66,
          "onset": 449.5,
          "duration": 0.5,
          "velocity": 100
        },
        {
          "pitch": 72,
          "onset": 449.5,
          "duration": 0.5,
          "velocity": 100
        },
        {
          "pitch": 54,
          "onset": 449.75,
          "duration": 0.25,
          "velocity": 100
        },
        {
          "pitch": 62,
          "onset": 450.0,
          "duration": 0.5,
          "velocity": 100
        },
        {
          "pitch": 67,
          "onset": 450.0,
          "duration": 0.5,
          "velocity": 100
        },
        {
          "pitch": 70,
          "onset": 450.0,
          "duration": 0.5,
          "velocity": 100
        },
        {
          "pitch": 55,
          "onset": 450.25,
          "duration": 0.25,
          "velocity": 100
        },
        {
          "pitch": 58,
          "onset": 450.5,
          "duration": 0.25,
          "velocity": 100
        },
        {
          "pitch": 70,
          "onset": 450.5,
          "duration": 0.5,
          "velocity": 100
        },
        {
          "pitch": 74,
          "onset": 450.5,
          "duration": 0.5,
          "velocity": 100
        },
        {
          "pitch": 79,
          "onset": 450.5,
          "duration": 0.5,
          "velocity": 100
        },
        {
          "pitch": 55,
          "onset": 450.75,
          "duration": 0.25,
          "velocity": 100
        },
        {
          "pitch": 62,
          "onset": 451.0,
          "duration": 0.25,
          "velocity": 100
        },
        {
          "pitch": 69,
          "onset": 451.0,
          "duration": 0.5,
          "velocity": 100
        },
        {
          "pitch": 72,
          "onset": 451.0,
          "duration": 0.5,
          "velocity": 100
        },
        {
          "pitch": 74,
          "onset": 451.0,
          "duration": 0.5,
          "velocity": 100
        },
        {
          "pitch": 78,
          "onset": 451.0,
          "duration": 0.5,
          "velocity": 100
        },
        {
          "pitch": 50,
          "onset": 451.25,
          "duration": 0.25,
          "velocity": 100
        },
        {
          "pitch": 55,
          "onset": 451.5,
          "duration": 1.0,
          "velocity": 100
        },
        {
          "pitch": 67,
          "onset": 451.5,
          "duration": 1.0,
          "velocity": 100
        },
        {
          "pitch": 71,
          "onset": 451.5,
          "duration": 1.0,
          "velocity": 100
        },
        {
          "pitch": 74,
          "onset": 451.5,
          "duration": 1.0,
          "velocity": 100
        },
        {
          "pitch": 79,
          "onset": 451.5,
          "duration": 1.0,
          "velocity": 100
        },
        {
          "pitch": 67,
          "onset": 453.25,
          "duration": 0.25,
          "velocity": 100
        },
        {
          "pitch": 71,
          "onset": 453.5,
          "duration": 0.25,
          "velocity": 100
        },
        {
          "pitch": 67,
          "onset": 453.75,
          "duration": 0.25,
          "velocity": 100
        },
        {
          "pitch": 74,
          "onset": 454.0,
          "duration": 0.25,
          "velocity": 100
        },
        {
          "pitch": 71,
          "onset": 454.25,
          "duration": 0.25,
          "velocity": 100
        },
        {
          "pitch": 79,
          "onset": 454.5,
          "duration": 1.0,
          "velocity": 100
        },
        {
          "pitch": 55,
          "onset": 454.75,
          "duration": 0.25,
          "velocity": 100
        },
        {
          "pitch": 59,
          "onset": 455.0,
          "duration": 0.25,
          "velocity": 100
        },
        {
          "pitch": 67,
          "onset": 455.0,
          "duration": 0.5,
          "velocity": 100
        },
        {
          "pitch": 55,
          "onset": 455.25,
          "duration": 0.25,
          "velocity": 100
        },
        {
          "pitch": 62,
          "onset": 455.5,
          "duration": 0.25,
          "velocity": 100
        },
        {
          "pitch": 71,
          "onset": 455.5,
          "duration": 0.5,
          "velocity": 100
        },
        {
          "pitch": 77,
          "onset": 455.5,
          "duration": 0.5,
          "velocity": 100
        },
        {
          "pitch": 59,
          "onset": 455.75,
          "duration": 0.25,
          "velocity": 100
        },
        {
          "pitch": 67,
          "onset": 456.0,
          "duration": 0.5,
          "velocity": 100
        },
        {
          "pitch": 72,
          "onset": 456.0,
          "duration": 0.5,
          "velocity": 100
        },
        {
          "pitch": 75,
          "onset": 456.0,
          "duration": 0.5,
          "velocity": 100
        },
        {
          "pitch": 48,
          "onset": 456.25,
          "duration": 0.25,
          "velocity": 100
        },
        {
          "pitch": 51,
          "onset": 456.5,
          "duration": 0.25,
          "velocity": 100
        },
        {
          "pitch": 63,
          "onset": 456.5,
          "duration": 0.5,
          "velocity": 100
        },
        {
          "pitch": 67,
          "onset": 456.5,
          "duration": 0.5,
          "velocity": 100
        },
        {
          "pitch": 72,
          "onset": 456.5,
          "duration": 0.5,
          "velocity": 100
        },
        {
          "pitch": 48,
          "onset": 456.75,
          "duration": 0.25,
          "velocity": 100
        },
        {
          "pitch": 55,
          "onset": 457.0,
          "duration": 0.25,
          "velocity": 100
        },
        {
          "pitch": 62,
          "onset": 457.0,
          "duration": 0.5,
          "velocity": 100
        },
        {
          "pitch": 65,
          "onset": 457.0,
          "duration": 0.5,
          "velocity": 100
        },
        {
          "pitch": 67,
          "onset": 457.0,
          "duration": 0.5,
          "velocity": 100
        },
        {
          "pitch": 71,
          "onset": 457.0,
          "duration": 0.5,
          "velocity": 100
        },
        {
          "pitch": 43,
          "onset": 457.25,
          "duration": 0.25,
          "velocity": 100
        },
        {
          "pitch": 48,
          "onset": 457.5,
          "duration": 1.0,
          "velocity": 100
        },
        {
          "pitch": 60,
          "onset": 457.5,
          "duration": 1.0,
          "velocity": 100
        },
        {
          "pitch": 63,
          "onset": 457.5,
          "duration": 1.0,
          "velocity": 100
        },
        {
          "pitch": 67,
          "onset": 457.5,
          "duration": 1.0,
          "velocity": 100
        },
        {
          "pitch": 72,
          "onset": 457.5,
          "duration": 1.0,
          "velocity": 100
        },
        {
          "pitch": 72,
          "onset": 459.25,
          "duration": 0.25,
          "velocity": 100
        },
        {
          "pitch": 75,
          "onset": 459.5,
          "duration": 0.25,
          "velocity": 100
        },
        {
          "pitch": 72,
          "onset": 459.75,
          "duration": 0.25,
          "velocity": 100
        },
        {
          "pitch": 79,
          "onset": 460.0,
          "duration": 0.25,
          "velocity": 100
        },
        {
          "pitch": 75,
          "onset": 460.25,
          "duration": 0.25,
          "velocity": 100
        },
        {
          "pitch": 84,
          "onset": 460.5,
          "duration": 1.0,
          "velocity": 100
        },
        {
          "pitch": 60,
          "onset": 460.75,
          "duration": 0.25,
          "velocity": 100
        },
        {
          "pitch": 63,
          "onset": 461.0,
          "duration": 0.25,
          "velocity": 100
        },
        {
          "pitch": 72,
          "onset": 461.0,
          "duration": 0.5,
          "velocity": 100
        },
        {
          "pitch": 60,
          "onset": 461.25,
          "duration": 0.25,
          "velocity": 100
        },
        {
          "pitch": 67,
          "onset": 461.5,
          "duration": 0.25,
          "velocity": 100
        },
        {
          "pitch": 75,
          "onset": 461.5,
          "duration": 0.5,
          "velocity": 100
        },
        {
          "pitch": 82,
          "onset": 461.5,
          "duration": 0.5,
          "velocity": 100
        },
        {
          "pitch": 63,
          "onset": 461.75,
          "duration": 0.25,
          "velocity": 100
        },
        {
          "pitch": 72,
          "onset": 462.0,
          "duration": 1.0,
          "velocity": 100
        },
        {
          "pitch": 75,
          "onset": 462.0,
          "duration": 1.0,
          "velocity": 100
        },
        {
          "pitch": 81,
          "onset": 462.0,
          "duration": 1.0,
          "velocity": 100
        },
        {
          "pitch": 69,
          "onset": 462.25,
          "duration": 0.25,
          "velocity": 100
        },
        {
          "pitch": 66,
          "onset": 462.5,
          "duration": 0.25,
          "velocity": 100
        },
        {
          "pitch": 69,
          "onset": 462.75,
          "duration": 0.25,
          "velocity": 100
        },
        {
          "pitch": 62,
          "onset": 463.0,
          "duration": 0.25,
          "velocity": 100
        },
        {
          "pitch": 70,
          "onset": 463.0,
          "duration": 0.5,
          "velocity": 100
        },
        {
          "pitch": 74,
          "onset": 463.0,
          "duration": 0.5,
          "velocity": 100
        },
        {
          "pitch": 79,
          "onset": 463.0,
          "duration": 0.5,
          "velocity": 100
        },
        {
          "pitch": 67,
          "onset": 463.25,
          "duration": 0.25,
          "velocity": 100
        },
        {
          "pitch": 63,
          "onset": 463.5,
          "duration": 0.25,
          "velocity": 100
        },
        {
          "pitch": 72,
          "onset": 463.5,
          "duration": 0.5,
          "velocity": 100
        },
        {
          "pitch": 75,
          "onset": 463.5,
          "duration": 0.5,
          "velocity": 100
        },
        {
          "pitch": 80,
          "onset": 463.5,
          "duration": 0.5,
          "velocity": 100
        },
        {
          "pitch": 68,
          "onset": 463.75,
          "duration": 0.25,
          "velocity": 100
        },
        {
          "pitch": 60,
          "onset": 464.0,
          "duration": 0.25,
          "velocity": 100
        },
        {
          "pitch": 69,
          "onset": 464.0,
          "duration": 0.5,
          "velocity": 100
        },
        {
          "pitch": 78,
          "onset": 464.0,
          "duration": 0.5,
          "velocity": 100
        },
        {
          "pitch": 63,
          "onset": 464.25,
          "duration": 0.25,
          "velocity": 100
        },
        {
          "pitch": 55,
          "onset": 464.5,
          "duration": 0.25,
          "velocity": 100
        },
        {
          "pitch": 70,
          "onset": 464.5,
          "duration": 0.5,
          "velocity": 100
        },
        {
          "pitch": 76,
          "onset": 464.5,
          "duration": 0.5,
          "velocity": 100
        },
        {
          "pitch": 79,
          "onset": 464.5,
          "duration": 0.5,
          "velocity": 100
        },
        {
          "pitch": 58,
          "onset": 464.75,
          "duration": 0.25,
          "velocity": 100
        },
        {
          "pitch": 55,
          "onset": 465.5,
          "duration": 0.25,
          "velocity": 100
        },
        {
          "pitch": 62,
          "onset": 465.5,
          "duration": 0.25,
          "velocity": 100
        },
        {
          "pitch": 70,
          "onset": 465.5,
          "duration": 0.25,
          "velocity": 100
        },
        {
          "pitch": 74,
          "onset": 465.5,
          "duration": 0.25,
          "velocity": 100
        },
        {
          "pitch": 79,
          "onset": 465.5,
          "duration": 0.25,
          "velocity": 100
        },
        {
          "pitch": 57,
          "onset": 466.0,
          "duration": 0.5,
          "velocity": 100
        },
        {
          "pitch": 60,
          "onset": 466.0,
          "duration": 0.5,
          "velocity": 100
        },
        {
          "pitch": 62,
          "onset": 466.0,
          "duration": 0.5,
          "velocity": 100
        },
        {
          "pitch": 69,
          "onset": 466.0,
          "duration": 0.5,
          "velocity": 100
        },
        {
          "pitch": 74,
          "onset": 466.0,
          "duration": 0.5,
          "velocity": 100
        },
        {
          "pitch": 78,
          "onset": 466.0,
          "duration": 0.5,
          "velocity": 100
        },
        {
          "pitch": 58,
          "onset": 467.0,
          "duration": 0.25,
          "velocity": 100
        },
        {
          "pitch": 67,
          "onset": 467.0,
          "duration": 0.25,
          "velocity": 100
        },
        {
          "pitch": 74,
          "onset": 467.0,
          "duration": 0.25,
          "velocity": 100
        },
        {
          "pitch": 79,
          "onset": 467.0,
          "duration": 0.25,
          "velocity": 100
        },
        {
          "pitch": 82,
          "onset": 467.0,
          "duration": 0.25,
          "velocity": 100
        },
        {
          "pitch": 60,
          "onset": 467.5,
          "duration": 0.5,
          "velocity": 100
        },
        {
          "pitch": 62,
          "onset": 467.5,
          "duration": 0.5,
          "velocity": 100
        },
        {
          "pitch": 69,
          "onset": 467.5,
          "duration": 0.5,
          "velocity": 100
        },
        {
          "pitch": 74,
          "onset": 467.5,
          "duration": 0.5,
          "velocity": 100
        },
        {
          "pitch": 78,
          "onset": 467.5,
          "duration": 0.5,
          "velocity": 100
        },
        {
          "pitch": 81,
          "onset": 467.5,
          "duration": 0.5,
          "velocity": 100
        },
        {
          "pitch": 58,
          "onset": 468.5,
          "duration": 0.25,
          "velocity": 100
        },
        {
          "pitch": 62,
          "onset": 468.5,
          "duration": 0.25,
          "velocity": 100
        },
        {
          "pitch": 67,
          "onset": 468.5,
          "duration": 0.25,
          "velocity": 100
        },
        {
          "pitch": 74,
          "onset": 468.5,
          "duration": 0.25,
          "velocity": 100
        },
        {
          "pitch": 57,
          "onset": 469.0,
          "duration": 0.5,
          "velocity": 100
        },
        {
          "pitch": 62,
          "onset": 469.0,
          "duration": 0.5,
          "velocity": 100
        },
        {
          "pitch": 66,
          "onset": 469.0,
          "duration": 0.5,
          "velocity": 100
        },
        {
          "pitch": 72,
          "onset": 469.0,
          "duration": 0.5,
          "velocity": 100
        },
        {
          "pitch": 55,
          "onset": 470.0,
          "duration": 0.25,
          "velocity": 100
        },
        {
          "pitch": 62,
          "onset": 470.0,
          "duration": 0.25,
          "velocity": 100
        },
        {
          "pitch": 67,
          "onset": 470.0,
          "duration": 0.25,
          "velocity": 100
        },
        {
          "pitch": 70,
          "onset": 470.0,
          "duration": 0.25,
          "velocity": 100
        },
        {
          "pitch": 53,
          "onset": 470.5,
          "duration": 0.5,
          "velocity": 100
        },
        {
          "pitch": 62,
          "onset": 470.5,
          "duration": 0.5,
          "velocity": 100
        },
        {
          "pitch": 69,
          "onset": 470.5,
          "duration": 0.5,
          "velocity": 100
        },
        {
          "pitch": 51,
          "onset": 471.5,
          "duration": 0.25,
          "velocity": 100
        },
        {
          "pitch": 60,
          "onset": 471.5,
          "duration": 0.25,
          "velocity": 100
        },
        {
          "pitch": 75,
          "onset": 471.5,
          "duration": 0.25,
          "velocity": 100
        },
        {
          "pitch": 79,
          "onset": 471.5,
          "duration": 0.25,
          "velocity": 100
        },
        {
          "pitch": 84,
          "onset": 471.5,
          "duration": 0.25,
          "velocity": 100
        },
        {
          "pitch": 50,
          "onset": 472.0,
          "duration": 0.5,
          "velocity": 100
        },
        {
          "pitch": 58,
          "onset": 472.0,
          "duration": 0.5,
          "velocity": 100
        },
        {
          "pitch": 62,
          "onset": 472.0,
          "duration": 0.5,
          "velocity": 100
        },
        {
          "pitch": 70,
          "onset": 472.0,
          "duration": 0.5,
          "velocity": 100
        },
        {
          "pitch": 77,
          "onset": 472.0,
          "duration": 0.5,
          "velocity": 100
        },
        {
          "pitch": 82,
          "onset": 472.0,
          "duration": 0.5,
          "velocity": 100
        },
        {
          "pitch": 60,
          "onset": 473.0,
          "duration": 0.25,
          "velocity": 100
        },
        {
          "pitch": 69,
          "onset": 473.0,
          "duration": 0.25,
          "velocity": 100
        },
        {
          "pitch": 72,
          "onset": 473.0,
          "duration": 0.25,
          "velocity": 100
        },
        {
          "pitch": 75,
          "onset": 473.0,
          "duration": 0.25,
          "velocity": 100
        },
        {
          "pitch": 81,
          "onset": 473.0,
          "duration": 0.25,
          "velocity": 100
        },
        {
          "pitch": 49,
          "onset": 473.5,
          "duration": 0.5,
          "velocity": 100
        },
        {
          "pitch": 55,
          "onset": 473.5,
          "duration": 0.5,
          "velocity": 100
        },
        {
          "pitch": 70,
          "onset": 473.5,
          "duration": 0.5,
          "velocity": 100
        },
        {
          "pitch": 76,
          "onset": 473.5,
          "duration": 0.5,
          "velocity": 100
        },
        {
          "pitch": 79,
          "onset": 473.5,
          "duration": 0.5,
          "velocity": 100
        },
        {
          "pitch": 50,
          "onset": 474.5,
          "duration": 0.25,
          "velocity": 100
        },
        {
          "pitch": 67,
          "onset": 474.5,
          "duration": 0.25,
          "velocity": 100
        },
        {
          "pitch": 70,
          "onset": 474.5,
          "duration": 0.25,
          "velocity": 100
        },
        {
          "pitch": 74,
          "onset": 474.5,
          "duration": 0.25,
          "velocity": 100
        },
        {
          "pitch": 79,
          "onset": 474.5,
          "duration": 0.25,
          "velocity": 100
        },
        {
          "pitch": 62,
          "onset": 475.0,
          "duration": 0.5,
          "velocity": 100
        },
        {
          "pitch": 69,
          "onset": 475.0,
          "duration": 0.5,
          "velocity": 100
        },
        {
          "pitch": 72,
          "onset": 475.0,
          "duration": 0.5,
          "velocity": 100
        },
        {
          "pitch": 74,
          "onset": 475.0,
          "duration": 0.5,
          "velocity": 100
        },
        {
          "pitch": 78,
          "onset": 475.0,
          "duration": 0.5,
          "velocity": 100
        },
        {
          "pitch": 67,
          "onset": 475.5,
          "duration": 1.0,
          "velocity": 100
        },
        {
          "pitch": 70,
          "onset": 475.5,
          "duration": 1.0,
          "velocity": 100
        },
        {
          "pitch": 75,
          "onset": 475.5,
          "duration": 1.0,
          "velocity": 100
        },
        {
          "pitch": 79,
          "onset": 475.5,
          "duration": 1.0,
          "velocity": 100
        },
        {
          "pitch": 51,
          "onset": 475.75,
          "duration": 0.25,
          "velocity": 100
        },
        {
          "pitch": 55,
          "onset": 476.0,
          "duration": 0.25,
          "velocity": 100
        },
        {
          "pitch": 51,
          "onset": 476.25,
          "duration": 0.25,
          "velocity": 100
        },
        {
          "pitch": 58,
          "onset": 476.5,
          "duration": 0.25,
          "velocity": 100
        },
        {
          "pitch": 55,
          "onset": 476.75,
          "duration": 0.25,
          "velocity": 100
        },
        {
          "pitch": 63,
          "onset": 477.0,
          "duration": 1.0,
          "velocity": 100
        },
        {
          "pitch": 68,
          "onset": 477.25,
          "duration": 0.25,
          "velocity": 100
        },
        {
          "pitch": 72,
          "onset": 477.5,
          "duration": 0.25,
          "velocity": 100
        },
        {
          "pitch": 68,
          "onset": 477.75,
          "duration": 0.25,
          "velocity": 100
        },
        {
          "pitch": 75,
          "onset": 478.0,
          "duration": 0.25,
          "velocity": 100
        },
        {
          "pitch": 72,
          "onset": 478.25,
          "duration": 1.25,
          "velocity": 100
        },
        {
          "pitch": 77,
          "onset": 478.5,
          "duration": 1.0,
          "velocity": 100
        },
        {
          "pitch": 81,
          "onset": 478.5,
          "duration": 1.0,
          "velocity": 100
        },
        {
          "pitch": 53,
          "onset": 478.75,
          "duration": 0.25,
          "velocity": 100
        },
        {
          "pitch": 57,
          "onset": 479.0,
          "duration": 0.25,
          "velocity": 100
        },
        {
          "pitch": 53,
          "onset": 479.25,
          "duration": 0.25,
          "velocity": 100
        },
        {
          "pitch": 60,
          "onset": 479.5,
          "duration": 0.25,
          "velocity": 100
        },
        {
          "pitch": 57,
          "onset": 479.75,
          "duration": 0.25,
          "velocity": 100
        },
        {
          "pitch": 65,
          "onset": 480.0,
          "duration": 1.0,
          "velocity": 100
        },
        {
          "pitch": 70,
          "onset": 480.25,
          "duration": 0.25,
          "velocity": 100
        },
        {
          "pitch": 74,
          "onset": 480.5,
          "duration": 0.25,
          "velocity": 100
        },
        {
          "pitch": 70,
          "onset": 480.75,
          "duration": 0.25,
          "velocity": 100
        },
        {
          "pitch": 77,
          "onset": 481.0,
          "duration": 0.25,
          "velocity": 100
        },
        {
          "pitch": 74,
          "onset": 481.25,
          "duration": 1.25,
          "velocity": 100
        },
        {
          "pitch": 79,
          "onset": 481.5,
          "duration": 1.0,
          "velocity": 100
        },
        {
          "pitch": 83,
          "onset": 481.5,
          "duration": 1.0,
          "velocity": 100
        },
        {
          "pitch": 55,
          "onset": 481.75,
          "duration": 0.25,
          "velocity": 100
        },
        {
          "pitch": 59,
          "onset": 482.0,
          "duration": 0.25,
          "velocity": 100
        },
        {
          "pitch": 55,
          "onset": 482.25,
          "duration": 0.25,
          "velocity": 100
        },
        {
          "pitch": 62,
          "onset": 482.5,
          "duration": 0.25,
          "velocity": 100
        },
        {
          "pitch": 59,
          "onset": 482.75,
          "duration": 0.25,
          "velocity": 100
        },
        {
          "pitch": 67,
          "onset": 483.0,
          "duration": 1.0,
          "velocity": 100
        },
        {
          "pitch": 72,
          "onset": 483.25,
          "duration": 0.25,
          "velocity": 100
        },
        {
          "pitch": 75,
          "onset": 483.5,
          "duration": 0.25,
          "velocity": 100
        },
        {
          "pitch": 72,
          "onset": 483.75,
          "duration": 0.25,
          "velocity": 100
        },
        {
          "pitch": 79,
          "onset": 484.0,
          "duration": 0.25,
          "velocity": 100
        },
        {
          "pitch": 75,
          "onset": 484.25,
          "duration": 0.25,
          "velocity": 100
        },
        {
          "pitch": 60,
          "onset": 484.5,
          "duration": 1.0,
          "velocity": 100
        },
        {
          "pitch": 63,
          "onset": 484.5,
          "duration": 1.0,
          "velocity": 100
        },
        {
          "pitch": 68,
          "onset": 484.5,
          "duration": 1.0,
          "velocity": 100
        },
        {
          "pitch": 84,
          "onset": 484.5,
          "duration": 0.25,
          "velocity": 100
        },
        {
          "pitch": 82,
          "onset": 484.75,
          "duration": 0.25,
          "velocity": 100
        },
        {
          "pitch": 84,
          "onset": 485.0,
          "duration": 0.25,
          "velocity": 100
        },
        {
          "pitch": 79,
          "onset": 485.25,
          "duration": 0.25,
          "velocity": 100
        },
        {
          "pitch": 80,
          "onset": 485.5,
          "duration": 0.25,
          "velocity": 100
        },
        {
          "pitch": 75,
          "onset": 485.75,
          "duration": 0.25,
          "velocity": 100
        },
        {
          "pitch": 60,
          "onset": 486.0,
          "duration": 1.0,
          "velocity": 100
        },
        {
          "pitch": 63,
          "onset": 486.0,
          "duration": 1.0,
          "velocity": 100
        },
        {
          "pitch": 68,
          "onset": 486.0,
          "duration": 1.0,
          "velocity": 100
        },
        {
          "pitch": 72,
          "onset": 486.0,
          "duration": 0.25,
          "velocity": 100
        },
        {
          "pitch": 70,
          "onset": 486.25,
          "duration": 0.25,
          "velocity": 100
        },
        {
          "pitch": 72,
          "onset": 486.5,
          "duration": 0.25,
          "velocity": 100
        },
        {
          "pitch": 67,
          "onset": 486.75,
          "duration": 0.25,
          "velocity": 100
        },
        {
          "pitch": 68,
          "onset": 487.0,
          "duration": 0.25,
          "velocity": 100
        },
        {
          "pitch": 63,
          "onset": 487.25,
          "duration": 1.25,
          "velocity": 100
        },
        {
          "pitch": 60,
          "onset": 487.5,
          "duration": 0.25,
          "velocity": 100
        },
        {
          "pitch": 68,
          "onset": 487.5,
          "duration": 1.0,
          "velocity": 100
        },
        {
          "pitch": 72,
          "onset": 487.5,
          "duration": 1.0,
          "velocity": 100
        },
        {
          "pitch": 75,
          "onset": 487.5,
          "duration": 1.0,
          "velocity": 100
        },
        {
          "pitch": 58,
          "onset": 487.75,
          "duration": 0.25,
          "velocity": 100
        },
        {
          "pitch": 60,
          "onset": 488.0,
          "duration": 0.25,
          "velocity": 100
        },
        {
          "pitch": 55,
          "onset": 488.25,
          "duration": 0.25,
          "velocity": 100
        },
        {
          "pitch": 56,
          "onset": 488.5,
          "duration": 0.25,
          "velocity": 100
        },
        {
          "pitch": 51,
          "onset": 488.75,
          "duration": 1.25,
          "velocity": 100
        },
        {
          "pitch": 60,
          "onset": 489.0,
          "duration": 1.0,
          "velocity": 100
        },
        {
          "pitch": 69,
          "onset": 489.0,
          "duration": 1.0,
          "velocity": 100
        },
        {
          "pitch": 75,
          "onset": 489.0,
          "duration": 1.0,
          "velocity": 100
        },
        {
          "pitch": 78,
          "onset": 489.0,
          "duration": 1.0,
          "velocity": 100
        },
        {
          "pitch": 50,
          "onset": 490.5,
          "duration": 1.0,
          "velocity": 100
        },
        {
          "pitch": 57,
          "onset": 490.5,
          "duration": 1.0,
          "velocity": 100
        },
        {
          "pitch": 72,
          "onset": 490.5,
          "duration": 1.0,
          "velocity": 100
        },
        {
          "pitch": 74,
          "onset": 490.5,
          "duration": 1.0,
          "velocity": 100
        },
        {
          "pitch": 81,
          "onset": 490.5,
          "duration": 1.0,
          "velocity": 100
        },
        {
          "pitch": 50,
          "onset": 492.0,
          "duration": 1.0,
          "velocity": 100
        },
        {
          "pitch": 62,
          "onset": 492.0,
          "duration": 1.0,
          "velocity": 100
        },
        {
          "pitch": 69,
          "onset": 492.0,
          "duration": 1.0,
          "velocity": 100
        },
        {
          "pitch": 74,
          "onset": 492.0,
          "duration": 1.0,
          "velocity": 100
        },
        {
          "pitch": 78,
          "onset": 492.0,
          "duration": 1.0,
          "velocity": 100
        },
        {
          "pitch": 50,
          "onset": 493.5,
          "duration": 1.0,
          "velocity": 100
        },
        {
          "pitch": 62,
          "onset": 493.5,
          "duration": 1.0,
          "velocity": 100
        },
        {
          "pitch": 66,
          "onset": 493.5,
          "duration": 1.0,
          "velocity": 100
        },
        {
          "pitch": 69,
          "onset": 493.5,
          "duration": 1.0,
          "velocity": 100
        },
        {
          "pitch": 74,
          "onset": 493.5,
          "duration": 1.0,
          "velocity": 100
        },
        {
          "pitch": 70,
          "onset": 495.5,
          "duration": 0.5,
          "velocity": 100
        },
        {
          "pitch": 74,
          "onset": 495.5,
          "duration": 0.5,
          "velocity": 100
        },
        {
          "pitch": 79,
          "onset": 495.5,
          "duration": 0.5,
          "velocity": 100
        },
        {
          "pitch": 69,
          "onset": 496.0,
          "duration": 0.5,
          "velocity": 100
        },
        {
          "pitch": 74,
          "onset": 496.0,
          "duration": 0.5,
          "velocity": 100
        },
        {
          "pitch": 78,
          "onset": 496.0,
          "duration": 0.5,
          "velocity": 100
        },
        {
          "pitch": 70,
          "onset": 496.5,
          "duration": 0.5,
          "velocity": 100
        },
        {
          "pitch": 74,
          "onset": 496.5,
          "duration": 0.5,
          "velocity": 100
        },
        {
          "pitch": 79,
          "onset": 496.5,
          "duration": 0.5,
          "velocity": 100
        },
        {
          "pitch": 78,
          "onset": 496.75,
          "duration": 0.25,
          "velocity": 100
        },
        {
          "pitch": 58,
          "onset": 497.0,
          "duration": 0.5,
          "velocity": 100
        },
        {
          "pitch": 62,
          "onset": 497.0,
          "duration": 0.5,
          "velocity": 100
        },
        {
          "pitch": 67,
          "onset": 497.0,
          "duration": 0.5,
          "velocity": 100
        },
        {
          "pitch": 79,
          "onset": 497.0,
          "duration": 0.25,
          "velocity": 100
        },
        {
          "pitch": 74,
          "onset": 497.25,
          "duration": 0.25,
          "velocity": 100
        },
        {
          "pitch": 57,
          "onset": 497.5,
          "duration": 0.5,
          "velocity": 100
        },
        {
          "pitch": 62,
          "onset": 497.5,
          "duration": 0.5,
          "velocity": 100
        },
        {
          "pitch": 66,
          "onset": 497.5,
          "duration": 0.5,
          "velocity": 100
        },
        {
          "pitch": 81,
          "onset": 497.5,
          "duration": 0.25,
          "velocity": 100
        },
        {
          "pitch": 72,
          "onset": 497.75,
          "duration": 0.25,
          "velocity": 100
        },
        {
          "pitch": 55,
          "onset": 498.0,
          "duration": 0.5,
          "velocity": 100
        },
        {
          "pitch": 62,
          "onset": 498.0,
          "duration": 1.0,
          "velocity": 100
        },
        {
          "pitch": 67,
          "onset": 498.0,
          "duration": 1.0,
          "velocity": 100
        },
        {
          "pitch": 70,
          "onset": 498.0,
          "duration": 0.5,
          "velocity": 100
        },
        {
          "pitch": 74,
          "onset": 498.5,
          "duration": 0.5,
          "velocity": 100
        },
        {
          "pitch": 62,
          "onset": 499.0,
          "duration": 0.5,
          "velocity": 100
        },
        {
          "pitch": 67,
          "onset": 499.0,
          "duration": 0.5,
          "velocity": 100
        },
        {
          "pitch": 79,
          "onset": 499.0,
          "duration": 1.0,
          "velocity": 100
        },
        {
          "pitch": 60,
          "onset": 499.5,
          "duration": 0.75,
          "velocity": 100
        },
        {
          "pitch": 63,
          "onset": 499.5,
          "duration": 0.5,
          "velocity": 100
        },
        {
          "pitch": 62,
          "onset": 500.0,
          "duration": 1.75,
          "velocity": 100
        },
        {
          "pitch": 78,
          "onset": 500.0,
          "duration": 0.125,
          "velocity": 100
        },
        {
          "pitch": 79,
          "onset": 500.125,
          "duration": 0.125,
          "velocity": 100
        },
        {
          "pitch": 58,
          "onset": 500.25,
          "duration": 0.25,
          "velocity": 100
        },
        {
          "pitch": 78,
          "onset": 500.25,
          "duration": 0.5,
          "velocity": 100
        },
        {
          "pitch": 57,
          "onset": 500.5,
          "duration": 0.25,
          "velocity": 100
        },
        {
          "pitch": 60,
          "onset": 500.75,
          "duration": 0.25,
          "velocity": 100
        },
        {
          "pitch": 76,
          "onset": 500.75,
          "duration": 0.125,
          "velocity": 100
        },
        {
          "pitch": 78,
          "onset": 500.875,
          "duration": 0.125,
          "velocity": 100
        },
        {
          "pitch": 58,
          "onset": 501.0,
          "duration": 0.75,
          "velocity": 100
        },
        {
          "pitch": 79,
          "onset": 501.0,
          "duration": 0.25,
          "velocity": 100
        },
        {
          "pitch": 78,
          "onset": 501.25,
          "duration": 0.25,
          "velocity": 100
        },
        {
          "pitch": 79,
          "onset": 501.5,
          "duration": 0.25,
          "velocity": 100
        },
        {
          "pitch": 57,
          "onset": 501.75,
          "duration": 0.25,
          "velocity": 100
        },
        {
          "pitch": 60,
          "onset": 501.75,
          "duration": 0.25,
          "velocity": 100
        },
        {
          "pitch": 74,
          "onset": 501.75,
          "duration": 0.25,
          "velocity": 100
        },
        {
          "pitch": 55,
          "onset": 502.0,
          "duration": 0.5,
          "velocity": 100
        },
        {
          "pitch": 58,
          "onset": 502.0,
          "duration": 0.25,
          "velocity": 100
        },
        {
          "pitch": 82,
          "onset": 502.0,
          "duration": 0.25,
          "velocity": 100
        },
        {
          "pitch": 62,
          "onset": 502.25,
          "duration": 0.25,
          "velocity": 100
        },
        {
          "pitch": 79,
          "onset": 502.25,
          "duration": 0.25,
          "velocity": 100
        },
        {
          "pitch": 60,
          "onset": 502.5,
          "duration": 0.25,
          "velocity": 100
        },
        {
          "pitch": 63,
          "onset": 502.5,
          "duration": 0.5,
          "velocity": 100
        },
        {
          "pitch": 81,
          "onset": 502.5,
          "duration": 0.25,
          "velocity": 100
        },
        {
          "pitch": 58,
          "onset": 502.75,
          "duration": 0.25,
          "velocity": 100
        },
        {
          "pitch": 79,
          "onset": 502.75,
          "duration": 0.25,
          "velocity": 100
        },
        {
          "pitch": 57,
          "onset": 503.0,
          "duration": 0.125,
          "velocity": 100
        },
        {
          "pitch": 62,
          "onset": 503.0,
          "duration": 1.0,
          "velocity": 100
        },
        {
          "pitch": 81,
          "onset": 503.0,
          "duration": 0.25,
          "velocity": 100
        },
        {
          "pitch": 58,
          "onset": 503.125,
          "duration": 0.125,
          "velocity": 100
        },
        {
          "pitch": 57,
          "onset": 503.25,
          "duration": 0.5,
          "velocity": 100
        },
        {
          "pitch": 74,
          "onset": 503.25,
          "duration": 0.25,
          "velocity": 100
        },
        {
          "pitch": 84,
          "onset": 503.5,
          "duration": 0.25,
          "velocity": 100
        },
        {
          "pitch": 55,
          "onset": 503.75,
          "duration": 0.25,
          "velocity": 100
        },
        {
          "pitch": 81,
          "onset": 503.75,
          "duration": 0.25,
          "velocity": 100
        },
        {
          "pitch": 55,
          "onset": 504.0,
          "duration": 0.5,
          "velocity": 100
        },
        {
          "pitch": 67,
          "onset": 504.0,
          "duration": 0.25,
          "velocity": 100
        },
        {
          "pitch": 82,
          "onset": 504.0,
          "duration": 0.5,
          "velocity": 100
        },
        {
          "pitch": 66,
          "onset": 504.25,
          "duration": 0.25,
          "velocity": 100
        },
        {
          "pitch": 67,
          "onset": 504.5,
          "duration": 0.25,
          "velocity": 100
        },
        {
          "pitch": 74,
          "onset": 504.5,
          "duration": 0.5,
          "velocity": 100
        },
        {
          "pitch": 62,
          "onset": 504.75,
          "duration": 0.25,
          "velocity": 100
        },
        {
          "pitch": 70,
          "onset": 505.0,
          "duration": 0.25,
          "velocity": 100
        },
        {
          "pitch": 79,
          "onset": 505.0,
          "duration": 1.0,
          "velocity": 100
        },
        {
          "pitch": 67,
          "onset": 505.25,
          "duration": 0.25,
          "velocity": 100
        },
        {
          "pitch": 69,
          "onset": 505.5,
          "duration": 0.25,
          "velocity": 100
        },
        {
          "pitch": 67,
          "onset": 505.75,
          "duration": 0.25,
          "velocity": 100
        },
        {
          "pitch": 69,
          "onset": 506.0,
          "duration": 0.25,
          "velocity": 100
        },
        {
          "pitch": 78,
          "onset": 506.0,
          "duration": 0.5,
          "velocity": 100
        },
        {
          "pitch": 62,
          "onset": 506.25,
          "duration": 0.25,
          "velocity": 100
        },
        {
          "pitch": 72,
          "onset": 506.5,
          "duration": 0.25,
          "velocity": 100
        },
        {
          "pitch": 81,
          "onset": 506.5,
          "duration": 1.0,
          "velocity": 100
        },
        {
          "pitch": 69,
          "onset": 506.75,
          "duration": 0.25,
          "velocity": 100
        },
        {
          "pitch": 70,
          "onset": 507.0,
          "duration": 0.25,
          "velocity": 100
        },
        {
          "pitch": 69,
          "onset": 507.25,
          "duration": 0.25,
          "velocity": 100
        },
        {
          "pitch": 70,
          "onset": 507.5,
          "duration": 0.25,
          "velocity": 100
        },
        {
          "pitch": 79,
          "onset": 507.5,
          "duration": 0.5,
          "velocity": 100
        },
        {
          "pitch": 67,
          "onset": 507.75,
          "duration": 0.25,
          "velocity": 100
        },
        {
          "pitch": 74,
          "onset": 508.0,
          "duration": 0.25,
          "velocity": 100
        },
        {
          "pitch": 82,
          "onset": 508.0,
          "duration": 1.0,
          "velocity": 100
        },
        {
          "pitch": 70,
          "onset": 508.25,
          "duration": 0.25,
          "velocity": 100
        },
        {
          "pitch": 72,
          "onset": 508.5,
          "duration": 0.25,
          "velocity": 100
        },
        {
          "pitch": 70,
          "onset": 508.75,
          "duration": 0.25,
          "velocity": 100
        },
        {
          "pitch": 72,
          "onset": 509.0,
          "duration": 0.25,
          "velocity": 100
        },
        {
          "pitch": 81,
          "onset": 509.0,
          "duration": 0.5,
          "velocity": 100
        },
        {
          "pitch": 69,
          "onset": 509.25,
          "duration": 0.25,
          "velocity": 100
        },
        {
          "pitch": 75,
          "onset": 509.5,
          "duration": 0.25,
          "velocity": 100
        },
        {
          "pitch": 84,
          "onset": 509.5,
          "duration": 0.75,
          "velocity": 100
        },
        {
          "pitch": 72,
          "onset": 509.75,
          "duration": 0.25,
          "velocity": 100
        },
        {
          "pitch": 74,
          "onset": 510.0,
          "duration": 3.25,
          "velocity": 100
        },
        {
          "pitch": 81,
          "onset": 510.25,
          "duration": 0.25,
          "velocity": 100
        },
        {
          "pitch": 78,
          "onset": 510.5,
          "duration": 0.25,
          "velocity": 100
        },
        {
          "pitch": 74,
          "onset": 510.75,
          "duration": 0.25,
          "velocity": 100
        },
        {
          "pitch": 78,
          "onset": 511.0,
          "duration": 0.25,
          "velocity": 100
        },
        {
          "pitch": 81,
          "onset": 511.25,
          "duration": 0.25,
          "velocity": 100
        },
        {
          "pitch": 82,
          "onset": 511.5,
          "duration": 1.75,
          "velocity": 100
        },
        {
          "pitch": 72,
          "onset": 513.25,
          "duration": 0.25,
          "velocity": 100
        },
        {
          "pitch": 81,
          "onset": 513.25,
          "duration": 0.25,
          "velocity": 100
        },
        {
          "pitch": 74,
          "onset": 513.5,
          "duration": 0.25,
          "velocity": 100
        },
        {
          "pitch": 82,
          "onset": 513.5,
          "duration": 0.25,
          "velocity": 100
        },
        {
          "pitch": 70,
          "onset": 513.75,
          "duration": 0.25,
          "velocity": 100
        },
        {
          "pitch": 79,
          "onset": 513.75,
          "duration": 0.25,
          "velocity": 100
        },
        {
          "pitch": 75,
          "onset": 514.0,
          "duration": 0.25,
          "velocity": 100
        },
        {
          "pitch": 84,
          "onset": 514.0,
          "duration": 0.25,
          "velocity": 100
        },
        {
          "pitch": 70,
          "onset": 514.25,
          "duration": 0.25,
          "velocity": 100
        },
        {
          "pitch": 79,
          "onset": 514.25,
          "duration": 0.25,
          "velocity": 100
        },
        {
          "pitch": 72,
          "onset": 514.5,
          "duration": 0.25,
          "velocity": 100
        },
        {
          "pitch": 81,
          "onset": 514.5,
          "duration": 0.25,
          "velocity": 100
        },
        {
          "pitch": 70,
          "onset": 514.75,
          "duration": 0.25,
          "velocity": 100
        },
        {
          "pitch": 79,
          "onset": 514.75,
          "duration": 0.25,
          "velocity": 100
        },
        {
          "pitch": 72,
          "onset": 515.0,
          "duration": 0.25,
          "velocity": 100
        },
        {
          "pitch": 81,
          "onset": 515.0,
          "duration": 0.25,
          "velocity": 100
        },
        {
          "pitch": 69,
          "onset": 515.25,
          "duration": 0.25,
          "velocity": 100
        },
        {
          "pitch": 77,
          "onset": 515.25,
          "duration": 0.25,
          "velocity": 100
        },
        {
          "pitch": 74,
          "onset": 515.5,
          "duration": 0.25,
          "velocity": 100
        },
        {
          "pitch": 82,
          "onset": 515.5,
          "duration": 0.25,
          "velocity": 100
        },
        {
          "pitch": 69,
          "onset": 515.75,
          "duration": 0.25,
          "velocity": 100
        },
        {
          "pitch": 77,
          "onset": 515.75,
          "duration": 0.25,
          "velocity": 100
        },
        {
          "pitch": 70,
          "onset": 516.0,
          "duration": 0.25,
          "velocity": 100
        },
        {
          "pitch": 79,
          "onset": 516.0,
          "duration": 0.25,
          "velocity": 100
        },
        {
          "pitch": 69,
          "onset": 516.25,
          "duration": 0.25,
          "velocity": 100
        },
        {
          "pitch": 77,
          "onset": 516.25,
          "duration": 0.25,
          "velocity": 100
        },
        {
          "pitch": 70,
          "onset": 516.5,
          "duration": 0.25,
          "velocity": 100
        },
        {
          "pitch": 79,
          "onset": 516.5,
          "duration": 0.25,
          "velocity": 100
        },
        {
          "pitch": 67,
          "onset": 516.75,
          "duration": 0.25,
          "velocity": 100
        },
        {
          "pitch": 75,
          "onset": 516.75,
          "duration": 0.25,
          "velocity": 100
        },
        {
          "pitch": 72,
          "onset": 517.0,
          "duration": 0.25,
          "velocity": 100
        },
        {
          "pitch": 81,
          "onset": 517.0,
          "duration": 0.25,
          "velocity": 100
        },
        {
          "pitch": 67,
          "onset": 517.25,
          "duration": 0.25,
          "velocity": 100
        },
        {
          "pitch": 75,
          "onset": 517.25,
          "duration": 0.25,
          "velocity": 100
        },
        {
          "pitch": 69,
          "onset": 517.5,
          "duration": 0.25,
          "velocity": 100
        },
        {
          "pitch": 77,
          "onset": 517.5,
          "duration": 0.25,
          "velocity": 100
        },
        {
          "pitch": 67,
          "onset": 517.75,
          "duration": 0.25,
          "velocity": 100
        },
        {
          "pitch": 75,
          "onset": 517.75,
          "duration": 0.25,
          "velocity": 100
        },
        {
          "pitch": 69,
          "onset": 518.0,
          "duration": 0.25,
          "velocity": 100
        },
        {
          "pitch": 77,
          "onset": 518.0,
          "duration": 0.25,
          "velocity": 100
        },
        {
          "pitch": 65,
          "onset": 518.25,
          "duration": 0.25,
          "velocity": 100
        },
        {
          "pitch": 74,
          "onset": 518.25,
          "duration": 0.25,
          "velocity": 100
        },
        {
          "pitch": 70,
          "onset": 518.5,
          "duration": 0.25,
          "velocity": 100
        },
        {
          "pitch": 79,
          "onset": 518.5,
          "duration": 0.25,
          "velocity": 100
        },
        {
          "pitch": 65,
          "onset": 518.75,
          "duration": 0.25,
          "velocity": 100
        },
        {
          "pitch": 74,
          "onset": 518.75,
          "duration": 0.25,
          "velocity": 100
        },
        {
          "pitch": 67,
          "onset": 519.0,
          "duration": 0.25,
          "velocity": 100
        },
        {
          "pitch": 76,
          "onset": 519.0,
          "duration": 0.75,
          "velocity": 100
        },
        {
          "pitch": 65,
          "onset": 519.25,
          "duration": 0.25,
          "velocity": 100
        },
        {
          "pitch": 67,
          "onset": 519.5,
          "duration": 0.25,
          "velocity": 100
        },
        {
          "pitch": 64,
          "onset": 519.75,
          "duration": 0.25,
          "velocity": 100
        },
        {
          "pitch": 79,
          "onset": 519.75,
          "duration": 0.25,
          "velocity": 100
        },
        {
          "pitch": 69,
          "onset": 520.0,
          "duration": 0.25,
          "velocity": 100
        },
        {
          "pitch": 78,
          "onset": 520.0,
          "duration": 0.25,
          "velocity": 100
        },
        {
          "pitch": 64,
          "onset": 520.25,
          "duration": 0.25,
          "velocity": 100
        },
        {
          "pitch": 79,
          "onset": 520.25,
          "duration": 0.25,
          "velocity": 100
        },
        {
          "pitch": 66,
          "onset": 520.5,
          "duration": 1.75,
          "velocity": 100
        },
        {
          "pitch": 81,
          "onset": 520.5,
          "duration": 1.75,
          "velocity": 100
        },
        {
          "pitch": 70,
          "onset": 522.25,
          "duration": 0.25,
          "velocity": 100
        },
        {
          "pitch": 79,
          "onset": 522.25,
          "duration": 0.25,
          "velocity": 100
        },
        {
          "pitch": 69,
          "onset": 522.5,
          "duration": 0.25,
          "velocity": 100
        },
        {
          "pitch": 78,
          "onset": 522.5,
          "duration": 0.25,
          "velocity": 100
        },
        {
          "pitch": 67,
          "onset": 522.75,
          "duration": 0.25,
          "velocity": 100
        },
        {
          "pitch": 75,
          "onset": 522.75,
          "duration": 0.25,
          "velocity": 100
        },
        {
          "pitch": 65,
          "onset": 523.0,
          "duration": 0.25,
          "velocity": 100
        },
        {
          "pitch": 74,
          "onset": 523.0,
          "duration": 0.25,
          "velocity": 100
        },
        {
          "pitch": 69,
          "onset": 523.25,
          "duration": 0.25,
          "velocity": 100
        },
        {
          "pitch": 72,
          "onset": 523.25,
          "duration": 0.25,
          "velocity": 100
        },
        {
          "pitch": 62,
          "onset": 523.5,
          "duration": 0.5,
          "velocity": 100
        },
        {
          "pitch": 79,
          "onset": 523.5,
          "duration": 0.25,
          "velocity": 100
        },
        {
          "pitch": 77,
          "onset": 523.75,
          "duration": 0.25,
          "velocity": 100
        },
        {
          "pitch": 67,
          "onset": 524.0,
          "duration": 0.25,
          "velocity": 100
        },
        {
          "pitch": 75,
          "onset": 524.0,
          "duration": 0.25,
          "velocity": 100
        },
        {
          "pitch": 66,
          "onset": 524.25,
          "duration": 0.25,
          "velocity": 100
        },
        {
          "pitch": 74,
          "onset": 524.25,
          "duration": 0.25,
          "velocity": 100
        },
        {
          "pitch": 67,
          "onset": 524.5,
          "duration": 0.75,
          "velocity": 100
        },
        {
          "pitch": 72,
          "onset": 524.5,
          "duration": 0.25,
          "velocity": 100
        },
        {
          "pitch": 70,
          "onset": 524.75,
          "duration": 0.25,
          "velocity": 100
        },
        {
          "pitch": 75,
          "onset": 525.0,
          "duration": 0.25,
          "velocity": 100
        },
        {
          "pitch": 65,
          "onset": 525.25,
          "duration": 0.25,
          "velocity": 100
        },
        {
          "pitch": 74,
          "onset": 525.25,
          "duration": 0.25,
          "velocity": 100
        },
        {
          "pitch": 63,
          "onset": 525.5,
          "duration": 0.25,
          "velocity": 100
        },
        {
          "pitch": 72,
          "onset": 525.5,
          "duration": 0.25,
          "velocity": 100
        },
        {
          "pitch": 62,
          "onset": 525.75,
          "duration": 0.25,
          "velocity": 100
        },
        {
          "pitch": 70,
          "onset": 525.75,
          "duration": 0.25,
          "velocity": 100
        },
        {
          "pitch": 60,
          "onset": 526.0,
          "duration": 0.25,
          "velocity": 100
        },
        {
          "pitch": 69,
          "onset": 526.0,
          "duration": 0.25,
          "velocity": 100
        },
        {
          "pitch": 58,
          "onset": 526.25,
          "duration": 0.25,
          "velocity": 100
        },
        {
          "pitch": 67,
          "onset": 526.25,
          "duration": 0.25,
          "velocity": 100
        },
        {
          "pitch": 57,
          "onset": 526.5,
          "duration": 1.5,
          "velocity": 100
        },
        {
          "pitch": 66,
          "onset": 526.5,
          "duration": 0.125,
          "velocity": 100
        },
        {
          "pitch": 67,
          "onset": 526.625,
          "duration": 0.125,
          "velocity": 100
        },
        {
          "pitch": 66,
          "onset": 526.75,
          "duration": 0.75,
          "velocity": 100
        },
        {
          "pitch": 62,
          "onset": 528.25,
          "duration": 0.25,
          "velocity": 100
        },
        {
          "pitch": 66,
          "onset": 528.5,
          "duration": 0.25,
          "velocity": 100
        },
        {
          "pitch": 62,
          "onset": 528.75,
          "duration": 0.25,
          "velocity": 100
        },
        {
          "pitch": 69,
          "onset": 529.0,
          "duration": 0.25,
          "velocity": 100
        },
        {
          "pitch": 66,
          "onset": 529.25,
          "duration": 0.25,
          "velocity": 100
        },
        {
          "pitch": 74,
          "onset": 529.5,
          "duration": 1.0,
          "velocity": 100
        },
        {
          "pitch": 50,
          "onset": 529.75,
          "duration": 0.25,
          "velocity": 100
        },
        {
          "pitch": 54,
          "onset": 530.0,
          "duration": 0.25,
          "velocity": 100
        },
        {
          "pitch": 62,
          "onset": 530.0,
          "duration": 0.5,
          "velocity": 100
        },
        {
          "pitch": 50,
          "onset": 530.25,
          "duration": 0.25,
          "velocity": 100
        },
        {
          "pitch": 57,
          "onset": 530.5,
          "duration": 0.25,
          "velocity": 100
        },
        {
          "pitch": 66,
          "onset": 530.5,
          "duration": 0.5,
          "velocity": 100
        },
        {
          "pitch": 72,
          "onset": 530.5,
          "duration": 0.5,
          "velocity": 100
        },
        {
          "pitch": 54,
          "onset": 530.75,
          "duration": 0.25,
          "velocity": 100
        },
        {
          "pitch": 62,
          "onset": 531.0,
          "duration": 0.5,
          "velocity": 100
        },
        {
          "pitch": 67,
          "onset": 531.0,
          "duration": 0.5,
          "velocity": 100
        },
        {
          "pitch": 70,
          "onset": 531.0,
          "duration": 0.5,
          "velocity": 100
        },
        {
          "pitch": 55,
          "onset": 531.25,
          "duration": 0.25,
          "velocity": 100
        },
        {
          "pitch": 58,
          "onset": 531.5,
          "duration": 0.25,
          "velocity": 100
        },
        {
          "pitch": 70,
          "onset": 531.5,
          "duration": 0.5,
          "velocity": 100
        },
        {
          "pitch": 74,
          "onset": 531.5,
          "duration": 0.5,
          "velocity": 100
        },
        {
          "pitch": 79,
          "onset": 531.5,
          "duration": 0.5,
          "velocity": 100
        },
        {
          "pitch": 55,
          "onset": 531.75,
          "duration": 0.25,
          "velocity": 100
        },
        {
          "pitch": 62,
          "onset": 532.0,
          "duration": 0.25,
          "velocity": 100
        },
        {
          "pitch": 69,
          "onset": 532.0,
          "duration": 0.5,
          "velocity": 100
        },
        {
          "pitch": 72,
          "onset": 532.0,
          "duration": 0.5,
          "velocity": 100
        },
        {
          "pitch": 74,
          "onset": 532.0,
          "duration": 0.5,
          "velocity": 100
        },
        {
          "pitch": 78,
          "onset": 532.0,
          "duration": 0.5,
          "velocity": 100
        },
        {
          "pitch": 50,
          "onset": 532.25,
          "duration": 0.25,
          "velocity": 100
        },
        {
          "pitch": 55,
          "onset": 532.5,
          "duration": 1.0,
          "velocity": 100
        },
        {
          "pitch": 67,
          "onset": 532.5,
          "duration": 1.0,
          "velocity": 100
        },
        {
          "pitch": 70,
          "onset": 532.5,
          "duration": 1.0,
          "velocity": 100
        },
        {
          "pitch": 74,
          "onset": 532.5,
          "duration": 1.0,
          "velocity": 100
        },
        {
          "pitch": 79,
          "onset": 532.5,
          "duration": 1.0,
          "velocity": 100
        },
        {
          "pitch": 67,
          "onset": 534.25,
          "duration": 0.25,
          "velocity": 100
        },
        {
          "pitch": 71,
          "onset": 534.5,
          "duration": 0.25,
          "velocity": 100
        },
        {
          "pitch": 67,
          "onset": 534.75,
          "duration": 0.25,
          "velocity": 100
        },
        {
          "pitch": 74,
          "onset": 535.0,
          "duration": 0.25,
          "velocity": 100
        },
        {
          "pitch": 71,
          "onset": 535.25,
          "duration": 0.25,
          "velocity": 100
        },
        {
          "pitch": 79,
          "onset": 535.5,
          "duration": 1.0,
          "velocity": 100
        },
        {
          "pitch": 55,
          "onset": 535.75,
          "duration": 0.25,
          "velocity": 100
        },
        {
          "pitch": 59,
          "onset": 536.0,
          "duration": 0.25,
          "velocity": 100
        },
        {
          "pitch": 67,
          "onset": 536.0,
          "duration": 0.5,
          "velocity": 100
        },
        {
          "pitch": 55,
          "onset": 536.25,
          "duration": 0.25,
          "velocity": 100
        },
        {
          "pitch": 62,
          "onset": 536.5,
          "duration": 0.25,
          "velocity": 100
        },
        {
          "pitch": 71,
          "onset": 536.5,
          "duration": 0.5,
          "velocity": 100
        },
        {
          "pitch": 77,
          "onset": 536.5,
          "duration": 0.5,
          "velocity": 100
        },
        {
          "pitch": 59,
          "onset": 536.75,
          "duration": 0.25,
          "velocity": 100
        },
        {
          "pitch": 67,
          "onset": 537.0,
          "duration": 0.5,
          "velocity": 100
        },
        {
          "pitch": 72,
          "onset": 537.0,
          "duration": 0.5,
          "velocity": 100
        },
        {
          "pitch": 75,
          "onset": 537.0,
          "duration": 0.5,
          "velocity": 100
        },
        {
          "pitch": 60,
          "onset": 537.25,
          "duration": 0.25,
          "velocity": 100
        },
        {
          "pitch": 63,
          "onset": 537.5,
          "duration": 0.25,
          "velocity": 100
        },
        {
          "pitch": 75,
          "onset": 537.5,
          "duration": 0.5,
          "velocity": 100
        },
        {
          "pitch": 79,
          "onset": 537.5,
          "duration": 0.5,
          "velocity": 100
        },
        {
          "pitch": 84,
          "onset": 537.5,
          "duration": 0.5,
          "velocity": 100
        },
        {
          "pitch": 60,
          "onset": 537.75,
          "duration": 0.25,
          "velocity": 100
        },
        {
          "pitch": 67,
          "onset": 538.0,
          "duration": 0.25,
          "velocity": 100
        },
        {
          "pitch": 74,
          "onset": 538.0,
          "duration": 0.5,
          "velocity": 100
        },
        {
          "pitch": 77,
          "onset": 538.0,
          "duration": 0.5,
          "velocity": 100
        },
        {
          "pitch": 79,
          "onset": 538.0,
          "duration": 0.5,
          "velocity": 100
        },
        {
          "pitch": 83,
          "onset": 538.0,
          "duration": 0.5,
          "velocity": 100
        },
        {
          "pitch": 55,
          "onset": 538.25,
          "duration": 0.25,
          "velocity": 100
        },
        {
          "pitch": 60,
          "onset": 538.5,
          "duration": 1.0,
          "velocity": 100
        },
        {
          "pitch": 72,
          "onset": 538.5,
          "duration": 1.0,
          "velocity": 100
        },
        {
          "pitch": 75,
          "onset": 538.5,
          "duration": 1.0,
          "velocity": 100
        },
        {
          "pitch": 79,
          "onset": 538.5,
          "duration": 1.0,
          "velocity": 100
        },
        {
          "pitch": 84,
          "onset": 538.5,
          "duration": 1.0,
          "velocity": 100
        },
        {
          "pitch": 60,
          "onset": 540.25,
          "duration": 0.25,
          "velocity": 100
        },
        {
          "pitch": 64,
          "onset": 540.5,
          "duration": 0.25,
          "velocity": 100
        },
        {
          "pitch": 60,
          "onset": 540.75,
          "duration": 0.25,
          "velocity": 100
        },
        {
          "pitch": 67,
          "onset": 541.0,
          "duration": 0.25,
          "velocity": 100
        },
        {
          "pitch": 64,
          "onset": 541.25,
          "duration": 0.25,
          "velocity": 100
        },
        {
          "pitch": 72,
          "onset": 541.5,
          "duration": 1.0,
          "velocity": 100
        },
        {
          "pitch": 48,
          "onset": 541.75,
          "duration": 0.25,
          "velocity": 100
        },
        {
          "pitch": 52,
          "onset": 542.0,
          "duration": 0.25,
          "velocity": 100
        },
        {
          "pitch": 60,
          "onset": 542.0,
          "duration": 0.5,
          "velocity": 100
        },
        {
          "pitch": 48,
          "onset": 542.25,
          "duration": 0.25,
          "velocity": 100
        },
        {
          "pitch": 55,
          "onset": 542.5,
          "duration": 0.25,
          "velocity": 100
        },
        {
          "pitch": 64,
          "onset": 542.5,
          "duration": 0.5,
          "velocity": 100
        },
        {
          "pitch": 70,
          "onset": 542.5,
          "duration": 0.5,
          "velocity": 100
        },
        {
          "pitch": 52,
          "onset": 542.75,
          "duration": 0.25,
          "velocity": 100
        },
        {
          "pitch": 60,
          "onset": 543.0,
          "duration": 0.5,
          "velocity": 100
        },
        {
          "pitch": 65,
          "onset": 543.0,
          "duration": 0.5,
          "velocity": 100
        },
        {
          "pitch": 69,
          "onset": 543.0,
          "duration": 0.5,
          "velocity": 100
        },
        {
          "pitch": 53,
          "onset": 543.25,
          "duration": 0.25,
          "velocity": 100
        },
        {
          "pitch": 57,
          "onset": 543.5,
          "duration": 0.25,
          "velocity": 100
        },
        {
          "pitch": 69,
          "onset": 543.5,
          "duration": 0.5,
          "velocity": 100
        },
        {
          "pitch": 72,
          "onset": 543.5,
          "duration": 0.5,
          "velocity": 100
        },
        {
          "pitch": 77,
          "onset": 543.5,
          "duration": 0.5,
          "velocity": 100
        },
        {
          "pitch": 53,
          "onset": 543.75,
          "duration": 0.25,
          "velocity": 100
        },
        {
          "pitch": 60,
          "onset": 544.0,
          "duration": 0.25,
          "velocity": 100
        },
        {
          "pitch": 67,
          "onset": 544.0,
          "duration": 0.5,
          "velocity": 100
        },
        {
          "pitch": 70,
          "onset": 544.0,
          "duration": 0.5,
          "velocity": 100
        },
        {
          "pitch": 72,
          "onset": 544.0,
          "duration": 0.5,
          "velocity": 100
        },
        {
          "pitch": 76,
          "onset": 544.0,
          "duration": 0.5,
          "velocity": 100
        },
        {
          "pitch": 48,
          "onset": 544.25,
          "duration": 0.25,
          "velocity": 100
        },
        {
          "pitch": 53,
          "onset": 544.5,
          "duration": 1.0,
          "velocity": 100
        },
        {
          "pitch": 65,
          "onset": 544.5,
          "duration": 1.0,
          "velocity": 100
        },
        {
          "pitch": 69,
          "onset": 544.5,
          "duration": 1.0,
          "velocity": 100
        },
        {
          "pitch": 72,
          "onset": 544.5,
          "duration": 1.0,
          "velocity": 100
        },
        {
          "pitch": 77,
          "onset": 544.5,
          "duration": 1.0,
          "velocity": 100
        },
        {
          "pitch": 65,
          "onset": 546.25,
          "duration": 0.25,
          "velocity": 100
        },
        {
          "pitch": 69,
          "onset": 546.5,
          "duration": 0.25,
          "velocity": 100
        },
        {
          "pitch": 65,
          "onset": 546.75,
          "duration": 0.25,
          "velocity": 100
        },
        {
          "pitch": 72,
          "onset": 547.0,
          "duration": 0.25,
          "velocity": 100
        },
        {
          "pitch": 69,
          "onset": 547.25,
          "duration": 0.25,
          "velocity": 100
        },
        {
          "pitch": 77,
          "onset": 547.5,
          "duration": 1.0,
          "velocity": 100
        },
        {
          "pitch": 53,
          "onset": 547.75,
          "duration": 0.25,
          "velocity": 100
        },
        {
          "pitch": 57,
          "onset": 548.0,
          "duration": 0.25,
          "velocity": 100
        },
        {
          "pitch": 65,
          "onset": 548.0,
          "duration": 0.5,
          "velocity": 100
        },
        {
          "pitch": 53,
          "onset": 548.25,
          "duration": 0.25,
          "velocity": 100
        },
        {
          "pitch": 60,
          "onset": 548.5,
          "duration": 0.25,
          "velocity": 100
        },
        {
          "pitch": 69,
          "onset": 548.5,
          "duration": 0.5,
          "velocity": 100
        },
        {
          "pitch": 75,
          "onset": 548.5,
          "duration": 0.5,
          "velocity": 100
        },
        {
          "pitch": 57,
          "onset": 548.75,
          "duration": 0.25,
          "velocity": 100
        },
        {
          "pitch": 65,
          "onset": 549.0,
          "duration": 0.5,
          "velocity": 100
        },
        {
          "pitch": 70,
          "onset": 549.0,
          "duration": 0.5,
          "velocity": 100
        },
        {
          "pitch": 74,
          "onset": 549.0,
          "duration": 0.5,
          "velocity": 100
        },
        {
          "pitch": 58,
          "onset": 549.25,
          "duration": 0.25,
          "velocity": 100
        },
        {
          "pitch": 62,
          "onset": 549.5,
          "duration": 0.25,
          "velocity": 100
        },
        {
          "pitch": 74,
          "onset": 549.5,
          "duration": 0.5,
          "velocity": 100
        },
        {
          "pitch": 77,
          "onset": 549.5,
          "duration": 0.5,
          "velocity": 100
        },
        {
          "pitch": 82,
          "onset": 549.5,
          "duration": 0.5,
          "velocity": 100
        },
        {
          "pitch": 58,
          "onset": 549.75,
          "duration": 0.25,
          "velocity": 100
        },
        {
          "pitch": 65,
          "onset": 550.0,
          "duration": 0.25,
          "velocity": 100
        },
        {
          "pitch": 72,
          "onset": 550.0,
          "duration": 0.5,
          "velocity": 100
        },
        {
          "pitch": 77,
          "onset": 550.0,
          "duration": 0.5,
          "velocity": 100
        },
        {
          "pitch": 81,
          "onset": 550.0,
          "duration": 0.5,
          "velocity": 100
        },
        {
          "pitch": 63,
          "onset": 550.25,
          "duration": 0.25,
          "velocity": 100
        },
        {
          "pitch": 62,
          "onset": 550.5,
          "duration": 0.25,
          "velocity": 100
        },
        {
          "pitch": 60,
          "onset": 550.75,
          "duration": 0.25,
          "velocity": 100
        },
        {
          "pitch": 62,
          "onset": 551.0,
          "duration": 0.25,
          "velocity": 100
        },
        {
          "pitch": 70,
          "onset": 551.0,
          "duration": 0.25,
          "velocity": 100
        },
        {
          "pitch": 77,
          "onset": 551.0,
          "duration": 0.25,
          "velocity": 100
        },
        {
          "pitch": 80,
          "onset": 551.0,
          "duration": 0.25,
          "velocity": 100
        },
        {
          "pitch": 58,
          "onset": 551.25,
          "duration": 0.25,
          "velocity": 100
        },
        {
          "pitch": 63,
          "onset": 551.5,
          "duration": 0.25,
          "velocity": 100
        },
        {
          "pitch": 70,
          "onset": 551.5,
          "duration": 0.5,
          "velocity": 100
        },
        {
          "pitch": 75,
          "onset": 551.5,
          "duration": 0.5,
          "velocity": 100
        },
        {
          "pitch": 79,
          "onset": 551.5,
          "duration": 0.5,
          "velocity": 100
        },
        {
          "pitch": 58,
          "onset": 551.75,
          "duration": 0.25,
          "velocity": 100
        },
        {
          "pitch": 60,
          "onset": 552.0,
          "duration": 0.25,
          "velocity": 100
        },
        {
          "pitch": 58,
          "onset": 552.25,
          "duration": 0.25,
          "velocity": 100
        },
        {
          "pitch": 60,
          "onset": 552.5,
          "duration": 0.25,
          "velocity": 100
        },
        {
          "pitch": 69,
          "onset": 552.5,
          "duration": 0.25,
          "velocity": 100
        },
        {
          "pitch": 75,
          "onset": 552.5,
          "duration": 0.25,
          "velocity": 100
        },
        {
          "pitch": 79,
          "onset": 552.5,
          "duration": 0.25,
          "velocity": 100
        },
        {
          "pitch": 57,
          "onset": 552.75,
          "duration": 0.25,
          "velocity": 100
        },
        {
          "pitch": 62,
          "onset": 553.0,
          "duration": 0.25,
          "velocity": 100
        },
        {
          "pitch": 69,
          "onset": 553.0,
          "duration": 0.5,
          "velocity": 100
        },
        {
          "pitch": 74,
          "onset": 553.0,
          "duration": 0.5,
          "velocity": 100
        },
        {
          "pitch": 77,
          "onset": 553.0,
          "duration": 0.5,
          "velocity": 100
        },
        {
          "pitch": 57,
          "onset": 553.25,
          "duration": 0.25,
          "velocity": 100
        },
        {
          "pitch": 58,
          "onset": 553.5,
          "duration": 0.25,
          "velocity": 100
        },
        {
          "pitch": 57,
          "onset": 553.75,
          "duration": 0.25,
          "velocity": 100
        },
        {
          "pitch": 58,
          "onset": 554.0,
          "duration": 0.25,
          "velocity": 100
        },
        {
          "pitch": 67,
          "onset": 554.0,
          "duration": 0.25,
          "velocity": 100
        },
        {
          "pitch": 74,
          "onset": 554.0,
          "duration": 0.25,
          "velocity": 100
        },
        {
          "pitch": 77,
          "onset": 554.0,
          "duration": 0.25,
          "velocity": 100
        },
        {
          "pitch": 55,
          "onset": 554.25,
          "duration": 0.25,
          "velocity": 100
        },
        {
          "pitch": 60,
          "onset": 554.5,
          "duration": 0.25,
          "velocity": 100
        },
        {
          "pitch": 67,
          "onset": 554.5,
          "duration": 0.5,
          "velocity": 100
        },
        {
          "pitch": 72,
          "onset": 554.5,
          "duration": 0.5,
          "velocity": 100
        },
        {
          "pitch": 75,
          "onset": 554.5,
          "duration": 0.5,
          "velocity": 100
        },
        {
          "pitch": 55,
          "onset": 554.75,
          "duration": 0.25,
          "velocity": 100
        },
        {
          "pitch": 57,
          "onset": 555.0,
          "duration": 0.25,
          "velocity": 100
        },
        {
          "pitch": 55,
          "onset": 555.25,
          "duration": 0.25,
          "velocity": 100
        },
        {
          "pitch": 57,
          "onset": 555.5,
          "duration": 0.25,
          "velocity": 100
        },
        {
          "pitch": 65,
          "onset": 555.5,
          "duration": 0.25,
          "velocity": 100
        },
        {
          "pitch": 72,
          "onset": 555.5,
          "duration": 0.25,
          "velocity": 100
        },
        {
          "pitch": 75,
          "onset": 555.5,
          "duration": 0.25,
          "velocity": 100
        },
        {
          "pitch": 53,
          "onset": 555.75,
          "duration": 0.25,
          "velocity": 100
        },
        {
          "pitch": 58,
          "onset": 556.0,
          "duration": 0.25,
          "velocity": 100
        },
        {
          "pitch": 65,
          "onset": 556.0,
          "duration": 0.5,
          "velocity": 100
        },
        {
          "pitch": 70,
          "onset": 556.0,
          "duration": 0.5,
          "velocity": 100
        },
        {
          "pitch": 74,
          "onset": 556.0,
          "duration": 0.5,
          "velocity": 100
        },
        {
          "pitch": 53,
          "onset": 556.25,
          "duration": 0.25,
          "velocity": 100
        },
        {
          "pitch": 55,
          "onset": 556.5,
          "duration": 3.0,
          "velocity": 100
        },
        {
          "pitch": 74,
          "onset": 556.5,
          "duration": 3.0,
          "velocity": 100
        },
        {
          "pitch": 63,
          "onset": 556.75,
          "duration": 0.25,
          "velocity": 100
        },
        {
          "pitch": 67,
          "onset": 557.0,
          "duration": 0.25,
          "velocity": 100
        },
        {
          "pitch": 63,
          "onset": 557.25,
          "duration": 0.25,
          "velocity": 100
        },
        {
          "pitch": 70,
          "onset": 557.5,
          "duration": 0.25,
          "velocity": 100
        },
        {
          "pitch": 67,
          "onset": 557.75,
          "duration": 0.25,
          "velocity": 100
        },
        {
          "pitch": 75,
          "onset": 558.0,
          "duration": 3.5,
          "velocity": 100
        },
        {
          "pitch": 60,
          "onset": 558.25,
          "duration": 0.25,
          "velocity": 100
        },
        {
          "pitch": 63,
          "onset": 558.5,
          "duration": 0.25,
          "velocity": 100
        },
        {
          "pitch": 60,
          "onset": 558.75,
          "duration": 0.25,
          "velocity": 100
        },
        {
          "pitch": 67,
          "onset": 559.0,
          "duration": 0.25,
          "velocity": 100
        },
        {
          "pitch": 63,
          "onset": 559.25,
          "duration": 0.25,
          "velocity": 100
        },
        {
          "pitch": 65,
          "onset": 559.5,
          "duration": 1.0,
          "velocity": 100
        },
        {
          "pitch": 72,
          "onset": 559.5,
          "duration": 1.0,
          "velocity": 100
        },
        {
          "pitch": 53,
          "onset": 559.75,
          "duration": 0.25,
          "velocity": 100
        },
        {
          "pitch": 57,
          "onset": 560.0,
          "duration": 0.25,
          "velocity": 100
        },
        {
          "pitch": 53,
          "onset": 560.25,
          "duration": 0.25,
          "velocity": 100
        },
        {
          "pitch": 60,
          "onset": 560.5,
          "duration": 0.25,
          "velocity": 100
        },
        {
          "pitch": 67,
          "onset": 560.5,
          "duration": 0.5,
          "velocity": 100
        },
        {
          "pitch": 70,
          "onset": 560.5,
          "duration": 0.5,
          "velocity": 100
        },
        {
          "pitch": 57,
          "onset": 560.75,
          "duration": 0.25,
          "velocity": 100
        },
        {
          "pitch": 65,
          "onset": 561.0,
          "duration": 1.0,
          "velocity": 100
        },
        {
          "pitch": 69,
          "onset": 561.0,
          "duration": 1.0,
          "velocity": 100
        },
        {
          "pitch": 72,
          "onset": 561.0,
          "duration": 1.0,
          "velocity": 100
        },
        {
          "pitch": 57,
          "onset": 561.5,
          "duration": 0.5,
          "velocity": 100
        },
        {
          "pitch": 60,
          "onset": 561.5,
          "duration": 0.5,
          "velocity": 100
        },
        {
          "pitch": 75,
          "onset": 561.5,
          "duration": 0.5,
          "velocity": 100
        },
        {
          "pitch": 58,
          "onset": 562.0,
          "duration": 0.5,
          "velocity": 100
        },
        {
          "pitch": 62,
          "onset": 562.0,
          "duration": 0.5,
          "velocity": 100
        },
        {
          "pitch": 65,
          "onset": 562.0,
          "duration": 0.5,
          "velocity": 100
        },
        {
          "pitch": 70,
          "onset": 562.0,
          "duration": 0.5,
          "velocity": 100
        },
        {
          "pitch": 74,
          "onset": 562.0,
          "duration": 0.5,
          "velocity": 100
        },
        {
          "pitch": 63,
          "onset": 563.0,
          "duration": 0.5,
          "velocity": 100
        },
        {
          "pitch": 65,
          "onset": 563.0,
          "duration": 0.5,
          "velocity": 100
        },
        {
          "pitch": 69,
          "onset": 563.0,
          "duration": 0.5,
          "velocity": 100
        },
        {
          "pitch": 72,
          "onset": 563.0,
          "duration": 0.5,
          "velocity": 100
        },
        {
          "pitch": 62,
          "onset": 563.5,
          "duration": 0.5,
          "velocity": 100
        },
        {
          "pitch": 65,
          "onset": 563.5,
          "duration": 0.5,
          "velocity": 100
        },
        {
          "pitch": 70,
          "onset": 563.5,
          "duration": 0.5,
          "velocity": 100
        },
        {
          "pitch": 60,
          "onset": 564.5,
          "duration": 0.5,
          "velocity": 100
        },
        {
          "pitch": 63,
          "onset": 564.5,
          "duration": 0.5,
          "velocity": 100
        },
        {
          "pitch": 69,
          "onset": 564.5,
          "duration": 0.5,
          "velocity": 100
        },
        {
          "pitch": 72,
          "onset": 564.5,
          "duration": 0.5,
          "velocity": 100
        },
        {
          "pitch": 79,
          "onset": 564.5,
          "duration": 0.5,
          "velocity": 100
        },
        {
          "pitch": 62,
          "onset": 565.0,
          "duration": 0.5,
          "velocity": 100
        },
        {
          "pitch": 65,
          "onset": 565.0,
          "duration": 0.5,
          "velocity": 100
        },
        {
          "pitch": 70,
          "onset": 565.0,
          "duration": 0.5,
          "velocity": 100
        },
        {
          "pitch": 74,
          "onset": 565.0,
          "duration": 0.5,
          "velocity": 100
        },
        {
          "pitch": 77,
          "onset": 565.0,
          "duration": 0.5,
          "velocity": 100
        },
        {
          "pitch": 60,
          "onset": 566.0,
          "duration": 0.5,
          "velocity": 100
        },
        {
          "pitch": 65,
          "onset": 566.0,
          "duration": 0.5,
          "velocity": 100
        },
        {
          "pitch": 69,
          "onset": 566.0,
          "duration": 0.5,
          "velocity": 100
        },
        {
          "pitch": 75,
          "onset": 566.0,
          "duration": 0.5,
          "velocity": 100
        },
        {
          "pitch": 58,
          "onset": 566.5,
          "duration": 0.5,
          "velocity": 100
        },
        {
          "pitch": 65,
          "onset": 566.5,
          "duration": 0.5,
          "velocity": 100
        },
        {
          "pitch": 70,
          "onset": 566.5,
          "duration": 0.5,
          "velocity": 100
        },
        {
          "pitch": 74,
          "onset": 566.5,
          "duration": 0.5,
          "velocity": 100
        },
        {
          "pitch": 55,
          "onset": 567.5,
          "duration": 0.5,
          "velocity": 100
        },
        {
          "pitch": 58,
          "onset": 567.5,
          "duration": 0.5,
          "velocity": 100
        },
        {
          "pitch": 63,
          "onset": 567.5,
          "duration": 0.5,
          "velocity": 100
        },
        {
          "pitch": 70,
          "onset": 567.5,
          "duration": 0.5,
          "velocity": 100
        },
        {
          "pitch": 75,
          "onset": 567.5,
          "duration": 0.5,
          "velocity": 100
        },
        {
          "pitch": 53,
          "onset": 568.0,
          "duration": 0.5,
          "velocity": 100
        },
        {
          "pitch": 58,
          "onset": 568.0,
          "duration": 0.5,
          "velocity": 100
        },
        {
          "pitch": 65,
          "onset": 568.0,
          "duration": 0.5,
          "velocity": 100
        },
        {
          "pitch": 68,
          "onset": 568.0,
          "duration": 0.5,
          "velocity": 100
        },
        {
          "pitch": 74,
          "onset": 568.0,
          "duration": 0.5,
          "velocity": 100
        },
        {
          "pitch": 51,
          "onset": 569.0,
          "duration": 0.5,
          "velocity": 100
        },
        {
          "pitch": 60,
          "onset": 569.0,
          "duration": 0.5,
          "velocity": 100
        },
        {
          "pitch": 65,
          "onset": 569.0,
          "duration": 0.5,
          "velocity": 100
        },
        {
          "pitch": 69,
          "onset": 569.0,
          "duration": 0.5,
          "velocity": 100
        },
        {
          "pitch": 72,
          "onset": 569.0,
          "duration": 0.5,
          "velocity": 100
        },
        {
          "pitch": 52,
          "onset": 569.5,
          "duration": 0.5,
          "velocity": 100
        },
        {
          "pitch": 61,
          "onset": 569.5,
          "duration": 0.5,
          "velocity": 100
        },
        {
          "pitch": 67,
          "onset": 569.5,
          "duration": 0.5,
          "velocity": 100
        },
        {
          "pitch": 70,
          "onset": 569.5,
          "duration": 0.5,
          "velocity": 100
        },
        {
          "pitch": 53,
          "onset": 570.5,
          "duration": 0.5,
          "velocity": 100
        },
        {
          "pitch": 60,
          "onset": 570.5,
          "duration": 0.5,
          "velocity": 100
        },
        {
          "pitch": 65,
          "onset": 570.5,
          "duration": 0.5,
          "velocity": 100
        },
        {
          "pitch": 70,
          "onset": 570.5,
          "duration": 0.5,
          "velocity": 100
        },
        {
          "pitch": 41,
          "onset": 571.0,
          "duration": 0.5,
          "velocity": 100
        },
        {
          "pitch": 53,
          "onset": 571.0,
          "duration": 0.5,
          "velocity": 100
        },
        {
          "pitch": 60,
          "onset": 571.0,
          "duration": 0.5,
          "velocity": 100
        },
        {
          "pitch": 63,
          "onset": 571.0,
          "duration": 0.5,
          "velocity": 100
        },
        {
          "pitch": 65,
          "onset": 571.0,
          "duration": 0.5,
          "velocity": 100
        },
        {
          "pitch": 69,
          "onset": 571.0,
          "duration": 0.5,
          "velocity": 100
        },
        {
          "pitch": 46,
          "onset": 571.5,
          "duration": 1.0,
          "velocity": 100
        },
        {
          "pitch": 53,
          "onset": 571.5,
          "duration": 1.0,
          "velocity": 100
        },
        {
          "pitch": 62,
          "onset": 571.5,
          "duration": 1.0,
          "velocity": 100
        },
        {
          "pitch": 65,
          "onset": 571.5,
          "duration": 1.0,
          "velocity": 100
        },
        {
          "pitch": 70,
          "onset": 571.5,
          "duration": 1.0,
          "velocity": 100
        },
        {
          "pitch": 70,
          "onset": 573.25,
          "duration": 0.25,
          "velocity": 100
        },
        {
          "pitch": 74,
          "onset": 573.5,
          "duration": 0.25,
          "velocity": 100
        },
        {
          "pitch": 70,
          "onset": 573.75,
          "duration": 0.25,
          "velocity": 100
        },
        {
          "pitch": 77,
          "onset": 574.0,
          "duration": 0.25,
          "velocity": 100
        },
        {
          "pitch": 74,
          "onset": 574.25,
          "duration": 0.25,
          "velocity": 100
        },
        {
          "pitch": 82,
          "onset": 574.5,
          "duration": 6.5,
          "velocity": 100
        },
        {
          "pitch": 67,
          "onset": 574.75,
          "duration": 0.25,
          "velocity": 100
        },
        {
          "pitch": 70,
          "onset": 575.0,
          "duration": 0.25,
          "velocity": 100
        },
        {
          "pitch": 67,
          "onset": 575.25,
          "duration": 0.25,
          "velocity": 100
        },
        {
          "pitch": 74,
          "onset": 575.5,
          "duration": 0.25,
          "velocity": 100
        },
        {
          "pitch": 70,
          "onset": 575.75,
          "duration": 0.25,
          "velocity": 100
        },
        {
          "pitch": 79,
          "onset": 576.0,
          "duration": 1.0,
          "velocity": 100
        },
        {
          "pitch": 60,
          "onset": 576.25,
          "duration": 0.25,
          "velocity": 100
        },
        {
          "pitch": 64,
          "onset": 576.5,
          "duration": 0.25,
          "velocity": 100
        },
        {
          "pitch": 60,
          "onset": 576.75,
          "duration": 0.25,
          "velocity": 100
        },
        {
          "pitch": 67,
          "onset": 577.0,
          "duration": 0.25,
          "velocity": 100
        },
        {
          "pitch": 77,
          "onset": 577.0,
          "duration": 0.5,
          "velocity": 100
        },
        {
          "pitch": 64,
          "onset": 577.25,
          "duration": 0.25,
          "velocity": 100
        },
        {
          "pitch": 72,
          "onset": 577.5,
          "duration": 4.0,
          "velocity": 100
        },
        {
          "pitch": 76,
          "onset": 577.5,
          "duration": 3.0,
          "velocity": 100
        },
        {
          "pitch": 67,
          "onset": 577.75,
          "duration": 0.25,
          "velocity": 100
        },
        {
          "pitch": 64,
          "onset": 578.0,
          "duration": 0.25,
          "velocity": 100
        },
        {
          "pitch": 67,
          "onset": 578.25,
          "duration": 0.25,
          "velocity": 100
        },
        {
          "pitch": 60,
          "onset": 578.5,
          "duration": 0.25,
          "velocity": 100
        },
        {
          "pitch": 64,
          "onset": 578.75,
          "duration": 0.25,
          "velocity": 100
        },
        {
          "pitch": 67,
          "onset": 579.0,
          "duration": 0.25,
          "velocity": 100
        },
        {
          "pitch": 64,
          "onset": 579.25,
          "duration": 0.25,
          "velocity": 100
        },
        {
          "pitch": 60,
          "onset": 579.5,
          "duration": 0.25,
          "velocity": 100
        },
        {
          "pitch": 64,
          "onset": 579.75,
          "duration": 0.25,
          "velocity": 100
        },
        {
          "pitch": 57,
          "onset": 580.0,
          "duration": 0.25,
          "velocity": 100
        },
        {
          "pitch": 60,
          "onset": 580.25,
          "duration": 0.25,
          "velocity": 100
        },
        {
          "pitch": 65,
          "onset": 580.5,
          "duration": 1.0,
          "velocity": 100
        },
        {
          "pitch": 77,
          "onset": 580.5,
          "duration": 1.0,
          "velocity": 100
        },
        {
          "pitch": 81,
          "onset": 581.0,
          "duration": 0.5,
          "velocity": 100
        },
        {
          "pitch": 65,
          "onset": 582.25,
          "duration": 0.25,
          "velocity": 100
        },
        {
          "pitch": 69,
          "onset": 582.5,
          "duration": 0.25,
          "velocity": 100
        },
        {
          "pitch": 65,
          "onset": 582.75,
          "duration": 0.25,
          "velocity": 100
        },
        {
          "pitch": 72,
          "onset": 583.0,
          "duration": 0.25,
          "velocity": 100
        },
        {
          "pitch": 69,
          "onset": 583.25,
          "duration": 0.25,
          "velocity": 100
        },
        {
          "pitch": 77,
          "onset": 583.5,
          "duration": 6.5,
          "velocity": 100
        },
        {
          "pitch": 62,
          "onset": 583.75,
          "duration": 0.25,
          "velocity": 100
        },
        {
          "pitch": 65,
          "onset": 584.0,
          "duration": 0.25,
          "velocity": 100
        },
        {
          "pitch": 62,
          "onset": 584.25,
          "duration": 0.25,
          "velocity": 100
        },
        {
          "pitch": 69,
          "onset": 584.5,
          "duration": 0.25,
          "velocity": 100
        },
        {
          "pitch": 65,
          "onset": 584.75,
          "duration": 0.25,
          "velocity": 100
        },
        {
          "pitch": 74,
          "onset": 585.0,
          "duration": 1.0,
          "velocity": 100
        },
        {
          "pitch": 55,
          "onset": 585.25,
          "duration": 0.25,
          "velocity": 100
        },
        {
          "pitch": 59,
          "onset": 585.5,
          "duration": 0.25,
          "velocity": 100
        },
        {
          "pitch": 55,
          "onset": 585.75,
          "duration": 0.25,
          "velocity": 100
        },
        {
          "pitch": 62,
          "onset": 586.0,
          "duration": 0.25,
          "velocity": 100
        },
        {
          "pitch": 72,
          "onset": 586.0,
          "duration": 0.5,
          "velocity": 100
        },
        {
          "pitch": 59,
          "onset": 586.25,
          "duration": 0.25,
          "velocity": 100
        },
        {
          "pitch": 67,
          "onset": 586.5,
          "duration": 4.5,
          "velocity": 100
        },
        {
          "pitch": 71,
          "onset": 586.5,
          "duration": 3.0,
          "velocity": 100
        },
        {
          "pitch": 62,
          "onset": 586.75,
          "duration": 0.25,
          "velocity": 100
        },
        {
          "pitch": 59,
          "onset": 587.0,
          "duration": 0.25,
          "velocity": 100
        },
        {
          "pitch": 62,
          "onset": 587.25,
          "duration": 0.25,
          "velocity": 100
        },
        {
          "pitch": 55,
          "onset": 587.5,
          "duration": 0.25,
          "velocity": 100
        },
        {
          "pitch": 59,
          "onset": 587.75,
          "duration": 0.25,
          "velocity": 100
        },
        {
          "pitch": 62,
          "onset": 588.0,
          "duration": 0.25,
          "velocity": 100
        },
        {
          "pitch": 59,
          "onset": 588.25,
          "duration": 0.25,
          "velocity": 100
        },
        {
          "pitch": 55,
          "onset": 588.5,
          "duration": 0.25,
          "velocity": 100
        },
        {
          "pitch": 59,
          "onset": 588.75,
          "duration": 0.25,
          "velocity": 100
        },
        {
          "pitch": 52,
          "onset": 589.0,
          "duration": 0.25,
          "velocity": 100
        },
        {
          "pitch": 55,
          "onset": 589.25,
          "duration": 0.25,
          "velocity": 100
        },
        {
          "pitch": 60,
          "onset": 589.5,
          "duration": 0.25,
          "velocity": 100
        },
        {
          "pitch": 72,
          "onset": 589.5,
          "duration": 1.5,
          "velocity": 100
        },
        {
          "pitch": 55,
          "onset": 589.75,
          "duration": 0.25,
          "velocity": 100
        },
        {
          "pitch": 52,
          "onset": 590.0,
          "duration": 0.25,
          "velocity": 100
        },
        {
          "pitch": 76,
          "onset": 590.0,
          "duration": 0.25,
          "velocity": 100
        },
        {
          "pitch": 55,
          "onset": 590.25,
          "duration": 0.25,
          "velocity": 100
        },
        {
          "pitch": 74,
          "onset": 590.25,
          "duration": 0.25,
          "velocity": 100
        },
        {
          "pitch": 48,
          "onset": 590.5,
          "duration": 0.25,
          "velocity": 100
        },
        {
          "pitch": 76,
          "onset": 590.5,
          "duration": 1.0,
          "velocity": 100
        },
        {
          "pitch": 52,
          "onset": 590.75,
          "duration": 0.25,
          "velocity": 100
        },
        {
          "pitch": 57,
          "onset": 591.0,
          "duration": 0.25,
          "velocity": 100
        },
        {
          "pitch": 65,
          "onset": 591.0,
          "duration": 1.5,
          "velocity": 100
        },
        {
          "pitch": 69,
          "onset": 591.0,
          "duration": 1.0,
          "velocity": 100
        },
        {
          "pitch": 53,
          "onset": 591.25,
          "duration": 0.25,
          "velocity": 100
        },
        {
          "pitch": 50,
          "onset": 591.5,
          "duration": 0.25,
          "velocity": 100
        },
        {
          "pitch": 74,
          "onset": 591.5,
          "duration": 0.25,
          "velocity": 100
        },
        {
          "pitch": 53,
          "onset": 591.75,
          "duration": 0.25,
          "velocity": 100
        },
        {
          "pitch": 72,
          "onset": 591.75,
          "duration": 0.25,
          "velocity": 100
        },
        {
          "pitch": 47,
          "onset": 592.0,
          "duration": 0.25,
          "velocity": 100
        },
        {
          "pitch": 67,
          "onset": 592.0,
          "duration": 1.5,
          "velocity": 100
        },
        {
          "pitch": 74,
          "onset": 592.0,
          "duration": 1.0,
          "velocity": 100
        },
        {
          "pitch": 50,
          "onset": 592.25,
          "duration": 0.25,
          "velocity": 100
        },
        {
          "pitch": 55,
          "onset": 592.5,
          "duration": 0.25,
          "velocity": 100
        },
        {
          "pitch": 64,
          "onset": 592.5,
          "duration": 1.5,
          "velocity": 100
        },
        {
          "pitch": 52,
          "onset": 592.75,
          "duration": 0.25,
          "velocity": 100
        },
        {
          "pitch": 48,
          "onset": 593.0,
          "duration": 0.25,
          "velocity": 100
        },
        {
          "pitch": 72,
          "onset": 593.0,
          "duration": 0.25,
          "velocity": 100
        },
        {
          "pitch": 52,
          "onset": 593.25,
          "duration": 0.25,
          "velocity": 100
        },
        {
          "pitch": 71,
          "onset": 593.25,
          "duration": 0.25,
          "velocity": 100
        },
        {
          "pitch": 45,
          "onset": 593.5,
          "duration": 0.25,
          "velocity": 100
        },
        {
          "pitch": 65,
          "onset": 593.5,
          "duration": 1.5,
          "velocity": 100
        },
        {
          "pitch": 72,
          "onset": 593.5,
          "duration": 1.0,
          "velocity": 100
        },
        {
          "pitch": 48,
          "onset": 593.75,
          "duration": 0.25,
          "velocity": 100
        },
        {
          "pitch": 53,
          "onset": 594.0,
          "duration": 0.25,
          "velocity": 100
        },
        {
          "pitch": 62,
          "onset": 594.0,
          "duration": 1.5,
          "velocity": 100
        },
        {
          "pitch": 50,
          "onset": 594.25,
          "duration": 0.25,
          "velocity": 100
        },
        {
          "pitch": 47,
          "onset": 594.5,
          "duration": 0.25,
          "velocity": 100
        },
        {
          "pitch": 71,
          "onset": 594.5,
          "duration": 0.25,
          "velocity": 100
        },
        {
          "pitch": 50,
          "onset": 594.75,
          "duration": 0.25,
          "velocity": 100
        },
        {
          "pitch": 69,
          "onset": 594.75,
          "duration": 0.25,
          "velocity": 100
        },
        {
          "pitch": 43,
          "onset": 595.0,
          "duration": 0.25,
          "velocity": 100
        },
        {
          "pitch": 67,
          "onset": 595.0,
          "duration": 0.5,
          "velocity": 100
        },
        {
          "pitch": 71,
          "onset": 595.0,
          "duration": 0.5,
          "velocity": 100
        },
        {
          "pitch": 53,
          "onset": 595.25,
          "duration": 0.25,
          "velocity": 100
        },
        {
          "pitch": 52,
          "onset": 595.5,
          "duration": 0.5,
          "velocity": 100
        },
        {
          "pitch": 60,
          "onset": 595.5,
          "duration": 0.5,
          "velocity": 100
        },
        {
          "pitch": 72,
          "onset": 595.5,
          "duration": 0.25,
          "velocity": 100
        },
        {
          "pitch": 67,
          "onset": 595.75,
          "duration": 0.25,
          "velocity": 100
        },
        {
          "pitch": 48,
          "onset": 596.0,
          "duration": 0.5,
          "velocity": 100
        },
        {
          "pitch": 64,
          "onset": 596.0,
          "duration": 0.25,
          "velocity": 100
        },
        {
          "pitch": 67,
          "onset": 596.25,
          "duration": 0.25,
          "velocity": 100
        },
        {
          "pitch": 52,
          "onset": 596.5,
          "duration": 1.0,
          "velocity": 100
        },
        {
          "pitch": 55,
          "onset": 596.5,
          "duration": 0.5,
          "velocity": 100
        },
        {
          "pitch": 60,
          "onset": 596.5,
          "duration": 0.25,
          "velocity": 100
        },
        {
          "pitch": 64,
          "onset": 596.75,
          "duration": 0.25,
          "velocity": 100
        },
        {
          "pitch": 53,
          "onset": 597.0,
          "duration": 1.5,
          "velocity": 100
        },
        {
          "pitch": 69,
          "onset": 597.0,
          "duration": 0.25,
          "velocity": 100
        },
        {
          "pitch": 65,
          "onset": 597.25,
          "duration": 0.25,
          "velocity": 100
        },
        {
          "pitch": 50,
          "onset": 597.5,
          "duration": 0.25,
          "velocity": 100
        },
        {
          "pitch": 62,
          "onset": 597.5,
          "duration": 0.25,
          "velocity": 100
        },
        {
          "pitch": 48,
          "onset": 597.75,
          "duration": 0.25,
          "velocity": 100
        },
        {
          "pitch": 65,
          "onset": 597.75,
          "duration": 0.25,
          "velocity": 100
        },
        {
          "pitch": 50,
          "onset": 598.0,
          "duration": 1.0,
          "velocity": 100
        },
        {
          "pitch": 59,
          "onset": 598.0,
          "duration": 0.25,
          "velocity": 100
        },
        {
          "pitch": 62,
          "onset": 598.25,
          "duration": 0.25,
          "velocity": 100
        },
        {
          "pitch": 52,
          "onset": 598.5,
          "duration": 1.5,
          "velocity": 100
        },
        {
          "pitch": 67,
          "onset": 598.5,
          "duration": 0.25,
          "velocity": 100
        },
        {
          "pitch": 64,
          "onset": 598.75,
          "duration": 0.25,
          "velocity": 100
        },
        {
          "pitch": 48,
          "onset": 599.0,
          "duration": 0.25,
          "velocity": 100
        },
        {
          "pitch": 60,
          "onset": 599.0,
          "duration": 0.25,
          "velocity": 100
        },
        {
          "pitch": 47,
          "onset": 599.25,
          "duration": 0.25,
          "velocity": 100
        },
        {
          "pitch": 64,
          "onset": 599.25,
          "duration": 0.25,
          "velocity": 100
        },
        {
          "pitch": 48,
          "onset": 599.5,
          "duration": 1.0,
          "velocity": 100
        },
        {
          "pitch": 57,
          "onset": 599.5,
          "duration": 0.25,
          "velocity": 100
        },
        {
          "pitch": 60,
          "onset": 599.75,
          "duration": 0.25,
          "velocity": 100
        },
        {
          "pitch": 50,
          "onset": 600.0,
          "duration": 1.5,
          "velocity": 100
        },
        {
          "pitch": 65,
          "onset": 600.0,
          "duration": 0.25,
          "velocity": 100
        },
        {
          "pitch": 62,
          "onset": 600.25,
          "duration": 0.25,
          "velocity": 100
        },
        {
          "pitch": 47,
          "onset": 600.5,
          "duration": 0.25,
          "velocity": 100
        },
        {
          "pitch": 59,
          "onset": 600.5,
          "duration": 0.25,
          "velocity": 100
        },
        {
          "pitch": 45,
          "onset": 600.75,
          "duration": 0.25,
          "velocity": 100
        },
        {
          "pitch": 62,
          "onset": 600.75,
          "duration": 0.25,
          "velocity": 100
        },
        {
          "pitch": 47,
          "onset": 601.0,
          "duration": 0.5,
          "velocity": 100
        },
        {
          "pitch": 55,
          "onset": 601.0,
          "duration": 0.25,
          "velocity": 100
        },
        {
          "pitch": 65,
          "onset": 601.25,
          "duration": 0.25,
          "velocity": 100
        },
        {
          "pitch": 48,
          "onset": 601.5,
          "duration": 0.5,
          "velocity": 100
        },
        {
          "pitch": 64,
          "onset": 601.5,
          "duration": 0.25,
          "velocity": 100
        },
        {
          "pitch": 60,
          "onset": 601.75,
          "duration": 0.25,
          "velocity": 100
        },
        {
          "pitch": 52,
          "onset": 602.0,
          "duration": 0.25,
          "velocity": 100
        },
        {
          "pitch": 67,
          "onset": 602.0,
          "duration": 0.25,
          "velocity": 100
        },
        {
          "pitch": 48,
          "onset": 602.25,
          "duration": 0.25,
          "velocity": 100
        },
        {
          "pitch": 64,
          "onset": 602.25,
          "duration": 0.25,
          "velocity": 100
        },
        {
          "pitch": 55,
          "onset": 602.5,
          "duration": 0.25,
          "velocity": 100
        },
        {
          "pitch": 60,
          "onset": 602.5,
          "duration": 0.5,
          "velocity": 100
        },
        {
          "pitch": 64,
          "onset": 602.5,
          "duration": 0.5,
          "velocity": 100
        },
        {
          "pitch": 67,
          "onset": 602.5,
          "duration": 0.5,
          "velocity": 100
        },
        {
          "pitch": 70,
          "onset": 602.5,
          "duration": 0.5,
          "velocity": 100
        },
        {
          "pitch": 52,
          "onset": 602.75,
          "duration": 0.25,
          "velocity": 100
        },
        {
          "pitch": 60,
          "onset": 603.0,
          "duration": 0.5,
          "velocity": 100
        },
        {
          "pitch": 69,
          "onset": 603.0,
          "duration": 0.25,
          "velocity": 100
        },
        {
          "pitch": 65,
          "onset": 603.25,
          "duration": 0.25,
          "velocity": 100
        },
        {
          "pitch": 57,
          "onset": 603.5,
          "duration": 0.25,
          "velocity": 100
        },
        {
          "pitch": 72,
          "onset": 603.5,
          "duration": 0.25,
          "velocity": 100
        },
        {
          "pitch": 53,
          "onset": 603.75,
          "duration": 0.25,
          "velocity": 100
        },
        {
          "pitch": 69,
          "onset": 603.75,
          "duration": 0.25,
          "velocity": 100
        },
        {
          "pitch": 62,
          "onset": 604.0,
          "duration": 0.25,
          "velocity": 100
        },
        {
          "pitch": 67,
          "onset": 604.0,
          "duration": 0.5,
          "velocity": 100
        },
        {
          "pitch": 71,
          "onset": 604.0,
          "duration": 0.5,
          "velocity": 100
        },
        {
          "pitch": 74,
          "onset": 604.0,
          "duration": 0.5,
          "velocity": 100
        },
        {
          "pitch": 77,
          "onset": 604.0,
          "duration": 0.5,
          "velocity": 100
        },
        {
          "pitch": 59,
          "onset": 604.25,
          "duration": 0.25,
          "velocity": 100
        },
        {
          "pitch": 67,
          "onset": 604.5,
          "duration": 0.5,
          "velocity": 100
        },
        {
          "pitch": 76,
          "onset": 604.5,
          "duration": 0.25,
          "velocity": 100
        },
        {
          "pitch": 72,
          "onset": 604.75,
          "duration": 0.25,
          "velocity": 100
        },
        {
          "pitch": 64,
          "onset": 605.0,
          "duration": 0.25,
          "velocity": 100
        },
        {
          "pitch": 79,
          "onset": 605.0,
          "duration": 0.25,
          "velocity": 100
        },
        {
          "pitch": 60,
          "onset": 605.25,
          "duration": 0.25,
          "velocity": 100
        },
        {
          "pitch": 76,
          "onset": 605.25,
          "duration": 0.25,
          "velocity": 100
        },
        {
          "pitch": 67,
          "onset": 605.5,
          "duration": 0.25,
          "velocity": 100
        },
        {
          "pitch": 72,
          "onset": 605.5,
          "duration": 0.5,
          "velocity": 100
        },
        {
          "pitch": 76,
          "onset": 605.5,
          "duration": 0.5,
          "velocity": 100
        },
        {
          "pitch": 79,
          "onset": 605.5,
          "duration": 0.5,
          "velocity": 100
        },
        {
          "pitch": 82,
          "onset": 605.5,
          "duration": 0.5,
          "velocity": 100
        },
        {
          "pitch": 64,
          "onset": 605.75,
          "duration": 0.25,
          "velocity": 100
        },
        {
          "pitch": 72,
          "onset": 606.0,
          "duration": 0.5,
          "velocity": 100
        },
        {
          "pitch": 81,
          "onset": 606.0,
          "duration": 0.25,
          "velocity": 100
        },
        {
          "pitch": 84,
          "onset": 606.25,
          "duration": 0.25,
          "velocity": 100
        },
        {
          "pitch": 69,
          "onset": 606.5,
          "duration": 0.25,
          "velocity": 100
        },
        {
          "pitch": 77,
          "onset": 606.5,
          "duration": 0.25,
          "velocity": 100
        },
        {
          "pitch": 72,
          "onset": 606.75,
          "duration": 0.25,
          "velocity": 100
        },
        {
          "pitch": 81,
          "onset": 606.75,
          "duration": 0.25,
          "velocity": 100
        },
        {
          "pitch": 65,
          "onset": 607.0,
          "duration": 0.25,
          "velocity": 100
        },
        {
          "pitch": 74,
          "onset": 607.0,
          "duration": 0.25,
          "velocity": 100
        },
        {
          "pitch": 69,
          "onset": 607.25,
          "duration": 0.25,
          "velocity": 100
        },
        {
          "pitch": 77,
          "onset": 607.25,
          "duration": 0.25,
          "velocity": 100
        },
        {
          "pitch": 70,
          "onset": 607.5,
          "duration": 0.5,
          "velocity": 100
        },
        {
          "pitch": 79,
          "onset": 607.5,
          "duration": 0.25,
          "velocity": 100
        },
        {
          "pitch": 82,
          "onset": 607.75,
          "duration": 0.25,
          "velocity": 100
        },
        {
          "pitch": 67,
          "onset": 608.0,
          "duration": 0.25,
          "velocity": 100
        },
        {
          "pitch": 76,
          "onset": 608.0,
          "duration": 0.25,
          "velocity": 100
        },
        {
          "pitch": 70,
          "onset": 608.25,
          "duration": 0.25,
          "velocity": 100
        },
        {
          "pitch": 79,
          "onset": 608.25,
          "duration": 0.25,
          "velocity": 100
        },
        {
          "pitch": 64,
          "onset": 608.5,
          "duration": 0.25,
          "velocity": 100
        },
        {
          "pitch": 72,
          "onset": 608.5,
          "duration": 0.25,
          "velocity": 100
        },
        {
          "pitch": 67,
          "onset": 608.75,
          "duration": 0.25,
          "velocity": 100
        },
        {
          "pitch": 76,
          "onset": 608.75,
          "duration": 0.25,
          "velocity": 100
        },
        {
          "pitch": 69,
          "onset": 609.0,
          "duration": 0.5,
          "velocity": 100
        },
        {
          "pitch": 77,
          "onset": 609.0,
          "duration": 0.25,
          "velocity": 100
        },
        {
          "pitch": 81,
          "onset": 609.25,
          "duration": 0.25,
          "velocity": 100
        },
        {
          "pitch": 65,
          "onset": 609.5,
          "duration": 0.25,
          "velocity": 100
        },
        {
          "pitch": 74,
          "onset": 609.5,
          "duration": 0.25,
          "velocity": 100
        },
        {
          "pitch": 69,
          "onset": 609.75,
          "duration": 0.25,
          "velocity": 100
        },
        {
          "pitch": 77,
          "onset": 609.75,
          "duration": 0.25,
          "velocity": 100
        },
        {
          "pitch": 62,
          "onset": 610.0,
          "duration": 0.25,
          "velocity": 100
        },
        {
          "pitch": 71,
          "onset": 610.0,
          "duration": 0.25,
          "velocity": 100
        },
        {
          "pitch": 65,
          "onset": 610.25,
          "duration": 0.25,
          "velocity": 100
        },
        {
          "pitch": 74,
          "onset": 610.25,
          "duration": 0.25,
          "velocity": 100
        },
        {
          "pitch": 67,
          "onset": 610.5,
          "duration": 0.5,
          "velocity": 100
        },
        {
          "pitch": 76,
          "onset": 610.5,
          "duration": 0.25,
          "velocity": 100
        },
        {
          "pitch": 79,
          "onset": 610.75,
          "duration": 0.25,
          "velocity": 100
        },
        {
          "pitch": 64,
          "onset": 611.0,
          "duration": 0.25,
          "velocity": 100
        },
        {
          "pitch": 72,
          "onset": 611.0,
          "duration": 0.25,
          "velocity": 100
        },
        {
          "pitch": 67,
          "onset": 611.25,
          "duration": 0.25,
          "velocity": 100
        },
        {
          "pitch": 76,
          "onset": 611.25,
          "duration": 0.25,
          "velocity": 100
        },
        {
          "pitch": 60,
          "onset": 611.5,
          "duration": 0.25,
          "velocity": 100
        },
        {
          "pitch": 69,
          "onset": 611.5,
          "duration": 0.25,
          "velocity": 100
        },
        {
          "pitch": 64,
          "onset": 611.75,
          "duration": 0.25,
          "velocity": 100
        },
        {
          "pitch": 72,
          "onset": 611.75,
          "duration": 0.25,
          "velocity": 100
        },
        {
          "pitch": 65,
          "onset": 612.0,
          "duration": 0.25,
          "velocity": 100
        },
        {
          "pitch": 74,
          "onset": 612.0,
          "duration": 0.25,
          "velocity": 100
        },
        {
          "pitch": 64,
          "onset": 612.25,
          "duration": 0.25,
          "velocity": 100
        },
        {
          "pitch": 77,
          "onset": 612.25,
          "duration": 0.25,
          "velocity": 100
        },
        {
          "pitch": 62,
          "onset": 612.5,
          "duration": 0.25,
          "velocity": 100
        },
        {
          "pitch": 71,
          "onset": 612.5,
          "duration": 0.25,
          "velocity": 100
        },
        {
          "pitch": 60,
          "onset": 612.75,
          "duration": 0.25,
          "velocity": 100
        },
        {
          "pitch": 74,
          "onset": 612.75,
          "duration": 0.25,
          "velocity": 100
        },
        {
          "pitch": 59,
          "onset": 613.0,
          "duration": 0.25,
          "velocity": 100
        },
        {
          "pitch": 67,
          "onset": 613.0,
          "duration": 0.25,
          "velocity": 100
        },
        {
          "pitch": 57,
          "onset": 613.25,
          "duration": 0.25,
          "velocity": 100
        },
        {
          "pitch": 71,
          "onset": 613.25,
          "duration": 0.25,
          "velocity": 100
        },
        {
          "pitch": 55,
          "onset": 613.5,
          "duration": 0.25,
          "velocity": 100
        },
        {
          "pitch": 64,
          "onset": 613.5,
          "duration": 0.25,
          "velocity": 100
        },
        {
          "pitch": 53,
          "onset": 613.75,
          "duration": 0.25,
          "velocity": 100
        },
        {
          "pitch": 67,
          "onset": 613.75,
          "duration": 0.25,
          "velocity": 100
        },
        {
          "pitch": 52,
          "onset": 614.0,
          "duration": 0.25,
          "velocity": 100
        },
        {
          "pitch": 60,
          "onset": 614.0,
          "duration": 0.25,
          "velocity": 100
        },
        {
          "pitch": 50,
          "onset": 614.25,
          "duration": 0.25,
          "velocity": 100
        },
        {
          "pitch": 64,
          "onset": 614.25,
          "duration": 0.25,
          "velocity": 100
        },
        {
          "pitch": 48,
          "onset": 614.5,
          "duration": 0.25,
          "velocity": 100
        },
        {
          "pitch": 57,
          "onset": 614.5,
          "duration": 0.25,
          "velocity": 100
        },
        {
          "pitch": 47,
          "onset": 614.75,
          "duration": 0.25,
          "velocity": 100
        },
        {
          "pitch": 60,
          "onset": 614.75,
          "duration": 0.25,
          "velocity": 100
        },
        {
          "pitch": 45,
          "onset": 615.0,
          "duration": 0.25,
          "velocity": 100
        },
        {
          "pitch": 53,
          "onset": 615.0,
          "duration": 0.25,
          "velocity": 100
        },
        {
          "pitch": 43,
          "onset": 615.25,
          "duration": 0.25,
          "velocity": 100
        },
        {
          "pitch": 57,
          "onset": 615.25,
          "duration": 0.25,
          "velocity": 100
        },
        {
          "pitch": 41,
          "onset": 615.5,
          "duration": 0.25,
          "velocity": 100
        },
        {
          "pitch": 50,
          "onset": 615.5,
          "duration": 0.25,
          "velocity": 100
        },
        {
          "pitch": 40,
          "onset": 615.75,
          "duration": 0.25,
          "velocity": 100
        },
        {
          "pitch": 53,
          "onset": 615.75,
          "duration": 0.25,
          "velocity": 100
        },
        {
          "pitch": 38,
          "onset": 616.0,
          "duration": 0.25,
          "velocity": 100
        },
        {
          "pitch": 47,
          "onset": 616.0,
          "duration": 0.25,
          "velocity": 100
        },
        {
          "pitch": 47,
          "onset": 616.25,
          "duration": 0.25,
          "velocity": 100
        },
        {
          "pitch": 50,
          "onset": 616.25,
          "duration": 0.25,
          "velocity": 100
        },
        {
          "pitch": 48,
          "onset": 616.5,
          "duration": 0.25,
          "velocity": 100
        },
        {
          "pitch": 52,
          "onset": 616.5,
          "duration": 0.25,
          "velocity": 100
        },
        {
          "pitch": 43,
          "onset": 616.75,
          "duration": 0.25,
          "velocity": 100
        },
        {
          "pitch": 48,
          "onset": 616.75,
          "duration": 0.25,
          "velocity": 100
        },
        {
          "pitch": 40,
          "onset": 617.0,
          "duration": 0.25,
          "velocity": 100
        },
        {
          "pitch": 55,
          "onset": 617.0,
          "duration": 0.25,
          "velocity": 100
        },
        {
          "pitch": 36,
          "onset": 617.25,
          "duration": 0.25,
          "velocity": 100
        },
        {
          "pitch": 52,
          "onset": 617.25,
          "duration": 0.25,
          "velocity": 100
        },
        {
          "pitch": 43,
          "onset": 617.5,
          "duration": 0.25,
          "velocity": 100
        },
        {
          "pitch": 48,
          "onset": 617.5,
          "duration": 0.5,
          "velocity": 100
        },
        {
          "pitch": 52,
          "onset": 617.5,
          "duration": 0.5,
          "velocity": 100
        },
        {
          "pitch": 55,
          "onset": 617.5,
          "duration": 0.5,
          "velocity": 100
        },
        {
          "pitch": 58,
          "onset": 617.5,
          "duration": 0.5,
          "velocity": 100
        },
        {
          "pitch": 40,
          "onset": 617.75,
          "duration": 0.25,
          "velocity": 100
        },
        {
          "pitch": 48,
          "onset": 618.0,
          "duration": 0.5,
          "velocity": 100
        },
        {
          "pitch": 57,
          "onset": 618.0,
          "duration": 0.25,
          "velocity": 100
        },
        {
          "pitch": 53,
          "onset": 618.25,
          "duration": 0.25,
          "velocity": 100
        },
        {
          "pitch": 45,
          "onset": 618.5,
          "duration": 0.25,
          "velocity": 100
        },
        {
          "pitch": 60,
          "onset": 618.5,
          "duration": 0.25,
          "velocity": 100
        },
        {
          "pitch": 41,
          "onset": 618.75,
          "duration": 0.25,
          "velocity": 100
        },
        {
          "pitch": 57,
          "onset": 618.75,
          "duration": 0.25,
          "velocity": 100
        },
        {
          "pitch": 50,
          "onset": 619.0,
          "duration": 0.25,
          "velocity": 100
        },
        {
          "pitch": 55,
          "onset": 619.0,
          "duration": 0.5,
          "velocity": 100
        },
        {
          "pitch": 59,
          "onset": 619.0,
          "duration": 0.5,
          "velocity": 100
        },
        {
          "pitch": 62,
          "onset": 619.0,
          "duration": 0.5,
          "velocity": 100
        },
        {
          "pitch": 65,
          "onset": 619.0,
          "duration": 0.5,
          "velocity": 100
        },
        {
          "pitch": 47,
          "onset": 619.25,
          "duration": 0.25,
          "velocity": 100
        },
        {
          "pitch": 55,
          "onset": 619.5,
          "duration": 0.5,
          "velocity": 100
        },
        {
          "pitch": 64,
          "onset": 619.5,
          "duration": 0.25,
          "velocity": 100
        },
        {
          "pitch": 60,
          "onset": 619.75,
          "duration": 0.25,
          "velocity": 100
        },
        {
          "pitch": 52,
          "onset": 620.0,
          "duration": 0.25,
          "velocity": 100
        },
        {
          "pitch": 67,
          "onset": 620.0,
          "duration": 0.25,
          "velocity": 100
        },
        {
          "pitch": 48,
          "onset": 620.25,
          "duration": 0.25,
          "velocity": 100
        },
        {
          "pitch": 64,
          "onset": 620.25,
          "duration": 0.25,
          "velocity": 100
        },
        {
          "pitch": 55,
          "onset": 620.5,
          "duration": 0.25,
          "velocity": 100
        },
        {
          "pitch": 60,
          "onset": 620.5,
          "duration": 0.5,
          "velocity": 100
        },
        {
          "pitch": 64,
          "onset": 620.5,
          "duration": 0.5,
          "velocity": 100
        },
        {
          "pitch": 67,
          "onset": 620.5,
          "duration": 0.5,
          "velocity": 100
        },
        {
          "pitch": 70,
          "onset": 620.5,
          "duration": 0.5,
          "velocity": 100
        },
        {
          "pitch": 52,
          "onset": 620.75,
          "duration": 0.25,
          "velocity": 100
        },
        {
          "pitch": 60,
          "onset": 621.0,
          "duration": 0.5,
          "velocity": 100
        },
        {
          "pitch": 69,
          "onset": 621.0,
          "duration": 0.25,
          "velocity": 100
        },
        {
          "pitch": 65,
          "onset": 621.25,
          "duration": 0.25,
          "velocity": 100
        },
        {
          "pitch": 57,
          "onset": 621.5,
          "duration": 0.25,
          "velocity": 100
        },
        {
          "pitch": 72,
          "onset": 621.5,
          "duration": 0.25,
          "velocity": 100
        },
        {
          "pitch": 53,
          "onset": 621.75,
          "duration": 0.25,
          "velocity": 100
        },
        {
          "pitch": 69,
          "onset": 621.75,
          "duration": 0.25,
          "velocity": 100
        },
        {
          "pitch": 62,
          "onset": 622.0,
          "duration": 0.25,
          "velocity": 100
        },
        {
          "pitch": 67,
          "onset": 622.0,
          "duration": 0.5,
          "velocity": 100
        },
        {
          "pitch": 71,
          "onset": 622.0,
          "duration": 0.5,
          "velocity": 100
        },
        {
          "pitch": 74,
          "onset": 622.0,
          "duration": 0.5,
          "velocity": 100
        },
        {
          "pitch": 77,
          "onset": 622.0,
          "duration": 0.5,
          "velocity": 100
        },
        {
          "pitch": 59,
          "onset": 622.25,
          "duration": 0.25,
          "velocity": 100
        },
        {
          "pitch": 67,
          "onset": 622.5,
          "duration": 0.5,
          "velocity": 100
        },
        {
          "pitch": 76,
          "onset": 622.5,
          "duration": 0.25,
          "velocity": 100
        },
        {
          "pitch": 72,
          "onset": 622.75,
          "duration": 0.25,
          "velocity": 100
        },
        {
          "pitch": 64,
          "onset": 623.0,
          "duration": 0.25,
          "velocity": 100
        },
        {
          "pitch": 79,
          "onset": 623.0,
          "duration": 0.25,
          "velocity": 100
        },
        {
          "pitch": 60,
          "onset": 623.25,
          "duration": 0.25,
          "velocity": 100
        },
        {
          "pitch": 76,
          "onset": 623.25,
          "duration": 0.25,
          "velocity": 100
        },
        {
          "pitch": 67,
          "onset": 623.5,
          "duration": 0.25,
          "velocity": 100
        },
        {
          "pitch": 72,
          "onset": 623.5,
          "duration": 0.5,
          "velocity": 100
        },
        {
          "pitch": 76,
          "onset": 623.5,
          "duration": 0.5,
          "velocity": 100
        },
        {
          "pitch": 79,
          "onset": 623.5,
          "duration": 0.5,
          "velocity": 100
        },
        {
          "pitch": 82,
          "onset": 623.5,
          "duration": 0.5,
          "velocity": 100
        },
        {
          "pitch": 64,
          "onset": 623.75,
          "duration": 0.25,
          "velocity": 100
        },
        {
          "pitch": 72,
          "onset": 624.0,
          "duration": 4.0,
          "velocity": 100
        },
        {
          "pitch": 69,
          "onset": 624.5,
          "duration": 0.25,
          "velocity": 100
        },
        {
          "pitch": 77,
          "onset": 624.5,
          "duration": 0.25,
          "velocity": 100
        },
        {
          "pitch": 84,
          "onset": 624.5,
          "duration": 0.25,
          "velocity": 100
        },
        {
          "pitch": 67,
          "onset": 625.0,
          "duration": 0.5,
          "velocity": 100
        },
        {
          "pitch": 76,
          "onset": 625.0,
          "duration": 0.5,
          "velocity": 100
        },
        {
          "pitch": 82,
          "onset": 625.0,
          "duration": 0.5,
          "velocity": 100
        },
        {
          "pitch": 65,
          "onset": 626.0,
          "duration": 0.25,
          "velocity": 100
        },
        {
          "pitch": 69,
          "onset": 626.0,
          "duration": 0.25,
          "velocity": 100
        },
        {
          "pitch": 77,
          "onset": 626.0,
          "duration": 0.25,
          "velocity": 100
        },
        {
          "pitch": 81,
          "onset": 626.0,
          "duration": 0.25,
          "velocity": 100
        },
        {
          "pitch": 64,
          "onset": 626.5,
          "duration": 0.5,
          "velocity": 100
        },
        {
          "pitch": 70,
          "onset": 626.5,
          "duration": 0.5,
          "velocity": 100
        },
        {
          "pitch": 79,
          "onset": 626.5,
          "duration": 0.5,
          "velocity": 100
        },
        {
          "pitch": 65,
          "onset": 627.5,
          "duration": 0.25,
          "velocity": 100
        },
        {
          "pitch": 69,
          "onset": 627.5,
          "duration": 0.25,
          "velocity": 100
        },
        {
          "pitch": 77,
          "onset": 627.5,
          "duration": 0.25,
          "velocity": 100
        },
        {
          "pitch": 60,
          "onset": 628.0,
          "duration": 4.5,
          "velocity": 100
        },
        {
          "pitch": 67,
          "onset": 628.0,
          "duration": 0.5,
          "velocity": 100
        },
        {
          "pitch": 70,
          "onset": 628.0,
          "duration": 0.5,
          "velocity": 100
        },
        {
          "pitch": 76,
          "onset": 628.0,
          "duration": 0.5,
          "velocity": 100
        },
        {
          "pitch": 48,
          "onset": 629.0,
          "duration": 0.25,
          "velocity": 100
        },
        {
          "pitch": 52,
          "onset": 629.0,
          "duration": 0.25,
          "velocity": 100
        },
        {
          "pitch": 70,
          "onset": 629.0,
          "duration": 0.25,
          "velocity": 100
        },
        {
          "pitch": 74,
          "onset": 629.0,
          "duration": 0.25,
          "velocity": 100
        },
        {
          "pitch": 50,
          "onset": 629.5,
          "duration": 0.5,
          "velocity": 100
        },
        {
          "pitch": 53,
          "onset": 629.5,
          "duration": 0.5,
          "velocity": 100
        },
        {
          "pitch": 69,
          "onset": 629.5,
          "duration": 0.5,
          "velocity": 100
        },
        {
          "pitch": 72,
          "onset": 629.5,
          "duration": 0.5,
          "velocity": 100
        },
        {
          "pitch": 52,
          "onset": 630.5,
          "duration": 0.25,
          "velocity": 100
        },
        {
          "pitch": 55,
          "onset": 630.5,
          "duration": 0.25,
          "velocity": 100
        },
        {
          "pitch": 67,
          "onset": 630.5,
          "duration": 0.25,
          "velocity": 100
        },
        {
          "pitch": 70,
          "onset": 630.5,
          "duration": 0.25,
          "velocity": 100
        },
        {
          "pitch": 53,
          "onset": 631.0,
          "duration": 0.5,
          "velocity": 100
        },
        {
          "pitch": 57,
          "onset": 631.0,
          "duration": 0.5,
          "velocity": 100
        },
        {
          "pitch": 65,
          "onset": 631.0,
          "duration": 0.5,
          "velocity": 100
        },
        {
          "pitch": 69,
          "onset": 631.0,
          "duration": 0.5,
          "velocity": 100
        },
        {
          "pitch": 55,
          "onset": 632.0,
          "duration": 0.25,
          "velocity": 100
        },
        {
          "pitch": 58,
          "onset": 632.0,
          "duration": 0.25,
          "velocity": 100
        },
        {
          "pitch": 64,
          "onset": 632.0,
          "duration": 0.25,
          "velocity": 100
        },
        {
          "pitch": 67,
          "onset": 632.0,
          "duration": 0.25,
          "velocity": 100
        },
        {
          "pitch": 56,
          "onset": 632.5,
          "duration": 0.5,
          "velocity": 100
        },
        {
          "pitch": 59,
          "onset": 632.5,
          "duration": 0.5,
          "velocity": 100
        },
        {
          "pitch": 62,
          "onset": 632.5,
          "duration": 0.5,
          "velocity": 100
        },
        {
          "pitch": 65,
          "onset": 632.5,
          "duration": 0.5,
          "velocity": 100
        },
        {
          "pitch": 48,
          "onset": 633.5,
          "duration": 0.25,
          "velocity": 100
        },
        {
          "pitch": 55,
          "onset": 633.5,
          "duration": 0.25,
          "velocity": 100
        },
        {
          "pitch": 60,
          "onset": 633.5,
          "duration": 0.25,
          "velocity": 100
        },
        {
          "pitch": 65,
          "onset": 633.5,
          "duration": 0.25,
          "velocity": 100
        },
        {
          "pitch": 36,
          "onset": 634.0,
          "duration": 0.5,
          "velocity": 100
        },
        {
          "pitch": 55,
          "onset": 634.0,
          "duration": 0.5,
          "velocity": 100
        },
        {
          "pitch": 58,
          "onset": 634.0,
          "duration": 0.5,
          "velocity": 100
        },
        {
          "pitch": 60,
          "onset": 634.0,
          "duration": 0.5,
          "velocity": 100
        },
        {
          "pitch": 64,
          "onset": 634.0,
          "duration": 0.5,
          "velocity": 100
        },
        {
          "pitch": 56,
          "onset": 634.5,
          "duration": 1.0,
          "velocity": 100
        },
        {
          "pitch": 61,
          "onset": 634.5,
          "duration": 1.0,
          "velocity": 100
        },
        {
          "pitch": 65,
          "onset": 634.5,
          "duration": 1.0,
          "velocity": 100
        },
        {
          "pitch": 49,
          "onset": 634.75,
          "duration": 0.25,
          "velocity": 100
        },
        {
          "pitch": 53,
          "onset": 635.0,
          "duration": 0.25,
          "velocity": 100
        },
        {
          "pitch": 49,
          "onset": 635.25,
          "duration": 0.25,
          "velocity": 100
        },
        {
          "pitch": 56,
          "onset": 635.5,
          "duration": 0.25,
          "velocity": 100
        },
        {
          "pitch": 53,
          "onset": 635.75,
          "duration": 0.25,
          "velocity": 100
        },
        {
          "pitch": 61,
          "onset": 636.0,
          "duration": 1.0,
          "velocity": 100
        },
        {
          "pitch": 66,
          "onset": 636.25,
          "duration": 0.25,
          "velocity": 100
        },
        {
          "pitch": 70,
          "onset": 636.5,
          "duration": 0.25,
          "velocity": 100
        },
        {
          "pitch": 66,
          "onset": 636.75,
          "duration": 0.25,
          "velocity": 100
        },
        {
          "pitch": 73,
          "onset": 637.0,
          "duration": 0.25,
          "velocity": 100
        },
        {
          "pitch": 70,
          "onset": 637.25,
          "duration": 1.25,
          "velocity": 100
        },
        {
          "pitch": 75,
          "onset": 637.5,
          "duration": 1.0,
          "velocity": 100
        },
        {
          "pitch": 79,
          "onset": 637.5,
          "duration": 1.0,
          "velocity": 100
        },
        {
          "pitch": 51,
          "onset": 637.75,
          "duration": 0.25,
          "velocity": 100
        },
        {
          "pitch": 55,
          "onset": 638.0,
          "duration": 0.25,
          "velocity": 100
        },
        {
          "pitch": 51,
          "onset": 638.25,
          "duration": 0.25,
          "velocity": 100
        },
        {
          "pitch": 58,
          "onset": 638.5,
          "duration": 0.25,
          "velocity": 100
        },
        {
          "pitch": 55,
          "onset": 638.75,
          "duration": 0.25,
          "velocity": 100
        },
        {
          "pitch": 63,
          "onset": 639.0,
          "duration": 1.0,
          "velocity": 100
        },
        {
          "pitch": 68,
          "onset": 639.25,
          "duration": 0.25,
          "velocity": 100
        },
        {
          "pitch": 72,
          "onset": 639.5,
          "duration": 0.25,
          "velocity": 100
        },
        {
          "pitch": 68,
          "onset": 639.75,
          "duration": 0.25,
          "velocity": 100
        },
        {
          "pitch": 75,
          "onset": 640.0,
          "duration": 0.25,
          "velocity": 100
        },
        {
          "pitch": 72,
          "onset": 640.25,
          "duration": 1.25,
          "velocity": 100
        },
        {
          "pitch": 77,
          "onset": 640.5,
          "duration": 1.0,
          "velocity": 100
        },
        {
          "pitch": 81,
          "onset": 640.5,
          "duration": 1.0,
          "velocity": 100
        },
        {
          "pitch": 53,
          "onset": 640.75,
          "duration": 0.25,
          "velocity": 100
        },
        {
          "pitch": 57,
          "onset": 641.0,
          "duration": 0.25,
          "velocity": 100
        },
        {
          "pitch": 53,
          "onset": 641.25,
          "duration": 0.25,
          "velocity": 100
        },
        {
          "pitch": 60,
          "onset": 641.5,
          "duration": 0.25,
          "velocity": 100
        },
        {
          "pitch": 57,
          "onset": 641.75,
          "duration": 0.25,
          "velocity": 100
        },
        {
          "pitch": 65,
          "onset": 642.0,
          "duration": 1.0,
          "velocity": 100
        },
        {
          "pitch": 70,
          "onset": 642.25,
          "duration": 0.25,
          "velocity": 100
        },
        {
          "pitch": 73,
          "onset": 642.5,
          "duration": 0.25,
          "velocity": 100
        },
        {
          "pitch": 70,
          "onset": 642.75,
          "duration": 0.25,
          "velocity": 100
        },
        {
          "pitch": 77,
          "onset": 643.0,
          "duration": 0.25,
          "velocity": 100
        },
        {
          "pitch": 73,
          "onset": 643.25,
          "duration": 0.25,
          "velocity": 100
        },
        {
          "pitch": 58,
          "onset": 643.5,
          "duration": 1.0,
          "velocity": 100
        },
        {
          "pitch": 61,
          "onset": 643.5,
          "duration": 1.0,
          "velocity": 100
        },
        {
          "pitch": 66,
          "onset": 643.5,
          "duration": 1.0,
          "velocity": 100
        },
        {
          "pitch": 82,
          "onset": 643.5,
          "duration": 0.25,
          "velocity": 100
        },
        {
          "pitch": 80,
          "onset": 643.75,
          "duration": 0.25,
          "velocity": 100
        },
        {
          "pitch": 82,
          "onset": 644.0,
          "duration": 0.25,
          "velocity": 100
        },
        {
          "pitch": 77,
          "onset": 644.25,
          "duration": 0.25,
          "velocity": 100
        },
        {
          "pitch": 78,
          "onset": 644.5,
          "duration": 0.25,
          "velocity": 100
        },
        {
          "pitch": 73,
          "onset": 644.75,
          "duration": 0.25,
          "velocity": 100
        },
        {
          "pitch": 58,
          "onset": 645.0,
          "duration": 1.0,
          "velocity": 100
        },
        {
          "pitch": 61,
          "onset": 645.0,
          "duration": 1.0,
          "velocity": 100
        },
        {
          "pitch": 66,
          "onset": 645.0,
          "duration": 1.0,
          "velocity": 100
        },
        {
          "pitch": 70,
          "onset": 645.0,
          "duration": 0.25,
          "velocity": 100
        },
        {
          "pitch": 68,
          "onset": 645.25,
          "duration": 0.25,
          "velocity": 100
        },
        {
          "pitch": 70,
          "onset": 645.5,
          "duration": 0.25,
          "velocity": 100
        },
        {
          "pitch": 65,
          "onset": 645.75,
          "duration": 0.25,
          "velocity": 100
        },
        {
          "pitch": 66,
          "onset": 646.0,
          "duration": 0.25,
          "velocity": 100
        },
        {
          "pitch": 61,
          "onset": 646.25,
          "duration": 1.25,
          "velocity": 100
        },
        {
          "pitch": 58,
          "onset": 646.5,
          "duration": 0.25,
          "velocity": 100
        },
        {
          "pitch": 66,
          "onset": 646.5,
          "duration": 1.0,
          "velocity": 100
        },
        {
          "pitch": 70,
          "onset": 646.5,
          "duration": 1.0,
          "velocity": 100
        },
        {
          "pitch": 73,
          "onset": 646.5,
          "duration": 1.0,
          "velocity": 100
        },
        {
          "pitch": 56,
          "onset": 646.75,
          "duration": 0.25,
          "velocity": 100
        },
        {
          "pitch": 58,
          "onset": 647.0,
          "duration": 0.25,
          "velocity": 100
        },
        {
          "pitch": 53,
          "onset": 647.25,
          "duration": 0.25,
          "velocity": 100
        },
        {
          "pitch": 54,
          "onset": 647.5,
          "duration": 0.25,
          "velocity": 100
        },
        {
          "pitch": 49,
          "onset": 647.75,
          "duration": 1.25,
          "velocity": 100
        },
        {
          "pitch": 55,
          "onset": 648.0,
          "duration": 1.0,
          "velocity": 100
        },
        {
          "pitch": 70,
          "onset": 648.0,
          "duration": 1.0,
          "velocity": 100
        },
        {
          "pitch": 73,
          "onset": 648.0,
          "duration": 1.0,
          "velocity": 100
        },
        {
          "pitch": 76,
          "onset": 648.0,
          "duration": 1.0,
          "velocity": 100
        },
        {
          "pitch": 48,
          "onset": 649.5,
          "duration": 1.0,
          "velocity": 100
        },
        {
          "pitch": 55,
          "onset": 649.5,
          "duration": 1.0,
          "velocity": 100
        },
        {
          "pitch": 70,
          "onset": 649.5,
          "duration": 1.0,
          "velocity": 100
        },
        {
          "pitch": 72,
          "onset": 649.5,
          "duration": 1.0,
          "velocity": 100
        },
        {
          "pitch": 79,
          "onset": 649.5,
          "duration": 1.0,
          "velocity": 100
        },
        {
          "pitch": 48,
          "onset": 651.0,
          "duration": 1.0,
          "velocity": 100
        },
        {
          "pitch": 55,
          "onset": 651.0,
          "duration": 1.0,
          "velocity": 100
        },
        {
          "pitch": 67,
          "onset": 651.0,
          "duration": 1.0,
          "velocity": 100
        },
        {
          "pitch": 72,
          "onset": 651.0,
          "duration": 1.0,
          "velocity": 100
        },
        {
          "pitch": 76,
          "onset": 651.0,
          "duration": 1.0,
          "velocity": 100
        },
        {
          "pitch": 48,
          "onset": 652.5,
          "duration": 1.0,
          "velocity": 100
        },
        {
          "pitch": 55,
          "onset": 652.5,
          "duration": 1.0,
          "velocity": 100
        },
        {
          "pitch": 64,
          "onset": 652.5,
          "duration": 1.0,
          "velocity": 100
        },
        {
          "pitch": 67,
          "onset": 652.5,
          "duration": 1.0,
          "velocity": 100
        },
        {
          "pitch": 72,
          "onset": 652.5,
          "duration": 1.0,
          "velocity": 100
        },
        {
          "pitch": 53,
          "onset": 654.5,
          "duration": 0.5,
          "velocity": 100
        },
        {
          "pitch": 57,
          "onset": 654.5,
          "duration": 0.5,
          "velocity": 100
        },
        {
          "pitch": 69,
          "onset": 654.5,
          "duration": 0.5,
          "velocity": 100
        },
        {
          "pitch": 72,
          "onset": 654.5,
          "duration": 0.5,
          "velocity": 100
        },
        {
          "pitch": 77,
          "onset": 654.5,
          "duration": 0.5,
          "velocity": 100
        },
        {
          "pitch": 48,
          "onset": 655.0,
          "duration": 0.5,
          "velocity": 100
        },
        {
          "pitch": 55,
          "onset": 655.0,
          "duration": 0.5,
          "velocity": 100
        },
        {
          "pitch": 70,
          "onset": 655.0,
          "duration": 0.5,
          "velocity": 100
        },
        {
          "pitch": 72,
          "onset": 655.0,
          "duration": 0.5,
          "velocity": 100
        },
        {
          "pitch": 76,
          "onset": 655.0,
          "duration": 0.5,
          "velocity": 100
        },
        {
          "pitch": 48,
          "onset": 655.5,
          "duration": 2.0,
          "velocity": 100
        },
        {
          "pitch": 57,
          "onset": 655.5,
          "duration": 2.0,
          "velocity": 100
        },
        {
          "pitch": 69,
          "onset": 655.5,
          "duration": 2.0,
          "velocity": 100
        },
        {
          "pitch": 72,
          "onset": 655.5,
          "duration": 2.0,
          "velocity": 100
        },
        {
          "pitch": 77,
          "onset": 655.5,
          "duration": 2.0,
          "velocity": 100
        },
        {
          "pitch": 65,
          "onset": 660.5,
          "duration": 0.5,
          "velocity": 1
        }
      ]
    },
    {
      "role": "pedal",
      "notes": [
        {
          "pitch": 29,
          "onset": 0.0,
          "duration": 81.0,
          "velocity": 120
        },
        {
          "pitch": 41,
          "onset": 81.0,
          "duration": 0.25,
          "velocity": 120
        },
        {
          "pitch": 40,
          "onset": 81.25,
          "duration": 0.25,
          "velocity": 120
        },
        {
          "pitch": 41,
          "onset": 81.5,
          "duration": 0.25,
          "velocity": 120
        },
        {
          "pitch": 36,
          "onset": 81.75,
          "duration": 0.25,
          "velocity": 120
        },
        {
          "pitch": 45,
          "onset": 82.0,
          "duration": 0.25,
          "velocity": 120
        },
        {
          "pitch": 41,
          "onset": 82.25,
          "duration": 0.25,
          "velocity": 120
        },
        {
          "pitch": 43,
          "onset": 82.5,
          "duration": 0.25,
          "velocity": 120
        },
        {
          "pitch": 41,
          "onset": 82.75,
          "duration": 0.25,
          "velocity": 120
        },
        {
          "pitch": 43,
          "onset": 83.0,
          "duration": 0.25,
          "velocity": 120
        },
        {
          "pitch": 36,
          "onset": 83.25,
          "duration": 0.25,
          "velocity": 120
        },
        {
          "pitch": 46,
          "onset": 83.5,
          "duration": 0.25,
          "velocity": 120
        },
        {
          "pitch": 43,
          "onset": 83.75,
          "duration": 0.25,
          "velocity": 120
        },
        {
          "pitch": 45,
          "onset": 84.0,
          "duration": 0.25,
          "velocity": 120
        },
        {
          "pitch": 43,
          "onset": 84.25,
          "duration": 0.25,
          "velocity": 120
        },
        {
          "pitch": 45,
          "onset": 84.5,
          "duration": 0.25,
          "velocity": 120
        },
        {
          "pitch": 41,
          "onset": 84.75,
          "duration": 0.25,
          "velocity": 120
        },
        {
          "pitch": 48,
          "onset": 85.0,
          "duration": 0.25,
          "velocity": 120
        },
        {
          "pitch": 45,
          "onset": 85.25,
          "duration": 0.25,
          "velocity": 120
        },
        {
          "pitch": 46,
          "onset": 85.5,
          "duration": 0.25,
          "velocity": 120
        },
        {
          "pitch": 45,
          "onset": 85.75,
          "duration": 0.25,
          "velocity": 120
        },
        {
          "pitch": 46,
          "onset": 86.0,
          "duration": 0.25,
          "velocity": 120
        },
        {
          "pitch": 41,
          "onset": 86.25,
          "duration": 0.25,
          "velocity": 120
        },
        {
          "pitch": 50,
          "onset": 86.5,
          "duration": 0.25,
          "velocity": 120
        },
        {
          "pitch": 46,
          "onset": 86.75,
          "duration": 0.25,
          "velocity": 120
        },
        {
          "pitch": 48,
          "onset": 87.0,
          "duration": 0.25,
          "velocity": 120
        },
        {
          "pitch": 46,
          "onset": 87.25,
          "duration": 0.25,
          "velocity": 120
        },
        {
          "pitch": 48,
          "onset": 87.5,
          "duration": 0.25,
          "velocity": 120
        },
        {
          "pitch": 45,
          "onset": 87.75,
          "duration": 0.25,
          "velocity": 120
        },
        {
          "pitch": 50,
          "onset": 88.0,
          "duration": 0.25,
          "velocity": 120
        },
        {
          "pitch": 45,
          "onset": 88.25,
          "duration": 0.25,
          "velocity": 120
        },
        {
          "pitch": 46,
          "onset": 88.5,
          "duration": 0.25,
          "velocity": 120
        },
        {
          "pitch": 45,
          "onset": 88.75,
          "duration": 0.25,
          "velocity": 120
        },
        {
          "pitch": 46,
          "onset": 89.0,
          "duration": 0.25,
          "velocity": 120
        },
        {
          "pitch": 43,
          "onset": 89.25,
          "duration": 0.25,
          "velocity": 120
        },
        {
          "pitch": 48,
          "onset": 89.5,
          "duration": 0.25,
          "velocity": 120
        },
        {
          "pitch": 43,
          "onset": 89.75,
          "duration": 0.25,
          "velocity": 120
        },
        {
          "pitch": 45,
          "onset": 90.0,
          "duration": 0.25,
          "velocity": 120
        },
        {
          "pitch": 43,
          "onset": 90.25,
          "duration": 0.25,
          "velocity": 120
        },
        {
          "pitch": 45,
          "onset": 90.5,
          "duration": 0.25,
          "velocity": 120
        },
        {
          "pitch": 41,
          "onset": 90.75,
          "duration": 0.25,
          "velocity": 120
        },
        {
          "pitch": 48,
          "onset": 91.0,
          "duration": 0.25,
          "velocity": 120
        },
        {
          "pitch": 39,
          "onset": 91.25,
          "duration": 0.25,
          "velocity": 120
        },
        {
          "pitch": 41,
          "onset": 91.5,
          "duration": 0.25,
          "velocity": 120
        },
        {
          "pitch": 39,
          "onset": 91.75,
          "duration": 0.25,
          "velocity": 120
        },
        {
          "pitch": 41,
          "onset": 92.0,
          "duration": 0.25,
          "velocity": 120
        },
        {
          "pitch": 38,
          "onset": 92.25,
          "duration": 0.25,
          "velocity": 120
        },
        {
          "pitch": 46,
          "onset": 92.5,
          "duration": 0.25,
          "velocity": 120
        },
        {
          "pitch": 38,
          "onset": 92.75,
          "duration": 0.25,
          "velocity": 120
        },
        {
          "pitch": 39,
          "onset": 93.0,
          "duration": 0.25,
          "velocity": 120
        },
        {
          "pitch": 38,
          "onset": 93.25,
          "duration": 0.25,
          "velocity": 120
        },
        {
          "pitch": 39,
          "onset": 93.5,
          "duration": 0.25,
          "velocity": 120
        },
        {
          "pitch": 36,
          "onset": 93.75,
          "duration": 0.25,
          "velocity": 120
        },
        {
          "pitch": 45,
          "onset": 94.0,
          "duration": 0.25,
          "velocity": 120
        },
        {
          "pitch": 36,
          "onset": 94.25,
          "duration": 0.25,
          "velocity": 120
        },
        {
          "pitch": 38,
          "onset": 94.5,
          "duration": 0.25,
          "velocity": 120
        },
        {
          "pitch": 36,
          "onset": 94.75,
          "duration": 0.25,
          "velocity": 120
        },
        {
          "pitch": 38,
          "onset": 95.0,
          "duration": 0.25,
          "velocity": 120
        },
        {
          "pitch": 34,
          "onset": 95.25,
          "duration": 0.25,
          "velocity": 120
        },
        {
          "pitch": 41,
          "onset": 95.5,
          "duration": 0.25,
          "velocity": 120
        },
        {
          "pitch": 38,
          "onset": 95.75,
          "duration": 0.25,
          "velocity": 120
        },
        {
          "pitch": 46,
          "onset": 96.0,
          "duration": 0.25,
          "velocity": 120
        },
        {
          "pitch": 45,
          "onset": 96.25,
          "duration": 0.25,
          "velocity": 120
        },
        {
          "pitch": 46,
          "onset": 96.5,
          "duration": 0.25,
          "velocity": 120
        },
        {
          "pitch": 41,
          "onset": 96.75,
          "duration": 0.25,
          "velocity": 120
        },
        {
          "pitch": 43,
          "onset": 97.0,
          "duration": 0.25,
          "velocity": 120
        },
        {
          "pitch": 38,
          "onset": 97.25,
          "duration": 0.25,
          "velocity": 120
        },
        {
          "pitch": 40,
          "onset": 97.5,
          "duration": 0.25,
          "velocity": 120
        },
        {
          "pitch": 38,
          "onset": 97.75,
          "duration": 0.25,
          "velocity": 120
        },
        {
          "pitch": 40,
          "onset": 98.0,
          "duration": 0.25,
          "velocity": 120
        },
        {
          "pitch": 36,
          "onset": 98.25,
          "duration": 0.25,
          "velocity": 120
        },
        {
          "pitch": 43,
          "onset": 98.5,
          "duration": 0.25,
          "velocity": 120
        },
        {
          "pitch": 40,
          "onset": 98.75,
          "duration": 0.25,
          "velocity": 120
        },
        {
          "pitch": 46,
          "onset": 99.0,
          "duration": 0.25,
          "velocity": 120
        },
        {
          "pitch": 45,
          "onset": 99.25,
          "duration": 0.25,
          "velocity": 120
        },
        {
          "pitch": 46,
          "onset": 99.5,
          "duration": 0.25,
          "velocity": 120
        },
        {
          "pitch": 41,
          "onset": 99.75,
          "duration": 0.25,
          "velocity": 120
        },
        {
          "pitch": 43,
          "onset": 100.0,
          "duration": 0.25,
          "velocity": 120
        },
        {
          "pitch": 38,
          "onset": 100.25,
          "duration": 0.25,
          "velocity": 120
        },
        {
          "pitch": 40,
          "onset": 100.5,
          "duration": 0.25,
          "velocity": 120
        },
        {
          "pitch": 38,
          "onset": 100.75,
          "duration": 0.25,
          "velocity": 120
        },
        {
          "pitch": 40,
          "onset": 101.0,
          "duration": 0.25,
          "velocity": 120
        },
        {
          "pitch": 36,
          "onset": 101.25,
          "duration": 0.25,
          "velocity": 120
        },
        {
          "pitch": 43,
          "onset": 101.5,
          "duration": 0.25,
          "velocity": 120
        },
        {
          "pitch": 40,
          "onset": 101.75,
          "duration": 0.25,
          "velocity": 120
        },
        {
          "pitch": 45,
          "onset": 102.0,
          "duration": 0.25,
          "velocity": 120
        },
        {
          "pitch": 43,
          "onset": 102.25,
          "duration": 0.25,
          "velocity": 120
        },
        {
          "pitch": 45,
          "onset": 102.5,
          "duration": 0.25,
          "velocity": 120
        },
        {
          "pitch": 40,
          "onset": 102.75,
          "duration": 0.25,
          "velocity": 120
        },
        {
          "pitch": 41,
          "onset": 103.0,
          "duration": 0.25,
          "velocity": 120
        },
        {
          "pitch": 36,
          "onset": 103.25,
          "duration": 0.25,
          "velocity": 120
        },
        {
          "pitch": 38,
          "onset": 103.5,
          "duration": 0.25,
          "velocity": 120
        },
        {
          "pitch": 36,
          "onset": 103.75,
          "duration": 0.25,
          "velocity": 120
        },
        {
          "pitch": 38,
          "onset": 104.0,
          "duration": 0.25,
          "velocity": 120
        },
        {
          "pitch": 35,
          "onset": 104.25,
          "duration": 0.25,
          "velocity": 120
        },
        {
          "pitch": 41,
          "onset": 104.5,
          "duration": 0.25,
          "velocity": 120
        },
        {
          "pitch": 38,
          "onset": 104.75,
          "duration": 0.25,
          "velocity": 120
        },
        {
          "pitch": 43,
          "onset": 105.0,
          "duration": 0.25,
          "velocity": 120
        },
        {
          "pitch": 41,
          "onset": 105.25,
          "duration": 0.25,
          "velocity": 120
        },
        {
          "pitch": 43,
          "onset": 105.5,
          "duration": 0.25,
          "velocity": 120
        },
        {
          "pitch": 38,
          "onset": 105.75,
          "duration": 0.25,
          "velocity": 120
        },
        {
          "pitch": 40,
          "onset": 106.0,
          "duration": 0.25,
          "velocity": 120
        },
        {
          "pitch": 35,
          "onset": 106.25,
          "duration": 0.25,
          "velocity": 120
        },
        {
          "pitch": 36,
          "onset": 106.5,
          "duration": 0.25,
          "velocity": 120
        },
        {
          "pitch": 35,
          "onset": 106.75,
          "duration": 0.25,
          "velocity": 120
        },
        {
          "pitch": 36,
          "onset": 107.0,
          "duration": 0.25,
          "velocity": 120
        },
        {
          "pitch": 33,
          "onset": 107.25,
          "duration": 0.25,
          "velocity": 120
        },
        {
          "pitch": 40,
          "onset": 107.5,
          "duration": 0.25,
          "velocity": 120
        },
        {
          "pitch": 36,
          "onset": 107.75,
          "duration": 0.25,
          "velocity": 120
        },
        {
          "pitch": 41,
          "onset": 108.0,
          "duration": 0.25,
          "velocity": 120
        },
        {
          "pitch": 40,
          "onset": 108.25,
          "duration": 0.25,
          "velocity": 120
        },
        {
          "pitch": 41,
          "onset": 108.5,
          "duration": 0.25,
          "velocity": 120
        },
        {
          "pitch": 36,
          "onset": 108.75,
          "duration": 0.25,
          "velocity": 120
        },
        {
          "pitch": 38,
          "onset": 109.0,
          "duration": 0.25,
          "velocity": 120
        },
        {
          "pitch": 33,
          "onset": 109.25,
          "duration": 0.25,
          "velocity": 120
        },
        {
          "pitch": 35,
          "onset": 109.5,
          "duration": 0.25,
          "velocity": 120
        },
        {
          "pitch": 33,
          "onset": 109.75,
          "duration": 0.25,
          "velocity": 120
        },
        {
          "pitch": 35,
          "onset": 110.0,
          "duration": 0.25,
          "velocity": 120
        },
        {
          "pitch": 31,
          "onset": 110.25,
          "duration": 0.25,
          "velocity": 120
        },
        {
          "pitch": 38,
          "onset": 110.5,
          "duration": 0.25,
          "velocity": 120
        },
        {
          "pitch": 35,
          "onset": 110.75,
          "duration": 0.25,
          "velocity": 120
        },
        {
          "pitch": 41,
          "onset": 111.0,
          "duration": 0.25,
          "velocity": 120
        },
        {
          "pitch": 40,
          "onset": 111.25,
          "duration": 0.25,
          "velocity": 120
        },
        {
          "pitch": 41,
          "onset": 111.5,
          "duration": 0.25,
          "velocity": 120
        },
        {
          "pitch": 36,
          "onset": 111.75,
          "duration": 0.25,
          "velocity": 120
        },
        {
          "pitch": 38,
          "onset": 112.0,
          "duration": 0.25,
          "velocity": 120
        },
        {
          "pitch": 33,
          "onset": 112.25,
          "duration": 0.25,
          "velocity": 120
        },
        {
          "pitch": 35,
          "onset": 112.5,
          "duration": 0.25,
          "velocity": 120
        },
        {
          "pitch": 33,
          "onset": 112.75,
          "duration": 0.25,
          "velocity": 120
        },
        {
          "pitch": 35,
          "onset": 113.0,
          "duration": 0.25,
          "velocity": 120
        },
        {
          "pitch": 31,
          "onset": 113.25,
          "duration": 0.25,
          "velocity": 120
        },
        {
          "pitch": 38,
          "onset": 113.5,
          "duration": 0.25,
          "velocity": 120
        },
        {
          "pitch": 35,
          "onset": 113.75,
          "duration": 0.25,
          "velocity": 120
        },
        {
          "pitch": 39,
          "onset": 114.0,
          "duration": 0.25,
          "velocity": 120
        },
        {
          "pitch": 38,
          "onset": 114.25,
          "duration": 0.25,
          "velocity": 120
        },
        {
          "pitch": 39,
          "onset": 114.5,
          "duration": 0.25,
          "velocity": 120
        },
        {
          "pitch": 35,
          "onset": 114.75,
          "duration": 0.25,
          "velocity": 120
        },
        {
          "pitch": 36,
          "onset": 115.0,
          "duration": 0.25,
          "velocity": 120
        },
        {
          "pitch": 31,
          "onset": 115.25,
          "duration": 0.25,
          "velocity": 120
        },
        {
          "pitch": 33,
          "onset": 115.5,
          "duration": 0.25,
          "velocity": 120
        },
        {
          "pitch": 31,
          "onset": 115.75,
          "duration": 0.25,
          "velocity": 120
        },
        {
          "pitch": 33,
          "onset": 116.0,
          "duration": 0.25,
          "velocity": 120
        },
        {
          "pitch": 30,
          "onset": 116.25,
          "duration": 0.25,
          "velocity": 120
        },
        {
          "pitch": 36,
          "onset": 116.5,
          "duration": 0.25,
          "velocity": 120
        },
        {
          "pitch": 33,
          "onset": 116.75,
          "duration": 0.25,
          "velocity": 120
        },
        {
          "pitch": 39,
          "onset": 117.0,
          "duration": 0.25,
          "velocity": 120
        },
        {
          "pitch": 38,
          "onset": 117.25,
          "duration": 0.25,
          "velocity": 120
        },
        {
          "pitch": 39,
          "onset": 117.5,
          "duration": 0.25,
          "velocity": 120
        },
        {
          "pitch": 35,
          "onset": 117.75,
          "duration": 0.25,
          "velocity": 120
        },
        {
          "pitch": 36,
          "onset": 118.0,
          "duration": 0.25,
          "velocity": 120
        },
        {
          "pitch": 31,
          "onset": 118.25,
          "duration": 0.25,
          "velocity": 120
        },
        {
          "pitch": 33,
          "onset": 118.5,
          "duration": 0.25,
          "velocity": 120
        },
        {
          "pitch": 31,
          "onset": 118.75,
          "duration": 0.25,
          "velocity": 120
        },
        {
          "pitch": 33,
          "onset": 119.0,
          "duration": 0.25,
          "velocity": 120
        },
        {
          "pitch": 30,
          "onset": 119.25,
          "duration": 0.25,
          "velocity": 120
        },
        {
          "pitch": 36,
          "onset": 119.5,
          "duration": 0.25,
          "velocity": 120
        },
        {
          "pitch": 33,
          "onset": 119.75,
          "duration": 0.25,
          "velocity": 120
        },
        {
          "pitch": 30,
          "onset": 120.0,
          "duration": 0.5,
          "velocity": 120
        },
        {
          "pitch": 31,
          "onset": 120.5,
          "duration": 1.0,
          "velocity": 120
        },
        {
          "pitch": 24,
          "onset": 121.5,
          "duration": 1.0,
          "velocity": 120
        },
        {
          "pitch": 24,
          "onset": 123.0,
          "duration": 81.0,
          "velocity": 120
        },
        {
          "pitch": 36,
          "onset": 204.0,
          "duration": 0.25,
          "velocity": 120
        },
        {
          "pitch": 35,
          "onset": 204.25,
          "duration": 0.25,
          "velocity": 120
        },
        {
          "pitch": 36,
          "onset": 204.5,
          "duration": 0.25,
          "velocity": 120
        },
        {
          "pitch": 31,
          "onset": 204.75,
          "duration": 0.25,
          "velocity": 120
        },
        {
          "pitch": 40,
          "onset": 205.0,
          "duration": 0.25,
          "velocity": 120
        },
        {
          "pitch": 36,
          "onset": 205.25,
          "duration": 0.25,
          "velocity": 120
        },
        {
          "pitch": 38,
          "onset": 205.5,
          "duration": 0.25,
          "velocity": 120
        },
        {
          "pitch": 36,
          "onset": 205.75,
          "duration": 0.25,
          "velocity": 120
        },
        {
          "pitch": 38,
          "onset": 206.0,
          "duration": 0.25,
          "velocity": 120
        },
        {
          "pitch": 31,
          "onset": 206.25,
          "duration": 0.25,
          "velocity": 120
        },
        {
          "pitch": 41,
          "onset": 206.5,
          "duration": 0.25,
          "velocity": 120
        },
        {
          "pitch": 38,
          "onset": 206.75,
          "duration": 0.25,
          "velocity": 120
        },
        {
          "pitch": 40,
          "onset": 207.0,
          "duration": 0.25,
          "velocity": 120
        },
        {
          "pitch": 38,
          "onset": 207.25,
          "duration": 0.25,
          "velocity": 120
        },
        {
          "pitch": 40,
          "onset": 207.5,
          "duration": 0.25,
          "velocity": 120
        },
        {
          "pitch": 36,
          "onset": 207.75,
          "duration": 0.25,
          "velocity": 120
        },
        {
          "pitch": 43,
          "onset": 208.0,
          "duration": 0.25,
          "velocity": 120
        },
        {
          "pitch": 40,
          "onset": 208.25,
          "duration": 0.25,
          "velocity": 120
        },
        {
          "pitch": 41,
          "onset": 208.5,
          "duration": 0.25,
          "velocity": 120
        },
        {
          "pitch": 40,
          "onset": 208.75,
          "duration": 0.25,
          "velocity": 120
        },
        {
          "pitch": 41,
          "onset": 209.0,
          "duration": 0.25,
          "velocity": 120
        },
        {
          "pitch": 36,
          "onset": 209.25,
          "duration": 0.25,
          "velocity": 120
        },
        {
          "pitch": 45,
          "onset": 209.5,
          "duration": 0.25,
          "velocity": 120
        },
        {
          "pitch": 41,
          "onset": 209.75,
          "duration": 0.25,
          "velocity": 120
        },
        {
          "pitch": 43,
          "onset": 210.0,
          "duration": 0.25,
          "velocity": 120
        },
        {
          "pitch": 41,
          "onset": 210.25,
          "duration": 0.25,
          "velocity": 120
        },
        {
          "pitch": 43,
          "onset": 210.5,
          "duration": 0.25,
          "velocity": 120
        },
        {
          "pitch": 40,
          "onset": 210.75,
          "duration": 0.25,
          "velocity": 120
        },
        {
          "pitch": 45,
          "onset": 211.0,
          "duration": 0.25,
          "velocity": 120
        },
        {
          "pitch": 40,
          "onset": 211.25,
          "duration": 0.25,
          "velocity": 120
        },
        {
          "pitch": 41,
          "onset": 211.5,
          "duration": 0.25,
          "velocity": 120
        },
        {
          "pitch": 40,
          "onset": 211.75,
          "duration": 0.25,
          "velocity": 120
        },
        {
          "pitch": 41,
          "onset": 212.0,
          "duration": 0.25,
          "velocity": 120
        },
        {
          "pitch": 38,
          "onset": 212.25,
          "duration": 0.25,
          "velocity": 120
        },
        {
          "pitch": 43,
          "onset": 212.5,
          "duration": 0.25,
          "velocity": 120
        },
        {
          "pitch": 38,
          "onset": 212.75,
          "duration": 0.25,
          "velocity": 120
        },
        {
          "pitch": 40,
          "onset": 213.0,
          "duration": 0.25,
          "velocity": 120
        },
        {
          "pitch": 38,
          "onset": 213.25,
          "duration": 0.25,
          "velocity": 120
        },
        {
          "pitch": 40,
          "onset": 213.5,
          "duration": 0.25,
          "velocity": 120
        },
        {
          "pitch": 36,
          "onset": 213.75,
          "duration": 0.25,
          "velocity": 120
        },
        {
          "pitch": 43,
          "onset": 214.0,
          "duration": 0.25,
          "velocity": 120
        },
        {
          "pitch": 34,
          "onset": 214.25,
          "duration": 0.25,
          "velocity": 120
        },
        {
          "pitch": 36,
          "onset": 214.5,
          "duration": 0.25,
          "velocity": 120
        },
        {
          "pitch": 34,
          "onset": 214.75,
          "duration": 0.25,
          "velocity": 120
        },
        {
          "pitch": 36,
          "onset": 215.0,
          "duration": 0.25,
          "velocity": 120
        },
        {
          "pitch": 33,
          "onset": 215.25,
          "duration": 0.25,
          "velocity": 120
        },
        {
          "pitch": 41,
          "onset": 215.5,
          "duration": 0.25,
          "velocity": 120
        },
        {
          "pitch": 33,
          "onset": 215.75,
          "duration": 0.25,
          "velocity": 120
        },
        {
          "pitch": 34,
          "onset": 216.0,
          "duration": 0.25,
          "velocity": 120
        },
        {
          "pitch": 33,
          "onset": 216.25,
          "duration": 0.25,
          "velocity": 120
        },
        {
          "pitch": 34,
          "onset": 216.5,
          "duration": 0.25,
          "velocity": 120
        },
        {
          "pitch": 31,
          "onset": 216.75,
          "duration": 0.25,
          "velocity": 120
        },
        {
          "pitch": 40,
          "onset": 217.0,
          "duration": 0.25,
          "velocity": 120
        },
        {
          "pitch": 31,
          "onset": 217.25,
          "duration": 0.25,
          "velocity": 120
        },
        {
          "pitch": 33,
          "onset": 217.5,
          "duration": 0.25,
          "velocity": 120
        },
        {
          "pitch": 31,
          "onset": 217.75,
          "duration": 0.25,
          "velocity": 120
        },
        {
          "pitch": 33,
          "onset": 218.0,
          "duration": 0.25,
          "velocity": 120
        },
        {
          "pitch": 29,
          "onset": 218.25,
          "duration": 0.25,
          "velocity": 120
        },
        {
          "pitch": 36,
          "onset": 218.5,
          "duration": 0.25,
          "velocity": 120
        },
        {
          "pitch": 33,
          "onset": 218.75,
          "duration": 0.25,
          "velocity": 120
        },
        {
          "pitch": 41,
          "onset": 219.0,
          "duration": 0.25,
          "velocity": 120
        },
        {
          "pitch": 40,
          "onset": 219.25,
          "duration": 0.25,
          "velocity": 120
        },
        {
          "pitch": 41,
          "onset": 219.5,
          "duration": 0.25,
          "velocity": 120
        },
        {
          "pitch": 36,
          "onset": 219.75,
          "duration": 0.25,
          "velocity": 120
        },
        {
          "pitch": 38,
          "onset": 220.0,
          "duration": 0.25,
          "velocity": 120
        },
        {
          "pitch": 33,
          "onset": 220.25,
          "duration": 0.25,
          "velocity": 120
        },
        {
          "pitch": 35,
          "onset": 220.5,
          "duration": 0.25,
          "velocity": 120
        },
        {
          "pitch": 33,
          "onset": 220.75,
          "duration": 0.25,
          "velocity": 120
        },
        {
          "pitch": 35,
          "onset": 221.0,
          "duration": 0.25,
          "velocity": 120
        },
        {
          "pitch": 31,
          "onset": 221.25,
          "duration": 0.25,
          "velocity": 120
        },
        {
          "pitch": 38,
          "onset": 221.5,
          "duration": 0.25,
          "velocity": 120
        },
        {
          "pitch": 35,
          "onset": 221.75,
          "duration": 0.25,
          "velocity": 120
        },
        {
          "pitch": 41,
          "onset": 222.0,
          "duration": 0.25,
          "velocity": 120
        },
        {
          "pitch": 40,
          "onset": 222.25,
          "duration": 0.25,
          "velocity": 120
        },
        {
          "pitch": 41,
          "onset": 222.5,
          "duration": 0.25,
          "velocity": 120
        },
        {
          "pitch": 36,
          "onset": 222.75,
          "duration": 0.25,
          "velocity": 120
        },
        {
          "pitch": 38,
          "onset": 223.0,
          "duration": 0.25,
          "velocity": 120
        },
        {
          "pitch": 33,
          "onset": 223.25,
          "duration": 0.25,
          "velocity": 120
        },
        {
          "pitch": 35,
          "onset": 223.5,
          "duration": 0.25,
          "velocity": 120
        },
        {
          "pitch": 33,
          "onset": 223.75,
          "duration": 0.25,
          "velocity": 120
        },
        {
          "pitch": 35,
          "onset": 224.0,
          "duration": 0.25,
          "velocity": 120
        },
        {
          "pitch": 31,
          "onset": 224.25,
          "duration": 0.25,
          "velocity": 120
        },
        {
          "pitch": 38,
          "onset": 224.5,
          "duration": 0.25,
          "velocity": 120
        },
        {
          "pitch": 35,
          "onset": 224.75,
          "duration": 0.25,
          "velocity": 120
        },
        {
          "pitch": 40,
          "onset": 225.0,
          "duration": 0.25,
          "velocity": 120
        },
        {
          "pitch": 38,
          "onset": 225.25,
          "duration": 0.25,
          "velocity": 120
        },
        {
          "pitch": 40,
          "onset": 225.5,
          "duration": 0.25,
          "velocity": 120
        },
        {
          "pitch": 36,
          "onset": 225.75,
          "duration": 0.25,
          "velocity": 120
        },
        {
          "pitch": 43,
          "onset": 226.0,
          "duration": 0.25,
          "velocity": 120
        },
        {
          "pitch": 40,
          "onset": 226.25,
          "duration": 0.25,
          "velocity": 120
        },
        {
          "pitch": 46,
          "onset": 226.5,
          "duration": 0.25,
          "velocity": 120
        },
        {
          "pitch": 45,
          "onset": 226.75,
          "duration": 0.25,
          "velocity": 120
        },
        {
          "pitch": 46,
          "onset": 227.0,
          "duration": 0.25,
          "velocity": 120
        },
        {
          "pitch": 41,
          "onset": 227.25,
          "duration": 0.25,
          "velocity": 120
        },
        {
          "pitch": 43,
          "onset": 227.5,
          "duration": 0.25,
          "velocity": 120
        },
        {
          "pitch": 38,
          "onset": 227.75,
          "duration": 0.25,
          "velocity": 120
        },
        {
          "pitch": 40,
          "onset": 228.0,
          "duration": 0.25,
          "velocity": 120
        },
        {
          "pitch": 38,
          "onset": 228.25,
          "duration": 0.25,
          "velocity": 120
        },
        {
          "pitch": 40,
          "onset": 228.5,
          "duration": 0.25,
          "velocity": 120
        },
        {
          "pitch": 36,
          "onset": 228.75,
          "duration": 0.25,
          "velocity": 120
        },
        {
          "pitch": 43,
          "onset": 229.0,
          "duration": 0.25,
          "velocity": 120
        },
        {
          "pitch": 40,
          "onset": 229.25,
          "duration": 0.25,
          "velocity": 120
        },
        {
          "pitch": 46,
          "onset": 229.5,
          "duration": 0.25,
          "velocity": 120
        },
        {
          "pitch": 45,
          "onset": 229.75,
          "duration": 0.25,
          "velocity": 120
        },
        {
          "pitch": 46,
          "onset": 230.0,
          "duration": 0.25,
          "velocity": 120
        },
        {
          "pitch": 43,
          "onset": 230.25,
          "duration": 0.25,
          "velocity": 120
        },
        {
          "pitch": 48,
          "onset": 230.5,
          "duration": 0.25,
          "velocity": 120
        },
        {
          "pitch": 43,
          "onset": 230.75,
          "duration": 0.25,
          "velocity": 120
        },
        {
          "pitch": 45,
          "onset": 231.0,
          "duration": 0.25,
          "velocity": 120
        },
        {
          "pitch": 43,
          "onset": 231.25,
          "duration": 0.25,
          "velocity": 120
        },
        {
          "pitch": 45,
          "onset": 231.5,
          "duration": 0.25,
          "velocity": 120
        },
        {
          "pitch": 41,
          "onset": 231.75,
          "duration": 0.25,
          "velocity": 120
        },
        {
          "pitch": 48,
          "onset": 232.0,
          "duration": 0.25,
          "velocity": 120
        },
        {
          "pitch": 45,
          "onset": 232.25,
          "duration": 0.25,
          "velocity": 120
        },
        {
          "pitch": 53,
          "onset": 232.5,
          "duration": 0.25,
          "velocity": 120
        },
        {
          "pitch": 52,
          "onset": 232.75,
          "duration": 0.25,
          "velocity": 120
        },
        {
          "pitch": 53,
          "onset": 233.0,
          "duration": 0.25,
          "velocity": 120
        },
        {
          "pitch": 48,
          "onset": 233.25,
          "duration": 0.25,
          "velocity": 120
        },
        {
          "pitch": 50,
          "onset": 233.5,
          "duration": 0.25,
          "velocity": 120
        },
        {
          "pitch": 45,
          "onset": 233.75,
          "duration": 0.25,
          "velocity": 120
        },
        {
          "pitch": 47,
          "onset": 234.0,
          "duration": 0.25,
          "velocity": 120
        },
        {
          "pitch": 45,
          "onset": 234.25,
          "duration": 0.25,
          "velocity": 120
        },
        {
          "pitch": 47,
          "onset": 234.5,
          "duration": 0.25,
          "velocity": 120
        },
        {
          "pitch": 43,
          "onset": 234.75,
          "duration": 0.25,
          "velocity": 120
        },
        {
          "pitch": 50,
          "onset": 235.0,
          "duration": 0.25,
          "velocity": 120
        },
        {
          "pitch": 47,
          "onset": 235.25,
          "duration": 0.25,
          "velocity": 120
        },
        {
          "pitch": 52,
          "onset": 235.5,
          "duration": 0.25,
          "velocity": 120
        },
        {
          "pitch": 50,
          "onset": 235.75,
          "duration": 0.25,
          "velocity": 120
        },
        {
          "pitch": 52,
          "onset": 236.0,
          "duration": 0.25,
          "velocity": 120
        },
        {
          "pitch": 47,
          "onset": 236.25,
          "duration": 0.25,
          "velocity": 120
        },
        {
          "pitch": 48,
          "onset": 236.5,
          "duration": 0.25,
          "velocity": 120
        },
        {
          "pitch": 43,
          "onset": 236.75,
          "duration": 0.25,
          "velocity": 120
        },
        {
          "pitch": 45,
          "onset": 237.0,
          "duration": 0.25,
          "velocity": 120
        },
        {
          "pitch": 43,
          "onset": 237.25,
          "duration": 0.25,
          "velocity": 120
        },
        {
          "pitch": 45,
          "onset": 237.5,
          "duration": 0.25,
          "velocity": 120
        },
        {
          "pitch": 41,
          "onset": 237.75,
          "duration": 0.25,
          "velocity": 120
        },
        {
          "pitch": 48,
          "onset": 238.0,
          "duration": 0.25,
          "velocity": 120
        },
        {
          "pitch": 45,
          "onset": 238.25,
          "duration": 0.25,
          "velocity": 120
        },
        {
          "pitch": 50,
          "onset": 238.5,
          "duration": 0.25,
          "velocity": 120
        },
        {
          "pitch": 48,
          "onset": 238.75,
          "duration": 0.25,
          "velocity": 120
        },
        {
          "pitch": 50,
          "onset": 239.0,
          "duration": 0.25,
          "velocity": 120
        },
        {
          "pitch": 45,
          "onset": 239.25,
          "duration": 0.25,
          "velocity": 120
        },
        {
          "pitch": 47,
          "onset": 239.5,
          "duration": 0.25,
          "velocity": 120
        },
        {
          "pitch": 41,
          "onset": 239.75,
          "duration": 0.25,
          "velocity": 120
        },
        {
          "pitch": 43,
          "onset": 240.0,
          "duration": 0.25,
          "velocity": 120
        },
        {
          "pitch": 41,
          "onset": 240.25,
          "duration": 0.25,
          "velocity": 120
        },
        {
          "pitch": 43,
          "onset": 240.5,
          "duration": 0.25,
          "velocity": 120
        },
        {
          "pitch": 40,
          "onset": 240.75,
          "duration": 0.25,
          "velocity": 120
        },
        {
          "pitch": 47,
          "onset": 241.0,
          "duration": 0.25,
          "velocity": 120
        },
        {
          "pitch": 43,
          "onset": 241.25,
          "duration": 0.25,
          "velocity": 120
        },
        {
          "pitch": 48,
          "onset": 241.5,
          "duration": 0.25,
          "velocity": 120
        },
        {
          "pitch": 47,
          "onset": 241.75,
          "duration": 0.25,
          "velocity": 120
        },
        {
          "pitch": 48,
          "onset": 242.0,
          "duration": 0.25,
          "velocity": 120
        },
        {
          "pitch": 43,
          "onset": 242.25,
          "duration": 0.25,
          "velocity": 120
        },
        {
          "pitch": 45,
          "onset": 242.5,
          "duration": 0.25,
          "velocity": 120
        },
        {
          "pitch": 40,
          "onset": 242.75,
          "duration": 0.25,
          "velocity": 120
        },
        {
          "pitch": 41,
          "onset": 243.0,
          "duration": 0.25,
          "velocity": 120
        },
        {
          "pitch": 40,
          "onset": 243.25,
          "duration": 0.25,
          "velocity": 120
        },
        {
          "pitch": 41,
          "onset": 243.5,
          "duration": 0.25,
          "velocity": 120
        },
        {
          "pitch": 38,
          "onset": 243.75,
          "duration": 0.25,
          "velocity": 120
        },
        {
          "pitch": 45,
          "onset": 244.0,
          "duration": 0.25,
          "velocity": 120
        },
        {
          "pitch": 41,
          "onset": 244.25,
          "duration": 0.25,
          "velocity": 120
        },
        {
          "pitch": 47,
          "onset": 244.5,
          "duration": 0.25,
          "velocity": 120
        },
        {
          "pitch": 45,
          "onset": 244.75,
          "duration": 0.25,
          "velocity": 120
        },
        {
          "pitch": 47,
          "onset": 245.0,
          "duration": 0.25,
          "velocity": 120
        },
        {
          "pitch": 41,
          "onset": 245.25,
          "duration": 0.25,
          "velocity": 120
        },
        {
          "pitch": 43,
          "onset": 245.5,
          "duration": 0.25,
          "velocity": 120
        },
        {
          "pitch": 38,
          "onset": 245.75,
          "duration": 0.25,
          "velocity": 120
        },
        {
          "pitch": 40,
          "onset": 246.0,
          "duration": 0.25,
          "velocity": 120
        },
        {
          "pitch": 38,
          "onset": 246.25,
          "duration": 0.25,
          "velocity": 120
        },
        {
          "pitch": 40,
          "onset": 246.5,
          "duration": 0.25,
          "velocity": 120
        },
        {
          "pitch": 36,
          "onset": 246.75,
          "duration": 0.25,
          "velocity": 120
        },
        {
          "pitch": 43,
          "onset": 247.0,
          "duration": 0.25,
          "velocity": 120
        },
        {
          "pitch": 40,
          "onset": 247.25,
          "duration": 0.25,
          "velocity": 120
        },
        {
          "pitch": 48,
          "onset": 247.5,
          "duration": 0.25,
          "velocity": 120
        },
        {
          "pitch": 47,
          "onset": 247.75,
          "duration": 0.25,
          "velocity": 120
        },
        {
          "pitch": 48,
          "onset": 248.0,
          "duration": 0.25,
          "velocity": 120
        },
        {
          "pitch": 43,
          "onset": 248.25,
          "duration": 0.25,
          "velocity": 120
        },
        {
          "pitch": 45,
          "onset": 248.5,
          "duration": 0.25,
          "velocity": 120
        },
        {
          "pitch": 40,
          "onset": 248.75,
          "duration": 0.25,
          "velocity": 120
        },
        {
          "pitch": 42,
          "onset": 249.0,
          "duration": 0.25,
          "velocity": 120
        },
        {
          "pitch": 40,
          "onset": 249.25,
          "duration": 0.25,
          "velocity": 120
        },
        {
          "pitch": 42,
          "onset": 249.5,
          "duration": 0.25,
          "velocity": 120
        },
        {
          "pitch": 38,
          "onset": 249.75,
          "duration": 0.25,
          "velocity": 120
        },
        {
          "pitch": 45,
          "onset": 250.0,
          "duration": 0.25,
          "velocity": 120
        },
        {
          "pitch": 42,
          "onset": 250.25,
          "duration": 0.25,
          "velocity": 120
        },
        {
          "pitch": 48,
          "onset": 250.5,
          "duration": 0.25,
          "velocity": 120
        },
        {
          "pitch": 47,
          "onset": 250.75,
          "duration": 0.25,
          "velocity": 120
        },
        {
          "pitch": 48,
          "onset": 251.0,
          "duration": 0.25,
          "velocity": 120
        },
        {
          "pitch": 43,
          "onset": 251.25,
          "duration": 0.25,
          "velocity": 120
        },
        {
          "pitch": 45,
          "onset": 251.5,
          "duration": 0.25,
          "velocity": 120
        },
        {
          "pitch": 42,
          "onset": 251.75,
          "duration": 0.25,
          "velocity": 120
        },
        {
          "pitch": 43,
          "onset": 252.0,
          "duration": 1.0,
          "velocity": 120
        },
        {
          "pitch": 31,
          "onset": 253.5,
          "duration": 1.0,
          "velocity": 120
        },
        {
          "pitch": 43,
          "onset": 255.0,
          "duration": 1.0,
          "velocity": 120
        },
        {
          "pitch": 31,
          "onset": 256.5,
          "duration": 1.0,
          "velocity": 120
        },
        {
          "pitch": 43,
          "onset": 258.0,
          "duration": 1.0,
          "velocity": 120
        },
        {
          "pitch": 31,
          "onset": 259.5,
          "duration": 1.0,
          "velocity": 120
        },
        {
          "pitch": 43,
          "onset": 261.0,
          "duration": 1.0,
          "velocity": 120
        },
        {
          "pitch": 36,
          "onset": 262.75,
          "duration": 0.25,
          "velocity": 120
        },
        {
          "pitch": 40,
          "onset": 263.0,
          "duration": 0.25,
          "velocity": 120
        },
        {
          "pitch": 36,
          "onset": 263.25,
          "duration": 0.25,
          "velocity": 120
        },
        {
          "pitch": 43,
          "onset": 263.5,
          "duration": 0.25,
          "velocity": 120
        },
        {
          "pitch": 40,
          "onset": 263.75,
          "duration": 0.25,
          "velocity": 120
        },
        {
          "pitch": 48,
          "onset": 264.0,
          "duration": 1.0,
          "velocity": 120
        },
        {
          "pitch": 46,
          "onset": 265.0,
          "duration": 0.5,
          "velocity": 120
        },
        {
          "pitch": 45,
          "onset": 265.5,
          "duration": 1.0,
          "velocity": 120
        },
        {
          "pitch": 43,
          "onset": 266.5,
          "duration": 0.5,
          "velocity": 120
        },
        {
          "pitch": 41,
          "onset": 267.0,
          "duration": 1.0,
          "velocity": 120
        },
        {
          "pitch": 29,
          "onset": 268.75,
          "duration": 0.25,
          "velocity": 120
        },
        {
          "pitch": 33,
          "onset": 269.0,
          "duration": 0.25,
          "velocity": 120
        },
        {
          "pitch": 29,
          "onset": 269.25,
          "duration": 0.25,
          "velocity": 120
        },
        {
          "pitch": 36,
          "onset": 269.5,
          "duration": 0.25,
          "velocity": 120
        },
        {
          "pitch": 33,
          "onset": 269.75,
          "duration": 0.25,
          "velocity": 120
        },
        {
          "pitch": 41,
          "onset": 270.0,
          "duration": 1.0,
          "velocity": 120
        },
        {
          "pitch": 39,
          "onset": 271.0,
          "duration": 0.5,
          "velocity": 120
        },
        {
          "pitch": 38,
          "onset": 271.5,
          "duration": 1.0,
          "velocity": 120
        },
        {
          "pitch": 36,
          "onset": 272.5,
          "duration": 0.5,
          "velocity": 120
        },
        {
          "pitch": 34,
          "onset": 273.0,
          "duration": 1.0,
          "velocity": 120
        },
        {
          "pitch": 34,
          "onset": 274.75,
          "duration": 0.25,
          "velocity": 120
        },
        {
          "pitch": 38,
          "onset": 275.0,
          "duration": 0.25,
          "velocity": 120
        },
        {
          "pitch": 34,
          "onset": 275.25,
          "duration": 0.25,
          "velocity": 120
        },
        {
          "pitch": 41,
          "onset": 275.5,
          "duration": 0.25,
          "velocity": 120
        },
        {
          "pitch": 38,
          "onset": 275.75,
          "duration": 0.25,
          "velocity": 120
        },
        {
          "pitch": 46,
          "onset": 276.0,
          "duration": 1.0,
          "velocity": 120
        },
        {
          "pitch": 45,
          "onset": 277.0,
          "duration": 0.5,
          "velocity": 120
        },
        {
          "pitch": 43,
          "onset": 277.5,
          "duration": 1.0,
          "velocity": 120
        },
        {
          "pitch": 41,
          "onset": 278.5,
          "duration": 0.5,
          "velocity": 120
        },
        {
          "pitch": 40,
          "onset": 279.0,
          "duration": 1.0,
          "velocity": 120
        },
        {
          "pitch": 33,
          "onset": 280.75,
          "duration": 0.25,
          "velocity": 120
        },
        {
          "pitch": 37,
          "onset": 281.0,
          "duration": 0.25,
          "velocity": 120
        },
        {
          "pitch": 33,
          "onset": 281.25,
          "duration": 0.25,
          "velocity": 120
        },
        {
          "pitch": 40,
          "onset": 281.5,
          "duration": 0.25,
          "velocity": 120
        },
        {
          "pitch": 37,
          "onset": 281.75,
          "duration": 0.25,
          "velocity": 120
        },
        {
          "pitch": 45,
          "onset": 282.0,
          "duration": 1.0,
          "velocity": 120
        },
        {
          "pitch": 43,
          "onset": 283.0,
          "duration": 0.5,
          "velocity": 120
        },
        {
          "pitch": 41,
          "onset": 283.5,
          "duration": 1.0,
          "velocity": 120
        },
        {
          "pitch": 40,
          "onset": 284.5,
          "duration": 0.5,
          "velocity": 120
        },
        {
          "pitch": 38,
          "onset": 285.0,
          "duration": 1.0,
          "velocity": 120
        },
        {
          "pitch": 31,
          "onset": 286.75,
          "duration": 0.25,
          "velocity": 120
        },
        {
          "pitch": 34,
          "onset": 287.0,
          "duration": 0.25,
          "velocity": 120
        },
        {
          "pitch": 31,
          "onset": 287.25,
          "duration": 0.25,
          "velocity": 120
        },
        {
          "pitch": 38,
          "onset": 287.5,
          "duration": 0.25,
          "velocity": 120
        },
        {
          "pitch": 34,
          "onset": 287.75,
          "duration": 0.25,
          "velocity": 120
        },
        {
          "pitch": 43,
          "onset": 288.0,
          "duration": 1.0,
          "velocity": 120
        },
        {
          "pitch": 41,
          "onset": 289.0,
          "duration": 0.5,
          "velocity": 120
        },
        {
          "pitch": 40,
          "onset": 289.5,
          "duration": 1.0,
          "velocity": 120
        },
        {
          "pitch": 38,
          "onset": 290.5,
          "duration": 0.5,
          "velocity": 120
        },
        {
          "pitch": 37,
          "onset": 291.0,
          "duration": 1.0,
          "velocity": 120
        },
        {
          "pitch": 38,
          "onset": 292.0,
          "duration": 0.5,
          "velocity": 120
        },
        {
          "pitch": 31,
          "onset": 292.5,
          "duration": 1.0,
          "velocity": 120
        },
        {
          "pitch": 32,
          "onset": 293.5,
          "duration": 0.5,
          "velocity": 120
        },
        {
          "pitch": 33,
          "onset": 294.0,
          "duration": 1.0,
          "velocity": 120
        },
        {
          "pitch": 45,
          "onset": 295.5,
          "duration": 1.0,
          "velocity": 120
        },
        {
          "pitch": 33,
          "onset": 297.0,
          "duration": 1.0,
          "velocity": 120
        },
        {
          "pitch": 45,
          "onset": 298.5,
          "duration": 1.0,
          "velocity": 120
        },
        {
          "pitch": 33,
          "onset": 300.0,
          "duration": 1.0,
          "velocity": 120
        },
        {
          "pitch": 45,
          "onset": 301.5,
          "duration": 1.0,
          "velocity": 120
        },
        {
          "pitch": 33,
          "onset": 303.0,
          "duration": 1.0,
          "velocity": 120
        },
        {
          "pitch": 32,
          "onset": 304.5,
          "duration": 1.0,
          "velocity": 120
        },
        {
          "pitch": 31,
          "onset": 306.0,
          "duration": 1.0,
          "velocity": 120
        },
        {
          "pitch": 34,
          "onset": 307.5,
          "duration": 1.0,
          "velocity": 120
        },
        {
          "pitch": 33,
          "onset": 309.0,
          "duration": 1.0,
          "velocity": 120
        },
        {
          "pitch": 36,
          "onset": 310.5,
          "duration": 1.0,
          "velocity": 120
        },
        {
          "pitch": 34,
          "onset": 312.0,
          "duration": 1.0,
          "velocity": 120
        },
        {
          "pitch": 31,
          "onset": 313.5,
          "duration": 1.0,
          "velocity": 120
        },
        {
          "pitch": 31,
          "onset": 315.0,
          "duration": 1.0,
          "velocity": 120
        },
        {
          "pitch": 31,
          "onset": 316.5,
          "duration": 1.0,
          "velocity": 120
        },
        {
          "pitch": 31,
          "onset": 318.0,
          "duration": 0.25,
          "velocity": 120
        },
        {
          "pitch": 29,
          "onset": 318.25,
          "duration": 0.25,
          "velocity": 120
        },
        {
          "pitch": 31,
          "onset": 318.5,
          "duration": 0.25,
          "velocity": 120
        },
        {
          "pitch": 28,
          "onset": 318.75,
          "duration": 0.25,
          "velocity": 120
        },
        {
          "pitch": 34,
          "onset": 319.0,
          "duration": 0.25,
          "velocity": 120
        },
        {
          "pitch": 31,
          "onset": 319.25,
          "duration": 0.25,
          "velocity": 120
        },
        {
          "pitch": 37,
          "onset": 319.5,
          "duration": 0.25,
          "velocity": 120
        },
        {
          "pitch": 35,
          "onset": 319.75,
          "duration": 0.25,
          "velocity": 120
        },
        {
          "pitch": 37,
          "onset": 320.0,
          "duration": 0.25,
          "velocity": 120
        },
        {
          "pitch": 33,
          "onset": 320.25,
          "duration": 0.25,
          "velocity": 120
        },
        {
          "pitch": 40,
          "onset": 320.5,
          "duration": 0.25,
          "velocity": 120
        },
        {
          "pitch": 37,
          "onset": 320.75,
          "duration": 0.25,
          "velocity": 120
        },
        {
          "pitch": 43,
          "onset": 321.0,
          "duration": 0.25,
          "velocity": 120
        },
        {
          "pitch": 41,
          "onset": 321.25,
          "duration": 0.25,
          "velocity": 120
        },
        {
          "pitch": 43,
          "onset": 321.5,
          "duration": 0.25,
          "velocity": 120
        },
        {
          "pitch": 38,
          "onset": 321.75,
          "duration": 0.25,
          "velocity": 120
        },
        {
          "pitch": 40,
          "onset": 322.0,
          "duration": 0.25,
          "velocity": 120
        },
        {
          "pitch": 35,
          "onset": 322.25,
          "duration": 0.25,
          "velocity": 120
        },
        {
          "pitch": 37,
          "onset": 322.5,
          "duration": 0.25,
          "velocity": 120
        },
        {
          "pitch": 35,
          "onset": 322.75,
          "duration": 0.25,
          "velocity": 120
        },
        {
          "pitch": 37,
          "onset": 323.0,
          "duration": 0.25,
          "velocity": 120
        },
        {
          "pitch": 33,
          "onset": 323.25,
          "duration": 0.25,
          "velocity": 120
        },
        {
          "pitch": 40,
          "onset": 323.5,
          "duration": 0.25,
          "velocity": 120
        },
        {
          "pitch": 31,
          "onset": 323.75,
          "duration": 0.25,
          "velocity": 120
        },
        {
          "pitch": 29,
          "onset": 324.0,
          "duration": 1.0,
          "velocity": 120
        },
        {
          "pitch": 33,
          "onset": 325.0,
          "duration": 0.5,
          "velocity": 120
        },
        {
          "pitch": 38,
          "onset": 325.5,
          "duration": 0.5,
          "velocity": 120
        },
        {
          "pitch": 29,
          "onset": 326.0,
          "duration": 0.5,
          "velocity": 120
        },
        {
          "pitch": 33,
          "onset": 326.5,
          "duration": 0.5,
          "velocity": 120
        },
        {
          "pitch": 26,
          "onset": 327.0,
          "duration": 0.5,
          "velocity": 120
        },
        {
          "pitch": 29,
          "onset": 327.5,
          "duration": 0.5,
          "velocity": 120
        },
        {
          "pitch": 34,
          "onset": 328.0,
          "duration": 0.5,
          "velocity": 120
        },
        {
          "pitch": 31,
          "onset": 328.5,
          "duration": 0.5,
          "velocity": 120
        },
        {
          "pitch": 28,
          "onset": 329.0,
          "duration": 0.5,
          "velocity": 120
        },
        {
          "pitch": 33,
          "onset": 329.5,
          "duration": 0.5,
          "velocity": 120
        },
        {
          "pitch": 26,
          "onset": 330.0,
          "duration": 1.0,
          "velocity": 120
        },
        {
          "pitch": 38,
          "onset": 333.0,
          "duration": 0.25,
          "velocity": 120
        },
        {
          "pitch": 37,
          "onset": 333.25,
          "duration": 0.25,
          "velocity": 120
        },
        {
          "pitch": 38,
          "onset": 333.5,
          "duration": 0.25,
          "velocity": 120
        },
        {
          "pitch": 33,
          "onset": 333.75,
          "duration": 0.25,
          "velocity": 120
        },
        {
          "pitch": 41,
          "onset": 334.0,
          "duration": 0.25,
          "velocity": 120
        },
        {
          "pitch": 38,
          "onset": 334.25,
          "duration": 0.25,
          "velocity": 120
        },
        {
          "pitch": 40,
          "onset": 334.5,
          "duration": 0.25,
          "velocity": 120
        },
        {
          "pitch": 38,
          "onset": 334.75,
          "duration": 0.25,
          "velocity": 120
        },
        {
          "pitch": 40,
          "onset": 335.0,
          "duration": 0.25,
          "velocity": 120
        },
        {
          "pitch": 33,
          "onset": 335.25,
          "duration": 0.25,
          "velocity": 120
        },
        {
          "pitch": 43,
          "onset": 335.5,
          "duration": 0.25,
          "velocity": 120
        },
        {
          "pitch": 40,
          "onset": 335.75,
          "duration": 0.25,
          "velocity": 120
        },
        {
          "pitch": 41,
          "onset": 336.0,
          "duration": 0.25,
          "velocity": 120
        },
        {
          "pitch": 40,
          "onset": 336.25,
          "duration": 0.25,
          "velocity": 120
        },
        {
          "pitch": 41,
          "onset": 336.5,
          "duration": 0.25,
          "velocity": 120
        },
        {
          "pitch": 38,
          "onset": 336.75,
          "duration": 0.25,
          "velocity": 120
        },
        {
          "pitch": 45,
          "onset": 337.0,
          "duration": 0.25,
          "velocity": 120
        },
        {
          "pitch": 41,
          "onset": 337.25,
          "duration": 0.25,
          "velocity": 120
        },
        {
          "pitch": 43,
          "onset": 337.5,
          "duration": 0.25,
          "velocity": 120
        },
        {
          "pitch": 41,
          "onset": 337.75,
          "duration": 0.25,
          "velocity": 120
        },
        {
          "pitch": 43,
          "onset": 338.0,
          "duration": 0.25,
          "velocity": 120
        },
        {
          "pitch": 40,
          "onset": 338.25,
          "duration": 0.25,
          "velocity": 120
        },
        {
          "pitch": 46,
          "onset": 338.5,
          "duration": 0.25,
          "velocity": 120
        },
        {
          "pitch": 43,
          "onset": 338.75,
          "duration": 0.25,
          "velocity": 120
        },
        {
          "pitch": 45,
          "onset": 339.0,
          "duration": 3.25,
          "velocity": 120
        },
        {
          "pitch": 43,
          "onset": 342.25,
          "duration": 0.25,
          "velocity": 120
        },
        {
          "pitch": 45,
          "onset": 342.5,
          "duration": 0.25,
          "velocity": 120
        },
        {
          "pitch": 41,
          "onset": 342.75,
          "duration": 0.25,
          "velocity": 120
        },
        {
          "pitch": 46,
          "onset": 343.0,
          "duration": 0.25,
          "velocity": 120
        },
        {
          "pitch": 41,
          "onset": 343.25,
          "duration": 0.25,
          "velocity": 120
        },
        {
          "pitch": 43,
          "onset": 343.5,
          "duration": 0.25,
          "velocity": 120
        },
        {
          "pitch": 41,
          "onset": 343.75,
          "duration": 0.25,
          "velocity": 120
        },
        {
          "pitch": 43,
          "onset": 344.0,
          "duration": 0.25,
          "velocity": 120
        },
        {
          "pitch": 40,
          "onset": 344.25,
          "duration": 0.25,
          "velocity": 120
        },
        {
          "pitch": 45,
          "onset": 344.5,
          "duration": 0.25,
          "velocity": 120
        },
        {
          "pitch": 40,
          "onset": 344.75,
          "duration": 0.25,
          "velocity": 120
        },
        {
          "pitch": 41,
          "onset": 345.0,
          "duration": 0.25,
          "velocity": 120
        },
        {
          "pitch": 40,
          "onset": 345.25,
          "duration": 0.25,
          "velocity": 120
        },
        {
          "pitch": 41,
          "onset": 345.5,
          "duration": 0.25,
          "velocity": 120
        },
        {
          "pitch": 38,
          "onset": 345.75,
          "duration": 0.25,
          "velocity": 120
        },
        {
          "pitch": 43,
          "onset": 346.0,
          "duration": 0.25,
          "velocity": 120
        },
        {
          "pitch": 38,
          "onset": 346.25,
          "duration": 0.25,
          "velocity": 120
        },
        {
          "pitch": 40,
          "onset": 346.5,
          "duration": 0.25,
          "velocity": 120
        },
        {
          "pitch": 38,
          "onset": 346.75,
          "duration": 0.25,
          "velocity": 120
        },
        {
          "pitch": 40,
          "onset": 347.0,
          "duration": 0.25,
          "velocity": 120
        },
        {
          "pitch": 36,
          "onset": 347.25,
          "duration": 0.25,
          "velocity": 120
        },
        {
          "pitch": 41,
          "onset": 347.5,
          "duration": 0.25,
          "velocity": 120
        },
        {
          "pitch": 36,
          "onset": 347.75,
          "duration": 0.25,
          "velocity": 120
        },
        {
          "pitch": 38,
          "onset": 348.0,
          "duration": 0.25,
          "velocity": 120
        },
        {
          "pitch": 36,
          "onset": 348.25,
          "duration": 0.25,
          "velocity": 120
        },
        {
          "pitch": 38,
          "onset": 348.5,
          "duration": 0.25,
          "velocity": 120
        },
        {
          "pitch": 35,
          "onset": 348.75,
          "duration": 0.25,
          "velocity": 120
        },
        {
          "pitch": 40,
          "onset": 349.0,
          "duration": 0.25,
          "velocity": 120
        },
        {
          "pitch": 35,
          "onset": 349.25,
          "duration": 0.25,
          "velocity": 120
        },
        {
          "pitch": 37,
          "onset": 349.5,
          "duration": 1.0,
          "velocity": 120
        },
        {
          "pitch": 38,
          "onset": 351.0,
          "duration": 1.0,
          "velocity": 120
        },
        {
          "pitch": 34,
          "onset": 352.5,
          "duration": 1.0,
          "velocity": 120
        },
        {
          "pitch": 31,
          "onset": 354.0,
          "duration": 1.0,
          "velocity": 120
        },
        {
          "pitch": 33,
          "onset": 355.75,
          "duration": 0.25,
          "velocity": 120
        },
        {
          "pitch": 37,
          "onset": 356.0,
          "duration": 0.25,
          "velocity": 120
        },
        {
          "pitch": 33,
          "onset": 356.25,
          "duration": 0.25,
          "velocity": 120
        },
        {
          "pitch": 40,
          "onset": 356.5,
          "duration": 0.25,
          "velocity": 120
        },
        {
          "pitch": 37,
          "onset": 356.75,
          "duration": 0.25,
          "velocity": 120
        },
        {
          "pitch": 45,
          "onset": 357.0,
          "duration": 1.0,
          "velocity": 120
        },
        {
          "pitch": 43,
          "onset": 358.0,
          "duration": 0.5,
          "velocity": 120
        },
        {
          "pitch": 41,
          "onset": 358.5,
          "duration": 1.0,
          "velocity": 120
        },
        {
          "pitch": 40,
          "onset": 359.5,
          "duration": 0.5,
          "velocity": 120
        },
        {
          "pitch": 38,
          "onset": 360.0,
          "duration": 1.0,
          "velocity": 120
        },
        {
          "pitch": 38,
          "onset": 361.75,
          "duration": 0.25,
          "velocity": 120
        },
        {
          "pitch": 42,
          "onset": 362.0,
          "duration": 0.25,
          "velocity": 120
        },
        {
          "pitch": 38,
          "onset": 362.25,
          "duration": 0.25,
          "velocity": 120
        },
        {
          "pitch": 45,
          "onset": 362.5,
          "duration": 0.25,
          "velocity": 120
        },
        {
          "pitch": 42,
          "onset": 362.75,
          "duration": 0.25,
          "velocity": 120
        },
        {
          "pitch": 50,
          "onset": 363.0,
          "duration": 1.0,
          "velocity": 120
        },
        {
          "pitch": 48,
          "onset": 364.0,
          "duration": 0.5,
          "velocity": 120
        },
        {
          "pitch": 47,
          "onset": 364.5,
          "duration": 1.0,
          "velocity": 120
        },
        {
          "pitch": 45,
          "onset": 365.5,
          "duration": 0.5,
          "velocity": 120
        },
        {
          "pitch": 43,
          "onset": 366.0,
          "duration": 1.0,
          "velocity": 120
        },
        {
          "pitch": 31,
          "onset": 367.75,
          "duration": 0.25,
          "velocity": 120
        },
        {
          "pitch": 35,
          "onset": 368.0,
          "duration": 0.25,
          "velocity": 120
        },
        {
          "pitch": 31,
          "onset": 368.25,
          "duration": 0.25,
          "velocity": 120
        },
        {
          "pitch": 38,
          "onset": 368.5,
          "duration": 0.25,
          "velocity": 120
        },
        {
          "pitch": 35,
          "onset": 368.75,
          "duration": 0.25,
          "velocity": 120
        },
        {
          "pitch": 43,
          "onset": 369.0,
          "duration": 1.0,
          "velocity": 120
        },
        {
          "pitch": 41,
          "onset": 370.0,
          "duration": 0.5,
          "velocity": 120
        },
        {
          "pitch": 40,
          "onset": 370.5,
          "duration": 1.0,
          "velocity": 120
        },
        {
          "pitch": 38,
          "onset": 371.5,
          "duration": 0.5,
          "velocity": 120
        },
        {
          "pitch": 36,
          "onset": 372.0,
          "duration": 1.0,
          "velocity": 120
        },
        {
          "pitch": 29,
          "onset": 373.75,
          "duration": 0.25,
          "velocity": 120
        },
        {
          "pitch": 33,
          "onset": 374.0,
          "duration": 0.25,
          "velocity": 120
        },
        {
          "pitch": 29,
          "onset": 374.25,
          "duration": 0.25,
          "velocity": 120
        },
        {
          "pitch": 36,
          "onset": 374.5,
          "duration": 0.25,
          "velocity": 120
        },
        {
          "pitch": 33,
          "onset": 374.75,
          "duration": 0.25,
          "velocity": 120
        },
        {
          "pitch": 41,
          "onset": 375.0,
          "duration": 1.0,
          "velocity": 120
        },
        {
          "pitch": 40,
          "onset": 376.0,
          "duration": 0.5,
          "velocity": 120
        },
        {
          "pitch": 38,
          "onset": 376.5,
          "duration": 1.0,
          "velocity": 120
        },
        {
          "pitch": 36,
          "onset": 377.5,
          "duration": 0.5,
          "velocity": 120
        },
        {
          "pitch": 35,
          "onset": 378.0,
          "duration": 1.0,
          "velocity": 120
        },
        {
          "pitch": 40,
          "onset": 379.75,
          "duration": 0.25,
          "velocity": 120
        },
        {
          "pitch": 44,
          "onset": 380.0,
          "duration": 0.25,
          "velocity": 120
        },
        {
          "pitch": 40,
          "onset": 380.25,
          "duration": 0.25,
          "velocity": 120
        },
        {
          "pitch": 47,
          "onset": 380.5,
          "duration": 0.25,
          "velocity": 120
        },
        {
          "pitch": 44,
          "onset": 380.75,
          "duration": 0.25,
          "velocity": 120
        },
        {
          "pitch": 52,
          "onset": 381.0,
          "duration": 1.0,
          "velocity": 120
        },
        {
          "pitch": 50,
          "onset": 382.0,
          "duration": 0.5,
          "velocity": 120
        },
        {
          "pitch": 48,
          "onset": 382.5,
          "duration": 1.0,
          "velocity": 120
        },
        {
          "pitch": 47,
          "onset": 383.5,
          "duration": 0.5,
          "velocity": 120
        },
        {
          "pitch": 45,
          "onset": 384.0,
          "duration": 1.0,
          "velocity": 120
        },
        {
          "pitch": 38,
          "onset": 385.75,
          "duration": 0.25,
          "velocity": 120
        },
        {
          "pitch": 41,
          "onset": 386.0,
          "duration": 0.25,
          "velocity": 120
        },
        {
          "pitch": 38,
          "onset": 386.25,
          "duration": 0.25,
          "velocity": 120
        },
        {
          "pitch": 45,
          "onset": 386.5,
          "duration": 0.25,
          "velocity": 120
        },
        {
          "pitch": 41,
          "onset": 386.75,
          "duration": 0.25,
          "velocity": 120
        },
        {
          "pitch": 50,
          "onset": 387.0,
          "duration": 1.0,
          "velocity": 120
        },
        {
          "pitch": 48,
          "onset": 388.0,
          "duration": 0.5,
          "velocity": 120
        },
        {
          "pitch": 47,
          "onset": 388.5,
          "duration": 1.0,
          "velocity": 120
        },
        {
          "pitch": 45,
          "onset": 389.5,
          "duration": 0.5,
          "velocity": 120
        },
        {
          "pitch": 44,
          "onset": 390.0,
          "duration": 1.0,
          "velocity": 120
        },
        {
          "pitch": 45,
          "onset": 391.0,
          "duration": 0.5,
          "velocity": 120
        },
        {
          "pitch": 38,
          "onset": 391.5,
          "duration": 1.0,
          "velocity": 120
        },
        {
          "pitch": 39,
          "onset": 392.5,
          "duration": 0.5,
          "velocity": 120
        },
        {
          "pitch": 40,
          "onset": 393.0,
          "duration": 1.0,
          "velocity": 120
        },
        {
          "pitch": 28,
          "onset": 394.5,
          "duration": 1.0,
          "velocity": 120
        },
        {
          "pitch": 40,
          "onset": 396.0,
          "duration": 1.0,
          "velocity": 120
        },
        {
          "pitch": 28,
          "onset": 397.5,
          "duration": 1.0,
          "velocity": 120
        },
        {
          "pitch": 40,
          "onset": 399.0,
          "duration": 1.0,
          "velocity": 120
        },
        {
          "pitch": 28,
          "onset": 400.5,
          "duration": 1.0,
          "velocity": 120
        },
        {
          "pitch": 40,
          "onset": 402.0,
          "duration": 1.0,
          "velocity": 120
        },
        {
          "pitch": 33,
          "onset": 403.5,
          "duration": 0.25,
          "velocity": 120
        },
        {
          "pitch": 32,
          "onset": 403.75,
          "duration": 0.25,
          "velocity": 120
        },
        {
          "pitch": 33,
          "onset": 404.0,
          "duration": 0.25,
          "velocity": 120
        },
        {
          "pitch": 28,
          "onset": 404.25,
          "duration": 0.25,
          "velocity": 120
        },
        {
          "pitch": 35,
          "onset": 404.5,
          "duration": 0.25,
          "velocity": 120
        },
        {
          "pitch": 28,
          "onset": 404.75,
          "duration": 0.25,
          "velocity": 120
        },
        {
          "pitch": 36,
          "onset": 405.0,
          "duration": 0.5,
          "velocity": 120
        },
        {
          "pitch": 33,
          "onset": 405.5,
          "duration": 0.5,
          "velocity": 120
        },
        {
          "pitch": 45,
          "onset": 406.0,
          "duration": 1.0,
          "velocity": 120
        },
        {
          "pitch": 44,
          "onset": 407.0,
          "duration": 0.125,
          "velocity": 120
        },
        {
          "pitch": 45,
          "onset": 407.125,
          "duration": 0.125,
          "velocity": 120
        },
        {
          "pitch": 44,
          "onset": 407.25,
          "duration": 0.125,
          "velocity": 120
        },
        {
          "pitch": 45,
          "onset": 407.375,
          "duration": 0.125,
          "velocity": 120
        },
        {
          "pitch": 44,
          "onset": 407.5,
          "duration": 0.125,
          "velocity": 120
        },
        {
          "pitch": 45,
          "onset": 407.625,
          "duration": 0.125,
          "velocity": 120
        },
        {
          "pitch": 41,
          "onset": 407.75,
          "duration": 0.125,
          "velocity": 120
        },
        {
          "pitch": 44,
          "onset": 407.875,
          "duration": 0.125,
          "velocity": 120
        },
        {
          "pitch": 45,
          "onset": 408.0,
          "duration": 0.25,
          "velocity": 120
        },
        {
          "pitch": 44,
          "onset": 408.25,
          "duration": 0.25,
          "velocity": 120
        },
        {
          "pitch": 45,
          "onset": 408.5,
          "duration": 0.25,
          "velocity": 120
        },
        {
          "pitch": 40,
          "onset": 408.75,
          "duration": 0.25,
          "velocity": 120
        },
        {
          "pitch": 48,
          "onset": 409.0,
          "duration": 0.25,
          "velocity": 120
        },
        {
          "pitch": 45,
          "onset": 409.25,
          "duration": 0.25,
          "velocity": 120
        },
        {
          "pitch": 47,
          "onset": 409.5,
          "duration": 0.25,
          "velocity": 120
        },
        {
          "pitch": 45,
          "onset": 409.75,
          "duration": 0.25,
          "velocity": 120
        },
        {
          "pitch": 47,
          "onset": 410.0,
          "duration": 0.25,
          "velocity": 120
        },
        {
          "pitch": 40,
          "onset": 410.25,
          "duration": 0.25,
          "velocity": 120
        },
        {
          "pitch": 50,
          "onset": 410.5,
          "duration": 0.25,
          "velocity": 120
        },
        {
          "pitch": 47,
          "onset": 410.75,
          "duration": 0.25,
          "velocity": 120
        },
        {
          "pitch": 48,
          "onset": 411.0,
          "duration": 0.5,
          "velocity": 120
        },
        {
          "pitch": 40,
          "onset": 411.5,
          "duration": 0.5,
          "velocity": 120
        },
        {
          "pitch": 45,
          "onset": 412.0,
          "duration": 1.0,
          "velocity": 120
        },
        {
          "pitch": 44,
          "onset": 413.0,
          "duration": 0.5,
          "velocity": 120
        },
        {
          "pitch": 47,
          "onset": 413.5,
          "duration": 1.0,
          "velocity": 120
        },
        {
          "pitch": 45,
          "onset": 414.5,
          "duration": 0.5,
          "velocity": 120
        },
        {
          "pitch": 48,
          "onset": 415.0,
          "duration": 1.0,
          "velocity": 120
        },
        {
          "pitch": 47,
          "onset": 416.0,
          "duration": 0.5,
          "velocity": 120
        },
        {
          "pitch": 50,
          "onset": 416.5,
          "duration": 0.75,
          "velocity": 120
        },
        {
          "pitch": 48,
          "onset": 417.25,
          "duration": 0.25,
          "velocity": 120
        },
        {
          "pitch": 50,
          "onset": 417.5,
          "duration": 0.25,
          "velocity": 120
        },
        {
          "pitch": 47,
          "onset": 417.75,
          "duration": 0.25,
          "velocity": 120
        },
        {
          "pitch": 52,
          "onset": 418.0,
          "duration": 0.25,
          "velocity": 120
        },
        {
          "pitch": 47,
          "onset": 418.25,
          "duration": 0.25,
          "velocity": 120
        },
        {
          "pitch": 48,
          "onset": 418.5,
          "duration": 1.75,
          "velocity": 120
        },
        {
          "pitch": 47,
          "onset": 420.25,
          "duration": 0.25,
          "velocity": 120
        },
        {
          "pitch": 48,
          "onset": 420.5,
          "duration": 0.25,
          "velocity": 120
        },
        {
          "pitch": 45,
          "onset": 420.75,
          "duration": 0.25,
          "velocity": 120
        },
        {
          "pitch": 50,
          "onset": 421.0,
          "duration": 0.25,
          "velocity": 120
        },
        {
          "pitch": 45,
          "onset": 421.25,
          "duration": 0.25,
          "velocity": 120
        },
        {
          "pitch": 47,
          "onset": 421.5,
          "duration": 0.25,
          "velocity": 120
        },
        {
          "pitch": 45,
          "onset": 421.75,
          "duration": 0.25,
          "velocity": 120
        },
        {
          "pitch": 47,
          "onset": 422.0,
          "duration": 0.25,
          "velocity": 120
        },
        {
          "pitch": 43,
          "onset": 422.25,
          "duration": 0.25,
          "velocity": 120
        },
        {
          "pitch": 48,
          "onset": 422.5,
          "duration": 0.25,
          "velocity": 120
        },
        {
          "pitch": 43,
          "onset": 422.75,
          "duration": 0.25,
          "velocity": 120
        },
        {
          "pitch": 45,
          "onset": 423.0,
          "duration": 0.25,
          "velocity": 120
        },
        {
          "pitch": 43,
          "onset": 423.25,
          "duration": 0.25,
          "velocity": 120
        },
        {
          "pitch": 45,
          "onset": 423.5,
          "duration": 0.25,
          "velocity": 120
        },
        {
          "pitch": 41,
          "onset": 423.75,
          "duration": 0.25,
          "velocity": 120
        },
        {
          "pitch": 47,
          "onset": 424.0,
          "duration": 0.25,
          "velocity": 120
        },
        {
          "pitch": 41,
          "onset": 424.25,
          "duration": 0.25,
          "velocity": 120
        },
        {
          "pitch": 43,
          "onset": 424.5,
          "duration": 0.25,
          "velocity": 120
        },
        {
          "pitch": 41,
          "onset": 424.75,
          "duration": 0.25,
          "velocity": 120
        },
        {
          "pitch": 43,
          "onset": 425.0,
          "duration": 0.25,
          "velocity": 120
        },
        {
          "pitch": 40,
          "onset": 425.25,
          "duration": 0.25,
          "velocity": 120
        },
        {
          "pitch": 45,
          "onset": 425.5,
          "duration": 0.25,
          "velocity": 120
        },
        {
          "pitch": 40,
          "onset": 425.75,
          "duration": 0.25,
          "velocity": 120
        },
        {
          "pitch": 42,
          "onset": 426.0,
          "duration": 0.75,
          "velocity": 120
        },
        {
          "pitch": 45,
          "onset": 426.75,
          "duration": 0.25,
          "velocity": 120
        },
        {
          "pitch": 44,
          "onset": 427.0,
          "duration": 0.25,
          "velocity": 120
        },
        {
          "pitch": 45,
          "onset": 427.25,
          "duration": 0.25,
          "velocity": 120
        },
        {
          "pitch": 35,
          "onset": 427.5,
          "duration": 0.75,
          "velocity": 120
        },
        {
          "pitch": 40,
          "onset": 428.25,
          "duration": 0.25,
          "velocity": 120
        },
        {
          "pitch": 38,
          "onset": 428.5,
          "duration": 0.25,
          "velocity": 120
        },
        {
          "pitch": 40,
          "onset": 428.75,
          "duration": 0.25,
          "velocity": 120
        },
        {
          "pitch": 33,
          "onset": 429.0,
          "duration": 1.0,
          "velocity": 120
        },
        {
          "pitch": 29,
          "onset": 430.5,
          "duration": 1.0,
          "velocity": 120
        },
        {
          "pitch": 26,
          "onset": 432.0,
          "duration": 1.0,
          "velocity": 120
        },
        {
          "pitch": 28,
          "onset": 433.75,
          "duration": 0.25,
          "velocity": 120
        },
        {
          "pitch": 32,
          "onset": 434.0,
          "duration": 0.25,
          "velocity": 120
        },
        {
          "pitch": 28,
          "onset": 434.25,
          "duration": 0.25,
          "velocity": 120
        },
        {
          "pitch": 35,
          "onset": 434.5,
          "duration": 0.25,
          "velocity": 120
        },
        {
          "pitch": 32,
          "onset": 434.75,
          "duration": 0.25,
          "velocity": 120
        },
        {
          "pitch": 40,
          "onset": 435.0,
          "duration": 1.0,
          "velocity": 120
        },
        {
          "pitch": 38,
          "onset": 436.0,
          "duration": 0.5,
          "velocity": 120
        },
        {
          "pitch": 36,
          "onset": 436.5,
          "duration": 1.0,
          "velocity": 120
        },
        {
          "pitch": 35,
          "onset": 437.5,
          "duration": 0.5,
          "velocity": 120
        },
        {
          "pitch": 33,
          "onset": 438.0,
          "duration": 1.0,
          "velocity": 120
        },
        {
          "pitch": 33,
          "onset": 439.75,
          "duration": 0.25,
          "velocity": 120
        },
        {
          "pitch": 37,
          "onset": 440.0,
          "duration": 0.25,
          "velocity": 120
        },
        {
          "pitch": 33,
          "onset": 440.25,
          "duration": 0.25,
          "velocity": 120
        },
        {
          "pitch": 40,
          "onset": 440.5,
          "duration": 0.25,
          "velocity": 120
        },
        {
          "pitch": 37,
          "onset": 440.75,
          "duration": 0.25,
          "velocity": 120
        },
        {
          "pitch": 45,
          "onset": 441.0,
          "duration": 1.0,
          "velocity": 120
        },
        {
          "pitch": 43,
          "onset": 442.0,
          "duration": 0.5,
          "velocity": 120
        },
        {
          "pitch": 41,
          "onset": 442.5,
          "duration": 1.0,
          "velocity": 120
        },
        {
          "pitch": 40,
          "onset": 443.5,
          "duration": 0.5,
          "velocity": 120
        },
        {
          "pitch": 38,
          "onset": 444.0,
          "duration": 1.0,
          "velocity": 120
        },
        {
          "pitch": 38,
          "onset": 445.75,
          "duration": 0.25,
          "velocity": 120
        },
        {
          "pitch": 42,
          "onset": 446.0,
          "duration": 0.25,
          "velocity": 120
        },
        {
          "pitch": 38,
          "onset": 446.25,
          "duration": 0.25,
          "velocity": 120
        },
        {
          "pitch": 45,
          "onset": 446.5,
          "duration": 0.25,
          "velocity": 120
        },
        {
          "pitch": 42,
          "onset": 446.75,
          "duration": 0.25,
          "velocity": 120
        },
        {
          "pitch": 50,
          "onset": 447.0,
          "duration": 1.0,
          "velocity": 120
        },
        {
          "pitch": 48,
          "onset": 448.0,
          "duration": 0.5,
          "velocity": 120
        },
        {
          "pitch": 46,
          "onset": 448.5,
          "duration": 1.0,
          "velocity": 120
        },
        {
          "pitch": 45,
          "onset": 449.5,
          "duration": 0.5,
          "velocity": 120
        },
        {
          "pitch": 43,
          "onset": 450.0,
          "duration": 1.0,
          "velocity": 120
        },
        {
          "pitch": 31,
          "onset": 451.75,
          "duration": 0.25,
          "velocity": 120
        },
        {
          "pitch": 35,
          "onset": 452.0,
          "duration": 0.25,
          "velocity": 120
        },
        {
          "pitch": 31,
          "onset": 452.25,
          "duration": 0.25,
          "velocity": 120
        },
        {
          "pitch": 38,
          "onset": 452.5,
          "duration": 0.25,
          "velocity": 120
        },
        {
          "pitch": 35,
          "onset": 452.75,
          "duration": 0.25,
          "velocity": 120
        },
        {
          "pitch": 43,
          "onset": 453.0,
          "duration": 1.0,
          "velocity": 120
        },
        {
          "pitch": 41,
          "onset": 454.0,
          "duration": 0.5,
          "velocity": 120
        },
        {
          "pitch": 39,
          "onset": 454.5,
          "duration": 1.0,
          "velocity": 120
        },
        {
          "pitch": 38,
          "onset": 455.5,
          "duration": 0.5,
          "velocity": 120
        },
        {
          "pitch": 36,
          "onset": 456.0,
          "duration": 1.0,
          "velocity": 120
        },
        {
          "pitch": 36,
          "onset": 457.75,
          "duration": 0.25,
          "velocity": 120
        },
        {
          "pitch": 39,
          "onset": 458.0,
          "duration": 0.25,
          "velocity": 120
        },
        {
          "pitch": 36,
          "onset": 458.25,
          "duration": 0.25,
          "velocity": 120
        },
        {
          "pitch": 43,
          "onset": 458.5,
          "duration": 0.25,
          "velocity": 120
        },
        {
          "pitch": 39,
          "onset": 458.75,
          "duration": 0.25,
          "velocity": 120
        },
        {
          "pitch": 48,
          "onset": 459.0,
          "duration": 1.0,
          "velocity": 120
        },
        {
          "pitch": 46,
          "onset": 460.0,
          "duration": 0.5,
          "velocity": 120
        },
        {
          "pitch": 45,
          "onset": 460.5,
          "duration": 1.0,
          "velocity": 120
        },
        {
          "pitch": 43,
          "onset": 461.5,
          "duration": 0.5,
          "velocity": 120
        },
        {
          "pitch": 42,
          "onset": 462.0,
          "duration": 1.0,
          "velocity": 120
        },
        {
          "pitch": 43,
          "onset": 463.0,
          "duration": 0.5,
          "velocity": 120
        },
        {
          "pitch": 36,
          "onset": 463.5,
          "duration": 1.0,
          "velocity": 120
        },
        {
          "pitch": 37,
          "onset": 464.5,
          "duration": 0.5,
          "velocity": 120
        },
        {
          "pitch": 38,
          "onset": 465.0,
          "duration": 1.0,
          "velocity": 120
        },
        {
          "pitch": 26,
          "onset": 466.5,
          "duration": 1.0,
          "velocity": 120
        },
        {
          "pitch": 38,
          "onset": 468.0,
          "duration": 1.0,
          "velocity": 120
        },
        {
          "pitch": 26,
          "onset": 469.5,
          "duration": 1.0,
          "velocity": 120
        },
        {
          "pitch": 38,
          "onset": 471.0,
          "duration": 1.0,
          "velocity": 120
        },
        {
          "pitch": 26,
          "onset": 472.5,
          "duration": 1.0,
          "velocity": 120
        },
        {
          "pitch": 38,
          "onset": 474.0,
          "duration": 1.0,
          "velocity": 120
        },
        {
          "pitch": 37,
          "onset": 475.5,
          "duration": 1.0,
          "velocity": 120
        },
        {
          "pitch": 36,
          "onset": 477.0,
          "duration": 1.0,
          "velocity": 120
        },
        {
          "pitch": 39,
          "onset": 478.5,
          "duration": 1.0,
          "velocity": 120
        },
        {
          "pitch": 38,
          "onset": 480.0,
          "duration": 1.0,
          "velocity": 120
        },
        {
          "pitch": 41,
          "onset": 481.5,
          "duration": 1.0,
          "velocity": 120
        },
        {
          "pitch": 39,
          "onset": 483.0,
          "duration": 1.0,
          "velocity": 120
        },
        {
          "pitch": 36,
          "onset": 484.5,
          "duration": 1.0,
          "velocity": 120
        },
        {
          "pitch": 36,
          "onset": 486.0,
          "duration": 1.0,
          "velocity": 120
        },
        {
          "pitch": 36,
          "onset": 487.5,
          "duration": 1.0,
          "velocity": 120
        },
        {
          "pitch": 36,
          "onset": 489.0,
          "duration": 0.25,
          "velocity": 120
        },
        {
          "pitch": 34,
          "onset": 489.25,
          "duration": 0.25,
          "velocity": 120
        },
        {
          "pitch": 36,
          "onset": 489.5,
          "duration": 0.25,
          "velocity": 120
        },
        {
          "pitch": 33,
          "onset": 489.75,
          "duration": 0.25,
          "velocity": 120
        },
        {
          "pitch": 39,
          "onset": 490.0,
          "duration": 0.25,
          "velocity": 120
        },
        {
          "pitch": 36,
          "onset": 490.25,
          "duration": 0.25,
          "velocity": 120
        },
        {
          "pitch": 42,
          "onset": 490.5,
          "duration": 0.25,
          "velocity": 120
        },
        {
          "pitch": 40,
          "onset": 490.75,
          "duration": 0.25,
          "velocity": 120
        },
        {
          "pitch": 42,
          "onset": 491.0,
          "duration": 0.25,
          "velocity": 120
        },
        {
          "pitch": 38,
          "onset": 491.25,
          "duration": 0.25,
          "velocity": 120
        },
        {
          "pitch": 45,
          "onset": 491.5,
          "duration": 0.25,
          "velocity": 120
        },
        {
          "pitch": 42,
          "onset": 491.75,
          "duration": 0.25,
          "velocity": 120
        },
        {
          "pitch": 48,
          "onset": 492.0,
          "duration": 0.25,
          "velocity": 120
        },
        {
          "pitch": 46,
          "onset": 492.25,
          "duration": 0.25,
          "velocity": 120
        },
        {
          "pitch": 48,
          "onset": 492.5,
          "duration": 0.25,
          "velocity": 120
        },
        {
          "pitch": 43,
          "onset": 492.75,
          "duration": 0.25,
          "velocity": 120
        },
        {
          "pitch": 45,
          "onset": 493.0,
          "duration": 0.25,
          "velocity": 120
        },
        {
          "pitch": 40,
          "onset": 493.25,
          "duration": 0.25,
          "velocity": 120
        },
        {
          "pitch": 42,
          "onset": 493.5,
          "duration": 0.25,
          "velocity": 120
        },
        {
          "pitch": 40,
          "onset": 493.75,
          "duration": 0.25,
          "velocity": 120
        },
        {
          "pitch": 42,
          "onset": 494.0,
          "duration": 0.25,
          "velocity": 120
        },
        {
          "pitch": 38,
          "onset": 494.25,
          "duration": 0.25,
          "velocity": 120
        },
        {
          "pitch": 45,
          "onset": 494.5,
          "duration": 0.25,
          "velocity": 120
        },
        {
          "pitch": 36,
          "onset": 494.75,
          "duration": 0.25,
          "velocity": 120
        },
        {
          "pitch": 34,
          "onset": 495.0,
          "duration": 1.0,
          "velocity": 120
        },
        {
          "pitch": 38,
          "onset": 496.0,
          "duration": 0.5,
          "velocity": 120
        },
        {
          "pitch": 43,
          "onset": 496.5,
          "duration": 0.5,
          "velocity": 120
        },
        {
          "pitch": 38,
          "onset": 497.0,
          "duration": 0.5,
          "velocity": 120
        },
        {
          "pitch": 41,
          "onset": 497.5,
          "duration": 0.5,
          "velocity": 120
        },
        {
          "pitch": 43,
          "onset": 498.0,
          "duration": 0.25,
          "velocity": 120
        },
        {
          "pitch": 42,
          "onset": 498.25,
          "duration": 0.25,
          "velocity": 120
        },
        {
          "pitch": 43,
          "onset": 498.5,
          "duration": 0.25,
          "velocity": 120
        },
        {
          "pitch": 38,
          "onset": 498.75,
          "duration": 0.25,
          "velocity": 120
        },
        {
          "pitch": 46,
          "onset": 499.0,
          "duration": 0.25,
          "velocity": 120
        },
        {
          "pitch": 43,
          "onset": 499.25,
          "duration": 0.25,
          "velocity": 120
        },
        {
          "pitch": 45,
          "onset": 499.5,
          "duration": 0.25,
          "velocity": 120
        },
        {
          "pitch": 43,
          "onset": 499.75,
          "duration": 0.25,
          "velocity": 120
        },
        {
          "pitch": 45,
          "onset": 500.0,
          "duration": 0.25,
          "velocity": 120
        },
        {
          "pitch": 38,
          "onset": 500.25,
          "duration": 0.25,
          "velocity": 120
        },
        {
          "pitch": 48,
          "onset": 500.5,
          "duration": 0.25,
          "velocity": 120
        },
        {
          "pitch": 45,
          "onset": 500.75,
          "duration": 0.25,
          "velocity": 120
        },
        {
          "pitch": 46,
          "onset": 501.0,
          "duration": 0.5,
          "velocity": 120
        },
        {
          "pitch": 38,
          "onset": 501.5,
          "duration": 0.5,
          "velocity": 120
        },
        {
          "pitch": 43,
          "onset": 502.0,
          "duration": 1.0,
          "velocity": 120
        },
        {
          "pitch": 42,
          "onset": 503.0,
          "duration": 0.125,
          "velocity": 120
        },
        {
          "pitch": 43,
          "onset": 503.125,
          "duration": 0.125,
          "velocity": 120
        },
        {
          "pitch": 42,
          "onset": 503.25,
          "duration": 0.75,
          "velocity": 120
        },
        {
          "pitch": 43,
          "onset": 504.0,
          "duration": 0.5,
          "velocity": 120
        },
        {
          "pitch": 46,
          "onset": 504.5,
          "duration": 0.5,
          "velocity": 120
        },
        {
          "pitch": 50,
          "onset": 505.0,
          "duration": 0.5,
          "velocity": 120
        },
        {
          "pitch": 48,
          "onset": 505.5,
          "duration": 1.0,
          "velocity": 120
        },
        {
          "pitch": 42,
          "onset": 506.5,
          "duration": 0.5,
          "velocity": 120
        },
        {
          "pitch": 50,
          "onset": 507.0,
          "duration": 1.0,
          "velocity": 120
        },
        {
          "pitch": 43,
          "onset": 508.0,
          "duration": 0.5,
          "velocity": 120
        },
        {
          "pitch": 51,
          "onset": 508.5,
          "duration": 0.5,
          "velocity": 120
        },
        {
          "pitch": 48,
          "onset": 509.0,
          "duration": 0.5,
          "velocity": 120
        },
        {
          "pitch": 45,
          "onset": 509.5,
          "duration": 0.5,
          "velocity": 120
        },
        {
          "pitch": 42,
          "onset": 510.0,
          "duration": 0.5,
          "velocity": 120
        },
        {
          "pitch": 45,
          "onset": 510.5,
          "duration": 0.25,
          "velocity": 120
        },
        {
          "pitch": 43,
          "onset": 510.75,
          "duration": 0.25,
          "velocity": 120
        },
        {
          "pitch": 45,
          "onset": 511.0,
          "duration": 0.75,
          "velocity": 120
        },
        {
          "pitch": 43,
          "onset": 511.75,
          "duration": 0.25,
          "velocity": 120
        },
        {
          "pitch": 42,
          "onset": 512.0,
          "duration": 0.25,
          "velocity": 120
        },
        {
          "pitch": 45,
          "onset": 512.25,
          "duration": 0.25,
          "velocity": 120
        },
        {
          "pitch": 38,
          "onset": 512.5,
          "duration": 0.25,
          "velocity": 120
        },
        {
          "pitch": 42,
          "onset": 512.75,
          "duration": 0.25,
          "velocity": 120
        },
        {
          "pitch": 43,
          "onset": 513.0,
          "duration": 2.0,
          "velocity": 120
        },
        {
          "pitch": 51,
          "onset": 515.0,
          "duration": 0.5,
          "velocity": 120
        },
        {
          "pitch": 41,
          "onset": 515.5,
          "duration": 1.0,
          "velocity": 120
        },
        {
          "pitch": 50,
          "onset": 516.5,
          "duration": 0.5,
          "velocity": 120
        },
        {
          "pitch": 39,
          "onset": 517.0,
          "duration": 1.0,
          "velocity": 120
        },
        {
          "pitch": 48,
          "onset": 518.0,
          "duration": 0.5,
          "velocity": 120
        },
        {
          "pitch": 38,
          "onset": 518.5,
          "duration": 1.0,
          "velocity": 120
        },
        {
          "pitch": 46,
          "onset": 519.5,
          "duration": 0.5,
          "velocity": 120
        },
        {
          "pitch": 36,
          "onset": 520.0,
          "duration": 0.75,
          "velocity": 120
        },
        {
          "pitch": 38,
          "onset": 520.75,
          "duration": 0.25,
          "velocity": 120
        },
        {
          "pitch": 28,
          "onset": 521.0,
          "duration": 0.25,
          "velocity": 120
        },
        {
          "pitch": 42,
          "onset": 521.25,
          "duration": 0.25,
          "velocity": 120
        },
        {
          "pitch": 31,
          "onset": 521.5,
          "duration": 0.25,
          "velocity": 120
        },
        {
          "pitch": 45,
          "onset": 521.75,
          "duration": 0.25,
          "velocity": 120
        },
        {
          "pitch": 34,
          "onset": 522.0,
          "duration": 2.0,
          "velocity": 120
        },
        {
          "pitch": 33,
          "onset": 524.0,
          "duration": 0.5,
          "velocity": 120
        },
        {
          "pitch": 34,
          "onset": 524.5,
          "duration": 0.5,
          "velocity": 120
        },
        {
          "pitch": 36,
          "onset": 525.0,
          "duration": 0.5,
          "velocity": 120
        },
        {
          "pitch": 34,
          "onset": 525.5,
          "duration": 0.5,
          "velocity": 120
        },
        {
          "pitch": 36,
          "onset": 526.0,
          "duration": 0.5,
          "velocity": 120
        },
        {
          "pitch": 38,
          "onset": 526.75,
          "duration": 0.25,
          "velocity": 120
        },
        {
          "pitch": 42,
          "onset": 527.0,
          "duration": 0.25,
          "velocity": 120
        },
        {
          "pitch": 38,
          "onset": 527.25,
          "duration": 0.25,
          "velocity": 120
        },
        {
          "pitch": 45,
          "onset": 527.5,
          "duration": 0.25,
          "velocity": 120
        },
        {
          "pitch": 42,
          "onset": 527.75,
          "duration": 0.25,
          "velocity": 120
        },
        {
          "pitch": 50,
          "onset": 528.0,
          "duration": 1.0,
          "velocity": 120
        },
        {
          "pitch": 48,
          "onset": 529.0,
          "duration": 0.5,
          "velocity": 120
        },
        {
          "pitch": 46,
          "onset": 529.5,
          "duration": 1.0,
          "velocity": 120
        },
        {
          "pitch": 45,
          "onset": 530.5,
          "duration": 0.5,
          "velocity": 120
        },
        {
          "pitch": 43,
          "onset": 531.0,
          "duration": 1.0,
          "velocity": 120
        },
        {
          "pitch": 31,
          "onset": 532.75,
          "duration": 0.25,
          "velocity": 120
        },
        {
          "pitch": 34,
          "onset": 533.0,
          "duration": 0.25,
          "velocity": 120
        },
        {
          "pitch": 31,
          "onset": 533.25,
          "duration": 0.25,
          "velocity": 120
        },
        {
          "pitch": 38,
          "onset": 533.5,
          "duration": 0.25,
          "velocity": 120
        },
        {
          "pitch": 34,
          "onset": 533.75,
          "duration": 0.25,
          "velocity": 120
        },
        {
          "pitch": 43,
          "onset": 534.0,
          "duration": 1.0,
          "velocity": 120
        },
        {
          "pitch": 41,
          "onset": 535.0,
          "duration": 0.5,
          "velocity": 120
        },
        {
          "pitch": 39,
          "onset": 535.5,
          "duration": 1.0,
          "velocity": 120
        },
        {
          "pitch": 38,
          "onset": 536.5,
          "duration": 0.5,
          "velocity": 120
        },
        {
          "pitch": 36,
          "onset": 537.0,
          "duration": 1.0,
          "velocity": 120
        },
        {
          "pitch": 36,
          "onset": 538.75,
          "duration": 0.25,
          "velocity": 120
        },
        {
          "pitch": 39,
          "onset": 539.0,
          "duration": 0.25,
          "velocity": 120
        },
        {
          "pitch": 36,
          "onset": 539.25,
          "duration": 0.25,
          "velocity": 120
        },
        {
          "pitch": 43,
          "onset": 539.5,
          "duration": 0.25,
          "velocity": 120
        },
        {
          "pitch": 39,
          "onset": 539.75,
          "duration": 0.25,
          "velocity": 120
        },
        {
          "pitch": 48,
          "onset": 540.0,
          "duration": 1.0,
          "velocity": 120
        },
        {
          "pitch": 46,
          "onset": 541.0,
          "duration": 0.5,
          "velocity": 120
        },
        {
          "pitch": 45,
          "onset": 541.5,
          "duration": 1.0,
          "velocity": 120
        },
        {
          "pitch": 43,
          "onset": 542.5,
          "duration": 0.5,
          "velocity": 120
        },
        {
          "pitch": 29,
          "onset": 544.75,
          "duration": 0.25,
          "velocity": 120
        },
        {
          "pitch": 33,
          "onset": 545.0,
          "duration": 0.25,
          "velocity": 120
        },
        {
          "pitch": 29,
          "onset": 545.25,
          "duration": 0.25,
          "velocity": 120
        },
        {
          "pitch": 36,
          "onset": 545.5,
          "duration": 0.25,
          "velocity": 120
        },
        {
          "pitch": 33,
          "onset": 545.75,
          "duration": 0.25,
          "velocity": 120
        },
        {
          "pitch": 41,
          "onset": 546.0,
          "duration": 1.0,
          "velocity": 120
        },
        {
          "pitch": 39,
          "onset": 547.0,
          "duration": 0.5,
          "velocity": 120
        },
        {
          "pitch": 38,
          "onset": 547.5,
          "duration": 1.0,
          "velocity": 120
        },
        {
          "pitch": 36,
          "onset": 548.5,
          "duration": 0.5,
          "velocity": 120
        },
        {
          "pitch": 34,
          "onset": 549.0,
          "duration": 7.0,
          "velocity": 120
        },
        {
          "pitch": 34,
          "onset": 556.0,
          "duration": 0.5,
          "velocity": 120
        },
        {
          "pitch": 39,
          "onset": 556.5,
          "duration": 1.0,
          "velocity": 120
        },
        {
          "pitch": 38,
          "onset": 557.5,
          "duration": 0.5,
          "velocity": 120
        },
        {
          "pitch": 36,
          "onset": 558.0,
          "duration": 1.0,
          "velocity": 120
        },
        {
          "pitch": 34,
          "onset": 559.0,
          "duration": 0.5,
          "velocity": 120
        },
        {
          "pitch": 33,
          "onset": 559.5,
          "duration": 1.0,
          "velocity": 120
        },
        {
          "pitch": 31,
          "onset": 560.5,
          "duration": 0.5,
          "velocity": 120
        },
        {
          "pitch": 29,
          "onset": 561.0,
          "duration": 1.0,
          "velocity": 120
        },
        {
          "pitch": 41,
          "onset": 562.5,
          "duration": 1.0,
          "velocity": 120
        },
        {
          "pitch": 29,
          "onset": 564.0,
          "duration": 1.0,
          "velocity": 120
        },
        {
          "pitch": 41,
          "onset": 565.5,
          "duration": 1.0,
          "velocity": 120
        },
        {
          "pitch": 29,
          "onset": 567.0,
          "duration": 1.0,
          "velocity": 120
        },
        {
          "pitch": 41,
          "onset": 568.5,
          "duration": 1.0,
          "velocity": 120
        },
        {
          "pitch": 29,
          "onset": 570.0,
          "duration": 1.0,
          "velocity": 120
        },
        {
          "pitch": 34,
          "onset": 571.75,
          "duration": 0.25,
          "velocity": 120
        },
        {
          "pitch": 38,
          "onset": 572.0,
          "duration": 0.25,
          "velocity": 120
        },
        {
          "pitch": 34,
          "onset": 572.25,
          "duration": 0.25,
          "velocity": 120
        },
        {
          "pitch": 41,
          "onset": 572.5,
          "duration": 0.25,
          "velocity": 120
        },
        {
          "pitch": 38,
          "onset": 572.75,
          "duration": 0.25,
          "velocity": 120
        },
        {
          "pitch": 46,
          "onset": 573.0,
          "duration": 1.0,
          "velocity": 120
        },
        {
          "pitch": 45,
          "onset": 574.0,
          "duration": 0.5,
          "velocity": 120
        },
        {
          "pitch": 43,
          "onset": 574.5,
          "duration": 1.0,
          "velocity": 120
        },
        {
          "pitch": 41,
          "onset": 575.5,
          "duration": 0.5,
          "velocity": 120
        },
        {
          "pitch": 40,
          "onset": 576.0,
          "duration": 1.0,
          "velocity": 120
        },
        {
          "pitch": 38,
          "onset": 577.0,
          "duration": 0.5,
          "velocity": 120
        },
        {
          "pitch": 36,
          "onset": 577.5,
          "duration": 1.0,
          "velocity": 120
        },
        {
          "pitch": 34,
          "onset": 578.5,
          "duration": 0.5,
          "velocity": 120
        },
        {
          "pitch": 33,
          "onset": 579.0,
          "duration": 1.0,
          "velocity": 120
        },
        {
          "pitch": 31,
          "onset": 580.0,
          "duration": 0.5,
          "velocity": 120
        },
        {
          "pitch": 29,
          "onset": 580.75,
          "duration": 0.25,
          "velocity": 120
        },
        {
          "pitch": 33,
          "onset": 581.0,
          "duration": 0.25,
          "velocity": 120
        },
        {
          "pitch": 29,
          "onset": 581.25,
          "duration": 0.25,
          "velocity": 120
        },
        {
          "pitch": 36,
          "onset": 581.5,
          "duration": 0.25,
          "velocity": 120
        },
        {
          "pitch": 33,
          "onset": 581.75,
          "duration": 0.25,
          "velocity": 120
        },
        {
          "pitch": 41,
          "onset": 582.0,
          "duration": 1.0,
          "velocity": 120
        },
        {
          "pitch": 40,
          "onset": 583.0,
          "duration": 0.5,
          "velocity": 120
        },
        {
          "pitch": 38,
          "onset": 583.5,
          "duration": 1.0,
          "velocity": 120
        },
        {
          "pitch": 36,
          "onset": 584.5,
          "duration": 0.5,
          "velocity": 120
        },
        {
          "pitch": 35,
          "onset": 585.0,
          "duration": 1.0,
          "velocity": 120
        },
        {
          "pitch": 33,
          "onset": 586.0,
          "duration": 0.5,
          "velocity": 120
        },
        {
          "pitch": 31,
          "onset": 586.5,
          "duration": 1.0,
          "velocity": 120
        },
        {
          "pitch": 29,
          "onset": 587.5,
          "duration": 0.5,
          "velocity": 120
        },
        {
          "pitch": 28,
          "onset": 588.0,
          "duration": 1.0,
          "velocity": 120
        },
        {
          "pitch": 26,
          "onset": 589.0,
          "duration": 0.5,
          "velocity": 120
        },
        {
          "pitch": 24,
          "onset": 589.5,
          "duration": 34.5,
          "velocity": 120
        },
        {
          "pitch": 36,
          "onset": 624.0,
          "duration": 1.0,
          "velocity": 120
        },
        {
          "pitch": 24,
          "onset": 625.5,
          "duration": 1.0,
          "velocity": 120
        },
        {
          "pitch": 36,
          "onset": 627.0,
          "duration": 1.0,
          "velocity": 120
        },
        {
          "pitch": 24,
          "onset": 628.5,
          "duration": 1.0,
          "velocity": 120
        },
        {
          "pitch": 36,
          "onset": 630.0,
          "duration": 1.0,
          "velocity": 120
        },
        {
          "pitch": 24,
          "onset": 631.5,
          "duration": 1.0,
          "velocity": 120
        },
        {
          "pitch": 36,
          "onset": 633.0,
          "duration": 1.0,
          "velocity": 120
        },
        {
          "pitch": 35,
          "onset": 634.5,
          "duration": 1.0,
          "velocity": 120
        },
        {
          "pitch": 34,
          "onset": 636.0,
          "duration": 1.0,
          "velocity": 120
        },
        {
          "pitch": 37,
          "onset": 637.5,
          "duration": 1.0,
          "velocity": 120
        },
        {
          "pitch": 36,
          "onset": 639.0,
          "duration": 1.0,
          "velocity": 120
        },
        {
          "pitch": 39,
          "onset": 640.5,
          "duration": 1.0,
          "velocity": 120
        },
        {
          "pitch": 37,
          "onset": 642.0,
          "duration": 1.0,
          "velocity": 120
        },
        {
          "pitch": 34,
          "onset": 643.5,
          "duration": 1.0,
          "velocity": 120
        },
        {
          "pitch": 34,
          "onset": 645.0,
          "duration": 1.0,
          "velocity": 120
        },
        {
          "pitch": 34,
          "onset": 646.5,
          "duration": 1.0,
          "velocity": 120
        },
        {
          "pitch": 34,
          "onset": 648.0,
          "duration": 0.25,
          "velocity": 120
        },
        {
          "pitch": 32,
          "onset": 648.25,
          "duration": 0.25,
          "velocity": 120
        },
        {
          "pitch": 34,
          "onset": 648.5,
          "duration": 0.25,
          "velocity": 120
        },
        {
          "pitch": 31,
          "onset": 648.75,
          "duration": 0.25,
          "velocity": 120
        },
        {
          "pitch": 37,
          "onset": 649.0,
          "duration": 0.25,
          "velocity": 120
        },
        {
          "pitch": 34,
          "onset": 649.25,
          "duration": 0.25,
          "velocity": 120
        },
        {
          "pitch": 40,
          "onset": 649.5,
          "duration": 0.25,
          "velocity": 120
        },
        {
          "pitch": 38,
          "onset": 649.75,
          "duration": 0.25,
          "velocity": 120
        },
        {
          "pitch": 40,
          "onset": 650.0,
          "duration": 0.25,
          "velocity": 120
        },
        {
          "pitch": 36,
          "onset": 650.25,
          "duration": 0.25,
          "velocity": 120
        },
        {
          "pitch": 43,
          "onset": 650.5,
          "duration": 0.25,
          "velocity": 120
        },
        {
          "pitch": 40,
          "onset": 650.75,
          "duration": 0.25,
          "velocity": 120
        },
        {
          "pitch": 46,
          "onset": 651.0,
          "duration": 0.25,
          "velocity": 120
        },
        {
          "pitch": 44,
          "onset": 651.25,
          "duration": 0.25,
          "velocity": 120
        },
        {
          "pitch": 46,
          "onset": 651.5,
          "duration": 0.25,
          "velocity": 120
        },
        {
          "pitch": 41,
          "onset": 651.75,
          "duration": 0.25,
          "velocity": 120
        },
        {
          "pitch": 43,
          "onset": 652.0,
          "duration": 0.25,
          "velocity": 120
        },
        {
          "pitch": 38,
          "onset": 652.25,
          "duration": 0.25,
          "velocity": 120
        },
        {
          "pitch": 40,
          "onset": 652.5,
          "duration": 0.25,
          "velocity": 120
        },
        {
          "pitch": 38,
          "onset": 652.75,
          "duration": 0.25,
          "velocity": 120
        },
        {
          "pitch": 40,
          "onset": 653.0,
          "duration": 0.25,
          "velocity": 120
        },
        {
          "pitch": 36,
          "onset": 653.25,
          "duration": 0.25,
          "velocity": 120
        },
        {
          "pitch": 43,
          "onset": 653.5,
          "duration": 0.25,
          "velocity": 120
        },
        {
          "pitch": 34,
          "onset": 653.75,
          "duration": 0.25,
          "velocity": 120
        },
        {
          "pitch": 33,
          "onset": 654.0,
          "duration": 0.5,
          "velocity": 120
        },
        {
          "pitch": 34,
          "onset": 654.5,
          "duration": 0.5,
          "velocity": 120
        },
        {
          "pitch": 36,
          "onset": 655.0,
          "duration": 0.5,
          "velocity": 120
        },
        {
          "pitch": 29,
          "onset": 655.5,
          "duration": 2.0,
          "velocity": 120
        }
      ]
    }
  ]
}