{
  "bwv": 530,
  "category": "trio_sonata",
  "instrument": "organ",
  "form": "",
  "movement": 2,
  "tonic": "G",
  "mode": "major",
  "confidence": "verified",
  "ticks_per_beat": 384,
  "duration_seconds": 262.5,
  "tempos": [
    {
      "tick": 0,
      "bpm": 40
    },
    {
      "tick": 48,
      "bpm": 120
    },
    {
      "tick": 912,
      "bpm": 40
    },
    {
      "tick": 1152,
      "bpm": 40
    },
    {
      "tick": 5376,
      "bpm": 40
    },
    {
      "tick": 5568,
      "bpm": 40
    },
    {
      "tick": 5664,
      "bpm": 35
    },
    {
      "tick": 5856,
      "bpm": 40
    },
    {
      "tick": 18432,
      "bpm": 40
    },
    {
      "tick": 18624,
      "bpm": 35
    },
    {
      "tick": 18720,
      "bpm": 35
    },
    {
      "tick": 18816,
      "bpm": 30
    },
    {
      "tick": 19392,
      "bpm": 40
    },
    {
      "tick": 23808,
      "bpm": 40
    },
    {
      "tick": 24000,
      "bpm": 40
    },
    {
      "tick": 24096,
      "bpm": 35
    },
    {
      "tick": 24288,
      "bpm": 40
    },
    {
      "tick": 36864,
      "bpm": 40
    },
    {
      "tick": 36960,
      "bpm": 40
    },
    {
      "tick": 37056,
      "bpm": 35
    },
    {
      "tick": 37248,
      "bpm": 35
    },
    {
      "tick": 38112,
      "bpm": 40
    },
    {
      "tick": 51456,
      "bpm": 40
    },
    {
      "tick": 51648,
      "bpm": 40
    },
    {
      "tick": 51744,
      "bpm": 35
    },
    {
      "tick": 51936,
      "bpm": 40
    },
    {
      "tick": 55488,
      "bpm": 40
    },
    {
      "tick": 55680,
      "bpm": 40
    },
    {
      "tick": 55872,
      "bpm": 40
    },
    {
      "tick": 64128,
      "bpm": 40
    },
    {
      "tick": 64320,
      "bpm": 40
    },
    {
      "tick": 64512,
      "bpm": 35
    },
    {
      "tick": 64704,
      "bpm": 35
    },
    {
      "tick": 64896,
      "bpm": 35
    }
  ],
  "time_signatures": [
    {
      "tick": 0,
      "numerator": 6,
      "denominator": 8
    }
  ],
  "track_type": "manual",
  "voice_count": 2,
  "total_notes": 1301,
  "tracks": [
    {
      "role": "manual",
      "notes": [
        {
          "pitch": 71,
          "onset": 2.5,
          "duration": 0.5,
          "velocity": 100
        },
        {
          "pitch": 76,
          "onset": 3.0,
          "duration": 0.125,
          "velocity": 100
        },
        {
          "pitch": 78,
          "onset": 3.125,
          "duration": 0.125,
          "velocity": 100
        },
        {
          "pitch": 79,
          "onset": 3.25,
          "duration": 0.5,
          "velocity": 100
        },
        {
          "pitch": 78,
          "onset": 3.75,
          "duration": 0.25,
          "velocity": 100
        },
        {
          "pitch": 76,
          "onset": 4.0,
          "duration": 0.5,
          "velocity": 100
        },
        {
          "pitch": 76,
          "onset": 4.5,
          "duration": 0.125,
          "velocity": 100
        },
        {
          "pitch": 75,
          "onset": 4.625,
          "duration": 0.375,
          "velocity": 100
        },
        {
          "pitch": 76,
          "onset": 5.0,
          "duration": 0.5,
          "velocity": 100
        },
        {
          "pitch": 69,
          "onset": 6.0,
          "duration": 0.125,
          "velocity": 100
        },
        {
          "pitch": 68,
          "onset": 6.125,
          "duration": 0.625,
          "velocity": 100
        },
        {
          "pitch": 69,
          "onset": 6.75,
          "duration": 0.125,
          "velocity": 100
        },
        {
          "pitch": 71,
          "onset": 6.875,
          "duration": 0.125,
          "velocity": 100
        },
        {
          "pitch": 69,
          "onset": 7.0,
          "duration": 0.125,
          "velocity": 100
        },
        {
          "pitch": 68,
          "onset": 7.125,
          "duration": 0.125,
          "velocity": 100
        },
        {
          "pitch": 66,
          "onset": 7.25,
          "duration": 0.125,
          "velocity": 100
        },
        {
          "pitch": 64,
          "onset": 7.375,
          "duration": 0.125,
          "velocity": 100
        },
        {
          "pitch": 74,
          "onset": 7.5,
          "duration": 0.125,
          "velocity": 100
        },
        {
          "pitch": 73,
          "onset": 7.625,
          "duration": 0.125,
          "velocity": 100
        },
        {
          "pitch": 71,
          "onset": 7.75,
          "duration": 0.25,
          "velocity": 100
        },
        {
          "pitch": 73,
          "onset": 8.0,
          "duration": 0.5,
          "velocity": 100
        },
        {
          "pitch": 74,
          "onset": 9.0,
          "duration": 0.0625,
          "velocity": 100
        },
        {
          "pitch": 72,
          "onset": 9.0625,
          "duration": 0.0625,
          "velocity": 100
        },
        {
          "pitch": 71,
          "onset": 9.125,
          "duration": 0.125,
          "velocity": 100
        },
        {
          "pitch": 72,
          "onset": 9.25,
          "duration": 0.5,
          "velocity": 100
        },
        {
          "pitch": 75,
          "onset": 9.75,
          "duration": 0.5,
          "velocity": 100
        },
        {
          "pitch": 78,
          "onset": 10.25,
          "duration": 0.25,
          "velocity": 100
        },
        {
          "pitch": 81,
          "onset": 10.5,
          "duration": 0.25,
          "velocity": 100
        },
        {
          "pitch": 72,
          "onset": 10.75,
          "duration": 0.25,
          "velocity": 100
        },
        {
          "pitch": 72,
          "onset": 11.0,
          "duration": 0.125,
          "velocity": 100
        },
        {
          "pitch": 71,
          "onset": 11.125,
          "duration": 0.625,
          "velocity": 100
        },
        {
          "pitch": 70,
          "onset": 11.75,
          "duration": 0.25,
          "velocity": 100
        },
        {
          "pitch": 71,
          "onset": 12.0,
          "duration": 0.125,
          "velocity": 100
        },
        {
          "pitch": 75,
          "onset": 12.125,
          "duration": 0.125,
          "velocity": 100
        },
        {
          "pitch": 76,
          "onset": 12.25,
          "duration": 0.25,
          "velocity": 100
        },
        {
          "pitch": 64,
          "onset": 12.5,
          "duration": 0.25,
          "velocity": 100
        },
        {
          "pitch": 69,
          "onset": 12.75,
          "duration": 0.5,
          "velocity": 100
        },
        {
          "pitch": 67,
          "onset": 13.25,
          "duration": 0.125,
          "velocity": 100
        },
        {
          "pitch": 66,
          "onset": 13.375,
          "duration": 0.125,
          "velocity": 100
        },
        {
          "pitch": 67,
          "onset": 13.5,
          "duration": 0.25,
          "velocity": 100
        },
        {
          "pitch": 79,
          "onset": 13.75,
          "duration": 0.25,
          "velocity": 100
        },
        {
          "pitch": 78,
          "onset": 14.0,
          "duration": 0.25,
          "velocity": 100
        },
        {
          "pitch": 71,
          "onset": 14.25,
          "duration": 0.5,
          "velocity": 100
        },
        {
          "pitch": 64,
          "onset": 14.5,
          "duration": 0.5,
          "velocity": 100
        },
        {
          "pitch": 70,
          "onset": 14.75,
          "duration": 0.25,
          "velocity": 100
        },
        {
          "pitch": 71,
          "onset": 15.0,
          "duration": 0.125,
          "velocity": 100
        },
        {
          "pitch": 71,
          "onset": 15.0,
          "duration": 0.125,
          "velocity": 100
        },
        {
          "pitch": 69,
          "onset": 15.125,
          "duration": 0.125,
          "velocity": 100
        },
        {
          "pitch": 73,
          "onset": 15.125,
          "duration": 0.125,
          "velocity": 100
        },
        {
          "pitch": 67,
          "onset": 15.25,
          "duration": 0.25,
          "velocity": 100
        },
        {
          "pitch": 74,
          "onset": 15.25,
          "duration": 0.5,
          "velocity": 100
        },
        {
          "pitch": 66,
          "onset": 15.5,
          "duration": 1.75,
          "velocity": 100
        },
        {
          "pitch": 73,
          "onset": 15.75,
          "duration": 0.25,
          "velocity": 100
        },
        {
          "pitch": 71,
          "onset": 16.0,
          "duration": 0.5,
          "velocity": 100
        },
        {
          "pitch": 71,
          "onset": 16.5,
          "duration": 0.125,
          "velocity": 100
        },
        {
          "pitch": 70,
          "onset": 16.625,
          "duration": 0.375,
          "velocity": 100
        },
        {
          "pitch": 71,
          "onset": 17.0,
          "duration": 0.5,
          "velocity": 100
        },
        {
          "pitch": 78,
          "onset": 17.25,
          "duration": 0.25,
          "velocity": 100
        },
        {
          "pitch": 76,
          "onset": 17.5,
          "duration": 0.125,
          "velocity": 100
        },
        {
          "pitch": 75,
          "onset": 17.625,
          "duration": 0.125,
          "velocity": 100
        },
        {
          "pitch": 73,
          "onset": 17.75,
          "duration": 0.125,
          "velocity": 100
        },
        {
          "pitch": 75,
          "onset": 17.875,
          "duration": 0.125,
          "velocity": 100
        },
        {
          "pitch": 64,
          "onset": 18.0,
          "duration": 0.125,
          "velocity": 100
        },
        {
          "pitch": 81,
          "onset": 18.0,
          "duration": 0.25,
          "velocity": 100
        },
        {
          "pitch": 63,
          "onset": 18.125,
          "duration": 0.625,
          "velocity": 100
        },
        {
          "pitch": 72,
          "onset": 18.25,
          "duration": 0.25,
          "velocity": 100
        },
        {
          "pitch": 71,
          "onset": 18.5,
          "duration": 0.5,
          "velocity": 100
        },
        {
          "pitch": 64,
          "onset": 18.75,
          "duration": 0.125,
          "velocity": 100
        },
        {
          "pitch": 66,
          "onset": 18.875,
          "duration": 0.125,
          "velocity": 100
        },
        {
          "pitch": 64,
          "onset": 19.0,
          "duration": 0.125,
          "velocity": 100
        },
        {
          "pitch": 63,
          "onset": 19.125,
          "duration": 0.125,
          "velocity": 100
        },
        {
          "pitch": 61,
          "onset": 19.25,
          "duration": 0.125,
          "velocity": 100
        },
        {
          "pitch": 79,
          "onset": 19.25,
          "duration": 0.25,
          "velocity": 100
        },
        {
          "pitch": 59,
          "onset": 19.375,
          "duration": 0.125,
          "velocity": 100
        },
        {
          "pitch": 69,
          "onset": 19.5,
          "duration": 0.125,
          "velocity": 100
        },
        {
          "pitch": 78,
          "onset": 19.5,
          "duration": 0.125,
          "velocity": 100
        },
        {
          "pitch": 68,
          "onset": 19.625,
          "duration": 0.125,
          "velocity": 100
        },
        {
          "pitch": 76,
          "onset": 19.625,
          "duration": 0.125,
          "velocity": 100
        },
        {
          "pitch": 66,
          "onset": 19.75,
          "duration": 0.25,
          "velocity": 100
        },
        {
          "pitch": 75,
          "onset": 19.75,
          "duration": 0.25,
          "velocity": 100
        },
        {
          "pitch": 68,
          "onset": 20.0,
          "duration": 0.5,
          "velocity": 100
        },
        {
          "pitch": 76,
          "onset": 20.0,
          "duration": 0.25,
          "velocity": 100
        },
        {
          "pitch": 74,
          "onset": 20.25,
          "duration": 0.125,
          "velocity": 100
        },
        {
          "pitch": 73,
          "onset": 20.375,
          "duration": 0.125,
          "velocity": 100
        },
        {
          "pitch": 71,
          "onset": 20.5,
          "duration": 0.125,
          "velocity": 100
        },
        {
          "pitch": 70,
          "onset": 20.625,
          "duration": 0.125,
          "velocity": 100
        },
        {
          "pitch": 71,
          "onset": 20.75,
          "duration": 0.25,
          "velocity": 100
        },
        {
          "pitch": 64,
          "onset": 21.0,
          "duration": 0.25,
          "velocity": 100
        },
        {
          "pitch": 69,
          "onset": 21.0,
          "duration": 0.0625,
          "velocity": 100
        },
        {
          "pitch": 67,
          "onset": 21.0625,
          "duration": 0.0625,
          "velocity": 100
        },
        {
          "pitch": 66,
          "onset": 21.125,
          "duration": 0.125,
          "velocity": 100
        },
        {
          "pitch": 67,
          "onset": 21.25,
          "duration": 0.5,
          "velocity": 100
        },
        {
          "pitch": 71,
          "onset": 21.25,
          "duration": 0.25,
          "velocity": 100
        },
        {
          "pitch": 70,
          "onset": 21.5,
          "duration": 0.5,
          "velocity": 100
        },
        {
          "pitch": 70,
          "onset": 21.75,
          "duration": 0.5,
          "velocity": 100
        },
        {
          "pitch": 73,
          "onset": 22.25,
          "duration": 0.25,
          "velocity": 100
        },
        {
          "pitch": 73,
          "onset": 22.5,
          "duration": 0.25,
          "velocity": 100
        },
        {
          "pitch": 76,
          "onset": 22.5,
          "duration": 0.25,
          "velocity": 100
        },
        {
          "pitch": 64,
          "onset": 22.75,
          "duration": 0.25,
          "velocity": 100
        },
        {
          "pitch": 67,
          "onset": 22.75,
          "duration": 0.25,
          "velocity": 100
        },
        {
          "pitch": 62,
          "onset": 23.0,
          "duration": 0.25,
          "velocity": 100
        },
        {
          "pitch": 66,
          "onset": 23.0,
          "duration": 0.75,
          "velocity": 100
        },
        {
          "pitch": 66,
          "onset": 23.25,
          "duration": 0.25,
          "velocity": 100
        },
        {
          "pitch": 70,
          "onset": 23.5,
          "duration": 0.5,
          "velocity": 100
        },
        {
          "pitch": 65,
          "onset": 23.75,
          "duration": 0.25,
          "velocity": 100
        },
        {
          "pitch": 66,
          "onset": 24.0,
          "duration": 0.125,
          "velocity": 100
        },
        {
          "pitch": 70,
          "onset": 24.125,
          "duration": 0.125,
          "velocity": 100
        },
        {
          "pitch": 71,
          "onset": 24.25,
          "duration": 0.25,
          "velocity": 100
        },
        {
          "pitch": 78,
          "onset": 24.25,
          "duration": 0.25,
          "velocity": 100
        },
        {
          "pitch": 59,
          "onset": 24.5,
          "duration": 0.25,
          "velocity": 100
        },
        {
          "pitch": 79,
          "onset": 24.5,
          "duration": 0.25,
          "velocity": 100
        },
        {
          "pitch": 64,
          "onset": 24.75,
          "duration": 0.5,
          "velocity": 100
        },
        {
          "pitch": 76,
          "onset": 24.75,
          "duration": 0.25,
          "velocity": 100
        },
        {
          "pitch": 73,
          "onset": 25.0,
          "duration": 0.25,
          "velocity": 100
        },
        {
          "pitch": 62,
          "onset": 25.25,
          "duration": 0.125,
          "velocity": 100
        },
        {
          "pitch": 82,
          "onset": 25.25,
          "duration": 0.25,
          "velocity": 100
        },
        {
          "pitch": 61,
          "onset": 25.375,
          "duration": 0.125,
          "velocity": 100
        },
        {
          "pitch": 62,
          "onset": 25.5,
          "duration": 0.5,
          "velocity": 100
        },
        {
          "pitch": 83,
          "onset": 25.5,
          "duration": 0.25,
          "velocity": 100
        },
        {
          "pitch": 71,
          "onset": 25.75,
          "duration": 0.5,
          "velocity": 100
        },
        {
          "pitch": 69,
          "onset": 26.25,
          "duration": 0.375,
          "velocity": 100
        },
        {
          "pitch": 77,
          "onset": 26.5,
          "duration": 0.75,
          "velocity": 100
        },
        {
          "pitch": 68,
          "onset": 26.625,
          "duration": 0.125,
          "velocity": 100
        },
        {
          "pitch": 69,
          "onset": 26.75,
          "duration": 0.25,
          "velocity": 100
        },
        {
          "pitch": 68,
          "onset": 27.0,
          "duration": 0.125,
          "velocity": 100
        },
        {
          "pitch": 69,
          "onset": 27.125,
          "duration": 0.125,
          "velocity": 100
        },
        {
          "pitch": 71,
          "onset": 27.25,
          "duration": 0.25,
          "velocity": 100
        },
        {
          "pitch": 76,
          "onset": 27.25,
          "duration": 0.5,
          "velocity": 100
        },
        {
          "pitch": 74,
          "onset": 27.75,
          "duration": 0.375,
          "velocity": 100
        },
        {
          "pitch": 83,
          "onset": 28.0,
          "duration": 0.75,
          "velocity": 100
        },
        {
          "pitch": 72,
          "onset": 28.125,
          "duration": 0.125,
          "velocity": 100
        },
        {
          "pitch": 71,
          "onset": 28.25,
          "duration": 0.25,
          "velocity": 100
        },
        {
          "pitch": 72,
          "onset": 28.5,
          "duration": 0.125,
          "velocity": 100
        },
        {
          "pitch": 74,
          "onset": 28.625,
          "duration": 0.125,
          "velocity": 100
        },
        {
          "pitch": 76,
          "onset": 28.75,
          "duration": 0.25,
          "velocity": 100
        },
        {
          "pitch": 81,
          "onset": 28.75,
          "duration": 0.5,
          "velocity": 100
        },
        {
          "pitch": 79,
          "onset": 29.25,
          "duration": 0.375,
          "velocity": 100
        },
        {
          "pitch": 64,
          "onset": 29.5,
          "duration": 0.75,
          "velocity": 100
        },
        {
          "pitch": 78,
          "onset": 29.625,
          "duration": 0.125,
          "velocity": 100
        },
        {
          "pitch": 76,
          "onset": 29.75,
          "duration": 0.25,
          "velocity": 100
        },
        {
          "pitch": 78,
          "onset": 30.0,
          "duration": 0.125,
          "velocity": 100
        },
        {
          "pitch": 79,
          "onset": 30.125,
          "duration": 0.125,
          "velocity": 100
        },
        {
          "pitch": 62,
          "onset": 30.25,
          "duration": 0.5,
          "velocity": 100
        },
        {
          "pitch": 81,
          "onset": 30.25,
          "duration": 0.25,
          "velocity": 100
        },
        {
          "pitch": 60,
          "onset": 30.75,
          "duration": 0.375,
          "velocity": 100
        },
        {
          "pitch": 69,
          "onset": 31.0,
          "duration": 0.75,
          "velocity": 100
        },
        {
          "pitch": 59,
          "onset": 31.125,
          "duration": 0.125,
          "velocity": 100
        },
        {
          "pitch": 57,
          "onset": 31.25,
          "duration": 0.25,
          "velocity": 100
        },
        {
          "pitch": 59,
          "onset": 31.5,
          "duration": 0.125,
          "velocity": 100
        },
        {
          "pitch": 60,
          "onset": 31.625,
          "duration": 0.125,
          "velocity": 100
        },
        {
          "pitch": 62,
          "onset": 31.75,
          "duration": 0.25,
          "velocity": 100
        },
        {
          "pitch": 67,
          "onset": 31.75,
          "duration": 0.5,
          "velocity": 100
        },
        {
          "pitch": 65,
          "onset": 32.25,
          "duration": 0.375,
          "velocity": 100
        },
        {
          "pitch": 74,
          "onset": 32.5,
          "duration": 0.625,
          "velocity": 100
        },
        {
          "pitch": 64,
          "onset": 32.625,
          "duration": 0.125,
          "velocity": 100
        },
        {
          "pitch": 62,
          "onset": 32.75,
          "duration": 0.25,
          "velocity": 100
        },
        {
          "pitch": 64,
          "onset": 33.0,
          "duration": 0.5,
          "velocity": 100
        },
        {
          "pitch": 72,
          "onset": 33.125,
          "duration": 0.125,
          "velocity": 100
        },
        {
          "pitch": 71,
          "onset": 33.25,
          "duration": 0.25,
          "velocity": 100
        },
        {
          "pitch": 69,
          "onset": 33.5,
          "duration": 0.125,
          "velocity": 100
        },
        {
          "pitch": 71,
          "onset": 33.5,
          "duration": 0.0625,
          "velocity": 100
        },
        {
          "pitch": 67,
          "onset": 33.5625,
          "duration": 0.125,
          "velocity": 100
        },
        {
          "pitch": 72,
          "onset": 33.5625,
          "duration": 1.6875,
          "velocity": 100
        },
        {
          "pitch": 69,
          "onset": 33.625,
          "duration": 1.0,
          "velocity": 100
        },
        {
          "pitch": 67,
          "onset": 34.625,
          "duration": 0.125,
          "velocity": 100
        },
        {
          "pitch": 66,
          "onset": 34.75,
          "duration": 0.25,
          "velocity": 100
        },
        {
          "pitch": 67,
          "onset": 35.0,
          "duration": 0.5,
          "velocity": 100
        },
        {
          "pitch": 71,
          "onset": 35.25,
          "duration": 0.125,
          "velocity": 100
        },
        {
          "pitch": 73,
          "onset": 35.375,
          "duration": 0.125,
          "velocity": 100
        },
        {
          "pitch": 75,
          "onset": 35.5,
          "duration": 0.125,
          "velocity": 100
        },
        {
          "pitch": 81,
          "onset": 35.5,
          "duration": 0.625,
          "velocity": 100
        },
        {
          "pitch": 76,
          "onset": 35.625,
          "duration": 0.125,
          "velocity": 100
        },
        {
          "pitch": 78,
          "onset": 35.75,
          "duration": 0.25,
          "velocity": 100
        },
        {
          "pitch": 71,
          "onset": 36.0,
          "duration": 0.5,
          "velocity": 100
        },
        {
          "pitch": 79,
          "onset": 36.125,
          "duration": 0.125,
          "velocity": 100
        },
        {
          "pitch": 78,
          "onset": 36.25,
          "duration": 0.25,
          "velocity": 100
        },
        {
          "pitch": 76,
          "onset": 36.5,
          "duration": 1.125,
          "velocity": 100
        },
        {
          "pitch": 79,
          "onset": 36.5,
          "duration": 1.75,
          "velocity": 100
        },
        {
          "pitch": 74,
          "onset": 37.625,
          "duration": 0.125,
          "velocity": 100
        },
        {
          "pitch": 73,
          "onset": 37.75,
          "duration": 0.25,
          "velocity": 100
        },
        {
          "pitch": 74,
          "onset": 38.0,
          "duration": 0.5,
          "velocity": 100
        },
        {
          "pitch": 78,
          "onset": 38.25,
          "duration": 0.125,
          "velocity": 100
        },
        {
          "pitch": 76,
          "onset": 38.375,
          "duration": 0.125,
          "velocity": 100
        },
        {
          "pitch": 64,
          "onset": 38.5,
          "duration": 0.625,
          "velocity": 100
        },
        {
          "pitch": 74,
          "onset": 38.5,
          "duration": 0.125,
          "velocity": 100
        },
        {
          "pitch": 73,
          "onset": 38.625,
          "duration": 0.125,
          "velocity": 100
        },
        {
          "pitch": 71,
          "onset": 38.75,
          "duration": 0.25,
          "velocity": 100
        },
        {
          "pitch": 70,
          "onset": 39.0,
          "duration": 0.5,
          "velocity": 100
        },
        {
          "pitch": 62,
          "onset": 39.125,
          "duration": 0.125,
          "velocity": 100
        },
        {
          "pitch": 61,
          "onset": 39.25,
          "duration": 0.25,
          "velocity": 100
        },
        {
          "pitch": 62,
          "onset": 39.5,
          "duration": 1.75,
          "velocity": 100
        },
        {
          "pitch": 71,
          "onset": 39.5,
          "duration": 0.0625,
          "velocity": 100
        },
        {
          "pitch": 70,
          "onset": 39.5625,
          "duration": 0.0625,
          "velocity": 100
        },
        {
          "pitch": 71,
          "onset": 39.625,
          "duration": 0.375,
          "velocity": 100
        },
        {
          "pitch": 83,
          "onset": 40.0,
          "duration": 0.625,
          "velocity": 100
        },
        {
          "pitch": 82,
          "onset": 40.625,
          "duration": 0.125,
          "velocity": 100
        },
        {
          "pitch": 80,
          "onset": 40.75,
          "duration": 0.25,
          "velocity": 100
        },
        {
          "pitch": 82,
          "onset": 41.0,
          "duration": 0.5,
          "velocity": 100
        },
        {
          "pitch": 61,
          "onset": 41.25,
          "duration": 0.125,
          "velocity": 100
        },
        {
          "pitch": 59,
          "onset": 41.375,
          "duration": 0.125,
          "velocity": 100
        },
        {
          "pitch": 61,
          "onset": 41.5,
          "duration": 0.125,
          "velocity": 100
        },
        {
          "pitch": 81,
          "onset": 41.5,
          "duration": 0.625,
          "velocity": 100
        },
        {
          "pitch": 63,
          "onset": 41.625,
          "duration": 0.125,
          "velocity": 100
        },
        {
          "pitch": 64,
          "onset": 41.75,
          "duration": 0.25,
          "velocity": 100
        },
        {
          "pitch": 66,
          "onset": 42.0,
          "duration": 0.75,
          "velocity": 100
        },
        {
          "pitch": 80,
          "onset": 42.125,
          "duration": 0.125,
          "velocity": 100
        },
        {
          "pitch": 78,
          "onset": 42.25,
          "duration": 0.25,
          "velocity": 100
        },
        {
          "pitch": 80,
          "onset": 42.5,
          "duration": 0.5,
          "velocity": 100
        },
        {
          "pitch": 64,
          "onset": 42.75,
          "duration": 0.125,
          "velocity": 100
        },
        {
          "pitch": 63,
          "onset": 42.875,
          "duration": 0.125,
          "velocity": 100
        },
        {
          "pitch": 64,
          "onset": 43.0,
          "duration": 0.125,
          "velocity": 100
        },
        {
          "pitch": 79,
          "onset": 43.0,
          "duration": 0.625,
          "velocity": 100
        },
        {
          "pitch": 66,
          "onset": 43.125,
          "duration": 0.125,
          "velocity": 100
        },
        {
          "pitch": 67,
          "onset": 43.25,
          "duration": 0.25,
          "velocity": 100
        },
        {
          "pitch": 70,
          "onset": 43.5,
          "duration": 0.75,
          "velocity": 100
        },
        {
          "pitch": 78,
          "onset": 43.625,
          "duration": 0.125,
          "velocity": 100
        },
        {
          "pitch": 77,
          "onset": 43.75,
          "duration": 0.25,
          "velocity": 100
        },
        {
          "pitch": 78,
          "onset": 44.0,
          "duration": 0.5,
          "velocity": 100
        },
        {
          "pitch": 71,
          "onset": 44.25,
          "duration": 0.125,
          "velocity": 100
        },
        {
          "pitch": 70,
          "onset": 44.375,
          "duration": 0.125,
          "velocity": 100
        },
        {
          "pitch": 71,
          "onset": 44.5,
          "duration": 0.125,
          "velocity": 100
        },
        {
          "pitch": 77,
          "onset": 44.5,
          "duration": 0.625,
          "velocity": 100
        },
        {
          "pitch": 73,
          "onset": 44.625,
          "duration": 0.125,
          "velocity": 100
        },
        {
          "pitch": 74,
          "onset": 44.75,
          "duration": 0.25,
          "velocity": 100
        },
        {
          "pitch": 68,
          "onset": 45.0,
          "duration": 0.75,
          "velocity": 100
        },
        {
          "pitch": 76,
          "onset": 45.125,
          "duration": 0.125,
          "velocity": 100
        },
        {
          "pitch": 75,
          "onset": 45.25,
          "duration": 0.25,
          "velocity": 100
        },
        {
          "pitch": 76,
          "onset": 45.5,
          "duration": 0.5,
          "velocity": 100
        },
        {
          "pitch": 69,
          "onset": 45.75,
          "duration": 0.125,
          "velocity": 100
        },
        {
          "pitch": 71,
          "onset": 45.875,
          "duration": 0.125,
          "velocity": 100
        },
        {
          "pitch": 64,
          "onset": 46.0,
          "duration": 0.625,
          "velocity": 100
        },
        {
          "pitch": 69,
          "onset": 46.0,
          "duration": 0.125,
          "velocity": 100
        },
        {
          "pitch": 67,
          "onset": 46.125,
          "duration": 0.125,
          "velocity": 100
        },
        {
          "pitch": 66,
          "onset": 46.25,
          "duration": 0.25,
          "velocity": 100
        },
        {
          "pitch": 67,
          "onset": 46.5,
          "duration": 0.75,
          "velocity": 100
        },
        {
          "pitch": 62,
          "onset": 46.625,
          "duration": 0.125,
          "velocity": 100
        },
        {
          "pitch": 61,
          "onset": 46.75,
          "duration": 0.25,
          "velocity": 100
        },
        {
          "pitch": 62,
          "onset": 47.0,
          "duration": 0.5,
          "velocity": 100
        },
        {
          "pitch": 66,
          "onset": 47.25,
          "duration": 0.125,
          "velocity": 100
        },
        {
          "pitch": 65,
          "onset": 47.375,
          "duration": 0.125,
          "velocity": 100
        },
        {
          "pitch": 66,
          "onset": 47.5,
          "duration": 0.125,
          "velocity": 100
        },
        {
          "pitch": 74,
          "onset": 47.5,
          "duration": 0.625,
          "velocity": 100
        },
        {
          "pitch": 70,
          "onset": 47.625,
          "duration": 0.125,
          "velocity": 100
        },
        {
          "pitch": 71,
          "onset": 47.75,
          "duration": 0.25,
          "velocity": 100
        },
        {
          "pitch": 59,
          "onset": 48.0,
          "duration": 0.5,
          "velocity": 100
        },
        {
          "pitch": 73,
          "onset": 48.125,
          "duration": 0.125,
          "velocity": 100
        },
        {
          "pitch": 71,
          "onset": 48.25,
          "duration": 0.25,
          "velocity": 100
        },
        {
          "pitch": 64,
          "onset": 48.5,
          "duration": 0.5,
          "velocity": 100
        },
        {
          "pitch": 73,
          "onset": 48.5,
          "duration": 0.5,
          "velocity": 100
        },
        {
          "pitch": 61,
          "onset": 49.0,
          "duration": 0.0625,
          "velocity": 100
        },
        {
          "pitch": 70,
          "onset": 49.0,
          "duration": 0.0625,
          "velocity": 100
        },
        {
          "pitch": 62,
          "onset": 49.0625,
          "duration": 0.0625,
          "velocity": 100
        },
        {
          "pitch": 71,
          "onset": 49.0625,
          "duration": 0.0625,
          "velocity": 100
        },
        {
          "pitch": 61,
          "onset": 49.125,
          "duration": 0.375,
          "velocity": 100
        },
        {
          "pitch": 70,
          "onset": 49.125,
          "duration": 0.375,
          "velocity": 100
        },
        {
          "pitch": 59,
          "onset": 49.5,
          "duration": 0.875,
          "velocity": 100
        },
        {
          "pitch": 71,
          "onset": 49.5,
          "duration": 0.875,
          "velocity": 100
        },
        {
          "pitch": 71,
          "onset": 50.5,
          "duration": 0.5,
          "velocity": 100
        },
        {
          "pitch": 76,
          "onset": 51.0,
          "duration": 0.125,
          "velocity": 100
        },
        {
          "pitch": 78,
          "onset": 51.125,
          "duration": 0.125,
          "velocity": 100
        },
        {
          "pitch": 79,
          "onset": 51.25,
          "duration": 0.5,
          "velocity": 100
        },
        {
          "pitch": 78,
          "onset": 51.75,
          "duration": 0.25,
          "velocity": 100
        },
        {
          "pitch": 76,
          "onset": 52.0,
          "duration": 0.5,
          "velocity": 100
        },
        {
          "pitch": 76,
          "onset": 52.5,
          "duration": 0.125,
          "velocity": 100
        },
        {
          "pitch": 75,
          "onset": 52.625,
          "duration": 0.375,
          "velocity": 100
        },
        {
          "pitch": 76,
          "onset": 53.0,
          "duration": 0.5,
          "velocity": 100
        },
        {
          "pitch": 69,
          "onset": 54.0,
          "duration": 0.125,
          "velocity": 100
        },
        {
          "pitch": 68,
          "onset": 54.125,
          "duration": 0.625,
          "velocity": 100
        },
        {
          "pitch": 69,
          "onset": 54.75,
          "duration": 0.125,
          "velocity": 100
        },
        {
          "pitch": 71,
          "onset": 54.875,
          "duration": 0.125,
          "velocity": 100
        },
        {
          "pitch": 69,
          "onset": 55.0,
          "duration": 0.125,
          "velocity": 100
        },
        {
          "pitch": 68,
          "onset": 55.125,
          "duration": 0.125,
          "velocity": 100
        },
        {
          "pitch": 66,
          "onset": 55.25,
          "duration": 0.125,
          "velocity": 100
        },
        {
          "pitch": 64,
          "onset": 55.375,
          "duration": 0.125,
          "velocity": 100
        },
        {
          "pitch": 74,
          "onset": 55.5,
          "duration": 0.125,
          "velocity": 100
        },
        {
          "pitch": 73,
          "onset": 55.625,
          "duration": 0.125,
          "velocity": 100
        },
        {
          "pitch": 71,
          "onset": 55.75,
          "duration": 0.25,
          "velocity": 100
        },
        {
          "pitch": 73,
          "onset": 56.0,
          "duration": 0.5,
          "velocity": 100
        },
        {
          "pitch": 74,
          "onset": 57.0,
          "duration": 0.0625,
          "velocity": 100
        },
        {
          "pitch": 72,
          "onset": 57.0625,
          "duration": 0.0625,
          "velocity": 100
        },
        {
          "pitch": 71,
          "onset": 57.125,
          "duration": 0.125,
          "velocity": 100
        },
        {
          "pitch": 72,
          "onset": 57.25,
          "duration": 0.5,
          "velocity": 100
        },
        {
          "pitch": 75,
          "onset": 57.75,
          "duration": 0.5,
          "velocity": 100
        },
        {
          "pitch": 78,
          "onset": 58.25,
          "duration": 0.25,
          "velocity": 100
        },
        {
          "pitch": 81,
          "onset": 58.5,
          "duration": 0.25,
          "velocity": 100
        },
        {
          "pitch": 72,
          "onset": 58.75,
          "duration": 0.25,
          "velocity": 100
        },
        {
          "pitch": 72,
          "onset": 59.0,
          "duration": 0.125,
          "velocity": 100
        },
        {
          "pitch": 71,
          "onset": 59.125,
          "duration": 0.625,
          "velocity": 100
        },
        {
          "pitch": 70,
          "onset": 59.75,
          "duration": 0.25,
          "velocity": 100
        },
        {
          "pitch": 71,
          "onset": 60.0,
          "duration": 0.125,
          "velocity": 100
        },
        {
          "pitch": 75,
          "onset": 60.125,
          "duration": 0.125,
          "velocity": 100
        },
        {
          "pitch": 76,
          "onset": 60.25,
          "duration": 0.25,
          "velocity": 100
        },
        {
          "pitch": 64,
          "onset": 60.5,
          "duration": 0.25,
          "velocity": 100
        },
        {
          "pitch": 69,
          "onset": 60.75,
          "duration": 0.5,
          "velocity": 100
        },
        {
          "pitch": 67,
          "onset": 61.25,
          "duration": 0.125,
          "velocity": 100
        },
        {
          "pitch": 66,
          "onset": 61.375,
          "duration": 0.125,
          "velocity": 100
        },
        {
          "pitch": 67,
          "onset": 61.5,
          "duration": 0.25,
          "velocity": 100
        },
        {
          "pitch": 79,
          "onset": 61.75,
          "duration": 0.25,
          "velocity": 100
        },
        {
          "pitch": 78,
          "onset": 62.0,
          "duration": 0.25,
          "velocity": 100
        },
        {
          "pitch": 71,
          "onset": 62.25,
          "duration": 0.5,
          "velocity": 100
        },
        {
          "pitch": 64,
          "onset": 62.5,
          "duration": 0.5,
          "velocity": 100
        },
        {
          "pitch": 70,
          "onset": 62.75,
          "duration": 0.25,
          "velocity": 100
        },
        {
          "pitch": 71,
          "onset": 63.0,
          "duration": 0.125,
          "velocity": 100
        },
        {
          "pitch": 71,
          "onset": 63.0,
          "duration": 0.125,
          "velocity": 100
        },
        {
          "pitch": 69,
          "onset": 63.125,
          "duration": 0.125,
          "velocity": 100
        },
        {
          "pitch": 73,
          "onset": 63.125,
          "duration": 0.125,
          "velocity": 100
        },
        {
          "pitch": 67,
          "onset": 63.25,
          "duration": 0.25,
          "velocity": 100
        },
        {
          "pitch": 74,
          "onset": 63.25,
          "duration": 0.5,
          "velocity": 100
        },
        {
          "pitch": 66,
          "onset": 63.5,
          "duration": 1.75,
          "velocity": 100
        },
        {
          "pitch": 73,
          "onset": 63.75,
          "duration": 0.25,
          "velocity": 100
        },
        {
          "pitch": 71,
          "onset": 64.0,
          "duration": 0.5,
          "velocity": 100
        },
        {
          "pitch": 71,
          "onset": 64.5,
          "duration": 0.125,
          "velocity": 100
        },
        {
          "pitch": 70,
          "onset": 64.625,
          "duration": 0.375,
          "velocity": 100
        },
        {
          "pitch": 71,
          "onset": 65.0,
          "duration": 0.5,
          "velocity": 100
        },
        {
          "pitch": 78,
          "onset": 65.25,
          "duration": 0.25,
          "velocity": 100
        },
        {
          "pitch": 76,
          "onset": 65.5,
          "duration": 0.125,
          "velocity": 100
        },
        {
          "pitch": 75,
          "onset": 65.625,
          "duration": 0.125,
          "velocity": 100
        },
        {
          "pitch": 73,
          "onset": 65.75,
          "duration": 0.125,
          "velocity": 100
        },
        {
          "pitch": 75,
          "onset": 65.875,
          "duration": 0.125,
          "velocity": 100
        },
        {
          "pitch": 64,
          "onset": 66.0,
          "duration": 0.125,
          "velocity": 100
        },
        {
          "pitch": 81,
          "onset": 66.0,
          "duration": 0.25,
          "velocity": 100
        },
        {
          "pitch": 63,
          "onset": 66.125,
          "duration": 0.625,
          "velocity": 100
        },
        {
          "pitch": 72,
          "onset": 66.25,
          "duration": 0.25,
          "velocity": 100
        },
        {
          "pitch": 71,
          "onset": 66.5,
          "duration": 0.5,
          "velocity": 100
        },
        {
          "pitch": 64,
          "onset": 66.75,
          "duration": 0.125,
          "velocity": 100
        },
        {
          "pitch": 66,
          "onset": 66.875,
          "duration": 0.125,
          "velocity": 100
        },
        {
          "pitch": 64,
          "onset": 67.0,
          "duration": 0.125,
          "velocity": 100
        },
        {
          "pitch": 63,
          "onset": 67.125,
          "duration": 0.125,
          "velocity": 100
        },
        {
          "pitch": 61,
          "onset": 67.25,
          "duration": 0.125,
          "velocity": 100
        },
        {
          "pitch": 79,
          "onset": 67.25,
          "duration": 0.25,
          "velocity": 100
        },
        {
          "pitch": 59,
          "onset": 67.375,
          "duration": 0.125,
          "velocity": 100
        },
        {
          "pitch": 69,
          "onset": 67.5,
          "duration": 0.125,
          "velocity": 100
        },
        {
          "pitch": 78,
          "onset": 67.5,
          "duration": 0.125,
          "velocity": 100
        },
        {
          "pitch": 68,
          "onset": 67.625,
          "duration": 0.125,
          "velocity": 100
        },
        {
          "pitch": 76,
          "onset": 67.625,
          "duration": 0.125,
          "velocity": 100
        },
        {
          "pitch": 66,
          "onset": 67.75,
          "duration": 0.25,
          "velocity": 100
        },
        {
          "pitch": 75,
          "onset": 67.75,
          "duration": 0.25,
          "velocity": 100
        },
        {
          "pitch": 68,
          "onset": 68.0,
          "duration": 0.5,
          "velocity": 100
        },
        {
          "pitch": 76,
          "onset": 68.0,
          "duration": 0.25,
          "velocity": 100
        },
        {
          "pitch": 74,
          "onset": 68.25,
          "duration": 0.125,
          "velocity": 100
        },
        {
          "pitch": 73,
          "onset": 68.375,
          "duration": 0.125,
          "velocity": 100
        },
        {
          "pitch": 71,
          "onset": 68.5,
          "duration": 0.125,
          "velocity": 100
        },
        {
          "pitch": 70,
          "onset": 68.625,
          "duration": 0.125,
          "velocity": 100
        },
        {
          "pitch": 71,
          "onset": 68.75,
          "duration": 0.25,
          "velocity": 100
        },
        {
          "pitch": 64,
          "onset": 69.0,
          "duration": 0.25,
          "velocity": 100
        },
        {
          "pitch": 69,
          "onset": 69.0,
          "duration": 0.0625,
          "velocity": 100
        },
        {
          "pitch": 67,
          "onset": 69.0625,
          "duration": 0.0625,
          "velocity": 100
        },
        {
          "pitch": 66,
          "onset": 69.125,
          "duration": 0.125,
          "velocity": 100
        },
        {
          "pitch": 67,
          "onset": 69.25,
          "duration": 0.5,
          "velocity": 100
        },
        {
          "pitch": 71,
          "onset": 69.25,
          "duration": 0.25,
          "velocity": 100
        },
        {
          "pitch": 70,
          "onset": 69.5,
          "duration": 0.5,
          "velocity": 100
        },
        {
          "pitch": 70,
          "onset": 69.75,
          "duration": 0.5,
          "velocity": 100
        },
        {
          "pitch": 73,
          "onset": 70.25,
          "duration": 0.25,
          "velocity": 100
        },
        {
          "pitch": 73,
          "onset": 70.5,
          "duration": 0.25,
          "velocity": 100
        },
        {
          "pitch": 76,
          "onset": 70.5,
          "duration": 0.25,
          "velocity": 100
        },
        {
          "pitch": 64,
          "onset": 70.75,
          "duration": 0.25,
          "velocity": 100
        },
        {
          "pitch": 67,
          "onset": 70.75,
          "duration": 0.25,
          "velocity": 100
        },
        {
          "pitch": 62,
          "onset": 71.0,
          "duration": 0.25,
          "velocity": 100
        },
        {
          "pitch": 66,
          "onset": 71.0,
          "duration": 0.75,
          "velocity": 100
        },
        {
          "pitch": 66,
          "onset": 71.25,
          "duration": 0.25,
          "velocity": 100
        },
        {
          "pitch": 70,
          "onset": 71.5,
          "duration": 0.5,
          "velocity": 100
        },
        {
          "pitch": 65,
          "onset": 71.75,
          "duration": 0.25,
          "velocity": 100
        },
        {
          "pitch": 66,
          "onset": 72.0,
          "duration": 0.125,
          "velocity": 100
        },
        {
          "pitch": 70,
          "onset": 72.125,
          "duration": 0.125,
          "velocity": 100
        },
        {
          "pitch": 71,
          "onset": 72.25,
          "duration": 0.25,
          "velocity": 100
        },
        {
          "pitch": 78,
          "onset": 72.25,
          "duration": 0.25,
          "velocity": 100
        },
        {
          "pitch": 59,
          "onset": 72.5,
          "duration": 0.25,
          "velocity": 100
        },
        {
          "pitch": 79,
          "onset": 72.5,
          "duration": 0.25,
          "velocity": 100
        },
        {
          "pitch": 64,
          "onset": 72.75,
          "duration": 0.5,
          "velocity": 100
        },
        {
          "pitch": 76,
          "onset": 72.75,
          "duration": 0.25,
          "velocity": 100
        },
        {
          "pitch": 73,
          "onset": 73.0,
          "duration": 0.25,
          "velocity": 100
        },
        {
          "pitch": 62,
          "onset": 73.25,
          "duration": 0.125,
          "velocity": 100
        },
        {
          "pitch": 82,
          "onset": 73.25,
          "duration": 0.25,
          "velocity": 100
        },
        {
          "pitch": 61,
          "onset": 73.375,
          "duration": 0.125,
          "velocity": 100
        },
        {
          "pitch": 62,
          "onset": 73.5,
          "duration": 0.5,
          "velocity": 100
        },
        {
          "pitch": 83,
          "onset": 73.5,
          "duration": 0.25,
          "velocity": 100
        },
        {
          "pitch": 71,
          "onset": 73.75,
          "duration": 0.5,
          "velocity": 100
        },
        {
          "pitch": 69,
          "onset": 74.25,
          "duration": 0.375,
          "velocity": 100
        },
        {
          "pitch": 77,
          "onset": 74.5,
          "duration": 0.75,
          "velocity": 100
        },
        {
          "pitch": 68,
          "onset": 74.625,
          "duration": 0.125,
          "velocity": 100
        },
        {
          "pitch": 69,
          "onset": 74.75,
          "duration": 0.25,
          "velocity": 100
        },
        {
          "pitch": 68,
          "onset": 75.0,
          "duration": 0.125,
          "velocity": 100
        },
        {
          "pitch": 69,
          "onset": 75.125,
          "duration": 0.125,
          "velocity": 100
        },
        {
          "pitch": 71,
          "onset": 75.25,
          "duration": 0.25,
          "velocity": 100
        },
        {
          "pitch": 76,
          "onset": 75.25,
          "duration": 0.5,
          "velocity": 100
        },
        {
          "pitch": 74,
          "onset": 75.75,
          "duration": 0.375,
          "velocity": 100
        },
        {
          "pitch": 83,
          "onset": 76.0,
          "duration": 0.75,
          "velocity": 100
        },
        {
          "pitch": 72,
          "onset": 76.125,
          "duration": 0.125,
          "velocity": 100
        },
        {
          "pitch": 71,
          "onset": 76.25,
          "duration": 0.25,
          "velocity": 100
        },
        {
          "pitch": 72,
          "onset": 76.5,
          "duration": 0.125,
          "velocity": 100
        },
        {
          "pitch": 74,
          "onset": 76.625,
          "duration": 0.125,
          "velocity": 100
        },
        {
          "pitch": 76,
          "onset": 76.75,
          "duration": 0.25,
          "velocity": 100
        },
        {
          "pitch": 81,
          "onset": 76.75,
          "duration": 0.5,
          "velocity": 100
        },
        {
          "pitch": 79,
          "onset": 77.25,
          "duration": 0.375,
          "velocity": 100
        },
        {
          "pitch": 64,
          "onset": 77.5,
          "duration": 0.75,
          "velocity": 100
        },
        {
          "pitch": 78,
          "onset": 77.625,
          "duration": 0.125,
          "velocity": 100
        },
        {
          "pitch": 76,
          "onset": 77.75,
          "duration": 0.25,
          "velocity": 100
        },
        {
          "pitch": 78,
          "onset": 78.0,
          "duration": 0.125,
          "velocity": 100
        },
        {
          "pitch": 79,
          "onset": 78.125,
          "duration": 0.125,
          "velocity": 100
        },
        {
          "pitch": 62,
          "onset": 78.25,
          "duration": 0.5,
          "velocity": 100
        },
        {
          "pitch": 81,
          "onset": 78.25,
          "duration": 0.25,
          "velocity": 100
        },
        {
          "pitch": 60,
          "onset": 78.75,
          "duration": 0.375,
          "velocity": 100
        },
        {
          "pitch": 69,
          "onset": 79.0,
          "duration": 0.75,
          "velocity": 100
        },
        {
          "pitch": 59,
          "onset": 79.125,
          "duration": 0.125,
          "velocity": 100
        },
        {
          "pitch": 57,
          "onset": 79.25,
          "duration": 0.25,
          "velocity": 100
        },
        {
          "pitch": 59,
          "onset": 79.5,
          "duration": 0.125,
          "velocity": 100
        },
        {
          "pitch": 60,
          "onset": 79.625,
          "duration": 0.125,
          "velocity": 100
        },
        {
          "pitch": 62,
          "onset": 79.75,
          "duration": 0.25,
          "velocity": 100
        },
        {
          "pitch": 67,
          "onset": 79.75,
          "duration": 0.5,
          "velocity": 100
        },
        {
          "pitch": 65,
          "onset": 80.25,
          "duration": 0.375,
          "velocity": 100
        },
        {
          "pitch": 74,
          "onset": 80.5,
          "duration": 0.625,
          "velocity": 100
        },
        {
          "pitch": 64,
          "onset": 80.625,
          "duration": 0.125,
          "velocity": 100
        },
        {
          "pitch": 62,
          "onset": 80.75,
          "duration": 0.25,
          "velocity": 100
        },
        {
          "pitch": 64,
          "onset": 81.0,
          "duration": 0.5,
          "velocity": 100
        },
        {
          "pitch": 72,
          "onset": 81.125,
          "duration": 0.125,
          "velocity": 100
        },
        {
          "pitch": 71,
          "onset": 81.25,
          "duration": 0.25,
          "velocity": 100
        },
        {
          "pitch": 69,
          "onset": 81.5,
          "duration": 0.125,
          "velocity": 100
        },
        {
          "pitch": 71,
          "onset": 81.5,
          "duration": 0.0625,
          "velocity": 100
        },
        {
          "pitch": 67,
          "onset": 81.5625,
          "duration": 0.125,
          "velocity": 100
        },
        {
          "pitch": 72,
          "onset": 81.5625,
          "duration": 1.6875,
          "velocity": 100
        },
        {
          "pitch": 69,
          "onset": 81.625,
          "duration": 1.0,
          "velocity": 100
        },
        {
          "pitch": 67,
          "onset": 82.625,
          "duration": 0.125,
          "velocity": 100
        },
        {
          "pitch": 66,
          "onset": 82.75,
          "duration": 0.25,
          "velocity": 100
        },
        {
          "pitch": 67,
          "onset": 83.0,
          "duration": 0.5,
          "velocity": 100
        },
        {
          "pitch": 71,
          "onset": 83.25,
          "duration": 0.125,
          "velocity": 100
        },
        {
          "pitch": 73,
          "onset": 83.375,
          "duration": 0.125,
          "velocity": 100
        },
        {
          "pitch": 75,
          "onset": 83.5,
          "duration": 0.125,
          "velocity": 100
        },
        {
          "pitch": 81,
          "onset": 83.5,
          "duration": 0.625,
          "velocity": 100
        },
        {
          "pitch": 76,
          "onset": 83.625,
          "duration": 0.125,
          "velocity": 100
        },
        {
          "pitch": 78,
          "onset": 83.75,
          "duration": 0.25,
          "velocity": 100
        },
        {
          "pitch": 71,
          "onset": 84.0,
          "duration": 0.5,
          "velocity": 100
        },
        {
          "pitch": 79,
          "onset": 84.125,
          "duration": 0.125,
          "velocity": 100
        },
        {
          "pitch": 78,
          "onset": 84.25,
          "duration": 0.25,
          "velocity": 100
        },
        {
          "pitch": 76,
          "onset": 84.5,
          "duration": 1.125,
          "velocity": 100
        },
        {
          "pitch": 79,
          "onset": 84.5,
          "duration": 1.75,
          "velocity": 100
        },
        {
          "pitch": 74,
          "onset": 85.625,
          "duration": 0.125,
          "velocity": 100
        },
        {
          "pitch": 73,
          "onset": 85.75,
          "duration": 0.25,
          "velocity": 100
        },
        {
          "pitch": 74,
          "onset": 86.0,
          "duration": 0.5,
          "velocity": 100
        },
        {
          "pitch": 78,
          "onset": 86.25,
          "duration": 0.125,
          "velocity": 100
        },
        {
          "pitch": 76,
          "onset": 86.375,
          "duration": 0.125,
          "velocity": 100
        },
        {
          "pitch": 64,
          "onset": 86.5,
          "duration": 0.625,
          "velocity": 100
        },
        {
          "pitch": 74,
          "onset": 86.5,
          "duration": 0.125,
          "velocity": 100
        },
        {
          "pitch": 73,
          "onset": 86.625,
          "duration": 0.125,
          "velocity": 100
        },
        {
          "pitch": 71,
          "onset": 86.75,
          "duration": 0.25,
          "velocity": 100
        },
        {
          "pitch": 70,
          "onset": 87.0,
          "duration": 0.5,
          "velocity": 100
        },
        {
          "pitch": 62,
          "onset": 87.125,
          "duration": 0.125,
          "velocity": 100
        },
        {
          "pitch": 61,
          "onset": 87.25,
          "duration": 0.25,
          "velocity": 100
        },
        {
          "pitch": 62,
          "onset": 87.5,
          "duration": 1.75,
          "velocity": 100
        },
        {
          "pitch": 71,
          "onset": 87.5,
          "duration": 0.0625,
          "velocity": 100
        },
        {
          "pitch": 70,
          "onset": 87.5625,
          "duration": 0.0625,
          "velocity": 100
        },
        {
          "pitch": 71,
          "onset": 87.625,
          "duration": 0.375,
          "velocity": 100
        },
        {
          "pitch": 83,
          "onset": 88.0,
          "duration": 0.625,
          "velocity": 100
        },
        {
          "pitch": 82,
          "onset": 88.625,
          "duration": 0.125,
          "velocity": 100
        },
        {
          "pitch": 80,
          "onset": 88.75,
          "duration": 0.25,
          "velocity": 100
        },
        {
          "pitch": 82,
          "onset": 89.0,
          "duration": 0.5,
          "velocity": 100
        },
        {
          "pitch": 61,
          "onset": 89.25,
          "duration": 0.125,
          "velocity": 100
        },
        {
          "pitch": 59,
          "onset": 89.375,
          "duration": 0.125,
          "velocity": 100
        },
        {
          "pitch": 61,
          "onset": 89.5,
          "duration": 0.125,
          "velocity": 100
        },
        {
          "pitch": 81,
          "onset": 89.5,
          "duration": 0.625,
          "velocity": 100
        },
        {
          "pitch": 63,
          "onset": 89.625,
          "duration": 0.125,
          "velocity": 100
        },
        {
          "pitch": 64,
          "onset": 89.75,
          "duration": 0.25,
          "velocity": 100
        },
        {
          "pitch": 66,
          "onset": 90.0,
          "duration": 0.75,
          "velocity": 100
        },
        {
          "pitch": 80,
          "onset": 90.125,
          "duration": 0.125,
          "velocity": 100
        },
        {
          "pitch": 78,
          "onset": 90.25,
          "duration": 0.25,
          "velocity": 100
        },
        {
          "pitch": 80,
          "onset": 90.5,
          "duration": 0.5,
          "velocity": 100
        },
        {
          "pitch": 64,
          "onset": 90.75,
          "duration": 0.125,
          "velocity": 100
        },
        {
          "pitch": 63,
          "onset": 90.875,
          "duration": 0.125,
          "velocity": 100
        },
        {
          "pitch": 64,
          "onset": 91.0,
          "duration": 0.125,
          "velocity": 100
        },
        {
          "pitch": 79,
          "onset": 91.0,
          "duration": 0.625,
          "velocity": 100
        },
        {
          "pitch": 66,
          "onset": 91.125,
          "duration": 0.125,
          "velocity": 100
        },
        {
          "pitch": 67,
          "onset": 91.25,
          "duration": 0.25,
          "velocity": 100
        },
        {
          "pitch": 70,
          "onset": 91.5,
          "duration": 0.75,
          "velocity": 100
        },
        {
          "pitch": 78,
          "onset": 91.625,
          "duration": 0.125,
          "velocity": 100
        },
        {
          "pitch": 77,
          "onset": 91.75,
          "duration": 0.25,
          "velocity": 100
        },
        {
          "pitch": 78,
          "onset": 92.0,
          "duration": 0.5,
          "velocity": 100
        },
        {
          "pitch": 71,
          "onset": 92.25,
          "duration": 0.125,
          "velocity": 100
        },
        {
          "pitch": 70,
          "onset": 92.375,
          "duration": 0.125,
          "velocity": 100
        },
        {
          "pitch": 71,
          "onset": 92.5,
          "duration": 0.125,
          "velocity": 100
        },
        {
          "pitch": 77,
          "onset": 92.5,
          "duration": 0.625,
          "velocity": 100
        },
        {
          "pitch": 73,
          "onset": 92.625,
          "duration": 0.125,
          "velocity": 100
        },
        {
          "pitch": 74,
          "onset": 92.75,
          "duration": 0.25,
          "velocity": 100
        },
        {
          "pitch": 68,
          "onset": 93.0,
          "duration": 0.75,
          "velocity": 100
        },
        {
          "pitch": 76,
          "onset": 93.125,
          "duration": 0.125,
          "velocity": 100
        },
        {
          "pitch": 75,
          "onset": 93.25,
          "duration": 0.25,
          "velocity": 100
        },
        {
          "pitch": 76,
          "onset": 93.5,
          "duration": 0.5,
          "velocity": 100
        },
        {
          "pitch": 69,
          "onset": 93.75,
          "duration": 0.125,
          "velocity": 100
        },
        {
          "pitch": 71,
          "onset": 93.875,
          "duration": 0.125,
          "velocity": 100
        },
        {
          "pitch": 64,
          "onset": 94.0,
          "duration": 0.625,
          "velocity": 100
        },
        {
          "pitch": 69,
          "onset": 94.0,
          "duration": 0.125,
          "velocity": 100
        },
        {
          "pitch": 67,
          "onset": 94.125,
          "duration": 0.125,
          "velocity": 100
        },
        {
          "pitch": 66,
          "onset": 94.25,
          "duration": 0.25,
          "velocity": 100
        },
        {
          "pitch": 67,
          "onset": 94.5,
          "duration": 0.75,
          "velocity": 100
        },
        {
          "pitch": 62,
          "onset": 94.625,
          "duration": 0.125,
          "velocity": 100
        },
        {
          "pitch": 61,
          "onset": 94.75,
          "duration": 0.25,
          "velocity": 100
        },
        {
          "pitch": 62,
          "onset": 95.0,
          "duration": 0.5,
          "velocity": 100
        },
        {
          "pitch": 66,
          "onset": 95.25,
          "duration": 0.125,
          "velocity": 100
        },
        {
          "pitch": 65,
          "onset": 95.375,
          "duration": 0.125,
          "velocity": 100
        },
        {
          "pitch": 66,
          "onset": 95.5,
          "duration": 0.125,
          "velocity": 100
        },
        {
          "pitch": 74,
          "onset": 95.5,
          "duration": 0.625,
          "velocity": 100
        },
        {
          "pitch": 70,
          "onset": 95.625,
          "duration": 0.125,
          "velocity": 100
        },
        {
          "pitch": 71,
          "onset": 95.75,
          "duration": 0.25,
          "velocity": 100
        },
        {
          "pitch": 59,
          "onset": 96.0,
          "duration": 0.5,
          "velocity": 100
        },
        {
          "pitch": 73,
          "onset": 96.125,
          "duration": 0.125,
          "velocity": 100
        },
        {
          "pitch": 71,
          "onset": 96.25,
          "duration": 0.25,
          "velocity": 100
        },
        {
          "pitch": 64,
          "onset": 96.5,
          "duration": 0.5,
          "velocity": 100
        },
        {
          "pitch": 73,
          "onset": 96.5,
          "duration": 0.5,
          "velocity": 100
        },
        {
          "pitch": 61,
          "onset": 97.0,
          "duration": 0.0625,
          "velocity": 100
        },
        {
          "pitch": 70,
          "onset": 97.0,
          "duration": 0.0625,
          "velocity": 100
        },
        {
          "pitch": 62,
          "onset": 97.0625,
          "duration": 0.0625,
          "velocity": 100
        },
        {
          "pitch": 71,
          "onset": 97.0625,
          "duration": 0.0625,
          "velocity": 100
        },
        {
          "pitch": 61,
          "onset": 97.125,
          "duration": 0.375,
          "velocity": 100
        },
        {
          "pitch": 70,
          "onset": 97.125,
          "duration": 0.375,
          "velocity": 100
        },
        {
          "pitch": 59,
          "onset": 97.5,
          "duration": 0.5,
          "velocity": 100
        },
        {
          "pitch": 71,
          "onset": 97.5,
          "duration": 0.875,
          "velocity": 100
        },
        {
          "pitch": 66,
          "onset": 98.5,
          "duration": 0.5,
          "velocity": 100
        },
        {
          "pitch": 64,
          "onset": 99.0,
          "duration": 0.0625,
          "velocity": 100
        },
        {
          "pitch": 63,
          "onset": 99.0625,
          "duration": 0.6875,
          "velocity": 100
        },
        {
          "pitch": 59,
          "onset": 99.75,
          "duration": 0.125,
          "velocity": 100
        },
        {
          "pitch": 61,
          "onset": 99.875,
          "duration": 0.125,
          "velocity": 100
        },
        {
          "pitch": 63,
          "onset": 100.0,
          "duration": 0.125,
          "velocity": 100
        },
        {
          "pitch": 64,
          "onset": 100.125,
          "duration": 0.125,
          "velocity": 100
        },
        {
          "pitch": 66,
          "onset": 100.25,
          "duration": 0.25,
          "velocity": 100
        },
        {
          "pitch": 69,
          "onset": 100.5,
          "duration": 0.75,
          "velocity": 100
        },
        {
          "pitch": 63,
          "onset": 101.25,
          "duration": 0.125,
          "velocity": 100
        },
        {
          "pitch": 64,
          "onset": 101.375,
          "duration": 0.125,
          "velocity": 100
        },
        {
          "pitch": 66,
          "onset": 101.5,
          "duration": 0.125,
          "velocity": 100
        },
        {
          "pitch": 67,
          "onset": 101.625,
          "duration": 0.125,
          "velocity": 100
        },
        {
          "pitch": 69,
          "onset": 101.75,
          "duration": 0.25,
          "velocity": 100
        },
        {
          "pitch": 72,
          "onset": 102.0,
          "duration": 0.25,
          "velocity": 100
        },
        {
          "pitch": 71,
          "onset": 102.25,
          "duration": 0.5,
          "velocity": 100
        },
        {
          "pitch": 69,
          "onset": 102.75,
          "duration": 0.125,
          "velocity": 100
        },
        {
          "pitch": 67,
          "onset": 102.875,
          "duration": 0.125,
          "velocity": 100
        },
        {
          "pitch": 66,
          "onset": 103.0,
          "duration": 0.125,
          "velocity": 100
        },
        {
          "pitch": 67,
          "onset": 103.125,
          "duration": 0.125,
          "velocity": 100
        },
        {
          "pitch": 69,
          "onset": 103.25,
          "duration": 0.5,
          "velocity": 100
        },
        {
          "pitch": 67,
          "onset": 103.75,
          "duration": 0.5,
          "velocity": 100
        },
        {
          "pitch": 66,
          "onset": 104.25,
          "duration": 0.125,
          "velocity": 100
        },
        {
          "pitch": 64,
          "onset": 104.375,
          "duration": 0.125,
          "velocity": 100
        },
        {
          "pitch": 63,
          "onset": 104.5,
          "duration": 0.125,
          "velocity": 100
        },
        {
          "pitch": 71,
          "onset": 104.5,
          "duration": 0.5,
          "velocity": 100
        },
        {
          "pitch": 64,
          "onset": 104.625,
          "duration": 0.125,
          "velocity": 100
        },
        {
          "pitch": 66,
          "onset": 104.75,
          "duration": 0.25,
          "velocity": 100
        },
        {
          "pitch": 64,
          "onset": 105.0,
          "duration": 0.25,
          "velocity": 100
        },
        {
          "pitch": 69,
          "onset": 105.0,
          "duration": 0.0625,
          "velocity": 100
        },
        {
          "pitch": 68,
          "onset": 105.0625,
          "duration": 0.6875,
          "velocity": 100
        },
        {
          "pitch": 68,
          "onset": 105.25,
          "duration": 0.25,
          "velocity": 100
        },
        {
          "pitch": 71,
          "onset": 105.5,
          "duration": 0.5,
          "velocity": 100
        },
        {
          "pitch": 64,
          "onset": 105.75,
          "duration": 0.125,
          "velocity": 100
        },
        {
          "pitch": 66,
          "onset": 105.875,
          "duration": 0.125,
          "velocity": 100
        },
        {
          "pitch": 68,
          "onset": 106.0,
          "duration": 0.125,
          "velocity": 100
        },
        {
          "pitch": 69,
          "onset": 106.125,
          "duration": 0.125,
          "velocity": 100
        },
        {
          "pitch": 71,
          "onset": 106.25,
          "duration": 0.25,
          "velocity": 100
        },
        {
          "pitch": 68,
          "onset": 106.5,
          "duration": 0.25,
          "velocity": 100
        },
        {
          "pitch": 74,
          "onset": 106.5,
          "duration": 0.75,
          "velocity": 100
        },
        {
          "pitch": 71,
          "onset": 106.75,
          "duration": 0.25,
          "velocity": 100
        },
        {
          "pitch": 74,
          "onset": 107.0,
          "duration": 0.5,
          "velocity": 100
        },
        {
          "pitch": 68,
          "onset": 107.25,
          "duration": 0.125,
          "velocity": 100
        },
        {
          "pitch": 69,
          "onset": 107.375,
          "duration": 0.125,
          "velocity": 100
        },
        {
          "pitch": 71,
          "onset": 107.5,
          "duration": 0.125,
          "velocity": 100
        },
        {
          "pitch": 72,
          "onset": 107.625,
          "duration": 0.125,
          "velocity": 100
        },
        {
          "pitch": 74,
          "onset": 107.75,
          "duration": 0.25,
          "velocity": 100
        },
        {
          "pitch": 77,
          "onset": 108.0,
          "duration": 0.25,
          "velocity": 100
        },
        {
          "pitch": 76,
          "onset": 108.25,
          "duration": 0.5,
          "velocity": 100
        },
        {
          "pitch": 71,
          "onset": 108.5,
          "duration": 0.25,
          "velocity": 100
        },
        {
          "pitch": 74,
          "onset": 108.75,
          "duration": 0.125,
          "velocity": 100
        },
        {
          "pitch": 74,
          "onset": 108.75,
          "duration": 0.25,
          "velocity": 100
        },
        {
          "pitch": 72,
          "onset": 108.875,
          "duration": 0.125,
          "velocity": 100
        },
        {
          "pitch": 71,
          "onset": 109.0,
          "duration": 0.125,
          "velocity": 100
        },
        {
          "pitch": 77,
          "onset": 109.0,
          "duration": 0.5,
          "velocity": 100
        },
        {
          "pitch": 72,
          "onset": 109.125,
          "duration": 0.125,
          "velocity": 100
        },
        {
          "pitch": 74,
          "onset": 109.25,
          "duration": 0.5,
          "velocity": 100
        },
        {
          "pitch": 76,
          "onset": 109.5,
          "duration": 0.5,
          "velocity": 100
        },
        {
          "pitch": 72,
          "onset": 109.75,
          "duration": 0.5,
          "velocity": 100
        },
        {
          "pitch": 69,
          "onset": 110.0,
          "duration": 0.5,
          "velocity": 100
        },
        {
          "pitch": 71,
          "onset": 110.25,
          "duration": 0.125,
          "velocity": 100
        },
        {
          "pitch": 69,
          "onset": 110.375,
          "duration": 0.125,
          "velocity": 100
        },
        {
          "pitch": 68,
          "onset": 110.5,
          "duration": 0.125,
          "velocity": 100
        },
        {
          "pitch": 71,
          "onset": 110.5,
          "duration": 0.5,
          "velocity": 100
        },
        {
          "pitch": 69,
          "onset": 110.625,
          "duration": 0.125,
          "velocity": 100
        },
        {
          "pitch": 71,
          "onset": 110.75,
          "duration": 0.25,
          "velocity": 100
        },
        {
          "pitch": 69,
          "onset": 111.0,
          "duration": 0.5,
          "velocity": 100
        },
        {
          "pitch": 72,
          "onset": 111.0,
          "duration": 0.125,
          "velocity": 100
        },
        {
          "pitch": 77,
          "onset": 111.125,
          "duration": 0.125,
          "velocity": 100
        },
        {
          "pitch": 76,
          "onset": 111.25,
          "duration": 0.125,
          "velocity": 100
        },
        {
          "pitch": 74,
          "onset": 111.375,
          "duration": 0.125,
          "velocity": 100
        },
        {
          "pitch": 76,
          "onset": 111.5,
          "duration": 0.125,
          "velocity": 100
        },
        {
          "pitch": 81,
          "onset": 111.625,
          "duration": 0.125,
          "velocity": 100
        },
        {
          "pitch": 79,
          "onset": 111.75,
          "duration": 0.125,
          "velocity": 100
        },
        {
          "pitch": 77,
          "onset": 111.875,
          "duration": 0.125,
          "velocity": 100
        },
        {
          "pitch": 76,
          "onset": 112.0,
          "duration": 0.625,
          "velocity": 100
        },
        {
          "pitch": 79,
          "onset": 112.0,
          "duration": 0.125,
          "velocity": 100
        },
        {
          "pitch": 70,
          "onset": 112.125,
          "duration": 0.125,
          "velocity": 100
        },
        {
          "pitch": 69,
          "onset": 112.25,
          "duration": 0.125,
          "velocity": 100
        },
        {
          "pitch": 67,
          "onset": 112.375,
          "duration": 0.125,
          "velocity": 100
        },
        {
          "pitch": 73,
          "onset": 112.5,
          "duration": 0.5,
          "velocity": 100
        },
        {
          "pitch": 70,
          "onset": 112.625,
          "duration": 0.125,
          "velocity": 100
        },
        {
          "pitch": 69,
          "onset": 112.75,
          "duration": 0.125,
          "velocity": 100
        },
        {
          "pitch": 67,
          "onset": 112.875,
          "duration": 0.125,
          "velocity": 100
        },
        {
          "pitch": 69,
          "onset": 113.0,
          "duration": 0.125,
          "velocity": 100
        },
        {
          "pitch": 74,
          "onset": 113.0,
          "duration": 0.5,
          "velocity": 100
        },
        {
          "pitch": 75,
          "onset": 113.125,
          "duration": 0.125,
          "velocity": 100
        },
        {
          "pitch": 74,
          "onset": 113.25,
          "duration": 0.125,
          "velocity": 100
        },
        {
          "pitch": 73,
          "onset": 113.375,
          "duration": 0.125,
          "velocity": 100
        },
        {
          "pitch": 74,
          "onset": 113.5,
          "duration": 0.125,
          "velocity": 100
        },
        {
          "pitch": 82,
          "onset": 113.625,
          "duration": 0.125,
          "velocity": 100
        },
        {
          "pitch": 81,
          "onset": 113.75,
          "duration": 0.125,
          "velocity": 100
        },
        {
          "pitch": 80,
          "onset": 113.875,
          "duration": 0.125,
          "velocity": 100
        },
        {
          "pitch": 75,
          "onset": 114.0,
          "duration": 0.125,
          "velocity": 100
        },
        {
          "pitch": 81,
          "onset": 114.0,
          "duration": 0.5,
          "velocity": 100
        },
        {
          "pitch": 79,
          "onset": 114.125,
          "duration": 0.125,
          "velocity": 100
        },
        {
          "pitch": 78,
          "onset": 114.25,
          "duration": 0.125,
          "velocity": 100
        },
        {
          "pitch": 76,
          "onset": 114.375,
          "duration": 0.125,
          "velocity": 100
        },
        {
          "pitch": 75,
          "onset": 114.5,
          "duration": 0.5,
          "velocity": 100
        },
        {
          "pitch": 78,
          "onset": 114.5,
          "duration": 0.125,
          "velocity": 100
        },
        {
          "pitch": 83,
          "onset": 114.625,
          "duration": 0.125,
          "velocity": 100
        },
        {
          "pitch": 81,
          "onset": 114.75,
          "duration": 0.125,
          "velocity": 100
        },
        {
          "pitch": 79,
          "onset": 114.875,
          "duration": 0.125,
          "velocity": 100
        },
        {
          "pitch": 78,
          "onset": 115.0,
          "duration": 0.625,
          "velocity": 100
        },
        {
          "pitch": 81,
          "onset": 115.0,
          "duration": 0.125,
          "velocity": 100
        },
        {
          "pitch": 72,
          "onset": 115.125,
          "duration": 0.125,
          "velocity": 100
        },
        {
          "pitch": 71,
          "onset": 115.25,
          "duration": 0.125,
          "velocity": 100
        },
        {
          "pitch": 69,
          "onset": 115.375,
          "duration": 0.125,
          "velocity": 100
        },
        {
          "pitch": 75,
          "onset": 115.5,
          "duration": 0.5,
          "velocity": 100
        },
        {
          "pitch": 72,
          "onset": 115.625,
          "duration": 0.125,
          "velocity": 100
        },
        {
          "pitch": 71,
          "onset": 115.75,
          "duration": 0.125,
          "velocity": 100
        },
        {
          "pitch": 69,
          "onset": 115.875,
          "duration": 0.125,
          "velocity": 100
        },
        {
          "pitch": 71,
          "onset": 116.0,
          "duration": 0.125,
          "velocity": 100
        },
        {
          "pitch": 76,
          "onset": 116.0,
          "duration": 0.5,
          "velocity": 100
        },
        {
          "pitch": 77,
          "onset": 116.125,
          "duration": 0.125,
          "velocity": 100
        },
        {
          "pitch": 76,
          "onset": 116.25,
          "duration": 0.125,
          "velocity": 100
        },
        {
          "pitch": 75,
          "onset": 116.375,
          "duration": 0.125,
          "velocity": 100
        },
        {
          "pitch": 76,
          "onset": 116.5,
          "duration": 0.125,
          "velocity": 100
        },
        {
          "pitch": 84,
          "onset": 116.625,
          "duration": 0.125,
          "velocity": 100
        },
        {
          "pitch": 83,
          "onset": 116.75,
          "duration": 0.125,
          "velocity": 100
        },
        {
          "pitch": 82,
          "onset": 116.875,
          "duration": 0.125,
          "velocity": 100
        },
        {
          "pitch": 83,
          "onset": 117.0,
          "duration": 0.5,
          "velocity": 100
        },
        {
          "pitch": 64,
          "onset": 117.25,
          "duration": 0.125,
          "velocity": 100
        },
        {
          "pitch": 66,
          "onset": 117.375,
          "duration": 0.125,
          "velocity": 100
        },
        {
          "pitch": 68,
          "onset": 117.5,
          "duration": 0.125,
          "velocity": 100
        },
        {
          "pitch": 69,
          "onset": 117.625,
          "duration": 0.125,
          "velocity": 100
        },
        {
          "pitch": 71,
          "onset": 117.75,
          "duration": 0.125,
          "velocity": 100
        },
        {
          "pitch": 77,
          "onset": 117.75,
          "duration": 0.125,
          "velocity": 100
        },
        {
          "pitch": 72,
          "onset": 117.875,
          "duration": 0.125,
          "velocity": 100
        },
        {
          "pitch": 76,
          "onset": 117.875,
          "duration": 0.125,
          "velocity": 100
        },
        {
          "pitch": 74,
          "onset": 118.0,
          "duration": 0.125,
          "velocity": 100
        },
        {
          "pitch": 74,
          "onset": 118.0,
          "duration": 0.625,
          "velocity": 100
        },
        {
          "pitch": 72,
          "onset": 118.125,
          "duration": 0.125,
          "velocity": 100
        },
        {
          "pitch": 71,
          "onset": 118.25,
          "duration": 0.125,
          "velocity": 100
        },
        {
          "pitch": 69,
          "onset": 118.375,
          "duration": 0.125,
          "velocity": 100
        },
        {
          "pitch": 68,
          "onset": 118.5,
          "duration": 0.0625,
          "velocity": 100
        },
        {
          "pitch": 69,
          "onset": 118.5625,
          "duration": 0.0625,
          "velocity": 100
        },
        {
          "pitch": 68,
          "onset": 118.625,
          "duration": 0.0625,
          "velocity": 100
        },
        {
          "pitch": 71,
          "onset": 118.625,
          "duration": 0.125,
          "velocity": 100
        },
        {
          "pitch": 69,
          "onset": 118.6875,
          "duration": 0.0625,
          "velocity": 100
        },
        {
          "pitch": 68,
          "onset": 118.75,
          "duration": 0.0625,
          "velocity": 100
        },
        {
          "pitch": 68,
          "onset": 118.75,
          "duration": 0.125,
          "velocity": 100
        },
        {
          "pitch": 69,
          "onset": 118.8125,
          "duration": 0.0625,
          "velocity": 100
        },
        {
          "pitch": 68,
          "onset": 118.875,
          "duration": 0.0625,
          "velocity": 100
        },
        {
          "pitch": 69,
          "onset": 118.875,
          "duration": 0.125,
          "velocity": 100
        },
        {
          "pitch": 69,
          "onset": 118.9375,
          "duration": 0.0625,
          "velocity": 100
        },
        {
          "pitch": 68,
          "onset": 119.0,
          "duration": 0.0625,
          "velocity": 100
        },
        {
          "pitch": 71,
          "onset": 119.0,
          "duration": 0.125,
          "velocity": 100
        },
        {
          "pitch": 69,
          "onset": 119.0625,
          "duration": 0.0625,
          "velocity": 100
        },
        {
          "pitch": 68,
          "onset": 119.125,
          "duration": 0.0625,
          "velocity": 100
        },
        {
          "pitch": 72,
          "onset": 119.125,
          "duration": 0.125,
          "velocity": 100
        },
        {
          "pitch": 69,
          "onset": 119.1875,
          "duration": 0.0625,
          "velocity": 100
        },
        {
          "pitch": 68,
          "onset": 119.25,
          "duration": 0.0625,
          "velocity": 100
        },
        {
          "pitch": 74,
          "onset": 119.25,
          "duration": 0.125,
          "velocity": 100
        },
        {
          "pitch": 69,
          "onset": 119.3125,
          "duration": 0.0625,
          "velocity": 100
        },
        {
          "pitch": 68,
          "onset": 119.375,
          "duration": 0.0625,
          "velocity": 100
        },
        {
          "pitch": 76,
          "onset": 119.375,
          "duration": 0.125,
          "velocity": 100
        },
        {
          "pitch": 69,
          "onset": 119.4375,
          "duration": 0.0625,
          "velocity": 100
        },
        {
          "pitch": 68,
          "onset": 119.5,
          "duration": 0.0625,
          "velocity": 100
        },
        {
          "pitch": 78,
          "onset": 119.5,
          "duration": 0.125,
          "velocity": 100
        },
        {
          "pitch": 69,
          "onset": 119.5625,
          "duration": 0.0625,
          "velocity": 100
        },
        {
          "pitch": 68,
          "onset": 119.625,
          "duration": 0.0625,
          "velocity": 100
        },
        {
          "pitch": 76,
          "onset": 119.625,
          "duration": 0.125,
          "velocity": 100
        },
        {
          "pitch": 69,
          "onset": 119.6875,
          "duration": 0.0625,
          "velocity": 100
        },
        {
          "pitch": 68,
          "onset": 119.75,
          "duration": 0.0625,
          "velocity": 100
        },
        {
          "pitch": 75,
          "onset": 119.75,
          "duration": 0.125,
          "velocity": 100
        },
        {
          "pitch": 69,
          "onset": 119.8125,
          "duration": 0.0625,
          "velocity": 100
        },
        {
          "pitch": 68,
          "onset": 119.875,
          "duration": 0.0625,
          "velocity": 100
        },
        {
          "pitch": 76,
          "onset": 119.875,
          "duration": 0.125,
          "velocity": 100
        },
        {
          "pitch": 69,
          "onset": 119.9375,
          "duration": 0.0625,
          "velocity": 100
        },
        {
          "pitch": 67,
          "onset": 120.0,
          "duration": 0.125,
          "velocity": 100
        },
        {
          "pitch": 73,
          "onset": 120.0,
          "duration": 0.0625,
          "velocity": 100
        },
        {
          "pitch": 74,
          "onset": 120.0625,
          "duration": 0.0625,
          "velocity": 100
        },
        {
          "pitch": 71,
          "onset": 120.125,
          "duration": 0.125,
          "velocity": 100
        },
        {
          "pitch": 73,
          "onset": 120.125,
          "duration": 0.0625,
          "velocity": 100
        },
        {
          "pitch": 74,
          "onset": 120.1875,
          "duration": 0.0625,
          "velocity": 100
        },
        {
          "pitch": 69,
          "onset": 120.25,
          "duration": 0.125,
          "velocity": 100
        },
        {
          "pitch": 73,
          "onset": 120.25,
          "duration": 0.0625,
          "velocity": 100
        },
        {
          "pitch": 74,
          "onset": 120.3125,
          "duration": 0.0625,
          "velocity": 100
        },
        {
          "pitch": 68,
          "onset": 120.375,
          "duration": 0.125,
          "velocity": 100
        },
        {
          "pitch": 73,
          "onset": 120.375,
          "duration": 0.0625,
          "velocity": 100
        },
        {
          "pitch": 74,
          "onset": 120.4375,
          "duration": 0.0625,
          "velocity": 100
        },
        {
          "pitch": 69,
          "onset": 120.5,
          "duration": 0.125,
          "velocity": 100
        },
        {
          "pitch": 73,
          "onset": 120.5,
          "duration": 0.0625,
          "velocity": 100
        },
        {
          "pitch": 74,
          "onset": 120.5625,
          "duration": 0.0625,
          "velocity": 100
        },
        {
          "pitch": 73,
          "onset": 120.625,
          "duration": 0.125,
          "velocity": 100
        },
        {
          "pitch": 73,
          "onset": 120.625,
          "duration": 0.0625,
          "velocity": 100
        },
        {
          "pitch": 74,
          "onset": 120.6875,
          "duration": 0.0625,
          "velocity": 100
        },
        {
          "pitch": 73,
          "onset": 120.75,
          "duration": 0.0625,
          "velocity": 100
        },
        {
          "pitch": 76,
          "onset": 120.75,
          "duration": 0.125,
          "velocity": 100
        },
        {
          "pitch": 74,
          "onset": 120.8125,
          "duration": 0.0625,
          "velocity": 100
        },
        {
          "pitch": 73,
          "onset": 120.875,
          "duration": 0.0625,
          "velocity": 100
        },
        {
          "pitch": 80,
          "onset": 120.875,
          "duration": 0.125,
          "velocity": 100
        },
        {
          "pitch": 74,
          "onset": 120.9375,
          "duration": 0.0625,
          "velocity": 100
        },
        {
          "pitch": 72,
          "onset": 121.0,
          "duration": 0.0625,
          "velocity": 100
        },
        {
          "pitch": 81,
          "onset": 121.0,
          "duration": 1.0,
          "velocity": 100
        },
        {
          "pitch": 74,
          "onset": 121.0625,
          "duration": 0.0625,
          "velocity": 100
        },
        {
          "pitch": 72,
          "onset": 121.125,
          "duration": 0.0625,
          "velocity": 100
        },
        {
          "pitch": 74,
          "onset": 121.1875,
          "duration": 0.0625,
          "velocity": 100
        },
        {
          "pitch": 72,
          "onset": 121.25,
          "duration": 0.0625,
          "velocity": 100
        },
        {
          "pitch": 74,
          "onset": 121.3125,
          "duration": 0.0625,
          "velocity": 100
        },
        {
          "pitch": 72,
          "onset": 121.375,
          "duration": 0.0625,
          "velocity": 100
        },
        {
          "pitch": 74,
          "onset": 121.4375,
          "duration": 0.0625,
          "velocity": 100
        },
        {
          "pitch": 72,
          "onset": 121.5,
          "duration": 0.5,
          "velocity": 100
        },
        {
          "pitch": 71,
          "onset": 122.0,
          "duration": 0.5,
          "velocity": 100
        },
        {
          "pitch": 79,
          "onset": 122.0,
          "duration": 0.5,
          "velocity": 100
        },
        {
          "pitch": 64,
          "onset": 122.5,
          "duration": 0.5,
          "velocity": 100
        },
        {
          "pitch": 69,
          "onset": 123.0,
          "duration": 0.0625,
          "velocity": 100
        },
        {
          "pitch": 71,
          "onset": 123.0625,
          "duration": 0.0625,
          "velocity": 100
        },
        {
          "pitch": 72,
          "onset": 123.125,
          "duration": 0.625,
          "velocity": 100
        },
        {
          "pitch": 71,
          "onset": 123.75,
          "duration": 0.25,
          "velocity": 100
        },
        {
          "pitch": 69,
          "onset": 124.0,
          "duration": 0.5,
          "velocity": 100
        },
        {
          "pitch": 68,
          "onset": 124.5,
          "duration": 0.0625,
          "velocity": 100
        },
        {
          "pitch": 69,
          "onset": 124.5625,
          "duration": 0.0625,
          "velocity": 100
        },
        {
          "pitch": 68,
          "onset": 124.625,
          "duration": 0.375,
          "velocity": 100
        },
        {
          "pitch": 69,
          "onset": 125.0,
          "duration": 0.5,
          "velocity": 100
        },
        {
          "pitch": 62,
          "onset": 126.0,
          "duration": 0.0625,
          "velocity": 100
        },
        {
          "pitch": 61,
          "onset": 126.0625,
          "duration": 0.6875,
          "velocity": 100
        },
        {
          "pitch": 62,
          "onset": 126.75,
          "duration": 0.125,
          "velocity": 100
        },
        {
          "pitch": 64,
          "onset": 126.875,
          "duration": 0.125,
          "velocity": 100
        },
        {
          "pitch": 62,
          "onset": 127.0,
          "duration": 0.125,
          "velocity": 100
        },
        {
          "pitch": 61,
          "onset": 127.125,
          "duration": 0.125,
          "velocity": 100
        },
        {
          "pitch": 59,
          "onset": 127.25,
          "duration": 0.125,
          "velocity": 100
        },
        {
          "pitch": 57,
          "onset": 127.375,
          "duration": 0.125,
          "velocity": 100
        },
        {
          "pitch": 67,
          "onset": 127.5,
          "duration": 0.125,
          "velocity": 100
        },
        {
          "pitch": 66,
          "onset": 127.625,
          "duration": 0.125,
          "velocity": 100
        },
        {
          "pitch": 64,
          "onset": 127.75,
          "duration": 0.25,
          "velocity": 100
        },
        {
          "pitch": 64,
          "onset": 128.0,
          "duration": 0.0625,
          "velocity": 100
        },
        {
          "pitch": 66,
          "onset": 128.0625,
          "duration": 0.4375,
          "velocity": 100
        },
        {
          "pitch": 65,
          "onset": 129.0,
          "duration": 0.0312,
          "velocity": 100
        },
        {
          "pitch": 67,
          "onset": 129.0312,
          "duration": 0.0312,
          "velocity": 100
        },
        {
          "pitch": 65,
          "onset": 129.0938,
          "duration": 0.0312,
          "velocity": 100
        },
        {
          "pitch": 64,
          "onset": 129.125,
          "duration": 0.125,
          "velocity": 100
        },
        {
          "pitch": 65,
          "onset": 129.25,
          "duration": 0.5,
          "velocity": 100
        },
        {
          "pitch": 68,
          "onset": 129.75,
          "duration": 0.5,
          "velocity": 100
        },
        {
          "pitch": 71,
          "onset": 130.25,
          "duration": 0.25,
          "velocity": 100
        },
        {
          "pitch": 74,
          "onset": 130.5,
          "duration": 0.25,
          "velocity": 100
        },
        {
          "pitch": 65,
          "onset": 130.75,
          "duration": 0.25,
          "velocity": 100
        },
        {
          "pitch": 64,
          "onset": 131.0,
          "duration": 0.75,
          "velocity": 100
        },
        {
          "pitch": 63,
          "onset": 131.75,
          "duration": 0.25,
          "velocity": 100
        },
        {
          "pitch": 64,
          "onset": 132.0,
          "duration": 0.125,
          "velocity": 100
        },
        {
          "pitch": 68,
          "onset": 132.125,
          "duration": 0.125,
          "velocity": 100
        },
        {
          "pitch": 69,
          "onset": 132.25,
          "duration": 0.25,
          "velocity": 100
        },
        {
          "pitch": 57,
          "onset": 132.5,
          "duration": 0.25,
          "velocity": 100
        },
        {
          "pitch": 62,
          "onset": 132.75,
          "duration": 0.5,
          "velocity": 100
        },
        {
          "pitch": 60,
          "onset": 133.25,
          "duration": 0.125,
          "velocity": 100
        },
        {
          "pitch": 59,
          "onset": 133.375,
          "duration": 0.125,
          "velocity": 100
        },
        {
          "pitch": 60,
          "onset": 133.5,
          "duration": 0.25,
          "velocity": 100
        },
        {
          "pitch": 72,
          "onset": 133.75,
          "duration": 0.25,
          "velocity": 100
        },
        {
          "pitch": 71,
          "onset": 134.0,
          "duration": 0.25,
          "velocity": 100
        },
        {
          "pitch": 64,
          "onset": 134.25,
          "duration": 0.5,
          "velocity": 100
        },
        {
          "pitch": 69,
          "onset": 134.5,
          "duration": 0.5,
          "velocity": 100
        },
        {
          "pitch": 63,
          "onset": 134.75,
          "duration": 0.25,
          "velocity": 100
        },
        {
          "pitch": 64,
          "onset": 135.0,
          "duration": 0.125,
          "velocity": 100
        },
        {
          "pitch": 76,
          "onset": 135.0,
          "duration": 0.125,
          "velocity": 100
        },
        {
          "pitch": 62,
          "onset": 135.125,
          "duration": 0.125,
          "velocity": 100
        },
        {
          "pitch": 78,
          "onset": 135.125,
          "duration": 0.125,
          "velocity": 100
        },
        {
          "pitch": 60,
          "onset": 135.25,
          "duration": 0.25,
          "velocity": 100
        },
        {
          "pitch": 79,
          "onset": 135.25,
          "duration": 0.5,
          "velocity": 100
        },
        {
          "pitch": 59,
          "onset": 135.5,
          "duration": 1.75,
          "velocity": 100
        },
        {
          "pitch": 78,
          "onset": 135.75,
          "duration": 0.25,
          "velocity": 100
        },
        {
          "pitch": 76,
          "onset": 136.0,
          "duration": 0.5,
          "velocity": 100
        },
        {
          "pitch": 76,
          "onset": 136.5,
          "duration": 0.125,
          "velocity": 100
        },
        {
          "pitch": 75,
          "onset": 136.625,
          "duration": 0.375,
          "velocity": 100
        },
        {
          "pitch": 76,
          "onset": 137.0,
          "duration": 0.5,
          "velocity": 100
        },
        {
          "pitch": 71,
          "onset": 137.25,
          "duration": 0.25,
          "velocity": 100
        },
        {
          "pitch": 69,
          "onset": 137.5,
          "duration": 0.125,
          "velocity": 100
        },
        {
          "pitch": 68,
          "onset": 137.625,
          "duration": 0.125,
          "velocity": 100
        },
        {
          "pitch": 66,
          "onset": 137.75,
          "duration": 0.125,
          "velocity": 100
        },
        {
          "pitch": 68,
          "onset": 137.875,
          "duration": 0.125,
          "velocity": 100
        },
        {
          "pitch": 69,
          "onset": 138.0,
          "duration": 0.125,
          "velocity": 100
        },
        {
          "pitch": 74,
          "onset": 138.0,
          "duration": 0.25,
          "velocity": 100
        },
        {
          "pitch": 68,
          "onset": 138.125,
          "duration": 0.625,
          "velocity": 100
        },
        {
          "pitch": 65,
          "onset": 138.25,
          "duration": 0.25,
          "velocity": 100
        },
        {
          "pitch": 64,
          "onset": 138.5,
          "duration": 0.5,
          "velocity": 100
        },
        {
          "pitch": 69,
          "onset": 138.75,
          "duration": 0.125,
          "velocity": 100
        },
        {
          "pitch": 71,
          "onset": 138.875,
          "duration": 0.125,
          "velocity": 100
        },
        {
          "pitch": 69,
          "onset": 139.0,
          "duration": 0.125,
          "velocity": 100
        },
        {
          "pitch": 68,
          "onset": 139.125,
          "duration": 0.125,
          "velocity": 100
        },
        {
          "pitch": 66,
          "onset": 139.25,
          "duration": 0.125,
          "velocity": 100
        },
        {
          "pitch": 72,
          "onset": 139.25,
          "duration": 0.25,
          "velocity": 100
        },
        {
          "pitch": 64,
          "onset": 139.375,
          "duration": 0.125,
          "velocity": 100
        },
        {
          "pitch": 71,
          "onset": 139.5,
          "duration": 0.125,
          "velocity": 100
        },
        {
          "pitch": 74,
          "onset": 139.5,
          "duration": 0.125,
          "velocity": 100
        },
        {
          "pitch": 69,
          "onset": 139.625,
          "duration": 0.125,
          "velocity": 100
        },
        {
          "pitch": 73,
          "onset": 139.625,
          "duration": 0.125,
          "velocity": 100
        },
        {
          "pitch": 68,
          "onset": 139.75,
          "duration": 0.25,
          "velocity": 100
        },
        {
          "pitch": 71,
          "onset": 139.75,
          "duration": 0.25,
          "velocity": 100
        },
        {
          "pitch": 69,
          "onset": 140.0,
          "duration": 0.25,
          "velocity": 100
        },
        {
          "pitch": 73,
          "onset": 140.0,
          "duration": 0.5,
          "velocity": 100
        },
        {
          "pitch": 67,
          "onset": 140.25,
          "duration": 0.125,
          "velocity": 100
        },
        {
          "pitch": 66,
          "onset": 140.375,
          "duration": 0.125,
          "velocity": 100
        },
        {
          "pitch": 64,
          "onset": 140.5,
          "duration": 0.125,
          "velocity": 100
        },
        {
          "pitch": 63,
          "onset": 140.625,
          "duration": 0.125,
          "velocity": 100
        },
        {
          "pitch": 64,
          "onset": 140.75,
          "duration": 0.25,
          "velocity": 100
        },
        {
          "pitch": 57,
          "onset": 141.0,
          "duration": 0.25,
          "velocity": 100
        },
        {
          "pitch": 72,
          "onset": 141.0,
          "duration": 0.125,
          "velocity": 100
        },
        {
          "pitch": 71,
          "onset": 141.125,
          "duration": 0.125,
          "velocity": 100
        },
        {
          "pitch": 64,
          "onset": 141.25,
          "duration": 0.25,
          "velocity": 100
        },
        {
          "pitch": 72,
          "onset": 141.25,
          "duration": 0.5,
          "velocity": 100
        },
        {
          "pitch": 63,
          "onset": 141.5,
          "duration": 0.5,
          "velocity": 100
        },
        {
          "pitch": 75,
          "onset": 141.75,
          "duration": 0.5,
          "velocity": 100
        },
        {
          "pitch": 78,
          "onset": 142.25,
          "duration": 0.25,
          "velocity": 100
        },
        {
          "pitch": 66,
          "onset": 142.5,
          "duration": 0.25,
          "velocity": 100
        },
        {
          "pitch": 81,
          "onset": 142.5,
          "duration": 0.25,
          "velocity": 100
        },
        {
          "pitch": 57,
          "onset": 142.75,
          "duration": 0.25,
          "velocity": 100
        },
        {
          "pitch": 72,
          "onset": 142.75,
          "duration": 0.25,
          "velocity": 100
        },
        {
          "pitch": 55,
          "onset": 143.0,
          "duration": 0.25,
          "velocity": 100
        },
        {
          "pitch": 71,
          "onset": 143.0,
          "duration": 0.75,
          "velocity": 100
        },
        {
          "pitch": 59,
          "onset": 143.25,
          "duration": 0.25,
          "velocity": 100
        },
        {
          "pitch": 63,
          "onset": 143.5,
          "duration": 0.5,
          "velocity": 100
        },
        {
          "pitch": 70,
          "onset": 143.75,
          "duration": 0.25,
          "velocity": 100
        },
        {
          "pitch": 71,
          "onset": 144.0,
          "duration": 0.125,
          "velocity": 100
        },
        {
          "pitch": 75,
          "onset": 144.125,
          "duration": 0.125,
          "velocity": 100
        },
        {
          "pitch": 71,
          "onset": 144.25,
          "duration": 0.25,
          "velocity": 100
        },
        {
          "pitch": 76,
          "onset": 144.25,
          "duration": 0.25,
          "velocity": 100
        },
        {
          "pitch": 64,
          "onset": 144.5,
          "duration": 0.25,
          "velocity": 100
        },
        {
          "pitch": 72,
          "onset": 144.5,
          "duration": 0.25,
          "velocity": 100
        },
        {
          "pitch": 69,
          "onset": 144.75,
          "duration": 0.5,
          "velocity": 100
        },
        {
          "pitch": 69,
          "onset": 144.75,
          "duration": 0.25,
          "velocity": 100
        },
        {
          "pitch": 66,
          "onset": 145.0,
          "duration": 0.25,
          "velocity": 100
        },
        {
          "pitch": 67,
          "onset": 145.25,
          "duration": 0.125,
          "velocity": 100
        },
        {
          "pitch": 75,
          "onset": 145.25,
          "duration": 0.25,
          "velocity": 100
        },
        {
          "pitch": 66,
          "onset": 145.375,
          "duration": 0.125,
          "velocity": 100
        },
        {
          "pitch": 67,
          "onset": 145.5,
          "duration": 0.5,
          "velocity": 100
        },
        {
          "pitch": 76,
          "onset": 145.5,
          "duration": 0.25,
          "velocity": 100
        },
        {
          "pitch": 64,
          "onset": 145.75,
          "duration": 0.5,
          "velocity": 100
        },
        {
          "pitch": 62,
          "onset": 146.25,
          "duration": 0.375,
          "velocity": 100
        },
        {
          "pitch": 83,
          "onset": 146.5,
          "duration": 0.75,
          "velocity": 100
        },
        {
          "pitch": 61,
          "onset": 146.625,
          "duration": 0.125,
          "velocity": 100
        },
        {
          "pitch": 62,
          "onset": 146.75,
          "duration": 0.25,
          "velocity": 100
        },
        {
          "pitch": 61,
          "onset": 147.0,
          "duration": 0.125,
          "velocity": 100
        },
        {
          "pitch": 62,
          "onset": 147.125,
          "duration": 0.125,
          "velocity": 100
        },
        {
          "pitch": 64,
          "onset": 147.25,
          "duration": 0.25,
          "velocity": 100
        },
        {
          "pitch": 81,
          "onset": 147.25,
          "duration": 0.5,
          "velocity": 100
        },
        {
          "pitch": 79,
          "onset": 147.75,
          "duration": 0.375,
          "velocity": 100
        },
        {
          "pitch": 76,
          "onset": 148.0,
          "duration": 0.75,
          "velocity": 100
        },
        {
          "pitch": 77,
          "onset": 148.125,
          "duration": 0.125,
          "velocity": 100
        },
        {
          "pitch": 76,
          "onset": 148.25,
          "duration": 0.25,
          "velocity": 100
        },
        {
          "pitch": 77,
          "onset": 148.5,
          "duration": 0.125,
          "velocity": 100
        },
        {
          "pitch": 79,
          "onset": 148.625,
          "duration": 0.125,
          "velocity": 100
        },
        {
          "pitch": 74,
          "onset": 148.75,
          "duration": 0.5,
          "velocity": 100
        },
        {
          "pitch": 81,
          "onset": 148.75,
          "duration": 0.25,
          "velocity": 100
        },
        {
          "pitch": 72,
          "onset": 149.25,
          "duration": 0.375,
          "velocity": 100
        },
        {
          "pitch": 69,
          "onset": 149.5,
          "duration": 0.75,
          "velocity": 100
        },
        {
          "pitch": 71,
          "onset": 149.625,
          "duration": 0.125,
          "velocity": 100
        },
        {
          "pitch": 69,
          "onset": 149.75,
          "duration": 0.25,
          "velocity": 100
        },
        {
          "pitch": 71,
          "onset": 150.0,
          "duration": 0.125,
          "velocity": 100
        },
        {
          "pitch": 72,
          "onset": 150.125,
          "duration": 0.125,
          "velocity": 100
        },
        {
          "pitch": 67,
          "onset": 150.25,
          "duration": 0.5,
          "velocity": 100
        },
        {
          "pitch": 74,
          "onset": 150.25,
          "duration": 0.25,
          "velocity": 100
        },
        {
          "pitch": 65,
          "onset": 150.75,
          "duration": 0.375,
          "velocity": 100
        },
        {
          "pitch": 62,
          "onset": 151.0,
          "duration": 0.75,
          "velocity": 100
        },
        {
          "pitch": 64,
          "onset": 151.125,
          "duration": 0.125,
          "velocity": 100
        },
        {
          "pitch": 62,
          "onset": 151.25,
          "duration": 0.25,
          "velocity": 100
        },
        {
          "pitch": 64,
          "onset": 151.5,
          "duration": 0.125,
          "velocity": 100
        },
        {
          "pitch": 65,
          "onset": 151.625,
          "duration": 0.125,
          "velocity": 100
        },
        {
          "pitch": 60,
          "onset": 151.75,
          "duration": 0.5,
          "velocity": 100
        },
        {
          "pitch": 67,
          "onset": 151.75,
          "duration": 0.25,
          "velocity": 100
        },
        {
          "pitch": 58,
          "onset": 152.25,
          "duration": 0.375,
          "velocity": 100
        },
        {
          "pitch": 79,
          "onset": 152.5,
          "duration": 0.625,
          "velocity": 100
        },
        {
          "pitch": 57,
          "onset": 152.625,
          "duration": 0.125,
          "velocity": 100
        },
        {
          "pitch": 55,
          "onset": 152.75,
          "duration": 0.25,
          "velocity": 100
        },
        {
          "pitch": 57,
          "onset": 153.0,
          "duration": 0.5,
          "velocity": 100
        },
        {
          "pitch": 77,
          "onset": 153.125,
          "duration": 0.125,
          "velocity": 100
        },
        {
          "pitch": 76,
          "onset": 153.25,
          "duration": 0.25,
          "velocity": 100
        },
        {
          "pitch": 62,
          "onset": 153.5,
          "duration": 0.0625,
          "velocity": 100
        },
        {
          "pitch": 77,
          "onset": 153.5,
          "duration": 0.0625,
          "velocity": 100
        },
        {
          "pitch": 60,
          "onset": 153.5625,
          "duration": 0.0625,
          "velocity": 100
        },
        {
          "pitch": 76,
          "onset": 153.5625,
          "duration": 0.0625,
          "velocity": 100
        },
        {
          "pitch": 62,
          "onset": 153.625,
          "duration": 1.0,
          "velocity": 100
        },
        {
          "pitch": 77,
          "onset": 153.625,
          "duration": 1.625,
          "velocity": 100
        },
        {
          "pitch": 60,
          "onset": 154.625,
          "duration": 0.125,
          "velocity": 100
        },
        {
          "pitch": 59,
          "onset": 154.75,
          "duration": 0.25,
          "velocity": 100
        },
        {
          "pitch": 60,
          "onset": 155.0,
          "duration": 0.5,
          "velocity": 100
        },
        {
          "pitch": 76,
          "onset": 155.25,
          "duration": 0.125,
          "velocity": 100
        },
        {
          "pitch": 78,
          "onset": 155.375,
          "duration": 0.125,
          "velocity": 100
        },
        {
          "pitch": 74,
          "onset": 155.5,
          "duration": 0.625,
          "velocity": 100
        },
        {
          "pitch": 80,
          "onset": 155.5,
          "duration": 0.125,
          "velocity": 100
        },
        {
          "pitch": 81,
          "onset": 155.625,
          "duration": 0.125,
          "velocity": 100
        },
        {
          "pitch": 83,
          "onset": 155.75,
          "duration": 0.25,
          "velocity": 100
        },
        {
          "pitch": 76,
          "onset": 156.0,
          "duration": 0.5,
          "velocity": 100
        },
        {
          "pitch": 72,
          "onset": 156.125,
          "duration": 0.125,
          "velocity": 100
        },
        {
          "pitch": 71,
          "onset": 156.25,
          "duration": 0.25,
          "velocity": 100
        },
        {
          "pitch": 72,
          "onset": 156.5,
          "duration": 0.0625,
          "velocity": 100
        },
        {
          "pitch": 81,
          "onset": 156.5,
          "duration": 0.0625,
          "velocity": 100
        },
        {
          "pitch": 71,
          "onset": 156.5625,
          "duration": 0.0625,
          "velocity": 100
        },
        {
          "pitch": 79,
          "onset": 156.5625,
          "duration": 0.0625,
          "velocity": 100
        },
        {
          "pitch": 72,
          "onset": 156.625,
          "duration": 1.625,
          "velocity": 100
        },
        {
          "pitch": 81,
          "onset": 156.625,
          "duration": 1.0,
          "velocity": 100
        },
        {
          "pitch": 79,
          "onset": 157.625,
          "duration": 0.125,
          "velocity": 100
        },
        {
          "pitch": 78,
          "onset": 157.75,
          "duration": 0.25,
          "velocity": 100
        },
        {
          "pitch": 79,
          "onset": 158.0,
          "duration": 0.0625,
          "velocity": 100
        },
        {
          "pitch": 78,
          "onset": 158.0625,
          "duration": 0.0625,
          "velocity": 100
        },
        {
          "pitch": 79,
          "onset": 158.125,
          "duration": 0.375,
          "velocity": 100
        },
        {
          "pitch": 71,
          "onset": 158.25,
          "duration": 0.125,
          "velocity": 100
        },
        {
          "pitch": 69,
          "onset": 158.375,
          "duration": 0.125,
          "velocity": 100
        },
        {
          "pitch": 67,
          "onset": 158.5,
          "duration": 0.125,
          "velocity": 100
        },
        {
          "pitch": 69,
          "onset": 158.5,
          "duration": 0.625,
          "velocity": 100
        },
        {
          "pitch": 66,
          "onset": 158.625,
          "duration": 0.125,
          "velocity": 100
        },
        {
          "pitch": 64,
          "onset": 158.75,
          "duration": 0.25,
          "velocity": 100
        },
        {
          "pitch": 63,
          "onset": 159.0,
          "duration": 0.5,
          "velocity": 100
        },
        {
          "pitch": 67,
          "onset": 159.125,
          "duration": 0.125,
          "velocity": 100
        },
        {
          "pitch": 66,
          "onset": 159.25,
          "duration": 0.25,
          "velocity": 100
        },
        {
          "pitch": 64,
          "onset": 159.5,
          "duration": 0.0625,
          "velocity": 100
        },
        {
          "pitch": 67,
          "onset": 159.5,
          "duration": 0.0625,
          "velocity": 100
        },
        {
          "pitch": 63,
          "onset": 159.5625,
          "duration": 0.0625,
          "velocity": 100
        },
        {
          "pitch": 66,
          "onset": 159.5625,
          "duration": 0.0625,
          "velocity": 100
        },
        {
          "pitch": 64,
          "onset": 159.625,
          "duration": 0.375,
          "velocity": 100
        },
        {
          "pitch": 67,
          "onset": 159.625,
          "duration": 1.625,
          "velocity": 100
        },
        {
          "pitch": 76,
          "onset": 160.0,
          "duration": 0.625,
          "velocity": 100
        },
        {
          "pitch": 75,
          "onset": 160.625,
          "duration": 0.125,
          "velocity": 100
        },
        {
          "pitch": 73,
          "onset": 160.75,
          "duration": 0.25,
          "velocity": 100
        },
        {
          "pitch": 75,
          "onset": 161.0,
          "duration": 0.5,
          "velocity": 100
        },
        {
          "pitch": 66,
          "onset": 161.25,
          "duration": 0.125,
          "velocity": 100
        },
        {
          "pitch": 64,
          "onset": 161.375,
          "duration": 0.125,
          "velocity": 100
        },
        {
          "pitch": 66,
          "onset": 161.5,
          "duration": 0.125,
          "velocity": 100
        },
        {
          "pitch": 74,
          "onset": 161.5,
          "duration": 0.625,
          "velocity": 100
        },
        {
          "pitch": 68,
          "onset": 161.625,
          "duration": 0.125,
          "velocity": 100
        },
        {
          "pitch": 69,
          "onset": 161.75,
          "duration": 0.25,
          "velocity": 100
        },
        {
          "pitch": 71,
          "onset": 162.0,
          "duration": 0.75,
          "velocity": 100
        },
        {
          "pitch": 73,
          "onset": 162.125,
          "duration": 0.125,
          "velocity": 100
        },
        {
          "pitch": 71,
          "onset": 162.25,
          "duration": 0.25,
          "velocity": 100
        },
        {
          "pitch": 73,
          "onset": 162.5,
          "duration": 0.5,
          "velocity": 100
        },
        {
          "pitch": 69,
          "onset": 162.75,
          "duration": 0.125,
          "velocity": 100
        },
        {
          "pitch": 68,
          "onset": 162.875,
          "duration": 0.125,
          "velocity": 100
        },
        {
          "pitch": 69,
          "onset": 163.0,
          "duration": 0.125,
          "velocity": 100
        },
        {
          "pitch": 72,
          "onset": 163.0,
          "duration": 0.625,
          "velocity": 100
        },
        {
          "pitch": 71,
          "onset": 163.125,
          "duration": 0.125,
          "velocity": 100
        },
        {
          "pitch": 72,
          "onset": 163.25,
          "duration": 0.25,
          "velocity": 100
        },
        {
          "pitch": 75,
          "onset": 163.5,
          "duration": 0.75,
          "velocity": 100
        },
        {
          "pitch": 71,
          "onset": 163.625,
          "duration": 0.125,
          "velocity": 100
        },
        {
          "pitch": 70,
          "onset": 163.75,
          "duration": 0.25,
          "velocity": 100
        },
        {
          "pitch": 71,
          "onset": 164.0,
          "duration": 0.5,
          "velocity": 100
        },
        {
          "pitch": 76,
          "onset": 164.25,
          "duration": 0.125,
          "velocity": 100
        },
        {
          "pitch": 75,
          "onset": 164.375,
          "duration": 0.125,
          "velocity": 100
        },
        {
          "pitch": 70,
          "onset": 164.5,
          "duration": 0.625,
          "velocity": 100
        },
        {
          "pitch": 76,
          "onset": 164.5,
          "duration": 0.125,
          "velocity": 100
        },
        {
          "pitch": 78,
          "onset": 164.625,
          "duration": 0.125,
          "velocity": 100
        },
        {
          "pitch": 79,
          "onset": 164.75,
          "duration": 0.25,
          "velocity": 100
        },
        {
          "pitch": 73,
          "onset": 165.0,
          "duration": 0.75,
          "velocity": 100
        },
        {
          "pitch": 69,
          "onset": 165.125,
          "duration": 0.125,
          "velocity": 100
        },
        {
          "pitch": 68,
          "onset": 165.25,
          "duration": 0.25,
          "velocity": 100
        },
        {
          "pitch": 69,
          "onset": 165.5,
          "duration": 0.5,
          "velocity": 100
        },
        {
          "pitch": 74,
          "onset": 165.75,
          "duration": 0.125,
          "velocity": 100
        },
        {
          "pitch": 76,
          "onset": 165.875,
          "duration": 0.125,
          "velocity": 100
        },
        {
          "pitch": 57,
          "onset": 166.0,
          "duration": 0.625,
          "velocity": 100
        },
        {
          "pitch": 74,
          "onset": 166.0,
          "duration": 0.125,
          "velocity": 100
        },
        {
          "pitch": 72,
          "onset": 166.125,
          "duration": 0.125,
          "velocity": 100
        },
        {
          "pitch": 71,
          "onset": 166.25,
          "duration": 0.25,
          "velocity": 100
        },
        {
          "pitch": 72,
          "onset": 166.5,
          "duration": 0.75,
          "velocity": 100
        },
        {
          "pitch": 55,
          "onset": 166.625,
          "duration": 0.125,
          "velocity": 100
        },
        {
          "pitch": 54,
          "onset": 166.75,
          "duration": 0.25,
          "velocity": 100
        },
        {
          "pitch": 55,
          "onset": 167.0,
          "duration": 0.5,
          "velocity": 100
        },
        {
          "pitch": 71,
          "onset": 167.25,
          "duration": 0.125,
          "velocity": 100
        },
        {
          "pitch": 70,
          "onset": 167.375,
          "duration": 0.125,
          "velocity": 100
        },
        {
          "pitch": 67,
          "onset": 167.5,
          "duration": 0.625,
          "velocity": 100
        },
        {
          "pitch": 71,
          "onset": 167.5,
          "duration": 0.125,
          "velocity": 100
        },
        {
          "pitch": 75,
          "onset": 167.625,
          "duration": 0.125,
          "velocity": 100
        },
        {
          "pitch": 76,
          "onset": 167.75,
          "duration": 0.25,
          "velocity": 100
        },
        {
          "pitch": 64,
          "onset": 168.0,
          "duration": 0.5,
          "velocity": 100
        },
        {
          "pitch": 66,
          "onset": 168.125,
          "duration": 0.125,
          "velocity": 100
        },
        {
          "pitch": 64,
          "onset": 168.25,
          "duration": 0.25,
          "velocity": 100
        },
        {
          "pitch": 66,
          "onset": 168.5,
          "duration": 0.5,
          "velocity": 100
        },
        {
          "pitch": 69,
          "onset": 168.5,
          "duration": 0.5,
          "velocity": 100
        },
        {
          "pitch": 63,
          "onset": 169.0,
          "duration": 0.0625,
          "velocity": 100
        },
        {
          "pitch": 66,
          "onset": 169.0,
          "duration": 0.0625,
          "velocity": 100
        },
        {
          "pitch": 64,
          "onset": 169.0625,
          "duration": 0.0625,
          "velocity": 100
        },
        {
          "pitch": 67,
          "onset": 169.0625,
          "duration": 0.0625,
          "velocity": 100
        },
        {
          "pitch": 63,
          "onset": 169.125,
          "duration": 0.875,
          "velocity": 100
        },
        {
          "pitch": 66,
          "onset": 169.125,
          "duration": 0.875,
          "velocity": 100
        },
        {
          "pitch": 64,
          "onset": 170.0,
          "duration": 2.0,
          "velocity": 100
        },
        {
          "pitch": 64,
          "onset": 170.0,
          "duration": 2.0,
          "velocity": 100
        },
        {
          "pitch": 64,
          "onset": 173.75,
          "duration": 0.25,
          "velocity": 1
        }
      ]
    },
    {
      "role": "pedal",
      "notes": [
        {
          "pitch": 52,
          "onset": 3.0,
          "duration": 0.5,
          "velocity": 100
        },
        {
          "pitch": 54,
          "onset": 3.5,
          "duration": 0.5,
          "velocity": 100
        },
        {
          "pitch": 55,
          "onset": 4.0,
          "duration": 0.5,
          "velocity": 100
        },
        {
          "pitch": 57,
          "onset": 4.5,
          "duration": 0.5,
          "velocity": 100
        },
        {
          "pitch": 55,
          "onset": 5.0,
          "duration": 0.5,
          "velocity": 100
        },
        {
          "pitch": 57,
          "onset": 5.5,
          "duration": 0.5,
          "velocity": 100
        },
        {
          "pitch": 59,
          "onset": 6.0,
          "duration": 0.5,
          "velocity": 100
        },
        {
          "pitch": 60,
          "onset": 6.5,
          "duration": 0.5,
          "velocity": 100
        },
        {
          "pitch": 62,
          "onset": 7.0,
          "duration": 0.5,
          "velocity": 100
        },
        {
          "pitch": 52,
          "onset": 7.5,
          "duration": 0.5,
          "velocity": 100
        },
        {
          "pitch": 57,
          "onset": 8.0,
          "duration": 0.5,
          "velocity": 100
        },
        {
          "pitch": 55,
          "onset": 8.5,
          "duration": 0.5,
          "velocity": 100
        },
        {
          "pitch": 54,
          "onset": 9.0,
          "duration": 0.5,
          "velocity": 100
        },
        {
          "pitch": 57,
          "onset": 9.5,
          "duration": 0.5,
          "velocity": 100
        },
        {
          "pitch": 60,
          "onset": 10.0,
          "duration": 0.5,
          "velocity": 100
        },
        {
          "pitch": 51,
          "onset": 10.5,
          "duration": 0.5,
          "velocity": 100
        },
        {
          "pitch": 52,
          "onset": 11.0,
          "duration": 0.5,
          "velocity": 100
        },
        {
          "pitch": 54,
          "onset": 11.5,
          "duration": 0.5,
          "velocity": 100
        },
        {
          "pitch": 55,
          "onset": 12.0,
          "duration": 0.5,
          "velocity": 100
        },
        {
          "pitch": 57,
          "onset": 12.5,
          "duration": 0.5,
          "velocity": 100
        },
        {
          "pitch": 59,
          "onset": 13.0,
          "duration": 0.5,
          "velocity": 100
        },
        {
          "pitch": 52,
          "onset": 13.5,
          "duration": 0.5,
          "velocity": 100
        },
        {
          "pitch": 50,
          "onset": 14.0,
          "duration": 0.5,
          "velocity": 100
        },
        {
          "pitch": 49,
          "onset": 14.5,
          "duration": 0.5,
          "velocity": 100
        },
        {
          "pitch": 47,
          "onset": 15.0,
          "duration": 0.5,
          "velocity": 100
        },
        {
          "pitch": 49,
          "onset": 15.5,
          "duration": 0.5,
          "velocity": 100
        },
        {
          "pitch": 50,
          "onset": 16.0,
          "duration": 0.5,
          "velocity": 100
        },
        {
          "pitch": 52,
          "onset": 16.5,
          "duration": 0.5,
          "velocity": 100
        },
        {
          "pitch": 50,
          "onset": 17.0,
          "duration": 0.5,
          "velocity": 100
        },
        {
          "pitch": 52,
          "onset": 17.5,
          "duration": 0.5,
          "velocity": 100
        },
        {
          "pitch": 54,
          "onset": 18.0,
          "duration": 0.5,
          "velocity": 100
        },
        {
          "pitch": 55,
          "onset": 18.5,
          "duration": 0.5,
          "velocity": 100
        },
        {
          "pitch": 57,
          "onset": 19.0,
          "duration": 0.5,
          "velocity": 100
        },
        {
          "pitch": 47,
          "onset": 19.5,
          "duration": 0.5,
          "velocity": 100
        },
        {
          "pitch": 52,
          "onset": 20.0,
          "duration": 0.5,
          "velocity": 100
        },
        {
          "pitch": 50,
          "onset": 20.5,
          "duration": 0.5,
          "velocity": 100
        },
        {
          "pitch": 49,
          "onset": 21.0,
          "duration": 0.5,
          "velocity": 100
        },
        {
          "pitch": 52,
          "onset": 21.5,
          "duration": 0.5,
          "velocity": 100
        },
        {
          "pitch": 55,
          "onset": 22.0,
          "duration": 0.5,
          "velocity": 100
        },
        {
          "pitch": 46,
          "onset": 22.5,
          "duration": 0.5,
          "velocity": 100
        },
        {
          "pitch": 47,
          "onset": 23.0,
          "duration": 0.5,
          "velocity": 100
        },
        {
          "pitch": 49,
          "onset": 23.5,
          "duration": 0.5,
          "velocity": 100
        },
        {
          "pitch": 50,
          "onset": 24.0,
          "duration": 0.5,
          "velocity": 100
        },
        {
          "pitch": 52,
          "onset": 24.5,
          "duration": 0.5,
          "velocity": 100
        },
        {
          "pitch": 54,
          "onset": 25.0,
          "duration": 0.5,
          "velocity": 100
        },
        {
          "pitch": 47,
          "onset": 25.5,
          "duration": 0.5,
          "velocity": 100
        },
        {
          "pitch": 48,
          "onset": 26.0,
          "duration": 0.5,
          "velocity": 100
        },
        {
          "pitch": 50,
          "onset": 26.5,
          "duration": 0.5,
          "velocity": 100
        },
        {
          "pitch": 52,
          "onset": 27.0,
          "duration": 0.5,
          "velocity": 100
        },
        {
          "pitch": 54,
          "onset": 27.5,
          "duration": 0.5,
          "velocity": 100
        },
        {
          "pitch": 56,
          "onset": 28.0,
          "duration": 0.5,
          "velocity": 100
        },
        {
          "pitch": 45,
          "onset": 28.5,
          "duration": 0.5,
          "velocity": 100
        },
        {
          "pitch": 47,
          "onset": 29.0,
          "duration": 0.5,
          "velocity": 100
        },
        {
          "pitch": 48,
          "onset": 29.5,
          "duration": 0.5,
          "velocity": 100
        },
        {
          "pitch": 50,
          "onset": 30.0,
          "duration": 0.5,
          "velocity": 100
        },
        {
          "pitch": 52,
          "onset": 30.5,
          "duration": 0.5,
          "velocity": 100
        },
        {
          "pitch": 54,
          "onset": 31.0,
          "duration": 0.5,
          "velocity": 100
        },
        {
          "pitch": 43,
          "onset": 31.5,
          "duration": 0.5,
          "velocity": 100
        },
        {
          "pitch": 45,
          "onset": 32.0,
          "duration": 0.5,
          "velocity": 100
        },
        {
          "pitch": 47,
          "onset": 32.5,
          "duration": 0.5,
          "velocity": 100
        },
        {
          "pitch": 48,
          "onset": 33.0,
          "duration": 0.75,
          "velocity": 100
        },
        {
          "pitch": 47,
          "onset": 33.75,
          "duration": 0.25,
          "velocity": 100
        },
        {
          "pitch": 45,
          "onset": 34.0,
          "duration": 0.5,
          "velocity": 100
        },
        {
          "pitch": 51,
          "onset": 34.5,
          "duration": 0.5,
          "velocity": 100
        },
        {
          "pitch": 52,
          "onset": 35.0,
          "duration": 0.5,
          "velocity": 100
        },
        {
          "pitch": 54,
          "onset": 35.5,
          "duration": 0.5,
          "velocity": 100
        },
        {
          "pitch": 55,
          "onset": 36.0,
          "duration": 0.75,
          "velocity": 100
        },
        {
          "pitch": 54,
          "onset": 36.75,
          "duration": 0.25,
          "velocity": 100
        },
        {
          "pitch": 52,
          "onset": 37.0,
          "duration": 0.5,
          "velocity": 100
        },
        {
          "pitch": 58,
          "onset": 37.5,
          "duration": 0.5,
          "velocity": 100
        },
        {
          "pitch": 59,
          "onset": 38.0,
          "duration": 0.5,
          "velocity": 100
        },
        {
          "pitch": 49,
          "onset": 38.5,
          "duration": 0.5,
          "velocity": 100
        },
        {
          "pitch": 50,
          "onset": 39.0,
          "duration": 0.75,
          "velocity": 100
        },
        {
          "pitch": 49,
          "onset": 39.75,
          "duration": 0.25,
          "velocity": 100
        },
        {
          "pitch": 47,
          "onset": 40.0,
          "duration": 0.5,
          "velocity": 100
        },
        {
          "pitch": 53,
          "onset": 40.5,
          "duration": 0.5,
          "velocity": 100
        },
        {
          "pitch": 54,
          "onset": 41.0,
          "duration": 0.5,
          "velocity": 100
        },
        {
          "pitch": 51,
          "onset": 42.0,
          "duration": 0.5,
          "velocity": 100
        },
        {
          "pitch": 52,
          "onset": 42.5,
          "duration": 0.5,
          "velocity": 100
        },
        {
          "pitch": 49,
          "onset": 43.5,
          "duration": 0.5,
          "velocity": 100
        },
        {
          "pitch": 50,
          "onset": 44.0,
          "duration": 0.5,
          "velocity": 100
        },
        {
          "pitch": 47,
          "onset": 45.0,
          "duration": 0.5,
          "velocity": 100
        },
        {
          "pitch": 48,
          "onset": 45.5,
          "duration": 0.5,
          "velocity": 100
        },
        {
          "pitch": 46,
          "onset": 46.5,
          "duration": 0.5,
          "velocity": 100
        },
        {
          "pitch": 47,
          "onset": 47.0,
          "duration": 0.5,
          "velocity": 100
        },
        {
          "pitch": 43,
          "onset": 48.0,
          "duration": 0.5,
          "velocity": 100
        },
        {
          "pitch": 40,
          "onset": 48.5,
          "duration": 0.5,
          "velocity": 100
        },
        {
          "pitch": 42,
          "onset": 49.0,
          "duration": 0.5,
          "velocity": 100
        },
        {
          "pitch": 47,
          "onset": 49.5,
          "duration": 0.875,
          "velocity": 100
        },
        {
          "pitch": 52,
          "onset": 51.0,
          "duration": 0.5,
          "velocity": 100
        },
        {
          "pitch": 54,
          "onset": 51.5,
          "duration": 0.5,
          "velocity": 100
        },
        {
          "pitch": 55,
          "onset": 52.0,
          "duration": 0.5,
          "velocity": 100
        },
        {
          "pitch": 57,
          "onset": 52.5,
          "duration": 0.5,
          "velocity": 100
        },
        {
          "pitch": 55,
          "onset": 53.0,
          "duration": 0.5,
          "velocity": 100
        },
        {
          "pitch": 57,
          "onset": 53.5,
          "duration": 0.5,
          "velocity": 100
        },
        {
          "pitch": 59,
          "onset": 54.0,
          "duration": 0.5,
          "velocity": 100
        },
        {
          "pitch": 60,
          "onset": 54.5,
          "duration": 0.5,
          "velocity": 100
        },
        {
          "pitch": 62,
          "onset": 55.0,
          "duration": 0.5,
          "velocity": 100
        },
        {
          "pitch": 52,
          "onset": 55.5,
          "duration": 0.5,
          "velocity": 100
        },
        {
          "pitch": 57,
          "onset": 56.0,
          "duration": 0.5,
          "velocity": 100
        },
        {
          "pitch": 55,
          "onset": 56.5,
          "duration": 0.5,
          "velocity": 100
        },
        {
          "pitch": 54,
          "onset": 57.0,
          "duration": 0.5,
          "velocity": 100
        },
        {
          "pitch": 57,
          "onset": 57.5,
          "duration": 0.5,
          "velocity": 100
        },
        {
          "pitch": 60,
          "onset": 58.0,
          "duration": 0.5,
          "velocity": 100
        },
        {
          "pitch": 51,
          "onset": 58.5,
          "duration": 0.5,
          "velocity": 100
        },
        {
          "pitch": 52,
          "onset": 59.0,
          "duration": 0.5,
          "velocity": 100
        },
        {
          "pitch": 54,
          "onset": 59.5,
          "duration": 0.5,
          "velocity": 100
        },
        {
          "pitch": 55,
          "onset": 60.0,
          "duration": 0.5,
          "velocity": 100
        },
        {
          "pitch": 57,
          "onset": 60.5,
          "duration": 0.5,
          "velocity": 100
        },
        {
          "pitch": 59,
          "onset": 61.0,
          "duration": 0.5,
          "velocity": 100
        },
        {
          "pitch": 52,
          "onset": 61.5,
          "duration": 0.5,
          "velocity": 100
        },
        {
          "pitch": 50,
          "onset": 62.0,
          "duration": 0.5,
          "velocity": 100
        },
        {
          "pitch": 49,
          "onset": 62.5,
          "duration": 0.5,
          "velocity": 100
        },
        {
          "pitch": 47,
          "onset": 63.0,
          "duration": 0.5,
          "velocity": 100
        },
        {
          "pitch": 49,
          "onset": 63.5,
          "duration": 0.5,
          "velocity": 100
        },
        {
          "pitch": 50,
          "onset": 64.0,
          "duration": 0.5,
          "velocity": 100
        },
        {
          "pitch": 52,
          "onset": 64.5,
          "duration": 0.5,
          "velocity": 100
        },
        {
          "pitch": 50,
          "onset": 65.0,
          "duration": 0.5,
          "velocity": 100
        },
        {
          "pitch": 52,
          "onset": 65.5,
          "duration": 0.5,
          "velocity": 100
        },
        {
          "pitch": 54,
          "onset": 66.0,
          "duration": 0.5,
          "velocity": 100
        },
        {
          "pitch": 55,
          "onset": 66.5,
          "duration": 0.5,
          "velocity": 100
        },
        {
          "pitch": 57,
          "onset": 67.0,
          "duration": 0.5,
          "velocity": 100
        },
        {
          "pitch": 47,
          "onset": 67.5,
          "duration": 0.5,
          "velocity": 100
        },
        {
          "pitch": 52,
          "onset": 68.0,
          "duration": 0.5,
          "velocity": 100
        },
        {
          "pitch": 50,
          "onset": 68.5,
          "duration": 0.5,
          "velocity": 100
        },
        {
          "pitch": 49,
          "onset": 69.0,
          "duration": 0.5,
          "velocity": 100
        },
        {
          "pitch": 52,
          "onset": 69.5,
          "duration": 0.5,
          "velocity": 100
        },
        {
          "pitch": 55,
          "onset": 70.0,
          "duration": 0.5,
          "velocity": 100
        },
        {
          "pitch": 46,
          "onset": 70.5,
          "duration": 0.5,
          "velocity": 100
        },
        {
          "pitch": 47,
          "onset": 71.0,
          "duration": 0.5,
          "velocity": 100
        },
        {
          "pitch": 49,
          "onset": 71.5,
          "duration": 0.5,
          "velocity": 100
        },
        {
          "pitch": 50,
          "onset": 72.0,
          "duration": 0.5,
          "velocity": 100
        },
        {
          "pitch": 52,
          "onset": 72.5,
          "duration": 0.5,
          "velocity": 100
        },
        {
          "pitch": 54,
          "onset": 73.0,
          "duration": 0.5,
          "velocity": 100
        },
        {
          "pitch": 47,
          "onset": 73.5,
          "duration": 0.5,
          "velocity": 100
        },
        {
          "pitch": 48,
          "onset": 74.0,
          "duration": 0.5,
          "velocity": 100
        },
        {
          "pitch": 50,
          "onset": 74.5,
          "duration": 0.5,
          "velocity": 100
        },
        {
          "pitch": 52,
          "onset": 75.0,
          "duration": 0.5,
          "velocity": 100
        },
        {
          "pitch": 54,
          "onset": 75.5,
          "duration": 0.5,
          "velocity": 100
        },
        {
          "pitch": 56,
          "onset": 76.0,
          "duration": 0.5,
          "velocity": 100
        },
        {
          "pitch": 45,
          "onset": 76.5,
          "duration": 0.5,
          "velocity": 100
        },
        {
          "pitch": 47,
          "onset": 77.0,
          "duration": 0.5,
          "velocity": 100
        },
        {
          "pitch": 48,
          "onset": 77.5,
          "duration": 0.5,
          "velocity": 100
        },
        {
          "pitch": 50,
          "onset": 78.0,
          "duration": 0.5,
          "velocity": 100
        },
        {
          "pitch": 52,
          "onset": 78.5,
          "duration": 0.5,
          "velocity": 100
        },
        {
          "pitch": 54,
          "onset": 79.0,
          "duration": 0.5,
          "velocity": 100
        },
        {
          "pitch": 43,
          "onset": 79.5,
          "duration": 0.5,
          "velocity": 100
        },
        {
          "pitch": 45,
          "onset": 80.0,
          "duration": 0.5,
          "velocity": 100
        },
        {
          "pitch": 47,
          "onset": 80.5,
          "duration": 0.5,
          "velocity": 100
        },
        {
          "pitch": 48,
          "onset": 81.0,
          "duration": 0.75,
          "velocity": 100
        },
        {
          "pitch": 47,
          "onset": 81.75,
          "duration": 0.25,
          "velocity": 100
        },
        {
          "pitch": 45,
          "onset": 82.0,
          "duration": 0.5,
          "velocity": 100
        },
        {
          "pitch": 51,
          "onset": 82.5,
          "duration": 0.5,
          "velocity": 100
        },
        {
          "pitch": 52,
          "onset": 83.0,
          "duration": 0.5,
          "velocity": 100
        },
        {
          "pitch": 54,
          "onset": 83.5,
          "duration": 0.5,
          "velocity": 100
        },
        {
          "pitch": 55,
          "onset": 84.0,
          "duration": 0.75,
          "velocity": 100
        },
        {
          "pitch": 54,
          "onset": 84.75,
          "duration": 0.25,
          "velocity": 100
        },
        {
          "pitch": 52,
          "onset": 85.0,
          "duration": 0.5,
          "velocity": 100
        },
        {
          "pitch": 58,
          "onset": 85.5,
          "duration": 0.5,
          "velocity": 100
        },
        {
          "pitch": 59,
          "onset": 86.0,
          "duration": 0.5,
          "velocity": 100
        },
        {
          "pitch": 49,
          "onset": 86.5,
          "duration": 0.5,
          "velocity": 100
        },
        {
          "pitch": 50,
          "onset": 87.0,
          "duration": 0.75,
          "velocity": 100
        },
        {
          "pitch": 49,
          "onset": 87.75,
          "duration": 0.25,
          "velocity": 100
        },
        {
          "pitch": 47,
          "onset": 88.0,
          "duration": 0.5,
          "velocity": 100
        },
        {
          "pitch": 53,
          "onset": 88.5,
          "duration": 0.5,
          "velocity": 100
        },
        {
          "pitch": 54,
          "onset": 89.0,
          "duration": 0.5,
          "velocity": 100
        },
        {
          "pitch": 51,
          "onset": 90.0,
          "duration": 0.5,
          "velocity": 100
        },
        {
          "pitch": 52,
          "onset": 90.5,
          "duration": 0.5,
          "velocity": 100
        },
        {
          "pitch": 49,
          "onset": 91.5,
          "duration": 0.5,
          "velocity": 100
        },
        {
          "pitch": 50,
          "onset": 92.0,
          "duration": 0.5,
          "velocity": 100
        },
        {
          "pitch": 47,
          "onset": 93.0,
          "duration": 0.5,
          "velocity": 100
        },
        {
          "pitch": 48,
          "onset": 93.5,
          "duration": 0.5,
          "velocity": 100
        },
        {
          "pitch": 46,
          "onset": 94.5,
          "duration": 0.5,
          "velocity": 100
        },
        {
          "pitch": 47,
          "onset": 95.0,
          "duration": 0.5,
          "velocity": 100
        },
        {
          "pitch": 43,
          "onset": 96.0,
          "duration": 0.5,
          "velocity": 100
        },
        {
          "pitch": 40,
          "onset": 96.5,
          "duration": 0.5,
          "velocity": 100
        },
        {
          "pitch": 42,
          "onset": 97.0,
          "duration": 0.5,
          "velocity": 100
        },
        {
          "pitch": 47,
          "onset": 97.5,
          "duration": 0.5,
          "velocity": 100
        },
        {
          "pitch": 50,
          "onset": 98.0,
          "duration": 0.5,
          "velocity": 100
        },
        {
          "pitch": 54,
          "onset": 98.5,
          "duration": 0.5,
          "velocity": 100
        },
        {
          "pitch": 57,
          "onset": 99.0,
          "duration": 0.5,
          "velocity": 100
        },
        {
          "pitch": 57,
          "onset": 99.5,
          "duration": 0.5,
          "velocity": 100
        },
        {
          "pitch": 57,
          "onset": 100.0,
          "duration": 0.5,
          "velocity": 100
        },
        {
          "pitch": 54,
          "onset": 100.5,
          "duration": 0.5,
          "velocity": 100
        },
        {
          "pitch": 54,
          "onset": 101.0,
          "duration": 0.5,
          "velocity": 100
        },
        {
          "pitch": 54,
          "onset": 101.5,
          "duration": 0.5,
          "velocity": 100
        },
        {
          "pitch": 51,
          "onset": 102.0,
          "duration": 0.5,
          "velocity": 100
        },
        {
          "pitch": 51,
          "onset": 102.5,
          "duration": 0.5,
          "velocity": 100
        },
        {
          "pitch": 51,
          "onset": 103.0,
          "duration": 0.5,
          "velocity": 100
        },
        {
          "pitch": 52,
          "onset": 103.5,
          "duration": 0.5,
          "velocity": 100
        },
        {
          "pitch": 55,
          "onset": 104.0,
          "duration": 0.5,
          "velocity": 100
        },
        {
          "pitch": 59,
          "onset": 104.5,
          "duration": 0.5,
          "velocity": 100
        },
        {
          "pitch": 62,
          "onset": 105.0,
          "duration": 0.5,
          "velocity": 100
        },
        {
          "pitch": 62,
          "onset": 105.5,
          "duration": 0.5,
          "velocity": 100
        },
        {
          "pitch": 62,
          "onset": 106.0,
          "duration": 0.5,
          "velocity": 100
        },
        {
          "pitch": 59,
          "onset": 106.5,
          "duration": 0.5,
          "velocity": 100
        },
        {
          "pitch": 59,
          "onset": 107.0,
          "duration": 0.5,
          "velocity": 100
        },
        {
          "pitch": 59,
          "onset": 107.5,
          "duration": 0.5,
          "velocity": 100
        },
        {
          "pitch": 56,
          "onset": 108.0,
          "duration": 0.5,
          "velocity": 100
        },
        {
          "pitch": 56,
          "onset": 108.5,
          "duration": 0.5,
          "velocity": 100
        },
        {
          "pitch": 56,
          "onset": 109.0,
          "duration": 0.5,
          "velocity": 100
        },
        {
          "pitch": 57,
          "onset": 109.5,
          "duration": 0.5,
          "velocity": 100
        },
        {
          "pitch": 48,
          "onset": 110.0,
          "duration": 0.5,
          "velocity": 100
        },
        {
          "pitch": 52,
          "onset": 110.5,
          "duration": 0.5,
          "velocity": 100
        },
        {
          "pitch": 45,
          "onset": 111.0,
          "duration": 0.75,
          "velocity": 100
        },
        {
          "pitch": 47,
          "onset": 111.75,
          "duration": 0.25,
          "velocity": 100
        },
        {
          "pitch": 49,
          "onset": 112.0,
          "duration": 0.5,
          "velocity": 100
        },
        {
          "pitch": 43,
          "onset": 112.5,
          "duration": 0.5,
          "velocity": 100
        },
        {
          "pitch": 41,
          "onset": 113.0,
          "duration": 0.5,
          "velocity": 100
        },
        {
          "pitch": 47,
          "onset": 114.0,
          "duration": 0.75,
          "velocity": 100
        },
        {
          "pitch": 49,
          "onset": 114.75,
          "duration": 0.25,
          "velocity": 100
        },
        {
          "pitch": 51,
          "onset": 115.0,
          "duration": 0.5,
          "velocity": 100
        },
        {
          "pitch": 45,
          "onset": 115.5,
          "duration": 0.5,
          "velocity": 100
        },
        {
          "pitch": 43,
          "onset": 116.0,
          "duration": 0.5,
          "velocity": 100
        },
        {
          "pitch": 56,
          "onset": 117.0,
          "duration": 0.75,
          "velocity": 100
        },
        {
          "pitch": 57,
          "onset": 117.75,
          "duration": 0.25,
          "velocity": 100
        },
        {
          "pitch": 59,
          "onset": 118.0,
          "duration": 0.5,
          "velocity": 100
        },
        {
          "pitch": 54,
          "onset": 118.5,
          "duration": 0.5,
          "velocity": 100
        },
        {
          "pitch": 52,
          "onset": 119.0,
          "duration": 0.5,
          "velocity": 100
        },
        {
          "pitch": 52,
          "onset": 120.0,
          "duration": 0.5,
          "velocity": 100
        },
        {
          "pitch": 51,
          "onset": 120.5,
          "duration": 0.5,
          "velocity": 100
        },
        {
          "pitch": 52,
          "onset": 121.5,
          "duration": 0.5,
          "velocity": 100
        },
        {
          "pitch": 40,
          "onset": 122.0,
          "duration": 0.5,
          "velocity": 100
        },
        {
          "pitch": 44,
          "onset": 122.5,
          "duration": 0.5,
          "velocity": 100
        },
        {
          "pitch": 45,
          "onset": 123.0,
          "duration": 0.5,
          "velocity": 100
        },
        {
          "pitch": 47,
          "onset": 123.5,
          "duration": 0.5,
          "velocity": 100
        },
        {
          "pitch": 48,
          "onset": 124.0,
          "duration": 0.5,
          "velocity": 100
        },
        {
          "pitch": 50,
          "onset": 124.5,
          "duration": 0.5,
          "velocity": 100
        },
        {
          "pitch": 48,
          "onset": 125.0,
          "duration": 0.5,
          "velocity": 100
        },
        {
          "pitch": 50,
          "onset": 125.5,
          "duration": 0.5,
          "velocity": 100
        },
        {
          "pitch": 52,
          "onset": 126.0,
          "duration": 0.5,
          "velocity": 100
        },
        {
          "pitch": 53,
          "onset": 126.5,
          "duration": 0.5,
          "velocity": 100
        },
        {
          "pitch": 55,
          "onset": 127.0,
          "duration": 0.5,
          "velocity": 100
        },
        {
          "pitch": 45,
          "onset": 127.5,
          "duration": 0.5,
          "velocity": 100
        },
        {
          "pitch": 50,
          "onset": 128.0,
          "duration": 0.5,
          "velocity": 100
        },
        {
          "pitch": 48,
          "onset": 128.5,
          "duration": 0.5,
          "velocity": 100
        },
        {
          "pitch": 47,
          "onset": 129.0,
          "duration": 0.5,
          "velocity": 100
        },
        {
          "pitch": 50,
          "onset": 129.5,
          "duration": 0.5,
          "velocity": 100
        },
        {
          "pitch": 53,
          "onset": 130.0,
          "duration": 0.5,
          "velocity": 100
        },
        {
          "pitch": 44,
          "onset": 130.5,
          "duration": 0.5,
          "velocity": 100
        },
        {
          "pitch": 45,
          "onset": 131.0,
          "duration": 0.5,
          "velocity": 100
        },
        {
          "pitch": 47,
          "onset": 131.5,
          "duration": 0.5,
          "velocity": 100
        },
        {
          "pitch": 48,
          "onset": 132.0,
          "duration": 0.5,
          "velocity": 100
        },
        {
          "pitch": 50,
          "onset": 132.5,
          "duration": 0.5,
          "velocity": 100
        },
        {
          "pitch": 52,
          "onset": 133.0,
          "duration": 0.5,
          "velocity": 100
        },
        {
          "pitch": 45,
          "onset": 133.5,
          "duration": 0.5,
          "velocity": 100
        },
        {
          "pitch": 43,
          "onset": 134.0,
          "duration": 0.5,
          "velocity": 100
        },
        {
          "pitch": 42,
          "onset": 134.5,
          "duration": 0.5,
          "velocity": 100
        },
        {
          "pitch": 40,
          "onset": 135.0,
          "duration": 0.5,
          "velocity": 100
        },
        {
          "pitch": 42,
          "onset": 135.5,
          "duration": 0.5,
          "velocity": 100
        },
        {
          "pitch": 43,
          "onset": 136.0,
          "duration": 0.5,
          "velocity": 100
        },
        {
          "pitch": 45,
          "onset": 136.5,
          "duration": 0.5,
          "velocity": 100
        },
        {
          "pitch": 43,
          "onset": 137.0,
          "duration": 0.5,
          "velocity": 100
        },
        {
          "pitch": 45,
          "onset": 137.5,
          "duration": 0.5,
          "velocity": 100
        },
        {
          "pitch": 47,
          "onset": 138.0,
          "duration": 0.5,
          "velocity": 100
        },
        {
          "pitch": 48,
          "onset": 138.5,
          "duration": 0.5,
          "velocity": 100
        },
        {
          "pitch": 50,
          "onset": 139.0,
          "duration": 0.5,
          "velocity": 100
        },
        {
          "pitch": 40,
          "onset": 139.5,
          "duration": 0.5,
          "velocity": 100
        },
        {
          "pitch": 45,
          "onset": 140.0,
          "duration": 0.5,
          "velocity": 100
        },
        {
          "pitch": 43,
          "onset": 140.5,
          "duration": 0.5,
          "velocity": 100
        },
        {
          "pitch": 42,
          "onset": 141.0,
          "duration": 0.5,
          "velocity": 100
        },
        {
          "pitch": 45,
          "onset": 141.5,
          "duration": 0.5,
          "velocity": 100
        },
        {
          "pitch": 48,
          "onset": 142.0,
          "duration": 0.5,
          "velocity": 100
        },
        {
          "pitch": 39,
          "onset": 142.5,
          "duration": 0.5,
          "velocity": 100
        },
        {
          "pitch": 40,
          "onset": 143.0,
          "duration": 0.5,
          "velocity": 100
        },
        {
          "pitch": 43,
          "onset": 143.5,
          "duration": 0.5,
          "velocity": 100
        },
        {
          "pitch": 43,
          "onset": 144.0,
          "duration": 0.5,
          "velocity": 100
        },
        {
          "pitch": 45,
          "onset": 144.5,
          "duration": 0.5,
          "velocity": 100
        },
        {
          "pitch": 47,
          "onset": 145.0,
          "duration": 0.5,
          "velocity": 100
        },
        {
          "pitch": 40,
          "onset": 145.5,
          "duration": 0.5,
          "velocity": 100
        },
        {
          "pitch": 41,
          "onset": 146.0,
          "duration": 0.5,
          "velocity": 100
        },
        {
          "pitch": 43,
          "onset": 146.5,
          "duration": 0.5,
          "velocity": 100
        },
        {
          "pitch": 45,
          "onset": 147.0,
          "duration": 0.5,
          "velocity": 100
        },
        {
          "pitch": 47,
          "onset": 147.5,
          "duration": 0.5,
          "velocity": 100
        },
        {
          "pitch": 49,
          "onset": 148.0,
          "duration": 0.5,
          "velocity": 100
        },
        {
          "pitch": 50,
          "onset": 148.5,
          "duration": 0.5,
          "velocity": 100
        },
        {
          "pitch": 52,
          "onset": 149.0,
          "duration": 0.5,
          "velocity": 100
        },
        {
          "pitch": 53,
          "onset": 149.5,
          "duration": 0.5,
          "velocity": 100
        },
        {
          "pitch": 55,
          "onset": 150.0,
          "duration": 0.5,
          "velocity": 100
        },
        {
          "pitch": 57,
          "onset": 150.5,
          "duration": 0.5,
          "velocity": 100
        },
        {
          "pitch": 59,
          "onset": 151.0,
          "duration": 0.5,
          "velocity": 100
        },
        {
          "pitch": 48,
          "onset": 151.5,
          "duration": 0.5,
          "velocity": 100
        },
        {
          "pitch": 50,
          "onset": 152.0,
          "duration": 0.5,
          "velocity": 100
        },
        {
          "pitch": 52,
          "onset": 152.5,
          "duration": 0.5,
          "velocity": 100
        },
        {
          "pitch": 42,
          "onset": 153.0,
          "duration": 0.75,
          "velocity": 100
        },
        {
          "pitch": 40,
          "onset": 153.75,
          "duration": 0.25,
          "velocity": 100
        },
        {
          "pitch": 38,
          "onset": 154.0,
          "duration": 0.5,
          "velocity": 100
        },
        {
          "pitch": 44,
          "onset": 154.5,
          "duration": 0.5,
          "velocity": 100
        },
        {
          "pitch": 45,
          "onset": 155.0,
          "duration": 0.5,
          "velocity": 100
        },
        {
          "pitch": 47,
          "onset": 155.5,
          "duration": 0.5,
          "velocity": 100
        },
        {
          "pitch": 48,
          "onset": 156.0,
          "duration": 0.75,
          "velocity": 100
        },
        {
          "pitch": 47,
          "onset": 156.75,
          "duration": 0.25,
          "velocity": 100
        },
        {
          "pitch": 45,
          "onset": 157.0,
          "duration": 0.5,
          "velocity": 100
        },
        {
          "pitch": 51,
          "onset": 157.5,
          "duration": 0.5,
          "velocity": 100
        },
        {
          "pitch": 52,
          "onset": 158.0,
          "duration": 0.5,
          "velocity": 100
        },
        {
          "pitch": 54,
          "onset": 158.5,
          "duration": 0.5,
          "velocity": 100
        },
        {
          "pitch": 55,
          "onset": 159.0,
          "duration": 0.75,
          "velocity": 100
        },
        {
          "pitch": 54,
          "onset": 159.75,
          "duration": 0.25,
          "velocity": 100
        },
        {
          "pitch": 52,
          "onset": 160.0,
          "duration": 0.5,
          "velocity": 100
        },
        {
          "pitch": 58,
          "onset": 160.5,
          "duration": 0.5,
          "velocity": 100
        },
        {
          "pitch": 59,
          "onset": 161.0,
          "duration": 0.5,
          "velocity": 100
        },
        {
          "pitch": 56,
          "onset": 162.0,
          "duration": 0.5,
          "velocity": 100
        },
        {
          "pitch": 57,
          "onset": 162.5,
          "duration": 0.5,
          "velocity": 100
        },
        {
          "pitch": 54,
          "onset": 163.5,
          "duration": 0.5,
          "velocity": 100
        },
        {
          "pitch": 55,
          "onset": 164.0,
          "duration": 0.5,
          "velocity": 100
        },
        {
          "pitch": 52,
          "onset": 165.0,
          "duration": 0.5,
          "velocity": 100
        },
        {
          "pitch": 53,
          "onset": 165.5,
          "duration": 0.5,
          "velocity": 100
        },
        {
          "pitch": 51,
          "onset": 166.5,
          "duration": 0.5,
          "velocity": 100
        },
        {
          "pitch": 52,
          "onset": 167.0,
          "duration": 0.5,
          "velocity": 100
        },
        {
          "pitch": 48,
          "onset": 168.0,
          "duration": 0.5,
          "velocity": 100
        },
        {
          "pitch": 45,
          "onset": 168.5,
          "duration": 0.5,
          "velocity": 100
        },
        {
          "pitch": 47,
          "onset": 169.0,
          "duration": 1.0,
          "velocity": 100
        },
        {
          "pitch": 40,
          "onset": 170.0,
          "duration": 2.0,
          "velocity": 100
        }
      ]
    }
  ]
}