{
  "bwv": 544,
  "category": "organ_pf",
  "instrument": "organ",
  "form": "prelude",
  "movement": null,
  "ticks_per_beat": 384,
  "duration_seconds": 390.7,
  "tempos": [
    {
      "tick": 0,
      "bpm": 40
    },
    {
      "tick": 7488,
      "bpm": 35
    },
    {
      "tick": 8064,
      "bpm": 40
    },
    {
      "tick": 17472,
      "bpm": 40
    },
    {
      "tick": 17664,
      "bpm": 35
    },
    {
      "tick": 17856,
      "bpm": 35
    },
    {
      "tick": 18048,
      "bpm": 30
    },
    {
      "tick": 18240,
      "bpm": 30
    },
    {
      "tick": 18336,
      "bpm": 25
    },
    {
      "tick": 18432,
      "bpm": 35
    },
    {
      "tick": 18624,
      "bpm": 35
    },
    {
      "tick": 18816,
      "bpm": 40
    },
    {
      "tick": 29568,
      "bpm": 40
    },
    {
      "tick": 29760,
      "bpm": 40
    },
    {
      "tick": 29856,
      "bpm": 35
    },
    {
      "tick": 29952,
      "bpm": 40
    },
    {
      "tick": 30048,
      "bpm": 40
    },
    {
      "tick": 37248,
      "bpm": 40
    },
    {
      "tick": 37440,
      "bpm": 40
    },
    {
      "tick": 37632,
      "bpm": 35
    },
    {
      "tick": 38112,
      "bpm": 40
    },
    {
      "tick": 47424,
      "bpm": 40
    },
    {
      "tick": 47616,
      "bpm": 40
    },
    {
      "tick": 47808,
      "bpm": 35
    },
    {
      "tick": 48000,
      "bpm": 35
    },
    {
      "tick": 48192,
      "bpm": 30
    },
    {
      "tick": 48288,
      "bpm": 30
    },
    {
      "tick": 48384,
      "bpm": 35
    },
    {
      "tick": 48480,
      "bpm": 35
    },
    {
      "tick": 48576,
      "bpm": 40
    },
    {
      "tick": 61440,
      "bpm": 40
    },
    {
      "tick": 61536,
      "bpm": 40
    },
    {
      "tick": 61632,
      "bpm": 40
    },
    {
      "tick": 61728,
      "bpm": 40
    },
    {
      "tick": 74112,
      "bpm": 40
    },
    {
      "tick": 74208,
      "bpm": 40
    },
    {
      "tick": 74304,
      "bpm": 40
    },
    {
      "tick": 77760,
      "bpm": 40
    },
    {
      "tick": 78144,
      "bpm": 40
    },
    {
      "tick": 78240,
      "bpm": 35
    },
    {
      "tick": 78288,
      "bpm": 35
    },
    {
      "tick": 78336,
      "bpm": 35
    },
    {
      "tick": 78432,
      "bpm": 40
    },
    {
      "tick": 82560,
      "bpm": 40
    },
    {
      "tick": 82752,
      "bpm": 40
    },
    {
      "tick": 82848,
      "bpm": 35
    },
    {
      "tick": 82896,
      "bpm": 35
    },
    {
      "tick": 82944,
      "bpm": 35
    },
    {
      "tick": 83040,
      "bpm": 40
    },
    {
      "tick": 88896,
      "bpm": 40
    },
    {
      "tick": 89088,
      "bpm": 40
    },
    {
      "tick": 89184,
      "bpm": 35
    },
    {
      "tick": 89280,
      "bpm": 40
    },
    {
      "tick": 89376,
      "bpm": 40
    },
    {
      "tick": 95040,
      "bpm": 40
    },
    {
      "tick": 95424,
      "bpm": 40
    },
    {
      "tick": 95808,
      "bpm": 35
    },
    {
      "tick": 96000,
      "bpm": 35
    },
    {
      "tick": 96192,
      "bpm": 35
    },
    {
      "tick": 96384,
      "bpm": 30
    },
    {
      "tick": 96576,
      "bpm": 25
    },
    {
      "tick": 96672,
      "bpm": 20
    }
  ],
  "time_signatures": [
    {
      "tick": 0,
      "numerator": 6,
      "denominator": 8
    }
  ],
  "track_type": "manual",
  "voice_count": 2,
  "total_notes": 2317,
  "tracks": [
    {
      "role": "manual",
      "notes": [
        {
          "pitch": 83,
          "onset": 0.0,
          "duration": 0.625,
          "velocity": 100
        },
        {
          "pitch": 59,
          "onset": 0.5,
          "duration": 0.5,
          "velocity": 100
        },
        {
          "pitch": 81,
          "onset": 0.625,
          "duration": 0.125,
          "velocity": 100
        },
        {
          "pitch": 79,
          "onset": 0.75,
          "duration": 0.125,
          "velocity": 100
        },
        {
          "pitch": 78,
          "onset": 0.875,
          "duration": 0.125,
          "velocity": 100
        },
        {
          "pitch": 71,
          "onset": 1.0,
          "duration": 1.0,
          "velocity": 100
        },
        {
          "pitch": 79,
          "onset": 1.0,
          "duration": 0.25,
          "velocity": 100
        },
        {
          "pitch": 76,
          "onset": 1.25,
          "duration": 0.25,
          "velocity": 100
        },
        {
          "pitch": 74,
          "onset": 1.5,
          "duration": 0.25,
          "velocity": 100
        },
        {
          "pitch": 73,
          "onset": 1.75,
          "duration": 0.5,
          "velocity": 100
        },
        {
          "pitch": 70,
          "onset": 2.0,
          "duration": 0.5,
          "velocity": 100
        },
        {
          "pitch": 79,
          "onset": 2.25,
          "duration": 0.25,
          "velocity": 100
        },
        {
          "pitch": 78,
          "onset": 2.5,
          "duration": 0.5,
          "velocity": 100
        },
        {
          "pitch": 59,
          "onset": 3.0,
          "duration": 0.625,
          "velocity": 100
        },
        {
          "pitch": 76,
          "onset": 3.0,
          "duration": 0.5,
          "velocity": 100
        },
        {
          "pitch": 74,
          "onset": 3.5,
          "duration": 0.5,
          "velocity": 100
        },
        {
          "pitch": 57,
          "onset": 3.625,
          "duration": 0.125,
          "velocity": 100
        },
        {
          "pitch": 55,
          "onset": 3.75,
          "duration": 0.125,
          "velocity": 100
        },
        {
          "pitch": 54,
          "onset": 3.875,
          "duration": 0.125,
          "velocity": 100
        },
        {
          "pitch": 55,
          "onset": 4.0,
          "duration": 0.25,
          "velocity": 100
        },
        {
          "pitch": 71,
          "onset": 4.0,
          "duration": 1.0,
          "velocity": 100
        },
        {
          "pitch": 52,
          "onset": 4.25,
          "duration": 0.25,
          "velocity": 100
        },
        {
          "pitch": 50,
          "onset": 4.5,
          "duration": 0.5,
          "velocity": 100
        },
        {
          "pitch": 49,
          "onset": 5.0,
          "duration": 0.25,
          "velocity": 100
        },
        {
          "pitch": 70,
          "onset": 5.0,
          "duration": 0.5,
          "velocity": 100
        },
        {
          "pitch": 55,
          "onset": 5.25,
          "duration": 0.25,
          "velocity": 100
        },
        {
          "pitch": 54,
          "onset": 5.5,
          "duration": 0.5,
          "velocity": 100
        },
        {
          "pitch": 64,
          "onset": 6.0,
          "duration": 0.5,
          "velocity": 100
        },
        {
          "pitch": 70,
          "onset": 6.0,
          "duration": 0.5,
          "velocity": 100
        },
        {
          "pitch": 62,
          "onset": 6.5,
          "duration": 0.5,
          "velocity": 100
        },
        {
          "pitch": 71,
          "onset": 6.5,
          "duration": 0.125,
          "velocity": 100
        },
        {
          "pitch": 69,
          "onset": 6.625,
          "duration": 0.125,
          "velocity": 100
        },
        {
          "pitch": 67,
          "onset": 6.75,
          "duration": 0.125,
          "velocity": 100
        },
        {
          "pitch": 66,
          "onset": 6.875,
          "duration": 0.125,
          "velocity": 100
        },
        {
          "pitch": 59,
          "onset": 7.0,
          "duration": 1.0,
          "velocity": 100
        },
        {
          "pitch": 67,
          "onset": 7.0,
          "duration": 0.25,
          "velocity": 100
        },
        {
          "pitch": 76,
          "onset": 7.25,
          "duration": 0.25,
          "velocity": 100
        },
        {
          "pitch": 67,
          "onset": 7.5,
          "duration": 0.25,
          "velocity": 100
        },
        {
          "pitch": 66,
          "onset": 7.75,
          "duration": 0.125,
          "velocity": 100
        },
        {
          "pitch": 64,
          "onset": 7.875,
          "duration": 0.125,
          "velocity": 100
        },
        {
          "pitch": 58,
          "onset": 8.0,
          "duration": 0.5,
          "velocity": 100
        },
        {
          "pitch": 66,
          "onset": 8.0,
          "duration": 0.25,
          "velocity": 100
        },
        {
          "pitch": 73,
          "onset": 8.25,
          "duration": 0.25,
          "velocity": 100
        },
        {
          "pitch": 54,
          "onset": 8.5,
          "duration": 0.5,
          "velocity": 100
        },
        {
          "pitch": 64,
          "onset": 8.5,
          "duration": 0.25,
          "velocity": 100
        },
        {
          "pitch": 73,
          "onset": 8.75,
          "duration": 0.25,
          "velocity": 100
        },
        {
          "pitch": 59,
          "onset": 9.0,
          "duration": 1.0,
          "velocity": 100
        },
        {
          "pitch": 64,
          "onset": 9.0,
          "duration": 0.25,
          "velocity": 100
        },
        {
          "pitch": 62,
          "onset": 9.25,
          "duration": 0.125,
          "velocity": 100
        },
        {
          "pitch": 61,
          "onset": 9.375,
          "duration": 0.125,
          "velocity": 100
        },
        {
          "pitch": 62,
          "onset": 9.5,
          "duration": 0.5,
          "velocity": 100
        },
        {
          "pitch": 71,
          "onset": 9.75,
          "duration": 0.5,
          "velocity": 100
        },
        {
          "pitch": 61,
          "onset": 10.0,
          "duration": 0.5,
          "velocity": 100
        },
        {
          "pitch": 64,
          "onset": 10.0,
          "duration": 0.5,
          "velocity": 100
        },
        {
          "pitch": 70,
          "onset": 10.25,
          "duration": 0.375,
          "velocity": 100
        },
        {
          "pitch": 62,
          "onset": 10.5,
          "duration": 0.5,
          "velocity": 100
        },
        {
          "pitch": 66,
          "onset": 10.5,
          "duration": 0.5,
          "velocity": 100
        },
        {
          "pitch": 73,
          "onset": 10.625,
          "duration": 0.125,
          "velocity": 100
        },
        {
          "pitch": 71,
          "onset": 10.75,
          "duration": 0.125,
          "velocity": 100
        },
        {
          "pitch": 70,
          "onset": 10.875,
          "duration": 0.125,
          "velocity": 100
        },
        {
          "pitch": 71,
          "onset": 11.0,
          "duration": 0.25,
          "velocity": 100
        },
        {
          "pitch": 74,
          "onset": 11.25,
          "duration": 0.5,
          "velocity": 100
        },
        {
          "pitch": 64,
          "onset": 11.5,
          "duration": 0.5,
          "velocity": 100
        },
        {
          "pitch": 70,
          "onset": 11.5,
          "duration": 0.5,
          "velocity": 100
        },
        {
          "pitch": 73,
          "onset": 11.75,
          "duration": 0.375,
          "velocity": 100
        },
        {
          "pitch": 66,
          "onset": 12.0,
          "duration": 0.5,
          "velocity": 100
        },
        {
          "pitch": 71,
          "onset": 12.0,
          "duration": 0.5,
          "velocity": 100
        },
        {
          "pitch": 76,
          "onset": 12.125,
          "duration": 0.125,
          "velocity": 100
        },
        {
          "pitch": 74,
          "onset": 12.25,
          "duration": 0.125,
          "velocity": 100
        },
        {
          "pitch": 73,
          "onset": 12.375,
          "duration": 0.125,
          "velocity": 100
        },
        {
          "pitch": 74,
          "onset": 12.5,
          "duration": 0.25,
          "velocity": 100
        },
        {
          "pitch": 78,
          "onset": 12.75,
          "duration": 0.5,
          "velocity": 100
        },
        {
          "pitch": 70,
          "onset": 13.0,
          "duration": 0.5,
          "velocity": 100
        },
        {
          "pitch": 73,
          "onset": 13.0,
          "duration": 0.5,
          "velocity": 100
        },
        {
          "pitch": 76,
          "onset": 13.25,
          "duration": 0.375,
          "velocity": 100
        },
        {
          "pitch": 71,
          "onset": 13.5,
          "duration": 0.5,
          "velocity": 100
        },
        {
          "pitch": 74,
          "onset": 13.5,
          "duration": 0.5,
          "velocity": 100
        },
        {
          "pitch": 79,
          "onset": 13.625,
          "duration": 0.125,
          "velocity": 100
        },
        {
          "pitch": 78,
          "onset": 13.75,
          "duration": 0.125,
          "velocity": 100
        },
        {
          "pitch": 76,
          "onset": 13.875,
          "duration": 0.125,
          "velocity": 100
        },
        {
          "pitch": 78,
          "onset": 14.0,
          "duration": 0.25,
          "velocity": 100
        },
        {
          "pitch": 83,
          "onset": 14.25,
          "duration": 0.5,
          "velocity": 100
        },
        {
          "pitch": 73,
          "onset": 14.5,
          "duration": 0.5,
          "velocity": 100
        },
        {
          "pitch": 76,
          "onset": 14.5,
          "duration": 0.5,
          "velocity": 100
        },
        {
          "pitch": 82,
          "onset": 14.75,
          "duration": 0.25,
          "velocity": 100
        },
        {
          "pitch": 74,
          "onset": 15.0,
          "duration": 0.5,
          "velocity": 100
        },
        {
          "pitch": 78,
          "onset": 15.0,
          "duration": 0.5,
          "velocity": 100
        },
        {
          "pitch": 83,
          "onset": 15.0,
          "duration": 0.125,
          "velocity": 100
        },
        {
          "pitch": 81,
          "onset": 15.125,
          "duration": 0.125,
          "velocity": 100
        },
        {
          "pitch": 80,
          "onset": 15.25,
          "duration": 0.125,
          "velocity": 100
        },
        {
          "pitch": 78,
          "onset": 15.375,
          "duration": 0.125,
          "velocity": 100
        },
        {
          "pitch": 80,
          "onset": 15.5,
          "duration": 0.25,
          "velocity": 100
        },
        {
          "pitch": 83,
          "onset": 15.75,
          "duration": 0.25,
          "velocity": 100
        },
        {
          "pitch": 71,
          "onset": 16.0,
          "duration": 0.5,
          "velocity": 100
        },
        {
          "pitch": 74,
          "onset": 16.0,
          "duration": 0.5,
          "velocity": 100
        },
        {
          "pitch": 77,
          "onset": 16.0,
          "duration": 0.25,
          "velocity": 100
        },
        {
          "pitch": 78,
          "onset": 16.25,
          "duration": 0.375,
          "velocity": 100
        },
        {
          "pitch": 68,
          "onset": 16.5,
          "duration": 0.5,
          "velocity": 100
        },
        {
          "pitch": 73,
          "onset": 16.5,
          "duration": 0.5,
          "velocity": 100
        },
        {
          "pitch": 78,
          "onset": 16.625,
          "duration": 0.125,
          "velocity": 100
        },
        {
          "pitch": 77,
          "onset": 16.75,
          "duration": 0.125,
          "velocity": 100
        },
        {
          "pitch": 75,
          "onset": 16.875,
          "duration": 0.125,
          "velocity": 100
        },
        {
          "pitch": 77,
          "onset": 17.0,
          "duration": 0.25,
          "velocity": 100
        },
        {
          "pitch": 80,
          "onset": 17.25,
          "duration": 0.25,
          "velocity": 100
        },
        {
          "pitch": 62,
          "onset": 17.5,
          "duration": 0.5,
          "velocity": 100
        },
        {
          "pitch": 65,
          "onset": 17.5,
          "duration": 0.5,
          "velocity": 100
        },
        {
          "pitch": 70,
          "onset": 17.5,
          "duration": 0.25,
          "velocity": 100
        },
        {
          "pitch": 71,
          "onset": 17.75,
          "duration": 0.375,
          "velocity": 100
        },
        {
          "pitch": 61,
          "onset": 18.0,
          "duration": 0.5,
          "velocity": 100
        },
        {
          "pitch": 66,
          "onset": 18.0,
          "duration": 0.5,
          "velocity": 100
        },
        {
          "pitch": 71,
          "onset": 18.125,
          "duration": 0.125,
          "velocity": 100
        },
        {
          "pitch": 70,
          "onset": 18.25,
          "duration": 0.125,
          "velocity": 100
        },
        {
          "pitch": 68,
          "onset": 18.375,
          "duration": 0.125,
          "velocity": 100
        },
        {
          "pitch": 56,
          "onset": 18.5,
          "duration": 0.5,
          "velocity": 100
        },
        {
          "pitch": 59,
          "onset": 18.5,
          "duration": 1.0,
          "velocity": 100
        },
        {
          "pitch": 70,
          "onset": 18.5,
          "duration": 0.25,
          "velocity": 100
        },
        {
          "pitch": 73,
          "onset": 18.75,
          "duration": 0.25,
          "velocity": 100
        },
        {
          "pitch": 54,
          "onset": 19.0,
          "duration": 1.0,
          "velocity": 100
        },
        {
          "pitch": 65,
          "onset": 19.0,
          "duration": 0.25,
          "velocity": 100
        },
        {
          "pitch": 66,
          "onset": 19.25,
          "duration": 1.25,
          "velocity": 100
        },
        {
          "pitch": 58,
          "onset": 19.5,
          "duration": 0.5,
          "velocity": 100
        },
        {
          "pitch": 74,
          "onset": 19.5,
          "duration": 0.5,
          "velocity": 100
        },
        {
          "pitch": 73,
          "onset": 20.0,
          "duration": 0.5,
          "velocity": 100
        },
        {
          "pitch": 54,
          "onset": 21.75,
          "duration": 0.125,
          "velocity": 100
        },
        {
          "pitch": 56,
          "onset": 21.875,
          "duration": 0.125,
          "velocity": 100
        },
        {
          "pitch": 58,
          "onset": 22.0,
          "duration": 0.125,
          "velocity": 100
        },
        {
          "pitch": 59,
          "onset": 22.125,
          "duration": 0.125,
          "velocity": 100
        },
        {
          "pitch": 61,
          "onset": 22.25,
          "duration": 0.125,
          "velocity": 100
        },
        {
          "pitch": 62,
          "onset": 22.375,
          "duration": 0.125,
          "velocity": 100
        },
        {
          "pitch": 64,
          "onset": 22.5,
          "duration": 0.125,
          "velocity": 100
        },
        {
          "pitch": 67,
          "onset": 22.625,
          "duration": 0.125,
          "velocity": 100
        },
        {
          "pitch": 66,
          "onset": 22.75,
          "duration": 0.125,
          "velocity": 100
        },
        {
          "pitch": 64,
          "onset": 22.875,
          "duration": 0.125,
          "velocity": 100
        },
        {
          "pitch": 73,
          "onset": 23.0,
          "duration": 1.125,
          "velocity": 100
        },
        {
          "pitch": 61,
          "onset": 23.25,
          "duration": 0.25,
          "velocity": 100
        },
        {
          "pitch": 64,
          "onset": 23.25,
          "duration": 0.25,
          "velocity": 100
        },
        {
          "pitch": 67,
          "onset": 23.25,
          "duration": 0.25,
          "velocity": 100
        },
        {
          "pitch": 58,
          "onset": 23.5,
          "duration": 0.5,
          "velocity": 100
        },
        {
          "pitch": 61,
          "onset": 23.5,
          "duration": 0.5,
          "velocity": 100
        },
        {
          "pitch": 66,
          "onset": 23.5,
          "duration": 0.5,
          "velocity": 100
        },
        {
          "pitch": 54,
          "onset": 24.0,
          "duration": 1.0,
          "velocity": 100
        },
        {
          "pitch": 59,
          "onset": 24.0,
          "duration": 1.0,
          "velocity": 100
        },
        {
          "pitch": 64,
          "onset": 24.0,
          "duration": 0.25,
          "velocity": 100
        },
        {
          "pitch": 76,
          "onset": 24.125,
          "duration": 0.125,
          "velocity": 100
        },
        {
          "pitch": 62,
          "onset": 24.25,
          "duration": 0.75,
          "velocity": 100
        },
        {
          "pitch": 74,
          "onset": 24.25,
          "duration": 0.125,
          "velocity": 100
        },
        {
          "pitch": 73,
          "onset": 24.375,
          "duration": 0.125,
          "velocity": 100
        },
        {
          "pitch": 78,
          "onset": 24.5,
          "duration": 0.25,
          "velocity": 100
        },
        {
          "pitch": 71,
          "onset": 24.75,
          "duration": 0.25,
          "velocity": 100
        },
        {
          "pitch": 55,
          "onset": 25.0,
          "duration": 0.5,
          "velocity": 100
        },
        {
          "pitch": 61,
          "onset": 25.0,
          "duration": 0.5,
          "velocity": 100
        },
        {
          "pitch": 64,
          "onset": 25.0,
          "duration": 0.5,
          "velocity": 100
        },
        {
          "pitch": 70,
          "onset": 25.0,
          "duration": 0.5,
          "velocity": 100
        },
        {
          "pitch": 76,
          "onset": 25.25,
          "duration": 0.25,
          "velocity": 100
        },
        {
          "pitch": 54,
          "onset": 25.5,
          "duration": 1.0,
          "velocity": 100
        },
        {
          "pitch": 59,
          "onset": 25.5,
          "duration": 1.0,
          "velocity": 100
        },
        {
          "pitch": 66,
          "onset": 25.5,
          "duration": 1.0,
          "velocity": 100
        },
        {
          "pitch": 71,
          "onset": 25.5,
          "duration": 1.0,
          "velocity": 100
        },
        {
          "pitch": 76,
          "onset": 25.5,
          "duration": 0.5,
          "velocity": 100
        },
        {
          "pitch": 74,
          "onset": 26.0,
          "duration": 0.5,
          "velocity": 100
        },
        {
          "pitch": 59,
          "onset": 27.75,
          "duration": 0.125,
          "velocity": 100
        },
        {
          "pitch": 61,
          "onset": 27.875,
          "duration": 0.125,
          "velocity": 100
        },
        {
          "pitch": 63,
          "onset": 28.0,
          "duration": 0.125,
          "velocity": 100
        },
        {
          "pitch": 64,
          "onset": 28.125,
          "duration": 0.125,
          "velocity": 100
        },
        {
          "pitch": 66,
          "onset": 28.25,
          "duration": 0.125,
          "velocity": 100
        },
        {
          "pitch": 67,
          "onset": 28.375,
          "duration": 0.125,
          "velocity": 100
        },
        {
          "pitch": 69,
          "onset": 28.5,
          "duration": 0.125,
          "velocity": 100
        },
        {
          "pitch": 72,
          "onset": 28.625,
          "duration": 0.125,
          "velocity": 100
        },
        {
          "pitch": 71,
          "onset": 28.75,
          "duration": 0.125,
          "velocity": 100
        },
        {
          "pitch": 69,
          "onset": 28.875,
          "duration": 0.125,
          "velocity": 100
        },
        {
          "pitch": 75,
          "onset": 29.0,
          "duration": 1.125,
          "velocity": 100
        },
        {
          "pitch": 57,
          "onset": 29.25,
          "duration": 0.25,
          "velocity": 100
        },
        {
          "pitch": 69,
          "onset": 29.25,
          "duration": 0.25,
          "velocity": 100
        },
        {
          "pitch": 72,
          "onset": 29.25,
          "duration": 0.25,
          "velocity": 100
        },
        {
          "pitch": 59,
          "onset": 29.5,
          "duration": 0.5,
          "velocity": 100
        },
        {
          "pitch": 66,
          "onset": 29.5,
          "duration": 0.5,
          "velocity": 100
        },
        {
          "pitch": 71,
          "onset": 29.5,
          "duration": 0.5,
          "velocity": 100
        },
        {
          "pitch": 59,
          "onset": 30.0,
          "duration": 1.0,
          "velocity": 100
        },
        {
          "pitch": 64,
          "onset": 30.0,
          "duration": 1.0,
          "velocity": 100
        },
        {
          "pitch": 69,
          "onset": 30.0,
          "duration": 0.5,
          "velocity": 100
        },
        {
          "pitch": 78,
          "onset": 30.125,
          "duration": 0.125,
          "velocity": 100
        },
        {
          "pitch": 76,
          "onset": 30.25,
          "duration": 0.125,
          "velocity": 100
        },
        {
          "pitch": 75,
          "onset": 30.375,
          "duration": 0.125,
          "velocity": 100
        },
        {
          "pitch": 67,
          "onset": 30.5,
          "duration": 0.5,
          "velocity": 100
        },
        {
          "pitch": 76,
          "onset": 30.5,
          "duration": 0.25,
          "velocity": 100
        },
        {
          "pitch": 83,
          "onset": 30.75,
          "duration": 0.25,
          "velocity": 100
        },
        {
          "pitch": 60,
          "onset": 31.0,
          "duration": 0.5,
          "velocity": 100
        },
        {
          "pitch": 66,
          "onset": 31.0,
          "duration": 0.5,
          "velocity": 100
        },
        {
          "pitch": 75,
          "onset": 31.0,
          "duration": 0.5,
          "velocity": 100
        },
        {
          "pitch": 81,
          "onset": 31.25,
          "duration": 0.25,
          "velocity": 100
        },
        {
          "pitch": 59,
          "onset": 31.5,
          "duration": 1.0,
          "velocity": 100
        },
        {
          "pitch": 64,
          "onset": 31.5,
          "duration": 1.625,
          "velocity": 100
        },
        {
          "pitch": 79,
          "onset": 31.5,
          "duration": 1.75,
          "velocity": 100
        },
        {
          "pitch": 71,
          "onset": 32.25,
          "duration": 0.25,
          "velocity": 100
        },
        {
          "pitch": 76,
          "onset": 32.5,
          "duration": 0.25,
          "velocity": 100
        },
        {
          "pitch": 74,
          "onset": 32.75,
          "duration": 0.25,
          "velocity": 100
        },
        {
          "pitch": 73,
          "onset": 33.0,
          "duration": 2.25,
          "velocity": 100
        },
        {
          "pitch": 64,
          "onset": 33.125,
          "duration": 0.125,
          "velocity": 100
        },
        {
          "pitch": 66,
          "onset": 33.25,
          "duration": 0.125,
          "velocity": 100
        },
        {
          "pitch": 67,
          "onset": 33.375,
          "duration": 0.125,
          "velocity": 100
        },
        {
          "pitch": 69,
          "onset": 33.5,
          "duration": 1.125,
          "velocity": 100
        },
        {
          "pitch": 76,
          "onset": 33.75,
          "duration": 0.25,
          "velocity": 100
        },
        {
          "pitch": 81,
          "onset": 34.0,
          "duration": 0.25,
          "velocity": 100
        },
        {
          "pitch": 79,
          "onset": 34.25,
          "duration": 0.25,
          "velocity": 100
        },
        {
          "pitch": 78,
          "onset": 34.5,
          "duration": 2.25,
          "velocity": 100
        },
        {
          "pitch": 57,
          "onset": 34.625,
          "duration": 0.125,
          "velocity": 100
        },
        {
          "pitch": 59,
          "onset": 34.75,
          "duration": 0.125,
          "velocity": 100
        },
        {
          "pitch": 61,
          "onset": 34.875,
          "duration": 0.125,
          "velocity": 100
        },
        {
          "pitch": 62,
          "onset": 35.0,
          "duration": 1.125,
          "velocity": 100
        },
        {
          "pitch": 69,
          "onset": 35.25,
          "duration": 0.25,
          "velocity": 100
        },
        {
          "pitch": 74,
          "onset": 35.5,
          "duration": 0.25,
          "velocity": 100
        },
        {
          "pitch": 73,
          "onset": 35.75,
          "duration": 0.25,
          "velocity": 100
        },
        {
          "pitch": 71,
          "onset": 36.0,
          "duration": 2.0,
          "velocity": 100
        },
        {
          "pitch": 62,
          "onset": 36.125,
          "duration": 0.125,
          "velocity": 100
        },
        {
          "pitch": 64,
          "onset": 36.25,
          "duration": 0.125,
          "velocity": 100
        },
        {
          "pitch": 66,
          "onset": 36.375,
          "duration": 0.125,
          "velocity": 100
        },
        {
          "pitch": 67,
          "onset": 36.5,
          "duration": 1.125,
          "velocity": 100
        },
        {
          "pitch": 74,
          "onset": 36.75,
          "duration": 0.25,
          "velocity": 100
        },
        {
          "pitch": 79,
          "onset": 37.0,
          "duration": 0.25,
          "velocity": 100
        },
        {
          "pitch": 78,
          "onset": 37.25,
          "duration": 0.25,
          "velocity": 100
        },
        {
          "pitch": 76,
          "onset": 37.5,
          "duration": 2.25,
          "velocity": 100
        },
        {
          "pitch": 69,
          "onset": 37.625,
          "duration": 0.125,
          "velocity": 100
        },
        {
          "pitch": 67,
          "onset": 37.75,
          "duration": 0.125,
          "velocity": 100
        },
        {
          "pitch": 66,
          "onset": 37.875,
          "duration": 0.125,
          "velocity": 100
        },
        {
          "pitch": 64,
          "onset": 38.0,
          "duration": 0.125,
          "velocity": 100
        },
        {
          "pitch": 70,
          "onset": 38.0,
          "duration": 0.5,
          "velocity": 100
        },
        {
          "pitch": 67,
          "onset": 38.125,
          "duration": 0.125,
          "velocity": 100
        },
        {
          "pitch": 66,
          "onset": 38.25,
          "duration": 0.125,
          "velocity": 100
        },
        {
          "pitch": 67,
          "onset": 38.375,
          "duration": 0.75,
          "velocity": 100
        },
        {
          "pitch": 61,
          "onset": 38.5,
          "duration": 0.125,
          "velocity": 100
        },
        {
          "pitch": 73,
          "onset": 38.5,
          "duration": 1.25,
          "velocity": 100
        },
        {
          "pitch": 64,
          "onset": 38.625,
          "duration": 0.125,
          "velocity": 100
        },
        {
          "pitch": 62,
          "onset": 38.75,
          "duration": 0.125,
          "velocity": 100
        },
        {
          "pitch": 64,
          "onset": 38.875,
          "duration": 0.125,
          "velocity": 100
        },
        {
          "pitch": 58,
          "onset": 39.0,
          "duration": 1.0,
          "velocity": 100
        },
        {
          "pitch": 67,
          "onset": 39.125,
          "duration": 0.125,
          "velocity": 100
        },
        {
          "pitch": 66,
          "onset": 39.25,
          "duration": 0.125,
          "velocity": 100
        },
        {
          "pitch": 65,
          "onset": 39.375,
          "duration": 0.125,
          "velocity": 100
        },
        {
          "pitch": 66,
          "onset": 39.5,
          "duration": 1.125,
          "velocity": 100
        },
        {
          "pitch": 73,
          "onset": 39.75,
          "duration": 0.5,
          "velocity": 100
        },
        {
          "pitch": 76,
          "onset": 39.75,
          "duration": 0.5,
          "velocity": 100
        },
        {
          "pitch": 59,
          "onset": 40.0,
          "duration": 0.5,
          "velocity": 100
        },
        {
          "pitch": 71,
          "onset": 40.25,
          "duration": 1.0,
          "velocity": 100
        },
        {
          "pitch": 74,
          "onset": 40.25,
          "duration": 1.0,
          "velocity": 100
        },
        {
          "pitch": 56,
          "onset": 40.5,
          "duration": 1.0,
          "velocity": 100
        },
        {
          "pitch": 66,
          "onset": 40.625,
          "duration": 0.125,
          "velocity": 100
        },
        {
          "pitch": 65,
          "onset": 40.75,
          "duration": 0.125,
          "velocity": 100
        },
        {
          "pitch": 63,
          "onset": 40.875,
          "duration": 0.125,
          "velocity": 100
        },
        {
          "pitch": 65,
          "onset": 41.0,
          "duration": 0.5,
          "velocity": 100
        },
        {
          "pitch": 71,
          "onset": 41.25,
          "duration": 0.5,
          "velocity": 100
        },
        {
          "pitch": 74,
          "onset": 41.25,
          "duration": 0.5,
          "velocity": 100
        },
        {
          "pitch": 55,
          "onset": 41.5,
          "duration": 0.5,
          "velocity": 100
        },
        {
          "pitch": 64,
          "onset": 41.5,
          "duration": 0.625,
          "velocity": 100
        },
        {
          "pitch": 70,
          "onset": 41.75,
          "duration": 1.0,
          "velocity": 100
        },
        {
          "pitch": 73,
          "onset": 41.75,
          "duration": 1.0,
          "velocity": 100
        },
        {
          "pitch": 54,
          "onset": 42.0,
          "duration": 1.0,
          "velocity": 100
        },
        {
          "pitch": 64,
          "onset": 42.125,
          "duration": 0.125,
          "velocity": 100
        },
        {
          "pitch": 63,
          "onset": 42.25,
          "duration": 0.125,
          "velocity": 100
        },
        {
          "pitch": 61,
          "onset": 42.375,
          "duration": 0.125,
          "velocity": 100
        },
        {
          "pitch": 63,
          "onset": 42.5,
          "duration": 0.5,
          "velocity": 100
        },
        {
          "pitch": 70,
          "onset": 42.75,
          "duration": 0.5,
          "velocity": 100
        },
        {
          "pitch": 73,
          "onset": 42.75,
          "duration": 0.5,
          "velocity": 100
        },
        {
          "pitch": 53,
          "onset": 43.0,
          "duration": 0.5,
          "velocity": 100
        },
        {
          "pitch": 62,
          "onset": 43.0,
          "duration": 0.625,
          "velocity": 100
        },
        {
          "pitch": 68,
          "onset": 43.25,
          "duration": 0.25,
          "velocity": 100
        },
        {
          "pitch": 71,
          "onset": 43.25,
          "duration": 0.875,
          "velocity": 100
        },
        {
          "pitch": 54,
          "onset": 43.5,
          "duration": 2.0,
          "velocity": 100
        },
        {
          "pitch": 66,
          "onset": 43.5,
          "duration": 1.125,
          "velocity": 100
        },
        {
          "pitch": 62,
          "onset": 43.625,
          "duration": 0.125,
          "velocity": 100
        },
        {
          "pitch": 61,
          "onset": 43.75,
          "duration": 0.125,
          "velocity": 100
        },
        {
          "pitch": 59,
          "onset": 43.875,
          "duration": 0.125,
          "velocity": 100
        },
        {
          "pitch": 61,
          "onset": 44.0,
          "duration": 1.5,
          "velocity": 100
        },
        {
          "pitch": 71,
          "onset": 44.125,
          "duration": 0.125,
          "velocity": 100
        },
        {
          "pitch": 70,
          "onset": 44.25,
          "duration": 0.125,
          "velocity": 100
        },
        {
          "pitch": 68,
          "onset": 44.375,
          "duration": 0.125,
          "velocity": 100
        },
        {
          "pitch": 70,
          "onset": 44.5,
          "duration": 1.0,
          "velocity": 100
        },
        {
          "pitch": 67,
          "onset": 44.625,
          "duration": 0.125,
          "velocity": 100
        },
        {
          "pitch": 66,
          "onset": 44.75,
          "duration": 0.125,
          "velocity": 100
        },
        {
          "pitch": 64,
          "onset": 44.875,
          "duration": 0.625,
          "velocity": 100
        },
        {
          "pitch": 50,
          "onset": 45.5,
          "duration": 0.5,
          "velocity": 100
        },
        {
          "pitch": 59,
          "onset": 45.5,
          "duration": 0.5,
          "velocity": 100
        },
        {
          "pitch": 62,
          "onset": 45.5,
          "duration": 0.5,
          "velocity": 100
        },
        {
          "pitch": 71,
          "onset": 45.5,
          "duration": 0.125,
          "velocity": 100
        },
        {
          "pitch": 73,
          "onset": 45.625,
          "duration": 0.125,
          "velocity": 100
        },
        {
          "pitch": 71,
          "onset": 45.75,
          "duration": 0.125,
          "velocity": 100
        },
        {
          "pitch": 70,
          "onset": 45.875,
          "duration": 0.125,
          "velocity": 100
        },
        {
          "pitch": 71,
          "onset": 46.0,
          "duration": 0.125,
          "velocity": 100
        },
        {
          "pitch": 73,
          "onset": 46.125,
          "duration": 0.125,
          "velocity": 100
        },
        {
          "pitch": 74,
          "onset": 46.25,
          "duration": 0.125,
          "velocity": 100
        },
        {
          "pitch": 76,
          "onset": 46.375,
          "duration": 0.0625,
          "velocity": 100
        },
        {
          "pitch": 78,
          "onset": 46.4375,
          "duration": 0.0625,
          "velocity": 100
        },
        {
          "pitch": 55,
          "onset": 46.5,
          "duration": 0.5,
          "velocity": 100
        },
        {
          "pitch": 61,
          "onset": 46.5,
          "duration": 0.5,
          "velocity": 100
        },
        {
          "pitch": 71,
          "onset": 46.5,
          "duration": 0.5,
          "velocity": 100
        },
        {
          "pitch": 79,
          "onset": 46.5,
          "duration": 0.375,
          "velocity": 100
        },
        {
          "pitch": 78,
          "onset": 46.875,
          "duration": 0.125,
          "velocity": 100
        },
        {
          "pitch": 54,
          "onset": 47.0,
          "duration": 0.5,
          "velocity": 100
        },
        {
          "pitch": 62,
          "onset": 47.0,
          "duration": 0.5,
          "velocity": 100
        },
        {
          "pitch": 71,
          "onset": 47.0,
          "duration": 0.5,
          "velocity": 100
        },
        {
          "pitch": 76,
          "onset": 47.0,
          "duration": 0.25,
          "velocity": 100
        },
        {
          "pitch": 74,
          "onset": 47.25,
          "duration": 0.25,
          "velocity": 100
        },
        {
          "pitch": 54,
          "onset": 47.5,
          "duration": 0.5,
          "velocity": 100
        },
        {
          "pitch": 64,
          "onset": 47.5,
          "duration": 0.5,
          "velocity": 100
        },
        {
          "pitch": 70,
          "onset": 47.5,
          "duration": 0.5,
          "velocity": 100
        },
        {
          "pitch": 73,
          "onset": 47.5,
          "duration": 0.25,
          "velocity": 100
        },
        {
          "pitch": 71,
          "onset": 47.75,
          "duration": 0.25,
          "velocity": 100
        },
        {
          "pitch": 54,
          "onset": 48.0,
          "duration": 0.5,
          "velocity": 100
        },
        {
          "pitch": 62,
          "onset": 48.0,
          "duration": 0.25,
          "velocity": 100
        },
        {
          "pitch": 66,
          "onset": 48.0,
          "duration": 0.5,
          "velocity": 100
        },
        {
          "pitch": 71,
          "onset": 48.0,
          "duration": 0.5,
          "velocity": 100
        },
        {
          "pitch": 59,
          "onset": 48.25,
          "duration": 0.125,
          "velocity": 100
        },
        {
          "pitch": 61,
          "onset": 48.375,
          "duration": 0.125,
          "velocity": 85
        },
        {
          "pitch": 62,
          "onset": 48.5,
          "duration": 0.25,
          "velocity": 85
        },
        {
          "pitch": 64,
          "onset": 48.75,
          "duration": 0.25,
          "velocity": 85
        },
        {
          "pitch": 66,
          "onset": 49.0,
          "duration": 0.25,
          "velocity": 85
        },
        {
          "pitch": 67,
          "onset": 49.25,
          "duration": 0.25,
          "velocity": 85
        },
        {
          "pitch": 58,
          "onset": 49.5,
          "duration": 0.25,
          "velocity": 85
        },
        {
          "pitch": 64,
          "onset": 49.75,
          "duration": 0.5,
          "velocity": 85
        },
        {
          "pitch": 66,
          "onset": 50.25,
          "duration": 0.125,
          "velocity": 85
        },
        {
          "pitch": 67,
          "onset": 50.375,
          "duration": 0.125,
          "velocity": 85
        },
        {
          "pitch": 66,
          "onset": 50.5,
          "duration": 0.125,
          "velocity": 85
        },
        {
          "pitch": 64,
          "onset": 50.625,
          "duration": 0.125,
          "velocity": 85
        },
        {
          "pitch": 62,
          "onset": 50.75,
          "duration": 0.125,
          "velocity": 85
        },
        {
          "pitch": 61,
          "onset": 50.875,
          "duration": 0.125,
          "velocity": 85
        },
        {
          "pitch": 62,
          "onset": 51.0,
          "duration": 0.5,
          "velocity": 85
        },
        {
          "pitch": 66,
          "onset": 51.25,
          "duration": 0.125,
          "velocity": 85
        },
        {
          "pitch": 68,
          "onset": 51.375,
          "duration": 0.125,
          "velocity": 85
        },
        {
          "pitch": 61,
          "onset": 51.5,
          "duration": 0.5,
          "velocity": 85
        },
        {
          "pitch": 69,
          "onset": 51.5,
          "duration": 0.25,
          "velocity": 85
        },
        {
          "pitch": 71,
          "onset": 51.75,
          "duration": 0.25,
          "velocity": 85
        },
        {
          "pitch": 59,
          "onset": 52.0,
          "duration": 0.5,
          "velocity": 85
        },
        {
          "pitch": 73,
          "onset": 52.0,
          "duration": 0.25,
          "velocity": 85
        },
        {
          "pitch": 74,
          "onset": 52.25,
          "duration": 0.25,
          "velocity": 85
        },
        {
          "pitch": 61,
          "onset": 52.5,
          "duration": 0.5,
          "velocity": 85
        },
        {
          "pitch": 65,
          "onset": 52.5,
          "duration": 0.25,
          "velocity": 85
        },
        {
          "pitch": 71,
          "onset": 52.75,
          "duration": 0.5,
          "velocity": 85
        },
        {
          "pitch": 56,
          "onset": 53.0,
          "duration": 0.5,
          "velocity": 85
        },
        {
          "pitch": 73,
          "onset": 53.25,
          "duration": 0.125,
          "velocity": 85
        },
        {
          "pitch": 74,
          "onset": 53.375,
          "duration": 0.125,
          "velocity": 85
        },
        {
          "pitch": 65,
          "onset": 53.5,
          "duration": 0.5,
          "velocity": 85
        },
        {
          "pitch": 73,
          "onset": 53.5,
          "duration": 0.125,
          "velocity": 85
        },
        {
          "pitch": 71,
          "onset": 53.625,
          "duration": 0.125,
          "velocity": 85
        },
        {
          "pitch": 69,
          "onset": 53.75,
          "duration": 0.125,
          "velocity": 85
        },
        {
          "pitch": 68,
          "onset": 53.875,
          "duration": 0.125,
          "velocity": 85
        },
        {
          "pitch": 66,
          "onset": 54.0,
          "duration": 0.25,
          "velocity": 85
        },
        {
          "pitch": 69,
          "onset": 54.0,
          "duration": 0.25,
          "velocity": 85
        },
        {
          "pitch": 63,
          "onset": 54.25,
          "duration": 0.5,
          "velocity": 85
        },
        {
          "pitch": 72,
          "onset": 54.5,
          "duration": 0.5,
          "velocity": 85
        },
        {
          "pitch": 64,
          "onset": 54.75,
          "duration": 0.125,
          "velocity": 85
        },
        {
          "pitch": 66,
          "onset": 54.875,
          "duration": 0.125,
          "velocity": 85
        },
        {
          "pitch": 64,
          "onset": 55.0,
          "duration": 0.125,
          "velocity": 85
        },
        {
          "pitch": 78,
          "onset": 55.0,
          "duration": 0.5,
          "velocity": 85
        },
        {
          "pitch": 63,
          "onset": 55.125,
          "duration": 0.125,
          "velocity": 85
        },
        {
          "pitch": 61,
          "onset": 55.25,
          "duration": 0.125,
          "velocity": 85
        },
        {
          "pitch": 59,
          "onset": 55.375,
          "duration": 0.125,
          "velocity": 85
        },
        {
          "pitch": 64,
          "onset": 55.5,
          "duration": 0.5,
          "velocity": 85
        },
        {
          "pitch": 67,
          "onset": 55.5,
          "duration": 0.25,
          "velocity": 85
        },
        {
          "pitch": 76,
          "onset": 55.75,
          "duration": 0.5,
          "velocity": 85
        },
        {
          "pitch": 61,
          "onset": 56.0,
          "duration": 0.5,
          "velocity": 85
        },
        {
          "pitch": 78,
          "onset": 56.25,
          "duration": 0.125,
          "velocity": 85
        },
        {
          "pitch": 79,
          "onset": 56.375,
          "duration": 0.125,
          "velocity": 85
        },
        {
          "pitch": 70,
          "onset": 56.5,
          "duration": 0.5,
          "velocity": 85
        },
        {
          "pitch": 78,
          "onset": 56.5,
          "duration": 0.125,
          "velocity": 85
        },
        {
          "pitch": 76,
          "onset": 56.625,
          "duration": 0.125,
          "velocity": 85
        },
        {
          "pitch": 74,
          "onset": 56.75,
          "duration": 0.125,
          "velocity": 85
        },
        {
          "pitch": 73,
          "onset": 56.875,
          "duration": 0.125,
          "velocity": 85
        },
        {
          "pitch": 71,
          "onset": 57.0,
          "duration": 0.5,
          "velocity": 85
        },
        {
          "pitch": 74,
          "onset": 57.0,
          "duration": 0.5,
          "velocity": 85
        },
        {
          "pitch": 47,
          "onset": 57.25,
          "duration": 0.125,
          "velocity": 85
        },
        {
          "pitch": 49,
          "onset": 57.375,
          "duration": 0.125,
          "velocity": 85
        },
        {
          "pitch": 50,
          "onset": 57.5,
          "duration": 0.25,
          "velocity": 85
        },
        {
          "pitch": 64,
          "onset": 57.5,
          "duration": 0.5,
          "velocity": 85
        },
        {
          "pitch": 73,
          "onset": 57.5,
          "duration": 0.5,
          "velocity": 85
        },
        {
          "pitch": 52,
          "onset": 57.75,
          "duration": 0.25,
          "velocity": 85
        },
        {
          "pitch": 54,
          "onset": 58.0,
          "duration": 0.25,
          "velocity": 85
        },
        {
          "pitch": 62,
          "onset": 58.0,
          "duration": 0.5,
          "velocity": 85
        },
        {
          "pitch": 71,
          "onset": 58.0,
          "duration": 0.5,
          "velocity": 85
        },
        {
          "pitch": 55,
          "onset": 58.25,
          "duration": 0.25,
          "velocity": 85
        },
        {
          "pitch": 46,
          "onset": 58.5,
          "duration": 0.25,
          "velocity": 85
        },
        {
          "pitch": 64,
          "onset": 58.5,
          "duration": 0.5,
          "velocity": 85
        },
        {
          "pitch": 73,
          "onset": 58.5,
          "duration": 0.5,
          "velocity": 85
        },
        {
          "pitch": 52,
          "onset": 58.75,
          "duration": 0.5,
          "velocity": 85
        },
        {
          "pitch": 61,
          "onset": 59.0,
          "duration": 0.5,
          "velocity": 85
        },
        {
          "pitch": 70,
          "onset": 59.0,
          "duration": 0.5,
          "velocity": 85
        },
        {
          "pitch": 54,
          "onset": 59.25,
          "duration": 0.125,
          "velocity": 85
        },
        {
          "pitch": 55,
          "onset": 59.375,
          "duration": 0.125,
          "velocity": 85
        },
        {
          "pitch": 54,
          "onset": 59.5,
          "duration": 0.125,
          "velocity": 85
        },
        {
          "pitch": 52,
          "onset": 59.625,
          "duration": 0.125,
          "velocity": 85
        },
        {
          "pitch": 50,
          "onset": 59.75,
          "duration": 0.125,
          "velocity": 85
        },
        {
          "pitch": 49,
          "onset": 59.875,
          "duration": 0.125,
          "velocity": 85
        },
        {
          "pitch": 47,
          "onset": 60.0,
          "duration": 0.125,
          "velocity": 85
        },
        {
          "pitch": 74,
          "onset": 60.0,
          "duration": 0.5,
          "velocity": 85
        },
        {
          "pitch": 78,
          "onset": 60.0,
          "duration": 0.5,
          "velocity": 85
        },
        {
          "pitch": 49,
          "onset": 60.125,
          "duration": 0.125,
          "velocity": 85
        },
        {
          "pitch": 50,
          "onset": 60.25,
          "duration": 0.125,
          "velocity": 85
        },
        {
          "pitch": 52,
          "onset": 60.375,
          "duration": 0.125,
          "velocity": 85
        },
        {
          "pitch": 54,
          "onset": 60.5,
          "duration": 0.25,
          "velocity": 85
        },
        {
          "pitch": 67,
          "onset": 60.5,
          "duration": 0.5,
          "velocity": 85
        },
        {
          "pitch": 76,
          "onset": 60.5,
          "duration": 0.5,
          "velocity": 85
        },
        {
          "pitch": 55,
          "onset": 60.75,
          "duration": 0.25,
          "velocity": 85
        },
        {
          "pitch": 57,
          "onset": 61.0,
          "duration": 0.25,
          "velocity": 85
        },
        {
          "pitch": 66,
          "onset": 61.0,
          "duration": 0.5,
          "velocity": 85
        },
        {
          "pitch": 74,
          "onset": 61.0,
          "duration": 0.5,
          "velocity": 85
        },
        {
          "pitch": 59,
          "onset": 61.25,
          "duration": 0.25,
          "velocity": 85
        },
        {
          "pitch": 49,
          "onset": 61.5,
          "duration": 0.25,
          "velocity": 85
        },
        {
          "pitch": 67,
          "onset": 61.5,
          "duration": 0.5,
          "velocity": 85
        },
        {
          "pitch": 76,
          "onset": 61.5,
          "duration": 0.5,
          "velocity": 85
        },
        {
          "pitch": 55,
          "onset": 61.75,
          "duration": 0.5,
          "velocity": 85
        },
        {
          "pitch": 64,
          "onset": 62.0,
          "duration": 0.5,
          "velocity": 85
        },
        {
          "pitch": 73,
          "onset": 62.0,
          "duration": 0.5,
          "velocity": 85
        },
        {
          "pitch": 57,
          "onset": 62.25,
          "duration": 0.125,
          "velocity": 85
        },
        {
          "pitch": 59,
          "onset": 62.375,
          "duration": 0.125,
          "velocity": 85
        },
        {
          "pitch": 57,
          "onset": 62.5,
          "duration": 0.125,
          "velocity": 85
        },
        {
          "pitch": 55,
          "onset": 62.625,
          "duration": 0.125,
          "velocity": 85
        },
        {
          "pitch": 54,
          "onset": 62.75,
          "duration": 0.125,
          "velocity": 85
        },
        {
          "pitch": 52,
          "onset": 62.875,
          "duration": 0.125,
          "velocity": 85
        },
        {
          "pitch": 54,
          "onset": 63.0,
          "duration": 0.5,
          "velocity": 85
        },
        {
          "pitch": 57,
          "onset": 63.0,
          "duration": 0.5,
          "velocity": 85
        },
        {
          "pitch": 74,
          "onset": 63.25,
          "duration": 0.125,
          "velocity": 85
        },
        {
          "pitch": 76,
          "onset": 63.375,
          "duration": 0.125,
          "velocity": 85
        },
        {
          "pitch": 50,
          "onset": 63.5,
          "duration": 0.5,
          "velocity": 85
        },
        {
          "pitch": 54,
          "onset": 63.5,
          "duration": 0.5,
          "velocity": 85
        },
        {
          "pitch": 78,
          "onset": 63.5,
          "duration": 0.25,
          "velocity": 85
        },
        {
          "pitch": 79,
          "onset": 63.75,
          "duration": 0.25,
          "velocity": 85
        },
        {
          "pitch": 47,
          "onset": 64.0,
          "duration": 0.5,
          "velocity": 85
        },
        {
          "pitch": 50,
          "onset": 64.0,
          "duration": 0.5,
          "velocity": 85
        },
        {
          "pitch": 81,
          "onset": 64.0,
          "duration": 0.25,
          "velocity": 85
        },
        {
          "pitch": 83,
          "onset": 64.25,
          "duration": 0.25,
          "velocity": 85
        },
        {
          "pitch": 52,
          "onset": 64.5,
          "duration": 0.5,
          "velocity": 85
        },
        {
          "pitch": 55,
          "onset": 64.5,
          "duration": 0.5,
          "velocity": 85
        },
        {
          "pitch": 73,
          "onset": 64.5,
          "duration": 0.25,
          "velocity": 85
        },
        {
          "pitch": 79,
          "onset": 64.75,
          "duration": 0.5,
          "velocity": 85
        },
        {
          "pitch": 49,
          "onset": 65.0,
          "duration": 0.5,
          "velocity": 85
        },
        {
          "pitch": 52,
          "onset": 65.0,
          "duration": 0.5,
          "velocity": 85
        },
        {
          "pitch": 81,
          "onset": 65.25,
          "duration": 0.125,
          "velocity": 85
        },
        {
          "pitch": 83,
          "onset": 65.375,
          "duration": 0.125,
          "velocity": 85
        },
        {
          "pitch": 45,
          "onset": 65.5,
          "duration": 0.5,
          "velocity": 85
        },
        {
          "pitch": 49,
          "onset": 65.5,
          "duration": 0.5,
          "velocity": 85
        },
        {
          "pitch": 81,
          "onset": 65.5,
          "duration": 0.125,
          "velocity": 85
        },
        {
          "pitch": 79,
          "onset": 65.625,
          "duration": 0.125,
          "velocity": 85
        },
        {
          "pitch": 78,
          "onset": 65.75,
          "duration": 0.125,
          "velocity": 85
        },
        {
          "pitch": 76,
          "onset": 65.875,
          "duration": 0.125,
          "velocity": 85
        },
        {
          "pitch": 38,
          "onset": 66.0,
          "duration": 0.5,
          "velocity": 85
        },
        {
          "pitch": 78,
          "onset": 66.0,
          "duration": 0.5,
          "velocity": 85
        },
        {
          "pitch": 50,
          "onset": 66.125,
          "duration": 0.125,
          "velocity": 85
        },
        {
          "pitch": 49,
          "onset": 66.25,
          "duration": 0.125,
          "velocity": 85
        },
        {
          "pitch": 50,
          "onset": 66.375,
          "duration": 0.125,
          "velocity": 85
        },
        {
          "pitch": 52,
          "onset": 66.5,
          "duration": 0.125,
          "velocity": 85
        },
        {
          "pitch": 54,
          "onset": 66.625,
          "duration": 0.125,
          "velocity": 85
        },
        {
          "pitch": 55,
          "onset": 66.75,
          "duration": 0.125,
          "velocity": 85
        },
        {
          "pitch": 57,
          "onset": 66.875,
          "duration": 0.125,
          "velocity": 85
        },
        {
          "pitch": 49,
          "onset": 67.0,
          "duration": 0.5,
          "velocity": 85
        },
        {
          "pitch": 59,
          "onset": 67.0,
          "duration": 0.125,
          "velocity": 85
        },
        {
          "pitch": 61,
          "onset": 67.125,
          "duration": 0.125,
          "velocity": 85
        },
        {
          "pitch": 62,
          "onset": 67.25,
          "duration": 0.125,
          "velocity": 85
        },
        {
          "pitch": 64,
          "onset": 67.375,
          "duration": 0.125,
          "velocity": 85
        },
        {
          "pitch": 47,
          "onset": 67.5,
          "duration": 0.5,
          "velocity": 85
        },
        {
          "pitch": 66,
          "onset": 67.5,
          "duration": 0.125,
          "velocity": 85
        },
        {
          "pitch": 62,
          "onset": 67.625,
          "duration": 0.125,
          "velocity": 85
        },
        {
          "pitch": 61,
          "onset": 67.75,
          "duration": 0.125,
          "velocity": 85
        },
        {
          "pitch": 62,
          "onset": 67.875,
          "duration": 0.125,
          "velocity": 85
        },
        {
          "pitch": 56,
          "onset": 68.0,
          "duration": 0.5,
          "velocity": 85
        },
        {
          "pitch": 64,
          "onset": 68.0,
          "duration": 0.125,
          "velocity": 85
        },
        {
          "pitch": 66,
          "onset": 68.125,
          "duration": 0.125,
          "velocity": 85
        },
        {
          "pitch": 68,
          "onset": 68.25,
          "duration": 0.125,
          "velocity": 85
        },
        {
          "pitch": 69,
          "onset": 68.375,
          "duration": 0.125,
          "velocity": 85
        },
        {
          "pitch": 52,
          "onset": 68.5,
          "duration": 0.5,
          "velocity": 85
        },
        {
          "pitch": 71,
          "onset": 68.5,
          "duration": 0.125,
          "velocity": 85
        },
        {
          "pitch": 73,
          "onset": 68.625,
          "duration": 0.125,
          "velocity": 85
        },
        {
          "pitch": 74,
          "onset": 68.75,
          "duration": 0.125,
          "velocity": 85
        },
        {
          "pitch": 71,
          "onset": 68.875,
          "duration": 0.125,
          "velocity": 85
        },
        {
          "pitch": 45,
          "onset": 69.0,
          "duration": 0.5,
          "velocity": 85
        },
        {
          "pitch": 73,
          "onset": 69.0,
          "duration": 0.5,
          "velocity": 85
        },
        {
          "pitch": 57,
          "onset": 69.125,
          "duration": 0.125,
          "velocity": 85
        },
        {
          "pitch": 56,
          "onset": 69.25,
          "duration": 0.125,
          "velocity": 85
        },
        {
          "pitch": 57,
          "onset": 69.375,
          "duration": 0.125,
          "velocity": 85
        },
        {
          "pitch": 59,
          "onset": 69.5,
          "duration": 0.125,
          "velocity": 85
        },
        {
          "pitch": 61,
          "onset": 69.625,
          "duration": 0.125,
          "velocity": 85
        },
        {
          "pitch": 62,
          "onset": 69.75,
          "duration": 0.125,
          "velocity": 85
        },
        {
          "pitch": 64,
          "onset": 69.875,
          "duration": 0.125,
          "velocity": 85
        },
        {
          "pitch": 43,
          "onset": 70.0,
          "duration": 0.5,
          "velocity": 85
        },
        {
          "pitch": 66,
          "onset": 70.0,
          "duration": 0.125,
          "velocity": 85
        },
        {
          "pitch": 67,
          "onset": 70.125,
          "duration": 0.125,
          "velocity": 85
        },
        {
          "pitch": 69,
          "onset": 70.25,
          "duration": 0.125,
          "velocity": 85
        },
        {
          "pitch": 71,
          "onset": 70.375,
          "duration": 0.125,
          "velocity": 85
        },
        {
          "pitch": 42,
          "onset": 70.5,
          "duration": 0.5,
          "velocity": 85
        },
        {
          "pitch": 72,
          "onset": 70.5,
          "duration": 0.125,
          "velocity": 85
        },
        {
          "pitch": 69,
          "onset": 70.625,
          "duration": 0.125,
          "velocity": 85
        },
        {
          "pitch": 67,
          "onset": 70.75,
          "duration": 0.125,
          "velocity": 85
        },
        {
          "pitch": 69,
          "onset": 70.875,
          "duration": 0.125,
          "velocity": 85
        },
        {
          "pitch": 51,
          "onset": 71.0,
          "duration": 0.5,
          "velocity": 85
        },
        {
          "pitch": 71,
          "onset": 71.0,
          "duration": 0.125,
          "velocity": 85
        },
        {
          "pitch": 73,
          "onset": 71.125,
          "duration": 0.125,
          "velocity": 85
        },
        {
          "pitch": 75,
          "onset": 71.25,
          "duration": 0.125,
          "velocity": 85
        },
        {
          "pitch": 76,
          "onset": 71.375,
          "duration": 0.125,
          "velocity": 85
        },
        {
          "pitch": 47,
          "onset": 71.5,
          "duration": 0.5,
          "velocity": 85
        },
        {
          "pitch": 78,
          "onset": 71.5,
          "duration": 0.125,
          "velocity": 85
        },
        {
          "pitch": 79,
          "onset": 71.625,
          "duration": 0.125,
          "velocity": 85
        },
        {
          "pitch": 81,
          "onset": 71.75,
          "duration": 0.125,
          "velocity": 85
        },
        {
          "pitch": 78,
          "onset": 71.875,
          "duration": 0.125,
          "velocity": 85
        },
        {
          "pitch": 40,
          "onset": 72.0,
          "duration": 0.5,
          "velocity": 85
        },
        {
          "pitch": 79,
          "onset": 72.0,
          "duration": 0.5,
          "velocity": 85
        },
        {
          "pitch": 52,
          "onset": 72.125,
          "duration": 0.125,
          "velocity": 85
        },
        {
          "pitch": 51,
          "onset": 72.25,
          "duration": 0.125,
          "velocity": 85
        },
        {
          "pitch": 52,
          "onset": 72.375,
          "duration": 0.125,
          "velocity": 85
        },
        {
          "pitch": 54,
          "onset": 72.5,
          "duration": 0.125,
          "velocity": 85
        },
        {
          "pitch": 55,
          "onset": 72.625,
          "duration": 0.125,
          "velocity": 85
        },
        {
          "pitch": 57,
          "onset": 72.75,
          "duration": 0.125,
          "velocity": 85
        },
        {
          "pitch": 59,
          "onset": 72.875,
          "duration": 0.125,
          "velocity": 85
        },
        {
          "pitch": 50,
          "onset": 73.0,
          "duration": 0.5,
          "velocity": 85
        },
        {
          "pitch": 61,
          "onset": 73.0,
          "duration": 0.125,
          "velocity": 85
        },
        {
          "pitch": 62,
          "onset": 73.125,
          "duration": 0.125,
          "velocity": 85
        },
        {
          "pitch": 64,
          "onset": 73.25,
          "duration": 0.125,
          "velocity": 85
        },
        {
          "pitch": 66,
          "onset": 73.375,
          "duration": 0.125,
          "velocity": 85
        },
        {
          "pitch": 49,
          "onset": 73.5,
          "duration": 0.5,
          "velocity": 85
        },
        {
          "pitch": 67,
          "onset": 73.5,
          "duration": 0.125,
          "velocity": 85
        },
        {
          "pitch": 64,
          "onset": 73.625,
          "duration": 0.125,
          "velocity": 85
        },
        {
          "pitch": 62,
          "onset": 73.75,
          "duration": 0.125,
          "velocity": 85
        },
        {
          "pitch": 64,
          "onset": 73.875,
          "duration": 0.125,
          "velocity": 85
        },
        {
          "pitch": 58,
          "onset": 74.0,
          "duration": 0.5,
          "velocity": 85
        },
        {
          "pitch": 66,
          "onset": 74.0,
          "duration": 0.125,
          "velocity": 85
        },
        {
          "pitch": 68,
          "onset": 74.125,
          "duration": 0.125,
          "velocity": 85
        },
        {
          "pitch": 70,
          "onset": 74.25,
          "duration": 0.125,
          "velocity": 85
        },
        {
          "pitch": 71,
          "onset": 74.375,
          "duration": 0.125,
          "velocity": 85
        },
        {
          "pitch": 54,
          "onset": 74.5,
          "duration": 0.5,
          "velocity": 85
        },
        {
          "pitch": 73,
          "onset": 74.5,
          "duration": 0.125,
          "velocity": 85
        },
        {
          "pitch": 74,
          "onset": 74.625,
          "duration": 0.125,
          "velocity": 85
        },
        {
          "pitch": 76,
          "onset": 74.75,
          "duration": 0.125,
          "velocity": 85
        },
        {
          "pitch": 73,
          "onset": 74.875,
          "duration": 0.125,
          "velocity": 85
        },
        {
          "pitch": 47,
          "onset": 75.0,
          "duration": 0.5,
          "velocity": 85
        },
        {
          "pitch": 74,
          "onset": 75.0,
          "duration": 0.5,
          "velocity": 85
        },
        {
          "pitch": 59,
          "onset": 75.125,
          "duration": 0.125,
          "velocity": 85
        },
        {
          "pitch": 58,
          "onset": 75.25,
          "duration": 0.125,
          "velocity": 85
        },
        {
          "pitch": 59,
          "onset": 75.375,
          "duration": 0.125,
          "velocity": 85
        },
        {
          "pitch": 61,
          "onset": 75.5,
          "duration": 0.125,
          "velocity": 85
        },
        {
          "pitch": 62,
          "onset": 75.625,
          "duration": 0.125,
          "velocity": 85
        },
        {
          "pitch": 64,
          "onset": 75.75,
          "duration": 0.125,
          "velocity": 85
        },
        {
          "pitch": 66,
          "onset": 75.875,
          "duration": 0.125,
          "velocity": 85
        },
        {
          "pitch": 45,
          "onset": 76.0,
          "duration": 0.5,
          "velocity": 85
        },
        {
          "pitch": 68,
          "onset": 76.0,
          "duration": 0.125,
          "velocity": 85
        },
        {
          "pitch": 69,
          "onset": 76.125,
          "duration": 0.125,
          "velocity": 85
        },
        {
          "pitch": 71,
          "onset": 76.25,
          "duration": 0.125,
          "velocity": 85
        },
        {
          "pitch": 73,
          "onset": 76.375,
          "duration": 0.125,
          "velocity": 85
        },
        {
          "pitch": 44,
          "onset": 76.5,
          "duration": 0.5,
          "velocity": 85
        },
        {
          "pitch": 74,
          "onset": 76.5,
          "duration": 0.125,
          "velocity": 85
        },
        {
          "pitch": 71,
          "onset": 76.625,
          "duration": 0.125,
          "velocity": 85
        },
        {
          "pitch": 69,
          "onset": 76.75,
          "duration": 0.125,
          "velocity": 85
        },
        {
          "pitch": 71,
          "onset": 76.875,
          "duration": 0.125,
          "velocity": 85
        },
        {
          "pitch": 53,
          "onset": 77.0,
          "duration": 0.5,
          "velocity": 85
        },
        {
          "pitch": 73,
          "onset": 77.0,
          "duration": 0.125,
          "velocity": 85
        },
        {
          "pitch": 75,
          "onset": 77.125,
          "duration": 0.125,
          "velocity": 85
        },
        {
          "pitch": 77,
          "onset": 77.25,
          "duration": 0.125,
          "velocity": 85
        },
        {
          "pitch": 78,
          "onset": 77.375,
          "duration": 0.125,
          "velocity": 85
        },
        {
          "pitch": 49,
          "onset": 77.5,
          "duration": 0.5,
          "velocity": 85
        },
        {
          "pitch": 80,
          "onset": 77.5,
          "duration": 0.125,
          "velocity": 85
        },
        {
          "pitch": 81,
          "onset": 77.625,
          "duration": 0.125,
          "velocity": 85
        },
        {
          "pitch": 83,
          "onset": 77.75,
          "duration": 0.125,
          "velocity": 85
        },
        {
          "pitch": 80,
          "onset": 77.875,
          "duration": 0.125,
          "velocity": 85
        },
        {
          "pitch": 42,
          "onset": 78.0,
          "duration": 0.5,
          "velocity": 85
        },
        {
          "pitch": 81,
          "onset": 78.0,
          "duration": 0.125,
          "velocity": 85
        },
        {
          "pitch": 80,
          "onset": 78.125,
          "duration": 0.125,
          "velocity": 87
        },
        {
          "pitch": 78,
          "onset": 78.25,
          "duration": 0.125,
          "velocity": 89
        },
        {
          "pitch": 77,
          "onset": 78.375,
          "duration": 0.125,
          "velocity": 91
        },
        {
          "pitch": 54,
          "onset": 78.5,
          "duration": 0.5,
          "velocity": 93
        },
        {
          "pitch": 78,
          "onset": 78.5,
          "duration": 0.125,
          "velocity": 93
        },
        {
          "pitch": 76,
          "onset": 78.625,
          "duration": 0.125,
          "velocity": 95
        },
        {
          "pitch": 74,
          "onset": 78.75,
          "duration": 0.125,
          "velocity": 97
        },
        {
          "pitch": 73,
          "onset": 78.875,
          "duration": 0.125,
          "velocity": 99
        },
        {
          "pitch": 66,
          "onset": 79.0,
          "duration": 1.0,
          "velocity": 100
        },
        {
          "pitch": 74,
          "onset": 79.0,
          "duration": 0.375,
          "velocity": 100
        },
        {
          "pitch": 71,
          "onset": 79.375,
          "duration": 0.125,
          "velocity": 100
        },
        {
          "pitch": 69,
          "onset": 79.5,
          "duration": 0.25,
          "velocity": 100
        },
        {
          "pitch": 68,
          "onset": 79.75,
          "duration": 0.5,
          "velocity": 100
        },
        {
          "pitch": 65,
          "onset": 80.0,
          "duration": 0.5,
          "velocity": 100
        },
        {
          "pitch": 74,
          "onset": 80.25,
          "duration": 0.25,
          "velocity": 100
        },
        {
          "pitch": 73,
          "onset": 80.5,
          "duration": 0.5,
          "velocity": 100
        },
        {
          "pitch": 66,
          "onset": 81.0,
          "duration": 0.625,
          "velocity": 100
        },
        {
          "pitch": 71,
          "onset": 81.0,
          "duration": 0.5,
          "velocity": 100
        },
        {
          "pitch": 69,
          "onset": 81.5,
          "duration": 0.5,
          "velocity": 100
        },
        {
          "pitch": 64,
          "onset": 81.625,
          "duration": 0.125,
          "velocity": 100
        },
        {
          "pitch": 62,
          "onset": 81.75,
          "duration": 0.125,
          "velocity": 100
        },
        {
          "pitch": 61,
          "onset": 81.875,
          "duration": 0.125,
          "velocity": 100
        },
        {
          "pitch": 62,
          "onset": 82.0,
          "duration": 0.375,
          "velocity": 100
        },
        {
          "pitch": 66,
          "onset": 82.0,
          "duration": 1.0,
          "velocity": 100
        },
        {
          "pitch": 59,
          "onset": 82.375,
          "duration": 0.125,
          "velocity": 100
        },
        {
          "pitch": 57,
          "onset": 82.5,
          "duration": 0.25,
          "velocity": 100
        },
        {
          "pitch": 56,
          "onset": 82.75,
          "duration": 0.5,
          "velocity": 100
        },
        {
          "pitch": 65,
          "onset": 83.0,
          "duration": 0.5,
          "velocity": 100
        },
        {
          "pitch": 62,
          "onset": 83.25,
          "duration": 0.25,
          "velocity": 100
        },
        {
          "pitch": 61,
          "onset": 83.5,
          "duration": 0.5,
          "velocity": 100
        },
        {
          "pitch": 59,
          "onset": 84.0,
          "duration": 0.5,
          "velocity": 100
        },
        {
          "pitch": 65,
          "onset": 84.0,
          "duration": 0.5,
          "velocity": 100
        },
        {
          "pitch": 57,
          "onset": 84.5,
          "duration": 0.5,
          "velocity": 100
        },
        {
          "pitch": 66,
          "onset": 84.5,
          "duration": 0.125,
          "velocity": 100
        },
        {
          "pitch": 64,
          "onset": 84.625,
          "duration": 0.125,
          "velocity": 100
        },
        {
          "pitch": 62,
          "onset": 84.75,
          "duration": 0.125,
          "velocity": 100
        },
        {
          "pitch": 61,
          "onset": 84.875,
          "duration": 0.125,
          "velocity": 100
        },
        {
          "pitch": 54,
          "onset": 85.0,
          "duration": 1.0,
          "velocity": 100
        },
        {
          "pitch": 62,
          "onset": 85.0,
          "duration": 0.25,
          "velocity": 100
        },
        {
          "pitch": 71,
          "onset": 85.25,
          "duration": 0.25,
          "velocity": 100
        },
        {
          "pitch": 62,
          "onset": 85.5,
          "duration": 0.25,
          "velocity": 100
        },
        {
          "pitch": 61,
          "onset": 85.75,
          "duration": 0.125,
          "velocity": 100
        },
        {
          "pitch": 59,
          "onset": 85.875,
          "duration": 0.125,
          "velocity": 100
        },
        {
          "pitch": 53,
          "onset": 86.0,
          "duration": 0.5,
          "velocity": 100
        },
        {
          "pitch": 61,
          "onset": 86.0,
          "duration": 0.25,
          "velocity": 100
        },
        {
          "pitch": 68,
          "onset": 86.25,
          "duration": 0.25,
          "velocity": 100
        },
        {
          "pitch": 49,
          "onset": 86.5,
          "duration": 0.5,
          "velocity": 100
        },
        {
          "pitch": 59,
          "onset": 86.5,
          "duration": 0.25,
          "velocity": 100
        },
        {
          "pitch": 68,
          "onset": 86.75,
          "duration": 0.25,
          "velocity": 100
        },
        {
          "pitch": 54,
          "onset": 87.0,
          "duration": 1.0,
          "velocity": 100
        },
        {
          "pitch": 59,
          "onset": 87.0,
          "duration": 0.25,
          "velocity": 100
        },
        {
          "pitch": 57,
          "onset": 87.25,
          "duration": 0.125,
          "velocity": 100
        },
        {
          "pitch": 56,
          "onset": 87.375,
          "duration": 0.125,
          "velocity": 100
        },
        {
          "pitch": 57,
          "onset": 87.5,
          "duration": 0.5,
          "velocity": 100
        },
        {
          "pitch": 66,
          "onset": 87.75,
          "duration": 0.5,
          "velocity": 100
        },
        {
          "pitch": 56,
          "onset": 88.0,
          "duration": 0.5,
          "velocity": 100
        },
        {
          "pitch": 59,
          "onset": 88.0,
          "duration": 0.5,
          "velocity": 100
        },
        {
          "pitch": 65,
          "onset": 88.25,
          "duration": 0.375,
          "velocity": 100
        },
        {
          "pitch": 57,
          "onset": 88.5,
          "duration": 0.5,
          "velocity": 100
        },
        {
          "pitch": 61,
          "onset": 88.5,
          "duration": 0.5,
          "velocity": 100
        },
        {
          "pitch": 68,
          "onset": 88.625,
          "duration": 0.125,
          "velocity": 100
        },
        {
          "pitch": 66,
          "onset": 88.75,
          "duration": 0.125,
          "velocity": 100
        },
        {
          "pitch": 65,
          "onset": 88.875,
          "duration": 0.125,
          "velocity": 100
        },
        {
          "pitch": 66,
          "onset": 89.0,
          "duration": 0.25,
          "velocity": 100
        },
        {
          "pitch": 69,
          "onset": 89.25,
          "duration": 0.5,
          "velocity": 100
        },
        {
          "pitch": 59,
          "onset": 89.5,
          "duration": 0.5,
          "velocity": 100
        },
        {
          "pitch": 65,
          "onset": 89.5,
          "duration": 0.5,
          "velocity": 100
        },
        {
          "pitch": 68,
          "onset": 89.75,
          "duration": 0.375,
          "velocity": 100
        },
        {
          "pitch": 61,
          "onset": 90.0,
          "duration": 0.5,
          "velocity": 100
        },
        {
          "pitch": 66,
          "onset": 90.0,
          "duration": 0.5,
          "velocity": 100
        },
        {
          "pitch": 71,
          "onset": 90.125,
          "duration": 0.125,
          "velocity": 100
        },
        {
          "pitch": 69,
          "onset": 90.25,
          "duration": 0.125,
          "velocity": 100
        },
        {
          "pitch": 68,
          "onset": 90.375,
          "duration": 0.125,
          "velocity": 100
        },
        {
          "pitch": 69,
          "onset": 90.5,
          "duration": 0.25,
          "velocity": 100
        },
        {
          "pitch": 73,
          "onset": 90.75,
          "duration": 0.5,
          "velocity": 100
        },
        {
          "pitch": 65,
          "onset": 91.0,
          "duration": 0.5,
          "velocity": 100
        },
        {
          "pitch": 68,
          "onset": 91.0,
          "duration": 0.5,
          "velocity": 100
        },
        {
          "pitch": 71,
          "onset": 91.25,
          "duration": 0.375,
          "velocity": 100
        },
        {
          "pitch": 66,
          "onset": 91.5,
          "duration": 0.5,
          "velocity": 100
        },
        {
          "pitch": 69,
          "onset": 91.5,
          "duration": 0.5,
          "velocity": 100
        },
        {
          "pitch": 74,
          "onset": 91.625,
          "duration": 0.125,
          "velocity": 100
        },
        {
          "pitch": 73,
          "onset": 91.75,
          "duration": 0.125,
          "velocity": 100
        },
        {
          "pitch": 71,
          "onset": 91.875,
          "duration": 0.125,
          "velocity": 100
        },
        {
          "pitch": 73,
          "onset": 92.0,
          "duration": 0.25,
          "velocity": 100
        },
        {
          "pitch": 78,
          "onset": 92.25,
          "duration": 0.5,
          "velocity": 100
        },
        {
          "pitch": 68,
          "onset": 92.5,
          "duration": 0.5,
          "velocity": 100
        },
        {
          "pitch": 71,
          "onset": 92.5,
          "duration": 0.5,
          "velocity": 100
        },
        {
          "pitch": 77,
          "onset": 92.75,
          "duration": 0.25,
          "velocity": 100
        },
        {
          "pitch": 69,
          "onset": 93.0,
          "duration": 0.5,
          "velocity": 100
        },
        {
          "pitch": 73,
          "onset": 93.0,
          "duration": 0.5,
          "velocity": 100
        },
        {
          "pitch": 78,
          "onset": 93.0,
          "duration": 0.125,
          "velocity": 100
        },
        {
          "pitch": 76,
          "onset": 93.125,
          "duration": 0.125,
          "velocity": 100
        },
        {
          "pitch": 75,
          "onset": 93.25,
          "duration": 0.125,
          "velocity": 100
        },
        {
          "pitch": 73,
          "onset": 93.375,
          "duration": 0.125,
          "velocity": 100
        },
        {
          "pitch": 75,
          "onset": 93.5,
          "duration": 0.25,
          "velocity": 100
        },
        {
          "pitch": 78,
          "onset": 93.75,
          "duration": 0.25,
          "velocity": 100
        },
        {
          "pitch": 66,
          "onset": 94.0,
          "duration": 0.5,
          "velocity": 100
        },
        {
          "pitch": 69,
          "onset": 94.0,
          "duration": 0.5,
          "velocity": 100
        },
        {
          "pitch": 72,
          "onset": 94.0,
          "duration": 0.25,
          "velocity": 100
        },
        {
          "pitch": 73,
          "onset": 94.25,
          "duration": 0.375,
          "velocity": 100
        },
        {
          "pitch": 63,
          "onset": 94.5,
          "duration": 0.5,
          "velocity": 100
        },
        {
          "pitch": 68,
          "onset": 94.5,
          "duration": 0.5,
          "velocity": 100
        },
        {
          "pitch": 73,
          "onset": 94.625,
          "duration": 0.125,
          "velocity": 100
        },
        {
          "pitch": 72,
          "onset": 94.75,
          "duration": 0.125,
          "velocity": 100
        },
        {
          "pitch": 70,
          "onset": 94.875,
          "duration": 0.125,
          "velocity": 100
        },
        {
          "pitch": 72,
          "onset": 95.0,
          "duration": 0.25,
          "velocity": 100
        },
        {
          "pitch": 75,
          "onset": 95.25,
          "duration": 0.25,
          "velocity": 100
        },
        {
          "pitch": 57,
          "onset": 95.5,
          "duration": 0.5,
          "velocity": 100
        },
        {
          "pitch": 60,
          "onset": 95.5,
          "duration": 0.5,
          "velocity": 100
        },
        {
          "pitch": 65,
          "onset": 95.5,
          "duration": 0.25,
          "velocity": 100
        },
        {
          "pitch": 66,
          "onset": 95.75,
          "duration": 0.375,
          "velocity": 100
        },
        {
          "pitch": 56,
          "onset": 96.0,
          "duration": 0.5,
          "velocity": 100
        },
        {
          "pitch": 61,
          "onset": 96.0,
          "duration": 0.5,
          "velocity": 100
        },
        {
          "pitch": 66,
          "onset": 96.125,
          "duration": 0.125,
          "velocity": 100
        },
        {
          "pitch": 65,
          "onset": 96.25,
          "duration": 0.125,
          "velocity": 100
        },
        {
          "pitch": 63,
          "onset": 96.375,
          "duration": 0.125,
          "velocity": 100
        },
        {
          "pitch": 65,
          "onset": 96.5,
          "duration": 0.25,
          "velocity": 100
        },
        {
          "pitch": 68,
          "onset": 96.75,
          "duration": 0.25,
          "velocity": 100
        },
        {
          "pitch": 51,
          "onset": 97.0,
          "duration": 0.5,
          "velocity": 100
        },
        {
          "pitch": 54,
          "onset": 97.0,
          "duration": 1.0,
          "velocity": 100
        },
        {
          "pitch": 60,
          "onset": 97.0,
          "duration": 0.25,
          "velocity": 100
        },
        {
          "pitch": 61,
          "onset": 97.25,
          "duration": 0.25,
          "velocity": 100
        },
        {
          "pitch": 49,
          "onset": 97.5,
          "duration": 1.0,
          "velocity": 100
        },
        {
          "pitch": 69,
          "onset": 97.5,
          "duration": 0.5,
          "velocity": 100
        },
        {
          "pitch": 53,
          "onset": 98.0,
          "duration": 0.5,
          "velocity": 100
        },
        {
          "pitch": 68,
          "onset": 98.0,
          "duration": 0.5,
          "velocity": 100
        },
        {
          "pitch": 49,
          "onset": 99.25,
          "duration": 0.125,
          "velocity": 100
        },
        {
          "pitch": 51,
          "onset": 99.375,
          "duration": 0.125,
          "velocity": 100
        },
        {
          "pitch": 53,
          "onset": 99.5,
          "duration": 0.125,
          "velocity": 100
        },
        {
          "pitch": 54,
          "onset": 99.625,
          "duration": 0.125,
          "velocity": 100
        },
        {
          "pitch": 56,
          "onset": 99.75,
          "duration": 0.125,
          "velocity": 100
        },
        {
          "pitch": 57,
          "onset": 99.875,
          "duration": 0.125,
          "velocity": 100
        },
        {
          "pitch": 59,
          "onset": 100.0,
          "duration": 0.125,
          "velocity": 100
        },
        {
          "pitch": 61,
          "onset": 100.125,
          "duration": 0.125,
          "velocity": 100
        },
        {
          "pitch": 62,
          "onset": 100.25,
          "duration": 0.125,
          "velocity": 100
        },
        {
          "pitch": 59,
          "onset": 100.375,
          "duration": 0.125,
          "velocity": 100
        },
        {
          "pitch": 68,
          "onset": 100.5,
          "duration": 0.125,
          "velocity": 100
        },
        {
          "pitch": 62,
          "onset": 100.625,
          "duration": 0.125,
          "velocity": 100
        },
        {
          "pitch": 61,
          "onset": 100.75,
          "duration": 0.125,
          "velocity": 100
        },
        {
          "pitch": 59,
          "onset": 100.875,
          "duration": 0.125,
          "velocity": 100
        },
        {
          "pitch": 65,
          "onset": 101.0,
          "duration": 0.125,
          "velocity": 100
        },
        {
          "pitch": 62,
          "onset": 101.125,
          "duration": 0.125,
          "velocity": 100
        },
        {
          "pitch": 61,
          "onset": 101.25,
          "duration": 0.125,
          "velocity": 100
        },
        {
          "pitch": 59,
          "onset": 101.375,
          "duration": 0.125,
          "velocity": 100
        },
        {
          "pitch": 68,
          "onset": 101.5,
          "duration": 0.125,
          "velocity": 100
        },
        {
          "pitch": 62,
          "onset": 101.625,
          "duration": 0.125,
          "velocity": 100
        },
        {
          "pitch": 61,
          "onset": 101.75,
          "duration": 0.125,
          "velocity": 100
        },
        {
          "pitch": 59,
          "onset": 101.875,
          "duration": 0.125,
          "velocity": 100
        },
        {
          "pitch": 57,
          "onset": 102.0,
          "duration": 0.125,
          "velocity": 100
        },
        {
          "pitch": 56,
          "onset": 102.125,
          "duration": 0.125,
          "velocity": 100
        },
        {
          "pitch": 54,
          "onset": 102.25,
          "duration": 0.125,
          "velocity": 100
        },
        {
          "pitch": 56,
          "onset": 102.375,
          "duration": 0.125,
          "velocity": 100
        },
        {
          "pitch": 57,
          "onset": 102.5,
          "duration": 0.125,
          "velocity": 100
        },
        {
          "pitch": 59,
          "onset": 102.625,
          "duration": 0.125,
          "velocity": 100
        },
        {
          "pitch": 61,
          "onset": 102.75,
          "duration": 0.125,
          "velocity": 100
        },
        {
          "pitch": 62,
          "onset": 102.875,
          "duration": 0.125,
          "velocity": 100
        },
        {
          "pitch": 61,
          "onset": 103.0,
          "duration": 0.5,
          "velocity": 100
        },
        {
          "pitch": 64,
          "onset": 103.0,
          "duration": 0.125,
          "velocity": 100
        },
        {
          "pitch": 66,
          "onset": 103.125,
          "duration": 0.125,
          "velocity": 100
        },
        {
          "pitch": 67,
          "onset": 103.25,
          "duration": 0.125,
          "velocity": 100
        },
        {
          "pitch": 64,
          "onset": 103.375,
          "duration": 0.125,
          "velocity": 100
        },
        {
          "pitch": 58,
          "onset": 103.5,
          "duration": 0.5,
          "velocity": 100
        },
        {
          "pitch": 73,
          "onset": 103.5,
          "duration": 0.125,
          "velocity": 100
        },
        {
          "pitch": 67,
          "onset": 103.625,
          "duration": 0.125,
          "velocity": 100
        },
        {
          "pitch": 66,
          "onset": 103.75,
          "duration": 0.125,
          "velocity": 100
        },
        {
          "pitch": 64,
          "onset": 103.875,
          "duration": 0.125,
          "velocity": 100
        },
        {
          "pitch": 61,
          "onset": 104.0,
          "duration": 0.5,
          "velocity": 100
        },
        {
          "pitch": 70,
          "onset": 104.0,
          "duration": 0.125,
          "velocity": 100
        },
        {
          "pitch": 67,
          "onset": 104.125,
          "duration": 0.125,
          "velocity": 100
        },
        {
          "pitch": 66,
          "onset": 104.25,
          "duration": 0.125,
          "velocity": 100
        },
        {
          "pitch": 64,
          "onset": 104.375,
          "duration": 0.125,
          "velocity": 100
        },
        {
          "pitch": 54,
          "onset": 104.5,
          "duration": 1.0,
          "velocity": 100
        },
        {
          "pitch": 73,
          "onset": 104.5,
          "duration": 0.125,
          "velocity": 100
        },
        {
          "pitch": 67,
          "onset": 104.625,
          "duration": 0.125,
          "velocity": 100
        },
        {
          "pitch": 66,
          "onset": 104.75,
          "duration": 0.125,
          "velocity": 100
        },
        {
          "pitch": 64,
          "onset": 104.875,
          "duration": 0.125,
          "velocity": 100
        },
        {
          "pitch": 62,
          "onset": 105.0,
          "duration": 0.125,
          "velocity": 100
        },
        {
          "pitch": 61,
          "onset": 105.125,
          "duration": 0.125,
          "velocity": 100
        },
        {
          "pitch": 59,
          "onset": 105.25,
          "duration": 0.125,
          "velocity": 100
        },
        {
          "pitch": 61,
          "onset": 105.375,
          "duration": 0.125,
          "velocity": 100
        },
        {
          "pitch": 62,
          "onset": 105.5,
          "duration": 0.125,
          "velocity": 100
        },
        {
          "pitch": 64,
          "onset": 105.625,
          "duration": 0.125,
          "velocity": 100
        },
        {
          "pitch": 66,
          "onset": 105.75,
          "duration": 0.125,
          "velocity": 100
        },
        {
          "pitch": 67,
          "onset": 105.875,
          "duration": 0.125,
          "velocity": 100
        },
        {
          "pitch": 66,
          "onset": 106.0,
          "duration": 0.5,
          "velocity": 100
        },
        {
          "pitch": 69,
          "onset": 106.0,
          "duration": 0.125,
          "velocity": 100
        },
        {
          "pitch": 71,
          "onset": 106.125,
          "duration": 0.125,
          "velocity": 100
        },
        {
          "pitch": 72,
          "onset": 106.25,
          "duration": 0.125,
          "velocity": 100
        },
        {
          "pitch": 69,
          "onset": 106.375,
          "duration": 0.125,
          "velocity": 100
        },
        {
          "pitch": 63,
          "onset": 106.5,
          "duration": 0.5,
          "velocity": 100
        },
        {
          "pitch": 78,
          "onset": 106.5,
          "duration": 0.125,
          "velocity": 100
        },
        {
          "pitch": 72,
          "onset": 106.625,
          "duration": 0.125,
          "velocity": 100
        },
        {
          "pitch": 71,
          "onset": 106.75,
          "duration": 0.125,
          "velocity": 100
        },
        {
          "pitch": 69,
          "onset": 106.875,
          "duration": 0.125,
          "velocity": 100
        },
        {
          "pitch": 66,
          "onset": 107.0,
          "duration": 0.5,
          "velocity": 100
        },
        {
          "pitch": 75,
          "onset": 107.0,
          "duration": 0.125,
          "velocity": 100
        },
        {
          "pitch": 72,
          "onset": 107.125,
          "duration": 0.125,
          "velocity": 100
        },
        {
          "pitch": 71,
          "onset": 107.25,
          "duration": 0.125,
          "velocity": 100
        },
        {
          "pitch": 69,
          "onset": 107.375,
          "duration": 0.125,
          "velocity": 100
        },
        {
          "pitch": 59,
          "onset": 107.5,
          "duration": 1.0,
          "velocity": 100
        },
        {
          "pitch": 78,
          "onset": 107.5,
          "duration": 0.125,
          "velocity": 100
        },
        {
          "pitch": 72,
          "onset": 107.625,
          "duration": 0.125,
          "velocity": 100
        },
        {
          "pitch": 71,
          "onset": 107.75,
          "duration": 0.125,
          "velocity": 100
        },
        {
          "pitch": 69,
          "onset": 107.875,
          "duration": 0.125,
          "velocity": 100
        },
        {
          "pitch": 68,
          "onset": 108.0,
          "duration": 0.125,
          "velocity": 100
        },
        {
          "pitch": 66,
          "onset": 108.125,
          "duration": 0.125,
          "velocity": 100
        },
        {
          "pitch": 64,
          "onset": 108.25,
          "duration": 0.125,
          "velocity": 100
        },
        {
          "pitch": 66,
          "onset": 108.375,
          "duration": 0.125,
          "velocity": 100
        },
        {
          "pitch": 68,
          "onset": 108.5,
          "duration": 0.125,
          "velocity": 100
        },
        {
          "pitch": 69,
          "onset": 108.625,
          "duration": 0.125,
          "velocity": 100
        },
        {
          "pitch": 71,
          "onset": 108.75,
          "duration": 0.125,
          "velocity": 100
        },
        {
          "pitch": 73,
          "onset": 108.875,
          "duration": 0.125,
          "velocity": 100
        },
        {
          "pitch": 71,
          "onset": 109.0,
          "duration": 0.5,
          "velocity": 100
        },
        {
          "pitch": 74,
          "onset": 109.0,
          "duration": 0.125,
          "velocity": 100
        },
        {
          "pitch": 76,
          "onset": 109.125,
          "duration": 0.125,
          "velocity": 100
        },
        {
          "pitch": 77,
          "onset": 109.25,
          "duration": 0.125,
          "velocity": 100
        },
        {
          "pitch": 74,
          "onset": 109.375,
          "duration": 0.125,
          "velocity": 100
        },
        {
          "pitch": 68,
          "onset": 109.5,
          "duration": 0.5,
          "velocity": 100
        },
        {
          "pitch": 83,
          "onset": 109.5,
          "duration": 0.125,
          "velocity": 100
        },
        {
          "pitch": 77,
          "onset": 109.625,
          "duration": 0.125,
          "velocity": 100
        },
        {
          "pitch": 76,
          "onset": 109.75,
          "duration": 0.125,
          "velocity": 100
        },
        {
          "pitch": 74,
          "onset": 109.875,
          "duration": 0.125,
          "velocity": 100
        },
        {
          "pitch": 71,
          "onset": 110.0,
          "duration": 0.5,
          "velocity": 100
        },
        {
          "pitch": 80,
          "onset": 110.0,
          "duration": 0.125,
          "velocity": 100
        },
        {
          "pitch": 77,
          "onset": 110.125,
          "duration": 0.125,
          "velocity": 100
        },
        {
          "pitch": 76,
          "onset": 110.25,
          "duration": 0.125,
          "velocity": 100
        },
        {
          "pitch": 74,
          "onset": 110.375,
          "duration": 0.125,
          "velocity": 100
        },
        {
          "pitch": 64,
          "onset": 110.5,
          "duration": 1.0,
          "velocity": 100
        },
        {
          "pitch": 83,
          "onset": 110.5,
          "duration": 0.125,
          "velocity": 100
        },
        {
          "pitch": 77,
          "onset": 110.625,
          "duration": 0.125,
          "velocity": 100
        },
        {
          "pitch": 76,
          "onset": 110.75,
          "duration": 0.125,
          "velocity": 100
        },
        {
          "pitch": 74,
          "onset": 110.875,
          "duration": 0.125,
          "velocity": 100
        },
        {
          "pitch": 73,
          "onset": 111.0,
          "duration": 0.125,
          "velocity": 100
        },
        {
          "pitch": 71,
          "onset": 111.125,
          "duration": 0.125,
          "velocity": 100
        },
        {
          "pitch": 69,
          "onset": 111.25,
          "duration": 0.125,
          "velocity": 100
        },
        {
          "pitch": 68,
          "onset": 111.375,
          "duration": 0.125,
          "velocity": 100
        },
        {
          "pitch": 69,
          "onset": 111.5,
          "duration": 1.125,
          "velocity": 100
        },
        {
          "pitch": 68,
          "onset": 111.625,
          "duration": 0.125,
          "velocity": 100
        },
        {
          "pitch": 66,
          "onset": 111.75,
          "duration": 0.125,
          "velocity": 100
        },
        {
          "pitch": 65,
          "onset": 111.875,
          "duration": 0.125,
          "velocity": 100
        },
        {
          "pitch": 66,
          "onset": 112.0,
          "duration": 1.0,
          "velocity": 100
        },
        {
          "pitch": 64,
          "onset": 112.125,
          "duration": 0.125,
          "velocity": 100
        },
        {
          "pitch": 62,
          "onset": 112.25,
          "duration": 0.125,
          "velocity": 100
        },
        {
          "pitch": 61,
          "onset": 112.375,
          "duration": 0.125,
          "velocity": 100
        },
        {
          "pitch": 62,
          "onset": 112.5,
          "duration": 0.5,
          "velocity": 100
        },
        {
          "pitch": 73,
          "onset": 112.625,
          "duration": 0.125,
          "velocity": 100
        },
        {
          "pitch": 71,
          "onset": 112.75,
          "duration": 0.125,
          "velocity": 100
        },
        {
          "pitch": 69,
          "onset": 112.875,
          "duration": 0.125,
          "velocity": 100
        },
        {
          "pitch": 71,
          "onset": 113.0,
          "duration": 1.125,
          "velocity": 100
        },
        {
          "pitch": 69,
          "onset": 113.125,
          "duration": 0.125,
          "velocity": 100
        },
        {
          "pitch": 68,
          "onset": 113.25,
          "duration": 0.125,
          "velocity": 100
        },
        {
          "pitch": 66,
          "onset": 113.375,
          "duration": 0.125,
          "velocity": 100
        },
        {
          "pitch": 68,
          "onset": 113.5,
          "duration": 1.0,
          "velocity": 100
        },
        {
          "pitch": 66,
          "onset": 113.625,
          "duration": 0.125,
          "velocity": 100
        },
        {
          "pitch": 65,
          "onset": 113.75,
          "duration": 0.125,
          "velocity": 100
        },
        {
          "pitch": 63,
          "onset": 113.875,
          "duration": 0.125,
          "velocity": 100
        },
        {
          "pitch": 65,
          "onset": 114.0,
          "duration": 0.5,
          "velocity": 100
        },
        {
          "pitch": 74,
          "onset": 114.125,
          "duration": 0.125,
          "velocity": 100
        },
        {
          "pitch": 73,
          "onset": 114.25,
          "duration": 0.125,
          "velocity": 100
        },
        {
          "pitch": 71,
          "onset": 114.375,
          "duration": 0.125,
          "velocity": 100
        },
        {
          "pitch": 73,
          "onset": 114.5,
          "duration": 1.125,
          "velocity": 100
        },
        {
          "pitch": 71,
          "onset": 114.625,
          "duration": 0.125,
          "velocity": 100
        },
        {
          "pitch": 69,
          "onset": 114.75,
          "duration": 0.125,
          "velocity": 100
        },
        {
          "pitch": 68,
          "onset": 114.875,
          "duration": 0.125,
          "velocity": 100
        },
        {
          "pitch": 69,
          "onset": 115.0,
          "duration": 1.0,
          "velocity": 100
        },
        {
          "pitch": 68,
          "onset": 115.125,
          "duration": 0.125,
          "velocity": 100
        },
        {
          "pitch": 66,
          "onset": 115.25,
          "duration": 0.125,
          "velocity": 100
        },
        {
          "pitch": 65,
          "onset": 115.375,
          "duration": 0.125,
          "velocity": 100
        },
        {
          "pitch": 66,
          "onset": 115.5,
          "duration": 0.5,
          "velocity": 100
        },
        {
          "pitch": 76,
          "onset": 115.625,
          "duration": 0.125,
          "velocity": 100
        },
        {
          "pitch": 74,
          "onset": 115.75,
          "duration": 0.125,
          "velocity": 100
        },
        {
          "pitch": 73,
          "onset": 115.875,
          "duration": 0.125,
          "velocity": 100
        },
        {
          "pitch": 74,
          "onset": 116.0,
          "duration": 1.125,
          "velocity": 100
        },
        {
          "pitch": 73,
          "onset": 116.125,
          "duration": 0.125,
          "velocity": 100
        },
        {
          "pitch": 71,
          "onset": 116.25,
          "duration": 0.125,
          "velocity": 100
        },
        {
          "pitch": 69,
          "onset": 116.375,
          "duration": 0.125,
          "velocity": 100
        },
        {
          "pitch": 71,
          "onset": 116.5,
          "duration": 0.125,
          "velocity": 100
        },
        {
          "pitch": 69,
          "onset": 116.625,
          "duration": 0.125,
          "velocity": 100
        },
        {
          "pitch": 68,
          "onset": 116.75,
          "duration": 0.125,
          "velocity": 100
        },
        {
          "pitch": 66,
          "onset": 116.875,
          "duration": 0.125,
          "velocity": 100
        },
        {
          "pitch": 65,
          "onset": 117.0,
          "duration": 1.0,
          "velocity": 100
        },
        {
          "pitch": 74,
          "onset": 117.125,
          "duration": 0.125,
          "velocity": 100
        },
        {
          "pitch": 73,
          "onset": 117.25,
          "duration": 0.125,
          "velocity": 100
        },
        {
          "pitch": 72,
          "onset": 117.375,
          "duration": 0.125,
          "velocity": 100
        },
        {
          "pitch": 73,
          "onset": 117.5,
          "duration": 1.125,
          "velocity": 100
        },
        {
          "pitch": 80,
          "onset": 117.75,
          "duration": 0.5,
          "velocity": 100
        },
        {
          "pitch": 83,
          "onset": 117.75,
          "duration": 0.5,
          "velocity": 100
        },
        {
          "pitch": 66,
          "onset": 118.0,
          "duration": 0.5,
          "velocity": 100
        },
        {
          "pitch": 78,
          "onset": 118.25,
          "duration": 1.0,
          "velocity": 100
        },
        {
          "pitch": 81,
          "onset": 118.25,
          "duration": 1.0,
          "velocity": 100
        },
        {
          "pitch": 63,
          "onset": 118.5,
          "duration": 1.0,
          "velocity": 100
        },
        {
          "pitch": 73,
          "onset": 118.625,
          "duration": 0.125,
          "velocity": 100
        },
        {
          "pitch": 72,
          "onset": 118.75,
          "duration": 0.125,
          "velocity": 100
        },
        {
          "pitch": 70,
          "onset": 118.875,
          "duration": 0.125,
          "velocity": 100
        },
        {
          "pitch": 72,
          "onset": 119.0,
          "duration": 0.5,
          "velocity": 100
        },
        {
          "pitch": 78,
          "onset": 119.25,
          "duration": 0.5,
          "velocity": 100
        },
        {
          "pitch": 81,
          "onset": 119.25,
          "duration": 0.5,
          "velocity": 100
        },
        {
          "pitch": 62,
          "onset": 119.5,
          "duration": 0.5,
          "velocity": 100
        },
        {
          "pitch": 71,
          "onset": 119.5,
          "duration": 0.625,
          "velocity": 100
        },
        {
          "pitch": 77,
          "onset": 119.75,
          "duration": 1.0,
          "velocity": 100
        },
        {
          "pitch": 80,
          "onset": 119.75,
          "duration": 1.0,
          "velocity": 100
        },
        {
          "pitch": 61,
          "onset": 120.0,
          "duration": 1.0,
          "velocity": 100
        },
        {
          "pitch": 71,
          "onset": 120.125,
          "duration": 0.125,
          "velocity": 100
        },
        {
          "pitch": 70,
          "onset": 120.25,
          "duration": 0.125,
          "velocity": 100
        },
        {
          "pitch": 68,
          "onset": 120.375,
          "duration": 0.125,
          "velocity": 100
        },
        {
          "pitch": 70,
          "onset": 120.5,
          "duration": 0.5,
          "velocity": 100
        },
        {
          "pitch": 77,
          "onset": 120.75,
          "duration": 0.5,
          "velocity": 100
        },
        {
          "pitch": 80,
          "onset": 120.75,
          "duration": 0.5,
          "velocity": 100
        },
        {
          "pitch": 59,
          "onset": 121.0,
          "duration": 0.5,
          "velocity": 100
        },
        {
          "pitch": 69,
          "onset": 121.0,
          "duration": 0.625,
          "velocity": 100
        },
        {
          "pitch": 75,
          "onset": 121.25,
          "duration": 0.25,
          "velocity": 100
        },
        {
          "pitch": 78,
          "onset": 121.25,
          "duration": 0.875,
          "velocity": 100
        },
        {
          "pitch": 61,
          "onset": 121.5,
          "duration": 2.0,
          "velocity": 100
        },
        {
          "pitch": 73,
          "onset": 121.5,
          "duration": 1.125,
          "velocity": 100
        },
        {
          "pitch": 69,
          "onset": 121.625,
          "duration": 0.125,
          "velocity": 100
        },
        {
          "pitch": 68,
          "onset": 121.75,
          "duration": 0.125,
          "velocity": 100
        },
        {
          "pitch": 66,
          "onset": 121.875,
          "duration": 0.125,
          "velocity": 100
        },
        {
          "pitch": 68,
          "onset": 122.0,
          "duration": 1.5,
          "velocity": 100
        },
        {
          "pitch": 78,
          "onset": 122.125,
          "duration": 0.125,
          "velocity": 100
        },
        {
          "pitch": 77,
          "onset": 122.25,
          "duration": 0.125,
          "velocity": 100
        },
        {
          "pitch": 75,
          "onset": 122.375,
          "duration": 0.125,
          "velocity": 100
        },
        {
          "pitch": 77,
          "onset": 122.5,
          "duration": 1.0,
          "velocity": 100
        },
        {
          "pitch": 74,
          "onset": 122.625,
          "duration": 0.125,
          "velocity": 100
        },
        {
          "pitch": 73,
          "onset": 122.75,
          "duration": 0.125,
          "velocity": 100
        },
        {
          "pitch": 71,
          "onset": 122.875,
          "duration": 0.125,
          "velocity": 100
        },
        {
          "pitch": 54,
          "onset": 123.5,
          "duration": 0.5,
          "velocity": 100
        },
        {
          "pitch": 66,
          "onset": 123.5,
          "duration": 0.125,
          "velocity": 100
        },
        {
          "pitch": 69,
          "onset": 123.5,
          "duration": 0.125,
          "velocity": 100
        },
        {
          "pitch": 78,
          "onset": 123.5,
          "duration": 0.125,
          "velocity": 100
        },
        {
          "pitch": 66,
          "onset": 123.625,
          "duration": 0.125,
          "velocity": 100
        },
        {
          "pitch": 65,
          "onset": 123.75,
          "duration": 0.125,
          "velocity": 100
        },
        {
          "pitch": 66,
          "onset": 123.875,
          "duration": 0.125,
          "velocity": 100
        },
        {
          "pitch": 68,
          "onset": 124.0,
          "duration": 0.125,
          "velocity": 100
        },
        {
          "pitch": 69,
          "onset": 124.125,
          "duration": 0.125,
          "velocity": 100
        },
        {
          "pitch": 71,
          "onset": 124.25,
          "duration": 0.125,
          "velocity": 100
        },
        {
          "pitch": 73,
          "onset": 124.375,
          "duration": 0.125,
          "velocity": 100
        },
        {
          "pitch": 56,
          "onset": 124.5,
          "duration": 0.5,
          "velocity": 100
        },
        {
          "pitch": 62,
          "onset": 124.5,
          "duration": 0.5,
          "velocity": 100
        },
        {
          "pitch": 66,
          "onset": 124.5,
          "duration": 1.0,
          "velocity": 100
        },
        {
          "pitch": 74,
          "onset": 124.5,
          "duration": 0.375,
          "velocity": 100
        },
        {
          "pitch": 73,
          "onset": 124.875,
          "duration": 0.125,
          "velocity": 100
        },
        {
          "pitch": 57,
          "onset": 125.0,
          "duration": 0.5,
          "velocity": 100
        },
        {
          "pitch": 61,
          "onset": 125.0,
          "duration": 1.0,
          "velocity": 100
        },
        {
          "pitch": 71,
          "onset": 125.0,
          "duration": 0.25,
          "velocity": 100
        },
        {
          "pitch": 69,
          "onset": 125.25,
          "duration": 0.25,
          "velocity": 100
        },
        {
          "pitch": 59,
          "onset": 125.5,
          "duration": 0.5,
          "velocity": 100
        },
        {
          "pitch": 65,
          "onset": 125.5,
          "duration": 0.5,
          "velocity": 100
        },
        {
          "pitch": 68,
          "onset": 125.5,
          "duration": 0.25,
          "velocity": 100
        },
        {
          "pitch": 66,
          "onset": 125.75,
          "duration": 0.25,
          "velocity": 100
        },
        {
          "pitch": 57,
          "onset": 126.0,
          "duration": 0.25,
          "velocity": 100
        },
        {
          "pitch": 61,
          "onset": 126.0,
          "duration": 0.5,
          "velocity": 100
        },
        {
          "pitch": 66,
          "onset": 126.0,
          "duration": 0.5,
          "velocity": 100
        },
        {
          "pitch": 54,
          "onset": 126.25,
          "duration": 0.125,
          "velocity": 100
        },
        {
          "pitch": 56,
          "onset": 126.375,
          "duration": 0.125,
          "velocity": 100
        },
        {
          "pitch": 57,
          "onset": 126.5,
          "duration": 0.25,
          "velocity": 100
        },
        {
          "pitch": 59,
          "onset": 126.75,
          "duration": 0.25,
          "velocity": 100
        },
        {
          "pitch": 61,
          "onset": 127.0,
          "duration": 0.25,
          "velocity": 100
        },
        {
          "pitch": 81,
          "onset": 127.0,
          "duration": 0.5,
          "velocity": 100
        },
        {
          "pitch": 62,
          "onset": 127.25,
          "duration": 0.25,
          "velocity": 100
        },
        {
          "pitch": 53,
          "onset": 127.5,
          "duration": 0.25,
          "velocity": 100
        },
        {
          "pitch": 80,
          "onset": 127.5,
          "duration": 0.5,
          "velocity": 100
        },
        {
          "pitch": 59,
          "onset": 127.75,
          "duration": 0.5,
          "velocity": 100
        },
        {
          "pitch": 73,
          "onset": 128.0,
          "duration": 0.5,
          "velocity": 100
        },
        {
          "pitch": 61,
          "onset": 128.25,
          "duration": 0.125,
          "velocity": 100
        },
        {
          "pitch": 62,
          "onset": 128.375,
          "duration": 0.125,
          "velocity": 100
        },
        {
          "pitch": 61,
          "onset": 128.5,
          "duration": 0.125,
          "velocity": 100
        },
        {
          "pitch": 77,
          "onset": 128.5,
          "duration": 0.5,
          "velocity": 100
        },
        {
          "pitch": 59,
          "onset": 128.625,
          "duration": 0.125,
          "velocity": 100
        },
        {
          "pitch": 57,
          "onset": 128.75,
          "duration": 0.125,
          "velocity": 100
        },
        {
          "pitch": 56,
          "onset": 128.875,
          "duration": 0.125,
          "velocity": 100
        },
        {
          "pitch": 57,
          "onset": 129.0,
          "duration": 0.5,
          "velocity": 100
        },
        {
          "pitch": 78,
          "onset": 129.0,
          "duration": 0.5,
          "velocity": 100
        },
        {
          "pitch": 61,
          "onset": 129.25,
          "duration": 0.125,
          "velocity": 100
        },
        {
          "pitch": 63,
          "onset": 129.375,
          "duration": 0.125,
          "velocity": 100
        },
        {
          "pitch": 56,
          "onset": 129.5,
          "duration": 0.5,
          "velocity": 100
        },
        {
          "pitch": 64,
          "onset": 129.5,
          "duration": 0.25,
          "velocity": 100
        },
        {
          "pitch": 72,
          "onset": 129.5,
          "duration": 0.5,
          "velocity": 100
        },
        {
          "pitch": 66,
          "onset": 129.75,
          "duration": 0.25,
          "velocity": 100
        },
        {
          "pitch": 54,
          "onset": 130.0,
          "duration": 1.0,
          "velocity": 100
        },
        {
          "pitch": 68,
          "onset": 130.0,
          "duration": 0.25,
          "velocity": 100
        },
        {
          "pitch": 73,
          "onset": 130.0,
          "duration": 0.5,
          "velocity": 100
        },
        {
          "pitch": 69,
          "onset": 130.25,
          "duration": 0.25,
          "velocity": 100
        },
        {
          "pitch": 60,
          "onset": 130.5,
          "duration": 0.25,
          "velocity": 100
        },
        {
          "pitch": 75,
          "onset": 130.5,
          "duration": 0.5,
          "velocity": 100
        },
        {
          "pitch": 66,
          "onset": 130.75,
          "duration": 0.5,
          "velocity": 100
        },
        {
          "pitch": 48,
          "onset": 131.0,
          "duration": 0.5,
          "velocity": 100
        },
        {
          "pitch": 68,
          "onset": 131.25,
          "duration": 0.125,
          "velocity": 100
        },
        {
          "pitch": 69,
          "onset": 131.375,
          "duration": 0.125,
          "velocity": 100
        },
        {
          "pitch": 44,
          "onset": 131.5,
          "duration": 0.5,
          "velocity": 100
        },
        {
          "pitch": 68,
          "onset": 131.5,
          "duration": 0.125,
          "velocity": 100
        },
        {
          "pitch": 66,
          "onset": 131.625,
          "duration": 0.125,
          "velocity": 100
        },
        {
          "pitch": 64,
          "onset": 131.75,
          "duration": 0.125,
          "velocity": 100
        },
        {
          "pitch": 63,
          "onset": 131.875,
          "duration": 0.125,
          "velocity": 100
        },
        {
          "pitch": 49,
          "onset": 132.0,
          "duration": 0.25,
          "velocity": 100
        },
        {
          "pitch": 64,
          "onset": 132.0,
          "duration": 0.5,
          "velocity": 100
        },
        {
          "pitch": 46,
          "onset": 132.25,
          "duration": 0.5,
          "velocity": 100
        },
        {
          "pitch": 67,
          "onset": 132.5,
          "duration": 0.5,
          "velocity": 100
        },
        {
          "pitch": 47,
          "onset": 132.75,
          "duration": 0.125,
          "velocity": 100
        },
        {
          "pitch": 49,
          "onset": 132.875,
          "duration": 0.125,
          "velocity": 100
        },
        {
          "pitch": 47,
          "onset": 133.0,
          "duration": 0.125,
          "velocity": 100
        },
        {
          "pitch": 73,
          "onset": 133.0,
          "duration": 0.5,
          "velocity": 100
        },
        {
          "pitch": 46,
          "onset": 133.125,
          "duration": 0.125,
          "velocity": 100
        },
        {
          "pitch": 44,
          "onset": 133.25,
          "duration": 0.125,
          "velocity": 100
        },
        {
          "pitch": 42,
          "onset": 133.375,
          "duration": 0.125,
          "velocity": 100
        },
        {
          "pitch": 47,
          "onset": 133.5,
          "duration": 0.5,
          "velocity": 100
        },
        {
          "pitch": 62,
          "onset": 133.5,
          "duration": 0.25,
          "velocity": 100
        },
        {
          "pitch": 59,
          "onset": 133.75,
          "duration": 0.5,
          "velocity": 100
        },
        {
          "pitch": 44,
          "onset": 134.0,
          "duration": 0.5,
          "velocity": 100
        },
        {
          "pitch": 61,
          "onset": 134.25,
          "duration": 0.125,
          "velocity": 100
        },
        {
          "pitch": 62,
          "onset": 134.375,
          "duration": 0.125,
          "velocity": 100
        },
        {
          "pitch": 53,
          "onset": 134.5,
          "duration": 0.5,
          "velocity": 100
        },
        {
          "pitch": 61,
          "onset": 134.5,
          "duration": 0.125,
          "velocity": 100
        },
        {
          "pitch": 59,
          "onset": 134.625,
          "duration": 0.125,
          "velocity": 100
        },
        {
          "pitch": 57,
          "onset": 134.75,
          "duration": 0.125,
          "velocity": 100
        },
        {
          "pitch": 56,
          "onset": 134.875,
          "duration": 0.125,
          "velocity": 100
        },
        {
          "pitch": 54,
          "onset": 135.0,
          "duration": 0.5,
          "velocity": 100
        },
        {
          "pitch": 57,
          "onset": 135.0,
          "duration": 0.5,
          "velocity": 100
        },
        {
          "pitch": 66,
          "onset": 135.25,
          "duration": 0.125,
          "velocity": 100
        },
        {
          "pitch": 68,
          "onset": 135.375,
          "duration": 0.125,
          "velocity": 100
        },
        {
          "pitch": 50,
          "onset": 135.5,
          "duration": 0.5,
          "velocity": 100
        },
        {
          "pitch": 54,
          "onset": 135.5,
          "duration": 0.5,
          "velocity": 100
        },
        {
          "pitch": 69,
          "onset": 135.5,
          "duration": 0.25,
          "velocity": 100
        },
        {
          "pitch": 71,
          "onset": 135.75,
          "duration": 0.25,
          "velocity": 100
        },
        {
          "pitch": 47,
          "onset": 136.0,
          "duration": 0.5,
          "velocity": 100
        },
        {
          "pitch": 59,
          "onset": 136.0,
          "duration": 0.5,
          "velocity": 100
        },
        {
          "pitch": 73,
          "onset": 136.0,
          "duration": 0.25,
          "velocity": 100
        },
        {
          "pitch": 74,
          "onset": 136.25,
          "duration": 0.25,
          "velocity": 100
        },
        {
          "pitch": 49,
          "onset": 136.5,
          "duration": 0.5,
          "velocity": 100
        },
        {
          "pitch": 56,
          "onset": 136.5,
          "duration": 0.5,
          "velocity": 100
        },
        {
          "pitch": 65,
          "onset": 136.5,
          "duration": 0.25,
          "velocity": 100
        },
        {
          "pitch": 71,
          "onset": 136.75,
          "duration": 0.5,
          "velocity": 100
        },
        {
          "pitch": 53,
          "onset": 137.0,
          "duration": 0.5,
          "velocity": 100
        },
        {
          "pitch": 61,
          "onset": 137.0,
          "duration": 0.5,
          "velocity": 100
        },
        {
          "pitch": 73,
          "onset": 137.25,
          "duration": 0.125,
          "velocity": 100
        },
        {
          "pitch": 74,
          "onset": 137.375,
          "duration": 0.125,
          "velocity": 100
        },
        {
          "pitch": 73,
          "onset": 137.5,
          "duration": 0.125,
          "velocity": 100
        },
        {
          "pitch": 71,
          "onset": 137.625,
          "duration": 0.125,
          "velocity": 100
        },
        {
          "pitch": 69,
          "onset": 137.75,
          "duration": 0.125,
          "velocity": 100
        },
        {
          "pitch": 68,
          "onset": 137.875,
          "duration": 0.125,
          "velocity": 100
        },
        {
          "pitch": 54,
          "onset": 138.0,
          "duration": 0.5,
          "velocity": 100
        },
        {
          "pitch": 61,
          "onset": 138.0,
          "duration": 0.5,
          "velocity": 100
        },
        {
          "pitch": 69,
          "onset": 138.0,
          "duration": 0.125,
          "velocity": 100
        },
        {
          "pitch": 68,
          "onset": 138.125,
          "duration": 0.125,
          "velocity": 100
        },
        {
          "pitch": 69,
          "onset": 138.25,
          "duration": 0.125,
          "velocity": 100
        },
        {
          "pitch": 71,
          "onset": 138.375,
          "duration": 0.125,
          "velocity": 100
        },
        {
          "pitch": 66,
          "onset": 138.5,
          "duration": 0.5,
          "velocity": 100
        },
        {
          "pitch": 69,
          "onset": 138.5,
          "duration": 0.5,
          "velocity": 100
        },
        {
          "pitch": 73,
          "onset": 138.5,
          "duration": 0.25,
          "velocity": 100
        },
        {
          "pitch": 74,
          "onset": 138.75,
          "duration": 0.25,
          "velocity": 100
        },
        {
          "pitch": 62,
          "onset": 139.0,
          "duration": 0.5,
          "velocity": 100
        },
        {
          "pitch": 66,
          "onset": 139.0,
          "duration": 0.5,
          "velocity": 100
        },
        {
          "pitch": 76,
          "onset": 139.0,
          "duration": 0.25,
          "velocity": 100
        },
        {
          "pitch": 78,
          "onset": 139.25,
          "duration": 0.25,
          "velocity": 100
        },
        {
          "pitch": 59,
          "onset": 139.5,
          "duration": 0.5,
          "velocity": 100
        },
        {
          "pitch": 62,
          "onset": 139.5,
          "duration": 0.5,
          "velocity": 100
        },
        {
          "pitch": 68,
          "onset": 139.5,
          "duration": 0.25,
          "velocity": 100
        },
        {
          "pitch": 74,
          "onset": 139.75,
          "duration": 0.5,
          "velocity": 100
        },
        {
          "pitch": 56,
          "onset": 140.0,
          "duration": 0.5,
          "velocity": 100
        },
        {
          "pitch": 59,
          "onset": 140.0,
          "duration": 0.5,
          "velocity": 100
        },
        {
          "pitch": 76,
          "onset": 140.25,
          "duration": 0.125,
          "velocity": 100
        },
        {
          "pitch": 78,
          "onset": 140.375,
          "duration": 0.125,
          "velocity": 100
        },
        {
          "pitch": 76,
          "onset": 140.5,
          "duration": 0.125,
          "velocity": 100
        },
        {
          "pitch": 74,
          "onset": 140.625,
          "duration": 0.125,
          "velocity": 100
        },
        {
          "pitch": 73,
          "onset": 140.75,
          "duration": 0.125,
          "velocity": 100
        },
        {
          "pitch": 71,
          "onset": 140.875,
          "duration": 0.125,
          "velocity": 100
        },
        {
          "pitch": 57,
          "onset": 141.0,
          "duration": 0.5,
          "velocity": 100
        },
        {
          "pitch": 73,
          "onset": 141.0,
          "duration": 0.5,
          "velocity": 100
        },
        {
          "pitch": 45,
          "onset": 141.25,
          "duration": 0.125,
          "velocity": 100
        },
        {
          "pitch": 47,
          "onset": 141.375,
          "duration": 0.125,
          "velocity": 100
        },
        {
          "pitch": 49,
          "onset": 141.5,
          "duration": 0.25,
          "velocity": 100
        },
        {
          "pitch": 69,
          "onset": 141.5,
          "duration": 0.5,
          "velocity": 100
        },
        {
          "pitch": 76,
          "onset": 141.5,
          "duration": 0.5,
          "velocity": 100
        },
        {
          "pitch": 50,
          "onset": 141.75,
          "duration": 0.25,
          "velocity": 100
        },
        {
          "pitch": 52,
          "onset": 142.0,
          "duration": 0.25,
          "velocity": 100
        },
        {
          "pitch": 73,
          "onset": 142.0,
          "duration": 0.5,
          "velocity": 100
        },
        {
          "pitch": 81,
          "onset": 142.0,
          "duration": 0.5,
          "velocity": 100
        },
        {
          "pitch": 54,
          "onset": 142.25,
          "duration": 0.25,
          "velocity": 100
        },
        {
          "pitch": 44,
          "onset": 142.5,
          "duration": 0.25,
          "velocity": 100
        },
        {
          "pitch": 74,
          "onset": 142.5,
          "duration": 0.5,
          "velocity": 100
        },
        {
          "pitch": 83,
          "onset": 142.5,
          "duration": 0.5,
          "velocity": 100
        },
        {
          "pitch": 50,
          "onset": 142.75,
          "duration": 0.5,
          "velocity": 100
        },
        {
          "pitch": 71,
          "onset": 143.0,
          "duration": 0.5,
          "velocity": 100
        },
        {
          "pitch": 80,
          "onset": 143.0,
          "duration": 0.5,
          "velocity": 100
        },
        {
          "pitch": 52,
          "onset": 143.25,
          "duration": 0.125,
          "velocity": 100
        },
        {
          "pitch": 54,
          "onset": 143.375,
          "duration": 0.125,
          "velocity": 100
        },
        {
          "pitch": 52,
          "onset": 143.5,
          "duration": 0.125,
          "velocity": 100
        },
        {
          "pitch": 50,
          "onset": 143.625,
          "duration": 0.125,
          "velocity": 100
        },
        {
          "pitch": 49,
          "onset": 143.75,
          "duration": 0.125,
          "velocity": 100
        },
        {
          "pitch": 47,
          "onset": 143.875,
          "duration": 0.125,
          "velocity": 100
        },
        {
          "pitch": 45,
          "onset": 144.0,
          "duration": 0.125,
          "velocity": 100
        },
        {
          "pitch": 73,
          "onset": 144.0,
          "duration": 0.5,
          "velocity": 100
        },
        {
          "pitch": 80,
          "onset": 144.0,
          "duration": 0.5,
          "velocity": 100
        },
        {
          "pitch": 47,
          "onset": 144.125,
          "duration": 0.125,
          "velocity": 100
        },
        {
          "pitch": 49,
          "onset": 144.25,
          "duration": 0.5,
          "velocity": 100
        },
        {
          "pitch": 69,
          "onset": 144.5,
          "duration": 0.5,
          "velocity": 100
        },
        {
          "pitch": 78,
          "onset": 144.5,
          "duration": 0.5,
          "velocity": 100
        },
        {
          "pitch": 50,
          "onset": 144.75,
          "duration": 0.125,
          "velocity": 100
        },
        {
          "pitch": 52,
          "onset": 144.875,
          "duration": 0.125,
          "velocity": 100
        },
        {
          "pitch": 50,
          "onset": 145.0,
          "duration": 0.125,
          "velocity": 100
        },
        {
          "pitch": 49,
          "onset": 145.125,
          "duration": 0.125,
          "velocity": 100
        },
        {
          "pitch": 47,
          "onset": 145.25,
          "duration": 0.125,
          "velocity": 100
        },
        {
          "pitch": 45,
          "onset": 145.375,
          "duration": 0.125,
          "velocity": 100
        },
        {
          "pitch": 44,
          "onset": 145.5,
          "duration": 0.125,
          "velocity": 100
        },
        {
          "pitch": 71,
          "onset": 145.5,
          "duration": 0.5,
          "velocity": 100
        },
        {
          "pitch": 78,
          "onset": 145.5,
          "duration": 0.5,
          "velocity": 100
        },
        {
          "pitch": 45,
          "onset": 145.625,
          "duration": 0.125,
          "velocity": 100
        },
        {
          "pitch": 47,
          "onset": 145.75,
          "duration": 0.5,
          "velocity": 100
        },
        {
          "pitch": 68,
          "onset": 146.0,
          "duration": 0.5,
          "velocity": 100
        },
        {
          "pitch": 77,
          "onset": 146.0,
          "duration": 0.5,
          "velocity": 100
        },
        {
          "pitch": 49,
          "onset": 146.25,
          "duration": 0.125,
          "velocity": 100
        },
        {
          "pitch": 50,
          "onset": 146.375,
          "duration": 0.125,
          "velocity": 100
        },
        {
          "pitch": 49,
          "onset": 146.5,
          "duration": 0.125,
          "velocity": 100
        },
        {
          "pitch": 47,
          "onset": 146.625,
          "duration": 0.125,
          "velocity": 100
        },
        {
          "pitch": 45,
          "onset": 146.75,
          "duration": 0.125,
          "velocity": 100
        },
        {
          "pitch": 44,
          "onset": 146.875,
          "duration": 0.125,
          "velocity": 100
        },
        {
          "pitch": 42,
          "onset": 147.0,
          "duration": 0.5,
          "velocity": 100
        },
        {
          "pitch": 78,
          "onset": 147.0,
          "duration": 0.125,
          "velocity": 100
        },
        {
          "pitch": 73,
          "onset": 147.125,
          "duration": 0.125,
          "velocity": 100
        },
        {
          "pitch": 72,
          "onset": 147.25,
          "duration": 0.125,
          "velocity": 100
        },
        {
          "pitch": 73,
          "onset": 147.375,
          "duration": 0.125,
          "velocity": 100
        },
        {
          "pitch": 45,
          "onset": 147.5,
          "duration": 0.5,
          "velocity": 100
        },
        {
          "pitch": 78,
          "onset": 147.5,
          "duration": 0.125,
          "velocity": 100
        },
        {
          "pitch": 73,
          "onset": 147.625,
          "duration": 0.125,
          "velocity": 100
        },
        {
          "pitch": 72,
          "onset": 147.75,
          "duration": 0.125,
          "velocity": 100
        },
        {
          "pitch": 73,
          "onset": 147.875,
          "duration": 0.125,
          "velocity": 100
        },
        {
          "pitch": 49,
          "onset": 148.0,
          "duration": 0.5,
          "velocity": 100
        },
        {
          "pitch": 80,
          "onset": 148.0,
          "duration": 0.125,
          "velocity": 100
        },
        {
          "pitch": 73,
          "onset": 148.125,
          "duration": 0.125,
          "velocity": 100
        },
        {
          "pitch": 72,
          "onset": 148.25,
          "duration": 0.125,
          "velocity": 100
        },
        {
          "pitch": 73,
          "onset": 148.375,
          "duration": 0.875,
          "velocity": 100
        },
        {
          "pitch": 54,
          "onset": 148.5,
          "duration": 0.125,
          "velocity": 100
        },
        {
          "pitch": 81,
          "onset": 148.5,
          "duration": 2.25,
          "velocity": 100
        },
        {
          "pitch": 61,
          "onset": 148.625,
          "duration": 0.125,
          "velocity": 100
        },
        {
          "pitch": 62,
          "onset": 148.75,
          "duration": 0.125,
          "velocity": 100
        },
        {
          "pitch": 64,
          "onset": 148.875,
          "duration": 0.125,
          "velocity": 100
        },
        {
          "pitch": 66,
          "onset": 149.0,
          "duration": 1.125,
          "velocity": 100
        },
        {
          "pitch": 73,
          "onset": 149.25,
          "duration": 0.25,
          "velocity": 100
        },
        {
          "pitch": 78,
          "onset": 149.5,
          "duration": 0.25,
          "velocity": 100
        },
        {
          "pitch": 76,
          "onset": 149.75,
          "duration": 0.25,
          "velocity": 100
        },
        {
          "pitch": 74,
          "onset": 150.0,
          "duration": 2.25,
          "velocity": 100
        },
        {
          "pitch": 66,
          "onset": 150.125,
          "duration": 0.125,
          "velocity": 100
        },
        {
          "pitch": 67,
          "onset": 150.25,
          "duration": 0.125,
          "velocity": 100
        },
        {
          "pitch": 69,
          "onset": 150.375,
          "duration": 0.125,
          "velocity": 100
        },
        {
          "pitch": 71,
          "onset": 150.5,
          "duration": 1.125,
          "velocity": 100
        },
        {
          "pitch": 78,
          "onset": 150.75,
          "duration": 0.25,
          "velocity": 100
        },
        {
          "pitch": 83,
          "onset": 151.0,
          "duration": 0.25,
          "velocity": 100
        },
        {
          "pitch": 81,
          "onset": 151.25,
          "duration": 0.25,
          "velocity": 100
        },
        {
          "pitch": 79,
          "onset": 151.5,
          "duration": 2.25,
          "velocity": 100
        },
        {
          "pitch": 59,
          "onset": 151.625,
          "duration": 0.125,
          "velocity": 100
        },
        {
          "pitch": 61,
          "onset": 151.75,
          "duration": 0.125,
          "velocity": 100
        },
        {
          "pitch": 62,
          "onset": 151.875,
          "duration": 0.125,
          "velocity": 100
        },
        {
          "pitch": 64,
          "onset": 152.0,
          "duration": 1.125,
          "velocity": 100
        },
        {
          "pitch": 71,
          "onset": 152.25,
          "duration": 0.25,
          "velocity": 100
        },
        {
          "pitch": 76,
          "onset": 152.5,
          "duration": 0.25,
          "velocity": 100
        },
        {
          "pitch": 74,
          "onset": 152.75,
          "duration": 0.25,
          "velocity": 100
        },
        {
          "pitch": 73,
          "onset": 153.0,
          "duration": 1.5,
          "velocity": 100
        },
        {
          "pitch": 64,
          "onset": 153.125,
          "duration": 0.125,
          "velocity": 100
        },
        {
          "pitch": 66,
          "onset": 153.25,
          "duration": 0.125,
          "velocity": 100
        },
        {
          "pitch": 67,
          "onset": 153.375,
          "duration": 0.125,
          "velocity": 100
        },
        {
          "pitch": 69,
          "onset": 153.5,
          "duration": 1.125,
          "velocity": 100
        },
        {
          "pitch": 76,
          "onset": 153.75,
          "duration": 0.25,
          "velocity": 100
        },
        {
          "pitch": 81,
          "onset": 154.0,
          "duration": 0.25,
          "velocity": 100
        },
        {
          "pitch": 79,
          "onset": 154.25,
          "duration": 0.25,
          "velocity": 100
        },
        {
          "pitch": 74,
          "onset": 154.5,
          "duration": 2.125,
          "velocity": 100
        },
        {
          "pitch": 78,
          "onset": 154.5,
          "duration": 2.5,
          "velocity": 100
        },
        {
          "pitch": 71,
          "onset": 154.625,
          "duration": 0.125,
          "velocity": 100
        },
        {
          "pitch": 69,
          "onset": 154.75,
          "duration": 0.125,
          "velocity": 100
        },
        {
          "pitch": 67,
          "onset": 154.875,
          "duration": 0.125,
          "velocity": 100
        },
        {
          "pitch": 66,
          "onset": 155.0,
          "duration": 0.125,
          "velocity": 100
        },
        {
          "pitch": 69,
          "onset": 155.125,
          "duration": 0.125,
          "velocity": 100
        },
        {
          "pitch": 67,
          "onset": 155.25,
          "duration": 0.125,
          "velocity": 100
        },
        {
          "pitch": 69,
          "onset": 155.375,
          "duration": 0.125,
          "velocity": 100
        },
        {
          "pitch": 62,
          "onset": 155.5,
          "duration": 0.125,
          "velocity": 100
        },
        {
          "pitch": 66,
          "onset": 155.625,
          "duration": 0.125,
          "velocity": 100
        },
        {
          "pitch": 64,
          "onset": 155.75,
          "duration": 0.125,
          "velocity": 100
        },
        {
          "pitch": 66,
          "onset": 155.875,
          "duration": 0.125,
          "velocity": 100
        },
        {
          "pitch": 59,
          "onset": 156.0,
          "duration": 0.125,
          "velocity": 100
        },
        {
          "pitch": 62,
          "onset": 156.125,
          "duration": 0.125,
          "velocity": 100
        },
        {
          "pitch": 64,
          "onset": 156.25,
          "duration": 0.125,
          "velocity": 100
        },
        {
          "pitch": 66,
          "onset": 156.375,
          "duration": 0.125,
          "velocity": 100
        },
        {
          "pitch": 67,
          "onset": 156.5,
          "duration": 1.0,
          "velocity": 100
        },
        {
          "pitch": 71,
          "onset": 156.625,
          "duration": 0.125,
          "velocity": 100
        },
        {
          "pitch": 73,
          "onset": 156.75,
          "duration": 0.125,
          "velocity": 100
        },
        {
          "pitch": 74,
          "onset": 156.875,
          "duration": 0.125,
          "velocity": 100
        },
        {
          "pitch": 71,
          "onset": 157.0,
          "duration": 0.5,
          "velocity": 100
        },
        {
          "pitch": 76,
          "onset": 157.0,
          "duration": 0.375,
          "velocity": 100
        },
        {
          "pitch": 79,
          "onset": 157.125,
          "duration": 0.125,
          "velocity": 100
        },
        {
          "pitch": 78,
          "onset": 157.25,
          "duration": 0.125,
          "velocity": 100
        },
        {
          "pitch": 76,
          "onset": 157.375,
          "duration": 0.125,
          "velocity": 100
        },
        {
          "pitch": 61,
          "onset": 157.5,
          "duration": 1.0,
          "velocity": 100
        },
        {
          "pitch": 73,
          "onset": 157.5,
          "duration": 1.0,
          "velocity": 100
        },
        {
          "pitch": 76,
          "onset": 157.5,
          "duration": 1.0,
          "velocity": 100
        },
        {
          "pitch": 83,
          "onset": 157.5,
          "duration": 0.5,
          "velocity": 100
        },
        {
          "pitch": 81,
          "onset": 158.0,
          "duration": 0.5,
          "velocity": 100
        },
        {
          "pitch": 66,
          "onset": 159.125,
          "duration": 0.125,
          "velocity": 100
        },
        {
          "pitch": 74,
          "onset": 159.125,
          "duration": 0.125,
          "velocity": 100
        },
        {
          "pitch": 67,
          "onset": 159.25,
          "duration": 0.125,
          "velocity": 100
        },
        {
          "pitch": 76,
          "onset": 159.25,
          "duration": 0.125,
          "velocity": 100
        },
        {
          "pitch": 69,
          "onset": 159.375,
          "duration": 0.125,
          "velocity": 100
        },
        {
          "pitch": 78,
          "onset": 159.375,
          "duration": 0.125,
          "velocity": 100
        },
        {
          "pitch": 62,
          "onset": 159.5,
          "duration": 0.125,
          "velocity": 100
        },
        {
          "pitch": 71,
          "onset": 159.5,
          "duration": 0.125,
          "velocity": 100
        },
        {
          "pitch": 69,
          "onset": 159.625,
          "duration": 0.125,
          "velocity": 100
        },
        {
          "pitch": 78,
          "onset": 159.625,
          "duration": 0.125,
          "velocity": 100
        },
        {
          "pitch": 67,
          "onset": 159.75,
          "duration": 0.125,
          "velocity": 100
        },
        {
          "pitch": 76,
          "onset": 159.75,
          "duration": 0.125,
          "velocity": 100
        },
        {
          "pitch": 66,
          "onset": 159.875,
          "duration": 0.125,
          "velocity": 100
        },
        {
          "pitch": 74,
          "onset": 159.875,
          "duration": 0.125,
          "velocity": 100
        },
        {
          "pitch": 61,
          "onset": 160.0,
          "duration": 0.125,
          "velocity": 100
        },
        {
          "pitch": 69,
          "onset": 160.0,
          "duration": 0.125,
          "velocity": 100
        },
        {
          "pitch": 67,
          "onset": 160.125,
          "duration": 0.125,
          "velocity": 100
        },
        {
          "pitch": 76,
          "onset": 160.125,
          "duration": 0.125,
          "velocity": 100
        },
        {
          "pitch": 66,
          "onset": 160.25,
          "duration": 0.125,
          "velocity": 100
        },
        {
          "pitch": 74,
          "onset": 160.25,
          "duration": 0.125,
          "velocity": 100
        },
        {
          "pitch": 64,
          "onset": 160.375,
          "duration": 0.125,
          "velocity": 100
        },
        {
          "pitch": 73,
          "onset": 160.375,
          "duration": 0.125,
          "velocity": 100
        },
        {
          "pitch": 62,
          "onset": 160.5,
          "duration": 2.0,
          "velocity": 100
        },
        {
          "pitch": 74,
          "onset": 160.5,
          "duration": 0.125,
          "velocity": 100
        },
        {
          "pitch": 73,
          "onset": 160.625,
          "duration": 0.125,
          "velocity": 100
        },
        {
          "pitch": 71,
          "onset": 160.75,
          "duration": 0.125,
          "velocity": 100
        },
        {
          "pitch": 69,
          "onset": 160.875,
          "duration": 0.125,
          "velocity": 100
        },
        {
          "pitch": 68,
          "onset": 161.0,
          "duration": 0.125,
          "velocity": 100
        },
        {
          "pitch": 66,
          "onset": 161.125,
          "duration": 0.125,
          "velocity": 100
        },
        {
          "pitch": 68,
          "onset": 161.25,
          "duration": 0.125,
          "velocity": 100
        },
        {
          "pitch": 74,
          "onset": 161.375,
          "duration": 0.125,
          "velocity": 100
        },
        {
          "pitch": 66,
          "onset": 161.5,
          "duration": 0.125,
          "velocity": 100
        },
        {
          "pitch": 64,
          "onset": 161.625,
          "duration": 0.125,
          "velocity": 100
        },
        {
          "pitch": 66,
          "onset": 161.75,
          "duration": 0.125,
          "velocity": 100
        },
        {
          "pitch": 74,
          "onset": 161.875,
          "duration": 0.125,
          "velocity": 100
        },
        {
          "pitch": 64,
          "onset": 162.0,
          "duration": 0.125,
          "velocity": 100
        },
        {
          "pitch": 66,
          "onset": 162.125,
          "duration": 0.125,
          "velocity": 100
        },
        {
          "pitch": 68,
          "onset": 162.25,
          "duration": 0.125,
          "velocity": 100
        },
        {
          "pitch": 69,
          "onset": 162.375,
          "duration": 0.125,
          "velocity": 100
        },
        {
          "pitch": 52,
          "onset": 162.5,
          "duration": 0.5,
          "velocity": 100
        },
        {
          "pitch": 71,
          "onset": 162.5,
          "duration": 0.125,
          "velocity": 100
        },
        {
          "pitch": 74,
          "onset": 162.625,
          "duration": 0.125,
          "velocity": 100
        },
        {
          "pitch": 73,
          "onset": 162.75,
          "duration": 0.125,
          "velocity": 100
        },
        {
          "pitch": 71,
          "onset": 162.875,
          "duration": 0.125,
          "velocity": 100
        },
        {
          "pitch": 57,
          "onset": 163.0,
          "duration": 1.0,
          "velocity": 100
        },
        {
          "pitch": 73,
          "onset": 163.0,
          "duration": 0.125,
          "velocity": 100
        },
        {
          "pitch": 76,
          "onset": 163.125,
          "duration": 0.125,
          "velocity": 100
        },
        {
          "pitch": 74,
          "onset": 163.25,
          "duration": 0.125,
          "velocity": 100
        },
        {
          "pitch": 73,
          "onset": 163.375,
          "duration": 0.125,
          "velocity": 100
        },
        {
          "pitch": 81,
          "onset": 163.5,
          "duration": 0.25,
          "velocity": 100
        },
        {
          "pitch": 69,
          "onset": 163.75,
          "duration": 0.75,
          "velocity": 100
        },
        {
          "pitch": 62,
          "onset": 164.0,
          "duration": 0.5,
          "velocity": 100
        },
        {
          "pitch": 66,
          "onset": 164.0,
          "duration": 0.5,
          "velocity": 100
        },
        {
          "pitch": 71,
          "onset": 164.25,
          "duration": 0.5,
          "velocity": 100
        },
        {
          "pitch": 57,
          "onset": 164.5,
          "duration": 0.5,
          "velocity": 100
        },
        {
          "pitch": 64,
          "onset": 164.5,
          "duration": 0.5,
          "velocity": 100
        },
        {
          "pitch": 67,
          "onset": 164.5,
          "duration": 0.5,
          "velocity": 100
        },
        {
          "pitch": 73,
          "onset": 164.75,
          "duration": 0.25,
          "velocity": 100
        },
        {
          "pitch": 57,
          "onset": 165.0,
          "duration": 0.625,
          "velocity": 100
        },
        {
          "pitch": 62,
          "onset": 165.0,
          "duration": 0.25,
          "velocity": 100
        },
        {
          "pitch": 66,
          "onset": 165.0,
          "duration": 0.25,
          "velocity": 100
        },
        {
          "pitch": 74,
          "onset": 165.0,
          "duration": 0.25,
          "velocity": 100
        },
        {
          "pitch": 66,
          "onset": 165.25,
          "duration": 0.25,
          "velocity": 100
        },
        {
          "pitch": 69,
          "onset": 165.25,
          "duration": 0.25,
          "velocity": 100
        },
        {
          "pitch": 66,
          "onset": 165.5,
          "duration": 0.25,
          "velocity": 100
        },
        {
          "pitch": 69,
          "onset": 165.5,
          "duration": 0.25,
          "velocity": 100
        },
        {
          "pitch": 55,
          "onset": 165.625,
          "duration": 0.125,
          "velocity": 100
        },
        {
          "pitch": 54,
          "onset": 165.75,
          "duration": 0.125,
          "velocity": 100
        },
        {
          "pitch": 64,
          "onset": 165.75,
          "duration": 0.25,
          "velocity": 100
        },
        {
          "pitch": 67,
          "onset": 165.75,
          "duration": 0.25,
          "velocity": 100
        },
        {
          "pitch": 55,
          "onset": 165.875,
          "duration": 0.125,
          "velocity": 100
        },
        {
          "pitch": 57,
          "onset": 166.0,
          "duration": 0.125,
          "velocity": 100
        },
        {
          "pitch": 64,
          "onset": 166.0,
          "duration": 0.25,
          "velocity": 100
        },
        {
          "pitch": 67,
          "onset": 166.0,
          "duration": 0.25,
          "velocity": 100
        },
        {
          "pitch": 54,
          "onset": 166.125,
          "duration": 0.125,
          "velocity": 100
        },
        {
          "pitch": 55,
          "onset": 166.25,
          "duration": 0.125,
          "velocity": 100
        },
        {
          "pitch": 62,
          "onset": 166.25,
          "duration": 0.25,
          "velocity": 100
        },
        {
          "pitch": 66,
          "onset": 166.25,
          "duration": 0.25,
          "velocity": 100
        },
        {
          "pitch": 57,
          "onset": 166.375,
          "duration": 0.125,
          "velocity": 100
        },
        {
          "pitch": 50,
          "onset": 166.5,
          "duration": 0.5,
          "velocity": 100
        },
        {
          "pitch": 62,
          "onset": 166.5,
          "duration": 0.5,
          "velocity": 100
        },
        {
          "pitch": 66,
          "onset": 166.5,
          "duration": 0.5,
          "velocity": 100
        },
        {
          "pitch": 74,
          "onset": 166.75,
          "duration": 0.375,
          "velocity": 100
        },
        {
          "pitch": 54,
          "onset": 167.0,
          "duration": 0.5,
          "velocity": 100
        },
        {
          "pitch": 57,
          "onset": 167.0,
          "duration": 0.5,
          "velocity": 100
        },
        {
          "pitch": 62,
          "onset": 167.0,
          "duration": 0.5,
          "velocity": 100
        },
        {
          "pitch": 76,
          "onset": 167.125,
          "duration": 0.125,
          "velocity": 100
        },
        {
          "pitch": 74,
          "onset": 167.25,
          "duration": 0.125,
          "velocity": 100
        },
        {
          "pitch": 72,
          "onset": 167.375,
          "duration": 0.125,
          "velocity": 100
        },
        {
          "pitch": 57,
          "onset": 167.5,
          "duration": 0.75,
          "velocity": 100
        },
        {
          "pitch": 62,
          "onset": 167.5,
          "duration": 0.5,
          "velocity": 100
        },
        {
          "pitch": 66,
          "onset": 167.5,
          "duration": 0.75,
          "velocity": 100
        },
        {
          "pitch": 72,
          "onset": 167.5,
          "duration": 0.125,
          "velocity": 100
        },
        {
          "pitch": 74,
          "onset": 167.625,
          "duration": 0.125,
          "velocity": 100
        },
        {
          "pitch": 72,
          "onset": 167.75,
          "duration": 0.125,
          "velocity": 100
        },
        {
          "pitch": 71,
          "onset": 167.875,
          "duration": 0.125,
          "velocity": 100
        },
        {
          "pitch": 71,
          "onset": 168.0,
          "duration": 0.125,
          "velocity": 100
        },
        {
          "pitch": 72,
          "onset": 168.125,
          "duration": 0.125,
          "velocity": 100
        },
        {
          "pitch": 54,
          "onset": 168.25,
          "duration": 0.25,
          "velocity": 100
        },
        {
          "pitch": 57,
          "onset": 168.25,
          "duration": 0.25,
          "velocity": 100
        },
        {
          "pitch": 63,
          "onset": 168.25,
          "duration": 0.25,
          "velocity": 100
        },
        {
          "pitch": 71,
          "onset": 168.25,
          "duration": 0.125,
          "velocity": 100
        },
        {
          "pitch": 69,
          "onset": 168.375,
          "duration": 0.125,
          "velocity": 100
        },
        {
          "pitch": 54,
          "onset": 168.5,
          "duration": 0.25,
          "velocity": 100
        },
        {
          "pitch": 57,
          "onset": 168.5,
          "duration": 0.25,
          "velocity": 100
        },
        {
          "pitch": 63,
          "onset": 168.5,
          "duration": 0.25,
          "velocity": 100
        },
        {
          "pitch": 69,
          "onset": 168.5,
          "duration": 0.125,
          "velocity": 100
        },
        {
          "pitch": 71,
          "onset": 168.625,
          "duration": 0.125,
          "velocity": 100
        },
        {
          "pitch": 52,
          "onset": 168.75,
          "duration": 0.25,
          "velocity": 100
        },
        {
          "pitch": 61,
          "onset": 168.75,
          "duration": 0.25,
          "velocity": 100
        },
        {
          "pitch": 64,
          "onset": 168.75,
          "duration": 0.25,
          "velocity": 100
        },
        {
          "pitch": 69,
          "onset": 168.75,
          "duration": 0.125,
          "velocity": 100
        },
        {
          "pitch": 68,
          "onset": 168.875,
          "duration": 0.125,
          "velocity": 100
        },
        {
          "pitch": 52,
          "onset": 169.0,
          "duration": 0.25,
          "velocity": 100
        },
        {
          "pitch": 61,
          "onset": 169.0,
          "duration": 0.25,
          "velocity": 100
        },
        {
          "pitch": 64,
          "onset": 169.0,
          "duration": 0.25,
          "velocity": 100
        },
        {
          "pitch": 69,
          "onset": 169.0,
          "duration": 0.375,
          "velocity": 100
        },
        {
          "pitch": 51,
          "onset": 169.25,
          "duration": 0.25,
          "velocity": 100
        },
        {
          "pitch": 54,
          "onset": 169.25,
          "duration": 0.25,
          "velocity": 100
        },
        {
          "pitch": 59,
          "onset": 169.25,
          "duration": 0.25,
          "velocity": 100
        },
        {
          "pitch": 51,
          "onset": 169.5,
          "duration": 0.5,
          "velocity": 100
        },
        {
          "pitch": 54,
          "onset": 169.5,
          "duration": 0.5,
          "velocity": 100
        },
        {
          "pitch": 59,
          "onset": 169.5,
          "duration": 1.75,
          "velocity": 100
        },
        {
          "pitch": 78,
          "onset": 169.75,
          "duration": 0.125,
          "velocity": 100
        },
        {
          "pitch": 79,
          "onset": 169.875,
          "duration": 0.125,
          "velocity": 100
        },
        {
          "pitch": 47,
          "onset": 170.0,
          "duration": 0.5,
          "velocity": 100
        },
        {
          "pitch": 51,
          "onset": 170.0,
          "duration": 0.5,
          "velocity": 100
        },
        {
          "pitch": 78,
          "onset": 170.0,
          "duration": 0.125,
          "velocity": 100
        },
        {
          "pitch": 76,
          "onset": 170.125,
          "duration": 0.125,
          "velocity": 100
        },
        {
          "pitch": 75,
          "onset": 170.25,
          "duration": 0.125,
          "velocity": 100
        },
        {
          "pitch": 73,
          "onset": 170.375,
          "duration": 0.125,
          "velocity": 100
        },
        {
          "pitch": 51,
          "onset": 170.5,
          "duration": 0.5,
          "velocity": 100
        },
        {
          "pitch": 54,
          "onset": 170.5,
          "duration": 0.5,
          "velocity": 100
        },
        {
          "pitch": 71,
          "onset": 170.5,
          "duration": 0.125,
          "velocity": 100
        },
        {
          "pitch": 69,
          "onset": 170.625,
          "duration": 0.125,
          "velocity": 100
        },
        {
          "pitch": 67,
          "onset": 170.75,
          "duration": 0.125,
          "velocity": 100
        },
        {
          "pitch": 66,
          "onset": 170.875,
          "duration": 0.125,
          "velocity": 100
        },
        {
          "pitch": 52,
          "onset": 171.0,
          "duration": 0.25,
          "velocity": 100
        },
        {
          "pitch": 67,
          "onset": 171.0,
          "duration": 0.625,
          "velocity": 100
        },
        {
          "pitch": 55,
          "onset": 171.25,
          "duration": 0.25,
          "velocity": 100
        },
        {
          "pitch": 59,
          "onset": 171.25,
          "duration": 0.25,
          "velocity": 100
        },
        {
          "pitch": 55,
          "onset": 171.5,
          "duration": 0.25,
          "velocity": 100
        },
        {
          "pitch": 59,
          "onset": 171.5,
          "duration": 0.25,
          "velocity": 100
        },
        {
          "pitch": 71,
          "onset": 171.625,
          "duration": 0.125,
          "velocity": 100
        },
        {
          "pitch": 54,
          "onset": 171.75,
          "duration": 0.25,
          "velocity": 100
        },
        {
          "pitch": 57,
          "onset": 171.75,
          "duration": 0.25,
          "velocity": 100
        },
        {
          "pitch": 73,
          "onset": 171.75,
          "duration": 0.125,
          "velocity": 100
        },
        {
          "pitch": 75,
          "onset": 171.875,
          "duration": 0.125,
          "velocity": 100
        },
        {
          "pitch": 54,
          "onset": 172.0,
          "duration": 0.25,
          "velocity": 100
        },
        {
          "pitch": 57,
          "onset": 172.0,
          "duration": 0.25,
          "velocity": 100
        },
        {
          "pitch": 76,
          "onset": 172.0,
          "duration": 0.125,
          "velocity": 100
        },
        {
          "pitch": 75,
          "onset": 172.125,
          "duration": 0.125,
          "velocity": 100
        },
        {
          "pitch": 52,
          "onset": 172.25,
          "duration": 0.25,
          "velocity": 100
        },
        {
          "pitch": 55,
          "onset": 172.25,
          "duration": 0.25,
          "velocity": 100
        },
        {
          "pitch": 76,
          "onset": 172.25,
          "duration": 0.125,
          "velocity": 100
        },
        {
          "pitch": 78,
          "onset": 172.375,
          "duration": 0.125,
          "velocity": 100
        },
        {
          "pitch": 52,
          "onset": 172.5,
          "duration": 0.5,
          "velocity": 100
        },
        {
          "pitch": 55,
          "onset": 172.5,
          "duration": 0.5,
          "velocity": 100
        },
        {
          "pitch": 79,
          "onset": 172.5,
          "duration": 3.125,
          "velocity": 100
        },
        {
          "pitch": 76,
          "onset": 172.625,
          "duration": 1.625,
          "velocity": 100
        },
        {
          "pitch": 74,
          "onset": 172.75,
          "duration": 0.125,
          "velocity": 100
        },
        {
          "pitch": 72,
          "onset": 172.875,
          "duration": 0.125,
          "velocity": 100
        },
        {
          "pitch": 71,
          "onset": 173.0,
          "duration": 1.0,
          "velocity": 100
        },
        {
          "pitch": 69,
          "onset": 173.125,
          "duration": 0.125,
          "velocity": 100
        },
        {
          "pitch": 67,
          "onset": 173.25,
          "duration": 0.125,
          "velocity": 100
        },
        {
          "pitch": 66,
          "onset": 173.375,
          "duration": 0.125,
          "velocity": 100
        },
        {
          "pitch": 64,
          "onset": 173.5,
          "duration": 0.125,
          "velocity": 100
        },
        {
          "pitch": 62,
          "onset": 173.625,
          "duration": 0.125,
          "velocity": 100
        },
        {
          "pitch": 60,
          "onset": 173.75,
          "duration": 0.125,
          "velocity": 100
        },
        {
          "pitch": 59,
          "onset": 173.875,
          "duration": 0.125,
          "velocity": 100
        },
        {
          "pitch": 60,
          "onset": 174.0,
          "duration": 0.125,
          "velocity": 100
        },
        {
          "pitch": 69,
          "onset": 174.0,
          "duration": 0.25,
          "velocity": 100
        },
        {
          "pitch": 57,
          "onset": 174.125,
          "duration": 0.125,
          "velocity": 100
        },
        {
          "pitch": 56,
          "onset": 174.25,
          "duration": 0.125,
          "velocity": 100
        },
        {
          "pitch": 72,
          "onset": 174.25,
          "duration": 0.25,
          "velocity": 100
        },
        {
          "pitch": 76,
          "onset": 174.25,
          "duration": 0.25,
          "velocity": 100
        },
        {
          "pitch": 57,
          "onset": 174.375,
          "duration": 0.125,
          "velocity": 100
        },
        {
          "pitch": 59,
          "onset": 174.5,
          "duration": 0.125,
          "velocity": 100
        },
        {
          "pitch": 72,
          "onset": 174.5,
          "duration": 0.25,
          "velocity": 100
        },
        {
          "pitch": 76,
          "onset": 174.5,
          "duration": 0.25,
          "velocity": 100
        },
        {
          "pitch": 60,
          "onset": 174.625,
          "duration": 0.125,
          "velocity": 100
        },
        {
          "pitch": 62,
          "onset": 174.75,
          "duration": 0.125,
          "velocity": 100
        },
        {
          "pitch": 71,
          "onset": 174.75,
          "duration": 0.25,
          "velocity": 100
        },
        {
          "pitch": 74,
          "onset": 174.75,
          "duration": 0.25,
          "velocity": 100
        },
        {
          "pitch": 64,
          "onset": 174.875,
          "duration": 0.125,
          "velocity": 100
        },
        {
          "pitch": 66,
          "onset": 175.0,
          "duration": 0.125,
          "velocity": 100
        },
        {
          "pitch": 71,
          "onset": 175.0,
          "duration": 0.25,
          "velocity": 100
        },
        {
          "pitch": 74,
          "onset": 175.0,
          "duration": 0.25,
          "velocity": 100
        },
        {
          "pitch": 68,
          "onset": 175.125,
          "duration": 0.125,
          "velocity": 100
        },
        {
          "pitch": 69,
          "onset": 175.25,
          "duration": 0.125,
          "velocity": 100
        },
        {
          "pitch": 72,
          "onset": 175.25,
          "duration": 0.25,
          "velocity": 100
        },
        {
          "pitch": 71,
          "onset": 175.375,
          "duration": 0.125,
          "velocity": 100
        },
        {
          "pitch": 72,
          "onset": 175.5,
          "duration": 0.5,
          "velocity": 100
        },
        {
          "pitch": 72,
          "onset": 175.5,
          "duration": 0.25,
          "velocity": 100
        },
        {
          "pitch": 76,
          "onset": 175.625,
          "duration": 0.125,
          "velocity": 100
        },
        {
          "pitch": 69,
          "onset": 175.75,
          "duration": 0.25,
          "velocity": 100
        },
        {
          "pitch": 75,
          "onset": 175.75,
          "duration": 0.125,
          "velocity": 100
        },
        {
          "pitch": 76,
          "onset": 175.875,
          "duration": 0.125,
          "velocity": 100
        },
        {
          "pitch": 69,
          "onset": 176.0,
          "duration": 0.25,
          "velocity": 100
        },
        {
          "pitch": 78,
          "onset": 176.0,
          "duration": 0.125,
          "velocity": 100
        },
        {
          "pitch": 79,
          "onset": 176.125,
          "duration": 0.125,
          "velocity": 100
        },
        {
          "pitch": 67,
          "onset": 176.25,
          "duration": 0.25,
          "velocity": 100
        },
        {
          "pitch": 81,
          "onset": 176.25,
          "duration": 0.125,
          "velocity": 100
        },
        {
          "pitch": 83,
          "onset": 176.375,
          "duration": 0.125,
          "velocity": 100
        },
        {
          "pitch": 67,
          "onset": 176.5,
          "duration": 0.25,
          "velocity": 100
        },
        {
          "pitch": 84,
          "onset": 176.5,
          "duration": 0.625,
          "velocity": 100
        },
        {
          "pitch": 76,
          "onset": 176.625,
          "duration": 0.125,
          "velocity": 100
        },
        {
          "pitch": 66,
          "onset": 176.75,
          "duration": 0.25,
          "velocity": 100
        },
        {
          "pitch": 75,
          "onset": 176.75,
          "duration": 0.125,
          "velocity": 100
        },
        {
          "pitch": 76,
          "onset": 176.875,
          "duration": 0.125,
          "velocity": 100
        },
        {
          "pitch": 66,
          "onset": 177.0,
          "duration": 0.5,
          "velocity": 100
        },
        {
          "pitch": 75,
          "onset": 177.0,
          "duration": 0.5,
          "velocity": 100
        },
        {
          "pitch": 84,
          "onset": 177.125,
          "duration": 0.125,
          "velocity": 100
        },
        {
          "pitch": 82,
          "onset": 177.25,
          "duration": 0.125,
          "velocity": 100
        },
        {
          "pitch": 83,
          "onset": 177.375,
          "duration": 0.125,
          "velocity": 100
        },
        {
          "pitch": 64,
          "onset": 177.5,
          "duration": 0.5,
          "velocity": 100
        },
        {
          "pitch": 73,
          "onset": 177.5,
          "duration": 0.5,
          "velocity": 100
        },
        {
          "pitch": 83,
          "onset": 177.625,
          "duration": 0.125,
          "velocity": 100
        },
        {
          "pitch": 80,
          "onset": 177.75,
          "duration": 0.125,
          "velocity": 100
        },
        {
          "pitch": 81,
          "onset": 177.875,
          "duration": 0.125,
          "velocity": 100
        },
        {
          "pitch": 63,
          "onset": 178.0,
          "duration": 0.5,
          "velocity": 100
        },
        {
          "pitch": 73,
          "onset": 178.0,
          "duration": 0.5,
          "velocity": 100
        },
        {
          "pitch": 81,
          "onset": 178.125,
          "duration": 0.125,
          "velocity": 100
        },
        {
          "pitch": 78,
          "onset": 178.25,
          "duration": 0.125,
          "velocity": 100
        },
        {
          "pitch": 79,
          "onset": 178.375,
          "duration": 0.125,
          "velocity": 100
        },
        {
          "pitch": 64,
          "onset": 178.5,
          "duration": 0.5,
          "velocity": 100
        },
        {
          "pitch": 71,
          "onset": 178.5,
          "duration": 0.5,
          "velocity": 100
        },
        {
          "pitch": 76,
          "onset": 178.625,
          "duration": 0.125,
          "velocity": 100
        },
        {
          "pitch": 78,
          "onset": 178.75,
          "duration": 0.125,
          "velocity": 100
        },
        {
          "pitch": 79,
          "onset": 178.875,
          "duration": 0.125,
          "velocity": 100
        },
        {
          "pitch": 61,
          "onset": 179.0,
          "duration": 0.5,
          "velocity": 100
        },
        {
          "pitch": 70,
          "onset": 179.0,
          "duration": 0.5,
          "velocity": 100
        },
        {
          "pitch": 79,
          "onset": 179.125,
          "duration": 0.125,
          "velocity": 100
        },
        {
          "pitch": 78,
          "onset": 179.25,
          "duration": 0.125,
          "velocity": 100
        },
        {
          "pitch": 76,
          "onset": 179.375,
          "duration": 0.125,
          "velocity": 100
        },
        {
          "pitch": 63,
          "onset": 179.5,
          "duration": 0.5,
          "velocity": 100
        },
        {
          "pitch": 69,
          "onset": 179.5,
          "duration": 0.5,
          "velocity": 100
        },
        {
          "pitch": 76,
          "onset": 179.5,
          "duration": 0.25,
          "velocity": 100
        },
        {
          "pitch": 78,
          "onset": 179.75,
          "duration": 0.375,
          "velocity": 100
        },
        {
          "pitch": 64,
          "onset": 180.0,
          "duration": 0.5,
          "velocity": 100
        },
        {
          "pitch": 67,
          "onset": 180.0,
          "duration": 0.5,
          "velocity": 100
        },
        {
          "pitch": 81,
          "onset": 180.125,
          "duration": 0.125,
          "velocity": 100
        },
        {
          "pitch": 79,
          "onset": 180.25,
          "duration": 0.125,
          "velocity": 100
        },
        {
          "pitch": 78,
          "onset": 180.375,
          "duration": 0.125,
          "velocity": 100
        },
        {
          "pitch": 76,
          "onset": 180.5,
          "duration": 0.125,
          "velocity": 100
        },
        {
          "pitch": 75,
          "onset": 180.625,
          "duration": 0.125,
          "velocity": 100
        },
        {
          "pitch": 76,
          "onset": 180.75,
          "duration": 0.5,
          "velocity": 100
        },
        {
          "pitch": 60,
          "onset": 181.0,
          "duration": 0.5,
          "velocity": 100
        },
        {
          "pitch": 66,
          "onset": 181.0,
          "duration": 0.5,
          "velocity": 100
        },
        {
          "pitch": 69,
          "onset": 181.0,
          "duration": 0.5,
          "velocity": 100
        },
        {
          "pitch": 75,
          "onset": 181.25,
          "duration": 0.375,
          "velocity": 100
        },
        {
          "pitch": 59,
          "onset": 181.5,
          "duration": 0.5,
          "velocity": 100
        },
        {
          "pitch": 67,
          "onset": 181.5,
          "duration": 0.5,
          "velocity": 100
        },
        {
          "pitch": 71,
          "onset": 181.5,
          "duration": 0.5,
          "velocity": 100
        },
        {
          "pitch": 78,
          "onset": 181.625,
          "duration": 0.125,
          "velocity": 100
        },
        {
          "pitch": 76,
          "onset": 181.75,
          "duration": 0.125,
          "velocity": 100
        },
        {
          "pitch": 75,
          "onset": 181.875,
          "duration": 0.125,
          "velocity": 100
        },
        {
          "pitch": 76,
          "onset": 182.0,
          "duration": 0.25,
          "velocity": 100
        },
        {
          "pitch": 83,
          "onset": 182.25,
          "duration": 0.5,
          "velocity": 100
        },
        {
          "pitch": 59,
          "onset": 182.5,
          "duration": 0.5,
          "velocity": 100
        },
        {
          "pitch": 64,
          "onset": 182.5,
          "duration": 0.5,
          "velocity": 100
        },
        {
          "pitch": 68,
          "onset": 182.5,
          "duration": 0.5,
          "velocity": 100
        },
        {
          "pitch": 74,
          "onset": 182.75,
          "duration": 0.375,
          "velocity": 100
        },
        {
          "pitch": 57,
          "onset": 183.0,
          "duration": 0.5,
          "velocity": 100
        },
        {
          "pitch": 64,
          "onset": 183.0,
          "duration": 0.5,
          "velocity": 100
        },
        {
          "pitch": 69,
          "onset": 183.0,
          "duration": 0.5,
          "velocity": 100
        },
        {
          "pitch": 77,
          "onset": 183.125,
          "duration": 0.125,
          "velocity": 100
        },
        {
          "pitch": 76,
          "onset": 183.25,
          "duration": 0.125,
          "velocity": 100
        },
        {
          "pitch": 74,
          "onset": 183.375,
          "duration": 0.125,
          "velocity": 100
        },
        {
          "pitch": 76,
          "onset": 183.5,
          "duration": 0.125,
          "velocity": 100
        },
        {
          "pitch": 74,
          "onset": 183.625,
          "duration": 0.125,
          "velocity": 100
        },
        {
          "pitch": 72,
          "onset": 183.75,
          "duration": 0.125,
          "velocity": 100
        },
        {
          "pitch": 71,
          "onset": 183.875,
          "duration": 0.125,
          "velocity": 100
        },
        {
          "pitch": 57,
          "onset": 184.0,
          "duration": 0.5,
          "velocity": 100
        },
        {
          "pitch": 60,
          "onset": 184.0,
          "duration": 0.5,
          "velocity": 100
        },
        {
          "pitch": 66,
          "onset": 184.0,
          "duration": 0.5,
          "velocity": 100
        },
        {
          "pitch": 74,
          "onset": 184.0,
          "duration": 0.125,
          "velocity": 100
        },
        {
          "pitch": 72,
          "onset": 184.125,
          "duration": 0.125,
          "velocity": 100
        },
        {
          "pitch": 71,
          "onset": 184.25,
          "duration": 0.125,
          "velocity": 100
        },
        {
          "pitch": 69,
          "onset": 184.375,
          "duration": 0.125,
          "velocity": 100
        },
        {
          "pitch": 54,
          "onset": 184.5,
          "duration": 0.5,
          "velocity": 100
        },
        {
          "pitch": 57,
          "onset": 184.5,
          "duration": 0.5,
          "velocity": 100
        },
        {
          "pitch": 63,
          "onset": 184.5,
          "duration": 0.5,
          "velocity": 100
        },
        {
          "pitch": 81,
          "onset": 184.5,
          "duration": 0.125,
          "velocity": 100
        },
        {
          "pitch": 79,
          "onset": 184.625,
          "duration": 0.125,
          "velocity": 100
        },
        {
          "pitch": 78,
          "onset": 184.75,
          "duration": 0.125,
          "velocity": 100
        },
        {
          "pitch": 76,
          "onset": 184.875,
          "duration": 0.125,
          "velocity": 100
        },
        {
          "pitch": 75,
          "onset": 185.0,
          "duration": 0.25,
          "velocity": 100
        },
        {
          "pitch": 76,
          "onset": 185.25,
          "duration": 0.5,
          "velocity": 100
        },
        {
          "pitch": 54,
          "onset": 185.5,
          "duration": 0.5,
          "velocity": 100
        },
        {
          "pitch": 57,
          "onset": 185.5,
          "duration": 0.5,
          "velocity": 100
        },
        {
          "pitch": 60,
          "onset": 185.5,
          "duration": 0.5,
          "velocity": 100
        },
        {
          "pitch": 63,
          "onset": 185.5,
          "duration": 0.5,
          "velocity": 100
        },
        {
          "pitch": 78,
          "onset": 185.75,
          "duration": 0.25,
          "velocity": 100
        },
        {
          "pitch": 52,
          "onset": 186.0,
          "duration": 0.5,
          "velocity": 100
        },
        {
          "pitch": 55,
          "onset": 186.0,
          "duration": 0.5,
          "velocity": 100
        },
        {
          "pitch": 59,
          "onset": 186.0,
          "duration": 0.5,
          "velocity": 100
        },
        {
          "pitch": 64,
          "onset": 186.0,
          "duration": 0.5,
          "velocity": 100
        },
        {
          "pitch": 79,
          "onset": 186.0,
          "duration": 0.125,
          "velocity": 100
        },
        {
          "pitch": 74,
          "onset": 186.125,
          "duration": 0.125,
          "velocity": 100
        },
        {
          "pitch": 73,
          "onset": 186.25,
          "duration": 0.125,
          "velocity": 100
        },
        {
          "pitch": 71,
          "onset": 186.375,
          "duration": 0.125,
          "velocity": 100
        },
        {
          "pitch": 73,
          "onset": 186.5,
          "duration": 0.25,
          "velocity": 100
        },
        {
          "pitch": 76,
          "onset": 186.75,
          "duration": 0.25,
          "velocity": 100
        },
        {
          "pitch": 64,
          "onset": 187.0,
          "duration": 0.5,
          "velocity": 100
        },
        {
          "pitch": 67,
          "onset": 187.0,
          "duration": 0.5,
          "velocity": 100
        },
        {
          "pitch": 70,
          "onset": 187.0,
          "duration": 0.25,
          "velocity": 100
        },
        {
          "pitch": 71,
          "onset": 187.25,
          "duration": 0.375,
          "velocity": 100
        },
        {
          "pitch": 61,
          "onset": 187.5,
          "duration": 0.5,
          "velocity": 100
        },
        {
          "pitch": 66,
          "onset": 187.5,
          "duration": 0.5,
          "velocity": 100
        },
        {
          "pitch": 71,
          "onset": 187.625,
          "duration": 0.125,
          "velocity": 100
        },
        {
          "pitch": 70,
          "onset": 187.75,
          "duration": 0.125,
          "velocity": 100
        },
        {
          "pitch": 68,
          "onset": 187.875,
          "duration": 0.125,
          "velocity": 100
        },
        {
          "pitch": 70,
          "onset": 188.0,
          "duration": 0.25,
          "velocity": 100
        },
        {
          "pitch": 73,
          "onset": 188.25,
          "duration": 0.25,
          "velocity": 100
        },
        {
          "pitch": 55,
          "onset": 188.5,
          "duration": 0.5,
          "velocity": 100
        },
        {
          "pitch": 58,
          "onset": 188.5,
          "duration": 0.5,
          "velocity": 100
        },
        {
          "pitch": 63,
          "onset": 188.5,
          "duration": 0.25,
          "velocity": 100
        },
        {
          "pitch": 64,
          "onset": 188.75,
          "duration": 0.375,
          "velocity": 100
        },
        {
          "pitch": 54,
          "onset": 189.0,
          "duration": 0.5,
          "velocity": 100
        },
        {
          "pitch": 59,
          "onset": 189.0,
          "duration": 0.5,
          "velocity": 100
        },
        {
          "pitch": 64,
          "onset": 189.125,
          "duration": 0.125,
          "velocity": 100
        },
        {
          "pitch": 63,
          "onset": 189.25,
          "duration": 0.125,
          "velocity": 100
        },
        {
          "pitch": 61,
          "onset": 189.375,
          "duration": 0.125,
          "velocity": 100
        },
        {
          "pitch": 63,
          "onset": 189.5,
          "duration": 0.25,
          "velocity": 100
        },
        {
          "pitch": 66,
          "onset": 189.75,
          "duration": 0.25,
          "velocity": 100
        },
        {
          "pitch": 49,
          "onset": 190.0,
          "duration": 0.5,
          "velocity": 100
        },
        {
          "pitch": 52,
          "onset": 190.0,
          "duration": 1.0,
          "velocity": 100
        },
        {
          "pitch": 58,
          "onset": 190.0,
          "duration": 0.25,
          "velocity": 100
        },
        {
          "pitch": 59,
          "onset": 190.25,
          "duration": 1.25,
          "velocity": 100
        },
        {
          "pitch": 47,
          "onset": 190.5,
          "duration": 1.0,
          "velocity": 100
        },
        {
          "pitch": 67,
          "onset": 190.5,
          "duration": 0.5,
          "velocity": 100
        },
        {
          "pitch": 51,
          "onset": 191.0,
          "duration": 0.5,
          "velocity": 100
        },
        {
          "pitch": 66,
          "onset": 191.0,
          "duration": 0.5,
          "velocity": 100
        },
        {
          "pitch": 67,
          "onset": 192.125,
          "duration": 0.125,
          "velocity": 100
        },
        {
          "pitch": 76,
          "onset": 192.125,
          "duration": 0.125,
          "velocity": 100
        },
        {
          "pitch": 69,
          "onset": 192.25,
          "duration": 0.125,
          "velocity": 100
        },
        {
          "pitch": 78,
          "onset": 192.25,
          "duration": 0.125,
          "velocity": 100
        },
        {
          "pitch": 71,
          "onset": 192.375,
          "duration": 0.125,
          "velocity": 100
        },
        {
          "pitch": 79,
          "onset": 192.375,
          "duration": 0.125,
          "velocity": 100
        },
        {
          "pitch": 64,
          "onset": 192.5,
          "duration": 0.125,
          "velocity": 100
        },
        {
          "pitch": 72,
          "onset": 192.5,
          "duration": 0.125,
          "velocity": 100
        },
        {
          "pitch": 71,
          "onset": 192.625,
          "duration": 0.125,
          "velocity": 100
        },
        {
          "pitch": 79,
          "onset": 192.625,
          "duration": 0.125,
          "velocity": 100
        },
        {
          "pitch": 69,
          "onset": 192.75,
          "duration": 0.125,
          "velocity": 100
        },
        {
          "pitch": 78,
          "onset": 192.75,
          "duration": 0.125,
          "velocity": 100
        },
        {
          "pitch": 67,
          "onset": 192.875,
          "duration": 0.125,
          "velocity": 100
        },
        {
          "pitch": 76,
          "onset": 192.875,
          "duration": 0.125,
          "velocity": 100
        },
        {
          "pitch": 63,
          "onset": 193.0,
          "duration": 0.125,
          "velocity": 100
        },
        {
          "pitch": 71,
          "onset": 193.0,
          "duration": 0.125,
          "velocity": 100
        },
        {
          "pitch": 69,
          "onset": 193.125,
          "duration": 0.125,
          "velocity": 100
        },
        {
          "pitch": 78,
          "onset": 193.125,
          "duration": 0.125,
          "velocity": 100
        },
        {
          "pitch": 67,
          "onset": 193.25,
          "duration": 0.125,
          "velocity": 100
        },
        {
          "pitch": 76,
          "onset": 193.25,
          "duration": 0.125,
          "velocity": 100
        },
        {
          "pitch": 66,
          "onset": 193.375,
          "duration": 0.125,
          "velocity": 100
        },
        {
          "pitch": 75,
          "onset": 193.375,
          "duration": 0.125,
          "velocity": 100
        },
        {
          "pitch": 64,
          "onset": 193.5,
          "duration": 2.0,
          "velocity": 100
        },
        {
          "pitch": 76,
          "onset": 193.5,
          "duration": 0.125,
          "velocity": 100
        },
        {
          "pitch": 74,
          "onset": 193.625,
          "duration": 0.125,
          "velocity": 100
        },
        {
          "pitch": 72,
          "onset": 193.75,
          "duration": 0.125,
          "velocity": 100
        },
        {
          "pitch": 71,
          "onset": 193.875,
          "duration": 0.125,
          "velocity": 100
        },
        {
          "pitch": 69,
          "onset": 194.0,
          "duration": 0.125,
          "velocity": 100
        },
        {
          "pitch": 68,
          "onset": 194.125,
          "duration": 0.125,
          "velocity": 100
        },
        {
          "pitch": 69,
          "onset": 194.25,
          "duration": 0.125,
          "velocity": 100
        },
        {
          "pitch": 76,
          "onset": 194.375,
          "duration": 0.125,
          "velocity": 100
        },
        {
          "pitch": 68,
          "onset": 194.5,
          "duration": 0.125,
          "velocity": 100
        },
        {
          "pitch": 66,
          "onset": 194.625,
          "duration": 0.125,
          "velocity": 100
        },
        {
          "pitch": 68,
          "onset": 194.75,
          "duration": 0.125,
          "velocity": 100
        },
        {
          "pitch": 74,
          "onset": 194.875,
          "duration": 0.125,
          "velocity": 100
        },
        {
          "pitch": 72,
          "onset": 195.0,
          "duration": 0.125,
          "velocity": 100
        },
        {
          "pitch": 71,
          "onset": 195.125,
          "duration": 0.125,
          "velocity": 100
        },
        {
          "pitch": 69,
          "onset": 195.25,
          "duration": 0.125,
          "velocity": 100
        },
        {
          "pitch": 67,
          "onset": 195.375,
          "duration": 0.125,
          "velocity": 100
        },
        {
          "pitch": 60,
          "onset": 195.5,
          "duration": 0.5,
          "velocity": 100
        },
        {
          "pitch": 65,
          "onset": 195.5,
          "duration": 0.125,
          "velocity": 100
        },
        {
          "pitch": 64,
          "onset": 195.625,
          "duration": 0.125,
          "velocity": 100
        },
        {
          "pitch": 65,
          "onset": 195.75,
          "duration": 0.125,
          "velocity": 100
        },
        {
          "pitch": 72,
          "onset": 195.875,
          "duration": 0.125,
          "velocity": 100
        },
        {
          "pitch": 59,
          "onset": 196.0,
          "duration": 0.5,
          "velocity": 100
        },
        {
          "pitch": 64,
          "onset": 196.0,
          "duration": 0.125,
          "velocity": 100
        },
        {
          "pitch": 63,
          "onset": 196.125,
          "duration": 0.125,
          "velocity": 100
        },
        {
          "pitch": 64,
          "onset": 196.25,
          "duration": 0.125,
          "velocity": 100
        },
        {
          "pitch": 72,
          "onset": 196.375,
          "duration": 0.125,
          "velocity": 100
        },
        {
          "pitch": 57,
          "onset": 196.5,
          "duration": 0.625,
          "velocity": 100
        },
        {
          "pitch": 63,
          "onset": 196.5,
          "duration": 0.125,
          "velocity": 100
        },
        {
          "pitch": 64,
          "onset": 196.625,
          "duration": 0.125,
          "velocity": 100
        },
        {
          "pitch": 66,
          "onset": 196.75,
          "duration": 0.125,
          "velocity": 100
        },
        {
          "pitch": 67,
          "onset": 196.875,
          "duration": 0.125,
          "velocity": 100
        },
        {
          "pitch": 69,
          "onset": 197.0,
          "duration": 0.625,
          "velocity": 100
        },
        {
          "pitch": 60,
          "onset": 197.125,
          "duration": 0.125,
          "velocity": 100
        },
        {
          "pitch": 59,
          "onset": 197.25,
          "duration": 0.125,
          "velocity": 100
        },
        {
          "pitch": 57,
          "onset": 197.375,
          "duration": 0.125,
          "velocity": 100
        },
        {
          "pitch": 59,
          "onset": 197.5,
          "duration": 0.625,
          "velocity": 100
        },
        {
          "pitch": 69,
          "onset": 197.625,
          "duration": 0.125,
          "velocity": 100
        },
        {
          "pitch": 67,
          "onset": 197.75,
          "duration": 0.125,
          "velocity": 100
        },
        {
          "pitch": 66,
          "onset": 197.875,
          "duration": 0.125,
          "velocity": 100
        },
        {
          "pitch": 67,
          "onset": 198.0,
          "duration": 0.5,
          "velocity": 100
        },
        {
          "pitch": 60,
          "onset": 198.125,
          "duration": 0.125,
          "velocity": 100
        },
        {
          "pitch": 59,
          "onset": 198.25,
          "duration": 0.125,
          "velocity": 100
        },
        {
          "pitch": 57,
          "onset": 198.375,
          "duration": 0.125,
          "velocity": 100
        },
        {
          "pitch": 55,
          "onset": 198.5,
          "duration": 0.125,
          "velocity": 100
        },
        {
          "pitch": 72,
          "onset": 198.5,
          "duration": 0.5,
          "velocity": 100
        },
        {
          "pitch": 59,
          "onset": 198.625,
          "duration": 0.125,
          "velocity": 100
        },
        {
          "pitch": 57,
          "onset": 198.75,
          "duration": 0.125,
          "velocity": 100
        },
        {
          "pitch": 55,
          "onset": 198.875,
          "duration": 0.125,
          "velocity": 100
        },
        {
          "pitch": 54,
          "onset": 199.0,
          "duration": 0.125,
          "velocity": 100
        },
        {
          "pitch": 71,
          "onset": 199.0,
          "duration": 0.625,
          "velocity": 100
        },
        {
          "pitch": 57,
          "onset": 199.125,
          "duration": 0.125,
          "velocity": 100
        },
        {
          "pitch": 55,
          "onset": 199.25,
          "duration": 0.125,
          "velocity": 100
        },
        {
          "pitch": 54,
          "onset": 199.375,
          "duration": 0.125,
          "velocity": 100
        },
        {
          "pitch": 52,
          "onset": 199.5,
          "duration": 0.625,
          "velocity": 100
        },
        {
          "pitch": 69,
          "onset": 199.625,
          "duration": 0.125,
          "velocity": 100
        },
        {
          "pitch": 67,
          "onset": 199.75,
          "duration": 0.125,
          "velocity": 100
        },
        {
          "pitch": 69,
          "onset": 199.875,
          "duration": 0.125,
          "velocity": 100
        },
        {
          "pitch": 71,
          "onset": 200.0,
          "duration": 0.0625,
          "velocity": 100
        },
        {
          "pitch": 69,
          "onset": 200.0625,
          "duration": 0.0625,
          "velocity": 100
        },
        {
          "pitch": 51,
          "onset": 200.125,
          "duration": 0.125,
          "velocity": 100
        },
        {
          "pitch": 71,
          "onset": 200.125,
          "duration": 0.0625,
          "velocity": 100
        },
        {
          "pitch": 69,
          "onset": 200.1875,
          "duration": 0.0625,
          "velocity": 100
        },
        {
          "pitch": 52,
          "onset": 200.25,
          "duration": 0.125,
          "velocity": 100
        },
        {
          "pitch": 71,
          "onset": 200.25,
          "duration": 0.0625,
          "velocity": 100
        },
        {
          "pitch": 69,
          "onset": 200.3125,
          "duration": 0.0625,
          "velocity": 100
        },
        {
          "pitch": 55,
          "onset": 200.375,
          "duration": 0.125,
          "velocity": 100
        },
        {
          "pitch": 71,
          "onset": 200.375,
          "duration": 0.0625,
          "velocity": 100
        },
        {
          "pitch": 69,
          "onset": 200.4375,
          "duration": 0.0625,
          "velocity": 100
        },
        {
          "pitch": 54,
          "onset": 200.5,
          "duration": 0.125,
          "velocity": 100
        },
        {
          "pitch": 71,
          "onset": 200.5,
          "duration": 0.0625,
          "velocity": 100
        },
        {
          "pitch": 69,
          "onset": 200.5625,
          "duration": 0.0625,
          "velocity": 100
        },
        {
          "pitch": 52,
          "onset": 200.625,
          "duration": 0.125,
          "velocity": 100
        },
        {
          "pitch": 71,
          "onset": 200.625,
          "duration": 0.0625,
          "velocity": 100
        },
        {
          "pitch": 69,
          "onset": 200.6875,
          "duration": 0.0625,
          "velocity": 100
        },
        {
          "pitch": 51,
          "onset": 200.75,
          "duration": 0.125,
          "velocity": 100
        },
        {
          "pitch": 67,
          "onset": 200.75,
          "duration": 0.125,
          "velocity": 100
        },
        {
          "pitch": 52,
          "onset": 200.875,
          "duration": 0.125,
          "velocity": 100
        },
        {
          "pitch": 69,
          "onset": 200.875,
          "duration": 0.125,
          "velocity": 100
        },
        {
          "pitch": 64,
          "onset": 201.0,
          "duration": 2.0,
          "velocity": 100
        },
        {
          "pitch": 71,
          "onset": 201.0,
          "duration": 0.0625,
          "velocity": 100
        },
        {
          "pitch": 70,
          "onset": 201.0625,
          "duration": 0.0625,
          "velocity": 100
        },
        {
          "pitch": 71,
          "onset": 201.125,
          "duration": 0.0625,
          "velocity": 100
        },
        {
          "pitch": 70,
          "onset": 201.1875,
          "duration": 0.0625,
          "velocity": 100
        },
        {
          "pitch": 71,
          "onset": 201.25,
          "duration": 0.0625,
          "velocity": 100
        },
        {
          "pitch": 70,
          "onset": 201.3125,
          "duration": 0.0625,
          "velocity": 100
        },
        {
          "pitch": 71,
          "onset": 201.375,
          "duration": 0.0625,
          "velocity": 100
        },
        {
          "pitch": 70,
          "onset": 201.4375,
          "duration": 0.0625,
          "velocity": 100
        },
        {
          "pitch": 71,
          "onset": 201.5,
          "duration": 0.0625,
          "velocity": 100
        },
        {
          "pitch": 70,
          "onset": 201.5625,
          "duration": 0.0625,
          "velocity": 100
        },
        {
          "pitch": 71,
          "onset": 201.625,
          "duration": 0.0625,
          "velocity": 100
        },
        {
          "pitch": 70,
          "onset": 201.6875,
          "duration": 0.0625,
          "velocity": 100
        },
        {
          "pitch": 71,
          "onset": 201.75,
          "duration": 0.0625,
          "velocity": 100
        },
        {
          "pitch": 70,
          "onset": 201.8125,
          "duration": 0.0625,
          "velocity": 100
        },
        {
          "pitch": 71,
          "onset": 201.875,
          "duration": 0.0625,
          "velocity": 100
        },
        {
          "pitch": 70,
          "onset": 201.9375,
          "duration": 0.0625,
          "velocity": 100
        },
        {
          "pitch": 71,
          "onset": 202.0,
          "duration": 0.0625,
          "velocity": 100
        },
        {
          "pitch": 70,
          "onset": 202.0625,
          "duration": 0.0625,
          "velocity": 100
        },
        {
          "pitch": 71,
          "onset": 202.125,
          "duration": 0.0625,
          "velocity": 100
        },
        {
          "pitch": 70,
          "onset": 202.1875,
          "duration": 0.0625,
          "velocity": 100
        },
        {
          "pitch": 68,
          "onset": 202.25,
          "duration": 0.125,
          "velocity": 100
        },
        {
          "pitch": 70,
          "onset": 202.375,
          "duration": 0.125,
          "velocity": 100
        },
        {
          "pitch": 71,
          "onset": 202.5,
          "duration": 0.25,
          "velocity": 100
        },
        {
          "pitch": 76,
          "onset": 202.75,
          "duration": 0.5,
          "velocity": 100
        },
        {
          "pitch": 54,
          "onset": 203.0,
          "duration": 0.5,
          "velocity": 100
        },
        {
          "pitch": 60,
          "onset": 203.0,
          "duration": 0.5,
          "velocity": 100
        },
        {
          "pitch": 64,
          "onset": 203.0,
          "duration": 0.5,
          "velocity": 100
        },
        {
          "pitch": 74,
          "onset": 203.25,
          "duration": 0.125,
          "velocity": 100
        },
        {
          "pitch": 72,
          "onset": 203.375,
          "duration": 0.125,
          "velocity": 100
        },
        {
          "pitch": 54,
          "onset": 203.5,
          "duration": 0.5,
          "velocity": 100
        },
        {
          "pitch": 57,
          "onset": 203.5,
          "duration": 0.5,
          "velocity": 100
        },
        {
          "pitch": 63,
          "onset": 203.5,
          "duration": 0.5,
          "velocity": 100
        },
        {
          "pitch": 71,
          "onset": 203.5,
          "duration": 0.125,
          "velocity": 100
        },
        {
          "pitch": 69,
          "onset": 203.625,
          "duration": 0.125,
          "velocity": 100
        },
        {
          "pitch": 67,
          "onset": 203.75,
          "duration": 0.125,
          "velocity": 100
        },
        {
          "pitch": 66,
          "onset": 203.875,
          "duration": 0.125,
          "velocity": 100
        },
        {
          "pitch": 55,
          "onset": 204.0,
          "duration": 0.125,
          "velocity": 100
        },
        {
          "pitch": 59,
          "onset": 204.0,
          "duration": 0.5,
          "velocity": 100
        },
        {
          "pitch": 64,
          "onset": 204.0,
          "duration": 0.25,
          "velocity": 100
        },
        {
          "pitch": 76,
          "onset": 204.25,
          "duration": 0.25,
          "velocity": 100
        },
        {
          "pitch": 79,
          "onset": 204.25,
          "duration": 0.25,
          "velocity": 100
        },
        {
          "pitch": 76,
          "onset": 204.5,
          "duration": 0.25,
          "velocity": 100
        },
        {
          "pitch": 79,
          "onset": 204.5,
          "duration": 0.25,
          "velocity": 100
        },
        {
          "pitch": 55,
          "onset": 204.625,
          "duration": 0.125,
          "velocity": 100
        },
        {
          "pitch": 57,
          "onset": 204.75,
          "duration": 0.125,
          "velocity": 100
        },
        {
          "pitch": 74,
          "onset": 204.75,
          "duration": 0.25,
          "velocity": 100
        },
        {
          "pitch": 78,
          "onset": 204.75,
          "duration": 0.25,
          "velocity": 100
        },
        {
          "pitch": 59,
          "onset": 204.875,
          "duration": 0.125,
          "velocity": 100
        },
        {
          "pitch": 61,
          "onset": 205.0,
          "duration": 0.125,
          "velocity": 100
        },
        {
          "pitch": 74,
          "onset": 205.0,
          "duration": 0.25,
          "velocity": 100
        },
        {
          "pitch": 78,
          "onset": 205.0,
          "duration": 0.25,
          "velocity": 100
        },
        {
          "pitch": 62,
          "onset": 205.125,
          "duration": 0.125,
          "velocity": 100
        },
        {
          "pitch": 64,
          "onset": 205.25,
          "duration": 0.125,
          "velocity": 100
        },
        {
          "pitch": 73,
          "onset": 205.25,
          "duration": 0.25,
          "velocity": 100
        },
        {
          "pitch": 76,
          "onset": 205.25,
          "duration": 0.25,
          "velocity": 100
        },
        {
          "pitch": 66,
          "onset": 205.375,
          "duration": 0.125,
          "velocity": 100
        },
        {
          "pitch": 67,
          "onset": 205.5,
          "duration": 0.125,
          "velocity": 100
        },
        {
          "pitch": 73,
          "onset": 205.5,
          "duration": 0.5,
          "velocity": 100
        },
        {
          "pitch": 76,
          "onset": 205.5,
          "duration": 0.5,
          "velocity": 100
        },
        {
          "pitch": 69,
          "onset": 205.625,
          "duration": 0.125,
          "velocity": 100
        },
        {
          "pitch": 67,
          "onset": 205.75,
          "duration": 0.125,
          "velocity": 100
        },
        {
          "pitch": 66,
          "onset": 205.875,
          "duration": 0.125,
          "velocity": 100
        },
        {
          "pitch": 64,
          "onset": 206.0,
          "duration": 0.125,
          "velocity": 100
        },
        {
          "pitch": 73,
          "onset": 206.0,
          "duration": 0.5,
          "velocity": 100
        },
        {
          "pitch": 79,
          "onset": 206.0,
          "duration": 0.5,
          "velocity": 100
        },
        {
          "pitch": 62,
          "onset": 206.125,
          "duration": 0.125,
          "velocity": 100
        },
        {
          "pitch": 61,
          "onset": 206.25,
          "duration": 0.125,
          "velocity": 100
        },
        {
          "pitch": 59,
          "onset": 206.375,
          "duration": 0.125,
          "velocity": 100
        },
        {
          "pitch": 57,
          "onset": 206.5,
          "duration": 0.125,
          "velocity": 100
        },
        {
          "pitch": 55,
          "onset": 206.625,
          "duration": 0.125,
          "velocity": 100
        },
        {
          "pitch": 54,
          "onset": 206.75,
          "duration": 0.125,
          "velocity": 100
        },
        {
          "pitch": 52,
          "onset": 206.875,
          "duration": 0.125,
          "velocity": 100
        },
        {
          "pitch": 50,
          "onset": 207.0,
          "duration": 0.125,
          "velocity": 100
        },
        {
          "pitch": 74,
          "onset": 207.25,
          "duration": 0.25,
          "velocity": 100
        },
        {
          "pitch": 78,
          "onset": 207.25,
          "duration": 0.25,
          "velocity": 100
        },
        {
          "pitch": 74,
          "onset": 207.5,
          "duration": 0.25,
          "velocity": 100
        },
        {
          "pitch": 78,
          "onset": 207.5,
          "duration": 0.25,
          "velocity": 100
        },
        {
          "pitch": 54,
          "onset": 207.625,
          "duration": 0.125,
          "velocity": 100
        },
        {
          "pitch": 55,
          "onset": 207.75,
          "duration": 0.125,
          "velocity": 100
        },
        {
          "pitch": 73,
          "onset": 207.75,
          "duration": 0.25,
          "velocity": 100
        },
        {
          "pitch": 76,
          "onset": 207.75,
          "duration": 0.25,
          "velocity": 100
        },
        {
          "pitch": 57,
          "onset": 207.875,
          "duration": 0.125,
          "velocity": 100
        },
        {
          "pitch": 59,
          "onset": 208.0,
          "duration": 0.125,
          "velocity": 100
        },
        {
          "pitch": 73,
          "onset": 208.0,
          "duration": 0.25,
          "velocity": 100
        },
        {
          "pitch": 76,
          "onset": 208.0,
          "duration": 0.25,
          "velocity": 100
        },
        {
          "pitch": 61,
          "onset": 208.125,
          "duration": 0.125,
          "velocity": 100
        },
        {
          "pitch": 62,
          "onset": 208.25,
          "duration": 0.125,
          "velocity": 100
        },
        {
          "pitch": 71,
          "onset": 208.25,
          "duration": 0.25,
          "velocity": 100
        },
        {
          "pitch": 74,
          "onset": 208.25,
          "duration": 0.25,
          "velocity": 100
        },
        {
          "pitch": 64,
          "onset": 208.375,
          "duration": 0.125,
          "velocity": 100
        },
        {
          "pitch": 66,
          "onset": 208.5,
          "duration": 0.125,
          "velocity": 100
        },
        {
          "pitch": 71,
          "onset": 208.5,
          "duration": 0.5,
          "velocity": 100
        },
        {
          "pitch": 74,
          "onset": 208.5,
          "duration": 0.5,
          "velocity": 100
        },
        {
          "pitch": 67,
          "onset": 208.625,
          "duration": 0.125,
          "velocity": 100
        },
        {
          "pitch": 66,
          "onset": 208.75,
          "duration": 0.125,
          "velocity": 100
        },
        {
          "pitch": 64,
          "onset": 208.875,
          "duration": 0.125,
          "velocity": 100
        },
        {
          "pitch": 62,
          "onset": 209.0,
          "duration": 0.125,
          "velocity": 100
        },
        {
          "pitch": 71,
          "onset": 209.0,
          "duration": 0.5,
          "velocity": 100
        },
        {
          "pitch": 78,
          "onset": 209.0,
          "duration": 0.5,
          "velocity": 100
        },
        {
          "pitch": 61,
          "onset": 209.125,
          "duration": 0.125,
          "velocity": 100
        },
        {
          "pitch": 59,
          "onset": 209.25,
          "duration": 0.125,
          "velocity": 100
        },
        {
          "pitch": 57,
          "onset": 209.375,
          "duration": 0.125,
          "velocity": 100
        },
        {
          "pitch": 55,
          "onset": 209.5,
          "duration": 0.125,
          "velocity": 100
        },
        {
          "pitch": 54,
          "onset": 209.625,
          "duration": 0.125,
          "velocity": 100
        },
        {
          "pitch": 52,
          "onset": 209.75,
          "duration": 0.125,
          "velocity": 100
        },
        {
          "pitch": 50,
          "onset": 209.875,
          "duration": 0.125,
          "velocity": 100
        },
        {
          "pitch": 49,
          "onset": 210.0,
          "duration": 0.5,
          "velocity": 100
        },
        {
          "pitch": 76,
          "onset": 210.125,
          "duration": 0.125,
          "velocity": 100
        },
        {
          "pitch": 73,
          "onset": 210.25,
          "duration": 0.125,
          "velocity": 100
        },
        {
          "pitch": 70,
          "onset": 210.375,
          "duration": 0.125,
          "velocity": 100
        },
        {
          "pitch": 67,
          "onset": 210.5,
          "duration": 0.125,
          "velocity": 100
        },
        {
          "pitch": 66,
          "onset": 210.625,
          "duration": 0.125,
          "velocity": 100
        },
        {
          "pitch": 64,
          "onset": 210.75,
          "duration": 0.125,
          "velocity": 100
        },
        {
          "pitch": 62,
          "onset": 210.875,
          "duration": 0.125,
          "velocity": 100
        },
        {
          "pitch": 61,
          "onset": 211.0,
          "duration": 0.125,
          "velocity": 100
        },
        {
          "pitch": 59,
          "onset": 211.125,
          "duration": 0.125,
          "velocity": 100
        },
        {
          "pitch": 58,
          "onset": 211.25,
          "duration": 0.125,
          "velocity": 100
        },
        {
          "pitch": 56,
          "onset": 211.375,
          "duration": 0.125,
          "velocity": 100
        },
        {
          "pitch": 54,
          "onset": 211.5,
          "duration": 0.5,
          "velocity": 100
        },
        {
          "pitch": 76,
          "onset": 211.625,
          "duration": 0.125,
          "velocity": 100
        },
        {
          "pitch": 73,
          "onset": 211.75,
          "duration": 0.125,
          "velocity": 100
        },
        {
          "pitch": 70,
          "onset": 211.875,
          "duration": 0.125,
          "velocity": 100
        },
        {
          "pitch": 66,
          "onset": 212.0,
          "duration": 0.125,
          "velocity": 100
        },
        {
          "pitch": 62,
          "onset": 212.125,
          "duration": 0.125,
          "velocity": 100
        },
        {
          "pitch": 61,
          "onset": 212.25,
          "duration": 0.125,
          "velocity": 100
        },
        {
          "pitch": 59,
          "onset": 212.375,
          "duration": 0.125,
          "velocity": 100
        },
        {
          "pitch": 58,
          "onset": 212.5,
          "duration": 0.5,
          "velocity": 100
        },
        {
          "pitch": 67,
          "onset": 212.625,
          "duration": 0.125,
          "velocity": 100
        },
        {
          "pitch": 66,
          "onset": 212.75,
          "duration": 0.125,
          "velocity": 100
        },
        {
          "pitch": 64,
          "onset": 212.875,
          "duration": 0.125,
          "velocity": 100
        },
        {
          "pitch": 62,
          "onset": 213.0,
          "duration": 0.25,
          "velocity": 100
        },
        {
          "pitch": 59,
          "onset": 213.125,
          "duration": 0.125,
          "velocity": 100
        },
        {
          "pitch": 61,
          "onset": 213.25,
          "duration": 0.125,
          "velocity": 100
        },
        {
          "pitch": 62,
          "onset": 213.375,
          "duration": 0.125,
          "velocity": 100
        },
        {
          "pitch": 64,
          "onset": 213.5,
          "duration": 0.125,
          "velocity": 100
        },
        {
          "pitch": 66,
          "onset": 213.625,
          "duration": 0.125,
          "velocity": 100
        },
        {
          "pitch": 68,
          "onset": 213.75,
          "duration": 0.125,
          "velocity": 100
        },
        {
          "pitch": 70,
          "onset": 213.875,
          "duration": 0.125,
          "velocity": 100
        },
        {
          "pitch": 71,
          "onset": 214.0,
          "duration": 0.5,
          "velocity": 100
        },
        {
          "pitch": 66,
          "onset": 214.125,
          "duration": 0.125,
          "velocity": 100
        },
        {
          "pitch": 68,
          "onset": 214.25,
          "duration": 0.125,
          "velocity": 100
        },
        {
          "pitch": 70,
          "onset": 214.375,
          "duration": 0.125,
          "velocity": 100
        },
        {
          "pitch": 71,
          "onset": 214.5,
          "duration": 0.125,
          "velocity": 100
        },
        {
          "pitch": 73,
          "onset": 214.625,
          "duration": 0.125,
          "velocity": 100
        },
        {
          "pitch": 74,
          "onset": 214.75,
          "duration": 0.125,
          "velocity": 100
        },
        {
          "pitch": 76,
          "onset": 214.875,
          "duration": 0.125,
          "velocity": 100
        },
        {
          "pitch": 78,
          "onset": 215.0,
          "duration": 0.125,
          "velocity": 100
        },
        {
          "pitch": 71,
          "onset": 215.125,
          "duration": 0.125,
          "velocity": 100
        },
        {
          "pitch": 73,
          "onset": 215.25,
          "duration": 0.125,
          "velocity": 100
        },
        {
          "pitch": 74,
          "onset": 215.375,
          "duration": 0.125,
          "velocity": 100
        },
        {
          "pitch": 76,
          "onset": 215.5,
          "duration": 0.125,
          "velocity": 100
        },
        {
          "pitch": 79,
          "onset": 215.625,
          "duration": 0.125,
          "velocity": 100
        },
        {
          "pitch": 78,
          "onset": 215.75,
          "duration": 0.125,
          "velocity": 100
        },
        {
          "pitch": 76,
          "onset": 215.875,
          "duration": 0.125,
          "velocity": 100
        },
        {
          "pitch": 82,
          "onset": 216.0,
          "duration": 0.5,
          "velocity": 100
        },
        {
          "pitch": 66,
          "onset": 216.25,
          "duration": 0.125,
          "velocity": 100
        },
        {
          "pitch": 68,
          "onset": 216.375,
          "duration": 0.125,
          "velocity": 100
        },
        {
          "pitch": 70,
          "onset": 216.5,
          "duration": 0.25,
          "velocity": 100
        },
        {
          "pitch": 78,
          "onset": 216.5,
          "duration": 0.5,
          "velocity": 100
        },
        {
          "pitch": 71,
          "onset": 216.75,
          "duration": 0.25,
          "velocity": 100
        },
        {
          "pitch": 73,
          "onset": 217.0,
          "duration": 0.25,
          "velocity": 100
        },
        {
          "pitch": 83,
          "onset": 217.0,
          "duration": 0.5,
          "velocity": 100
        },
        {
          "pitch": 74,
          "onset": 217.25,
          "duration": 0.25,
          "velocity": 100
        },
        {
          "pitch": 65,
          "onset": 217.5,
          "duration": 0.25,
          "velocity": 100
        },
        {
          "pitch": 80,
          "onset": 217.5,
          "duration": 0.5,
          "velocity": 100
        },
        {
          "pitch": 71,
          "onset": 217.75,
          "duration": 0.5,
          "velocity": 100
        },
        {
          "pitch": 77,
          "onset": 218.0,
          "duration": 0.5,
          "velocity": 100
        },
        {
          "pitch": 73,
          "onset": 218.25,
          "duration": 0.125,
          "velocity": 100
        },
        {
          "pitch": 74,
          "onset": 218.375,
          "duration": 0.125,
          "velocity": 100
        },
        {
          "pitch": 73,
          "onset": 218.5,
          "duration": 0.125,
          "velocity": 100
        },
        {
          "pitch": 71,
          "onset": 218.625,
          "duration": 0.125,
          "velocity": 100
        },
        {
          "pitch": 70,
          "onset": 218.75,
          "duration": 0.125,
          "velocity": 100
        },
        {
          "pitch": 68,
          "onset": 218.875,
          "duration": 0.125,
          "velocity": 100
        },
        {
          "pitch": 70,
          "onset": 219.0,
          "duration": 0.5,
          "velocity": 100
        },
        {
          "pitch": 78,
          "onset": 219.25,
          "duration": 0.125,
          "velocity": 100
        },
        {
          "pitch": 76,
          "onset": 219.375,
          "duration": 0.125,
          "velocity": 100
        },
        {
          "pitch": 71,
          "onset": 219.5,
          "duration": 0.5,
          "velocity": 100
        },
        {
          "pitch": 74,
          "onset": 219.5,
          "duration": 0.25,
          "velocity": 100
        },
        {
          "pitch": 73,
          "onset": 219.75,
          "duration": 0.25,
          "velocity": 100
        },
        {
          "pitch": 62,
          "onset": 220.0,
          "duration": 0.5,
          "velocity": 100
        },
        {
          "pitch": 71,
          "onset": 220.0,
          "duration": 0.25,
          "velocity": 100
        },
        {
          "pitch": 70,
          "onset": 220.25,
          "duration": 0.25,
          "velocity": 100
        },
        {
          "pitch": 67,
          "onset": 220.5,
          "duration": 0.5,
          "velocity": 100
        },
        {
          "pitch": 76,
          "onset": 220.5,
          "duration": 0.25,
          "velocity": 100
        },
        {
          "pitch": 70,
          "onset": 220.75,
          "duration": 0.5,
          "velocity": 100
        },
        {
          "pitch": 61,
          "onset": 221.0,
          "duration": 0.5,
          "velocity": 100
        },
        {
          "pitch": 68,
          "onset": 221.25,
          "duration": 0.125,
          "velocity": 100
        },
        {
          "pitch": 66,
          "onset": 221.375,
          "duration": 0.125,
          "velocity": 100
        },
        {
          "pitch": 58,
          "onset": 221.5,
          "duration": 0.5,
          "velocity": 100
        },
        {
          "pitch": 68,
          "onset": 221.5,
          "duration": 0.125,
          "velocity": 100
        },
        {
          "pitch": 70,
          "onset": 221.625,
          "duration": 0.125,
          "velocity": 100
        },
        {
          "pitch": 71,
          "onset": 221.75,
          "duration": 0.125,
          "velocity": 100
        },
        {
          "pitch": 73,
          "onset": 221.875,
          "duration": 0.125,
          "velocity": 100
        },
        {
          "pitch": 59,
          "onset": 222.0,
          "duration": 0.5,
          "velocity": 100
        },
        {
          "pitch": 74,
          "onset": 222.0,
          "duration": 0.5,
          "velocity": 100
        },
        {
          "pitch": 47,
          "onset": 222.25,
          "duration": 0.125,
          "velocity": 100
        },
        {
          "pitch": 49,
          "onset": 222.375,
          "duration": 0.125,
          "velocity": 100
        },
        {
          "pitch": 50,
          "onset": 222.5,
          "duration": 0.25,
          "velocity": 100
        },
        {
          "pitch": 64,
          "onset": 222.5,
          "duration": 0.5,
          "velocity": 100
        },
        {
          "pitch": 73,
          "onset": 222.5,
          "duration": 0.5,
          "velocity": 100
        },
        {
          "pitch": 52,
          "onset": 222.75,
          "duration": 0.25,
          "velocity": 100
        },
        {
          "pitch": 54,
          "onset": 223.0,
          "duration": 0.25,
          "velocity": 100
        },
        {
          "pitch": 62,
          "onset": 223.0,
          "duration": 0.5,
          "velocity": 100
        },
        {
          "pitch": 71,
          "onset": 223.0,
          "duration": 0.5,
          "velocity": 100
        },
        {
          "pitch": 55,
          "onset": 223.25,
          "duration": 0.25,
          "velocity": 100
        },
        {
          "pitch": 46,
          "onset": 223.5,
          "duration": 0.25,
          "velocity": 100
        },
        {
          "pitch": 64,
          "onset": 223.5,
          "duration": 0.5,
          "velocity": 100
        },
        {
          "pitch": 73,
          "onset": 223.5,
          "duration": 0.5,
          "velocity": 100
        },
        {
          "pitch": 52,
          "onset": 223.75,
          "duration": 0.5,
          "velocity": 100
        },
        {
          "pitch": 61,
          "onset": 224.0,
          "duration": 0.5,
          "velocity": 100
        },
        {
          "pitch": 70,
          "onset": 224.0,
          "duration": 0.5,
          "velocity": 100
        },
        {
          "pitch": 54,
          "onset": 224.25,
          "duration": 0.125,
          "velocity": 100
        },
        {
          "pitch": 55,
          "onset": 224.375,
          "duration": 0.125,
          "velocity": 100
        },
        {
          "pitch": 54,
          "onset": 224.5,
          "duration": 0.125,
          "velocity": 100
        },
        {
          "pitch": 52,
          "onset": 224.625,
          "duration": 0.125,
          "velocity": 100
        },
        {
          "pitch": 50,
          "onset": 224.75,
          "duration": 0.125,
          "velocity": 100
        },
        {
          "pitch": 49,
          "onset": 224.875,
          "duration": 0.125,
          "velocity": 100
        },
        {
          "pitch": 50,
          "onset": 225.0,
          "duration": 0.5,
          "velocity": 100
        },
        {
          "pitch": 54,
          "onset": 225.0,
          "duration": 0.5,
          "velocity": 100
        },
        {
          "pitch": 71,
          "onset": 225.25,
          "duration": 0.125,
          "velocity": 100
        },
        {
          "pitch": 69,
          "onset": 225.375,
          "duration": 0.125,
          "velocity": 100
        },
        {
          "pitch": 47,
          "onset": 225.5,
          "duration": 0.5,
          "velocity": 100
        },
        {
          "pitch": 51,
          "onset": 225.5,
          "duration": 0.5,
          "velocity": 100
        },
        {
          "pitch": 67,
          "onset": 225.5,
          "duration": 0.25,
          "velocity": 100
        },
        {
          "pitch": 66,
          "onset": 225.75,
          "duration": 0.25,
          "velocity": 100
        },
        {
          "pitch": 48,
          "onset": 226.0,
          "duration": 0.5,
          "velocity": 100
        },
        {
          "pitch": 57,
          "onset": 226.0,
          "duration": 0.5,
          "velocity": 100
        },
        {
          "pitch": 64,
          "onset": 226.0,
          "duration": 0.25,
          "velocity": 100
        },
        {
          "pitch": 63,
          "onset": 226.25,
          "duration": 0.25,
          "velocity": 100
        },
        {
          "pitch": 42,
          "onset": 226.5,
          "duration": 0.5,
          "velocity": 100
        },
        {
          "pitch": 51,
          "onset": 226.5,
          "duration": 0.5,
          "velocity": 100
        },
        {
          "pitch": 72,
          "onset": 226.5,
          "duration": 0.25,
          "velocity": 100
        },
        {
          "pitch": 63,
          "onset": 226.75,
          "duration": 0.5,
          "velocity": 100
        },
        {
          "pitch": 47,
          "onset": 227.0,
          "duration": 0.5,
          "velocity": 100
        },
        {
          "pitch": 54,
          "onset": 227.0,
          "duration": 0.5,
          "velocity": 100
        },
        {
          "pitch": 61,
          "onset": 227.25,
          "duration": 0.125,
          "velocity": 100
        },
        {
          "pitch": 59,
          "onset": 227.375,
          "duration": 0.125,
          "velocity": 100
        },
        {
          "pitch": 61,
          "onset": 227.5,
          "duration": 0.125,
          "velocity": 100
        },
        {
          "pitch": 63,
          "onset": 227.625,
          "duration": 0.125,
          "velocity": 100
        },
        {
          "pitch": 64,
          "onset": 227.75,
          "duration": 0.125,
          "velocity": 100
        },
        {
          "pitch": 66,
          "onset": 227.875,
          "duration": 0.125,
          "velocity": 100
        },
        {
          "pitch": 52,
          "onset": 228.0,
          "duration": 0.5,
          "velocity": 100
        },
        {
          "pitch": 67,
          "onset": 228.0,
          "duration": 0.5,
          "velocity": 100
        },
        {
          "pitch": 54,
          "onset": 228.125,
          "duration": 0.125,
          "velocity": 100
        },
        {
          "pitch": 55,
          "onset": 228.25,
          "duration": 0.5,
          "velocity": 100
        },
        {
          "pitch": 61,
          "onset": 228.5,
          "duration": 0.5,
          "velocity": 100
        },
        {
          "pitch": 64,
          "onset": 228.5,
          "duration": 0.5,
          "velocity": 100
        },
        {
          "pitch": 57,
          "onset": 228.75,
          "duration": 0.125,
          "velocity": 100
        },
        {
          "pitch": 59,
          "onset": 228.875,
          "duration": 0.125,
          "velocity": 100
        },
        {
          "pitch": 57,
          "onset": 229.0,
          "duration": 0.125,
          "velocity": 100
        },
        {
          "pitch": 55,
          "onset": 229.125,
          "duration": 0.125,
          "velocity": 100
        },
        {
          "pitch": 54,
          "onset": 229.25,
          "duration": 0.125,
          "velocity": 100
        },
        {
          "pitch": 52,
          "onset": 229.375,
          "duration": 0.125,
          "velocity": 100
        },
        {
          "pitch": 50,
          "onset": 229.5,
          "duration": 0.125,
          "velocity": 100
        },
        {
          "pitch": 61,
          "onset": 229.5,
          "duration": 0.5,
          "velocity": 100
        },
        {
          "pitch": 66,
          "onset": 229.5,
          "duration": 0.5,
          "velocity": 100
        },
        {
          "pitch": 52,
          "onset": 229.625,
          "duration": 0.125,
          "velocity": 100
        },
        {
          "pitch": 54,
          "onset": 229.75,
          "duration": 0.5,
          "velocity": 100
        },
        {
          "pitch": 59,
          "onset": 230.0,
          "duration": 0.5,
          "velocity": 100
        },
        {
          "pitch": 62,
          "onset": 230.0,
          "duration": 0.5,
          "velocity": 100
        },
        {
          "pitch": 55,
          "onset": 230.25,
          "duration": 0.125,
          "velocity": 100
        },
        {
          "pitch": 57,
          "onset": 230.375,
          "duration": 0.125,
          "velocity": 100
        },
        {
          "pitch": 55,
          "onset": 230.5,
          "duration": 0.125,
          "velocity": 100
        },
        {
          "pitch": 54,
          "onset": 230.625,
          "duration": 0.125,
          "velocity": 100
        },
        {
          "pitch": 52,
          "onset": 230.75,
          "duration": 0.125,
          "velocity": 100
        },
        {
          "pitch": 50,
          "onset": 230.875,
          "duration": 0.125,
          "velocity": 100
        },
        {
          "pitch": 49,
          "onset": 231.0,
          "duration": 0.125,
          "velocity": 100
        },
        {
          "pitch": 59,
          "onset": 231.0,
          "duration": 0.5,
          "velocity": 100
        },
        {
          "pitch": 64,
          "onset": 231.0,
          "duration": 0.5,
          "velocity": 100
        },
        {
          "pitch": 50,
          "onset": 231.125,
          "duration": 0.125,
          "velocity": 100
        },
        {
          "pitch": 52,
          "onset": 231.25,
          "duration": 0.5,
          "velocity": 100
        },
        {
          "pitch": 58,
          "onset": 231.5,
          "duration": 0.5,
          "velocity": 100
        },
        {
          "pitch": 61,
          "onset": 231.5,
          "duration": 0.5,
          "velocity": 100
        },
        {
          "pitch": 54,
          "onset": 231.75,
          "duration": 0.125,
          "velocity": 100
        },
        {
          "pitch": 55,
          "onset": 231.875,
          "duration": 0.125,
          "velocity": 100
        },
        {
          "pitch": 54,
          "onset": 232.0,
          "duration": 0.125,
          "velocity": 100
        },
        {
          "pitch": 52,
          "onset": 232.125,
          "duration": 0.125,
          "velocity": 100
        },
        {
          "pitch": 50,
          "onset": 232.25,
          "duration": 0.125,
          "velocity": 100
        },
        {
          "pitch": 49,
          "onset": 232.375,
          "duration": 0.125,
          "velocity": 100
        },
        {
          "pitch": 47,
          "onset": 232.5,
          "duration": 0.5,
          "velocity": 100
        },
        {
          "pitch": 62,
          "onset": 232.5,
          "duration": 0.5,
          "velocity": 100
        },
        {
          "pitch": 66,
          "onset": 232.625,
          "duration": 0.125,
          "velocity": 100
        },
        {
          "pitch": 65,
          "onset": 232.75,
          "duration": 0.125,
          "velocity": 100
        },
        {
          "pitch": 66,
          "onset": 232.875,
          "duration": 0.125,
          "velocity": 100
        },
        {
          "pitch": 50,
          "onset": 233.0,
          "duration": 0.5,
          "velocity": 100
        },
        {
          "pitch": 54,
          "onset": 233.0,
          "duration": 0.5,
          "velocity": 100
        },
        {
          "pitch": 71,
          "onset": 233.0,
          "duration": 0.125,
          "velocity": 100
        },
        {
          "pitch": 66,
          "onset": 233.125,
          "duration": 0.125,
          "velocity": 100
        },
        {
          "pitch": 65,
          "onset": 233.25,
          "duration": 0.125,
          "velocity": 100
        },
        {
          "pitch": 66,
          "onset": 233.375,
          "duration": 0.125,
          "velocity": 100
        },
        {
          "pitch": 54,
          "onset": 233.5,
          "duration": 0.5,
          "velocity": 100
        },
        {
          "pitch": 58,
          "onset": 233.5,
          "duration": 0.5,
          "velocity": 100
        },
        {
          "pitch": 73,
          "onset": 233.5,
          "duration": 0.125,
          "velocity": 100
        },
        {
          "pitch": 66,
          "onset": 233.625,
          "duration": 0.125,
          "velocity": 100
        },
        {
          "pitch": 65,
          "onset": 233.75,
          "duration": 0.125,
          "velocity": 100
        },
        {
          "pitch": 66,
          "onset": 233.875,
          "duration": 0.125,
          "velocity": 100
        },
        {
          "pitch": 59,
          "onset": 234.0,
          "duration": 0.5,
          "velocity": 100
        },
        {
          "pitch": 74,
          "onset": 234.0,
          "duration": 1.625,
          "velocity": 100
        },
        {
          "pitch": 73,
          "onset": 234.125,
          "duration": 0.125,
          "velocity": 100
        },
        {
          "pitch": 71,
          "onset": 234.25,
          "duration": 0.125,
          "velocity": 100
        },
        {
          "pitch": 70,
          "onset": 234.375,
          "duration": 0.125,
          "velocity": 100
        },
        {
          "pitch": 71,
          "onset": 234.5,
          "duration": 1.0,
          "velocity": 100
        },
        {
          "pitch": 67,
          "onset": 234.625,
          "duration": 0.125,
          "velocity": 100
        },
        {
          "pitch": 66,
          "onset": 234.75,
          "duration": 0.125,
          "velocity": 100
        },
        {
          "pitch": 64,
          "onset": 234.875,
          "duration": 0.125,
          "velocity": 100
        },
        {
          "pitch": 66,
          "onset": 235.0,
          "duration": 0.125,
          "velocity": 100
        },
        {
          "pitch": 64,
          "onset": 235.125,
          "duration": 0.125,
          "velocity": 100
        },
        {
          "pitch": 62,
          "onset": 235.25,
          "duration": 0.125,
          "velocity": 100
        },
        {
          "pitch": 61,
          "onset": 235.375,
          "duration": 0.125,
          "velocity": 100
        },
        {
          "pitch": 59,
          "onset": 235.5,
          "duration": 0.5,
          "velocity": 100
        },
        {
          "pitch": 68,
          "onset": 235.5,
          "duration": 0.5,
          "velocity": 100
        },
        {
          "pitch": 78,
          "onset": 235.625,
          "duration": 0.125,
          "velocity": 100
        },
        {
          "pitch": 76,
          "onset": 235.75,
          "duration": 0.125,
          "velocity": 100
        },
        {
          "pitch": 74,
          "onset": 235.875,
          "duration": 0.125,
          "velocity": 100
        },
        {
          "pitch": 76,
          "onset": 236.0,
          "duration": 1.125,
          "velocity": 100
        },
        {
          "pitch": 74,
          "onset": 236.125,
          "duration": 0.125,
          "velocity": 100
        },
        {
          "pitch": 73,
          "onset": 236.25,
          "duration": 0.125,
          "velocity": 100
        },
        {
          "pitch": 71,
          "onset": 236.375,
          "duration": 0.125,
          "velocity": 100
        },
        {
          "pitch": 73,
          "onset": 236.5,
          "duration": 1.0,
          "velocity": 100
        },
        {
          "pitch": 71,
          "onset": 236.625,
          "duration": 0.125,
          "velocity": 100
        },
        {
          "pitch": 70,
          "onset": 236.75,
          "duration": 0.125,
          "velocity": 100
        },
        {
          "pitch": 68,
          "onset": 236.875,
          "duration": 0.125,
          "velocity": 100
        },
        {
          "pitch": 70,
          "onset": 237.0,
          "duration": 0.5,
          "velocity": 100
        },
        {
          "pitch": 79,
          "onset": 237.125,
          "duration": 0.125,
          "velocity": 100
        },
        {
          "pitch": 78,
          "onset": 237.25,
          "duration": 0.125,
          "velocity": 100
        },
        {
          "pitch": 76,
          "onset": 237.375,
          "duration": 0.125,
          "velocity": 100
        },
        {
          "pitch": 78,
          "onset": 237.5,
          "duration": 1.125,
          "velocity": 100
        },
        {
          "pitch": 76,
          "onset": 237.625,
          "duration": 0.125,
          "velocity": 100
        },
        {
          "pitch": 74,
          "onset": 237.75,
          "duration": 0.125,
          "velocity": 100
        },
        {
          "pitch": 73,
          "onset": 237.875,
          "duration": 0.125,
          "velocity": 100
        },
        {
          "pitch": 74,
          "onset": 238.0,
          "duration": 1.0,
          "velocity": 100
        },
        {
          "pitch": 73,
          "onset": 238.125,
          "duration": 0.125,
          "velocity": 100
        },
        {
          "pitch": 71,
          "onset": 238.25,
          "duration": 0.125,
          "velocity": 100
        },
        {
          "pitch": 70,
          "onset": 238.375,
          "duration": 0.125,
          "velocity": 100
        },
        {
          "pitch": 71,
          "onset": 238.5,
          "duration": 0.5,
          "velocity": 100
        },
        {
          "pitch": 81,
          "onset": 238.625,
          "duration": 0.125,
          "velocity": 100
        },
        {
          "pitch": 79,
          "onset": 238.75,
          "duration": 0.125,
          "velocity": 100
        },
        {
          "pitch": 78,
          "onset": 238.875,
          "duration": 0.125,
          "velocity": 100
        },
        {
          "pitch": 79,
          "onset": 239.0,
          "duration": 1.75,
          "velocity": 100
        },
        {
          "pitch": 78,
          "onset": 239.125,
          "duration": 0.125,
          "velocity": 100
        },
        {
          "pitch": 76,
          "onset": 239.25,
          "duration": 0.125,
          "velocity": 100
        },
        {
          "pitch": 74,
          "onset": 239.375,
          "duration": 0.125,
          "velocity": 100
        },
        {
          "pitch": 76,
          "onset": 239.5,
          "duration": 1.25,
          "velocity": 100
        },
        {
          "pitch": 74,
          "onset": 239.625,
          "duration": 0.125,
          "velocity": 100
        },
        {
          "pitch": 73,
          "onset": 239.75,
          "duration": 0.125,
          "velocity": 100
        },
        {
          "pitch": 71,
          "onset": 239.875,
          "duration": 0.125,
          "velocity": 100
        },
        {
          "pitch": 70,
          "onset": 240.0,
          "duration": 1.0,
          "velocity": 100
        },
        {
          "pitch": 64,
          "onset": 240.125,
          "duration": 0.125,
          "velocity": 100
        },
        {
          "pitch": 66,
          "onset": 240.25,
          "duration": 0.125,
          "velocity": 100
        },
        {
          "pitch": 67,
          "onset": 240.375,
          "duration": 0.125,
          "velocity": 100
        },
        {
          "pitch": 61,
          "onset": 240.5,
          "duration": 0.5,
          "velocity": 100
        },
        {
          "pitch": 76,
          "onset": 240.75,
          "duration": 0.5,
          "velocity": 100
        },
        {
          "pitch": 79,
          "onset": 240.75,
          "duration": 0.5,
          "velocity": 100
        },
        {
          "pitch": 62,
          "onset": 241.0,
          "duration": 0.5,
          "velocity": 100
        },
        {
          "pitch": 69,
          "onset": 241.0,
          "duration": 0.625,
          "velocity": 100
        },
        {
          "pitch": 74,
          "onset": 241.25,
          "duration": 1.0,
          "velocity": 100
        },
        {
          "pitch": 78,
          "onset": 241.25,
          "duration": 1.0,
          "velocity": 100
        },
        {
          "pitch": 59,
          "onset": 241.5,
          "duration": 1.5,
          "velocity": 100
        },
        {
          "pitch": 68,
          "onset": 241.625,
          "duration": 0.125,
          "velocity": 100
        },
        {
          "pitch": 66,
          "onset": 241.75,
          "duration": 0.125,
          "velocity": 100
        },
        {
          "pitch": 64,
          "onset": 241.875,
          "duration": 0.125,
          "velocity": 100
        },
        {
          "pitch": 68,
          "onset": 242.0,
          "duration": 0.5,
          "velocity": 100
        },
        {
          "pitch": 74,
          "onset": 242.25,
          "duration": 0.5,
          "velocity": 100
        },
        {
          "pitch": 78,
          "onset": 242.25,
          "duration": 0.5,
          "velocity": 100
        },
        {
          "pitch": 67,
          "onset": 242.5,
          "duration": 0.625,
          "velocity": 100
        },
        {
          "pitch": 73,
          "onset": 242.75,
          "duration": 1.0,
          "velocity": 100
        },
        {
          "pitch": 76,
          "onset": 242.75,
          "duration": 1.0,
          "velocity": 100
        },
        {
          "pitch": 58,
          "onset": 243.0,
          "duration": 1.0,
          "velocity": 100
        },
        {
          "pitch": 67,
          "onset": 243.125,
          "duration": 0.125,
          "velocity": 100
        },
        {
          "pitch": 66,
          "onset": 243.25,
          "duration": 0.125,
          "velocity": 100
        },
        {
          "pitch": 65,
          "onset": 243.375,
          "duration": 0.125,
          "velocity": 100
        },
        {
          "pitch": 66,
          "onset": 243.5,
          "duration": 1.125,
          "velocity": 100
        },
        {
          "pitch": 73,
          "onset": 243.75,
          "duration": 0.5,
          "velocity": 100
        },
        {
          "pitch": 76,
          "onset": 243.75,
          "duration": 0.5,
          "velocity": 100
        },
        {
          "pitch": 59,
          "onset": 244.0,
          "duration": 0.5,
          "velocity": 100
        },
        {
          "pitch": 71,
          "onset": 244.25,
          "duration": 1.0,
          "velocity": 100
        },
        {
          "pitch": 74,
          "onset": 244.25,
          "duration": 1.0,
          "velocity": 100
        },
        {
          "pitch": 56,
          "onset": 244.5,
          "duration": 1.0,
          "velocity": 100
        },
        {
          "pitch": 66,
          "onset": 244.625,
          "duration": 0.125,
          "velocity": 100
        },
        {
          "pitch": 65,
          "onset": 244.75,
          "duration": 0.125,
          "velocity": 100
        },
        {
          "pitch": 63,
          "onset": 244.875,
          "duration": 0.125,
          "velocity": 100
        },
        {
          "pitch": 65,
          "onset": 245.0,
          "duration": 0.5,
          "velocity": 100
        },
        {
          "pitch": 71,
          "onset": 245.25,
          "duration": 0.5,
          "velocity": 100
        },
        {
          "pitch": 74,
          "onset": 245.25,
          "duration": 0.5,
          "velocity": 100
        },
        {
          "pitch": 55,
          "onset": 245.5,
          "duration": 0.5,
          "velocity": 100
        },
        {
          "pitch": 64,
          "onset": 245.5,
          "duration": 0.625,
          "velocity": 100
        },
        {
          "pitch": 70,
          "onset": 245.75,
          "duration": 1.0,
          "velocity": 100
        },
        {
          "pitch": 73,
          "onset": 245.75,
          "duration": 1.0,
          "velocity": 100
        },
        {
          "pitch": 54,
          "onset": 246.0,
          "duration": 1.0,
          "velocity": 100
        },
        {
          "pitch": 64,
          "onset": 246.125,
          "duration": 0.125,
          "velocity": 100
        },
        {
          "pitch": 63,
          "onset": 246.25,
          "duration": 0.125,
          "velocity": 100
        },
        {
          "pitch": 61,
          "onset": 246.375,
          "duration": 0.125,
          "velocity": 100
        },
        {
          "pitch": 63,
          "onset": 246.5,
          "duration": 0.5,
          "velocity": 100
        },
        {
          "pitch": 70,
          "onset": 246.75,
          "duration": 0.5,
          "velocity": 100
        },
        {
          "pitch": 73,
          "onset": 246.75,
          "duration": 0.5,
          "velocity": 100
        },
        {
          "pitch": 53,
          "onset": 247.0,
          "duration": 0.5,
          "velocity": 100
        },
        {
          "pitch": 62,
          "onset": 247.0,
          "duration": 0.625,
          "velocity": 100
        },
        {
          "pitch": 68,
          "onset": 247.25,
          "duration": 0.25,
          "velocity": 100
        },
        {
          "pitch": 71,
          "onset": 247.25,
          "duration": 0.875,
          "velocity": 100
        },
        {
          "pitch": 54,
          "onset": 247.5,
          "duration": 2.0,
          "velocity": 100
        },
        {
          "pitch": 66,
          "onset": 247.5,
          "duration": 1.125,
          "velocity": 100
        },
        {
          "pitch": 62,
          "onset": 247.625,
          "duration": 0.125,
          "velocity": 100
        },
        {
          "pitch": 61,
          "onset": 247.75,
          "duration": 0.125,
          "velocity": 100
        },
        {
          "pitch": 59,
          "onset": 247.875,
          "duration": 0.125,
          "velocity": 100
        },
        {
          "pitch": 61,
          "onset": 248.0,
          "duration": 1.5,
          "velocity": 100
        },
        {
          "pitch": 71,
          "onset": 248.125,
          "duration": 0.125,
          "velocity": 100
        },
        {
          "pitch": 70,
          "onset": 248.25,
          "duration": 0.125,
          "velocity": 100
        },
        {
          "pitch": 68,
          "onset": 248.375,
          "duration": 0.125,
          "velocity": 100
        },
        {
          "pitch": 70,
          "onset": 248.5,
          "duration": 1.0,
          "velocity": 100
        },
        {
          "pitch": 67,
          "onset": 248.625,
          "duration": 0.125,
          "velocity": 100
        },
        {
          "pitch": 66,
          "onset": 248.75,
          "duration": 0.125,
          "velocity": 100
        },
        {
          "pitch": 64,
          "onset": 248.875,
          "duration": 0.625,
          "velocity": 100
        },
        {
          "pitch": 50,
          "onset": 249.5,
          "duration": 0.5,
          "velocity": 100
        },
        {
          "pitch": 59,
          "onset": 249.5,
          "duration": 0.5,
          "velocity": 100
        },
        {
          "pitch": 62,
          "onset": 249.5,
          "duration": 0.5,
          "velocity": 100
        },
        {
          "pitch": 71,
          "onset": 249.5,
          "duration": 0.125,
          "velocity": 100
        },
        {
          "pitch": 73,
          "onset": 249.625,
          "duration": 0.125,
          "velocity": 100
        },
        {
          "pitch": 71,
          "onset": 249.75,
          "duration": 0.125,
          "velocity": 100
        },
        {
          "pitch": 70,
          "onset": 249.875,
          "duration": 0.125,
          "velocity": 100
        },
        {
          "pitch": 71,
          "onset": 250.0,
          "duration": 0.125,
          "velocity": 100
        },
        {
          "pitch": 73,
          "onset": 250.125,
          "duration": 0.125,
          "velocity": 100
        },
        {
          "pitch": 74,
          "onset": 250.25,
          "duration": 0.125,
          "velocity": 100
        },
        {
          "pitch": 76,
          "onset": 250.375,
          "duration": 0.0625,
          "velocity": 100
        },
        {
          "pitch": 78,
          "onset": 250.4375,
          "duration": 0.0625,
          "velocity": 100
        },
        {
          "pitch": 55,
          "onset": 250.5,
          "duration": 0.5,
          "velocity": 100
        },
        {
          "pitch": 61,
          "onset": 250.5,
          "duration": 0.5,
          "velocity": 100
        },
        {
          "pitch": 71,
          "onset": 250.5,
          "duration": 0.5,
          "velocity": 100
        },
        {
          "pitch": 79,
          "onset": 250.5,
          "duration": 0.375,
          "velocity": 100
        },
        {
          "pitch": 78,
          "onset": 250.875,
          "duration": 0.125,
          "velocity": 100
        },
        {
          "pitch": 54,
          "onset": 251.0,
          "duration": 0.5,
          "velocity": 100
        },
        {
          "pitch": 62,
          "onset": 251.0,
          "duration": 0.5,
          "velocity": 100
        },
        {
          "pitch": 71,
          "onset": 251.0,
          "duration": 0.5,
          "velocity": 100
        },
        {
          "pitch": 76,
          "onset": 251.0,
          "duration": 0.25,
          "velocity": 100
        },
        {
          "pitch": 74,
          "onset": 251.25,
          "duration": 0.25,
          "velocity": 100
        },
        {
          "pitch": 54,
          "onset": 251.5,
          "duration": 0.75,
          "velocity": 100
        },
        {
          "pitch": 64,
          "onset": 251.5,
          "duration": 0.75,
          "velocity": 100
        },
        {
          "pitch": 70,
          "onset": 251.5,
          "duration": 0.75,
          "velocity": 100
        },
        {
          "pitch": 73,
          "onset": 251.5,
          "duration": 0.25,
          "velocity": 100
        },
        {
          "pitch": 71,
          "onset": 251.75,
          "duration": 0.5,
          "velocity": 100
        },
        {
          "pitch": 54,
          "onset": 252.25,
          "duration": 1.5,
          "velocity": 100
        },
        {
          "pitch": 63,
          "onset": 252.25,
          "duration": 1.5,
          "velocity": 100
        },
        {
          "pitch": 71,
          "onset": 252.25,
          "duration": 1.5,
          "velocity": 100
        },
        {
          "pitch": 62,
          "onset": 254.5,
          "duration": 0.5,
          "velocity": 1
        }
      ]
    },
    {
      "role": "pedal",
      "notes": [
        {
          "pitch": 35,
          "onset": 9.75,
          "duration": 0.25,
          "velocity": 110
        },
        {
          "pitch": 47,
          "onset": 10.0,
          "duration": 1.25,
          "velocity": 110
        },
        {
          "pitch": 35,
          "onset": 11.25,
          "duration": 0.25,
          "velocity": 110
        },
        {
          "pitch": 47,
          "onset": 11.5,
          "duration": 1.25,
          "velocity": 110
        },
        {
          "pitch": 35,
          "onset": 12.75,
          "duration": 0.25,
          "velocity": 110
        },
        {
          "pitch": 47,
          "onset": 13.0,
          "duration": 1.25,
          "velocity": 110
        },
        {
          "pitch": 35,
          "onset": 14.25,
          "duration": 0.25,
          "velocity": 110
        },
        {
          "pitch": 47,
          "onset": 14.5,
          "duration": 1.25,
          "velocity": 110
        },
        {
          "pitch": 35,
          "onset": 15.75,
          "duration": 0.25,
          "velocity": 110
        },
        {
          "pitch": 47,
          "onset": 16.0,
          "duration": 1.25,
          "velocity": 110
        },
        {
          "pitch": 35,
          "onset": 17.25,
          "duration": 0.25,
          "velocity": 110
        },
        {
          "pitch": 47,
          "onset": 17.5,
          "duration": 0.5,
          "velocity": 110
        },
        {
          "pitch": 42,
          "onset": 18.0,
          "duration": 0.5,
          "velocity": 110
        },
        {
          "pitch": 30,
          "onset": 18.5,
          "duration": 1.75,
          "velocity": 110
        },
        {
          "pitch": 42,
          "onset": 20.25,
          "duration": 0.25,
          "velocity": 110
        },
        {
          "pitch": 40,
          "onset": 20.5,
          "duration": 0.25,
          "velocity": 110
        },
        {
          "pitch": 42,
          "onset": 20.75,
          "duration": 0.125,
          "velocity": 110
        },
        {
          "pitch": 43,
          "onset": 20.875,
          "duration": 0.125,
          "velocity": 110
        },
        {
          "pitch": 35,
          "onset": 21.0,
          "duration": 0.5,
          "velocity": 110
        },
        {
          "pitch": 34,
          "onset": 21.5,
          "duration": 1.75,
          "velocity": 110
        },
        {
          "pitch": 46,
          "onset": 23.25,
          "duration": 0.25,
          "velocity": 110
        },
        {
          "pitch": 42,
          "onset": 23.5,
          "duration": 0.5,
          "velocity": 110
        },
        {
          "pitch": 47,
          "onset": 24.0,
          "duration": 0.5,
          "velocity": 110
        },
        {
          "pitch": 35,
          "onset": 24.5,
          "duration": 1.75,
          "velocity": 110
        },
        {
          "pitch": 47,
          "onset": 26.25,
          "duration": 0.25,
          "velocity": 110
        },
        {
          "pitch": 42,
          "onset": 26.5,
          "duration": 0.25,
          "velocity": 110
        },
        {
          "pitch": 43,
          "onset": 26.75,
          "duration": 0.125,
          "velocity": 110
        },
        {
          "pitch": 45,
          "onset": 26.875,
          "duration": 0.125,
          "velocity": 110
        },
        {
          "pitch": 40,
          "onset": 27.0,
          "duration": 0.5,
          "velocity": 110
        },
        {
          "pitch": 39,
          "onset": 27.5,
          "duration": 1.75,
          "velocity": 110
        },
        {
          "pitch": 42,
          "onset": 29.25,
          "duration": 0.25,
          "velocity": 110
        },
        {
          "pitch": 35,
          "onset": 29.5,
          "duration": 0.5,
          "velocity": 110
        },
        {
          "pitch": 40,
          "onset": 30.0,
          "duration": 2.125,
          "velocity": 110
        },
        {
          "pitch": 40,
          "onset": 32.125,
          "duration": 0.125,
          "velocity": 110
        },
        {
          "pitch": 38,
          "onset": 32.25,
          "duration": 0.125,
          "velocity": 110
        },
        {
          "pitch": 40,
          "onset": 32.375,
          "duration": 0.125,
          "velocity": 110
        },
        {
          "pitch": 37,
          "onset": 32.5,
          "duration": 0.125,
          "velocity": 110
        },
        {
          "pitch": 38,
          "onset": 32.625,
          "duration": 0.125,
          "velocity": 110
        },
        {
          "pitch": 35,
          "onset": 32.75,
          "duration": 0.125,
          "velocity": 110
        },
        {
          "pitch": 37,
          "onset": 32.875,
          "duration": 0.125,
          "velocity": 110
        },
        {
          "pitch": 33,
          "onset": 33.0,
          "duration": 0.625,
          "velocity": 110
        },
        {
          "pitch": 45,
          "onset": 33.625,
          "duration": 0.125,
          "velocity": 110
        },
        {
          "pitch": 43,
          "onset": 33.75,
          "duration": 0.125,
          "velocity": 110
        },
        {
          "pitch": 45,
          "onset": 33.875,
          "duration": 0.125,
          "velocity": 110
        },
        {
          "pitch": 42,
          "onset": 34.0,
          "duration": 0.125,
          "velocity": 110
        },
        {
          "pitch": 43,
          "onset": 34.125,
          "duration": 0.125,
          "velocity": 110
        },
        {
          "pitch": 40,
          "onset": 34.25,
          "duration": 0.125,
          "velocity": 110
        },
        {
          "pitch": 42,
          "onset": 34.375,
          "duration": 0.125,
          "velocity": 110
        },
        {
          "pitch": 38,
          "onset": 34.5,
          "duration": 0.625,
          "velocity": 110
        },
        {
          "pitch": 38,
          "onset": 35.125,
          "duration": 0.125,
          "velocity": 110
        },
        {
          "pitch": 37,
          "onset": 35.25,
          "duration": 0.125,
          "velocity": 110
        },
        {
          "pitch": 38,
          "onset": 35.375,
          "duration": 0.125,
          "velocity": 110
        },
        {
          "pitch": 35,
          "onset": 35.5,
          "duration": 0.125,
          "velocity": 110
        },
        {
          "pitch": 37,
          "onset": 35.625,
          "duration": 0.125,
          "velocity": 110
        },
        {
          "pitch": 33,
          "onset": 35.75,
          "duration": 0.125,
          "velocity": 110
        },
        {
          "pitch": 35,
          "onset": 35.875,
          "duration": 0.125,
          "velocity": 110
        },
        {
          "pitch": 31,
          "onset": 36.0,
          "duration": 0.625,
          "velocity": 110
        },
        {
          "pitch": 43,
          "onset": 36.625,
          "duration": 0.125,
          "velocity": 110
        },
        {
          "pitch": 42,
          "onset": 36.75,
          "duration": 0.125,
          "velocity": 110
        },
        {
          "pitch": 43,
          "onset": 36.875,
          "duration": 0.125,
          "velocity": 110
        },
        {
          "pitch": 40,
          "onset": 37.0,
          "duration": 0.125,
          "velocity": 110
        },
        {
          "pitch": 42,
          "onset": 37.125,
          "duration": 0.125,
          "velocity": 110
        },
        {
          "pitch": 38,
          "onset": 37.25,
          "duration": 0.125,
          "velocity": 110
        },
        {
          "pitch": 40,
          "onset": 37.375,
          "duration": 0.125,
          "velocity": 110
        },
        {
          "pitch": 33,
          "onset": 37.5,
          "duration": 0.625,
          "velocity": 110
        },
        {
          "pitch": 40,
          "onset": 38.125,
          "duration": 0.125,
          "velocity": 110
        },
        {
          "pitch": 38,
          "onset": 38.25,
          "duration": 0.125,
          "velocity": 110
        },
        {
          "pitch": 40,
          "onset": 38.375,
          "duration": 0.125,
          "velocity": 110
        },
        {
          "pitch": 34,
          "onset": 38.5,
          "duration": 0.125,
          "velocity": 110
        },
        {
          "pitch": 37,
          "onset": 38.625,
          "duration": 0.125,
          "velocity": 110
        },
        {
          "pitch": 35,
          "onset": 38.75,
          "duration": 0.125,
          "velocity": 110
        },
        {
          "pitch": 37,
          "onset": 38.875,
          "duration": 0.125,
          "velocity": 110
        },
        {
          "pitch": 30,
          "onset": 39.0,
          "duration": 0.75,
          "velocity": 110
        },
        {
          "pitch": 42,
          "onset": 39.75,
          "duration": 0.25,
          "velocity": 110
        },
        {
          "pitch": 30,
          "onset": 40.0,
          "duration": 1.25,
          "velocity": 110
        },
        {
          "pitch": 42,
          "onset": 41.25,
          "duration": 0.25,
          "velocity": 110
        },
        {
          "pitch": 30,
          "onset": 41.5,
          "duration": 1.25,
          "velocity": 110
        },
        {
          "pitch": 42,
          "onset": 42.75,
          "duration": 0.25,
          "velocity": 110
        },
        {
          "pitch": 30,
          "onset": 43.0,
          "duration": 1.25,
          "velocity": 110
        },
        {
          "pitch": 42,
          "onset": 44.25,
          "duration": 0.25,
          "velocity": 110
        },
        {
          "pitch": 30,
          "onset": 44.5,
          "duration": 0.5,
          "velocity": 110
        },
        {
          "pitch": 31,
          "onset": 45.0,
          "duration": 1.0,
          "velocity": 110
        },
        {
          "pitch": 40,
          "onset": 46.5,
          "duration": 0.5,
          "velocity": 110
        },
        {
          "pitch": 42,
          "onset": 47.0,
          "duration": 0.5,
          "velocity": 110
        },
        {
          "pitch": 30,
          "onset": 47.5,
          "duration": 0.5,
          "velocity": 110
        },
        {
          "pitch": 35,
          "onset": 48.0,
          "duration": 0.5,
          "velocity": 110
        },
        {
          "pitch": 26,
          "onset": 87.75,
          "duration": 0.25,
          "velocity": 110
        },
        {
          "pitch": 42,
          "onset": 88.0,
          "duration": 1.25,
          "velocity": 110
        },
        {
          "pitch": 26,
          "onset": 89.25,
          "duration": 0.25,
          "velocity": 110
        },
        {
          "pitch": 42,
          "onset": 89.5,
          "duration": 1.25,
          "velocity": 110
        },
        {
          "pitch": 30,
          "onset": 90.75,
          "duration": 0.25,
          "velocity": 110
        },
        {
          "pitch": 42,
          "onset": 91.0,
          "duration": 1.25,
          "velocity": 110
        },
        {
          "pitch": 30,
          "onset": 92.25,
          "duration": 0.25,
          "velocity": 110
        },
        {
          "pitch": 42,
          "onset": 92.5,
          "duration": 1.25,
          "velocity": 110
        },
        {
          "pitch": 30,
          "onset": 93.75,
          "duration": 0.25,
          "velocity": 110
        },
        {
          "pitch": 42,
          "onset": 94.0,
          "duration": 1.25,
          "velocity": 110
        },
        {
          "pitch": 30,
          "onset": 95.25,
          "duration": 0.25,
          "velocity": 110
        },
        {
          "pitch": 42,
          "onset": 95.5,
          "duration": 0.5,
          "velocity": 110
        },
        {
          "pitch": 37,
          "onset": 96.0,
          "duration": 2.25,
          "velocity": 110
        },
        {
          "pitch": 49,
          "onset": 98.25,
          "duration": 0.25,
          "velocity": 110
        },
        {
          "pitch": 44,
          "onset": 98.5,
          "duration": 0.25,
          "velocity": 110
        },
        {
          "pitch": 45,
          "onset": 98.75,
          "duration": 0.125,
          "velocity": 110
        },
        {
          "pitch": 47,
          "onset": 98.875,
          "duration": 0.125,
          "velocity": 110
        },
        {
          "pitch": 41,
          "onset": 99.0,
          "duration": 2.0,
          "velocity": 110
        },
        {
          "pitch": 37,
          "onset": 101.0,
          "duration": 0.5,
          "velocity": 110
        },
        {
          "pitch": 41,
          "onset": 101.5,
          "duration": 0.5,
          "velocity": 110
        },
        {
          "pitch": 42,
          "onset": 102.0,
          "duration": 2.0,
          "velocity": 110
        },
        {
          "pitch": 30,
          "onset": 104.0,
          "duration": 0.5,
          "velocity": 110
        },
        {
          "pitch": 34,
          "onset": 104.5,
          "duration": 0.5,
          "velocity": 110
        },
        {
          "pitch": 35,
          "onset": 105.0,
          "duration": 2.0,
          "velocity": 110
        },
        {
          "pitch": 47,
          "onset": 107.0,
          "duration": 0.5,
          "velocity": 110
        },
        {
          "pitch": 39,
          "onset": 107.5,
          "duration": 0.5,
          "velocity": 110
        },
        {
          "pitch": 40,
          "onset": 108.0,
          "duration": 2.0,
          "velocity": 110
        },
        {
          "pitch": 28,
          "onset": 110.0,
          "duration": 0.5,
          "velocity": 110
        },
        {
          "pitch": 32,
          "onset": 110.5,
          "duration": 0.5,
          "velocity": 110
        },
        {
          "pitch": 33,
          "onset": 111.0,
          "duration": 0.5,
          "velocity": 110
        },
        {
          "pitch": 30,
          "onset": 111.5,
          "duration": 0.5,
          "velocity": 110
        },
        {
          "pitch": 33,
          "onset": 112.0,
          "duration": 0.5,
          "velocity": 110
        },
        {
          "pitch": 35,
          "onset": 112.5,
          "duration": 0.5,
          "velocity": 110
        },
        {
          "pitch": 32,
          "onset": 113.0,
          "duration": 0.5,
          "velocity": 110
        },
        {
          "pitch": 35,
          "onset": 113.5,
          "duration": 0.5,
          "velocity": 110
        },
        {
          "pitch": 37,
          "onset": 114.0,
          "duration": 0.5,
          "velocity": 110
        },
        {
          "pitch": 33,
          "onset": 114.5,
          "duration": 0.5,
          "velocity": 110
        },
        {
          "pitch": 37,
          "onset": 115.0,
          "duration": 0.5,
          "velocity": 110
        },
        {
          "pitch": 38,
          "onset": 115.5,
          "duration": 0.5,
          "velocity": 110
        },
        {
          "pitch": 35,
          "onset": 116.0,
          "duration": 0.5,
          "velocity": 110
        },
        {
          "pitch": 32,
          "onset": 116.5,
          "duration": 0.5,
          "velocity": 110
        },
        {
          "pitch": 37,
          "onset": 117.0,
          "duration": 0.75,
          "velocity": 110
        },
        {
          "pitch": 49,
          "onset": 117.75,
          "duration": 0.25,
          "velocity": 110
        },
        {
          "pitch": 37,
          "onset": 118.0,
          "duration": 1.25,
          "velocity": 110
        },
        {
          "pitch": 49,
          "onset": 119.25,
          "duration": 0.25,
          "velocity": 110
        },
        {
          "pitch": 37,
          "onset": 119.5,
          "duration": 1.25,
          "velocity": 110
        },
        {
          "pitch": 49,
          "onset": 120.75,
          "duration": 0.25,
          "velocity": 110
        },
        {
          "pitch": 37,
          "onset": 121.0,
          "duration": 1.25,
          "velocity": 110
        },
        {
          "pitch": 49,
          "onset": 122.25,
          "duration": 0.25,
          "velocity": 110
        },
        {
          "pitch": 37,
          "onset": 122.5,
          "duration": 0.5,
          "velocity": 110
        },
        {
          "pitch": 38,
          "onset": 123.0,
          "duration": 1.0,
          "velocity": 110
        },
        {
          "pitch": 35,
          "onset": 124.5,
          "duration": 0.5,
          "velocity": 110
        },
        {
          "pitch": 37,
          "onset": 125.0,
          "duration": 1.0,
          "velocity": 110
        },
        {
          "pitch": 30,
          "onset": 126.0,
          "duration": 0.5,
          "velocity": 110
        },
        {
          "pitch": 42,
          "onset": 149.125,
          "duration": 0.125,
          "velocity": 110
        },
        {
          "pitch": 40,
          "onset": 149.25,
          "duration": 0.125,
          "velocity": 110
        },
        {
          "pitch": 42,
          "onset": 149.375,
          "duration": 0.125,
          "velocity": 110
        },
        {
          "pitch": 38,
          "onset": 149.5,
          "duration": 0.125,
          "velocity": 110
        },
        {
          "pitch": 40,
          "onset": 149.625,
          "duration": 0.125,
          "velocity": 110
        },
        {
          "pitch": 37,
          "onset": 149.75,
          "duration": 0.125,
          "velocity": 110
        },
        {
          "pitch": 38,
          "onset": 149.875,
          "duration": 0.125,
          "velocity": 110
        },
        {
          "pitch": 35,
          "onset": 150.0,
          "duration": 0.625,
          "velocity": 110
        },
        {
          "pitch": 47,
          "onset": 150.625,
          "duration": 0.125,
          "velocity": 110
        },
        {
          "pitch": 45,
          "onset": 150.75,
          "duration": 0.125,
          "velocity": 110
        },
        {
          "pitch": 47,
          "onset": 150.875,
          "duration": 0.125,
          "velocity": 110
        },
        {
          "pitch": 43,
          "onset": 151.0,
          "duration": 0.125,
          "velocity": 110
        },
        {
          "pitch": 45,
          "onset": 151.125,
          "duration": 0.125,
          "velocity": 110
        },
        {
          "pitch": 42,
          "onset": 151.25,
          "duration": 0.125,
          "velocity": 110
        },
        {
          "pitch": 43,
          "onset": 151.375,
          "duration": 0.125,
          "velocity": 110
        },
        {
          "pitch": 40,
          "onset": 151.5,
          "duration": 0.625,
          "velocity": 110
        },
        {
          "pitch": 40,
          "onset": 152.125,
          "duration": 0.125,
          "velocity": 110
        },
        {
          "pitch": 38,
          "onset": 152.25,
          "duration": 0.125,
          "velocity": 110
        },
        {
          "pitch": 40,
          "onset": 152.375,
          "duration": 0.125,
          "velocity": 110
        },
        {
          "pitch": 37,
          "onset": 152.5,
          "duration": 0.125,
          "velocity": 110
        },
        {
          "pitch": 38,
          "onset": 152.625,
          "duration": 0.125,
          "velocity": 110
        },
        {
          "pitch": 35,
          "onset": 152.75,
          "duration": 0.125,
          "velocity": 110
        },
        {
          "pitch": 37,
          "onset": 152.875,
          "duration": 0.125,
          "velocity": 110
        },
        {
          "pitch": 33,
          "onset": 153.0,
          "duration": 0.625,
          "velocity": 110
        },
        {
          "pitch": 45,
          "onset": 153.625,
          "duration": 0.125,
          "velocity": 110
        },
        {
          "pitch": 43,
          "onset": 153.75,
          "duration": 0.125,
          "velocity": 110
        },
        {
          "pitch": 45,
          "onset": 153.875,
          "duration": 0.125,
          "velocity": 110
        },
        {
          "pitch": 42,
          "onset": 154.0,
          "duration": 0.125,
          "velocity": 110
        },
        {
          "pitch": 43,
          "onset": 154.125,
          "duration": 0.125,
          "velocity": 110
        },
        {
          "pitch": 40,
          "onset": 154.25,
          "duration": 0.125,
          "velocity": 110
        },
        {
          "pitch": 42,
          "onset": 154.375,
          "duration": 0.125,
          "velocity": 110
        },
        {
          "pitch": 38,
          "onset": 154.5,
          "duration": 0.625,
          "velocity": 110
        },
        {
          "pitch": 42,
          "onset": 155.125,
          "duration": 0.125,
          "velocity": 110
        },
        {
          "pitch": 40,
          "onset": 155.25,
          "duration": 0.125,
          "velocity": 110
        },
        {
          "pitch": 42,
          "onset": 155.375,
          "duration": 0.125,
          "velocity": 110
        },
        {
          "pitch": 38,
          "onset": 155.5,
          "duration": 0.125,
          "velocity": 110
        },
        {
          "pitch": 40,
          "onset": 155.625,
          "duration": 0.125,
          "velocity": 110
        },
        {
          "pitch": 37,
          "onset": 155.75,
          "duration": 0.125,
          "velocity": 110
        },
        {
          "pitch": 38,
          "onset": 155.875,
          "duration": 0.125,
          "velocity": 110
        },
        {
          "pitch": 31,
          "onset": 156.0,
          "duration": 2.25,
          "velocity": 110
        },
        {
          "pitch": 43,
          "onset": 158.25,
          "duration": 0.125,
          "velocity": 110
        },
        {
          "pitch": 42,
          "onset": 158.375,
          "duration": 0.125,
          "velocity": 110
        },
        {
          "pitch": 43,
          "onset": 158.5,
          "duration": 0.25,
          "velocity": 110
        },
        {
          "pitch": 40,
          "onset": 158.75,
          "duration": 0.25,
          "velocity": 110
        },
        {
          "pitch": 42,
          "onset": 159.0,
          "duration": 0.5,
          "velocity": 110
        },
        {
          "pitch": 31,
          "onset": 159.5,
          "duration": 0.5,
          "velocity": 110
        },
        {
          "pitch": 33,
          "onset": 160.0,
          "duration": 0.5,
          "velocity": 110
        },
        {
          "pitch": 35,
          "onset": 160.5,
          "duration": 0.5,
          "velocity": 110
        },
        {
          "pitch": 47,
          "onset": 161.0,
          "duration": 0.5,
          "velocity": 110
        },
        {
          "pitch": 45,
          "onset": 161.5,
          "duration": 0.5,
          "velocity": 110
        },
        {
          "pitch": 44,
          "onset": 162.0,
          "duration": 0.5,
          "velocity": 110
        },
        {
          "pitch": 32,
          "onset": 162.5,
          "duration": 0.5,
          "velocity": 110
        },
        {
          "pitch": 31,
          "onset": 163.0,
          "duration": 0.5,
          "velocity": 110
        },
        {
          "pitch": 30,
          "onset": 163.5,
          "duration": 0.5,
          "velocity": 110
        },
        {
          "pitch": 31,
          "onset": 164.0,
          "duration": 0.5,
          "velocity": 110
        },
        {
          "pitch": 33,
          "onset": 164.5,
          "duration": 0.5,
          "velocity": 110
        },
        {
          "pitch": 26,
          "onset": 165.0,
          "duration": 0.5,
          "velocity": 110
        },
        {
          "pitch": 27,
          "onset": 168.0,
          "duration": 0.5,
          "velocity": 110
        },
        {
          "pitch": 28,
          "onset": 171.0,
          "duration": 0.5,
          "velocity": 110
        },
        {
          "pitch": 28,
          "onset": 173.0,
          "duration": 0.5,
          "velocity": 110
        },
        {
          "pitch": 31,
          "onset": 173.5,
          "duration": 0.5,
          "velocity": 110
        },
        {
          "pitch": 33,
          "onset": 174.0,
          "duration": 0.5,
          "velocity": 110
        },
        {
          "pitch": 30,
          "onset": 176.0,
          "duration": 0.5,
          "velocity": 110
        },
        {
          "pitch": 33,
          "onset": 176.5,
          "duration": 0.5,
          "velocity": 110
        },
        {
          "pitch": 28,
          "onset": 180.75,
          "duration": 0.25,
          "velocity": 110
        },
        {
          "pitch": 40,
          "onset": 181.0,
          "duration": 1.25,
          "velocity": 110
        },
        {
          "pitch": 28,
          "onset": 182.25,
          "duration": 0.25,
          "velocity": 110
        },
        {
          "pitch": 40,
          "onset": 182.5,
          "duration": 1.25,
          "velocity": 110
        },
        {
          "pitch": 28,
          "onset": 183.75,
          "duration": 0.25,
          "velocity": 110
        },
        {
          "pitch": 40,
          "onset": 184.0,
          "duration": 1.25,
          "velocity": 110
        },
        {
          "pitch": 28,
          "onset": 185.25,
          "duration": 0.25,
          "velocity": 110
        },
        {
          "pitch": 40,
          "onset": 185.5,
          "duration": 1.25,
          "velocity": 110
        },
        {
          "pitch": 28,
          "onset": 186.75,
          "duration": 0.25,
          "velocity": 110
        },
        {
          "pitch": 40,
          "onset": 187.0,
          "duration": 1.25,
          "velocity": 110
        },
        {
          "pitch": 28,
          "onset": 188.25,
          "duration": 0.25,
          "velocity": 110
        },
        {
          "pitch": 40,
          "onset": 188.5,
          "duration": 0.5,
          "velocity": 110
        },
        {
          "pitch": 35,
          "onset": 189.0,
          "duration": 2.25,
          "velocity": 110
        },
        {
          "pitch": 45,
          "onset": 191.25,
          "duration": 0.125,
          "velocity": 110
        },
        {
          "pitch": 43,
          "onset": 191.375,
          "duration": 0.125,
          "velocity": 110
        },
        {
          "pitch": 45,
          "onset": 191.5,
          "duration": 0.25,
          "velocity": 110
        },
        {
          "pitch": 42,
          "onset": 191.75,
          "duration": 0.25,
          "velocity": 110
        },
        {
          "pitch": 43,
          "onset": 192.0,
          "duration": 0.5,
          "velocity": 110
        },
        {
          "pitch": 33,
          "onset": 192.5,
          "duration": 0.5,
          "velocity": 110
        },
        {
          "pitch": 35,
          "onset": 193.0,
          "duration": 0.5,
          "velocity": 110
        },
        {
          "pitch": 36,
          "onset": 193.5,
          "duration": 0.5,
          "velocity": 110
        },
        {
          "pitch": 48,
          "onset": 194.0,
          "duration": 0.5,
          "velocity": 110
        },
        {
          "pitch": 47,
          "onset": 194.5,
          "duration": 0.5,
          "velocity": 110
        },
        {
          "pitch": 45,
          "onset": 195.0,
          "duration": 0.5,
          "velocity": 110
        },
        {
          "pitch": 33,
          "onset": 195.5,
          "duration": 0.5,
          "velocity": 110
        },
        {
          "pitch": 31,
          "onset": 196.0,
          "duration": 0.5,
          "velocity": 110
        },
        {
          "pitch": 30,
          "onset": 196.5,
          "duration": 0.5,
          "velocity": 110
        },
        {
          "pitch": 40,
          "onset": 197.0,
          "duration": 0.5,
          "velocity": 110
        },
        {
          "pitch": 39,
          "onset": 197.5,
          "duration": 0.5,
          "velocity": 110
        },
        {
          "pitch": 40,
          "onset": 198.0,
          "duration": 0.5,
          "velocity": 110
        },
        {
          "pitch": 28,
          "onset": 198.5,
          "duration": 0.5,
          "velocity": 110
        },
        {
          "pitch": 26,
          "onset": 199.0,
          "duration": 0.5,
          "velocity": 110
        },
        {
          "pitch": 24,
          "onset": 199.5,
          "duration": 0.5,
          "velocity": 110
        },
        {
          "pitch": 36,
          "onset": 200.0,
          "duration": 0.5,
          "velocity": 110
        },
        {
          "pitch": 30,
          "onset": 201.0,
          "duration": 0.5,
          "velocity": 110
        },
        {
          "pitch": 42,
          "onset": 201.5,
          "duration": 0.5,
          "velocity": 110
        },
        {
          "pitch": 31,
          "onset": 202.5,
          "duration": 0.5,
          "velocity": 110
        },
        {
          "pitch": 33,
          "onset": 203.0,
          "duration": 0.5,
          "velocity": 110
        },
        {
          "pitch": 35,
          "onset": 203.5,
          "duration": 0.5,
          "velocity": 110
        },
        {
          "pitch": 28,
          "onset": 204.0,
          "duration": 0.5,
          "velocity": 110
        },
        {
          "pitch": 33,
          "onset": 205.5,
          "duration": 0.5,
          "velocity": 110
        },
        {
          "pitch": 26,
          "onset": 207.0,
          "duration": 0.5,
          "velocity": 110
        },
        {
          "pitch": 31,
          "onset": 208.5,
          "duration": 0.5,
          "velocity": 110
        },
        {
          "pitch": 37,
          "onset": 210.0,
          "duration": 0.5,
          "velocity": 110
        },
        {
          "pitch": 35,
          "onset": 211.0,
          "duration": 0.5,
          "velocity": 110
        },
        {
          "pitch": 34,
          "onset": 211.5,
          "duration": 0.5,
          "velocity": 110
        },
        {
          "pitch": 30,
          "onset": 212.5,
          "duration": 0.5,
          "velocity": 110
        },
        {
          "pitch": 35,
          "onset": 213.0,
          "duration": 0.5,
          "velocity": 110
        },
        {
          "pitch": 33,
          "onset": 214.0,
          "duration": 0.5,
          "velocity": 110
        },
        {
          "pitch": 31,
          "onset": 214.5,
          "duration": 1.5,
          "velocity": 110
        },
        {
          "pitch": 30,
          "onset": 216.0,
          "duration": 0.5,
          "velocity": 110
        },
        {
          "pitch": 35,
          "onset": 234.5,
          "duration": 0.5,
          "velocity": 110
        },
        {
          "pitch": 38,
          "onset": 235.0,
          "duration": 0.5,
          "velocity": 110
        },
        {
          "pitch": 40,
          "onset": 235.5,
          "duration": 0.5,
          "velocity": 110
        },
        {
          "pitch": 37,
          "onset": 236.0,
          "duration": 0.5,
          "velocity": 110
        },
        {
          "pitch": 40,
          "onset": 236.5,
          "duration": 0.5,
          "velocity": 110
        },
        {
          "pitch": 42,
          "onset": 237.0,
          "duration": 0.5,
          "velocity": 110
        },
        {
          "pitch": 38,
          "onset": 237.5,
          "duration": 0.5,
          "velocity": 110
        },
        {
          "pitch": 42,
          "onset": 238.0,
          "duration": 0.5,
          "velocity": 110
        },
        {
          "pitch": 43,
          "onset": 238.5,
          "duration": 0.5,
          "velocity": 110
        },
        {
          "pitch": 40,
          "onset": 239.0,
          "duration": 0.5,
          "velocity": 110
        },
        {
          "pitch": 37,
          "onset": 239.5,
          "duration": 0.5,
          "velocity": 110
        },
        {
          "pitch": 42,
          "onset": 240.0,
          "duration": 0.75,
          "velocity": 110
        },
        {
          "pitch": 30,
          "onset": 240.75,
          "duration": 0.25,
          "velocity": 110
        },
        {
          "pitch": 42,
          "onset": 241.0,
          "duration": 1.25,
          "velocity": 110
        },
        {
          "pitch": 30,
          "onset": 242.25,
          "duration": 0.25,
          "velocity": 110
        },
        {
          "pitch": 42,
          "onset": 242.5,
          "duration": 1.25,
          "velocity": 110
        },
        {
          "pitch": 30,
          "onset": 243.75,
          "duration": 0.25,
          "velocity": 110
        },
        {
          "pitch": 42,
          "onset": 244.0,
          "duration": 1.25,
          "velocity": 110
        },
        {
          "pitch": 30,
          "onset": 245.25,
          "duration": 0.25,
          "velocity": 110
        },
        {
          "pitch": 42,
          "onset": 245.5,
          "duration": 1.25,
          "velocity": 110
        },
        {
          "pitch": 30,
          "onset": 246.75,
          "duration": 0.25,
          "velocity": 110
        },
        {
          "pitch": 42,
          "onset": 247.0,
          "duration": 1.25,
          "velocity": 110
        },
        {
          "pitch": 30,
          "onset": 248.25,
          "duration": 0.25,
          "velocity": 110
        },
        {
          "pitch": 42,
          "onset": 248.5,
          "duration": 0.5,
          "velocity": 110
        },
        {
          "pitch": 31,
          "onset": 249.0,
          "duration": 1.0,
          "velocity": 110
        },
        {
          "pitch": 40,
          "onset": 250.5,
          "duration": 0.5,
          "velocity": 110
        },
        {
          "pitch": 42,
          "onset": 251.0,
          "duration": 0.5,
          "velocity": 110
        },
        {
          "pitch": 30,
          "onset": 251.5,
          "duration": 0.75,
          "velocity": 110
        },
        {
          "pitch": 35,
          "onset": 252.25,
          "duration": 1.5,
          "velocity": 110
        }
      ]
    }
  ]
}