{
  "bwv": 546,
  "category": "organ_pf",
  "instrument": "organ",
  "form": "prelude",
  "movement": null,
  "ticks_per_beat": 384,
  "duration_seconds": 396.1,
  "tempos": [
    {
      "tick": 0,
      "bpm": 80
    },
    {
      "tick": 6144,
      "bpm": 85
    },
    {
      "tick": 7680,
      "bpm": 90
    },
    {
      "tick": 36096,
      "bpm": 85
    },
    {
      "tick": 36480,
      "bpm": 85
    },
    {
      "tick": 36672,
      "bpm": 80
    },
    {
      "tick": 37056,
      "bpm": 90
    },
    {
      "tick": 73344,
      "bpm": 80
    },
    {
      "tick": 73536,
      "bpm": 70
    },
    {
      "tick": 73728,
      "bpm": 80
    },
    {
      "tick": 79872,
      "bpm": 85
    },
    {
      "tick": 80064,
      "bpm": 90
    },
    {
      "tick": 106752,
      "bpm": 85
    },
    {
      "tick": 107136,
      "bpm": 80
    },
    {
      "tick": 107328,
      "bpm": 70
    },
    {
      "tick": 107520,
      "bpm": 80
    },
    {
      "tick": 107712,
      "bpm": 90
    },
    {
      "tick": 158592,
      "bpm": 85
    },
    {
      "tick": 158976,
      "bpm": 85
    },
    {
      "tick": 159360,
      "bpm": 80
    },
    {
      "tick": 159552,
      "bpm": 70
    },
    {
      "tick": 159744,
      "bpm": 80
    },
    {
      "tick": 159936,
      "bpm": 90
    },
    {
      "tick": 181632,
      "bpm": 85
    },
    {
      "tick": 182016,
      "bpm": 80
    },
    {
      "tick": 182400,
      "bpm": 75
    },
    {
      "tick": 182592,
      "bpm": 60
    },
    {
      "tick": 182784,
      "bpm": 80
    },
    {
      "tick": 190464,
      "bpm": 85
    },
    {
      "tick": 193536,
      "bpm": 85
    },
    {
      "tick": 196608,
      "bpm": 90
    },
    {
      "tick": 217344,
      "bpm": 85
    },
    {
      "tick": 217728,
      "bpm": 85
    },
    {
      "tick": 218112,
      "bpm": 80
    },
    {
      "tick": 218496,
      "bpm": 75
    },
    {
      "tick": 218880,
      "bpm": 70
    },
    {
      "tick": 219264,
      "bpm": 65
    },
    {
      "tick": 219456,
      "bpm": 45
    }
  ],
  "time_signatures": [
    {
      "tick": 0,
      "numerator": 4,
      "denominator": 4
    }
  ],
  "track_type": "manual",
  "voice_count": 3,
  "total_notes": 2499,
  "tracks": [
    {
      "role": "upper",
      "notes": [
        {
          "pitch": 67,
          "onset": 0.0,
          "duration": 2.0,
          "velocity": 100
        },
        {
          "pitch": 72,
          "onset": 0.0,
          "duration": 2.0,
          "velocity": 100
        },
        {
          "pitch": 75,
          "onset": 0.0,
          "duration": 2.0,
          "velocity": 100
        },
        {
          "pitch": 67,
          "onset": 3.0,
          "duration": 1.0,
          "velocity": 100
        },
        {
          "pitch": 72,
          "onset": 3.0,
          "duration": 1.0,
          "velocity": 100
        },
        {
          "pitch": 75,
          "onset": 3.0,
          "duration": 1.0,
          "velocity": 100
        },
        {
          "pitch": 65,
          "onset": 4.0,
          "duration": 2.0,
          "velocity": 100
        },
        {
          "pitch": 72,
          "onset": 4.0,
          "duration": 1.0,
          "velocity": 100
        },
        {
          "pitch": 75,
          "onset": 4.0,
          "duration": 1.0,
          "velocity": 100
        },
        {
          "pitch": 71,
          "onset": 5.0,
          "duration": 1.0,
          "velocity": 100
        },
        {
          "pitch": 74,
          "onset": 5.0,
          "duration": 1.0,
          "velocity": 100
        },
        {
          "pitch": 71,
          "onset": 10.0,
          "duration": 2.0,
          "velocity": 100
        },
        {
          "pitch": 74,
          "onset": 10.0,
          "duration": 2.0,
          "velocity": 100
        },
        {
          "pitch": 77,
          "onset": 10.0,
          "duration": 2.0,
          "velocity": 100
        },
        {
          "pitch": 67,
          "onset": 14.0,
          "duration": 2.0,
          "velocity": 100
        },
        {
          "pitch": 72,
          "onset": 14.0,
          "duration": 1.0,
          "velocity": 100
        },
        {
          "pitch": 75,
          "onset": 14.0,
          "duration": 1.0,
          "velocity": 100
        },
        {
          "pitch": 74,
          "onset": 15.0,
          "duration": 1.0,
          "velocity": 100
        },
        {
          "pitch": 77,
          "onset": 15.0,
          "duration": 1.0,
          "velocity": 100
        },
        {
          "pitch": 75,
          "onset": 16.0,
          "duration": 3.0,
          "velocity": 100
        },
        {
          "pitch": 79,
          "onset": 16.0,
          "duration": 2.0,
          "velocity": 100
        },
        {
          "pitch": 80,
          "onset": 18.0,
          "duration": 6.0,
          "velocity": 100
        },
        {
          "pitch": 77,
          "onset": 19.0,
          "duration": 1.0,
          "velocity": 100
        },
        {
          "pitch": 74,
          "onset": 20.0,
          "duration": 0.5,
          "velocity": 100
        },
        {
          "pitch": 70,
          "onset": 20.5,
          "duration": 0.5,
          "velocity": 100
        },
        {
          "pitch": 70,
          "onset": 21.0,
          "duration": 0.5,
          "velocity": 100
        },
        {
          "pitch": 72,
          "onset": 21.5,
          "duration": 0.5,
          "velocity": 100
        },
        {
          "pitch": 72,
          "onset": 22.0,
          "duration": 0.5,
          "velocity": 100
        },
        {
          "pitch": 74,
          "onset": 22.5,
          "duration": 0.5,
          "velocity": 100
        },
        {
          "pitch": 74,
          "onset": 23.0,
          "duration": 0.5,
          "velocity": 100
        },
        {
          "pitch": 75,
          "onset": 23.5,
          "duration": 0.5,
          "velocity": 100
        },
        {
          "pitch": 75,
          "onset": 24.0,
          "duration": 5.0,
          "velocity": 100
        },
        {
          "pitch": 79,
          "onset": 24.0,
          "duration": 4.5,
          "velocity": 100
        },
        {
          "pitch": 84,
          "onset": 28.5,
          "duration": 0.5,
          "velocity": 100
        },
        {
          "pitch": 84,
          "onset": 29.0,
          "duration": 0.5,
          "velocity": 100
        },
        {
          "pitch": 82,
          "onset": 29.5,
          "duration": 0.5,
          "velocity": 100
        },
        {
          "pitch": 82,
          "onset": 30.0,
          "duration": 0.5,
          "velocity": 100
        },
        {
          "pitch": 80,
          "onset": 30.5,
          "duration": 0.5,
          "velocity": 100
        },
        {
          "pitch": 80,
          "onset": 31.0,
          "duration": 0.5,
          "velocity": 100
        },
        {
          "pitch": 79,
          "onset": 31.5,
          "duration": 0.5,
          "velocity": 100
        },
        {
          "pitch": 79,
          "onset": 32.0,
          "duration": 0.5,
          "velocity": 100
        },
        {
          "pitch": 77,
          "onset": 32.5,
          "duration": 0.5,
          "velocity": 100
        },
        {
          "pitch": 72,
          "onset": 33.0,
          "duration": 1.5,
          "velocity": 100
        },
        {
          "pitch": 76,
          "onset": 33.5,
          "duration": 0.5,
          "velocity": 100
        },
        {
          "pitch": 77,
          "onset": 34.0,
          "duration": 0.3125,
          "velocity": 100
        },
        {
          "pitch": 75,
          "onset": 34.5,
          "duration": 0.5,
          "velocity": 100
        },
        {
          "pitch": 74,
          "onset": 35.0,
          "duration": 0.5,
          "velocity": 100
        },
        {
          "pitch": 72,
          "onset": 35.5,
          "duration": 0.5,
          "velocity": 100
        },
        {
          "pitch": 67,
          "onset": 36.3438,
          "duration": 0.3125,
          "velocity": 100
        },
        {
          "pitch": 69,
          "onset": 36.6562,
          "duration": 0.3125,
          "velocity": 100
        },
        {
          "pitch": 71,
          "onset": 37.0,
          "duration": 0.3125,
          "velocity": 100
        },
        {
          "pitch": 72,
          "onset": 37.3438,
          "duration": 0.3125,
          "velocity": 100
        },
        {
          "pitch": 74,
          "onset": 37.6562,
          "duration": 0.3125,
          "velocity": 100
        },
        {
          "pitch": 75,
          "onset": 38.0,
          "duration": 0.3125,
          "velocity": 100
        },
        {
          "pitch": 77,
          "onset": 38.3438,
          "duration": 0.3125,
          "velocity": 100
        },
        {
          "pitch": 79,
          "onset": 38.6562,
          "duration": 0.3125,
          "velocity": 100
        },
        {
          "pitch": 80,
          "onset": 39.0,
          "duration": 0.3125,
          "velocity": 100
        },
        {
          "pitch": 79,
          "onset": 39.3438,
          "duration": 0.3125,
          "velocity": 100
        },
        {
          "pitch": 77,
          "onset": 39.6562,
          "duration": 0.3125,
          "velocity": 100
        },
        {
          "pitch": 75,
          "onset": 40.0,
          "duration": 0.3125,
          "velocity": 100
        },
        {
          "pitch": 72,
          "onset": 40.3438,
          "duration": 0.3125,
          "velocity": 100
        },
        {
          "pitch": 74,
          "onset": 40.6562,
          "duration": 0.3125,
          "velocity": 100
        },
        {
          "pitch": 75,
          "onset": 41.0,
          "duration": 0.3125,
          "velocity": 100
        },
        {
          "pitch": 77,
          "onset": 41.3438,
          "duration": 0.3125,
          "velocity": 100
        },
        {
          "pitch": 79,
          "onset": 41.6562,
          "duration": 0.3125,
          "velocity": 100
        },
        {
          "pitch": 81,
          "onset": 42.0,
          "duration": 0.3125,
          "velocity": 100
        },
        {
          "pitch": 82,
          "onset": 42.3438,
          "duration": 0.3125,
          "velocity": 100
        },
        {
          "pitch": 84,
          "onset": 42.6562,
          "duration": 0.3125,
          "velocity": 100
        },
        {
          "pitch": 82,
          "onset": 43.0,
          "duration": 0.3125,
          "velocity": 100
        },
        {
          "pitch": 81,
          "onset": 43.3438,
          "duration": 0.3125,
          "velocity": 100
        },
        {
          "pitch": 79,
          "onset": 43.6562,
          "duration": 0.3125,
          "velocity": 100
        },
        {
          "pitch": 78,
          "onset": 44.0,
          "duration": 0.3125,
          "velocity": 100
        },
        {
          "pitch": 79,
          "onset": 44.3438,
          "duration": 0.3125,
          "velocity": 100
        },
        {
          "pitch": 81,
          "onset": 44.6562,
          "duration": 0.3125,
          "velocity": 100
        },
        {
          "pitch": 79,
          "onset": 45.0,
          "duration": 0.3125,
          "velocity": 100
        },
        {
          "pitch": 78,
          "onset": 45.3438,
          "duration": 0.3125,
          "velocity": 100
        },
        {
          "pitch": 75,
          "onset": 45.6562,
          "duration": 0.3125,
          "velocity": 100
        },
        {
          "pitch": 74,
          "onset": 46.0,
          "duration": 0.3125,
          "velocity": 100
        },
        {
          "pitch": 72,
          "onset": 46.3438,
          "duration": 0.3125,
          "velocity": 100
        },
        {
          "pitch": 71,
          "onset": 46.6562,
          "duration": 0.3125,
          "velocity": 100
        },
        {
          "pitch": 69,
          "onset": 47.0,
          "duration": 0.3125,
          "velocity": 100
        },
        {
          "pitch": 71,
          "onset": 47.3438,
          "duration": 0.3125,
          "velocity": 100
        },
        {
          "pitch": 72,
          "onset": 47.6562,
          "duration": 0.3125,
          "velocity": 100
        },
        {
          "pitch": 67,
          "onset": 48.0,
          "duration": 2.0,
          "velocity": 100
        },
        {
          "pitch": 71,
          "onset": 48.0,
          "duration": 1.0,
          "velocity": 100
        },
        {
          "pitch": 74,
          "onset": 49.0,
          "duration": 1.0,
          "velocity": 100
        },
        {
          "pitch": 75,
          "onset": 50.0,
          "duration": 4.0,
          "velocity": 100
        },
        {
          "pitch": 67,
          "onset": 51.0,
          "duration": 1.0,
          "velocity": 100
        },
        {
          "pitch": 66,
          "onset": 52.0,
          "duration": 2.0,
          "velocity": 100
        },
        {
          "pitch": 65,
          "onset": 54.0,
          "duration": 2.0,
          "velocity": 100
        },
        {
          "pitch": 74,
          "onset": 54.0,
          "duration": 2.5,
          "velocity": 100
        },
        {
          "pitch": 77,
          "onset": 56.5,
          "duration": 0.5,
          "velocity": 100
        },
        {
          "pitch": 75,
          "onset": 57.0,
          "duration": 0.5,
          "velocity": 100
        },
        {
          "pitch": 74,
          "onset": 57.5,
          "duration": 0.5,
          "velocity": 100
        },
        {
          "pitch": 68,
          "onset": 58.0,
          "duration": 4.0,
          "velocity": 100
        },
        {
          "pitch": 72,
          "onset": 58.0,
          "duration": 0.5,
          "velocity": 100
        },
        {
          "pitch": 74,
          "onset": 58.5,
          "duration": 0.5,
          "velocity": 100
        },
        {
          "pitch": 76,
          "onset": 59.0,
          "duration": 0.5,
          "velocity": 100
        },
        {
          "pitch": 72,
          "onset": 59.5,
          "duration": 0.5,
          "velocity": 100
        },
        {
          "pitch": 77,
          "onset": 60.0,
          "duration": 0.5,
          "velocity": 100
        },
        {
          "pitch": 79,
          "onset": 60.5,
          "duration": 0.5,
          "velocity": 100
        },
        {
          "pitch": 76,
          "onset": 61.0,
          "duration": 0.5,
          "velocity": 100
        },
        {
          "pitch": 77,
          "onset": 61.5,
          "duration": 0.5,
          "velocity": 100
        },
        {
          "pitch": 67,
          "onset": 62.0,
          "duration": 2.5,
          "velocity": 100
        },
        {
          "pitch": 79,
          "onset": 62.0,
          "duration": 0.5,
          "velocity": 100
        },
        {
          "pitch": 76,
          "onset": 62.5,
          "duration": 0.5,
          "velocity": 100
        },
        {
          "pitch": 77,
          "onset": 63.0,
          "duration": 0.5,
          "velocity": 100
        },
        {
          "pitch": 79,
          "onset": 63.5,
          "duration": 0.5,
          "velocity": 100
        },
        {
          "pitch": 72,
          "onset": 64.0,
          "duration": 0.5,
          "velocity": 100
        },
        {
          "pitch": 70,
          "onset": 64.5,
          "duration": 0.5,
          "velocity": 100
        },
        {
          "pitch": 68,
          "onset": 65.0,
          "duration": 0.5,
          "velocity": 100
        },
        {
          "pitch": 67,
          "onset": 65.5,
          "duration": 0.5,
          "velocity": 100
        },
        {
          "pitch": 65,
          "onset": 66.0,
          "duration": 1.0,
          "velocity": 100
        },
        {
          "pitch": 72,
          "onset": 66.5,
          "duration": 1.0,
          "velocity": 100
        },
        {
          "pitch": 64,
          "onset": 67.0,
          "duration": 1.0,
          "velocity": 100
        },
        {
          "pitch": 70,
          "onset": 67.5,
          "duration": 1.0,
          "velocity": 100
        },
        {
          "pitch": 65,
          "onset": 68.0,
          "duration": 2.0,
          "velocity": 100
        },
        {
          "pitch": 70,
          "onset": 68.5,
          "duration": 0.5,
          "velocity": 100
        },
        {
          "pitch": 68,
          "onset": 69.0,
          "duration": 0.5,
          "velocity": 100
        },
        {
          "pitch": 67,
          "onset": 69.5,
          "duration": 0.5,
          "velocity": 100
        },
        {
          "pitch": 68,
          "onset": 70.0,
          "duration": 1.5,
          "velocity": 100
        },
        {
          "pitch": 65,
          "onset": 70.5,
          "duration": 0.5,
          "velocity": 100
        },
        {
          "pitch": 60,
          "onset": 71.0,
          "duration": 1.0,
          "velocity": 100
        },
        {
          "pitch": 66,
          "onset": 71.5,
          "duration": 0.5,
          "velocity": 100
        },
        {
          "pitch": 65,
          "onset": 72.0,
          "duration": 0.25,
          "velocity": 100
        },
        {
          "pitch": 61,
          "onset": 72.25,
          "duration": 0.25,
          "velocity": 100
        },
        {
          "pitch": 60,
          "onset": 72.5,
          "duration": 0.25,
          "velocity": 100
        },
        {
          "pitch": 61,
          "onset": 72.75,
          "duration": 0.25,
          "velocity": 100
        },
        {
          "pitch": 68,
          "onset": 73.0,
          "duration": 1.25,
          "velocity": 100
        },
        {
          "pitch": 65,
          "onset": 74.25,
          "duration": 0.25,
          "velocity": 100
        },
        {
          "pitch": 64,
          "onset": 74.5,
          "duration": 0.25,
          "velocity": 100
        },
        {
          "pitch": 65,
          "onset": 74.75,
          "duration": 0.25,
          "velocity": 100
        },
        {
          "pitch": 73,
          "onset": 75.0,
          "duration": 1.25,
          "velocity": 100
        },
        {
          "pitch": 65,
          "onset": 76.0,
          "duration": 1.0,
          "velocity": 100
        },
        {
          "pitch": 68,
          "onset": 76.25,
          "duration": 0.25,
          "velocity": 100
        },
        {
          "pitch": 67,
          "onset": 76.5,
          "duration": 0.25,
          "velocity": 100
        },
        {
          "pitch": 68,
          "onset": 76.75,
          "duration": 0.25,
          "velocity": 100
        },
        {
          "pitch": 77,
          "onset": 77.0,
          "duration": 1.25,
          "velocity": 100
        },
        {
          "pitch": 68,
          "onset": 78.0,
          "duration": 1.0,
          "velocity": 100
        },
        {
          "pitch": 73,
          "onset": 78.25,
          "duration": 0.25,
          "velocity": 100
        },
        {
          "pitch": 72,
          "onset": 78.5,
          "duration": 0.25,
          "velocity": 100
        },
        {
          "pitch": 73,
          "onset": 78.75,
          "duration": 0.25,
          "velocity": 100
        },
        {
          "pitch": 80,
          "onset": 79.0,
          "duration": 0.75,
          "velocity": 100
        },
        {
          "pitch": 72,
          "onset": 79.75,
          "duration": 0.25,
          "velocity": 100
        },
        {
          "pitch": 71,
          "onset": 80.0,
          "duration": 0.3125,
          "velocity": 100
        },
        {
          "pitch": 67,
          "onset": 80.3438,
          "duration": 0.3125,
          "velocity": 100
        },
        {
          "pitch": 69,
          "onset": 80.6562,
          "duration": 0.3125,
          "velocity": 100
        },
        {
          "pitch": 71,
          "onset": 81.0,
          "duration": 0.3125,
          "velocity": 100
        },
        {
          "pitch": 69,
          "onset": 81.3438,
          "duration": 0.3125,
          "velocity": 100
        },
        {
          "pitch": 67,
          "onset": 81.6562,
          "duration": 0.3125,
          "velocity": 100
        },
        {
          "pitch": 72,
          "onset": 82.0,
          "duration": 0.3125,
          "velocity": 100
        },
        {
          "pitch": 68,
          "onset": 82.3438,
          "duration": 0.3125,
          "velocity": 100
        },
        {
          "pitch": 67,
          "onset": 82.6562,
          "duration": 0.3125,
          "velocity": 100
        },
        {
          "pitch": 74,
          "onset": 83.0,
          "duration": 0.3125,
          "velocity": 100
        },
        {
          "pitch": 68,
          "onset": 83.3438,
          "duration": 0.3125,
          "velocity": 100
        },
        {
          "pitch": 67,
          "onset": 83.6562,
          "duration": 0.3125,
          "velocity": 100
        },
        {
          "pitch": 75,
          "onset": 84.0,
          "duration": 0.3125,
          "velocity": 100
        },
        {
          "pitch": 74,
          "onset": 84.3438,
          "duration": 0.3125,
          "velocity": 100
        },
        {
          "pitch": 75,
          "onset": 84.6562,
          "duration": 0.3125,
          "velocity": 100
        },
        {
          "pitch": 77,
          "onset": 85.0,
          "duration": 0.3125,
          "velocity": 100
        },
        {
          "pitch": 75,
          "onset": 85.3438,
          "duration": 0.3125,
          "velocity": 100
        },
        {
          "pitch": 74,
          "onset": 85.6562,
          "duration": 0.3125,
          "velocity": 100
        },
        {
          "pitch": 75,
          "onset": 86.0,
          "duration": 0.3125,
          "velocity": 100
        },
        {
          "pitch": 74,
          "onset": 86.3438,
          "duration": 0.3125,
          "velocity": 100
        },
        {
          "pitch": 72,
          "onset": 86.6562,
          "duration": 0.3125,
          "velocity": 100
        },
        {
          "pitch": 76,
          "onset": 87.0,
          "duration": 0.3125,
          "velocity": 100
        },
        {
          "pitch": 73,
          "onset": 87.3438,
          "duration": 0.3125,
          "velocity": 100
        },
        {
          "pitch": 72,
          "onset": 87.6562,
          "duration": 0.3125,
          "velocity": 100
        },
        {
          "pitch": 77,
          "onset": 88.0,
          "duration": 0.3125,
          "velocity": 100
        },
        {
          "pitch": 76,
          "onset": 88.3438,
          "duration": 0.3125,
          "velocity": 100
        },
        {
          "pitch": 77,
          "onset": 88.6562,
          "duration": 0.3125,
          "velocity": 100
        },
        {
          "pitch": 79,
          "onset": 89.0,
          "duration": 0.3125,
          "velocity": 100
        },
        {
          "pitch": 77,
          "onset": 89.3438,
          "duration": 0.3125,
          "velocity": 100
        },
        {
          "pitch": 76,
          "onset": 89.6562,
          "duration": 0.3125,
          "velocity": 100
        },
        {
          "pitch": 77,
          "onset": 90.0,
          "duration": 0.3125,
          "velocity": 100
        },
        {
          "pitch": 75,
          "onset": 90.3438,
          "duration": 0.3125,
          "velocity": 100
        },
        {
          "pitch": 74,
          "onset": 90.6562,
          "duration": 0.3125,
          "velocity": 100
        },
        {
          "pitch": 75,
          "onset": 91.0,
          "duration": 0.3125,
          "velocity": 100
        },
        {
          "pitch": 74,
          "onset": 91.3438,
          "duration": 0.3125,
          "velocity": 100
        },
        {
          "pitch": 72,
          "onset": 91.6562,
          "duration": 0.3125,
          "velocity": 100
        },
        {
          "pitch": 69,
          "onset": 92.0,
          "duration": 2.0,
          "velocity": 100
        },
        {
          "pitch": 81,
          "onset": 92.0,
          "duration": 0.3125,
          "velocity": 100
        },
        {
          "pitch": 72,
          "onset": 92.3438,
          "duration": 0.3125,
          "velocity": 100
        },
        {
          "pitch": 74,
          "onset": 92.6562,
          "duration": 0.3125,
          "velocity": 100
        },
        {
          "pitch": 75,
          "onset": 93.0,
          "duration": 0.3125,
          "velocity": 100
        },
        {
          "pitch": 74,
          "onset": 93.3438,
          "duration": 0.3125,
          "velocity": 100
        },
        {
          "pitch": 72,
          "onset": 93.6562,
          "duration": 0.3125,
          "velocity": 100
        },
        {
          "pitch": 67,
          "onset": 94.0,
          "duration": 2.0,
          "velocity": 100
        },
        {
          "pitch": 71,
          "onset": 94.0,
          "duration": 0.125,
          "velocity": 100
        },
        {
          "pitch": 72,
          "onset": 94.125,
          "duration": 0.125,
          "velocity": 100
        },
        {
          "pitch": 71,
          "onset": 94.25,
          "duration": 0.125,
          "velocity": 100
        },
        {
          "pitch": 72,
          "onset": 94.375,
          "duration": 0.125,
          "velocity": 100
        },
        {
          "pitch": 71,
          "onset": 94.5,
          "duration": 0.125,
          "velocity": 100
        },
        {
          "pitch": 72,
          "onset": 94.625,
          "duration": 0.125,
          "velocity": 100
        },
        {
          "pitch": 71,
          "onset": 94.75,
          "duration": 0.125,
          "velocity": 100
        },
        {
          "pitch": 72,
          "onset": 94.875,
          "duration": 0.125,
          "velocity": 100
        },
        {
          "pitch": 65,
          "onset": 95.0,
          "duration": 1.0,
          "velocity": 100
        },
        {
          "pitch": 71,
          "onset": 95.0,
          "duration": 0.5,
          "velocity": 100
        },
        {
          "pitch": 72,
          "onset": 95.5,
          "duration": 0.5,
          "velocity": 100
        },
        {
          "pitch": 72,
          "onset": 96.0,
          "duration": 0.75,
          "velocity": 100
        },
        {
          "pitch": 67,
          "onset": 96.75,
          "duration": 0.25,
          "velocity": 100
        },
        {
          "pitch": 72,
          "onset": 97.0,
          "duration": 0.3125,
          "velocity": 100
        },
        {
          "pitch": 71,
          "onset": 97.3438,
          "duration": 0.3125,
          "velocity": 100
        },
        {
          "pitch": 72,
          "onset": 97.6562,
          "duration": 0.6562,
          "velocity": 100
        },
        {
          "pitch": 71,
          "onset": 98.3438,
          "duration": 0.3125,
          "velocity": 100
        },
        {
          "pitch": 69,
          "onset": 98.6562,
          "duration": 0.3125,
          "velocity": 100
        },
        {
          "pitch": 71,
          "onset": 99.0,
          "duration": 0.3125,
          "velocity": 100
        },
        {
          "pitch": 74,
          "onset": 99.3438,
          "duration": 0.3125,
          "velocity": 100
        },
        {
          "pitch": 68,
          "onset": 99.6562,
          "duration": 0.3125,
          "velocity": 100
        },
        {
          "pitch": 67,
          "onset": 100.0,
          "duration": 0.3125,
          "velocity": 100
        },
        {
          "pitch": 69,
          "onset": 100.3438,
          "duration": 0.3125,
          "velocity": 100
        },
        {
          "pitch": 71,
          "onset": 100.6562,
          "duration": 0.3125,
          "velocity": 100
        },
        {
          "pitch": 72,
          "onset": 101.0,
          "duration": 0.3125,
          "velocity": 100
        },
        {
          "pitch": 74,
          "onset": 101.3438,
          "duration": 0.3125,
          "velocity": 100
        },
        {
          "pitch": 75,
          "onset": 101.6562,
          "duration": 0.6562,
          "velocity": 100
        },
        {
          "pitch": 73,
          "onset": 102.3438,
          "duration": 0.3125,
          "velocity": 100
        },
        {
          "pitch": 72,
          "onset": 102.6562,
          "duration": 0.3125,
          "velocity": 100
        },
        {
          "pitch": 73,
          "onset": 103.0,
          "duration": 0.3125,
          "velocity": 100
        },
        {
          "pitch": 77,
          "onset": 103.3438,
          "duration": 0.3125,
          "velocity": 100
        },
        {
          "pitch": 72,
          "onset": 103.6562,
          "duration": 0.3125,
          "velocity": 100
        },
        {
          "pitch": 71,
          "onset": 104.0,
          "duration": 0.3125,
          "velocity": 100
        },
        {
          "pitch": 74,
          "onset": 104.3438,
          "duration": 0.3125,
          "velocity": 100
        },
        {
          "pitch": 71,
          "onset": 104.6562,
          "duration": 0.3125,
          "velocity": 100
        },
        {
          "pitch": 67,
          "onset": 105.0,
          "duration": 0.3125,
          "velocity": 100
        },
        {
          "pitch": 71,
          "onset": 105.3438,
          "duration": 0.3125,
          "velocity": 100
        },
        {
          "pitch": 74,
          "onset": 105.6562,
          "duration": 0.3125,
          "velocity": 100
        },
        {
          "pitch": 79,
          "onset": 106.0,
          "duration": 0.3125,
          "velocity": 100
        },
        {
          "pitch": 74,
          "onset": 106.3438,
          "duration": 0.3125,
          "velocity": 100
        },
        {
          "pitch": 72,
          "onset": 106.6562,
          "duration": 0.3125,
          "velocity": 100
        },
        {
          "pitch": 77,
          "onset": 107.0,
          "duration": 0.3125,
          "velocity": 100
        },
        {
          "pitch": 72,
          "onset": 107.3438,
          "duration": 0.3125,
          "velocity": 100
        },
        {
          "pitch": 71,
          "onset": 107.6562,
          "duration": 0.3125,
          "velocity": 100
        },
        {
          "pitch": 75,
          "onset": 108.0,
          "duration": 0.3125,
          "velocity": 100
        },
        {
          "pitch": 74,
          "onset": 108.3438,
          "duration": 0.3125,
          "velocity": 100
        },
        {
          "pitch": 72,
          "onset": 108.6562,
          "duration": 0.3125,
          "velocity": 100
        },
        {
          "pitch": 74,
          "onset": 109.0,
          "duration": 0.3125,
          "velocity": 100
        },
        {
          "pitch": 78,
          "onset": 109.3438,
          "duration": 0.3125,
          "velocity": 100
        },
        {
          "pitch": 79,
          "onset": 109.6562,
          "duration": 0.6562,
          "velocity": 100
        },
        {
          "pitch": 78,
          "onset": 110.3438,
          "duration": 0.3125,
          "velocity": 100
        },
        {
          "pitch": 76,
          "onset": 110.6562,
          "duration": 0.3125,
          "velocity": 100
        },
        {
          "pitch": 78,
          "onset": 111.0,
          "duration": 0.3125,
          "velocity": 100
        },
        {
          "pitch": 81,
          "onset": 111.3438,
          "duration": 0.3125,
          "velocity": 100
        },
        {
          "pitch": 75,
          "onset": 111.6562,
          "duration": 0.3125,
          "velocity": 100
        },
        {
          "pitch": 74,
          "onset": 112.0,
          "duration": 0.3125,
          "velocity": 100
        },
        {
          "pitch": 76,
          "onset": 112.3438,
          "duration": 0.3125,
          "velocity": 100
        },
        {
          "pitch": 78,
          "onset": 112.6562,
          "duration": 0.3125,
          "velocity": 100
        },
        {
          "pitch": 79,
          "onset": 113.0,
          "duration": 0.3125,
          "velocity": 100
        },
        {
          "pitch": 81,
          "onset": 113.3438,
          "duration": 0.3125,
          "velocity": 100
        },
        {
          "pitch": 82,
          "onset": 113.6562,
          "duration": 0.6562,
          "velocity": 100
        },
        {
          "pitch": 81,
          "onset": 114.3438,
          "duration": 0.3125,
          "velocity": 100
        },
        {
          "pitch": 79,
          "onset": 114.6562,
          "duration": 0.3125,
          "velocity": 100
        },
        {
          "pitch": 81,
          "onset": 115.0,
          "duration": 0.3125,
          "velocity": 100
        },
        {
          "pitch": 84,
          "onset": 115.3438,
          "duration": 0.3125,
          "velocity": 100
        },
        {
          "pitch": 79,
          "onset": 115.6562,
          "duration": 0.3125,
          "velocity": 100
        },
        {
          "pitch": 74,
          "onset": 116.0,
          "duration": 0.3125,
          "velocity": 100
        },
        {
          "pitch": 78,
          "onset": 116.0,
          "duration": 1.3125,
          "velocity": 100
        },
        {
          "pitch": 69,
          "onset": 116.3438,
          "duration": 0.3125,
          "velocity": 100
        },
        {
          "pitch": 66,
          "onset": 116.6562,
          "duration": 0.3125,
          "velocity": 100
        },
        {
          "pitch": 62,
          "onset": 117.0,
          "duration": 0.3125,
          "velocity": 100
        },
        {
          "pitch": 66,
          "onset": 117.3438,
          "duration": 0.3125,
          "velocity": 100
        },
        {
          "pitch": 74,
          "onset": 117.3438,
          "duration": 0.3125,
          "velocity": 100
        },
        {
          "pitch": 69,
          "onset": 117.6562,
          "duration": 0.3125,
          "velocity": 100
        },
        {
          "pitch": 78,
          "onset": 117.6562,
          "duration": 0.3125,
          "velocity": 100
        },
        {
          "pitch": 74,
          "onset": 118.0,
          "duration": 0.3125,
          "velocity": 100
        },
        {
          "pitch": 79,
          "onset": 118.0,
          "duration": 1.0,
          "velocity": 100
        },
        {
          "pitch": 69,
          "onset": 118.3438,
          "duration": 0.3125,
          "velocity": 100
        },
        {
          "pitch": 67,
          "onset": 118.6562,
          "duration": 0.3125,
          "velocity": 100
        },
        {
          "pitch": 72,
          "onset": 119.0,
          "duration": 0.3125,
          "velocity": 100
        },
        {
          "pitch": 81,
          "onset": 119.0,
          "duration": 1.0,
          "velocity": 100
        },
        {
          "pitch": 67,
          "onset": 119.3438,
          "duration": 0.3125,
          "velocity": 100
        },
        {
          "pitch": 66,
          "onset": 119.6562,
          "duration": 0.3125,
          "velocity": 100
        },
        {
          "pitch": 70,
          "onset": 120.0,
          "duration": 0.3125,
          "velocity": 100
        },
        {
          "pitch": 74,
          "onset": 120.0,
          "duration": 0.3125,
          "velocity": 100
        },
        {
          "pitch": 74,
          "onset": 120.3438,
          "duration": 0.3125,
          "velocity": 100
        },
        {
          "pitch": 70,
          "onset": 120.6562,
          "duration": 0.3125,
          "velocity": 100
        },
        {
          "pitch": 67,
          "onset": 121.0,
          "duration": 0.3125,
          "velocity": 100
        },
        {
          "pitch": 71,
          "onset": 121.3438,
          "duration": 0.3125,
          "velocity": 100
        },
        {
          "pitch": 74,
          "onset": 121.6562,
          "duration": 0.3125,
          "velocity": 100
        },
        {
          "pitch": 79,
          "onset": 122.0,
          "duration": 0.3125,
          "velocity": 100
        },
        {
          "pitch": 74,
          "onset": 122.3438,
          "duration": 0.3125,
          "velocity": 100
        },
        {
          "pitch": 72,
          "onset": 122.6562,
          "duration": 0.3125,
          "velocity": 100
        },
        {
          "pitch": 77,
          "onset": 123.0,
          "duration": 0.3125,
          "velocity": 100
        },
        {
          "pitch": 72,
          "onset": 123.3438,
          "duration": 0.3125,
          "velocity": 100
        },
        {
          "pitch": 71,
          "onset": 123.6562,
          "duration": 0.3125,
          "velocity": 100
        },
        {
          "pitch": 79,
          "onset": 124.3438,
          "duration": 0.3125,
          "velocity": 100
        },
        {
          "pitch": 75,
          "onset": 124.6562,
          "duration": 0.3125,
          "velocity": 100
        },
        {
          "pitch": 72,
          "onset": 125.0,
          "duration": 0.3125,
          "velocity": 100
        },
        {
          "pitch": 76,
          "onset": 125.3438,
          "duration": 0.3125,
          "velocity": 100
        },
        {
          "pitch": 79,
          "onset": 125.6562,
          "duration": 0.3125,
          "velocity": 100
        },
        {
          "pitch": 84,
          "onset": 126.0,
          "duration": 0.3125,
          "velocity": 100
        },
        {
          "pitch": 79,
          "onset": 126.3438,
          "duration": 0.3125,
          "velocity": 100
        },
        {
          "pitch": 77,
          "onset": 126.6562,
          "duration": 0.3125,
          "velocity": 100
        },
        {
          "pitch": 82,
          "onset": 127.0,
          "duration": 0.3125,
          "velocity": 100
        },
        {
          "pitch": 77,
          "onset": 127.3438,
          "duration": 0.3125,
          "velocity": 100
        },
        {
          "pitch": 76,
          "onset": 127.6562,
          "duration": 0.3125,
          "velocity": 100
        },
        {
          "pitch": 60,
          "onset": 128.0,
          "duration": 0.3125,
          "velocity": 100
        },
        {
          "pitch": 80,
          "onset": 128.0,
          "duration": 1.0,
          "velocity": 100
        },
        {
          "pitch": 72,
          "onset": 128.3438,
          "duration": 0.3125,
          "velocity": 100
        },
        {
          "pitch": 68,
          "onset": 128.6562,
          "duration": 0.3125,
          "velocity": 100
        },
        {
          "pitch": 65,
          "onset": 129.0,
          "duration": 0.3125,
          "velocity": 100
        },
        {
          "pitch": 69,
          "onset": 129.3438,
          "duration": 0.3125,
          "velocity": 100
        },
        {
          "pitch": 72,
          "onset": 129.6562,
          "duration": 0.3125,
          "velocity": 100
        },
        {
          "pitch": 77,
          "onset": 130.0,
          "duration": 0.3125,
          "velocity": 100
        },
        {
          "pitch": 72,
          "onset": 130.3438,
          "duration": 0.3125,
          "velocity": 100
        },
        {
          "pitch": 70,
          "onset": 130.6562,
          "duration": 0.3125,
          "velocity": 100
        },
        {
          "pitch": 75,
          "onset": 131.0,
          "duration": 0.3125,
          "velocity": 100
        },
        {
          "pitch": 70,
          "onset": 131.3438,
          "duration": 0.3125,
          "velocity": 100
        },
        {
          "pitch": 69,
          "onset": 131.6562,
          "duration": 0.3125,
          "velocity": 100
        },
        {
          "pitch": 77,
          "onset": 132.3438,
          "duration": 0.3125,
          "velocity": 100
        },
        {
          "pitch": 74,
          "onset": 132.6562,
          "duration": 0.3125,
          "velocity": 100
        },
        {
          "pitch": 70,
          "onset": 133.0,
          "duration": 0.3125,
          "velocity": 100
        },
        {
          "pitch": 74,
          "onset": 133.3438,
          "duration": 0.3125,
          "velocity": 100
        },
        {
          "pitch": 77,
          "onset": 133.6562,
          "duration": 0.3125,
          "velocity": 100
        },
        {
          "pitch": 82,
          "onset": 134.0,
          "duration": 0.3125,
          "velocity": 100
        },
        {
          "pitch": 77,
          "onset": 134.3438,
          "duration": 0.3125,
          "velocity": 100
        },
        {
          "pitch": 75,
          "onset": 134.6562,
          "duration": 0.3125,
          "velocity": 100
        },
        {
          "pitch": 80,
          "onset": 135.0,
          "duration": 0.3125,
          "velocity": 100
        },
        {
          "pitch": 75,
          "onset": 135.3438,
          "duration": 0.3125,
          "velocity": 100
        },
        {
          "pitch": 74,
          "onset": 135.6562,
          "duration": 0.3125,
          "velocity": 100
        },
        {
          "pitch": 58,
          "onset": 136.0,
          "duration": 0.3125,
          "velocity": 100
        },
        {
          "pitch": 79,
          "onset": 136.0,
          "duration": 3.0,
          "velocity": 100
        },
        {
          "pitch": 63,
          "onset": 136.3438,
          "duration": 0.3125,
          "velocity": 100
        },
        {
          "pitch": 67,
          "onset": 136.6562,
          "duration": 0.3125,
          "velocity": 100
        },
        {
          "pitch": 70,
          "onset": 137.0,
          "duration": 1.0,
          "velocity": 100
        },
        {
          "pitch": 72,
          "onset": 138.0,
          "duration": 1.0,
          "velocity": 100
        },
        {
          "pitch": 68,
          "onset": 139.0,
          "duration": 1.0,
          "velocity": 100
        },
        {
          "pitch": 77,
          "onset": 139.0,
          "duration": 2.0,
          "velocity": 100
        },
        {
          "pitch": 70,
          "onset": 140.0,
          "duration": 1.0,
          "velocity": 100
        },
        {
          "pitch": 67,
          "onset": 141.0,
          "duration": 1.0,
          "velocity": 100
        },
        {
          "pitch": 75,
          "onset": 141.0,
          "duration": 2.0,
          "velocity": 100
        },
        {
          "pitch": 68,
          "onset": 142.0,
          "duration": 1.0,
          "velocity": 100
        },
        {
          "pitch": 65,
          "onset": 143.0,
          "duration": 1.0,
          "velocity": 100
        },
        {
          "pitch": 74,
          "onset": 143.0,
          "duration": 1.0,
          "velocity": 100
        },
        {
          "pitch": 63,
          "onset": 144.0,
          "duration": 0.3125,
          "velocity": 100
        },
        {
          "pitch": 75,
          "onset": 144.0,
          "duration": 1.0,
          "velocity": 100
        },
        {
          "pitch": 67,
          "onset": 144.3438,
          "duration": 0.3125,
          "velocity": 100
        },
        {
          "pitch": 70,
          "onset": 144.6562,
          "duration": 0.3125,
          "velocity": 100
        },
        {
          "pitch": 75,
          "onset": 145.0,
          "duration": 2.0,
          "velocity": 100
        },
        {
          "pitch": 79,
          "onset": 145.0,
          "duration": 1.0,
          "velocity": 100
        },
        {
          "pitch": 80,
          "onset": 146.0,
          "duration": 1.0,
          "velocity": 100
        },
        {
          "pitch": 74,
          "onset": 147.0,
          "duration": 2.0,
          "velocity": 100
        },
        {
          "pitch": 77,
          "onset": 147.0,
          "duration": 1.0,
          "velocity": 100
        },
        {
          "pitch": 79,
          "onset": 148.0,
          "duration": 1.0,
          "velocity": 100
        },
        {
          "pitch": 72,
          "onset": 149.0,
          "duration": 2.0,
          "velocity": 100
        },
        {
          "pitch": 75,
          "onset": 149.0,
          "duration": 1.0,
          "velocity": 100
        },
        {
          "pitch": 77,
          "onset": 150.0,
          "duration": 1.0,
          "velocity": 100
        },
        {
          "pitch": 71,
          "onset": 151.0,
          "duration": 1.0,
          "velocity": 100
        },
        {
          "pitch": 74,
          "onset": 151.0,
          "duration": 1.0,
          "velocity": 100
        },
        {
          "pitch": 72,
          "onset": 152.0,
          "duration": 0.3125,
          "velocity": 100
        },
        {
          "pitch": 75,
          "onset": 152.3438,
          "duration": 0.3125,
          "velocity": 100
        },
        {
          "pitch": 74,
          "onset": 152.6562,
          "duration": 0.3125,
          "velocity": 100
        },
        {
          "pitch": 75,
          "onset": 153.0,
          "duration": 0.3125,
          "velocity": 100
        },
        {
          "pitch": 79,
          "onset": 153.3438,
          "duration": 0.3125,
          "velocity": 100
        },
        {
          "pitch": 84,
          "onset": 153.6562,
          "duration": 0.3125,
          "velocity": 100
        },
        {
          "pitch": 77,
          "onset": 154.0,
          "duration": 3.0,
          "velocity": 100
        },
        {
          "pitch": 74,
          "onset": 154.3438,
          "duration": 0.3125,
          "velocity": 100
        },
        {
          "pitch": 72,
          "onset": 154.6562,
          "duration": 0.3125,
          "velocity": 100
        },
        {
          "pitch": 74,
          "onset": 155.0,
          "duration": 1.75,
          "velocity": 100
        },
        {
          "pitch": 67,
          "onset": 156.75,
          "duration": 0.25,
          "velocity": 100
        },
        {
          "pitch": 72,
          "onset": 157.0,
          "duration": 0.75,
          "velocity": 100
        },
        {
          "pitch": 75,
          "onset": 157.0,
          "duration": 0.3125,
          "velocity": 100
        },
        {
          "pitch": 77,
          "onset": 157.3438,
          "duration": 0.3125,
          "velocity": 100
        },
        {
          "pitch": 79,
          "onset": 157.6562,
          "duration": 0.6562,
          "velocity": 100
        },
        {
          "pitch": 70,
          "onset": 157.75,
          "duration": 0.25,
          "velocity": 100
        },
        {
          "pitch": 68,
          "onset": 158.0,
          "duration": 2.0,
          "velocity": 100
        },
        {
          "pitch": 77,
          "onset": 158.3438,
          "duration": 0.3125,
          "velocity": 100
        },
        {
          "pitch": 76,
          "onset": 158.6562,
          "duration": 0.3125,
          "velocity": 100
        },
        {
          "pitch": 77,
          "onset": 159.0,
          "duration": 2.0,
          "velocity": 100
        },
        {
          "pitch": 67,
          "onset": 160.0,
          "duration": 1.0,
          "velocity": 100
        },
        {
          "pitch": 71,
          "onset": 161.0,
          "duration": 1.0,
          "velocity": 100
        },
        {
          "pitch": 72,
          "onset": 162.0,
          "duration": 1.0,
          "velocity": 100
        },
        {
          "pitch": 74,
          "onset": 163.0,
          "duration": 1.0,
          "velocity": 100
        },
        {
          "pitch": 75,
          "onset": 164.0,
          "duration": 5.0,
          "velocity": 100
        },
        {
          "pitch": 67,
          "onset": 164.3438,
          "duration": 0.3125,
          "velocity": 100
        },
        {
          "pitch": 63,
          "onset": 164.6562,
          "duration": 0.3125,
          "velocity": 100
        },
        {
          "pitch": 60,
          "onset": 165.0,
          "duration": 0.3125,
          "velocity": 100
        },
        {
          "pitch": 63,
          "onset": 165.3438,
          "duration": 0.3125,
          "velocity": 100
        },
        {
          "pitch": 67,
          "onset": 165.6562,
          "duration": 0.3125,
          "velocity": 100
        },
        {
          "pitch": 72,
          "onset": 166.0,
          "duration": 0.3125,
          "velocity": 100
        },
        {
          "pitch": 67,
          "onset": 166.3438,
          "duration": 0.3125,
          "velocity": 100
        },
        {
          "pitch": 65,
          "onset": 166.6562,
          "duration": 0.3125,
          "velocity": 100
        },
        {
          "pitch": 70,
          "onset": 167.0,
          "duration": 0.3125,
          "velocity": 100
        },
        {
          "pitch": 65,
          "onset": 167.3438,
          "duration": 0.3125,
          "velocity": 100
        },
        {
          "pitch": 63,
          "onset": 167.6562,
          "duration": 0.3125,
          "velocity": 100
        },
        {
          "pitch": 69,
          "onset": 168.0,
          "duration": 1.0,
          "velocity": 100
        },
        {
          "pitch": 69,
          "onset": 169.0,
          "duration": 1.0,
          "velocity": 100
        },
        {
          "pitch": 70,
          "onset": 170.0,
          "duration": 1.0,
          "velocity": 100
        },
        {
          "pitch": 72,
          "onset": 171.0,
          "duration": 1.0,
          "velocity": 100
        },
        {
          "pitch": 74,
          "onset": 172.0,
          "duration": 2.0,
          "velocity": 100
        },
        {
          "pitch": 65,
          "onset": 172.3438,
          "duration": 0.3125,
          "velocity": 100
        },
        {
          "pitch": 62,
          "onset": 172.6562,
          "duration": 0.3125,
          "velocity": 100
        },
        {
          "pitch": 58,
          "onset": 173.0,
          "duration": 0.3125,
          "velocity": 100
        },
        {
          "pitch": 62,
          "onset": 173.3438,
          "duration": 0.3125,
          "velocity": 100
        },
        {
          "pitch": 65,
          "onset": 173.6562,
          "duration": 0.3125,
          "velocity": 100
        },
        {
          "pitch": 70,
          "onset": 174.0,
          "duration": 0.3125,
          "velocity": 100
        },
        {
          "pitch": 75,
          "onset": 174.0,
          "duration": 1.0,
          "velocity": 100
        },
        {
          "pitch": 65,
          "onset": 174.3438,
          "duration": 0.3125,
          "velocity": 100
        },
        {
          "pitch": 63,
          "onset": 174.6562,
          "duration": 0.3125,
          "velocity": 100
        },
        {
          "pitch": 68,
          "onset": 175.0,
          "duration": 0.3125,
          "velocity": 100
        },
        {
          "pitch": 77,
          "onset": 175.0,
          "duration": 1.0,
          "velocity": 100
        },
        {
          "pitch": 63,
          "onset": 175.3438,
          "duration": 0.3125,
          "velocity": 100
        },
        {
          "pitch": 62,
          "onset": 175.6562,
          "duration": 0.3125,
          "velocity": 100
        },
        {
          "pitch": 63,
          "onset": 176.0,
          "duration": 1.0,
          "velocity": 100
        },
        {
          "pitch": 79,
          "onset": 176.0,
          "duration": 0.3125,
          "velocity": 100
        },
        {
          "pitch": 77,
          "onset": 176.3438,
          "duration": 0.3125,
          "velocity": 100
        },
        {
          "pitch": 75,
          "onset": 176.6562,
          "duration": 0.3125,
          "velocity": 100
        },
        {
          "pitch": 77,
          "onset": 177.0,
          "duration": 0.3125,
          "velocity": 100
        },
        {
          "pitch": 82,
          "onset": 177.3438,
          "duration": 0.3125,
          "velocity": 100
        },
        {
          "pitch": 74,
          "onset": 177.6562,
          "duration": 0.3125,
          "velocity": 100
        },
        {
          "pitch": 75,
          "onset": 178.0,
          "duration": 0.3125,
          "velocity": 100
        },
        {
          "pitch": 74,
          "onset": 178.3438,
          "duration": 0.3125,
          "velocity": 100
        },
        {
          "pitch": 72,
          "onset": 178.6562,
          "duration": 0.6562,
          "velocity": 100
        },
        {
          "pitch": 77,
          "onset": 179.3438,
          "duration": 0.3125,
          "velocity": 100
        },
        {
          "pitch": 72,
          "onset": 179.6562,
          "duration": 0.3125,
          "velocity": 100
        },
        {
          "pitch": 74,
          "onset": 180.0,
          "duration": 0.3125,
          "velocity": 100
        },
        {
          "pitch": 72,
          "onset": 180.3438,
          "duration": 0.3125,
          "velocity": 100
        },
        {
          "pitch": 70,
          "onset": 180.6562,
          "duration": 0.6562,
          "velocity": 100
        },
        {
          "pitch": 79,
          "onset": 181.3438,
          "duration": 0.3125,
          "velocity": 100
        },
        {
          "pitch": 70,
          "onset": 181.6562,
          "duration": 0.3125,
          "velocity": 100
        },
        {
          "pitch": 72,
          "onset": 182.0,
          "duration": 0.3125,
          "velocity": 100
        },
        {
          "pitch": 70,
          "onset": 182.3438,
          "duration": 0.3125,
          "velocity": 100
        },
        {
          "pitch": 69,
          "onset": 182.6562,
          "duration": 0.6562,
          "velocity": 100
        },
        {
          "pitch": 74,
          "onset": 183.3438,
          "duration": 0.3125,
          "velocity": 100
        },
        {
          "pitch": 69,
          "onset": 183.6562,
          "duration": 0.3125,
          "velocity": 100
        },
        {
          "pitch": 70,
          "onset": 184.0,
          "duration": 2.3125,
          "velocity": 100
        },
        {
          "pitch": 67,
          "onset": 184.3438,
          "duration": 0.3125,
          "velocity": 100
        },
        {
          "pitch": 65,
          "onset": 184.6562,
          "duration": 0.3125,
          "velocity": 100
        },
        {
          "pitch": 63,
          "onset": 185.0,
          "duration": 0.3125,
          "velocity": 100
        },
        {
          "pitch": 65,
          "onset": 185.3438,
          "duration": 0.3125,
          "velocity": 100
        },
        {
          "pitch": 62,
          "onset": 185.6562,
          "duration": 0.3125,
          "velocity": 100
        },
        {
          "pitch": 61,
          "onset": 186.0,
          "duration": 1.3125,
          "velocity": 100
        },
        {
          "pitch": 67,
          "onset": 186.3438,
          "duration": 0.3125,
          "velocity": 100
        },
        {
          "pitch": 70,
          "onset": 186.6562,
          "duration": 0.3125,
          "velocity": 100
        },
        {
          "pitch": 69,
          "onset": 187.0,
          "duration": 1.3125,
          "velocity": 100
        },
        {
          "pitch": 62,
          "onset": 187.3438,
          "duration": 0.3125,
          "velocity": 100
        },
        {
          "pitch": 60,
          "onset": 187.6562,
          "duration": 0.3125,
          "velocity": 100
        },
        {
          "pitch": 66,
          "onset": 188.3438,
          "duration": 0.3125,
          "velocity": 100
        },
        {
          "pitch": 69,
          "onset": 188.6562,
          "duration": 0.3125,
          "velocity": 100
        },
        {
          "pitch": 67,
          "onset": 189.0,
          "duration": 2.0,
          "velocity": 100
        },
        {
          "pitch": 66,
          "onset": 191.0,
          "duration": 1.0,
          "velocity": 100
        },
        {
          "pitch": 67,
          "onset": 192.0,
          "duration": 2.0,
          "velocity": 100
        },
        {
          "pitch": 70,
          "onset": 194.0,
          "duration": 2.0,
          "velocity": 100
        },
        {
          "pitch": 74,
          "onset": 194.0,
          "duration": 2.0,
          "velocity": 100
        },
        {
          "pitch": 79,
          "onset": 194.0,
          "duration": 2.0,
          "velocity": 100
        },
        {
          "pitch": 69,
          "onset": 198.0,
          "duration": 1.0,
          "velocity": 100
        },
        {
          "pitch": 72,
          "onset": 198.0,
          "duration": 1.0,
          "velocity": 100
        },
        {
          "pitch": 78,
          "onset": 198.0,
          "duration": 1.0,
          "velocity": 100
        },
        {
          "pitch": 70,
          "onset": 199.0,
          "duration": 1.0,
          "velocity": 100
        },
        {
          "pitch": 74,
          "onset": 199.0,
          "duration": 1.0,
          "velocity": 100
        },
        {
          "pitch": 79,
          "onset": 199.0,
          "duration": 1.0,
          "velocity": 100
        },
        {
          "pitch": 72,
          "onset": 200.0,
          "duration": 2.0,
          "velocity": 100
        },
        {
          "pitch": 75,
          "onset": 200.0,
          "duration": 2.0,
          "velocity": 100
        },
        {
          "pitch": 81,
          "onset": 200.0,
          "duration": 2.0,
          "velocity": 100
        },
        {
          "pitch": 72,
          "onset": 203.0,
          "duration": 1.0,
          "velocity": 100
        },
        {
          "pitch": 75,
          "onset": 203.0,
          "duration": 1.0,
          "velocity": 100
        },
        {
          "pitch": 81,
          "onset": 203.0,
          "duration": 1.0,
          "velocity": 100
        },
        {
          "pitch": 72,
          "onset": 204.0,
          "duration": 1.0,
          "velocity": 100
        },
        {
          "pitch": 74,
          "onset": 204.0,
          "duration": 2.0,
          "velocity": 100
        },
        {
          "pitch": 81,
          "onset": 204.0,
          "duration": 1.0,
          "velocity": 100
        },
        {
          "pitch": 70,
          "onset": 205.0,
          "duration": 1.0,
          "velocity": 100
        },
        {
          "pitch": 79,
          "onset": 205.0,
          "duration": 1.0,
          "velocity": 100
        },
        {
          "pitch": 67,
          "onset": 208.0,
          "duration": 2.0,
          "velocity": 100
        },
        {
          "pitch": 70,
          "onset": 208.0,
          "duration": 2.0,
          "velocity": 100
        },
        {
          "pitch": 69,
          "onset": 210.0,
          "duration": 2.0,
          "velocity": 100
        },
        {
          "pitch": 72,
          "onset": 210.0,
          "duration": 2.0,
          "velocity": 100
        },
        {
          "pitch": 70,
          "onset": 212.0,
          "duration": 2.0,
          "velocity": 100
        },
        {
          "pitch": 74,
          "onset": 212.0,
          "duration": 2.0,
          "velocity": 100
        },
        {
          "pitch": 72,
          "onset": 214.0,
          "duration": 2.0,
          "velocity": 100
        },
        {
          "pitch": 75,
          "onset": 214.0,
          "duration": 2.0,
          "velocity": 100
        },
        {
          "pitch": 69,
          "onset": 216.0,
          "duration": 1.0,
          "velocity": 100
        },
        {
          "pitch": 74,
          "onset": 216.0,
          "duration": 1.0,
          "velocity": 100
        },
        {
          "pitch": 72,
          "onset": 217.0,
          "duration": 1.0,
          "velocity": 100
        },
        {
          "pitch": 78,
          "onset": 217.0,
          "duration": 1.0,
          "velocity": 100
        },
        {
          "pitch": 70,
          "onset": 218.0,
          "duration": 1.0,
          "velocity": 100
        },
        {
          "pitch": 79,
          "onset": 218.0,
          "duration": 1.0,
          "velocity": 100
        },
        {
          "pitch": 69,
          "onset": 219.0,
          "duration": 1.0,
          "velocity": 100
        },
        {
          "pitch": 81,
          "onset": 219.0,
          "duration": 1.0,
          "velocity": 100
        },
        {
          "pitch": 67,
          "onset": 220.0,
          "duration": 0.75,
          "velocity": 100
        },
        {
          "pitch": 62,
          "onset": 220.75,
          "duration": 0.25,
          "velocity": 100
        },
        {
          "pitch": 74,
          "onset": 221.0,
          "duration": 0.3125,
          "velocity": 100
        },
        {
          "pitch": 73,
          "onset": 221.3438,
          "duration": 0.3125,
          "velocity": 100
        },
        {
          "pitch": 74,
          "onset": 221.6562,
          "duration": 0.3125,
          "velocity": 100
        },
        {
          "pitch": 76,
          "onset": 222.0,
          "duration": 1.3125,
          "velocity": 100
        },
        {
          "pitch": 73,
          "onset": 222.3438,
          "duration": 0.3125,
          "velocity": 100
        },
        {
          "pitch": 71,
          "onset": 222.6562,
          "duration": 0.3125,
          "velocity": 100
        },
        {
          "pitch": 73,
          "onset": 223.0,
          "duration": 0.3125,
          "velocity": 100
        },
        {
          "pitch": 76,
          "onset": 223.3438,
          "duration": 0.6562,
          "velocity": 100
        },
        {
          "pitch": 70,
          "onset": 223.6562,
          "duration": 0.3125,
          "velocity": 100
        },
        {
          "pitch": 69,
          "onset": 224.0,
          "duration": 0.3125,
          "velocity": 100
        },
        {
          "pitch": 72,
          "onset": 224.3438,
          "duration": 0.3125,
          "velocity": 100
        },
        {
          "pitch": 72,
          "onset": 224.6562,
          "duration": 0.3125,
          "velocity": 100
        },
        {
          "pitch": 74,
          "onset": 225.0,
          "duration": 0.3125,
          "velocity": 100
        },
        {
          "pitch": 76,
          "onset": 225.3438,
          "duration": 0.3125,
          "velocity": 100
        },
        {
          "pitch": 77,
          "onset": 225.6562,
          "duration": 0.3125,
          "velocity": 100
        },
        {
          "pitch": 75,
          "onset": 226.3438,
          "duration": 0.3125,
          "velocity": 100
        },
        {
          "pitch": 74,
          "onset": 226.6562,
          "duration": 0.3125,
          "velocity": 100
        },
        {
          "pitch": 75,
          "onset": 227.0,
          "duration": 0.3125,
          "velocity": 100
        },
        {
          "pitch": 79,
          "onset": 227.3438,
          "duration": 0.3125,
          "velocity": 100
        },
        {
          "pitch": 74,
          "onset": 227.6562,
          "duration": 0.3125,
          "velocity": 100
        },
        {
          "pitch": 73,
          "onset": 228.0,
          "duration": 0.3125,
          "velocity": 100
        },
        {
          "pitch": 81,
          "onset": 228.0,
          "duration": 1.0,
          "velocity": 100
        },
        {
          "pitch": 76,
          "onset": 228.3438,
          "duration": 0.3125,
          "velocity": 100
        },
        {
          "pitch": 73,
          "onset": 228.6562,
          "duration": 0.3125,
          "velocity": 100
        },
        {
          "pitch": 69,
          "onset": 229.0,
          "duration": 0.3125,
          "velocity": 100
        },
        {
          "pitch": 79,
          "onset": 229.0,
          "duration": 1.0,
          "velocity": 100
        },
        {
          "pitch": 73,
          "onset": 229.3438,
          "duration": 0.3125,
          "velocity": 100
        },
        {
          "pitch": 76,
          "onset": 229.6562,
          "duration": 0.3125,
          "velocity": 100
        },
        {
          "pitch": 69,
          "onset": 230.0,
          "duration": 0.3125,
          "velocity": 100
        },
        {
          "pitch": 77,
          "onset": 230.0,
          "duration": 1.0,
          "velocity": 100
        },
        {
          "pitch": 64,
          "onset": 230.3438,
          "duration": 0.3125,
          "velocity": 100
        },
        {
          "pitch": 62,
          "onset": 230.6562,
          "duration": 0.3125,
          "velocity": 100
        },
        {
          "pitch": 67,
          "onset": 231.0,
          "duration": 0.3125,
          "velocity": 100
        },
        {
          "pitch": 76,
          "onset": 231.0,
          "duration": 1.3125,
          "velocity": 100
        },
        {
          "pitch": 62,
          "onset": 231.3438,
          "duration": 0.3125,
          "velocity": 100
        },
        {
          "pitch": 61,
          "onset": 231.6562,
          "duration": 0.3125,
          "velocity": 100
        },
        {
          "pitch": 65,
          "onset": 232.0,
          "duration": 1.3125,
          "velocity": 100
        },
        {
          "pitch": 69,
          "onset": 232.3438,
          "duration": 0.3125,
          "velocity": 100
        },
        {
          "pitch": 73,
          "onset": 232.6562,
          "duration": 0.3125,
          "velocity": 100
        },
        {
          "pitch": 74,
          "onset": 233.0,
          "duration": 1.3125,
          "velocity": 100
        },
        {
          "pitch": 70,
          "onset": 233.3438,
          "duration": 0.3125,
          "velocity": 100
        },
        {
          "pitch": 67,
          "onset": 233.6562,
          "duration": 0.3125,
          "velocity": 100
        },
        {
          "pitch": 64,
          "onset": 234.0,
          "duration": 1.3125,
          "velocity": 100
        },
        {
          "pitch": 67,
          "onset": 234.3438,
          "duration": 0.3125,
          "velocity": 100
        },
        {
          "pitch": 70,
          "onset": 234.6562,
          "duration": 0.3125,
          "velocity": 100
        },
        {
          "pitch": 72,
          "onset": 235.0,
          "duration": 1.3125,
          "velocity": 100
        },
        {
          "pitch": 69,
          "onset": 235.3438,
          "duration": 0.3125,
          "velocity": 100
        },
        {
          "pitch": 66,
          "onset": 235.6562,
          "duration": 0.3125,
          "velocity": 100
        },
        {
          "pitch": 62,
          "onset": 236.0,
          "duration": 0.3125,
          "velocity": 100
        },
        {
          "pitch": 70,
          "onset": 236.3438,
          "duration": 0.3125,
          "velocity": 100
        },
        {
          "pitch": 74,
          "onset": 236.6562,
          "duration": 0.3125,
          "velocity": 100
        },
        {
          "pitch": 79,
          "onset": 237.0,
          "duration": 0.3125,
          "velocity": 100
        },
        {
          "pitch": 78,
          "onset": 237.3438,
          "duration": 0.3125,
          "velocity": 100
        },
        {
          "pitch": 79,
          "onset": 237.6562,
          "duration": 0.6562,
          "velocity": 100
        },
        {
          "pitch": 78,
          "onset": 238.3438,
          "duration": 0.3125,
          "velocity": 100
        },
        {
          "pitch": 76,
          "onset": 238.6562,
          "duration": 0.3125,
          "velocity": 100
        },
        {
          "pitch": 78,
          "onset": 239.0,
          "duration": 0.3125,
          "velocity": 100
        },
        {
          "pitch": 81,
          "onset": 239.3438,
          "duration": 0.3125,
          "velocity": 100
        },
        {
          "pitch": 75,
          "onset": 239.6562,
          "duration": 0.3125,
          "velocity": 100
        },
        {
          "pitch": 74,
          "onset": 240.0,
          "duration": 0.3125,
          "velocity": 100
        },
        {
          "pitch": 76,
          "onset": 240.3438,
          "duration": 0.3125,
          "velocity": 100
        },
        {
          "pitch": 78,
          "onset": 240.6562,
          "duration": 0.3125,
          "velocity": 100
        },
        {
          "pitch": 79,
          "onset": 241.0,
          "duration": 0.3125,
          "velocity": 100
        },
        {
          "pitch": 81,
          "onset": 241.3438,
          "duration": 0.3125,
          "velocity": 100
        },
        {
          "pitch": 82,
          "onset": 241.6562,
          "duration": 0.6562,
          "velocity": 100
        },
        {
          "pitch": 80,
          "onset": 242.3438,
          "duration": 0.3125,
          "velocity": 100
        },
        {
          "pitch": 79,
          "onset": 242.6562,
          "duration": 0.3125,
          "velocity": 100
        },
        {
          "pitch": 80,
          "onset": 243.0,
          "duration": 0.3125,
          "velocity": 100
        },
        {
          "pitch": 84,
          "onset": 243.3438,
          "duration": 0.3125,
          "velocity": 100
        },
        {
          "pitch": 79,
          "onset": 243.6562,
          "duration": 0.3125,
          "velocity": 100
        },
        {
          "pitch": 78,
          "onset": 244.0,
          "duration": 0.3125,
          "velocity": 100
        },
        {
          "pitch": 81,
          "onset": 244.3438,
          "duration": 0.3125,
          "velocity": 100
        },
        {
          "pitch": 78,
          "onset": 244.6562,
          "duration": 0.3125,
          "velocity": 100
        },
        {
          "pitch": 75,
          "onset": 245.0,
          "duration": 0.3125,
          "velocity": 100
        },
        {
          "pitch": 78,
          "onset": 245.3438,
          "duration": 0.3125,
          "velocity": 100
        },
        {
          "pitch": 81,
          "onset": 245.6562,
          "duration": 0.3125,
          "velocity": 100
        },
        {
          "pitch": 74,
          "onset": 246.0,
          "duration": 0.3125,
          "velocity": 100
        },
        {
          "pitch": 81,
          "onset": 246.3438,
          "duration": 0.3125,
          "velocity": 100
        },
        {
          "pitch": 79,
          "onset": 246.6562,
          "duration": 0.3125,
          "velocity": 100
        },
        {
          "pitch": 72,
          "onset": 247.0,
          "duration": 0.3125,
          "velocity": 100
        },
        {
          "pitch": 79,
          "onset": 247.3438,
          "duration": 0.3125,
          "velocity": 100
        },
        {
          "pitch": 78,
          "onset": 247.6562,
          "duration": 0.3125,
          "velocity": 100
        },
        {
          "pitch": 70,
          "onset": 248.0,
          "duration": 0.3125,
          "velocity": 100
        },
        {
          "pitch": 74,
          "onset": 248.3438,
          "duration": 0.3125,
          "velocity": 100
        },
        {
          "pitch": 70,
          "onset": 248.6562,
          "duration": 0.3125,
          "velocity": 100
        },
        {
          "pitch": 68,
          "onset": 249.0,
          "duration": 0.3125,
          "velocity": 100
        },
        {
          "pitch": 71,
          "onset": 249.3438,
          "duration": 0.3125,
          "velocity": 100
        },
        {
          "pitch": 74,
          "onset": 249.6562,
          "duration": 0.3125,
          "velocity": 100
        },
        {
          "pitch": 67,
          "onset": 250.0,
          "duration": 0.3125,
          "velocity": 100
        },
        {
          "pitch": 74,
          "onset": 250.3438,
          "duration": 0.3125,
          "velocity": 100
        },
        {
          "pitch": 72,
          "onset": 250.6562,
          "duration": 0.3125,
          "velocity": 100
        },
        {
          "pitch": 65,
          "onset": 251.0,
          "duration": 0.3125,
          "velocity": 100
        },
        {
          "pitch": 72,
          "onset": 251.3438,
          "duration": 0.3125,
          "velocity": 100
        },
        {
          "pitch": 71,
          "onset": 251.6562,
          "duration": 0.3125,
          "velocity": 100
        },
        {
          "pitch": 63,
          "onset": 252.0,
          "duration": 0.3125,
          "velocity": 100
        },
        {
          "pitch": 67,
          "onset": 252.3438,
          "duration": 0.3125,
          "velocity": 100
        },
        {
          "pitch": 63,
          "onset": 252.6562,
          "duration": 0.3125,
          "velocity": 100
        },
        {
          "pitch": 60,
          "onset": 253.0,
          "duration": 0.3125,
          "velocity": 100
        },
        {
          "pitch": 64,
          "onset": 253.3438,
          "duration": 0.3125,
          "velocity": 100
        },
        {
          "pitch": 67,
          "onset": 253.6562,
          "duration": 0.3125,
          "velocity": 100
        },
        {
          "pitch": 72,
          "onset": 254.0,
          "duration": 0.3125,
          "velocity": 100
        },
        {
          "pitch": 67,
          "onset": 254.3438,
          "duration": 0.3125,
          "velocity": 100
        },
        {
          "pitch": 65,
          "onset": 254.6562,
          "duration": 0.3125,
          "velocity": 100
        },
        {
          "pitch": 70,
          "onset": 255.0,
          "duration": 0.3125,
          "velocity": 100
        },
        {
          "pitch": 65,
          "onset": 255.3438,
          "duration": 0.3125,
          "velocity": 100
        },
        {
          "pitch": 64,
          "onset": 255.6562,
          "duration": 0.3125,
          "velocity": 100
        },
        {
          "pitch": 68,
          "onset": 256.0,
          "duration": 0.3125,
          "velocity": 100
        },
        {
          "pitch": 72,
          "onset": 256.3438,
          "duration": 0.3125,
          "velocity": 100
        },
        {
          "pitch": 68,
          "onset": 256.6562,
          "duration": 0.3125,
          "velocity": 100
        },
        {
          "pitch": 65,
          "onset": 257.0,
          "duration": 0.3125,
          "velocity": 100
        },
        {
          "pitch": 69,
          "onset": 257.3438,
          "duration": 0.3125,
          "velocity": 100
        },
        {
          "pitch": 72,
          "onset": 257.6562,
          "duration": 0.3125,
          "velocity": 100
        },
        {
          "pitch": 77,
          "onset": 258.0,
          "duration": 0.3125,
          "velocity": 100
        },
        {
          "pitch": 72,
          "onset": 258.3438,
          "duration": 0.3125,
          "velocity": 100
        },
        {
          "pitch": 70,
          "onset": 258.6562,
          "duration": 0.3125,
          "velocity": 100
        },
        {
          "pitch": 75,
          "onset": 259.0,
          "duration": 0.3125,
          "velocity": 100
        },
        {
          "pitch": 70,
          "onset": 259.3438,
          "duration": 0.3125,
          "velocity": 100
        },
        {
          "pitch": 69,
          "onset": 259.6562,
          "duration": 0.3125,
          "velocity": 100
        },
        {
          "pitch": 53,
          "onset": 260.0,
          "duration": 0.3125,
          "velocity": 100
        },
        {
          "pitch": 74,
          "onset": 260.0,
          "duration": 3.0,
          "velocity": 100
        },
        {
          "pitch": 58,
          "onset": 260.3438,
          "duration": 0.3125,
          "velocity": 100
        },
        {
          "pitch": 62,
          "onset": 260.6562,
          "duration": 0.3125,
          "velocity": 100
        },
        {
          "pitch": 65,
          "onset": 261.0,
          "duration": 0.3125,
          "velocity": 100
        },
        {
          "pitch": 70,
          "onset": 261.3438,
          "duration": 0.3125,
          "velocity": 100
        },
        {
          "pitch": 62,
          "onset": 261.6562,
          "duration": 0.3125,
          "velocity": 100
        },
        {
          "pitch": 63,
          "onset": 262.0,
          "duration": 0.3125,
          "velocity": 100
        },
        {
          "pitch": 65,
          "onset": 262.3438,
          "duration": 0.3125,
          "velocity": 100
        },
        {
          "pitch": 67,
          "onset": 262.6562,
          "duration": 0.6562,
          "velocity": 100
        },
        {
          "pitch": 72,
          "onset": 263.0,
          "duration": 2.0,
          "velocity": 100
        },
        {
          "pitch": 69,
          "onset": 263.3438,
          "duration": 0.3125,
          "velocity": 100
        },
        {
          "pitch": 60,
          "onset": 263.6562,
          "duration": 0.3125,
          "velocity": 100
        },
        {
          "pitch": 62,
          "onset": 264.0,
          "duration": 0.3125,
          "velocity": 100
        },
        {
          "pitch": 63,
          "onset": 264.3438,
          "duration": 0.3125,
          "velocity": 100
        },
        {
          "pitch": 65,
          "onset": 264.6562,
          "duration": 0.6562,
          "velocity": 100
        },
        {
          "pitch": 70,
          "onset": 265.0,
          "duration": 2.0,
          "velocity": 100
        },
        {
          "pitch": 67,
          "onset": 265.3438,
          "duration": 0.3125,
          "velocity": 100
        },
        {
          "pitch": 58,
          "onset": 265.6562,
          "duration": 0.3125,
          "velocity": 100
        },
        {
          "pitch": 60,
          "onset": 266.0,
          "duration": 0.3125,
          "velocity": 100
        },
        {
          "pitch": 62,
          "onset": 266.3438,
          "duration": 0.3125,
          "velocity": 100
        },
        {
          "pitch": 63,
          "onset": 266.6562,
          "duration": 0.6562,
          "velocity": 100
        },
        {
          "pitch": 69,
          "onset": 267.0,
          "duration": 1.3125,
          "velocity": 100
        },
        {
          "pitch": 65,
          "onset": 267.3438,
          "duration": 0.3125,
          "velocity": 100
        },
        {
          "pitch": 60,
          "onset": 267.6562,
          "duration": 0.3125,
          "velocity": 100
        },
        {
          "pitch": 67,
          "onset": 268.3438,
          "duration": 0.3125,
          "velocity": 100
        },
        {
          "pitch": 66,
          "onset": 268.6562,
          "duration": 0.3125,
          "velocity": 100
        },
        {
          "pitch": 67,
          "onset": 269.0,
          "duration": 0.3125,
          "velocity": 100
        },
        {
          "pitch": 79,
          "onset": 269.3438,
          "duration": 0.3125,
          "velocity": 100
        },
        {
          "pitch": 70,
          "onset": 269.6562,
          "duration": 0.3125,
          "velocity": 100
        },
        {
          "pitch": 72,
          "onset": 270.0,
          "duration": 0.3125,
          "velocity": 100
        },
        {
          "pitch": 74,
          "onset": 270.3438,
          "duration": 0.3125,
          "velocity": 100
        },
        {
          "pitch": 75,
          "onset": 270.6562,
          "duration": 0.6562,
          "velocity": 100
        },
        {
          "pitch": 77,
          "onset": 271.3438,
          "duration": 0.3125,
          "velocity": 100
        },
        {
          "pitch": 69,
          "onset": 271.6562,
          "duration": 0.3125,
          "velocity": 100
        },
        {
          "pitch": 70,
          "onset": 272.0,
          "duration": 0.3125,
          "velocity": 100
        },
        {
          "pitch": 72,
          "onset": 272.3438,
          "duration": 0.3125,
          "velocity": 100
        },
        {
          "pitch": 74,
          "onset": 272.6562,
          "duration": 0.6562,
          "velocity": 100
        },
        {
          "pitch": 75,
          "onset": 273.3438,
          "duration": 0.3125,
          "velocity": 100
        },
        {
          "pitch": 67,
          "onset": 273.6562,
          "duration": 0.3125,
          "velocity": 100
        },
        {
          "pitch": 69,
          "onset": 274.0,
          "duration": 0.3125,
          "velocity": 100
        },
        {
          "pitch": 70,
          "onset": 274.3438,
          "duration": 0.3125,
          "velocity": 100
        },
        {
          "pitch": 72,
          "onset": 274.6562,
          "duration": 0.6562,
          "velocity": 100
        },
        {
          "pitch": 70,
          "onset": 275.3438,
          "duration": 0.3125,
          "velocity": 100
        },
        {
          "pitch": 69,
          "onset": 275.6562,
          "duration": 0.3125,
          "velocity": 100
        },
        {
          "pitch": 70,
          "onset": 276.0,
          "duration": 0.3125,
          "velocity": 100
        },
        {
          "pitch": 67,
          "onset": 276.3438,
          "duration": 0.3125,
          "velocity": 100
        },
        {
          "pitch": 69,
          "onset": 276.6562,
          "duration": 0.3125,
          "velocity": 100
        },
        {
          "pitch": 70,
          "onset": 277.0,
          "duration": 0.3125,
          "velocity": 100
        },
        {
          "pitch": 72,
          "onset": 277.3438,
          "duration": 0.3125,
          "velocity": 100
        },
        {
          "pitch": 74,
          "onset": 277.6562,
          "duration": 0.3125,
          "velocity": 100
        },
        {
          "pitch": 75,
          "onset": 278.0,
          "duration": 6.0,
          "velocity": 100
        },
        {
          "pitch": 74,
          "onset": 278.3438,
          "duration": 0.3125,
          "velocity": 100
        },
        {
          "pitch": 72,
          "onset": 278.6562,
          "duration": 0.3125,
          "velocity": 100
        },
        {
          "pitch": 74,
          "onset": 279.0,
          "duration": 0.3125,
          "velocity": 100
        },
        {
          "pitch": 72,
          "onset": 279.3438,
          "duration": 0.3125,
          "velocity": 100
        },
        {
          "pitch": 70,
          "onset": 279.6562,
          "duration": 0.3125,
          "velocity": 100
        },
        {
          "pitch": 69,
          "onset": 280.0,
          "duration": 0.5,
          "velocity": 100
        },
        {
          "pitch": 65,
          "onset": 280.5,
          "duration": 0.5,
          "velocity": 100
        },
        {
          "pitch": 65,
          "onset": 281.0,
          "duration": 0.5,
          "velocity": 100
        },
        {
          "pitch": 67,
          "onset": 281.5,
          "duration": 0.5,
          "velocity": 100
        },
        {
          "pitch": 67,
          "onset": 282.0,
          "duration": 0.5,
          "velocity": 100
        },
        {
          "pitch": 69,
          "onset": 282.5,
          "duration": 0.5,
          "velocity": 100
        },
        {
          "pitch": 69,
          "onset": 283.0,
          "duration": 0.5,
          "velocity": 100
        },
        {
          "pitch": 70,
          "onset": 283.5,
          "duration": 0.5,
          "velocity": 100
        },
        {
          "pitch": 70,
          "onset": 284.0,
          "duration": 5.0,
          "velocity": 100
        },
        {
          "pitch": 74,
          "onset": 284.0,
          "duration": 4.5,
          "velocity": 100
        },
        {
          "pitch": 79,
          "onset": 288.5,
          "duration": 0.5,
          "velocity": 100
        },
        {
          "pitch": 79,
          "onset": 289.0,
          "duration": 0.5,
          "velocity": 100
        },
        {
          "pitch": 77,
          "onset": 289.5,
          "duration": 0.5,
          "velocity": 100
        },
        {
          "pitch": 77,
          "onset": 290.0,
          "duration": 0.5,
          "velocity": 100
        },
        {
          "pitch": 75,
          "onset": 290.5,
          "duration": 0.5,
          "velocity": 100
        },
        {
          "pitch": 75,
          "onset": 291.0,
          "duration": 0.5,
          "velocity": 100
        },
        {
          "pitch": 74,
          "onset": 291.5,
          "duration": 0.5,
          "velocity": 100
        },
        {
          "pitch": 74,
          "onset": 292.0,
          "duration": 0.5,
          "velocity": 100
        },
        {
          "pitch": 72,
          "onset": 292.5,
          "duration": 0.5,
          "velocity": 100
        },
        {
          "pitch": 67,
          "onset": 293.0,
          "duration": 1.5,
          "velocity": 100
        },
        {
          "pitch": 72,
          "onset": 293.0,
          "duration": 0.5,
          "velocity": 100
        },
        {
          "pitch": 71,
          "onset": 293.5,
          "duration": 0.5,
          "velocity": 100
        },
        {
          "pitch": 72,
          "onset": 294.0,
          "duration": 3.0,
          "velocity": 100
        },
        {
          "pitch": 70,
          "onset": 294.5,
          "duration": 0.5,
          "velocity": 100
        },
        {
          "pitch": 69,
          "onset": 295.0,
          "duration": 0.5,
          "velocity": 100
        },
        {
          "pitch": 67,
          "onset": 295.5,
          "duration": 0.5,
          "velocity": 100
        },
        {
          "pitch": 66,
          "onset": 296.0,
          "duration": 1.0,
          "velocity": 100
        },
        {
          "pitch": 69,
          "onset": 299.0,
          "duration": 1.0,
          "velocity": 100
        },
        {
          "pitch": 72,
          "onset": 299.0,
          "duration": 1.0,
          "velocity": 100
        },
        {
          "pitch": 78,
          "onset": 299.0,
          "duration": 1.0,
          "velocity": 100
        },
        {
          "pitch": 70,
          "onset": 300.0,
          "duration": 2.0,
          "velocity": 100
        },
        {
          "pitch": 74,
          "onset": 300.0,
          "duration": 2.0,
          "velocity": 100
        },
        {
          "pitch": 79,
          "onset": 300.0,
          "duration": 2.0,
          "velocity": 100
        },
        {
          "pitch": 70,
          "onset": 303.0,
          "duration": 1.0,
          "velocity": 100
        },
        {
          "pitch": 74,
          "onset": 303.0,
          "duration": 1.0,
          "velocity": 100
        },
        {
          "pitch": 79,
          "onset": 303.0,
          "duration": 1.0,
          "velocity": 100
        },
        {
          "pitch": 70,
          "onset": 304.0,
          "duration": 2.0,
          "velocity": 100
        },
        {
          "pitch": 76,
          "onset": 304.0,
          "duration": 2.0,
          "velocity": 100
        },
        {
          "pitch": 79,
          "onset": 304.0,
          "duration": 2.0,
          "velocity": 100
        },
        {
          "pitch": 67,
          "onset": 307.0,
          "duration": 1.0,
          "velocity": 100
        },
        {
          "pitch": 70,
          "onset": 307.0,
          "duration": 1.0,
          "velocity": 100
        },
        {
          "pitch": 73,
          "onset": 307.0,
          "duration": 1.0,
          "velocity": 100
        },
        {
          "pitch": 69,
          "onset": 308.0,
          "duration": 1.0,
          "velocity": 100
        },
        {
          "pitch": 74,
          "onset": 308.0,
          "duration": 0.3125,
          "velocity": 100
        },
        {
          "pitch": 74,
          "onset": 308.3438,
          "duration": 0.3125,
          "velocity": 100
        },
        {
          "pitch": 76,
          "onset": 308.6562,
          "duration": 0.3125,
          "velocity": 100
        },
        {
          "pitch": 78,
          "onset": 309.0,
          "duration": 0.3125,
          "velocity": 100
        },
        {
          "pitch": 79,
          "onset": 309.3438,
          "duration": 0.3125,
          "velocity": 100
        },
        {
          "pitch": 81,
          "onset": 309.6562,
          "duration": 0.3125,
          "velocity": 100
        },
        {
          "pitch": 82,
          "onset": 310.0,
          "duration": 2.75,
          "velocity": 100
        },
        {
          "pitch": 78,
          "onset": 310.75,
          "duration": 0.25,
          "velocity": 100
        },
        {
          "pitch": 79,
          "onset": 311.0,
          "duration": 0.75,
          "velocity": 100
        },
        {
          "pitch": 75,
          "onset": 311.75,
          "duration": 0.25,
          "velocity": 100
        },
        {
          "pitch": 72,
          "onset": 312.0,
          "duration": 2.75,
          "velocity": 100
        },
        {
          "pitch": 82,
          "onset": 312.75,
          "duration": 0.25,
          "velocity": 100
        },
        {
          "pitch": 81,
          "onset": 313.0,
          "duration": 0.75,
          "velocity": 100
        },
        {
          "pitch": 79,
          "onset": 313.75,
          "duration": 0.25,
          "velocity": 100
        },
        {
          "pitch": 81,
          "onset": 314.0,
          "duration": 3.0,
          "velocity": 100
        },
        {
          "pitch": 75,
          "onset": 314.75,
          "duration": 0.25,
          "velocity": 100
        },
        {
          "pitch": 74,
          "onset": 315.0,
          "duration": 0.75,
          "velocity": 100
        },
        {
          "pitch": 72,
          "onset": 315.75,
          "duration": 0.25,
          "velocity": 100
        },
        {
          "pitch": 70,
          "onset": 316.0,
          "duration": 1.0,
          "velocity": 100
        },
        {
          "pitch": 79,
          "onset": 317.0,
          "duration": 0.75,
          "velocity": 100
        },
        {
          "pitch": 78,
          "onset": 317.75,
          "duration": 0.25,
          "velocity": 100
        },
        {
          "pitch": 79,
          "onset": 318.0,
          "duration": 0.3125,
          "velocity": 100
        },
        {
          "pitch": 67,
          "onset": 318.3438,
          "duration": 0.3125,
          "velocity": 100
        },
        {
          "pitch": 77,
          "onset": 318.6562,
          "duration": 0.3125,
          "velocity": 100
        },
        {
          "pitch": 75,
          "onset": 319.0,
          "duration": 0.3125,
          "velocity": 100
        },
        {
          "pitch": 74,
          "onset": 319.3438,
          "duration": 0.3125,
          "velocity": 100
        },
        {
          "pitch": 72,
          "onset": 319.6562,
          "duration": 0.3125,
          "velocity": 100
        },
        {
          "pitch": 80,
          "onset": 320.0,
          "duration": 0.3125,
          "velocity": 100
        },
        {
          "pitch": 74,
          "onset": 320.3438,
          "duration": 0.3125,
          "velocity": 100
        },
        {
          "pitch": 75,
          "onset": 320.6562,
          "duration": 0.3125,
          "velocity": 100
        },
        {
          "pitch": 77,
          "onset": 321.0,
          "duration": 0.3125,
          "velocity": 100
        },
        {
          "pitch": 79,
          "onset": 321.3438,
          "duration": 0.3125,
          "velocity": 100
        },
        {
          "pitch": 80,
          "onset": 321.6562,
          "duration": 0.3125,
          "velocity": 100
        },
        {
          "pitch": 71,
          "onset": 322.0,
          "duration": 0.3125,
          "velocity": 100
        },
        {
          "pitch": 74,
          "onset": 322.3438,
          "duration": 0.3125,
          "velocity": 100
        },
        {
          "pitch": 72,
          "onset": 322.6562,
          "duration": 0.3125,
          "velocity": 100
        },
        {
          "pitch": 71,
          "onset": 323.0,
          "duration": 0.3125,
          "velocity": 100
        },
        {
          "pitch": 69,
          "onset": 323.3438,
          "duration": 0.3125,
          "velocity": 100
        },
        {
          "pitch": 67,
          "onset": 323.6562,
          "duration": 0.3125,
          "velocity": 100
        },
        {
          "pitch": 55,
          "onset": 324.0,
          "duration": 0.3125,
          "velocity": 100
        },
        {
          "pitch": 67,
          "onset": 324.3438,
          "duration": 0.3125,
          "velocity": 100
        },
        {
          "pitch": 72,
          "onset": 324.6562,
          "duration": 0.3125,
          "velocity": 100
        },
        {
          "pitch": 75,
          "onset": 325.0,
          "duration": 0.3125,
          "velocity": 100
        },
        {
          "pitch": 74,
          "onset": 325.3438,
          "duration": 0.3125,
          "velocity": 100
        },
        {
          "pitch": 75,
          "onset": 325.6562,
          "duration": 0.3125,
          "velocity": 100
        },
        {
          "pitch": 74,
          "onset": 326.3438,
          "duration": 0.3125,
          "velocity": 100
        },
        {
          "pitch": 72,
          "onset": 326.6562,
          "duration": 0.3125,
          "velocity": 100
        },
        {
          "pitch": 74,
          "onset": 327.0,
          "duration": 0.3125,
          "velocity": 100
        },
        {
          "pitch": 77,
          "onset": 327.3438,
          "duration": 0.3125,
          "velocity": 100
        },
        {
          "pitch": 72,
          "onset": 327.6562,
          "duration": 0.3125,
          "velocity": 100
        },
        {
          "pitch": 71,
          "onset": 328.0,
          "duration": 0.3125,
          "velocity": 100
        },
        {
          "pitch": 72,
          "onset": 328.3438,
          "duration": 0.3125,
          "velocity": 100
        },
        {
          "pitch": 74,
          "onset": 328.6562,
          "duration": 0.3125,
          "velocity": 100
        },
        {
          "pitch": 75,
          "onset": 329.0,
          "duration": 0.3125,
          "velocity": 100
        },
        {
          "pitch": 77,
          "onset": 329.3438,
          "duration": 0.3125,
          "velocity": 100
        },
        {
          "pitch": 79,
          "onset": 329.6562,
          "duration": 0.3125,
          "velocity": 100
        },
        {
          "pitch": 77,
          "onset": 330.3438,
          "duration": 0.3125,
          "velocity": 100
        },
        {
          "pitch": 76,
          "onset": 330.6562,
          "duration": 0.3125,
          "velocity": 100
        },
        {
          "pitch": 77,
          "onset": 331.0,
          "duration": 0.3125,
          "velocity": 100
        },
        {
          "pitch": 80,
          "onset": 331.3438,
          "duration": 0.3125,
          "velocity": 100
        },
        {
          "pitch": 75,
          "onset": 331.6562,
          "duration": 0.3125,
          "velocity": 100
        },
        {
          "pitch": 74,
          "onset": 332.0,
          "duration": 1.0,
          "velocity": 100
        },
        {
          "pitch": 71,
          "onset": 333.0,
          "duration": 1.0,
          "velocity": 100
        },
        {
          "pitch": 79,
          "onset": 333.0,
          "duration": 1.0,
          "velocity": 100
        },
        {
          "pitch": 72,
          "onset": 334.0,
          "duration": 1.0,
          "velocity": 100
        },
        {
          "pitch": 81,
          "onset": 334.0,
          "duration": 1.0,
          "velocity": 100
        },
        {
          "pitch": 74,
          "onset": 335.0,
          "duration": 1.0,
          "velocity": 100
        },
        {
          "pitch": 83,
          "onset": 335.0,
          "duration": 1.0,
          "velocity": 100
        },
        {
          "pitch": 67,
          "onset": 336.0,
          "duration": 2.0,
          "velocity": 100
        },
        {
          "pitch": 84,
          "onset": 336.0,
          "duration": 1.0,
          "velocity": 100
        },
        {
          "pitch": 79,
          "onset": 337.0,
          "duration": 1.0,
          "velocity": 100
        },
        {
          "pitch": 80,
          "onset": 338.0,
          "duration": 4.0,
          "velocity": 100
        },
        {
          "pitch": 72,
          "onset": 339.0,
          "duration": 1.0,
          "velocity": 100
        },
        {
          "pitch": 71,
          "onset": 340.0,
          "duration": 2.0,
          "velocity": 100
        },
        {
          "pitch": 70,
          "onset": 342.0,
          "duration": 2.0,
          "velocity": 100
        },
        {
          "pitch": 79,
          "onset": 342.0,
          "duration": 3.0,
          "velocity": 100
        },
        {
          "pitch": 68,
          "onset": 344.0,
          "duration": 0.5,
          "velocity": 100
        },
        {
          "pitch": 70,
          "onset": 344.5,
          "duration": 0.5,
          "velocity": 100
        },
        {
          "pitch": 68,
          "onset": 345.0,
          "duration": 0.5,
          "velocity": 100
        },
        {
          "pitch": 77,
          "onset": 345.0,
          "duration": 1.0,
          "velocity": 100
        },
        {
          "pitch": 67,
          "onset": 345.5,
          "duration": 0.5,
          "velocity": 100
        },
        {
          "pitch": 65,
          "onset": 346.0,
          "duration": 0.5,
          "velocity": 100
        },
        {
          "pitch": 67,
          "onset": 346.5,
          "duration": 0.5,
          "velocity": 100
        },
        {
          "pitch": 69,
          "onset": 347.0,
          "duration": 0.5,
          "velocity": 100
        },
        {
          "pitch": 77,
          "onset": 347.0,
          "duration": 1.0,
          "velocity": 100
        },
        {
          "pitch": 65,
          "onset": 347.5,
          "duration": 0.5,
          "velocity": 100
        },
        {
          "pitch": 70,
          "onset": 348.0,
          "duration": 0.5,
          "velocity": 100
        },
        {
          "pitch": 76,
          "onset": 348.0,
          "duration": 2.0,
          "velocity": 100
        },
        {
          "pitch": 72,
          "onset": 348.5,
          "duration": 0.5,
          "velocity": 100
        },
        {
          "pitch": 69,
          "onset": 349.0,
          "duration": 0.5,
          "velocity": 100
        },
        {
          "pitch": 70,
          "onset": 349.5,
          "duration": 0.5,
          "velocity": 100
        },
        {
          "pitch": 72,
          "onset": 350.0,
          "duration": 0.5,
          "velocity": 100
        },
        {
          "pitch": 75,
          "onset": 350.0,
          "duration": 2.0,
          "velocity": 100
        },
        {
          "pitch": 69,
          "onset": 350.5,
          "duration": 0.5,
          "velocity": 100
        },
        {
          "pitch": 70,
          "onset": 351.0,
          "duration": 0.5,
          "velocity": 100
        },
        {
          "pitch": 72,
          "onset": 351.5,
          "duration": 0.5,
          "velocity": 100
        },
        {
          "pitch": 65,
          "onset": 352.0,
          "duration": 2.5,
          "velocity": 100
        },
        {
          "pitch": 73,
          "onset": 352.0,
          "duration": 3.0,
          "velocity": 100
        },
        {
          "pitch": 65,
          "onset": 354.5,
          "duration": 1.0,
          "velocity": 100
        },
        {
          "pitch": 72,
          "onset": 355.0,
          "duration": 1.0,
          "velocity": 100
        },
        {
          "pitch": 70,
          "onset": 356.0,
          "duration": 3.0,
          "velocity": 100
        },
        {
          "pitch": 66,
          "onset": 356.5,
          "duration": 0.5,
          "velocity": 100
        },
        {
          "pitch": 65,
          "onset": 357.0,
          "duration": 0.5,
          "velocity": 100
        },
        {
          "pitch": 63,
          "onset": 357.5,
          "duration": 0.5,
          "velocity": 100
        },
        {
          "pitch": 65,
          "onset": 358.0,
          "duration": 2.0,
          "velocity": 100
        },
        {
          "pitch": 68,
          "onset": 359.0,
          "duration": 1.0,
          "velocity": 100
        },
        {
          "pitch": 61,
          "onset": 360.0,
          "duration": 1.0,
          "velocity": 100
        },
        {
          "pitch": 66,
          "onset": 360.0,
          "duration": 1.0,
          "velocity": 100
        },
        {
          "pitch": 66,
          "onset": 362.0,
          "duration": 1.0,
          "velocity": 100
        },
        {
          "pitch": 70,
          "onset": 362.0,
          "duration": 1.0,
          "velocity": 100
        },
        {
          "pitch": 70,
          "onset": 364.0,
          "duration": 1.0,
          "velocity": 100
        },
        {
          "pitch": 73,
          "onset": 364.0,
          "duration": 1.0,
          "velocity": 100
        },
        {
          "pitch": 73,
          "onset": 366.0,
          "duration": 1.0,
          "velocity": 100
        },
        {
          "pitch": 78,
          "onset": 366.0,
          "duration": 1.0,
          "velocity": 100
        },
        {
          "pitch": 72,
          "onset": 369.0,
          "duration": 2.0,
          "velocity": 100
        },
        {
          "pitch": 79,
          "onset": 369.0,
          "duration": 1.0,
          "velocity": 100
        },
        {
          "pitch": 84,
          "onset": 369.0,
          "duration": 2.0,
          "velocity": 100
        },
        {
          "pitch": 80,
          "onset": 370.0,
          "duration": 1.0,
          "velocity": 100
        },
        {
          "pitch": 72,
          "onset": 371.0,
          "duration": 1.0,
          "velocity": 100
        },
        {
          "pitch": 76,
          "onset": 371.0,
          "duration": 1.0,
          "velocity": 100
        },
        {
          "pitch": 82,
          "onset": 371.0,
          "duration": 1.0,
          "velocity": 100
        },
        {
          "pitch": 72,
          "onset": 372.0,
          "duration": 1.0,
          "velocity": 100
        },
        {
          "pitch": 77,
          "onset": 372.0,
          "duration": 1.0,
          "velocity": 100
        },
        {
          "pitch": 80,
          "onset": 372.0,
          "duration": 1.0,
          "velocity": 100
        },
        {
          "pitch": 73,
          "onset": 373.0,
          "duration": 1.0,
          "velocity": 100
        },
        {
          "pitch": 76,
          "onset": 373.0,
          "duration": 1.0,
          "velocity": 100
        },
        {
          "pitch": 79,
          "onset": 373.0,
          "duration": 1.0,
          "velocity": 100
        },
        {
          "pitch": 72,
          "onset": 374.0,
          "duration": 1.0,
          "velocity": 100
        },
        {
          "pitch": 77,
          "onset": 374.0,
          "duration": 2.0,
          "velocity": 100
        },
        {
          "pitch": 77,
          "onset": 376.0,
          "duration": 0.1562,
          "velocity": 100
        },
        {
          "pitch": 79,
          "onset": 376.1562,
          "duration": 0.1562,
          "velocity": 100
        },
        {
          "pitch": 77,
          "onset": 376.3438,
          "duration": 0.1562,
          "velocity": 100
        },
        {
          "pitch": 79,
          "onset": 376.5,
          "duration": 0.1562,
          "velocity": 100
        },
        {
          "pitch": 77,
          "onset": 376.6562,
          "duration": 0.1562,
          "velocity": 100
        },
        {
          "pitch": 79,
          "onset": 376.8438,
          "duration": 0.1562,
          "velocity": 100
        },
        {
          "pitch": 77,
          "onset": 377.0,
          "duration": 0.1562,
          "velocity": 100
        },
        {
          "pitch": 79,
          "onset": 377.1562,
          "duration": 0.1562,
          "velocity": 100
        },
        {
          "pitch": 77,
          "onset": 377.3438,
          "duration": 0.1562,
          "velocity": 100
        },
        {
          "pitch": 79,
          "onset": 377.5,
          "duration": 0.1562,
          "velocity": 100
        },
        {
          "pitch": 77,
          "onset": 377.6562,
          "duration": 0.1562,
          "velocity": 100
        },
        {
          "pitch": 79,
          "onset": 377.8438,
          "duration": 0.1562,
          "velocity": 100
        },
        {
          "pitch": 77,
          "onset": 378.0,
          "duration": 0.1562,
          "velocity": 100
        },
        {
          "pitch": 79,
          "onset": 378.1562,
          "duration": 0.1562,
          "velocity": 100
        },
        {
          "pitch": 77,
          "onset": 378.3438,
          "duration": 0.1562,
          "velocity": 100
        },
        {
          "pitch": 79,
          "onset": 378.5,
          "duration": 0.1562,
          "velocity": 100
        },
        {
          "pitch": 77,
          "onset": 378.6562,
          "duration": 0.1562,
          "velocity": 100
        },
        {
          "pitch": 79,
          "onset": 378.8438,
          "duration": 0.1562,
          "velocity": 100
        },
        {
          "pitch": 77,
          "onset": 379.0,
          "duration": 0.1562,
          "velocity": 100
        },
        {
          "pitch": 79,
          "onset": 379.1562,
          "duration": 0.1562,
          "velocity": 100
        },
        {
          "pitch": 77,
          "onset": 379.3438,
          "duration": 0.1562,
          "velocity": 100
        },
        {
          "pitch": 79,
          "onset": 379.5,
          "duration": 0.1562,
          "velocity": 100
        },
        {
          "pitch": 77,
          "onset": 379.6562,
          "duration": 0.1562,
          "velocity": 100
        },
        {
          "pitch": 79,
          "onset": 379.8438,
          "duration": 0.1562,
          "velocity": 100
        },
        {
          "pitch": 77,
          "onset": 380.0,
          "duration": 0.75,
          "velocity": 100
        },
        {
          "pitch": 76,
          "onset": 380.75,
          "duration": 0.25,
          "velocity": 100
        },
        {
          "pitch": 77,
          "onset": 381.0,
          "duration": 0.75,
          "velocity": 100
        },
        {
          "pitch": 79,
          "onset": 381.75,
          "duration": 0.25,
          "velocity": 100
        },
        {
          "pitch": 80,
          "onset": 382.0,
          "duration": 0.3125,
          "velocity": 100
        },
        {
          "pitch": 79,
          "onset": 382.3438,
          "duration": 0.3125,
          "velocity": 100
        },
        {
          "pitch": 77,
          "onset": 382.6562,
          "duration": 0.3125,
          "velocity": 100
        },
        {
          "pitch": 79,
          "onset": 383.0,
          "duration": 1.0,
          "velocity": 100
        },
        {
          "pitch": 72,
          "onset": 383.3438,
          "duration": 0.3125,
          "velocity": 100
        },
        {
          "pitch": 70,
          "onset": 383.6562,
          "duration": 0.6562,
          "velocity": 100
        },
        {
          "pitch": 77,
          "onset": 384.0,
          "duration": 2.0,
          "velocity": 100
        },
        {
          "pitch": 68,
          "onset": 384.3438,
          "duration": 0.3125,
          "velocity": 100
        },
        {
          "pitch": 67,
          "onset": 384.6562,
          "duration": 0.3125,
          "velocity": 100
        },
        {
          "pitch": 68,
          "onset": 385.0,
          "duration": 1.0,
          "velocity": 100
        },
        {
          "pitch": 70,
          "onset": 386.0,
          "duration": 2.0,
          "velocity": 100
        },
        {
          "pitch": 79,
          "onset": 386.0,
          "duration": 2.0,
          "velocity": 100
        },
        {
          "pitch": 72,
          "onset": 388.0,
          "duration": 2.0,
          "velocity": 100
        },
        {
          "pitch": 80,
          "onset": 388.0,
          "duration": 2.0,
          "velocity": 100
        },
        {
          "pitch": 73,
          "onset": 390.0,
          "duration": 2.0,
          "velocity": 100
        },
        {
          "pitch": 82,
          "onset": 390.0,
          "duration": 4.0,
          "velocity": 100
        },
        {
          "pitch": 72,
          "onset": 392.0,
          "duration": 1.0,
          "velocity": 100
        },
        {
          "pitch": 76,
          "onset": 393.0,
          "duration": 1.0,
          "velocity": 100
        },
        {
          "pitch": 77,
          "onset": 394.0,
          "duration": 1.0,
          "velocity": 100
        },
        {
          "pitch": 80,
          "onset": 394.0,
          "duration": 1.0,
          "velocity": 100
        },
        {
          "pitch": 73,
          "onset": 395.0,
          "duration": 1.0,
          "velocity": 100
        },
        {
          "pitch": 79,
          "onset": 395.0,
          "duration": 1.0,
          "velocity": 100
        },
        {
          "pitch": 77,
          "onset": 396.0,
          "duration": 1.0,
          "velocity": 100
        },
        {
          "pitch": 72,
          "onset": 396.3438,
          "duration": 0.3125,
          "velocity": 100
        },
        {
          "pitch": 69,
          "onset": 396.6562,
          "duration": 0.3125,
          "velocity": 100
        },
        {
          "pitch": 65,
          "onset": 397.0,
          "duration": 0.3125,
          "velocity": 100
        },
        {
          "pitch": 69,
          "onset": 397.3438,
          "duration": 0.3125,
          "velocity": 100
        },
        {
          "pitch": 72,
          "onset": 397.6562,
          "duration": 0.3125,
          "velocity": 100
        },
        {
          "pitch": 77,
          "onset": 398.0,
          "duration": 0.3125,
          "velocity": 100
        },
        {
          "pitch": 72,
          "onset": 398.3438,
          "duration": 0.3125,
          "velocity": 100
        },
        {
          "pitch": 70,
          "onset": 398.6562,
          "duration": 0.3125,
          "velocity": 100
        },
        {
          "pitch": 75,
          "onset": 399.0,
          "duration": 0.3125,
          "velocity": 100
        },
        {
          "pitch": 70,
          "onset": 399.3438,
          "duration": 0.3125,
          "velocity": 100
        },
        {
          "pitch": 69,
          "onset": 399.6562,
          "duration": 0.3125,
          "velocity": 100
        },
        {
          "pitch": 77,
          "onset": 400.3438,
          "duration": 0.3125,
          "velocity": 100
        },
        {
          "pitch": 73,
          "onset": 400.6562,
          "duration": 0.3125,
          "velocity": 100
        },
        {
          "pitch": 70,
          "onset": 401.0,
          "duration": 0.3125,
          "velocity": 100
        },
        {
          "pitch": 73,
          "onset": 401.3438,
          "duration": 0.3125,
          "velocity": 100
        },
        {
          "pitch": 77,
          "onset": 401.6562,
          "duration": 0.3125,
          "velocity": 100
        },
        {
          "pitch": 82,
          "onset": 402.0,
          "duration": 0.3125,
          "velocity": 100
        },
        {
          "pitch": 77,
          "onset": 402.3438,
          "duration": 0.3125,
          "velocity": 100
        },
        {
          "pitch": 76,
          "onset": 402.6562,
          "duration": 0.3125,
          "velocity": 100
        },
        {
          "pitch": 80,
          "onset": 403.0,
          "duration": 0.3125,
          "velocity": 100
        },
        {
          "pitch": 77,
          "onset": 403.3438,
          "duration": 0.3125,
          "velocity": 100
        },
        {
          "pitch": 73,
          "onset": 403.6562,
          "duration": 0.3125,
          "velocity": 100
        },
        {
          "pitch": 71,
          "onset": 404.0,
          "duration": 0.3125,
          "velocity": 100
        },
        {
          "pitch": 80,
          "onset": 404.3438,
          "duration": 0.3125,
          "velocity": 100
        },
        {
          "pitch": 79,
          "onset": 404.6562,
          "duration": 0.3125,
          "velocity": 100
        },
        {
          "pitch": 72,
          "onset": 405.0,
          "duration": 0.3125,
          "velocity": 100
        },
        {
          "pitch": 70,
          "onset": 405.3438,
          "duration": 0.3125,
          "velocity": 100
        },
        {
          "pitch": 79,
          "onset": 405.6562,
          "duration": 0.3125,
          "velocity": 100
        },
        {
          "pitch": 69,
          "onset": 406.0,
          "duration": 0.3125,
          "velocity": 100
        },
        {
          "pitch": 79,
          "onset": 406.3438,
          "duration": 0.3125,
          "velocity": 100
        },
        {
          "pitch": 77,
          "onset": 406.6562,
          "duration": 0.3125,
          "velocity": 100
        },
        {
          "pitch": 70,
          "onset": 407.0,
          "duration": 0.3125,
          "velocity": 100
        },
        {
          "pitch": 68,
          "onset": 407.3438,
          "duration": 0.3125,
          "velocity": 100
        },
        {
          "pitch": 77,
          "onset": 407.6562,
          "duration": 0.3125,
          "velocity": 100
        },
        {
          "pitch": 67,
          "onset": 408.0,
          "duration": 0.3125,
          "velocity": 100
        },
        {
          "pitch": 77,
          "onset": 408.3438,
          "duration": 0.3125,
          "velocity": 100
        },
        {
          "pitch": 75,
          "onset": 408.6562,
          "duration": 0.3125,
          "velocity": 100
        },
        {
          "pitch": 68,
          "onset": 409.0,
          "duration": 0.3125,
          "velocity": 100
        },
        {
          "pitch": 67,
          "onset": 409.3438,
          "duration": 0.3125,
          "velocity": 100
        },
        {
          "pitch": 75,
          "onset": 409.6562,
          "duration": 0.3125,
          "velocity": 100
        },
        {
          "pitch": 65,
          "onset": 410.0,
          "duration": 0.3125,
          "velocity": 100
        },
        {
          "pitch": 75,
          "onset": 410.3438,
          "duration": 0.3125,
          "velocity": 100
        },
        {
          "pitch": 74,
          "onset": 410.6562,
          "duration": 0.3125,
          "velocity": 100
        },
        {
          "pitch": 67,
          "onset": 411.0,
          "duration": 0.3125,
          "velocity": 100
        },
        {
          "pitch": 66,
          "onset": 411.3438,
          "duration": 0.3125,
          "velocity": 100
        },
        {
          "pitch": 74,
          "onset": 411.6562,
          "duration": 0.3125,
          "velocity": 100
        },
        {
          "pitch": 72,
          "onset": 412.0,
          "duration": 0.3125,
          "velocity": 100
        },
        {
          "pitch": 71,
          "onset": 412.3438,
          "duration": 0.3125,
          "velocity": 100
        },
        {
          "pitch": 79,
          "onset": 412.6562,
          "duration": 0.3125,
          "velocity": 100
        },
        {
          "pitch": 71,
          "onset": 413.0,
          "duration": 0.3125,
          "velocity": 100
        },
        {
          "pitch": 72,
          "onset": 413.3438,
          "duration": 0.3125,
          "velocity": 100
        },
        {
          "pitch": 81,
          "onset": 413.6562,
          "duration": 0.3125,
          "velocity": 100
        },
        {
          "pitch": 75,
          "onset": 414.0,
          "duration": 0.3125,
          "velocity": 100
        },
        {
          "pitch": 74,
          "onset": 414.3438,
          "duration": 0.3125,
          "velocity": 100
        },
        {
          "pitch": 83,
          "onset": 414.6562,
          "duration": 0.3125,
          "velocity": 100
        },
        {
          "pitch": 74,
          "onset": 415.0,
          "duration": 0.3125,
          "velocity": 100
        },
        {
          "pitch": 75,
          "onset": 415.3438,
          "duration": 0.3125,
          "velocity": 100
        },
        {
          "pitch": 84,
          "onset": 415.6562,
          "duration": 0.3125,
          "velocity": 100
        },
        {
          "pitch": 67,
          "onset": 416.0,
          "duration": 1.0,
          "velocity": 100
        },
        {
          "pitch": 83,
          "onset": 416.0,
          "duration": 1.0,
          "velocity": 100
        },
        {
          "pitch": 77,
          "onset": 417.0,
          "duration": 1.0,
          "velocity": 100
        },
        {
          "pitch": 75,
          "onset": 418.0,
          "duration": 1.0,
          "velocity": 100
        },
        {
          "pitch": 74,
          "onset": 419.0,
          "duration": 1.0,
          "velocity": 100
        },
        {
          "pitch": 79,
          "onset": 420.3438,
          "duration": 0.3125,
          "velocity": 100
        },
        {
          "pitch": 75,
          "onset": 420.6562,
          "duration": 0.3125,
          "velocity": 100
        },
        {
          "pitch": 72,
          "onset": 421.0,
          "duration": 0.3125,
          "velocity": 100
        },
        {
          "pitch": 76,
          "onset": 421.3438,
          "duration": 0.3125,
          "velocity": 100
        },
        {
          "pitch": 79,
          "onset": 421.6562,
          "duration": 0.3125,
          "velocity": 100
        },
        {
          "pitch": 84,
          "onset": 422.0,
          "duration": 0.3125,
          "velocity": 100
        },
        {
          "pitch": 79,
          "onset": 422.3438,
          "duration": 0.3125,
          "velocity": 100
        },
        {
          "pitch": 77,
          "onset": 422.6562,
          "duration": 0.3125,
          "velocity": 100
        },
        {
          "pitch": 82,
          "onset": 423.0,
          "duration": 0.3125,
          "velocity": 100
        },
        {
          "pitch": 77,
          "onset": 423.3438,
          "duration": 0.3125,
          "velocity": 100
        },
        {
          "pitch": 76,
          "onset": 423.6562,
          "duration": 0.3125,
          "velocity": 100
        },
        {
          "pitch": 80,
          "onset": 424.0,
          "duration": 3.0,
          "velocity": 100
        },
        {
          "pitch": 72,
          "onset": 424.3438,
          "duration": 0.3125,
          "velocity": 100
        },
        {
          "pitch": 68,
          "onset": 424.6562,
          "duration": 0.3125,
          "velocity": 100
        },
        {
          "pitch": 65,
          "onset": 425.0,
          "duration": 0.3125,
          "velocity": 100
        },
        {
          "pitch": 68,
          "onset": 425.3438,
          "duration": 0.3125,
          "velocity": 100
        },
        {
          "pitch": 72,
          "onset": 425.6562,
          "duration": 0.3125,
          "velocity": 100
        },
        {
          "pitch": 77,
          "onset": 426.0,
          "duration": 0.3125,
          "velocity": 100
        },
        {
          "pitch": 72,
          "onset": 426.3438,
          "duration": 0.3125,
          "velocity": 100
        },
        {
          "pitch": 71,
          "onset": 426.6562,
          "duration": 0.3125,
          "velocity": 100
        },
        {
          "pitch": 76,
          "onset": 427.0,
          "duration": 0.3125,
          "velocity": 100
        },
        {
          "pitch": 79,
          "onset": 427.0,
          "duration": 1.0,
          "velocity": 100
        },
        {
          "pitch": 70,
          "onset": 427.3438,
          "duration": 0.3125,
          "velocity": 100
        },
        {
          "pitch": 69,
          "onset": 427.6562,
          "duration": 0.3125,
          "velocity": 100
        },
        {
          "pitch": 75,
          "onset": 428.0,
          "duration": 0.3125,
          "velocity": 100
        },
        {
          "pitch": 78,
          "onset": 428.0,
          "duration": 1.0,
          "velocity": 100
        },
        {
          "pitch": 69,
          "onset": 428.3438,
          "duration": 0.3125,
          "velocity": 100
        },
        {
          "pitch": 68,
          "onset": 428.6562,
          "duration": 0.3125,
          "velocity": 100
        },
        {
          "pitch": 74,
          "onset": 429.0,
          "duration": 0.3125,
          "velocity": 100
        },
        {
          "pitch": 77,
          "onset": 429.0,
          "duration": 1.0,
          "velocity": 100
        },
        {
          "pitch": 68,
          "onset": 429.3438,
          "duration": 0.3125,
          "velocity": 100
        },
        {
          "pitch": 67,
          "onset": 429.6562,
          "duration": 1.3125,
          "velocity": 100
        },
        {
          "pitch": 75,
          "onset": 430.0,
          "duration": 1.0,
          "velocity": 100
        },
        {
          "pitch": 75,
          "onset": 431.0,
          "duration": 12.0,
          "velocity": 100
        },
        {
          "pitch": 73,
          "onset": 432.0,
          "duration": 1.0,
          "velocity": 100
        },
        {
          "pitch": 72,
          "onset": 433.0,
          "duration": 1.0,
          "velocity": 100
        },
        {
          "pitch": 70,
          "onset": 434.0,
          "duration": 1.0,
          "velocity": 100
        },
        {
          "pitch": 73,
          "onset": 435.0,
          "duration": 1.0,
          "velocity": 100
        },
        {
          "pitch": 72,
          "onset": 436.0,
          "duration": 1.0,
          "velocity": 100
        },
        {
          "pitch": 70,
          "onset": 437.0,
          "duration": 1.0,
          "velocity": 100
        },
        {
          "pitch": 68,
          "onset": 438.0,
          "duration": 1.0,
          "velocity": 100
        },
        {
          "pitch": 72,
          "onset": 439.0,
          "duration": 1.0,
          "velocity": 100
        },
        {
          "pitch": 70,
          "onset": 440.0,
          "duration": 1.0,
          "velocity": 100
        },
        {
          "pitch": 68,
          "onset": 441.0,
          "duration": 1.0,
          "velocity": 100
        },
        {
          "pitch": 67,
          "onset": 442.0,
          "duration": 1.0,
          "velocity": 100
        },
        {
          "pitch": 70,
          "onset": 443.0,
          "duration": 2.0,
          "velocity": 100
        },
        {
          "pitch": 73,
          "onset": 443.0,
          "duration": 1.0,
          "velocity": 100
        },
        {
          "pitch": 72,
          "onset": 444.0,
          "duration": 2.0,
          "velocity": 100
        },
        {
          "pitch": 68,
          "onset": 445.0,
          "duration": 2.0,
          "velocity": 100
        },
        {
          "pitch": 70,
          "onset": 446.0,
          "duration": 2.0,
          "velocity": 100
        },
        {
          "pitch": 67,
          "onset": 447.0,
          "duration": 2.0,
          "velocity": 100
        },
        {
          "pitch": 68,
          "onset": 448.0,
          "duration": 2.0,
          "velocity": 100
        },
        {
          "pitch": 65,
          "onset": 449.0,
          "duration": 2.0,
          "velocity": 100
        },
        {
          "pitch": 67,
          "onset": 450.0,
          "duration": 0.3125,
          "velocity": 100
        },
        {
          "pitch": 69,
          "onset": 450.3438,
          "duration": 0.3125,
          "velocity": 100
        },
        {
          "pitch": 71,
          "onset": 450.6562,
          "duration": 0.3125,
          "velocity": 100
        },
        {
          "pitch": 63,
          "onset": 451.0,
          "duration": 1.0,
          "velocity": 100
        },
        {
          "pitch": 72,
          "onset": 451.0,
          "duration": 2.0,
          "velocity": 100
        },
        {
          "pitch": 65,
          "onset": 452.0,
          "duration": 0.3125,
          "velocity": 100
        },
        {
          "pitch": 67,
          "onset": 452.3438,
          "duration": 0.3125,
          "velocity": 100
        },
        {
          "pitch": 68,
          "onset": 452.6562,
          "duration": 0.6562,
          "velocity": 100
        },
        {
          "pitch": 70,
          "onset": 453.0,
          "duration": 2.0,
          "velocity": 100
        },
        {
          "pitch": 67,
          "onset": 453.3438,
          "duration": 0.3125,
          "velocity": 100
        },
        {
          "pitch": 65,
          "onset": 453.6562,
          "duration": 0.3125,
          "velocity": 100
        },
        {
          "pitch": 63,
          "onset": 454.0,
          "duration": 0.3125,
          "velocity": 100
        },
        {
          "pitch": 65,
          "onset": 454.3438,
          "duration": 0.3125,
          "velocity": 100
        },
        {
          "pitch": 67,
          "onset": 454.6562,
          "duration": 0.6562,
          "velocity": 100
        },
        {
          "pitch": 68,
          "onset": 455.0,
          "duration": 2.0,
          "velocity": 100
        },
        {
          "pitch": 65,
          "onset": 455.3438,
          "duration": 0.3125,
          "velocity": 100
        },
        {
          "pitch": 63,
          "onset": 455.6562,
          "duration": 0.3125,
          "velocity": 100
        },
        {
          "pitch": 62,
          "onset": 456.0,
          "duration": 0.3125,
          "velocity": 100
        },
        {
          "pitch": 63,
          "onset": 456.3438,
          "duration": 0.3125,
          "velocity": 100
        },
        {
          "pitch": 65,
          "onset": 456.6562,
          "duration": 0.6562,
          "velocity": 100
        },
        {
          "pitch": 67,
          "onset": 457.0,
          "duration": 2.0,
          "velocity": 100
        },
        {
          "pitch": 63,
          "onset": 457.3438,
          "duration": 0.3125,
          "velocity": 100
        },
        {
          "pitch": 55,
          "onset": 457.6562,
          "duration": 0.3125,
          "velocity": 100
        },
        {
          "pitch": 57,
          "onset": 458.0,
          "duration": 0.3125,
          "velocity": 100
        },
        {
          "pitch": 59,
          "onset": 458.3438,
          "duration": 0.3125,
          "velocity": 100
        },
        {
          "pitch": 60,
          "onset": 458.6562,
          "duration": 0.6562,
          "velocity": 100
        },
        {
          "pitch": 65,
          "onset": 459.0,
          "duration": 2.0,
          "velocity": 100
        },
        {
          "pitch": 62,
          "onset": 459.3438,
          "duration": 0.3125,
          "velocity": 100
        },
        {
          "pitch": 53,
          "onset": 459.6562,
          "duration": 0.3125,
          "velocity": 100
        },
        {
          "pitch": 55,
          "onset": 460.0,
          "duration": 0.3125,
          "velocity": 100
        },
        {
          "pitch": 57,
          "onset": 460.3438,
          "duration": 0.3125,
          "velocity": 100
        },
        {
          "pitch": 59,
          "onset": 460.6562,
          "duration": 0.6562,
          "velocity": 100
        },
        {
          "pitch": 63,
          "onset": 461.0,
          "duration": 2.0,
          "velocity": 100
        },
        {
          "pitch": 60,
          "onset": 461.3438,
          "duration": 0.3125,
          "velocity": 100
        },
        {
          "pitch": 51,
          "onset": 461.6562,
          "duration": 0.3125,
          "velocity": 100
        },
        {
          "pitch": 53,
          "onset": 462.0,
          "duration": 0.3125,
          "velocity": 100
        },
        {
          "pitch": 55,
          "onset": 462.3438,
          "duration": 0.3125,
          "velocity": 100
        },
        {
          "pitch": 56,
          "onset": 462.6562,
          "duration": 0.6562,
          "velocity": 100
        },
        {
          "pitch": 62,
          "onset": 463.0,
          "duration": 1.3125,
          "velocity": 100
        },
        {
          "pitch": 55,
          "onset": 463.3438,
          "duration": 0.3125,
          "velocity": 100
        },
        {
          "pitch": 53,
          "onset": 463.6562,
          "duration": 0.3125,
          "velocity": 100
        },
        {
          "pitch": 60,
          "onset": 464.3438,
          "duration": 0.3125,
          "velocity": 100
        },
        {
          "pitch": 63,
          "onset": 464.6562,
          "duration": 0.3125,
          "velocity": 100
        },
        {
          "pitch": 67,
          "onset": 465.0,
          "duration": 0.3125,
          "velocity": 100
        },
        {
          "pitch": 71,
          "onset": 465.3438,
          "duration": 0.3125,
          "velocity": 100
        },
        {
          "pitch": 72,
          "onset": 465.6562,
          "duration": 0.6562,
          "velocity": 100
        },
        {
          "pitch": 71,
          "onset": 466.3438,
          "duration": 0.3125,
          "velocity": 100
        },
        {
          "pitch": 69,
          "onset": 466.6562,
          "duration": 0.3125,
          "velocity": 100
        },
        {
          "pitch": 71,
          "onset": 467.0,
          "duration": 0.3125,
          "velocity": 100
        },
        {
          "pitch": 74,
          "onset": 467.3438,
          "duration": 0.3125,
          "velocity": 100
        },
        {
          "pitch": 68,
          "onset": 467.6562,
          "duration": 0.3125,
          "velocity": 100
        },
        {
          "pitch": 67,
          "onset": 468.0,
          "duration": 0.3125,
          "velocity": 100
        },
        {
          "pitch": 69,
          "onset": 468.3438,
          "duration": 0.3125,
          "velocity": 100
        },
        {
          "pitch": 71,
          "onset": 468.6562,
          "duration": 0.3125,
          "velocity": 100
        },
        {
          "pitch": 72,
          "onset": 469.0,
          "duration": 0.3125,
          "velocity": 100
        },
        {
          "pitch": 74,
          "onset": 469.3438,
          "duration": 0.3125,
          "velocity": 100
        },
        {
          "pitch": 75,
          "onset": 469.6562,
          "duration": 0.6562,
          "velocity": 100
        },
        {
          "pitch": 73,
          "onset": 470.3438,
          "duration": 0.3125,
          "velocity": 100
        },
        {
          "pitch": 72,
          "onset": 470.6562,
          "duration": 0.3125,
          "velocity": 100
        },
        {
          "pitch": 73,
          "onset": 471.0,
          "duration": 0.3125,
          "velocity": 100
        },
        {
          "pitch": 77,
          "onset": 471.3438,
          "duration": 0.3125,
          "velocity": 100
        },
        {
          "pitch": 72,
          "onset": 471.6562,
          "duration": 0.3125,
          "velocity": 100
        },
        {
          "pitch": 71,
          "onset": 472.0,
          "duration": 0.3125,
          "velocity": 100
        },
        {
          "pitch": 74,
          "onset": 472.3438,
          "duration": 0.3125,
          "velocity": 100
        },
        {
          "pitch": 71,
          "onset": 472.6562,
          "duration": 0.3125,
          "velocity": 100
        },
        {
          "pitch": 67,
          "onset": 473.0,
          "duration": 0.3125,
          "velocity": 100
        },
        {
          "pitch": 71,
          "onset": 473.3438,
          "duration": 0.3125,
          "velocity": 100
        },
        {
          "pitch": 74,
          "onset": 473.6562,
          "duration": 0.3125,
          "velocity": 100
        },
        {
          "pitch": 79,
          "onset": 474.0,
          "duration": 0.3125,
          "velocity": 100
        },
        {
          "pitch": 74,
          "onset": 474.3438,
          "duration": 0.3125,
          "velocity": 100
        },
        {
          "pitch": 72,
          "onset": 474.6562,
          "duration": 0.3125,
          "velocity": 100
        },
        {
          "pitch": 77,
          "onset": 475.0,
          "duration": 0.3125,
          "velocity": 100
        },
        {
          "pitch": 72,
          "onset": 475.3438,
          "duration": 0.3125,
          "velocity": 100
        },
        {
          "pitch": 71,
          "onset": 475.6562,
          "duration": 0.3125,
          "velocity": 100
        },
        {
          "pitch": 67,
          "onset": 476.0,
          "duration": 2.0,
          "velocity": 100
        },
        {
          "pitch": 72,
          "onset": 476.0,
          "duration": 2.0,
          "velocity": 100
        },
        {
          "pitch": 75,
          "onset": 476.0,
          "duration": 2.0,
          "velocity": 100
        },
        {
          "pitch": 67,
          "onset": 479.0,
          "duration": 1.0,
          "velocity": 100
        },
        {
          "pitch": 72,
          "onset": 479.0,
          "duration": 1.0,
          "velocity": 100
        },
        {
          "pitch": 75,
          "onset": 479.0,
          "duration": 1.0,
          "velocity": 100
        },
        {
          "pitch": 65,
          "onset": 480.0,
          "duration": 2.0,
          "velocity": 100
        },
        {
          "pitch": 72,
          "onset": 480.0,
          "duration": 1.0,
          "velocity": 100
        },
        {
          "pitch": 75,
          "onset": 480.0,
          "duration": 1.0,
          "velocity": 100
        },
        {
          "pitch": 71,
          "onset": 481.0,
          "duration": 1.0,
          "velocity": 100
        },
        {
          "pitch": 74,
          "onset": 481.0,
          "duration": 1.0,
          "velocity": 100
        },
        {
          "pitch": 71,
          "onset": 486.0,
          "duration": 2.0,
          "velocity": 100
        },
        {
          "pitch": 74,
          "onset": 486.0,
          "duration": 2.0,
          "velocity": 100
        },
        {
          "pitch": 77,
          "onset": 486.0,
          "duration": 2.0,
          "velocity": 100
        },
        {
          "pitch": 67,
          "onset": 490.0,
          "duration": 2.0,
          "velocity": 100
        },
        {
          "pitch": 72,
          "onset": 490.0,
          "duration": 1.0,
          "velocity": 100
        },
        {
          "pitch": 75,
          "onset": 490.0,
          "duration": 1.0,
          "velocity": 100
        },
        {
          "pitch": 74,
          "onset": 491.0,
          "duration": 1.0,
          "velocity": 100
        },
        {
          "pitch": 77,
          "onset": 491.0,
          "duration": 1.0,
          "velocity": 100
        },
        {
          "pitch": 75,
          "onset": 492.0,
          "duration": 3.0,
          "velocity": 100
        },
        {
          "pitch": 79,
          "onset": 492.0,
          "duration": 2.0,
          "velocity": 100
        },
        {
          "pitch": 80,
          "onset": 494.0,
          "duration": 6.0,
          "velocity": 100
        },
        {
          "pitch": 77,
          "onset": 495.0,
          "duration": 1.0,
          "velocity": 100
        },
        {
          "pitch": 74,
          "onset": 496.0,
          "duration": 0.5,
          "velocity": 100
        },
        {
          "pitch": 70,
          "onset": 496.5,
          "duration": 0.5,
          "velocity": 100
        },
        {
          "pitch": 70,
          "onset": 497.0,
          "duration": 0.5,
          "velocity": 100
        },
        {
          "pitch": 72,
          "onset": 497.5,
          "duration": 0.5,
          "velocity": 100
        },
        {
          "pitch": 72,
          "onset": 498.0,
          "duration": 0.5,
          "velocity": 100
        },
        {
          "pitch": 74,
          "onset": 498.5,
          "duration": 0.5,
          "velocity": 100
        },
        {
          "pitch": 74,
          "onset": 499.0,
          "duration": 0.5,
          "velocity": 100
        },
        {
          "pitch": 75,
          "onset": 499.5,
          "duration": 0.5,
          "velocity": 100
        },
        {
          "pitch": 75,
          "onset": 500.0,
          "duration": 5.0,
          "velocity": 100
        },
        {
          "pitch": 79,
          "onset": 500.0,
          "duration": 4.5,
          "velocity": 100
        },
        {
          "pitch": 84,
          "onset": 504.5,
          "duration": 0.5,
          "velocity": 100
        },
        {
          "pitch": 84,
          "onset": 505.0,
          "duration": 0.5,
          "velocity": 100
        },
        {
          "pitch": 82,
          "onset": 505.5,
          "duration": 0.5,
          "velocity": 100
        },
        {
          "pitch": 82,
          "onset": 506.0,
          "duration": 0.5,
          "velocity": 100
        },
        {
          "pitch": 80,
          "onset": 506.5,
          "duration": 0.5,
          "velocity": 100
        },
        {
          "pitch": 80,
          "onset": 507.0,
          "duration": 0.5,
          "velocity": 100
        },
        {
          "pitch": 79,
          "onset": 507.5,
          "duration": 0.5,
          "velocity": 100
        },
        {
          "pitch": 79,
          "onset": 508.0,
          "duration": 0.5,
          "velocity": 100
        },
        {
          "pitch": 77,
          "onset": 508.5,
          "duration": 0.5,
          "velocity": 100
        },
        {
          "pitch": 72,
          "onset": 509.0,
          "duration": 1.5,
          "velocity": 100
        },
        {
          "pitch": 76,
          "onset": 509.5,
          "duration": 0.5,
          "velocity": 100
        },
        {
          "pitch": 77,
          "onset": 510.0,
          "duration": 0.3125,
          "velocity": 100
        },
        {
          "pitch": 75,
          "onset": 510.5,
          "duration": 0.5,
          "velocity": 100
        },
        {
          "pitch": 74,
          "onset": 511.0,
          "duration": 0.5,
          "velocity": 100
        },
        {
          "pitch": 72,
          "onset": 511.5,
          "duration": 0.5,
          "velocity": 100
        },
        {
          "pitch": 67,
          "onset": 512.3438,
          "duration": 0.3125,
          "velocity": 100
        },
        {
          "pitch": 69,
          "onset": 512.6562,
          "duration": 0.3125,
          "velocity": 100
        },
        {
          "pitch": 71,
          "onset": 513.0,
          "duration": 0.3125,
          "velocity": 100
        },
        {
          "pitch": 72,
          "onset": 513.3438,
          "duration": 0.3125,
          "velocity": 100
        },
        {
          "pitch": 74,
          "onset": 513.6562,
          "duration": 0.3125,
          "velocity": 100
        },
        {
          "pitch": 75,
          "onset": 514.0,
          "duration": 0.3125,
          "velocity": 100
        },
        {
          "pitch": 77,
          "onset": 514.3438,
          "duration": 0.3125,
          "velocity": 100
        },
        {
          "pitch": 79,
          "onset": 514.6562,
          "duration": 0.3125,
          "velocity": 100
        },
        {
          "pitch": 80,
          "onset": 515.0,
          "duration": 0.3125,
          "velocity": 100
        },
        {
          "pitch": 79,
          "onset": 515.3438,
          "duration": 0.3125,
          "velocity": 100
        },
        {
          "pitch": 77,
          "onset": 515.6562,
          "duration": 0.3125,
          "velocity": 100
        },
        {
          "pitch": 75,
          "onset": 516.0,
          "duration": 0.3125,
          "velocity": 100
        },
        {
          "pitch": 72,
          "onset": 516.3438,
          "duration": 0.3125,
          "velocity": 100
        },
        {
          "pitch": 74,
          "onset": 516.6562,
          "duration": 0.3125,
          "velocity": 100
        },
        {
          "pitch": 75,
          "onset": 517.0,
          "duration": 0.3125,
          "velocity": 100
        },
        {
          "pitch": 77,
          "onset": 517.3438,
          "duration": 0.3125,
          "velocity": 100
        },
        {
          "pitch": 79,
          "onset": 517.6562,
          "duration": 0.3125,
          "velocity": 100
        },
        {
          "pitch": 81,
          "onset": 518.0,
          "duration": 0.3125,
          "velocity": 100
        },
        {
          "pitch": 82,
          "onset": 518.3438,
          "duration": 0.3125,
          "velocity": 100
        },
        {
          "pitch": 84,
          "onset": 518.6562,
          "duration": 0.3125,
          "velocity": 100
        },
        {
          "pitch": 82,
          "onset": 519.0,
          "duration": 0.3125,
          "velocity": 100
        },
        {
          "pitch": 81,
          "onset": 519.3438,
          "duration": 0.3125,
          "velocity": 100
        },
        {
          "pitch": 79,
          "onset": 519.6562,
          "duration": 0.3125,
          "velocity": 100
        },
        {
          "pitch": 78,
          "onset": 520.0,
          "duration": 0.3125,
          "velocity": 100
        },
        {
          "pitch": 79,
          "onset": 520.3438,
          "duration": 0.3125,
          "velocity": 100
        },
        {
          "pitch": 81,
          "onset": 520.6562,
          "duration": 0.3125,
          "velocity": 100
        },
        {
          "pitch": 79,
          "onset": 521.0,
          "duration": 0.3125,
          "velocity": 100
        },
        {
          "pitch": 78,
          "onset": 521.3438,
          "duration": 0.3125,
          "velocity": 100
        },
        {
          "pitch": 75,
          "onset": 521.6562,
          "duration": 0.3125,
          "velocity": 100
        },
        {
          "pitch": 74,
          "onset": 522.0,
          "duration": 0.3125,
          "velocity": 100
        },
        {
          "pitch": 72,
          "onset": 522.3438,
          "duration": 0.3125,
          "velocity": 100
        },
        {
          "pitch": 71,
          "onset": 522.6562,
          "duration": 0.3125,
          "velocity": 100
        },
        {
          "pitch": 69,
          "onset": 523.0,
          "duration": 0.3125,
          "velocity": 100
        },
        {
          "pitch": 71,
          "onset": 523.3438,
          "duration": 0.3125,
          "velocity": 100
        },
        {
          "pitch": 72,
          "onset": 523.6562,
          "duration": 0.3125,
          "velocity": 100
        },
        {
          "pitch": 67,
          "onset": 524.0,
          "duration": 2.0,
          "velocity": 100
        },
        {
          "pitch": 71,
          "onset": 524.0,
          "duration": 1.0,
          "velocity": 100
        },
        {
          "pitch": 74,
          "onset": 525.0,
          "duration": 1.0,
          "velocity": 100
        },
        {
          "pitch": 75,
          "onset": 526.0,
          "duration": 4.0,
          "velocity": 100
        },
        {
          "pitch": 67,
          "onset": 527.0,
          "duration": 1.0,
          "velocity": 100
        },
        {
          "pitch": 66,
          "onset": 528.0,
          "duration": 2.0,
          "velocity": 100
        },
        {
          "pitch": 65,
          "onset": 530.0,
          "duration": 2.0,
          "velocity": 100
        },
        {
          "pitch": 74,
          "onset": 530.0,
          "duration": 2.5,
          "velocity": 100
        },
        {
          "pitch": 77,
          "onset": 532.5,
          "duration": 0.5,
          "velocity": 100
        },
        {
          "pitch": 75,
          "onset": 533.0,
          "duration": 0.5,
          "velocity": 100
        },
        {
          "pitch": 74,
          "onset": 533.5,
          "duration": 0.5,
          "velocity": 100
        },
        {
          "pitch": 68,
          "onset": 534.0,
          "duration": 4.0,
          "velocity": 100
        },
        {
          "pitch": 72,
          "onset": 534.0,
          "duration": 0.5,
          "velocity": 100
        },
        {
          "pitch": 74,
          "onset": 534.5,
          "duration": 0.5,
          "velocity": 100
        },
        {
          "pitch": 76,
          "onset": 535.0,
          "duration": 0.5,
          "velocity": 100
        },
        {
          "pitch": 72,
          "onset": 535.5,
          "duration": 0.5,
          "velocity": 100
        },
        {
          "pitch": 77,
          "onset": 536.0,
          "duration": 0.5,
          "velocity": 100
        },
        {
          "pitch": 79,
          "onset": 536.5,
          "duration": 0.5,
          "velocity": 100
        },
        {
          "pitch": 76,
          "onset": 537.0,
          "duration": 0.5,
          "velocity": 100
        },
        {
          "pitch": 77,
          "onset": 537.5,
          "duration": 0.5,
          "velocity": 100
        },
        {
          "pitch": 67,
          "onset": 538.0,
          "duration": 2.5,
          "velocity": 100
        },
        {
          "pitch": 79,
          "onset": 538.0,
          "duration": 0.5,
          "velocity": 100
        },
        {
          "pitch": 76,
          "onset": 538.5,
          "duration": 0.5,
          "velocity": 100
        },
        {
          "pitch": 77,
          "onset": 539.0,
          "duration": 0.5,
          "velocity": 100
        },
        {
          "pitch": 79,
          "onset": 539.5,
          "duration": 0.5,
          "velocity": 100
        },
        {
          "pitch": 72,
          "onset": 540.0,
          "duration": 0.5,
          "velocity": 100
        },
        {
          "pitch": 70,
          "onset": 540.5,
          "duration": 0.5,
          "velocity": 100
        },
        {
          "pitch": 68,
          "onset": 541.0,
          "duration": 0.5,
          "velocity": 100
        },
        {
          "pitch": 67,
          "onset": 541.5,
          "duration": 0.5,
          "velocity": 100
        },
        {
          "pitch": 65,
          "onset": 542.0,
          "duration": 1.0,
          "velocity": 100
        },
        {
          "pitch": 72,
          "onset": 542.5,
          "duration": 1.0,
          "velocity": 100
        },
        {
          "pitch": 64,
          "onset": 543.0,
          "duration": 1.0,
          "velocity": 100
        },
        {
          "pitch": 70,
          "onset": 543.5,
          "duration": 1.0,
          "velocity": 100
        },
        {
          "pitch": 65,
          "onset": 544.0,
          "duration": 2.0,
          "velocity": 100
        },
        {
          "pitch": 70,
          "onset": 544.5,
          "duration": 0.5,
          "velocity": 100
        },
        {
          "pitch": 68,
          "onset": 545.0,
          "duration": 0.5,
          "velocity": 100
        },
        {
          "pitch": 67,
          "onset": 545.5,
          "duration": 0.5,
          "velocity": 100
        },
        {
          "pitch": 68,
          "onset": 546.0,
          "duration": 1.5,
          "velocity": 100
        },
        {
          "pitch": 65,
          "onset": 546.5,
          "duration": 0.5,
          "velocity": 100
        },
        {
          "pitch": 60,
          "onset": 547.0,
          "duration": 1.0,
          "velocity": 100
        },
        {
          "pitch": 66,
          "onset": 547.5,
          "duration": 0.5,
          "velocity": 100
        },
        {
          "pitch": 65,
          "onset": 548.0,
          "duration": 0.25,
          "velocity": 100
        },
        {
          "pitch": 61,
          "onset": 548.25,
          "duration": 0.25,
          "velocity": 100
        },
        {
          "pitch": 60,
          "onset": 548.5,
          "duration": 0.25,
          "velocity": 100
        },
        {
          "pitch": 61,
          "onset": 548.75,
          "duration": 0.25,
          "velocity": 100
        },
        {
          "pitch": 68,
          "onset": 549.0,
          "duration": 1.25,
          "velocity": 100
        },
        {
          "pitch": 65,
          "onset": 550.25,
          "duration": 0.25,
          "velocity": 100
        },
        {
          "pitch": 64,
          "onset": 550.5,
          "duration": 0.25,
          "velocity": 100
        },
        {
          "pitch": 65,
          "onset": 550.75,
          "duration": 0.25,
          "velocity": 100
        },
        {
          "pitch": 73,
          "onset": 551.0,
          "duration": 1.25,
          "velocity": 100
        },
        {
          "pitch": 65,
          "onset": 552.0,
          "duration": 1.0,
          "velocity": 100
        },
        {
          "pitch": 68,
          "onset": 552.25,
          "duration": 0.25,
          "velocity": 100
        },
        {
          "pitch": 67,
          "onset": 552.5,
          "duration": 0.25,
          "velocity": 100
        },
        {
          "pitch": 68,
          "onset": 552.75,
          "duration": 0.25,
          "velocity": 100
        },
        {
          "pitch": 77,
          "onset": 553.0,
          "duration": 1.25,
          "velocity": 100
        },
        {
          "pitch": 68,
          "onset": 554.0,
          "duration": 1.0,
          "velocity": 100
        },
        {
          "pitch": 73,
          "onset": 554.25,
          "duration": 0.25,
          "velocity": 100
        },
        {
          "pitch": 72,
          "onset": 554.5,
          "duration": 0.25,
          "velocity": 100
        },
        {
          "pitch": 73,
          "onset": 554.75,
          "duration": 0.25,
          "velocity": 100
        },
        {
          "pitch": 80,
          "onset": 555.0,
          "duration": 0.75,
          "velocity": 100
        },
        {
          "pitch": 72,
          "onset": 555.75,
          "duration": 0.25,
          "velocity": 100
        },
        {
          "pitch": 71,
          "onset": 556.0,
          "duration": 0.3125,
          "velocity": 100
        },
        {
          "pitch": 67,
          "onset": 556.3438,
          "duration": 0.3125,
          "velocity": 100
        },
        {
          "pitch": 69,
          "onset": 556.6562,
          "duration": 0.3125,
          "velocity": 100
        },
        {
          "pitch": 71,
          "onset": 557.0,
          "duration": 0.3125,
          "velocity": 100
        },
        {
          "pitch": 69,
          "onset": 557.3438,
          "duration": 0.3125,
          "velocity": 100
        },
        {
          "pitch": 67,
          "onset": 557.6562,
          "duration": 0.3125,
          "velocity": 100
        },
        {
          "pitch": 72,
          "onset": 558.0,
          "duration": 0.3125,
          "velocity": 100
        },
        {
          "pitch": 68,
          "onset": 558.3438,
          "duration": 0.3125,
          "velocity": 100
        },
        {
          "pitch": 67,
          "onset": 558.6562,
          "duration": 0.3125,
          "velocity": 100
        },
        {
          "pitch": 74,
          "onset": 559.0,
          "duration": 0.3125,
          "velocity": 100
        },
        {
          "pitch": 68,
          "onset": 559.3438,
          "duration": 0.3125,
          "velocity": 100
        },
        {
          "pitch": 67,
          "onset": 559.6562,
          "duration": 0.3125,
          "velocity": 100
        },
        {
          "pitch": 75,
          "onset": 560.0,
          "duration": 0.3125,
          "velocity": 100
        },
        {
          "pitch": 74,
          "onset": 560.3438,
          "duration": 0.3125,
          "velocity": 100
        },
        {
          "pitch": 75,
          "onset": 560.6562,
          "duration": 0.3125,
          "velocity": 100
        },
        {
          "pitch": 77,
          "onset": 561.0,
          "duration": 0.3125,
          "velocity": 100
        },
        {
          "pitch": 75,
          "onset": 561.3438,
          "duration": 0.3125,
          "velocity": 100
        },
        {
          "pitch": 74,
          "onset": 561.6562,
          "duration": 0.3125,
          "velocity": 100
        },
        {
          "pitch": 75,
          "onset": 562.0,
          "duration": 0.3125,
          "velocity": 100
        },
        {
          "pitch": 74,
          "onset": 562.3438,
          "duration": 0.3125,
          "velocity": 100
        },
        {
          "pitch": 72,
          "onset": 562.6562,
          "duration": 0.3125,
          "velocity": 100
        },
        {
          "pitch": 76,
          "onset": 563.0,
          "duration": 0.3125,
          "velocity": 100
        },
        {
          "pitch": 73,
          "onset": 563.3438,
          "duration": 0.3125,
          "velocity": 100
        },
        {
          "pitch": 72,
          "onset": 563.6562,
          "duration": 0.3125,
          "velocity": 100
        },
        {
          "pitch": 77,
          "onset": 564.0,
          "duration": 0.3125,
          "velocity": 100
        },
        {
          "pitch": 76,
          "onset": 564.3438,
          "duration": 0.3125,
          "velocity": 100
        },
        {
          "pitch": 77,
          "onset": 564.6562,
          "duration": 0.3125,
          "velocity": 100
        },
        {
          "pitch": 79,
          "onset": 565.0,
          "duration": 0.3125,
          "velocity": 100
        },
        {
          "pitch": 77,
          "onset": 565.3438,
          "duration": 0.3125,
          "velocity": 100
        },
        {
          "pitch": 76,
          "onset": 565.6562,
          "duration": 0.3125,
          "velocity": 100
        },
        {
          "pitch": 77,
          "onset": 566.0,
          "duration": 0.3125,
          "velocity": 100
        },
        {
          "pitch": 75,
          "onset": 566.3438,
          "duration": 0.3125,
          "velocity": 100
        },
        {
          "pitch": 74,
          "onset": 566.6562,
          "duration": 0.3125,
          "velocity": 100
        },
        {
          "pitch": 75,
          "onset": 567.0,
          "duration": 0.3125,
          "velocity": 100
        },
        {
          "pitch": 74,
          "onset": 567.3438,
          "duration": 0.3125,
          "velocity": 100
        },
        {
          "pitch": 72,
          "onset": 567.6562,
          "duration": 0.3125,
          "velocity": 100
        },
        {
          "pitch": 69,
          "onset": 568.0,
          "duration": 2.0,
          "velocity": 100
        },
        {
          "pitch": 81,
          "onset": 568.0,
          "duration": 0.3125,
          "velocity": 100
        },
        {
          "pitch": 72,
          "onset": 568.3438,
          "duration": 0.3125,
          "velocity": 100
        },
        {
          "pitch": 74,
          "onset": 568.6562,
          "duration": 0.3125,
          "velocity": 100
        },
        {
          "pitch": 75,
          "onset": 569.0,
          "duration": 0.3125,
          "velocity": 100
        },
        {
          "pitch": 74,
          "onset": 569.3438,
          "duration": 0.3125,
          "velocity": 100
        },
        {
          "pitch": 72,
          "onset": 569.6562,
          "duration": 0.3125,
          "velocity": 100
        },
        {
          "pitch": 67,
          "onset": 570.0,
          "duration": 2.0,
          "velocity": 100
        },
        {
          "pitch": 71,
          "onset": 570.0,
          "duration": 0.125,
          "velocity": 100
        },
        {
          "pitch": 72,
          "onset": 570.125,
          "duration": 0.125,
          "velocity": 100
        },
        {
          "pitch": 71,
          "onset": 570.25,
          "duration": 0.125,
          "velocity": 100
        },
        {
          "pitch": 72,
          "onset": 570.375,
          "duration": 0.125,
          "velocity": 100
        },
        {
          "pitch": 71,
          "onset": 570.5,
          "duration": 0.125,
          "velocity": 100
        },
        {
          "pitch": 72,
          "onset": 570.625,
          "duration": 0.125,
          "velocity": 100
        },
        {
          "pitch": 71,
          "onset": 570.75,
          "duration": 0.125,
          "velocity": 100
        },
        {
          "pitch": 72,
          "onset": 570.875,
          "duration": 0.125,
          "velocity": 100
        },
        {
          "pitch": 65,
          "onset": 571.0,
          "duration": 1.25,
          "velocity": 100
        },
        {
          "pitch": 71,
          "onset": 571.0,
          "duration": 0.5,
          "velocity": 100
        },
        {
          "pitch": 72,
          "onset": 571.5,
          "duration": 0.75,
          "velocity": 100
        },
        {
          "pitch": 64,
          "onset": 572.25,
          "duration": 2.75,
          "velocity": 100
        },
        {
          "pitch": 67,
          "onset": 572.25,
          "duration": 2.75,
          "velocity": 100
        },
        {
          "pitch": 72,
          "onset": 572.25,
          "duration": 2.75,
          "velocity": 100
        },
        {
          "pitch": 60,
          "onset": 576.5,
          "duration": 0.5,
          "velocity": 1
        }
      ]
    },
    {
      "role": "lower",
      "notes": [
        {
          "pitch": 55,
          "onset": 2.0,
          "duration": 2.0,
          "velocity": 100
        },
        {
          "pitch": 60,
          "onset": 2.0,
          "duration": 2.0,
          "velocity": 100
        },
        {
          "pitch": 63,
          "onset": 2.0,
          "duration": 2.0,
          "velocity": 100
        },
        {
          "pitch": 53,
          "onset": 6.0,
          "duration": 1.0,
          "velocity": 100
        },
        {
          "pitch": 59,
          "onset": 6.0,
          "duration": 1.0,
          "velocity": 100
        },
        {
          "pitch": 62,
          "onset": 6.0,
          "duration": 1.0,
          "velocity": 100
        },
        {
          "pitch": 55,
          "onset": 7.0,
          "duration": 1.0,
          "velocity": 100
        },
        {
          "pitch": 60,
          "onset": 7.0,
          "duration": 1.0,
          "velocity": 100
        },
        {
          "pitch": 63,
          "onset": 7.0,
          "duration": 1.0,
          "velocity": 100
        },
        {
          "pitch": 56,
          "onset": 8.0,
          "duration": 2.0,
          "velocity": 100
        },
        {
          "pitch": 62,
          "onset": 8.0,
          "duration": 2.0,
          "velocity": 100
        },
        {
          "pitch": 65,
          "onset": 8.0,
          "duration": 2.0,
          "velocity": 100
        },
        {
          "pitch": 56,
          "onset": 11.0,
          "duration": 1.0,
          "velocity": 100
        },
        {
          "pitch": 62,
          "onset": 11.0,
          "duration": 1.0,
          "velocity": 100
        },
        {
          "pitch": 65,
          "onset": 11.0,
          "duration": 1.0,
          "velocity": 100
        },
        {
          "pitch": 55,
          "onset": 12.0,
          "duration": 2.0,
          "velocity": 100
        },
        {
          "pitch": 62,
          "onset": 12.0,
          "duration": 1.0,
          "velocity": 100
        },
        {
          "pitch": 65,
          "onset": 12.0,
          "duration": 1.0,
          "velocity": 100
        },
        {
          "pitch": 60,
          "onset": 13.0,
          "duration": 1.0,
          "velocity": 100
        },
        {
          "pitch": 63,
          "onset": 13.0,
          "duration": 1.0,
          "velocity": 100
        },
        {
          "pitch": 72,
          "onset": 16.0,
          "duration": 4.0,
          "velocity": 100
        },
        {
          "pitch": 63,
          "onset": 17.0,
          "duration": 0.5,
          "velocity": 100
        },
        {
          "pitch": 62,
          "onset": 17.5,
          "duration": 0.5,
          "velocity": 100
        },
        {
          "pitch": 63,
          "onset": 18.0,
          "duration": 1.0,
          "velocity": 100
        },
        {
          "pitch": 60,
          "onset": 19.0,
          "duration": 1.0,
          "velocity": 100
        },
        {
          "pitch": 62,
          "onset": 20.0,
          "duration": 0.5,
          "velocity": 100
        },
        {
          "pitch": 65,
          "onset": 20.0,
          "duration": 0.5,
          "velocity": 100
        },
        {
          "pitch": 62,
          "onset": 20.5,
          "duration": 0.5,
          "velocity": 100
        },
        {
          "pitch": 62,
          "onset": 21.0,
          "duration": 0.5,
          "velocity": 100
        },
        {
          "pitch": 63,
          "onset": 21.5,
          "duration": 0.5,
          "velocity": 100
        },
        {
          "pitch": 63,
          "onset": 22.0,
          "duration": 0.5,
          "velocity": 100
        },
        {
          "pitch": 65,
          "onset": 22.5,
          "duration": 0.5,
          "velocity": 100
        },
        {
          "pitch": 65,
          "onset": 23.0,
          "duration": 0.5,
          "velocity": 100
        },
        {
          "pitch": 67,
          "onset": 23.5,
          "duration": 0.5,
          "velocity": 100
        },
        {
          "pitch": 67,
          "onset": 24.0,
          "duration": 1.0,
          "velocity": 100
        },
        {
          "pitch": 67,
          "onset": 25.0,
          "duration": 0.5,
          "velocity": 100
        },
        {
          "pitch": 65,
          "onset": 25.5,
          "duration": 0.5,
          "velocity": 100
        },
        {
          "pitch": 67,
          "onset": 26.0,
          "duration": 1.0,
          "velocity": 100
        },
        {
          "pitch": 73,
          "onset": 26.0,
          "duration": 2.0,
          "velocity": 100
        },
        {
          "pitch": 58,
          "onset": 27.0,
          "duration": 1.0,
          "velocity": 100
        },
        {
          "pitch": 60,
          "onset": 28.0,
          "duration": 1.0,
          "velocity": 100
        },
        {
          "pitch": 72,
          "onset": 28.0,
          "duration": 1.0,
          "velocity": 100
        },
        {
          "pitch": 72,
          "onset": 30.5,
          "duration": 0.5,
          "velocity": 100
        },
        {
          "pitch": 72,
          "onset": 31.0,
          "duration": 0.5,
          "velocity": 100
        },
        {
          "pitch": 70,
          "onset": 31.5,
          "duration": 0.5,
          "velocity": 100
        },
        {
          "pitch": 70,
          "onset": 32.0,
          "duration": 0.5,
          "velocity": 100
        },
        {
          "pitch": 68,
          "onset": 32.5,
          "duration": 0.5,
          "velocity": 100
        },
        {
          "pitch": 60,
          "onset": 33.0,
          "duration": 0.5,
          "velocity": 100
        },
        {
          "pitch": 68,
          "onset": 33.0,
          "duration": 2.0,
          "velocity": 100
        },
        {
          "pitch": 58,
          "onset": 33.5,
          "duration": 0.5,
          "velocity": 100
        },
        {
          "pitch": 60,
          "onset": 34.0,
          "duration": 1.0,
          "velocity": 100
        },
        {
          "pitch": 56,
          "onset": 35.0,
          "duration": 1.0,
          "velocity": 100
        },
        {
          "pitch": 68,
          "onset": 35.0,
          "duration": 1.0,
          "velocity": 100
        },
        {
          "pitch": 55,
          "onset": 36.0,
          "duration": 2.0,
          "velocity": 100
        },
        {
          "pitch": 62,
          "onset": 36.0,
          "duration": 2.0,
          "velocity": 100
        },
        {
          "pitch": 71,
          "onset": 36.0,
          "duration": 1.0,
          "velocity": 100
        },
        {
          "pitch": 55,
          "onset": 39.0,
          "duration": 1.0,
          "velocity": 100
        },
        {
          "pitch": 59,
          "onset": 39.0,
          "duration": 1.0,
          "velocity": 100
        },
        {
          "pitch": 62,
          "onset": 39.0,
          "duration": 1.0,
          "velocity": 100
        },
        {
          "pitch": 55,
          "onset": 40.0,
          "duration": 2.0,
          "velocity": 100
        },
        {
          "pitch": 60,
          "onset": 40.0,
          "duration": 2.0,
          "velocity": 100
        },
        {
          "pitch": 67,
          "onset": 40.0,
          "duration": 2.0,
          "velocity": 100
        },
        {
          "pitch": 60,
          "onset": 43.0,
          "duration": 1.0,
          "velocity": 100
        },
        {
          "pitch": 63,
          "onset": 43.0,
          "duration": 1.0,
          "velocity": 100
        },
        {
          "pitch": 67,
          "onset": 43.0,
          "duration": 1.0,
          "velocity": 100
        },
        {
          "pitch": 60,
          "onset": 44.0,
          "duration": 2.0,
          "velocity": 100
        },
        {
          "pitch": 63,
          "onset": 44.0,
          "duration": 2.0,
          "velocity": 100
        },
        {
          "pitch": 69,
          "onset": 44.0,
          "duration": 2.0,
          "velocity": 100
        },
        {
          "pitch": 57,
          "onset": 47.0,
          "duration": 1.0,
          "velocity": 100
        },
        {
          "pitch": 60,
          "onset": 47.0,
          "duration": 1.0,
          "velocity": 100
        },
        {
          "pitch": 66,
          "onset": 47.0,
          "duration": 1.0,
          "velocity": 100
        },
        {
          "pitch": 55,
          "onset": 48.0,
          "duration": 2.0,
          "velocity": 100
        },
        {
          "pitch": 62,
          "onset": 48.0,
          "duration": 2.0,
          "velocity": 100
        },
        {
          "pitch": 59,
          "onset": 51.0,
          "duration": 1.0,
          "velocity": 100
        },
        {
          "pitch": 60,
          "onset": 52.0,
          "duration": 0.5,
          "velocity": 100
        },
        {
          "pitch": 62,
          "onset": 52.5,
          "duration": 0.5,
          "velocity": 100
        },
        {
          "pitch": 59,
          "onset": 53.0,
          "duration": 0.5,
          "velocity": 100
        },
        {
          "pitch": 60,
          "onset": 53.5,
          "duration": 0.5,
          "velocity": 100
        },
        {
          "pitch": 62,
          "onset": 54.0,
          "duration": 0.5,
          "velocity": 100
        },
        {
          "pitch": 59,
          "onset": 54.5,
          "duration": 0.5,
          "velocity": 100
        },
        {
          "pitch": 60,
          "onset": 55.0,
          "duration": 0.5,
          "velocity": 100
        },
        {
          "pitch": 62,
          "onset": 55.5,
          "duration": 0.5,
          "velocity": 100
        },
        {
          "pitch": 55,
          "onset": 56.0,
          "duration": 2.0,
          "velocity": 100
        },
        {
          "pitch": 60,
          "onset": 59.0,
          "duration": 1.0,
          "velocity": 100
        },
        {
          "pitch": 59,
          "onset": 60.0,
          "duration": 2.0,
          "velocity": 100
        },
        {
          "pitch": 58,
          "onset": 62.0,
          "duration": 2.0,
          "velocity": 100
        },
        {
          "pitch": 56,
          "onset": 64.0,
          "duration": 3.0,
          "velocity": 100
        },
        {
          "pitch": 58,
          "onset": 65.0,
          "duration": 1.0,
          "velocity": 100
        },
        {
          "pitch": 60,
          "onset": 66.0,
          "duration": 1.0,
          "velocity": 100
        },
        {
          "pitch": 55,
          "onset": 67.0,
          "duration": 1.0,
          "velocity": 100
        },
        {
          "pitch": 61,
          "onset": 67.0,
          "duration": 1.5,
          "velocity": 100
        },
        {
          "pitch": 53,
          "onset": 68.0,
          "duration": 3.5,
          "velocity": 100
        },
        {
          "pitch": 61,
          "onset": 68.5,
          "duration": 0.5,
          "velocity": 100
        },
        {
          "pitch": 60,
          "onset": 69.0,
          "duration": 0.5,
          "velocity": 100
        },
        {
          "pitch": 58,
          "onset": 69.5,
          "duration": 0.5,
          "velocity": 100
        },
        {
          "pitch": 60,
          "onset": 70.0,
          "duration": 1.0,
          "velocity": 100
        },
        {
          "pitch": 56,
          "onset": 71.0,
          "duration": 2.0,
          "velocity": 100
        },
        {
          "pitch": 51,
          "onset": 71.5,
          "duration": 0.5,
          "velocity": 100
        },
        {
          "pitch": 49,
          "onset": 72.0,
          "duration": 1.0,
          "velocity": 100
        },
        {
          "pitch": 53,
          "onset": 74.0,
          "duration": 1.0,
          "velocity": 100
        },
        {
          "pitch": 61,
          "onset": 74.0,
          "duration": 1.0,
          "velocity": 100
        },
        {
          "pitch": 56,
          "onset": 76.0,
          "duration": 1.0,
          "velocity": 100
        },
        {
          "pitch": 61,
          "onset": 78.0,
          "duration": 1.0,
          "velocity": 100
        },
        {
          "pitch": 55,
          "onset": 81.0,
          "duration": 1.0,
          "velocity": 100
        },
        {
          "pitch": 62,
          "onset": 81.0,
          "duration": 1.0,
          "velocity": 100
        },
        {
          "pitch": 55,
          "onset": 82.0,
          "duration": 1.0,
          "velocity": 100
        },
        {
          "pitch": 60,
          "onset": 82.0,
          "duration": 1.0,
          "velocity": 100
        },
        {
          "pitch": 53,
          "onset": 83.0,
          "duration": 1.0,
          "velocity": 100
        },
        {
          "pitch": 59,
          "onset": 83.0,
          "duration": 1.0,
          "velocity": 100
        },
        {
          "pitch": 55,
          "onset": 84.0,
          "duration": 1.0,
          "velocity": 100
        },
        {
          "pitch": 60,
          "onset": 84.0,
          "duration": 1.0,
          "velocity": 100
        },
        {
          "pitch": 59,
          "onset": 85.0,
          "duration": 1.0,
          "velocity": 100
        },
        {
          "pitch": 62,
          "onset": 85.0,
          "duration": 1.0,
          "velocity": 100
        },
        {
          "pitch": 68,
          "onset": 85.0,
          "duration": 1.0,
          "velocity": 100
        },
        {
          "pitch": 60,
          "onset": 86.0,
          "duration": 1.0,
          "velocity": 100
        },
        {
          "pitch": 67,
          "onset": 86.0,
          "duration": 1.0,
          "velocity": 100
        },
        {
          "pitch": 60,
          "onset": 87.0,
          "duration": 1.0,
          "velocity": 100
        },
        {
          "pitch": 67,
          "onset": 87.0,
          "duration": 1.0,
          "velocity": 100
        },
        {
          "pitch": 60,
          "onset": 88.0,
          "duration": 0.3125,
          "velocity": 100
        },
        {
          "pitch": 68,
          "onset": 88.0,
          "duration": 0.3125,
          "velocity": 100
        },
        {
          "pitch": 67,
          "onset": 88.3438,
          "duration": 0.3125,
          "velocity": 100
        },
        {
          "pitch": 65,
          "onset": 88.6562,
          "duration": 0.3125,
          "velocity": 100
        },
        {
          "pitch": 64,
          "onset": 89.0,
          "duration": 0.3125,
          "velocity": 100
        },
        {
          "pitch": 62,
          "onset": 89.3438,
          "duration": 0.3125,
          "velocity": 100
        },
        {
          "pitch": 60,
          "onset": 89.6562,
          "duration": 0.3125,
          "velocity": 100
        },
        {
          "pitch": 72,
          "onset": 90.0,
          "duration": 1.0,
          "velocity": 100
        },
        {
          "pitch": 70,
          "onset": 91.0,
          "duration": 1.0,
          "velocity": 100
        },
        {
          "pitch": 63,
          "onset": 92.3438,
          "duration": 0.3125,
          "velocity": 100
        },
        {
          "pitch": 62,
          "onset": 92.6562,
          "duration": 0.3125,
          "velocity": 100
        },
        {
          "pitch": 60,
          "onset": 93.0,
          "duration": 0.3125,
          "velocity": 100
        },
        {
          "pitch": 62,
          "onset": 93.3438,
          "duration": 0.3125,
          "velocity": 100
        },
        {
          "pitch": 63,
          "onset": 93.6562,
          "duration": 0.3125,
          "velocity": 100
        },
        {
          "pitch": 62,
          "onset": 94.0,
          "duration": 2.0,
          "velocity": 100
        },
        {
          "pitch": 60,
          "onset": 96.0,
          "duration": 2.0,
          "velocity": 100
        },
        {
          "pitch": 63,
          "onset": 96.0,
          "duration": 1.0,
          "velocity": 100
        },
        {
          "pitch": 67,
          "onset": 96.0,
          "duration": 1.0,
          "velocity": 100
        },
        {
          "pitch": 62,
          "onset": 98.0,
          "duration": 2.0,
          "velocity": 100
        },
        {
          "pitch": 63,
          "onset": 100.0,
          "duration": 2.0,
          "velocity": 100
        },
        {
          "pitch": 65,
          "onset": 102.0,
          "duration": 2.0,
          "velocity": 100
        },
        {
          "pitch": 67,
          "onset": 104.0,
          "duration": 1.0,
          "velocity": 100
        },
        {
          "pitch": 65,
          "onset": 105.0,
          "duration": 1.0,
          "velocity": 100
        },
        {
          "pitch": 63,
          "onset": 106.0,
          "duration": 1.0,
          "velocity": 100
        },
        {
          "pitch": 62,
          "onset": 107.0,
          "duration": 1.0,
          "velocity": 100
        },
        {
          "pitch": 60,
          "onset": 108.0,
          "duration": 1.0,
          "velocity": 100
        },
        {
          "pitch": 67,
          "onset": 108.0,
          "duration": 2.0,
          "velocity": 100
        },
        {
          "pitch": 58,
          "onset": 109.0,
          "duration": 1.0,
          "velocity": 100
        },
        {
          "pitch": 60,
          "onset": 110.0,
          "duration": 1.0,
          "velocity": 100
        },
        {
          "pitch": 69,
          "onset": 110.0,
          "duration": 2.0,
          "velocity": 100
        },
        {
          "pitch": 62,
          "onset": 111.0,
          "duration": 0.75,
          "velocity": 100
        },
        {
          "pitch": 72,
          "onset": 111.75,
          "duration": 0.25,
          "velocity": 100
        },
        {
          "pitch": 70,
          "onset": 112.0,
          "duration": 2.0,
          "velocity": 100
        },
        {
          "pitch": 69,
          "onset": 112.75,
          "duration": 0.25,
          "velocity": 100
        },
        {
          "pitch": 67,
          "onset": 113.0,
          "duration": 0.75,
          "velocity": 100
        },
        {
          "pitch": 65,
          "onset": 113.75,
          "duration": 0.25,
          "velocity": 100
        },
        {
          "pitch": 63,
          "onset": 114.0,
          "duration": 0.75,
          "velocity": 100
        },
        {
          "pitch": 72,
          "onset": 114.0,
          "duration": 2.0,
          "velocity": 100
        },
        {
          "pitch": 62,
          "onset": 114.75,
          "duration": 0.25,
          "velocity": 100
        },
        {
          "pitch": 60,
          "onset": 115.0,
          "duration": 3.0,
          "velocity": 100
        },
        {
          "pitch": 58,
          "onset": 118.0,
          "duration": 1.0,
          "velocity": 100
        },
        {
          "pitch": 57,
          "onset": 119.0,
          "duration": 1.0,
          "velocity": 100
        },
        {
          "pitch": 55,
          "onset": 120.0,
          "duration": 1.0,
          "velocity": 100
        },
        {
          "pitch": 65,
          "onset": 121.0,
          "duration": 1.0,
          "velocity": 100
        },
        {
          "pitch": 63,
          "onset": 122.0,
          "duration": 1.0,
          "velocity": 100
        },
        {
          "pitch": 62,
          "onset": 123.0,
          "duration": 1.0,
          "velocity": 100
        },
        {
          "pitch": 60,
          "onset": 124.0,
          "duration": 1.0,
          "velocity": 100
        },
        {
          "pitch": 75,
          "onset": 124.0,
          "duration": 1.0,
          "velocity": 100
        },
        {
          "pitch": 58,
          "onset": 125.0,
          "duration": 1.0,
          "velocity": 100
        },
        {
          "pitch": 64,
          "onset": 125.0,
          "duration": 1.0,
          "velocity": 100
        },
        {
          "pitch": 56,
          "onset": 126.0,
          "duration": 1.0,
          "velocity": 100
        },
        {
          "pitch": 65,
          "onset": 126.0,
          "duration": 1.0,
          "velocity": 100
        },
        {
          "pitch": 55,
          "onset": 127.0,
          "duration": 1.0,
          "velocity": 100
        },
        {
          "pitch": 67,
          "onset": 127.0,
          "duration": 1.0,
          "velocity": 100
        },
        {
          "pitch": 53,
          "onset": 128.0,
          "duration": 1.0,
          "velocity": 100
        },
        {
          "pitch": 63,
          "onset": 129.0,
          "duration": 1.0,
          "velocity": 100
        },
        {
          "pitch": 62,
          "onset": 130.0,
          "duration": 1.0,
          "velocity": 100
        },
        {
          "pitch": 60,
          "onset": 131.0,
          "duration": 1.0,
          "velocity": 100
        },
        {
          "pitch": 58,
          "onset": 132.0,
          "duration": 1.0,
          "velocity": 100
        },
        {
          "pitch": 74,
          "onset": 132.0,
          "duration": 1.0,
          "velocity": 100
        },
        {
          "pitch": 56,
          "onset": 133.0,
          "duration": 1.0,
          "velocity": 100
        },
        {
          "pitch": 62,
          "onset": 133.0,
          "duration": 1.0,
          "velocity": 100
        },
        {
          "pitch": 55,
          "onset": 134.0,
          "duration": 1.0,
          "velocity": 100
        },
        {
          "pitch": 63,
          "onset": 134.0,
          "duration": 1.0,
          "velocity": 100
        },
        {
          "pitch": 53,
          "onset": 135.0,
          "duration": 1.0,
          "velocity": 100
        },
        {
          "pitch": 65,
          "onset": 135.0,
          "duration": 1.0,
          "velocity": 100
        },
        {
          "pitch": 51,
          "onset": 136.0,
          "duration": 1.0,
          "velocity": 100
        },
        {
          "pitch": 63,
          "onset": 137.3438,
          "duration": 0.3125,
          "velocity": 100
        },
        {
          "pitch": 55,
          "onset": 137.6562,
          "duration": 0.3125,
          "velocity": 100
        },
        {
          "pitch": 56,
          "onset": 138.0,
          "duration": 0.3125,
          "velocity": 100
        },
        {
          "pitch": 58,
          "onset": 138.3438,
          "duration": 0.3125,
          "velocity": 100
        },
        {
          "pitch": 60,
          "onset": 138.6562,
          "duration": 0.6562,
          "velocity": 100
        },
        {
          "pitch": 62,
          "onset": 139.3438,
          "duration": 0.3125,
          "velocity": 100
        },
        {
          "pitch": 53,
          "onset": 139.6562,
          "duration": 0.3125,
          "velocity": 100
        },
        {
          "pitch": 55,
          "onset": 140.0,
          "duration": 0.3125,
          "velocity": 100
        },
        {
          "pitch": 56,
          "onset": 140.3438,
          "duration": 0.3125,
          "velocity": 100
        },
        {
          "pitch": 58,
          "onset": 140.6562,
          "duration": 0.6562,
          "velocity": 100
        },
        {
          "pitch": 60,
          "onset": 141.3438,
          "duration": 0.3125,
          "velocity": 100
        },
        {
          "pitch": 51,
          "onset": 141.6562,
          "duration": 0.3125,
          "velocity": 100
        },
        {
          "pitch": 53,
          "onset": 142.0,
          "duration": 0.3125,
          "velocity": 100
        },
        {
          "pitch": 55,
          "onset": 142.3438,
          "duration": 0.3125,
          "velocity": 100
        },
        {
          "pitch": 56,
          "onset": 142.6562,
          "duration": 0.6562,
          "velocity": 100
        },
        {
          "pitch": 58,
          "onset": 143.3438,
          "duration": 0.3125,
          "velocity": 100
        },
        {
          "pitch": 53,
          "onset": 143.6562,
          "duration": 0.3125,
          "velocity": 100
        },
        {
          "pitch": 55,
          "onset": 144.0,
          "duration": 0.3125,
          "velocity": 100
        },
        {
          "pitch": 58,
          "onset": 144.3438,
          "duration": 0.3125,
          "velocity": 100
        },
        {
          "pitch": 55,
          "onset": 144.6562,
          "duration": 0.3125,
          "velocity": 100
        },
        {
          "pitch": 51,
          "onset": 145.0,
          "duration": 0.3125,
          "velocity": 100
        },
        {
          "pitch": 60,
          "onset": 145.3438,
          "duration": 0.3125,
          "velocity": 100
        },
        {
          "pitch": 51,
          "onset": 145.6562,
          "duration": 0.3125,
          "velocity": 100
        },
        {
          "pitch": 53,
          "onset": 146.0,
          "duration": 0.3125,
          "velocity": 100
        },
        {
          "pitch": 55,
          "onset": 146.3438,
          "duration": 0.3125,
          "velocity": 100
        },
        {
          "pitch": 56,
          "onset": 146.6562,
          "duration": 0.6562,
          "velocity": 100
        },
        {
          "pitch": 58,
          "onset": 147.3438,
          "duration": 0.3125,
          "velocity": 100
        },
        {
          "pitch": 50,
          "onset": 147.6562,
          "duration": 0.3125,
          "velocity": 100
        },
        {
          "pitch": 51,
          "onset": 148.0,
          "duration": 0.3125,
          "velocity": 100
        },
        {
          "pitch": 53,
          "onset": 148.3438,
          "duration": 0.3125,
          "velocity": 100
        },
        {
          "pitch": 55,
          "onset": 148.6562,
          "duration": 0.6562,
          "velocity": 100
        },
        {
          "pitch": 56,
          "onset": 149.3438,
          "duration": 0.3125,
          "velocity": 100
        },
        {
          "pitch": 48,
          "onset": 149.6562,
          "duration": 0.3125,
          "velocity": 100
        },
        {
          "pitch": 50,
          "onset": 150.0,
          "duration": 0.3125,
          "velocity": 100
        },
        {
          "pitch": 51,
          "onset": 150.3438,
          "duration": 0.3125,
          "velocity": 100
        },
        {
          "pitch": 53,
          "onset": 150.6562,
          "duration": 0.6562,
          "velocity": 100
        },
        {
          "pitch": 55,
          "onset": 151.3438,
          "duration": 0.3125,
          "velocity": 100
        },
        {
          "pitch": 53,
          "onset": 151.6562,
          "duration": 0.3125,
          "velocity": 100
        },
        {
          "pitch": 51,
          "onset": 152.0,
          "duration": 0.3125,
          "velocity": 100
        },
        {
          "pitch": 55,
          "onset": 152.3438,
          "duration": 0.3125,
          "velocity": 100
        },
        {
          "pitch": 59,
          "onset": 152.6562,
          "duration": 0.3125,
          "velocity": 100
        },
        {
          "pitch": 60,
          "onset": 153.0,
          "duration": 1.3125,
          "velocity": 100
        },
        {
          "pitch": 59,
          "onset": 154.3438,
          "duration": 0.3125,
          "velocity": 100
        },
        {
          "pitch": 57,
          "onset": 154.6562,
          "duration": 0.3125,
          "velocity": 100
        },
        {
          "pitch": 59,
          "onset": 155.0,
          "duration": 0.3125,
          "velocity": 100
        },
        {
          "pitch": 62,
          "onset": 155.3438,
          "duration": 0.3125,
          "velocity": 100
        },
        {
          "pitch": 56,
          "onset": 155.6562,
          "duration": 0.3125,
          "velocity": 100
        },
        {
          "pitch": 55,
          "onset": 156.0,
          "duration": 0.3125,
          "velocity": 100
        },
        {
          "pitch": 57,
          "onset": 156.3438,
          "duration": 0.3125,
          "velocity": 100
        },
        {
          "pitch": 59,
          "onset": 156.6562,
          "duration": 0.3125,
          "velocity": 100
        },
        {
          "pitch": 60,
          "onset": 157.0,
          "duration": 0.3125,
          "velocity": 100
        },
        {
          "pitch": 62,
          "onset": 157.3438,
          "duration": 0.3125,
          "velocity": 100
        },
        {
          "pitch": 63,
          "onset": 157.6562,
          "duration": 0.6562,
          "velocity": 100
        },
        {
          "pitch": 61,
          "onset": 158.3438,
          "duration": 0.3125,
          "velocity": 100
        },
        {
          "pitch": 60,
          "onset": 158.6562,
          "duration": 0.3125,
          "velocity": 100
        },
        {
          "pitch": 61,
          "onset": 159.0,
          "duration": 0.3125,
          "velocity": 100
        },
        {
          "pitch": 65,
          "onset": 159.3438,
          "duration": 0.3125,
          "velocity": 100
        },
        {
          "pitch": 60,
          "onset": 159.6562,
          "duration": 0.3125,
          "velocity": 100
        },
        {
          "pitch": 59,
          "onset": 160.0,
          "duration": 0.3125,
          "velocity": 100
        },
        {
          "pitch": 62,
          "onset": 160.3438,
          "duration": 0.3125,
          "velocity": 100
        },
        {
          "pitch": 59,
          "onset": 160.6562,
          "duration": 0.3125,
          "velocity": 100
        },
        {
          "pitch": 55,
          "onset": 161.0,
          "duration": 0.3125,
          "velocity": 100
        },
        {
          "pitch": 59,
          "onset": 161.3438,
          "duration": 0.3125,
          "velocity": 100
        },
        {
          "pitch": 62,
          "onset": 161.6562,
          "duration": 0.3125,
          "velocity": 100
        },
        {
          "pitch": 67,
          "onset": 162.0,
          "duration": 0.3125,
          "velocity": 100
        },
        {
          "pitch": 62,
          "onset": 162.3438,
          "duration": 0.3125,
          "velocity": 100
        },
        {
          "pitch": 60,
          "onset": 162.6562,
          "duration": 0.3125,
          "velocity": 100
        },
        {
          "pitch": 65,
          "onset": 163.0,
          "duration": 0.3125,
          "velocity": 100
        },
        {
          "pitch": 60,
          "onset": 163.3438,
          "duration": 0.3125,
          "velocity": 100
        },
        {
          "pitch": 59,
          "onset": 163.6562,
          "duration": 0.3125,
          "velocity": 100
        },
        {
          "pitch": 60,
          "onset": 164.0,
          "duration": 4.3125,
          "velocity": 100
        },
        {
          "pitch": 60,
          "onset": 168.3438,
          "duration": 0.3125,
          "velocity": 100
        },
        {
          "pitch": 57,
          "onset": 168.6562,
          "duration": 0.3125,
          "velocity": 100
        },
        {
          "pitch": 53,
          "onset": 169.0,
          "duration": 0.3125,
          "velocity": 100
        },
        {
          "pitch": 57,
          "onset": 169.3438,
          "duration": 0.3125,
          "velocity": 100
        },
        {
          "pitch": 60,
          "onset": 169.6562,
          "duration": 0.3125,
          "velocity": 100
        },
        {
          "pitch": 65,
          "onset": 170.0,
          "duration": 0.3125,
          "velocity": 100
        },
        {
          "pitch": 60,
          "onset": 170.3438,
          "duration": 0.3125,
          "velocity": 100
        },
        {
          "pitch": 58,
          "onset": 170.6562,
          "duration": 0.3125,
          "velocity": 100
        },
        {
          "pitch": 63,
          "onset": 171.0,
          "duration": 0.3125,
          "velocity": 100
        },
        {
          "pitch": 58,
          "onset": 171.3438,
          "duration": 0.3125,
          "velocity": 100
        },
        {
          "pitch": 57,
          "onset": 171.6562,
          "duration": 0.3125,
          "velocity": 100
        },
        {
          "pitch": 58,
          "onset": 172.0,
          "duration": 7.0,
          "velocity": 100
        },
        {
          "pitch": 57,
          "onset": 179.0,
          "duration": 2.0,
          "velocity": 100
        },
        {
          "pitch": 55,
          "onset": 181.0,
          "duration": 2.0,
          "velocity": 100
        },
        {
          "pitch": 54,
          "onset": 183.0,
          "duration": 1.0,
          "velocity": 100
        },
        {
          "pitch": 55,
          "onset": 184.0,
          "duration": 3.0,
          "velocity": 100
        },
        {
          "pitch": 57,
          "onset": 187.0,
          "duration": 1.0,
          "velocity": 100
        },
        {
          "pitch": 59,
          "onset": 188.0,
          "duration": 1.3125,
          "velocity": 100
        },
        {
          "pitch": 60,
          "onset": 189.3438,
          "duration": 0.3125,
          "velocity": 100
        },
        {
          "pitch": 58,
          "onset": 189.6562,
          "duration": 0.3125,
          "velocity": 100
        },
        {
          "pitch": 57,
          "onset": 190.0,
          "duration": 0.3125,
          "velocity": 100
        },
        {
          "pitch": 58,
          "onset": 190.3438,
          "duration": 0.3125,
          "velocity": 100
        },
        {
          "pitch": 60,
          "onset": 190.6562,
          "duration": 0.6562,
          "velocity": 100
        },
        {
          "pitch": 58,
          "onset": 191.3438,
          "duration": 0.3125,
          "velocity": 100
        },
        {
          "pitch": 57,
          "onset": 191.6562,
          "duration": 0.3125,
          "velocity": 100
        },
        {
          "pitch": 50,
          "onset": 192.0,
          "duration": 2.0,
          "velocity": 100
        },
        {
          "pitch": 55,
          "onset": 192.0,
          "duration": 2.0,
          "velocity": 100
        },
        {
          "pitch": 58,
          "onset": 192.0,
          "duration": 2.0,
          "velocity": 100
        },
        {
          "pitch": 50,
          "onset": 195.0,
          "duration": 1.0,
          "velocity": 100
        },
        {
          "pitch": 55,
          "onset": 195.0,
          "duration": 1.0,
          "velocity": 100
        },
        {
          "pitch": 58,
          "onset": 195.0,
          "duration": 1.0,
          "velocity": 100
        },
        {
          "pitch": 50,
          "onset": 196.0,
          "duration": 1.0,
          "velocity": 100
        },
        {
          "pitch": 55,
          "onset": 196.0,
          "duration": 1.0,
          "velocity": 100
        },
        {
          "pitch": 58,
          "onset": 196.0,
          "duration": 1.0,
          "velocity": 100
        },
        {
          "pitch": 48,
          "onset": 197.0,
          "duration": 1.0,
          "velocity": 100
        },
        {
          "pitch": 54,
          "onset": 197.0,
          "duration": 1.0,
          "velocity": 100
        },
        {
          "pitch": 57,
          "onset": 197.0,
          "duration": 1.0,
          "velocity": 100
        },
        {
          "pitch": 54,
          "onset": 202.0,
          "duration": 2.0,
          "velocity": 100
        },
        {
          "pitch": 57,
          "onset": 202.0,
          "duration": 2.0,
          "velocity": 100
        },
        {
          "pitch": 60,
          "onset": 202.0,
          "duration": 2.0,
          "velocity": 100
        },
        {
          "pitch": 50,
          "onset": 206.0,
          "duration": 2.0,
          "velocity": 100
        },
        {
          "pitch": 55,
          "onset": 206.0,
          "duration": 1.0,
          "velocity": 100
        },
        {
          "pitch": 58,
          "onset": 206.0,
          "duration": 1.0,
          "velocity": 100
        },
        {
          "pitch": 57,
          "onset": 207.0,
          "duration": 1.0,
          "velocity": 100
        },
        {
          "pitch": 60,
          "onset": 207.0,
          "duration": 1.0,
          "velocity": 100
        },
        {
          "pitch": 55,
          "onset": 208.0,
          "duration": 0.75,
          "velocity": 100
        },
        {
          "pitch": 50,
          "onset": 208.75,
          "duration": 0.25,
          "velocity": 100
        },
        {
          "pitch": 55,
          "onset": 209.0,
          "duration": 0.3125,
          "velocity": 100
        },
        {
          "pitch": 54,
          "onset": 209.3438,
          "duration": 0.3125,
          "velocity": 100
        },
        {
          "pitch": 55,
          "onset": 209.6562,
          "duration": 0.6562,
          "velocity": 100
        },
        {
          "pitch": 54,
          "onset": 210.3438,
          "duration": 0.3125,
          "velocity": 100
        },
        {
          "pitch": 52,
          "onset": 210.6562,
          "duration": 0.3125,
          "velocity": 100
        },
        {
          "pitch": 54,
          "onset": 211.0,
          "duration": 0.3125,
          "velocity": 100
        },
        {
          "pitch": 57,
          "onset": 211.3438,
          "duration": 0.3125,
          "velocity": 100
        },
        {
          "pitch": 51,
          "onset": 211.6562,
          "duration": 0.3125,
          "velocity": 100
        },
        {
          "pitch": 50,
          "onset": 212.0,
          "duration": 0.3125,
          "velocity": 100
        },
        {
          "pitch": 52,
          "onset": 212.3438,
          "duration": 0.3125,
          "velocity": 100
        },
        {
          "pitch": 54,
          "onset": 212.6562,
          "duration": 0.3125,
          "velocity": 100
        },
        {
          "pitch": 55,
          "onset": 213.0,
          "duration": 0.3125,
          "velocity": 100
        },
        {
          "pitch": 57,
          "onset": 213.3438,
          "duration": 0.3125,
          "velocity": 100
        },
        {
          "pitch": 58,
          "onset": 213.6562,
          "duration": 0.6562,
          "velocity": 100
        },
        {
          "pitch": 56,
          "onset": 214.3438,
          "duration": 0.3125,
          "velocity": 100
        },
        {
          "pitch": 55,
          "onset": 214.6562,
          "duration": 0.3125,
          "velocity": 100
        },
        {
          "pitch": 56,
          "onset": 215.0,
          "duration": 0.3125,
          "velocity": 100
        },
        {
          "pitch": 60,
          "onset": 215.3438,
          "duration": 0.3125,
          "velocity": 100
        },
        {
          "pitch": 55,
          "onset": 215.6562,
          "duration": 0.3125,
          "velocity": 100
        },
        {
          "pitch": 54,
          "onset": 216.0,
          "duration": 0.3125,
          "velocity": 100
        },
        {
          "pitch": 57,
          "onset": 216.3438,
          "duration": 0.3125,
          "velocity": 100
        },
        {
          "pitch": 54,
          "onset": 216.6562,
          "duration": 0.3125,
          "velocity": 100
        },
        {
          "pitch": 50,
          "onset": 217.0,
          "duration": 0.3125,
          "velocity": 100
        },
        {
          "pitch": 54,
          "onset": 217.3438,
          "duration": 0.3125,
          "velocity": 100
        },
        {
          "pitch": 57,
          "onset": 217.6562,
          "duration": 0.3125,
          "velocity": 100
        },
        {
          "pitch": 62,
          "onset": 218.0,
          "duration": 0.3125,
          "velocity": 100
        },
        {
          "pitch": 57,
          "onset": 218.3438,
          "duration": 0.3125,
          "velocity": 100
        },
        {
          "pitch": 55,
          "onset": 218.6562,
          "duration": 0.3125,
          "velocity": 100
        },
        {
          "pitch": 60,
          "onset": 219.0,
          "duration": 0.3125,
          "velocity": 100
        },
        {
          "pitch": 55,
          "onset": 219.3438,
          "duration": 0.3125,
          "velocity": 100
        },
        {
          "pitch": 54,
          "onset": 219.6562,
          "duration": 0.3125,
          "velocity": 100
        },
        {
          "pitch": 58,
          "onset": 220.0,
          "duration": 0.3125,
          "velocity": 100
        },
        {
          "pitch": 57,
          "onset": 220.3438,
          "duration": 0.3125,
          "velocity": 100
        },
        {
          "pitch": 55,
          "onset": 220.6562,
          "duration": 0.3125,
          "velocity": 100
        },
        {
          "pitch": 53,
          "onset": 221.0,
          "duration": 0.3125,
          "velocity": 100
        },
        {
          "pitch": 52,
          "onset": 221.3438,
          "duration": 0.3125,
          "velocity": 100
        },
        {
          "pitch": 53,
          "onset": 221.6562,
          "duration": 0.3125,
          "velocity": 100
        },
        {
          "pitch": 55,
          "onset": 222.0,
          "duration": 0.3125,
          "velocity": 100
        },
        {
          "pitch": 53,
          "onset": 222.3438,
          "duration": 0.3125,
          "velocity": 100
        },
        {
          "pitch": 55,
          "onset": 222.6562,
          "duration": 0.3125,
          "velocity": 100
        },
        {
          "pitch": 57,
          "onset": 223.0,
          "duration": 0.75,
          "velocity": 100
        },
        {
          "pitch": 67,
          "onset": 223.75,
          "duration": 0.25,
          "velocity": 100
        },
        {
          "pitch": 65,
          "onset": 224.0,
          "duration": 0.75,
          "velocity": 100
        },
        {
          "pitch": 64,
          "onset": 224.75,
          "duration": 0.25,
          "velocity": 100
        },
        {
          "pitch": 62,
          "onset": 225.0,
          "duration": 0.75,
          "velocity": 100
        },
        {
          "pitch": 60,
          "onset": 225.75,
          "duration": 0.25,
          "velocity": 100
        },
        {
          "pitch": 58,
          "onset": 226.0,
          "duration": 0.75,
          "velocity": 100
        },
        {
          "pitch": 57,
          "onset": 226.75,
          "duration": 0.25,
          "velocity": 100
        },
        {
          "pitch": 55,
          "onset": 227.0,
          "duration": 2.0,
          "velocity": 100
        },
        {
          "pitch": 49,
          "onset": 229.0,
          "duration": 0.5,
          "velocity": 100
        },
        {
          "pitch": 50,
          "onset": 230.0,
          "duration": 0.5,
          "velocity": 100
        },
        {
          "pitch": 52,
          "onset": 231.0,
          "duration": 0.5,
          "velocity": 100
        },
        {
          "pitch": 45,
          "onset": 232.0,
          "duration": 0.5,
          "velocity": 100
        },
        {
          "pitch": 46,
          "onset": 233.0,
          "duration": 0.5,
          "velocity": 100
        },
        {
          "pitch": 43,
          "onset": 234.0,
          "duration": 0.5,
          "velocity": 100
        },
        {
          "pitch": 45,
          "onset": 235.0,
          "duration": 0.5,
          "velocity": 100
        },
        {
          "pitch": 46,
          "onset": 236.0,
          "duration": 1.0,
          "velocity": 100
        },
        {
          "pitch": 55,
          "onset": 236.0,
          "duration": 2.0,
          "velocity": 100
        },
        {
          "pitch": 51,
          "onset": 237.0,
          "duration": 1.0,
          "velocity": 100
        },
        {
          "pitch": 48,
          "onset": 238.0,
          "duration": 1.0,
          "velocity": 100
        },
        {
          "pitch": 57,
          "onset": 238.0,
          "duration": 2.0,
          "velocity": 100
        },
        {
          "pitch": 50,
          "onset": 239.0,
          "duration": 0.75,
          "velocity": 100
        },
        {
          "pitch": 60,
          "onset": 239.75,
          "duration": 0.25,
          "velocity": 100
        },
        {
          "pitch": 58,
          "onset": 240.0,
          "duration": 2.0,
          "velocity": 100
        },
        {
          "pitch": 57,
          "onset": 240.75,
          "duration": 0.25,
          "velocity": 100
        },
        {
          "pitch": 55,
          "onset": 241.0,
          "duration": 0.75,
          "velocity": 100
        },
        {
          "pitch": 53,
          "onset": 241.75,
          "duration": 0.25,
          "velocity": 100
        },
        {
          "pitch": 51,
          "onset": 242.0,
          "duration": 0.75,
          "velocity": 100
        },
        {
          "pitch": 60,
          "onset": 242.0,
          "duration": 2.0,
          "velocity": 100
        },
        {
          "pitch": 50,
          "onset": 242.75,
          "duration": 0.25,
          "velocity": 100
        },
        {
          "pitch": 48,
          "onset": 243.0,
          "duration": 2.0,
          "velocity": 100
        },
        {
          "pitch": 62,
          "onset": 244.0,
          "duration": 1.0,
          "velocity": 100
        },
        {
          "pitch": 48,
          "onset": 245.0,
          "duration": 1.0,
          "velocity": 100
        },
        {
          "pitch": 54,
          "onset": 245.0,
          "duration": 1.0,
          "velocity": 100
        },
        {
          "pitch": 46,
          "onset": 246.0,
          "duration": 1.0,
          "velocity": 100
        },
        {
          "pitch": 55,
          "onset": 246.0,
          "duration": 1.0,
          "velocity": 100
        },
        {
          "pitch": 45,
          "onset": 247.0,
          "duration": 1.0,
          "velocity": 100
        },
        {
          "pitch": 57,
          "onset": 247.0,
          "duration": 1.0,
          "velocity": 100
        },
        {
          "pitch": 43,
          "onset": 248.0,
          "duration": 1.0,
          "velocity": 100
        },
        {
          "pitch": 50,
          "onset": 248.0,
          "duration": 1.0,
          "velocity": 100
        },
        {
          "pitch": 53,
          "onset": 249.0,
          "duration": 1.0,
          "velocity": 100
        },
        {
          "pitch": 59,
          "onset": 249.0,
          "duration": 1.0,
          "velocity": 100
        },
        {
          "pitch": 51,
          "onset": 250.0,
          "duration": 1.0,
          "velocity": 100
        },
        {
          "pitch": 60,
          "onset": 250.0,
          "duration": 1.0,
          "velocity": 100
        },
        {
          "pitch": 50,
          "onset": 251.0,
          "duration": 1.0,
          "velocity": 100
        },
        {
          "pitch": 62,
          "onset": 251.0,
          "duration": 1.0,
          "velocity": 100
        },
        {
          "pitch": 48,
          "onset": 252.0,
          "duration": 1.0,
          "velocity": 100
        },
        {
          "pitch": 55,
          "onset": 252.0,
          "duration": 1.0,
          "velocity": 100
        },
        {
          "pitch": 58,
          "onset": 253.0,
          "duration": 1.0,
          "velocity": 100
        },
        {
          "pitch": 56,
          "onset": 254.0,
          "duration": 1.0,
          "velocity": 100
        },
        {
          "pitch": 55,
          "onset": 255.0,
          "duration": 1.0,
          "velocity": 100
        },
        {
          "pitch": 53,
          "onset": 256.0,
          "duration": 1.0,
          "velocity": 100
        },
        {
          "pitch": 51,
          "onset": 257.0,
          "duration": 1.0,
          "velocity": 100
        },
        {
          "pitch": 57,
          "onset": 257.0,
          "duration": 1.0,
          "velocity": 100
        },
        {
          "pitch": 50,
          "onset": 258.0,
          "duration": 1.0,
          "velocity": 100
        },
        {
          "pitch": 58,
          "onset": 258.0,
          "duration": 1.0,
          "velocity": 100
        },
        {
          "pitch": 48,
          "onset": 259.0,
          "duration": 1.0,
          "velocity": 100
        },
        {
          "pitch": 60,
          "onset": 259.0,
          "duration": 1.0,
          "velocity": 100
        },
        {
          "pitch": 46,
          "onset": 260.0,
          "duration": 1.0,
          "velocity": 100
        },
        {
          "pitch": 58,
          "onset": 261.75,
          "duration": 0.25,
          "velocity": 100
        },
        {
          "pitch": 55,
          "onset": 262.0,
          "duration": 0.75,
          "velocity": 100
        },
        {
          "pitch": 51,
          "onset": 262.75,
          "duration": 0.25,
          "velocity": 100
        },
        {
          "pitch": 57,
          "onset": 263.0,
          "duration": 0.75,
          "velocity": 100
        },
        {
          "pitch": 53,
          "onset": 263.75,
          "duration": 0.25,
          "velocity": 100
        },
        {
          "pitch": 58,
          "onset": 264.0,
          "duration": 0.75,
          "velocity": 100
        },
        {
          "pitch": 57,
          "onset": 264.75,
          "duration": 0.25,
          "velocity": 100
        },
        {
          "pitch": 55,
          "onset": 265.0,
          "duration": 0.75,
          "velocity": 100
        },
        {
          "pitch": 53,
          "onset": 265.75,
          "duration": 0.25,
          "velocity": 100
        },
        {
          "pitch": 51,
          "onset": 266.0,
          "duration": 0.75,
          "velocity": 100
        },
        {
          "pitch": 50,
          "onset": 266.75,
          "duration": 0.25,
          "velocity": 100
        },
        {
          "pitch": 48,
          "onset": 267.0,
          "duration": 0.75,
          "velocity": 100
        },
        {
          "pitch": 53,
          "onset": 267.75,
          "duration": 0.25,
          "velocity": 100
        },
        {
          "pitch": 46,
          "onset": 268.0,
          "duration": 0.3125,
          "velocity": 100
        },
        {
          "pitch": 62,
          "onset": 268.0,
          "duration": 1.0,
          "velocity": 100
        },
        {
          "pitch": 48,
          "onset": 268.3438,
          "duration": 0.3125,
          "velocity": 100
        },
        {
          "pitch": 50,
          "onset": 268.6562,
          "duration": 0.3125,
          "velocity": 100
        },
        {
          "pitch": 51,
          "onset": 269.0,
          "duration": 0.75,
          "velocity": 100
        },
        {
          "pitch": 58,
          "onset": 269.0,
          "duration": 2.0,
          "velocity": 100
        },
        {
          "pitch": 50,
          "onset": 269.75,
          "duration": 0.25,
          "velocity": 100
        },
        {
          "pitch": 51,
          "onset": 270.0,
          "duration": 0.75,
          "velocity": 100
        },
        {
          "pitch": 48,
          "onset": 270.75,
          "duration": 0.25,
          "velocity": 100
        },
        {
          "pitch": 53,
          "onset": 271.0,
          "duration": 0.75,
          "velocity": 100
        },
        {
          "pitch": 57,
          "onset": 271.0,
          "duration": 2.0,
          "velocity": 100
        },
        {
          "pitch": 48,
          "onset": 271.75,
          "duration": 0.25,
          "velocity": 100
        },
        {
          "pitch": 50,
          "onset": 272.0,
          "duration": 0.75,
          "velocity": 100
        },
        {
          "pitch": 46,
          "onset": 272.75,
          "duration": 0.25,
          "velocity": 100
        },
        {
          "pitch": 51,
          "onset": 273.0,
          "duration": 0.75,
          "velocity": 100
        },
        {
          "pitch": 55,
          "onset": 273.0,
          "duration": 2.0,
          "velocity": 100
        },
        {
          "pitch": 50,
          "onset": 273.75,
          "duration": 0.25,
          "velocity": 100
        },
        {
          "pitch": 48,
          "onset": 274.0,
          "duration": 0.75,
          "velocity": 100
        },
        {
          "pitch": 46,
          "onset": 274.75,
          "duration": 0.25,
          "velocity": 100
        },
        {
          "pitch": 45,
          "onset": 275.0,
          "duration": 0.75,
          "velocity": 100
        },
        {
          "pitch": 54,
          "onset": 275.0,
          "duration": 1.0,
          "velocity": 100
        },
        {
          "pitch": 50,
          "onset": 275.75,
          "duration": 0.25,
          "velocity": 100
        },
        {
          "pitch": 43,
          "onset": 276.0,
          "duration": 0.5,
          "velocity": 100
        },
        {
          "pitch": 55,
          "onset": 276.0,
          "duration": 0.3125,
          "velocity": 100
        },
        {
          "pitch": 58,
          "onset": 276.3438,
          "duration": 0.3125,
          "velocity": 100
        },
        {
          "pitch": 60,
          "onset": 276.6562,
          "duration": 0.3125,
          "velocity": 100
        },
        {
          "pitch": 62,
          "onset": 277.0,
          "duration": 0.3125,
          "velocity": 100
        },
        {
          "pitch": 63,
          "onset": 277.3438,
          "duration": 0.3125,
          "velocity": 100
        },
        {
          "pitch": 65,
          "onset": 277.6562,
          "duration": 0.3125,
          "velocity": 100
        },
        {
          "pitch": 58,
          "onset": 278.0,
          "duration": 1.0,
          "velocity": 100
        },
        {
          "pitch": 67,
          "onset": 279.0,
          "duration": 1.0,
          "velocity": 100
        },
        {
          "pitch": 60,
          "onset": 280.0,
          "duration": 0.5,
          "velocity": 100
        },
        {
          "pitch": 57,
          "onset": 280.5,
          "duration": 0.5,
          "velocity": 100
        },
        {
          "pitch": 57,
          "onset": 281.0,
          "duration": 0.5,
          "velocity": 100
        },
        {
          "pitch": 58,
          "onset": 281.5,
          "duration": 0.5,
          "velocity": 100
        },
        {
          "pitch": 58,
          "onset": 282.0,
          "duration": 0.5,
          "velocity": 100
        },
        {
          "pitch": 60,
          "onset": 282.5,
          "duration": 0.5,
          "velocity": 100
        },
        {
          "pitch": 60,
          "onset": 283.0,
          "duration": 0.5,
          "velocity": 100
        },
        {
          "pitch": 62,
          "onset": 283.5,
          "duration": 0.5,
          "velocity": 100
        },
        {
          "pitch": 62,
          "onset": 284.0,
          "duration": 1.0,
          "velocity": 100
        },
        {
          "pitch": 62,
          "onset": 285.0,
          "duration": 0.5,
          "velocity": 100
        },
        {
          "pitch": 65,
          "onset": 285.0,
          "duration": 1.0,
          "velocity": 100
        },
        {
          "pitch": 60,
          "onset": 285.5,
          "duration": 0.5,
          "velocity": 100
        },
        {
          "pitch": 62,
          "onset": 286.0,
          "duration": 1.0,
          "velocity": 100
        },
        {
          "pitch": 68,
          "onset": 286.0,
          "duration": 2.0,
          "velocity": 100
        },
        {
          "pitch": 53,
          "onset": 287.0,
          "duration": 1.0,
          "velocity": 100
        },
        {
          "pitch": 55,
          "onset": 288.0,
          "duration": 1.0,
          "velocity": 100
        },
        {
          "pitch": 67,
          "onset": 288.0,
          "duration": 1.0,
          "velocity": 100
        },
        {
          "pitch": 67,
          "onset": 290.5,
          "duration": 0.5,
          "velocity": 100
        },
        {
          "pitch": 67,
          "onset": 291.0,
          "duration": 0.5,
          "velocity": 100
        },
        {
          "pitch": 65,
          "onset": 291.5,
          "duration": 0.5,
          "velocity": 100
        },
        {
          "pitch": 65,
          "onset": 292.0,
          "duration": 0.5,
          "velocity": 100
        },
        {
          "pitch": 63,
          "onset": 292.5,
          "duration": 0.5,
          "velocity": 100
        },
        {
          "pitch": 55,
          "onset": 293.0,
          "duration": 0.5,
          "velocity": 100
        },
        {
          "pitch": 63,
          "onset": 293.0,
          "duration": 2.0,
          "velocity": 100
        },
        {
          "pitch": 53,
          "onset": 293.5,
          "duration": 0.5,
          "velocity": 100
        },
        {
          "pitch": 55,
          "onset": 294.0,
          "duration": 1.0,
          "velocity": 100
        },
        {
          "pitch": 51,
          "onset": 295.0,
          "duration": 1.3125,
          "velocity": 100
        },
        {
          "pitch": 63,
          "onset": 295.0,
          "duration": 1.0,
          "velocity": 100
        },
        {
          "pitch": 57,
          "onset": 296.0,
          "duration": 1.0,
          "velocity": 100
        },
        {
          "pitch": 50,
          "onset": 296.3438,
          "duration": 0.3125,
          "velocity": 100
        },
        {
          "pitch": 52,
          "onset": 296.6562,
          "duration": 0.3125,
          "velocity": 100
        },
        {
          "pitch": 54,
          "onset": 297.0,
          "duration": 0.3125,
          "velocity": 100
        },
        {
          "pitch": 55,
          "onset": 297.3438,
          "duration": 0.3125,
          "velocity": 100
        },
        {
          "pitch": 57,
          "onset": 297.6562,
          "duration": 0.3125,
          "velocity": 100
        },
        {
          "pitch": 58,
          "onset": 298.0,
          "duration": 0.3125,
          "velocity": 100
        },
        {
          "pitch": 60,
          "onset": 298.3438,
          "duration": 0.3125,
          "velocity": 100
        },
        {
          "pitch": 62,
          "onset": 298.6562,
          "duration": 0.3125,
          "velocity": 100
        },
        {
          "pitch": 63,
          "onset": 299.0,
          "duration": 0.3125,
          "velocity": 100
        },
        {
          "pitch": 62,
          "onset": 299.3438,
          "duration": 0.3125,
          "velocity": 100
        },
        {
          "pitch": 60,
          "onset": 299.6562,
          "duration": 0.3125,
          "velocity": 100
        },
        {
          "pitch": 58,
          "onset": 300.0,
          "duration": 0.3125,
          "velocity": 100
        },
        {
          "pitch": 55,
          "onset": 300.3438,
          "duration": 0.3125,
          "velocity": 100
        },
        {
          "pitch": 57,
          "onset": 300.6562,
          "duration": 0.3125,
          "velocity": 100
        },
        {
          "pitch": 58,
          "onset": 301.0,
          "duration": 0.3125,
          "velocity": 100
        },
        {
          "pitch": 60,
          "onset": 301.3438,
          "duration": 0.3125,
          "velocity": 100
        },
        {
          "pitch": 62,
          "onset": 301.6562,
          "duration": 0.3125,
          "velocity": 100
        },
        {
          "pitch": 64,
          "onset": 302.0,
          "duration": 0.3125,
          "velocity": 100
        },
        {
          "pitch": 65,
          "onset": 302.3438,
          "duration": 0.3125,
          "velocity": 100
        },
        {
          "pitch": 67,
          "onset": 302.6562,
          "duration": 0.3125,
          "velocity": 100
        },
        {
          "pitch": 65,
          "onset": 303.0,
          "duration": 0.3125,
          "velocity": 100
        },
        {
          "pitch": 64,
          "onset": 303.3438,
          "duration": 0.3125,
          "velocity": 100
        },
        {
          "pitch": 62,
          "onset": 303.6562,
          "duration": 0.3125,
          "velocity": 100
        },
        {
          "pitch": 61,
          "onset": 304.0,
          "duration": 0.3125,
          "velocity": 100
        },
        {
          "pitch": 62,
          "onset": 304.3438,
          "duration": 0.3125,
          "velocity": 100
        },
        {
          "pitch": 64,
          "onset": 304.6562,
          "duration": 0.3125,
          "velocity": 100
        },
        {
          "pitch": 62,
          "onset": 305.0,
          "duration": 0.3125,
          "velocity": 100
        },
        {
          "pitch": 61,
          "onset": 305.3438,
          "duration": 0.3125,
          "velocity": 100
        },
        {
          "pitch": 58,
          "onset": 305.6562,
          "duration": 0.3125,
          "velocity": 100
        },
        {
          "pitch": 57,
          "onset": 306.0,
          "duration": 0.3125,
          "velocity": 100
        },
        {
          "pitch": 55,
          "onset": 306.3438,
          "duration": 0.3125,
          "velocity": 100
        },
        {
          "pitch": 54,
          "onset": 306.6562,
          "duration": 0.3125,
          "velocity": 100
        },
        {
          "pitch": 52,
          "onset": 307.0,
          "duration": 0.3125,
          "velocity": 100
        },
        {
          "pitch": 54,
          "onset": 307.3438,
          "duration": 0.3125,
          "velocity": 100
        },
        {
          "pitch": 55,
          "onset": 307.6562,
          "duration": 0.3125,
          "velocity": 100
        },
        {
          "pitch": 54,
          "onset": 308.0,
          "duration": 1.0,
          "velocity": 100
        },
        {
          "pitch": 62,
          "onset": 308.0,
          "duration": 1.0,
          "velocity": 100
        },
        {
          "pitch": 62,
          "onset": 309.0,
          "duration": 1.3125,
          "velocity": 100
        },
        {
          "pitch": 50,
          "onset": 310.3438,
          "duration": 0.3125,
          "velocity": 100
        },
        {
          "pitch": 60,
          "onset": 310.6562,
          "duration": 0.3125,
          "velocity": 100
        },
        {
          "pitch": 58,
          "onset": 311.0,
          "duration": 0.3125,
          "velocity": 100
        },
        {
          "pitch": 57,
          "onset": 311.3438,
          "duration": 0.3125,
          "velocity": 100
        },
        {
          "pitch": 55,
          "onset": 311.6562,
          "duration": 0.3125,
          "velocity": 100
        },
        {
          "pitch": 63,
          "onset": 312.0,
          "duration": 0.3125,
          "velocity": 100
        },
        {
          "pitch": 57,
          "onset": 312.3438,
          "duration": 0.3125,
          "velocity": 100
        },
        {
          "pitch": 58,
          "onset": 312.6562,
          "duration": 0.3125,
          "velocity": 100
        },
        {
          "pitch": 60,
          "onset": 313.0,
          "duration": 0.3125,
          "velocity": 100
        },
        {
          "pitch": 62,
          "onset": 313.3438,
          "duration": 0.3125,
          "velocity": 100
        },
        {
          "pitch": 63,
          "onset": 313.6562,
          "duration": 0.3125,
          "velocity": 100
        },
        {
          "pitch": 54,
          "onset": 314.0,
          "duration": 0.3125,
          "velocity": 100
        },
        {
          "pitch": 57,
          "onset": 314.3438,
          "duration": 0.3125,
          "velocity": 100
        },
        {
          "pitch": 55,
          "onset": 314.6562,
          "duration": 0.3125,
          "velocity": 100
        },
        {
          "pitch": 54,
          "onset": 315.0,
          "duration": 0.3125,
          "velocity": 100
        },
        {
          "pitch": 52,
          "onset": 315.3438,
          "duration": 0.3125,
          "velocity": 100
        },
        {
          "pitch": 50,
          "onset": 315.6562,
          "duration": 0.3125,
          "velocity": 100
        },
        {
          "pitch": 55,
          "onset": 316.0,
          "duration": 0.3125,
          "velocity": 100
        },
        {
          "pitch": 43,
          "onset": 316.3438,
          "duration": 0.3125,
          "velocity": 100
        },
        {
          "pitch": 45,
          "onset": 316.6562,
          "duration": 0.3125,
          "velocity": 100
        },
        {
          "pitch": 46,
          "onset": 317.0,
          "duration": 0.3125,
          "velocity": 100
        },
        {
          "pitch": 48,
          "onset": 317.3438,
          "duration": 0.3125,
          "velocity": 100
        },
        {
          "pitch": 50,
          "onset": 317.6562,
          "duration": 0.3125,
          "velocity": 100
        },
        {
          "pitch": 51,
          "onset": 318.0,
          "duration": 2.75,
          "velocity": 100
        },
        {
          "pitch": 59,
          "onset": 318.75,
          "duration": 0.25,
          "velocity": 100
        },
        {
          "pitch": 60,
          "onset": 319.0,
          "duration": 0.75,
          "velocity": 100
        },
        {
          "pitch": 56,
          "onset": 319.75,
          "duration": 0.25,
          "velocity": 100
        },
        {
          "pitch": 53,
          "onset": 320.0,
          "duration": 2.75,
          "velocity": 100
        },
        {
          "pitch": 51,
          "onset": 320.75,
          "duration": 0.25,
          "velocity": 100
        },
        {
          "pitch": 50,
          "onset": 321.0,
          "duration": 0.75,
          "velocity": 100
        },
        {
          "pitch": 48,
          "onset": 321.75,
          "duration": 0.25,
          "velocity": 100
        },
        {
          "pitch": 50,
          "onset": 322.0,
          "duration": 2.0,
          "velocity": 100
        },
        {
          "pitch": 56,
          "onset": 322.75,
          "duration": 0.25,
          "velocity": 100
        },
        {
          "pitch": 55,
          "onset": 323.0,
          "duration": 0.75,
          "velocity": 100
        },
        {
          "pitch": 53,
          "onset": 323.75,
          "duration": 0.25,
          "velocity": 100
        },
        {
          "pitch": 48,
          "onset": 324.0,
          "duration": 0.3125,
          "velocity": 100
        },
        {
          "pitch": 51,
          "onset": 324.3438,
          "duration": 0.3125,
          "velocity": 100
        },
        {
          "pitch": 55,
          "onset": 324.6562,
          "duration": 0.3125,
          "velocity": 100
        },
        {
          "pitch": 60,
          "onset": 325.0,
          "duration": 0.3125,
          "velocity": 100
        },
        {
          "pitch": 59,
          "onset": 325.3438,
          "duration": 0.3125,
          "velocity": 100
        },
        {
          "pitch": 60,
          "onset": 325.6562,
          "duration": 0.6562,
          "velocity": 100
        },
        {
          "pitch": 59,
          "onset": 326.3438,
          "duration": 0.3125,
          "velocity": 100
        },
        {
          "pitch": 57,
          "onset": 326.6562,
          "duration": 0.3125,
          "velocity": 100
        },
        {
          "pitch": 59,
          "onset": 327.0,
          "duration": 0.3125,
          "velocity": 100
        },
        {
          "pitch": 62,
          "onset": 327.3438,
          "duration": 0.3125,
          "velocity": 100
        },
        {
          "pitch": 56,
          "onset": 327.6562,
          "duration": 0.3125,
          "velocity": 100
        },
        {
          "pitch": 55,
          "onset": 328.0,
          "duration": 0.3125,
          "velocity": 100
        },
        {
          "pitch": 57,
          "onset": 328.3438,
          "duration": 0.3125,
          "velocity": 100
        },
        {
          "pitch": 59,
          "onset": 328.6562,
          "duration": 0.3125,
          "velocity": 100
        },
        {
          "pitch": 60,
          "onset": 329.0,
          "duration": 0.3125,
          "velocity": 100
        },
        {
          "pitch": 62,
          "onset": 329.3438,
          "duration": 0.3125,
          "velocity": 100
        },
        {
          "pitch": 63,
          "onset": 329.6562,
          "duration": 0.6562,
          "velocity": 100
        },
        {
          "pitch": 61,
          "onset": 330.3438,
          "duration": 0.3125,
          "velocity": 100
        },
        {
          "pitch": 60,
          "onset": 330.6562,
          "duration": 0.3125,
          "velocity": 100
        },
        {
          "pitch": 61,
          "onset": 331.0,
          "duration": 0.3125,
          "velocity": 100
        },
        {
          "pitch": 65,
          "onset": 331.3438,
          "duration": 0.3125,
          "velocity": 100
        },
        {
          "pitch": 60,
          "onset": 331.6562,
          "duration": 0.3125,
          "velocity": 100
        },
        {
          "pitch": 59,
          "onset": 332.0,
          "duration": 0.3125,
          "velocity": 100
        },
        {
          "pitch": 62,
          "onset": 332.3438,
          "duration": 0.3125,
          "velocity": 100
        },
        {
          "pitch": 59,
          "onset": 332.6562,
          "duration": 0.3125,
          "velocity": 100
        },
        {
          "pitch": 55,
          "onset": 333.0,
          "duration": 0.3125,
          "velocity": 100
        },
        {
          "pitch": 59,
          "onset": 333.3438,
          "duration": 0.3125,
          "velocity": 100
        },
        {
          "pitch": 62,
          "onset": 333.6562,
          "duration": 0.3125,
          "velocity": 100
        },
        {
          "pitch": 67,
          "onset": 334.0,
          "duration": 0.3125,
          "velocity": 100
        },
        {
          "pitch": 62,
          "onset": 334.3438,
          "duration": 0.3125,
          "velocity": 100
        },
        {
          "pitch": 60,
          "onset": 334.6562,
          "duration": 0.3125,
          "velocity": 100
        },
        {
          "pitch": 65,
          "onset": 335.0,
          "duration": 0.3125,
          "velocity": 100
        },
        {
          "pitch": 60,
          "onset": 335.3438,
          "duration": 0.3125,
          "velocity": 100
        },
        {
          "pitch": 59,
          "onset": 335.6562,
          "duration": 0.3125,
          "velocity": 100
        },
        {
          "pitch": 63,
          "onset": 336.0,
          "duration": 0.5,
          "velocity": 100
        },
        {
          "pitch": 65,
          "onset": 336.5,
          "duration": 0.5,
          "velocity": 100
        },
        {
          "pitch": 63,
          "onset": 337.0,
          "duration": 0.5,
          "velocity": 100
        },
        {
          "pitch": 62,
          "onset": 337.5,
          "duration": 0.5,
          "velocity": 100
        },
        {
          "pitch": 60,
          "onset": 338.0,
          "duration": 0.5,
          "velocity": 100
        },
        {
          "pitch": 62,
          "onset": 338.5,
          "duration": 0.5,
          "velocity": 100
        },
        {
          "pitch": 64,
          "onset": 339.0,
          "duration": 0.5,
          "velocity": 100
        },
        {
          "pitch": 60,
          "onset": 339.5,
          "duration": 0.5,
          "velocity": 100
        },
        {
          "pitch": 65,
          "onset": 340.0,
          "duration": 0.5,
          "velocity": 100
        },
        {
          "pitch": 67,
          "onset": 340.5,
          "duration": 0.5,
          "velocity": 100
        },
        {
          "pitch": 64,
          "onset": 341.0,
          "duration": 0.5,
          "velocity": 100
        },
        {
          "pitch": 65,
          "onset": 341.5,
          "duration": 0.5,
          "velocity": 100
        },
        {
          "pitch": 67,
          "onset": 342.0,
          "duration": 0.5,
          "velocity": 100
        },
        {
          "pitch": 64,
          "onset": 342.5,
          "duration": 0.5,
          "velocity": 100
        },
        {
          "pitch": 65,
          "onset": 343.0,
          "duration": 0.5,
          "velocity": 100
        },
        {
          "pitch": 67,
          "onset": 343.5,
          "duration": 0.5,
          "velocity": 100
        },
        {
          "pitch": 60,
          "onset": 344.0,
          "duration": 2.0,
          "velocity": 100
        },
        {
          "pitch": 61,
          "onset": 346.0,
          "duration": 4.0,
          "velocity": 100
        },
        {
          "pitch": 60,
          "onset": 350.0,
          "duration": 2.5,
          "velocity": 100
        },
        {
          "pitch": 63,
          "onset": 352.5,
          "duration": 0.5,
          "velocity": 100
        },
        {
          "pitch": 61,
          "onset": 353.0,
          "duration": 0.5,
          "velocity": 100
        },
        {
          "pitch": 60,
          "onset": 353.5,
          "duration": 0.5,
          "velocity": 100
        },
        {
          "pitch": 58,
          "onset": 354.0,
          "duration": 1.0,
          "velocity": 100
        },
        {
          "pitch": 57,
          "onset": 355.0,
          "duration": 1.0,
          "velocity": 100
        },
        {
          "pitch": 63,
          "onset": 355.5,
          "duration": 1.0,
          "velocity": 100
        },
        {
          "pitch": 58,
          "onset": 356.0,
          "duration": 2.0,
          "velocity": 100
        },
        {
          "pitch": 63,
          "onset": 356.5,
          "duration": 0.5,
          "velocity": 100
        },
        {
          "pitch": 61,
          "onset": 357.0,
          "duration": 0.5,
          "velocity": 100
        },
        {
          "pitch": 60,
          "onset": 357.5,
          "duration": 0.5,
          "velocity": 100
        },
        {
          "pitch": 61,
          "onset": 358.0,
          "duration": 1.5,
          "velocity": 100
        },
        {
          "pitch": 58,
          "onset": 358.5,
          "duration": 0.5,
          "velocity": 100
        },
        {
          "pitch": 53,
          "onset": 359.0,
          "duration": 0.5,
          "velocity": 100
        },
        {
          "pitch": 56,
          "onset": 359.5,
          "duration": 0.5,
          "velocity": 100
        },
        {
          "pitch": 59,
          "onset": 359.5,
          "duration": 0.5,
          "velocity": 100
        },
        {
          "pitch": 49,
          "onset": 360.0,
          "duration": 1.0,
          "velocity": 100
        },
        {
          "pitch": 58,
          "onset": 360.0,
          "duration": 0.25,
          "velocity": 100
        },
        {
          "pitch": 54,
          "onset": 360.25,
          "duration": 0.25,
          "velocity": 100
        },
        {
          "pitch": 53,
          "onset": 360.5,
          "duration": 0.25,
          "velocity": 100
        },
        {
          "pitch": 54,
          "onset": 360.75,
          "duration": 0.25,
          "velocity": 100
        },
        {
          "pitch": 61,
          "onset": 361.0,
          "duration": 1.25,
          "velocity": 100
        },
        {
          "pitch": 58,
          "onset": 362.25,
          "duration": 0.25,
          "velocity": 100
        },
        {
          "pitch": 57,
          "onset": 362.5,
          "duration": 0.25,
          "velocity": 100
        },
        {
          "pitch": 58,
          "onset": 362.75,
          "duration": 0.25,
          "velocity": 100
        },
        {
          "pitch": 66,
          "onset": 363.0,
          "duration": 1.25,
          "velocity": 100
        },
        {
          "pitch": 61,
          "onset": 364.25,
          "duration": 0.25,
          "velocity": 100
        },
        {
          "pitch": 60,
          "onset": 364.5,
          "duration": 0.25,
          "velocity": 100
        },
        {
          "pitch": 61,
          "onset": 364.75,
          "duration": 0.25,
          "velocity": 100
        },
        {
          "pitch": 70,
          "onset": 365.0,
          "duration": 1.25,
          "velocity": 100
        },
        {
          "pitch": 66,
          "onset": 366.25,
          "duration": 0.25,
          "velocity": 100
        },
        {
          "pitch": 65,
          "onset": 366.5,
          "duration": 0.25,
          "velocity": 100
        },
        {
          "pitch": 66,
          "onset": 366.75,
          "duration": 0.25,
          "velocity": 100
        },
        {
          "pitch": 73,
          "onset": 367.0,
          "duration": 0.75,
          "velocity": 100
        },
        {
          "pitch": 65,
          "onset": 367.75,
          "duration": 0.25,
          "velocity": 100
        },
        {
          "pitch": 64,
          "onset": 368.0,
          "duration": 0.3125,
          "velocity": 100
        },
        {
          "pitch": 60,
          "onset": 368.3438,
          "duration": 0.3125,
          "velocity": 100
        },
        {
          "pitch": 62,
          "onset": 368.6562,
          "duration": 0.3125,
          "velocity": 100
        },
        {
          "pitch": 64,
          "onset": 369.0,
          "duration": 0.3125,
          "velocity": 100
        },
        {
          "pitch": 62,
          "onset": 369.3438,
          "duration": 0.3125,
          "velocity": 100
        },
        {
          "pitch": 60,
          "onset": 369.6562,
          "duration": 0.3125,
          "velocity": 100
        },
        {
          "pitch": 65,
          "onset": 370.0,
          "duration": 0.3125,
          "velocity": 100
        },
        {
          "pitch": 61,
          "onset": 370.3438,
          "duration": 0.3125,
          "velocity": 100
        },
        {
          "pitch": 60,
          "onset": 370.6562,
          "duration": 0.3125,
          "velocity": 100
        },
        {
          "pitch": 67,
          "onset": 371.0,
          "duration": 0.3125,
          "velocity": 100
        },
        {
          "pitch": 61,
          "onset": 371.3438,
          "duration": 0.3125,
          "velocity": 100
        },
        {
          "pitch": 60,
          "onset": 371.6562,
          "duration": 0.3125,
          "velocity": 100
        },
        {
          "pitch": 68,
          "onset": 372.0,
          "duration": 0.3125,
          "velocity": 100
        },
        {
          "pitch": 67,
          "onset": 372.3438,
          "duration": 0.3125,
          "velocity": 100
        },
        {
          "pitch": 68,
          "onset": 372.6562,
          "duration": 0.3125,
          "velocity": 100
        },
        {
          "pitch": 70,
          "onset": 373.0,
          "duration": 0.3125,
          "velocity": 100
        },
        {
          "pitch": 68,
          "onset": 373.3438,
          "duration": 0.3125,
          "velocity": 100
        },
        {
          "pitch": 67,
          "onset": 373.6562,
          "duration": 0.3125,
          "velocity": 100
        },
        {
          "pitch": 68,
          "onset": 374.0,
          "duration": 0.3125,
          "velocity": 100
        },
        {
          "pitch": 67,
          "onset": 374.3438,
          "duration": 0.3125,
          "velocity": 100
        },
        {
          "pitch": 65,
          "onset": 374.6562,
          "duration": 0.3125,
          "velocity": 100
        },
        {
          "pitch": 69,
          "onset": 375.0,
          "duration": 0.3125,
          "velocity": 100
        },
        {
          "pitch": 66,
          "onset": 375.3438,
          "duration": 0.3125,
          "velocity": 100
        },
        {
          "pitch": 65,
          "onset": 375.6562,
          "duration": 0.3125,
          "velocity": 100
        },
        {
          "pitch": 70,
          "onset": 376.0,
          "duration": 0.3125,
          "velocity": 100
        },
        {
          "pitch": 69,
          "onset": 376.3438,
          "duration": 0.3125,
          "velocity": 100
        },
        {
          "pitch": 70,
          "onset": 376.6562,
          "duration": 0.3125,
          "velocity": 100
        },
        {
          "pitch": 72,
          "onset": 377.0,
          "duration": 0.3125,
          "velocity": 100
        },
        {
          "pitch": 70,
          "onset": 377.3438,
          "duration": 0.3125,
          "velocity": 100
        },
        {
          "pitch": 69,
          "onset": 377.6562,
          "duration": 0.3125,
          "velocity": 100
        },
        {
          "pitch": 70,
          "onset": 378.0,
          "duration": 0.3125,
          "velocity": 100
        },
        {
          "pitch": 68,
          "onset": 378.3438,
          "duration": 0.3125,
          "velocity": 100
        },
        {
          "pitch": 67,
          "onset": 378.6562,
          "duration": 0.3125,
          "velocity": 100
        },
        {
          "pitch": 68,
          "onset": 379.0,
          "duration": 0.3125,
          "velocity": 100
        },
        {
          "pitch": 67,
          "onset": 379.3438,
          "duration": 0.3125,
          "velocity": 100
        },
        {
          "pitch": 65,
          "onset": 379.6562,
          "duration": 0.3125,
          "velocity": 100
        },
        {
          "pitch": 74,
          "onset": 380.0,
          "duration": 0.3125,
          "velocity": 100
        },
        {
          "pitch": 65,
          "onset": 380.3438,
          "duration": 0.3125,
          "velocity": 100
        },
        {
          "pitch": 67,
          "onset": 380.6562,
          "duration": 0.3125,
          "velocity": 100
        },
        {
          "pitch": 68,
          "onset": 381.0,
          "duration": 0.3125,
          "velocity": 100
        },
        {
          "pitch": 67,
          "onset": 381.3438,
          "duration": 0.3125,
          "velocity": 100
        },
        {
          "pitch": 65,
          "onset": 381.6562,
          "duration": 0.3125,
          "velocity": 100
        },
        {
          "pitch": 64,
          "onset": 382.0,
          "duration": 1.5,
          "velocity": 100
        },
        {
          "pitch": 65,
          "onset": 383.5,
          "duration": 0.5,
          "velocity": 100
        },
        {
          "pitch": 65,
          "onset": 384.0,
          "duration": 0.3125,
          "velocity": 100
        },
        {
          "pitch": 53,
          "onset": 384.3438,
          "duration": 0.3125,
          "velocity": 100
        },
        {
          "pitch": 60,
          "onset": 384.6562,
          "duration": 0.3125,
          "velocity": 100
        },
        {
          "pitch": 65,
          "onset": 385.0,
          "duration": 0.3125,
          "velocity": 100
        },
        {
          "pitch": 64,
          "onset": 385.3438,
          "duration": 0.3125,
          "velocity": 100
        },
        {
          "pitch": 65,
          "onset": 385.6562,
          "duration": 0.6562,
          "velocity": 100
        },
        {
          "pitch": 64,
          "onset": 386.3438,
          "duration": 0.3125,
          "velocity": 100
        },
        {
          "pitch": 62,
          "onset": 386.6562,
          "duration": 0.3125,
          "velocity": 100
        },
        {
          "pitch": 64,
          "onset": 387.0,
          "duration": 0.3125,
          "velocity": 100
        },
        {
          "pitch": 67,
          "onset": 387.3438,
          "duration": 0.3125,
          "velocity": 100
        },
        {
          "pitch": 61,
          "onset": 387.6562,
          "duration": 0.3125,
          "velocity": 100
        },
        {
          "pitch": 60,
          "onset": 388.0,
          "duration": 0.3125,
          "velocity": 100
        },
        {
          "pitch": 62,
          "onset": 388.3438,
          "duration": 0.3125,
          "velocity": 100
        },
        {
          "pitch": 64,
          "onset": 388.6562,
          "duration": 0.3125,
          "velocity": 100
        },
        {
          "pitch": 65,
          "onset": 389.0,
          "duration": 0.3125,
          "velocity": 100
        },
        {
          "pitch": 67,
          "onset": 389.3438,
          "duration": 0.3125,
          "velocity": 100
        },
        {
          "pitch": 68,
          "onset": 389.6562,
          "duration": 0.6562,
          "velocity": 100
        },
        {
          "pitch": 67,
          "onset": 390.3438,
          "duration": 0.3125,
          "velocity": 100
        },
        {
          "pitch": 65,
          "onset": 390.6562,
          "duration": 0.3125,
          "velocity": 100
        },
        {
          "pitch": 67,
          "onset": 391.0,
          "duration": 0.3125,
          "velocity": 100
        },
        {
          "pitch": 70,
          "onset": 391.3438,
          "duration": 0.3125,
          "velocity": 100
        },
        {
          "pitch": 65,
          "onset": 391.6562,
          "duration": 0.3125,
          "velocity": 100
        },
        {
          "pitch": 64,
          "onset": 392.0,
          "duration": 0.3125,
          "velocity": 100
        },
        {
          "pitch": 67,
          "onset": 392.3438,
          "duration": 0.3125,
          "velocity": 100
        },
        {
          "pitch": 64,
          "onset": 392.6562,
          "duration": 0.3125,
          "velocity": 100
        },
        {
          "pitch": 60,
          "onset": 393.0,
          "duration": 0.3125,
          "velocity": 100
        },
        {
          "pitch": 64,
          "onset": 393.3438,
          "duration": 0.3125,
          "velocity": 100
        },
        {
          "pitch": 67,
          "onset": 393.6562,
          "duration": 0.3125,
          "velocity": 100
        },
        {
          "pitch": 72,
          "onset": 394.0,
          "duration": 0.3125,
          "velocity": 100
        },
        {
          "pitch": 67,
          "onset": 394.3438,
          "duration": 0.3125,
          "velocity": 100
        },
        {
          "pitch": 65,
          "onset": 394.6562,
          "duration": 0.3125,
          "velocity": 100
        },
        {
          "pitch": 70,
          "onset": 395.0,
          "duration": 0.3125,
          "velocity": 100
        },
        {
          "pitch": 65,
          "onset": 395.3438,
          "duration": 0.3125,
          "velocity": 100
        },
        {
          "pitch": 64,
          "onset": 395.6562,
          "duration": 0.3125,
          "velocity": 100
        },
        {
          "pitch": 68,
          "onset": 396.0,
          "duration": 0.75,
          "velocity": 100
        },
        {
          "pitch": 65,
          "onset": 396.75,
          "duration": 0.25,
          "velocity": 100
        },
        {
          "pitch": 63,
          "onset": 397.0,
          "duration": 0.75,
          "velocity": 100
        },
        {
          "pitch": 65,
          "onset": 397.75,
          "duration": 0.25,
          "velocity": 100
        },
        {
          "pitch": 61,
          "onset": 398.0,
          "duration": 0.75,
          "velocity": 100
        },
        {
          "pitch": 65,
          "onset": 398.75,
          "duration": 0.25,
          "velocity": 100
        },
        {
          "pitch": 60,
          "onset": 399.0,
          "duration": 0.75,
          "velocity": 100
        },
        {
          "pitch": 65,
          "onset": 399.75,
          "duration": 0.25,
          "velocity": 100
        },
        {
          "pitch": 58,
          "onset": 400.0,
          "duration": 1.0,
          "velocity": 100
        },
        {
          "pitch": 73,
          "onset": 400.0,
          "duration": 1.0,
          "velocity": 100
        },
        {
          "pitch": 61,
          "onset": 401.0,
          "duration": 1.0,
          "velocity": 100
        },
        {
          "pitch": 65,
          "onset": 401.0,
          "duration": 1.0,
          "velocity": 100
        },
        {
          "pitch": 55,
          "onset": 402.0,
          "duration": 1.0,
          "velocity": 100
        },
        {
          "pitch": 64,
          "onset": 402.0,
          "duration": 1.0,
          "velocity": 100
        },
        {
          "pitch": 53,
          "onset": 403.0,
          "duration": 1.0,
          "velocity": 100
        },
        {
          "pitch": 65,
          "onset": 403.0,
          "duration": 1.0,
          "velocity": 100
        },
        {
          "pitch": 55,
          "onset": 404.0,
          "duration": 2.0,
          "velocity": 100
        },
        {
          "pitch": 62,
          "onset": 404.0,
          "duration": 1.0,
          "velocity": 100
        },
        {
          "pitch": 67,
          "onset": 405.0,
          "duration": 1.0,
          "velocity": 100
        },
        {
          "pitch": 60,
          "onset": 406.0,
          "duration": 1.0,
          "velocity": 100
        },
        {
          "pitch": 65,
          "onset": 406.0,
          "duration": 2.0,
          "velocity": 100
        },
        {
          "pitch": 53,
          "onset": 407.0,
          "duration": 1.0,
          "velocity": 100
        },
        {
          "pitch": 55,
          "onset": 408.0,
          "duration": 1.0,
          "velocity": 100
        },
        {
          "pitch": 58,
          "onset": 408.0,
          "duration": 1.0,
          "velocity": 100
        },
        {
          "pitch": 51,
          "onset": 409.0,
          "duration": 1.0,
          "velocity": 100
        },
        {
          "pitch": 60,
          "onset": 409.0,
          "duration": 2.0,
          "velocity": 100
        },
        {
          "pitch": 53,
          "onset": 410.0,
          "duration": 1.0,
          "velocity": 100
        },
        {
          "pitch": 48,
          "onset": 411.0,
          "duration": 1.0,
          "velocity": 100
        },
        {
          "pitch": 55,
          "onset": 412.0,
          "duration": 2.0,
          "velocity": 100
        },
        {
          "pitch": 62,
          "onset": 412.0,
          "duration": 1.0,
          "velocity": 100
        },
        {
          "pitch": 63,
          "onset": 413.0,
          "duration": 1.0,
          "velocity": 100
        },
        {
          "pitch": 56,
          "onset": 414.0,
          "duration": 1.0,
          "velocity": 100
        },
        {
          "pitch": 65,
          "onset": 414.0,
          "duration": 1.0,
          "velocity": 100
        },
        {
          "pitch": 57,
          "onset": 415.0,
          "duration": 1.0,
          "velocity": 100
        },
        {
          "pitch": 66,
          "onset": 415.0,
          "duration": 1.0,
          "velocity": 100
        },
        {
          "pitch": 62,
          "onset": 416.3438,
          "duration": 0.3125,
          "velocity": 100
        },
        {
          "pitch": 59,
          "onset": 416.6562,
          "duration": 0.3125,
          "velocity": 100
        },
        {
          "pitch": 55,
          "onset": 417.0,
          "duration": 0.3125,
          "velocity": 100
        },
        {
          "pitch": 59,
          "onset": 417.3438,
          "duration": 0.3125,
          "velocity": 100
        },
        {
          "pitch": 62,
          "onset": 417.6562,
          "duration": 0.3125,
          "velocity": 100
        },
        {
          "pitch": 67,
          "onset": 418.0,
          "duration": 0.3125,
          "velocity": 100
        },
        {
          "pitch": 62,
          "onset": 418.3438,
          "duration": 0.3125,
          "velocity": 100
        },
        {
          "pitch": 60,
          "onset": 418.6562,
          "duration": 0.3125,
          "velocity": 100
        },
        {
          "pitch": 65,
          "onset": 419.0,
          "duration": 0.3125,
          "velocity": 100
        },
        {
          "pitch": 60,
          "onset": 419.3438,
          "duration": 0.3125,
          "velocity": 100
        },
        {
          "pitch": 59,
          "onset": 419.6562,
          "duration": 0.3125,
          "velocity": 100
        },
        {
          "pitch": 63,
          "onset": 420.0,
          "duration": 1.0,
          "velocity": 100
        },
        {
          "pitch": 72,
          "onset": 420.0,
          "duration": 1.0,
          "velocity": 100
        },
        {
          "pitch": 64,
          "onset": 421.0,
          "duration": 1.0,
          "velocity": 100
        },
        {
          "pitch": 70,
          "onset": 421.0,
          "duration": 1.0,
          "velocity": 100
        },
        {
          "pitch": 65,
          "onset": 422.0,
          "duration": 1.0,
          "velocity": 100
        },
        {
          "pitch": 68,
          "onset": 422.0,
          "duration": 1.0,
          "velocity": 100
        },
        {
          "pitch": 60,
          "onset": 423.0,
          "duration": 1.0,
          "velocity": 100
        },
        {
          "pitch": 67,
          "onset": 423.0,
          "duration": 1.0,
          "velocity": 100
        },
        {
          "pitch": 65,
          "onset": 424.0,
          "duration": 1.0,
          "velocity": 100
        },
        {
          "pitch": 63,
          "onset": 425.0,
          "duration": 1.0,
          "velocity": 100
        },
        {
          "pitch": 62,
          "onset": 426.0,
          "duration": 1.0,
          "velocity": 100
        },
        {
          "pitch": 61,
          "onset": 427.0,
          "duration": 1.0,
          "velocity": 100
        },
        {
          "pitch": 60,
          "onset": 428.0,
          "duration": 1.0,
          "velocity": 100
        },
        {
          "pitch": 59,
          "onset": 429.0,
          "duration": 1.0,
          "velocity": 100
        },
        {
          "pitch": 60,
          "onset": 430.0,
          "duration": 0.3125,
          "velocity": 100
        },
        {
          "pitch": 55,
          "onset": 430.3438,
          "duration": 0.3125,
          "velocity": 100
        },
        {
          "pitch": 51,
          "onset": 430.6562,
          "duration": 0.3125,
          "velocity": 100
        },
        {
          "pitch": 48,
          "onset": 431.0,
          "duration": 0.3125,
          "velocity": 100
        },
        {
          "pitch": 51,
          "onset": 431.3438,
          "duration": 0.3125,
          "velocity": 100
        },
        {
          "pitch": 55,
          "onset": 431.6562,
          "duration": 0.3125,
          "velocity": 100
        },
        {
          "pitch": 58,
          "onset": 432.0,
          "duration": 0.3125,
          "velocity": 100
        },
        {
          "pitch": 53,
          "onset": 432.3438,
          "duration": 0.3125,
          "velocity": 100
        },
        {
          "pitch": 51,
          "onset": 432.6562,
          "duration": 0.3125,
          "velocity": 100
        },
        {
          "pitch": 56,
          "onset": 433.0,
          "duration": 0.3125,
          "velocity": 100
        },
        {
          "pitch": 51,
          "onset": 433.3438,
          "duration": 0.3125,
          "velocity": 100
        },
        {
          "pitch": 49,
          "onset": 433.6562,
          "duration": 0.3125,
          "velocity": 100
        },
        {
          "pitch": 55,
          "onset": 434.0,
          "duration": 0.3125,
          "velocity": 100
        },
        {
          "pitch": 58,
          "onset": 434.3438,
          "duration": 0.3125,
          "velocity": 100
        },
        {
          "pitch": 55,
          "onset": 434.6562,
          "duration": 0.3125,
          "velocity": 100
        },
        {
          "pitch": 51,
          "onset": 435.0,
          "duration": 0.3125,
          "velocity": 100
        },
        {
          "pitch": 55,
          "onset": 435.3438,
          "duration": 0.3125,
          "velocity": 100
        },
        {
          "pitch": 58,
          "onset": 435.6562,
          "duration": 0.3125,
          "velocity": 100
        },
        {
          "pitch": 63,
          "onset": 436.0,
          "duration": 0.3125,
          "velocity": 100
        },
        {
          "pitch": 58,
          "onset": 436.3438,
          "duration": 0.3125,
          "velocity": 100
        },
        {
          "pitch": 56,
          "onset": 436.6562,
          "duration": 0.3125,
          "velocity": 100
        },
        {
          "pitch": 61,
          "onset": 437.0,
          "duration": 0.3125,
          "velocity": 100
        },
        {
          "pitch": 56,
          "onset": 437.3438,
          "duration": 0.3125,
          "velocity": 100
        },
        {
          "pitch": 55,
          "onset": 437.6562,
          "duration": 0.3125,
          "velocity": 100
        },
        {
          "pitch": 60,
          "onset": 438.0,
          "duration": 0.3125,
          "velocity": 100
        },
        {
          "pitch": 63,
          "onset": 438.3438,
          "duration": 0.3125,
          "velocity": 100
        },
        {
          "pitch": 60,
          "onset": 438.6562,
          "duration": 0.3125,
          "velocity": 100
        },
        {
          "pitch": 56,
          "onset": 439.0,
          "duration": 0.3125,
          "velocity": 100
        },
        {
          "pitch": 60,
          "onset": 439.3438,
          "duration": 0.3125,
          "velocity": 100
        },
        {
          "pitch": 63,
          "onset": 439.6562,
          "duration": 0.3125,
          "velocity": 100
        },
        {
          "pitch": 67,
          "onset": 440.0,
          "duration": 0.3125,
          "velocity": 100
        },
        {
          "pitch": 61,
          "onset": 440.3438,
          "duration": 0.3125,
          "velocity": 100
        },
        {
          "pitch": 60,
          "onset": 440.6562,
          "duration": 0.3125,
          "velocity": 100
        },
        {
          "pitch": 65,
          "onset": 441.0,
          "duration": 0.3125,
          "velocity": 100
        },
        {
          "pitch": 59,
          "onset": 441.3438,
          "duration": 0.3125,
          "velocity": 100
        },
        {
          "pitch": 58,
          "onset": 441.6562,
          "duration": 0.3125,
          "velocity": 100
        },
        {
          "pitch": 63,
          "onset": 442.0,
          "duration": 0.3125,
          "velocity": 100
        },
        {
          "pitch": 58,
          "onset": 442.3438,
          "duration": 0.3125,
          "velocity": 100
        },
        {
          "pitch": 56,
          "onset": 442.6562,
          "duration": 0.3125,
          "velocity": 100
        },
        {
          "pitch": 55,
          "onset": 443.0,
          "duration": 0.3125,
          "velocity": 100
        },
        {
          "pitch": 53,
          "onset": 443.3438,
          "duration": 0.3125,
          "velocity": 100
        },
        {
          "pitch": 51,
          "onset": 443.6562,
          "duration": 0.3125,
          "velocity": 100
        },
        {
          "pitch": 56,
          "onset": 444.0,
          "duration": 0.3125,
          "velocity": 100
        },
        {
          "pitch": 58,
          "onset": 444.3438,
          "duration": 0.3125,
          "velocity": 100
        },
        {
          "pitch": 60,
          "onset": 444.6562,
          "duration": 0.6562,
          "velocity": 100
        },
        {
          "pitch": 62,
          "onset": 445.3438,
          "duration": 0.3125,
          "velocity": 100
        },
        {
          "pitch": 53,
          "onset": 445.6562,
          "duration": 0.3125,
          "velocity": 100
        },
        {
          "pitch": 55,
          "onset": 446.0,
          "duration": 0.3125,
          "velocity": 100
        },
        {
          "pitch": 56,
          "onset": 446.3438,
          "duration": 0.3125,
          "velocity": 100
        },
        {
          "pitch": 58,
          "onset": 446.6562,
          "duration": 0.6562,
          "velocity": 100
        },
        {
          "pitch": 60,
          "onset": 447.3438,
          "duration": 0.3125,
          "velocity": 100
        },
        {
          "pitch": 51,
          "onset": 447.6562,
          "duration": 0.3125,
          "velocity": 100
        },
        {
          "pitch": 53,
          "onset": 448.0,
          "duration": 0.3125,
          "velocity": 100
        },
        {
          "pitch": 55,
          "onset": 448.3438,
          "duration": 0.3125,
          "velocity": 100
        },
        {
          "pitch": 56,
          "onset": 448.6562,
          "duration": 0.6562,
          "velocity": 100
        },
        {
          "pitch": 58,
          "onset": 449.3438,
          "duration": 0.3125,
          "velocity": 100
        },
        {
          "pitch": 50,
          "onset": 449.6562,
          "duration": 0.3125,
          "velocity": 100
        },
        {
          "pitch": 51,
          "onset": 450.0,
          "duration": 0.3125,
          "velocity": 100
        },
        {
          "pitch": 53,
          "onset": 450.3438,
          "duration": 0.3125,
          "velocity": 100
        },
        {
          "pitch": 55,
          "onset": 450.6562,
          "duration": 0.6562,
          "velocity": 100
        },
        {
          "pitch": 56,
          "onset": 451.3438,
          "duration": 0.3125,
          "velocity": 100
        },
        {
          "pitch": 48,
          "onset": 451.6562,
          "duration": 0.3125,
          "velocity": 100
        },
        {
          "pitch": 50,
          "onset": 452.0,
          "duration": 0.3125,
          "velocity": 100
        },
        {
          "pitch": 51,
          "onset": 452.3438,
          "duration": 0.3125,
          "velocity": 100
        },
        {
          "pitch": 53,
          "onset": 452.6562,
          "duration": 0.6562,
          "velocity": 100
        },
        {
          "pitch": 55,
          "onset": 453.3438,
          "duration": 0.3125,
          "velocity": 100
        },
        {
          "pitch": 46,
          "onset": 453.6562,
          "duration": 0.3125,
          "velocity": 100
        },
        {
          "pitch": 48,
          "onset": 454.0,
          "duration": 0.3125,
          "velocity": 100
        },
        {
          "pitch": 50,
          "onset": 454.3438,
          "duration": 0.3125,
          "velocity": 100
        },
        {
          "pitch": 51,
          "onset": 454.6562,
          "duration": 0.6562,
          "velocity": 100
        },
        {
          "pitch": 53,
          "onset": 455.3438,
          "duration": 0.3125,
          "velocity": 100
        },
        {
          "pitch": 44,
          "onset": 455.6562,
          "duration": 0.3125,
          "velocity": 100
        },
        {
          "pitch": 46,
          "onset": 456.0,
          "duration": 0.3125,
          "velocity": 100
        },
        {
          "pitch": 48,
          "onset": 456.3438,
          "duration": 0.3125,
          "velocity": 100
        },
        {
          "pitch": 50,
          "onset": 456.6562,
          "duration": 0.3125,
          "velocity": 100
        },
        {
          "pitch": 51,
          "onset": 457.0,
          "duration": 0.75,
          "velocity": 100
        },
        {
          "pitch": 48,
          "onset": 457.75,
          "duration": 0.25,
          "velocity": 100
        },
        {
          "pitch": 53,
          "onset": 458.0,
          "duration": 0.75,
          "velocity": 100
        },
        {
          "pitch": 51,
          "onset": 458.75,
          "duration": 0.25,
          "velocity": 100
        },
        {
          "pitch": 50,
          "onset": 459.0,
          "duration": 0.75,
          "velocity": 100
        },
        {
          "pitch": 48,
          "onset": 459.75,
          "duration": 0.25,
          "velocity": 100
        },
        {
          "pitch": 46,
          "onset": 460.0,
          "duration": 0.75,
          "velocity": 100
        },
        {
          "pitch": 43,
          "onset": 460.75,
          "duration": 0.25,
          "velocity": 100
        },
        {
          "pitch": 48,
          "onset": 461.0,
          "duration": 0.75,
          "velocity": 100
        },
        {
          "pitch": 46,
          "onset": 461.75,
          "duration": 0.25,
          "velocity": 100
        },
        {
          "pitch": 45,
          "onset": 462.0,
          "duration": 0.3125,
          "velocity": 100
        },
        {
          "pitch": 47,
          "onset": 462.3438,
          "duration": 0.3125,
          "velocity": 100
        },
        {
          "pitch": 48,
          "onset": 462.6562,
          "duration": 0.3125,
          "velocity": 100
        },
        {
          "pitch": 47,
          "onset": 463.0,
          "duration": 0.3125,
          "velocity": 100
        },
        {
          "pitch": 48,
          "onset": 463.3438,
          "duration": 0.3125,
          "velocity": 100
        },
        {
          "pitch": 50,
          "onset": 463.6562,
          "duration": 0.3125,
          "velocity": 100
        },
        {
          "pitch": 51,
          "onset": 464.0,
          "duration": 2.0,
          "velocity": 100
        },
        {
          "pitch": 55,
          "onset": 464.0,
          "duration": 2.0,
          "velocity": 100
        },
        {
          "pitch": 53,
          "onset": 466.0,
          "duration": 2.0,
          "velocity": 100
        },
        {
          "pitch": 62,
          "onset": 467.0,
          "duration": 2.0,
          "velocity": 100
        },
        {
          "pitch": 55,
          "onset": 468.0,
          "duration": 2.0,
          "velocity": 100
        },
        {
          "pitch": 60,
          "onset": 469.0,
          "duration": 1.3125,
          "velocity": 100
        },
        {
          "pitch": 56,
          "onset": 470.0,
          "duration": 2.0,
          "velocity": 100
        },
        {
          "pitch": 61,
          "onset": 470.3438,
          "duration": 0.3125,
          "velocity": 100
        },
        {
          "pitch": 63,
          "onset": 470.6562,
          "duration": 0.3125,
          "velocity": 100
        },
        {
          "pitch": 65,
          "onset": 471.0,
          "duration": 2.0,
          "velocity": 100
        },
        {
          "pitch": 55,
          "onset": 472.0,
          "duration": 1.0,
          "velocity": 100
        },
        {
          "pitch": 55,
          "onset": 473.0,
          "duration": 1.0,
          "velocity": 100
        },
        {
          "pitch": 59,
          "onset": 473.0,
          "duration": 1.0,
          "velocity": 100
        },
        {
          "pitch": 55,
          "onset": 474.0,
          "duration": 1.0,
          "velocity": 100
        },
        {
          "pitch": 60,
          "onset": 474.0,
          "duration": 1.0,
          "velocity": 100
        },
        {
          "pitch": 59,
          "onset": 475.0,
          "duration": 1.0,
          "velocity": 100
        },
        {
          "pitch": 62,
          "onset": 475.0,
          "duration": 1.0,
          "velocity": 100
        },
        {
          "pitch": 60,
          "onset": 476.0,
          "duration": 2.0,
          "velocity": 100
        },
        {
          "pitch": 63,
          "onset": 476.0,
          "duration": 2.0,
          "velocity": 100
        },
        {
          "pitch": 55,
          "onset": 478.0,
          "duration": 2.0,
          "velocity": 100
        },
        {
          "pitch": 60,
          "onset": 478.0,
          "duration": 2.0,
          "velocity": 100
        },
        {
          "pitch": 63,
          "onset": 478.0,
          "duration": 2.0,
          "velocity": 100
        },
        {
          "pitch": 53,
          "onset": 482.0,
          "duration": 1.0,
          "velocity": 100
        },
        {
          "pitch": 59,
          "onset": 482.0,
          "duration": 1.0,
          "velocity": 100
        },
        {
          "pitch": 62,
          "onset": 482.0,
          "duration": 1.0,
          "velocity": 100
        },
        {
          "pitch": 55,
          "onset": 483.0,
          "duration": 1.0,
          "velocity": 100
        },
        {
          "pitch": 60,
          "onset": 483.0,
          "duration": 1.0,
          "velocity": 100
        },
        {
          "pitch": 63,
          "onset": 483.0,
          "duration": 1.0,
          "velocity": 100
        },
        {
          "pitch": 56,
          "onset": 484.0,
          "duration": 2.0,
          "velocity": 100
        },
        {
          "pitch": 62,
          "onset": 484.0,
          "duration": 2.0,
          "velocity": 100
        },
        {
          "pitch": 65,
          "onset": 484.0,
          "duration": 2.0,
          "velocity": 100
        },
        {
          "pitch": 56,
          "onset": 487.0,
          "duration": 1.0,
          "velocity": 100
        },
        {
          "pitch": 62,
          "onset": 487.0,
          "duration": 1.0,
          "velocity": 100
        },
        {
          "pitch": 65,
          "onset": 487.0,
          "duration": 1.0,
          "velocity": 100
        },
        {
          "pitch": 55,
          "onset": 488.0,
          "duration": 2.0,
          "velocity": 100
        },
        {
          "pitch": 62,
          "onset": 488.0,
          "duration": 1.0,
          "velocity": 100
        },
        {
          "pitch": 65,
          "onset": 488.0,
          "duration": 1.0,
          "velocity": 100
        },
        {
          "pitch": 60,
          "onset": 489.0,
          "duration": 1.0,
          "velocity": 100
        },
        {
          "pitch": 63,
          "onset": 489.0,
          "duration": 1.0,
          "velocity": 100
        },
        {
          "pitch": 72,
          "onset": 492.0,
          "duration": 4.0,
          "velocity": 100
        },
        {
          "pitch": 63,
          "onset": 493.0,
          "duration": 0.5,
          "velocity": 100
        },
        {
          "pitch": 62,
          "onset": 493.5,
          "duration": 0.5,
          "velocity": 100
        },
        {
          "pitch": 63,
          "onset": 494.0,
          "duration": 1.0,
          "velocity": 100
        },
        {
          "pitch": 60,
          "onset": 495.0,
          "duration": 1.0,
          "velocity": 100
        },
        {
          "pitch": 62,
          "onset": 496.0,
          "duration": 0.5,
          "velocity": 100
        },
        {
          "pitch": 65,
          "onset": 496.0,
          "duration": 0.5,
          "velocity": 100
        },
        {
          "pitch": 62,
          "onset": 496.5,
          "duration": 0.5,
          "velocity": 100
        },
        {
          "pitch": 62,
          "onset": 497.0,
          "duration": 0.5,
          "velocity": 100
        },
        {
          "pitch": 63,
          "onset": 497.5,
          "duration": 0.5,
          "velocity": 100
        },
        {
          "pitch": 63,
          "onset": 498.0,
          "duration": 0.5,
          "velocity": 100
        },
        {
          "pitch": 65,
          "onset": 498.5,
          "duration": 0.5,
          "velocity": 100
        },
        {
          "pitch": 65,
          "onset": 499.0,
          "duration": 0.5,
          "velocity": 100
        },
        {
          "pitch": 67,
          "onset": 499.5,
          "duration": 0.5,
          "velocity": 100
        },
        {
          "pitch": 67,
          "onset": 500.0,
          "duration": 1.0,
          "velocity": 100
        },
        {
          "pitch": 67,
          "onset": 501.0,
          "duration": 0.5,
          "velocity": 100
        },
        {
          "pitch": 65,
          "onset": 501.5,
          "duration": 0.5,
          "velocity": 100
        },
        {
          "pitch": 67,
          "onset": 502.0,
          "duration": 1.0,
          "velocity": 100
        },
        {
          "pitch": 73,
          "onset": 502.0,
          "duration": 2.0,
          "velocity": 100
        },
        {
          "pitch": 58,
          "onset": 503.0,
          "duration": 1.0,
          "velocity": 100
        },
        {
          "pitch": 60,
          "onset": 504.0,
          "duration": 1.0,
          "velocity": 100
        },
        {
          "pitch": 72,
          "onset": 504.0,
          "duration": 1.0,
          "velocity": 100
        },
        {
          "pitch": 72,
          "onset": 506.5,
          "duration": 0.5,
          "velocity": 100
        },
        {
          "pitch": 72,
          "onset": 507.0,
          "duration": 0.5,
          "velocity": 100
        },
        {
          "pitch": 70,
          "onset": 507.5,
          "duration": 0.5,
          "velocity": 100
        },
        {
          "pitch": 70,
          "onset": 508.0,
          "duration": 0.5,
          "velocity": 100
        },
        {
          "pitch": 68,
          "onset": 508.5,
          "duration": 0.5,
          "velocity": 100
        },
        {
          "pitch": 60,
          "onset": 509.0,
          "duration": 0.5,
          "velocity": 100
        },
        {
          "pitch": 68,
          "onset": 509.0,
          "duration": 2.0,
          "velocity": 100
        },
        {
          "pitch": 58,
          "onset": 509.5,
          "duration": 0.5,
          "velocity": 100
        },
        {
          "pitch": 60,
          "onset": 510.0,
          "duration": 1.0,
          "velocity": 100
        },
        {
          "pitch": 56,
          "onset": 511.0,
          "duration": 1.0,
          "velocity": 100
        },
        {
          "pitch": 68,
          "onset": 511.0,
          "duration": 1.0,
          "velocity": 100
        },
        {
          "pitch": 55,
          "onset": 512.0,
          "duration": 2.0,
          "velocity": 100
        },
        {
          "pitch": 62,
          "onset": 512.0,
          "duration": 2.0,
          "velocity": 100
        },
        {
          "pitch": 71,
          "onset": 512.0,
          "duration": 1.0,
          "velocity": 100
        },
        {
          "pitch": 55,
          "onset": 515.0,
          "duration": 1.0,
          "velocity": 100
        },
        {
          "pitch": 59,
          "onset": 515.0,
          "duration": 1.0,
          "velocity": 100
        },
        {
          "pitch": 62,
          "onset": 515.0,
          "duration": 1.0,
          "velocity": 100
        },
        {
          "pitch": 55,
          "onset": 516.0,
          "duration": 2.0,
          "velocity": 100
        },
        {
          "pitch": 60,
          "onset": 516.0,
          "duration": 2.0,
          "velocity": 100
        },
        {
          "pitch": 67,
          "onset": 516.0,
          "duration": 2.0,
          "velocity": 100
        },
        {
          "pitch": 60,
          "onset": 519.0,
          "duration": 1.0,
          "velocity": 100
        },
        {
          "pitch": 63,
          "onset": 519.0,
          "duration": 1.0,
          "velocity": 100
        },
        {
          "pitch": 67,
          "onset": 519.0,
          "duration": 1.0,
          "velocity": 100
        },
        {
          "pitch": 60,
          "onset": 520.0,
          "duration": 2.0,
          "velocity": 100
        },
        {
          "pitch": 63,
          "onset": 520.0,
          "duration": 2.0,
          "velocity": 100
        },
        {
          "pitch": 69,
          "onset": 520.0,
          "duration": 2.0,
          "velocity": 100
        },
        {
          "pitch": 57,
          "onset": 523.0,
          "duration": 1.0,
          "velocity": 100
        },
        {
          "pitch": 60,
          "onset": 523.0,
          "duration": 1.0,
          "velocity": 100
        },
        {
          "pitch": 66,
          "onset": 523.0,
          "duration": 1.0,
          "velocity": 100
        },
        {
          "pitch": 55,
          "onset": 524.0,
          "duration": 2.0,
          "velocity": 100
        },
        {
          "pitch": 62,
          "onset": 524.0,
          "duration": 2.0,
          "velocity": 100
        },
        {
          "pitch": 59,
          "onset": 527.0,
          "duration": 1.0,
          "velocity": 100
        },
        {
          "pitch": 60,
          "onset": 528.0,
          "duration": 0.5,
          "velocity": 100
        },
        {
          "pitch": 62,
          "onset": 528.5,
          "duration": 0.5,
          "velocity": 100
        },
        {
          "pitch": 59,
          "onset": 529.0,
          "duration": 0.5,
          "velocity": 100
        },
        {
          "pitch": 60,
          "onset": 529.5,
          "duration": 0.5,
          "velocity": 100
        },
        {
          "pitch": 62,
          "onset": 530.0,
          "duration": 0.5,
          "velocity": 100
        },
        {
          "pitch": 59,
          "onset": 530.5,
          "duration": 0.5,
          "velocity": 100
        },
        {
          "pitch": 60,
          "onset": 531.0,
          "duration": 0.5,
          "velocity": 100
        },
        {
          "pitch": 62,
          "onset": 531.5,
          "duration": 0.5,
          "velocity": 100
        },
        {
          "pitch": 55,
          "onset": 532.0,
          "duration": 2.0,
          "velocity": 100
        },
        {
          "pitch": 60,
          "onset": 535.0,
          "duration": 1.0,
          "velocity": 100
        },
        {
          "pitch": 59,
          "onset": 536.0,
          "duration": 2.0,
          "velocity": 100
        },
        {
          "pitch": 58,
          "onset": 538.0,
          "duration": 2.0,
          "velocity": 100
        },
        {
          "pitch": 56,
          "onset": 540.0,
          "duration": 3.0,
          "velocity": 100
        },
        {
          "pitch": 58,
          "onset": 541.0,
          "duration": 1.0,
          "velocity": 100
        },
        {
          "pitch": 60,
          "onset": 542.0,
          "duration": 1.0,
          "velocity": 100
        },
        {
          "pitch": 55,
          "onset": 543.0,
          "duration": 1.0,
          "velocity": 100
        },
        {
          "pitch": 61,
          "onset": 543.0,
          "duration": 1.5,
          "velocity": 100
        },
        {
          "pitch": 53,
          "onset": 544.0,
          "duration": 3.5,
          "velocity": 100
        },
        {
          "pitch": 61,
          "onset": 544.5,
          "duration": 0.5,
          "velocity": 100
        },
        {
          "pitch": 60,
          "onset": 545.0,
          "duration": 0.5,
          "velocity": 100
        },
        {
          "pitch": 58,
          "onset": 545.5,
          "duration": 0.5,
          "velocity": 100
        },
        {
          "pitch": 60,
          "onset": 546.0,
          "duration": 1.0,
          "velocity": 100
        },
        {
          "pitch": 56,
          "onset": 547.0,
          "duration": 2.0,
          "velocity": 100
        },
        {
          "pitch": 51,
          "onset": 547.5,
          "duration": 0.5,
          "velocity": 100
        },
        {
          "pitch": 49,
          "onset": 548.0,
          "duration": 1.0,
          "velocity": 100
        },
        {
          "pitch": 53,
          "onset": 550.0,
          "duration": 1.0,
          "velocity": 100
        },
        {
          "pitch": 61,
          "onset": 550.0,
          "duration": 1.0,
          "velocity": 100
        },
        {
          "pitch": 56,
          "onset": 552.0,
          "duration": 1.0,
          "velocity": 100
        },
        {
          "pitch": 61,
          "onset": 554.0,
          "duration": 1.0,
          "velocity": 100
        },
        {
          "pitch": 55,
          "onset": 557.0,
          "duration": 1.0,
          "velocity": 100
        },
        {
          "pitch": 62,
          "onset": 557.0,
          "duration": 1.0,
          "velocity": 100
        },
        {
          "pitch": 55,
          "onset": 558.0,
          "duration": 1.0,
          "velocity": 100
        },
        {
          "pitch": 60,
          "onset": 558.0,
          "duration": 1.0,
          "velocity": 100
        },
        {
          "pitch": 53,
          "onset": 559.0,
          "duration": 1.0,
          "velocity": 100
        },
        {
          "pitch": 59,
          "onset": 559.0,
          "duration": 1.0,
          "velocity": 100
        },
        {
          "pitch": 55,
          "onset": 560.0,
          "duration": 1.0,
          "velocity": 100
        },
        {
          "pitch": 60,
          "onset": 560.0,
          "duration": 1.0,
          "velocity": 100
        },
        {
          "pitch": 59,
          "onset": 561.0,
          "duration": 1.0,
          "velocity": 100
        },
        {
          "pitch": 62,
          "onset": 561.0,
          "duration": 1.0,
          "velocity": 100
        },
        {
          "pitch": 68,
          "onset": 561.0,
          "duration": 1.0,
          "velocity": 100
        },
        {
          "pitch": 60,
          "onset": 562.0,
          "duration": 1.0,
          "velocity": 100
        },
        {
          "pitch": 67,
          "onset": 562.0,
          "duration": 1.0,
          "velocity": 100
        },
        {
          "pitch": 60,
          "onset": 563.0,
          "duration": 1.0,
          "velocity": 100
        },
        {
          "pitch": 67,
          "onset": 563.0,
          "duration": 1.0,
          "velocity": 100
        },
        {
          "pitch": 60,
          "onset": 564.0,
          "duration": 0.3125,
          "velocity": 100
        },
        {
          "pitch": 68,
          "onset": 564.0,
          "duration": 0.3125,
          "velocity": 100
        },
        {
          "pitch": 67,
          "onset": 564.3438,
          "duration": 0.3125,
          "velocity": 100
        },
        {
          "pitch": 65,
          "onset": 564.6562,
          "duration": 0.3125,
          "velocity": 100
        },
        {
          "pitch": 64,
          "onset": 565.0,
          "duration": 0.3125,
          "velocity": 100
        },
        {
          "pitch": 62,
          "onset": 565.3438,
          "duration": 0.3125,
          "velocity": 100
        },
        {
          "pitch": 60,
          "onset": 565.6562,
          "duration": 0.3125,
          "velocity": 100
        },
        {
          "pitch": 72,
          "onset": 566.0,
          "duration": 1.0,
          "velocity": 100
        },
        {
          "pitch": 70,
          "onset": 567.0,
          "duration": 1.0,
          "velocity": 100
        },
        {
          "pitch": 63,
          "onset": 568.3438,
          "duration": 0.3125,
          "velocity": 100
        },
        {
          "pitch": 62,
          "onset": 568.6562,
          "duration": 0.3125,
          "velocity": 100
        },
        {
          "pitch": 60,
          "onset": 569.0,
          "duration": 0.3125,
          "velocity": 100
        },
        {
          "pitch": 62,
          "onset": 569.3438,
          "duration": 0.3125,
          "velocity": 100
        },
        {
          "pitch": 63,
          "onset": 569.6562,
          "duration": 0.3125,
          "velocity": 100
        },
        {
          "pitch": 62,
          "onset": 570.0,
          "duration": 2.25,
          "velocity": 100
        },
        {
          "pitch": 55,
          "onset": 572.25,
          "duration": 2.75,
          "velocity": 100
        },
        {
          "pitch": 60,
          "onset": 572.25,
          "duration": 2.75,
          "velocity": 100
        }
      ]
    },
    {
      "role": "pedal",
      "notes": [
        {
          "pitch": 24,
          "onset": 0.0,
          "duration": 17.0,
          "velocity": 100
        },
        {
          "pitch": 48,
          "onset": 17.0,
          "duration": 0.5,
          "velocity": 100
        },
        {
          "pitch": 46,
          "onset": 17.5,
          "duration": 0.5,
          "velocity": 100
        },
        {
          "pitch": 48,
          "onset": 18.0,
          "duration": 1.0,
          "velocity": 100
        },
        {
          "pitch": 44,
          "onset": 19.0,
          "duration": 1.0,
          "velocity": 100
        },
        {
          "pitch": 46,
          "onset": 20.0,
          "duration": 1.0,
          "velocity": 100
        },
        {
          "pitch": 34,
          "onset": 21.0,
          "duration": 1.0,
          "velocity": 100
        },
        {
          "pitch": 46,
          "onset": 25.0,
          "duration": 0.5,
          "velocity": 100
        },
        {
          "pitch": 44,
          "onset": 25.5,
          "duration": 0.5,
          "velocity": 100
        },
        {
          "pitch": 46,
          "onset": 26.0,
          "duration": 1.0,
          "velocity": 100
        },
        {
          "pitch": 43,
          "onset": 27.0,
          "duration": 1.0,
          "velocity": 100
        },
        {
          "pitch": 44,
          "onset": 28.0,
          "duration": 1.0,
          "velocity": 100
        },
        {
          "pitch": 32,
          "onset": 29.0,
          "duration": 1.0,
          "velocity": 100
        },
        {
          "pitch": 44,
          "onset": 33.0,
          "duration": 0.5,
          "velocity": 100
        },
        {
          "pitch": 43,
          "onset": 33.5,
          "duration": 0.5,
          "velocity": 100
        },
        {
          "pitch": 44,
          "onset": 34.0,
          "duration": 1.0,
          "velocity": 100
        },
        {
          "pitch": 41,
          "onset": 35.0,
          "duration": 1.0,
          "velocity": 100
        },
        {
          "pitch": 43,
          "onset": 36.0,
          "duration": 13.0,
          "velocity": 100
        },
        {
          "pitch": 43,
          "onset": 49.0,
          "duration": 0.5,
          "velocity": 100
        },
        {
          "pitch": 41,
          "onset": 49.5,
          "duration": 0.5,
          "velocity": 100
        },
        {
          "pitch": 43,
          "onset": 50.0,
          "duration": 1.0,
          "velocity": 100
        },
        {
          "pitch": 31,
          "onset": 51.0,
          "duration": 1.0,
          "velocity": 100
        },
        {
          "pitch": 33,
          "onset": 52.0,
          "duration": 1.0,
          "velocity": 100
        },
        {
          "pitch": 45,
          "onset": 53.0,
          "duration": 1.0,
          "velocity": 100
        },
        {
          "pitch": 47,
          "onset": 54.0,
          "duration": 1.0,
          "velocity": 100
        },
        {
          "pitch": 35,
          "onset": 55.0,
          "duration": 1.0,
          "velocity": 100
        },
        {
          "pitch": 36,
          "onset": 56.0,
          "duration": 1.0,
          "velocity": 100
        },
        {
          "pitch": 36,
          "onset": 57.0,
          "duration": 0.5,
          "velocity": 100
        },
        {
          "pitch": 35,
          "onset": 57.5,
          "duration": 0.5,
          "velocity": 100
        },
        {
          "pitch": 36,
          "onset": 58.0,
          "duration": 1.0,
          "velocity": 100
        },
        {
          "pitch": 24,
          "onset": 59.0,
          "duration": 1.0,
          "velocity": 100
        },
        {
          "pitch": 26,
          "onset": 60.0,
          "duration": 1.0,
          "velocity": 100
        },
        {
          "pitch": 38,
          "onset": 61.0,
          "duration": 1.0,
          "velocity": 100
        },
        {
          "pitch": 40,
          "onset": 62.0,
          "duration": 1.0,
          "velocity": 100
        },
        {
          "pitch": 28,
          "onset": 63.0,
          "duration": 1.0,
          "velocity": 100
        },
        {
          "pitch": 29,
          "onset": 64.0,
          "duration": 17.0,
          "velocity": 100
        },
        {
          "pitch": 41,
          "onset": 81.0,
          "duration": 1.0,
          "velocity": 100
        },
        {
          "pitch": 39,
          "onset": 82.0,
          "duration": 1.0,
          "velocity": 100
        },
        {
          "pitch": 38,
          "onset": 83.0,
          "duration": 1.0,
          "velocity": 100
        },
        {
          "pitch": 36,
          "onset": 84.0,
          "duration": 1.0,
          "velocity": 100
        },
        {
          "pitch": 48,
          "onset": 85.0,
          "duration": 1.0,
          "velocity": 100
        },
        {
          "pitch": 36,
          "onset": 86.0,
          "duration": 1.0,
          "velocity": 100
        },
        {
          "pitch": 34,
          "onset": 87.0,
          "duration": 1.0,
          "velocity": 100
        },
        {
          "pitch": 32,
          "onset": 88.0,
          "duration": 1.0,
          "velocity": 100
        },
        {
          "pitch": 34,
          "onset": 89.0,
          "duration": 1.0,
          "velocity": 100
        },
        {
          "pitch": 32,
          "onset": 90.0,
          "duration": 1.0,
          "velocity": 100
        },
        {
          "pitch": 31,
          "onset": 91.0,
          "duration": 1.0,
          "velocity": 100
        },
        {
          "pitch": 30,
          "onset": 92.0,
          "duration": 2.0,
          "velocity": 100
        },
        {
          "pitch": 31,
          "onset": 94.0,
          "duration": 2.0,
          "velocity": 100
        },
        {
          "pitch": 24,
          "onset": 96.0,
          "duration": 2.0,
          "velocity": 100
        },
        {
          "pitch": 36,
          "onset": 152.0,
          "duration": 2.0,
          "velocity": 100
        },
        {
          "pitch": 38,
          "onset": 154.0,
          "duration": 2.0,
          "velocity": 100
        },
        {
          "pitch": 39,
          "onset": 156.0,
          "duration": 2.0,
          "velocity": 100
        },
        {
          "pitch": 41,
          "onset": 158.0,
          "duration": 2.0,
          "velocity": 100
        },
        {
          "pitch": 43,
          "onset": 160.0,
          "duration": 1.0,
          "velocity": 100
        },
        {
          "pitch": 41,
          "onset": 161.0,
          "duration": 1.0,
          "velocity": 100
        },
        {
          "pitch": 39,
          "onset": 162.0,
          "duration": 1.0,
          "velocity": 100
        },
        {
          "pitch": 38,
          "onset": 163.0,
          "duration": 1.0,
          "velocity": 100
        },
        {
          "pitch": 36,
          "onset": 164.0,
          "duration": 1.0,
          "velocity": 100
        },
        {
          "pitch": 34,
          "onset": 165.0,
          "duration": 1.0,
          "velocity": 100
        },
        {
          "pitch": 33,
          "onset": 166.0,
          "duration": 1.0,
          "velocity": 100
        },
        {
          "pitch": 31,
          "onset": 167.0,
          "duration": 1.0,
          "velocity": 100
        },
        {
          "pitch": 41,
          "onset": 168.0,
          "duration": 1.0,
          "velocity": 100
        },
        {
          "pitch": 39,
          "onset": 169.0,
          "duration": 1.0,
          "velocity": 100
        },
        {
          "pitch": 38,
          "onset": 170.0,
          "duration": 1.0,
          "velocity": 100
        },
        {
          "pitch": 36,
          "onset": 171.0,
          "duration": 1.0,
          "velocity": 100
        },
        {
          "pitch": 34,
          "onset": 172.0,
          "duration": 1.0,
          "velocity": 100
        },
        {
          "pitch": 32,
          "onset": 173.0,
          "duration": 1.0,
          "velocity": 100
        },
        {
          "pitch": 31,
          "onset": 174.0,
          "duration": 1.0,
          "velocity": 100
        },
        {
          "pitch": 29,
          "onset": 175.0,
          "duration": 1.0,
          "velocity": 100
        },
        {
          "pitch": 39,
          "onset": 176.0,
          "duration": 1.0,
          "velocity": 100
        },
        {
          "pitch": 38,
          "onset": 177.0,
          "duration": 1.0,
          "velocity": 100
        },
        {
          "pitch": 36,
          "onset": 178.0,
          "duration": 1.0,
          "velocity": 100
        },
        {
          "pitch": 41,
          "onset": 179.0,
          "duration": 1.0,
          "velocity": 100
        },
        {
          "pitch": 34,
          "onset": 180.0,
          "duration": 1.0,
          "velocity": 100
        },
        {
          "pitch": 39,
          "onset": 181.0,
          "duration": 1.0,
          "velocity": 100
        },
        {
          "pitch": 33,
          "onset": 182.0,
          "duration": 1.0,
          "velocity": 100
        },
        {
          "pitch": 38,
          "onset": 183.0,
          "duration": 1.0,
          "velocity": 100
        },
        {
          "pitch": 31,
          "onset": 184.0,
          "duration": 1.0,
          "velocity": 100
        },
        {
          "pitch": 29,
          "onset": 185.0,
          "duration": 1.0,
          "velocity": 100
        },
        {
          "pitch": 28,
          "onset": 186.0,
          "duration": 1.0,
          "velocity": 100
        },
        {
          "pitch": 30,
          "onset": 187.0,
          "duration": 1.0,
          "velocity": 100
        },
        {
          "pitch": 31,
          "onset": 188.0,
          "duration": 1.0,
          "velocity": 100
        },
        {
          "pitch": 27,
          "onset": 189.0,
          "duration": 1.0,
          "velocity": 100
        },
        {
          "pitch": 24,
          "onset": 190.0,
          "duration": 1.0,
          "velocity": 100
        },
        {
          "pitch": 26,
          "onset": 191.0,
          "duration": 1.0,
          "velocity": 100
        },
        {
          "pitch": 31,
          "onset": 192.0,
          "duration": 18.0,
          "velocity": 100
        },
        {
          "pitch": 43,
          "onset": 277.0,
          "duration": 0.75,
          "velocity": 100
        },
        {
          "pitch": 41,
          "onset": 277.75,
          "duration": 0.25,
          "velocity": 100
        },
        {
          "pitch": 43,
          "onset": 278.0,
          "duration": 1.0,
          "velocity": 100
        },
        {
          "pitch": 39,
          "onset": 279.0,
          "duration": 1.0,
          "velocity": 100
        },
        {
          "pitch": 41,
          "onset": 280.0,
          "duration": 1.0,
          "velocity": 100
        },
        {
          "pitch": 29,
          "onset": 281.0,
          "duration": 1.0,
          "velocity": 100
        },
        {
          "pitch": 41,
          "onset": 285.0,
          "duration": 0.5,
          "velocity": 100
        },
        {
          "pitch": 39,
          "onset": 285.5,
          "duration": 0.5,
          "velocity": 100
        },
        {
          "pitch": 41,
          "onset": 286.0,
          "duration": 1.0,
          "velocity": 100
        },
        {
          "pitch": 38,
          "onset": 287.0,
          "duration": 1.0,
          "velocity": 100
        },
        {
          "pitch": 39,
          "onset": 288.0,
          "duration": 1.0,
          "velocity": 100
        },
        {
          "pitch": 27,
          "onset": 289.0,
          "duration": 1.0,
          "velocity": 100
        },
        {
          "pitch": 39,
          "onset": 293.0,
          "duration": 0.5,
          "velocity": 100
        },
        {
          "pitch": 38,
          "onset": 293.5,
          "duration": 0.5,
          "velocity": 100
        },
        {
          "pitch": 39,
          "onset": 294.0,
          "duration": 1.0,
          "velocity": 100
        },
        {
          "pitch": 36,
          "onset": 295.0,
          "duration": 1.0,
          "velocity": 100
        },
        {
          "pitch": 38,
          "onset": 296.0,
          "duration": 13.0,
          "velocity": 100
        },
        {
          "pitch": 24,
          "onset": 324.0,
          "duration": 2.0,
          "velocity": 100
        },
        {
          "pitch": 26,
          "onset": 326.0,
          "duration": 2.0,
          "velocity": 100
        },
        {
          "pitch": 27,
          "onset": 328.0,
          "duration": 2.0,
          "velocity": 100
        },
        {
          "pitch": 29,
          "onset": 330.0,
          "duration": 2.0,
          "velocity": 100
        },
        {
          "pitch": 31,
          "onset": 332.0,
          "duration": 1.0,
          "velocity": 100
        },
        {
          "pitch": 29,
          "onset": 333.0,
          "duration": 1.0,
          "velocity": 100
        },
        {
          "pitch": 27,
          "onset": 334.0,
          "duration": 1.0,
          "velocity": 100
        },
        {
          "pitch": 26,
          "onset": 335.0,
          "duration": 1.0,
          "velocity": 100
        },
        {
          "pitch": 24,
          "onset": 336.0,
          "duration": 1.0,
          "velocity": 100
        },
        {
          "pitch": 36,
          "onset": 337.0,
          "duration": 0.5,
          "velocity": 100
        },
        {
          "pitch": 34,
          "onset": 337.5,
          "duration": 0.5,
          "velocity": 100
        },
        {
          "pitch": 36,
          "onset": 338.0,
          "duration": 1.0,
          "velocity": 100
        },
        {
          "pitch": 24,
          "onset": 339.0,
          "duration": 1.0,
          "velocity": 100
        },
        {
          "pitch": 26,
          "onset": 340.0,
          "duration": 1.0,
          "velocity": 100
        },
        {
          "pitch": 38,
          "onset": 341.0,
          "duration": 1.0,
          "velocity": 100
        },
        {
          "pitch": 40,
          "onset": 342.0,
          "duration": 1.0,
          "velocity": 100
        },
        {
          "pitch": 28,
          "onset": 343.0,
          "duration": 1.0,
          "velocity": 100
        },
        {
          "pitch": 29,
          "onset": 344.0,
          "duration": 1.0,
          "velocity": 100
        },
        {
          "pitch": 41,
          "onset": 345.0,
          "duration": 0.5,
          "velocity": 100
        },
        {
          "pitch": 40,
          "onset": 345.5,
          "duration": 0.5,
          "velocity": 100
        },
        {
          "pitch": 41,
          "onset": 346.0,
          "duration": 1.0,
          "velocity": 100
        },
        {
          "pitch": 29,
          "onset": 347.0,
          "duration": 1.0,
          "velocity": 100
        },
        {
          "pitch": 31,
          "onset": 348.0,
          "duration": 1.0,
          "velocity": 100
        },
        {
          "pitch": 43,
          "onset": 349.0,
          "duration": 1.0,
          "velocity": 100
        },
        {
          "pitch": 45,
          "onset": 350.0,
          "duration": 1.0,
          "velocity": 100
        },
        {
          "pitch": 33,
          "onset": 351.0,
          "duration": 1.0,
          "velocity": 100
        },
        {
          "pitch": 31,
          "onset": 352.0,
          "duration": 17.0,
          "velocity": 100
        },
        {
          "pitch": 46,
          "onset": 369.0,
          "duration": 1.0,
          "velocity": 100
        },
        {
          "pitch": 44,
          "onset": 370.0,
          "duration": 1.0,
          "velocity": 100
        },
        {
          "pitch": 43,
          "onset": 371.0,
          "duration": 1.0,
          "velocity": 100
        },
        {
          "pitch": 41,
          "onset": 372.0,
          "duration": 1.0,
          "velocity": 100
        },
        {
          "pitch": 29,
          "onset": 373.0,
          "duration": 1.0,
          "velocity": 100
        },
        {
          "pitch": 41,
          "onset": 374.0,
          "duration": 1.0,
          "velocity": 100
        },
        {
          "pitch": 39,
          "onset": 375.0,
          "duration": 1.0,
          "velocity": 100
        },
        {
          "pitch": 37,
          "onset": 376.0,
          "duration": 1.0,
          "velocity": 100
        },
        {
          "pitch": 39,
          "onset": 377.0,
          "duration": 1.0,
          "velocity": 100
        },
        {
          "pitch": 37,
          "onset": 378.0,
          "duration": 1.0,
          "velocity": 100
        },
        {
          "pitch": 36,
          "onset": 379.0,
          "duration": 1.0,
          "velocity": 100
        },
        {
          "pitch": 35,
          "onset": 380.0,
          "duration": 2.0,
          "velocity": 100
        },
        {
          "pitch": 36,
          "onset": 382.0,
          "duration": 2.0,
          "velocity": 100
        },
        {
          "pitch": 29,
          "onset": 384.0,
          "duration": 21.0,
          "velocity": 100
        },
        {
          "pitch": 28,
          "onset": 405.0,
          "duration": 1.0,
          "velocity": 100
        },
        {
          "pitch": 27,
          "onset": 406.0,
          "duration": 1.0,
          "velocity": 100
        },
        {
          "pitch": 26,
          "onset": 407.0,
          "duration": 1.0,
          "velocity": 100
        },
        {
          "pitch": 27,
          "onset": 408.0,
          "duration": 1.0,
          "velocity": 100
        },
        {
          "pitch": 24,
          "onset": 409.0,
          "duration": 1.0,
          "velocity": 100
        },
        {
          "pitch": 32,
          "onset": 410.0,
          "duration": 2.0,
          "velocity": 100
        },
        {
          "pitch": 31,
          "onset": 412.0,
          "duration": 5.0,
          "velocity": 100
        },
        {
          "pitch": 36,
          "onset": 464.0,
          "duration": 2.0,
          "velocity": 100
        },
        {
          "pitch": 38,
          "onset": 466.0,
          "duration": 2.0,
          "velocity": 100
        },
        {
          "pitch": 39,
          "onset": 468.0,
          "duration": 2.0,
          "velocity": 100
        },
        {
          "pitch": 41,
          "onset": 470.0,
          "duration": 2.0,
          "velocity": 100
        },
        {
          "pitch": 43,
          "onset": 472.0,
          "duration": 1.0,
          "velocity": 100
        },
        {
          "pitch": 41,
          "onset": 473.0,
          "duration": 1.0,
          "velocity": 100
        },
        {
          "pitch": 39,
          "onset": 474.0,
          "duration": 1.0,
          "velocity": 100
        },
        {
          "pitch": 38,
          "onset": 475.0,
          "duration": 1.0,
          "velocity": 100
        },
        {
          "pitch": 24,
          "onset": 476.0,
          "duration": 17.0,
          "velocity": 100
        },
        {
          "pitch": 36,
          "onset": 476.0,
          "duration": 17.0,
          "velocity": 100
        },
        {
          "pitch": 48,
          "onset": 493.0,
          "duration": 0.5,
          "velocity": 100
        },
        {
          "pitch": 46,
          "onset": 493.5,
          "duration": 0.5,
          "velocity": 100
        },
        {
          "pitch": 48,
          "onset": 494.0,
          "duration": 1.0,
          "velocity": 100
        },
        {
          "pitch": 44,
          "onset": 495.0,
          "duration": 1.0,
          "velocity": 100
        },
        {
          "pitch": 46,
          "onset": 496.0,
          "duration": 1.0,
          "velocity": 100
        },
        {
          "pitch": 34,
          "onset": 497.0,
          "duration": 1.0,
          "velocity": 100
        },
        {
          "pitch": 46,
          "onset": 501.0,
          "duration": 0.5,
          "velocity": 100
        },
        {
          "pitch": 44,
          "onset": 501.5,
          "duration": 0.5,
          "velocity": 100
        },
        {
          "pitch": 46,
          "onset": 502.0,
          "duration": 1.0,
          "velocity": 100
        },
        {
          "pitch": 43,
          "onset": 503.0,
          "duration": 1.0,
          "velocity": 100
        },
        {
          "pitch": 44,
          "onset": 504.0,
          "duration": 1.0,
          "velocity": 100
        },
        {
          "pitch": 32,
          "onset": 505.0,
          "duration": 1.0,
          "velocity": 100
        },
        {
          "pitch": 44,
          "onset": 509.0,
          "duration": 0.5,
          "velocity": 100
        },
        {
          "pitch": 43,
          "onset": 509.5,
          "duration": 0.5,
          "velocity": 100
        },
        {
          "pitch": 44,
          "onset": 510.0,
          "duration": 1.0,
          "velocity": 100
        },
        {
          "pitch": 41,
          "onset": 511.0,
          "duration": 1.0,
          "velocity": 100
        },
        {
          "pitch": 43,
          "onset": 512.0,
          "duration": 13.0,
          "velocity": 100
        },
        {
          "pitch": 43,
          "onset": 525.0,
          "duration": 0.5,
          "velocity": 100
        },
        {
          "pitch": 41,
          "onset": 525.5,
          "duration": 0.5,
          "velocity": 100
        },
        {
          "pitch": 43,
          "onset": 526.0,
          "duration": 1.0,
          "velocity": 100
        },
        {
          "pitch": 31,
          "onset": 527.0,
          "duration": 1.0,
          "velocity": 100
        },
        {
          "pitch": 33,
          "onset": 528.0,
          "duration": 1.0,
          "velocity": 100
        },
        {
          "pitch": 45,
          "onset": 529.0,
          "duration": 1.0,
          "velocity": 100
        },
        {
          "pitch": 47,
          "onset": 530.0,
          "duration": 1.0,
          "velocity": 100
        },
        {
          "pitch": 35,
          "onset": 531.0,
          "duration": 1.0,
          "velocity": 100
        },
        {
          "pitch": 36,
          "onset": 532.0,
          "duration": 1.0,
          "velocity": 100
        },
        {
          "pitch": 36,
          "onset": 533.0,
          "duration": 0.5,
          "velocity": 100
        },
        {
          "pitch": 35,
          "onset": 533.5,
          "duration": 0.5,
          "velocity": 100
        },
        {
          "pitch": 36,
          "onset": 534.0,
          "duration": 1.0,
          "velocity": 100
        },
        {
          "pitch": 24,
          "onset": 535.0,
          "duration": 1.0,
          "velocity": 100
        },
        {
          "pitch": 26,
          "onset": 536.0,
          "duration": 1.0,
          "velocity": 100
        },
        {
          "pitch": 38,
          "onset": 537.0,
          "duration": 1.0,
          "velocity": 100
        },
        {
          "pitch": 40,
          "onset": 538.0,
          "duration": 1.0,
          "velocity": 100
        },
        {
          "pitch": 28,
          "onset": 539.0,
          "duration": 1.0,
          "velocity": 100
        },
        {
          "pitch": 29,
          "onset": 540.0,
          "duration": 17.0,
          "velocity": 100
        },
        {
          "pitch": 41,
          "onset": 557.0,
          "duration": 1.0,
          "velocity": 100
        },
        {
          "pitch": 39,
          "onset": 558.0,
          "duration": 1.0,
          "velocity": 100
        },
        {
          "pitch": 38,
          "onset": 559.0,
          "duration": 1.0,
          "velocity": 100
        },
        {
          "pitch": 36,
          "onset": 560.0,
          "duration": 1.0,
          "velocity": 100
        },
        {
          "pitch": 48,
          "onset": 561.0,
          "duration": 1.0,
          "velocity": 100
        },
        {
          "pitch": 36,
          "onset": 562.0,
          "duration": 1.0,
          "velocity": 100
        },
        {
          "pitch": 34,
          "onset": 563.0,
          "duration": 1.0,
          "velocity": 100
        },
        {
          "pitch": 32,
          "onset": 564.0,
          "duration": 1.0,
          "velocity": 100
        },
        {
          "pitch": 34,
          "onset": 565.0,
          "duration": 1.0,
          "velocity": 100
        },
        {
          "pitch": 32,
          "onset": 566.0,
          "duration": 1.0,
          "velocity": 100
        },
        {
          "pitch": 31,
          "onset": 567.0,
          "duration": 1.0,
          "velocity": 100
        },
        {
          "pitch": 30,
          "onset": 568.0,
          "duration": 2.0,
          "velocity": 100
        },
        {
          "pitch": 31,
          "onset": 570.0,
          "duration": 2.25,
          "velocity": 100
        },
        {
          "pitch": 24,
          "onset": 572.25,
          "duration": 2.75,
          "velocity": 100
        }
      ]
    }
  ]
}