{
  "bwv": 582,
  "category": "organ_passacaglia",
  "instrument": "organ",
  "form": "",
  "movement": null,
  "ticks_per_beat": 384,
  "duration_seconds": 764.6,
  "tempos": [
    {
      "tick": 0,
      "bpm": 70
    },
    {
      "tick": 119040,
      "bpm": 65
    },
    {
      "tick": 119232,
      "bpm": 60
    },
    {
      "tick": 119424,
      "bpm": 55
    },
    {
      "tick": 119616,
      "bpm": 50
    },
    {
      "tick": 119808,
      "bpm": 65
    },
    {
      "tick": 120000,
      "bpm": 70
    },
    {
      "tick": 146688,
      "bpm": 65
    },
    {
      "tick": 146880,
      "bpm": 60
    },
    {
      "tick": 147072,
      "bpm": 55
    },
    {
      "tick": 147264,
      "bpm": 50
    },
    {
      "tick": 147456,
      "bpm": 65
    },
    {
      "tick": 147648,
      "bpm": 70
    },
    {
      "tick": 174720,
      "bpm": 65
    },
    {
      "tick": 175296,
      "bpm": 70
    },
    {
      "tick": 188928,
      "bpm": 65
    },
    {
      "tick": 189312,
      "bpm": 70
    },
    {
      "tick": 192000,
      "bpm": 65
    },
    {
      "tick": 192384,
      "bpm": 60
    },
    {
      "tick": 192768,
      "bpm": 50
    },
    {
      "tick": 192960,
      "bpm": 40
    },
    {
      "tick": 193152,
      "bpm": 30
    },
    {
      "tick": 193344,
      "bpm": 25
    },
    {
      "tick": 193920,
      "bpm": 75
    },
    {
      "tick": 252672,
      "bpm": 75
    },
    {
      "tick": 253056,
      "bpm": 70
    },
    {
      "tick": 253632,
      "bpm": 75
    },
    {
      "tick": 273792,
      "bpm": 75
    },
    {
      "tick": 274176,
      "bpm": 70
    },
    {
      "tick": 274752,
      "bpm": 75
    },
    {
      "tick": 281472,
      "bpm": 75
    },
    {
      "tick": 281856,
      "bpm": 70
    },
    {
      "tick": 282624,
      "bpm": 75
    },
    {
      "tick": 282816,
      "bpm": 75
    },
    {
      "tick": 289920,
      "bpm": 75
    },
    {
      "tick": 290304,
      "bpm": 70
    },
    {
      "tick": 290496,
      "bpm": 70
    },
    {
      "tick": 290880,
      "bpm": 75
    },
    {
      "tick": 305280,
      "bpm": 75
    },
    {
      "tick": 305664,
      "bpm": 70
    },
    {
      "tick": 306432,
      "bpm": 70
    },
    {
      "tick": 307008,
      "bpm": 75
    },
    {
      "tick": 307200,
      "bpm": 75
    },
    {
      "tick": 310656,
      "bpm": 75
    },
    {
      "tick": 311040,
      "bpm": 70
    },
    {
      "tick": 311232,
      "bpm": 70
    },
    {
      "tick": 311616,
      "bpm": 75
    },
    {
      "tick": 311808,
      "bpm": 75
    },
    {
      "tick": 323328,
      "bpm": 75
    },
    {
      "tick": 324480,
      "bpm": 70
    },
    {
      "tick": 326400,
      "bpm": 70
    },
    {
      "tick": 326784,
      "bpm": 60
    },
    {
      "tick": 327168,
      "bpm": 50
    },
    {
      "tick": 327360,
      "bpm": 35
    },
    {
      "tick": 327552,
      "bpm": 25
    },
    {
      "tick": 327840,
      "bpm": 65
    },
    {
      "tick": 331008,
      "bpm": 60
    },
    {
      "tick": 332160,
      "bpm": 55
    },
    {
      "tick": 333312,
      "bpm": 50
    },
    {
      "tick": 334464,
      "bpm": 40
    },
    {
      "tick": 335232,
      "bpm": 25
    },
    {
      "tick": 335328,
      "bpm": 20
    },
    {
      "tick": 335520,
      "bpm": 15
    }
  ],
  "time_signatures": [
    {
      "tick": 0,
      "numerator": 1,
      "denominator": 4
    },
    {
      "tick": 384,
      "numerator": 3,
      "denominator": 4
    },
    {
      "tick": 327552,
      "numerator": 6,
      "denominator": 8
    }
  ],
  "track_type": "voice",
  "voice_count": 4,
  "total_notes": 5621,
  "tracks": [
    {
      "role": "v1",
      "notes": [
        {
          "pitch": 72,
          "onset": 24.5,
          "duration": 1.25,
          "velocity": 100
        },
        {
          "pitch": 74,
          "onset": 25.75,
          "duration": 0.25,
          "velocity": 100
        },
        {
          "pitch": 71,
          "onset": 26.0,
          "duration": 1.0,
          "velocity": 100
        },
        {
          "pitch": 75,
          "onset": 27.5,
          "duration": 1.25,
          "velocity": 100
        },
        {
          "pitch": 77,
          "onset": 28.75,
          "duration": 0.25,
          "velocity": 100
        },
        {
          "pitch": 74,
          "onset": 29.0,
          "duration": 1.0,
          "velocity": 100
        },
        {
          "pitch": 74,
          "onset": 30.5,
          "duration": 1.25,
          "velocity": 100
        },
        {
          "pitch": 75,
          "onset": 31.75,
          "duration": 0.25,
          "velocity": 100
        },
        {
          "pitch": 72,
          "onset": 32.0,
          "duration": 1.0,
          "velocity": 100
        },
        {
          "pitch": 72,
          "onset": 33.5,
          "duration": 1.25,
          "velocity": 100
        },
        {
          "pitch": 74,
          "onset": 34.75,
          "duration": 0.25,
          "velocity": 100
        },
        {
          "pitch": 71,
          "onset": 35.0,
          "duration": 1.0,
          "velocity": 100
        },
        {
          "pitch": 80,
          "onset": 36.5,
          "duration": 1.25,
          "velocity": 100
        },
        {
          "pitch": 82,
          "onset": 37.75,
          "duration": 0.25,
          "velocity": 100
        },
        {
          "pitch": 79,
          "onset": 38.0,
          "duration": 1.0,
          "velocity": 100
        },
        {
          "pitch": 77,
          "onset": 39.5,
          "duration": 1.25,
          "velocity": 100
        },
        {
          "pitch": 79,
          "onset": 40.75,
          "duration": 0.25,
          "velocity": 100
        },
        {
          "pitch": 75,
          "onset": 41.0,
          "duration": 1.0,
          "velocity": 100
        },
        {
          "pitch": 75,
          "onset": 42.5,
          "duration": 1.25,
          "velocity": 100
        },
        {
          "pitch": 77,
          "onset": 43.75,
          "duration": 0.25,
          "velocity": 100
        },
        {
          "pitch": 74,
          "onset": 44.0,
          "duration": 1.0,
          "velocity": 100
        },
        {
          "pitch": 74,
          "onset": 45.5,
          "duration": 1.25,
          "velocity": 100
        },
        {
          "pitch": 75,
          "onset": 46.75,
          "duration": 0.25,
          "velocity": 100
        },
        {
          "pitch": 72,
          "onset": 47.0,
          "duration": 1.0,
          "velocity": 100
        },
        {
          "pitch": 72,
          "onset": 48.5,
          "duration": 1.25,
          "velocity": 100
        },
        {
          "pitch": 74,
          "onset": 49.75,
          "duration": 0.25,
          "velocity": 100
        },
        {
          "pitch": 71,
          "onset": 50.0,
          "duration": 1.0,
          "velocity": 100
        },
        {
          "pitch": 70,
          "onset": 51.5,
          "duration": 1.25,
          "velocity": 100
        },
        {
          "pitch": 72,
          "onset": 52.75,
          "duration": 0.25,
          "velocity": 100
        },
        {
          "pitch": 68,
          "onset": 53.0,
          "duration": 1.0,
          "velocity": 100
        },
        {
          "pitch": 67,
          "onset": 54.5,
          "duration": 1.25,
          "velocity": 100
        },
        {
          "pitch": 68,
          "onset": 55.75,
          "duration": 0.25,
          "velocity": 100
        },
        {
          "pitch": 65,
          "onset": 56.0,
          "duration": 1.0,
          "velocity": 100
        },
        {
          "pitch": 68,
          "onset": 57.5,
          "duration": 1.0,
          "velocity": 100
        },
        {
          "pitch": 67,
          "onset": 59.0,
          "duration": 0.125,
          "velocity": 100
        },
        {
          "pitch": 65,
          "onset": 59.125,
          "duration": 0.125,
          "velocity": 100
        },
        {
          "pitch": 67,
          "onset": 59.25,
          "duration": 0.25,
          "velocity": 100
        },
        {
          "pitch": 65,
          "onset": 60.5,
          "duration": 1.25,
          "velocity": 100
        },
        {
          "pitch": 67,
          "onset": 61.75,
          "duration": 0.25,
          "velocity": 100
        },
        {
          "pitch": 63,
          "onset": 62.0,
          "duration": 1.0,
          "velocity": 100
        },
        {
          "pitch": 62,
          "onset": 63.5,
          "duration": 1.25,
          "velocity": 100
        },
        {
          "pitch": 63,
          "onset": 64.75,
          "duration": 0.25,
          "velocity": 100
        },
        {
          "pitch": 60,
          "onset": 65.0,
          "duration": 1.0,
          "velocity": 100
        },
        {
          "pitch": 60,
          "onset": 66.5,
          "duration": 1.25,
          "velocity": 100
        },
        {
          "pitch": 62,
          "onset": 67.75,
          "duration": 0.25,
          "velocity": 100
        },
        {
          "pitch": 59,
          "onset": 68.0,
          "duration": 0.125,
          "velocity": 100
        },
        {
          "pitch": 60,
          "onset": 68.125,
          "duration": 0.125,
          "velocity": 100
        },
        {
          "pitch": 59,
          "onset": 68.25,
          "duration": 1.25,
          "velocity": 100
        },
        {
          "pitch": 59,
          "onset": 69.5,
          "duration": 0.5,
          "velocity": 100
        },
        {
          "pitch": 60,
          "onset": 70.0,
          "duration": 0.5,
          "velocity": 100
        },
        {
          "pitch": 67,
          "onset": 70.5,
          "duration": 0.5,
          "velocity": 100
        },
        {
          "pitch": 72,
          "onset": 71.0,
          "duration": 0.5,
          "velocity": 100
        },
        {
          "pitch": 74,
          "onset": 71.5,
          "duration": 0.5,
          "velocity": 100
        },
        {
          "pitch": 75,
          "onset": 72.0,
          "duration": 0.5,
          "velocity": 100
        },
        {
          "pitch": 77,
          "onset": 72.5,
          "duration": 0.5,
          "velocity": 100
        },
        {
          "pitch": 74,
          "onset": 73.0,
          "duration": 2.0,
          "velocity": 100
        },
        {
          "pitch": 79,
          "onset": 75.0,
          "duration": 2.0,
          "velocity": 100
        },
        {
          "pitch": 77,
          "onset": 77.0,
          "duration": 1.0,
          "velocity": 100
        },
        {
          "pitch": 75,
          "onset": 78.0,
          "duration": 1.5,
          "velocity": 100
        },
        {
          "pitch": 79,
          "onset": 79.5,
          "duration": 0.5,
          "velocity": 100
        },
        {
          "pitch": 77,
          "onset": 80.0,
          "duration": 0.5,
          "velocity": 100
        },
        {
          "pitch": 75,
          "onset": 80.5,
          "duration": 0.5,
          "velocity": 100
        },
        {
          "pitch": 74,
          "onset": 81.0,
          "duration": 0.5,
          "velocity": 100
        },
        {
          "pitch": 72,
          "onset": 81.5,
          "duration": 0.5,
          "velocity": 100
        },
        {
          "pitch": 71,
          "onset": 82.0,
          "duration": 1.0,
          "velocity": 100
        },
        {
          "pitch": 80,
          "onset": 84.5,
          "duration": 0.5,
          "velocity": 100
        },
        {
          "pitch": 79,
          "onset": 85.0,
          "duration": 0.5,
          "velocity": 100
        },
        {
          "pitch": 77,
          "onset": 85.5,
          "duration": 0.5,
          "velocity": 100
        },
        {
          "pitch": 75,
          "onset": 86.0,
          "duration": 0.5,
          "velocity": 100
        },
        {
          "pitch": 80,
          "onset": 87.5,
          "duration": 0.5,
          "velocity": 100
        },
        {
          "pitch": 79,
          "onset": 88.0,
          "duration": 0.5,
          "velocity": 100
        },
        {
          "pitch": 77,
          "onset": 88.5,
          "duration": 0.5,
          "velocity": 100
        },
        {
          "pitch": 75,
          "onset": 89.0,
          "duration": 0.5,
          "velocity": 100
        },
        {
          "pitch": 80,
          "onset": 90.5,
          "duration": 0.5,
          "velocity": 100
        },
        {
          "pitch": 79,
          "onset": 91.0,
          "duration": 0.5,
          "velocity": 100
        },
        {
          "pitch": 68,
          "onset": 91.5,
          "duration": 0.5,
          "velocity": 100
        },
        {
          "pitch": 77,
          "onset": 91.5,
          "duration": 0.5,
          "velocity": 100
        },
        {
          "pitch": 67,
          "onset": 92.0,
          "duration": 0.5,
          "velocity": 100
        },
        {
          "pitch": 75,
          "onset": 92.0,
          "duration": 0.5,
          "velocity": 100
        },
        {
          "pitch": 65,
          "onset": 92.5,
          "duration": 0.5,
          "velocity": 100
        },
        {
          "pitch": 74,
          "onset": 92.5,
          "duration": 0.5,
          "velocity": 100
        },
        {
          "pitch": 63,
          "onset": 93.0,
          "duration": 0.5,
          "velocity": 100
        },
        {
          "pitch": 72,
          "onset": 93.0,
          "duration": 0.5,
          "velocity": 100
        },
        {
          "pitch": 62,
          "onset": 93.5,
          "duration": 0.5,
          "velocity": 100
        },
        {
          "pitch": 71,
          "onset": 93.5,
          "duration": 0.5,
          "velocity": 100
        },
        {
          "pitch": 60,
          "onset": 94.0,
          "duration": 1.0,
          "velocity": 100
        },
        {
          "pitch": 72,
          "onset": 94.0,
          "duration": 1.0,
          "velocity": 100
        },
        {
          "pitch": 67,
          "onset": 96.5,
          "duration": 0.25,
          "velocity": 100
        },
        {
          "pitch": 69,
          "onset": 96.75,
          "duration": 0.25,
          "velocity": 100
        },
        {
          "pitch": 71,
          "onset": 97.0,
          "duration": 0.5,
          "velocity": 100
        },
        {
          "pitch": 71,
          "onset": 97.5,
          "duration": 0.25,
          "velocity": 100
        },
        {
          "pitch": 72,
          "onset": 97.75,
          "duration": 0.25,
          "velocity": 100
        },
        {
          "pitch": 74,
          "onset": 98.0,
          "duration": 0.5,
          "velocity": 100
        },
        {
          "pitch": 72,
          "onset": 98.5,
          "duration": 0.25,
          "velocity": 100
        },
        {
          "pitch": 74,
          "onset": 98.75,
          "duration": 0.25,
          "velocity": 100
        },
        {
          "pitch": 75,
          "onset": 99.0,
          "duration": 2.5,
          "velocity": 100
        },
        {
          "pitch": 74,
          "onset": 101.5,
          "duration": 0.25,
          "velocity": 100
        },
        {
          "pitch": 72,
          "onset": 101.75,
          "duration": 0.25,
          "velocity": 100
        },
        {
          "pitch": 71,
          "onset": 102.0,
          "duration": 1.0,
          "velocity": 100
        },
        {
          "pitch": 72,
          "onset": 103.5,
          "duration": 0.25,
          "velocity": 100
        },
        {
          "pitch": 74,
          "onset": 103.75,
          "duration": 0.25,
          "velocity": 100
        },
        {
          "pitch": 75,
          "onset": 104.0,
          "duration": 0.5,
          "velocity": 100
        },
        {
          "pitch": 77,
          "onset": 104.5,
          "duration": 0.25,
          "velocity": 100
        },
        {
          "pitch": 79,
          "onset": 104.75,
          "duration": 0.25,
          "velocity": 100
        },
        {
          "pitch": 80,
          "onset": 105.0,
          "duration": 0.5,
          "velocity": 100
        },
        {
          "pitch": 74,
          "onset": 105.5,
          "duration": 0.25,
          "velocity": 100
        },
        {
          "pitch": 72,
          "onset": 105.75,
          "duration": 0.25,
          "velocity": 100
        },
        {
          "pitch": 71,
          "onset": 106.0,
          "duration": 1.0,
          "velocity": 100
        },
        {
          "pitch": 79,
          "onset": 107.5,
          "duration": 0.25,
          "velocity": 100
        },
        {
          "pitch": 81,
          "onset": 107.75,
          "duration": 0.25,
          "velocity": 100
        },
        {
          "pitch": 83,
          "onset": 108.0,
          "duration": 0.5,
          "velocity": 100
        },
        {
          "pitch": 81,
          "onset": 108.5,
          "duration": 0.25,
          "velocity": 100
        },
        {
          "pitch": 83,
          "onset": 108.75,
          "duration": 0.25,
          "velocity": 100
        },
        {
          "pitch": 84,
          "onset": 109.0,
          "duration": 0.5,
          "velocity": 100
        },
        {
          "pitch": 79,
          "onset": 109.5,
          "duration": 0.25,
          "velocity": 100
        },
        {
          "pitch": 77,
          "onset": 109.75,
          "duration": 0.25,
          "velocity": 100
        },
        {
          "pitch": 79,
          "onset": 110.0,
          "duration": 0.5,
          "velocity": 100
        },
        {
          "pitch": 75,
          "onset": 110.5,
          "duration": 0.5,
          "velocity": 100
        },
        {
          "pitch": 74,
          "onset": 111.0,
          "duration": 0.5,
          "velocity": 100
        },
        {
          "pitch": 72,
          "onset": 111.5,
          "duration": 0.25,
          "velocity": 100
        },
        {
          "pitch": 74,
          "onset": 111.75,
          "duration": 0.25,
          "velocity": 100
        },
        {
          "pitch": 75,
          "onset": 112.0,
          "duration": 0.5,
          "velocity": 100
        },
        {
          "pitch": 72,
          "onset": 112.5,
          "duration": 0.25,
          "velocity": 100
        },
        {
          "pitch": 71,
          "onset": 112.75,
          "duration": 0.25,
          "velocity": 100
        },
        {
          "pitch": 72,
          "onset": 113.0,
          "duration": 0.5,
          "velocity": 100
        },
        {
          "pitch": 67,
          "onset": 113.5,
          "duration": 0.5,
          "velocity": 100
        },
        {
          "pitch": 68,
          "onset": 114.0,
          "duration": 0.5,
          "velocity": 100
        },
        {
          "pitch": 80,
          "onset": 114.5,
          "duration": 0.5,
          "velocity": 100
        },
        {
          "pitch": 79,
          "onset": 115.0,
          "duration": 0.5,
          "velocity": 100
        },
        {
          "pitch": 72,
          "onset": 115.5,
          "duration": 0.25,
          "velocity": 100
        },
        {
          "pitch": 71,
          "onset": 115.75,
          "duration": 0.25,
          "velocity": 100
        },
        {
          "pitch": 72,
          "onset": 116.0,
          "duration": 0.5,
          "velocity": 100
        },
        {
          "pitch": 63,
          "onset": 116.5,
          "duration": 0.25,
          "velocity": 100
        },
        {
          "pitch": 62,
          "onset": 116.75,
          "duration": 0.25,
          "velocity": 100
        },
        {
          "pitch": 62,
          "onset": 117.0,
          "duration": 0.125,
          "velocity": 100
        },
        {
          "pitch": 63,
          "onset": 117.125,
          "duration": 0.125,
          "velocity": 100
        },
        {
          "pitch": 62,
          "onset": 117.25,
          "duration": 0.5,
          "velocity": 100
        },
        {
          "pitch": 60,
          "onset": 117.75,
          "duration": 0.25,
          "velocity": 100
        },
        {
          "pitch": 60,
          "onset": 118.0,
          "duration": 0.5,
          "velocity": 100
        },
        {
          "pitch": 79,
          "onset": 118.5,
          "duration": 0.25,
          "velocity": 100
        },
        {
          "pitch": 67,
          "onset": 118.75,
          "duration": 0.25,
          "velocity": 100
        },
        {
          "pitch": 72,
          "onset": 119.0,
          "duration": 0.5,
          "velocity": 100
        },
        {
          "pitch": 74,
          "onset": 119.5,
          "duration": 0.25,
          "velocity": 100
        },
        {
          "pitch": 75,
          "onset": 119.75,
          "duration": 0.25,
          "velocity": 100
        },
        {
          "pitch": 75,
          "onset": 120.0,
          "duration": 1.0,
          "velocity": 100
        },
        {
          "pitch": 74,
          "onset": 121.0,
          "duration": 0.5,
          "velocity": 100
        },
        {
          "pitch": 74,
          "onset": 122.5,
          "duration": 0.25,
          "velocity": 100
        },
        {
          "pitch": 71,
          "onset": 122.75,
          "duration": 0.25,
          "velocity": 100
        },
        {
          "pitch": 75,
          "onset": 123.0,
          "duration": 1.5,
          "velocity": 100
        },
        {
          "pitch": 75,
          "onset": 124.5,
          "duration": 0.25,
          "velocity": 100
        },
        {
          "pitch": 72,
          "onset": 124.75,
          "duration": 0.25,
          "velocity": 100
        },
        {
          "pitch": 77,
          "onset": 125.0,
          "duration": 1.5,
          "velocity": 100
        },
        {
          "pitch": 75,
          "onset": 126.5,
          "duration": 0.25,
          "velocity": 100
        },
        {
          "pitch": 79,
          "onset": 126.75,
          "duration": 0.25,
          "velocity": 100
        },
        {
          "pitch": 72,
          "onset": 127.0,
          "duration": 0.5,
          "velocity": 100
        },
        {
          "pitch": 84,
          "onset": 127.5,
          "duration": 0.25,
          "velocity": 100
        },
        {
          "pitch": 72,
          "onset": 127.75,
          "duration": 0.25,
          "velocity": 100
        },
        {
          "pitch": 77,
          "onset": 128.0,
          "duration": 0.5,
          "velocity": 100
        },
        {
          "pitch": 79,
          "onset": 128.5,
          "duration": 0.25,
          "velocity": 100
        },
        {
          "pitch": 80,
          "onset": 128.75,
          "duration": 0.25,
          "velocity": 100
        },
        {
          "pitch": 80,
          "onset": 129.0,
          "duration": 0.125,
          "velocity": 100
        },
        {
          "pitch": 82,
          "onset": 129.125,
          "duration": 0.125,
          "velocity": 100
        },
        {
          "pitch": 80,
          "onset": 129.25,
          "duration": 0.5,
          "velocity": 100
        },
        {
          "pitch": 79,
          "onset": 129.75,
          "duration": 0.125,
          "velocity": 100
        },
        {
          "pitch": 80,
          "onset": 129.875,
          "duration": 0.125,
          "velocity": 100
        },
        {
          "pitch": 79,
          "onset": 130.0,
          "duration": 0.5,
          "velocity": 100
        },
        {
          "pitch": 74,
          "onset": 130.5,
          "duration": 0.25,
          "velocity": 100
        },
        {
          "pitch": 62,
          "onset": 130.75,
          "duration": 0.25,
          "velocity": 100
        },
        {
          "pitch": 67,
          "onset": 131.0,
          "duration": 0.5,
          "velocity": 100
        },
        {
          "pitch": 69,
          "onset": 131.5,
          "duration": 0.25,
          "velocity": 100
        },
        {
          "pitch": 71,
          "onset": 131.75,
          "duration": 0.25,
          "velocity": 100
        },
        {
          "pitch": 71,
          "onset": 132.0,
          "duration": 0.125,
          "velocity": 100
        },
        {
          "pitch": 72,
          "onset": 132.125,
          "duration": 0.125,
          "velocity": 100
        },
        {
          "pitch": 71,
          "onset": 132.25,
          "duration": 0.75,
          "velocity": 100
        },
        {
          "pitch": 72,
          "onset": 133.0,
          "duration": 0.5,
          "velocity": 100
        },
        {
          "pitch": 79,
          "onset": 133.5,
          "duration": 0.25,
          "velocity": 100
        },
        {
          "pitch": 67,
          "onset": 133.75,
          "duration": 0.25,
          "velocity": 100
        },
        {
          "pitch": 72,
          "onset": 134.0,
          "duration": 0.5,
          "velocity": 100
        },
        {
          "pitch": 74,
          "onset": 134.5,
          "duration": 0.5,
          "velocity": 100
        },
        {
          "pitch": 75,
          "onset": 135.0,
          "duration": 0.5,
          "velocity": 100
        },
        {
          "pitch": 74,
          "onset": 135.5,
          "duration": 0.25,
          "velocity": 100
        },
        {
          "pitch": 77,
          "onset": 135.75,
          "duration": 0.25,
          "velocity": 100
        },
        {
          "pitch": 75,
          "onset": 136.0,
          "duration": 0.5,
          "velocity": 100
        },
        {
          "pitch": 84,
          "onset": 136.5,
          "duration": 0.25,
          "velocity": 100
        },
        {
          "pitch": 72,
          "onset": 136.75,
          "duration": 0.25,
          "velocity": 100
        },
        {
          "pitch": 77,
          "onset": 137.0,
          "duration": 0.5,
          "velocity": 100
        },
        {
          "pitch": 79,
          "onset": 137.5,
          "duration": 0.5,
          "velocity": 100
        },
        {
          "pitch": 80,
          "onset": 138.0,
          "duration": 0.5,
          "velocity": 100
        },
        {
          "pitch": 77,
          "onset": 138.5,
          "duration": 1.0,
          "velocity": 100
        },
        {
          "pitch": 79,
          "onset": 139.5,
          "duration": 0.25,
          "velocity": 100
        },
        {
          "pitch": 74,
          "onset": 139.75,
          "duration": 0.25,
          "velocity": 100
        },
        {
          "pitch": 75,
          "onset": 140.0,
          "duration": 0.75,
          "velocity": 100
        },
        {
          "pitch": 77,
          "onset": 140.75,
          "duration": 0.25,
          "velocity": 100
        },
        {
          "pitch": 74,
          "onset": 141.0,
          "duration": 0.125,
          "velocity": 100
        },
        {
          "pitch": 75,
          "onset": 141.125,
          "duration": 0.125,
          "velocity": 100
        },
        {
          "pitch": 74,
          "onset": 141.25,
          "duration": 0.5,
          "velocity": 100
        },
        {
          "pitch": 75,
          "onset": 141.75,
          "duration": 0.25,
          "velocity": 100
        },
        {
          "pitch": 72,
          "onset": 142.0,
          "duration": 1.0,
          "velocity": 100
        },
        {
          "pitch": 69,
          "onset": 144.25,
          "duration": 0.25,
          "velocity": 100
        },
        {
          "pitch": 71,
          "onset": 144.5,
          "duration": 0.25,
          "velocity": 100
        },
        {
          "pitch": 72,
          "onset": 144.75,
          "duration": 0.25,
          "velocity": 100
        },
        {
          "pitch": 71,
          "onset": 145.0,
          "duration": 1.0,
          "velocity": 100
        },
        {
          "pitch": 75,
          "onset": 147.25,
          "duration": 0.25,
          "velocity": 100
        },
        {
          "pitch": 77,
          "onset": 147.5,
          "duration": 0.25,
          "velocity": 100
        },
        {
          "pitch": 79,
          "onset": 147.75,
          "duration": 0.25,
          "velocity": 100
        },
        {
          "pitch": 80,
          "onset": 148.0,
          "duration": 1.0,
          "velocity": 100
        },
        {
          "pitch": 79,
          "onset": 150.25,
          "duration": 0.25,
          "velocity": 100
        },
        {
          "pitch": 81,
          "onset": 150.5,
          "duration": 0.25,
          "velocity": 100
        },
        {
          "pitch": 83,
          "onset": 150.75,
          "duration": 0.25,
          "velocity": 100
        },
        {
          "pitch": 84,
          "onset": 151.0,
          "duration": 1.0,
          "velocity": 100
        },
        {
          "pitch": 74,
          "onset": 153.25,
          "duration": 0.25,
          "velocity": 100
        },
        {
          "pitch": 75,
          "onset": 153.5,
          "duration": 0.25,
          "velocity": 100
        },
        {
          "pitch": 77,
          "onset": 153.75,
          "duration": 0.25,
          "velocity": 100
        },
        {
          "pitch": 71,
          "onset": 154.0,
          "duration": 1.0,
          "velocity": 100
        },
        {
          "pitch": 63,
          "onset": 156.25,
          "duration": 0.25,
          "velocity": 100
        },
        {
          "pitch": 65,
          "onset": 156.5,
          "duration": 0.25,
          "velocity": 100
        },
        {
          "pitch": 67,
          "onset": 156.75,
          "duration": 0.25,
          "velocity": 100
        },
        {
          "pitch": 63,
          "onset": 157.0,
          "duration": 1.0,
          "velocity": 100
        },
        {
          "pitch": 71,
          "onset": 159.25,
          "duration": 0.25,
          "velocity": 100
        },
        {
          "pitch": 72,
          "onset": 159.5,
          "duration": 0.25,
          "velocity": 100
        },
        {
          "pitch": 74,
          "onset": 159.75,
          "duration": 0.25,
          "velocity": 100
        },
        {
          "pitch": 75,
          "onset": 160.0,
          "duration": 1.0,
          "velocity": 100
        },
        {
          "pitch": 71,
          "onset": 162.25,
          "duration": 0.25,
          "velocity": 100
        },
        {
          "pitch": 72,
          "onset": 162.5,
          "duration": 0.25,
          "velocity": 100
        },
        {
          "pitch": 74,
          "onset": 162.75,
          "duration": 0.25,
          "velocity": 100
        },
        {
          "pitch": 75,
          "onset": 163.0,
          "duration": 0.25,
          "velocity": 100
        },
        {
          "pitch": 79,
          "onset": 163.25,
          "duration": 0.25,
          "velocity": 100
        },
        {
          "pitch": 77,
          "onset": 163.5,
          "duration": 0.25,
          "velocity": 100
        },
        {
          "pitch": 75,
          "onset": 163.75,
          "duration": 0.25,
          "velocity": 100
        },
        {
          "pitch": 74,
          "onset": 164.0,
          "duration": 2.0,
          "velocity": 100
        },
        {
          "pitch": 72,
          "onset": 166.0,
          "duration": 0.25,
          "velocity": 100
        },
        {
          "pitch": 72,
          "onset": 166.25,
          "duration": 0.25,
          "velocity": 100
        },
        {
          "pitch": 70,
          "onset": 166.5,
          "duration": 0.25,
          "velocity": 100
        },
        {
          "pitch": 68,
          "onset": 166.75,
          "duration": 0.25,
          "velocity": 100
        },
        {
          "pitch": 67,
          "onset": 167.0,
          "duration": 0.25,
          "velocity": 100
        },
        {
          "pitch": 68,
          "onset": 167.25,
          "duration": 0.25,
          "velocity": 100
        },
        {
          "pitch": 67,
          "onset": 167.5,
          "duration": 0.25,
          "velocity": 100
        },
        {
          "pitch": 65,
          "onset": 167.75,
          "duration": 0.25,
          "velocity": 100
        },
        {
          "pitch": 63,
          "onset": 168.0,
          "duration": 0.5,
          "velocity": 100
        },
        {
          "pitch": 79,
          "onset": 169.25,
          "duration": 0.25,
          "velocity": 100
        },
        {
          "pitch": 77,
          "onset": 169.5,
          "duration": 0.25,
          "velocity": 100
        },
        {
          "pitch": 75,
          "onset": 169.75,
          "duration": 0.25,
          "velocity": 100
        },
        {
          "pitch": 74,
          "onset": 170.0,
          "duration": 0.25,
          "velocity": 100
        },
        {
          "pitch": 75,
          "onset": 170.25,
          "duration": 0.25,
          "velocity": 100
        },
        {
          "pitch": 74,
          "onset": 170.5,
          "duration": 0.25,
          "velocity": 100
        },
        {
          "pitch": 75,
          "onset": 170.75,
          "duration": 0.25,
          "velocity": 100
        },
        {
          "pitch": 72,
          "onset": 171.0,
          "duration": 1.25,
          "velocity": 100
        },
        {
          "pitch": 82,
          "onset": 172.25,
          "duration": 0.25,
          "velocity": 100
        },
        {
          "pitch": 80,
          "onset": 172.5,
          "duration": 0.25,
          "velocity": 100
        },
        {
          "pitch": 79,
          "onset": 172.75,
          "duration": 0.25,
          "velocity": 100
        },
        {
          "pitch": 77,
          "onset": 173.0,
          "duration": 0.25,
          "velocity": 100
        },
        {
          "pitch": 75,
          "onset": 173.25,
          "duration": 0.25,
          "velocity": 100
        },
        {
          "pitch": 74,
          "onset": 173.5,
          "duration": 0.25,
          "velocity": 100
        },
        {
          "pitch": 72,
          "onset": 173.75,
          "duration": 0.25,
          "velocity": 100
        },
        {
          "pitch": 71,
          "onset": 174.0,
          "duration": 1.0,
          "velocity": 100
        },
        {
          "pitch": 72,
          "onset": 175.0,
          "duration": 0.25,
          "velocity": 100
        },
        {
          "pitch": 77,
          "onset": 175.25,
          "duration": 0.25,
          "velocity": 100
        },
        {
          "pitch": 75,
          "onset": 175.5,
          "duration": 0.25,
          "velocity": 100
        },
        {
          "pitch": 74,
          "onset": 175.75,
          "duration": 0.25,
          "velocity": 100
        },
        {
          "pitch": 72,
          "onset": 176.0,
          "duration": 0.25,
          "velocity": 100
        },
        {
          "pitch": 70,
          "onset": 176.25,
          "duration": 0.25,
          "velocity": 100
        },
        {
          "pitch": 68,
          "onset": 176.5,
          "duration": 0.25,
          "velocity": 100
        },
        {
          "pitch": 67,
          "onset": 176.75,
          "duration": 0.25,
          "velocity": 100
        },
        {
          "pitch": 68,
          "onset": 177.0,
          "duration": 1.0,
          "velocity": 100
        },
        {
          "pitch": 67,
          "onset": 178.0,
          "duration": 0.25,
          "velocity": 100
        },
        {
          "pitch": 79,
          "onset": 178.25,
          "duration": 0.25,
          "velocity": 100
        },
        {
          "pitch": 77,
          "onset": 178.5,
          "duration": 0.25,
          "velocity": 100
        },
        {
          "pitch": 75,
          "onset": 178.75,
          "duration": 0.25,
          "velocity": 100
        },
        {
          "pitch": 74,
          "onset": 179.0,
          "duration": 0.25,
          "velocity": 100
        },
        {
          "pitch": 75,
          "onset": 179.25,
          "duration": 0.25,
          "velocity": 100
        },
        {
          "pitch": 74,
          "onset": 179.5,
          "duration": 0.25,
          "velocity": 100
        },
        {
          "pitch": 75,
          "onset": 179.75,
          "duration": 0.25,
          "velocity": 100
        },
        {
          "pitch": 77,
          "onset": 180.0,
          "duration": 1.25,
          "velocity": 100
        },
        {
          "pitch": 75,
          "onset": 181.25,
          "duration": 0.25,
          "velocity": 100
        },
        {
          "pitch": 74,
          "onset": 181.5,
          "duration": 0.25,
          "velocity": 100
        },
        {
          "pitch": 72,
          "onset": 181.75,
          "duration": 0.25,
          "velocity": 100
        },
        {
          "pitch": 71,
          "onset": 182.0,
          "duration": 0.25,
          "velocity": 100
        },
        {
          "pitch": 69,
          "onset": 182.25,
          "duration": 0.25,
          "velocity": 100
        },
        {
          "pitch": 71,
          "onset": 182.5,
          "duration": 0.25,
          "velocity": 100
        },
        {
          "pitch": 72,
          "onset": 182.75,
          "duration": 0.25,
          "velocity": 100
        },
        {
          "pitch": 74,
          "onset": 183.0,
          "duration": 1.25,
          "velocity": 100
        },
        {
          "pitch": 77,
          "onset": 184.25,
          "duration": 0.25,
          "velocity": 100
        },
        {
          "pitch": 75,
          "onset": 184.5,
          "duration": 0.25,
          "velocity": 100
        },
        {
          "pitch": 74,
          "onset": 184.75,
          "duration": 0.25,
          "velocity": 100
        },
        {
          "pitch": 72,
          "onset": 185.0,
          "duration": 0.75,
          "velocity": 100
        },
        {
          "pitch": 70,
          "onset": 185.75,
          "duration": 0.25,
          "velocity": 100
        },
        {
          "pitch": 68,
          "onset": 186.0,
          "duration": 1.25,
          "velocity": 100
        },
        {
          "pitch": 68,
          "onset": 187.25,
          "duration": 0.25,
          "velocity": 100
        },
        {
          "pitch": 67,
          "onset": 187.5,
          "duration": 0.25,
          "velocity": 100
        },
        {
          "pitch": 65,
          "onset": 187.75,
          "duration": 0.25,
          "velocity": 100
        },
        {
          "pitch": 63,
          "onset": 188.0,
          "duration": 0.125,
          "velocity": 100
        },
        {
          "pitch": 65,
          "onset": 188.125,
          "duration": 0.125,
          "velocity": 100
        },
        {
          "pitch": 67,
          "onset": 188.25,
          "duration": 0.25,
          "velocity": 100
        },
        {
          "pitch": 65,
          "onset": 188.5,
          "duration": 0.25,
          "velocity": 100
        },
        {
          "pitch": 67,
          "onset": 188.75,
          "duration": 0.125,
          "velocity": 100
        },
        {
          "pitch": 68,
          "onset": 188.875,
          "duration": 0.125,
          "velocity": 100
        },
        {
          "pitch": 62,
          "onset": 189.0,
          "duration": 0.125,
          "velocity": 100
        },
        {
          "pitch": 63,
          "onset": 189.125,
          "duration": 0.125,
          "velocity": 100
        },
        {
          "pitch": 62,
          "onset": 189.25,
          "duration": 0.5,
          "velocity": 100
        },
        {
          "pitch": 63,
          "onset": 189.75,
          "duration": 0.25,
          "velocity": 100
        },
        {
          "pitch": 60,
          "onset": 190.0,
          "duration": 1.0,
          "velocity": 100
        },
        {
          "pitch": 74,
          "onset": 194.25,
          "duration": 0.25,
          "velocity": 100
        },
        {
          "pitch": 75,
          "onset": 194.5,
          "duration": 0.25,
          "velocity": 100
        },
        {
          "pitch": 77,
          "onset": 194.75,
          "duration": 0.25,
          "velocity": 100
        },
        {
          "pitch": 79,
          "onset": 195.0,
          "duration": 0.25,
          "velocity": 100
        },
        {
          "pitch": 77,
          "onset": 195.25,
          "duration": 0.25,
          "velocity": 100
        },
        {
          "pitch": 75,
          "onset": 195.5,
          "duration": 0.25,
          "velocity": 100
        },
        {
          "pitch": 74,
          "onset": 195.75,
          "duration": 0.25,
          "velocity": 100
        },
        {
          "pitch": 72,
          "onset": 196.0,
          "duration": 0.25,
          "velocity": 100
        },
        {
          "pitch": 73,
          "onset": 196.25,
          "duration": 0.25,
          "velocity": 100
        },
        {
          "pitch": 72,
          "onset": 196.5,
          "duration": 0.25,
          "velocity": 100
        },
        {
          "pitch": 70,
          "onset": 196.75,
          "duration": 0.25,
          "velocity": 100
        },
        {
          "pitch": 68,
          "onset": 197.0,
          "duration": 0.25,
          "velocity": 100
        },
        {
          "pitch": 77,
          "onset": 197.25,
          "duration": 0.25,
          "velocity": 100
        },
        {
          "pitch": 79,
          "onset": 197.5,
          "duration": 0.25,
          "velocity": 100
        },
        {
          "pitch": 80,
          "onset": 197.75,
          "duration": 0.25,
          "velocity": 100
        },
        {
          "pitch": 71,
          "onset": 198.0,
          "duration": 1.0,
          "velocity": 100
        },
        {
          "pitch": 72,
          "onset": 199.25,
          "duration": 0.25,
          "velocity": 100
        },
        {
          "pitch": 74,
          "onset": 199.5,
          "duration": 0.25,
          "velocity": 100
        },
        {
          "pitch": 75,
          "onset": 199.75,
          "duration": 0.25,
          "velocity": 100
        },
        {
          "pitch": 77,
          "onset": 200.0,
          "duration": 0.25,
          "velocity": 100
        },
        {
          "pitch": 79,
          "onset": 200.25,
          "duration": 0.25,
          "velocity": 100
        },
        {
          "pitch": 77,
          "onset": 200.5,
          "duration": 0.25,
          "velocity": 100
        },
        {
          "pitch": 75,
          "onset": 200.75,
          "duration": 0.25,
          "velocity": 100
        },
        {
          "pitch": 74,
          "onset": 201.0,
          "duration": 0.25,
          "velocity": 100
        },
        {
          "pitch": 81,
          "onset": 201.25,
          "duration": 0.25,
          "velocity": 100
        },
        {
          "pitch": 83,
          "onset": 201.5,
          "duration": 0.25,
          "velocity": 100
        },
        {
          "pitch": 84,
          "onset": 201.75,
          "duration": 0.25,
          "velocity": 100
        },
        {
          "pitch": 83,
          "onset": 202.0,
          "duration": 0.25,
          "velocity": 100
        },
        {
          "pitch": 84,
          "onset": 202.25,
          "duration": 0.25,
          "velocity": 100
        },
        {
          "pitch": 83,
          "onset": 202.5,
          "duration": 0.25,
          "velocity": 100
        },
        {
          "pitch": 81,
          "onset": 202.75,
          "duration": 0.25,
          "velocity": 100
        },
        {
          "pitch": 79,
          "onset": 203.0,
          "duration": 0.5,
          "velocity": 100
        },
        {
          "pitch": 77,
          "onset": 203.5,
          "duration": 0.25,
          "velocity": 100
        },
        {
          "pitch": 75,
          "onset": 203.75,
          "duration": 0.25,
          "velocity": 100
        },
        {
          "pitch": 77,
          "onset": 204.0,
          "duration": 1.25,
          "velocity": 100
        },
        {
          "pitch": 80,
          "onset": 205.25,
          "duration": 0.25,
          "velocity": 100
        },
        {
          "pitch": 79,
          "onset": 205.5,
          "duration": 0.25,
          "velocity": 100
        },
        {
          "pitch": 77,
          "onset": 205.75,
          "duration": 0.25,
          "velocity": 100
        },
        {
          "pitch": 75,
          "onset": 206.0,
          "duration": 0.25,
          "velocity": 100
        },
        {
          "pitch": 79,
          "onset": 206.25,
          "duration": 0.25,
          "velocity": 100
        },
        {
          "pitch": 77,
          "onset": 206.5,
          "duration": 0.25,
          "velocity": 100
        },
        {
          "pitch": 75,
          "onset": 206.75,
          "duration": 0.25,
          "velocity": 100
        },
        {
          "pitch": 74,
          "onset": 207.0,
          "duration": 1.25,
          "velocity": 100
        },
        {
          "pitch": 77,
          "onset": 208.25,
          "duration": 0.25,
          "velocity": 100
        },
        {
          "pitch": 75,
          "onset": 208.5,
          "duration": 0.25,
          "velocity": 100
        },
        {
          "pitch": 74,
          "onset": 208.75,
          "duration": 0.25,
          "velocity": 100
        },
        {
          "pitch": 72,
          "onset": 209.0,
          "duration": 0.25,
          "velocity": 100
        },
        {
          "pitch": 75,
          "onset": 209.25,
          "duration": 0.25,
          "velocity": 100
        },
        {
          "pitch": 74,
          "onset": 209.5,
          "duration": 0.25,
          "velocity": 100
        },
        {
          "pitch": 72,
          "onset": 209.75,
          "duration": 0.25,
          "velocity": 100
        },
        {
          "pitch": 73,
          "onset": 210.0,
          "duration": 0.25,
          "velocity": 100
        },
        {
          "pitch": 75,
          "onset": 210.25,
          "duration": 0.25,
          "velocity": 100
        },
        {
          "pitch": 73,
          "onset": 210.5,
          "duration": 0.25,
          "velocity": 100
        },
        {
          "pitch": 72,
          "onset": 210.75,
          "duration": 0.25,
          "velocity": 100
        },
        {
          "pitch": 71,
          "onset": 211.0,
          "duration": 0.25,
          "velocity": 100
        },
        {
          "pitch": 72,
          "onset": 211.25,
          "duration": 0.25,
          "velocity": 100
        },
        {
          "pitch": 74,
          "onset": 211.5,
          "duration": 0.75,
          "velocity": 100
        },
        {
          "pitch": 75,
          "onset": 212.25,
          "duration": 0.25,
          "velocity": 100
        },
        {
          "pitch": 74,
          "onset": 212.5,
          "duration": 0.25,
          "velocity": 100
        },
        {
          "pitch": 72,
          "onset": 212.75,
          "duration": 0.75,
          "velocity": 100
        },
        {
          "pitch": 71,
          "onset": 213.5,
          "duration": 0.5,
          "velocity": 100
        },
        {
          "pitch": 72,
          "onset": 214.0,
          "duration": 1.0,
          "velocity": 100
        },
        {
          "pitch": 67,
          "onset": 217.25,
          "duration": 0.25,
          "velocity": 100
        },
        {
          "pitch": 71,
          "onset": 217.5,
          "duration": 0.25,
          "velocity": 100
        },
        {
          "pitch": 67,
          "onset": 217.75,
          "duration": 0.25,
          "velocity": 100
        },
        {
          "pitch": 74,
          "onset": 218.0,
          "duration": 1.0,
          "velocity": 100
        },
        {
          "pitch": 75,
          "onset": 219.0,
          "duration": 2.0,
          "velocity": 100
        },
        {
          "pitch": 73,
          "onset": 221.25,
          "duration": 0.25,
          "velocity": 100
        },
        {
          "pitch": 77,
          "onset": 221.5,
          "duration": 0.25,
          "velocity": 100
        },
        {
          "pitch": 73,
          "onset": 221.75,
          "duration": 2.25,
          "velocity": 100
        },
        {
          "pitch": 72,
          "onset": 224.0,
          "duration": 1.0,
          "velocity": 100
        },
        {
          "pitch": 74,
          "onset": 225.0,
          "duration": 1.0,
          "velocity": 100
        },
        {
          "pitch": 71,
          "onset": 226.0,
          "duration": 1.0,
          "velocity": 100
        },
        {
          "pitch": 72,
          "onset": 230.25,
          "duration": 0.25,
          "velocity": 100
        },
        {
          "pitch": 75,
          "onset": 230.5,
          "duration": 0.25,
          "velocity": 100
        },
        {
          "pitch": 72,
          "onset": 230.75,
          "duration": 0.25,
          "velocity": 100
        },
        {
          "pitch": 77,
          "onset": 231.0,
          "duration": 0.25,
          "velocity": 100
        },
        {
          "pitch": 74,
          "onset": 231.25,
          "duration": 0.25,
          "velocity": 100
        },
        {
          "pitch": 77,
          "onset": 231.5,
          "duration": 0.25,
          "velocity": 100
        },
        {
          "pitch": 74,
          "onset": 231.75,
          "duration": 0.25,
          "velocity": 100
        },
        {
          "pitch": 75,
          "onset": 232.0,
          "duration": 1.0,
          "velocity": 100
        },
        {
          "pitch": 72,
          "onset": 233.25,
          "duration": 0.25,
          "velocity": 100
        },
        {
          "pitch": 75,
          "onset": 233.5,
          "duration": 0.25,
          "velocity": 100
        },
        {
          "pitch": 72,
          "onset": 233.75,
          "duration": 0.25,
          "velocity": 100
        },
        {
          "pitch": 77,
          "onset": 234.0,
          "duration": 0.25,
          "velocity": 100
        },
        {
          "pitch": 74,
          "onset": 234.25,
          "duration": 0.25,
          "velocity": 100
        },
        {
          "pitch": 77,
          "onset": 234.5,
          "duration": 0.25,
          "velocity": 100
        },
        {
          "pitch": 74,
          "onset": 234.75,
          "duration": 0.25,
          "velocity": 100
        },
        {
          "pitch": 75,
          "onset": 235.0,
          "duration": 1.0,
          "velocity": 100
        },
        {
          "pitch": 72,
          "onset": 236.25,
          "duration": 0.25,
          "velocity": 100
        },
        {
          "pitch": 75,
          "onset": 236.5,
          "duration": 0.25,
          "velocity": 100
        },
        {
          "pitch": 72,
          "onset": 236.75,
          "duration": 0.25,
          "velocity": 100
        },
        {
          "pitch": 77,
          "onset": 237.0,
          "duration": 0.25,
          "velocity": 100
        },
        {
          "pitch": 74,
          "onset": 237.25,
          "duration": 0.25,
          "velocity": 100
        },
        {
          "pitch": 77,
          "onset": 237.5,
          "duration": 0.25,
          "velocity": 100
        },
        {
          "pitch": 74,
          "onset": 237.75,
          "duration": 0.25,
          "velocity": 100
        },
        {
          "pitch": 75,
          "onset": 238.0,
          "duration": 0.25,
          "velocity": 100
        },
        {
          "pitch": 84,
          "onset": 238.25,
          "duration": 0.25,
          "velocity": 100
        },
        {
          "pitch": 82,
          "onset": 238.5,
          "duration": 0.25,
          "velocity": 100
        },
        {
          "pitch": 80,
          "onset": 238.75,
          "duration": 0.25,
          "velocity": 100
        },
        {
          "pitch": 79,
          "onset": 239.0,
          "duration": 0.25,
          "velocity": 100
        },
        {
          "pitch": 77,
          "onset": 239.25,
          "duration": 0.25,
          "velocity": 100
        },
        {
          "pitch": 75,
          "onset": 239.5,
          "duration": 0.25,
          "velocity": 100
        },
        {
          "pitch": 74,
          "onset": 239.75,
          "duration": 0.25,
          "velocity": 100
        },
        {
          "pitch": 72,
          "onset": 240.0,
          "duration": 0.25,
          "velocity": 100
        },
        {
          "pitch": 75,
          "onset": 240.25,
          "duration": 0.25,
          "velocity": 100
        },
        {
          "pitch": 74,
          "onset": 240.5,
          "duration": 0.25,
          "velocity": 100
        },
        {
          "pitch": 72,
          "onset": 240.75,
          "duration": 0.25,
          "velocity": 100
        },
        {
          "pitch": 71,
          "onset": 241.0,
          "duration": 0.25,
          "velocity": 100
        },
        {
          "pitch": 72,
          "onset": 241.25,
          "duration": 0.25,
          "velocity": 100
        },
        {
          "pitch": 71,
          "onset": 241.5,
          "duration": 0.25,
          "velocity": 100
        },
        {
          "pitch": 69,
          "onset": 241.75,
          "duration": 0.25,
          "velocity": 100
        },
        {
          "pitch": 67,
          "onset": 242.0,
          "duration": 0.25,
          "velocity": 100
        },
        {
          "pitch": 65,
          "onset": 242.25,
          "duration": 0.25,
          "velocity": 100
        },
        {
          "pitch": 63,
          "onset": 242.5,
          "duration": 0.25,
          "velocity": 100
        },
        {
          "pitch": 62,
          "onset": 242.75,
          "duration": 0.25,
          "velocity": 100
        },
        {
          "pitch": 60,
          "onset": 243.0,
          "duration": 0.25,
          "velocity": 100
        },
        {
          "pitch": 82,
          "onset": 243.25,
          "duration": 0.25,
          "velocity": 100
        },
        {
          "pitch": 80,
          "onset": 243.5,
          "duration": 0.25,
          "velocity": 100
        },
        {
          "pitch": 79,
          "onset": 243.75,
          "duration": 0.25,
          "velocity": 100
        },
        {
          "pitch": 80,
          "onset": 244.0,
          "duration": 0.25,
          "velocity": 100
        },
        {
          "pitch": 82,
          "onset": 244.25,
          "duration": 0.25,
          "velocity": 100
        },
        {
          "pitch": 80,
          "onset": 244.5,
          "duration": 0.25,
          "velocity": 100
        },
        {
          "pitch": 79,
          "onset": 244.75,
          "duration": 0.25,
          "velocity": 100
        },
        {
          "pitch": 77,
          "onset": 245.0,
          "duration": 0.25,
          "velocity": 100
        },
        {
          "pitch": 75,
          "onset": 245.25,
          "duration": 0.25,
          "velocity": 100
        },
        {
          "pitch": 74,
          "onset": 245.5,
          "duration": 0.25,
          "velocity": 100
        },
        {
          "pitch": 72,
          "onset": 245.75,
          "duration": 0.25,
          "velocity": 100
        },
        {
          "pitch": 71,
          "onset": 246.0,
          "duration": 0.25,
          "velocity": 100
        },
        {
          "pitch": 74,
          "onset": 246.25,
          "duration": 0.25,
          "velocity": 100
        },
        {
          "pitch": 72,
          "onset": 246.5,
          "duration": 0.25,
          "velocity": 100
        },
        {
          "pitch": 71,
          "onset": 246.75,
          "duration": 0.25,
          "velocity": 100
        },
        {
          "pitch": 72,
          "onset": 247.0,
          "duration": 0.25,
          "velocity": 100
        },
        {
          "pitch": 74,
          "onset": 247.25,
          "duration": 0.25,
          "velocity": 100
        },
        {
          "pitch": 72,
          "onset": 247.5,
          "duration": 0.25,
          "velocity": 100
        },
        {
          "pitch": 70,
          "onset": 247.75,
          "duration": 0.25,
          "velocity": 100
        },
        {
          "pitch": 68,
          "onset": 248.0,
          "duration": 0.25,
          "velocity": 100
        },
        {
          "pitch": 67,
          "onset": 248.25,
          "duration": 0.25,
          "velocity": 100
        },
        {
          "pitch": 65,
          "onset": 248.5,
          "duration": 0.25,
          "velocity": 100
        },
        {
          "pitch": 63,
          "onset": 248.75,
          "duration": 0.25,
          "velocity": 100
        },
        {
          "pitch": 62,
          "onset": 249.0,
          "duration": 0.25,
          "velocity": 100
        },
        {
          "pitch": 63,
          "onset": 249.25,
          "duration": 0.25,
          "velocity": 100
        },
        {
          "pitch": 62,
          "onset": 249.5,
          "duration": 0.25,
          "velocity": 100
        },
        {
          "pitch": 60,
          "onset": 249.75,
          "duration": 0.25,
          "velocity": 100
        },
        {
          "pitch": 59,
          "onset": 250.0,
          "duration": 0.25,
          "velocity": 100
        },
        {
          "pitch": 60,
          "onset": 250.25,
          "duration": 0.25,
          "velocity": 100
        },
        {
          "pitch": 59,
          "onset": 250.5,
          "duration": 0.25,
          "velocity": 100
        },
        {
          "pitch": 57,
          "onset": 250.75,
          "duration": 0.25,
          "velocity": 100
        },
        {
          "pitch": 55,
          "onset": 251.0,
          "duration": 0.25,
          "velocity": 100
        },
        {
          "pitch": 57,
          "onset": 251.25,
          "duration": 0.25,
          "velocity": 100
        },
        {
          "pitch": 59,
          "onset": 251.5,
          "duration": 0.25,
          "velocity": 100
        },
        {
          "pitch": 60,
          "onset": 251.75,
          "duration": 0.25,
          "velocity": 100
        },
        {
          "pitch": 59,
          "onset": 252.0,
          "duration": 0.25,
          "velocity": 100
        },
        {
          "pitch": 62,
          "onset": 252.25,
          "duration": 0.25,
          "velocity": 100
        },
        {
          "pitch": 60,
          "onset": 252.5,
          "duration": 0.25,
          "velocity": 100
        },
        {
          "pitch": 59,
          "onset": 252.75,
          "duration": 0.25,
          "velocity": 100
        },
        {
          "pitch": 60,
          "onset": 253.0,
          "duration": 0.25,
          "velocity": 100
        },
        {
          "pitch": 62,
          "onset": 253.25,
          "duration": 0.25,
          "velocity": 100
        },
        {
          "pitch": 63,
          "onset": 253.5,
          "duration": 0.25,
          "velocity": 100
        },
        {
          "pitch": 65,
          "onset": 253.75,
          "duration": 0.25,
          "velocity": 100
        },
        {
          "pitch": 67,
          "onset": 254.0,
          "duration": 0.25,
          "velocity": 100
        },
        {
          "pitch": 69,
          "onset": 254.25,
          "duration": 0.25,
          "velocity": 100
        },
        {
          "pitch": 71,
          "onset": 254.5,
          "duration": 0.25,
          "velocity": 100
        },
        {
          "pitch": 72,
          "onset": 254.75,
          "duration": 0.25,
          "velocity": 100
        },
        {
          "pitch": 74,
          "onset": 255.0,
          "duration": 0.25,
          "velocity": 100
        },
        {
          "pitch": 77,
          "onset": 255.25,
          "duration": 0.25,
          "velocity": 100
        },
        {
          "pitch": 75,
          "onset": 255.5,
          "duration": 0.25,
          "velocity": 100
        },
        {
          "pitch": 74,
          "onset": 255.75,
          "duration": 0.25,
          "velocity": 100
        },
        {
          "pitch": 75,
          "onset": 256.0,
          "duration": 0.25,
          "velocity": 100
        },
        {
          "pitch": 79,
          "onset": 256.25,
          "duration": 0.25,
          "velocity": 100
        },
        {
          "pitch": 84,
          "onset": 256.5,
          "duration": 0.25,
          "velocity": 100
        },
        {
          "pitch": 82,
          "onset": 256.75,
          "duration": 0.25,
          "velocity": 100
        },
        {
          "pitch": 80,
          "onset": 257.0,
          "duration": 0.25,
          "velocity": 100
        },
        {
          "pitch": 79,
          "onset": 257.25,
          "duration": 0.25,
          "velocity": 100
        },
        {
          "pitch": 77,
          "onset": 257.5,
          "duration": 0.25,
          "velocity": 100
        },
        {
          "pitch": 75,
          "onset": 257.75,
          "duration": 0.25,
          "velocity": 100
        },
        {
          "pitch": 74,
          "onset": 258.0,
          "duration": 0.25,
          "velocity": 100
        },
        {
          "pitch": 75,
          "onset": 258.25,
          "duration": 0.25,
          "velocity": 100
        },
        {
          "pitch": 74,
          "onset": 258.5,
          "duration": 0.25,
          "velocity": 100
        },
        {
          "pitch": 72,
          "onset": 258.75,
          "duration": 0.25,
          "velocity": 100
        },
        {
          "pitch": 71,
          "onset": 259.0,
          "duration": 0.25,
          "velocity": 100
        },
        {
          "pitch": 72,
          "onset": 259.25,
          "duration": 0.25,
          "velocity": 100
        },
        {
          "pitch": 74,
          "onset": 259.5,
          "duration": 0.25,
          "velocity": 100
        },
        {
          "pitch": 75,
          "onset": 259.75,
          "duration": 0.25,
          "velocity": 100
        },
        {
          "pitch": 74,
          "onset": 260.0,
          "duration": 0.25,
          "velocity": 100
        },
        {
          "pitch": 72,
          "onset": 260.25,
          "duration": 0.25,
          "velocity": 100
        },
        {
          "pitch": 71,
          "onset": 260.5,
          "duration": 0.25,
          "velocity": 100
        },
        {
          "pitch": 69,
          "onset": 260.75,
          "duration": 0.25,
          "velocity": 100
        },
        {
          "pitch": 67,
          "onset": 261.0,
          "duration": 0.25,
          "velocity": 100
        },
        {
          "pitch": 68,
          "onset": 261.25,
          "duration": 0.25,
          "velocity": 100
        },
        {
          "pitch": 67,
          "onset": 261.5,
          "duration": 0.25,
          "velocity": 100
        },
        {
          "pitch": 65,
          "onset": 261.75,
          "duration": 0.25,
          "velocity": 100
        },
        {
          "pitch": 63,
          "onset": 262.0,
          "duration": 0.25,
          "velocity": 100
        },
        {
          "pitch": 65,
          "onset": 262.25,
          "duration": 0.25,
          "velocity": 100
        },
        {
          "pitch": 67,
          "onset": 262.5,
          "duration": 0.25,
          "velocity": 100
        },
        {
          "pitch": 68,
          "onset": 262.75,
          "duration": 0.25,
          "velocity": 100
        },
        {
          "pitch": 67,
          "onset": 263.0,
          "duration": 0.25,
          "velocity": 100
        },
        {
          "pitch": 65,
          "onset": 263.25,
          "duration": 0.25,
          "velocity": 100
        },
        {
          "pitch": 63,
          "onset": 263.5,
          "duration": 0.25,
          "velocity": 100
        },
        {
          "pitch": 62,
          "onset": 263.75,
          "duration": 0.25,
          "velocity": 100
        },
        {
          "pitch": 72,
          "onset": 264.0,
          "duration": 1.0,
          "velocity": 100
        },
        {
          "pitch": 79,
          "onset": 265.0,
          "duration": 2.0,
          "velocity": 100
        },
        {
          "pitch": 75,
          "onset": 267.0,
          "duration": 1.0,
          "velocity": 100
        },
        {
          "pitch": 77,
          "onset": 268.0,
          "duration": 2.0,
          "velocity": 100
        },
        {
          "pitch": 79,
          "onset": 270.0,
          "duration": 1.0,
          "velocity": 100
        },
        {
          "pitch": 80,
          "onset": 271.0,
          "duration": 2.0,
          "velocity": 100
        },
        {
          "pitch": 77,
          "onset": 273.0,
          "duration": 1.0,
          "velocity": 100
        },
        {
          "pitch": 79,
          "onset": 274.0,
          "duration": 2.0,
          "velocity": 100
        },
        {
          "pitch": 74,
          "onset": 276.0,
          "duration": 1.0,
          "velocity": 100
        },
        {
          "pitch": 75,
          "onset": 277.0,
          "duration": 2.0,
          "velocity": 100
        },
        {
          "pitch": 71,
          "onset": 279.0,
          "duration": 1.0,
          "velocity": 100
        },
        {
          "pitch": 72,
          "onset": 280.0,
          "duration": 2.0,
          "velocity": 100
        },
        {
          "pitch": 65,
          "onset": 282.0,
          "duration": 1.0,
          "velocity": 100
        },
        {
          "pitch": 67,
          "onset": 283.0,
          "duration": 3.0,
          "velocity": 100
        },
        {
          "pitch": 60,
          "onset": 286.0,
          "duration": 2.0,
          "velocity": 100
        },
        {
          "pitch": 72,
          "onset": 288.0,
          "duration": 1.0,
          "velocity": 110
        },
        {
          "pitch": 79,
          "onset": 289.0,
          "duration": 2.0,
          "velocity": 110
        },
        {
          "pitch": 75,
          "onset": 291.0,
          "duration": 1.0,
          "velocity": 110
        },
        {
          "pitch": 77,
          "onset": 292.0,
          "duration": 2.0,
          "velocity": 110
        },
        {
          "pitch": 79,
          "onset": 294.0,
          "duration": 1.0,
          "velocity": 110
        },
        {
          "pitch": 80,
          "onset": 295.0,
          "duration": 1.5,
          "velocity": 110
        },
        {
          "pitch": 79,
          "onset": 296.5,
          "duration": 0.5,
          "velocity": 110
        },
        {
          "pitch": 77,
          "onset": 297.0,
          "duration": 1.0,
          "velocity": 110
        },
        {
          "pitch": 79,
          "onset": 298.0,
          "duration": 2.0,
          "velocity": 110
        },
        {
          "pitch": 74,
          "onset": 300.0,
          "duration": 1.0,
          "velocity": 110
        },
        {
          "pitch": 75,
          "onset": 301.0,
          "duration": 2.0,
          "velocity": 110
        },
        {
          "pitch": 71,
          "onset": 303.0,
          "duration": 1.0,
          "velocity": 110
        },
        {
          "pitch": 72,
          "onset": 304.0,
          "duration": 2.0,
          "velocity": 110
        },
        {
          "pitch": 65,
          "onset": 306.0,
          "duration": 1.0,
          "velocity": 110
        },
        {
          "pitch": 67,
          "onset": 307.0,
          "duration": 3.0,
          "velocity": 110
        },
        {
          "pitch": 60,
          "onset": 310.0,
          "duration": 2.0,
          "velocity": 110
        },
        {
          "pitch": 72,
          "onset": 314.0,
          "duration": 0.25,
          "velocity": 100
        },
        {
          "pitch": 75,
          "onset": 314.25,
          "duration": 0.25,
          "velocity": 100
        },
        {
          "pitch": 74,
          "onset": 314.5,
          "duration": 0.25,
          "velocity": 100
        },
        {
          "pitch": 72,
          "onset": 314.75,
          "duration": 0.25,
          "velocity": 100
        },
        {
          "pitch": 79,
          "onset": 315.0,
          "duration": 1.0,
          "velocity": 100
        },
        {
          "pitch": 72,
          "onset": 316.0,
          "duration": 0.25,
          "velocity": 100
        },
        {
          "pitch": 76,
          "onset": 316.25,
          "duration": 0.25,
          "velocity": 100
        },
        {
          "pitch": 74,
          "onset": 316.5,
          "duration": 0.25,
          "velocity": 100
        },
        {
          "pitch": 72,
          "onset": 316.75,
          "duration": 0.25,
          "velocity": 100
        },
        {
          "pitch": 77,
          "onset": 317.0,
          "duration": 1.5,
          "velocity": 100
        },
        {
          "pitch": 76,
          "onset": 318.5,
          "duration": 0.5,
          "velocity": 100
        },
        {
          "pitch": 77,
          "onset": 319.0,
          "duration": 0.25,
          "velocity": 100
        },
        {
          "pitch": 80,
          "onset": 319.25,
          "duration": 0.25,
          "velocity": 100
        },
        {
          "pitch": 79,
          "onset": 319.5,
          "duration": 0.25,
          "velocity": 100
        },
        {
          "pitch": 77,
          "onset": 319.75,
          "duration": 0.25,
          "velocity": 100
        },
        {
          "pitch": 84,
          "onset": 320.0,
          "duration": 1.25,
          "velocity": 100
        },
        {
          "pitch": 75,
          "onset": 321.25,
          "duration": 0.25,
          "velocity": 100
        },
        {
          "pitch": 74,
          "onset": 321.5,
          "duration": 0.25,
          "velocity": 100
        },
        {
          "pitch": 72,
          "onset": 321.75,
          "duration": 0.25,
          "velocity": 100
        },
        {
          "pitch": 71,
          "onset": 322.0,
          "duration": 1.0,
          "velocity": 100
        },
        {
          "pitch": 72,
          "onset": 323.0,
          "duration": 1.0,
          "velocity": 100
        },
        {
          "pitch": 74,
          "onset": 324.0,
          "duration": 1.0,
          "velocity": 100
        },
        {
          "pitch": 67,
          "onset": 325.0,
          "duration": 0.5,
          "velocity": 100
        },
        {
          "pitch": 72,
          "onset": 325.5,
          "duration": 0.75,
          "velocity": 100
        },
        {
          "pitch": 72,
          "onset": 326.25,
          "duration": 0.25,
          "velocity": 100
        },
        {
          "pitch": 71,
          "onset": 326.5,
          "duration": 0.25,
          "velocity": 100
        },
        {
          "pitch": 69,
          "onset": 326.75,
          "duration": 0.25,
          "velocity": 100
        },
        {
          "pitch": 67,
          "onset": 327.0,
          "duration": 0.5,
          "velocity": 100
        },
        {
          "pitch": 65,
          "onset": 327.5,
          "duration": 0.5,
          "velocity": 100
        },
        {
          "pitch": 63,
          "onset": 328.0,
          "duration": 0.5,
          "velocity": 100
        },
        {
          "pitch": 68,
          "onset": 328.5,
          "duration": 0.75,
          "velocity": 100
        },
        {
          "pitch": 67,
          "onset": 329.25,
          "duration": 0.25,
          "velocity": 100
        },
        {
          "pitch": 72,
          "onset": 329.5,
          "duration": 0.25,
          "velocity": 100
        },
        {
          "pitch": 70,
          "onset": 329.75,
          "duration": 0.25,
          "velocity": 100
        },
        {
          "pitch": 68,
          "onset": 330.0,
          "duration": 0.25,
          "velocity": 100
        },
        {
          "pitch": 77,
          "onset": 330.25,
          "duration": 0.25,
          "velocity": 100
        },
        {
          "pitch": 79,
          "onset": 330.5,
          "duration": 0.25,
          "velocity": 100
        },
        {
          "pitch": 80,
          "onset": 330.75,
          "duration": 0.25,
          "velocity": 100
        },
        {
          "pitch": 71,
          "onset": 331.0,
          "duration": 1.0,
          "velocity": 100
        },
        {
          "pitch": 72,
          "onset": 332.0,
          "duration": 0.25,
          "velocity": 100
        },
        {
          "pitch": 75,
          "onset": 332.25,
          "duration": 0.25,
          "velocity": 100
        },
        {
          "pitch": 74,
          "onset": 332.5,
          "duration": 0.25,
          "velocity": 100
        },
        {
          "pitch": 72,
          "onset": 332.75,
          "duration": 0.25,
          "velocity": 100
        },
        {
          "pitch": 79,
          "onset": 333.0,
          "duration": 1.25,
          "velocity": 100
        },
        {
          "pitch": 83,
          "onset": 334.25,
          "duration": 0.25,
          "velocity": 100
        },
        {
          "pitch": 81,
          "onset": 334.5,
          "duration": 0.25,
          "velocity": 100
        },
        {
          "pitch": 79,
          "onset": 334.75,
          "duration": 0.25,
          "velocity": 100
        },
        {
          "pitch": 84,
          "onset": 335.0,
          "duration": 0.5,
          "velocity": 100
        },
        {
          "pitch": 72,
          "onset": 335.5,
          "duration": 0.5,
          "velocity": 100
        },
        {
          "pitch": 79,
          "onset": 336.25,
          "duration": 0.25,
          "velocity": 100
        },
        {
          "pitch": 75,
          "onset": 336.5,
          "duration": 0.25,
          "velocity": 100
        },
        {
          "pitch": 72,
          "onset": 336.75,
          "duration": 0.25,
          "velocity": 100
        },
        {
          "pitch": 71,
          "onset": 337.0,
          "duration": 0.5,
          "velocity": 100
        },
        {
          "pitch": 67,
          "onset": 337.5,
          "duration": 0.5,
          "velocity": 100
        },
        {
          "pitch": 71,
          "onset": 338.25,
          "duration": 0.25,
          "velocity": 100
        },
        {
          "pitch": 74,
          "onset": 338.5,
          "duration": 0.25,
          "velocity": 100
        },
        {
          "pitch": 79,
          "onset": 338.75,
          "duration": 0.25,
          "velocity": 100
        },
        {
          "pitch": 79,
          "onset": 339.25,
          "duration": 0.25,
          "velocity": 100
        },
        {
          "pitch": 75,
          "onset": 339.5,
          "duration": 0.25,
          "velocity": 100
        },
        {
          "pitch": 72,
          "onset": 339.75,
          "duration": 0.25,
          "velocity": 100
        },
        {
          "pitch": 80,
          "onset": 340.0,
          "duration": 0.5,
          "velocity": 100
        },
        {
          "pitch": 77,
          "onset": 340.5,
          "duration": 0.5,
          "velocity": 100
        },
        {
          "pitch": 68,
          "onset": 341.25,
          "duration": 0.25,
          "velocity": 100
        },
        {
          "pitch": 72,
          "onset": 341.5,
          "duration": 0.25,
          "velocity": 100
        },
        {
          "pitch": 77,
          "onset": 341.75,
          "duration": 0.25,
          "velocity": 100
        },
        {
          "pitch": 79,
          "onset": 342.25,
          "duration": 0.25,
          "velocity": 100
        },
        {
          "pitch": 75,
          "onset": 342.5,
          "duration": 0.25,
          "velocity": 100
        },
        {
          "pitch": 71,
          "onset": 342.75,
          "duration": 0.25,
          "velocity": 100
        },
        {
          "pitch": 72,
          "onset": 343.0,
          "duration": 0.5,
          "velocity": 100
        },
        {
          "pitch": 56,
          "onset": 343.5,
          "duration": 0.5,
          "velocity": 100
        },
        {
          "pitch": 72,
          "onset": 344.25,
          "duration": 0.25,
          "velocity": 100
        },
        {
          "pitch": 75,
          "onset": 344.5,
          "duration": 0.25,
          "velocity": 100
        },
        {
          "pitch": 80,
          "onset": 344.75,
          "duration": 0.25,
          "velocity": 100
        },
        {
          "pitch": 80,
          "onset": 345.25,
          "duration": 0.25,
          "velocity": 100
        },
        {
          "pitch": 77,
          "onset": 345.5,
          "duration": 0.25,
          "velocity": 100
        },
        {
          "pitch": 74,
          "onset": 345.75,
          "duration": 0.25,
          "velocity": 100
        },
        {
          "pitch": 71,
          "onset": 346.0,
          "duration": 0.5,
          "velocity": 100
        },
        {
          "pitch": 67,
          "onset": 346.5,
          "duration": 0.5,
          "velocity": 100
        },
        {
          "pitch": 71,
          "onset": 347.25,
          "duration": 0.25,
          "velocity": 100
        },
        {
          "pitch": 74,
          "onset": 347.5,
          "duration": 0.25,
          "velocity": 100
        },
        {
          "pitch": 79,
          "onset": 347.75,
          "duration": 0.25,
          "velocity": 100
        },
        {
          "pitch": 80,
          "onset": 348.25,
          "duration": 0.25,
          "velocity": 100
        },
        {
          "pitch": 77,
          "onset": 348.5,
          "duration": 0.25,
          "velocity": 100
        },
        {
          "pitch": 70,
          "onset": 348.75,
          "duration": 0.25,
          "velocity": 100
        },
        {
          "pitch": 79,
          "onset": 349.0,
          "duration": 0.5,
          "velocity": 100
        },
        {
          "pitch": 75,
          "onset": 349.5,
          "duration": 0.5,
          "velocity": 100
        },
        {
          "pitch": 67,
          "onset": 350.25,
          "duration": 0.25,
          "velocity": 100
        },
        {
          "pitch": 70,
          "onset": 350.5,
          "duration": 0.25,
          "velocity": 100
        },
        {
          "pitch": 75,
          "onset": 350.75,
          "duration": 0.25,
          "velocity": 100
        },
        {
          "pitch": 77,
          "onset": 351.25,
          "duration": 0.25,
          "velocity": 100
        },
        {
          "pitch": 74,
          "onset": 351.5,
          "duration": 0.25,
          "velocity": 100
        },
        {
          "pitch": 67,
          "onset": 351.75,
          "duration": 0.25,
          "velocity": 100
        },
        {
          "pitch": 75,
          "onset": 352.0,
          "duration": 0.5,
          "velocity": 100
        },
        {
          "pitch": 72,
          "onset": 352.5,
          "duration": 0.5,
          "velocity": 100
        },
        {
          "pitch": 63,
          "onset": 353.25,
          "duration": 0.25,
          "velocity": 100
        },
        {
          "pitch": 67,
          "onset": 353.5,
          "duration": 0.25,
          "velocity": 100
        },
        {
          "pitch": 72,
          "onset": 353.75,
          "duration": 0.25,
          "velocity": 100
        },
        {
          "pitch": 68,
          "onset": 354.25,
          "duration": 0.25,
          "velocity": 100
        },
        {
          "pitch": 65,
          "onset": 354.5,
          "duration": 0.25,
          "velocity": 100
        },
        {
          "pitch": 62,
          "onset": 354.75,
          "duration": 0.25,
          "velocity": 100
        },
        {
          "pitch": 63,
          "onset": 355.0,
          "duration": 0.125,
          "velocity": 100
        },
        {
          "pitch": 62,
          "onset": 355.125,
          "duration": 0.125,
          "velocity": 100
        },
        {
          "pitch": 63,
          "onset": 355.25,
          "duration": 0.25,
          "velocity": 100
        },
        {
          "pitch": 60,
          "onset": 355.5,
          "duration": 0.5,
          "velocity": 100
        },
        {
          "pitch": 60,
          "onset": 356.25,
          "duration": 0.25,
          "velocity": 100
        },
        {
          "pitch": 63,
          "onset": 356.5,
          "duration": 0.25,
          "velocity": 100
        },
        {
          "pitch": 67,
          "onset": 356.75,
          "duration": 0.25,
          "velocity": 100
        },
        {
          "pitch": 59,
          "onset": 357.0,
          "duration": 0.25,
          "velocity": 100
        },
        {
          "pitch": 62,
          "onset": 357.25,
          "duration": 0.25,
          "velocity": 100
        },
        {
          "pitch": 65,
          "onset": 357.5,
          "duration": 0.25,
          "velocity": 100
        },
        {
          "pitch": 59,
          "onset": 357.75,
          "duration": 0.25,
          "velocity": 100
        },
        {
          "pitch": 63,
          "onset": 358.0,
          "duration": 0.5,
          "velocity": 100
        },
        {
          "pitch": 51,
          "onset": 358.5,
          "duration": 0.25,
          "velocity": 100
        },
        {
          "pitch": 55,
          "onset": 358.75,
          "duration": 0.25,
          "velocity": 100
        },
        {
          "pitch": 67,
          "onset": 359.5,
          "duration": 0.25,
          "velocity": 100
        },
        {
          "pitch": 72,
          "onset": 359.75,
          "duration": 0.25,
          "velocity": 100
        },
        {
          "pitch": 79,
          "onset": 360.5,
          "duration": 0.25,
          "velocity": 100
        },
        {
          "pitch": 84,
          "onset": 360.75,
          "duration": 0.25,
          "velocity": 100
        },
        {
          "pitch": 59,
          "onset": 361.5,
          "duration": 0.25,
          "velocity": 100
        },
        {
          "pitch": 62,
          "onset": 361.75,
          "duration": 0.25,
          "velocity": 100
        },
        {
          "pitch": 74,
          "onset": 362.5,
          "duration": 0.25,
          "velocity": 100
        },
        {
          "pitch": 79,
          "onset": 362.75,
          "duration": 0.25,
          "velocity": 100
        },
        {
          "pitch": 79,
          "onset": 363.5,
          "duration": 0.25,
          "velocity": 100
        },
        {
          "pitch": 84,
          "onset": 363.75,
          "duration": 0.25,
          "velocity": 100
        },
        {
          "pitch": 56,
          "onset": 364.5,
          "duration": 0.25,
          "velocity": 100
        },
        {
          "pitch": 60,
          "onset": 364.75,
          "duration": 0.25,
          "velocity": 100
        },
        {
          "pitch": 72,
          "onset": 365.5,
          "duration": 0.25,
          "velocity": 100
        },
        {
          "pitch": 77,
          "onset": 365.75,
          "duration": 0.25,
          "velocity": 100
        },
        {
          "pitch": 79,
          "onset": 366.5,
          "duration": 0.25,
          "velocity": 100
        },
        {
          "pitch": 83,
          "onset": 366.75,
          "duration": 0.25,
          "velocity": 100
        },
        {
          "pitch": 60,
          "onset": 367.5,
          "duration": 0.25,
          "velocity": 100
        },
        {
          "pitch": 63,
          "onset": 367.75,
          "duration": 0.25,
          "velocity": 100
        },
        {
          "pitch": 75,
          "onset": 368.5,
          "duration": 0.25,
          "velocity": 100
        },
        {
          "pitch": 80,
          "onset": 368.75,
          "duration": 0.25,
          "velocity": 100
        },
        {
          "pitch": 80,
          "onset": 369.5,
          "duration": 0.25,
          "velocity": 100
        },
        {
          "pitch": 84,
          "onset": 369.75,
          "duration": 0.25,
          "velocity": 100
        },
        {
          "pitch": 59,
          "onset": 370.5,
          "duration": 0.25,
          "velocity": 100
        },
        {
          "pitch": 62,
          "onset": 370.75,
          "duration": 0.25,
          "velocity": 100
        },
        {
          "pitch": 74,
          "onset": 371.5,
          "duration": 0.25,
          "velocity": 100
        },
        {
          "pitch": 79,
          "onset": 371.75,
          "duration": 0.25,
          "velocity": 100
        },
        {
          "pitch": 77,
          "onset": 372.5,
          "duration": 0.25,
          "velocity": 100
        },
        {
          "pitch": 83,
          "onset": 372.75,
          "duration": 0.25,
          "velocity": 100
        },
        {
          "pitch": 55,
          "onset": 373.5,
          "duration": 0.25,
          "velocity": 100
        },
        {
          "pitch": 60,
          "onset": 373.75,
          "duration": 0.25,
          "velocity": 100
        },
        {
          "pitch": 72,
          "onset": 374.5,
          "duration": 0.25,
          "velocity": 100
        },
        {
          "pitch": 75,
          "onset": 374.75,
          "duration": 0.25,
          "velocity": 100
        },
        {
          "pitch": 74,
          "onset": 375.5,
          "duration": 0.25,
          "velocity": 100
        },
        {
          "pitch": 77,
          "onset": 375.75,
          "duration": 0.25,
          "velocity": 100
        },
        {
          "pitch": 51,
          "onset": 376.5,
          "duration": 0.25,
          "velocity": 100
        },
        {
          "pitch": 55,
          "onset": 376.75,
          "duration": 0.25,
          "velocity": 100
        },
        {
          "pitch": 67,
          "onset": 377.5,
          "duration": 0.25,
          "velocity": 100
        },
        {
          "pitch": 72,
          "onset": 377.75,
          "duration": 0.25,
          "velocity": 100
        },
        {
          "pitch": 68,
          "onset": 378.5,
          "duration": 0.25,
          "velocity": 100
        },
        {
          "pitch": 77,
          "onset": 378.75,
          "duration": 0.25,
          "velocity": 100
        },
        {
          "pitch": 60,
          "onset": 379.5,
          "duration": 0.25,
          "velocity": 100
        },
        {
          "pitch": 63,
          "onset": 379.75,
          "duration": 0.25,
          "velocity": 100
        },
        {
          "pitch": 75,
          "onset": 380.5,
          "duration": 0.25,
          "velocity": 100
        },
        {
          "pitch": 79,
          "onset": 380.75,
          "duration": 0.25,
          "velocity": 100
        },
        {
          "pitch": 74,
          "onset": 381.25,
          "duration": 0.25,
          "velocity": 100
        },
        {
          "pitch": 77,
          "onset": 381.5,
          "duration": 0.25,
          "velocity": 100
        },
        {
          "pitch": 83,
          "onset": 381.75,
          "duration": 0.25,
          "velocity": 100
        },
        {
          "pitch": 63,
          "onset": 382.5,
          "duration": 0.25,
          "velocity": 100
        },
        {
          "pitch": 67,
          "onset": 382.75,
          "duration": 0.25,
          "velocity": 100
        },
        {
          "pitch": 79,
          "onset": 383.5,
          "duration": 0.25,
          "velocity": 100
        },
        {
          "pitch": 84,
          "onset": 383.75,
          "duration": 0.25,
          "velocity": 100
        },
        {
          "pitch": 67,
          "onset": 384.5,
          "duration": 0.5,
          "velocity": 100
        },
        {
          "pitch": 72,
          "onset": 384.5,
          "duration": 0.5,
          "velocity": 100
        },
        {
          "pitch": 72,
          "onset": 385.25,
          "duration": 0.25,
          "velocity": 100
        },
        {
          "pitch": 74,
          "onset": 385.5,
          "duration": 2.0,
          "velocity": 100
        },
        {
          "pitch": 69,
          "onset": 385.75,
          "duration": 0.25,
          "velocity": 100
        },
        {
          "pitch": 71,
          "onset": 386.0,
          "duration": 1.5,
          "velocity": 100
        },
        {
          "pitch": 67,
          "onset": 387.5,
          "duration": 0.5,
          "velocity": 100
        },
        {
          "pitch": 72,
          "onset": 387.5,
          "duration": 0.5,
          "velocity": 100
        },
        {
          "pitch": 70,
          "onset": 388.25,
          "duration": 0.25,
          "velocity": 100
        },
        {
          "pitch": 72,
          "onset": 388.5,
          "duration": 2.0,
          "velocity": 100
        },
        {
          "pitch": 67,
          "onset": 388.75,
          "duration": 0.25,
          "velocity": 100
        },
        {
          "pitch": 68,
          "onset": 389.0,
          "duration": 1.0,
          "velocity": 100
        },
        {
          "pitch": 67,
          "onset": 390.0,
          "duration": 0.5,
          "velocity": 100
        },
        {
          "pitch": 65,
          "onset": 390.5,
          "duration": 0.5,
          "velocity": 100
        },
        {
          "pitch": 71,
          "onset": 390.5,
          "duration": 0.5,
          "velocity": 100
        },
        {
          "pitch": 74,
          "onset": 391.25,
          "duration": 0.25,
          "velocity": 100
        },
        {
          "pitch": 75,
          "onset": 391.5,
          "duration": 2.0,
          "velocity": 100
        },
        {
          "pitch": 71,
          "onset": 391.75,
          "duration": 0.25,
          "velocity": 100
        },
        {
          "pitch": 72,
          "onset": 392.0,
          "duration": 1.5,
          "velocity": 100
        },
        {
          "pitch": 72,
          "onset": 393.5,
          "duration": 0.5,
          "velocity": 100
        },
        {
          "pitch": 74,
          "onset": 393.5,
          "duration": 0.5,
          "velocity": 100
        },
        {
          "pitch": 72,
          "onset": 394.25,
          "duration": 0.25,
          "velocity": 100
        },
        {
          "pitch": 74,
          "onset": 394.5,
          "duration": 2.0,
          "velocity": 100
        },
        {
          "pitch": 69,
          "onset": 394.75,
          "duration": 0.25,
          "velocity": 100
        },
        {
          "pitch": 71,
          "onset": 395.0,
          "duration": 1.5,
          "velocity": 100
        },
        {
          "pitch": 71,
          "onset": 396.5,
          "duration": 0.5,
          "velocity": 100
        },
        {
          "pitch": 77,
          "onset": 396.5,
          "duration": 0.5,
          "velocity": 100
        },
        {
          "pitch": 78,
          "onset": 397.25,
          "duration": 0.25,
          "velocity": 100
        },
        {
          "pitch": 79,
          "onset": 397.5,
          "duration": 2.0,
          "velocity": 100
        },
        {
          "pitch": 74,
          "onset": 397.75,
          "duration": 0.25,
          "velocity": 100
        },
        {
          "pitch": 75,
          "onset": 398.0,
          "duration": 1.0,
          "velocity": 100
        },
        {
          "pitch": 74,
          "onset": 399.0,
          "duration": 0.5,
          "velocity": 100
        },
        {
          "pitch": 74,
          "onset": 399.5,
          "duration": 0.5,
          "velocity": 100
        },
        {
          "pitch": 77,
          "onset": 399.5,
          "duration": 0.5,
          "velocity": 100
        },
        {
          "pitch": 77,
          "onset": 400.25,
          "duration": 0.25,
          "velocity": 100
        },
        {
          "pitch": 79,
          "onset": 400.5,
          "duration": 2.0,
          "velocity": 100
        },
        {
          "pitch": 74,
          "onset": 400.75,
          "duration": 0.25,
          "velocity": 100
        },
        {
          "pitch": 75,
          "onset": 401.0,
          "duration": 1.5,
          "velocity": 100
        },
        {
          "pitch": 74,
          "onset": 402.5,
          "duration": 0.5,
          "velocity": 100
        },
        {
          "pitch": 77,
          "onset": 402.5,
          "duration": 0.5,
          "velocity": 100
        },
        {
          "pitch": 77,
          "onset": 403.25,
          "duration": 0.25,
          "velocity": 100
        },
        {
          "pitch": 79,
          "onset": 403.5,
          "duration": 2.0,
          "velocity": 100
        },
        {
          "pitch": 74,
          "onset": 403.75,
          "duration": 0.25,
          "velocity": 100
        },
        {
          "pitch": 75,
          "onset": 404.0,
          "duration": 1.0,
          "velocity": 100
        },
        {
          "pitch": 74,
          "onset": 405.0,
          "duration": 0.5,
          "velocity": 100
        },
        {
          "pitch": 74,
          "onset": 405.5,
          "duration": 0.5,
          "velocity": 100
        },
        {
          "pitch": 77,
          "onset": 405.5,
          "duration": 0.5,
          "velocity": 100
        },
        {
          "pitch": 77,
          "onset": 406.25,
          "duration": 0.25,
          "velocity": 100
        },
        {
          "pitch": 79,
          "onset": 406.5,
          "duration": 1.6562,
          "velocity": 100
        },
        {
          "pitch": 74,
          "onset": 406.75,
          "duration": 0.25,
          "velocity": 100
        },
        {
          "pitch": 77,
          "onset": 408.1562,
          "duration": 0.1562,
          "velocity": 100
        },
        {
          "pitch": 75,
          "onset": 408.3438,
          "duration": 0.1562,
          "velocity": 100
        },
        {
          "pitch": 75,
          "onset": 408.5,
          "duration": 0.1562,
          "velocity": 100
        },
        {
          "pitch": 74,
          "onset": 408.6562,
          "duration": 0.1562,
          "velocity": 100
        },
        {
          "pitch": 72,
          "onset": 408.8438,
          "duration": 0.1562,
          "velocity": 100
        },
        {
          "pitch": 72,
          "onset": 409.0,
          "duration": 0.1562,
          "velocity": 100
        },
        {
          "pitch": 71,
          "onset": 409.1562,
          "duration": 0.1562,
          "velocity": 100
        },
        {
          "pitch": 69,
          "onset": 409.3438,
          "duration": 0.1562,
          "velocity": 100
        },
        {
          "pitch": 69,
          "onset": 409.5,
          "duration": 0.1562,
          "velocity": 100
        },
        {
          "pitch": 71,
          "onset": 409.6562,
          "duration": 0.1562,
          "velocity": 100
        },
        {
          "pitch": 72,
          "onset": 409.8438,
          "duration": 0.1562,
          "velocity": 100
        },
        {
          "pitch": 71,
          "onset": 410.0,
          "duration": 0.1562,
          "velocity": 100
        },
        {
          "pitch": 72,
          "onset": 410.1562,
          "duration": 0.1562,
          "velocity": 100
        },
        {
          "pitch": 74,
          "onset": 410.3438,
          "duration": 0.1562,
          "velocity": 100
        },
        {
          "pitch": 74,
          "onset": 410.5,
          "duration": 0.1562,
          "velocity": 100
        },
        {
          "pitch": 75,
          "onset": 410.6562,
          "duration": 0.1562,
          "velocity": 100
        },
        {
          "pitch": 77,
          "onset": 410.8438,
          "duration": 0.1562,
          "velocity": 100
        },
        {
          "pitch": 75,
          "onset": 411.0,
          "duration": 0.1562,
          "velocity": 100
        },
        {
          "pitch": 77,
          "onset": 411.1562,
          "duration": 0.1562,
          "velocity": 100
        },
        {
          "pitch": 79,
          "onset": 411.3438,
          "duration": 0.1562,
          "velocity": 100
        },
        {
          "pitch": 79,
          "onset": 411.5,
          "duration": 0.1562,
          "velocity": 100
        },
        {
          "pitch": 80,
          "onset": 411.6562,
          "duration": 0.1562,
          "velocity": 100
        },
        {
          "pitch": 82,
          "onset": 411.8438,
          "duration": 0.1562,
          "velocity": 100
        },
        {
          "pitch": 80,
          "onset": 412.0,
          "duration": 0.1562,
          "velocity": 100
        },
        {
          "pitch": 79,
          "onset": 412.1562,
          "duration": 0.1562,
          "velocity": 100
        },
        {
          "pitch": 77,
          "onset": 412.3438,
          "duration": 0.1562,
          "velocity": 100
        },
        {
          "pitch": 77,
          "onset": 412.5,
          "duration": 0.1562,
          "velocity": 100
        },
        {
          "pitch": 75,
          "onset": 412.6562,
          "duration": 0.1562,
          "velocity": 100
        },
        {
          "pitch": 74,
          "onset": 412.8438,
          "duration": 0.1562,
          "velocity": 100
        },
        {
          "pitch": 74,
          "onset": 413.0,
          "duration": 0.1562,
          "velocity": 100
        },
        {
          "pitch": 75,
          "onset": 413.1562,
          "duration": 0.1562,
          "velocity": 100
        },
        {
          "pitch": 77,
          "onset": 413.3438,
          "duration": 0.1562,
          "velocity": 100
        },
        {
          "pitch": 77,
          "onset": 413.5,
          "duration": 0.1562,
          "velocity": 100
        },
        {
          "pitch": 79,
          "onset": 413.6562,
          "duration": 0.1562,
          "velocity": 100
        },
        {
          "pitch": 80,
          "onset": 413.8438,
          "duration": 0.1562,
          "velocity": 100
        },
        {
          "pitch": 71,
          "onset": 414.0,
          "duration": 0.1562,
          "velocity": 100
        },
        {
          "pitch": 72,
          "onset": 414.1562,
          "duration": 0.1562,
          "velocity": 100
        },
        {
          "pitch": 71,
          "onset": 414.3438,
          "duration": 0.6562,
          "velocity": 100
        },
        {
          "pitch": 84,
          "onset": 415.0,
          "duration": 0.1562,
          "velocity": 100
        },
        {
          "pitch": 82,
          "onset": 415.1562,
          "duration": 0.1562,
          "velocity": 100
        },
        {
          "pitch": 80,
          "onset": 415.3438,
          "duration": 0.1562,
          "velocity": 100
        },
        {
          "pitch": 80,
          "onset": 415.5,
          "duration": 0.1562,
          "velocity": 100
        },
        {
          "pitch": 79,
          "onset": 415.6562,
          "duration": 0.1562,
          "velocity": 100
        },
        {
          "pitch": 77,
          "onset": 415.8438,
          "duration": 0.1562,
          "velocity": 100
        },
        {
          "pitch": 77,
          "onset": 416.0,
          "duration": 0.1562,
          "velocity": 100
        },
        {
          "pitch": 75,
          "onset": 416.1562,
          "duration": 0.1562,
          "velocity": 100
        },
        {
          "pitch": 74,
          "onset": 416.3438,
          "duration": 0.1562,
          "velocity": 100
        },
        {
          "pitch": 74,
          "onset": 416.5,
          "duration": 0.1562,
          "velocity": 100
        },
        {
          "pitch": 75,
          "onset": 416.6562,
          "duration": 0.1562,
          "velocity": 100
        },
        {
          "pitch": 77,
          "onset": 416.8438,
          "duration": 0.1562,
          "velocity": 100
        },
        {
          "pitch": 77,
          "onset": 417.0,
          "duration": 0.1562,
          "velocity": 100
        },
        {
          "pitch": 79,
          "onset": 417.1562,
          "duration": 0.1562,
          "velocity": 100
        },
        {
          "pitch": 81,
          "onset": 417.3438,
          "duration": 0.1562,
          "velocity": 100
        },
        {
          "pitch": 81,
          "onset": 417.5,
          "duration": 0.1562,
          "velocity": 100
        },
        {
          "pitch": 83,
          "onset": 417.6562,
          "duration": 0.1562,
          "velocity": 100
        },
        {
          "pitch": 84,
          "onset": 417.8438,
          "duration": 0.1562,
          "velocity": 100
        },
        {
          "pitch": 83,
          "onset": 418.0,
          "duration": 0.75,
          "velocity": 100
        },
        {
          "pitch": 81,
          "onset": 418.75,
          "duration": 0.25,
          "velocity": 100
        },
        {
          "pitch": 83,
          "onset": 419.0,
          "duration": 0.5,
          "velocity": 100
        },
        {
          "pitch": 79,
          "onset": 421.0,
          "duration": 1.0,
          "velocity": 100
        },
        {
          "pitch": 84,
          "onset": 425.5,
          "duration": 0.1562,
          "velocity": 100
        },
        {
          "pitch": 82,
          "onset": 425.6562,
          "duration": 0.1562,
          "velocity": 100
        },
        {
          "pitch": 80,
          "onset": 425.8438,
          "duration": 0.1562,
          "velocity": 100
        },
        {
          "pitch": 80,
          "onset": 426.0,
          "duration": 0.1562,
          "velocity": 100
        },
        {
          "pitch": 79,
          "onset": 426.1562,
          "duration": 0.1562,
          "velocity": 100
        },
        {
          "pitch": 77,
          "onset": 426.3438,
          "duration": 0.1562,
          "velocity": 100
        },
        {
          "pitch": 77,
          "onset": 426.5,
          "duration": 0.1562,
          "velocity": 100
        },
        {
          "pitch": 75,
          "onset": 426.6562,
          "duration": 0.1562,
          "velocity": 100
        },
        {
          "pitch": 74,
          "onset": 426.8438,
          "duration": 0.1562,
          "velocity": 100
        },
        {
          "pitch": 74,
          "onset": 427.0,
          "duration": 0.1562,
          "velocity": 100
        },
        {
          "pitch": 72,
          "onset": 427.1562,
          "duration": 0.1562,
          "velocity": 100
        },
        {
          "pitch": 71,
          "onset": 427.3438,
          "duration": 0.1562,
          "velocity": 100
        },
        {
          "pitch": 71,
          "onset": 427.5,
          "duration": 0.1562,
          "velocity": 100
        },
        {
          "pitch": 72,
          "onset": 427.6562,
          "duration": 0.1562,
          "velocity": 100
        },
        {
          "pitch": 74,
          "onset": 427.8438,
          "duration": 0.1562,
          "velocity": 100
        },
        {
          "pitch": 74,
          "onset": 428.0,
          "duration": 0.1562,
          "velocity": 100
        },
        {
          "pitch": 75,
          "onset": 428.1562,
          "duration": 0.1562,
          "velocity": 100
        },
        {
          "pitch": 77,
          "onset": 428.3438,
          "duration": 0.1562,
          "velocity": 100
        },
        {
          "pitch": 77,
          "onset": 428.5,
          "duration": 0.1562,
          "velocity": 100
        },
        {
          "pitch": 79,
          "onset": 428.6562,
          "duration": 0.1562,
          "velocity": 100
        },
        {
          "pitch": 80,
          "onset": 428.8438,
          "duration": 0.1562,
          "velocity": 100
        },
        {
          "pitch": 71,
          "onset": 429.0,
          "duration": 0.125,
          "velocity": 100
        },
        {
          "pitch": 72,
          "onset": 429.125,
          "duration": 0.125,
          "velocity": 100
        },
        {
          "pitch": 71,
          "onset": 429.25,
          "duration": 0.5,
          "velocity": 100
        },
        {
          "pitch": 72,
          "onset": 429.75,
          "duration": 0.25,
          "velocity": 100
        },
        {
          "pitch": 72,
          "onset": 430.0,
          "duration": 0.5,
          "velocity": 100
        },
        {
          "pitch": 67,
          "onset": 430.5,
          "duration": 0.1562,
          "velocity": 100
        },
        {
          "pitch": 65,
          "onset": 430.6562,
          "duration": 0.1562,
          "velocity": 100
        },
        {
          "pitch": 63,
          "onset": 430.8438,
          "duration": 0.1562,
          "velocity": 100
        },
        {
          "pitch": 63,
          "onset": 431.0,
          "duration": 0.1562,
          "velocity": 100
        },
        {
          "pitch": 62,
          "onset": 431.1562,
          "duration": 0.1562,
          "velocity": 100
        },
        {
          "pitch": 60,
          "onset": 431.3438,
          "duration": 0.1562,
          "velocity": 100
        },
        {
          "pitch": 60,
          "onset": 431.5,
          "duration": 0.5,
          "velocity": 100
        },
        {
          "pitch": 72,
          "onset": 432.0,
          "duration": 1.5,
          "velocity": 100
        },
        {
          "pitch": 71,
          "onset": 433.5,
          "duration": 0.25,
          "velocity": 100
        },
        {
          "pitch": 69,
          "onset": 433.75,
          "duration": 0.25,
          "velocity": 100
        },
        {
          "pitch": 71,
          "onset": 434.0,
          "duration": 0.5,
          "velocity": 100
        },
        {
          "pitch": 72,
          "onset": 434.5,
          "duration": 0.25,
          "velocity": 100
        },
        {
          "pitch": 74,
          "onset": 434.75,
          "duration": 0.25,
          "velocity": 100
        },
        {
          "pitch": 75,
          "onset": 435.0,
          "duration": 1.5,
          "velocity": 100
        },
        {
          "pitch": 74,
          "onset": 436.5,
          "duration": 0.25,
          "velocity": 100
        },
        {
          "pitch": 72,
          "onset": 436.75,
          "duration": 0.25,
          "velocity": 100
        },
        {
          "pitch": 74,
          "onset": 437.0,
          "duration": 0.5,
          "velocity": 100
        },
        {
          "pitch": 75,
          "onset": 437.5,
          "duration": 0.25,
          "velocity": 100
        },
        {
          "pitch": 77,
          "onset": 437.75,
          "duration": 0.25,
          "velocity": 100
        },
        {
          "pitch": 71,
          "onset": 438.0,
          "duration": 1.5,
          "velocity": 100
        },
        {
          "pitch": 72,
          "onset": 439.5,
          "duration": 0.25,
          "velocity": 100
        },
        {
          "pitch": 71,
          "onset": 439.75,
          "duration": 0.25,
          "velocity": 100
        },
        {
          "pitch": 72,
          "onset": 440.0,
          "duration": 0.5,
          "velocity": 100
        },
        {
          "pitch": 74,
          "onset": 440.5,
          "duration": 0.25,
          "velocity": 100
        },
        {
          "pitch": 75,
          "onset": 440.75,
          "duration": 0.25,
          "velocity": 100
        },
        {
          "pitch": 77,
          "onset": 441.0,
          "duration": 1.5,
          "velocity": 100
        },
        {
          "pitch": 75,
          "onset": 442.5,
          "duration": 0.25,
          "velocity": 100
        },
        {
          "pitch": 74,
          "onset": 442.75,
          "duration": 0.25,
          "velocity": 100
        },
        {
          "pitch": 75,
          "onset": 443.0,
          "duration": 0.5,
          "velocity": 100
        },
        {
          "pitch": 77,
          "onset": 443.5,
          "duration": 0.25,
          "velocity": 100
        },
        {
          "pitch": 79,
          "onset": 443.75,
          "duration": 0.25,
          "velocity": 100
        },
        {
          "pitch": 74,
          "onset": 444.0,
          "duration": 1.5,
          "velocity": 100
        },
        {
          "pitch": 72,
          "onset": 445.5,
          "duration": 0.25,
          "velocity": 100
        },
        {
          "pitch": 71,
          "onset": 445.75,
          "duration": 0.25,
          "velocity": 100
        },
        {
          "pitch": 72,
          "onset": 446.0,
          "duration": 0.5,
          "velocity": 100
        },
        {
          "pitch": 74,
          "onset": 446.5,
          "duration": 0.25,
          "velocity": 100
        },
        {
          "pitch": 75,
          "onset": 446.75,
          "duration": 0.25,
          "velocity": 100
        },
        {
          "pitch": 77,
          "onset": 447.0,
          "duration": 1.5,
          "velocity": 100
        },
        {
          "pitch": 75,
          "onset": 448.5,
          "duration": 0.25,
          "velocity": 100
        },
        {
          "pitch": 74,
          "onset": 448.75,
          "duration": 0.25,
          "velocity": 100
        },
        {
          "pitch": 75,
          "onset": 449.0,
          "duration": 0.5,
          "velocity": 100
        },
        {
          "pitch": 77,
          "onset": 449.5,
          "duration": 0.25,
          "velocity": 100
        },
        {
          "pitch": 79,
          "onset": 449.75,
          "duration": 0.25,
          "velocity": 100
        },
        {
          "pitch": 80,
          "onset": 450.0,
          "duration": 1.5,
          "velocity": 100
        },
        {
          "pitch": 79,
          "onset": 451.5,
          "duration": 0.25,
          "velocity": 100
        },
        {
          "pitch": 77,
          "onset": 451.75,
          "duration": 0.25,
          "velocity": 100
        },
        {
          "pitch": 79,
          "onset": 452.0,
          "duration": 0.5,
          "velocity": 100
        },
        {
          "pitch": 77,
          "onset": 452.5,
          "duration": 0.25,
          "velocity": 100
        },
        {
          "pitch": 75,
          "onset": 452.75,
          "duration": 0.25,
          "velocity": 100
        },
        {
          "pitch": 75,
          "onset": 453.0,
          "duration": 0.5,
          "velocity": 100
        },
        {
          "pitch": 74,
          "onset": 453.5,
          "duration": 0.25,
          "velocity": 100
        },
        {
          "pitch": 72,
          "onset": 453.75,
          "duration": 0.25,
          "velocity": 100
        },
        {
          "pitch": 72,
          "onset": 454.0,
          "duration": 1.5,
          "velocity": 100
        },
        {
          "pitch": 84,
          "onset": 455.5,
          "duration": 0.25,
          "velocity": 100
        },
        {
          "pitch": 83,
          "onset": 455.75,
          "duration": 0.25,
          "velocity": 100
        },
        {
          "pitch": 84,
          "onset": 456.0,
          "duration": 0.5,
          "velocity": 100
        },
        {
          "pitch": 72,
          "onset": 456.5,
          "duration": 1.75,
          "velocity": 100
        },
        {
          "pitch": 74,
          "onset": 458.25,
          "duration": 0.25,
          "velocity": 100
        },
        {
          "pitch": 72,
          "onset": 458.5,
          "duration": 0.25,
          "velocity": 100
        },
        {
          "pitch": 71,
          "onset": 458.75,
          "duration": 0.25,
          "velocity": 100
        },
        {
          "pitch": 72,
          "onset": 459.0,
          "duration": 1.25,
          "velocity": 100
        },
        {
          "pitch": 74,
          "onset": 460.25,
          "duration": 0.25,
          "velocity": 100
        },
        {
          "pitch": 72,
          "onset": 460.5,
          "duration": 0.25,
          "velocity": 100
        },
        {
          "pitch": 71,
          "onset": 460.75,
          "duration": 0.25,
          "velocity": 100
        },
        {
          "pitch": 72,
          "onset": 461.0,
          "duration": 1.25,
          "velocity": 100
        },
        {
          "pitch": 74,
          "onset": 462.25,
          "duration": 0.25,
          "velocity": 100
        },
        {
          "pitch": 72,
          "onset": 462.5,
          "duration": 0.25,
          "velocity": 100
        },
        {
          "pitch": 71,
          "onset": 462.75,
          "duration": 0.25,
          "velocity": 100
        },
        {
          "pitch": 72,
          "onset": 463.0,
          "duration": 1.25,
          "velocity": 100
        },
        {
          "pitch": 74,
          "onset": 464.25,
          "duration": 0.25,
          "velocity": 100
        },
        {
          "pitch": 72,
          "onset": 464.5,
          "duration": 0.25,
          "velocity": 100
        },
        {
          "pitch": 71,
          "onset": 464.75,
          "duration": 0.25,
          "velocity": 100
        },
        {
          "pitch": 72,
          "onset": 465.0,
          "duration": 1.25,
          "velocity": 100
        },
        {
          "pitch": 74,
          "onset": 466.25,
          "duration": 0.25,
          "velocity": 100
        },
        {
          "pitch": 72,
          "onset": 466.5,
          "duration": 0.25,
          "velocity": 100
        },
        {
          "pitch": 71,
          "onset": 466.75,
          "duration": 0.25,
          "velocity": 100
        },
        {
          "pitch": 72,
          "onset": 467.0,
          "duration": 0.5,
          "velocity": 100
        },
        {
          "pitch": 71,
          "onset": 467.5,
          "duration": 0.25,
          "velocity": 100
        },
        {
          "pitch": 69,
          "onset": 467.75,
          "duration": 0.25,
          "velocity": 100
        },
        {
          "pitch": 71,
          "onset": 468.0,
          "duration": 1.25,
          "velocity": 100
        },
        {
          "pitch": 74,
          "onset": 469.25,
          "duration": 0.25,
          "velocity": 100
        },
        {
          "pitch": 72,
          "onset": 469.5,
          "duration": 0.25,
          "velocity": 100
        },
        {
          "pitch": 71,
          "onset": 469.75,
          "duration": 0.25,
          "velocity": 100
        },
        {
          "pitch": 72,
          "onset": 470.0,
          "duration": 0.75,
          "velocity": 100
        },
        {
          "pitch": 75,
          "onset": 470.75,
          "duration": 0.25,
          "velocity": 100
        },
        {
          "pitch": 74,
          "onset": 471.0,
          "duration": 0.25,
          "velocity": 100
        },
        {
          "pitch": 77,
          "onset": 471.25,
          "duration": 0.25,
          "velocity": 100
        },
        {
          "pitch": 75,
          "onset": 471.5,
          "duration": 0.25,
          "velocity": 100
        },
        {
          "pitch": 74,
          "onset": 471.75,
          "duration": 0.25,
          "velocity": 100
        },
        {
          "pitch": 75,
          "onset": 472.0,
          "duration": 1.25,
          "velocity": 100
        },
        {
          "pitch": 79,
          "onset": 473.25,
          "duration": 0.25,
          "velocity": 100
        },
        {
          "pitch": 77,
          "onset": 473.5,
          "duration": 0.25,
          "velocity": 100
        },
        {
          "pitch": 75,
          "onset": 473.75,
          "duration": 0.25,
          "velocity": 100
        },
        {
          "pitch": 80,
          "onset": 474.0,
          "duration": 1.0,
          "velocity": 100
        },
        {
          "pitch": 74,
          "onset": 475.0,
          "duration": 1.25,
          "velocity": 100
        },
        {
          "pitch": 75,
          "onset": 476.25,
          "duration": 0.25,
          "velocity": 100
        },
        {
          "pitch": 74,
          "onset": 476.5,
          "duration": 0.25,
          "velocity": 100
        },
        {
          "pitch": 72,
          "onset": 476.75,
          "duration": 0.5,
          "velocity": 100
        },
        {
          "pitch": 74,
          "onset": 477.25,
          "duration": 0.25,
          "velocity": 100
        },
        {
          "pitch": 72,
          "onset": 477.5,
          "duration": 0.25,
          "velocity": 100
        },
        {
          "pitch": 71,
          "onset": 477.75,
          "duration": 0.25,
          "velocity": 100
        },
        {
          "pitch": 72,
          "onset": 478.0,
          "duration": 1.0,
          "velocity": 100
        },
        {
          "pitch": 75,
          "onset": 480.5,
          "duration": 0.75,
          "velocity": 110
        },
        {
          "pitch": 77,
          "onset": 481.25,
          "duration": 0.25,
          "velocity": 110
        },
        {
          "pitch": 75,
          "onset": 481.5,
          "duration": 0.25,
          "velocity": 110
        },
        {
          "pitch": 74,
          "onset": 481.75,
          "duration": 0.25,
          "velocity": 110
        },
        {
          "pitch": 75,
          "onset": 482.0,
          "duration": 1.25,
          "velocity": 110
        },
        {
          "pitch": 77,
          "onset": 483.25,
          "duration": 0.25,
          "velocity": 110
        },
        {
          "pitch": 75,
          "onset": 483.5,
          "duration": 0.25,
          "velocity": 110
        },
        {
          "pitch": 74,
          "onset": 483.75,
          "duration": 0.25,
          "velocity": 110
        },
        {
          "pitch": 75,
          "onset": 484.0,
          "duration": 1.25,
          "velocity": 110
        },
        {
          "pitch": 77,
          "onset": 485.25,
          "duration": 0.25,
          "velocity": 110
        },
        {
          "pitch": 75,
          "onset": 485.5,
          "duration": 0.25,
          "velocity": 110
        },
        {
          "pitch": 74,
          "onset": 485.75,
          "duration": 0.25,
          "velocity": 110
        },
        {
          "pitch": 75,
          "onset": 486.0,
          "duration": 1.25,
          "velocity": 110
        },
        {
          "pitch": 77,
          "onset": 487.25,
          "duration": 0.25,
          "velocity": 110
        },
        {
          "pitch": 75,
          "onset": 487.5,
          "duration": 0.25,
          "velocity": 110
        },
        {
          "pitch": 74,
          "onset": 487.75,
          "duration": 0.25,
          "velocity": 110
        },
        {
          "pitch": 75,
          "onset": 488.0,
          "duration": 1.25,
          "velocity": 110
        },
        {
          "pitch": 77,
          "onset": 489.25,
          "duration": 0.25,
          "velocity": 110
        },
        {
          "pitch": 75,
          "onset": 489.5,
          "duration": 0.25,
          "velocity": 110
        },
        {
          "pitch": 74,
          "onset": 489.75,
          "duration": 0.25,
          "velocity": 110
        },
        {
          "pitch": 75,
          "onset": 490.0,
          "duration": 1.25,
          "velocity": 110
        },
        {
          "pitch": 79,
          "onset": 491.25,
          "duration": 0.25,
          "velocity": 110
        },
        {
          "pitch": 77,
          "onset": 491.5,
          "duration": 0.25,
          "velocity": 110
        },
        {
          "pitch": 75,
          "onset": 491.75,
          "duration": 0.25,
          "velocity": 110
        },
        {
          "pitch": 74,
          "onset": 492.0,
          "duration": 0.5,
          "velocity": 110
        },
        {
          "pitch": 80,
          "onset": 492.5,
          "duration": 0.5,
          "velocity": 110
        },
        {
          "pitch": 79,
          "onset": 493.0,
          "duration": 1.25,
          "velocity": 110
        },
        {
          "pitch": 80,
          "onset": 494.25,
          "duration": 0.25,
          "velocity": 110
        },
        {
          "pitch": 79,
          "onset": 494.5,
          "duration": 0.25,
          "velocity": 110
        },
        {
          "pitch": 77,
          "onset": 494.75,
          "duration": 0.25,
          "velocity": 110
        },
        {
          "pitch": 79,
          "onset": 495.0,
          "duration": 1.25,
          "velocity": 110
        },
        {
          "pitch": 80,
          "onset": 496.25,
          "duration": 0.25,
          "velocity": 110
        },
        {
          "pitch": 79,
          "onset": 496.5,
          "duration": 0.25,
          "velocity": 110
        },
        {
          "pitch": 77,
          "onset": 496.75,
          "duration": 0.25,
          "velocity": 110
        },
        {
          "pitch": 75,
          "onset": 497.0,
          "duration": 1.25,
          "velocity": 110
        },
        {
          "pitch": 77,
          "onset": 498.25,
          "duration": 0.25,
          "velocity": 110
        },
        {
          "pitch": 75,
          "onset": 498.5,
          "duration": 0.25,
          "velocity": 110
        },
        {
          "pitch": 74,
          "onset": 498.75,
          "duration": 0.25,
          "velocity": 110
        },
        {
          "pitch": 75,
          "onset": 499.0,
          "duration": 1.25,
          "velocity": 110
        },
        {
          "pitch": 77,
          "onset": 500.25,
          "duration": 0.25,
          "velocity": 110
        },
        {
          "pitch": 75,
          "onset": 500.5,
          "duration": 0.25,
          "velocity": 110
        },
        {
          "pitch": 74,
          "onset": 500.75,
          "duration": 0.25,
          "velocity": 110
        },
        {
          "pitch": 75,
          "onset": 501.0,
          "duration": 0.25,
          "velocity": 110
        },
        {
          "pitch": 77,
          "onset": 501.25,
          "duration": 0.25,
          "velocity": 110
        },
        {
          "pitch": 75,
          "onset": 501.5,
          "duration": 0.25,
          "velocity": 110
        },
        {
          "pitch": 74,
          "onset": 501.75,
          "duration": 0.25,
          "velocity": 110
        },
        {
          "pitch": 72,
          "onset": 502.0,
          "duration": 0.25,
          "velocity": 110
        },
        {
          "pitch": 74,
          "onset": 502.25,
          "duration": 0.25,
          "velocity": 110
        },
        {
          "pitch": 72,
          "onset": 502.5,
          "duration": 0.25,
          "velocity": 110
        },
        {
          "pitch": 71,
          "onset": 502.75,
          "duration": 0.25,
          "velocity": 110
        },
        {
          "pitch": 72,
          "onset": 503.0,
          "duration": 0.25,
          "velocity": 110
        },
        {
          "pitch": 71,
          "onset": 503.25,
          "duration": 0.25,
          "velocity": 110
        },
        {
          "pitch": 72,
          "onset": 503.5,
          "duration": 0.25,
          "velocity": 110
        },
        {
          "pitch": 71,
          "onset": 503.75,
          "duration": 0.25,
          "velocity": 110
        },
        {
          "pitch": 74,
          "onset": 503.75,
          "duration": 0.25,
          "velocity": 110
        },
        {
          "pitch": 72,
          "onset": 504.0,
          "duration": 1.0,
          "velocity": 110
        },
        {
          "pitch": 75,
          "onset": 504.0,
          "duration": 1.0,
          "velocity": 110
        },
        {
          "pitch": 67,
          "onset": 519.0,
          "duration": 1.0,
          "velocity": 100
        },
        {
          "pitch": 74,
          "onset": 520.0,
          "duration": 2.0,
          "velocity": 100
        },
        {
          "pitch": 70,
          "onset": 522.0,
          "duration": 1.0,
          "velocity": 100
        },
        {
          "pitch": 72,
          "onset": 523.0,
          "duration": 2.0,
          "velocity": 100
        },
        {
          "pitch": 74,
          "onset": 525.0,
          "duration": 1.0,
          "velocity": 100
        },
        {
          "pitch": 75,
          "onset": 526.0,
          "duration": 2.0,
          "velocity": 100
        },
        {
          "pitch": 72,
          "onset": 528.0,
          "duration": 1.0,
          "velocity": 100
        },
        {
          "pitch": 74,
          "onset": 529.0,
          "duration": 2.0,
          "velocity": 100
        },
        {
          "pitch": 79,
          "onset": 531.25,
          "duration": 0.25,
          "velocity": 100
        },
        {
          "pitch": 77,
          "onset": 531.5,
          "duration": 0.25,
          "velocity": 100
        },
        {
          "pitch": 79,
          "onset": 531.75,
          "duration": 0.25,
          "velocity": 100
        },
        {
          "pitch": 75,
          "onset": 532.0,
          "duration": 1.0,
          "velocity": 100
        },
        {
          "pitch": 74,
          "onset": 533.25,
          "duration": 0.25,
          "velocity": 100
        },
        {
          "pitch": 72,
          "onset": 533.5,
          "duration": 0.25,
          "velocity": 100
        },
        {
          "pitch": 74,
          "onset": 533.75,
          "duration": 0.25,
          "velocity": 100
        },
        {
          "pitch": 71,
          "onset": 534.0,
          "duration": 1.0,
          "velocity": 100
        },
        {
          "pitch": 72,
          "onset": 535.25,
          "duration": 0.25,
          "velocity": 100
        },
        {
          "pitch": 70,
          "onset": 535.5,
          "duration": 0.25,
          "velocity": 100
        },
        {
          "pitch": 72,
          "onset": 535.75,
          "duration": 0.25,
          "velocity": 100
        },
        {
          "pitch": 68,
          "onset": 536.0,
          "duration": 0.25,
          "velocity": 100
        },
        {
          "pitch": 72,
          "onset": 536.25,
          "duration": 0.25,
          "velocity": 100
        },
        {
          "pitch": 70,
          "onset": 536.5,
          "duration": 0.25,
          "velocity": 100
        },
        {
          "pitch": 72,
          "onset": 536.75,
          "duration": 0.25,
          "velocity": 100
        },
        {
          "pitch": 65,
          "onset": 537.0,
          "duration": 0.25,
          "velocity": 100
        },
        {
          "pitch": 77,
          "onset": 537.25,
          "duration": 0.25,
          "velocity": 100
        },
        {
          "pitch": 75,
          "onset": 537.5,
          "duration": 0.25,
          "velocity": 100
        },
        {
          "pitch": 77,
          "onset": 537.75,
          "duration": 0.25,
          "velocity": 100
        },
        {
          "pitch": 71,
          "onset": 538.0,
          "duration": 0.25,
          "velocity": 100
        },
        {
          "pitch": 74,
          "onset": 538.25,
          "duration": 0.25,
          "velocity": 100
        },
        {
          "pitch": 72,
          "onset": 538.5,
          "duration": 0.25,
          "velocity": 100
        },
        {
          "pitch": 74,
          "onset": 538.75,
          "duration": 0.25,
          "velocity": 100
        },
        {
          "pitch": 67,
          "onset": 539.0,
          "duration": 0.25,
          "velocity": 100
        },
        {
          "pitch": 79,
          "onset": 539.25,
          "duration": 0.25,
          "velocity": 100
        },
        {
          "pitch": 77,
          "onset": 539.5,
          "duration": 0.25,
          "velocity": 100
        },
        {
          "pitch": 79,
          "onset": 539.75,
          "duration": 0.25,
          "velocity": 100
        },
        {
          "pitch": 75,
          "onset": 540.0,
          "duration": 1.0,
          "velocity": 100
        },
        {
          "pitch": 75,
          "onset": 541.5,
          "duration": 0.5,
          "velocity": 100
        },
        {
          "pitch": 71,
          "onset": 542.0,
          "duration": 0.5,
          "velocity": 100
        },
        {
          "pitch": 71,
          "onset": 542.5,
          "duration": 0.5,
          "velocity": 100
        },
        {
          "pitch": 72,
          "onset": 543.0,
          "duration": 0.5,
          "velocity": 100
        },
        {
          "pitch": 72,
          "onset": 543.5,
          "duration": 0.5,
          "velocity": 100
        },
        {
          "pitch": 80,
          "onset": 544.5,
          "duration": 0.5,
          "velocity": 100
        },
        {
          "pitch": 74,
          "onset": 545.0,
          "duration": 0.5,
          "velocity": 100
        },
        {
          "pitch": 74,
          "onset": 545.5,
          "duration": 0.5,
          "velocity": 100
        },
        {
          "pitch": 76,
          "onset": 546.0,
          "duration": 0.5,
          "velocity": 100
        },
        {
          "pitch": 76,
          "onset": 546.5,
          "duration": 0.5,
          "velocity": 100
        },
        {
          "pitch": 77,
          "onset": 547.5,
          "duration": 0.5,
          "velocity": 100
        },
        {
          "pitch": 72,
          "onset": 548.0,
          "duration": 0.5,
          "velocity": 100
        },
        {
          "pitch": 72,
          "onset": 548.5,
          "duration": 0.5,
          "velocity": 100
        },
        {
          "pitch": 74,
          "onset": 549.0,
          "duration": 0.5,
          "velocity": 100
        },
        {
          "pitch": 74,
          "onset": 549.5,
          "duration": 0.5,
          "velocity": 100
        },
        {
          "pitch": 75,
          "onset": 550.5,
          "duration": 0.5,
          "velocity": 100
        },
        {
          "pitch": 71,
          "onset": 551.0,
          "duration": 0.5,
          "velocity": 100
        },
        {
          "pitch": 71,
          "onset": 551.5,
          "duration": 0.5,
          "velocity": 100
        },
        {
          "pitch": 79,
          "onset": 552.0,
          "duration": 0.25,
          "velocity": 100
        },
        {
          "pitch": 80,
          "onset": 552.25,
          "duration": 0.25,
          "velocity": 100
        },
        {
          "pitch": 77,
          "onset": 552.5,
          "duration": 0.25,
          "velocity": 100
        },
        {
          "pitch": 79,
          "onset": 552.75,
          "duration": 0.25,
          "velocity": 100
        },
        {
          "pitch": 75,
          "onset": 553.0,
          "duration": 0.25,
          "velocity": 100
        },
        {
          "pitch": 77,
          "onset": 553.25,
          "duration": 0.25,
          "velocity": 100
        },
        {
          "pitch": 74,
          "onset": 553.5,
          "duration": 0.25,
          "velocity": 100
        },
        {
          "pitch": 75,
          "onset": 553.75,
          "duration": 0.25,
          "velocity": 100
        },
        {
          "pitch": 72,
          "onset": 554.0,
          "duration": 0.25,
          "velocity": 100
        },
        {
          "pitch": 74,
          "onset": 554.25,
          "duration": 0.25,
          "velocity": 100
        },
        {
          "pitch": 70,
          "onset": 554.5,
          "duration": 0.25,
          "velocity": 100
        },
        {
          "pitch": 72,
          "onset": 554.75,
          "duration": 0.25,
          "velocity": 100
        },
        {
          "pitch": 69,
          "onset": 555.0,
          "duration": 0.25,
          "velocity": 100
        },
        {
          "pitch": 70,
          "onset": 555.25,
          "duration": 0.25,
          "velocity": 100
        },
        {
          "pitch": 67,
          "onset": 555.5,
          "duration": 0.25,
          "velocity": 100
        },
        {
          "pitch": 69,
          "onset": 555.75,
          "duration": 0.25,
          "velocity": 100
        },
        {
          "pitch": 66,
          "onset": 556.0,
          "duration": 0.25,
          "velocity": 100
        },
        {
          "pitch": 69,
          "onset": 556.25,
          "duration": 0.25,
          "velocity": 100
        },
        {
          "pitch": 67,
          "onset": 556.5,
          "duration": 0.25,
          "velocity": 100
        },
        {
          "pitch": 70,
          "onset": 556.75,
          "duration": 0.25,
          "velocity": 100
        },
        {
          "pitch": 69,
          "onset": 557.0,
          "duration": 0.25,
          "velocity": 100
        },
        {
          "pitch": 74,
          "onset": 557.25,
          "duration": 0.25,
          "velocity": 100
        },
        {
          "pitch": 72,
          "onset": 557.5,
          "duration": 0.25,
          "velocity": 100
        },
        {
          "pitch": 74,
          "onset": 557.75,
          "duration": 0.25,
          "velocity": 100
        },
        {
          "pitch": 67,
          "onset": 558.0,
          "duration": 0.25,
          "velocity": 100
        },
        {
          "pitch": 79,
          "onset": 558.25,
          "duration": 0.25,
          "velocity": 100
        },
        {
          "pitch": 77,
          "onset": 558.5,
          "duration": 0.25,
          "velocity": 100
        },
        {
          "pitch": 79,
          "onset": 558.75,
          "duration": 0.25,
          "velocity": 100
        },
        {
          "pitch": 75,
          "onset": 559.0,
          "duration": 0.25,
          "velocity": 100
        },
        {
          "pitch": 79,
          "onset": 559.25,
          "duration": 0.25,
          "velocity": 100
        },
        {
          "pitch": 75,
          "onset": 559.5,
          "duration": 0.25,
          "velocity": 100
        },
        {
          "pitch": 79,
          "onset": 559.75,
          "duration": 0.25,
          "velocity": 100
        },
        {
          "pitch": 75,
          "onset": 560.0,
          "duration": 0.25,
          "velocity": 100
        },
        {
          "pitch": 77,
          "onset": 560.25,
          "duration": 0.25,
          "velocity": 100
        },
        {
          "pitch": 75,
          "onset": 560.5,
          "duration": 0.25,
          "velocity": 100
        },
        {
          "pitch": 77,
          "onset": 560.75,
          "duration": 0.25,
          "velocity": 100
        },
        {
          "pitch": 74,
          "onset": 561.0,
          "duration": 0.25,
          "velocity": 100
        },
        {
          "pitch": 77,
          "onset": 561.25,
          "duration": 0.25,
          "velocity": 100
        },
        {
          "pitch": 74,
          "onset": 561.5,
          "duration": 0.25,
          "velocity": 100
        },
        {
          "pitch": 77,
          "onset": 561.75,
          "duration": 0.25,
          "velocity": 100
        },
        {
          "pitch": 72,
          "onset": 562.0,
          "duration": 0.25,
          "velocity": 100
        },
        {
          "pitch": 75,
          "onset": 562.25,
          "duration": 0.25,
          "velocity": 100
        },
        {
          "pitch": 74,
          "onset": 562.5,
          "duration": 0.25,
          "velocity": 100
        },
        {
          "pitch": 77,
          "onset": 562.75,
          "duration": 0.25,
          "velocity": 100
        },
        {
          "pitch": 75,
          "onset": 563.0,
          "duration": 0.25,
          "velocity": 100
        },
        {
          "pitch": 77,
          "onset": 563.25,
          "duration": 0.25,
          "velocity": 100
        },
        {
          "pitch": 75,
          "onset": 563.5,
          "duration": 0.25,
          "velocity": 100
        },
        {
          "pitch": 77,
          "onset": 563.75,
          "duration": 0.25,
          "velocity": 100
        },
        {
          "pitch": 75,
          "onset": 564.0,
          "duration": 0.25,
          "velocity": 100
        },
        {
          "pitch": 77,
          "onset": 564.25,
          "duration": 0.25,
          "velocity": 100
        },
        {
          "pitch": 75,
          "onset": 564.5,
          "duration": 0.25,
          "velocity": 100
        },
        {
          "pitch": 77,
          "onset": 564.75,
          "duration": 0.25,
          "velocity": 100
        },
        {
          "pitch": 74,
          "onset": 565.0,
          "duration": 0.25,
          "velocity": 100
        },
        {
          "pitch": 75,
          "onset": 565.25,
          "duration": 0.25,
          "velocity": 100
        },
        {
          "pitch": 74,
          "onset": 565.5,
          "duration": 0.25,
          "velocity": 100
        },
        {
          "pitch": 75,
          "onset": 565.75,
          "duration": 0.25,
          "velocity": 100
        },
        {
          "pitch": 74,
          "onset": 566.0,
          "duration": 0.25,
          "velocity": 100
        },
        {
          "pitch": 75,
          "onset": 566.25,
          "duration": 0.25,
          "velocity": 100
        },
        {
          "pitch": 72,
          "onset": 566.5,
          "duration": 0.25,
          "velocity": 100
        },
        {
          "pitch": 74,
          "onset": 566.75,
          "duration": 0.25,
          "velocity": 100
        },
        {
          "pitch": 70,
          "onset": 567.0,
          "duration": 0.25,
          "velocity": 100
        },
        {
          "pitch": 74,
          "onset": 567.25,
          "duration": 0.25,
          "velocity": 100
        },
        {
          "pitch": 72,
          "onset": 567.5,
          "duration": 0.25,
          "velocity": 100
        },
        {
          "pitch": 75,
          "onset": 567.75,
          "duration": 0.25,
          "velocity": 100
        },
        {
          "pitch": 74,
          "onset": 568.0,
          "duration": 0.5,
          "velocity": 100
        },
        {
          "pitch": 67,
          "onset": 568.5,
          "duration": 0.25,
          "velocity": 100
        },
        {
          "pitch": 70,
          "onset": 568.75,
          "duration": 0.25,
          "velocity": 100
        },
        {
          "pitch": 69,
          "onset": 569.0,
          "duration": 0.25,
          "velocity": 100
        },
        {
          "pitch": 72,
          "onset": 569.25,
          "duration": 0.25,
          "velocity": 100
        },
        {
          "pitch": 69,
          "onset": 569.5,
          "duration": 0.25,
          "velocity": 100
        },
        {
          "pitch": 72,
          "onset": 569.75,
          "duration": 0.25,
          "velocity": 100
        },
        {
          "pitch": 69,
          "onset": 570.0,
          "duration": 0.125,
          "velocity": 100
        },
        {
          "pitch": 70,
          "onset": 570.125,
          "duration": 0.125,
          "velocity": 100
        },
        {
          "pitch": 69,
          "onset": 570.25,
          "duration": 0.5,
          "velocity": 100
        },
        {
          "pitch": 67,
          "onset": 570.75,
          "duration": 0.25,
          "velocity": 100
        },
        {
          "pitch": 67,
          "onset": 571.0,
          "duration": 0.25,
          "velocity": 100
        },
        {
          "pitch": 71,
          "onset": 571.25,
          "duration": 0.25,
          "velocity": 100
        },
        {
          "pitch": 69,
          "onset": 571.5,
          "duration": 0.25,
          "velocity": 100
        },
        {
          "pitch": 72,
          "onset": 571.75,
          "duration": 0.25,
          "velocity": 100
        },
        {
          "pitch": 71,
          "onset": 572.0,
          "duration": 0.25,
          "velocity": 100
        },
        {
          "pitch": 79,
          "onset": 572.25,
          "duration": 0.25,
          "velocity": 100
        },
        {
          "pitch": 77,
          "onset": 572.5,
          "duration": 0.25,
          "velocity": 100
        },
        {
          "pitch": 79,
          "onset": 572.75,
          "duration": 0.25,
          "velocity": 100
        },
        {
          "pitch": 75,
          "onset": 573.0,
          "duration": 0.25,
          "velocity": 100
        },
        {
          "pitch": 79,
          "onset": 573.25,
          "duration": 0.25,
          "velocity": 100
        },
        {
          "pitch": 77,
          "onset": 573.5,
          "duration": 0.25,
          "velocity": 100
        },
        {
          "pitch": 80,
          "onset": 573.75,
          "duration": 0.25,
          "velocity": 100
        },
        {
          "pitch": 71,
          "onset": 574.0,
          "duration": 0.25,
          "velocity": 100
        },
        {
          "pitch": 74,
          "onset": 574.25,
          "duration": 0.25,
          "velocity": 100
        },
        {
          "pitch": 72,
          "onset": 574.5,
          "duration": 0.25,
          "velocity": 100
        },
        {
          "pitch": 75,
          "onset": 574.75,
          "duration": 0.25,
          "velocity": 100
        },
        {
          "pitch": 74,
          "onset": 575.0,
          "duration": 0.25,
          "velocity": 100
        },
        {
          "pitch": 75,
          "onset": 575.25,
          "duration": 0.25,
          "velocity": 100
        },
        {
          "pitch": 74,
          "onset": 575.5,
          "duration": 0.25,
          "velocity": 100
        },
        {
          "pitch": 75,
          "onset": 575.75,
          "duration": 0.25,
          "velocity": 100
        },
        {
          "pitch": 72,
          "onset": 576.0,
          "duration": 0.25,
          "velocity": 100
        },
        {
          "pitch": 75,
          "onset": 576.25,
          "duration": 0.25,
          "velocity": 100
        },
        {
          "pitch": 74,
          "onset": 576.5,
          "duration": 0.25,
          "velocity": 100
        },
        {
          "pitch": 75,
          "onset": 576.75,
          "duration": 0.25,
          "velocity": 100
        },
        {
          "pitch": 72,
          "onset": 577.0,
          "duration": 1.0,
          "velocity": 100
        },
        {
          "pitch": 70,
          "onset": 578.0,
          "duration": 1.5,
          "velocity": 100
        },
        {
          "pitch": 70,
          "onset": 579.5,
          "duration": 0.5,
          "velocity": 100
        },
        {
          "pitch": 68,
          "onset": 580.0,
          "duration": 0.5,
          "velocity": 100
        },
        {
          "pitch": 72,
          "onset": 580.5,
          "duration": 0.5,
          "velocity": 100
        },
        {
          "pitch": 77,
          "onset": 581.0,
          "duration": 0.75,
          "velocity": 100
        },
        {
          "pitch": 75,
          "onset": 581.75,
          "duration": 0.25,
          "velocity": 100
        },
        {
          "pitch": 74,
          "onset": 582.0,
          "duration": 0.5,
          "velocity": 100
        },
        {
          "pitch": 72,
          "onset": 582.5,
          "duration": 0.5,
          "velocity": 100
        },
        {
          "pitch": 70,
          "onset": 583.0,
          "duration": 1.0,
          "velocity": 100
        },
        {
          "pitch": 75,
          "onset": 584.0,
          "duration": 1.0,
          "velocity": 100
        },
        {
          "pitch": 77,
          "onset": 585.0,
          "duration": 1.0,
          "velocity": 100
        },
        {
          "pitch": 79,
          "onset": 586.0,
          "duration": 0.25,
          "velocity": 100
        },
        {
          "pitch": 80,
          "onset": 586.25,
          "duration": 0.25,
          "velocity": 100
        },
        {
          "pitch": 82,
          "onset": 586.5,
          "duration": 0.25,
          "velocity": 100
        },
        {
          "pitch": 75,
          "onset": 586.75,
          "duration": 0.25,
          "velocity": 100
        },
        {
          "pitch": 75,
          "onset": 587.0,
          "duration": 1.0,
          "velocity": 100
        },
        {
          "pitch": 74,
          "onset": 588.0,
          "duration": 0.125,
          "velocity": 100
        },
        {
          "pitch": 75,
          "onset": 588.125,
          "duration": 0.125,
          "velocity": 100
        },
        {
          "pitch": 74,
          "onset": 588.25,
          "duration": 0.5,
          "velocity": 100
        },
        {
          "pitch": 75,
          "onset": 588.75,
          "duration": 0.25,
          "velocity": 100
        },
        {
          "pitch": 75,
          "onset": 589.0,
          "duration": 0.25,
          "velocity": 100
        },
        {
          "pitch": 82,
          "onset": 589.25,
          "duration": 0.25,
          "velocity": 100
        },
        {
          "pitch": 80,
          "onset": 589.5,
          "duration": 0.25,
          "velocity": 100
        },
        {
          "pitch": 82,
          "onset": 589.75,
          "duration": 0.25,
          "velocity": 100
        },
        {
          "pitch": 79,
          "onset": 590.0,
          "duration": 0.25,
          "velocity": 100
        },
        {
          "pitch": 80,
          "onset": 590.25,
          "duration": 0.25,
          "velocity": 100
        },
        {
          "pitch": 77,
          "onset": 590.5,
          "duration": 0.25,
          "velocity": 100
        },
        {
          "pitch": 79,
          "onset": 590.75,
          "duration": 0.25,
          "velocity": 100
        },
        {
          "pitch": 75,
          "onset": 591.0,
          "duration": 0.25,
          "velocity": 100
        },
        {
          "pitch": 79,
          "onset": 591.25,
          "duration": 0.25,
          "velocity": 100
        },
        {
          "pitch": 77,
          "onset": 591.5,
          "duration": 0.25,
          "velocity": 100
        },
        {
          "pitch": 75,
          "onset": 591.75,
          "duration": 0.25,
          "velocity": 100
        },
        {
          "pitch": 74,
          "onset": 592.0,
          "duration": 0.25,
          "velocity": 100
        },
        {
          "pitch": 77,
          "onset": 592.25,
          "duration": 0.25,
          "velocity": 100
        },
        {
          "pitch": 75,
          "onset": 592.5,
          "duration": 0.25,
          "velocity": 100
        },
        {
          "pitch": 79,
          "onset": 592.75,
          "duration": 0.25,
          "velocity": 100
        },
        {
          "pitch": 77,
          "onset": 593.0,
          "duration": 0.25,
          "velocity": 100
        },
        {
          "pitch": 80,
          "onset": 593.25,
          "duration": 0.25,
          "velocity": 100
        },
        {
          "pitch": 79,
          "onset": 593.5,
          "duration": 0.25,
          "velocity": 100
        },
        {
          "pitch": 77,
          "onset": 593.75,
          "duration": 0.25,
          "velocity": 100
        },
        {
          "pitch": 82,
          "onset": 594.0,
          "duration": 0.25,
          "velocity": 100
        },
        {
          "pitch": 75,
          "onset": 594.25,
          "duration": 0.25,
          "velocity": 100
        },
        {
          "pitch": 74,
          "onset": 594.5,
          "duration": 0.25,
          "velocity": 100
        },
        {
          "pitch": 75,
          "onset": 594.75,
          "duration": 0.25,
          "velocity": 100
        },
        {
          "pitch": 72,
          "onset": 595.0,
          "duration": 0.25,
          "velocity": 100
        },
        {
          "pitch": 75,
          "onset": 595.25,
          "duration": 0.25,
          "velocity": 100
        },
        {
          "pitch": 72,
          "onset": 595.5,
          "duration": 0.25,
          "velocity": 100
        },
        {
          "pitch": 75,
          "onset": 595.75,
          "duration": 0.25,
          "velocity": 100
        },
        {
          "pitch": 72,
          "onset": 596.0,
          "duration": 0.25,
          "velocity": 100
        },
        {
          "pitch": 73,
          "onset": 596.25,
          "duration": 0.25,
          "velocity": 100
        },
        {
          "pitch": 72,
          "onset": 596.5,
          "duration": 0.25,
          "velocity": 100
        },
        {
          "pitch": 73,
          "onset": 596.75,
          "duration": 0.25,
          "velocity": 100
        },
        {
          "pitch": 70,
          "onset": 597.0,
          "duration": 0.25,
          "velocity": 100
        },
        {
          "pitch": 73,
          "onset": 597.25,
          "duration": 0.25,
          "velocity": 100
        },
        {
          "pitch": 70,
          "onset": 597.5,
          "duration": 0.25,
          "velocity": 100
        },
        {
          "pitch": 73,
          "onset": 597.75,
          "duration": 0.25,
          "velocity": 100
        },
        {
          "pitch": 68,
          "onset": 598.0,
          "duration": 0.25,
          "velocity": 100
        },
        {
          "pitch": 72,
          "onset": 598.25,
          "duration": 0.25,
          "velocity": 100
        },
        {
          "pitch": 70,
          "onset": 598.5,
          "duration": 0.25,
          "velocity": 100
        },
        {
          "pitch": 73,
          "onset": 598.75,
          "duration": 0.25,
          "velocity": 100
        },
        {
          "pitch": 72,
          "onset": 599.0,
          "duration": 0.25,
          "velocity": 100
        },
        {
          "pitch": 75,
          "onset": 599.25,
          "duration": 0.25,
          "velocity": 100
        },
        {
          "pitch": 74,
          "onset": 599.5,
          "duration": 0.25,
          "velocity": 100
        },
        {
          "pitch": 75,
          "onset": 599.75,
          "duration": 0.25,
          "velocity": 100
        },
        {
          "pitch": 72,
          "onset": 600.0,
          "duration": 0.25,
          "velocity": 100
        },
        {
          "pitch": 77,
          "onset": 600.25,
          "duration": 0.25,
          "velocity": 100
        },
        {
          "pitch": 75,
          "onset": 600.5,
          "duration": 0.25,
          "velocity": 100
        },
        {
          "pitch": 77,
          "onset": 600.75,
          "duration": 0.25,
          "velocity": 100
        },
        {
          "pitch": 74,
          "onset": 601.0,
          "duration": 0.25,
          "velocity": 100
        },
        {
          "pitch": 77,
          "onset": 601.25,
          "duration": 0.25,
          "velocity": 100
        },
        {
          "pitch": 75,
          "onset": 601.5,
          "duration": 0.25,
          "velocity": 100
        },
        {
          "pitch": 79,
          "onset": 601.75,
          "duration": 0.25,
          "velocity": 100
        },
        {
          "pitch": 77,
          "onset": 602.0,
          "duration": 0.25,
          "velocity": 100
        },
        {
          "pitch": 82,
          "onset": 602.25,
          "duration": 0.25,
          "velocity": 100
        },
        {
          "pitch": 80,
          "onset": 602.5,
          "duration": 0.25,
          "velocity": 100
        },
        {
          "pitch": 82,
          "onset": 602.75,
          "duration": 0.25,
          "velocity": 100
        },
        {
          "pitch": 79,
          "onset": 603.0,
          "duration": 0.25,
          "velocity": 100
        },
        {
          "pitch": 84,
          "onset": 603.25,
          "duration": 0.25,
          "velocity": 100
        },
        {
          "pitch": 82,
          "onset": 603.5,
          "duration": 0.25,
          "velocity": 100
        },
        {
          "pitch": 84,
          "onset": 603.75,
          "duration": 0.25,
          "velocity": 100
        },
        {
          "pitch": 80,
          "onset": 604.0,
          "duration": 0.25,
          "velocity": 100
        },
        {
          "pitch": 84,
          "onset": 604.25,
          "duration": 0.25,
          "velocity": 100
        },
        {
          "pitch": 82,
          "onset": 604.5,
          "duration": 0.25,
          "velocity": 100
        },
        {
          "pitch": 84,
          "onset": 604.75,
          "duration": 0.25,
          "velocity": 100
        },
        {
          "pitch": 80,
          "onset": 605.0,
          "duration": 0.25,
          "velocity": 100
        },
        {
          "pitch": 82,
          "onset": 605.25,
          "duration": 0.25,
          "velocity": 100
        },
        {
          "pitch": 79,
          "onset": 605.5,
          "duration": 0.25,
          "velocity": 100
        },
        {
          "pitch": 80,
          "onset": 605.75,
          "duration": 0.25,
          "velocity": 100
        },
        {
          "pitch": 77,
          "onset": 606.0,
          "duration": 0.25,
          "velocity": 100
        },
        {
          "pitch": 82,
          "onset": 606.25,
          "duration": 0.25,
          "velocity": 100
        },
        {
          "pitch": 80,
          "onset": 606.5,
          "duration": 0.25,
          "velocity": 100
        },
        {
          "pitch": 82,
          "onset": 606.75,
          "duration": 0.25,
          "velocity": 100
        },
        {
          "pitch": 79,
          "onset": 607.0,
          "duration": 0.25,
          "velocity": 100
        },
        {
          "pitch": 82,
          "onset": 607.25,
          "duration": 0.25,
          "velocity": 100
        },
        {
          "pitch": 80,
          "onset": 607.5,
          "duration": 0.25,
          "velocity": 100
        },
        {
          "pitch": 82,
          "onset": 607.75,
          "duration": 0.25,
          "velocity": 100
        },
        {
          "pitch": 79,
          "onset": 608.0,
          "duration": 0.25,
          "velocity": 100
        },
        {
          "pitch": 80,
          "onset": 608.25,
          "duration": 0.25,
          "velocity": 100
        },
        {
          "pitch": 77,
          "onset": 608.5,
          "duration": 0.25,
          "velocity": 100
        },
        {
          "pitch": 79,
          "onset": 608.75,
          "duration": 0.25,
          "velocity": 100
        },
        {
          "pitch": 75,
          "onset": 609.0,
          "duration": 0.25,
          "velocity": 100
        },
        {
          "pitch": 77,
          "onset": 609.25,
          "duration": 0.25,
          "velocity": 100
        },
        {
          "pitch": 74,
          "onset": 609.5,
          "duration": 0.25,
          "velocity": 100
        },
        {
          "pitch": 75,
          "onset": 609.75,
          "duration": 0.25,
          "velocity": 100
        },
        {
          "pitch": 72,
          "onset": 610.0,
          "duration": 0.5,
          "velocity": 100
        },
        {
          "pitch": 75,
          "onset": 610.5,
          "duration": 0.5,
          "velocity": 100
        },
        {
          "pitch": 80,
          "onset": 611.0,
          "duration": 0.5,
          "velocity": 100
        },
        {
          "pitch": 72,
          "onset": 611.5,
          "duration": 0.5,
          "velocity": 100
        },
        {
          "pitch": 70,
          "onset": 612.0,
          "duration": 0.5,
          "velocity": 100
        },
        {
          "pitch": 80,
          "onset": 612.5,
          "duration": 0.5,
          "velocity": 100
        },
        {
          "pitch": 70,
          "onset": 613.0,
          "duration": 0.5,
          "velocity": 100
        },
        {
          "pitch": 74,
          "onset": 613.5,
          "duration": 0.5,
          "velocity": 100
        },
        {
          "pitch": 79,
          "onset": 614.0,
          "duration": 0.5,
          "velocity": 100
        },
        {
          "pitch": 70,
          "onset": 614.5,
          "duration": 0.5,
          "velocity": 100
        },
        {
          "pitch": 68,
          "onset": 615.0,
          "duration": 0.5,
          "velocity": 100
        },
        {
          "pitch": 79,
          "onset": 615.5,
          "duration": 0.5,
          "velocity": 100
        },
        {
          "pitch": 68,
          "onset": 616.0,
          "duration": 0.5,
          "velocity": 100
        },
        {
          "pitch": 72,
          "onset": 616.5,
          "duration": 0.5,
          "velocity": 100
        },
        {
          "pitch": 77,
          "onset": 617.0,
          "duration": 0.5,
          "velocity": 100
        },
        {
          "pitch": 68,
          "onset": 617.5,
          "duration": 0.5,
          "velocity": 100
        },
        {
          "pitch": 67,
          "onset": 618.0,
          "duration": 0.5,
          "velocity": 100
        },
        {
          "pitch": 77,
          "onset": 618.5,
          "duration": 0.5,
          "velocity": 100
        },
        {
          "pitch": 67,
          "onset": 619.0,
          "duration": 0.5,
          "velocity": 100
        },
        {
          "pitch": 70,
          "onset": 619.5,
          "duration": 0.5,
          "velocity": 100
        },
        {
          "pitch": 75,
          "onset": 620.0,
          "duration": 0.5,
          "velocity": 100
        },
        {
          "pitch": 67,
          "onset": 620.5,
          "duration": 0.5,
          "velocity": 100
        },
        {
          "pitch": 65,
          "onset": 621.0,
          "duration": 0.5,
          "velocity": 100
        },
        {
          "pitch": 75,
          "onset": 621.5,
          "duration": 0.5,
          "velocity": 100
        },
        {
          "pitch": 74,
          "onset": 622.0,
          "duration": 0.25,
          "velocity": 100
        },
        {
          "pitch": 77,
          "onset": 622.25,
          "duration": 0.25,
          "velocity": 100
        },
        {
          "pitch": 74,
          "onset": 622.5,
          "duration": 0.25,
          "velocity": 100
        },
        {
          "pitch": 77,
          "onset": 622.75,
          "duration": 0.25,
          "velocity": 100
        },
        {
          "pitch": 70,
          "onset": 623.0,
          "duration": 0.5,
          "velocity": 100
        },
        {
          "pitch": 69,
          "onset": 623.5,
          "duration": 0.25,
          "velocity": 100
        },
        {
          "pitch": 67,
          "onset": 623.75,
          "duration": 0.25,
          "velocity": 100
        },
        {
          "pitch": 65,
          "onset": 624.0,
          "duration": 0.5,
          "velocity": 100
        },
        {
          "pitch": 67,
          "onset": 624.5,
          "duration": 0.5,
          "velocity": 100
        },
        {
          "pitch": 69,
          "onset": 625.0,
          "duration": 0.5,
          "velocity": 100
        },
        {
          "pitch": 74,
          "onset": 625.5,
          "duration": 0.5,
          "velocity": 100
        },
        {
          "pitch": 69,
          "onset": 626.0,
          "duration": 0.5,
          "velocity": 100
        },
        {
          "pitch": 69,
          "onset": 626.5,
          "duration": 0.5,
          "velocity": 100
        },
        {
          "pitch": 70,
          "onset": 627.0,
          "duration": 0.5,
          "velocity": 100
        },
        {
          "pitch": 70,
          "onset": 627.5,
          "duration": 0.5,
          "velocity": 100
        },
        {
          "pitch": 79,
          "onset": 628.5,
          "duration": 0.5,
          "velocity": 100
        },
        {
          "pitch": 72,
          "onset": 629.0,
          "duration": 0.5,
          "velocity": 100
        },
        {
          "pitch": 72,
          "onset": 629.5,
          "duration": 0.5,
          "velocity": 100
        },
        {
          "pitch": 74,
          "onset": 630.0,
          "duration": 0.5,
          "velocity": 100
        },
        {
          "pitch": 74,
          "onset": 630.5,
          "duration": 0.5,
          "velocity": 100
        },
        {
          "pitch": 75,
          "onset": 631.5,
          "duration": 0.5,
          "velocity": 100
        },
        {
          "pitch": 70,
          "onset": 632.0,
          "duration": 0.5,
          "velocity": 100
        },
        {
          "pitch": 70,
          "onset": 632.5,
          "duration": 0.5,
          "velocity": 100
        },
        {
          "pitch": 72,
          "onset": 633.0,
          "duration": 0.5,
          "velocity": 100
        },
        {
          "pitch": 72,
          "onset": 633.5,
          "duration": 0.5,
          "velocity": 100
        },
        {
          "pitch": 74,
          "onset": 634.25,
          "duration": 0.25,
          "velocity": 100
        },
        {
          "pitch": 72,
          "onset": 634.5,
          "duration": 0.25,
          "velocity": 100
        },
        {
          "pitch": 74,
          "onset": 634.75,
          "duration": 0.25,
          "velocity": 100
        },
        {
          "pitch": 75,
          "onset": 635.0,
          "duration": 1.0,
          "velocity": 100
        },
        {
          "pitch": 77,
          "onset": 636.0,
          "duration": 1.0,
          "velocity": 100
        },
        {
          "pitch": 79,
          "onset": 637.25,
          "duration": 0.25,
          "velocity": 100
        },
        {
          "pitch": 77,
          "onset": 637.5,
          "duration": 0.25,
          "velocity": 100
        },
        {
          "pitch": 79,
          "onset": 637.75,
          "duration": 0.25,
          "velocity": 100
        },
        {
          "pitch": 80,
          "onset": 638.0,
          "duration": 1.0,
          "velocity": 100
        },
        {
          "pitch": 82,
          "onset": 639.0,
          "duration": 1.0,
          "velocity": 100
        },
        {
          "pitch": 84,
          "onset": 640.25,
          "duration": 0.25,
          "velocity": 100
        },
        {
          "pitch": 82,
          "onset": 640.5,
          "duration": 0.25,
          "velocity": 100
        },
        {
          "pitch": 84,
          "onset": 640.75,
          "duration": 0.25,
          "velocity": 100
        },
        {
          "pitch": 77,
          "onset": 641.0,
          "duration": 1.0,
          "velocity": 100
        },
        {
          "pitch": 79,
          "onset": 642.0,
          "duration": 1.0,
          "velocity": 100
        },
        {
          "pitch": 80,
          "onset": 643.25,
          "duration": 0.25,
          "velocity": 100
        },
        {
          "pitch": 79,
          "onset": 643.5,
          "duration": 0.25,
          "velocity": 100
        },
        {
          "pitch": 80,
          "onset": 643.75,
          "duration": 0.25,
          "velocity": 100
        },
        {
          "pitch": 74,
          "onset": 644.0,
          "duration": 0.5,
          "velocity": 100
        },
        {
          "pitch": 74,
          "onset": 644.5,
          "duration": 0.5,
          "velocity": 100
        },
        {
          "pitch": 75,
          "onset": 645.0,
          "duration": 0.5,
          "velocity": 100
        },
        {
          "pitch": 75,
          "onset": 645.5,
          "duration": 0.5,
          "velocity": 100
        },
        {
          "pitch": 77,
          "onset": 646.25,
          "duration": 0.25,
          "velocity": 100
        },
        {
          "pitch": 75,
          "onset": 646.5,
          "duration": 0.25,
          "velocity": 100
        },
        {
          "pitch": 77,
          "onset": 646.75,
          "duration": 0.25,
          "velocity": 100
        },
        {
          "pitch": 72,
          "onset": 647.0,
          "duration": 0.5,
          "velocity": 100
        },
        {
          "pitch": 72,
          "onset": 647.5,
          "duration": 0.5,
          "velocity": 100
        },
        {
          "pitch": 74,
          "onset": 648.0,
          "duration": 0.5,
          "velocity": 100
        },
        {
          "pitch": 74,
          "onset": 648.5,
          "duration": 0.5,
          "velocity": 100
        },
        {
          "pitch": 75,
          "onset": 649.25,
          "duration": 0.25,
          "velocity": 100
        },
        {
          "pitch": 74,
          "onset": 649.5,
          "duration": 0.25,
          "velocity": 100
        },
        {
          "pitch": 75,
          "onset": 649.75,
          "duration": 0.25,
          "velocity": 100
        },
        {
          "pitch": 75,
          "onset": 650.25,
          "duration": 0.25,
          "velocity": 100
        },
        {
          "pitch": 74,
          "onset": 650.5,
          "duration": 0.25,
          "velocity": 100
        },
        {
          "pitch": 75,
          "onset": 650.75,
          "duration": 0.25,
          "velocity": 100
        },
        {
          "pitch": 75,
          "onset": 651.25,
          "duration": 0.25,
          "velocity": 100
        },
        {
          "pitch": 74,
          "onset": 651.5,
          "duration": 0.25,
          "velocity": 100
        },
        {
          "pitch": 75,
          "onset": 651.75,
          "duration": 0.25,
          "velocity": 100
        },
        {
          "pitch": 74,
          "onset": 652.25,
          "duration": 0.25,
          "velocity": 100
        },
        {
          "pitch": 72,
          "onset": 652.5,
          "duration": 0.25,
          "velocity": 100
        },
        {
          "pitch": 74,
          "onset": 652.75,
          "duration": 0.25,
          "velocity": 100
        },
        {
          "pitch": 72,
          "onset": 653.25,
          "duration": 0.25,
          "velocity": 100
        },
        {
          "pitch": 70,
          "onset": 653.5,
          "duration": 0.25,
          "velocity": 100
        },
        {
          "pitch": 72,
          "onset": 653.75,
          "duration": 0.25,
          "velocity": 100
        },
        {
          "pitch": 72,
          "onset": 654.25,
          "duration": 0.25,
          "velocity": 100
        },
        {
          "pitch": 70,
          "onset": 654.5,
          "duration": 0.25,
          "velocity": 100
        },
        {
          "pitch": 72,
          "onset": 654.75,
          "duration": 0.25,
          "velocity": 100
        },
        {
          "pitch": 70,
          "onset": 655.25,
          "duration": 0.25,
          "velocity": 100
        },
        {
          "pitch": 69,
          "onset": 655.5,
          "duration": 0.25,
          "velocity": 100
        },
        {
          "pitch": 70,
          "onset": 655.75,
          "duration": 0.25,
          "velocity": 100
        },
        {
          "pitch": 70,
          "onset": 656.25,
          "duration": 0.25,
          "velocity": 100
        },
        {
          "pitch": 69,
          "onset": 656.5,
          "duration": 0.25,
          "velocity": 100
        },
        {
          "pitch": 70,
          "onset": 656.75,
          "duration": 0.25,
          "velocity": 100
        },
        {
          "pitch": 72,
          "onset": 657.25,
          "duration": 0.25,
          "velocity": 100
        },
        {
          "pitch": 70,
          "onset": 657.5,
          "duration": 0.25,
          "velocity": 100
        },
        {
          "pitch": 72,
          "onset": 657.75,
          "duration": 0.25,
          "velocity": 100
        },
        {
          "pitch": 69,
          "onset": 658.25,
          "duration": 0.25,
          "velocity": 100
        },
        {
          "pitch": 67,
          "onset": 658.5,
          "duration": 0.25,
          "velocity": 100
        },
        {
          "pitch": 69,
          "onset": 658.75,
          "duration": 0.25,
          "velocity": 100
        },
        {
          "pitch": 69,
          "onset": 659.25,
          "duration": 0.25,
          "velocity": 100
        },
        {
          "pitch": 67,
          "onset": 659.5,
          "duration": 0.25,
          "velocity": 100
        },
        {
          "pitch": 69,
          "onset": 659.75,
          "duration": 0.25,
          "velocity": 100
        },
        {
          "pitch": 70,
          "onset": 660.0,
          "duration": 0.25,
          "velocity": 100
        },
        {
          "pitch": 72,
          "onset": 660.25,
          "duration": 0.25,
          "velocity": 100
        },
        {
          "pitch": 70,
          "onset": 660.5,
          "duration": 0.25,
          "velocity": 100
        },
        {
          "pitch": 72,
          "onset": 660.75,
          "duration": 0.25,
          "velocity": 100
        },
        {
          "pitch": 74,
          "onset": 661.0,
          "duration": 1.0,
          "velocity": 100
        },
        {
          "pitch": 74,
          "onset": 662.25,
          "duration": 0.25,
          "velocity": 100
        },
        {
          "pitch": 72,
          "onset": 662.5,
          "duration": 0.25,
          "velocity": 100
        },
        {
          "pitch": 74,
          "onset": 662.75,
          "duration": 0.25,
          "velocity": 100
        },
        {
          "pitch": 67,
          "onset": 663.0,
          "duration": 0.25,
          "velocity": 100
        },
        {
          "pitch": 79,
          "onset": 663.25,
          "duration": 0.25,
          "velocity": 100
        },
        {
          "pitch": 77,
          "onset": 663.5,
          "duration": 0.25,
          "velocity": 100
        },
        {
          "pitch": 79,
          "onset": 663.75,
          "duration": 0.25,
          "velocity": 100
        },
        {
          "pitch": 75,
          "onset": 664.0,
          "duration": 0.25,
          "velocity": 100
        },
        {
          "pitch": 79,
          "onset": 664.25,
          "duration": 0.25,
          "velocity": 100
        },
        {
          "pitch": 75,
          "onset": 664.5,
          "duration": 0.25,
          "velocity": 100
        },
        {
          "pitch": 79,
          "onset": 664.75,
          "duration": 0.25,
          "velocity": 100
        },
        {
          "pitch": 75,
          "onset": 665.0,
          "duration": 0.25,
          "velocity": 100
        },
        {
          "pitch": 77,
          "onset": 665.25,
          "duration": 0.25,
          "velocity": 100
        },
        {
          "pitch": 75,
          "onset": 665.5,
          "duration": 0.25,
          "velocity": 100
        },
        {
          "pitch": 77,
          "onset": 665.75,
          "duration": 0.25,
          "velocity": 100
        },
        {
          "pitch": 74,
          "onset": 666.0,
          "duration": 0.25,
          "velocity": 100
        },
        {
          "pitch": 75,
          "onset": 666.25,
          "duration": 0.25,
          "velocity": 100
        },
        {
          "pitch": 74,
          "onset": 666.5,
          "duration": 0.25,
          "velocity": 100
        },
        {
          "pitch": 75,
          "onset": 666.75,
          "duration": 0.25,
          "velocity": 100
        },
        {
          "pitch": 72,
          "onset": 667.0,
          "duration": 0.25,
          "velocity": 100
        },
        {
          "pitch": 75,
          "onset": 667.25,
          "duration": 0.25,
          "velocity": 100
        },
        {
          "pitch": 74,
          "onset": 667.5,
          "duration": 0.25,
          "velocity": 100
        },
        {
          "pitch": 77,
          "onset": 667.75,
          "duration": 0.25,
          "velocity": 100
        },
        {
          "pitch": 75,
          "onset": 668.0,
          "duration": 0.25,
          "velocity": 100
        },
        {
          "pitch": 79,
          "onset": 668.25,
          "duration": 0.25,
          "velocity": 100
        },
        {
          "pitch": 78,
          "onset": 668.5,
          "duration": 0.25,
          "velocity": 100
        },
        {
          "pitch": 81,
          "onset": 668.75,
          "duration": 0.25,
          "velocity": 100
        },
        {
          "pitch": 79,
          "onset": 669.0,
          "duration": 0.25,
          "velocity": 100
        },
        {
          "pitch": 82,
          "onset": 669.25,
          "duration": 0.25,
          "velocity": 100
        },
        {
          "pitch": 81,
          "onset": 669.5,
          "duration": 0.25,
          "velocity": 100
        },
        {
          "pitch": 79,
          "onset": 669.75,
          "duration": 0.25,
          "velocity": 100
        },
        {
          "pitch": 78,
          "onset": 670.0,
          "duration": 0.25,
          "velocity": 100
        },
        {
          "pitch": 81,
          "onset": 670.25,
          "duration": 0.25,
          "velocity": 100
        },
        {
          "pitch": 79,
          "onset": 670.5,
          "duration": 0.25,
          "velocity": 100
        },
        {
          "pitch": 82,
          "onset": 670.75,
          "duration": 0.25,
          "velocity": 100
        },
        {
          "pitch": 81,
          "onset": 671.0,
          "duration": 0.5,
          "velocity": 100
        },
        {
          "pitch": 74,
          "onset": 671.5,
          "duration": 0.5,
          "velocity": 100
        },
        {
          "pitch": 67,
          "onset": 735.0,
          "duration": 1.0,
          "velocity": 100
        },
        {
          "pitch": 74,
          "onset": 736.0,
          "duration": 2.0,
          "velocity": 100
        },
        {
          "pitch": 70,
          "onset": 738.0,
          "duration": 1.0,
          "velocity": 100
        },
        {
          "pitch": 72,
          "onset": 739.0,
          "duration": 2.0,
          "velocity": 100
        },
        {
          "pitch": 74,
          "onset": 741.0,
          "duration": 1.0,
          "velocity": 100
        },
        {
          "pitch": 75,
          "onset": 742.0,
          "duration": 2.0,
          "velocity": 100
        },
        {
          "pitch": 72,
          "onset": 744.0,
          "duration": 1.0,
          "velocity": 100
        },
        {
          "pitch": 74,
          "onset": 745.0,
          "duration": 2.25,
          "velocity": 100
        },
        {
          "pitch": 74,
          "onset": 747.25,
          "duration": 0.25,
          "velocity": 100
        },
        {
          "pitch": 72,
          "onset": 747.5,
          "duration": 0.25,
          "velocity": 100
        },
        {
          "pitch": 74,
          "onset": 747.75,
          "duration": 0.25,
          "velocity": 100
        },
        {
          "pitch": 75,
          "onset": 748.0,
          "duration": 0.25,
          "velocity": 100
        },
        {
          "pitch": 77,
          "onset": 748.25,
          "duration": 0.25,
          "velocity": 100
        },
        {
          "pitch": 74,
          "onset": 748.5,
          "duration": 0.25,
          "velocity": 100
        },
        {
          "pitch": 76,
          "onset": 748.75,
          "duration": 0.25,
          "velocity": 100
        },
        {
          "pitch": 77,
          "onset": 749.0,
          "duration": 0.25,
          "velocity": 100
        },
        {
          "pitch": 79,
          "onset": 749.25,
          "duration": 0.25,
          "velocity": 100
        },
        {
          "pitch": 76,
          "onset": 749.5,
          "duration": 0.25,
          "velocity": 100
        },
        {
          "pitch": 78,
          "onset": 749.75,
          "duration": 0.25,
          "velocity": 100
        },
        {
          "pitch": 79,
          "onset": 750.0,
          "duration": 0.25,
          "velocity": 100
        },
        {
          "pitch": 81,
          "onset": 750.25,
          "duration": 0.25,
          "velocity": 100
        },
        {
          "pitch": 74,
          "onset": 750.5,
          "duration": 0.25,
          "velocity": 100
        },
        {
          "pitch": 77,
          "onset": 750.75,
          "duration": 0.25,
          "velocity": 100
        },
        {
          "pitch": 75,
          "onset": 751.0,
          "duration": 0.25,
          "velocity": 100
        },
        {
          "pitch": 77,
          "onset": 751.25,
          "duration": 0.25,
          "velocity": 100
        },
        {
          "pitch": 72,
          "onset": 751.5,
          "duration": 0.25,
          "velocity": 100
        },
        {
          "pitch": 75,
          "onset": 751.75,
          "duration": 0.25,
          "velocity": 100
        },
        {
          "pitch": 74,
          "onset": 752.0,
          "duration": 0.25,
          "velocity": 100
        },
        {
          "pitch": 75,
          "onset": 752.25,
          "duration": 0.25,
          "velocity": 100
        },
        {
          "pitch": 70,
          "onset": 752.5,
          "duration": 0.25,
          "velocity": 100
        },
        {
          "pitch": 74,
          "onset": 752.75,
          "duration": 0.25,
          "velocity": 100
        },
        {
          "pitch": 72,
          "onset": 753.0,
          "duration": 0.25,
          "velocity": 100
        },
        {
          "pitch": 74,
          "onset": 753.25,
          "duration": 0.25,
          "velocity": 100
        },
        {
          "pitch": 69,
          "onset": 753.5,
          "duration": 0.25,
          "velocity": 100
        },
        {
          "pitch": 72,
          "onset": 753.75,
          "duration": 0.25,
          "velocity": 100
        },
        {
          "pitch": 70,
          "onset": 754.0,
          "duration": 0.25,
          "velocity": 100
        },
        {
          "pitch": 72,
          "onset": 754.25,
          "duration": 0.25,
          "velocity": 100
        },
        {
          "pitch": 69,
          "onset": 754.5,
          "duration": 0.25,
          "velocity": 100
        },
        {
          "pitch": 71,
          "onset": 754.75,
          "duration": 0.25,
          "velocity": 100
        },
        {
          "pitch": 72,
          "onset": 755.0,
          "duration": 0.25,
          "velocity": 100
        },
        {
          "pitch": 74,
          "onset": 755.25,
          "duration": 0.25,
          "velocity": 100
        },
        {
          "pitch": 75,
          "onset": 755.5,
          "duration": 0.25,
          "velocity": 100
        },
        {
          "pitch": 69,
          "onset": 755.75,
          "duration": 0.25,
          "velocity": 100
        },
        {
          "pitch": 69,
          "onset": 756.0,
          "duration": 0.125,
          "velocity": 100
        },
        {
          "pitch": 70,
          "onset": 756.125,
          "duration": 0.125,
          "velocity": 100
        },
        {
          "pitch": 69,
          "onset": 756.25,
          "duration": 0.5,
          "velocity": 100
        },
        {
          "pitch": 67,
          "onset": 756.75,
          "duration": 0.25,
          "velocity": 100
        },
        {
          "pitch": 67,
          "onset": 757.0,
          "duration": 0.25,
          "velocity": 100
        },
        {
          "pitch": 71,
          "onset": 757.25,
          "duration": 0.25,
          "velocity": 100
        },
        {
          "pitch": 69,
          "onset": 757.5,
          "duration": 0.25,
          "velocity": 100
        },
        {
          "pitch": 72,
          "onset": 757.75,
          "duration": 0.25,
          "velocity": 100
        },
        {
          "pitch": 71,
          "onset": 758.0,
          "duration": 0.25,
          "velocity": 100
        },
        {
          "pitch": 74,
          "onset": 758.25,
          "duration": 0.25,
          "velocity": 100
        },
        {
          "pitch": 72,
          "onset": 758.5,
          "duration": 0.25,
          "velocity": 100
        },
        {
          "pitch": 75,
          "onset": 758.75,
          "duration": 0.25,
          "velocity": 100
        },
        {
          "pitch": 74,
          "onset": 759.0,
          "duration": 0.25,
          "velocity": 100
        },
        {
          "pitch": 77,
          "onset": 759.25,
          "duration": 0.25,
          "velocity": 100
        },
        {
          "pitch": 75,
          "onset": 759.5,
          "duration": 0.25,
          "velocity": 100
        },
        {
          "pitch": 74,
          "onset": 759.75,
          "duration": 0.25,
          "velocity": 100
        },
        {
          "pitch": 75,
          "onset": 760.0,
          "duration": 1.0,
          "velocity": 100
        },
        {
          "pitch": 76,
          "onset": 762.5,
          "duration": 0.5,
          "velocity": 100
        },
        {
          "pitch": 77,
          "onset": 763.0,
          "duration": 0.25,
          "velocity": 100
        },
        {
          "pitch": 80,
          "onset": 763.25,
          "duration": 0.25,
          "velocity": 100
        },
        {
          "pitch": 79,
          "onset": 763.5,
          "duration": 0.25,
          "velocity": 100
        },
        {
          "pitch": 82,
          "onset": 763.75,
          "duration": 0.25,
          "velocity": 100
        },
        {
          "pitch": 80,
          "onset": 764.0,
          "duration": 0.5,
          "velocity": 100
        },
        {
          "pitch": 82,
          "onset": 764.5,
          "duration": 0.0625,
          "velocity": 100
        },
        {
          "pitch": 84,
          "onset": 764.5625,
          "duration": 0.0625,
          "velocity": 100
        },
        {
          "pitch": 82,
          "onset": 764.625,
          "duration": 0.125,
          "velocity": 100
        },
        {
          "pitch": 80,
          "onset": 764.75,
          "duration": 0.125,
          "velocity": 100
        },
        {
          "pitch": 82,
          "onset": 764.875,
          "duration": 0.125,
          "velocity": 100
        },
        {
          "pitch": 84,
          "onset": 765.0,
          "duration": 0.25,
          "velocity": 100
        },
        {
          "pitch": 80,
          "onset": 765.25,
          "duration": 0.25,
          "velocity": 100
        },
        {
          "pitch": 79,
          "onset": 765.5,
          "duration": 0.25,
          "velocity": 100
        },
        {
          "pitch": 77,
          "onset": 765.75,
          "duration": 0.25,
          "velocity": 100
        },
        {
          "pitch": 76,
          "onset": 766.0,
          "duration": 0.25,
          "velocity": 100
        },
        {
          "pitch": 79,
          "onset": 766.25,
          "duration": 0.25,
          "velocity": 100
        },
        {
          "pitch": 77,
          "onset": 766.5,
          "duration": 0.25,
          "velocity": 100
        },
        {
          "pitch": 80,
          "onset": 766.75,
          "duration": 0.25,
          "velocity": 100
        },
        {
          "pitch": 79,
          "onset": 767.0,
          "duration": 0.25,
          "velocity": 100
        },
        {
          "pitch": 82,
          "onset": 767.25,
          "duration": 0.25,
          "velocity": 100
        },
        {
          "pitch": 80,
          "onset": 767.5,
          "duration": 0.25,
          "velocity": 100
        },
        {
          "pitch": 79,
          "onset": 767.75,
          "duration": 0.25,
          "velocity": 100
        },
        {
          "pitch": 80,
          "onset": 768.0,
          "duration": 2.0,
          "velocity": 100
        },
        {
          "pitch": 79,
          "onset": 770.0,
          "duration": 1.0,
          "velocity": 100
        },
        {
          "pitch": 78,
          "onset": 771.0,
          "duration": 1.0,
          "velocity": 100
        },
        {
          "pitch": 77,
          "onset": 772.0,
          "duration": 3.25,
          "velocity": 100
        },
        {
          "pitch": 77,
          "onset": 775.25,
          "duration": 0.25,
          "velocity": 100
        },
        {
          "pitch": 79,
          "onset": 775.5,
          "duration": 0.25,
          "velocity": 100
        },
        {
          "pitch": 77,
          "onset": 775.75,
          "duration": 0.25,
          "velocity": 100
        },
        {
          "pitch": 76,
          "onset": 776.0,
          "duration": 0.5,
          "velocity": 100
        },
        {
          "pitch": 77,
          "onset": 776.5,
          "duration": 0.5,
          "velocity": 100
        },
        {
          "pitch": 79,
          "onset": 777.0,
          "duration": 1.25,
          "velocity": 100
        },
        {
          "pitch": 79,
          "onset": 778.25,
          "duration": 0.25,
          "velocity": 100
        },
        {
          "pitch": 80,
          "onset": 778.5,
          "duration": 0.25,
          "velocity": 100
        },
        {
          "pitch": 79,
          "onset": 778.75,
          "duration": 0.25,
          "velocity": 100
        },
        {
          "pitch": 77,
          "onset": 779.0,
          "duration": 0.5,
          "velocity": 100
        },
        {
          "pitch": 79,
          "onset": 779.5,
          "duration": 0.5,
          "velocity": 100
        },
        {
          "pitch": 80,
          "onset": 780.0,
          "duration": 1.25,
          "velocity": 100
        },
        {
          "pitch": 80,
          "onset": 781.25,
          "duration": 0.25,
          "velocity": 100
        },
        {
          "pitch": 82,
          "onset": 781.5,
          "duration": 0.25,
          "velocity": 100
        },
        {
          "pitch": 80,
          "onset": 781.75,
          "duration": 0.25,
          "velocity": 100
        },
        {
          "pitch": 79,
          "onset": 782.0,
          "duration": 0.25,
          "velocity": 100
        },
        {
          "pitch": 82,
          "onset": 782.25,
          "duration": 0.25,
          "velocity": 100
        },
        {
          "pitch": 80,
          "onset": 782.5,
          "duration": 0.25,
          "velocity": 100
        },
        {
          "pitch": 84,
          "onset": 782.75,
          "duration": 0.25,
          "velocity": 100
        },
        {
          "pitch": 82,
          "onset": 783.0,
          "duration": 1.25,
          "velocity": 100
        },
        {
          "pitch": 84,
          "onset": 784.25,
          "duration": 0.25,
          "velocity": 100
        },
        {
          "pitch": 79,
          "onset": 784.5,
          "duration": 0.25,
          "velocity": 100
        },
        {
          "pitch": 82,
          "onset": 784.75,
          "duration": 0.25,
          "velocity": 100
        },
        {
          "pitch": 80,
          "onset": 785.0,
          "duration": 1.25,
          "velocity": 100
        },
        {
          "pitch": 84,
          "onset": 786.25,
          "duration": 0.25,
          "velocity": 100
        },
        {
          "pitch": 80,
          "onset": 786.5,
          "duration": 0.25,
          "velocity": 100
        },
        {
          "pitch": 84,
          "onset": 786.75,
          "duration": 0.25,
          "velocity": 100
        },
        {
          "pitch": 78,
          "onset": 787.0,
          "duration": 2.0,
          "velocity": 100
        },
        {
          "pitch": 79,
          "onset": 789.25,
          "duration": 0.25,
          "velocity": 100
        },
        {
          "pitch": 77,
          "onset": 789.5,
          "duration": 0.25,
          "velocity": 100
        },
        {
          "pitch": 79,
          "onset": 789.75,
          "duration": 0.25,
          "velocity": 100
        },
        {
          "pitch": 75,
          "onset": 790.0,
          "duration": 1.0,
          "velocity": 100
        },
        {
          "pitch": 74,
          "onset": 791.25,
          "duration": 0.25,
          "velocity": 100
        },
        {
          "pitch": 72,
          "onset": 791.5,
          "duration": 0.25,
          "velocity": 100
        },
        {
          "pitch": 74,
          "onset": 791.75,
          "duration": 0.25,
          "velocity": 100
        },
        {
          "pitch": 70,
          "onset": 792.0,
          "duration": 1.0,
          "velocity": 100
        },
        {
          "pitch": 69,
          "onset": 793.25,
          "duration": 0.25,
          "velocity": 100
        },
        {
          "pitch": 67,
          "onset": 793.5,
          "duration": 0.25,
          "velocity": 100
        },
        {
          "pitch": 69,
          "onset": 793.75,
          "duration": 0.25,
          "velocity": 100
        },
        {
          "pitch": 66,
          "onset": 794.0,
          "duration": 1.0,
          "velocity": 100
        },
        {
          "pitch": 67,
          "onset": 795.25,
          "duration": 0.25,
          "velocity": 100
        },
        {
          "pitch": 65,
          "onset": 795.5,
          "duration": 0.25,
          "velocity": 100
        },
        {
          "pitch": 67,
          "onset": 795.75,
          "duration": 0.25,
          "velocity": 100
        },
        {
          "pitch": 63,
          "onset": 796.0,
          "duration": 1.0,
          "velocity": 100
        },
        {
          "pitch": 62,
          "onset": 797.0,
          "duration": 1.0,
          "velocity": 100
        },
        {
          "pitch": 62,
          "onset": 798.25,
          "duration": 0.25,
          "velocity": 100
        },
        {
          "pitch": 60,
          "onset": 798.5,
          "duration": 0.25,
          "velocity": 100
        },
        {
          "pitch": 62,
          "onset": 798.75,
          "duration": 0.75,
          "velocity": 100
        },
        {
          "pitch": 72,
          "onset": 813.0,
          "duration": 1.0,
          "velocity": 100
        },
        {
          "pitch": 79,
          "onset": 814.0,
          "duration": 2.0,
          "velocity": 100
        },
        {
          "pitch": 75,
          "onset": 816.0,
          "duration": 1.0,
          "velocity": 100
        },
        {
          "pitch": 77,
          "onset": 817.0,
          "duration": 2.0,
          "velocity": 100
        },
        {
          "pitch": 79,
          "onset": 819.0,
          "duration": 1.0,
          "velocity": 100
        },
        {
          "pitch": 80,
          "onset": 820.0,
          "duration": 2.0,
          "velocity": 100
        },
        {
          "pitch": 77,
          "onset": 822.0,
          "duration": 1.0,
          "velocity": 100
        },
        {
          "pitch": 79,
          "onset": 823.0,
          "duration": 7.0,
          "velocity": 100
        },
        {
          "pitch": 77,
          "onset": 830.0,
          "duration": 3.0,
          "velocity": 100
        },
        {
          "pitch": 75,
          "onset": 833.0,
          "duration": 3.0,
          "velocity": 100
        },
        {
          "pitch": 74,
          "onset": 836.0,
          "duration": 3.0,
          "velocity": 100
        },
        {
          "pitch": 72,
          "onset": 839.0,
          "duration": 0.25,
          "velocity": 100
        },
        {
          "pitch": 75,
          "onset": 839.25,
          "duration": 0.25,
          "velocity": 100
        },
        {
          "pitch": 72,
          "onset": 839.5,
          "duration": 0.25,
          "velocity": 100
        },
        {
          "pitch": 75,
          "onset": 839.75,
          "duration": 0.25,
          "velocity": 100
        },
        {
          "pitch": 74,
          "onset": 840.0,
          "duration": 0.25,
          "velocity": 100
        },
        {
          "pitch": 77,
          "onset": 840.25,
          "duration": 0.25,
          "velocity": 100
        },
        {
          "pitch": 74,
          "onset": 840.5,
          "duration": 0.25,
          "velocity": 100
        },
        {
          "pitch": 77,
          "onset": 840.75,
          "duration": 0.25,
          "velocity": 100
        },
        {
          "pitch": 71,
          "onset": 841.0,
          "duration": 0.125,
          "velocity": 100
        },
        {
          "pitch": 72,
          "onset": 841.125,
          "duration": 0.125,
          "velocity": 100
        },
        {
          "pitch": 71,
          "onset": 841.25,
          "duration": 0.75,
          "velocity": 100
        },
        {
          "pitch": 79,
          "onset": 842.25,
          "duration": 0.25,
          "velocity": 100
        },
        {
          "pitch": 77,
          "onset": 842.5,
          "duration": 0.25,
          "velocity": 100
        },
        {
          "pitch": 79,
          "onset": 842.75,
          "duration": 0.25,
          "velocity": 100
        },
        {
          "pitch": 75,
          "onset": 843.0,
          "duration": 0.25,
          "velocity": 100
        },
        {
          "pitch": 79,
          "onset": 843.25,
          "duration": 0.25,
          "velocity": 100
        },
        {
          "pitch": 72,
          "onset": 843.5,
          "duration": 0.25,
          "velocity": 100
        },
        {
          "pitch": 75,
          "onset": 843.75,
          "duration": 0.25,
          "velocity": 100
        },
        {
          "pitch": 71,
          "onset": 844.0,
          "duration": 1.0,
          "velocity": 100
        },
        {
          "pitch": 71,
          "onset": 845.5,
          "duration": 0.5,
          "velocity": 100
        },
        {
          "pitch": 72,
          "onset": 846.0,
          "duration": 0.5,
          "velocity": 100
        },
        {
          "pitch": 72,
          "onset": 846.5,
          "duration": 0.5,
          "velocity": 100
        },
        {
          "pitch": 74,
          "onset": 847.0,
          "duration": 1.0,
          "velocity": 100
        },
        {
          "pitch": 74,
          "onset": 848.5,
          "duration": 0.5,
          "velocity": 100
        },
        {
          "pitch": 75,
          "onset": 849.0,
          "duration": 0.5,
          "velocity": 100
        },
        {
          "pitch": 75,
          "onset": 849.5,
          "duration": 0.5,
          "velocity": 100
        },
        {
          "pitch": 74,
          "onset": 850.0,
          "duration": 1.0,
          "velocity": 100
        },
        {
          "pitch": 74,
          "onset": 851.5,
          "duration": 0.5,
          "velocity": 110
        },
        {
          "pitch": 79,
          "onset": 852.0,
          "duration": 0.5,
          "velocity": 110
        },
        {
          "pitch": 75,
          "onset": 852.5,
          "duration": 0.5,
          "velocity": 110
        },
        {
          "pitch": 80,
          "onset": 853.0,
          "duration": 1.0,
          "velocity": 110
        },
        {
          "pitch": 71,
          "onset": 854.5,
          "duration": 0.5,
          "velocity": 110
        },
        {
          "pitch": 72,
          "onset": 855.0,
          "duration": 1.25,
          "velocity": 110
        },
        {
          "pitch": 75,
          "onset": 856.25,
          "duration": 0.25,
          "velocity": 110
        },
        {
          "pitch": 74,
          "onset": 856.5,
          "duration": 0.25,
          "velocity": 110
        },
        {
          "pitch": 77,
          "onset": 856.75,
          "duration": 0.25,
          "velocity": 110
        },
        {
          "pitch": 75,
          "onset": 857.0,
          "duration": 0.25,
          "velocity": 110
        },
        {
          "pitch": 79,
          "onset": 857.25,
          "duration": 0.25,
          "velocity": 110
        },
        {
          "pitch": 77,
          "onset": 857.5,
          "duration": 0.25,
          "velocity": 110
        },
        {
          "pitch": 80,
          "onset": 857.75,
          "duration": 0.25,
          "velocity": 110
        },
        {
          "pitch": 74,
          "onset": 858.0,
          "duration": 0.125,
          "velocity": 110
        },
        {
          "pitch": 75,
          "onset": 858.125,
          "duration": 0.125,
          "velocity": 110
        },
        {
          "pitch": 74,
          "onset": 858.25,
          "duration": 0.5,
          "velocity": 110
        },
        {
          "pitch": 72,
          "onset": 858.75,
          "duration": 0.25,
          "velocity": 110
        },
        {
          "pitch": 72,
          "onset": 859.0,
          "duration": 1.0,
          "velocity": 110
        },
        {
          "pitch": 84,
          "onset": 860.25,
          "duration": 0.25,
          "velocity": 110
        },
        {
          "pitch": 82,
          "onset": 860.5,
          "duration": 0.25,
          "velocity": 110
        },
        {
          "pitch": 84,
          "onset": 860.75,
          "duration": 0.25,
          "velocity": 110
        },
        {
          "pitch": 80,
          "onset": 861.0,
          "duration": 0.25,
          "velocity": 110
        },
        {
          "pitch": 84,
          "onset": 861.25,
          "duration": 0.25,
          "velocity": 110
        },
        {
          "pitch": 77,
          "onset": 861.5,
          "duration": 0.25,
          "velocity": 110
        },
        {
          "pitch": 80,
          "onset": 861.75,
          "duration": 0.25,
          "velocity": 110
        },
        {
          "pitch": 76,
          "onset": 862.0,
          "duration": 1.0,
          "velocity": 110
        },
        {
          "pitch": 76,
          "onset": 863.5,
          "duration": 0.5,
          "velocity": 110
        },
        {
          "pitch": 77,
          "onset": 864.0,
          "duration": 0.5,
          "velocity": 110
        },
        {
          "pitch": 77,
          "onset": 864.5,
          "duration": 0.5,
          "velocity": 110
        },
        {
          "pitch": 79,
          "onset": 865.0,
          "duration": 1.0,
          "velocity": 110
        },
        {
          "pitch": 79,
          "onset": 866.5,
          "duration": 0.5,
          "velocity": 110
        },
        {
          "pitch": 80,
          "onset": 867.0,
          "duration": 0.5,
          "velocity": 110
        },
        {
          "pitch": 80,
          "onset": 867.5,
          "duration": 0.5,
          "velocity": 110
        },
        {
          "pitch": 79,
          "onset": 868.0,
          "duration": 0.25,
          "velocity": 110
        },
        {
          "pitch": 82,
          "onset": 868.25,
          "duration": 0.25,
          "velocity": 110
        },
        {
          "pitch": 80,
          "onset": 868.5,
          "duration": 0.25,
          "velocity": 110
        },
        {
          "pitch": 82,
          "onset": 868.75,
          "duration": 0.25,
          "velocity": 110
        },
        {
          "pitch": 79,
          "onset": 869.0,
          "duration": 1.5,
          "velocity": 110
        },
        {
          "pitch": 77,
          "onset": 870.5,
          "duration": 0.75,
          "velocity": 110
        },
        {
          "pitch": 77,
          "onset": 871.25,
          "duration": 0.25,
          "velocity": 110
        },
        {
          "pitch": 76,
          "onset": 871.5,
          "duration": 0.25,
          "velocity": 110
        },
        {
          "pitch": 77,
          "onset": 871.75,
          "duration": 0.25,
          "velocity": 110
        },
        {
          "pitch": 71,
          "onset": 872.0,
          "duration": 1.25,
          "velocity": 110
        },
        {
          "pitch": 74,
          "onset": 873.25,
          "duration": 0.25,
          "velocity": 110
        },
        {
          "pitch": 71,
          "onset": 873.5,
          "duration": 0.25,
          "velocity": 110
        },
        {
          "pitch": 74,
          "onset": 873.75,
          "duration": 0.5,
          "velocity": 110
        },
        {
          "pitch": 72,
          "onset": 874.25,
          "duration": 1.5,
          "velocity": 110
        },
        {
          "pitch": 60,
          "onset": 876.75,
          "duration": 0.25,
          "velocity": 1
        }
      ]
    },
    {
      "role": "v2",
      "notes": [
        {
          "pitch": 67,
          "onset": 24.5,
          "duration": 1.5,
          "velocity": 100
        },
        {
          "pitch": 67,
          "onset": 26.0,
          "duration": 1.0,
          "velocity": 100
        },
        {
          "pitch": 72,
          "onset": 27.5,
          "duration": 1.5,
          "velocity": 100
        },
        {
          "pitch": 68,
          "onset": 29.0,
          "duration": 1.0,
          "velocity": 100
        },
        {
          "pitch": 67,
          "onset": 30.5,
          "duration": 1.0,
          "velocity": 100
        },
        {
          "pitch": 65,
          "onset": 31.5,
          "duration": 1.5,
          "velocity": 100
        },
        {
          "pitch": 68,
          "onset": 33.5,
          "duration": 1.5,
          "velocity": 100
        },
        {
          "pitch": 67,
          "onset": 35.0,
          "duration": 1.0,
          "velocity": 100
        },
        {
          "pitch": 71,
          "onset": 36.5,
          "duration": 1.5,
          "velocity": 100
        },
        {
          "pitch": 72,
          "onset": 38.0,
          "duration": 1.0,
          "velocity": 100
        },
        {
          "pitch": 68,
          "onset": 39.5,
          "duration": 1.5,
          "velocity": 100
        },
        {
          "pitch": 67,
          "onset": 41.0,
          "duration": 1.0,
          "velocity": 100
        },
        {
          "pitch": 68,
          "onset": 42.5,
          "duration": 1.0,
          "velocity": 100
        },
        {
          "pitch": 67,
          "onset": 43.5,
          "duration": 0.5,
          "velocity": 100
        },
        {
          "pitch": 65,
          "onset": 44.0,
          "duration": 1.0,
          "velocity": 100
        },
        {
          "pitch": 65,
          "onset": 45.5,
          "duration": 1.25,
          "velocity": 100
        },
        {
          "pitch": 67,
          "onset": 46.75,
          "duration": 0.25,
          "velocity": 100
        },
        {
          "pitch": 63,
          "onset": 47.0,
          "duration": 1.0,
          "velocity": 100
        },
        {
          "pitch": 67,
          "onset": 48.5,
          "duration": 1.5,
          "velocity": 100
        },
        {
          "pitch": 67,
          "onset": 50.0,
          "duration": 1.0,
          "velocity": 100
        },
        {
          "pitch": 67,
          "onset": 51.5,
          "duration": 1.5,
          "velocity": 100
        },
        {
          "pitch": 65,
          "onset": 53.0,
          "duration": 1.0,
          "velocity": 100
        },
        {
          "pitch": 63,
          "onset": 54.5,
          "duration": 1.5,
          "velocity": 100
        },
        {
          "pitch": 62,
          "onset": 56.0,
          "duration": 1.0,
          "velocity": 100
        },
        {
          "pitch": 63,
          "onset": 57.5,
          "duration": 1.5,
          "velocity": 100
        },
        {
          "pitch": 62,
          "onset": 59.0,
          "duration": 1.0,
          "velocity": 100
        },
        {
          "pitch": 59,
          "onset": 60.5,
          "duration": 1.5,
          "velocity": 100
        },
        {
          "pitch": 60,
          "onset": 62.0,
          "duration": 1.0,
          "velocity": 100
        },
        {
          "pitch": 56,
          "onset": 63.5,
          "duration": 1.0,
          "velocity": 100
        },
        {
          "pitch": 55,
          "onset": 64.5,
          "duration": 1.5,
          "velocity": 100
        },
        {
          "pitch": 56,
          "onset": 66.5,
          "duration": 2.0,
          "velocity": 100
        },
        {
          "pitch": 56,
          "onset": 68.5,
          "duration": 0.5,
          "velocity": 100
        },
        {
          "pitch": 55,
          "onset": 69.0,
          "duration": 0.75,
          "velocity": 100
        },
        {
          "pitch": 53,
          "onset": 69.75,
          "duration": 0.25,
          "velocity": 100
        },
        {
          "pitch": 51,
          "onset": 70.0,
          "duration": 1.0,
          "velocity": 100
        },
        {
          "pitch": 62,
          "onset": 73.5,
          "duration": 0.5,
          "velocity": 100
        },
        {
          "pitch": 67,
          "onset": 74.0,
          "duration": 0.5,
          "velocity": 100
        },
        {
          "pitch": 68,
          "onset": 74.5,
          "duration": 0.5,
          "velocity": 100
        },
        {
          "pitch": 70,
          "onset": 75.0,
          "duration": 0.5,
          "velocity": 100
        },
        {
          "pitch": 72,
          "onset": 75.5,
          "duration": 0.5,
          "velocity": 100
        },
        {
          "pitch": 68,
          "onset": 76.0,
          "duration": 1.5,
          "velocity": 100
        },
        {
          "pitch": 68,
          "onset": 77.5,
          "duration": 0.5,
          "velocity": 100
        },
        {
          "pitch": 67,
          "onset": 78.0,
          "duration": 0.5,
          "velocity": 100
        },
        {
          "pitch": 65,
          "onset": 78.5,
          "duration": 0.5,
          "velocity": 100
        },
        {
          "pitch": 63,
          "onset": 79.0,
          "duration": 0.5,
          "velocity": 100
        },
        {
          "pitch": 60,
          "onset": 79.5,
          "duration": 0.5,
          "velocity": 100
        },
        {
          "pitch": 65,
          "onset": 80.0,
          "duration": 0.5,
          "velocity": 100
        },
        {
          "pitch": 67,
          "onset": 80.5,
          "duration": 0.5,
          "velocity": 100
        },
        {
          "pitch": 68,
          "onset": 81.0,
          "duration": 1.5,
          "velocity": 100
        },
        {
          "pitch": 68,
          "onset": 82.5,
          "duration": 0.5,
          "velocity": 100
        },
        {
          "pitch": 67,
          "onset": 83.0,
          "duration": 0.5,
          "velocity": 100
        },
        {
          "pitch": 72,
          "onset": 83.5,
          "duration": 0.5,
          "velocity": 100
        },
        {
          "pitch": 71,
          "onset": 84.0,
          "duration": 1.0,
          "velocity": 100
        },
        {
          "pitch": 72,
          "onset": 85.0,
          "duration": 1.5,
          "velocity": 100
        },
        {
          "pitch": 68,
          "onset": 86.5,
          "duration": 0.5,
          "velocity": 100
        },
        {
          "pitch": 67,
          "onset": 87.0,
          "duration": 0.5,
          "velocity": 100
        },
        {
          "pitch": 65,
          "onset": 87.5,
          "duration": 0.5,
          "velocity": 100
        },
        {
          "pitch": 63,
          "onset": 88.0,
          "duration": 0.5,
          "velocity": 100
        },
        {
          "pitch": 62,
          "onset": 88.5,
          "duration": 0.5,
          "velocity": 100
        },
        {
          "pitch": 60,
          "onset": 89.0,
          "duration": 2.5,
          "velocity": 100
        },
        {
          "pitch": 59,
          "onset": 91.5,
          "duration": 0.5,
          "velocity": 100
        },
        {
          "pitch": 60,
          "onset": 92.0,
          "duration": 0.5,
          "velocity": 100
        },
        {
          "pitch": 62,
          "onset": 92.5,
          "duration": 0.5,
          "velocity": 100
        },
        {
          "pitch": 63,
          "onset": 93.0,
          "duration": 0.5,
          "velocity": 100
        },
        {
          "pitch": 65,
          "onset": 93.5,
          "duration": 0.5,
          "velocity": 100
        },
        {
          "pitch": 63,
          "onset": 94.0,
          "duration": 1.0,
          "velocity": 100
        },
        {
          "pitch": 60,
          "onset": 95.5,
          "duration": 0.25,
          "velocity": 100
        },
        {
          "pitch": 62,
          "onset": 95.75,
          "duration": 0.25,
          "velocity": 100
        },
        {
          "pitch": 63,
          "onset": 96.0,
          "duration": 0.5,
          "velocity": 100
        },
        {
          "pitch": 63,
          "onset": 96.5,
          "duration": 0.25,
          "velocity": 100
        },
        {
          "pitch": 65,
          "onset": 96.75,
          "duration": 0.25,
          "velocity": 100
        },
        {
          "pitch": 67,
          "onset": 97.0,
          "duration": 2.5,
          "velocity": 100
        },
        {
          "pitch": 65,
          "onset": 99.5,
          "duration": 0.25,
          "velocity": 100
        },
        {
          "pitch": 67,
          "onset": 99.75,
          "duration": 0.25,
          "velocity": 100
        },
        {
          "pitch": 68,
          "onset": 100.0,
          "duration": 2.5,
          "velocity": 100
        },
        {
          "pitch": 67,
          "onset": 102.5,
          "duration": 0.25,
          "velocity": 100
        },
        {
          "pitch": 65,
          "onset": 102.75,
          "duration": 0.25,
          "velocity": 100
        },
        {
          "pitch": 63,
          "onset": 103.0,
          "duration": 1.5,
          "velocity": 100
        },
        {
          "pitch": 62,
          "onset": 104.5,
          "duration": 0.25,
          "velocity": 100
        },
        {
          "pitch": 63,
          "onset": 104.75,
          "duration": 0.25,
          "velocity": 100
        },
        {
          "pitch": 65,
          "onset": 105.0,
          "duration": 0.5,
          "velocity": 100
        },
        {
          "pitch": 68,
          "onset": 105.5,
          "duration": 0.5,
          "velocity": 100
        },
        {
          "pitch": 67,
          "onset": 106.0,
          "duration": 0.5,
          "velocity": 100
        },
        {
          "pitch": 67,
          "onset": 106.5,
          "duration": 0.25,
          "velocity": 100
        },
        {
          "pitch": 69,
          "onset": 106.75,
          "duration": 0.25,
          "velocity": 100
        },
        {
          "pitch": 71,
          "onset": 107.0,
          "duration": 0.5,
          "velocity": 100
        },
        {
          "pitch": 71,
          "onset": 107.5,
          "duration": 0.25,
          "velocity": 100
        },
        {
          "pitch": 72,
          "onset": 107.75,
          "duration": 0.25,
          "velocity": 100
        },
        {
          "pitch": 74,
          "onset": 108.0,
          "duration": 1.0,
          "velocity": 100
        },
        {
          "pitch": 72,
          "onset": 109.0,
          "duration": 0.5,
          "velocity": 100
        },
        {
          "pitch": 75,
          "onset": 109.5,
          "duration": 0.25,
          "velocity": 100
        },
        {
          "pitch": 74,
          "onset": 109.75,
          "duration": 0.25,
          "velocity": 100
        },
        {
          "pitch": 75,
          "onset": 110.0,
          "duration": 0.5,
          "velocity": 100
        },
        {
          "pitch": 72,
          "onset": 110.5,
          "duration": 0.5,
          "velocity": 100
        },
        {
          "pitch": 67,
          "onset": 111.0,
          "duration": 2.0,
          "velocity": 100
        },
        {
          "pitch": 63,
          "onset": 113.5,
          "duration": 0.25,
          "velocity": 100
        },
        {
          "pitch": 62,
          "onset": 113.75,
          "duration": 0.25,
          "velocity": 100
        },
        {
          "pitch": 63,
          "onset": 114.0,
          "duration": 0.5,
          "velocity": 100
        },
        {
          "pitch": 60,
          "onset": 114.5,
          "duration": 0.25,
          "velocity": 100
        },
        {
          "pitch": 59,
          "onset": 114.75,
          "duration": 0.25,
          "velocity": 100
        },
        {
          "pitch": 60,
          "onset": 115.0,
          "duration": 0.5,
          "velocity": 100
        },
        {
          "pitch": 63,
          "onset": 115.5,
          "duration": 0.25,
          "velocity": 100
        },
        {
          "pitch": 62,
          "onset": 115.75,
          "duration": 0.25,
          "velocity": 100
        },
        {
          "pitch": 63,
          "onset": 116.0,
          "duration": 0.5,
          "velocity": 100
        },
        {
          "pitch": 60,
          "onset": 116.5,
          "duration": 0.5,
          "velocity": 100
        },
        {
          "pitch": 60,
          "onset": 117.0,
          "duration": 0.5,
          "velocity": 100
        },
        {
          "pitch": 59,
          "onset": 117.5,
          "duration": 0.5,
          "velocity": 100
        },
        {
          "pitch": 60,
          "onset": 118.0,
          "duration": 1.0,
          "velocity": 100
        },
        {
          "pitch": 67,
          "onset": 120.5,
          "duration": 0.25,
          "velocity": 100
        },
        {
          "pitch": 66,
          "onset": 120.75,
          "duration": 0.25,
          "velocity": 100
        },
        {
          "pitch": 67,
          "onset": 121.0,
          "duration": 0.5,
          "velocity": 100
        },
        {
          "pitch": 74,
          "onset": 121.5,
          "duration": 0.25,
          "velocity": 100
        },
        {
          "pitch": 62,
          "onset": 121.75,
          "duration": 0.25,
          "velocity": 100
        },
        {
          "pitch": 67,
          "onset": 122.0,
          "duration": 1.0,
          "velocity": 100
        },
        {
          "pitch": 67,
          "onset": 123.5,
          "duration": 0.25,
          "velocity": 100
        },
        {
          "pitch": 63,
          "onset": 123.75,
          "duration": 0.25,
          "velocity": 100
        },
        {
          "pitch": 68,
          "onset": 124.0,
          "duration": 1.5,
          "velocity": 100
        },
        {
          "pitch": 65,
          "onset": 125.5,
          "duration": 0.5,
          "velocity": 100
        },
        {
          "pitch": 67,
          "onset": 126.0,
          "duration": 1.0,
          "velocity": 100
        },
        {
          "pitch": 63,
          "onset": 127.0,
          "duration": 1.0,
          "velocity": 100
        },
        {
          "pitch": 74,
          "onset": 129.5,
          "duration": 0.25,
          "velocity": 100
        },
        {
          "pitch": 77,
          "onset": 129.75,
          "duration": 0.25,
          "velocity": 100
        },
        {
          "pitch": 71,
          "onset": 130.0,
          "duration": 1.0,
          "velocity": 100
        },
        {
          "pitch": 67,
          "onset": 132.5,
          "duration": 0.25,
          "velocity": 100
        },
        {
          "pitch": 65,
          "onset": 132.75,
          "duration": 0.25,
          "velocity": 100
        },
        {
          "pitch": 67,
          "onset": 133.0,
          "duration": 1.0,
          "velocity": 100
        },
        {
          "pitch": 67,
          "onset": 135.5,
          "duration": 0.5,
          "velocity": 100
        },
        {
          "pitch": 67,
          "onset": 136.0,
          "duration": 1.0,
          "velocity": 100
        },
        {
          "pitch": 74,
          "onset": 138.5,
          "duration": 0.25,
          "velocity": 100
        },
        {
          "pitch": 69,
          "onset": 138.75,
          "duration": 0.25,
          "velocity": 100
        },
        {
          "pitch": 71,
          "onset": 139.0,
          "duration": 1.0,
          "velocity": 100
        },
        {
          "pitch": 72,
          "onset": 140.5,
          "duration": 0.25,
          "velocity": 100
        },
        {
          "pitch": 69,
          "onset": 140.75,
          "duration": 0.25,
          "velocity": 100
        },
        {
          "pitch": 71,
          "onset": 141.0,
          "duration": 1.0,
          "velocity": 100
        },
        {
          "pitch": 72,
          "onset": 142.0,
          "duration": 1.0,
          "velocity": 100
        },
        {
          "pitch": 62,
          "onset": 143.25,
          "duration": 0.25,
          "velocity": 100
        },
        {
          "pitch": 63,
          "onset": 143.5,
          "duration": 0.25,
          "velocity": 100
        },
        {
          "pitch": 65,
          "onset": 143.75,
          "duration": 0.25,
          "velocity": 100
        },
        {
          "pitch": 67,
          "onset": 144.0,
          "duration": 2.0,
          "velocity": 100
        },
        {
          "pitch": 67,
          "onset": 146.25,
          "duration": 0.25,
          "velocity": 100
        },
        {
          "pitch": 69,
          "onset": 146.5,
          "duration": 0.25,
          "velocity": 100
        },
        {
          "pitch": 71,
          "onset": 146.75,
          "duration": 0.25,
          "velocity": 100
        },
        {
          "pitch": 72,
          "onset": 147.0,
          "duration": 2.0,
          "velocity": 100
        },
        {
          "pitch": 69,
          "onset": 149.25,
          "duration": 0.25,
          "velocity": 100
        },
        {
          "pitch": 71,
          "onset": 149.5,
          "duration": 0.25,
          "velocity": 100
        },
        {
          "pitch": 72,
          "onset": 149.75,
          "duration": 0.25,
          "velocity": 100
        },
        {
          "pitch": 71,
          "onset": 150.0,
          "duration": 0.5,
          "velocity": 100
        },
        {
          "pitch": 67,
          "onset": 150.5,
          "duration": 1.5,
          "velocity": 100
        },
        {
          "pitch": 67,
          "onset": 152.25,
          "duration": 0.25,
          "velocity": 100
        },
        {
          "pitch": 68,
          "onset": 152.5,
          "duration": 0.25,
          "velocity": 100
        },
        {
          "pitch": 70,
          "onset": 152.75,
          "duration": 0.25,
          "velocity": 100
        },
        {
          "pitch": 72,
          "onset": 153.0,
          "duration": 0.5,
          "velocity": 100
        },
        {
          "pitch": 68,
          "onset": 153.5,
          "duration": 0.5,
          "velocity": 100
        },
        {
          "pitch": 67,
          "onset": 154.0,
          "duration": 1.0,
          "velocity": 100
        },
        {
          "pitch": 57,
          "onset": 155.25,
          "duration": 0.25,
          "velocity": 100
        },
        {
          "pitch": 59,
          "onset": 155.5,
          "duration": 0.25,
          "velocity": 100
        },
        {
          "pitch": 60,
          "onset": 155.75,
          "duration": 0.25,
          "velocity": 100
        },
        {
          "pitch": 62,
          "onset": 156.0,
          "duration": 1.0,
          "velocity": 100
        },
        {
          "pitch": 60,
          "onset": 157.0,
          "duration": 1.0,
          "velocity": 100
        },
        {
          "pitch": 62,
          "onset": 158.25,
          "duration": 0.25,
          "velocity": 100
        },
        {
          "pitch": 63,
          "onset": 158.5,
          "duration": 0.25,
          "velocity": 100
        },
        {
          "pitch": 65,
          "onset": 158.75,
          "duration": 0.25,
          "velocity": 100
        },
        {
          "pitch": 67,
          "onset": 159.0,
          "duration": 2.0,
          "velocity": 100
        },
        {
          "pitch": 63,
          "onset": 161.25,
          "duration": 0.25,
          "velocity": 100
        },
        {
          "pitch": 65,
          "onset": 161.5,
          "duration": 0.25,
          "velocity": 100
        },
        {
          "pitch": 67,
          "onset": 161.75,
          "duration": 0.25,
          "velocity": 100
        },
        {
          "pitch": 68,
          "onset": 162.0,
          "duration": 1.0,
          "velocity": 100
        },
        {
          "pitch": 67,
          "onset": 163.0,
          "duration": 2.25,
          "velocity": 100
        },
        {
          "pitch": 68,
          "onset": 165.25,
          "duration": 0.25,
          "velocity": 100
        },
        {
          "pitch": 67,
          "onset": 165.5,
          "duration": 0.25,
          "velocity": 100
        },
        {
          "pitch": 65,
          "onset": 165.75,
          "duration": 0.25,
          "velocity": 100
        },
        {
          "pitch": 63,
          "onset": 166.0,
          "duration": 1.0,
          "velocity": 100
        },
        {
          "pitch": 65,
          "onset": 167.25,
          "duration": 0.25,
          "velocity": 100
        },
        {
          "pitch": 63,
          "onset": 167.5,
          "duration": 0.25,
          "velocity": 100
        },
        {
          "pitch": 62,
          "onset": 167.75,
          "duration": 0.25,
          "velocity": 100
        },
        {
          "pitch": 60,
          "onset": 168.0,
          "duration": 0.25,
          "velocity": 100
        },
        {
          "pitch": 63,
          "onset": 168.25,
          "duration": 0.25,
          "velocity": 100
        },
        {
          "pitch": 62,
          "onset": 168.5,
          "duration": 0.25,
          "velocity": 100
        },
        {
          "pitch": 60,
          "onset": 168.75,
          "duration": 0.25,
          "velocity": 100
        },
        {
          "pitch": 59,
          "onset": 169.0,
          "duration": 1.0,
          "velocity": 100
        },
        {
          "pitch": 72,
          "onset": 170.25,
          "duration": 0.25,
          "velocity": 100
        },
        {
          "pitch": 71,
          "onset": 170.5,
          "duration": 0.25,
          "velocity": 100
        },
        {
          "pitch": 69,
          "onset": 170.75,
          "duration": 0.25,
          "velocity": 100
        },
        {
          "pitch": 67,
          "onset": 171.0,
          "duration": 0.25,
          "velocity": 100
        },
        {
          "pitch": 68,
          "onset": 171.25,
          "duration": 0.25,
          "velocity": 100
        },
        {
          "pitch": 67,
          "onset": 171.5,
          "duration": 0.25,
          "velocity": 100
        },
        {
          "pitch": 70,
          "onset": 171.75,
          "duration": 0.25,
          "velocity": 100
        },
        {
          "pitch": 68,
          "onset": 172.0,
          "duration": 1.0,
          "velocity": 100
        },
        {
          "pitch": 68,
          "onset": 174.25,
          "duration": 0.25,
          "velocity": 100
        },
        {
          "pitch": 67,
          "onset": 174.5,
          "duration": 0.25,
          "velocity": 100
        },
        {
          "pitch": 65,
          "onset": 174.75,
          "duration": 0.25,
          "velocity": 100
        },
        {
          "pitch": 63,
          "onset": 175.0,
          "duration": 1.0,
          "velocity": 100
        },
        {
          "pitch": 67,
          "onset": 177.25,
          "duration": 0.25,
          "velocity": 100
        },
        {
          "pitch": 65,
          "onset": 177.5,
          "duration": 0.25,
          "velocity": 100
        },
        {
          "pitch": 63,
          "onset": 177.75,
          "duration": 0.25,
          "velocity": 100
        },
        {
          "pitch": 62,
          "onset": 178.0,
          "duration": 1.0,
          "velocity": 100
        },
        {
          "pitch": 72,
          "onset": 179.25,
          "duration": 0.25,
          "velocity": 100
        },
        {
          "pitch": 71,
          "onset": 179.5,
          "duration": 0.25,
          "velocity": 100
        },
        {
          "pitch": 69,
          "onset": 179.75,
          "duration": 0.25,
          "velocity": 100
        },
        {
          "pitch": 71,
          "onset": 180.0,
          "duration": 1.0,
          "velocity": 100
        },
        {
          "pitch": 72,
          "onset": 181.0,
          "duration": 1.0,
          "velocity": 100
        },
        {
          "pitch": 67,
          "onset": 182.25,
          "duration": 0.25,
          "velocity": 100
        },
        {
          "pitch": 65,
          "onset": 182.5,
          "duration": 0.25,
          "velocity": 100
        },
        {
          "pitch": 63,
          "onset": 182.75,
          "duration": 0.25,
          "velocity": 100
        },
        {
          "pitch": 65,
          "onset": 183.0,
          "duration": 0.25,
          "velocity": 100
        },
        {
          "pitch": 68,
          "onset": 183.25,
          "duration": 0.25,
          "velocity": 100
        },
        {
          "pitch": 67,
          "onset": 183.5,
          "duration": 0.25,
          "velocity": 100
        },
        {
          "pitch": 65,
          "onset": 183.75,
          "duration": 0.25,
          "velocity": 100
        },
        {
          "pitch": 63,
          "onset": 184.0,
          "duration": 1.0,
          "velocity": 100
        },
        {
          "pitch": 70,
          "onset": 185.25,
          "duration": 0.25,
          "velocity": 100
        },
        {
          "pitch": 68,
          "onset": 185.5,
          "duration": 0.25,
          "velocity": 100
        },
        {
          "pitch": 67,
          "onset": 185.75,
          "duration": 0.25,
          "velocity": 100
        },
        {
          "pitch": 65,
          "onset": 186.0,
          "duration": 0.75,
          "velocity": 100
        },
        {
          "pitch": 63,
          "onset": 186.75,
          "duration": 0.25,
          "velocity": 100
        },
        {
          "pitch": 62,
          "onset": 187.0,
          "duration": 0.75,
          "velocity": 100
        },
        {
          "pitch": 62,
          "onset": 187.75,
          "duration": 0.25,
          "velocity": 100
        },
        {
          "pitch": 60,
          "onset": 188.0,
          "duration": 0.25,
          "velocity": 100
        },
        {
          "pitch": 63,
          "onset": 188.25,
          "duration": 0.25,
          "velocity": 100
        },
        {
          "pitch": 62,
          "onset": 188.5,
          "duration": 0.25,
          "velocity": 100
        },
        {
          "pitch": 60,
          "onset": 188.75,
          "duration": 0.25,
          "velocity": 100
        },
        {
          "pitch": 59,
          "onset": 189.0,
          "duration": 1.0,
          "velocity": 100
        },
        {
          "pitch": 60,
          "onset": 190.0,
          "duration": 1.0,
          "velocity": 100
        },
        {
          "pitch": 62,
          "onset": 193.25,
          "duration": 0.25,
          "velocity": 100
        },
        {
          "pitch": 63,
          "onset": 193.5,
          "duration": 0.25,
          "velocity": 100
        },
        {
          "pitch": 65,
          "onset": 193.75,
          "duration": 0.25,
          "velocity": 100
        },
        {
          "pitch": 67,
          "onset": 194.0,
          "duration": 0.25,
          "velocity": 100
        },
        {
          "pitch": 71,
          "onset": 194.25,
          "duration": 0.25,
          "velocity": 100
        },
        {
          "pitch": 72,
          "onset": 194.5,
          "duration": 0.25,
          "velocity": 100
        },
        {
          "pitch": 74,
          "onset": 194.75,
          "duration": 0.25,
          "velocity": 100
        },
        {
          "pitch": 75,
          "onset": 195.0,
          "duration": 0.25,
          "velocity": 100
        },
        {
          "pitch": 74,
          "onset": 195.25,
          "duration": 0.25,
          "velocity": 100
        },
        {
          "pitch": 72,
          "onset": 195.5,
          "duration": 0.25,
          "velocity": 100
        },
        {
          "pitch": 70,
          "onset": 195.75,
          "duration": 0.25,
          "velocity": 100
        },
        {
          "pitch": 68,
          "onset": 196.0,
          "duration": 0.25,
          "velocity": 100
        },
        {
          "pitch": 60,
          "onset": 196.25,
          "duration": 0.25,
          "velocity": 100
        },
        {
          "pitch": 62,
          "onset": 196.5,
          "duration": 0.25,
          "velocity": 100
        },
        {
          "pitch": 64,
          "onset": 196.75,
          "duration": 0.25,
          "velocity": 100
        },
        {
          "pitch": 65,
          "onset": 197.0,
          "duration": 0.25,
          "velocity": 100
        },
        {
          "pitch": 67,
          "onset": 197.25,
          "duration": 0.25,
          "velocity": 100
        },
        {
          "pitch": 65,
          "onset": 197.5,
          "duration": 0.25,
          "velocity": 100
        },
        {
          "pitch": 63,
          "onset": 197.75,
          "duration": 0.25,
          "velocity": 100
        },
        {
          "pitch": 62,
          "onset": 198.0,
          "duration": 0.25,
          "velocity": 100
        },
        {
          "pitch": 68,
          "onset": 198.25,
          "duration": 0.25,
          "velocity": 100
        },
        {
          "pitch": 67,
          "onset": 198.5,
          "duration": 0.25,
          "velocity": 100
        },
        {
          "pitch": 65,
          "onset": 198.75,
          "duration": 0.25,
          "velocity": 100
        },
        {
          "pitch": 63,
          "onset": 199.0,
          "duration": 0.25,
          "velocity": 100
        },
        {
          "pitch": 65,
          "onset": 199.25,
          "duration": 0.25,
          "velocity": 100
        },
        {
          "pitch": 63,
          "onset": 199.5,
          "duration": 0.25,
          "velocity": 100
        },
        {
          "pitch": 62,
          "onset": 199.75,
          "duration": 0.25,
          "velocity": 100
        },
        {
          "pitch": 60,
          "onset": 200.0,
          "duration": 0.5,
          "velocity": 100
        },
        {
          "pitch": 66,
          "onset": 202.25,
          "duration": 0.25,
          "velocity": 100
        },
        {
          "pitch": 67,
          "onset": 202.5,
          "duration": 0.25,
          "velocity": 100
        },
        {
          "pitch": 69,
          "onset": 202.75,
          "duration": 0.25,
          "velocity": 100
        },
        {
          "pitch": 71,
          "onset": 203.0,
          "duration": 0.25,
          "velocity": 100
        },
        {
          "pitch": 69,
          "onset": 203.25,
          "duration": 0.25,
          "velocity": 100
        },
        {
          "pitch": 71,
          "onset": 203.5,
          "duration": 0.25,
          "velocity": 100
        },
        {
          "pitch": 72,
          "onset": 203.75,
          "duration": 0.25,
          "velocity": 100
        },
        {
          "pitch": 74,
          "onset": 204.0,
          "duration": 1.25,
          "velocity": 100
        },
        {
          "pitch": 67,
          "onset": 205.25,
          "duration": 0.25,
          "velocity": 100
        },
        {
          "pitch": 69,
          "onset": 205.5,
          "duration": 0.25,
          "velocity": 100
        },
        {
          "pitch": 71,
          "onset": 205.75,
          "duration": 0.25,
          "velocity": 100
        },
        {
          "pitch": 72,
          "onset": 206.0,
          "duration": 1.0,
          "velocity": 100
        },
        {
          "pitch": 59,
          "onset": 208.25,
          "duration": 0.25,
          "velocity": 100
        },
        {
          "pitch": 60,
          "onset": 208.5,
          "duration": 0.25,
          "velocity": 100
        },
        {
          "pitch": 62,
          "onset": 208.75,
          "duration": 0.25,
          "velocity": 100
        },
        {
          "pitch": 63,
          "onset": 209.0,
          "duration": 0.25,
          "velocity": 100
        },
        {
          "pitch": 60,
          "onset": 209.25,
          "duration": 0.25,
          "velocity": 100
        },
        {
          "pitch": 62,
          "onset": 209.5,
          "duration": 0.25,
          "velocity": 100
        },
        {
          "pitch": 63,
          "onset": 209.75,
          "duration": 0.25,
          "velocity": 100
        },
        {
          "pitch": 65,
          "onset": 210.0,
          "duration": 1.25,
          "velocity": 100
        },
        {
          "pitch": 68,
          "onset": 211.25,
          "duration": 0.25,
          "velocity": 100
        },
        {
          "pitch": 67,
          "onset": 211.5,
          "duration": 0.25,
          "velocity": 100
        },
        {
          "pitch": 65,
          "onset": 211.75,
          "duration": 0.25,
          "velocity": 100
        },
        {
          "pitch": 63,
          "onset": 212.0,
          "duration": 0.25,
          "velocity": 100
        },
        {
          "pitch": 67,
          "onset": 212.25,
          "duration": 0.25,
          "velocity": 100
        },
        {
          "pitch": 65,
          "onset": 212.5,
          "duration": 0.25,
          "velocity": 100
        },
        {
          "pitch": 63,
          "onset": 212.75,
          "duration": 0.25,
          "velocity": 100
        },
        {
          "pitch": 62,
          "onset": 213.0,
          "duration": 1.0,
          "velocity": 100
        },
        {
          "pitch": 60,
          "onset": 214.0,
          "duration": 0.25,
          "velocity": 100
        },
        {
          "pitch": 60,
          "onset": 214.25,
          "duration": 0.25,
          "velocity": 100
        },
        {
          "pitch": 63,
          "onset": 214.5,
          "duration": 0.25,
          "velocity": 100
        },
        {
          "pitch": 60,
          "onset": 214.75,
          "duration": 0.25,
          "velocity": 100
        },
        {
          "pitch": 67,
          "onset": 215.0,
          "duration": 0.75,
          "velocity": 100
        },
        {
          "pitch": 65,
          "onset": 215.75,
          "duration": 0.25,
          "velocity": 100
        },
        {
          "pitch": 63,
          "onset": 216.0,
          "duration": 0.125,
          "velocity": 100
        },
        {
          "pitch": 65,
          "onset": 216.125,
          "duration": 0.125,
          "velocity": 100
        },
        {
          "pitch": 63,
          "onset": 216.25,
          "duration": 0.75,
          "velocity": 100
        },
        {
          "pitch": 62,
          "onset": 217.0,
          "duration": 1.0,
          "velocity": 100
        },
        {
          "pitch": 67,
          "onset": 218.5,
          "duration": 1.5,
          "velocity": 100
        },
        {
          "pitch": 68,
          "onset": 220.0,
          "duration": 1.0,
          "velocity": 100
        },
        {
          "pitch": 70,
          "onset": 222.0,
          "duration": 1.0,
          "velocity": 100
        },
        {
          "pitch": 63,
          "onset": 223.25,
          "duration": 0.25,
          "velocity": 100
        },
        {
          "pitch": 67,
          "onset": 223.5,
          "duration": 0.25,
          "velocity": 100
        },
        {
          "pitch": 63,
          "onset": 223.75,
          "duration": 0.25,
          "velocity": 100
        },
        {
          "pitch": 68,
          "onset": 224.0,
          "duration": 2.0,
          "velocity": 100
        },
        {
          "pitch": 67,
          "onset": 226.0,
          "duration": 1.0,
          "velocity": 100
        },
        {
          "pitch": 67,
          "onset": 227.25,
          "duration": 0.25,
          "velocity": 100
        },
        {
          "pitch": 71,
          "onset": 227.5,
          "duration": 0.25,
          "velocity": 100
        },
        {
          "pitch": 67,
          "onset": 227.75,
          "duration": 0.25,
          "velocity": 100
        },
        {
          "pitch": 74,
          "onset": 228.0,
          "duration": 0.25,
          "velocity": 100
        },
        {
          "pitch": 71,
          "onset": 228.25,
          "duration": 0.25,
          "velocity": 100
        },
        {
          "pitch": 74,
          "onset": 228.5,
          "duration": 0.25,
          "velocity": 100
        },
        {
          "pitch": 71,
          "onset": 228.75,
          "duration": 0.25,
          "velocity": 100
        },
        {
          "pitch": 72,
          "onset": 229.0,
          "duration": 1.0,
          "velocity": 100
        },
        {
          "pitch": 63,
          "onset": 230.25,
          "duration": 0.25,
          "velocity": 100
        },
        {
          "pitch": 67,
          "onset": 230.5,
          "duration": 0.25,
          "velocity": 100
        },
        {
          "pitch": 63,
          "onset": 230.75,
          "duration": 0.25,
          "velocity": 100
        },
        {
          "pitch": 68,
          "onset": 231.0,
          "duration": 1.0,
          "velocity": 100
        },
        {
          "pitch": 67,
          "onset": 232.0,
          "duration": 1.0,
          "velocity": 100
        },
        {
          "pitch": 63,
          "onset": 233.25,
          "duration": 0.25,
          "velocity": 100
        },
        {
          "pitch": 67,
          "onset": 233.5,
          "duration": 0.25,
          "velocity": 100
        },
        {
          "pitch": 63,
          "onset": 233.75,
          "duration": 0.25,
          "velocity": 100
        },
        {
          "pitch": 68,
          "onset": 234.0,
          "duration": 1.0,
          "velocity": 100
        },
        {
          "pitch": 67,
          "onset": 235.0,
          "duration": 1.0,
          "velocity": 100
        },
        {
          "pitch": 63,
          "onset": 236.25,
          "duration": 0.25,
          "velocity": 100
        },
        {
          "pitch": 67,
          "onset": 236.5,
          "duration": 0.25,
          "velocity": 100
        },
        {
          "pitch": 63,
          "onset": 236.75,
          "duration": 0.25,
          "velocity": 100
        },
        {
          "pitch": 62,
          "onset": 237.0,
          "duration": 1.0,
          "velocity": 100
        },
        {
          "pitch": 60,
          "onset": 238.0,
          "duration": 1.0,
          "velocity": 100
        },
        {
          "pitch": 67,
          "onset": 240.0,
          "duration": 1.0,
          "velocity": 100
        },
        {
          "pitch": 67,
          "onset": 241.0,
          "duration": 1.0,
          "velocity": 100
        },
        {
          "pitch": 67,
          "onset": 243.0,
          "duration": 1.0,
          "velocity": 100
        },
        {
          "pitch": 65,
          "onset": 244.0,
          "duration": 1.0,
          "velocity": 100
        },
        {
          "pitch": 65,
          "onset": 246.0,
          "duration": 1.0,
          "velocity": 100
        },
        {
          "pitch": 60,
          "onset": 247.0,
          "duration": 1.0,
          "velocity": 100
        },
        {
          "pitch": 65,
          "onset": 249.0,
          "duration": 1.0,
          "velocity": 100
        },
        {
          "pitch": 62,
          "onset": 250.0,
          "duration": 1.0,
          "velocity": 100
        },
        {
          "pitch": 62,
          "onset": 252.0,
          "duration": 1.0,
          "velocity": 100
        },
        {
          "pitch": 60,
          "onset": 253.0,
          "duration": 1.0,
          "velocity": 100
        },
        {
          "pitch": 67,
          "onset": 255.0,
          "duration": 1.0,
          "velocity": 100
        },
        {
          "pitch": 67,
          "onset": 256.0,
          "duration": 1.0,
          "velocity": 100
        },
        {
          "pitch": 65,
          "onset": 258.0,
          "duration": 1.0,
          "velocity": 100
        },
        {
          "pitch": 62,
          "onset": 259.0,
          "duration": 1.0,
          "velocity": 100
        },
        {
          "pitch": 62,
          "onset": 261.0,
          "duration": 1.0,
          "velocity": 100
        },
        {
          "pitch": 60,
          "onset": 262.0,
          "duration": 1.0,
          "velocity": 100
        },
        {
          "pitch": 67,
          "onset": 289.5,
          "duration": 0.5,
          "velocity": 110
        },
        {
          "pitch": 69,
          "onset": 290.0,
          "duration": 0.5,
          "velocity": 110
        },
        {
          "pitch": 71,
          "onset": 290.5,
          "duration": 0.5,
          "velocity": 110
        },
        {
          "pitch": 72,
          "onset": 291.0,
          "duration": 1.25,
          "velocity": 110
        },
        {
          "pitch": 73,
          "onset": 292.25,
          "duration": 0.25,
          "velocity": 110
        },
        {
          "pitch": 70,
          "onset": 292.5,
          "duration": 0.25,
          "velocity": 110
        },
        {
          "pitch": 72,
          "onset": 292.75,
          "duration": 0.25,
          "velocity": 110
        },
        {
          "pitch": 68,
          "onset": 293.0,
          "duration": 0.25,
          "velocity": 110
        },
        {
          "pitch": 70,
          "onset": 293.25,
          "duration": 0.25,
          "velocity": 110
        },
        {
          "pitch": 67,
          "onset": 293.5,
          "duration": 0.25,
          "velocity": 110
        },
        {
          "pitch": 68,
          "onset": 293.75,
          "duration": 0.25,
          "velocity": 110
        },
        {
          "pitch": 65,
          "onset": 294.0,
          "duration": 0.25,
          "velocity": 110
        },
        {
          "pitch": 67,
          "onset": 294.25,
          "duration": 0.25,
          "velocity": 110
        },
        {
          "pitch": 64,
          "onset": 294.5,
          "duration": 0.25,
          "velocity": 110
        },
        {
          "pitch": 67,
          "onset": 294.75,
          "duration": 0.25,
          "velocity": 110
        },
        {
          "pitch": 65,
          "onset": 295.0,
          "duration": 0.5,
          "velocity": 110
        },
        {
          "pitch": 69,
          "onset": 297.5,
          "duration": 0.5,
          "velocity": 110
        },
        {
          "pitch": 74,
          "onset": 298.0,
          "duration": 0.25,
          "velocity": 110
        },
        {
          "pitch": 75,
          "onset": 298.25,
          "duration": 0.25,
          "velocity": 110
        },
        {
          "pitch": 72,
          "onset": 298.5,
          "duration": 0.25,
          "velocity": 110
        },
        {
          "pitch": 74,
          "onset": 298.75,
          "duration": 0.25,
          "velocity": 110
        },
        {
          "pitch": 71,
          "onset": 299.0,
          "duration": 0.25,
          "velocity": 110
        },
        {
          "pitch": 72,
          "onset": 299.25,
          "duration": 0.25,
          "velocity": 110
        },
        {
          "pitch": 69,
          "onset": 299.5,
          "duration": 0.25,
          "velocity": 110
        },
        {
          "pitch": 71,
          "onset": 299.75,
          "duration": 0.25,
          "velocity": 110
        },
        {
          "pitch": 67,
          "onset": 300.0,
          "duration": 0.25,
          "velocity": 110
        },
        {
          "pitch": 68,
          "onset": 300.25,
          "duration": 0.25,
          "velocity": 110
        },
        {
          "pitch": 65,
          "onset": 300.5,
          "duration": 0.25,
          "velocity": 110
        },
        {
          "pitch": 67,
          "onset": 300.75,
          "duration": 0.25,
          "velocity": 110
        },
        {
          "pitch": 63,
          "onset": 301.0,
          "duration": 0.5,
          "velocity": 110
        },
        {
          "pitch": 67,
          "onset": 301.5,
          "duration": 0.5,
          "velocity": 110
        },
        {
          "pitch": 72,
          "onset": 302.0,
          "duration": 0.5,
          "velocity": 110
        },
        {
          "pitch": 70,
          "onset": 302.5,
          "duration": 0.5,
          "velocity": 110
        },
        {
          "pitch": 68,
          "onset": 303.0,
          "duration": 0.5,
          "velocity": 110
        },
        {
          "pitch": 67,
          "onset": 303.5,
          "duration": 0.25,
          "velocity": 110
        },
        {
          "pitch": 65,
          "onset": 303.75,
          "duration": 0.25,
          "velocity": 110
        },
        {
          "pitch": 67,
          "onset": 304.0,
          "duration": 0.25,
          "velocity": 110
        },
        {
          "pitch": 68,
          "onset": 304.25,
          "duration": 0.25,
          "velocity": 110
        },
        {
          "pitch": 65,
          "onset": 304.5,
          "duration": 0.25,
          "velocity": 110
        },
        {
          "pitch": 67,
          "onset": 304.75,
          "duration": 0.25,
          "velocity": 110
        },
        {
          "pitch": 63,
          "onset": 305.0,
          "duration": 0.25,
          "velocity": 110
        },
        {
          "pitch": 65,
          "onset": 305.25,
          "duration": 0.25,
          "velocity": 110
        },
        {
          "pitch": 62,
          "onset": 305.5,
          "duration": 0.25,
          "velocity": 110
        },
        {
          "pitch": 63,
          "onset": 305.75,
          "duration": 0.25,
          "velocity": 110
        },
        {
          "pitch": 60,
          "onset": 306.0,
          "duration": 0.5,
          "velocity": 110
        },
        {
          "pitch": 65,
          "onset": 306.5,
          "duration": 0.75,
          "velocity": 110
        },
        {
          "pitch": 67,
          "onset": 307.25,
          "duration": 0.25,
          "velocity": 110
        },
        {
          "pitch": 63,
          "onset": 307.5,
          "duration": 0.25,
          "velocity": 110
        },
        {
          "pitch": 65,
          "onset": 307.75,
          "duration": 0.25,
          "velocity": 110
        },
        {
          "pitch": 62,
          "onset": 308.0,
          "duration": 0.5,
          "velocity": 110
        },
        {
          "pitch": 59,
          "onset": 308.5,
          "duration": 0.5,
          "velocity": 110
        },
        {
          "pitch": 60,
          "onset": 309.0,
          "duration": 0.5,
          "velocity": 110
        },
        {
          "pitch": 59,
          "onset": 309.5,
          "duration": 0.5,
          "velocity": 110
        },
        {
          "pitch": 60,
          "onset": 310.0,
          "duration": 2.0,
          "velocity": 110
        },
        {
          "pitch": 60,
          "onset": 312.0,
          "duration": 0.25,
          "velocity": 100
        },
        {
          "pitch": 63,
          "onset": 312.25,
          "duration": 0.25,
          "velocity": 100
        },
        {
          "pitch": 62,
          "onset": 312.5,
          "duration": 0.25,
          "velocity": 100
        },
        {
          "pitch": 60,
          "onset": 312.75,
          "duration": 0.25,
          "velocity": 100
        },
        {
          "pitch": 67,
          "onset": 313.0,
          "duration": 2.0,
          "velocity": 100
        },
        {
          "pitch": 63,
          "onset": 315.0,
          "duration": 1.0,
          "velocity": 100
        },
        {
          "pitch": 65,
          "onset": 316.0,
          "duration": 1.25,
          "velocity": 100
        },
        {
          "pitch": 68,
          "onset": 317.25,
          "duration": 0.25,
          "velocity": 100
        },
        {
          "pitch": 67,
          "onset": 317.5,
          "duration": 0.25,
          "velocity": 100
        },
        {
          "pitch": 65,
          "onset": 317.75,
          "duration": 0.25,
          "velocity": 100
        },
        {
          "pitch": 67,
          "onset": 318.0,
          "duration": 0.25,
          "velocity": 100
        },
        {
          "pitch": 70,
          "onset": 318.25,
          "duration": 0.25,
          "velocity": 100
        },
        {
          "pitch": 68,
          "onset": 318.5,
          "duration": 0.25,
          "velocity": 100
        },
        {
          "pitch": 67,
          "onset": 318.75,
          "duration": 0.25,
          "velocity": 100
        },
        {
          "pitch": 68,
          "onset": 319.0,
          "duration": 1.25,
          "velocity": 100
        },
        {
          "pitch": 70,
          "onset": 320.25,
          "duration": 0.25,
          "velocity": 100
        },
        {
          "pitch": 68,
          "onset": 320.5,
          "duration": 0.25,
          "velocity": 100
        },
        {
          "pitch": 67,
          "onset": 320.75,
          "duration": 0.25,
          "velocity": 100
        },
        {
          "pitch": 65,
          "onset": 321.0,
          "duration": 1.0,
          "velocity": 100
        },
        {
          "pitch": 67,
          "onset": 322.0,
          "duration": 1.25,
          "velocity": 100
        },
        {
          "pitch": 67,
          "onset": 323.25,
          "duration": 0.25,
          "velocity": 100
        },
        {
          "pitch": 65,
          "onset": 323.5,
          "duration": 0.25,
          "velocity": 100
        },
        {
          "pitch": 63,
          "onset": 323.75,
          "duration": 0.25,
          "velocity": 100
        },
        {
          "pitch": 62,
          "onset": 324.0,
          "duration": 0.25,
          "velocity": 100
        },
        {
          "pitch": 65,
          "onset": 324.25,
          "duration": 0.25,
          "velocity": 100
        },
        {
          "pitch": 63,
          "onset": 324.5,
          "duration": 0.25,
          "velocity": 100
        },
        {
          "pitch": 62,
          "onset": 324.75,
          "duration": 0.25,
          "velocity": 100
        },
        {
          "pitch": 63,
          "onset": 325.0,
          "duration": 1.25,
          "velocity": 100
        },
        {
          "pitch": 63,
          "onset": 326.25,
          "duration": 0.25,
          "velocity": 100
        },
        {
          "pitch": 62,
          "onset": 326.5,
          "duration": 0.25,
          "velocity": 100
        },
        {
          "pitch": 60,
          "onset": 326.75,
          "duration": 0.25,
          "velocity": 100
        },
        {
          "pitch": 59,
          "onset": 327.0,
          "duration": 0.25,
          "velocity": 100
        },
        {
          "pitch": 62,
          "onset": 327.25,
          "duration": 0.25,
          "velocity": 100
        },
        {
          "pitch": 60,
          "onset": 327.5,
          "duration": 0.25,
          "velocity": 100
        },
        {
          "pitch": 59,
          "onset": 327.75,
          "duration": 0.25,
          "velocity": 100
        },
        {
          "pitch": 60,
          "onset": 328.0,
          "duration": 1.25,
          "velocity": 100
        },
        {
          "pitch": 58,
          "onset": 329.25,
          "duration": 0.25,
          "velocity": 100
        },
        {
          "pitch": 56,
          "onset": 329.5,
          "duration": 0.25,
          "velocity": 100
        },
        {
          "pitch": 55,
          "onset": 329.75,
          "duration": 0.25,
          "velocity": 100
        },
        {
          "pitch": 53,
          "onset": 330.0,
          "duration": 0.25,
          "velocity": 100
        },
        {
          "pitch": 56,
          "onset": 330.25,
          "duration": 0.25,
          "velocity": 100
        },
        {
          "pitch": 55,
          "onset": 330.5,
          "duration": 0.25,
          "velocity": 100
        },
        {
          "pitch": 53,
          "onset": 330.75,
          "duration": 0.25,
          "velocity": 100
        },
        {
          "pitch": 55,
          "onset": 331.0,
          "duration": 1.25,
          "velocity": 100
        },
        {
          "pitch": 55,
          "onset": 332.25,
          "duration": 0.25,
          "velocity": 100
        },
        {
          "pitch": 53,
          "onset": 332.5,
          "duration": 0.25,
          "velocity": 100
        },
        {
          "pitch": 51,
          "onset": 332.75,
          "duration": 0.25,
          "velocity": 100
        },
        {
          "pitch": 50,
          "onset": 333.0,
          "duration": 0.25,
          "velocity": 100
        },
        {
          "pitch": 53,
          "onset": 333.25,
          "duration": 0.25,
          "velocity": 100
        },
        {
          "pitch": 51,
          "onset": 333.5,
          "duration": 0.25,
          "velocity": 100
        },
        {
          "pitch": 50,
          "onset": 333.75,
          "duration": 0.25,
          "velocity": 100
        },
        {
          "pitch": 51,
          "onset": 334.0,
          "duration": 1.25,
          "velocity": 100
        },
        {
          "pitch": 53,
          "onset": 335.25,
          "duration": 0.25,
          "velocity": 100
        },
        {
          "pitch": 51,
          "onset": 335.5,
          "duration": 0.25,
          "velocity": 100
        },
        {
          "pitch": 50,
          "onset": 335.75,
          "duration": 0.25,
          "velocity": 100
        },
        {
          "pitch": 48,
          "onset": 336.0,
          "duration": 1.0,
          "velocity": 100
        },
        {
          "pitch": 60,
          "onset": 358.0,
          "duration": 0.5,
          "velocity": 100
        },
        {
          "pitch": 60,
          "onset": 359.0,
          "duration": 0.25,
          "velocity": 100
        },
        {
          "pitch": 63,
          "onset": 359.25,
          "duration": 0.25,
          "velocity": 100
        },
        {
          "pitch": 72,
          "onset": 360.0,
          "duration": 0.25,
          "velocity": 100
        },
        {
          "pitch": 75,
          "onset": 360.25,
          "duration": 0.25,
          "velocity": 100
        },
        {
          "pitch": 67,
          "onset": 362.0,
          "duration": 0.25,
          "velocity": 100
        },
        {
          "pitch": 71,
          "onset": 362.25,
          "duration": 0.25,
          "velocity": 100
        },
        {
          "pitch": 63,
          "onset": 363.0,
          "duration": 0.25,
          "velocity": 100
        },
        {
          "pitch": 72,
          "onset": 363.25,
          "duration": 0.25,
          "velocity": 100
        },
        {
          "pitch": 65,
          "onset": 365.0,
          "duration": 0.25,
          "velocity": 100
        },
        {
          "pitch": 68,
          "onset": 365.25,
          "duration": 0.25,
          "velocity": 100
        },
        {
          "pitch": 67,
          "onset": 366.0,
          "duration": 0.25,
          "velocity": 100
        },
        {
          "pitch": 75,
          "onset": 366.25,
          "duration": 0.25,
          "velocity": 100
        },
        {
          "pitch": 68,
          "onset": 368.0,
          "duration": 0.25,
          "velocity": 100
        },
        {
          "pitch": 72,
          "onset": 368.25,
          "duration": 0.25,
          "velocity": 100
        },
        {
          "pitch": 65,
          "onset": 369.0,
          "duration": 0.25,
          "velocity": 100
        },
        {
          "pitch": 74,
          "onset": 369.25,
          "duration": 0.25,
          "velocity": 100
        },
        {
          "pitch": 67,
          "onset": 371.0,
          "duration": 0.25,
          "velocity": 100
        },
        {
          "pitch": 71,
          "onset": 371.25,
          "duration": 0.25,
          "velocity": 100
        },
        {
          "pitch": 62,
          "onset": 372.0,
          "duration": 0.25,
          "velocity": 100
        },
        {
          "pitch": 74,
          "onset": 372.25,
          "duration": 0.25,
          "velocity": 100
        },
        {
          "pitch": 63,
          "onset": 374.0,
          "duration": 0.25,
          "velocity": 100
        },
        {
          "pitch": 67,
          "onset": 374.25,
          "duration": 0.25,
          "velocity": 100
        },
        {
          "pitch": 59,
          "onset": 375.0,
          "duration": 0.25,
          "velocity": 100
        },
        {
          "pitch": 67,
          "onset": 375.25,
          "duration": 0.25,
          "velocity": 100
        },
        {
          "pitch": 60,
          "onset": 377.0,
          "duration": 0.25,
          "velocity": 100
        },
        {
          "pitch": 63,
          "onset": 377.25,
          "duration": 0.25,
          "velocity": 100
        },
        {
          "pitch": 53,
          "onset": 378.0,
          "duration": 0.25,
          "velocity": 100
        },
        {
          "pitch": 62,
          "onset": 378.25,
          "duration": 0.25,
          "velocity": 100
        },
        {
          "pitch": 67,
          "onset": 380.0,
          "duration": 0.25,
          "velocity": 100
        },
        {
          "pitch": 72,
          "onset": 380.25,
          "duration": 0.25,
          "velocity": 100
        },
        {
          "pitch": 55,
          "onset": 381.0,
          "duration": 0.25,
          "velocity": 100
        },
        {
          "pitch": 72,
          "onset": 383.0,
          "duration": 0.25,
          "velocity": 100
        },
        {
          "pitch": 75,
          "onset": 383.25,
          "duration": 0.25,
          "velocity": 100
        },
        {
          "pitch": 60,
          "onset": 384.5,
          "duration": 0.5,
          "velocity": 100
        },
        {
          "pitch": 63,
          "onset": 384.5,
          "duration": 0.5,
          "velocity": 100
        },
        {
          "pitch": 66,
          "onset": 386.25,
          "duration": 0.25,
          "velocity": 100
        },
        {
          "pitch": 67,
          "onset": 386.5,
          "duration": 1.0,
          "velocity": 100
        },
        {
          "pitch": 62,
          "onset": 386.75,
          "duration": 0.25,
          "velocity": 100
        },
        {
          "pitch": 63,
          "onset": 387.0,
          "duration": 0.5,
          "velocity": 100
        },
        {
          "pitch": 60,
          "onset": 387.5,
          "duration": 0.5,
          "velocity": 100
        },
        {
          "pitch": 63,
          "onset": 387.5,
          "duration": 0.5,
          "velocity": 100
        },
        {
          "pitch": 64,
          "onset": 389.25,
          "duration": 0.25,
          "velocity": 100
        },
        {
          "pitch": 65,
          "onset": 389.5,
          "duration": 0.5,
          "velocity": 100
        },
        {
          "pitch": 60,
          "onset": 389.75,
          "duration": 0.75,
          "velocity": 100
        },
        {
          "pitch": 63,
          "onset": 390.0,
          "duration": 0.5,
          "velocity": 100
        },
        {
          "pitch": 62,
          "onset": 390.5,
          "duration": 0.5,
          "velocity": 100
        },
        {
          "pitch": 67,
          "onset": 390.5,
          "duration": 0.5,
          "velocity": 100
        },
        {
          "pitch": 67,
          "onset": 392.25,
          "duration": 0.25,
          "velocity": 100
        },
        {
          "pitch": 68,
          "onset": 392.5,
          "duration": 1.0,
          "velocity": 100
        },
        {
          "pitch": 63,
          "onset": 392.75,
          "duration": 0.25,
          "velocity": 100
        },
        {
          "pitch": 65,
          "onset": 393.0,
          "duration": 0.5,
          "velocity": 100
        },
        {
          "pitch": 65,
          "onset": 393.5,
          "duration": 0.5,
          "velocity": 100
        },
        {
          "pitch": 68,
          "onset": 393.5,
          "duration": 0.5,
          "velocity": 100
        },
        {
          "pitch": 66,
          "onset": 395.25,
          "duration": 0.25,
          "velocity": 100
        },
        {
          "pitch": 67,
          "onset": 395.5,
          "duration": 0.5,
          "velocity": 100
        },
        {
          "pitch": 62,
          "onset": 395.75,
          "duration": 0.75,
          "velocity": 100
        },
        {
          "pitch": 65,
          "onset": 396.0,
          "duration": 0.5,
          "velocity": 100
        },
        {
          "pitch": 62,
          "onset": 396.5,
          "duration": 0.5,
          "velocity": 100
        },
        {
          "pitch": 65,
          "onset": 396.5,
          "duration": 0.5,
          "velocity": 100
        },
        {
          "pitch": 71,
          "onset": 398.25,
          "duration": 0.25,
          "velocity": 100
        },
        {
          "pitch": 72,
          "onset": 398.5,
          "duration": 0.5,
          "velocity": 100
        },
        {
          "pitch": 66,
          "onset": 398.75,
          "duration": 0.25,
          "velocity": 100
        },
        {
          "pitch": 67,
          "onset": 399.0,
          "duration": 0.5,
          "velocity": 100
        },
        {
          "pitch": 62,
          "onset": 399.5,
          "duration": 0.5,
          "velocity": 100
        },
        {
          "pitch": 67,
          "onset": 399.5,
          "duration": 0.5,
          "velocity": 100
        },
        {
          "pitch": 71,
          "onset": 401.25,
          "duration": 0.25,
          "velocity": 100
        },
        {
          "pitch": 72,
          "onset": 401.5,
          "duration": 1.0,
          "velocity": 100
        },
        {
          "pitch": 67,
          "onset": 401.75,
          "duration": 0.25,
          "velocity": 100
        },
        {
          "pitch": 68,
          "onset": 402.0,
          "duration": 0.5,
          "velocity": 100
        },
        {
          "pitch": 68,
          "onset": 402.5,
          "duration": 0.5,
          "velocity": 100
        },
        {
          "pitch": 72,
          "onset": 402.5,
          "duration": 0.5,
          "velocity": 100
        },
        {
          "pitch": 71,
          "onset": 404.25,
          "duration": 0.25,
          "velocity": 100
        },
        {
          "pitch": 72,
          "onset": 404.5,
          "duration": 1.0,
          "velocity": 100
        },
        {
          "pitch": 66,
          "onset": 404.75,
          "duration": 0.25,
          "velocity": 100
        },
        {
          "pitch": 67,
          "onset": 405.0,
          "duration": 0.5,
          "velocity": 100
        },
        {
          "pitch": 67,
          "onset": 405.5,
          "duration": 0.5,
          "velocity": 100
        },
        {
          "pitch": 71,
          "onset": 405.5,
          "duration": 0.5,
          "velocity": 100
        },
        {
          "pitch": 71,
          "onset": 407.25,
          "duration": 0.25,
          "velocity": 100
        },
        {
          "pitch": 72,
          "onset": 407.5,
          "duration": 1.0,
          "velocity": 100
        },
        {
          "pitch": 66,
          "onset": 407.75,
          "duration": 0.25,
          "velocity": 100
        },
        {
          "pitch": 67,
          "onset": 408.0,
          "duration": 0.6562,
          "velocity": 100
        },
        {
          "pitch": 63,
          "onset": 408.6562,
          "duration": 0.1562,
          "velocity": 100
        },
        {
          "pitch": 65,
          "onset": 408.6562,
          "duration": 0.1562,
          "velocity": 100
        },
        {
          "pitch": 63,
          "onset": 408.8438,
          "duration": 0.1562,
          "velocity": 100
        },
        {
          "pitch": 63,
          "onset": 409.0,
          "duration": 0.1562,
          "velocity": 100
        },
        {
          "pitch": 62,
          "onset": 409.1562,
          "duration": 0.1562,
          "velocity": 100
        },
        {
          "pitch": 60,
          "onset": 409.3438,
          "duration": 0.1562,
          "velocity": 100
        },
        {
          "pitch": 60,
          "onset": 409.5,
          "duration": 0.1562,
          "velocity": 100
        },
        {
          "pitch": 59,
          "onset": 409.6562,
          "duration": 0.1562,
          "velocity": 100
        },
        {
          "pitch": 57,
          "onset": 409.8438,
          "duration": 0.1562,
          "velocity": 100
        },
        {
          "pitch": 55,
          "onset": 410.0,
          "duration": 0.1562,
          "velocity": 100
        },
        {
          "pitch": 57,
          "onset": 410.1562,
          "duration": 0.1562,
          "velocity": 100
        },
        {
          "pitch": 59,
          "onset": 410.3438,
          "duration": 0.1562,
          "velocity": 100
        },
        {
          "pitch": 59,
          "onset": 410.5,
          "duration": 0.1562,
          "velocity": 100
        },
        {
          "pitch": 60,
          "onset": 410.6562,
          "duration": 0.1562,
          "velocity": 100
        },
        {
          "pitch": 62,
          "onset": 410.8438,
          "duration": 0.1562,
          "velocity": 100
        },
        {
          "pitch": 60,
          "onset": 411.0,
          "duration": 0.1562,
          "velocity": 100
        },
        {
          "pitch": 62,
          "onset": 411.1562,
          "duration": 0.1562,
          "velocity": 100
        },
        {
          "pitch": 63,
          "onset": 411.3438,
          "duration": 0.1562,
          "velocity": 100
        },
        {
          "pitch": 63,
          "onset": 411.5,
          "duration": 0.1562,
          "velocity": 100
        },
        {
          "pitch": 65,
          "onset": 411.6562,
          "duration": 0.1562,
          "velocity": 100
        },
        {
          "pitch": 67,
          "onset": 411.8438,
          "duration": 0.1562,
          "velocity": 100
        },
        {
          "pitch": 65,
          "onset": 412.0,
          "duration": 0.1562,
          "velocity": 100
        },
        {
          "pitch": 67,
          "onset": 412.1562,
          "duration": 0.1562,
          "velocity": 100
        },
        {
          "pitch": 68,
          "onset": 412.3438,
          "duration": 0.1562,
          "velocity": 100
        },
        {
          "pitch": 68,
          "onset": 412.5,
          "duration": 0.1562,
          "velocity": 100
        },
        {
          "pitch": 67,
          "onset": 412.6562,
          "duration": 0.1562,
          "velocity": 100
        },
        {
          "pitch": 65,
          "onset": 412.8438,
          "duration": 0.1562,
          "velocity": 100
        },
        {
          "pitch": 65,
          "onset": 413.0,
          "duration": 0.1562,
          "velocity": 100
        },
        {
          "pitch": 63,
          "onset": 413.1562,
          "duration": 0.1562,
          "velocity": 100
        },
        {
          "pitch": 62,
          "onset": 413.3438,
          "duration": 0.1562,
          "velocity": 100
        },
        {
          "pitch": 62,
          "onset": 413.5,
          "duration": 0.1562,
          "velocity": 100
        },
        {
          "pitch": 63,
          "onset": 413.6562,
          "duration": 0.1562,
          "velocity": 100
        },
        {
          "pitch": 65,
          "onset": 413.8438,
          "duration": 0.1562,
          "velocity": 100
        },
        {
          "pitch": 65,
          "onset": 414.0,
          "duration": 0.1562,
          "velocity": 100
        },
        {
          "pitch": 67,
          "onset": 414.1562,
          "duration": 0.1562,
          "velocity": 100
        },
        {
          "pitch": 68,
          "onset": 414.3438,
          "duration": 0.1562,
          "velocity": 100
        },
        {
          "pitch": 67,
          "onset": 414.5,
          "duration": 0.3125,
          "velocity": 100
        },
        {
          "pitch": 65,
          "onset": 414.8438,
          "duration": 0.1562,
          "velocity": 100
        },
        {
          "pitch": 63,
          "onset": 415.0,
          "duration": 0.5,
          "velocity": 100
        },
        {
          "pitch": 72,
          "onset": 415.5,
          "duration": 0.1562,
          "velocity": 100
        },
        {
          "pitch": 70,
          "onset": 415.6562,
          "duration": 0.1562,
          "velocity": 100
        },
        {
          "pitch": 68,
          "onset": 415.8438,
          "duration": 0.1562,
          "velocity": 100
        },
        {
          "pitch": 68,
          "onset": 416.0,
          "duration": 0.1562,
          "velocity": 100
        },
        {
          "pitch": 67,
          "onset": 416.1562,
          "duration": 0.1562,
          "velocity": 100
        },
        {
          "pitch": 65,
          "onset": 416.3438,
          "duration": 0.1562,
          "velocity": 100
        },
        {
          "pitch": 65,
          "onset": 416.5,
          "duration": 0.1562,
          "velocity": 100
        },
        {
          "pitch": 63,
          "onset": 416.6562,
          "duration": 0.1562,
          "velocity": 100
        },
        {
          "pitch": 62,
          "onset": 416.8438,
          "duration": 0.1562,
          "velocity": 100
        },
        {
          "pitch": 62,
          "onset": 417.0,
          "duration": 0.1562,
          "velocity": 100
        },
        {
          "pitch": 63,
          "onset": 417.1562,
          "duration": 0.1562,
          "velocity": 100
        },
        {
          "pitch": 65,
          "onset": 417.3438,
          "duration": 0.1562,
          "velocity": 100
        },
        {
          "pitch": 65,
          "onset": 417.5,
          "duration": 0.1562,
          "velocity": 100
        },
        {
          "pitch": 67,
          "onset": 417.6562,
          "duration": 0.1562,
          "velocity": 100
        },
        {
          "pitch": 68,
          "onset": 417.8438,
          "duration": 0.1562,
          "velocity": 100
        },
        {
          "pitch": 67,
          "onset": 418.0,
          "duration": 0.1562,
          "velocity": 100
        },
        {
          "pitch": 69,
          "onset": 418.1562,
          "duration": 0.1562,
          "velocity": 100
        },
        {
          "pitch": 71,
          "onset": 418.3438,
          "duration": 0.1562,
          "velocity": 100
        },
        {
          "pitch": 71,
          "onset": 418.5,
          "duration": 0.1562,
          "velocity": 100
        },
        {
          "pitch": 72,
          "onset": 418.6562,
          "duration": 0.1562,
          "velocity": 100
        },
        {
          "pitch": 74,
          "onset": 418.8438,
          "duration": 0.1562,
          "velocity": 100
        },
        {
          "pitch": 74,
          "onset": 419.0,
          "duration": 0.1562,
          "velocity": 100
        },
        {
          "pitch": 75,
          "onset": 419.1562,
          "duration": 0.1562,
          "velocity": 100
        },
        {
          "pitch": 77,
          "onset": 419.3438,
          "duration": 0.1562,
          "velocity": 100
        },
        {
          "pitch": 77,
          "onset": 419.5,
          "duration": 0.1562,
          "velocity": 100
        },
        {
          "pitch": 79,
          "onset": 419.6562,
          "duration": 0.1562,
          "velocity": 100
        },
        {
          "pitch": 80,
          "onset": 419.8438,
          "duration": 0.1562,
          "velocity": 100
        },
        {
          "pitch": 80,
          "onset": 420.0,
          "duration": 0.1562,
          "velocity": 100
        },
        {
          "pitch": 79,
          "onset": 420.1562,
          "duration": 0.1562,
          "velocity": 100
        },
        {
          "pitch": 77,
          "onset": 420.3438,
          "duration": 0.1562,
          "velocity": 100
        },
        {
          "pitch": 77,
          "onset": 420.5,
          "duration": 0.1562,
          "velocity": 100
        },
        {
          "pitch": 75,
          "onset": 420.6562,
          "duration": 0.1562,
          "velocity": 100
        },
        {
          "pitch": 74,
          "onset": 420.8438,
          "duration": 0.1562,
          "velocity": 100
        },
        {
          "pitch": 60,
          "onset": 421.0,
          "duration": 0.1562,
          "velocity": 100
        },
        {
          "pitch": 62,
          "onset": 421.1562,
          "duration": 0.1562,
          "velocity": 100
        },
        {
          "pitch": 63,
          "onset": 421.3438,
          "duration": 0.1562,
          "velocity": 100
        },
        {
          "pitch": 63,
          "onset": 421.5,
          "duration": 0.1562,
          "velocity": 100
        },
        {
          "pitch": 65,
          "onset": 421.6562,
          "duration": 0.1562,
          "velocity": 100
        },
        {
          "pitch": 67,
          "onset": 421.8438,
          "duration": 0.1562,
          "velocity": 100
        },
        {
          "pitch": 67,
          "onset": 422.0,
          "duration": 0.1562,
          "velocity": 100
        },
        {
          "pitch": 69,
          "onset": 422.1562,
          "duration": 0.1562,
          "velocity": 100
        },
        {
          "pitch": 71,
          "onset": 422.3438,
          "duration": 0.1562,
          "velocity": 100
        },
        {
          "pitch": 71,
          "onset": 422.5,
          "duration": 0.1562,
          "velocity": 100
        },
        {
          "pitch": 72,
          "onset": 422.6562,
          "duration": 0.1562,
          "velocity": 100
        },
        {
          "pitch": 74,
          "onset": 422.8438,
          "duration": 0.1562,
          "velocity": 100
        },
        {
          "pitch": 74,
          "onset": 423.0,
          "duration": 0.1562,
          "velocity": 100
        },
        {
          "pitch": 75,
          "onset": 423.1562,
          "duration": 0.1562,
          "velocity": 100
        },
        {
          "pitch": 77,
          "onset": 423.3438,
          "duration": 0.1562,
          "velocity": 100
        },
        {
          "pitch": 75,
          "onset": 423.5,
          "duration": 0.1562,
          "velocity": 100
        },
        {
          "pitch": 77,
          "onset": 423.6562,
          "duration": 0.1562,
          "velocity": 100
        },
        {
          "pitch": 74,
          "onset": 423.8438,
          "duration": 0.1562,
          "velocity": 100
        },
        {
          "pitch": 75,
          "onset": 424.0,
          "duration": 0.5,
          "velocity": 100
        },
        {
          "pitch": 79,
          "onset": 424.5,
          "duration": 0.1562,
          "velocity": 100
        },
        {
          "pitch": 77,
          "onset": 424.6562,
          "duration": 0.1562,
          "velocity": 100
        },
        {
          "pitch": 75,
          "onset": 424.8438,
          "duration": 0.1562,
          "velocity": 100
        },
        {
          "pitch": 75,
          "onset": 425.0,
          "duration": 0.1562,
          "velocity": 100
        },
        {
          "pitch": 74,
          "onset": 425.1562,
          "duration": 0.1562,
          "velocity": 100
        },
        {
          "pitch": 72,
          "onset": 425.3438,
          "duration": 0.1562,
          "velocity": 100
        },
        {
          "pitch": 67,
          "onset": 432.0,
          "duration": 3.0,
          "velocity": 100
        },
        {
          "pitch": 72,
          "onset": 435.5,
          "duration": 0.5,
          "velocity": 100
        },
        {
          "pitch": 70,
          "onset": 436.0,
          "duration": 0.125,
          "velocity": 100
        },
        {
          "pitch": 68,
          "onset": 436.125,
          "duration": 1.875,
          "velocity": 100
        },
        {
          "pitch": 67,
          "onset": 438.5,
          "duration": 0.5,
          "velocity": 100
        },
        {
          "pitch": 65,
          "onset": 439.0,
          "duration": 0.5,
          "velocity": 100
        },
        {
          "pitch": 63,
          "onset": 439.5,
          "duration": 0.25,
          "velocity": 100
        },
        {
          "pitch": 62,
          "onset": 439.75,
          "duration": 0.25,
          "velocity": 100
        },
        {
          "pitch": 63,
          "onset": 440.0,
          "duration": 0.5,
          "velocity": 100
        },
        {
          "pitch": 65,
          "onset": 440.5,
          "duration": 0.25,
          "velocity": 100
        },
        {
          "pitch": 67,
          "onset": 440.75,
          "duration": 0.25,
          "velocity": 100
        },
        {
          "pitch": 68,
          "onset": 441.0,
          "duration": 1.0,
          "velocity": 100
        },
        {
          "pitch": 67,
          "onset": 442.0,
          "duration": 2.0,
          "velocity": 100
        },
        {
          "pitch": 65,
          "onset": 444.5,
          "duration": 0.5,
          "velocity": 100
        },
        {
          "pitch": 67,
          "onset": 445.0,
          "duration": 1.5,
          "velocity": 100
        },
        {
          "pitch": 65,
          "onset": 446.5,
          "duration": 0.25,
          "velocity": 100
        },
        {
          "pitch": 67,
          "onset": 446.75,
          "duration": 0.25,
          "velocity": 100
        },
        {
          "pitch": 68,
          "onset": 447.0,
          "duration": 1.5,
          "velocity": 100
        },
        {
          "pitch": 67,
          "onset": 448.5,
          "duration": 0.25,
          "velocity": 100
        },
        {
          "pitch": 65,
          "onset": 448.75,
          "duration": 0.25,
          "velocity": 100
        },
        {
          "pitch": 67,
          "onset": 449.0,
          "duration": 0.5,
          "velocity": 100
        },
        {
          "pitch": 68,
          "onset": 449.5,
          "duration": 0.25,
          "velocity": 100
        },
        {
          "pitch": 70,
          "onset": 449.75,
          "duration": 0.25,
          "velocity": 100
        },
        {
          "pitch": 72,
          "onset": 450.0,
          "duration": 0.5,
          "velocity": 100
        },
        {
          "pitch": 74,
          "onset": 450.5,
          "duration": 0.5,
          "velocity": 100
        },
        {
          "pitch": 71,
          "onset": 451.0,
          "duration": 1.0,
          "velocity": 100
        },
        {
          "pitch": 72,
          "onset": 452.0,
          "duration": 1.5,
          "velocity": 100
        },
        {
          "pitch": 71,
          "onset": 453.5,
          "duration": 0.5,
          "velocity": 100
        },
        {
          "pitch": 72,
          "onset": 454.0,
          "duration": 0.5,
          "velocity": 100
        },
        {
          "pitch": 67,
          "onset": 454.5,
          "duration": 1.0,
          "velocity": 100
        },
        {
          "pitch": 67,
          "onset": 455.5,
          "duration": 0.25,
          "velocity": 100
        },
        {
          "pitch": 65,
          "onset": 455.75,
          "duration": 0.25,
          "velocity": 100
        },
        {
          "pitch": 63,
          "onset": 456.0,
          "duration": 0.5,
          "velocity": 100
        },
        {
          "pitch": 67,
          "onset": 456.5,
          "duration": 2.5,
          "velocity": 100
        },
        {
          "pitch": 67,
          "onset": 459.0,
          "duration": 1.0,
          "velocity": 100
        },
        {
          "pitch": 68,
          "onset": 460.0,
          "duration": 2.0,
          "velocity": 100
        },
        {
          "pitch": 67,
          "onset": 462.0,
          "duration": 3.0,
          "velocity": 100
        },
        {
          "pitch": 68,
          "onset": 465.0,
          "duration": 1.0,
          "velocity": 100
        },
        {
          "pitch": 67,
          "onset": 466.0,
          "duration": 2.25,
          "velocity": 100
        },
        {
          "pitch": 68,
          "onset": 468.25,
          "duration": 0.25,
          "velocity": 100
        },
        {
          "pitch": 67,
          "onset": 468.5,
          "duration": 0.25,
          "velocity": 100
        },
        {
          "pitch": 65,
          "onset": 468.75,
          "duration": 0.25,
          "velocity": 100
        },
        {
          "pitch": 67,
          "onset": 469.0,
          "duration": 1.25,
          "velocity": 100
        },
        {
          "pitch": 68,
          "onset": 470.25,
          "duration": 0.25,
          "velocity": 100
        },
        {
          "pitch": 67,
          "onset": 470.5,
          "duration": 0.25,
          "velocity": 100
        },
        {
          "pitch": 65,
          "onset": 470.75,
          "duration": 0.25,
          "velocity": 100
        },
        {
          "pitch": 67,
          "onset": 471.0,
          "duration": 1.25,
          "velocity": 100
        },
        {
          "pitch": 68,
          "onset": 472.25,
          "duration": 0.25,
          "velocity": 100
        },
        {
          "pitch": 67,
          "onset": 472.5,
          "duration": 0.25,
          "velocity": 100
        },
        {
          "pitch": 65,
          "onset": 472.75,
          "duration": 0.25,
          "velocity": 100
        },
        {
          "pitch": 67,
          "onset": 473.0,
          "duration": 1.25,
          "velocity": 100
        },
        {
          "pitch": 68,
          "onset": 474.25,
          "duration": 0.25,
          "velocity": 100
        },
        {
          "pitch": 67,
          "onset": 474.5,
          "duration": 0.25,
          "velocity": 100
        },
        {
          "pitch": 65,
          "onset": 474.75,
          "duration": 0.5,
          "velocity": 100
        },
        {
          "pitch": 68,
          "onset": 475.25,
          "duration": 0.25,
          "velocity": 100
        },
        {
          "pitch": 67,
          "onset": 475.5,
          "duration": 0.25,
          "velocity": 100
        },
        {
          "pitch": 65,
          "onset": 475.75,
          "duration": 0.25,
          "velocity": 100
        },
        {
          "pitch": 63,
          "onset": 476.0,
          "duration": 1.0,
          "velocity": 100
        },
        {
          "pitch": 65,
          "onset": 477.0,
          "duration": 1.25,
          "velocity": 100
        },
        {
          "pitch": 68,
          "onset": 478.25,
          "duration": 0.25,
          "velocity": 100
        },
        {
          "pitch": 67,
          "onset": 478.5,
          "duration": 0.25,
          "velocity": 100
        },
        {
          "pitch": 65,
          "onset": 478.75,
          "duration": 0.25,
          "velocity": 100
        },
        {
          "pitch": 63,
          "onset": 479.0,
          "duration": 0.25,
          "velocity": 100
        },
        {
          "pitch": 65,
          "onset": 479.25,
          "duration": 0.25,
          "velocity": 100
        },
        {
          "pitch": 63,
          "onset": 479.5,
          "duration": 0.25,
          "velocity": 100
        },
        {
          "pitch": 62,
          "onset": 479.75,
          "duration": 0.25,
          "velocity": 100
        },
        {
          "pitch": 60,
          "onset": 480.0,
          "duration": 0.5,
          "velocity": 110
        },
        {
          "pitch": 72,
          "onset": 482.0,
          "duration": 0.25,
          "velocity": 110
        },
        {
          "pitch": 74,
          "onset": 482.25,
          "duration": 0.25,
          "velocity": 110
        },
        {
          "pitch": 72,
          "onset": 482.5,
          "duration": 0.25,
          "velocity": 110
        },
        {
          "pitch": 71,
          "onset": 482.75,
          "duration": 0.25,
          "velocity": 110
        },
        {
          "pitch": 72,
          "onset": 483.0,
          "duration": 1.25,
          "velocity": 110
        },
        {
          "pitch": 74,
          "onset": 484.25,
          "duration": 0.25,
          "velocity": 110
        },
        {
          "pitch": 72,
          "onset": 484.5,
          "duration": 0.25,
          "velocity": 110
        },
        {
          "pitch": 71,
          "onset": 484.75,
          "duration": 0.25,
          "velocity": 110
        },
        {
          "pitch": 72,
          "onset": 485.0,
          "duration": 1.25,
          "velocity": 110
        },
        {
          "pitch": 74,
          "onset": 486.25,
          "duration": 0.25,
          "velocity": 110
        },
        {
          "pitch": 72,
          "onset": 486.5,
          "duration": 0.25,
          "velocity": 110
        },
        {
          "pitch": 71,
          "onset": 486.75,
          "duration": 0.25,
          "velocity": 110
        },
        {
          "pitch": 72,
          "onset": 487.0,
          "duration": 1.25,
          "velocity": 110
        },
        {
          "pitch": 74,
          "onset": 488.25,
          "duration": 0.25,
          "velocity": 110
        },
        {
          "pitch": 72,
          "onset": 488.5,
          "duration": 0.25,
          "velocity": 110
        },
        {
          "pitch": 71,
          "onset": 488.75,
          "duration": 0.25,
          "velocity": 110
        },
        {
          "pitch": 72,
          "onset": 489.0,
          "duration": 1.25,
          "velocity": 110
        },
        {
          "pitch": 74,
          "onset": 490.25,
          "duration": 0.25,
          "velocity": 110
        },
        {
          "pitch": 72,
          "onset": 490.5,
          "duration": 0.25,
          "velocity": 110
        },
        {
          "pitch": 71,
          "onset": 490.75,
          "duration": 0.25,
          "velocity": 110
        },
        {
          "pitch": 72,
          "onset": 491.0,
          "duration": 0.25,
          "velocity": 110
        },
        {
          "pitch": 75,
          "onset": 491.25,
          "duration": 0.25,
          "velocity": 110
        },
        {
          "pitch": 74,
          "onset": 491.5,
          "duration": 0.25,
          "velocity": 110
        },
        {
          "pitch": 72,
          "onset": 491.75,
          "duration": 0.25,
          "velocity": 110
        },
        {
          "pitch": 71,
          "onset": 492.0,
          "duration": 0.5,
          "velocity": 110
        },
        {
          "pitch": 71,
          "onset": 492.5,
          "duration": 0.5,
          "velocity": 110
        },
        {
          "pitch": 72,
          "onset": 493.0,
          "duration": 0.25,
          "velocity": 110
        },
        {
          "pitch": 74,
          "onset": 493.25,
          "duration": 0.25,
          "velocity": 110
        },
        {
          "pitch": 72,
          "onset": 493.5,
          "duration": 0.25,
          "velocity": 110
        },
        {
          "pitch": 71,
          "onset": 493.75,
          "duration": 0.25,
          "velocity": 110
        },
        {
          "pitch": 72,
          "onset": 494.0,
          "duration": 1.0,
          "velocity": 110
        },
        {
          "pitch": 74,
          "onset": 495.0,
          "duration": 0.25,
          "velocity": 110
        },
        {
          "pitch": 77,
          "onset": 495.25,
          "duration": 0.25,
          "velocity": 110
        },
        {
          "pitch": 75,
          "onset": 495.5,
          "duration": 0.25,
          "velocity": 110
        },
        {
          "pitch": 74,
          "onset": 495.75,
          "duration": 0.25,
          "velocity": 110
        },
        {
          "pitch": 72,
          "onset": 496.0,
          "duration": 1.25,
          "velocity": 110
        },
        {
          "pitch": 74,
          "onset": 497.25,
          "duration": 0.25,
          "velocity": 110
        },
        {
          "pitch": 72,
          "onset": 497.5,
          "duration": 0.25,
          "velocity": 110
        },
        {
          "pitch": 70,
          "onset": 497.75,
          "duration": 0.25,
          "velocity": 110
        },
        {
          "pitch": 68,
          "onset": 498.0,
          "duration": 1.0,
          "velocity": 110
        },
        {
          "pitch": 67,
          "onset": 499.0,
          "duration": 0.25,
          "velocity": 110
        },
        {
          "pitch": 68,
          "onset": 499.25,
          "duration": 0.25,
          "velocity": 110
        },
        {
          "pitch": 67,
          "onset": 499.5,
          "duration": 0.25,
          "velocity": 110
        },
        {
          "pitch": 65,
          "onset": 499.75,
          "duration": 0.25,
          "velocity": 110
        },
        {
          "pitch": 67,
          "onset": 500.0,
          "duration": 0.75,
          "velocity": 110
        },
        {
          "pitch": 68,
          "onset": 500.75,
          "duration": 0.25,
          "velocity": 110
        },
        {
          "pitch": 67,
          "onset": 501.0,
          "duration": 0.25,
          "velocity": 110
        },
        {
          "pitch": 68,
          "onset": 501.25,
          "duration": 0.25,
          "velocity": 110
        },
        {
          "pitch": 67,
          "onset": 501.5,
          "duration": 0.25,
          "velocity": 110
        },
        {
          "pitch": 65,
          "onset": 501.75,
          "duration": 0.25,
          "velocity": 110
        },
        {
          "pitch": 63,
          "onset": 502.0,
          "duration": 0.25,
          "velocity": 110
        },
        {
          "pitch": 65,
          "onset": 502.25,
          "duration": 0.25,
          "velocity": 110
        },
        {
          "pitch": 63,
          "onset": 502.5,
          "duration": 0.25,
          "velocity": 110
        },
        {
          "pitch": 62,
          "onset": 502.75,
          "duration": 0.25,
          "velocity": 110
        },
        {
          "pitch": 63,
          "onset": 503.0,
          "duration": 0.25,
          "velocity": 110
        },
        {
          "pitch": 62,
          "onset": 503.25,
          "duration": 0.25,
          "velocity": 110
        },
        {
          "pitch": 63,
          "onset": 503.5,
          "duration": 0.25,
          "velocity": 110
        },
        {
          "pitch": 65,
          "onset": 503.75,
          "duration": 0.25,
          "velocity": 110
        },
        {
          "pitch": 67,
          "onset": 504.0,
          "duration": 1.0,
          "velocity": 110
        },
        {
          "pitch": 67,
          "onset": 505.0,
          "duration": 2.0,
          "velocity": 100
        },
        {
          "pitch": 63,
          "onset": 507.0,
          "duration": 1.0,
          "velocity": 100
        },
        {
          "pitch": 65,
          "onset": 508.0,
          "duration": 2.0,
          "velocity": 100
        },
        {
          "pitch": 67,
          "onset": 510.0,
          "duration": 1.0,
          "velocity": 100
        },
        {
          "pitch": 68,
          "onset": 511.0,
          "duration": 2.0,
          "velocity": 100
        },
        {
          "pitch": 65,
          "onset": 513.0,
          "duration": 1.0,
          "velocity": 100
        },
        {
          "pitch": 67,
          "onset": 514.0,
          "duration": 1.5,
          "velocity": 100
        },
        {
          "pitch": 65,
          "onset": 515.5,
          "duration": 0.5,
          "velocity": 100
        },
        {
          "pitch": 63,
          "onset": 516.0,
          "duration": 0.25,
          "velocity": 100
        },
        {
          "pitch": 67,
          "onset": 516.25,
          "duration": 0.25,
          "velocity": 100
        },
        {
          "pitch": 65,
          "onset": 516.5,
          "duration": 0.25,
          "velocity": 100
        },
        {
          "pitch": 63,
          "onset": 516.75,
          "duration": 0.25,
          "velocity": 100
        },
        {
          "pitch": 62,
          "onset": 517.0,
          "duration": 1.25,
          "velocity": 100
        },
        {
          "pitch": 62,
          "onset": 518.25,
          "duration": 0.25,
          "velocity": 100
        },
        {
          "pitch": 64,
          "onset": 518.5,
          "duration": 0.25,
          "velocity": 100
        },
        {
          "pitch": 66,
          "onset": 518.75,
          "duration": 0.25,
          "velocity": 100
        },
        {
          "pitch": 67,
          "onset": 519.0,
          "duration": 1.0,
          "velocity": 100
        },
        {
          "pitch": 70,
          "onset": 520.5,
          "duration": 0.5,
          "velocity": 100
        },
        {
          "pitch": 66,
          "onset": 521.0,
          "duration": 0.5,
          "velocity": 100
        },
        {
          "pitch": 66,
          "onset": 521.5,
          "duration": 0.5,
          "velocity": 100
        },
        {
          "pitch": 67,
          "onset": 522.0,
          "duration": 0.5,
          "velocity": 100
        },
        {
          "pitch": 67,
          "onset": 522.5,
          "duration": 0.5,
          "velocity": 100
        },
        {
          "pitch": 75,
          "onset": 523.5,
          "duration": 0.5,
          "velocity": 100
        },
        {
          "pitch": 69,
          "onset": 524.0,
          "duration": 0.5,
          "velocity": 100
        },
        {
          "pitch": 69,
          "onset": 524.5,
          "duration": 0.5,
          "velocity": 100
        },
        {
          "pitch": 71,
          "onset": 525.0,
          "duration": 0.5,
          "velocity": 100
        },
        {
          "pitch": 71,
          "onset": 525.5,
          "duration": 0.5,
          "velocity": 100
        },
        {
          "pitch": 72,
          "onset": 526.5,
          "duration": 0.5,
          "velocity": 100
        },
        {
          "pitch": 67,
          "onset": 527.0,
          "duration": 0.5,
          "velocity": 100
        },
        {
          "pitch": 67,
          "onset": 527.5,
          "duration": 0.5,
          "velocity": 100
        },
        {
          "pitch": 69,
          "onset": 528.0,
          "duration": 0.5,
          "velocity": 100
        },
        {
          "pitch": 69,
          "onset": 528.5,
          "duration": 0.5,
          "velocity": 100
        },
        {
          "pitch": 70,
          "onset": 529.5,
          "duration": 0.5,
          "velocity": 100
        },
        {
          "pitch": 66,
          "onset": 530.0,
          "duration": 0.5,
          "velocity": 100
        },
        {
          "pitch": 66,
          "onset": 530.5,
          "duration": 0.5,
          "velocity": 100
        },
        {
          "pitch": 67,
          "onset": 531.0,
          "duration": 0.5,
          "velocity": 100
        },
        {
          "pitch": 67,
          "onset": 531.5,
          "duration": 0.5,
          "velocity": 100
        },
        {
          "pitch": 72,
          "onset": 532.25,
          "duration": 0.25,
          "velocity": 100
        },
        {
          "pitch": 70,
          "onset": 532.5,
          "duration": 0.25,
          "velocity": 100
        },
        {
          "pitch": 72,
          "onset": 532.75,
          "duration": 0.25,
          "velocity": 100
        },
        {
          "pitch": 68,
          "onset": 533.0,
          "duration": 1.0,
          "velocity": 100
        },
        {
          "pitch": 67,
          "onset": 534.25,
          "duration": 0.25,
          "velocity": 100
        },
        {
          "pitch": 65,
          "onset": 534.5,
          "duration": 0.25,
          "velocity": 100
        },
        {
          "pitch": 67,
          "onset": 534.75,
          "duration": 0.25,
          "velocity": 100
        },
        {
          "pitch": 63,
          "onset": 535.0,
          "duration": 1.0,
          "velocity": 100
        },
        {
          "pitch": 65,
          "onset": 536.0,
          "duration": 0.5,
          "velocity": 100
        },
        {
          "pitch": 60,
          "onset": 536.5,
          "duration": 0.5,
          "velocity": 100
        },
        {
          "pitch": 62,
          "onset": 537.0,
          "duration": 1.5,
          "velocity": 100
        },
        {
          "pitch": 57,
          "onset": 538.5,
          "duration": 0.5,
          "velocity": 100
        },
        {
          "pitch": 59,
          "onset": 539.0,
          "duration": 1.0,
          "velocity": 100
        },
        {
          "pitch": 60,
          "onset": 540.0,
          "duration": 0.25,
          "velocity": 100
        },
        {
          "pitch": 65,
          "onset": 540.25,
          "duration": 0.25,
          "velocity": 100
        },
        {
          "pitch": 63,
          "onset": 540.5,
          "duration": 0.25,
          "velocity": 100
        },
        {
          "pitch": 65,
          "onset": 540.75,
          "duration": 0.25,
          "velocity": 100
        },
        {
          "pitch": 67,
          "onset": 541.0,
          "duration": 0.5,
          "velocity": 100
        },
        {
          "pitch": 67,
          "onset": 542.25,
          "duration": 0.25,
          "velocity": 100
        },
        {
          "pitch": 65,
          "onset": 542.5,
          "duration": 0.25,
          "velocity": 100
        },
        {
          "pitch": 67,
          "onset": 542.75,
          "duration": 0.25,
          "velocity": 100
        },
        {
          "pitch": 60,
          "onset": 543.0,
          "duration": 0.25,
          "velocity": 100
        },
        {
          "pitch": 72,
          "onset": 543.25,
          "duration": 0.25,
          "velocity": 100
        },
        {
          "pitch": 70,
          "onset": 543.5,
          "duration": 0.25,
          "velocity": 100
        },
        {
          "pitch": 72,
          "onset": 543.75,
          "duration": 0.25,
          "velocity": 100
        },
        {
          "pitch": 68,
          "onset": 544.0,
          "duration": 0.25,
          "velocity": 100
        },
        {
          "pitch": 72,
          "onset": 544.25,
          "duration": 0.25,
          "velocity": 100
        },
        {
          "pitch": 68,
          "onset": 544.5,
          "duration": 0.25,
          "velocity": 100
        },
        {
          "pitch": 72,
          "onset": 544.75,
          "duration": 0.25,
          "velocity": 100
        },
        {
          "pitch": 68,
          "onset": 545.0,
          "duration": 0.25,
          "velocity": 100
        },
        {
          "pitch": 70,
          "onset": 545.25,
          "duration": 0.25,
          "velocity": 100
        },
        {
          "pitch": 68,
          "onset": 545.5,
          "duration": 0.25,
          "velocity": 100
        },
        {
          "pitch": 70,
          "onset": 545.75,
          "duration": 0.25,
          "velocity": 100
        },
        {
          "pitch": 67,
          "onset": 546.0,
          "duration": 0.25,
          "velocity": 100
        },
        {
          "pitch": 70,
          "onset": 546.25,
          "duration": 0.25,
          "velocity": 100
        },
        {
          "pitch": 67,
          "onset": 546.5,
          "duration": 0.25,
          "velocity": 100
        },
        {
          "pitch": 70,
          "onset": 546.75,
          "duration": 0.25,
          "velocity": 100
        },
        {
          "pitch": 65,
          "onset": 547.0,
          "duration": 0.25,
          "velocity": 100
        },
        {
          "pitch": 68,
          "onset": 547.25,
          "duration": 0.25,
          "velocity": 100
        },
        {
          "pitch": 67,
          "onset": 547.5,
          "duration": 0.25,
          "velocity": 100
        },
        {
          "pitch": 70,
          "onset": 547.75,
          "duration": 0.25,
          "velocity": 100
        },
        {
          "pitch": 68,
          "onset": 548.0,
          "duration": 0.25,
          "velocity": 100
        },
        {
          "pitch": 70,
          "onset": 548.25,
          "duration": 0.25,
          "velocity": 100
        },
        {
          "pitch": 68,
          "onset": 548.5,
          "duration": 0.25,
          "velocity": 100
        },
        {
          "pitch": 70,
          "onset": 548.75,
          "duration": 0.25,
          "velocity": 100
        },
        {
          "pitch": 68,
          "onset": 549.0,
          "duration": 0.25,
          "velocity": 100
        },
        {
          "pitch": 70,
          "onset": 549.25,
          "duration": 0.25,
          "velocity": 100
        },
        {
          "pitch": 68,
          "onset": 549.5,
          "duration": 0.25,
          "velocity": 100
        },
        {
          "pitch": 70,
          "onset": 549.75,
          "duration": 0.25,
          "velocity": 100
        },
        {
          "pitch": 67,
          "onset": 550.0,
          "duration": 0.25,
          "velocity": 100
        },
        {
          "pitch": 68,
          "onset": 550.25,
          "duration": 0.25,
          "velocity": 100
        },
        {
          "pitch": 67,
          "onset": 550.5,
          "duration": 0.25,
          "velocity": 100
        },
        {
          "pitch": 68,
          "onset": 550.75,
          "duration": 0.25,
          "velocity": 100
        },
        {
          "pitch": 67,
          "onset": 551.0,
          "duration": 0.25,
          "velocity": 100
        },
        {
          "pitch": 68,
          "onset": 551.25,
          "duration": 0.25,
          "velocity": 100
        },
        {
          "pitch": 65,
          "onset": 551.5,
          "duration": 0.25,
          "velocity": 100
        },
        {
          "pitch": 67,
          "onset": 551.75,
          "duration": 0.25,
          "velocity": 100
        },
        {
          "pitch": 63,
          "onset": 552.0,
          "duration": 0.25,
          "velocity": 100
        },
        {
          "pitch": 65,
          "onset": 552.25,
          "duration": 0.25,
          "velocity": 100
        },
        {
          "pitch": 62,
          "onset": 552.5,
          "duration": 0.25,
          "velocity": 100
        },
        {
          "pitch": 63,
          "onset": 552.75,
          "duration": 0.25,
          "velocity": 100
        },
        {
          "pitch": 60,
          "onset": 553.0,
          "duration": 0.25,
          "velocity": 100
        },
        {
          "pitch": 67,
          "onset": 553.25,
          "duration": 0.25,
          "velocity": 100
        },
        {
          "pitch": 65,
          "onset": 553.5,
          "duration": 0.25,
          "velocity": 100
        },
        {
          "pitch": 67,
          "onset": 553.75,
          "duration": 0.25,
          "velocity": 100
        },
        {
          "pitch": 63,
          "onset": 554.0,
          "duration": 0.25,
          "velocity": 100
        },
        {
          "pitch": 65,
          "onset": 554.25,
          "duration": 0.25,
          "velocity": 100
        },
        {
          "pitch": 62,
          "onset": 554.5,
          "duration": 0.25,
          "velocity": 100
        },
        {
          "pitch": 63,
          "onset": 554.75,
          "duration": 0.25,
          "velocity": 100
        },
        {
          "pitch": 60,
          "onset": 555.0,
          "duration": 0.25,
          "velocity": 100
        },
        {
          "pitch": 62,
          "onset": 555.25,
          "duration": 0.25,
          "velocity": 100
        },
        {
          "pitch": 58,
          "onset": 555.5,
          "duration": 0.25,
          "velocity": 100
        },
        {
          "pitch": 60,
          "onset": 555.75,
          "duration": 0.25,
          "velocity": 100
        },
        {
          "pitch": 57,
          "onset": 556.0,
          "duration": 0.5,
          "velocity": 100
        },
        {
          "pitch": 58,
          "onset": 556.5,
          "duration": 0.5,
          "velocity": 100
        },
        {
          "pitch": 60,
          "onset": 557.0,
          "duration": 0.5,
          "velocity": 100
        },
        {
          "pitch": 57,
          "onset": 557.5,
          "duration": 0.5,
          "velocity": 100
        },
        {
          "pitch": 58,
          "onset": 558.0,
          "duration": 0.5,
          "velocity": 100
        },
        {
          "pitch": 67,
          "onset": 558.5,
          "duration": 0.5,
          "velocity": 100
        },
        {
          "pitch": 67,
          "onset": 559.0,
          "duration": 1.0,
          "velocity": 100
        },
        {
          "pitch": 72,
          "onset": 560.0,
          "duration": 1.0,
          "velocity": 100
        },
        {
          "pitch": 67,
          "onset": 561.0,
          "duration": 1.0,
          "velocity": 100
        },
        {
          "pitch": 67,
          "onset": 562.0,
          "duration": 1.0,
          "velocity": 100
        },
        {
          "pitch": 70,
          "onset": 563.0,
          "duration": 1.0,
          "velocity": 100
        },
        {
          "pitch": 65,
          "onset": 564.0,
          "duration": 1.5,
          "velocity": 100
        },
        {
          "pitch": 67,
          "onset": 565.5,
          "duration": 0.5,
          "velocity": 100
        },
        {
          "pitch": 69,
          "onset": 566.0,
          "duration": 1.0,
          "velocity": 100
        },
        {
          "pitch": 67,
          "onset": 567.0,
          "duration": 0.5,
          "velocity": 100
        },
        {
          "pitch": 66,
          "onset": 567.5,
          "duration": 0.5,
          "velocity": 100
        },
        {
          "pitch": 67,
          "onset": 568.0,
          "duration": 0.25,
          "velocity": 100
        },
        {
          "pitch": 65,
          "onset": 568.25,
          "duration": 0.25,
          "velocity": 100
        },
        {
          "pitch": 64,
          "onset": 568.5,
          "duration": 0.25,
          "velocity": 100
        },
        {
          "pitch": 67,
          "onset": 568.75,
          "duration": 0.25,
          "velocity": 100
        },
        {
          "pitch": 66,
          "onset": 569.0,
          "duration": 0.5,
          "velocity": 100
        },
        {
          "pitch": 67,
          "onset": 569.5,
          "duration": 1.0,
          "velocity": 100
        },
        {
          "pitch": 66,
          "onset": 570.5,
          "duration": 0.5,
          "velocity": 100
        },
        {
          "pitch": 67,
          "onset": 571.0,
          "duration": 1.0,
          "velocity": 100
        },
        {
          "pitch": 60,
          "onset": 573.0,
          "duration": 1.0,
          "velocity": 100
        },
        {
          "pitch": 67,
          "onset": 574.0,
          "duration": 2.0,
          "velocity": 100
        },
        {
          "pitch": 63,
          "onset": 576.0,
          "duration": 1.0,
          "velocity": 100
        },
        {
          "pitch": 65,
          "onset": 577.0,
          "duration": 2.0,
          "velocity": 100
        },
        {
          "pitch": 67,
          "onset": 579.0,
          "duration": 1.0,
          "velocity": 100
        },
        {
          "pitch": 68,
          "onset": 580.0,
          "duration": 2.0,
          "velocity": 100
        },
        {
          "pitch": 65,
          "onset": 582.0,
          "duration": 1.0,
          "velocity": 100
        },
        {
          "pitch": 67,
          "onset": 583.0,
          "duration": 2.0,
          "velocity": 100
        },
        {
          "pitch": 65,
          "onset": 585.0,
          "duration": 1.5,
          "velocity": 100
        },
        {
          "pitch": 63,
          "onset": 586.5,
          "duration": 0.25,
          "velocity": 100
        },
        {
          "pitch": 67,
          "onset": 586.75,
          "duration": 0.25,
          "velocity": 100
        },
        {
          "pitch": 65,
          "onset": 587.0,
          "duration": 0.25,
          "velocity": 100
        },
        {
          "pitch": 68,
          "onset": 587.25,
          "duration": 0.25,
          "velocity": 100
        },
        {
          "pitch": 67,
          "onset": 587.5,
          "duration": 0.25,
          "velocity": 100
        },
        {
          "pitch": 70,
          "onset": 587.75,
          "duration": 0.25,
          "velocity": 100
        },
        {
          "pitch": 68,
          "onset": 588.0,
          "duration": 0.25,
          "velocity": 100
        },
        {
          "pitch": 72,
          "onset": 588.25,
          "duration": 0.25,
          "velocity": 100
        },
        {
          "pitch": 70,
          "onset": 588.5,
          "duration": 0.25,
          "velocity": 100
        },
        {
          "pitch": 68,
          "onset": 588.75,
          "duration": 0.25,
          "velocity": 100
        },
        {
          "pitch": 67,
          "onset": 589.0,
          "duration": 1.0,
          "velocity": 100
        },
        {
          "pitch": 70,
          "onset": 590.25,
          "duration": 0.25,
          "velocity": 100
        },
        {
          "pitch": 68,
          "onset": 590.5,
          "duration": 0.25,
          "velocity": 100
        },
        {
          "pitch": 70,
          "onset": 590.75,
          "duration": 0.25,
          "velocity": 100
        },
        {
          "pitch": 67,
          "onset": 591.0,
          "duration": 1.0,
          "velocity": 100
        },
        {
          "pitch": 67,
          "onset": 592.5,
          "duration": 0.5,
          "velocity": 100
        },
        {
          "pitch": 62,
          "onset": 593.0,
          "duration": 0.5,
          "velocity": 100
        },
        {
          "pitch": 62,
          "onset": 593.5,
          "duration": 0.5,
          "velocity": 100
        },
        {
          "pitch": 63,
          "onset": 594.0,
          "duration": 0.5,
          "velocity": 100
        },
        {
          "pitch": 63,
          "onset": 594.5,
          "duration": 0.5,
          "velocity": 100
        },
        {
          "pitch": 72,
          "onset": 595.5,
          "duration": 0.5,
          "velocity": 100
        },
        {
          "pitch": 65,
          "onset": 596.0,
          "duration": 0.5,
          "velocity": 100
        },
        {
          "pitch": 65,
          "onset": 596.5,
          "duration": 0.5,
          "velocity": 100
        },
        {
          "pitch": 67,
          "onset": 597.0,
          "duration": 0.5,
          "velocity": 100
        },
        {
          "pitch": 67,
          "onset": 597.5,
          "duration": 0.5,
          "velocity": 100
        },
        {
          "pitch": 68,
          "onset": 598.5,
          "duration": 0.5,
          "velocity": 100
        },
        {
          "pitch": 63,
          "onset": 599.0,
          "duration": 0.5,
          "velocity": 100
        },
        {
          "pitch": 63,
          "onset": 599.5,
          "duration": 0.5,
          "velocity": 100
        },
        {
          "pitch": 65,
          "onset": 600.0,
          "duration": 0.5,
          "velocity": 100
        },
        {
          "pitch": 65,
          "onset": 600.5,
          "duration": 0.5,
          "velocity": 100
        },
        {
          "pitch": 67,
          "onset": 601.5,
          "duration": 0.5,
          "velocity": 100
        },
        {
          "pitch": 62,
          "onset": 602.0,
          "duration": 0.5,
          "velocity": 100
        },
        {
          "pitch": 62,
          "onset": 602.5,
          "duration": 0.5,
          "velocity": 100
        },
        {
          "pitch": 63,
          "onset": 603.0,
          "duration": 0.5,
          "velocity": 100
        },
        {
          "pitch": 63,
          "onset": 603.5,
          "duration": 0.5,
          "velocity": 100
        },
        {
          "pitch": 65,
          "onset": 604.5,
          "duration": 0.5,
          "velocity": 100
        },
        {
          "pitch": 60,
          "onset": 605.0,
          "duration": 0.5,
          "velocity": 100
        },
        {
          "pitch": 60,
          "onset": 605.5,
          "duration": 0.5,
          "velocity": 100
        },
        {
          "pitch": 62,
          "onset": 606.0,
          "duration": 0.5,
          "velocity": 100
        },
        {
          "pitch": 62,
          "onset": 606.5,
          "duration": 0.5,
          "velocity": 100
        },
        {
          "pitch": 63,
          "onset": 607.0,
          "duration": 0.5,
          "velocity": 100
        },
        {
          "pitch": 58,
          "onset": 607.5,
          "duration": 0.5,
          "velocity": 100
        },
        {
          "pitch": 63,
          "onset": 608.0,
          "duration": 1.0,
          "velocity": 100
        },
        {
          "pitch": 58,
          "onset": 624.0,
          "duration": 1.0,
          "velocity": 100
        },
        {
          "pitch": 65,
          "onset": 625.0,
          "duration": 2.0,
          "velocity": 100
        },
        {
          "pitch": 62,
          "onset": 627.0,
          "duration": 1.0,
          "velocity": 100
        },
        {
          "pitch": 63,
          "onset": 628.0,
          "duration": 2.0,
          "velocity": 100
        },
        {
          "pitch": 65,
          "onset": 630.0,
          "duration": 1.0,
          "velocity": 100
        },
        {
          "pitch": 67,
          "onset": 631.0,
          "duration": 2.0,
          "velocity": 100
        },
        {
          "pitch": 63,
          "onset": 633.0,
          "duration": 1.0,
          "velocity": 100
        },
        {
          "pitch": 65,
          "onset": 634.0,
          "duration": 1.0,
          "velocity": 100
        },
        {
          "pitch": 68,
          "onset": 635.25,
          "duration": 0.25,
          "velocity": 100
        },
        {
          "pitch": 67,
          "onset": 635.5,
          "duration": 0.25,
          "velocity": 100
        },
        {
          "pitch": 68,
          "onset": 635.75,
          "duration": 0.25,
          "velocity": 100
        },
        {
          "pitch": 65,
          "onset": 636.0,
          "duration": 0.25,
          "velocity": 100
        },
        {
          "pitch": 70,
          "onset": 636.25,
          "duration": 0.25,
          "velocity": 100
        },
        {
          "pitch": 68,
          "onset": 636.5,
          "duration": 0.25,
          "velocity": 100
        },
        {
          "pitch": 70,
          "onset": 636.75,
          "duration": 0.25,
          "velocity": 100
        },
        {
          "pitch": 67,
          "onset": 637.0,
          "duration": 1.0,
          "velocity": 100
        },
        {
          "pitch": 73,
          "onset": 638.25,
          "duration": 0.25,
          "velocity": 100
        },
        {
          "pitch": 72,
          "onset": 638.5,
          "duration": 0.25,
          "velocity": 100
        },
        {
          "pitch": 73,
          "onset": 638.75,
          "duration": 0.25,
          "velocity": 100
        },
        {
          "pitch": 70,
          "onset": 639.0,
          "duration": 0.25,
          "velocity": 100
        },
        {
          "pitch": 75,
          "onset": 639.25,
          "duration": 0.25,
          "velocity": 100
        },
        {
          "pitch": 73,
          "onset": 639.5,
          "duration": 0.25,
          "velocity": 100
        },
        {
          "pitch": 75,
          "onset": 639.75,
          "duration": 0.25,
          "velocity": 100
        },
        {
          "pitch": 72,
          "onset": 640.0,
          "duration": 1.0,
          "velocity": 100
        },
        {
          "pitch": 70,
          "onset": 641.25,
          "duration": 0.25,
          "velocity": 100
        },
        {
          "pitch": 68,
          "onset": 641.5,
          "duration": 0.25,
          "velocity": 100
        },
        {
          "pitch": 70,
          "onset": 641.75,
          "duration": 0.25,
          "velocity": 100
        },
        {
          "pitch": 67,
          "onset": 642.0,
          "duration": 0.25,
          "velocity": 100
        },
        {
          "pitch": 72,
          "onset": 642.25,
          "duration": 0.25,
          "velocity": 100
        },
        {
          "pitch": 70,
          "onset": 642.5,
          "duration": 0.25,
          "velocity": 100
        },
        {
          "pitch": 72,
          "onset": 642.75,
          "duration": 0.25,
          "velocity": 100
        },
        {
          "pitch": 68,
          "onset": 643.0,
          "duration": 0.5,
          "velocity": 100
        },
        {
          "pitch": 72,
          "onset": 643.5,
          "duration": 0.5,
          "velocity": 100
        },
        {
          "pitch": 71,
          "onset": 644.0,
          "duration": 0.5,
          "velocity": 100
        },
        {
          "pitch": 71,
          "onset": 644.5,
          "duration": 0.5,
          "velocity": 100
        },
        {
          "pitch": 72,
          "onset": 645.0,
          "duration": 0.5,
          "velocity": 100
        },
        {
          "pitch": 72,
          "onset": 645.5,
          "duration": 0.5,
          "velocity": 100
        },
        {
          "pitch": 74,
          "onset": 646.25,
          "duration": 0.25,
          "velocity": 100
        },
        {
          "pitch": 72,
          "onset": 646.5,
          "duration": 0.25,
          "velocity": 100
        },
        {
          "pitch": 74,
          "onset": 646.75,
          "duration": 0.25,
          "velocity": 100
        },
        {
          "pitch": 69,
          "onset": 647.0,
          "duration": 0.5,
          "velocity": 100
        },
        {
          "pitch": 69,
          "onset": 647.5,
          "duration": 0.5,
          "velocity": 100
        },
        {
          "pitch": 71,
          "onset": 648.0,
          "duration": 0.5,
          "velocity": 100
        },
        {
          "pitch": 71,
          "onset": 648.5,
          "duration": 0.5,
          "velocity": 100
        },
        {
          "pitch": 72,
          "onset": 649.25,
          "duration": 0.25,
          "velocity": 100
        },
        {
          "pitch": 70,
          "onset": 649.5,
          "duration": 0.25,
          "velocity": 100
        },
        {
          "pitch": 72,
          "onset": 649.75,
          "duration": 0.25,
          "velocity": 100
        },
        {
          "pitch": 72,
          "onset": 650.25,
          "duration": 0.25,
          "velocity": 100
        },
        {
          "pitch": 70,
          "onset": 650.5,
          "duration": 0.25,
          "velocity": 100
        },
        {
          "pitch": 72,
          "onset": 650.75,
          "duration": 0.25,
          "velocity": 100
        },
        {
          "pitch": 72,
          "onset": 651.25,
          "duration": 0.25,
          "velocity": 100
        },
        {
          "pitch": 70,
          "onset": 651.5,
          "duration": 0.25,
          "velocity": 100
        },
        {
          "pitch": 72,
          "onset": 651.75,
          "duration": 0.25,
          "velocity": 100
        },
        {
          "pitch": 70,
          "onset": 652.25,
          "duration": 0.25,
          "velocity": 100
        },
        {
          "pitch": 69,
          "onset": 652.5,
          "duration": 0.25,
          "velocity": 100
        },
        {
          "pitch": 70,
          "onset": 652.75,
          "duration": 0.25,
          "velocity": 100
        },
        {
          "pitch": 69,
          "onset": 653.25,
          "duration": 0.25,
          "velocity": 100
        },
        {
          "pitch": 67,
          "onset": 653.5,
          "duration": 0.25,
          "velocity": 100
        },
        {
          "pitch": 69,
          "onset": 653.75,
          "duration": 0.25,
          "velocity": 100
        },
        {
          "pitch": 69,
          "onset": 654.25,
          "duration": 0.25,
          "velocity": 100
        },
        {
          "pitch": 67,
          "onset": 654.5,
          "duration": 0.25,
          "velocity": 100
        },
        {
          "pitch": 69,
          "onset": 654.75,
          "duration": 0.25,
          "velocity": 100
        },
        {
          "pitch": 67,
          "onset": 655.25,
          "duration": 0.25,
          "velocity": 100
        },
        {
          "pitch": 66,
          "onset": 655.5,
          "duration": 0.25,
          "velocity": 100
        },
        {
          "pitch": 67,
          "onset": 655.75,
          "duration": 0.25,
          "velocity": 100
        },
        {
          "pitch": 67,
          "onset": 656.25,
          "duration": 0.25,
          "velocity": 100
        },
        {
          "pitch": 66,
          "onset": 656.5,
          "duration": 0.25,
          "velocity": 100
        },
        {
          "pitch": 67,
          "onset": 656.75,
          "duration": 0.25,
          "velocity": 100
        },
        {
          "pitch": 69,
          "onset": 657.25,
          "duration": 0.25,
          "velocity": 100
        },
        {
          "pitch": 67,
          "onset": 657.5,
          "duration": 0.25,
          "velocity": 100
        },
        {
          "pitch": 69,
          "onset": 657.75,
          "duration": 0.25,
          "velocity": 100
        },
        {
          "pitch": 66,
          "onset": 658.25,
          "duration": 0.25,
          "velocity": 100
        },
        {
          "pitch": 64,
          "onset": 658.5,
          "duration": 0.25,
          "velocity": 100
        },
        {
          "pitch": 66,
          "onset": 658.75,
          "duration": 0.25,
          "velocity": 100
        },
        {
          "pitch": 66,
          "onset": 659.25,
          "duration": 0.25,
          "velocity": 100
        },
        {
          "pitch": 64,
          "onset": 659.5,
          "duration": 0.25,
          "velocity": 100
        },
        {
          "pitch": 66,
          "onset": 659.75,
          "duration": 0.25,
          "velocity": 100
        },
        {
          "pitch": 67,
          "onset": 660.0,
          "duration": 1.5,
          "velocity": 100
        },
        {
          "pitch": 70,
          "onset": 661.5,
          "duration": 0.5,
          "velocity": 100
        },
        {
          "pitch": 66,
          "onset": 662.0,
          "duration": 0.5,
          "velocity": 100
        },
        {
          "pitch": 66,
          "onset": 662.5,
          "duration": 0.5,
          "velocity": 100
        },
        {
          "pitch": 67,
          "onset": 663.0,
          "duration": 0.5,
          "velocity": 100
        },
        {
          "pitch": 67,
          "onset": 663.5,
          "duration": 0.5,
          "velocity": 100
        },
        {
          "pitch": 75,
          "onset": 664.5,
          "duration": 0.5,
          "velocity": 100
        },
        {
          "pitch": 69,
          "onset": 665.0,
          "duration": 0.5,
          "velocity": 100
        },
        {
          "pitch": 69,
          "onset": 665.5,
          "duration": 0.5,
          "velocity": 100
        },
        {
          "pitch": 70,
          "onset": 666.0,
          "duration": 0.5,
          "velocity": 100
        },
        {
          "pitch": 70,
          "onset": 666.5,
          "duration": 0.5,
          "velocity": 100
        },
        {
          "pitch": 72,
          "onset": 667.5,
          "duration": 0.5,
          "velocity": 100
        },
        {
          "pitch": 67,
          "onset": 668.0,
          "duration": 0.5,
          "velocity": 100
        },
        {
          "pitch": 67,
          "onset": 668.5,
          "duration": 0.5,
          "velocity": 100
        },
        {
          "pitch": 69,
          "onset": 669.0,
          "duration": 0.5,
          "velocity": 100
        },
        {
          "pitch": 69,
          "onset": 669.5,
          "duration": 0.5,
          "velocity": 100
        },
        {
          "pitch": 70,
          "onset": 670.5,
          "duration": 0.5,
          "velocity": 100
        },
        {
          "pitch": 66,
          "onset": 671.0,
          "duration": 0.25,
          "velocity": 100
        },
        {
          "pitch": 69,
          "onset": 671.25,
          "duration": 0.25,
          "velocity": 100
        },
        {
          "pitch": 67,
          "onset": 671.5,
          "duration": 0.25,
          "velocity": 100
        },
        {
          "pitch": 70,
          "onset": 671.75,
          "duration": 0.25,
          "velocity": 100
        },
        {
          "pitch": 69,
          "onset": 672.0,
          "duration": 0.25,
          "velocity": 100
        },
        {
          "pitch": 72,
          "onset": 672.25,
          "duration": 0.25,
          "velocity": 100
        },
        {
          "pitch": 70,
          "onset": 672.5,
          "duration": 0.25,
          "velocity": 100
        },
        {
          "pitch": 69,
          "onset": 672.75,
          "duration": 0.25,
          "velocity": 100
        },
        {
          "pitch": 70,
          "onset": 673.0,
          "duration": 2.25,
          "velocity": 100
        },
        {
          "pitch": 72,
          "onset": 675.25,
          "duration": 0.25,
          "velocity": 100
        },
        {
          "pitch": 67,
          "onset": 675.5,
          "duration": 0.25,
          "velocity": 100
        },
        {
          "pitch": 70,
          "onset": 675.75,
          "duration": 0.25,
          "velocity": 100
        },
        {
          "pitch": 69,
          "onset": 676.0,
          "duration": 2.25,
          "velocity": 100
        },
        {
          "pitch": 70,
          "onset": 678.25,
          "duration": 0.25,
          "velocity": 100
        },
        {
          "pitch": 66,
          "onset": 678.5,
          "duration": 0.25,
          "velocity": 100
        },
        {
          "pitch": 69,
          "onset": 678.75,
          "duration": 0.25,
          "velocity": 100
        },
        {
          "pitch": 67,
          "onset": 679.0,
          "duration": 2.25,
          "velocity": 100
        },
        {
          "pitch": 69,
          "onset": 681.25,
          "duration": 0.25,
          "velocity": 100
        },
        {
          "pitch": 64,
          "onset": 681.5,
          "duration": 0.25,
          "velocity": 100
        },
        {
          "pitch": 67,
          "onset": 681.75,
          "duration": 0.25,
          "velocity": 100
        },
        {
          "pitch": 66,
          "onset": 682.0,
          "duration": 0.25,
          "velocity": 100
        },
        {
          "pitch": 69,
          "onset": 682.25,
          "duration": 0.25,
          "velocity": 100
        },
        {
          "pitch": 66,
          "onset": 682.5,
          "duration": 0.25,
          "velocity": 100
        },
        {
          "pitch": 69,
          "onset": 682.75,
          "duration": 0.25,
          "velocity": 100
        },
        {
          "pitch": 62,
          "onset": 683.0,
          "duration": 0.25,
          "velocity": 100
        },
        {
          "pitch": 66,
          "onset": 683.25,
          "duration": 0.25,
          "velocity": 100
        },
        {
          "pitch": 62,
          "onset": 683.5,
          "duration": 0.25,
          "velocity": 100
        },
        {
          "pitch": 66,
          "onset": 683.75,
          "duration": 0.25,
          "velocity": 100
        },
        {
          "pitch": 67,
          "onset": 684.0,
          "duration": 0.5,
          "velocity": 100
        },
        {
          "pitch": 65,
          "onset": 684.5,
          "duration": 0.5,
          "velocity": 100
        },
        {
          "pitch": 63,
          "onset": 685.0,
          "duration": 2.25,
          "velocity": 100
        },
        {
          "pitch": 67,
          "onset": 687.25,
          "duration": 0.25,
          "velocity": 100
        },
        {
          "pitch": 65,
          "onset": 687.5,
          "duration": 0.25,
          "velocity": 100
        },
        {
          "pitch": 63,
          "onset": 687.75,
          "duration": 0.25,
          "velocity": 100
        },
        {
          "pitch": 62,
          "onset": 688.0,
          "duration": 0.25,
          "velocity": 100
        },
        {
          "pitch": 65,
          "onset": 688.25,
          "duration": 0.25,
          "velocity": 100
        },
        {
          "pitch": 63,
          "onset": 688.5,
          "duration": 0.25,
          "velocity": 100
        },
        {
          "pitch": 67,
          "onset": 688.75,
          "duration": 0.25,
          "velocity": 100
        },
        {
          "pitch": 65,
          "onset": 689.0,
          "duration": 0.25,
          "velocity": 100
        },
        {
          "pitch": 67,
          "onset": 689.25,
          "duration": 0.25,
          "velocity": 100
        },
        {
          "pitch": 65,
          "onset": 689.5,
          "duration": 0.25,
          "velocity": 100
        },
        {
          "pitch": 68,
          "onset": 689.75,
          "duration": 0.25,
          "velocity": 100
        },
        {
          "pitch": 62,
          "onset": 690.0,
          "duration": 2.0,
          "velocity": 100
        },
        {
          "pitch": 60,
          "onset": 692.0,
          "duration": 1.25,
          "velocity": 100
        },
        {
          "pitch": 63,
          "onset": 693.25,
          "duration": 0.25,
          "velocity": 100
        },
        {
          "pitch": 62,
          "onset": 693.5,
          "duration": 0.25,
          "velocity": 100
        },
        {
          "pitch": 65,
          "onset": 693.75,
          "duration": 0.25,
          "velocity": 100
        },
        {
          "pitch": 59,
          "onset": 694.0,
          "duration": 0.25,
          "velocity": 100
        },
        {
          "pitch": 62,
          "onset": 694.25,
          "duration": 0.25,
          "velocity": 100
        },
        {
          "pitch": 60,
          "onset": 694.5,
          "duration": 0.25,
          "velocity": 100
        },
        {
          "pitch": 63,
          "onset": 694.75,
          "duration": 0.25,
          "velocity": 100
        },
        {
          "pitch": 62,
          "onset": 695.0,
          "duration": 0.25,
          "velocity": 100
        },
        {
          "pitch": 63,
          "onset": 695.25,
          "duration": 0.25,
          "velocity": 100
        },
        {
          "pitch": 60,
          "onset": 695.5,
          "duration": 0.25,
          "velocity": 100
        },
        {
          "pitch": 62,
          "onset": 695.75,
          "duration": 0.25,
          "velocity": 100
        },
        {
          "pitch": 63,
          "onset": 696.0,
          "duration": 0.25,
          "velocity": 100
        },
        {
          "pitch": 65,
          "onset": 696.25,
          "duration": 0.25,
          "velocity": 100
        },
        {
          "pitch": 62,
          "onset": 696.5,
          "duration": 0.25,
          "velocity": 100
        },
        {
          "pitch": 64,
          "onset": 696.75,
          "duration": 0.25,
          "velocity": 100
        },
        {
          "pitch": 65,
          "onset": 697.0,
          "duration": 0.25,
          "velocity": 100
        },
        {
          "pitch": 68,
          "onset": 697.25,
          "duration": 0.25,
          "velocity": 100
        },
        {
          "pitch": 67,
          "onset": 697.5,
          "duration": 0.25,
          "velocity": 100
        },
        {
          "pitch": 70,
          "onset": 697.75,
          "duration": 0.25,
          "velocity": 100
        },
        {
          "pitch": 68,
          "onset": 698.0,
          "duration": 0.25,
          "velocity": 100
        },
        {
          "pitch": 60,
          "onset": 698.25,
          "duration": 0.25,
          "velocity": 100
        },
        {
          "pitch": 68,
          "onset": 698.5,
          "duration": 0.25,
          "velocity": 100
        },
        {
          "pitch": 67,
          "onset": 698.75,
          "duration": 0.25,
          "velocity": 100
        },
        {
          "pitch": 65,
          "onset": 699.0,
          "duration": 0.25,
          "velocity": 100
        },
        {
          "pitch": 63,
          "onset": 699.25,
          "duration": 0.25,
          "velocity": 100
        },
        {
          "pitch": 62,
          "onset": 699.5,
          "duration": 0.25,
          "velocity": 100
        },
        {
          "pitch": 60,
          "onset": 699.75,
          "duration": 0.25,
          "velocity": 100
        },
        {
          "pitch": 59,
          "onset": 700.0,
          "duration": 0.25,
          "velocity": 100
        },
        {
          "pitch": 62,
          "onset": 700.25,
          "duration": 0.25,
          "velocity": 100
        },
        {
          "pitch": 60,
          "onset": 700.5,
          "duration": 0.25,
          "velocity": 100
        },
        {
          "pitch": 63,
          "onset": 700.75,
          "duration": 0.25,
          "velocity": 100
        },
        {
          "pitch": 62,
          "onset": 701.0,
          "duration": 0.25,
          "velocity": 100
        },
        {
          "pitch": 65,
          "onset": 701.25,
          "duration": 0.25,
          "velocity": 100
        },
        {
          "pitch": 63,
          "onset": 701.5,
          "duration": 0.25,
          "velocity": 100
        },
        {
          "pitch": 62,
          "onset": 701.75,
          "duration": 0.25,
          "velocity": 100
        },
        {
          "pitch": 60,
          "onset": 702.0,
          "duration": 0.25,
          "velocity": 100
        },
        {
          "pitch": 72,
          "onset": 702.25,
          "duration": 0.25,
          "velocity": 100
        },
        {
          "pitch": 70,
          "onset": 702.5,
          "duration": 0.25,
          "velocity": 100
        },
        {
          "pitch": 72,
          "onset": 702.75,
          "duration": 0.25,
          "velocity": 100
        },
        {
          "pitch": 68,
          "onset": 703.0,
          "duration": 0.25,
          "velocity": 100
        },
        {
          "pitch": 72,
          "onset": 703.25,
          "duration": 0.25,
          "velocity": 100
        },
        {
          "pitch": 68,
          "onset": 703.5,
          "duration": 0.25,
          "velocity": 100
        },
        {
          "pitch": 72,
          "onset": 703.75,
          "duration": 0.25,
          "velocity": 100
        },
        {
          "pitch": 68,
          "onset": 704.0,
          "duration": 0.25,
          "velocity": 100
        },
        {
          "pitch": 70,
          "onset": 704.25,
          "duration": 0.25,
          "velocity": 100
        },
        {
          "pitch": 68,
          "onset": 704.5,
          "duration": 0.25,
          "velocity": 100
        },
        {
          "pitch": 70,
          "onset": 704.75,
          "duration": 0.25,
          "velocity": 100
        },
        {
          "pitch": 67,
          "onset": 705.0,
          "duration": 0.25,
          "velocity": 100
        },
        {
          "pitch": 70,
          "onset": 705.25,
          "duration": 0.25,
          "velocity": 100
        },
        {
          "pitch": 67,
          "onset": 705.5,
          "duration": 0.25,
          "velocity": 100
        },
        {
          "pitch": 70,
          "onset": 705.75,
          "duration": 0.25,
          "velocity": 100
        },
        {
          "pitch": 65,
          "onset": 706.0,
          "duration": 0.25,
          "velocity": 100
        },
        {
          "pitch": 68,
          "onset": 706.25,
          "duration": 0.25,
          "velocity": 100
        },
        {
          "pitch": 67,
          "onset": 706.5,
          "duration": 0.25,
          "velocity": 100
        },
        {
          "pitch": 70,
          "onset": 706.75,
          "duration": 0.25,
          "velocity": 100
        },
        {
          "pitch": 68,
          "onset": 707.0,
          "duration": 0.25,
          "velocity": 100
        },
        {
          "pitch": 70,
          "onset": 707.25,
          "duration": 0.25,
          "velocity": 100
        },
        {
          "pitch": 67,
          "onset": 707.5,
          "duration": 0.25,
          "velocity": 100
        },
        {
          "pitch": 68,
          "onset": 707.75,
          "duration": 0.25,
          "velocity": 100
        },
        {
          "pitch": 70,
          "onset": 708.0,
          "duration": 0.25,
          "velocity": 100
        },
        {
          "pitch": 72,
          "onset": 708.25,
          "duration": 0.25,
          "velocity": 100
        },
        {
          "pitch": 68,
          "onset": 708.5,
          "duration": 0.25,
          "velocity": 100
        },
        {
          "pitch": 70,
          "onset": 708.75,
          "duration": 0.25,
          "velocity": 100
        },
        {
          "pitch": 67,
          "onset": 709.0,
          "duration": 0.25,
          "velocity": 100
        },
        {
          "pitch": 67,
          "onset": 709.25,
          "duration": 0.25,
          "velocity": 100
        },
        {
          "pitch": 65,
          "onset": 709.5,
          "duration": 0.25,
          "velocity": 100
        },
        {
          "pitch": 67,
          "onset": 709.75,
          "duration": 0.25,
          "velocity": 100
        },
        {
          "pitch": 68,
          "onset": 710.25,
          "duration": 0.25,
          "velocity": 100
        },
        {
          "pitch": 67,
          "onset": 710.5,
          "duration": 0.25,
          "velocity": 100
        },
        {
          "pitch": 68,
          "onset": 710.75,
          "duration": 0.25,
          "velocity": 100
        },
        {
          "pitch": 65,
          "onset": 711.25,
          "duration": 0.25,
          "velocity": 100
        },
        {
          "pitch": 63,
          "onset": 711.5,
          "duration": 0.25,
          "velocity": 100
        },
        {
          "pitch": 65,
          "onset": 711.75,
          "duration": 0.25,
          "velocity": 100
        },
        {
          "pitch": 67,
          "onset": 712.25,
          "duration": 0.25,
          "velocity": 100
        },
        {
          "pitch": 68,
          "onset": 712.5,
          "duration": 0.25,
          "velocity": 100
        },
        {
          "pitch": 67,
          "onset": 712.75,
          "duration": 0.25,
          "velocity": 100
        },
        {
          "pitch": 65,
          "onset": 713.25,
          "duration": 0.25,
          "velocity": 100
        },
        {
          "pitch": 63,
          "onset": 713.5,
          "duration": 0.25,
          "velocity": 100
        },
        {
          "pitch": 65,
          "onset": 713.75,
          "duration": 0.25,
          "velocity": 100
        },
        {
          "pitch": 62,
          "onset": 714.25,
          "duration": 0.25,
          "velocity": 100
        },
        {
          "pitch": 60,
          "onset": 714.5,
          "duration": 0.25,
          "velocity": 100
        },
        {
          "pitch": 62,
          "onset": 714.75,
          "duration": 0.25,
          "velocity": 100
        },
        {
          "pitch": 63,
          "onset": 715.0,
          "duration": 0.5,
          "velocity": 100
        },
        {
          "pitch": 65,
          "onset": 715.5,
          "duration": 0.5,
          "velocity": 100
        },
        {
          "pitch": 67,
          "onset": 716.0,
          "duration": 0.5,
          "velocity": 100
        },
        {
          "pitch": 69,
          "onset": 716.5,
          "duration": 0.5,
          "velocity": 100
        },
        {
          "pitch": 70,
          "onset": 717.0,
          "duration": 0.5,
          "velocity": 100
        },
        {
          "pitch": 72,
          "onset": 717.5,
          "duration": 0.5,
          "velocity": 100
        },
        {
          "pitch": 74,
          "onset": 718.0,
          "duration": 0.5,
          "velocity": 100
        },
        {
          "pitch": 75,
          "onset": 718.5,
          "duration": 0.5,
          "velocity": 100
        },
        {
          "pitch": 77,
          "onset": 719.0,
          "duration": 0.5,
          "velocity": 100
        },
        {
          "pitch": 79,
          "onset": 719.5,
          "duration": 0.5,
          "velocity": 100
        },
        {
          "pitch": 80,
          "onset": 720.0,
          "duration": 0.5,
          "velocity": 100
        },
        {
          "pitch": 82,
          "onset": 720.5,
          "duration": 0.5,
          "velocity": 100
        },
        {
          "pitch": 84,
          "onset": 721.0,
          "duration": 0.5,
          "velocity": 100
        },
        {
          "pitch": 62,
          "onset": 721.5,
          "duration": 0.5,
          "velocity": 100
        },
        {
          "pitch": 63,
          "onset": 722.0,
          "duration": 0.5,
          "velocity": 100
        },
        {
          "pitch": 65,
          "onset": 722.5,
          "duration": 0.5,
          "velocity": 100
        },
        {
          "pitch": 67,
          "onset": 723.0,
          "duration": 0.5,
          "velocity": 100
        },
        {
          "pitch": 68,
          "onset": 723.5,
          "duration": 0.5,
          "velocity": 100
        },
        {
          "pitch": 70,
          "onset": 724.0,
          "duration": 0.5,
          "velocity": 100
        },
        {
          "pitch": 72,
          "onset": 724.5,
          "duration": 0.5,
          "velocity": 100
        },
        {
          "pitch": 74,
          "onset": 725.0,
          "duration": 0.5,
          "velocity": 100
        },
        {
          "pitch": 75,
          "onset": 725.5,
          "duration": 0.5,
          "velocity": 100
        },
        {
          "pitch": 77,
          "onset": 726.0,
          "duration": 0.5,
          "velocity": 100
        },
        {
          "pitch": 79,
          "onset": 726.5,
          "duration": 0.5,
          "velocity": 100
        },
        {
          "pitch": 80,
          "onset": 727.0,
          "duration": 0.5,
          "velocity": 100
        },
        {
          "pitch": 58,
          "onset": 727.5,
          "duration": 0.5,
          "velocity": 100
        },
        {
          "pitch": 60,
          "onset": 728.0,
          "duration": 0.5,
          "velocity": 100
        },
        {
          "pitch": 62,
          "onset": 728.5,
          "duration": 0.5,
          "velocity": 100
        },
        {
          "pitch": 63,
          "onset": 729.0,
          "duration": 0.5,
          "velocity": 100
        },
        {
          "pitch": 65,
          "onset": 729.5,
          "duration": 0.5,
          "velocity": 100
        },
        {
          "pitch": 67,
          "onset": 730.0,
          "duration": 1.5,
          "velocity": 100
        },
        {
          "pitch": 67,
          "onset": 731.5,
          "duration": 0.5,
          "velocity": 100
        },
        {
          "pitch": 69,
          "onset": 732.0,
          "duration": 0.25,
          "velocity": 100
        },
        {
          "pitch": 70,
          "onset": 732.25,
          "duration": 0.25,
          "velocity": 100
        },
        {
          "pitch": 67,
          "onset": 732.5,
          "duration": 0.25,
          "velocity": 100
        },
        {
          "pitch": 69,
          "onset": 732.75,
          "duration": 0.25,
          "velocity": 100
        },
        {
          "pitch": 66,
          "onset": 733.0,
          "duration": 0.25,
          "velocity": 100
        },
        {
          "pitch": 67,
          "onset": 733.25,
          "duration": 0.25,
          "velocity": 100
        },
        {
          "pitch": 64,
          "onset": 733.5,
          "duration": 0.25,
          "velocity": 100
        },
        {
          "pitch": 66,
          "onset": 733.75,
          "duration": 0.25,
          "velocity": 100
        },
        {
          "pitch": 62,
          "onset": 734.0,
          "duration": 2.25,
          "velocity": 100
        },
        {
          "pitch": 69,
          "onset": 736.25,
          "duration": 0.25,
          "velocity": 100
        },
        {
          "pitch": 67,
          "onset": 736.5,
          "duration": 0.25,
          "velocity": 100
        },
        {
          "pitch": 70,
          "onset": 736.75,
          "duration": 0.25,
          "velocity": 100
        },
        {
          "pitch": 69,
          "onset": 737.0,
          "duration": 0.25,
          "velocity": 100
        },
        {
          "pitch": 72,
          "onset": 737.25,
          "duration": 0.25,
          "velocity": 100
        },
        {
          "pitch": 70,
          "onset": 737.5,
          "duration": 0.25,
          "velocity": 100
        },
        {
          "pitch": 69,
          "onset": 737.75,
          "duration": 0.25,
          "velocity": 100
        },
        {
          "pitch": 67,
          "onset": 738.0,
          "duration": 0.5,
          "velocity": 100
        },
        {
          "pitch": 62,
          "onset": 738.5,
          "duration": 0.5,
          "velocity": 100
        },
        {
          "pitch": 67,
          "onset": 739.0,
          "duration": 1.0,
          "velocity": 100
        },
        {
          "pitch": 65,
          "onset": 740.0,
          "duration": 1.0,
          "velocity": 100
        },
        {
          "pitch": 65,
          "onset": 741.0,
          "duration": 1.0,
          "velocity": 100
        },
        {
          "pitch": 63,
          "onset": 742.0,
          "duration": 0.5,
          "velocity": 100
        },
        {
          "pitch": 65,
          "onset": 742.5,
          "duration": 0.5,
          "velocity": 100
        },
        {
          "pitch": 67,
          "onset": 743.0,
          "duration": 0.5,
          "velocity": 100
        },
        {
          "pitch": 70,
          "onset": 743.5,
          "duration": 0.5,
          "velocity": 100
        },
        {
          "pitch": 69,
          "onset": 744.0,
          "duration": 0.5,
          "velocity": 100
        },
        {
          "pitch": 67,
          "onset": 744.5,
          "duration": 0.5,
          "velocity": 100
        },
        {
          "pitch": 66,
          "onset": 745.0,
          "duration": 0.25,
          "velocity": 100
        },
        {
          "pitch": 69,
          "onset": 745.25,
          "duration": 0.25,
          "velocity": 100
        },
        {
          "pitch": 67,
          "onset": 745.5,
          "duration": 0.25,
          "velocity": 100
        },
        {
          "pitch": 70,
          "onset": 745.75,
          "duration": 0.25,
          "velocity": 100
        },
        {
          "pitch": 69,
          "onset": 746.0,
          "duration": 0.5,
          "velocity": 100
        },
        {
          "pitch": 66,
          "onset": 746.5,
          "duration": 0.5,
          "velocity": 100
        },
        {
          "pitch": 67,
          "onset": 747.0,
          "duration": 1.5,
          "velocity": 100
        },
        {
          "pitch": 67,
          "onset": 748.5,
          "duration": 0.5,
          "velocity": 100
        },
        {
          "pitch": 69,
          "onset": 749.0,
          "duration": 1.0,
          "velocity": 100
        },
        {
          "pitch": 67,
          "onset": 750.0,
          "duration": 1.5,
          "velocity": 100
        },
        {
          "pitch": 65,
          "onset": 751.5,
          "duration": 1.0,
          "velocity": 100
        },
        {
          "pitch": 63,
          "onset": 752.5,
          "duration": 1.0,
          "velocity": 100
        },
        {
          "pitch": 62,
          "onset": 753.5,
          "duration": 1.0,
          "velocity": 100
        },
        {
          "pitch": 62,
          "onset": 754.5,
          "duration": 0.5,
          "velocity": 100
        },
        {
          "pitch": 63,
          "onset": 755.0,
          "duration": 1.0,
          "velocity": 100
        },
        {
          "pitch": 62,
          "onset": 756.0,
          "duration": 0.5,
          "velocity": 100
        },
        {
          "pitch": 60,
          "onset": 756.5,
          "duration": 0.5,
          "velocity": 100
        },
        {
          "pitch": 59,
          "onset": 757.0,
          "duration": 0.5,
          "velocity": 100
        },
        {
          "pitch": 60,
          "onset": 757.5,
          "duration": 0.5,
          "velocity": 100
        },
        {
          "pitch": 62,
          "onset": 758.0,
          "duration": 1.5,
          "velocity": 100
        },
        {
          "pitch": 67,
          "onset": 759.5,
          "duration": 0.5,
          "velocity": 100
        },
        {
          "pitch": 67,
          "onset": 760.0,
          "duration": 1.0,
          "velocity": 100
        },
        {
          "pitch": 72,
          "onset": 761.0,
          "duration": 1.5,
          "velocity": 100
        },
        {
          "pitch": 72,
          "onset": 762.5,
          "duration": 0.5,
          "velocity": 100
        },
        {
          "pitch": 72,
          "onset": 763.0,
          "duration": 1.0,
          "velocity": 100
        },
        {
          "pitch": 72,
          "onset": 765.25,
          "duration": 0.25,
          "velocity": 100
        },
        {
          "pitch": 70,
          "onset": 765.5,
          "duration": 0.25,
          "velocity": 100
        },
        {
          "pitch": 68,
          "onset": 765.75,
          "duration": 0.25,
          "velocity": 100
        },
        {
          "pitch": 67,
          "onset": 766.0,
          "duration": 0.5,
          "velocity": 100
        },
        {
          "pitch": 68,
          "onset": 766.5,
          "duration": 0.5,
          "velocity": 100
        },
        {
          "pitch": 64,
          "onset": 767.0,
          "duration": 0.5,
          "velocity": 100
        },
        {
          "pitch": 64,
          "onset": 767.5,
          "duration": 0.5,
          "velocity": 100
        },
        {
          "pitch": 65,
          "onset": 768.0,
          "duration": 0.5,
          "velocity": 100
        },
        {
          "pitch": 65,
          "onset": 768.5,
          "duration": 0.5,
          "velocity": 100
        },
        {
          "pitch": 73,
          "onset": 769.5,
          "duration": 0.5,
          "velocity": 100
        },
        {
          "pitch": 67,
          "onset": 770.0,
          "duration": 0.5,
          "velocity": 100
        },
        {
          "pitch": 67,
          "onset": 770.5,
          "duration": 0.5,
          "velocity": 100
        },
        {
          "pitch": 69,
          "onset": 771.0,
          "duration": 0.5,
          "velocity": 100
        },
        {
          "pitch": 69,
          "onset": 771.5,
          "duration": 0.5,
          "velocity": 100
        },
        {
          "pitch": 70,
          "onset": 772.5,
          "duration": 0.5,
          "velocity": 100
        },
        {
          "pitch": 65,
          "onset": 773.0,
          "duration": 0.5,
          "velocity": 100
        },
        {
          "pitch": 65,
          "onset": 773.5,
          "duration": 0.5,
          "velocity": 100
        },
        {
          "pitch": 67,
          "onset": 774.0,
          "duration": 0.5,
          "velocity": 100
        },
        {
          "pitch": 67,
          "onset": 774.5,
          "duration": 0.5,
          "velocity": 100
        },
        {
          "pitch": 68,
          "onset": 775.0,
          "duration": 0.5,
          "velocity": 100
        },
        {
          "pitch": 70,
          "onset": 775.5,
          "duration": 0.25,
          "velocity": 100
        },
        {
          "pitch": 68,
          "onset": 775.75,
          "duration": 0.25,
          "velocity": 100
        },
        {
          "pitch": 67,
          "onset": 776.0,
          "duration": 1.5,
          "velocity": 100
        },
        {
          "pitch": 67,
          "onset": 777.5,
          "duration": 0.5,
          "velocity": 100
        },
        {
          "pitch": 72,
          "onset": 778.0,
          "duration": 1.5,
          "velocity": 100
        },
        {
          "pitch": 73,
          "onset": 779.5,
          "duration": 0.5,
          "velocity": 100
        },
        {
          "pitch": 64,
          "onset": 780.0,
          "duration": 1.0,
          "velocity": 100
        },
        {
          "pitch": 65,
          "onset": 781.0,
          "duration": 0.5,
          "velocity": 100
        },
        {
          "pitch": 70,
          "onset": 781.5,
          "duration": 1.0,
          "velocity": 100
        },
        {
          "pitch": 72,
          "onset": 782.5,
          "duration": 0.5,
          "velocity": 100
        },
        {
          "pitch": 73,
          "onset": 783.0,
          "duration": 1.5,
          "velocity": 100
        },
        {
          "pitch": 70,
          "onset": 784.5,
          "duration": 0.5,
          "velocity": 100
        },
        {
          "pitch": 72,
          "onset": 785.0,
          "duration": 2.25,
          "velocity": 100
        },
        {
          "pitch": 74,
          "onset": 787.25,
          "duration": 0.25,
          "velocity": 100
        },
        {
          "pitch": 70,
          "onset": 787.5,
          "duration": 0.25,
          "velocity": 100
        },
        {
          "pitch": 72,
          "onset": 787.75,
          "duration": 0.25,
          "velocity": 100
        },
        {
          "pitch": 69,
          "onset": 788.0,
          "duration": 0.25,
          "velocity": 100
        },
        {
          "pitch": 72,
          "onset": 788.25,
          "duration": 0.25,
          "velocity": 100
        },
        {
          "pitch": 70,
          "onset": 788.5,
          "duration": 0.25,
          "velocity": 100
        },
        {
          "pitch": 69,
          "onset": 788.75,
          "duration": 0.25,
          "velocity": 100
        },
        {
          "pitch": 67,
          "onset": 789.0,
          "duration": 1.0,
          "velocity": 100
        },
        {
          "pitch": 69,
          "onset": 790.25,
          "duration": 0.25,
          "velocity": 100
        },
        {
          "pitch": 67,
          "onset": 790.5,
          "duration": 0.25,
          "velocity": 100
        },
        {
          "pitch": 69,
          "onset": 790.75,
          "duration": 0.25,
          "velocity": 100
        },
        {
          "pitch": 66,
          "onset": 791.0,
          "duration": 1.0,
          "velocity": 100
        },
        {
          "pitch": 67,
          "onset": 792.25,
          "duration": 0.25,
          "velocity": 100
        },
        {
          "pitch": 65,
          "onset": 792.5,
          "duration": 0.25,
          "velocity": 100
        },
        {
          "pitch": 67,
          "onset": 792.75,
          "duration": 0.25,
          "velocity": 100
        },
        {
          "pitch": 63,
          "onset": 793.0,
          "duration": 1.0,
          "velocity": 100
        },
        {
          "pitch": 62,
          "onset": 794.25,
          "duration": 0.25,
          "velocity": 100
        },
        {
          "pitch": 60,
          "onset": 794.5,
          "duration": 0.25,
          "velocity": 100
        },
        {
          "pitch": 62,
          "onset": 794.75,
          "duration": 0.25,
          "velocity": 100
        },
        {
          "pitch": 58,
          "onset": 795.0,
          "duration": 1.0,
          "velocity": 100
        },
        {
          "pitch": 60,
          "onset": 796.0,
          "duration": 1.0,
          "velocity": 100
        },
        {
          "pitch": 60,
          "onset": 797.25,
          "duration": 0.25,
          "velocity": 100
        },
        {
          "pitch": 58,
          "onset": 797.5,
          "duration": 0.25,
          "velocity": 100
        },
        {
          "pitch": 60,
          "onset": 797.75,
          "duration": 0.25,
          "velocity": 100
        },
        {
          "pitch": 57,
          "onset": 798.0,
          "duration": 1.0,
          "velocity": 100
        },
        {
          "pitch": 59,
          "onset": 799.0,
          "duration": 0.25,
          "velocity": 100
        },
        {
          "pitch": 62,
          "onset": 799.25,
          "duration": 0.25,
          "velocity": 100
        },
        {
          "pitch": 60,
          "onset": 799.5,
          "duration": 0.25,
          "velocity": 100
        },
        {
          "pitch": 63,
          "onset": 799.75,
          "duration": 0.25,
          "velocity": 100
        },
        {
          "pitch": 62,
          "onset": 800.0,
          "duration": 0.25,
          "velocity": 100
        },
        {
          "pitch": 65,
          "onset": 800.25,
          "duration": 0.25,
          "velocity": 100
        },
        {
          "pitch": 63,
          "onset": 800.5,
          "duration": 0.25,
          "velocity": 100
        },
        {
          "pitch": 67,
          "onset": 800.75,
          "duration": 0.25,
          "velocity": 100
        },
        {
          "pitch": 65,
          "onset": 801.0,
          "duration": 0.25,
          "velocity": 100
        },
        {
          "pitch": 68,
          "onset": 801.25,
          "duration": 0.25,
          "velocity": 100
        },
        {
          "pitch": 67,
          "onset": 801.5,
          "duration": 0.25,
          "velocity": 100
        },
        {
          "pitch": 65,
          "onset": 801.75,
          "duration": 0.25,
          "velocity": 100
        },
        {
          "pitch": 63,
          "onset": 802.0,
          "duration": 0.25,
          "velocity": 100
        },
        {
          "pitch": 67,
          "onset": 802.25,
          "duration": 0.25,
          "velocity": 100
        },
        {
          "pitch": 65,
          "onset": 802.5,
          "duration": 0.25,
          "velocity": 100
        },
        {
          "pitch": 68,
          "onset": 802.75,
          "duration": 0.25,
          "velocity": 100
        },
        {
          "pitch": 67,
          "onset": 803.0,
          "duration": 0.25,
          "velocity": 100
        },
        {
          "pitch": 70,
          "onset": 803.25,
          "duration": 0.25,
          "velocity": 100
        },
        {
          "pitch": 68,
          "onset": 803.5,
          "duration": 0.25,
          "velocity": 100
        },
        {
          "pitch": 72,
          "onset": 803.75,
          "duration": 0.25,
          "velocity": 100
        },
        {
          "pitch": 70,
          "onset": 804.0,
          "duration": 0.25,
          "velocity": 100
        },
        {
          "pitch": 73,
          "onset": 804.25,
          "duration": 0.25,
          "velocity": 100
        },
        {
          "pitch": 72,
          "onset": 804.5,
          "duration": 0.25,
          "velocity": 100
        },
        {
          "pitch": 70,
          "onset": 804.75,
          "duration": 0.25,
          "velocity": 100
        },
        {
          "pitch": 68,
          "onset": 805.0,
          "duration": 0.125,
          "velocity": 100
        },
        {
          "pitch": 70,
          "onset": 805.125,
          "duration": 0.125,
          "velocity": 100
        },
        {
          "pitch": 68,
          "onset": 805.25,
          "duration": 0.125,
          "velocity": 100
        },
        {
          "pitch": 70,
          "onset": 805.375,
          "duration": 0.125,
          "velocity": 100
        },
        {
          "pitch": 68,
          "onset": 805.5,
          "duration": 0.125,
          "velocity": 100
        },
        {
          "pitch": 70,
          "onset": 805.625,
          "duration": 0.125,
          "velocity": 100
        },
        {
          "pitch": 68,
          "onset": 805.75,
          "duration": 0.125,
          "velocity": 100
        },
        {
          "pitch": 70,
          "onset": 805.875,
          "duration": 0.125,
          "velocity": 100
        },
        {
          "pitch": 68,
          "onset": 806.0,
          "duration": 0.125,
          "velocity": 100
        },
        {
          "pitch": 70,
          "onset": 806.125,
          "duration": 0.125,
          "velocity": 100
        },
        {
          "pitch": 68,
          "onset": 806.25,
          "duration": 0.125,
          "velocity": 100
        },
        {
          "pitch": 70,
          "onset": 806.375,
          "duration": 0.125,
          "velocity": 100
        },
        {
          "pitch": 68,
          "onset": 806.5,
          "duration": 0.125,
          "velocity": 100
        },
        {
          "pitch": 70,
          "onset": 806.625,
          "duration": 0.125,
          "velocity": 100
        },
        {
          "pitch": 68,
          "onset": 806.75,
          "duration": 0.125,
          "velocity": 100
        },
        {
          "pitch": 70,
          "onset": 806.875,
          "duration": 0.125,
          "velocity": 100
        },
        {
          "pitch": 68,
          "onset": 807.0,
          "duration": 0.125,
          "velocity": 100
        },
        {
          "pitch": 70,
          "onset": 807.125,
          "duration": 0.125,
          "velocity": 100
        },
        {
          "pitch": 68,
          "onset": 807.25,
          "duration": 0.125,
          "velocity": 100
        },
        {
          "pitch": 70,
          "onset": 807.375,
          "duration": 0.125,
          "velocity": 100
        },
        {
          "pitch": 68,
          "onset": 807.5,
          "duration": 0.125,
          "velocity": 100
        },
        {
          "pitch": 70,
          "onset": 807.625,
          "duration": 0.125,
          "velocity": 100
        },
        {
          "pitch": 68,
          "onset": 807.75,
          "duration": 0.125,
          "velocity": 100
        },
        {
          "pitch": 70,
          "onset": 807.875,
          "duration": 0.125,
          "velocity": 100
        },
        {
          "pitch": 68,
          "onset": 808.0,
          "duration": 0.125,
          "velocity": 100
        },
        {
          "pitch": 70,
          "onset": 808.125,
          "duration": 0.125,
          "velocity": 100
        },
        {
          "pitch": 68,
          "onset": 808.25,
          "duration": 0.125,
          "velocity": 100
        },
        {
          "pitch": 70,
          "onset": 808.375,
          "duration": 0.125,
          "velocity": 100
        },
        {
          "pitch": 68,
          "onset": 808.5,
          "duration": 0.125,
          "velocity": 100
        },
        {
          "pitch": 70,
          "onset": 808.625,
          "duration": 0.125,
          "velocity": 100
        },
        {
          "pitch": 68,
          "onset": 808.75,
          "duration": 0.125,
          "velocity": 100
        },
        {
          "pitch": 70,
          "onset": 808.875,
          "duration": 0.125,
          "velocity": 100
        },
        {
          "pitch": 68,
          "onset": 809.0,
          "duration": 0.125,
          "velocity": 100
        },
        {
          "pitch": 70,
          "onset": 809.125,
          "duration": 0.125,
          "velocity": 100
        },
        {
          "pitch": 68,
          "onset": 809.25,
          "duration": 0.125,
          "velocity": 100
        },
        {
          "pitch": 70,
          "onset": 809.375,
          "duration": 0.125,
          "velocity": 100
        },
        {
          "pitch": 68,
          "onset": 809.5,
          "duration": 0.125,
          "velocity": 100
        },
        {
          "pitch": 70,
          "onset": 809.625,
          "duration": 0.125,
          "velocity": 100
        },
        {
          "pitch": 68,
          "onset": 809.75,
          "duration": 0.125,
          "velocity": 100
        },
        {
          "pitch": 70,
          "onset": 809.875,
          "duration": 0.125,
          "velocity": 100
        },
        {
          "pitch": 68,
          "onset": 810.0,
          "duration": 0.125,
          "velocity": 100
        },
        {
          "pitch": 70,
          "onset": 810.125,
          "duration": 0.125,
          "velocity": 100
        },
        {
          "pitch": 68,
          "onset": 810.25,
          "duration": 0.125,
          "velocity": 100
        },
        {
          "pitch": 70,
          "onset": 810.375,
          "duration": 0.125,
          "velocity": 100
        },
        {
          "pitch": 68,
          "onset": 810.5,
          "duration": 0.125,
          "velocity": 100
        },
        {
          "pitch": 70,
          "onset": 810.625,
          "duration": 0.125,
          "velocity": 100
        },
        {
          "pitch": 68,
          "onset": 810.75,
          "duration": 0.125,
          "velocity": 100
        },
        {
          "pitch": 70,
          "onset": 810.875,
          "duration": 0.125,
          "velocity": 100
        },
        {
          "pitch": 67,
          "onset": 811.0,
          "duration": 1.25,
          "velocity": 100
        },
        {
          "pitch": 70,
          "onset": 812.25,
          "duration": 0.25,
          "velocity": 100
        },
        {
          "pitch": 68,
          "onset": 812.5,
          "duration": 0.25,
          "velocity": 100
        },
        {
          "pitch": 67,
          "onset": 812.75,
          "duration": 0.25,
          "velocity": 100
        },
        {
          "pitch": 65,
          "onset": 813.0,
          "duration": 1.5,
          "velocity": 100
        },
        {
          "pitch": 63,
          "onset": 814.5,
          "duration": 0.5,
          "velocity": 100
        },
        {
          "pitch": 59,
          "onset": 815.0,
          "duration": 0.5,
          "velocity": 100
        },
        {
          "pitch": 59,
          "onset": 815.5,
          "duration": 0.5,
          "velocity": 100
        },
        {
          "pitch": 60,
          "onset": 816.0,
          "duration": 0.5,
          "velocity": 100
        },
        {
          "pitch": 60,
          "onset": 816.5,
          "duration": 0.5,
          "velocity": 100
        },
        {
          "pitch": 68,
          "onset": 817.5,
          "duration": 0.5,
          "velocity": 100
        },
        {
          "pitch": 62,
          "onset": 818.0,
          "duration": 0.5,
          "velocity": 100
        },
        {
          "pitch": 62,
          "onset": 818.5,
          "duration": 0.5,
          "velocity": 100
        },
        {
          "pitch": 64,
          "onset": 819.0,
          "duration": 0.5,
          "velocity": 100
        },
        {
          "pitch": 64,
          "onset": 819.5,
          "duration": 0.5,
          "velocity": 100
        },
        {
          "pitch": 65,
          "onset": 820.5,
          "duration": 0.5,
          "velocity": 100
        },
        {
          "pitch": 60,
          "onset": 821.0,
          "duration": 0.5,
          "velocity": 100
        },
        {
          "pitch": 60,
          "onset": 821.5,
          "duration": 0.5,
          "velocity": 100
        },
        {
          "pitch": 62,
          "onset": 822.0,
          "duration": 0.5,
          "velocity": 100
        },
        {
          "pitch": 62,
          "onset": 822.5,
          "duration": 0.5,
          "velocity": 100
        },
        {
          "pitch": 63,
          "onset": 823.0,
          "duration": 0.75,
          "velocity": 100
        },
        {
          "pitch": 65,
          "onset": 823.75,
          "duration": 0.25,
          "velocity": 100
        },
        {
          "pitch": 67,
          "onset": 824.0,
          "duration": 0.5,
          "velocity": 100
        },
        {
          "pitch": 69,
          "onset": 824.5,
          "duration": 0.25,
          "velocity": 100
        },
        {
          "pitch": 71,
          "onset": 824.75,
          "duration": 0.25,
          "velocity": 100
        },
        {
          "pitch": 72,
          "onset": 825.0,
          "duration": 0.25,
          "velocity": 100
        },
        {
          "pitch": 75,
          "onset": 825.25,
          "duration": 0.25,
          "velocity": 100
        },
        {
          "pitch": 74,
          "onset": 825.5,
          "duration": 0.25,
          "velocity": 100
        },
        {
          "pitch": 77,
          "onset": 825.75,
          "duration": 0.25,
          "velocity": 100
        },
        {
          "pitch": 71,
          "onset": 826.0,
          "duration": 1.0,
          "velocity": 100
        },
        {
          "pitch": 72,
          "onset": 827.0,
          "duration": 1.5,
          "velocity": 100
        },
        {
          "pitch": 70,
          "onset": 828.5,
          "duration": 0.5,
          "velocity": 100
        },
        {
          "pitch": 68,
          "onset": 829.0,
          "duration": 3.0,
          "velocity": 100
        },
        {
          "pitch": 67,
          "onset": 832.0,
          "duration": 3.0,
          "velocity": 100
        },
        {
          "pitch": 65,
          "onset": 835.0,
          "duration": 3.0,
          "velocity": 100
        },
        {
          "pitch": 63,
          "onset": 838.0,
          "duration": 2.0,
          "velocity": 100
        },
        {
          "pitch": 65,
          "onset": 840.0,
          "duration": 1.25,
          "velocity": 100
        },
        {
          "pitch": 67,
          "onset": 841.25,
          "duration": 0.25,
          "velocity": 100
        },
        {
          "pitch": 65,
          "onset": 841.5,
          "duration": 0.25,
          "velocity": 100
        },
        {
          "pitch": 67,
          "onset": 841.75,
          "duration": 0.25,
          "velocity": 100
        },
        {
          "pitch": 59,
          "onset": 842.0,
          "duration": 0.5,
          "velocity": 100
        },
        {
          "pitch": 62,
          "onset": 842.5,
          "duration": 0.5,
          "velocity": 100
        },
        {
          "pitch": 60,
          "onset": 843.0,
          "duration": 0.5,
          "velocity": 100
        },
        {
          "pitch": 60,
          "onset": 843.5,
          "duration": 0.5,
          "velocity": 100
        },
        {
          "pitch": 62,
          "onset": 844.0,
          "duration": 0.25,
          "velocity": 100
        },
        {
          "pitch": 67,
          "onset": 844.25,
          "duration": 0.25,
          "velocity": 100
        },
        {
          "pitch": 65,
          "onset": 844.5,
          "duration": 0.25,
          "velocity": 100
        },
        {
          "pitch": 67,
          "onset": 844.75,
          "duration": 0.25,
          "velocity": 100
        },
        {
          "pitch": 62,
          "onset": 845.0,
          "duration": 0.5,
          "velocity": 100
        },
        {
          "pitch": 62,
          "onset": 845.5,
          "duration": 0.5,
          "velocity": 100
        },
        {
          "pitch": 63,
          "onset": 846.0,
          "duration": 0.5,
          "velocity": 100
        },
        {
          "pitch": 63,
          "onset": 846.5,
          "duration": 0.5,
          "velocity": 100
        },
        {
          "pitch": 65,
          "onset": 847.0,
          "duration": 0.25,
          "velocity": 100
        },
        {
          "pitch": 67,
          "onset": 847.25,
          "duration": 0.25,
          "velocity": 100
        },
        {
          "pitch": 65,
          "onset": 847.5,
          "duration": 0.25,
          "velocity": 100
        },
        {
          "pitch": 67,
          "onset": 847.75,
          "duration": 0.25,
          "velocity": 100
        },
        {
          "pitch": 62,
          "onset": 848.0,
          "duration": 0.5,
          "velocity": 100
        },
        {
          "pitch": 67,
          "onset": 848.5,
          "duration": 0.5,
          "velocity": 100
        },
        {
          "pitch": 67,
          "onset": 849.0,
          "duration": 0.5,
          "velocity": 100
        },
        {
          "pitch": 67,
          "onset": 849.5,
          "duration": 0.5,
          "velocity": 100
        },
        {
          "pitch": 67,
          "onset": 850.0,
          "duration": 0.25,
          "velocity": 100
        },
        {
          "pitch": 67,
          "onset": 850.25,
          "duration": 0.25,
          "velocity": 100
        },
        {
          "pitch": 65,
          "onset": 850.5,
          "duration": 0.25,
          "velocity": 100
        },
        {
          "pitch": 67,
          "onset": 850.75,
          "duration": 0.25,
          "velocity": 100
        },
        {
          "pitch": 62,
          "onset": 851.0,
          "duration": 0.5,
          "velocity": 100
        },
        {
          "pitch": 67,
          "onset": 851.5,
          "duration": 0.5,
          "velocity": 110
        },
        {
          "pitch": 67,
          "onset": 852.0,
          "duration": 0.5,
          "velocity": 110
        },
        {
          "pitch": 67,
          "onset": 852.5,
          "duration": 0.5,
          "velocity": 110
        },
        {
          "pitch": 65,
          "onset": 853.0,
          "duration": 1.0,
          "velocity": 110
        },
        {
          "pitch": 67,
          "onset": 854.5,
          "duration": 0.5,
          "velocity": 110
        },
        {
          "pitch": 67,
          "onset": 855.0,
          "duration": 0.25,
          "velocity": 110
        },
        {
          "pitch": 68,
          "onset": 855.25,
          "duration": 0.25,
          "velocity": 110
        },
        {
          "pitch": 65,
          "onset": 855.5,
          "duration": 0.25,
          "velocity": 110
        },
        {
          "pitch": 67,
          "onset": 855.75,
          "duration": 0.25,
          "velocity": 110
        },
        {
          "pitch": 68,
          "onset": 856.0,
          "duration": 1.0,
          "velocity": 110
        },
        {
          "pitch": 67,
          "onset": 857.0,
          "duration": 1.5,
          "velocity": 110
        },
        {
          "pitch": 65,
          "onset": 858.5,
          "duration": 0.5,
          "velocity": 110
        },
        {
          "pitch": 64,
          "onset": 859.0,
          "duration": 0.25,
          "velocity": 110
        },
        {
          "pitch": 67,
          "onset": 859.25,
          "duration": 0.25,
          "velocity": 110
        },
        {
          "pitch": 65,
          "onset": 859.5,
          "duration": 0.25,
          "velocity": 110
        },
        {
          "pitch": 68,
          "onset": 859.75,
          "duration": 0.25,
          "velocity": 110
        },
        {
          "pitch": 67,
          "onset": 860.0,
          "duration": 0.5,
          "velocity": 110
        },
        {
          "pitch": 72,
          "onset": 860.5,
          "duration": 0.5,
          "velocity": 110
        },
        {
          "pitch": 72,
          "onset": 861.0,
          "duration": 0.5,
          "velocity": 110
        },
        {
          "pitch": 72,
          "onset": 861.5,
          "duration": 0.5,
          "velocity": 110
        },
        {
          "pitch": 72,
          "onset": 862.0,
          "duration": 0.25,
          "velocity": 110
        },
        {
          "pitch": 72,
          "onset": 862.25,
          "duration": 0.25,
          "velocity": 110
        },
        {
          "pitch": 70,
          "onset": 862.5,
          "duration": 0.25,
          "velocity": 110
        },
        {
          "pitch": 72,
          "onset": 862.75,
          "duration": 0.25,
          "velocity": 110
        },
        {
          "pitch": 67,
          "onset": 863.0,
          "duration": 0.5,
          "velocity": 110
        },
        {
          "pitch": 67,
          "onset": 863.5,
          "duration": 0.5,
          "velocity": 110
        },
        {
          "pitch": 68,
          "onset": 864.0,
          "duration": 0.5,
          "velocity": 110
        },
        {
          "pitch": 68,
          "onset": 864.5,
          "duration": 0.5,
          "velocity": 110
        },
        {
          "pitch": 70,
          "onset": 865.0,
          "duration": 0.25,
          "velocity": 110
        },
        {
          "pitch": 72,
          "onset": 865.25,
          "duration": 0.25,
          "velocity": 110
        },
        {
          "pitch": 70,
          "onset": 865.5,
          "duration": 0.25,
          "velocity": 110
        },
        {
          "pitch": 72,
          "onset": 865.75,
          "duration": 0.25,
          "velocity": 110
        },
        {
          "pitch": 67,
          "onset": 866.0,
          "duration": 0.5,
          "velocity": 110
        },
        {
          "pitch": 72,
          "onset": 866.5,
          "duration": 0.5,
          "velocity": 110
        },
        {
          "pitch": 72,
          "onset": 867.0,
          "duration": 0.5,
          "velocity": 110
        },
        {
          "pitch": 72,
          "onset": 867.5,
          "duration": 0.5,
          "velocity": 110
        },
        {
          "pitch": 72,
          "onset": 868.0,
          "duration": 0.25,
          "velocity": 110
        },
        {
          "pitch": 73,
          "onset": 868.25,
          "duration": 0.25,
          "velocity": 110
        },
        {
          "pitch": 72,
          "onset": 868.5,
          "duration": 0.25,
          "velocity": 110
        },
        {
          "pitch": 73,
          "onset": 868.75,
          "duration": 0.25,
          "velocity": 110
        },
        {
          "pitch": 70,
          "onset": 869.0,
          "duration": 1.5,
          "velocity": 110
        },
        {
          "pitch": 68,
          "onset": 870.5,
          "duration": 0.75,
          "velocity": 110
        },
        {
          "pitch": 68,
          "onset": 871.25,
          "duration": 0.25,
          "velocity": 110
        },
        {
          "pitch": 67,
          "onset": 871.5,
          "duration": 0.25,
          "velocity": 110
        },
        {
          "pitch": 68,
          "onset": 871.75,
          "duration": 0.25,
          "velocity": 110
        },
        {
          "pitch": 62,
          "onset": 872.0,
          "duration": 0.25,
          "velocity": 110
        },
        {
          "pitch": 65,
          "onset": 872.25,
          "duration": 0.25,
          "velocity": 110
        },
        {
          "pitch": 64,
          "onset": 872.5,
          "duration": 0.25,
          "velocity": 110
        },
        {
          "pitch": 65,
          "onset": 872.75,
          "duration": 0.25,
          "velocity": 110
        },
        {
          "pitch": 62,
          "onset": 873.0,
          "duration": 0.25,
          "velocity": 110
        },
        {
          "pitch": 65,
          "onset": 873.25,
          "duration": 0.25,
          "velocity": 110
        },
        {
          "pitch": 62,
          "onset": 873.5,
          "duration": 0.25,
          "velocity": 110
        },
        {
          "pitch": 65,
          "onset": 873.75,
          "duration": 0.5,
          "velocity": 110
        },
        {
          "pitch": 64,
          "onset": 874.25,
          "duration": 1.5,
          "velocity": 110
        }
      ]
    },
    {
      "role": "v3",
      "notes": [
        {
          "pitch": 63,
          "onset": 24.5,
          "duration": 1.0,
          "velocity": 100
        },
        {
          "pitch": 62,
          "onset": 25.5,
          "duration": 1.5,
          "velocity": 100
        },
        {
          "pitch": 67,
          "onset": 27.5,
          "duration": 1.0,
          "velocity": 100
        },
        {
          "pitch": 65,
          "onset": 28.5,
          "duration": 1.5,
          "velocity": 100
        },
        {
          "pitch": 59,
          "onset": 30.5,
          "duration": 1.5,
          "velocity": 100
        },
        {
          "pitch": 60,
          "onset": 32.0,
          "duration": 1.0,
          "velocity": 100
        },
        {
          "pitch": 63,
          "onset": 33.5,
          "duration": 1.0,
          "velocity": 100
        },
        {
          "pitch": 62,
          "onset": 34.5,
          "duration": 1.5,
          "velocity": 100
        },
        {
          "pitch": 65,
          "onset": 36.5,
          "duration": 1.0,
          "velocity": 100
        },
        {
          "pitch": 63,
          "onset": 37.5,
          "duration": 1.5,
          "velocity": 100
        },
        {
          "pitch": 62,
          "onset": 39.5,
          "duration": 1.0,
          "velocity": 100
        },
        {
          "pitch": 60,
          "onset": 40.5,
          "duration": 1.5,
          "velocity": 100
        },
        {
          "pitch": 60,
          "onset": 42.5,
          "duration": 2.25,
          "velocity": 100
        },
        {
          "pitch": 62,
          "onset": 44.75,
          "duration": 0.25,
          "velocity": 100
        },
        {
          "pitch": 59,
          "onset": 45.0,
          "duration": 1.0,
          "velocity": 100
        },
        {
          "pitch": 60,
          "onset": 46.0,
          "duration": 0.5,
          "velocity": 100
        },
        {
          "pitch": 55,
          "onset": 46.5,
          "duration": 1.5,
          "velocity": 100
        },
        {
          "pitch": 63,
          "onset": 48.5,
          "duration": 1.0,
          "velocity": 100
        },
        {
          "pitch": 62,
          "onset": 49.5,
          "duration": 1.5,
          "velocity": 100
        },
        {
          "pitch": 61,
          "onset": 51.5,
          "duration": 1.0,
          "velocity": 100
        },
        {
          "pitch": 60,
          "onset": 52.5,
          "duration": 1.5,
          "velocity": 100
        },
        {
          "pitch": 59,
          "onset": 54.5,
          "duration": 1.0,
          "velocity": 100
        },
        {
          "pitch": 60,
          "onset": 55.5,
          "duration": 1.5,
          "velocity": 100
        },
        {
          "pitch": 60,
          "onset": 57.5,
          "duration": 1.25,
          "velocity": 100
        },
        {
          "pitch": 62,
          "onset": 58.75,
          "duration": 0.25,
          "velocity": 100
        },
        {
          "pitch": 59,
          "onset": 59.0,
          "duration": 1.0,
          "velocity": 100
        },
        {
          "pitch": 56,
          "onset": 60.5,
          "duration": 1.0,
          "velocity": 100
        },
        {
          "pitch": 55,
          "onset": 61.5,
          "duration": 1.5,
          "velocity": 100
        },
        {
          "pitch": 53,
          "onset": 63.5,
          "duration": 1.5,
          "velocity": 100
        },
        {
          "pitch": 51,
          "onset": 65.0,
          "duration": 1.0,
          "velocity": 100
        },
        {
          "pitch": 51,
          "onset": 66.5,
          "duration": 1.0,
          "velocity": 100
        },
        {
          "pitch": 50,
          "onset": 67.5,
          "duration": 1.0,
          "velocity": 100
        },
        {
          "pitch": 53,
          "onset": 68.5,
          "duration": 0.5,
          "velocity": 100
        },
        {
          "pitch": 51,
          "onset": 69.0,
          "duration": 0.75,
          "velocity": 100
        },
        {
          "pitch": 50,
          "onset": 69.75,
          "duration": 0.25,
          "velocity": 100
        },
        {
          "pitch": 48,
          "onset": 70.0,
          "duration": 1.0,
          "velocity": 100
        },
        {
          "pitch": 55,
          "onset": 71.5,
          "duration": 0.5,
          "velocity": 100
        },
        {
          "pitch": 60,
          "onset": 72.0,
          "duration": 0.5,
          "velocity": 100
        },
        {
          "pitch": 62,
          "onset": 72.5,
          "duration": 0.5,
          "velocity": 100
        },
        {
          "pitch": 59,
          "onset": 73.0,
          "duration": 1.5,
          "velocity": 100
        },
        {
          "pitch": 60,
          "onset": 74.5,
          "duration": 0.5,
          "velocity": 100
        },
        {
          "pitch": 61,
          "onset": 75.0,
          "duration": 0.5,
          "velocity": 100
        },
        {
          "pitch": 63,
          "onset": 75.5,
          "duration": 0.5,
          "velocity": 100
        },
        {
          "pitch": 60,
          "onset": 76.0,
          "duration": 0.5,
          "velocity": 100
        },
        {
          "pitch": 65,
          "onset": 76.5,
          "duration": 0.5,
          "velocity": 100
        },
        {
          "pitch": 62,
          "onset": 77.0,
          "duration": 0.5,
          "velocity": 100
        },
        {
          "pitch": 60,
          "onset": 77.5,
          "duration": 0.5,
          "velocity": 100
        },
        {
          "pitch": 59,
          "onset": 78.0,
          "duration": 1.0,
          "velocity": 100
        },
        {
          "pitch": 60,
          "onset": 79.0,
          "duration": 0.5,
          "velocity": 100
        },
        {
          "pitch": 58,
          "onset": 79.5,
          "duration": 0.5,
          "velocity": 100
        },
        {
          "pitch": 56,
          "onset": 80.0,
          "duration": 0.5,
          "velocity": 100
        },
        {
          "pitch": 60,
          "onset": 80.5,
          "duration": 0.5,
          "velocity": 100
        },
        {
          "pitch": 65,
          "onset": 81.0,
          "duration": 0.5,
          "velocity": 100
        },
        {
          "pitch": 63,
          "onset": 81.5,
          "duration": 0.5,
          "velocity": 100
        },
        {
          "pitch": 62,
          "onset": 82.0,
          "duration": 1.5,
          "velocity": 100
        },
        {
          "pitch": 63,
          "onset": 83.5,
          "duration": 0.5,
          "velocity": 100
        },
        {
          "pitch": 65,
          "onset": 84.0,
          "duration": 1.0,
          "velocity": 100
        },
        {
          "pitch": 63,
          "onset": 85.0,
          "duration": 0.5,
          "velocity": 100
        },
        {
          "pitch": 65,
          "onset": 85.5,
          "duration": 0.5,
          "velocity": 100
        },
        {
          "pitch": 67,
          "onset": 86.0,
          "duration": 1.0,
          "velocity": 100
        },
        {
          "pitch": 62,
          "onset": 87.0,
          "duration": 1.0,
          "velocity": 100
        },
        {
          "pitch": 56,
          "onset": 88.5,
          "duration": 0.5,
          "velocity": 100
        },
        {
          "pitch": 55,
          "onset": 89.0,
          "duration": 0.5,
          "velocity": 100
        },
        {
          "pitch": 53,
          "onset": 89.5,
          "duration": 0.5,
          "velocity": 100
        },
        {
          "pitch": 51,
          "onset": 90.0,
          "duration": 0.5,
          "velocity": 100
        },
        {
          "pitch": 50,
          "onset": 90.5,
          "duration": 0.5,
          "velocity": 100
        },
        {
          "pitch": 51,
          "onset": 91.0,
          "duration": 0.5,
          "velocity": 100
        },
        {
          "pitch": 53,
          "onset": 91.5,
          "duration": 0.5,
          "velocity": 100
        },
        {
          "pitch": 55,
          "onset": 92.0,
          "duration": 0.5,
          "velocity": 100
        },
        {
          "pitch": 56,
          "onset": 92.5,
          "duration": 0.5,
          "velocity": 100
        },
        {
          "pitch": 55,
          "onset": 93.0,
          "duration": 1.5,
          "velocity": 100
        },
        {
          "pitch": 48,
          "onset": 94.5,
          "duration": 0.25,
          "velocity": 100
        },
        {
          "pitch": 50,
          "onset": 94.75,
          "duration": 0.25,
          "velocity": 100
        },
        {
          "pitch": 51,
          "onset": 95.0,
          "duration": 0.5,
          "velocity": 100
        },
        {
          "pitch": 51,
          "onset": 95.5,
          "duration": 0.25,
          "velocity": 100
        },
        {
          "pitch": 53,
          "onset": 95.75,
          "duration": 0.25,
          "velocity": 100
        },
        {
          "pitch": 55,
          "onset": 96.0,
          "duration": 0.5,
          "velocity": 100
        },
        {
          "pitch": 60,
          "onset": 96.5,
          "duration": 0.5,
          "velocity": 100
        },
        {
          "pitch": 62,
          "onset": 97.0,
          "duration": 0.5,
          "velocity": 100
        },
        {
          "pitch": 55,
          "onset": 97.5,
          "duration": 0.25,
          "velocity": 100
        },
        {
          "pitch": 57,
          "onset": 97.75,
          "duration": 0.25,
          "velocity": 100
        },
        {
          "pitch": 59,
          "onset": 98.0,
          "duration": 0.5,
          "velocity": 100
        },
        {
          "pitch": 57,
          "onset": 98.5,
          "duration": 0.25,
          "velocity": 100
        },
        {
          "pitch": 59,
          "onset": 98.75,
          "duration": 0.25,
          "velocity": 100
        },
        {
          "pitch": 60,
          "onset": 99.0,
          "duration": 1.5,
          "velocity": 100
        },
        {
          "pitch": 62,
          "onset": 100.5,
          "duration": 0.25,
          "velocity": 100
        },
        {
          "pitch": 63,
          "onset": 100.75,
          "duration": 0.25,
          "velocity": 100
        },
        {
          "pitch": 65,
          "onset": 101.0,
          "duration": 0.5,
          "velocity": 100
        },
        {
          "pitch": 65,
          "onset": 101.5,
          "duration": 0.25,
          "velocity": 100
        },
        {
          "pitch": 63,
          "onset": 101.75,
          "duration": 0.25,
          "velocity": 100
        },
        {
          "pitch": 62,
          "onset": 102.0,
          "duration": 1.0,
          "velocity": 100
        },
        {
          "pitch": 60,
          "onset": 103.0,
          "duration": 1.0,
          "velocity": 100
        },
        {
          "pitch": 65,
          "onset": 105.5,
          "duration": 0.25,
          "velocity": 100
        },
        {
          "pitch": 63,
          "onset": 105.75,
          "duration": 0.25,
          "velocity": 100
        },
        {
          "pitch": 62,
          "onset": 106.0,
          "duration": 0.5,
          "velocity": 100
        },
        {
          "pitch": 59,
          "onset": 106.5,
          "duration": 0.25,
          "velocity": 100
        },
        {
          "pitch": 60,
          "onset": 106.75,
          "duration": 0.25,
          "velocity": 100
        },
        {
          "pitch": 62,
          "onset": 107.0,
          "duration": 0.5,
          "velocity": 100
        },
        {
          "pitch": 62,
          "onset": 107.5,
          "duration": 0.25,
          "velocity": 100
        },
        {
          "pitch": 63,
          "onset": 107.75,
          "duration": 0.25,
          "velocity": 100
        },
        {
          "pitch": 65,
          "onset": 108.0,
          "duration": 1.0,
          "velocity": 100
        },
        {
          "pitch": 67,
          "onset": 109.0,
          "duration": 1.0,
          "velocity": 100
        },
        {
          "pitch": 67,
          "onset": 110.5,
          "duration": 0.25,
          "velocity": 100
        },
        {
          "pitch": 65,
          "onset": 110.75,
          "duration": 0.25,
          "velocity": 100
        },
        {
          "pitch": 67,
          "onset": 111.0,
          "duration": 0.5,
          "velocity": 100
        },
        {
          "pitch": 55,
          "onset": 111.5,
          "duration": 0.5,
          "velocity": 100
        },
        {
          "pitch": 60,
          "onset": 112.0,
          "duration": 0.5,
          "velocity": 100
        },
        {
          "pitch": 63,
          "onset": 112.5,
          "duration": 0.25,
          "velocity": 100
        },
        {
          "pitch": 62,
          "onset": 112.75,
          "duration": 0.25,
          "velocity": 100
        },
        {
          "pitch": 63,
          "onset": 113.0,
          "duration": 0.5,
          "velocity": 100
        },
        {
          "pitch": 60,
          "onset": 113.5,
          "duration": 0.25,
          "velocity": 100
        },
        {
          "pitch": 59,
          "onset": 113.75,
          "duration": 0.25,
          "velocity": 100
        },
        {
          "pitch": 60,
          "onset": 114.0,
          "duration": 0.5,
          "velocity": 100
        },
        {
          "pitch": 51,
          "onset": 114.5,
          "duration": 0.25,
          "velocity": 100
        },
        {
          "pitch": 50,
          "onset": 114.75,
          "duration": 0.25,
          "velocity": 100
        },
        {
          "pitch": 51,
          "onset": 115.0,
          "duration": 1.0,
          "velocity": 100
        },
        {
          "pitch": 55,
          "onset": 116.5,
          "duration": 0.25,
          "velocity": 100
        },
        {
          "pitch": 53,
          "onset": 116.75,
          "duration": 0.25,
          "velocity": 100
        },
        {
          "pitch": 55,
          "onset": 117.0,
          "duration": 0.5,
          "velocity": 100
        },
        {
          "pitch": 50,
          "onset": 117.5,
          "duration": 0.5,
          "velocity": 100
        },
        {
          "pitch": 51,
          "onset": 118.0,
          "duration": 1.0,
          "velocity": 100
        },
        {
          "pitch": 67,
          "onset": 119.5,
          "duration": 0.25,
          "velocity": 100
        },
        {
          "pitch": 55,
          "onset": 119.75,
          "duration": 0.25,
          "velocity": 100
        },
        {
          "pitch": 60,
          "onset": 120.0,
          "duration": 1.0,
          "velocity": 100
        },
        {
          "pitch": 59,
          "onset": 121.0,
          "duration": 1.0,
          "velocity": 100
        },
        {
          "pitch": 59,
          "onset": 122.5,
          "duration": 0.25,
          "velocity": 100
        },
        {
          "pitch": 55,
          "onset": 122.75,
          "duration": 0.25,
          "velocity": 100
        },
        {
          "pitch": 60,
          "onset": 123.0,
          "duration": 2.0,
          "velocity": 100
        },
        {
          "pitch": 62,
          "onset": 125.5,
          "duration": 0.25,
          "velocity": 100
        },
        {
          "pitch": 57,
          "onset": 125.75,
          "duration": 0.25,
          "velocity": 100
        },
        {
          "pitch": 59,
          "onset": 126.0,
          "duration": 1.0,
          "velocity": 100
        },
        {
          "pitch": 60,
          "onset": 127.0,
          "duration": 1.0,
          "velocity": 100
        },
        {
          "pitch": 72,
          "onset": 128.5,
          "duration": 0.25,
          "velocity": 100
        },
        {
          "pitch": 60,
          "onset": 128.75,
          "duration": 0.25,
          "velocity": 100
        },
        {
          "pitch": 65,
          "onset": 129.0,
          "duration": 1.0,
          "velocity": 100
        },
        {
          "pitch": 62,
          "onset": 130.0,
          "duration": 1.0,
          "velocity": 100
        },
        {
          "pitch": 62,
          "onset": 131.5,
          "duration": 0.25,
          "velocity": 100
        },
        {
          "pitch": 50,
          "onset": 131.75,
          "duration": 0.25,
          "velocity": 100
        },
        {
          "pitch": 55,
          "onset": 132.0,
          "duration": 0.5,
          "velocity": 100
        },
        {
          "pitch": 62,
          "onset": 132.5,
          "duration": 0.5,
          "velocity": 100
        },
        {
          "pitch": 60,
          "onset": 133.0,
          "duration": 1.0,
          "velocity": 100
        },
        {
          "pitch": 67,
          "onset": 134.5,
          "duration": 0.25,
          "velocity": 100
        },
        {
          "pitch": 55,
          "onset": 134.75,
          "duration": 0.25,
          "velocity": 100
        },
        {
          "pitch": 60,
          "onset": 135.0,
          "duration": 0.5,
          "velocity": 100
        },
        {
          "pitch": 59,
          "onset": 135.5,
          "duration": 0.25,
          "velocity": 100
        },
        {
          "pitch": 62,
          "onset": 135.75,
          "duration": 0.25,
          "velocity": 100
        },
        {
          "pitch": 60,
          "onset": 136.0,
          "duration": 1.0,
          "velocity": 100
        },
        {
          "pitch": 72,
          "onset": 137.5,
          "duration": 0.25,
          "velocity": 100
        },
        {
          "pitch": 60,
          "onset": 137.75,
          "duration": 0.25,
          "velocity": 100
        },
        {
          "pitch": 65,
          "onset": 138.0,
          "duration": 0.75,
          "velocity": 100
        },
        {
          "pitch": 63,
          "onset": 138.75,
          "duration": 0.25,
          "velocity": 100
        },
        {
          "pitch": 62,
          "onset": 139.0,
          "duration": 1.0,
          "velocity": 100
        },
        {
          "pitch": 67,
          "onset": 141.5,
          "duration": 0.25,
          "velocity": 100
        },
        {
          "pitch": 62,
          "onset": 141.75,
          "duration": 0.25,
          "velocity": 100
        },
        {
          "pitch": 63,
          "onset": 142.0,
          "duration": 0.25,
          "velocity": 100
        },
        {
          "pitch": 55,
          "onset": 142.25,
          "duration": 0.25,
          "velocity": 100
        },
        {
          "pitch": 57,
          "onset": 142.5,
          "duration": 0.25,
          "velocity": 100
        },
        {
          "pitch": 59,
          "onset": 142.75,
          "duration": 0.25,
          "velocity": 100
        },
        {
          "pitch": 60,
          "onset": 143.0,
          "duration": 0.75,
          "velocity": 100
        },
        {
          "pitch": 62,
          "onset": 143.75,
          "duration": 0.25,
          "velocity": 100
        },
        {
          "pitch": 63,
          "onset": 144.0,
          "duration": 1.0,
          "velocity": 100
        },
        {
          "pitch": 62,
          "onset": 145.25,
          "duration": 0.25,
          "velocity": 100
        },
        {
          "pitch": 63,
          "onset": 145.5,
          "duration": 0.25,
          "velocity": 100
        },
        {
          "pitch": 65,
          "onset": 145.75,
          "duration": 0.25,
          "velocity": 100
        },
        {
          "pitch": 67,
          "onset": 146.0,
          "duration": 2.0,
          "velocity": 100
        },
        {
          "pitch": 60,
          "onset": 148.25,
          "duration": 0.25,
          "velocity": 100
        },
        {
          "pitch": 62,
          "onset": 148.5,
          "duration": 0.25,
          "velocity": 100
        },
        {
          "pitch": 63,
          "onset": 148.75,
          "duration": 0.25,
          "velocity": 100
        },
        {
          "pitch": 65,
          "onset": 149.0,
          "duration": 0.75,
          "velocity": 100
        },
        {
          "pitch": 63,
          "onset": 149.75,
          "duration": 0.25,
          "velocity": 100
        },
        {
          "pitch": 62,
          "onset": 150.0,
          "duration": 0.5,
          "velocity": 100
        },
        {
          "pitch": 65,
          "onset": 150.5,
          "duration": 0.5,
          "velocity": 100
        },
        {
          "pitch": 63,
          "onset": 151.0,
          "duration": 0.25,
          "velocity": 100
        },
        {
          "pitch": 60,
          "onset": 151.25,
          "duration": 0.25,
          "velocity": 100
        },
        {
          "pitch": 62,
          "onset": 151.5,
          "duration": 0.25,
          "velocity": 100
        },
        {
          "pitch": 63,
          "onset": 151.75,
          "duration": 0.25,
          "velocity": 100
        },
        {
          "pitch": 65,
          "onset": 152.0,
          "duration": 0.75,
          "velocity": 100
        },
        {
          "pitch": 67,
          "onset": 152.75,
          "duration": 0.25,
          "velocity": 100
        },
        {
          "pitch": 68,
          "onset": 153.0,
          "duration": 0.5,
          "velocity": 100
        },
        {
          "pitch": 65,
          "onset": 153.5,
          "duration": 0.5,
          "velocity": 100
        },
        {
          "pitch": 62,
          "onset": 154.0,
          "duration": 0.25,
          "velocity": 100
        },
        {
          "pitch": 50,
          "onset": 154.25,
          "duration": 0.25,
          "velocity": 100
        },
        {
          "pitch": 51,
          "onset": 154.5,
          "duration": 0.25,
          "velocity": 100
        },
        {
          "pitch": 53,
          "onset": 154.75,
          "duration": 0.25,
          "velocity": 100
        },
        {
          "pitch": 55,
          "onset": 155.0,
          "duration": 0.75,
          "velocity": 100
        },
        {
          "pitch": 57,
          "onset": 155.75,
          "duration": 0.25,
          "velocity": 100
        },
        {
          "pitch": 59,
          "onset": 156.0,
          "duration": 1.0,
          "velocity": 100
        },
        {
          "pitch": 55,
          "onset": 157.25,
          "duration": 0.25,
          "velocity": 100
        },
        {
          "pitch": 57,
          "onset": 157.5,
          "duration": 0.25,
          "velocity": 100
        },
        {
          "pitch": 59,
          "onset": 157.75,
          "duration": 0.25,
          "velocity": 100
        },
        {
          "pitch": 60,
          "onset": 158.0,
          "duration": 1.0,
          "velocity": 100
        },
        {
          "pitch": 62,
          "onset": 159.0,
          "duration": 1.0,
          "velocity": 100
        },
        {
          "pitch": 55,
          "onset": 160.25,
          "duration": 0.25,
          "velocity": 100
        },
        {
          "pitch": 57,
          "onset": 160.5,
          "duration": 0.25,
          "velocity": 100
        },
        {
          "pitch": 59,
          "onset": 160.75,
          "duration": 0.25,
          "velocity": 100
        },
        {
          "pitch": 60,
          "onset": 161.0,
          "duration": 3.25,
          "velocity": 100
        },
        {
          "pitch": 60,
          "onset": 164.25,
          "duration": 0.25,
          "velocity": 100
        },
        {
          "pitch": 59,
          "onset": 164.5,
          "duration": 0.25,
          "velocity": 100
        },
        {
          "pitch": 57,
          "onset": 164.75,
          "duration": 0.25,
          "velocity": 100
        },
        {
          "pitch": 59,
          "onset": 165.0,
          "duration": 1.0,
          "velocity": 100
        },
        {
          "pitch": 60,
          "onset": 166.0,
          "duration": 1.0,
          "velocity": 100
        },
        {
          "pitch": 55,
          "onset": 168.25,
          "duration": 0.25,
          "velocity": 100
        },
        {
          "pitch": 53,
          "onset": 168.5,
          "duration": 0.25,
          "velocity": 100
        },
        {
          "pitch": 51,
          "onset": 168.75,
          "duration": 0.25,
          "velocity": 100
        },
        {
          "pitch": 50,
          "onset": 169.0,
          "duration": 1.0,
          "velocity": 100
        },
        {
          "pitch": 65,
          "onset": 171.25,
          "duration": 0.25,
          "velocity": 100
        },
        {
          "pitch": 63,
          "onset": 171.5,
          "duration": 0.25,
          "velocity": 100
        },
        {
          "pitch": 62,
          "onset": 171.75,
          "duration": 0.25,
          "velocity": 100
        },
        {
          "pitch": 60,
          "onset": 172.0,
          "duration": 1.0,
          "velocity": 100
        },
        {
          "pitch": 67,
          "onset": 173.25,
          "duration": 0.25,
          "velocity": 100
        },
        {
          "pitch": 65,
          "onset": 173.5,
          "duration": 0.25,
          "velocity": 100
        },
        {
          "pitch": 63,
          "onset": 173.75,
          "duration": 0.25,
          "velocity": 100
        },
        {
          "pitch": 62,
          "onset": 174.0,
          "duration": 0.25,
          "velocity": 100
        },
        {
          "pitch": 65,
          "onset": 174.25,
          "duration": 0.25,
          "velocity": 100
        },
        {
          "pitch": 63,
          "onset": 174.5,
          "duration": 0.25,
          "velocity": 100
        },
        {
          "pitch": 62,
          "onset": 174.75,
          "duration": 0.25,
          "velocity": 100
        },
        {
          "pitch": 60,
          "onset": 175.0,
          "duration": 1.0,
          "velocity": 100
        },
        {
          "pitch": 67,
          "onset": 176.25,
          "duration": 0.25,
          "velocity": 100
        },
        {
          "pitch": 65,
          "onset": 176.5,
          "duration": 0.25,
          "velocity": 100
        },
        {
          "pitch": 63,
          "onset": 176.75,
          "duration": 0.25,
          "velocity": 100
        },
        {
          "pitch": 62,
          "onset": 177.0,
          "duration": 0.25,
          "velocity": 100
        },
        {
          "pitch": 63,
          "onset": 177.25,
          "duration": 0.25,
          "velocity": 100
        },
        {
          "pitch": 62,
          "onset": 177.5,
          "duration": 0.25,
          "velocity": 100
        },
        {
          "pitch": 60,
          "onset": 177.75,
          "duration": 0.25,
          "velocity": 100
        },
        {
          "pitch": 59,
          "onset": 178.0,
          "duration": 1.0,
          "velocity": 100
        },
        {
          "pitch": 68,
          "onset": 180.25,
          "duration": 0.25,
          "velocity": 100
        },
        {
          "pitch": 67,
          "onset": 180.5,
          "duration": 0.25,
          "velocity": 100
        },
        {
          "pitch": 65,
          "onset": 180.75,
          "duration": 0.25,
          "velocity": 100
        },
        {
          "pitch": 67,
          "onset": 181.0,
          "duration": 1.0,
          "velocity": 100
        },
        {
          "pitch": 62,
          "onset": 183.0,
          "duration": 0.25,
          "velocity": 100
        },
        {
          "pitch": 60,
          "onset": 183.25,
          "duration": 0.25,
          "velocity": 100
        },
        {
          "pitch": 59,
          "onset": 183.5,
          "duration": 0.25,
          "velocity": 100
        },
        {
          "pitch": 57,
          "onset": 183.75,
          "duration": 0.25,
          "velocity": 100
        },
        {
          "pitch": 55,
          "onset": 184.0,
          "duration": 1.0,
          "velocity": 100
        },
        {
          "pitch": 63,
          "onset": 186.25,
          "duration": 0.25,
          "velocity": 100
        },
        {
          "pitch": 62,
          "onset": 186.5,
          "duration": 0.25,
          "velocity": 100
        },
        {
          "pitch": 60,
          "onset": 186.75,
          "duration": 0.25,
          "velocity": 100
        },
        {
          "pitch": 59,
          "onset": 187.0,
          "duration": 1.0,
          "velocity": 100
        },
        {
          "pitch": 56,
          "onset": 189.25,
          "duration": 0.25,
          "velocity": 100
        },
        {
          "pitch": 55,
          "onset": 189.5,
          "duration": 0.25,
          "velocity": 100
        },
        {
          "pitch": 53,
          "onset": 189.75,
          "duration": 0.25,
          "velocity": 100
        },
        {
          "pitch": 51,
          "onset": 190.0,
          "duration": 0.25,
          "velocity": 100
        },
        {
          "pitch": 48,
          "onset": 190.25,
          "duration": 0.25,
          "velocity": 100
        },
        {
          "pitch": 46,
          "onset": 190.5,
          "duration": 0.25,
          "velocity": 100
        },
        {
          "pitch": 44,
          "onset": 190.75,
          "duration": 0.25,
          "velocity": 100
        },
        {
          "pitch": 43,
          "onset": 191.0,
          "duration": 0.25,
          "velocity": 100
        },
        {
          "pitch": 41,
          "onset": 191.25,
          "duration": 0.25,
          "velocity": 100
        },
        {
          "pitch": 39,
          "onset": 191.5,
          "duration": 0.25,
          "velocity": 100
        },
        {
          "pitch": 38,
          "onset": 191.75,
          "duration": 0.25,
          "velocity": 100
        },
        {
          "pitch": 36,
          "onset": 192.0,
          "duration": 0.25,
          "velocity": 100
        },
        {
          "pitch": 63,
          "onset": 192.25,
          "duration": 0.25,
          "velocity": 100
        },
        {
          "pitch": 62,
          "onset": 192.5,
          "duration": 0.25,
          "velocity": 100
        },
        {
          "pitch": 60,
          "onset": 192.75,
          "duration": 0.25,
          "velocity": 100
        },
        {
          "pitch": 59,
          "onset": 193.0,
          "duration": 1.25,
          "velocity": 100
        },
        {
          "pitch": 60,
          "onset": 194.25,
          "duration": 0.25,
          "velocity": 100
        },
        {
          "pitch": 59,
          "onset": 194.5,
          "duration": 0.25,
          "velocity": 100
        },
        {
          "pitch": 57,
          "onset": 194.75,
          "duration": 0.25,
          "velocity": 100
        },
        {
          "pitch": 55,
          "onset": 195.0,
          "duration": 0.25,
          "velocity": 100
        },
        {
          "pitch": 51,
          "onset": 195.25,
          "duration": 0.25,
          "velocity": 100
        },
        {
          "pitch": 53,
          "onset": 195.5,
          "duration": 0.25,
          "velocity": 100
        },
        {
          "pitch": 55,
          "onset": 195.75,
          "duration": 0.25,
          "velocity": 100
        },
        {
          "pitch": 56,
          "onset": 196.0,
          "duration": 0.75,
          "velocity": 100
        },
        {
          "pitch": 58,
          "onset": 196.75,
          "duration": 0.25,
          "velocity": 100
        },
        {
          "pitch": 60,
          "onset": 197.0,
          "duration": 1.0,
          "velocity": 100
        },
        {
          "pitch": 55,
          "onset": 198.25,
          "duration": 0.25,
          "velocity": 100
        },
        {
          "pitch": 57,
          "onset": 198.5,
          "duration": 0.25,
          "velocity": 100
        },
        {
          "pitch": 59,
          "onset": 198.75,
          "duration": 0.25,
          "velocity": 100
        },
        {
          "pitch": 60,
          "onset": 199.0,
          "duration": 0.25,
          "velocity": 100
        },
        {
          "pitch": 61,
          "onset": 199.25,
          "duration": 0.25,
          "velocity": 100
        },
        {
          "pitch": 60,
          "onset": 199.5,
          "duration": 0.25,
          "velocity": 100
        },
        {
          "pitch": 58,
          "onset": 199.75,
          "duration": 0.25,
          "velocity": 100
        },
        {
          "pitch": 56,
          "onset": 200.0,
          "duration": 0.25,
          "velocity": 100
        },
        {
          "pitch": 60,
          "onset": 200.25,
          "duration": 0.25,
          "velocity": 100
        },
        {
          "pitch": 62,
          "onset": 200.5,
          "duration": 0.25,
          "velocity": 100
        },
        {
          "pitch": 63,
          "onset": 200.75,
          "duration": 0.25,
          "velocity": 100
        },
        {
          "pitch": 65,
          "onset": 201.0,
          "duration": 0.25,
          "velocity": 100
        },
        {
          "pitch": 67,
          "onset": 201.25,
          "duration": 0.25,
          "velocity": 100
        },
        {
          "pitch": 65,
          "onset": 201.5,
          "duration": 0.25,
          "velocity": 100
        },
        {
          "pitch": 63,
          "onset": 201.75,
          "duration": 0.25,
          "velocity": 100
        },
        {
          "pitch": 62,
          "onset": 202.0,
          "duration": 1.25,
          "velocity": 100
        },
        {
          "pitch": 63,
          "onset": 203.25,
          "duration": 0.25,
          "velocity": 100
        },
        {
          "pitch": 62,
          "onset": 203.5,
          "duration": 0.25,
          "velocity": 100
        },
        {
          "pitch": 60,
          "onset": 203.75,
          "duration": 0.25,
          "velocity": 100
        },
        {
          "pitch": 59,
          "onset": 204.0,
          "duration": 0.25,
          "velocity": 100
        },
        {
          "pitch": 60,
          "onset": 204.25,
          "duration": 0.25,
          "velocity": 100
        },
        {
          "pitch": 59,
          "onset": 204.5,
          "duration": 0.25,
          "velocity": 100
        },
        {
          "pitch": 57,
          "onset": 204.75,
          "duration": 0.25,
          "velocity": 100
        },
        {
          "pitch": 55,
          "onset": 205.0,
          "duration": 1.0,
          "velocity": 100
        },
        {
          "pitch": 60,
          "onset": 206.25,
          "duration": 0.25,
          "velocity": 100
        },
        {
          "pitch": 62,
          "onset": 206.5,
          "duration": 0.25,
          "velocity": 100
        },
        {
          "pitch": 63,
          "onset": 206.75,
          "duration": 0.25,
          "velocity": 100
        },
        {
          "pitch": 65,
          "onset": 207.0,
          "duration": 0.25,
          "velocity": 100
        },
        {
          "pitch": 68,
          "onset": 207.25,
          "duration": 0.25,
          "velocity": 100
        },
        {
          "pitch": 67,
          "onset": 207.5,
          "duration": 0.25,
          "velocity": 100
        },
        {
          "pitch": 65,
          "onset": 207.75,
          "duration": 0.25,
          "velocity": 100
        },
        {
          "pitch": 63,
          "onset": 208.0,
          "duration": 1.0,
          "velocity": 100
        },
        {
          "pitch": 51,
          "onset": 209.25,
          "duration": 0.25,
          "velocity": 100
        },
        {
          "pitch": 53,
          "onset": 209.5,
          "duration": 0.25,
          "velocity": 100
        },
        {
          "pitch": 55,
          "onset": 209.75,
          "duration": 0.25,
          "velocity": 100
        },
        {
          "pitch": 56,
          "onset": 210.0,
          "duration": 1.0,
          "velocity": 100
        },
        {
          "pitch": 55,
          "onset": 211.0,
          "duration": 0.5,
          "velocity": 100
        },
        {
          "pitch": 57,
          "onset": 211.5,
          "duration": 0.25,
          "velocity": 100
        },
        {
          "pitch": 59,
          "onset": 211.75,
          "duration": 0.25,
          "velocity": 100
        },
        {
          "pitch": 60,
          "onset": 212.0,
          "duration": 0.25,
          "velocity": 100
        },
        {
          "pitch": 48,
          "onset": 212.25,
          "duration": 0.25,
          "velocity": 100
        },
        {
          "pitch": 50,
          "onset": 212.5,
          "duration": 0.25,
          "velocity": 100
        },
        {
          "pitch": 51,
          "onset": 212.75,
          "duration": 0.25,
          "velocity": 100
        },
        {
          "pitch": 53,
          "onset": 213.0,
          "duration": 0.25,
          "velocity": 100
        },
        {
          "pitch": 56,
          "onset": 213.25,
          "duration": 0.25,
          "velocity": 100
        },
        {
          "pitch": 55,
          "onset": 213.5,
          "duration": 0.25,
          "velocity": 100
        },
        {
          "pitch": 53,
          "onset": 213.75,
          "duration": 0.25,
          "velocity": 100
        },
        {
          "pitch": 51,
          "onset": 214.0,
          "duration": 0.5,
          "velocity": 100
        },
        {
          "pitch": 55,
          "onset": 215.25,
          "duration": 0.25,
          "velocity": 100
        },
        {
          "pitch": 59,
          "onset": 215.5,
          "duration": 0.25,
          "velocity": 100
        },
        {
          "pitch": 55,
          "onset": 215.75,
          "duration": 0.25,
          "velocity": 100
        },
        {
          "pitch": 60,
          "onset": 216.0,
          "duration": 0.125,
          "velocity": 100
        },
        {
          "pitch": 59,
          "onset": 216.125,
          "duration": 0.125,
          "velocity": 100
        },
        {
          "pitch": 60,
          "onset": 216.25,
          "duration": 0.75,
          "velocity": 100
        },
        {
          "pitch": 59,
          "onset": 217.0,
          "duration": 1.0,
          "velocity": 100
        },
        {
          "pitch": 55,
          "onset": 218.25,
          "duration": 0.25,
          "velocity": 100
        },
        {
          "pitch": 59,
          "onset": 218.5,
          "duration": 0.25,
          "velocity": 100
        },
        {
          "pitch": 55,
          "onset": 218.75,
          "duration": 0.25,
          "velocity": 100
        },
        {
          "pitch": 60,
          "onset": 219.0,
          "duration": 1.0,
          "velocity": 100
        },
        {
          "pitch": 60,
          "onset": 220.25,
          "duration": 0.25,
          "velocity": 100
        },
        {
          "pitch": 63,
          "onset": 220.5,
          "duration": 0.25,
          "velocity": 100
        },
        {
          "pitch": 60,
          "onset": 220.75,
          "duration": 0.25,
          "velocity": 100
        },
        {
          "pitch": 65,
          "onset": 221.0,
          "duration": 2.0,
          "velocity": 100
        },
        {
          "pitch": 60,
          "onset": 224.25,
          "duration": 0.25,
          "velocity": 100
        },
        {
          "pitch": 63,
          "onset": 224.5,
          "duration": 0.25,
          "velocity": 100
        },
        {
          "pitch": 60,
          "onset": 224.75,
          "duration": 0.25,
          "velocity": 100
        },
        {
          "pitch": 65,
          "onset": 225.0,
          "duration": 1.0,
          "velocity": 100
        },
        {
          "pitch": 62,
          "onset": 226.0,
          "duration": 0.25,
          "velocity": 100
        },
        {
          "pitch": 55,
          "onset": 226.25,
          "duration": 0.25,
          "velocity": 100
        },
        {
          "pitch": 59,
          "onset": 226.5,
          "duration": 0.25,
          "velocity": 100
        },
        {
          "pitch": 55,
          "onset": 226.75,
          "duration": 0.25,
          "velocity": 100
        },
        {
          "pitch": 62,
          "onset": 227.0,
          "duration": 0.25,
          "velocity": 100
        },
        {
          "pitch": 59,
          "onset": 227.25,
          "duration": 0.25,
          "velocity": 100
        },
        {
          "pitch": 62,
          "onset": 227.5,
          "duration": 0.25,
          "velocity": 100
        },
        {
          "pitch": 59,
          "onset": 227.75,
          "duration": 0.25,
          "velocity": 100
        },
        {
          "pitch": 65,
          "onset": 228.0,
          "duration": 1.0,
          "velocity": 100
        },
        {
          "pitch": 67,
          "onset": 229.0,
          "duration": 0.25,
          "velocity": 100
        },
        {
          "pitch": 55,
          "onset": 229.25,
          "duration": 0.25,
          "velocity": 100
        },
        {
          "pitch": 59,
          "onset": 229.5,
          "duration": 0.25,
          "velocity": 100
        },
        {
          "pitch": 55,
          "onset": 229.75,
          "duration": 0.25,
          "velocity": 100
        },
        {
          "pitch": 60,
          "onset": 230.0,
          "duration": 1.0,
          "velocity": 100
        },
        {
          "pitch": 55,
          "onset": 232.25,
          "duration": 0.25,
          "velocity": 100
        },
        {
          "pitch": 59,
          "onset": 232.5,
          "duration": 0.25,
          "velocity": 100
        },
        {
          "pitch": 55,
          "onset": 232.75,
          "duration": 0.25,
          "velocity": 100
        },
        {
          "pitch": 60,
          "onset": 233.0,
          "duration": 1.0,
          "velocity": 100
        },
        {
          "pitch": 55,
          "onset": 235.25,
          "duration": 0.25,
          "velocity": 100
        },
        {
          "pitch": 59,
          "onset": 235.5,
          "duration": 0.25,
          "velocity": 100
        },
        {
          "pitch": 55,
          "onset": 235.75,
          "duration": 0.25,
          "velocity": 100
        },
        {
          "pitch": 60,
          "onset": 236.0,
          "duration": 1.75,
          "velocity": 100
        },
        {
          "pitch": 59,
          "onset": 237.75,
          "duration": 0.25,
          "velocity": 100
        },
        {
          "pitch": 60,
          "onset": 238.0,
          "duration": 1.0,
          "velocity": 100
        },
        {
          "pitch": 63,
          "onset": 240.0,
          "duration": 1.0,
          "velocity": 100
        },
        {
          "pitch": 62,
          "onset": 241.0,
          "duration": 1.0,
          "velocity": 100
        },
        {
          "pitch": 60,
          "onset": 243.0,
          "duration": 1.0,
          "velocity": 100
        },
        {
          "pitch": 60,
          "onset": 244.0,
          "duration": 1.0,
          "velocity": 100
        },
        {
          "pitch": 67,
          "onset": 246.0,
          "duration": 1.0,
          "velocity": 100
        },
        {
          "pitch": 60,
          "onset": 247.0,
          "duration": 1.0,
          "velocity": 100
        },
        {
          "pitch": 56,
          "onset": 249.0,
          "duration": 1.0,
          "velocity": 100
        },
        {
          "pitch": 55,
          "onset": 250.0,
          "duration": 1.0,
          "velocity": 100
        },
        {
          "pitch": 53,
          "onset": 252.0,
          "duration": 1.0,
          "velocity": 100
        },
        {
          "pitch": 55,
          "onset": 253.0,
          "duration": 1.0,
          "velocity": 100
        },
        {
          "pitch": 55,
          "onset": 255.0,
          "duration": 1.0,
          "velocity": 100
        },
        {
          "pitch": 60,
          "onset": 256.0,
          "duration": 1.0,
          "velocity": 100
        },
        {
          "pitch": 56,
          "onset": 258.0,
          "duration": 1.0,
          "velocity": 100
        },
        {
          "pitch": 55,
          "onset": 259.0,
          "duration": 1.0,
          "velocity": 100
        },
        {
          "pitch": 59,
          "onset": 261.0,
          "duration": 1.0,
          "velocity": 100
        },
        {
          "pitch": 55,
          "onset": 262.0,
          "duration": 1.0,
          "velocity": 100
        },
        {
          "pitch": 60,
          "onset": 264.0,
          "duration": 0.25,
          "velocity": 110
        },
        {
          "pitch": 63,
          "onset": 264.25,
          "duration": 0.25,
          "velocity": 110
        },
        {
          "pitch": 62,
          "onset": 264.5,
          "duration": 0.25,
          "velocity": 110
        },
        {
          "pitch": 60,
          "onset": 264.75,
          "duration": 0.25,
          "velocity": 110
        },
        {
          "pitch": 59,
          "onset": 265.0,
          "duration": 0.25,
          "velocity": 110
        },
        {
          "pitch": 60,
          "onset": 265.25,
          "duration": 0.25,
          "velocity": 110
        },
        {
          "pitch": 59,
          "onset": 265.5,
          "duration": 0.25,
          "velocity": 110
        },
        {
          "pitch": 57,
          "onset": 265.75,
          "duration": 0.25,
          "velocity": 110
        },
        {
          "pitch": 55,
          "onset": 266.0,
          "duration": 0.25,
          "velocity": 110
        },
        {
          "pitch": 53,
          "onset": 266.25,
          "duration": 0.25,
          "velocity": 110
        },
        {
          "pitch": 51,
          "onset": 266.5,
          "duration": 0.25,
          "velocity": 110
        },
        {
          "pitch": 50,
          "onset": 266.75,
          "duration": 0.25,
          "velocity": 110
        },
        {
          "pitch": 48,
          "onset": 267.0,
          "duration": 0.25,
          "velocity": 110
        },
        {
          "pitch": 70,
          "onset": 267.25,
          "duration": 0.25,
          "velocity": 110
        },
        {
          "pitch": 68,
          "onset": 267.5,
          "duration": 0.25,
          "velocity": 110
        },
        {
          "pitch": 67,
          "onset": 267.75,
          "duration": 0.25,
          "velocity": 110
        },
        {
          "pitch": 68,
          "onset": 268.0,
          "duration": 0.25,
          "velocity": 110
        },
        {
          "pitch": 70,
          "onset": 268.25,
          "duration": 0.25,
          "velocity": 110
        },
        {
          "pitch": 68,
          "onset": 268.5,
          "duration": 0.25,
          "velocity": 110
        },
        {
          "pitch": 67,
          "onset": 268.75,
          "duration": 0.25,
          "velocity": 110
        },
        {
          "pitch": 65,
          "onset": 269.0,
          "duration": 0.25,
          "velocity": 110
        },
        {
          "pitch": 63,
          "onset": 269.25,
          "duration": 0.25,
          "velocity": 110
        },
        {
          "pitch": 62,
          "onset": 269.5,
          "duration": 0.25,
          "velocity": 110
        },
        {
          "pitch": 60,
          "onset": 269.75,
          "duration": 0.25,
          "velocity": 110
        },
        {
          "pitch": 59,
          "onset": 270.0,
          "duration": 0.25,
          "velocity": 110
        },
        {
          "pitch": 62,
          "onset": 270.25,
          "duration": 0.25,
          "velocity": 110
        },
        {
          "pitch": 60,
          "onset": 270.5,
          "duration": 0.25,
          "velocity": 110
        },
        {
          "pitch": 59,
          "onset": 270.75,
          "duration": 0.25,
          "velocity": 110
        },
        {
          "pitch": 60,
          "onset": 271.0,
          "duration": 0.25,
          "velocity": 110
        },
        {
          "pitch": 62,
          "onset": 271.25,
          "duration": 0.25,
          "velocity": 110
        },
        {
          "pitch": 60,
          "onset": 271.5,
          "duration": 0.25,
          "velocity": 110
        },
        {
          "pitch": 58,
          "onset": 271.75,
          "duration": 0.25,
          "velocity": 110
        },
        {
          "pitch": 56,
          "onset": 272.0,
          "duration": 0.25,
          "velocity": 110
        },
        {
          "pitch": 55,
          "onset": 272.25,
          "duration": 0.25,
          "velocity": 110
        },
        {
          "pitch": 53,
          "onset": 272.5,
          "duration": 0.25,
          "velocity": 110
        },
        {
          "pitch": 51,
          "onset": 272.75,
          "duration": 0.25,
          "velocity": 110
        },
        {
          "pitch": 50,
          "onset": 273.0,
          "duration": 0.25,
          "velocity": 110
        },
        {
          "pitch": 51,
          "onset": 273.25,
          "duration": 0.25,
          "velocity": 110
        },
        {
          "pitch": 50,
          "onset": 273.5,
          "duration": 0.25,
          "velocity": 110
        },
        {
          "pitch": 48,
          "onset": 273.75,
          "duration": 0.25,
          "velocity": 110
        },
        {
          "pitch": 47,
          "onset": 274.0,
          "duration": 0.25,
          "velocity": 110
        },
        {
          "pitch": 48,
          "onset": 274.25,
          "duration": 0.25,
          "velocity": 110
        },
        {
          "pitch": 47,
          "onset": 274.5,
          "duration": 0.25,
          "velocity": 110
        },
        {
          "pitch": 45,
          "onset": 274.75,
          "duration": 0.25,
          "velocity": 110
        },
        {
          "pitch": 43,
          "onset": 275.0,
          "duration": 0.25,
          "velocity": 110
        },
        {
          "pitch": 45,
          "onset": 275.25,
          "duration": 0.25,
          "velocity": 110
        },
        {
          "pitch": 47,
          "onset": 275.5,
          "duration": 0.25,
          "velocity": 110
        },
        {
          "pitch": 48,
          "onset": 275.75,
          "duration": 0.25,
          "velocity": 110
        },
        {
          "pitch": 47,
          "onset": 276.0,
          "duration": 0.25,
          "velocity": 110
        },
        {
          "pitch": 50,
          "onset": 276.25,
          "duration": 0.25,
          "velocity": 110
        },
        {
          "pitch": 48,
          "onset": 276.5,
          "duration": 0.25,
          "velocity": 110
        },
        {
          "pitch": 47,
          "onset": 276.75,
          "duration": 0.25,
          "velocity": 110
        },
        {
          "pitch": 48,
          "onset": 277.0,
          "duration": 0.25,
          "velocity": 110
        },
        {
          "pitch": 50,
          "onset": 277.25,
          "duration": 0.25,
          "velocity": 110
        },
        {
          "pitch": 51,
          "onset": 277.5,
          "duration": 0.25,
          "velocity": 110
        },
        {
          "pitch": 53,
          "onset": 277.75,
          "duration": 0.25,
          "velocity": 110
        },
        {
          "pitch": 55,
          "onset": 278.0,
          "duration": 0.25,
          "velocity": 110
        },
        {
          "pitch": 57,
          "onset": 278.25,
          "duration": 0.25,
          "velocity": 110
        },
        {
          "pitch": 59,
          "onset": 278.5,
          "duration": 0.25,
          "velocity": 110
        },
        {
          "pitch": 60,
          "onset": 278.75,
          "duration": 0.25,
          "velocity": 110
        },
        {
          "pitch": 62,
          "onset": 279.0,
          "duration": 0.25,
          "velocity": 110
        },
        {
          "pitch": 65,
          "onset": 279.25,
          "duration": 0.25,
          "velocity": 110
        },
        {
          "pitch": 63,
          "onset": 279.5,
          "duration": 0.25,
          "velocity": 110
        },
        {
          "pitch": 62,
          "onset": 279.75,
          "duration": 0.25,
          "velocity": 110
        },
        {
          "pitch": 63,
          "onset": 280.0,
          "duration": 0.25,
          "velocity": 110
        },
        {
          "pitch": 67,
          "onset": 280.25,
          "duration": 0.25,
          "velocity": 110
        },
        {
          "pitch": 72,
          "onset": 280.5,
          "duration": 0.25,
          "velocity": 110
        },
        {
          "pitch": 70,
          "onset": 280.75,
          "duration": 0.25,
          "velocity": 110
        },
        {
          "pitch": 68,
          "onset": 281.0,
          "duration": 0.25,
          "velocity": 110
        },
        {
          "pitch": 67,
          "onset": 281.25,
          "duration": 0.25,
          "velocity": 110
        },
        {
          "pitch": 65,
          "onset": 281.5,
          "duration": 0.25,
          "velocity": 110
        },
        {
          "pitch": 63,
          "onset": 281.75,
          "duration": 0.25,
          "velocity": 110
        },
        {
          "pitch": 62,
          "onset": 282.0,
          "duration": 0.25,
          "velocity": 110
        },
        {
          "pitch": 63,
          "onset": 282.25,
          "duration": 0.25,
          "velocity": 110
        },
        {
          "pitch": 62,
          "onset": 282.5,
          "duration": 0.25,
          "velocity": 110
        },
        {
          "pitch": 60,
          "onset": 282.75,
          "duration": 0.25,
          "velocity": 110
        },
        {
          "pitch": 59,
          "onset": 283.0,
          "duration": 0.25,
          "velocity": 110
        },
        {
          "pitch": 60,
          "onset": 283.25,
          "duration": 0.25,
          "velocity": 110
        },
        {
          "pitch": 62,
          "onset": 283.5,
          "duration": 0.25,
          "velocity": 110
        },
        {
          "pitch": 63,
          "onset": 283.75,
          "duration": 0.25,
          "velocity": 110
        },
        {
          "pitch": 62,
          "onset": 284.0,
          "duration": 0.25,
          "velocity": 110
        },
        {
          "pitch": 60,
          "onset": 284.25,
          "duration": 0.25,
          "velocity": 110
        },
        {
          "pitch": 59,
          "onset": 284.5,
          "duration": 0.25,
          "velocity": 110
        },
        {
          "pitch": 57,
          "onset": 284.75,
          "duration": 0.25,
          "velocity": 110
        },
        {
          "pitch": 55,
          "onset": 285.0,
          "duration": 0.25,
          "velocity": 110
        },
        {
          "pitch": 56,
          "onset": 285.25,
          "duration": 0.25,
          "velocity": 110
        },
        {
          "pitch": 55,
          "onset": 285.5,
          "duration": 0.25,
          "velocity": 110
        },
        {
          "pitch": 53,
          "onset": 285.75,
          "duration": 0.25,
          "velocity": 110
        },
        {
          "pitch": 51,
          "onset": 286.0,
          "duration": 0.25,
          "velocity": 110
        },
        {
          "pitch": 53,
          "onset": 286.25,
          "duration": 0.25,
          "velocity": 110
        },
        {
          "pitch": 55,
          "onset": 286.5,
          "duration": 0.25,
          "velocity": 110
        },
        {
          "pitch": 56,
          "onset": 286.75,
          "duration": 0.25,
          "velocity": 110
        },
        {
          "pitch": 55,
          "onset": 287.0,
          "duration": 0.25,
          "velocity": 110
        },
        {
          "pitch": 53,
          "onset": 287.25,
          "duration": 0.25,
          "velocity": 110
        },
        {
          "pitch": 51,
          "onset": 287.5,
          "duration": 0.25,
          "velocity": 110
        },
        {
          "pitch": 50,
          "onset": 287.75,
          "duration": 0.25,
          "velocity": 110
        },
        {
          "pitch": 48,
          "onset": 288.0,
          "duration": 0.25,
          "velocity": 110
        },
        {
          "pitch": 51,
          "onset": 288.25,
          "duration": 0.25,
          "velocity": 110
        },
        {
          "pitch": 50,
          "onset": 288.5,
          "duration": 0.25,
          "velocity": 110
        },
        {
          "pitch": 48,
          "onset": 288.75,
          "duration": 0.25,
          "velocity": 110
        },
        {
          "pitch": 47,
          "onset": 289.0,
          "duration": 0.5,
          "velocity": 110
        },
        {
          "pitch": 43,
          "onset": 289.5,
          "duration": 0.5,
          "velocity": 110
        },
        {
          "pitch": 55,
          "onset": 290.5,
          "duration": 0.5,
          "velocity": 110
        },
        {
          "pitch": 56,
          "onset": 291.0,
          "duration": 0.5,
          "velocity": 110
        },
        {
          "pitch": 58,
          "onset": 291.5,
          "duration": 0.5,
          "velocity": 110
        },
        {
          "pitch": 60,
          "onset": 292.0,
          "duration": 2.0,
          "velocity": 110
        },
        {
          "pitch": 61,
          "onset": 294.0,
          "duration": 0.5,
          "velocity": 110
        },
        {
          "pitch": 60,
          "onset": 294.5,
          "duration": 0.75,
          "velocity": 110
        },
        {
          "pitch": 61,
          "onset": 295.25,
          "duration": 0.25,
          "velocity": 110
        },
        {
          "pitch": 58,
          "onset": 295.5,
          "duration": 0.25,
          "velocity": 110
        },
        {
          "pitch": 60,
          "onset": 295.75,
          "duration": 0.25,
          "velocity": 110
        },
        {
          "pitch": 56,
          "onset": 296.0,
          "duration": 0.5,
          "velocity": 110
        },
        {
          "pitch": 60,
          "onset": 296.5,
          "duration": 0.5,
          "velocity": 110
        },
        {
          "pitch": 65,
          "onset": 297.0,
          "duration": 0.25,
          "velocity": 110
        },
        {
          "pitch": 67,
          "onset": 297.25,
          "duration": 0.25,
          "velocity": 110
        },
        {
          "pitch": 63,
          "onset": 297.5,
          "duration": 0.25,
          "velocity": 110
        },
        {
          "pitch": 65,
          "onset": 297.75,
          "duration": 0.25,
          "velocity": 110
        },
        {
          "pitch": 62,
          "onset": 298.0,
          "duration": 1.25,
          "velocity": 110
        },
        {
          "pitch": 63,
          "onset": 299.25,
          "duration": 0.25,
          "velocity": 110
        },
        {
          "pitch": 60,
          "onset": 299.5,
          "duration": 0.25,
          "velocity": 110
        },
        {
          "pitch": 62,
          "onset": 299.75,
          "duration": 0.25,
          "velocity": 110
        },
        {
          "pitch": 59,
          "onset": 300.0,
          "duration": 0.25,
          "velocity": 110
        },
        {
          "pitch": 60,
          "onset": 300.25,
          "duration": 0.25,
          "velocity": 110
        },
        {
          "pitch": 57,
          "onset": 300.5,
          "duration": 0.25,
          "velocity": 110
        },
        {
          "pitch": 59,
          "onset": 300.75,
          "duration": 0.25,
          "velocity": 110
        },
        {
          "pitch": 60,
          "onset": 301.0,
          "duration": 0.25,
          "velocity": 110
        },
        {
          "pitch": 62,
          "onset": 301.25,
          "duration": 0.25,
          "velocity": 110
        },
        {
          "pitch": 58,
          "onset": 301.5,
          "duration": 0.25,
          "velocity": 110
        },
        {
          "pitch": 60,
          "onset": 301.75,
          "duration": 0.25,
          "velocity": 110
        },
        {
          "pitch": 56,
          "onset": 302.0,
          "duration": 0.25,
          "velocity": 110
        },
        {
          "pitch": 58,
          "onset": 302.25,
          "duration": 0.25,
          "velocity": 110
        },
        {
          "pitch": 55,
          "onset": 302.5,
          "duration": 0.25,
          "velocity": 110
        },
        {
          "pitch": 56,
          "onset": 302.75,
          "duration": 0.25,
          "velocity": 110
        },
        {
          "pitch": 53,
          "onset": 303.0,
          "duration": 0.25,
          "velocity": 110
        },
        {
          "pitch": 55,
          "onset": 303.25,
          "duration": 0.25,
          "velocity": 110
        },
        {
          "pitch": 51,
          "onset": 303.5,
          "duration": 0.25,
          "velocity": 110
        },
        {
          "pitch": 50,
          "onset": 303.75,
          "duration": 0.25,
          "velocity": 110
        },
        {
          "pitch": 48,
          "onset": 304.0,
          "duration": 0.5,
          "velocity": 110
        },
        {
          "pitch": 51,
          "onset": 305.5,
          "duration": 0.5,
          "velocity": 110
        },
        {
          "pitch": 53,
          "onset": 306.0,
          "duration": 0.25,
          "velocity": 110
        },
        {
          "pitch": 55,
          "onset": 306.25,
          "duration": 0.25,
          "velocity": 110
        },
        {
          "pitch": 51,
          "onset": 306.5,
          "duration": 0.25,
          "velocity": 110
        },
        {
          "pitch": 53,
          "onset": 306.75,
          "duration": 0.25,
          "velocity": 110
        },
        {
          "pitch": 50,
          "onset": 307.0,
          "duration": 0.25,
          "velocity": 110
        },
        {
          "pitch": 51,
          "onset": 307.25,
          "duration": 0.25,
          "velocity": 110
        },
        {
          "pitch": 48,
          "onset": 307.5,
          "duration": 0.25,
          "velocity": 110
        },
        {
          "pitch": 50,
          "onset": 307.75,
          "duration": 0.25,
          "velocity": 110
        },
        {
          "pitch": 47,
          "onset": 308.0,
          "duration": 0.5,
          "velocity": 110
        },
        {
          "pitch": 50,
          "onset": 308.5,
          "duration": 0.5,
          "velocity": 110
        },
        {
          "pitch": 51,
          "onset": 309.0,
          "duration": 0.5,
          "velocity": 110
        },
        {
          "pitch": 53,
          "onset": 309.5,
          "duration": 0.5,
          "velocity": 110
        },
        {
          "pitch": 55,
          "onset": 310.0,
          "duration": 0.25,
          "velocity": 110
        },
        {
          "pitch": 56,
          "onset": 310.25,
          "duration": 0.25,
          "velocity": 110
        },
        {
          "pitch": 53,
          "onset": 310.5,
          "duration": 0.25,
          "velocity": 110
        },
        {
          "pitch": 55,
          "onset": 310.75,
          "duration": 0.25,
          "velocity": 110
        },
        {
          "pitch": 51,
          "onset": 311.0,
          "duration": 0.25,
          "velocity": 110
        },
        {
          "pitch": 53,
          "onset": 311.25,
          "duration": 0.25,
          "velocity": 110
        },
        {
          "pitch": 50,
          "onset": 311.5,
          "duration": 0.25,
          "velocity": 110
        },
        {
          "pitch": 51,
          "onset": 311.75,
          "duration": 0.25,
          "velocity": 110
        },
        {
          "pitch": 48,
          "onset": 312.0,
          "duration": 0.5,
          "velocity": 100
        },
        {
          "pitch": 55,
          "onset": 313.0,
          "duration": 0.25,
          "velocity": 100
        },
        {
          "pitch": 59,
          "onset": 313.25,
          "duration": 0.25,
          "velocity": 100
        },
        {
          "pitch": 57,
          "onset": 313.5,
          "duration": 0.25,
          "velocity": 100
        },
        {
          "pitch": 55,
          "onset": 313.75,
          "duration": 0.25,
          "velocity": 100
        },
        {
          "pitch": 60,
          "onset": 314.0,
          "duration": 1.25,
          "velocity": 100
        },
        {
          "pitch": 61,
          "onset": 315.25,
          "duration": 0.25,
          "velocity": 100
        },
        {
          "pitch": 60,
          "onset": 315.5,
          "duration": 0.25,
          "velocity": 100
        },
        {
          "pitch": 58,
          "onset": 315.75,
          "duration": 0.25,
          "velocity": 100
        },
        {
          "pitch": 56,
          "onset": 316.0,
          "duration": 1.5,
          "velocity": 100
        },
        {
          "pitch": 61,
          "onset": 317.5,
          "duration": 0.5,
          "velocity": 100
        },
        {
          "pitch": 58,
          "onset": 318.0,
          "duration": 0.5,
          "velocity": 100
        },
        {
          "pitch": 60,
          "onset": 318.5,
          "duration": 0.5,
          "velocity": 100
        },
        {
          "pitch": 65,
          "onset": 319.0,
          "duration": 1.0,
          "velocity": 100
        },
        {
          "pitch": 56,
          "onset": 321.0,
          "duration": 1.0,
          "velocity": 100
        },
        {
          "pitch": 55,
          "onset": 322.0,
          "duration": 0.25,
          "velocity": 100
        },
        {
          "pitch": 56,
          "onset": 322.25,
          "duration": 0.25,
          "velocity": 100
        },
        {
          "pitch": 55,
          "onset": 322.5,
          "duration": 0.25,
          "velocity": 100
        },
        {
          "pitch": 53,
          "onset": 322.75,
          "duration": 0.25,
          "velocity": 100
        },
        {
          "pitch": 51,
          "onset": 323.0,
          "duration": 0.5,
          "velocity": 100
        },
        {
          "pitch": 50,
          "onset": 323.5,
          "duration": 0.25,
          "velocity": 100
        },
        {
          "pitch": 48,
          "onset": 323.75,
          "duration": 0.25,
          "velocity": 100
        },
        {
          "pitch": 47,
          "onset": 324.0,
          "duration": 0.125,
          "velocity": 100
        },
        {
          "pitch": 48,
          "onset": 324.125,
          "duration": 0.125,
          "velocity": 100
        },
        {
          "pitch": 47,
          "onset": 324.25,
          "duration": 0.75,
          "velocity": 100
        },
        {
          "pitch": 48,
          "onset": 325.0,
          "duration": 0.25,
          "velocity": 100
        },
        {
          "pitch": 51,
          "onset": 325.25,
          "duration": 0.25,
          "velocity": 100
        },
        {
          "pitch": 50,
          "onset": 325.5,
          "duration": 0.25,
          "velocity": 100
        },
        {
          "pitch": 48,
          "onset": 325.75,
          "duration": 0.25,
          "velocity": 100
        },
        {
          "pitch": 55,
          "onset": 326.0,
          "duration": 1.5,
          "velocity": 100
        },
        {
          "pitch": 43,
          "onset": 327.5,
          "duration": 0.5,
          "velocity": 100
        },
        {
          "pitch": 44,
          "onset": 328.0,
          "duration": 0.25,
          "velocity": 100
        },
        {
          "pitch": 48,
          "onset": 328.25,
          "duration": 0.25,
          "velocity": 100
        },
        {
          "pitch": 46,
          "onset": 328.5,
          "duration": 0.25,
          "velocity": 100
        },
        {
          "pitch": 44,
          "onset": 328.75,
          "duration": 0.25,
          "velocity": 100
        },
        {
          "pitch": 51,
          "onset": 329.0,
          "duration": 0.5,
          "velocity": 100
        },
        {
          "pitch": 52,
          "onset": 329.5,
          "duration": 0.5,
          "velocity": 100
        },
        {
          "pitch": 53,
          "onset": 330.0,
          "duration": 1.25,
          "velocity": 100
        },
        {
          "pitch": 53,
          "onset": 331.25,
          "duration": 0.25,
          "velocity": 100
        },
        {
          "pitch": 51,
          "onset": 331.5,
          "duration": 0.25,
          "velocity": 100
        },
        {
          "pitch": 50,
          "onset": 331.75,
          "duration": 0.25,
          "velocity": 100
        },
        {
          "pitch": 51,
          "onset": 332.0,
          "duration": 1.0,
          "velocity": 100
        },
        {
          "pitch": 47,
          "onset": 333.0,
          "duration": 1.0,
          "velocity": 100
        },
        {
          "pitch": 48,
          "onset": 334.0,
          "duration": 2.5,
          "velocity": 100
        },
        {
          "pitch": 36,
          "onset": 336.5,
          "duration": 0.5,
          "velocity": 100
        },
        {
          "pitch": 55,
          "onset": 337.25,
          "duration": 0.25,
          "velocity": 100
        },
        {
          "pitch": 59,
          "onset": 337.5,
          "duration": 0.25,
          "velocity": 100
        },
        {
          "pitch": 62,
          "onset": 337.75,
          "duration": 0.25,
          "velocity": 100
        },
        {
          "pitch": 67,
          "onset": 338.0,
          "duration": 0.25,
          "velocity": 100
        },
        {
          "pitch": 51,
          "onset": 339.0,
          "duration": 0.25,
          "velocity": 100
        },
        {
          "pitch": 55,
          "onset": 339.25,
          "duration": 0.25,
          "velocity": 100
        },
        {
          "pitch": 60,
          "onset": 339.5,
          "duration": 0.25,
          "velocity": 100
        },
        {
          "pitch": 63,
          "onset": 339.75,
          "duration": 0.25,
          "velocity": 100
        },
        {
          "pitch": 53,
          "onset": 340.25,
          "duration": 0.25,
          "velocity": 100
        },
        {
          "pitch": 56,
          "onset": 340.5,
          "duration": 0.25,
          "velocity": 100
        },
        {
          "pitch": 60,
          "onset": 340.75,
          "duration": 0.25,
          "velocity": 100
        },
        {
          "pitch": 65,
          "onset": 341.0,
          "duration": 0.25,
          "velocity": 100
        },
        {
          "pitch": 55,
          "onset": 342.0,
          "duration": 0.25,
          "velocity": 100
        },
        {
          "pitch": 59,
          "onset": 342.25,
          "duration": 0.25,
          "velocity": 100
        },
        {
          "pitch": 63,
          "onset": 342.5,
          "duration": 0.25,
          "velocity": 100
        },
        {
          "pitch": 67,
          "onset": 342.75,
          "duration": 0.25,
          "velocity": 100
        },
        {
          "pitch": 56,
          "onset": 343.25,
          "duration": 0.25,
          "velocity": 100
        },
        {
          "pitch": 60,
          "onset": 343.5,
          "duration": 0.25,
          "velocity": 100
        },
        {
          "pitch": 63,
          "onset": 343.75,
          "duration": 0.25,
          "velocity": 100
        },
        {
          "pitch": 68,
          "onset": 344.0,
          "duration": 0.25,
          "velocity": 100
        },
        {
          "pitch": 53,
          "onset": 345.0,
          "duration": 0.25,
          "velocity": 100
        },
        {
          "pitch": 56,
          "onset": 345.25,
          "duration": 0.25,
          "velocity": 100
        },
        {
          "pitch": 62,
          "onset": 345.5,
          "duration": 0.25,
          "velocity": 100
        },
        {
          "pitch": 65,
          "onset": 345.75,
          "duration": 0.25,
          "velocity": 100
        },
        {
          "pitch": 55,
          "onset": 346.25,
          "duration": 0.25,
          "velocity": 100
        },
        {
          "pitch": 59,
          "onset": 346.5,
          "duration": 0.25,
          "velocity": 100
        },
        {
          "pitch": 62,
          "onset": 346.75,
          "duration": 0.25,
          "velocity": 100
        },
        {
          "pitch": 67,
          "onset": 347.0,
          "duration": 0.25,
          "velocity": 100
        },
        {
          "pitch": 50,
          "onset": 348.0,
          "duration": 0.25,
          "velocity": 100
        },
        {
          "pitch": 53,
          "onset": 348.25,
          "duration": 0.25,
          "velocity": 100
        },
        {
          "pitch": 58,
          "onset": 348.5,
          "duration": 0.25,
          "velocity": 100
        },
        {
          "pitch": 62,
          "onset": 348.75,
          "duration": 0.25,
          "velocity": 100
        },
        {
          "pitch": 51,
          "onset": 349.25,
          "duration": 0.25,
          "velocity": 100
        },
        {
          "pitch": 55,
          "onset": 349.5,
          "duration": 0.25,
          "velocity": 100
        },
        {
          "pitch": 58,
          "onset": 349.75,
          "duration": 0.25,
          "velocity": 100
        },
        {
          "pitch": 63,
          "onset": 350.0,
          "duration": 0.25,
          "velocity": 100
        },
        {
          "pitch": 47,
          "onset": 351.0,
          "duration": 0.25,
          "velocity": 100
        },
        {
          "pitch": 50,
          "onset": 351.25,
          "duration": 0.25,
          "velocity": 100
        },
        {
          "pitch": 53,
          "onset": 351.5,
          "duration": 0.25,
          "velocity": 100
        },
        {
          "pitch": 59,
          "onset": 351.75,
          "duration": 0.25,
          "velocity": 100
        },
        {
          "pitch": 48,
          "onset": 352.25,
          "duration": 0.25,
          "velocity": 100
        },
        {
          "pitch": 51,
          "onset": 352.5,
          "duration": 0.25,
          "velocity": 100
        },
        {
          "pitch": 55,
          "onset": 352.75,
          "duration": 0.25,
          "velocity": 100
        },
        {
          "pitch": 60,
          "onset": 353.0,
          "duration": 0.25,
          "velocity": 100
        },
        {
          "pitch": 43,
          "onset": 354.0,
          "duration": 0.25,
          "velocity": 100
        },
        {
          "pitch": 48,
          "onset": 354.25,
          "duration": 0.25,
          "velocity": 100
        },
        {
          "pitch": 50,
          "onset": 354.5,
          "duration": 0.25,
          "velocity": 100
        },
        {
          "pitch": 53,
          "onset": 354.75,
          "duration": 0.25,
          "velocity": 100
        },
        {
          "pitch": 43,
          "onset": 355.25,
          "duration": 0.25,
          "velocity": 100
        },
        {
          "pitch": 48,
          "onset": 355.5,
          "duration": 0.25,
          "velocity": 100
        },
        {
          "pitch": 51,
          "onset": 355.75,
          "duration": 0.25,
          "velocity": 100
        },
        {
          "pitch": 55,
          "onset": 356.0,
          "duration": 0.25,
          "velocity": 100
        },
        {
          "pitch": 43,
          "onset": 357.0,
          "duration": 0.25,
          "velocity": 100
        },
        {
          "pitch": 47,
          "onset": 357.25,
          "duration": 0.25,
          "velocity": 100
        },
        {
          "pitch": 50,
          "onset": 357.5,
          "duration": 0.25,
          "velocity": 100
        },
        {
          "pitch": 55,
          "onset": 357.75,
          "duration": 0.25,
          "velocity": 100
        },
        {
          "pitch": 36,
          "onset": 358.0,
          "duration": 0.25,
          "velocity": 100
        },
        {
          "pitch": 48,
          "onset": 358.25,
          "duration": 0.25,
          "velocity": 100
        },
        {
          "pitch": 43,
          "onset": 361.0,
          "duration": 0.25,
          "velocity": 100
        },
        {
          "pitch": 55,
          "onset": 361.25,
          "duration": 0.25,
          "velocity": 100
        },
        {
          "pitch": 41,
          "onset": 364.0,
          "duration": 0.25,
          "velocity": 100
        },
        {
          "pitch": 53,
          "onset": 364.25,
          "duration": 0.25,
          "velocity": 100
        },
        {
          "pitch": 44,
          "onset": 367.0,
          "duration": 0.25,
          "velocity": 100
        },
        {
          "pitch": 56,
          "onset": 367.25,
          "duration": 0.25,
          "velocity": 100
        },
        {
          "pitch": 43,
          "onset": 370.0,
          "duration": 0.25,
          "velocity": 100
        },
        {
          "pitch": 55,
          "onset": 370.25,
          "duration": 0.25,
          "velocity": 100
        },
        {
          "pitch": 39,
          "onset": 373.0,
          "duration": 0.25,
          "velocity": 100
        },
        {
          "pitch": 51,
          "onset": 373.25,
          "duration": 0.25,
          "velocity": 100
        },
        {
          "pitch": 36,
          "onset": 376.0,
          "duration": 0.25,
          "velocity": 100
        },
        {
          "pitch": 48,
          "onset": 376.25,
          "duration": 0.25,
          "velocity": 100
        },
        {
          "pitch": 43,
          "onset": 379.0,
          "duration": 0.25,
          "velocity": 100
        },
        {
          "pitch": 55,
          "onset": 379.25,
          "duration": 0.25,
          "velocity": 100
        },
        {
          "pitch": 48,
          "onset": 382.0,
          "duration": 0.25,
          "velocity": 100
        },
        {
          "pitch": 60,
          "onset": 382.25,
          "duration": 0.25,
          "velocity": 100
        },
        {
          "pitch": 55,
          "onset": 384.5,
          "duration": 0.5,
          "velocity": 100
        },
        {
          "pitch": 55,
          "onset": 387.5,
          "duration": 0.5,
          "velocity": 100
        },
        {
          "pitch": 55,
          "onset": 390.5,
          "duration": 0.5,
          "velocity": 100
        },
        {
          "pitch": 62,
          "onset": 393.5,
          "duration": 0.5,
          "velocity": 100
        },
        {
          "pitch": 55,
          "onset": 396.5,
          "duration": 0.5,
          "velocity": 100
        },
        {
          "pitch": 55,
          "onset": 399.5,
          "duration": 0.5,
          "velocity": 100
        },
        {
          "pitch": 62,
          "onset": 402.5,
          "duration": 0.5,
          "velocity": 100
        },
        {
          "pitch": 62,
          "onset": 405.5,
          "duration": 0.5,
          "velocity": 100
        },
        {
          "pitch": 60,
          "onset": 408.0,
          "duration": 0.5,
          "velocity": 100
        },
        {
          "pitch": 59,
          "onset": 420.5,
          "duration": 0.5,
          "velocity": 100
        },
        {
          "pitch": 67,
          "onset": 423.5,
          "duration": 0.6562,
          "velocity": 100
        },
        {
          "pitch": 65,
          "onset": 424.1562,
          "duration": 0.1562,
          "velocity": 100
        },
        {
          "pitch": 63,
          "onset": 424.3438,
          "duration": 0.1562,
          "velocity": 100
        },
        {
          "pitch": 63,
          "onset": 424.5,
          "duration": 0.1562,
          "velocity": 100
        },
        {
          "pitch": 62,
          "onset": 424.6562,
          "duration": 0.1562,
          "velocity": 100
        },
        {
          "pitch": 60,
          "onset": 424.8438,
          "duration": 0.1562,
          "velocity": 100
        },
        {
          "pitch": 60,
          "onset": 425.0,
          "duration": 0.1562,
          "velocity": 100
        },
        {
          "pitch": 58,
          "onset": 425.1562,
          "duration": 0.1562,
          "velocity": 100
        },
        {
          "pitch": 56,
          "onset": 425.3438,
          "duration": 0.1562,
          "velocity": 100
        },
        {
          "pitch": 56,
          "onset": 425.5,
          "duration": 0.1562,
          "velocity": 100
        },
        {
          "pitch": 55,
          "onset": 425.6562,
          "duration": 0.1562,
          "velocity": 100
        },
        {
          "pitch": 53,
          "onset": 425.8438,
          "duration": 0.1562,
          "velocity": 100
        },
        {
          "pitch": 53,
          "onset": 426.0,
          "duration": 0.1562,
          "velocity": 100
        },
        {
          "pitch": 51,
          "onset": 426.1562,
          "duration": 0.1562,
          "velocity": 100
        },
        {
          "pitch": 50,
          "onset": 426.3438,
          "duration": 0.1562,
          "velocity": 100
        },
        {
          "pitch": 50,
          "onset": 426.5,
          "duration": 0.1562,
          "velocity": 100
        },
        {
          "pitch": 48,
          "onset": 426.6562,
          "duration": 0.1562,
          "velocity": 100
        },
        {
          "pitch": 47,
          "onset": 426.8438,
          "duration": 0.1562,
          "velocity": 100
        },
        {
          "pitch": 47,
          "onset": 427.0,
          "duration": 0.1562,
          "velocity": 100
        },
        {
          "pitch": 45,
          "onset": 427.1562,
          "duration": 0.1562,
          "velocity": 100
        },
        {
          "pitch": 43,
          "onset": 427.3438,
          "duration": 0.1562,
          "velocity": 100
        },
        {
          "pitch": 43,
          "onset": 427.5,
          "duration": 0.1562,
          "velocity": 100
        },
        {
          "pitch": 45,
          "onset": 427.6562,
          "duration": 0.1562,
          "velocity": 100
        },
        {
          "pitch": 47,
          "onset": 427.8438,
          "duration": 0.1562,
          "velocity": 100
        },
        {
          "pitch": 47,
          "onset": 428.0,
          "duration": 0.1562,
          "velocity": 100
        },
        {
          "pitch": 48,
          "onset": 428.1562,
          "duration": 0.1562,
          "velocity": 100
        },
        {
          "pitch": 50,
          "onset": 428.3438,
          "duration": 0.1562,
          "velocity": 100
        },
        {
          "pitch": 50,
          "onset": 428.5,
          "duration": 0.1562,
          "velocity": 100
        },
        {
          "pitch": 51,
          "onset": 428.6562,
          "duration": 0.1562,
          "velocity": 100
        },
        {
          "pitch": 53,
          "onset": 428.8438,
          "duration": 0.1562,
          "velocity": 100
        },
        {
          "pitch": 53,
          "onset": 429.0,
          "duration": 0.1562,
          "velocity": 100
        },
        {
          "pitch": 55,
          "onset": 429.1562,
          "duration": 0.1562,
          "velocity": 100
        },
        {
          "pitch": 56,
          "onset": 429.3438,
          "duration": 0.1562,
          "velocity": 100
        },
        {
          "pitch": 55,
          "onset": 429.5,
          "duration": 0.1562,
          "velocity": 100
        },
        {
          "pitch": 56,
          "onset": 429.6562,
          "duration": 0.1562,
          "velocity": 100
        },
        {
          "pitch": 53,
          "onset": 429.8438,
          "duration": 0.1562,
          "velocity": 100
        },
        {
          "pitch": 51,
          "onset": 430.0,
          "duration": 0.1562,
          "velocity": 100
        },
        {
          "pitch": 53,
          "onset": 430.1562,
          "duration": 0.1562,
          "velocity": 100
        },
        {
          "pitch": 50,
          "onset": 430.3438,
          "duration": 0.1562,
          "velocity": 100
        },
        {
          "pitch": 48,
          "onset": 430.5,
          "duration": 0.5,
          "velocity": 100
        },
        {
          "pitch": 43,
          "onset": 431.0,
          "duration": 0.1562,
          "velocity": 100
        },
        {
          "pitch": 41,
          "onset": 431.1562,
          "duration": 0.1562,
          "velocity": 100
        },
        {
          "pitch": 39,
          "onset": 431.3438,
          "duration": 0.1562,
          "velocity": 100
        },
        {
          "pitch": 39,
          "onset": 431.5,
          "duration": 0.1562,
          "velocity": 100
        },
        {
          "pitch": 38,
          "onset": 431.6562,
          "duration": 0.1562,
          "velocity": 100
        },
        {
          "pitch": 36,
          "onset": 431.8438,
          "duration": 0.1562,
          "velocity": 100
        },
        {
          "pitch": 36,
          "onset": 432.0,
          "duration": 1.0,
          "velocity": 100
        },
        {
          "pitch": 63,
          "onset": 432.0,
          "duration": 1.5,
          "velocity": 100
        },
        {
          "pitch": 62,
          "onset": 433.5,
          "duration": 0.25,
          "velocity": 100
        },
        {
          "pitch": 60,
          "onset": 433.75,
          "duration": 0.25,
          "velocity": 100
        },
        {
          "pitch": 62,
          "onset": 434.0,
          "duration": 0.5,
          "velocity": 100
        },
        {
          "pitch": 63,
          "onset": 434.5,
          "duration": 0.25,
          "velocity": 100
        },
        {
          "pitch": 65,
          "onset": 434.75,
          "duration": 0.25,
          "velocity": 100
        },
        {
          "pitch": 67,
          "onset": 435.0,
          "duration": 1.5,
          "velocity": 100
        },
        {
          "pitch": 65,
          "onset": 436.5,
          "duration": 0.25,
          "velocity": 100
        },
        {
          "pitch": 63,
          "onset": 436.75,
          "duration": 0.25,
          "velocity": 100
        },
        {
          "pitch": 65,
          "onset": 437.0,
          "duration": 0.5,
          "velocity": 100
        },
        {
          "pitch": 67,
          "onset": 437.5,
          "duration": 0.25,
          "velocity": 100
        },
        {
          "pitch": 68,
          "onset": 437.75,
          "duration": 0.25,
          "velocity": 100
        },
        {
          "pitch": 62,
          "onset": 438.0,
          "duration": 1.5,
          "velocity": 100
        },
        {
          "pitch": 60,
          "onset": 439.5,
          "duration": 1.5,
          "velocity": 100
        },
        {
          "pitch": 62,
          "onset": 441.5,
          "duration": 0.5,
          "velocity": 100
        },
        {
          "pitch": 60,
          "onset": 442.0,
          "duration": 0.125,
          "velocity": 100
        },
        {
          "pitch": 59,
          "onset": 442.125,
          "duration": 0.375,
          "velocity": 100
        },
        {
          "pitch": 60,
          "onset": 442.5,
          "duration": 0.25,
          "velocity": 100
        },
        {
          "pitch": 59,
          "onset": 442.75,
          "duration": 0.25,
          "velocity": 100
        },
        {
          "pitch": 60,
          "onset": 443.0,
          "duration": 0.5,
          "velocity": 100
        },
        {
          "pitch": 62,
          "onset": 443.5,
          "duration": 0.25,
          "velocity": 100
        },
        {
          "pitch": 63,
          "onset": 443.75,
          "duration": 0.25,
          "velocity": 100
        },
        {
          "pitch": 59,
          "onset": 444.0,
          "duration": 1.5,
          "velocity": 100
        },
        {
          "pitch": 60,
          "onset": 445.5,
          "duration": 0.25,
          "velocity": 100
        },
        {
          "pitch": 62,
          "onset": 445.75,
          "duration": 0.25,
          "velocity": 100
        },
        {
          "pitch": 63,
          "onset": 446.0,
          "duration": 1.0,
          "velocity": 100
        },
        {
          "pitch": 62,
          "onset": 447.5,
          "duration": 0.5,
          "velocity": 100
        },
        {
          "pitch": 60,
          "onset": 448.0,
          "duration": 1.5,
          "velocity": 100
        },
        {
          "pitch": 62,
          "onset": 449.5,
          "duration": 0.25,
          "velocity": 100
        },
        {
          "pitch": 64,
          "onset": 449.75,
          "duration": 0.25,
          "velocity": 100
        },
        {
          "pitch": 65,
          "onset": 450.0,
          "duration": 1.5,
          "velocity": 100
        },
        {
          "pitch": 63,
          "onset": 451.5,
          "duration": 0.25,
          "velocity": 100
        },
        {
          "pitch": 62,
          "onset": 451.75,
          "duration": 0.25,
          "velocity": 100
        },
        {
          "pitch": 63,
          "onset": 452.0,
          "duration": 0.5,
          "velocity": 100
        },
        {
          "pitch": 62,
          "onset": 452.5,
          "duration": 0.25,
          "velocity": 100
        },
        {
          "pitch": 60,
          "onset": 452.75,
          "duration": 0.25,
          "velocity": 100
        },
        {
          "pitch": 67,
          "onset": 453.0,
          "duration": 0.5,
          "velocity": 100
        },
        {
          "pitch": 65,
          "onset": 453.5,
          "duration": 1.0,
          "velocity": 100
        },
        {
          "pitch": 63,
          "onset": 454.5,
          "duration": 0.25,
          "velocity": 100
        },
        {
          "pitch": 62,
          "onset": 454.75,
          "duration": 0.25,
          "velocity": 100
        },
        {
          "pitch": 63,
          "onset": 455.0,
          "duration": 0.5,
          "velocity": 100
        },
        {
          "pitch": 63,
          "onset": 455.5,
          "duration": 0.25,
          "velocity": 100
        },
        {
          "pitch": 62,
          "onset": 455.75,
          "duration": 0.25,
          "velocity": 100
        },
        {
          "pitch": 60,
          "onset": 456.0,
          "duration": 0.5,
          "velocity": 100
        },
        {
          "pitch": 63,
          "onset": 456.5,
          "duration": 0.75,
          "velocity": 100
        },
        {
          "pitch": 65,
          "onset": 457.25,
          "duration": 0.25,
          "velocity": 100
        },
        {
          "pitch": 63,
          "onset": 457.5,
          "duration": 0.25,
          "velocity": 100
        },
        {
          "pitch": 62,
          "onset": 457.75,
          "duration": 0.25,
          "velocity": 100
        },
        {
          "pitch": 63,
          "onset": 458.0,
          "duration": 1.25,
          "velocity": 100
        },
        {
          "pitch": 65,
          "onset": 459.25,
          "duration": 0.25,
          "velocity": 100
        },
        {
          "pitch": 63,
          "onset": 459.5,
          "duration": 0.25,
          "velocity": 100
        },
        {
          "pitch": 62,
          "onset": 459.75,
          "duration": 0.25,
          "velocity": 100
        },
        {
          "pitch": 63,
          "onset": 460.0,
          "duration": 1.25,
          "velocity": 100
        },
        {
          "pitch": 65,
          "onset": 461.25,
          "duration": 0.25,
          "velocity": 100
        },
        {
          "pitch": 63,
          "onset": 461.5,
          "duration": 0.25,
          "velocity": 100
        },
        {
          "pitch": 62,
          "onset": 461.75,
          "duration": 0.25,
          "velocity": 100
        },
        {
          "pitch": 63,
          "onset": 462.0,
          "duration": 1.25,
          "velocity": 100
        },
        {
          "pitch": 65,
          "onset": 463.25,
          "duration": 0.25,
          "velocity": 100
        },
        {
          "pitch": 63,
          "onset": 463.5,
          "duration": 0.25,
          "velocity": 100
        },
        {
          "pitch": 62,
          "onset": 463.75,
          "duration": 0.25,
          "velocity": 100
        },
        {
          "pitch": 63,
          "onset": 464.0,
          "duration": 1.25,
          "velocity": 100
        },
        {
          "pitch": 65,
          "onset": 465.25,
          "duration": 0.25,
          "velocity": 100
        },
        {
          "pitch": 63,
          "onset": 465.5,
          "duration": 0.25,
          "velocity": 100
        },
        {
          "pitch": 62,
          "onset": 465.75,
          "duration": 0.25,
          "velocity": 100
        },
        {
          "pitch": 63,
          "onset": 466.0,
          "duration": 1.25,
          "velocity": 100
        },
        {
          "pitch": 63,
          "onset": 467.25,
          "duration": 0.25,
          "velocity": 100
        },
        {
          "pitch": 62,
          "onset": 467.5,
          "duration": 0.25,
          "velocity": 100
        },
        {
          "pitch": 60,
          "onset": 467.75,
          "duration": 0.25,
          "velocity": 100
        },
        {
          "pitch": 62,
          "onset": 468.0,
          "duration": 1.25,
          "velocity": 100
        },
        {
          "pitch": 65,
          "onset": 469.25,
          "duration": 0.25,
          "velocity": 100
        },
        {
          "pitch": 63,
          "onset": 469.5,
          "duration": 0.25,
          "velocity": 100
        },
        {
          "pitch": 62,
          "onset": 469.75,
          "duration": 0.25,
          "velocity": 100
        },
        {
          "pitch": 60,
          "onset": 470.0,
          "duration": 1.0,
          "velocity": 100
        },
        {
          "pitch": 62,
          "onset": 471.0,
          "duration": 2.0,
          "velocity": 100
        },
        {
          "pitch": 60,
          "onset": 473.0,
          "duration": 2.0,
          "velocity": 100
        },
        {
          "pitch": 59,
          "onset": 475.0,
          "duration": 1.0,
          "velocity": 100
        },
        {
          "pitch": 60,
          "onset": 476.0,
          "duration": 1.0,
          "velocity": 100
        },
        {
          "pitch": 62,
          "onset": 477.0,
          "duration": 0.5,
          "velocity": 100
        },
        {
          "pitch": 55,
          "onset": 477.5,
          "duration": 1.75,
          "velocity": 100
        },
        {
          "pitch": 56,
          "onset": 479.25,
          "duration": 0.25,
          "velocity": 100
        },
        {
          "pitch": 55,
          "onset": 479.5,
          "duration": 0.25,
          "velocity": 100
        },
        {
          "pitch": 53,
          "onset": 479.75,
          "duration": 0.25,
          "velocity": 100
        },
        {
          "pitch": 51,
          "onset": 480.0,
          "duration": 0.5,
          "velocity": 110
        },
        {
          "pitch": 39,
          "onset": 480.5,
          "duration": 0.75,
          "velocity": 110
        },
        {
          "pitch": 62,
          "onset": 481.25,
          "duration": 0.25,
          "velocity": 110
        },
        {
          "pitch": 60,
          "onset": 481.5,
          "duration": 0.25,
          "velocity": 110
        },
        {
          "pitch": 59,
          "onset": 481.75,
          "duration": 0.25,
          "velocity": 110
        },
        {
          "pitch": 60,
          "onset": 482.0,
          "duration": 1.25,
          "velocity": 110
        },
        {
          "pitch": 63,
          "onset": 482.0,
          "duration": 0.25,
          "velocity": 110
        },
        {
          "pitch": 65,
          "onset": 482.25,
          "duration": 0.25,
          "velocity": 110
        },
        {
          "pitch": 63,
          "onset": 482.5,
          "duration": 0.25,
          "velocity": 110
        },
        {
          "pitch": 62,
          "onset": 482.75,
          "duration": 0.25,
          "velocity": 110
        },
        {
          "pitch": 63,
          "onset": 483.0,
          "duration": 1.25,
          "velocity": 110
        },
        {
          "pitch": 62,
          "onset": 483.25,
          "duration": 0.25,
          "velocity": 110
        },
        {
          "pitch": 60,
          "onset": 483.5,
          "duration": 0.25,
          "velocity": 110
        },
        {
          "pitch": 59,
          "onset": 483.75,
          "duration": 0.25,
          "velocity": 110
        },
        {
          "pitch": 60,
          "onset": 484.0,
          "duration": 1.25,
          "velocity": 110
        },
        {
          "pitch": 65,
          "onset": 484.25,
          "duration": 0.25,
          "velocity": 110
        },
        {
          "pitch": 63,
          "onset": 484.5,
          "duration": 0.25,
          "velocity": 110
        },
        {
          "pitch": 62,
          "onset": 484.75,
          "duration": 0.25,
          "velocity": 110
        },
        {
          "pitch": 63,
          "onset": 485.0,
          "duration": 1.25,
          "velocity": 110
        },
        {
          "pitch": 62,
          "onset": 485.25,
          "duration": 0.25,
          "velocity": 110
        },
        {
          "pitch": 60,
          "onset": 485.5,
          "duration": 0.25,
          "velocity": 110
        },
        {
          "pitch": 59,
          "onset": 485.75,
          "duration": 0.25,
          "velocity": 110
        },
        {
          "pitch": 65,
          "onset": 486.25,
          "duration": 0.25,
          "velocity": 110
        },
        {
          "pitch": 63,
          "onset": 486.5,
          "duration": 0.25,
          "velocity": 110
        },
        {
          "pitch": 62,
          "onset": 486.75,
          "duration": 0.25,
          "velocity": 110
        },
        {
          "pitch": 60,
          "onset": 487.0,
          "duration": 0.25,
          "velocity": 110
        },
        {
          "pitch": 62,
          "onset": 487.25,
          "duration": 0.25,
          "velocity": 110
        },
        {
          "pitch": 60,
          "onset": 487.5,
          "duration": 0.25,
          "velocity": 110
        },
        {
          "pitch": 59,
          "onset": 487.75,
          "duration": 0.25,
          "velocity": 110
        },
        {
          "pitch": 65,
          "onset": 487.75,
          "duration": 0.25,
          "velocity": 110
        },
        {
          "pitch": 60,
          "onset": 488.0,
          "duration": 1.25,
          "velocity": 110
        },
        {
          "pitch": 63,
          "onset": 488.0,
          "duration": 0.25,
          "velocity": 110
        },
        {
          "pitch": 65,
          "onset": 488.25,
          "duration": 0.25,
          "velocity": 110
        },
        {
          "pitch": 63,
          "onset": 488.5,
          "duration": 0.25,
          "velocity": 110
        },
        {
          "pitch": 62,
          "onset": 488.75,
          "duration": 0.25,
          "velocity": 110
        },
        {
          "pitch": 63,
          "onset": 489.0,
          "duration": 1.25,
          "velocity": 110
        },
        {
          "pitch": 62,
          "onset": 489.25,
          "duration": 0.25,
          "velocity": 110
        },
        {
          "pitch": 60,
          "onset": 489.5,
          "duration": 0.25,
          "velocity": 110
        },
        {
          "pitch": 59,
          "onset": 489.75,
          "duration": 0.25,
          "velocity": 110
        },
        {
          "pitch": 60,
          "onset": 490.0,
          "duration": 1.25,
          "velocity": 110
        },
        {
          "pitch": 65,
          "onset": 490.25,
          "duration": 0.25,
          "velocity": 110
        },
        {
          "pitch": 63,
          "onset": 490.5,
          "duration": 0.25,
          "velocity": 110
        },
        {
          "pitch": 62,
          "onset": 490.75,
          "duration": 0.25,
          "velocity": 110
        },
        {
          "pitch": 63,
          "onset": 491.0,
          "duration": 0.25,
          "velocity": 110
        },
        {
          "pitch": 60,
          "onset": 491.25,
          "duration": 0.25,
          "velocity": 110
        },
        {
          "pitch": 63,
          "onset": 491.25,
          "duration": 0.25,
          "velocity": 110
        },
        {
          "pitch": 62,
          "onset": 491.5,
          "duration": 0.25,
          "velocity": 110
        },
        {
          "pitch": 65,
          "onset": 491.5,
          "duration": 0.25,
          "velocity": 110
        },
        {
          "pitch": 63,
          "onset": 491.75,
          "duration": 0.25,
          "velocity": 110
        },
        {
          "pitch": 67,
          "onset": 491.75,
          "duration": 0.25,
          "velocity": 110
        },
        {
          "pitch": 65,
          "onset": 492.0,
          "duration": 0.5,
          "velocity": 110
        },
        {
          "pitch": 68,
          "onset": 492.0,
          "duration": 0.5,
          "velocity": 110
        },
        {
          "pitch": 53,
          "onset": 492.5,
          "duration": 0.5,
          "velocity": 110
        },
        {
          "pitch": 65,
          "onset": 492.5,
          "duration": 0.5,
          "velocity": 110
        },
        {
          "pitch": 60,
          "onset": 493.0,
          "duration": 1.25,
          "velocity": 110
        },
        {
          "pitch": 63,
          "onset": 493.0,
          "duration": 0.25,
          "velocity": 110
        },
        {
          "pitch": 65,
          "onset": 493.25,
          "duration": 0.25,
          "velocity": 110
        },
        {
          "pitch": 63,
          "onset": 493.5,
          "duration": 0.25,
          "velocity": 110
        },
        {
          "pitch": 62,
          "onset": 493.75,
          "duration": 0.25,
          "velocity": 110
        },
        {
          "pitch": 63,
          "onset": 494.0,
          "duration": 1.0,
          "velocity": 110
        },
        {
          "pitch": 60,
          "onset": 494.25,
          "duration": 0.25,
          "velocity": 110
        },
        {
          "pitch": 59,
          "onset": 494.5,
          "duration": 0.25,
          "velocity": 110
        },
        {
          "pitch": 57,
          "onset": 494.75,
          "duration": 0.25,
          "velocity": 110
        },
        {
          "pitch": 62,
          "onset": 495.0,
          "duration": 1.0,
          "velocity": 110
        },
        {
          "pitch": 65,
          "onset": 495.0,
          "duration": 0.25,
          "velocity": 110
        },
        {
          "pitch": 68,
          "onset": 495.25,
          "duration": 0.25,
          "velocity": 110
        },
        {
          "pitch": 67,
          "onset": 495.5,
          "duration": 0.25,
          "velocity": 110
        },
        {
          "pitch": 65,
          "onset": 495.75,
          "duration": 0.25,
          "velocity": 110
        },
        {
          "pitch": 55,
          "onset": 496.0,
          "duration": 1.25,
          "velocity": 110
        },
        {
          "pitch": 63,
          "onset": 496.0,
          "duration": 0.25,
          "velocity": 110
        },
        {
          "pitch": 65,
          "onset": 496.25,
          "duration": 0.25,
          "velocity": 110
        },
        {
          "pitch": 63,
          "onset": 496.5,
          "duration": 0.25,
          "velocity": 110
        },
        {
          "pitch": 62,
          "onset": 496.75,
          "duration": 0.25,
          "velocity": 110
        },
        {
          "pitch": 60,
          "onset": 497.0,
          "duration": 1.25,
          "velocity": 110
        },
        {
          "pitch": 58,
          "onset": 497.25,
          "duration": 0.25,
          "velocity": 110
        },
        {
          "pitch": 56,
          "onset": 497.5,
          "duration": 0.25,
          "velocity": 110
        },
        {
          "pitch": 55,
          "onset": 497.75,
          "duration": 0.25,
          "velocity": 110
        },
        {
          "pitch": 53,
          "onset": 498.0,
          "duration": 1.0,
          "velocity": 110
        },
        {
          "pitch": 62,
          "onset": 498.25,
          "duration": 0.25,
          "velocity": 110
        },
        {
          "pitch": 60,
          "onset": 498.5,
          "duration": 0.25,
          "velocity": 110
        },
        {
          "pitch": 59,
          "onset": 498.75,
          "duration": 0.25,
          "velocity": 110
        },
        {
          "pitch": 51,
          "onset": 499.0,
          "duration": 0.25,
          "velocity": 110
        },
        {
          "pitch": 60,
          "onset": 499.0,
          "duration": 1.25,
          "velocity": 110
        },
        {
          "pitch": 53,
          "onset": 499.25,
          "duration": 0.25,
          "velocity": 110
        },
        {
          "pitch": 51,
          "onset": 499.5,
          "duration": 0.25,
          "velocity": 110
        },
        {
          "pitch": 50,
          "onset": 499.75,
          "duration": 0.25,
          "velocity": 110
        },
        {
          "pitch": 51,
          "onset": 500.0,
          "duration": 0.75,
          "velocity": 110
        },
        {
          "pitch": 62,
          "onset": 500.25,
          "duration": 0.25,
          "velocity": 110
        },
        {
          "pitch": 60,
          "onset": 500.5,
          "duration": 0.25,
          "velocity": 110
        },
        {
          "pitch": 53,
          "onset": 500.75,
          "duration": 0.25,
          "velocity": 110
        },
        {
          "pitch": 59,
          "onset": 500.75,
          "duration": 0.25,
          "velocity": 110
        },
        {
          "pitch": 55,
          "onset": 501.0,
          "duration": 0.25,
          "velocity": 110
        },
        {
          "pitch": 60,
          "onset": 501.0,
          "duration": 0.25,
          "velocity": 110
        },
        {
          "pitch": 53,
          "onset": 501.25,
          "duration": 0.25,
          "velocity": 110
        },
        {
          "pitch": 62,
          "onset": 501.25,
          "duration": 0.25,
          "velocity": 110
        },
        {
          "pitch": 55,
          "onset": 501.5,
          "duration": 0.25,
          "velocity": 110
        },
        {
          "pitch": 60,
          "onset": 501.5,
          "duration": 0.25,
          "velocity": 110
        },
        {
          "pitch": 56,
          "onset": 501.75,
          "duration": 0.25,
          "velocity": 110
        },
        {
          "pitch": 59,
          "onset": 501.75,
          "duration": 0.25,
          "velocity": 110
        },
        {
          "pitch": 55,
          "onset": 502.0,
          "duration": 1.25,
          "velocity": 110
        },
        {
          "pitch": 60,
          "onset": 502.0,
          "duration": 1.25,
          "velocity": 110
        },
        {
          "pitch": 53,
          "onset": 503.25,
          "duration": 0.25,
          "velocity": 110
        },
        {
          "pitch": 56,
          "onset": 503.25,
          "duration": 0.25,
          "velocity": 110
        },
        {
          "pitch": 51,
          "onset": 503.5,
          "duration": 0.25,
          "velocity": 110
        },
        {
          "pitch": 55,
          "onset": 503.5,
          "duration": 0.25,
          "velocity": 110
        },
        {
          "pitch": 50,
          "onset": 503.75,
          "duration": 0.25,
          "velocity": 110
        },
        {
          "pitch": 53,
          "onset": 503.75,
          "duration": 0.25,
          "velocity": 110
        },
        {
          "pitch": 48,
          "onset": 504.0,
          "duration": 1.0,
          "velocity": 110
        },
        {
          "pitch": 60,
          "onset": 504.0,
          "duration": 1.0,
          "velocity": 110
        },
        {
          "pitch": 63,
          "onset": 505.5,
          "duration": 0.5,
          "velocity": 100
        },
        {
          "pitch": 59,
          "onset": 506.0,
          "duration": 0.5,
          "velocity": 100
        },
        {
          "pitch": 59,
          "onset": 506.5,
          "duration": 0.5,
          "velocity": 100
        },
        {
          "pitch": 60,
          "onset": 507.0,
          "duration": 0.5,
          "velocity": 100
        },
        {
          "pitch": 60,
          "onset": 507.5,
          "duration": 0.5,
          "velocity": 100
        },
        {
          "pitch": 68,
          "onset": 508.5,
          "duration": 0.5,
          "velocity": 100
        },
        {
          "pitch": 62,
          "onset": 509.0,
          "duration": 0.5,
          "velocity": 100
        },
        {
          "pitch": 62,
          "onset": 509.5,
          "duration": 0.5,
          "velocity": 100
        },
        {
          "pitch": 64,
          "onset": 510.0,
          "duration": 0.5,
          "velocity": 100
        },
        {
          "pitch": 64,
          "onset": 510.5,
          "duration": 0.5,
          "velocity": 100
        },
        {
          "pitch": 65,
          "onset": 511.5,
          "duration": 0.5,
          "velocity": 100
        },
        {
          "pitch": 60,
          "onset": 512.0,
          "duration": 0.5,
          "velocity": 100
        },
        {
          "pitch": 60,
          "onset": 512.5,
          "duration": 0.5,
          "velocity": 100
        },
        {
          "pitch": 62,
          "onset": 513.0,
          "duration": 0.5,
          "velocity": 100
        },
        {
          "pitch": 62,
          "onset": 513.5,
          "duration": 0.5,
          "velocity": 100
        },
        {
          "pitch": 63,
          "onset": 514.5,
          "duration": 0.5,
          "velocity": 100
        },
        {
          "pitch": 59,
          "onset": 515.0,
          "duration": 0.5,
          "velocity": 100
        },
        {
          "pitch": 59,
          "onset": 515.5,
          "duration": 0.5,
          "velocity": 100
        },
        {
          "pitch": 60,
          "onset": 516.0,
          "duration": 0.5,
          "velocity": 100
        },
        {
          "pitch": 60,
          "onset": 516.5,
          "duration": 0.75,
          "velocity": 100
        },
        {
          "pitch": 60,
          "onset": 517.25,
          "duration": 0.25,
          "velocity": 100
        },
        {
          "pitch": 58,
          "onset": 517.5,
          "duration": 0.25,
          "velocity": 100
        },
        {
          "pitch": 57,
          "onset": 517.75,
          "duration": 0.25,
          "velocity": 100
        },
        {
          "pitch": 58,
          "onset": 518.0,
          "duration": 1.25,
          "velocity": 100
        },
        {
          "pitch": 58,
          "onset": 519.25,
          "duration": 0.25,
          "velocity": 100
        },
        {
          "pitch": 57,
          "onset": 519.5,
          "duration": 0.25,
          "velocity": 100
        },
        {
          "pitch": 55,
          "onset": 519.75,
          "duration": 0.25,
          "velocity": 100
        },
        {
          "pitch": 54,
          "onset": 520.0,
          "duration": 0.25,
          "velocity": 100
        },
        {
          "pitch": 50,
          "onset": 520.25,
          "duration": 0.25,
          "velocity": 100
        },
        {
          "pitch": 55,
          "onset": 520.5,
          "duration": 0.25,
          "velocity": 100
        },
        {
          "pitch": 48,
          "onset": 520.75,
          "duration": 0.25,
          "velocity": 100
        },
        {
          "pitch": 50,
          "onset": 521.0,
          "duration": 0.25,
          "velocity": 100
        },
        {
          "pitch": 62,
          "onset": 521.25,
          "duration": 0.25,
          "velocity": 100
        },
        {
          "pitch": 60,
          "onset": 521.5,
          "duration": 0.25,
          "velocity": 100
        },
        {
          "pitch": 62,
          "onset": 521.75,
          "duration": 0.25,
          "velocity": 100
        },
        {
          "pitch": 55,
          "onset": 522.0,
          "duration": 0.25,
          "velocity": 100
        },
        {
          "pitch": 67,
          "onset": 522.25,
          "duration": 0.25,
          "velocity": 100
        },
        {
          "pitch": 65,
          "onset": 522.5,
          "duration": 0.25,
          "velocity": 100
        },
        {
          "pitch": 67,
          "onset": 522.75,
          "duration": 0.25,
          "velocity": 100
        },
        {
          "pitch": 63,
          "onset": 523.0,
          "duration": 0.25,
          "velocity": 100
        },
        {
          "pitch": 67,
          "onset": 523.25,
          "duration": 0.25,
          "velocity": 100
        },
        {
          "pitch": 63,
          "onset": 523.5,
          "duration": 0.25,
          "velocity": 100
        },
        {
          "pitch": 67,
          "onset": 523.75,
          "duration": 0.25,
          "velocity": 100
        },
        {
          "pitch": 63,
          "onset": 524.0,
          "duration": 0.25,
          "velocity": 100
        },
        {
          "pitch": 65,
          "onset": 524.25,
          "duration": 0.25,
          "velocity": 100
        },
        {
          "pitch": 63,
          "onset": 524.5,
          "duration": 0.25,
          "velocity": 100
        },
        {
          "pitch": 65,
          "onset": 524.75,
          "duration": 0.25,
          "velocity": 100
        },
        {
          "pitch": 62,
          "onset": 525.0,
          "duration": 0.25,
          "velocity": 100
        },
        {
          "pitch": 65,
          "onset": 525.25,
          "duration": 0.25,
          "velocity": 100
        },
        {
          "pitch": 62,
          "onset": 525.5,
          "duration": 0.25,
          "velocity": 100
        },
        {
          "pitch": 65,
          "onset": 525.75,
          "duration": 0.25,
          "velocity": 100
        },
        {
          "pitch": 60,
          "onset": 526.0,
          "duration": 0.25,
          "velocity": 100
        },
        {
          "pitch": 63,
          "onset": 526.25,
          "duration": 0.25,
          "velocity": 100
        },
        {
          "pitch": 62,
          "onset": 526.5,
          "duration": 0.25,
          "velocity": 100
        },
        {
          "pitch": 65,
          "onset": 526.75,
          "duration": 0.25,
          "velocity": 100
        },
        {
          "pitch": 63,
          "onset": 527.0,
          "duration": 0.25,
          "velocity": 100
        },
        {
          "pitch": 65,
          "onset": 527.25,
          "duration": 0.25,
          "velocity": 100
        },
        {
          "pitch": 63,
          "onset": 527.5,
          "duration": 0.25,
          "velocity": 100
        },
        {
          "pitch": 65,
          "onset": 527.75,
          "duration": 0.25,
          "velocity": 100
        },
        {
          "pitch": 63,
          "onset": 528.0,
          "duration": 0.25,
          "velocity": 100
        },
        {
          "pitch": 65,
          "onset": 528.25,
          "duration": 0.25,
          "velocity": 100
        },
        {
          "pitch": 63,
          "onset": 528.5,
          "duration": 0.25,
          "velocity": 100
        },
        {
          "pitch": 65,
          "onset": 528.75,
          "duration": 0.25,
          "velocity": 100
        },
        {
          "pitch": 62,
          "onset": 529.0,
          "duration": 0.25,
          "velocity": 100
        },
        {
          "pitch": 63,
          "onset": 529.25,
          "duration": 0.25,
          "velocity": 100
        },
        {
          "pitch": 62,
          "onset": 529.5,
          "duration": 0.25,
          "velocity": 100
        },
        {
          "pitch": 63,
          "onset": 529.75,
          "duration": 0.25,
          "velocity": 100
        },
        {
          "pitch": 62,
          "onset": 530.0,
          "duration": 0.25,
          "velocity": 100
        },
        {
          "pitch": 63,
          "onset": 530.25,
          "duration": 0.25,
          "velocity": 100
        },
        {
          "pitch": 60,
          "onset": 530.5,
          "duration": 0.25,
          "velocity": 100
        },
        {
          "pitch": 62,
          "onset": 530.75,
          "duration": 0.25,
          "velocity": 100
        },
        {
          "pitch": 59,
          "onset": 531.0,
          "duration": 0.5,
          "velocity": 100
        },
        {
          "pitch": 59,
          "onset": 531.5,
          "duration": 0.5,
          "velocity": 100
        },
        {
          "pitch": 60,
          "onset": 532.0,
          "duration": 0.5,
          "velocity": 100
        },
        {
          "pitch": 60,
          "onset": 532.5,
          "duration": 0.5,
          "velocity": 100
        },
        {
          "pitch": 53,
          "onset": 533.0,
          "duration": 0.5,
          "velocity": 100
        },
        {
          "pitch": 53,
          "onset": 533.5,
          "duration": 0.5,
          "velocity": 100
        },
        {
          "pitch": 55,
          "onset": 534.0,
          "duration": 0.5,
          "velocity": 100
        },
        {
          "pitch": 55,
          "onset": 534.5,
          "duration": 0.5,
          "velocity": 100
        },
        {
          "pitch": 56,
          "onset": 535.0,
          "duration": 0.5,
          "velocity": 100
        },
        {
          "pitch": 55,
          "onset": 535.5,
          "duration": 0.5,
          "velocity": 100
        },
        {
          "pitch": 53,
          "onset": 536.0,
          "duration": 1.5,
          "velocity": 100
        },
        {
          "pitch": 53,
          "onset": 537.5,
          "duration": 0.5,
          "velocity": 100
        },
        {
          "pitch": 55,
          "onset": 538.0,
          "duration": 1.5,
          "velocity": 100
        },
        {
          "pitch": 55,
          "onset": 539.5,
          "duration": 1.0,
          "velocity": 100
        },
        {
          "pitch": 60,
          "onset": 540.5,
          "duration": 0.5,
          "velocity": 100
        },
        {
          "pitch": 59,
          "onset": 541.0,
          "duration": 0.25,
          "velocity": 100
        },
        {
          "pitch": 62,
          "onset": 541.25,
          "duration": 0.25,
          "velocity": 100
        },
        {
          "pitch": 60,
          "onset": 541.5,
          "duration": 0.25,
          "velocity": 100
        },
        {
          "pitch": 63,
          "onset": 541.75,
          "duration": 0.25,
          "velocity": 100
        },
        {
          "pitch": 62,
          "onset": 542.0,
          "duration": 0.5,
          "velocity": 100
        },
        {
          "pitch": 55,
          "onset": 542.5,
          "duration": 1.0,
          "velocity": 100
        },
        {
          "pitch": 60,
          "onset": 543.5,
          "duration": 1.5,
          "velocity": 100
        },
        {
          "pitch": 65,
          "onset": 545.0,
          "duration": 1.0,
          "velocity": 100
        },
        {
          "pitch": 58,
          "onset": 546.0,
          "duration": 1.0,
          "velocity": 100
        },
        {
          "pitch": 60,
          "onset": 547.0,
          "duration": 1.0,
          "velocity": 100
        },
        {
          "pitch": 65,
          "onset": 548.0,
          "duration": 0.5,
          "velocity": 100
        },
        {
          "pitch": 63,
          "onset": 548.5,
          "duration": 0.5,
          "velocity": 100
        },
        {
          "pitch": 62,
          "onset": 549.0,
          "duration": 0.5,
          "velocity": 100
        },
        {
          "pitch": 60,
          "onset": 549.5,
          "duration": 0.5,
          "velocity": 100
        },
        {
          "pitch": 59,
          "onset": 550.0,
          "duration": 0.5,
          "velocity": 100
        },
        {
          "pitch": 60,
          "onset": 550.5,
          "duration": 0.5,
          "velocity": 100
        },
        {
          "pitch": 62,
          "onset": 551.0,
          "duration": 1.0,
          "velocity": 100
        },
        {
          "pitch": 55,
          "onset": 552.0,
          "duration": 2.0,
          "velocity": 100
        },
        {
          "pitch": 55,
          "onset": 555.0,
          "duration": 1.0,
          "velocity": 100
        },
        {
          "pitch": 62,
          "onset": 556.0,
          "duration": 2.0,
          "velocity": 100
        },
        {
          "pitch": 58,
          "onset": 558.0,
          "duration": 1.0,
          "velocity": 100
        },
        {
          "pitch": 60,
          "onset": 559.0,
          "duration": 2.0,
          "velocity": 100
        },
        {
          "pitch": 62,
          "onset": 561.0,
          "duration": 1.0,
          "velocity": 100
        },
        {
          "pitch": 63,
          "onset": 562.0,
          "duration": 2.0,
          "velocity": 100
        },
        {
          "pitch": 60,
          "onset": 564.0,
          "duration": 1.0,
          "velocity": 100
        },
        {
          "pitch": 62,
          "onset": 565.0,
          "duration": 1.5,
          "velocity": 100
        },
        {
          "pitch": 62,
          "onset": 566.5,
          "duration": 1.0,
          "velocity": 100
        },
        {
          "pitch": 57,
          "onset": 567.5,
          "duration": 0.5,
          "velocity": 100
        },
        {
          "pitch": 62,
          "onset": 568.0,
          "duration": 0.5,
          "velocity": 100
        },
        {
          "pitch": 60,
          "onset": 568.5,
          "duration": 1.0,
          "velocity": 100
        },
        {
          "pitch": 62,
          "onset": 569.5,
          "duration": 1.0,
          "velocity": 100
        },
        {
          "pitch": 57,
          "onset": 570.5,
          "duration": 0.5,
          "velocity": 100
        },
        {
          "pitch": 59,
          "onset": 571.0,
          "duration": 0.5,
          "velocity": 100
        },
        {
          "pitch": 60,
          "onset": 571.5,
          "duration": 0.5,
          "velocity": 100
        },
        {
          "pitch": 62,
          "onset": 572.0,
          "duration": 0.5,
          "velocity": 100
        },
        {
          "pitch": 55,
          "onset": 572.5,
          "duration": 0.5,
          "velocity": 100
        },
        {
          "pitch": 60,
          "onset": 573.0,
          "duration": 0.5,
          "velocity": 100
        },
        {
          "pitch": 56,
          "onset": 573.5,
          "duration": 0.5,
          "velocity": 100
        },
        {
          "pitch": 55,
          "onset": 574.0,
          "duration": 0.5,
          "velocity": 100
        },
        {
          "pitch": 63,
          "onset": 574.5,
          "duration": 0.5,
          "velocity": 100
        },
        {
          "pitch": 59,
          "onset": 575.0,
          "duration": 0.5,
          "velocity": 100
        },
        {
          "pitch": 59,
          "onset": 575.5,
          "duration": 0.5,
          "velocity": 100
        },
        {
          "pitch": 60,
          "onset": 576.0,
          "duration": 0.5,
          "velocity": 100
        },
        {
          "pitch": 60,
          "onset": 576.5,
          "duration": 0.5,
          "velocity": 100
        },
        {
          "pitch": 68,
          "onset": 577.5,
          "duration": 0.5,
          "velocity": 100
        },
        {
          "pitch": 62,
          "onset": 578.0,
          "duration": 0.5,
          "velocity": 100
        },
        {
          "pitch": 62,
          "onset": 578.5,
          "duration": 0.5,
          "velocity": 100
        },
        {
          "pitch": 64,
          "onset": 579.0,
          "duration": 0.5,
          "velocity": 100
        },
        {
          "pitch": 64,
          "onset": 579.5,
          "duration": 0.5,
          "velocity": 100
        },
        {
          "pitch": 65,
          "onset": 580.5,
          "duration": 0.5,
          "velocity": 100
        },
        {
          "pitch": 60,
          "onset": 581.0,
          "duration": 0.5,
          "velocity": 100
        },
        {
          "pitch": 60,
          "onset": 581.5,
          "duration": 0.5,
          "velocity": 100
        },
        {
          "pitch": 62,
          "onset": 582.0,
          "duration": 0.5,
          "velocity": 100
        },
        {
          "pitch": 62,
          "onset": 582.5,
          "duration": 0.5,
          "velocity": 100
        },
        {
          "pitch": 63,
          "onset": 583.5,
          "duration": 0.5,
          "velocity": 100
        },
        {
          "pitch": 58,
          "onset": 584.0,
          "duration": 0.5,
          "velocity": 100
        },
        {
          "pitch": 58,
          "onset": 584.5,
          "duration": 0.5,
          "velocity": 100
        },
        {
          "pitch": 60,
          "onset": 585.0,
          "duration": 0.5,
          "velocity": 100
        },
        {
          "pitch": 60,
          "onset": 585.5,
          "duration": 0.5,
          "velocity": 100
        },
        {
          "pitch": 62,
          "onset": 586.0,
          "duration": 0.5,
          "velocity": 100
        },
        {
          "pitch": 58,
          "onset": 586.5,
          "duration": 0.5,
          "velocity": 100
        },
        {
          "pitch": 51,
          "onset": 591.0,
          "duration": 1.0,
          "velocity": 100
        },
        {
          "pitch": 58,
          "onset": 592.0,
          "duration": 2.0,
          "velocity": 100
        },
        {
          "pitch": 55,
          "onset": 594.0,
          "duration": 1.0,
          "velocity": 100
        },
        {
          "pitch": 56,
          "onset": 595.0,
          "duration": 2.0,
          "velocity": 100
        },
        {
          "pitch": 58,
          "onset": 597.0,
          "duration": 1.0,
          "velocity": 100
        },
        {
          "pitch": 60,
          "onset": 598.0,
          "duration": 2.0,
          "velocity": 100
        },
        {
          "pitch": 56,
          "onset": 600.0,
          "duration": 1.0,
          "velocity": 100
        },
        {
          "pitch": 58,
          "onset": 601.0,
          "duration": 2.0,
          "velocity": 100
        },
        {
          "pitch": 60,
          "onset": 603.0,
          "duration": 1.0,
          "velocity": 100
        },
        {
          "pitch": 53,
          "onset": 604.0,
          "duration": 2.0,
          "velocity": 100
        },
        {
          "pitch": 58,
          "onset": 606.0,
          "duration": 1.0,
          "velocity": 100
        },
        {
          "pitch": 51,
          "onset": 607.0,
          "duration": 1.5,
          "velocity": 100
        },
        {
          "pitch": 51,
          "onset": 608.5,
          "duration": 0.5,
          "velocity": 100
        },
        {
          "pitch": 53,
          "onset": 609.0,
          "duration": 0.5,
          "velocity": 100
        },
        {
          "pitch": 55,
          "onset": 609.5,
          "duration": 0.5,
          "velocity": 100
        },
        {
          "pitch": 56,
          "onset": 610.0,
          "duration": 0.25,
          "velocity": 100
        },
        {
          "pitch": 60,
          "onset": 610.25,
          "duration": 0.25,
          "velocity": 100
        },
        {
          "pitch": 56,
          "onset": 610.5,
          "duration": 0.25,
          "velocity": 100
        },
        {
          "pitch": 60,
          "onset": 610.75,
          "duration": 0.25,
          "velocity": 100
        },
        {
          "pitch": 53,
          "onset": 611.0,
          "duration": 0.25,
          "velocity": 100
        },
        {
          "pitch": 56,
          "onset": 611.25,
          "duration": 0.25,
          "velocity": 100
        },
        {
          "pitch": 53,
          "onset": 611.5,
          "duration": 0.25,
          "velocity": 100
        },
        {
          "pitch": 56,
          "onset": 611.75,
          "duration": 0.25,
          "velocity": 100
        },
        {
          "pitch": 50,
          "onset": 612.0,
          "duration": 0.25,
          "velocity": 100
        },
        {
          "pitch": 53,
          "onset": 612.25,
          "duration": 0.25,
          "velocity": 100
        },
        {
          "pitch": 50,
          "onset": 612.5,
          "duration": 0.25,
          "velocity": 100
        },
        {
          "pitch": 53,
          "onset": 612.75,
          "duration": 0.25,
          "velocity": 100
        },
        {
          "pitch": 55,
          "onset": 613.0,
          "duration": 0.25,
          "velocity": 100
        },
        {
          "pitch": 58,
          "onset": 613.25,
          "duration": 0.25,
          "velocity": 100
        },
        {
          "pitch": 55,
          "onset": 613.5,
          "duration": 0.25,
          "velocity": 100
        },
        {
          "pitch": 58,
          "onset": 613.75,
          "duration": 0.25,
          "velocity": 100
        },
        {
          "pitch": 51,
          "onset": 614.0,
          "duration": 0.25,
          "velocity": 100
        },
        {
          "pitch": 55,
          "onset": 614.25,
          "duration": 0.25,
          "velocity": 100
        },
        {
          "pitch": 51,
          "onset": 614.5,
          "duration": 0.25,
          "velocity": 100
        },
        {
          "pitch": 55,
          "onset": 614.75,
          "duration": 0.25,
          "velocity": 100
        },
        {
          "pitch": 48,
          "onset": 615.0,
          "duration": 0.25,
          "velocity": 100
        },
        {
          "pitch": 51,
          "onset": 615.25,
          "duration": 0.25,
          "velocity": 100
        },
        {
          "pitch": 48,
          "onset": 615.5,
          "duration": 0.25,
          "velocity": 100
        },
        {
          "pitch": 51,
          "onset": 615.75,
          "duration": 0.25,
          "velocity": 100
        },
        {
          "pitch": 53,
          "onset": 616.0,
          "duration": 0.25,
          "velocity": 100
        },
        {
          "pitch": 56,
          "onset": 616.25,
          "duration": 0.25,
          "velocity": 100
        },
        {
          "pitch": 53,
          "onset": 616.5,
          "duration": 0.25,
          "velocity": 100
        },
        {
          "pitch": 56,
          "onset": 616.75,
          "duration": 0.25,
          "velocity": 100
        },
        {
          "pitch": 50,
          "onset": 617.0,
          "duration": 0.25,
          "velocity": 100
        },
        {
          "pitch": 53,
          "onset": 617.25,
          "duration": 0.25,
          "velocity": 100
        },
        {
          "pitch": 50,
          "onset": 617.5,
          "duration": 0.25,
          "velocity": 100
        },
        {
          "pitch": 53,
          "onset": 617.75,
          "duration": 0.25,
          "velocity": 100
        },
        {
          "pitch": 46,
          "onset": 618.0,
          "duration": 0.25,
          "velocity": 100
        },
        {
          "pitch": 50,
          "onset": 618.25,
          "duration": 0.25,
          "velocity": 100
        },
        {
          "pitch": 46,
          "onset": 618.5,
          "duration": 0.25,
          "velocity": 100
        },
        {
          "pitch": 50,
          "onset": 618.75,
          "duration": 0.25,
          "velocity": 100
        },
        {
          "pitch": 51,
          "onset": 619.0,
          "duration": 0.25,
          "velocity": 100
        },
        {
          "pitch": 55,
          "onset": 619.25,
          "duration": 0.25,
          "velocity": 100
        },
        {
          "pitch": 51,
          "onset": 619.5,
          "duration": 0.25,
          "velocity": 100
        },
        {
          "pitch": 55,
          "onset": 619.75,
          "duration": 0.25,
          "velocity": 100
        },
        {
          "pitch": 48,
          "onset": 620.0,
          "duration": 0.25,
          "velocity": 100
        },
        {
          "pitch": 51,
          "onset": 620.25,
          "duration": 0.25,
          "velocity": 100
        },
        {
          "pitch": 48,
          "onset": 620.5,
          "duration": 0.25,
          "velocity": 100
        },
        {
          "pitch": 51,
          "onset": 620.75,
          "duration": 0.25,
          "velocity": 100
        },
        {
          "pitch": 45,
          "onset": 621.0,
          "duration": 0.25,
          "velocity": 100
        },
        {
          "pitch": 48,
          "onset": 621.25,
          "duration": 0.25,
          "velocity": 100
        },
        {
          "pitch": 45,
          "onset": 621.5,
          "duration": 0.25,
          "velocity": 100
        },
        {
          "pitch": 48,
          "onset": 621.75,
          "duration": 0.25,
          "velocity": 100
        },
        {
          "pitch": 46,
          "onset": 622.0,
          "duration": 1.25,
          "velocity": 100
        },
        {
          "pitch": 50,
          "onset": 623.25,
          "duration": 0.25,
          "velocity": 100
        },
        {
          "pitch": 48,
          "onset": 623.5,
          "duration": 0.25,
          "velocity": 100
        },
        {
          "pitch": 51,
          "onset": 623.75,
          "duration": 0.25,
          "velocity": 100
        },
        {
          "pitch": 50,
          "onset": 624.0,
          "duration": 0.25,
          "velocity": 100
        },
        {
          "pitch": 53,
          "onset": 624.25,
          "duration": 0.25,
          "velocity": 100
        },
        {
          "pitch": 51,
          "onset": 624.5,
          "duration": 0.25,
          "velocity": 100
        },
        {
          "pitch": 55,
          "onset": 624.75,
          "duration": 0.25,
          "velocity": 100
        },
        {
          "pitch": 53,
          "onset": 625.0,
          "duration": 0.25,
          "velocity": 100
        },
        {
          "pitch": 55,
          "onset": 625.25,
          "duration": 0.25,
          "velocity": 100
        },
        {
          "pitch": 53,
          "onset": 625.5,
          "duration": 0.25,
          "velocity": 100
        },
        {
          "pitch": 51,
          "onset": 625.75,
          "duration": 0.25,
          "velocity": 100
        },
        {
          "pitch": 50,
          "onset": 626.0,
          "duration": 0.25,
          "velocity": 100
        },
        {
          "pitch": 51,
          "onset": 626.25,
          "duration": 0.25,
          "velocity": 100
        },
        {
          "pitch": 50,
          "onset": 626.5,
          "duration": 0.25,
          "velocity": 100
        },
        {
          "pitch": 51,
          "onset": 626.75,
          "duration": 0.25,
          "velocity": 100
        },
        {
          "pitch": 46,
          "onset": 627.0,
          "duration": 0.25,
          "velocity": 100
        },
        {
          "pitch": 58,
          "onset": 627.25,
          "duration": 0.25,
          "velocity": 100
        },
        {
          "pitch": 57,
          "onset": 627.5,
          "duration": 0.25,
          "velocity": 100
        },
        {
          "pitch": 58,
          "onset": 627.75,
          "duration": 0.25,
          "velocity": 100
        },
        {
          "pitch": 55,
          "onset": 628.0,
          "duration": 0.25,
          "velocity": 100
        },
        {
          "pitch": 58,
          "onset": 628.25,
          "duration": 0.25,
          "velocity": 100
        },
        {
          "pitch": 55,
          "onset": 628.5,
          "duration": 0.25,
          "velocity": 100
        },
        {
          "pitch": 58,
          "onset": 628.75,
          "duration": 0.25,
          "velocity": 100
        },
        {
          "pitch": 55,
          "onset": 629.0,
          "duration": 0.25,
          "velocity": 100
        },
        {
          "pitch": 56,
          "onset": 629.25,
          "duration": 0.25,
          "velocity": 100
        },
        {
          "pitch": 55,
          "onset": 629.5,
          "duration": 0.25,
          "velocity": 100
        },
        {
          "pitch": 56,
          "onset": 629.75,
          "duration": 0.25,
          "velocity": 100
        },
        {
          "pitch": 53,
          "onset": 630.0,
          "duration": 0.25,
          "velocity": 100
        },
        {
          "pitch": 56,
          "onset": 630.25,
          "duration": 0.25,
          "velocity": 100
        },
        {
          "pitch": 53,
          "onset": 630.5,
          "duration": 0.25,
          "velocity": 100
        },
        {
          "pitch": 56,
          "onset": 630.75,
          "duration": 0.25,
          "velocity": 100
        },
        {
          "pitch": 51,
          "onset": 631.0,
          "duration": 0.25,
          "velocity": 100
        },
        {
          "pitch": 55,
          "onset": 631.25,
          "duration": 0.25,
          "velocity": 100
        },
        {
          "pitch": 53,
          "onset": 631.5,
          "duration": 0.25,
          "velocity": 100
        },
        {
          "pitch": 56,
          "onset": 631.75,
          "duration": 0.25,
          "velocity": 100
        },
        {
          "pitch": 55,
          "onset": 632.0,
          "duration": 0.25,
          "velocity": 100
        },
        {
          "pitch": 58,
          "onset": 632.25,
          "duration": 0.25,
          "velocity": 100
        },
        {
          "pitch": 51,
          "onset": 632.5,
          "duration": 0.25,
          "velocity": 100
        },
        {
          "pitch": 55,
          "onset": 632.75,
          "duration": 0.25,
          "velocity": 100
        },
        {
          "pitch": 48,
          "onset": 633.0,
          "duration": 0.25,
          "velocity": 100
        },
        {
          "pitch": 51,
          "onset": 633.25,
          "duration": 0.25,
          "velocity": 100
        },
        {
          "pitch": 50,
          "onset": 633.5,
          "duration": 0.25,
          "velocity": 100
        },
        {
          "pitch": 48,
          "onset": 633.75,
          "duration": 0.25,
          "velocity": 100
        },
        {
          "pitch": 46,
          "onset": 634.0,
          "duration": 0.5,
          "velocity": 100
        },
        {
          "pitch": 58,
          "onset": 634.5,
          "duration": 0.5,
          "velocity": 100
        },
        {
          "pitch": 60,
          "onset": 635.0,
          "duration": 0.5,
          "velocity": 100
        },
        {
          "pitch": 60,
          "onset": 635.5,
          "duration": 0.5,
          "velocity": 100
        },
        {
          "pitch": 62,
          "onset": 636.0,
          "duration": 0.5,
          "velocity": 100
        },
        {
          "pitch": 62,
          "onset": 636.5,
          "duration": 0.5,
          "velocity": 100
        },
        {
          "pitch": 63,
          "onset": 637.0,
          "duration": 0.5,
          "velocity": 100
        },
        {
          "pitch": 51,
          "onset": 637.5,
          "duration": 0.5,
          "velocity": 100
        },
        {
          "pitch": 53,
          "onset": 638.0,
          "duration": 0.5,
          "velocity": 100
        },
        {
          "pitch": 53,
          "onset": 638.5,
          "duration": 0.5,
          "velocity": 100
        },
        {
          "pitch": 55,
          "onset": 639.0,
          "duration": 0.5,
          "velocity": 100
        },
        {
          "pitch": 55,
          "onset": 639.5,
          "duration": 0.5,
          "velocity": 100
        },
        {
          "pitch": 56,
          "onset": 640.0,
          "duration": 0.5,
          "velocity": 100
        },
        {
          "pitch": 68,
          "onset": 640.5,
          "duration": 0.5,
          "velocity": 100
        },
        {
          "pitch": 62,
          "onset": 641.0,
          "duration": 0.5,
          "velocity": 100
        },
        {
          "pitch": 62,
          "onset": 641.5,
          "duration": 0.5,
          "velocity": 100
        },
        {
          "pitch": 64,
          "onset": 642.0,
          "duration": 0.5,
          "velocity": 100
        },
        {
          "pitch": 64,
          "onset": 642.5,
          "duration": 0.5,
          "velocity": 100
        },
        {
          "pitch": 65,
          "onset": 643.0,
          "duration": 1.0,
          "velocity": 100
        },
        {
          "pitch": 67,
          "onset": 644.25,
          "duration": 0.25,
          "velocity": 100
        },
        {
          "pitch": 65,
          "onset": 644.5,
          "duration": 0.25,
          "velocity": 100
        },
        {
          "pitch": 67,
          "onset": 644.75,
          "duration": 0.25,
          "velocity": 100
        },
        {
          "pitch": 63,
          "onset": 645.0,
          "duration": 0.25,
          "velocity": 100
        },
        {
          "pitch": 68,
          "onset": 645.25,
          "duration": 0.25,
          "velocity": 100
        },
        {
          "pitch": 67,
          "onset": 645.5,
          "duration": 0.25,
          "velocity": 100
        },
        {
          "pitch": 68,
          "onset": 645.75,
          "duration": 0.25,
          "velocity": 100
        },
        {
          "pitch": 62,
          "onset": 646.0,
          "duration": 1.0,
          "velocity": 100
        },
        {
          "pitch": 65,
          "onset": 647.25,
          "duration": 0.25,
          "velocity": 100
        },
        {
          "pitch": 63,
          "onset": 647.5,
          "duration": 0.25,
          "velocity": 100
        },
        {
          "pitch": 65,
          "onset": 647.75,
          "duration": 0.25,
          "velocity": 100
        },
        {
          "pitch": 62,
          "onset": 648.0,
          "duration": 0.25,
          "velocity": 100
        },
        {
          "pitch": 67,
          "onset": 648.25,
          "duration": 0.25,
          "velocity": 100
        },
        {
          "pitch": 65,
          "onset": 648.5,
          "duration": 0.25,
          "velocity": 100
        },
        {
          "pitch": 67,
          "onset": 648.75,
          "duration": 0.25,
          "velocity": 100
        },
        {
          "pitch": 60,
          "onset": 649.0,
          "duration": 1.0,
          "velocity": 100
        },
        {
          "pitch": 69,
          "onset": 650.0,
          "duration": 1.0,
          "velocity": 100
        },
        {
          "pitch": 65,
          "onset": 651.0,
          "duration": 1.0,
          "velocity": 100
        },
        {
          "pitch": 58,
          "onset": 652.0,
          "duration": 1.0,
          "velocity": 100
        },
        {
          "pitch": 60,
          "onset": 653.0,
          "duration": 1.0,
          "velocity": 100
        },
        {
          "pitch": 62,
          "onset": 654.0,
          "duration": 1.0,
          "velocity": 100
        },
        {
          "pitch": 63,
          "onset": 655.0,
          "duration": 1.0,
          "velocity": 100
        },
        {
          "pitch": 62,
          "onset": 656.0,
          "duration": 1.0,
          "velocity": 100
        },
        {
          "pitch": 60,
          "onset": 657.0,
          "duration": 1.0,
          "velocity": 100
        },
        {
          "pitch": 62,
          "onset": 658.0,
          "duration": 1.0,
          "velocity": 100
        },
        {
          "pitch": 60,
          "onset": 659.0,
          "duration": 1.0,
          "velocity": 100
        },
        {
          "pitch": 58,
          "onset": 660.0,
          "duration": 0.25,
          "velocity": 100
        },
        {
          "pitch": 57,
          "onset": 660.25,
          "duration": 0.25,
          "velocity": 100
        },
        {
          "pitch": 55,
          "onset": 660.5,
          "duration": 0.25,
          "velocity": 100
        },
        {
          "pitch": 57,
          "onset": 660.75,
          "duration": 0.25,
          "velocity": 100
        },
        {
          "pitch": 58,
          "onset": 661.0,
          "duration": 0.25,
          "velocity": 100
        },
        {
          "pitch": 62,
          "onset": 661.25,
          "duration": 0.25,
          "velocity": 100
        },
        {
          "pitch": 60,
          "onset": 661.5,
          "duration": 0.25,
          "velocity": 100
        },
        {
          "pitch": 63,
          "onset": 661.75,
          "duration": 0.25,
          "velocity": 100
        },
        {
          "pitch": 62,
          "onset": 662.0,
          "duration": 1.0,
          "velocity": 100
        },
        {
          "pitch": 62,
          "onset": 663.0,
          "duration": 1.5,
          "velocity": 100
        },
        {
          "pitch": 55,
          "onset": 664.5,
          "duration": 0.5,
          "velocity": 100
        },
        {
          "pitch": 60,
          "onset": 665.0,
          "duration": 1.0,
          "velocity": 100
        },
        {
          "pitch": 54,
          "onset": 666.0,
          "duration": 1.0,
          "velocity": 100
        },
        {
          "pitch": 55,
          "onset": 667.0,
          "duration": 1.0,
          "velocity": 100
        },
        {
          "pitch": 60,
          "onset": 668.0,
          "duration": 0.5,
          "velocity": 100
        },
        {
          "pitch": 62,
          "onset": 668.5,
          "duration": 0.5,
          "velocity": 100
        },
        {
          "pitch": 63,
          "onset": 669.0,
          "duration": 1.0,
          "velocity": 100
        },
        {
          "pitch": 62,
          "onset": 670.0,
          "duration": 3.25,
          "velocity": 100
        },
        {
          "pitch": 65,
          "onset": 673.25,
          "duration": 0.25,
          "velocity": 100
        },
        {
          "pitch": 63,
          "onset": 673.5,
          "duration": 0.25,
          "velocity": 100
        },
        {
          "pitch": 67,
          "onset": 673.75,
          "duration": 0.25,
          "velocity": 100
        },
        {
          "pitch": 65,
          "onset": 674.0,
          "duration": 0.25,
          "velocity": 100
        },
        {
          "pitch": 67,
          "onset": 674.25,
          "duration": 0.25,
          "velocity": 100
        },
        {
          "pitch": 63,
          "onset": 674.5,
          "duration": 0.25,
          "velocity": 100
        },
        {
          "pitch": 65,
          "onset": 674.75,
          "duration": 0.25,
          "velocity": 100
        },
        {
          "pitch": 67,
          "onset": 675.0,
          "duration": 0.5,
          "velocity": 100
        },
        {
          "pitch": 60,
          "onset": 675.5,
          "duration": 0.75,
          "velocity": 100
        },
        {
          "pitch": 63,
          "onset": 676.25,
          "duration": 0.25,
          "velocity": 100
        },
        {
          "pitch": 62,
          "onset": 676.5,
          "duration": 0.25,
          "velocity": 100
        },
        {
          "pitch": 65,
          "onset": 676.75,
          "duration": 0.25,
          "velocity": 100
        },
        {
          "pitch": 63,
          "onset": 677.0,
          "duration": 0.25,
          "velocity": 100
        },
        {
          "pitch": 65,
          "onset": 677.25,
          "duration": 0.25,
          "velocity": 100
        },
        {
          "pitch": 62,
          "onset": 677.5,
          "duration": 0.25,
          "velocity": 100
        },
        {
          "pitch": 63,
          "onset": 677.75,
          "duration": 0.25,
          "velocity": 100
        },
        {
          "pitch": 65,
          "onset": 678.0,
          "duration": 0.5,
          "velocity": 100
        },
        {
          "pitch": 58,
          "onset": 678.5,
          "duration": 0.75,
          "velocity": 100
        },
        {
          "pitch": 62,
          "onset": 679.25,
          "duration": 0.25,
          "velocity": 100
        },
        {
          "pitch": 60,
          "onset": 679.5,
          "duration": 0.25,
          "velocity": 100
        },
        {
          "pitch": 63,
          "onset": 679.75,
          "duration": 0.25,
          "velocity": 100
        },
        {
          "pitch": 62,
          "onset": 680.0,
          "duration": 0.25,
          "velocity": 100
        },
        {
          "pitch": 63,
          "onset": 680.25,
          "duration": 0.25,
          "velocity": 100
        },
        {
          "pitch": 60,
          "onset": 680.5,
          "duration": 0.25,
          "velocity": 100
        },
        {
          "pitch": 62,
          "onset": 680.75,
          "duration": 0.25,
          "velocity": 100
        },
        {
          "pitch": 63,
          "onset": 681.0,
          "duration": 0.5,
          "velocity": 100
        },
        {
          "pitch": 57,
          "onset": 681.5,
          "duration": 1.0,
          "velocity": 100
        },
        {
          "pitch": 60,
          "onset": 682.5,
          "duration": 0.5,
          "velocity": 100
        },
        {
          "pitch": 58,
          "onset": 683.0,
          "duration": 0.5,
          "velocity": 100
        },
        {
          "pitch": 57,
          "onset": 683.5,
          "duration": 0.5,
          "velocity": 100
        },
        {
          "pitch": 55,
          "onset": 684.0,
          "duration": 0.25,
          "velocity": 100
        },
        {
          "pitch": 58,
          "onset": 684.25,
          "duration": 0.25,
          "velocity": 100
        },
        {
          "pitch": 55,
          "onset": 684.5,
          "duration": 0.25,
          "velocity": 100
        },
        {
          "pitch": 58,
          "onset": 684.75,
          "duration": 0.25,
          "velocity": 100
        },
        {
          "pitch": 60,
          "onset": 685.0,
          "duration": 0.25,
          "velocity": 100
        },
        {
          "pitch": 63,
          "onset": 685.25,
          "duration": 0.25,
          "velocity": 100
        },
        {
          "pitch": 60,
          "onset": 685.5,
          "duration": 0.25,
          "velocity": 100
        },
        {
          "pitch": 63,
          "onset": 685.75,
          "duration": 0.25,
          "velocity": 100
        },
        {
          "pitch": 57,
          "onset": 686.0,
          "duration": 0.25,
          "velocity": 100
        },
        {
          "pitch": 60,
          "onset": 686.25,
          "duration": 0.25,
          "velocity": 100
        },
        {
          "pitch": 58,
          "onset": 686.5,
          "duration": 0.25,
          "velocity": 100
        },
        {
          "pitch": 62,
          "onset": 686.75,
          "duration": 0.25,
          "velocity": 100
        },
        {
          "pitch": 60,
          "onset": 687.0,
          "duration": 0.5,
          "velocity": 100
        },
        {
          "pitch": 53,
          "onset": 687.5,
          "duration": 1.0,
          "velocity": 100
        },
        {
          "pitch": 55,
          "onset": 688.5,
          "duration": 0.5,
          "velocity": 100
        },
        {
          "pitch": 56,
          "onset": 689.0,
          "duration": 1.25,
          "velocity": 100
        },
        {
          "pitch": 55,
          "onset": 690.25,
          "duration": 0.25,
          "velocity": 100
        },
        {
          "pitch": 50,
          "onset": 690.5,
          "duration": 0.25,
          "velocity": 100
        },
        {
          "pitch": 53,
          "onset": 690.75,
          "duration": 0.25,
          "velocity": 100
        },
        {
          "pitch": 51,
          "onset": 691.0,
          "duration": 0.25,
          "velocity": 100
        },
        {
          "pitch": 55,
          "onset": 691.25,
          "duration": 0.25,
          "velocity": 100
        },
        {
          "pitch": 53,
          "onset": 691.5,
          "duration": 0.25,
          "velocity": 100
        },
        {
          "pitch": 56,
          "onset": 691.75,
          "duration": 0.25,
          "velocity": 100
        },
        {
          "pitch": 55,
          "onset": 692.0,
          "duration": 0.25,
          "velocity": 100
        },
        {
          "pitch": 56,
          "onset": 692.25,
          "duration": 0.25,
          "velocity": 100
        },
        {
          "pitch": 53,
          "onset": 692.5,
          "duration": 0.25,
          "velocity": 100
        },
        {
          "pitch": 55,
          "onset": 692.75,
          "duration": 0.25,
          "velocity": 100
        },
        {
          "pitch": 56,
          "onset": 693.0,
          "duration": 1.0,
          "velocity": 100
        },
        {
          "pitch": 50,
          "onset": 694.0,
          "duration": 0.5,
          "velocity": 100
        },
        {
          "pitch": 48,
          "onset": 699.0,
          "duration": 1.0,
          "velocity": 100
        },
        {
          "pitch": 55,
          "onset": 700.0,
          "duration": 2.0,
          "velocity": 100
        },
        {
          "pitch": 51,
          "onset": 702.0,
          "duration": 1.0,
          "velocity": 100
        },
        {
          "pitch": 53,
          "onset": 703.0,
          "duration": 2.0,
          "velocity": 100
        },
        {
          "pitch": 55,
          "onset": 705.0,
          "duration": 1.0,
          "velocity": 100
        },
        {
          "pitch": 56,
          "onset": 706.0,
          "duration": 2.0,
          "velocity": 100
        },
        {
          "pitch": 53,
          "onset": 708.0,
          "duration": 1.0,
          "velocity": 100
        },
        {
          "pitch": 55,
          "onset": 709.0,
          "duration": 0.25,
          "velocity": 100
        },
        {
          "pitch": 58,
          "onset": 709.25,
          "duration": 0.25,
          "velocity": 100
        },
        {
          "pitch": 56,
          "onset": 709.5,
          "duration": 0.25,
          "velocity": 100
        },
        {
          "pitch": 58,
          "onset": 709.75,
          "duration": 0.25,
          "velocity": 100
        },
        {
          "pitch": 60,
          "onset": 710.25,
          "duration": 0.25,
          "velocity": 100
        },
        {
          "pitch": 58,
          "onset": 710.5,
          "duration": 0.25,
          "velocity": 100
        },
        {
          "pitch": 60,
          "onset": 710.75,
          "duration": 0.25,
          "velocity": 100
        },
        {
          "pitch": 62,
          "onset": 711.25,
          "duration": 0.25,
          "velocity": 100
        },
        {
          "pitch": 60,
          "onset": 711.5,
          "duration": 0.25,
          "velocity": 100
        },
        {
          "pitch": 62,
          "onset": 711.75,
          "duration": 0.25,
          "velocity": 100
        },
        {
          "pitch": 63,
          "onset": 712.25,
          "duration": 0.25,
          "velocity": 100
        },
        {
          "pitch": 65,
          "onset": 712.5,
          "duration": 0.25,
          "velocity": 100
        },
        {
          "pitch": 63,
          "onset": 712.75,
          "duration": 0.25,
          "velocity": 100
        },
        {
          "pitch": 62,
          "onset": 713.25,
          "duration": 0.25,
          "velocity": 100
        },
        {
          "pitch": 60,
          "onset": 713.5,
          "duration": 0.25,
          "velocity": 100
        },
        {
          "pitch": 62,
          "onset": 713.75,
          "duration": 0.25,
          "velocity": 100
        },
        {
          "pitch": 59,
          "onset": 714.25,
          "duration": 0.25,
          "velocity": 100
        },
        {
          "pitch": 57,
          "onset": 714.5,
          "duration": 0.25,
          "velocity": 100
        },
        {
          "pitch": 59,
          "onset": 714.75,
          "duration": 0.25,
          "velocity": 100
        },
        {
          "pitch": 60,
          "onset": 715.0,
          "duration": 0.5,
          "velocity": 100
        },
        {
          "pitch": 65,
          "onset": 717.5,
          "duration": 0.5,
          "velocity": 100
        },
        {
          "pitch": 58,
          "onset": 718.0,
          "duration": 0.25,
          "velocity": 100
        },
        {
          "pitch": 62,
          "onset": 718.25,
          "duration": 0.25,
          "velocity": 100
        },
        {
          "pitch": 60,
          "onset": 718.5,
          "duration": 0.25,
          "velocity": 100
        },
        {
          "pitch": 63,
          "onset": 718.75,
          "duration": 0.25,
          "velocity": 100
        },
        {
          "pitch": 62,
          "onset": 719.0,
          "duration": 0.25,
          "velocity": 100
        },
        {
          "pitch": 65,
          "onset": 719.25,
          "duration": 0.25,
          "velocity": 100
        },
        {
          "pitch": 63,
          "onset": 719.5,
          "duration": 0.25,
          "velocity": 100
        },
        {
          "pitch": 67,
          "onset": 719.75,
          "duration": 0.25,
          "velocity": 100
        },
        {
          "pitch": 65,
          "onset": 720.0,
          "duration": 0.25,
          "velocity": 100
        },
        {
          "pitch": 68,
          "onset": 720.25,
          "duration": 0.25,
          "velocity": 100
        },
        {
          "pitch": 67,
          "onset": 720.5,
          "duration": 0.25,
          "velocity": 100
        },
        {
          "pitch": 70,
          "onset": 720.75,
          "duration": 0.25,
          "velocity": 100
        },
        {
          "pitch": 68,
          "onset": 721.0,
          "duration": 0.5,
          "velocity": 100
        },
        {
          "pitch": 62,
          "onset": 723.5,
          "duration": 0.5,
          "velocity": 100
        },
        {
          "pitch": 55,
          "onset": 724.0,
          "duration": 0.25,
          "velocity": 100
        },
        {
          "pitch": 58,
          "onset": 724.25,
          "duration": 0.25,
          "velocity": 100
        },
        {
          "pitch": 57,
          "onset": 724.5,
          "duration": 0.25,
          "velocity": 100
        },
        {
          "pitch": 60,
          "onset": 724.75,
          "duration": 0.25,
          "velocity": 100
        },
        {
          "pitch": 58,
          "onset": 725.0,
          "duration": 0.25,
          "velocity": 100
        },
        {
          "pitch": 62,
          "onset": 725.25,
          "duration": 0.25,
          "velocity": 100
        },
        {
          "pitch": 60,
          "onset": 725.5,
          "duration": 0.25,
          "velocity": 100
        },
        {
          "pitch": 63,
          "onset": 725.75,
          "duration": 0.25,
          "velocity": 100
        },
        {
          "pitch": 62,
          "onset": 726.0,
          "duration": 0.25,
          "velocity": 100
        },
        {
          "pitch": 65,
          "onset": 726.25,
          "duration": 0.25,
          "velocity": 100
        },
        {
          "pitch": 64,
          "onset": 726.5,
          "duration": 0.25,
          "velocity": 100
        },
        {
          "pitch": 67,
          "onset": 726.75,
          "duration": 0.25,
          "velocity": 100
        },
        {
          "pitch": 65,
          "onset": 727.0,
          "duration": 0.5,
          "velocity": 100
        },
        {
          "pitch": 58,
          "onset": 728.5,
          "duration": 0.75,
          "velocity": 100
        },
        {
          "pitch": 60,
          "onset": 729.25,
          "duration": 0.25,
          "velocity": 100
        },
        {
          "pitch": 58,
          "onset": 729.5,
          "duration": 0.25,
          "velocity": 100
        },
        {
          "pitch": 56,
          "onset": 729.75,
          "duration": 0.25,
          "velocity": 100
        },
        {
          "pitch": 55,
          "onset": 730.0,
          "duration": 0.25,
          "velocity": 100
        },
        {
          "pitch": 58,
          "onset": 730.25,
          "duration": 0.25,
          "velocity": 100
        },
        {
          "pitch": 56,
          "onset": 730.5,
          "duration": 0.25,
          "velocity": 100
        },
        {
          "pitch": 60,
          "onset": 730.75,
          "duration": 0.25,
          "velocity": 100
        },
        {
          "pitch": 58,
          "onset": 731.0,
          "duration": 1.0,
          "velocity": 100
        },
        {
          "pitch": 60,
          "onset": 732.0,
          "duration": 0.25,
          "velocity": 100
        },
        {
          "pitch": 62,
          "onset": 732.25,
          "duration": 0.25,
          "velocity": 100
        },
        {
          "pitch": 58,
          "onset": 732.5,
          "duration": 0.25,
          "velocity": 100
        },
        {
          "pitch": 60,
          "onset": 732.75,
          "duration": 0.25,
          "velocity": 100
        },
        {
          "pitch": 57,
          "onset": 733.0,
          "duration": 0.25,
          "velocity": 100
        },
        {
          "pitch": 58,
          "onset": 733.25,
          "duration": 0.25,
          "velocity": 100
        },
        {
          "pitch": 55,
          "onset": 733.5,
          "duration": 0.25,
          "velocity": 100
        },
        {
          "pitch": 57,
          "onset": 733.75,
          "duration": 0.25,
          "velocity": 100
        },
        {
          "pitch": 54,
          "onset": 734.0,
          "duration": 1.0,
          "velocity": 100
        },
        {
          "pitch": 55,
          "onset": 735.0,
          "duration": 0.25,
          "velocity": 100
        },
        {
          "pitch": 57,
          "onset": 735.25,
          "duration": 0.25,
          "velocity": 100
        },
        {
          "pitch": 54,
          "onset": 735.5,
          "duration": 0.25,
          "velocity": 100
        },
        {
          "pitch": 55,
          "onset": 735.75,
          "duration": 0.25,
          "velocity": 100
        },
        {
          "pitch": 57,
          "onset": 736.0,
          "duration": 0.5,
          "velocity": 100
        },
        {
          "pitch": 58,
          "onset": 736.5,
          "duration": 0.5,
          "velocity": 100
        },
        {
          "pitch": 54,
          "onset": 737.0,
          "duration": 0.5,
          "velocity": 100
        },
        {
          "pitch": 54,
          "onset": 737.5,
          "duration": 0.5,
          "velocity": 100
        },
        {
          "pitch": 55,
          "onset": 738.0,
          "duration": 0.5,
          "velocity": 100
        },
        {
          "pitch": 55,
          "onset": 738.5,
          "duration": 0.5,
          "velocity": 100
        },
        {
          "pitch": 63,
          "onset": 739.5,
          "duration": 0.5,
          "velocity": 100
        },
        {
          "pitch": 57,
          "onset": 740.0,
          "duration": 0.5,
          "velocity": 100
        },
        {
          "pitch": 57,
          "onset": 740.5,
          "duration": 0.5,
          "velocity": 100
        },
        {
          "pitch": 59,
          "onset": 741.0,
          "duration": 0.5,
          "velocity": 100
        },
        {
          "pitch": 59,
          "onset": 741.5,
          "duration": 0.5,
          "velocity": 100
        },
        {
          "pitch": 60,
          "onset": 742.5,
          "duration": 0.5,
          "velocity": 100
        },
        {
          "pitch": 55,
          "onset": 743.0,
          "duration": 0.5,
          "velocity": 100
        },
        {
          "pitch": 55,
          "onset": 743.5,
          "duration": 0.5,
          "velocity": 100
        },
        {
          "pitch": 57,
          "onset": 744.0,
          "duration": 0.5,
          "velocity": 100
        },
        {
          "pitch": 57,
          "onset": 744.5,
          "duration": 0.5,
          "velocity": 100
        },
        {
          "pitch": 58,
          "onset": 745.0,
          "duration": 0.75,
          "velocity": 100
        },
        {
          "pitch": 57,
          "onset": 745.75,
          "duration": 0.125,
          "velocity": 100
        },
        {
          "pitch": 55,
          "onset": 745.875,
          "duration": 0.125,
          "velocity": 100
        },
        {
          "pitch": 57,
          "onset": 746.0,
          "duration": 0.25,
          "velocity": 100
        },
        {
          "pitch": 62,
          "onset": 746.25,
          "duration": 0.25,
          "velocity": 100
        },
        {
          "pitch": 60,
          "onset": 746.5,
          "duration": 0.25,
          "velocity": 100
        },
        {
          "pitch": 62,
          "onset": 746.75,
          "duration": 0.25,
          "velocity": 100
        },
        {
          "pitch": 58,
          "onset": 747.0,
          "duration": 0.5,
          "velocity": 100
        },
        {
          "pitch": 59,
          "onset": 747.5,
          "duration": 0.5,
          "velocity": 100
        },
        {
          "pitch": 60,
          "onset": 748.0,
          "duration": 1.5,
          "velocity": 100
        },
        {
          "pitch": 62,
          "onset": 749.5,
          "duration": 1.0,
          "velocity": 100
        },
        {
          "pitch": 58,
          "onset": 750.5,
          "duration": 1.0,
          "velocity": 100
        },
        {
          "pitch": 57,
          "onset": 751.5,
          "duration": 1.0,
          "velocity": 100
        },
        {
          "pitch": 55,
          "onset": 752.5,
          "duration": 1.0,
          "velocity": 100
        },
        {
          "pitch": 54,
          "onset": 753.5,
          "duration": 0.5,
          "velocity": 100
        },
        {
          "pitch": 55,
          "onset": 754.0,
          "duration": 1.25,
          "velocity": 100
        },
        {
          "pitch": 58,
          "onset": 755.25,
          "duration": 0.25,
          "velocity": 100
        },
        {
          "pitch": 57,
          "onset": 755.5,
          "duration": 0.25,
          "velocity": 100
        },
        {
          "pitch": 55,
          "onset": 755.75,
          "duration": 0.25,
          "velocity": 100
        },
        {
          "pitch": 54,
          "onset": 756.0,
          "duration": 0.75,
          "velocity": 100
        },
        {
          "pitch": 55,
          "onset": 756.75,
          "duration": 0.25,
          "velocity": 100
        },
        {
          "pitch": 55,
          "onset": 757.0,
          "duration": 1.5,
          "velocity": 100
        },
        {
          "pitch": 57,
          "onset": 758.5,
          "duration": 0.5,
          "velocity": 100
        },
        {
          "pitch": 59,
          "onset": 759.0,
          "duration": 1.0,
          "velocity": 100
        },
        {
          "pitch": 60,
          "onset": 760.0,
          "duration": 0.25,
          "velocity": 100
        },
        {
          "pitch": 63,
          "onset": 760.25,
          "duration": 0.25,
          "velocity": 100
        },
        {
          "pitch": 62,
          "onset": 760.5,
          "duration": 0.25,
          "velocity": 100
        },
        {
          "pitch": 65,
          "onset": 760.75,
          "duration": 0.25,
          "velocity": 100
        },
        {
          "pitch": 63,
          "onset": 761.0,
          "duration": 0.25,
          "velocity": 100
        },
        {
          "pitch": 67,
          "onset": 761.25,
          "duration": 0.25,
          "velocity": 100
        },
        {
          "pitch": 65,
          "onset": 761.5,
          "duration": 0.25,
          "velocity": 100
        },
        {
          "pitch": 68,
          "onset": 761.75,
          "duration": 0.25,
          "velocity": 100
        },
        {
          "pitch": 67,
          "onset": 762.0,
          "duration": 0.25,
          "velocity": 100
        },
        {
          "pitch": 70,
          "onset": 762.25,
          "duration": 0.25,
          "velocity": 100
        },
        {
          "pitch": 68,
          "onset": 762.5,
          "duration": 0.25,
          "velocity": 100
        },
        {
          "pitch": 67,
          "onset": 762.75,
          "duration": 0.25,
          "velocity": 100
        },
        {
          "pitch": 68,
          "onset": 763.0,
          "duration": 0.5,
          "velocity": 100
        },
        {
          "pitch": 64,
          "onset": 763.5,
          "duration": 0.5,
          "velocity": 100
        },
        {
          "pitch": 65,
          "onset": 764.0,
          "duration": 0.25,
          "velocity": 100
        },
        {
          "pitch": 68,
          "onset": 764.25,
          "duration": 0.25,
          "velocity": 100
        },
        {
          "pitch": 67,
          "onset": 764.5,
          "duration": 0.25,
          "velocity": 100
        },
        {
          "pitch": 70,
          "onset": 764.75,
          "duration": 0.25,
          "velocity": 100
        },
        {
          "pitch": 68,
          "onset": 765.0,
          "duration": 0.5,
          "velocity": 100
        },
        {
          "pitch": 60,
          "onset": 767.25,
          "duration": 0.25,
          "velocity": 100
        },
        {
          "pitch": 58,
          "onset": 767.5,
          "duration": 0.25,
          "velocity": 100
        },
        {
          "pitch": 60,
          "onset": 767.75,
          "duration": 0.25,
          "velocity": 100
        },
        {
          "pitch": 53,
          "onset": 768.0,
          "duration": 0.25,
          "velocity": 100
        },
        {
          "pitch": 65,
          "onset": 768.25,
          "duration": 0.25,
          "velocity": 100
        },
        {
          "pitch": 63,
          "onset": 768.5,
          "duration": 0.25,
          "velocity": 100
        },
        {
          "pitch": 65,
          "onset": 768.75,
          "duration": 0.25,
          "velocity": 100
        },
        {
          "pitch": 61,
          "onset": 769.0,
          "duration": 0.25,
          "velocity": 100
        },
        {
          "pitch": 65,
          "onset": 769.25,
          "duration": 0.25,
          "velocity": 100
        },
        {
          "pitch": 61,
          "onset": 769.5,
          "duration": 0.25,
          "velocity": 100
        },
        {
          "pitch": 65,
          "onset": 769.75,
          "duration": 0.25,
          "velocity": 100
        },
        {
          "pitch": 61,
          "onset": 770.0,
          "duration": 0.25,
          "velocity": 100
        },
        {
          "pitch": 63,
          "onset": 770.25,
          "duration": 0.25,
          "velocity": 100
        },
        {
          "pitch": 61,
          "onset": 770.5,
          "duration": 0.25,
          "velocity": 100
        },
        {
          "pitch": 63,
          "onset": 770.75,
          "duration": 0.25,
          "velocity": 100
        },
        {
          "pitch": 60,
          "onset": 771.0,
          "duration": 0.25,
          "velocity": 100
        },
        {
          "pitch": 63,
          "onset": 771.25,
          "duration": 0.25,
          "velocity": 100
        },
        {
          "pitch": 60,
          "onset": 771.5,
          "duration": 0.25,
          "velocity": 100
        },
        {
          "pitch": 63,
          "onset": 771.75,
          "duration": 0.25,
          "velocity": 100
        },
        {
          "pitch": 58,
          "onset": 772.0,
          "duration": 0.25,
          "velocity": 100
        },
        {
          "pitch": 61,
          "onset": 772.25,
          "duration": 0.25,
          "velocity": 100
        },
        {
          "pitch": 60,
          "onset": 772.5,
          "duration": 0.25,
          "velocity": 100
        },
        {
          "pitch": 63,
          "onset": 772.75,
          "duration": 0.25,
          "velocity": 100
        },
        {
          "pitch": 61,
          "onset": 773.0,
          "duration": 0.25,
          "velocity": 100
        },
        {
          "pitch": 63,
          "onset": 773.25,
          "duration": 0.25,
          "velocity": 100
        },
        {
          "pitch": 61,
          "onset": 773.5,
          "duration": 0.25,
          "velocity": 100
        },
        {
          "pitch": 63,
          "onset": 773.75,
          "duration": 0.25,
          "velocity": 100
        },
        {
          "pitch": 61,
          "onset": 774.0,
          "duration": 0.25,
          "velocity": 100
        },
        {
          "pitch": 63,
          "onset": 774.25,
          "duration": 0.25,
          "velocity": 100
        },
        {
          "pitch": 61,
          "onset": 774.5,
          "duration": 0.25,
          "velocity": 100
        },
        {
          "pitch": 63,
          "onset": 774.75,
          "duration": 0.25,
          "velocity": 100
        },
        {
          "pitch": 60,
          "onset": 775.0,
          "duration": 3.25,
          "velocity": 100
        },
        {
          "pitch": 63,
          "onset": 778.25,
          "duration": 0.25,
          "velocity": 100
        },
        {
          "pitch": 65,
          "onset": 778.5,
          "duration": 0.25,
          "velocity": 100
        },
        {
          "pitch": 67,
          "onset": 778.75,
          "duration": 0.25,
          "velocity": 100
        },
        {
          "pitch": 68,
          "onset": 779.0,
          "duration": 0.5,
          "velocity": 100
        },
        {
          "pitch": 67,
          "onset": 779.5,
          "duration": 0.25,
          "velocity": 100
        },
        {
          "pitch": 65,
          "onset": 779.75,
          "duration": 0.25,
          "velocity": 100
        },
        {
          "pitch": 72,
          "onset": 780.0,
          "duration": 1.0,
          "velocity": 100
        },
        {
          "pitch": 70,
          "onset": 781.0,
          "duration": 0.5,
          "velocity": 100
        },
        {
          "pitch": 65,
          "onset": 781.5,
          "duration": 0.5,
          "velocity": 100
        },
        {
          "pitch": 67,
          "onset": 782.0,
          "duration": 1.25,
          "velocity": 100
        },
        {
          "pitch": 67,
          "onset": 783.25,
          "duration": 0.25,
          "velocity": 100
        },
        {
          "pitch": 68,
          "onset": 783.5,
          "duration": 0.25,
          "velocity": 100
        },
        {
          "pitch": 67,
          "onset": 783.75,
          "duration": 0.25,
          "velocity": 100
        },
        {
          "pitch": 65,
          "onset": 784.0,
          "duration": 2.0,
          "velocity": 100
        },
        {
          "pitch": 63,
          "onset": 786.0,
          "duration": 1.5,
          "velocity": 100
        },
        {
          "pitch": 62,
          "onset": 787.5,
          "duration": 0.25,
          "velocity": 100
        },
        {
          "pitch": 63,
          "onset": 787.75,
          "duration": 0.25,
          "velocity": 100
        },
        {
          "pitch": 60,
          "onset": 788.0,
          "duration": 0.25,
          "velocity": 100
        },
        {
          "pitch": 63,
          "onset": 788.25,
          "duration": 0.25,
          "velocity": 100
        },
        {
          "pitch": 62,
          "onset": 788.5,
          "duration": 0.25,
          "velocity": 100
        },
        {
          "pitch": 60,
          "onset": 788.75,
          "duration": 0.25,
          "velocity": 100
        },
        {
          "pitch": 58,
          "onset": 789.0,
          "duration": 1.0,
          "velocity": 100
        },
        {
          "pitch": 60,
          "onset": 790.25,
          "duration": 0.25,
          "velocity": 100
        },
        {
          "pitch": 58,
          "onset": 790.5,
          "duration": 0.25,
          "velocity": 100
        },
        {
          "pitch": 60,
          "onset": 790.75,
          "duration": 0.25,
          "velocity": 100
        },
        {
          "pitch": 57,
          "onset": 791.0,
          "duration": 0.25,
          "velocity": 100
        },
        {
          "pitch": 58,
          "onset": 791.25,
          "duration": 0.25,
          "velocity": 100
        },
        {
          "pitch": 57,
          "onset": 791.5,
          "duration": 0.25,
          "velocity": 100
        },
        {
          "pitch": 58,
          "onset": 791.75,
          "duration": 0.25,
          "velocity": 100
        },
        {
          "pitch": 55,
          "onset": 792.0,
          "duration": 1.0,
          "velocity": 100
        },
        {
          "pitch": 60,
          "onset": 793.25,
          "duration": 0.25,
          "velocity": 100
        },
        {
          "pitch": 58,
          "onset": 793.5,
          "duration": 0.25,
          "velocity": 100
        },
        {
          "pitch": 60,
          "onset": 793.75,
          "duration": 0.25,
          "velocity": 100
        },
        {
          "pitch": 57,
          "onset": 794.0,
          "duration": 0.25,
          "velocity": 100
        },
        {
          "pitch": 58,
          "onset": 794.25,
          "duration": 0.25,
          "velocity": 100
        },
        {
          "pitch": 57,
          "onset": 794.5,
          "duration": 0.25,
          "velocity": 100
        },
        {
          "pitch": 58,
          "onset": 794.75,
          "duration": 0.25,
          "velocity": 100
        },
        {
          "pitch": 55,
          "onset": 795.0,
          "duration": 1.0,
          "velocity": 100
        },
        {
          "pitch": 57,
          "onset": 796.25,
          "duration": 0.25,
          "velocity": 100
        },
        {
          "pitch": 55,
          "onset": 796.5,
          "duration": 0.25,
          "velocity": 100
        },
        {
          "pitch": 57,
          "onset": 796.75,
          "duration": 0.25,
          "velocity": 100
        },
        {
          "pitch": 54,
          "onset": 797.0,
          "duration": 0.5,
          "velocity": 100
        },
        {
          "pitch": 55,
          "onset": 797.5,
          "duration": 1.0,
          "velocity": 100
        },
        {
          "pitch": 54,
          "onset": 798.5,
          "duration": 0.5,
          "velocity": 100
        },
        {
          "pitch": 55,
          "onset": 799.0,
          "duration": 1.0,
          "velocity": 100
        },
        {
          "pitch": 48,
          "onset": 802.0,
          "duration": 0.25,
          "velocity": 100
        },
        {
          "pitch": 51,
          "onset": 802.25,
          "duration": 0.25,
          "velocity": 100
        },
        {
          "pitch": 50,
          "onset": 802.5,
          "duration": 0.25,
          "velocity": 100
        },
        {
          "pitch": 53,
          "onset": 802.75,
          "duration": 0.25,
          "velocity": 100
        },
        {
          "pitch": 51,
          "onset": 803.0,
          "duration": 0.25,
          "velocity": 100
        },
        {
          "pitch": 55,
          "onset": 803.25,
          "duration": 0.25,
          "velocity": 100
        },
        {
          "pitch": 53,
          "onset": 803.5,
          "duration": 0.25,
          "velocity": 100
        },
        {
          "pitch": 56,
          "onset": 803.75,
          "duration": 0.25,
          "velocity": 100
        },
        {
          "pitch": 55,
          "onset": 804.0,
          "duration": 0.25,
          "velocity": 100
        },
        {
          "pitch": 58,
          "onset": 804.25,
          "duration": 0.25,
          "velocity": 100
        },
        {
          "pitch": 56,
          "onset": 804.5,
          "duration": 0.25,
          "velocity": 100
        },
        {
          "pitch": 55,
          "onset": 804.75,
          "duration": 0.25,
          "velocity": 100
        },
        {
          "pitch": 53,
          "onset": 805.0,
          "duration": 0.125,
          "velocity": 100
        },
        {
          "pitch": 55,
          "onset": 805.125,
          "duration": 0.125,
          "velocity": 100
        },
        {
          "pitch": 53,
          "onset": 805.25,
          "duration": 0.125,
          "velocity": 100
        },
        {
          "pitch": 55,
          "onset": 805.375,
          "duration": 0.125,
          "velocity": 100
        },
        {
          "pitch": 53,
          "onset": 805.5,
          "duration": 0.125,
          "velocity": 100
        },
        {
          "pitch": 55,
          "onset": 805.625,
          "duration": 0.125,
          "velocity": 100
        },
        {
          "pitch": 53,
          "onset": 805.75,
          "duration": 0.125,
          "velocity": 100
        },
        {
          "pitch": 55,
          "onset": 805.875,
          "duration": 0.125,
          "velocity": 100
        },
        {
          "pitch": 53,
          "onset": 806.0,
          "duration": 0.125,
          "velocity": 100
        },
        {
          "pitch": 55,
          "onset": 806.125,
          "duration": 0.125,
          "velocity": 100
        },
        {
          "pitch": 53,
          "onset": 806.25,
          "duration": 0.125,
          "velocity": 100
        },
        {
          "pitch": 55,
          "onset": 806.375,
          "duration": 0.125,
          "velocity": 100
        },
        {
          "pitch": 53,
          "onset": 806.5,
          "duration": 0.125,
          "velocity": 100
        },
        {
          "pitch": 55,
          "onset": 806.625,
          "duration": 0.125,
          "velocity": 100
        },
        {
          "pitch": 53,
          "onset": 806.75,
          "duration": 0.125,
          "velocity": 100
        },
        {
          "pitch": 55,
          "onset": 806.875,
          "duration": 0.125,
          "velocity": 100
        },
        {
          "pitch": 53,
          "onset": 807.0,
          "duration": 0.125,
          "velocity": 100
        },
        {
          "pitch": 55,
          "onset": 807.125,
          "duration": 0.125,
          "velocity": 100
        },
        {
          "pitch": 53,
          "onset": 807.25,
          "duration": 0.125,
          "velocity": 100
        },
        {
          "pitch": 55,
          "onset": 807.375,
          "duration": 0.125,
          "velocity": 100
        },
        {
          "pitch": 53,
          "onset": 807.5,
          "duration": 0.125,
          "velocity": 100
        },
        {
          "pitch": 55,
          "onset": 807.625,
          "duration": 0.125,
          "velocity": 100
        },
        {
          "pitch": 53,
          "onset": 807.75,
          "duration": 0.125,
          "velocity": 100
        },
        {
          "pitch": 55,
          "onset": 807.875,
          "duration": 0.125,
          "velocity": 100
        },
        {
          "pitch": 53,
          "onset": 808.0,
          "duration": 0.125,
          "velocity": 100
        },
        {
          "pitch": 55,
          "onset": 808.125,
          "duration": 0.125,
          "velocity": 100
        },
        {
          "pitch": 53,
          "onset": 808.25,
          "duration": 0.125,
          "velocity": 100
        },
        {
          "pitch": 55,
          "onset": 808.375,
          "duration": 0.125,
          "velocity": 100
        },
        {
          "pitch": 53,
          "onset": 808.5,
          "duration": 0.125,
          "velocity": 100
        },
        {
          "pitch": 55,
          "onset": 808.625,
          "duration": 0.125,
          "velocity": 100
        },
        {
          "pitch": 53,
          "onset": 808.75,
          "duration": 0.125,
          "velocity": 100
        },
        {
          "pitch": 55,
          "onset": 808.875,
          "duration": 0.125,
          "velocity": 100
        },
        {
          "pitch": 53,
          "onset": 809.0,
          "duration": 0.125,
          "velocity": 100
        },
        {
          "pitch": 55,
          "onset": 809.125,
          "duration": 0.125,
          "velocity": 100
        },
        {
          "pitch": 53,
          "onset": 809.25,
          "duration": 0.125,
          "velocity": 100
        },
        {
          "pitch": 55,
          "onset": 809.375,
          "duration": 0.125,
          "velocity": 100
        },
        {
          "pitch": 53,
          "onset": 809.5,
          "duration": 0.125,
          "velocity": 100
        },
        {
          "pitch": 55,
          "onset": 809.625,
          "duration": 0.125,
          "velocity": 100
        },
        {
          "pitch": 53,
          "onset": 809.75,
          "duration": 0.125,
          "velocity": 100
        },
        {
          "pitch": 55,
          "onset": 809.875,
          "duration": 0.125,
          "velocity": 100
        },
        {
          "pitch": 53,
          "onset": 810.0,
          "duration": 0.125,
          "velocity": 100
        },
        {
          "pitch": 55,
          "onset": 810.125,
          "duration": 0.125,
          "velocity": 100
        },
        {
          "pitch": 53,
          "onset": 810.25,
          "duration": 0.125,
          "velocity": 100
        },
        {
          "pitch": 55,
          "onset": 810.375,
          "duration": 0.125,
          "velocity": 100
        },
        {
          "pitch": 53,
          "onset": 810.5,
          "duration": 0.125,
          "velocity": 100
        },
        {
          "pitch": 55,
          "onset": 810.625,
          "duration": 0.125,
          "velocity": 100
        },
        {
          "pitch": 53,
          "onset": 810.75,
          "duration": 0.125,
          "velocity": 100
        },
        {
          "pitch": 55,
          "onset": 810.875,
          "duration": 0.125,
          "velocity": 100
        },
        {
          "pitch": 53,
          "onset": 811.0,
          "duration": 0.25,
          "velocity": 100
        },
        {
          "pitch": 53,
          "onset": 811.25,
          "duration": 0.25,
          "velocity": 100
        },
        {
          "pitch": 51,
          "onset": 811.5,
          "duration": 0.25,
          "velocity": 100
        },
        {
          "pitch": 50,
          "onset": 811.75,
          "duration": 0.25,
          "velocity": 100
        },
        {
          "pitch": 51,
          "onset": 812.0,
          "duration": 0.5,
          "velocity": 100
        },
        {
          "pitch": 63,
          "onset": 812.5,
          "duration": 0.75,
          "velocity": 100
        },
        {
          "pitch": 63,
          "onset": 813.25,
          "duration": 0.25,
          "velocity": 100
        },
        {
          "pitch": 62,
          "onset": 813.5,
          "duration": 0.25,
          "velocity": 100
        },
        {
          "pitch": 60,
          "onset": 813.75,
          "duration": 0.25,
          "velocity": 100
        },
        {
          "pitch": 59,
          "onset": 814.0,
          "duration": 0.25,
          "velocity": 100
        },
        {
          "pitch": 62,
          "onset": 814.25,
          "duration": 0.25,
          "velocity": 100
        },
        {
          "pitch": 60,
          "onset": 814.5,
          "duration": 0.25,
          "velocity": 100
        },
        {
          "pitch": 63,
          "onset": 814.75,
          "duration": 0.25,
          "velocity": 100
        },
        {
          "pitch": 62,
          "onset": 815.0,
          "duration": 1.0,
          "velocity": 100
        },
        {
          "pitch": 63,
          "onset": 816.25,
          "duration": 0.25,
          "velocity": 100
        },
        {
          "pitch": 62,
          "onset": 816.5,
          "duration": 0.25,
          "velocity": 100
        },
        {
          "pitch": 63,
          "onset": 816.75,
          "duration": 0.25,
          "velocity": 100
        },
        {
          "pitch": 60,
          "onset": 817.0,
          "duration": 1.0,
          "velocity": 100
        },
        {
          "pitch": 58,
          "onset": 818.0,
          "duration": 1.0,
          "velocity": 100
        },
        {
          "pitch": 58,
          "onset": 819.0,
          "duration": 1.0,
          "velocity": 100
        },
        {
          "pitch": 60,
          "onset": 820.0,
          "duration": 1.0,
          "velocity": 100
        },
        {
          "pitch": 65,
          "onset": 821.0,
          "duration": 0.25,
          "velocity": 100
        },
        {
          "pitch": 67,
          "onset": 821.25,
          "duration": 0.25,
          "velocity": 100
        },
        {
          "pitch": 65,
          "onset": 821.5,
          "duration": 0.25,
          "velocity": 100
        },
        {
          "pitch": 63,
          "onset": 821.75,
          "duration": 0.25,
          "velocity": 100
        },
        {
          "pitch": 62,
          "onset": 822.0,
          "duration": 0.5,
          "velocity": 100
        },
        {
          "pitch": 60,
          "onset": 822.5,
          "duration": 0.75,
          "velocity": 100
        },
        {
          "pitch": 59,
          "onset": 823.25,
          "duration": 0.25,
          "velocity": 100
        },
        {
          "pitch": 60,
          "onset": 823.5,
          "duration": 0.75,
          "velocity": 100
        },
        {
          "pitch": 59,
          "onset": 824.25,
          "duration": 0.25,
          "velocity": 100
        },
        {
          "pitch": 60,
          "onset": 824.5,
          "duration": 0.25,
          "velocity": 100
        },
        {
          "pitch": 62,
          "onset": 824.75,
          "duration": 0.25,
          "velocity": 100
        },
        {
          "pitch": 63,
          "onset": 825.0,
          "duration": 0.25,
          "velocity": 100
        },
        {
          "pitch": 67,
          "onset": 825.25,
          "duration": 0.25,
          "velocity": 100
        },
        {
          "pitch": 65,
          "onset": 825.5,
          "duration": 0.25,
          "velocity": 100
        },
        {
          "pitch": 63,
          "onset": 825.75,
          "duration": 0.25,
          "velocity": 100
        },
        {
          "pitch": 62,
          "onset": 826.0,
          "duration": 1.0,
          "velocity": 100
        },
        {
          "pitch": 67,
          "onset": 827.0,
          "duration": 0.5,
          "velocity": 100
        },
        {
          "pitch": 67,
          "onset": 827.5,
          "duration": 0.5,
          "velocity": 100
        },
        {
          "pitch": 63,
          "onset": 828.0,
          "duration": 0.5,
          "velocity": 100
        },
        {
          "pitch": 63,
          "onset": 828.5,
          "duration": 0.5,
          "velocity": 100
        },
        {
          "pitch": 60,
          "onset": 829.0,
          "duration": 1.0,
          "velocity": 100
        },
        {
          "pitch": 65,
          "onset": 830.0,
          "duration": 0.5,
          "velocity": 100
        },
        {
          "pitch": 65,
          "onset": 830.5,
          "duration": 0.5,
          "velocity": 100
        },
        {
          "pitch": 62,
          "onset": 831.0,
          "duration": 0.5,
          "velocity": 100
        },
        {
          "pitch": 62,
          "onset": 831.5,
          "duration": 0.5,
          "velocity": 100
        },
        {
          "pitch": 59,
          "onset": 832.0,
          "duration": 1.0,
          "velocity": 100
        },
        {
          "pitch": 63,
          "onset": 833.0,
          "duration": 0.5,
          "velocity": 100
        },
        {
          "pitch": 63,
          "onset": 833.5,
          "duration": 0.5,
          "velocity": 100
        },
        {
          "pitch": 60,
          "onset": 834.0,
          "duration": 0.5,
          "velocity": 100
        },
        {
          "pitch": 60,
          "onset": 834.5,
          "duration": 0.5,
          "velocity": 100
        },
        {
          "pitch": 57,
          "onset": 835.0,
          "duration": 1.0,
          "velocity": 100
        },
        {
          "pitch": 62,
          "onset": 836.0,
          "duration": 0.5,
          "velocity": 100
        },
        {
          "pitch": 62,
          "onset": 836.5,
          "duration": 0.5,
          "velocity": 100
        },
        {
          "pitch": 59,
          "onset": 837.0,
          "duration": 0.5,
          "velocity": 100
        },
        {
          "pitch": 59,
          "onset": 837.5,
          "duration": 0.5,
          "velocity": 100
        },
        {
          "pitch": 55,
          "onset": 838.0,
          "duration": 1.0,
          "velocity": 100
        },
        {
          "pitch": 60,
          "onset": 839.0,
          "duration": 0.5,
          "velocity": 100
        },
        {
          "pitch": 60,
          "onset": 839.5,
          "duration": 0.5,
          "velocity": 100
        },
        {
          "pitch": 56,
          "onset": 840.0,
          "duration": 0.5,
          "velocity": 100
        },
        {
          "pitch": 56,
          "onset": 840.5,
          "duration": 0.5,
          "velocity": 100
        },
        {
          "pitch": 50,
          "onset": 841.0,
          "duration": 1.0,
          "velocity": 100
        },
        {
          "pitch": 55,
          "onset": 842.5,
          "duration": 0.5,
          "velocity": 100
        },
        {
          "pitch": 55,
          "onset": 843.0,
          "duration": 0.5,
          "velocity": 100
        },
        {
          "pitch": 55,
          "onset": 843.5,
          "duration": 0.5,
          "velocity": 100
        },
        {
          "pitch": 55,
          "onset": 844.0,
          "duration": 1.0,
          "velocity": 100
        },
        {
          "pitch": 55,
          "onset": 845.5,
          "duration": 0.5,
          "velocity": 100
        },
        {
          "pitch": 55,
          "onset": 846.0,
          "duration": 0.5,
          "velocity": 100
        },
        {
          "pitch": 55,
          "onset": 846.5,
          "duration": 0.5,
          "velocity": 100
        },
        {
          "pitch": 55,
          "onset": 847.0,
          "duration": 1.0,
          "velocity": 100
        },
        {
          "pitch": 59,
          "onset": 848.5,
          "duration": 0.5,
          "velocity": 100
        },
        {
          "pitch": 60,
          "onset": 849.0,
          "duration": 0.5,
          "velocity": 100
        },
        {
          "pitch": 60,
          "onset": 849.5,
          "duration": 0.5,
          "velocity": 100
        },
        {
          "pitch": 59,
          "onset": 850.0,
          "duration": 1.0,
          "velocity": 100
        },
        {
          "pitch": 59,
          "onset": 851.5,
          "duration": 0.5,
          "velocity": 110
        },
        {
          "pitch": 60,
          "onset": 852.0,
          "duration": 0.5,
          "velocity": 110
        },
        {
          "pitch": 63,
          "onset": 852.5,
          "duration": 0.5,
          "velocity": 110
        },
        {
          "pitch": 61,
          "onset": 853.0,
          "duration": 1.0,
          "velocity": 110
        },
        {
          "pitch": 62,
          "onset": 854.5,
          "duration": 0.5,
          "velocity": 110
        },
        {
          "pitch": 63,
          "onset": 855.0,
          "duration": 1.0,
          "velocity": 110
        },
        {
          "pitch": 60,
          "onset": 856.0,
          "duration": 2.0,
          "velocity": 110
        },
        {
          "pitch": 59,
          "onset": 858.0,
          "duration": 1.0,
          "velocity": 110
        },
        {
          "pitch": 60,
          "onset": 859.0,
          "duration": 0.5,
          "velocity": 110
        },
        {
          "pitch": 62,
          "onset": 859.5,
          "duration": 0.5,
          "velocity": 110
        },
        {
          "pitch": 64,
          "onset": 860.0,
          "duration": 0.5,
          "velocity": 110
        },
        {
          "pitch": 67,
          "onset": 860.5,
          "duration": 0.5,
          "velocity": 110
        },
        {
          "pitch": 65,
          "onset": 861.0,
          "duration": 0.5,
          "velocity": 110
        },
        {
          "pitch": 65,
          "onset": 861.5,
          "duration": 0.5,
          "velocity": 110
        },
        {
          "pitch": 67,
          "onset": 862.0,
          "duration": 1.0,
          "velocity": 110
        },
        {
          "pitch": 60,
          "onset": 863.5,
          "duration": 0.5,
          "velocity": 110
        },
        {
          "pitch": 60,
          "onset": 864.0,
          "duration": 0.5,
          "velocity": 110
        },
        {
          "pitch": 60,
          "onset": 864.5,
          "duration": 0.5,
          "velocity": 110
        },
        {
          "pitch": 60,
          "onset": 865.0,
          "duration": 1.0,
          "velocity": 110
        },
        {
          "pitch": 64,
          "onset": 866.5,
          "duration": 0.5,
          "velocity": 110
        },
        {
          "pitch": 65,
          "onset": 867.0,
          "duration": 0.5,
          "velocity": 110
        },
        {
          "pitch": 65,
          "onset": 867.5,
          "duration": 0.5,
          "velocity": 110
        },
        {
          "pitch": 64,
          "onset": 868.0,
          "duration": 1.0,
          "velocity": 110
        },
        {
          "pitch": 64,
          "onset": 869.25,
          "duration": 0.25,
          "velocity": 110
        },
        {
          "pitch": 62,
          "onset": 869.5,
          "duration": 0.25,
          "velocity": 110
        },
        {
          "pitch": 64,
          "onset": 869.75,
          "duration": 0.75,
          "velocity": 110
        },
        {
          "pitch": 65,
          "onset": 870.5,
          "duration": 0.5,
          "velocity": 110
        },
        {
          "pitch": 56,
          "onset": 872.25,
          "duration": 0.25,
          "velocity": 110
        },
        {
          "pitch": 55,
          "onset": 872.5,
          "duration": 0.25,
          "velocity": 110
        },
        {
          "pitch": 56,
          "onset": 872.75,
          "duration": 1.5,
          "velocity": 110
        },
        {
          "pitch": 59,
          "onset": 873.75,
          "duration": 0.5,
          "velocity": 110
        },
        {
          "pitch": 48,
          "onset": 874.25,
          "duration": 1.5,
          "velocity": 110
        },
        {
          "pitch": 55,
          "onset": 874.25,
          "duration": 1.5,
          "velocity": 110
        }
      ]
    },
    {
      "role": "v4",
      "notes": [
        {
          "pitch": 36,
          "onset": 0.0,
          "duration": 1.0,
          "velocity": 120
        },
        {
          "pitch": 43,
          "onset": 1.0,
          "duration": 2.0,
          "velocity": 120
        },
        {
          "pitch": 39,
          "onset": 3.0,
          "duration": 1.0,
          "velocity": 120
        },
        {
          "pitch": 41,
          "onset": 4.0,
          "duration": 2.0,
          "velocity": 120
        },
        {
          "pitch": 43,
          "onset": 6.0,
          "duration": 1.0,
          "velocity": 120
        },
        {
          "pitch": 44,
          "onset": 7.0,
          "duration": 2.0,
          "velocity": 120
        },
        {
          "pitch": 41,
          "onset": 9.0,
          "duration": 1.0,
          "velocity": 120
        },
        {
          "pitch": 43,
          "onset": 10.0,
          "duration": 2.0,
          "velocity": 120
        },
        {
          "pitch": 38,
          "onset": 12.0,
          "duration": 1.0,
          "velocity": 120
        },
        {
          "pitch": 39,
          "onset": 13.0,
          "duration": 2.0,
          "velocity": 120
        },
        {
          "pitch": 35,
          "onset": 15.0,
          "duration": 1.0,
          "velocity": 120
        },
        {
          "pitch": 36,
          "onset": 16.0,
          "duration": 2.0,
          "velocity": 120
        },
        {
          "pitch": 29,
          "onset": 18.0,
          "duration": 1.0,
          "velocity": 120
        },
        {
          "pitch": 31,
          "onset": 19.0,
          "duration": 3.0,
          "velocity": 120
        },
        {
          "pitch": 24,
          "onset": 22.0,
          "duration": 2.0,
          "velocity": 120
        },
        {
          "pitch": 36,
          "onset": 24.0,
          "duration": 1.0,
          "velocity": 120
        },
        {
          "pitch": 43,
          "onset": 25.0,
          "duration": 2.0,
          "velocity": 120
        },
        {
          "pitch": 39,
          "onset": 27.0,
          "duration": 1.0,
          "velocity": 120
        },
        {
          "pitch": 41,
          "onset": 28.0,
          "duration": 2.0,
          "velocity": 120
        },
        {
          "pitch": 43,
          "onset": 30.0,
          "duration": 1.0,
          "velocity": 120
        },
        {
          "pitch": 44,
          "onset": 31.0,
          "duration": 2.0,
          "velocity": 120
        },
        {
          "pitch": 41,
          "onset": 33.0,
          "duration": 1.0,
          "velocity": 120
        },
        {
          "pitch": 43,
          "onset": 34.0,
          "duration": 2.0,
          "velocity": 120
        },
        {
          "pitch": 38,
          "onset": 36.0,
          "duration": 1.0,
          "velocity": 120
        },
        {
          "pitch": 39,
          "onset": 37.0,
          "duration": 2.0,
          "velocity": 120
        },
        {
          "pitch": 35,
          "onset": 39.0,
          "duration": 1.0,
          "velocity": 120
        },
        {
          "pitch": 36,
          "onset": 40.0,
          "duration": 2.0,
          "velocity": 120
        },
        {
          "pitch": 29,
          "onset": 42.0,
          "duration": 1.0,
          "velocity": 120
        },
        {
          "pitch": 31,
          "onset": 43.0,
          "duration": 3.0,
          "velocity": 120
        },
        {
          "pitch": 24,
          "onset": 46.0,
          "duration": 2.0,
          "velocity": 120
        },
        {
          "pitch": 36,
          "onset": 48.0,
          "duration": 1.0,
          "velocity": 120
        },
        {
          "pitch": 43,
          "onset": 49.0,
          "duration": 2.0,
          "velocity": 120
        },
        {
          "pitch": 39,
          "onset": 51.0,
          "duration": 1.0,
          "velocity": 120
        },
        {
          "pitch": 41,
          "onset": 52.0,
          "duration": 2.0,
          "velocity": 120
        },
        {
          "pitch": 43,
          "onset": 54.0,
          "duration": 1.0,
          "velocity": 120
        },
        {
          "pitch": 44,
          "onset": 55.0,
          "duration": 2.0,
          "velocity": 120
        },
        {
          "pitch": 41,
          "onset": 57.0,
          "duration": 1.0,
          "velocity": 120
        },
        {
          "pitch": 43,
          "onset": 58.0,
          "duration": 2.0,
          "velocity": 120
        },
        {
          "pitch": 38,
          "onset": 60.0,
          "duration": 1.0,
          "velocity": 120
        },
        {
          "pitch": 39,
          "onset": 61.0,
          "duration": 2.0,
          "velocity": 120
        },
        {
          "pitch": 35,
          "onset": 63.0,
          "duration": 1.0,
          "velocity": 120
        },
        {
          "pitch": 36,
          "onset": 64.0,
          "duration": 2.0,
          "velocity": 120
        },
        {
          "pitch": 29,
          "onset": 66.0,
          "duration": 1.0,
          "velocity": 120
        },
        {
          "pitch": 31,
          "onset": 67.0,
          "duration": 3.0,
          "velocity": 120
        },
        {
          "pitch": 24,
          "onset": 70.0,
          "duration": 2.0,
          "velocity": 120
        },
        {
          "pitch": 36,
          "onset": 72.0,
          "duration": 1.0,
          "velocity": 120
        },
        {
          "pitch": 43,
          "onset": 73.0,
          "duration": 2.0,
          "velocity": 120
        },
        {
          "pitch": 39,
          "onset": 75.0,
          "duration": 1.0,
          "velocity": 120
        },
        {
          "pitch": 41,
          "onset": 76.0,
          "duration": 2.0,
          "velocity": 120
        },
        {
          "pitch": 43,
          "onset": 78.0,
          "duration": 1.0,
          "velocity": 120
        },
        {
          "pitch": 44,
          "onset": 79.0,
          "duration": 2.0,
          "velocity": 120
        },
        {
          "pitch": 41,
          "onset": 81.0,
          "duration": 1.0,
          "velocity": 120
        },
        {
          "pitch": 43,
          "onset": 82.0,
          "duration": 2.0,
          "velocity": 120
        },
        {
          "pitch": 38,
          "onset": 84.0,
          "duration": 1.0,
          "velocity": 120
        },
        {
          "pitch": 39,
          "onset": 85.0,
          "duration": 2.0,
          "velocity": 120
        },
        {
          "pitch": 35,
          "onset": 87.0,
          "duration": 1.0,
          "velocity": 120
        },
        {
          "pitch": 36,
          "onset": 88.0,
          "duration": 2.0,
          "velocity": 120
        },
        {
          "pitch": 29,
          "onset": 90.0,
          "duration": 1.0,
          "velocity": 120
        },
        {
          "pitch": 31,
          "onset": 91.0,
          "duration": 3.0,
          "velocity": 120
        },
        {
          "pitch": 24,
          "onset": 94.0,
          "duration": 2.0,
          "velocity": 120
        },
        {
          "pitch": 36,
          "onset": 96.0,
          "duration": 1.0,
          "velocity": 120
        },
        {
          "pitch": 43,
          "onset": 97.0,
          "duration": 2.0,
          "velocity": 120
        },
        {
          "pitch": 39,
          "onset": 99.0,
          "duration": 1.0,
          "velocity": 120
        },
        {
          "pitch": 41,
          "onset": 100.0,
          "duration": 2.0,
          "velocity": 120
        },
        {
          "pitch": 43,
          "onset": 102.0,
          "duration": 1.0,
          "velocity": 120
        },
        {
          "pitch": 44,
          "onset": 103.0,
          "duration": 2.0,
          "velocity": 120
        },
        {
          "pitch": 41,
          "onset": 105.0,
          "duration": 1.0,
          "velocity": 120
        },
        {
          "pitch": 43,
          "onset": 106.0,
          "duration": 2.0,
          "velocity": 120
        },
        {
          "pitch": 38,
          "onset": 108.0,
          "duration": 1.0,
          "velocity": 120
        },
        {
          "pitch": 39,
          "onset": 109.0,
          "duration": 2.0,
          "velocity": 120
        },
        {
          "pitch": 35,
          "onset": 111.0,
          "duration": 1.0,
          "velocity": 120
        },
        {
          "pitch": 36,
          "onset": 112.0,
          "duration": 2.0,
          "velocity": 120
        },
        {
          "pitch": 29,
          "onset": 114.0,
          "duration": 1.0,
          "velocity": 120
        },
        {
          "pitch": 31,
          "onset": 115.0,
          "duration": 3.0,
          "velocity": 120
        },
        {
          "pitch": 24,
          "onset": 118.0,
          "duration": 2.0,
          "velocity": 120
        },
        {
          "pitch": 48,
          "onset": 120.5,
          "duration": 0.25,
          "velocity": 120
        },
        {
          "pitch": 36,
          "onset": 120.75,
          "duration": 0.25,
          "velocity": 120
        },
        {
          "pitch": 43,
          "onset": 121.0,
          "duration": 1.0,
          "velocity": 120
        },
        {
          "pitch": 39,
          "onset": 123.5,
          "duration": 0.25,
          "velocity": 120
        },
        {
          "pitch": 36,
          "onset": 123.75,
          "duration": 0.25,
          "velocity": 120
        },
        {
          "pitch": 41,
          "onset": 124.0,
          "duration": 1.0,
          "velocity": 120
        },
        {
          "pitch": 43,
          "onset": 126.5,
          "duration": 0.25,
          "velocity": 120
        },
        {
          "pitch": 39,
          "onset": 126.75,
          "duration": 0.25,
          "velocity": 120
        },
        {
          "pitch": 44,
          "onset": 127.0,
          "duration": 1.0,
          "velocity": 120
        },
        {
          "pitch": 41,
          "onset": 129.5,
          "duration": 0.25,
          "velocity": 120
        },
        {
          "pitch": 38,
          "onset": 129.75,
          "duration": 0.25,
          "velocity": 120
        },
        {
          "pitch": 43,
          "onset": 130.0,
          "duration": 1.0,
          "velocity": 120
        },
        {
          "pitch": 43,
          "onset": 132.5,
          "duration": 0.25,
          "velocity": 120
        },
        {
          "pitch": 38,
          "onset": 132.75,
          "duration": 0.25,
          "velocity": 120
        },
        {
          "pitch": 39,
          "onset": 133.0,
          "duration": 1.0,
          "velocity": 120
        },
        {
          "pitch": 43,
          "onset": 135.5,
          "duration": 0.25,
          "velocity": 120
        },
        {
          "pitch": 35,
          "onset": 135.75,
          "duration": 0.25,
          "velocity": 120
        },
        {
          "pitch": 36,
          "onset": 136.0,
          "duration": 1.0,
          "velocity": 120
        },
        {
          "pitch": 41,
          "onset": 138.5,
          "duration": 0.25,
          "velocity": 120
        },
        {
          "pitch": 29,
          "onset": 138.75,
          "duration": 0.25,
          "velocity": 120
        },
        {
          "pitch": 31,
          "onset": 139.0,
          "duration": 3.0,
          "velocity": 120
        },
        {
          "pitch": 24,
          "onset": 142.0,
          "duration": 2.0,
          "velocity": 120
        },
        {
          "pitch": 36,
          "onset": 144.0,
          "duration": 1.0,
          "velocity": 120
        },
        {
          "pitch": 43,
          "onset": 145.0,
          "duration": 2.0,
          "velocity": 120
        },
        {
          "pitch": 39,
          "onset": 147.0,
          "duration": 1.0,
          "velocity": 120
        },
        {
          "pitch": 41,
          "onset": 148.0,
          "duration": 2.0,
          "velocity": 120
        },
        {
          "pitch": 43,
          "onset": 150.0,
          "duration": 1.0,
          "velocity": 120
        },
        {
          "pitch": 44,
          "onset": 151.0,
          "duration": 2.0,
          "velocity": 120
        },
        {
          "pitch": 41,
          "onset": 153.0,
          "duration": 1.0,
          "velocity": 120
        },
        {
          "pitch": 43,
          "onset": 154.0,
          "duration": 2.0,
          "velocity": 120
        },
        {
          "pitch": 38,
          "onset": 156.0,
          "duration": 1.0,
          "velocity": 120
        },
        {
          "pitch": 39,
          "onset": 157.0,
          "duration": 2.0,
          "velocity": 120
        },
        {
          "pitch": 35,
          "onset": 159.0,
          "duration": 1.0,
          "velocity": 120
        },
        {
          "pitch": 36,
          "onset": 160.0,
          "duration": 2.0,
          "velocity": 120
        },
        {
          "pitch": 29,
          "onset": 162.0,
          "duration": 1.0,
          "velocity": 120
        },
        {
          "pitch": 31,
          "onset": 163.0,
          "duration": 3.0,
          "velocity": 120
        },
        {
          "pitch": 24,
          "onset": 166.0,
          "duration": 2.0,
          "velocity": 120
        },
        {
          "pitch": 36,
          "onset": 168.0,
          "duration": 1.0,
          "velocity": 120
        },
        {
          "pitch": 43,
          "onset": 169.0,
          "duration": 2.0,
          "velocity": 120
        },
        {
          "pitch": 39,
          "onset": 171.0,
          "duration": 1.0,
          "velocity": 120
        },
        {
          "pitch": 41,
          "onset": 172.0,
          "duration": 2.0,
          "velocity": 120
        },
        {
          "pitch": 43,
          "onset": 174.0,
          "duration": 1.0,
          "velocity": 120
        },
        {
          "pitch": 44,
          "onset": 175.0,
          "duration": 2.0,
          "velocity": 120
        },
        {
          "pitch": 41,
          "onset": 177.0,
          "duration": 1.0,
          "velocity": 120
        },
        {
          "pitch": 43,
          "onset": 178.0,
          "duration": 2.0,
          "velocity": 120
        },
        {
          "pitch": 38,
          "onset": 180.0,
          "duration": 1.0,
          "velocity": 120
        },
        {
          "pitch": 39,
          "onset": 181.0,
          "duration": 2.0,
          "velocity": 120
        },
        {
          "pitch": 35,
          "onset": 183.0,
          "duration": 1.0,
          "velocity": 120
        },
        {
          "pitch": 36,
          "onset": 184.0,
          "duration": 2.0,
          "velocity": 120
        },
        {
          "pitch": 29,
          "onset": 186.0,
          "duration": 1.0,
          "velocity": 120
        },
        {
          "pitch": 31,
          "onset": 187.0,
          "duration": 3.0,
          "velocity": 120
        },
        {
          "pitch": 24,
          "onset": 190.0,
          "duration": 2.0,
          "velocity": 120
        },
        {
          "pitch": 36,
          "onset": 192.0,
          "duration": 1.0,
          "velocity": 120
        },
        {
          "pitch": 43,
          "onset": 193.0,
          "duration": 2.0,
          "velocity": 120
        },
        {
          "pitch": 39,
          "onset": 195.0,
          "duration": 1.0,
          "velocity": 120
        },
        {
          "pitch": 41,
          "onset": 196.0,
          "duration": 2.0,
          "velocity": 120
        },
        {
          "pitch": 43,
          "onset": 198.0,
          "duration": 1.0,
          "velocity": 120
        },
        {
          "pitch": 44,
          "onset": 199.0,
          "duration": 2.0,
          "velocity": 120
        },
        {
          "pitch": 41,
          "onset": 201.0,
          "duration": 1.0,
          "velocity": 120
        },
        {
          "pitch": 43,
          "onset": 202.0,
          "duration": 2.0,
          "velocity": 120
        },
        {
          "pitch": 38,
          "onset": 204.0,
          "duration": 1.0,
          "velocity": 120
        },
        {
          "pitch": 39,
          "onset": 205.0,
          "duration": 2.0,
          "velocity": 120
        },
        {
          "pitch": 35,
          "onset": 207.0,
          "duration": 1.0,
          "velocity": 120
        },
        {
          "pitch": 36,
          "onset": 208.0,
          "duration": 2.0,
          "velocity": 120
        },
        {
          "pitch": 29,
          "onset": 210.0,
          "duration": 1.0,
          "velocity": 120
        },
        {
          "pitch": 31,
          "onset": 211.0,
          "duration": 3.0,
          "velocity": 120
        },
        {
          "pitch": 24,
          "onset": 214.0,
          "duration": 1.0,
          "velocity": 120
        },
        {
          "pitch": 36,
          "onset": 216.25,
          "duration": 0.25,
          "velocity": 120
        },
        {
          "pitch": 39,
          "onset": 216.5,
          "duration": 0.25,
          "velocity": 120
        },
        {
          "pitch": 36,
          "onset": 216.75,
          "duration": 0.25,
          "velocity": 120
        },
        {
          "pitch": 43,
          "onset": 217.0,
          "duration": 1.0,
          "velocity": 120
        },
        {
          "pitch": 39,
          "onset": 219.25,
          "duration": 0.25,
          "velocity": 120
        },
        {
          "pitch": 43,
          "onset": 219.5,
          "duration": 0.25,
          "velocity": 120
        },
        {
          "pitch": 39,
          "onset": 219.75,
          "duration": 0.25,
          "velocity": 120
        },
        {
          "pitch": 41,
          "onset": 220.0,
          "duration": 1.0,
          "velocity": 120
        },
        {
          "pitch": 43,
          "onset": 222.25,
          "duration": 0.25,
          "velocity": 120
        },
        {
          "pitch": 46,
          "onset": 222.5,
          "duration": 0.25,
          "velocity": 120
        },
        {
          "pitch": 43,
          "onset": 222.75,
          "duration": 0.25,
          "velocity": 120
        },
        {
          "pitch": 44,
          "onset": 223.0,
          "duration": 1.0,
          "velocity": 120
        },
        {
          "pitch": 41,
          "onset": 225.25,
          "duration": 0.25,
          "velocity": 120
        },
        {
          "pitch": 44,
          "onset": 225.5,
          "duration": 0.25,
          "velocity": 120
        },
        {
          "pitch": 41,
          "onset": 225.75,
          "duration": 0.25,
          "velocity": 120
        },
        {
          "pitch": 43,
          "onset": 226.0,
          "duration": 1.0,
          "velocity": 120
        },
        {
          "pitch": 38,
          "onset": 228.25,
          "duration": 0.25,
          "velocity": 120
        },
        {
          "pitch": 41,
          "onset": 228.5,
          "duration": 0.25,
          "velocity": 120
        },
        {
          "pitch": 38,
          "onset": 228.75,
          "duration": 0.25,
          "velocity": 120
        },
        {
          "pitch": 39,
          "onset": 229.0,
          "duration": 1.0,
          "velocity": 120
        },
        {
          "pitch": 35,
          "onset": 231.25,
          "duration": 0.25,
          "velocity": 120
        },
        {
          "pitch": 38,
          "onset": 231.5,
          "duration": 0.25,
          "velocity": 120
        },
        {
          "pitch": 35,
          "onset": 231.75,
          "duration": 0.25,
          "velocity": 120
        },
        {
          "pitch": 36,
          "onset": 232.0,
          "duration": 1.0,
          "velocity": 120
        },
        {
          "pitch": 29,
          "onset": 234.25,
          "duration": 0.25,
          "velocity": 120
        },
        {
          "pitch": 32,
          "onset": 234.5,
          "duration": 0.25,
          "velocity": 120
        },
        {
          "pitch": 29,
          "onset": 234.75,
          "duration": 0.25,
          "velocity": 120
        },
        {
          "pitch": 31,
          "onset": 235.0,
          "duration": 1.0,
          "velocity": 120
        },
        {
          "pitch": 31,
          "onset": 237.25,
          "duration": 0.25,
          "velocity": 120
        },
        {
          "pitch": 29,
          "onset": 237.5,
          "duration": 0.25,
          "velocity": 120
        },
        {
          "pitch": 31,
          "onset": 237.75,
          "duration": 0.25,
          "velocity": 120
        },
        {
          "pitch": 24,
          "onset": 238.0,
          "duration": 1.0,
          "velocity": 120
        },
        {
          "pitch": 36,
          "onset": 240.0,
          "duration": 1.0,
          "velocity": 120
        },
        {
          "pitch": 43,
          "onset": 241.0,
          "duration": 1.0,
          "velocity": 120
        },
        {
          "pitch": 39,
          "onset": 243.0,
          "duration": 1.0,
          "velocity": 120
        },
        {
          "pitch": 41,
          "onset": 244.0,
          "duration": 1.0,
          "velocity": 120
        },
        {
          "pitch": 43,
          "onset": 246.0,
          "duration": 1.0,
          "velocity": 120
        },
        {
          "pitch": 44,
          "onset": 247.0,
          "duration": 1.0,
          "velocity": 120
        },
        {
          "pitch": 41,
          "onset": 249.0,
          "duration": 1.0,
          "velocity": 120
        },
        {
          "pitch": 43,
          "onset": 250.0,
          "duration": 1.0,
          "velocity": 120
        },
        {
          "pitch": 38,
          "onset": 252.0,
          "duration": 1.0,
          "velocity": 120
        },
        {
          "pitch": 39,
          "onset": 253.0,
          "duration": 1.0,
          "velocity": 120
        },
        {
          "pitch": 35,
          "onset": 255.0,
          "duration": 1.0,
          "velocity": 120
        },
        {
          "pitch": 36,
          "onset": 256.0,
          "duration": 1.0,
          "velocity": 120
        },
        {
          "pitch": 29,
          "onset": 258.0,
          "duration": 1.0,
          "velocity": 120
        },
        {
          "pitch": 31,
          "onset": 259.0,
          "duration": 1.0,
          "velocity": 120
        },
        {
          "pitch": 31,
          "onset": 261.0,
          "duration": 1.0,
          "velocity": 120
        },
        {
          "pitch": 24,
          "onset": 262.0,
          "duration": 1.0,
          "velocity": 120
        },
        {
          "pitch": 44,
          "onset": 288.5,
          "duration": 0.5,
          "velocity": 120
        },
        {
          "pitch": 43,
          "onset": 289.0,
          "duration": 0.25,
          "velocity": 120
        },
        {
          "pitch": 44,
          "onset": 289.25,
          "duration": 0.25,
          "velocity": 120
        },
        {
          "pitch": 41,
          "onset": 289.5,
          "duration": 0.25,
          "velocity": 120
        },
        {
          "pitch": 43,
          "onset": 289.75,
          "duration": 0.25,
          "velocity": 120
        },
        {
          "pitch": 39,
          "onset": 290.0,
          "duration": 0.25,
          "velocity": 120
        },
        {
          "pitch": 41,
          "onset": 290.25,
          "duration": 0.25,
          "velocity": 120
        },
        {
          "pitch": 38,
          "onset": 290.5,
          "duration": 0.25,
          "velocity": 120
        },
        {
          "pitch": 39,
          "onset": 290.75,
          "duration": 0.25,
          "velocity": 120
        },
        {
          "pitch": 36,
          "onset": 291.0,
          "duration": 0.25,
          "velocity": 120
        },
        {
          "pitch": 38,
          "onset": 291.25,
          "duration": 0.25,
          "velocity": 120
        },
        {
          "pitch": 34,
          "onset": 291.5,
          "duration": 0.25,
          "velocity": 120
        },
        {
          "pitch": 36,
          "onset": 291.75,
          "duration": 0.25,
          "velocity": 120
        },
        {
          "pitch": 32,
          "onset": 292.0,
          "duration": 1.5,
          "velocity": 120
        },
        {
          "pitch": 32,
          "onset": 293.5,
          "duration": 0.5,
          "velocity": 120
        },
        {
          "pitch": 34,
          "onset": 294.0,
          "duration": 0.5,
          "velocity": 120
        },
        {
          "pitch": 36,
          "onset": 294.5,
          "duration": 0.5,
          "velocity": 120
        },
        {
          "pitch": 29,
          "onset": 295.0,
          "duration": 0.5,
          "velocity": 120
        },
        {
          "pitch": 36,
          "onset": 295.5,
          "duration": 0.5,
          "velocity": 120
        },
        {
          "pitch": 41,
          "onset": 296.0,
          "duration": 0.25,
          "velocity": 120
        },
        {
          "pitch": 43,
          "onset": 296.25,
          "duration": 0.25,
          "velocity": 120
        },
        {
          "pitch": 39,
          "onset": 296.5,
          "duration": 0.25,
          "velocity": 120
        },
        {
          "pitch": 41,
          "onset": 296.75,
          "duration": 0.25,
          "velocity": 120
        },
        {
          "pitch": 38,
          "onset": 297.0,
          "duration": 0.25,
          "velocity": 120
        },
        {
          "pitch": 39,
          "onset": 297.25,
          "duration": 0.25,
          "velocity": 120
        },
        {
          "pitch": 36,
          "onset": 297.5,
          "duration": 0.25,
          "velocity": 120
        },
        {
          "pitch": 38,
          "onset": 297.75,
          "duration": 0.25,
          "velocity": 120
        },
        {
          "pitch": 35,
          "onset": 298.0,
          "duration": 0.25,
          "velocity": 120
        },
        {
          "pitch": 36,
          "onset": 298.25,
          "duration": 0.25,
          "velocity": 120
        },
        {
          "pitch": 33,
          "onset": 298.5,
          "duration": 0.25,
          "velocity": 120
        },
        {
          "pitch": 35,
          "onset": 298.75,
          "duration": 0.25,
          "velocity": 120
        },
        {
          "pitch": 31,
          "onset": 299.0,
          "duration": 2.0,
          "velocity": 120
        },
        {
          "pitch": 36,
          "onset": 301.0,
          "duration": 1.5,
          "velocity": 120
        },
        {
          "pitch": 24,
          "onset": 302.5,
          "duration": 0.5,
          "velocity": 120
        },
        {
          "pitch": 26,
          "onset": 303.0,
          "duration": 1.0,
          "velocity": 120
        },
        {
          "pitch": 27,
          "onset": 304.0,
          "duration": 0.5,
          "velocity": 120
        },
        {
          "pitch": 31,
          "onset": 304.5,
          "duration": 0.5,
          "velocity": 120
        },
        {
          "pitch": 36,
          "onset": 305.0,
          "duration": 0.25,
          "velocity": 120
        },
        {
          "pitch": 38,
          "onset": 305.25,
          "duration": 0.25,
          "velocity": 120
        },
        {
          "pitch": 34,
          "onset": 305.5,
          "duration": 0.25,
          "velocity": 120
        },
        {
          "pitch": 36,
          "onset": 305.75,
          "duration": 0.25,
          "velocity": 120
        },
        {
          "pitch": 33,
          "onset": 306.0,
          "duration": 1.0,
          "velocity": 120
        },
        {
          "pitch": 35,
          "onset": 307.0,
          "duration": 0.5,
          "velocity": 120
        },
        {
          "pitch": 36,
          "onset": 307.5,
          "duration": 0.5,
          "velocity": 120
        },
        {
          "pitch": 31,
          "onset": 308.0,
          "duration": 0.25,
          "velocity": 120
        },
        {
          "pitch": 32,
          "onset": 308.25,
          "duration": 0.25,
          "velocity": 120
        },
        {
          "pitch": 29,
          "onset": 308.5,
          "duration": 0.25,
          "velocity": 120
        },
        {
          "pitch": 31,
          "onset": 308.75,
          "duration": 0.25,
          "velocity": 120
        },
        {
          "pitch": 27,
          "onset": 309.0,
          "duration": 0.25,
          "velocity": 120
        },
        {
          "pitch": 29,
          "onset": 309.25,
          "duration": 0.25,
          "velocity": 120
        },
        {
          "pitch": 26,
          "onset": 309.5,
          "duration": 0.25,
          "velocity": 120
        },
        {
          "pitch": 27,
          "onset": 309.75,
          "duration": 0.25,
          "velocity": 120
        },
        {
          "pitch": 27,
          "onset": 310.0,
          "duration": 0.25,
          "velocity": 120
        },
        {
          "pitch": 29,
          "onset": 310.25,
          "duration": 0.25,
          "velocity": 120
        },
        {
          "pitch": 26,
          "onset": 310.5,
          "duration": 0.25,
          "velocity": 120
        },
        {
          "pitch": 27,
          "onset": 310.75,
          "duration": 0.25,
          "velocity": 120
        },
        {
          "pitch": 24,
          "onset": 311.0,
          "duration": 1.0,
          "velocity": 120
        },
        {
          "pitch": 36,
          "onset": 384.0,
          "duration": 1.0,
          "velocity": 120
        },
        {
          "pitch": 43,
          "onset": 385.0,
          "duration": 2.0,
          "velocity": 120
        },
        {
          "pitch": 39,
          "onset": 387.0,
          "duration": 1.0,
          "velocity": 120
        },
        {
          "pitch": 41,
          "onset": 388.0,
          "duration": 2.0,
          "velocity": 120
        },
        {
          "pitch": 43,
          "onset": 390.0,
          "duration": 1.0,
          "velocity": 120
        },
        {
          "pitch": 44,
          "onset": 391.0,
          "duration": 2.0,
          "velocity": 120
        },
        {
          "pitch": 41,
          "onset": 393.0,
          "duration": 1.0,
          "velocity": 120
        },
        {
          "pitch": 43,
          "onset": 394.0,
          "duration": 2.0,
          "velocity": 120
        },
        {
          "pitch": 38,
          "onset": 396.0,
          "duration": 1.0,
          "velocity": 120
        },
        {
          "pitch": 39,
          "onset": 397.0,
          "duration": 2.0,
          "velocity": 120
        },
        {
          "pitch": 35,
          "onset": 399.0,
          "duration": 1.0,
          "velocity": 120
        },
        {
          "pitch": 36,
          "onset": 400.0,
          "duration": 2.0,
          "velocity": 120
        },
        {
          "pitch": 29,
          "onset": 402.0,
          "duration": 1.0,
          "velocity": 120
        },
        {
          "pitch": 31,
          "onset": 403.0,
          "duration": 3.0,
          "velocity": 120
        },
        {
          "pitch": 24,
          "onset": 406.0,
          "duration": 2.0,
          "velocity": 120
        },
        {
          "pitch": 36,
          "onset": 408.0,
          "duration": 1.0,
          "velocity": 120
        },
        {
          "pitch": 43,
          "onset": 409.0,
          "duration": 2.0,
          "velocity": 120
        },
        {
          "pitch": 39,
          "onset": 411.0,
          "duration": 1.0,
          "velocity": 120
        },
        {
          "pitch": 41,
          "onset": 412.0,
          "duration": 2.0,
          "velocity": 120
        },
        {
          "pitch": 43,
          "onset": 414.0,
          "duration": 1.0,
          "velocity": 120
        },
        {
          "pitch": 44,
          "onset": 415.0,
          "duration": 2.0,
          "velocity": 120
        },
        {
          "pitch": 41,
          "onset": 417.0,
          "duration": 1.0,
          "velocity": 120
        },
        {
          "pitch": 43,
          "onset": 418.0,
          "duration": 2.0,
          "velocity": 120
        },
        {
          "pitch": 38,
          "onset": 420.0,
          "duration": 1.0,
          "velocity": 120
        },
        {
          "pitch": 39,
          "onset": 421.0,
          "duration": 2.0,
          "velocity": 120
        },
        {
          "pitch": 35,
          "onset": 423.0,
          "duration": 1.0,
          "velocity": 120
        },
        {
          "pitch": 36,
          "onset": 424.0,
          "duration": 2.0,
          "velocity": 120
        },
        {
          "pitch": 29,
          "onset": 426.0,
          "duration": 1.0,
          "velocity": 120
        },
        {
          "pitch": 31,
          "onset": 427.0,
          "duration": 3.0,
          "velocity": 120
        },
        {
          "pitch": 24,
          "onset": 430.0,
          "duration": 2.0,
          "velocity": 120
        },
        {
          "pitch": 36,
          "onset": 432.5,
          "duration": 0.5,
          "velocity": 120
        },
        {
          "pitch": 43,
          "onset": 433.0,
          "duration": 2.0,
          "velocity": 120
        },
        {
          "pitch": 39,
          "onset": 435.5,
          "duration": 0.5,
          "velocity": 120
        },
        {
          "pitch": 41,
          "onset": 436.0,
          "duration": 2.0,
          "velocity": 120
        },
        {
          "pitch": 43,
          "onset": 438.5,
          "duration": 0.5,
          "velocity": 120
        },
        {
          "pitch": 44,
          "onset": 439.0,
          "duration": 2.0,
          "velocity": 120
        },
        {
          "pitch": 41,
          "onset": 441.5,
          "duration": 0.5,
          "velocity": 120
        },
        {
          "pitch": 43,
          "onset": 442.0,
          "duration": 2.0,
          "velocity": 120
        },
        {
          "pitch": 38,
          "onset": 444.5,
          "duration": 0.5,
          "velocity": 120
        },
        {
          "pitch": 39,
          "onset": 445.0,
          "duration": 2.0,
          "velocity": 120
        },
        {
          "pitch": 35,
          "onset": 447.5,
          "duration": 0.5,
          "velocity": 120
        },
        {
          "pitch": 36,
          "onset": 448.0,
          "duration": 2.0,
          "velocity": 120
        },
        {
          "pitch": 29,
          "onset": 450.5,
          "duration": 0.5,
          "velocity": 120
        },
        {
          "pitch": 31,
          "onset": 451.0,
          "duration": 3.0,
          "velocity": 120
        },
        {
          "pitch": 24,
          "onset": 454.0,
          "duration": 2.0,
          "velocity": 120
        },
        {
          "pitch": 36,
          "onset": 456.0,
          "duration": 1.0,
          "velocity": 120
        },
        {
          "pitch": 43,
          "onset": 457.0,
          "duration": 2.0,
          "velocity": 120
        },
        {
          "pitch": 39,
          "onset": 459.0,
          "duration": 1.0,
          "velocity": 120
        },
        {
          "pitch": 41,
          "onset": 460.0,
          "duration": 2.0,
          "velocity": 120
        },
        {
          "pitch": 43,
          "onset": 462.0,
          "duration": 1.0,
          "velocity": 120
        },
        {
          "pitch": 44,
          "onset": 463.0,
          "duration": 2.0,
          "velocity": 120
        },
        {
          "pitch": 41,
          "onset": 465.0,
          "duration": 1.0,
          "velocity": 120
        },
        {
          "pitch": 43,
          "onset": 466.0,
          "duration": 2.0,
          "velocity": 120
        },
        {
          "pitch": 38,
          "onset": 468.0,
          "duration": 1.0,
          "velocity": 120
        },
        {
          "pitch": 39,
          "onset": 469.0,
          "duration": 2.0,
          "velocity": 120
        },
        {
          "pitch": 35,
          "onset": 471.0,
          "duration": 1.0,
          "velocity": 120
        },
        {
          "pitch": 36,
          "onset": 472.0,
          "duration": 2.0,
          "velocity": 120
        },
        {
          "pitch": 29,
          "onset": 474.0,
          "duration": 1.0,
          "velocity": 120
        },
        {
          "pitch": 31,
          "onset": 475.0,
          "duration": 3.0,
          "velocity": 120
        },
        {
          "pitch": 24,
          "onset": 478.0,
          "duration": 2.0,
          "velocity": 120
        },
        {
          "pitch": 36,
          "onset": 480.0,
          "duration": 1.0,
          "velocity": 120
        },
        {
          "pitch": 43,
          "onset": 481.0,
          "duration": 2.0,
          "velocity": 120
        },
        {
          "pitch": 39,
          "onset": 483.0,
          "duration": 1.0,
          "velocity": 120
        },
        {
          "pitch": 41,
          "onset": 484.0,
          "duration": 2.0,
          "velocity": 120
        },
        {
          "pitch": 43,
          "onset": 486.0,
          "duration": 1.0,
          "velocity": 120
        },
        {
          "pitch": 44,
          "onset": 487.0,
          "duration": 2.0,
          "velocity": 120
        },
        {
          "pitch": 41,
          "onset": 489.0,
          "duration": 1.0,
          "velocity": 120
        },
        {
          "pitch": 43,
          "onset": 490.0,
          "duration": 2.0,
          "velocity": 120
        },
        {
          "pitch": 38,
          "onset": 492.0,
          "duration": 1.0,
          "velocity": 120
        },
        {
          "pitch": 39,
          "onset": 493.0,
          "duration": 2.0,
          "velocity": 120
        },
        {
          "pitch": 35,
          "onset": 495.0,
          "duration": 1.0,
          "velocity": 120
        },
        {
          "pitch": 36,
          "onset": 496.0,
          "duration": 2.0,
          "velocity": 120
        },
        {
          "pitch": 29,
          "onset": 498.0,
          "duration": 1.0,
          "velocity": 120
        },
        {
          "pitch": 31,
          "onset": 499.0,
          "duration": 3.0,
          "velocity": 120
        },
        {
          "pitch": 24,
          "onset": 502.0,
          "duration": 3.0,
          "velocity": 120
        },
        {
          "pitch": 36,
          "onset": 540.0,
          "duration": 1.0,
          "velocity": 120
        },
        {
          "pitch": 43,
          "onset": 541.0,
          "duration": 2.0,
          "velocity": 120
        },
        {
          "pitch": 39,
          "onset": 543.0,
          "duration": 1.0,
          "velocity": 120
        },
        {
          "pitch": 41,
          "onset": 544.0,
          "duration": 2.0,
          "velocity": 120
        },
        {
          "pitch": 43,
          "onset": 546.0,
          "duration": 1.0,
          "velocity": 120
        },
        {
          "pitch": 44,
          "onset": 547.0,
          "duration": 2.0,
          "velocity": 120
        },
        {
          "pitch": 41,
          "onset": 549.0,
          "duration": 1.0,
          "velocity": 120
        },
        {
          "pitch": 43,
          "onset": 550.0,
          "duration": 1.5,
          "velocity": 120
        },
        {
          "pitch": 38,
          "onset": 551.5,
          "duration": 0.5,
          "velocity": 120
        },
        {
          "pitch": 39,
          "onset": 552.0,
          "duration": 0.5,
          "velocity": 120
        },
        {
          "pitch": 35,
          "onset": 552.5,
          "duration": 0.5,
          "velocity": 120
        },
        {
          "pitch": 36,
          "onset": 553.0,
          "duration": 1.5,
          "velocity": 120
        },
        {
          "pitch": 38,
          "onset": 554.5,
          "duration": 0.5,
          "velocity": 120
        },
        {
          "pitch": 39,
          "onset": 555.0,
          "duration": 0.5,
          "velocity": 120
        },
        {
          "pitch": 36,
          "onset": 555.5,
          "duration": 0.5,
          "velocity": 120
        },
        {
          "pitch": 38,
          "onset": 556.0,
          "duration": 0.5,
          "velocity": 120
        },
        {
          "pitch": 34,
          "onset": 556.5,
          "duration": 0.5,
          "velocity": 120
        },
        {
          "pitch": 30,
          "onset": 557.0,
          "duration": 0.5,
          "velocity": 120
        },
        {
          "pitch": 30,
          "onset": 557.5,
          "duration": 0.5,
          "velocity": 120
        },
        {
          "pitch": 31,
          "onset": 558.0,
          "duration": 0.5,
          "velocity": 120
        },
        {
          "pitch": 31,
          "onset": 558.5,
          "duration": 0.5,
          "velocity": 120
        },
        {
          "pitch": 39,
          "onset": 559.5,
          "duration": 0.5,
          "velocity": 120
        },
        {
          "pitch": 33,
          "onset": 560.0,
          "duration": 0.5,
          "velocity": 120
        },
        {
          "pitch": 33,
          "onset": 560.5,
          "duration": 0.5,
          "velocity": 120
        },
        {
          "pitch": 35,
          "onset": 561.0,
          "duration": 0.5,
          "velocity": 120
        },
        {
          "pitch": 35,
          "onset": 561.5,
          "duration": 0.5,
          "velocity": 120
        },
        {
          "pitch": 36,
          "onset": 562.5,
          "duration": 0.5,
          "velocity": 120
        },
        {
          "pitch": 31,
          "onset": 563.0,
          "duration": 0.5,
          "velocity": 120
        },
        {
          "pitch": 31,
          "onset": 563.5,
          "duration": 0.5,
          "velocity": 120
        },
        {
          "pitch": 33,
          "onset": 564.0,
          "duration": 0.5,
          "velocity": 120
        },
        {
          "pitch": 33,
          "onset": 564.5,
          "duration": 0.5,
          "velocity": 120
        },
        {
          "pitch": 34,
          "onset": 565.5,
          "duration": 0.5,
          "velocity": 120
        },
        {
          "pitch": 30,
          "onset": 566.0,
          "duration": 0.5,
          "velocity": 120
        },
        {
          "pitch": 30,
          "onset": 566.5,
          "duration": 0.5,
          "velocity": 120
        },
        {
          "pitch": 31,
          "onset": 567.0,
          "duration": 0.5,
          "velocity": 120
        },
        {
          "pitch": 33,
          "onset": 567.5,
          "duration": 0.5,
          "velocity": 120
        },
        {
          "pitch": 34,
          "onset": 568.0,
          "duration": 0.5,
          "velocity": 120
        },
        {
          "pitch": 36,
          "onset": 568.5,
          "duration": 0.5,
          "velocity": 120
        },
        {
          "pitch": 33,
          "onset": 569.0,
          "duration": 0.5,
          "velocity": 120
        },
        {
          "pitch": 31,
          "onset": 569.5,
          "duration": 0.5,
          "velocity": 120
        },
        {
          "pitch": 38,
          "onset": 570.0,
          "duration": 0.5,
          "velocity": 120
        },
        {
          "pitch": 26,
          "onset": 570.5,
          "duration": 0.5,
          "velocity": 120
        },
        {
          "pitch": 31,
          "onset": 571.0,
          "duration": 2.0,
          "velocity": 120
        },
        {
          "pitch": 43,
          "onset": 575.25,
          "duration": 0.25,
          "velocity": 120
        },
        {
          "pitch": 41,
          "onset": 575.5,
          "duration": 0.25,
          "velocity": 120
        },
        {
          "pitch": 43,
          "onset": 575.75,
          "duration": 0.25,
          "velocity": 120
        },
        {
          "pitch": 36,
          "onset": 576.0,
          "duration": 0.25,
          "velocity": 120
        },
        {
          "pitch": 48,
          "onset": 576.25,
          "duration": 0.25,
          "velocity": 120
        },
        {
          "pitch": 46,
          "onset": 576.5,
          "duration": 0.25,
          "velocity": 120
        },
        {
          "pitch": 48,
          "onset": 576.75,
          "duration": 0.25,
          "velocity": 120
        },
        {
          "pitch": 44,
          "onset": 577.0,
          "duration": 0.25,
          "velocity": 120
        },
        {
          "pitch": 48,
          "onset": 577.25,
          "duration": 0.25,
          "velocity": 120
        },
        {
          "pitch": 44,
          "onset": 577.5,
          "duration": 0.25,
          "velocity": 120
        },
        {
          "pitch": 48,
          "onset": 577.75,
          "duration": 0.25,
          "velocity": 120
        },
        {
          "pitch": 44,
          "onset": 578.0,
          "duration": 0.25,
          "velocity": 120
        },
        {
          "pitch": 46,
          "onset": 578.25,
          "duration": 0.25,
          "velocity": 120
        },
        {
          "pitch": 44,
          "onset": 578.5,
          "duration": 0.25,
          "velocity": 120
        },
        {
          "pitch": 46,
          "onset": 578.75,
          "duration": 0.25,
          "velocity": 120
        },
        {
          "pitch": 43,
          "onset": 579.0,
          "duration": 0.25,
          "velocity": 120
        },
        {
          "pitch": 46,
          "onset": 579.25,
          "duration": 0.25,
          "velocity": 120
        },
        {
          "pitch": 43,
          "onset": 579.5,
          "duration": 0.25,
          "velocity": 120
        },
        {
          "pitch": 46,
          "onset": 579.75,
          "duration": 0.25,
          "velocity": 120
        },
        {
          "pitch": 41,
          "onset": 580.0,
          "duration": 0.25,
          "velocity": 120
        },
        {
          "pitch": 44,
          "onset": 580.25,
          "duration": 0.25,
          "velocity": 120
        },
        {
          "pitch": 43,
          "onset": 580.5,
          "duration": 0.25,
          "velocity": 120
        },
        {
          "pitch": 46,
          "onset": 580.75,
          "duration": 0.25,
          "velocity": 120
        },
        {
          "pitch": 44,
          "onset": 581.0,
          "duration": 0.25,
          "velocity": 120
        },
        {
          "pitch": 46,
          "onset": 581.25,
          "duration": 0.25,
          "velocity": 120
        },
        {
          "pitch": 44,
          "onset": 581.5,
          "duration": 0.25,
          "velocity": 120
        },
        {
          "pitch": 46,
          "onset": 581.75,
          "duration": 0.25,
          "velocity": 120
        },
        {
          "pitch": 44,
          "onset": 582.0,
          "duration": 0.25,
          "velocity": 120
        },
        {
          "pitch": 46,
          "onset": 582.25,
          "duration": 0.25,
          "velocity": 120
        },
        {
          "pitch": 44,
          "onset": 582.5,
          "duration": 0.25,
          "velocity": 120
        },
        {
          "pitch": 46,
          "onset": 582.75,
          "duration": 0.25,
          "velocity": 120
        },
        {
          "pitch": 43,
          "onset": 583.0,
          "duration": 0.25,
          "velocity": 120
        },
        {
          "pitch": 44,
          "onset": 583.25,
          "duration": 0.25,
          "velocity": 120
        },
        {
          "pitch": 43,
          "onset": 583.5,
          "duration": 0.25,
          "velocity": 120
        },
        {
          "pitch": 44,
          "onset": 583.75,
          "duration": 0.25,
          "velocity": 120
        },
        {
          "pitch": 43,
          "onset": 584.0,
          "duration": 0.25,
          "velocity": 120
        },
        {
          "pitch": 44,
          "onset": 584.25,
          "duration": 0.25,
          "velocity": 120
        },
        {
          "pitch": 43,
          "onset": 584.5,
          "duration": 0.25,
          "velocity": 120
        },
        {
          "pitch": 46,
          "onset": 584.75,
          "duration": 0.25,
          "velocity": 120
        },
        {
          "pitch": 44,
          "onset": 585.0,
          "duration": 0.25,
          "velocity": 120
        },
        {
          "pitch": 46,
          "onset": 585.25,
          "duration": 0.25,
          "velocity": 120
        },
        {
          "pitch": 44,
          "onset": 585.5,
          "duration": 0.25,
          "velocity": 120
        },
        {
          "pitch": 48,
          "onset": 585.75,
          "duration": 0.25,
          "velocity": 120
        },
        {
          "pitch": 46,
          "onset": 586.0,
          "duration": 1.0,
          "velocity": 120
        },
        {
          "pitch": 34,
          "onset": 587.0,
          "duration": 2.0,
          "velocity": 120
        },
        {
          "pitch": 27,
          "onset": 589.0,
          "duration": 1.0,
          "velocity": 120
        },
        {
          "pitch": 31,
          "onset": 660.0,
          "duration": 1.0,
          "velocity": 120
        },
        {
          "pitch": 38,
          "onset": 661.0,
          "duration": 2.0,
          "velocity": 120
        },
        {
          "pitch": 34,
          "onset": 663.0,
          "duration": 1.0,
          "velocity": 120
        },
        {
          "pitch": 36,
          "onset": 664.0,
          "duration": 2.0,
          "velocity": 120
        },
        {
          "pitch": 38,
          "onset": 666.0,
          "duration": 1.0,
          "velocity": 120
        },
        {
          "pitch": 39,
          "onset": 667.0,
          "duration": 2.0,
          "velocity": 120
        },
        {
          "pitch": 36,
          "onset": 669.0,
          "duration": 1.0,
          "velocity": 120
        },
        {
          "pitch": 38,
          "onset": 670.0,
          "duration": 1.5,
          "velocity": 120
        },
        {
          "pitch": 40,
          "onset": 671.5,
          "duration": 0.5,
          "velocity": 120
        },
        {
          "pitch": 42,
          "onset": 672.0,
          "duration": 0.5,
          "velocity": 120
        },
        {
          "pitch": 38,
          "onset": 672.5,
          "duration": 0.5,
          "velocity": 120
        },
        {
          "pitch": 43,
          "onset": 673.0,
          "duration": 0.5,
          "velocity": 120
        },
        {
          "pitch": 43,
          "onset": 673.5,
          "duration": 0.5,
          "velocity": 120
        },
        {
          "pitch": 38,
          "onset": 674.0,
          "duration": 0.5,
          "velocity": 120
        },
        {
          "pitch": 38,
          "onset": 674.5,
          "duration": 0.5,
          "velocity": 120
        },
        {
          "pitch": 39,
          "onset": 675.0,
          "duration": 0.5,
          "velocity": 120
        },
        {
          "pitch": 39,
          "onset": 675.5,
          "duration": 0.5,
          "velocity": 120
        },
        {
          "pitch": 41,
          "onset": 676.0,
          "duration": 0.5,
          "velocity": 120
        },
        {
          "pitch": 41,
          "onset": 676.5,
          "duration": 0.5,
          "velocity": 120
        },
        {
          "pitch": 36,
          "onset": 677.0,
          "duration": 0.5,
          "velocity": 120
        },
        {
          "pitch": 36,
          "onset": 677.5,
          "duration": 0.5,
          "velocity": 120
        },
        {
          "pitch": 38,
          "onset": 678.0,
          "duration": 0.5,
          "velocity": 120
        },
        {
          "pitch": 38,
          "onset": 678.5,
          "duration": 0.5,
          "velocity": 120
        },
        {
          "pitch": 39,
          "onset": 679.0,
          "duration": 0.5,
          "velocity": 120
        },
        {
          "pitch": 39,
          "onset": 679.5,
          "duration": 0.5,
          "velocity": 120
        },
        {
          "pitch": 34,
          "onset": 680.0,
          "duration": 0.5,
          "velocity": 120
        },
        {
          "pitch": 34,
          "onset": 680.5,
          "duration": 0.5,
          "velocity": 120
        },
        {
          "pitch": 36,
          "onset": 681.0,
          "duration": 0.5,
          "velocity": 120
        },
        {
          "pitch": 36,
          "onset": 681.5,
          "duration": 0.5,
          "velocity": 120
        },
        {
          "pitch": 38,
          "onset": 682.0,
          "duration": 1.5,
          "velocity": 120
        },
        {
          "pitch": 38,
          "onset": 683.5,
          "duration": 0.5,
          "velocity": 120
        },
        {
          "pitch": 39,
          "onset": 684.0,
          "duration": 0.5,
          "velocity": 120
        },
        {
          "pitch": 38,
          "onset": 684.5,
          "duration": 0.5,
          "velocity": 120
        },
        {
          "pitch": 36,
          "onset": 685.0,
          "duration": 1.0,
          "velocity": 120
        },
        {
          "pitch": 41,
          "onset": 686.0,
          "duration": 1.0,
          "velocity": 120
        },
        {
          "pitch": 33,
          "onset": 687.0,
          "duration": 1.0,
          "velocity": 120
        },
        {
          "pitch": 34,
          "onset": 688.0,
          "duration": 2.0,
          "velocity": 120
        },
        {
          "pitch": 35,
          "onset": 690.0,
          "duration": 1.0,
          "velocity": 120
        },
        {
          "pitch": 36,
          "onset": 691.0,
          "duration": 0.5,
          "velocity": 120
        },
        {
          "pitch": 32,
          "onset": 691.5,
          "duration": 0.5,
          "velocity": 120
        },
        {
          "pitch": 27,
          "onset": 692.0,
          "duration": 0.5,
          "velocity": 120
        },
        {
          "pitch": 27,
          "onset": 692.5,
          "duration": 0.5,
          "velocity": 120
        },
        {
          "pitch": 29,
          "onset": 693.0,
          "duration": 0.5,
          "velocity": 120
        },
        {
          "pitch": 29,
          "onset": 693.5,
          "duration": 0.5,
          "velocity": 120
        },
        {
          "pitch": 31,
          "onset": 694.0,
          "duration": 0.5,
          "velocity": 120
        },
        {
          "pitch": 33,
          "onset": 694.5,
          "duration": 0.5,
          "velocity": 120
        },
        {
          "pitch": 35,
          "onset": 695.0,
          "duration": 0.5,
          "velocity": 120
        },
        {
          "pitch": 31,
          "onset": 695.5,
          "duration": 0.5,
          "velocity": 120
        },
        {
          "pitch": 36,
          "onset": 696.0,
          "duration": 0.5,
          "velocity": 120
        },
        {
          "pitch": 34,
          "onset": 696.5,
          "duration": 0.5,
          "velocity": 120
        },
        {
          "pitch": 32,
          "onset": 697.0,
          "duration": 0.5,
          "velocity": 120
        },
        {
          "pitch": 36,
          "onset": 697.5,
          "duration": 0.5,
          "velocity": 120
        },
        {
          "pitch": 29,
          "onset": 698.0,
          "duration": 0.5,
          "velocity": 120
        },
        {
          "pitch": 41,
          "onset": 698.5,
          "duration": 0.5,
          "velocity": 120
        },
        {
          "pitch": 32,
          "onset": 699.0,
          "duration": 0.5,
          "velocity": 120
        },
        {
          "pitch": 41,
          "onset": 699.5,
          "duration": 0.5,
          "velocity": 120
        },
        {
          "pitch": 31,
          "onset": 700.0,
          "duration": 0.5,
          "velocity": 120
        },
        {
          "pitch": 39,
          "onset": 700.5,
          "duration": 0.5,
          "velocity": 120
        },
        {
          "pitch": 35,
          "onset": 701.0,
          "duration": 0.5,
          "velocity": 120
        },
        {
          "pitch": 35,
          "onset": 701.5,
          "duration": 0.5,
          "velocity": 120
        },
        {
          "pitch": 36,
          "onset": 702.0,
          "duration": 0.5,
          "velocity": 120
        },
        {
          "pitch": 36,
          "onset": 702.5,
          "duration": 0.5,
          "velocity": 120
        },
        {
          "pitch": 44,
          "onset": 703.5,
          "duration": 0.5,
          "velocity": 120
        },
        {
          "pitch": 38,
          "onset": 704.0,
          "duration": 0.5,
          "velocity": 120
        },
        {
          "pitch": 38,
          "onset": 704.5,
          "duration": 0.5,
          "velocity": 120
        },
        {
          "pitch": 40,
          "onset": 705.0,
          "duration": 0.5,
          "velocity": 120
        },
        {
          "pitch": 40,
          "onset": 705.5,
          "duration": 0.5,
          "velocity": 120
        },
        {
          "pitch": 41,
          "onset": 706.5,
          "duration": 0.5,
          "velocity": 120
        },
        {
          "pitch": 36,
          "onset": 707.0,
          "duration": 0.5,
          "velocity": 120
        },
        {
          "pitch": 36,
          "onset": 707.5,
          "duration": 0.5,
          "velocity": 120
        },
        {
          "pitch": 38,
          "onset": 708.0,
          "duration": 0.5,
          "velocity": 120
        },
        {
          "pitch": 38,
          "onset": 708.5,
          "duration": 0.5,
          "velocity": 120
        },
        {
          "pitch": 39,
          "onset": 709.0,
          "duration": 1.0,
          "velocity": 120
        },
        {
          "pitch": 44,
          "onset": 710.0,
          "duration": 1.0,
          "velocity": 120
        },
        {
          "pitch": 46,
          "onset": 711.0,
          "duration": 1.0,
          "velocity": 120
        },
        {
          "pitch": 39,
          "onset": 712.0,
          "duration": 1.0,
          "velocity": 120
        },
        {
          "pitch": 41,
          "onset": 713.0,
          "duration": 1.0,
          "velocity": 120
        },
        {
          "pitch": 43,
          "onset": 714.0,
          "duration": 1.0,
          "velocity": 120
        },
        {
          "pitch": 36,
          "onset": 715.0,
          "duration": 0.25,
          "velocity": 120
        },
        {
          "pitch": 39,
          "onset": 715.25,
          "duration": 0.25,
          "velocity": 120
        },
        {
          "pitch": 38,
          "onset": 715.5,
          "duration": 0.25,
          "velocity": 120
        },
        {
          "pitch": 41,
          "onset": 715.75,
          "duration": 0.25,
          "velocity": 120
        },
        {
          "pitch": 39,
          "onset": 716.0,
          "duration": 0.25,
          "velocity": 120
        },
        {
          "pitch": 43,
          "onset": 716.25,
          "duration": 0.25,
          "velocity": 120
        },
        {
          "pitch": 41,
          "onset": 716.5,
          "duration": 0.25,
          "velocity": 120
        },
        {
          "pitch": 45,
          "onset": 716.75,
          "duration": 0.25,
          "velocity": 120
        },
        {
          "pitch": 43,
          "onset": 717.0,
          "duration": 0.25,
          "velocity": 120
        },
        {
          "pitch": 46,
          "onset": 717.25,
          "duration": 0.25,
          "velocity": 120
        },
        {
          "pitch": 45,
          "onset": 717.5,
          "duration": 0.25,
          "velocity": 120
        },
        {
          "pitch": 48,
          "onset": 717.75,
          "duration": 0.25,
          "velocity": 120
        },
        {
          "pitch": 46,
          "onset": 718.0,
          "duration": 0.5,
          "velocity": 120
        },
        {
          "pitch": 39,
          "onset": 720.5,
          "duration": 0.5,
          "velocity": 120
        },
        {
          "pitch": 32,
          "onset": 721.0,
          "duration": 0.25,
          "velocity": 120
        },
        {
          "pitch": 36,
          "onset": 721.25,
          "duration": 0.25,
          "velocity": 120
        },
        {
          "pitch": 34,
          "onset": 721.5,
          "duration": 0.25,
          "velocity": 120
        },
        {
          "pitch": 38,
          "onset": 721.75,
          "duration": 0.25,
          "velocity": 120
        },
        {
          "pitch": 36,
          "onset": 722.0,
          "duration": 0.25,
          "velocity": 120
        },
        {
          "pitch": 39,
          "onset": 722.25,
          "duration": 0.25,
          "velocity": 120
        },
        {
          "pitch": 38,
          "onset": 722.5,
          "duration": 0.25,
          "velocity": 120
        },
        {
          "pitch": 41,
          "onset": 722.75,
          "duration": 0.25,
          "velocity": 120
        },
        {
          "pitch": 39,
          "onset": 723.0,
          "duration": 0.25,
          "velocity": 120
        },
        {
          "pitch": 43,
          "onset": 723.25,
          "duration": 0.25,
          "velocity": 120
        },
        {
          "pitch": 41,
          "onset": 723.5,
          "duration": 0.25,
          "velocity": 120
        },
        {
          "pitch": 44,
          "onset": 723.75,
          "duration": 0.25,
          "velocity": 120
        },
        {
          "pitch": 43,
          "onset": 724.0,
          "duration": 0.5,
          "velocity": 120
        },
        {
          "pitch": 36,
          "onset": 726.5,
          "duration": 0.5,
          "velocity": 120
        },
        {
          "pitch": 29,
          "onset": 727.0,
          "duration": 0.25,
          "velocity": 120
        },
        {
          "pitch": 32,
          "onset": 727.25,
          "duration": 0.25,
          "velocity": 120
        },
        {
          "pitch": 31,
          "onset": 727.5,
          "duration": 0.25,
          "velocity": 120
        },
        {
          "pitch": 34,
          "onset": 727.75,
          "duration": 0.25,
          "velocity": 120
        },
        {
          "pitch": 32,
          "onset": 728.0,
          "duration": 0.25,
          "velocity": 120
        },
        {
          "pitch": 36,
          "onset": 728.25,
          "duration": 0.25,
          "velocity": 120
        },
        {
          "pitch": 34,
          "onset": 728.5,
          "duration": 0.25,
          "velocity": 120
        },
        {
          "pitch": 38,
          "onset": 728.75,
          "duration": 0.25,
          "velocity": 120
        },
        {
          "pitch": 36,
          "onset": 729.0,
          "duration": 0.25,
          "velocity": 120
        },
        {
          "pitch": 39,
          "onset": 729.25,
          "duration": 0.25,
          "velocity": 120
        },
        {
          "pitch": 38,
          "onset": 729.5,
          "duration": 0.25,
          "velocity": 120
        },
        {
          "pitch": 41,
          "onset": 729.75,
          "duration": 0.25,
          "velocity": 120
        },
        {
          "pitch": 39,
          "onset": 730.0,
          "duration": 1.25,
          "velocity": 120
        },
        {
          "pitch": 41,
          "onset": 731.25,
          "duration": 0.25,
          "velocity": 120
        },
        {
          "pitch": 38,
          "onset": 731.5,
          "duration": 0.25,
          "velocity": 120
        },
        {
          "pitch": 39,
          "onset": 731.75,
          "duration": 0.25,
          "velocity": 120
        },
        {
          "pitch": 36,
          "onset": 732.0,
          "duration": 1.0,
          "velocity": 120
        },
        {
          "pitch": 38,
          "onset": 733.0,
          "duration": 1.25,
          "velocity": 120
        },
        {
          "pitch": 39,
          "onset": 734.25,
          "duration": 0.25,
          "velocity": 120
        },
        {
          "pitch": 36,
          "onset": 734.5,
          "duration": 0.25,
          "velocity": 120
        },
        {
          "pitch": 38,
          "onset": 734.75,
          "duration": 0.25,
          "velocity": 120
        },
        {
          "pitch": 34,
          "onset": 735.0,
          "duration": 1.0,
          "velocity": 120
        },
        {
          "pitch": 30,
          "onset": 736.0,
          "duration": 0.5,
          "velocity": 120
        },
        {
          "pitch": 31,
          "onset": 736.5,
          "duration": 0.5,
          "velocity": 120
        },
        {
          "pitch": 26,
          "onset": 737.0,
          "duration": 0.25,
          "velocity": 120
        },
        {
          "pitch": 38,
          "onset": 737.25,
          "duration": 0.25,
          "velocity": 120
        },
        {
          "pitch": 36,
          "onset": 737.5,
          "duration": 0.25,
          "velocity": 120
        },
        {
          "pitch": 38,
          "onset": 737.75,
          "duration": 0.25,
          "velocity": 120
        },
        {
          "pitch": 31,
          "onset": 738.0,
          "duration": 0.25,
          "velocity": 120
        },
        {
          "pitch": 43,
          "onset": 738.25,
          "duration": 0.25,
          "velocity": 120
        },
        {
          "pitch": 41,
          "onset": 738.5,
          "duration": 0.25,
          "velocity": 120
        },
        {
          "pitch": 43,
          "onset": 738.75,
          "duration": 0.25,
          "velocity": 120
        },
        {
          "pitch": 39,
          "onset": 739.0,
          "duration": 0.25,
          "velocity": 120
        },
        {
          "pitch": 43,
          "onset": 739.25,
          "duration": 0.25,
          "velocity": 120
        },
        {
          "pitch": 39,
          "onset": 739.5,
          "duration": 0.25,
          "velocity": 120
        },
        {
          "pitch": 43,
          "onset": 739.75,
          "duration": 0.25,
          "velocity": 120
        },
        {
          "pitch": 39,
          "onset": 740.0,
          "duration": 0.25,
          "velocity": 120
        },
        {
          "pitch": 41,
          "onset": 740.25,
          "duration": 0.25,
          "velocity": 120
        },
        {
          "pitch": 39,
          "onset": 740.5,
          "duration": 0.25,
          "velocity": 120
        },
        {
          "pitch": 41,
          "onset": 740.75,
          "duration": 0.25,
          "velocity": 120
        },
        {
          "pitch": 38,
          "onset": 741.0,
          "duration": 0.25,
          "velocity": 120
        },
        {
          "pitch": 41,
          "onset": 741.25,
          "duration": 0.25,
          "velocity": 120
        },
        {
          "pitch": 38,
          "onset": 741.5,
          "duration": 0.25,
          "velocity": 120
        },
        {
          "pitch": 41,
          "onset": 741.75,
          "duration": 0.25,
          "velocity": 120
        },
        {
          "pitch": 36,
          "onset": 742.0,
          "duration": 0.25,
          "velocity": 120
        },
        {
          "pitch": 39,
          "onset": 742.25,
          "duration": 0.25,
          "velocity": 120
        },
        {
          "pitch": 38,
          "onset": 742.5,
          "duration": 0.25,
          "velocity": 120
        },
        {
          "pitch": 41,
          "onset": 742.75,
          "duration": 0.25,
          "velocity": 120
        },
        {
          "pitch": 39,
          "onset": 743.0,
          "duration": 0.25,
          "velocity": 120
        },
        {
          "pitch": 41,
          "onset": 743.25,
          "duration": 0.25,
          "velocity": 120
        },
        {
          "pitch": 39,
          "onset": 743.5,
          "duration": 0.25,
          "velocity": 120
        },
        {
          "pitch": 41,
          "onset": 743.75,
          "duration": 0.25,
          "velocity": 120
        },
        {
          "pitch": 39,
          "onset": 744.0,
          "duration": 0.25,
          "velocity": 120
        },
        {
          "pitch": 41,
          "onset": 744.25,
          "duration": 0.25,
          "velocity": 120
        },
        {
          "pitch": 39,
          "onset": 744.5,
          "duration": 0.25,
          "velocity": 120
        },
        {
          "pitch": 41,
          "onset": 744.75,
          "duration": 0.25,
          "velocity": 120
        },
        {
          "pitch": 38,
          "onset": 745.0,
          "duration": 0.5,
          "velocity": 120
        },
        {
          "pitch": 40,
          "onset": 745.5,
          "duration": 0.5,
          "velocity": 120
        },
        {
          "pitch": 42,
          "onset": 746.0,
          "duration": 0.5,
          "velocity": 120
        },
        {
          "pitch": 38,
          "onset": 746.5,
          "duration": 0.5,
          "velocity": 120
        },
        {
          "pitch": 43,
          "onset": 747.0,
          "duration": 0.5,
          "velocity": 120
        },
        {
          "pitch": 31,
          "onset": 747.5,
          "duration": 0.5,
          "velocity": 120
        },
        {
          "pitch": 36,
          "onset": 748.0,
          "duration": 0.5,
          "velocity": 120
        },
        {
          "pitch": 34,
          "onset": 748.5,
          "duration": 0.5,
          "velocity": 120
        },
        {
          "pitch": 33,
          "onset": 749.0,
          "duration": 0.5,
          "velocity": 120
        },
        {
          "pitch": 38,
          "onset": 749.5,
          "duration": 0.5,
          "velocity": 120
        },
        {
          "pitch": 34,
          "onset": 750.0,
          "duration": 0.5,
          "velocity": 120
        },
        {
          "pitch": 31,
          "onset": 750.5,
          "duration": 0.5,
          "velocity": 120
        },
        {
          "pitch": 36,
          "onset": 751.0,
          "duration": 0.5,
          "velocity": 120
        },
        {
          "pitch": 41,
          "onset": 751.5,
          "duration": 0.5,
          "velocity": 120
        },
        {
          "pitch": 34,
          "onset": 752.0,
          "duration": 0.5,
          "velocity": 120
        },
        {
          "pitch": 39,
          "onset": 752.5,
          "duration": 0.5,
          "velocity": 120
        },
        {
          "pitch": 33,
          "onset": 753.0,
          "duration": 0.5,
          "velocity": 120
        },
        {
          "pitch": 38,
          "onset": 753.5,
          "duration": 0.5,
          "velocity": 120
        },
        {
          "pitch": 31,
          "onset": 754.0,
          "duration": 0.5,
          "velocity": 120
        },
        {
          "pitch": 41,
          "onset": 754.5,
          "duration": 0.5,
          "velocity": 120
        },
        {
          "pitch": 39,
          "onset": 755.0,
          "duration": 0.5,
          "velocity": 120
        },
        {
          "pitch": 36,
          "onset": 755.5,
          "duration": 0.5,
          "velocity": 120
        },
        {
          "pitch": 38,
          "onset": 756.0,
          "duration": 0.5,
          "velocity": 120
        },
        {
          "pitch": 26,
          "onset": 756.5,
          "duration": 0.5,
          "velocity": 120
        },
        {
          "pitch": 31,
          "onset": 757.0,
          "duration": 1.0,
          "velocity": 120
        },
        {
          "pitch": 43,
          "onset": 759.5,
          "duration": 0.5,
          "velocity": 120
        },
        {
          "pitch": 36,
          "onset": 760.0,
          "duration": 1.5,
          "velocity": 120
        },
        {
          "pitch": 38,
          "onset": 761.5,
          "duration": 0.5,
          "velocity": 120
        },
        {
          "pitch": 40,
          "onset": 762.0,
          "duration": 0.5,
          "velocity": 120
        },
        {
          "pitch": 36,
          "onset": 762.5,
          "duration": 0.5,
          "velocity": 120
        },
        {
          "pitch": 41,
          "onset": 763.0,
          "duration": 2.0,
          "velocity": 120
        },
        {
          "pitch": 29,
          "onset": 765.0,
          "duration": 1.0,
          "velocity": 120
        },
        {
          "pitch": 36,
          "onset": 766.0,
          "duration": 2.0,
          "velocity": 120
        },
        {
          "pitch": 32,
          "onset": 768.0,
          "duration": 1.0,
          "velocity": 120
        },
        {
          "pitch": 34,
          "onset": 769.0,
          "duration": 2.0,
          "velocity": 120
        },
        {
          "pitch": 36,
          "onset": 771.0,
          "duration": 1.0,
          "velocity": 120
        },
        {
          "pitch": 37,
          "onset": 772.0,
          "duration": 2.0,
          "velocity": 120
        },
        {
          "pitch": 34,
          "onset": 774.0,
          "duration": 1.0,
          "velocity": 120
        },
        {
          "pitch": 36,
          "onset": 775.0,
          "duration": 1.25,
          "velocity": 120
        },
        {
          "pitch": 40,
          "onset": 776.25,
          "duration": 0.25,
          "velocity": 120
        },
        {
          "pitch": 38,
          "onset": 776.5,
          "duration": 0.25,
          "velocity": 120
        },
        {
          "pitch": 41,
          "onset": 776.75,
          "duration": 0.25,
          "velocity": 120
        },
        {
          "pitch": 40,
          "onset": 777.0,
          "duration": 0.25,
          "velocity": 120
        },
        {
          "pitch": 43,
          "onset": 777.25,
          "duration": 0.25,
          "velocity": 120
        },
        {
          "pitch": 40,
          "onset": 777.5,
          "duration": 0.25,
          "velocity": 120
        },
        {
          "pitch": 43,
          "onset": 777.75,
          "duration": 0.25,
          "velocity": 120
        },
        {
          "pitch": 32,
          "onset": 778.0,
          "duration": 1.25,
          "velocity": 120
        },
        {
          "pitch": 36,
          "onset": 779.25,
          "duration": 0.25,
          "velocity": 120
        },
        {
          "pitch": 34,
          "onset": 779.5,
          "duration": 0.25,
          "velocity": 120
        },
        {
          "pitch": 37,
          "onset": 779.75,
          "duration": 0.25,
          "velocity": 120
        },
        {
          "pitch": 36,
          "onset": 780.0,
          "duration": 0.25,
          "velocity": 120
        },
        {
          "pitch": 37,
          "onset": 780.25,
          "duration": 0.25,
          "velocity": 120
        },
        {
          "pitch": 36,
          "onset": 780.5,
          "duration": 0.25,
          "velocity": 120
        },
        {
          "pitch": 37,
          "onset": 780.75,
          "duration": 0.25,
          "velocity": 120
        },
        {
          "pitch": 26,
          "onset": 781.0,
          "duration": 1.0,
          "velocity": 120
        },
        {
          "pitch": 28,
          "onset": 782.0,
          "duration": 1.25,
          "velocity": 120
        },
        {
          "pitch": 40,
          "onset": 783.25,
          "duration": 0.25,
          "velocity": 120
        },
        {
          "pitch": 38,
          "onset": 783.5,
          "duration": 0.25,
          "velocity": 120
        },
        {
          "pitch": 40,
          "onset": 783.75,
          "duration": 0.25,
          "velocity": 120
        },
        {
          "pitch": 29,
          "onset": 784.0,
          "duration": 1.25,
          "velocity": 120
        },
        {
          "pitch": 41,
          "onset": 785.25,
          "duration": 0.25,
          "velocity": 120
        },
        {
          "pitch": 40,
          "onset": 785.5,
          "duration": 0.25,
          "velocity": 120
        },
        {
          "pitch": 41,
          "onset": 785.75,
          "duration": 0.25,
          "velocity": 120
        },
        {
          "pitch": 36,
          "onset": 786.0,
          "duration": 1.0,
          "velocity": 120
        },
        {
          "pitch": 38,
          "onset": 787.0,
          "duration": 2.0,
          "velocity": 120
        },
        {
          "pitch": 39,
          "onset": 789.25,
          "duration": 0.25,
          "velocity": 120
        },
        {
          "pitch": 38,
          "onset": 789.5,
          "duration": 0.25,
          "velocity": 120
        },
        {
          "pitch": 39,
          "onset": 789.75,
          "duration": 0.25,
          "velocity": 120
        },
        {
          "pitch": 36,
          "onset": 790.0,
          "duration": 1.0,
          "velocity": 120
        },
        {
          "pitch": 38,
          "onset": 791.0,
          "duration": 1.0,
          "velocity": 120
        },
        {
          "pitch": 39,
          "onset": 792.25,
          "duration": 0.25,
          "velocity": 120
        },
        {
          "pitch": 38,
          "onset": 792.5,
          "duration": 0.25,
          "velocity": 120
        },
        {
          "pitch": 39,
          "onset": 792.75,
          "duration": 0.25,
          "velocity": 120
        },
        {
          "pitch": 36,
          "onset": 793.0,
          "duration": 1.0,
          "velocity": 120
        },
        {
          "pitch": 38,
          "onset": 794.0,
          "duration": 1.0,
          "velocity": 120
        },
        {
          "pitch": 39,
          "onset": 795.25,
          "duration": 0.25,
          "velocity": 120
        },
        {
          "pitch": 38,
          "onset": 795.5,
          "duration": 0.25,
          "velocity": 120
        },
        {
          "pitch": 39,
          "onset": 795.75,
          "duration": 0.25,
          "velocity": 120
        },
        {
          "pitch": 36,
          "onset": 796.0,
          "duration": 1.0,
          "velocity": 120
        },
        {
          "pitch": 38,
          "onset": 797.0,
          "duration": 1.0,
          "velocity": 120
        },
        {
          "pitch": 26,
          "onset": 798.0,
          "duration": 1.0,
          "velocity": 120
        },
        {
          "pitch": 31,
          "onset": 799.0,
          "duration": 0.5,
          "velocity": 120
        },
        {
          "pitch": 33,
          "onset": 799.5,
          "duration": 0.5,
          "velocity": 120
        },
        {
          "pitch": 35,
          "onset": 800.0,
          "duration": 0.5,
          "velocity": 120
        },
        {
          "pitch": 36,
          "onset": 800.5,
          "duration": 0.5,
          "velocity": 120
        },
        {
          "pitch": 38,
          "onset": 801.0,
          "duration": 0.5,
          "velocity": 120
        },
        {
          "pitch": 35,
          "onset": 801.5,
          "duration": 0.5,
          "velocity": 120
        },
        {
          "pitch": 36,
          "onset": 802.0,
          "duration": 1.0,
          "velocity": 120
        },
        {
          "pitch": 36,
          "onset": 804.5,
          "duration": 0.5,
          "velocity": 120
        },
        {
          "pitch": 41,
          "onset": 805.0,
          "duration": 0.25,
          "velocity": 120
        },
        {
          "pitch": 44,
          "onset": 805.25,
          "duration": 0.25,
          "velocity": 120
        },
        {
          "pitch": 43,
          "onset": 805.5,
          "duration": 0.25,
          "velocity": 120
        },
        {
          "pitch": 46,
          "onset": 805.75,
          "duration": 0.25,
          "velocity": 120
        },
        {
          "pitch": 44,
          "onset": 806.0,
          "duration": 0.25,
          "velocity": 120
        },
        {
          "pitch": 48,
          "onset": 806.25,
          "duration": 0.25,
          "velocity": 120
        },
        {
          "pitch": 43,
          "onset": 806.5,
          "duration": 0.25,
          "velocity": 120
        },
        {
          "pitch": 46,
          "onset": 806.75,
          "duration": 0.25,
          "velocity": 120
        },
        {
          "pitch": 41,
          "onset": 807.0,
          "duration": 0.25,
          "velocity": 120
        },
        {
          "pitch": 44,
          "onset": 807.25,
          "duration": 0.25,
          "velocity": 120
        },
        {
          "pitch": 39,
          "onset": 807.5,
          "duration": 0.25,
          "velocity": 120
        },
        {
          "pitch": 43,
          "onset": 807.75,
          "duration": 0.25,
          "velocity": 120
        },
        {
          "pitch": 38,
          "onset": 808.0,
          "duration": 0.25,
          "velocity": 120
        },
        {
          "pitch": 41,
          "onset": 808.25,
          "duration": 0.25,
          "velocity": 120
        },
        {
          "pitch": 39,
          "onset": 808.5,
          "duration": 0.25,
          "velocity": 120
        },
        {
          "pitch": 43,
          "onset": 808.75,
          "duration": 0.25,
          "velocity": 120
        },
        {
          "pitch": 41,
          "onset": 809.0,
          "duration": 0.25,
          "velocity": 120
        },
        {
          "pitch": 44,
          "onset": 809.25,
          "duration": 0.25,
          "velocity": 120
        },
        {
          "pitch": 39,
          "onset": 809.5,
          "duration": 0.25,
          "velocity": 120
        },
        {
          "pitch": 43,
          "onset": 809.75,
          "duration": 0.25,
          "velocity": 120
        },
        {
          "pitch": 38,
          "onset": 810.0,
          "duration": 0.25,
          "velocity": 120
        },
        {
          "pitch": 41,
          "onset": 810.25,
          "duration": 0.25,
          "velocity": 120
        },
        {
          "pitch": 36,
          "onset": 810.5,
          "duration": 0.25,
          "velocity": 120
        },
        {
          "pitch": 39,
          "onset": 810.75,
          "duration": 0.25,
          "velocity": 120
        },
        {
          "pitch": 35,
          "onset": 811.0,
          "duration": 1.0,
          "velocity": 120
        },
        {
          "pitch": 36,
          "onset": 812.0,
          "duration": 1.0,
          "velocity": 120
        },
        {
          "pitch": 32,
          "onset": 813.0,
          "duration": 1.0,
          "velocity": 120
        },
        {
          "pitch": 31,
          "onset": 814.0,
          "duration": 1.0,
          "velocity": 120
        },
        {
          "pitch": 43,
          "onset": 815.25,
          "duration": 0.25,
          "velocity": 120
        },
        {
          "pitch": 41,
          "onset": 815.5,
          "duration": 0.25,
          "velocity": 120
        },
        {
          "pitch": 43,
          "onset": 815.75,
          "duration": 0.25,
          "velocity": 120
        },
        {
          "pitch": 36,
          "onset": 816.0,
          "duration": 0.25,
          "velocity": 120
        },
        {
          "pitch": 48,
          "onset": 816.25,
          "duration": 0.25,
          "velocity": 120
        },
        {
          "pitch": 46,
          "onset": 816.5,
          "duration": 0.25,
          "velocity": 120
        },
        {
          "pitch": 48,
          "onset": 816.75,
          "duration": 0.25,
          "velocity": 120
        },
        {
          "pitch": 44,
          "onset": 817.0,
          "duration": 0.25,
          "velocity": 120
        },
        {
          "pitch": 48,
          "onset": 817.25,
          "duration": 0.25,
          "velocity": 120
        },
        {
          "pitch": 44,
          "onset": 817.5,
          "duration": 0.25,
          "velocity": 120
        },
        {
          "pitch": 48,
          "onset": 817.75,
          "duration": 0.25,
          "velocity": 120
        },
        {
          "pitch": 44,
          "onset": 818.0,
          "duration": 0.25,
          "velocity": 120
        },
        {
          "pitch": 46,
          "onset": 818.25,
          "duration": 0.25,
          "velocity": 120
        },
        {
          "pitch": 44,
          "onset": 818.5,
          "duration": 0.25,
          "velocity": 120
        },
        {
          "pitch": 46,
          "onset": 818.75,
          "duration": 0.25,
          "velocity": 120
        },
        {
          "pitch": 43,
          "onset": 819.0,
          "duration": 0.25,
          "velocity": 120
        },
        {
          "pitch": 46,
          "onset": 819.25,
          "duration": 0.25,
          "velocity": 120
        },
        {
          "pitch": 43,
          "onset": 819.5,
          "duration": 0.25,
          "velocity": 120
        },
        {
          "pitch": 46,
          "onset": 819.75,
          "duration": 0.25,
          "velocity": 120
        },
        {
          "pitch": 41,
          "onset": 820.0,
          "duration": 0.25,
          "velocity": 120
        },
        {
          "pitch": 44,
          "onset": 820.25,
          "duration": 0.25,
          "velocity": 120
        },
        {
          "pitch": 43,
          "onset": 820.5,
          "duration": 0.25,
          "velocity": 120
        },
        {
          "pitch": 46,
          "onset": 820.75,
          "duration": 0.25,
          "velocity": 120
        },
        {
          "pitch": 44,
          "onset": 821.0,
          "duration": 0.25,
          "velocity": 120
        },
        {
          "pitch": 46,
          "onset": 821.25,
          "duration": 0.25,
          "velocity": 120
        },
        {
          "pitch": 44,
          "onset": 821.5,
          "duration": 0.25,
          "velocity": 120
        },
        {
          "pitch": 46,
          "onset": 821.75,
          "duration": 0.25,
          "velocity": 120
        },
        {
          "pitch": 44,
          "onset": 822.0,
          "duration": 0.25,
          "velocity": 120
        },
        {
          "pitch": 46,
          "onset": 822.25,
          "duration": 0.25,
          "velocity": 120
        },
        {
          "pitch": 44,
          "onset": 822.5,
          "duration": 0.25,
          "velocity": 120
        },
        {
          "pitch": 46,
          "onset": 822.75,
          "duration": 0.25,
          "velocity": 120
        },
        {
          "pitch": 43,
          "onset": 823.0,
          "duration": 3.25,
          "velocity": 120
        },
        {
          "pitch": 47,
          "onset": 826.25,
          "duration": 0.25,
          "velocity": 120
        },
        {
          "pitch": 43,
          "onset": 826.5,
          "duration": 0.25,
          "velocity": 120
        },
        {
          "pitch": 47,
          "onset": 826.75,
          "duration": 0.25,
          "velocity": 120
        },
        {
          "pitch": 39,
          "onset": 827.0,
          "duration": 0.25,
          "velocity": 120
        },
        {
          "pitch": 43,
          "onset": 827.25,
          "duration": 0.25,
          "velocity": 120
        },
        {
          "pitch": 39,
          "onset": 827.5,
          "duration": 0.25,
          "velocity": 120
        },
        {
          "pitch": 43,
          "onset": 827.75,
          "duration": 0.25,
          "velocity": 120
        },
        {
          "pitch": 36,
          "onset": 828.0,
          "duration": 0.25,
          "velocity": 120
        },
        {
          "pitch": 39,
          "onset": 828.25,
          "duration": 0.25,
          "velocity": 120
        },
        {
          "pitch": 36,
          "onset": 828.5,
          "duration": 0.25,
          "velocity": 120
        },
        {
          "pitch": 39,
          "onset": 828.75,
          "duration": 0.25,
          "velocity": 120
        },
        {
          "pitch": 41,
          "onset": 829.0,
          "duration": 0.25,
          "velocity": 120
        },
        {
          "pitch": 44,
          "onset": 829.25,
          "duration": 0.25,
          "velocity": 120
        },
        {
          "pitch": 41,
          "onset": 829.5,
          "duration": 0.25,
          "velocity": 120
        },
        {
          "pitch": 44,
          "onset": 829.75,
          "duration": 0.25,
          "velocity": 120
        },
        {
          "pitch": 38,
          "onset": 830.0,
          "duration": 0.25,
          "velocity": 120
        },
        {
          "pitch": 41,
          "onset": 830.25,
          "duration": 0.25,
          "velocity": 120
        },
        {
          "pitch": 38,
          "onset": 830.5,
          "duration": 0.25,
          "velocity": 120
        },
        {
          "pitch": 41,
          "onset": 830.75,
          "duration": 0.25,
          "velocity": 120
        },
        {
          "pitch": 35,
          "onset": 831.0,
          "duration": 0.25,
          "velocity": 120
        },
        {
          "pitch": 38,
          "onset": 831.25,
          "duration": 0.25,
          "velocity": 120
        },
        {
          "pitch": 35,
          "onset": 831.5,
          "duration": 0.25,
          "velocity": 120
        },
        {
          "pitch": 38,
          "onset": 831.75,
          "duration": 0.25,
          "velocity": 120
        },
        {
          "pitch": 39,
          "onset": 832.0,
          "duration": 0.25,
          "velocity": 120
        },
        {
          "pitch": 43,
          "onset": 832.25,
          "duration": 0.25,
          "velocity": 120
        },
        {
          "pitch": 39,
          "onset": 832.5,
          "duration": 0.25,
          "velocity": 120
        },
        {
          "pitch": 43,
          "onset": 832.75,
          "duration": 0.25,
          "velocity": 120
        },
        {
          "pitch": 36,
          "onset": 833.0,
          "duration": 0.25,
          "velocity": 120
        },
        {
          "pitch": 39,
          "onset": 833.25,
          "duration": 0.25,
          "velocity": 120
        },
        {
          "pitch": 36,
          "onset": 833.5,
          "duration": 0.25,
          "velocity": 120
        },
        {
          "pitch": 39,
          "onset": 833.75,
          "duration": 0.25,
          "velocity": 120
        },
        {
          "pitch": 33,
          "onset": 834.0,
          "duration": 0.25,
          "velocity": 120
        },
        {
          "pitch": 36,
          "onset": 834.25,
          "duration": 0.25,
          "velocity": 120
        },
        {
          "pitch": 33,
          "onset": 834.5,
          "duration": 0.25,
          "velocity": 120
        },
        {
          "pitch": 36,
          "onset": 834.75,
          "duration": 0.25,
          "velocity": 120
        },
        {
          "pitch": 38,
          "onset": 835.0,
          "duration": 0.25,
          "velocity": 120
        },
        {
          "pitch": 41,
          "onset": 835.25,
          "duration": 0.25,
          "velocity": 120
        },
        {
          "pitch": 38,
          "onset": 835.5,
          "duration": 0.25,
          "velocity": 120
        },
        {
          "pitch": 41,
          "onset": 835.75,
          "duration": 0.25,
          "velocity": 120
        },
        {
          "pitch": 35,
          "onset": 836.0,
          "duration": 0.25,
          "velocity": 120
        },
        {
          "pitch": 38,
          "onset": 836.25,
          "duration": 0.25,
          "velocity": 120
        },
        {
          "pitch": 35,
          "onset": 836.5,
          "duration": 0.25,
          "velocity": 120
        },
        {
          "pitch": 38,
          "onset": 836.75,
          "duration": 0.25,
          "velocity": 120
        },
        {
          "pitch": 31,
          "onset": 837.0,
          "duration": 0.25,
          "velocity": 120
        },
        {
          "pitch": 35,
          "onset": 837.25,
          "duration": 0.25,
          "velocity": 120
        },
        {
          "pitch": 31,
          "onset": 837.5,
          "duration": 0.25,
          "velocity": 120
        },
        {
          "pitch": 35,
          "onset": 837.75,
          "duration": 0.25,
          "velocity": 120
        },
        {
          "pitch": 36,
          "onset": 838.0,
          "duration": 0.25,
          "velocity": 120
        },
        {
          "pitch": 39,
          "onset": 838.25,
          "duration": 0.25,
          "velocity": 120
        },
        {
          "pitch": 36,
          "onset": 838.5,
          "duration": 0.25,
          "velocity": 120
        },
        {
          "pitch": 39,
          "onset": 838.75,
          "duration": 0.25,
          "velocity": 120
        },
        {
          "pitch": 32,
          "onset": 839.0,
          "duration": 0.25,
          "velocity": 120
        },
        {
          "pitch": 36,
          "onset": 839.25,
          "duration": 0.25,
          "velocity": 120
        },
        {
          "pitch": 32,
          "onset": 839.5,
          "duration": 0.25,
          "velocity": 120
        },
        {
          "pitch": 36,
          "onset": 839.75,
          "duration": 0.25,
          "velocity": 120
        },
        {
          "pitch": 29,
          "onset": 840.0,
          "duration": 0.25,
          "velocity": 120
        },
        {
          "pitch": 32,
          "onset": 840.25,
          "duration": 0.25,
          "velocity": 120
        },
        {
          "pitch": 29,
          "onset": 840.5,
          "duration": 0.25,
          "velocity": 120
        },
        {
          "pitch": 32,
          "onset": 840.75,
          "duration": 0.25,
          "velocity": 120
        },
        {
          "pitch": 31,
          "onset": 841.0,
          "duration": 1.0,
          "velocity": 120
        },
        {
          "pitch": 31,
          "onset": 842.25,
          "duration": 0.25,
          "velocity": 120
        },
        {
          "pitch": 35,
          "onset": 842.5,
          "duration": 0.25,
          "velocity": 120
        },
        {
          "pitch": 31,
          "onset": 842.75,
          "duration": 0.25,
          "velocity": 120
        },
        {
          "pitch": 36,
          "onset": 843.0,
          "duration": 0.25,
          "velocity": 120
        },
        {
          "pitch": 31,
          "onset": 843.25,
          "duration": 0.25,
          "velocity": 120
        },
        {
          "pitch": 39,
          "onset": 843.5,
          "duration": 0.25,
          "velocity": 120
        },
        {
          "pitch": 36,
          "onset": 843.75,
          "duration": 0.25,
          "velocity": 120
        },
        {
          "pitch": 43,
          "onset": 844.0,
          "duration": 1.0,
          "velocity": 120
        },
        {
          "pitch": 43,
          "onset": 845.25,
          "duration": 0.25,
          "velocity": 120
        },
        {
          "pitch": 41,
          "onset": 845.5,
          "duration": 0.25,
          "velocity": 120
        },
        {
          "pitch": 43,
          "onset": 845.75,
          "duration": 0.25,
          "velocity": 120
        },
        {
          "pitch": 39,
          "onset": 846.0,
          "duration": 0.25,
          "velocity": 120
        },
        {
          "pitch": 43,
          "onset": 846.25,
          "duration": 0.25,
          "velocity": 120
        },
        {
          "pitch": 36,
          "onset": 846.5,
          "duration": 0.25,
          "velocity": 120
        },
        {
          "pitch": 39,
          "onset": 846.75,
          "duration": 0.25,
          "velocity": 120
        },
        {
          "pitch": 35,
          "onset": 847.0,
          "duration": 1.0,
          "velocity": 120
        },
        {
          "pitch": 43,
          "onset": 848.25,
          "duration": 0.25,
          "velocity": 120
        },
        {
          "pitch": 41,
          "onset": 848.5,
          "duration": 0.25,
          "velocity": 120
        },
        {
          "pitch": 43,
          "onset": 848.75,
          "duration": 0.25,
          "velocity": 120
        },
        {
          "pitch": 39,
          "onset": 849.0,
          "duration": 0.25,
          "velocity": 120
        },
        {
          "pitch": 43,
          "onset": 849.25,
          "duration": 0.25,
          "velocity": 120
        },
        {
          "pitch": 36,
          "onset": 849.5,
          "duration": 0.25,
          "velocity": 120
        },
        {
          "pitch": 39,
          "onset": 849.75,
          "duration": 0.25,
          "velocity": 120
        },
        {
          "pitch": 31,
          "onset": 850.0,
          "duration": 1.0,
          "velocity": 120
        },
        {
          "pitch": 43,
          "onset": 851.25,
          "duration": 0.25,
          "velocity": 120
        },
        {
          "pitch": 41,
          "onset": 851.5,
          "duration": 0.25,
          "velocity": 120
        },
        {
          "pitch": 43,
          "onset": 851.75,
          "duration": 0.25,
          "velocity": 120
        },
        {
          "pitch": 39,
          "onset": 852.0,
          "duration": 0.25,
          "velocity": 120
        },
        {
          "pitch": 43,
          "onset": 852.25,
          "duration": 0.25,
          "velocity": 120
        },
        {
          "pitch": 36,
          "onset": 852.5,
          "duration": 0.25,
          "velocity": 120
        },
        {
          "pitch": 39,
          "onset": 852.75,
          "duration": 0.25,
          "velocity": 120
        },
        {
          "pitch": 29,
          "onset": 853.0,
          "duration": 1.0,
          "velocity": 120
        },
        {
          "pitch": 41,
          "onset": 854.5,
          "duration": 0.5,
          "velocity": 120
        },
        {
          "pitch": 39,
          "onset": 855.0,
          "duration": 0.5,
          "velocity": 120
        },
        {
          "pitch": 36,
          "onset": 855.5,
          "duration": 0.5,
          "velocity": 120
        },
        {
          "pitch": 41,
          "onset": 856.0,
          "duration": 1.0,
          "velocity": 120
        },
        {
          "pitch": 43,
          "onset": 857.0,
          "duration": 1.0,
          "velocity": 120
        },
        {
          "pitch": 31,
          "onset": 858.0,
          "duration": 1.0,
          "velocity": 120
        },
        {
          "pitch": 24,
          "onset": 859.0,
          "duration": 1.0,
          "velocity": 120
        },
        {
          "pitch": 36,
          "onset": 860.25,
          "duration": 0.25,
          "velocity": 120
        },
        {
          "pitch": 40,
          "onset": 860.5,
          "duration": 0.25,
          "velocity": 120
        },
        {
          "pitch": 36,
          "onset": 860.75,
          "duration": 0.25,
          "velocity": 120
        },
        {
          "pitch": 41,
          "onset": 861.0,
          "duration": 0.25,
          "velocity": 120
        },
        {
          "pitch": 36,
          "onset": 861.25,
          "duration": 0.25,
          "velocity": 120
        },
        {
          "pitch": 44,
          "onset": 861.5,
          "duration": 0.25,
          "velocity": 120
        },
        {
          "pitch": 41,
          "onset": 861.75,
          "duration": 0.25,
          "velocity": 120
        },
        {
          "pitch": 48,
          "onset": 862.0,
          "duration": 1.0,
          "velocity": 120
        },
        {
          "pitch": 48,
          "onset": 863.25,
          "duration": 0.25,
          "velocity": 120
        },
        {
          "pitch": 46,
          "onset": 863.5,
          "duration": 0.25,
          "velocity": 120
        },
        {
          "pitch": 48,
          "onset": 863.75,
          "duration": 0.25,
          "velocity": 120
        },
        {
          "pitch": 44,
          "onset": 864.0,
          "duration": 0.25,
          "velocity": 120
        },
        {
          "pitch": 48,
          "onset": 864.25,
          "duration": 0.25,
          "velocity": 120
        },
        {
          "pitch": 41,
          "onset": 864.5,
          "duration": 0.25,
          "velocity": 120
        },
        {
          "pitch": 44,
          "onset": 864.75,
          "duration": 0.25,
          "velocity": 120
        },
        {
          "pitch": 40,
          "onset": 865.0,
          "duration": 1.0,
          "velocity": 120
        },
        {
          "pitch": 48,
          "onset": 866.25,
          "duration": 0.25,
          "velocity": 120
        },
        {
          "pitch": 46,
          "onset": 866.5,
          "duration": 0.25,
          "velocity": 120
        },
        {
          "pitch": 48,
          "onset": 866.75,
          "duration": 0.25,
          "velocity": 120
        },
        {
          "pitch": 44,
          "onset": 867.0,
          "duration": 0.25,
          "velocity": 120
        },
        {
          "pitch": 48,
          "onset": 867.25,
          "duration": 0.25,
          "velocity": 120
        },
        {
          "pitch": 41,
          "onset": 867.5,
          "duration": 0.25,
          "velocity": 120
        },
        {
          "pitch": 44,
          "onset": 867.75,
          "duration": 0.25,
          "velocity": 120
        },
        {
          "pitch": 36,
          "onset": 868.0,
          "duration": 1.0,
          "velocity": 120
        },
        {
          "pitch": 36,
          "onset": 869.25,
          "duration": 0.25,
          "velocity": 125
        },
        {
          "pitch": 34,
          "onset": 869.5,
          "duration": 0.25,
          "velocity": 125
        },
        {
          "pitch": 36,
          "onset": 869.75,
          "duration": 0.25,
          "velocity": 125
        },
        {
          "pitch": 32,
          "onset": 870.0,
          "duration": 0.25,
          "velocity": 125
        },
        {
          "pitch": 36,
          "onset": 870.25,
          "duration": 0.25,
          "velocity": 125
        },
        {
          "pitch": 29,
          "onset": 870.5,
          "duration": 0.25,
          "velocity": 125
        },
        {
          "pitch": 32,
          "onset": 870.75,
          "duration": 0.25,
          "velocity": 125
        },
        {
          "pitch": 24,
          "onset": 871.0,
          "duration": 4.75,
          "velocity": 125
        },
        {
          "pitch": 41,
          "onset": 873.0,
          "duration": 1.25,
          "velocity": 125
        },
        {
          "pitch": 43,
          "onset": 874.25,
          "duration": 1.5,
          "velocity": 125
        }
      ]
    }
  ]
}