{
  "bwv": 539,
  "category": "organ_pf",
  "instrument": "organ",
  "form": "prelude",
  "movement": null,
  "tonic": "D",
  "mode": "minor",
  "confidence": "verified",
  "ticks_per_beat": 384,
  "duration_seconds": 124.4,
  "tempos": [
    {
      "tick": 0,
      "bpm": 90
    },
    {
      "tick": 33024,
      "bpm": 85
    },
    {
      "tick": 33408,
      "bpm": 85
    },
    {
      "tick": 34176,
      "bpm": 80
    },
    {
      "tick": 34560,
      "bpm": 75
    },
    {
      "tick": 34944,
      "bpm": 70
    },
    {
      "tick": 35136,
      "bpm": 60
    },
    {
      "tick": 35328,
      "bpm": 80
    },
    {
      "tick": 35712,
      "bpm": 90
    },
    {
      "tick": 62208,
      "bpm": 85
    },
    {
      "tick": 62592,
      "bpm": 80
    },
    {
      "tick": 62976,
      "bpm": 80
    },
    {
      "tick": 63360,
      "bpm": 75
    },
    {
      "tick": 63744,
      "bpm": 70
    },
    {
      "tick": 63936,
      "bpm": 65
    },
    {
      "tick": 64128,
      "bpm": 60
    },
    {
      "tick": 64320,
      "bpm": 50
    }
  ],
  "time_signatures": [
    {
      "tick": 0,
      "numerator": 4,
      "denominator": 4
    }
  ],
  "track_type": "manual",
  "voice_count": 1,
  "total_notes": 503,
  "tracks": [
    {
      "role": "manual",
      "notes": [
        {
          "pitch": 50,
          "onset": 0.0,
          "duration": 2.5,
          "velocity": 100
        },
        {
          "pitch": 62,
          "onset": 0.0,
          "duration": 2.0,
          "velocity": 100
        },
        {
          "pitch": 65,
          "onset": 0.0,
          "duration": 2.0,
          "velocity": 100
        },
        {
          "pitch": 69,
          "onset": 0.0,
          "duration": 2.0,
          "velocity": 100
        },
        {
          "pitch": 65,
          "onset": 2.0,
          "duration": 2.0,
          "velocity": 100
        },
        {
          "pitch": 69,
          "onset": 2.0,
          "duration": 2.0,
          "velocity": 100
        },
        {
          "pitch": 74,
          "onset": 2.0,
          "duration": 3.0,
          "velocity": 100
        },
        {
          "pitch": 50,
          "onset": 2.5,
          "duration": 0.5,
          "velocity": 100
        },
        {
          "pitch": 49,
          "onset": 3.0,
          "duration": 0.5,
          "velocity": 100
        },
        {
          "pitch": 50,
          "onset": 3.5,
          "duration": 0.5,
          "velocity": 100
        },
        {
          "pitch": 52,
          "onset": 4.0,
          "duration": 2.5,
          "velocity": 100
        },
        {
          "pitch": 64,
          "onset": 4.0,
          "duration": 4.0,
          "velocity": 100
        },
        {
          "pitch": 67,
          "onset": 4.0,
          "duration": 4.0,
          "velocity": 100
        },
        {
          "pitch": 73,
          "onset": 5.0,
          "duration": 0.5,
          "velocity": 100
        },
        {
          "pitch": 71,
          "onset": 5.5,
          "duration": 0.5,
          "velocity": 100
        },
        {
          "pitch": 73,
          "onset": 6.0,
          "duration": 2.0,
          "velocity": 100
        },
        {
          "pitch": 52,
          "onset": 6.5,
          "duration": 0.5,
          "velocity": 100
        },
        {
          "pitch": 50,
          "onset": 7.0,
          "duration": 0.5,
          "velocity": 100
        },
        {
          "pitch": 52,
          "onset": 7.5,
          "duration": 0.5,
          "velocity": 100
        },
        {
          "pitch": 54,
          "onset": 8.0,
          "duration": 2.5,
          "velocity": 100
        },
        {
          "pitch": 62,
          "onset": 8.5,
          "duration": 5.5,
          "velocity": 100
        },
        {
          "pitch": 66,
          "onset": 9.0,
          "duration": 0.5,
          "velocity": 100
        },
        {
          "pitch": 69,
          "onset": 9.5,
          "duration": 3.5,
          "velocity": 100
        },
        {
          "pitch": 72,
          "onset": 10.0,
          "duration": 3.0,
          "velocity": 100
        },
        {
          "pitch": 50,
          "onset": 10.5,
          "duration": 0.5,
          "velocity": 100
        },
        {
          "pitch": 52,
          "onset": 11.0,
          "duration": 0.5,
          "velocity": 100
        },
        {
          "pitch": 54,
          "onset": 11.5,
          "duration": 0.5,
          "velocity": 100
        },
        {
          "pitch": 55,
          "onset": 12.0,
          "duration": 0.5,
          "velocity": 100
        },
        {
          "pitch": 54,
          "onset": 12.5,
          "duration": 0.5,
          "velocity": 100
        },
        {
          "pitch": 55,
          "onset": 13.0,
          "duration": 0.5,
          "velocity": 100
        },
        {
          "pitch": 67,
          "onset": 13.0,
          "duration": 1.0,
          "velocity": 100
        },
        {
          "pitch": 70,
          "onset": 13.0,
          "duration": 0.5,
          "velocity": 100
        },
        {
          "pitch": 57,
          "onset": 13.5,
          "duration": 0.5,
          "velocity": 100
        },
        {
          "pitch": 69,
          "onset": 13.5,
          "duration": 0.5,
          "velocity": 100
        },
        {
          "pitch": 58,
          "onset": 14.0,
          "duration": 4.5,
          "velocity": 100
        },
        {
          "pitch": 67,
          "onset": 14.0,
          "duration": 0.5,
          "velocity": 100
        },
        {
          "pitch": 65,
          "onset": 14.5,
          "duration": 0.5,
          "velocity": 100
        },
        {
          "pitch": 64,
          "onset": 15.0,
          "duration": 0.5,
          "velocity": 100
        },
        {
          "pitch": 62,
          "onset": 15.5,
          "duration": 0.5,
          "velocity": 100
        },
        {
          "pitch": 61,
          "onset": 16.0,
          "duration": 2.0,
          "velocity": 100
        },
        {
          "pitch": 62,
          "onset": 16.5,
          "duration": 0.5,
          "velocity": 100
        },
        {
          "pitch": 64,
          "onset": 17.0,
          "duration": 0.5,
          "velocity": 100
        },
        {
          "pitch": 65,
          "onset": 17.5,
          "duration": 0.5,
          "velocity": 100
        },
        {
          "pitch": 67,
          "onset": 18.0,
          "duration": 3.0,
          "velocity": 100
        },
        {
          "pitch": 58,
          "onset": 18.5,
          "duration": 0.5,
          "velocity": 100
        },
        {
          "pitch": 57,
          "onset": 19.0,
          "duration": 0.5,
          "velocity": 100
        },
        {
          "pitch": 61,
          "onset": 19.0,
          "duration": 1.0,
          "velocity": 100
        },
        {
          "pitch": 64,
          "onset": 19.0,
          "duration": 2.0,
          "velocity": 100
        },
        {
          "pitch": 55,
          "onset": 19.5,
          "duration": 0.5,
          "velocity": 100
        },
        {
          "pitch": 53,
          "onset": 20.0,
          "duration": 0.5,
          "velocity": 100
        },
        {
          "pitch": 57,
          "onset": 20.0,
          "duration": 2.0,
          "velocity": 100
        },
        {
          "pitch": 52,
          "onset": 20.5,
          "duration": 0.5,
          "velocity": 100
        },
        {
          "pitch": 50,
          "onset": 21.0,
          "duration": 0.5,
          "velocity": 100
        },
        {
          "pitch": 64,
          "onset": 21.0,
          "duration": 1.0,
          "velocity": 100
        },
        {
          "pitch": 67,
          "onset": 21.0,
          "duration": 1.0,
          "velocity": 100
        },
        {
          "pitch": 49,
          "onset": 21.5,
          "duration": 0.5,
          "velocity": 100
        },
        {
          "pitch": 50,
          "onset": 22.0,
          "duration": 0.5,
          "velocity": 100
        },
        {
          "pitch": 62,
          "onset": 22.0,
          "duration": 2.5,
          "velocity": 100
        },
        {
          "pitch": 65,
          "onset": 22.0,
          "duration": 2.0,
          "velocity": 100
        },
        {
          "pitch": 52,
          "onset": 22.5,
          "duration": 0.5,
          "velocity": 100
        },
        {
          "pitch": 53,
          "onset": 23.0,
          "duration": 0.5,
          "velocity": 100
        },
        {
          "pitch": 55,
          "onset": 23.5,
          "duration": 0.5,
          "velocity": 100
        },
        {
          "pitch": 57,
          "onset": 24.0,
          "duration": 1.0,
          "velocity": 100
        },
        {
          "pitch": 64,
          "onset": 24.0,
          "duration": 2.5,
          "velocity": 100
        },
        {
          "pitch": 62,
          "onset": 24.5,
          "duration": 0.5,
          "velocity": 100
        },
        {
          "pitch": 52,
          "onset": 25.0,
          "duration": 1.0,
          "velocity": 100
        },
        {
          "pitch": 60,
          "onset": 25.0,
          "duration": 0.5,
          "velocity": 100
        },
        {
          "pitch": 59,
          "onset": 25.5,
          "duration": 0.5,
          "velocity": 100
        },
        {
          "pitch": 57,
          "onset": 26.0,
          "duration": 3.0,
          "velocity": 100
        },
        {
          "pitch": 60,
          "onset": 26.0,
          "duration": 2.0,
          "velocity": 100
        },
        {
          "pitch": 69,
          "onset": 26.5,
          "duration": 0.5,
          "velocity": 100
        },
        {
          "pitch": 68,
          "onset": 27.0,
          "duration": 0.5,
          "velocity": 100
        },
        {
          "pitch": 69,
          "onset": 27.5,
          "duration": 0.5,
          "velocity": 100
        },
        {
          "pitch": 62,
          "onset": 28.0,
          "duration": 1.0,
          "velocity": 100
        },
        {
          "pitch": 71,
          "onset": 28.0,
          "duration": 2.5,
          "velocity": 100
        },
        {
          "pitch": 56,
          "onset": 29.0,
          "duration": 0.5,
          "velocity": 100
        },
        {
          "pitch": 59,
          "onset": 29.0,
          "duration": 1.0,
          "velocity": 100
        },
        {
          "pitch": 54,
          "onset": 29.5,
          "duration": 0.5,
          "velocity": 100
        },
        {
          "pitch": 56,
          "onset": 30.0,
          "duration": 2.0,
          "velocity": 100
        },
        {
          "pitch": 64,
          "onset": 30.0,
          "duration": 4.0,
          "velocity": 100
        },
        {
          "pitch": 71,
          "onset": 30.5,
          "duration": 0.5,
          "velocity": 100
        },
        {
          "pitch": 69,
          "onset": 31.0,
          "duration": 0.5,
          "velocity": 100
        },
        {
          "pitch": 71,
          "onset": 31.5,
          "duration": 0.5,
          "velocity": 100
        },
        {
          "pitch": 69,
          "onset": 32.0,
          "duration": 2.0,
          "velocity": 100
        },
        {
          "pitch": 73,
          "onset": 32.0,
          "duration": 2.5,
          "velocity": 100
        },
        {
          "pitch": 45,
          "onset": 32.5,
          "duration": 1.5,
          "velocity": 100
        },
        {
          "pitch": 49,
          "onset": 33.0,
          "duration": 0.5,
          "velocity": 100
        },
        {
          "pitch": 52,
          "onset": 33.5,
          "duration": 0.5,
          "velocity": 100
        },
        {
          "pitch": 55,
          "onset": 34.0,
          "duration": 3.0,
          "velocity": 100
        },
        {
          "pitch": 69,
          "onset": 34.5,
          "duration": 4.5,
          "velocity": 100
        },
        {
          "pitch": 71,
          "onset": 35.0,
          "duration": 0.5,
          "velocity": 100
        },
        {
          "pitch": 73,
          "onset": 35.5,
          "duration": 0.5,
          "velocity": 100
        },
        {
          "pitch": 74,
          "onset": 36.0,
          "duration": 0.5,
          "velocity": 100
        },
        {
          "pitch": 73,
          "onset": 36.5,
          "duration": 0.5,
          "velocity": 100
        },
        {
          "pitch": 53,
          "onset": 37.0,
          "duration": 0.5,
          "velocity": 100
        },
        {
          "pitch": 74,
          "onset": 37.0,
          "duration": 0.5,
          "velocity": 100
        },
        {
          "pitch": 52,
          "onset": 37.5,
          "duration": 0.5,
          "velocity": 100
        },
        {
          "pitch": 76,
          "onset": 37.5,
          "duration": 0.5,
          "velocity": 100
        },
        {
          "pitch": 50,
          "onset": 38.0,
          "duration": 0.5,
          "velocity": 100
        },
        {
          "pitch": 74,
          "onset": 38.0,
          "duration": 4.0,
          "velocity": 100
        },
        {
          "pitch": 77,
          "onset": 38.0,
          "duration": 4.5,
          "velocity": 100
        },
        {
          "pitch": 48,
          "onset": 38.5,
          "duration": 0.5,
          "velocity": 100
        },
        {
          "pitch": 47,
          "onset": 39.0,
          "duration": 0.5,
          "velocity": 100
        },
        {
          "pitch": 69,
          "onset": 39.0,
          "duration": 1.0,
          "velocity": 100
        },
        {
          "pitch": 45,
          "onset": 39.5,
          "duration": 0.5,
          "velocity": 100
        },
        {
          "pitch": 44,
          "onset": 40.0,
          "duration": 0.5,
          "velocity": 100
        },
        {
          "pitch": 45,
          "onset": 40.5,
          "duration": 0.5,
          "velocity": 100
        },
        {
          "pitch": 47,
          "onset": 41.0,
          "duration": 0.5,
          "velocity": 100
        },
        {
          "pitch": 48,
          "onset": 41.5,
          "duration": 0.5,
          "velocity": 100
        },
        {
          "pitch": 50,
          "onset": 42.0,
          "duration": 3.0,
          "velocity": 100
        },
        {
          "pitch": 77,
          "onset": 42.5,
          "duration": 0.5,
          "velocity": 100
        },
        {
          "pitch": 56,
          "onset": 43.0,
          "duration": 1.0,
          "velocity": 100
        },
        {
          "pitch": 76,
          "onset": 43.0,
          "duration": 0.5,
          "velocity": 100
        },
        {
          "pitch": 74,
          "onset": 43.5,
          "duration": 0.5,
          "velocity": 100
        },
        {
          "pitch": 57,
          "onset": 44.0,
          "duration": 1.0,
          "velocity": 100
        },
        {
          "pitch": 72,
          "onset": 44.0,
          "duration": 0.5,
          "velocity": 100
        },
        {
          "pitch": 71,
          "onset": 44.5,
          "duration": 0.5,
          "velocity": 100
        },
        {
          "pitch": 50,
          "onset": 45.0,
          "duration": 1.0,
          "velocity": 100
        },
        {
          "pitch": 59,
          "onset": 45.0,
          "duration": 1.0,
          "velocity": 100
        },
        {
          "pitch": 69,
          "onset": 45.0,
          "duration": 0.5,
          "velocity": 100
        },
        {
          "pitch": 68,
          "onset": 45.5,
          "duration": 0.5,
          "velocity": 100
        },
        {
          "pitch": 48,
          "onset": 46.0,
          "duration": 2.5,
          "velocity": 100
        },
        {
          "pitch": 52,
          "onset": 46.0,
          "duration": 1.0,
          "velocity": 100
        },
        {
          "pitch": 69,
          "onset": 46.0,
          "duration": 0.5,
          "velocity": 100
        },
        {
          "pitch": 71,
          "onset": 46.5,
          "duration": 0.5,
          "velocity": 100
        },
        {
          "pitch": 57,
          "onset": 47.0,
          "duration": 1.0,
          "velocity": 100
        },
        {
          "pitch": 72,
          "onset": 47.0,
          "duration": 0.5,
          "velocity": 100
        },
        {
          "pitch": 69,
          "onset": 47.5,
          "duration": 0.5,
          "velocity": 100
        },
        {
          "pitch": 74,
          "onset": 48.0,
          "duration": 5.0,
          "velocity": 100
        },
        {
          "pitch": 52,
          "onset": 48.5,
          "duration": 0.5,
          "velocity": 100
        },
        {
          "pitch": 50,
          "onset": 49.0,
          "duration": 0.5,
          "velocity": 100
        },
        {
          "pitch": 66,
          "onset": 49.0,
          "duration": 1.0,
          "velocity": 100
        },
        {
          "pitch": 48,
          "onset": 49.5,
          "duration": 0.5,
          "velocity": 100
        },
        {
          "pitch": 47,
          "onset": 50.0,
          "duration": 0.5,
          "velocity": 100
        },
        {
          "pitch": 68,
          "onset": 50.0,
          "duration": 1.0,
          "velocity": 100
        },
        {
          "pitch": 45,
          "onset": 50.5,
          "duration": 0.5,
          "velocity": 100
        },
        {
          "pitch": 44,
          "onset": 51.0,
          "duration": 0.5,
          "velocity": 100
        },
        {
          "pitch": 69,
          "onset": 51.0,
          "duration": 1.0,
          "velocity": 100
        },
        {
          "pitch": 42,
          "onset": 51.5,
          "duration": 0.5,
          "velocity": 100
        },
        {
          "pitch": 44,
          "onset": 52.0,
          "duration": 0.5,
          "velocity": 100
        },
        {
          "pitch": 71,
          "onset": 52.0,
          "duration": 1.0,
          "velocity": 100
        },
        {
          "pitch": 45,
          "onset": 52.5,
          "duration": 0.5,
          "velocity": 100
        },
        {
          "pitch": 47,
          "onset": 53.0,
          "duration": 0.5,
          "velocity": 100
        },
        {
          "pitch": 71,
          "onset": 53.0,
          "duration": 2.0,
          "velocity": 100
        },
        {
          "pitch": 74,
          "onset": 53.0,
          "duration": 1.0,
          "velocity": 100
        },
        {
          "pitch": 44,
          "onset": 53.5,
          "duration": 0.5,
          "velocity": 100
        },
        {
          "pitch": 45,
          "onset": 54.0,
          "duration": 0.5,
          "velocity": 100
        },
        {
          "pitch": 72,
          "onset": 54.0,
          "duration": 2.0,
          "velocity": 100
        },
        {
          "pitch": 47,
          "onset": 54.5,
          "duration": 0.5,
          "velocity": 100
        },
        {
          "pitch": 48,
          "onset": 55.0,
          "duration": 0.5,
          "velocity": 100
        },
        {
          "pitch": 69,
          "onset": 55.0,
          "duration": 1.5,
          "velocity": 100
        },
        {
          "pitch": 50,
          "onset": 55.5,
          "duration": 0.5,
          "velocity": 100
        },
        {
          "pitch": 52,
          "onset": 56.0,
          "duration": 2.5,
          "velocity": 100
        },
        {
          "pitch": 71,
          "onset": 56.0,
          "duration": 4.5,
          "velocity": 100
        },
        {
          "pitch": 69,
          "onset": 56.5,
          "duration": 0.5,
          "velocity": 100
        },
        {
          "pitch": 68,
          "onset": 57.0,
          "duration": 0.5,
          "velocity": 100
        },
        {
          "pitch": 66,
          "onset": 57.5,
          "duration": 0.5,
          "velocity": 100
        },
        {
          "pitch": 64,
          "onset": 58.0,
          "duration": 1.0,
          "velocity": 100
        },
        {
          "pitch": 68,
          "onset": 58.0,
          "duration": 3.0,
          "velocity": 100
        },
        {
          "pitch": 52,
          "onset": 58.5,
          "duration": 0.5,
          "velocity": 100
        },
        {
          "pitch": 50,
          "onset": 59.0,
          "duration": 0.5,
          "velocity": 100
        },
        {
          "pitch": 52,
          "onset": 59.5,
          "duration": 0.5,
          "velocity": 100
        },
        {
          "pitch": 48,
          "onset": 60.0,
          "duration": 2.5,
          "velocity": 100
        },
        {
          "pitch": 74,
          "onset": 60.5,
          "duration": 0.5,
          "velocity": 100
        },
        {
          "pitch": 72,
          "onset": 61.0,
          "duration": 0.5,
          "velocity": 100
        },
        {
          "pitch": 71,
          "onset": 61.5,
          "duration": 0.5,
          "velocity": 100
        },
        {
          "pitch": 76,
          "onset": 62.0,
          "duration": 2.5,
          "velocity": 100
        },
        {
          "pitch": 48,
          "onset": 62.5,
          "duration": 0.5,
          "velocity": 100
        },
        {
          "pitch": 50,
          "onset": 63.0,
          "duration": 0.5,
          "velocity": 100
        },
        {
          "pitch": 68,
          "onset": 63.0,
          "duration": 1.0,
          "velocity": 100
        },
        {
          "pitch": 52,
          "onset": 63.5,
          "duration": 0.5,
          "velocity": 100
        },
        {
          "pitch": 53,
          "onset": 64.0,
          "duration": 2.5,
          "velocity": 100
        },
        {
          "pitch": 69,
          "onset": 64.0,
          "duration": 2.0,
          "velocity": 100
        },
        {
          "pitch": 74,
          "onset": 64.5,
          "duration": 0.5,
          "velocity": 100
        },
        {
          "pitch": 72,
          "onset": 65.0,
          "duration": 0.5,
          "velocity": 100
        },
        {
          "pitch": 71,
          "onset": 65.5,
          "duration": 0.5,
          "velocity": 100
        },
        {
          "pitch": 69,
          "onset": 66.0,
          "duration": 2.5,
          "velocity": 100
        },
        {
          "pitch": 52,
          "onset": 66.5,
          "duration": 0.5,
          "velocity": 100
        },
        {
          "pitch": 67,
          "onset": 66.5,
          "duration": 0.5,
          "velocity": 100
        },
        {
          "pitch": 50,
          "onset": 67.0,
          "duration": 0.5,
          "velocity": 100
        },
        {
          "pitch": 65,
          "onset": 67.0,
          "duration": 0.5,
          "velocity": 100
        },
        {
          "pitch": 48,
          "onset": 67.5,
          "duration": 0.5,
          "velocity": 100
        },
        {
          "pitch": 64,
          "onset": 67.5,
          "duration": 0.5,
          "velocity": 100
        },
        {
          "pitch": 47,
          "onset": 68.0,
          "duration": 2.5,
          "velocity": 100
        },
        {
          "pitch": 62,
          "onset": 68.0,
          "duration": 2.0,
          "velocity": 100
        },
        {
          "pitch": 72,
          "onset": 68.5,
          "duration": 0.5,
          "velocity": 100
        },
        {
          "pitch": 71,
          "onset": 69.0,
          "duration": 0.5,
          "velocity": 100
        },
        {
          "pitch": 69,
          "onset": 69.5,
          "duration": 0.5,
          "velocity": 100
        },
        {
          "pitch": 74,
          "onset": 70.0,
          "duration": 2.5,
          "velocity": 100
        },
        {
          "pitch": 47,
          "onset": 70.5,
          "duration": 0.5,
          "velocity": 100
        },
        {
          "pitch": 72,
          "onset": 70.5,
          "duration": 0.5,
          "velocity": 100
        },
        {
          "pitch": 48,
          "onset": 71.0,
          "duration": 0.5,
          "velocity": 100
        },
        {
          "pitch": 71,
          "onset": 71.0,
          "duration": 0.5,
          "velocity": 100
        },
        {
          "pitch": 50,
          "onset": 71.5,
          "duration": 0.5,
          "velocity": 100
        },
        {
          "pitch": 69,
          "onset": 71.5,
          "duration": 0.5,
          "velocity": 100
        },
        {
          "pitch": 52,
          "onset": 72.0,
          "duration": 2.5,
          "velocity": 100
        },
        {
          "pitch": 68,
          "onset": 72.0,
          "duration": 2.0,
          "velocity": 100
        },
        {
          "pitch": 77,
          "onset": 72.5,
          "duration": 0.5,
          "velocity": 100
        },
        {
          "pitch": 76,
          "onset": 73.0,
          "duration": 0.5,
          "velocity": 100
        },
        {
          "pitch": 74,
          "onset": 73.5,
          "duration": 0.5,
          "velocity": 100
        },
        {
          "pitch": 83,
          "onset": 74.0,
          "duration": 3.0,
          "velocity": 100
        },
        {
          "pitch": 50,
          "onset": 74.5,
          "duration": 0.5,
          "velocity": 100
        },
        {
          "pitch": 48,
          "onset": 75.0,
          "duration": 0.5,
          "velocity": 100
        },
        {
          "pitch": 74,
          "onset": 75.0,
          "duration": 1.0,
          "velocity": 100
        },
        {
          "pitch": 76,
          "onset": 75.0,
          "duration": 2.0,
          "velocity": 100
        },
        {
          "pitch": 80,
          "onset": 75.0,
          "duration": 2.0,
          "velocity": 100
        },
        {
          "pitch": 47,
          "onset": 75.5,
          "duration": 0.5,
          "velocity": 100
        },
        {
          "pitch": 45,
          "onset": 76.0,
          "duration": 0.5,
          "velocity": 100
        },
        {
          "pitch": 72,
          "onset": 76.0,
          "duration": 2.0,
          "velocity": 100
        },
        {
          "pitch": 44,
          "onset": 76.5,
          "duration": 0.5,
          "velocity": 100
        },
        {
          "pitch": 45,
          "onset": 77.0,
          "duration": 0.5,
          "velocity": 100
        },
        {
          "pitch": 81,
          "onset": 77.0,
          "duration": 0.5,
          "velocity": 100
        },
        {
          "pitch": 47,
          "onset": 77.5,
          "duration": 0.5,
          "velocity": 100
        },
        {
          "pitch": 80,
          "onset": 77.5,
          "duration": 0.5,
          "velocity": 100
        },
        {
          "pitch": 48,
          "onset": 78.0,
          "duration": 0.5,
          "velocity": 100
        },
        {
          "pitch": 81,
          "onset": 78.0,
          "duration": 1.0,
          "velocity": 100
        },
        {
          "pitch": 45,
          "onset": 78.5,
          "duration": 0.5,
          "velocity": 100
        },
        {
          "pitch": 47,
          "onset": 79.0,
          "duration": 0.5,
          "velocity": 100
        },
        {
          "pitch": 69,
          "onset": 79.0,
          "duration": 2.0,
          "velocity": 100
        },
        {
          "pitch": 72,
          "onset": 79.0,
          "duration": 1.5,
          "velocity": 100
        },
        {
          "pitch": 76,
          "onset": 79.0,
          "duration": 1.0,
          "velocity": 100
        },
        {
          "pitch": 48,
          "onset": 79.5,
          "duration": 0.5,
          "velocity": 100
        },
        {
          "pitch": 50,
          "onset": 80.0,
          "duration": 0.5,
          "velocity": 100
        },
        {
          "pitch": 77,
          "onset": 80.0,
          "duration": 4.5,
          "velocity": 100
        },
        {
          "pitch": 48,
          "onset": 80.5,
          "duration": 0.5,
          "velocity": 100
        },
        {
          "pitch": 76,
          "onset": 80.5,
          "duration": 0.5,
          "velocity": 100
        },
        {
          "pitch": 50,
          "onset": 81.0,
          "duration": 0.5,
          "velocity": 100
        },
        {
          "pitch": 74,
          "onset": 81.0,
          "duration": 0.5,
          "velocity": 100
        },
        {
          "pitch": 52,
          "onset": 81.5,
          "duration": 0.5,
          "velocity": 100
        },
        {
          "pitch": 72,
          "onset": 81.5,
          "duration": 0.5,
          "velocity": 100
        },
        {
          "pitch": 53,
          "onset": 82.0,
          "duration": 0.5,
          "velocity": 100
        },
        {
          "pitch": 71,
          "onset": 82.0,
          "duration": 0.5,
          "velocity": 100
        },
        {
          "pitch": 50,
          "onset": 82.5,
          "duration": 0.5,
          "velocity": 100
        },
        {
          "pitch": 69,
          "onset": 82.5,
          "duration": 0.5,
          "velocity": 100
        },
        {
          "pitch": 52,
          "onset": 83.0,
          "duration": 0.5,
          "velocity": 100
        },
        {
          "pitch": 68,
          "onset": 83.0,
          "duration": 0.5,
          "velocity": 100
        },
        {
          "pitch": 53,
          "onset": 83.5,
          "duration": 0.5,
          "velocity": 100
        },
        {
          "pitch": 69,
          "onset": 83.5,
          "duration": 0.5,
          "velocity": 100
        },
        {
          "pitch": 44,
          "onset": 84.0,
          "duration": 1.0,
          "velocity": 100
        },
        {
          "pitch": 71,
          "onset": 84.0,
          "duration": 2.0,
          "velocity": 100
        },
        {
          "pitch": 77,
          "onset": 84.5,
          "duration": 0.5,
          "velocity": 100
        },
        {
          "pitch": 56,
          "onset": 85.0,
          "duration": 1.0,
          "velocity": 100
        },
        {
          "pitch": 76,
          "onset": 85.0,
          "duration": 0.5,
          "velocity": 100
        },
        {
          "pitch": 74,
          "onset": 85.5,
          "duration": 0.5,
          "velocity": 100
        },
        {
          "pitch": 57,
          "onset": 86.0,
          "duration": 1.0,
          "velocity": 100
        },
        {
          "pitch": 72,
          "onset": 86.0,
          "duration": 0.5,
          "velocity": 100
        },
        {
          "pitch": 71,
          "onset": 86.5,
          "duration": 0.5,
          "velocity": 100
        },
        {
          "pitch": 52,
          "onset": 87.0,
          "duration": 1.0,
          "velocity": 100
        },
        {
          "pitch": 59,
          "onset": 87.0,
          "duration": 1.0,
          "velocity": 100
        },
        {
          "pitch": 62,
          "onset": 87.0,
          "duration": 1.0,
          "velocity": 100
        },
        {
          "pitch": 69,
          "onset": 87.0,
          "duration": 0.5,
          "velocity": 100
        },
        {
          "pitch": 68,
          "onset": 87.5,
          "duration": 0.5,
          "velocity": 100
        },
        {
          "pitch": 53,
          "onset": 88.0,
          "duration": 1.0,
          "velocity": 100
        },
        {
          "pitch": 57,
          "onset": 88.0,
          "duration": 3.0,
          "velocity": 100
        },
        {
          "pitch": 60,
          "onset": 88.0,
          "duration": 1.0,
          "velocity": 100
        },
        {
          "pitch": 69,
          "onset": 88.0,
          "duration": 0.5,
          "velocity": 100
        },
        {
          "pitch": 71,
          "onset": 88.5,
          "duration": 0.1562,
          "velocity": 100
        },
        {
          "pitch": 69,
          "onset": 88.6562,
          "duration": 0.1562,
          "velocity": 100
        },
        {
          "pitch": 68,
          "onset": 88.8438,
          "duration": 0.1562,
          "velocity": 100
        },
        {
          "pitch": 50,
          "onset": 89.0,
          "duration": 1.0,
          "velocity": 100
        },
        {
          "pitch": 65,
          "onset": 89.0,
          "duration": 1.0,
          "velocity": 100
        },
        {
          "pitch": 69,
          "onset": 89.0,
          "duration": 0.5,
          "velocity": 100
        },
        {
          "pitch": 71,
          "onset": 89.5,
          "duration": 0.5,
          "velocity": 100
        },
        {
          "pitch": 52,
          "onset": 90.0,
          "duration": 2.0,
          "velocity": 100
        },
        {
          "pitch": 64,
          "onset": 90.0,
          "duration": 1.0,
          "velocity": 100
        },
        {
          "pitch": 72,
          "onset": 90.0,
          "duration": 0.25,
          "velocity": 100
        },
        {
          "pitch": 71,
          "onset": 90.25,
          "duration": 0.125,
          "velocity": 100
        },
        {
          "pitch": 72,
          "onset": 90.375,
          "duration": 0.125,
          "velocity": 100
        },
        {
          "pitch": 71,
          "onset": 90.5,
          "duration": 0.125,
          "velocity": 100
        },
        {
          "pitch": 72,
          "onset": 90.625,
          "duration": 0.125,
          "velocity": 100
        },
        {
          "pitch": 71,
          "onset": 90.75,
          "duration": 0.125,
          "velocity": 100
        },
        {
          "pitch": 72,
          "onset": 90.875,
          "duration": 0.125,
          "velocity": 100
        },
        {
          "pitch": 56,
          "onset": 91.0,
          "duration": 1.0,
          "velocity": 100
        },
        {
          "pitch": 62,
          "onset": 91.0,
          "duration": 2.0,
          "velocity": 100
        },
        {
          "pitch": 71,
          "onset": 91.0,
          "duration": 0.5,
          "velocity": 100
        },
        {
          "pitch": 69,
          "onset": 91.5,
          "duration": 0.5,
          "velocity": 100
        },
        {
          "pitch": 45,
          "onset": 92.0,
          "duration": 2.0,
          "velocity": 100
        },
        {
          "pitch": 57,
          "onset": 92.0,
          "duration": 2.5,
          "velocity": 100
        },
        {
          "pitch": 69,
          "onset": 92.0,
          "duration": 2.0,
          "velocity": 100
        },
        {
          "pitch": 60,
          "onset": 93.0,
          "duration": 1.0,
          "velocity": 100
        },
        {
          "pitch": 65,
          "onset": 94.0,
          "duration": 4.0,
          "velocity": 100
        },
        {
          "pitch": 69,
          "onset": 94.0,
          "duration": 2.5,
          "velocity": 100
        },
        {
          "pitch": 57,
          "onset": 94.5,
          "duration": 0.5,
          "velocity": 100
        },
        {
          "pitch": 55,
          "onset": 95.0,
          "duration": 0.5,
          "velocity": 100
        },
        {
          "pitch": 57,
          "onset": 95.5,
          "duration": 0.5,
          "velocity": 100
        },
        {
          "pitch": 59,
          "onset": 96.0,
          "duration": 2.5,
          "velocity": 100
        },
        {
          "pitch": 72,
          "onset": 96.5,
          "duration": 0.5,
          "velocity": 100
        },
        {
          "pitch": 71,
          "onset": 97.0,
          "duration": 0.5,
          "velocity": 100
        },
        {
          "pitch": 69,
          "onset": 97.5,
          "duration": 0.5,
          "velocity": 100
        },
        {
          "pitch": 74,
          "onset": 98.0,
          "duration": 1.0,
          "velocity": 100
        },
        {
          "pitch": 59,
          "onset": 98.5,
          "duration": 0.5,
          "velocity": 100
        },
        {
          "pitch": 57,
          "onset": 99.0,
          "duration": 0.5,
          "velocity": 100
        },
        {
          "pitch": 62,
          "onset": 99.0,
          "duration": 2.0,
          "velocity": 100
        },
        {
          "pitch": 65,
          "onset": 99.0,
          "duration": 2.0,
          "velocity": 100
        },
        {
          "pitch": 59,
          "onset": 99.5,
          "duration": 0.5,
          "velocity": 100
        },
        {
          "pitch": 60,
          "onset": 100.0,
          "duration": 1.0,
          "velocity": 100
        },
        {
          "pitch": 48,
          "onset": 101.0,
          "duration": 1.0,
          "velocity": 100
        },
        {
          "pitch": 60,
          "onset": 101.0,
          "duration": 1.0,
          "velocity": 100
        },
        {
          "pitch": 64,
          "onset": 101.0,
          "duration": 1.0,
          "velocity": 100
        },
        {
          "pitch": 72,
          "onset": 102.0,
          "duration": 2.5,
          "velocity": 100
        },
        {
          "pitch": 60,
          "onset": 102.5,
          "duration": 0.5,
          "velocity": 100
        },
        {
          "pitch": 59,
          "onset": 103.0,
          "duration": 0.5,
          "velocity": 100
        },
        {
          "pitch": 60,
          "onset": 103.5,
          "duration": 0.5,
          "velocity": 100
        },
        {
          "pitch": 62,
          "onset": 104.0,
          "duration": 2.5,
          "velocity": 100
        },
        {
          "pitch": 76,
          "onset": 104.5,
          "duration": 0.5,
          "velocity": 100
        },
        {
          "pitch": 74,
          "onset": 105.0,
          "duration": 0.5,
          "velocity": 100
        },
        {
          "pitch": 72,
          "onset": 105.5,
          "duration": 0.5,
          "velocity": 100
        },
        {
          "pitch": 77,
          "onset": 106.0,
          "duration": 2.0,
          "velocity": 100
        },
        {
          "pitch": 62,
          "onset": 106.5,
          "duration": 0.5,
          "velocity": 100
        },
        {
          "pitch": 60,
          "onset": 107.0,
          "duration": 0.5,
          "velocity": 100
        },
        {
          "pitch": 65,
          "onset": 107.0,
          "duration": 2.0,
          "velocity": 100
        },
        {
          "pitch": 69,
          "onset": 107.0,
          "duration": 2.0,
          "velocity": 100
        },
        {
          "pitch": 62,
          "onset": 107.5,
          "duration": 0.5,
          "velocity": 100
        },
        {
          "pitch": 64,
          "onset": 108.0,
          "duration": 1.0,
          "velocity": 100
        },
        {
          "pitch": 52,
          "onset": 109.0,
          "duration": 1.0,
          "velocity": 100
        },
        {
          "pitch": 64,
          "onset": 109.0,
          "duration": 1.0,
          "velocity": 100
        },
        {
          "pitch": 67,
          "onset": 109.0,
          "duration": 1.0,
          "velocity": 100
        },
        {
          "pitch": 72,
          "onset": 110.0,
          "duration": 4.0,
          "velocity": 100
        },
        {
          "pitch": 76,
          "onset": 110.0,
          "duration": 2.5,
          "velocity": 100
        },
        {
          "pitch": 64,
          "onset": 110.5,
          "duration": 0.5,
          "velocity": 100
        },
        {
          "pitch": 62,
          "onset": 111.0,
          "duration": 0.5,
          "velocity": 100
        },
        {
          "pitch": 64,
          "onset": 111.5,
          "duration": 0.5,
          "velocity": 100
        },
        {
          "pitch": 65,
          "onset": 112.0,
          "duration": 2.5,
          "velocity": 100
        },
        {
          "pitch": 79,
          "onset": 112.5,
          "duration": 0.5,
          "velocity": 100
        },
        {
          "pitch": 77,
          "onset": 113.0,
          "duration": 0.5,
          "velocity": 100
        },
        {
          "pitch": 76,
          "onset": 113.5,
          "duration": 0.5,
          "velocity": 100
        },
        {
          "pitch": 81,
          "onset": 114.0,
          "duration": 1.0,
          "velocity": 100
        },
        {
          "pitch": 65,
          "onset": 114.5,
          "duration": 0.5,
          "velocity": 100
        },
        {
          "pitch": 64,
          "onset": 115.0,
          "duration": 0.5,
          "velocity": 100
        },
        {
          "pitch": 69,
          "onset": 115.0,
          "duration": 2.0,
          "velocity": 100
        },
        {
          "pitch": 72,
          "onset": 115.0,
          "duration": 1.0,
          "velocity": 100
        },
        {
          "pitch": 65,
          "onset": 115.5,
          "duration": 0.5,
          "velocity": 100
        },
        {
          "pitch": 67,
          "onset": 116.0,
          "duration": 0.5,
          "velocity": 100
        },
        {
          "pitch": 71,
          "onset": 116.0,
          "duration": 2.0,
          "velocity": 100
        },
        {
          "pitch": 65,
          "onset": 116.5,
          "duration": 0.5,
          "velocity": 100
        },
        {
          "pitch": 64,
          "onset": 117.0,
          "duration": 0.5,
          "velocity": 100
        },
        {
          "pitch": 67,
          "onset": 117.0,
          "duration": 1.0,
          "velocity": 100
        },
        {
          "pitch": 62,
          "onset": 117.5,
          "duration": 0.5,
          "velocity": 100
        },
        {
          "pitch": 64,
          "onset": 118.0,
          "duration": 0.5,
          "velocity": 100
        },
        {
          "pitch": 79,
          "onset": 118.0,
          "duration": 5.0,
          "velocity": 100
        },
        {
          "pitch": 62,
          "onset": 118.5,
          "duration": 0.5,
          "velocity": 100
        },
        {
          "pitch": 77,
          "onset": 118.5,
          "duration": 0.5,
          "velocity": 100
        },
        {
          "pitch": 61,
          "onset": 119.0,
          "duration": 0.5,
          "velocity": 100
        },
        {
          "pitch": 76,
          "onset": 119.0,
          "duration": 0.5,
          "velocity": 100
        },
        {
          "pitch": 59,
          "onset": 119.5,
          "duration": 0.5,
          "velocity": 100
        },
        {
          "pitch": 74,
          "onset": 119.5,
          "duration": 0.5,
          "velocity": 100
        },
        {
          "pitch": 61,
          "onset": 120.0,
          "duration": 1.0,
          "velocity": 100
        },
        {
          "pitch": 76,
          "onset": 120.0,
          "duration": 0.5,
          "velocity": 100
        },
        {
          "pitch": 74,
          "onset": 120.5,
          "duration": 0.5,
          "velocity": 100
        },
        {
          "pitch": 57,
          "onset": 121.0,
          "duration": 1.0,
          "velocity": 100
        },
        {
          "pitch": 73,
          "onset": 121.0,
          "duration": 0.5,
          "velocity": 100
        },
        {
          "pitch": 76,
          "onset": 121.5,
          "duration": 0.5,
          "velocity": 100
        },
        {
          "pitch": 62,
          "onset": 122.0,
          "duration": 0.5,
          "velocity": 100
        },
        {
          "pitch": 69,
          "onset": 122.0,
          "duration": 3.0,
          "velocity": 100
        },
        {
          "pitch": 50,
          "onset": 122.5,
          "duration": 0.5,
          "velocity": 100
        },
        {
          "pitch": 52,
          "onset": 123.0,
          "duration": 0.5,
          "velocity": 100
        },
        {
          "pitch": 77,
          "onset": 123.0,
          "duration": 2.0,
          "velocity": 100
        },
        {
          "pitch": 53,
          "onset": 123.5,
          "duration": 0.5,
          "velocity": 100
        },
        {
          "pitch": 55,
          "onset": 124.0,
          "duration": 0.5,
          "velocity": 100
        },
        {
          "pitch": 70,
          "onset": 124.0,
          "duration": 4.0,
          "velocity": 100
        },
        {
          "pitch": 53,
          "onset": 124.5,
          "duration": 0.5,
          "velocity": 100
        },
        {
          "pitch": 55,
          "onset": 125.0,
          "duration": 0.5,
          "velocity": 100
        },
        {
          "pitch": 69,
          "onset": 125.0,
          "duration": 1.0,
          "velocity": 100
        },
        {
          "pitch": 77,
          "onset": 125.0,
          "duration": 1.0,
          "velocity": 100
        },
        {
          "pitch": 57,
          "onset": 125.5,
          "duration": 0.5,
          "velocity": 100
        },
        {
          "pitch": 58,
          "onset": 126.0,
          "duration": 0.5,
          "velocity": 100
        },
        {
          "pitch": 67,
          "onset": 126.0,
          "duration": 3.0,
          "velocity": 100
        },
        {
          "pitch": 76,
          "onset": 126.0,
          "duration": 1.0,
          "velocity": 100
        },
        {
          "pitch": 57,
          "onset": 126.5,
          "duration": 0.5,
          "velocity": 100
        },
        {
          "pitch": 58,
          "onset": 127.0,
          "duration": 0.5,
          "velocity": 100
        },
        {
          "pitch": 74,
          "onset": 127.0,
          "duration": 1.0,
          "velocity": 100
        },
        {
          "pitch": 55,
          "onset": 127.5,
          "duration": 0.5,
          "velocity": 100
        },
        {
          "pitch": 57,
          "onset": 128.0,
          "duration": 0.5,
          "velocity": 100
        },
        {
          "pitch": 73,
          "onset": 128.0,
          "duration": 2.0,
          "velocity": 100
        },
        {
          "pitch": 55,
          "onset": 128.5,
          "duration": 0.5,
          "velocity": 100
        },
        {
          "pitch": 57,
          "onset": 129.0,
          "duration": 0.5,
          "velocity": 100
        },
        {
          "pitch": 69,
          "onset": 129.0,
          "duration": 0.5,
          "velocity": 100
        },
        {
          "pitch": 59,
          "onset": 129.5,
          "duration": 0.5,
          "velocity": 100
        },
        {
          "pitch": 67,
          "onset": 129.5,
          "duration": 0.5,
          "velocity": 100
        },
        {
          "pitch": 61,
          "onset": 130.0,
          "duration": 0.5,
          "velocity": 100
        },
        {
          "pitch": 69,
          "onset": 130.0,
          "duration": 0.5,
          "velocity": 100
        },
        {
          "pitch": 57,
          "onset": 130.5,
          "duration": 0.5,
          "velocity": 100
        },
        {
          "pitch": 67,
          "onset": 130.5,
          "duration": 0.5,
          "velocity": 100
        },
        {
          "pitch": 59,
          "onset": 131.0,
          "duration": 0.5,
          "velocity": 100
        },
        {
          "pitch": 65,
          "onset": 131.0,
          "duration": 0.5,
          "velocity": 100
        },
        {
          "pitch": 61,
          "onset": 131.5,
          "duration": 0.5,
          "velocity": 100
        },
        {
          "pitch": 64,
          "onset": 131.5,
          "duration": 0.5,
          "velocity": 100
        },
        {
          "pitch": 62,
          "onset": 132.0,
          "duration": 1.0,
          "velocity": 100
        },
        {
          "pitch": 65,
          "onset": 132.0,
          "duration": 4.0,
          "velocity": 100
        },
        {
          "pitch": 69,
          "onset": 132.5,
          "duration": 3.5,
          "velocity": 100
        },
        {
          "pitch": 50,
          "onset": 133.0,
          "duration": 1.5,
          "velocity": 100
        },
        {
          "pitch": 71,
          "onset": 133.0,
          "duration": 0.5,
          "velocity": 100
        },
        {
          "pitch": 73,
          "onset": 133.5,
          "duration": 0.5,
          "velocity": 100
        },
        {
          "pitch": 74,
          "onset": 134.0,
          "duration": 3.0,
          "velocity": 100
        },
        {
          "pitch": 50,
          "onset": 134.5,
          "duration": 0.5,
          "velocity": 100
        },
        {
          "pitch": 49,
          "onset": 135.0,
          "duration": 0.5,
          "velocity": 100
        },
        {
          "pitch": 50,
          "onset": 135.5,
          "duration": 0.5,
          "velocity": 100
        },
        {
          "pitch": 52,
          "onset": 136.0,
          "duration": 2.5,
          "velocity": 100
        },
        {
          "pitch": 64,
          "onset": 136.0,
          "duration": 4.0,
          "velocity": 100
        },
        {
          "pitch": 67,
          "onset": 136.0,
          "duration": 4.0,
          "velocity": 100
        },
        {
          "pitch": 73,
          "onset": 137.0,
          "duration": 0.5,
          "velocity": 100
        },
        {
          "pitch": 71,
          "onset": 137.5,
          "duration": 0.5,
          "velocity": 100
        },
        {
          "pitch": 73,
          "onset": 138.0,
          "duration": 2.0,
          "velocity": 100
        },
        {
          "pitch": 52,
          "onset": 138.5,
          "duration": 0.5,
          "velocity": 100
        },
        {
          "pitch": 50,
          "onset": 139.0,
          "duration": 0.5,
          "velocity": 100
        },
        {
          "pitch": 52,
          "onset": 139.5,
          "duration": 0.5,
          "velocity": 100
        },
        {
          "pitch": 54,
          "onset": 140.0,
          "duration": 2.5,
          "velocity": 100
        },
        {
          "pitch": 62,
          "onset": 140.5,
          "duration": 5.5,
          "velocity": 100
        },
        {
          "pitch": 66,
          "onset": 141.0,
          "duration": 0.5,
          "velocity": 100
        },
        {
          "pitch": 69,
          "onset": 141.5,
          "duration": 3.5,
          "velocity": 100
        },
        {
          "pitch": 72,
          "onset": 142.0,
          "duration": 3.0,
          "velocity": 100
        },
        {
          "pitch": 50,
          "onset": 142.5,
          "duration": 0.5,
          "velocity": 100
        },
        {
          "pitch": 52,
          "onset": 143.0,
          "duration": 0.5,
          "velocity": 100
        },
        {
          "pitch": 54,
          "onset": 143.5,
          "duration": 0.5,
          "velocity": 100
        },
        {
          "pitch": 55,
          "onset": 144.0,
          "duration": 0.5,
          "velocity": 100
        },
        {
          "pitch": 54,
          "onset": 144.5,
          "duration": 0.5,
          "velocity": 100
        },
        {
          "pitch": 55,
          "onset": 145.0,
          "duration": 0.5,
          "velocity": 100
        },
        {
          "pitch": 67,
          "onset": 145.0,
          "duration": 1.0,
          "velocity": 100
        },
        {
          "pitch": 70,
          "onset": 145.0,
          "duration": 0.5,
          "velocity": 100
        },
        {
          "pitch": 57,
          "onset": 145.5,
          "duration": 0.5,
          "velocity": 100
        },
        {
          "pitch": 69,
          "onset": 145.5,
          "duration": 0.5,
          "velocity": 100
        },
        {
          "pitch": 58,
          "onset": 146.0,
          "duration": 4.5,
          "velocity": 100
        },
        {
          "pitch": 67,
          "onset": 146.0,
          "duration": 0.5,
          "velocity": 100
        },
        {
          "pitch": 65,
          "onset": 146.5,
          "duration": 0.5,
          "velocity": 100
        },
        {
          "pitch": 64,
          "onset": 147.0,
          "duration": 0.5,
          "velocity": 100
        },
        {
          "pitch": 62,
          "onset": 147.5,
          "duration": 0.5,
          "velocity": 100
        },
        {
          "pitch": 61,
          "onset": 148.0,
          "duration": 1.0,
          "velocity": 100
        },
        {
          "pitch": 62,
          "onset": 148.5,
          "duration": 0.5,
          "velocity": 100
        },
        {
          "pitch": 64,
          "onset": 149.0,
          "duration": 0.5,
          "velocity": 100
        },
        {
          "pitch": 65,
          "onset": 149.5,
          "duration": 0.5,
          "velocity": 100
        },
        {
          "pitch": 67,
          "onset": 150.0,
          "duration": 3.0,
          "velocity": 100
        },
        {
          "pitch": 58,
          "onset": 150.5,
          "duration": 0.5,
          "velocity": 100
        },
        {
          "pitch": 57,
          "onset": 151.0,
          "duration": 0.5,
          "velocity": 100
        },
        {
          "pitch": 61,
          "onset": 151.0,
          "duration": 1.0,
          "velocity": 100
        },
        {
          "pitch": 64,
          "onset": 151.0,
          "duration": 2.0,
          "velocity": 100
        },
        {
          "pitch": 55,
          "onset": 151.5,
          "duration": 0.5,
          "velocity": 100
        },
        {
          "pitch": 53,
          "onset": 152.0,
          "duration": 0.5,
          "velocity": 100
        },
        {
          "pitch": 57,
          "onset": 152.0,
          "duration": 4.0,
          "velocity": 100
        },
        {
          "pitch": 52,
          "onset": 152.5,
          "duration": 0.5,
          "velocity": 100
        },
        {
          "pitch": 50,
          "onset": 153.0,
          "duration": 0.5,
          "velocity": 100
        },
        {
          "pitch": 64,
          "onset": 153.0,
          "duration": 1.0,
          "velocity": 100
        },
        {
          "pitch": 67,
          "onset": 153.0,
          "duration": 1.0,
          "velocity": 100
        },
        {
          "pitch": 49,
          "onset": 153.5,
          "duration": 0.5,
          "velocity": 100
        },
        {
          "pitch": 50,
          "onset": 154.0,
          "duration": 0.5,
          "velocity": 100
        },
        {
          "pitch": 62,
          "onset": 154.0,
          "duration": 2.5,
          "velocity": 100
        },
        {
          "pitch": 65,
          "onset": 154.0,
          "duration": 2.5,
          "velocity": 100
        },
        {
          "pitch": 52,
          "onset": 154.5,
          "duration": 0.5,
          "velocity": 100
        },
        {
          "pitch": 53,
          "onset": 155.0,
          "duration": 0.5,
          "velocity": 100
        },
        {
          "pitch": 50,
          "onset": 155.5,
          "duration": 0.5,
          "velocity": 100
        },
        {
          "pitch": 44,
          "onset": 156.0,
          "duration": 3.0,
          "velocity": 100
        },
        {
          "pitch": 64,
          "onset": 156.5,
          "duration": 0.5,
          "velocity": 100
        },
        {
          "pitch": 47,
          "onset": 157.0,
          "duration": 1.0,
          "velocity": 100
        },
        {
          "pitch": 68,
          "onset": 157.0,
          "duration": 0.5,
          "velocity": 100
        },
        {
          "pitch": 71,
          "onset": 157.5,
          "duration": 0.5,
          "velocity": 100
        },
        {
          "pitch": 52,
          "onset": 158.0,
          "duration": 3.0,
          "velocity": 100
        },
        {
          "pitch": 74,
          "onset": 158.0,
          "duration": 0.5,
          "velocity": 100
        },
        {
          "pitch": 77,
          "onset": 158.5,
          "duration": 0.5,
          "velocity": 100
        },
        {
          "pitch": 44,
          "onset": 159.0,
          "duration": 1.0,
          "velocity": 100
        },
        {
          "pitch": 76,
          "onset": 159.0,
          "duration": 0.5,
          "velocity": 100
        },
        {
          "pitch": 74,
          "onset": 159.5,
          "duration": 0.5,
          "velocity": 100
        },
        {
          "pitch": 45,
          "onset": 160.0,
          "duration": 1.0,
          "velocity": 100
        },
        {
          "pitch": 73,
          "onset": 160.0,
          "duration": 0.5,
          "velocity": 100
        },
        {
          "pitch": 70,
          "onset": 160.5,
          "duration": 0.5,
          "velocity": 100
        },
        {
          "pitch": 49,
          "onset": 161.0,
          "duration": 1.0,
          "velocity": 100
        },
        {
          "pitch": 69,
          "onset": 161.0,
          "duration": 0.5,
          "velocity": 100
        },
        {
          "pitch": 67,
          "onset": 161.5,
          "duration": 0.5,
          "velocity": 100
        },
        {
          "pitch": 50,
          "onset": 162.0,
          "duration": 1.0,
          "velocity": 100
        },
        {
          "pitch": 65,
          "onset": 162.0,
          "duration": 0.5,
          "velocity": 100
        },
        {
          "pitch": 64,
          "onset": 162.5,
          "duration": 0.5,
          "velocity": 100
        },
        {
          "pitch": 45,
          "onset": 163.0,
          "duration": 1.0,
          "velocity": 100
        },
        {
          "pitch": 52,
          "onset": 163.0,
          "duration": 1.0,
          "velocity": 100
        },
        {
          "pitch": 55,
          "onset": 163.0,
          "duration": 1.0,
          "velocity": 100
        },
        {
          "pitch": 62,
          "onset": 163.0,
          "duration": 0.5,
          "velocity": 100
        },
        {
          "pitch": 61,
          "onset": 163.5,
          "duration": 0.5,
          "velocity": 100
        },
        {
          "pitch": 46,
          "onset": 164.0,
          "duration": 1.0,
          "velocity": 100
        },
        {
          "pitch": 50,
          "onset": 164.0,
          "duration": 3.0,
          "velocity": 100
        },
        {
          "pitch": 53,
          "onset": 164.0,
          "duration": 1.0,
          "velocity": 100
        },
        {
          "pitch": 62,
          "onset": 164.0,
          "duration": 0.5,
          "velocity": 100
        },
        {
          "pitch": 64,
          "onset": 164.5,
          "duration": 0.1562,
          "velocity": 100
        },
        {
          "pitch": 62,
          "onset": 164.6562,
          "duration": 0.1562,
          "velocity": 100
        },
        {
          "pitch": 61,
          "onset": 164.8438,
          "duration": 0.1562,
          "velocity": 100
        },
        {
          "pitch": 43,
          "onset": 165.0,
          "duration": 1.0,
          "velocity": 100
        },
        {
          "pitch": 58,
          "onset": 165.0,
          "duration": 1.0,
          "velocity": 100
        },
        {
          "pitch": 62,
          "onset": 165.0,
          "duration": 0.5,
          "velocity": 100
        },
        {
          "pitch": 64,
          "onset": 165.5,
          "duration": 0.5,
          "velocity": 100
        },
        {
          "pitch": 45,
          "onset": 166.0,
          "duration": 2.5,
          "velocity": 100
        },
        {
          "pitch": 57,
          "onset": 166.0,
          "duration": 2.5,
          "velocity": 100
        },
        {
          "pitch": 65,
          "onset": 166.0,
          "duration": 0.25,
          "velocity": 100
        },
        {
          "pitch": 64,
          "onset": 166.25,
          "duration": 0.125,
          "velocity": 100
        },
        {
          "pitch": 65,
          "onset": 166.375,
          "duration": 0.125,
          "velocity": 100
        },
        {
          "pitch": 64,
          "onset": 166.5,
          "duration": 0.125,
          "velocity": 100
        },
        {
          "pitch": 65,
          "onset": 166.625,
          "duration": 0.125,
          "velocity": 100
        },
        {
          "pitch": 64,
          "onset": 166.75,
          "duration": 0.125,
          "velocity": 100
        },
        {
          "pitch": 65,
          "onset": 166.875,
          "duration": 0.125,
          "velocity": 100
        },
        {
          "pitch": 49,
          "onset": 167.0,
          "duration": 1.5,
          "velocity": 100
        },
        {
          "pitch": 64,
          "onset": 167.0,
          "duration": 0.5,
          "velocity": 100
        },
        {
          "pitch": 62,
          "onset": 167.5,
          "duration": 1.0,
          "velocity": 100
        },
        {
          "pitch": 38,
          "onset": 168.5,
          "duration": 3.5,
          "velocity": 100
        },
        {
          "pitch": 50,
          "onset": 168.5,
          "duration": 3.5,
          "velocity": 100
        },
        {
          "pitch": 53,
          "onset": 168.5,
          "duration": 3.5,
          "velocity": 100
        },
        {
          "pitch": 57,
          "onset": 168.5,
          "duration": 3.5,
          "velocity": 100
        },
        {
          "pitch": 62,
          "onset": 168.5,
          "duration": 3.5,
          "velocity": 100
        },
        {
          "pitch": 62,
          "onset": 174.5,
          "duration": 0.5,
          "velocity": 1
        }
      ]
    }
  ]
}