{
  "bwv": 562,
  "category": "organ_pf",
  "instrument": "organ",
  "form": "fantasia",
  "movement": null,
  "ticks_per_beat": 384,
  "duration_seconds": 251.4,
  "tempos": [
    {
      "tick": 0,
      "bpm": 80
    },
    {
      "tick": 16128,
      "bpm": 80
    },
    {
      "tick": 16512,
      "bpm": 75
    },
    {
      "tick": 16704,
      "bpm": 70
    },
    {
      "tick": 16896,
      "bpm": 60
    },
    {
      "tick": 18432,
      "bpm": 80
    },
    {
      "tick": 32640,
      "bpm": 80
    },
    {
      "tick": 33024,
      "bpm": 75
    },
    {
      "tick": 33408,
      "bpm": 70
    },
    {
      "tick": 33600,
      "bpm": 60
    },
    {
      "tick": 33792,
      "bpm": 80
    },
    {
      "tick": 34176,
      "bpm": 80
    },
    {
      "tick": 76032,
      "bpm": 80
    },
    {
      "tick": 76224,
      "bpm": 75
    },
    {
      "tick": 76416,
      "bpm": 70
    },
    {
      "tick": 76608,
      "bpm": 65
    },
    {
      "tick": 76800,
      "bpm": 75
    },
    {
      "tick": 76992,
      "bpm": 80
    },
    {
      "tick": 114432,
      "bpm": 70
    },
    {
      "tick": 114624,
      "bpm": 60
    },
    {
      "tick": 115776,
      "bpm": 70
    },
    {
      "tick": 115872,
      "bpm": 80
    },
    {
      "tick": 115968,
      "bpm": 90
    },
    {
      "tick": 116160,
      "bpm": 100
    },
    {
      "tick": 116352,
      "bpm": 120
    },
    {
      "tick": 119808,
      "bpm": 110
    },
    {
      "tick": 120000,
      "bpm": 100
    },
    {
      "tick": 120192,
      "bpm": 90
    },
    {
      "tick": 120384,
      "bpm": 80
    },
    {
      "tick": 120480,
      "bpm": 70
    },
    {
      "tick": 122112,
      "bpm": 65
    },
    {
      "tick": 122304,
      "bpm": 60
    },
    {
      "tick": 122496,
      "bpm": 50
    },
    {
      "tick": 122688,
      "bpm": 40
    },
    {
      "tick": 122880,
      "bpm": 60
    }
  ],
  "time_signatures": [
    {
      "tick": 0,
      "numerator": 4,
      "denominator": 4
    }
  ],
  "track_type": "manual",
  "voice_count": 3,
  "total_notes": 1173,
  "tracks": [
    {
      "role": "upper",
      "notes": [
        {
          "pitch": 79,
          "onset": 0.0,
          "duration": 0.125,
          "velocity": 80
        },
        {
          "pitch": 77,
          "onset": 0.125,
          "duration": 0.125,
          "velocity": 80
        },
        {
          "pitch": 79,
          "onset": 0.25,
          "duration": 1.25,
          "velocity": 80
        },
        {
          "pitch": 80,
          "onset": 1.5,
          "duration": 0.5,
          "velocity": 80
        },
        {
          "pitch": 79,
          "onset": 2.0,
          "duration": 0.5,
          "velocity": 80
        },
        {
          "pitch": 77,
          "onset": 2.5,
          "duration": 0.5,
          "velocity": 80
        },
        {
          "pitch": 75,
          "onset": 3.0,
          "duration": 0.5,
          "velocity": 80
        },
        {
          "pitch": 74,
          "onset": 3.5,
          "duration": 0.5,
          "velocity": 80
        },
        {
          "pitch": 74,
          "onset": 4.0,
          "duration": 0.5,
          "velocity": 80
        },
        {
          "pitch": 75,
          "onset": 4.5,
          "duration": 1.0,
          "velocity": 80
        },
        {
          "pitch": 77,
          "onset": 5.5,
          "duration": 0.5,
          "velocity": 80
        },
        {
          "pitch": 79,
          "onset": 6.0,
          "duration": 3.0,
          "velocity": 80
        },
        {
          "pitch": 72,
          "onset": 9.0,
          "duration": 1.0,
          "velocity": 80
        },
        {
          "pitch": 77,
          "onset": 10.0,
          "duration": 0.125,
          "velocity": 80
        },
        {
          "pitch": 75,
          "onset": 10.125,
          "duration": 0.125,
          "velocity": 80
        },
        {
          "pitch": 77,
          "onset": 10.25,
          "duration": 2.75,
          "velocity": 80
        },
        {
          "pitch": 72,
          "onset": 12.0,
          "duration": 2.0,
          "velocity": 80
        },
        {
          "pitch": 75,
          "onset": 13.0,
          "duration": 1.0,
          "velocity": 80
        },
        {
          "pitch": 71,
          "onset": 14.0,
          "duration": 0.125,
          "velocity": 80
        },
        {
          "pitch": 80,
          "onset": 14.0,
          "duration": 2.0,
          "velocity": 80
        },
        {
          "pitch": 72,
          "onset": 14.125,
          "duration": 0.125,
          "velocity": 80
        },
        {
          "pitch": 71,
          "onset": 14.25,
          "duration": 0.125,
          "velocity": 80
        },
        {
          "pitch": 72,
          "onset": 14.375,
          "duration": 0.125,
          "velocity": 80
        },
        {
          "pitch": 71,
          "onset": 14.5,
          "duration": 2.5,
          "velocity": 80
        },
        {
          "pitch": 72,
          "onset": 16.0,
          "duration": 2.0,
          "velocity": 80
        },
        {
          "pitch": 79,
          "onset": 16.0,
          "duration": 5.0,
          "velocity": 80
        },
        {
          "pitch": 73,
          "onset": 18.0,
          "duration": 2.0,
          "velocity": 80
        },
        {
          "pitch": 72,
          "onset": 20.0,
          "duration": 4.0,
          "velocity": 80
        },
        {
          "pitch": 77,
          "onset": 21.0,
          "duration": 0.5,
          "velocity": 80
        },
        {
          "pitch": 75,
          "onset": 21.5,
          "duration": 0.5,
          "velocity": 80
        },
        {
          "pitch": 75,
          "onset": 22.0,
          "duration": 0.5,
          "velocity": 80
        },
        {
          "pitch": 74,
          "onset": 22.5,
          "duration": 0.5,
          "velocity": 80
        },
        {
          "pitch": 75,
          "onset": 23.0,
          "duration": 0.5,
          "velocity": 80
        },
        {
          "pitch": 77,
          "onset": 23.5,
          "duration": 5.5,
          "velocity": 80
        },
        {
          "pitch": 71,
          "onset": 24.0,
          "duration": 4.0,
          "velocity": 80
        },
        {
          "pitch": 72,
          "onset": 28.0,
          "duration": 3.0,
          "velocity": 80
        },
        {
          "pitch": 75,
          "onset": 29.0,
          "duration": 0.125,
          "velocity": 80
        },
        {
          "pitch": 77,
          "onset": 29.125,
          "duration": 0.125,
          "velocity": 80
        },
        {
          "pitch": 75,
          "onset": 29.25,
          "duration": 0.25,
          "velocity": 80
        },
        {
          "pitch": 74,
          "onset": 29.5,
          "duration": 0.5,
          "velocity": 80
        },
        {
          "pitch": 74,
          "onset": 30.0,
          "duration": 0.5,
          "velocity": 80
        },
        {
          "pitch": 75,
          "onset": 30.5,
          "duration": 2.5,
          "velocity": 80
        },
        {
          "pitch": 70,
          "onset": 31.0,
          "duration": 1.0,
          "velocity": 80
        },
        {
          "pitch": 70,
          "onset": 32.0,
          "duration": 0.5,
          "velocity": 80
        },
        {
          "pitch": 68,
          "onset": 32.5,
          "duration": 2.5,
          "velocity": 80
        },
        {
          "pitch": 74,
          "onset": 33.0,
          "duration": 0.5,
          "velocity": 80
        },
        {
          "pitch": 72,
          "onset": 33.5,
          "duration": 0.5,
          "velocity": 80
        },
        {
          "pitch": 72,
          "onset": 34.0,
          "duration": 0.5,
          "velocity": 80
        },
        {
          "pitch": 74,
          "onset": 34.5,
          "duration": 0.5,
          "velocity": 80
        },
        {
          "pitch": 67,
          "onset": 35.0,
          "duration": 2.0,
          "velocity": 80
        },
        {
          "pitch": 72,
          "onset": 35.0,
          "duration": 0.5,
          "velocity": 80
        },
        {
          "pitch": 71,
          "onset": 35.5,
          "duration": 0.5,
          "velocity": 80
        },
        {
          "pitch": 71,
          "onset": 36.0,
          "duration": 0.5,
          "velocity": 80
        },
        {
          "pitch": 72,
          "onset": 36.5,
          "duration": 4.5,
          "velocity": 80
        },
        {
          "pitch": 68,
          "onset": 37.0,
          "duration": 0.5,
          "velocity": 80
        },
        {
          "pitch": 67,
          "onset": 37.5,
          "duration": 0.5,
          "velocity": 80
        },
        {
          "pitch": 65,
          "onset": 38.0,
          "duration": 0.125,
          "velocity": 80
        },
        {
          "pitch": 67,
          "onset": 38.125,
          "duration": 0.125,
          "velocity": 80
        },
        {
          "pitch": 65,
          "onset": 38.25,
          "duration": 0.125,
          "velocity": 80
        },
        {
          "pitch": 67,
          "onset": 38.375,
          "duration": 0.125,
          "velocity": 80
        },
        {
          "pitch": 65,
          "onset": 38.5,
          "duration": 1.5,
          "velocity": 80
        },
        {
          "pitch": 67,
          "onset": 40.0,
          "duration": 7.0,
          "velocity": 80
        },
        {
          "pitch": 74,
          "onset": 41.0,
          "duration": 0.5,
          "velocity": 80
        },
        {
          "pitch": 72,
          "onset": 41.5,
          "duration": 0.5,
          "velocity": 80
        },
        {
          "pitch": 72,
          "onset": 42.0,
          "duration": 0.5,
          "velocity": 80
        },
        {
          "pitch": 71,
          "onset": 42.5,
          "duration": 0.5,
          "velocity": 80
        },
        {
          "pitch": 72,
          "onset": 43.0,
          "duration": 0.5,
          "velocity": 80
        },
        {
          "pitch": 69,
          "onset": 43.5,
          "duration": 0.5,
          "velocity": 80
        },
        {
          "pitch": 69,
          "onset": 44.0,
          "duration": 0.5,
          "velocity": 80
        },
        {
          "pitch": 71,
          "onset": 44.5,
          "duration": 2.5,
          "velocity": 80
        },
        {
          "pitch": 74,
          "onset": 52.0,
          "duration": 0.125,
          "velocity": 80
        },
        {
          "pitch": 72,
          "onset": 52.125,
          "duration": 0.125,
          "velocity": 80
        },
        {
          "pitch": 74,
          "onset": 52.25,
          "duration": 1.25,
          "velocity": 80
        },
        {
          "pitch": 75,
          "onset": 53.5,
          "duration": 0.5,
          "velocity": 80
        },
        {
          "pitch": 74,
          "onset": 54.0,
          "duration": 0.5,
          "velocity": 80
        },
        {
          "pitch": 72,
          "onset": 54.5,
          "duration": 0.5,
          "velocity": 80
        },
        {
          "pitch": 70,
          "onset": 55.0,
          "duration": 0.5,
          "velocity": 80
        },
        {
          "pitch": 69,
          "onset": 55.5,
          "duration": 0.5,
          "velocity": 80
        },
        {
          "pitch": 69,
          "onset": 56.0,
          "duration": 0.5,
          "velocity": 80
        },
        {
          "pitch": 70,
          "onset": 56.5,
          "duration": 0.5,
          "velocity": 80
        },
        {
          "pitch": 71,
          "onset": 57.0,
          "duration": 1.0,
          "velocity": 80
        },
        {
          "pitch": 72,
          "onset": 58.0,
          "duration": 1.0,
          "velocity": 80
        },
        {
          "pitch": 74,
          "onset": 59.0,
          "duration": 2.0,
          "velocity": 80
        },
        {
          "pitch": 79,
          "onset": 60.0,
          "duration": 0.125,
          "velocity": 80
        },
        {
          "pitch": 77,
          "onset": 60.125,
          "duration": 0.125,
          "velocity": 80
        },
        {
          "pitch": 79,
          "onset": 60.25,
          "duration": 1.25,
          "velocity": 80
        },
        {
          "pitch": 72,
          "onset": 61.0,
          "duration": 2.0,
          "velocity": 80
        },
        {
          "pitch": 80,
          "onset": 61.5,
          "duration": 0.5,
          "velocity": 80
        },
        {
          "pitch": 79,
          "onset": 62.0,
          "duration": 0.5,
          "velocity": 80
        },
        {
          "pitch": 77,
          "onset": 62.5,
          "duration": 0.5,
          "velocity": 80
        },
        {
          "pitch": 71,
          "onset": 63.0,
          "duration": 1.0,
          "velocity": 80
        },
        {
          "pitch": 75,
          "onset": 63.0,
          "duration": 0.5,
          "velocity": 80
        },
        {
          "pitch": 74,
          "onset": 63.5,
          "duration": 0.5,
          "velocity": 80
        },
        {
          "pitch": 71,
          "onset": 64.0,
          "duration": 0.5,
          "velocity": 80
        },
        {
          "pitch": 74,
          "onset": 64.0,
          "duration": 0.5,
          "velocity": 80
        },
        {
          "pitch": 72,
          "onset": 64.5,
          "duration": 1.0,
          "velocity": 80
        },
        {
          "pitch": 75,
          "onset": 64.5,
          "duration": 1.5,
          "velocity": 80
        },
        {
          "pitch": 74,
          "onset": 65.5,
          "duration": 0.5,
          "velocity": 80
        },
        {
          "pitch": 72,
          "onset": 66.0,
          "duration": 0.5,
          "velocity": 80
        },
        {
          "pitch": 74,
          "onset": 66.0,
          "duration": 1.0,
          "velocity": 80
        },
        {
          "pitch": 70,
          "onset": 66.5,
          "duration": 0.5,
          "velocity": 80
        },
        {
          "pitch": 69,
          "onset": 67.0,
          "duration": 0.5,
          "velocity": 80
        },
        {
          "pitch": 72,
          "onset": 67.0,
          "duration": 0.5,
          "velocity": 80
        },
        {
          "pitch": 67,
          "onset": 67.5,
          "duration": 0.5,
          "velocity": 80
        },
        {
          "pitch": 70,
          "onset": 67.5,
          "duration": 0.5,
          "velocity": 80
        },
        {
          "pitch": 66,
          "onset": 68.0,
          "duration": 1.5,
          "velocity": 80
        },
        {
          "pitch": 69,
          "onset": 68.0,
          "duration": 0.5,
          "velocity": 80
        },
        {
          "pitch": 70,
          "onset": 68.5,
          "duration": 0.5,
          "velocity": 80
        },
        {
          "pitch": 69,
          "onset": 69.0,
          "duration": 0.5,
          "velocity": 80
        },
        {
          "pitch": 67,
          "onset": 69.5,
          "duration": 0.5,
          "velocity": 80
        },
        {
          "pitch": 70,
          "onset": 69.5,
          "duration": 0.5,
          "velocity": 80
        },
        {
          "pitch": 69,
          "onset": 70.0,
          "duration": 0.125,
          "velocity": 80
        },
        {
          "pitch": 72,
          "onset": 70.0,
          "duration": 3.0,
          "velocity": 80
        },
        {
          "pitch": 67,
          "onset": 70.125,
          "duration": 0.125,
          "velocity": 80
        },
        {
          "pitch": 69,
          "onset": 70.25,
          "duration": 2.75,
          "velocity": 80
        },
        {
          "pitch": 67,
          "onset": 73.0,
          "duration": 0.5,
          "velocity": 80
        },
        {
          "pitch": 70,
          "onset": 73.0,
          "duration": 0.125,
          "velocity": 80
        },
        {
          "pitch": 72,
          "onset": 73.125,
          "duration": 0.125,
          "velocity": 80
        },
        {
          "pitch": 70,
          "onset": 73.25,
          "duration": 0.25,
          "velocity": 80
        },
        {
          "pitch": 66,
          "onset": 73.5,
          "duration": 0.5,
          "velocity": 80
        },
        {
          "pitch": 69,
          "onset": 73.5,
          "duration": 0.5,
          "velocity": 80
        },
        {
          "pitch": 67,
          "onset": 74.0,
          "duration": 3.0,
          "velocity": 80
        },
        {
          "pitch": 69,
          "onset": 74.0,
          "duration": 0.5,
          "velocity": 80
        },
        {
          "pitch": 70,
          "onset": 74.5,
          "duration": 0.5,
          "velocity": 80
        },
        {
          "pitch": 72,
          "onset": 75.0,
          "duration": 0.5,
          "velocity": 80
        },
        {
          "pitch": 74,
          "onset": 75.5,
          "duration": 0.5,
          "velocity": 80
        },
        {
          "pitch": 74,
          "onset": 76.0,
          "duration": 0.5,
          "velocity": 80
        },
        {
          "pitch": 75,
          "onset": 76.5,
          "duration": 2.5,
          "velocity": 80
        },
        {
          "pitch": 72,
          "onset": 77.0,
          "duration": 2.0,
          "velocity": 80
        },
        {
          "pitch": 70,
          "onset": 79.0,
          "duration": 0.5,
          "velocity": 80
        },
        {
          "pitch": 74,
          "onset": 79.0,
          "duration": 2.0,
          "velocity": 80
        },
        {
          "pitch": 69,
          "onset": 79.5,
          "duration": 0.5,
          "velocity": 80
        },
        {
          "pitch": 69,
          "onset": 80.0,
          "duration": 0.5,
          "velocity": 80
        },
        {
          "pitch": 67,
          "onset": 80.5,
          "duration": 2.0,
          "velocity": 80
        },
        {
          "pitch": 75,
          "onset": 81.0,
          "duration": 0.5,
          "velocity": 80
        },
        {
          "pitch": 74,
          "onset": 81.5,
          "duration": 0.5,
          "velocity": 80
        },
        {
          "pitch": 72,
          "onset": 82.0,
          "duration": 3.0,
          "velocity": 80
        },
        {
          "pitch": 70,
          "onset": 82.5,
          "duration": 0.5,
          "velocity": 80
        },
        {
          "pitch": 69,
          "onset": 83.0,
          "duration": 0.5,
          "velocity": 80
        },
        {
          "pitch": 67,
          "onset": 83.5,
          "duration": 0.5,
          "velocity": 80
        },
        {
          "pitch": 66,
          "onset": 84.0,
          "duration": 2.0,
          "velocity": 80
        },
        {
          "pitch": 74,
          "onset": 85.0,
          "duration": 0.5,
          "velocity": 80
        },
        {
          "pitch": 72,
          "onset": 85.5,
          "duration": 0.5,
          "velocity": 80
        },
        {
          "pitch": 67,
          "onset": 86.0,
          "duration": 1.0,
          "velocity": 80
        },
        {
          "pitch": 70,
          "onset": 86.0,
          "duration": 0.125,
          "velocity": 80
        },
        {
          "pitch": 72,
          "onset": 86.125,
          "duration": 0.125,
          "velocity": 80
        },
        {
          "pitch": 70,
          "onset": 86.25,
          "duration": 0.75,
          "velocity": 80
        },
        {
          "pitch": 66,
          "onset": 87.0,
          "duration": 0.5,
          "velocity": 80
        },
        {
          "pitch": 69,
          "onset": 87.0,
          "duration": 0.5,
          "velocity": 80
        },
        {
          "pitch": 67,
          "onset": 87.5,
          "duration": 0.5,
          "velocity": 80
        },
        {
          "pitch": 70,
          "onset": 87.5,
          "duration": 0.5,
          "velocity": 80
        },
        {
          "pitch": 66,
          "onset": 88.0,
          "duration": 1.0,
          "velocity": 80
        },
        {
          "pitch": 69,
          "onset": 88.0,
          "duration": 1.0,
          "velocity": 80
        },
        {
          "pitch": 74,
          "onset": 89.0,
          "duration": 1.0,
          "velocity": 80
        },
        {
          "pitch": 81,
          "onset": 90.0,
          "duration": 0.125,
          "velocity": 80
        },
        {
          "pitch": 79,
          "onset": 90.125,
          "duration": 0.125,
          "velocity": 80
        },
        {
          "pitch": 81,
          "onset": 90.25,
          "duration": 2.25,
          "velocity": 80
        },
        {
          "pitch": 79,
          "onset": 92.5,
          "duration": 0.5,
          "velocity": 80
        },
        {
          "pitch": 78,
          "onset": 93.0,
          "duration": 0.5,
          "velocity": 80
        },
        {
          "pitch": 79,
          "onset": 93.5,
          "duration": 0.5,
          "velocity": 80
        },
        {
          "pitch": 81,
          "onset": 94.0,
          "duration": 0.5,
          "velocity": 80
        },
        {
          "pitch": 78,
          "onset": 94.5,
          "duration": 0.5,
          "velocity": 80
        },
        {
          "pitch": 79,
          "onset": 95.0,
          "duration": 0.5,
          "velocity": 80
        },
        {
          "pitch": 81,
          "onset": 95.5,
          "duration": 0.5,
          "velocity": 80
        },
        {
          "pitch": 74,
          "onset": 96.0,
          "duration": 2.0,
          "velocity": 80
        },
        {
          "pitch": 79,
          "onset": 100.0,
          "duration": 1.5,
          "velocity": 80
        },
        {
          "pitch": 80,
          "onset": 101.5,
          "duration": 0.5,
          "velocity": 80
        },
        {
          "pitch": 79,
          "onset": 102.0,
          "duration": 0.5,
          "velocity": 80
        },
        {
          "pitch": 77,
          "onset": 102.5,
          "duration": 0.5,
          "velocity": 80
        },
        {
          "pitch": 75,
          "onset": 103.0,
          "duration": 0.5,
          "velocity": 80
        },
        {
          "pitch": 74,
          "onset": 103.5,
          "duration": 0.5,
          "velocity": 80
        },
        {
          "pitch": 77,
          "onset": 104.0,
          "duration": 0.5,
          "velocity": 80
        },
        {
          "pitch": 75,
          "onset": 104.5,
          "duration": 0.5,
          "velocity": 80
        },
        {
          "pitch": 74,
          "onset": 105.0,
          "duration": 0.5,
          "velocity": 80
        },
        {
          "pitch": 72,
          "onset": 105.5,
          "duration": 0.5,
          "velocity": 80
        },
        {
          "pitch": 79,
          "onset": 106.0,
          "duration": 2.5,
          "velocity": 80
        },
        {
          "pitch": 77,
          "onset": 108.5,
          "duration": 0.5,
          "velocity": 80
        },
        {
          "pitch": 76,
          "onset": 109.0,
          "duration": 0.5,
          "velocity": 80
        },
        {
          "pitch": 77,
          "onset": 109.5,
          "duration": 0.5,
          "velocity": 80
        },
        {
          "pitch": 79,
          "onset": 110.0,
          "duration": 0.5,
          "velocity": 80
        },
        {
          "pitch": 76,
          "onset": 110.5,
          "duration": 0.5,
          "velocity": 80
        },
        {
          "pitch": 77,
          "onset": 111.0,
          "duration": 0.5,
          "velocity": 80
        },
        {
          "pitch": 79,
          "onset": 111.5,
          "duration": 0.5,
          "velocity": 80
        },
        {
          "pitch": 72,
          "onset": 112.0,
          "duration": 2.0,
          "velocity": 80
        },
        {
          "pitch": 77,
          "onset": 116.0,
          "duration": 1.5,
          "velocity": 80
        },
        {
          "pitch": 79,
          "onset": 117.5,
          "duration": 0.5,
          "velocity": 80
        },
        {
          "pitch": 77,
          "onset": 118.0,
          "duration": 0.5,
          "velocity": 80
        },
        {
          "pitch": 75,
          "onset": 118.5,
          "duration": 0.5,
          "velocity": 80
        },
        {
          "pitch": 74,
          "onset": 119.0,
          "duration": 0.5,
          "velocity": 80
        },
        {
          "pitch": 72,
          "onset": 119.5,
          "duration": 0.5,
          "velocity": 80
        },
        {
          "pitch": 70,
          "onset": 120.0,
          "duration": 1.5,
          "velocity": 80
        },
        {
          "pitch": 74,
          "onset": 120.0,
          "duration": 1.5,
          "velocity": 80
        },
        {
          "pitch": 72,
          "onset": 121.5,
          "duration": 0.5,
          "velocity": 80
        },
        {
          "pitch": 75,
          "onset": 121.5,
          "duration": 0.5,
          "velocity": 80
        },
        {
          "pitch": 70,
          "onset": 122.0,
          "duration": 0.5,
          "velocity": 80
        },
        {
          "pitch": 77,
          "onset": 122.0,
          "duration": 3.0,
          "velocity": 80
        },
        {
          "pitch": 68,
          "onset": 122.5,
          "duration": 0.5,
          "velocity": 80
        },
        {
          "pitch": 67,
          "onset": 123.0,
          "duration": 0.5,
          "velocity": 80
        },
        {
          "pitch": 65,
          "onset": 123.5,
          "duration": 0.5,
          "velocity": 80
        },
        {
          "pitch": 67,
          "onset": 124.0,
          "duration": 2.0,
          "velocity": 80
        },
        {
          "pitch": 75,
          "onset": 125.0,
          "duration": 1.5,
          "velocity": 80
        },
        {
          "pitch": 65,
          "onset": 126.0,
          "duration": 3.0,
          "velocity": 80
        },
        {
          "pitch": 74,
          "onset": 126.5,
          "duration": 0.5,
          "velocity": 80
        },
        {
          "pitch": 75,
          "onset": 127.0,
          "duration": 0.5,
          "velocity": 80
        },
        {
          "pitch": 77,
          "onset": 127.5,
          "duration": 0.5,
          "velocity": 80
        },
        {
          "pitch": 70,
          "onset": 128.0,
          "duration": 5.0,
          "velocity": 80
        },
        {
          "pitch": 63,
          "onset": 129.0,
          "duration": 0.5,
          "velocity": 80
        },
        {
          "pitch": 62,
          "onset": 129.5,
          "duration": 0.5,
          "velocity": 80
        },
        {
          "pitch": 63,
          "onset": 130.0,
          "duration": 1.0,
          "velocity": 80
        },
        {
          "pitch": 65,
          "onset": 131.0,
          "duration": 0.5,
          "velocity": 80
        },
        {
          "pitch": 67,
          "onset": 131.5,
          "duration": 0.5,
          "velocity": 80
        },
        {
          "pitch": 60,
          "onset": 132.0,
          "duration": 4.0,
          "velocity": 80
        },
        {
          "pitch": 68,
          "onset": 133.0,
          "duration": 0.5,
          "velocity": 80
        },
        {
          "pitch": 67,
          "onset": 133.5,
          "duration": 0.5,
          "velocity": 80
        },
        {
          "pitch": 68,
          "onset": 134.0,
          "duration": 3.0,
          "velocity": 80
        },
        {
          "pitch": 58,
          "onset": 136.0,
          "duration": 2.0,
          "velocity": 80
        },
        {
          "pitch": 67,
          "onset": 137.0,
          "duration": 0.5,
          "velocity": 80
        },
        {
          "pitch": 65,
          "onset": 137.5,
          "duration": 0.5,
          "velocity": 80
        },
        {
          "pitch": 63,
          "onset": 138.0,
          "duration": 5.0,
          "velocity": 80
        },
        {
          "pitch": 67,
          "onset": 138.0,
          "duration": 1.0,
          "velocity": 80
        },
        {
          "pitch": 68,
          "onset": 139.0,
          "duration": 0.5,
          "velocity": 80
        },
        {
          "pitch": 70,
          "onset": 139.5,
          "duration": 0.5,
          "velocity": 80
        },
        {
          "pitch": 72,
          "onset": 140.0,
          "duration": 1.0,
          "velocity": 80
        },
        {
          "pitch": 75,
          "onset": 141.0,
          "duration": 0.5,
          "velocity": 80
        },
        {
          "pitch": 74,
          "onset": 141.5,
          "duration": 0.5,
          "velocity": 80
        },
        {
          "pitch": 74,
          "onset": 142.0,
          "duration": 0.5,
          "velocity": 80
        },
        {
          "pitch": 75,
          "onset": 142.5,
          "duration": 3.0,
          "velocity": 80
        },
        {
          "pitch": 65,
          "onset": 143.0,
          "duration": 1.0,
          "velocity": 80
        },
        {
          "pitch": 67,
          "onset": 144.0,
          "duration": 1.5,
          "velocity": 80
        },
        {
          "pitch": 68,
          "onset": 145.5,
          "duration": 0.5,
          "velocity": 80
        },
        {
          "pitch": 77,
          "onset": 145.5,
          "duration": 0.5,
          "velocity": 80
        },
        {
          "pitch": 65,
          "onset": 146.0,
          "duration": 2.0,
          "velocity": 80
        },
        {
          "pitch": 74,
          "onset": 146.0,
          "duration": 0.125,
          "velocity": 80
        },
        {
          "pitch": 75,
          "onset": 146.125,
          "duration": 0.125,
          "velocity": 80
        },
        {
          "pitch": 74,
          "onset": 146.25,
          "duration": 0.125,
          "velocity": 80
        },
        {
          "pitch": 75,
          "onset": 146.375,
          "duration": 0.125,
          "velocity": 80
        },
        {
          "pitch": 74,
          "onset": 146.5,
          "duration": 1.5,
          "velocity": 80
        },
        {
          "pitch": 63,
          "onset": 148.0,
          "duration": 5.0,
          "velocity": 80
        },
        {
          "pitch": 75,
          "onset": 148.0,
          "duration": 5.5,
          "velocity": 80
        },
        {
          "pitch": 68,
          "onset": 153.0,
          "duration": 2.0,
          "velocity": 80
        },
        {
          "pitch": 77,
          "onset": 153.5,
          "duration": 0.5,
          "velocity": 80
        },
        {
          "pitch": 75,
          "onset": 154.0,
          "duration": 0.5,
          "velocity": 80
        },
        {
          "pitch": 73,
          "onset": 154.5,
          "duration": 0.5,
          "velocity": 80
        },
        {
          "pitch": 67,
          "onset": 155.0,
          "duration": 1.0,
          "velocity": 80
        },
        {
          "pitch": 72,
          "onset": 155.0,
          "duration": 0.5,
          "velocity": 80
        },
        {
          "pitch": 70,
          "onset": 155.5,
          "duration": 0.5,
          "velocity": 80
        },
        {
          "pitch": 68,
          "onset": 156.0,
          "duration": 0.125,
          "velocity": 80
        },
        {
          "pitch": 72,
          "onset": 156.0,
          "duration": 1.0,
          "velocity": 80
        },
        {
          "pitch": 67,
          "onset": 156.125,
          "duration": 0.125,
          "velocity": 80
        },
        {
          "pitch": 68,
          "onset": 156.25,
          "duration": 1.25,
          "velocity": 80
        },
        {
          "pitch": 77,
          "onset": 157.0,
          "duration": 1.0,
          "velocity": 80
        },
        {
          "pitch": 70,
          "onset": 157.5,
          "duration": 0.5,
          "velocity": 80
        },
        {
          "pitch": 68,
          "onset": 158.0,
          "duration": 0.5,
          "velocity": 80
        },
        {
          "pitch": 70,
          "onset": 158.0,
          "duration": 1.0,
          "velocity": 80
        },
        {
          "pitch": 67,
          "onset": 158.5,
          "duration": 0.5,
          "velocity": 80
        },
        {
          "pitch": 65,
          "onset": 159.0,
          "duration": 0.5,
          "velocity": 80
        },
        {
          "pitch": 75,
          "onset": 159.0,
          "duration": 1.0,
          "velocity": 80
        },
        {
          "pitch": 63,
          "onset": 159.5,
          "duration": 0.5,
          "velocity": 80
        },
        {
          "pitch": 65,
          "onset": 160.0,
          "duration": 4.0,
          "velocity": 80
        },
        {
          "pitch": 68,
          "onset": 160.0,
          "duration": 0.125,
          "velocity": 80
        },
        {
          "pitch": 67,
          "onset": 160.125,
          "duration": 0.125,
          "velocity": 80
        },
        {
          "pitch": 68,
          "onset": 160.25,
          "duration": 1.25,
          "velocity": 80
        },
        {
          "pitch": 72,
          "onset": 161.5,
          "duration": 0.5,
          "velocity": 80
        },
        {
          "pitch": 70,
          "onset": 162.0,
          "duration": 0.5,
          "velocity": 80
        },
        {
          "pitch": 68,
          "onset": 162.5,
          "duration": 0.5,
          "velocity": 80
        },
        {
          "pitch": 67,
          "onset": 163.0,
          "duration": 0.5,
          "velocity": 80
        },
        {
          "pitch": 68,
          "onset": 163.5,
          "duration": 0.5,
          "velocity": 80
        },
        {
          "pitch": 63,
          "onset": 164.0,
          "duration": 0.5,
          "velocity": 80
        },
        {
          "pitch": 67,
          "onset": 164.0,
          "duration": 1.0,
          "velocity": 80
        },
        {
          "pitch": 62,
          "onset": 164.5,
          "duration": 0.5,
          "velocity": 80
        },
        {
          "pitch": 63,
          "onset": 165.0,
          "duration": 0.5,
          "velocity": 80
        },
        {
          "pitch": 65,
          "onset": 165.5,
          "duration": 0.5,
          "velocity": 80
        },
        {
          "pitch": 67,
          "onset": 166.0,
          "duration": 0.5,
          "velocity": 80
        },
        {
          "pitch": 68,
          "onset": 166.5,
          "duration": 0.5,
          "velocity": 80
        },
        {
          "pitch": 65,
          "onset": 167.0,
          "duration": 0.5,
          "velocity": 80
        },
        {
          "pitch": 67,
          "onset": 167.5,
          "duration": 0.5,
          "velocity": 80
        },
        {
          "pitch": 68,
          "onset": 168.0,
          "duration": 0.5,
          "velocity": 80
        },
        {
          "pitch": 70,
          "onset": 168.5,
          "duration": 0.5,
          "velocity": 80
        },
        {
          "pitch": 67,
          "onset": 169.0,
          "duration": 0.5,
          "velocity": 80
        },
        {
          "pitch": 68,
          "onset": 169.5,
          "duration": 0.5,
          "velocity": 80
        },
        {
          "pitch": 70,
          "onset": 170.0,
          "duration": 3.0,
          "velocity": 80
        },
        {
          "pitch": 72,
          "onset": 172.0,
          "duration": 1.5,
          "velocity": 80
        },
        {
          "pitch": 68,
          "onset": 173.0,
          "duration": 1.5,
          "velocity": 80
        },
        {
          "pitch": 73,
          "onset": 173.5,
          "duration": 0.5,
          "velocity": 80
        },
        {
          "pitch": 72,
          "onset": 174.0,
          "duration": 0.5,
          "velocity": 80
        },
        {
          "pitch": 67,
          "onset": 174.5,
          "duration": 0.5,
          "velocity": 80
        },
        {
          "pitch": 70,
          "onset": 174.5,
          "duration": 0.5,
          "velocity": 80
        },
        {
          "pitch": 65,
          "onset": 175.0,
          "duration": 0.5,
          "velocity": 80
        },
        {
          "pitch": 68,
          "onset": 175.0,
          "duration": 0.5,
          "velocity": 80
        },
        {
          "pitch": 64,
          "onset": 175.5,
          "duration": 0.5,
          "velocity": 80
        },
        {
          "pitch": 67,
          "onset": 175.5,
          "duration": 0.5,
          "velocity": 80
        },
        {
          "pitch": 65,
          "onset": 176.0,
          "duration": 0.5,
          "velocity": 80
        },
        {
          "pitch": 68,
          "onset": 176.0,
          "duration": 1.0,
          "velocity": 80
        },
        {
          "pitch": 64,
          "onset": 176.5,
          "duration": 0.5,
          "velocity": 80
        },
        {
          "pitch": 65,
          "onset": 177.0,
          "duration": 0.5,
          "velocity": 80
        },
        {
          "pitch": 72,
          "onset": 177.0,
          "duration": 1.0,
          "velocity": 80
        },
        {
          "pitch": 67,
          "onset": 177.5,
          "duration": 0.5,
          "velocity": 80
        },
        {
          "pitch": 68,
          "onset": 178.0,
          "duration": 0.5,
          "velocity": 80
        },
        {
          "pitch": 77,
          "onset": 178.0,
          "duration": 3.5,
          "velocity": 80
        },
        {
          "pitch": 70,
          "onset": 178.5,
          "duration": 0.5,
          "velocity": 80
        },
        {
          "pitch": 67,
          "onset": 179.0,
          "duration": 0.5,
          "velocity": 80
        },
        {
          "pitch": 68,
          "onset": 179.5,
          "duration": 0.5,
          "velocity": 80
        },
        {
          "pitch": 70,
          "onset": 180.0,
          "duration": 0.5,
          "velocity": 80
        },
        {
          "pitch": 72,
          "onset": 180.5,
          "duration": 0.5,
          "velocity": 80
        },
        {
          "pitch": 69,
          "onset": 181.0,
          "duration": 0.5,
          "velocity": 80
        },
        {
          "pitch": 70,
          "onset": 181.5,
          "duration": 0.5,
          "velocity": 80
        },
        {
          "pitch": 78,
          "onset": 181.5,
          "duration": 0.5,
          "velocity": 80
        },
        {
          "pitch": 72,
          "onset": 182.0,
          "duration": 1.5,
          "velocity": 80
        },
        {
          "pitch": 77,
          "onset": 182.0,
          "duration": 0.5,
          "velocity": 80
        },
        {
          "pitch": 75,
          "onset": 182.5,
          "duration": 0.5,
          "velocity": 80
        },
        {
          "pitch": 73,
          "onset": 183.0,
          "duration": 0.5,
          "velocity": 80
        },
        {
          "pitch": 72,
          "onset": 183.5,
          "duration": 1.5,
          "velocity": 80
        },
        {
          "pitch": 73,
          "onset": 184.0,
          "duration": 2.0,
          "velocity": 80
        },
        {
          "pitch": 70,
          "onset": 185.0,
          "duration": 2.0,
          "velocity": 80
        },
        {
          "pitch": 72,
          "onset": 186.0,
          "duration": 2.5,
          "velocity": 80
        },
        {
          "pitch": 68,
          "onset": 188.0,
          "duration": 2.0,
          "velocity": 80
        },
        {
          "pitch": 77,
          "onset": 188.5,
          "duration": 0.5,
          "velocity": 80
        },
        {
          "pitch": 79,
          "onset": 189.0,
          "duration": 0.5,
          "velocity": 80
        },
        {
          "pitch": 80,
          "onset": 189.5,
          "duration": 1.0,
          "velocity": 80
        },
        {
          "pitch": 70,
          "onset": 190.0,
          "duration": 2.0,
          "velocity": 80
        },
        {
          "pitch": 80,
          "onset": 190.5,
          "duration": 0.5,
          "velocity": 80
        },
        {
          "pitch": 79,
          "onset": 191.0,
          "duration": 0.5,
          "velocity": 80
        },
        {
          "pitch": 77,
          "onset": 191.5,
          "duration": 0.5,
          "velocity": 80
        },
        {
          "pitch": 72,
          "onset": 192.0,
          "duration": 4.0,
          "velocity": 80
        },
        {
          "pitch": 76,
          "onset": 192.0,
          "duration": 0.5,
          "velocity": 80
        },
        {
          "pitch": 74,
          "onset": 192.5,
          "duration": 0.5,
          "velocity": 80
        },
        {
          "pitch": 76,
          "onset": 193.0,
          "duration": 0.5,
          "velocity": 80
        },
        {
          "pitch": 77,
          "onset": 193.5,
          "duration": 0.5,
          "velocity": 80
        },
        {
          "pitch": 79,
          "onset": 194.0,
          "duration": 0.5,
          "velocity": 80
        },
        {
          "pitch": 76,
          "onset": 194.5,
          "duration": 0.5,
          "velocity": 80
        },
        {
          "pitch": 77,
          "onset": 195.0,
          "duration": 0.5,
          "velocity": 80
        },
        {
          "pitch": 79,
          "onset": 195.5,
          "duration": 0.5,
          "velocity": 80
        },
        {
          "pitch": 72,
          "onset": 196.0,
          "duration": 1.5,
          "velocity": 80
        },
        {
          "pitch": 70,
          "onset": 196.5,
          "duration": 0.5,
          "velocity": 80
        },
        {
          "pitch": 68,
          "onset": 197.0,
          "duration": 1.0,
          "velocity": 80
        },
        {
          "pitch": 73,
          "onset": 197.5,
          "duration": 0.5,
          "velocity": 80
        },
        {
          "pitch": 72,
          "onset": 198.0,
          "duration": 0.5,
          "velocity": 80
        },
        {
          "pitch": 70,
          "onset": 198.5,
          "duration": 0.5,
          "velocity": 80
        },
        {
          "pitch": 68,
          "onset": 199.0,
          "duration": 0.5,
          "velocity": 80
        },
        {
          "pitch": 67,
          "onset": 199.5,
          "duration": 0.5,
          "velocity": 80
        },
        {
          "pitch": 68,
          "onset": 200.0,
          "duration": 0.5,
          "velocity": 80
        },
        {
          "pitch": 70,
          "onset": 200.5,
          "duration": 0.25,
          "velocity": 80
        },
        {
          "pitch": 72,
          "onset": 200.75,
          "duration": 0.25,
          "velocity": 80
        },
        {
          "pitch": 73,
          "onset": 201.0,
          "duration": 1.5,
          "velocity": 80
        },
        {
          "pitch": 72,
          "onset": 202.5,
          "duration": 0.25,
          "velocity": 80
        },
        {
          "pitch": 70,
          "onset": 202.75,
          "duration": 0.25,
          "velocity": 80
        },
        {
          "pitch": 72,
          "onset": 203.0,
          "duration": 1.5,
          "velocity": 80
        },
        {
          "pitch": 65,
          "onset": 204.5,
          "duration": 0.5,
          "velocity": 80
        },
        {
          "pitch": 64,
          "onset": 205.0,
          "duration": 0.5,
          "velocity": 80
        },
        {
          "pitch": 65,
          "onset": 205.5,
          "duration": 0.5,
          "velocity": 80
        },
        {
          "pitch": 70,
          "onset": 206.0,
          "duration": 2.5,
          "velocity": 80
        },
        {
          "pitch": 68,
          "onset": 208.5,
          "duration": 0.5,
          "velocity": 80
        },
        {
          "pitch": 72,
          "onset": 209.0,
          "duration": 0.5,
          "velocity": 80
        },
        {
          "pitch": 77,
          "onset": 209.5,
          "duration": 1.0,
          "velocity": 80
        },
        {
          "pitch": 70,
          "onset": 210.5,
          "duration": 0.5,
          "velocity": 80
        },
        {
          "pitch": 76,
          "onset": 211.0,
          "duration": 0.5,
          "velocity": 80
        },
        {
          "pitch": 79,
          "onset": 211.5,
          "duration": 1.0,
          "velocity": 80
        },
        {
          "pitch": 72,
          "onset": 212.0,
          "duration": 1.5,
          "velocity": 80
        },
        {
          "pitch": 77,
          "onset": 212.5,
          "duration": 0.5,
          "velocity": 80
        },
        {
          "pitch": 80,
          "onset": 213.0,
          "duration": 1.5,
          "velocity": 80
        },
        {
          "pitch": 73,
          "onset": 213.5,
          "duration": 0.5,
          "velocity": 80
        },
        {
          "pitch": 72,
          "onset": 214.0,
          "duration": 0.5,
          "velocity": 80
        },
        {
          "pitch": 70,
          "onset": 214.5,
          "duration": 0.5,
          "velocity": 80
        },
        {
          "pitch": 79,
          "onset": 214.5,
          "duration": 0.5,
          "velocity": 80
        },
        {
          "pitch": 68,
          "onset": 215.0,
          "duration": 0.5,
          "velocity": 80
        },
        {
          "pitch": 77,
          "onset": 215.0,
          "duration": 0.5,
          "velocity": 80
        },
        {
          "pitch": 67,
          "onset": 215.5,
          "duration": 0.5,
          "velocity": 80
        },
        {
          "pitch": 76,
          "onset": 215.5,
          "duration": 0.5,
          "velocity": 80
        },
        {
          "pitch": 68,
          "onset": 216.0,
          "duration": 2.0,
          "velocity": 80
        },
        {
          "pitch": 77,
          "onset": 216.0,
          "duration": 9.5,
          "velocity": 80
        },
        {
          "pitch": 69,
          "onset": 218.0,
          "duration": 0.125,
          "velocity": 80
        },
        {
          "pitch": 70,
          "onset": 218.125,
          "duration": 0.125,
          "velocity": 80
        },
        {
          "pitch": 69,
          "onset": 218.25,
          "duration": 0.125,
          "velocity": 80
        },
        {
          "pitch": 70,
          "onset": 218.375,
          "duration": 0.125,
          "velocity": 80
        },
        {
          "pitch": 69,
          "onset": 218.5,
          "duration": 0.125,
          "velocity": 80
        },
        {
          "pitch": 70,
          "onset": 218.625,
          "duration": 0.125,
          "velocity": 80
        },
        {
          "pitch": 69,
          "onset": 218.75,
          "duration": 0.125,
          "velocity": 80
        },
        {
          "pitch": 70,
          "onset": 218.875,
          "duration": 0.125,
          "velocity": 80
        },
        {
          "pitch": 69,
          "onset": 219.0,
          "duration": 1.0,
          "velocity": 80
        },
        {
          "pitch": 65,
          "onset": 220.0,
          "duration": 0.5,
          "velocity": 80
        },
        {
          "pitch": 70,
          "onset": 220.0,
          "duration": 2.0,
          "velocity": 80
        },
        {
          "pitch": 67,
          "onset": 220.5,
          "duration": 0.5,
          "velocity": 80
        },
        {
          "pitch": 68,
          "onset": 221.0,
          "duration": 1.5,
          "velocity": 80
        },
        {
          "pitch": 72,
          "onset": 222.0,
          "duration": 1.0,
          "velocity": 80
        },
        {
          "pitch": 65,
          "onset": 222.5,
          "duration": 0.5,
          "velocity": 80
        },
        {
          "pitch": 63,
          "onset": 223.0,
          "duration": 0.5,
          "velocity": 80
        },
        {
          "pitch": 74,
          "onset": 223.0,
          "duration": 0.5,
          "velocity": 80
        },
        {
          "pitch": 62,
          "onset": 223.5,
          "duration": 0.5,
          "velocity": 80
        },
        {
          "pitch": 75,
          "onset": 223.5,
          "duration": 0.5,
          "velocity": 80
        },
        {
          "pitch": 67,
          "onset": 224.0,
          "duration": 5.0,
          "velocity": 80
        },
        {
          "pitch": 79,
          "onset": 225.5,
          "duration": 0.5,
          "velocity": 80
        },
        {
          "pitch": 77,
          "onset": 226.0,
          "duration": 0.5,
          "velocity": 80
        },
        {
          "pitch": 75,
          "onset": 226.5,
          "duration": 0.5,
          "velocity": 80
        },
        {
          "pitch": 74,
          "onset": 227.0,
          "duration": 0.5,
          "velocity": 80
        },
        {
          "pitch": 72,
          "onset": 227.5,
          "duration": 0.5,
          "velocity": 80
        },
        {
          "pitch": 74,
          "onset": 228.0,
          "duration": 1.5,
          "velocity": 80
        },
        {
          "pitch": 75,
          "onset": 229.5,
          "duration": 0.5,
          "velocity": 80
        },
        {
          "pitch": 74,
          "onset": 230.0,
          "duration": 0.5,
          "velocity": 80
        },
        {
          "pitch": 72,
          "onset": 230.5,
          "duration": 0.5,
          "velocity": 80
        },
        {
          "pitch": 71,
          "onset": 231.0,
          "duration": 0.5,
          "velocity": 80
        },
        {
          "pitch": 72,
          "onset": 231.5,
          "duration": 0.5,
          "velocity": 80
        },
        {
          "pitch": 72,
          "onset": 232.0,
          "duration": 0.5,
          "velocity": 80
        },
        {
          "pitch": 71,
          "onset": 232.5,
          "duration": 1.0,
          "velocity": 80
        },
        {
          "pitch": 74,
          "onset": 233.5,
          "duration": 0.5,
          "velocity": 80
        },
        {
          "pitch": 74,
          "onset": 234.0,
          "duration": 0.5,
          "velocity": 80
        },
        {
          "pitch": 72,
          "onset": 234.5,
          "duration": 1.0,
          "velocity": 80
        },
        {
          "pitch": 75,
          "onset": 235.5,
          "duration": 0.5,
          "velocity": 80
        },
        {
          "pitch": 75,
          "onset": 236.0,
          "duration": 0.5,
          "velocity": 80
        },
        {
          "pitch": 74,
          "onset": 236.5,
          "duration": 1.0,
          "velocity": 80
        },
        {
          "pitch": 77,
          "onset": 237.5,
          "duration": 0.5,
          "velocity": 80
        },
        {
          "pitch": 72,
          "onset": 238.0,
          "duration": 1.5,
          "velocity": 80
        },
        {
          "pitch": 77,
          "onset": 238.0,
          "duration": 0.5,
          "velocity": 80
        },
        {
          "pitch": 75,
          "onset": 238.5,
          "duration": 1.5,
          "velocity": 80
        },
        {
          "pitch": 73,
          "onset": 239.5,
          "duration": 0.5,
          "velocity": 80
        },
        {
          "pitch": 72,
          "onset": 240.0,
          "duration": 0.5,
          "velocity": 80
        },
        {
          "pitch": 77,
          "onset": 240.0,
          "duration": 1.0,
          "velocity": 80
        },
        {
          "pitch": 70,
          "onset": 240.5,
          "duration": 0.5,
          "velocity": 80
        },
        {
          "pitch": 68,
          "onset": 241.0,
          "duration": 0.5,
          "velocity": 80
        },
        {
          "pitch": 79,
          "onset": 241.0,
          "duration": 1.0,
          "velocity": 80
        },
        {
          "pitch": 67,
          "onset": 241.5,
          "duration": 0.5,
          "velocity": 80
        },
        {
          "pitch": 68,
          "onset": 242.0,
          "duration": 2.0,
          "velocity": 80
        },
        {
          "pitch": 72,
          "onset": 242.0,
          "duration": 1.0,
          "velocity": 80
        },
        {
          "pitch": 71,
          "onset": 243.0,
          "duration": 1.0,
          "velocity": 80
        },
        {
          "pitch": 67,
          "onset": 244.0,
          "duration": 1.5,
          "velocity": 80
        },
        {
          "pitch": 72,
          "onset": 244.0,
          "duration": 1.0,
          "velocity": 80
        },
        {
          "pitch": 74,
          "onset": 245.0,
          "duration": 1.0,
          "velocity": 80
        },
        {
          "pitch": 65,
          "onset": 245.5,
          "duration": 0.5,
          "velocity": 80
        },
        {
          "pitch": 63,
          "onset": 246.0,
          "duration": 0.5,
          "velocity": 80
        },
        {
          "pitch": 75,
          "onset": 246.0,
          "duration": 1.5,
          "velocity": 80
        },
        {
          "pitch": 67,
          "onset": 246.5,
          "duration": 0.5,
          "velocity": 80
        },
        {
          "pitch": 72,
          "onset": 247.0,
          "duration": 1.5,
          "velocity": 80
        },
        {
          "pitch": 77,
          "onset": 247.5,
          "duration": 0.5,
          "velocity": 80
        },
        {
          "pitch": 75,
          "onset": 248.0,
          "duration": 0.5,
          "velocity": 80
        },
        {
          "pitch": 65,
          "onset": 248.5,
          "duration": 0.5,
          "velocity": 80
        },
        {
          "pitch": 74,
          "onset": 248.5,
          "duration": 0.5,
          "velocity": 80
        },
        {
          "pitch": 63,
          "onset": 249.0,
          "duration": 0.5,
          "velocity": 80
        },
        {
          "pitch": 72,
          "onset": 249.0,
          "duration": 0.5,
          "velocity": 80
        },
        {
          "pitch": 62,
          "onset": 249.5,
          "duration": 0.5,
          "velocity": 80
        },
        {
          "pitch": 71,
          "onset": 249.5,
          "duration": 0.5,
          "velocity": 80
        },
        {
          "pitch": 60,
          "onset": 250.0,
          "duration": 0.5,
          "velocity": 80
        },
        {
          "pitch": 72,
          "onset": 250.0,
          "duration": 1.0,
          "velocity": 80
        },
        {
          "pitch": 63,
          "onset": 250.5,
          "duration": 0.5,
          "velocity": 80
        },
        {
          "pitch": 65,
          "onset": 251.0,
          "duration": 0.5,
          "velocity": 80
        },
        {
          "pitch": 74,
          "onset": 251.0,
          "duration": 0.5,
          "velocity": 80
        },
        {
          "pitch": 67,
          "onset": 251.5,
          "duration": 0.5,
          "velocity": 80
        },
        {
          "pitch": 76,
          "onset": 251.5,
          "duration": 0.5,
          "velocity": 80
        },
        {
          "pitch": 68,
          "onset": 252.0,
          "duration": 2.0,
          "velocity": 80
        },
        {
          "pitch": 77,
          "onset": 252.0,
          "duration": 6.0,
          "velocity": 80
        },
        {
          "pitch": 74,
          "onset": 256.0,
          "duration": 1.5,
          "velocity": 80
        },
        {
          "pitch": 75,
          "onset": 257.5,
          "duration": 0.5,
          "velocity": 80
        },
        {
          "pitch": 72,
          "onset": 258.0,
          "duration": 0.5,
          "velocity": 80
        },
        {
          "pitch": 75,
          "onset": 258.0,
          "duration": 4.0,
          "velocity": 80
        },
        {
          "pitch": 70,
          "onset": 258.5,
          "duration": 0.5,
          "velocity": 80
        },
        {
          "pitch": 68,
          "onset": 259.0,
          "duration": 0.5,
          "velocity": 80
        },
        {
          "pitch": 67,
          "onset": 259.5,
          "duration": 0.5,
          "velocity": 80
        },
        {
          "pitch": 65,
          "onset": 260.0,
          "duration": 4.0,
          "velocity": 80
        },
        {
          "pitch": 74,
          "onset": 262.0,
          "duration": 4.0,
          "velocity": 80
        },
        {
          "pitch": 63,
          "onset": 264.0,
          "duration": 4.0,
          "velocity": 80
        },
        {
          "pitch": 72,
          "onset": 266.0,
          "duration": 3.5,
          "velocity": 80
        },
        {
          "pitch": 62,
          "onset": 268.0,
          "duration": 4.5,
          "velocity": 80
        },
        {
          "pitch": 74,
          "onset": 269.5,
          "duration": 0.5,
          "velocity": 80
        },
        {
          "pitch": 72,
          "onset": 270.0,
          "duration": 0.5,
          "velocity": 80
        },
        {
          "pitch": 71,
          "onset": 270.5,
          "duration": 0.5,
          "velocity": 80
        },
        {
          "pitch": 69,
          "onset": 271.0,
          "duration": 0.5,
          "velocity": 80
        },
        {
          "pitch": 67,
          "onset": 271.5,
          "duration": 0.5,
          "velocity": 80
        },
        {
          "pitch": 79,
          "onset": 272.0,
          "duration": 1.0,
          "velocity": 80
        },
        {
          "pitch": 59,
          "onset": 272.5,
          "duration": 0.5,
          "velocity": 80
        },
        {
          "pitch": 60,
          "onset": 273.0,
          "duration": 0.5,
          "velocity": 80
        },
        {
          "pitch": 72,
          "onset": 273.0,
          "duration": 1.0,
          "velocity": 80
        },
        {
          "pitch": 63,
          "onset": 273.5,
          "duration": 0.5,
          "velocity": 80
        },
        {
          "pitch": 62,
          "onset": 274.0,
          "duration": 0.5,
          "velocity": 80
        },
        {
          "pitch": 77,
          "onset": 274.0,
          "duration": 1.0,
          "velocity": 80
        },
        {
          "pitch": 60,
          "onset": 274.5,
          "duration": 0.5,
          "velocity": 80
        },
        {
          "pitch": 72,
          "onset": 275.0,
          "duration": 1.5,
          "velocity": 80
        },
        {
          "pitch": 75,
          "onset": 275.0,
          "duration": 0.5,
          "velocity": 80
        },
        {
          "pitch": 74,
          "onset": 275.5,
          "duration": 0.5,
          "velocity": 80
        },
        {
          "pitch": 75,
          "onset": 276.0,
          "duration": 1.5,
          "velocity": 80
        },
        {
          "pitch": 71,
          "onset": 276.5,
          "duration": 0.5,
          "velocity": 80
        },
        {
          "pitch": 72,
          "onset": 277.0,
          "duration": 1.0,
          "velocity": 80
        },
        {
          "pitch": 77,
          "onset": 277.5,
          "duration": 0.5,
          "velocity": 80
        },
        {
          "pitch": 71,
          "onset": 278.0,
          "duration": 2.0,
          "velocity": 80
        },
        {
          "pitch": 74,
          "onset": 278.0,
          "duration": 0.125,
          "velocity": 80
        },
        {
          "pitch": 75,
          "onset": 278.125,
          "duration": 0.125,
          "velocity": 80
        },
        {
          "pitch": 74,
          "onset": 278.25,
          "duration": 0.75,
          "velocity": 80
        },
        {
          "pitch": 74,
          "onset": 279.0,
          "duration": 0.5,
          "velocity": 80
        },
        {
          "pitch": 72,
          "onset": 279.5,
          "duration": 0.5,
          "velocity": 80
        },
        {
          "pitch": 72,
          "onset": 280.0,
          "duration": 1.0,
          "velocity": 80
        },
        {
          "pitch": 75,
          "onset": 280.5,
          "duration": 0.5,
          "velocity": 80
        },
        {
          "pitch": 74,
          "onset": 281.0,
          "duration": 0.5,
          "velocity": 80
        },
        {
          "pitch": 72,
          "onset": 281.5,
          "duration": 0.5,
          "velocity": 80
        },
        {
          "pitch": 80,
          "onset": 282.0,
          "duration": 2.0,
          "velocity": 80
        },
        {
          "pitch": 72,
          "onset": 284.0,
          "duration": 1.5,
          "velocity": 80
        },
        {
          "pitch": 79,
          "onset": 284.0,
          "duration": 5.0,
          "velocity": 80
        },
        {
          "pitch": 73,
          "onset": 285.5,
          "duration": 0.5,
          "velocity": 80
        },
        {
          "pitch": 72,
          "onset": 286.0,
          "duration": 0.5,
          "velocity": 80
        },
        {
          "pitch": 70,
          "onset": 286.5,
          "duration": 0.5,
          "velocity": 80
        },
        {
          "pitch": 68,
          "onset": 287.0,
          "duration": 0.5,
          "velocity": 80
        },
        {
          "pitch": 67,
          "onset": 287.5,
          "duration": 0.5,
          "velocity": 80
        },
        {
          "pitch": 68,
          "onset": 288.0,
          "duration": 1.5,
          "velocity": 80
        },
        {
          "pitch": 77,
          "onset": 289.0,
          "duration": 1.0,
          "velocity": 80
        },
        {
          "pitch": 70,
          "onset": 289.5,
          "duration": 0.5,
          "velocity": 80
        },
        {
          "pitch": 67,
          "onset": 290.0,
          "duration": 3.0,
          "velocity": 80
        },
        {
          "pitch": 76,
          "onset": 290.0,
          "duration": 1.0,
          "velocity": 80
        },
        {
          "pitch": 79,
          "onset": 291.0,
          "duration": 1.0,
          "velocity": 80
        },
        {
          "pitch": 72,
          "onset": 292.0,
          "duration": 1.5,
          "velocity": 80
        },
        {
          "pitch": 65,
          "onset": 293.0,
          "duration": 2.0,
          "velocity": 80
        },
        {
          "pitch": 73,
          "onset": 293.5,
          "duration": 0.5,
          "velocity": 80
        },
        {
          "pitch": 72,
          "onset": 294.0,
          "duration": 0.5,
          "velocity": 80
        },
        {
          "pitch": 70,
          "onset": 294.5,
          "duration": 0.5,
          "velocity": 80
        },
        {
          "pitch": 64,
          "onset": 295.0,
          "duration": 1.0,
          "velocity": 80
        },
        {
          "pitch": 68,
          "onset": 295.0,
          "duration": 0.5,
          "velocity": 80
        },
        {
          "pitch": 67,
          "onset": 295.5,
          "duration": 0.5,
          "velocity": 80
        },
        {
          "pitch": 65,
          "onset": 296.0,
          "duration": 1.5,
          "velocity": 80
        },
        {
          "pitch": 68,
          "onset": 296.0,
          "duration": 5.25,
          "velocity": 80
        },
        {
          "pitch": 67,
          "onset": 297.5,
          "duration": 0.5,
          "velocity": 80
        },
        {
          "pitch": 65,
          "onset": 298.0,
          "duration": 0.5,
          "velocity": 80
        },
        {
          "pitch": 63,
          "onset": 298.5,
          "duration": 0.5,
          "velocity": 80
        },
        {
          "pitch": 62,
          "onset": 299.0,
          "duration": 0.5,
          "velocity": 80
        },
        {
          "pitch": 60,
          "onset": 299.5,
          "duration": 0.5,
          "velocity": 80
        },
        {
          "pitch": 59,
          "onset": 300.0,
          "duration": 2.0,
          "velocity": 80
        },
        {
          "pitch": 65,
          "onset": 301.25,
          "duration": 0.25,
          "velocity": 80
        },
        {
          "pitch": 64,
          "onset": 301.5,
          "duration": 0.25,
          "velocity": 80
        },
        {
          "pitch": 65,
          "onset": 301.75,
          "duration": 0.25,
          "velocity": 80
        },
        {
          "pitch": 71,
          "onset": 302.0,
          "duration": 0.25,
          "velocity": 80
        },
        {
          "pitch": 72,
          "onset": 302.25,
          "duration": 0.25,
          "velocity": 80
        },
        {
          "pitch": 65,
          "onset": 302.5,
          "duration": 2.0,
          "velocity": 80
        },
        {
          "pitch": 71,
          "onset": 302.5,
          "duration": 0.25,
          "velocity": 80
        },
        {
          "pitch": 69,
          "onset": 302.75,
          "duration": 0.25,
          "velocity": 80
        },
        {
          "pitch": 71,
          "onset": 303.0,
          "duration": 0.25,
          "velocity": 80
        },
        {
          "pitch": 68,
          "onset": 303.25,
          "duration": 0.25,
          "velocity": 80
        },
        {
          "pitch": 67,
          "onset": 303.5,
          "duration": 0.25,
          "velocity": 80
        },
        {
          "pitch": 68,
          "onset": 303.75,
          "duration": 0.25,
          "velocity": 80
        },
        {
          "pitch": 74,
          "onset": 304.0,
          "duration": 0.25,
          "velocity": 80
        },
        {
          "pitch": 75,
          "onset": 304.25,
          "duration": 0.25,
          "velocity": 80
        },
        {
          "pitch": 68,
          "onset": 304.5,
          "duration": 2.0,
          "velocity": 80
        },
        {
          "pitch": 74,
          "onset": 304.5,
          "duration": 0.25,
          "velocity": 80
        },
        {
          "pitch": 72,
          "onset": 304.75,
          "duration": 0.25,
          "velocity": 80
        },
        {
          "pitch": 74,
          "onset": 305.0,
          "duration": 0.25,
          "velocity": 80
        },
        {
          "pitch": 71,
          "onset": 305.25,
          "duration": 0.25,
          "velocity": 80
        },
        {
          "pitch": 69,
          "onset": 305.5,
          "duration": 0.25,
          "velocity": 80
        },
        {
          "pitch": 71,
          "onset": 305.75,
          "duration": 0.25,
          "velocity": 80
        },
        {
          "pitch": 77,
          "onset": 306.0,
          "duration": 0.25,
          "velocity": 80
        },
        {
          "pitch": 79,
          "onset": 306.25,
          "duration": 0.25,
          "velocity": 80
        },
        {
          "pitch": 71,
          "onset": 306.5,
          "duration": 3.5,
          "velocity": 80
        },
        {
          "pitch": 77,
          "onset": 306.5,
          "duration": 0.25,
          "velocity": 80
        },
        {
          "pitch": 75,
          "onset": 306.75,
          "duration": 0.25,
          "velocity": 80
        },
        {
          "pitch": 77,
          "onset": 307.0,
          "duration": 0.25,
          "velocity": 80
        },
        {
          "pitch": 74,
          "onset": 307.25,
          "duration": 0.25,
          "velocity": 80
        },
        {
          "pitch": 72,
          "onset": 307.5,
          "duration": 0.25,
          "velocity": 80
        },
        {
          "pitch": 74,
          "onset": 307.75,
          "duration": 0.25,
          "velocity": 80
        },
        {
          "pitch": 80,
          "onset": 308.0,
          "duration": 0.125,
          "velocity": 80
        },
        {
          "pitch": 79,
          "onset": 308.125,
          "duration": 0.125,
          "velocity": 80
        },
        {
          "pitch": 80,
          "onset": 308.25,
          "duration": 1.0,
          "velocity": 80
        },
        {
          "pitch": 79,
          "onset": 309.25,
          "duration": 0.25,
          "velocity": 80
        },
        {
          "pitch": 77,
          "onset": 309.5,
          "duration": 0.25,
          "velocity": 80
        },
        {
          "pitch": 75,
          "onset": 309.75,
          "duration": 0.25,
          "velocity": 80
        },
        {
          "pitch": 74,
          "onset": 310.0,
          "duration": 0.25,
          "velocity": 80
        },
        {
          "pitch": 75,
          "onset": 310.25,
          "duration": 0.25,
          "velocity": 80
        },
        {
          "pitch": 77,
          "onset": 310.5,
          "duration": 0.25,
          "velocity": 80
        },
        {
          "pitch": 75,
          "onset": 310.75,
          "duration": 0.25,
          "velocity": 80
        },
        {
          "pitch": 74,
          "onset": 311.0,
          "duration": 0.25,
          "velocity": 80
        },
        {
          "pitch": 72,
          "onset": 311.25,
          "duration": 0.25,
          "velocity": 80
        },
        {
          "pitch": 71,
          "onset": 311.5,
          "duration": 0.25,
          "velocity": 80
        },
        {
          "pitch": 72,
          "onset": 311.75,
          "duration": 0.25,
          "velocity": 80
        },
        {
          "pitch": 74,
          "onset": 312.0,
          "duration": 0.25,
          "velocity": 80
        },
        {
          "pitch": 65,
          "onset": 312.25,
          "duration": 0.25,
          "velocity": 80
        },
        {
          "pitch": 67,
          "onset": 312.5,
          "duration": 0.25,
          "velocity": 80
        },
        {
          "pitch": 68,
          "onset": 312.75,
          "duration": 0.25,
          "velocity": 80
        },
        {
          "pitch": 67,
          "onset": 313.0,
          "duration": 0.25,
          "velocity": 80
        },
        {
          "pitch": 65,
          "onset": 313.25,
          "duration": 0.25,
          "velocity": 80
        },
        {
          "pitch": 64,
          "onset": 313.5,
          "duration": 0.25,
          "velocity": 80
        },
        {
          "pitch": 65,
          "onset": 313.75,
          "duration": 0.25,
          "velocity": 80
        },
        {
          "pitch": 65,
          "onset": 314.0,
          "duration": 3.5,
          "velocity": 80
        },
        {
          "pitch": 71,
          "onset": 314.0,
          "duration": 0.125,
          "velocity": 80
        },
        {
          "pitch": 72,
          "onset": 314.125,
          "duration": 0.125,
          "velocity": 80
        },
        {
          "pitch": 71,
          "onset": 314.25,
          "duration": 0.125,
          "velocity": 80
        },
        {
          "pitch": 72,
          "onset": 314.375,
          "duration": 0.125,
          "velocity": 80
        },
        {
          "pitch": 71,
          "onset": 314.5,
          "duration": 0.125,
          "velocity": 80
        },
        {
          "pitch": 72,
          "onset": 314.625,
          "duration": 0.125,
          "velocity": 80
        },
        {
          "pitch": 71,
          "onset": 314.75,
          "duration": 0.125,
          "velocity": 80
        },
        {
          "pitch": 72,
          "onset": 314.875,
          "duration": 0.125,
          "velocity": 80
        },
        {
          "pitch": 71,
          "onset": 315.0,
          "duration": 0.5,
          "velocity": 80
        },
        {
          "pitch": 72,
          "onset": 315.5,
          "duration": 0.5,
          "velocity": 80
        },
        {
          "pitch": 72,
          "onset": 316.0,
          "duration": 12.0,
          "velocity": 80
        },
        {
          "pitch": 67,
          "onset": 317.5,
          "duration": 0.5,
          "velocity": 80
        },
        {
          "pitch": 65,
          "onset": 318.0,
          "duration": 0.5,
          "velocity": 80
        },
        {
          "pitch": 64,
          "onset": 318.5,
          "duration": 0.5,
          "velocity": 80
        },
        {
          "pitch": 62,
          "onset": 319.0,
          "duration": 0.5,
          "velocity": 80
        },
        {
          "pitch": 64,
          "onset": 319.5,
          "duration": 0.5,
          "velocity": 80
        },
        {
          "pitch": 65,
          "onset": 320.0,
          "duration": 1.0,
          "velocity": 80
        },
        {
          "pitch": 64,
          "onset": 321.0,
          "duration": 7.0,
          "velocity": 80
        },
        {
          "pitch": 72,
          "onset": 330.25,
          "duration": 0.25,
          "velocity": 1
        }
      ]
    },
    {
      "role": "lower",
      "notes": [
        {
          "pitch": 48,
          "onset": 0.0,
          "duration": 0.25,
          "velocity": 1
        },
        {
          "pitch": 72,
          "onset": 4.0,
          "duration": 0.125,
          "velocity": 80
        },
        {
          "pitch": 71,
          "onset": 4.125,
          "duration": 0.125,
          "velocity": 80
        },
        {
          "pitch": 72,
          "onset": 4.25,
          "duration": 1.25,
          "velocity": 80
        },
        {
          "pitch": 73,
          "onset": 5.5,
          "duration": 0.5,
          "velocity": 80
        },
        {
          "pitch": 72,
          "onset": 6.0,
          "duration": 0.5,
          "velocity": 80
        },
        {
          "pitch": 70,
          "onset": 6.5,
          "duration": 0.5,
          "velocity": 80
        },
        {
          "pitch": 68,
          "onset": 7.0,
          "duration": 0.5,
          "velocity": 80
        },
        {
          "pitch": 67,
          "onset": 7.5,
          "duration": 0.5,
          "velocity": 80
        },
        {
          "pitch": 67,
          "onset": 8.0,
          "duration": 0.5,
          "velocity": 80
        },
        {
          "pitch": 68,
          "onset": 8.5,
          "duration": 2.5,
          "velocity": 80
        },
        {
          "pitch": 67,
          "onset": 11.0,
          "duration": 0.125,
          "velocity": 80
        },
        {
          "pitch": 68,
          "onset": 11.125,
          "duration": 0.125,
          "velocity": 80
        },
        {
          "pitch": 67,
          "onset": 11.25,
          "duration": 0.25,
          "velocity": 80
        },
        {
          "pitch": 65,
          "onset": 11.5,
          "duration": 0.5,
          "velocity": 80
        },
        {
          "pitch": 67,
          "onset": 12.0,
          "duration": 0.125,
          "velocity": 80
        },
        {
          "pitch": 65,
          "onset": 12.125,
          "duration": 0.125,
          "velocity": 80
        },
        {
          "pitch": 67,
          "onset": 12.25,
          "duration": 1.25,
          "velocity": 80
        },
        {
          "pitch": 68,
          "onset": 13.5,
          "duration": 0.5,
          "velocity": 80
        },
        {
          "pitch": 67,
          "onset": 14.0,
          "duration": 0.5,
          "velocity": 80
        },
        {
          "pitch": 65,
          "onset": 14.5,
          "duration": 0.5,
          "velocity": 80
        },
        {
          "pitch": 63,
          "onset": 15.25,
          "duration": 0.25,
          "velocity": 80
        },
        {
          "pitch": 62,
          "onset": 15.5,
          "duration": 0.5,
          "velocity": 80
        },
        {
          "pitch": 60,
          "onset": 16.0,
          "duration": 1.5,
          "velocity": 80
        },
        {
          "pitch": 62,
          "onset": 16.0,
          "duration": 0.5,
          "velocity": 80
        },
        {
          "pitch": 63,
          "onset": 16.5,
          "duration": 1.5,
          "velocity": 80
        },
        {
          "pitch": 61,
          "onset": 17.5,
          "duration": 0.5,
          "velocity": 80
        },
        {
          "pitch": 60,
          "onset": 18.0,
          "duration": 0.5,
          "velocity": 80
        },
        {
          "pitch": 63,
          "onset": 18.0,
          "duration": 2.0,
          "velocity": 80
        },
        {
          "pitch": 58,
          "onset": 18.5,
          "duration": 0.5,
          "velocity": 80
        },
        {
          "pitch": 56,
          "onset": 19.0,
          "duration": 0.5,
          "velocity": 80
        },
        {
          "pitch": 55,
          "onset": 19.5,
          "duration": 0.5,
          "velocity": 80
        },
        {
          "pitch": 65,
          "onset": 20.0,
          "duration": 0.125,
          "velocity": 80
        },
        {
          "pitch": 63,
          "onset": 20.125,
          "duration": 0.125,
          "velocity": 80
        },
        {
          "pitch": 65,
          "onset": 20.25,
          "duration": 2.75,
          "velocity": 80
        },
        {
          "pitch": 63,
          "onset": 23.0,
          "duration": 1.0,
          "velocity": 80
        },
        {
          "pitch": 62,
          "onset": 24.0,
          "duration": 4.0,
          "velocity": 80
        },
        {
          "pitch": 56,
          "onset": 25.0,
          "duration": 0.5,
          "velocity": 80
        },
        {
          "pitch": 55,
          "onset": 25.5,
          "duration": 0.5,
          "velocity": 80
        },
        {
          "pitch": 55,
          "onset": 26.0,
          "duration": 0.5,
          "velocity": 80
        },
        {
          "pitch": 53,
          "onset": 26.5,
          "duration": 0.5,
          "velocity": 80
        },
        {
          "pitch": 55,
          "onset": 27.0,
          "duration": 0.5,
          "velocity": 80
        },
        {
          "pitch": 56,
          "onset": 27.5,
          "duration": 0.5,
          "velocity": 80
        },
        {
          "pitch": 55,
          "onset": 28.0,
          "duration": 5.0,
          "velocity": 80
        },
        {
          "pitch": 60,
          "onset": 28.0,
          "duration": 6.0,
          "velocity": 80
        },
        {
          "pitch": 53,
          "onset": 33.0,
          "duration": 0.5,
          "velocity": 80
        },
        {
          "pitch": 51,
          "onset": 33.5,
          "duration": 0.5,
          "velocity": 80
        },
        {
          "pitch": 53,
          "onset": 34.0,
          "duration": 2.0,
          "velocity": 80
        },
        {
          "pitch": 65,
          "onset": 34.0,
          "duration": 1.0,
          "velocity": 80
        },
        {
          "pitch": 62,
          "onset": 35.0,
          "duration": 1.0,
          "velocity": 80
        },
        {
          "pitch": 51,
          "onset": 36.0,
          "duration": 1.0,
          "velocity": 80
        },
        {
          "pitch": 60,
          "onset": 36.0,
          "duration": 3.5,
          "velocity": 80
        },
        {
          "pitch": 53,
          "onset": 37.0,
          "duration": 0.5,
          "velocity": 80
        },
        {
          "pitch": 51,
          "onset": 37.5,
          "duration": 0.5,
          "velocity": 80
        },
        {
          "pitch": 50,
          "onset": 38.0,
          "duration": 0.5,
          "velocity": 80
        },
        {
          "pitch": 51,
          "onset": 38.5,
          "duration": 0.5,
          "velocity": 80
        },
        {
          "pitch": 48,
          "onset": 39.0,
          "duration": 1.0,
          "velocity": 80
        },
        {
          "pitch": 62,
          "onset": 39.5,
          "duration": 0.5,
          "velocity": 80
        },
        {
          "pitch": 55,
          "onset": 40.0,
          "duration": 7.0,
          "velocity": 80
        },
        {
          "pitch": 63,
          "onset": 40.0,
          "duration": 0.125,
          "velocity": 80
        },
        {
          "pitch": 62,
          "onset": 40.125,
          "duration": 0.125,
          "velocity": 80
        },
        {
          "pitch": 63,
          "onset": 40.25,
          "duration": 0.75,
          "velocity": 80
        },
        {
          "pitch": 65,
          "onset": 41.0,
          "duration": 0.5,
          "velocity": 80
        },
        {
          "pitch": 63,
          "onset": 41.5,
          "duration": 0.5,
          "velocity": 80
        },
        {
          "pitch": 63,
          "onset": 42.0,
          "duration": 0.5,
          "velocity": 80
        },
        {
          "pitch": 62,
          "onset": 42.5,
          "duration": 0.5,
          "velocity": 80
        },
        {
          "pitch": 63,
          "onset": 43.0,
          "duration": 0.5,
          "velocity": 80
        },
        {
          "pitch": 60,
          "onset": 43.5,
          "duration": 0.5,
          "velocity": 80
        },
        {
          "pitch": 60,
          "onset": 44.0,
          "duration": 0.5,
          "velocity": 80
        },
        {
          "pitch": 62,
          "onset": 44.5,
          "duration": 2.5,
          "velocity": 80
        },
        {
          "pitch": 62,
          "onset": 48.0,
          "duration": 0.125,
          "velocity": 80
        },
        {
          "pitch": 60,
          "onset": 48.125,
          "duration": 0.125,
          "velocity": 80
        },
        {
          "pitch": 62,
          "onset": 48.25,
          "duration": 1.25,
          "velocity": 80
        },
        {
          "pitch": 63,
          "onset": 49.5,
          "duration": 0.5,
          "velocity": 80
        },
        {
          "pitch": 62,
          "onset": 50.0,
          "duration": 0.5,
          "velocity": 80
        },
        {
          "pitch": 60,
          "onset": 50.5,
          "duration": 0.5,
          "velocity": 80
        },
        {
          "pitch": 58,
          "onset": 51.0,
          "duration": 0.5,
          "velocity": 80
        },
        {
          "pitch": 57,
          "onset": 51.5,
          "duration": 0.5,
          "velocity": 80
        },
        {
          "pitch": 58,
          "onset": 52.0,
          "duration": 1.0,
          "velocity": 80
        },
        {
          "pitch": 50,
          "onset": 53.0,
          "duration": 1.0,
          "velocity": 80
        },
        {
          "pitch": 52,
          "onset": 54.0,
          "duration": 1.0,
          "velocity": 80
        },
        {
          "pitch": 54,
          "onset": 55.0,
          "duration": 1.0,
          "velocity": 80
        },
        {
          "pitch": 55,
          "onset": 56.0,
          "duration": 2.0,
          "velocity": 80
        },
        {
          "pitch": 67,
          "onset": 56.0,
          "duration": 0.125,
          "velocity": 80
        },
        {
          "pitch": 66,
          "onset": 56.125,
          "duration": 0.125,
          "velocity": 80
        },
        {
          "pitch": 67,
          "onset": 56.25,
          "duration": 1.25,
          "velocity": 80
        },
        {
          "pitch": 68,
          "onset": 57.5,
          "duration": 0.5,
          "velocity": 80
        },
        {
          "pitch": 57,
          "onset": 58.0,
          "duration": 1.0,
          "velocity": 80
        },
        {
          "pitch": 67,
          "onset": 58.0,
          "duration": 0.5,
          "velocity": 80
        },
        {
          "pitch": 65,
          "onset": 58.5,
          "duration": 0.5,
          "velocity": 80
        },
        {
          "pitch": 59,
          "onset": 59.0,
          "duration": 1.0,
          "velocity": 80
        },
        {
          "pitch": 63,
          "onset": 59.0,
          "duration": 0.5,
          "velocity": 80
        },
        {
          "pitch": 62,
          "onset": 59.5,
          "duration": 0.5,
          "velocity": 80
        },
        {
          "pitch": 60,
          "onset": 60.0,
          "duration": 1.0,
          "velocity": 80
        },
        {
          "pitch": 63,
          "onset": 60.0,
          "duration": 2.0,
          "velocity": 80
        },
        {
          "pitch": 51,
          "onset": 61.0,
          "duration": 0.5,
          "velocity": 80
        },
        {
          "pitch": 53,
          "onset": 61.5,
          "duration": 0.5,
          "velocity": 80
        },
        {
          "pitch": 55,
          "onset": 62.0,
          "duration": 3.0,
          "velocity": 80
        },
        {
          "pitch": 62,
          "onset": 62.0,
          "duration": 2.0,
          "velocity": 80
        },
        {
          "pitch": 60,
          "onset": 64.0,
          "duration": 0.125,
          "velocity": 80
        },
        {
          "pitch": 59,
          "onset": 64.125,
          "duration": 0.125,
          "velocity": 80
        },
        {
          "pitch": 60,
          "onset": 64.25,
          "duration": 0.75,
          "velocity": 80
        },
        {
          "pitch": 54,
          "onset": 65.0,
          "duration": 1.0,
          "velocity": 80
        },
        {
          "pitch": 57,
          "onset": 65.0,
          "duration": 1.0,
          "velocity": 80
        },
        {
          "pitch": 55,
          "onset": 66.0,
          "duration": 1.0,
          "velocity": 80
        },
        {
          "pitch": 58,
          "onset": 66.0,
          "duration": 1.0,
          "velocity": 80
        },
        {
          "pitch": 57,
          "onset": 67.0,
          "duration": 0.5,
          "velocity": 80
        },
        {
          "pitch": 60,
          "onset": 67.0,
          "duration": 0.5,
          "velocity": 80
        },
        {
          "pitch": 58,
          "onset": 67.5,
          "duration": 0.5,
          "velocity": 80
        },
        {
          "pitch": 62,
          "onset": 67.5,
          "duration": 0.5,
          "velocity": 80
        },
        {
          "pitch": 60,
          "onset": 68.0,
          "duration": 3.5,
          "velocity": 80
        },
        {
          "pitch": 63,
          "onset": 68.0,
          "duration": 2.5,
          "velocity": 80
        },
        {
          "pitch": 62,
          "onset": 70.5,
          "duration": 0.5,
          "velocity": 80
        },
        {
          "pitch": 63,
          "onset": 71.0,
          "duration": 0.125,
          "velocity": 80
        },
        {
          "pitch": 62,
          "onset": 71.125,
          "duration": 0.125,
          "velocity": 80
        },
        {
          "pitch": 63,
          "onset": 71.25,
          "duration": 1.75,
          "velocity": 80
        },
        {
          "pitch": 54,
          "onset": 71.5,
          "duration": 0.5,
          "velocity": 80
        },
        {
          "pitch": 55,
          "onset": 72.0,
          "duration": 5.0,
          "velocity": 80
        },
        {
          "pitch": 62,
          "onset": 73.0,
          "duration": 0.5,
          "velocity": 80
        },
        {
          "pitch": 60,
          "onset": 73.5,
          "duration": 0.5,
          "velocity": 80
        },
        {
          "pitch": 62,
          "onset": 74.0,
          "duration": 0.125,
          "velocity": 80
        },
        {
          "pitch": 60,
          "onset": 74.125,
          "duration": 0.125,
          "velocity": 80
        },
        {
          "pitch": 62,
          "onset": 74.25,
          "duration": 2.75,
          "velocity": 80
        },
        {
          "pitch": 57,
          "onset": 77.0,
          "duration": 0.5,
          "velocity": 80
        },
        {
          "pitch": 60,
          "onset": 77.0,
          "duration": 0.5,
          "velocity": 80
        },
        {
          "pitch": 55,
          "onset": 77.5,
          "duration": 0.5,
          "velocity": 80
        },
        {
          "pitch": 58,
          "onset": 77.5,
          "duration": 0.5,
          "velocity": 80
        },
        {
          "pitch": 54,
          "onset": 78.0,
          "duration": 2.0,
          "velocity": 80
        },
        {
          "pitch": 58,
          "onset": 78.0,
          "duration": 0.5,
          "velocity": 80
        },
        {
          "pitch": 57,
          "onset": 78.5,
          "duration": 0.5,
          "velocity": 80
        },
        {
          "pitch": 58,
          "onset": 79.0,
          "duration": 2.0,
          "velocity": 80
        },
        {
          "pitch": 55,
          "onset": 80.0,
          "duration": 4.0,
          "velocity": 80
        },
        {
          "pitch": 60,
          "onset": 81.0,
          "duration": 0.5,
          "velocity": 80
        },
        {
          "pitch": 62,
          "onset": 81.5,
          "duration": 0.5,
          "velocity": 80
        },
        {
          "pitch": 63,
          "onset": 82.0,
          "duration": 0.5,
          "velocity": 80
        },
        {
          "pitch": 62,
          "onset": 82.5,
          "duration": 0.5,
          "velocity": 80
        },
        {
          "pitch": 60,
          "onset": 83.0,
          "duration": 0.125,
          "velocity": 80
        },
        {
          "pitch": 62,
          "onset": 83.125,
          "duration": 0.125,
          "velocity": 80
        },
        {
          "pitch": 60,
          "onset": 83.25,
          "duration": 0.25,
          "velocity": 80
        },
        {
          "pitch": 58,
          "onset": 83.5,
          "duration": 0.25,
          "velocity": 80
        },
        {
          "pitch": 60,
          "onset": 83.75,
          "duration": 0.25,
          "velocity": 80
        },
        {
          "pitch": 57,
          "onset": 84.0,
          "duration": 2.0,
          "velocity": 80
        },
        {
          "pitch": 62,
          "onset": 84.0,
          "duration": 3.0,
          "velocity": 80
        },
        {
          "pitch": 55,
          "onset": 86.0,
          "duration": 2.0,
          "velocity": 80
        },
        {
          "pitch": 61,
          "onset": 87.0,
          "duration": 1.0,
          "velocity": 80
        },
        {
          "pitch": 57,
          "onset": 88.0,
          "duration": 1.0,
          "velocity": 80
        },
        {
          "pitch": 62,
          "onset": 88.0,
          "duration": 1.0,
          "velocity": 80
        },
        {
          "pitch": 62,
          "onset": 92.0,
          "duration": 1.5,
          "velocity": 80
        },
        {
          "pitch": 63,
          "onset": 93.5,
          "duration": 0.5,
          "velocity": 80
        },
        {
          "pitch": 62,
          "onset": 94.0,
          "duration": 0.5,
          "velocity": 80
        },
        {
          "pitch": 60,
          "onset": 94.5,
          "duration": 0.5,
          "velocity": 80
        },
        {
          "pitch": 58,
          "onset": 95.0,
          "duration": 0.5,
          "velocity": 80
        },
        {
          "pitch": 57,
          "onset": 95.5,
          "duration": 0.5,
          "velocity": 80
        },
        {
          "pitch": 60,
          "onset": 96.0,
          "duration": 0.5,
          "velocity": 80
        },
        {
          "pitch": 58,
          "onset": 96.5,
          "duration": 0.5,
          "velocity": 80
        },
        {
          "pitch": 57,
          "onset": 97.0,
          "duration": 0.5,
          "velocity": 80
        },
        {
          "pitch": 55,
          "onset": 97.5,
          "duration": 0.5,
          "velocity": 80
        },
        {
          "pitch": 62,
          "onset": 98.0,
          "duration": 2.5,
          "velocity": 80
        },
        {
          "pitch": 60,
          "onset": 100.5,
          "duration": 0.5,
          "velocity": 80
        },
        {
          "pitch": 59,
          "onset": 101.0,
          "duration": 0.5,
          "velocity": 80
        },
        {
          "pitch": 60,
          "onset": 101.5,
          "duration": 0.5,
          "velocity": 80
        },
        {
          "pitch": 62,
          "onset": 102.0,
          "duration": 0.5,
          "velocity": 80
        },
        {
          "pitch": 59,
          "onset": 102.5,
          "duration": 0.5,
          "velocity": 80
        },
        {
          "pitch": 60,
          "onset": 103.0,
          "duration": 0.5,
          "velocity": 80
        },
        {
          "pitch": 62,
          "onset": 103.5,
          "duration": 0.5,
          "velocity": 80
        },
        {
          "pitch": 55,
          "onset": 104.0,
          "duration": 2.0,
          "velocity": 80
        },
        {
          "pitch": 60,
          "onset": 108.0,
          "duration": 1.5,
          "velocity": 80
        },
        {
          "pitch": 61,
          "onset": 109.5,
          "duration": 0.5,
          "velocity": 80
        },
        {
          "pitch": 60,
          "onset": 110.0,
          "duration": 0.5,
          "velocity": 80
        },
        {
          "pitch": 58,
          "onset": 110.5,
          "duration": 0.5,
          "velocity": 80
        },
        {
          "pitch": 56,
          "onset": 111.0,
          "duration": 0.5,
          "velocity": 80
        },
        {
          "pitch": 55,
          "onset": 111.5,
          "duration": 0.5,
          "velocity": 80
        },
        {
          "pitch": 58,
          "onset": 112.0,
          "duration": 0.5,
          "velocity": 80
        },
        {
          "pitch": 57,
          "onset": 112.5,
          "duration": 0.5,
          "velocity": 80
        },
        {
          "pitch": 55,
          "onset": 113.0,
          "duration": 0.5,
          "velocity": 80
        },
        {
          "pitch": 53,
          "onset": 113.5,
          "duration": 0.5,
          "velocity": 80
        },
        {
          "pitch": 60,
          "onset": 114.0,
          "duration": 2.5,
          "velocity": 80
        },
        {
          "pitch": 58,
          "onset": 116.5,
          "duration": 0.5,
          "velocity": 80
        },
        {
          "pitch": 57,
          "onset": 117.0,
          "duration": 0.5,
          "velocity": 80
        },
        {
          "pitch": 58,
          "onset": 117.5,
          "duration": 0.5,
          "velocity": 80
        },
        {
          "pitch": 60,
          "onset": 118.0,
          "duration": 0.5,
          "velocity": 80
        },
        {
          "pitch": 57,
          "onset": 118.5,
          "duration": 0.5,
          "velocity": 80
        },
        {
          "pitch": 58,
          "onset": 119.0,
          "duration": 0.5,
          "velocity": 80
        },
        {
          "pitch": 60,
          "onset": 119.5,
          "duration": 0.5,
          "velocity": 80
        },
        {
          "pitch": 53,
          "onset": 120.0,
          "duration": 0.5,
          "velocity": 80
        },
        {
          "pitch": 55,
          "onset": 120.5,
          "duration": 0.5,
          "velocity": 80
        },
        {
          "pitch": 56,
          "onset": 121.0,
          "duration": 0.5,
          "velocity": 80
        },
        {
          "pitch": 53,
          "onset": 121.5,
          "duration": 0.5,
          "velocity": 80
        },
        {
          "pitch": 51,
          "onset": 122.0,
          "duration": 0.5,
          "velocity": 80
        },
        {
          "pitch": 50,
          "onset": 122.5,
          "duration": 1.5,
          "velocity": 80
        },
        {
          "pitch": 51,
          "onset": 124.0,
          "duration": 2.0,
          "velocity": 80
        },
        {
          "pitch": 58,
          "onset": 124.0,
          "duration": 1.5,
          "velocity": 80
        },
        {
          "pitch": 60,
          "onset": 125.5,
          "duration": 0.5,
          "velocity": 80
        },
        {
          "pitch": 53,
          "onset": 126.0,
          "duration": 1.0,
          "velocity": 80
        },
        {
          "pitch": 58,
          "onset": 126.0,
          "duration": 0.5,
          "velocity": 80
        },
        {
          "pitch": 56,
          "onset": 126.5,
          "duration": 0.5,
          "velocity": 80
        },
        {
          "pitch": 51,
          "onset": 127.0,
          "duration": 0.5,
          "velocity": 80
        },
        {
          "pitch": 55,
          "onset": 127.0,
          "duration": 0.5,
          "velocity": 80
        },
        {
          "pitch": 50,
          "onset": 127.5,
          "duration": 0.5,
          "velocity": 80
        },
        {
          "pitch": 53,
          "onset": 127.5,
          "duration": 0.5,
          "velocity": 80
        },
        {
          "pitch": 51,
          "onset": 128.0,
          "duration": 5.5,
          "velocity": 80
        },
        {
          "pitch": 55,
          "onset": 128.0,
          "duration": 5.0,
          "velocity": 80
        },
        {
          "pitch": 53,
          "onset": 133.0,
          "duration": 0.5,
          "velocity": 80
        },
        {
          "pitch": 51,
          "onset": 133.5,
          "duration": 1.5,
          "velocity": 80
        },
        {
          "pitch": 53,
          "onset": 134.0,
          "duration": 4.0,
          "velocity": 80
        },
        {
          "pitch": 50,
          "onset": 135.0,
          "duration": 0.5,
          "velocity": 80
        },
        {
          "pitch": 48,
          "onset": 135.5,
          "duration": 0.5,
          "velocity": 80
        },
        {
          "pitch": 50,
          "onset": 136.0,
          "duration": 2.0,
          "velocity": 80
        },
        {
          "pitch": 51,
          "onset": 138.0,
          "duration": 4.0,
          "velocity": 80
        },
        {
          "pitch": 58,
          "onset": 138.0,
          "duration": 2.0,
          "velocity": 80
        },
        {
          "pitch": 56,
          "onset": 140.0,
          "duration": 3.0,
          "velocity": 80
        },
        {
          "pitch": 60,
          "onset": 143.0,
          "duration": 1.0,
          "velocity": 80
        },
        {
          "pitch": 58,
          "onset": 144.0,
          "duration": 1.5,
          "velocity": 80
        },
        {
          "pitch": 60,
          "onset": 145.5,
          "duration": 0.5,
          "velocity": 80
        },
        {
          "pitch": 58,
          "onset": 146.0,
          "duration": 0.5,
          "velocity": 80
        },
        {
          "pitch": 56,
          "onset": 146.5,
          "duration": 0.5,
          "velocity": 80
        },
        {
          "pitch": 55,
          "onset": 147.0,
          "duration": 0.5,
          "velocity": 80
        },
        {
          "pitch": 53,
          "onset": 147.5,
          "duration": 0.5,
          "velocity": 80
        },
        {
          "pitch": 51,
          "onset": 148.0,
          "duration": 1.5,
          "velocity": 80
        },
        {
          "pitch": 55,
          "onset": 148.0,
          "duration": 4.0,
          "velocity": 80
        },
        {
          "pitch": 53,
          "onset": 149.5,
          "duration": 0.5,
          "velocity": 80
        },
        {
          "pitch": 51,
          "onset": 150.0,
          "duration": 0.5,
          "velocity": 80
        },
        {
          "pitch": 49,
          "onset": 150.5,
          "duration": 0.5,
          "velocity": 80
        },
        {
          "pitch": 48,
          "onset": 151.0,
          "duration": 0.5,
          "velocity": 80
        },
        {
          "pitch": 46,
          "onset": 151.5,
          "duration": 0.5,
          "velocity": 80
        },
        {
          "pitch": 48,
          "onset": 152.0,
          "duration": 2.0,
          "velocity": 80
        },
        {
          "pitch": 56,
          "onset": 152.0,
          "duration": 2.0,
          "velocity": 80
        },
        {
          "pitch": 46,
          "onset": 154.0,
          "duration": 1.0,
          "velocity": 80
        },
        {
          "pitch": 58,
          "onset": 154.0,
          "duration": 2.0,
          "velocity": 80
        },
        {
          "pitch": 51,
          "onset": 155.0,
          "duration": 2.0,
          "velocity": 80
        },
        {
          "pitch": 56,
          "onset": 156.0,
          "duration": 1.0,
          "velocity": 80
        },
        {
          "pitch": 50,
          "onset": 157.0,
          "duration": 1.0,
          "velocity": 80
        },
        {
          "pitch": 53,
          "onset": 157.0,
          "duration": 1.0,
          "velocity": 80
        },
        {
          "pitch": 51,
          "onset": 158.0,
          "duration": 3.0,
          "velocity": 80
        },
        {
          "pitch": 55,
          "onset": 158.0,
          "duration": 1.0,
          "velocity": 80
        },
        {
          "pitch": 56,
          "onset": 159.0,
          "duration": 0.5,
          "velocity": 80
        },
        {
          "pitch": 58,
          "onset": 159.5,
          "duration": 0.5,
          "velocity": 80
        },
        {
          "pitch": 60,
          "onset": 160.0,
          "duration": 2.0,
          "velocity": 80
        },
        {
          "pitch": 50,
          "onset": 161.0,
          "duration": 0.5,
          "velocity": 80
        },
        {
          "pitch": 48,
          "onset": 161.5,
          "duration": 0.5,
          "velocity": 80
        },
        {
          "pitch": 50,
          "onset": 162.0,
          "duration": 2.0,
          "velocity": 80
        },
        {
          "pitch": 53,
          "onset": 162.0,
          "duration": 1.0,
          "velocity": 80
        },
        {
          "pitch": 58,
          "onset": 163.0,
          "duration": 2.0,
          "velocity": 80
        },
        {
          "pitch": 51,
          "onset": 164.0,
          "duration": 2.0,
          "velocity": 80
        },
        {
          "pitch": 58,
          "onset": 165.0,
          "duration": 1.0,
          "velocity": 80
        },
        {
          "pitch": 63,
          "onset": 166.0,
          "duration": 3.5,
          "velocity": 80
        },
        {
          "pitch": 51,
          "onset": 167.0,
          "duration": 1.0,
          "velocity": 80
        },
        {
          "pitch": 53,
          "onset": 168.0,
          "duration": 2.0,
          "velocity": 80
        },
        {
          "pitch": 65,
          "onset": 169.5,
          "duration": 0.5,
          "velocity": 80
        },
        {
          "pitch": 55,
          "onset": 170.0,
          "duration": 2.0,
          "velocity": 80
        },
        {
          "pitch": 63,
          "onset": 170.0,
          "duration": 0.5,
          "velocity": 80
        },
        {
          "pitch": 61,
          "onset": 170.5,
          "duration": 0.5,
          "velocity": 80
        },
        {
          "pitch": 60,
          "onset": 171.0,
          "duration": 0.5,
          "velocity": 80
        },
        {
          "pitch": 58,
          "onset": 171.5,
          "duration": 0.5,
          "velocity": 80
        },
        {
          "pitch": 56,
          "onset": 172.0,
          "duration": 2.0,
          "velocity": 80
        },
        {
          "pitch": 60,
          "onset": 172.0,
          "duration": 1.0,
          "velocity": 80
        },
        {
          "pitch": 65,
          "onset": 173.0,
          "duration": 1.0,
          "velocity": 80
        },
        {
          "pitch": 58,
          "onset": 174.0,
          "duration": 1.0,
          "velocity": 80
        },
        {
          "pitch": 61,
          "onset": 174.0,
          "duration": 1.0,
          "velocity": 80
        },
        {
          "pitch": 60,
          "onset": 175.0,
          "duration": 1.0,
          "velocity": 80
        },
        {
          "pitch": 53,
          "onset": 176.0,
          "duration": 2.0,
          "velocity": 80
        },
        {
          "pitch": 60,
          "onset": 176.0,
          "duration": 2.0,
          "velocity": 80
        },
        {
          "pitch": 53,
          "onset": 179.0,
          "duration": 1.0,
          "velocity": 80
        },
        {
          "pitch": 55,
          "onset": 180.0,
          "duration": 2.0,
          "velocity": 80
        },
        {
          "pitch": 57,
          "onset": 182.0,
          "duration": 2.0,
          "velocity": 80
        },
        {
          "pitch": 58,
          "onset": 184.0,
          "duration": 2.0,
          "velocity": 80
        },
        {
          "pitch": 65,
          "onset": 184.0,
          "duration": 1.5,
          "velocity": 80
        },
        {
          "pitch": 67,
          "onset": 185.5,
          "duration": 0.5,
          "velocity": 80
        },
        {
          "pitch": 60,
          "onset": 186.0,
          "duration": 1.5,
          "velocity": 80
        },
        {
          "pitch": 65,
          "onset": 186.0,
          "duration": 0.5,
          "velocity": 80
        },
        {
          "pitch": 64,
          "onset": 186.5,
          "duration": 0.5,
          "velocity": 80
        },
        {
          "pitch": 62,
          "onset": 187.0,
          "duration": 0.5,
          "velocity": 80
        },
        {
          "pitch": 60,
          "onset": 187.5,
          "duration": 0.5,
          "velocity": 80
        },
        {
          "pitch": 61,
          "onset": 188.0,
          "duration": 4.0,
          "velocity": 80
        },
        {
          "pitch": 65,
          "onset": 188.0,
          "duration": 4.0,
          "velocity": 80
        },
        {
          "pitch": 60,
          "onset": 192.0,
          "duration": 9.0,
          "velocity": 80
        },
        {
          "pitch": 67,
          "onset": 192.0,
          "duration": 4.5,
          "velocity": 80
        },
        {
          "pitch": 64,
          "onset": 196.5,
          "duration": 0.5,
          "velocity": 80
        },
        {
          "pitch": 65,
          "onset": 197.0,
          "duration": 2.0,
          "velocity": 80
        },
        {
          "pitch": 64,
          "onset": 199.0,
          "duration": 1.0,
          "velocity": 80
        },
        {
          "pitch": 65,
          "onset": 200.0,
          "duration": 1.5,
          "velocity": 80
        },
        {
          "pitch": 66,
          "onset": 201.5,
          "duration": 0.5,
          "velocity": 80
        },
        {
          "pitch": 65,
          "onset": 202.0,
          "duration": 0.5,
          "velocity": 80
        },
        {
          "pitch": 63,
          "onset": 202.5,
          "duration": 0.5,
          "velocity": 80
        },
        {
          "pitch": 61,
          "onset": 203.0,
          "duration": 0.5,
          "velocity": 80
        },
        {
          "pitch": 60,
          "onset": 203.5,
          "duration": 0.5,
          "velocity": 80
        },
        {
          "pitch": 61,
          "onset": 204.0,
          "duration": 2.5,
          "velocity": 80
        },
        {
          "pitch": 60,
          "onset": 206.5,
          "duration": 0.5,
          "velocity": 80
        },
        {
          "pitch": 61,
          "onset": 207.0,
          "duration": 0.5,
          "velocity": 80
        },
        {
          "pitch": 58,
          "onset": 207.5,
          "duration": 0.5,
          "velocity": 80
        },
        {
          "pitch": 60,
          "onset": 208.0,
          "duration": 0.125,
          "velocity": 80
        },
        {
          "pitch": 65,
          "onset": 208.0,
          "duration": 2.0,
          "velocity": 80
        },
        {
          "pitch": 58,
          "onset": 208.125,
          "duration": 0.125,
          "velocity": 80
        },
        {
          "pitch": 60,
          "onset": 208.25,
          "duration": 1.25,
          "velocity": 80
        },
        {
          "pitch": 61,
          "onset": 209.5,
          "duration": 0.5,
          "velocity": 80
        },
        {
          "pitch": 60,
          "onset": 210.0,
          "duration": 0.5,
          "velocity": 80
        },
        {
          "pitch": 67,
          "onset": 210.0,
          "duration": 2.0,
          "velocity": 80
        },
        {
          "pitch": 58,
          "onset": 210.5,
          "duration": 0.5,
          "velocity": 80
        },
        {
          "pitch": 56,
          "onset": 211.0,
          "duration": 0.5,
          "velocity": 80
        },
        {
          "pitch": 55,
          "onset": 211.5,
          "duration": 0.5,
          "velocity": 80
        },
        {
          "pitch": 56,
          "onset": 212.0,
          "duration": 2.0,
          "velocity": 80
        },
        {
          "pitch": 60,
          "onset": 212.0,
          "duration": 2.0,
          "velocity": 80
        },
        {
          "pitch": 58,
          "onset": 214.0,
          "duration": 2.0,
          "velocity": 80
        },
        {
          "pitch": 61,
          "onset": 214.0,
          "duration": 2.0,
          "velocity": 80
        },
        {
          "pitch": 56,
          "onset": 216.0,
          "duration": 2.0,
          "velocity": 80
        },
        {
          "pitch": 60,
          "onset": 216.0,
          "duration": 4.0,
          "velocity": 80
        },
        {
          "pitch": 53,
          "onset": 220.0,
          "duration": 1.5,
          "velocity": 80
        },
        {
          "pitch": 55,
          "onset": 221.5,
          "duration": 0.5,
          "velocity": 80
        },
        {
          "pitch": 53,
          "onset": 222.0,
          "duration": 0.5,
          "velocity": 80
        },
        {
          "pitch": 51,
          "onset": 222.5,
          "duration": 0.5,
          "velocity": 80
        },
        {
          "pitch": 50,
          "onset": 223.0,
          "duration": 0.5,
          "velocity": 80
        },
        {
          "pitch": 48,
          "onset": 223.5,
          "duration": 0.5,
          "velocity": 80
        },
        {
          "pitch": 50,
          "onset": 224.0,
          "duration": 2.0,
          "velocity": 80
        },
        {
          "pitch": 51,
          "onset": 226.0,
          "duration": 1.0,
          "velocity": 80
        },
        {
          "pitch": 55,
          "onset": 227.0,
          "duration": 1.0,
          "velocity": 80
        },
        {
          "pitch": 57,
          "onset": 228.0,
          "duration": 1.0,
          "velocity": 80
        },
        {
          "pitch": 59,
          "onset": 229.0,
          "duration": 1.0,
          "velocity": 80
        },
        {
          "pitch": 65,
          "onset": 229.0,
          "duration": 1.0,
          "velocity": 80
        },
        {
          "pitch": 60,
          "onset": 230.0,
          "duration": 1.0,
          "velocity": 80
        },
        {
          "pitch": 63,
          "onset": 230.0,
          "duration": 1.0,
          "velocity": 80
        },
        {
          "pitch": 57,
          "onset": 231.0,
          "duration": 1.0,
          "velocity": 80
        },
        {
          "pitch": 62,
          "onset": 231.0,
          "duration": 0.5,
          "velocity": 80
        },
        {
          "pitch": 63,
          "onset": 231.5,
          "duration": 0.5,
          "velocity": 80
        },
        {
          "pitch": 55,
          "onset": 232.0,
          "duration": 2.0,
          "velocity": 80
        },
        {
          "pitch": 63,
          "onset": 232.0,
          "duration": 0.5,
          "velocity": 80
        },
        {
          "pitch": 62,
          "onset": 232.5,
          "duration": 1.0,
          "velocity": 80
        },
        {
          "pitch": 65,
          "onset": 233.5,
          "duration": 0.5,
          "velocity": 80
        },
        {
          "pitch": 65,
          "onset": 234.0,
          "duration": 0.5,
          "velocity": 80
        },
        {
          "pitch": 63,
          "onset": 234.5,
          "duration": 1.0,
          "velocity": 80
        },
        {
          "pitch": 67,
          "onset": 235.5,
          "duration": 0.5,
          "velocity": 80
        },
        {
          "pitch": 67,
          "onset": 236.0,
          "duration": 0.5,
          "velocity": 80
        },
        {
          "pitch": 65,
          "onset": 236.5,
          "duration": 1.0,
          "velocity": 80
        },
        {
          "pitch": 68,
          "onset": 237.5,
          "duration": 0.5,
          "velocity": 80
        },
        {
          "pitch": 68,
          "onset": 238.0,
          "duration": 0.5,
          "velocity": 80
        },
        {
          "pitch": 67,
          "onset": 238.5,
          "duration": 1.5,
          "velocity": 80
        },
        {
          "pitch": 65,
          "onset": 240.0,
          "duration": 1.0,
          "velocity": 80
        },
        {
          "pitch": 60,
          "onset": 241.0,
          "duration": 2.0,
          "velocity": 80
        },
        {
          "pitch": 53,
          "onset": 242.0,
          "duration": 1.5,
          "velocity": 80
        },
        {
          "pitch": 62,
          "onset": 243.0,
          "duration": 1.0,
          "velocity": 80
        },
        {
          "pitch": 55,
          "onset": 243.5,
          "duration": 0.5,
          "velocity": 80
        },
        {
          "pitch": 53,
          "onset": 244.0,
          "duration": 0.5,
          "velocity": 80
        },
        {
          "pitch": 55,
          "onset": 244.0,
          "duration": 0.5,
          "velocity": 80
        },
        {
          "pitch": 60,
          "onset": 244.5,
          "duration": 0.5,
          "velocity": 80
        },
        {
          "pitch": 50,
          "onset": 245.0,
          "duration": 0.5,
          "velocity": 80
        },
        {
          "pitch": 58,
          "onset": 245.0,
          "duration": 0.5,
          "velocity": 80
        },
        {
          "pitch": 48,
          "onset": 245.5,
          "duration": 0.5,
          "velocity": 80
        },
        {
          "pitch": 56,
          "onset": 245.5,
          "duration": 0.5,
          "velocity": 80
        },
        {
          "pitch": 47,
          "onset": 246.0,
          "duration": 1.0,
          "velocity": 80
        },
        {
          "pitch": 55,
          "onset": 246.0,
          "duration": 2.0,
          "velocity": 80
        },
        {
          "pitch": 48,
          "onset": 247.0,
          "duration": 1.0,
          "velocity": 80
        },
        {
          "pitch": 53,
          "onset": 248.0,
          "duration": 2.0,
          "velocity": 80
        },
        {
          "pitch": 56,
          "onset": 248.0,
          "duration": 1.0,
          "velocity": 80
        },
        {
          "pitch": 55,
          "onset": 249.0,
          "duration": 2.0,
          "velocity": 80
        },
        {
          "pitch": 51,
          "onset": 250.0,
          "duration": 1.0,
          "velocity": 80
        },
        {
          "pitch": 53,
          "onset": 251.0,
          "duration": 3.0,
          "velocity": 80
        },
        {
          "pitch": 56,
          "onset": 251.0,
          "duration": 0.5,
          "velocity": 80
        },
        {
          "pitch": 58,
          "onset": 251.5,
          "duration": 0.5,
          "velocity": 80
        },
        {
          "pitch": 60,
          "onset": 252.0,
          "duration": 1.5,
          "velocity": 80
        },
        {
          "pitch": 61,
          "onset": 253.5,
          "duration": 0.5,
          "velocity": 80
        },
        {
          "pitch": 60,
          "onset": 254.0,
          "duration": 0.5,
          "velocity": 80
        },
        {
          "pitch": 59,
          "onset": 254.5,
          "duration": 0.5,
          "velocity": 80
        },
        {
          "pitch": 60,
          "onset": 255.0,
          "duration": 0.5,
          "velocity": 80
        },
        {
          "pitch": 62,
          "onset": 255.5,
          "duration": 0.5,
          "velocity": 80
        },
        {
          "pitch": 55,
          "onset": 256.0,
          "duration": 3.0,
          "velocity": 80
        },
        {
          "pitch": 59,
          "onset": 257.0,
          "duration": 1.0,
          "velocity": 80
        },
        {
          "pitch": 60,
          "onset": 258.0,
          "duration": 2.5,
          "velocity": 80
        },
        {
          "pitch": 63,
          "onset": 260.5,
          "duration": 0.5,
          "velocity": 80
        },
        {
          "pitch": 62,
          "onset": 261.0,
          "duration": 0.5,
          "velocity": 80
        },
        {
          "pitch": 60,
          "onset": 261.5,
          "duration": 0.5,
          "velocity": 80
        },
        {
          "pitch": 62,
          "onset": 262.0,
          "duration": 0.5,
          "velocity": 80
        },
        {
          "pitch": 60,
          "onset": 262.5,
          "duration": 0.5,
          "velocity": 80
        },
        {
          "pitch": 59,
          "onset": 263.0,
          "duration": 0.5,
          "velocity": 80
        },
        {
          "pitch": 57,
          "onset": 263.5,
          "duration": 0.5,
          "velocity": 80
        },
        {
          "pitch": 55,
          "onset": 264.0,
          "duration": 2.0,
          "velocity": 80
        },
        {
          "pitch": 53,
          "onset": 264.5,
          "duration": 0.5,
          "velocity": 80
        },
        {
          "pitch": 51,
          "onset": 265.0,
          "duration": 0.5,
          "velocity": 80
        },
        {
          "pitch": 50,
          "onset": 265.5,
          "duration": 0.5,
          "velocity": 80
        },
        {
          "pitch": 51,
          "onset": 266.0,
          "duration": 0.5,
          "velocity": 80
        },
        {
          "pitch": 60,
          "onset": 266.0,
          "duration": 2.0,
          "velocity": 80
        },
        {
          "pitch": 50,
          "onset": 266.5,
          "duration": 0.5,
          "velocity": 80
        },
        {
          "pitch": 48,
          "onset": 267.0,
          "duration": 0.5,
          "velocity": 80
        },
        {
          "pitch": 46,
          "onset": 267.5,
          "duration": 0.5,
          "velocity": 80
        },
        {
          "pitch": 44,
          "onset": 268.0,
          "duration": 0.5,
          "velocity": 80
        },
        {
          "pitch": 62,
          "onset": 268.0,
          "duration": 2.0,
          "velocity": 80
        },
        {
          "pitch": 48,
          "onset": 268.5,
          "duration": 0.5,
          "velocity": 80
        },
        {
          "pitch": 53,
          "onset": 269.0,
          "duration": 0.5,
          "velocity": 80
        },
        {
          "pitch": 56,
          "onset": 269.5,
          "duration": 0.5,
          "velocity": 80
        },
        {
          "pitch": 55,
          "onset": 270.0,
          "duration": 4.0,
          "velocity": 80
        },
        {
          "pitch": 53,
          "onset": 274.0,
          "duration": 1.0,
          "velocity": 80
        },
        {
          "pitch": 56,
          "onset": 275.0,
          "duration": 1.0,
          "velocity": 80
        },
        {
          "pitch": 55,
          "onset": 276.0,
          "duration": 5.5,
          "velocity": 80
        },
        {
          "pitch": 67,
          "onset": 276.0,
          "duration": 1.5,
          "velocity": 80
        },
        {
          "pitch": 68,
          "onset": 277.5,
          "duration": 0.5,
          "velocity": 80
        },
        {
          "pitch": 67,
          "onset": 278.0,
          "duration": 0.5,
          "velocity": 80
        },
        {
          "pitch": 65,
          "onset": 278.5,
          "duration": 0.5,
          "velocity": 80
        },
        {
          "pitch": 63,
          "onset": 279.0,
          "duration": 0.5,
          "velocity": 80
        },
        {
          "pitch": 62,
          "onset": 279.5,
          "duration": 0.5,
          "velocity": 80
        },
        {
          "pitch": 63,
          "onset": 280.0,
          "duration": 1.5,
          "velocity": 80
        },
        {
          "pitch": 56,
          "onset": 281.5,
          "duration": 0.5,
          "velocity": 80
        },
        {
          "pitch": 65,
          "onset": 281.5,
          "duration": 0.5,
          "velocity": 80
        },
        {
          "pitch": 55,
          "onset": 282.0,
          "duration": 0.5,
          "velocity": 80
        },
        {
          "pitch": 63,
          "onset": 282.0,
          "duration": 0.5,
          "velocity": 80
        },
        {
          "pitch": 53,
          "onset": 282.5,
          "duration": 0.5,
          "velocity": 80
        },
        {
          "pitch": 62,
          "onset": 282.5,
          "duration": 0.5,
          "velocity": 80
        },
        {
          "pitch": 51,
          "onset": 283.0,
          "duration": 0.5,
          "velocity": 80
        },
        {
          "pitch": 60,
          "onset": 283.0,
          "duration": 0.5,
          "velocity": 80
        },
        {
          "pitch": 50,
          "onset": 283.5,
          "duration": 0.5,
          "velocity": 80
        },
        {
          "pitch": 59,
          "onset": 283.5,
          "duration": 0.5,
          "velocity": 80
        },
        {
          "pitch": 51,
          "onset": 284.0,
          "duration": 2.0,
          "velocity": 80
        },
        {
          "pitch": 60,
          "onset": 284.0,
          "duration": 5.5,
          "velocity": 80
        },
        {
          "pitch": 52,
          "onset": 286.0,
          "duration": 2.0,
          "velocity": 80
        },
        {
          "pitch": 53,
          "onset": 288.0,
          "duration": 2.0,
          "velocity": 80
        },
        {
          "pitch": 61,
          "onset": 289.5,
          "duration": 0.5,
          "velocity": 80
        },
        {
          "pitch": 55,
          "onset": 290.0,
          "duration": 1.0,
          "velocity": 80
        },
        {
          "pitch": 60,
          "onset": 290.0,
          "duration": 0.5,
          "velocity": 80
        },
        {
          "pitch": 58,
          "onset": 290.5,
          "duration": 0.5,
          "velocity": 80
        },
        {
          "pitch": 53,
          "onset": 291.0,
          "duration": 0.5,
          "velocity": 80
        },
        {
          "pitch": 56,
          "onset": 291.0,
          "duration": 0.5,
          "velocity": 80
        },
        {
          "pitch": 52,
          "onset": 291.5,
          "duration": 0.5,
          "velocity": 80
        },
        {
          "pitch": 55,
          "onset": 291.5,
          "duration": 0.5,
          "velocity": 80
        },
        {
          "pitch": 53,
          "onset": 292.0,
          "duration": 1.0,
          "velocity": 80
        },
        {
          "pitch": 56,
          "onset": 292.0,
          "duration": 2.0,
          "velocity": 80
        },
        {
          "pitch": 44,
          "onset": 293.0,
          "duration": 0.5,
          "velocity": 80
        },
        {
          "pitch": 46,
          "onset": 293.5,
          "duration": 0.5,
          "velocity": 80
        },
        {
          "pitch": 48,
          "onset": 294.0,
          "duration": 3.0,
          "velocity": 80
        },
        {
          "pitch": 55,
          "onset": 294.0,
          "duration": 1.0,
          "velocity": 80
        },
        {
          "pitch": 60,
          "onset": 295.0,
          "duration": 1.5,
          "velocity": 80
        },
        {
          "pitch": 58,
          "onset": 296.5,
          "duration": 0.5,
          "velocity": 80
        },
        {
          "pitch": 53,
          "onset": 297.0,
          "duration": 1.5,
          "velocity": 80
        },
        {
          "pitch": 56,
          "onset": 297.0,
          "duration": 2.5,
          "velocity": 80
        },
        {
          "pitch": 55,
          "onset": 298.5,
          "duration": 0.5,
          "velocity": 80
        },
        {
          "pitch": 53,
          "onset": 299.0,
          "duration": 0.5,
          "velocity": 80
        },
        {
          "pitch": 51,
          "onset": 299.5,
          "duration": 0.5,
          "velocity": 80
        },
        {
          "pitch": 55,
          "onset": 299.5,
          "duration": 0.5,
          "velocity": 80
        },
        {
          "pitch": 50,
          "onset": 300.0,
          "duration": 2.5,
          "velocity": 80
        },
        {
          "pitch": 53,
          "onset": 300.0,
          "duration": 2.5,
          "velocity": 80
        },
        {
          "pitch": 62,
          "onset": 303.0,
          "duration": 2.0,
          "velocity": 80
        },
        {
          "pitch": 59,
          "onset": 303.5,
          "duration": 1.5,
          "velocity": 80
        },
        {
          "pitch": 65,
          "onset": 305.0,
          "duration": 2.0,
          "velocity": 80
        },
        {
          "pitch": 62,
          "onset": 305.5,
          "duration": 1.5,
          "velocity": 80
        },
        {
          "pitch": 59,
          "onset": 306.0,
          "duration": 1.0,
          "velocity": 80
        },
        {
          "pitch": 68,
          "onset": 307.0,
          "duration": 1.0,
          "velocity": 80
        },
        {
          "pitch": 65,
          "onset": 307.5,
          "duration": 2.5,
          "velocity": 80
        },
        {
          "pitch": 62,
          "onset": 308.0,
          "duration": 2.0,
          "velocity": 80
        },
        {
          "pitch": 56,
          "onset": 314.0,
          "duration": 3.5,
          "velocity": 80
        },
        {
          "pitch": 62,
          "onset": 314.0,
          "duration": 2.0,
          "velocity": 80
        },
        {
          "pitch": 60,
          "onset": 316.0,
          "duration": 12.0,
          "velocity": 80
        },
        {
          "pitch": 58,
          "onset": 317.5,
          "duration": 0.5,
          "velocity": 80
        },
        {
          "pitch": 56,
          "onset": 318.0,
          "duration": 0.5,
          "velocity": 80
        },
        {
          "pitch": 55,
          "onset": 318.5,
          "duration": 0.5,
          "velocity": 80
        },
        {
          "pitch": 53,
          "onset": 319.0,
          "duration": 1.0,
          "velocity": 80
        },
        {
          "pitch": 55,
          "onset": 320.0,
          "duration": 8.0,
          "velocity": 80
        }
      ]
    },
    {
      "role": "pedal",
      "notes": [
        {
          "pitch": 24,
          "onset": 0.0,
          "duration": 31.0,
          "velocity": 80
        },
        {
          "pitch": 26,
          "onset": 31.0,
          "duration": 0.5,
          "velocity": 80
        },
        {
          "pitch": 27,
          "onset": 31.5,
          "duration": 0.5,
          "velocity": 80
        },
        {
          "pitch": 29,
          "onset": 32.0,
          "duration": 3.0,
          "velocity": 80
        },
        {
          "pitch": 31,
          "onset": 35.0,
          "duration": 1.0,
          "velocity": 80
        },
        {
          "pitch": 32,
          "onset": 36.0,
          "duration": 4.0,
          "velocity": 80
        },
        {
          "pitch": 31,
          "onset": 40.0,
          "duration": 7.0,
          "velocity": 80
        },
        {
          "pitch": 31,
          "onset": 48.0,
          "duration": 27.0,
          "velocity": 80
        },
        {
          "pitch": 33,
          "onset": 75.0,
          "duration": 0.5,
          "velocity": 80
        },
        {
          "pitch": 34,
          "onset": 75.5,
          "duration": 0.5,
          "velocity": 80
        },
        {
          "pitch": 36,
          "onset": 76.0,
          "duration": 2.0,
          "velocity": 80
        },
        {
          "pitch": 38,
          "onset": 78.0,
          "duration": 2.0,
          "velocity": 80
        },
        {
          "pitch": 39,
          "onset": 80.0,
          "duration": 4.0,
          "velocity": 80
        },
        {
          "pitch": 38,
          "onset": 84.0,
          "duration": 5.5,
          "velocity": 80
        },
        {
          "pitch": 39,
          "onset": 89.5,
          "duration": 0.5,
          "velocity": 80
        },
        {
          "pitch": 38,
          "onset": 90.0,
          "duration": 0.5,
          "velocity": 80
        },
        {
          "pitch": 36,
          "onset": 90.5,
          "duration": 0.5,
          "velocity": 80
        },
        {
          "pitch": 34,
          "onset": 91.0,
          "duration": 0.5,
          "velocity": 80
        },
        {
          "pitch": 33,
          "onset": 91.5,
          "duration": 0.5,
          "velocity": 80
        },
        {
          "pitch": 34,
          "onset": 92.0,
          "duration": 2.0,
          "velocity": 80
        },
        {
          "pitch": 30,
          "onset": 94.0,
          "duration": 2.0,
          "velocity": 80
        },
        {
          "pitch": 43,
          "onset": 96.0,
          "duration": 1.5,
          "velocity": 80
        },
        {
          "pitch": 44,
          "onset": 97.5,
          "duration": 0.5,
          "velocity": 80
        },
        {
          "pitch": 43,
          "onset": 98.0,
          "duration": 0.5,
          "velocity": 80
        },
        {
          "pitch": 41,
          "onset": 98.5,
          "duration": 0.5,
          "velocity": 80
        },
        {
          "pitch": 39,
          "onset": 99.0,
          "duration": 0.5,
          "velocity": 80
        },
        {
          "pitch": 38,
          "onset": 99.5,
          "duration": 0.5,
          "velocity": 80
        },
        {
          "pitch": 39,
          "onset": 100.0,
          "duration": 2.0,
          "velocity": 80
        },
        {
          "pitch": 35,
          "onset": 102.0,
          "duration": 2.0,
          "velocity": 80
        },
        {
          "pitch": 36,
          "onset": 104.0,
          "duration": 1.5,
          "velocity": 80
        },
        {
          "pitch": 37,
          "onset": 105.5,
          "duration": 0.5,
          "velocity": 80
        },
        {
          "pitch": 36,
          "onset": 106.0,
          "duration": 0.5,
          "velocity": 80
        },
        {
          "pitch": 34,
          "onset": 106.5,
          "duration": 0.5,
          "velocity": 80
        },
        {
          "pitch": 32,
          "onset": 107.0,
          "duration": 0.5,
          "velocity": 80
        },
        {
          "pitch": 31,
          "onset": 107.5,
          "duration": 0.5,
          "velocity": 80
        },
        {
          "pitch": 32,
          "onset": 108.0,
          "duration": 2.0,
          "velocity": 80
        },
        {
          "pitch": 28,
          "onset": 110.0,
          "duration": 2.0,
          "velocity": 80
        },
        {
          "pitch": 41,
          "onset": 112.0,
          "duration": 1.5,
          "velocity": 80
        },
        {
          "pitch": 43,
          "onset": 113.5,
          "duration": 0.5,
          "velocity": 80
        },
        {
          "pitch": 41,
          "onset": 114.0,
          "duration": 0.5,
          "velocity": 80
        },
        {
          "pitch": 39,
          "onset": 114.5,
          "duration": 0.5,
          "velocity": 80
        },
        {
          "pitch": 38,
          "onset": 115.0,
          "duration": 0.5,
          "velocity": 80
        },
        {
          "pitch": 36,
          "onset": 115.5,
          "duration": 0.5,
          "velocity": 80
        },
        {
          "pitch": 38,
          "onset": 116.0,
          "duration": 2.0,
          "velocity": 80
        },
        {
          "pitch": 33,
          "onset": 118.0,
          "duration": 2.0,
          "velocity": 80
        },
        {
          "pitch": 34,
          "onset": 120.0,
          "duration": 17.0,
          "velocity": 80
        },
        {
          "pitch": 36,
          "onset": 137.0,
          "duration": 1.0,
          "velocity": 80
        },
        {
          "pitch": 37,
          "onset": 138.0,
          "duration": 1.0,
          "velocity": 80
        },
        {
          "pitch": 31,
          "onset": 139.0,
          "duration": 1.0,
          "velocity": 80
        },
        {
          "pitch": 32,
          "onset": 140.0,
          "duration": 1.0,
          "velocity": 80
        },
        {
          "pitch": 34,
          "onset": 141.0,
          "duration": 1.0,
          "velocity": 80
        },
        {
          "pitch": 36,
          "onset": 142.0,
          "duration": 1.0,
          "velocity": 80
        },
        {
          "pitch": 32,
          "onset": 143.0,
          "duration": 1.0,
          "velocity": 80
        },
        {
          "pitch": 34,
          "onset": 144.0,
          "duration": 4.0,
          "velocity": 80
        },
        {
          "pitch": 27,
          "onset": 148.0,
          "duration": 17.0,
          "velocity": 80
        },
        {
          "pitch": 36,
          "onset": 192.0,
          "duration": 1.5,
          "velocity": 80
        },
        {
          "pitch": 37,
          "onset": 193.5,
          "duration": 0.5,
          "velocity": 80
        },
        {
          "pitch": 36,
          "onset": 194.0,
          "duration": 0.5,
          "velocity": 80
        },
        {
          "pitch": 34,
          "onset": 194.5,
          "duration": 0.5,
          "velocity": 80
        },
        {
          "pitch": 32,
          "onset": 195.0,
          "duration": 0.5,
          "velocity": 80
        },
        {
          "pitch": 31,
          "onset": 195.5,
          "duration": 0.5,
          "velocity": 80
        },
        {
          "pitch": 32,
          "onset": 196.0,
          "duration": 1.5,
          "velocity": 80
        },
        {
          "pitch": 34,
          "onset": 197.5,
          "duration": 0.5,
          "velocity": 80
        },
        {
          "pitch": 36,
          "onset": 198.0,
          "duration": 2.0,
          "velocity": 80
        },
        {
          "pitch": 29,
          "onset": 200.0,
          "duration": 16.0,
          "velocity": 80
        },
        {
          "pitch": 41,
          "onset": 216.0,
          "duration": 1.5,
          "velocity": 80
        },
        {
          "pitch": 43,
          "onset": 217.5,
          "duration": 0.5,
          "velocity": 80
        },
        {
          "pitch": 41,
          "onset": 218.0,
          "duration": 0.5,
          "velocity": 80
        },
        {
          "pitch": 39,
          "onset": 218.5,
          "duration": 0.5,
          "velocity": 80
        },
        {
          "pitch": 38,
          "onset": 219.0,
          "duration": 0.5,
          "velocity": 80
        },
        {
          "pitch": 36,
          "onset": 219.5,
          "duration": 0.5,
          "velocity": 80
        },
        {
          "pitch": 38,
          "onset": 220.0,
          "duration": 1.5,
          "velocity": 80
        },
        {
          "pitch": 39,
          "onset": 221.5,
          "duration": 0.5,
          "velocity": 80
        },
        {
          "pitch": 36,
          "onset": 222.0,
          "duration": 1.0,
          "velocity": 80
        },
        {
          "pitch": 35,
          "onset": 223.0,
          "duration": 0.5,
          "velocity": 80
        },
        {
          "pitch": 33,
          "onset": 223.5,
          "duration": 0.5,
          "velocity": 80
        },
        {
          "pitch": 35,
          "onset": 224.0,
          "duration": 1.0,
          "velocity": 80
        },
        {
          "pitch": 31,
          "onset": 225.0,
          "duration": 1.0,
          "velocity": 80
        },
        {
          "pitch": 36,
          "onset": 226.0,
          "duration": 1.0,
          "velocity": 80
        },
        {
          "pitch": 39,
          "onset": 227.0,
          "duration": 1.0,
          "velocity": 80
        },
        {
          "pitch": 41,
          "onset": 228.0,
          "duration": 1.0,
          "velocity": 80
        },
        {
          "pitch": 43,
          "onset": 229.0,
          "duration": 1.0,
          "velocity": 80
        },
        {
          "pitch": 44,
          "onset": 230.0,
          "duration": 1.0,
          "velocity": 80
        },
        {
          "pitch": 42,
          "onset": 231.0,
          "duration": 1.0,
          "velocity": 80
        },
        {
          "pitch": 43,
          "onset": 232.0,
          "duration": 1.0,
          "velocity": 80
        },
        {
          "pitch": 31,
          "onset": 233.0,
          "duration": 1.0,
          "velocity": 80
        },
        {
          "pitch": 32,
          "onset": 234.0,
          "duration": 1.0,
          "velocity": 80
        },
        {
          "pitch": 33,
          "onset": 235.0,
          "duration": 1.0,
          "velocity": 80
        },
        {
          "pitch": 34,
          "onset": 236.0,
          "duration": 1.0,
          "velocity": 80
        },
        {
          "pitch": 35,
          "onset": 237.0,
          "duration": 1.0,
          "velocity": 80
        },
        {
          "pitch": 36,
          "onset": 238.0,
          "duration": 1.0,
          "velocity": 80
        },
        {
          "pitch": 24,
          "onset": 239.0,
          "duration": 1.0,
          "velocity": 80
        },
        {
          "pitch": 26,
          "onset": 240.0,
          "duration": 1.0,
          "velocity": 80
        },
        {
          "pitch": 28,
          "onset": 241.0,
          "duration": 1.0,
          "velocity": 80
        },
        {
          "pitch": 29,
          "onset": 242.0,
          "duration": 1.0,
          "velocity": 80
        },
        {
          "pitch": 26,
          "onset": 243.0,
          "duration": 1.0,
          "velocity": 80
        },
        {
          "pitch": 27,
          "onset": 244.0,
          "duration": 1.0,
          "velocity": 80
        },
        {
          "pitch": 29,
          "onset": 245.0,
          "duration": 1.0,
          "velocity": 80
        },
        {
          "pitch": 31,
          "onset": 246.0,
          "duration": 1.0,
          "velocity": 80
        },
        {
          "pitch": 27,
          "onset": 247.0,
          "duration": 1.0,
          "velocity": 80
        },
        {
          "pitch": 29,
          "onset": 248.0,
          "duration": 1.0,
          "velocity": 80
        },
        {
          "pitch": 31,
          "onset": 249.0,
          "duration": 1.0,
          "velocity": 80
        },
        {
          "pitch": 32,
          "onset": 250.0,
          "duration": 3.0,
          "velocity": 80
        },
        {
          "pitch": 44,
          "onset": 253.0,
          "duration": 1.0,
          "velocity": 80
        },
        {
          "pitch": 38,
          "onset": 254.0,
          "duration": 1.0,
          "velocity": 80
        },
        {
          "pitch": 41,
          "onset": 255.0,
          "duration": 1.0,
          "velocity": 80
        },
        {
          "pitch": 35,
          "onset": 256.0,
          "duration": 1.0,
          "velocity": 80
        },
        {
          "pitch": 43,
          "onset": 257.0,
          "duration": 1.0,
          "velocity": 80
        },
        {
          "pitch": 36,
          "onset": 258.0,
          "duration": 1.0,
          "velocity": 80
        },
        {
          "pitch": 39,
          "onset": 259.0,
          "duration": 1.0,
          "velocity": 80
        },
        {
          "pitch": 33,
          "onset": 260.0,
          "duration": 1.0,
          "velocity": 80
        },
        {
          "pitch": 41,
          "onset": 261.0,
          "duration": 1.0,
          "velocity": 80
        },
        {
          "pitch": 35,
          "onset": 262.0,
          "duration": 1.0,
          "velocity": 80
        },
        {
          "pitch": 38,
          "onset": 263.0,
          "duration": 1.0,
          "velocity": 80
        },
        {
          "pitch": 31,
          "onset": 264.0,
          "duration": 1.0,
          "velocity": 80
        },
        {
          "pitch": 39,
          "onset": 265.0,
          "duration": 1.0,
          "velocity": 80
        },
        {
          "pitch": 32,
          "onset": 266.0,
          "duration": 1.0,
          "velocity": 80
        },
        {
          "pitch": 36,
          "onset": 267.0,
          "duration": 1.0,
          "velocity": 80
        },
        {
          "pitch": 29,
          "onset": 268.0,
          "duration": 1.0,
          "velocity": 80
        },
        {
          "pitch": 38,
          "onset": 269.0,
          "duration": 1.0,
          "velocity": 80
        },
        {
          "pitch": 31,
          "onset": 270.0,
          "duration": 1.0,
          "velocity": 80
        },
        {
          "pitch": 35,
          "onset": 271.0,
          "duration": 1.0,
          "velocity": 80
        },
        {
          "pitch": 27,
          "onset": 272.0,
          "duration": 1.0,
          "velocity": 80
        },
        {
          "pitch": 32,
          "onset": 273.0,
          "duration": 0.5,
          "velocity": 80
        },
        {
          "pitch": 31,
          "onset": 273.5,
          "duration": 0.5,
          "velocity": 80
        },
        {
          "pitch": 32,
          "onset": 274.0,
          "duration": 1.0,
          "velocity": 80
        },
        {
          "pitch": 29,
          "onset": 275.0,
          "duration": 1.0,
          "velocity": 80
        },
        {
          "pitch": 31,
          "onset": 276.0,
          "duration": 4.0,
          "velocity": 80
        },
        {
          "pitch": 24,
          "onset": 280.0,
          "duration": 48.0,
          "velocity": 80
        }
      ]
    }
  ]
}