{
  "bwv": 682,
  "category": "clavierubung3",
  "instrument": "organ",
  "form": "",
  "movement": null,
  "tonic": "E",
  "mode": "minor",
  "confidence": "inferred",
  "ticks_per_beat": 480,
  "duration_seconds": 365.5,
  "tempos": [
    {
      "tick": 0,
      "bpm": 45
    },
    {
      "tick": 60,
      "bpm": 240
    },
    {
      "tick": 900,
      "bpm": 45
    },
    {
      "tick": 129120,
      "bpm": 45
    },
    {
      "tick": 130560,
      "bpm": 40
    }
  ],
  "time_signatures": [
    {
      "tick": 0,
      "numerator": 3,
      "denominator": 4
    }
  ],
  "track_type": "manual",
  "voice_count": 2,
  "total_notes": 2278,
  "tracks": [
    {
      "role": "manual",
      "notes": [
        {
          "pitch": 71,
          "onset": 2.0,
          "duration": 1.0,
          "velocity": 100
        },
        {
          "pitch": 71,
          "onset": 3.0,
          "duration": 0.625,
          "velocity": 100
        },
        {
          "pitch": 72,
          "onset": 3.625,
          "duration": 0.125,
          "velocity": 100
        },
        {
          "pitch": 71,
          "onset": 3.75,
          "duration": 0.125,
          "velocity": 100
        },
        {
          "pitch": 69,
          "onset": 3.875,
          "duration": 0.125,
          "velocity": 100
        },
        {
          "pitch": 67,
          "onset": 4.0,
          "duration": 0.0625,
          "velocity": 100
        },
        {
          "pitch": 69,
          "onset": 4.0625,
          "duration": 0.0625,
          "velocity": 100
        },
        {
          "pitch": 67,
          "onset": 4.125,
          "duration": 1.375,
          "velocity": 100
        },
        {
          "pitch": 66,
          "onset": 5.5,
          "duration": 0.25,
          "velocity": 100
        },
        {
          "pitch": 67,
          "onset": 5.75,
          "duration": 0.25,
          "velocity": 100
        },
        {
          "pitch": 69,
          "onset": 6.0,
          "duration": 0.125,
          "velocity": 100
        },
        {
          "pitch": 66,
          "onset": 6.125,
          "duration": 0.375,
          "velocity": 100
        },
        {
          "pitch": 64,
          "onset": 6.5,
          "duration": 0.125,
          "velocity": 100
        },
        {
          "pitch": 67,
          "onset": 6.625,
          "duration": 0.375,
          "velocity": 100
        },
        {
          "pitch": 66,
          "onset": 7.0,
          "duration": 0.125,
          "velocity": 100
        },
        {
          "pitch": 64,
          "onset": 7.125,
          "duration": 0.125,
          "velocity": 100
        },
        {
          "pitch": 63,
          "onset": 7.25,
          "duration": 0.25,
          "velocity": 100
        },
        {
          "pitch": 72,
          "onset": 7.5,
          "duration": 0.75,
          "velocity": 100
        },
        {
          "pitch": 71,
          "onset": 8.25,
          "duration": 0.25,
          "velocity": 100
        },
        {
          "pitch": 69,
          "onset": 8.5,
          "duration": 0.75,
          "velocity": 100
        },
        {
          "pitch": 67,
          "onset": 9.25,
          "duration": 0.25,
          "velocity": 100
        },
        {
          "pitch": 66,
          "onset": 9.5,
          "duration": 0.25,
          "velocity": 100
        },
        {
          "pitch": 64,
          "onset": 9.75,
          "duration": 0.25,
          "velocity": 100
        },
        {
          "pitch": 67,
          "onset": 10.0,
          "duration": 1.0,
          "velocity": 100
        },
        {
          "pitch": 66,
          "onset": 11.0,
          "duration": 0.0625,
          "velocity": 100
        },
        {
          "pitch": 67,
          "onset": 11.0625,
          "duration": 0.0625,
          "velocity": 100
        },
        {
          "pitch": 66,
          "onset": 11.125,
          "duration": 0.625,
          "velocity": 100
        },
        {
          "pitch": 64,
          "onset": 11.75,
          "duration": 0.125,
          "velocity": 100
        },
        {
          "pitch": 66,
          "onset": 11.875,
          "duration": 0.125,
          "velocity": 100
        },
        {
          "pitch": 64,
          "onset": 12.0,
          "duration": 0.5,
          "velocity": 100
        },
        {
          "pitch": 67,
          "onset": 12.5,
          "duration": 0.125,
          "velocity": 100
        },
        {
          "pitch": 66,
          "onset": 12.625,
          "duration": 0.375,
          "velocity": 100
        },
        {
          "pitch": 69,
          "onset": 13.0,
          "duration": 0.125,
          "velocity": 100
        },
        {
          "pitch": 68,
          "onset": 13.125,
          "duration": 0.375,
          "velocity": 100
        },
        {
          "pitch": 71,
          "onset": 13.5,
          "duration": 0.125,
          "velocity": 100
        },
        {
          "pitch": 70,
          "onset": 13.625,
          "duration": 0.375,
          "velocity": 100
        },
        {
          "pitch": 64,
          "onset": 14.0,
          "duration": 1.0,
          "velocity": 100
        },
        {
          "pitch": 73,
          "onset": 14.0,
          "duration": 0.125,
          "velocity": 100
        },
        {
          "pitch": 71,
          "onset": 14.125,
          "duration": 0.375,
          "velocity": 100
        },
        {
          "pitch": 74,
          "onset": 14.5,
          "duration": 0.125,
          "velocity": 100
        },
        {
          "pitch": 73,
          "onset": 14.625,
          "duration": 0.375,
          "velocity": 100
        },
        {
          "pitch": 64,
          "onset": 15.0,
          "duration": 0.625,
          "velocity": 100
        },
        {
          "pitch": 71,
          "onset": 15.0,
          "duration": 0.125,
          "velocity": 100
        },
        {
          "pitch": 70,
          "onset": 15.125,
          "duration": 0.375,
          "velocity": 100
        },
        {
          "pitch": 78,
          "onset": 15.5,
          "duration": 1.0,
          "velocity": 100
        },
        {
          "pitch": 67,
          "onset": 15.625,
          "duration": 0.125,
          "velocity": 100
        },
        {
          "pitch": 66,
          "onset": 15.75,
          "duration": 0.125,
          "velocity": 100
        },
        {
          "pitch": 64,
          "onset": 15.875,
          "duration": 0.125,
          "velocity": 100
        },
        {
          "pitch": 62,
          "onset": 16.0,
          "duration": 0.0625,
          "velocity": 100
        },
        {
          "pitch": 64,
          "onset": 16.0625,
          "duration": 0.0625,
          "velocity": 100
        },
        {
          "pitch": 62,
          "onset": 16.125,
          "duration": 0.0625,
          "velocity": 100
        },
        {
          "pitch": 64,
          "onset": 16.1875,
          "duration": 0.0625,
          "velocity": 100
        },
        {
          "pitch": 62,
          "onset": 16.25,
          "duration": 0.0625,
          "velocity": 100
        },
        {
          "pitch": 64,
          "onset": 16.3125,
          "duration": 0.0625,
          "velocity": 100
        },
        {
          "pitch": 62,
          "onset": 16.375,
          "duration": 0.0625,
          "velocity": 100
        },
        {
          "pitch": 64,
          "onset": 16.4375,
          "duration": 0.0625,
          "velocity": 100
        },
        {
          "pitch": 62,
          "onset": 16.5,
          "duration": 1.0,
          "velocity": 100
        },
        {
          "pitch": 83,
          "onset": 16.5,
          "duration": 0.5,
          "velocity": 100
        },
        {
          "pitch": 82,
          "onset": 17.0,
          "duration": 0.5,
          "velocity": 100
        },
        {
          "pitch": 61,
          "onset": 17.5,
          "duration": 0.25,
          "velocity": 100
        },
        {
          "pitch": 81,
          "onset": 17.5,
          "duration": 0.5,
          "velocity": 100
        },
        {
          "pitch": 62,
          "onset": 17.75,
          "duration": 0.25,
          "velocity": 100
        },
        {
          "pitch": 64,
          "onset": 18.0,
          "duration": 0.125,
          "velocity": 100
        },
        {
          "pitch": 80,
          "onset": 18.0,
          "duration": 0.5,
          "velocity": 100
        },
        {
          "pitch": 61,
          "onset": 18.125,
          "duration": 0.375,
          "velocity": 100
        },
        {
          "pitch": 59,
          "onset": 18.5,
          "duration": 0.125,
          "velocity": 100
        },
        {
          "pitch": 79,
          "onset": 18.5,
          "duration": 1.0,
          "velocity": 100
        },
        {
          "pitch": 62,
          "onset": 18.625,
          "duration": 0.375,
          "velocity": 100
        },
        {
          "pitch": 61,
          "onset": 19.0,
          "duration": 0.125,
          "velocity": 100
        },
        {
          "pitch": 59,
          "onset": 19.125,
          "duration": 0.125,
          "velocity": 100
        },
        {
          "pitch": 58,
          "onset": 19.25,
          "duration": 0.25,
          "velocity": 100
        },
        {
          "pitch": 67,
          "onset": 19.5,
          "duration": 0.75,
          "velocity": 100
        },
        {
          "pitch": 70,
          "onset": 19.5,
          "duration": 0.5,
          "velocity": 100
        },
        {
          "pitch": 71,
          "onset": 20.0,
          "duration": 0.5,
          "velocity": 100
        },
        {
          "pitch": 66,
          "onset": 20.25,
          "duration": 0.25,
          "velocity": 100
        },
        {
          "pitch": 64,
          "onset": 20.5,
          "duration": 0.75,
          "velocity": 100
        },
        {
          "pitch": 73,
          "onset": 20.5,
          "duration": 0.5,
          "velocity": 100
        },
        {
          "pitch": 66,
          "onset": 21.0,
          "duration": 0.5,
          "velocity": 100
        },
        {
          "pitch": 62,
          "onset": 21.25,
          "duration": 0.25,
          "velocity": 100
        },
        {
          "pitch": 61,
          "onset": 21.5,
          "duration": 0.25,
          "velocity": 100
        },
        {
          "pitch": 71,
          "onset": 21.5,
          "duration": 0.75,
          "velocity": 100
        },
        {
          "pitch": 59,
          "onset": 21.75,
          "duration": 0.25,
          "velocity": 100
        },
        {
          "pitch": 62,
          "onset": 22.0,
          "duration": 1.0,
          "velocity": 100
        },
        {
          "pitch": 70,
          "onset": 22.25,
          "duration": 0.25,
          "velocity": 100
        },
        {
          "pitch": 71,
          "onset": 22.5,
          "duration": 0.25,
          "velocity": 100
        },
        {
          "pitch": 79,
          "onset": 22.75,
          "duration": 0.25,
          "velocity": 100
        },
        {
          "pitch": 61,
          "onset": 23.0,
          "duration": 0.0625,
          "velocity": 100
        },
        {
          "pitch": 70,
          "onset": 23.0,
          "duration": 0.0625,
          "velocity": 100
        },
        {
          "pitch": 62,
          "onset": 23.0625,
          "duration": 0.0625,
          "velocity": 100
        },
        {
          "pitch": 71,
          "onset": 23.0625,
          "duration": 0.0625,
          "velocity": 100
        },
        {
          "pitch": 61,
          "onset": 23.125,
          "duration": 0.625,
          "velocity": 100
        },
        {
          "pitch": 70,
          "onset": 23.125,
          "duration": 0.625,
          "velocity": 100
        },
        {
          "pitch": 59,
          "onset": 23.75,
          "duration": 0.125,
          "velocity": 100
        },
        {
          "pitch": 71,
          "onset": 23.75,
          "duration": 0.25,
          "velocity": 100
        },
        {
          "pitch": 61,
          "onset": 23.875,
          "duration": 0.125,
          "velocity": 100
        },
        {
          "pitch": 59,
          "onset": 24.0,
          "duration": 0.5,
          "velocity": 100
        },
        {
          "pitch": 71,
          "onset": 24.0,
          "duration": 1.0,
          "velocity": 100
        },
        {
          "pitch": 62,
          "onset": 24.5,
          "duration": 0.125,
          "velocity": 100
        },
        {
          "pitch": 61,
          "onset": 24.625,
          "duration": 0.375,
          "velocity": 100
        },
        {
          "pitch": 64,
          "onset": 25.0,
          "duration": 0.125,
          "velocity": 100
        },
        {
          "pitch": 62,
          "onset": 25.125,
          "duration": 0.375,
          "velocity": 100
        },
        {
          "pitch": 65,
          "onset": 25.5,
          "duration": 0.125,
          "velocity": 100
        },
        {
          "pitch": 74,
          "onset": 25.5,
          "duration": 0.5,
          "velocity": 100
        },
        {
          "pitch": 64,
          "onset": 25.625,
          "duration": 0.375,
          "velocity": 100
        },
        {
          "pitch": 68,
          "onset": 26.0,
          "duration": 0.125,
          "velocity": 100
        },
        {
          "pitch": 72,
          "onset": 26.0,
          "duration": 0.5,
          "velocity": 100
        },
        {
          "pitch": 66,
          "onset": 26.125,
          "duration": 0.375,
          "velocity": 100
        },
        {
          "pitch": 69,
          "onset": 26.5,
          "duration": 0.125,
          "velocity": 100
        },
        {
          "pitch": 71,
          "onset": 26.5,
          "duration": 0.5,
          "velocity": 100
        },
        {
          "pitch": 68,
          "onset": 26.625,
          "duration": 0.375,
          "velocity": 100
        },
        {
          "pitch": 69,
          "onset": 27.0,
          "duration": 1.0,
          "velocity": 100
        },
        {
          "pitch": 72,
          "onset": 27.0,
          "duration": 0.125,
          "velocity": 100
        },
        {
          "pitch": 71,
          "onset": 27.125,
          "duration": 0.125,
          "velocity": 100
        },
        {
          "pitch": 69,
          "onset": 27.25,
          "duration": 0.25,
          "velocity": 100
        },
        {
          "pitch": 72,
          "onset": 27.5,
          "duration": 0.125,
          "velocity": 100
        },
        {
          "pitch": 71,
          "onset": 27.625,
          "duration": 0.375,
          "velocity": 100
        },
        {
          "pitch": 74,
          "onset": 28.0,
          "duration": 0.125,
          "velocity": 100
        },
        {
          "pitch": 72,
          "onset": 28.125,
          "duration": 0.375,
          "velocity": 100
        },
        {
          "pitch": 60,
          "onset": 28.5,
          "duration": 0.5,
          "velocity": 100
        },
        {
          "pitch": 75,
          "onset": 28.5,
          "duration": 0.125,
          "velocity": 100
        },
        {
          "pitch": 74,
          "onset": 28.625,
          "duration": 0.375,
          "velocity": 100
        },
        {
          "pitch": 59,
          "onset": 29.0,
          "duration": 0.5,
          "velocity": 100
        },
        {
          "pitch": 78,
          "onset": 29.0,
          "duration": 0.125,
          "velocity": 100
        },
        {
          "pitch": 76,
          "onset": 29.125,
          "duration": 0.375,
          "velocity": 100
        },
        {
          "pitch": 57,
          "onset": 29.5,
          "duration": 0.5,
          "velocity": 100
        },
        {
          "pitch": 79,
          "onset": 29.5,
          "duration": 0.125,
          "velocity": 100
        },
        {
          "pitch": 78,
          "onset": 29.625,
          "duration": 0.375,
          "velocity": 100
        },
        {
          "pitch": 59,
          "onset": 30.0,
          "duration": 0.125,
          "velocity": 100
        },
        {
          "pitch": 79,
          "onset": 30.0,
          "duration": 0.5,
          "velocity": 100
        },
        {
          "pitch": 57,
          "onset": 30.125,
          "duration": 0.125,
          "velocity": 100
        },
        {
          "pitch": 55,
          "onset": 30.25,
          "duration": 0.25,
          "velocity": 100
        },
        {
          "pitch": 67,
          "onset": 30.5,
          "duration": 1.25,
          "velocity": 100
        },
        {
          "pitch": 76,
          "onset": 30.5,
          "duration": 0.125,
          "velocity": 100
        },
        {
          "pitch": 75,
          "onset": 30.625,
          "duration": 0.375,
          "velocity": 100
        },
        {
          "pitch": 75,
          "onset": 31.0,
          "duration": 0.125,
          "velocity": 100
        },
        {
          "pitch": 76,
          "onset": 31.125,
          "duration": 0.375,
          "velocity": 100
        },
        {
          "pitch": 69,
          "onset": 31.5,
          "duration": 0.6562,
          "velocity": 100
        },
        {
          "pitch": 66,
          "onset": 31.75,
          "duration": 0.125,
          "velocity": 100
        },
        {
          "pitch": 64,
          "onset": 31.875,
          "duration": 0.125,
          "velocity": 100
        },
        {
          "pitch": 66,
          "onset": 32.0,
          "duration": 1.1562,
          "velocity": 100
        },
        {
          "pitch": 71,
          "onset": 32.1562,
          "duration": 0.1562,
          "velocity": 100
        },
        {
          "pitch": 72,
          "onset": 32.3438,
          "duration": 0.1562,
          "velocity": 100
        },
        {
          "pitch": 72,
          "onset": 32.5,
          "duration": 0.1562,
          "velocity": 100
        },
        {
          "pitch": 71,
          "onset": 32.6562,
          "duration": 0.1562,
          "velocity": 100
        },
        {
          "pitch": 69,
          "onset": 32.8438,
          "duration": 0.1562,
          "velocity": 100
        },
        {
          "pitch": 67,
          "onset": 33.0,
          "duration": 0.5,
          "velocity": 100
        },
        {
          "pitch": 64,
          "onset": 33.1562,
          "duration": 0.1562,
          "velocity": 100
        },
        {
          "pitch": 63,
          "onset": 33.3438,
          "duration": 0.1562,
          "velocity": 100
        },
        {
          "pitch": 63,
          "onset": 33.5,
          "duration": 0.1562,
          "velocity": 100
        },
        {
          "pitch": 69,
          "onset": 33.5,
          "duration": 0.625,
          "velocity": 100
        },
        {
          "pitch": 64,
          "onset": 33.6562,
          "duration": 0.1562,
          "velocity": 100
        },
        {
          "pitch": 66,
          "onset": 33.8438,
          "duration": 0.1562,
          "velocity": 100
        },
        {
          "pitch": 59,
          "onset": 34.0,
          "duration": 0.5,
          "velocity": 100
        },
        {
          "pitch": 67,
          "onset": 34.125,
          "duration": 0.375,
          "velocity": 100
        },
        {
          "pitch": 60,
          "onset": 34.5,
          "duration": 0.5,
          "velocity": 100
        },
        {
          "pitch": 66,
          "onset": 34.5,
          "duration": 0.125,
          "velocity": 100
        },
        {
          "pitch": 64,
          "onset": 34.625,
          "duration": 0.375,
          "velocity": 100
        },
        {
          "pitch": 59,
          "onset": 35.0,
          "duration": 0.125,
          "velocity": 100
        },
        {
          "pitch": 67,
          "onset": 35.0,
          "duration": 0.125,
          "velocity": 100
        },
        {
          "pitch": 71,
          "onset": 35.0,
          "duration": 1.0,
          "velocity": 100
        },
        {
          "pitch": 57,
          "onset": 35.125,
          "duration": 0.375,
          "velocity": 100
        },
        {
          "pitch": 66,
          "onset": 35.125,
          "duration": 0.375,
          "velocity": 100
        },
        {
          "pitch": 55,
          "onset": 35.5,
          "duration": 0.125,
          "velocity": 100
        },
        {
          "pitch": 64,
          "onset": 35.5,
          "duration": 0.125,
          "velocity": 100
        },
        {
          "pitch": 54,
          "onset": 35.625,
          "duration": 0.375,
          "velocity": 100
        },
        {
          "pitch": 63,
          "onset": 35.625,
          "duration": 0.375,
          "velocity": 100
        },
        {
          "pitch": 55,
          "onset": 36.0,
          "duration": 0.5,
          "velocity": 100
        },
        {
          "pitch": 64,
          "onset": 36.0,
          "duration": 0.5,
          "velocity": 100
        },
        {
          "pitch": 71,
          "onset": 36.0,
          "duration": 1.9688,
          "velocity": 100
        },
        {
          "pitch": 52,
          "onset": 36.5,
          "duration": 0.125,
          "velocity": 100
        },
        {
          "pitch": 51,
          "onset": 36.625,
          "duration": 0.375,
          "velocity": 100
        },
        {
          "pitch": 54,
          "onset": 37.0,
          "duration": 0.125,
          "velocity": 100
        },
        {
          "pitch": 52,
          "onset": 37.125,
          "duration": 0.375,
          "velocity": 100
        },
        {
          "pitch": 55,
          "onset": 37.5,
          "duration": 0.125,
          "velocity": 100
        },
        {
          "pitch": 64,
          "onset": 37.5,
          "duration": 0.125,
          "velocity": 100
        },
        {
          "pitch": 54,
          "onset": 37.625,
          "duration": 0.375,
          "velocity": 100
        },
        {
          "pitch": 63,
          "onset": 37.625,
          "duration": 0.375,
          "velocity": 100
        },
        {
          "pitch": 55,
          "onset": 38.0,
          "duration": 0.5,
          "velocity": 100
        },
        {
          "pitch": 66,
          "onset": 38.0,
          "duration": 0.125,
          "velocity": 100
        },
        {
          "pitch": 67,
          "onset": 38.0,
          "duration": 1.0,
          "velocity": 100
        },
        {
          "pitch": 64,
          "onset": 38.125,
          "duration": 0.375,
          "velocity": 100
        },
        {
          "pitch": 59,
          "onset": 38.5,
          "duration": 0.5,
          "velocity": 100
        },
        {
          "pitch": 67,
          "onset": 38.5,
          "duration": 0.125,
          "velocity": 100
        },
        {
          "pitch": 66,
          "onset": 38.625,
          "duration": 0.375,
          "velocity": 100
        },
        {
          "pitch": 64,
          "onset": 39.0,
          "duration": 0.125,
          "velocity": 100
        },
        {
          "pitch": 67,
          "onset": 39.0,
          "duration": 0.5,
          "velocity": 100
        },
        {
          "pitch": 69,
          "onset": 39.0,
          "duration": 1.9688,
          "velocity": 100
        },
        {
          "pitch": 52,
          "onset": 39.125,
          "duration": 0.375,
          "velocity": 100
        },
        {
          "pitch": 57,
          "onset": 39.5,
          "duration": 0.125,
          "velocity": 100
        },
        {
          "pitch": 66,
          "onset": 39.5,
          "duration": 0.125,
          "velocity": 100
        },
        {
          "pitch": 55,
          "onset": 39.625,
          "duration": 0.375,
          "velocity": 100
        },
        {
          "pitch": 64,
          "onset": 39.625,
          "duration": 0.375,
          "velocity": 100
        },
        {
          "pitch": 59,
          "onset": 40.0,
          "duration": 0.125,
          "velocity": 100
        },
        {
          "pitch": 63,
          "onset": 40.0,
          "duration": 0.5,
          "velocity": 100
        },
        {
          "pitch": 57,
          "onset": 40.125,
          "duration": 0.375,
          "velocity": 100
        },
        {
          "pitch": 60,
          "onset": 40.5,
          "duration": 0.5,
          "velocity": 100
        },
        {
          "pitch": 66,
          "onset": 40.5,
          "duration": 0.125,
          "velocity": 100
        },
        {
          "pitch": 64,
          "onset": 40.625,
          "duration": 0.375,
          "velocity": 100
        },
        {
          "pitch": 59,
          "onset": 41.0,
          "duration": 1.0,
          "velocity": 100
        },
        {
          "pitch": 67,
          "onset": 41.0,
          "duration": 0.125,
          "velocity": 100
        },
        {
          "pitch": 71,
          "onset": 41.0,
          "duration": 1.0,
          "velocity": 100
        },
        {
          "pitch": 66,
          "onset": 41.125,
          "duration": 0.375,
          "velocity": 100
        },
        {
          "pitch": 64,
          "onset": 41.5,
          "duration": 0.125,
          "velocity": 100
        },
        {
          "pitch": 63,
          "onset": 41.625,
          "duration": 0.375,
          "velocity": 100
        },
        {
          "pitch": 59,
          "onset": 42.0,
          "duration": 2.9688,
          "velocity": 100
        },
        {
          "pitch": 64,
          "onset": 42.0,
          "duration": 0.5,
          "velocity": 100
        },
        {
          "pitch": 67,
          "onset": 42.0,
          "duration": 2.9688,
          "velocity": 100
        },
        {
          "pitch": 64,
          "onset": 42.1562,
          "duration": 0.1562,
          "velocity": 100
        },
        {
          "pitch": 66,
          "onset": 42.3438,
          "duration": 0.1562,
          "velocity": 100
        },
        {
          "pitch": 67,
          "onset": 42.5,
          "duration": 0.1562,
          "velocity": 100
        },
        {
          "pitch": 66,
          "onset": 42.6562,
          "duration": 0.1562,
          "velocity": 100
        },
        {
          "pitch": 64,
          "onset": 42.8438,
          "duration": 0.1562,
          "velocity": 100
        },
        {
          "pitch": 71,
          "onset": 43.0,
          "duration": 0.5,
          "velocity": 100
        },
        {
          "pitch": 71,
          "onset": 43.1562,
          "duration": 0.1562,
          "velocity": 100
        },
        {
          "pitch": 73,
          "onset": 43.3438,
          "duration": 0.1562,
          "velocity": 100
        },
        {
          "pitch": 75,
          "onset": 43.5,
          "duration": 0.1562,
          "velocity": 100
        },
        {
          "pitch": 73,
          "onset": 43.6562,
          "duration": 0.1562,
          "velocity": 100
        },
        {
          "pitch": 71,
          "onset": 43.8438,
          "duration": 0.1562,
          "velocity": 100
        },
        {
          "pitch": 55,
          "onset": 44.0,
          "duration": 1.0,
          "velocity": 100
        },
        {
          "pitch": 76,
          "onset": 44.0,
          "duration": 0.125,
          "velocity": 100
        },
        {
          "pitch": 75,
          "onset": 44.125,
          "duration": 0.375,
          "velocity": 100
        },
        {
          "pitch": 59,
          "onset": 44.5,
          "duration": 0.125,
          "velocity": 100
        },
        {
          "pitch": 76,
          "onset": 44.5,
          "duration": 0.625,
          "velocity": 100
        },
        {
          "pitch": 57,
          "onset": 44.625,
          "duration": 0.375,
          "velocity": 100
        },
        {
          "pitch": 57,
          "onset": 45.0,
          "duration": 1.9688,
          "velocity": 100
        },
        {
          "pitch": 60,
          "onset": 45.0,
          "duration": 0.125,
          "velocity": 100
        },
        {
          "pitch": 66,
          "onset": 45.0,
          "duration": 2.9688,
          "velocity": 100
        },
        {
          "pitch": 59,
          "onset": 45.125,
          "duration": 0.375,
          "velocity": 100
        },
        {
          "pitch": 75,
          "onset": 45.125,
          "duration": 0.375,
          "velocity": 100
        },
        {
          "pitch": 63,
          "onset": 45.5,
          "duration": 0.125,
          "velocity": 100
        },
        {
          "pitch": 78,
          "onset": 45.5,
          "duration": 0.125,
          "velocity": 100
        },
        {
          "pitch": 61,
          "onset": 45.625,
          "duration": 0.375,
          "velocity": 100
        },
        {
          "pitch": 76,
          "onset": 45.625,
          "duration": 0.375,
          "velocity": 100
        },
        {
          "pitch": 64,
          "onset": 46.0,
          "duration": 0.125,
          "velocity": 100
        },
        {
          "pitch": 78,
          "onset": 46.0,
          "duration": 0.1562,
          "velocity": 100
        },
        {
          "pitch": 63,
          "onset": 46.125,
          "duration": 0.375,
          "velocity": 100
        },
        {
          "pitch": 79,
          "onset": 46.1562,
          "duration": 0.1562,
          "velocity": 100
        },
        {
          "pitch": 78,
          "onset": 46.3438,
          "duration": 0.1562,
          "velocity": 100
        },
        {
          "pitch": 66,
          "onset": 46.5,
          "duration": 0.6562,
          "velocity": 100
        },
        {
          "pitch": 76,
          "onset": 46.5,
          "duration": 0.1562,
          "velocity": 100
        },
        {
          "pitch": 75,
          "onset": 46.6562,
          "duration": 0.1562,
          "velocity": 100
        },
        {
          "pitch": 73,
          "onset": 46.8438,
          "duration": 0.1562,
          "velocity": 100
        },
        {
          "pitch": 59,
          "onset": 47.0,
          "duration": 1.0,
          "velocity": 100
        },
        {
          "pitch": 71,
          "onset": 47.0,
          "duration": 2.125,
          "velocity": 100
        },
        {
          "pitch": 67,
          "onset": 47.1562,
          "duration": 0.1562,
          "velocity": 100
        },
        {
          "pitch": 69,
          "onset": 47.3438,
          "duration": 0.1562,
          "velocity": 100
        },
        {
          "pitch": 69,
          "onset": 47.5,
          "duration": 0.1562,
          "velocity": 100
        },
        {
          "pitch": 67,
          "onset": 47.6562,
          "duration": 0.1562,
          "velocity": 100
        },
        {
          "pitch": 66,
          "onset": 47.8438,
          "duration": 0.1562,
          "velocity": 100
        },
        {
          "pitch": 55,
          "onset": 48.0,
          "duration": 1.9688,
          "velocity": 100
        },
        {
          "pitch": 64,
          "onset": 48.0,
          "duration": 1.9688,
          "velocity": 100
        },
        {
          "pitch": 67,
          "onset": 48.0,
          "duration": 0.125,
          "velocity": 100
        },
        {
          "pitch": 66,
          "onset": 48.125,
          "duration": 0.375,
          "velocity": 100
        },
        {
          "pitch": 64,
          "onset": 48.5,
          "duration": 0.125,
          "velocity": 100
        },
        {
          "pitch": 63,
          "onset": 48.625,
          "duration": 0.375,
          "velocity": 100
        },
        {
          "pitch": 64,
          "onset": 49.0,
          "duration": 1.5,
          "velocity": 100
        },
        {
          "pitch": 69,
          "onset": 49.125,
          "duration": 0.375,
          "velocity": 100
        },
        {
          "pitch": 72,
          "onset": 49.5,
          "duration": 0.125,
          "velocity": 100
        },
        {
          "pitch": 71,
          "onset": 49.625,
          "duration": 0.375,
          "velocity": 100
        },
        {
          "pitch": 74,
          "onset": 50.0,
          "duration": 0.125,
          "velocity": 100
        },
        {
          "pitch": 72,
          "onset": 50.125,
          "duration": 0.375,
          "velocity": 100
        },
        {
          "pitch": 59,
          "onset": 50.5,
          "duration": 0.5,
          "velocity": 100
        },
        {
          "pitch": 76,
          "onset": 50.5,
          "duration": 0.125,
          "velocity": 100
        },
        {
          "pitch": 75,
          "onset": 50.625,
          "duration": 0.375,
          "velocity": 100
        },
        {
          "pitch": 54,
          "onset": 51.0,
          "duration": 2.9688,
          "velocity": 100
        },
        {
          "pitch": 60,
          "onset": 51.0,
          "duration": 0.1562,
          "velocity": 100
        },
        {
          "pitch": 76,
          "onset": 51.0,
          "duration": 0.0625,
          "velocity": 100
        },
        {
          "pitch": 75,
          "onset": 51.0625,
          "duration": 0.0625,
          "velocity": 100
        },
        {
          "pitch": 76,
          "onset": 51.125,
          "duration": 0.625,
          "velocity": 100
        },
        {
          "pitch": 59,
          "onset": 51.1562,
          "duration": 0.1562,
          "velocity": 100
        },
        {
          "pitch": 57,
          "onset": 51.3438,
          "duration": 0.1562,
          "velocity": 100
        },
        {
          "pitch": 57,
          "onset": 51.5,
          "duration": 0.1562,
          "velocity": 100
        },
        {
          "pitch": 59,
          "onset": 51.6562,
          "duration": 0.1562,
          "velocity": 100
        },
        {
          "pitch": 78,
          "onset": 51.75,
          "duration": 0.25,
          "velocity": 100
        },
        {
          "pitch": 60,
          "onset": 51.8438,
          "duration": 0.1562,
          "velocity": 100
        },
        {
          "pitch": 59,
          "onset": 52.0,
          "duration": 1.1562,
          "velocity": 100
        },
        {
          "pitch": 76,
          "onset": 52.0,
          "duration": 0.0312,
          "velocity": 100
        },
        {
          "pitch": 75,
          "onset": 52.0312,
          "duration": 0.125,
          "velocity": 100
        },
        {
          "pitch": 73,
          "onset": 52.1562,
          "duration": 0.1562,
          "velocity": 100
        },
        {
          "pitch": 71,
          "onset": 52.3438,
          "duration": 0.1562,
          "velocity": 100
        },
        {
          "pitch": 71,
          "onset": 52.5,
          "duration": 0.1562,
          "velocity": 100
        },
        {
          "pitch": 73,
          "onset": 52.6562,
          "duration": 0.1562,
          "velocity": 100
        },
        {
          "pitch": 74,
          "onset": 52.8438,
          "duration": 0.1562,
          "velocity": 100
        },
        {
          "pitch": 74,
          "onset": 53.0,
          "duration": 1.125,
          "velocity": 100
        },
        {
          "pitch": 57,
          "onset": 53.1562,
          "duration": 0.1562,
          "velocity": 100
        },
        {
          "pitch": 59,
          "onset": 53.3438,
          "duration": 0.1562,
          "velocity": 100
        },
        {
          "pitch": 60,
          "onset": 53.5,
          "duration": 0.1562,
          "velocity": 100
        },
        {
          "pitch": 59,
          "onset": 53.6562,
          "duration": 0.1562,
          "velocity": 100
        },
        {
          "pitch": 57,
          "onset": 53.8438,
          "duration": 0.1562,
          "velocity": 100
        },
        {
          "pitch": 52,
          "onset": 54.0,
          "duration": 1.9688,
          "velocity": 100
        },
        {
          "pitch": 59,
          "onset": 54.0,
          "duration": 1.0,
          "velocity": 100
        },
        {
          "pitch": 69,
          "onset": 54.125,
          "duration": 0.375,
          "velocity": 100
        },
        {
          "pitch": 68,
          "onset": 54.5,
          "duration": 0.125,
          "velocity": 100
        },
        {
          "pitch": 74,
          "onset": 54.625,
          "duration": 0.375,
          "velocity": 100
        },
        {
          "pitch": 72,
          "onset": 55.0,
          "duration": 0.125,
          "velocity": 100
        },
        {
          "pitch": 71,
          "onset": 55.125,
          "duration": 0.375,
          "velocity": 100
        },
        {
          "pitch": 69,
          "onset": 55.5,
          "duration": 0.125,
          "velocity": 100
        },
        {
          "pitch": 68,
          "onset": 55.625,
          "duration": 0.375,
          "velocity": 100
        },
        {
          "pitch": 64,
          "onset": 56.0,
          "duration": 1.0,
          "velocity": 100
        },
        {
          "pitch": 69,
          "onset": 56.0,
          "duration": 0.1562,
          "velocity": 100
        },
        {
          "pitch": 69,
          "onset": 56.1562,
          "duration": 0.1562,
          "velocity": 100
        },
        {
          "pitch": 71,
          "onset": 56.3438,
          "duration": 0.1562,
          "velocity": 100
        },
        {
          "pitch": 72,
          "onset": 56.5,
          "duration": 0.1562,
          "velocity": 100
        },
        {
          "pitch": 71,
          "onset": 56.6562,
          "duration": 0.1562,
          "velocity": 100
        },
        {
          "pitch": 69,
          "onset": 56.8438,
          "duration": 0.1562,
          "velocity": 100
        },
        {
          "pitch": 64,
          "onset": 57.0,
          "duration": 0.625,
          "velocity": 100
        },
        {
          "pitch": 69,
          "onset": 57.0,
          "duration": 0.125,
          "velocity": 100
        },
        {
          "pitch": 66,
          "onset": 57.125,
          "duration": 0.375,
          "velocity": 100
        },
        {
          "pitch": 68,
          "onset": 57.5,
          "duration": 0.0625,
          "velocity": 100
        },
        {
          "pitch": 66,
          "onset": 57.5625,
          "duration": 0.0625,
          "velocity": 100
        },
        {
          "pitch": 65,
          "onset": 57.625,
          "duration": 0.125,
          "velocity": 100
        },
        {
          "pitch": 68,
          "onset": 57.625,
          "duration": 0.375,
          "velocity": 100
        },
        {
          "pitch": 64,
          "onset": 57.75,
          "duration": 0.125,
          "velocity": 100
        },
        {
          "pitch": 62,
          "onset": 57.875,
          "duration": 0.125,
          "velocity": 100
        },
        {
          "pitch": 60,
          "onset": 58.0,
          "duration": 0.0625,
          "velocity": 100
        },
        {
          "pitch": 62,
          "onset": 58.0625,
          "duration": 0.0625,
          "velocity": 100
        },
        {
          "pitch": 60,
          "onset": 58.125,
          "duration": 0.0625,
          "velocity": 100
        },
        {
          "pitch": 62,
          "onset": 58.1875,
          "duration": 0.0625,
          "velocity": 100
        },
        {
          "pitch": 60,
          "onset": 58.25,
          "duration": 0.0625,
          "velocity": 100
        },
        {
          "pitch": 62,
          "onset": 58.3125,
          "duration": 0.0625,
          "velocity": 100
        },
        {
          "pitch": 60,
          "onset": 58.375,
          "duration": 0.0625,
          "velocity": 100
        },
        {
          "pitch": 62,
          "onset": 58.4375,
          "duration": 0.0625,
          "velocity": 100
        },
        {
          "pitch": 60,
          "onset": 58.5,
          "duration": 1.0,
          "velocity": 100
        },
        {
          "pitch": 77,
          "onset": 58.5,
          "duration": 0.5,
          "velocity": 100
        },
        {
          "pitch": 76,
          "onset": 59.0,
          "duration": 0.5,
          "velocity": 100
        },
        {
          "pitch": 59,
          "onset": 59.5,
          "duration": 0.25,
          "velocity": 100
        },
        {
          "pitch": 75,
          "onset": 59.5,
          "duration": 0.5,
          "velocity": 100
        },
        {
          "pitch": 61,
          "onset": 59.75,
          "duration": 0.25,
          "velocity": 100
        },
        {
          "pitch": 62,
          "onset": 60.0,
          "duration": 0.125,
          "velocity": 100
        },
        {
          "pitch": 74,
          "onset": 60.0,
          "duration": 1.1562,
          "velocity": 100
        },
        {
          "pitch": 59,
          "onset": 60.125,
          "duration": 0.375,
          "velocity": 100
        },
        {
          "pitch": 57,
          "onset": 60.5,
          "duration": 0.125,
          "velocity": 100
        },
        {
          "pitch": 60,
          "onset": 60.625,
          "duration": 0.375,
          "velocity": 100
        },
        {
          "pitch": 59,
          "onset": 61.0,
          "duration": 0.125,
          "velocity": 100
        },
        {
          "pitch": 57,
          "onset": 61.125,
          "duration": 0.125,
          "velocity": 100
        },
        {
          "pitch": 72,
          "onset": 61.1562,
          "duration": 0.1562,
          "velocity": 100
        },
        {
          "pitch": 56,
          "onset": 61.25,
          "duration": 0.25,
          "velocity": 100
        },
        {
          "pitch": 71,
          "onset": 61.3438,
          "duration": 0.1562,
          "velocity": 100
        },
        {
          "pitch": 65,
          "onset": 61.5,
          "duration": 0.75,
          "velocity": 100
        },
        {
          "pitch": 71,
          "onset": 61.5,
          "duration": 0.1562,
          "velocity": 100
        },
        {
          "pitch": 72,
          "onset": 61.6562,
          "duration": 0.1562,
          "velocity": 100
        },
        {
          "pitch": 74,
          "onset": 61.8438,
          "duration": 0.1562,
          "velocity": 100
        },
        {
          "pitch": 73,
          "onset": 62.0,
          "duration": 0.5,
          "velocity": 100
        },
        {
          "pitch": 64,
          "onset": 62.25,
          "duration": 0.25,
          "velocity": 100
        },
        {
          "pitch": 62,
          "onset": 62.5,
          "duration": 0.75,
          "velocity": 100
        },
        {
          "pitch": 68,
          "onset": 62.5,
          "duration": 0.5,
          "velocity": 100
        },
        {
          "pitch": 69,
          "onset": 63.0,
          "duration": 1.25,
          "velocity": 100
        },
        {
          "pitch": 60,
          "onset": 63.25,
          "duration": 0.25,
          "velocity": 100
        },
        {
          "pitch": 59,
          "onset": 63.5,
          "duration": 0.25,
          "velocity": 100
        },
        {
          "pitch": 57,
          "onset": 63.75,
          "duration": 0.25,
          "velocity": 100
        },
        {
          "pitch": 60,
          "onset": 64.0,
          "duration": 1.0,
          "velocity": 100
        },
        {
          "pitch": 68,
          "onset": 64.25,
          "duration": 0.25,
          "velocity": 100
        },
        {
          "pitch": 69,
          "onset": 64.5,
          "duration": 0.25,
          "velocity": 100
        },
        {
          "pitch": 66,
          "onset": 64.75,
          "duration": 0.25,
          "velocity": 100
        },
        {
          "pitch": 59,
          "onset": 65.0,
          "duration": 0.0625,
          "velocity": 100
        },
        {
          "pitch": 68,
          "onset": 65.0,
          "duration": 0.0625,
          "velocity": 100
        },
        {
          "pitch": 60,
          "onset": 65.0625,
          "duration": 0.0625,
          "velocity": 100
        },
        {
          "pitch": 69,
          "onset": 65.0625,
          "duration": 0.0625,
          "velocity": 100
        },
        {
          "pitch": 59,
          "onset": 65.125,
          "duration": 0.625,
          "velocity": 100
        },
        {
          "pitch": 68,
          "onset": 65.125,
          "duration": 0.625,
          "velocity": 100
        },
        {
          "pitch": 57,
          "onset": 65.75,
          "duration": 0.125,
          "velocity": 100
        },
        {
          "pitch": 69,
          "onset": 65.75,
          "duration": 0.25,
          "velocity": 100
        },
        {
          "pitch": 59,
          "onset": 65.875,
          "duration": 0.125,
          "velocity": 100
        },
        {
          "pitch": 57,
          "onset": 66.0,
          "duration": 0.5,
          "velocity": 100
        },
        {
          "pitch": 69,
          "onset": 66.0,
          "duration": 1.0,
          "velocity": 100
        },
        {
          "pitch": 60,
          "onset": 66.5,
          "duration": 0.125,
          "velocity": 100
        },
        {
          "pitch": 59,
          "onset": 66.625,
          "duration": 0.375,
          "velocity": 100
        },
        {
          "pitch": 62,
          "onset": 67.0,
          "duration": 0.125,
          "velocity": 100
        },
        {
          "pitch": 60,
          "onset": 67.125,
          "duration": 0.375,
          "velocity": 100
        },
        {
          "pitch": 64,
          "onset": 67.5,
          "duration": 0.125,
          "velocity": 100
        },
        {
          "pitch": 63,
          "onset": 67.625,
          "duration": 0.375,
          "velocity": 100
        },
        {
          "pitch": 66,
          "onset": 68.0,
          "duration": 0.125,
          "velocity": 100
        },
        {
          "pitch": 69,
          "onset": 68.0,
          "duration": 1.0,
          "velocity": 100
        },
        {
          "pitch": 64,
          "onset": 68.125,
          "duration": 0.375,
          "velocity": 100
        },
        {
          "pitch": 67,
          "onset": 68.5,
          "duration": 0.125,
          "velocity": 100
        },
        {
          "pitch": 66,
          "onset": 68.625,
          "duration": 0.375,
          "velocity": 100
        },
        {
          "pitch": 64,
          "onset": 69.0,
          "duration": 0.125,
          "velocity": 100
        },
        {
          "pitch": 69,
          "onset": 69.0,
          "duration": 0.625,
          "velocity": 100
        },
        {
          "pitch": 63,
          "onset": 69.125,
          "duration": 0.375,
          "velocity": 100
        },
        {
          "pitch": 71,
          "onset": 69.5,
          "duration": 1.0,
          "velocity": 100
        },
        {
          "pitch": 72,
          "onset": 69.625,
          "duration": 0.125,
          "velocity": 100
        },
        {
          "pitch": 71,
          "onset": 69.75,
          "duration": 0.125,
          "velocity": 100
        },
        {
          "pitch": 69,
          "onset": 69.875,
          "duration": 0.125,
          "velocity": 100
        },
        {
          "pitch": 67,
          "onset": 70.0,
          "duration": 0.0625,
          "velocity": 100
        },
        {
          "pitch": 69,
          "onset": 70.0625,
          "duration": 0.0625,
          "velocity": 100
        },
        {
          "pitch": 67,
          "onset": 70.125,
          "duration": 0.0625,
          "velocity": 100
        },
        {
          "pitch": 69,
          "onset": 70.1875,
          "duration": 0.0625,
          "velocity": 100
        },
        {
          "pitch": 67,
          "onset": 70.25,
          "duration": 0.0625,
          "velocity": 100
        },
        {
          "pitch": 69,
          "onset": 70.3125,
          "duration": 0.0625,
          "velocity": 100
        },
        {
          "pitch": 67,
          "onset": 70.375,
          "duration": 0.0625,
          "velocity": 100
        },
        {
          "pitch": 69,
          "onset": 70.4375,
          "duration": 0.0625,
          "velocity": 100
        },
        {
          "pitch": 67,
          "onset": 70.5,
          "duration": 1.0,
          "velocity": 100
        },
        {
          "pitch": 76,
          "onset": 70.5,
          "duration": 0.5,
          "velocity": 100
        },
        {
          "pitch": 75,
          "onset": 71.0,
          "duration": 0.5,
          "velocity": 100
        },
        {
          "pitch": 66,
          "onset": 71.5,
          "duration": 0.25,
          "velocity": 100
        },
        {
          "pitch": 74,
          "onset": 71.5,
          "duration": 0.5,
          "velocity": 100
        },
        {
          "pitch": 67,
          "onset": 71.75,
          "duration": 0.25,
          "velocity": 100
        },
        {
          "pitch": 69,
          "onset": 72.0,
          "duration": 0.125,
          "velocity": 100
        },
        {
          "pitch": 73,
          "onset": 72.0,
          "duration": 0.5,
          "velocity": 100
        },
        {
          "pitch": 66,
          "onset": 72.125,
          "duration": 0.375,
          "velocity": 100
        },
        {
          "pitch": 64,
          "onset": 72.5,
          "duration": 0.125,
          "velocity": 100
        },
        {
          "pitch": 72,
          "onset": 72.5,
          "duration": 1.0,
          "velocity": 100
        },
        {
          "pitch": 67,
          "onset": 72.625,
          "duration": 0.375,
          "velocity": 100
        },
        {
          "pitch": 66,
          "onset": 73.0,
          "duration": 0.125,
          "velocity": 100
        },
        {
          "pitch": 64,
          "onset": 73.125,
          "duration": 0.125,
          "velocity": 100
        },
        {
          "pitch": 63,
          "onset": 73.25,
          "duration": 0.25,
          "velocity": 100
        },
        {
          "pitch": 63,
          "onset": 73.5,
          "duration": 0.5,
          "velocity": 100
        },
        {
          "pitch": 72,
          "onset": 73.5,
          "duration": 0.75,
          "velocity": 100
        },
        {
          "pitch": 64,
          "onset": 74.0,
          "duration": 0.5,
          "velocity": 100
        },
        {
          "pitch": 71,
          "onset": 74.25,
          "duration": 0.25,
          "velocity": 100
        },
        {
          "pitch": 66,
          "onset": 74.5,
          "duration": 0.5,
          "velocity": 100
        },
        {
          "pitch": 69,
          "onset": 74.5,
          "duration": 0.75,
          "velocity": 100
        },
        {
          "pitch": 59,
          "onset": 75.0,
          "duration": 0.5,
          "velocity": 100
        },
        {
          "pitch": 67,
          "onset": 75.25,
          "duration": 0.25,
          "velocity": 100
        },
        {
          "pitch": 64,
          "onset": 75.5,
          "duration": 0.75,
          "velocity": 100
        },
        {
          "pitch": 66,
          "onset": 75.5,
          "duration": 0.25,
          "velocity": 100
        },
        {
          "pitch": 64,
          "onset": 75.75,
          "duration": 0.25,
          "velocity": 100
        },
        {
          "pitch": 67,
          "onset": 76.0,
          "duration": 1.0,
          "velocity": 100
        },
        {
          "pitch": 63,
          "onset": 76.25,
          "duration": 0.25,
          "velocity": 100
        },
        {
          "pitch": 64,
          "onset": 76.5,
          "duration": 0.25,
          "velocity": 100
        },
        {
          "pitch": 72,
          "onset": 76.75,
          "duration": 0.25,
          "velocity": 100
        },
        {
          "pitch": 59,
          "onset": 77.0,
          "duration": 1.0,
          "velocity": 100
        },
        {
          "pitch": 63,
          "onset": 77.0,
          "duration": 0.0625,
          "velocity": 100
        },
        {
          "pitch": 66,
          "onset": 77.0,
          "duration": 0.0625,
          "velocity": 100
        },
        {
          "pitch": 64,
          "onset": 77.0625,
          "duration": 0.0625,
          "velocity": 100
        },
        {
          "pitch": 67,
          "onset": 77.0625,
          "duration": 0.0625,
          "velocity": 100
        },
        {
          "pitch": 63,
          "onset": 77.125,
          "duration": 0.625,
          "velocity": 100
        },
        {
          "pitch": 66,
          "onset": 77.125,
          "duration": 0.625,
          "velocity": 100
        },
        {
          "pitch": 64,
          "onset": 77.75,
          "duration": 0.125,
          "velocity": 100
        },
        {
          "pitch": 64,
          "onset": 77.75,
          "duration": 0.25,
          "velocity": 100
        },
        {
          "pitch": 66,
          "onset": 77.875,
          "duration": 0.125,
          "velocity": 100
        },
        {
          "pitch": 59,
          "onset": 78.0,
          "duration": 1.9688,
          "velocity": 100
        },
        {
          "pitch": 64,
          "onset": 78.0,
          "duration": 0.5,
          "velocity": 100
        },
        {
          "pitch": 64,
          "onset": 78.0,
          "duration": 0.5,
          "velocity": 100
        },
        {
          "pitch": 67,
          "onset": 78.5,
          "duration": 0.125,
          "velocity": 100
        },
        {
          "pitch": 66,
          "onset": 78.625,
          "duration": 0.375,
          "velocity": 100
        },
        {
          "pitch": 69,
          "onset": 79.0,
          "duration": 0.125,
          "velocity": 100
        },
        {
          "pitch": 67,
          "onset": 79.125,
          "duration": 0.375,
          "velocity": 100
        },
        {
          "pitch": 67,
          "onset": 79.5,
          "duration": 0.5,
          "velocity": 100
        },
        {
          "pitch": 71,
          "onset": 79.5,
          "duration": 0.125,
          "velocity": 100
        },
        {
          "pitch": 69,
          "onset": 79.625,
          "duration": 0.375,
          "velocity": 100
        },
        {
          "pitch": 57,
          "onset": 80.0,
          "duration": 1.0,
          "velocity": 100
        },
        {
          "pitch": 66,
          "onset": 80.0,
          "duration": 0.5,
          "velocity": 100
        },
        {
          "pitch": 73,
          "onset": 80.0,
          "duration": 0.125,
          "velocity": 100
        },
        {
          "pitch": 71,
          "onset": 80.125,
          "duration": 0.375,
          "velocity": 100
        },
        {
          "pitch": 64,
          "onset": 80.5,
          "duration": 0.5,
          "velocity": 100
        },
        {
          "pitch": 74,
          "onset": 80.5,
          "duration": 0.125,
          "velocity": 100
        },
        {
          "pitch": 73,
          "onset": 80.625,
          "duration": 0.375,
          "velocity": 100
        },
        {
          "pitch": 62,
          "onset": 81.0,
          "duration": 1.9688,
          "velocity": 100
        },
        {
          "pitch": 66,
          "onset": 81.0,
          "duration": 0.5,
          "velocity": 100
        },
        {
          "pitch": 73,
          "onset": 81.0,
          "duration": 0.125,
          "velocity": 100
        },
        {
          "pitch": 74,
          "onset": 81.125,
          "duration": 0.375,
          "velocity": 100
        },
        {
          "pitch": 67,
          "onset": 81.5,
          "duration": 0.125,
          "velocity": 100
        },
        {
          "pitch": 76,
          "onset": 81.5,
          "duration": 0.125,
          "velocity": 100
        },
        {
          "pitch": 66,
          "onset": 81.625,
          "duration": 0.375,
          "velocity": 100
        },
        {
          "pitch": 74,
          "onset": 81.625,
          "duration": 0.375,
          "velocity": 100
        },
        {
          "pitch": 69,
          "onset": 82.0,
          "duration": 0.125,
          "velocity": 100
        },
        {
          "pitch": 78,
          "onset": 82.0,
          "duration": 0.125,
          "velocity": 100
        },
        {
          "pitch": 67,
          "onset": 82.125,
          "duration": 0.375,
          "velocity": 100
        },
        {
          "pitch": 76,
          "onset": 82.125,
          "duration": 0.375,
          "velocity": 100
        },
        {
          "pitch": 71,
          "onset": 82.5,
          "duration": 0.125,
          "velocity": 100
        },
        {
          "pitch": 79,
          "onset": 82.5,
          "duration": 0.125,
          "velocity": 100
        },
        {
          "pitch": 69,
          "onset": 82.625,
          "duration": 0.375,
          "velocity": 100
        },
        {
          "pitch": 78,
          "onset": 82.625,
          "duration": 0.375,
          "velocity": 100
        },
        {
          "pitch": 59,
          "onset": 83.0,
          "duration": 1.0,
          "velocity": 100
        },
        {
          "pitch": 71,
          "onset": 83.0,
          "duration": 1.0,
          "velocity": 100
        },
        {
          "pitch": 71,
          "onset": 83.0,
          "duration": 0.125,
          "velocity": 100
        },
        {
          "pitch": 79,
          "onset": 83.0,
          "duration": 0.125,
          "velocity": 100
        },
        {
          "pitch": 69,
          "onset": 83.125,
          "duration": 0.375,
          "velocity": 100
        },
        {
          "pitch": 78,
          "onset": 83.125,
          "duration": 0.375,
          "velocity": 100
        },
        {
          "pitch": 67,
          "onset": 83.5,
          "duration": 0.125,
          "velocity": 100
        },
        {
          "pitch": 76,
          "onset": 83.5,
          "duration": 0.125,
          "velocity": 100
        },
        {
          "pitch": 66,
          "onset": 83.625,
          "duration": 0.375,
          "velocity": 100
        },
        {
          "pitch": 75,
          "onset": 83.625,
          "duration": 0.375,
          "velocity": 100
        },
        {
          "pitch": 55,
          "onset": 84.0,
          "duration": 1.9688,
          "velocity": 100
        },
        {
          "pitch": 64,
          "onset": 84.0,
          "duration": 1.1562,
          "velocity": 100
        },
        {
          "pitch": 71,
          "onset": 84.0,
          "duration": 1.9688,
          "velocity": 100
        },
        {
          "pitch": 76,
          "onset": 84.0,
          "duration": 0.1562,
          "velocity": 100
        },
        {
          "pitch": 78,
          "onset": 84.1562,
          "duration": 0.1562,
          "velocity": 100
        },
        {
          "pitch": 79,
          "onset": 84.3438,
          "duration": 0.1562,
          "velocity": 100
        },
        {
          "pitch": 79,
          "onset": 84.5,
          "duration": 0.1562,
          "velocity": 100
        },
        {
          "pitch": 78,
          "onset": 84.6562,
          "duration": 0.1562,
          "velocity": 100
        },
        {
          "pitch": 76,
          "onset": 84.8438,
          "duration": 0.1562,
          "velocity": 100
        },
        {
          "pitch": 83,
          "onset": 85.0,
          "duration": 0.5,
          "velocity": 100
        },
        {
          "pitch": 66,
          "onset": 85.1562,
          "duration": 0.1562,
          "velocity": 100
        },
        {
          "pitch": 67,
          "onset": 85.3438,
          "duration": 0.1562,
          "velocity": 100
        },
        {
          "pitch": 67,
          "onset": 85.5,
          "duration": 0.1562,
          "velocity": 100
        },
        {
          "pitch": 76,
          "onset": 85.5,
          "duration": 1.0,
          "velocity": 100
        },
        {
          "pitch": 66,
          "onset": 85.6562,
          "duration": 0.1562,
          "velocity": 100
        },
        {
          "pitch": 64,
          "onset": 85.8438,
          "duration": 0.1562,
          "velocity": 100
        },
        {
          "pitch": 57,
          "onset": 86.0,
          "duration": 1.0,
          "velocity": 100
        },
        {
          "pitch": 66,
          "onset": 86.0,
          "duration": 0.1562,
          "velocity": 100
        },
        {
          "pitch": 69,
          "onset": 86.0,
          "duration": 1.0,
          "velocity": 100
        },
        {
          "pitch": 66,
          "onset": 86.1562,
          "duration": 0.1562,
          "velocity": 100
        },
        {
          "pitch": 67,
          "onset": 86.3438,
          "duration": 0.1562,
          "velocity": 100
        },
        {
          "pitch": 69,
          "onset": 86.5,
          "duration": 0.1562,
          "velocity": 100
        },
        {
          "pitch": 75,
          "onset": 86.5,
          "duration": 0.5,
          "velocity": 100
        },
        {
          "pitch": 67,
          "onset": 86.6562,
          "duration": 0.1562,
          "velocity": 100
        },
        {
          "pitch": 66,
          "onset": 86.8438,
          "duration": 0.1562,
          "velocity": 100
        },
        {
          "pitch": 59,
          "onset": 87.0,
          "duration": 1.9688,
          "velocity": 100
        },
        {
          "pitch": 67,
          "onset": 87.0,
          "duration": 0.5,
          "velocity": 100
        },
        {
          "pitch": 74,
          "onset": 87.0,
          "duration": 1.9688,
          "velocity": 100
        },
        {
          "pitch": 64,
          "onset": 87.5,
          "duration": 0.125,
          "velocity": 100
        },
        {
          "pitch": 62,
          "onset": 87.625,
          "duration": 0.375,
          "velocity": 100
        },
        {
          "pitch": 66,
          "onset": 88.0,
          "duration": 0.125,
          "velocity": 100
        },
        {
          "pitch": 64,
          "onset": 88.125,
          "duration": 0.375,
          "velocity": 100
        },
        {
          "pitch": 64,
          "onset": 88.5,
          "duration": 0.125,
          "velocity": 100
        },
        {
          "pitch": 67,
          "onset": 88.5,
          "duration": 0.125,
          "velocity": 100
        },
        {
          "pitch": 62,
          "onset": 88.625,
          "duration": 0.375,
          "velocity": 100
        },
        {
          "pitch": 66,
          "onset": 88.625,
          "duration": 0.375,
          "velocity": 100
        },
        {
          "pitch": 66,
          "onset": 89.0,
          "duration": 0.125,
          "velocity": 100
        },
        {
          "pitch": 69,
          "onset": 89.0,
          "duration": 0.125,
          "velocity": 100
        },
        {
          "pitch": 71,
          "onset": 89.0,
          "duration": 1.0,
          "velocity": 100
        },
        {
          "pitch": 64,
          "onset": 89.125,
          "duration": 0.375,
          "velocity": 100
        },
        {
          "pitch": 67,
          "onset": 89.125,
          "duration": 0.375,
          "velocity": 100
        },
        {
          "pitch": 67,
          "onset": 89.5,
          "duration": 0.125,
          "velocity": 100
        },
        {
          "pitch": 71,
          "onset": 89.5,
          "duration": 0.125,
          "velocity": 100
        },
        {
          "pitch": 66,
          "onset": 89.625,
          "duration": 0.375,
          "velocity": 100
        },
        {
          "pitch": 69,
          "onset": 89.625,
          "duration": 0.375,
          "velocity": 100
        },
        {
          "pitch": 67,
          "onset": 90.0,
          "duration": 1.9688,
          "velocity": 100
        },
        {
          "pitch": 67,
          "onset": 90.0,
          "duration": 0.5,
          "velocity": 100
        },
        {
          "pitch": 71,
          "onset": 90.0,
          "duration": 0.1562,
          "velocity": 100
        },
        {
          "pitch": 69,
          "onset": 90.1562,
          "duration": 0.1562,
          "velocity": 100
        },
        {
          "pitch": 71,
          "onset": 90.3438,
          "duration": 0.1562,
          "velocity": 100
        },
        {
          "pitch": 64,
          "onset": 90.5,
          "duration": 0.5,
          "velocity": 100
        },
        {
          "pitch": 72,
          "onset": 90.5,
          "duration": 0.1562,
          "velocity": 100
        },
        {
          "pitch": 71,
          "onset": 90.6562,
          "duration": 0.1562,
          "velocity": 100
        },
        {
          "pitch": 69,
          "onset": 90.8438,
          "duration": 0.1562,
          "velocity": 100
        },
        {
          "pitch": 63,
          "onset": 91.0,
          "duration": 0.5,
          "velocity": 100
        },
        {
          "pitch": 71,
          "onset": 91.0,
          "duration": 0.1562,
          "velocity": 100
        },
        {
          "pitch": 76,
          "onset": 91.1562,
          "duration": 0.1562,
          "velocity": 100
        },
        {
          "pitch": 75,
          "onset": 91.3438,
          "duration": 0.1562,
          "velocity": 100
        },
        {
          "pitch": 62,
          "onset": 91.5,
          "duration": 0.5,
          "velocity": 100
        },
        {
          "pitch": 76,
          "onset": 91.5,
          "duration": 0.1562,
          "velocity": 100
        },
        {
          "pitch": 78,
          "onset": 91.6562,
          "duration": 0.1562,
          "velocity": 100
        },
        {
          "pitch": 79,
          "onset": 91.8438,
          "duration": 0.3438,
          "velocity": 100
        },
        {
          "pitch": 61,
          "onset": 92.0,
          "duration": 0.5,
          "velocity": 100
        },
        {
          "pitch": 69,
          "onset": 92.0,
          "duration": 1.0,
          "velocity": 100
        },
        {
          "pitch": 78,
          "onset": 92.1562,
          "duration": 0.1562,
          "velocity": 100
        },
        {
          "pitch": 76,
          "onset": 92.3438,
          "duration": 0.1562,
          "velocity": 100
        },
        {
          "pitch": 60,
          "onset": 92.5,
          "duration": 0.5,
          "velocity": 100
        },
        {
          "pitch": 78,
          "onset": 92.5,
          "duration": 0.1562,
          "velocity": 100
        },
        {
          "pitch": 79,
          "onset": 92.6562,
          "duration": 0.1562,
          "velocity": 100
        },
        {
          "pitch": 81,
          "onset": 92.8438,
          "duration": 0.2812,
          "velocity": 100
        },
        {
          "pitch": 59,
          "onset": 93.0,
          "duration": 0.5,
          "velocity": 100
        },
        {
          "pitch": 71,
          "onset": 93.0,
          "duration": 1.9688,
          "velocity": 100
        },
        {
          "pitch": 79,
          "onset": 93.125,
          "duration": 0.125,
          "velocity": 100
        },
        {
          "pitch": 78,
          "onset": 93.25,
          "duration": 0.25,
          "velocity": 100
        },
        {
          "pitch": 64,
          "onset": 93.5,
          "duration": 0.125,
          "velocity": 100
        },
        {
          "pitch": 79,
          "onset": 93.5,
          "duration": 1.0,
          "velocity": 100
        },
        {
          "pitch": 63,
          "onset": 93.625,
          "duration": 0.375,
          "velocity": 100
        },
        {
          "pitch": 66,
          "onset": 94.0,
          "duration": 0.125,
          "velocity": 100
        },
        {
          "pitch": 64,
          "onset": 94.125,
          "duration": 0.375,
          "velocity": 100
        },
        {
          "pitch": 67,
          "onset": 94.5,
          "duration": 0.125,
          "velocity": 100
        },
        {
          "pitch": 78,
          "onset": 94.5,
          "duration": 0.6562,
          "velocity": 100
        },
        {
          "pitch": 66,
          "onset": 94.625,
          "duration": 0.375,
          "velocity": 100
        },
        {
          "pitch": 69,
          "onset": 95.0,
          "duration": 0.125,
          "velocity": 100
        },
        {
          "pitch": 67,
          "onset": 95.125,
          "duration": 0.375,
          "velocity": 100
        },
        {
          "pitch": 76,
          "onset": 95.1562,
          "duration": 0.1562,
          "velocity": 100
        },
        {
          "pitch": 75,
          "onset": 95.3438,
          "duration": 0.1562,
          "velocity": 100
        },
        {
          "pitch": 71,
          "onset": 95.5,
          "duration": 0.125,
          "velocity": 100
        },
        {
          "pitch": 75,
          "onset": 95.5,
          "duration": 0.1562,
          "velocity": 100
        },
        {
          "pitch": 69,
          "onset": 95.625,
          "duration": 0.375,
          "velocity": 100
        },
        {
          "pitch": 76,
          "onset": 95.6562,
          "duration": 0.1562,
          "velocity": 100
        },
        {
          "pitch": 78,
          "onset": 95.8438,
          "duration": 0.1562,
          "velocity": 100
        },
        {
          "pitch": 71,
          "onset": 96.0,
          "duration": 0.5,
          "velocity": 100
        },
        {
          "pitch": 76,
          "onset": 96.0,
          "duration": 0.1562,
          "velocity": 100
        },
        {
          "pitch": 64,
          "onset": 96.1562,
          "duration": 0.1562,
          "velocity": 100
        },
        {
          "pitch": 66,
          "onset": 96.3438,
          "duration": 0.1562,
          "velocity": 100
        },
        {
          "pitch": 59,
          "onset": 96.5,
          "duration": 0.5,
          "velocity": 100
        },
        {
          "pitch": 67,
          "onset": 96.5,
          "duration": 0.1562,
          "velocity": 100
        },
        {
          "pitch": 66,
          "onset": 96.6562,
          "duration": 0.1562,
          "velocity": 100
        },
        {
          "pitch": 64,
          "onset": 96.8438,
          "duration": 0.4062,
          "velocity": 100
        },
        {
          "pitch": 57,
          "onset": 97.0,
          "duration": 0.5,
          "velocity": 100
        },
        {
          "pitch": 75,
          "onset": 97.25,
          "duration": 0.5,
          "velocity": 100
        },
        {
          "pitch": 55,
          "onset": 97.5,
          "duration": 0.5,
          "velocity": 100
        },
        {
          "pitch": 76,
          "onset": 97.75,
          "duration": 0.25,
          "velocity": 100
        },
        {
          "pitch": 57,
          "onset": 98.0,
          "duration": 0.5,
          "velocity": 100
        },
        {
          "pitch": 69,
          "onset": 98.0,
          "duration": 0.1562,
          "velocity": 100
        },
        {
          "pitch": 76,
          "onset": 98.1562,
          "duration": 0.1562,
          "velocity": 100
        },
        {
          "pitch": 78,
          "onset": 98.3438,
          "duration": 0.1562,
          "velocity": 100
        },
        {
          "pitch": 69,
          "onset": 98.5,
          "duration": 1.0,
          "velocity": 100
        },
        {
          "pitch": 79,
          "onset": 98.5,
          "duration": 0.1562,
          "velocity": 100
        },
        {
          "pitch": 78,
          "onset": 98.6562,
          "duration": 0.1562,
          "velocity": 100
        },
        {
          "pitch": 76,
          "onset": 98.8438,
          "duration": 0.1562,
          "velocity": 100
        },
        {
          "pitch": 75,
          "onset": 99.0,
          "duration": 0.125,
          "velocity": 100
        },
        {
          "pitch": 73,
          "onset": 99.125,
          "duration": 0.125,
          "velocity": 100
        },
        {
          "pitch": 71,
          "onset": 99.25,
          "duration": 0.25,
          "velocity": 100
        },
        {
          "pitch": 63,
          "onset": 99.5,
          "duration": 0.5,
          "velocity": 100
        },
        {
          "pitch": 69,
          "onset": 99.5,
          "duration": 0.125,
          "velocity": 100
        },
        {
          "pitch": 67,
          "onset": 99.625,
          "duration": 0.375,
          "velocity": 100
        },
        {
          "pitch": 71,
          "onset": 100.0,
          "duration": 0.125,
          "velocity": 100
        },
        {
          "pitch": 69,
          "onset": 100.125,
          "duration": 0.375,
          "velocity": 100
        },
        {
          "pitch": 69,
          "onset": 100.5,
          "duration": 0.5,
          "velocity": 100
        },
        {
          "pitch": 72,
          "onset": 100.5,
          "duration": 0.125,
          "velocity": 100
        },
        {
          "pitch": 71,
          "onset": 100.625,
          "duration": 0.375,
          "velocity": 100
        },
        {
          "pitch": 67,
          "onset": 101.0,
          "duration": 0.5,
          "velocity": 100
        },
        {
          "pitch": 75,
          "onset": 101.0,
          "duration": 0.125,
          "velocity": 100
        },
        {
          "pitch": 73,
          "onset": 101.125,
          "duration": 0.375,
          "velocity": 100
        },
        {
          "pitch": 66,
          "onset": 101.5,
          "duration": 0.5,
          "velocity": 100
        },
        {
          "pitch": 76,
          "onset": 101.5,
          "duration": 0.125,
          "velocity": 100
        },
        {
          "pitch": 75,
          "onset": 101.625,
          "duration": 0.375,
          "velocity": 100
        },
        {
          "pitch": 67,
          "onset": 102.0,
          "duration": 0.125,
          "velocity": 100
        },
        {
          "pitch": 76,
          "onset": 102.0,
          "duration": 0.5,
          "velocity": 100
        },
        {
          "pitch": 66,
          "onset": 102.125,
          "duration": 0.125,
          "velocity": 100
        },
        {
          "pitch": 64,
          "onset": 102.25,
          "duration": 0.25,
          "velocity": 100
        },
        {
          "pitch": 62,
          "onset": 102.5,
          "duration": 0.125,
          "velocity": 100
        },
        {
          "pitch": 77,
          "onset": 102.5,
          "duration": 0.5,
          "velocity": 100
        },
        {
          "pitch": 60,
          "onset": 102.625,
          "duration": 0.375,
          "velocity": 100
        },
        {
          "pitch": 64,
          "onset": 103.0,
          "duration": 0.125,
          "velocity": 100
        },
        {
          "pitch": 62,
          "onset": 103.125,
          "duration": 0.375,
          "velocity": 100
        },
        {
          "pitch": 65,
          "onset": 103.5,
          "duration": 0.125,
          "velocity": 100
        },
        {
          "pitch": 74,
          "onset": 103.5,
          "duration": 0.5,
          "velocity": 100
        },
        {
          "pitch": 64,
          "onset": 103.625,
          "duration": 0.375,
          "velocity": 100
        },
        {
          "pitch": 68,
          "onset": 104.0,
          "duration": 0.125,
          "velocity": 100
        },
        {
          "pitch": 72,
          "onset": 104.0,
          "duration": 0.5,
          "velocity": 100
        },
        {
          "pitch": 66,
          "onset": 104.125,
          "duration": 0.375,
          "velocity": 100
        },
        {
          "pitch": 69,
          "onset": 104.5,
          "duration": 0.125,
          "velocity": 100
        },
        {
          "pitch": 71,
          "onset": 104.5,
          "duration": 0.5,
          "velocity": 100
        },
        {
          "pitch": 68,
          "onset": 104.625,
          "duration": 0.375,
          "velocity": 100
        },
        {
          "pitch": 69,
          "onset": 105.0,
          "duration": 0.5,
          "velocity": 100
        },
        {
          "pitch": 72,
          "onset": 105.0,
          "duration": 0.125,
          "velocity": 100
        },
        {
          "pitch": 71,
          "onset": 105.125,
          "duration": 0.125,
          "velocity": 100
        },
        {
          "pitch": 69,
          "onset": 105.25,
          "duration": 0.25,
          "velocity": 100
        },
        {
          "pitch": 67,
          "onset": 105.5,
          "duration": 0.125,
          "velocity": 100
        },
        {
          "pitch": 70,
          "onset": 105.5,
          "duration": 0.5,
          "velocity": 100
        },
        {
          "pitch": 66,
          "onset": 105.625,
          "duration": 0.375,
          "velocity": 100
        },
        {
          "pitch": 69,
          "onset": 106.0,
          "duration": 0.125,
          "velocity": 100
        },
        {
          "pitch": 67,
          "onset": 106.125,
          "duration": 0.375,
          "velocity": 100
        },
        {
          "pitch": 67,
          "onset": 106.5,
          "duration": 0.5,
          "velocity": 100
        },
        {
          "pitch": 70,
          "onset": 106.5,
          "duration": 0.125,
          "velocity": 100
        },
        {
          "pitch": 69,
          "onset": 106.625,
          "duration": 0.375,
          "velocity": 100
        },
        {
          "pitch": 66,
          "onset": 107.0,
          "duration": 0.5,
          "velocity": 100
        },
        {
          "pitch": 73,
          "onset": 107.0,
          "duration": 0.125,
          "velocity": 100
        },
        {
          "pitch": 71,
          "onset": 107.125,
          "duration": 0.375,
          "velocity": 100
        },
        {
          "pitch": 64,
          "onset": 107.5,
          "duration": 0.5,
          "velocity": 100
        },
        {
          "pitch": 74,
          "onset": 107.5,
          "duration": 0.125,
          "velocity": 100
        },
        {
          "pitch": 73,
          "onset": 107.625,
          "duration": 0.375,
          "velocity": 100
        },
        {
          "pitch": 66,
          "onset": 108.0,
          "duration": 0.125,
          "velocity": 100
        },
        {
          "pitch": 74,
          "onset": 108.0,
          "duration": 0.5,
          "velocity": 100
        },
        {
          "pitch": 64,
          "onset": 108.125,
          "duration": 0.125,
          "velocity": 100
        },
        {
          "pitch": 62,
          "onset": 108.25,
          "duration": 0.25,
          "velocity": 100
        },
        {
          "pitch": 60,
          "onset": 108.5,
          "duration": 0.125,
          "velocity": 100
        },
        {
          "pitch": 75,
          "onset": 108.5,
          "duration": 0.5,
          "velocity": 100
        },
        {
          "pitch": 59,
          "onset": 108.625,
          "duration": 0.375,
          "velocity": 100
        },
        {
          "pitch": 62,
          "onset": 109.0,
          "duration": 0.125,
          "velocity": 100
        },
        {
          "pitch": 60,
          "onset": 109.125,
          "duration": 0.375,
          "velocity": 100
        },
        {
          "pitch": 63,
          "onset": 109.5,
          "duration": 0.125,
          "velocity": 100
        },
        {
          "pitch": 72,
          "onset": 109.5,
          "duration": 0.5,
          "velocity": 100
        },
        {
          "pitch": 62,
          "onset": 109.625,
          "duration": 0.375,
          "velocity": 100
        },
        {
          "pitch": 66,
          "onset": 110.0,
          "duration": 0.125,
          "velocity": 100
        },
        {
          "pitch": 71,
          "onset": 110.0,
          "duration": 0.5,
          "velocity": 100
        },
        {
          "pitch": 64,
          "onset": 110.125,
          "duration": 0.375,
          "velocity": 100
        },
        {
          "pitch": 67,
          "onset": 110.5,
          "duration": 0.125,
          "velocity": 100
        },
        {
          "pitch": 69,
          "onset": 110.5,
          "duration": 0.5,
          "velocity": 100
        },
        {
          "pitch": 66,
          "onset": 110.625,
          "duration": 0.375,
          "velocity": 100
        },
        {
          "pitch": 67,
          "onset": 111.0,
          "duration": 0.5,
          "velocity": 100
        },
        {
          "pitch": 71,
          "onset": 111.0,
          "duration": 0.125,
          "velocity": 100
        },
        {
          "pitch": 69,
          "onset": 111.125,
          "duration": 0.125,
          "velocity": 100
        },
        {
          "pitch": 67,
          "onset": 111.25,
          "duration": 0.25,
          "velocity": 100
        },
        {
          "pitch": 62,
          "onset": 111.5,
          "duration": 0.125,
          "velocity": 100
        },
        {
          "pitch": 71,
          "onset": 111.5,
          "duration": 0.5,
          "velocity": 100
        },
        {
          "pitch": 61,
          "onset": 111.625,
          "duration": 0.375,
          "velocity": 100
        },
        {
          "pitch": 64,
          "onset": 112.0,
          "duration": 0.125,
          "velocity": 100
        },
        {
          "pitch": 70,
          "onset": 112.0,
          "duration": 0.5,
          "velocity": 100
        },
        {
          "pitch": 63,
          "onset": 112.125,
          "duration": 0.375,
          "velocity": 100
        },
        {
          "pitch": 66,
          "onset": 112.5,
          "duration": 0.125,
          "velocity": 100
        },
        {
          "pitch": 69,
          "onset": 112.5,
          "duration": 0.5,
          "velocity": 100
        },
        {
          "pitch": 64,
          "onset": 112.625,
          "duration": 0.375,
          "velocity": 100
        },
        {
          "pitch": 68,
          "onset": 113.0,
          "duration": 0.125,
          "velocity": 100
        },
        {
          "pitch": 68,
          "onset": 113.0,
          "duration": 0.5,
          "velocity": 100
        },
        {
          "pitch": 71,
          "onset": 113.0,
          "duration": 0.5,
          "velocity": 100
        },
        {
          "pitch": 66,
          "onset": 113.125,
          "duration": 0.125,
          "velocity": 100
        },
        {
          "pitch": 64,
          "onset": 113.25,
          "duration": 0.25,
          "velocity": 100
        },
        {
          "pitch": 67,
          "onset": 113.5,
          "duration": 0.5,
          "velocity": 100
        },
        {
          "pitch": 71,
          "onset": 113.5,
          "duration": 0.125,
          "velocity": 100
        },
        {
          "pitch": 73,
          "onset": 113.5,
          "duration": 0.5,
          "velocity": 100
        },
        {
          "pitch": 70,
          "onset": 113.625,
          "duration": 0.375,
          "velocity": 100
        },
        {
          "pitch": 66,
          "onset": 114.0,
          "duration": 0.5,
          "velocity": 100
        },
        {
          "pitch": 71,
          "onset": 114.0,
          "duration": 0.125,
          "velocity": 100
        },
        {
          "pitch": 74,
          "onset": 114.0,
          "duration": 1.5,
          "velocity": 100
        },
        {
          "pitch": 69,
          "onset": 114.125,
          "duration": 0.125,
          "velocity": 100
        },
        {
          "pitch": 66,
          "onset": 114.5,
          "duration": 0.125,
          "velocity": 100
        },
        {
          "pitch": 64,
          "onset": 114.625,
          "duration": 0.375,
          "velocity": 100
        },
        {
          "pitch": 67,
          "onset": 115.0,
          "duration": 0.125,
          "velocity": 100
        },
        {
          "pitch": 71,
          "onset": 115.0,
          "duration": 0.125,
          "velocity": 100
        },
        {
          "pitch": 66,
          "onset": 115.125,
          "duration": 0.375,
          "velocity": 100
        },
        {
          "pitch": 69,
          "onset": 115.125,
          "duration": 0.125,
          "velocity": 100
        },
        {
          "pitch": 67,
          "onset": 115.25,
          "duration": 0.25,
          "velocity": 100
        },
        {
          "pitch": 66,
          "onset": 115.5,
          "duration": 0.125,
          "velocity": 100
        },
        {
          "pitch": 72,
          "onset": 115.5,
          "duration": 0.5,
          "velocity": 100
        },
        {
          "pitch": 75,
          "onset": 115.5,
          "duration": 0.5,
          "velocity": 100
        },
        {
          "pitch": 64,
          "onset": 115.625,
          "duration": 0.375,
          "velocity": 100
        },
        {
          "pitch": 67,
          "onset": 116.0,
          "duration": 0.125,
          "velocity": 100
        },
        {
          "pitch": 71,
          "onset": 116.0,
          "duration": 0.5,
          "velocity": 100
        },
        {
          "pitch": 76,
          "onset": 116.0,
          "duration": 0.5,
          "velocity": 100
        },
        {
          "pitch": 66,
          "onset": 116.125,
          "duration": 0.375,
          "velocity": 100
        },
        {
          "pitch": 69,
          "onset": 116.5,
          "duration": 0.125,
          "velocity": 100
        },
        {
          "pitch": 75,
          "onset": 116.5,
          "duration": 0.5,
          "velocity": 100
        },
        {
          "pitch": 78,
          "onset": 116.5,
          "duration": 0.5,
          "velocity": 100
        },
        {
          "pitch": 67,
          "onset": 116.625,
          "duration": 0.375,
          "velocity": 100
        },
        {
          "pitch": 71,
          "onset": 117.0,
          "duration": 0.1562,
          "velocity": 100
        },
        {
          "pitch": 76,
          "onset": 117.0,
          "duration": 1.25,
          "velocity": 100
        },
        {
          "pitch": 79,
          "onset": 117.0,
          "duration": 2.9688,
          "velocity": 100
        },
        {
          "pitch": 69,
          "onset": 117.1562,
          "duration": 0.1562,
          "velocity": 100
        },
        {
          "pitch": 67,
          "onset": 117.3438,
          "duration": 0.1562,
          "velocity": 100
        },
        {
          "pitch": 67,
          "onset": 117.5,
          "duration": 0.1562,
          "velocity": 100
        },
        {
          "pitch": 69,
          "onset": 117.6562,
          "duration": 0.1562,
          "velocity": 100
        },
        {
          "pitch": 71,
          "onset": 117.8438,
          "duration": 0.1562,
          "velocity": 100
        },
        {
          "pitch": 64,
          "onset": 118.0,
          "duration": 1.5,
          "velocity": 100
        },
        {
          "pitch": 71,
          "onset": 118.25,
          "duration": 0.5,
          "velocity": 100
        },
        {
          "pitch": 70,
          "onset": 118.75,
          "duration": 0.25,
          "velocity": 100
        },
        {
          "pitch": 59,
          "onset": 119.0,
          "duration": 0.5,
          "velocity": 100
        },
        {
          "pitch": 71,
          "onset": 119.0,
          "duration": 0.1562,
          "velocity": 100
        },
        {
          "pitch": 73,
          "onset": 119.1562,
          "duration": 0.1562,
          "velocity": 100
        },
        {
          "pitch": 74,
          "onset": 119.3438,
          "duration": 0.1562,
          "velocity": 100
        },
        {
          "pitch": 61,
          "onset": 119.5,
          "duration": 0.5,
          "velocity": 100
        },
        {
          "pitch": 73,
          "onset": 119.5,
          "duration": 0.6562,
          "velocity": 100
        },
        {
          "pitch": 76,
          "onset": 119.5,
          "duration": 0.1562,
          "velocity": 100
        },
        {
          "pitch": 78,
          "onset": 119.6562,
          "duration": 0.1562,
          "velocity": 100
        },
        {
          "pitch": 76,
          "onset": 119.8438,
          "duration": 0.1562,
          "velocity": 100
        },
        {
          "pitch": 62,
          "onset": 120.0,
          "duration": 1.5,
          "velocity": 100
        },
        {
          "pitch": 74,
          "onset": 120.0,
          "duration": 0.5,
          "velocity": 100
        },
        {
          "pitch": 78,
          "onset": 120.0,
          "duration": 2.9688,
          "velocity": 100
        },
        {
          "pitch": 71,
          "onset": 120.1562,
          "duration": 0.1562,
          "velocity": 100
        },
        {
          "pitch": 70,
          "onset": 120.3438,
          "duration": 0.1562,
          "velocity": 100
        },
        {
          "pitch": 70,
          "onset": 120.5,
          "duration": 0.1562,
          "velocity": 100
        },
        {
          "pitch": 73,
          "onset": 120.5,
          "duration": 0.75,
          "velocity": 100
        },
        {
          "pitch": 71,
          "onset": 120.6562,
          "duration": 0.1562,
          "velocity": 100
        },
        {
          "pitch": 73,
          "onset": 120.8438,
          "duration": 0.1562,
          "velocity": 100
        },
        {
          "pitch": 66,
          "onset": 121.0,
          "duration": 0.5,
          "velocity": 100
        },
        {
          "pitch": 72,
          "onset": 121.25,
          "duration": 0.5,
          "velocity": 100
        },
        {
          "pitch": 63,
          "onset": 121.5,
          "duration": 0.5,
          "velocity": 100
        },
        {
          "pitch": 71,
          "onset": 121.75,
          "duration": 0.25,
          "velocity": 100
        },
        {
          "pitch": 64,
          "onset": 122.0,
          "duration": 0.5,
          "velocity": 100
        },
        {
          "pitch": 69,
          "onset": 122.0,
          "duration": 0.25,
          "velocity": 100
        },
        {
          "pitch": 66,
          "onset": 122.25,
          "duration": 0.25,
          "velocity": 100
        },
        {
          "pitch": 72,
          "onset": 122.25,
          "duration": 0.5,
          "velocity": 100
        },
        {
          "pitch": 66,
          "onset": 122.5,
          "duration": 0.5,
          "velocity": 100
        },
        {
          "pitch": 75,
          "onset": 122.5,
          "duration": 0.5,
          "velocity": 100
        },
        {
          "pitch": 71,
          "onset": 122.75,
          "duration": 0.25,
          "velocity": 100
        },
        {
          "pitch": 67,
          "onset": 123.0,
          "duration": 2.9688,
          "velocity": 100
        },
        {
          "pitch": 72,
          "onset": 123.0,
          "duration": 1.5,
          "velocity": 100
        },
        {
          "pitch": 76,
          "onset": 123.0,
          "duration": 3.9688,
          "velocity": 100
        },
        {
          "pitch": 76,
          "onset": 123.5,
          "duration": 0.5,
          "velocity": 100
        },
        {
          "pitch": 75,
          "onset": 124.0,
          "duration": 0.5,
          "velocity": 100
        },
        {
          "pitch": 71,
          "onset": 124.5,
          "duration": 0.5,
          "velocity": 100
        },
        {
          "pitch": 74,
          "onset": 124.5,
          "duration": 0.5,
          "velocity": 100
        },
        {
          "pitch": 69,
          "onset": 125.0,
          "duration": 0.5,
          "velocity": 100
        },
        {
          "pitch": 73,
          "onset": 125.0,
          "duration": 0.5,
          "velocity": 100
        },
        {
          "pitch": 72,
          "onset": 125.5,
          "duration": 0.5,
          "velocity": 100
        },
        {
          "pitch": 66,
          "onset": 126.0,
          "duration": 2.9688,
          "velocity": 100
        },
        {
          "pitch": 71,
          "onset": 126.0,
          "duration": 0.1562,
          "velocity": 100
        },
        {
          "pitch": 70,
          "onset": 126.1562,
          "duration": 0.1562,
          "velocity": 100
        },
        {
          "pitch": 71,
          "onset": 126.3438,
          "duration": 0.1562,
          "velocity": 100
        },
        {
          "pitch": 73,
          "onset": 126.5,
          "duration": 0.1562,
          "velocity": 100
        },
        {
          "pitch": 71,
          "onset": 126.6562,
          "duration": 0.1562,
          "velocity": 100
        },
        {
          "pitch": 70,
          "onset": 126.8438,
          "duration": 0.1562,
          "velocity": 100
        },
        {
          "pitch": 71,
          "onset": 127.0,
          "duration": 0.5,
          "velocity": 100
        },
        {
          "pitch": 75,
          "onset": 127.0,
          "duration": 1.9688,
          "velocity": 100
        },
        {
          "pitch": 54,
          "onset": 127.1562,
          "duration": 0.1562,
          "velocity": 100
        },
        {
          "pitch": 55,
          "onset": 127.3438,
          "duration": 0.1562,
          "velocity": 100
        },
        {
          "pitch": 57,
          "onset": 127.5,
          "duration": 0.1562,
          "velocity": 100
        },
        {
          "pitch": 66,
          "onset": 127.5,
          "duration": 0.6562,
          "velocity": 100
        },
        {
          "pitch": 55,
          "onset": 127.6562,
          "duration": 0.1562,
          "velocity": 100
        },
        {
          "pitch": 54,
          "onset": 127.8438,
          "duration": 0.1562,
          "velocity": 100
        },
        {
          "pitch": 59,
          "onset": 128.0,
          "duration": 1.1562,
          "velocity": 100
        },
        {
          "pitch": 66,
          "onset": 128.1562,
          "duration": 0.1562,
          "velocity": 100
        },
        {
          "pitch": 64,
          "onset": 128.3438,
          "duration": 0.1562,
          "velocity": 100
        },
        {
          "pitch": 66,
          "onset": 128.5,
          "duration": 0.1562,
          "velocity": 100
        },
        {
          "pitch": 68,
          "onset": 128.6562,
          "duration": 0.1562,
          "velocity": 100
        },
        {
          "pitch": 69,
          "onset": 128.8438,
          "duration": 0.1562,
          "velocity": 100
        },
        {
          "pitch": 64,
          "onset": 129.0,
          "duration": 3.9688,
          "velocity": 100
        },
        {
          "pitch": 71,
          "onset": 129.0,
          "duration": 1.1562,
          "velocity": 100
        },
        {
          "pitch": 76,
          "onset": 129.0,
          "duration": 1.9688,
          "velocity": 100
        },
        {
          "pitch": 52,
          "onset": 129.1562,
          "duration": 0.1562,
          "velocity": 100
        },
        {
          "pitch": 54,
          "onset": 129.3438,
          "duration": 0.1562,
          "velocity": 100
        },
        {
          "pitch": 56,
          "onset": 129.5,
          "duration": 0.1562,
          "velocity": 100
        },
        {
          "pitch": 57,
          "onset": 129.6562,
          "duration": 0.1562,
          "velocity": 100
        },
        {
          "pitch": 59,
          "onset": 129.8438,
          "duration": 0.1562,
          "velocity": 100
        },
        {
          "pitch": 60,
          "onset": 130.0,
          "duration": 1.5,
          "velocity": 100
        },
        {
          "pitch": 71,
          "onset": 130.1562,
          "duration": 0.1562,
          "velocity": 100
        },
        {
          "pitch": 69,
          "onset": 130.3438,
          "duration": 0.1562,
          "velocity": 100
        },
        {
          "pitch": 67,
          "onset": 130.5,
          "duration": 0.1562,
          "velocity": 100
        },
        {
          "pitch": 66,
          "onset": 130.6562,
          "duration": 0.1562,
          "velocity": 100
        },
        {
          "pitch": 64,
          "onset": 130.8438,
          "duration": 0.1562,
          "velocity": 100
        },
        {
          "pitch": 66,
          "onset": 131.0,
          "duration": 0.125,
          "velocity": 100
        },
        {
          "pitch": 64,
          "onset": 131.125,
          "duration": 0.375,
          "velocity": 100
        },
        {
          "pitch": 59,
          "onset": 131.5,
          "duration": 0.5,
          "velocity": 100
        },
        {
          "pitch": 67,
          "onset": 131.5,
          "duration": 0.125,
          "velocity": 100
        },
        {
          "pitch": 66,
          "onset": 131.625,
          "duration": 0.375,
          "velocity": 100
        },
        {
          "pitch": 60,
          "onset": 132.0,
          "duration": 0.125,
          "velocity": 100
        },
        {
          "pitch": 69,
          "onset": 132.0,
          "duration": 0.5,
          "velocity": 100
        },
        {
          "pitch": 59,
          "onset": 132.125,
          "duration": 0.125,
          "velocity": 100
        },
        {
          "pitch": 57,
          "onset": 132.25,
          "duration": 0.25,
          "velocity": 100
        },
        {
          "pitch": 55,
          "onset": 132.5,
          "duration": 0.125,
          "velocity": 100
        },
        {
          "pitch": 72,
          "onset": 132.5,
          "duration": 1.0,
          "velocity": 100
        },
        {
          "pitch": 54,
          "onset": 132.625,
          "duration": 0.375,
          "velocity": 100
        },
        {
          "pitch": 57,
          "onset": 133.0,
          "duration": 0.125,
          "velocity": 100
        },
        {
          "pitch": 63,
          "onset": 133.0,
          "duration": 1.9688,
          "velocity": 100
        },
        {
          "pitch": 55,
          "onset": 133.125,
          "duration": 0.375,
          "velocity": 100
        },
        {
          "pitch": 59,
          "onset": 133.5,
          "duration": 0.125,
          "velocity": 100
        },
        {
          "pitch": 71,
          "onset": 133.5,
          "duration": 0.5,
          "velocity": 100
        },
        {
          "pitch": 57,
          "onset": 133.625,
          "duration": 0.375,
          "velocity": 100
        },
        {
          "pitch": 61,
          "onset": 134.0,
          "duration": 0.5,
          "velocity": 100
        },
        {
          "pitch": 78,
          "onset": 134.0,
          "duration": 0.1562,
          "velocity": 100
        },
        {
          "pitch": 79,
          "onset": 134.1562,
          "duration": 0.1562,
          "velocity": 100
        },
        {
          "pitch": 81,
          "onset": 134.3438,
          "duration": 0.1562,
          "velocity": 100
        },
        {
          "pitch": 59,
          "onset": 134.5,
          "duration": 0.5,
          "velocity": 100
        },
        {
          "pitch": 81,
          "onset": 134.5,
          "duration": 0.1562,
          "velocity": 100
        },
        {
          "pitch": 79,
          "onset": 134.6562,
          "duration": 0.1562,
          "velocity": 100
        },
        {
          "pitch": 78,
          "onset": 134.8438,
          "duration": 0.1562,
          "velocity": 100
        },
        {
          "pitch": 64,
          "onset": 135.0,
          "duration": 1.9688,
          "velocity": 100
        },
        {
          "pitch": 79,
          "onset": 135.0,
          "duration": 0.125,
          "velocity": 100
        },
        {
          "pitch": 78,
          "onset": 135.125,
          "duration": 0.125,
          "velocity": 100
        },
        {
          "pitch": 76,
          "onset": 135.25,
          "duration": 0.25,
          "velocity": 100
        },
        {
          "pitch": 69,
          "onset": 135.5,
          "duration": 0.125,
          "velocity": 100
        },
        {
          "pitch": 84,
          "onset": 135.5,
          "duration": 1.25,
          "velocity": 100
        },
        {
          "pitch": 68,
          "onset": 135.625,
          "duration": 0.375,
          "velocity": 100
        },
        {
          "pitch": 68,
          "onset": 136.0,
          "duration": 0.125,
          "velocity": 100
        },
        {
          "pitch": 69,
          "onset": 136.125,
          "duration": 0.375,
          "velocity": 100
        },
        {
          "pitch": 62,
          "onset": 136.5,
          "duration": 0.6562,
          "velocity": 100
        },
        {
          "pitch": 83,
          "onset": 136.75,
          "duration": 0.125,
          "velocity": 100
        },
        {
          "pitch": 81,
          "onset": 136.875,
          "duration": 0.125,
          "velocity": 100
        },
        {
          "pitch": 83,
          "onset": 137.0,
          "duration": 1.1562,
          "velocity": 100
        },
        {
          "pitch": 62,
          "onset": 137.1562,
          "duration": 0.1562,
          "velocity": 100
        },
        {
          "pitch": 64,
          "onset": 137.3438,
          "duration": 0.1562,
          "velocity": 100
        },
        {
          "pitch": 65,
          "onset": 137.5,
          "duration": 0.1562,
          "velocity": 100
        },
        {
          "pitch": 64,
          "onset": 137.6562,
          "duration": 0.1562,
          "velocity": 100
        },
        {
          "pitch": 62,
          "onset": 137.8438,
          "duration": 0.1562,
          "velocity": 100
        },
        {
          "pitch": 60,
          "onset": 138.0,
          "duration": 0.5,
          "velocity": 100
        },
        {
          "pitch": 81,
          "onset": 138.1562,
          "duration": 0.1562,
          "velocity": 100
        },
        {
          "pitch": 80,
          "onset": 138.3438,
          "duration": 0.1562,
          "velocity": 100
        },
        {
          "pitch": 62,
          "onset": 138.5,
          "duration": 0.625,
          "velocity": 100
        },
        {
          "pitch": 80,
          "onset": 138.5,
          "duration": 0.1562,
          "velocity": 100
        },
        {
          "pitch": 81,
          "onset": 138.6562,
          "duration": 0.1562,
          "velocity": 100
        },
        {
          "pitch": 83,
          "onset": 138.8438,
          "duration": 0.1562,
          "velocity": 100
        },
        {
          "pitch": 76,
          "onset": 139.0,
          "duration": 0.5,
          "velocity": 100
        },
        {
          "pitch": 60,
          "onset": 139.125,
          "duration": 0.375,
          "velocity": 100
        },
        {
          "pitch": 59,
          "onset": 139.5,
          "duration": 0.125,
          "velocity": 100
        },
        {
          "pitch": 77,
          "onset": 139.5,
          "duration": 0.5,
          "velocity": 100
        },
        {
          "pitch": 57,
          "onset": 139.625,
          "duration": 0.375,
          "velocity": 100
        },
        {
          "pitch": 60,
          "onset": 140.0,
          "duration": 0.125,
          "velocity": 100
        },
        {
          "pitch": 76,
          "onset": 140.0,
          "duration": 0.125,
          "velocity": 100
        },
        {
          "pitch": 59,
          "onset": 140.125,
          "duration": 0.375,
          "velocity": 100
        },
        {
          "pitch": 74,
          "onset": 140.125,
          "duration": 0.375,
          "velocity": 100
        },
        {
          "pitch": 57,
          "onset": 140.5,
          "duration": 0.125,
          "velocity": 100
        },
        {
          "pitch": 72,
          "onset": 140.5,
          "duration": 0.125,
          "velocity": 100
        },
        {
          "pitch": 56,
          "onset": 140.625,
          "duration": 0.375,
          "velocity": 100
        },
        {
          "pitch": 71,
          "onset": 140.625,
          "duration": 0.375,
          "velocity": 100
        },
        {
          "pitch": 57,
          "onset": 141.0,
          "duration": 0.5,
          "velocity": 100
        },
        {
          "pitch": 72,
          "onset": 141.0,
          "duration": 0.125,
          "velocity": 100
        },
        {
          "pitch": 71,
          "onset": 141.125,
          "duration": 0.125,
          "velocity": 100
        },
        {
          "pitch": 69,
          "onset": 141.25,
          "duration": 0.25,
          "velocity": 100
        },
        {
          "pitch": 67,
          "onset": 141.5,
          "duration": 1.25,
          "velocity": 100
        },
        {
          "pitch": 76,
          "onset": 141.5,
          "duration": 0.125,
          "velocity": 100
        },
        {
          "pitch": 75,
          "onset": 141.625,
          "duration": 0.375,
          "velocity": 100
        },
        {
          "pitch": 75,
          "onset": 142.0,
          "duration": 0.125,
          "velocity": 100
        },
        {
          "pitch": 76,
          "onset": 142.125,
          "duration": 0.375,
          "velocity": 100
        },
        {
          "pitch": 69,
          "onset": 142.5,
          "duration": 0.6562,
          "velocity": 100
        },
        {
          "pitch": 66,
          "onset": 142.75,
          "duration": 0.125,
          "velocity": 100
        },
        {
          "pitch": 64,
          "onset": 142.875,
          "duration": 0.125,
          "velocity": 100
        },
        {
          "pitch": 66,
          "onset": 143.0,
          "duration": 1.1562,
          "velocity": 100
        },
        {
          "pitch": 71,
          "onset": 143.1562,
          "duration": 0.1562,
          "velocity": 100
        },
        {
          "pitch": 72,
          "onset": 143.3438,
          "duration": 0.1562,
          "velocity": 100
        },
        {
          "pitch": 72,
          "onset": 143.5,
          "duration": 0.1562,
          "velocity": 100
        },
        {
          "pitch": 71,
          "onset": 143.6562,
          "duration": 0.1562,
          "velocity": 100
        },
        {
          "pitch": 69,
          "onset": 143.8438,
          "duration": 0.1562,
          "velocity": 100
        },
        {
          "pitch": 67,
          "onset": 144.0,
          "duration": 0.5,
          "velocity": 100
        },
        {
          "pitch": 64,
          "onset": 144.1562,
          "duration": 0.1562,
          "velocity": 100
        },
        {
          "pitch": 63,
          "onset": 144.3438,
          "duration": 0.1562,
          "velocity": 100
        },
        {
          "pitch": 63,
          "onset": 144.5,
          "duration": 0.1562,
          "velocity": 100
        },
        {
          "pitch": 69,
          "onset": 144.5,
          "duration": 0.625,
          "velocity": 100
        },
        {
          "pitch": 64,
          "onset": 144.6562,
          "duration": 0.1562,
          "velocity": 100
        },
        {
          "pitch": 66,
          "onset": 144.8438,
          "duration": 0.1562,
          "velocity": 100
        },
        {
          "pitch": 59,
          "onset": 145.0,
          "duration": 0.5,
          "velocity": 100
        },
        {
          "pitch": 67,
          "onset": 145.125,
          "duration": 0.375,
          "velocity": 100
        },
        {
          "pitch": 60,
          "onset": 145.5,
          "duration": 0.5,
          "velocity": 100
        },
        {
          "pitch": 66,
          "onset": 145.5,
          "duration": 0.125,
          "velocity": 100
        },
        {
          "pitch": 64,
          "onset": 145.625,
          "duration": 0.375,
          "velocity": 100
        },
        {
          "pitch": 59,
          "onset": 146.0,
          "duration": 0.125,
          "velocity": 100
        },
        {
          "pitch": 67,
          "onset": 146.0,
          "duration": 0.125,
          "velocity": 100
        },
        {
          "pitch": 57,
          "onset": 146.125,
          "duration": 0.375,
          "velocity": 100
        },
        {
          "pitch": 66,
          "onset": 146.125,
          "duration": 0.375,
          "velocity": 100
        },
        {
          "pitch": 55,
          "onset": 146.5,
          "duration": 0.125,
          "velocity": 100
        },
        {
          "pitch": 64,
          "onset": 146.5,
          "duration": 0.125,
          "velocity": 100
        },
        {
          "pitch": 54,
          "onset": 146.625,
          "duration": 0.375,
          "velocity": 100
        },
        {
          "pitch": 63,
          "onset": 146.625,
          "duration": 0.375,
          "velocity": 100
        },
        {
          "pitch": 52,
          "onset": 147.0,
          "duration": 0.5,
          "velocity": 100
        },
        {
          "pitch": 64,
          "onset": 147.0,
          "duration": 0.1562,
          "velocity": 100
        },
        {
          "pitch": 66,
          "onset": 147.1562,
          "duration": 0.1562,
          "velocity": 100
        },
        {
          "pitch": 67,
          "onset": 147.3438,
          "duration": 0.1562,
          "velocity": 100
        },
        {
          "pitch": 64,
          "onset": 147.5,
          "duration": 0.1562,
          "velocity": 100
        },
        {
          "pitch": 67,
          "onset": 147.5,
          "duration": 0.1562,
          "velocity": 100
        },
        {
          "pitch": 66,
          "onset": 147.6562,
          "duration": 0.1562,
          "velocity": 100
        },
        {
          "pitch": 66,
          "onset": 147.6562,
          "duration": 0.1562,
          "velocity": 100
        },
        {
          "pitch": 64,
          "onset": 147.8438,
          "duration": 0.1562,
          "velocity": 100
        },
        {
          "pitch": 67,
          "onset": 147.8438,
          "duration": 0.1562,
          "velocity": 100
        },
        {
          "pitch": 67,
          "onset": 148.0,
          "duration": 0.125,
          "velocity": 100
        },
        {
          "pitch": 69,
          "onset": 148.0,
          "duration": 2.1562,
          "velocity": 100
        },
        {
          "pitch": 66,
          "onset": 148.125,
          "duration": 0.125,
          "velocity": 100
        },
        {
          "pitch": 64,
          "onset": 148.25,
          "duration": 0.25,
          "velocity": 100
        },
        {
          "pitch": 62,
          "onset": 148.5,
          "duration": 0.125,
          "velocity": 100
        },
        {
          "pitch": 61,
          "onset": 148.625,
          "duration": 0.375,
          "velocity": 100
        },
        {
          "pitch": 64,
          "onset": 149.0,
          "duration": 0.125,
          "velocity": 100
        },
        {
          "pitch": 62,
          "onset": 149.125,
          "duration": 0.375,
          "velocity": 100
        },
        {
          "pitch": 66,
          "onset": 149.5,
          "duration": 0.125,
          "velocity": 100
        },
        {
          "pitch": 64,
          "onset": 149.625,
          "duration": 0.375,
          "velocity": 100
        },
        {
          "pitch": 67,
          "onset": 150.0,
          "duration": 0.125,
          "velocity": 100
        },
        {
          "pitch": 66,
          "onset": 150.125,
          "duration": 0.375,
          "velocity": 100
        },
        {
          "pitch": 71,
          "onset": 150.1562,
          "duration": 0.1562,
          "velocity": 100
        },
        {
          "pitch": 72,
          "onset": 150.3438,
          "duration": 0.1562,
          "velocity": 100
        },
        {
          "pitch": 66,
          "onset": 150.5,
          "duration": 0.1562,
          "velocity": 100
        },
        {
          "pitch": 72,
          "onset": 150.5,
          "duration": 0.1562,
          "velocity": 100
        },
        {
          "pitch": 67,
          "onset": 150.6562,
          "duration": 0.1562,
          "velocity": 100
        },
        {
          "pitch": 71,
          "onset": 150.6562,
          "duration": 0.1562,
          "velocity": 100
        },
        {
          "pitch": 69,
          "onset": 150.8438,
          "duration": 0.1562,
          "velocity": 100
        },
        {
          "pitch": 69,
          "onset": 150.8438,
          "duration": 0.1562,
          "velocity": 100
        },
        {
          "pitch": 69,
          "onset": 151.0,
          "duration": 0.125,
          "velocity": 100
        },
        {
          "pitch": 71,
          "onset": 151.0,
          "duration": 2.1562,
          "velocity": 100
        },
        {
          "pitch": 67,
          "onset": 151.125,
          "duration": 0.125,
          "velocity": 100
        },
        {
          "pitch": 66,
          "onset": 151.25,
          "duration": 0.25,
          "velocity": 100
        },
        {
          "pitch": 64,
          "onset": 151.5,
          "duration": 0.125,
          "velocity": 100
        },
        {
          "pitch": 63,
          "onset": 151.625,
          "duration": 0.375,
          "velocity": 100
        },
        {
          "pitch": 66,
          "onset": 152.0,
          "duration": 0.125,
          "velocity": 100
        },
        {
          "pitch": 64,
          "onset": 152.125,
          "duration": 0.375,
          "velocity": 100
        },
        {
          "pitch": 67,
          "onset": 152.5,
          "duration": 0.125,
          "velocity": 100
        },
        {
          "pitch": 66,
          "onset": 152.625,
          "duration": 0.375,
          "velocity": 100
        },
        {
          "pitch": 69,
          "onset": 153.0,
          "duration": 0.125,
          "velocity": 100
        },
        {
          "pitch": 67,
          "onset": 153.125,
          "duration": 0.375,
          "velocity": 100
        },
        {
          "pitch": 73,
          "onset": 153.1562,
          "duration": 0.1562,
          "velocity": 100
        },
        {
          "pitch": 74,
          "onset": 153.3438,
          "duration": 0.1562,
          "velocity": 100
        },
        {
          "pitch": 66,
          "onset": 153.5,
          "duration": 0.1562,
          "velocity": 100
        },
        {
          "pitch": 74,
          "onset": 153.5,
          "duration": 0.1562,
          "velocity": 100
        },
        {
          "pitch": 64,
          "onset": 153.6562,
          "duration": 0.1562,
          "velocity": 100
        },
        {
          "pitch": 73,
          "onset": 153.6562,
          "duration": 0.1562,
          "velocity": 100
        },
        {
          "pitch": 62,
          "onset": 153.8438,
          "duration": 0.1562,
          "velocity": 100
        },
        {
          "pitch": 71,
          "onset": 153.8438,
          "duration": 0.1562,
          "velocity": 100
        },
        {
          "pitch": 62,
          "onset": 154.0,
          "duration": 0.125,
          "velocity": 100
        },
        {
          "pitch": 71,
          "onset": 154.0,
          "duration": 0.125,
          "velocity": 100
        },
        {
          "pitch": 61,
          "onset": 154.125,
          "duration": 0.375,
          "velocity": 100
        },
        {
          "pitch": 70,
          "onset": 154.125,
          "duration": 0.375,
          "velocity": 100
        },
        {
          "pitch": 64,
          "onset": 154.5,
          "duration": 0.125,
          "velocity": 100
        },
        {
          "pitch": 73,
          "onset": 154.5,
          "duration": 0.125,
          "velocity": 100
        },
        {
          "pitch": 62,
          "onset": 154.625,
          "duration": 0.375,
          "velocity": 100
        },
        {
          "pitch": 71,
          "onset": 154.625,
          "duration": 0.375,
          "velocity": 100
        },
        {
          "pitch": 62,
          "onset": 155.0,
          "duration": 0.1562,
          "velocity": 100
        },
        {
          "pitch": 64,
          "onset": 155.0,
          "duration": 1.0,
          "velocity": 100
        },
        {
          "pitch": 71,
          "onset": 155.0,
          "duration": 0.5,
          "velocity": 100
        },
        {
          "pitch": 61,
          "onset": 155.1562,
          "duration": 0.1562,
          "velocity": 100
        },
        {
          "pitch": 59,
          "onset": 155.3438,
          "duration": 0.1562,
          "velocity": 100
        },
        {
          "pitch": 59,
          "onset": 155.5,
          "duration": 0.1562,
          "velocity": 100
        },
        {
          "pitch": 76,
          "onset": 155.5,
          "duration": 0.6562,
          "velocity": 100
        },
        {
          "pitch": 61,
          "onset": 155.6562,
          "duration": 0.1562,
          "velocity": 100
        },
        {
          "pitch": 61,
          "onset": 155.8438,
          "duration": 0.1562,
          "velocity": 100
        },
        {
          "pitch": 61,
          "onset": 156.0,
          "duration": 1.0,
          "velocity": 100
        },
        {
          "pitch": 66,
          "onset": 156.0,
          "duration": 1.9688,
          "velocity": 100
        },
        {
          "pitch": 74,
          "onset": 156.1562,
          "duration": 0.1562,
          "velocity": 100
        },
        {
          "pitch": 73,
          "onset": 156.3438,
          "duration": 0.1562,
          "velocity": 100
        },
        {
          "pitch": 73,
          "onset": 156.5,
          "duration": 0.1562,
          "velocity": 100
        },
        {
          "pitch": 74,
          "onset": 156.6562,
          "duration": 0.1562,
          "velocity": 100
        },
        {
          "pitch": 76,
          "onset": 156.8438,
          "duration": 0.1562,
          "velocity": 100
        },
        {
          "pitch": 59,
          "onset": 157.0,
          "duration": 0.1562,
          "velocity": 100
        },
        {
          "pitch": 74,
          "onset": 157.0,
          "duration": 1.5,
          "velocity": 100
        },
        {
          "pitch": 66,
          "onset": 157.1562,
          "duration": 0.1562,
          "velocity": 100
        },
        {
          "pitch": 67,
          "onset": 157.3438,
          "duration": 0.1562,
          "velocity": 100
        },
        {
          "pitch": 69,
          "onset": 157.5,
          "duration": 0.1562,
          "velocity": 100
        },
        {
          "pitch": 67,
          "onset": 157.6562,
          "duration": 0.1562,
          "velocity": 100
        },
        {
          "pitch": 66,
          "onset": 157.8438,
          "duration": 0.1562,
          "velocity": 100
        },
        {
          "pitch": 64,
          "onset": 158.0,
          "duration": 1.0,
          "velocity": 100
        },
        {
          "pitch": 71,
          "onset": 158.0,
          "duration": 0.25,
          "velocity": 100
        },
        {
          "pitch": 76,
          "onset": 158.0,
          "duration": 1.0,
          "velocity": 100
        },
        {
          "pitch": 69,
          "onset": 158.25,
          "duration": 0.5,
          "velocity": 100
        },
        {
          "pitch": 73,
          "onset": 158.5,
          "duration": 0.6562,
          "velocity": 100
        },
        {
          "pitch": 67,
          "onset": 158.75,
          "duration": 0.25,
          "velocity": 100
        },
        {
          "pitch": 62,
          "onset": 159.0,
          "duration": 1.0,
          "velocity": 100
        },
        {
          "pitch": 66,
          "onset": 159.0,
          "duration": 0.5,
          "velocity": 100
        },
        {
          "pitch": 78,
          "onset": 159.0,
          "duration": 1.9688,
          "velocity": 100
        },
        {
          "pitch": 71,
          "onset": 159.1562,
          "duration": 0.1562,
          "velocity": 100
        },
        {
          "pitch": 70,
          "onset": 159.3438,
          "duration": 0.1562,
          "velocity": 100
        },
        {
          "pitch": 71,
          "onset": 159.5,
          "duration": 0.1562,
          "velocity": 100
        },
        {
          "pitch": 73,
          "onset": 159.6562,
          "duration": 0.1562,
          "velocity": 100
        },
        {
          "pitch": 74,
          "onset": 159.8438,
          "duration": 0.1562,
          "velocity": 100
        },
        {
          "pitch": 61,
          "onset": 160.0,
          "duration": 1.9688,
          "velocity": 100
        },
        {
          "pitch": 66,
          "onset": 160.0,
          "duration": 0.5,
          "velocity": 100
        },
        {
          "pitch": 66,
          "onset": 160.1562,
          "duration": 0.1562,
          "velocity": 100
        },
        {
          "pitch": 67,
          "onset": 160.3438,
          "duration": 0.1562,
          "velocity": 100
        },
        {
          "pitch": 69,
          "onset": 160.5,
          "duration": 0.1562,
          "velocity": 100
        },
        {
          "pitch": 67,
          "onset": 160.6562,
          "duration": 0.1562,
          "velocity": 100
        },
        {
          "pitch": 66,
          "onset": 160.8438,
          "duration": 0.1562,
          "velocity": 100
        },
        {
          "pitch": 71,
          "onset": 161.0,
          "duration": 0.5,
          "velocity": 100
        },
        {
          "pitch": 76,
          "onset": 161.0,
          "duration": 1.0,
          "velocity": 100
        },
        {
          "pitch": 64,
          "onset": 161.1562,
          "duration": 0.1562,
          "velocity": 100
        },
        {
          "pitch": 66,
          "onset": 161.3438,
          "duration": 0.1562,
          "velocity": 100
        },
        {
          "pitch": 67,
          "onset": 161.5,
          "duration": 0.1562,
          "velocity": 100
        },
        {
          "pitch": 70,
          "onset": 161.5,
          "duration": 0.5,
          "velocity": 100
        },
        {
          "pitch": 66,
          "onset": 161.6562,
          "duration": 0.1562,
          "velocity": 100
        },
        {
          "pitch": 64,
          "onset": 161.8438,
          "duration": 0.1562,
          "velocity": 100
        },
        {
          "pitch": 59,
          "onset": 162.0,
          "duration": 1.9688,
          "velocity": 100
        },
        {
          "pitch": 66,
          "onset": 162.0,
          "duration": 0.5,
          "velocity": 100
        },
        {
          "pitch": 71,
          "onset": 162.0,
          "duration": 0.1562,
          "velocity": 100
        },
        {
          "pitch": 74,
          "onset": 162.0,
          "duration": 1.0,
          "velocity": 100
        },
        {
          "pitch": 66,
          "onset": 162.1562,
          "duration": 0.1562,
          "velocity": 100
        },
        {
          "pitch": 64,
          "onset": 162.3438,
          "duration": 0.1562,
          "velocity": 100
        },
        {
          "pitch": 62,
          "onset": 162.5,
          "duration": 0.1562,
          "velocity": 100
        },
        {
          "pitch": 64,
          "onset": 162.6562,
          "duration": 0.1562,
          "velocity": 100
        },
        {
          "pitch": 66,
          "onset": 162.8438,
          "duration": 0.1562,
          "velocity": 100
        },
        {
          "pitch": 68,
          "onset": 163.0,
          "duration": 0.25,
          "velocity": 100
        },
        {
          "pitch": 73,
          "onset": 163.0,
          "duration": 1.9688,
          "velocity": 100
        },
        {
          "pitch": 61,
          "onset": 163.25,
          "duration": 0.5,
          "velocity": 100
        },
        {
          "pitch": 67,
          "onset": 163.5,
          "duration": 0.75,
          "velocity": 100
        },
        {
          "pitch": 62,
          "onset": 163.75,
          "duration": 0.25,
          "velocity": 100
        },
        {
          "pitch": 58,
          "onset": 164.0,
          "duration": 1.0,
          "velocity": 100
        },
        {
          "pitch": 64,
          "onset": 164.0,
          "duration": 0.5,
          "velocity": 100
        },
        {
          "pitch": 66,
          "onset": 164.25,
          "duration": 0.5,
          "velocity": 100
        },
        {
          "pitch": 64,
          "onset": 164.75,
          "duration": 0.25,
          "velocity": 100
        },
        {
          "pitch": 59,
          "onset": 165.0,
          "duration": 1.9688,
          "velocity": 100
        },
        {
          "pitch": 62,
          "onset": 165.0,
          "duration": 1.125,
          "velocity": 100
        },
        {
          "pitch": 71,
          "onset": 165.0,
          "duration": 1.9688,
          "velocity": 100
        },
        {
          "pitch": 62,
          "onset": 165.1562,
          "duration": 0.1562,
          "velocity": 100
        },
        {
          "pitch": 64,
          "onset": 165.3438,
          "duration": 0.1562,
          "velocity": 100
        },
        {
          "pitch": 66,
          "onset": 165.5,
          "duration": 0.1562,
          "velocity": 100
        },
        {
          "pitch": 64,
          "onset": 165.6562,
          "duration": 0.1562,
          "velocity": 100
        },
        {
          "pitch": 62,
          "onset": 165.8438,
          "duration": 0.1562,
          "velocity": 100
        },
        {
          "pitch": 67,
          "onset": 166.0,
          "duration": 0.5,
          "velocity": 100
        },
        {
          "pitch": 61,
          "onset": 166.125,
          "duration": 0.375,
          "velocity": 100
        },
        {
          "pitch": 64,
          "onset": 166.5,
          "duration": 0.125,
          "velocity": 100
        },
        {
          "pitch": 64,
          "onset": 166.5,
          "duration": 0.5,
          "velocity": 100
        },
        {
          "pitch": 62,
          "onset": 166.625,
          "duration": 0.375,
          "velocity": 100
        },
        {
          "pitch": 61,
          "onset": 167.0,
          "duration": 0.5,
          "velocity": 100
        },
        {
          "pitch": 64,
          "onset": 167.0,
          "duration": 0.1562,
          "velocity": 100
        },
        {
          "pitch": 70,
          "onset": 167.0,
          "duration": 1.0,
          "velocity": 100
        },
        {
          "pitch": 67,
          "onset": 167.1562,
          "duration": 0.1562,
          "velocity": 100
        },
        {
          "pitch": 66,
          "onset": 167.3438,
          "duration": 0.1562,
          "velocity": 100
        },
        {
          "pitch": 64,
          "onset": 167.5,
          "duration": 0.1562,
          "velocity": 100
        },
        {
          "pitch": 78,
          "onset": 167.5,
          "duration": 0.5,
          "velocity": 100
        },
        {
          "pitch": 62,
          "onset": 167.6562,
          "duration": 0.1562,
          "velocity": 100
        },
        {
          "pitch": 61,
          "onset": 167.8438,
          "duration": 0.1562,
          "velocity": 100
        },
        {
          "pitch": 62,
          "onset": 168.0,
          "duration": 0.5,
          "velocity": 100
        },
        {
          "pitch": 71,
          "onset": 168.0,
          "duration": 1.9688,
          "velocity": 100
        },
        {
          "pitch": 78,
          "onset": 168.0,
          "duration": 0.625,
          "velocity": 100
        },
        {
          "pitch": 64,
          "onset": 168.5,
          "duration": 0.125,
          "velocity": 100
        },
        {
          "pitch": 62,
          "onset": 168.625,
          "duration": 0.375,
          "velocity": 100
        },
        {
          "pitch": 79,
          "onset": 168.625,
          "duration": 0.125,
          "velocity": 100
        },
        {
          "pitch": 78,
          "onset": 168.75,
          "duration": 0.125,
          "velocity": 100
        },
        {
          "pitch": 76,
          "onset": 168.875,
          "duration": 0.125,
          "velocity": 100
        },
        {
          "pitch": 66,
          "onset": 169.0,
          "duration": 0.125,
          "velocity": 100
        },
        {
          "pitch": 74,
          "onset": 169.0,
          "duration": 0.0625,
          "velocity": 100
        },
        {
          "pitch": 76,
          "onset": 169.0625,
          "duration": 0.0625,
          "velocity": 100
        },
        {
          "pitch": 64,
          "onset": 169.125,
          "duration": 0.375,
          "velocity": 100
        },
        {
          "pitch": 74,
          "onset": 169.125,
          "duration": 0.0625,
          "velocity": 100
        },
        {
          "pitch": 76,
          "onset": 169.1875,
          "duration": 0.0625,
          "velocity": 100
        },
        {
          "pitch": 74,
          "onset": 169.25,
          "duration": 0.0625,
          "velocity": 100
        },
        {
          "pitch": 76,
          "onset": 169.3125,
          "duration": 0.0625,
          "velocity": 100
        },
        {
          "pitch": 74,
          "onset": 169.375,
          "duration": 0.0625,
          "velocity": 100
        },
        {
          "pitch": 76,
          "onset": 169.4375,
          "duration": 0.0625,
          "velocity": 100
        },
        {
          "pitch": 67,
          "onset": 169.5,
          "duration": 0.125,
          "velocity": 100
        },
        {
          "pitch": 74,
          "onset": 169.5,
          "duration": 1.0,
          "velocity": 100
        },
        {
          "pitch": 66,
          "onset": 169.625,
          "duration": 0.375,
          "velocity": 100
        },
        {
          "pitch": 69,
          "onset": 170.0,
          "duration": 0.125,
          "velocity": 100
        },
        {
          "pitch": 68,
          "onset": 170.125,
          "duration": 0.375,
          "velocity": 100
        },
        {
          "pitch": 71,
          "onset": 170.5,
          "duration": 0.125,
          "velocity": 100
        },
        {
          "pitch": 73,
          "onset": 170.5,
          "duration": 0.25,
          "velocity": 100
        },
        {
          "pitch": 70,
          "onset": 170.625,
          "duration": 0.375,
          "velocity": 100
        },
        {
          "pitch": 74,
          "onset": 170.75,
          "duration": 0.25,
          "velocity": 100
        },
        {
          "pitch": 71,
          "onset": 171.0,
          "duration": 0.5,
          "velocity": 100
        },
        {
          "pitch": 76,
          "onset": 171.0,
          "duration": 0.125,
          "velocity": 100
        },
        {
          "pitch": 73,
          "onset": 171.125,
          "duration": 0.375,
          "velocity": 100
        },
        {
          "pitch": 71,
          "onset": 171.5,
          "duration": 0.125,
          "velocity": 100
        },
        {
          "pitch": 76,
          "onset": 171.5,
          "duration": 0.6562,
          "velocity": 100
        },
        {
          "pitch": 74,
          "onset": 171.625,
          "duration": 0.375,
          "velocity": 100
        },
        {
          "pitch": 73,
          "onset": 172.0,
          "duration": 0.125,
          "velocity": 100
        },
        {
          "pitch": 71,
          "onset": 172.125,
          "duration": 0.125,
          "velocity": 100
        },
        {
          "pitch": 74,
          "onset": 172.1562,
          "duration": 0.1562,
          "velocity": 100
        },
        {
          "pitch": 70,
          "onset": 172.25,
          "duration": 0.25,
          "velocity": 100
        },
        {
          "pitch": 73,
          "onset": 172.3438,
          "duration": 0.1562,
          "velocity": 100
        },
        {
          "pitch": 73,
          "onset": 172.5,
          "duration": 0.1562,
          "velocity": 100
        },
        {
          "pitch": 79,
          "onset": 172.5,
          "duration": 0.75,
          "velocity": 100
        },
        {
          "pitch": 74,
          "onset": 172.6562,
          "duration": 0.1562,
          "velocity": 100
        },
        {
          "pitch": 76,
          "onset": 172.8438,
          "duration": 0.1562,
          "velocity": 100
        },
        {
          "pitch": 76,
          "onset": 173.0,
          "duration": 0.25,
          "velocity": 100
        },
        {
          "pitch": 74,
          "onset": 173.25,
          "duration": 0.5,
          "velocity": 100
        },
        {
          "pitch": 78,
          "onset": 173.25,
          "duration": 0.25,
          "velocity": 100
        },
        {
          "pitch": 76,
          "onset": 173.5,
          "duration": 0.75,
          "velocity": 100
        },
        {
          "pitch": 73,
          "onset": 173.75,
          "duration": 0.25,
          "velocity": 100
        },
        {
          "pitch": 82,
          "onset": 174.0,
          "duration": 0.5,
          "velocity": 100
        },
        {
          "pitch": 74,
          "onset": 174.25,
          "duration": 0.25,
          "velocity": 100
        },
        {
          "pitch": 73,
          "onset": 174.5,
          "duration": 0.25,
          "velocity": 100
        },
        {
          "pitch": 83,
          "onset": 174.5,
          "duration": 0.6562,
          "velocity": 100
        },
        {
          "pitch": 71,
          "onset": 174.75,
          "duration": 0.25,
          "velocity": 100
        },
        {
          "pitch": 74,
          "onset": 175.0,
          "duration": 1.0,
          "velocity": 100
        },
        {
          "pitch": 81,
          "onset": 175.1562,
          "duration": 0.1562,
          "velocity": 100
        },
        {
          "pitch": 80,
          "onset": 175.3438,
          "duration": 0.1562,
          "velocity": 100
        },
        {
          "pitch": 80,
          "onset": 175.5,
          "duration": 0.1562,
          "velocity": 100
        },
        {
          "pitch": 81,
          "onset": 175.6562,
          "duration": 0.1562,
          "velocity": 100
        },
        {
          "pitch": 83,
          "onset": 175.8438,
          "duration": 0.1562,
          "velocity": 100
        },
        {
          "pitch": 73,
          "onset": 176.0,
          "duration": 0.0625,
          "velocity": 100
        },
        {
          "pitch": 81,
          "onset": 176.0,
          "duration": 0.125,
          "velocity": 100
        },
        {
          "pitch": 74,
          "onset": 176.0625,
          "duration": 0.0625,
          "velocity": 100
        },
        {
          "pitch": 73,
          "onset": 176.125,
          "duration": 0.625,
          "velocity": 100
        },
        {
          "pitch": 80,
          "onset": 176.125,
          "duration": 0.375,
          "velocity": 100
        },
        {
          "pitch": 81,
          "onset": 176.5,
          "duration": 0.6562,
          "velocity": 100
        },
        {
          "pitch": 71,
          "onset": 176.75,
          "duration": 0.125,
          "velocity": 100
        },
        {
          "pitch": 73,
          "onset": 176.875,
          "duration": 0.125,
          "velocity": 100
        },
        {
          "pitch": 71,
          "onset": 177.0,
          "duration": 0.5,
          "velocity": 100
        },
        {
          "pitch": 79,
          "onset": 177.1562,
          "duration": 0.1562,
          "velocity": 100
        },
        {
          "pitch": 78,
          "onset": 177.3438,
          "duration": 0.1562,
          "velocity": 100
        },
        {
          "pitch": 64,
          "onset": 177.5,
          "duration": 0.125,
          "velocity": 100
        },
        {
          "pitch": 78,
          "onset": 177.5,
          "duration": 0.1562,
          "velocity": 100
        },
        {
          "pitch": 63,
          "onset": 177.625,
          "duration": 0.375,
          "velocity": 100
        },
        {
          "pitch": 79,
          "onset": 177.6562,
          "duration": 0.1562,
          "velocity": 100
        },
        {
          "pitch": 81,
          "onset": 177.8438,
          "duration": 0.1562,
          "velocity": 100
        },
        {
          "pitch": 66,
          "onset": 178.0,
          "duration": 0.125,
          "velocity": 100
        },
        {
          "pitch": 71,
          "onset": 178.0,
          "duration": 0.5,
          "velocity": 100
        },
        {
          "pitch": 64,
          "onset": 178.125,
          "duration": 0.375,
          "velocity": 100
        },
        {
          "pitch": 67,
          "onset": 178.5,
          "duration": 0.125,
          "velocity": 100
        },
        {
          "pitch": 76,
          "onset": 178.5,
          "duration": 0.125,
          "velocity": 100
        },
        {
          "pitch": 66,
          "onset": 178.625,
          "duration": 0.375,
          "velocity": 100
        },
        {
          "pitch": 75,
          "onset": 178.625,
          "duration": 0.375,
          "velocity": 100
        },
        {
          "pitch": 69,
          "onset": 179.0,
          "duration": 0.1562,
          "velocity": 100
        },
        {
          "pitch": 75,
          "onset": 179.0,
          "duration": 0.125,
          "velocity": 100
        },
        {
          "pitch": 76,
          "onset": 179.125,
          "duration": 0.375,
          "velocity": 100
        },
        {
          "pitch": 67,
          "onset": 179.1562,
          "duration": 0.1562,
          "velocity": 100
        },
        {
          "pitch": 66,
          "onset": 179.3438,
          "duration": 0.1562,
          "velocity": 100
        },
        {
          "pitch": 66,
          "onset": 179.5,
          "duration": 0.1562,
          "velocity": 100
        },
        {
          "pitch": 81,
          "onset": 179.5,
          "duration": 1.125,
          "velocity": 100
        },
        {
          "pitch": 67,
          "onset": 179.6562,
          "duration": 0.1562,
          "velocity": 100
        },
        {
          "pitch": 69,
          "onset": 179.8438,
          "duration": 0.1562,
          "velocity": 100
        },
        {
          "pitch": 64,
          "onset": 180.0,
          "duration": 0.125,
          "velocity": 100
        },
        {
          "pitch": 63,
          "onset": 180.125,
          "duration": 0.375,
          "velocity": 100
        },
        {
          "pitch": 71,
          "onset": 180.5,
          "duration": 1.0,
          "velocity": 100
        },
        {
          "pitch": 84,
          "onset": 180.625,
          "duration": 0.125,
          "velocity": 100
        },
        {
          "pitch": 83,
          "onset": 180.75,
          "duration": 0.125,
          "velocity": 100
        },
        {
          "pitch": 81,
          "onset": 180.875,
          "duration": 0.125,
          "velocity": 100
        },
        {
          "pitch": 79,
          "onset": 181.0,
          "duration": 0.0625,
          "velocity": 100
        },
        {
          "pitch": 81,
          "onset": 181.0625,
          "duration": 0.0625,
          "velocity": 100
        },
        {
          "pitch": 79,
          "onset": 181.125,
          "duration": 0.0625,
          "velocity": 100
        },
        {
          "pitch": 81,
          "onset": 181.1875,
          "duration": 0.0625,
          "velocity": 100
        },
        {
          "pitch": 79,
          "onset": 181.25,
          "duration": 0.0625,
          "velocity": 100
        },
        {
          "pitch": 81,
          "onset": 181.3125,
          "duration": 0.0625,
          "velocity": 100
        },
        {
          "pitch": 79,
          "onset": 181.375,
          "duration": 0.0625,
          "velocity": 100
        },
        {
          "pitch": 81,
          "onset": 181.4375,
          "duration": 0.0625,
          "velocity": 100
        },
        {
          "pitch": 76,
          "onset": 181.5,
          "duration": 0.5,
          "velocity": 100
        },
        {
          "pitch": 79,
          "onset": 181.5,
          "duration": 1.0,
          "velocity": 100
        },
        {
          "pitch": 75,
          "onset": 182.0,
          "duration": 0.5,
          "velocity": 100
        },
        {
          "pitch": 74,
          "onset": 182.5,
          "duration": 0.5,
          "velocity": 100
        },
        {
          "pitch": 78,
          "onset": 182.5,
          "duration": 0.25,
          "velocity": 100
        },
        {
          "pitch": 79,
          "onset": 182.75,
          "duration": 0.25,
          "velocity": 100
        },
        {
          "pitch": 73,
          "onset": 183.0,
          "duration": 0.5,
          "velocity": 100
        },
        {
          "pitch": 81,
          "onset": 183.0,
          "duration": 0.125,
          "velocity": 100
        },
        {
          "pitch": 78,
          "onset": 183.125,
          "duration": 0.375,
          "velocity": 100
        },
        {
          "pitch": 72,
          "onset": 183.5,
          "duration": 1.0,
          "velocity": 100
        },
        {
          "pitch": 76,
          "onset": 183.5,
          "duration": 0.125,
          "velocity": 100
        },
        {
          "pitch": 79,
          "onset": 183.625,
          "duration": 0.375,
          "velocity": 100
        },
        {
          "pitch": 78,
          "onset": 184.0,
          "duration": 0.125,
          "velocity": 100
        },
        {
          "pitch": 76,
          "onset": 184.125,
          "duration": 0.125,
          "velocity": 100
        },
        {
          "pitch": 75,
          "onset": 184.25,
          "duration": 0.25,
          "velocity": 100
        },
        {
          "pitch": 63,
          "onset": 184.5,
          "duration": 0.5,
          "velocity": 100
        },
        {
          "pitch": 84,
          "onset": 184.5,
          "duration": 0.75,
          "velocity": 100
        },
        {
          "pitch": 64,
          "onset": 185.0,
          "duration": 0.5,
          "velocity": 100
        },
        {
          "pitch": 83,
          "onset": 185.25,
          "duration": 0.25,
          "velocity": 100
        },
        {
          "pitch": 66,
          "onset": 185.5,
          "duration": 0.5,
          "velocity": 100
        },
        {
          "pitch": 81,
          "onset": 185.5,
          "duration": 0.75,
          "velocity": 100
        },
        {
          "pitch": 59,
          "onset": 186.0,
          "duration": 0.5,
          "velocity": 100
        },
        {
          "pitch": 79,
          "onset": 186.25,
          "duration": 0.25,
          "velocity": 100
        },
        {
          "pitch": 64,
          "onset": 186.5,
          "duration": 0.75,
          "velocity": 100
        },
        {
          "pitch": 78,
          "onset": 186.5,
          "duration": 0.25,
          "velocity": 100
        },
        {
          "pitch": 76,
          "onset": 186.75,
          "duration": 0.25,
          "velocity": 100
        },
        {
          "pitch": 79,
          "onset": 187.0,
          "duration": 1.0,
          "velocity": 100
        },
        {
          "pitch": 63,
          "onset": 187.25,
          "duration": 0.25,
          "velocity": 100
        },
        {
          "pitch": 64,
          "onset": 187.5,
          "duration": 0.25,
          "velocity": 100
        },
        {
          "pitch": 72,
          "onset": 187.75,
          "duration": 0.25,
          "velocity": 100
        },
        {
          "pitch": 63,
          "onset": 188.0,
          "duration": 0.5,
          "velocity": 100
        },
        {
          "pitch": 78,
          "onset": 188.0,
          "duration": 0.0625,
          "velocity": 100
        },
        {
          "pitch": 79,
          "onset": 188.0625,
          "duration": 0.0625,
          "velocity": 100
        },
        {
          "pitch": 78,
          "onset": 188.125,
          "duration": 0.625,
          "velocity": 100
        },
        {
          "pitch": 62,
          "onset": 188.5,
          "duration": 0.75,
          "velocity": 100
        },
        {
          "pitch": 76,
          "onset": 188.75,
          "duration": 0.125,
          "velocity": 100
        },
        {
          "pitch": 78,
          "onset": 188.875,
          "duration": 0.125,
          "velocity": 100
        },
        {
          "pitch": 76,
          "onset": 189.0,
          "duration": 0.5,
          "velocity": 100
        },
        {
          "pitch": 61,
          "onset": 189.25,
          "duration": 0.25,
          "velocity": 100
        },
        {
          "pitch": 62,
          "onset": 189.5,
          "duration": 0.25,
          "velocity": 100
        },
        {
          "pitch": 64,
          "onset": 189.5,
          "duration": 0.6562,
          "velocity": 100
        },
        {
          "pitch": 71,
          "onset": 189.75,
          "duration": 0.25,
          "velocity": 100
        },
        {
          "pitch": 61,
          "onset": 190.0,
          "duration": 0.5,
          "velocity": 100
        },
        {
          "pitch": 66,
          "onset": 190.1562,
          "duration": 0.1562,
          "velocity": 100
        },
        {
          "pitch": 67,
          "onset": 190.3438,
          "duration": 0.1562,
          "velocity": 100
        },
        {
          "pitch": 60,
          "onset": 190.5,
          "duration": 0.75,
          "velocity": 100
        },
        {
          "pitch": 69,
          "onset": 190.5,
          "duration": 0.1562,
          "velocity": 100
        },
        {
          "pitch": 71,
          "onset": 190.6562,
          "duration": 0.1562,
          "velocity": 100
        },
        {
          "pitch": 72,
          "onset": 190.8438,
          "duration": 0.1562,
          "velocity": 100
        },
        {
          "pitch": 74,
          "onset": 191.0,
          "duration": 0.5,
          "velocity": 100
        },
        {
          "pitch": 59,
          "onset": 191.25,
          "duration": 0.25,
          "velocity": 100
        },
        {
          "pitch": 60,
          "onset": 191.5,
          "duration": 0.25,
          "velocity": 100
        },
        {
          "pitch": 62,
          "onset": 191.5,
          "duration": 0.75,
          "velocity": 100
        },
        {
          "pitch": 69,
          "onset": 191.75,
          "duration": 0.25,
          "velocity": 100
        },
        {
          "pitch": 59,
          "onset": 192.0,
          "duration": 1.1562,
          "velocity": 100
        },
        {
          "pitch": 59,
          "onset": 192.1562,
          "duration": 0.1562,
          "velocity": 100
        },
        {
          "pitch": 61,
          "onset": 192.3438,
          "duration": 0.1562,
          "velocity": 100
        },
        {
          "pitch": 62,
          "onset": 192.5,
          "duration": 0.1562,
          "velocity": 100
        },
        {
          "pitch": 64,
          "onset": 192.6562,
          "duration": 0.1562,
          "velocity": 100
        },
        {
          "pitch": 66,
          "onset": 192.8438,
          "duration": 0.1562,
          "velocity": 100
        },
        {
          "pitch": 67,
          "onset": 193.0,
          "duration": 0.1562,
          "velocity": 100
        },
        {
          "pitch": 59,
          "onset": 193.1562,
          "duration": 0.1562,
          "velocity": 100
        },
        {
          "pitch": 62,
          "onset": 193.1562,
          "duration": 0.1562,
          "velocity": 100
        },
        {
          "pitch": 61,
          "onset": 193.3438,
          "duration": 0.1562,
          "velocity": 100
        },
        {
          "pitch": 64,
          "onset": 193.3438,
          "duration": 0.1562,
          "velocity": 100
        },
        {
          "pitch": 62,
          "onset": 193.5,
          "duration": 0.1562,
          "velocity": 100
        },
        {
          "pitch": 66,
          "onset": 193.5,
          "duration": 0.1562,
          "velocity": 100
        },
        {
          "pitch": 64,
          "onset": 193.6562,
          "duration": 0.1562,
          "velocity": 100
        },
        {
          "pitch": 67,
          "onset": 193.6562,
          "duration": 0.1562,
          "velocity": 100
        },
        {
          "pitch": 66,
          "onset": 193.8438,
          "duration": 0.1562,
          "velocity": 100
        },
        {
          "pitch": 69,
          "onset": 193.8438,
          "duration": 0.1562,
          "velocity": 100
        },
        {
          "pitch": 67,
          "onset": 194.0,
          "duration": 0.1562,
          "velocity": 100
        },
        {
          "pitch": 71,
          "onset": 194.0,
          "duration": 0.5,
          "velocity": 100
        },
        {
          "pitch": 76,
          "onset": 194.0,
          "duration": 1.0,
          "velocity": 100
        },
        {
          "pitch": 66,
          "onset": 194.1562,
          "duration": 0.1562,
          "velocity": 100
        },
        {
          "pitch": 64,
          "onset": 194.3438,
          "duration": 0.1562,
          "velocity": 100
        },
        {
          "pitch": 64,
          "onset": 194.5,
          "duration": 0.1562,
          "velocity": 100
        },
        {
          "pitch": 69,
          "onset": 194.5,
          "duration": 1.0,
          "velocity": 100
        },
        {
          "pitch": 66,
          "onset": 194.6562,
          "duration": 0.1562,
          "velocity": 100
        },
        {
          "pitch": 67,
          "onset": 194.8438,
          "duration": 0.3438,
          "velocity": 100
        },
        {
          "pitch": 74,
          "onset": 195.0,
          "duration": 1.9688,
          "velocity": 100
        },
        {
          "pitch": 66,
          "onset": 195.1562,
          "duration": 0.1562,
          "velocity": 100
        },
        {
          "pitch": 64,
          "onset": 195.3438,
          "duration": 0.1562,
          "velocity": 100
        },
        {
          "pitch": 62,
          "onset": 195.5,
          "duration": 0.1562,
          "velocity": 100
        },
        {
          "pitch": 69,
          "onset": 195.5,
          "duration": 0.5,
          "velocity": 100
        },
        {
          "pitch": 64,
          "onset": 195.6562,
          "duration": 0.1562,
          "velocity": 100
        },
        {
          "pitch": 66,
          "onset": 195.8438,
          "duration": 0.1562,
          "velocity": 100
        },
        {
          "pitch": 59,
          "onset": 196.0,
          "duration": 0.5,
          "velocity": 100
        },
        {
          "pitch": 62,
          "onset": 196.0,
          "duration": 0.25,
          "velocity": 100
        },
        {
          "pitch": 64,
          "onset": 196.25,
          "duration": 0.5,
          "velocity": 100
        },
        {
          "pitch": 71,
          "onset": 196.5,
          "duration": 0.6562,
          "velocity": 100
        },
        {
          "pitch": 66,
          "onset": 196.75,
          "duration": 0.25,
          "velocity": 100
        },
        {
          "pitch": 64,
          "onset": 197.0,
          "duration": 0.25,
          "velocity": 100
        },
        {
          "pitch": 73,
          "onset": 197.0,
          "duration": 1.0,
          "velocity": 100
        },
        {
          "pitch": 57,
          "onset": 197.1562,
          "duration": 0.1562,
          "velocity": 100
        },
        {
          "pitch": 66,
          "onset": 197.25,
          "duration": 0.5,
          "velocity": 100
        },
        {
          "pitch": 59,
          "onset": 197.3438,
          "duration": 0.1562,
          "velocity": 100
        },
        {
          "pitch": 61,
          "onset": 197.5,
          "duration": 0.1562,
          "velocity": 100
        },
        {
          "pitch": 62,
          "onset": 197.6562,
          "duration": 0.1562,
          "velocity": 100
        },
        {
          "pitch": 67,
          "onset": 197.75,
          "duration": 0.25,
          "velocity": 100
        },
        {
          "pitch": 64,
          "onset": 197.8438,
          "duration": 0.1562,
          "velocity": 100
        },
        {
          "pitch": 62,
          "onset": 198.0,
          "duration": 0.1562,
          "velocity": 100
        },
        {
          "pitch": 66,
          "onset": 198.0,
          "duration": 0.5,
          "velocity": 100
        },
        {
          "pitch": 74,
          "onset": 198.0,
          "duration": 1.9688,
          "velocity": 100
        },
        {
          "pitch": 66,
          "onset": 198.1562,
          "duration": 0.1562,
          "velocity": 100
        },
        {
          "pitch": 64,
          "onset": 198.3438,
          "duration": 0.1562,
          "velocity": 100
        },
        {
          "pitch": 62,
          "onset": 198.5,
          "duration": 0.1562,
          "velocity": 100
        },
        {
          "pitch": 71,
          "onset": 198.5,
          "duration": 0.5,
          "velocity": 100
        },
        {
          "pitch": 61,
          "onset": 198.6562,
          "duration": 0.1562,
          "velocity": 100
        },
        {
          "pitch": 59,
          "onset": 198.8438,
          "duration": 0.1562,
          "velocity": 100
        },
        {
          "pitch": 66,
          "onset": 199.0,
          "duration": 0.25,
          "velocity": 100
        },
        {
          "pitch": 70,
          "onset": 199.0,
          "duration": 0.5,
          "velocity": 100
        },
        {
          "pitch": 54,
          "onset": 199.25,
          "duration": 0.5,
          "velocity": 100
        },
        {
          "pitch": 69,
          "onset": 199.5,
          "duration": 0.5,
          "velocity": 100
        },
        {
          "pitch": 59,
          "onset": 199.75,
          "duration": 0.5,
          "velocity": 100
        },
        {
          "pitch": 64,
          "onset": 200.0,
          "duration": 1.0,
          "velocity": 100
        },
        {
          "pitch": 68,
          "onset": 200.0,
          "duration": 0.25,
          "velocity": 100
        },
        {
          "pitch": 71,
          "onset": 200.0,
          "duration": 1.0,
          "velocity": 100
        },
        {
          "pitch": 52,
          "onset": 200.25,
          "duration": 0.25,
          "velocity": 100
        },
        {
          "pitch": 67,
          "onset": 200.25,
          "duration": 0.5,
          "velocity": 100
        },
        {
          "pitch": 69,
          "onset": 200.75,
          "duration": 0.25,
          "velocity": 100
        },
        {
          "pitch": 62,
          "onset": 201.0,
          "duration": 1.9688,
          "velocity": 100
        },
        {
          "pitch": 71,
          "onset": 201.0,
          "duration": 2.9688,
          "velocity": 100
        },
        {
          "pitch": 71,
          "onset": 201.0,
          "duration": 0.5,
          "velocity": 100
        },
        {
          "pitch": 59,
          "onset": 201.1562,
          "duration": 0.1562,
          "velocity": 100
        },
        {
          "pitch": 57,
          "onset": 201.3438,
          "duration": 0.1562,
          "velocity": 100
        },
        {
          "pitch": 55,
          "onset": 201.5,
          "duration": 0.1562,
          "velocity": 100
        },
        {
          "pitch": 62,
          "onset": 201.5,
          "duration": 0.5,
          "velocity": 100
        },
        {
          "pitch": 57,
          "onset": 201.6562,
          "duration": 0.1562,
          "velocity": 100
        },
        {
          "pitch": 59,
          "onset": 201.8438,
          "duration": 0.1562,
          "velocity": 100
        },
        {
          "pitch": 50,
          "onset": 202.0,
          "duration": 0.5,
          "velocity": 100
        },
        {
          "pitch": 62,
          "onset": 202.1562,
          "duration": 0.1562,
          "velocity": 100
        },
        {
          "pitch": 64,
          "onset": 202.3438,
          "duration": 0.1562,
          "velocity": 100
        },
        {
          "pitch": 66,
          "onset": 202.5,
          "duration": 0.1562,
          "velocity": 100
        },
        {
          "pitch": 64,
          "onset": 202.6562,
          "duration": 0.1562,
          "velocity": 100
        },
        {
          "pitch": 62,
          "onset": 202.8438,
          "duration": 0.1562,
          "velocity": 100
        },
        {
          "pitch": 61,
          "onset": 203.0,
          "duration": 1.0,
          "velocity": 100
        },
        {
          "pitch": 67,
          "onset": 203.0,
          "duration": 0.25,
          "velocity": 100
        },
        {
          "pitch": 66,
          "onset": 203.25,
          "duration": 0.5,
          "velocity": 100
        },
        {
          "pitch": 64,
          "onset": 203.75,
          "duration": 0.25,
          "velocity": 100
        },
        {
          "pitch": 62,
          "onset": 204.0,
          "duration": 1.9688,
          "velocity": 100
        },
        {
          "pitch": 69,
          "onset": 204.0,
          "duration": 0.5,
          "velocity": 100
        },
        {
          "pitch": 69,
          "onset": 204.0,
          "duration": 2.9688,
          "velocity": 100
        },
        {
          "pitch": 57,
          "onset": 204.1562,
          "duration": 0.1562,
          "velocity": 100
        },
        {
          "pitch": 55,
          "onset": 204.3438,
          "duration": 0.1562,
          "velocity": 100
        },
        {
          "pitch": 54,
          "onset": 204.5,
          "duration": 0.1562,
          "velocity": 100
        },
        {
          "pitch": 62,
          "onset": 204.5,
          "duration": 0.5,
          "velocity": 100
        },
        {
          "pitch": 55,
          "onset": 204.6562,
          "duration": 0.1562,
          "velocity": 100
        },
        {
          "pitch": 57,
          "onset": 204.8438,
          "duration": 0.1562,
          "velocity": 100
        },
        {
          "pitch": 50,
          "onset": 205.0,
          "duration": 0.5,
          "velocity": 100
        },
        {
          "pitch": 69,
          "onset": 205.1562,
          "duration": 0.1562,
          "velocity": 100
        },
        {
          "pitch": 71,
          "onset": 205.3438,
          "duration": 0.1562,
          "velocity": 100
        },
        {
          "pitch": 73,
          "onset": 205.5,
          "duration": 0.1562,
          "velocity": 100
        },
        {
          "pitch": 71,
          "onset": 205.6562,
          "duration": 0.1562,
          "velocity": 100
        },
        {
          "pitch": 69,
          "onset": 205.8438,
          "duration": 0.1562,
          "velocity": 100
        },
        {
          "pitch": 59,
          "onset": 206.0,
          "duration": 1.0,
          "velocity": 100
        },
        {
          "pitch": 78,
          "onset": 206.0,
          "duration": 0.25,
          "velocity": 100
        },
        {
          "pitch": 76,
          "onset": 206.25,
          "duration": 0.5,
          "velocity": 100
        },
        {
          "pitch": 75,
          "onset": 206.75,
          "duration": 0.25,
          "velocity": 100
        },
        {
          "pitch": 59,
          "onset": 207.0,
          "duration": 2.9688,
          "velocity": 100
        },
        {
          "pitch": 67,
          "onset": 207.0,
          "duration": 1.9688,
          "velocity": 100
        },
        {
          "pitch": 76,
          "onset": 207.0,
          "duration": 1.0,
          "velocity": 100
        },
        {
          "pitch": 64,
          "onset": 207.1562,
          "duration": 0.1562,
          "velocity": 100
        },
        {
          "pitch": 66,
          "onset": 207.3438,
          "duration": 0.1562,
          "velocity": 100
        },
        {
          "pitch": 67,
          "onset": 207.5,
          "duration": 0.1562,
          "velocity": 100
        },
        {
          "pitch": 66,
          "onset": 207.6562,
          "duration": 0.1562,
          "velocity": 100
        },
        {
          "pitch": 64,
          "onset": 207.8438,
          "duration": 0.1562,
          "velocity": 100
        },
        {
          "pitch": 71,
          "onset": 208.0,
          "duration": 0.25,
          "velocity": 100
        },
        {
          "pitch": 71,
          "onset": 208.1562,
          "duration": 0.1562,
          "velocity": 100
        },
        {
          "pitch": 64,
          "onset": 208.25,
          "duration": 0.5,
          "velocity": 100
        },
        {
          "pitch": 69,
          "onset": 208.3438,
          "duration": 0.1562,
          "velocity": 100
        },
        {
          "pitch": 67,
          "onset": 208.5,
          "duration": 0.1562,
          "velocity": 100
        },
        {
          "pitch": 69,
          "onset": 208.6562,
          "duration": 0.1562,
          "velocity": 100
        },
        {
          "pitch": 66,
          "onset": 208.75,
          "duration": 0.25,
          "velocity": 100
        },
        {
          "pitch": 71,
          "onset": 208.8438,
          "duration": 0.1562,
          "velocity": 100
        },
        {
          "pitch": 64,
          "onset": 209.0,
          "duration": 0.25,
          "velocity": 100
        },
        {
          "pitch": 67,
          "onset": 209.0,
          "duration": 2.1562,
          "velocity": 100
        },
        {
          "pitch": 76,
          "onset": 209.25,
          "duration": 0.5,
          "velocity": 100
        },
        {
          "pitch": 74,
          "onset": 209.75,
          "duration": 0.25,
          "velocity": 100
        },
        {
          "pitch": 57,
          "onset": 210.0,
          "duration": 2.9688,
          "velocity": 100
        },
        {
          "pitch": 76,
          "onset": 210.0,
          "duration": 0.1562,
          "velocity": 100
        },
        {
          "pitch": 74,
          "onset": 210.1562,
          "duration": 0.1562,
          "velocity": 100
        },
        {
          "pitch": 72,
          "onset": 210.3438,
          "duration": 0.1562,
          "velocity": 100
        },
        {
          "pitch": 72,
          "onset": 210.5,
          "duration": 0.1562,
          "velocity": 100
        },
        {
          "pitch": 74,
          "onset": 210.6562,
          "duration": 0.1562,
          "velocity": 100
        },
        {
          "pitch": 76,
          "onset": 210.8438,
          "duration": 0.1562,
          "velocity": 100
        },
        {
          "pitch": 69,
          "onset": 211.0,
          "duration": 1.1562,
          "velocity": 100
        },
        {
          "pitch": 66,
          "onset": 211.1562,
          "duration": 0.1562,
          "velocity": 100
        },
        {
          "pitch": 64,
          "onset": 211.3438,
          "duration": 0.1562,
          "velocity": 100
        },
        {
          "pitch": 64,
          "onset": 211.5,
          "duration": 0.1562,
          "velocity": 100
        },
        {
          "pitch": 66,
          "onset": 211.6562,
          "duration": 0.1562,
          "velocity": 100
        },
        {
          "pitch": 67,
          "onset": 211.8438,
          "duration": 0.1562,
          "velocity": 100
        },
        {
          "pitch": 66,
          "onset": 212.0,
          "duration": 0.0625,
          "velocity": 100
        },
        {
          "pitch": 67,
          "onset": 212.0625,
          "duration": 0.0625,
          "velocity": 100
        },
        {
          "pitch": 66,
          "onset": 212.125,
          "duration": 0.0625,
          "velocity": 100
        },
        {
          "pitch": 81,
          "onset": 212.1562,
          "duration": 0.1562,
          "velocity": 100
        },
        {
          "pitch": 67,
          "onset": 212.1875,
          "duration": 0.0625,
          "velocity": 100
        },
        {
          "pitch": 66,
          "onset": 212.25,
          "duration": 0.5,
          "velocity": 100
        },
        {
          "pitch": 79,
          "onset": 212.3438,
          "duration": 0.1562,
          "velocity": 100
        },
        {
          "pitch": 78,
          "onset": 212.5,
          "duration": 0.1562,
          "velocity": 100
        },
        {
          "pitch": 76,
          "onset": 212.6562,
          "duration": 0.1562,
          "velocity": 100
        },
        {
          "pitch": 67,
          "onset": 212.75,
          "duration": 0.25,
          "velocity": 100
        },
        {
          "pitch": 74,
          "onset": 212.8438,
          "duration": 0.1562,
          "velocity": 100
        },
        {
          "pitch": 55,
          "onset": 213.0,
          "duration": 1.9688,
          "velocity": 100
        },
        {
          "pitch": 67,
          "onset": 213.0,
          "duration": 1.0,
          "velocity": 100
        },
        {
          "pitch": 72,
          "onset": 213.0,
          "duration": 0.125,
          "velocity": 100
        },
        {
          "pitch": 71,
          "onset": 213.125,
          "duration": 0.375,
          "velocity": 100
        },
        {
          "pitch": 69,
          "onset": 213.5,
          "duration": 0.125,
          "velocity": 100
        },
        {
          "pitch": 67,
          "onset": 213.625,
          "duration": 0.375,
          "velocity": 100
        },
        {
          "pitch": 65,
          "onset": 214.0,
          "duration": 0.125,
          "velocity": 100
        },
        {
          "pitch": 64,
          "onset": 214.125,
          "duration": 0.375,
          "velocity": 100
        },
        {
          "pitch": 62,
          "onset": 214.5,
          "duration": 0.125,
          "velocity": 100
        },
        {
          "pitch": 71,
          "onset": 214.5,
          "duration": 0.125,
          "velocity": 100
        },
        {
          "pitch": 61,
          "onset": 214.625,
          "duration": 0.375,
          "velocity": 100
        },
        {
          "pitch": 69,
          "onset": 214.625,
          "duration": 0.375,
          "velocity": 100
        },
        {
          "pitch": 64,
          "onset": 215.0,
          "duration": 0.125,
          "velocity": 100
        },
        {
          "pitch": 73,
          "onset": 215.0,
          "duration": 0.125,
          "velocity": 100
        },
        {
          "pitch": 62,
          "onset": 215.125,
          "duration": 0.375,
          "velocity": 100
        },
        {
          "pitch": 71,
          "onset": 215.125,
          "duration": 0.375,
          "velocity": 100
        },
        {
          "pitch": 65,
          "onset": 215.5,
          "duration": 0.125,
          "velocity": 100
        },
        {
          "pitch": 74,
          "onset": 215.5,
          "duration": 0.125,
          "velocity": 100
        },
        {
          "pitch": 64,
          "onset": 215.625,
          "duration": 0.375,
          "velocity": 100
        },
        {
          "pitch": 73,
          "onset": 215.625,
          "duration": 0.375,
          "velocity": 100
        },
        {
          "pitch": 65,
          "onset": 216.0,
          "duration": 0.125,
          "velocity": 100
        },
        {
          "pitch": 74,
          "onset": 216.0,
          "duration": 0.125,
          "velocity": 100
        },
        {
          "pitch": 65,
          "onset": 216.125,
          "duration": 0.375,
          "velocity": 100
        },
        {
          "pitch": 69,
          "onset": 216.125,
          "duration": 0.125,
          "velocity": 100
        },
        {
          "pitch": 74,
          "onset": 216.25,
          "duration": 0.25,
          "velocity": 100
        },
        {
          "pitch": 64,
          "onset": 216.5,
          "duration": 0.125,
          "velocity": 100
        },
        {
          "pitch": 62,
          "onset": 216.625,
          "duration": 0.375,
          "velocity": 100
        },
        {
          "pitch": 60,
          "onset": 217.0,
          "duration": 0.125,
          "velocity": 100
        },
        {
          "pitch": 59,
          "onset": 217.125,
          "duration": 0.375,
          "velocity": 100
        },
        {
          "pitch": 57,
          "onset": 217.5,
          "duration": 0.125,
          "velocity": 100
        },
        {
          "pitch": 78,
          "onset": 217.5,
          "duration": 0.125,
          "velocity": 100
        },
        {
          "pitch": 56,
          "onset": 217.625,
          "duration": 0.375,
          "velocity": 100
        },
        {
          "pitch": 76,
          "onset": 217.625,
          "duration": 0.375,
          "velocity": 100
        },
        {
          "pitch": 59,
          "onset": 218.0,
          "duration": 0.125,
          "velocity": 100
        },
        {
          "pitch": 80,
          "onset": 218.0,
          "duration": 0.125,
          "velocity": 100
        },
        {
          "pitch": 57,
          "onset": 218.125,
          "duration": 0.375,
          "velocity": 100
        },
        {
          "pitch": 78,
          "onset": 218.125,
          "duration": 0.375,
          "velocity": 100
        },
        {
          "pitch": 60,
          "onset": 218.5,
          "duration": 0.125,
          "velocity": 100
        },
        {
          "pitch": 81,
          "onset": 218.5,
          "duration": 0.125,
          "velocity": 100
        },
        {
          "pitch": 59,
          "onset": 218.625,
          "duration": 0.375,
          "velocity": 100
        },
        {
          "pitch": 80,
          "onset": 218.625,
          "duration": 0.375,
          "velocity": 100
        },
        {
          "pitch": 60,
          "onset": 219.0,
          "duration": 0.125,
          "velocity": 100
        },
        {
          "pitch": 81,
          "onset": 219.0,
          "duration": 0.125,
          "velocity": 100
        },
        {
          "pitch": 64,
          "onset": 219.125,
          "duration": 0.125,
          "velocity": 100
        },
        {
          "pitch": 72,
          "onset": 219.125,
          "duration": 0.375,
          "velocity": 100
        },
        {
          "pitch": 69,
          "onset": 219.25,
          "duration": 0.25,
          "velocity": 100
        },
        {
          "pitch": 71,
          "onset": 219.5,
          "duration": 0.125,
          "velocity": 100
        },
        {
          "pitch": 69,
          "onset": 219.625,
          "duration": 0.375,
          "velocity": 100
        },
        {
          "pitch": 67,
          "onset": 220.0,
          "duration": 0.125,
          "velocity": 100
        },
        {
          "pitch": 66,
          "onset": 220.125,
          "duration": 0.375,
          "velocity": 100
        },
        {
          "pitch": 64,
          "onset": 220.5,
          "duration": 0.125,
          "velocity": 100
        },
        {
          "pitch": 73,
          "onset": 220.5,
          "duration": 0.125,
          "velocity": 100
        },
        {
          "pitch": 63,
          "onset": 220.625,
          "duration": 0.375,
          "velocity": 100
        },
        {
          "pitch": 71,
          "onset": 220.625,
          "duration": 0.375,
          "velocity": 100
        },
        {
          "pitch": 66,
          "onset": 221.0,
          "duration": 0.125,
          "velocity": 100
        },
        {
          "pitch": 75,
          "onset": 221.0,
          "duration": 0.125,
          "velocity": 100
        },
        {
          "pitch": 64,
          "onset": 221.125,
          "duration": 0.375,
          "velocity": 100
        },
        {
          "pitch": 73,
          "onset": 221.125,
          "duration": 0.375,
          "velocity": 100
        },
        {
          "pitch": 67,
          "onset": 221.5,
          "duration": 0.125,
          "velocity": 100
        },
        {
          "pitch": 76,
          "onset": 221.5,
          "duration": 0.125,
          "velocity": 100
        },
        {
          "pitch": 66,
          "onset": 221.625,
          "duration": 0.375,
          "velocity": 100
        },
        {
          "pitch": 75,
          "onset": 221.625,
          "duration": 0.375,
          "velocity": 100
        },
        {
          "pitch": 67,
          "onset": 222.0,
          "duration": 0.125,
          "velocity": 100
        },
        {
          "pitch": 76,
          "onset": 222.0,
          "duration": 0.125,
          "velocity": 100
        },
        {
          "pitch": 67,
          "onset": 222.125,
          "duration": 0.375,
          "velocity": 100
        },
        {
          "pitch": 71,
          "onset": 222.125,
          "duration": 0.125,
          "velocity": 100
        },
        {
          "pitch": 76,
          "onset": 222.25,
          "duration": 0.25,
          "velocity": 100
        },
        {
          "pitch": 66,
          "onset": 222.5,
          "duration": 0.125,
          "velocity": 100
        },
        {
          "pitch": 64,
          "onset": 222.625,
          "duration": 0.375,
          "velocity": 100
        },
        {
          "pitch": 62,
          "onset": 223.0,
          "duration": 0.125,
          "velocity": 100
        },
        {
          "pitch": 61,
          "onset": 223.125,
          "duration": 0.375,
          "velocity": 100
        },
        {
          "pitch": 59,
          "onset": 223.5,
          "duration": 0.125,
          "velocity": 100
        },
        {
          "pitch": 80,
          "onset": 223.5,
          "duration": 0.125,
          "velocity": 100
        },
        {
          "pitch": 58,
          "onset": 223.625,
          "duration": 0.375,
          "velocity": 100
        },
        {
          "pitch": 78,
          "onset": 223.625,
          "duration": 0.375,
          "velocity": 100
        },
        {
          "pitch": 61,
          "onset": 224.0,
          "duration": 0.125,
          "velocity": 100
        },
        {
          "pitch": 81,
          "onset": 224.0,
          "duration": 0.125,
          "velocity": 100
        },
        {
          "pitch": 59,
          "onset": 224.125,
          "duration": 0.375,
          "velocity": 100
        },
        {
          "pitch": 80,
          "onset": 224.125,
          "duration": 0.375,
          "velocity": 100
        },
        {
          "pitch": 62,
          "onset": 224.5,
          "duration": 0.125,
          "velocity": 100
        },
        {
          "pitch": 83,
          "onset": 224.5,
          "duration": 0.125,
          "velocity": 100
        },
        {
          "pitch": 61,
          "onset": 224.625,
          "duration": 0.375,
          "velocity": 100
        },
        {
          "pitch": 82,
          "onset": 224.625,
          "duration": 0.375,
          "velocity": 100
        },
        {
          "pitch": 62,
          "onset": 225.0,
          "duration": 0.5,
          "velocity": 100
        },
        {
          "pitch": 83,
          "onset": 225.0,
          "duration": 0.1562,
          "velocity": 100
        },
        {
          "pitch": 81,
          "onset": 225.1562,
          "duration": 0.1562,
          "velocity": 100
        },
        {
          "pitch": 79,
          "onset": 225.3438,
          "duration": 0.1562,
          "velocity": 100
        },
        {
          "pitch": 78,
          "onset": 225.5,
          "duration": 0.1562,
          "velocity": 100
        },
        {
          "pitch": 76,
          "onset": 225.6562,
          "duration": 0.1562,
          "velocity": 100
        },
        {
          "pitch": 74,
          "onset": 225.8438,
          "duration": 0.1562,
          "velocity": 100
        },
        {
          "pitch": 73,
          "onset": 226.0,
          "duration": 0.25,
          "velocity": 100
        },
        {
          "pitch": 62,
          "onset": 226.1562,
          "duration": 0.1562,
          "velocity": 100
        },
        {
          "pitch": 71,
          "onset": 226.25,
          "duration": 0.5,
          "velocity": 100
        },
        {
          "pitch": 64,
          "onset": 226.3438,
          "duration": 0.1562,
          "velocity": 100
        },
        {
          "pitch": 66,
          "onset": 226.5,
          "duration": 0.1562,
          "velocity": 100
        },
        {
          "pitch": 68,
          "onset": 226.6562,
          "duration": 0.1562,
          "velocity": 100
        },
        {
          "pitch": 77,
          "onset": 226.75,
          "duration": 0.5,
          "velocity": 100
        },
        {
          "pitch": 69,
          "onset": 226.8438,
          "duration": 0.1562,
          "velocity": 100
        },
        {
          "pitch": 71,
          "onset": 227.0,
          "duration": 0.5,
          "velocity": 100
        },
        {
          "pitch": 76,
          "onset": 227.25,
          "duration": 0.5,
          "velocity": 100
        },
        {
          "pitch": 68,
          "onset": 227.5,
          "duration": 0.0625,
          "velocity": 100
        },
        {
          "pitch": 69,
          "onset": 227.5625,
          "duration": 0.0625,
          "velocity": 100
        },
        {
          "pitch": 68,
          "onset": 227.625,
          "duration": 0.375,
          "velocity": 100
        },
        {
          "pitch": 74,
          "onset": 227.75,
          "duration": 0.25,
          "velocity": 100
        },
        {
          "pitch": 69,
          "onset": 228.0,
          "duration": 0.1562,
          "velocity": 100
        },
        {
          "pitch": 72,
          "onset": 228.0,
          "duration": 0.125,
          "velocity": 100
        },
        {
          "pitch": 71,
          "onset": 228.125,
          "duration": 0.125,
          "velocity": 100
        },
        {
          "pitch": 67,
          "onset": 228.1562,
          "duration": 0.1562,
          "velocity": 100
        },
        {
          "pitch": 69,
          "onset": 228.25,
          "duration": 0.25,
          "velocity": 100
        },
        {
          "pitch": 65,
          "onset": 228.3438,
          "duration": 0.1562,
          "velocity": 100
        },
        {
          "pitch": 64,
          "onset": 228.5,
          "duration": 0.1562,
          "velocity": 100
        },
        {
          "pitch": 62,
          "onset": 228.6562,
          "duration": 0.1562,
          "velocity": 100
        },
        {
          "pitch": 60,
          "onset": 228.8438,
          "duration": 0.1562,
          "velocity": 100
        },
        {
          "pitch": 59,
          "onset": 229.0,
          "duration": 0.25,
          "velocity": 100
        },
        {
          "pitch": 72,
          "onset": 229.1562,
          "duration": 0.1562,
          "velocity": 100
        },
        {
          "pitch": 57,
          "onset": 229.25,
          "duration": 0.5,
          "velocity": 100
        },
        {
          "pitch": 74,
          "onset": 229.3438,
          "duration": 0.1562,
          "velocity": 100
        },
        {
          "pitch": 76,
          "onset": 229.5,
          "duration": 0.1562,
          "velocity": 100
        },
        {
          "pitch": 78,
          "onset": 229.6562,
          "duration": 0.1562,
          "velocity": 100
        },
        {
          "pitch": 64,
          "onset": 229.75,
          "duration": 0.5,
          "velocity": 100
        },
        {
          "pitch": 79,
          "onset": 229.8438,
          "duration": 0.1562,
          "velocity": 100
        },
        {
          "pitch": 81,
          "onset": 230.0,
          "duration": 0.5,
          "velocity": 100
        },
        {
          "pitch": 62,
          "onset": 230.25,
          "duration": 0.5,
          "velocity": 100
        },
        {
          "pitch": 78,
          "onset": 230.5,
          "duration": 0.0625,
          "velocity": 100
        },
        {
          "pitch": 79,
          "onset": 230.5625,
          "duration": 0.0625,
          "velocity": 100
        },
        {
          "pitch": 78,
          "onset": 230.625,
          "duration": 0.375,
          "velocity": 100
        },
        {
          "pitch": 61,
          "onset": 230.75,
          "duration": 0.25,
          "velocity": 100
        },
        {
          "pitch": 59,
          "onset": 231.0,
          "duration": 0.125,
          "velocity": 100
        },
        {
          "pitch": 79,
          "onset": 231.0,
          "duration": 0.5,
          "velocity": 100
        },
        {
          "pitch": 57,
          "onset": 231.125,
          "duration": 0.125,
          "velocity": 100
        },
        {
          "pitch": 55,
          "onset": 231.25,
          "duration": 0.25,
          "velocity": 100
        },
        {
          "pitch": 67,
          "onset": 231.5,
          "duration": 1.25,
          "velocity": 100
        },
        {
          "pitch": 76,
          "onset": 231.5,
          "duration": 0.125,
          "velocity": 100
        },
        {
          "pitch": 75,
          "onset": 231.625,
          "duration": 0.375,
          "velocity": 100
        },
        {
          "pitch": 75,
          "onset": 232.0,
          "duration": 0.125,
          "velocity": 100
        },
        {
          "pitch": 76,
          "onset": 232.125,
          "duration": 0.375,
          "velocity": 100
        },
        {
          "pitch": 69,
          "onset": 232.5,
          "duration": 0.6562,
          "velocity": 100
        },
        {
          "pitch": 66,
          "onset": 232.75,
          "duration": 0.125,
          "velocity": 100
        },
        {
          "pitch": 64,
          "onset": 232.875,
          "duration": 0.125,
          "velocity": 100
        },
        {
          "pitch": 59,
          "onset": 233.0,
          "duration": 1.0,
          "velocity": 100
        },
        {
          "pitch": 66,
          "onset": 233.0,
          "duration": 1.0,
          "velocity": 100
        },
        {
          "pitch": 71,
          "onset": 233.1562,
          "duration": 0.1562,
          "velocity": 100
        },
        {
          "pitch": 72,
          "onset": 233.3438,
          "duration": 0.1562,
          "velocity": 100
        },
        {
          "pitch": 72,
          "onset": 233.5,
          "duration": 0.1562,
          "velocity": 100
        },
        {
          "pitch": 71,
          "onset": 233.6562,
          "duration": 0.1562,
          "velocity": 100
        },
        {
          "pitch": 69,
          "onset": 233.8438,
          "duration": 0.1562,
          "velocity": 100
        },
        {
          "pitch": 60,
          "onset": 234.0,
          "duration": 1.9688,
          "velocity": 100
        },
        {
          "pitch": 64,
          "onset": 234.0,
          "duration": 0.1562,
          "velocity": 100
        },
        {
          "pitch": 67,
          "onset": 234.0,
          "duration": 0.5,
          "velocity": 100
        },
        {
          "pitch": 67,
          "onset": 234.1562,
          "duration": 0.1562,
          "velocity": 100
        },
        {
          "pitch": 66,
          "onset": 234.3438,
          "duration": 0.1562,
          "velocity": 100
        },
        {
          "pitch": 64,
          "onset": 234.5,
          "duration": 0.1562,
          "velocity": 100
        },
        {
          "pitch": 76,
          "onset": 234.5,
          "duration": 0.75,
          "velocity": 100
        },
        {
          "pitch": 63,
          "onset": 234.6562,
          "duration": 0.1562,
          "velocity": 100
        },
        {
          "pitch": 64,
          "onset": 234.8438,
          "duration": 0.1562,
          "velocity": 100
        },
        {
          "pitch": 69,
          "onset": 235.0,
          "duration": 1.0,
          "velocity": 100
        },
        {
          "pitch": 75,
          "onset": 235.25,
          "duration": 0.5,
          "velocity": 100
        },
        {
          "pitch": 76,
          "onset": 235.75,
          "duration": 0.25,
          "velocity": 100
        },
        {
          "pitch": 59,
          "onset": 236.0,
          "duration": 0.75,
          "velocity": 100
        },
        {
          "pitch": 78,
          "onset": 236.0,
          "duration": 0.1562,
          "velocity": 100
        },
        {
          "pitch": 76,
          "onset": 236.1562,
          "duration": 0.1562,
          "velocity": 100
        },
        {
          "pitch": 67,
          "onset": 236.25,
          "duration": 0.25,
          "velocity": 100
        },
        {
          "pitch": 75,
          "onset": 236.3438,
          "duration": 0.3438,
          "velocity": 100
        },
        {
          "pitch": 66,
          "onset": 236.5,
          "duration": 1.0,
          "velocity": 100
        },
        {
          "pitch": 73,
          "onset": 236.6562,
          "duration": 0.1562,
          "velocity": 100
        },
        {
          "pitch": 57,
          "onset": 236.75,
          "duration": 0.25,
          "velocity": 100
        },
        {
          "pitch": 71,
          "onset": 236.8438,
          "duration": 0.3438,
          "velocity": 100
        },
        {
          "pitch": 55,
          "onset": 237.0,
          "duration": 1.0,
          "velocity": 100
        },
        {
          "pitch": 69,
          "onset": 237.1562,
          "duration": 0.1562,
          "velocity": 100
        },
        {
          "pitch": 67,
          "onset": 237.3438,
          "duration": 0.3438,
          "velocity": 100
        },
        {
          "pitch": 64,
          "onset": 237.5,
          "duration": 0.5,
          "velocity": 100
        },
        {
          "pitch": 66,
          "onset": 237.6562,
          "duration": 0.1562,
          "velocity": 100
        },
        {
          "pitch": 64,
          "onset": 237.8438,
          "duration": 0.1562,
          "velocity": 100
        },
        {
          "pitch": 57,
          "onset": 238.0,
          "duration": 1.9688,
          "velocity": 100
        },
        {
          "pitch": 63,
          "onset": 238.0,
          "duration": 0.5,
          "velocity": 100
        },
        {
          "pitch": 72,
          "onset": 238.0,
          "duration": 0.1562,
          "velocity": 100
        },
        {
          "pitch": 71,
          "onset": 238.1562,
          "duration": 0.1562,
          "velocity": 100
        },
        {
          "pitch": 69,
          "onset": 238.3438,
          "duration": 0.3438,
          "velocity": 100
        },
        {
          "pitch": 64,
          "onset": 238.5,
          "duration": 0.5,
          "velocity": 100
        },
        {
          "pitch": 67,
          "onset": 238.6562,
          "duration": 0.1562,
          "velocity": 100
        },
        {
          "pitch": 66,
          "onset": 238.8438,
          "duration": 0.6562,
          "velocity": 100
        },
        {
          "pitch": 66,
          "onset": 239.0,
          "duration": 0.1562,
          "velocity": 100
        },
        {
          "pitch": 71,
          "onset": 239.0,
          "duration": 1.0,
          "velocity": 100
        },
        {
          "pitch": 59,
          "onset": 239.1562,
          "duration": 0.1562,
          "velocity": 100
        },
        {
          "pitch": 61,
          "onset": 239.3438,
          "duration": 0.1562,
          "velocity": 100
        },
        {
          "pitch": 63,
          "onset": 239.5,
          "duration": 0.1562,
          "velocity": 100
        },
        {
          "pitch": 64,
          "onset": 239.6562,
          "duration": 0.1562,
          "velocity": 100
        },
        {
          "pitch": 66,
          "onset": 239.8438,
          "duration": 0.1562,
          "velocity": 100
        },
        {
          "pitch": 55,
          "onset": 240.0,
          "duration": 1.0,
          "velocity": 100
        },
        {
          "pitch": 67,
          "onset": 240.0,
          "duration": 0.1562,
          "velocity": 100
        },
        {
          "pitch": 72,
          "onset": 240.0,
          "duration": 1.9688,
          "velocity": 100
        },
        {
          "pitch": 66,
          "onset": 240.1562,
          "duration": 0.1562,
          "velocity": 100
        },
        {
          "pitch": 64,
          "onset": 240.3438,
          "duration": 0.3438,
          "velocity": 100
        },
        {
          "pitch": 76,
          "onset": 240.5,
          "duration": 0.5,
          "velocity": 100
        },
        {
          "pitch": 62,
          "onset": 240.6562,
          "duration": 0.1562,
          "velocity": 100
        },
        {
          "pitch": 60,
          "onset": 240.8438,
          "duration": 0.3438,
          "velocity": 100
        },
        {
          "pitch": 54,
          "onset": 241.0,
          "duration": 1.9688,
          "velocity": 100
        },
        {
          "pitch": 75,
          "onset": 241.0,
          "duration": 0.5,
          "velocity": 100
        },
        {
          "pitch": 59,
          "onset": 241.1562,
          "duration": 0.1562,
          "velocity": 100
        },
        {
          "pitch": 57,
          "onset": 241.3438,
          "duration": 0.3438,
          "velocity": 100
        },
        {
          "pitch": 81,
          "onset": 241.5,
          "duration": 0.6562,
          "velocity": 100
        },
        {
          "pitch": 60,
          "onset": 241.6562,
          "duration": 0.1562,
          "velocity": 100
        },
        {
          "pitch": 64,
          "onset": 241.8438,
          "duration": 0.1562,
          "velocity": 100
        },
        {
          "pitch": 63,
          "onset": 242.0,
          "duration": 0.5,
          "velocity": 100
        },
        {
          "pitch": 72,
          "onset": 242.0,
          "duration": 0.75,
          "velocity": 100
        },
        {
          "pitch": 79,
          "onset": 242.1562,
          "duration": 0.1562,
          "velocity": 100
        },
        {
          "pitch": 78,
          "onset": 242.3438,
          "duration": 0.1562,
          "velocity": 100
        },
        {
          "pitch": 59,
          "onset": 242.5,
          "duration": 0.75,
          "velocity": 100
        },
        {
          "pitch": 76,
          "onset": 242.5,
          "duration": 0.1562,
          "velocity": 100
        },
        {
          "pitch": 78,
          "onset": 242.6562,
          "duration": 0.1562,
          "velocity": 100
        },
        {
          "pitch": 69,
          "onset": 242.8438,
          "duration": 0.1562,
          "velocity": 100
        },
        {
          "pitch": 75,
          "onset": 242.8438,
          "duration": 0.1562,
          "velocity": 100
        },
        {
          "pitch": 52,
          "onset": 243.0,
          "duration": 1.9688,
          "velocity": 100
        },
        {
          "pitch": 67,
          "onset": 243.0,
          "duration": 1.0,
          "velocity": 100
        },
        {
          "pitch": 76,
          "onset": 243.0,
          "duration": 0.25,
          "velocity": 100
        },
        {
          "pitch": 63,
          "onset": 243.25,
          "duration": 0.5,
          "velocity": 100
        },
        {
          "pitch": 78,
          "onset": 243.25,
          "duration": 0.25,
          "velocity": 100
        },
        {
          "pitch": 79,
          "onset": 243.5,
          "duration": 0.6562,
          "velocity": 100
        },
        {
          "pitch": 64,
          "onset": 243.75,
          "duration": 0.25,
          "velocity": 100
        },
        {
          "pitch": 57,
          "onset": 244.0,
          "duration": 0.25,
          "velocity": 100
        },
        {
          "pitch": 69,
          "onset": 244.0,
          "duration": 1.9688,
          "velocity": 100
        },
        {
          "pitch": 79,
          "onset": 244.1562,
          "duration": 0.1562,
          "velocity": 100
        },
        {
          "pitch": 64,
          "onset": 244.25,
          "duration": 0.5,
          "velocity": 100
        },
        {
          "pitch": 78,
          "onset": 244.3438,
          "duration": 0.1562,
          "velocity": 100
        },
        {
          "pitch": 76,
          "onset": 244.5,
          "duration": 0.1562,
          "velocity": 100
        },
        {
          "pitch": 75,
          "onset": 244.6562,
          "duration": 0.1562,
          "velocity": 100
        },
        {
          "pitch": 66,
          "onset": 244.75,
          "duration": 0.125,
          "velocity": 100
        },
        {
          "pitch": 73,
          "onset": 244.8438,
          "duration": 0.1562,
          "velocity": 100
        },
        {
          "pitch": 69,
          "onset": 244.875,
          "duration": 0.125,
          "velocity": 100
        },
        {
          "pitch": 66,
          "onset": 245.0,
          "duration": 0.1562,
          "velocity": 100
        },
        {
          "pitch": 71,
          "onset": 245.0,
          "duration": 1.5,
          "velocity": 100
        },
        {
          "pitch": 69,
          "onset": 245.1562,
          "duration": 0.1562,
          "velocity": 100
        },
        {
          "pitch": 67,
          "onset": 245.3438,
          "duration": 0.1562,
          "velocity": 100
        },
        {
          "pitch": 66,
          "onset": 245.5,
          "duration": 0.1562,
          "velocity": 100
        },
        {
          "pitch": 64,
          "onset": 245.6562,
          "duration": 0.1562,
          "velocity": 100
        },
        {
          "pitch": 66,
          "onset": 245.8438,
          "duration": 0.1562,
          "velocity": 100
        },
        {
          "pitch": 67,
          "onset": 246.0,
          "duration": 1.0,
          "velocity": 100
        },
        {
          "pitch": 67,
          "onset": 246.0,
          "duration": 0.1562,
          "velocity": 100
        },
        {
          "pitch": 71,
          "onset": 246.1562,
          "duration": 0.1562,
          "velocity": 100
        },
        {
          "pitch": 69,
          "onset": 246.3438,
          "duration": 0.1562,
          "velocity": 100
        },
        {
          "pitch": 67,
          "onset": 246.5,
          "duration": 0.1562,
          "velocity": 100
        },
        {
          "pitch": 76,
          "onset": 246.5,
          "duration": 1.0,
          "velocity": 100
        },
        {
          "pitch": 66,
          "onset": 246.6562,
          "duration": 0.1562,
          "velocity": 100
        },
        {
          "pitch": 64,
          "onset": 246.8438,
          "duration": 0.1562,
          "velocity": 100
        },
        {
          "pitch": 66,
          "onset": 247.0,
          "duration": 1.9688,
          "velocity": 100
        },
        {
          "pitch": 72,
          "onset": 247.0,
          "duration": 0.1562,
          "velocity": 100
        },
        {
          "pitch": 71,
          "onset": 247.1562,
          "duration": 0.1562,
          "velocity": 100
        },
        {
          "pitch": 69,
          "onset": 247.3438,
          "duration": 0.3438,
          "velocity": 100
        },
        {
          "pitch": 74,
          "onset": 247.5,
          "duration": 0.5,
          "velocity": 100
        },
        {
          "pitch": 67,
          "onset": 247.6562,
          "duration": 0.1562,
          "velocity": 100
        },
        {
          "pitch": 66,
          "onset": 247.8438,
          "duration": 0.3438,
          "velocity": 100
        },
        {
          "pitch": 73,
          "onset": 248.0,
          "duration": 1.5,
          "velocity": 100
        },
        {
          "pitch": 67,
          "onset": 248.1562,
          "duration": 0.1562,
          "velocity": 100
        },
        {
          "pitch": 69,
          "onset": 248.3438,
          "duration": 0.1562,
          "velocity": 100
        },
        {
          "pitch": 71,
          "onset": 248.5,
          "duration": 0.1562,
          "velocity": 100
        },
        {
          "pitch": 66,
          "onset": 248.6562,
          "duration": 0.1562,
          "velocity": 100
        },
        {
          "pitch": 62,
          "onset": 248.8438,
          "duration": 0.1562,
          "velocity": 100
        },
        {
          "pitch": 59,
          "onset": 249.0,
          "duration": 0.5,
          "velocity": 100
        },
        {
          "pitch": 64,
          "onset": 249.0,
          "duration": 1.9688,
          "velocity": 100
        },
        {
          "pitch": 74,
          "onset": 249.5,
          "duration": 0.125,
          "velocity": 100
        },
        {
          "pitch": 72,
          "onset": 249.625,
          "duration": 0.375,
          "velocity": 100
        },
        {
          "pitch": 76,
          "onset": 250.0,
          "duration": 0.125,
          "velocity": 100
        },
        {
          "pitch": 74,
          "onset": 250.125,
          "duration": 0.375,
          "velocity": 100
        },
        {
          "pitch": 69,
          "onset": 250.5,
          "duration": 0.125,
          "velocity": 100
        },
        {
          "pitch": 77,
          "onset": 250.5,
          "duration": 0.125,
          "velocity": 100
        },
        {
          "pitch": 68,
          "onset": 250.625,
          "duration": 0.375,
          "velocity": 100
        },
        {
          "pitch": 76,
          "onset": 250.625,
          "duration": 0.375,
          "velocity": 100
        },
        {
          "pitch": 71,
          "onset": 251.0,
          "duration": 0.125,
          "velocity": 100
        },
        {
          "pitch": 80,
          "onset": 251.0,
          "duration": 0.125,
          "velocity": 100
        },
        {
          "pitch": 69,
          "onset": 251.125,
          "duration": 0.375,
          "velocity": 100
        },
        {
          "pitch": 77,
          "onset": 251.125,
          "duration": 0.375,
          "velocity": 100
        },
        {
          "pitch": 72,
          "onset": 251.5,
          "duration": 0.125,
          "velocity": 100
        },
        {
          "pitch": 81,
          "onset": 251.5,
          "duration": 0.125,
          "velocity": 100
        },
        {
          "pitch": 71,
          "onset": 251.625,
          "duration": 0.375,
          "velocity": 100
        },
        {
          "pitch": 80,
          "onset": 251.625,
          "duration": 0.375,
          "velocity": 100
        },
        {
          "pitch": 72,
          "onset": 252.0,
          "duration": 0.125,
          "velocity": 100
        },
        {
          "pitch": 81,
          "onset": 252.0,
          "duration": 0.5,
          "velocity": 100
        },
        {
          "pitch": 71,
          "onset": 252.125,
          "duration": 0.125,
          "velocity": 100
        },
        {
          "pitch": 69,
          "onset": 252.25,
          "duration": 0.25,
          "velocity": 100
        },
        {
          "pitch": 67,
          "onset": 252.5,
          "duration": 0.125,
          "velocity": 100
        },
        {
          "pitch": 82,
          "onset": 252.5,
          "duration": 0.5,
          "velocity": 100
        },
        {
          "pitch": 66,
          "onset": 252.625,
          "duration": 0.375,
          "velocity": 100
        },
        {
          "pitch": 69,
          "onset": 253.0,
          "duration": 0.125,
          "velocity": 100
        },
        {
          "pitch": 67,
          "onset": 253.125,
          "duration": 0.375,
          "velocity": 100
        },
        {
          "pitch": 70,
          "onset": 253.5,
          "duration": 0.125,
          "velocity": 100
        },
        {
          "pitch": 74,
          "onset": 253.5,
          "duration": 0.125,
          "velocity": 100
        },
        {
          "pitch": 69,
          "onset": 253.625,
          "duration": 0.375,
          "velocity": 100
        },
        {
          "pitch": 73,
          "onset": 253.625,
          "duration": 0.375,
          "velocity": 100
        },
        {
          "pitch": 73,
          "onset": 254.0,
          "duration": 0.125,
          "velocity": 100
        },
        {
          "pitch": 76,
          "onset": 254.0,
          "duration": 0.125,
          "velocity": 100
        },
        {
          "pitch": 71,
          "onset": 254.125,
          "duration": 0.375,
          "velocity": 100
        },
        {
          "pitch": 74,
          "onset": 254.125,
          "duration": 0.375,
          "velocity": 100
        },
        {
          "pitch": 74,
          "onset": 254.5,
          "duration": 0.125,
          "velocity": 100
        },
        {
          "pitch": 77,
          "onset": 254.5,
          "duration": 0.125,
          "velocity": 100
        },
        {
          "pitch": 73,
          "onset": 254.625,
          "duration": 0.375,
          "velocity": 100
        },
        {
          "pitch": 76,
          "onset": 254.625,
          "duration": 0.375,
          "velocity": 100
        },
        {
          "pitch": 74,
          "onset": 255.0,
          "duration": 0.5,
          "velocity": 100
        },
        {
          "pitch": 77,
          "onset": 255.0,
          "duration": 0.125,
          "velocity": 100
        },
        {
          "pitch": 76,
          "onset": 255.125,
          "duration": 0.125,
          "velocity": 100
        },
        {
          "pitch": 74,
          "onset": 255.25,
          "duration": 0.25,
          "velocity": 100
        },
        {
          "pitch": 72,
          "onset": 255.5,
          "duration": 0.125,
          "velocity": 100
        },
        {
          "pitch": 75,
          "onset": 255.5,
          "duration": 0.5,
          "velocity": 100
        },
        {
          "pitch": 71,
          "onset": 255.625,
          "duration": 0.375,
          "velocity": 100
        },
        {
          "pitch": 74,
          "onset": 256.0,
          "duration": 0.125,
          "velocity": 100
        },
        {
          "pitch": 72,
          "onset": 256.125,
          "duration": 0.375,
          "velocity": 100
        },
        {
          "pitch": 67,
          "onset": 256.5,
          "duration": 0.125,
          "velocity": 100
        },
        {
          "pitch": 75,
          "onset": 256.5,
          "duration": 0.125,
          "velocity": 100
        },
        {
          "pitch": 66,
          "onset": 256.625,
          "duration": 0.375,
          "velocity": 100
        },
        {
          "pitch": 74,
          "onset": 256.625,
          "duration": 0.375,
          "velocity": 100
        },
        {
          "pitch": 69,
          "onset": 257.0,
          "duration": 0.125,
          "velocity": 100
        },
        {
          "pitch": 77,
          "onset": 257.0,
          "duration": 0.125,
          "velocity": 100
        },
        {
          "pitch": 67,
          "onset": 257.125,
          "duration": 0.375,
          "velocity": 100
        },
        {
          "pitch": 76,
          "onset": 257.125,
          "duration": 0.375,
          "velocity": 100
        },
        {
          "pitch": 71,
          "onset": 257.5,
          "duration": 0.125,
          "velocity": 100
        },
        {
          "pitch": 79,
          "onset": 257.5,
          "duration": 0.125,
          "velocity": 100
        },
        {
          "pitch": 69,
          "onset": 257.625,
          "duration": 0.375,
          "velocity": 100
        },
        {
          "pitch": 77,
          "onset": 257.625,
          "duration": 0.375,
          "velocity": 100
        },
        {
          "pitch": 71,
          "onset": 258.0,
          "duration": 0.125,
          "velocity": 100
        },
        {
          "pitch": 79,
          "onset": 258.0,
          "duration": 0.5,
          "velocity": 100
        },
        {
          "pitch": 69,
          "onset": 258.125,
          "duration": 0.125,
          "velocity": 100
        },
        {
          "pitch": 67,
          "onset": 258.25,
          "duration": 0.25,
          "velocity": 100
        },
        {
          "pitch": 65,
          "onset": 258.5,
          "duration": 0.125,
          "velocity": 100
        },
        {
          "pitch": 80,
          "onset": 258.5,
          "duration": 0.5,
          "velocity": 100
        },
        {
          "pitch": 64,
          "onset": 258.625,
          "duration": 0.375,
          "velocity": 100
        },
        {
          "pitch": 67,
          "onset": 259.0,
          "duration": 0.125,
          "velocity": 100
        },
        {
          "pitch": 65,
          "onset": 259.125,
          "duration": 0.375,
          "velocity": 100
        },
        {
          "pitch": 68,
          "onset": 259.5,
          "duration": 0.125,
          "velocity": 100
        },
        {
          "pitch": 72,
          "onset": 259.5,
          "duration": 0.125,
          "velocity": 100
        },
        {
          "pitch": 67,
          "onset": 259.625,
          "duration": 0.375,
          "velocity": 100
        },
        {
          "pitch": 71,
          "onset": 259.625,
          "duration": 0.375,
          "velocity": 100
        },
        {
          "pitch": 71,
          "onset": 260.0,
          "duration": 0.125,
          "velocity": 100
        },
        {
          "pitch": 74,
          "onset": 260.0,
          "duration": 0.125,
          "velocity": 100
        },
        {
          "pitch": 69,
          "onset": 260.125,
          "duration": 0.375,
          "velocity": 100
        },
        {
          "pitch": 72,
          "onset": 260.125,
          "duration": 0.375,
          "velocity": 100
        },
        {
          "pitch": 72,
          "onset": 260.5,
          "duration": 0.125,
          "velocity": 100
        },
        {
          "pitch": 76,
          "onset": 260.5,
          "duration": 0.125,
          "velocity": 100
        },
        {
          "pitch": 71,
          "onset": 260.625,
          "duration": 0.375,
          "velocity": 100
        },
        {
          "pitch": 74,
          "onset": 260.625,
          "duration": 0.375,
          "velocity": 100
        },
        {
          "pitch": 72,
          "onset": 261.0,
          "duration": 0.1562,
          "velocity": 100
        },
        {
          "pitch": 76,
          "onset": 261.0,
          "duration": 1.1562,
          "velocity": 100
        },
        {
          "pitch": 64,
          "onset": 261.1562,
          "duration": 0.1562,
          "velocity": 100
        },
        {
          "pitch": 66,
          "onset": 261.3438,
          "duration": 0.1562,
          "velocity": 100
        },
        {
          "pitch": 67,
          "onset": 261.5,
          "duration": 0.1562,
          "velocity": 100
        },
        {
          "pitch": 69,
          "onset": 261.6562,
          "duration": 0.1562,
          "velocity": 100
        },
        {
          "pitch": 71,
          "onset": 261.8438,
          "duration": 0.1562,
          "velocity": 100
        },
        {
          "pitch": 60,
          "onset": 262.0,
          "duration": 1.1562,
          "velocity": 100
        },
        {
          "pitch": 78,
          "onset": 262.1562,
          "duration": 0.1562,
          "velocity": 100
        },
        {
          "pitch": 79,
          "onset": 262.3438,
          "duration": 0.1562,
          "velocity": 100
        },
        {
          "pitch": 81,
          "onset": 262.5,
          "duration": 0.1562,
          "velocity": 100
        },
        {
          "pitch": 83,
          "onset": 262.6562,
          "duration": 0.1562,
          "velocity": 100
        },
        {
          "pitch": 84,
          "onset": 262.8438,
          "duration": 0.1562,
          "velocity": 100
        },
        {
          "pitch": 75,
          "onset": 263.0,
          "duration": 0.25,
          "velocity": 100
        },
        {
          "pitch": 59,
          "onset": 263.1562,
          "duration": 0.1562,
          "velocity": 100
        },
        {
          "pitch": 76,
          "onset": 263.25,
          "duration": 0.5,
          "velocity": 100
        },
        {
          "pitch": 57,
          "onset": 263.3438,
          "duration": 0.1562,
          "velocity": 100
        },
        {
          "pitch": 55,
          "onset": 263.5,
          "duration": 0.1562,
          "velocity": 100
        },
        {
          "pitch": 54,
          "onset": 263.6562,
          "duration": 0.1562,
          "velocity": 100
        },
        {
          "pitch": 72,
          "onset": 263.75,
          "duration": 0.25,
          "velocity": 100
        },
        {
          "pitch": 52,
          "onset": 263.8438,
          "duration": 0.1562,
          "velocity": 100
        },
        {
          "pitch": 66,
          "onset": 264.0,
          "duration": 0.5,
          "velocity": 100
        },
        {
          "pitch": 72,
          "onset": 264.0,
          "duration": 0.125,
          "velocity": 100
        },
        {
          "pitch": 71,
          "onset": 264.125,
          "duration": 0.375,
          "velocity": 100
        },
        {
          "pitch": 64,
          "onset": 264.5,
          "duration": 0.125,
          "velocity": 100
        },
        {
          "pitch": 79,
          "onset": 264.5,
          "duration": 1.25,
          "velocity": 100
        },
        {
          "pitch": 63,
          "onset": 264.625,
          "duration": 0.375,
          "velocity": 100
        },
        {
          "pitch": 63,
          "onset": 265.0,
          "duration": 0.125,
          "velocity": 100
        },
        {
          "pitch": 64,
          "onset": 265.125,
          "duration": 0.375,
          "velocity": 100
        },
        {
          "pitch": 57,
          "onset": 265.5,
          "duration": 0.6562,
          "velocity": 100
        },
        {
          "pitch": 78,
          "onset": 265.75,
          "duration": 0.125,
          "velocity": 100
        },
        {
          "pitch": 76,
          "onset": 265.875,
          "duration": 0.125,
          "velocity": 100
        },
        {
          "pitch": 78,
          "onset": 266.0,
          "duration": 1.1562,
          "velocity": 100
        },
        {
          "pitch": 59,
          "onset": 266.1562,
          "duration": 0.1562,
          "velocity": 100
        },
        {
          "pitch": 60,
          "onset": 266.3438,
          "duration": 0.1562,
          "velocity": 100
        },
        {
          "pitch": 60,
          "onset": 266.5,
          "duration": 0.1562,
          "velocity": 100
        },
        {
          "pitch": 59,
          "onset": 266.6562,
          "duration": 0.1562,
          "velocity": 100
        },
        {
          "pitch": 57,
          "onset": 266.8438,
          "duration": 0.1562,
          "velocity": 100
        },
        {
          "pitch": 55,
          "onset": 267.0,
          "duration": 0.5,
          "velocity": 100
        },
        {
          "pitch": 79,
          "onset": 267.1562,
          "duration": 0.1562,
          "velocity": 100
        },
        {
          "pitch": 81,
          "onset": 267.3438,
          "duration": 0.1562,
          "velocity": 100
        },
        {
          "pitch": 71,
          "onset": 267.5,
          "duration": 0.625,
          "velocity": 100
        },
        {
          "pitch": 81,
          "onset": 267.5,
          "duration": 0.1562,
          "velocity": 100
        },
        {
          "pitch": 79,
          "onset": 267.6562,
          "duration": 0.1562,
          "velocity": 100
        },
        {
          "pitch": 78,
          "onset": 267.8438,
          "duration": 0.1562,
          "velocity": 100
        },
        {
          "pitch": 76,
          "onset": 268.0,
          "duration": 0.75,
          "velocity": 100
        },
        {
          "pitch": 69,
          "onset": 268.125,
          "duration": 0.125,
          "velocity": 100
        },
        {
          "pitch": 68,
          "onset": 268.25,
          "duration": 0.25,
          "velocity": 100
        },
        {
          "pitch": 69,
          "onset": 268.5,
          "duration": 0.6562,
          "velocity": 100
        },
        {
          "pitch": 75,
          "onset": 268.75,
          "duration": 0.125,
          "velocity": 100
        },
        {
          "pitch": 76,
          "onset": 268.875,
          "duration": 0.125,
          "velocity": 100
        },
        {
          "pitch": 78,
          "onset": 269.0,
          "duration": 0.125,
          "velocity": 100
        },
        {
          "pitch": 76,
          "onset": 269.125,
          "duration": 0.125,
          "velocity": 100
        },
        {
          "pitch": 67,
          "onset": 269.1562,
          "duration": 0.1562,
          "velocity": 100
        },
        {
          "pitch": 75,
          "onset": 269.25,
          "duration": 0.25,
          "velocity": 100
        },
        {
          "pitch": 66,
          "onset": 269.3438,
          "duration": 0.1562,
          "velocity": 100
        },
        {
          "pitch": 67,
          "onset": 269.5,
          "duration": 0.1562,
          "velocity": 100
        },
        {
          "pitch": 76,
          "onset": 269.5,
          "duration": 0.6562,
          "velocity": 100
        },
        {
          "pitch": 66,
          "onset": 269.6562,
          "duration": 0.1562,
          "velocity": 100
        },
        {
          "pitch": 64,
          "onset": 269.8438,
          "duration": 0.1562,
          "velocity": 100
        },
        {
          "pitch": 67,
          "onset": 270.0,
          "duration": 0.625,
          "velocity": 100
        },
        {
          "pitch": 74,
          "onset": 270.1562,
          "duration": 0.1562,
          "velocity": 100
        },
        {
          "pitch": 72,
          "onset": 270.3438,
          "duration": 0.1562,
          "velocity": 100
        },
        {
          "pitch": 71,
          "onset": 270.5,
          "duration": 0.1562,
          "velocity": 100
        },
        {
          "pitch": 66,
          "onset": 270.625,
          "duration": 0.125,
          "velocity": 100
        },
        {
          "pitch": 69,
          "onset": 270.6562,
          "duration": 0.1562,
          "velocity": 100
        },
        {
          "pitch": 67,
          "onset": 270.75,
          "duration": 0.25,
          "velocity": 100
        },
        {
          "pitch": 67,
          "onset": 270.8438,
          "duration": 0.1562,
          "velocity": 100
        },
        {
          "pitch": 66,
          "onset": 271.0,
          "duration": 0.1562,
          "velocity": 100
        },
        {
          "pitch": 69,
          "onset": 271.0,
          "duration": 0.1562,
          "velocity": 100
        },
        {
          "pitch": 64,
          "onset": 271.1562,
          "duration": 0.1562,
          "velocity": 100
        },
        {
          "pitch": 67,
          "onset": 271.1562,
          "duration": 0.1562,
          "velocity": 100
        },
        {
          "pitch": 66,
          "onset": 271.3438,
          "duration": 0.1562,
          "velocity": 100
        },
        {
          "pitch": 72,
          "onset": 271.3438,
          "duration": 0.1562,
          "velocity": 100
        },
        {
          "pitch": 67,
          "onset": 271.5,
          "duration": 0.1562,
          "velocity": 100
        },
        {
          "pitch": 71,
          "onset": 271.5,
          "duration": 0.1562,
          "velocity": 100
        },
        {
          "pitch": 64,
          "onset": 271.6562,
          "duration": 0.1562,
          "velocity": 100
        },
        {
          "pitch": 70,
          "onset": 271.6562,
          "duration": 0.1562,
          "velocity": 100
        },
        {
          "pitch": 58,
          "onset": 271.8438,
          "duration": 0.1562,
          "velocity": 100
        },
        {
          "pitch": 79,
          "onset": 271.8438,
          "duration": 0.1562,
          "velocity": 100
        },
        {
          "pitch": 59,
          "onset": 272.0,
          "duration": 5.9688,
          "velocity": 100
        },
        {
          "pitch": 76,
          "onset": 272.0,
          "duration": 0.25,
          "velocity": 100
        },
        {
          "pitch": 66,
          "onset": 272.25,
          "duration": 0.25,
          "velocity": 100
        },
        {
          "pitch": 74,
          "onset": 272.25,
          "duration": 0.0625,
          "velocity": 100
        },
        {
          "pitch": 76,
          "onset": 272.3125,
          "duration": 0.0625,
          "velocity": 100
        },
        {
          "pitch": 74,
          "onset": 272.375,
          "duration": 0.375,
          "velocity": 100
        },
        {
          "pitch": 69,
          "onset": 272.5,
          "duration": 1.25,
          "velocity": 100
        },
        {
          "pitch": 76,
          "onset": 272.75,
          "duration": 0.25,
          "velocity": 100
        },
        {
          "pitch": 76,
          "onset": 273.0,
          "duration": 4.9688,
          "velocity": 100
        },
        {
          "pitch": 66,
          "onset": 273.75,
          "duration": 0.25,
          "velocity": 100
        },
        {
          "pitch": 66,
          "onset": 274.0,
          "duration": 0.5,
          "velocity": 100
        },
        {
          "pitch": 68,
          "onset": 274.5,
          "duration": 3.4688,
          "velocity": 100
        },
        {
          "pitch": 76,
          "onset": 280.0,
          "duration": 0.25,
          "velocity": 1
        }
      ]
    },
    {
      "role": "pedal",
      "notes": [
        {
          "pitch": 40,
          "onset": 2.5,
          "duration": 0.5,
          "velocity": 100
        },
        {
          "pitch": 39,
          "onset": 3.0,
          "duration": 0.5,
          "velocity": 100
        },
        {
          "pitch": 35,
          "onset": 3.5,
          "duration": 0.5,
          "velocity": 100
        },
        {
          "pitch": 40,
          "onset": 4.5,
          "duration": 0.5,
          "velocity": 100
        },
        {
          "pitch": 35,
          "onset": 5.0,
          "duration": 0.5,
          "velocity": 100
        },
        {
          "pitch": 38,
          "onset": 5.5,
          "duration": 0.5,
          "velocity": 100
        },
        {
          "pitch": 37,
          "onset": 6.0,
          "duration": 0.5,
          "velocity": 100
        },
        {
          "pitch": 45,
          "onset": 6.5,
          "duration": 0.5,
          "velocity": 100
        },
        {
          "pitch": 39,
          "onset": 7.5,
          "duration": 0.5,
          "velocity": 100
        },
        {
          "pitch": 40,
          "onset": 8.0,
          "duration": 0.5,
          "velocity": 100
        },
        {
          "pitch": 42,
          "onset": 8.5,
          "duration": 0.5,
          "velocity": 100
        },
        {
          "pitch": 33,
          "onset": 9.0,
          "duration": 0.5,
          "velocity": 100
        },
        {
          "pitch": 36,
          "onset": 9.5,
          "duration": 0.5,
          "velocity": 100
        },
        {
          "pitch": 35,
          "onset": 10.0,
          "duration": 0.5,
          "velocity": 100
        },
        {
          "pitch": 33,
          "onset": 10.5,
          "duration": 0.5,
          "velocity": 100
        },
        {
          "pitch": 35,
          "onset": 11.0,
          "duration": 0.5,
          "velocity": 100
        },
        {
          "pitch": 30,
          "onset": 11.5,
          "duration": 0.5,
          "velocity": 100
        },
        {
          "pitch": 31,
          "onset": 12.0,
          "duration": 0.5,
          "velocity": 100
        },
        {
          "pitch": 27,
          "onset": 12.5,
          "duration": 0.5,
          "velocity": 100
        },
        {
          "pitch": 28,
          "onset": 13.0,
          "duration": 0.5,
          "velocity": 100
        },
        {
          "pitch": 30,
          "onset": 13.5,
          "duration": 0.5,
          "velocity": 100
        },
        {
          "pitch": 31,
          "onset": 14.0,
          "duration": 0.5,
          "velocity": 100
        },
        {
          "pitch": 28,
          "onset": 14.5,
          "duration": 0.5,
          "velocity": 100
        },
        {
          "pitch": 30,
          "onset": 15.0,
          "duration": 0.5,
          "velocity": 100
        },
        {
          "pitch": 34,
          "onset": 15.5,
          "duration": 0.5,
          "velocity": 100
        },
        {
          "pitch": 35,
          "onset": 16.0,
          "duration": 0.5,
          "velocity": 100
        },
        {
          "pitch": 38,
          "onset": 16.5,
          "duration": 0.5,
          "velocity": 100
        },
        {
          "pitch": 42,
          "onset": 17.0,
          "duration": 0.5,
          "velocity": 100
        },
        {
          "pitch": 35,
          "onset": 17.5,
          "duration": 0.5,
          "velocity": 100
        },
        {
          "pitch": 40,
          "onset": 18.5,
          "duration": 0.5,
          "velocity": 100
        },
        {
          "pitch": 34,
          "onset": 19.0,
          "duration": 0.5,
          "velocity": 100
        },
        {
          "pitch": 37,
          "onset": 19.5,
          "duration": 0.5,
          "velocity": 100
        },
        {
          "pitch": 38,
          "onset": 20.0,
          "duration": 0.5,
          "velocity": 100
        },
        {
          "pitch": 40,
          "onset": 20.5,
          "duration": 0.5,
          "velocity": 100
        },
        {
          "pitch": 42,
          "onset": 21.0,
          "duration": 0.5,
          "velocity": 100
        },
        {
          "pitch": 43,
          "onset": 21.5,
          "duration": 0.5,
          "velocity": 100
        },
        {
          "pitch": 42,
          "onset": 22.0,
          "duration": 0.5,
          "velocity": 100
        },
        {
          "pitch": 40,
          "onset": 22.5,
          "duration": 0.5,
          "velocity": 100
        },
        {
          "pitch": 42,
          "onset": 23.0,
          "duration": 0.5,
          "velocity": 100
        },
        {
          "pitch": 30,
          "onset": 23.5,
          "duration": 0.5,
          "velocity": 100
        },
        {
          "pitch": 35,
          "onset": 24.0,
          "duration": 0.5,
          "velocity": 100
        },
        {
          "pitch": 47,
          "onset": 24.5,
          "duration": 0.5,
          "velocity": 100
        },
        {
          "pitch": 44,
          "onset": 25.0,
          "duration": 0.5,
          "velocity": 100
        },
        {
          "pitch": 40,
          "onset": 25.5,
          "duration": 0.5,
          "velocity": 100
        },
        {
          "pitch": 28,
          "onset": 26.5,
          "duration": 0.5,
          "velocity": 100
        },
        {
          "pitch": 33,
          "onset": 27.0,
          "duration": 0.5,
          "velocity": 100
        },
        {
          "pitch": 45,
          "onset": 27.5,
          "duration": 0.5,
          "velocity": 100
        },
        {
          "pitch": 42,
          "onset": 28.0,
          "duration": 0.5,
          "velocity": 100
        },
        {
          "pitch": 38,
          "onset": 28.5,
          "duration": 0.5,
          "velocity": 100
        },
        {
          "pitch": 26,
          "onset": 29.5,
          "duration": 0.5,
          "velocity": 100
        },
        {
          "pitch": 31,
          "onset": 30.0,
          "duration": 0.5,
          "velocity": 100
        },
        {
          "pitch": 35,
          "onset": 30.5,
          "duration": 0.5,
          "velocity": 100
        },
        {
          "pitch": 36,
          "onset": 31.0,
          "duration": 0.5,
          "velocity": 100
        },
        {
          "pitch": 37,
          "onset": 31.5,
          "duration": 0.5,
          "velocity": 100
        },
        {
          "pitch": 38,
          "onset": 32.0,
          "duration": 0.5,
          "velocity": 100
        },
        {
          "pitch": 39,
          "onset": 32.5,
          "duration": 0.5,
          "velocity": 100
        },
        {
          "pitch": 40,
          "onset": 33.0,
          "duration": 0.5,
          "velocity": 100
        },
        {
          "pitch": 42,
          "onset": 33.5,
          "duration": 0.5,
          "velocity": 100
        },
        {
          "pitch": 43,
          "onset": 34.0,
          "duration": 0.5,
          "velocity": 100
        },
        {
          "pitch": 45,
          "onset": 34.5,
          "duration": 0.5,
          "velocity": 100
        },
        {
          "pitch": 47,
          "onset": 35.0,
          "duration": 0.5,
          "velocity": 100
        },
        {
          "pitch": 35,
          "onset": 35.5,
          "duration": 0.5,
          "velocity": 100
        },
        {
          "pitch": 28,
          "onset": 36.0,
          "duration": 0.5,
          "velocity": 100
        },
        {
          "pitch": 40,
          "onset": 36.5,
          "duration": 0.5,
          "velocity": 100
        },
        {
          "pitch": 39,
          "onset": 37.0,
          "duration": 0.5,
          "velocity": 100
        },
        {
          "pitch": 35,
          "onset": 37.5,
          "duration": 0.5,
          "velocity": 100
        },
        {
          "pitch": 40,
          "onset": 38.0,
          "duration": 0.5,
          "velocity": 100
        },
        {
          "pitch": 38,
          "onset": 38.5,
          "duration": 0.5,
          "velocity": 100
        },
        {
          "pitch": 37,
          "onset": 39.0,
          "duration": 0.5,
          "velocity": 100
        },
        {
          "pitch": 42,
          "onset": 39.5,
          "duration": 0.5,
          "velocity": 100
        },
        {
          "pitch": 40,
          "onset": 40.5,
          "duration": 0.5,
          "velocity": 100
        },
        {
          "pitch": 39,
          "onset": 41.0,
          "duration": 0.5,
          "velocity": 100
        },
        {
          "pitch": 35,
          "onset": 41.5,
          "duration": 0.5,
          "velocity": 100
        },
        {
          "pitch": 40,
          "onset": 42.0,
          "duration": 0.5,
          "velocity": 100
        },
        {
          "pitch": 28,
          "onset": 42.5,
          "duration": 0.5,
          "velocity": 100
        },
        {
          "pitch": 43,
          "onset": 43.5,
          "duration": 0.5,
          "velocity": 100
        },
        {
          "pitch": 48,
          "onset": 44.0,
          "duration": 0.5,
          "velocity": 100
        },
        {
          "pitch": 47,
          "onset": 44.5,
          "duration": 0.5,
          "velocity": 100
        },
        {
          "pitch": 45,
          "onset": 45.0,
          "duration": 0.5,
          "velocity": 100
        },
        {
          "pitch": 43,
          "onset": 45.5,
          "duration": 0.5,
          "velocity": 100
        },
        {
          "pitch": 42,
          "onset": 46.0,
          "duration": 0.5,
          "velocity": 100
        },
        {
          "pitch": 45,
          "onset": 46.5,
          "duration": 0.5,
          "velocity": 100
        },
        {
          "pitch": 39,
          "onset": 47.0,
          "duration": 0.5,
          "velocity": 100
        },
        {
          "pitch": 35,
          "onset": 47.5,
          "duration": 0.5,
          "velocity": 100
        },
        {
          "pitch": 40,
          "onset": 48.0,
          "duration": 0.5,
          "velocity": 100
        },
        {
          "pitch": 31,
          "onset": 48.5,
          "duration": 0.5,
          "velocity": 100
        },
        {
          "pitch": 36,
          "onset": 49.0,
          "duration": 0.5,
          "velocity": 100
        },
        {
          "pitch": 35,
          "onset": 49.5,
          "duration": 0.5,
          "velocity": 100
        },
        {
          "pitch": 33,
          "onset": 50.0,
          "duration": 0.5,
          "velocity": 100
        },
        {
          "pitch": 31,
          "onset": 50.5,
          "duration": 0.5,
          "velocity": 100
        },
        {
          "pitch": 33,
          "onset": 51.0,
          "duration": 0.5,
          "velocity": 100
        },
        {
          "pitch": 30,
          "onset": 51.5,
          "duration": 0.5,
          "velocity": 100
        },
        {
          "pitch": 35,
          "onset": 52.0,
          "duration": 0.5,
          "velocity": 100
        },
        {
          "pitch": 33,
          "onset": 52.5,
          "duration": 0.5,
          "velocity": 100
        },
        {
          "pitch": 32,
          "onset": 53.0,
          "duration": 0.5,
          "velocity": 100
        },
        {
          "pitch": 30,
          "onset": 53.5,
          "duration": 0.5,
          "velocity": 100
        },
        {
          "pitch": 32,
          "onset": 54.0,
          "duration": 0.5,
          "velocity": 100
        },
        {
          "pitch": 28,
          "onset": 54.5,
          "duration": 0.5,
          "velocity": 100
        },
        {
          "pitch": 33,
          "onset": 55.0,
          "duration": 0.5,
          "velocity": 100
        },
        {
          "pitch": 35,
          "onset": 55.5,
          "duration": 0.5,
          "velocity": 100
        },
        {
          "pitch": 37,
          "onset": 56.0,
          "duration": 0.5,
          "velocity": 100
        },
        {
          "pitch": 33,
          "onset": 56.5,
          "duration": 0.5,
          "velocity": 100
        },
        {
          "pitch": 40,
          "onset": 57.0,
          "duration": 0.5,
          "velocity": 100
        },
        {
          "pitch": 28,
          "onset": 57.5,
          "duration": 0.5,
          "velocity": 100
        },
        {
          "pitch": 45,
          "onset": 58.5,
          "duration": 0.5,
          "velocity": 100
        },
        {
          "pitch": 44,
          "onset": 59.0,
          "duration": 0.5,
          "velocity": 100
        },
        {
          "pitch": 43,
          "onset": 59.5,
          "duration": 0.5,
          "velocity": 100
        },
        {
          "pitch": 42,
          "onset": 60.0,
          "duration": 0.5,
          "velocity": 100
        },
        {
          "pitch": 41,
          "onset": 60.5,
          "duration": 1.0,
          "velocity": 100
        },
        {
          "pitch": 32,
          "onset": 61.5,
          "duration": 0.5,
          "velocity": 100
        },
        {
          "pitch": 33,
          "onset": 62.0,
          "duration": 0.5,
          "velocity": 100
        },
        {
          "pitch": 35,
          "onset": 62.5,
          "duration": 0.5,
          "velocity": 100
        },
        {
          "pitch": 36,
          "onset": 63.0,
          "duration": 0.5,
          "velocity": 100
        },
        {
          "pitch": 38,
          "onset": 63.5,
          "duration": 0.5,
          "velocity": 100
        },
        {
          "pitch": 40,
          "onset": 64.0,
          "duration": 0.5,
          "velocity": 100
        },
        {
          "pitch": 28,
          "onset": 64.5,
          "duration": 0.5,
          "velocity": 100
        },
        {
          "pitch": 40,
          "onset": 65.0,
          "duration": 0.5,
          "velocity": 100
        },
        {
          "pitch": 38,
          "onset": 65.5,
          "duration": 0.5,
          "velocity": 100
        },
        {
          "pitch": 36,
          "onset": 66.0,
          "duration": 0.5,
          "velocity": 100
        },
        {
          "pitch": 40,
          "onset": 66.5,
          "duration": 0.5,
          "velocity": 100
        },
        {
          "pitch": 45,
          "onset": 67.0,
          "duration": 0.5,
          "velocity": 100
        },
        {
          "pitch": 47,
          "onset": 67.5,
          "duration": 0.5,
          "velocity": 100
        },
        {
          "pitch": 48,
          "onset": 68.0,
          "duration": 0.5,
          "velocity": 100
        },
        {
          "pitch": 45,
          "onset": 68.5,
          "duration": 0.5,
          "velocity": 100
        },
        {
          "pitch": 47,
          "onset": 69.0,
          "duration": 0.5,
          "velocity": 100
        },
        {
          "pitch": 39,
          "onset": 69.5,
          "duration": 0.5,
          "velocity": 100
        },
        {
          "pitch": 40,
          "onset": 70.0,
          "duration": 0.5,
          "velocity": 100
        },
        {
          "pitch": 43,
          "onset": 70.5,
          "duration": 0.5,
          "velocity": 100
        },
        {
          "pitch": 47,
          "onset": 71.0,
          "duration": 0.5,
          "velocity": 100
        },
        {
          "pitch": 40,
          "onset": 71.5,
          "duration": 0.5,
          "velocity": 100
        },
        {
          "pitch": 45,
          "onset": 72.5,
          "duration": 0.5,
          "velocity": 100
        },
        {
          "pitch": 39,
          "onset": 73.0,
          "duration": 0.5,
          "velocity": 100
        },
        {
          "pitch": 42,
          "onset": 73.5,
          "duration": 0.5,
          "velocity": 100
        },
        {
          "pitch": 43,
          "onset": 74.0,
          "duration": 0.5,
          "velocity": 100
        },
        {
          "pitch": 45,
          "onset": 74.5,
          "duration": 0.5,
          "velocity": 100
        },
        {
          "pitch": 47,
          "onset": 75.0,
          "duration": 0.5,
          "velocity": 100
        },
        {
          "pitch": 48,
          "onset": 75.5,
          "duration": 0.5,
          "velocity": 100
        },
        {
          "pitch": 47,
          "onset": 76.0,
          "duration": 0.5,
          "velocity": 100
        },
        {
          "pitch": 45,
          "onset": 76.5,
          "duration": 0.5,
          "velocity": 100
        },
        {
          "pitch": 45,
          "onset": 77.0,
          "duration": 0.5,
          "velocity": 100
        },
        {
          "pitch": 42,
          "onset": 77.5,
          "duration": 0.5,
          "velocity": 100
        },
        {
          "pitch": 43,
          "onset": 78.0,
          "duration": 0.5,
          "velocity": 100
        },
        {
          "pitch": 39,
          "onset": 78.5,
          "duration": 0.5,
          "velocity": 100
        },
        {
          "pitch": 40,
          "onset": 79.0,
          "duration": 0.5,
          "velocity": 100
        },
        {
          "pitch": 28,
          "onset": 79.5,
          "duration": 0.5,
          "velocity": 100
        },
        {
          "pitch": 43,
          "onset": 80.5,
          "duration": 0.5,
          "velocity": 100
        },
        {
          "pitch": 42,
          "onset": 81.0,
          "duration": 0.5,
          "velocity": 100
        },
        {
          "pitch": 38,
          "onset": 81.5,
          "duration": 0.5,
          "velocity": 100
        },
        {
          "pitch": 35,
          "onset": 82.0,
          "duration": 0.5,
          "velocity": 100
        },
        {
          "pitch": 38,
          "onset": 82.5,
          "duration": 0.5,
          "velocity": 100
        },
        {
          "pitch": 31,
          "onset": 83.0,
          "duration": 0.5,
          "velocity": 100
        },
        {
          "pitch": 35,
          "onset": 83.5,
          "duration": 0.5,
          "velocity": 100
        },
        {
          "pitch": 28,
          "onset": 84.0,
          "duration": 0.5,
          "velocity": 100
        },
        {
          "pitch": 40,
          "onset": 84.5,
          "duration": 0.5,
          "velocity": 100
        },
        {
          "pitch": 39,
          "onset": 85.0,
          "duration": 0.5,
          "velocity": 100
        },
        {
          "pitch": 38,
          "onset": 85.5,
          "duration": 0.5,
          "velocity": 100
        },
        {
          "pitch": 37,
          "onset": 86.0,
          "duration": 0.5,
          "velocity": 100
        },
        {
          "pitch": 36,
          "onset": 86.5,
          "duration": 0.5,
          "velocity": 100
        },
        {
          "pitch": 35,
          "onset": 87.0,
          "duration": 0.5,
          "velocity": 100
        },
        {
          "pitch": 36,
          "onset": 87.5,
          "duration": 0.5,
          "velocity": 100
        },
        {
          "pitch": 35,
          "onset": 88.0,
          "duration": 0.5,
          "velocity": 100
        },
        {
          "pitch": 33,
          "onset": 88.5,
          "duration": 0.5,
          "velocity": 100
        },
        {
          "pitch": 31,
          "onset": 89.0,
          "duration": 0.5,
          "velocity": 100
        },
        {
          "pitch": 30,
          "onset": 89.5,
          "duration": 0.5,
          "velocity": 100
        },
        {
          "pitch": 28,
          "onset": 90.0,
          "duration": 0.5,
          "velocity": 100
        },
        {
          "pitch": 40,
          "onset": 90.5,
          "duration": 0.5,
          "velocity": 100
        },
        {
          "pitch": 40,
          "onset": 91.5,
          "duration": 0.5,
          "velocity": 100
        },
        {
          "pitch": 42,
          "onset": 92.0,
          "duration": 0.5,
          "velocity": 100
        },
        {
          "pitch": 45,
          "onset": 92.5,
          "duration": 0.5,
          "velocity": 100
        },
        {
          "pitch": 39,
          "onset": 93.0,
          "duration": 0.5,
          "velocity": 100
        },
        {
          "pitch": 35,
          "onset": 93.5,
          "duration": 0.5,
          "velocity": 100
        },
        {
          "pitch": 37,
          "onset": 94.0,
          "duration": 0.5,
          "velocity": 100
        },
        {
          "pitch": 39,
          "onset": 94.5,
          "duration": 0.5,
          "velocity": 100
        },
        {
          "pitch": 40,
          "onset": 95.0,
          "duration": 0.5,
          "velocity": 100
        },
        {
          "pitch": 42,
          "onset": 95.5,
          "duration": 0.5,
          "velocity": 100
        },
        {
          "pitch": 43,
          "onset": 96.0,
          "duration": 0.5,
          "velocity": 100
        },
        {
          "pitch": 40,
          "onset": 96.5,
          "duration": 0.5,
          "velocity": 100
        },
        {
          "pitch": 48,
          "onset": 97.0,
          "duration": 0.5,
          "velocity": 100
        },
        {
          "pitch": 47,
          "onset": 97.5,
          "duration": 0.5,
          "velocity": 100
        },
        {
          "pitch": 49,
          "onset": 98.0,
          "duration": 1.0,
          "velocity": 100
        },
        {
          "pitch": 47,
          "onset": 99.0,
          "duration": 0.5,
          "velocity": 100
        },
        {
          "pitch": 42,
          "onset": 99.5,
          "duration": 0.5,
          "velocity": 100
        },
        {
          "pitch": 39,
          "onset": 100.0,
          "duration": 0.5,
          "velocity": 100
        },
        {
          "pitch": 35,
          "onset": 100.5,
          "duration": 0.5,
          "velocity": 100
        },
        {
          "pitch": 35,
          "onset": 101.5,
          "duration": 0.5,
          "velocity": 100
        },
        {
          "pitch": 40,
          "onset": 102.0,
          "duration": 0.5,
          "velocity": 100
        },
        {
          "pitch": 35,
          "onset": 102.5,
          "duration": 0.5,
          "velocity": 100
        },
        {
          "pitch": 32,
          "onset": 103.0,
          "duration": 0.5,
          "velocity": 100
        },
        {
          "pitch": 28,
          "onset": 103.5,
          "duration": 0.5,
          "velocity": 100
        },
        {
          "pitch": 40,
          "onset": 104.5,
          "duration": 0.5,
          "velocity": 100
        },
        {
          "pitch": 45,
          "onset": 105.0,
          "duration": 0.5,
          "velocity": 100
        },
        {
          "pitch": 40,
          "onset": 105.5,
          "duration": 0.5,
          "velocity": 100
        },
        {
          "pitch": 37,
          "onset": 106.0,
          "duration": 0.5,
          "velocity": 100
        },
        {
          "pitch": 33,
          "onset": 106.5,
          "duration": 0.5,
          "velocity": 100
        },
        {
          "pitch": 33,
          "onset": 107.5,
          "duration": 0.5,
          "velocity": 100
        },
        {
          "pitch": 38,
          "onset": 108.0,
          "duration": 0.5,
          "velocity": 100
        },
        {
          "pitch": 33,
          "onset": 108.5,
          "duration": 0.5,
          "velocity": 100
        },
        {
          "pitch": 30,
          "onset": 109.0,
          "duration": 0.5,
          "velocity": 100
        },
        {
          "pitch": 26,
          "onset": 109.5,
          "duration": 0.5,
          "velocity": 100
        },
        {
          "pitch": 38,
          "onset": 110.5,
          "duration": 0.5,
          "velocity": 100
        },
        {
          "pitch": 31,
          "onset": 111.0,
          "duration": 0.5,
          "velocity": 100
        },
        {
          "pitch": 43,
          "onset": 111.5,
          "duration": 0.5,
          "velocity": 100
        },
        {
          "pitch": 37,
          "onset": 112.0,
          "duration": 0.5,
          "velocity": 100
        },
        {
          "pitch": 39,
          "onset": 112.5,
          "duration": 0.5,
          "velocity": 100
        },
        {
          "pitch": 40,
          "onset": 113.0,
          "duration": 0.5,
          "velocity": 100
        },
        {
          "pitch": 28,
          "onset": 113.5,
          "duration": 0.5,
          "velocity": 100
        },
        {
          "pitch": 35,
          "onset": 114.0,
          "duration": 0.5,
          "velocity": 100
        },
        {
          "pitch": 47,
          "onset": 114.5,
          "duration": 0.5,
          "velocity": 100
        },
        {
          "pitch": 45,
          "onset": 115.5,
          "duration": 0.5,
          "velocity": 100
        },
        {
          "pitch": 43,
          "onset": 116.0,
          "duration": 0.5,
          "velocity": 100
        },
        {
          "pitch": 42,
          "onset": 116.5,
          "duration": 0.5,
          "velocity": 100
        },
        {
          "pitch": 40,
          "onset": 117.0,
          "duration": 0.5,
          "velocity": 100
        },
        {
          "pitch": 38,
          "onset": 117.5,
          "duration": 0.5,
          "velocity": 100
        },
        {
          "pitch": 37,
          "onset": 118.0,
          "duration": 0.5,
          "velocity": 100
        },
        {
          "pitch": 36,
          "onset": 118.5,
          "duration": 0.5,
          "velocity": 100
        },
        {
          "pitch": 35,
          "onset": 119.0,
          "duration": 0.5,
          "velocity": 100
        },
        {
          "pitch": 34,
          "onset": 119.5,
          "duration": 0.5,
          "velocity": 100
        },
        {
          "pitch": 35,
          "onset": 120.0,
          "duration": 0.5,
          "velocity": 100
        },
        {
          "pitch": 47,
          "onset": 122.5,
          "duration": 1.0,
          "velocity": 100
        },
        {
          "pitch": 40,
          "onset": 123.5,
          "duration": 0.125,
          "velocity": 100
        },
        {
          "pitch": 39,
          "onset": 123.625,
          "duration": 0.375,
          "velocity": 100
        },
        {
          "pitch": 42,
          "onset": 124.0,
          "duration": 0.125,
          "velocity": 100
        },
        {
          "pitch": 40,
          "onset": 124.125,
          "duration": 0.375,
          "velocity": 100
        },
        {
          "pitch": 43,
          "onset": 124.5,
          "duration": 0.125,
          "velocity": 100
        },
        {
          "pitch": 42,
          "onset": 124.625,
          "duration": 0.375,
          "velocity": 100
        },
        {
          "pitch": 45,
          "onset": 125.0,
          "duration": 0.125,
          "velocity": 100
        },
        {
          "pitch": 43,
          "onset": 125.125,
          "duration": 0.375,
          "velocity": 100
        },
        {
          "pitch": 47,
          "onset": 125.5,
          "duration": 0.125,
          "velocity": 100
        },
        {
          "pitch": 46,
          "onset": 125.625,
          "duration": 0.375,
          "velocity": 100
        },
        {
          "pitch": 47,
          "onset": 126.0,
          "duration": 0.5,
          "velocity": 100
        },
        {
          "pitch": 35,
          "onset": 126.5,
          "duration": 0.5,
          "velocity": 100
        },
        {
          "pitch": 47,
          "onset": 127.0,
          "duration": 0.5,
          "velocity": 100
        },
        {
          "pitch": 48,
          "onset": 127.5,
          "duration": 0.5,
          "velocity": 100
        },
        {
          "pitch": 47,
          "onset": 128.0,
          "duration": 0.5,
          "velocity": 100
        },
        {
          "pitch": 45,
          "onset": 128.5,
          "duration": 0.5,
          "velocity": 100
        },
        {
          "pitch": 44,
          "onset": 129.0,
          "duration": 0.5,
          "velocity": 100
        },
        {
          "pitch": 40,
          "onset": 129.5,
          "duration": 0.5,
          "velocity": 100
        },
        {
          "pitch": 45,
          "onset": 130.0,
          "duration": 0.5,
          "velocity": 100
        },
        {
          "pitch": 47,
          "onset": 130.5,
          "duration": 0.5,
          "velocity": 100
        },
        {
          "pitch": 45,
          "onset": 131.0,
          "duration": 0.5,
          "velocity": 100
        },
        {
          "pitch": 43,
          "onset": 131.5,
          "duration": 0.5,
          "velocity": 100
        },
        {
          "pitch": 42,
          "onset": 132.0,
          "duration": 0.5,
          "velocity": 100
        },
        {
          "pitch": 40,
          "onset": 132.5,
          "duration": 0.5,
          "velocity": 100
        },
        {
          "pitch": 42,
          "onset": 133.0,
          "duration": 0.5,
          "velocity": 100
        },
        {
          "pitch": 47,
          "onset": 133.5,
          "duration": 0.5,
          "velocity": 100
        },
        {
          "pitch": 45,
          "onset": 134.0,
          "duration": 0.5,
          "velocity": 100
        },
        {
          "pitch": 47,
          "onset": 134.5,
          "duration": 0.5,
          "velocity": 100
        },
        {
          "pitch": 40,
          "onset": 135.0,
          "duration": 0.5,
          "velocity": 100
        },
        {
          "pitch": 28,
          "onset": 135.5,
          "duration": 0.5,
          "velocity": 100
        },
        {
          "pitch": 29,
          "onset": 136.0,
          "duration": 0.5,
          "velocity": 100
        },
        {
          "pitch": 30,
          "onset": 136.5,
          "duration": 0.5,
          "velocity": 100
        },
        {
          "pitch": 31,
          "onset": 137.0,
          "duration": 0.5,
          "velocity": 100
        },
        {
          "pitch": 32,
          "onset": 137.5,
          "duration": 0.5,
          "velocity": 100
        },
        {
          "pitch": 33,
          "onset": 138.0,
          "duration": 0.5,
          "velocity": 100
        },
        {
          "pitch": 35,
          "onset": 138.5,
          "duration": 0.5,
          "velocity": 100
        },
        {
          "pitch": 36,
          "onset": 139.0,
          "duration": 0.5,
          "velocity": 100
        },
        {
          "pitch": 38,
          "onset": 139.5,
          "duration": 0.5,
          "velocity": 100
        },
        {
          "pitch": 40,
          "onset": 140.0,
          "duration": 0.5,
          "velocity": 100
        },
        {
          "pitch": 28,
          "onset": 140.5,
          "duration": 0.5,
          "velocity": 100
        },
        {
          "pitch": 33,
          "onset": 141.0,
          "duration": 0.5,
          "velocity": 100
        },
        {
          "pitch": 35,
          "onset": 141.5,
          "duration": 0.5,
          "velocity": 100
        },
        {
          "pitch": 36,
          "onset": 142.0,
          "duration": 0.5,
          "velocity": 100
        },
        {
          "pitch": 37,
          "onset": 142.5,
          "duration": 0.5,
          "velocity": 100
        },
        {
          "pitch": 38,
          "onset": 143.0,
          "duration": 0.5,
          "velocity": 100
        },
        {
          "pitch": 39,
          "onset": 143.5,
          "duration": 0.5,
          "velocity": 100
        },
        {
          "pitch": 40,
          "onset": 144.0,
          "duration": 0.5,
          "velocity": 100
        },
        {
          "pitch": 42,
          "onset": 144.5,
          "duration": 0.5,
          "velocity": 100
        },
        {
          "pitch": 43,
          "onset": 145.0,
          "duration": 0.5,
          "velocity": 100
        },
        {
          "pitch": 45,
          "onset": 145.5,
          "duration": 0.5,
          "velocity": 100
        },
        {
          "pitch": 47,
          "onset": 146.0,
          "duration": 0.5,
          "velocity": 100
        },
        {
          "pitch": 35,
          "onset": 146.5,
          "duration": 0.5,
          "velocity": 100
        },
        {
          "pitch": 36,
          "onset": 147.0,
          "duration": 0.5,
          "velocity": 100
        },
        {
          "pitch": 37,
          "onset": 147.5,
          "duration": 0.5,
          "velocity": 100
        },
        {
          "pitch": 33,
          "onset": 148.5,
          "duration": 0.5,
          "velocity": 100
        },
        {
          "pitch": 35,
          "onset": 149.0,
          "duration": 0.5,
          "velocity": 100
        },
        {
          "pitch": 37,
          "onset": 149.5,
          "duration": 0.5,
          "velocity": 100
        },
        {
          "pitch": 38,
          "onset": 150.0,
          "duration": 0.5,
          "velocity": 100
        },
        {
          "pitch": 39,
          "onset": 150.5,
          "duration": 0.5,
          "velocity": 100
        },
        {
          "pitch": 35,
          "onset": 151.5,
          "duration": 0.5,
          "velocity": 100
        },
        {
          "pitch": 37,
          "onset": 152.0,
          "duration": 0.5,
          "velocity": 100
        },
        {
          "pitch": 39,
          "onset": 152.5,
          "duration": 0.5,
          "velocity": 100
        },
        {
          "pitch": 40,
          "onset": 153.0,
          "duration": 0.5,
          "velocity": 100
        },
        {
          "pitch": 42,
          "onset": 153.5,
          "duration": 0.5,
          "velocity": 100
        },
        {
          "pitch": 45,
          "onset": 154.0,
          "duration": 0.5,
          "velocity": 100
        },
        {
          "pitch": 42,
          "onset": 154.5,
          "duration": 0.5,
          "velocity": 100
        },
        {
          "pitch": 43,
          "onset": 155.0,
          "duration": 0.5,
          "velocity": 100
        },
        {
          "pitch": 44,
          "onset": 155.5,
          "duration": 0.5,
          "velocity": 100
        },
        {
          "pitch": 45,
          "onset": 156.0,
          "duration": 0.5,
          "velocity": 100
        },
        {
          "pitch": 46,
          "onset": 156.5,
          "duration": 0.5,
          "velocity": 100
        },
        {
          "pitch": 47,
          "onset": 157.0,
          "duration": 0.5,
          "velocity": 100
        },
        {
          "pitch": 42,
          "onset": 157.5,
          "duration": 0.5,
          "velocity": 100
        },
        {
          "pitch": 43,
          "onset": 158.0,
          "duration": 0.5,
          "velocity": 100
        },
        {
          "pitch": 45,
          "onset": 158.5,
          "duration": 0.5,
          "velocity": 100
        },
        {
          "pitch": 38,
          "onset": 159.0,
          "duration": 0.5,
          "velocity": 100
        },
        {
          "pitch": 47,
          "onset": 159.5,
          "duration": 0.5,
          "velocity": 100
        },
        {
          "pitch": 46,
          "onset": 160.0,
          "duration": 0.5,
          "velocity": 100
        },
        {
          "pitch": 45,
          "onset": 160.5,
          "duration": 0.5,
          "velocity": 100
        },
        {
          "pitch": 44,
          "onset": 161.0,
          "duration": 0.5,
          "velocity": 100
        },
        {
          "pitch": 43,
          "onset": 161.5,
          "duration": 0.5,
          "velocity": 100
        },
        {
          "pitch": 42,
          "onset": 162.5,
          "duration": 0.5,
          "velocity": 100
        },
        {
          "pitch": 41,
          "onset": 163.0,
          "duration": 0.5,
          "velocity": 100
        },
        {
          "pitch": 40,
          "onset": 163.5,
          "duration": 0.5,
          "velocity": 100
        },
        {
          "pitch": 42,
          "onset": 164.0,
          "duration": 0.5,
          "velocity": 100
        },
        {
          "pitch": 42,
          "onset": 164.5,
          "duration": 0.5,
          "velocity": 100
        },
        {
          "pitch": 38,
          "onset": 165.5,
          "duration": 0.5,
          "velocity": 100
        },
        {
          "pitch": 40,
          "onset": 166.0,
          "duration": 0.5,
          "velocity": 100
        },
        {
          "pitch": 37,
          "onset": 166.5,
          "duration": 0.5,
          "velocity": 100
        },
        {
          "pitch": 42,
          "onset": 167.0,
          "duration": 0.5,
          "velocity": 100
        },
        {
          "pitch": 30,
          "onset": 167.5,
          "duration": 0.5,
          "velocity": 100
        },
        {
          "pitch": 35,
          "onset": 168.0,
          "duration": 1.0,
          "velocity": 100
        },
        {
          "pitch": 35,
          "onset": 169.5,
          "duration": 0.5,
          "velocity": 100
        },
        {
          "pitch": 30,
          "onset": 170.0,
          "duration": 0.5,
          "velocity": 100
        },
        {
          "pitch": 42,
          "onset": 170.5,
          "duration": 0.5,
          "velocity": 100
        },
        {
          "pitch": 43,
          "onset": 171.0,
          "duration": 0.5,
          "velocity": 100
        },
        {
          "pitch": 44,
          "onset": 171.5,
          "duration": 0.5,
          "velocity": 100
        },
        {
          "pitch": 46,
          "onset": 172.5,
          "duration": 0.5,
          "velocity": 100
        },
        {
          "pitch": 47,
          "onset": 173.0,
          "duration": 0.5,
          "velocity": 100
        },
        {
          "pitch": 49,
          "onset": 173.5,
          "duration": 0.5,
          "velocity": 100
        },
        {
          "pitch": 42,
          "onset": 174.0,
          "duration": 0.5,
          "velocity": 100
        },
        {
          "pitch": 43,
          "onset": 174.5,
          "duration": 0.5,
          "velocity": 100
        },
        {
          "pitch": 41,
          "onset": 175.5,
          "duration": 0.5,
          "velocity": 100
        },
        {
          "pitch": 42,
          "onset": 176.0,
          "duration": 0.5,
          "velocity": 100
        },
        {
          "pitch": 37,
          "onset": 176.5,
          "duration": 0.5,
          "velocity": 100
        },
        {
          "pitch": 39,
          "onset": 177.0,
          "duration": 0.5,
          "velocity": 100
        },
        {
          "pitch": 45,
          "onset": 177.5,
          "duration": 0.5,
          "velocity": 100
        },
        {
          "pitch": 43,
          "onset": 178.0,
          "duration": 0.5,
          "velocity": 100
        },
        {
          "pitch": 42,
          "onset": 178.5,
          "duration": 0.5,
          "velocity": 100
        },
        {
          "pitch": 40,
          "onset": 179.0,
          "duration": 0.5,
          "velocity": 100
        },
        {
          "pitch": 48,
          "onset": 179.5,
          "duration": 0.5,
          "velocity": 100
        },
        {
          "pitch": 47,
          "onset": 180.0,
          "duration": 0.5,
          "velocity": 100
        },
        {
          "pitch": 39,
          "onset": 180.5,
          "duration": 0.5,
          "velocity": 100
        },
        {
          "pitch": 40,
          "onset": 181.0,
          "duration": 0.5,
          "velocity": 100
        },
        {
          "pitch": 31,
          "onset": 181.5,
          "duration": 0.5,
          "velocity": 100
        },
        {
          "pitch": 35,
          "onset": 182.0,
          "duration": 0.5,
          "velocity": 100
        },
        {
          "pitch": 28,
          "onset": 182.5,
          "duration": 0.5,
          "velocity": 100
        },
        {
          "pitch": 45,
          "onset": 183.5,
          "duration": 0.5,
          "velocity": 100
        },
        {
          "pitch": 39,
          "onset": 184.0,
          "duration": 0.5,
          "velocity": 100
        },
        {
          "pitch": 42,
          "onset": 184.5,
          "duration": 0.5,
          "velocity": 100
        },
        {
          "pitch": 43,
          "onset": 185.0,
          "duration": 0.5,
          "velocity": 100
        },
        {
          "pitch": 45,
          "onset": 185.5,
          "duration": 0.5,
          "velocity": 100
        },
        {
          "pitch": 47,
          "onset": 186.0,
          "duration": 0.5,
          "velocity": 100
        },
        {
          "pitch": 48,
          "onset": 186.5,
          "duration": 0.5,
          "velocity": 100
        },
        {
          "pitch": 47,
          "onset": 187.0,
          "duration": 0.5,
          "velocity": 100
        },
        {
          "pitch": 45,
          "onset": 187.5,
          "duration": 0.5,
          "velocity": 100
        },
        {
          "pitch": 47,
          "onset": 188.0,
          "duration": 0.5,
          "velocity": 100
        },
        {
          "pitch": 42,
          "onset": 188.5,
          "duration": 0.5,
          "velocity": 100
        },
        {
          "pitch": 44,
          "onset": 189.0,
          "duration": 0.5,
          "velocity": 100
        },
        {
          "pitch": 40,
          "onset": 189.5,
          "duration": 0.5,
          "velocity": 100
        },
        {
          "pitch": 45,
          "onset": 190.0,
          "duration": 0.5,
          "velocity": 100
        },
        {
          "pitch": 40,
          "onset": 190.5,
          "duration": 0.5,
          "velocity": 100
        },
        {
          "pitch": 42,
          "onset": 191.0,
          "duration": 0.5,
          "velocity": 100
        },
        {
          "pitch": 38,
          "onset": 191.5,
          "duration": 0.5,
          "velocity": 100
        },
        {
          "pitch": 43,
          "onset": 192.0,
          "duration": 0.5,
          "velocity": 100
        },
        {
          "pitch": 42,
          "onset": 192.5,
          "duration": 0.5,
          "velocity": 100
        },
        {
          "pitch": 40,
          "onset": 193.0,
          "duration": 0.5,
          "velocity": 100
        },
        {
          "pitch": 38,
          "onset": 193.5,
          "duration": 1.0,
          "velocity": 100
        },
        {
          "pitch": 37,
          "onset": 194.5,
          "duration": 0.5,
          "velocity": 100
        },
        {
          "pitch": 38,
          "onset": 195.0,
          "duration": 0.5,
          "velocity": 100
        },
        {
          "pitch": 42,
          "onset": 195.5,
          "duration": 0.5,
          "velocity": 100
        },
        {
          "pitch": 43,
          "onset": 196.0,
          "duration": 0.5,
          "velocity": 100
        },
        {
          "pitch": 44,
          "onset": 196.5,
          "duration": 0.5,
          "velocity": 100
        },
        {
          "pitch": 45,
          "onset": 197.0,
          "duration": 0.5,
          "velocity": 100
        },
        {
          "pitch": 46,
          "onset": 197.5,
          "duration": 0.5,
          "velocity": 100
        },
        {
          "pitch": 47,
          "onset": 198.0,
          "duration": 0.5,
          "velocity": 100
        },
        {
          "pitch": 35,
          "onset": 198.5,
          "duration": 0.5,
          "velocity": 100
        },
        {
          "pitch": 35,
          "onset": 199.5,
          "duration": 0.5,
          "velocity": 100
        },
        {
          "pitch": 40,
          "onset": 200.0,
          "duration": 0.5,
          "velocity": 100
        },
        {
          "pitch": 42,
          "onset": 200.5,
          "duration": 0.5,
          "velocity": 100
        },
        {
          "pitch": 43,
          "onset": 201.0,
          "duration": 0.5,
          "velocity": 100
        },
        {
          "pitch": 31,
          "onset": 201.5,
          "duration": 0.5,
          "velocity": 100
        },
        {
          "pitch": 43,
          "onset": 202.0,
          "duration": 0.5,
          "velocity": 100
        },
        {
          "pitch": 42,
          "onset": 202.5,
          "duration": 0.5,
          "velocity": 100
        },
        {
          "pitch": 40,
          "onset": 203.0,
          "duration": 0.5,
          "velocity": 100
        },
        {
          "pitch": 37,
          "onset": 203.5,
          "duration": 0.5,
          "velocity": 100
        },
        {
          "pitch": 42,
          "onset": 204.0,
          "duration": 0.5,
          "velocity": 100
        },
        {
          "pitch": 30,
          "onset": 204.5,
          "duration": 0.5,
          "velocity": 100
        },
        {
          "pitch": 42,
          "onset": 205.0,
          "duration": 0.5,
          "velocity": 100
        },
        {
          "pitch": 40,
          "onset": 205.5,
          "duration": 0.5,
          "velocity": 100
        },
        {
          "pitch": 39,
          "onset": 206.0,
          "duration": 0.5,
          "velocity": 100
        },
        {
          "pitch": 35,
          "onset": 206.5,
          "duration": 0.5,
          "velocity": 100
        },
        {
          "pitch": 40,
          "onset": 207.0,
          "duration": 0.5,
          "velocity": 100
        },
        {
          "pitch": 28,
          "onset": 207.5,
          "duration": 0.5,
          "velocity": 100
        },
        {
          "pitch": 40,
          "onset": 208.0,
          "duration": 0.5,
          "velocity": 100
        },
        {
          "pitch": 38,
          "onset": 208.5,
          "duration": 0.5,
          "velocity": 100
        },
        {
          "pitch": 36,
          "onset": 209.0,
          "duration": 0.5,
          "velocity": 100
        },
        {
          "pitch": 35,
          "onset": 209.5,
          "duration": 0.5,
          "velocity": 100
        },
        {
          "pitch": 36,
          "onset": 210.0,
          "duration": 0.5,
          "velocity": 100
        },
        {
          "pitch": 33,
          "onset": 210.5,
          "duration": 0.5,
          "velocity": 100
        },
        {
          "pitch": 38,
          "onset": 211.0,
          "duration": 0.5,
          "velocity": 100
        },
        {
          "pitch": 36,
          "onset": 211.5,
          "duration": 0.5,
          "velocity": 100
        },
        {
          "pitch": 38,
          "onset": 212.0,
          "duration": 0.5,
          "velocity": 100
        },
        {
          "pitch": 26,
          "onset": 212.5,
          "duration": 0.5,
          "velocity": 100
        },
        {
          "pitch": 31,
          "onset": 213.0,
          "duration": 0.5,
          "velocity": 100
        },
        {
          "pitch": 35,
          "onset": 213.5,
          "duration": 0.5,
          "velocity": 100
        },
        {
          "pitch": 38,
          "onset": 214.0,
          "duration": 0.5,
          "velocity": 100
        },
        {
          "pitch": 43,
          "onset": 214.5,
          "duration": 0.5,
          "velocity": 100
        },
        {
          "pitch": 41,
          "onset": 215.0,
          "duration": 0.5,
          "velocity": 100
        },
        {
          "pitch": 40,
          "onset": 215.5,
          "duration": 0.5,
          "velocity": 100
        },
        {
          "pitch": 38,
          "onset": 216.0,
          "duration": 0.5,
          "velocity": 100
        },
        {
          "pitch": 41,
          "onset": 216.5,
          "duration": 0.5,
          "velocity": 100
        },
        {
          "pitch": 45,
          "onset": 217.0,
          "duration": 0.5,
          "velocity": 100
        },
        {
          "pitch": 50,
          "onset": 217.5,
          "duration": 0.5,
          "velocity": 100
        },
        {
          "pitch": 48,
          "onset": 218.0,
          "duration": 0.5,
          "velocity": 100
        },
        {
          "pitch": 47,
          "onset": 218.5,
          "duration": 0.5,
          "velocity": 100
        },
        {
          "pitch": 33,
          "onset": 219.0,
          "duration": 0.5,
          "velocity": 100
        },
        {
          "pitch": 36,
          "onset": 219.5,
          "duration": 0.5,
          "velocity": 100
        },
        {
          "pitch": 40,
          "onset": 220.0,
          "duration": 0.5,
          "velocity": 100
        },
        {
          "pitch": 45,
          "onset": 220.5,
          "duration": 0.5,
          "velocity": 100
        },
        {
          "pitch": 43,
          "onset": 221.0,
          "duration": 0.5,
          "velocity": 100
        },
        {
          "pitch": 42,
          "onset": 221.5,
          "duration": 0.5,
          "velocity": 100
        },
        {
          "pitch": 28,
          "onset": 222.0,
          "duration": 0.5,
          "velocity": 100
        },
        {
          "pitch": 31,
          "onset": 222.5,
          "duration": 0.5,
          "velocity": 100
        },
        {
          "pitch": 35,
          "onset": 223.0,
          "duration": 0.5,
          "velocity": 100
        },
        {
          "pitch": 40,
          "onset": 223.5,
          "duration": 0.5,
          "velocity": 100
        },
        {
          "pitch": 38,
          "onset": 224.0,
          "duration": 0.5,
          "velocity": 100
        },
        {
          "pitch": 37,
          "onset": 224.5,
          "duration": 0.5,
          "velocity": 100
        },
        {
          "pitch": 35,
          "onset": 225.0,
          "duration": 0.5,
          "velocity": 100
        },
        {
          "pitch": 38,
          "onset": 225.5,
          "duration": 0.5,
          "velocity": 100
        },
        {
          "pitch": 42,
          "onset": 226.0,
          "duration": 0.5,
          "velocity": 100
        },
        {
          "pitch": 45,
          "onset": 226.5,
          "duration": 0.5,
          "velocity": 100
        },
        {
          "pitch": 44,
          "onset": 227.0,
          "duration": 0.5,
          "velocity": 100
        },
        {
          "pitch": 40,
          "onset": 227.5,
          "duration": 0.5,
          "velocity": 100
        },
        {
          "pitch": 33,
          "onset": 228.0,
          "duration": 0.5,
          "velocity": 100
        },
        {
          "pitch": 36,
          "onset": 228.5,
          "duration": 0.5,
          "velocity": 100
        },
        {
          "pitch": 40,
          "onset": 229.0,
          "duration": 0.5,
          "velocity": 100
        },
        {
          "pitch": 43,
          "onset": 229.5,
          "duration": 0.5,
          "velocity": 100
        },
        {
          "pitch": 42,
          "onset": 230.0,
          "duration": 0.5,
          "velocity": 100
        },
        {
          "pitch": 38,
          "onset": 230.5,
          "duration": 0.5,
          "velocity": 100
        },
        {
          "pitch": 31,
          "onset": 231.0,
          "duration": 0.5,
          "velocity": 100
        },
        {
          "pitch": 35,
          "onset": 231.5,
          "duration": 0.5,
          "velocity": 100
        },
        {
          "pitch": 36,
          "onset": 232.0,
          "duration": 0.5,
          "velocity": 100
        },
        {
          "pitch": 37,
          "onset": 232.5,
          "duration": 0.5,
          "velocity": 100
        },
        {
          "pitch": 38,
          "onset": 233.0,
          "duration": 0.5,
          "velocity": 100
        },
        {
          "pitch": 39,
          "onset": 233.5,
          "duration": 0.5,
          "velocity": 100
        },
        {
          "pitch": 40,
          "onset": 234.0,
          "duration": 0.5,
          "velocity": 100
        },
        {
          "pitch": 45,
          "onset": 234.5,
          "duration": 0.5,
          "velocity": 100
        },
        {
          "pitch": 42,
          "onset": 235.0,
          "duration": 0.5,
          "velocity": 100
        },
        {
          "pitch": 40,
          "onset": 235.5,
          "duration": 0.5,
          "velocity": 100
        },
        {
          "pitch": 39,
          "onset": 236.0,
          "duration": 0.5,
          "velocity": 100
        },
        {
          "pitch": 35,
          "onset": 236.5,
          "duration": 0.5,
          "velocity": 100
        },
        {
          "pitch": 40,
          "onset": 237.0,
          "duration": 0.5,
          "velocity": 100
        },
        {
          "pitch": 28,
          "onset": 237.5,
          "duration": 0.5,
          "velocity": 100
        },
        {
          "pitch": 40,
          "onset": 238.5,
          "duration": 1.0,
          "velocity": 100
        },
        {
          "pitch": 39,
          "onset": 239.5,
          "duration": 0.5,
          "velocity": 100
        },
        {
          "pitch": 40,
          "onset": 240.0,
          "duration": 0.5,
          "velocity": 100
        },
        {
          "pitch": 36,
          "onset": 240.5,
          "duration": 0.5,
          "velocity": 100
        },
        {
          "pitch": 33,
          "onset": 241.0,
          "duration": 0.5,
          "velocity": 100
        },
        {
          "pitch": 30,
          "onset": 241.5,
          "duration": 0.5,
          "velocity": 100
        },
        {
          "pitch": 35,
          "onset": 242.0,
          "duration": 0.5,
          "velocity": 100
        },
        {
          "pitch": 47,
          "onset": 242.5,
          "duration": 0.5,
          "velocity": 100
        },
        {
          "pitch": 48,
          "onset": 243.0,
          "duration": 0.5,
          "velocity": 100
        },
        {
          "pitch": 35,
          "onset": 243.5,
          "duration": 0.5,
          "velocity": 100
        },
        {
          "pitch": 36,
          "onset": 244.0,
          "duration": 0.5,
          "velocity": 100
        },
        {
          "pitch": 37,
          "onset": 244.5,
          "duration": 0.5,
          "velocity": 100
        },
        {
          "pitch": 38,
          "onset": 245.0,
          "duration": 0.5,
          "velocity": 100
        },
        {
          "pitch": 39,
          "onset": 245.5,
          "duration": 0.5,
          "velocity": 100
        },
        {
          "pitch": 40,
          "onset": 246.0,
          "duration": 0.5,
          "velocity": 100
        },
        {
          "pitch": 43,
          "onset": 246.5,
          "duration": 0.5,
          "velocity": 100
        },
        {
          "pitch": 45,
          "onset": 247.0,
          "duration": 0.5,
          "velocity": 100
        },
        {
          "pitch": 42,
          "onset": 247.5,
          "duration": 0.5,
          "velocity": 100
        },
        {
          "pitch": 47,
          "onset": 248.0,
          "duration": 0.5,
          "velocity": 100
        },
        {
          "pitch": 45,
          "onset": 248.5,
          "duration": 0.5,
          "velocity": 100
        },
        {
          "pitch": 44,
          "onset": 249.0,
          "duration": 0.5,
          "velocity": 100
        },
        {
          "pitch": 47,
          "onset": 249.5,
          "duration": 0.5,
          "velocity": 100
        },
        {
          "pitch": 44,
          "onset": 250.0,
          "duration": 0.5,
          "velocity": 100
        },
        {
          "pitch": 40,
          "onset": 250.5,
          "duration": 0.5,
          "velocity": 100
        },
        {
          "pitch": 28,
          "onset": 251.5,
          "duration": 0.5,
          "velocity": 100
        },
        {
          "pitch": 33,
          "onset": 252.0,
          "duration": 0.5,
          "velocity": 100
        },
        {
          "pitch": 40,
          "onset": 252.5,
          "duration": 0.5,
          "velocity": 100
        },
        {
          "pitch": 37,
          "onset": 253.0,
          "duration": 0.5,
          "velocity": 100
        },
        {
          "pitch": 33,
          "onset": 253.5,
          "duration": 0.5,
          "velocity": 100
        },
        {
          "pitch": 33,
          "onset": 254.5,
          "duration": 0.5,
          "velocity": 100
        },
        {
          "pitch": 38,
          "onset": 255.0,
          "duration": 0.5,
          "velocity": 100
        },
        {
          "pitch": 45,
          "onset": 255.5,
          "duration": 0.5,
          "velocity": 100
        },
        {
          "pitch": 42,
          "onset": 256.0,
          "duration": 0.5,
          "velocity": 100
        },
        {
          "pitch": 38,
          "onset": 256.5,
          "duration": 0.5,
          "velocity": 100
        },
        {
          "pitch": 26,
          "onset": 257.5,
          "duration": 0.5,
          "velocity": 100
        },
        {
          "pitch": 31,
          "onset": 258.0,
          "duration": 0.5,
          "velocity": 100
        },
        {
          "pitch": 38,
          "onset": 258.5,
          "duration": 0.5,
          "velocity": 100
        },
        {
          "pitch": 35,
          "onset": 259.0,
          "duration": 0.5,
          "velocity": 100
        },
        {
          "pitch": 31,
          "onset": 259.5,
          "duration": 0.5,
          "velocity": 100
        },
        {
          "pitch": 31,
          "onset": 260.5,
          "duration": 0.5,
          "velocity": 100
        },
        {
          "pitch": 36,
          "onset": 261.0,
          "duration": 0.5,
          "velocity": 100
        },
        {
          "pitch": 35,
          "onset": 261.5,
          "duration": 0.5,
          "velocity": 100
        },
        {
          "pitch": 33,
          "onset": 262.0,
          "duration": 0.5,
          "velocity": 100
        },
        {
          "pitch": 31,
          "onset": 262.5,
          "duration": 0.5,
          "velocity": 100
        },
        {
          "pitch": 30,
          "onset": 263.0,
          "duration": 0.5,
          "velocity": 100
        },
        {
          "pitch": 28,
          "onset": 263.5,
          "duration": 0.5,
          "velocity": 100
        },
        {
          "pitch": 27,
          "onset": 264.0,
          "duration": 0.5,
          "velocity": 100
        },
        {
          "pitch": 35,
          "onset": 264.5,
          "duration": 0.5,
          "velocity": 100
        },
        {
          "pitch": 36,
          "onset": 265.0,
          "duration": 0.5,
          "velocity": 100
        },
        {
          "pitch": 37,
          "onset": 265.5,
          "duration": 0.5,
          "velocity": 100
        },
        {
          "pitch": 38,
          "onset": 266.0,
          "duration": 0.5,
          "velocity": 100
        },
        {
          "pitch": 39,
          "onset": 266.5,
          "duration": 0.5,
          "velocity": 100
        },
        {
          "pitch": 40,
          "onset": 267.0,
          "duration": 0.5,
          "velocity": 100
        },
        {
          "pitch": 38,
          "onset": 267.5,
          "duration": 0.5,
          "velocity": 100
        },
        {
          "pitch": 37,
          "onset": 268.0,
          "duration": 0.5,
          "velocity": 100
        },
        {
          "pitch": 36,
          "onset": 268.5,
          "duration": 0.5,
          "velocity": 100
        },
        {
          "pitch": 35,
          "onset": 269.0,
          "duration": 0.5,
          "velocity": 100
        },
        {
          "pitch": 34,
          "onset": 269.5,
          "duration": 0.5,
          "velocity": 100
        },
        {
          "pitch": 35,
          "onset": 270.0,
          "duration": 2.9688,
          "velocity": 100
        },
        {
          "pitch": 28,
          "onset": 273.0,
          "duration": 4.9688,
          "velocity": 100
        }
      ]
    }
  ]
}