{
  "bwv": 619,
  "category": "orgelbuchlein",
  "instrument": "organ",
  "form": "",
  "movement": null,
  "ticks_per_beat": 480,
  "duration_seconds": 84.4,
  "tempos": [
    {
      "tick": 0,
      "bpm": 70
    },
    {
      "tick": 37440,
      "bpm": 70
    },
    {
      "tick": 40320,
      "bpm": 70
    },
    {
      "tick": 42240,
      "bpm": 65
    },
    {
      "tick": 42720,
      "bpm": 50
    }
  ],
  "time_signatures": [
    {
      "tick": 0,
      "numerator": 6,
      "denominator": 4
    }
  ],
  "track_type": "manual",
  "voice_count": 2,
  "total_notes": 209,
  "tracks": [
    {
      "role": "manual",
      "notes": [
        {
          "pitch": 77,
          "onset": 1.0,
          "duration": 1.0,
          "velocity": 60
        },
        {
          "pitch": 76,
          "onset": 2.0,
          "duration": 1.0,
          "velocity": 60
        },
        {
          "pitch": 74,
          "onset": 3.0,
          "duration": 1.0,
          "velocity": 60
        },
        {
          "pitch": 72,
          "onset": 4.0,
          "duration": 1.0,
          "velocity": 60
        },
        {
          "pitch": 70,
          "onset": 5.0,
          "duration": 1.0,
          "velocity": 60
        },
        {
          "pitch": 69,
          "onset": 6.0,
          "duration": 1.0,
          "velocity": 60
        },
        {
          "pitch": 65,
          "onset": 7.0,
          "duration": 1.0,
          "velocity": 60
        },
        {
          "pitch": 74,
          "onset": 7.0,
          "duration": 1.0,
          "velocity": 60
        },
        {
          "pitch": 64,
          "onset": 8.0,
          "duration": 1.0,
          "velocity": 60
        },
        {
          "pitch": 72,
          "onset": 8.0,
          "duration": 1.0,
          "velocity": 60
        },
        {
          "pitch": 62,
          "onset": 9.0,
          "duration": 1.0,
          "velocity": 60
        },
        {
          "pitch": 70,
          "onset": 9.0,
          "duration": 1.0,
          "velocity": 60
        },
        {
          "pitch": 60,
          "onset": 10.0,
          "duration": 1.0,
          "velocity": 60
        },
        {
          "pitch": 69,
          "onset": 10.0,
          "duration": 1.0,
          "velocity": 60
        },
        {
          "pitch": 58,
          "onset": 11.0,
          "duration": 1.0,
          "velocity": 60
        },
        {
          "pitch": 67,
          "onset": 11.0,
          "duration": 1.0,
          "velocity": 60
        },
        {
          "pitch": 57,
          "onset": 12.0,
          "duration": 1.0,
          "velocity": 60
        },
        {
          "pitch": 65,
          "onset": 12.0,
          "duration": 1.9688,
          "velocity": 60
        },
        {
          "pitch": 62,
          "onset": 13.0,
          "duration": 1.0,
          "velocity": 60
        },
        {
          "pitch": 60,
          "onset": 14.0,
          "duration": 1.0,
          "velocity": 60
        },
        {
          "pitch": 72,
          "onset": 14.0,
          "duration": 5.0,
          "velocity": 60
        },
        {
          "pitch": 58,
          "onset": 15.0,
          "duration": 1.0,
          "velocity": 60
        },
        {
          "pitch": 57,
          "onset": 16.0,
          "duration": 1.0,
          "velocity": 60
        },
        {
          "pitch": 55,
          "onset": 17.0,
          "duration": 1.0,
          "velocity": 60
        },
        {
          "pitch": 53,
          "onset": 18.0,
          "duration": 3.9688,
          "velocity": 60
        },
        {
          "pitch": 77,
          "onset": 19.0,
          "duration": 1.0,
          "velocity": 60
        },
        {
          "pitch": 76,
          "onset": 20.0,
          "duration": 1.0,
          "velocity": 60
        },
        {
          "pitch": 74,
          "onset": 21.0,
          "duration": 1.0,
          "velocity": 60
        },
        {
          "pitch": 55,
          "onset": 22.0,
          "duration": 1.9688,
          "velocity": 60
        },
        {
          "pitch": 72,
          "onset": 22.0,
          "duration": 1.0,
          "velocity": 60
        },
        {
          "pitch": 70,
          "onset": 23.0,
          "duration": 1.0,
          "velocity": 60
        },
        {
          "pitch": 57,
          "onset": 24.0,
          "duration": 3.9688,
          "velocity": 60
        },
        {
          "pitch": 69,
          "onset": 24.0,
          "duration": 1.0,
          "velocity": 60
        },
        {
          "pitch": 72,
          "onset": 24.0,
          "duration": 3.9688,
          "velocity": 60
        },
        {
          "pitch": 60,
          "onset": 25.0,
          "duration": 1.0,
          "velocity": 60
        },
        {
          "pitch": 64,
          "onset": 25.0,
          "duration": 1.0,
          "velocity": 60
        },
        {
          "pitch": 62,
          "onset": 26.0,
          "duration": 1.0,
          "velocity": 60
        },
        {
          "pitch": 65,
          "onset": 26.0,
          "duration": 1.0,
          "velocity": 60
        },
        {
          "pitch": 64,
          "onset": 27.0,
          "duration": 1.0,
          "velocity": 60
        },
        {
          "pitch": 67,
          "onset": 27.0,
          "duration": 1.0,
          "velocity": 60
        },
        {
          "pitch": 57,
          "onset": 28.0,
          "duration": 1.9688,
          "velocity": 60
        },
        {
          "pitch": 65,
          "onset": 28.0,
          "duration": 1.9688,
          "velocity": 60
        },
        {
          "pitch": 69,
          "onset": 28.0,
          "duration": 1.9688,
          "velocity": 60
        },
        {
          "pitch": 74,
          "onset": 28.0,
          "duration": 1.9688,
          "velocity": 60
        },
        {
          "pitch": 58,
          "onset": 30.0,
          "duration": 5.9688,
          "velocity": 60
        },
        {
          "pitch": 76,
          "onset": 30.0,
          "duration": 3.9688,
          "velocity": 60
        },
        {
          "pitch": 62,
          "onset": 31.0,
          "duration": 1.0,
          "velocity": 60
        },
        {
          "pitch": 65,
          "onset": 31.0,
          "duration": 1.0,
          "velocity": 60
        },
        {
          "pitch": 64,
          "onset": 32.0,
          "duration": 1.0,
          "velocity": 60
        },
        {
          "pitch": 67,
          "onset": 32.0,
          "duration": 1.0,
          "velocity": 60
        },
        {
          "pitch": 65,
          "onset": 33.0,
          "duration": 1.0,
          "velocity": 60
        },
        {
          "pitch": 69,
          "onset": 33.0,
          "duration": 1.0,
          "velocity": 60
        },
        {
          "pitch": 67,
          "onset": 34.0,
          "duration": 1.9688,
          "velocity": 60
        },
        {
          "pitch": 70,
          "onset": 34.0,
          "duration": 1.9688,
          "velocity": 60
        },
        {
          "pitch": 76,
          "onset": 34.0,
          "duration": 1.9688,
          "velocity": 60
        },
        {
          "pitch": 57,
          "onset": 36.0,
          "duration": 3.9688,
          "velocity": 60
        },
        {
          "pitch": 61,
          "onset": 36.0,
          "duration": 1.9688,
          "velocity": 60
        },
        {
          "pitch": 77,
          "onset": 36.0,
          "duration": 5.9688,
          "velocity": 60
        },
        {
          "pitch": 69,
          "onset": 37.0,
          "duration": 1.0,
          "velocity": 60
        },
        {
          "pitch": 62,
          "onset": 38.0,
          "duration": 1.0,
          "velocity": 60
        },
        {
          "pitch": 71,
          "onset": 38.0,
          "duration": 1.0,
          "velocity": 60
        },
        {
          "pitch": 64,
          "onset": 39.0,
          "duration": 1.0,
          "velocity": 60
        },
        {
          "pitch": 73,
          "onset": 39.0,
          "duration": 1.0,
          "velocity": 60
        },
        {
          "pitch": 65,
          "onset": 40.0,
          "duration": 1.0,
          "velocity": 60
        },
        {
          "pitch": 74,
          "onset": 40.0,
          "duration": 1.9688,
          "velocity": 60
        },
        {
          "pitch": 67,
          "onset": 41.0,
          "duration": 1.0,
          "velocity": 60
        },
        {
          "pitch": 57,
          "onset": 42.0,
          "duration": 3.9688,
          "velocity": 60
        },
        {
          "pitch": 69,
          "onset": 42.0,
          "duration": 1.9688,
          "velocity": 60
        },
        {
          "pitch": 76,
          "onset": 42.0,
          "duration": 3.9688,
          "velocity": 60
        },
        {
          "pitch": 81,
          "onset": 43.0,
          "duration": 1.0,
          "velocity": 60
        },
        {
          "pitch": 79,
          "onset": 44.0,
          "duration": 1.0,
          "velocity": 60
        },
        {
          "pitch": 77,
          "onset": 45.0,
          "duration": 1.0,
          "velocity": 60
        },
        {
          "pitch": 55,
          "onset": 46.0,
          "duration": 1.9688,
          "velocity": 60
        },
        {
          "pitch": 76,
          "onset": 46.0,
          "duration": 1.0,
          "velocity": 60
        },
        {
          "pitch": 74,
          "onset": 47.0,
          "duration": 1.0,
          "velocity": 60
        },
        {
          "pitch": 57,
          "onset": 48.0,
          "duration": 3.9688,
          "velocity": 60
        },
        {
          "pitch": 72,
          "onset": 48.0,
          "duration": 3.9688,
          "velocity": 60
        },
        {
          "pitch": 76,
          "onset": 48.0,
          "duration": 3.9688,
          "velocity": 60
        },
        {
          "pitch": 69,
          "onset": 49.0,
          "duration": 1.0,
          "velocity": 60
        },
        {
          "pitch": 67,
          "onset": 50.0,
          "duration": 1.0,
          "velocity": 60
        },
        {
          "pitch": 65,
          "onset": 51.0,
          "duration": 1.0,
          "velocity": 60
        },
        {
          "pitch": 59,
          "onset": 52.0,
          "duration": 1.9688,
          "velocity": 60
        },
        {
          "pitch": 64,
          "onset": 52.0,
          "duration": 1.0,
          "velocity": 60
        },
        {
          "pitch": 68,
          "onset": 52.0,
          "duration": 1.9688,
          "velocity": 60
        },
        {
          "pitch": 74,
          "onset": 52.0,
          "duration": 1.9688,
          "velocity": 60
        },
        {
          "pitch": 62,
          "onset": 53.0,
          "duration": 1.0,
          "velocity": 60
        },
        {
          "pitch": 60,
          "onset": 54.0,
          "duration": 3.9688,
          "velocity": 60
        },
        {
          "pitch": 76,
          "onset": 54.0,
          "duration": 3.9688,
          "velocity": 60
        },
        {
          "pitch": 69,
          "onset": 55.0,
          "duration": 1.0,
          "velocity": 60
        },
        {
          "pitch": 64,
          "onset": 56.0,
          "duration": 1.9688,
          "velocity": 60
        },
        {
          "pitch": 71,
          "onset": 56.0,
          "duration": 1.0,
          "velocity": 60
        },
        {
          "pitch": 73,
          "onset": 57.0,
          "duration": 1.0,
          "velocity": 60
        },
        {
          "pitch": 58,
          "onset": 58.0,
          "duration": 1.9688,
          "velocity": 60
        },
        {
          "pitch": 62,
          "onset": 58.0,
          "duration": 1.9688,
          "velocity": 60
        },
        {
          "pitch": 74,
          "onset": 58.0,
          "duration": 1.9688,
          "velocity": 60
        },
        {
          "pitch": 77,
          "onset": 58.0,
          "duration": 1.9688,
          "velocity": 60
        },
        {
          "pitch": 57,
          "onset": 60.0,
          "duration": 3.9688,
          "velocity": 60
        },
        {
          "pitch": 76,
          "onset": 60.0,
          "duration": 1.9688,
          "velocity": 60
        },
        {
          "pitch": 79,
          "onset": 60.0,
          "duration": 3.9688,
          "velocity": 60
        },
        {
          "pitch": 61,
          "onset": 61.0,
          "duration": 1.0,
          "velocity": 60
        },
        {
          "pitch": 62,
          "onset": 62.0,
          "duration": 1.0,
          "velocity": 60
        },
        {
          "pitch": 73,
          "onset": 62.0,
          "duration": 1.9688,
          "velocity": 60
        },
        {
          "pitch": 64,
          "onset": 63.0,
          "duration": 1.0,
          "velocity": 60
        },
        {
          "pitch": 65,
          "onset": 64.0,
          "duration": 1.0,
          "velocity": 60
        },
        {
          "pitch": 74,
          "onset": 64.0,
          "duration": 1.9688,
          "velocity": 60
        },
        {
          "pitch": 77,
          "onset": 64.0,
          "duration": 1.9688,
          "velocity": 60
        },
        {
          "pitch": 67,
          "onset": 65.0,
          "duration": 1.0,
          "velocity": 60
        },
        {
          "pitch": 57,
          "onset": 66.0,
          "duration": 1.9688,
          "velocity": 60
        },
        {
          "pitch": 69,
          "onset": 66.0,
          "duration": 1.9688,
          "velocity": 60
        },
        {
          "pitch": 73,
          "onset": 66.0,
          "duration": 1.0,
          "velocity": 60
        },
        {
          "pitch": 76,
          "onset": 66.0,
          "duration": 3.9688,
          "velocity": 60
        },
        {
          "pitch": 64,
          "onset": 67.0,
          "duration": 1.0,
          "velocity": 60
        },
        {
          "pitch": 55,
          "onset": 68.0,
          "duration": 1.9688,
          "velocity": 60
        },
        {
          "pitch": 65,
          "onset": 68.0,
          "duration": 1.0,
          "velocity": 60
        },
        {
          "pitch": 67,
          "onset": 69.0,
          "duration": 1.0,
          "velocity": 60
        },
        {
          "pitch": 53,
          "onset": 70.0,
          "duration": 1.9688,
          "velocity": 60
        },
        {
          "pitch": 69,
          "onset": 70.0,
          "duration": 1.0,
          "velocity": 60
        },
        {
          "pitch": 71,
          "onset": 71.0,
          "duration": 1.0,
          "velocity": 60
        },
        {
          "pitch": 57,
          "onset": 72.0,
          "duration": 3.9688,
          "velocity": 60
        },
        {
          "pitch": 72,
          "onset": 72.0,
          "duration": 1.9688,
          "velocity": 60
        },
        {
          "pitch": 76,
          "onset": 72.0,
          "duration": 1.9688,
          "velocity": 60
        },
        {
          "pitch": 59,
          "onset": 73.0,
          "duration": 1.0,
          "velocity": 60
        },
        {
          "pitch": 60,
          "onset": 74.0,
          "duration": 1.0,
          "velocity": 60
        },
        {
          "pitch": 71,
          "onset": 74.0,
          "duration": 1.9688,
          "velocity": 60
        },
        {
          "pitch": 74,
          "onset": 74.0,
          "duration": 1.9688,
          "velocity": 60
        },
        {
          "pitch": 62,
          "onset": 75.0,
          "duration": 1.0,
          "velocity": 60
        },
        {
          "pitch": 64,
          "onset": 76.0,
          "duration": 1.0,
          "velocity": 60
        },
        {
          "pitch": 69,
          "onset": 76.0,
          "duration": 1.9688,
          "velocity": 60
        },
        {
          "pitch": 72,
          "onset": 76.0,
          "duration": 1.9688,
          "velocity": 60
        },
        {
          "pitch": 66,
          "onset": 77.0,
          "duration": 1.0,
          "velocity": 60
        },
        {
          "pitch": 55,
          "onset": 78.0,
          "duration": 14.9688,
          "velocity": 60
        },
        {
          "pitch": 67,
          "onset": 78.0,
          "duration": 1.0,
          "velocity": 60
        },
        {
          "pitch": 71,
          "onset": 78.0,
          "duration": 1.0,
          "velocity": 60
        },
        {
          "pitch": 76,
          "onset": 78.0,
          "duration": 5.9688,
          "velocity": 60
        },
        {
          "pitch": 65,
          "onset": 79.0,
          "duration": 1.0,
          "velocity": 60
        },
        {
          "pitch": 74,
          "onset": 79.0,
          "duration": 1.0,
          "velocity": 60
        },
        {
          "pitch": 64,
          "onset": 80.0,
          "duration": 1.0,
          "velocity": 60
        },
        {
          "pitch": 67,
          "onset": 80.0,
          "duration": 1.9688,
          "velocity": 60
        },
        {
          "pitch": 62,
          "onset": 81.0,
          "duration": 1.0,
          "velocity": 60
        },
        {
          "pitch": 60,
          "onset": 82.0,
          "duration": 1.9688,
          "velocity": 60
        },
        {
          "pitch": 72,
          "onset": 82.0,
          "duration": 2.9688,
          "velocity": 60
        },
        {
          "pitch": 67,
          "onset": 84.0,
          "duration": 1.0,
          "velocity": 60
        },
        {
          "pitch": 74,
          "onset": 84.0,
          "duration": 8.9688,
          "velocity": 60
        },
        {
          "pitch": 64,
          "onset": 85.0,
          "duration": 1.0,
          "velocity": 60
        },
        {
          "pitch": 72,
          "onset": 85.0,
          "duration": 1.0,
          "velocity": 60
        },
        {
          "pitch": 62,
          "onset": 86.0,
          "duration": 1.0,
          "velocity": 60
        },
        {
          "pitch": 71,
          "onset": 86.0,
          "duration": 1.0,
          "velocity": 60
        },
        {
          "pitch": 60,
          "onset": 87.0,
          "duration": 1.0,
          "velocity": 60
        },
        {
          "pitch": 69,
          "onset": 87.0,
          "duration": 1.0,
          "velocity": 60
        },
        {
          "pitch": 59,
          "onset": 88.0,
          "duration": 1.0,
          "velocity": 60
        },
        {
          "pitch": 67,
          "onset": 88.0,
          "duration": 1.0,
          "velocity": 60
        },
        {
          "pitch": 57,
          "onset": 89.0,
          "duration": 1.0,
          "velocity": 60
        },
        {
          "pitch": 66,
          "onset": 89.0,
          "duration": 1.0,
          "velocity": 60
        },
        {
          "pitch": 59,
          "onset": 90.0,
          "duration": 2.9688,
          "velocity": 60
        },
        {
          "pitch": 67,
          "onset": 90.0,
          "duration": 2.9688,
          "velocity": 60
        },
        {
          "pitch": 74,
          "onset": 95.0,
          "duration": 0.25,
          "velocity": 1
        }
      ]
    },
    {
      "role": "pedal",
      "notes": [
        {
          "pitch": 29,
          "onset": 0.0,
          "duration": 13.0,
          "velocity": 60
        },
        {
          "pitch": 41,
          "onset": 13.0,
          "duration": 1.0,
          "velocity": 60
        },
        {
          "pitch": 40,
          "onset": 14.0,
          "duration": 1.0,
          "velocity": 60
        },
        {
          "pitch": 38,
          "onset": 15.0,
          "duration": 1.0,
          "velocity": 60
        },
        {
          "pitch": 36,
          "onset": 16.0,
          "duration": 1.0,
          "velocity": 60
        },
        {
          "pitch": 34,
          "onset": 17.0,
          "duration": 1.0,
          "velocity": 60
        },
        {
          "pitch": 33,
          "onset": 18.0,
          "duration": 1.0,
          "velocity": 60
        },
        {
          "pitch": 38,
          "onset": 19.0,
          "duration": 1.0,
          "velocity": 60
        },
        {
          "pitch": 36,
          "onset": 20.0,
          "duration": 1.0,
          "velocity": 60
        },
        {
          "pitch": 34,
          "onset": 21.0,
          "duration": 1.0,
          "velocity": 60
        },
        {
          "pitch": 33,
          "onset": 22.0,
          "duration": 1.0,
          "velocity": 60
        },
        {
          "pitch": 31,
          "onset": 23.0,
          "duration": 1.0,
          "velocity": 60
        },
        {
          "pitch": 29,
          "onset": 24.0,
          "duration": 1.0,
          "velocity": 60
        },
        {
          "pitch": 46,
          "onset": 25.0,
          "duration": 1.0,
          "velocity": 60
        },
        {
          "pitch": 45,
          "onset": 26.0,
          "duration": 1.0,
          "velocity": 60
        },
        {
          "pitch": 43,
          "onset": 27.0,
          "duration": 1.0,
          "velocity": 60
        },
        {
          "pitch": 41,
          "onset": 28.0,
          "duration": 1.0,
          "velocity": 60
        },
        {
          "pitch": 38,
          "onset": 29.0,
          "duration": 1.0,
          "velocity": 60
        },
        {
          "pitch": 31,
          "onset": 30.0,
          "duration": 1.0,
          "velocity": 60
        },
        {
          "pitch": 48,
          "onset": 31.0,
          "duration": 1.0,
          "velocity": 60
        },
        {
          "pitch": 46,
          "onset": 32.0,
          "duration": 1.0,
          "velocity": 60
        },
        {
          "pitch": 45,
          "onset": 33.0,
          "duration": 1.0,
          "velocity": 60
        },
        {
          "pitch": 43,
          "onset": 34.0,
          "duration": 1.0,
          "velocity": 60
        },
        {
          "pitch": 40,
          "onset": 35.0,
          "duration": 1.0,
          "velocity": 60
        },
        {
          "pitch": 33,
          "onset": 36.0,
          "duration": 1.0,
          "velocity": 60
        },
        {
          "pitch": 45,
          "onset": 37.0,
          "duration": 1.0,
          "velocity": 60
        },
        {
          "pitch": 43,
          "onset": 38.0,
          "duration": 1.0,
          "velocity": 60
        },
        {
          "pitch": 41,
          "onset": 39.0,
          "duration": 1.0,
          "velocity": 60
        },
        {
          "pitch": 40,
          "onset": 40.0,
          "duration": 1.0,
          "velocity": 60
        },
        {
          "pitch": 38,
          "onset": 41.0,
          "duration": 1.0,
          "velocity": 60
        },
        {
          "pitch": 37,
          "onset": 42.0,
          "duration": 1.9688,
          "velocity": 60
        },
        {
          "pitch": 38,
          "onset": 44.0,
          "duration": 1.9688,
          "velocity": 60
        },
        {
          "pitch": 34,
          "onset": 46.0,
          "duration": 1.9688,
          "velocity": 60
        },
        {
          "pitch": 33,
          "onset": 48.0,
          "duration": 3.9688,
          "velocity": 60
        },
        {
          "pitch": 45,
          "onset": 55.0,
          "duration": 1.0,
          "velocity": 60
        },
        {
          "pitch": 43,
          "onset": 56.0,
          "duration": 1.0,
          "velocity": 60
        },
        {
          "pitch": 41,
          "onset": 57.0,
          "duration": 1.0,
          "velocity": 60
        },
        {
          "pitch": 40,
          "onset": 58.0,
          "duration": 1.0,
          "velocity": 60
        },
        {
          "pitch": 38,
          "onset": 59.0,
          "duration": 1.0,
          "velocity": 60
        },
        {
          "pitch": 37,
          "onset": 60.0,
          "duration": 1.0,
          "velocity": 60
        },
        {
          "pitch": 33,
          "onset": 61.0,
          "duration": 1.0,
          "velocity": 60
        },
        {
          "pitch": 31,
          "onset": 62.0,
          "duration": 1.0,
          "velocity": 60
        },
        {
          "pitch": 29,
          "onset": 63.0,
          "duration": 1.0,
          "velocity": 60
        },
        {
          "pitch": 28,
          "onset": 64.0,
          "duration": 1.0,
          "velocity": 60
        },
        {
          "pitch": 26,
          "onset": 65.0,
          "duration": 1.0,
          "velocity": 60
        },
        {
          "pitch": 33,
          "onset": 66.0,
          "duration": 3.9688,
          "velocity": 60
        },
        {
          "pitch": 35,
          "onset": 79.0,
          "duration": 1.0,
          "velocity": 60
        },
        {
          "pitch": 36,
          "onset": 80.0,
          "duration": 1.0,
          "velocity": 60
        },
        {
          "pitch": 38,
          "onset": 81.0,
          "duration": 1.0,
          "velocity": 60
        },
        {
          "pitch": 40,
          "onset": 82.0,
          "duration": 1.0,
          "velocity": 60
        },
        {
          "pitch": 42,
          "onset": 83.0,
          "duration": 1.0,
          "velocity": 60
        },
        {
          "pitch": 43,
          "onset": 84.0,
          "duration": 5.9688,
          "velocity": 60
        },
        {
          "pitch": 31,
          "onset": 90.0,
          "duration": 2.9688,
          "velocity": 60
        }
      ]
    }
  ]
}