{
  "bwv": 614,
  "category": "orgelbuchlein",
  "instrument": "organ",
  "form": "",
  "movement": null,
  "tonic": "E",
  "mode": "minor",
  "confidence": "inferred",
  "ticks_per_beat": 480,
  "duration_seconds": 86.6,
  "tempos": [
    {
      "tick": 0,
      "bpm": 35
    },
    {
      "tick": 60,
      "bpm": 240
    },
    {
      "tick": 1380,
      "bpm": 35
    },
    {
      "tick": 23040,
      "bpm": 35
    },
    {
      "tick": 23520,
      "bpm": 35
    },
    {
      "tick": 23880,
      "bpm": 30
    }
  ],
  "time_signatures": [
    {
      "tick": 0,
      "numerator": 4,
      "denominator": 4
    }
  ],
  "track_type": "manual",
  "voice_count": 2,
  "total_notes": 378,
  "tracks": [
    {
      "role": "manual",
      "notes": [
        {
          "pitch": 69,
          "onset": 3.0,
          "duration": 1.0,
          "velocity": 60
        },
        {
          "pitch": 69,
          "onset": 4.0,
          "duration": 1.0,
          "velocity": 60
        },
        {
          "pitch": 57,
          "onset": 4.5,
          "duration": 0.5,
          "velocity": 60
        },
        {
          "pitch": 58,
          "onset": 5.0,
          "duration": 0.5,
          "velocity": 60
        },
        {
          "pitch": 67,
          "onset": 5.0,
          "duration": 0.25,
          "velocity": 60
        },
        {
          "pitch": 65,
          "onset": 5.25,
          "duration": 0.25,
          "velocity": 60
        },
        {
          "pitch": 59,
          "onset": 5.5,
          "duration": 0.5,
          "velocity": 60
        },
        {
          "pitch": 64,
          "onset": 5.5,
          "duration": 0.25,
          "velocity": 60
        },
        {
          "pitch": 65,
          "onset": 5.75,
          "duration": 0.25,
          "velocity": 60
        },
        {
          "pitch": 60,
          "onset": 6.0,
          "duration": 0.5,
          "velocity": 60
        },
        {
          "pitch": 64,
          "onset": 6.0,
          "duration": 0.0312,
          "velocity": 60
        },
        {
          "pitch": 65,
          "onset": 6.0312,
          "duration": 0.0312,
          "velocity": 60
        },
        {
          "pitch": 64,
          "onset": 6.0938,
          "duration": 0.0312,
          "velocity": 60
        },
        {
          "pitch": 65,
          "onset": 6.125,
          "duration": 0.0312,
          "velocity": 60
        },
        {
          "pitch": 64,
          "onset": 6.1562,
          "duration": 0.0312,
          "velocity": 60
        },
        {
          "pitch": 65,
          "onset": 6.2188,
          "duration": 0.0312,
          "velocity": 60
        },
        {
          "pitch": 64,
          "onset": 6.25,
          "duration": 0.75,
          "velocity": 60
        },
        {
          "pitch": 61,
          "onset": 6.5,
          "duration": 0.5,
          "velocity": 60
        },
        {
          "pitch": 62,
          "onset": 7.0,
          "duration": 1.0,
          "velocity": 60
        },
        {
          "pitch": 69,
          "onset": 7.0,
          "duration": 0.0312,
          "velocity": 60
        },
        {
          "pitch": 70,
          "onset": 7.0312,
          "duration": 0.0312,
          "velocity": 60
        },
        {
          "pitch": 69,
          "onset": 7.0938,
          "duration": 0.0312,
          "velocity": 60
        },
        {
          "pitch": 70,
          "onset": 7.125,
          "duration": 0.0312,
          "velocity": 60
        },
        {
          "pitch": 69,
          "onset": 7.1562,
          "duration": 0.0312,
          "velocity": 60
        },
        {
          "pitch": 70,
          "onset": 7.2188,
          "duration": 0.0312,
          "velocity": 60
        },
        {
          "pitch": 69,
          "onset": 7.25,
          "duration": 0.5,
          "velocity": 60
        },
        {
          "pitch": 57,
          "onset": 7.5,
          "duration": 0.5,
          "velocity": 60
        },
        {
          "pitch": 70,
          "onset": 7.75,
          "duration": 0.25,
          "velocity": 60
        },
        {
          "pitch": 58,
          "onset": 8.0,
          "duration": 0.5,
          "velocity": 60
        },
        {
          "pitch": 61,
          "onset": 8.0,
          "duration": 0.5,
          "velocity": 60
        },
        {
          "pitch": 69,
          "onset": 8.0,
          "duration": 0.25,
          "velocity": 60
        },
        {
          "pitch": 67,
          "onset": 8.25,
          "duration": 0.875,
          "velocity": 60
        },
        {
          "pitch": 59,
          "onset": 8.5,
          "duration": 0.5,
          "velocity": 60
        },
        {
          "pitch": 62,
          "onset": 8.5,
          "duration": 0.25,
          "velocity": 60
        },
        {
          "pitch": 64,
          "onset": 8.75,
          "duration": 0.125,
          "velocity": 60
        },
        {
          "pitch": 65,
          "onset": 8.875,
          "duration": 0.125,
          "velocity": 60
        },
        {
          "pitch": 60,
          "onset": 9.0,
          "duration": 0.5,
          "velocity": 60
        },
        {
          "pitch": 64,
          "onset": 9.0,
          "duration": 0.5,
          "velocity": 60
        },
        {
          "pitch": 70,
          "onset": 9.125,
          "duration": 0.125,
          "velocity": 60
        },
        {
          "pitch": 69,
          "onset": 9.25,
          "duration": 0.125,
          "velocity": 60
        },
        {
          "pitch": 67,
          "onset": 9.375,
          "duration": 0.125,
          "velocity": 60
        },
        {
          "pitch": 57,
          "onset": 9.5,
          "duration": 0.5,
          "velocity": 60
        },
        {
          "pitch": 61,
          "onset": 9.5,
          "duration": 0.5,
          "velocity": 60
        },
        {
          "pitch": 65,
          "onset": 9.5,
          "duration": 0.25,
          "velocity": 60
        },
        {
          "pitch": 67,
          "onset": 9.75,
          "duration": 0.125,
          "velocity": 60
        },
        {
          "pitch": 64,
          "onset": 9.875,
          "duration": 0.125,
          "velocity": 60
        },
        {
          "pitch": 57,
          "onset": 10.0,
          "duration": 1.0,
          "velocity": 60
        },
        {
          "pitch": 62,
          "onset": 10.0,
          "duration": 1.0,
          "velocity": 60
        },
        {
          "pitch": 65,
          "onset": 10.0,
          "duration": 0.625,
          "velocity": 60
        },
        {
          "pitch": 64,
          "onset": 10.625,
          "duration": 0.125,
          "velocity": 60
        },
        {
          "pitch": 62,
          "onset": 10.75,
          "duration": 0.125,
          "velocity": 60
        },
        {
          "pitch": 64,
          "onset": 10.875,
          "duration": 0.125,
          "velocity": 60
        },
        {
          "pitch": 65,
          "onset": 11.0,
          "duration": 0.125,
          "velocity": 60
        },
        {
          "pitch": 64,
          "onset": 11.125,
          "duration": 0.125,
          "velocity": 60
        },
        {
          "pitch": 65,
          "onset": 11.25,
          "duration": 0.125,
          "velocity": 60
        },
        {
          "pitch": 67,
          "onset": 11.375,
          "duration": 0.125,
          "velocity": 60
        },
        {
          "pitch": 65,
          "onset": 11.5,
          "duration": 0.125,
          "velocity": 60
        },
        {
          "pitch": 69,
          "onset": 11.625,
          "duration": 0.125,
          "velocity": 60
        },
        {
          "pitch": 67,
          "onset": 11.75,
          "duration": 0.125,
          "velocity": 60
        },
        {
          "pitch": 70,
          "onset": 11.875,
          "duration": 0.0625,
          "velocity": 60
        },
        {
          "pitch": 69,
          "onset": 11.9375,
          "duration": 0.0625,
          "velocity": 60
        },
        {
          "pitch": 69,
          "onset": 12.0,
          "duration": 1.25,
          "velocity": 60
        },
        {
          "pitch": 57,
          "onset": 12.5,
          "duration": 0.5,
          "velocity": 60
        },
        {
          "pitch": 58,
          "onset": 13.0,
          "duration": 0.5,
          "velocity": 60
        },
        {
          "pitch": 67,
          "onset": 13.25,
          "duration": 0.25,
          "velocity": 60
        },
        {
          "pitch": 59,
          "onset": 13.5,
          "duration": 0.5,
          "velocity": 60
        },
        {
          "pitch": 65,
          "onset": 13.5,
          "duration": 0.125,
          "velocity": 60
        },
        {
          "pitch": 64,
          "onset": 13.625,
          "duration": 0.125,
          "velocity": 60
        },
        {
          "pitch": 65,
          "onset": 13.75,
          "duration": 0.25,
          "velocity": 60
        },
        {
          "pitch": 60,
          "onset": 14.0,
          "duration": 0.5,
          "velocity": 60
        },
        {
          "pitch": 64,
          "onset": 14.0,
          "duration": 0.0312,
          "velocity": 60
        },
        {
          "pitch": 65,
          "onset": 14.0312,
          "duration": 0.0312,
          "velocity": 60
        },
        {
          "pitch": 64,
          "onset": 14.0938,
          "duration": 0.0312,
          "velocity": 60
        },
        {
          "pitch": 65,
          "onset": 14.125,
          "duration": 0.0312,
          "velocity": 60
        },
        {
          "pitch": 64,
          "onset": 14.1562,
          "duration": 0.0312,
          "velocity": 60
        },
        {
          "pitch": 65,
          "onset": 14.2188,
          "duration": 0.0312,
          "velocity": 60
        },
        {
          "pitch": 64,
          "onset": 14.25,
          "duration": 0.75,
          "velocity": 60
        },
        {
          "pitch": 57,
          "onset": 14.5,
          "duration": 0.25,
          "velocity": 60
        },
        {
          "pitch": 61,
          "onset": 14.5,
          "duration": 0.5,
          "velocity": 60
        },
        {
          "pitch": 55,
          "onset": 14.75,
          "duration": 0.25,
          "velocity": 60
        },
        {
          "pitch": 54,
          "onset": 15.0,
          "duration": 0.5,
          "velocity": 60
        },
        {
          "pitch": 62,
          "onset": 15.0,
          "duration": 0.5,
          "velocity": 60
        },
        {
          "pitch": 69,
          "onset": 15.0,
          "duration": 0.75,
          "velocity": 60
        },
        {
          "pitch": 53,
          "onset": 15.5,
          "duration": 0.5,
          "velocity": 60
        },
        {
          "pitch": 61,
          "onset": 15.5,
          "duration": 0.5,
          "velocity": 60
        },
        {
          "pitch": 70,
          "onset": 15.75,
          "duration": 0.25,
          "velocity": 60
        },
        {
          "pitch": 52,
          "onset": 16.0,
          "duration": 0.5,
          "velocity": 60
        },
        {
          "pitch": 62,
          "onset": 16.0,
          "duration": 1.0,
          "velocity": 60
        },
        {
          "pitch": 67,
          "onset": 16.0,
          "duration": 1.125,
          "velocity": 60
        },
        {
          "pitch": 50,
          "onset": 16.5,
          "duration": 0.5,
          "velocity": 60
        },
        {
          "pitch": 57,
          "onset": 17.0,
          "duration": 1.5,
          "velocity": 60
        },
        {
          "pitch": 64,
          "onset": 17.0,
          "duration": 1.5,
          "velocity": 60
        },
        {
          "pitch": 70,
          "onset": 17.125,
          "duration": 0.125,
          "velocity": 60
        },
        {
          "pitch": 69,
          "onset": 17.25,
          "duration": 0.125,
          "velocity": 60
        },
        {
          "pitch": 67,
          "onset": 17.375,
          "duration": 0.125,
          "velocity": 60
        },
        {
          "pitch": 65,
          "onset": 17.5,
          "duration": 0.25,
          "velocity": 60
        },
        {
          "pitch": 67,
          "onset": 17.75,
          "duration": 0.125,
          "velocity": 60
        },
        {
          "pitch": 64,
          "onset": 17.875,
          "duration": 0.125,
          "velocity": 60
        },
        {
          "pitch": 65,
          "onset": 18.0,
          "duration": 1.0,
          "velocity": 60
        },
        {
          "pitch": 50,
          "onset": 18.5,
          "duration": 0.25,
          "velocity": 60
        },
        {
          "pitch": 62,
          "onset": 18.5,
          "duration": 0.25,
          "velocity": 60
        },
        {
          "pitch": 52,
          "onset": 18.75,
          "duration": 0.25,
          "velocity": 60
        },
        {
          "pitch": 61,
          "onset": 18.75,
          "duration": 0.25,
          "velocity": 60
        },
        {
          "pitch": 53,
          "onset": 19.0,
          "duration": 0.5,
          "velocity": 60
        },
        {
          "pitch": 62,
          "onset": 19.0,
          "duration": 1.5,
          "velocity": 60
        },
        {
          "pitch": 69,
          "onset": 19.0,
          "duration": 1.0,
          "velocity": 60
        },
        {
          "pitch": 54,
          "onset": 19.5,
          "duration": 0.5,
          "velocity": 60
        },
        {
          "pitch": 55,
          "onset": 20.0,
          "duration": 0.5,
          "velocity": 60
        },
        {
          "pitch": 70,
          "onset": 20.0,
          "duration": 0.5,
          "velocity": 60
        },
        {
          "pitch": 56,
          "onset": 20.5,
          "duration": 0.5,
          "velocity": 60
        },
        {
          "pitch": 64,
          "onset": 20.5,
          "duration": 0.25,
          "velocity": 60
        },
        {
          "pitch": 71,
          "onset": 20.5,
          "duration": 0.5,
          "velocity": 60
        },
        {
          "pitch": 65,
          "onset": 20.75,
          "duration": 0.25,
          "velocity": 60
        },
        {
          "pitch": 57,
          "onset": 21.0,
          "duration": 0.25,
          "velocity": 60
        },
        {
          "pitch": 64,
          "onset": 21.0,
          "duration": 0.5,
          "velocity": 60
        },
        {
          "pitch": 72,
          "onset": 21.0,
          "duration": 0.5,
          "velocity": 60
        },
        {
          "pitch": 67,
          "onset": 21.25,
          "duration": 0.25,
          "velocity": 60
        },
        {
          "pitch": 65,
          "onset": 21.5,
          "duration": 0.25,
          "velocity": 60
        },
        {
          "pitch": 69,
          "onset": 21.5,
          "duration": 0.5,
          "velocity": 60
        },
        {
          "pitch": 73,
          "onset": 21.5,
          "duration": 0.5,
          "velocity": 60
        },
        {
          "pitch": 64,
          "onset": 21.75,
          "duration": 0.25,
          "velocity": 60
        },
        {
          "pitch": 62,
          "onset": 22.0,
          "duration": 0.25,
          "velocity": 60
        },
        {
          "pitch": 68,
          "onset": 22.0,
          "duration": 0.5,
          "velocity": 60
        },
        {
          "pitch": 74,
          "onset": 22.0,
          "duration": 0.75,
          "velocity": 60
        },
        {
          "pitch": 60,
          "onset": 22.25,
          "duration": 0.25,
          "velocity": 60
        },
        {
          "pitch": 59,
          "onset": 22.5,
          "duration": 0.25,
          "velocity": 60
        },
        {
          "pitch": 67,
          "onset": 22.5,
          "duration": 0.5,
          "velocity": 60
        },
        {
          "pitch": 58,
          "onset": 22.75,
          "duration": 0.25,
          "velocity": 60
        },
        {
          "pitch": 76,
          "onset": 22.75,
          "duration": 0.25,
          "velocity": 60
        },
        {
          "pitch": 57,
          "onset": 23.0,
          "duration": 0.5,
          "velocity": 60
        },
        {
          "pitch": 66,
          "onset": 23.0,
          "duration": 0.5,
          "velocity": 60
        },
        {
          "pitch": 69,
          "onset": 23.0,
          "duration": 0.5,
          "velocity": 60
        },
        {
          "pitch": 62,
          "onset": 23.5,
          "duration": 0.5,
          "velocity": 60
        },
        {
          "pitch": 65,
          "onset": 23.5,
          "duration": 0.5,
          "velocity": 60
        },
        {
          "pitch": 72,
          "onset": 23.5,
          "duration": 0.25,
          "velocity": 60
        },
        {
          "pitch": 71,
          "onset": 23.75,
          "duration": 0.25,
          "velocity": 60
        },
        {
          "pitch": 60,
          "onset": 24.0,
          "duration": 0.25,
          "velocity": 60
        },
        {
          "pitch": 64,
          "onset": 24.0,
          "duration": 0.5,
          "velocity": 60
        },
        {
          "pitch": 72,
          "onset": 24.0,
          "duration": 0.5,
          "velocity": 60
        },
        {
          "pitch": 59,
          "onset": 24.25,
          "duration": 0.25,
          "velocity": 60
        },
        {
          "pitch": 57,
          "onset": 24.5,
          "duration": 1.0,
          "velocity": 60
        },
        {
          "pitch": 65,
          "onset": 24.5,
          "duration": 0.5,
          "velocity": 60
        },
        {
          "pitch": 74,
          "onset": 24.5,
          "duration": 0.25,
          "velocity": 60
        },
        {
          "pitch": 77,
          "onset": 24.75,
          "duration": 0.125,
          "velocity": 60
        },
        {
          "pitch": 76,
          "onset": 24.875,
          "duration": 0.125,
          "velocity": 60
        },
        {
          "pitch": 64,
          "onset": 25.0,
          "duration": 0.5,
          "velocity": 60
        },
        {
          "pitch": 72,
          "onset": 25.0,
          "duration": 0.0312,
          "velocity": 60
        },
        {
          "pitch": 74,
          "onset": 25.0312,
          "duration": 0.0312,
          "velocity": 60
        },
        {
          "pitch": 72,
          "onset": 25.0938,
          "duration": 0.0312,
          "velocity": 60
        },
        {
          "pitch": 74,
          "onset": 25.125,
          "duration": 0.0312,
          "velocity": 60
        },
        {
          "pitch": 72,
          "onset": 25.1562,
          "duration": 0.0312,
          "velocity": 60
        },
        {
          "pitch": 74,
          "onset": 25.2188,
          "duration": 0.0312,
          "velocity": 60
        },
        {
          "pitch": 72,
          "onset": 25.25,
          "duration": 0.25,
          "velocity": 60
        },
        {
          "pitch": 56,
          "onset": 25.5,
          "duration": 0.5,
          "velocity": 60
        },
        {
          "pitch": 62,
          "onset": 25.5,
          "duration": 0.5,
          "velocity": 60
        },
        {
          "pitch": 71,
          "onset": 25.5,
          "duration": 0.0312,
          "velocity": 60
        },
        {
          "pitch": 72,
          "onset": 25.5312,
          "duration": 0.0312,
          "velocity": 60
        },
        {
          "pitch": 71,
          "onset": 25.5938,
          "duration": 0.0312,
          "velocity": 60
        },
        {
          "pitch": 72,
          "onset": 25.625,
          "duration": 0.0312,
          "velocity": 60
        },
        {
          "pitch": 71,
          "onset": 25.6562,
          "duration": 0.0938,
          "velocity": 60
        },
        {
          "pitch": 69,
          "onset": 25.75,
          "duration": 0.25,
          "velocity": 60
        },
        {
          "pitch": 57,
          "onset": 26.0,
          "duration": 0.5,
          "velocity": 60
        },
        {
          "pitch": 61,
          "onset": 26.0,
          "duration": 0.5,
          "velocity": 60
        },
        {
          "pitch": 69,
          "onset": 26.0,
          "duration": 1.0,
          "velocity": 60
        },
        {
          "pitch": 57,
          "onset": 26.5,
          "duration": 0.5,
          "velocity": 60
        },
        {
          "pitch": 60,
          "onset": 26.5,
          "duration": 0.5,
          "velocity": 60
        },
        {
          "pitch": 57,
          "onset": 27.0,
          "duration": 0.5,
          "velocity": 60
        },
        {
          "pitch": 59,
          "onset": 27.0,
          "duration": 1.0,
          "velocity": 60
        },
        {
          "pitch": 71,
          "onset": 27.0,
          "duration": 0.75,
          "velocity": 60
        },
        {
          "pitch": 56,
          "onset": 27.5,
          "duration": 1.0,
          "velocity": 60
        },
        {
          "pitch": 72,
          "onset": 27.75,
          "duration": 0.125,
          "velocity": 60
        },
        {
          "pitch": 74,
          "onset": 27.875,
          "duration": 0.125,
          "velocity": 60
        },
        {
          "pitch": 57,
          "onset": 28.0,
          "duration": 1.0,
          "velocity": 60
        },
        {
          "pitch": 72,
          "onset": 28.0,
          "duration": 1.0,
          "velocity": 60
        },
        {
          "pitch": 54,
          "onset": 28.5,
          "duration": 0.5,
          "velocity": 60
        },
        {
          "pitch": 53,
          "onset": 29.0,
          "duration": 0.5,
          "velocity": 60
        },
        {
          "pitch": 59,
          "onset": 29.0,
          "duration": 0.5,
          "velocity": 60
        },
        {
          "pitch": 71,
          "onset": 29.0,
          "duration": 0.0312,
          "velocity": 60
        },
        {
          "pitch": 72,
          "onset": 29.0312,
          "duration": 0.0312,
          "velocity": 60
        },
        {
          "pitch": 71,
          "onset": 29.0938,
          "duration": 0.0312,
          "velocity": 60
        },
        {
          "pitch": 72,
          "onset": 29.125,
          "duration": 0.0312,
          "velocity": 60
        },
        {
          "pitch": 71,
          "onset": 29.1562,
          "duration": 0.0938,
          "velocity": 60
        },
        {
          "pitch": 69,
          "onset": 29.25,
          "duration": 0.25,
          "velocity": 60
        },
        {
          "pitch": 52,
          "onset": 29.5,
          "duration": 0.5,
          "velocity": 60
        },
        {
          "pitch": 61,
          "onset": 29.5,
          "duration": 0.5,
          "velocity": 60
        },
        {
          "pitch": 70,
          "onset": 29.5,
          "duration": 0.5,
          "velocity": 60
        },
        {
          "pitch": 57,
          "onset": 30.0,
          "duration": 1.5,
          "velocity": 60
        },
        {
          "pitch": 62,
          "onset": 30.0,
          "duration": 0.25,
          "velocity": 60
        },
        {
          "pitch": 69,
          "onset": 30.0,
          "duration": 1.25,
          "velocity": 60
        },
        {
          "pitch": 64,
          "onset": 30.25,
          "duration": 0.25,
          "velocity": 60
        },
        {
          "pitch": 62,
          "onset": 30.5,
          "duration": 0.25,
          "velocity": 60
        },
        {
          "pitch": 64,
          "onset": 30.75,
          "duration": 0.25,
          "velocity": 60
        },
        {
          "pitch": 65,
          "onset": 31.0,
          "duration": 1.25,
          "velocity": 60
        },
        {
          "pitch": 72,
          "onset": 31.25,
          "duration": 0.25,
          "velocity": 60
        },
        {
          "pitch": 57,
          "onset": 31.5,
          "duration": 0.5,
          "velocity": 60
        },
        {
          "pitch": 70,
          "onset": 31.5,
          "duration": 0.25,
          "velocity": 60
        },
        {
          "pitch": 69,
          "onset": 31.75,
          "duration": 0.25,
          "velocity": 60
        },
        {
          "pitch": 58,
          "onset": 32.0,
          "duration": 0.5,
          "velocity": 60
        },
        {
          "pitch": 67,
          "onset": 32.0,
          "duration": 0.75,
          "velocity": 60
        },
        {
          "pitch": 65,
          "onset": 32.25,
          "duration": 0.25,
          "velocity": 60
        },
        {
          "pitch": 59,
          "onset": 32.5,
          "duration": 0.5,
          "velocity": 60
        },
        {
          "pitch": 64,
          "onset": 32.5,
          "duration": 0.25,
          "velocity": 60
        },
        {
          "pitch": 62,
          "onset": 32.75,
          "duration": 0.25,
          "velocity": 60
        },
        {
          "pitch": 65,
          "onset": 32.75,
          "duration": 0.25,
          "velocity": 60
        },
        {
          "pitch": 60,
          "onset": 33.0,
          "duration": 0.5,
          "velocity": 60
        },
        {
          "pitch": 64,
          "onset": 33.0,
          "duration": 0.125,
          "velocity": 60
        },
        {
          "pitch": 70,
          "onset": 33.125,
          "duration": 0.125,
          "velocity": 60
        },
        {
          "pitch": 58,
          "onset": 33.25,
          "duration": 0.25,
          "velocity": 60
        },
        {
          "pitch": 69,
          "onset": 33.25,
          "duration": 0.125,
          "velocity": 60
        },
        {
          "pitch": 67,
          "onset": 33.375,
          "duration": 0.125,
          "velocity": 60
        },
        {
          "pitch": 57,
          "onset": 33.5,
          "duration": 1.0,
          "velocity": 60
        },
        {
          "pitch": 61,
          "onset": 33.5,
          "duration": 0.5,
          "velocity": 60
        },
        {
          "pitch": 65,
          "onset": 33.5,
          "duration": 0.125,
          "velocity": 60
        },
        {
          "pitch": 67,
          "onset": 33.625,
          "duration": 0.125,
          "velocity": 60
        },
        {
          "pitch": 64,
          "onset": 33.75,
          "duration": 0.25,
          "velocity": 60
        },
        {
          "pitch": 62,
          "onset": 34.0,
          "duration": 1.0,
          "velocity": 60
        },
        {
          "pitch": 65,
          "onset": 34.0,
          "duration": 1.0,
          "velocity": 60
        },
        {
          "pitch": 61,
          "onset": 34.5,
          "duration": 0.5,
          "velocity": 60
        },
        {
          "pitch": 62,
          "onset": 35.0,
          "duration": 1.25,
          "velocity": 60
        },
        {
          "pitch": 67,
          "onset": 35.0,
          "duration": 0.5,
          "velocity": 60
        },
        {
          "pitch": 50,
          "onset": 35.5,
          "duration": 0.5,
          "velocity": 60
        },
        {
          "pitch": 65,
          "onset": 35.5,
          "duration": 0.25,
          "velocity": 60
        },
        {
          "pitch": 69,
          "onset": 35.75,
          "duration": 0.125,
          "velocity": 60
        },
        {
          "pitch": 67,
          "onset": 35.875,
          "duration": 0.125,
          "velocity": 60
        },
        {
          "pitch": 51,
          "onset": 36.0,
          "duration": 0.5,
          "velocity": 60
        },
        {
          "pitch": 67,
          "onset": 36.0,
          "duration": 1.0,
          "velocity": 60
        },
        {
          "pitch": 62,
          "onset": 36.25,
          "duration": 0.25,
          "velocity": 60
        },
        {
          "pitch": 52,
          "onset": 36.5,
          "duration": 0.5,
          "velocity": 60
        },
        {
          "pitch": 60,
          "onset": 36.5,
          "duration": 0.25,
          "velocity": 60
        },
        {
          "pitch": 58,
          "onset": 36.75,
          "duration": 0.25,
          "velocity": 60
        },
        {
          "pitch": 53,
          "onset": 37.0,
          "duration": 0.5,
          "velocity": 60
        },
        {
          "pitch": 57,
          "onset": 37.0,
          "duration": 0.25,
          "velocity": 60
        },
        {
          "pitch": 69,
          "onset": 37.0,
          "duration": 1.25,
          "velocity": 60
        },
        {
          "pitch": 64,
          "onset": 37.25,
          "duration": 0.25,
          "velocity": 60
        },
        {
          "pitch": 54,
          "onset": 37.5,
          "duration": 0.5,
          "velocity": 60
        },
        {
          "pitch": 62,
          "onset": 37.5,
          "duration": 0.25,
          "velocity": 60
        },
        {
          "pitch": 60,
          "onset": 37.75,
          "duration": 0.25,
          "velocity": 60
        },
        {
          "pitch": 55,
          "onset": 38.0,
          "duration": 1.5,
          "velocity": 60
        },
        {
          "pitch": 59,
          "onset": 38.0,
          "duration": 0.25,
          "velocity": 60
        },
        {
          "pitch": 60,
          "onset": 38.25,
          "duration": 0.25,
          "velocity": 60
        },
        {
          "pitch": 69,
          "onset": 38.25,
          "duration": 0.25,
          "velocity": 60
        },
        {
          "pitch": 62,
          "onset": 38.5,
          "duration": 0.5,
          "velocity": 60
        },
        {
          "pitch": 67,
          "onset": 38.5,
          "duration": 0.25,
          "velocity": 60
        },
        {
          "pitch": 65,
          "onset": 38.75,
          "duration": 0.25,
          "velocity": 60
        },
        {
          "pitch": 60,
          "onset": 39.0,
          "duration": 0.25,
          "velocity": 60
        },
        {
          "pitch": 64,
          "onset": 39.0,
          "duration": 0.25,
          "velocity": 60
        },
        {
          "pitch": 62,
          "onset": 39.25,
          "duration": 0.25,
          "velocity": 60
        },
        {
          "pitch": 70,
          "onset": 39.25,
          "duration": 0.25,
          "velocity": 60
        },
        {
          "pitch": 52,
          "onset": 39.5,
          "duration": 0.5,
          "velocity": 60
        },
        {
          "pitch": 64,
          "onset": 39.5,
          "duration": 0.5,
          "velocity": 60
        },
        {
          "pitch": 69,
          "onset": 39.5,
          "duration": 0.25,
          "velocity": 60
        },
        {
          "pitch": 67,
          "onset": 39.75,
          "duration": 0.25,
          "velocity": 60
        },
        {
          "pitch": 57,
          "onset": 40.0,
          "duration": 1.0,
          "velocity": 60
        },
        {
          "pitch": 62,
          "onset": 40.0,
          "duration": 0.5,
          "velocity": 60
        },
        {
          "pitch": 66,
          "onset": 40.0,
          "duration": 0.25,
          "velocity": 60
        },
        {
          "pitch": 64,
          "onset": 40.25,
          "duration": 0.25,
          "velocity": 60
        },
        {
          "pitch": 60,
          "onset": 40.5,
          "duration": 0.5,
          "velocity": 60
        },
        {
          "pitch": 62,
          "onset": 40.5,
          "duration": 0.25,
          "velocity": 60
        },
        {
          "pitch": 64,
          "onset": 40.75,
          "duration": 0.25,
          "velocity": 60
        },
        {
          "pitch": 50,
          "onset": 41.0,
          "duration": 1.0,
          "velocity": 60
        },
        {
          "pitch": 58,
          "onset": 41.0,
          "duration": 0.5,
          "velocity": 60
        },
        {
          "pitch": 65,
          "onset": 41.0,
          "duration": 1.0,
          "velocity": 60
        },
        {
          "pitch": 59,
          "onset": 41.5,
          "duration": 0.5,
          "velocity": 60
        },
        {
          "pitch": 57,
          "onset": 42.0,
          "duration": 1.0,
          "velocity": 60
        },
        {
          "pitch": 60,
          "onset": 42.0,
          "duration": 0.5,
          "velocity": 60
        },
        {
          "pitch": 64,
          "onset": 42.0,
          "duration": 1.0,
          "velocity": 60
        },
        {
          "pitch": 61,
          "onset": 42.5,
          "duration": 0.5,
          "velocity": 60
        },
        {
          "pitch": 62,
          "onset": 43.0,
          "duration": 0.5,
          "velocity": 60
        },
        {
          "pitch": 71,
          "onset": 43.0,
          "duration": 0.75,
          "velocity": 60
        },
        {
          "pitch": 63,
          "onset": 43.5,
          "duration": 0.5,
          "velocity": 60
        },
        {
          "pitch": 72,
          "onset": 43.75,
          "duration": 0.125,
          "velocity": 60
        },
        {
          "pitch": 74,
          "onset": 43.875,
          "duration": 0.125,
          "velocity": 60
        },
        {
          "pitch": 64,
          "onset": 44.0,
          "duration": 0.25,
          "velocity": 60
        },
        {
          "pitch": 72,
          "onset": 44.0,
          "duration": 1.0,
          "velocity": 60
        },
        {
          "pitch": 60,
          "onset": 44.25,
          "duration": 0.25,
          "velocity": 60
        },
        {
          "pitch": 57,
          "onset": 44.5,
          "duration": 0.5,
          "velocity": 60
        },
        {
          "pitch": 65,
          "onset": 44.5,
          "duration": 1.0,
          "velocity": 60
        },
        {
          "pitch": 56,
          "onset": 45.0,
          "duration": 0.5,
          "velocity": 60
        },
        {
          "pitch": 71,
          "onset": 45.0,
          "duration": 0.0312,
          "velocity": 60
        },
        {
          "pitch": 72,
          "onset": 45.0312,
          "duration": 0.0312,
          "velocity": 60
        },
        {
          "pitch": 71,
          "onset": 45.0938,
          "duration": 0.0312,
          "velocity": 60
        },
        {
          "pitch": 72,
          "onset": 45.125,
          "duration": 0.0312,
          "velocity": 60
        },
        {
          "pitch": 71,
          "onset": 45.1562,
          "duration": 0.0938,
          "velocity": 60
        },
        {
          "pitch": 69,
          "onset": 45.25,
          "duration": 0.25,
          "velocity": 60
        },
        {
          "pitch": 55,
          "onset": 45.5,
          "duration": 0.5,
          "velocity": 60
        },
        {
          "pitch": 64,
          "onset": 45.5,
          "duration": 1.0,
          "velocity": 60
        },
        {
          "pitch": 71,
          "onset": 45.5,
          "duration": 0.5,
          "velocity": 60
        },
        {
          "pitch": 54,
          "onset": 46.0,
          "duration": 0.5,
          "velocity": 60
        },
        {
          "pitch": 69,
          "onset": 46.0,
          "duration": 1.0,
          "velocity": 60
        },
        {
          "pitch": 53,
          "onset": 46.5,
          "duration": 0.5,
          "velocity": 60
        },
        {
          "pitch": 55,
          "onset": 47.0,
          "duration": 0.5,
          "velocity": 60
        },
        {
          "pitch": 64,
          "onset": 47.0,
          "duration": 0.5,
          "velocity": 60
        },
        {
          "pitch": 64,
          "onset": 47.0,
          "duration": 1.0,
          "velocity": 60
        },
        {
          "pitch": 57,
          "onset": 47.5,
          "duration": 0.5,
          "velocity": 60
        },
        {
          "pitch": 66,
          "onset": 47.5,
          "duration": 0.25,
          "velocity": 60
        },
        {
          "pitch": 69,
          "onset": 47.75,
          "duration": 0.125,
          "velocity": 60
        },
        {
          "pitch": 68,
          "onset": 47.875,
          "duration": 0.125,
          "velocity": 60
        },
        {
          "pitch": 59,
          "onset": 48.0,
          "duration": 1.9688,
          "velocity": 60
        },
        {
          "pitch": 63,
          "onset": 48.0,
          "duration": 0.5,
          "velocity": 60
        },
        {
          "pitch": 69,
          "onset": 48.0,
          "duration": 0.25,
          "velocity": 60
        },
        {
          "pitch": 68,
          "onset": 48.25,
          "duration": 0.25,
          "velocity": 60
        },
        {
          "pitch": 64,
          "onset": 48.5,
          "duration": 0.25,
          "velocity": 60
        },
        {
          "pitch": 72,
          "onset": 48.5,
          "duration": 0.25,
          "velocity": 60
        },
        {
          "pitch": 63,
          "onset": 48.75,
          "duration": 0.25,
          "velocity": 60
        },
        {
          "pitch": 71,
          "onset": 48.75,
          "duration": 0.25,
          "velocity": 60
        },
        {
          "pitch": 67,
          "onset": 49.0,
          "duration": 0.25,
          "velocity": 60
        },
        {
          "pitch": 76,
          "onset": 49.0,
          "duration": 0.25,
          "velocity": 60
        },
        {
          "pitch": 66,
          "onset": 49.25,
          "duration": 0.25,
          "velocity": 60
        },
        {
          "pitch": 75,
          "onset": 49.25,
          "duration": 0.25,
          "velocity": 60
        },
        {
          "pitch": 69,
          "onset": 49.5,
          "duration": 0.25,
          "velocity": 60
        },
        {
          "pitch": 78,
          "onset": 49.5,
          "duration": 0.25,
          "velocity": 60
        },
        {
          "pitch": 63,
          "onset": 49.75,
          "duration": 0.25,
          "velocity": 60
        },
        {
          "pitch": 69,
          "onset": 49.75,
          "duration": 0.25,
          "velocity": 60
        },
        {
          "pitch": 59,
          "onset": 50.0,
          "duration": 2.5,
          "velocity": 60
        },
        {
          "pitch": 64,
          "onset": 50.0,
          "duration": 2.5,
          "velocity": 60
        },
        {
          "pitch": 69,
          "onset": 50.0,
          "duration": 0.75,
          "velocity": 60
        },
        {
          "pitch": 68,
          "onset": 50.75,
          "duration": 0.0625,
          "velocity": 60
        },
        {
          "pitch": 69,
          "onset": 50.8125,
          "duration": 0.0625,
          "velocity": 60
        },
        {
          "pitch": 68,
          "onset": 50.875,
          "duration": 0.0625,
          "velocity": 60
        },
        {
          "pitch": 69,
          "onset": 50.9375,
          "duration": 0.0625,
          "velocity": 60
        },
        {
          "pitch": 68,
          "onset": 51.0,
          "duration": 1.5,
          "velocity": 60
        },
        {
          "pitch": 68,
          "onset": 53.25,
          "duration": 0.25,
          "velocity": 1
        }
      ]
    },
    {
      "role": "pedal",
      "notes": [
        {
          "pitch": 45,
          "onset": 6.5,
          "duration": 0.25,
          "velocity": 60
        },
        {
          "pitch": 43,
          "onset": 6.75,
          "duration": 0.25,
          "velocity": 60
        },
        {
          "pitch": 42,
          "onset": 7.0,
          "duration": 0.5,
          "velocity": 60
        },
        {
          "pitch": 41,
          "onset": 7.5,
          "duration": 0.5,
          "velocity": 60
        },
        {
          "pitch": 40,
          "onset": 8.0,
          "duration": 0.5,
          "velocity": 60
        },
        {
          "pitch": 38,
          "onset": 8.5,
          "duration": 0.5,
          "velocity": 60
        },
        {
          "pitch": 45,
          "onset": 9.0,
          "duration": 0.5,
          "velocity": 60
        },
        {
          "pitch": 33,
          "onset": 9.5,
          "duration": 0.5,
          "velocity": 60
        },
        {
          "pitch": 38,
          "onset": 10.0,
          "duration": 0.5,
          "velocity": 60
        },
        {
          "pitch": 26,
          "onset": 10.5,
          "duration": 0.5,
          "velocity": 60
        },
        {
          "pitch": 33,
          "onset": 15.5,
          "duration": 0.5,
          "velocity": 60
        },
        {
          "pitch": 34,
          "onset": 16.0,
          "duration": 0.5,
          "velocity": 60
        },
        {
          "pitch": 35,
          "onset": 16.5,
          "duration": 0.5,
          "velocity": 60
        },
        {
          "pitch": 36,
          "onset": 17.0,
          "duration": 0.5,
          "velocity": 60
        },
        {
          "pitch": 37,
          "onset": 17.5,
          "duration": 0.5,
          "velocity": 60
        },
        {
          "pitch": 38,
          "onset": 18.0,
          "duration": 0.5,
          "velocity": 60
        },
        {
          "pitch": 26,
          "onset": 18.5,
          "duration": 0.5,
          "velocity": 60
        },
        {
          "pitch": 33,
          "onset": 21.5,
          "duration": 0.5,
          "velocity": 60
        },
        {
          "pitch": 35,
          "onset": 22.0,
          "duration": 0.5,
          "velocity": 60
        },
        {
          "pitch": 37,
          "onset": 22.5,
          "duration": 0.5,
          "velocity": 60
        },
        {
          "pitch": 38,
          "onset": 23.0,
          "duration": 0.5,
          "velocity": 60
        },
        {
          "pitch": 32,
          "onset": 23.5,
          "duration": 0.5,
          "velocity": 60
        },
        {
          "pitch": 33,
          "onset": 24.0,
          "duration": 0.5,
          "velocity": 60
        },
        {
          "pitch": 38,
          "onset": 24.5,
          "duration": 0.5,
          "velocity": 60
        },
        {
          "pitch": 40,
          "onset": 25.0,
          "duration": 0.5,
          "velocity": 60
        },
        {
          "pitch": 28,
          "onset": 25.5,
          "duration": 0.5,
          "velocity": 60
        },
        {
          "pitch": 33,
          "onset": 26.0,
          "duration": 1.0,
          "velocity": 60
        },
        {
          "pitch": 33,
          "onset": 28.5,
          "duration": 0.5,
          "velocity": 60
        },
        {
          "pitch": 32,
          "onset": 29.0,
          "duration": 0.5,
          "velocity": 60
        },
        {
          "pitch": 31,
          "onset": 29.5,
          "duration": 0.5,
          "velocity": 60
        },
        {
          "pitch": 30,
          "onset": 30.0,
          "duration": 0.5,
          "velocity": 60
        },
        {
          "pitch": 29,
          "onset": 30.5,
          "duration": 0.5,
          "velocity": 60
        },
        {
          "pitch": 28,
          "onset": 31.0,
          "duration": 0.5,
          "velocity": 60
        },
        {
          "pitch": 26,
          "onset": 31.5,
          "duration": 0.5,
          "velocity": 60
        },
        {
          "pitch": 31,
          "onset": 32.0,
          "duration": 0.5,
          "velocity": 60
        },
        {
          "pitch": 28,
          "onset": 32.5,
          "duration": 0.5,
          "velocity": 60
        },
        {
          "pitch": 33,
          "onset": 33.0,
          "duration": 1.0,
          "velocity": 60
        },
        {
          "pitch": 26,
          "onset": 34.0,
          "duration": 0.5,
          "velocity": 60
        },
        {
          "pitch": 33,
          "onset": 34.5,
          "duration": 0.5,
          "velocity": 60
        },
        {
          "pitch": 34,
          "onset": 35.0,
          "duration": 0.5,
          "velocity": 60
        },
        {
          "pitch": 35,
          "onset": 35.5,
          "duration": 0.5,
          "velocity": 60
        },
        {
          "pitch": 36,
          "onset": 36.0,
          "duration": 0.5,
          "velocity": 60
        },
        {
          "pitch": 24,
          "onset": 36.5,
          "duration": 0.5,
          "velocity": 60
        },
        {
          "pitch": 35,
          "onset": 38.5,
          "duration": 0.5,
          "velocity": 60
        },
        {
          "pitch": 36,
          "onset": 39.0,
          "duration": 0.5,
          "velocity": 60
        },
        {
          "pitch": 37,
          "onset": 39.5,
          "duration": 0.5,
          "velocity": 60
        },
        {
          "pitch": 38,
          "onset": 40.0,
          "duration": 0.5,
          "velocity": 60
        },
        {
          "pitch": 30,
          "onset": 40.5,
          "duration": 0.5,
          "velocity": 60
        },
        {
          "pitch": 31,
          "onset": 41.0,
          "duration": 0.5,
          "velocity": 60
        },
        {
          "pitch": 32,
          "onset": 41.5,
          "duration": 0.5,
          "velocity": 60
        },
        {
          "pitch": 33,
          "onset": 42.0,
          "duration": 1.0,
          "velocity": 60
        },
        {
          "pitch": 38,
          "onset": 46.5,
          "duration": 0.5,
          "velocity": 60
        },
        {
          "pitch": 37,
          "onset": 47.0,
          "duration": 0.5,
          "velocity": 60
        },
        {
          "pitch": 36,
          "onset": 47.5,
          "duration": 0.5,
          "velocity": 60
        },
        {
          "pitch": 35,
          "onset": 48.0,
          "duration": 1.9688,
          "velocity": 60
        },
        {
          "pitch": 28,
          "onset": 50.0,
          "duration": 2.5,
          "velocity": 60
        }
      ]
    }
  ]
}