{
  "bwv": 673,
  "category": "clavierubung3",
  "instrument": "organ",
  "form": "",
  "movement": null,
  "tonic": "A",
  "mode": "minor",
  "confidence": "inferred",
  "ticks_per_beat": 480,
  "duration_seconds": 78.4,
  "tempos": [
    {
      "tick": 0,
      "bpm": 75
    },
    {
      "tick": 40080,
      "bpm": 70
    },
    {
      "tick": 41520,
      "bpm": 70
    },
    {
      "tick": 42000,
      "bpm": 65
    },
    {
      "tick": 42240,
      "bpm": 60
    }
  ],
  "time_signatures": [
    {
      "tick": 0,
      "numerator": 3,
      "denominator": 4
    }
  ],
  "track_type": "manual",
  "voice_count": 1,
  "total_notes": 463,
  "tracks": [
    {
      "role": "manual",
      "notes": [
        {
          "pitch": 64,
          "onset": 0.0,
          "duration": 1.5,
          "velocity": 100
        },
        {
          "pitch": 55,
          "onset": 0.5,
          "duration": 0.5,
          "velocity": 100
        },
        {
          "pitch": 60,
          "onset": 1.0,
          "duration": 1.0,
          "velocity": 100
        },
        {
          "pitch": 62,
          "onset": 1.5,
          "duration": 1.5,
          "velocity": 100
        },
        {
          "pitch": 59,
          "onset": 2.0,
          "duration": 0.5,
          "velocity": 100
        },
        {
          "pitch": 57,
          "onset": 2.5,
          "duration": 0.5,
          "velocity": 100
        },
        {
          "pitch": 52,
          "onset": 3.0,
          "duration": 1.5,
          "velocity": 100
        },
        {
          "pitch": 59,
          "onset": 3.0,
          "duration": 0.5,
          "velocity": 100
        },
        {
          "pitch": 67,
          "onset": 3.0,
          "duration": 0.5,
          "velocity": 100
        },
        {
          "pitch": 60,
          "onset": 3.5,
          "duration": 0.5,
          "velocity": 100
        },
        {
          "pitch": 69,
          "onset": 3.5,
          "duration": 0.5,
          "velocity": 100
        },
        {
          "pitch": 62,
          "onset": 4.0,
          "duration": 0.5,
          "velocity": 100
        },
        {
          "pitch": 71,
          "onset": 4.0,
          "duration": 0.5,
          "velocity": 100
        },
        {
          "pitch": 48,
          "onset": 4.5,
          "duration": 1.5,
          "velocity": 100
        },
        {
          "pitch": 64,
          "onset": 4.5,
          "duration": 1.5,
          "velocity": 100
        },
        {
          "pitch": 72,
          "onset": 4.5,
          "duration": 0.5,
          "velocity": 100
        },
        {
          "pitch": 71,
          "onset": 5.0,
          "duration": 0.5,
          "velocity": 100
        },
        {
          "pitch": 72,
          "onset": 5.5,
          "duration": 1.0,
          "velocity": 100
        },
        {
          "pitch": 53,
          "onset": 6.0,
          "duration": 2.9688,
          "velocity": 100
        },
        {
          "pitch": 57,
          "onset": 6.0,
          "duration": 1.5,
          "velocity": 100
        },
        {
          "pitch": 62,
          "onset": 6.0,
          "duration": 1.5,
          "velocity": 100
        },
        {
          "pitch": 71,
          "onset": 6.5,
          "duration": 0.5,
          "velocity": 100
        },
        {
          "pitch": 69,
          "onset": 7.0,
          "duration": 0.5,
          "velocity": 100
        },
        {
          "pitch": 55,
          "onset": 7.5,
          "duration": 1.5,
          "velocity": 100
        },
        {
          "pitch": 67,
          "onset": 7.5,
          "duration": 0.5,
          "velocity": 100
        },
        {
          "pitch": 71,
          "onset": 7.5,
          "duration": 0.5,
          "velocity": 100
        },
        {
          "pitch": 69,
          "onset": 8.0,
          "duration": 0.5,
          "velocity": 100
        },
        {
          "pitch": 72,
          "onset": 8.0,
          "duration": 0.5,
          "velocity": 100
        },
        {
          "pitch": 71,
          "onset": 8.5,
          "duration": 0.5,
          "velocity": 100
        },
        {
          "pitch": 74,
          "onset": 8.5,
          "duration": 0.5,
          "velocity": 100
        },
        {
          "pitch": 52,
          "onset": 9.0,
          "duration": 0.5,
          "velocity": 100
        },
        {
          "pitch": 60,
          "onset": 9.0,
          "duration": 0.5,
          "velocity": 100
        },
        {
          "pitch": 72,
          "onset": 9.0,
          "duration": 1.0,
          "velocity": 100
        },
        {
          "pitch": 76,
          "onset": 9.0,
          "duration": 1.9688,
          "velocity": 100
        },
        {
          "pitch": 53,
          "onset": 9.5,
          "duration": 0.5,
          "velocity": 100
        },
        {
          "pitch": 62,
          "onset": 9.5,
          "duration": 0.5,
          "velocity": 100
        },
        {
          "pitch": 55,
          "onset": 10.0,
          "duration": 0.5,
          "velocity": 100
        },
        {
          "pitch": 64,
          "onset": 10.0,
          "duration": 0.5,
          "velocity": 100
        },
        {
          "pitch": 70,
          "onset": 10.0,
          "duration": 0.5,
          "velocity": 100
        },
        {
          "pitch": 57,
          "onset": 10.5,
          "duration": 1.0,
          "velocity": 100
        },
        {
          "pitch": 65,
          "onset": 10.5,
          "duration": 0.5,
          "velocity": 100
        },
        {
          "pitch": 69,
          "onset": 10.5,
          "duration": 1.5,
          "velocity": 100
        },
        {
          "pitch": 60,
          "onset": 11.0,
          "duration": 0.5,
          "velocity": 100
        },
        {
          "pitch": 77,
          "onset": 11.0,
          "duration": 0.25,
          "velocity": 100
        },
        {
          "pitch": 76,
          "onset": 11.25,
          "duration": 0.25,
          "velocity": 100
        },
        {
          "pitch": 65,
          "onset": 11.5,
          "duration": 1.0,
          "velocity": 100
        },
        {
          "pitch": 74,
          "onset": 11.5,
          "duration": 0.25,
          "velocity": 100
        },
        {
          "pitch": 72,
          "onset": 11.75,
          "duration": 0.25,
          "velocity": 100
        },
        {
          "pitch": 67,
          "onset": 12.0,
          "duration": 3.9688,
          "velocity": 100
        },
        {
          "pitch": 71,
          "onset": 12.0,
          "duration": 1.5,
          "velocity": 100
        },
        {
          "pitch": 64,
          "onset": 12.5,
          "duration": 0.5,
          "velocity": 100
        },
        {
          "pitch": 62,
          "onset": 13.0,
          "duration": 0.5,
          "velocity": 100
        },
        {
          "pitch": 52,
          "onset": 13.5,
          "duration": 1.5,
          "velocity": 100
        },
        {
          "pitch": 64,
          "onset": 13.5,
          "duration": 0.5,
          "velocity": 100
        },
        {
          "pitch": 72,
          "onset": 13.5,
          "duration": 1.5,
          "velocity": 100
        },
        {
          "pitch": 62,
          "onset": 14.0,
          "duration": 0.25,
          "velocity": 100
        },
        {
          "pitch": 60,
          "onset": 14.25,
          "duration": 0.25,
          "velocity": 100
        },
        {
          "pitch": 59,
          "onset": 14.5,
          "duration": 0.25,
          "velocity": 100
        },
        {
          "pitch": 57,
          "onset": 14.75,
          "duration": 0.25,
          "velocity": 100
        },
        {
          "pitch": 50,
          "onset": 15.0,
          "duration": 1.5,
          "velocity": 100
        },
        {
          "pitch": 59,
          "onset": 15.0,
          "duration": 0.5,
          "velocity": 100
        },
        {
          "pitch": 74,
          "onset": 15.0,
          "duration": 3.5,
          "velocity": 100
        },
        {
          "pitch": 57,
          "onset": 15.5,
          "duration": 0.25,
          "velocity": 100
        },
        {
          "pitch": 55,
          "onset": 15.75,
          "duration": 0.25,
          "velocity": 100
        },
        {
          "pitch": 57,
          "onset": 16.0,
          "duration": 0.5,
          "velocity": 100
        },
        {
          "pitch": 66,
          "onset": 16.0,
          "duration": 0.5,
          "velocity": 100
        },
        {
          "pitch": 55,
          "onset": 16.5,
          "duration": 0.5,
          "velocity": 100
        },
        {
          "pitch": 59,
          "onset": 16.5,
          "duration": 0.5,
          "velocity": 100
        },
        {
          "pitch": 67,
          "onset": 16.5,
          "duration": 2.9688,
          "velocity": 100
        },
        {
          "pitch": 57,
          "onset": 17.0,
          "duration": 0.5,
          "velocity": 100
        },
        {
          "pitch": 60,
          "onset": 17.0,
          "duration": 0.5,
          "velocity": 100
        },
        {
          "pitch": 59,
          "onset": 17.5,
          "duration": 0.5,
          "velocity": 100
        },
        {
          "pitch": 60,
          "onset": 18.0,
          "duration": 0.5,
          "velocity": 100
        },
        {
          "pitch": 64,
          "onset": 18.0,
          "duration": 1.5,
          "velocity": 100
        },
        {
          "pitch": 55,
          "onset": 18.5,
          "duration": 0.5,
          "velocity": 100
        },
        {
          "pitch": 72,
          "onset": 18.5,
          "duration": 0.25,
          "velocity": 100
        },
        {
          "pitch": 71,
          "onset": 18.75,
          "duration": 0.25,
          "velocity": 100
        },
        {
          "pitch": 60,
          "onset": 19.0,
          "duration": 1.0,
          "velocity": 100
        },
        {
          "pitch": 72,
          "onset": 19.0,
          "duration": 0.5,
          "velocity": 100
        },
        {
          "pitch": 62,
          "onset": 19.5,
          "duration": 2.9688,
          "velocity": 100
        },
        {
          "pitch": 69,
          "onset": 19.5,
          "duration": 1.5,
          "velocity": 100
        },
        {
          "pitch": 77,
          "onset": 19.5,
          "duration": 1.9688,
          "velocity": 100
        },
        {
          "pitch": 59,
          "onset": 20.0,
          "duration": 0.5,
          "velocity": 100
        },
        {
          "pitch": 57,
          "onset": 20.5,
          "duration": 0.5,
          "velocity": 100
        },
        {
          "pitch": 58,
          "onset": 21.0,
          "duration": 1.9688,
          "velocity": 100
        },
        {
          "pitch": 67,
          "onset": 21.0,
          "duration": 3.5,
          "velocity": 100
        },
        {
          "pitch": 79,
          "onset": 21.5,
          "duration": 0.25,
          "velocity": 100
        },
        {
          "pitch": 77,
          "onset": 21.75,
          "duration": 0.25,
          "velocity": 100
        },
        {
          "pitch": 76,
          "onset": 22.0,
          "duration": 0.25,
          "velocity": 100
        },
        {
          "pitch": 74,
          "onset": 22.25,
          "duration": 0.25,
          "velocity": 100
        },
        {
          "pitch": 76,
          "onset": 22.5,
          "duration": 2.9688,
          "velocity": 100
        },
        {
          "pitch": 57,
          "onset": 23.0,
          "duration": 0.5,
          "velocity": 100
        },
        {
          "pitch": 61,
          "onset": 23.0,
          "duration": 0.5,
          "velocity": 100
        },
        {
          "pitch": 55,
          "onset": 23.5,
          "duration": 0.5,
          "velocity": 100
        },
        {
          "pitch": 59,
          "onset": 23.5,
          "duration": 0.5,
          "velocity": 100
        },
        {
          "pitch": 57,
          "onset": 24.0,
          "duration": 4.5,
          "velocity": 100
        },
        {
          "pitch": 61,
          "onset": 24.0,
          "duration": 1.5,
          "velocity": 100
        },
        {
          "pitch": 69,
          "onset": 24.5,
          "duration": 0.25,
          "velocity": 100
        },
        {
          "pitch": 67,
          "onset": 24.75,
          "duration": 0.25,
          "velocity": 100
        },
        {
          "pitch": 65,
          "onset": 25.0,
          "duration": 0.25,
          "velocity": 100
        },
        {
          "pitch": 64,
          "onset": 25.25,
          "duration": 0.25,
          "velocity": 100
        },
        {
          "pitch": 62,
          "onset": 25.5,
          "duration": 0.5,
          "velocity": 100
        },
        {
          "pitch": 65,
          "onset": 25.5,
          "duration": 0.5,
          "velocity": 100
        },
        {
          "pitch": 65,
          "onset": 26.0,
          "duration": 0.25,
          "velocity": 100
        },
        {
          "pitch": 69,
          "onset": 26.0,
          "duration": 0.5,
          "velocity": 100
        },
        {
          "pitch": 73,
          "onset": 26.0,
          "duration": 0.5,
          "velocity": 100
        },
        {
          "pitch": 64,
          "onset": 26.25,
          "duration": 0.25,
          "velocity": 100
        },
        {
          "pitch": 65,
          "onset": 26.5,
          "duration": 0.5,
          "velocity": 100
        },
        {
          "pitch": 68,
          "onset": 26.5,
          "duration": 0.5,
          "velocity": 100
        },
        {
          "pitch": 74,
          "onset": 26.5,
          "duration": 1.0,
          "velocity": 100
        },
        {
          "pitch": 64,
          "onset": 27.0,
          "duration": 1.5,
          "velocity": 100
        },
        {
          "pitch": 69,
          "onset": 27.0,
          "duration": 1.9688,
          "velocity": 100
        },
        {
          "pitch": 76,
          "onset": 27.5,
          "duration": 0.25,
          "velocity": 100
        },
        {
          "pitch": 74,
          "onset": 27.75,
          "duration": 0.25,
          "velocity": 100
        },
        {
          "pitch": 73,
          "onset": 28.0,
          "duration": 0.25,
          "velocity": 100
        },
        {
          "pitch": 71,
          "onset": 28.25,
          "duration": 0.25,
          "velocity": 100
        },
        {
          "pitch": 45,
          "onset": 28.5,
          "duration": 1.5,
          "velocity": 100
        },
        {
          "pitch": 73,
          "onset": 28.5,
          "duration": 1.5,
          "velocity": 100
        },
        {
          "pitch": 70,
          "onset": 29.0,
          "duration": 0.5,
          "velocity": 100
        },
        {
          "pitch": 67,
          "onset": 29.5,
          "duration": 1.0,
          "velocity": 100
        },
        {
          "pitch": 38,
          "onset": 30.0,
          "duration": 1.5,
          "velocity": 100
        },
        {
          "pitch": 50,
          "onset": 30.0,
          "duration": 1.5,
          "velocity": 100
        },
        {
          "pitch": 74,
          "onset": 30.0,
          "duration": 0.5,
          "velocity": 100
        },
        {
          "pitch": 65,
          "onset": 30.5,
          "duration": 0.25,
          "velocity": 100
        },
        {
          "pitch": 69,
          "onset": 30.5,
          "duration": 0.5,
          "velocity": 100
        },
        {
          "pitch": 64,
          "onset": 30.75,
          "duration": 0.25,
          "velocity": 100
        },
        {
          "pitch": 65,
          "onset": 31.0,
          "duration": 0.5,
          "velocity": 100
        },
        {
          "pitch": 70,
          "onset": 31.0,
          "duration": 1.0,
          "velocity": 100
        },
        {
          "pitch": 48,
          "onset": 31.5,
          "duration": 1.5,
          "velocity": 100
        },
        {
          "pitch": 64,
          "onset": 31.5,
          "duration": 1.5,
          "velocity": 100
        },
        {
          "pitch": 69,
          "onset": 32.0,
          "duration": 0.5,
          "velocity": 100
        },
        {
          "pitch": 68,
          "onset": 32.5,
          "duration": 0.5,
          "velocity": 100
        },
        {
          "pitch": 53,
          "onset": 33.0,
          "duration": 0.5,
          "velocity": 100
        },
        {
          "pitch": 62,
          "onset": 33.0,
          "duration": 1.5,
          "velocity": 100
        },
        {
          "pitch": 69,
          "onset": 33.0,
          "duration": 1.5,
          "velocity": 100
        },
        {
          "pitch": 55,
          "onset": 33.5,
          "duration": 0.5,
          "velocity": 100
        },
        {
          "pitch": 57,
          "onset": 34.0,
          "duration": 0.5,
          "velocity": 100
        },
        {
          "pitch": 58,
          "onset": 34.5,
          "duration": 0.5,
          "velocity": 100
        },
        {
          "pitch": 67,
          "onset": 34.5,
          "duration": 1.5,
          "velocity": 100
        },
        {
          "pitch": 53,
          "onset": 35.0,
          "duration": 0.5,
          "velocity": 100
        },
        {
          "pitch": 69,
          "onset": 35.0,
          "duration": 0.5,
          "velocity": 100
        },
        {
          "pitch": 58,
          "onset": 35.5,
          "duration": 1.0,
          "velocity": 100
        },
        {
          "pitch": 70,
          "onset": 35.5,
          "duration": 0.5,
          "velocity": 100
        },
        {
          "pitch": 48,
          "onset": 36.0,
          "duration": 1.5,
          "velocity": 100
        },
        {
          "pitch": 72,
          "onset": 36.0,
          "duration": 0.5,
          "velocity": 100
        },
        {
          "pitch": 58,
          "onset": 36.5,
          "duration": 0.5,
          "velocity": 100
        },
        {
          "pitch": 67,
          "onset": 36.5,
          "duration": 0.5,
          "velocity": 100
        },
        {
          "pitch": 74,
          "onset": 36.5,
          "duration": 0.5,
          "velocity": 100
        },
        {
          "pitch": 57,
          "onset": 37.0,
          "duration": 1.0,
          "velocity": 100
        },
        {
          "pitch": 72,
          "onset": 37.0,
          "duration": 0.5,
          "velocity": 100
        },
        {
          "pitch": 76,
          "onset": 37.0,
          "duration": 0.5,
          "velocity": 100
        },
        {
          "pitch": 47,
          "onset": 37.5,
          "duration": 1.5,
          "velocity": 100
        },
        {
          "pitch": 74,
          "onset": 37.5,
          "duration": 0.25,
          "velocity": 100
        },
        {
          "pitch": 77,
          "onset": 37.5,
          "duration": 1.75,
          "velocity": 100
        },
        {
          "pitch": 72,
          "onset": 37.75,
          "duration": 0.25,
          "velocity": 100
        },
        {
          "pitch": 56,
          "onset": 38.0,
          "duration": 0.5,
          "velocity": 100
        },
        {
          "pitch": 74,
          "onset": 38.0,
          "duration": 0.25,
          "velocity": 100
        },
        {
          "pitch": 76,
          "onset": 38.25,
          "duration": 0.25,
          "velocity": 100
        },
        {
          "pitch": 57,
          "onset": 38.5,
          "duration": 0.5,
          "velocity": 100
        },
        {
          "pitch": 74,
          "onset": 38.5,
          "duration": 0.25,
          "velocity": 100
        },
        {
          "pitch": 72,
          "onset": 38.75,
          "duration": 0.25,
          "velocity": 100
        },
        {
          "pitch": 52,
          "onset": 39.0,
          "duration": 0.5,
          "velocity": 100
        },
        {
          "pitch": 56,
          "onset": 39.0,
          "duration": 0.5,
          "velocity": 100
        },
        {
          "pitch": 71,
          "onset": 39.0,
          "duration": 1.5,
          "velocity": 100
        },
        {
          "pitch": 76,
          "onset": 39.25,
          "duration": 0.25,
          "velocity": 100
        },
        {
          "pitch": 54,
          "onset": 39.5,
          "duration": 0.5,
          "velocity": 100
        },
        {
          "pitch": 57,
          "onset": 39.5,
          "duration": 0.5,
          "velocity": 100
        },
        {
          "pitch": 74,
          "onset": 39.5,
          "duration": 0.25,
          "velocity": 100
        },
        {
          "pitch": 72,
          "onset": 39.75,
          "duration": 0.25,
          "velocity": 100
        },
        {
          "pitch": 56,
          "onset": 40.0,
          "duration": 0.5,
          "velocity": 100
        },
        {
          "pitch": 59,
          "onset": 40.0,
          "duration": 0.5,
          "velocity": 100
        },
        {
          "pitch": 74,
          "onset": 40.0,
          "duration": 0.25,
          "velocity": 100
        },
        {
          "pitch": 76,
          "onset": 40.25,
          "duration": 0.25,
          "velocity": 100
        },
        {
          "pitch": 57,
          "onset": 40.5,
          "duration": 0.5,
          "velocity": 100
        },
        {
          "pitch": 60,
          "onset": 40.5,
          "duration": 1.5,
          "velocity": 100
        },
        {
          "pitch": 69,
          "onset": 40.5,
          "duration": 1.5,
          "velocity": 100
        },
        {
          "pitch": 72,
          "onset": 40.5,
          "duration": 0.25,
          "velocity": 100
        },
        {
          "pitch": 71,
          "onset": 40.75,
          "duration": 0.25,
          "velocity": 100
        },
        {
          "pitch": 52,
          "onset": 41.0,
          "duration": 0.5,
          "velocity": 100
        },
        {
          "pitch": 72,
          "onset": 41.0,
          "duration": 0.25,
          "velocity": 100
        },
        {
          "pitch": 74,
          "onset": 41.25,
          "duration": 0.25,
          "velocity": 100
        },
        {
          "pitch": 57,
          "onset": 41.5,
          "duration": 1.0,
          "velocity": 100
        },
        {
          "pitch": 76,
          "onset": 41.5,
          "duration": 0.25,
          "velocity": 100
        },
        {
          "pitch": 72,
          "onset": 41.75,
          "duration": 0.25,
          "velocity": 100
        },
        {
          "pitch": 59,
          "onset": 42.0,
          "duration": 1.0,
          "velocity": 100
        },
        {
          "pitch": 74,
          "onset": 42.0,
          "duration": 0.5,
          "velocity": 100
        },
        {
          "pitch": 77,
          "onset": 42.0,
          "duration": 0.5,
          "velocity": 100
        },
        {
          "pitch": 55,
          "onset": 42.5,
          "duration": 0.5,
          "velocity": 100
        },
        {
          "pitch": 76,
          "onset": 42.5,
          "duration": 0.5,
          "velocity": 100
        },
        {
          "pitch": 79,
          "onset": 42.5,
          "duration": 0.5,
          "velocity": 100
        },
        {
          "pitch": 53,
          "onset": 43.0,
          "duration": 1.0,
          "velocity": 100
        },
        {
          "pitch": 57,
          "onset": 43.0,
          "duration": 0.5,
          "velocity": 100
        },
        {
          "pitch": 77,
          "onset": 43.0,
          "duration": 0.5,
          "velocity": 100
        },
        {
          "pitch": 81,
          "onset": 43.0,
          "duration": 0.5,
          "velocity": 100
        },
        {
          "pitch": 55,
          "onset": 43.5,
          "duration": 1.0,
          "velocity": 100
        },
        {
          "pitch": 79,
          "onset": 43.5,
          "duration": 0.5,
          "velocity": 100
        },
        {
          "pitch": 82,
          "onset": 43.5,
          "duration": 1.5,
          "velocity": 100
        },
        {
          "pitch": 52,
          "onset": 44.0,
          "duration": 0.25,
          "velocity": 100
        },
        {
          "pitch": 72,
          "onset": 44.0,
          "duration": 0.5,
          "velocity": 100
        },
        {
          "pitch": 50,
          "onset": 44.25,
          "duration": 0.25,
          "velocity": 100
        },
        {
          "pitch": 52,
          "onset": 44.5,
          "duration": 1.0,
          "velocity": 100
        },
        {
          "pitch": 79,
          "onset": 44.5,
          "duration": 0.5,
          "velocity": 100
        },
        {
          "pitch": 77,
          "onset": 45.0,
          "duration": 0.5,
          "velocity": 100
        },
        {
          "pitch": 81,
          "onset": 45.0,
          "duration": 1.5,
          "velocity": 100
        },
        {
          "pitch": 45,
          "onset": 45.5,
          "duration": 0.5,
          "velocity": 100
        },
        {
          "pitch": 79,
          "onset": 45.5,
          "duration": 0.25,
          "velocity": 100
        },
        {
          "pitch": 77,
          "onset": 45.75,
          "duration": 0.25,
          "velocity": 100
        },
        {
          "pitch": 50,
          "onset": 46.0,
          "duration": 1.0,
          "velocity": 100
        },
        {
          "pitch": 76,
          "onset": 46.0,
          "duration": 0.25,
          "velocity": 100
        },
        {
          "pitch": 74,
          "onset": 46.25,
          "duration": 0.25,
          "velocity": 100
        },
        {
          "pitch": 76,
          "onset": 46.5,
          "duration": 1.0,
          "velocity": 100
        },
        {
          "pitch": 79,
          "onset": 46.5,
          "duration": 0.5,
          "velocity": 100
        },
        {
          "pitch": 49,
          "onset": 47.0,
          "duration": 0.25,
          "velocity": 100
        },
        {
          "pitch": 81,
          "onset": 47.0,
          "duration": 0.25,
          "velocity": 100
        },
        {
          "pitch": 47,
          "onset": 47.25,
          "duration": 0.25,
          "velocity": 100
        },
        {
          "pitch": 79,
          "onset": 47.25,
          "duration": 0.25,
          "velocity": 100
        },
        {
          "pitch": 49,
          "onset": 47.5,
          "duration": 0.5,
          "velocity": 100
        },
        {
          "pitch": 69,
          "onset": 47.5,
          "duration": 0.5,
          "velocity": 100
        },
        {
          "pitch": 77,
          "onset": 47.5,
          "duration": 0.25,
          "velocity": 100
        },
        {
          "pitch": 76,
          "onset": 47.75,
          "duration": 0.25,
          "velocity": 100
        },
        {
          "pitch": 50,
          "onset": 48.0,
          "duration": 1.75,
          "velocity": 100
        },
        {
          "pitch": 53,
          "onset": 48.0,
          "duration": 1.5,
          "velocity": 100
        },
        {
          "pitch": 69,
          "onset": 48.0,
          "duration": 0.5,
          "velocity": 100
        },
        {
          "pitch": 77,
          "onset": 48.0,
          "duration": 0.25,
          "velocity": 100
        },
        {
          "pitch": 76,
          "onset": 48.25,
          "duration": 0.25,
          "velocity": 100
        },
        {
          "pitch": 70,
          "onset": 48.5,
          "duration": 0.5,
          "velocity": 100
        },
        {
          "pitch": 74,
          "onset": 48.5,
          "duration": 0.25,
          "velocity": 100
        },
        {
          "pitch": 76,
          "onset": 48.75,
          "duration": 0.25,
          "velocity": 100
        },
        {
          "pitch": 69,
          "onset": 49.0,
          "duration": 0.5,
          "velocity": 100
        },
        {
          "pitch": 77,
          "onset": 49.0,
          "duration": 0.5,
          "velocity": 100
        },
        {
          "pitch": 52,
          "onset": 49.5,
          "duration": 1.5,
          "velocity": 100
        },
        {
          "pitch": 68,
          "onset": 49.5,
          "duration": 1.0,
          "velocity": 100
        },
        {
          "pitch": 71,
          "onset": 49.5,
          "duration": 1.5,
          "velocity": 100
        },
        {
          "pitch": 48,
          "onset": 49.75,
          "duration": 0.25,
          "velocity": 100
        },
        {
          "pitch": 47,
          "onset": 50.0,
          "duration": 0.25,
          "velocity": 100
        },
        {
          "pitch": 48,
          "onset": 50.25,
          "duration": 0.25,
          "velocity": 100
        },
        {
          "pitch": 50,
          "onset": 50.5,
          "duration": 0.25,
          "velocity": 100
        },
        {
          "pitch": 76,
          "onset": 50.5,
          "duration": 0.75,
          "velocity": 100
        },
        {
          "pitch": 47,
          "onset": 50.75,
          "duration": 0.25,
          "velocity": 100
        },
        {
          "pitch": 48,
          "onset": 51.0,
          "duration": 1.9688,
          "velocity": 100
        },
        {
          "pitch": 57,
          "onset": 51.0,
          "duration": 0.5,
          "velocity": 100
        },
        {
          "pitch": 69,
          "onset": 51.0,
          "duration": 1.0,
          "velocity": 100
        },
        {
          "pitch": 74,
          "onset": 51.25,
          "duration": 0.25,
          "velocity": 100
        },
        {
          "pitch": 59,
          "onset": 51.5,
          "duration": 0.5,
          "velocity": 100
        },
        {
          "pitch": 72,
          "onset": 51.5,
          "duration": 0.25,
          "velocity": 100
        },
        {
          "pitch": 71,
          "onset": 51.75,
          "duration": 0.25,
          "velocity": 100
        },
        {
          "pitch": 60,
          "onset": 52.0,
          "duration": 0.5,
          "velocity": 100
        },
        {
          "pitch": 69,
          "onset": 52.0,
          "duration": 0.25,
          "velocity": 100
        },
        {
          "pitch": 67,
          "onset": 52.25,
          "duration": 0.25,
          "velocity": 100
        },
        {
          "pitch": 62,
          "onset": 52.5,
          "duration": 0.5,
          "velocity": 100
        },
        {
          "pitch": 65,
          "onset": 52.5,
          "duration": 1.5,
          "velocity": 100
        },
        {
          "pitch": 50,
          "onset": 53.0,
          "duration": 0.25,
          "velocity": 100
        },
        {
          "pitch": 57,
          "onset": 53.0,
          "duration": 0.5,
          "velocity": 100
        },
        {
          "pitch": 48,
          "onset": 53.25,
          "duration": 0.25,
          "velocity": 100
        },
        {
          "pitch": 47,
          "onset": 53.5,
          "duration": 0.25,
          "velocity": 100
        },
        {
          "pitch": 62,
          "onset": 53.5,
          "duration": 1.0,
          "velocity": 100
        },
        {
          "pitch": 45,
          "onset": 53.75,
          "duration": 0.25,
          "velocity": 100
        },
        {
          "pitch": 44,
          "onset": 54.0,
          "duration": 1.5,
          "velocity": 100
        },
        {
          "pitch": 64,
          "onset": 54.0,
          "duration": 1.5,
          "velocity": 100
        },
        {
          "pitch": 71,
          "onset": 54.0,
          "duration": 1.5,
          "velocity": 100
        },
        {
          "pitch": 60,
          "onset": 54.5,
          "duration": 0.5,
          "velocity": 100
        },
        {
          "pitch": 59,
          "onset": 55.0,
          "duration": 0.5,
          "velocity": 100
        },
        {
          "pitch": 43,
          "onset": 55.5,
          "duration": 1.0,
          "velocity": 100
        },
        {
          "pitch": 61,
          "onset": 55.5,
          "duration": 0.5,
          "velocity": 100
        },
        {
          "pitch": 69,
          "onset": 55.5,
          "duration": 1.5,
          "velocity": 100
        },
        {
          "pitch": 62,
          "onset": 56.0,
          "duration": 0.5,
          "velocity": 100
        },
        {
          "pitch": 71,
          "onset": 56.0,
          "duration": 0.5,
          "velocity": 100
        },
        {
          "pitch": 55,
          "onset": 56.5,
          "duration": 0.5,
          "velocity": 100
        },
        {
          "pitch": 64,
          "onset": 56.5,
          "duration": 0.5,
          "velocity": 100
        },
        {
          "pitch": 73,
          "onset": 56.5,
          "duration": 0.5,
          "velocity": 100
        },
        {
          "pitch": 53,
          "onset": 57.0,
          "duration": 1.5,
          "velocity": 100
        },
        {
          "pitch": 57,
          "onset": 57.0,
          "duration": 1.5,
          "velocity": 100
        },
        {
          "pitch": 74,
          "onset": 57.0,
          "duration": 0.5,
          "velocity": 100
        },
        {
          "pitch": 69,
          "onset": 57.5,
          "duration": 0.5,
          "velocity": 100
        },
        {
          "pitch": 76,
          "onset": 57.5,
          "duration": 0.5,
          "velocity": 100
        },
        {
          "pitch": 74,
          "onset": 58.0,
          "duration": 1.0,
          "velocity": 100
        },
        {
          "pitch": 77,
          "onset": 58.0,
          "duration": 0.5,
          "velocity": 100
        },
        {
          "pitch": 52,
          "onset": 58.5,
          "duration": 1.5,
          "velocity": 100
        },
        {
          "pitch": 55,
          "onset": 58.5,
          "duration": 1.5,
          "velocity": 100
        },
        {
          "pitch": 79,
          "onset": 58.5,
          "duration": 1.9688,
          "velocity": 100
        },
        {
          "pitch": 76,
          "onset": 59.0,
          "duration": 0.25,
          "velocity": 100
        },
        {
          "pitch": 74,
          "onset": 59.25,
          "duration": 0.25,
          "velocity": 100
        },
        {
          "pitch": 73,
          "onset": 59.5,
          "duration": 0.25,
          "velocity": 100
        },
        {
          "pitch": 71,
          "onset": 59.75,
          "duration": 0.25,
          "velocity": 100
        },
        {
          "pitch": 57,
          "onset": 60.0,
          "duration": 0.5,
          "velocity": 100
        },
        {
          "pitch": 61,
          "onset": 60.0,
          "duration": 0.5,
          "velocity": 100
        },
        {
          "pitch": 69,
          "onset": 60.0,
          "duration": 3.0,
          "velocity": 100
        },
        {
          "pitch": 59,
          "onset": 60.5,
          "duration": 0.5,
          "velocity": 100
        },
        {
          "pitch": 62,
          "onset": 60.5,
          "duration": 0.5,
          "velocity": 100
        },
        {
          "pitch": 77,
          "onset": 60.5,
          "duration": 0.5,
          "velocity": 100
        },
        {
          "pitch": 61,
          "onset": 61.0,
          "duration": 0.5,
          "velocity": 100
        },
        {
          "pitch": 64,
          "onset": 61.0,
          "duration": 0.5,
          "velocity": 100
        },
        {
          "pitch": 76,
          "onset": 61.0,
          "duration": 1.0,
          "velocity": 100
        },
        {
          "pitch": 62,
          "onset": 61.5,
          "duration": 0.5,
          "velocity": 100
        },
        {
          "pitch": 65,
          "onset": 61.5,
          "duration": 1.5,
          "velocity": 100
        },
        {
          "pitch": 57,
          "onset": 62.0,
          "duration": 0.5,
          "velocity": 100
        },
        {
          "pitch": 74,
          "onset": 62.0,
          "duration": 0.25,
          "velocity": 100
        },
        {
          "pitch": 72,
          "onset": 62.25,
          "duration": 0.25,
          "velocity": 100
        },
        {
          "pitch": 62,
          "onset": 62.5,
          "duration": 1.0,
          "velocity": 100
        },
        {
          "pitch": 71,
          "onset": 62.5,
          "duration": 0.25,
          "velocity": 100
        },
        {
          "pitch": 64,
          "onset": 63.0,
          "duration": 1.5,
          "velocity": 100
        },
        {
          "pitch": 68,
          "onset": 63.0,
          "duration": 1.0,
          "velocity": 100
        },
        {
          "pitch": 76,
          "onset": 63.0,
          "duration": 1.5,
          "velocity": 100
        },
        {
          "pitch": 60,
          "onset": 63.5,
          "duration": 0.25,
          "velocity": 100
        },
        {
          "pitch": 59,
          "onset": 63.75,
          "duration": 0.25,
          "velocity": 100
        },
        {
          "pitch": 60,
          "onset": 64.0,
          "duration": 1.0,
          "velocity": 100
        },
        {
          "pitch": 69,
          "onset": 64.0,
          "duration": 0.5,
          "velocity": 100
        },
        {
          "pitch": 62,
          "onset": 64.5,
          "duration": 1.0,
          "velocity": 100
        },
        {
          "pitch": 66,
          "onset": 64.5,
          "duration": 0.5,
          "velocity": 100
        },
        {
          "pitch": 69,
          "onset": 64.5,
          "duration": 0.5,
          "velocity": 100
        },
        {
          "pitch": 59,
          "onset": 65.0,
          "duration": 0.25,
          "velocity": 100
        },
        {
          "pitch": 68,
          "onset": 65.0,
          "duration": 0.5,
          "velocity": 100
        },
        {
          "pitch": 74,
          "onset": 65.0,
          "duration": 0.25,
          "velocity": 100
        },
        {
          "pitch": 57,
          "onset": 65.25,
          "duration": 0.25,
          "velocity": 100
        },
        {
          "pitch": 72,
          "onset": 65.25,
          "duration": 0.25,
          "velocity": 100
        },
        {
          "pitch": 56,
          "onset": 65.5,
          "duration": 0.25,
          "velocity": 100
        },
        {
          "pitch": 69,
          "onset": 65.5,
          "duration": 0.5,
          "velocity": 100
        },
        {
          "pitch": 74,
          "onset": 65.5,
          "duration": 1.0,
          "velocity": 100
        },
        {
          "pitch": 54,
          "onset": 65.75,
          "duration": 0.25,
          "velocity": 100
        },
        {
          "pitch": 56,
          "onset": 66.0,
          "duration": 0.5,
          "velocity": 100
        },
        {
          "pitch": 71,
          "onset": 66.0,
          "duration": 0.5,
          "velocity": 100
        },
        {
          "pitch": 52,
          "onset": 66.5,
          "duration": 0.5,
          "velocity": 100
        },
        {
          "pitch": 68,
          "onset": 66.5,
          "duration": 0.5,
          "velocity": 100
        },
        {
          "pitch": 72,
          "onset": 66.5,
          "duration": 0.25,
          "velocity": 100
        },
        {
          "pitch": 71,
          "onset": 66.75,
          "duration": 0.25,
          "velocity": 100
        },
        {
          "pitch": 56,
          "onset": 67.0,
          "duration": 0.5,
          "velocity": 100
        },
        {
          "pitch": 64,
          "onset": 67.0,
          "duration": 0.5,
          "velocity": 100
        },
        {
          "pitch": 72,
          "onset": 67.0,
          "duration": 1.0,
          "velocity": 100
        },
        {
          "pitch": 50,
          "onset": 67.5,
          "duration": 0.5,
          "velocity": 100
        },
        {
          "pitch": 65,
          "onset": 67.5,
          "duration": 0.5,
          "velocity": 100
        },
        {
          "pitch": 55,
          "onset": 68.0,
          "duration": 0.5,
          "velocity": 100
        },
        {
          "pitch": 67,
          "onset": 68.0,
          "duration": 0.25,
          "velocity": 100
        },
        {
          "pitch": 71,
          "onset": 68.0,
          "duration": 1.25,
          "velocity": 100
        },
        {
          "pitch": 65,
          "onset": 68.25,
          "duration": 0.25,
          "velocity": 100
        },
        {
          "pitch": 43,
          "onset": 68.5,
          "duration": 0.5,
          "velocity": 100
        },
        {
          "pitch": 64,
          "onset": 68.5,
          "duration": 0.25,
          "velocity": 100
        },
        {
          "pitch": 62,
          "onset": 68.75,
          "duration": 0.25,
          "velocity": 100
        },
        {
          "pitch": 48,
          "onset": 69.0,
          "duration": 1.5,
          "velocity": 100
        },
        {
          "pitch": 52,
          "onset": 69.0,
          "duration": 1.5,
          "velocity": 100
        },
        {
          "pitch": 71,
          "onset": 69.25,
          "duration": 0.25,
          "velocity": 100
        },
        {
          "pitch": 69,
          "onset": 69.5,
          "duration": 0.25,
          "velocity": 100
        },
        {
          "pitch": 68,
          "onset": 69.75,
          "duration": 0.25,
          "velocity": 100
        },
        {
          "pitch": 69,
          "onset": 70.0,
          "duration": 0.25,
          "velocity": 100
        },
        {
          "pitch": 72,
          "onset": 70.25,
          "duration": 0.25,
          "velocity": 100
        },
        {
          "pitch": 50,
          "onset": 70.5,
          "duration": 1.5,
          "velocity": 100
        },
        {
          "pitch": 59,
          "onset": 70.5,
          "duration": 1.5,
          "velocity": 100
        },
        {
          "pitch": 77,
          "onset": 70.5,
          "duration": 0.25,
          "velocity": 100
        },
        {
          "pitch": 76,
          "onset": 70.75,
          "duration": 0.25,
          "velocity": 100
        },
        {
          "pitch": 74,
          "onset": 71.0,
          "duration": 0.25,
          "velocity": 100
        },
        {
          "pitch": 72,
          "onset": 71.25,
          "duration": 0.25,
          "velocity": 100
        },
        {
          "pitch": 71,
          "onset": 71.5,
          "duration": 0.25,
          "velocity": 100
        },
        {
          "pitch": 69,
          "onset": 71.75,
          "duration": 0.25,
          "velocity": 100
        },
        {
          "pitch": 52,
          "onset": 72.0,
          "duration": 5.9688,
          "velocity": 100
        },
        {
          "pitch": 56,
          "onset": 72.0,
          "duration": 0.5,
          "velocity": 100
        },
        {
          "pitch": 64,
          "onset": 72.0,
          "duration": 0.5,
          "velocity": 100
        },
        {
          "pitch": 72,
          "onset": 72.0,
          "duration": 1.0,
          "velocity": 100
        },
        {
          "pitch": 57,
          "onset": 72.5,
          "duration": 0.5,
          "velocity": 100
        },
        {
          "pitch": 66,
          "onset": 72.5,
          "duration": 0.5,
          "velocity": 100
        },
        {
          "pitch": 59,
          "onset": 73.0,
          "duration": 0.5,
          "velocity": 100
        },
        {
          "pitch": 68,
          "onset": 73.0,
          "duration": 0.5,
          "velocity": 100
        },
        {
          "pitch": 71,
          "onset": 73.0,
          "duration": 0.5,
          "velocity": 100
        },
        {
          "pitch": 60,
          "onset": 73.5,
          "duration": 0.5,
          "velocity": 100
        },
        {
          "pitch": 69,
          "onset": 73.5,
          "duration": 0.5,
          "velocity": 100
        },
        {
          "pitch": 62,
          "onset": 74.0,
          "duration": 0.25,
          "velocity": 100
        },
        {
          "pitch": 64,
          "onset": 74.0,
          "duration": 0.5,
          "velocity": 100
        },
        {
          "pitch": 68,
          "onset": 74.0,
          "duration": 0.5,
          "velocity": 100
        },
        {
          "pitch": 60,
          "onset": 74.25,
          "duration": 0.25,
          "velocity": 100
        },
        {
          "pitch": 59,
          "onset": 74.5,
          "duration": 0.25,
          "velocity": 100
        },
        {
          "pitch": 69,
          "onset": 74.5,
          "duration": 1.0,
          "velocity": 100
        },
        {
          "pitch": 57,
          "onset": 74.75,
          "duration": 0.25,
          "velocity": 100
        },
        {
          "pitch": 59,
          "onset": 75.0,
          "duration": 0.25,
          "velocity": 100
        },
        {
          "pitch": 64,
          "onset": 75.0,
          "duration": 0.5,
          "velocity": 100
        },
        {
          "pitch": 60,
          "onset": 75.25,
          "duration": 0.25,
          "velocity": 100
        },
        {
          "pitch": 68,
          "onset": 75.25,
          "duration": 0.25,
          "velocity": 100
        },
        {
          "pitch": 59,
          "onset": 75.5,
          "duration": 0.25,
          "velocity": 100
        },
        {
          "pitch": 65,
          "onset": 75.5,
          "duration": 0.25,
          "velocity": 100
        },
        {
          "pitch": 68,
          "onset": 75.5,
          "duration": 0.5,
          "velocity": 100
        },
        {
          "pitch": 57,
          "onset": 75.75,
          "duration": 0.25,
          "velocity": 100
        },
        {
          "pitch": 64,
          "onset": 75.75,
          "duration": 0.25,
          "velocity": 100
        },
        {
          "pitch": 56,
          "onset": 76.0,
          "duration": 0.25,
          "velocity": 100
        },
        {
          "pitch": 62,
          "onset": 76.0,
          "duration": 0.25,
          "velocity": 100
        },
        {
          "pitch": 71,
          "onset": 76.0,
          "duration": 1.0,
          "velocity": 100
        },
        {
          "pitch": 59,
          "onset": 76.25,
          "duration": 0.25,
          "velocity": 100
        },
        {
          "pitch": 52,
          "onset": 76.5,
          "duration": 1.5,
          "velocity": 100
        },
        {
          "pitch": 60,
          "onset": 76.5,
          "duration": 0.25,
          "velocity": 100
        },
        {
          "pitch": 62,
          "onset": 76.75,
          "duration": 0.25,
          "velocity": 100
        },
        {
          "pitch": 60,
          "onset": 77.0,
          "duration": 0.25,
          "velocity": 100
        },
        {
          "pitch": 69,
          "onset": 77.0,
          "duration": 0.25,
          "velocity": 100
        },
        {
          "pitch": 59,
          "onset": 77.25,
          "duration": 0.25,
          "velocity": 100
        },
        {
          "pitch": 68,
          "onset": 77.25,
          "duration": 0.25,
          "velocity": 100
        },
        {
          "pitch": 60,
          "onset": 77.5,
          "duration": 0.25,
          "velocity": 100
        },
        {
          "pitch": 69,
          "onset": 77.5,
          "duration": 1.0,
          "velocity": 100
        },
        {
          "pitch": 57,
          "onset": 77.75,
          "duration": 0.25,
          "velocity": 100
        },
        {
          "pitch": 50,
          "onset": 78.0,
          "duration": 1.9688,
          "velocity": 100
        },
        {
          "pitch": 53,
          "onset": 78.0,
          "duration": 0.5,
          "velocity": 100
        },
        {
          "pitch": 59,
          "onset": 78.0,
          "duration": 1.5,
          "velocity": 100
        },
        {
          "pitch": 52,
          "onset": 78.5,
          "duration": 0.5,
          "velocity": 100
        },
        {
          "pitch": 71,
          "onset": 78.5,
          "duration": 0.25,
          "velocity": 100
        },
        {
          "pitch": 69,
          "onset": 78.75,
          "duration": 0.25,
          "velocity": 100
        },
        {
          "pitch": 50,
          "onset": 79.0,
          "duration": 0.5,
          "velocity": 100
        },
        {
          "pitch": 68,
          "onset": 79.0,
          "duration": 0.25,
          "velocity": 100
        },
        {
          "pitch": 66,
          "onset": 79.25,
          "duration": 0.25,
          "velocity": 100
        },
        {
          "pitch": 52,
          "onset": 79.5,
          "duration": 1.5,
          "velocity": 100
        },
        {
          "pitch": 64,
          "onset": 79.5,
          "duration": 2.5,
          "velocity": 100
        },
        {
          "pitch": 68,
          "onset": 79.5,
          "duration": 0.5,
          "velocity": 100
        },
        {
          "pitch": 48,
          "onset": 80.0,
          "duration": 0.25,
          "velocity": 100
        },
        {
          "pitch": 69,
          "onset": 80.0,
          "duration": 0.5,
          "velocity": 100
        },
        {
          "pitch": 47,
          "onset": 80.25,
          "duration": 0.25,
          "velocity": 100
        },
        {
          "pitch": 45,
          "onset": 80.5,
          "duration": 0.25,
          "velocity": 100
        },
        {
          "pitch": 71,
          "onset": 80.5,
          "duration": 0.5,
          "velocity": 100
        },
        {
          "pitch": 44,
          "onset": 80.75,
          "duration": 0.25,
          "velocity": 100
        },
        {
          "pitch": 45,
          "onset": 81.0,
          "duration": 0.5,
          "velocity": 100
        },
        {
          "pitch": 57,
          "onset": 81.0,
          "duration": 0.75,
          "velocity": 100
        },
        {
          "pitch": 72,
          "onset": 81.0,
          "duration": 0.5,
          "velocity": 100
        },
        {
          "pitch": 47,
          "onset": 81.5,
          "duration": 0.5,
          "velocity": 100
        },
        {
          "pitch": 74,
          "onset": 81.5,
          "duration": 0.5,
          "velocity": 100
        },
        {
          "pitch": 55,
          "onset": 81.75,
          "duration": 0.25,
          "velocity": 100
        },
        {
          "pitch": 48,
          "onset": 82.0,
          "duration": 0.5,
          "velocity": 100
        },
        {
          "pitch": 53,
          "onset": 82.0,
          "duration": 0.25,
          "velocity": 100
        },
        {
          "pitch": 76,
          "onset": 82.0,
          "duration": 0.5,
          "velocity": 100
        },
        {
          "pitch": 52,
          "onset": 82.25,
          "duration": 0.25,
          "velocity": 100
        },
        {
          "pitch": 50,
          "onset": 82.5,
          "duration": 1.5,
          "velocity": 100
        },
        {
          "pitch": 77,
          "onset": 82.5,
          "duration": 1.9688,
          "velocity": 100
        },
        {
          "pitch": 76,
          "onset": 82.75,
          "duration": 0.25,
          "velocity": 100
        },
        {
          "pitch": 57,
          "onset": 83.0,
          "duration": 0.5,
          "velocity": 100
        },
        {
          "pitch": 74,
          "onset": 83.0,
          "duration": 0.25,
          "velocity": 100
        },
        {
          "pitch": 72,
          "onset": 83.25,
          "duration": 0.25,
          "velocity": 100
        },
        {
          "pitch": 62,
          "onset": 83.5,
          "duration": 1.0,
          "velocity": 100
        },
        {
          "pitch": 71,
          "onset": 83.5,
          "duration": 0.25,
          "velocity": 100
        },
        {
          "pitch": 69,
          "onset": 83.75,
          "duration": 0.25,
          "velocity": 100
        },
        {
          "pitch": 52,
          "onset": 84.0,
          "duration": 8.9688,
          "velocity": 100
        },
        {
          "pitch": 68,
          "onset": 84.0,
          "duration": 0.5,
          "velocity": 100
        },
        {
          "pitch": 60,
          "onset": 84.5,
          "duration": 0.25,
          "velocity": 100
        },
        {
          "pitch": 69,
          "onset": 84.5,
          "duration": 0.5,
          "velocity": 100
        },
        {
          "pitch": 76,
          "onset": 84.5,
          "duration": 0.5,
          "velocity": 100
        },
        {
          "pitch": 59,
          "onset": 84.75,
          "duration": 0.25,
          "velocity": 100
        },
        {
          "pitch": 57,
          "onset": 85.0,
          "duration": 0.25,
          "velocity": 100
        },
        {
          "pitch": 71,
          "onset": 85.0,
          "duration": 0.5,
          "velocity": 100
        },
        {
          "pitch": 74,
          "onset": 85.0,
          "duration": 1.0,
          "velocity": 100
        },
        {
          "pitch": 56,
          "onset": 85.25,
          "duration": 0.25,
          "velocity": 100
        },
        {
          "pitch": 57,
          "onset": 85.5,
          "duration": 1.0,
          "velocity": 100
        },
        {
          "pitch": 64,
          "onset": 85.5,
          "duration": 1.9688,
          "velocity": 100
        },
        {
          "pitch": 72,
          "onset": 86.0,
          "duration": 0.25,
          "velocity": 100
        },
        {
          "pitch": 71,
          "onset": 86.25,
          "duration": 0.25,
          "velocity": 100
        },
        {
          "pitch": 59,
          "onset": 86.5,
          "duration": 0.5,
          "velocity": 100
        },
        {
          "pitch": 69,
          "onset": 86.5,
          "duration": 0.25,
          "velocity": 100
        },
        {
          "pitch": 68,
          "onset": 86.75,
          "duration": 0.25,
          "velocity": 100
        },
        {
          "pitch": 60,
          "onset": 87.0,
          "duration": 0.5,
          "velocity": 100
        },
        {
          "pitch": 69,
          "onset": 87.0,
          "duration": 0.5,
          "velocity": 100
        },
        {
          "pitch": 59,
          "onset": 87.5,
          "duration": 0.25,
          "velocity": 100
        },
        {
          "pitch": 68,
          "onset": 87.5,
          "duration": 0.25,
          "velocity": 100
        },
        {
          "pitch": 71,
          "onset": 87.5,
          "duration": 0.5,
          "velocity": 100
        },
        {
          "pitch": 57,
          "onset": 87.75,
          "duration": 0.25,
          "velocity": 100
        },
        {
          "pitch": 65,
          "onset": 87.75,
          "duration": 0.25,
          "velocity": 100
        },
        {
          "pitch": 56,
          "onset": 88.0,
          "duration": 0.25,
          "velocity": 100
        },
        {
          "pitch": 64,
          "onset": 88.0,
          "duration": 0.25,
          "velocity": 100
        },
        {
          "pitch": 72,
          "onset": 88.0,
          "duration": 0.75,
          "velocity": 100
        },
        {
          "pitch": 54,
          "onset": 88.25,
          "duration": 0.5,
          "velocity": 100
        },
        {
          "pitch": 63,
          "onset": 88.25,
          "duration": 0.5,
          "velocity": 100
        },
        {
          "pitch": 56,
          "onset": 88.75,
          "duration": 4.2188,
          "velocity": 100
        },
        {
          "pitch": 64,
          "onset": 88.75,
          "duration": 4.2188,
          "velocity": 100
        },
        {
          "pitch": 71,
          "onset": 88.75,
          "duration": 4.2188,
          "velocity": 100
        },
        {
          "pitch": 71,
          "onset": 95.5,
          "duration": 0.25,
          "velocity": 1
        }
      ]
    }
  ]
}