{
  "bwv": 650,
  "category": "schubler_chorale",
  "instrument": "organ",
  "form": "",
  "movement": null,
  "ticks_per_beat": 480,
  "duration_seconds": 211.2,
  "tempos": [
    {
      "tick": 0,
      "bpm": 85
    },
    {
      "tick": 138240,
      "bpm": 85
    },
    {
      "tick": 139440,
      "bpm": 80
    },
    {
      "tick": 139920,
      "bpm": 70
    }
  ],
  "time_signatures": [
    {
      "tick": 0,
      "numerator": 9,
      "denominator": 8
    }
  ],
  "track_type": "manual",
  "voice_count": 3,
  "total_notes": 1389,
  "tracks": [
    {
      "role": "upper",
      "notes": [
        {
          "pitch": 67,
          "onset": 0.0,
          "duration": 0.25,
          "velocity": 100
        },
        {
          "pitch": 71,
          "onset": 0.25,
          "duration": 0.25,
          "velocity": 100
        },
        {
          "pitch": 74,
          "onset": 0.5,
          "duration": 0.25,
          "velocity": 100
        },
        {
          "pitch": 71,
          "onset": 0.75,
          "duration": 0.25,
          "velocity": 100
        },
        {
          "pitch": 67,
          "onset": 1.0,
          "duration": 0.25,
          "velocity": 100
        },
        {
          "pitch": 66,
          "onset": 1.25,
          "duration": 0.25,
          "velocity": 100
        },
        {
          "pitch": 67,
          "onset": 1.5,
          "duration": 0.25,
          "velocity": 100
        },
        {
          "pitch": 71,
          "onset": 1.75,
          "duration": 0.25,
          "velocity": 100
        },
        {
          "pitch": 74,
          "onset": 2.0,
          "duration": 0.25,
          "velocity": 100
        },
        {
          "pitch": 71,
          "onset": 2.25,
          "duration": 0.25,
          "velocity": 100
        },
        {
          "pitch": 67,
          "onset": 2.5,
          "duration": 0.25,
          "velocity": 100
        },
        {
          "pitch": 66,
          "onset": 2.75,
          "duration": 0.25,
          "velocity": 100
        },
        {
          "pitch": 67,
          "onset": 3.0,
          "duration": 0.5,
          "velocity": 100
        },
        {
          "pitch": 76,
          "onset": 3.5,
          "duration": 0.5,
          "velocity": 100
        },
        {
          "pitch": 74,
          "onset": 4.0,
          "duration": 0.5,
          "velocity": 100
        },
        {
          "pitch": 74,
          "onset": 4.5,
          "duration": 1.75,
          "velocity": 100
        },
        {
          "pitch": 79,
          "onset": 6.25,
          "duration": 0.25,
          "velocity": 100
        },
        {
          "pitch": 83,
          "onset": 6.5,
          "duration": 0.25,
          "velocity": 100
        },
        {
          "pitch": 79,
          "onset": 6.75,
          "duration": 0.25,
          "velocity": 100
        },
        {
          "pitch": 76,
          "onset": 7.0,
          "duration": 0.25,
          "velocity": 100
        },
        {
          "pitch": 74,
          "onset": 7.25,
          "duration": 0.25,
          "velocity": 100
        },
        {
          "pitch": 72,
          "onset": 7.5,
          "duration": 0.25,
          "velocity": 100
        },
        {
          "pitch": 78,
          "onset": 7.75,
          "duration": 0.25,
          "velocity": 100
        },
        {
          "pitch": 81,
          "onset": 8.0,
          "duration": 0.25,
          "velocity": 100
        },
        {
          "pitch": 78,
          "onset": 8.25,
          "duration": 0.25,
          "velocity": 100
        },
        {
          "pitch": 74,
          "onset": 8.5,
          "duration": 0.25,
          "velocity": 100
        },
        {
          "pitch": 72,
          "onset": 8.75,
          "duration": 0.25,
          "velocity": 100
        },
        {
          "pitch": 71,
          "onset": 9.0,
          "duration": 0.25,
          "velocity": 100
        },
        {
          "pitch": 74,
          "onset": 9.25,
          "duration": 0.25,
          "velocity": 100
        },
        {
          "pitch": 79,
          "onset": 9.5,
          "duration": 0.25,
          "velocity": 100
        },
        {
          "pitch": 74,
          "onset": 9.75,
          "duration": 0.25,
          "velocity": 100
        },
        {
          "pitch": 71,
          "onset": 10.0,
          "duration": 0.25,
          "velocity": 100
        },
        {
          "pitch": 69,
          "onset": 10.25,
          "duration": 0.25,
          "velocity": 100
        },
        {
          "pitch": 67,
          "onset": 10.5,
          "duration": 0.25,
          "velocity": 100
        },
        {
          "pitch": 71,
          "onset": 10.75,
          "duration": 0.25,
          "velocity": 100
        },
        {
          "pitch": 74,
          "onset": 11.0,
          "duration": 0.25,
          "velocity": 100
        },
        {
          "pitch": 71,
          "onset": 11.25,
          "duration": 0.25,
          "velocity": 100
        },
        {
          "pitch": 67,
          "onset": 11.5,
          "duration": 0.25,
          "velocity": 100
        },
        {
          "pitch": 66,
          "onset": 11.75,
          "duration": 0.25,
          "velocity": 100
        },
        {
          "pitch": 64,
          "onset": 12.0,
          "duration": 0.5,
          "velocity": 100
        },
        {
          "pitch": 72,
          "onset": 12.5,
          "duration": 0.5,
          "velocity": 100
        },
        {
          "pitch": 69,
          "onset": 13.0,
          "duration": 0.5,
          "velocity": 100
        },
        {
          "pitch": 66,
          "onset": 13.5,
          "duration": 0.125,
          "velocity": 100
        },
        {
          "pitch": 67,
          "onset": 13.625,
          "duration": 0.125,
          "velocity": 100
        },
        {
          "pitch": 66,
          "onset": 13.75,
          "duration": 0.125,
          "velocity": 100
        },
        {
          "pitch": 67,
          "onset": 13.875,
          "duration": 0.125,
          "velocity": 100
        },
        {
          "pitch": 66,
          "onset": 14.0,
          "duration": 0.5,
          "velocity": 100
        },
        {
          "pitch": 64,
          "onset": 14.5,
          "duration": 0.5,
          "velocity": 100
        },
        {
          "pitch": 62,
          "onset": 15.0,
          "duration": 1.5,
          "velocity": 100
        },
        {
          "pitch": 74,
          "onset": 16.5,
          "duration": 1.75,
          "velocity": 100
        },
        {
          "pitch": 64,
          "onset": 18.25,
          "duration": 0.25,
          "velocity": 100
        },
        {
          "pitch": 68,
          "onset": 18.5,
          "duration": 0.25,
          "velocity": 100
        },
        {
          "pitch": 71,
          "onset": 18.75,
          "duration": 0.25,
          "velocity": 100
        },
        {
          "pitch": 74,
          "onset": 19.0,
          "duration": 0.25,
          "velocity": 100
        },
        {
          "pitch": 72,
          "onset": 19.25,
          "duration": 0.25,
          "velocity": 100
        },
        {
          "pitch": 74,
          "onset": 19.5,
          "duration": 0.25,
          "velocity": 100
        },
        {
          "pitch": 80,
          "onset": 19.75,
          "duration": 0.25,
          "velocity": 100
        },
        {
          "pitch": 83,
          "onset": 20.0,
          "duration": 0.25,
          "velocity": 100
        },
        {
          "pitch": 80,
          "onset": 20.25,
          "duration": 0.25,
          "velocity": 100
        },
        {
          "pitch": 76,
          "onset": 20.5,
          "duration": 0.25,
          "velocity": 100
        },
        {
          "pitch": 74,
          "onset": 20.75,
          "duration": 0.25,
          "velocity": 100
        },
        {
          "pitch": 72,
          "onset": 21.0,
          "duration": 1.0,
          "velocity": 100
        },
        {
          "pitch": 71,
          "onset": 22.0,
          "duration": 0.5,
          "velocity": 100
        },
        {
          "pitch": 72,
          "onset": 22.5,
          "duration": 1.75,
          "velocity": 100
        },
        {
          "pitch": 69,
          "onset": 24.25,
          "duration": 0.25,
          "velocity": 100
        },
        {
          "pitch": 68,
          "onset": 24.5,
          "duration": 0.25,
          "velocity": 100
        },
        {
          "pitch": 69,
          "onset": 24.75,
          "duration": 0.25,
          "velocity": 100
        },
        {
          "pitch": 64,
          "onset": 25.0,
          "duration": 0.25,
          "velocity": 100
        },
        {
          "pitch": 69,
          "onset": 25.25,
          "duration": 0.25,
          "velocity": 100
        },
        {
          "pitch": 60,
          "onset": 25.5,
          "duration": 0.25,
          "velocity": 100
        },
        {
          "pitch": 64,
          "onset": 25.75,
          "duration": 0.25,
          "velocity": 100
        },
        {
          "pitch": 57,
          "onset": 26.0,
          "duration": 0.25,
          "velocity": 100
        },
        {
          "pitch": 60,
          "onset": 26.25,
          "duration": 0.25,
          "velocity": 100
        },
        {
          "pitch": 64,
          "onset": 26.5,
          "duration": 0.25,
          "velocity": 100
        },
        {
          "pitch": 69,
          "onset": 26.75,
          "duration": 0.25,
          "velocity": 100
        },
        {
          "pitch": 72,
          "onset": 27.0,
          "duration": 0.25,
          "velocity": 100
        },
        {
          "pitch": 62,
          "onset": 27.25,
          "duration": 0.25,
          "velocity": 100
        },
        {
          "pitch": 66,
          "onset": 27.5,
          "duration": 0.25,
          "velocity": 100
        },
        {
          "pitch": 69,
          "onset": 27.75,
          "duration": 0.25,
          "velocity": 100
        },
        {
          "pitch": 72,
          "onset": 28.0,
          "duration": 0.25,
          "velocity": 100
        },
        {
          "pitch": 71,
          "onset": 28.25,
          "duration": 0.25,
          "velocity": 100
        },
        {
          "pitch": 72,
          "onset": 28.5,
          "duration": 0.25,
          "velocity": 100
        },
        {
          "pitch": 78,
          "onset": 28.75,
          "duration": 0.25,
          "velocity": 100
        },
        {
          "pitch": 81,
          "onset": 29.0,
          "duration": 0.25,
          "velocity": 100
        },
        {
          "pitch": 78,
          "onset": 29.25,
          "duration": 0.25,
          "velocity": 100
        },
        {
          "pitch": 74,
          "onset": 29.5,
          "duration": 0.25,
          "velocity": 100
        },
        {
          "pitch": 72,
          "onset": 29.75,
          "duration": 0.25,
          "velocity": 100
        },
        {
          "pitch": 71,
          "onset": 30.0,
          "duration": 1.0,
          "velocity": 100
        },
        {
          "pitch": 69,
          "onset": 31.0,
          "duration": 0.5,
          "velocity": 100
        },
        {
          "pitch": 71,
          "onset": 31.5,
          "duration": 1.75,
          "velocity": 100
        },
        {
          "pitch": 67,
          "onset": 33.25,
          "duration": 0.25,
          "velocity": 100
        },
        {
          "pitch": 66,
          "onset": 33.5,
          "duration": 0.25,
          "velocity": 100
        },
        {
          "pitch": 67,
          "onset": 33.75,
          "duration": 0.25,
          "velocity": 100
        },
        {
          "pitch": 62,
          "onset": 34.0,
          "duration": 0.25,
          "velocity": 100
        },
        {
          "pitch": 67,
          "onset": 34.25,
          "duration": 0.25,
          "velocity": 100
        },
        {
          "pitch": 59,
          "onset": 34.5,
          "duration": 0.25,
          "velocity": 100
        },
        {
          "pitch": 62,
          "onset": 34.75,
          "duration": 0.25,
          "velocity": 100
        },
        {
          "pitch": 55,
          "onset": 35.0,
          "duration": 0.25,
          "velocity": 100
        },
        {
          "pitch": 59,
          "onset": 35.25,
          "duration": 0.25,
          "velocity": 100
        },
        {
          "pitch": 62,
          "onset": 35.5,
          "duration": 0.25,
          "velocity": 100
        },
        {
          "pitch": 65,
          "onset": 35.75,
          "duration": 0.25,
          "velocity": 100
        },
        {
          "pitch": 64,
          "onset": 36.0,
          "duration": 1.75,
          "velocity": 100
        },
        {
          "pitch": 72,
          "onset": 37.75,
          "duration": 0.25,
          "velocity": 100
        },
        {
          "pitch": 71,
          "onset": 38.0,
          "duration": 0.25,
          "velocity": 100
        },
        {
          "pitch": 72,
          "onset": 38.25,
          "duration": 0.25,
          "velocity": 100
        },
        {
          "pitch": 81,
          "onset": 38.5,
          "duration": 0.25,
          "velocity": 100
        },
        {
          "pitch": 72,
          "onset": 38.75,
          "duration": 0.25,
          "velocity": 100
        },
        {
          "pitch": 64,
          "onset": 39.0,
          "duration": 0.25,
          "velocity": 100
        },
        {
          "pitch": 72,
          "onset": 39.25,
          "duration": 0.25,
          "velocity": 100
        },
        {
          "pitch": 71,
          "onset": 39.5,
          "duration": 0.25,
          "velocity": 100
        },
        {
          "pitch": 72,
          "onset": 39.75,
          "duration": 0.25,
          "velocity": 100
        },
        {
          "pitch": 79,
          "onset": 40.0,
          "duration": 0.25,
          "velocity": 100
        },
        {
          "pitch": 72,
          "onset": 40.25,
          "duration": 0.25,
          "velocity": 100
        },
        {
          "pitch": 62,
          "onset": 40.5,
          "duration": 0.25,
          "velocity": 100
        },
        {
          "pitch": 72,
          "onset": 40.75,
          "duration": 0.25,
          "velocity": 100
        },
        {
          "pitch": 71,
          "onset": 41.0,
          "duration": 0.25,
          "velocity": 100
        },
        {
          "pitch": 72,
          "onset": 41.25,
          "duration": 0.25,
          "velocity": 100
        },
        {
          "pitch": 78,
          "onset": 41.5,
          "duration": 0.25,
          "velocity": 100
        },
        {
          "pitch": 72,
          "onset": 41.75,
          "duration": 0.25,
          "velocity": 100
        },
        {
          "pitch": 62,
          "onset": 42.0,
          "duration": 0.25,
          "velocity": 100
        },
        {
          "pitch": 72,
          "onset": 42.25,
          "duration": 0.25,
          "velocity": 100
        },
        {
          "pitch": 71,
          "onset": 42.5,
          "duration": 0.25,
          "velocity": 100
        },
        {
          "pitch": 72,
          "onset": 42.75,
          "duration": 0.25,
          "velocity": 100
        },
        {
          "pitch": 81,
          "onset": 43.0,
          "duration": 0.25,
          "velocity": 100
        },
        {
          "pitch": 72,
          "onset": 43.25,
          "duration": 0.25,
          "velocity": 100
        },
        {
          "pitch": 62,
          "onset": 43.5,
          "duration": 0.25,
          "velocity": 100
        },
        {
          "pitch": 72,
          "onset": 43.75,
          "duration": 0.25,
          "velocity": 100
        },
        {
          "pitch": 71,
          "onset": 44.0,
          "duration": 0.25,
          "velocity": 100
        },
        {
          "pitch": 72,
          "onset": 44.25,
          "duration": 0.25,
          "velocity": 100
        },
        {
          "pitch": 78,
          "onset": 44.5,
          "duration": 0.25,
          "velocity": 100
        },
        {
          "pitch": 72,
          "onset": 44.75,
          "duration": 0.25,
          "velocity": 100
        },
        {
          "pitch": 62,
          "onset": 45.0,
          "duration": 0.25,
          "velocity": 100
        },
        {
          "pitch": 71,
          "onset": 45.25,
          "duration": 0.25,
          "velocity": 100
        },
        {
          "pitch": 69,
          "onset": 45.5,
          "duration": 0.25,
          "velocity": 100
        },
        {
          "pitch": 71,
          "onset": 45.75,
          "duration": 0.25,
          "velocity": 100
        },
        {
          "pitch": 79,
          "onset": 46.0,
          "duration": 0.25,
          "velocity": 100
        },
        {
          "pitch": 71,
          "onset": 46.25,
          "duration": 0.25,
          "velocity": 100
        },
        {
          "pitch": 62,
          "onset": 46.5,
          "duration": 0.25,
          "velocity": 100
        },
        {
          "pitch": 71,
          "onset": 46.75,
          "duration": 0.25,
          "velocity": 100
        },
        {
          "pitch": 69,
          "onset": 47.0,
          "duration": 0.25,
          "velocity": 100
        },
        {
          "pitch": 71,
          "onset": 47.25,
          "duration": 0.25,
          "velocity": 100
        },
        {
          "pitch": 74,
          "onset": 47.5,
          "duration": 0.25,
          "velocity": 100
        },
        {
          "pitch": 71,
          "onset": 47.75,
          "duration": 0.25,
          "velocity": 100
        },
        {
          "pitch": 62,
          "onset": 48.0,
          "duration": 0.25,
          "velocity": 100
        },
        {
          "pitch": 71,
          "onset": 48.25,
          "duration": 0.25,
          "velocity": 100
        },
        {
          "pitch": 69,
          "onset": 48.5,
          "duration": 0.25,
          "velocity": 100
        },
        {
          "pitch": 71,
          "onset": 48.75,
          "duration": 0.25,
          "velocity": 100
        },
        {
          "pitch": 79,
          "onset": 49.0,
          "duration": 0.25,
          "velocity": 100
        },
        {
          "pitch": 71,
          "onset": 49.25,
          "duration": 0.25,
          "velocity": 100
        },
        {
          "pitch": 73,
          "onset": 49.5,
          "duration": 0.25,
          "velocity": 100
        },
        {
          "pitch": 82,
          "onset": 49.75,
          "duration": 0.25,
          "velocity": 100
        },
        {
          "pitch": 81,
          "onset": 50.0,
          "duration": 0.25,
          "velocity": 100
        },
        {
          "pitch": 79,
          "onset": 50.25,
          "duration": 0.25,
          "velocity": 100
        },
        {
          "pitch": 78,
          "onset": 50.5,
          "duration": 0.25,
          "velocity": 100
        },
        {
          "pitch": 79,
          "onset": 50.75,
          "duration": 0.25,
          "velocity": 100
        },
        {
          "pitch": 72,
          "onset": 51.0,
          "duration": 0.25,
          "velocity": 100
        },
        {
          "pitch": 83,
          "onset": 51.25,
          "duration": 0.25,
          "velocity": 100
        },
        {
          "pitch": 81,
          "onset": 51.5,
          "duration": 0.25,
          "velocity": 100
        },
        {
          "pitch": 79,
          "onset": 51.75,
          "duration": 0.25,
          "velocity": 100
        },
        {
          "pitch": 78,
          "onset": 52.0,
          "duration": 0.25,
          "velocity": 100
        },
        {
          "pitch": 79,
          "onset": 52.25,
          "duration": 0.25,
          "velocity": 100
        },
        {
          "pitch": 71,
          "onset": 52.5,
          "duration": 0.5,
          "velocity": 100
        },
        {
          "pitch": 72,
          "onset": 53.0,
          "duration": 0.5,
          "velocity": 100
        },
        {
          "pitch": 69,
          "onset": 53.5,
          "duration": 0.5,
          "velocity": 100
        },
        {
          "pitch": 67,
          "onset": 54.0,
          "duration": 1.5,
          "velocity": 100
        },
        {
          "pitch": 67,
          "onset": 58.5,
          "duration": 0.25,
          "velocity": 100
        },
        {
          "pitch": 71,
          "onset": 58.75,
          "duration": 0.25,
          "velocity": 100
        },
        {
          "pitch": 74,
          "onset": 59.0,
          "duration": 0.25,
          "velocity": 100
        },
        {
          "pitch": 71,
          "onset": 59.25,
          "duration": 0.25,
          "velocity": 100
        },
        {
          "pitch": 67,
          "onset": 59.5,
          "duration": 0.25,
          "velocity": 100
        },
        {
          "pitch": 66,
          "onset": 59.75,
          "duration": 0.25,
          "velocity": 100
        },
        {
          "pitch": 67,
          "onset": 60.0,
          "duration": 0.25,
          "velocity": 100
        },
        {
          "pitch": 71,
          "onset": 60.25,
          "duration": 0.25,
          "velocity": 100
        },
        {
          "pitch": 74,
          "onset": 60.5,
          "duration": 0.25,
          "velocity": 100
        },
        {
          "pitch": 71,
          "onset": 60.75,
          "duration": 0.25,
          "velocity": 100
        },
        {
          "pitch": 67,
          "onset": 61.0,
          "duration": 0.25,
          "velocity": 100
        },
        {
          "pitch": 66,
          "onset": 61.25,
          "duration": 0.25,
          "velocity": 100
        },
        {
          "pitch": 67,
          "onset": 61.5,
          "duration": 0.375,
          "velocity": 100
        },
        {
          "pitch": 76,
          "onset": 62.0,
          "duration": 0.375,
          "velocity": 100
        },
        {
          "pitch": 74,
          "onset": 62.5,
          "duration": 0.375,
          "velocity": 100
        },
        {
          "pitch": 74,
          "onset": 63.0,
          "duration": 1.75,
          "velocity": 100
        },
        {
          "pitch": 79,
          "onset": 64.75,
          "duration": 0.25,
          "velocity": 100
        },
        {
          "pitch": 83,
          "onset": 65.0,
          "duration": 0.25,
          "velocity": 100
        },
        {
          "pitch": 79,
          "onset": 65.25,
          "duration": 0.25,
          "velocity": 100
        },
        {
          "pitch": 76,
          "onset": 65.5,
          "duration": 0.25,
          "velocity": 100
        },
        {
          "pitch": 74,
          "onset": 65.75,
          "duration": 0.25,
          "velocity": 100
        },
        {
          "pitch": 72,
          "onset": 66.0,
          "duration": 0.25,
          "velocity": 100
        },
        {
          "pitch": 78,
          "onset": 66.25,
          "duration": 0.25,
          "velocity": 100
        },
        {
          "pitch": 81,
          "onset": 66.5,
          "duration": 0.25,
          "velocity": 100
        },
        {
          "pitch": 78,
          "onset": 66.75,
          "duration": 0.25,
          "velocity": 100
        },
        {
          "pitch": 74,
          "onset": 67.0,
          "duration": 0.25,
          "velocity": 100
        },
        {
          "pitch": 72,
          "onset": 67.25,
          "duration": 0.25,
          "velocity": 100
        },
        {
          "pitch": 67,
          "onset": 67.5,
          "duration": 0.5,
          "velocity": 100
        },
        {
          "pitch": 62,
          "onset": 72.25,
          "duration": 0.25,
          "velocity": 100
        },
        {
          "pitch": 66,
          "onset": 72.5,
          "duration": 0.25,
          "velocity": 100
        },
        {
          "pitch": 69,
          "onset": 72.75,
          "duration": 0.25,
          "velocity": 100
        },
        {
          "pitch": 72,
          "onset": 73.0,
          "duration": 0.25,
          "velocity": 100
        },
        {
          "pitch": 71,
          "onset": 73.25,
          "duration": 0.25,
          "velocity": 100
        },
        {
          "pitch": 72,
          "onset": 73.5,
          "duration": 0.25,
          "velocity": 100
        },
        {
          "pitch": 78,
          "onset": 73.75,
          "duration": 0.25,
          "velocity": 100
        },
        {
          "pitch": 81,
          "onset": 74.0,
          "duration": 0.25,
          "velocity": 100
        },
        {
          "pitch": 78,
          "onset": 74.25,
          "duration": 0.25,
          "velocity": 100
        },
        {
          "pitch": 74,
          "onset": 74.5,
          "duration": 0.25,
          "velocity": 100
        },
        {
          "pitch": 72,
          "onset": 74.75,
          "duration": 0.25,
          "velocity": 100
        },
        {
          "pitch": 71,
          "onset": 75.0,
          "duration": 1.0,
          "velocity": 100
        },
        {
          "pitch": 69,
          "onset": 76.0,
          "duration": 0.5,
          "velocity": 100
        },
        {
          "pitch": 71,
          "onset": 76.5,
          "duration": 1.75,
          "velocity": 100
        },
        {
          "pitch": 67,
          "onset": 78.25,
          "duration": 0.25,
          "velocity": 100
        },
        {
          "pitch": 66,
          "onset": 78.5,
          "duration": 0.25,
          "velocity": 100
        },
        {
          "pitch": 67,
          "onset": 78.75,
          "duration": 0.25,
          "velocity": 100
        },
        {
          "pitch": 62,
          "onset": 79.0,
          "duration": 0.25,
          "velocity": 100
        },
        {
          "pitch": 67,
          "onset": 79.25,
          "duration": 0.25,
          "velocity": 100
        },
        {
          "pitch": 59,
          "onset": 79.5,
          "duration": 0.25,
          "velocity": 100
        },
        {
          "pitch": 62,
          "onset": 79.75,
          "duration": 0.25,
          "velocity": 100
        },
        {
          "pitch": 55,
          "onset": 80.0,
          "duration": 0.25,
          "velocity": 100
        },
        {
          "pitch": 59,
          "onset": 80.25,
          "duration": 0.25,
          "velocity": 100
        },
        {
          "pitch": 62,
          "onset": 80.5,
          "duration": 0.25,
          "velocity": 100
        },
        {
          "pitch": 66,
          "onset": 80.75,
          "duration": 0.25,
          "velocity": 100
        },
        {
          "pitch": 64,
          "onset": 81.0,
          "duration": 1.75,
          "velocity": 100
        },
        {
          "pitch": 72,
          "onset": 82.75,
          "duration": 0.25,
          "velocity": 100
        },
        {
          "pitch": 71,
          "onset": 83.0,
          "duration": 0.25,
          "velocity": 100
        },
        {
          "pitch": 72,
          "onset": 83.25,
          "duration": 0.25,
          "velocity": 100
        },
        {
          "pitch": 81,
          "onset": 83.5,
          "duration": 0.25,
          "velocity": 100
        },
        {
          "pitch": 72,
          "onset": 83.75,
          "duration": 0.25,
          "velocity": 100
        },
        {
          "pitch": 64,
          "onset": 84.0,
          "duration": 0.25,
          "velocity": 100
        },
        {
          "pitch": 72,
          "onset": 84.25,
          "duration": 0.25,
          "velocity": 100
        },
        {
          "pitch": 71,
          "onset": 84.5,
          "duration": 0.25,
          "velocity": 100
        },
        {
          "pitch": 72,
          "onset": 84.75,
          "duration": 0.25,
          "velocity": 100
        },
        {
          "pitch": 79,
          "onset": 85.0,
          "duration": 0.25,
          "velocity": 100
        },
        {
          "pitch": 72,
          "onset": 85.25,
          "duration": 0.25,
          "velocity": 100
        },
        {
          "pitch": 62,
          "onset": 85.5,
          "duration": 0.25,
          "velocity": 100
        },
        {
          "pitch": 72,
          "onset": 85.75,
          "duration": 0.25,
          "velocity": 100
        },
        {
          "pitch": 71,
          "onset": 86.0,
          "duration": 0.25,
          "velocity": 100
        },
        {
          "pitch": 72,
          "onset": 86.25,
          "duration": 0.25,
          "velocity": 100
        },
        {
          "pitch": 78,
          "onset": 86.5,
          "duration": 0.25,
          "velocity": 100
        },
        {
          "pitch": 72,
          "onset": 86.75,
          "duration": 0.25,
          "velocity": 100
        },
        {
          "pitch": 62,
          "onset": 87.0,
          "duration": 0.25,
          "velocity": 100
        },
        {
          "pitch": 72,
          "onset": 87.25,
          "duration": 0.25,
          "velocity": 100
        },
        {
          "pitch": 71,
          "onset": 87.5,
          "duration": 0.25,
          "velocity": 100
        },
        {
          "pitch": 72,
          "onset": 87.75,
          "duration": 0.25,
          "velocity": 100
        },
        {
          "pitch": 81,
          "onset": 88.0,
          "duration": 0.25,
          "velocity": 100
        },
        {
          "pitch": 72,
          "onset": 88.25,
          "duration": 0.25,
          "velocity": 100
        },
        {
          "pitch": 62,
          "onset": 88.5,
          "duration": 0.25,
          "velocity": 100
        },
        {
          "pitch": 72,
          "onset": 88.75,
          "duration": 0.25,
          "velocity": 100
        },
        {
          "pitch": 71,
          "onset": 89.0,
          "duration": 0.25,
          "velocity": 100
        },
        {
          "pitch": 72,
          "onset": 89.25,
          "duration": 0.25,
          "velocity": 100
        },
        {
          "pitch": 77,
          "onset": 89.5,
          "duration": 0.25,
          "velocity": 100
        },
        {
          "pitch": 72,
          "onset": 89.75,
          "duration": 0.25,
          "velocity": 100
        },
        {
          "pitch": 62,
          "onset": 90.0,
          "duration": 0.25,
          "velocity": 100
        },
        {
          "pitch": 71,
          "onset": 90.25,
          "duration": 0.25,
          "velocity": 100
        },
        {
          "pitch": 69,
          "onset": 90.5,
          "duration": 0.25,
          "velocity": 100
        },
        {
          "pitch": 71,
          "onset": 90.75,
          "duration": 0.25,
          "velocity": 100
        },
        {
          "pitch": 79,
          "onset": 91.0,
          "duration": 0.25,
          "velocity": 100
        },
        {
          "pitch": 71,
          "onset": 91.25,
          "duration": 0.25,
          "velocity": 100
        },
        {
          "pitch": 62,
          "onset": 91.5,
          "duration": 0.25,
          "velocity": 100
        },
        {
          "pitch": 71,
          "onset": 91.75,
          "duration": 0.25,
          "velocity": 100
        },
        {
          "pitch": 69,
          "onset": 92.0,
          "duration": 0.25,
          "velocity": 100
        },
        {
          "pitch": 71,
          "onset": 92.25,
          "duration": 0.25,
          "velocity": 100
        },
        {
          "pitch": 74,
          "onset": 92.5,
          "duration": 0.25,
          "velocity": 100
        },
        {
          "pitch": 71,
          "onset": 92.75,
          "duration": 0.25,
          "velocity": 100
        },
        {
          "pitch": 62,
          "onset": 93.0,
          "duration": 0.25,
          "velocity": 100
        },
        {
          "pitch": 71,
          "onset": 93.25,
          "duration": 0.25,
          "velocity": 100
        },
        {
          "pitch": 69,
          "onset": 93.5,
          "duration": 0.25,
          "velocity": 100
        },
        {
          "pitch": 71,
          "onset": 93.75,
          "duration": 0.25,
          "velocity": 100
        },
        {
          "pitch": 79,
          "onset": 94.0,
          "duration": 0.25,
          "velocity": 100
        },
        {
          "pitch": 71,
          "onset": 94.25,
          "duration": 0.25,
          "velocity": 100
        },
        {
          "pitch": 73,
          "onset": 94.5,
          "duration": 0.25,
          "velocity": 100
        },
        {
          "pitch": 82,
          "onset": 94.75,
          "duration": 0.25,
          "velocity": 100
        },
        {
          "pitch": 81,
          "onset": 95.0,
          "duration": 0.25,
          "velocity": 100
        },
        {
          "pitch": 79,
          "onset": 95.25,
          "duration": 0.25,
          "velocity": 100
        },
        {
          "pitch": 78,
          "onset": 95.5,
          "duration": 0.25,
          "velocity": 100
        },
        {
          "pitch": 79,
          "onset": 95.75,
          "duration": 0.25,
          "velocity": 100
        },
        {
          "pitch": 72,
          "onset": 96.0,
          "duration": 0.25,
          "velocity": 100
        },
        {
          "pitch": 83,
          "onset": 96.25,
          "duration": 0.25,
          "velocity": 100
        },
        {
          "pitch": 81,
          "onset": 96.5,
          "duration": 0.25,
          "velocity": 100
        },
        {
          "pitch": 79,
          "onset": 96.75,
          "duration": 0.25,
          "velocity": 100
        },
        {
          "pitch": 78,
          "onset": 97.0,
          "duration": 0.25,
          "velocity": 100
        },
        {
          "pitch": 79,
          "onset": 97.25,
          "duration": 0.25,
          "velocity": 100
        },
        {
          "pitch": 71,
          "onset": 97.5,
          "duration": 0.5,
          "velocity": 100
        },
        {
          "pitch": 72,
          "onset": 98.0,
          "duration": 0.5,
          "velocity": 100
        },
        {
          "pitch": 69,
          "onset": 98.5,
          "duration": 0.5,
          "velocity": 100
        },
        {
          "pitch": 67,
          "onset": 99.0,
          "duration": 1.5,
          "velocity": 100
        },
        {
          "pitch": 67,
          "onset": 103.5,
          "duration": 0.25,
          "velocity": 100
        },
        {
          "pitch": 71,
          "onset": 103.75,
          "duration": 0.25,
          "velocity": 100
        },
        {
          "pitch": 74,
          "onset": 104.0,
          "duration": 0.25,
          "velocity": 100
        },
        {
          "pitch": 71,
          "onset": 104.25,
          "duration": 0.25,
          "velocity": 100
        },
        {
          "pitch": 67,
          "onset": 104.5,
          "duration": 0.25,
          "velocity": 100
        },
        {
          "pitch": 66,
          "onset": 104.75,
          "duration": 0.25,
          "velocity": 100
        },
        {
          "pitch": 67,
          "onset": 105.0,
          "duration": 0.25,
          "velocity": 100
        },
        {
          "pitch": 71,
          "onset": 105.25,
          "duration": 0.25,
          "velocity": 100
        },
        {
          "pitch": 74,
          "onset": 105.5,
          "duration": 0.25,
          "velocity": 100
        },
        {
          "pitch": 71,
          "onset": 105.75,
          "duration": 0.25,
          "velocity": 100
        },
        {
          "pitch": 67,
          "onset": 106.0,
          "duration": 0.25,
          "velocity": 100
        },
        {
          "pitch": 66,
          "onset": 106.25,
          "duration": 0.25,
          "velocity": 100
        },
        {
          "pitch": 67,
          "onset": 106.5,
          "duration": 0.375,
          "velocity": 100
        },
        {
          "pitch": 76,
          "onset": 107.0,
          "duration": 0.375,
          "velocity": 100
        },
        {
          "pitch": 74,
          "onset": 107.5,
          "duration": 0.375,
          "velocity": 100
        },
        {
          "pitch": 74,
          "onset": 108.0,
          "duration": 1.75,
          "velocity": 100
        },
        {
          "pitch": 79,
          "onset": 109.75,
          "duration": 0.25,
          "velocity": 100
        },
        {
          "pitch": 83,
          "onset": 110.0,
          "duration": 0.25,
          "velocity": 100
        },
        {
          "pitch": 79,
          "onset": 110.25,
          "duration": 0.25,
          "velocity": 100
        },
        {
          "pitch": 76,
          "onset": 110.5,
          "duration": 0.25,
          "velocity": 100
        },
        {
          "pitch": 74,
          "onset": 110.75,
          "duration": 0.25,
          "velocity": 100
        },
        {
          "pitch": 72,
          "onset": 111.0,
          "duration": 0.25,
          "velocity": 100
        },
        {
          "pitch": 78,
          "onset": 111.25,
          "duration": 0.25,
          "velocity": 100
        },
        {
          "pitch": 81,
          "onset": 111.5,
          "duration": 0.25,
          "velocity": 100
        },
        {
          "pitch": 78,
          "onset": 111.75,
          "duration": 0.25,
          "velocity": 100
        },
        {
          "pitch": 74,
          "onset": 112.0,
          "duration": 0.25,
          "velocity": 100
        },
        {
          "pitch": 72,
          "onset": 112.25,
          "duration": 0.25,
          "velocity": 100
        },
        {
          "pitch": 67,
          "onset": 112.5,
          "duration": 0.5,
          "velocity": 100
        },
        {
          "pitch": 62,
          "onset": 117.25,
          "duration": 0.25,
          "velocity": 100
        },
        {
          "pitch": 66,
          "onset": 117.5,
          "duration": 0.25,
          "velocity": 100
        },
        {
          "pitch": 69,
          "onset": 117.75,
          "duration": 0.25,
          "velocity": 100
        },
        {
          "pitch": 72,
          "onset": 118.0,
          "duration": 0.25,
          "velocity": 100
        },
        {
          "pitch": 71,
          "onset": 118.25,
          "duration": 0.25,
          "velocity": 100
        },
        {
          "pitch": 72,
          "onset": 118.5,
          "duration": 0.25,
          "velocity": 100
        },
        {
          "pitch": 78,
          "onset": 118.75,
          "duration": 0.25,
          "velocity": 100
        },
        {
          "pitch": 81,
          "onset": 119.0,
          "duration": 0.25,
          "velocity": 100
        },
        {
          "pitch": 78,
          "onset": 119.25,
          "duration": 0.25,
          "velocity": 100
        },
        {
          "pitch": 74,
          "onset": 119.5,
          "duration": 0.25,
          "velocity": 100
        },
        {
          "pitch": 72,
          "onset": 119.75,
          "duration": 0.25,
          "velocity": 100
        },
        {
          "pitch": 71,
          "onset": 120.0,
          "duration": 1.0,
          "velocity": 100
        },
        {
          "pitch": 69,
          "onset": 121.0,
          "duration": 0.5,
          "velocity": 100
        },
        {
          "pitch": 71,
          "onset": 121.5,
          "duration": 0.25,
          "velocity": 100
        },
        {
          "pitch": 74,
          "onset": 121.75,
          "duration": 0.25,
          "velocity": 100
        },
        {
          "pitch": 79,
          "onset": 122.0,
          "duration": 0.25,
          "velocity": 100
        },
        {
          "pitch": 74,
          "onset": 122.25,
          "duration": 0.25,
          "velocity": 100
        },
        {
          "pitch": 71,
          "onset": 122.5,
          "duration": 0.25,
          "velocity": 100
        },
        {
          "pitch": 69,
          "onset": 122.75,
          "duration": 0.25,
          "velocity": 100
        },
        {
          "pitch": 67,
          "onset": 123.0,
          "duration": 0.25,
          "velocity": 100
        },
        {
          "pitch": 71,
          "onset": 123.25,
          "duration": 0.25,
          "velocity": 100
        },
        {
          "pitch": 74,
          "onset": 123.5,
          "duration": 0.25,
          "velocity": 100
        },
        {
          "pitch": 71,
          "onset": 123.75,
          "duration": 0.25,
          "velocity": 100
        },
        {
          "pitch": 67,
          "onset": 124.0,
          "duration": 0.25,
          "velocity": 100
        },
        {
          "pitch": 66,
          "onset": 124.25,
          "duration": 0.25,
          "velocity": 100
        },
        {
          "pitch": 64,
          "onset": 124.5,
          "duration": 0.5,
          "velocity": 100
        },
        {
          "pitch": 72,
          "onset": 125.0,
          "duration": 0.5,
          "velocity": 100
        },
        {
          "pitch": 69,
          "onset": 125.5,
          "duration": 0.5,
          "velocity": 100
        },
        {
          "pitch": 66,
          "onset": 126.0,
          "duration": 1.0,
          "velocity": 100
        },
        {
          "pitch": 64,
          "onset": 127.0,
          "duration": 0.5,
          "velocity": 100
        },
        {
          "pitch": 62,
          "onset": 127.5,
          "duration": 1.5,
          "velocity": 100
        },
        {
          "pitch": 74,
          "onset": 129.0,
          "duration": 1.75,
          "velocity": 100
        },
        {
          "pitch": 64,
          "onset": 130.75,
          "duration": 0.25,
          "velocity": 100
        },
        {
          "pitch": 68,
          "onset": 131.0,
          "duration": 0.25,
          "velocity": 100
        },
        {
          "pitch": 71,
          "onset": 131.25,
          "duration": 0.25,
          "velocity": 100
        },
        {
          "pitch": 74,
          "onset": 131.5,
          "duration": 0.25,
          "velocity": 100
        },
        {
          "pitch": 72,
          "onset": 131.75,
          "duration": 0.25,
          "velocity": 100
        },
        {
          "pitch": 74,
          "onset": 132.0,
          "duration": 0.25,
          "velocity": 100
        },
        {
          "pitch": 80,
          "onset": 132.25,
          "duration": 0.25,
          "velocity": 100
        },
        {
          "pitch": 83,
          "onset": 132.5,
          "duration": 0.25,
          "velocity": 100
        },
        {
          "pitch": 80,
          "onset": 132.75,
          "duration": 0.25,
          "velocity": 100
        },
        {
          "pitch": 76,
          "onset": 133.0,
          "duration": 0.25,
          "velocity": 100
        },
        {
          "pitch": 74,
          "onset": 133.25,
          "duration": 0.25,
          "velocity": 100
        },
        {
          "pitch": 72,
          "onset": 133.5,
          "duration": 1.0,
          "velocity": 100
        },
        {
          "pitch": 71,
          "onset": 134.5,
          "duration": 0.5,
          "velocity": 100
        },
        {
          "pitch": 72,
          "onset": 135.0,
          "duration": 1.75,
          "velocity": 100
        },
        {
          "pitch": 69,
          "onset": 136.75,
          "duration": 0.25,
          "velocity": 100
        },
        {
          "pitch": 68,
          "onset": 137.0,
          "duration": 0.25,
          "velocity": 100
        },
        {
          "pitch": 69,
          "onset": 137.25,
          "duration": 0.25,
          "velocity": 100
        },
        {
          "pitch": 64,
          "onset": 137.5,
          "duration": 0.25,
          "velocity": 100
        },
        {
          "pitch": 69,
          "onset": 137.75,
          "duration": 0.25,
          "velocity": 100
        },
        {
          "pitch": 60,
          "onset": 138.0,
          "duration": 0.25,
          "velocity": 100
        },
        {
          "pitch": 64,
          "onset": 138.25,
          "duration": 0.25,
          "velocity": 100
        },
        {
          "pitch": 57,
          "onset": 138.5,
          "duration": 0.25,
          "velocity": 100
        },
        {
          "pitch": 60,
          "onset": 138.75,
          "duration": 0.25,
          "velocity": 100
        },
        {
          "pitch": 64,
          "onset": 139.0,
          "duration": 0.25,
          "velocity": 100
        },
        {
          "pitch": 69,
          "onset": 139.25,
          "duration": 0.25,
          "velocity": 100
        },
        {
          "pitch": 72,
          "onset": 139.5,
          "duration": 0.25,
          "velocity": 100
        },
        {
          "pitch": 63,
          "onset": 139.75,
          "duration": 0.25,
          "velocity": 100
        },
        {
          "pitch": 66,
          "onset": 140.0,
          "duration": 0.25,
          "velocity": 100
        },
        {
          "pitch": 69,
          "onset": 140.25,
          "duration": 0.25,
          "velocity": 100
        },
        {
          "pitch": 72,
          "onset": 140.5,
          "duration": 0.25,
          "velocity": 100
        },
        {
          "pitch": 71,
          "onset": 140.75,
          "duration": 0.25,
          "velocity": 100
        },
        {
          "pitch": 72,
          "onset": 141.0,
          "duration": 0.25,
          "velocity": 100
        },
        {
          "pitch": 78,
          "onset": 141.25,
          "duration": 0.25,
          "velocity": 100
        },
        {
          "pitch": 81,
          "onset": 141.5,
          "duration": 0.25,
          "velocity": 100
        },
        {
          "pitch": 78,
          "onset": 141.75,
          "duration": 0.25,
          "velocity": 100
        },
        {
          "pitch": 72,
          "onset": 142.0,
          "duration": 0.25,
          "velocity": 100
        },
        {
          "pitch": 71,
          "onset": 142.25,
          "duration": 0.25,
          "velocity": 100
        },
        {
          "pitch": 69,
          "onset": 142.5,
          "duration": 0.5,
          "velocity": 100
        },
        {
          "pitch": 67,
          "onset": 143.0,
          "duration": 0.5,
          "velocity": 100
        },
        {
          "pitch": 66,
          "onset": 143.5,
          "duration": 0.5,
          "velocity": 100
        },
        {
          "pitch": 67,
          "onset": 144.0,
          "duration": 1.75,
          "velocity": 100
        },
        {
          "pitch": 64,
          "onset": 145.75,
          "duration": 0.25,
          "velocity": 100
        },
        {
          "pitch": 63,
          "onset": 146.0,
          "duration": 0.25,
          "velocity": 100
        },
        {
          "pitch": 64,
          "onset": 146.25,
          "duration": 0.25,
          "velocity": 100
        },
        {
          "pitch": 59,
          "onset": 146.5,
          "duration": 0.25,
          "velocity": 100
        },
        {
          "pitch": 64,
          "onset": 146.75,
          "duration": 0.25,
          "velocity": 100
        },
        {
          "pitch": 55,
          "onset": 147.0,
          "duration": 0.25,
          "velocity": 100
        },
        {
          "pitch": 59,
          "onset": 147.25,
          "duration": 0.25,
          "velocity": 100
        },
        {
          "pitch": 64,
          "onset": 147.5,
          "duration": 0.25,
          "velocity": 100
        },
        {
          "pitch": 67,
          "onset": 147.75,
          "duration": 0.25,
          "velocity": 100
        },
        {
          "pitch": 71,
          "onset": 148.0,
          "duration": 0.25,
          "velocity": 100
        },
        {
          "pitch": 74,
          "onset": 148.25,
          "duration": 0.25,
          "velocity": 100
        },
        {
          "pitch": 72,
          "onset": 148.5,
          "duration": 1.75,
          "velocity": 100
        },
        {
          "pitch": 78,
          "onset": 150.25,
          "duration": 0.25,
          "velocity": 100
        },
        {
          "pitch": 76,
          "onset": 150.5,
          "duration": 0.25,
          "velocity": 100
        },
        {
          "pitch": 78,
          "onset": 150.75,
          "duration": 0.25,
          "velocity": 100
        },
        {
          "pitch": 81,
          "onset": 151.0,
          "duration": 0.25,
          "velocity": 100
        },
        {
          "pitch": 78,
          "onset": 151.25,
          "duration": 0.25,
          "velocity": 100
        },
        {
          "pitch": 72,
          "onset": 151.5,
          "duration": 0.25,
          "velocity": 100
        },
        {
          "pitch": 78,
          "onset": 151.75,
          "duration": 0.25,
          "velocity": 100
        },
        {
          "pitch": 76,
          "onset": 152.0,
          "duration": 0.25,
          "velocity": 100
        },
        {
          "pitch": 78,
          "onset": 152.25,
          "duration": 0.25,
          "velocity": 100
        },
        {
          "pitch": 84,
          "onset": 152.5,
          "duration": 0.25,
          "velocity": 100
        },
        {
          "pitch": 76,
          "onset": 152.75,
          "duration": 0.25,
          "velocity": 100
        },
        {
          "pitch": 75,
          "onset": 153.0,
          "duration": 0.25,
          "velocity": 100
        },
        {
          "pitch": 71,
          "onset": 153.25,
          "duration": 0.25,
          "velocity": 100
        },
        {
          "pitch": 69,
          "onset": 153.5,
          "duration": 0.25,
          "velocity": 100
        },
        {
          "pitch": 71,
          "onset": 153.75,
          "duration": 0.25,
          "velocity": 100
        },
        {
          "pitch": 73,
          "onset": 154.0,
          "duration": 0.25,
          "velocity": 100
        },
        {
          "pitch": 71,
          "onset": 154.25,
          "duration": 0.25,
          "velocity": 100
        },
        {
          "pitch": 75,
          "onset": 154.5,
          "duration": 0.25,
          "velocity": 100
        },
        {
          "pitch": 71,
          "onset": 154.75,
          "duration": 0.25,
          "velocity": 100
        },
        {
          "pitch": 69,
          "onset": 155.0,
          "duration": 0.25,
          "velocity": 100
        },
        {
          "pitch": 71,
          "onset": 155.25,
          "duration": 0.25,
          "velocity": 100
        },
        {
          "pitch": 76,
          "onset": 155.5,
          "duration": 0.25,
          "velocity": 100
        },
        {
          "pitch": 71,
          "onset": 155.75,
          "duration": 0.25,
          "velocity": 100
        },
        {
          "pitch": 78,
          "onset": 156.0,
          "duration": 0.25,
          "velocity": 100
        },
        {
          "pitch": 71,
          "onset": 156.25,
          "duration": 0.25,
          "velocity": 100
        },
        {
          "pitch": 69,
          "onset": 156.5,
          "duration": 0.25,
          "velocity": 100
        },
        {
          "pitch": 71,
          "onset": 156.75,
          "duration": 0.25,
          "velocity": 100
        },
        {
          "pitch": 81,
          "onset": 157.0,
          "duration": 0.25,
          "velocity": 100
        },
        {
          "pitch": 71,
          "onset": 157.25,
          "duration": 0.25,
          "velocity": 100
        },
        {
          "pitch": 79,
          "onset": 157.5,
          "duration": 0.25,
          "velocity": 100
        },
        {
          "pitch": 71,
          "onset": 157.75,
          "duration": 0.25,
          "velocity": 100
        },
        {
          "pitch": 69,
          "onset": 158.0,
          "duration": 0.25,
          "velocity": 100
        },
        {
          "pitch": 71,
          "onset": 158.25,
          "duration": 0.25,
          "velocity": 100
        },
        {
          "pitch": 76,
          "onset": 158.5,
          "duration": 0.25,
          "velocity": 100
        },
        {
          "pitch": 71,
          "onset": 158.75,
          "duration": 0.25,
          "velocity": 100
        },
        {
          "pitch": 79,
          "onset": 159.0,
          "duration": 0.25,
          "velocity": 100
        },
        {
          "pitch": 71,
          "onset": 159.25,
          "duration": 0.25,
          "velocity": 100
        },
        {
          "pitch": 69,
          "onset": 159.5,
          "duration": 0.25,
          "velocity": 100
        },
        {
          "pitch": 71,
          "onset": 159.75,
          "duration": 0.25,
          "velocity": 100
        },
        {
          "pitch": 83,
          "onset": 160.0,
          "duration": 0.25,
          "velocity": 100
        },
        {
          "pitch": 71,
          "onset": 160.25,
          "duration": 0.25,
          "velocity": 100
        },
        {
          "pitch": 79,
          "onset": 160.5,
          "duration": 0.25,
          "velocity": 100
        },
        {
          "pitch": 71,
          "onset": 160.75,
          "duration": 0.25,
          "velocity": 100
        },
        {
          "pitch": 69,
          "onset": 161.0,
          "duration": 0.25,
          "velocity": 100
        },
        {
          "pitch": 71,
          "onset": 161.25,
          "duration": 0.25,
          "velocity": 100
        },
        {
          "pitch": 79,
          "onset": 161.5,
          "duration": 0.25,
          "velocity": 100
        },
        {
          "pitch": 76,
          "onset": 161.75,
          "duration": 0.25,
          "velocity": 100
        },
        {
          "pitch": 70,
          "onset": 162.0,
          "duration": 0.25,
          "velocity": 100
        },
        {
          "pitch": 79,
          "onset": 162.25,
          "duration": 0.25,
          "velocity": 100
        },
        {
          "pitch": 78,
          "onset": 162.5,
          "duration": 0.25,
          "velocity": 100
        },
        {
          "pitch": 76,
          "onset": 162.75,
          "duration": 0.25,
          "velocity": 100
        },
        {
          "pitch": 75,
          "onset": 163.0,
          "duration": 0.25,
          "velocity": 100
        },
        {
          "pitch": 76,
          "onset": 163.25,
          "duration": 0.25,
          "velocity": 100
        },
        {
          "pitch": 69,
          "onset": 163.5,
          "duration": 0.25,
          "velocity": 100
        },
        {
          "pitch": 79,
          "onset": 163.75,
          "duration": 0.25,
          "velocity": 100
        },
        {
          "pitch": 78,
          "onset": 164.0,
          "duration": 0.25,
          "velocity": 100
        },
        {
          "pitch": 76,
          "onset": 164.25,
          "duration": 0.25,
          "velocity": 100
        },
        {
          "pitch": 75,
          "onset": 164.5,
          "duration": 0.25,
          "velocity": 100
        },
        {
          "pitch": 76,
          "onset": 164.75,
          "duration": 0.25,
          "velocity": 100
        },
        {
          "pitch": 67,
          "onset": 165.0,
          "duration": 0.5,
          "velocity": 100
        },
        {
          "pitch": 69,
          "onset": 165.5,
          "duration": 0.5,
          "velocity": 100
        },
        {
          "pitch": 66,
          "onset": 166.0,
          "duration": 0.5,
          "velocity": 100
        },
        {
          "pitch": 64,
          "onset": 166.5,
          "duration": 1.5,
          "velocity": 100
        },
        {
          "pitch": 72,
          "onset": 171.25,
          "duration": 0.25,
          "velocity": 100
        },
        {
          "pitch": 71,
          "onset": 171.5,
          "duration": 0.25,
          "velocity": 100
        },
        {
          "pitch": 72,
          "onset": 171.75,
          "duration": 0.25,
          "velocity": 100
        },
        {
          "pitch": 81,
          "onset": 172.0,
          "duration": 0.25,
          "velocity": 100
        },
        {
          "pitch": 72,
          "onset": 172.25,
          "duration": 0.25,
          "velocity": 100
        },
        {
          "pitch": 64,
          "onset": 172.5,
          "duration": 0.25,
          "velocity": 100
        },
        {
          "pitch": 72,
          "onset": 172.75,
          "duration": 0.25,
          "velocity": 100
        },
        {
          "pitch": 71,
          "onset": 173.0,
          "duration": 0.25,
          "velocity": 100
        },
        {
          "pitch": 72,
          "onset": 173.25,
          "duration": 0.25,
          "velocity": 100
        },
        {
          "pitch": 76,
          "onset": 173.5,
          "duration": 0.25,
          "velocity": 100
        },
        {
          "pitch": 72,
          "onset": 173.75,
          "duration": 0.25,
          "velocity": 100
        },
        {
          "pitch": 64,
          "onset": 174.0,
          "duration": 0.25,
          "velocity": 100
        },
        {
          "pitch": 72,
          "onset": 174.25,
          "duration": 0.25,
          "velocity": 100
        },
        {
          "pitch": 71,
          "onset": 174.5,
          "duration": 0.25,
          "velocity": 100
        },
        {
          "pitch": 72,
          "onset": 174.75,
          "duration": 0.25,
          "velocity": 100
        },
        {
          "pitch": 79,
          "onset": 175.0,
          "duration": 0.25,
          "velocity": 100
        },
        {
          "pitch": 72,
          "onset": 175.25,
          "duration": 0.25,
          "velocity": 100
        },
        {
          "pitch": 62,
          "onset": 175.5,
          "duration": 0.25,
          "velocity": 100
        },
        {
          "pitch": 72,
          "onset": 175.75,
          "duration": 0.25,
          "velocity": 100
        },
        {
          "pitch": 71,
          "onset": 176.0,
          "duration": 0.25,
          "velocity": 100
        },
        {
          "pitch": 72,
          "onset": 176.25,
          "duration": 0.25,
          "velocity": 100
        },
        {
          "pitch": 78,
          "onset": 176.5,
          "duration": 0.25,
          "velocity": 100
        },
        {
          "pitch": 72,
          "onset": 176.75,
          "duration": 0.25,
          "velocity": 100
        },
        {
          "pitch": 62,
          "onset": 177.0,
          "duration": 0.25,
          "velocity": 100
        },
        {
          "pitch": 72,
          "onset": 177.25,
          "duration": 0.25,
          "velocity": 100
        },
        {
          "pitch": 71,
          "onset": 177.5,
          "duration": 0.25,
          "velocity": 100
        },
        {
          "pitch": 72,
          "onset": 177.75,
          "duration": 0.25,
          "velocity": 100
        },
        {
          "pitch": 81,
          "onset": 178.0,
          "duration": 0.25,
          "velocity": 100
        },
        {
          "pitch": 72,
          "onset": 178.25,
          "duration": 0.25,
          "velocity": 100
        },
        {
          "pitch": 62,
          "onset": 178.5,
          "duration": 0.25,
          "velocity": 100
        },
        {
          "pitch": 72,
          "onset": 178.75,
          "duration": 0.25,
          "velocity": 100
        },
        {
          "pitch": 71,
          "onset": 179.0,
          "duration": 0.25,
          "velocity": 100
        },
        {
          "pitch": 72,
          "onset": 179.25,
          "duration": 0.25,
          "velocity": 100
        },
        {
          "pitch": 78,
          "onset": 179.5,
          "duration": 0.25,
          "velocity": 100
        },
        {
          "pitch": 72,
          "onset": 179.75,
          "duration": 0.25,
          "velocity": 100
        },
        {
          "pitch": 62,
          "onset": 180.0,
          "duration": 0.25,
          "velocity": 100
        },
        {
          "pitch": 71,
          "onset": 180.25,
          "duration": 0.25,
          "velocity": 100
        },
        {
          "pitch": 69,
          "onset": 180.5,
          "duration": 0.25,
          "velocity": 100
        },
        {
          "pitch": 71,
          "onset": 180.75,
          "duration": 0.25,
          "velocity": 100
        },
        {
          "pitch": 79,
          "onset": 181.0,
          "duration": 0.25,
          "velocity": 100
        },
        {
          "pitch": 71,
          "onset": 181.25,
          "duration": 0.25,
          "velocity": 100
        },
        {
          "pitch": 62,
          "onset": 181.5,
          "duration": 0.25,
          "velocity": 100
        },
        {
          "pitch": 72,
          "onset": 181.75,
          "duration": 0.25,
          "velocity": 100
        },
        {
          "pitch": 71,
          "onset": 182.0,
          "duration": 0.25,
          "velocity": 100
        },
        {
          "pitch": 72,
          "onset": 182.25,
          "duration": 0.25,
          "velocity": 100
        },
        {
          "pitch": 81,
          "onset": 182.5,
          "duration": 0.25,
          "velocity": 100
        },
        {
          "pitch": 72,
          "onset": 182.75,
          "duration": 0.25,
          "velocity": 100
        },
        {
          "pitch": 62,
          "onset": 183.0,
          "duration": 0.25,
          "velocity": 100
        },
        {
          "pitch": 74,
          "onset": 183.25,
          "duration": 0.25,
          "velocity": 100
        },
        {
          "pitch": 72,
          "onset": 183.5,
          "duration": 0.25,
          "velocity": 100
        },
        {
          "pitch": 74,
          "onset": 183.75,
          "duration": 0.25,
          "velocity": 100
        },
        {
          "pitch": 83,
          "onset": 184.0,
          "duration": 0.25,
          "velocity": 100
        },
        {
          "pitch": 74,
          "onset": 184.25,
          "duration": 0.25,
          "velocity": 100
        },
        {
          "pitch": 67,
          "onset": 184.5,
          "duration": 0.5,
          "velocity": 100
        },
        {
          "pitch": 62,
          "onset": 189.0,
          "duration": 0.25,
          "velocity": 100
        },
        {
          "pitch": 66,
          "onset": 189.25,
          "duration": 0.25,
          "velocity": 100
        },
        {
          "pitch": 69,
          "onset": 189.5,
          "duration": 0.25,
          "velocity": 100
        },
        {
          "pitch": 66,
          "onset": 189.75,
          "duration": 0.25,
          "velocity": 100
        },
        {
          "pitch": 62,
          "onset": 190.0,
          "duration": 0.25,
          "velocity": 100
        },
        {
          "pitch": 61,
          "onset": 190.25,
          "duration": 0.25,
          "velocity": 100
        },
        {
          "pitch": 62,
          "onset": 190.5,
          "duration": 0.25,
          "velocity": 100
        },
        {
          "pitch": 66,
          "onset": 190.75,
          "duration": 0.25,
          "velocity": 100
        },
        {
          "pitch": 69,
          "onset": 191.0,
          "duration": 0.25,
          "velocity": 100
        },
        {
          "pitch": 66,
          "onset": 191.25,
          "duration": 0.25,
          "velocity": 100
        },
        {
          "pitch": 62,
          "onset": 191.5,
          "duration": 0.25,
          "velocity": 100
        },
        {
          "pitch": 61,
          "onset": 191.75,
          "duration": 0.25,
          "velocity": 100
        },
        {
          "pitch": 62,
          "onset": 192.0,
          "duration": 0.375,
          "velocity": 100
        },
        {
          "pitch": 71,
          "onset": 192.5,
          "duration": 0.375,
          "velocity": 100
        },
        {
          "pitch": 69,
          "onset": 193.0,
          "duration": 0.375,
          "velocity": 100
        },
        {
          "pitch": 69,
          "onset": 193.5,
          "duration": 1.75,
          "velocity": 100
        },
        {
          "pitch": 73,
          "onset": 195.25,
          "duration": 0.25,
          "velocity": 100
        },
        {
          "pitch": 76,
          "onset": 195.5,
          "duration": 0.25,
          "velocity": 100
        },
        {
          "pitch": 73,
          "onset": 195.75,
          "duration": 0.25,
          "velocity": 100
        },
        {
          "pitch": 67,
          "onset": 196.0,
          "duration": 0.25,
          "velocity": 100
        },
        {
          "pitch": 66,
          "onset": 196.25,
          "duration": 0.25,
          "velocity": 100
        },
        {
          "pitch": 67,
          "onset": 196.5,
          "duration": 0.25,
          "velocity": 100
        },
        {
          "pitch": 73,
          "onset": 196.75,
          "duration": 0.25,
          "velocity": 100
        },
        {
          "pitch": 76,
          "onset": 197.0,
          "duration": 0.25,
          "velocity": 100
        },
        {
          "pitch": 73,
          "onset": 197.25,
          "duration": 0.25,
          "velocity": 100
        },
        {
          "pitch": 66,
          "onset": 197.5,
          "duration": 0.25,
          "velocity": 100
        },
        {
          "pitch": 64,
          "onset": 197.75,
          "duration": 0.25,
          "velocity": 100
        },
        {
          "pitch": 66,
          "onset": 198.0,
          "duration": 0.25,
          "velocity": 100
        },
        {
          "pitch": 69,
          "onset": 198.25,
          "duration": 0.25,
          "velocity": 100
        },
        {
          "pitch": 74,
          "onset": 198.5,
          "duration": 0.25,
          "velocity": 100
        },
        {
          "pitch": 69,
          "onset": 198.75,
          "duration": 0.25,
          "velocity": 100
        },
        {
          "pitch": 66,
          "onset": 199.0,
          "duration": 0.25,
          "velocity": 100
        },
        {
          "pitch": 64,
          "onset": 199.25,
          "duration": 0.25,
          "velocity": 100
        },
        {
          "pitch": 62,
          "onset": 199.5,
          "duration": 0.25,
          "velocity": 100
        },
        {
          "pitch": 66,
          "onset": 199.75,
          "duration": 0.25,
          "velocity": 100
        },
        {
          "pitch": 69,
          "onset": 200.0,
          "duration": 0.25,
          "velocity": 100
        },
        {
          "pitch": 66,
          "onset": 200.25,
          "duration": 0.25,
          "velocity": 100
        },
        {
          "pitch": 62,
          "onset": 200.5,
          "duration": 0.25,
          "velocity": 100
        },
        {
          "pitch": 61,
          "onset": 200.75,
          "duration": 0.25,
          "velocity": 100
        },
        {
          "pitch": 59,
          "onset": 201.0,
          "duration": 0.5,
          "velocity": 100
        },
        {
          "pitch": 67,
          "onset": 201.5,
          "duration": 0.5,
          "velocity": 100
        },
        {
          "pitch": 64,
          "onset": 202.0,
          "duration": 0.5,
          "velocity": 100
        },
        {
          "pitch": 61,
          "onset": 202.5,
          "duration": 1.0,
          "velocity": 100
        },
        {
          "pitch": 59,
          "onset": 203.5,
          "duration": 0.5,
          "velocity": 100
        },
        {
          "pitch": 57,
          "onset": 204.0,
          "duration": 1.5,
          "velocity": 100
        },
        {
          "pitch": 67,
          "onset": 205.5,
          "duration": 1.75,
          "velocity": 100
        },
        {
          "pitch": 67,
          "onset": 207.25,
          "duration": 0.25,
          "velocity": 100
        },
        {
          "pitch": 66,
          "onset": 207.5,
          "duration": 0.25,
          "velocity": 100
        },
        {
          "pitch": 67,
          "onset": 207.75,
          "duration": 0.25,
          "velocity": 100
        },
        {
          "pitch": 73,
          "onset": 208.0,
          "duration": 0.25,
          "velocity": 100
        },
        {
          "pitch": 67,
          "onset": 208.25,
          "duration": 0.25,
          "velocity": 100
        },
        {
          "pitch": 57,
          "onset": 208.5,
          "duration": 0.25,
          "velocity": 100
        },
        {
          "pitch": 67,
          "onset": 208.75,
          "duration": 0.25,
          "velocity": 100
        },
        {
          "pitch": 66,
          "onset": 209.0,
          "duration": 0.25,
          "velocity": 100
        },
        {
          "pitch": 67,
          "onset": 209.25,
          "duration": 0.25,
          "velocity": 100
        },
        {
          "pitch": 76,
          "onset": 209.5,
          "duration": 0.25,
          "velocity": 100
        },
        {
          "pitch": 67,
          "onset": 209.75,
          "duration": 0.25,
          "velocity": 100
        },
        {
          "pitch": 57,
          "onset": 210.0,
          "duration": 0.25,
          "velocity": 100
        },
        {
          "pitch": 67,
          "onset": 210.25,
          "duration": 0.25,
          "velocity": 100
        },
        {
          "pitch": 66,
          "onset": 210.5,
          "duration": 0.25,
          "velocity": 100
        },
        {
          "pitch": 67,
          "onset": 210.75,
          "duration": 0.25,
          "velocity": 100
        },
        {
          "pitch": 73,
          "onset": 211.0,
          "duration": 0.25,
          "velocity": 100
        },
        {
          "pitch": 67,
          "onset": 211.25,
          "duration": 0.25,
          "velocity": 100
        },
        {
          "pitch": 57,
          "onset": 211.5,
          "duration": 0.25,
          "velocity": 100
        },
        {
          "pitch": 66,
          "onset": 211.75,
          "duration": 0.25,
          "velocity": 100
        },
        {
          "pitch": 64,
          "onset": 212.0,
          "duration": 0.25,
          "velocity": 100
        },
        {
          "pitch": 66,
          "onset": 212.25,
          "duration": 0.25,
          "velocity": 100
        },
        {
          "pitch": 74,
          "onset": 212.5,
          "duration": 0.25,
          "velocity": 100
        },
        {
          "pitch": 66,
          "onset": 212.75,
          "duration": 0.25,
          "velocity": 100
        },
        {
          "pitch": 57,
          "onset": 213.0,
          "duration": 0.25,
          "velocity": 100
        },
        {
          "pitch": 66,
          "onset": 213.25,
          "duration": 0.25,
          "velocity": 100
        },
        {
          "pitch": 64,
          "onset": 213.5,
          "duration": 0.25,
          "velocity": 100
        },
        {
          "pitch": 66,
          "onset": 213.75,
          "duration": 0.25,
          "velocity": 100
        },
        {
          "pitch": 69,
          "onset": 214.0,
          "duration": 0.25,
          "velocity": 100
        },
        {
          "pitch": 66,
          "onset": 214.25,
          "duration": 0.25,
          "velocity": 100
        },
        {
          "pitch": 57,
          "onset": 214.5,
          "duration": 0.25,
          "velocity": 100
        },
        {
          "pitch": 66,
          "onset": 214.75,
          "duration": 0.25,
          "velocity": 100
        },
        {
          "pitch": 64,
          "onset": 215.0,
          "duration": 0.25,
          "velocity": 100
        },
        {
          "pitch": 66,
          "onset": 215.25,
          "duration": 0.25,
          "velocity": 100
        },
        {
          "pitch": 74,
          "onset": 215.5,
          "duration": 0.25,
          "velocity": 100
        },
        {
          "pitch": 66,
          "onset": 215.75,
          "duration": 0.25,
          "velocity": 100
        },
        {
          "pitch": 68,
          "onset": 216.0,
          "duration": 0.25,
          "velocity": 100
        },
        {
          "pitch": 77,
          "onset": 216.25,
          "duration": 0.25,
          "velocity": 100
        },
        {
          "pitch": 76,
          "onset": 216.5,
          "duration": 0.25,
          "velocity": 100
        },
        {
          "pitch": 74,
          "onset": 216.75,
          "duration": 0.25,
          "velocity": 100
        },
        {
          "pitch": 73,
          "onset": 217.0,
          "duration": 0.25,
          "velocity": 100
        },
        {
          "pitch": 74,
          "onset": 217.25,
          "duration": 0.25,
          "velocity": 100
        },
        {
          "pitch": 67,
          "onset": 217.5,
          "duration": 0.25,
          "velocity": 100
        },
        {
          "pitch": 78,
          "onset": 217.75,
          "duration": 0.25,
          "velocity": 100
        },
        {
          "pitch": 76,
          "onset": 218.0,
          "duration": 0.25,
          "velocity": 100
        },
        {
          "pitch": 74,
          "onset": 218.25,
          "duration": 0.25,
          "velocity": 100
        },
        {
          "pitch": 73,
          "onset": 218.5,
          "duration": 0.25,
          "velocity": 100
        },
        {
          "pitch": 74,
          "onset": 218.75,
          "duration": 0.25,
          "velocity": 100
        },
        {
          "pitch": 66,
          "onset": 219.0,
          "duration": 0.375,
          "velocity": 100
        },
        {
          "pitch": 67,
          "onset": 219.5,
          "duration": 0.375,
          "velocity": 100
        },
        {
          "pitch": 64,
          "onset": 220.0,
          "duration": 0.375,
          "velocity": 100
        },
        {
          "pitch": 62,
          "onset": 220.5,
          "duration": 0.25,
          "velocity": 100
        },
        {
          "pitch": 66,
          "onset": 220.75,
          "duration": 0.25,
          "velocity": 100
        },
        {
          "pitch": 69,
          "onset": 221.0,
          "duration": 0.25,
          "velocity": 100
        },
        {
          "pitch": 74,
          "onset": 221.25,
          "duration": 0.25,
          "velocity": 100
        },
        {
          "pitch": 72,
          "onset": 221.5,
          "duration": 0.25,
          "velocity": 100
        },
        {
          "pitch": 71,
          "onset": 221.75,
          "duration": 0.25,
          "velocity": 100
        },
        {
          "pitch": 72,
          "onset": 222.0,
          "duration": 0.25,
          "velocity": 100
        },
        {
          "pitch": 78,
          "onset": 222.25,
          "duration": 0.25,
          "velocity": 100
        },
        {
          "pitch": 81,
          "onset": 222.5,
          "duration": 0.25,
          "velocity": 100
        },
        {
          "pitch": 78,
          "onset": 222.75,
          "duration": 0.25,
          "velocity": 100
        },
        {
          "pitch": 74,
          "onset": 223.0,
          "duration": 0.25,
          "velocity": 100
        },
        {
          "pitch": 72,
          "onset": 223.25,
          "duration": 0.25,
          "velocity": 100
        },
        {
          "pitch": 71,
          "onset": 223.5,
          "duration": 1.0,
          "velocity": 100
        },
        {
          "pitch": 69,
          "onset": 224.5,
          "duration": 0.5,
          "velocity": 100
        },
        {
          "pitch": 71,
          "onset": 225.0,
          "duration": 4.75,
          "velocity": 100
        },
        {
          "pitch": 76,
          "onset": 229.75,
          "duration": 0.25,
          "velocity": 100
        },
        {
          "pitch": 79,
          "onset": 230.0,
          "duration": 0.25,
          "velocity": 100
        },
        {
          "pitch": 76,
          "onset": 230.25,
          "duration": 0.25,
          "velocity": 100
        },
        {
          "pitch": 72,
          "onset": 230.5,
          "duration": 0.25,
          "velocity": 100
        },
        {
          "pitch": 71,
          "onset": 230.75,
          "duration": 0.25,
          "velocity": 100
        },
        {
          "pitch": 69,
          "onset": 231.0,
          "duration": 0.25,
          "velocity": 100
        },
        {
          "pitch": 74,
          "onset": 231.25,
          "duration": 0.25,
          "velocity": 100
        },
        {
          "pitch": 81,
          "onset": 231.5,
          "duration": 0.25,
          "velocity": 100
        },
        {
          "pitch": 72,
          "onset": 231.75,
          "duration": 0.25,
          "velocity": 100
        },
        {
          "pitch": 71,
          "onset": 232.0,
          "duration": 0.25,
          "velocity": 100
        },
        {
          "pitch": 69,
          "onset": 232.25,
          "duration": 0.25,
          "velocity": 100
        },
        {
          "pitch": 67,
          "onset": 232.5,
          "duration": 0.5,
          "velocity": 100
        },
        {
          "pitch": 62,
          "onset": 235.75,
          "duration": 0.25,
          "velocity": 100
        },
        {
          "pitch": 66,
          "onset": 236.0,
          "duration": 0.25,
          "velocity": 100
        },
        {
          "pitch": 69,
          "onset": 236.25,
          "duration": 0.25,
          "velocity": 100
        },
        {
          "pitch": 72,
          "onset": 236.5,
          "duration": 0.25,
          "velocity": 100
        },
        {
          "pitch": 71,
          "onset": 236.75,
          "duration": 0.25,
          "velocity": 100
        },
        {
          "pitch": 72,
          "onset": 237.0,
          "duration": 0.25,
          "velocity": 100
        },
        {
          "pitch": 78,
          "onset": 237.25,
          "duration": 0.25,
          "velocity": 100
        },
        {
          "pitch": 81,
          "onset": 237.5,
          "duration": 0.25,
          "velocity": 100
        },
        {
          "pitch": 78,
          "onset": 237.75,
          "duration": 0.25,
          "velocity": 100
        },
        {
          "pitch": 74,
          "onset": 238.0,
          "duration": 0.25,
          "velocity": 100
        },
        {
          "pitch": 72,
          "onset": 238.25,
          "duration": 0.25,
          "velocity": 100
        },
        {
          "pitch": 71,
          "onset": 238.5,
          "duration": 0.25,
          "velocity": 100
        },
        {
          "pitch": 74,
          "onset": 238.75,
          "duration": 0.25,
          "velocity": 100
        },
        {
          "pitch": 79,
          "onset": 239.0,
          "duration": 0.25,
          "velocity": 100
        },
        {
          "pitch": 74,
          "onset": 239.25,
          "duration": 0.25,
          "velocity": 100
        },
        {
          "pitch": 71,
          "onset": 239.5,
          "duration": 0.25,
          "velocity": 100
        },
        {
          "pitch": 69,
          "onset": 239.75,
          "duration": 0.25,
          "velocity": 100
        },
        {
          "pitch": 67,
          "onset": 240.0,
          "duration": 0.25,
          "velocity": 100
        },
        {
          "pitch": 71,
          "onset": 240.25,
          "duration": 0.25,
          "velocity": 100
        },
        {
          "pitch": 74,
          "onset": 240.5,
          "duration": 0.25,
          "velocity": 100
        },
        {
          "pitch": 71,
          "onset": 240.75,
          "duration": 0.25,
          "velocity": 100
        },
        {
          "pitch": 67,
          "onset": 241.0,
          "duration": 0.25,
          "velocity": 100
        },
        {
          "pitch": 66,
          "onset": 241.25,
          "duration": 0.25,
          "velocity": 100
        },
        {
          "pitch": 67,
          "onset": 241.5,
          "duration": 0.375,
          "velocity": 100
        },
        {
          "pitch": 76,
          "onset": 242.0,
          "duration": 0.375,
          "velocity": 100
        },
        {
          "pitch": 74,
          "onset": 242.5,
          "duration": 0.375,
          "velocity": 100
        },
        {
          "pitch": 74,
          "onset": 243.0,
          "duration": 1.75,
          "velocity": 100
        },
        {
          "pitch": 79,
          "onset": 244.75,
          "duration": 0.25,
          "velocity": 100
        },
        {
          "pitch": 83,
          "onset": 245.0,
          "duration": 0.25,
          "velocity": 100
        },
        {
          "pitch": 79,
          "onset": 245.25,
          "duration": 0.25,
          "velocity": 100
        },
        {
          "pitch": 76,
          "onset": 245.5,
          "duration": 0.25,
          "velocity": 100
        },
        {
          "pitch": 74,
          "onset": 245.75,
          "duration": 0.25,
          "velocity": 100
        },
        {
          "pitch": 72,
          "onset": 246.0,
          "duration": 0.25,
          "velocity": 100
        },
        {
          "pitch": 78,
          "onset": 246.25,
          "duration": 0.25,
          "velocity": 100
        },
        {
          "pitch": 81,
          "onset": 246.5,
          "duration": 0.25,
          "velocity": 100
        },
        {
          "pitch": 78,
          "onset": 246.75,
          "duration": 0.25,
          "velocity": 100
        },
        {
          "pitch": 74,
          "onset": 247.0,
          "duration": 0.25,
          "velocity": 100
        },
        {
          "pitch": 72,
          "onset": 247.25,
          "duration": 0.25,
          "velocity": 100
        },
        {
          "pitch": 71,
          "onset": 247.5,
          "duration": 0.25,
          "velocity": 100
        },
        {
          "pitch": 74,
          "onset": 247.75,
          "duration": 0.25,
          "velocity": 100
        },
        {
          "pitch": 79,
          "onset": 248.0,
          "duration": 0.25,
          "velocity": 100
        },
        {
          "pitch": 74,
          "onset": 248.25,
          "duration": 0.25,
          "velocity": 100
        },
        {
          "pitch": 71,
          "onset": 248.5,
          "duration": 0.25,
          "velocity": 100
        },
        {
          "pitch": 69,
          "onset": 248.75,
          "duration": 0.25,
          "velocity": 100
        },
        {
          "pitch": 67,
          "onset": 249.0,
          "duration": 0.25,
          "velocity": 100
        },
        {
          "pitch": 71,
          "onset": 249.25,
          "duration": 0.25,
          "velocity": 100
        },
        {
          "pitch": 74,
          "onset": 249.5,
          "duration": 0.25,
          "velocity": 100
        },
        {
          "pitch": 71,
          "onset": 249.75,
          "duration": 0.25,
          "velocity": 100
        },
        {
          "pitch": 67,
          "onset": 250.0,
          "duration": 0.25,
          "velocity": 100
        },
        {
          "pitch": 66,
          "onset": 250.25,
          "duration": 0.25,
          "velocity": 100
        },
        {
          "pitch": 64,
          "onset": 250.5,
          "duration": 0.5,
          "velocity": 100
        },
        {
          "pitch": 72,
          "onset": 251.0,
          "duration": 0.5,
          "velocity": 100
        },
        {
          "pitch": 69,
          "onset": 251.5,
          "duration": 0.5,
          "velocity": 100
        },
        {
          "pitch": 66,
          "onset": 252.0,
          "duration": 0.125,
          "velocity": 100
        },
        {
          "pitch": 67,
          "onset": 252.125,
          "duration": 0.125,
          "velocity": 100
        },
        {
          "pitch": 66,
          "onset": 252.25,
          "duration": 0.125,
          "velocity": 100
        },
        {
          "pitch": 67,
          "onset": 252.375,
          "duration": 0.125,
          "velocity": 100
        },
        {
          "pitch": 66,
          "onset": 252.5,
          "duration": 0.5,
          "velocity": 100
        },
        {
          "pitch": 64,
          "onset": 253.0,
          "duration": 0.5,
          "velocity": 100
        },
        {
          "pitch": 62,
          "onset": 253.5,
          "duration": 1.5,
          "velocity": 100
        },
        {
          "pitch": 74,
          "onset": 255.0,
          "duration": 1.75,
          "velocity": 100
        },
        {
          "pitch": 64,
          "onset": 256.75,
          "duration": 0.25,
          "velocity": 100
        },
        {
          "pitch": 68,
          "onset": 257.0,
          "duration": 0.25,
          "velocity": 100
        },
        {
          "pitch": 71,
          "onset": 257.25,
          "duration": 0.25,
          "velocity": 100
        },
        {
          "pitch": 74,
          "onset": 257.5,
          "duration": 0.25,
          "velocity": 100
        },
        {
          "pitch": 72,
          "onset": 257.75,
          "duration": 0.25,
          "velocity": 100
        },
        {
          "pitch": 74,
          "onset": 258.0,
          "duration": 0.25,
          "velocity": 100
        },
        {
          "pitch": 80,
          "onset": 258.25,
          "duration": 0.25,
          "velocity": 100
        },
        {
          "pitch": 83,
          "onset": 258.5,
          "duration": 0.25,
          "velocity": 100
        },
        {
          "pitch": 80,
          "onset": 258.75,
          "duration": 0.25,
          "velocity": 100
        },
        {
          "pitch": 76,
          "onset": 259.0,
          "duration": 0.25,
          "velocity": 100
        },
        {
          "pitch": 74,
          "onset": 259.25,
          "duration": 0.25,
          "velocity": 100
        },
        {
          "pitch": 72,
          "onset": 259.5,
          "duration": 1.0,
          "velocity": 100
        },
        {
          "pitch": 71,
          "onset": 260.5,
          "duration": 0.5,
          "velocity": 100
        },
        {
          "pitch": 72,
          "onset": 261.0,
          "duration": 1.75,
          "velocity": 100
        },
        {
          "pitch": 69,
          "onset": 262.75,
          "duration": 0.25,
          "velocity": 100
        },
        {
          "pitch": 68,
          "onset": 263.0,
          "duration": 0.25,
          "velocity": 100
        },
        {
          "pitch": 69,
          "onset": 263.25,
          "duration": 0.25,
          "velocity": 100
        },
        {
          "pitch": 64,
          "onset": 263.5,
          "duration": 0.25,
          "velocity": 100
        },
        {
          "pitch": 69,
          "onset": 263.75,
          "duration": 0.25,
          "velocity": 100
        },
        {
          "pitch": 60,
          "onset": 264.0,
          "duration": 0.25,
          "velocity": 100
        },
        {
          "pitch": 64,
          "onset": 264.25,
          "duration": 0.25,
          "velocity": 100
        },
        {
          "pitch": 57,
          "onset": 264.5,
          "duration": 0.25,
          "velocity": 100
        },
        {
          "pitch": 60,
          "onset": 264.75,
          "duration": 0.25,
          "velocity": 100
        },
        {
          "pitch": 64,
          "onset": 265.0,
          "duration": 0.25,
          "velocity": 100
        },
        {
          "pitch": 69,
          "onset": 265.25,
          "duration": 0.25,
          "velocity": 100
        },
        {
          "pitch": 72,
          "onset": 265.5,
          "duration": 0.25,
          "velocity": 100
        },
        {
          "pitch": 62,
          "onset": 265.75,
          "duration": 0.25,
          "velocity": 100
        },
        {
          "pitch": 66,
          "onset": 266.0,
          "duration": 0.25,
          "velocity": 100
        },
        {
          "pitch": 69,
          "onset": 266.25,
          "duration": 0.25,
          "velocity": 100
        },
        {
          "pitch": 72,
          "onset": 266.5,
          "duration": 0.25,
          "velocity": 100
        },
        {
          "pitch": 71,
          "onset": 266.75,
          "duration": 0.25,
          "velocity": 100
        },
        {
          "pitch": 72,
          "onset": 267.0,
          "duration": 0.25,
          "velocity": 100
        },
        {
          "pitch": 78,
          "onset": 267.25,
          "duration": 0.25,
          "velocity": 100
        },
        {
          "pitch": 81,
          "onset": 267.5,
          "duration": 0.25,
          "velocity": 100
        },
        {
          "pitch": 78,
          "onset": 267.75,
          "duration": 0.25,
          "velocity": 100
        },
        {
          "pitch": 74,
          "onset": 268.0,
          "duration": 0.25,
          "velocity": 100
        },
        {
          "pitch": 72,
          "onset": 268.25,
          "duration": 0.25,
          "velocity": 100
        },
        {
          "pitch": 71,
          "onset": 268.5,
          "duration": 1.0,
          "velocity": 100
        },
        {
          "pitch": 69,
          "onset": 269.5,
          "duration": 0.5,
          "velocity": 100
        },
        {
          "pitch": 71,
          "onset": 270.0,
          "duration": 1.75,
          "velocity": 100
        },
        {
          "pitch": 67,
          "onset": 271.75,
          "duration": 0.25,
          "velocity": 100
        },
        {
          "pitch": 66,
          "onset": 272.0,
          "duration": 0.25,
          "velocity": 100
        },
        {
          "pitch": 67,
          "onset": 272.25,
          "duration": 0.25,
          "velocity": 100
        },
        {
          "pitch": 62,
          "onset": 272.5,
          "duration": 0.25,
          "velocity": 100
        },
        {
          "pitch": 67,
          "onset": 272.75,
          "duration": 0.25,
          "velocity": 100
        },
        {
          "pitch": 59,
          "onset": 273.0,
          "duration": 0.25,
          "velocity": 100
        },
        {
          "pitch": 62,
          "onset": 273.25,
          "duration": 0.25,
          "velocity": 100
        },
        {
          "pitch": 55,
          "onset": 273.5,
          "duration": 0.25,
          "velocity": 100
        },
        {
          "pitch": 59,
          "onset": 273.75,
          "duration": 0.25,
          "velocity": 100
        },
        {
          "pitch": 62,
          "onset": 274.0,
          "duration": 0.25,
          "velocity": 100
        },
        {
          "pitch": 65,
          "onset": 274.25,
          "duration": 0.25,
          "velocity": 100
        },
        {
          "pitch": 64,
          "onset": 274.5,
          "duration": 1.75,
          "velocity": 100
        },
        {
          "pitch": 72,
          "onset": 276.25,
          "duration": 0.25,
          "velocity": 100
        },
        {
          "pitch": 71,
          "onset": 276.5,
          "duration": 0.25,
          "velocity": 100
        },
        {
          "pitch": 72,
          "onset": 276.75,
          "duration": 0.25,
          "velocity": 100
        },
        {
          "pitch": 81,
          "onset": 277.0,
          "duration": 0.25,
          "velocity": 100
        },
        {
          "pitch": 72,
          "onset": 277.25,
          "duration": 0.25,
          "velocity": 100
        },
        {
          "pitch": 64,
          "onset": 277.5,
          "duration": 0.25,
          "velocity": 100
        },
        {
          "pitch": 72,
          "onset": 277.75,
          "duration": 0.25,
          "velocity": 100
        },
        {
          "pitch": 71,
          "onset": 278.0,
          "duration": 0.25,
          "velocity": 100
        },
        {
          "pitch": 72,
          "onset": 278.25,
          "duration": 0.25,
          "velocity": 100
        },
        {
          "pitch": 79,
          "onset": 278.5,
          "duration": 0.25,
          "velocity": 100
        },
        {
          "pitch": 72,
          "onset": 278.75,
          "duration": 0.25,
          "velocity": 100
        },
        {
          "pitch": 62,
          "onset": 279.0,
          "duration": 0.25,
          "velocity": 100
        },
        {
          "pitch": 72,
          "onset": 279.25,
          "duration": 0.25,
          "velocity": 100
        },
        {
          "pitch": 71,
          "onset": 279.5,
          "duration": 0.25,
          "velocity": 100
        },
        {
          "pitch": 72,
          "onset": 279.75,
          "duration": 0.25,
          "velocity": 100
        },
        {
          "pitch": 78,
          "onset": 280.0,
          "duration": 0.25,
          "velocity": 100
        },
        {
          "pitch": 72,
          "onset": 280.25,
          "duration": 0.25,
          "velocity": 100
        },
        {
          "pitch": 62,
          "onset": 280.5,
          "duration": 0.25,
          "velocity": 100
        },
        {
          "pitch": 72,
          "onset": 280.75,
          "duration": 0.25,
          "velocity": 100
        },
        {
          "pitch": 71,
          "onset": 281.0,
          "duration": 0.25,
          "velocity": 100
        },
        {
          "pitch": 72,
          "onset": 281.25,
          "duration": 0.25,
          "velocity": 100
        },
        {
          "pitch": 81,
          "onset": 281.5,
          "duration": 0.25,
          "velocity": 100
        },
        {
          "pitch": 72,
          "onset": 281.75,
          "duration": 0.25,
          "velocity": 100
        },
        {
          "pitch": 62,
          "onset": 282.0,
          "duration": 0.25,
          "velocity": 100
        },
        {
          "pitch": 72,
          "onset": 282.25,
          "duration": 0.25,
          "velocity": 100
        },
        {
          "pitch": 71,
          "onset": 282.5,
          "duration": 0.25,
          "velocity": 100
        },
        {
          "pitch": 72,
          "onset": 282.75,
          "duration": 0.25,
          "velocity": 100
        },
        {
          "pitch": 78,
          "onset": 283.0,
          "duration": 0.25,
          "velocity": 100
        },
        {
          "pitch": 72,
          "onset": 283.25,
          "duration": 0.25,
          "velocity": 100
        },
        {
          "pitch": 62,
          "onset": 283.5,
          "duration": 0.25,
          "velocity": 100
        },
        {
          "pitch": 71,
          "onset": 283.75,
          "duration": 0.25,
          "velocity": 100
        },
        {
          "pitch": 69,
          "onset": 284.0,
          "duration": 0.25,
          "velocity": 100
        },
        {
          "pitch": 71,
          "onset": 284.25,
          "duration": 0.25,
          "velocity": 100
        },
        {
          "pitch": 79,
          "onset": 284.5,
          "duration": 0.25,
          "velocity": 100
        },
        {
          "pitch": 71,
          "onset": 284.75,
          "duration": 0.25,
          "velocity": 100
        },
        {
          "pitch": 62,
          "onset": 285.0,
          "duration": 0.25,
          "velocity": 100
        },
        {
          "pitch": 71,
          "onset": 285.25,
          "duration": 0.25,
          "velocity": 100
        },
        {
          "pitch": 69,
          "onset": 285.5,
          "duration": 0.25,
          "velocity": 100
        },
        {
          "pitch": 71,
          "onset": 285.75,
          "duration": 0.25,
          "velocity": 100
        },
        {
          "pitch": 74,
          "onset": 286.0,
          "duration": 0.25,
          "velocity": 100
        },
        {
          "pitch": 71,
          "onset": 286.25,
          "duration": 0.25,
          "velocity": 100
        },
        {
          "pitch": 62,
          "onset": 286.5,
          "duration": 0.25,
          "velocity": 100
        },
        {
          "pitch": 71,
          "onset": 286.75,
          "duration": 0.25,
          "velocity": 100
        },
        {
          "pitch": 69,
          "onset": 287.0,
          "duration": 0.25,
          "velocity": 100
        },
        {
          "pitch": 71,
          "onset": 287.25,
          "duration": 0.25,
          "velocity": 100
        },
        {
          "pitch": 79,
          "onset": 287.5,
          "duration": 0.25,
          "velocity": 100
        },
        {
          "pitch": 71,
          "onset": 287.75,
          "duration": 0.25,
          "velocity": 100
        },
        {
          "pitch": 73,
          "onset": 288.0,
          "duration": 0.25,
          "velocity": 100
        },
        {
          "pitch": 82,
          "onset": 288.25,
          "duration": 0.25,
          "velocity": 100
        },
        {
          "pitch": 81,
          "onset": 288.5,
          "duration": 0.25,
          "velocity": 100
        },
        {
          "pitch": 79,
          "onset": 288.75,
          "duration": 0.25,
          "velocity": 100
        },
        {
          "pitch": 78,
          "onset": 289.0,
          "duration": 0.25,
          "velocity": 100
        },
        {
          "pitch": 79,
          "onset": 289.25,
          "duration": 0.25,
          "velocity": 100
        },
        {
          "pitch": 72,
          "onset": 289.5,
          "duration": 0.25,
          "velocity": 100
        },
        {
          "pitch": 83,
          "onset": 289.75,
          "duration": 0.25,
          "velocity": 100
        },
        {
          "pitch": 81,
          "onset": 290.0,
          "duration": 0.25,
          "velocity": 100
        },
        {
          "pitch": 79,
          "onset": 290.25,
          "duration": 0.25,
          "velocity": 100
        },
        {
          "pitch": 78,
          "onset": 290.5,
          "duration": 0.25,
          "velocity": 100
        },
        {
          "pitch": 79,
          "onset": 290.75,
          "duration": 0.25,
          "velocity": 100
        },
        {
          "pitch": 71,
          "onset": 291.0,
          "duration": 0.5,
          "velocity": 100
        },
        {
          "pitch": 72,
          "onset": 291.5,
          "duration": 0.5,
          "velocity": 100
        },
        {
          "pitch": 69,
          "onset": 292.0,
          "duration": 0.75,
          "velocity": 100
        },
        {
          "pitch": 67,
          "onset": 292.75,
          "duration": 4.2188,
          "velocity": 100
        },
        {
          "pitch": 67,
          "onset": 300.25,
          "duration": 0.25,
          "velocity": 1
        }
      ]
    },
    {
      "role": "lower",
      "notes": [
        {
          "pitch": 55,
          "onset": 0.0,
          "duration": 1.0,
          "velocity": 100
        },
        {
          "pitch": 52,
          "onset": 1.5,
          "duration": 1.0,
          "velocity": 100
        },
        {
          "pitch": 48,
          "onset": 3.0,
          "duration": 1.0,
          "velocity": 100
        },
        {
          "pitch": 60,
          "onset": 4.5,
          "duration": 0.5,
          "velocity": 100
        },
        {
          "pitch": 59,
          "onset": 5.0,
          "duration": 0.5,
          "velocity": 100
        },
        {
          "pitch": 57,
          "onset": 5.5,
          "duration": 0.5,
          "velocity": 100
        },
        {
          "pitch": 59,
          "onset": 6.0,
          "duration": 0.5,
          "velocity": 100
        },
        {
          "pitch": 57,
          "onset": 6.5,
          "duration": 0.5,
          "velocity": 100
        },
        {
          "pitch": 55,
          "onset": 7.0,
          "duration": 0.5,
          "velocity": 100
        },
        {
          "pitch": 57,
          "onset": 7.5,
          "duration": 0.5,
          "velocity": 100
        },
        {
          "pitch": 55,
          "onset": 8.0,
          "duration": 0.5,
          "velocity": 100
        },
        {
          "pitch": 53,
          "onset": 8.5,
          "duration": 0.5,
          "velocity": 100
        },
        {
          "pitch": 55,
          "onset": 9.0,
          "duration": 1.0,
          "velocity": 100
        },
        {
          "pitch": 47,
          "onset": 10.5,
          "duration": 1.0,
          "velocity": 100
        },
        {
          "pitch": 48,
          "onset": 12.0,
          "duration": 0.5,
          "velocity": 100
        },
        {
          "pitch": 45,
          "onset": 12.5,
          "duration": 0.5,
          "velocity": 100
        },
        {
          "pitch": 48,
          "onset": 13.0,
          "duration": 0.5,
          "velocity": 100
        },
        {
          "pitch": 50,
          "onset": 13.5,
          "duration": 1.75,
          "velocity": 100
        },
        {
          "pitch": 52,
          "onset": 15.25,
          "duration": 0.25,
          "velocity": 100
        },
        {
          "pitch": 54,
          "onset": 15.5,
          "duration": 0.5,
          "velocity": 100
        },
        {
          "pitch": 50,
          "onset": 16.0,
          "duration": 0.5,
          "velocity": 100
        },
        {
          "pitch": 47,
          "onset": 16.5,
          "duration": 0.25,
          "velocity": 100
        },
        {
          "pitch": 48,
          "onset": 16.75,
          "duration": 0.25,
          "velocity": 100
        },
        {
          "pitch": 50,
          "onset": 17.0,
          "duration": 0.5,
          "velocity": 100
        },
        {
          "pitch": 47,
          "onset": 17.5,
          "duration": 0.5,
          "velocity": 100
        },
        {
          "pitch": 44,
          "onset": 18.0,
          "duration": 0.25,
          "velocity": 100
        },
        {
          "pitch": 45,
          "onset": 18.25,
          "duration": 0.25,
          "velocity": 100
        },
        {
          "pitch": 47,
          "onset": 18.5,
          "duration": 0.5,
          "velocity": 100
        },
        {
          "pitch": 44,
          "onset": 19.0,
          "duration": 0.5,
          "velocity": 100
        },
        {
          "pitch": 40,
          "onset": 19.5,
          "duration": 1.0,
          "velocity": 100
        },
        {
          "pitch": 52,
          "onset": 21.0,
          "duration": 1.0,
          "velocity": 100
        },
        {
          "pitch": 45,
          "onset": 22.5,
          "duration": 0.5,
          "velocity": 100
        },
        {
          "pitch": 48,
          "onset": 23.0,
          "duration": 0.5,
          "velocity": 100
        },
        {
          "pitch": 52,
          "onset": 23.5,
          "duration": 0.5,
          "velocity": 100
        },
        {
          "pitch": 57,
          "onset": 24.0,
          "duration": 1.75,
          "velocity": 100
        },
        {
          "pitch": 59,
          "onset": 25.75,
          "duration": 0.25,
          "velocity": 100
        },
        {
          "pitch": 60,
          "onset": 26.0,
          "duration": 0.5,
          "velocity": 100
        },
        {
          "pitch": 57,
          "onset": 26.5,
          "duration": 0.5,
          "velocity": 100
        },
        {
          "pitch": 54,
          "onset": 27.0,
          "duration": 0.25,
          "velocity": 100
        },
        {
          "pitch": 55,
          "onset": 27.25,
          "duration": 0.25,
          "velocity": 100
        },
        {
          "pitch": 57,
          "onset": 27.5,
          "duration": 0.5,
          "velocity": 100
        },
        {
          "pitch": 53,
          "onset": 28.0,
          "duration": 0.5,
          "velocity": 100
        },
        {
          "pitch": 50,
          "onset": 28.5,
          "duration": 1.0,
          "velocity": 100
        },
        {
          "pitch": 38,
          "onset": 30.0,
          "duration": 1.0,
          "velocity": 100
        },
        {
          "pitch": 43,
          "onset": 31.5,
          "duration": 0.5,
          "velocity": 100
        },
        {
          "pitch": 47,
          "onset": 32.0,
          "duration": 0.5,
          "velocity": 100
        },
        {
          "pitch": 50,
          "onset": 32.5,
          "duration": 0.5,
          "velocity": 100
        },
        {
          "pitch": 55,
          "onset": 33.0,
          "duration": 1.75,
          "velocity": 100
        },
        {
          "pitch": 57,
          "onset": 34.75,
          "duration": 0.25,
          "velocity": 100
        },
        {
          "pitch": 59,
          "onset": 35.0,
          "duration": 0.5,
          "velocity": 100
        },
        {
          "pitch": 55,
          "onset": 35.5,
          "duration": 0.5,
          "velocity": 100
        },
        {
          "pitch": 48,
          "onset": 36.0,
          "duration": 0.25,
          "velocity": 100
        },
        {
          "pitch": 50,
          "onset": 36.25,
          "duration": 0.25,
          "velocity": 100
        },
        {
          "pitch": 52,
          "onset": 36.5,
          "duration": 0.5,
          "velocity": 100
        },
        {
          "pitch": 48,
          "onset": 37.0,
          "duration": 0.5,
          "velocity": 100
        },
        {
          "pitch": 45,
          "onset": 37.5,
          "duration": 0.5,
          "velocity": 100
        },
        {
          "pitch": 48,
          "onset": 38.0,
          "duration": 0.5,
          "velocity": 100
        },
        {
          "pitch": 52,
          "onset": 38.5,
          "duration": 0.5,
          "velocity": 100
        },
        {
          "pitch": 57,
          "onset": 39.0,
          "duration": 0.5,
          "velocity": 100
        },
        {
          "pitch": 55,
          "onset": 39.5,
          "duration": 0.5,
          "velocity": 100
        },
        {
          "pitch": 57,
          "onset": 40.0,
          "duration": 0.5,
          "velocity": 100
        },
        {
          "pitch": 50,
          "onset": 40.5,
          "duration": 0.5,
          "velocity": 100
        },
        {
          "pitch": 54,
          "onset": 41.0,
          "duration": 0.5,
          "velocity": 100
        },
        {
          "pitch": 57,
          "onset": 41.5,
          "duration": 0.5,
          "velocity": 100
        },
        {
          "pitch": 54,
          "onset": 42.0,
          "duration": 1.9688,
          "velocity": 100
        },
        {
          "pitch": 55,
          "onset": 44.0,
          "duration": 0.5,
          "velocity": 100
        },
        {
          "pitch": 57,
          "onset": 44.5,
          "duration": 0.5,
          "velocity": 100
        },
        {
          "pitch": 50,
          "onset": 45.0,
          "duration": 0.5,
          "velocity": 100
        },
        {
          "pitch": 55,
          "onset": 45.5,
          "duration": 0.5,
          "velocity": 100
        },
        {
          "pitch": 59,
          "onset": 46.0,
          "duration": 0.5,
          "velocity": 100
        },
        {
          "pitch": 55,
          "onset": 46.5,
          "duration": 1.9688,
          "velocity": 100
        },
        {
          "pitch": 57,
          "onset": 48.5,
          "duration": 0.5,
          "velocity": 100
        },
        {
          "pitch": 59,
          "onset": 49.0,
          "duration": 0.5,
          "velocity": 100
        },
        {
          "pitch": 52,
          "onset": 49.5,
          "duration": 1.0,
          "velocity": 100
        },
        {
          "pitch": 54,
          "onset": 51.0,
          "duration": 1.0,
          "velocity": 100
        },
        {
          "pitch": 55,
          "onset": 52.5,
          "duration": 0.5,
          "velocity": 100
        },
        {
          "pitch": 48,
          "onset": 53.0,
          "duration": 0.5,
          "velocity": 100
        },
        {
          "pitch": 50,
          "onset": 53.5,
          "duration": 0.5,
          "velocity": 100
        },
        {
          "pitch": 43,
          "onset": 54.0,
          "duration": 0.5,
          "velocity": 100
        },
        {
          "pitch": 47,
          "onset": 54.5,
          "duration": 0.5,
          "velocity": 100
        },
        {
          "pitch": 50,
          "onset": 55.0,
          "duration": 0.5,
          "velocity": 100
        },
        {
          "pitch": 55,
          "onset": 55.5,
          "duration": 0.25,
          "velocity": 100
        },
        {
          "pitch": 57,
          "onset": 55.75,
          "duration": 0.25,
          "velocity": 100
        },
        {
          "pitch": 59,
          "onset": 56.0,
          "duration": 0.5,
          "velocity": 100
        },
        {
          "pitch": 55,
          "onset": 56.5,
          "duration": 0.5,
          "velocity": 100
        },
        {
          "pitch": 54,
          "onset": 57.0,
          "duration": 0.5,
          "velocity": 100
        },
        {
          "pitch": 52,
          "onset": 57.5,
          "duration": 0.5,
          "velocity": 100
        },
        {
          "pitch": 50,
          "onset": 58.0,
          "duration": 0.5,
          "velocity": 100
        },
        {
          "pitch": 55,
          "onset": 58.5,
          "duration": 1.0,
          "velocity": 100
        },
        {
          "pitch": 47,
          "onset": 60.0,
          "duration": 1.0,
          "velocity": 100
        },
        {
          "pitch": 49,
          "onset": 61.5,
          "duration": 1.0,
          "velocity": 100
        },
        {
          "pitch": 60,
          "onset": 63.0,
          "duration": 0.5,
          "velocity": 100
        },
        {
          "pitch": 59,
          "onset": 63.5,
          "duration": 0.5,
          "velocity": 100
        },
        {
          "pitch": 57,
          "onset": 64.0,
          "duration": 0.5,
          "velocity": 100
        },
        {
          "pitch": 59,
          "onset": 64.5,
          "duration": 0.5,
          "velocity": 100
        },
        {
          "pitch": 57,
          "onset": 65.0,
          "duration": 0.5,
          "velocity": 100
        },
        {
          "pitch": 55,
          "onset": 65.5,
          "duration": 0.5,
          "velocity": 100
        },
        {
          "pitch": 54,
          "onset": 66.0,
          "duration": 0.5,
          "velocity": 100
        },
        {
          "pitch": 50,
          "onset": 66.5,
          "duration": 0.5,
          "velocity": 100
        },
        {
          "pitch": 55,
          "onset": 67.0,
          "duration": 0.5,
          "velocity": 100
        },
        {
          "pitch": 48,
          "onset": 67.5,
          "duration": 0.5,
          "velocity": 100
        },
        {
          "pitch": 47,
          "onset": 68.0,
          "duration": 0.5,
          "velocity": 100
        },
        {
          "pitch": 45,
          "onset": 68.5,
          "duration": 0.5,
          "velocity": 100
        },
        {
          "pitch": 47,
          "onset": 69.0,
          "duration": 0.5,
          "velocity": 100
        },
        {
          "pitch": 48,
          "onset": 69.5,
          "duration": 0.5,
          "velocity": 100
        },
        {
          "pitch": 50,
          "onset": 70.0,
          "duration": 0.5,
          "velocity": 100
        },
        {
          "pitch": 52,
          "onset": 70.5,
          "duration": 0.5,
          "velocity": 100
        },
        {
          "pitch": 50,
          "onset": 71.0,
          "duration": 0.5,
          "velocity": 100
        },
        {
          "pitch": 48,
          "onset": 71.5,
          "duration": 0.5,
          "velocity": 100
        },
        {
          "pitch": 50,
          "onset": 72.0,
          "duration": 1.9688,
          "velocity": 100
        },
        {
          "pitch": 54,
          "onset": 74.0,
          "duration": 0.5,
          "velocity": 100
        },
        {
          "pitch": 57,
          "onset": 74.5,
          "duration": 0.5,
          "velocity": 100
        },
        {
          "pitch": 62,
          "onset": 75.0,
          "duration": 1.0,
          "velocity": 100
        },
        {
          "pitch": 50,
          "onset": 76.0,
          "duration": 0.5,
          "velocity": 100
        },
        {
          "pitch": 55,
          "onset": 76.5,
          "duration": 0.5,
          "velocity": 100
        },
        {
          "pitch": 50,
          "onset": 77.0,
          "duration": 0.5,
          "velocity": 100
        },
        {
          "pitch": 47,
          "onset": 77.5,
          "duration": 0.5,
          "velocity": 100
        },
        {
          "pitch": 43,
          "onset": 78.0,
          "duration": 1.75,
          "velocity": 100
        },
        {
          "pitch": 45,
          "onset": 79.75,
          "duration": 0.25,
          "velocity": 100
        },
        {
          "pitch": 47,
          "onset": 80.0,
          "duration": 0.5,
          "velocity": 100
        },
        {
          "pitch": 43,
          "onset": 80.5,
          "duration": 0.5,
          "velocity": 100
        },
        {
          "pitch": 48,
          "onset": 81.0,
          "duration": 0.25,
          "velocity": 100
        },
        {
          "pitch": 50,
          "onset": 81.25,
          "duration": 0.25,
          "velocity": 100
        },
        {
          "pitch": 52,
          "onset": 81.5,
          "duration": 0.5,
          "velocity": 100
        },
        {
          "pitch": 48,
          "onset": 82.0,
          "duration": 0.5,
          "velocity": 100
        },
        {
          "pitch": 45,
          "onset": 82.5,
          "duration": 0.5,
          "velocity": 100
        },
        {
          "pitch": 48,
          "onset": 83.0,
          "duration": 0.5,
          "velocity": 100
        },
        {
          "pitch": 52,
          "onset": 83.5,
          "duration": 0.5,
          "velocity": 100
        },
        {
          "pitch": 57,
          "onset": 84.0,
          "duration": 0.5,
          "velocity": 100
        },
        {
          "pitch": 55,
          "onset": 84.5,
          "duration": 0.5,
          "velocity": 100
        },
        {
          "pitch": 57,
          "onset": 85.0,
          "duration": 0.5,
          "velocity": 100
        },
        {
          "pitch": 50,
          "onset": 85.5,
          "duration": 0.5,
          "velocity": 100
        },
        {
          "pitch": 54,
          "onset": 86.0,
          "duration": 0.5,
          "velocity": 100
        },
        {
          "pitch": 57,
          "onset": 86.5,
          "duration": 0.5,
          "velocity": 100
        },
        {
          "pitch": 53,
          "onset": 87.0,
          "duration": 1.9688,
          "velocity": 100
        },
        {
          "pitch": 55,
          "onset": 89.0,
          "duration": 0.5,
          "velocity": 100
        },
        {
          "pitch": 57,
          "onset": 89.5,
          "duration": 0.5,
          "velocity": 100
        },
        {
          "pitch": 50,
          "onset": 90.0,
          "duration": 0.5,
          "velocity": 100
        },
        {
          "pitch": 55,
          "onset": 90.5,
          "duration": 0.5,
          "velocity": 100
        },
        {
          "pitch": 59,
          "onset": 91.0,
          "duration": 0.5,
          "velocity": 100
        },
        {
          "pitch": 55,
          "onset": 91.5,
          "duration": 1.9688,
          "velocity": 100
        },
        {
          "pitch": 57,
          "onset": 93.5,
          "duration": 0.5,
          "velocity": 100
        },
        {
          "pitch": 59,
          "onset": 94.0,
          "duration": 0.5,
          "velocity": 100
        },
        {
          "pitch": 52,
          "onset": 94.5,
          "duration": 1.0,
          "velocity": 100
        },
        {
          "pitch": 54,
          "onset": 96.0,
          "duration": 1.0,
          "velocity": 100
        },
        {
          "pitch": 55,
          "onset": 97.5,
          "duration": 0.5,
          "velocity": 100
        },
        {
          "pitch": 48,
          "onset": 98.0,
          "duration": 0.5,
          "velocity": 100
        },
        {
          "pitch": 50,
          "onset": 98.5,
          "duration": 0.5,
          "velocity": 100
        },
        {
          "pitch": 43,
          "onset": 99.0,
          "duration": 0.5,
          "velocity": 100
        },
        {
          "pitch": 47,
          "onset": 99.5,
          "duration": 0.5,
          "velocity": 100
        },
        {
          "pitch": 50,
          "onset": 100.0,
          "duration": 0.5,
          "velocity": 100
        },
        {
          "pitch": 55,
          "onset": 100.5,
          "duration": 0.25,
          "velocity": 100
        },
        {
          "pitch": 57,
          "onset": 100.75,
          "duration": 0.25,
          "velocity": 100
        },
        {
          "pitch": 59,
          "onset": 101.0,
          "duration": 0.5,
          "velocity": 100
        },
        {
          "pitch": 55,
          "onset": 101.5,
          "duration": 0.5,
          "velocity": 100
        },
        {
          "pitch": 54,
          "onset": 102.0,
          "duration": 0.5,
          "velocity": 100
        },
        {
          "pitch": 52,
          "onset": 102.5,
          "duration": 0.5,
          "velocity": 100
        },
        {
          "pitch": 50,
          "onset": 103.0,
          "duration": 0.5,
          "velocity": 100
        },
        {
          "pitch": 55,
          "onset": 103.5,
          "duration": 1.0,
          "velocity": 100
        },
        {
          "pitch": 57,
          "onset": 105.0,
          "duration": 1.0,
          "velocity": 100
        },
        {
          "pitch": 59,
          "onset": 106.5,
          "duration": 1.0,
          "velocity": 100
        },
        {
          "pitch": 60,
          "onset": 108.0,
          "duration": 0.5,
          "velocity": 100
        },
        {
          "pitch": 59,
          "onset": 108.5,
          "duration": 0.5,
          "velocity": 100
        },
        {
          "pitch": 57,
          "onset": 109.0,
          "duration": 0.5,
          "velocity": 100
        },
        {
          "pitch": 59,
          "onset": 109.5,
          "duration": 0.5,
          "velocity": 100
        },
        {
          "pitch": 57,
          "onset": 110.0,
          "duration": 0.5,
          "velocity": 100
        },
        {
          "pitch": 55,
          "onset": 110.5,
          "duration": 0.5,
          "velocity": 100
        },
        {
          "pitch": 54,
          "onset": 111.0,
          "duration": 0.5,
          "velocity": 100
        },
        {
          "pitch": 50,
          "onset": 111.5,
          "duration": 0.5,
          "velocity": 100
        },
        {
          "pitch": 55,
          "onset": 112.0,
          "duration": 0.5,
          "velocity": 100
        },
        {
          "pitch": 48,
          "onset": 112.5,
          "duration": 0.5,
          "velocity": 100
        },
        {
          "pitch": 47,
          "onset": 113.0,
          "duration": 0.5,
          "velocity": 100
        },
        {
          "pitch": 45,
          "onset": 113.5,
          "duration": 0.5,
          "velocity": 100
        },
        {
          "pitch": 47,
          "onset": 114.0,
          "duration": 0.5,
          "velocity": 100
        },
        {
          "pitch": 48,
          "onset": 114.5,
          "duration": 0.5,
          "velocity": 100
        },
        {
          "pitch": 50,
          "onset": 115.0,
          "duration": 0.5,
          "velocity": 100
        },
        {
          "pitch": 52,
          "onset": 115.5,
          "duration": 0.5,
          "velocity": 100
        },
        {
          "pitch": 50,
          "onset": 116.0,
          "duration": 0.5,
          "velocity": 100
        },
        {
          "pitch": 48,
          "onset": 116.5,
          "duration": 0.5,
          "velocity": 100
        },
        {
          "pitch": 50,
          "onset": 117.0,
          "duration": 1.9688,
          "velocity": 100
        },
        {
          "pitch": 54,
          "onset": 119.0,
          "duration": 0.5,
          "velocity": 100
        },
        {
          "pitch": 57,
          "onset": 119.5,
          "duration": 0.5,
          "velocity": 100
        },
        {
          "pitch": 62,
          "onset": 120.0,
          "duration": 1.0,
          "velocity": 100
        },
        {
          "pitch": 50,
          "onset": 121.0,
          "duration": 0.5,
          "velocity": 100
        },
        {
          "pitch": 55,
          "onset": 121.5,
          "duration": 1.0,
          "velocity": 100
        },
        {
          "pitch": 47,
          "onset": 123.0,
          "duration": 1.0,
          "velocity": 100
        },
        {
          "pitch": 48,
          "onset": 124.5,
          "duration": 0.5,
          "velocity": 100
        },
        {
          "pitch": 45,
          "onset": 125.0,
          "duration": 0.5,
          "velocity": 100
        },
        {
          "pitch": 48,
          "onset": 125.5,
          "duration": 0.5,
          "velocity": 100
        },
        {
          "pitch": 50,
          "onset": 126.0,
          "duration": 1.75,
          "velocity": 100
        },
        {
          "pitch": 52,
          "onset": 127.75,
          "duration": 0.25,
          "velocity": 100
        },
        {
          "pitch": 54,
          "onset": 128.0,
          "duration": 0.5,
          "velocity": 100
        },
        {
          "pitch": 50,
          "onset": 128.5,
          "duration": 0.5,
          "velocity": 100
        },
        {
          "pitch": 47,
          "onset": 129.0,
          "duration": 0.25,
          "velocity": 100
        },
        {
          "pitch": 48,
          "onset": 129.25,
          "duration": 0.25,
          "velocity": 100
        },
        {
          "pitch": 50,
          "onset": 129.5,
          "duration": 0.5,
          "velocity": 100
        },
        {
          "pitch": 47,
          "onset": 130.0,
          "duration": 0.5,
          "velocity": 100
        },
        {
          "pitch": 44,
          "onset": 130.5,
          "duration": 0.25,
          "velocity": 100
        },
        {
          "pitch": 45,
          "onset": 130.75,
          "duration": 0.25,
          "velocity": 100
        },
        {
          "pitch": 47,
          "onset": 131.0,
          "duration": 0.5,
          "velocity": 100
        },
        {
          "pitch": 44,
          "onset": 131.5,
          "duration": 0.5,
          "velocity": 100
        },
        {
          "pitch": 40,
          "onset": 132.0,
          "duration": 1.0,
          "velocity": 100
        },
        {
          "pitch": 52,
          "onset": 133.5,
          "duration": 1.0,
          "velocity": 100
        },
        {
          "pitch": 45,
          "onset": 135.0,
          "duration": 0.5,
          "velocity": 100
        },
        {
          "pitch": 48,
          "onset": 135.5,
          "duration": 0.5,
          "velocity": 100
        },
        {
          "pitch": 52,
          "onset": 136.0,
          "duration": 0.5,
          "velocity": 100
        },
        {
          "pitch": 57,
          "onset": 136.5,
          "duration": 1.75,
          "velocity": 100
        },
        {
          "pitch": 59,
          "onset": 138.25,
          "duration": 0.25,
          "velocity": 100
        },
        {
          "pitch": 60,
          "onset": 138.5,
          "duration": 0.5,
          "velocity": 100
        },
        {
          "pitch": 57,
          "onset": 139.0,
          "duration": 0.5,
          "velocity": 100
        },
        {
          "pitch": 54,
          "onset": 139.5,
          "duration": 0.25,
          "velocity": 100
        },
        {
          "pitch": 55,
          "onset": 139.75,
          "duration": 0.25,
          "velocity": 100
        },
        {
          "pitch": 57,
          "onset": 140.0,
          "duration": 0.5,
          "velocity": 100
        },
        {
          "pitch": 54,
          "onset": 140.5,
          "duration": 0.5,
          "velocity": 100
        },
        {
          "pitch": 51,
          "onset": 141.0,
          "duration": 1.0,
          "velocity": 100
        },
        {
          "pitch": 47,
          "onset": 142.5,
          "duration": 1.0,
          "velocity": 100
        },
        {
          "pitch": 40,
          "onset": 144.0,
          "duration": 0.5,
          "velocity": 100
        },
        {
          "pitch": 43,
          "onset": 144.5,
          "duration": 0.5,
          "velocity": 100
        },
        {
          "pitch": 47,
          "onset": 145.0,
          "duration": 0.5,
          "velocity": 100
        },
        {
          "pitch": 52,
          "onset": 145.5,
          "duration": 1.5,
          "velocity": 100
        },
        {
          "pitch": 55,
          "onset": 147.5,
          "duration": 0.5,
          "velocity": 100
        },
        {
          "pitch": 52,
          "onset": 148.0,
          "duration": 0.5,
          "velocity": 100
        },
        {
          "pitch": 60,
          "onset": 149.0,
          "duration": 0.5,
          "velocity": 100
        },
        {
          "pitch": 57,
          "onset": 149.5,
          "duration": 0.5,
          "velocity": 100
        },
        {
          "pitch": 45,
          "onset": 150.0,
          "duration": 0.5,
          "velocity": 100
        },
        {
          "pitch": 48,
          "onset": 150.5,
          "duration": 0.5,
          "velocity": 100
        },
        {
          "pitch": 54,
          "onset": 151.0,
          "duration": 0.5,
          "velocity": 100
        },
        {
          "pitch": 57,
          "onset": 151.5,
          "duration": 0.5,
          "velocity": 100
        },
        {
          "pitch": 55,
          "onset": 152.0,
          "duration": 0.5,
          "velocity": 100
        },
        {
          "pitch": 57,
          "onset": 152.5,
          "duration": 0.5,
          "velocity": 100
        },
        {
          "pitch": 47,
          "onset": 153.0,
          "duration": 0.5,
          "velocity": 100
        },
        {
          "pitch": 51,
          "onset": 153.5,
          "duration": 0.5,
          "velocity": 100
        },
        {
          "pitch": 54,
          "onset": 154.0,
          "duration": 0.5,
          "velocity": 100
        },
        {
          "pitch": 57,
          "onset": 154.5,
          "duration": 1.9688,
          "velocity": 100
        },
        {
          "pitch": 53,
          "onset": 156.5,
          "duration": 0.5,
          "velocity": 100
        },
        {
          "pitch": 51,
          "onset": 157.0,
          "duration": 0.5,
          "velocity": 100
        },
        {
          "pitch": 47,
          "onset": 157.5,
          "duration": 0.5,
          "velocity": 100
        },
        {
          "pitch": 52,
          "onset": 158.0,
          "duration": 0.5,
          "velocity": 100
        },
        {
          "pitch": 55,
          "onset": 158.5,
          "duration": 0.5,
          "velocity": 100
        },
        {
          "pitch": 59,
          "onset": 159.0,
          "duration": 1.9688,
          "velocity": 100
        },
        {
          "pitch": 55,
          "onset": 161.0,
          "duration": 0.5,
          "velocity": 100
        },
        {
          "pitch": 52,
          "onset": 161.5,
          "duration": 0.5,
          "velocity": 100
        },
        {
          "pitch": 49,
          "onset": 162.0,
          "duration": 1.0,
          "velocity": 100
        },
        {
          "pitch": 51,
          "onset": 163.5,
          "duration": 1.0,
          "velocity": 100
        },
        {
          "pitch": 52,
          "onset": 165.0,
          "duration": 0.5,
          "velocity": 100
        },
        {
          "pitch": 45,
          "onset": 165.5,
          "duration": 0.5,
          "velocity": 100
        },
        {
          "pitch": 47,
          "onset": 166.0,
          "duration": 0.5,
          "velocity": 100
        },
        {
          "pitch": 40,
          "onset": 166.5,
          "duration": 0.5,
          "velocity": 100
        },
        {
          "pitch": 43,
          "onset": 167.0,
          "duration": 0.5,
          "velocity": 100
        },
        {
          "pitch": 47,
          "onset": 167.5,
          "duration": 0.5,
          "velocity": 100
        },
        {
          "pitch": 52,
          "onset": 168.0,
          "duration": 0.25,
          "velocity": 100
        },
        {
          "pitch": 54,
          "onset": 168.25,
          "duration": 0.25,
          "velocity": 100
        },
        {
          "pitch": 55,
          "onset": 168.5,
          "duration": 0.5,
          "velocity": 100
        },
        {
          "pitch": 52,
          "onset": 169.0,
          "duration": 0.5,
          "velocity": 100
        },
        {
          "pitch": 48,
          "onset": 169.5,
          "duration": 0.25,
          "velocity": 100
        },
        {
          "pitch": 50,
          "onset": 169.75,
          "duration": 0.25,
          "velocity": 100
        },
        {
          "pitch": 52,
          "onset": 170.0,
          "duration": 0.5,
          "velocity": 100
        },
        {
          "pitch": 48,
          "onset": 170.5,
          "duration": 0.5,
          "velocity": 100
        },
        {
          "pitch": 45,
          "onset": 171.0,
          "duration": 0.5,
          "velocity": 100
        },
        {
          "pitch": 48,
          "onset": 171.5,
          "duration": 0.5,
          "velocity": 100
        },
        {
          "pitch": 52,
          "onset": 172.0,
          "duration": 0.5,
          "velocity": 100
        },
        {
          "pitch": 57,
          "onset": 172.5,
          "duration": 1.9688,
          "velocity": 100
        },
        {
          "pitch": 55,
          "onset": 174.5,
          "duration": 0.5,
          "velocity": 100
        },
        {
          "pitch": 57,
          "onset": 175.0,
          "duration": 0.5,
          "velocity": 100
        },
        {
          "pitch": 50,
          "onset": 175.5,
          "duration": 0.5,
          "velocity": 100
        },
        {
          "pitch": 54,
          "onset": 176.0,
          "duration": 0.5,
          "velocity": 100
        },
        {
          "pitch": 57,
          "onset": 176.5,
          "duration": 0.5,
          "velocity": 100
        },
        {
          "pitch": 62,
          "onset": 177.0,
          "duration": 1.9688,
          "velocity": 100
        },
        {
          "pitch": 60,
          "onset": 179.0,
          "duration": 0.5,
          "velocity": 100
        },
        {
          "pitch": 62,
          "onset": 179.5,
          "duration": 0.5,
          "velocity": 100
        },
        {
          "pitch": 55,
          "onset": 180.0,
          "duration": 0.5,
          "velocity": 100
        },
        {
          "pitch": 50,
          "onset": 180.5,
          "duration": 0.5,
          "velocity": 100
        },
        {
          "pitch": 47,
          "onset": 181.0,
          "duration": 0.5,
          "velocity": 100
        },
        {
          "pitch": 43,
          "onset": 181.5,
          "duration": 1.9688,
          "velocity": 100
        },
        {
          "pitch": 47,
          "onset": 183.5,
          "duration": 0.5,
          "velocity": 100
        },
        {
          "pitch": 45,
          "onset": 184.0,
          "duration": 0.5,
          "velocity": 100
        },
        {
          "pitch": 47,
          "onset": 184.5,
          "duration": 0.5,
          "velocity": 100
        },
        {
          "pitch": 48,
          "onset": 185.0,
          "duration": 0.5,
          "velocity": 100
        },
        {
          "pitch": 50,
          "onset": 185.5,
          "duration": 0.5,
          "velocity": 100
        },
        {
          "pitch": 52,
          "onset": 186.0,
          "duration": 0.5,
          "velocity": 100
        },
        {
          "pitch": 55,
          "onset": 186.5,
          "duration": 0.5,
          "velocity": 100
        },
        {
          "pitch": 59,
          "onset": 187.0,
          "duration": 0.5,
          "velocity": 100
        },
        {
          "pitch": 64,
          "onset": 187.5,
          "duration": 0.5,
          "velocity": 100
        },
        {
          "pitch": 62,
          "onset": 188.0,
          "duration": 0.5,
          "velocity": 100
        },
        {
          "pitch": 60,
          "onset": 188.5,
          "duration": 0.5,
          "velocity": 100
        },
        {
          "pitch": 62,
          "onset": 189.0,
          "duration": 1.0,
          "velocity": 100
        },
        {
          "pitch": 59,
          "onset": 190.5,
          "duration": 1.0,
          "velocity": 100
        },
        {
          "pitch": 55,
          "onset": 192.0,
          "duration": 1.9688,
          "velocity": 100
        },
        {
          "pitch": 54,
          "onset": 194.0,
          "duration": 0.5,
          "velocity": 100
        },
        {
          "pitch": 52,
          "onset": 194.5,
          "duration": 0.5,
          "velocity": 100
        },
        {
          "pitch": 54,
          "onset": 195.0,
          "duration": 0.5,
          "velocity": 100
        },
        {
          "pitch": 52,
          "onset": 195.5,
          "duration": 0.5,
          "velocity": 100
        },
        {
          "pitch": 50,
          "onset": 196.0,
          "duration": 0.5,
          "velocity": 100
        },
        {
          "pitch": 52,
          "onset": 196.5,
          "duration": 0.5,
          "velocity": 100
        },
        {
          "pitch": 50,
          "onset": 197.0,
          "duration": 0.5,
          "velocity": 100
        },
        {
          "pitch": 49,
          "onset": 197.5,
          "duration": 0.5,
          "velocity": 100
        },
        {
          "pitch": 50,
          "onset": 198.0,
          "duration": 1.0,
          "velocity": 100
        },
        {
          "pitch": 42,
          "onset": 199.5,
          "duration": 1.0,
          "velocity": 100
        },
        {
          "pitch": 43,
          "onset": 201.0,
          "duration": 1.0,
          "velocity": 100
        },
        {
          "pitch": 57,
          "onset": 202.5,
          "duration": 0.25,
          "velocity": 100
        },
        {
          "pitch": 59,
          "onset": 202.75,
          "duration": 0.25,
          "velocity": 100
        },
        {
          "pitch": 61,
          "onset": 203.0,
          "duration": 0.5,
          "velocity": 100
        },
        {
          "pitch": 57,
          "onset": 203.5,
          "duration": 0.5,
          "velocity": 100
        },
        {
          "pitch": 52,
          "onset": 204.0,
          "duration": 0.25,
          "velocity": 100
        },
        {
          "pitch": 54,
          "onset": 204.25,
          "duration": 0.25,
          "velocity": 100
        },
        {
          "pitch": 55,
          "onset": 204.5,
          "duration": 0.5,
          "velocity": 100
        },
        {
          "pitch": 52,
          "onset": 205.0,
          "duration": 0.5,
          "velocity": 100
        },
        {
          "pitch": 49,
          "onset": 205.5,
          "duration": 0.25,
          "velocity": 100
        },
        {
          "pitch": 50,
          "onset": 205.75,
          "duration": 0.25,
          "velocity": 100
        },
        {
          "pitch": 52,
          "onset": 206.0,
          "duration": 0.5,
          "velocity": 100
        },
        {
          "pitch": 49,
          "onset": 206.5,
          "duration": 0.5,
          "velocity": 100
        },
        {
          "pitch": 45,
          "onset": 207.0,
          "duration": 0.5,
          "velocity": 100
        },
        {
          "pitch": 49,
          "onset": 207.5,
          "duration": 0.5,
          "velocity": 100
        },
        {
          "pitch": 52,
          "onset": 208.0,
          "duration": 0.5,
          "velocity": 100
        },
        {
          "pitch": 49,
          "onset": 208.5,
          "duration": 1.9688,
          "velocity": 100
        },
        {
          "pitch": 50,
          "onset": 210.5,
          "duration": 0.5,
          "velocity": 100
        },
        {
          "pitch": 52,
          "onset": 211.0,
          "duration": 0.5,
          "velocity": 100
        },
        {
          "pitch": 45,
          "onset": 211.5,
          "duration": 0.5,
          "velocity": 100
        },
        {
          "pitch": 50,
          "onset": 212.0,
          "duration": 0.5,
          "velocity": 100
        },
        {
          "pitch": 54,
          "onset": 212.5,
          "duration": 0.5,
          "velocity": 100
        },
        {
          "pitch": 50,
          "onset": 213.0,
          "duration": 1.9688,
          "velocity": 100
        },
        {
          "pitch": 52,
          "onset": 215.0,
          "duration": 0.5,
          "velocity": 100
        },
        {
          "pitch": 54,
          "onset": 215.5,
          "duration": 0.5,
          "velocity": 100
        },
        {
          "pitch": 47,
          "onset": 216.0,
          "duration": 1.0,
          "velocity": 100
        },
        {
          "pitch": 49,
          "onset": 217.5,
          "duration": 1.0,
          "velocity": 100
        },
        {
          "pitch": 50,
          "onset": 219.0,
          "duration": 0.5,
          "velocity": 100
        },
        {
          "pitch": 43,
          "onset": 219.5,
          "duration": 0.5,
          "velocity": 100
        },
        {
          "pitch": 45,
          "onset": 220.0,
          "duration": 0.5,
          "velocity": 100
        },
        {
          "pitch": 38,
          "onset": 220.5,
          "duration": 0.5,
          "velocity": 100
        },
        {
          "pitch": 42,
          "onset": 221.0,
          "duration": 0.5,
          "velocity": 100
        },
        {
          "pitch": 45,
          "onset": 221.5,
          "duration": 0.5,
          "velocity": 100
        },
        {
          "pitch": 50,
          "onset": 222.0,
          "duration": 1.9688,
          "velocity": 100
        },
        {
          "pitch": 52,
          "onset": 224.0,
          "duration": 0.5,
          "velocity": 100
        },
        {
          "pitch": 54,
          "onset": 224.5,
          "duration": 0.5,
          "velocity": 100
        },
        {
          "pitch": 55,
          "onset": 225.0,
          "duration": 0.25,
          "velocity": 100
        },
        {
          "pitch": 57,
          "onset": 225.25,
          "duration": 0.25,
          "velocity": 100
        },
        {
          "pitch": 59,
          "onset": 225.5,
          "duration": 0.5,
          "velocity": 100
        },
        {
          "pitch": 57,
          "onset": 226.0,
          "duration": 0.5,
          "velocity": 100
        },
        {
          "pitch": 55,
          "onset": 226.5,
          "duration": 0.5,
          "velocity": 100
        },
        {
          "pitch": 54,
          "onset": 227.0,
          "duration": 0.5,
          "velocity": 100
        },
        {
          "pitch": 52,
          "onset": 227.5,
          "duration": 0.5,
          "velocity": 100
        },
        {
          "pitch": 51,
          "onset": 228.0,
          "duration": 0.5,
          "velocity": 100
        },
        {
          "pitch": 49,
          "onset": 228.5,
          "duration": 0.5,
          "velocity": 100
        },
        {
          "pitch": 47,
          "onset": 229.0,
          "duration": 0.5,
          "velocity": 100
        },
        {
          "pitch": 52,
          "onset": 229.5,
          "duration": 1.0,
          "velocity": 100
        },
        {
          "pitch": 54,
          "onset": 231.0,
          "duration": 1.0,
          "velocity": 100
        },
        {
          "pitch": 55,
          "onset": 232.5,
          "duration": 0.5,
          "velocity": 100
        },
        {
          "pitch": 57,
          "onset": 233.0,
          "duration": 0.5,
          "velocity": 100
        },
        {
          "pitch": 59,
          "onset": 233.5,
          "duration": 0.5,
          "velocity": 100
        },
        {
          "pitch": 60,
          "onset": 234.0,
          "duration": 0.5,
          "velocity": 100
        },
        {
          "pitch": 59,
          "onset": 234.5,
          "duration": 0.5,
          "velocity": 100
        },
        {
          "pitch": 57,
          "onset": 235.0,
          "duration": 0.5,
          "velocity": 100
        },
        {
          "pitch": 62,
          "onset": 235.5,
          "duration": 1.0,
          "velocity": 100
        },
        {
          "pitch": 50,
          "onset": 237.0,
          "duration": 1.0,
          "velocity": 100
        },
        {
          "pitch": 55,
          "onset": 238.5,
          "duration": 1.0,
          "velocity": 100
        },
        {
          "pitch": 52,
          "onset": 240.0,
          "duration": 1.0,
          "velocity": 100
        },
        {
          "pitch": 48,
          "onset": 241.5,
          "duration": 1.0,
          "velocity": 100
        },
        {
          "pitch": 60,
          "onset": 243.0,
          "duration": 0.5,
          "velocity": 100
        },
        {
          "pitch": 59,
          "onset": 243.5,
          "duration": 0.5,
          "velocity": 100
        },
        {
          "pitch": 57,
          "onset": 244.0,
          "duration": 0.5,
          "velocity": 100
        },
        {
          "pitch": 59,
          "onset": 244.5,
          "duration": 0.5,
          "velocity": 100
        },
        {
          "pitch": 57,
          "onset": 245.0,
          "duration": 0.5,
          "velocity": 100
        },
        {
          "pitch": 55,
          "onset": 245.5,
          "duration": 0.5,
          "velocity": 100
        },
        {
          "pitch": 57,
          "onset": 246.0,
          "duration": 0.5,
          "velocity": 100
        },
        {
          "pitch": 55,
          "onset": 246.5,
          "duration": 0.5,
          "velocity": 100
        },
        {
          "pitch": 53,
          "onset": 247.0,
          "duration": 0.5,
          "velocity": 100
        },
        {
          "pitch": 55,
          "onset": 247.5,
          "duration": 1.0,
          "velocity": 100
        },
        {
          "pitch": 47,
          "onset": 249.0,
          "duration": 1.0,
          "velocity": 100
        },
        {
          "pitch": 48,
          "onset": 250.5,
          "duration": 0.5,
          "velocity": 100
        },
        {
          "pitch": 45,
          "onset": 251.0,
          "duration": 0.5,
          "velocity": 100
        },
        {
          "pitch": 48,
          "onset": 251.5,
          "duration": 0.5,
          "velocity": 100
        },
        {
          "pitch": 50,
          "onset": 252.0,
          "duration": 1.75,
          "velocity": 100
        },
        {
          "pitch": 52,
          "onset": 253.75,
          "duration": 0.25,
          "velocity": 100
        },
        {
          "pitch": 54,
          "onset": 254.0,
          "duration": 0.5,
          "velocity": 100
        },
        {
          "pitch": 50,
          "onset": 254.5,
          "duration": 0.5,
          "velocity": 100
        },
        {
          "pitch": 47,
          "onset": 255.0,
          "duration": 0.25,
          "velocity": 100
        },
        {
          "pitch": 48,
          "onset": 255.25,
          "duration": 0.25,
          "velocity": 100
        },
        {
          "pitch": 50,
          "onset": 255.5,
          "duration": 0.5,
          "velocity": 100
        },
        {
          "pitch": 47,
          "onset": 256.0,
          "duration": 0.5,
          "velocity": 100
        },
        {
          "pitch": 44,
          "onset": 256.5,
          "duration": 0.25,
          "velocity": 100
        },
        {
          "pitch": 45,
          "onset": 256.75,
          "duration": 0.25,
          "velocity": 100
        },
        {
          "pitch": 47,
          "onset": 257.0,
          "duration": 0.5,
          "velocity": 100
        },
        {
          "pitch": 44,
          "onset": 257.5,
          "duration": 0.5,
          "velocity": 100
        },
        {
          "pitch": 40,
          "onset": 258.0,
          "duration": 1.0,
          "velocity": 100
        },
        {
          "pitch": 52,
          "onset": 259.5,
          "duration": 1.0,
          "velocity": 100
        },
        {
          "pitch": 45,
          "onset": 261.0,
          "duration": 0.5,
          "velocity": 100
        },
        {
          "pitch": 48,
          "onset": 261.5,
          "duration": 0.5,
          "velocity": 100
        },
        {
          "pitch": 52,
          "onset": 262.0,
          "duration": 0.5,
          "velocity": 100
        },
        {
          "pitch": 57,
          "onset": 262.5,
          "duration": 1.75,
          "velocity": 100
        },
        {
          "pitch": 59,
          "onset": 264.25,
          "duration": 0.25,
          "velocity": 100
        },
        {
          "pitch": 60,
          "onset": 264.5,
          "duration": 0.5,
          "velocity": 100
        },
        {
          "pitch": 57,
          "onset": 265.0,
          "duration": 0.5,
          "velocity": 100
        },
        {
          "pitch": 54,
          "onset": 265.5,
          "duration": 0.25,
          "velocity": 100
        },
        {
          "pitch": 55,
          "onset": 265.75,
          "duration": 0.25,
          "velocity": 100
        },
        {
          "pitch": 57,
          "onset": 266.0,
          "duration": 0.5,
          "velocity": 100
        },
        {
          "pitch": 53,
          "onset": 266.5,
          "duration": 0.5,
          "velocity": 100
        },
        {
          "pitch": 50,
          "onset": 267.0,
          "duration": 1.0,
          "velocity": 100
        },
        {
          "pitch": 38,
          "onset": 268.5,
          "duration": 1.0,
          "velocity": 100
        },
        {
          "pitch": 43,
          "onset": 270.0,
          "duration": 0.5,
          "velocity": 100
        },
        {
          "pitch": 47,
          "onset": 270.5,
          "duration": 0.5,
          "velocity": 100
        },
        {
          "pitch": 50,
          "onset": 271.0,
          "duration": 0.5,
          "velocity": 100
        },
        {
          "pitch": 55,
          "onset": 271.5,
          "duration": 1.75,
          "velocity": 100
        },
        {
          "pitch": 57,
          "onset": 273.25,
          "duration": 0.25,
          "velocity": 100
        },
        {
          "pitch": 59,
          "onset": 273.5,
          "duration": 0.5,
          "velocity": 100
        },
        {
          "pitch": 55,
          "onset": 274.0,
          "duration": 0.5,
          "velocity": 100
        },
        {
          "pitch": 48,
          "onset": 274.5,
          "duration": 0.25,
          "velocity": 100
        },
        {
          "pitch": 50,
          "onset": 274.75,
          "duration": 0.25,
          "velocity": 100
        },
        {
          "pitch": 52,
          "onset": 275.0,
          "duration": 0.5,
          "velocity": 100
        },
        {
          "pitch": 48,
          "onset": 275.5,
          "duration": 0.5,
          "velocity": 100
        },
        {
          "pitch": 45,
          "onset": 276.0,
          "duration": 0.5,
          "velocity": 100
        },
        {
          "pitch": 48,
          "onset": 276.5,
          "duration": 0.5,
          "velocity": 100
        },
        {
          "pitch": 52,
          "onset": 277.0,
          "duration": 0.5,
          "velocity": 100
        },
        {
          "pitch": 57,
          "onset": 277.5,
          "duration": 0.5,
          "velocity": 100
        },
        {
          "pitch": 55,
          "onset": 278.0,
          "duration": 0.5,
          "velocity": 100
        },
        {
          "pitch": 57,
          "onset": 278.5,
          "duration": 0.5,
          "velocity": 100
        },
        {
          "pitch": 50,
          "onset": 279.0,
          "duration": 0.5,
          "velocity": 100
        },
        {
          "pitch": 54,
          "onset": 279.5,
          "duration": 0.5,
          "velocity": 100
        },
        {
          "pitch": 57,
          "onset": 280.0,
          "duration": 0.5,
          "velocity": 100
        },
        {
          "pitch": 54,
          "onset": 280.5,
          "duration": 1.9688,
          "velocity": 100
        },
        {
          "pitch": 55,
          "onset": 282.5,
          "duration": 0.5,
          "velocity": 100
        },
        {
          "pitch": 57,
          "onset": 283.0,
          "duration": 0.5,
          "velocity": 100
        },
        {
          "pitch": 50,
          "onset": 283.5,
          "duration": 0.5,
          "velocity": 100
        },
        {
          "pitch": 55,
          "onset": 284.0,
          "duration": 0.5,
          "velocity": 100
        },
        {
          "pitch": 59,
          "onset": 284.5,
          "duration": 0.5,
          "velocity": 100
        },
        {
          "pitch": 55,
          "onset": 285.0,
          "duration": 1.9688,
          "velocity": 100
        },
        {
          "pitch": 57,
          "onset": 287.0,
          "duration": 0.5,
          "velocity": 100
        },
        {
          "pitch": 59,
          "onset": 287.5,
          "duration": 0.5,
          "velocity": 100
        },
        {
          "pitch": 52,
          "onset": 288.0,
          "duration": 1.0,
          "velocity": 100
        },
        {
          "pitch": 54,
          "onset": 289.5,
          "duration": 1.0,
          "velocity": 100
        },
        {
          "pitch": 55,
          "onset": 291.0,
          "duration": 0.5,
          "velocity": 100
        },
        {
          "pitch": 48,
          "onset": 291.5,
          "duration": 0.5,
          "velocity": 100
        },
        {
          "pitch": 50,
          "onset": 292.0,
          "duration": 0.75,
          "velocity": 100
        },
        {
          "pitch": 43,
          "onset": 292.75,
          "duration": 4.2188,
          "velocity": 100
        }
      ]
    },
    {
      "role": "pedal",
      "notes": [
        {
          "pitch": 43,
          "onset": 54.0,
          "duration": 1.5,
          "velocity": 100
        },
        {
          "pitch": 43,
          "onset": 55.5,
          "duration": 1.5,
          "velocity": 100
        },
        {
          "pitch": 47,
          "onset": 57.0,
          "duration": 1.0,
          "velocity": 100
        },
        {
          "pitch": 48,
          "onset": 58.0,
          "duration": 0.25,
          "velocity": 100
        },
        {
          "pitch": 50,
          "onset": 58.25,
          "duration": 0.25,
          "velocity": 100
        },
        {
          "pitch": 47,
          "onset": 58.5,
          "duration": 2.5,
          "velocity": 100
        },
        {
          "pitch": 45,
          "onset": 61.0,
          "duration": 0.5,
          "velocity": 100
        },
        {
          "pitch": 43,
          "onset": 61.5,
          "duration": 0.75,
          "velocity": 100
        },
        {
          "pitch": 42,
          "onset": 62.25,
          "duration": 0.25,
          "velocity": 100
        },
        {
          "pitch": 43,
          "onset": 62.5,
          "duration": 0.5,
          "velocity": 100
        },
        {
          "pitch": 42,
          "onset": 63.0,
          "duration": 0.125,
          "velocity": 100
        },
        {
          "pitch": 43,
          "onset": 63.125,
          "duration": 0.125,
          "velocity": 100
        },
        {
          "pitch": 42,
          "onset": 63.25,
          "duration": 0.125,
          "velocity": 100
        },
        {
          "pitch": 43,
          "onset": 63.375,
          "duration": 0.125,
          "velocity": 100
        },
        {
          "pitch": 42,
          "onset": 63.5,
          "duration": 0.125,
          "velocity": 100
        },
        {
          "pitch": 43,
          "onset": 63.625,
          "duration": 0.125,
          "velocity": 100
        },
        {
          "pitch": 42,
          "onset": 63.75,
          "duration": 0.125,
          "velocity": 100
        },
        {
          "pitch": 43,
          "onset": 63.875,
          "duration": 0.125,
          "velocity": 100
        },
        {
          "pitch": 42,
          "onset": 64.0,
          "duration": 1.5,
          "velocity": 100
        },
        {
          "pitch": 40,
          "onset": 65.5,
          "duration": 0.5,
          "velocity": 100
        },
        {
          "pitch": 38,
          "onset": 66.0,
          "duration": 1.5,
          "velocity": 100
        },
        {
          "pitch": 40,
          "onset": 67.5,
          "duration": 1.0,
          "velocity": 100
        },
        {
          "pitch": 42,
          "onset": 68.5,
          "duration": 0.5,
          "velocity": 100
        },
        {
          "pitch": 43,
          "onset": 69.0,
          "duration": 1.0,
          "velocity": 100
        },
        {
          "pitch": 42,
          "onset": 70.0,
          "duration": 0.5,
          "velocity": 100
        },
        {
          "pitch": 43,
          "onset": 70.5,
          "duration": 1.0,
          "velocity": 100
        },
        {
          "pitch": 45,
          "onset": 71.5,
          "duration": 0.5,
          "velocity": 100
        },
        {
          "pitch": 42,
          "onset": 72.0,
          "duration": 0.125,
          "velocity": 100
        },
        {
          "pitch": 43,
          "onset": 72.125,
          "duration": 0.125,
          "velocity": 100
        },
        {
          "pitch": 42,
          "onset": 72.25,
          "duration": 0.125,
          "velocity": 100
        },
        {
          "pitch": 43,
          "onset": 72.375,
          "duration": 0.125,
          "velocity": 100
        },
        {
          "pitch": 42,
          "onset": 72.5,
          "duration": 0.125,
          "velocity": 100
        },
        {
          "pitch": 43,
          "onset": 72.625,
          "duration": 0.125,
          "velocity": 100
        },
        {
          "pitch": 42,
          "onset": 72.75,
          "duration": 0.125,
          "velocity": 100
        },
        {
          "pitch": 43,
          "onset": 72.875,
          "duration": 0.125,
          "velocity": 100
        },
        {
          "pitch": 42,
          "onset": 73.0,
          "duration": 0.125,
          "velocity": 100
        },
        {
          "pitch": 43,
          "onset": 73.125,
          "duration": 0.125,
          "velocity": 100
        },
        {
          "pitch": 42,
          "onset": 73.25,
          "duration": 0.125,
          "velocity": 100
        },
        {
          "pitch": 43,
          "onset": 73.375,
          "duration": 0.125,
          "velocity": 100
        },
        {
          "pitch": 42,
          "onset": 73.5,
          "duration": 0.125,
          "velocity": 100
        },
        {
          "pitch": 43,
          "onset": 73.625,
          "duration": 0.125,
          "velocity": 100
        },
        {
          "pitch": 42,
          "onset": 73.75,
          "duration": 0.125,
          "velocity": 100
        },
        {
          "pitch": 43,
          "onset": 73.875,
          "duration": 0.125,
          "velocity": 100
        },
        {
          "pitch": 42,
          "onset": 74.0,
          "duration": 0.125,
          "velocity": 100
        },
        {
          "pitch": 43,
          "onset": 74.125,
          "duration": 0.125,
          "velocity": 100
        },
        {
          "pitch": 42,
          "onset": 74.25,
          "duration": 0.125,
          "velocity": 100
        },
        {
          "pitch": 43,
          "onset": 74.375,
          "duration": 0.125,
          "velocity": 100
        },
        {
          "pitch": 42,
          "onset": 74.5,
          "duration": 0.125,
          "velocity": 100
        },
        {
          "pitch": 43,
          "onset": 74.625,
          "duration": 0.125,
          "velocity": 100
        },
        {
          "pitch": 42,
          "onset": 74.75,
          "duration": 0.125,
          "velocity": 100
        },
        {
          "pitch": 43,
          "onset": 74.875,
          "duration": 0.125,
          "velocity": 100
        },
        {
          "pitch": 42,
          "onset": 75.0,
          "duration": 1.5,
          "velocity": 100
        },
        {
          "pitch": 43,
          "onset": 76.5,
          "duration": 1.5,
          "velocity": 100
        },
        {
          "pitch": 43,
          "onset": 99.0,
          "duration": 1.5,
          "velocity": 100
        },
        {
          "pitch": 43,
          "onset": 100.5,
          "duration": 1.5,
          "velocity": 100
        },
        {
          "pitch": 47,
          "onset": 102.0,
          "duration": 1.0,
          "velocity": 100
        },
        {
          "pitch": 48,
          "onset": 103.0,
          "duration": 0.25,
          "velocity": 100
        },
        {
          "pitch": 50,
          "onset": 103.25,
          "duration": 0.25,
          "velocity": 100
        },
        {
          "pitch": 47,
          "onset": 103.5,
          "duration": 2.5,
          "velocity": 100
        },
        {
          "pitch": 45,
          "onset": 106.0,
          "duration": 0.5,
          "velocity": 100
        },
        {
          "pitch": 43,
          "onset": 106.5,
          "duration": 1.5,
          "velocity": 100
        },
        {
          "pitch": 42,
          "onset": 108.0,
          "duration": 2.5,
          "velocity": 100
        },
        {
          "pitch": 40,
          "onset": 110.5,
          "duration": 0.5,
          "velocity": 100
        },
        {
          "pitch": 38,
          "onset": 111.0,
          "duration": 1.5,
          "velocity": 100
        },
        {
          "pitch": 40,
          "onset": 112.5,
          "duration": 1.0,
          "velocity": 100
        },
        {
          "pitch": 42,
          "onset": 113.5,
          "duration": 0.5,
          "velocity": 100
        },
        {
          "pitch": 43,
          "onset": 114.0,
          "duration": 1.0,
          "velocity": 100
        },
        {
          "pitch": 42,
          "onset": 115.0,
          "duration": 0.5,
          "velocity": 100
        },
        {
          "pitch": 43,
          "onset": 115.5,
          "duration": 1.0,
          "velocity": 100
        },
        {
          "pitch": 45,
          "onset": 116.5,
          "duration": 0.5,
          "velocity": 100
        },
        {
          "pitch": 42,
          "onset": 117.0,
          "duration": 0.125,
          "velocity": 100
        },
        {
          "pitch": 43,
          "onset": 117.125,
          "duration": 0.125,
          "velocity": 100
        },
        {
          "pitch": 42,
          "onset": 117.25,
          "duration": 0.125,
          "velocity": 100
        },
        {
          "pitch": 43,
          "onset": 117.375,
          "duration": 0.125,
          "velocity": 100
        },
        {
          "pitch": 42,
          "onset": 117.5,
          "duration": 0.125,
          "velocity": 100
        },
        {
          "pitch": 43,
          "onset": 117.625,
          "duration": 0.125,
          "velocity": 100
        },
        {
          "pitch": 42,
          "onset": 117.75,
          "duration": 0.125,
          "velocity": 100
        },
        {
          "pitch": 43,
          "onset": 117.875,
          "duration": 0.125,
          "velocity": 100
        },
        {
          "pitch": 42,
          "onset": 118.0,
          "duration": 0.125,
          "velocity": 100
        },
        {
          "pitch": 43,
          "onset": 118.125,
          "duration": 0.125,
          "velocity": 100
        },
        {
          "pitch": 42,
          "onset": 118.25,
          "duration": 0.125,
          "velocity": 100
        },
        {
          "pitch": 43,
          "onset": 118.375,
          "duration": 0.125,
          "velocity": 100
        },
        {
          "pitch": 42,
          "onset": 118.5,
          "duration": 0.125,
          "velocity": 100
        },
        {
          "pitch": 43,
          "onset": 118.625,
          "duration": 0.125,
          "velocity": 100
        },
        {
          "pitch": 42,
          "onset": 118.75,
          "duration": 0.125,
          "velocity": 100
        },
        {
          "pitch": 43,
          "onset": 118.875,
          "duration": 0.125,
          "velocity": 100
        },
        {
          "pitch": 42,
          "onset": 119.0,
          "duration": 0.125,
          "velocity": 100
        },
        {
          "pitch": 43,
          "onset": 119.125,
          "duration": 0.125,
          "velocity": 100
        },
        {
          "pitch": 42,
          "onset": 119.25,
          "duration": 0.125,
          "velocity": 100
        },
        {
          "pitch": 43,
          "onset": 119.375,
          "duration": 0.125,
          "velocity": 100
        },
        {
          "pitch": 42,
          "onset": 119.5,
          "duration": 0.125,
          "velocity": 100
        },
        {
          "pitch": 43,
          "onset": 119.625,
          "duration": 0.125,
          "velocity": 100
        },
        {
          "pitch": 42,
          "onset": 119.75,
          "duration": 0.125,
          "velocity": 100
        },
        {
          "pitch": 43,
          "onset": 119.875,
          "duration": 0.125,
          "velocity": 100
        },
        {
          "pitch": 42,
          "onset": 120.0,
          "duration": 1.5,
          "velocity": 100
        },
        {
          "pitch": 47,
          "onset": 166.5,
          "duration": 1.5,
          "velocity": 100
        },
        {
          "pitch": 48,
          "onset": 168.0,
          "duration": 1.0,
          "velocity": 100
        },
        {
          "pitch": 47,
          "onset": 169.0,
          "duration": 0.5,
          "velocity": 100
        },
        {
          "pitch": 45,
          "onset": 169.5,
          "duration": 1.0,
          "velocity": 100
        },
        {
          "pitch": 47,
          "onset": 170.5,
          "duration": 0.5,
          "velocity": 100
        },
        {
          "pitch": 48,
          "onset": 171.0,
          "duration": 9.0,
          "velocity": 100
        },
        {
          "pitch": 47,
          "onset": 180.0,
          "duration": 2.5,
          "velocity": 100
        },
        {
          "pitch": 48,
          "onset": 182.5,
          "duration": 0.5,
          "velocity": 100
        },
        {
          "pitch": 50,
          "onset": 183.0,
          "duration": 1.5,
          "velocity": 100
        },
        {
          "pitch": 50,
          "onset": 184.5,
          "duration": 1.5,
          "velocity": 100
        },
        {
          "pitch": 43,
          "onset": 186.0,
          "duration": 1.0,
          "velocity": 100
        },
        {
          "pitch": 42,
          "onset": 187.0,
          "duration": 0.5,
          "velocity": 100
        },
        {
          "pitch": 43,
          "onset": 187.5,
          "duration": 1.0,
          "velocity": 100
        },
        {
          "pitch": 48,
          "onset": 188.5,
          "duration": 0.5,
          "velocity": 100
        },
        {
          "pitch": 45,
          "onset": 189.0,
          "duration": 1.5,
          "velocity": 100
        },
        {
          "pitch": 38,
          "onset": 225.0,
          "duration": 1.5,
          "velocity": 100
        },
        {
          "pitch": 40,
          "onset": 226.5,
          "duration": 1.5,
          "velocity": 100
        },
        {
          "pitch": 42,
          "onset": 228.0,
          "duration": 1.5,
          "velocity": 100
        },
        {
          "pitch": 43,
          "onset": 229.5,
          "duration": 1.5,
          "velocity": 100
        },
        {
          "pitch": 45,
          "onset": 231.0,
          "duration": 1.5,
          "velocity": 100
        },
        {
          "pitch": 47,
          "onset": 232.5,
          "duration": 0.5,
          "velocity": 100
        },
        {
          "pitch": 48,
          "onset": 233.0,
          "duration": 0.5,
          "velocity": 100
        },
        {
          "pitch": 50,
          "onset": 233.5,
          "duration": 0.5,
          "velocity": 100
        },
        {
          "pitch": 45,
          "onset": 234.0,
          "duration": 0.125,
          "velocity": 100
        },
        {
          "pitch": 47,
          "onset": 234.125,
          "duration": 0.125,
          "velocity": 100
        },
        {
          "pitch": 45,
          "onset": 234.25,
          "duration": 0.125,
          "velocity": 100
        },
        {
          "pitch": 47,
          "onset": 234.375,
          "duration": 0.125,
          "velocity": 100
        },
        {
          "pitch": 45,
          "onset": 234.5,
          "duration": 0.125,
          "velocity": 100
        },
        {
          "pitch": 47,
          "onset": 234.625,
          "duration": 0.125,
          "velocity": 100
        },
        {
          "pitch": 45,
          "onset": 234.75,
          "duration": 0.125,
          "velocity": 100
        },
        {
          "pitch": 47,
          "onset": 234.875,
          "duration": 0.125,
          "velocity": 100
        },
        {
          "pitch": 45,
          "onset": 235.0,
          "duration": 0.125,
          "velocity": 100
        },
        {
          "pitch": 47,
          "onset": 235.125,
          "duration": 0.125,
          "velocity": 100
        },
        {
          "pitch": 45,
          "onset": 235.25,
          "duration": 0.125,
          "velocity": 100
        },
        {
          "pitch": 47,
          "onset": 235.375,
          "duration": 0.125,
          "velocity": 100
        },
        {
          "pitch": 45,
          "onset": 235.5,
          "duration": 0.125,
          "velocity": 100
        },
        {
          "pitch": 47,
          "onset": 235.625,
          "duration": 0.125,
          "velocity": 100
        },
        {
          "pitch": 45,
          "onset": 235.75,
          "duration": 0.125,
          "velocity": 100
        },
        {
          "pitch": 47,
          "onset": 235.875,
          "duration": 0.125,
          "velocity": 100
        },
        {
          "pitch": 45,
          "onset": 236.0,
          "duration": 0.125,
          "velocity": 100
        },
        {
          "pitch": 47,
          "onset": 236.125,
          "duration": 0.125,
          "velocity": 100
        },
        {
          "pitch": 45,
          "onset": 236.25,
          "duration": 0.125,
          "velocity": 100
        },
        {
          "pitch": 47,
          "onset": 236.375,
          "duration": 0.125,
          "velocity": 100
        },
        {
          "pitch": 45,
          "onset": 236.5,
          "duration": 0.125,
          "velocity": 100
        },
        {
          "pitch": 47,
          "onset": 236.625,
          "duration": 0.125,
          "velocity": 100
        },
        {
          "pitch": 45,
          "onset": 236.75,
          "duration": 0.125,
          "velocity": 100
        },
        {
          "pitch": 47,
          "onset": 236.875,
          "duration": 0.125,
          "velocity": 100
        },
        {
          "pitch": 45,
          "onset": 237.0,
          "duration": 1.5,
          "velocity": 100
        },
        {
          "pitch": 43,
          "onset": 238.5,
          "duration": 1.5,
          "velocity": 100
        }
      ]
    }
  ]
}