{
  "bwv": 608,
  "category": "orgelbuchlein",
  "instrument": "organ",
  "form": "",
  "movement": null,
  "tonic": "A",
  "mode": "major",
  "confidence": "inferred",
  "ticks_per_beat": 480,
  "duration_seconds": 87.8,
  "tempos": [
    {
      "tick": 0,
      "bpm": 160
    },
    {
      "tick": 97920,
      "bpm": 155
    },
    {
      "tick": 100800,
      "bpm": 140
    },
    {
      "tick": 102720,
      "bpm": 120
    }
  ],
  "time_signatures": [
    {
      "tick": 0,
      "numerator": 6,
      "denominator": 4
    }
  ],
  "track_type": "manual",
  "voice_count": 2,
  "total_notes": 692,
  "tracks": [
    {
      "role": "manual",
      "notes": [
        {
          "pitch": 69,
          "onset": 0.0,
          "duration": 1.9688,
          "velocity": 100
        },
        {
          "pitch": 68,
          "onset": 0.6562,
          "duration": 0.6562,
          "velocity": 100
        },
        {
          "pitch": 66,
          "onset": 1.3438,
          "duration": 0.6562,
          "velocity": 100
        },
        {
          "pitch": 64,
          "onset": 2.0,
          "duration": 0.6562,
          "velocity": 100
        },
        {
          "pitch": 69,
          "onset": 2.0,
          "duration": 1.9688,
          "velocity": 100
        },
        {
          "pitch": 66,
          "onset": 2.6562,
          "duration": 0.6562,
          "velocity": 100
        },
        {
          "pitch": 62,
          "onset": 3.3438,
          "duration": 0.6562,
          "velocity": 100
        },
        {
          "pitch": 61,
          "onset": 4.0,
          "duration": 0.6562,
          "velocity": 100
        },
        {
          "pitch": 69,
          "onset": 4.0,
          "duration": 1.9688,
          "velocity": 100
        },
        {
          "pitch": 62,
          "onset": 4.6562,
          "duration": 0.6562,
          "velocity": 100
        },
        {
          "pitch": 59,
          "onset": 5.3438,
          "duration": 0.6562,
          "velocity": 100
        },
        {
          "pitch": 57,
          "onset": 6.0,
          "duration": 0.6562,
          "velocity": 100
        },
        {
          "pitch": 73,
          "onset": 6.0,
          "duration": 3.9688,
          "velocity": 100
        },
        {
          "pitch": 56,
          "onset": 6.6562,
          "duration": 0.6562,
          "velocity": 100
        },
        {
          "pitch": 71,
          "onset": 6.6562,
          "duration": 0.6562,
          "velocity": 100
        },
        {
          "pitch": 54,
          "onset": 7.3438,
          "duration": 0.6562,
          "velocity": 100
        },
        {
          "pitch": 69,
          "onset": 7.3438,
          "duration": 0.6562,
          "velocity": 100
        },
        {
          "pitch": 52,
          "onset": 8.0,
          "duration": 0.6562,
          "velocity": 100
        },
        {
          "pitch": 68,
          "onset": 8.0,
          "duration": 0.6562,
          "velocity": 100
        },
        {
          "pitch": 54,
          "onset": 8.6562,
          "duration": 0.6562,
          "velocity": 100
        },
        {
          "pitch": 69,
          "onset": 8.6562,
          "duration": 0.6562,
          "velocity": 100
        },
        {
          "pitch": 50,
          "onset": 9.3438,
          "duration": 0.6562,
          "velocity": 100
        },
        {
          "pitch": 66,
          "onset": 9.3438,
          "duration": 0.6562,
          "velocity": 100
        },
        {
          "pitch": 49,
          "onset": 10.0,
          "duration": 0.6562,
          "velocity": 100
        },
        {
          "pitch": 64,
          "onset": 10.0,
          "duration": 0.6562,
          "velocity": 100
        },
        {
          "pitch": 74,
          "onset": 10.0,
          "duration": 1.9688,
          "velocity": 100
        },
        {
          "pitch": 50,
          "onset": 10.6562,
          "duration": 0.6562,
          "velocity": 100
        },
        {
          "pitch": 66,
          "onset": 10.6562,
          "duration": 0.6562,
          "velocity": 100
        },
        {
          "pitch": 47,
          "onset": 11.3438,
          "duration": 0.6562,
          "velocity": 100
        },
        {
          "pitch": 62,
          "onset": 11.3438,
          "duration": 0.6562,
          "velocity": 100
        },
        {
          "pitch": 45,
          "onset": 12.0,
          "duration": 0.6562,
          "velocity": 100
        },
        {
          "pitch": 69,
          "onset": 12.0,
          "duration": 1.0,
          "velocity": 100
        },
        {
          "pitch": 76,
          "onset": 12.0,
          "duration": 3.9688,
          "velocity": 100
        },
        {
          "pitch": 59,
          "onset": 12.6562,
          "duration": 0.6562,
          "velocity": 100
        },
        {
          "pitch": 69,
          "onset": 13.0,
          "duration": 1.0,
          "velocity": 100
        },
        {
          "pitch": 57,
          "onset": 13.3438,
          "duration": 0.6562,
          "velocity": 100
        },
        {
          "pitch": 56,
          "onset": 14.0,
          "duration": 0.6562,
          "velocity": 100
        },
        {
          "pitch": 69,
          "onset": 14.0,
          "duration": 1.0,
          "velocity": 100
        },
        {
          "pitch": 57,
          "onset": 14.6562,
          "duration": 0.6562,
          "velocity": 100
        },
        {
          "pitch": 69,
          "onset": 15.0,
          "duration": 1.0,
          "velocity": 100
        },
        {
          "pitch": 54,
          "onset": 15.3438,
          "duration": 0.6562,
          "velocity": 100
        },
        {
          "pitch": 52,
          "onset": 16.0,
          "duration": 0.6562,
          "velocity": 100
        },
        {
          "pitch": 69,
          "onset": 16.0,
          "duration": 1.0,
          "velocity": 100
        },
        {
          "pitch": 78,
          "onset": 16.0,
          "duration": 1.9688,
          "velocity": 100
        },
        {
          "pitch": 54,
          "onset": 16.6562,
          "duration": 0.6562,
          "velocity": 100
        },
        {
          "pitch": 69,
          "onset": 17.0,
          "duration": 1.0,
          "velocity": 100
        },
        {
          "pitch": 50,
          "onset": 17.3438,
          "duration": 0.6562,
          "velocity": 100
        },
        {
          "pitch": 57,
          "onset": 18.0,
          "duration": 1.0,
          "velocity": 100
        },
        {
          "pitch": 73,
          "onset": 18.0,
          "duration": 0.6562,
          "velocity": 100
        },
        {
          "pitch": 76,
          "onset": 18.0,
          "duration": 0.6562,
          "velocity": 100
        },
        {
          "pitch": 76,
          "onset": 18.6562,
          "duration": 3.3125,
          "velocity": 100
        },
        {
          "pitch": 57,
          "onset": 19.0,
          "duration": 1.0,
          "velocity": 100
        },
        {
          "pitch": 74,
          "onset": 19.3438,
          "duration": 0.6562,
          "velocity": 100
        },
        {
          "pitch": 57,
          "onset": 20.0,
          "duration": 1.0,
          "velocity": 100
        },
        {
          "pitch": 73,
          "onset": 20.0,
          "duration": 0.6562,
          "velocity": 100
        },
        {
          "pitch": 74,
          "onset": 20.6562,
          "duration": 0.6562,
          "velocity": 100
        },
        {
          "pitch": 57,
          "onset": 21.0,
          "duration": 1.0,
          "velocity": 100
        },
        {
          "pitch": 71,
          "onset": 21.3438,
          "duration": 0.6562,
          "velocity": 100
        },
        {
          "pitch": 57,
          "onset": 22.0,
          "duration": 1.0,
          "velocity": 100
        },
        {
          "pitch": 69,
          "onset": 22.0,
          "duration": 0.6562,
          "velocity": 100
        },
        {
          "pitch": 71,
          "onset": 22.6562,
          "duration": 0.6562,
          "velocity": 100
        },
        {
          "pitch": 57,
          "onset": 23.0,
          "duration": 1.0,
          "velocity": 100
        },
        {
          "pitch": 68,
          "onset": 23.3438,
          "duration": 0.6562,
          "velocity": 100
        },
        {
          "pitch": 61,
          "onset": 24.0,
          "duration": 0.6562,
          "velocity": 100
        },
        {
          "pitch": 69,
          "onset": 24.0,
          "duration": 1.9688,
          "velocity": 100
        },
        {
          "pitch": 64,
          "onset": 24.6562,
          "duration": 0.6562,
          "velocity": 100
        },
        {
          "pitch": 68,
          "onset": 24.6562,
          "duration": 0.6562,
          "velocity": 100
        },
        {
          "pitch": 62,
          "onset": 25.3438,
          "duration": 0.6562,
          "velocity": 100
        },
        {
          "pitch": 66,
          "onset": 25.3438,
          "duration": 0.6562,
          "velocity": 100
        },
        {
          "pitch": 61,
          "onset": 26.0,
          "duration": 0.6562,
          "velocity": 100
        },
        {
          "pitch": 64,
          "onset": 26.0,
          "duration": 0.6562,
          "velocity": 100
        },
        {
          "pitch": 69,
          "onset": 26.0,
          "duration": 1.9688,
          "velocity": 100
        },
        {
          "pitch": 62,
          "onset": 26.6562,
          "duration": 0.6562,
          "velocity": 100
        },
        {
          "pitch": 66,
          "onset": 26.6562,
          "duration": 0.6562,
          "velocity": 100
        },
        {
          "pitch": 59,
          "onset": 27.3438,
          "duration": 0.6562,
          "velocity": 100
        },
        {
          "pitch": 62,
          "onset": 27.3438,
          "duration": 0.6562,
          "velocity": 100
        },
        {
          "pitch": 57,
          "onset": 28.0,
          "duration": 0.6562,
          "velocity": 100
        },
        {
          "pitch": 61,
          "onset": 28.0,
          "duration": 0.6562,
          "velocity": 100
        },
        {
          "pitch": 69,
          "onset": 28.0,
          "duration": 1.9688,
          "velocity": 100
        },
        {
          "pitch": 59,
          "onset": 28.6562,
          "duration": 0.6562,
          "velocity": 100
        },
        {
          "pitch": 62,
          "onset": 28.6562,
          "duration": 0.6562,
          "velocity": 100
        },
        {
          "pitch": 56,
          "onset": 29.3438,
          "duration": 0.6562,
          "velocity": 100
        },
        {
          "pitch": 59,
          "onset": 29.3438,
          "duration": 0.6562,
          "velocity": 100
        },
        {
          "pitch": 57,
          "onset": 30.0,
          "duration": 0.6562,
          "velocity": 100
        },
        {
          "pitch": 73,
          "onset": 30.0,
          "duration": 3.9688,
          "velocity": 100
        },
        {
          "pitch": 56,
          "onset": 30.6562,
          "duration": 0.6562,
          "velocity": 100
        },
        {
          "pitch": 71,
          "onset": 30.6562,
          "duration": 0.6562,
          "velocity": 100
        },
        {
          "pitch": 54,
          "onset": 31.3438,
          "duration": 0.6562,
          "velocity": 100
        },
        {
          "pitch": 69,
          "onset": 31.3438,
          "duration": 0.6562,
          "velocity": 100
        },
        {
          "pitch": 52,
          "onset": 32.0,
          "duration": 0.6562,
          "velocity": 100
        },
        {
          "pitch": 68,
          "onset": 32.0,
          "duration": 0.6562,
          "velocity": 100
        },
        {
          "pitch": 54,
          "onset": 32.6562,
          "duration": 0.6562,
          "velocity": 100
        },
        {
          "pitch": 69,
          "onset": 32.6562,
          "duration": 0.6562,
          "velocity": 100
        },
        {
          "pitch": 50,
          "onset": 33.3438,
          "duration": 0.6562,
          "velocity": 100
        },
        {
          "pitch": 66,
          "onset": 33.3438,
          "duration": 0.6562,
          "velocity": 100
        },
        {
          "pitch": 49,
          "onset": 34.0,
          "duration": 0.6562,
          "velocity": 100
        },
        {
          "pitch": 64,
          "onset": 34.0,
          "duration": 0.6562,
          "velocity": 100
        },
        {
          "pitch": 74,
          "onset": 34.0,
          "duration": 1.9688,
          "velocity": 100
        },
        {
          "pitch": 50,
          "onset": 34.6562,
          "duration": 0.6562,
          "velocity": 100
        },
        {
          "pitch": 66,
          "onset": 34.6562,
          "duration": 0.6562,
          "velocity": 100
        },
        {
          "pitch": 47,
          "onset": 35.3438,
          "duration": 0.6562,
          "velocity": 100
        },
        {
          "pitch": 62,
          "onset": 35.3438,
          "duration": 0.6562,
          "velocity": 100
        },
        {
          "pitch": 45,
          "onset": 36.0,
          "duration": 0.6562,
          "velocity": 100
        },
        {
          "pitch": 69,
          "onset": 36.0,
          "duration": 1.0,
          "velocity": 100
        },
        {
          "pitch": 76,
          "onset": 36.0,
          "duration": 3.9688,
          "velocity": 100
        },
        {
          "pitch": 59,
          "onset": 36.6562,
          "duration": 0.6562,
          "velocity": 100
        },
        {
          "pitch": 69,
          "onset": 37.0,
          "duration": 1.0,
          "velocity": 100
        },
        {
          "pitch": 57,
          "onset": 37.3438,
          "duration": 0.6562,
          "velocity": 100
        },
        {
          "pitch": 56,
          "onset": 38.0,
          "duration": 0.6562,
          "velocity": 100
        },
        {
          "pitch": 69,
          "onset": 38.0,
          "duration": 1.0,
          "velocity": 100
        },
        {
          "pitch": 57,
          "onset": 38.6562,
          "duration": 0.6562,
          "velocity": 100
        },
        {
          "pitch": 69,
          "onset": 39.0,
          "duration": 1.0,
          "velocity": 100
        },
        {
          "pitch": 54,
          "onset": 39.3438,
          "duration": 0.6562,
          "velocity": 100
        },
        {
          "pitch": 52,
          "onset": 40.0,
          "duration": 0.6562,
          "velocity": 100
        },
        {
          "pitch": 69,
          "onset": 40.0,
          "duration": 1.0,
          "velocity": 100
        },
        {
          "pitch": 78,
          "onset": 40.0,
          "duration": 1.9688,
          "velocity": 100
        },
        {
          "pitch": 54,
          "onset": 40.6562,
          "duration": 0.6562,
          "velocity": 100
        },
        {
          "pitch": 69,
          "onset": 41.0,
          "duration": 1.0,
          "velocity": 100
        },
        {
          "pitch": 50,
          "onset": 41.3438,
          "duration": 0.6562,
          "velocity": 100
        },
        {
          "pitch": 57,
          "onset": 42.0,
          "duration": 1.0,
          "velocity": 100
        },
        {
          "pitch": 73,
          "onset": 42.0,
          "duration": 0.6562,
          "velocity": 100
        },
        {
          "pitch": 76,
          "onset": 42.0,
          "duration": 0.6562,
          "velocity": 100
        },
        {
          "pitch": 76,
          "onset": 42.6562,
          "duration": 3.3125,
          "velocity": 100
        },
        {
          "pitch": 57,
          "onset": 43.0,
          "duration": 1.0,
          "velocity": 100
        },
        {
          "pitch": 74,
          "onset": 43.3438,
          "duration": 0.6562,
          "velocity": 100
        },
        {
          "pitch": 57,
          "onset": 44.0,
          "duration": 1.0,
          "velocity": 100
        },
        {
          "pitch": 73,
          "onset": 44.0,
          "duration": 0.6562,
          "velocity": 100
        },
        {
          "pitch": 74,
          "onset": 44.6562,
          "duration": 0.6562,
          "velocity": 100
        },
        {
          "pitch": 57,
          "onset": 45.0,
          "duration": 1.0,
          "velocity": 100
        },
        {
          "pitch": 71,
          "onset": 45.3438,
          "duration": 0.6562,
          "velocity": 100
        },
        {
          "pitch": 57,
          "onset": 46.0,
          "duration": 1.0,
          "velocity": 100
        },
        {
          "pitch": 69,
          "onset": 46.0,
          "duration": 0.6562,
          "velocity": 100
        },
        {
          "pitch": 71,
          "onset": 46.6562,
          "duration": 0.6562,
          "velocity": 100
        },
        {
          "pitch": 57,
          "onset": 47.0,
          "duration": 1.0,
          "velocity": 100
        },
        {
          "pitch": 68,
          "onset": 47.3438,
          "duration": 0.6562,
          "velocity": 100
        },
        {
          "pitch": 61,
          "onset": 48.0,
          "duration": 0.6562,
          "velocity": 100
        },
        {
          "pitch": 69,
          "onset": 48.0,
          "duration": 0.6562,
          "velocity": 100
        },
        {
          "pitch": 76,
          "onset": 48.0,
          "duration": 3.9688,
          "velocity": 100
        },
        {
          "pitch": 64,
          "onset": 48.6562,
          "duration": 0.6562,
          "velocity": 100
        },
        {
          "pitch": 73,
          "onset": 48.6562,
          "duration": 0.6562,
          "velocity": 100
        },
        {
          "pitch": 62,
          "onset": 49.3438,
          "duration": 0.6562,
          "velocity": 100
        },
        {
          "pitch": 71,
          "onset": 49.3438,
          "duration": 0.6562,
          "velocity": 100
        },
        {
          "pitch": 61,
          "onset": 50.0,
          "duration": 0.6562,
          "velocity": 100
        },
        {
          "pitch": 69,
          "onset": 50.0,
          "duration": 0.6562,
          "velocity": 100
        },
        {
          "pitch": 62,
          "onset": 50.6562,
          "duration": 0.6562,
          "velocity": 100
        },
        {
          "pitch": 71,
          "onset": 50.6562,
          "duration": 0.6562,
          "velocity": 100
        },
        {
          "pitch": 59,
          "onset": 51.3438,
          "duration": 0.6562,
          "velocity": 100
        },
        {
          "pitch": 73,
          "onset": 51.3438,
          "duration": 0.6562,
          "velocity": 100
        },
        {
          "pitch": 57,
          "onset": 52.0,
          "duration": 0.6562,
          "velocity": 100
        },
        {
          "pitch": 74,
          "onset": 52.0,
          "duration": 0.6562,
          "velocity": 100
        },
        {
          "pitch": 78,
          "onset": 52.0,
          "duration": 1.9688,
          "velocity": 100
        },
        {
          "pitch": 59,
          "onset": 52.6562,
          "duration": 0.6562,
          "velocity": 100
        },
        {
          "pitch": 73,
          "onset": 52.6562,
          "duration": 0.6562,
          "velocity": 100
        },
        {
          "pitch": 56,
          "onset": 53.3438,
          "duration": 0.6562,
          "velocity": 100
        },
        {
          "pitch": 74,
          "onset": 53.3438,
          "duration": 0.6562,
          "velocity": 100
        },
        {
          "pitch": 57,
          "onset": 54.0,
          "duration": 0.6562,
          "velocity": 100
        },
        {
          "pitch": 73,
          "onset": 54.0,
          "duration": 0.6562,
          "velocity": 100
        },
        {
          "pitch": 76,
          "onset": 54.0,
          "duration": 0.6562,
          "velocity": 100
        },
        {
          "pitch": 61,
          "onset": 54.6562,
          "duration": 0.6562,
          "velocity": 100
        },
        {
          "pitch": 76,
          "onset": 54.6562,
          "duration": 3.3125,
          "velocity": 100
        },
        {
          "pitch": 59,
          "onset": 55.3438,
          "duration": 0.6562,
          "velocity": 100
        },
        {
          "pitch": 74,
          "onset": 55.3438,
          "duration": 0.6562,
          "velocity": 100
        },
        {
          "pitch": 57,
          "onset": 56.0,
          "duration": 0.6562,
          "velocity": 100
        },
        {
          "pitch": 73,
          "onset": 56.0,
          "duration": 0.6562,
          "velocity": 100
        },
        {
          "pitch": 59,
          "onset": 56.6562,
          "duration": 0.6562,
          "velocity": 100
        },
        {
          "pitch": 74,
          "onset": 56.6562,
          "duration": 0.6562,
          "velocity": 100
        },
        {
          "pitch": 61,
          "onset": 57.3438,
          "duration": 0.6562,
          "velocity": 100
        },
        {
          "pitch": 71,
          "onset": 57.3438,
          "duration": 0.6562,
          "velocity": 100
        },
        {
          "pitch": 62,
          "onset": 58.0,
          "duration": 0.6562,
          "velocity": 100
        },
        {
          "pitch": 69,
          "onset": 58.0,
          "duration": 0.6562,
          "velocity": 100
        },
        {
          "pitch": 74,
          "onset": 58.0,
          "duration": 1.9688,
          "velocity": 100
        },
        {
          "pitch": 61,
          "onset": 58.6562,
          "duration": 0.6562,
          "velocity": 100
        },
        {
          "pitch": 71,
          "onset": 58.6562,
          "duration": 0.6562,
          "velocity": 100
        },
        {
          "pitch": 62,
          "onset": 59.3438,
          "duration": 0.6562,
          "velocity": 100
        },
        {
          "pitch": 68,
          "onset": 59.3438,
          "duration": 0.6562,
          "velocity": 100
        },
        {
          "pitch": 57,
          "onset": 60.0,
          "duration": 0.6562,
          "velocity": 100
        },
        {
          "pitch": 69,
          "onset": 60.0,
          "duration": 0.6562,
          "velocity": 100
        },
        {
          "pitch": 73,
          "onset": 60.0,
          "duration": 2.9688,
          "velocity": 100
        },
        {
          "pitch": 64,
          "onset": 60.6562,
          "duration": 0.6562,
          "velocity": 100
        },
        {
          "pitch": 68,
          "onset": 60.6562,
          "duration": 0.6562,
          "velocity": 100
        },
        {
          "pitch": 62,
          "onset": 61.3438,
          "duration": 0.6562,
          "velocity": 100
        },
        {
          "pitch": 66,
          "onset": 61.3438,
          "duration": 0.6562,
          "velocity": 100
        },
        {
          "pitch": 61,
          "onset": 62.0,
          "duration": 0.6562,
          "velocity": 100
        },
        {
          "pitch": 64,
          "onset": 62.0,
          "duration": 0.6562,
          "velocity": 100
        },
        {
          "pitch": 62,
          "onset": 62.6562,
          "duration": 0.6562,
          "velocity": 100
        },
        {
          "pitch": 66,
          "onset": 62.6562,
          "duration": 0.6562,
          "velocity": 100
        },
        {
          "pitch": 74,
          "onset": 63.0,
          "duration": 1.0,
          "velocity": 100
        },
        {
          "pitch": 59,
          "onset": 63.3438,
          "duration": 0.6562,
          "velocity": 100
        },
        {
          "pitch": 62,
          "onset": 63.3438,
          "duration": 0.6562,
          "velocity": 100
        },
        {
          "pitch": 57,
          "onset": 64.0,
          "duration": 0.6562,
          "velocity": 100
        },
        {
          "pitch": 64,
          "onset": 64.0,
          "duration": 1.0,
          "velocity": 100
        },
        {
          "pitch": 73,
          "onset": 64.0,
          "duration": 1.0,
          "velocity": 100
        },
        {
          "pitch": 59,
          "onset": 64.6562,
          "duration": 0.6562,
          "velocity": 100
        },
        {
          "pitch": 65,
          "onset": 65.0,
          "duration": 1.0,
          "velocity": 100
        },
        {
          "pitch": 71,
          "onset": 65.0,
          "duration": 1.0,
          "velocity": 100
        },
        {
          "pitch": 56,
          "onset": 65.3438,
          "duration": 0.6562,
          "velocity": 100
        },
        {
          "pitch": 57,
          "onset": 66.0,
          "duration": 0.6562,
          "velocity": 100
        },
        {
          "pitch": 66,
          "onset": 66.0,
          "duration": 0.6562,
          "velocity": 100
        },
        {
          "pitch": 69,
          "onset": 66.0,
          "duration": 1.3125,
          "velocity": 100
        },
        {
          "pitch": 56,
          "onset": 66.6562,
          "duration": 0.6562,
          "velocity": 100
        },
        {
          "pitch": 71,
          "onset": 66.6562,
          "duration": 0.6562,
          "velocity": 100
        },
        {
          "pitch": 54,
          "onset": 67.3438,
          "duration": 0.6562,
          "velocity": 100
        },
        {
          "pitch": 69,
          "onset": 67.3438,
          "duration": 1.3125,
          "velocity": 100
        },
        {
          "pitch": 52,
          "onset": 68.0,
          "duration": 0.6562,
          "velocity": 100
        },
        {
          "pitch": 68,
          "onset": 68.0,
          "duration": 0.6562,
          "velocity": 100
        },
        {
          "pitch": 54,
          "onset": 68.6562,
          "duration": 0.6562,
          "velocity": 100
        },
        {
          "pitch": 69,
          "onset": 68.6562,
          "duration": 1.3125,
          "velocity": 100
        },
        {
          "pitch": 50,
          "onset": 69.3438,
          "duration": 0.6562,
          "velocity": 100
        },
        {
          "pitch": 66,
          "onset": 69.3438,
          "duration": 0.6562,
          "velocity": 100
        },
        {
          "pitch": 52,
          "onset": 70.0,
          "duration": 1.0,
          "velocity": 100
        },
        {
          "pitch": 64,
          "onset": 70.0,
          "duration": 0.6562,
          "velocity": 100
        },
        {
          "pitch": 66,
          "onset": 70.6562,
          "duration": 0.6562,
          "velocity": 100
        },
        {
          "pitch": 53,
          "onset": 71.0,
          "duration": 1.0,
          "velocity": 100
        },
        {
          "pitch": 62,
          "onset": 71.3438,
          "duration": 0.6562,
          "velocity": 100
        },
        {
          "pitch": 54,
          "onset": 72.0,
          "duration": 0.6562,
          "velocity": 100
        },
        {
          "pitch": 61,
          "onset": 72.0,
          "duration": 1.0,
          "velocity": 100
        },
        {
          "pitch": 69,
          "onset": 72.0,
          "duration": 1.9688,
          "velocity": 100
        },
        {
          "pitch": 59,
          "onset": 72.6562,
          "duration": 0.6562,
          "velocity": 100
        },
        {
          "pitch": 61,
          "onset": 73.0,
          "duration": 1.0,
          "velocity": 100
        },
        {
          "pitch": 57,
          "onset": 73.3438,
          "duration": 0.6562,
          "velocity": 100
        },
        {
          "pitch": 56,
          "onset": 74.0,
          "duration": 0.6562,
          "velocity": 100
        },
        {
          "pitch": 62,
          "onset": 74.0,
          "duration": 0.6562,
          "velocity": 100
        },
        {
          "pitch": 71,
          "onset": 74.0,
          "duration": 1.9688,
          "velocity": 100
        },
        {
          "pitch": 57,
          "onset": 74.6562,
          "duration": 0.6562,
          "velocity": 100
        },
        {
          "pitch": 61,
          "onset": 74.6562,
          "duration": 0.6562,
          "velocity": 100
        },
        {
          "pitch": 54,
          "onset": 75.3438,
          "duration": 0.6562,
          "velocity": 100
        },
        {
          "pitch": 62,
          "onset": 75.3438,
          "duration": 0.6562,
          "velocity": 100
        },
        {
          "pitch": 52,
          "onset": 76.0,
          "duration": 0.6562,
          "velocity": 100
        },
        {
          "pitch": 64,
          "onset": 76.0,
          "duration": 0.6562,
          "velocity": 100
        },
        {
          "pitch": 71,
          "onset": 76.0,
          "duration": 1.9688,
          "velocity": 100
        },
        {
          "pitch": 54,
          "onset": 76.6562,
          "duration": 0.6562,
          "velocity": 100
        },
        {
          "pitch": 62,
          "onset": 76.6562,
          "duration": 0.6562,
          "velocity": 100
        },
        {
          "pitch": 50,
          "onset": 77.3438,
          "duration": 0.6562,
          "velocity": 100
        },
        {
          "pitch": 64,
          "onset": 77.3438,
          "duration": 0.6562,
          "velocity": 100
        },
        {
          "pitch": 49,
          "onset": 78.0,
          "duration": 1.0,
          "velocity": 100
        },
        {
          "pitch": 57,
          "onset": 78.0,
          "duration": 0.6562,
          "velocity": 100
        },
        {
          "pitch": 73,
          "onset": 78.0,
          "duration": 1.9688,
          "velocity": 100
        },
        {
          "pitch": 64,
          "onset": 78.6562,
          "duration": 0.6562,
          "velocity": 100
        },
        {
          "pitch": 49,
          "onset": 79.0,
          "duration": 1.0,
          "velocity": 100
        },
        {
          "pitch": 69,
          "onset": 79.3438,
          "duration": 1.3125,
          "velocity": 100
        },
        {
          "pitch": 50,
          "onset": 80.0,
          "duration": 0.6562,
          "velocity": 100
        },
        {
          "pitch": 71,
          "onset": 80.0,
          "duration": 0.6562,
          "velocity": 100
        },
        {
          "pitch": 49,
          "onset": 80.6562,
          "duration": 0.6562,
          "velocity": 100
        },
        {
          "pitch": 71,
          "onset": 80.6562,
          "duration": 3.3125,
          "velocity": 100
        },
        {
          "pitch": 50,
          "onset": 81.3438,
          "duration": 0.6562,
          "velocity": 100
        },
        {
          "pitch": 69,
          "onset": 81.3438,
          "duration": 0.6562,
          "velocity": 100
        },
        {
          "pitch": 52,
          "onset": 82.0,
          "duration": 0.6562,
          "velocity": 100
        },
        {
          "pitch": 68,
          "onset": 82.0,
          "duration": 0.6562,
          "velocity": 100
        },
        {
          "pitch": 50,
          "onset": 82.6562,
          "duration": 0.6562,
          "velocity": 100
        },
        {
          "pitch": 66,
          "onset": 82.6562,
          "duration": 0.6562,
          "velocity": 100
        },
        {
          "pitch": 52,
          "onset": 83.3438,
          "duration": 0.6562,
          "velocity": 100
        },
        {
          "pitch": 68,
          "onset": 83.3438,
          "duration": 0.6562,
          "velocity": 100
        },
        {
          "pitch": 45,
          "onset": 84.0,
          "duration": 0.6562,
          "velocity": 100
        },
        {
          "pitch": 69,
          "onset": 84.0,
          "duration": 3.9688,
          "velocity": 100
        },
        {
          "pitch": 52,
          "onset": 84.6562,
          "duration": 0.6562,
          "velocity": 100
        },
        {
          "pitch": 71,
          "onset": 84.6562,
          "duration": 0.6562,
          "velocity": 100
        },
        {
          "pitch": 57,
          "onset": 85.3438,
          "duration": 1.3125,
          "velocity": 100
        },
        {
          "pitch": 68,
          "onset": 85.3438,
          "duration": 0.6562,
          "velocity": 100
        },
        {
          "pitch": 66,
          "onset": 86.0,
          "duration": 0.6562,
          "velocity": 100
        },
        {
          "pitch": 59,
          "onset": 86.6562,
          "duration": 0.6562,
          "velocity": 100
        },
        {
          "pitch": 68,
          "onset": 86.6562,
          "duration": 0.6562,
          "velocity": 100
        },
        {
          "pitch": 57,
          "onset": 87.3438,
          "duration": 0.6562,
          "velocity": 100
        },
        {
          "pitch": 66,
          "onset": 87.3438,
          "duration": 0.6562,
          "velocity": 100
        },
        {
          "pitch": 56,
          "onset": 88.0,
          "duration": 0.6562,
          "velocity": 100
        },
        {
          "pitch": 64,
          "onset": 88.0,
          "duration": 0.6562,
          "velocity": 100
        },
        {
          "pitch": 71,
          "onset": 88.0,
          "duration": 1.9688,
          "velocity": 100
        },
        {
          "pitch": 54,
          "onset": 88.6562,
          "duration": 0.6562,
          "velocity": 100
        },
        {
          "pitch": 66,
          "onset": 88.6562,
          "duration": 0.6562,
          "velocity": 100
        },
        {
          "pitch": 56,
          "onset": 89.3438,
          "duration": 0.6562,
          "velocity": 100
        },
        {
          "pitch": 62,
          "onset": 89.3438,
          "duration": 0.6562,
          "velocity": 100
        },
        {
          "pitch": 57,
          "onset": 90.0,
          "duration": 0.6562,
          "velocity": 100
        },
        {
          "pitch": 61,
          "onset": 90.0,
          "duration": 1.0,
          "velocity": 100
        },
        {
          "pitch": 73,
          "onset": 90.0,
          "duration": 3.9688,
          "velocity": 100
        },
        {
          "pitch": 59,
          "onset": 90.6562,
          "duration": 0.6562,
          "velocity": 100
        },
        {
          "pitch": 64,
          "onset": 91.0,
          "duration": 1.0,
          "velocity": 100
        },
        {
          "pitch": 56,
          "onset": 91.3438,
          "duration": 0.6562,
          "velocity": 100
        },
        {
          "pitch": 54,
          "onset": 92.0,
          "duration": 0.6562,
          "velocity": 100
        },
        {
          "pitch": 57,
          "onset": 92.0,
          "duration": 1.0,
          "velocity": 100
        },
        {
          "pitch": 56,
          "onset": 92.6562,
          "duration": 0.6562,
          "velocity": 100
        },
        {
          "pitch": 69,
          "onset": 93.0,
          "duration": 1.9688,
          "velocity": 100
        },
        {
          "pitch": 54,
          "onset": 93.3438,
          "duration": 0.6562,
          "velocity": 100
        },
        {
          "pitch": 52,
          "onset": 94.0,
          "duration": 0.6562,
          "velocity": 100
        },
        {
          "pitch": 54,
          "onset": 94.6562,
          "duration": 0.6562,
          "velocity": 100
        },
        {
          "pitch": 68,
          "onset": 95.0,
          "duration": 1.0,
          "velocity": 100
        },
        {
          "pitch": 50,
          "onset": 95.3438,
          "duration": 0.6562,
          "velocity": 100
        },
        {
          "pitch": 49,
          "onset": 96.0,
          "duration": 1.0,
          "velocity": 100
        },
        {
          "pitch": 69,
          "onset": 96.0,
          "duration": 0.6562,
          "velocity": 100
        },
        {
          "pitch": 76,
          "onset": 96.0,
          "duration": 3.9688,
          "velocity": 100
        },
        {
          "pitch": 64,
          "onset": 96.6562,
          "duration": 0.6562,
          "velocity": 100
        },
        {
          "pitch": 52,
          "onset": 97.0,
          "duration": 1.0,
          "velocity": 100
        },
        {
          "pitch": 68,
          "onset": 97.3438,
          "duration": 0.6562,
          "velocity": 100
        },
        {
          "pitch": 45,
          "onset": 98.0,
          "duration": 1.0,
          "velocity": 100
        },
        {
          "pitch": 69,
          "onset": 98.0,
          "duration": 0.6562,
          "velocity": 100
        },
        {
          "pitch": 71,
          "onset": 98.6562,
          "duration": 0.6562,
          "velocity": 100
        },
        {
          "pitch": 57,
          "onset": 99.0,
          "duration": 1.9688,
          "velocity": 100
        },
        {
          "pitch": 73,
          "onset": 99.3438,
          "duration": 0.6562,
          "velocity": 100
        },
        {
          "pitch": 74,
          "onset": 100.0,
          "duration": 0.6562,
          "velocity": 100
        },
        {
          "pitch": 78,
          "onset": 100.0,
          "duration": 1.9688,
          "velocity": 100
        },
        {
          "pitch": 73,
          "onset": 100.6562,
          "duration": 0.6562,
          "velocity": 100
        },
        {
          "pitch": 56,
          "onset": 101.0,
          "duration": 1.0,
          "velocity": 100
        },
        {
          "pitch": 74,
          "onset": 101.3438,
          "duration": 0.6562,
          "velocity": 100
        },
        {
          "pitch": 57,
          "onset": 102.0,
          "duration": 0.6562,
          "velocity": 100
        },
        {
          "pitch": 73,
          "onset": 102.0,
          "duration": 0.6562,
          "velocity": 100
        },
        {
          "pitch": 76,
          "onset": 102.0,
          "duration": 0.6562,
          "velocity": 100
        },
        {
          "pitch": 52,
          "onset": 102.6562,
          "duration": 0.6562,
          "velocity": 100
        },
        {
          "pitch": 76,
          "onset": 102.6562,
          "duration": 3.3125,
          "velocity": 100
        },
        {
          "pitch": 56,
          "onset": 103.3438,
          "duration": 0.6562,
          "velocity": 100
        },
        {
          "pitch": 74,
          "onset": 103.3438,
          "duration": 0.6562,
          "velocity": 100
        },
        {
          "pitch": 57,
          "onset": 104.0,
          "duration": 0.6562,
          "velocity": 100
        },
        {
          "pitch": 73,
          "onset": 104.0,
          "duration": 0.6562,
          "velocity": 100
        },
        {
          "pitch": 59,
          "onset": 104.6562,
          "duration": 0.6562,
          "velocity": 100
        },
        {
          "pitch": 74,
          "onset": 104.6562,
          "duration": 0.6562,
          "velocity": 100
        },
        {
          "pitch": 61,
          "onset": 105.3438,
          "duration": 0.6562,
          "velocity": 100
        },
        {
          "pitch": 71,
          "onset": 105.3438,
          "duration": 0.6562,
          "velocity": 100
        },
        {
          "pitch": 62,
          "onset": 106.0,
          "duration": 0.6562,
          "velocity": 100
        },
        {
          "pitch": 69,
          "onset": 106.0,
          "duration": 0.6562,
          "velocity": 100
        },
        {
          "pitch": 74,
          "onset": 106.0,
          "duration": 1.9688,
          "velocity": 100
        },
        {
          "pitch": 61,
          "onset": 106.6562,
          "duration": 0.6562,
          "velocity": 100
        },
        {
          "pitch": 71,
          "onset": 106.6562,
          "duration": 0.6562,
          "velocity": 100
        },
        {
          "pitch": 62,
          "onset": 107.3438,
          "duration": 0.6562,
          "velocity": 100
        },
        {
          "pitch": 68,
          "onset": 107.3438,
          "duration": 0.6562,
          "velocity": 100
        },
        {
          "pitch": 57,
          "onset": 108.0,
          "duration": 0.6562,
          "velocity": 100
        },
        {
          "pitch": 69,
          "onset": 108.0,
          "duration": 0.6562,
          "velocity": 100
        },
        {
          "pitch": 73,
          "onset": 108.0,
          "duration": 2.9688,
          "velocity": 100
        },
        {
          "pitch": 64,
          "onset": 108.6562,
          "duration": 0.6562,
          "velocity": 100
        },
        {
          "pitch": 68,
          "onset": 108.6562,
          "duration": 0.6562,
          "velocity": 100
        },
        {
          "pitch": 62,
          "onset": 109.3438,
          "duration": 0.6562,
          "velocity": 100
        },
        {
          "pitch": 66,
          "onset": 109.3438,
          "duration": 0.6562,
          "velocity": 100
        },
        {
          "pitch": 61,
          "onset": 110.0,
          "duration": 0.6562,
          "velocity": 100
        },
        {
          "pitch": 64,
          "onset": 110.0,
          "duration": 0.6562,
          "velocity": 100
        },
        {
          "pitch": 62,
          "onset": 110.6562,
          "duration": 0.6562,
          "velocity": 100
        },
        {
          "pitch": 66,
          "onset": 110.6562,
          "duration": 0.6562,
          "velocity": 100
        },
        {
          "pitch": 74,
          "onset": 111.0,
          "duration": 1.0,
          "velocity": 100
        },
        {
          "pitch": 59,
          "onset": 111.3438,
          "duration": 0.6562,
          "velocity": 100
        },
        {
          "pitch": 62,
          "onset": 111.3438,
          "duration": 0.6562,
          "velocity": 100
        },
        {
          "pitch": 57,
          "onset": 112.0,
          "duration": 0.6562,
          "velocity": 100
        },
        {
          "pitch": 64,
          "onset": 112.0,
          "duration": 1.0,
          "velocity": 100
        },
        {
          "pitch": 73,
          "onset": 112.0,
          "duration": 1.0,
          "velocity": 100
        },
        {
          "pitch": 59,
          "onset": 112.6562,
          "duration": 0.6562,
          "velocity": 100
        },
        {
          "pitch": 65,
          "onset": 113.0,
          "duration": 1.0,
          "velocity": 100
        },
        {
          "pitch": 71,
          "onset": 113.0,
          "duration": 1.0,
          "velocity": 100
        },
        {
          "pitch": 56,
          "onset": 113.3438,
          "duration": 0.6562,
          "velocity": 100
        },
        {
          "pitch": 57,
          "onset": 114.0,
          "duration": 0.6562,
          "velocity": 100
        },
        {
          "pitch": 66,
          "onset": 114.0,
          "duration": 0.6562,
          "velocity": 100
        },
        {
          "pitch": 69,
          "onset": 114.0,
          "duration": 1.3125,
          "velocity": 100
        },
        {
          "pitch": 56,
          "onset": 114.6562,
          "duration": 0.6562,
          "velocity": 100
        },
        {
          "pitch": 71,
          "onset": 114.6562,
          "duration": 0.6562,
          "velocity": 100
        },
        {
          "pitch": 54,
          "onset": 115.3438,
          "duration": 0.6562,
          "velocity": 100
        },
        {
          "pitch": 69,
          "onset": 115.3438,
          "duration": 1.3125,
          "velocity": 100
        },
        {
          "pitch": 52,
          "onset": 116.0,
          "duration": 0.6562,
          "velocity": 100
        },
        {
          "pitch": 68,
          "onset": 116.0,
          "duration": 0.6562,
          "velocity": 100
        },
        {
          "pitch": 54,
          "onset": 116.6562,
          "duration": 0.6562,
          "velocity": 100
        },
        {
          "pitch": 69,
          "onset": 116.6562,
          "duration": 1.3125,
          "velocity": 100
        },
        {
          "pitch": 50,
          "onset": 117.3438,
          "duration": 0.6562,
          "velocity": 100
        },
        {
          "pitch": 66,
          "onset": 117.3438,
          "duration": 0.6562,
          "velocity": 100
        },
        {
          "pitch": 52,
          "onset": 118.0,
          "duration": 1.0,
          "velocity": 100
        },
        {
          "pitch": 64,
          "onset": 118.0,
          "duration": 0.6562,
          "velocity": 100
        },
        {
          "pitch": 66,
          "onset": 118.6562,
          "duration": 0.6562,
          "velocity": 100
        },
        {
          "pitch": 53,
          "onset": 119.0,
          "duration": 1.0,
          "velocity": 100
        },
        {
          "pitch": 62,
          "onset": 119.3438,
          "duration": 0.6562,
          "velocity": 100
        },
        {
          "pitch": 54,
          "onset": 120.0,
          "duration": 0.6562,
          "velocity": 100
        },
        {
          "pitch": 61,
          "onset": 120.0,
          "duration": 1.0,
          "velocity": 100
        },
        {
          "pitch": 69,
          "onset": 120.0,
          "duration": 1.9688,
          "velocity": 100
        },
        {
          "pitch": 59,
          "onset": 120.6562,
          "duration": 0.6562,
          "velocity": 100
        },
        {
          "pitch": 61,
          "onset": 121.0,
          "duration": 1.0,
          "velocity": 100
        },
        {
          "pitch": 57,
          "onset": 121.3438,
          "duration": 0.6562,
          "velocity": 100
        },
        {
          "pitch": 56,
          "onset": 122.0,
          "duration": 0.6562,
          "velocity": 100
        },
        {
          "pitch": 62,
          "onset": 122.0,
          "duration": 0.6562,
          "velocity": 100
        },
        {
          "pitch": 71,
          "onset": 122.0,
          "duration": 1.9688,
          "velocity": 100
        },
        {
          "pitch": 57,
          "onset": 122.6562,
          "duration": 0.6562,
          "velocity": 100
        },
        {
          "pitch": 61,
          "onset": 122.6562,
          "duration": 0.6562,
          "velocity": 100
        },
        {
          "pitch": 54,
          "onset": 123.3438,
          "duration": 0.6562,
          "velocity": 100
        },
        {
          "pitch": 62,
          "onset": 123.3438,
          "duration": 0.6562,
          "velocity": 100
        },
        {
          "pitch": 52,
          "onset": 124.0,
          "duration": 0.6562,
          "velocity": 100
        },
        {
          "pitch": 64,
          "onset": 124.0,
          "duration": 0.6562,
          "velocity": 100
        },
        {
          "pitch": 71,
          "onset": 124.0,
          "duration": 1.9688,
          "velocity": 100
        },
        {
          "pitch": 54,
          "onset": 124.6562,
          "duration": 0.6562,
          "velocity": 100
        },
        {
          "pitch": 62,
          "onset": 124.6562,
          "duration": 0.6562,
          "velocity": 100
        },
        {
          "pitch": 50,
          "onset": 125.3438,
          "duration": 0.6562,
          "velocity": 100
        },
        {
          "pitch": 64,
          "onset": 125.3438,
          "duration": 0.6562,
          "velocity": 100
        },
        {
          "pitch": 49,
          "onset": 126.0,
          "duration": 1.0,
          "velocity": 100
        },
        {
          "pitch": 57,
          "onset": 126.0,
          "duration": 0.6562,
          "velocity": 100
        },
        {
          "pitch": 73,
          "onset": 126.0,
          "duration": 1.9688,
          "velocity": 100
        },
        {
          "pitch": 64,
          "onset": 126.6562,
          "duration": 0.6562,
          "velocity": 100
        },
        {
          "pitch": 49,
          "onset": 127.0,
          "duration": 1.0,
          "velocity": 100
        },
        {
          "pitch": 69,
          "onset": 127.3438,
          "duration": 1.3125,
          "velocity": 100
        },
        {
          "pitch": 50,
          "onset": 128.0,
          "duration": 0.6562,
          "velocity": 100
        },
        {
          "pitch": 71,
          "onset": 128.0,
          "duration": 0.6562,
          "velocity": 100
        },
        {
          "pitch": 49,
          "onset": 128.6562,
          "duration": 0.6562,
          "velocity": 100
        },
        {
          "pitch": 71,
          "onset": 128.6562,
          "duration": 3.3125,
          "velocity": 100
        },
        {
          "pitch": 50,
          "onset": 129.3438,
          "duration": 0.6562,
          "velocity": 100
        },
        {
          "pitch": 69,
          "onset": 129.3438,
          "duration": 0.6562,
          "velocity": 100
        },
        {
          "pitch": 52,
          "onset": 130.0,
          "duration": 0.6562,
          "velocity": 100
        },
        {
          "pitch": 68,
          "onset": 130.0,
          "duration": 0.6562,
          "velocity": 100
        },
        {
          "pitch": 50,
          "onset": 130.6562,
          "duration": 0.6562,
          "velocity": 100
        },
        {
          "pitch": 66,
          "onset": 130.6562,
          "duration": 0.6562,
          "velocity": 100
        },
        {
          "pitch": 52,
          "onset": 131.3438,
          "duration": 0.6562,
          "velocity": 100
        },
        {
          "pitch": 68,
          "onset": 131.3438,
          "duration": 0.6562,
          "velocity": 100
        },
        {
          "pitch": 45,
          "onset": 132.0,
          "duration": 0.6562,
          "velocity": 100
        },
        {
          "pitch": 69,
          "onset": 132.0,
          "duration": 3.9688,
          "velocity": 100
        },
        {
          "pitch": 52,
          "onset": 132.6562,
          "duration": 0.6562,
          "velocity": 100
        },
        {
          "pitch": 71,
          "onset": 132.6562,
          "duration": 0.6562,
          "velocity": 100
        },
        {
          "pitch": 57,
          "onset": 133.3438,
          "duration": 1.3125,
          "velocity": 100
        },
        {
          "pitch": 68,
          "onset": 133.3438,
          "duration": 0.6562,
          "velocity": 100
        },
        {
          "pitch": 66,
          "onset": 134.0,
          "duration": 0.6562,
          "velocity": 100
        },
        {
          "pitch": 59,
          "onset": 134.6562,
          "duration": 0.6562,
          "velocity": 100
        },
        {
          "pitch": 68,
          "onset": 134.6562,
          "duration": 0.6562,
          "velocity": 100
        },
        {
          "pitch": 57,
          "onset": 135.3438,
          "duration": 0.6562,
          "velocity": 100
        },
        {
          "pitch": 66,
          "onset": 135.3438,
          "duration": 0.6562,
          "velocity": 100
        },
        {
          "pitch": 56,
          "onset": 136.0,
          "duration": 0.6562,
          "velocity": 100
        },
        {
          "pitch": 64,
          "onset": 136.0,
          "duration": 0.6562,
          "velocity": 100
        },
        {
          "pitch": 71,
          "onset": 136.0,
          "duration": 1.9688,
          "velocity": 100
        },
        {
          "pitch": 54,
          "onset": 136.6562,
          "duration": 0.6562,
          "velocity": 100
        },
        {
          "pitch": 66,
          "onset": 136.6562,
          "duration": 0.6562,
          "velocity": 100
        },
        {
          "pitch": 56,
          "onset": 137.3438,
          "duration": 0.6562,
          "velocity": 100
        },
        {
          "pitch": 62,
          "onset": 137.3438,
          "duration": 0.6562,
          "velocity": 100
        },
        {
          "pitch": 57,
          "onset": 138.0,
          "duration": 0.6562,
          "velocity": 100
        },
        {
          "pitch": 61,
          "onset": 138.0,
          "duration": 0.6562,
          "velocity": 100
        },
        {
          "pitch": 73,
          "onset": 138.0,
          "duration": 1.9688,
          "velocity": 100
        },
        {
          "pitch": 59,
          "onset": 138.6562,
          "duration": 0.6562,
          "velocity": 100
        },
        {
          "pitch": 62,
          "onset": 138.6562,
          "duration": 0.6562,
          "velocity": 100
        },
        {
          "pitch": 56,
          "onset": 139.3438,
          "duration": 0.6562,
          "velocity": 100
        },
        {
          "pitch": 64,
          "onset": 139.3438,
          "duration": 0.6562,
          "velocity": 100
        },
        {
          "pitch": 54,
          "onset": 140.0,
          "duration": 0.6562,
          "velocity": 100
        },
        {
          "pitch": 66,
          "onset": 140.0,
          "duration": 0.6562,
          "velocity": 100
        },
        {
          "pitch": 56,
          "onset": 140.6562,
          "duration": 0.6562,
          "velocity": 100
        },
        {
          "pitch": 64,
          "onset": 140.6562,
          "duration": 0.6562,
          "velocity": 100
        },
        {
          "pitch": 54,
          "onset": 141.3438,
          "duration": 0.6562,
          "velocity": 100
        },
        {
          "pitch": 66,
          "onset": 141.3438,
          "duration": 0.6562,
          "velocity": 100
        },
        {
          "pitch": 52,
          "onset": 142.0,
          "duration": 0.6562,
          "velocity": 100
        },
        {
          "pitch": 68,
          "onset": 142.0,
          "duration": 0.6562,
          "velocity": 100
        },
        {
          "pitch": 54,
          "onset": 142.6562,
          "duration": 0.6562,
          "velocity": 100
        },
        {
          "pitch": 66,
          "onset": 142.6562,
          "duration": 0.6562,
          "velocity": 100
        },
        {
          "pitch": 51,
          "onset": 143.3438,
          "duration": 0.6562,
          "velocity": 100
        },
        {
          "pitch": 68,
          "onset": 143.3438,
          "duration": 0.6562,
          "velocity": 100
        },
        {
          "pitch": 52,
          "onset": 144.0,
          "duration": 0.6562,
          "velocity": 100
        },
        {
          "pitch": 58,
          "onset": 144.0,
          "duration": 1.3125,
          "velocity": 100
        },
        {
          "pitch": 66,
          "onset": 144.0,
          "duration": 3.9688,
          "velocity": 100
        },
        {
          "pitch": 54,
          "onset": 144.6562,
          "duration": 0.6562,
          "velocity": 100
        },
        {
          "pitch": 52,
          "onset": 145.3438,
          "duration": 0.6562,
          "velocity": 100
        },
        {
          "pitch": 58,
          "onset": 145.3438,
          "duration": 0.6562,
          "velocity": 100
        },
        {
          "pitch": 50,
          "onset": 146.0,
          "duration": 0.6562,
          "velocity": 100
        },
        {
          "pitch": 59,
          "onset": 146.0,
          "duration": 1.3125,
          "velocity": 100
        },
        {
          "pitch": 52,
          "onset": 146.6562,
          "duration": 0.6562,
          "velocity": 100
        },
        {
          "pitch": 49,
          "onset": 147.3438,
          "duration": 0.6562,
          "velocity": 100
        },
        {
          "pitch": 61,
          "onset": 147.3438,
          "duration": 0.6562,
          "velocity": 100
        },
        {
          "pitch": 47,
          "onset": 148.0,
          "duration": 0.6562,
          "velocity": 100
        },
        {
          "pitch": 62,
          "onset": 148.0,
          "duration": 0.6562,
          "velocity": 100
        },
        {
          "pitch": 66,
          "onset": 148.0,
          "duration": 1.9688,
          "velocity": 100
        },
        {
          "pitch": 49,
          "onset": 148.6562,
          "duration": 0.6562,
          "velocity": 100
        },
        {
          "pitch": 64,
          "onset": 148.6562,
          "duration": 0.6562,
          "velocity": 100
        },
        {
          "pitch": 45,
          "onset": 149.3438,
          "duration": 0.6562,
          "velocity": 100
        },
        {
          "pitch": 61,
          "onset": 149.3438,
          "duration": 0.6562,
          "velocity": 100
        },
        {
          "pitch": 40,
          "onset": 150.0,
          "duration": 0.6562,
          "velocity": 100
        },
        {
          "pitch": 62,
          "onset": 150.0,
          "duration": 1.3125,
          "velocity": 100
        },
        {
          "pitch": 68,
          "onset": 150.0,
          "duration": 3.9688,
          "velocity": 100
        },
        {
          "pitch": 52,
          "onset": 150.6562,
          "duration": 0.6562,
          "velocity": 100
        },
        {
          "pitch": 50,
          "onset": 151.3438,
          "duration": 0.6562,
          "velocity": 100
        },
        {
          "pitch": 59,
          "onset": 151.3438,
          "duration": 0.6562,
          "velocity": 100
        },
        {
          "pitch": 49,
          "onset": 152.0,
          "duration": 0.6562,
          "velocity": 100
        },
        {
          "pitch": 64,
          "onset": 152.0,
          "duration": 0.6562,
          "velocity": 100
        },
        {
          "pitch": 50,
          "onset": 152.6562,
          "duration": 0.6562,
          "velocity": 100
        },
        {
          "pitch": 66,
          "onset": 152.6562,
          "duration": 0.6562,
          "velocity": 100
        },
        {
          "pitch": 47,
          "onset": 153.3438,
          "duration": 0.6562,
          "velocity": 100
        },
        {
          "pitch": 62,
          "onset": 153.3438,
          "duration": 0.6562,
          "velocity": 100
        },
        {
          "pitch": 45,
          "onset": 154.0,
          "duration": 0.6562,
          "velocity": 100
        },
        {
          "pitch": 61,
          "onset": 154.0,
          "duration": 0.6562,
          "velocity": 100
        },
        {
          "pitch": 68,
          "onset": 154.0,
          "duration": 1.9688,
          "velocity": 100
        },
        {
          "pitch": 47,
          "onset": 154.6562,
          "duration": 0.6562,
          "velocity": 100
        },
        {
          "pitch": 62,
          "onset": 154.6562,
          "duration": 0.6562,
          "velocity": 100
        },
        {
          "pitch": 44,
          "onset": 155.3438,
          "duration": 0.6562,
          "velocity": 100
        },
        {
          "pitch": 59,
          "onset": 155.3438,
          "duration": 0.6562,
          "velocity": 100
        },
        {
          "pitch": 42,
          "onset": 156.0,
          "duration": 0.6562,
          "velocity": 100
        },
        {
          "pitch": 61,
          "onset": 156.0,
          "duration": 1.0,
          "velocity": 100
        },
        {
          "pitch": 69,
          "onset": 156.0,
          "duration": 2.9688,
          "velocity": 100
        },
        {
          "pitch": 54,
          "onset": 156.6562,
          "duration": 0.6562,
          "velocity": 100
        },
        {
          "pitch": 61,
          "onset": 157.0,
          "duration": 1.0,
          "velocity": 100
        },
        {
          "pitch": 52,
          "onset": 157.3438,
          "duration": 0.6562,
          "velocity": 100
        },
        {
          "pitch": 50,
          "onset": 158.0,
          "duration": 0.6562,
          "velocity": 100
        },
        {
          "pitch": 66,
          "onset": 158.0,
          "duration": 1.0,
          "velocity": 100
        },
        {
          "pitch": 52,
          "onset": 158.6562,
          "duration": 0.6562,
          "velocity": 100
        },
        {
          "pitch": 68,
          "onset": 159.0,
          "duration": 1.0,
          "velocity": 100
        },
        {
          "pitch": 71,
          "onset": 159.0,
          "duration": 1.0,
          "velocity": 100
        },
        {
          "pitch": 49,
          "onset": 159.3438,
          "duration": 0.6562,
          "velocity": 100
        },
        {
          "pitch": 47,
          "onset": 160.0,
          "duration": 0.6562,
          "velocity": 100
        },
        {
          "pitch": 69,
          "onset": 160.0,
          "duration": 1.0,
          "velocity": 100
        },
        {
          "pitch": 73,
          "onset": 160.0,
          "duration": 1.0,
          "velocity": 100
        },
        {
          "pitch": 49,
          "onset": 160.6562,
          "duration": 0.6562,
          "velocity": 100
        },
        {
          "pitch": 71,
          "onset": 161.0,
          "duration": 2.3125,
          "velocity": 100
        },
        {
          "pitch": 74,
          "onset": 161.0,
          "duration": 1.0,
          "velocity": 100
        },
        {
          "pitch": 45,
          "onset": 161.3438,
          "duration": 0.6562,
          "velocity": 100
        },
        {
          "pitch": 44,
          "onset": 162.0,
          "duration": 0.6562,
          "velocity": 100
        },
        {
          "pitch": 76,
          "onset": 162.0,
          "duration": 5.9688,
          "velocity": 100
        },
        {
          "pitch": 56,
          "onset": 162.6562,
          "duration": 0.6562,
          "velocity": 100
        },
        {
          "pitch": 54,
          "onset": 163.3438,
          "duration": 0.6562,
          "velocity": 100
        },
        {
          "pitch": 69,
          "onset": 163.3438,
          "duration": 0.6562,
          "velocity": 100
        },
        {
          "pitch": 52,
          "onset": 164.0,
          "duration": 0.6562,
          "velocity": 100
        },
        {
          "pitch": 68,
          "onset": 164.0,
          "duration": 0.6562,
          "velocity": 100
        },
        {
          "pitch": 54,
          "onset": 164.6562,
          "duration": 0.6562,
          "velocity": 100
        },
        {
          "pitch": 69,
          "onset": 164.6562,
          "duration": 0.6562,
          "velocity": 100
        },
        {
          "pitch": 50,
          "onset": 165.3438,
          "duration": 0.6562,
          "velocity": 100
        },
        {
          "pitch": 66,
          "onset": 165.3438,
          "duration": 0.6562,
          "velocity": 100
        },
        {
          "pitch": 49,
          "onset": 166.0,
          "duration": 0.6562,
          "velocity": 100
        },
        {
          "pitch": 64,
          "onset": 166.0,
          "duration": 2.6562,
          "velocity": 100
        },
        {
          "pitch": 50,
          "onset": 166.6562,
          "duration": 0.6562,
          "velocity": 100
        },
        {
          "pitch": 47,
          "onset": 167.3438,
          "duration": 0.6562,
          "velocity": 100
        },
        {
          "pitch": 45,
          "onset": 168.0,
          "duration": 1.9688,
          "velocity": 100
        },
        {
          "pitch": 73,
          "onset": 168.0,
          "duration": 0.6562,
          "velocity": 100
        },
        {
          "pitch": 73,
          "onset": 168.6562,
          "duration": 3.3125,
          "velocity": 100
        },
        {
          "pitch": 71,
          "onset": 169.3438,
          "duration": 0.6562,
          "velocity": 100
        },
        {
          "pitch": 52,
          "onset": 170.0,
          "duration": 1.9688,
          "velocity": 100
        },
        {
          "pitch": 69,
          "onset": 170.0,
          "duration": 0.6562,
          "velocity": 100
        },
        {
          "pitch": 71,
          "onset": 170.6562,
          "duration": 0.6562,
          "velocity": 100
        },
        {
          "pitch": 68,
          "onset": 171.3438,
          "duration": 0.6562,
          "velocity": 100
        },
        {
          "pitch": 57,
          "onset": 172.0,
          "duration": 2.6562,
          "velocity": 100
        },
        {
          "pitch": 66,
          "onset": 172.0,
          "duration": 0.6562,
          "velocity": 100
        },
        {
          "pitch": 73,
          "onset": 172.0,
          "duration": 1.9688,
          "velocity": 100
        },
        {
          "pitch": 68,
          "onset": 172.6562,
          "duration": 0.6562,
          "velocity": 100
        },
        {
          "pitch": 64,
          "onset": 173.3438,
          "duration": 0.6562,
          "velocity": 100
        },
        {
          "pitch": 62,
          "onset": 174.0,
          "duration": 1.3125,
          "velocity": 100
        },
        {
          "pitch": 71,
          "onset": 174.0,
          "duration": 3.9688,
          "velocity": 100
        },
        {
          "pitch": 59,
          "onset": 174.6562,
          "duration": 0.6562,
          "velocity": 100
        },
        {
          "pitch": 57,
          "onset": 175.3438,
          "duration": 0.6562,
          "velocity": 100
        },
        {
          "pitch": 59,
          "onset": 175.3438,
          "duration": 0.6562,
          "velocity": 100
        },
        {
          "pitch": 56,
          "onset": 176.0,
          "duration": 0.6562,
          "velocity": 100
        },
        {
          "pitch": 64,
          "onset": 176.0,
          "duration": 0.6562,
          "velocity": 100
        },
        {
          "pitch": 57,
          "onset": 176.6562,
          "duration": 0.6562,
          "velocity": 100
        },
        {
          "pitch": 66,
          "onset": 176.6562,
          "duration": 0.6562,
          "velocity": 100
        },
        {
          "pitch": 54,
          "onset": 177.3438,
          "duration": 0.6562,
          "velocity": 100
        },
        {
          "pitch": 62,
          "onset": 177.3438,
          "duration": 0.6562,
          "velocity": 100
        },
        {
          "pitch": 56,
          "onset": 178.0,
          "duration": 2.6562,
          "velocity": 100
        },
        {
          "pitch": 61,
          "onset": 178.0,
          "duration": 0.6562,
          "velocity": 100
        },
        {
          "pitch": 71,
          "onset": 178.0,
          "duration": 1.9688,
          "velocity": 100
        },
        {
          "pitch": 62,
          "onset": 178.6562,
          "duration": 0.6562,
          "velocity": 100
        },
        {
          "pitch": 59,
          "onset": 179.3438,
          "duration": 0.6562,
          "velocity": 100
        },
        {
          "pitch": 64,
          "onset": 180.0,
          "duration": 1.0,
          "velocity": 100
        },
        {
          "pitch": 69,
          "onset": 180.0,
          "duration": 2.6562,
          "velocity": 100
        },
        {
          "pitch": 57,
          "onset": 180.6562,
          "duration": 0.6562,
          "velocity": 100
        },
        {
          "pitch": 65,
          "onset": 181.0,
          "duration": 1.0,
          "velocity": 100
        },
        {
          "pitch": 56,
          "onset": 181.3438,
          "duration": 0.6562,
          "velocity": 100
        },
        {
          "pitch": 54,
          "onset": 182.0,
          "duration": 0.6562,
          "velocity": 100
        },
        {
          "pitch": 66,
          "onset": 182.0,
          "duration": 1.0,
          "velocity": 100
        },
        {
          "pitch": 56,
          "onset": 182.6562,
          "duration": 0.6562,
          "velocity": 100
        },
        {
          "pitch": 71,
          "onset": 182.6562,
          "duration": 0.6562,
          "velocity": 100
        },
        {
          "pitch": 68,
          "onset": 183.0,
          "duration": 1.0,
          "velocity": 100
        },
        {
          "pitch": 53,
          "onset": 183.3438,
          "duration": 0.6562,
          "velocity": 100
        },
        {
          "pitch": 73,
          "onset": 183.3438,
          "duration": 0.6562,
          "velocity": 100
        },
        {
          "pitch": 54,
          "onset": 184.0,
          "duration": 2.6562,
          "velocity": 100
        },
        {
          "pitch": 69,
          "onset": 184.0,
          "duration": 1.9688,
          "velocity": 100
        },
        {
          "pitch": 74,
          "onset": 184.0,
          "duration": 0.6562,
          "velocity": 100
        },
        {
          "pitch": 76,
          "onset": 184.6562,
          "duration": 0.6562,
          "velocity": 100
        },
        {
          "pitch": 78,
          "onset": 185.3438,
          "duration": 0.6562,
          "velocity": 100
        },
        {
          "pitch": 62,
          "onset": 186.0,
          "duration": 1.9688,
          "velocity": 100
        },
        {
          "pitch": 68,
          "onset": 186.0,
          "duration": 2.6562,
          "velocity": 100
        },
        {
          "pitch": 56,
          "onset": 186.6562,
          "duration": 0.6562,
          "velocity": 100
        },
        {
          "pitch": 54,
          "onset": 187.3438,
          "duration": 0.6562,
          "velocity": 100
        },
        {
          "pitch": 53,
          "onset": 188.0,
          "duration": 0.6562,
          "velocity": 100
        },
        {
          "pitch": 61,
          "onset": 188.0,
          "duration": 1.9688,
          "velocity": 100
        },
        {
          "pitch": 54,
          "onset": 188.6562,
          "duration": 0.6562,
          "velocity": 100
        },
        {
          "pitch": 69,
          "onset": 188.6562,
          "duration": 0.6562,
          "velocity": 100
        },
        {
          "pitch": 51,
          "onset": 189.3438,
          "duration": 0.6562,
          "velocity": 100
        },
        {
          "pitch": 71,
          "onset": 189.3438,
          "duration": 0.6562,
          "velocity": 100
        },
        {
          "pitch": 53,
          "onset": 190.0,
          "duration": 1.0,
          "velocity": 100
        },
        {
          "pitch": 68,
          "onset": 190.0,
          "duration": 1.9688,
          "velocity": 100
        },
        {
          "pitch": 73,
          "onset": 190.0,
          "duration": 0.6562,
          "velocity": 100
        },
        {
          "pitch": 75,
          "onset": 190.6562,
          "duration": 0.6562,
          "velocity": 100
        },
        {
          "pitch": 49,
          "onset": 191.0,
          "duration": 1.0,
          "velocity": 100
        },
        {
          "pitch": 77,
          "onset": 191.3438,
          "duration": 0.6562,
          "velocity": 100
        },
        {
          "pitch": 42,
          "onset": 192.0,
          "duration": 0.6562,
          "velocity": 100
        },
        {
          "pitch": 66,
          "onset": 192.0,
          "duration": 1.9688,
          "velocity": 100
        },
        {
          "pitch": 78,
          "onset": 192.0,
          "duration": 1.9688,
          "velocity": 100
        },
        {
          "pitch": 57,
          "onset": 192.6562,
          "duration": 0.6562,
          "velocity": 100
        },
        {
          "pitch": 55,
          "onset": 193.3438,
          "duration": 0.6562,
          "velocity": 100
        },
        {
          "pitch": 54,
          "onset": 194.0,
          "duration": 0.6562,
          "velocity": 100
        },
        {
          "pitch": 55,
          "onset": 194.6562,
          "duration": 0.6562,
          "velocity": 100
        },
        {
          "pitch": 69,
          "onset": 194.6562,
          "duration": 0.6562,
          "velocity": 100
        },
        {
          "pitch": 52,
          "onset": 195.3438,
          "duration": 0.6562,
          "velocity": 100
        },
        {
          "pitch": 67,
          "onset": 195.3438,
          "duration": 0.6562,
          "velocity": 100
        },
        {
          "pitch": 50,
          "onset": 196.0,
          "duration": 0.6562,
          "velocity": 100
        },
        {
          "pitch": 66,
          "onset": 196.0,
          "duration": 0.6562,
          "velocity": 100
        },
        {
          "pitch": 52,
          "onset": 196.6562,
          "duration": 0.6562,
          "velocity": 100
        },
        {
          "pitch": 67,
          "onset": 196.6562,
          "duration": 0.6562,
          "velocity": 100
        },
        {
          "pitch": 49,
          "onset": 197.3438,
          "duration": 0.6562,
          "velocity": 100
        },
        {
          "pitch": 64,
          "onset": 197.3438,
          "duration": 0.6562,
          "velocity": 100
        },
        {
          "pitch": 50,
          "onset": 198.0,
          "duration": 6.6562,
          "velocity": 100
        },
        {
          "pitch": 66,
          "onset": 198.0,
          "duration": 1.0,
          "velocity": 100
        },
        {
          "pitch": 81,
          "onset": 198.6562,
          "duration": 0.6562,
          "velocity": 100
        },
        {
          "pitch": 79,
          "onset": 199.3438,
          "duration": 0.6562,
          "velocity": 100
        },
        {
          "pitch": 78,
          "onset": 200.0,
          "duration": 0.6562,
          "velocity": 100
        },
        {
          "pitch": 79,
          "onset": 200.6562,
          "duration": 0.6562,
          "velocity": 100
        },
        {
          "pitch": 67,
          "onset": 201.0,
          "duration": 1.0,
          "velocity": 100
        },
        {
          "pitch": 76,
          "onset": 201.3438,
          "duration": 0.6562,
          "velocity": 100
        },
        {
          "pitch": 66,
          "onset": 202.0,
          "duration": 1.0,
          "velocity": 100
        },
        {
          "pitch": 74,
          "onset": 202.0,
          "duration": 0.6562,
          "velocity": 100
        },
        {
          "pitch": 76,
          "onset": 202.6562,
          "duration": 0.6562,
          "velocity": 100
        },
        {
          "pitch": 64,
          "onset": 203.0,
          "duration": 1.0,
          "velocity": 100
        },
        {
          "pitch": 73,
          "onset": 203.3438,
          "duration": 0.6562,
          "velocity": 100
        },
        {
          "pitch": 66,
          "onset": 204.0,
          "duration": 7.0,
          "velocity": 100
        },
        {
          "pitch": 74,
          "onset": 204.0,
          "duration": 6.6562,
          "velocity": 100
        },
        {
          "pitch": 52,
          "onset": 204.6562,
          "duration": 0.6562,
          "velocity": 100
        },
        {
          "pitch": 50,
          "onset": 205.3438,
          "duration": 0.6562,
          "velocity": 100
        },
        {
          "pitch": 49,
          "onset": 206.0,
          "duration": 0.6562,
          "velocity": 100
        },
        {
          "pitch": 50,
          "onset": 206.6562,
          "duration": 0.6562,
          "velocity": 100
        },
        {
          "pitch": 47,
          "onset": 207.3438,
          "duration": 0.6562,
          "velocity": 100
        },
        {
          "pitch": 45,
          "onset": 208.0,
          "duration": 0.6562,
          "velocity": 100
        },
        {
          "pitch": 47,
          "onset": 208.6562,
          "duration": 0.6562,
          "velocity": 100
        },
        {
          "pitch": 44,
          "onset": 209.3438,
          "duration": 0.6562,
          "velocity": 100
        },
        {
          "pitch": 45,
          "onset": 210.0,
          "duration": 13.9688,
          "velocity": 100
        },
        {
          "pitch": 76,
          "onset": 210.6562,
          "duration": 0.6562,
          "velocity": 100
        },
        {
          "pitch": 66,
          "onset": 211.0,
          "duration": 1.0,
          "velocity": 100
        },
        {
          "pitch": 74,
          "onset": 211.3438,
          "duration": 0.6562,
          "velocity": 100
        },
        {
          "pitch": 64,
          "onset": 212.0,
          "duration": 1.0,
          "velocity": 100
        },
        {
          "pitch": 73,
          "onset": 212.0,
          "duration": 0.6562,
          "velocity": 100
        },
        {
          "pitch": 74,
          "onset": 212.6562,
          "duration": 0.6562,
          "velocity": 100
        },
        {
          "pitch": 62,
          "onset": 213.0,
          "duration": 1.0,
          "velocity": 100
        },
        {
          "pitch": 71,
          "onset": 213.3438,
          "duration": 0.6562,
          "velocity": 100
        },
        {
          "pitch": 61,
          "onset": 214.0,
          "duration": 1.0,
          "velocity": 100
        },
        {
          "pitch": 69,
          "onset": 214.0,
          "duration": 0.6562,
          "velocity": 100
        },
        {
          "pitch": 71,
          "onset": 214.6562,
          "duration": 0.6562,
          "velocity": 100
        },
        {
          "pitch": 59,
          "onset": 215.0,
          "duration": 1.5,
          "velocity": 100
        },
        {
          "pitch": 68,
          "onset": 215.3438,
          "duration": 1.1562,
          "velocity": 100
        },
        {
          "pitch": 61,
          "onset": 216.5,
          "duration": 7.4688,
          "velocity": 100
        },
        {
          "pitch": 69,
          "onset": 216.5,
          "duration": 7.4688,
          "velocity": 100
        },
        {
          "pitch": 69,
          "onset": 228.25,
          "duration": 0.25,
          "velocity": 1
        }
      ]
    },
    {
      "role": "pedal",
      "notes": [
        {
          "pitch": 45,
          "onset": 6.0,
          "duration": 1.9688,
          "velocity": 100
        },
        {
          "pitch": 45,
          "onset": 8.0,
          "duration": 1.9688,
          "velocity": 100
        },
        {
          "pitch": 45,
          "onset": 10.0,
          "duration": 1.9688,
          "velocity": 100
        },
        {
          "pitch": 49,
          "onset": 12.0,
          "duration": 3.9688,
          "velocity": 100
        },
        {
          "pitch": 50,
          "onset": 16.0,
          "duration": 1.9688,
          "velocity": 100
        },
        {
          "pitch": 52,
          "onset": 18.0,
          "duration": 3.9688,
          "velocity": 100
        },
        {
          "pitch": 54,
          "onset": 22.0,
          "duration": 1.9688,
          "velocity": 100
        },
        {
          "pitch": 52,
          "onset": 24.0,
          "duration": 3.9688,
          "velocity": 100
        },
        {
          "pitch": 45,
          "onset": 30.0,
          "duration": 1.9688,
          "velocity": 100
        },
        {
          "pitch": 45,
          "onset": 32.0,
          "duration": 1.9688,
          "velocity": 100
        },
        {
          "pitch": 45,
          "onset": 34.0,
          "duration": 1.9688,
          "velocity": 100
        },
        {
          "pitch": 49,
          "onset": 36.0,
          "duration": 3.9688,
          "velocity": 100
        },
        {
          "pitch": 50,
          "onset": 40.0,
          "duration": 1.9688,
          "velocity": 100
        },
        {
          "pitch": 52,
          "onset": 42.0,
          "duration": 3.9688,
          "velocity": 100
        },
        {
          "pitch": 54,
          "onset": 46.0,
          "duration": 1.9688,
          "velocity": 100
        },
        {
          "pitch": 52,
          "onset": 48.0,
          "duration": 3.9688,
          "velocity": 100
        },
        {
          "pitch": 52,
          "onset": 54.0,
          "duration": 3.9688,
          "velocity": 100
        },
        {
          "pitch": 54,
          "onset": 58.0,
          "duration": 1.9688,
          "velocity": 100
        },
        {
          "pitch": 52,
          "onset": 60.0,
          "duration": 3.9688,
          "velocity": 100
        },
        {
          "pitch": 50,
          "onset": 64.0,
          "duration": 1.9688,
          "velocity": 100
        },
        {
          "pitch": 49,
          "onset": 66.0,
          "duration": 2.9688,
          "velocity": 100
        },
        {
          "pitch": 50,
          "onset": 69.0,
          "duration": 1.0,
          "velocity": 100
        },
        {
          "pitch": 49,
          "onset": 70.0,
          "duration": 1.0,
          "velocity": 100
        },
        {
          "pitch": 47,
          "onset": 71.0,
          "duration": 1.0,
          "velocity": 100
        },
        {
          "pitch": 45,
          "onset": 72.0,
          "duration": 1.9688,
          "velocity": 100
        },
        {
          "pitch": 45,
          "onset": 78.0,
          "duration": 1.9688,
          "velocity": 100
        },
        {
          "pitch": 47,
          "onset": 80.0,
          "duration": 1.9688,
          "velocity": 100
        },
        {
          "pitch": 47,
          "onset": 82.0,
          "duration": 1.9688,
          "velocity": 100
        },
        {
          "pitch": 49,
          "onset": 84.0,
          "duration": 3.9688,
          "velocity": 100
        },
        {
          "pitch": 47,
          "onset": 88.0,
          "duration": 1.9688,
          "velocity": 100
        },
        {
          "pitch": 45,
          "onset": 90.0,
          "duration": 3.9688,
          "velocity": 100
        },
        {
          "pitch": 47,
          "onset": 94.0,
          "duration": 1.9688,
          "velocity": 100
        },
        {
          "pitch": 52,
          "onset": 96.0,
          "duration": 3.9688,
          "velocity": 100
        },
        {
          "pitch": 52,
          "onset": 102.0,
          "duration": 3.9688,
          "velocity": 100
        },
        {
          "pitch": 54,
          "onset": 106.0,
          "duration": 1.9688,
          "velocity": 100
        },
        {
          "pitch": 52,
          "onset": 108.0,
          "duration": 3.9688,
          "velocity": 100
        },
        {
          "pitch": 50,
          "onset": 112.0,
          "duration": 1.9688,
          "velocity": 100
        },
        {
          "pitch": 49,
          "onset": 114.0,
          "duration": 2.9688,
          "velocity": 100
        },
        {
          "pitch": 50,
          "onset": 117.0,
          "duration": 1.0,
          "velocity": 100
        },
        {
          "pitch": 49,
          "onset": 118.0,
          "duration": 1.0,
          "velocity": 100
        },
        {
          "pitch": 47,
          "onset": 119.0,
          "duration": 1.0,
          "velocity": 100
        },
        {
          "pitch": 45,
          "onset": 120.0,
          "duration": 1.9688,
          "velocity": 100
        },
        {
          "pitch": 45,
          "onset": 126.0,
          "duration": 1.9688,
          "velocity": 100
        },
        {
          "pitch": 47,
          "onset": 128.0,
          "duration": 1.9688,
          "velocity": 100
        },
        {
          "pitch": 47,
          "onset": 130.0,
          "duration": 1.9688,
          "velocity": 100
        },
        {
          "pitch": 49,
          "onset": 132.0,
          "duration": 3.9688,
          "velocity": 100
        },
        {
          "pitch": 47,
          "onset": 136.0,
          "duration": 1.9688,
          "velocity": 100
        },
        {
          "pitch": 45,
          "onset": 138.0,
          "duration": 3.9688,
          "velocity": 100
        },
        {
          "pitch": 47,
          "onset": 142.0,
          "duration": 1.9688,
          "velocity": 100
        },
        {
          "pitch": 49,
          "onset": 144.0,
          "duration": 1.9688,
          "velocity": 100
        },
        {
          "pitch": 42,
          "onset": 156.0,
          "duration": 3.9688,
          "velocity": 100
        },
        {
          "pitch": 42,
          "onset": 160.0,
          "duration": 1.9688,
          "velocity": 100
        },
        {
          "pitch": 44,
          "onset": 162.0,
          "duration": 3.9688,
          "velocity": 100
        },
        {
          "pitch": 44,
          "onset": 166.0,
          "duration": 1.9688,
          "velocity": 100
        },
        {
          "pitch": 45,
          "onset": 168.0,
          "duration": 2.9688,
          "velocity": 100
        },
        {
          "pitch": 47,
          "onset": 171.0,
          "duration": 1.0,
          "velocity": 100
        },
        {
          "pitch": 49,
          "onset": 172.0,
          "duration": 1.0,
          "velocity": 100
        },
        {
          "pitch": 50,
          "onset": 173.0,
          "duration": 1.0,
          "velocity": 100
        },
        {
          "pitch": 52,
          "onset": 174.0,
          "duration": 5.9688,
          "velocity": 100
        },
        {
          "pitch": 49,
          "onset": 180.0,
          "duration": 3.9688,
          "velocity": 100
        },
        {
          "pitch": 49,
          "onset": 184.0,
          "duration": 1.9688,
          "velocity": 100
        },
        {
          "pitch": 47,
          "onset": 186.0,
          "duration": 3.9688,
          "velocity": 100
        },
        {
          "pitch": 47,
          "onset": 190.0,
          "duration": 1.9688,
          "velocity": 100
        },
        {
          "pitch": 45,
          "onset": 192.0,
          "duration": 31.9688,
          "velocity": 100
        },
        {
          "pitch": 42,
          "onset": 213.0,
          "duration": 1.0,
          "velocity": 100
        },
        {
          "pitch": 40,
          "onset": 214.0,
          "duration": 1.0,
          "velocity": 100
        },
        {
          "pitch": 38,
          "onset": 215.0,
          "duration": 1.5,
          "velocity": 100
        },
        {
          "pitch": 40,
          "onset": 216.5,
          "duration": 7.4688,
          "velocity": 100
        }
      ]
    }
  ]
}