{
  "bwv": 643,
  "category": "orgelbuchlein",
  "instrument": "organ",
  "form": "",
  "movement": null,
  "tonic": "A",
  "mode": "minor",
  "confidence": "inferred",
  "ticks_per_beat": 480,
  "duration_seconds": 93.7,
  "tempos": [
    {
      "tick": 0,
      "bpm": 45
    },
    {
      "tick": 28800,
      "bpm": 40
    },
    {
      "tick": 29280,
      "bpm": 40
    }
  ],
  "time_signatures": [
    {
      "tick": 0,
      "numerator": 4,
      "denominator": 4
    }
  ],
  "track_type": "manual",
  "voice_count": 2,
  "total_notes": 563,
  "tracks": [
    {
      "role": "manual",
      "notes": [
        {
          "pitch": 55,
          "onset": 0.0,
          "duration": 0.5,
          "velocity": 80
        },
        {
          "pitch": 59,
          "onset": 0.0,
          "duration": 0.5,
          "velocity": 80
        },
        {
          "pitch": 67,
          "onset": 0.0,
          "duration": 1.0,
          "velocity": 80
        },
        {
          "pitch": 59,
          "onset": 0.5,
          "duration": 0.5,
          "velocity": 80
        },
        {
          "pitch": 62,
          "onset": 0.5,
          "duration": 0.5,
          "velocity": 80
        },
        {
          "pitch": 67,
          "onset": 1.0,
          "duration": 1.0,
          "velocity": 80
        },
        {
          "pitch": 61,
          "onset": 1.25,
          "duration": 0.25,
          "velocity": 80
        },
        {
          "pitch": 64,
          "onset": 1.25,
          "duration": 0.25,
          "velocity": 80
        },
        {
          "pitch": 59,
          "onset": 1.5,
          "duration": 0.25,
          "velocity": 80
        },
        {
          "pitch": 62,
          "onset": 1.5,
          "duration": 0.25,
          "velocity": 80
        },
        {
          "pitch": 61,
          "onset": 1.75,
          "duration": 0.25,
          "velocity": 80
        },
        {
          "pitch": 64,
          "onset": 1.75,
          "duration": 0.25,
          "velocity": 80
        },
        {
          "pitch": 62,
          "onset": 2.0,
          "duration": 0.5,
          "velocity": 80
        },
        {
          "pitch": 66,
          "onset": 2.0,
          "duration": 1.0,
          "velocity": 80
        },
        {
          "pitch": 66,
          "onset": 2.0,
          "duration": 0.5,
          "velocity": 80
        },
        {
          "pitch": 50,
          "onset": 2.5,
          "duration": 0.5,
          "velocity": 80
        },
        {
          "pitch": 57,
          "onset": 2.5,
          "duration": 0.5,
          "velocity": 80
        },
        {
          "pitch": 62,
          "onset": 3.0,
          "duration": 1.0,
          "velocity": 80
        },
        {
          "pitch": 55,
          "onset": 3.25,
          "duration": 0.25,
          "velocity": 80
        },
        {
          "pitch": 59,
          "onset": 3.25,
          "duration": 0.25,
          "velocity": 80
        },
        {
          "pitch": 54,
          "onset": 3.5,
          "duration": 0.25,
          "velocity": 80
        },
        {
          "pitch": 57,
          "onset": 3.5,
          "duration": 0.25,
          "velocity": 80
        },
        {
          "pitch": 55,
          "onset": 3.75,
          "duration": 0.25,
          "velocity": 80
        },
        {
          "pitch": 59,
          "onset": 3.75,
          "duration": 0.25,
          "velocity": 80
        },
        {
          "pitch": 52,
          "onset": 4.0,
          "duration": 0.5,
          "velocity": 80
        },
        {
          "pitch": 55,
          "onset": 4.0,
          "duration": 0.5,
          "velocity": 80
        },
        {
          "pitch": 64,
          "onset": 4.0,
          "duration": 1.0,
          "velocity": 80
        },
        {
          "pitch": 55,
          "onset": 4.5,
          "duration": 0.25,
          "velocity": 80
        },
        {
          "pitch": 60,
          "onset": 4.5,
          "duration": 0.75,
          "velocity": 80
        },
        {
          "pitch": 52,
          "onset": 4.75,
          "duration": 0.25,
          "velocity": 80
        },
        {
          "pitch": 66,
          "onset": 5.0,
          "duration": 1.0,
          "velocity": 80
        },
        {
          "pitch": 59,
          "onset": 5.25,
          "duration": 0.25,
          "velocity": 80
        },
        {
          "pitch": 62,
          "onset": 5.25,
          "duration": 0.25,
          "velocity": 80
        },
        {
          "pitch": 57,
          "onset": 5.5,
          "duration": 0.25,
          "velocity": 80
        },
        {
          "pitch": 60,
          "onset": 5.5,
          "duration": 0.25,
          "velocity": 80
        },
        {
          "pitch": 59,
          "onset": 5.75,
          "duration": 0.25,
          "velocity": 80
        },
        {
          "pitch": 62,
          "onset": 5.75,
          "duration": 0.25,
          "velocity": 80
        },
        {
          "pitch": 55,
          "onset": 6.0,
          "duration": 0.25,
          "velocity": 80
        },
        {
          "pitch": 59,
          "onset": 6.0,
          "duration": 0.25,
          "velocity": 80
        },
        {
          "pitch": 67,
          "onset": 6.0,
          "duration": 1.0,
          "velocity": 80
        },
        {
          "pitch": 50,
          "onset": 6.25,
          "duration": 0.25,
          "velocity": 80
        },
        {
          "pitch": 59,
          "onset": 6.25,
          "duration": 0.25,
          "velocity": 80
        },
        {
          "pitch": 48,
          "onset": 6.5,
          "duration": 0.25,
          "velocity": 80
        },
        {
          "pitch": 57,
          "onset": 6.5,
          "duration": 0.25,
          "velocity": 80
        },
        {
          "pitch": 50,
          "onset": 6.75,
          "duration": 0.25,
          "velocity": 80
        },
        {
          "pitch": 59,
          "onset": 6.75,
          "duration": 0.25,
          "velocity": 80
        },
        {
          "pitch": 47,
          "onset": 7.0,
          "duration": 0.5,
          "velocity": 80
        },
        {
          "pitch": 55,
          "onset": 7.0,
          "duration": 0.5,
          "velocity": 80
        },
        {
          "pitch": 67,
          "onset": 7.0,
          "duration": 1.0,
          "velocity": 80
        },
        {
          "pitch": 50,
          "onset": 7.5,
          "duration": 0.5,
          "velocity": 80
        },
        {
          "pitch": 59,
          "onset": 7.5,
          "duration": 0.75,
          "velocity": 80
        },
        {
          "pitch": 55,
          "onset": 8.0,
          "duration": 0.25,
          "velocity": 80
        },
        {
          "pitch": 71,
          "onset": 8.0,
          "duration": 1.0,
          "velocity": 80
        },
        {
          "pitch": 59,
          "onset": 8.25,
          "duration": 0.25,
          "velocity": 80
        },
        {
          "pitch": 67,
          "onset": 8.25,
          "duration": 0.25,
          "velocity": 80
        },
        {
          "pitch": 57,
          "onset": 8.5,
          "duration": 0.25,
          "velocity": 80
        },
        {
          "pitch": 66,
          "onset": 8.5,
          "duration": 0.25,
          "velocity": 80
        },
        {
          "pitch": 59,
          "onset": 8.75,
          "duration": 0.25,
          "velocity": 80
        },
        {
          "pitch": 67,
          "onset": 8.75,
          "duration": 0.25,
          "velocity": 80
        },
        {
          "pitch": 55,
          "onset": 9.0,
          "duration": 0.5,
          "velocity": 80
        },
        {
          "pitch": 64,
          "onset": 9.0,
          "duration": 0.5,
          "velocity": 80
        },
        {
          "pitch": 71,
          "onset": 9.0,
          "duration": 1.0,
          "velocity": 80
        },
        {
          "pitch": 64,
          "onset": 9.5,
          "duration": 0.75,
          "velocity": 80
        },
        {
          "pitch": 67,
          "onset": 9.5,
          "duration": 0.75,
          "velocity": 80
        },
        {
          "pitch": 72,
          "onset": 10.0,
          "duration": 1.0,
          "velocity": 80
        },
        {
          "pitch": 60,
          "onset": 10.25,
          "duration": 0.25,
          "velocity": 80
        },
        {
          "pitch": 69,
          "onset": 10.25,
          "duration": 0.25,
          "velocity": 80
        },
        {
          "pitch": 59,
          "onset": 10.5,
          "duration": 0.25,
          "velocity": 80
        },
        {
          "pitch": 67,
          "onset": 10.5,
          "duration": 0.25,
          "velocity": 80
        },
        {
          "pitch": 60,
          "onset": 10.75,
          "duration": 0.25,
          "velocity": 80
        },
        {
          "pitch": 69,
          "onset": 10.75,
          "duration": 0.25,
          "velocity": 80
        },
        {
          "pitch": 57,
          "onset": 11.0,
          "duration": 0.5,
          "velocity": 80
        },
        {
          "pitch": 66,
          "onset": 11.0,
          "duration": 0.5,
          "velocity": 80
        },
        {
          "pitch": 72,
          "onset": 11.0,
          "duration": 1.0,
          "velocity": 80
        },
        {
          "pitch": 66,
          "onset": 11.5,
          "duration": 0.5,
          "velocity": 80
        },
        {
          "pitch": 69,
          "onset": 11.5,
          "duration": 0.75,
          "velocity": 80
        },
        {
          "pitch": 62,
          "onset": 12.0,
          "duration": 0.25,
          "velocity": 80
        },
        {
          "pitch": 71,
          "onset": 12.0,
          "duration": 1.0,
          "velocity": 80
        },
        {
          "pitch": 59,
          "onset": 12.25,
          "duration": 0.25,
          "velocity": 80
        },
        {
          "pitch": 67,
          "onset": 12.25,
          "duration": 0.25,
          "velocity": 80
        },
        {
          "pitch": 57,
          "onset": 12.5,
          "duration": 0.25,
          "velocity": 80
        },
        {
          "pitch": 66,
          "onset": 12.5,
          "duration": 0.25,
          "velocity": 80
        },
        {
          "pitch": 59,
          "onset": 12.75,
          "duration": 0.25,
          "velocity": 80
        },
        {
          "pitch": 67,
          "onset": 12.75,
          "duration": 0.25,
          "velocity": 80
        },
        {
          "pitch": 55,
          "onset": 13.0,
          "duration": 0.5,
          "velocity": 80
        },
        {
          "pitch": 62,
          "onset": 13.0,
          "duration": 0.5,
          "velocity": 80
        },
        {
          "pitch": 71,
          "onset": 13.0,
          "duration": 1.0,
          "velocity": 80
        },
        {
          "pitch": 62,
          "onset": 13.5,
          "duration": 0.75,
          "velocity": 80
        },
        {
          "pitch": 67,
          "onset": 13.5,
          "duration": 0.75,
          "velocity": 80
        },
        {
          "pitch": 69,
          "onset": 14.0,
          "duration": 1.9688,
          "velocity": 80
        },
        {
          "pitch": 57,
          "onset": 14.25,
          "duration": 0.25,
          "velocity": 80
        },
        {
          "pitch": 66,
          "onset": 14.25,
          "duration": 0.25,
          "velocity": 80
        },
        {
          "pitch": 55,
          "onset": 14.5,
          "duration": 0.25,
          "velocity": 80
        },
        {
          "pitch": 64,
          "onset": 14.5,
          "duration": 0.25,
          "velocity": 80
        },
        {
          "pitch": 57,
          "onset": 14.75,
          "duration": 0.25,
          "velocity": 80
        },
        {
          "pitch": 66,
          "onset": 14.75,
          "duration": 0.25,
          "velocity": 80
        },
        {
          "pitch": 54,
          "onset": 15.0,
          "duration": 0.25,
          "velocity": 80
        },
        {
          "pitch": 62,
          "onset": 15.0,
          "duration": 0.25,
          "velocity": 80
        },
        {
          "pitch": 54,
          "onset": 15.25,
          "duration": 0.25,
          "velocity": 80
        },
        {
          "pitch": 62,
          "onset": 15.25,
          "duration": 0.25,
          "velocity": 80
        },
        {
          "pitch": 52,
          "onset": 15.5,
          "duration": 0.25,
          "velocity": 80
        },
        {
          "pitch": 60,
          "onset": 15.5,
          "duration": 0.25,
          "velocity": 80
        },
        {
          "pitch": 54,
          "onset": 15.75,
          "duration": 0.25,
          "velocity": 80
        },
        {
          "pitch": 62,
          "onset": 15.75,
          "duration": 0.25,
          "velocity": 80
        },
        {
          "pitch": 55,
          "onset": 16.0,
          "duration": 0.5,
          "velocity": 80
        },
        {
          "pitch": 59,
          "onset": 16.0,
          "duration": 0.5,
          "velocity": 80
        },
        {
          "pitch": 67,
          "onset": 16.0,
          "duration": 1.0,
          "velocity": 80
        },
        {
          "pitch": 59,
          "onset": 16.5,
          "duration": 0.5,
          "velocity": 80
        },
        {
          "pitch": 62,
          "onset": 16.5,
          "duration": 0.5,
          "velocity": 80
        },
        {
          "pitch": 67,
          "onset": 17.0,
          "duration": 1.0,
          "velocity": 80
        },
        {
          "pitch": 61,
          "onset": 17.25,
          "duration": 0.25,
          "velocity": 80
        },
        {
          "pitch": 64,
          "onset": 17.25,
          "duration": 0.25,
          "velocity": 80
        },
        {
          "pitch": 59,
          "onset": 17.5,
          "duration": 0.25,
          "velocity": 80
        },
        {
          "pitch": 62,
          "onset": 17.5,
          "duration": 0.25,
          "velocity": 80
        },
        {
          "pitch": 61,
          "onset": 17.75,
          "duration": 0.25,
          "velocity": 80
        },
        {
          "pitch": 64,
          "onset": 17.75,
          "duration": 0.25,
          "velocity": 80
        },
        {
          "pitch": 62,
          "onset": 18.0,
          "duration": 0.5,
          "velocity": 80
        },
        {
          "pitch": 66,
          "onset": 18.0,
          "duration": 1.0,
          "velocity": 80
        },
        {
          "pitch": 66,
          "onset": 18.0,
          "duration": 0.5,
          "velocity": 80
        },
        {
          "pitch": 50,
          "onset": 18.5,
          "duration": 0.5,
          "velocity": 80
        },
        {
          "pitch": 57,
          "onset": 18.5,
          "duration": 0.5,
          "velocity": 80
        },
        {
          "pitch": 62,
          "onset": 19.0,
          "duration": 1.0,
          "velocity": 80
        },
        {
          "pitch": 55,
          "onset": 19.25,
          "duration": 0.25,
          "velocity": 80
        },
        {
          "pitch": 59,
          "onset": 19.25,
          "duration": 0.25,
          "velocity": 80
        },
        {
          "pitch": 54,
          "onset": 19.5,
          "duration": 0.25,
          "velocity": 80
        },
        {
          "pitch": 57,
          "onset": 19.5,
          "duration": 0.25,
          "velocity": 80
        },
        {
          "pitch": 55,
          "onset": 19.75,
          "duration": 0.25,
          "velocity": 80
        },
        {
          "pitch": 59,
          "onset": 19.75,
          "duration": 0.25,
          "velocity": 80
        },
        {
          "pitch": 52,
          "onset": 20.0,
          "duration": 0.5,
          "velocity": 80
        },
        {
          "pitch": 55,
          "onset": 20.0,
          "duration": 0.5,
          "velocity": 80
        },
        {
          "pitch": 64,
          "onset": 20.0,
          "duration": 1.0,
          "velocity": 80
        },
        {
          "pitch": 55,
          "onset": 20.5,
          "duration": 0.25,
          "velocity": 80
        },
        {
          "pitch": 60,
          "onset": 20.5,
          "duration": 0.75,
          "velocity": 80
        },
        {
          "pitch": 52,
          "onset": 20.75,
          "duration": 0.25,
          "velocity": 80
        },
        {
          "pitch": 66,
          "onset": 21.0,
          "duration": 1.0,
          "velocity": 80
        },
        {
          "pitch": 59,
          "onset": 21.25,
          "duration": 0.25,
          "velocity": 80
        },
        {
          "pitch": 62,
          "onset": 21.25,
          "duration": 0.25,
          "velocity": 80
        },
        {
          "pitch": 57,
          "onset": 21.5,
          "duration": 0.25,
          "velocity": 80
        },
        {
          "pitch": 60,
          "onset": 21.5,
          "duration": 0.25,
          "velocity": 80
        },
        {
          "pitch": 59,
          "onset": 21.75,
          "duration": 0.25,
          "velocity": 80
        },
        {
          "pitch": 62,
          "onset": 21.75,
          "duration": 0.25,
          "velocity": 80
        },
        {
          "pitch": 55,
          "onset": 22.0,
          "duration": 0.25,
          "velocity": 80
        },
        {
          "pitch": 59,
          "onset": 22.0,
          "duration": 0.25,
          "velocity": 80
        },
        {
          "pitch": 67,
          "onset": 22.0,
          "duration": 1.0,
          "velocity": 80
        },
        {
          "pitch": 50,
          "onset": 22.25,
          "duration": 0.25,
          "velocity": 80
        },
        {
          "pitch": 59,
          "onset": 22.25,
          "duration": 0.25,
          "velocity": 80
        },
        {
          "pitch": 48,
          "onset": 22.5,
          "duration": 0.25,
          "velocity": 80
        },
        {
          "pitch": 57,
          "onset": 22.5,
          "duration": 0.25,
          "velocity": 80
        },
        {
          "pitch": 50,
          "onset": 22.75,
          "duration": 0.25,
          "velocity": 80
        },
        {
          "pitch": 59,
          "onset": 22.75,
          "duration": 0.25,
          "velocity": 80
        },
        {
          "pitch": 47,
          "onset": 23.0,
          "duration": 0.5,
          "velocity": 80
        },
        {
          "pitch": 55,
          "onset": 23.0,
          "duration": 0.5,
          "velocity": 80
        },
        {
          "pitch": 67,
          "onset": 23.0,
          "duration": 1.0,
          "velocity": 80
        },
        {
          "pitch": 50,
          "onset": 23.5,
          "duration": 0.5,
          "velocity": 80
        },
        {
          "pitch": 59,
          "onset": 23.5,
          "duration": 0.75,
          "velocity": 80
        },
        {
          "pitch": 55,
          "onset": 24.0,
          "duration": 0.25,
          "velocity": 80
        },
        {
          "pitch": 71,
          "onset": 24.0,
          "duration": 1.0,
          "velocity": 80
        },
        {
          "pitch": 59,
          "onset": 24.25,
          "duration": 0.25,
          "velocity": 80
        },
        {
          "pitch": 67,
          "onset": 24.25,
          "duration": 0.25,
          "velocity": 80
        },
        {
          "pitch": 57,
          "onset": 24.5,
          "duration": 0.25,
          "velocity": 80
        },
        {
          "pitch": 66,
          "onset": 24.5,
          "duration": 0.25,
          "velocity": 80
        },
        {
          "pitch": 59,
          "onset": 24.75,
          "duration": 0.25,
          "velocity": 80
        },
        {
          "pitch": 67,
          "onset": 24.75,
          "duration": 0.25,
          "velocity": 80
        },
        {
          "pitch": 55,
          "onset": 25.0,
          "duration": 0.5,
          "velocity": 80
        },
        {
          "pitch": 64,
          "onset": 25.0,
          "duration": 0.5,
          "velocity": 80
        },
        {
          "pitch": 71,
          "onset": 25.0,
          "duration": 1.0,
          "velocity": 80
        },
        {
          "pitch": 64,
          "onset": 25.5,
          "duration": 0.75,
          "velocity": 80
        },
        {
          "pitch": 67,
          "onset": 25.5,
          "duration": 0.75,
          "velocity": 80
        },
        {
          "pitch": 72,
          "onset": 26.0,
          "duration": 1.0,
          "velocity": 80
        },
        {
          "pitch": 60,
          "onset": 26.25,
          "duration": 0.25,
          "velocity": 80
        },
        {
          "pitch": 69,
          "onset": 26.25,
          "duration": 0.25,
          "velocity": 80
        },
        {
          "pitch": 59,
          "onset": 26.5,
          "duration": 0.25,
          "velocity": 80
        },
        {
          "pitch": 67,
          "onset": 26.5,
          "duration": 0.25,
          "velocity": 80
        },
        {
          "pitch": 60,
          "onset": 26.75,
          "duration": 0.25,
          "velocity": 80
        },
        {
          "pitch": 69,
          "onset": 26.75,
          "duration": 0.25,
          "velocity": 80
        },
        {
          "pitch": 57,
          "onset": 27.0,
          "duration": 0.5,
          "velocity": 80
        },
        {
          "pitch": 66,
          "onset": 27.0,
          "duration": 0.5,
          "velocity": 80
        },
        {
          "pitch": 72,
          "onset": 27.0,
          "duration": 1.0,
          "velocity": 80
        },
        {
          "pitch": 66,
          "onset": 27.5,
          "duration": 0.5,
          "velocity": 80
        },
        {
          "pitch": 69,
          "onset": 27.5,
          "duration": 0.75,
          "velocity": 80
        },
        {
          "pitch": 62,
          "onset": 28.0,
          "duration": 0.25,
          "velocity": 80
        },
        {
          "pitch": 71,
          "onset": 28.0,
          "duration": 1.0,
          "velocity": 80
        },
        {
          "pitch": 59,
          "onset": 28.25,
          "duration": 0.25,
          "velocity": 80
        },
        {
          "pitch": 67,
          "onset": 28.25,
          "duration": 0.25,
          "velocity": 80
        },
        {
          "pitch": 57,
          "onset": 28.5,
          "duration": 0.25,
          "velocity": 80
        },
        {
          "pitch": 66,
          "onset": 28.5,
          "duration": 0.25,
          "velocity": 80
        },
        {
          "pitch": 59,
          "onset": 28.75,
          "duration": 0.25,
          "velocity": 80
        },
        {
          "pitch": 67,
          "onset": 28.75,
          "duration": 0.25,
          "velocity": 80
        },
        {
          "pitch": 55,
          "onset": 29.0,
          "duration": 0.5,
          "velocity": 80
        },
        {
          "pitch": 62,
          "onset": 29.0,
          "duration": 0.5,
          "velocity": 80
        },
        {
          "pitch": 71,
          "onset": 29.0,
          "duration": 1.0,
          "velocity": 80
        },
        {
          "pitch": 62,
          "onset": 29.5,
          "duration": 0.75,
          "velocity": 80
        },
        {
          "pitch": 67,
          "onset": 29.5,
          "duration": 0.75,
          "velocity": 80
        },
        {
          "pitch": 69,
          "onset": 30.0,
          "duration": 1.9688,
          "velocity": 80
        },
        {
          "pitch": 57,
          "onset": 30.25,
          "duration": 0.25,
          "velocity": 80
        },
        {
          "pitch": 66,
          "onset": 30.25,
          "duration": 0.25,
          "velocity": 80
        },
        {
          "pitch": 55,
          "onset": 30.5,
          "duration": 0.25,
          "velocity": 80
        },
        {
          "pitch": 64,
          "onset": 30.5,
          "duration": 0.25,
          "velocity": 80
        },
        {
          "pitch": 57,
          "onset": 30.75,
          "duration": 0.25,
          "velocity": 80
        },
        {
          "pitch": 66,
          "onset": 30.75,
          "duration": 0.25,
          "velocity": 80
        },
        {
          "pitch": 54,
          "onset": 31.0,
          "duration": 0.25,
          "velocity": 80
        },
        {
          "pitch": 62,
          "onset": 31.0,
          "duration": 0.25,
          "velocity": 80
        },
        {
          "pitch": 54,
          "onset": 31.25,
          "duration": 0.25,
          "velocity": 80
        },
        {
          "pitch": 62,
          "onset": 31.25,
          "duration": 0.25,
          "velocity": 80
        },
        {
          "pitch": 52,
          "onset": 31.5,
          "duration": 0.25,
          "velocity": 80
        },
        {
          "pitch": 60,
          "onset": 31.5,
          "duration": 0.25,
          "velocity": 80
        },
        {
          "pitch": 54,
          "onset": 31.75,
          "duration": 0.25,
          "velocity": 80
        },
        {
          "pitch": 62,
          "onset": 31.75,
          "duration": 0.25,
          "velocity": 80
        },
        {
          "pitch": 55,
          "onset": 32.0,
          "duration": 0.5,
          "velocity": 80
        },
        {
          "pitch": 59,
          "onset": 32.0,
          "duration": 0.5,
          "velocity": 80
        },
        {
          "pitch": 71,
          "onset": 32.0,
          "duration": 1.0,
          "velocity": 80
        },
        {
          "pitch": 62,
          "onset": 32.5,
          "duration": 0.25,
          "velocity": 80
        },
        {
          "pitch": 67,
          "onset": 32.5,
          "duration": 0.75,
          "velocity": 80
        },
        {
          "pitch": 59,
          "onset": 32.75,
          "duration": 0.25,
          "velocity": 80
        },
        {
          "pitch": 72,
          "onset": 33.0,
          "duration": 0.5,
          "velocity": 80
        },
        {
          "pitch": 66,
          "onset": 33.25,
          "duration": 0.25,
          "velocity": 80
        },
        {
          "pitch": 69,
          "onset": 33.25,
          "duration": 0.25,
          "velocity": 80
        },
        {
          "pitch": 64,
          "onset": 33.5,
          "duration": 0.25,
          "velocity": 80
        },
        {
          "pitch": 67,
          "onset": 33.5,
          "duration": 0.25,
          "velocity": 80
        },
        {
          "pitch": 73,
          "onset": 33.5,
          "duration": 0.5,
          "velocity": 80
        },
        {
          "pitch": 66,
          "onset": 33.75,
          "duration": 0.25,
          "velocity": 80
        },
        {
          "pitch": 69,
          "onset": 33.75,
          "duration": 0.25,
          "velocity": 80
        },
        {
          "pitch": 62,
          "onset": 34.0,
          "duration": 0.5,
          "velocity": 80
        },
        {
          "pitch": 66,
          "onset": 34.0,
          "duration": 0.5,
          "velocity": 80
        },
        {
          "pitch": 74,
          "onset": 34.0,
          "duration": 1.0,
          "velocity": 80
        },
        {
          "pitch": 54,
          "onset": 34.5,
          "duration": 0.5,
          "velocity": 80
        },
        {
          "pitch": 57,
          "onset": 34.5,
          "duration": 0.5,
          "velocity": 80
        },
        {
          "pitch": 59,
          "onset": 35.0,
          "duration": 0.25,
          "velocity": 80
        },
        {
          "pitch": 62,
          "onset": 35.0,
          "duration": 0.25,
          "velocity": 80
        },
        {
          "pitch": 67,
          "onset": 35.0,
          "duration": 1.0,
          "velocity": 80
        },
        {
          "pitch": 61,
          "onset": 35.25,
          "duration": 0.25,
          "velocity": 80
        },
        {
          "pitch": 64,
          "onset": 35.25,
          "duration": 0.25,
          "velocity": 80
        },
        {
          "pitch": 59,
          "onset": 35.5,
          "duration": 0.25,
          "velocity": 80
        },
        {
          "pitch": 62,
          "onset": 35.5,
          "duration": 0.25,
          "velocity": 80
        },
        {
          "pitch": 61,
          "onset": 35.75,
          "duration": 0.25,
          "velocity": 80
        },
        {
          "pitch": 64,
          "onset": 35.75,
          "duration": 0.25,
          "velocity": 80
        },
        {
          "pitch": 62,
          "onset": 36.0,
          "duration": 0.5,
          "velocity": 80
        },
        {
          "pitch": 66,
          "onset": 36.0,
          "duration": 1.0,
          "velocity": 80
        },
        {
          "pitch": 66,
          "onset": 36.0,
          "duration": 0.5,
          "velocity": 80
        },
        {
          "pitch": 57,
          "onset": 36.5,
          "duration": 0.5,
          "velocity": 80
        },
        {
          "pitch": 62,
          "onset": 36.5,
          "duration": 0.75,
          "velocity": 80
        },
        {
          "pitch": 59,
          "onset": 37.0,
          "duration": 0.25,
          "velocity": 80
        },
        {
          "pitch": 64,
          "onset": 37.0,
          "duration": 1.0,
          "velocity": 80
        },
        {
          "pitch": 52,
          "onset": 37.25,
          "duration": 0.25,
          "velocity": 80
        },
        {
          "pitch": 61,
          "onset": 37.25,
          "duration": 0.25,
          "velocity": 80
        },
        {
          "pitch": 50,
          "onset": 37.5,
          "duration": 0.25,
          "velocity": 80
        },
        {
          "pitch": 59,
          "onset": 37.5,
          "duration": 0.25,
          "velocity": 80
        },
        {
          "pitch": 52,
          "onset": 37.75,
          "duration": 0.25,
          "velocity": 80
        },
        {
          "pitch": 61,
          "onset": 37.75,
          "duration": 0.25,
          "velocity": 80
        },
        {
          "pitch": 50,
          "onset": 38.0,
          "duration": 0.25,
          "velocity": 80
        },
        {
          "pitch": 62,
          "onset": 38.0,
          "duration": 0.25,
          "velocity": 80
        },
        {
          "pitch": 66,
          "onset": 38.0,
          "duration": 0.5,
          "velocity": 80
        },
        {
          "pitch": 57,
          "onset": 38.25,
          "duration": 0.25,
          "velocity": 80
        },
        {
          "pitch": 61,
          "onset": 38.25,
          "duration": 0.25,
          "velocity": 80
        },
        {
          "pitch": 55,
          "onset": 38.5,
          "duration": 0.25,
          "velocity": 80
        },
        {
          "pitch": 59,
          "onset": 38.5,
          "duration": 0.25,
          "velocity": 80
        },
        {
          "pitch": 64,
          "onset": 38.5,
          "duration": 0.5,
          "velocity": 80
        },
        {
          "pitch": 57,
          "onset": 38.75,
          "duration": 0.25,
          "velocity": 80
        },
        {
          "pitch": 61,
          "onset": 38.75,
          "duration": 0.25,
          "velocity": 80
        },
        {
          "pitch": 54,
          "onset": 39.0,
          "duration": 0.5,
          "velocity": 80
        },
        {
          "pitch": 62,
          "onset": 39.0,
          "duration": 1.0,
          "velocity": 80
        },
        {
          "pitch": 62,
          "onset": 39.0,
          "duration": 0.5,
          "velocity": 80
        },
        {
          "pitch": 50,
          "onset": 39.5,
          "duration": 0.75,
          "velocity": 80
        },
        {
          "pitch": 54,
          "onset": 39.5,
          "duration": 0.5,
          "velocity": 80
        },
        {
          "pitch": 55,
          "onset": 40.0,
          "duration": 0.25,
          "velocity": 80
        },
        {
          "pitch": 71,
          "onset": 40.0,
          "duration": 1.0,
          "velocity": 80
        },
        {
          "pitch": 59,
          "onset": 40.25,
          "duration": 0.25,
          "velocity": 80
        },
        {
          "pitch": 67,
          "onset": 40.25,
          "duration": 0.25,
          "velocity": 80
        },
        {
          "pitch": 57,
          "onset": 40.5,
          "duration": 0.25,
          "velocity": 80
        },
        {
          "pitch": 66,
          "onset": 40.5,
          "duration": 0.25,
          "velocity": 80
        },
        {
          "pitch": 59,
          "onset": 40.75,
          "duration": 0.25,
          "velocity": 80
        },
        {
          "pitch": 67,
          "onset": 40.75,
          "duration": 0.25,
          "velocity": 80
        },
        {
          "pitch": 55,
          "onset": 41.0,
          "duration": 0.5,
          "velocity": 80
        },
        {
          "pitch": 64,
          "onset": 41.0,
          "duration": 0.5,
          "velocity": 80
        },
        {
          "pitch": 71,
          "onset": 41.0,
          "duration": 1.0,
          "velocity": 80
        },
        {
          "pitch": 52,
          "onset": 41.5,
          "duration": 0.75,
          "velocity": 80
        },
        {
          "pitch": 61,
          "onset": 41.5,
          "duration": 0.75,
          "velocity": 80
        },
        {
          "pitch": 69,
          "onset": 42.0,
          "duration": 1.0,
          "velocity": 80
        },
        {
          "pitch": 57,
          "onset": 42.25,
          "duration": 0.25,
          "velocity": 80
        },
        {
          "pitch": 66,
          "onset": 42.25,
          "duration": 0.25,
          "velocity": 80
        },
        {
          "pitch": 55,
          "onset": 42.5,
          "duration": 0.25,
          "velocity": 80
        },
        {
          "pitch": 64,
          "onset": 42.5,
          "duration": 0.25,
          "velocity": 80
        },
        {
          "pitch": 57,
          "onset": 42.75,
          "duration": 0.25,
          "velocity": 80
        },
        {
          "pitch": 66,
          "onset": 42.75,
          "duration": 0.25,
          "velocity": 80
        },
        {
          "pitch": 54,
          "onset": 43.0,
          "duration": 0.5,
          "velocity": 80
        },
        {
          "pitch": 63,
          "onset": 43.0,
          "duration": 0.5,
          "velocity": 80
        },
        {
          "pitch": 69,
          "onset": 43.0,
          "duration": 1.0,
          "velocity": 80
        },
        {
          "pitch": 51,
          "onset": 43.5,
          "duration": 0.5,
          "velocity": 80
        },
        {
          "pitch": 59,
          "onset": 43.5,
          "duration": 0.75,
          "velocity": 80
        },
        {
          "pitch": 52,
          "onset": 44.0,
          "duration": 0.25,
          "velocity": 80
        },
        {
          "pitch": 67,
          "onset": 44.0,
          "duration": 1.0,
          "velocity": 80
        },
        {
          "pitch": 55,
          "onset": 44.25,
          "duration": 0.25,
          "velocity": 80
        },
        {
          "pitch": 64,
          "onset": 44.25,
          "duration": 0.25,
          "velocity": 80
        },
        {
          "pitch": 54,
          "onset": 44.5,
          "duration": 0.25,
          "velocity": 80
        },
        {
          "pitch": 63,
          "onset": 44.5,
          "duration": 0.25,
          "velocity": 80
        },
        {
          "pitch": 57,
          "onset": 44.75,
          "duration": 0.25,
          "velocity": 80
        },
        {
          "pitch": 66,
          "onset": 44.75,
          "duration": 0.25,
          "velocity": 80
        },
        {
          "pitch": 55,
          "onset": 45.0,
          "duration": 0.25,
          "velocity": 80
        },
        {
          "pitch": 64,
          "onset": 45.0,
          "duration": 0.5,
          "velocity": 80
        },
        {
          "pitch": 67,
          "onset": 45.0,
          "duration": 1.0,
          "velocity": 80
        },
        {
          "pitch": 59,
          "onset": 45.25,
          "duration": 0.25,
          "velocity": 80
        },
        {
          "pitch": 58,
          "onset": 45.5,
          "duration": 0.25,
          "velocity": 80
        },
        {
          "pitch": 64,
          "onset": 45.5,
          "duration": 0.75,
          "velocity": 80
        },
        {
          "pitch": 61,
          "onset": 45.75,
          "duration": 0.25,
          "velocity": 80
        },
        {
          "pitch": 54,
          "onset": 46.0,
          "duration": 0.25,
          "velocity": 80
        },
        {
          "pitch": 66,
          "onset": 46.0,
          "duration": 1.9688,
          "velocity": 80
        },
        {
          "pitch": 59,
          "onset": 46.25,
          "duration": 0.25,
          "velocity": 80
        },
        {
          "pitch": 63,
          "onset": 46.25,
          "duration": 0.25,
          "velocity": 80
        },
        {
          "pitch": 56,
          "onset": 46.5,
          "duration": 0.25,
          "velocity": 80
        },
        {
          "pitch": 64,
          "onset": 46.5,
          "duration": 0.25,
          "velocity": 80
        },
        {
          "pitch": 58,
          "onset": 46.75,
          "duration": 0.25,
          "velocity": 80
        },
        {
          "pitch": 61,
          "onset": 46.75,
          "duration": 0.25,
          "velocity": 80
        },
        {
          "pitch": 59,
          "onset": 47.0,
          "duration": 1.25,
          "velocity": 80
        },
        {
          "pitch": 63,
          "onset": 47.0,
          "duration": 1.0,
          "velocity": 80
        },
        {
          "pitch": 64,
          "onset": 48.0,
          "duration": 0.25,
          "velocity": 80
        },
        {
          "pitch": 67,
          "onset": 48.0,
          "duration": 1.0,
          "velocity": 80
        },
        {
          "pitch": 55,
          "onset": 48.25,
          "duration": 0.25,
          "velocity": 80
        },
        {
          "pitch": 59,
          "onset": 48.25,
          "duration": 0.25,
          "velocity": 80
        },
        {
          "pitch": 54,
          "onset": 48.5,
          "duration": 0.25,
          "velocity": 80
        },
        {
          "pitch": 57,
          "onset": 48.5,
          "duration": 0.25,
          "velocity": 80
        },
        {
          "pitch": 55,
          "onset": 48.75,
          "duration": 0.25,
          "velocity": 80
        },
        {
          "pitch": 59,
          "onset": 48.75,
          "duration": 0.25,
          "velocity": 80
        },
        {
          "pitch": 52,
          "onset": 49.0,
          "duration": 0.5,
          "velocity": 80
        },
        {
          "pitch": 60,
          "onset": 49.0,
          "duration": 0.5,
          "velocity": 80
        },
        {
          "pitch": 67,
          "onset": 49.0,
          "duration": 1.0,
          "velocity": 80
        },
        {
          "pitch": 60,
          "onset": 49.5,
          "duration": 0.75,
          "velocity": 80
        },
        {
          "pitch": 64,
          "onset": 49.5,
          "duration": 0.75,
          "velocity": 80
        },
        {
          "pitch": 69,
          "onset": 50.0,
          "duration": 1.0,
          "velocity": 80
        },
        {
          "pitch": 57,
          "onset": 50.25,
          "duration": 0.25,
          "velocity": 80
        },
        {
          "pitch": 60,
          "onset": 50.25,
          "duration": 0.25,
          "velocity": 80
        },
        {
          "pitch": 55,
          "onset": 50.5,
          "duration": 0.25,
          "velocity": 80
        },
        {
          "pitch": 59,
          "onset": 50.5,
          "duration": 0.25,
          "velocity": 80
        },
        {
          "pitch": 57,
          "onset": 50.75,
          "duration": 0.25,
          "velocity": 80
        },
        {
          "pitch": 60,
          "onset": 50.75,
          "duration": 0.25,
          "velocity": 80
        },
        {
          "pitch": 52,
          "onset": 51.0,
          "duration": 0.5,
          "velocity": 80
        },
        {
          "pitch": 62,
          "onset": 51.0,
          "duration": 0.5,
          "velocity": 80
        },
        {
          "pitch": 69,
          "onset": 51.0,
          "duration": 1.0,
          "velocity": 80
        },
        {
          "pitch": 62,
          "onset": 51.5,
          "duration": 0.75,
          "velocity": 80
        },
        {
          "pitch": 66,
          "onset": 51.5,
          "duration": 0.5,
          "velocity": 80
        },
        {
          "pitch": 67,
          "onset": 52.0,
          "duration": 0.25,
          "velocity": 80
        },
        {
          "pitch": 71,
          "onset": 52.0,
          "duration": 1.0,
          "velocity": 80
        },
        {
          "pitch": 59,
          "onset": 52.25,
          "duration": 0.25,
          "velocity": 80
        },
        {
          "pitch": 62,
          "onset": 52.25,
          "duration": 0.25,
          "velocity": 80
        },
        {
          "pitch": 57,
          "onset": 52.5,
          "duration": 0.25,
          "velocity": 80
        },
        {
          "pitch": 60,
          "onset": 52.5,
          "duration": 0.25,
          "velocity": 80
        },
        {
          "pitch": 59,
          "onset": 52.75,
          "duration": 0.25,
          "velocity": 80
        },
        {
          "pitch": 62,
          "onset": 52.75,
          "duration": 0.25,
          "velocity": 80
        },
        {
          "pitch": 55,
          "onset": 53.0,
          "duration": 0.5,
          "velocity": 80
        },
        {
          "pitch": 64,
          "onset": 53.0,
          "duration": 0.5,
          "velocity": 80
        },
        {
          "pitch": 71,
          "onset": 53.0,
          "duration": 1.0,
          "velocity": 80
        },
        {
          "pitch": 64,
          "onset": 53.5,
          "duration": 0.75,
          "velocity": 80
        },
        {
          "pitch": 68,
          "onset": 53.5,
          "duration": 0.5,
          "velocity": 80
        },
        {
          "pitch": 69,
          "onset": 54.0,
          "duration": 0.25,
          "velocity": 80
        },
        {
          "pitch": 72,
          "onset": 54.0,
          "duration": 1.9688,
          "velocity": 80
        },
        {
          "pitch": 60,
          "onset": 54.25,
          "duration": 0.25,
          "velocity": 80
        },
        {
          "pitch": 64,
          "onset": 54.25,
          "duration": 0.25,
          "velocity": 80
        },
        {
          "pitch": 59,
          "onset": 54.5,
          "duration": 0.25,
          "velocity": 80
        },
        {
          "pitch": 62,
          "onset": 54.5,
          "duration": 0.25,
          "velocity": 80
        },
        {
          "pitch": 60,
          "onset": 54.75,
          "duration": 0.25,
          "velocity": 80
        },
        {
          "pitch": 64,
          "onset": 54.75,
          "duration": 0.25,
          "velocity": 80
        },
        {
          "pitch": 57,
          "onset": 55.0,
          "duration": 0.5,
          "velocity": 80
        },
        {
          "pitch": 66,
          "onset": 55.0,
          "duration": 0.5,
          "velocity": 80
        },
        {
          "pitch": 66,
          "onset": 55.5,
          "duration": 0.5,
          "velocity": 80
        },
        {
          "pitch": 69,
          "onset": 55.5,
          "duration": 0.5,
          "velocity": 80
        },
        {
          "pitch": 67,
          "onset": 56.0,
          "duration": 0.25,
          "velocity": 80
        },
        {
          "pitch": 71,
          "onset": 56.0,
          "duration": 1.0,
          "velocity": 80
        },
        {
          "pitch": 71,
          "onset": 56.0,
          "duration": 0.25,
          "velocity": 80
        },
        {
          "pitch": 59,
          "onset": 56.25,
          "duration": 0.25,
          "velocity": 80
        },
        {
          "pitch": 67,
          "onset": 56.25,
          "duration": 0.25,
          "velocity": 80
        },
        {
          "pitch": 57,
          "onset": 56.5,
          "duration": 0.25,
          "velocity": 80
        },
        {
          "pitch": 66,
          "onset": 56.5,
          "duration": 0.25,
          "velocity": 80
        },
        {
          "pitch": 59,
          "onset": 56.75,
          "duration": 0.25,
          "velocity": 80
        },
        {
          "pitch": 67,
          "onset": 56.75,
          "duration": 0.25,
          "velocity": 80
        },
        {
          "pitch": 60,
          "onset": 57.0,
          "duration": 0.5,
          "velocity": 80
        },
        {
          "pitch": 64,
          "onset": 57.0,
          "duration": 0.5,
          "velocity": 80
        },
        {
          "pitch": 71,
          "onset": 57.0,
          "duration": 1.0,
          "velocity": 80
        },
        {
          "pitch": 55,
          "onset": 57.5,
          "duration": 0.75,
          "velocity": 80
        },
        {
          "pitch": 64,
          "onset": 57.5,
          "duration": 0.75,
          "velocity": 80
        },
        {
          "pitch": 69,
          "onset": 58.0,
          "duration": 1.0,
          "velocity": 80
        },
        {
          "pitch": 54,
          "onset": 58.25,
          "duration": 0.25,
          "velocity": 80
        },
        {
          "pitch": 62,
          "onset": 58.25,
          "duration": 0.25,
          "velocity": 80
        },
        {
          "pitch": 52,
          "onset": 58.5,
          "duration": 0.25,
          "velocity": 80
        },
        {
          "pitch": 60,
          "onset": 58.5,
          "duration": 0.25,
          "velocity": 80
        },
        {
          "pitch": 54,
          "onset": 58.75,
          "duration": 0.25,
          "velocity": 80
        },
        {
          "pitch": 62,
          "onset": 58.75,
          "duration": 0.25,
          "velocity": 80
        },
        {
          "pitch": 55,
          "onset": 59.0,
          "duration": 0.5,
          "velocity": 80
        },
        {
          "pitch": 59,
          "onset": 59.0,
          "duration": 0.5,
          "velocity": 80
        },
        {
          "pitch": 67,
          "onset": 59.0,
          "duration": 1.25,
          "velocity": 80
        },
        {
          "pitch": 59,
          "onset": 59.5,
          "duration": 0.5,
          "velocity": 80
        },
        {
          "pitch": 62,
          "onset": 59.5,
          "duration": 0.5,
          "velocity": 80
        },
        {
          "pitch": 57,
          "onset": 60.0,
          "duration": 0.5,
          "velocity": 80
        },
        {
          "pitch": 64,
          "onset": 60.0,
          "duration": 0.5,
          "velocity": 80
        },
        {
          "pitch": 69,
          "onset": 60.25,
          "duration": 0.25,
          "velocity": 80
        },
        {
          "pitch": 60,
          "onset": 60.5,
          "duration": 0.75,
          "velocity": 80
        },
        {
          "pitch": 64,
          "onset": 60.5,
          "duration": 0.5,
          "velocity": 80
        },
        {
          "pitch": 67,
          "onset": 60.5,
          "duration": 0.25,
          "velocity": 80
        },
        {
          "pitch": 69,
          "onset": 60.75,
          "duration": 0.25,
          "velocity": 80
        },
        {
          "pitch": 62,
          "onset": 61.0,
          "duration": 1.25,
          "velocity": 80
        },
        {
          "pitch": 66,
          "onset": 61.0,
          "duration": 0.0625,
          "velocity": 80
        },
        {
          "pitch": 67,
          "onset": 61.0625,
          "duration": 0.0625,
          "velocity": 80
        },
        {
          "pitch": 66,
          "onset": 61.125,
          "duration": 0.0625,
          "velocity": 80
        },
        {
          "pitch": 67,
          "onset": 61.1875,
          "duration": 0.0625,
          "velocity": 80
        },
        {
          "pitch": 59,
          "onset": 61.25,
          "duration": 0.25,
          "velocity": 80
        },
        {
          "pitch": 66,
          "onset": 61.25,
          "duration": 0.75,
          "velocity": 80
        },
        {
          "pitch": 60,
          "onset": 61.5,
          "duration": 0.25,
          "velocity": 80
        },
        {
          "pitch": 57,
          "onset": 61.75,
          "duration": 0.25,
          "velocity": 80
        },
        {
          "pitch": 59,
          "onset": 62.0,
          "duration": 0.25,
          "velocity": 80
        },
        {
          "pitch": 67,
          "onset": 62.0,
          "duration": 3.9688,
          "velocity": 80
        },
        {
          "pitch": 50,
          "onset": 62.25,
          "duration": 0.25,
          "velocity": 80
        },
        {
          "pitch": 59,
          "onset": 62.25,
          "duration": 0.25,
          "velocity": 80
        },
        {
          "pitch": 52,
          "onset": 62.5,
          "duration": 0.25,
          "velocity": 80
        },
        {
          "pitch": 60,
          "onset": 62.5,
          "duration": 0.25,
          "velocity": 80
        },
        {
          "pitch": 48,
          "onset": 62.75,
          "duration": 0.5,
          "velocity": 80
        },
        {
          "pitch": 57,
          "onset": 62.75,
          "duration": 0.5,
          "velocity": 80
        },
        {
          "pitch": 50,
          "onset": 63.25,
          "duration": 2.7188,
          "velocity": 80
        },
        {
          "pitch": 59,
          "onset": 63.25,
          "duration": 2.7188,
          "velocity": 80
        },
        {
          "pitch": 67,
          "onset": 67.75,
          "duration": 0.25,
          "velocity": 1
        }
      ]
    },
    {
      "role": "pedal",
      "notes": [
        {
          "pitch": 43,
          "onset": 0.25,
          "duration": 0.25,
          "velocity": 80
        },
        {
          "pitch": 42,
          "onset": 0.5,
          "duration": 0.25,
          "velocity": 80
        },
        {
          "pitch": 43,
          "onset": 0.75,
          "duration": 0.25,
          "velocity": 80
        },
        {
          "pitch": 40,
          "onset": 1.0,
          "duration": 0.5,
          "velocity": 80
        },
        {
          "pitch": 45,
          "onset": 1.5,
          "duration": 0.5,
          "velocity": 80
        },
        {
          "pitch": 38,
          "onset": 2.25,
          "duration": 0.25,
          "velocity": 80
        },
        {
          "pitch": 36,
          "onset": 2.5,
          "duration": 0.25,
          "velocity": 80
        },
        {
          "pitch": 38,
          "onset": 2.75,
          "duration": 0.25,
          "velocity": 80
        },
        {
          "pitch": 35,
          "onset": 3.0,
          "duration": 0.5,
          "velocity": 80
        },
        {
          "pitch": 31,
          "onset": 3.5,
          "duration": 0.5,
          "velocity": 80
        },
        {
          "pitch": 36,
          "onset": 4.25,
          "duration": 0.25,
          "velocity": 80
        },
        {
          "pitch": 35,
          "onset": 4.5,
          "duration": 0.25,
          "velocity": 80
        },
        {
          "pitch": 36,
          "onset": 4.75,
          "duration": 0.25,
          "velocity": 80
        },
        {
          "pitch": 33,
          "onset": 5.0,
          "duration": 0.5,
          "velocity": 80
        },
        {
          "pitch": 38,
          "onset": 5.5,
          "duration": 0.5,
          "velocity": 80
        },
        {
          "pitch": 31,
          "onset": 6.0,
          "duration": 1.0,
          "velocity": 80
        },
        {
          "pitch": 31,
          "onset": 7.25,
          "duration": 0.25,
          "velocity": 80
        },
        {
          "pitch": 30,
          "onset": 7.5,
          "duration": 0.25,
          "velocity": 80
        },
        {
          "pitch": 31,
          "onset": 7.75,
          "duration": 0.25,
          "velocity": 80
        },
        {
          "pitch": 28,
          "onset": 8.0,
          "duration": 0.5,
          "velocity": 80
        },
        {
          "pitch": 40,
          "onset": 8.5,
          "duration": 0.5,
          "velocity": 80
        },
        {
          "pitch": 40,
          "onset": 9.25,
          "duration": 0.25,
          "velocity": 80
        },
        {
          "pitch": 38,
          "onset": 9.5,
          "duration": 0.25,
          "velocity": 80
        },
        {
          "pitch": 40,
          "onset": 9.75,
          "duration": 0.25,
          "velocity": 80
        },
        {
          "pitch": 33,
          "onset": 10.0,
          "duration": 0.5,
          "velocity": 80
        },
        {
          "pitch": 45,
          "onset": 10.5,
          "duration": 0.5,
          "velocity": 80
        },
        {
          "pitch": 38,
          "onset": 11.25,
          "duration": 0.25,
          "velocity": 80
        },
        {
          "pitch": 36,
          "onset": 11.5,
          "duration": 0.25,
          "velocity": 80
        },
        {
          "pitch": 38,
          "onset": 11.75,
          "duration": 0.25,
          "velocity": 80
        },
        {
          "pitch": 31,
          "onset": 12.0,
          "duration": 0.5,
          "velocity": 80
        },
        {
          "pitch": 43,
          "onset": 12.5,
          "duration": 0.5,
          "velocity": 80
        },
        {
          "pitch": 31,
          "onset": 13.25,
          "duration": 0.25,
          "velocity": 80
        },
        {
          "pitch": 30,
          "onset": 13.5,
          "duration": 0.25,
          "velocity": 80
        },
        {
          "pitch": 31,
          "onset": 13.75,
          "duration": 0.25,
          "velocity": 80
        },
        {
          "pitch": 26,
          "onset": 14.0,
          "duration": 1.0,
          "velocity": 80
        },
        {
          "pitch": 38,
          "onset": 15.0,
          "duration": 1.0,
          "velocity": 80
        },
        {
          "pitch": 43,
          "onset": 16.25,
          "duration": 0.25,
          "velocity": 80
        },
        {
          "pitch": 42,
          "onset": 16.5,
          "duration": 0.25,
          "velocity": 80
        },
        {
          "pitch": 43,
          "onset": 16.75,
          "duration": 0.25,
          "velocity": 80
        },
        {
          "pitch": 40,
          "onset": 17.0,
          "duration": 0.5,
          "velocity": 80
        },
        {
          "pitch": 45,
          "onset": 17.5,
          "duration": 0.5,
          "velocity": 80
        },
        {
          "pitch": 38,
          "onset": 18.25,
          "duration": 0.25,
          "velocity": 80
        },
        {
          "pitch": 36,
          "onset": 18.5,
          "duration": 0.25,
          "velocity": 80
        },
        {
          "pitch": 38,
          "onset": 18.75,
          "duration": 0.25,
          "velocity": 80
        },
        {
          "pitch": 35,
          "onset": 19.0,
          "duration": 0.5,
          "velocity": 80
        },
        {
          "pitch": 31,
          "onset": 19.5,
          "duration": 0.5,
          "velocity": 80
        },
        {
          "pitch": 36,
          "onset": 20.25,
          "duration": 0.25,
          "velocity": 80
        },
        {
          "pitch": 35,
          "onset": 20.5,
          "duration": 0.25,
          "velocity": 80
        },
        {
          "pitch": 36,
          "onset": 20.75,
          "duration": 0.25,
          "velocity": 80
        },
        {
          "pitch": 33,
          "onset": 21.0,
          "duration": 0.5,
          "velocity": 80
        },
        {
          "pitch": 38,
          "onset": 21.5,
          "duration": 0.5,
          "velocity": 80
        },
        {
          "pitch": 31,
          "onset": 22.0,
          "duration": 1.0,
          "velocity": 80
        },
        {
          "pitch": 31,
          "onset": 23.25,
          "duration": 0.25,
          "velocity": 80
        },
        {
          "pitch": 30,
          "onset": 23.5,
          "duration": 0.25,
          "velocity": 80
        },
        {
          "pitch": 31,
          "onset": 23.75,
          "duration": 0.25,
          "velocity": 80
        },
        {
          "pitch": 28,
          "onset": 24.0,
          "duration": 0.5,
          "velocity": 80
        },
        {
          "pitch": 40,
          "onset": 24.5,
          "duration": 0.5,
          "velocity": 80
        },
        {
          "pitch": 40,
          "onset": 25.25,
          "duration": 0.25,
          "velocity": 80
        },
        {
          "pitch": 38,
          "onset": 25.5,
          "duration": 0.25,
          "velocity": 80
        },
        {
          "pitch": 40,
          "onset": 25.75,
          "duration": 0.25,
          "velocity": 80
        },
        {
          "pitch": 33,
          "onset": 26.0,
          "duration": 0.5,
          "velocity": 80
        },
        {
          "pitch": 45,
          "onset": 26.5,
          "duration": 0.5,
          "velocity": 80
        },
        {
          "pitch": 38,
          "onset": 27.25,
          "duration": 0.25,
          "velocity": 80
        },
        {
          "pitch": 36,
          "onset": 27.5,
          "duration": 0.25,
          "velocity": 80
        },
        {
          "pitch": 38,
          "onset": 27.75,
          "duration": 0.25,
          "velocity": 80
        },
        {
          "pitch": 31,
          "onset": 28.0,
          "duration": 0.5,
          "velocity": 80
        },
        {
          "pitch": 43,
          "onset": 28.5,
          "duration": 0.5,
          "velocity": 80
        },
        {
          "pitch": 31,
          "onset": 29.25,
          "duration": 0.25,
          "velocity": 80
        },
        {
          "pitch": 30,
          "onset": 29.5,
          "duration": 0.25,
          "velocity": 80
        },
        {
          "pitch": 31,
          "onset": 29.75,
          "duration": 0.25,
          "velocity": 80
        },
        {
          "pitch": 26,
          "onset": 30.0,
          "duration": 1.0,
          "velocity": 80
        },
        {
          "pitch": 38,
          "onset": 31.0,
          "duration": 1.0,
          "velocity": 80
        },
        {
          "pitch": 43,
          "onset": 32.25,
          "duration": 0.25,
          "velocity": 80
        },
        {
          "pitch": 42,
          "onset": 32.5,
          "duration": 0.25,
          "velocity": 80
        },
        {
          "pitch": 43,
          "onset": 32.75,
          "duration": 0.25,
          "velocity": 80
        },
        {
          "pitch": 40,
          "onset": 33.0,
          "duration": 0.5,
          "velocity": 80
        },
        {
          "pitch": 45,
          "onset": 33.5,
          "duration": 0.5,
          "velocity": 80
        },
        {
          "pitch": 38,
          "onset": 34.25,
          "duration": 0.25,
          "velocity": 80
        },
        {
          "pitch": 37,
          "onset": 34.5,
          "duration": 0.25,
          "velocity": 80
        },
        {
          "pitch": 38,
          "onset": 34.75,
          "duration": 0.25,
          "velocity": 80
        },
        {
          "pitch": 35,
          "onset": 35.0,
          "duration": 0.5,
          "velocity": 80
        },
        {
          "pitch": 40,
          "onset": 35.5,
          "duration": 0.5,
          "velocity": 80
        },
        {
          "pitch": 38,
          "onset": 36.25,
          "duration": 0.25,
          "velocity": 80
        },
        {
          "pitch": 37,
          "onset": 36.5,
          "duration": 0.25,
          "velocity": 80
        },
        {
          "pitch": 38,
          "onset": 36.75,
          "duration": 0.25,
          "velocity": 80
        },
        {
          "pitch": 31,
          "onset": 37.0,
          "duration": 0.5,
          "velocity": 80
        },
        {
          "pitch": 33,
          "onset": 37.5,
          "duration": 0.5,
          "velocity": 80
        },
        {
          "pitch": 26,
          "onset": 38.0,
          "duration": 1.0,
          "velocity": 80
        },
        {
          "pitch": 38,
          "onset": 39.25,
          "duration": 0.25,
          "velocity": 80
        },
        {
          "pitch": 36,
          "onset": 39.5,
          "duration": 0.25,
          "velocity": 80
        },
        {
          "pitch": 38,
          "onset": 39.75,
          "duration": 0.25,
          "velocity": 80
        },
        {
          "pitch": 31,
          "onset": 40.0,
          "duration": 0.5,
          "velocity": 80
        },
        {
          "pitch": 43,
          "onset": 40.5,
          "duration": 0.5,
          "velocity": 80
        },
        {
          "pitch": 37,
          "onset": 41.25,
          "duration": 0.25,
          "velocity": 80
        },
        {
          "pitch": 35,
          "onset": 41.5,
          "duration": 0.25,
          "velocity": 80
        },
        {
          "pitch": 37,
          "onset": 41.75,
          "duration": 0.25,
          "velocity": 80
        },
        {
          "pitch": 30,
          "onset": 42.0,
          "duration": 0.5,
          "velocity": 80
        },
        {
          "pitch": 42,
          "onset": 42.5,
          "duration": 0.5,
          "velocity": 80
        },
        {
          "pitch": 35,
          "onset": 43.25,
          "duration": 0.25,
          "velocity": 80
        },
        {
          "pitch": 33,
          "onset": 43.5,
          "duration": 0.25,
          "velocity": 80
        },
        {
          "pitch": 35,
          "onset": 43.75,
          "duration": 0.25,
          "velocity": 80
        },
        {
          "pitch": 28,
          "onset": 44.0,
          "duration": 0.5,
          "velocity": 80
        },
        {
          "pitch": 40,
          "onset": 44.5,
          "duration": 0.75,
          "velocity": 80
        },
        {
          "pitch": 39,
          "onset": 45.25,
          "duration": 0.25,
          "velocity": 80
        },
        {
          "pitch": 40,
          "onset": 45.5,
          "duration": 0.25,
          "velocity": 80
        },
        {
          "pitch": 34,
          "onset": 45.75,
          "duration": 0.25,
          "velocity": 80
        },
        {
          "pitch": 35,
          "onset": 46.0,
          "duration": 1.0,
          "velocity": 80
        },
        {
          "pitch": 35,
          "onset": 47.25,
          "duration": 0.25,
          "velocity": 80
        },
        {
          "pitch": 34,
          "onset": 47.5,
          "duration": 0.25,
          "velocity": 80
        },
        {
          "pitch": 35,
          "onset": 47.75,
          "duration": 0.25,
          "velocity": 80
        },
        {
          "pitch": 28,
          "onset": 48.0,
          "duration": 0.5,
          "velocity": 80
        },
        {
          "pitch": 40,
          "onset": 48.5,
          "duration": 0.5,
          "velocity": 80
        },
        {
          "pitch": 36,
          "onset": 49.25,
          "duration": 0.25,
          "velocity": 80
        },
        {
          "pitch": 35,
          "onset": 49.5,
          "duration": 0.25,
          "velocity": 80
        },
        {
          "pitch": 36,
          "onset": 49.75,
          "duration": 0.25,
          "velocity": 80
        },
        {
          "pitch": 30,
          "onset": 50.0,
          "duration": 0.5,
          "velocity": 80
        },
        {
          "pitch": 42,
          "onset": 50.5,
          "duration": 0.5,
          "velocity": 80
        },
        {
          "pitch": 38,
          "onset": 51.25,
          "duration": 0.25,
          "velocity": 80
        },
        {
          "pitch": 36,
          "onset": 51.5,
          "duration": 0.25,
          "velocity": 80
        },
        {
          "pitch": 38,
          "onset": 51.75,
          "duration": 0.25,
          "velocity": 80
        },
        {
          "pitch": 31,
          "onset": 52.0,
          "duration": 0.5,
          "velocity": 80
        },
        {
          "pitch": 43,
          "onset": 52.5,
          "duration": 0.5,
          "velocity": 80
        },
        {
          "pitch": 40,
          "onset": 53.25,
          "duration": 0.25,
          "velocity": 80
        },
        {
          "pitch": 38,
          "onset": 53.5,
          "duration": 0.25,
          "velocity": 80
        },
        {
          "pitch": 40,
          "onset": 53.75,
          "duration": 0.25,
          "velocity": 80
        },
        {
          "pitch": 33,
          "onset": 54.0,
          "duration": 0.5,
          "velocity": 80
        },
        {
          "pitch": 45,
          "onset": 54.5,
          "duration": 0.5,
          "velocity": 80
        },
        {
          "pitch": 38,
          "onset": 55.25,
          "duration": 0.25,
          "velocity": 80
        },
        {
          "pitch": 36,
          "onset": 55.5,
          "duration": 0.25,
          "velocity": 80
        },
        {
          "pitch": 38,
          "onset": 55.75,
          "duration": 0.25,
          "velocity": 80
        },
        {
          "pitch": 31,
          "onset": 56.0,
          "duration": 0.5,
          "velocity": 80
        },
        {
          "pitch": 43,
          "onset": 56.5,
          "duration": 0.5,
          "velocity": 80
        },
        {
          "pitch": 36,
          "onset": 57.25,
          "duration": 0.25,
          "velocity": 80
        },
        {
          "pitch": 35,
          "onset": 57.5,
          "duration": 0.25,
          "velocity": 80
        },
        {
          "pitch": 36,
          "onset": 57.75,
          "duration": 0.25,
          "velocity": 80
        },
        {
          "pitch": 30,
          "onset": 58.0,
          "duration": 0.5,
          "velocity": 80
        },
        {
          "pitch": 42,
          "onset": 58.5,
          "duration": 0.5,
          "velocity": 80
        },
        {
          "pitch": 43,
          "onset": 59.25,
          "duration": 0.25,
          "velocity": 80
        },
        {
          "pitch": 42,
          "onset": 59.5,
          "duration": 0.25,
          "velocity": 80
        },
        {
          "pitch": 43,
          "onset": 59.75,
          "duration": 0.25,
          "velocity": 80
        },
        {
          "pitch": 37,
          "onset": 60.0,
          "duration": 0.5,
          "velocity": 80
        },
        {
          "pitch": 33,
          "onset": 60.5,
          "duration": 0.5,
          "velocity": 80
        },
        {
          "pitch": 38,
          "onset": 61.25,
          "duration": 0.25,
          "velocity": 80
        },
        {
          "pitch": 36,
          "onset": 61.5,
          "duration": 0.25,
          "velocity": 80
        },
        {
          "pitch": 38,
          "onset": 61.75,
          "duration": 0.25,
          "velocity": 80
        },
        {
          "pitch": 31,
          "onset": 62.0,
          "duration": 3.9688,
          "velocity": 80
        }
      ]
    }
  ]
}