{
  "bwv": 648,
  "category": "schubler_chorale",
  "instrument": "organ",
  "form": "",
  "movement": null,
  "tonic": "D",
  "mode": "minor",
  "confidence": "inferred",
  "ticks_per_beat": 480,
  "duration_seconds": 109.0,
  "tempos": [
    {
      "tick": 0,
      "bpm": 60
    },
    {
      "tick": 46080,
      "bpm": 60
    },
    {
      "tick": 47520,
      "bpm": 60
    },
    {
      "tick": 48000,
      "bpm": 50
    }
  ],
  "time_signatures": [
    {
      "tick": 0,
      "numerator": 3,
      "denominator": 4
    }
  ],
  "track_type": "manual",
  "voice_count": 2,
  "total_notes": 432,
  "tracks": [
    {
      "role": "manual",
      "notes": [
        {
          "pitch": 62,
          "onset": 13.0,
          "duration": 0.5,
          "velocity": 80
        },
        {
          "pitch": 62,
          "onset": 13.5,
          "duration": 0.5,
          "velocity": 80
        },
        {
          "pitch": 61,
          "onset": 14.0,
          "duration": 0.5,
          "velocity": 80
        },
        {
          "pitch": 55,
          "onset": 14.5,
          "duration": 0.5,
          "velocity": 80
        },
        {
          "pitch": 54,
          "onset": 15.0,
          "duration": 0.5,
          "velocity": 80
        },
        {
          "pitch": 57,
          "onset": 15.5,
          "duration": 0.5,
          "velocity": 80
        },
        {
          "pitch": 60,
          "onset": 16.0,
          "duration": 0.5,
          "velocity": 80
        },
        {
          "pitch": 69,
          "onset": 16.0,
          "duration": 0.5,
          "velocity": 80
        },
        {
          "pitch": 60,
          "onset": 16.5,
          "duration": 0.5,
          "velocity": 80
        },
        {
          "pitch": 69,
          "onset": 16.5,
          "duration": 0.5,
          "velocity": 80
        },
        {
          "pitch": 59,
          "onset": 17.0,
          "duration": 0.5,
          "velocity": 80
        },
        {
          "pitch": 68,
          "onset": 17.0,
          "duration": 0.5,
          "velocity": 80
        },
        {
          "pitch": 53,
          "onset": 17.5,
          "duration": 0.5,
          "velocity": 80
        },
        {
          "pitch": 62,
          "onset": 17.5,
          "duration": 0.5,
          "velocity": 80
        },
        {
          "pitch": 52,
          "onset": 18.0,
          "duration": 0.5,
          "velocity": 80
        },
        {
          "pitch": 61,
          "onset": 18.0,
          "duration": 0.5,
          "velocity": 80
        },
        {
          "pitch": 55,
          "onset": 18.5,
          "duration": 0.5,
          "velocity": 80
        },
        {
          "pitch": 64,
          "onset": 18.5,
          "duration": 0.5,
          "velocity": 80
        },
        {
          "pitch": 58,
          "onset": 19.0,
          "duration": 0.5,
          "velocity": 80
        },
        {
          "pitch": 67,
          "onset": 19.0,
          "duration": 0.5,
          "velocity": 80
        },
        {
          "pitch": 58,
          "onset": 19.5,
          "duration": 0.5,
          "velocity": 80
        },
        {
          "pitch": 67,
          "onset": 19.5,
          "duration": 0.5,
          "velocity": 80
        },
        {
          "pitch": 57,
          "onset": 20.0,
          "duration": 0.5,
          "velocity": 80
        },
        {
          "pitch": 66,
          "onset": 20.0,
          "duration": 0.5,
          "velocity": 80
        },
        {
          "pitch": 60,
          "onset": 20.5,
          "duration": 0.5,
          "velocity": 80
        },
        {
          "pitch": 62,
          "onset": 20.5,
          "duration": 1.0,
          "velocity": 80
        },
        {
          "pitch": 59,
          "onset": 21.0,
          "duration": 0.5,
          "velocity": 80
        },
        {
          "pitch": 55,
          "onset": 21.5,
          "duration": 0.5,
          "velocity": 80
        },
        {
          "pitch": 61,
          "onset": 21.5,
          "duration": 0.5,
          "velocity": 80
        },
        {
          "pitch": 53,
          "onset": 22.0,
          "duration": 0.5,
          "velocity": 80
        },
        {
          "pitch": 62,
          "onset": 22.0,
          "duration": 0.5,
          "velocity": 80
        },
        {
          "pitch": 52,
          "onset": 22.5,
          "duration": 0.5,
          "velocity": 80
        },
        {
          "pitch": 62,
          "onset": 22.5,
          "duration": 0.5,
          "velocity": 80
        },
        {
          "pitch": 57,
          "onset": 23.0,
          "duration": 0.5,
          "velocity": 80
        },
        {
          "pitch": 64,
          "onset": 23.0,
          "duration": 0.5,
          "velocity": 80
        },
        {
          "pitch": 55,
          "onset": 23.5,
          "duration": 0.5,
          "velocity": 80
        },
        {
          "pitch": 61,
          "onset": 23.5,
          "duration": 0.5,
          "velocity": 80
        },
        {
          "pitch": 53,
          "onset": 24.0,
          "duration": 1.0,
          "velocity": 80
        },
        {
          "pitch": 62,
          "onset": 24.0,
          "duration": 1.0,
          "velocity": 80
        },
        {
          "pitch": 69,
          "onset": 24.0,
          "duration": 1.5,
          "velocity": 80
        },
        {
          "pitch": 72,
          "onset": 25.5,
          "duration": 1.5,
          "velocity": 80
        },
        {
          "pitch": 69,
          "onset": 27.0,
          "duration": 1.5,
          "velocity": 80
        },
        {
          "pitch": 67,
          "onset": 28.0,
          "duration": 0.5,
          "velocity": 80
        },
        {
          "pitch": 67,
          "onset": 28.5,
          "duration": 0.5,
          "velocity": 80
        },
        {
          "pitch": 69,
          "onset": 28.5,
          "duration": 1.5,
          "velocity": 80
        },
        {
          "pitch": 66,
          "onset": 29.0,
          "duration": 0.5,
          "velocity": 80
        },
        {
          "pitch": 60,
          "onset": 29.5,
          "duration": 0.5,
          "velocity": 80
        },
        {
          "pitch": 69,
          "onset": 29.5,
          "duration": 0.5,
          "velocity": 80
        },
        {
          "pitch": 58,
          "onset": 30.0,
          "duration": 0.5,
          "velocity": 80
        },
        {
          "pitch": 69,
          "onset": 30.0,
          "duration": 0.5,
          "velocity": 80
        },
        {
          "pitch": 70,
          "onset": 30.0,
          "duration": 1.5,
          "velocity": 80
        },
        {
          "pitch": 62,
          "onset": 30.5,
          "duration": 0.5,
          "velocity": 80
        },
        {
          "pitch": 67,
          "onset": 30.5,
          "duration": 0.5,
          "velocity": 80
        },
        {
          "pitch": 62,
          "onset": 31.0,
          "duration": 0.5,
          "velocity": 80
        },
        {
          "pitch": 65,
          "onset": 31.0,
          "duration": 0.5,
          "velocity": 80
        },
        {
          "pitch": 61,
          "onset": 31.5,
          "duration": 0.5,
          "velocity": 80
        },
        {
          "pitch": 64,
          "onset": 31.5,
          "duration": 0.5,
          "velocity": 80
        },
        {
          "pitch": 69,
          "onset": 31.5,
          "duration": 1.5,
          "velocity": 80
        },
        {
          "pitch": 62,
          "onset": 32.0,
          "duration": 0.5,
          "velocity": 80
        },
        {
          "pitch": 62,
          "onset": 32.5,
          "duration": 0.5,
          "velocity": 80
        },
        {
          "pitch": 66,
          "onset": 32.5,
          "duration": 0.5,
          "velocity": 80
        },
        {
          "pitch": 62,
          "onset": 33.0,
          "duration": 1.0,
          "velocity": 80
        },
        {
          "pitch": 67,
          "onset": 33.0,
          "duration": 1.5,
          "velocity": 80
        },
        {
          "pitch": 67,
          "onset": 33.0,
          "duration": 0.5,
          "velocity": 80
        },
        {
          "pitch": 69,
          "onset": 33.5,
          "duration": 0.5,
          "velocity": 80
        },
        {
          "pitch": 62,
          "onset": 34.0,
          "duration": 0.5,
          "velocity": 80
        },
        {
          "pitch": 70,
          "onset": 34.0,
          "duration": 0.5,
          "velocity": 80
        },
        {
          "pitch": 62,
          "onset": 34.5,
          "duration": 0.5,
          "velocity": 80
        },
        {
          "pitch": 67,
          "onset": 34.5,
          "duration": 1.5,
          "velocity": 80
        },
        {
          "pitch": 70,
          "onset": 34.5,
          "duration": 0.5,
          "velocity": 80
        },
        {
          "pitch": 60,
          "onset": 35.0,
          "duration": 0.5,
          "velocity": 80
        },
        {
          "pitch": 69,
          "onset": 35.0,
          "duration": 0.25,
          "velocity": 80
        },
        {
          "pitch": 67,
          "onset": 35.25,
          "duration": 0.25,
          "velocity": 80
        },
        {
          "pitch": 55,
          "onset": 35.5,
          "duration": 0.5,
          "velocity": 80
        },
        {
          "pitch": 65,
          "onset": 35.5,
          "duration": 0.25,
          "velocity": 80
        },
        {
          "pitch": 64,
          "onset": 35.75,
          "duration": 0.25,
          "velocity": 80
        },
        {
          "pitch": 60,
          "onset": 36.0,
          "duration": 1.0,
          "velocity": 80
        },
        {
          "pitch": 65,
          "onset": 36.0,
          "duration": 2.9688,
          "velocity": 80
        },
        {
          "pitch": 65,
          "onset": 36.0,
          "duration": 1.0,
          "velocity": 80
        },
        {
          "pitch": 57,
          "onset": 37.0,
          "duration": 0.5,
          "velocity": 80
        },
        {
          "pitch": 72,
          "onset": 37.0,
          "duration": 0.5,
          "velocity": 80
        },
        {
          "pitch": 53,
          "onset": 37.5,
          "duration": 0.5,
          "velocity": 80
        },
        {
          "pitch": 72,
          "onset": 37.5,
          "duration": 0.5,
          "velocity": 80
        },
        {
          "pitch": 55,
          "onset": 38.0,
          "duration": 0.5,
          "velocity": 80
        },
        {
          "pitch": 70,
          "onset": 38.0,
          "duration": 0.5,
          "velocity": 80
        },
        {
          "pitch": 56,
          "onset": 38.5,
          "duration": 0.5,
          "velocity": 80
        },
        {
          "pitch": 65,
          "onset": 38.5,
          "duration": 0.5,
          "velocity": 80
        },
        {
          "pitch": 55,
          "onset": 39.0,
          "duration": 0.5,
          "velocity": 80
        },
        {
          "pitch": 64,
          "onset": 39.0,
          "duration": 0.5,
          "velocity": 80
        },
        {
          "pitch": 60,
          "onset": 39.5,
          "duration": 0.5,
          "velocity": 80
        },
        {
          "pitch": 65,
          "onset": 39.5,
          "duration": 0.5,
          "velocity": 80
        },
        {
          "pitch": 58,
          "onset": 40.0,
          "duration": 0.5,
          "velocity": 80
        },
        {
          "pitch": 62,
          "onset": 40.0,
          "duration": 0.5,
          "velocity": 80
        },
        {
          "pitch": 56,
          "onset": 40.5,
          "duration": 0.5,
          "velocity": 80
        },
        {
          "pitch": 64,
          "onset": 40.5,
          "duration": 0.0938,
          "velocity": 80
        },
        {
          "pitch": 65,
          "onset": 40.5938,
          "duration": 0.0938,
          "velocity": 80
        },
        {
          "pitch": 64,
          "onset": 40.6562,
          "duration": 0.0938,
          "velocity": 80
        },
        {
          "pitch": 65,
          "onset": 40.75,
          "duration": 0.0938,
          "velocity": 80
        },
        {
          "pitch": 64,
          "onset": 40.8438,
          "duration": 0.0938,
          "velocity": 80
        },
        {
          "pitch": 65,
          "onset": 40.9062,
          "duration": 0.0938,
          "velocity": 80
        },
        {
          "pitch": 58,
          "onset": 41.0,
          "duration": 0.5,
          "velocity": 80
        },
        {
          "pitch": 64,
          "onset": 41.0,
          "duration": 0.5,
          "velocity": 80
        },
        {
          "pitch": 55,
          "onset": 41.5,
          "duration": 0.5,
          "velocity": 80
        },
        {
          "pitch": 65,
          "onset": 41.5,
          "duration": 0.5,
          "velocity": 80
        },
        {
          "pitch": 53,
          "onset": 42.0,
          "duration": 1.0,
          "velocity": 80
        },
        {
          "pitch": 65,
          "onset": 42.0,
          "duration": 1.0,
          "velocity": 80
        },
        {
          "pitch": 72,
          "onset": 43.0,
          "duration": 0.5,
          "velocity": 80
        },
        {
          "pitch": 72,
          "onset": 43.5,
          "duration": 0.5,
          "velocity": 80
        },
        {
          "pitch": 71,
          "onset": 44.0,
          "duration": 0.5,
          "velocity": 80
        },
        {
          "pitch": 65,
          "onset": 44.5,
          "duration": 0.5,
          "velocity": 80
        },
        {
          "pitch": 64,
          "onset": 45.0,
          "duration": 0.5,
          "velocity": 80
        },
        {
          "pitch": 67,
          "onset": 45.5,
          "duration": 0.5,
          "velocity": 80
        },
        {
          "pitch": 67,
          "onset": 46.0,
          "duration": 0.5,
          "velocity": 80
        },
        {
          "pitch": 70,
          "onset": 46.0,
          "duration": 0.5,
          "velocity": 80
        },
        {
          "pitch": 67,
          "onset": 46.5,
          "duration": 0.5,
          "velocity": 80
        },
        {
          "pitch": 70,
          "onset": 46.5,
          "duration": 0.5,
          "velocity": 80
        },
        {
          "pitch": 66,
          "onset": 47.0,
          "duration": 0.5,
          "velocity": 80
        },
        {
          "pitch": 69,
          "onset": 47.0,
          "duration": 0.5,
          "velocity": 80
        },
        {
          "pitch": 60,
          "onset": 47.5,
          "duration": 0.5,
          "velocity": 80
        },
        {
          "pitch": 63,
          "onset": 47.5,
          "duration": 0.5,
          "velocity": 80
        },
        {
          "pitch": 59,
          "onset": 48.0,
          "duration": 0.5,
          "velocity": 80
        },
        {
          "pitch": 62,
          "onset": 48.0,
          "duration": 0.5,
          "velocity": 80
        },
        {
          "pitch": 62,
          "onset": 48.5,
          "duration": 0.5,
          "velocity": 80
        },
        {
          "pitch": 65,
          "onset": 48.5,
          "duration": 0.5,
          "velocity": 80
        },
        {
          "pitch": 65,
          "onset": 49.0,
          "duration": 0.5,
          "velocity": 80
        },
        {
          "pitch": 68,
          "onset": 49.0,
          "duration": 0.5,
          "velocity": 80
        },
        {
          "pitch": 65,
          "onset": 49.5,
          "duration": 0.5,
          "velocity": 80
        },
        {
          "pitch": 68,
          "onset": 49.5,
          "duration": 0.5,
          "velocity": 80
        },
        {
          "pitch": 64,
          "onset": 50.0,
          "duration": 0.5,
          "velocity": 80
        },
        {
          "pitch": 67,
          "onset": 50.0,
          "duration": 0.5,
          "velocity": 80
        },
        {
          "pitch": 58,
          "onset": 50.5,
          "duration": 0.5,
          "velocity": 80
        },
        {
          "pitch": 61,
          "onset": 50.5,
          "duration": 0.5,
          "velocity": 80
        },
        {
          "pitch": 57,
          "onset": 51.0,
          "duration": 0.5,
          "velocity": 80
        },
        {
          "pitch": 60,
          "onset": 51.0,
          "duration": 0.5,
          "velocity": 80
        },
        {
          "pitch": 59,
          "onset": 51.5,
          "duration": 0.5,
          "velocity": 80
        },
        {
          "pitch": 65,
          "onset": 51.5,
          "duration": 0.5,
          "velocity": 80
        },
        {
          "pitch": 60,
          "onset": 52.0,
          "duration": 0.5,
          "velocity": 80
        },
        {
          "pitch": 63,
          "onset": 52.0,
          "duration": 0.5,
          "velocity": 80
        },
        {
          "pitch": 60,
          "onset": 52.5,
          "duration": 0.75,
          "velocity": 80
        },
        {
          "pitch": 62,
          "onset": 52.5,
          "duration": 0.5,
          "velocity": 80
        },
        {
          "pitch": 67,
          "onset": 53.0,
          "duration": 0.5,
          "velocity": 80
        },
        {
          "pitch": 62,
          "onset": 53.25,
          "duration": 0.25,
          "velocity": 80
        },
        {
          "pitch": 59,
          "onset": 53.5,
          "duration": 0.5,
          "velocity": 80
        },
        {
          "pitch": 65,
          "onset": 53.5,
          "duration": 0.5,
          "velocity": 80
        },
        {
          "pitch": 60,
          "onset": 54.0,
          "duration": 1.0,
          "velocity": 80
        },
        {
          "pitch": 64,
          "onset": 54.0,
          "duration": 0.5,
          "velocity": 80
        },
        {
          "pitch": 66,
          "onset": 54.5,
          "duration": 0.5,
          "velocity": 80
        },
        {
          "pitch": 58,
          "onset": 55.0,
          "duration": 0.5,
          "velocity": 80
        },
        {
          "pitch": 67,
          "onset": 55.0,
          "duration": 0.5,
          "velocity": 80
        },
        {
          "pitch": 57,
          "onset": 55.5,
          "duration": 0.5,
          "velocity": 80
        },
        {
          "pitch": 67,
          "onset": 55.5,
          "duration": 0.75,
          "velocity": 80
        },
        {
          "pitch": 62,
          "onset": 56.0,
          "duration": 0.5,
          "velocity": 80
        },
        {
          "pitch": 69,
          "onset": 56.25,
          "duration": 0.25,
          "velocity": 80
        },
        {
          "pitch": 60,
          "onset": 56.5,
          "duration": 0.5,
          "velocity": 80
        },
        {
          "pitch": 66,
          "onset": 56.5,
          "duration": 0.5,
          "velocity": 80
        },
        {
          "pitch": 59,
          "onset": 57.0,
          "duration": 0.5,
          "velocity": 80
        },
        {
          "pitch": 67,
          "onset": 57.0,
          "duration": 1.0,
          "velocity": 80
        },
        {
          "pitch": 61,
          "onset": 57.5,
          "duration": 0.5,
          "velocity": 80
        },
        {
          "pitch": 62,
          "onset": 58.0,
          "duration": 0.5,
          "velocity": 80
        },
        {
          "pitch": 65,
          "onset": 58.0,
          "duration": 0.5,
          "velocity": 80
        },
        {
          "pitch": 62,
          "onset": 58.5,
          "duration": 0.75,
          "velocity": 80
        },
        {
          "pitch": 64,
          "onset": 58.5,
          "duration": 0.5,
          "velocity": 80
        },
        {
          "pitch": 69,
          "onset": 59.0,
          "duration": 0.5,
          "velocity": 80
        },
        {
          "pitch": 64,
          "onset": 59.25,
          "duration": 0.25,
          "velocity": 80
        },
        {
          "pitch": 61,
          "onset": 59.5,
          "duration": 0.5,
          "velocity": 80
        },
        {
          "pitch": 67,
          "onset": 59.5,
          "duration": 0.5,
          "velocity": 80
        },
        {
          "pitch": 62,
          "onset": 60.0,
          "duration": 1.0,
          "velocity": 80
        },
        {
          "pitch": 66,
          "onset": 60.0,
          "duration": 0.5,
          "velocity": 80
        },
        {
          "pitch": 68,
          "onset": 60.5,
          "duration": 0.5,
          "velocity": 80
        },
        {
          "pitch": 60,
          "onset": 61.0,
          "duration": 0.5,
          "velocity": 80
        },
        {
          "pitch": 69,
          "onset": 61.0,
          "duration": 0.5,
          "velocity": 80
        },
        {
          "pitch": 59,
          "onset": 61.5,
          "duration": 0.5,
          "velocity": 80
        },
        {
          "pitch": 69,
          "onset": 61.5,
          "duration": 0.75,
          "velocity": 80
        },
        {
          "pitch": 64,
          "onset": 62.0,
          "duration": 0.5,
          "velocity": 80
        },
        {
          "pitch": 70,
          "onset": 62.25,
          "duration": 0.25,
          "velocity": 80
        },
        {
          "pitch": 62,
          "onset": 62.5,
          "duration": 0.5,
          "velocity": 80
        },
        {
          "pitch": 68,
          "onset": 62.5,
          "duration": 0.5,
          "velocity": 80
        },
        {
          "pitch": 60,
          "onset": 63.0,
          "duration": 0.5,
          "velocity": 80
        },
        {
          "pitch": 69,
          "onset": 63.0,
          "duration": 1.5,
          "velocity": 80
        },
        {
          "pitch": 69,
          "onset": 63.0,
          "duration": 1.0,
          "velocity": 80
        },
        {
          "pitch": 64,
          "onset": 63.5,
          "duration": 0.5,
          "velocity": 80
        },
        {
          "pitch": 67,
          "onset": 64.0,
          "duration": 0.5,
          "velocity": 80
        },
        {
          "pitch": 67,
          "onset": 64.5,
          "duration": 0.5,
          "velocity": 80
        },
        {
          "pitch": 72,
          "onset": 64.5,
          "duration": 1.5,
          "velocity": 80
        },
        {
          "pitch": 66,
          "onset": 65.0,
          "duration": 0.5,
          "velocity": 80
        },
        {
          "pitch": 60,
          "onset": 65.5,
          "duration": 0.5,
          "velocity": 80
        },
        {
          "pitch": 59,
          "onset": 66.0,
          "duration": 0.5,
          "velocity": 80
        },
        {
          "pitch": 67,
          "onset": 66.0,
          "duration": 1.5,
          "velocity": 80
        },
        {
          "pitch": 62,
          "onset": 66.5,
          "duration": 0.5,
          "velocity": 80
        },
        {
          "pitch": 64,
          "onset": 67.0,
          "duration": 0.5,
          "velocity": 80
        },
        {
          "pitch": 65,
          "onset": 67.5,
          "duration": 0.5,
          "velocity": 80
        },
        {
          "pitch": 67,
          "onset": 67.5,
          "duration": 1.5,
          "velocity": 80
        },
        {
          "pitch": 64,
          "onset": 68.0,
          "duration": 0.25,
          "velocity": 80
        },
        {
          "pitch": 62,
          "onset": 68.25,
          "duration": 0.25,
          "velocity": 80
        },
        {
          "pitch": 60,
          "onset": 68.5,
          "duration": 0.25,
          "velocity": 80
        },
        {
          "pitch": 59,
          "onset": 68.75,
          "duration": 0.25,
          "velocity": 80
        },
        {
          "pitch": 60,
          "onset": 69.0,
          "duration": 0.5,
          "velocity": 80
        },
        {
          "pitch": 67,
          "onset": 69.0,
          "duration": 1.5,
          "velocity": 80
        },
        {
          "pitch": 62,
          "onset": 69.5,
          "duration": 0.5,
          "velocity": 80
        },
        {
          "pitch": 67,
          "onset": 69.5,
          "duration": 0.5,
          "velocity": 80
        },
        {
          "pitch": 64,
          "onset": 70.0,
          "duration": 0.5,
          "velocity": 80
        },
        {
          "pitch": 72,
          "onset": 70.0,
          "duration": 0.5,
          "velocity": 80
        },
        {
          "pitch": 62,
          "onset": 70.5,
          "duration": 0.5,
          "velocity": 80
        },
        {
          "pitch": 67,
          "onset": 70.5,
          "duration": 1.5,
          "velocity": 80
        },
        {
          "pitch": 72,
          "onset": 70.5,
          "duration": 0.5,
          "velocity": 80
        },
        {
          "pitch": 55,
          "onset": 71.0,
          "duration": 0.5,
          "velocity": 80
        },
        {
          "pitch": 71,
          "onset": 71.0,
          "duration": 0.5,
          "velocity": 80
        },
        {
          "pitch": 62,
          "onset": 71.5,
          "duration": 0.5,
          "velocity": 80
        },
        {
          "pitch": 65,
          "onset": 71.5,
          "duration": 0.5,
          "velocity": 80
        },
        {
          "pitch": 64,
          "onset": 72.0,
          "duration": 1.0,
          "velocity": 80
        },
        {
          "pitch": 67,
          "onset": 72.0,
          "duration": 1.5,
          "velocity": 80
        },
        {
          "pitch": 67,
          "onset": 72.5,
          "duration": 0.5,
          "velocity": 80
        },
        {
          "pitch": 67,
          "onset": 73.0,
          "duration": 0.5,
          "velocity": 80
        },
        {
          "pitch": 70,
          "onset": 73.0,
          "duration": 0.5,
          "velocity": 80
        },
        {
          "pitch": 62,
          "onset": 73.5,
          "duration": 1.5,
          "velocity": 80
        },
        {
          "pitch": 67,
          "onset": 73.5,
          "duration": 0.5,
          "velocity": 80
        },
        {
          "pitch": 70,
          "onset": 73.5,
          "duration": 0.5,
          "velocity": 80
        },
        {
          "pitch": 64,
          "onset": 74.0,
          "duration": 0.5,
          "velocity": 80
        },
        {
          "pitch": 69,
          "onset": 74.0,
          "duration": 0.5,
          "velocity": 80
        },
        {
          "pitch": 60,
          "onset": 74.5,
          "duration": 0.5,
          "velocity": 80
        },
        {
          "pitch": 63,
          "onset": 74.5,
          "duration": 0.5,
          "velocity": 80
        },
        {
          "pitch": 58,
          "onset": 75.0,
          "duration": 0.5,
          "velocity": 80
        },
        {
          "pitch": 62,
          "onset": 75.0,
          "duration": 0.5,
          "velocity": 80
        },
        {
          "pitch": 65,
          "onset": 75.0,
          "duration": 1.5,
          "velocity": 80
        },
        {
          "pitch": 57,
          "onset": 75.5,
          "duration": 0.5,
          "velocity": 80
        },
        {
          "pitch": 61,
          "onset": 75.5,
          "duration": 0.5,
          "velocity": 80
        },
        {
          "pitch": 59,
          "onset": 76.0,
          "duration": 0.5,
          "velocity": 80
        },
        {
          "pitch": 62,
          "onset": 76.0,
          "duration": 0.5,
          "velocity": 80
        },
        {
          "pitch": 52,
          "onset": 76.5,
          "duration": 0.5,
          "velocity": 80
        },
        {
          "pitch": 61,
          "onset": 76.5,
          "duration": 0.5,
          "velocity": 80
        },
        {
          "pitch": 64,
          "onset": 76.5,
          "duration": 1.5,
          "velocity": 80
        },
        {
          "pitch": 62,
          "onset": 77.0,
          "duration": 0.5,
          "velocity": 80
        },
        {
          "pitch": 70,
          "onset": 77.0,
          "duration": 0.5,
          "velocity": 80
        },
        {
          "pitch": 61,
          "onset": 77.5,
          "duration": 0.5,
          "velocity": 80
        },
        {
          "pitch": 69,
          "onset": 77.5,
          "duration": 0.5,
          "velocity": 80
        },
        {
          "pitch": 62,
          "onset": 78.0,
          "duration": 5.9688,
          "velocity": 80
        },
        {
          "pitch": 62,
          "onset": 78.0,
          "duration": 1.0,
          "velocity": 80
        },
        {
          "pitch": 65,
          "onset": 78.0,
          "duration": 0.5,
          "velocity": 80
        },
        {
          "pitch": 69,
          "onset": 78.5,
          "duration": 0.5,
          "velocity": 80
        },
        {
          "pitch": 74,
          "onset": 79.0,
          "duration": 0.5,
          "velocity": 80
        },
        {
          "pitch": 74,
          "onset": 79.5,
          "duration": 0.5,
          "velocity": 80
        },
        {
          "pitch": 73,
          "onset": 80.0,
          "duration": 0.5,
          "velocity": 80
        },
        {
          "pitch": 67,
          "onset": 80.5,
          "duration": 0.5,
          "velocity": 80
        },
        {
          "pitch": 66,
          "onset": 81.0,
          "duration": 0.5,
          "velocity": 80
        },
        {
          "pitch": 62,
          "onset": 81.5,
          "duration": 0.5,
          "velocity": 80
        },
        {
          "pitch": 69,
          "onset": 81.5,
          "duration": 0.5,
          "velocity": 80
        },
        {
          "pitch": 69,
          "onset": 82.0,
          "duration": 0.5,
          "velocity": 80
        },
        {
          "pitch": 72,
          "onset": 82.0,
          "duration": 0.5,
          "velocity": 80
        },
        {
          "pitch": 69,
          "onset": 82.5,
          "duration": 0.5,
          "velocity": 80
        },
        {
          "pitch": 72,
          "onset": 82.5,
          "duration": 0.5,
          "velocity": 80
        },
        {
          "pitch": 67,
          "onset": 83.0,
          "duration": 0.5,
          "velocity": 80
        },
        {
          "pitch": 71,
          "onset": 83.0,
          "duration": 0.5,
          "velocity": 80
        },
        {
          "pitch": 62,
          "onset": 83.5,
          "duration": 0.5,
          "velocity": 80
        },
        {
          "pitch": 65,
          "onset": 83.5,
          "duration": 0.5,
          "velocity": 80
        },
        {
          "pitch": 61,
          "onset": 84.0,
          "duration": 0.5,
          "velocity": 80
        },
        {
          "pitch": 64,
          "onset": 84.0,
          "duration": 0.5,
          "velocity": 80
        },
        {
          "pitch": 64,
          "onset": 84.5,
          "duration": 0.5,
          "velocity": 80
        },
        {
          "pitch": 67,
          "onset": 84.5,
          "duration": 0.5,
          "velocity": 80
        },
        {
          "pitch": 67,
          "onset": 85.0,
          "duration": 0.5,
          "velocity": 80
        },
        {
          "pitch": 70,
          "onset": 85.0,
          "duration": 0.5,
          "velocity": 80
        },
        {
          "pitch": 67,
          "onset": 85.5,
          "duration": 0.5,
          "velocity": 80
        },
        {
          "pitch": 69,
          "onset": 85.5,
          "duration": 1.9688,
          "velocity": 80
        },
        {
          "pitch": 66,
          "onset": 86.0,
          "duration": 0.5,
          "velocity": 80
        },
        {
          "pitch": 60,
          "onset": 86.5,
          "duration": 0.5,
          "velocity": 80
        },
        {
          "pitch": 59,
          "onset": 87.0,
          "duration": 0.5,
          "velocity": 80
        },
        {
          "pitch": 61,
          "onset": 87.5,
          "duration": 0.5,
          "velocity": 80
        },
        {
          "pitch": 67,
          "onset": 87.5,
          "duration": 0.5,
          "velocity": 80
        },
        {
          "pitch": 62,
          "onset": 88.0,
          "duration": 0.5,
          "velocity": 80
        },
        {
          "pitch": 65,
          "onset": 88.0,
          "duration": 0.5,
          "velocity": 80
        },
        {
          "pitch": 62,
          "onset": 88.5,
          "duration": 0.5,
          "velocity": 80
        },
        {
          "pitch": 65,
          "onset": 88.5,
          "duration": 0.5,
          "velocity": 80
        },
        {
          "pitch": 64,
          "onset": 89.0,
          "duration": 0.5,
          "velocity": 80
        },
        {
          "pitch": 67,
          "onset": 89.0,
          "duration": 0.5,
          "velocity": 80
        },
        {
          "pitch": 61,
          "onset": 89.5,
          "duration": 0.5,
          "velocity": 80
        },
        {
          "pitch": 64,
          "onset": 89.5,
          "duration": 0.5,
          "velocity": 80
        },
        {
          "pitch": 62,
          "onset": 90.0,
          "duration": 1.5,
          "velocity": 80
        },
        {
          "pitch": 62,
          "onset": 107.5,
          "duration": 0.25,
          "velocity": 1
        }
      ]
    },
    {
      "role": "pedal",
      "notes": [
        {
          "pitch": 50,
          "onset": 1.0,
          "duration": 0.5,
          "velocity": 80
        },
        {
          "pitch": 50,
          "onset": 1.5,
          "duration": 0.5,
          "velocity": 80
        },
        {
          "pitch": 49,
          "onset": 2.0,
          "duration": 0.5,
          "velocity": 80
        },
        {
          "pitch": 43,
          "onset": 2.5,
          "duration": 0.5,
          "velocity": 80
        },
        {
          "pitch": 42,
          "onset": 3.0,
          "duration": 0.5,
          "velocity": 80
        },
        {
          "pitch": 45,
          "onset": 3.5,
          "duration": 0.5,
          "velocity": 80
        },
        {
          "pitch": 48,
          "onset": 4.0,
          "duration": 0.5,
          "velocity": 80
        },
        {
          "pitch": 48,
          "onset": 4.5,
          "duration": 0.5,
          "velocity": 80
        },
        {
          "pitch": 47,
          "onset": 5.0,
          "duration": 0.5,
          "velocity": 80
        },
        {
          "pitch": 41,
          "onset": 5.5,
          "duration": 0.5,
          "velocity": 80
        },
        {
          "pitch": 40,
          "onset": 6.0,
          "duration": 0.5,
          "velocity": 80
        },
        {
          "pitch": 43,
          "onset": 6.5,
          "duration": 0.5,
          "velocity": 80
        },
        {
          "pitch": 46,
          "onset": 7.0,
          "duration": 0.5,
          "velocity": 80
        },
        {
          "pitch": 46,
          "onset": 7.5,
          "duration": 0.5,
          "velocity": 80
        },
        {
          "pitch": 45,
          "onset": 8.0,
          "duration": 0.5,
          "velocity": 80
        },
        {
          "pitch": 46,
          "onset": 8.5,
          "duration": 0.5,
          "velocity": 80
        },
        {
          "pitch": 43,
          "onset": 9.0,
          "duration": 0.5,
          "velocity": 80
        },
        {
          "pitch": 41,
          "onset": 9.5,
          "duration": 0.5,
          "velocity": 80
        },
        {
          "pitch": 40,
          "onset": 10.0,
          "duration": 0.5,
          "velocity": 80
        },
        {
          "pitch": 45,
          "onset": 10.5,
          "duration": 1.0,
          "velocity": 80
        },
        {
          "pitch": 33,
          "onset": 11.5,
          "duration": 0.5,
          "velocity": 80
        },
        {
          "pitch": 38,
          "onset": 12.0,
          "duration": 1.0,
          "velocity": 80
        },
        {
          "pitch": 33,
          "onset": 13.5,
          "duration": 1.0,
          "velocity": 80
        },
        {
          "pitch": 38,
          "onset": 15.0,
          "duration": 1.0,
          "velocity": 80
        },
        {
          "pitch": 39,
          "onset": 16.0,
          "duration": 0.5,
          "velocity": 80
        },
        {
          "pitch": 40,
          "onset": 16.5,
          "duration": 1.0,
          "velocity": 80
        },
        {
          "pitch": 32,
          "onset": 17.5,
          "duration": 0.5,
          "velocity": 80
        },
        {
          "pitch": 33,
          "onset": 18.0,
          "duration": 1.0,
          "velocity": 80
        },
        {
          "pitch": 37,
          "onset": 19.0,
          "duration": 0.5,
          "velocity": 80
        },
        {
          "pitch": 38,
          "onset": 19.5,
          "duration": 1.0,
          "velocity": 80
        },
        {
          "pitch": 30,
          "onset": 20.5,
          "duration": 0.5,
          "velocity": 80
        },
        {
          "pitch": 31,
          "onset": 21.0,
          "duration": 1.0,
          "velocity": 80
        },
        {
          "pitch": 32,
          "onset": 22.0,
          "duration": 0.5,
          "velocity": 80
        },
        {
          "pitch": 33,
          "onset": 22.5,
          "duration": 1.0,
          "velocity": 80
        },
        {
          "pitch": 33,
          "onset": 23.5,
          "duration": 0.5,
          "velocity": 80
        },
        {
          "pitch": 26,
          "onset": 24.0,
          "duration": 1.0,
          "velocity": 80
        },
        {
          "pitch": 41,
          "onset": 25.0,
          "duration": 0.5,
          "velocity": 80
        },
        {
          "pitch": 41,
          "onset": 25.5,
          "duration": 0.5,
          "velocity": 80
        },
        {
          "pitch": 40,
          "onset": 26.0,
          "duration": 0.5,
          "velocity": 80
        },
        {
          "pitch": 31,
          "onset": 26.5,
          "duration": 0.5,
          "velocity": 80
        },
        {
          "pitch": 29,
          "onset": 27.0,
          "duration": 0.5,
          "velocity": 80
        },
        {
          "pitch": 36,
          "onset": 27.5,
          "duration": 0.5,
          "velocity": 80
        },
        {
          "pitch": 39,
          "onset": 28.0,
          "duration": 0.5,
          "velocity": 80
        },
        {
          "pitch": 38,
          "onset": 28.5,
          "duration": 1.0,
          "velocity": 80
        },
        {
          "pitch": 42,
          "onset": 29.5,
          "duration": 0.5,
          "velocity": 80
        },
        {
          "pitch": 31,
          "onset": 30.0,
          "duration": 1.0,
          "velocity": 80
        },
        {
          "pitch": 43,
          "onset": 31.0,
          "duration": 0.5,
          "velocity": 80
        },
        {
          "pitch": 43,
          "onset": 31.5,
          "duration": 0.5,
          "velocity": 80
        },
        {
          "pitch": 42,
          "onset": 32.0,
          "duration": 0.5,
          "velocity": 80
        },
        {
          "pitch": 36,
          "onset": 32.5,
          "duration": 0.5,
          "velocity": 80
        },
        {
          "pitch": 35,
          "onset": 33.0,
          "duration": 0.5,
          "velocity": 80
        },
        {
          "pitch": 38,
          "onset": 33.5,
          "duration": 0.5,
          "velocity": 80
        },
        {
          "pitch": 41,
          "onset": 34.0,
          "duration": 0.5,
          "velocity": 80
        },
        {
          "pitch": 41,
          "onset": 34.5,
          "duration": 0.5,
          "velocity": 80
        },
        {
          "pitch": 40,
          "onset": 35.0,
          "duration": 0.5,
          "velocity": 80
        },
        {
          "pitch": 34,
          "onset": 35.5,
          "duration": 0.5,
          "velocity": 80
        },
        {
          "pitch": 33,
          "onset": 36.0,
          "duration": 0.5,
          "velocity": 80
        },
        {
          "pitch": 36,
          "onset": 36.5,
          "duration": 0.5,
          "velocity": 80
        },
        {
          "pitch": 39,
          "onset": 37.0,
          "duration": 0.5,
          "velocity": 80
        },
        {
          "pitch": 39,
          "onset": 37.5,
          "duration": 0.5,
          "velocity": 80
        },
        {
          "pitch": 37,
          "onset": 38.0,
          "duration": 0.5,
          "velocity": 80
        },
        {
          "pitch": 36,
          "onset": 38.5,
          "duration": 0.5,
          "velocity": 80
        },
        {
          "pitch": 34,
          "onset": 39.0,
          "duration": 0.5,
          "velocity": 80
        },
        {
          "pitch": 32,
          "onset": 39.5,
          "duration": 0.5,
          "velocity": 80
        },
        {
          "pitch": 34,
          "onset": 40.0,
          "duration": 0.5,
          "velocity": 80
        },
        {
          "pitch": 36,
          "onset": 40.5,
          "duration": 1.0,
          "velocity": 80
        },
        {
          "pitch": 24,
          "onset": 41.5,
          "duration": 0.5,
          "velocity": 80
        },
        {
          "pitch": 29,
          "onset": 42.0,
          "duration": 1.0,
          "velocity": 80
        },
        {
          "pitch": 26,
          "onset": 43.5,
          "duration": 1.0,
          "velocity": 80
        },
        {
          "pitch": 24,
          "onset": 45.0,
          "duration": 1.0,
          "velocity": 80
        },
        {
          "pitch": 37,
          "onset": 46.0,
          "duration": 0.5,
          "velocity": 80
        },
        {
          "pitch": 38,
          "onset": 46.5,
          "duration": 1.0,
          "velocity": 80
        },
        {
          "pitch": 42,
          "onset": 47.5,
          "duration": 0.5,
          "velocity": 80
        },
        {
          "pitch": 43,
          "onset": 48.0,
          "duration": 1.0,
          "velocity": 80
        },
        {
          "pitch": 35,
          "onset": 49.0,
          "duration": 0.5,
          "velocity": 80
        },
        {
          "pitch": 36,
          "onset": 49.5,
          "duration": 1.0,
          "velocity": 80
        },
        {
          "pitch": 40,
          "onset": 50.5,
          "duration": 0.5,
          "velocity": 80
        },
        {
          "pitch": 41,
          "onset": 51.0,
          "duration": 1.0,
          "velocity": 80
        },
        {
          "pitch": 42,
          "onset": 52.0,
          "duration": 0.5,
          "velocity": 80
        },
        {
          "pitch": 43,
          "onset": 52.5,
          "duration": 1.0,
          "velocity": 80
        },
        {
          "pitch": 31,
          "onset": 53.5,
          "duration": 0.5,
          "velocity": 80
        },
        {
          "pitch": 36,
          "onset": 54.0,
          "duration": 1.0,
          "velocity": 80
        },
        {
          "pitch": 37,
          "onset": 55.0,
          "duration": 0.5,
          "velocity": 80
        },
        {
          "pitch": 38,
          "onset": 55.5,
          "duration": 1.0,
          "velocity": 80
        },
        {
          "pitch": 26,
          "onset": 56.5,
          "duration": 0.5,
          "velocity": 80
        },
        {
          "pitch": 31,
          "onset": 57.0,
          "duration": 1.0,
          "velocity": 80
        },
        {
          "pitch": 44,
          "onset": 58.0,
          "duration": 0.5,
          "velocity": 80
        },
        {
          "pitch": 45,
          "onset": 58.5,
          "duration": 1.0,
          "velocity": 80
        },
        {
          "pitch": 33,
          "onset": 59.5,
          "duration": 0.5,
          "velocity": 80
        },
        {
          "pitch": 38,
          "onset": 60.0,
          "duration": 1.0,
          "velocity": 80
        },
        {
          "pitch": 39,
          "onset": 61.0,
          "duration": 0.5,
          "velocity": 80
        },
        {
          "pitch": 40,
          "onset": 61.5,
          "duration": 1.0,
          "velocity": 80
        },
        {
          "pitch": 28,
          "onset": 62.5,
          "duration": 0.5,
          "velocity": 80
        },
        {
          "pitch": 33,
          "onset": 63.0,
          "duration": 1.0,
          "velocity": 80
        },
        {
          "pitch": 45,
          "onset": 64.5,
          "duration": 1.0,
          "velocity": 80
        },
        {
          "pitch": 43,
          "onset": 66.5,
          "duration": 0.5,
          "velocity": 80
        },
        {
          "pitch": 48,
          "onset": 67.0,
          "duration": 0.5,
          "velocity": 80
        },
        {
          "pitch": 48,
          "onset": 67.5,
          "duration": 0.5,
          "velocity": 80
        },
        {
          "pitch": 47,
          "onset": 68.0,
          "duration": 0.5,
          "velocity": 80
        },
        {
          "pitch": 41,
          "onset": 68.5,
          "duration": 0.5,
          "velocity": 80
        },
        {
          "pitch": 40,
          "onset": 69.0,
          "duration": 1.0,
          "velocity": 80
        },
        {
          "pitch": 36,
          "onset": 70.0,
          "duration": 0.5,
          "velocity": 80
        },
        {
          "pitch": 43,
          "onset": 70.5,
          "duration": 1.0,
          "velocity": 80
        },
        {
          "pitch": 35,
          "onset": 71.5,
          "duration": 0.5,
          "velocity": 80
        },
        {
          "pitch": 36,
          "onset": 72.0,
          "duration": 1.0,
          "velocity": 80
        },
        {
          "pitch": 28,
          "onset": 73.0,
          "duration": 0.5,
          "velocity": 80
        },
        {
          "pitch": 29,
          "onset": 73.5,
          "duration": 1.0,
          "velocity": 80
        },
        {
          "pitch": 30,
          "onset": 74.5,
          "duration": 0.5,
          "velocity": 80
        },
        {
          "pitch": 31,
          "onset": 75.0,
          "duration": 1.0,
          "velocity": 80
        },
        {
          "pitch": 32,
          "onset": 76.0,
          "duration": 0.5,
          "velocity": 80
        },
        {
          "pitch": 33,
          "onset": 76.5,
          "duration": 0.5,
          "velocity": 80
        },
        {
          "pitch": 31,
          "onset": 77.0,
          "duration": 0.5,
          "velocity": 80
        },
        {
          "pitch": 33,
          "onset": 77.5,
          "duration": 0.5,
          "velocity": 80
        },
        {
          "pitch": 26,
          "onset": 78.0,
          "duration": 0.5,
          "velocity": 80
        },
        {
          "pitch": 38,
          "onset": 78.5,
          "duration": 0.5,
          "velocity": 80
        },
        {
          "pitch": 41,
          "onset": 79.0,
          "duration": 0.5,
          "velocity": 80
        },
        {
          "pitch": 43,
          "onset": 79.5,
          "duration": 0.5,
          "velocity": 80
        },
        {
          "pitch": 45,
          "onset": 80.0,
          "duration": 0.5,
          "velocity": 80
        },
        {
          "pitch": 46,
          "onset": 80.5,
          "duration": 0.5,
          "velocity": 80
        },
        {
          "pitch": 48,
          "onset": 81.0,
          "duration": 0.5,
          "velocity": 80
        },
        {
          "pitch": 42,
          "onset": 81.5,
          "duration": 0.5,
          "velocity": 80
        },
        {
          "pitch": 38,
          "onset": 82.0,
          "duration": 0.5,
          "velocity": 80
        },
        {
          "pitch": 43,
          "onset": 82.5,
          "duration": 1.0,
          "velocity": 80
        },
        {
          "pitch": 44,
          "onset": 83.5,
          "duration": 0.5,
          "velocity": 80
        },
        {
          "pitch": 45,
          "onset": 84.0,
          "duration": 1.0,
          "velocity": 80
        },
        {
          "pitch": 37,
          "onset": 85.0,
          "duration": 0.5,
          "velocity": 80
        },
        {
          "pitch": 38,
          "onset": 85.5,
          "duration": 1.0,
          "velocity": 80
        },
        {
          "pitch": 42,
          "onset": 86.5,
          "duration": 0.5,
          "velocity": 80
        },
        {
          "pitch": 43,
          "onset": 87.0,
          "duration": 1.0,
          "velocity": 80
        },
        {
          "pitch": 44,
          "onset": 88.0,
          "duration": 0.5,
          "velocity": 80
        },
        {
          "pitch": 45,
          "onset": 88.5,
          "duration": 1.0,
          "velocity": 80
        },
        {
          "pitch": 33,
          "onset": 89.5,
          "duration": 0.5,
          "velocity": 80
        },
        {
          "pitch": 26,
          "onset": 90.0,
          "duration": 1.0,
          "velocity": 80
        },
        {
          "pitch": 50,
          "onset": 91.0,
          "duration": 0.5,
          "velocity": 80
        },
        {
          "pitch": 50,
          "onset": 91.5,
          "duration": 0.5,
          "velocity": 80
        },
        {
          "pitch": 49,
          "onset": 92.0,
          "duration": 0.5,
          "velocity": 80
        },
        {
          "pitch": 43,
          "onset": 92.5,
          "duration": 0.5,
          "velocity": 80
        },
        {
          "pitch": 42,
          "onset": 93.0,
          "duration": 0.5,
          "velocity": 80
        },
        {
          "pitch": 45,
          "onset": 93.5,
          "duration": 0.5,
          "velocity": 80
        },
        {
          "pitch": 48,
          "onset": 94.0,
          "duration": 0.5,
          "velocity": 80
        },
        {
          "pitch": 48,
          "onset": 94.5,
          "duration": 0.5,
          "velocity": 80
        },
        {
          "pitch": 47,
          "onset": 95.0,
          "duration": 0.5,
          "velocity": 80
        },
        {
          "pitch": 41,
          "onset": 95.5,
          "duration": 0.5,
          "velocity": 80
        },
        {
          "pitch": 40,
          "onset": 96.0,
          "duration": 0.5,
          "velocity": 80
        },
        {
          "pitch": 43,
          "onset": 96.5,
          "duration": 0.5,
          "velocity": 80
        },
        {
          "pitch": 46,
          "onset": 97.0,
          "duration": 0.5,
          "velocity": 80
        },
        {
          "pitch": 46,
          "onset": 97.5,
          "duration": 0.5,
          "velocity": 80
        },
        {
          "pitch": 45,
          "onset": 98.0,
          "duration": 0.5,
          "velocity": 80
        },
        {
          "pitch": 46,
          "onset": 98.5,
          "duration": 0.5,
          "velocity": 80
        },
        {
          "pitch": 43,
          "onset": 99.0,
          "duration": 0.5,
          "velocity": 80
        },
        {
          "pitch": 41,
          "onset": 99.5,
          "duration": 0.5,
          "velocity": 80
        },
        {
          "pitch": 40,
          "onset": 100.0,
          "duration": 0.5,
          "velocity": 80
        },
        {
          "pitch": 45,
          "onset": 100.5,
          "duration": 1.0,
          "velocity": 80
        },
        {
          "pitch": 33,
          "onset": 101.5,
          "duration": 0.75,
          "velocity": 80
        },
        {
          "pitch": 38,
          "onset": 102.25,
          "duration": 2.7188,
          "velocity": 80
        }
      ]
    }
  ]
}