{
  "bwv": 616,
  "category": "orgelbuchlein",
  "instrument": "organ",
  "form": "",
  "movement": null,
  "tonic": "D",
  "mode": "minor",
  "confidence": "inferred",
  "ticks_per_beat": 480,
  "duration_seconds": 122.0,
  "tempos": [
    {
      "tick": 0,
      "bpm": 30
    }
  ],
  "time_signatures": [
    {
      "tick": 0,
      "numerator": 4,
      "denominator": 4
    }
  ],
  "track_type": "manual",
  "voice_count": 2,
  "total_notes": 577,
  "tracks": [
    {
      "role": "manual",
      "notes": [
        {
          "pitch": 50,
          "onset": 0.0,
          "duration": 0.25,
          "velocity": 60
        },
        {
          "pitch": 62,
          "onset": 0.0,
          "duration": 2.25,
          "velocity": 60
        },
        {
          "pitch": 52,
          "onset": 0.25,
          "duration": 0.125,
          "velocity": 60
        },
        {
          "pitch": 53,
          "onset": 0.375,
          "duration": 0.125,
          "velocity": 60
        },
        {
          "pitch": 52,
          "onset": 0.5,
          "duration": 0.25,
          "velocity": 60
        },
        {
          "pitch": 53,
          "onset": 0.75,
          "duration": 0.125,
          "velocity": 60
        },
        {
          "pitch": 55,
          "onset": 0.875,
          "duration": 0.125,
          "velocity": 60
        },
        {
          "pitch": 53,
          "onset": 1.0,
          "duration": 0.25,
          "velocity": 60
        },
        {
          "pitch": 55,
          "onset": 1.25,
          "duration": 0.125,
          "velocity": 60
        },
        {
          "pitch": 57,
          "onset": 1.375,
          "duration": 0.125,
          "velocity": 60
        },
        {
          "pitch": 55,
          "onset": 1.5,
          "duration": 0.25,
          "velocity": 60
        },
        {
          "pitch": 57,
          "onset": 1.75,
          "duration": 0.125,
          "velocity": 60
        },
        {
          "pitch": 58,
          "onset": 1.875,
          "duration": 0.125,
          "velocity": 60
        },
        {
          "pitch": 57,
          "onset": 2.0,
          "duration": 1.25,
          "velocity": 60
        },
        {
          "pitch": 69,
          "onset": 2.0,
          "duration": 1.0,
          "velocity": 60
        },
        {
          "pitch": 64,
          "onset": 2.25,
          "duration": 0.125,
          "velocity": 60
        },
        {
          "pitch": 65,
          "onset": 2.375,
          "duration": 0.125,
          "velocity": 60
        },
        {
          "pitch": 64,
          "onset": 2.5,
          "duration": 0.25,
          "velocity": 60
        },
        {
          "pitch": 65,
          "onset": 2.75,
          "duration": 0.125,
          "velocity": 60
        },
        {
          "pitch": 67,
          "onset": 2.875,
          "duration": 0.125,
          "velocity": 60
        },
        {
          "pitch": 65,
          "onset": 3.0,
          "duration": 1.25,
          "velocity": 60
        },
        {
          "pitch": 69,
          "onset": 3.0,
          "duration": 1.0,
          "velocity": 60
        },
        {
          "pitch": 59,
          "onset": 3.25,
          "duration": 0.125,
          "velocity": 60
        },
        {
          "pitch": 60,
          "onset": 3.375,
          "duration": 0.125,
          "velocity": 60
        },
        {
          "pitch": 62,
          "onset": 3.5,
          "duration": 0.25,
          "velocity": 60
        },
        {
          "pitch": 64,
          "onset": 3.75,
          "duration": 0.125,
          "velocity": 60
        },
        {
          "pitch": 65,
          "onset": 3.875,
          "duration": 0.125,
          "velocity": 60
        },
        {
          "pitch": 59,
          "onset": 4.0,
          "duration": 0.5,
          "velocity": 60
        },
        {
          "pitch": 67,
          "onset": 4.0,
          "duration": 1.0,
          "velocity": 60
        },
        {
          "pitch": 64,
          "onset": 4.25,
          "duration": 0.125,
          "velocity": 60
        },
        {
          "pitch": 62,
          "onset": 4.375,
          "duration": 0.125,
          "velocity": 60
        },
        {
          "pitch": 60,
          "onset": 4.5,
          "duration": 1.0,
          "velocity": 60
        },
        {
          "pitch": 64,
          "onset": 4.5,
          "duration": 0.25,
          "velocity": 60
        },
        {
          "pitch": 62,
          "onset": 4.75,
          "duration": 0.125,
          "velocity": 60
        },
        {
          "pitch": 60,
          "onset": 4.875,
          "duration": 0.125,
          "velocity": 60
        },
        {
          "pitch": 62,
          "onset": 5.0,
          "duration": 0.5,
          "velocity": 60
        },
        {
          "pitch": 74,
          "onset": 5.0,
          "duration": 1.0,
          "velocity": 60
        },
        {
          "pitch": 59,
          "onset": 5.5,
          "duration": 1.0,
          "velocity": 60
        },
        {
          "pitch": 64,
          "onset": 5.5,
          "duration": 0.75,
          "velocity": 60
        },
        {
          "pitch": 72,
          "onset": 6.0,
          "duration": 0.875,
          "velocity": 60
        },
        {
          "pitch": 66,
          "onset": 6.25,
          "duration": 0.125,
          "velocity": 60
        },
        {
          "pitch": 68,
          "onset": 6.375,
          "duration": 0.125,
          "velocity": 60
        },
        {
          "pitch": 57,
          "onset": 6.5,
          "duration": 1.0,
          "velocity": 60
        },
        {
          "pitch": 69,
          "onset": 6.5,
          "duration": 0.25,
          "velocity": 60
        },
        {
          "pitch": 71,
          "onset": 6.75,
          "duration": 0.125,
          "velocity": 60
        },
        {
          "pitch": 72,
          "onset": 6.875,
          "duration": 0.125,
          "velocity": 60
        },
        {
          "pitch": 65,
          "onset": 7.0,
          "duration": 0.5,
          "velocity": 60
        },
        {
          "pitch": 71,
          "onset": 7.0,
          "duration": 1.0,
          "velocity": 60
        },
        {
          "pitch": 55,
          "onset": 7.5,
          "duration": 0.75,
          "velocity": 60
        },
        {
          "pitch": 59,
          "onset": 7.5,
          "duration": 0.5,
          "velocity": 60
        },
        {
          "pitch": 64,
          "onset": 8.0,
          "duration": 0.5,
          "velocity": 60
        },
        {
          "pitch": 69,
          "onset": 8.0,
          "duration": 1.9688,
          "velocity": 60
        },
        {
          "pitch": 53,
          "onset": 8.25,
          "duration": 0.125,
          "velocity": 60
        },
        {
          "pitch": 52,
          "onset": 8.375,
          "duration": 0.125,
          "velocity": 60
        },
        {
          "pitch": 53,
          "onset": 8.5,
          "duration": 0.25,
          "velocity": 60
        },
        {
          "pitch": 62,
          "onset": 8.5,
          "duration": 0.75,
          "velocity": 60
        },
        {
          "pitch": 52,
          "onset": 8.75,
          "duration": 0.125,
          "velocity": 60
        },
        {
          "pitch": 50,
          "onset": 8.875,
          "duration": 0.125,
          "velocity": 60
        },
        {
          "pitch": 52,
          "onset": 9.0,
          "duration": 0.75,
          "velocity": 60
        },
        {
          "pitch": 60,
          "onset": 9.25,
          "duration": 0.125,
          "velocity": 60
        },
        {
          "pitch": 59,
          "onset": 9.375,
          "duration": 0.125,
          "velocity": 60
        },
        {
          "pitch": 60,
          "onset": 9.5,
          "duration": 0.5,
          "velocity": 60
        },
        {
          "pitch": 54,
          "onset": 9.75,
          "duration": 0.125,
          "velocity": 60
        },
        {
          "pitch": 56,
          "onset": 9.875,
          "duration": 0.125,
          "velocity": 60
        },
        {
          "pitch": 57,
          "onset": 10.0,
          "duration": 0.25,
          "velocity": 60
        },
        {
          "pitch": 72,
          "onset": 10.0,
          "duration": 1.9688,
          "velocity": 60
        },
        {
          "pitch": 59,
          "onset": 10.25,
          "duration": 0.125,
          "velocity": 60
        },
        {
          "pitch": 60,
          "onset": 10.375,
          "duration": 0.125,
          "velocity": 60
        },
        {
          "pitch": 59,
          "onset": 10.5,
          "duration": 0.25,
          "velocity": 60
        },
        {
          "pitch": 60,
          "onset": 10.75,
          "duration": 0.125,
          "velocity": 60
        },
        {
          "pitch": 62,
          "onset": 10.875,
          "duration": 0.125,
          "velocity": 60
        },
        {
          "pitch": 60,
          "onset": 11.0,
          "duration": 0.25,
          "velocity": 60
        },
        {
          "pitch": 62,
          "onset": 11.25,
          "duration": 0.125,
          "velocity": 60
        },
        {
          "pitch": 64,
          "onset": 11.375,
          "duration": 0.125,
          "velocity": 60
        },
        {
          "pitch": 62,
          "onset": 11.5,
          "duration": 0.25,
          "velocity": 60
        },
        {
          "pitch": 64,
          "onset": 11.75,
          "duration": 0.125,
          "velocity": 60
        },
        {
          "pitch": 65,
          "onset": 11.875,
          "duration": 0.125,
          "velocity": 60
        },
        {
          "pitch": 64,
          "onset": 12.0,
          "duration": 1.75,
          "velocity": 60
        },
        {
          "pitch": 69,
          "onset": 12.0,
          "duration": 0.25,
          "velocity": 60
        },
        {
          "pitch": 71,
          "onset": 12.25,
          "duration": 0.125,
          "velocity": 60
        },
        {
          "pitch": 72,
          "onset": 12.375,
          "duration": 0.125,
          "velocity": 60
        },
        {
          "pitch": 71,
          "onset": 12.5,
          "duration": 0.25,
          "velocity": 60
        },
        {
          "pitch": 72,
          "onset": 12.75,
          "duration": 0.125,
          "velocity": 60
        },
        {
          "pitch": 74,
          "onset": 12.875,
          "duration": 0.125,
          "velocity": 60
        },
        {
          "pitch": 69,
          "onset": 13.0,
          "duration": 0.25,
          "velocity": 60
        },
        {
          "pitch": 72,
          "onset": 13.0,
          "duration": 1.0,
          "velocity": 60
        },
        {
          "pitch": 67,
          "onset": 13.25,
          "duration": 0.125,
          "velocity": 60
        },
        {
          "pitch": 65,
          "onset": 13.375,
          "duration": 0.125,
          "velocity": 60
        },
        {
          "pitch": 67,
          "onset": 13.5,
          "duration": 0.25,
          "velocity": 60
        },
        {
          "pitch": 62,
          "onset": 13.75,
          "duration": 0.125,
          "velocity": 60
        },
        {
          "pitch": 65,
          "onset": 13.75,
          "duration": 0.125,
          "velocity": 60
        },
        {
          "pitch": 60,
          "onset": 13.875,
          "duration": 0.125,
          "velocity": 60
        },
        {
          "pitch": 64,
          "onset": 13.875,
          "duration": 0.125,
          "velocity": 60
        },
        {
          "pitch": 62,
          "onset": 14.0,
          "duration": 0.25,
          "velocity": 60
        },
        {
          "pitch": 65,
          "onset": 14.0,
          "duration": 0.5,
          "velocity": 60
        },
        {
          "pitch": 71,
          "onset": 14.0,
          "duration": 0.5,
          "velocity": 60
        },
        {
          "pitch": 60,
          "onset": 14.25,
          "duration": 0.125,
          "velocity": 60
        },
        {
          "pitch": 59,
          "onset": 14.375,
          "duration": 0.125,
          "velocity": 60
        },
        {
          "pitch": 60,
          "onset": 14.5,
          "duration": 0.25,
          "velocity": 60
        },
        {
          "pitch": 63,
          "onset": 14.5,
          "duration": 0.5,
          "velocity": 60
        },
        {
          "pitch": 69,
          "onset": 14.5,
          "duration": 0.5,
          "velocity": 60
        },
        {
          "pitch": 59,
          "onset": 14.75,
          "duration": 0.125,
          "velocity": 60
        },
        {
          "pitch": 57,
          "onset": 14.875,
          "duration": 0.125,
          "velocity": 60
        },
        {
          "pitch": 56,
          "onset": 15.0,
          "duration": 1.0,
          "velocity": 60
        },
        {
          "pitch": 71,
          "onset": 15.0,
          "duration": 1.0,
          "velocity": 60
        },
        {
          "pitch": 59,
          "onset": 15.25,
          "duration": 0.125,
          "velocity": 60
        },
        {
          "pitch": 60,
          "onset": 15.375,
          "duration": 0.125,
          "velocity": 60
        },
        {
          "pitch": 62,
          "onset": 15.5,
          "duration": 0.25,
          "velocity": 60
        },
        {
          "pitch": 64,
          "onset": 15.75,
          "duration": 0.125,
          "velocity": 60
        },
        {
          "pitch": 65,
          "onset": 15.875,
          "duration": 0.125,
          "velocity": 60
        },
        {
          "pitch": 61,
          "onset": 16.0,
          "duration": 0.5,
          "velocity": 60
        },
        {
          "pitch": 69,
          "onset": 16.0,
          "duration": 1.75,
          "velocity": 60
        },
        {
          "pitch": 57,
          "onset": 16.25,
          "duration": 0.125,
          "velocity": 60
        },
        {
          "pitch": 55,
          "onset": 16.375,
          "duration": 0.125,
          "velocity": 60
        },
        {
          "pitch": 53,
          "onset": 16.5,
          "duration": 0.25,
          "velocity": 60
        },
        {
          "pitch": 62,
          "onset": 16.5,
          "duration": 0.5,
          "velocity": 60
        },
        {
          "pitch": 52,
          "onset": 16.75,
          "duration": 0.125,
          "velocity": 60
        },
        {
          "pitch": 50,
          "onset": 16.875,
          "duration": 0.125,
          "velocity": 60
        },
        {
          "pitch": 49,
          "onset": 17.0,
          "duration": 0.25,
          "velocity": 60
        },
        {
          "pitch": 64,
          "onset": 17.0,
          "duration": 0.25,
          "velocity": 60
        },
        {
          "pitch": 50,
          "onset": 17.25,
          "duration": 0.125,
          "velocity": 60
        },
        {
          "pitch": 65,
          "onset": 17.25,
          "duration": 0.125,
          "velocity": 60
        },
        {
          "pitch": 52,
          "onset": 17.375,
          "duration": 0.125,
          "velocity": 60
        },
        {
          "pitch": 67,
          "onset": 17.375,
          "duration": 0.125,
          "velocity": 60
        },
        {
          "pitch": 51,
          "onset": 17.5,
          "duration": 0.25,
          "velocity": 60
        },
        {
          "pitch": 66,
          "onset": 17.5,
          "duration": 0.25,
          "velocity": 60
        },
        {
          "pitch": 52,
          "onset": 17.75,
          "duration": 0.125,
          "velocity": 60
        },
        {
          "pitch": 67,
          "onset": 17.75,
          "duration": 0.125,
          "velocity": 60
        },
        {
          "pitch": 54,
          "onset": 17.875,
          "duration": 0.125,
          "velocity": 60
        },
        {
          "pitch": 69,
          "onset": 17.875,
          "duration": 0.125,
          "velocity": 60
        },
        {
          "pitch": 52,
          "onset": 18.0,
          "duration": 0.25,
          "velocity": 60
        },
        {
          "pitch": 67,
          "onset": 18.0,
          "duration": 0.25,
          "velocity": 60
        },
        {
          "pitch": 71,
          "onset": 18.0,
          "duration": 1.9688,
          "velocity": 60
        },
        {
          "pitch": 54,
          "onset": 18.25,
          "duration": 0.125,
          "velocity": 60
        },
        {
          "pitch": 66,
          "onset": 18.25,
          "duration": 0.125,
          "velocity": 60
        },
        {
          "pitch": 55,
          "onset": 18.375,
          "duration": 0.125,
          "velocity": 60
        },
        {
          "pitch": 64,
          "onset": 18.375,
          "duration": 0.125,
          "velocity": 60
        },
        {
          "pitch": 54,
          "onset": 18.5,
          "duration": 0.25,
          "velocity": 60
        },
        {
          "pitch": 62,
          "onset": 18.5,
          "duration": 0.25,
          "velocity": 60
        },
        {
          "pitch": 55,
          "onset": 18.75,
          "duration": 0.125,
          "velocity": 60
        },
        {
          "pitch": 64,
          "onset": 18.75,
          "duration": 0.125,
          "velocity": 60
        },
        {
          "pitch": 57,
          "onset": 18.875,
          "duration": 0.125,
          "velocity": 60
        },
        {
          "pitch": 66,
          "onset": 18.875,
          "duration": 0.125,
          "velocity": 60
        },
        {
          "pitch": 55,
          "onset": 19.0,
          "duration": 1.25,
          "velocity": 60
        },
        {
          "pitch": 64,
          "onset": 19.0,
          "duration": 0.5,
          "velocity": 60
        },
        {
          "pitch": 62,
          "onset": 19.5,
          "duration": 0.5,
          "velocity": 60
        },
        {
          "pitch": 60,
          "onset": 20.0,
          "duration": 0.5,
          "velocity": 60
        },
        {
          "pitch": 72,
          "onset": 20.0,
          "duration": 1.0,
          "velocity": 60
        },
        {
          "pitch": 57,
          "onset": 20.25,
          "duration": 0.125,
          "velocity": 60
        },
        {
          "pitch": 59,
          "onset": 20.375,
          "duration": 0.125,
          "velocity": 60
        },
        {
          "pitch": 60,
          "onset": 20.5,
          "duration": 0.25,
          "velocity": 60
        },
        {
          "pitch": 69,
          "onset": 20.5,
          "duration": 0.75,
          "velocity": 60
        },
        {
          "pitch": 62,
          "onset": 20.75,
          "duration": 0.125,
          "velocity": 60
        },
        {
          "pitch": 64,
          "onset": 20.875,
          "duration": 0.125,
          "velocity": 60
        },
        {
          "pitch": 65,
          "onset": 21.0,
          "duration": 0.75,
          "velocity": 60
        },
        {
          "pitch": 71,
          "onset": 21.0,
          "duration": 1.0,
          "velocity": 60
        },
        {
          "pitch": 67,
          "onset": 21.25,
          "duration": 0.125,
          "velocity": 60
        },
        {
          "pitch": 65,
          "onset": 21.375,
          "duration": 0.125,
          "velocity": 60
        },
        {
          "pitch": 67,
          "onset": 21.5,
          "duration": 1.0,
          "velocity": 60
        },
        {
          "pitch": 64,
          "onset": 21.75,
          "duration": 0.125,
          "velocity": 60
        },
        {
          "pitch": 62,
          "onset": 21.875,
          "duration": 0.125,
          "velocity": 60
        },
        {
          "pitch": 64,
          "onset": 22.0,
          "duration": 0.25,
          "velocity": 60
        },
        {
          "pitch": 72,
          "onset": 22.0,
          "duration": 0.75,
          "velocity": 60
        },
        {
          "pitch": 62,
          "onset": 22.25,
          "duration": 0.125,
          "velocity": 60
        },
        {
          "pitch": 60,
          "onset": 22.375,
          "duration": 0.125,
          "velocity": 60
        },
        {
          "pitch": 58,
          "onset": 22.5,
          "duration": 0.25,
          "velocity": 60
        },
        {
          "pitch": 64,
          "onset": 22.5,
          "duration": 0.75,
          "velocity": 60
        },
        {
          "pitch": 57,
          "onset": 22.75,
          "duration": 0.125,
          "velocity": 60
        },
        {
          "pitch": 55,
          "onset": 22.875,
          "duration": 0.125,
          "velocity": 60
        },
        {
          "pitch": 57,
          "onset": 23.0,
          "duration": 0.5,
          "velocity": 60
        },
        {
          "pitch": 69,
          "onset": 23.0,
          "duration": 0.75,
          "velocity": 60
        },
        {
          "pitch": 65,
          "onset": 23.25,
          "duration": 0.125,
          "velocity": 60
        },
        {
          "pitch": 67,
          "onset": 23.375,
          "duration": 0.125,
          "velocity": 60
        },
        {
          "pitch": 65,
          "onset": 23.5,
          "duration": 0.25,
          "velocity": 60
        },
        {
          "pitch": 67,
          "onset": 23.75,
          "duration": 0.125,
          "velocity": 60
        },
        {
          "pitch": 69,
          "onset": 23.875,
          "duration": 0.125,
          "velocity": 60
        },
        {
          "pitch": 50,
          "onset": 24.0,
          "duration": 0.25,
          "velocity": 60
        },
        {
          "pitch": 62,
          "onset": 24.0,
          "duration": 0.5,
          "velocity": 60
        },
        {
          "pitch": 67,
          "onset": 24.0,
          "duration": 1.0,
          "velocity": 60
        },
        {
          "pitch": 52,
          "onset": 24.25,
          "duration": 0.125,
          "velocity": 60
        },
        {
          "pitch": 53,
          "onset": 24.375,
          "duration": 0.125,
          "velocity": 60
        },
        {
          "pitch": 55,
          "onset": 24.5,
          "duration": 0.25,
          "velocity": 60
        },
        {
          "pitch": 64,
          "onset": 24.5,
          "duration": 0.75,
          "velocity": 60
        },
        {
          "pitch": 57,
          "onset": 24.75,
          "duration": 0.125,
          "velocity": 60
        },
        {
          "pitch": 58,
          "onset": 24.875,
          "duration": 0.125,
          "velocity": 60
        },
        {
          "pitch": 57,
          "onset": 25.0,
          "duration": 0.75,
          "velocity": 60
        },
        {
          "pitch": 65,
          "onset": 25.0,
          "duration": 1.0,
          "velocity": 60
        },
        {
          "pitch": 62,
          "onset": 25.25,
          "duration": 0.125,
          "velocity": 60
        },
        {
          "pitch": 61,
          "onset": 25.375,
          "duration": 0.125,
          "velocity": 60
        },
        {
          "pitch": 62,
          "onset": 25.5,
          "duration": 0.75,
          "velocity": 60
        },
        {
          "pitch": 55,
          "onset": 25.75,
          "duration": 0.125,
          "velocity": 60
        },
        {
          "pitch": 53,
          "onset": 25.875,
          "duration": 0.125,
          "velocity": 60
        },
        {
          "pitch": 58,
          "onset": 26.0,
          "duration": 0.5,
          "velocity": 60
        },
        {
          "pitch": 67,
          "onset": 26.0,
          "duration": 0.75,
          "velocity": 60
        },
        {
          "pitch": 61,
          "onset": 26.25,
          "duration": 0.125,
          "velocity": 60
        },
        {
          "pitch": 62,
          "onset": 26.375,
          "duration": 0.125,
          "velocity": 60
        },
        {
          "pitch": 55,
          "onset": 26.5,
          "duration": 0.5,
          "velocity": 60
        },
        {
          "pitch": 64,
          "onset": 26.5,
          "duration": 0.25,
          "velocity": 60
        },
        {
          "pitch": 65,
          "onset": 26.75,
          "duration": 0.25,
          "velocity": 60
        },
        {
          "pitch": 67,
          "onset": 26.875,
          "duration": 0.125,
          "velocity": 60
        },
        {
          "pitch": 57,
          "onset": 27.0,
          "duration": 1.25,
          "velocity": 60
        },
        {
          "pitch": 61,
          "onset": 27.0,
          "duration": 0.5,
          "velocity": 60
        },
        {
          "pitch": 64,
          "onset": 27.0,
          "duration": 1.0,
          "velocity": 60
        },
        {
          "pitch": 60,
          "onset": 27.5,
          "duration": 0.75,
          "velocity": 60
        },
        {
          "pitch": 62,
          "onset": 28.0,
          "duration": 1.9688,
          "velocity": 60
        },
        {
          "pitch": 50,
          "onset": 28.25,
          "duration": 0.25,
          "velocity": 60
        },
        {
          "pitch": 59,
          "onset": 28.25,
          "duration": 0.125,
          "velocity": 60
        },
        {
          "pitch": 57,
          "onset": 28.375,
          "duration": 0.125,
          "velocity": 60
        },
        {
          "pitch": 55,
          "onset": 28.5,
          "duration": 0.75,
          "velocity": 60
        },
        {
          "pitch": 58,
          "onset": 28.5,
          "duration": 0.25,
          "velocity": 60
        },
        {
          "pitch": 57,
          "onset": 28.75,
          "duration": 0.125,
          "velocity": 60
        },
        {
          "pitch": 55,
          "onset": 28.875,
          "duration": 0.125,
          "velocity": 60
        },
        {
          "pitch": 57,
          "onset": 29.0,
          "duration": 1.0,
          "velocity": 60
        },
        {
          "pitch": 53,
          "onset": 29.25,
          "duration": 0.125,
          "velocity": 60
        },
        {
          "pitch": 52,
          "onset": 29.375,
          "duration": 0.125,
          "velocity": 60
        },
        {
          "pitch": 53,
          "onset": 29.5,
          "duration": 0.25,
          "velocity": 60
        },
        {
          "pitch": 52,
          "onset": 29.75,
          "duration": 0.125,
          "velocity": 60
        },
        {
          "pitch": 50,
          "onset": 29.875,
          "duration": 0.125,
          "velocity": 60
        },
        {
          "pitch": 49,
          "onset": 30.0,
          "duration": 0.25,
          "velocity": 60
        },
        {
          "pitch": 64,
          "onset": 30.0,
          "duration": 0.5,
          "velocity": 60
        },
        {
          "pitch": 69,
          "onset": 30.0,
          "duration": 1.5,
          "velocity": 60
        },
        {
          "pitch": 50,
          "onset": 30.25,
          "duration": 0.125,
          "velocity": 60
        },
        {
          "pitch": 52,
          "onset": 30.375,
          "duration": 0.125,
          "velocity": 60
        },
        {
          "pitch": 53,
          "onset": 30.5,
          "duration": 0.25,
          "velocity": 60
        },
        {
          "pitch": 62,
          "onset": 30.5,
          "duration": 0.75,
          "velocity": 60
        },
        {
          "pitch": 55,
          "onset": 30.75,
          "duration": 0.125,
          "velocity": 60
        },
        {
          "pitch": 57,
          "onset": 30.875,
          "duration": 0.125,
          "velocity": 60
        },
        {
          "pitch": 59,
          "onset": 31.0,
          "duration": 0.25,
          "velocity": 60
        },
        {
          "pitch": 61,
          "onset": 31.25,
          "duration": 0.125,
          "velocity": 60
        },
        {
          "pitch": 64,
          "onset": 31.25,
          "duration": 0.125,
          "velocity": 60
        },
        {
          "pitch": 62,
          "onset": 31.375,
          "duration": 0.125,
          "velocity": 60
        },
        {
          "pitch": 65,
          "onset": 31.375,
          "duration": 0.125,
          "velocity": 60
        },
        {
          "pitch": 61,
          "onset": 31.5,
          "duration": 0.25,
          "velocity": 60
        },
        {
          "pitch": 64,
          "onset": 31.5,
          "duration": 0.25,
          "velocity": 60
        },
        {
          "pitch": 67,
          "onset": 31.5,
          "duration": 0.375,
          "velocity": 60
        },
        {
          "pitch": 62,
          "onset": 31.75,
          "duration": 0.125,
          "velocity": 60
        },
        {
          "pitch": 65,
          "onset": 31.75,
          "duration": 0.125,
          "velocity": 60
        },
        {
          "pitch": 64,
          "onset": 31.875,
          "duration": 0.125,
          "velocity": 60
        },
        {
          "pitch": 67,
          "onset": 31.875,
          "duration": 0.125,
          "velocity": 60
        },
        {
          "pitch": 56,
          "onset": 32.0,
          "duration": 0.25,
          "velocity": 60
        },
        {
          "pitch": 59,
          "onset": 32.0,
          "duration": 0.25,
          "velocity": 60
        },
        {
          "pitch": 65,
          "onset": 32.0,
          "duration": 0.5,
          "velocity": 60
        },
        {
          "pitch": 57,
          "onset": 32.25,
          "duration": 0.125,
          "velocity": 60
        },
        {
          "pitch": 60,
          "onset": 32.25,
          "duration": 0.125,
          "velocity": 60
        },
        {
          "pitch": 59,
          "onset": 32.375,
          "duration": 0.125,
          "velocity": 60
        },
        {
          "pitch": 62,
          "onset": 32.375,
          "duration": 0.125,
          "velocity": 60
        },
        {
          "pitch": 57,
          "onset": 32.5,
          "duration": 0.25,
          "velocity": 60
        },
        {
          "pitch": 60,
          "onset": 32.5,
          "duration": 0.25,
          "velocity": 60
        },
        {
          "pitch": 64,
          "onset": 32.5,
          "duration": 0.375,
          "velocity": 60
        },
        {
          "pitch": 59,
          "onset": 32.75,
          "duration": 0.125,
          "velocity": 60
        },
        {
          "pitch": 62,
          "onset": 32.75,
          "duration": 0.125,
          "velocity": 60
        },
        {
          "pitch": 60,
          "onset": 32.875,
          "duration": 0.125,
          "velocity": 60
        },
        {
          "pitch": 64,
          "onset": 32.875,
          "duration": 0.125,
          "velocity": 60
        },
        {
          "pitch": 62,
          "onset": 33.0,
          "duration": 1.0,
          "velocity": 60
        },
        {
          "pitch": 60,
          "onset": 33.125,
          "duration": 0.125,
          "velocity": 60
        },
        {
          "pitch": 59,
          "onset": 33.25,
          "duration": 0.125,
          "velocity": 60
        },
        {
          "pitch": 57,
          "onset": 33.375,
          "duration": 0.125,
          "velocity": 60
        },
        {
          "pitch": 56,
          "onset": 33.5,
          "duration": 0.5,
          "velocity": 60
        },
        {
          "pitch": 53,
          "onset": 33.625,
          "duration": 0.125,
          "velocity": 60
        },
        {
          "pitch": 52,
          "onset": 33.75,
          "duration": 0.125,
          "velocity": 60
        },
        {
          "pitch": 50,
          "onset": 33.875,
          "duration": 0.125,
          "velocity": 60
        },
        {
          "pitch": 52,
          "onset": 34.0,
          "duration": 1.0,
          "velocity": 60
        },
        {
          "pitch": 57,
          "onset": 34.0,
          "duration": 0.25,
          "velocity": 60
        },
        {
          "pitch": 60,
          "onset": 34.0,
          "duration": 1.9688,
          "velocity": 60
        },
        {
          "pitch": 59,
          "onset": 34.25,
          "duration": 0.125,
          "velocity": 60
        },
        {
          "pitch": 60,
          "onset": 34.375,
          "duration": 0.125,
          "velocity": 60
        },
        {
          "pitch": 59,
          "onset": 34.5,
          "duration": 0.25,
          "velocity": 60
        },
        {
          "pitch": 60,
          "onset": 34.75,
          "duration": 0.125,
          "velocity": 60
        },
        {
          "pitch": 62,
          "onset": 34.875,
          "duration": 0.125,
          "velocity": 60
        },
        {
          "pitch": 45,
          "onset": 35.0,
          "duration": 0.25,
          "velocity": 60
        },
        {
          "pitch": 60,
          "onset": 35.0,
          "duration": 0.25,
          "velocity": 60
        },
        {
          "pitch": 47,
          "onset": 35.25,
          "duration": 0.125,
          "velocity": 60
        },
        {
          "pitch": 62,
          "onset": 35.25,
          "duration": 0.125,
          "velocity": 60
        },
        {
          "pitch": 48,
          "onset": 35.375,
          "duration": 0.125,
          "velocity": 60
        },
        {
          "pitch": 64,
          "onset": 35.375,
          "duration": 0.125,
          "velocity": 60
        },
        {
          "pitch": 47,
          "onset": 35.5,
          "duration": 0.25,
          "velocity": 60
        },
        {
          "pitch": 62,
          "onset": 35.5,
          "duration": 0.25,
          "velocity": 60
        },
        {
          "pitch": 48,
          "onset": 35.75,
          "duration": 0.125,
          "velocity": 60
        },
        {
          "pitch": 64,
          "onset": 35.75,
          "duration": 0.125,
          "velocity": 60
        },
        {
          "pitch": 50,
          "onset": 35.875,
          "duration": 0.125,
          "velocity": 60
        },
        {
          "pitch": 65,
          "onset": 35.875,
          "duration": 0.125,
          "velocity": 60
        },
        {
          "pitch": 48,
          "onset": 36.0,
          "duration": 0.25,
          "velocity": 60
        },
        {
          "pitch": 64,
          "onset": 36.0,
          "duration": 1.75,
          "velocity": 60
        },
        {
          "pitch": 69,
          "onset": 36.0,
          "duration": 1.25,
          "velocity": 60
        },
        {
          "pitch": 50,
          "onset": 36.25,
          "duration": 0.125,
          "velocity": 60
        },
        {
          "pitch": 52,
          "onset": 36.375,
          "duration": 0.125,
          "velocity": 60
        },
        {
          "pitch": 50,
          "onset": 36.5,
          "duration": 0.25,
          "velocity": 60
        },
        {
          "pitch": 52,
          "onset": 36.75,
          "duration": 0.125,
          "velocity": 60
        },
        {
          "pitch": 53,
          "onset": 36.875,
          "duration": 0.125,
          "velocity": 60
        },
        {
          "pitch": 52,
          "onset": 37.0,
          "duration": 0.5,
          "velocity": 60
        },
        {
          "pitch": 70,
          "onset": 37.25,
          "duration": 0.125,
          "velocity": 60
        },
        {
          "pitch": 69,
          "onset": 37.375,
          "duration": 0.125,
          "velocity": 60
        },
        {
          "pitch": 57,
          "onset": 37.5,
          "duration": 1.9688,
          "velocity": 60
        },
        {
          "pitch": 67,
          "onset": 37.5,
          "duration": 0.25,
          "velocity": 60
        },
        {
          "pitch": 65,
          "onset": 37.75,
          "duration": 0.125,
          "velocity": 60
        },
        {
          "pitch": 64,
          "onset": 37.875,
          "duration": 0.375,
          "velocity": 60
        },
        {
          "pitch": 65,
          "onset": 38.0,
          "duration": 1.0,
          "velocity": 60
        },
        {
          "pitch": 62,
          "onset": 38.25,
          "duration": 0.125,
          "velocity": 60
        },
        {
          "pitch": 60,
          "onset": 38.375,
          "duration": 0.125,
          "velocity": 60
        },
        {
          "pitch": 62,
          "onset": 38.5,
          "duration": 0.25,
          "velocity": 60
        },
        {
          "pitch": 60,
          "onset": 38.75,
          "duration": 0.125,
          "velocity": 60
        },
        {
          "pitch": 59,
          "onset": 38.875,
          "duration": 0.125,
          "velocity": 60
        },
        {
          "pitch": 60,
          "onset": 39.0,
          "duration": 0.5,
          "velocity": 60
        },
        {
          "pitch": 72,
          "onset": 39.0,
          "duration": 0.25,
          "velocity": 60
        },
        {
          "pitch": 74,
          "onset": 39.25,
          "duration": 0.125,
          "velocity": 60
        },
        {
          "pitch": 72,
          "onset": 39.375,
          "duration": 0.125,
          "velocity": 60
        },
        {
          "pitch": 60,
          "onset": 39.5,
          "duration": 1.0,
          "velocity": 60
        },
        {
          "pitch": 64,
          "onset": 39.5,
          "duration": 0.5,
          "velocity": 60
        },
        {
          "pitch": 70,
          "onset": 39.5,
          "duration": 0.25,
          "velocity": 60
        },
        {
          "pitch": 69,
          "onset": 39.75,
          "duration": 0.125,
          "velocity": 60
        },
        {
          "pitch": 67,
          "onset": 39.875,
          "duration": 0.125,
          "velocity": 60
        },
        {
          "pitch": 69,
          "onset": 40.0,
          "duration": 1.25,
          "velocity": 60
        },
        {
          "pitch": 67,
          "onset": 40.25,
          "duration": 0.125,
          "velocity": 60
        },
        {
          "pitch": 65,
          "onset": 40.375,
          "duration": 0.125,
          "velocity": 60
        },
        {
          "pitch": 61,
          "onset": 40.5,
          "duration": 0.5,
          "velocity": 60
        },
        {
          "pitch": 67,
          "onset": 40.5,
          "duration": 0.25,
          "velocity": 60
        },
        {
          "pitch": 65,
          "onset": 40.75,
          "duration": 0.125,
          "velocity": 60
        },
        {
          "pitch": 64,
          "onset": 40.875,
          "duration": 0.125,
          "velocity": 60
        },
        {
          "pitch": 57,
          "onset": 41.0,
          "duration": 1.0,
          "velocity": 60
        },
        {
          "pitch": 65,
          "onset": 41.0,
          "duration": 1.75,
          "velocity": 60
        },
        {
          "pitch": 70,
          "onset": 41.25,
          "duration": 0.125,
          "velocity": 60
        },
        {
          "pitch": 72,
          "onset": 41.375,
          "duration": 0.125,
          "velocity": 60
        },
        {
          "pitch": 74,
          "onset": 41.5,
          "duration": 0.25,
          "velocity": 60
        },
        {
          "pitch": 76,
          "onset": 41.75,
          "duration": 0.125,
          "velocity": 60
        },
        {
          "pitch": 77,
          "onset": 41.875,
          "duration": 0.125,
          "velocity": 60
        },
        {
          "pitch": 62,
          "onset": 42.0,
          "duration": 0.25,
          "velocity": 60
        },
        {
          "pitch": 67,
          "onset": 42.0,
          "duration": 1.0,
          "velocity": 60
        },
        {
          "pitch": 60,
          "onset": 42.25,
          "duration": 0.125,
          "velocity": 60
        },
        {
          "pitch": 58,
          "onset": 42.375,
          "duration": 0.125,
          "velocity": 60
        },
        {
          "pitch": 57,
          "onset": 42.5,
          "duration": 0.25,
          "velocity": 60
        },
        {
          "pitch": 55,
          "onset": 42.75,
          "duration": 0.125,
          "velocity": 60
        },
        {
          "pitch": 64,
          "onset": 42.75,
          "duration": 0.125,
          "velocity": 60
        },
        {
          "pitch": 53,
          "onset": 42.875,
          "duration": 0.125,
          "velocity": 60
        },
        {
          "pitch": 62,
          "onset": 42.875,
          "duration": 0.125,
          "velocity": 60
        },
        {
          "pitch": 52,
          "onset": 43.0,
          "duration": 0.75,
          "velocity": 60
        },
        {
          "pitch": 60,
          "onset": 43.0,
          "duration": 0.25,
          "velocity": 60
        },
        {
          "pitch": 67,
          "onset": 43.0,
          "duration": 1.0,
          "velocity": 60
        },
        {
          "pitch": 58,
          "onset": 43.25,
          "duration": 0.125,
          "velocity": 60
        },
        {
          "pitch": 57,
          "onset": 43.375,
          "duration": 0.125,
          "velocity": 60
        },
        {
          "pitch": 55,
          "onset": 43.5,
          "duration": 0.25,
          "velocity": 60
        },
        {
          "pitch": 53,
          "onset": 43.75,
          "duration": 0.125,
          "velocity": 60
        },
        {
          "pitch": 52,
          "onset": 43.875,
          "duration": 0.375,
          "velocity": 100
        },
        {
          "pitch": 53,
          "onset": 44.0,
          "duration": 0.25,
          "velocity": 60
        },
        {
          "pitch": 69,
          "onset": 44.0,
          "duration": 1.9688,
          "velocity": 60
        },
        {
          "pitch": 50,
          "onset": 44.25,
          "duration": 0.125,
          "velocity": 60
        },
        {
          "pitch": 57,
          "onset": 44.25,
          "duration": 0.25,
          "velocity": 60
        },
        {
          "pitch": 49,
          "onset": 44.375,
          "duration": 0.125,
          "velocity": 60
        },
        {
          "pitch": 50,
          "onset": 44.5,
          "duration": 0.25,
          "velocity": 60
        },
        {
          "pitch": 59,
          "onset": 44.5,
          "duration": 0.25,
          "velocity": 60
        },
        {
          "pitch": 52,
          "onset": 44.75,
          "duration": 0.125,
          "velocity": 60
        },
        {
          "pitch": 61,
          "onset": 44.75,
          "duration": 0.125,
          "velocity": 60
        },
        {
          "pitch": 53,
          "onset": 44.875,
          "duration": 0.125,
          "velocity": 60
        },
        {
          "pitch": 62,
          "onset": 44.875,
          "duration": 0.125,
          "velocity": 60
        },
        {
          "pitch": 52,
          "onset": 45.0,
          "duration": 0.25,
          "velocity": 60
        },
        {
          "pitch": 61,
          "onset": 45.0,
          "duration": 0.25,
          "velocity": 60
        },
        {
          "pitch": 53,
          "onset": 45.25,
          "duration": 0.125,
          "velocity": 60
        },
        {
          "pitch": 62,
          "onset": 45.25,
          "duration": 0.125,
          "velocity": 60
        },
        {
          "pitch": 55,
          "onset": 45.375,
          "duration": 0.125,
          "velocity": 60
        },
        {
          "pitch": 64,
          "onset": 45.375,
          "duration": 0.125,
          "velocity": 60
        },
        {
          "pitch": 53,
          "onset": 45.5,
          "duration": 0.25,
          "velocity": 60
        },
        {
          "pitch": 62,
          "onset": 45.5,
          "duration": 0.25,
          "velocity": 60
        },
        {
          "pitch": 55,
          "onset": 45.75,
          "duration": 0.125,
          "velocity": 60
        },
        {
          "pitch": 64,
          "onset": 45.75,
          "duration": 0.125,
          "velocity": 60
        },
        {
          "pitch": 57,
          "onset": 45.875,
          "duration": 0.125,
          "velocity": 60
        },
        {
          "pitch": 65,
          "onset": 45.875,
          "duration": 0.125,
          "velocity": 60
        },
        {
          "pitch": 50,
          "onset": 46.0,
          "duration": 0.25,
          "velocity": 60
        },
        {
          "pitch": 59,
          "onset": 46.0,
          "duration": 0.75,
          "velocity": 60
        },
        {
          "pitch": 67,
          "onset": 46.0,
          "duration": 1.0,
          "velocity": 60
        },
        {
          "pitch": 52,
          "onset": 46.25,
          "duration": 0.125,
          "velocity": 60
        },
        {
          "pitch": 53,
          "onset": 46.375,
          "duration": 0.125,
          "velocity": 60
        },
        {
          "pitch": 55,
          "onset": 46.5,
          "duration": 0.25,
          "velocity": 60
        },
        {
          "pitch": 57,
          "onset": 46.75,
          "duration": 0.125,
          "velocity": 60
        },
        {
          "pitch": 61,
          "onset": 46.75,
          "duration": 0.125,
          "velocity": 60
        },
        {
          "pitch": 58,
          "onset": 46.875,
          "duration": 0.125,
          "velocity": 60
        },
        {
          "pitch": 62,
          "onset": 46.875,
          "duration": 0.125,
          "velocity": 60
        },
        {
          "pitch": 64,
          "onset": 47.0,
          "duration": 0.25,
          "velocity": 60
        },
        {
          "pitch": 65,
          "onset": 47.25,
          "duration": 0.125,
          "velocity": 60
        },
        {
          "pitch": 67,
          "onset": 47.375,
          "duration": 0.375,
          "velocity": 60
        },
        {
          "pitch": 65,
          "onset": 47.5,
          "duration": 0.25,
          "velocity": 60
        },
        {
          "pitch": 67,
          "onset": 47.75,
          "duration": 0.25,
          "velocity": 60
        },
        {
          "pitch": 64,
          "onset": 47.875,
          "duration": 0.125,
          "velocity": 60
        },
        {
          "pitch": 50,
          "onset": 48.0,
          "duration": 1.0,
          "velocity": 60
        },
        {
          "pitch": 65,
          "onset": 48.0,
          "duration": 1.0,
          "velocity": 60
        },
        {
          "pitch": 62,
          "onset": 49.0,
          "duration": 0.0312,
          "velocity": 60
        },
        {
          "pitch": 64,
          "onset": 49.0312,
          "duration": 0.0312,
          "velocity": 60
        },
        {
          "pitch": 62,
          "onset": 49.0938,
          "duration": 0.0312,
          "velocity": 60
        },
        {
          "pitch": 64,
          "onset": 49.125,
          "duration": 0.0312,
          "velocity": 60
        },
        {
          "pitch": 62,
          "onset": 49.1562,
          "duration": 0.0312,
          "velocity": 60
        },
        {
          "pitch": 64,
          "onset": 49.2188,
          "duration": 0.0312,
          "velocity": 60
        },
        {
          "pitch": 62,
          "onset": 49.25,
          "duration": 0.5,
          "velocity": 60
        },
        {
          "pitch": 60,
          "onset": 49.75,
          "duration": 0.125,
          "velocity": 60
        },
        {
          "pitch": 62,
          "onset": 49.875,
          "duration": 0.125,
          "velocity": 60
        },
        {
          "pitch": 45,
          "onset": 50.0,
          "duration": 0.25,
          "velocity": 60
        },
        {
          "pitch": 60,
          "onset": 50.0,
          "duration": 1.0,
          "velocity": 60
        },
        {
          "pitch": 47,
          "onset": 50.25,
          "duration": 0.125,
          "velocity": 60
        },
        {
          "pitch": 48,
          "onset": 50.375,
          "duration": 0.125,
          "velocity": 60
        },
        {
          "pitch": 47,
          "onset": 50.5,
          "duration": 0.25,
          "velocity": 60
        },
        {
          "pitch": 48,
          "onset": 50.75,
          "duration": 0.125,
          "velocity": 60
        },
        {
          "pitch": 50,
          "onset": 50.875,
          "duration": 0.125,
          "velocity": 60
        },
        {
          "pitch": 49,
          "onset": 51.0,
          "duration": 0.25,
          "velocity": 60
        },
        {
          "pitch": 65,
          "onset": 51.0,
          "duration": 1.0,
          "velocity": 60
        },
        {
          "pitch": 50,
          "onset": 51.25,
          "duration": 0.125,
          "velocity": 60
        },
        {
          "pitch": 52,
          "onset": 51.375,
          "duration": 0.125,
          "velocity": 60
        },
        {
          "pitch": 50,
          "onset": 51.5,
          "duration": 0.25,
          "velocity": 60
        },
        {
          "pitch": 52,
          "onset": 51.75,
          "duration": 0.125,
          "velocity": 60
        },
        {
          "pitch": 53,
          "onset": 51.875,
          "duration": 0.125,
          "velocity": 60
        },
        {
          "pitch": 55,
          "onset": 52.0,
          "duration": 0.5,
          "velocity": 60
        },
        {
          "pitch": 61,
          "onset": 52.0,
          "duration": 0.5,
          "velocity": 60
        },
        {
          "pitch": 64,
          "onset": 52.0,
          "duration": 0.5,
          "velocity": 60
        },
        {
          "pitch": 53,
          "onset": 52.5,
          "duration": 0.5,
          "velocity": 60
        },
        {
          "pitch": 62,
          "onset": 52.5,
          "duration": 0.75,
          "velocity": 60
        },
        {
          "pitch": 52,
          "onset": 53.0,
          "duration": 0.75,
          "velocity": 60
        },
        {
          "pitch": 64,
          "onset": 53.0,
          "duration": 1.0,
          "velocity": 60
        },
        {
          "pitch": 61,
          "onset": 53.25,
          "duration": 0.125,
          "velocity": 60
        },
        {
          "pitch": 59,
          "onset": 53.375,
          "duration": 0.125,
          "velocity": 60
        },
        {
          "pitch": 61,
          "onset": 53.5,
          "duration": 0.5,
          "velocity": 60
        },
        {
          "pitch": 53,
          "onset": 53.75,
          "duration": 0.125,
          "velocity": 60
        },
        {
          "pitch": 55,
          "onset": 53.875,
          "duration": 0.125,
          "velocity": 60
        },
        {
          "pitch": 57,
          "onset": 54.0,
          "duration": 0.5,
          "velocity": 60
        },
        {
          "pitch": 62,
          "onset": 54.0,
          "duration": 5.25,
          "velocity": 60
        },
        {
          "pitch": 60,
          "onset": 54.25,
          "duration": 0.125,
          "velocity": 60
        },
        {
          "pitch": 58,
          "onset": 54.375,
          "duration": 0.125,
          "velocity": 60
        },
        {
          "pitch": 50,
          "onset": 54.5,
          "duration": 0.75,
          "velocity": 60
        },
        {
          "pitch": 60,
          "onset": 54.5,
          "duration": 0.25,
          "velocity": 60
        },
        {
          "pitch": 58,
          "onset": 54.75,
          "duration": 0.125,
          "velocity": 60
        },
        {
          "pitch": 57,
          "onset": 54.875,
          "duration": 0.125,
          "velocity": 60
        },
        {
          "pitch": 58,
          "onset": 55.0,
          "duration": 0.25,
          "velocity": 60
        },
        {
          "pitch": 48,
          "onset": 55.25,
          "duration": 0.125,
          "velocity": 60
        },
        {
          "pitch": 57,
          "onset": 55.25,
          "duration": 0.125,
          "velocity": 60
        },
        {
          "pitch": 46,
          "onset": 55.375,
          "duration": 0.125,
          "velocity": 60
        },
        {
          "pitch": 55,
          "onset": 55.375,
          "duration": 0.125,
          "velocity": 60
        },
        {
          "pitch": 48,
          "onset": 55.5,
          "duration": 0.25,
          "velocity": 60
        },
        {
          "pitch": 57,
          "onset": 55.5,
          "duration": 0.25,
          "velocity": 60
        },
        {
          "pitch": 46,
          "onset": 55.75,
          "duration": 0.125,
          "velocity": 60
        },
        {
          "pitch": 55,
          "onset": 55.75,
          "duration": 0.125,
          "velocity": 60
        },
        {
          "pitch": 45,
          "onset": 55.875,
          "duration": 0.125,
          "velocity": 60
        },
        {
          "pitch": 54,
          "onset": 55.875,
          "duration": 0.125,
          "velocity": 60
        },
        {
          "pitch": 46,
          "onset": 56.0,
          "duration": 0.25,
          "velocity": 60
        },
        {
          "pitch": 55,
          "onset": 56.0,
          "duration": 2.25,
          "velocity": 60
        },
        {
          "pitch": 43,
          "onset": 56.25,
          "duration": 0.125,
          "velocity": 60
        },
        {
          "pitch": 45,
          "onset": 56.375,
          "duration": 0.125,
          "velocity": 60
        },
        {
          "pitch": 47,
          "onset": 56.5,
          "duration": 0.25,
          "velocity": 60
        },
        {
          "pitch": 49,
          "onset": 56.75,
          "duration": 0.125,
          "velocity": 60
        },
        {
          "pitch": 50,
          "onset": 56.875,
          "duration": 0.125,
          "velocity": 60
        },
        {
          "pitch": 49,
          "onset": 57.0,
          "duration": 0.25,
          "velocity": 60
        },
        {
          "pitch": 58,
          "onset": 57.0,
          "duration": 1.0,
          "velocity": 60
        },
        {
          "pitch": 45,
          "onset": 57.25,
          "duration": 0.125,
          "velocity": 60
        },
        {
          "pitch": 47,
          "onset": 57.375,
          "duration": 0.125,
          "velocity": 60
        },
        {
          "pitch": 49,
          "onset": 57.5,
          "duration": 0.25,
          "velocity": 60
        },
        {
          "pitch": 50,
          "onset": 57.75,
          "duration": 0.125,
          "velocity": 60
        },
        {
          "pitch": 52,
          "onset": 57.875,
          "duration": 0.125,
          "velocity": 60
        },
        {
          "pitch": 50,
          "onset": 58.0,
          "duration": 3.0,
          "velocity": 60
        },
        {
          "pitch": 57,
          "onset": 58.0,
          "duration": 0.75,
          "velocity": 60
        },
        {
          "pitch": 54,
          "onset": 58.25,
          "duration": 0.125,
          "velocity": 60
        },
        {
          "pitch": 52,
          "onset": 58.375,
          "duration": 0.125,
          "velocity": 60
        },
        {
          "pitch": 54,
          "onset": 58.5,
          "duration": 2.5,
          "velocity": 60
        },
        {
          "pitch": 57,
          "onset": 59.0,
          "duration": 2.0,
          "velocity": 60
        },
        {
          "pitch": 62,
          "onset": 59.25,
          "duration": 0.125,
          "velocity": 60
        },
        {
          "pitch": 61,
          "onset": 59.375,
          "duration": 0.25,
          "velocity": 60
        },
        {
          "pitch": 62,
          "onset": 59.625,
          "duration": 1.375,
          "velocity": 60
        }
      ]
    },
    {
      "role": "pedal",
      "notes": [
        {
          "pitch": 38,
          "onset": 1.0,
          "duration": 0.25,
          "velocity": 60
        },
        {
          "pitch": 41,
          "onset": 1.25,
          "duration": 0.25,
          "velocity": 60
        },
        {
          "pitch": 40,
          "onset": 1.5,
          "duration": 0.25,
          "velocity": 60
        },
        {
          "pitch": 43,
          "onset": 1.75,
          "duration": 0.25,
          "velocity": 60
        },
        {
          "pitch": 41,
          "onset": 2.0,
          "duration": 0.5,
          "velocity": 60
        },
        {
          "pitch": 37,
          "onset": 2.5,
          "duration": 0.5,
          "velocity": 60
        },
        {
          "pitch": 38,
          "onset": 3.0,
          "duration": 0.5,
          "velocity": 60
        },
        {
          "pitch": 35,
          "onset": 3.5,
          "duration": 0.5,
          "velocity": 60
        },
        {
          "pitch": 40,
          "onset": 4.0,
          "duration": 1.0,
          "velocity": 60
        },
        {
          "pitch": 42,
          "onset": 5.0,
          "duration": 0.25,
          "velocity": 60
        },
        {
          "pitch": 45,
          "onset": 5.25,
          "duration": 0.25,
          "velocity": 60
        },
        {
          "pitch": 44,
          "onset": 5.5,
          "duration": 0.25,
          "velocity": 60
        },
        {
          "pitch": 47,
          "onset": 5.75,
          "duration": 0.25,
          "velocity": 60
        },
        {
          "pitch": 45,
          "onset": 6.0,
          "duration": 0.5,
          "velocity": 60
        },
        {
          "pitch": 41,
          "onset": 6.5,
          "duration": 0.5,
          "velocity": 60
        },
        {
          "pitch": 38,
          "onset": 7.0,
          "duration": 0.25,
          "velocity": 60
        },
        {
          "pitch": 41,
          "onset": 7.25,
          "duration": 0.25,
          "velocity": 60
        },
        {
          "pitch": 40,
          "onset": 7.5,
          "duration": 0.25,
          "velocity": 60
        },
        {
          "pitch": 43,
          "onset": 7.75,
          "duration": 0.25,
          "velocity": 60
        },
        {
          "pitch": 37,
          "onset": 8.0,
          "duration": 0.5,
          "velocity": 60
        },
        {
          "pitch": 38,
          "onset": 8.5,
          "duration": 0.5,
          "velocity": 60
        },
        {
          "pitch": 33,
          "onset": 9.0,
          "duration": 1.0,
          "velocity": 60
        },
        {
          "pitch": 33,
          "onset": 11.0,
          "duration": 0.25,
          "velocity": 60
        },
        {
          "pitch": 36,
          "onset": 11.25,
          "duration": 0.25,
          "velocity": 60
        },
        {
          "pitch": 35,
          "onset": 11.5,
          "duration": 0.25,
          "velocity": 60
        },
        {
          "pitch": 38,
          "onset": 11.75,
          "duration": 0.25,
          "velocity": 60
        },
        {
          "pitch": 36,
          "onset": 12.0,
          "duration": 0.5,
          "velocity": 60
        },
        {
          "pitch": 32,
          "onset": 12.5,
          "duration": 0.5,
          "velocity": 60
        },
        {
          "pitch": 33,
          "onset": 13.0,
          "duration": 0.5,
          "velocity": 60
        },
        {
          "pitch": 45,
          "onset": 13.5,
          "duration": 0.5,
          "velocity": 60
        },
        {
          "pitch": 38,
          "onset": 14.0,
          "duration": 0.5,
          "velocity": 60
        },
        {
          "pitch": 42,
          "onset": 14.5,
          "duration": 0.5,
          "velocity": 60
        },
        {
          "pitch": 40,
          "onset": 15.0,
          "duration": 0.5,
          "velocity": 60
        },
        {
          "pitch": 28,
          "onset": 15.5,
          "duration": 0.5,
          "velocity": 60
        },
        {
          "pitch": 33,
          "onset": 16.0,
          "duration": 1.9688,
          "velocity": 60
        },
        {
          "pitch": 43,
          "onset": 19.0,
          "duration": 0.25,
          "velocity": 60
        },
        {
          "pitch": 40,
          "onset": 19.25,
          "duration": 0.25,
          "velocity": 60
        },
        {
          "pitch": 41,
          "onset": 19.5,
          "duration": 0.25,
          "velocity": 60
        },
        {
          "pitch": 38,
          "onset": 19.75,
          "duration": 0.25,
          "velocity": 60
        },
        {
          "pitch": 40,
          "onset": 20.0,
          "duration": 0.5,
          "velocity": 60
        },
        {
          "pitch": 45,
          "onset": 20.5,
          "duration": 0.5,
          "velocity": 60
        },
        {
          "pitch": 38,
          "onset": 21.0,
          "duration": 0.5,
          "velocity": 60
        },
        {
          "pitch": 43,
          "onset": 21.5,
          "duration": 0.5,
          "velocity": 60
        },
        {
          "pitch": 36,
          "onset": 22.0,
          "duration": 1.0,
          "velocity": 60
        },
        {
          "pitch": 37,
          "onset": 23.0,
          "duration": 0.25,
          "velocity": 60
        },
        {
          "pitch": 40,
          "onset": 23.25,
          "duration": 0.25,
          "velocity": 60
        },
        {
          "pitch": 38,
          "onset": 23.5,
          "duration": 0.25,
          "velocity": 60
        },
        {
          "pitch": 41,
          "onset": 23.75,
          "duration": 0.25,
          "velocity": 60
        },
        {
          "pitch": 35,
          "onset": 24.0,
          "duration": 0.5,
          "velocity": 60
        },
        {
          "pitch": 37,
          "onset": 24.5,
          "duration": 0.5,
          "velocity": 60
        },
        {
          "pitch": 38,
          "onset": 25.0,
          "duration": 0.5,
          "velocity": 60
        },
        {
          "pitch": 34,
          "onset": 25.5,
          "duration": 0.5,
          "velocity": 60
        },
        {
          "pitch": 31,
          "onset": 26.0,
          "duration": 0.5,
          "velocity": 60
        },
        {
          "pitch": 40,
          "onset": 26.5,
          "duration": 0.5,
          "velocity": 60
        },
        {
          "pitch": 45,
          "onset": 27.0,
          "duration": 0.25,
          "velocity": 60
        },
        {
          "pitch": 42,
          "onset": 27.25,
          "duration": 0.25,
          "velocity": 60
        },
        {
          "pitch": 43,
          "onset": 27.5,
          "duration": 0.25,
          "velocity": 60
        },
        {
          "pitch": 40,
          "onset": 27.75,
          "duration": 0.25,
          "velocity": 60
        },
        {
          "pitch": 42,
          "onset": 28.0,
          "duration": 0.5,
          "velocity": 60
        },
        {
          "pitch": 43,
          "onset": 28.5,
          "duration": 0.5,
          "velocity": 60
        },
        {
          "pitch": 38,
          "onset": 29.0,
          "duration": 1.0,
          "velocity": 60
        },
        {
          "pitch": 41,
          "onset": 31.0,
          "duration": 0.25,
          "velocity": 60
        },
        {
          "pitch": 38,
          "onset": 31.25,
          "duration": 0.25,
          "velocity": 60
        },
        {
          "pitch": 40,
          "onset": 31.5,
          "duration": 0.25,
          "velocity": 60
        },
        {
          "pitch": 37,
          "onset": 31.75,
          "duration": 0.25,
          "velocity": 60
        },
        {
          "pitch": 38,
          "onset": 32.0,
          "duration": 0.25,
          "velocity": 60
        },
        {
          "pitch": 35,
          "onset": 32.25,
          "duration": 0.25,
          "velocity": 60
        },
        {
          "pitch": 36,
          "onset": 32.5,
          "duration": 0.25,
          "velocity": 60
        },
        {
          "pitch": 33,
          "onset": 32.75,
          "duration": 0.25,
          "velocity": 60
        },
        {
          "pitch": 35,
          "onset": 33.0,
          "duration": 0.5,
          "velocity": 60
        },
        {
          "pitch": 28,
          "onset": 33.5,
          "duration": 0.5,
          "velocity": 60
        },
        {
          "pitch": 33,
          "onset": 34.0,
          "duration": 1.0,
          "velocity": 60
        },
        {
          "pitch": 33,
          "onset": 36.0,
          "duration": 0.25,
          "velocity": 60
        },
        {
          "pitch": 36,
          "onset": 36.25,
          "duration": 0.25,
          "velocity": 60
        },
        {
          "pitch": 35,
          "onset": 36.5,
          "duration": 0.25,
          "velocity": 60
        },
        {
          "pitch": 38,
          "onset": 36.75,
          "duration": 0.25,
          "velocity": 60
        },
        {
          "pitch": 36,
          "onset": 37.0,
          "duration": 0.5,
          "velocity": 60
        },
        {
          "pitch": 37,
          "onset": 37.5,
          "duration": 0.5,
          "velocity": 60
        },
        {
          "pitch": 38,
          "onset": 38.0,
          "duration": 1.0,
          "velocity": 60
        },
        {
          "pitch": 45,
          "onset": 39.0,
          "duration": 0.25,
          "velocity": 60
        },
        {
          "pitch": 41,
          "onset": 39.25,
          "duration": 0.25,
          "velocity": 60
        },
        {
          "pitch": 43,
          "onset": 39.5,
          "duration": 0.25,
          "velocity": 60
        },
        {
          "pitch": 40,
          "onset": 39.75,
          "duration": 0.25,
          "velocity": 60
        },
        {
          "pitch": 41,
          "onset": 40.0,
          "duration": 0.25,
          "velocity": 60
        },
        {
          "pitch": 38,
          "onset": 40.25,
          "duration": 0.25,
          "velocity": 60
        },
        {
          "pitch": 40,
          "onset": 40.5,
          "duration": 0.25,
          "velocity": 60
        },
        {
          "pitch": 37,
          "onset": 40.75,
          "duration": 0.25,
          "velocity": 60
        },
        {
          "pitch": 38,
          "onset": 41.0,
          "duration": 0.5,
          "velocity": 60
        },
        {
          "pitch": 36,
          "onset": 41.5,
          "duration": 0.5,
          "velocity": 60
        },
        {
          "pitch": 34,
          "onset": 42.0,
          "duration": 0.5,
          "velocity": 60
        },
        {
          "pitch": 31,
          "onset": 42.5,
          "duration": 0.5,
          "velocity": 60
        },
        {
          "pitch": 36,
          "onset": 43.0,
          "duration": 0.5,
          "velocity": 60
        },
        {
          "pitch": 24,
          "onset": 43.5,
          "duration": 0.5,
          "velocity": 60
        },
        {
          "pitch": 29,
          "onset": 44.0,
          "duration": 2.5,
          "velocity": 60
        },
        {
          "pitch": 41,
          "onset": 46.5,
          "duration": 0.5,
          "velocity": 60
        },
        {
          "pitch": 40,
          "onset": 47.0,
          "duration": 0.5,
          "velocity": 60
        },
        {
          "pitch": 33,
          "onset": 47.5,
          "duration": 0.5,
          "velocity": 60
        },
        {
          "pitch": 38,
          "onset": 48.0,
          "duration": 0.25,
          "velocity": 60
        },
        {
          "pitch": 41,
          "onset": 48.25,
          "duration": 0.25,
          "velocity": 60
        },
        {
          "pitch": 40,
          "onset": 48.5,
          "duration": 0.25,
          "velocity": 60
        },
        {
          "pitch": 43,
          "onset": 48.75,
          "duration": 0.25,
          "velocity": 60
        },
        {
          "pitch": 41,
          "onset": 49.0,
          "duration": 0.25,
          "velocity": 60
        },
        {
          "pitch": 45,
          "onset": 49.25,
          "duration": 0.25,
          "velocity": 60
        },
        {
          "pitch": 43,
          "onset": 49.5,
          "duration": 0.25,
          "velocity": 60
        },
        {
          "pitch": 46,
          "onset": 49.75,
          "duration": 0.25,
          "velocity": 60
        },
        {
          "pitch": 45,
          "onset": 50.0,
          "duration": 1.0,
          "velocity": 60
        },
        {
          "pitch": 33,
          "onset": 51.0,
          "duration": 1.0,
          "velocity": 60
        },
        {
          "pitch": 34,
          "onset": 52.0,
          "duration": 0.25,
          "velocity": 60
        },
        {
          "pitch": 31,
          "onset": 52.25,
          "duration": 0.25,
          "velocity": 60
        },
        {
          "pitch": 33,
          "onset": 52.5,
          "duration": 0.25,
          "velocity": 60
        },
        {
          "pitch": 29,
          "onset": 52.75,
          "duration": 0.25,
          "velocity": 60
        },
        {
          "pitch": 31,
          "onset": 53.0,
          "duration": 0.25,
          "velocity": 60
        },
        {
          "pitch": 28,
          "onset": 53.25,
          "duration": 0.25,
          "velocity": 60
        },
        {
          "pitch": 33,
          "onset": 53.5,
          "duration": 0.5,
          "velocity": 60
        },
        {
          "pitch": 30,
          "onset": 54.0,
          "duration": 1.0,
          "velocity": 60
        },
        {
          "pitch": 31,
          "onset": 55.0,
          "duration": 1.0,
          "velocity": 60
        },
        {
          "pitch": 26,
          "onset": 56.0,
          "duration": 5.0,
          "velocity": 60
        }
      ]
    }
  ]
}