{
  "bwv": 641,
  "category": "orgelbuchlein",
  "instrument": "organ",
  "form": "",
  "movement": null,
  "ticks_per_beat": 480,
  "duration_seconds": 97.6,
  "tempos": [
    {
      "tick": 0,
      "bpm": 25
    },
    {
      "tick": 15360,
      "bpm": 25
    },
    {
      "tick": 15840,
      "bpm": 20
    }
  ],
  "time_signatures": [
    {
      "tick": 0,
      "numerator": 4,
      "denominator": 4
    }
  ],
  "track_type": "manual",
  "voice_count": 3,
  "total_notes": 408,
  "tracks": [
    {
      "role": "upper",
      "notes": [
        {
          "pitch": 67,
          "onset": 0.0,
          "duration": 1.125,
          "velocity": 70
        },
        {
          "pitch": 69,
          "onset": 1.125,
          "duration": 0.125,
          "velocity": 70
        },
        {
          "pitch": 71,
          "onset": 1.25,
          "duration": 0.125,
          "velocity": 70
        },
        {
          "pitch": 69,
          "onset": 1.375,
          "duration": 0.125,
          "velocity": 70
        },
        {
          "pitch": 67,
          "onset": 1.5,
          "duration": 0.25,
          "velocity": 70
        },
        {
          "pitch": 69,
          "onset": 1.75,
          "duration": 0.125,
          "velocity": 70
        },
        {
          "pitch": 66,
          "onset": 1.875,
          "duration": 0.125,
          "velocity": 70
        },
        {
          "pitch": 69,
          "onset": 2.0,
          "duration": 0.0312,
          "velocity": 70
        },
        {
          "pitch": 67,
          "onset": 2.0312,
          "duration": 0.0312,
          "velocity": 70
        },
        {
          "pitch": 66,
          "onset": 2.0938,
          "duration": 0.0312,
          "velocity": 70
        },
        {
          "pitch": 67,
          "onset": 2.125,
          "duration": 0.0312,
          "velocity": 70
        },
        {
          "pitch": 69,
          "onset": 2.1562,
          "duration": 0.0312,
          "velocity": 70
        },
        {
          "pitch": 71,
          "onset": 2.2188,
          "duration": 0.0312,
          "velocity": 70
        },
        {
          "pitch": 69,
          "onset": 2.25,
          "duration": 0.0312,
          "velocity": 70
        },
        {
          "pitch": 71,
          "onset": 2.2812,
          "duration": 0.0312,
          "velocity": 70
        },
        {
          "pitch": 69,
          "onset": 2.3438,
          "duration": 0.0312,
          "velocity": 70
        },
        {
          "pitch": 67,
          "onset": 2.375,
          "duration": 0.25,
          "velocity": 70
        },
        {
          "pitch": 69,
          "onset": 2.625,
          "duration": 0.125,
          "velocity": 70
        },
        {
          "pitch": 67,
          "onset": 2.75,
          "duration": 0.125,
          "velocity": 70
        },
        {
          "pitch": 69,
          "onset": 2.875,
          "duration": 0.125,
          "velocity": 70
        },
        {
          "pitch": 69,
          "onset": 3.0,
          "duration": 0.0312,
          "velocity": 70
        },
        {
          "pitch": 71,
          "onset": 3.0312,
          "duration": 0.0312,
          "velocity": 70
        },
        {
          "pitch": 69,
          "onset": 3.0938,
          "duration": 0.0312,
          "velocity": 70
        },
        {
          "pitch": 71,
          "onset": 3.125,
          "duration": 0.0312,
          "velocity": 70
        },
        {
          "pitch": 69,
          "onset": 3.1562,
          "duration": 0.0312,
          "velocity": 70
        },
        {
          "pitch": 71,
          "onset": 3.2188,
          "duration": 0.0312,
          "velocity": 70
        },
        {
          "pitch": 69,
          "onset": 3.25,
          "duration": 0.5,
          "velocity": 70
        },
        {
          "pitch": 67,
          "onset": 3.75,
          "duration": 0.125,
          "velocity": 70
        },
        {
          "pitch": 69,
          "onset": 3.875,
          "duration": 0.125,
          "velocity": 70
        },
        {
          "pitch": 72,
          "onset": 4.0,
          "duration": 0.25,
          "velocity": 70
        },
        {
          "pitch": 71,
          "onset": 4.25,
          "duration": 0.375,
          "velocity": 70
        },
        {
          "pitch": 76,
          "onset": 4.625,
          "duration": 0.125,
          "velocity": 70
        },
        {
          "pitch": 74,
          "onset": 4.75,
          "duration": 0.125,
          "velocity": 70
        },
        {
          "pitch": 76,
          "onset": 4.875,
          "duration": 0.125,
          "velocity": 70
        },
        {
          "pitch": 69,
          "onset": 5.0,
          "duration": 0.125,
          "velocity": 70
        },
        {
          "pitch": 71,
          "onset": 5.125,
          "duration": 0.125,
          "velocity": 70
        },
        {
          "pitch": 69,
          "onset": 5.25,
          "duration": 0.125,
          "velocity": 70
        },
        {
          "pitch": 71,
          "onset": 5.375,
          "duration": 0.125,
          "velocity": 70
        },
        {
          "pitch": 71,
          "onset": 5.5,
          "duration": 0.0312,
          "velocity": 70
        },
        {
          "pitch": 72,
          "onset": 5.5312,
          "duration": 0.0312,
          "velocity": 70
        },
        {
          "pitch": 71,
          "onset": 5.5938,
          "duration": 0.1562,
          "velocity": 70
        },
        {
          "pitch": 69,
          "onset": 5.75,
          "duration": 0.125,
          "velocity": 70
        },
        {
          "pitch": 71,
          "onset": 5.875,
          "duration": 0.125,
          "velocity": 70
        },
        {
          "pitch": 72,
          "onset": 6.0,
          "duration": 0.625,
          "velocity": 70
        },
        {
          "pitch": 81,
          "onset": 6.625,
          "duration": 0.125,
          "velocity": 70
        },
        {
          "pitch": 79,
          "onset": 6.75,
          "duration": 0.125,
          "velocity": 70
        },
        {
          "pitch": 81,
          "onset": 6.875,
          "duration": 0.125,
          "velocity": 70
        },
        {
          "pitch": 71,
          "onset": 7.0,
          "duration": 0.0312,
          "velocity": 70
        },
        {
          "pitch": 72,
          "onset": 7.0312,
          "duration": 0.0312,
          "velocity": 70
        },
        {
          "pitch": 71,
          "onset": 7.0938,
          "duration": 0.5312,
          "velocity": 70
        },
        {
          "pitch": 79,
          "onset": 7.625,
          "duration": 0.125,
          "velocity": 70
        },
        {
          "pitch": 78,
          "onset": 7.75,
          "duration": 0.125,
          "velocity": 70
        },
        {
          "pitch": 79,
          "onset": 7.875,
          "duration": 0.125,
          "velocity": 70
        },
        {
          "pitch": 69,
          "onset": 8.0,
          "duration": 0.125,
          "velocity": 70
        },
        {
          "pitch": 67,
          "onset": 8.125,
          "duration": 0.125,
          "velocity": 70
        },
        {
          "pitch": 69,
          "onset": 8.25,
          "duration": 0.125,
          "velocity": 70
        },
        {
          "pitch": 71,
          "onset": 8.375,
          "duration": 0.125,
          "velocity": 70
        },
        {
          "pitch": 72,
          "onset": 8.5,
          "duration": 0.125,
          "velocity": 70
        },
        {
          "pitch": 71,
          "onset": 8.625,
          "duration": 0.125,
          "velocity": 70
        },
        {
          "pitch": 76,
          "onset": 8.75,
          "duration": 0.125,
          "velocity": 70
        },
        {
          "pitch": 74,
          "onset": 8.875,
          "duration": 0.125,
          "velocity": 70
        },
        {
          "pitch": 72,
          "onset": 9.0,
          "duration": 0.125,
          "velocity": 70
        },
        {
          "pitch": 71,
          "onset": 9.125,
          "duration": 0.375,
          "velocity": 70
        },
        {
          "pitch": 69,
          "onset": 9.5,
          "duration": 0.0312,
          "velocity": 70
        },
        {
          "pitch": 71,
          "onset": 9.5312,
          "duration": 0.0312,
          "velocity": 70
        },
        {
          "pitch": 69,
          "onset": 9.5938,
          "duration": 0.0312,
          "velocity": 70
        },
        {
          "pitch": 67,
          "onset": 9.75,
          "duration": 0.25,
          "velocity": 70
        },
        {
          "pitch": 67,
          "onset": 10.0,
          "duration": 0.125,
          "velocity": 70
        },
        {
          "pitch": 62,
          "onset": 10.125,
          "duration": 0.125,
          "velocity": 70
        },
        {
          "pitch": 64,
          "onset": 10.25,
          "duration": 0.125,
          "velocity": 70
        },
        {
          "pitch": 66,
          "onset": 10.375,
          "duration": 0.125,
          "velocity": 70
        },
        {
          "pitch": 67,
          "onset": 10.5,
          "duration": 0.25,
          "velocity": 70
        },
        {
          "pitch": 71,
          "onset": 10.75,
          "duration": 0.125,
          "velocity": 70
        },
        {
          "pitch": 69,
          "onset": 10.875,
          "duration": 0.125,
          "velocity": 70
        },
        {
          "pitch": 72,
          "onset": 11.0,
          "duration": 0.0312,
          "velocity": 70
        },
        {
          "pitch": 71,
          "onset": 11.0312,
          "duration": 0.0312,
          "velocity": 70
        },
        {
          "pitch": 69,
          "onset": 11.0625,
          "duration": 0.0312,
          "velocity": 70
        },
        {
          "pitch": 71,
          "onset": 11.0938,
          "duration": 0.0312,
          "velocity": 70
        },
        {
          "pitch": 72,
          "onset": 11.125,
          "duration": 0.125,
          "velocity": 70
        },
        {
          "pitch": 71,
          "onset": 11.25,
          "duration": 0.125,
          "velocity": 70
        },
        {
          "pitch": 69,
          "onset": 11.375,
          "duration": 0.125,
          "velocity": 70
        },
        {
          "pitch": 67,
          "onset": 11.5,
          "duration": 0.125,
          "velocity": 70
        },
        {
          "pitch": 71,
          "onset": 11.625,
          "duration": 0.125,
          "velocity": 70
        },
        {
          "pitch": 69,
          "onset": 11.75,
          "duration": 0.125,
          "velocity": 70
        },
        {
          "pitch": 72,
          "onset": 11.875,
          "duration": 0.0625,
          "velocity": 70
        },
        {
          "pitch": 71,
          "onset": 11.9375,
          "duration": 0.0625,
          "velocity": 70
        },
        {
          "pitch": 72,
          "onset": 12.0,
          "duration": 0.0312,
          "velocity": 70
        },
        {
          "pitch": 71,
          "onset": 12.0312,
          "duration": 0.0312,
          "velocity": 70
        },
        {
          "pitch": 72,
          "onset": 12.0938,
          "duration": 0.5312,
          "velocity": 70
        },
        {
          "pitch": 74,
          "onset": 12.625,
          "duration": 0.125,
          "velocity": 70
        },
        {
          "pitch": 72,
          "onset": 12.75,
          "duration": 0.125,
          "velocity": 70
        },
        {
          "pitch": 71,
          "onset": 12.875,
          "duration": 0.125,
          "velocity": 70
        },
        {
          "pitch": 71,
          "onset": 13.0,
          "duration": 0.0312,
          "velocity": 70
        },
        {
          "pitch": 69,
          "onset": 13.0312,
          "duration": 0.0312,
          "velocity": 70
        },
        {
          "pitch": 71,
          "onset": 13.0938,
          "duration": 0.2812,
          "velocity": 70
        },
        {
          "pitch": 72,
          "onset": 13.375,
          "duration": 0.125,
          "velocity": 70
        },
        {
          "pitch": 74,
          "onset": 13.5,
          "duration": 0.125,
          "velocity": 70
        },
        {
          "pitch": 72,
          "onset": 13.625,
          "duration": 0.125,
          "velocity": 70
        },
        {
          "pitch": 74,
          "onset": 13.75,
          "duration": 0.125,
          "velocity": 70
        },
        {
          "pitch": 76,
          "onset": 13.875,
          "duration": 0.125,
          "velocity": 70
        },
        {
          "pitch": 69,
          "onset": 14.0,
          "duration": 0.75,
          "velocity": 70
        },
        {
          "pitch": 72,
          "onset": 14.75,
          "duration": 0.125,
          "velocity": 70
        },
        {
          "pitch": 71,
          "onset": 14.875,
          "duration": 0.125,
          "velocity": 70
        },
        {
          "pitch": 69,
          "onset": 15.0,
          "duration": 0.25,
          "velocity": 70
        },
        {
          "pitch": 67,
          "onset": 15.25,
          "duration": 0.375,
          "velocity": 70
        },
        {
          "pitch": 66,
          "onset": 15.625,
          "duration": 0.125,
          "velocity": 70
        },
        {
          "pitch": 64,
          "onset": 15.75,
          "duration": 0.125,
          "velocity": 70
        },
        {
          "pitch": 66,
          "onset": 15.875,
          "duration": 0.125,
          "velocity": 70
        },
        {
          "pitch": 66,
          "onset": 16.0,
          "duration": 0.0312,
          "velocity": 70
        },
        {
          "pitch": 67,
          "onset": 16.0312,
          "duration": 0.0312,
          "velocity": 70
        },
        {
          "pitch": 66,
          "onset": 16.0938,
          "duration": 0.5312,
          "velocity": 70
        },
        {
          "pitch": 67,
          "onset": 16.625,
          "duration": 0.125,
          "velocity": 70
        },
        {
          "pitch": 66,
          "onset": 16.75,
          "duration": 0.125,
          "velocity": 70
        },
        {
          "pitch": 67,
          "onset": 16.875,
          "duration": 0.125,
          "velocity": 70
        },
        {
          "pitch": 66,
          "onset": 17.0,
          "duration": 0.0312,
          "velocity": 70
        },
        {
          "pitch": 67,
          "onset": 17.0312,
          "duration": 0.0312,
          "velocity": 70
        },
        {
          "pitch": 69,
          "onset": 17.0938,
          "duration": 0.0312,
          "velocity": 70
        },
        {
          "pitch": 67,
          "onset": 17.125,
          "duration": 0.0312,
          "velocity": 70
        },
        {
          "pitch": 69,
          "onset": 17.1562,
          "duration": 0.0312,
          "velocity": 70
        },
        {
          "pitch": 67,
          "onset": 17.2188,
          "duration": 0.5312,
          "velocity": 70
        },
        {
          "pitch": 66,
          "onset": 17.75,
          "duration": 0.125,
          "velocity": 70
        },
        {
          "pitch": 67,
          "onset": 17.875,
          "duration": 0.125,
          "velocity": 70
        },
        {
          "pitch": 71,
          "onset": 18.0,
          "duration": 0.0312,
          "velocity": 70
        },
        {
          "pitch": 69,
          "onset": 18.0312,
          "duration": 0.0312,
          "velocity": 70
        },
        {
          "pitch": 67,
          "onset": 18.0938,
          "duration": 0.0312,
          "velocity": 70
        },
        {
          "pitch": 69,
          "onset": 18.125,
          "duration": 0.875,
          "velocity": 70
        },
        {
          "pitch": 74,
          "onset": 19.0,
          "duration": 0.125,
          "velocity": 70
        },
        {
          "pitch": 76,
          "onset": 19.125,
          "duration": 0.125,
          "velocity": 70
        },
        {
          "pitch": 74,
          "onset": 19.25,
          "duration": 0.125,
          "velocity": 70
        },
        {
          "pitch": 72,
          "onset": 19.375,
          "duration": 0.125,
          "velocity": 70
        },
        {
          "pitch": 71,
          "onset": 19.5,
          "duration": 0.125,
          "velocity": 70
        },
        {
          "pitch": 69,
          "onset": 19.625,
          "duration": 0.125,
          "velocity": 70
        },
        {
          "pitch": 71,
          "onset": 19.75,
          "duration": 0.125,
          "velocity": 70
        },
        {
          "pitch": 67,
          "onset": 19.875,
          "duration": 0.125,
          "velocity": 70
        },
        {
          "pitch": 72,
          "onset": 20.0,
          "duration": 0.0312,
          "velocity": 70
        },
        {
          "pitch": 71,
          "onset": 20.0312,
          "duration": 0.0312,
          "velocity": 70
        },
        {
          "pitch": 72,
          "onset": 20.0938,
          "duration": 0.5312,
          "velocity": 70
        },
        {
          "pitch": 74,
          "onset": 20.625,
          "duration": 0.0625,
          "velocity": 70
        },
        {
          "pitch": 72,
          "onset": 20.6875,
          "duration": 0.0625,
          "velocity": 70
        },
        {
          "pitch": 71,
          "onset": 20.75,
          "duration": 0.125,
          "velocity": 70
        },
        {
          "pitch": 72,
          "onset": 20.875,
          "duration": 0.0625,
          "velocity": 70
        },
        {
          "pitch": 74,
          "onset": 20.9375,
          "duration": 0.0625,
          "velocity": 70
        },
        {
          "pitch": 71,
          "onset": 21.0,
          "duration": 0.0312,
          "velocity": 70
        },
        {
          "pitch": 72,
          "onset": 21.0312,
          "duration": 0.0312,
          "velocity": 70
        },
        {
          "pitch": 71,
          "onset": 21.0938,
          "duration": 0.6562,
          "velocity": 70
        },
        {
          "pitch": 69,
          "onset": 21.75,
          "duration": 0.25,
          "velocity": 70
        },
        {
          "pitch": 69,
          "onset": 22.0,
          "duration": 0.25,
          "velocity": 70
        },
        {
          "pitch": 71,
          "onset": 22.25,
          "duration": 0.125,
          "velocity": 70
        },
        {
          "pitch": 69,
          "onset": 22.375,
          "duration": 0.125,
          "velocity": 70
        },
        {
          "pitch": 67,
          "onset": 22.5,
          "duration": 0.125,
          "velocity": 70
        },
        {
          "pitch": 66,
          "onset": 22.625,
          "duration": 0.125,
          "velocity": 70
        },
        {
          "pitch": 67,
          "onset": 22.75,
          "duration": 0.25,
          "velocity": 70
        },
        {
          "pitch": 67,
          "onset": 23.0,
          "duration": 0.0312,
          "velocity": 70
        },
        {
          "pitch": 66,
          "onset": 23.0312,
          "duration": 0.0312,
          "velocity": 70
        },
        {
          "pitch": 67,
          "onset": 23.0938,
          "duration": 0.0312,
          "velocity": 70
        },
        {
          "pitch": 66,
          "onset": 23.125,
          "duration": 0.5,
          "velocity": 70
        },
        {
          "pitch": 67,
          "onset": 23.625,
          "duration": 0.0625,
          "velocity": 70
        },
        {
          "pitch": 66,
          "onset": 23.6875,
          "duration": 0.0625,
          "velocity": 70
        },
        {
          "pitch": 64,
          "onset": 23.75,
          "duration": 0.125,
          "velocity": 70
        },
        {
          "pitch": 67,
          "onset": 23.875,
          "duration": 0.0625,
          "velocity": 70
        },
        {
          "pitch": 66,
          "onset": 23.9375,
          "duration": 0.0625,
          "velocity": 70
        },
        {
          "pitch": 67,
          "onset": 24.0,
          "duration": 0.0312,
          "velocity": 70
        },
        {
          "pitch": 66,
          "onset": 24.0312,
          "duration": 0.0312,
          "velocity": 70
        },
        {
          "pitch": 67,
          "onset": 24.0938,
          "duration": 0.1562,
          "velocity": 70
        },
        {
          "pitch": 69,
          "onset": 24.25,
          "duration": 0.125,
          "velocity": 70
        },
        {
          "pitch": 67,
          "onset": 24.375,
          "duration": 0.125,
          "velocity": 70
        },
        {
          "pitch": 66,
          "onset": 24.5,
          "duration": 0.125,
          "velocity": 70
        },
        {
          "pitch": 67,
          "onset": 24.625,
          "duration": 0.125,
          "velocity": 70
        },
        {
          "pitch": 69,
          "onset": 24.75,
          "duration": 0.125,
          "velocity": 70
        },
        {
          "pitch": 71,
          "onset": 24.875,
          "duration": 0.125,
          "velocity": 70
        },
        {
          "pitch": 64,
          "onset": 25.0,
          "duration": 0.0312,
          "velocity": 70
        },
        {
          "pitch": 66,
          "onset": 25.0312,
          "duration": 0.0312,
          "velocity": 70
        },
        {
          "pitch": 64,
          "onset": 25.0938,
          "duration": 0.0312,
          "velocity": 70
        },
        {
          "pitch": 66,
          "onset": 25.125,
          "duration": 0.0312,
          "velocity": 70
        },
        {
          "pitch": 64,
          "onset": 25.1562,
          "duration": 0.5938,
          "velocity": 70
        },
        {
          "pitch": 62,
          "onset": 25.75,
          "duration": 0.125,
          "velocity": 70
        },
        {
          "pitch": 64,
          "onset": 25.875,
          "duration": 0.125,
          "velocity": 70
        },
        {
          "pitch": 62,
          "onset": 26.0,
          "duration": 1.0,
          "velocity": 70
        },
        {
          "pitch": 71,
          "onset": 27.0,
          "duration": 0.625,
          "velocity": 70
        },
        {
          "pitch": 74,
          "onset": 27.625,
          "duration": 0.125,
          "velocity": 70
        },
        {
          "pitch": 72,
          "onset": 27.75,
          "duration": 0.125,
          "velocity": 70
        },
        {
          "pitch": 71,
          "onset": 27.875,
          "duration": 0.0625,
          "velocity": 70
        },
        {
          "pitch": 76,
          "onset": 27.9375,
          "duration": 0.0625,
          "velocity": 70
        },
        {
          "pitch": 74,
          "onset": 28.0,
          "duration": 0.25,
          "velocity": 70
        },
        {
          "pitch": 72,
          "onset": 28.25,
          "duration": 0.375,
          "velocity": 70
        },
        {
          "pitch": 76,
          "onset": 28.625,
          "duration": 0.125,
          "velocity": 70
        },
        {
          "pitch": 75,
          "onset": 28.75,
          "duration": 0.125,
          "velocity": 70
        },
        {
          "pitch": 76,
          "onset": 28.875,
          "duration": 0.125,
          "velocity": 70
        },
        {
          "pitch": 71,
          "onset": 29.0,
          "duration": 0.0312,
          "velocity": 70
        },
        {
          "pitch": 73,
          "onset": 29.0312,
          "duration": 0.0312,
          "velocity": 70
        },
        {
          "pitch": 71,
          "onset": 29.0938,
          "duration": 0.0312,
          "velocity": 70
        },
        {
          "pitch": 73,
          "onset": 29.125,
          "duration": 0.0312,
          "velocity": 70
        },
        {
          "pitch": 71,
          "onset": 29.1562,
          "duration": 0.5938,
          "velocity": 70
        },
        {
          "pitch": 69,
          "onset": 29.75,
          "duration": 0.125,
          "velocity": 70
        },
        {
          "pitch": 71,
          "onset": 29.875,
          "duration": 0.125,
          "velocity": 70
        },
        {
          "pitch": 69,
          "onset": 30.0,
          "duration": 0.625,
          "velocity": 70
        },
        {
          "pitch": 72,
          "onset": 30.625,
          "duration": 0.125,
          "velocity": 70
        },
        {
          "pitch": 71,
          "onset": 30.75,
          "duration": 0.125,
          "velocity": 70
        },
        {
          "pitch": 69,
          "onset": 30.875,
          "duration": 0.0625,
          "velocity": 70
        },
        {
          "pitch": 74,
          "onset": 30.9375,
          "duration": 0.0625,
          "velocity": 70
        },
        {
          "pitch": 74,
          "onset": 31.0,
          "duration": 0.25,
          "velocity": 70
        },
        {
          "pitch": 67,
          "onset": 31.25,
          "duration": 0.5,
          "velocity": 70
        },
        {
          "pitch": 71,
          "onset": 31.75,
          "duration": 0.125,
          "velocity": 70
        },
        {
          "pitch": 69,
          "onset": 31.875,
          "duration": 0.125,
          "velocity": 70
        },
        {
          "pitch": 72,
          "onset": 32.0,
          "duration": 0.0312,
          "velocity": 70
        },
        {
          "pitch": 71,
          "onset": 32.0312,
          "duration": 0.0312,
          "velocity": 70
        },
        {
          "pitch": 69,
          "onset": 32.0938,
          "duration": 0.0312,
          "velocity": 70
        },
        {
          "pitch": 71,
          "onset": 32.125,
          "duration": 0.25,
          "velocity": 70
        },
        {
          "pitch": 72,
          "onset": 32.375,
          "duration": 0.125,
          "velocity": 70
        },
        {
          "pitch": 74,
          "onset": 32.5,
          "duration": 0.125,
          "velocity": 70
        },
        {
          "pitch": 76,
          "onset": 32.625,
          "duration": 0.125,
          "velocity": 70
        },
        {
          "pitch": 78,
          "onset": 32.75,
          "duration": 0.125,
          "velocity": 70
        },
        {
          "pitch": 79,
          "onset": 32.875,
          "duration": 0.125,
          "velocity": 70
        },
        {
          "pitch": 71,
          "onset": 33.0,
          "duration": 0.25,
          "velocity": 70
        },
        {
          "pitch": 69,
          "onset": 33.25,
          "duration": 0.25,
          "velocity": 70
        },
        {
          "pitch": 69,
          "onset": 33.5,
          "duration": 0.0312,
          "velocity": 70
        },
        {
          "pitch": 71,
          "onset": 33.5312,
          "duration": 0.0312,
          "velocity": 70
        },
        {
          "pitch": 69,
          "onset": 33.5938,
          "duration": 0.1562,
          "velocity": 70
        },
        {
          "pitch": 67,
          "onset": 33.75,
          "duration": 0.125,
          "velocity": 70
        },
        {
          "pitch": 69,
          "onset": 33.875,
          "duration": 0.125,
          "velocity": 70
        },
        {
          "pitch": 67,
          "onset": 34.0,
          "duration": 0.0312,
          "velocity": 70
        },
        {
          "pitch": 66,
          "onset": 34.0312,
          "duration": 0.0312,
          "velocity": 70
        },
        {
          "pitch": 67,
          "onset": 34.0938,
          "duration": 2.9062,
          "velocity": 70
        },
        {
          "pitch": 67,
          "onset": 38.25,
          "duration": 0.25,
          "velocity": 1
        }
      ]
    },
    {
      "role": "lower",
      "notes": [
        {
          "pitch": 55,
          "onset": 0.5,
          "duration": 0.5,
          "velocity": 70
        },
        {
          "pitch": 59,
          "onset": 0.5,
          "duration": 0.5,
          "velocity": 70
        },
        {
          "pitch": 55,
          "onset": 1.0,
          "duration": 0.5,
          "velocity": 70
        },
        {
          "pitch": 59,
          "onset": 1.0,
          "duration": 0.5,
          "velocity": 70
        },
        {
          "pitch": 57,
          "onset": 1.5,
          "duration": 0.5,
          "velocity": 70
        },
        {
          "pitch": 60,
          "onset": 1.5,
          "duration": 0.5,
          "velocity": 70
        },
        {
          "pitch": 59,
          "onset": 2.0,
          "duration": 1.0,
          "velocity": 70
        },
        {
          "pitch": 62,
          "onset": 2.0,
          "duration": 1.0,
          "velocity": 70
        },
        {
          "pitch": 61,
          "onset": 3.0,
          "duration": 0.5,
          "velocity": 70
        },
        {
          "pitch": 64,
          "onset": 3.0,
          "duration": 0.5,
          "velocity": 70
        },
        {
          "pitch": 63,
          "onset": 3.5,
          "duration": 0.5,
          "velocity": 70
        },
        {
          "pitch": 66,
          "onset": 3.5,
          "duration": 0.5,
          "velocity": 70
        },
        {
          "pitch": 64,
          "onset": 4.0,
          "duration": 0.5,
          "velocity": 70
        },
        {
          "pitch": 67,
          "onset": 4.0,
          "duration": 0.5,
          "velocity": 70
        },
        {
          "pitch": 55,
          "onset": 4.5,
          "duration": 0.5,
          "velocity": 70
        },
        {
          "pitch": 59,
          "onset": 4.5,
          "duration": 0.5,
          "velocity": 70
        },
        {
          "pitch": 55,
          "onset": 5.0,
          "duration": 0.5,
          "velocity": 70
        },
        {
          "pitch": 64,
          "onset": 5.0,
          "duration": 0.5,
          "velocity": 70
        },
        {
          "pitch": 54,
          "onset": 5.5,
          "duration": 0.5,
          "velocity": 70
        },
        {
          "pitch": 62,
          "onset": 5.5,
          "duration": 0.5,
          "velocity": 70
        },
        {
          "pitch": 52,
          "onset": 6.0,
          "duration": 0.5,
          "velocity": 70
        },
        {
          "pitch": 60,
          "onset": 6.0,
          "duration": 0.5,
          "velocity": 70
        },
        {
          "pitch": 57,
          "onset": 6.5,
          "duration": 0.5,
          "velocity": 70
        },
        {
          "pitch": 62,
          "onset": 6.5,
          "duration": 0.5,
          "velocity": 70
        },
        {
          "pitch": 62,
          "onset": 7.0,
          "duration": 1.0,
          "velocity": 70
        },
        {
          "pitch": 55,
          "onset": 7.5,
          "duration": 1.0,
          "velocity": 70
        },
        {
          "pitch": 64,
          "onset": 8.0,
          "duration": 0.5,
          "velocity": 70
        },
        {
          "pitch": 55,
          "onset": 8.5,
          "duration": 1.0,
          "velocity": 70
        },
        {
          "pitch": 60,
          "onset": 8.5,
          "duration": 0.5,
          "velocity": 70
        },
        {
          "pitch": 62,
          "onset": 9.0,
          "duration": 0.5,
          "velocity": 70
        },
        {
          "pitch": 54,
          "onset": 9.5,
          "duration": 0.5,
          "velocity": 70
        },
        {
          "pitch": 60,
          "onset": 9.5,
          "duration": 0.5,
          "velocity": 70
        },
        {
          "pitch": 55,
          "onset": 10.0,
          "duration": 0.5,
          "velocity": 70
        },
        {
          "pitch": 59,
          "onset": 10.0,
          "duration": 0.5,
          "velocity": 70
        },
        {
          "pitch": 59,
          "onset": 10.5,
          "duration": 0.25,
          "velocity": 70
        },
        {
          "pitch": 62,
          "onset": 10.5,
          "duration": 0.25,
          "velocity": 70
        },
        {
          "pitch": 60,
          "onset": 10.75,
          "duration": 0.25,
          "velocity": 70
        },
        {
          "pitch": 66,
          "onset": 10.75,
          "duration": 0.25,
          "velocity": 70
        },
        {
          "pitch": 62,
          "onset": 11.0,
          "duration": 1.0,
          "velocity": 70
        },
        {
          "pitch": 67,
          "onset": 11.0,
          "duration": 1.0,
          "velocity": 70
        },
        {
          "pitch": 55,
          "onset": 12.0,
          "duration": 0.75,
          "velocity": 70
        },
        {
          "pitch": 67,
          "onset": 12.5,
          "duration": 0.5,
          "velocity": 70
        },
        {
          "pitch": 57,
          "onset": 12.75,
          "duration": 0.25,
          "velocity": 70
        },
        {
          "pitch": 59,
          "onset": 13.0,
          "duration": 1.0,
          "velocity": 70
        },
        {
          "pitch": 67,
          "onset": 13.0,
          "duration": 0.5,
          "velocity": 70
        },
        {
          "pitch": 66,
          "onset": 13.5,
          "duration": 0.5,
          "velocity": 70
        },
        {
          "pitch": 60,
          "onset": 14.0,
          "duration": 0.5,
          "velocity": 70
        },
        {
          "pitch": 64,
          "onset": 14.0,
          "duration": 0.5,
          "velocity": 70
        },
        {
          "pitch": 62,
          "onset": 14.5,
          "duration": 0.5,
          "velocity": 70
        },
        {
          "pitch": 66,
          "onset": 14.5,
          "duration": 0.0312,
          "velocity": 70
        },
        {
          "pitch": 67,
          "onset": 14.5312,
          "duration": 0.0312,
          "velocity": 70
        },
        {
          "pitch": 66,
          "onset": 14.5938,
          "duration": 0.4062,
          "velocity": 70
        },
        {
          "pitch": 67,
          "onset": 15.0,
          "duration": 0.5,
          "velocity": 70
        },
        {
          "pitch": 55,
          "onset": 15.5,
          "duration": 0.5,
          "velocity": 70
        },
        {
          "pitch": 60,
          "onset": 16.0,
          "duration": 0.5,
          "velocity": 70
        },
        {
          "pitch": 60,
          "onset": 16.5,
          "duration": 0.5,
          "velocity": 70
        },
        {
          "pitch": 62,
          "onset": 16.5,
          "duration": 0.5,
          "velocity": 70
        },
        {
          "pitch": 60,
          "onset": 17.0,
          "duration": 0.5,
          "velocity": 70
        },
        {
          "pitch": 62,
          "onset": 17.0,
          "duration": 0.5,
          "velocity": 70
        },
        {
          "pitch": 58,
          "onset": 17.5,
          "duration": 0.5,
          "velocity": 70
        },
        {
          "pitch": 64,
          "onset": 17.5,
          "duration": 0.5,
          "velocity": 70
        },
        {
          "pitch": 57,
          "onset": 18.0,
          "duration": 1.0,
          "velocity": 70
        },
        {
          "pitch": 66,
          "onset": 18.0,
          "duration": 0.5,
          "velocity": 70
        },
        {
          "pitch": 66,
          "onset": 18.5,
          "duration": 0.5,
          "velocity": 70
        },
        {
          "pitch": 59,
          "onset": 19.0,
          "duration": 1.0,
          "velocity": 70
        },
        {
          "pitch": 66,
          "onset": 19.0,
          "duration": 0.5,
          "velocity": 70
        },
        {
          "pitch": 67,
          "onset": 19.5,
          "duration": 0.5,
          "velocity": 70
        },
        {
          "pitch": 69,
          "onset": 20.0,
          "duration": 0.5,
          "velocity": 70
        },
        {
          "pitch": 57,
          "onset": 20.5,
          "duration": 0.5,
          "velocity": 70
        },
        {
          "pitch": 66,
          "onset": 20.5,
          "duration": 0.5,
          "velocity": 70
        },
        {
          "pitch": 57,
          "onset": 21.0,
          "duration": 0.5,
          "velocity": 70
        },
        {
          "pitch": 62,
          "onset": 21.0,
          "duration": 3.5,
          "velocity": 70
        },
        {
          "pitch": 55,
          "onset": 21.5,
          "duration": 0.5,
          "velocity": 70
        },
        {
          "pitch": 54,
          "onset": 22.0,
          "duration": 0.5,
          "velocity": 70
        },
        {
          "pitch": 59,
          "onset": 22.5,
          "duration": 0.5,
          "velocity": 70
        },
        {
          "pitch": 57,
          "onset": 23.0,
          "duration": 1.0,
          "velocity": 70
        },
        {
          "pitch": 55,
          "onset": 24.0,
          "duration": 0.5,
          "velocity": 70
        },
        {
          "pitch": 57,
          "onset": 24.5,
          "duration": 0.5,
          "velocity": 70
        },
        {
          "pitch": 62,
          "onset": 24.5,
          "duration": 0.5,
          "velocity": 70
        },
        {
          "pitch": 59,
          "onset": 25.0,
          "duration": 0.5,
          "velocity": 70
        },
        {
          "pitch": 62,
          "onset": 25.0,
          "duration": 0.5,
          "velocity": 70
        },
        {
          "pitch": 57,
          "onset": 25.5,
          "duration": 0.5,
          "velocity": 70
        },
        {
          "pitch": 61,
          "onset": 25.5,
          "duration": 0.5,
          "velocity": 70
        },
        {
          "pitch": 54,
          "onset": 26.0,
          "duration": 1.0,
          "velocity": 70
        },
        {
          "pitch": 62,
          "onset": 26.0,
          "duration": 0.5,
          "velocity": 70
        },
        {
          "pitch": 69,
          "onset": 26.5,
          "duration": 0.5,
          "velocity": 70
        },
        {
          "pitch": 55,
          "onset": 27.0,
          "duration": 1.0,
          "velocity": 70
        },
        {
          "pitch": 69,
          "onset": 27.0,
          "duration": 0.5,
          "velocity": 70
        },
        {
          "pitch": 67,
          "onset": 27.5,
          "duration": 0.5,
          "velocity": 70
        },
        {
          "pitch": 57,
          "onset": 28.0,
          "duration": 1.0,
          "velocity": 70
        },
        {
          "pitch": 67,
          "onset": 28.0,
          "duration": 0.5,
          "velocity": 70
        },
        {
          "pitch": 66,
          "onset": 28.5,
          "duration": 0.5,
          "velocity": 70
        },
        {
          "pitch": 59,
          "onset": 29.0,
          "duration": 0.5,
          "velocity": 70
        },
        {
          "pitch": 67,
          "onset": 29.0,
          "duration": 1.5,
          "velocity": 70
        },
        {
          "pitch": 60,
          "onset": 29.5,
          "duration": 0.25,
          "velocity": 70
        },
        {
          "pitch": 62,
          "onset": 29.75,
          "duration": 0.25,
          "velocity": 70
        },
        {
          "pitch": 64,
          "onset": 30.0,
          "duration": 0.5,
          "velocity": 70
        },
        {
          "pitch": 62,
          "onset": 30.5,
          "duration": 0.5,
          "velocity": 70
        },
        {
          "pitch": 66,
          "onset": 30.5,
          "duration": 0.5,
          "velocity": 70
        },
        {
          "pitch": 64,
          "onset": 31.0,
          "duration": 0.5,
          "velocity": 70
        },
        {
          "pitch": 67,
          "onset": 31.0,
          "duration": 0.5,
          "velocity": 70
        },
        {
          "pitch": 62,
          "onset": 31.5,
          "duration": 0.5,
          "velocity": 70
        },
        {
          "pitch": 66,
          "onset": 31.5,
          "duration": 0.5,
          "velocity": 70
        },
        {
          "pitch": 59,
          "onset": 32.0,
          "duration": 0.25,
          "velocity": 70
        },
        {
          "pitch": 67,
          "onset": 32.0,
          "duration": 0.5,
          "velocity": 70
        },
        {
          "pitch": 57,
          "onset": 32.25,
          "duration": 0.25,
          "velocity": 70
        },
        {
          "pitch": 55,
          "onset": 32.5,
          "duration": 0.25,
          "velocity": 70
        },
        {
          "pitch": 62,
          "onset": 32.5,
          "duration": 0.5,
          "velocity": 70
        },
        {
          "pitch": 57,
          "onset": 32.75,
          "duration": 0.25,
          "velocity": 70
        },
        {
          "pitch": 54,
          "onset": 33.0,
          "duration": 0.0312,
          "velocity": 70
        },
        {
          "pitch": 60,
          "onset": 33.0,
          "duration": 0.5,
          "velocity": 70
        },
        {
          "pitch": 62,
          "onset": 33.0,
          "duration": 0.5,
          "velocity": 70
        },
        {
          "pitch": 55,
          "onset": 33.0312,
          "duration": 0.0312,
          "velocity": 70
        },
        {
          "pitch": 54,
          "onset": 33.0938,
          "duration": 0.4062,
          "velocity": 70
        },
        {
          "pitch": 52,
          "onset": 33.5,
          "duration": 0.25,
          "velocity": 70
        },
        {
          "pitch": 60,
          "onset": 33.5,
          "duration": 0.5,
          "velocity": 70
        },
        {
          "pitch": 54,
          "onset": 33.75,
          "duration": 0.25,
          "velocity": 70
        },
        {
          "pitch": 55,
          "onset": 34.0,
          "duration": 0.5,
          "velocity": 70
        },
        {
          "pitch": 60,
          "onset": 34.0,
          "duration": 0.5,
          "velocity": 70
        },
        {
          "pitch": 50,
          "onset": 34.5,
          "duration": 0.25,
          "velocity": 70
        },
        {
          "pitch": 59,
          "onset": 34.5,
          "duration": 0.25,
          "velocity": 70
        },
        {
          "pitch": 48,
          "onset": 34.75,
          "duration": 0.375,
          "velocity": 70
        },
        {
          "pitch": 57,
          "onset": 34.75,
          "duration": 0.375,
          "velocity": 70
        },
        {
          "pitch": 50,
          "onset": 35.125,
          "duration": 1.875,
          "velocity": 70
        },
        {
          "pitch": 59,
          "onset": 35.125,
          "duration": 1.875,
          "velocity": 70
        }
      ]
    },
    {
      "role": "pedal",
      "notes": [
        {
          "pitch": 43,
          "onset": 2.5,
          "duration": 0.5,
          "velocity": 70
        },
        {
          "pitch": 43,
          "onset": 3.0,
          "duration": 0.5,
          "velocity": 70
        },
        {
          "pitch": 42,
          "onset": 3.5,
          "duration": 0.5,
          "velocity": 70
        },
        {
          "pitch": 40,
          "onset": 4.0,
          "duration": 0.5,
          "velocity": 70
        },
        {
          "pitch": 38,
          "onset": 4.5,
          "duration": 0.5,
          "velocity": 70
        },
        {
          "pitch": 36,
          "onset": 5.0,
          "duration": 0.5,
          "velocity": 70
        },
        {
          "pitch": 38,
          "onset": 5.5,
          "duration": 0.5,
          "velocity": 70
        },
        {
          "pitch": 33,
          "onset": 6.0,
          "duration": 0.5,
          "velocity": 70
        },
        {
          "pitch": 30,
          "onset": 6.5,
          "duration": 0.5,
          "velocity": 70
        },
        {
          "pitch": 31,
          "onset": 7.0,
          "duration": 0.5,
          "velocity": 70
        },
        {
          "pitch": 35,
          "onset": 7.5,
          "duration": 0.5,
          "velocity": 70
        },
        {
          "pitch": 36,
          "onset": 8.0,
          "duration": 0.5,
          "velocity": 70
        },
        {
          "pitch": 33,
          "onset": 8.5,
          "duration": 0.5,
          "velocity": 70
        },
        {
          "pitch": 38,
          "onset": 9.0,
          "duration": 0.5,
          "velocity": 70
        },
        {
          "pitch": 26,
          "onset": 9.5,
          "duration": 0.5,
          "velocity": 70
        },
        {
          "pitch": 31,
          "onset": 10.0,
          "duration": 0.5,
          "velocity": 70
        },
        {
          "pitch": 43,
          "onset": 10.5,
          "duration": 0.5,
          "velocity": 70
        },
        {
          "pitch": 43,
          "onset": 11.0,
          "duration": 0.5,
          "velocity": 70
        },
        {
          "pitch": 42,
          "onset": 11.5,
          "duration": 0.5,
          "velocity": 70
        },
        {
          "pitch": 40,
          "onset": 12.0,
          "duration": 0.5,
          "velocity": 70
        },
        {
          "pitch": 28,
          "onset": 12.5,
          "duration": 0.5,
          "velocity": 70
        },
        {
          "pitch": 40,
          "onset": 13.0,
          "duration": 0.5,
          "velocity": 70
        },
        {
          "pitch": 38,
          "onset": 13.5,
          "duration": 0.5,
          "velocity": 70
        },
        {
          "pitch": 36,
          "onset": 14.0,
          "duration": 0.5,
          "velocity": 70
        },
        {
          "pitch": 48,
          "onset": 14.5,
          "duration": 0.5,
          "velocity": 70
        },
        {
          "pitch": 48,
          "onset": 15.0,
          "duration": 0.5,
          "velocity": 70
        },
        {
          "pitch": 47,
          "onset": 15.5,
          "duration": 0.5,
          "velocity": 70
        },
        {
          "pitch": 45,
          "onset": 16.0,
          "duration": 0.5,
          "velocity": 70
        },
        {
          "pitch": 38,
          "onset": 16.5,
          "duration": 0.5,
          "velocity": 70
        },
        {
          "pitch": 43,
          "onset": 17.0,
          "duration": 0.5,
          "velocity": 70
        },
        {
          "pitch": 31,
          "onset": 17.5,
          "duration": 0.5,
          "velocity": 70
        },
        {
          "pitch": 38,
          "onset": 18.0,
          "duration": 0.5,
          "velocity": 70
        },
        {
          "pitch": 26,
          "onset": 18.5,
          "duration": 0.5,
          "velocity": 70
        },
        {
          "pitch": 26,
          "onset": 19.0,
          "duration": 0.5,
          "velocity": 70
        },
        {
          "pitch": 28,
          "onset": 19.5,
          "duration": 0.5,
          "velocity": 70
        },
        {
          "pitch": 30,
          "onset": 20.0,
          "duration": 0.5,
          "velocity": 70
        },
        {
          "pitch": 26,
          "onset": 20.5,
          "duration": 0.5,
          "velocity": 70
        },
        {
          "pitch": 31,
          "onset": 21.0,
          "duration": 1.0,
          "velocity": 70
        },
        {
          "pitch": 26,
          "onset": 22.0,
          "duration": 0.5,
          "velocity": 70
        },
        {
          "pitch": 38,
          "onset": 22.5,
          "duration": 0.5,
          "velocity": 70
        },
        {
          "pitch": 38,
          "onset": 23.0,
          "duration": 0.5,
          "velocity": 70
        },
        {
          "pitch": 37,
          "onset": 23.5,
          "duration": 0.5,
          "velocity": 70
        },
        {
          "pitch": 35,
          "onset": 24.0,
          "duration": 0.5,
          "velocity": 70
        },
        {
          "pitch": 33,
          "onset": 24.5,
          "duration": 0.5,
          "velocity": 70
        },
        {
          "pitch": 31,
          "onset": 25.0,
          "duration": 0.5,
          "velocity": 70
        },
        {
          "pitch": 33,
          "onset": 25.5,
          "duration": 0.5,
          "velocity": 70
        },
        {
          "pitch": 26,
          "onset": 26.0,
          "duration": 1.0,
          "velocity": 70
        },
        {
          "pitch": 40,
          "onset": 28.5,
          "duration": 0.5,
          "velocity": 70
        },
        {
          "pitch": 40,
          "onset": 29.0,
          "duration": 0.5,
          "velocity": 70
        },
        {
          "pitch": 38,
          "onset": 29.5,
          "duration": 0.5,
          "velocity": 70
        },
        {
          "pitch": 36,
          "onset": 30.0,
          "duration": 1.0,
          "velocity": 70
        },
        {
          "pitch": 35,
          "onset": 31.0,
          "duration": 0.5,
          "velocity": 70
        },
        {
          "pitch": 33,
          "onset": 31.5,
          "duration": 0.5,
          "velocity": 70
        },
        {
          "pitch": 31,
          "onset": 32.0,
          "duration": 0.5,
          "velocity": 70
        },
        {
          "pitch": 35,
          "onset": 32.5,
          "duration": 0.25,
          "velocity": 70
        },
        {
          "pitch": 36,
          "onset": 32.75,
          "duration": 0.25,
          "velocity": 70
        },
        {
          "pitch": 38,
          "onset": 33.0,
          "duration": 0.5,
          "velocity": 70
        },
        {
          "pitch": 26,
          "onset": 33.5,
          "duration": 0.5,
          "velocity": 70
        },
        {
          "pitch": 31,
          "onset": 34.0,
          "duration": 3.0,
          "velocity": 70
        }
      ]
    }
  ]
}