{
  "bwv": 662,
  "category": "leipzig_chorale",
  "instrument": "organ",
  "form": "",
  "movement": null,
  "tonic": "A",
  "mode": "major",
  "confidence": "inferred",
  "ticks_per_beat": 480,
  "duration_seconds": 296.6,
  "tempos": [
    {
      "tick": 0,
      "bpm": 45
    },
    {
      "tick": 60,
      "bpm": 240
    },
    {
      "tick": 1620,
      "bpm": 45
    },
    {
      "tick": 98640,
      "bpm": 40
    },
    {
      "tick": 98760,
      "bpm": 40
    },
    {
      "tick": 99240,
      "bpm": 40
    },
    {
      "tick": 99360,
      "bpm": 45
    },
    {
      "tick": 99480,
      "bpm": 50
    },
    {
      "tick": 100560,
      "bpm": 40
    }
  ],
  "time_signatures": [
    {
      "tick": 0,
      "numerator": 4,
      "denominator": 4
    }
  ],
  "track_type": "manual",
  "voice_count": 2,
  "total_notes": 1819,
  "tracks": [
    {
      "role": "manual",
      "notes": [
        {
          "pitch": 57,
          "onset": 3.5,
          "duration": 0.25,
          "velocity": 100
        },
        {
          "pitch": 59,
          "onset": 3.75,
          "duration": 0.25,
          "velocity": 100
        },
        {
          "pitch": 61,
          "onset": 4.0,
          "duration": 0.5,
          "velocity": 100
        },
        {
          "pitch": 66,
          "onset": 4.5,
          "duration": 0.5,
          "velocity": 100
        },
        {
          "pitch": 64,
          "onset": 5.0,
          "duration": 0.25,
          "velocity": 100
        },
        {
          "pitch": 62,
          "onset": 5.25,
          "duration": 0.25,
          "velocity": 100
        },
        {
          "pitch": 61,
          "onset": 5.5,
          "duration": 0.25,
          "velocity": 100
        },
        {
          "pitch": 59,
          "onset": 5.75,
          "duration": 0.25,
          "velocity": 100
        },
        {
          "pitch": 57,
          "onset": 6.0,
          "duration": 0.25,
          "velocity": 100
        },
        {
          "pitch": 56,
          "onset": 6.25,
          "duration": 0.25,
          "velocity": 100
        },
        {
          "pitch": 64,
          "onset": 6.5,
          "duration": 0.5,
          "velocity": 100
        },
        {
          "pitch": 64,
          "onset": 6.5,
          "duration": 1.0,
          "velocity": 100
        },
        {
          "pitch": 66,
          "onset": 7.0,
          "duration": 0.5,
          "velocity": 100
        },
        {
          "pitch": 62,
          "onset": 7.5,
          "duration": 0.5,
          "velocity": 100
        },
        {
          "pitch": 69,
          "onset": 7.5,
          "duration": 0.25,
          "velocity": 100
        },
        {
          "pitch": 68,
          "onset": 7.75,
          "duration": 0.25,
          "velocity": 100
        },
        {
          "pitch": 61,
          "onset": 8.0,
          "duration": 1.0,
          "velocity": 100
        },
        {
          "pitch": 69,
          "onset": 8.0,
          "duration": 0.25,
          "velocity": 100
        },
        {
          "pitch": 64,
          "onset": 8.25,
          "duration": 0.25,
          "velocity": 100
        },
        {
          "pitch": 69,
          "onset": 8.5,
          "duration": 1.0,
          "velocity": 100
        },
        {
          "pitch": 59,
          "onset": 9.0,
          "duration": 1.0,
          "velocity": 100
        },
        {
          "pitch": 69,
          "onset": 9.5,
          "duration": 0.125,
          "velocity": 100
        },
        {
          "pitch": 68,
          "onset": 9.625,
          "duration": 0.125,
          "velocity": 100
        },
        {
          "pitch": 66,
          "onset": 9.75,
          "duration": 0.125,
          "velocity": 100
        },
        {
          "pitch": 68,
          "onset": 9.875,
          "duration": 0.125,
          "velocity": 100
        },
        {
          "pitch": 61,
          "onset": 10.0,
          "duration": 0.75,
          "velocity": 100
        },
        {
          "pitch": 69,
          "onset": 10.0,
          "duration": 0.5,
          "velocity": 100
        },
        {
          "pitch": 64,
          "onset": 10.5,
          "duration": 0.25,
          "velocity": 100
        },
        {
          "pitch": 59,
          "onset": 10.75,
          "duration": 0.25,
          "velocity": 100
        },
        {
          "pitch": 62,
          "onset": 10.75,
          "duration": 0.25,
          "velocity": 100
        },
        {
          "pitch": 61,
          "onset": 11.0,
          "duration": 0.25,
          "velocity": 100
        },
        {
          "pitch": 64,
          "onset": 11.0,
          "duration": 0.25,
          "velocity": 100
        },
        {
          "pitch": 63,
          "onset": 11.25,
          "duration": 0.25,
          "velocity": 100
        },
        {
          "pitch": 66,
          "onset": 11.25,
          "duration": 0.25,
          "velocity": 100
        },
        {
          "pitch": 63,
          "onset": 11.5,
          "duration": 0.25,
          "velocity": 100
        },
        {
          "pitch": 66,
          "onset": 11.5,
          "duration": 0.0625,
          "velocity": 100
        },
        {
          "pitch": 68,
          "onset": 11.5625,
          "duration": 0.0625,
          "velocity": 100
        },
        {
          "pitch": 66,
          "onset": 11.625,
          "duration": 0.125,
          "velocity": 100
        },
        {
          "pitch": 61,
          "onset": 11.75,
          "duration": 0.125,
          "velocity": 100
        },
        {
          "pitch": 64,
          "onset": 11.75,
          "duration": 0.125,
          "velocity": 100
        },
        {
          "pitch": 63,
          "onset": 11.875,
          "duration": 0.125,
          "velocity": 100
        },
        {
          "pitch": 66,
          "onset": 11.875,
          "duration": 0.125,
          "velocity": 100
        },
        {
          "pitch": 64,
          "onset": 12.0,
          "duration": 1.0,
          "velocity": 100
        },
        {
          "pitch": 68,
          "onset": 12.0,
          "duration": 0.25,
          "velocity": 100
        },
        {
          "pitch": 69,
          "onset": 12.25,
          "duration": 0.0625,
          "velocity": 100
        },
        {
          "pitch": 68,
          "onset": 12.3125,
          "duration": 0.0625,
          "velocity": 100
        },
        {
          "pitch": 69,
          "onset": 12.375,
          "duration": 0.0625,
          "velocity": 100
        },
        {
          "pitch": 71,
          "onset": 12.4375,
          "duration": 0.0625,
          "velocity": 100
        },
        {
          "pitch": 73,
          "onset": 12.5,
          "duration": 0.5,
          "velocity": 100
        },
        {
          "pitch": 61,
          "onset": 13.0,
          "duration": 1.5,
          "velocity": 100
        },
        {
          "pitch": 71,
          "onset": 13.0,
          "duration": 0.25,
          "velocity": 100
        },
        {
          "pitch": 69,
          "onset": 13.25,
          "duration": 0.25,
          "velocity": 100
        },
        {
          "pitch": 68,
          "onset": 13.5,
          "duration": 0.25,
          "velocity": 100
        },
        {
          "pitch": 66,
          "onset": 13.75,
          "duration": 0.25,
          "velocity": 100
        },
        {
          "pitch": 64,
          "onset": 14.0,
          "duration": 0.25,
          "velocity": 100
        },
        {
          "pitch": 63,
          "onset": 14.25,
          "duration": 0.25,
          "velocity": 100
        },
        {
          "pitch": 59,
          "onset": 14.5,
          "duration": 0.5,
          "velocity": 100
        },
        {
          "pitch": 71,
          "onset": 14.5,
          "duration": 1.0,
          "velocity": 100
        },
        {
          "pitch": 61,
          "onset": 15.0,
          "duration": 0.5,
          "velocity": 100
        },
        {
          "pitch": 64,
          "onset": 15.5,
          "duration": 0.25,
          "velocity": 100
        },
        {
          "pitch": 69,
          "onset": 15.5,
          "duration": 0.5,
          "velocity": 100
        },
        {
          "pitch": 63,
          "onset": 15.75,
          "duration": 0.25,
          "velocity": 100
        },
        {
          "pitch": 64,
          "onset": 16.0,
          "duration": 0.25,
          "velocity": 100
        },
        {
          "pitch": 68,
          "onset": 16.0,
          "duration": 1.0,
          "velocity": 100
        },
        {
          "pitch": 59,
          "onset": 16.25,
          "duration": 0.25,
          "velocity": 100
        },
        {
          "pitch": 64,
          "onset": 16.5,
          "duration": 1.0,
          "velocity": 100
        },
        {
          "pitch": 66,
          "onset": 17.0,
          "duration": 1.0,
          "velocity": 100
        },
        {
          "pitch": 63,
          "onset": 17.5,
          "duration": 0.0625,
          "velocity": 100
        },
        {
          "pitch": 64,
          "onset": 17.5625,
          "duration": 0.0625,
          "velocity": 100
        },
        {
          "pitch": 63,
          "onset": 17.625,
          "duration": 0.375,
          "velocity": 100
        },
        {
          "pitch": 64,
          "onset": 18.0,
          "duration": 0.5,
          "velocity": 100
        },
        {
          "pitch": 68,
          "onset": 18.0,
          "duration": 0.75,
          "velocity": 100
        },
        {
          "pitch": 59,
          "onset": 18.5,
          "duration": 0.25,
          "velocity": 100
        },
        {
          "pitch": 57,
          "onset": 18.75,
          "duration": 0.25,
          "velocity": 100
        },
        {
          "pitch": 66,
          "onset": 18.75,
          "duration": 0.25,
          "velocity": 100
        },
        {
          "pitch": 59,
          "onset": 19.0,
          "duration": 0.25,
          "velocity": 100
        },
        {
          "pitch": 68,
          "onset": 19.0,
          "duration": 0.25,
          "velocity": 100
        },
        {
          "pitch": 61,
          "onset": 19.25,
          "duration": 0.25,
          "velocity": 100
        },
        {
          "pitch": 70,
          "onset": 19.25,
          "duration": 0.25,
          "velocity": 100
        },
        {
          "pitch": 61,
          "onset": 19.5,
          "duration": 0.0625,
          "velocity": 100
        },
        {
          "pitch": 70,
          "onset": 19.5,
          "duration": 0.0625,
          "velocity": 100
        },
        {
          "pitch": 63,
          "onset": 19.5625,
          "duration": 0.0625,
          "velocity": 100
        },
        {
          "pitch": 71,
          "onset": 19.5625,
          "duration": 0.0625,
          "velocity": 100
        },
        {
          "pitch": 61,
          "onset": 19.625,
          "duration": 0.125,
          "velocity": 100
        },
        {
          "pitch": 70,
          "onset": 19.625,
          "duration": 0.125,
          "velocity": 100
        },
        {
          "pitch": 59,
          "onset": 19.75,
          "duration": 0.125,
          "velocity": 100
        },
        {
          "pitch": 68,
          "onset": 19.75,
          "duration": 0.125,
          "velocity": 100
        },
        {
          "pitch": 61,
          "onset": 19.875,
          "duration": 0.125,
          "velocity": 100
        },
        {
          "pitch": 70,
          "onset": 19.875,
          "duration": 0.125,
          "velocity": 100
        },
        {
          "pitch": 62,
          "onset": 20.0,
          "duration": 0.25,
          "velocity": 100
        },
        {
          "pitch": 71,
          "onset": 20.0,
          "duration": 0.25,
          "velocity": 100
        },
        {
          "pitch": 61,
          "onset": 20.25,
          "duration": 0.25,
          "velocity": 100
        },
        {
          "pitch": 70,
          "onset": 20.25,
          "duration": 0.25,
          "velocity": 100
        },
        {
          "pitch": 62,
          "onset": 20.5,
          "duration": 0.25,
          "velocity": 100
        },
        {
          "pitch": 71,
          "onset": 20.5,
          "duration": 0.25,
          "velocity": 100
        },
        {
          "pitch": 64,
          "onset": 20.75,
          "duration": 0.25,
          "velocity": 100
        },
        {
          "pitch": 73,
          "onset": 20.75,
          "duration": 0.25,
          "velocity": 100
        },
        {
          "pitch": 66,
          "onset": 21.0,
          "duration": 0.25,
          "velocity": 100
        },
        {
          "pitch": 74,
          "onset": 21.0,
          "duration": 1.25,
          "velocity": 100
        },
        {
          "pitch": 68,
          "onset": 21.25,
          "duration": 0.25,
          "velocity": 100
        },
        {
          "pitch": 68,
          "onset": 21.5,
          "duration": 0.0625,
          "velocity": 100
        },
        {
          "pitch": 69,
          "onset": 21.5625,
          "duration": 0.0625,
          "velocity": 100
        },
        {
          "pitch": 68,
          "onset": 21.625,
          "duration": 0.125,
          "velocity": 100
        },
        {
          "pitch": 66,
          "onset": 21.75,
          "duration": 0.125,
          "velocity": 100
        },
        {
          "pitch": 68,
          "onset": 21.875,
          "duration": 0.125,
          "velocity": 100
        },
        {
          "pitch": 69,
          "onset": 22.0,
          "duration": 0.5,
          "velocity": 100
        },
        {
          "pitch": 78,
          "onset": 22.25,
          "duration": 0.25,
          "velocity": 100
        },
        {
          "pitch": 71,
          "onset": 22.5,
          "duration": 1.0,
          "velocity": 100
        },
        {
          "pitch": 76,
          "onset": 22.5,
          "duration": 0.25,
          "velocity": 100
        },
        {
          "pitch": 74,
          "onset": 22.75,
          "duration": 0.25,
          "velocity": 100
        },
        {
          "pitch": 73,
          "onset": 23.0,
          "duration": 0.25,
          "velocity": 100
        },
        {
          "pitch": 74,
          "onset": 23.25,
          "duration": 0.25,
          "velocity": 100
        },
        {
          "pitch": 69,
          "onset": 23.5,
          "duration": 0.5,
          "velocity": 100
        },
        {
          "pitch": 74,
          "onset": 23.5,
          "duration": 0.0625,
          "velocity": 100
        },
        {
          "pitch": 76,
          "onset": 23.5625,
          "duration": 0.0625,
          "velocity": 100
        },
        {
          "pitch": 74,
          "onset": 23.625,
          "duration": 0.125,
          "velocity": 100
        },
        {
          "pitch": 73,
          "onset": 23.75,
          "duration": 0.125,
          "velocity": 100
        },
        {
          "pitch": 74,
          "onset": 23.875,
          "duration": 0.125,
          "velocity": 100
        },
        {
          "pitch": 68,
          "onset": 24.0,
          "duration": 1.0,
          "velocity": 100
        },
        {
          "pitch": 76,
          "onset": 24.0,
          "duration": 0.25,
          "velocity": 100
        },
        {
          "pitch": 73,
          "onset": 24.25,
          "duration": 0.25,
          "velocity": 100
        },
        {
          "pitch": 71,
          "onset": 24.5,
          "duration": 0.25,
          "velocity": 100
        },
        {
          "pitch": 69,
          "onset": 24.75,
          "duration": 0.25,
          "velocity": 100
        },
        {
          "pitch": 66,
          "onset": 25.0,
          "duration": 1.5,
          "velocity": 100
        },
        {
          "pitch": 71,
          "onset": 25.0,
          "duration": 0.25,
          "velocity": 100
        },
        {
          "pitch": 73,
          "onset": 25.25,
          "duration": 0.25,
          "velocity": 100
        },
        {
          "pitch": 73,
          "onset": 25.5,
          "duration": 0.0625,
          "velocity": 100
        },
        {
          "pitch": 74,
          "onset": 25.5625,
          "duration": 0.0625,
          "velocity": 100
        },
        {
          "pitch": 73,
          "onset": 25.625,
          "duration": 0.125,
          "velocity": 100
        },
        {
          "pitch": 71,
          "onset": 25.75,
          "duration": 0.125,
          "velocity": 100
        },
        {
          "pitch": 73,
          "onset": 25.875,
          "duration": 0.125,
          "velocity": 100
        },
        {
          "pitch": 74,
          "onset": 26.0,
          "duration": 0.25,
          "velocity": 100
        },
        {
          "pitch": 71,
          "onset": 26.25,
          "duration": 0.25,
          "velocity": 100
        },
        {
          "pitch": 64,
          "onset": 26.5,
          "duration": 0.5,
          "velocity": 100
        },
        {
          "pitch": 69,
          "onset": 26.5,
          "duration": 0.25,
          "velocity": 100
        },
        {
          "pitch": 68,
          "onset": 26.75,
          "duration": 0.25,
          "velocity": 100
        },
        {
          "pitch": 66,
          "onset": 27.0,
          "duration": 0.5,
          "velocity": 100
        },
        {
          "pitch": 69,
          "onset": 27.0,
          "duration": 0.25,
          "velocity": 100
        },
        {
          "pitch": 71,
          "onset": 27.25,
          "duration": 0.25,
          "velocity": 100
        },
        {
          "pitch": 68,
          "onset": 27.5,
          "duration": 0.5,
          "velocity": 100
        },
        {
          "pitch": 71,
          "onset": 27.5,
          "duration": 0.0625,
          "velocity": 100
        },
        {
          "pitch": 73,
          "onset": 27.5625,
          "duration": 0.0625,
          "velocity": 100
        },
        {
          "pitch": 71,
          "onset": 27.625,
          "duration": 0.125,
          "velocity": 100
        },
        {
          "pitch": 69,
          "onset": 27.75,
          "duration": 0.125,
          "velocity": 100
        },
        {
          "pitch": 71,
          "onset": 27.875,
          "duration": 0.125,
          "velocity": 100
        },
        {
          "pitch": 69,
          "onset": 28.0,
          "duration": 0.25,
          "velocity": 100
        },
        {
          "pitch": 73,
          "onset": 28.0,
          "duration": 0.25,
          "velocity": 100
        },
        {
          "pitch": 64,
          "onset": 28.25,
          "duration": 0.25,
          "velocity": 100
        },
        {
          "pitch": 74,
          "onset": 28.25,
          "duration": 0.125,
          "velocity": 100
        },
        {
          "pitch": 76,
          "onset": 28.25,
          "duration": 0.125,
          "velocity": 100
        },
        {
          "pitch": 74,
          "onset": 28.375,
          "duration": 0.125,
          "velocity": 100
        },
        {
          "pitch": 76,
          "onset": 28.375,
          "duration": 0.125,
          "velocity": 100
        },
        {
          "pitch": 69,
          "onset": 28.5,
          "duration": 1.0,
          "velocity": 100
        },
        {
          "pitch": 78,
          "onset": 28.5,
          "duration": 0.5,
          "velocity": 100
        },
        {
          "pitch": 76,
          "onset": 29.0,
          "duration": 0.25,
          "velocity": 100
        },
        {
          "pitch": 74,
          "onset": 29.25,
          "duration": 0.25,
          "velocity": 100
        },
        {
          "pitch": 68,
          "onset": 29.5,
          "duration": 0.25,
          "velocity": 100
        },
        {
          "pitch": 73,
          "onset": 29.5,
          "duration": 0.25,
          "velocity": 100
        },
        {
          "pitch": 66,
          "onset": 29.75,
          "duration": 0.25,
          "velocity": 100
        },
        {
          "pitch": 71,
          "onset": 29.75,
          "duration": 0.25,
          "velocity": 100
        },
        {
          "pitch": 64,
          "onset": 30.0,
          "duration": 0.25,
          "velocity": 100
        },
        {
          "pitch": 69,
          "onset": 30.0,
          "duration": 0.25,
          "velocity": 100
        },
        {
          "pitch": 62,
          "onset": 30.25,
          "duration": 0.25,
          "velocity": 100
        },
        {
          "pitch": 68,
          "onset": 30.25,
          "duration": 0.25,
          "velocity": 100
        },
        {
          "pitch": 64,
          "onset": 30.5,
          "duration": 0.25,
          "velocity": 100
        },
        {
          "pitch": 76,
          "onset": 30.5,
          "duration": 1.0,
          "velocity": 100
        },
        {
          "pitch": 68,
          "onset": 30.75,
          "duration": 0.25,
          "velocity": 100
        },
        {
          "pitch": 66,
          "onset": 31.0,
          "duration": 0.25,
          "velocity": 100
        },
        {
          "pitch": 69,
          "onset": 31.25,
          "duration": 0.25,
          "velocity": 100
        },
        {
          "pitch": 68,
          "onset": 31.5,
          "duration": 0.25,
          "velocity": 100
        },
        {
          "pitch": 74,
          "onset": 31.5,
          "duration": 0.5,
          "velocity": 100
        },
        {
          "pitch": 71,
          "onset": 31.75,
          "duration": 0.25,
          "velocity": 100
        },
        {
          "pitch": 69,
          "onset": 32.0,
          "duration": 0.25,
          "velocity": 100
        },
        {
          "pitch": 73,
          "onset": 32.0,
          "duration": 0.75,
          "velocity": 100
        },
        {
          "pitch": 64,
          "onset": 32.25,
          "duration": 0.25,
          "velocity": 100
        },
        {
          "pitch": 57,
          "onset": 32.5,
          "duration": 1.0,
          "velocity": 100
        },
        {
          "pitch": 74,
          "onset": 32.75,
          "duration": 0.25,
          "velocity": 100
        },
        {
          "pitch": 74,
          "onset": 33.0,
          "duration": 0.0625,
          "velocity": 100
        },
        {
          "pitch": 73,
          "onset": 33.0625,
          "duration": 0.0625,
          "velocity": 100
        },
        {
          "pitch": 71,
          "onset": 33.125,
          "duration": 0.0625,
          "velocity": 100
        },
        {
          "pitch": 73,
          "onset": 33.1875,
          "duration": 0.0625,
          "velocity": 100
        },
        {
          "pitch": 71,
          "onset": 33.25,
          "duration": 0.0625,
          "velocity": 100
        },
        {
          "pitch": 73,
          "onset": 33.3125,
          "duration": 0.0625,
          "velocity": 100
        },
        {
          "pitch": 71,
          "onset": 33.375,
          "duration": 0.375,
          "velocity": 100
        },
        {
          "pitch": 56,
          "onset": 33.5,
          "duration": 0.5,
          "velocity": 100
        },
        {
          "pitch": 69,
          "onset": 33.75,
          "duration": 0.125,
          "velocity": 100
        },
        {
          "pitch": 71,
          "onset": 33.875,
          "duration": 0.125,
          "velocity": 100
        },
        {
          "pitch": 57,
          "onset": 34.0,
          "duration": 0.25,
          "velocity": 100
        },
        {
          "pitch": 73,
          "onset": 34.0,
          "duration": 0.75,
          "velocity": 100
        },
        {
          "pitch": 64,
          "onset": 34.25,
          "duration": 0.25,
          "velocity": 100
        },
        {
          "pitch": 67,
          "onset": 34.5,
          "duration": 0.75,
          "velocity": 100
        },
        {
          "pitch": 76,
          "onset": 34.75,
          "duration": 0.25,
          "velocity": 100
        },
        {
          "pitch": 69,
          "onset": 35.0,
          "duration": 0.5,
          "velocity": 100
        },
        {
          "pitch": 64,
          "onset": 35.25,
          "duration": 0.25,
          "velocity": 100
        },
        {
          "pitch": 66,
          "onset": 35.5,
          "duration": 0.25,
          "velocity": 100
        },
        {
          "pitch": 74,
          "onset": 35.5,
          "duration": 0.75,
          "velocity": 100
        },
        {
          "pitch": 62,
          "onset": 35.75,
          "duration": 0.25,
          "velocity": 100
        },
        {
          "pitch": 64,
          "onset": 36.0,
          "duration": 1.25,
          "velocity": 100
        },
        {
          "pitch": 71,
          "onset": 36.25,
          "duration": 0.25,
          "velocity": 100
        },
        {
          "pitch": 73,
          "onset": 36.5,
          "duration": 0.25,
          "velocity": 100
        },
        {
          "pitch": 69,
          "onset": 36.75,
          "duration": 0.25,
          "velocity": 100
        },
        {
          "pitch": 66,
          "onset": 37.0,
          "duration": 0.5,
          "velocity": 100
        },
        {
          "pitch": 62,
          "onset": 37.25,
          "duration": 0.25,
          "velocity": 100
        },
        {
          "pitch": 61,
          "onset": 37.5,
          "duration": 0.25,
          "velocity": 100
        },
        {
          "pitch": 69,
          "onset": 37.5,
          "duration": 0.125,
          "velocity": 100
        },
        {
          "pitch": 68,
          "onset": 37.625,
          "duration": 0.125,
          "velocity": 100
        },
        {
          "pitch": 59,
          "onset": 37.75,
          "duration": 0.25,
          "velocity": 100
        },
        {
          "pitch": 66,
          "onset": 37.75,
          "duration": 0.125,
          "velocity": 100
        },
        {
          "pitch": 68,
          "onset": 37.875,
          "duration": 0.125,
          "velocity": 100
        },
        {
          "pitch": 61,
          "onset": 38.0,
          "duration": 0.75,
          "velocity": 100
        },
        {
          "pitch": 69,
          "onset": 38.0,
          "duration": 1.125,
          "velocity": 100
        },
        {
          "pitch": 69,
          "onset": 38.0,
          "duration": 0.25,
          "velocity": 100
        },
        {
          "pitch": 64,
          "onset": 38.25,
          "duration": 0.25,
          "velocity": 100
        },
        {
          "pitch": 66,
          "onset": 38.5,
          "duration": 0.5,
          "velocity": 100
        },
        {
          "pitch": 62,
          "onset": 38.75,
          "duration": 0.5,
          "velocity": 100
        },
        {
          "pitch": 64,
          "onset": 39.0,
          "duration": 0.5,
          "velocity": 100
        },
        {
          "pitch": 64,
          "onset": 39.125,
          "duration": 0.125,
          "velocity": 100
        },
        {
          "pitch": 61,
          "onset": 39.25,
          "duration": 0.25,
          "velocity": 100
        },
        {
          "pitch": 66,
          "onset": 39.25,
          "duration": 0.125,
          "velocity": 100
        },
        {
          "pitch": 68,
          "onset": 39.375,
          "duration": 0.125,
          "velocity": 100
        },
        {
          "pitch": 59,
          "onset": 39.5,
          "duration": 0.5,
          "velocity": 100
        },
        {
          "pitch": 66,
          "onset": 39.5,
          "duration": 0.25,
          "velocity": 100
        },
        {
          "pitch": 69,
          "onset": 39.5,
          "duration": 0.125,
          "velocity": 100
        },
        {
          "pitch": 73,
          "onset": 39.625,
          "duration": 0.125,
          "velocity": 100
        },
        {
          "pitch": 68,
          "onset": 39.75,
          "duration": 0.25,
          "velocity": 100
        },
        {
          "pitch": 71,
          "onset": 39.75,
          "duration": 0.125,
          "velocity": 100
        },
        {
          "pitch": 74,
          "onset": 39.875,
          "duration": 0.0625,
          "velocity": 100
        },
        {
          "pitch": 73,
          "onset": 39.9375,
          "duration": 0.0625,
          "velocity": 100
        },
        {
          "pitch": 57,
          "onset": 40.0,
          "duration": 1.25,
          "velocity": 100
        },
        {
          "pitch": 73,
          "onset": 40.0,
          "duration": 0.625,
          "velocity": 100
        },
        {
          "pitch": 74,
          "onset": 40.625,
          "duration": 0.125,
          "velocity": 100
        },
        {
          "pitch": 73,
          "onset": 40.75,
          "duration": 0.125,
          "velocity": 100
        },
        {
          "pitch": 74,
          "onset": 40.875,
          "duration": 0.125,
          "velocity": 100
        },
        {
          "pitch": 66,
          "onset": 41.0,
          "duration": 1.0,
          "velocity": 100
        },
        {
          "pitch": 74,
          "onset": 41.0,
          "duration": 0.0625,
          "velocity": 100
        },
        {
          "pitch": 76,
          "onset": 41.0625,
          "duration": 0.0625,
          "velocity": 100
        },
        {
          "pitch": 74,
          "onset": 41.125,
          "duration": 0.625,
          "velocity": 100
        },
        {
          "pitch": 54,
          "onset": 41.25,
          "duration": 0.25,
          "velocity": 100
        },
        {
          "pitch": 56,
          "onset": 41.5,
          "duration": 0.25,
          "velocity": 100
        },
        {
          "pitch": 57,
          "onset": 41.75,
          "duration": 0.25,
          "velocity": 100
        },
        {
          "pitch": 73,
          "onset": 41.75,
          "duration": 0.125,
          "velocity": 100
        },
        {
          "pitch": 74,
          "onset": 41.875,
          "duration": 0.125,
          "velocity": 100
        },
        {
          "pitch": 59,
          "onset": 42.0,
          "duration": 0.25,
          "velocity": 100
        },
        {
          "pitch": 76,
          "onset": 42.0,
          "duration": 1.5,
          "velocity": 100
        },
        {
          "pitch": 57,
          "onset": 42.25,
          "duration": 0.25,
          "velocity": 100
        },
        {
          "pitch": 56,
          "onset": 42.5,
          "duration": 0.5,
          "velocity": 100
        },
        {
          "pitch": 64,
          "onset": 42.75,
          "duration": 0.25,
          "velocity": 100
        },
        {
          "pitch": 57,
          "onset": 43.0,
          "duration": 0.5,
          "velocity": 100
        },
        {
          "pitch": 66,
          "onset": 43.0,
          "duration": 0.25,
          "velocity": 100
        },
        {
          "pitch": 68,
          "onset": 43.25,
          "duration": 0.25,
          "velocity": 100
        },
        {
          "pitch": 59,
          "onset": 43.5,
          "duration": 0.5,
          "velocity": 100
        },
        {
          "pitch": 68,
          "onset": 43.5,
          "duration": 0.0625,
          "velocity": 100
        },
        {
          "pitch": 74,
          "onset": 43.5,
          "duration": 0.125,
          "velocity": 100
        },
        {
          "pitch": 69,
          "onset": 43.5625,
          "duration": 0.0625,
          "velocity": 100
        },
        {
          "pitch": 68,
          "onset": 43.625,
          "duration": 0.125,
          "velocity": 100
        },
        {
          "pitch": 73,
          "onset": 43.625,
          "duration": 0.125,
          "velocity": 100
        },
        {
          "pitch": 66,
          "onset": 43.75,
          "duration": 0.125,
          "velocity": 100
        },
        {
          "pitch": 71,
          "onset": 43.75,
          "duration": 0.125,
          "velocity": 100
        },
        {
          "pitch": 68,
          "onset": 43.875,
          "duration": 0.125,
          "velocity": 100
        },
        {
          "pitch": 74,
          "onset": 43.875,
          "duration": 0.0625,
          "velocity": 100
        },
        {
          "pitch": 73,
          "onset": 43.9375,
          "duration": 0.0625,
          "velocity": 100
        },
        {
          "pitch": 61,
          "onset": 44.0,
          "duration": 1.0,
          "velocity": 100
        },
        {
          "pitch": 69,
          "onset": 44.0,
          "duration": 0.25,
          "velocity": 100
        },
        {
          "pitch": 73,
          "onset": 44.0,
          "duration": 0.0625,
          "velocity": 100
        },
        {
          "pitch": 71,
          "onset": 44.0625,
          "duration": 0.0625,
          "velocity": 100
        },
        {
          "pitch": 73,
          "onset": 44.125,
          "duration": 0.625,
          "velocity": 100
        },
        {
          "pitch": 68,
          "onset": 44.25,
          "duration": 0.25,
          "velocity": 100
        },
        {
          "pitch": 68,
          "onset": 44.5,
          "duration": 0.25,
          "velocity": 100
        },
        {
          "pitch": 66,
          "onset": 44.75,
          "duration": 0.25,
          "velocity": 100
        },
        {
          "pitch": 74,
          "onset": 44.75,
          "duration": 0.25,
          "velocity": 100
        },
        {
          "pitch": 62,
          "onset": 45.0,
          "duration": 1.0,
          "velocity": 100
        },
        {
          "pitch": 65,
          "onset": 45.0,
          "duration": 0.25,
          "velocity": 100
        },
        {
          "pitch": 74,
          "onset": 45.0,
          "duration": 0.0625,
          "velocity": 100
        },
        {
          "pitch": 73,
          "onset": 45.0625,
          "duration": 0.0625,
          "velocity": 100
        },
        {
          "pitch": 71,
          "onset": 45.125,
          "duration": 0.0625,
          "velocity": 100
        },
        {
          "pitch": 73,
          "onset": 45.1875,
          "duration": 0.0625,
          "velocity": 100
        },
        {
          "pitch": 66,
          "onset": 45.25,
          "duration": 0.25,
          "velocity": 100
        },
        {
          "pitch": 71,
          "onset": 45.25,
          "duration": 0.0625,
          "velocity": 100
        },
        {
          "pitch": 73,
          "onset": 45.3125,
          "duration": 0.0625,
          "velocity": 100
        },
        {
          "pitch": 71,
          "onset": 45.375,
          "duration": 0.375,
          "velocity": 100
        },
        {
          "pitch": 66,
          "onset": 45.5,
          "duration": 0.25,
          "velocity": 100
        },
        {
          "pitch": 68,
          "onset": 45.75,
          "duration": 0.25,
          "velocity": 100
        },
        {
          "pitch": 69,
          "onset": 45.75,
          "duration": 0.125,
          "velocity": 100
        },
        {
          "pitch": 71,
          "onset": 45.875,
          "duration": 0.125,
          "velocity": 100
        },
        {
          "pitch": 68,
          "onset": 46.0,
          "duration": 1.25,
          "velocity": 100
        },
        {
          "pitch": 73,
          "onset": 46.0,
          "duration": 1.9688,
          "velocity": 100
        },
        {
          "pitch": 62,
          "onset": 46.25,
          "duration": 0.25,
          "velocity": 100
        },
        {
          "pitch": 61,
          "onset": 46.5,
          "duration": 0.25,
          "velocity": 100
        },
        {
          "pitch": 59,
          "onset": 46.75,
          "duration": 0.25,
          "velocity": 100
        },
        {
          "pitch": 57,
          "onset": 47.0,
          "duration": 0.5,
          "velocity": 100
        },
        {
          "pitch": 66,
          "onset": 47.25,
          "duration": 0.25,
          "velocity": 100
        },
        {
          "pitch": 59,
          "onset": 47.5,
          "duration": 0.5,
          "velocity": 100
        },
        {
          "pitch": 66,
          "onset": 47.5,
          "duration": 0.25,
          "velocity": 100
        },
        {
          "pitch": 65,
          "onset": 47.75,
          "duration": 0.25,
          "velocity": 100
        },
        {
          "pitch": 61,
          "onset": 48.0,
          "duration": 0.5,
          "velocity": 100
        },
        {
          "pitch": 66,
          "onset": 48.0,
          "duration": 0.25,
          "velocity": 100
        },
        {
          "pitch": 62,
          "onset": 48.5,
          "duration": 0.75,
          "velocity": 100
        },
        {
          "pitch": 68,
          "onset": 48.5,
          "duration": 0.25,
          "velocity": 100
        },
        {
          "pitch": 61,
          "onset": 49.25,
          "duration": 0.25,
          "velocity": 100
        },
        {
          "pitch": 56,
          "onset": 49.5,
          "duration": 0.25,
          "velocity": 100
        },
        {
          "pitch": 59,
          "onset": 49.75,
          "duration": 0.25,
          "velocity": 100
        },
        {
          "pitch": 66,
          "onset": 49.75,
          "duration": 0.25,
          "velocity": 100
        },
        {
          "pitch": 57,
          "onset": 50.0,
          "duration": 1.25,
          "velocity": 100
        },
        {
          "pitch": 66,
          "onset": 50.0,
          "duration": 0.25,
          "velocity": 100
        },
        {
          "pitch": 73,
          "onset": 50.0,
          "duration": 0.0625,
          "velocity": 100
        },
        {
          "pitch": 71,
          "onset": 50.0625,
          "duration": 0.0625,
          "velocity": 100
        },
        {
          "pitch": 73,
          "onset": 50.125,
          "duration": 1.375,
          "velocity": 100
        },
        {
          "pitch": 61,
          "onset": 50.25,
          "duration": 0.25,
          "velocity": 100
        },
        {
          "pitch": 64,
          "onset": 50.5,
          "duration": 0.25,
          "velocity": 100
        },
        {
          "pitch": 63,
          "onset": 50.75,
          "duration": 0.25,
          "velocity": 100
        },
        {
          "pitch": 63,
          "onset": 51.0,
          "duration": 0.5,
          "velocity": 100
        },
        {
          "pitch": 56,
          "onset": 51.25,
          "duration": 0.25,
          "velocity": 100
        },
        {
          "pitch": 59,
          "onset": 51.5,
          "duration": 0.25,
          "velocity": 100
        },
        {
          "pitch": 65,
          "onset": 51.5,
          "duration": 0.5,
          "velocity": 100
        },
        {
          "pitch": 74,
          "onset": 51.5,
          "duration": 0.25,
          "velocity": 100
        },
        {
          "pitch": 57,
          "onset": 51.75,
          "duration": 0.25,
          "velocity": 100
        },
        {
          "pitch": 73,
          "onset": 51.75,
          "duration": 0.25,
          "velocity": 100
        },
        {
          "pitch": 57,
          "onset": 52.0,
          "duration": 0.25,
          "velocity": 100
        },
        {
          "pitch": 66,
          "onset": 52.0,
          "duration": 1.25,
          "velocity": 100
        },
        {
          "pitch": 73,
          "onset": 52.0,
          "duration": 0.0625,
          "velocity": 100
        },
        {
          "pitch": 71,
          "onset": 52.0625,
          "duration": 0.0625,
          "velocity": 100
        },
        {
          "pitch": 73,
          "onset": 52.125,
          "duration": 0.875,
          "velocity": 100
        },
        {
          "pitch": 61,
          "onset": 52.25,
          "duration": 0.25,
          "velocity": 100
        },
        {
          "pitch": 59,
          "onset": 52.5,
          "duration": 0.25,
          "velocity": 100
        },
        {
          "pitch": 62,
          "onset": 53.0,
          "duration": 1.0,
          "velocity": 100
        },
        {
          "pitch": 71,
          "onset": 53.0,
          "duration": 0.125,
          "velocity": 100
        },
        {
          "pitch": 69,
          "onset": 53.125,
          "duration": 0.125,
          "velocity": 100
        },
        {
          "pitch": 69,
          "onset": 53.25,
          "duration": 0.25,
          "velocity": 100
        },
        {
          "pitch": 71,
          "onset": 53.25,
          "duration": 0.125,
          "velocity": 100
        },
        {
          "pitch": 73,
          "onset": 53.375,
          "duration": 0.125,
          "velocity": 100
        },
        {
          "pitch": 68,
          "onset": 53.5,
          "duration": 0.25,
          "velocity": 100
        },
        {
          "pitch": 74,
          "onset": 53.5,
          "duration": 0.125,
          "velocity": 100
        },
        {
          "pitch": 73,
          "onset": 53.625,
          "duration": 0.125,
          "velocity": 100
        },
        {
          "pitch": 71,
          "onset": 53.75,
          "duration": 0.125,
          "velocity": 100
        },
        {
          "pitch": 76,
          "onset": 53.75,
          "duration": 0.125,
          "velocity": 100
        },
        {
          "pitch": 70,
          "onset": 53.875,
          "duration": 0.125,
          "velocity": 100
        },
        {
          "pitch": 74,
          "onset": 53.875,
          "duration": 0.125,
          "velocity": 100
        },
        {
          "pitch": 71,
          "onset": 54.0,
          "duration": 0.5,
          "velocity": 100
        },
        {
          "pitch": 74,
          "onset": 54.0,
          "duration": 0.5,
          "velocity": 100
        },
        {
          "pitch": 59,
          "onset": 54.25,
          "duration": 0.25,
          "velocity": 100
        },
        {
          "pitch": 61,
          "onset": 54.5,
          "duration": 0.25,
          "velocity": 100
        },
        {
          "pitch": 69,
          "onset": 54.5,
          "duration": 0.75,
          "velocity": 100
        },
        {
          "pitch": 73,
          "onset": 54.5,
          "duration": 0.5,
          "velocity": 100
        },
        {
          "pitch": 62,
          "onset": 54.75,
          "duration": 0.25,
          "velocity": 100
        },
        {
          "pitch": 64,
          "onset": 55.0,
          "duration": 0.75,
          "velocity": 100
        },
        {
          "pitch": 71,
          "onset": 55.0,
          "duration": 0.0625,
          "velocity": 100
        },
        {
          "pitch": 73,
          "onset": 55.0625,
          "duration": 0.0625,
          "velocity": 100
        },
        {
          "pitch": 71,
          "onset": 55.125,
          "duration": 0.0625,
          "velocity": 100
        },
        {
          "pitch": 69,
          "onset": 55.1875,
          "duration": 0.0625,
          "velocity": 100
        },
        {
          "pitch": 66,
          "onset": 55.25,
          "duration": 0.25,
          "velocity": 100
        },
        {
          "pitch": 71,
          "onset": 55.25,
          "duration": 0.75,
          "velocity": 100
        },
        {
          "pitch": 68,
          "onset": 55.5,
          "duration": 0.5,
          "velocity": 100
        },
        {
          "pitch": 59,
          "onset": 55.75,
          "duration": 0.25,
          "velocity": 100
        },
        {
          "pitch": 64,
          "onset": 56.0,
          "duration": 0.5,
          "velocity": 100
        },
        {
          "pitch": 69,
          "onset": 56.0,
          "duration": 1.125,
          "velocity": 100
        },
        {
          "pitch": 69,
          "onset": 56.0,
          "duration": 0.25,
          "velocity": 100
        },
        {
          "pitch": 68,
          "onset": 56.25,
          "duration": 0.25,
          "velocity": 100
        },
        {
          "pitch": 62,
          "onset": 56.5,
          "duration": 0.25,
          "velocity": 100
        },
        {
          "pitch": 66,
          "onset": 56.5,
          "duration": 0.25,
          "velocity": 100
        },
        {
          "pitch": 61,
          "onset": 56.75,
          "duration": 0.25,
          "velocity": 100
        },
        {
          "pitch": 64,
          "onset": 56.75,
          "duration": 0.25,
          "velocity": 100
        },
        {
          "pitch": 59,
          "onset": 57.0,
          "duration": 0.25,
          "velocity": 100
        },
        {
          "pitch": 62,
          "onset": 57.0,
          "duration": 0.25,
          "velocity": 100
        },
        {
          "pitch": 68,
          "onset": 57.125,
          "duration": 0.125,
          "velocity": 100
        },
        {
          "pitch": 57,
          "onset": 57.25,
          "duration": 1.0,
          "velocity": 100
        },
        {
          "pitch": 61,
          "onset": 57.25,
          "duration": 0.25,
          "velocity": 100
        },
        {
          "pitch": 66,
          "onset": 57.25,
          "duration": 0.125,
          "velocity": 100
        },
        {
          "pitch": 68,
          "onset": 57.375,
          "duration": 0.125,
          "velocity": 100
        },
        {
          "pitch": 66,
          "onset": 57.5,
          "duration": 0.25,
          "velocity": 100
        },
        {
          "pitch": 69,
          "onset": 57.5,
          "duration": 0.25,
          "velocity": 100
        },
        {
          "pitch": 64,
          "onset": 57.75,
          "duration": 0.25,
          "velocity": 100
        },
        {
          "pitch": 71,
          "onset": 57.75,
          "duration": 0.125,
          "velocity": 100
        },
        {
          "pitch": 73,
          "onset": 57.875,
          "duration": 0.125,
          "velocity": 100
        },
        {
          "pitch": 66,
          "onset": 58.0,
          "duration": 0.5,
          "velocity": 100
        },
        {
          "pitch": 74,
          "onset": 58.0,
          "duration": 0.1562,
          "velocity": 100
        },
        {
          "pitch": 76,
          "onset": 58.1562,
          "duration": 0.1562,
          "velocity": 100
        },
        {
          "pitch": 56,
          "onset": 58.25,
          "duration": 0.25,
          "velocity": 100
        },
        {
          "pitch": 78,
          "onset": 58.3438,
          "duration": 0.1562,
          "velocity": 100
        },
        {
          "pitch": 57,
          "onset": 58.5,
          "duration": 1.0,
          "velocity": 100
        },
        {
          "pitch": 76,
          "onset": 58.5,
          "duration": 0.1562,
          "velocity": 100
        },
        {
          "pitch": 74,
          "onset": 58.6562,
          "duration": 0.1562,
          "velocity": 100
        },
        {
          "pitch": 64,
          "onset": 58.75,
          "duration": 0.25,
          "velocity": 100
        },
        {
          "pitch": 73,
          "onset": 58.8438,
          "duration": 0.1562,
          "velocity": 100
        },
        {
          "pitch": 66,
          "onset": 59.0,
          "duration": 0.25,
          "velocity": 100
        },
        {
          "pitch": 71,
          "onset": 59.0,
          "duration": 0.0625,
          "velocity": 100
        },
        {
          "pitch": 73,
          "onset": 59.0625,
          "duration": 0.0625,
          "velocity": 100
        },
        {
          "pitch": 71,
          "onset": 59.125,
          "duration": 0.0625,
          "velocity": 100
        },
        {
          "pitch": 73,
          "onset": 59.1875,
          "duration": 0.0625,
          "velocity": 100
        },
        {
          "pitch": 62,
          "onset": 59.25,
          "duration": 0.25,
          "velocity": 100
        },
        {
          "pitch": 71,
          "onset": 59.25,
          "duration": 0.5,
          "velocity": 100
        },
        {
          "pitch": 56,
          "onset": 59.5,
          "duration": 0.5,
          "velocity": 100
        },
        {
          "pitch": 59,
          "onset": 59.5,
          "duration": 0.25,
          "velocity": 100
        },
        {
          "pitch": 64,
          "onset": 59.75,
          "duration": 0.25,
          "velocity": 100
        },
        {
          "pitch": 69,
          "onset": 59.75,
          "duration": 0.125,
          "velocity": 100
        },
        {
          "pitch": 71,
          "onset": 59.875,
          "duration": 0.125,
          "velocity": 100
        },
        {
          "pitch": 57,
          "onset": 60.0,
          "duration": 0.5,
          "velocity": 100
        },
        {
          "pitch": 62,
          "onset": 60.0,
          "duration": 0.25,
          "velocity": 100
        },
        {
          "pitch": 69,
          "onset": 60.0,
          "duration": 6.9688,
          "velocity": 100
        },
        {
          "pitch": 57,
          "onset": 60.25,
          "duration": 0.25,
          "velocity": 100
        },
        {
          "pitch": 59,
          "onset": 60.5,
          "duration": 0.25,
          "velocity": 100
        },
        {
          "pitch": 61,
          "onset": 60.75,
          "duration": 0.25,
          "velocity": 100
        },
        {
          "pitch": 62,
          "onset": 61.0,
          "duration": 0.25,
          "velocity": 100
        },
        {
          "pitch": 64,
          "onset": 61.25,
          "duration": 0.25,
          "velocity": 100
        },
        {
          "pitch": 64,
          "onset": 61.5,
          "duration": 0.0625,
          "velocity": 100
        },
        {
          "pitch": 66,
          "onset": 61.5625,
          "duration": 0.0625,
          "velocity": 100
        },
        {
          "pitch": 64,
          "onset": 61.625,
          "duration": 0.125,
          "velocity": 100
        },
        {
          "pitch": 62,
          "onset": 61.75,
          "duration": 0.125,
          "velocity": 100
        },
        {
          "pitch": 64,
          "onset": 61.875,
          "duration": 0.125,
          "velocity": 100
        },
        {
          "pitch": 66,
          "onset": 62.0,
          "duration": 0.5,
          "velocity": 100
        },
        {
          "pitch": 62,
          "onset": 62.25,
          "duration": 0.25,
          "velocity": 100
        },
        {
          "pitch": 61,
          "onset": 62.5,
          "duration": 0.25,
          "velocity": 100
        },
        {
          "pitch": 67,
          "onset": 62.5,
          "duration": 1.0,
          "velocity": 100
        },
        {
          "pitch": 59,
          "onset": 62.75,
          "duration": 0.25,
          "velocity": 100
        },
        {
          "pitch": 57,
          "onset": 63.0,
          "duration": 0.25,
          "velocity": 100
        },
        {
          "pitch": 59,
          "onset": 63.25,
          "duration": 0.25,
          "velocity": 100
        },
        {
          "pitch": 61,
          "onset": 63.5,
          "duration": 0.125,
          "velocity": 100
        },
        {
          "pitch": 66,
          "onset": 63.5,
          "duration": 0.5,
          "velocity": 100
        },
        {
          "pitch": 59,
          "onset": 63.625,
          "duration": 0.125,
          "velocity": 100
        },
        {
          "pitch": 57,
          "onset": 63.75,
          "duration": 0.125,
          "velocity": 100
        },
        {
          "pitch": 59,
          "onset": 63.875,
          "duration": 0.125,
          "velocity": 100
        },
        {
          "pitch": 61,
          "onset": 64.0,
          "duration": 0.5,
          "velocity": 100
        },
        {
          "pitch": 64,
          "onset": 64.0,
          "duration": 0.25,
          "velocity": 100
        },
        {
          "pitch": 66,
          "onset": 64.25,
          "duration": 0.25,
          "velocity": 100
        },
        {
          "pitch": 57,
          "onset": 64.5,
          "duration": 0.5,
          "velocity": 100
        },
        {
          "pitch": 67,
          "onset": 64.5,
          "duration": 0.25,
          "velocity": 100
        },
        {
          "pitch": 66,
          "onset": 64.75,
          "duration": 0.25,
          "velocity": 100
        },
        {
          "pitch": 59,
          "onset": 65.0,
          "duration": 0.25,
          "velocity": 100
        },
        {
          "pitch": 67,
          "onset": 65.0,
          "duration": 0.5,
          "velocity": 100
        },
        {
          "pitch": 61,
          "onset": 65.25,
          "duration": 0.25,
          "velocity": 100
        },
        {
          "pitch": 62,
          "onset": 65.5,
          "duration": 0.25,
          "velocity": 100
        },
        {
          "pitch": 64,
          "onset": 65.5,
          "duration": 0.5,
          "velocity": 100
        },
        {
          "pitch": 61,
          "onset": 65.75,
          "duration": 0.25,
          "velocity": 100
        },
        {
          "pitch": 62,
          "onset": 66.0,
          "duration": 1.25,
          "velocity": 100
        },
        {
          "pitch": 66,
          "onset": 66.0,
          "duration": 0.25,
          "velocity": 100
        },
        {
          "pitch": 68,
          "onset": 66.25,
          "duration": 0.25,
          "velocity": 100
        },
        {
          "pitch": 69,
          "onset": 66.5,
          "duration": 0.25,
          "velocity": 100
        },
        {
          "pitch": 68,
          "onset": 66.75,
          "duration": 0.25,
          "velocity": 100
        },
        {
          "pitch": 69,
          "onset": 67.0,
          "duration": 1.5,
          "velocity": 100
        },
        {
          "pitch": 61,
          "onset": 67.25,
          "duration": 0.25,
          "velocity": 100
        },
        {
          "pitch": 59,
          "onset": 67.5,
          "duration": 0.25,
          "velocity": 100
        },
        {
          "pitch": 57,
          "onset": 67.75,
          "duration": 0.125,
          "velocity": 100
        },
        {
          "pitch": 59,
          "onset": 67.875,
          "duration": 0.125,
          "velocity": 100
        },
        {
          "pitch": 61,
          "onset": 68.0,
          "duration": 0.5,
          "velocity": 100
        },
        {
          "pitch": 66,
          "onset": 68.5,
          "duration": 0.5,
          "velocity": 100
        },
        {
          "pitch": 64,
          "onset": 69.0,
          "duration": 0.25,
          "velocity": 100
        },
        {
          "pitch": 62,
          "onset": 69.25,
          "duration": 0.25,
          "velocity": 100
        },
        {
          "pitch": 61,
          "onset": 69.5,
          "duration": 0.25,
          "velocity": 100
        },
        {
          "pitch": 59,
          "onset": 69.75,
          "duration": 0.25,
          "velocity": 100
        },
        {
          "pitch": 57,
          "onset": 70.0,
          "duration": 0.25,
          "velocity": 100
        },
        {
          "pitch": 56,
          "onset": 70.25,
          "duration": 0.25,
          "velocity": 100
        },
        {
          "pitch": 64,
          "onset": 70.5,
          "duration": 0.5,
          "velocity": 100
        },
        {
          "pitch": 64,
          "onset": 70.5,
          "duration": 1.0,
          "velocity": 100
        },
        {
          "pitch": 66,
          "onset": 71.0,
          "duration": 0.5,
          "velocity": 100
        },
        {
          "pitch": 62,
          "onset": 71.5,
          "duration": 0.5,
          "velocity": 100
        },
        {
          "pitch": 68,
          "onset": 71.5,
          "duration": 0.5,
          "velocity": 100
        },
        {
          "pitch": 61,
          "onset": 72.0,
          "duration": 1.0,
          "velocity": 100
        },
        {
          "pitch": 69,
          "onset": 72.0,
          "duration": 0.25,
          "velocity": 100
        },
        {
          "pitch": 64,
          "onset": 72.25,
          "duration": 0.25,
          "velocity": 100
        },
        {
          "pitch": 69,
          "onset": 72.5,
          "duration": 1.0,
          "velocity": 100
        },
        {
          "pitch": 59,
          "onset": 73.0,
          "duration": 1.0,
          "velocity": 100
        },
        {
          "pitch": 69,
          "onset": 73.5,
          "duration": 0.125,
          "velocity": 100
        },
        {
          "pitch": 68,
          "onset": 73.625,
          "duration": 0.125,
          "velocity": 100
        },
        {
          "pitch": 66,
          "onset": 73.75,
          "duration": 0.125,
          "velocity": 100
        },
        {
          "pitch": 68,
          "onset": 73.875,
          "duration": 0.125,
          "velocity": 100
        },
        {
          "pitch": 61,
          "onset": 74.0,
          "duration": 0.75,
          "velocity": 100
        },
        {
          "pitch": 69,
          "onset": 74.0,
          "duration": 0.5,
          "velocity": 100
        },
        {
          "pitch": 64,
          "onset": 74.5,
          "duration": 0.25,
          "velocity": 100
        },
        {
          "pitch": 59,
          "onset": 74.75,
          "duration": 0.25,
          "velocity": 100
        },
        {
          "pitch": 62,
          "onset": 74.75,
          "duration": 0.25,
          "velocity": 100
        },
        {
          "pitch": 61,
          "onset": 75.0,
          "duration": 0.25,
          "velocity": 100
        },
        {
          "pitch": 64,
          "onset": 75.0,
          "duration": 0.25,
          "velocity": 100
        },
        {
          "pitch": 63,
          "onset": 75.25,
          "duration": 0.25,
          "velocity": 100
        },
        {
          "pitch": 66,
          "onset": 75.25,
          "duration": 0.25,
          "velocity": 100
        },
        {
          "pitch": 63,
          "onset": 75.5,
          "duration": 0.25,
          "velocity": 100
        },
        {
          "pitch": 66,
          "onset": 75.5,
          "duration": 0.0625,
          "velocity": 100
        },
        {
          "pitch": 68,
          "onset": 75.5625,
          "duration": 0.0625,
          "velocity": 100
        },
        {
          "pitch": 66,
          "onset": 75.625,
          "duration": 0.125,
          "velocity": 100
        },
        {
          "pitch": 61,
          "onset": 75.75,
          "duration": 0.125,
          "velocity": 100
        },
        {
          "pitch": 64,
          "onset": 75.75,
          "duration": 0.125,
          "velocity": 100
        },
        {
          "pitch": 63,
          "onset": 75.875,
          "duration": 0.125,
          "velocity": 100
        },
        {
          "pitch": 66,
          "onset": 75.875,
          "duration": 0.125,
          "velocity": 100
        },
        {
          "pitch": 64,
          "onset": 76.0,
          "duration": 1.0,
          "velocity": 100
        },
        {
          "pitch": 68,
          "onset": 76.0,
          "duration": 0.25,
          "velocity": 100
        },
        {
          "pitch": 69,
          "onset": 76.25,
          "duration": 0.0625,
          "velocity": 100
        },
        {
          "pitch": 68,
          "onset": 76.3125,
          "duration": 0.0625,
          "velocity": 100
        },
        {
          "pitch": 69,
          "onset": 76.375,
          "duration": 0.0625,
          "velocity": 100
        },
        {
          "pitch": 71,
          "onset": 76.4375,
          "duration": 0.0625,
          "velocity": 100
        },
        {
          "pitch": 73,
          "onset": 76.5,
          "duration": 0.5,
          "velocity": 100
        },
        {
          "pitch": 61,
          "onset": 77.0,
          "duration": 1.5,
          "velocity": 100
        },
        {
          "pitch": 71,
          "onset": 77.0,
          "duration": 0.25,
          "velocity": 100
        },
        {
          "pitch": 69,
          "onset": 77.25,
          "duration": 0.25,
          "velocity": 100
        },
        {
          "pitch": 68,
          "onset": 77.5,
          "duration": 0.25,
          "velocity": 100
        },
        {
          "pitch": 66,
          "onset": 77.75,
          "duration": 0.25,
          "velocity": 100
        },
        {
          "pitch": 64,
          "onset": 78.0,
          "duration": 0.25,
          "velocity": 100
        },
        {
          "pitch": 63,
          "onset": 78.25,
          "duration": 0.25,
          "velocity": 100
        },
        {
          "pitch": 59,
          "onset": 78.5,
          "duration": 0.5,
          "velocity": 100
        },
        {
          "pitch": 71,
          "onset": 78.5,
          "duration": 1.0,
          "velocity": 100
        },
        {
          "pitch": 61,
          "onset": 79.0,
          "duration": 0.5,
          "velocity": 100
        },
        {
          "pitch": 64,
          "onset": 79.5,
          "duration": 0.25,
          "velocity": 100
        },
        {
          "pitch": 69,
          "onset": 79.5,
          "duration": 0.5,
          "velocity": 100
        },
        {
          "pitch": 63,
          "onset": 79.75,
          "duration": 0.25,
          "velocity": 100
        },
        {
          "pitch": 64,
          "onset": 80.0,
          "duration": 0.25,
          "velocity": 100
        },
        {
          "pitch": 68,
          "onset": 80.0,
          "duration": 1.0,
          "velocity": 100
        },
        {
          "pitch": 59,
          "onset": 80.25,
          "duration": 0.25,
          "velocity": 100
        },
        {
          "pitch": 64,
          "onset": 80.5,
          "duration": 1.0,
          "velocity": 100
        },
        {
          "pitch": 66,
          "onset": 81.0,
          "duration": 1.0,
          "velocity": 100
        },
        {
          "pitch": 63,
          "onset": 81.5,
          "duration": 0.0625,
          "velocity": 100
        },
        {
          "pitch": 64,
          "onset": 81.5625,
          "duration": 0.0625,
          "velocity": 100
        },
        {
          "pitch": 63,
          "onset": 81.625,
          "duration": 0.375,
          "velocity": 100
        },
        {
          "pitch": 64,
          "onset": 82.0,
          "duration": 0.5,
          "velocity": 100
        },
        {
          "pitch": 68,
          "onset": 82.0,
          "duration": 0.75,
          "velocity": 100
        },
        {
          "pitch": 59,
          "onset": 82.5,
          "duration": 0.25,
          "velocity": 100
        },
        {
          "pitch": 57,
          "onset": 82.75,
          "duration": 0.25,
          "velocity": 100
        },
        {
          "pitch": 66,
          "onset": 82.75,
          "duration": 0.25,
          "velocity": 100
        },
        {
          "pitch": 59,
          "onset": 83.0,
          "duration": 0.25,
          "velocity": 100
        },
        {
          "pitch": 68,
          "onset": 83.0,
          "duration": 0.25,
          "velocity": 100
        },
        {
          "pitch": 61,
          "onset": 83.25,
          "duration": 0.25,
          "velocity": 100
        },
        {
          "pitch": 70,
          "onset": 83.25,
          "duration": 0.25,
          "velocity": 100
        },
        {
          "pitch": 61,
          "onset": 83.5,
          "duration": 0.0625,
          "velocity": 100
        },
        {
          "pitch": 70,
          "onset": 83.5,
          "duration": 0.0625,
          "velocity": 100
        },
        {
          "pitch": 63,
          "onset": 83.5625,
          "duration": 0.0625,
          "velocity": 100
        },
        {
          "pitch": 71,
          "onset": 83.5625,
          "duration": 0.0625,
          "velocity": 100
        },
        {
          "pitch": 61,
          "onset": 83.625,
          "duration": 0.125,
          "velocity": 100
        },
        {
          "pitch": 70,
          "onset": 83.625,
          "duration": 0.125,
          "velocity": 100
        },
        {
          "pitch": 59,
          "onset": 83.75,
          "duration": 0.125,
          "velocity": 100
        },
        {
          "pitch": 68,
          "onset": 83.75,
          "duration": 0.125,
          "velocity": 100
        },
        {
          "pitch": 61,
          "onset": 83.875,
          "duration": 0.125,
          "velocity": 100
        },
        {
          "pitch": 70,
          "onset": 83.875,
          "duration": 0.125,
          "velocity": 100
        },
        {
          "pitch": 62,
          "onset": 84.0,
          "duration": 0.25,
          "velocity": 100
        },
        {
          "pitch": 71,
          "onset": 84.0,
          "duration": 0.25,
          "velocity": 100
        },
        {
          "pitch": 61,
          "onset": 84.25,
          "duration": 0.25,
          "velocity": 100
        },
        {
          "pitch": 70,
          "onset": 84.25,
          "duration": 0.25,
          "velocity": 100
        },
        {
          "pitch": 62,
          "onset": 84.5,
          "duration": 0.25,
          "velocity": 100
        },
        {
          "pitch": 71,
          "onset": 84.5,
          "duration": 0.25,
          "velocity": 100
        },
        {
          "pitch": 64,
          "onset": 84.75,
          "duration": 0.25,
          "velocity": 100
        },
        {
          "pitch": 73,
          "onset": 84.75,
          "duration": 0.25,
          "velocity": 100
        },
        {
          "pitch": 66,
          "onset": 85.0,
          "duration": 0.25,
          "velocity": 100
        },
        {
          "pitch": 74,
          "onset": 85.0,
          "duration": 1.25,
          "velocity": 100
        },
        {
          "pitch": 68,
          "onset": 85.25,
          "duration": 0.25,
          "velocity": 100
        },
        {
          "pitch": 68,
          "onset": 85.5,
          "duration": 0.0625,
          "velocity": 100
        },
        {
          "pitch": 69,
          "onset": 85.5625,
          "duration": 0.0625,
          "velocity": 100
        },
        {
          "pitch": 68,
          "onset": 85.625,
          "duration": 0.125,
          "velocity": 100
        },
        {
          "pitch": 66,
          "onset": 85.75,
          "duration": 0.125,
          "velocity": 100
        },
        {
          "pitch": 68,
          "onset": 85.875,
          "duration": 0.125,
          "velocity": 100
        },
        {
          "pitch": 69,
          "onset": 86.0,
          "duration": 0.5,
          "velocity": 100
        },
        {
          "pitch": 78,
          "onset": 86.25,
          "duration": 0.25,
          "velocity": 100
        },
        {
          "pitch": 71,
          "onset": 86.5,
          "duration": 1.0,
          "velocity": 100
        },
        {
          "pitch": 76,
          "onset": 86.5,
          "duration": 0.25,
          "velocity": 100
        },
        {
          "pitch": 74,
          "onset": 86.75,
          "duration": 0.25,
          "velocity": 100
        },
        {
          "pitch": 73,
          "onset": 87.0,
          "duration": 0.25,
          "velocity": 100
        },
        {
          "pitch": 74,
          "onset": 87.25,
          "duration": 0.25,
          "velocity": 100
        },
        {
          "pitch": 69,
          "onset": 87.5,
          "duration": 0.5,
          "velocity": 100
        },
        {
          "pitch": 74,
          "onset": 87.5,
          "duration": 0.0625,
          "velocity": 100
        },
        {
          "pitch": 76,
          "onset": 87.5625,
          "duration": 0.0625,
          "velocity": 100
        },
        {
          "pitch": 74,
          "onset": 87.625,
          "duration": 0.125,
          "velocity": 100
        },
        {
          "pitch": 73,
          "onset": 87.75,
          "duration": 0.125,
          "velocity": 100
        },
        {
          "pitch": 74,
          "onset": 87.875,
          "duration": 0.125,
          "velocity": 100
        },
        {
          "pitch": 68,
          "onset": 88.0,
          "duration": 1.0,
          "velocity": 100
        },
        {
          "pitch": 76,
          "onset": 88.0,
          "duration": 0.25,
          "velocity": 100
        },
        {
          "pitch": 73,
          "onset": 88.25,
          "duration": 0.25,
          "velocity": 100
        },
        {
          "pitch": 71,
          "onset": 88.5,
          "duration": 0.25,
          "velocity": 100
        },
        {
          "pitch": 69,
          "onset": 88.75,
          "duration": 0.25,
          "velocity": 100
        },
        {
          "pitch": 66,
          "onset": 89.0,
          "duration": 1.5,
          "velocity": 100
        },
        {
          "pitch": 71,
          "onset": 89.0,
          "duration": 0.25,
          "velocity": 100
        },
        {
          "pitch": 73,
          "onset": 89.25,
          "duration": 0.25,
          "velocity": 100
        },
        {
          "pitch": 73,
          "onset": 89.5,
          "duration": 0.0625,
          "velocity": 100
        },
        {
          "pitch": 74,
          "onset": 89.5625,
          "duration": 0.0625,
          "velocity": 100
        },
        {
          "pitch": 73,
          "onset": 89.625,
          "duration": 0.125,
          "velocity": 100
        },
        {
          "pitch": 71,
          "onset": 89.75,
          "duration": 0.125,
          "velocity": 100
        },
        {
          "pitch": 73,
          "onset": 89.875,
          "duration": 0.125,
          "velocity": 100
        },
        {
          "pitch": 74,
          "onset": 90.0,
          "duration": 0.25,
          "velocity": 100
        },
        {
          "pitch": 71,
          "onset": 90.25,
          "duration": 0.25,
          "velocity": 100
        },
        {
          "pitch": 64,
          "onset": 90.5,
          "duration": 0.5,
          "velocity": 100
        },
        {
          "pitch": 69,
          "onset": 90.5,
          "duration": 0.25,
          "velocity": 100
        },
        {
          "pitch": 68,
          "onset": 90.75,
          "duration": 0.25,
          "velocity": 100
        },
        {
          "pitch": 66,
          "onset": 91.0,
          "duration": 0.5,
          "velocity": 100
        },
        {
          "pitch": 69,
          "onset": 91.0,
          "duration": 0.25,
          "velocity": 100
        },
        {
          "pitch": 71,
          "onset": 91.25,
          "duration": 0.25,
          "velocity": 100
        },
        {
          "pitch": 68,
          "onset": 91.5,
          "duration": 0.5,
          "velocity": 100
        },
        {
          "pitch": 71,
          "onset": 91.5,
          "duration": 0.0625,
          "velocity": 100
        },
        {
          "pitch": 73,
          "onset": 91.5625,
          "duration": 0.0625,
          "velocity": 100
        },
        {
          "pitch": 71,
          "onset": 91.625,
          "duration": 0.125,
          "velocity": 100
        },
        {
          "pitch": 69,
          "onset": 91.75,
          "duration": 0.125,
          "velocity": 100
        },
        {
          "pitch": 71,
          "onset": 91.875,
          "duration": 0.125,
          "velocity": 100
        },
        {
          "pitch": 69,
          "onset": 92.0,
          "duration": 0.25,
          "velocity": 100
        },
        {
          "pitch": 73,
          "onset": 92.0,
          "duration": 0.25,
          "velocity": 100
        },
        {
          "pitch": 64,
          "onset": 92.25,
          "duration": 0.25,
          "velocity": 100
        },
        {
          "pitch": 74,
          "onset": 92.25,
          "duration": 0.125,
          "velocity": 100
        },
        {
          "pitch": 76,
          "onset": 92.25,
          "duration": 0.125,
          "velocity": 100
        },
        {
          "pitch": 74,
          "onset": 92.375,
          "duration": 0.125,
          "velocity": 100
        },
        {
          "pitch": 76,
          "onset": 92.375,
          "duration": 0.125,
          "velocity": 100
        },
        {
          "pitch": 69,
          "onset": 92.5,
          "duration": 1.0,
          "velocity": 100
        },
        {
          "pitch": 78,
          "onset": 92.5,
          "duration": 0.5,
          "velocity": 100
        },
        {
          "pitch": 76,
          "onset": 93.0,
          "duration": 0.25,
          "velocity": 100
        },
        {
          "pitch": 74,
          "onset": 93.25,
          "duration": 0.25,
          "velocity": 100
        },
        {
          "pitch": 68,
          "onset": 93.5,
          "duration": 0.25,
          "velocity": 100
        },
        {
          "pitch": 73,
          "onset": 93.5,
          "duration": 0.25,
          "velocity": 100
        },
        {
          "pitch": 66,
          "onset": 93.75,
          "duration": 0.25,
          "velocity": 100
        },
        {
          "pitch": 71,
          "onset": 93.75,
          "duration": 0.25,
          "velocity": 100
        },
        {
          "pitch": 64,
          "onset": 94.0,
          "duration": 0.25,
          "velocity": 100
        },
        {
          "pitch": 69,
          "onset": 94.0,
          "duration": 0.25,
          "velocity": 100
        },
        {
          "pitch": 62,
          "onset": 94.25,
          "duration": 0.25,
          "velocity": 100
        },
        {
          "pitch": 68,
          "onset": 94.25,
          "duration": 0.25,
          "velocity": 100
        },
        {
          "pitch": 64,
          "onset": 94.5,
          "duration": 0.25,
          "velocity": 100
        },
        {
          "pitch": 76,
          "onset": 94.5,
          "duration": 1.0,
          "velocity": 100
        },
        {
          "pitch": 68,
          "onset": 94.75,
          "duration": 0.25,
          "velocity": 100
        },
        {
          "pitch": 66,
          "onset": 95.0,
          "duration": 0.25,
          "velocity": 100
        },
        {
          "pitch": 69,
          "onset": 95.25,
          "duration": 0.25,
          "velocity": 100
        },
        {
          "pitch": 68,
          "onset": 95.5,
          "duration": 0.25,
          "velocity": 100
        },
        {
          "pitch": 74,
          "onset": 95.5,
          "duration": 0.5,
          "velocity": 100
        },
        {
          "pitch": 71,
          "onset": 95.75,
          "duration": 0.25,
          "velocity": 100
        },
        {
          "pitch": 69,
          "onset": 96.0,
          "duration": 0.25,
          "velocity": 100
        },
        {
          "pitch": 73,
          "onset": 96.0,
          "duration": 0.75,
          "velocity": 100
        },
        {
          "pitch": 64,
          "onset": 96.25,
          "duration": 0.25,
          "velocity": 100
        },
        {
          "pitch": 57,
          "onset": 96.5,
          "duration": 1.0,
          "velocity": 100
        },
        {
          "pitch": 74,
          "onset": 96.75,
          "duration": 0.25,
          "velocity": 100
        },
        {
          "pitch": 74,
          "onset": 97.0,
          "duration": 0.0625,
          "velocity": 100
        },
        {
          "pitch": 73,
          "onset": 97.0625,
          "duration": 0.0625,
          "velocity": 100
        },
        {
          "pitch": 71,
          "onset": 97.125,
          "duration": 0.0625,
          "velocity": 100
        },
        {
          "pitch": 73,
          "onset": 97.1875,
          "duration": 0.0625,
          "velocity": 100
        },
        {
          "pitch": 71,
          "onset": 97.25,
          "duration": 0.0625,
          "velocity": 100
        },
        {
          "pitch": 73,
          "onset": 97.3125,
          "duration": 0.0625,
          "velocity": 100
        },
        {
          "pitch": 71,
          "onset": 97.375,
          "duration": 0.375,
          "velocity": 100
        },
        {
          "pitch": 56,
          "onset": 97.5,
          "duration": 0.5,
          "velocity": 100
        },
        {
          "pitch": 69,
          "onset": 97.75,
          "duration": 0.125,
          "velocity": 100
        },
        {
          "pitch": 71,
          "onset": 97.875,
          "duration": 0.125,
          "velocity": 100
        },
        {
          "pitch": 57,
          "onset": 98.0,
          "duration": 0.25,
          "velocity": 100
        },
        {
          "pitch": 73,
          "onset": 98.0,
          "duration": 0.75,
          "velocity": 100
        },
        {
          "pitch": 64,
          "onset": 98.25,
          "duration": 0.25,
          "velocity": 100
        },
        {
          "pitch": 67,
          "onset": 98.5,
          "duration": 0.75,
          "velocity": 100
        },
        {
          "pitch": 76,
          "onset": 98.75,
          "duration": 0.25,
          "velocity": 100
        },
        {
          "pitch": 69,
          "onset": 99.0,
          "duration": 0.5,
          "velocity": 100
        },
        {
          "pitch": 64,
          "onset": 99.25,
          "duration": 0.25,
          "velocity": 100
        },
        {
          "pitch": 66,
          "onset": 99.5,
          "duration": 0.25,
          "velocity": 100
        },
        {
          "pitch": 74,
          "onset": 99.5,
          "duration": 0.75,
          "velocity": 100
        },
        {
          "pitch": 62,
          "onset": 99.75,
          "duration": 0.25,
          "velocity": 100
        },
        {
          "pitch": 64,
          "onset": 100.0,
          "duration": 1.25,
          "velocity": 100
        },
        {
          "pitch": 71,
          "onset": 100.25,
          "duration": 0.25,
          "velocity": 100
        },
        {
          "pitch": 73,
          "onset": 100.5,
          "duration": 0.25,
          "velocity": 100
        },
        {
          "pitch": 69,
          "onset": 100.75,
          "duration": 0.25,
          "velocity": 100
        },
        {
          "pitch": 66,
          "onset": 101.0,
          "duration": 0.5,
          "velocity": 100
        },
        {
          "pitch": 62,
          "onset": 101.25,
          "duration": 0.25,
          "velocity": 100
        },
        {
          "pitch": 61,
          "onset": 101.5,
          "duration": 0.25,
          "velocity": 100
        },
        {
          "pitch": 69,
          "onset": 101.5,
          "duration": 0.125,
          "velocity": 100
        },
        {
          "pitch": 68,
          "onset": 101.625,
          "duration": 0.125,
          "velocity": 100
        },
        {
          "pitch": 59,
          "onset": 101.75,
          "duration": 0.25,
          "velocity": 100
        },
        {
          "pitch": 66,
          "onset": 101.75,
          "duration": 0.125,
          "velocity": 100
        },
        {
          "pitch": 68,
          "onset": 101.875,
          "duration": 0.125,
          "velocity": 100
        },
        {
          "pitch": 61,
          "onset": 102.0,
          "duration": 0.75,
          "velocity": 100
        },
        {
          "pitch": 69,
          "onset": 102.0,
          "duration": 1.125,
          "velocity": 100
        },
        {
          "pitch": 69,
          "onset": 102.0,
          "duration": 0.25,
          "velocity": 100
        },
        {
          "pitch": 64,
          "onset": 102.25,
          "duration": 0.25,
          "velocity": 100
        },
        {
          "pitch": 66,
          "onset": 102.5,
          "duration": 0.5,
          "velocity": 100
        },
        {
          "pitch": 62,
          "onset": 102.75,
          "duration": 0.5,
          "velocity": 100
        },
        {
          "pitch": 64,
          "onset": 103.0,
          "duration": 0.5,
          "velocity": 100
        },
        {
          "pitch": 64,
          "onset": 103.125,
          "duration": 0.125,
          "velocity": 100
        },
        {
          "pitch": 61,
          "onset": 103.25,
          "duration": 0.25,
          "velocity": 100
        },
        {
          "pitch": 66,
          "onset": 103.25,
          "duration": 0.125,
          "velocity": 100
        },
        {
          "pitch": 68,
          "onset": 103.375,
          "duration": 0.125,
          "velocity": 100
        },
        {
          "pitch": 59,
          "onset": 103.5,
          "duration": 0.5,
          "velocity": 100
        },
        {
          "pitch": 66,
          "onset": 103.5,
          "duration": 0.25,
          "velocity": 100
        },
        {
          "pitch": 69,
          "onset": 103.5,
          "duration": 0.125,
          "velocity": 100
        },
        {
          "pitch": 73,
          "onset": 103.625,
          "duration": 0.125,
          "velocity": 100
        },
        {
          "pitch": 68,
          "onset": 103.75,
          "duration": 0.25,
          "velocity": 100
        },
        {
          "pitch": 71,
          "onset": 103.75,
          "duration": 0.125,
          "velocity": 100
        },
        {
          "pitch": 74,
          "onset": 103.875,
          "duration": 0.0625,
          "velocity": 100
        },
        {
          "pitch": 73,
          "onset": 103.9375,
          "duration": 0.0625,
          "velocity": 100
        },
        {
          "pitch": 57,
          "onset": 104.0,
          "duration": 1.25,
          "velocity": 100
        },
        {
          "pitch": 73,
          "onset": 104.0,
          "duration": 0.625,
          "velocity": 100
        },
        {
          "pitch": 74,
          "onset": 104.625,
          "duration": 0.125,
          "velocity": 100
        },
        {
          "pitch": 73,
          "onset": 104.75,
          "duration": 0.125,
          "velocity": 100
        },
        {
          "pitch": 74,
          "onset": 104.875,
          "duration": 0.125,
          "velocity": 100
        },
        {
          "pitch": 66,
          "onset": 105.0,
          "duration": 1.0,
          "velocity": 100
        },
        {
          "pitch": 74,
          "onset": 105.0,
          "duration": 0.0625,
          "velocity": 100
        },
        {
          "pitch": 76,
          "onset": 105.0625,
          "duration": 0.0625,
          "velocity": 100
        },
        {
          "pitch": 74,
          "onset": 105.125,
          "duration": 0.625,
          "velocity": 100
        },
        {
          "pitch": 54,
          "onset": 105.25,
          "duration": 0.25,
          "velocity": 100
        },
        {
          "pitch": 56,
          "onset": 105.5,
          "duration": 0.25,
          "velocity": 100
        },
        {
          "pitch": 57,
          "onset": 105.75,
          "duration": 0.25,
          "velocity": 100
        },
        {
          "pitch": 73,
          "onset": 105.75,
          "duration": 0.125,
          "velocity": 100
        },
        {
          "pitch": 74,
          "onset": 105.875,
          "duration": 0.125,
          "velocity": 100
        },
        {
          "pitch": 59,
          "onset": 106.0,
          "duration": 0.25,
          "velocity": 100
        },
        {
          "pitch": 76,
          "onset": 106.0,
          "duration": 1.5,
          "velocity": 100
        },
        {
          "pitch": 57,
          "onset": 106.25,
          "duration": 0.25,
          "velocity": 100
        },
        {
          "pitch": 56,
          "onset": 106.5,
          "duration": 0.5,
          "velocity": 100
        },
        {
          "pitch": 64,
          "onset": 106.75,
          "duration": 0.25,
          "velocity": 100
        },
        {
          "pitch": 57,
          "onset": 107.0,
          "duration": 0.5,
          "velocity": 100
        },
        {
          "pitch": 66,
          "onset": 107.0,
          "duration": 0.25,
          "velocity": 100
        },
        {
          "pitch": 68,
          "onset": 107.25,
          "duration": 0.25,
          "velocity": 100
        },
        {
          "pitch": 59,
          "onset": 107.5,
          "duration": 0.5,
          "velocity": 100
        },
        {
          "pitch": 68,
          "onset": 107.5,
          "duration": 0.0625,
          "velocity": 100
        },
        {
          "pitch": 74,
          "onset": 107.5,
          "duration": 0.125,
          "velocity": 100
        },
        {
          "pitch": 69,
          "onset": 107.5625,
          "duration": 0.0625,
          "velocity": 100
        },
        {
          "pitch": 68,
          "onset": 107.625,
          "duration": 0.125,
          "velocity": 100
        },
        {
          "pitch": 73,
          "onset": 107.625,
          "duration": 0.125,
          "velocity": 100
        },
        {
          "pitch": 66,
          "onset": 107.75,
          "duration": 0.125,
          "velocity": 100
        },
        {
          "pitch": 71,
          "onset": 107.75,
          "duration": 0.125,
          "velocity": 100
        },
        {
          "pitch": 68,
          "onset": 107.875,
          "duration": 0.125,
          "velocity": 100
        },
        {
          "pitch": 74,
          "onset": 107.875,
          "duration": 0.0625,
          "velocity": 100
        },
        {
          "pitch": 73,
          "onset": 107.9375,
          "duration": 0.0625,
          "velocity": 100
        },
        {
          "pitch": 61,
          "onset": 108.0,
          "duration": 1.0,
          "velocity": 100
        },
        {
          "pitch": 69,
          "onset": 108.0,
          "duration": 0.25,
          "velocity": 100
        },
        {
          "pitch": 73,
          "onset": 108.0,
          "duration": 0.0625,
          "velocity": 100
        },
        {
          "pitch": 71,
          "onset": 108.0625,
          "duration": 0.0625,
          "velocity": 100
        },
        {
          "pitch": 73,
          "onset": 108.125,
          "duration": 0.625,
          "velocity": 100
        },
        {
          "pitch": 68,
          "onset": 108.25,
          "duration": 0.25,
          "velocity": 100
        },
        {
          "pitch": 68,
          "onset": 108.5,
          "duration": 0.25,
          "velocity": 100
        },
        {
          "pitch": 66,
          "onset": 108.75,
          "duration": 0.25,
          "velocity": 100
        },
        {
          "pitch": 74,
          "onset": 108.75,
          "duration": 0.25,
          "velocity": 100
        },
        {
          "pitch": 62,
          "onset": 109.0,
          "duration": 1.0,
          "velocity": 100
        },
        {
          "pitch": 65,
          "onset": 109.0,
          "duration": 0.25,
          "velocity": 100
        },
        {
          "pitch": 74,
          "onset": 109.0,
          "duration": 0.0625,
          "velocity": 100
        },
        {
          "pitch": 73,
          "onset": 109.0625,
          "duration": 0.0625,
          "velocity": 100
        },
        {
          "pitch": 71,
          "onset": 109.125,
          "duration": 0.0625,
          "velocity": 100
        },
        {
          "pitch": 73,
          "onset": 109.1875,
          "duration": 0.0625,
          "velocity": 100
        },
        {
          "pitch": 66,
          "onset": 109.25,
          "duration": 0.25,
          "velocity": 100
        },
        {
          "pitch": 71,
          "onset": 109.25,
          "duration": 0.0625,
          "velocity": 100
        },
        {
          "pitch": 73,
          "onset": 109.3125,
          "duration": 0.0625,
          "velocity": 100
        },
        {
          "pitch": 71,
          "onset": 109.375,
          "duration": 0.375,
          "velocity": 100
        },
        {
          "pitch": 66,
          "onset": 109.5,
          "duration": 0.25,
          "velocity": 100
        },
        {
          "pitch": 68,
          "onset": 109.75,
          "duration": 0.25,
          "velocity": 100
        },
        {
          "pitch": 69,
          "onset": 109.75,
          "duration": 0.125,
          "velocity": 100
        },
        {
          "pitch": 71,
          "onset": 109.875,
          "duration": 0.125,
          "velocity": 100
        },
        {
          "pitch": 68,
          "onset": 110.0,
          "duration": 1.25,
          "velocity": 100
        },
        {
          "pitch": 73,
          "onset": 110.0,
          "duration": 1.9688,
          "velocity": 100
        },
        {
          "pitch": 62,
          "onset": 110.25,
          "duration": 0.25,
          "velocity": 100
        },
        {
          "pitch": 61,
          "onset": 110.5,
          "duration": 0.25,
          "velocity": 100
        },
        {
          "pitch": 59,
          "onset": 110.75,
          "duration": 0.25,
          "velocity": 100
        },
        {
          "pitch": 57,
          "onset": 111.0,
          "duration": 0.5,
          "velocity": 100
        },
        {
          "pitch": 66,
          "onset": 111.25,
          "duration": 0.25,
          "velocity": 100
        },
        {
          "pitch": 59,
          "onset": 111.5,
          "duration": 0.5,
          "velocity": 100
        },
        {
          "pitch": 66,
          "onset": 111.5,
          "duration": 0.25,
          "velocity": 100
        },
        {
          "pitch": 65,
          "onset": 111.75,
          "duration": 0.25,
          "velocity": 100
        },
        {
          "pitch": 61,
          "onset": 112.0,
          "duration": 0.5,
          "velocity": 100
        },
        {
          "pitch": 66,
          "onset": 112.0,
          "duration": 0.25,
          "velocity": 100
        },
        {
          "pitch": 62,
          "onset": 112.5,
          "duration": 0.75,
          "velocity": 100
        },
        {
          "pitch": 68,
          "onset": 112.5,
          "duration": 0.25,
          "velocity": 100
        },
        {
          "pitch": 61,
          "onset": 113.25,
          "duration": 0.25,
          "velocity": 100
        },
        {
          "pitch": 56,
          "onset": 113.5,
          "duration": 0.25,
          "velocity": 100
        },
        {
          "pitch": 59,
          "onset": 113.75,
          "duration": 0.25,
          "velocity": 100
        },
        {
          "pitch": 66,
          "onset": 113.75,
          "duration": 0.25,
          "velocity": 100
        },
        {
          "pitch": 57,
          "onset": 114.0,
          "duration": 1.25,
          "velocity": 100
        },
        {
          "pitch": 66,
          "onset": 114.0,
          "duration": 0.25,
          "velocity": 100
        },
        {
          "pitch": 73,
          "onset": 114.0,
          "duration": 0.0625,
          "velocity": 100
        },
        {
          "pitch": 71,
          "onset": 114.0625,
          "duration": 0.0625,
          "velocity": 100
        },
        {
          "pitch": 73,
          "onset": 114.125,
          "duration": 1.375,
          "velocity": 100
        },
        {
          "pitch": 61,
          "onset": 114.25,
          "duration": 0.25,
          "velocity": 100
        },
        {
          "pitch": 64,
          "onset": 114.5,
          "duration": 0.25,
          "velocity": 100
        },
        {
          "pitch": 63,
          "onset": 114.75,
          "duration": 0.25,
          "velocity": 100
        },
        {
          "pitch": 63,
          "onset": 115.0,
          "duration": 0.5,
          "velocity": 100
        },
        {
          "pitch": 56,
          "onset": 115.25,
          "duration": 0.25,
          "velocity": 100
        },
        {
          "pitch": 59,
          "onset": 115.5,
          "duration": 0.25,
          "velocity": 100
        },
        {
          "pitch": 65,
          "onset": 115.5,
          "duration": 0.5,
          "velocity": 100
        },
        {
          "pitch": 74,
          "onset": 115.5,
          "duration": 0.25,
          "velocity": 100
        },
        {
          "pitch": 57,
          "onset": 115.75,
          "duration": 0.25,
          "velocity": 100
        },
        {
          "pitch": 73,
          "onset": 115.75,
          "duration": 0.25,
          "velocity": 100
        },
        {
          "pitch": 57,
          "onset": 116.0,
          "duration": 0.25,
          "velocity": 100
        },
        {
          "pitch": 66,
          "onset": 116.0,
          "duration": 1.25,
          "velocity": 100
        },
        {
          "pitch": 73,
          "onset": 116.0,
          "duration": 0.0625,
          "velocity": 100
        },
        {
          "pitch": 71,
          "onset": 116.0625,
          "duration": 0.0625,
          "velocity": 100
        },
        {
          "pitch": 73,
          "onset": 116.125,
          "duration": 0.875,
          "velocity": 100
        },
        {
          "pitch": 61,
          "onset": 116.25,
          "duration": 0.25,
          "velocity": 100
        },
        {
          "pitch": 59,
          "onset": 116.5,
          "duration": 0.25,
          "velocity": 100
        },
        {
          "pitch": 62,
          "onset": 117.0,
          "duration": 1.0,
          "velocity": 100
        },
        {
          "pitch": 71,
          "onset": 117.0,
          "duration": 0.125,
          "velocity": 100
        },
        {
          "pitch": 69,
          "onset": 117.125,
          "duration": 0.125,
          "velocity": 100
        },
        {
          "pitch": 69,
          "onset": 117.25,
          "duration": 0.25,
          "velocity": 100
        },
        {
          "pitch": 71,
          "onset": 117.25,
          "duration": 0.125,
          "velocity": 100
        },
        {
          "pitch": 73,
          "onset": 117.375,
          "duration": 0.125,
          "velocity": 100
        },
        {
          "pitch": 68,
          "onset": 117.5,
          "duration": 0.25,
          "velocity": 100
        },
        {
          "pitch": 74,
          "onset": 117.5,
          "duration": 0.125,
          "velocity": 100
        },
        {
          "pitch": 73,
          "onset": 117.625,
          "duration": 0.125,
          "velocity": 100
        },
        {
          "pitch": 71,
          "onset": 117.75,
          "duration": 0.125,
          "velocity": 100
        },
        {
          "pitch": 76,
          "onset": 117.75,
          "duration": 0.125,
          "velocity": 100
        },
        {
          "pitch": 70,
          "onset": 117.875,
          "duration": 0.125,
          "velocity": 100
        },
        {
          "pitch": 74,
          "onset": 117.875,
          "duration": 0.125,
          "velocity": 100
        },
        {
          "pitch": 71,
          "onset": 118.0,
          "duration": 0.5,
          "velocity": 100
        },
        {
          "pitch": 74,
          "onset": 118.0,
          "duration": 0.5,
          "velocity": 100
        },
        {
          "pitch": 59,
          "onset": 118.25,
          "duration": 0.25,
          "velocity": 100
        },
        {
          "pitch": 61,
          "onset": 118.5,
          "duration": 0.25,
          "velocity": 100
        },
        {
          "pitch": 69,
          "onset": 118.5,
          "duration": 0.75,
          "velocity": 100
        },
        {
          "pitch": 73,
          "onset": 118.5,
          "duration": 0.5,
          "velocity": 100
        },
        {
          "pitch": 62,
          "onset": 118.75,
          "duration": 0.25,
          "velocity": 100
        },
        {
          "pitch": 64,
          "onset": 119.0,
          "duration": 0.75,
          "velocity": 100
        },
        {
          "pitch": 71,
          "onset": 119.0,
          "duration": 0.0625,
          "velocity": 100
        },
        {
          "pitch": 73,
          "onset": 119.0625,
          "duration": 0.0625,
          "velocity": 100
        },
        {
          "pitch": 71,
          "onset": 119.125,
          "duration": 0.0625,
          "velocity": 100
        },
        {
          "pitch": 69,
          "onset": 119.1875,
          "duration": 0.0625,
          "velocity": 100
        },
        {
          "pitch": 66,
          "onset": 119.25,
          "duration": 0.25,
          "velocity": 100
        },
        {
          "pitch": 71,
          "onset": 119.25,
          "duration": 0.75,
          "velocity": 100
        },
        {
          "pitch": 68,
          "onset": 119.5,
          "duration": 0.5,
          "velocity": 100
        },
        {
          "pitch": 59,
          "onset": 119.75,
          "duration": 0.25,
          "velocity": 100
        },
        {
          "pitch": 64,
          "onset": 120.0,
          "duration": 0.5,
          "velocity": 100
        },
        {
          "pitch": 69,
          "onset": 120.0,
          "duration": 1.125,
          "velocity": 100
        },
        {
          "pitch": 69,
          "onset": 120.0,
          "duration": 0.25,
          "velocity": 100
        },
        {
          "pitch": 68,
          "onset": 120.25,
          "duration": 0.25,
          "velocity": 100
        },
        {
          "pitch": 62,
          "onset": 120.5,
          "duration": 0.25,
          "velocity": 100
        },
        {
          "pitch": 66,
          "onset": 120.5,
          "duration": 0.25,
          "velocity": 100
        },
        {
          "pitch": 61,
          "onset": 120.75,
          "duration": 0.25,
          "velocity": 100
        },
        {
          "pitch": 64,
          "onset": 120.75,
          "duration": 0.25,
          "velocity": 100
        },
        {
          "pitch": 59,
          "onset": 121.0,
          "duration": 0.25,
          "velocity": 100
        },
        {
          "pitch": 62,
          "onset": 121.0,
          "duration": 0.25,
          "velocity": 100
        },
        {
          "pitch": 68,
          "onset": 121.125,
          "duration": 0.125,
          "velocity": 100
        },
        {
          "pitch": 57,
          "onset": 121.25,
          "duration": 1.0,
          "velocity": 100
        },
        {
          "pitch": 61,
          "onset": 121.25,
          "duration": 0.25,
          "velocity": 100
        },
        {
          "pitch": 66,
          "onset": 121.25,
          "duration": 0.125,
          "velocity": 100
        },
        {
          "pitch": 68,
          "onset": 121.375,
          "duration": 0.125,
          "velocity": 100
        },
        {
          "pitch": 66,
          "onset": 121.5,
          "duration": 0.25,
          "velocity": 100
        },
        {
          "pitch": 69,
          "onset": 121.5,
          "duration": 0.25,
          "velocity": 100
        },
        {
          "pitch": 64,
          "onset": 121.75,
          "duration": 0.25,
          "velocity": 100
        },
        {
          "pitch": 71,
          "onset": 121.75,
          "duration": 0.125,
          "velocity": 100
        },
        {
          "pitch": 73,
          "onset": 121.875,
          "duration": 0.125,
          "velocity": 100
        },
        {
          "pitch": 66,
          "onset": 122.0,
          "duration": 0.5,
          "velocity": 100
        },
        {
          "pitch": 74,
          "onset": 122.0,
          "duration": 0.1562,
          "velocity": 100
        },
        {
          "pitch": 76,
          "onset": 122.1562,
          "duration": 0.1562,
          "velocity": 100
        },
        {
          "pitch": 56,
          "onset": 122.25,
          "duration": 0.25,
          "velocity": 100
        },
        {
          "pitch": 78,
          "onset": 122.3438,
          "duration": 0.1562,
          "velocity": 100
        },
        {
          "pitch": 57,
          "onset": 122.5,
          "duration": 1.0,
          "velocity": 100
        },
        {
          "pitch": 76,
          "onset": 122.5,
          "duration": 0.1562,
          "velocity": 100
        },
        {
          "pitch": 74,
          "onset": 122.6562,
          "duration": 0.1562,
          "velocity": 100
        },
        {
          "pitch": 64,
          "onset": 122.75,
          "duration": 0.25,
          "velocity": 100
        },
        {
          "pitch": 73,
          "onset": 122.8438,
          "duration": 0.1562,
          "velocity": 100
        },
        {
          "pitch": 66,
          "onset": 123.0,
          "duration": 0.25,
          "velocity": 100
        },
        {
          "pitch": 71,
          "onset": 123.0,
          "duration": 0.0625,
          "velocity": 100
        },
        {
          "pitch": 73,
          "onset": 123.0625,
          "duration": 0.0625,
          "velocity": 100
        },
        {
          "pitch": 71,
          "onset": 123.125,
          "duration": 0.0625,
          "velocity": 100
        },
        {
          "pitch": 73,
          "onset": 123.1875,
          "duration": 0.0625,
          "velocity": 100
        },
        {
          "pitch": 62,
          "onset": 123.25,
          "duration": 0.25,
          "velocity": 100
        },
        {
          "pitch": 71,
          "onset": 123.25,
          "duration": 0.5,
          "velocity": 100
        },
        {
          "pitch": 56,
          "onset": 123.5,
          "duration": 0.5,
          "velocity": 100
        },
        {
          "pitch": 59,
          "onset": 123.5,
          "duration": 0.25,
          "velocity": 100
        },
        {
          "pitch": 64,
          "onset": 123.75,
          "duration": 0.25,
          "velocity": 100
        },
        {
          "pitch": 69,
          "onset": 123.75,
          "duration": 0.125,
          "velocity": 100
        },
        {
          "pitch": 71,
          "onset": 123.875,
          "duration": 0.125,
          "velocity": 100
        },
        {
          "pitch": 57,
          "onset": 124.0,
          "duration": 0.5,
          "velocity": 100
        },
        {
          "pitch": 62,
          "onset": 124.0,
          "duration": 0.25,
          "velocity": 100
        },
        {
          "pitch": 69,
          "onset": 124.0,
          "duration": 6.9688,
          "velocity": 100
        },
        {
          "pitch": 57,
          "onset": 124.25,
          "duration": 0.25,
          "velocity": 100
        },
        {
          "pitch": 59,
          "onset": 124.5,
          "duration": 0.25,
          "velocity": 100
        },
        {
          "pitch": 61,
          "onset": 124.75,
          "duration": 0.25,
          "velocity": 100
        },
        {
          "pitch": 62,
          "onset": 125.0,
          "duration": 0.25,
          "velocity": 100
        },
        {
          "pitch": 64,
          "onset": 125.25,
          "duration": 0.25,
          "velocity": 100
        },
        {
          "pitch": 64,
          "onset": 125.5,
          "duration": 0.0625,
          "velocity": 100
        },
        {
          "pitch": 66,
          "onset": 125.5625,
          "duration": 0.0625,
          "velocity": 100
        },
        {
          "pitch": 64,
          "onset": 125.625,
          "duration": 0.125,
          "velocity": 100
        },
        {
          "pitch": 62,
          "onset": 125.75,
          "duration": 0.125,
          "velocity": 100
        },
        {
          "pitch": 64,
          "onset": 125.875,
          "duration": 0.125,
          "velocity": 100
        },
        {
          "pitch": 66,
          "onset": 126.0,
          "duration": 0.5,
          "velocity": 100
        },
        {
          "pitch": 62,
          "onset": 126.25,
          "duration": 0.25,
          "velocity": 100
        },
        {
          "pitch": 61,
          "onset": 126.5,
          "duration": 0.25,
          "velocity": 100
        },
        {
          "pitch": 67,
          "onset": 126.5,
          "duration": 1.0,
          "velocity": 100
        },
        {
          "pitch": 59,
          "onset": 126.75,
          "duration": 0.25,
          "velocity": 100
        },
        {
          "pitch": 57,
          "onset": 127.0,
          "duration": 0.25,
          "velocity": 100
        },
        {
          "pitch": 59,
          "onset": 127.25,
          "duration": 0.25,
          "velocity": 100
        },
        {
          "pitch": 61,
          "onset": 127.5,
          "duration": 0.125,
          "velocity": 100
        },
        {
          "pitch": 66,
          "onset": 127.5,
          "duration": 0.5,
          "velocity": 100
        },
        {
          "pitch": 59,
          "onset": 127.625,
          "duration": 0.125,
          "velocity": 100
        },
        {
          "pitch": 57,
          "onset": 127.75,
          "duration": 0.125,
          "velocity": 100
        },
        {
          "pitch": 59,
          "onset": 127.875,
          "duration": 0.125,
          "velocity": 100
        },
        {
          "pitch": 61,
          "onset": 128.0,
          "duration": 0.5,
          "velocity": 100
        },
        {
          "pitch": 64,
          "onset": 128.0,
          "duration": 0.25,
          "velocity": 100
        },
        {
          "pitch": 66,
          "onset": 128.25,
          "duration": 0.25,
          "velocity": 100
        },
        {
          "pitch": 57,
          "onset": 128.5,
          "duration": 0.5,
          "velocity": 100
        },
        {
          "pitch": 67,
          "onset": 128.5,
          "duration": 0.25,
          "velocity": 100
        },
        {
          "pitch": 66,
          "onset": 128.75,
          "duration": 0.25,
          "velocity": 100
        },
        {
          "pitch": 59,
          "onset": 129.0,
          "duration": 0.25,
          "velocity": 100
        },
        {
          "pitch": 67,
          "onset": 129.0,
          "duration": 0.5,
          "velocity": 100
        },
        {
          "pitch": 61,
          "onset": 129.25,
          "duration": 0.25,
          "velocity": 100
        },
        {
          "pitch": 62,
          "onset": 129.5,
          "duration": 0.25,
          "velocity": 100
        },
        {
          "pitch": 64,
          "onset": 129.5,
          "duration": 0.5,
          "velocity": 100
        },
        {
          "pitch": 61,
          "onset": 129.75,
          "duration": 0.25,
          "velocity": 100
        },
        {
          "pitch": 62,
          "onset": 130.0,
          "duration": 1.25,
          "velocity": 100
        },
        {
          "pitch": 66,
          "onset": 130.0,
          "duration": 0.25,
          "velocity": 100
        },
        {
          "pitch": 68,
          "onset": 130.25,
          "duration": 0.25,
          "velocity": 100
        },
        {
          "pitch": 69,
          "onset": 130.5,
          "duration": 0.25,
          "velocity": 100
        },
        {
          "pitch": 68,
          "onset": 130.75,
          "duration": 0.25,
          "velocity": 100
        },
        {
          "pitch": 69,
          "onset": 131.0,
          "duration": 1.25,
          "velocity": 100
        },
        {
          "pitch": 61,
          "onset": 131.25,
          "duration": 0.25,
          "velocity": 100
        },
        {
          "pitch": 59,
          "onset": 131.5,
          "duration": 0.25,
          "velocity": 100
        },
        {
          "pitch": 57,
          "onset": 131.75,
          "duration": 0.125,
          "velocity": 100
        },
        {
          "pitch": 59,
          "onset": 131.875,
          "duration": 0.125,
          "velocity": 100
        },
        {
          "pitch": 61,
          "onset": 132.0,
          "duration": 0.5,
          "velocity": 100
        },
        {
          "pitch": 64,
          "onset": 132.25,
          "duration": 0.25,
          "velocity": 100
        },
        {
          "pitch": 62,
          "onset": 132.5,
          "duration": 0.25,
          "velocity": 100
        },
        {
          "pitch": 66,
          "onset": 132.5,
          "duration": 0.25,
          "velocity": 100
        },
        {
          "pitch": 64,
          "onset": 132.75,
          "duration": 0.25,
          "velocity": 100
        },
        {
          "pitch": 68,
          "onset": 132.75,
          "duration": 0.25,
          "velocity": 100
        },
        {
          "pitch": 66,
          "onset": 133.0,
          "duration": 0.25,
          "velocity": 100
        },
        {
          "pitch": 69,
          "onset": 133.0,
          "duration": 0.25,
          "velocity": 100
        },
        {
          "pitch": 68,
          "onset": 133.25,
          "duration": 0.25,
          "velocity": 100
        },
        {
          "pitch": 73,
          "onset": 133.25,
          "duration": 0.125,
          "velocity": 100
        },
        {
          "pitch": 71,
          "onset": 133.375,
          "duration": 0.125,
          "velocity": 100
        },
        {
          "pitch": 69,
          "onset": 133.5,
          "duration": 1.0,
          "velocity": 100
        },
        {
          "pitch": 73,
          "onset": 133.5,
          "duration": 0.25,
          "velocity": 100
        },
        {
          "pitch": 76,
          "onset": 133.75,
          "duration": 0.125,
          "velocity": 100
        },
        {
          "pitch": 74,
          "onset": 133.875,
          "duration": 0.125,
          "velocity": 100
        },
        {
          "pitch": 74,
          "onset": 134.0,
          "duration": 0.25,
          "velocity": 100
        },
        {
          "pitch": 76,
          "onset": 134.25,
          "duration": 0.125,
          "velocity": 100
        },
        {
          "pitch": 74,
          "onset": 134.375,
          "duration": 0.125,
          "velocity": 100
        },
        {
          "pitch": 67,
          "onset": 134.5,
          "duration": 0.5,
          "velocity": 100
        },
        {
          "pitch": 73,
          "onset": 134.5,
          "duration": 0.125,
          "velocity": 100
        },
        {
          "pitch": 74,
          "onset": 134.625,
          "duration": 0.125,
          "velocity": 100
        },
        {
          "pitch": 71,
          "onset": 134.75,
          "duration": 0.25,
          "velocity": 100
        },
        {
          "pitch": 64,
          "onset": 135.0,
          "duration": 0.5,
          "velocity": 100
        },
        {
          "pitch": 71,
          "onset": 135.0,
          "duration": 0.25,
          "velocity": 100
        },
        {
          "pitch": 69,
          "onset": 135.25,
          "duration": 0.25,
          "velocity": 100
        },
        {
          "pitch": 61,
          "onset": 135.5,
          "duration": 0.5,
          "velocity": 100
        },
        {
          "pitch": 67,
          "onset": 135.5,
          "duration": 0.25,
          "velocity": 100
        },
        {
          "pitch": 66,
          "onset": 135.75,
          "duration": 0.125,
          "velocity": 100
        },
        {
          "pitch": 67,
          "onset": 135.875,
          "duration": 0.125,
          "velocity": 100
        },
        {
          "pitch": 57,
          "onset": 136.0,
          "duration": 0.5,
          "velocity": 100
        },
        {
          "pitch": 66,
          "onset": 136.0,
          "duration": 0.25,
          "velocity": 100
        },
        {
          "pitch": 67,
          "onset": 136.25,
          "duration": 0.125,
          "velocity": 100
        },
        {
          "pitch": 64,
          "onset": 136.375,
          "duration": 0.125,
          "velocity": 100
        },
        {
          "pitch": 66,
          "onset": 136.5,
          "duration": 0.25,
          "velocity": 100
        },
        {
          "pitch": 66,
          "onset": 136.5,
          "duration": 1.0,
          "velocity": 100
        },
        {
          "pitch": 68,
          "onset": 136.75,
          "duration": 0.25,
          "velocity": 100
        },
        {
          "pitch": 69,
          "onset": 137.0,
          "duration": 0.25,
          "velocity": 100
        },
        {
          "pitch": 68,
          "onset": 137.25,
          "duration": 0.25,
          "velocity": 100
        },
        {
          "pitch": 64,
          "onset": 137.5,
          "duration": 0.5,
          "velocity": 100
        },
        {
          "pitch": 71,
          "onset": 137.5,
          "duration": 0.25,
          "velocity": 100
        },
        {
          "pitch": 70,
          "onset": 137.75,
          "duration": 0.25,
          "velocity": 100
        },
        {
          "pitch": 62,
          "onset": 138.0,
          "duration": 0.25,
          "velocity": 100
        },
        {
          "pitch": 71,
          "onset": 138.0,
          "duration": 0.75,
          "velocity": 100
        },
        {
          "pitch": 59,
          "onset": 138.25,
          "duration": 0.25,
          "velocity": 100
        },
        {
          "pitch": 67,
          "onset": 138.5,
          "duration": 0.75,
          "velocity": 100
        },
        {
          "pitch": 73,
          "onset": 138.75,
          "duration": 0.125,
          "velocity": 100
        },
        {
          "pitch": 74,
          "onset": 138.875,
          "duration": 0.125,
          "velocity": 100
        },
        {
          "pitch": 73,
          "onset": 139.0,
          "duration": 1.25,
          "velocity": 100
        },
        {
          "pitch": 67,
          "onset": 139.25,
          "duration": 0.25,
          "velocity": 100
        },
        {
          "pitch": 66,
          "onset": 139.5,
          "duration": 0.125,
          "velocity": 100
        },
        {
          "pitch": 67,
          "onset": 139.625,
          "duration": 0.125,
          "velocity": 100
        },
        {
          "pitch": 64,
          "onset": 139.75,
          "duration": 0.25,
          "velocity": 100
        },
        {
          "pitch": 62,
          "onset": 140.0,
          "duration": 0.75,
          "velocity": 100
        },
        {
          "pitch": 66,
          "onset": 140.25,
          "duration": 0.25,
          "velocity": 100
        },
        {
          "pitch": 71,
          "onset": 140.5,
          "duration": 0.75,
          "velocity": 100
        },
        {
          "pitch": 64,
          "onset": 140.75,
          "duration": 0.25,
          "velocity": 100
        },
        {
          "pitch": 61,
          "onset": 141.0,
          "duration": 0.0625,
          "velocity": 100
        },
        {
          "pitch": 62,
          "onset": 141.0625,
          "duration": 0.0625,
          "velocity": 100
        },
        {
          "pitch": 61,
          "onset": 141.125,
          "duration": 0.625,
          "velocity": 100
        },
        {
          "pitch": 69,
          "onset": 141.25,
          "duration": 0.125,
          "velocity": 100
        },
        {
          "pitch": 68,
          "onset": 141.375,
          "duration": 0.125,
          "velocity": 100
        },
        {
          "pitch": 69,
          "onset": 141.5,
          "duration": 0.75,
          "velocity": 100
        },
        {
          "pitch": 59,
          "onset": 141.75,
          "duration": 0.125,
          "velocity": 100
        },
        {
          "pitch": 61,
          "onset": 141.875,
          "duration": 0.125,
          "velocity": 100
        },
        {
          "pitch": 59,
          "onset": 142.0,
          "duration": 0.25,
          "velocity": 100
        },
        {
          "pitch": 62,
          "onset": 142.25,
          "duration": 0.25,
          "velocity": 100
        },
        {
          "pitch": 68,
          "onset": 142.25,
          "duration": 0.25,
          "velocity": 100
        },
        {
          "pitch": 61,
          "onset": 142.5,
          "duration": 0.25,
          "velocity": 100
        },
        {
          "pitch": 76,
          "onset": 142.5,
          "duration": 1.0,
          "velocity": 100
        },
        {
          "pitch": 59,
          "onset": 142.75,
          "duration": 0.25,
          "velocity": 100
        },
        {
          "pitch": 57,
          "onset": 143.0,
          "duration": 0.25,
          "velocity": 100
        },
        {
          "pitch": 59,
          "onset": 143.25,
          "duration": 0.25,
          "velocity": 100
        },
        {
          "pitch": 59,
          "onset": 143.5,
          "duration": 0.0625,
          "velocity": 100
        },
        {
          "pitch": 74,
          "onset": 143.5,
          "duration": 0.5,
          "velocity": 100
        },
        {
          "pitch": 61,
          "onset": 143.5625,
          "duration": 0.0625,
          "velocity": 100
        },
        {
          "pitch": 59,
          "onset": 143.625,
          "duration": 0.125,
          "velocity": 100
        },
        {
          "pitch": 57,
          "onset": 143.75,
          "duration": 0.125,
          "velocity": 100
        },
        {
          "pitch": 59,
          "onset": 143.875,
          "duration": 0.125,
          "velocity": 100
        },
        {
          "pitch": 61,
          "onset": 144.0,
          "duration": 0.25,
          "velocity": 100
        },
        {
          "pitch": 73,
          "onset": 144.0,
          "duration": 0.5,
          "velocity": 100
        },
        {
          "pitch": 57,
          "onset": 144.25,
          "duration": 0.25,
          "velocity": 100
        },
        {
          "pitch": 56,
          "onset": 144.5,
          "duration": 0.25,
          "velocity": 100
        },
        {
          "pitch": 71,
          "onset": 144.5,
          "duration": 0.25,
          "velocity": 100
        },
        {
          "pitch": 54,
          "onset": 144.75,
          "duration": 0.25,
          "velocity": 100
        },
        {
          "pitch": 69,
          "onset": 144.75,
          "duration": 0.25,
          "velocity": 100
        },
        {
          "pitch": 56,
          "onset": 145.0,
          "duration": 0.25,
          "velocity": 100
        },
        {
          "pitch": 71,
          "onset": 145.0,
          "duration": 0.25,
          "velocity": 100
        },
        {
          "pitch": 57,
          "onset": 145.25,
          "duration": 0.25,
          "velocity": 100
        },
        {
          "pitch": 73,
          "onset": 145.25,
          "duration": 0.25,
          "velocity": 100
        },
        {
          "pitch": 57,
          "onset": 145.5,
          "duration": 0.0625,
          "velocity": 100
        },
        {
          "pitch": 73,
          "onset": 145.5,
          "duration": 0.0625,
          "velocity": 100
        },
        {
          "pitch": 59,
          "onset": 145.5625,
          "duration": 0.0625,
          "velocity": 100
        },
        {
          "pitch": 74,
          "onset": 145.5625,
          "duration": 0.0625,
          "velocity": 100
        },
        {
          "pitch": 57,
          "onset": 145.625,
          "duration": 0.125,
          "velocity": 100
        },
        {
          "pitch": 73,
          "onset": 145.625,
          "duration": 0.125,
          "velocity": 100
        },
        {
          "pitch": 56,
          "onset": 145.75,
          "duration": 0.125,
          "velocity": 100
        },
        {
          "pitch": 71,
          "onset": 145.75,
          "duration": 0.125,
          "velocity": 100
        },
        {
          "pitch": 57,
          "onset": 145.875,
          "duration": 0.125,
          "velocity": 100
        },
        {
          "pitch": 73,
          "onset": 145.875,
          "duration": 0.125,
          "velocity": 100
        },
        {
          "pitch": 59,
          "onset": 146.0,
          "duration": 0.25,
          "velocity": 100
        },
        {
          "pitch": 74,
          "onset": 146.0,
          "duration": 0.25,
          "velocity": 100
        },
        {
          "pitch": 56,
          "onset": 146.25,
          "duration": 0.25,
          "velocity": 100
        },
        {
          "pitch": 71,
          "onset": 146.25,
          "duration": 0.25,
          "velocity": 100
        },
        {
          "pitch": 54,
          "onset": 146.5,
          "duration": 0.25,
          "velocity": 100
        },
        {
          "pitch": 69,
          "onset": 146.5,
          "duration": 0.25,
          "velocity": 100
        },
        {
          "pitch": 52,
          "onset": 146.75,
          "duration": 0.25,
          "velocity": 100
        },
        {
          "pitch": 68,
          "onset": 146.75,
          "duration": 0.25,
          "velocity": 100
        },
        {
          "pitch": 54,
          "onset": 147.0,
          "duration": 0.25,
          "velocity": 100
        },
        {
          "pitch": 69,
          "onset": 147.0,
          "duration": 0.25,
          "velocity": 100
        },
        {
          "pitch": 56,
          "onset": 147.25,
          "duration": 0.25,
          "velocity": 100
        },
        {
          "pitch": 71,
          "onset": 147.25,
          "duration": 0.25,
          "velocity": 100
        },
        {
          "pitch": 56,
          "onset": 147.5,
          "duration": 0.0625,
          "velocity": 100
        },
        {
          "pitch": 71,
          "onset": 147.5,
          "duration": 0.0625,
          "velocity": 100
        },
        {
          "pitch": 57,
          "onset": 147.5625,
          "duration": 0.0625,
          "velocity": 100
        },
        {
          "pitch": 73,
          "onset": 147.5625,
          "duration": 0.0625,
          "velocity": 100
        },
        {
          "pitch": 56,
          "onset": 147.625,
          "duration": 0.125,
          "velocity": 100
        },
        {
          "pitch": 71,
          "onset": 147.625,
          "duration": 0.125,
          "velocity": 100
        },
        {
          "pitch": 54,
          "onset": 147.75,
          "duration": 0.125,
          "velocity": 100
        },
        {
          "pitch": 69,
          "onset": 147.75,
          "duration": 0.125,
          "velocity": 100
        },
        {
          "pitch": 56,
          "onset": 147.875,
          "duration": 0.125,
          "velocity": 100
        },
        {
          "pitch": 71,
          "onset": 147.875,
          "duration": 0.125,
          "velocity": 100
        },
        {
          "pitch": 57,
          "onset": 148.0,
          "duration": 0.5,
          "velocity": 100
        },
        {
          "pitch": 73,
          "onset": 148.0,
          "duration": 0.25,
          "velocity": 100
        },
        {
          "pitch": 69,
          "onset": 148.25,
          "duration": 0.25,
          "velocity": 100
        },
        {
          "pitch": 62,
          "onset": 148.5,
          "duration": 0.25,
          "velocity": 100
        },
        {
          "pitch": 68,
          "onset": 148.5,
          "duration": 0.25,
          "velocity": 100
        },
        {
          "pitch": 61,
          "onset": 148.75,
          "duration": 0.25,
          "velocity": 100
        },
        {
          "pitch": 66,
          "onset": 148.75,
          "duration": 0.75,
          "velocity": 100
        },
        {
          "pitch": 59,
          "onset": 149.0,
          "duration": 0.25,
          "velocity": 100
        },
        {
          "pitch": 57,
          "onset": 149.25,
          "duration": 0.25,
          "velocity": 100
        },
        {
          "pitch": 56,
          "onset": 149.5,
          "duration": 0.25,
          "velocity": 100
        },
        {
          "pitch": 64,
          "onset": 149.5,
          "duration": 0.25,
          "velocity": 100
        },
        {
          "pitch": 54,
          "onset": 149.75,
          "duration": 0.25,
          "velocity": 100
        },
        {
          "pitch": 62,
          "onset": 149.75,
          "duration": 0.25,
          "velocity": 100
        },
        {
          "pitch": 52,
          "onset": 150.0,
          "duration": 0.5,
          "velocity": 100
        },
        {
          "pitch": 61,
          "onset": 150.0,
          "duration": 0.25,
          "velocity": 100
        },
        {
          "pitch": 69,
          "onset": 150.0,
          "duration": 1.9688,
          "velocity": 100
        },
        {
          "pitch": 59,
          "onset": 150.25,
          "duration": 0.25,
          "velocity": 100
        },
        {
          "pitch": 61,
          "onset": 150.5,
          "duration": 1.0,
          "velocity": 100
        },
        {
          "pitch": 64,
          "onset": 150.75,
          "duration": 0.25,
          "velocity": 100
        },
        {
          "pitch": 62,
          "onset": 151.0,
          "duration": 0.25,
          "velocity": 100
        },
        {
          "pitch": 66,
          "onset": 151.25,
          "duration": 0.25,
          "velocity": 100
        },
        {
          "pitch": 59,
          "onset": 151.5,
          "duration": 0.5,
          "velocity": 100
        },
        {
          "pitch": 64,
          "onset": 151.5,
          "duration": 0.25,
          "velocity": 100
        },
        {
          "pitch": 67,
          "onset": 151.75,
          "duration": 0.25,
          "velocity": 100
        },
        {
          "pitch": 57,
          "onset": 152.0,
          "duration": 0.5,
          "velocity": 100
        },
        {
          "pitch": 66,
          "onset": 152.0,
          "duration": 0.5,
          "velocity": 100
        },
        {
          "pitch": 69,
          "onset": 152.0,
          "duration": 0.25,
          "velocity": 100
        },
        {
          "pitch": 71,
          "onset": 152.25,
          "duration": 0.125,
          "velocity": 100
        },
        {
          "pitch": 69,
          "onset": 152.375,
          "duration": 0.125,
          "velocity": 100
        },
        {
          "pitch": 62,
          "onset": 152.5,
          "duration": 0.5,
          "velocity": 100
        },
        {
          "pitch": 66,
          "onset": 152.5,
          "duration": 0.5,
          "velocity": 100
        },
        {
          "pitch": 68,
          "onset": 152.5,
          "duration": 0.25,
          "velocity": 100
        },
        {
          "pitch": 69,
          "onset": 152.75,
          "duration": 0.25,
          "velocity": 100
        },
        {
          "pitch": 62,
          "onset": 153.0,
          "duration": 0.25,
          "velocity": 100
        },
        {
          "pitch": 66,
          "onset": 153.0,
          "duration": 0.25,
          "velocity": 100
        },
        {
          "pitch": 71,
          "onset": 153.0,
          "duration": 0.125,
          "velocity": 100
        },
        {
          "pitch": 73,
          "onset": 153.125,
          "duration": 0.125,
          "velocity": 100
        },
        {
          "pitch": 61,
          "onset": 153.25,
          "duration": 0.25,
          "velocity": 100
        },
        {
          "pitch": 64,
          "onset": 153.25,
          "duration": 0.25,
          "velocity": 100
        },
        {
          "pitch": 71,
          "onset": 153.25,
          "duration": 0.125,
          "velocity": 100
        },
        {
          "pitch": 73,
          "onset": 153.375,
          "duration": 0.125,
          "velocity": 100
        },
        {
          "pitch": 61,
          "onset": 153.5,
          "duration": 0.25,
          "velocity": 100
        },
        {
          "pitch": 64,
          "onset": 153.5,
          "duration": 0.25,
          "velocity": 100
        },
        {
          "pitch": 73,
          "onset": 153.5,
          "duration": 0.0625,
          "velocity": 100
        },
        {
          "pitch": 74,
          "onset": 153.5625,
          "duration": 0.0625,
          "velocity": 100
        },
        {
          "pitch": 73,
          "onset": 153.625,
          "duration": 0.25,
          "velocity": 100
        },
        {
          "pitch": 59,
          "onset": 153.75,
          "duration": 0.25,
          "velocity": 100
        },
        {
          "pitch": 62,
          "onset": 153.75,
          "duration": 0.25,
          "velocity": 100
        },
        {
          "pitch": 71,
          "onset": 153.875,
          "duration": 0.0625,
          "velocity": 100
        },
        {
          "pitch": 73,
          "onset": 153.9375,
          "duration": 0.0625,
          "velocity": 100
        },
        {
          "pitch": 59,
          "onset": 154.0,
          "duration": 0.75,
          "velocity": 100
        },
        {
          "pitch": 62,
          "onset": 154.0,
          "duration": 0.25,
          "velocity": 100
        },
        {
          "pitch": 74,
          "onset": 154.0,
          "duration": 1.0,
          "velocity": 100
        },
        {
          "pitch": 66,
          "onset": 154.25,
          "duration": 0.25,
          "velocity": 100
        },
        {
          "pitch": 71,
          "onset": 154.5,
          "duration": 0.5,
          "velocity": 100
        },
        {
          "pitch": 67,
          "onset": 155.0,
          "duration": 0.5,
          "velocity": 100
        },
        {
          "pitch": 74,
          "onset": 155.0,
          "duration": 0.25,
          "velocity": 100
        },
        {
          "pitch": 64,
          "onset": 155.25,
          "duration": 0.25,
          "velocity": 100
        },
        {
          "pitch": 73,
          "onset": 155.25,
          "duration": 0.375,
          "velocity": 100
        },
        {
          "pitch": 58,
          "onset": 155.5,
          "duration": 0.5,
          "velocity": 100
        },
        {
          "pitch": 66,
          "onset": 155.5,
          "duration": 0.25,
          "velocity": 100
        },
        {
          "pitch": 76,
          "onset": 155.625,
          "duration": 0.125,
          "velocity": 100
        },
        {
          "pitch": 64,
          "onset": 155.75,
          "duration": 0.25,
          "velocity": 100
        },
        {
          "pitch": 74,
          "onset": 155.75,
          "duration": 0.125,
          "velocity": 100
        },
        {
          "pitch": 73,
          "onset": 155.875,
          "duration": 0.125,
          "velocity": 100
        },
        {
          "pitch": 62,
          "onset": 156.0,
          "duration": 0.125,
          "velocity": 100
        },
        {
          "pitch": 64,
          "onset": 156.0,
          "duration": 0.5,
          "velocity": 100
        },
        {
          "pitch": 71,
          "onset": 156.0,
          "duration": 0.25,
          "velocity": 100
        },
        {
          "pitch": 61,
          "onset": 156.125,
          "duration": 0.125,
          "velocity": 100
        },
        {
          "pitch": 67,
          "onset": 156.25,
          "duration": 0.25,
          "velocity": 100
        },
        {
          "pitch": 70,
          "onset": 156.25,
          "duration": 0.25,
          "velocity": 100
        },
        {
          "pitch": 62,
          "onset": 156.5,
          "duration": 0.5,
          "velocity": 100
        },
        {
          "pitch": 66,
          "onset": 156.5,
          "duration": 0.5,
          "velocity": 100
        },
        {
          "pitch": 71,
          "onset": 156.5,
          "duration": 0.75,
          "velocity": 100
        },
        {
          "pitch": 61,
          "onset": 157.0,
          "duration": 0.5,
          "velocity": 100
        },
        {
          "pitch": 66,
          "onset": 157.0,
          "duration": 0.5,
          "velocity": 100
        },
        {
          "pitch": 73,
          "onset": 157.25,
          "duration": 0.125,
          "velocity": 100
        },
        {
          "pitch": 74,
          "onset": 157.375,
          "duration": 0.125,
          "velocity": 100
        },
        {
          "pitch": 54,
          "onset": 157.5,
          "duration": 1.75,
          "velocity": 100
        },
        {
          "pitch": 61,
          "onset": 157.5,
          "duration": 0.75,
          "velocity": 100
        },
        {
          "pitch": 73,
          "onset": 157.5,
          "duration": 0.125,
          "velocity": 100
        },
        {
          "pitch": 71,
          "onset": 157.625,
          "duration": 0.125,
          "velocity": 100
        },
        {
          "pitch": 70,
          "onset": 157.75,
          "duration": 0.25,
          "velocity": 100
        },
        {
          "pitch": 71,
          "onset": 158.0,
          "duration": 1.0,
          "velocity": 100
        },
        {
          "pitch": 61,
          "onset": 158.25,
          "duration": 0.25,
          "velocity": 100
        },
        {
          "pitch": 62,
          "onset": 158.5,
          "duration": 0.25,
          "velocity": 100
        },
        {
          "pitch": 59,
          "onset": 158.75,
          "duration": 0.25,
          "velocity": 100
        },
        {
          "pitch": 56,
          "onset": 159.0,
          "duration": 0.5,
          "velocity": 100
        },
        {
          "pitch": 52,
          "onset": 159.25,
          "duration": 0.25,
          "velocity": 100
        },
        {
          "pitch": 50,
          "onset": 159.5,
          "duration": 0.25,
          "velocity": 100
        },
        {
          "pitch": 58,
          "onset": 159.5,
          "duration": 0.5,
          "velocity": 100
        },
        {
          "pitch": 49,
          "onset": 159.75,
          "duration": 0.25,
          "velocity": 100
        },
        {
          "pitch": 50,
          "onset": 160.0,
          "duration": 0.5,
          "velocity": 100
        },
        {
          "pitch": 59,
          "onset": 160.0,
          "duration": 0.25,
          "velocity": 100
        },
        {
          "pitch": 66,
          "onset": 160.25,
          "duration": 0.25,
          "velocity": 100
        },
        {
          "pitch": 54,
          "onset": 160.5,
          "duration": 0.5,
          "velocity": 100
        },
        {
          "pitch": 64,
          "onset": 160.5,
          "duration": 0.25,
          "velocity": 100
        },
        {
          "pitch": 62,
          "onset": 160.75,
          "duration": 0.25,
          "velocity": 100
        },
        {
          "pitch": 59,
          "onset": 161.0,
          "duration": 1.25,
          "velocity": 100
        },
        {
          "pitch": 64,
          "onset": 161.0,
          "duration": 0.25,
          "velocity": 100
        },
        {
          "pitch": 66,
          "onset": 161.25,
          "duration": 0.25,
          "velocity": 100
        },
        {
          "pitch": 66,
          "onset": 161.5,
          "duration": 0.0625,
          "velocity": 100
        },
        {
          "pitch": 67,
          "onset": 161.5625,
          "duration": 0.0625,
          "velocity": 100
        },
        {
          "pitch": 66,
          "onset": 161.625,
          "duration": 0.125,
          "velocity": 100
        },
        {
          "pitch": 64,
          "onset": 161.75,
          "duration": 0.125,
          "velocity": 100
        },
        {
          "pitch": 66,
          "onset": 161.875,
          "duration": 0.125,
          "velocity": 100
        },
        {
          "pitch": 67,
          "onset": 162.0,
          "duration": 0.25,
          "velocity": 100
        },
        {
          "pitch": 61,
          "onset": 162.25,
          "duration": 0.25,
          "velocity": 100
        },
        {
          "pitch": 64,
          "onset": 162.25,
          "duration": 0.25,
          "velocity": 100
        },
        {
          "pitch": 59,
          "onset": 162.5,
          "duration": 0.25,
          "velocity": 100
        },
        {
          "pitch": 62,
          "onset": 162.5,
          "duration": 0.25,
          "velocity": 100
        },
        {
          "pitch": 57,
          "onset": 162.75,
          "duration": 0.25,
          "velocity": 100
        },
        {
          "pitch": 61,
          "onset": 162.75,
          "duration": 0.25,
          "velocity": 100
        },
        {
          "pitch": 59,
          "onset": 163.0,
          "duration": 0.25,
          "velocity": 100
        },
        {
          "pitch": 62,
          "onset": 163.0,
          "duration": 0.25,
          "velocity": 100
        },
        {
          "pitch": 61,
          "onset": 163.25,
          "duration": 0.25,
          "velocity": 100
        },
        {
          "pitch": 64,
          "onset": 163.25,
          "duration": 0.25,
          "velocity": 100
        },
        {
          "pitch": 61,
          "onset": 163.5,
          "duration": 0.25,
          "velocity": 100
        },
        {
          "pitch": 64,
          "onset": 163.5,
          "duration": 0.0625,
          "velocity": 100
        },
        {
          "pitch": 66,
          "onset": 163.5625,
          "duration": 0.0625,
          "velocity": 100
        },
        {
          "pitch": 64,
          "onset": 163.625,
          "duration": 0.125,
          "velocity": 100
        },
        {
          "pitch": 59,
          "onset": 163.75,
          "duration": 0.125,
          "velocity": 100
        },
        {
          "pitch": 62,
          "onset": 163.75,
          "duration": 0.125,
          "velocity": 100
        },
        {
          "pitch": 61,
          "onset": 163.875,
          "duration": 0.125,
          "velocity": 100
        },
        {
          "pitch": 64,
          "onset": 163.875,
          "duration": 0.125,
          "velocity": 100
        },
        {
          "pitch": 62,
          "onset": 164.0,
          "duration": 0.5,
          "velocity": 100
        },
        {
          "pitch": 66,
          "onset": 164.0,
          "duration": 0.25,
          "velocity": 100
        },
        {
          "pitch": 69,
          "onset": 164.25,
          "duration": 0.125,
          "velocity": 100
        },
        {
          "pitch": 68,
          "onset": 164.375,
          "duration": 0.125,
          "velocity": 100
        },
        {
          "pitch": 66,
          "onset": 164.5,
          "duration": 0.5,
          "velocity": 100
        },
        {
          "pitch": 69,
          "onset": 164.5,
          "duration": 0.25,
          "velocity": 100
        },
        {
          "pitch": 71,
          "onset": 164.75,
          "duration": 0.25,
          "velocity": 100
        },
        {
          "pitch": 62,
          "onset": 165.0,
          "duration": 0.5,
          "velocity": 100
        },
        {
          "pitch": 68,
          "onset": 165.0,
          "duration": 0.25,
          "velocity": 100
        },
        {
          "pitch": 69,
          "onset": 165.25,
          "duration": 0.25,
          "velocity": 100
        },
        {
          "pitch": 59,
          "onset": 165.5,
          "duration": 0.5,
          "velocity": 100
        },
        {
          "pitch": 71,
          "onset": 165.5,
          "duration": 0.0625,
          "velocity": 100
        },
        {
          "pitch": 69,
          "onset": 165.5625,
          "duration": 0.0625,
          "velocity": 100
        },
        {
          "pitch": 68,
          "onset": 165.625,
          "duration": 0.125,
          "velocity": 100
        },
        {
          "pitch": 69,
          "onset": 165.75,
          "duration": 0.125,
          "velocity": 100
        },
        {
          "pitch": 71,
          "onset": 165.875,
          "duration": 0.125,
          "velocity": 100
        },
        {
          "pitch": 56,
          "onset": 166.0,
          "duration": 0.5,
          "velocity": 100
        },
        {
          "pitch": 64,
          "onset": 166.0,
          "duration": 0.25,
          "velocity": 100
        },
        {
          "pitch": 71,
          "onset": 166.0,
          "duration": 1.5,
          "velocity": 100
        },
        {
          "pitch": 62,
          "onset": 166.25,
          "duration": 0.25,
          "velocity": 100
        },
        {
          "pitch": 61,
          "onset": 166.5,
          "duration": 0.25,
          "velocity": 100
        },
        {
          "pitch": 64,
          "onset": 166.5,
          "duration": 1.0,
          "velocity": 100
        },
        {
          "pitch": 59,
          "onset": 166.75,
          "duration": 0.25,
          "velocity": 100
        },
        {
          "pitch": 57,
          "onset": 167.0,
          "duration": 0.25,
          "velocity": 100
        },
        {
          "pitch": 56,
          "onset": 167.25,
          "duration": 0.25,
          "velocity": 100
        },
        {
          "pitch": 57,
          "onset": 167.5,
          "duration": 0.25,
          "velocity": 100
        },
        {
          "pitch": 62,
          "onset": 167.5,
          "duration": 0.5,
          "velocity": 100
        },
        {
          "pitch": 73,
          "onset": 167.5,
          "duration": 0.125,
          "velocity": 100
        },
        {
          "pitch": 71,
          "onset": 167.625,
          "duration": 0.125,
          "velocity": 100
        },
        {
          "pitch": 59,
          "onset": 167.75,
          "duration": 0.25,
          "velocity": 100
        },
        {
          "pitch": 69,
          "onset": 167.75,
          "duration": 0.125,
          "velocity": 100
        },
        {
          "pitch": 71,
          "onset": 167.875,
          "duration": 0.125,
          "velocity": 100
        },
        {
          "pitch": 52,
          "onset": 168.0,
          "duration": 0.5,
          "velocity": 100
        },
        {
          "pitch": 61,
          "onset": 168.0,
          "duration": 1.0,
          "velocity": 100
        },
        {
          "pitch": 73,
          "onset": 168.0,
          "duration": 0.25,
          "velocity": 100
        },
        {
          "pitch": 69,
          "onset": 168.25,
          "duration": 0.25,
          "velocity": 100
        },
        {
          "pitch": 68,
          "onset": 168.5,
          "duration": 0.125,
          "velocity": 100
        },
        {
          "pitch": 69,
          "onset": 168.5,
          "duration": 0.5,
          "velocity": 100
        },
        {
          "pitch": 66,
          "onset": 168.625,
          "duration": 0.125,
          "velocity": 100
        },
        {
          "pitch": 68,
          "onset": 168.75,
          "duration": 0.125,
          "velocity": 100
        },
        {
          "pitch": 69,
          "onset": 168.875,
          "duration": 0.125,
          "velocity": 100
        },
        {
          "pitch": 68,
          "onset": 169.0,
          "duration": 0.25,
          "velocity": 100
        },
        {
          "pitch": 74,
          "onset": 169.0,
          "duration": 0.25,
          "velocity": 100
        },
        {
          "pitch": 66,
          "onset": 169.25,
          "duration": 0.25,
          "velocity": 100
        },
        {
          "pitch": 69,
          "onset": 169.25,
          "duration": 0.25,
          "velocity": 100
        },
        {
          "pitch": 64,
          "onset": 169.5,
          "duration": 0.25,
          "velocity": 100
        },
        {
          "pitch": 71,
          "onset": 169.5,
          "duration": 0.125,
          "velocity": 100
        },
        {
          "pitch": 69,
          "onset": 169.625,
          "duration": 0.125,
          "velocity": 100
        },
        {
          "pitch": 62,
          "onset": 169.75,
          "duration": 0.25,
          "velocity": 100
        },
        {
          "pitch": 68,
          "onset": 169.75,
          "duration": 0.125,
          "velocity": 100
        },
        {
          "pitch": 69,
          "onset": 169.875,
          "duration": 0.125,
          "velocity": 100
        },
        {
          "pitch": 61,
          "onset": 170.0,
          "duration": 0.25,
          "velocity": 100
        },
        {
          "pitch": 76,
          "onset": 170.0,
          "duration": 1.25,
          "velocity": 100
        },
        {
          "pitch": 59,
          "onset": 170.25,
          "duration": 0.25,
          "velocity": 100
        },
        {
          "pitch": 66,
          "onset": 170.25,
          "duration": 0.25,
          "velocity": 100
        },
        {
          "pitch": 64,
          "onset": 170.5,
          "duration": 0.25,
          "velocity": 100
        },
        {
          "pitch": 68,
          "onset": 170.5,
          "duration": 1.0,
          "velocity": 100
        },
        {
          "pitch": 62,
          "onset": 170.75,
          "duration": 0.25,
          "velocity": 100
        },
        {
          "pitch": 61,
          "onset": 171.0,
          "duration": 0.25,
          "velocity": 100
        },
        {
          "pitch": 59,
          "onset": 171.25,
          "duration": 0.25,
          "velocity": 100
        },
        {
          "pitch": 78,
          "onset": 171.25,
          "duration": 0.125,
          "velocity": 100
        },
        {
          "pitch": 76,
          "onset": 171.375,
          "duration": 0.125,
          "velocity": 100
        },
        {
          "pitch": 57,
          "onset": 171.5,
          "duration": 0.25,
          "velocity": 100
        },
        {
          "pitch": 66,
          "onset": 171.5,
          "duration": 0.5,
          "velocity": 100
        },
        {
          "pitch": 74,
          "onset": 171.5,
          "duration": 0.125,
          "velocity": 100
        },
        {
          "pitch": 73,
          "onset": 171.625,
          "duration": 0.125,
          "velocity": 100
        },
        {
          "pitch": 59,
          "onset": 171.75,
          "duration": 0.25,
          "velocity": 100
        },
        {
          "pitch": 74,
          "onset": 171.75,
          "duration": 0.25,
          "velocity": 100
        },
        {
          "pitch": 61,
          "onset": 172.0,
          "duration": 0.5,
          "velocity": 100
        },
        {
          "pitch": 64,
          "onset": 172.0,
          "duration": 0.25,
          "velocity": 100
        },
        {
          "pitch": 74,
          "onset": 172.0,
          "duration": 0.25,
          "velocity": 100
        },
        {
          "pitch": 73,
          "onset": 172.25,
          "duration": 0.5,
          "velocity": 100
        },
        {
          "pitch": 73,
          "onset": 172.25,
          "duration": 0.25,
          "velocity": 100
        },
        {
          "pitch": 71,
          "onset": 172.5,
          "duration": 0.25,
          "velocity": 100
        },
        {
          "pitch": 69,
          "onset": 172.75,
          "duration": 0.25,
          "velocity": 100
        },
        {
          "pitch": 74,
          "onset": 172.75,
          "duration": 0.25,
          "velocity": 100
        },
        {
          "pitch": 68,
          "onset": 173.0,
          "duration": 0.25,
          "velocity": 100
        },
        {
          "pitch": 71,
          "onset": 173.0,
          "duration": 0.0625,
          "velocity": 100
        },
        {
          "pitch": 73,
          "onset": 173.0625,
          "duration": 0.0625,
          "velocity": 100
        },
        {
          "pitch": 71,
          "onset": 173.125,
          "duration": 0.0625,
          "velocity": 100
        },
        {
          "pitch": 69,
          "onset": 173.1875,
          "duration": 0.0625,
          "velocity": 100
        },
        {
          "pitch": 66,
          "onset": 173.25,
          "duration": 0.25,
          "velocity": 100
        },
        {
          "pitch": 71,
          "onset": 173.25,
          "duration": 0.75,
          "velocity": 100
        },
        {
          "pitch": 65,
          "onset": 173.5,
          "duration": 0.25,
          "velocity": 100
        },
        {
          "pitch": 66,
          "onset": 173.75,
          "duration": 0.25,
          "velocity": 100
        },
        {
          "pitch": 68,
          "onset": 174.0,
          "duration": 0.5,
          "velocity": 100
        },
        {
          "pitch": 73,
          "onset": 174.0,
          "duration": 2.5,
          "velocity": 100
        },
        {
          "pitch": 62,
          "onset": 174.25,
          "duration": 0.25,
          "velocity": 100
        },
        {
          "pitch": 61,
          "onset": 174.5,
          "duration": 0.25,
          "velocity": 100
        },
        {
          "pitch": 65,
          "onset": 174.5,
          "duration": 0.5,
          "velocity": 100
        },
        {
          "pitch": 59,
          "onset": 174.75,
          "duration": 0.25,
          "velocity": 100
        },
        {
          "pitch": 57,
          "onset": 175.0,
          "duration": 0.25,
          "velocity": 100
        },
        {
          "pitch": 66,
          "onset": 175.0,
          "duration": 0.25,
          "velocity": 100
        },
        {
          "pitch": 59,
          "onset": 175.25,
          "duration": 0.25,
          "velocity": 100
        },
        {
          "pitch": 68,
          "onset": 175.25,
          "duration": 0.25,
          "velocity": 100
        },
        {
          "pitch": 59,
          "onset": 175.5,
          "duration": 0.25,
          "velocity": 100
        },
        {
          "pitch": 68,
          "onset": 175.5,
          "duration": 0.25,
          "velocity": 100
        },
        {
          "pitch": 61,
          "onset": 175.75,
          "duration": 0.25,
          "velocity": 100
        },
        {
          "pitch": 69,
          "onset": 175.75,
          "duration": 0.25,
          "velocity": 100
        },
        {
          "pitch": 61,
          "onset": 176.0,
          "duration": 0.5,
          "velocity": 100
        },
        {
          "pitch": 69,
          "onset": 176.0,
          "duration": 0.25,
          "velocity": 100
        },
        {
          "pitch": 71,
          "onset": 176.25,
          "duration": 0.125,
          "velocity": 100
        },
        {
          "pitch": 69,
          "onset": 176.375,
          "duration": 0.125,
          "velocity": 100
        },
        {
          "pitch": 62,
          "onset": 176.5,
          "duration": 0.75,
          "velocity": 100
        },
        {
          "pitch": 68,
          "onset": 176.5,
          "duration": 0.25,
          "velocity": 100
        },
        {
          "pitch": 69,
          "onset": 176.75,
          "duration": 0.125,
          "velocity": 100
        },
        {
          "pitch": 71,
          "onset": 176.875,
          "duration": 0.125,
          "velocity": 100
        },
        {
          "pitch": 65,
          "onset": 177.0,
          "duration": 0.0625,
          "velocity": 100
        },
        {
          "pitch": 66,
          "onset": 177.0625,
          "duration": 0.0625,
          "velocity": 100
        },
        {
          "pitch": 65,
          "onset": 177.125,
          "duration": 0.625,
          "velocity": 100
        },
        {
          "pitch": 62,
          "onset": 177.25,
          "duration": 0.25,
          "velocity": 100
        },
        {
          "pitch": 61,
          "onset": 177.5,
          "duration": 0.25,
          "velocity": 100
        },
        {
          "pitch": 59,
          "onset": 177.75,
          "duration": 0.25,
          "velocity": 100
        },
        {
          "pitch": 66,
          "onset": 177.75,
          "duration": 0.25,
          "velocity": 100
        },
        {
          "pitch": 57,
          "onset": 178.0,
          "duration": 0.25,
          "velocity": 100
        },
        {
          "pitch": 66,
          "onset": 178.0,
          "duration": 0.5,
          "velocity": 100
        },
        {
          "pitch": 64,
          "onset": 178.25,
          "duration": 0.25,
          "velocity": 100
        },
        {
          "pitch": 62,
          "onset": 178.5,
          "duration": 0.25,
          "velocity": 100
        },
        {
          "pitch": 66,
          "onset": 178.5,
          "duration": 0.5,
          "velocity": 100
        },
        {
          "pitch": 61,
          "onset": 178.75,
          "duration": 0.25,
          "velocity": 100
        },
        {
          "pitch": 59,
          "onset": 179.0,
          "duration": 0.25,
          "velocity": 100
        },
        {
          "pitch": 68,
          "onset": 179.0,
          "duration": 0.5,
          "velocity": 100
        },
        {
          "pitch": 61,
          "onset": 179.25,
          "duration": 0.25,
          "velocity": 100
        },
        {
          "pitch": 61,
          "onset": 179.5,
          "duration": 0.0625,
          "velocity": 100
        },
        {
          "pitch": 70,
          "onset": 179.5,
          "duration": 0.5,
          "velocity": 100
        },
        {
          "pitch": 62,
          "onset": 179.5625,
          "duration": 0.0625,
          "velocity": 100
        },
        {
          "pitch": 61,
          "onset": 179.625,
          "duration": 0.125,
          "velocity": 100
        },
        {
          "pitch": 59,
          "onset": 179.75,
          "duration": 0.125,
          "velocity": 100
        },
        {
          "pitch": 61,
          "onset": 179.875,
          "duration": 0.125,
          "velocity": 100
        },
        {
          "pitch": 62,
          "onset": 180.0,
          "duration": 0.25,
          "velocity": 100
        },
        {
          "pitch": 71,
          "onset": 180.0,
          "duration": 0.5,
          "velocity": 100
        },
        {
          "pitch": 56,
          "onset": 180.25,
          "duration": 0.25,
          "velocity": 100
        },
        {
          "pitch": 54,
          "onset": 180.5,
          "duration": 0.25,
          "velocity": 100
        },
        {
          "pitch": 64,
          "onset": 180.5,
          "duration": 1.0,
          "velocity": 100
        },
        {
          "pitch": 68,
          "onset": 180.5,
          "duration": 0.5,
          "velocity": 100
        },
        {
          "pitch": 52,
          "onset": 180.75,
          "duration": 0.25,
          "velocity": 100
        },
        {
          "pitch": 54,
          "onset": 181.0,
          "duration": 0.25,
          "velocity": 100
        },
        {
          "pitch": 69,
          "onset": 181.0,
          "duration": 0.5,
          "velocity": 100
        },
        {
          "pitch": 56,
          "onset": 181.25,
          "duration": 0.25,
          "velocity": 100
        },
        {
          "pitch": 56,
          "onset": 181.5,
          "duration": 0.25,
          "velocity": 100
        },
        {
          "pitch": 62,
          "onset": 181.5,
          "duration": 0.5,
          "velocity": 100
        },
        {
          "pitch": 71,
          "onset": 181.5,
          "duration": 0.5,
          "velocity": 100
        },
        {
          "pitch": 54,
          "onset": 181.75,
          "duration": 0.125,
          "velocity": 100
        },
        {
          "pitch": 56,
          "onset": 181.875,
          "duration": 0.125,
          "velocity": 100
        },
        {
          "pitch": 57,
          "onset": 182.0,
          "duration": 1.9688,
          "velocity": 100
        },
        {
          "pitch": 61,
          "onset": 182.0,
          "duration": 1.9688,
          "velocity": 100
        },
        {
          "pitch": 64,
          "onset": 182.0,
          "duration": 0.25,
          "velocity": 100
        },
        {
          "pitch": 62,
          "onset": 182.25,
          "duration": 0.25,
          "velocity": 100
        },
        {
          "pitch": 64,
          "onset": 182.5,
          "duration": 0.25,
          "velocity": 100
        },
        {
          "pitch": 66,
          "onset": 182.75,
          "duration": 0.25,
          "velocity": 100
        },
        {
          "pitch": 64,
          "onset": 183.0,
          "duration": 0.25,
          "velocity": 100
        },
        {
          "pitch": 68,
          "onset": 183.25,
          "duration": 0.25,
          "velocity": 100
        },
        {
          "pitch": 66,
          "onset": 183.5,
          "duration": 0.25,
          "velocity": 100
        },
        {
          "pitch": 69,
          "onset": 183.75,
          "duration": 0.25,
          "velocity": 100
        },
        {
          "pitch": 52,
          "onset": 184.0,
          "duration": 0.5,
          "velocity": 100
        },
        {
          "pitch": 59,
          "onset": 184.0,
          "duration": 0.25,
          "velocity": 100
        },
        {
          "pitch": 68,
          "onset": 184.0,
          "duration": 0.25,
          "velocity": 100
        },
        {
          "pitch": 57,
          "onset": 184.25,
          "duration": 0.25,
          "velocity": 100
        },
        {
          "pitch": 66,
          "onset": 184.25,
          "duration": 0.25,
          "velocity": 100
        },
        {
          "pitch": 56,
          "onset": 184.5,
          "duration": 0.25,
          "velocity": 100
        },
        {
          "pitch": 64,
          "onset": 184.5,
          "duration": 0.25,
          "velocity": 100
        },
        {
          "pitch": 59,
          "onset": 184.75,
          "duration": 0.25,
          "velocity": 100
        },
        {
          "pitch": 68,
          "onset": 184.75,
          "duration": 0.25,
          "velocity": 100
        },
        {
          "pitch": 57,
          "onset": 185.0,
          "duration": 0.25,
          "velocity": 100
        },
        {
          "pitch": 66,
          "onset": 185.0,
          "duration": 0.25,
          "velocity": 100
        },
        {
          "pitch": 61,
          "onset": 185.25,
          "duration": 0.25,
          "velocity": 100
        },
        {
          "pitch": 69,
          "onset": 185.25,
          "duration": 0.25,
          "velocity": 100
        },
        {
          "pitch": 59,
          "onset": 185.5,
          "duration": 0.5,
          "velocity": 100
        },
        {
          "pitch": 68,
          "onset": 185.5,
          "duration": 0.25,
          "velocity": 100
        },
        {
          "pitch": 71,
          "onset": 185.75,
          "duration": 0.25,
          "velocity": 100
        },
        {
          "pitch": 64,
          "onset": 186.0,
          "duration": 0.25,
          "velocity": 100
        },
        {
          "pitch": 69,
          "onset": 186.0,
          "duration": 1.75,
          "velocity": 100
        },
        {
          "pitch": 69,
          "onset": 186.0,
          "duration": 0.5,
          "velocity": 100
        },
        {
          "pitch": 62,
          "onset": 186.25,
          "duration": 0.25,
          "velocity": 100
        },
        {
          "pitch": 57,
          "onset": 186.5,
          "duration": 0.5,
          "velocity": 100
        },
        {
          "pitch": 61,
          "onset": 186.5,
          "duration": 0.25,
          "velocity": 100
        },
        {
          "pitch": 62,
          "onset": 186.75,
          "duration": 0.25,
          "velocity": 100
        },
        {
          "pitch": 61,
          "onset": 187.0,
          "duration": 0.5,
          "velocity": 100
        },
        {
          "pitch": 64,
          "onset": 187.0,
          "duration": 0.25,
          "velocity": 100
        },
        {
          "pitch": 68,
          "onset": 187.25,
          "duration": 0.25,
          "velocity": 100
        },
        {
          "pitch": 63,
          "onset": 187.5,
          "duration": 0.5,
          "velocity": 100
        },
        {
          "pitch": 66,
          "onset": 187.5,
          "duration": 0.25,
          "velocity": 100
        },
        {
          "pitch": 73,
          "onset": 187.75,
          "duration": 0.125,
          "velocity": 100
        },
        {
          "pitch": 71,
          "onset": 187.875,
          "duration": 0.125,
          "velocity": 100
        },
        {
          "pitch": 64,
          "onset": 188.0,
          "duration": 0.5,
          "velocity": 100
        },
        {
          "pitch": 68,
          "onset": 188.0,
          "duration": 0.25,
          "velocity": 100
        },
        {
          "pitch": 71,
          "onset": 188.0,
          "duration": 0.625,
          "velocity": 100
        },
        {
          "pitch": 66,
          "onset": 188.25,
          "duration": 0.25,
          "velocity": 100
        },
        {
          "pitch": 64,
          "onset": 188.5,
          "duration": 0.25,
          "velocity": 100
        },
        {
          "pitch": 68,
          "onset": 188.5,
          "duration": 0.5,
          "velocity": 100
        },
        {
          "pitch": 69,
          "onset": 188.625,
          "duration": 0.0625,
          "velocity": 100
        },
        {
          "pitch": 68,
          "onset": 188.6875,
          "duration": 0.0625,
          "velocity": 100
        },
        {
          "pitch": 62,
          "onset": 188.75,
          "duration": 0.25,
          "velocity": 100
        },
        {
          "pitch": 69,
          "onset": 188.75,
          "duration": 0.125,
          "velocity": 100
        },
        {
          "pitch": 71,
          "onset": 188.875,
          "duration": 0.125,
          "velocity": 100
        },
        {
          "pitch": 61,
          "onset": 189.0,
          "duration": 0.5,
          "velocity": 100
        },
        {
          "pitch": 64,
          "onset": 189.0,
          "duration": 0.5,
          "velocity": 100
        },
        {
          "pitch": 73,
          "onset": 189.0,
          "duration": 0.125,
          "velocity": 100
        },
        {
          "pitch": 74,
          "onset": 189.125,
          "duration": 0.125,
          "velocity": 100
        },
        {
          "pitch": 73,
          "onset": 189.25,
          "duration": 0.125,
          "velocity": 100
        },
        {
          "pitch": 71,
          "onset": 189.375,
          "duration": 0.125,
          "velocity": 100
        },
        {
          "pitch": 52,
          "onset": 189.5,
          "duration": 0.5,
          "velocity": 100
        },
        {
          "pitch": 61,
          "onset": 189.5,
          "duration": 0.5,
          "velocity": 100
        },
        {
          "pitch": 69,
          "onset": 189.5,
          "duration": 0.125,
          "velocity": 100
        },
        {
          "pitch": 73,
          "onset": 189.625,
          "duration": 0.125,
          "velocity": 100
        },
        {
          "pitch": 71,
          "onset": 189.75,
          "duration": 0.125,
          "velocity": 100
        },
        {
          "pitch": 74,
          "onset": 189.875,
          "duration": 0.0625,
          "velocity": 100
        },
        {
          "pitch": 73,
          "onset": 189.9375,
          "duration": 0.0625,
          "velocity": 100
        },
        {
          "pitch": 54,
          "onset": 190.0,
          "duration": 0.25,
          "velocity": 100
        },
        {
          "pitch": 57,
          "onset": 190.0,
          "duration": 0.5,
          "velocity": 100
        },
        {
          "pitch": 74,
          "onset": 190.0,
          "duration": 0.125,
          "velocity": 100
        },
        {
          "pitch": 78,
          "onset": 190.125,
          "duration": 0.125,
          "velocity": 100
        },
        {
          "pitch": 61,
          "onset": 190.25,
          "duration": 0.25,
          "velocity": 100
        },
        {
          "pitch": 76,
          "onset": 190.25,
          "duration": 0.125,
          "velocity": 100
        },
        {
          "pitch": 74,
          "onset": 190.375,
          "duration": 0.125,
          "velocity": 100
        },
        {
          "pitch": 66,
          "onset": 190.5,
          "duration": 1.0,
          "velocity": 100
        },
        {
          "pitch": 73,
          "onset": 190.5,
          "duration": 0.125,
          "velocity": 100
        },
        {
          "pitch": 76,
          "onset": 190.625,
          "duration": 0.125,
          "velocity": 100
        },
        {
          "pitch": 64,
          "onset": 190.75,
          "duration": 0.25,
          "velocity": 100
        },
        {
          "pitch": 74,
          "onset": 190.75,
          "duration": 0.125,
          "velocity": 100
        },
        {
          "pitch": 73,
          "onset": 190.875,
          "duration": 0.125,
          "velocity": 100
        },
        {
          "pitch": 62,
          "onset": 191.0,
          "duration": 0.125,
          "velocity": 100
        },
        {
          "pitch": 71,
          "onset": 191.0,
          "duration": 0.125,
          "velocity": 100
        },
        {
          "pitch": 61,
          "onset": 191.125,
          "duration": 0.125,
          "velocity": 100
        },
        {
          "pitch": 69,
          "onset": 191.125,
          "duration": 0.125,
          "velocity": 100
        },
        {
          "pitch": 59,
          "onset": 191.25,
          "duration": 0.125,
          "velocity": 100
        },
        {
          "pitch": 68,
          "onset": 191.25,
          "duration": 0.125,
          "velocity": 100
        },
        {
          "pitch": 61,
          "onset": 191.375,
          "duration": 0.125,
          "velocity": 100
        },
        {
          "pitch": 69,
          "onset": 191.375,
          "duration": 0.125,
          "velocity": 100
        },
        {
          "pitch": 62,
          "onset": 191.5,
          "duration": 0.25,
          "velocity": 100
        },
        {
          "pitch": 65,
          "onset": 191.5,
          "duration": 0.5,
          "velocity": 100
        },
        {
          "pitch": 71,
          "onset": 191.5,
          "duration": 0.125,
          "velocity": 100
        },
        {
          "pitch": 74,
          "onset": 191.625,
          "duration": 0.125,
          "velocity": 100
        },
        {
          "pitch": 59,
          "onset": 191.75,
          "duration": 0.25,
          "velocity": 100
        },
        {
          "pitch": 73,
          "onset": 191.75,
          "duration": 0.125,
          "velocity": 100
        },
        {
          "pitch": 71,
          "onset": 191.875,
          "duration": 0.125,
          "velocity": 100
        },
        {
          "pitch": 61,
          "onset": 192.0,
          "duration": 0.25,
          "velocity": 100
        },
        {
          "pitch": 66,
          "onset": 192.0,
          "duration": 2.25,
          "velocity": 100
        },
        {
          "pitch": 69,
          "onset": 192.0,
          "duration": 1.125,
          "velocity": 100
        },
        {
          "pitch": 57,
          "onset": 192.25,
          "duration": 0.25,
          "velocity": 100
        },
        {
          "pitch": 56,
          "onset": 192.5,
          "duration": 0.25,
          "velocity": 100
        },
        {
          "pitch": 57,
          "onset": 192.75,
          "duration": 0.25,
          "velocity": 100
        },
        {
          "pitch": 59,
          "onset": 193.0,
          "duration": 1.9688,
          "velocity": 100
        },
        {
          "pitch": 68,
          "onset": 193.125,
          "duration": 0.125,
          "velocity": 100
        },
        {
          "pitch": 66,
          "onset": 193.25,
          "duration": 0.125,
          "velocity": 100
        },
        {
          "pitch": 64,
          "onset": 193.375,
          "duration": 0.125,
          "velocity": 100
        },
        {
          "pitch": 62,
          "onset": 193.5,
          "duration": 0.125,
          "velocity": 100
        },
        {
          "pitch": 61,
          "onset": 193.625,
          "duration": 0.125,
          "velocity": 100
        },
        {
          "pitch": 62,
          "onset": 193.75,
          "duration": 0.125,
          "velocity": 100
        },
        {
          "pitch": 59,
          "onset": 193.875,
          "duration": 0.0625,
          "velocity": 100
        },
        {
          "pitch": 71,
          "onset": 193.9375,
          "duration": 0.0625,
          "velocity": 100
        },
        {
          "pitch": 69,
          "onset": 194.0,
          "duration": 0.125,
          "velocity": 100
        },
        {
          "pitch": 68,
          "onset": 194.125,
          "duration": 0.125,
          "velocity": 100
        },
        {
          "pitch": 64,
          "onset": 194.25,
          "duration": 0.25,
          "velocity": 100
        },
        {
          "pitch": 66,
          "onset": 194.25,
          "duration": 0.125,
          "velocity": 100
        },
        {
          "pitch": 68,
          "onset": 194.375,
          "duration": 0.125,
          "velocity": 100
        },
        {
          "pitch": 62,
          "onset": 194.5,
          "duration": 0.25,
          "velocity": 100
        },
        {
          "pitch": 68,
          "onset": 194.5,
          "duration": 0.0625,
          "velocity": 100
        },
        {
          "pitch": 69,
          "onset": 194.5625,
          "duration": 0.0625,
          "velocity": 100
        },
        {
          "pitch": 68,
          "onset": 194.625,
          "duration": 0.0625,
          "velocity": 100
        },
        {
          "pitch": 69,
          "onset": 194.6875,
          "duration": 0.0625,
          "velocity": 100
        },
        {
          "pitch": 61,
          "onset": 194.75,
          "duration": 0.25,
          "velocity": 100
        },
        {
          "pitch": 68,
          "onset": 194.75,
          "duration": 0.0625,
          "velocity": 100
        },
        {
          "pitch": 69,
          "onset": 194.8125,
          "duration": 0.0625,
          "velocity": 100
        },
        {
          "pitch": 68,
          "onset": 194.875,
          "duration": 0.0625,
          "velocity": 100
        },
        {
          "pitch": 69,
          "onset": 194.9375,
          "duration": 0.0625,
          "velocity": 100
        },
        {
          "pitch": 59,
          "onset": 195.0,
          "duration": 0.5,
          "velocity": 100
        },
        {
          "pitch": 68,
          "onset": 195.0,
          "duration": 0.0625,
          "velocity": 100
        },
        {
          "pitch": 69,
          "onset": 195.0625,
          "duration": 0.0625,
          "velocity": 100
        },
        {
          "pitch": 68,
          "onset": 195.125,
          "duration": 0.0625,
          "velocity": 100
        },
        {
          "pitch": 69,
          "onset": 195.1875,
          "duration": 0.0625,
          "velocity": 100
        },
        {
          "pitch": 62,
          "onset": 195.25,
          "duration": 0.25,
          "velocity": 100
        },
        {
          "pitch": 68,
          "onset": 195.25,
          "duration": 0.5,
          "velocity": 100
        },
        {
          "pitch": 61,
          "onset": 195.5,
          "duration": 0.25,
          "velocity": 100
        },
        {
          "pitch": 64,
          "onset": 195.5,
          "duration": 1.5,
          "velocity": 100
        },
        {
          "pitch": 59,
          "onset": 195.75,
          "duration": 0.25,
          "velocity": 100
        },
        {
          "pitch": 66,
          "onset": 195.75,
          "duration": 0.125,
          "velocity": 100
        },
        {
          "pitch": 68,
          "onset": 195.875,
          "duration": 0.125,
          "velocity": 100
        },
        {
          "pitch": 57,
          "onset": 196.0,
          "duration": 0.25,
          "velocity": 100
        },
        {
          "pitch": 69,
          "onset": 196.0,
          "duration": 8.125,
          "velocity": 100
        },
        {
          "pitch": 59,
          "onset": 196.25,
          "duration": 0.25,
          "velocity": 100
        },
        {
          "pitch": 57,
          "onset": 196.5,
          "duration": 0.25,
          "velocity": 100
        },
        {
          "pitch": 55,
          "onset": 196.75,
          "duration": 0.25,
          "velocity": 100
        },
        {
          "pitch": 54,
          "onset": 197.0,
          "duration": 0.25,
          "velocity": 100
        },
        {
          "pitch": 62,
          "onset": 197.0,
          "duration": 0.5,
          "velocity": 100
        },
        {
          "pitch": 55,
          "onset": 197.25,
          "duration": 0.25,
          "velocity": 100
        },
        {
          "pitch": 57,
          "onset": 197.5,
          "duration": 0.125,
          "velocity": 100
        },
        {
          "pitch": 61,
          "onset": 197.5,
          "duration": 0.5,
          "velocity": 100
        },
        {
          "pitch": 55,
          "onset": 197.625,
          "duration": 0.125,
          "velocity": 100
        },
        {
          "pitch": 54,
          "onset": 197.75,
          "duration": 0.125,
          "velocity": 100
        },
        {
          "pitch": 55,
          "onset": 197.875,
          "duration": 0.125,
          "velocity": 100
        },
        {
          "pitch": 57,
          "onset": 198.0,
          "duration": 2.25,
          "velocity": 100
        },
        {
          "pitch": 62,
          "onset": 198.0,
          "duration": 0.25,
          "velocity": 100
        },
        {
          "pitch": 61,
          "onset": 198.25,
          "duration": 0.25,
          "velocity": 100
        },
        {
          "pitch": 62,
          "onset": 198.5,
          "duration": 0.25,
          "velocity": 100
        },
        {
          "pitch": 64,
          "onset": 198.75,
          "duration": 0.25,
          "velocity": 100
        },
        {
          "pitch": 66,
          "onset": 199.0,
          "duration": 0.25,
          "velocity": 100
        },
        {
          "pitch": 67,
          "onset": 199.25,
          "duration": 0.25,
          "velocity": 100
        },
        {
          "pitch": 69,
          "onset": 199.5,
          "duration": 0.125,
          "velocity": 100
        },
        {
          "pitch": 67,
          "onset": 199.625,
          "duration": 0.125,
          "velocity": 100
        },
        {
          "pitch": 66,
          "onset": 199.75,
          "duration": 0.125,
          "velocity": 100
        },
        {
          "pitch": 67,
          "onset": 199.875,
          "duration": 0.125,
          "velocity": 100
        },
        {
          "pitch": 69,
          "onset": 200.0,
          "duration": 0.75,
          "velocity": 100
        },
        {
          "pitch": 57,
          "onset": 200.25,
          "duration": 0.25,
          "velocity": 100
        },
        {
          "pitch": 59,
          "onset": 200.5,
          "duration": 0.25,
          "velocity": 100
        },
        {
          "pitch": 61,
          "onset": 200.75,
          "duration": 0.25,
          "velocity": 100
        },
        {
          "pitch": 67,
          "onset": 200.75,
          "duration": 0.25,
          "velocity": 100
        },
        {
          "pitch": 62,
          "onset": 201.0,
          "duration": 1.25,
          "velocity": 100
        },
        {
          "pitch": 66,
          "onset": 201.0,
          "duration": 0.0625,
          "velocity": 100
        },
        {
          "pitch": 67,
          "onset": 201.0625,
          "duration": 0.0625,
          "velocity": 100
        },
        {
          "pitch": 66,
          "onset": 201.125,
          "duration": 0.0625,
          "velocity": 100
        },
        {
          "pitch": 67,
          "onset": 201.1875,
          "duration": 0.0625,
          "velocity": 100
        },
        {
          "pitch": 66,
          "onset": 201.25,
          "duration": 1.0,
          "velocity": 100
        },
        {
          "pitch": 62,
          "onset": 202.25,
          "duration": 0.25,
          "velocity": 100
        },
        {
          "pitch": 66,
          "onset": 202.25,
          "duration": 0.25,
          "velocity": 100
        },
        {
          "pitch": 61,
          "onset": 202.5,
          "duration": 0.25,
          "velocity": 100
        },
        {
          "pitch": 64,
          "onset": 202.5,
          "duration": 0.25,
          "velocity": 100
        },
        {
          "pitch": 59,
          "onset": 202.75,
          "duration": 0.25,
          "velocity": 100
        },
        {
          "pitch": 62,
          "onset": 202.75,
          "duration": 0.25,
          "velocity": 100
        },
        {
          "pitch": 61,
          "onset": 203.0,
          "duration": 0.5,
          "velocity": 100
        },
        {
          "pitch": 64,
          "onset": 203.0,
          "duration": 0.5,
          "velocity": 100
        },
        {
          "pitch": 60,
          "onset": 203.5,
          "duration": 0.5,
          "velocity": 100
        },
        {
          "pitch": 63,
          "onset": 203.5,
          "duration": 0.25,
          "velocity": 100
        },
        {
          "pitch": 64,
          "onset": 203.75,
          "duration": 0.25,
          "velocity": 100
        },
        {
          "pitch": 59,
          "onset": 204.0,
          "duration": 1.0,
          "velocity": 100
        },
        {
          "pitch": 66,
          "onset": 204.0,
          "duration": 1.0,
          "velocity": 100
        },
        {
          "pitch": 68,
          "onset": 204.125,
          "duration": 0.125,
          "velocity": 100
        },
        {
          "pitch": 66,
          "onset": 204.25,
          "duration": 0.125,
          "velocity": 100
        },
        {
          "pitch": 68,
          "onset": 204.375,
          "duration": 0.125,
          "velocity": 100
        },
        {
          "pitch": 69,
          "onset": 204.5,
          "duration": 0.125,
          "velocity": 100
        },
        {
          "pitch": 71,
          "onset": 204.625,
          "duration": 0.125,
          "velocity": 100
        },
        {
          "pitch": 72,
          "onset": 204.75,
          "duration": 0.125,
          "velocity": 100
        },
        {
          "pitch": 71,
          "onset": 204.875,
          "duration": 0.125,
          "velocity": 100
        },
        {
          "pitch": 69,
          "onset": 205.0,
          "duration": 0.125,
          "velocity": 100
        },
        {
          "pitch": 68,
          "onset": 205.125,
          "duration": 0.125,
          "velocity": 100
        },
        {
          "pitch": 66,
          "onset": 205.25,
          "duration": 0.125,
          "velocity": 100
        },
        {
          "pitch": 64,
          "onset": 205.375,
          "duration": 0.125,
          "velocity": 100
        },
        {
          "pitch": 63,
          "onset": 205.5,
          "duration": 0.125,
          "velocity": 100
        },
        {
          "pitch": 60,
          "onset": 205.625,
          "duration": 0.125,
          "velocity": 100
        },
        {
          "pitch": 59,
          "onset": 205.75,
          "duration": 0.125,
          "velocity": 100
        },
        {
          "pitch": 57,
          "onset": 205.875,
          "duration": 0.125,
          "velocity": 100
        },
        {
          "pitch": 78,
          "onset": 206.0,
          "duration": 0.5,
          "velocity": 100
        },
        {
          "pitch": 76,
          "onset": 206.75,
          "duration": 0.25,
          "velocity": 100
        },
        {
          "pitch": 75,
          "onset": 207.0,
          "duration": 0.125,
          "velocity": 100
        },
        {
          "pitch": 78,
          "onset": 207.125,
          "duration": 0.125,
          "velocity": 100
        },
        {
          "pitch": 81,
          "onset": 207.25,
          "duration": 0.125,
          "velocity": 100
        },
        {
          "pitch": 80,
          "onset": 207.375,
          "duration": 0.125,
          "velocity": 100
        },
        {
          "pitch": 78,
          "onset": 207.5,
          "duration": 0.125,
          "velocity": 100
        },
        {
          "pitch": 76,
          "onset": 207.625,
          "duration": 0.125,
          "velocity": 100
        },
        {
          "pitch": 75,
          "onset": 207.75,
          "duration": 0.125,
          "velocity": 100
        },
        {
          "pitch": 72,
          "onset": 207.875,
          "duration": 0.125,
          "velocity": 100
        },
        {
          "pitch": 71,
          "onset": 208.0,
          "duration": 0.25,
          "velocity": 100
        },
        {
          "pitch": 72,
          "onset": 208.25,
          "duration": 0.125,
          "velocity": 100
        },
        {
          "pitch": 71,
          "onset": 208.375,
          "duration": 0.125,
          "velocity": 100
        },
        {
          "pitch": 69,
          "onset": 208.5,
          "duration": 0.125,
          "velocity": 100
        },
        {
          "pitch": 71,
          "onset": 208.625,
          "duration": 0.125,
          "velocity": 100
        },
        {
          "pitch": 68,
          "onset": 208.75,
          "duration": 0.25,
          "velocity": 100
        },
        {
          "pitch": 69,
          "onset": 209.0,
          "duration": 0.0625,
          "velocity": 100
        },
        {
          "pitch": 68,
          "onset": 209.0625,
          "duration": 0.0625,
          "velocity": 100
        },
        {
          "pitch": 69,
          "onset": 209.125,
          "duration": 1.0,
          "velocity": 100
        },
        {
          "pitch": 60,
          "onset": 209.5,
          "duration": 0.5,
          "velocity": 100
        },
        {
          "pitch": 66,
          "onset": 209.5,
          "duration": 0.5,
          "velocity": 100
        },
        {
          "pitch": 59,
          "onset": 210.0,
          "duration": 0.5,
          "velocity": 100
        },
        {
          "pitch": 64,
          "onset": 210.0,
          "duration": 7.0,
          "velocity": 100
        },
        {
          "pitch": 64,
          "onset": 210.125,
          "duration": 0.125,
          "velocity": 100
        },
        {
          "pitch": 66,
          "onset": 210.25,
          "duration": 0.125,
          "velocity": 100
        },
        {
          "pitch": 68,
          "onset": 210.375,
          "duration": 0.125,
          "velocity": 100
        },
        {
          "pitch": 57,
          "onset": 210.5,
          "duration": 0.5,
          "velocity": 100
        },
        {
          "pitch": 69,
          "onset": 210.5,
          "duration": 0.125,
          "velocity": 100
        },
        {
          "pitch": 71,
          "onset": 210.625,
          "duration": 0.125,
          "velocity": 100
        },
        {
          "pitch": 73,
          "onset": 210.75,
          "duration": 0.125,
          "velocity": 100
        },
        {
          "pitch": 74,
          "onset": 210.875,
          "duration": 0.0625,
          "velocity": 100
        },
        {
          "pitch": 71,
          "onset": 210.9375,
          "duration": 0.0625,
          "velocity": 100
        },
        {
          "pitch": 59,
          "onset": 211.0,
          "duration": 0.25,
          "velocity": 100
        },
        {
          "pitch": 71,
          "onset": 211.0,
          "duration": 0.0625,
          "velocity": 100
        },
        {
          "pitch": 69,
          "onset": 211.0625,
          "duration": 0.0625,
          "velocity": 100
        },
        {
          "pitch": 68,
          "onset": 211.125,
          "duration": 0.0625,
          "velocity": 100
        },
        {
          "pitch": 69,
          "onset": 211.1875,
          "duration": 0.0625,
          "velocity": 100
        },
        {
          "pitch": 61,
          "onset": 211.25,
          "duration": 0.25,
          "velocity": 100
        },
        {
          "pitch": 68,
          "onset": 211.25,
          "duration": 0.5,
          "velocity": 100
        },
        {
          "pitch": 62,
          "onset": 211.5,
          "duration": 0.625,
          "velocity": 100
        },
        {
          "pitch": 69,
          "onset": 211.75,
          "duration": 0.25,
          "velocity": 100
        },
        {
          "pitch": 69,
          "onset": 212.0,
          "duration": 5.0,
          "velocity": 100
        },
        {
          "pitch": 61,
          "onset": 212.125,
          "duration": 0.125,
          "velocity": 100
        },
        {
          "pitch": 59,
          "onset": 212.25,
          "duration": 0.125,
          "velocity": 100
        },
        {
          "pitch": 57,
          "onset": 212.375,
          "duration": 0.125,
          "velocity": 100
        },
        {
          "pitch": 56,
          "onset": 212.5,
          "duration": 0.125,
          "velocity": 100
        },
        {
          "pitch": 54,
          "onset": 212.625,
          "duration": 0.125,
          "velocity": 100
        },
        {
          "pitch": 52,
          "onset": 212.75,
          "duration": 0.125,
          "velocity": 100
        },
        {
          "pitch": 62,
          "onset": 212.875,
          "duration": 0.125,
          "velocity": 100
        },
        {
          "pitch": 62,
          "onset": 213.0,
          "duration": 0.25,
          "velocity": 100
        },
        {
          "pitch": 61,
          "onset": 213.25,
          "duration": 0.0625,
          "velocity": 100
        },
        {
          "pitch": 62,
          "onset": 213.3125,
          "duration": 0.0625,
          "velocity": 100
        },
        {
          "pitch": 61,
          "onset": 213.375,
          "duration": 0.375,
          "velocity": 100
        },
        {
          "pitch": 62,
          "onset": 213.75,
          "duration": 0.125,
          "velocity": 100
        },
        {
          "pitch": 59,
          "onset": 213.875,
          "duration": 0.125,
          "velocity": 100
        },
        {
          "pitch": 59,
          "onset": 214.0,
          "duration": 0.25,
          "velocity": 100
        },
        {
          "pitch": 61,
          "onset": 214.25,
          "duration": 0.0625,
          "velocity": 100
        },
        {
          "pitch": 59,
          "onset": 214.3125,
          "duration": 0.0625,
          "velocity": 100
        },
        {
          "pitch": 61,
          "onset": 214.375,
          "duration": 2.625,
          "velocity": 100
        },
        {
          "pitch": 69,
          "onset": 219.0,
          "duration": 0.25,
          "velocity": 1
        }
      ]
    },
    {
      "role": "pedal",
      "notes": [
        {
          "pitch": 37,
          "onset": 8.5,
          "duration": 0.5,
          "velocity": 100
        },
        {
          "pitch": 38,
          "onset": 9.0,
          "duration": 0.5,
          "velocity": 100
        },
        {
          "pitch": 40,
          "onset": 9.5,
          "duration": 0.5,
          "velocity": 100
        },
        {
          "pitch": 33,
          "onset": 10.0,
          "duration": 0.5,
          "velocity": 100
        },
        {
          "pitch": 45,
          "onset": 10.5,
          "duration": 0.5,
          "velocity": 100
        },
        {
          "pitch": 44,
          "onset": 11.0,
          "duration": 0.5,
          "velocity": 100
        },
        {
          "pitch": 42,
          "onset": 11.5,
          "duration": 0.5,
          "velocity": 100
        },
        {
          "pitch": 40,
          "onset": 12.0,
          "duration": 1.0,
          "velocity": 100
        },
        {
          "pitch": 42,
          "onset": 13.0,
          "duration": 1.0,
          "velocity": 100
        },
        {
          "pitch": 44,
          "onset": 14.0,
          "duration": 1.0,
          "velocity": 100
        },
        {
          "pitch": 45,
          "onset": 15.0,
          "duration": 0.5,
          "velocity": 100
        },
        {
          "pitch": 47,
          "onset": 15.5,
          "duration": 0.5,
          "velocity": 100
        },
        {
          "pitch": 49,
          "onset": 16.0,
          "duration": 0.5,
          "velocity": 100
        },
        {
          "pitch": 32,
          "onset": 16.5,
          "duration": 0.5,
          "velocity": 100
        },
        {
          "pitch": 33,
          "onset": 17.0,
          "duration": 0.5,
          "velocity": 100
        },
        {
          "pitch": 35,
          "onset": 17.5,
          "duration": 0.5,
          "velocity": 100
        },
        {
          "pitch": 28,
          "onset": 18.0,
          "duration": 0.5,
          "velocity": 100
        },
        {
          "pitch": 40,
          "onset": 18.5,
          "duration": 0.5,
          "velocity": 100
        },
        {
          "pitch": 38,
          "onset": 19.0,
          "duration": 0.5,
          "velocity": 100
        },
        {
          "pitch": 37,
          "onset": 19.5,
          "duration": 0.5,
          "velocity": 100
        },
        {
          "pitch": 35,
          "onset": 20.0,
          "duration": 1.0,
          "velocity": 100
        },
        {
          "pitch": 35,
          "onset": 21.5,
          "duration": 0.5,
          "velocity": 100
        },
        {
          "pitch": 30,
          "onset": 22.0,
          "duration": 0.5,
          "velocity": 100
        },
        {
          "pitch": 32,
          "onset": 22.5,
          "duration": 0.5,
          "velocity": 100
        },
        {
          "pitch": 33,
          "onset": 23.0,
          "duration": 0.5,
          "velocity": 100
        },
        {
          "pitch": 35,
          "onset": 23.5,
          "duration": 0.5,
          "velocity": 100
        },
        {
          "pitch": 37,
          "onset": 24.0,
          "duration": 0.5,
          "velocity": 100
        },
        {
          "pitch": 42,
          "onset": 24.5,
          "duration": 0.5,
          "velocity": 100
        },
        {
          "pitch": 38,
          "onset": 25.0,
          "duration": 0.5,
          "velocity": 100
        },
        {
          "pitch": 35,
          "onset": 25.5,
          "duration": 0.5,
          "velocity": 100
        },
        {
          "pitch": 32,
          "onset": 26.0,
          "duration": 0.5,
          "velocity": 100
        },
        {
          "pitch": 40,
          "onset": 26.5,
          "duration": 1.0,
          "velocity": 100
        },
        {
          "pitch": 38,
          "onset": 27.5,
          "duration": 0.5,
          "velocity": 100
        },
        {
          "pitch": 37,
          "onset": 28.0,
          "duration": 1.0,
          "velocity": 100
        },
        {
          "pitch": 35,
          "onset": 29.0,
          "duration": 1.0,
          "velocity": 100
        },
        {
          "pitch": 37,
          "onset": 30.0,
          "duration": 1.0,
          "velocity": 100
        },
        {
          "pitch": 38,
          "onset": 31.0,
          "duration": 0.5,
          "velocity": 100
        },
        {
          "pitch": 40,
          "onset": 31.5,
          "duration": 0.5,
          "velocity": 100
        },
        {
          "pitch": 42,
          "onset": 32.0,
          "duration": 0.5,
          "velocity": 100
        },
        {
          "pitch": 37,
          "onset": 32.5,
          "duration": 0.5,
          "velocity": 100
        },
        {
          "pitch": 38,
          "onset": 33.0,
          "duration": 0.5,
          "velocity": 100
        },
        {
          "pitch": 40,
          "onset": 33.5,
          "duration": 0.5,
          "velocity": 100
        },
        {
          "pitch": 33,
          "onset": 34.0,
          "duration": 5.9688,
          "velocity": 100
        },
        {
          "pitch": 42,
          "onset": 40.5,
          "duration": 0.5,
          "velocity": 100
        },
        {
          "pitch": 38,
          "onset": 41.0,
          "duration": 0.5,
          "velocity": 100
        },
        {
          "pitch": 35,
          "onset": 41.5,
          "duration": 0.5,
          "velocity": 100
        },
        {
          "pitch": 32,
          "onset": 42.0,
          "duration": 0.5,
          "velocity": 100
        },
        {
          "pitch": 37,
          "onset": 42.5,
          "duration": 1.0,
          "velocity": 100
        },
        {
          "pitch": 35,
          "onset": 43.5,
          "duration": 0.5,
          "velocity": 100
        },
        {
          "pitch": 33,
          "onset": 44.0,
          "duration": 0.5,
          "velocity": 100
        },
        {
          "pitch": 45,
          "onset": 44.5,
          "duration": 0.5,
          "velocity": 100
        },
        {
          "pitch": 44,
          "onset": 45.0,
          "duration": 0.5,
          "velocity": 100
        },
        {
          "pitch": 42,
          "onset": 45.5,
          "duration": 0.5,
          "velocity": 100
        },
        {
          "pitch": 41,
          "onset": 46.0,
          "duration": 1.0,
          "velocity": 100
        },
        {
          "pitch": 42,
          "onset": 47.0,
          "duration": 0.5,
          "velocity": 100
        },
        {
          "pitch": 44,
          "onset": 47.5,
          "duration": 0.5,
          "velocity": 100
        },
        {
          "pitch": 45,
          "onset": 48.0,
          "duration": 0.5,
          "velocity": 100
        },
        {
          "pitch": 47,
          "onset": 48.5,
          "duration": 0.5,
          "velocity": 100
        },
        {
          "pitch": 49,
          "onset": 49.0,
          "duration": 0.5,
          "velocity": 100
        },
        {
          "pitch": 37,
          "onset": 49.5,
          "duration": 0.5,
          "velocity": 100
        },
        {
          "pitch": 30,
          "onset": 50.0,
          "duration": 1.0,
          "velocity": 100
        },
        {
          "pitch": 42,
          "onset": 52.5,
          "duration": 0.5,
          "velocity": 100
        },
        {
          "pitch": 38,
          "onset": 53.0,
          "duration": 0.5,
          "velocity": 100
        },
        {
          "pitch": 35,
          "onset": 53.5,
          "duration": 0.5,
          "velocity": 100
        },
        {
          "pitch": 32,
          "onset": 54.0,
          "duration": 0.5,
          "velocity": 100
        },
        {
          "pitch": 40,
          "onset": 54.5,
          "duration": 1.0,
          "velocity": 100
        },
        {
          "pitch": 38,
          "onset": 55.5,
          "duration": 0.5,
          "velocity": 100
        },
        {
          "pitch": 37,
          "onset": 56.0,
          "duration": 0.5,
          "velocity": 100
        },
        {
          "pitch": 45,
          "onset": 56.5,
          "duration": 0.5,
          "velocity": 100
        },
        {
          "pitch": 42,
          "onset": 57.0,
          "duration": 0.5,
          "velocity": 100
        },
        {
          "pitch": 38,
          "onset": 57.5,
          "duration": 0.5,
          "velocity": 100
        },
        {
          "pitch": 35,
          "onset": 58.0,
          "duration": 0.5,
          "velocity": 100
        },
        {
          "pitch": 37,
          "onset": 58.5,
          "duration": 0.5,
          "velocity": 100
        },
        {
          "pitch": 38,
          "onset": 59.0,
          "duration": 0.5,
          "velocity": 100
        },
        {
          "pitch": 40,
          "onset": 59.5,
          "duration": 0.5,
          "velocity": 100
        },
        {
          "pitch": 42,
          "onset": 60.0,
          "duration": 0.5,
          "velocity": 100
        },
        {
          "pitch": 43,
          "onset": 60.5,
          "duration": 0.5,
          "velocity": 100
        },
        {
          "pitch": 42,
          "onset": 61.0,
          "duration": 0.5,
          "velocity": 100
        },
        {
          "pitch": 40,
          "onset": 61.5,
          "duration": 0.5,
          "velocity": 100
        },
        {
          "pitch": 38,
          "onset": 62.0,
          "duration": 0.5,
          "velocity": 100
        },
        {
          "pitch": 40,
          "onset": 62.5,
          "duration": 0.5,
          "velocity": 100
        },
        {
          "pitch": 42,
          "onset": 63.0,
          "duration": 0.5,
          "velocity": 100
        },
        {
          "pitch": 38,
          "onset": 63.5,
          "duration": 0.5,
          "velocity": 100
        },
        {
          "pitch": 45,
          "onset": 64.0,
          "duration": 1.9688,
          "velocity": 100
        },
        {
          "pitch": 33,
          "onset": 66.0,
          "duration": 2.5,
          "velocity": 100
        },
        {
          "pitch": 37,
          "onset": 72.5,
          "duration": 0.5,
          "velocity": 100
        },
        {
          "pitch": 38,
          "onset": 73.0,
          "duration": 0.5,
          "velocity": 100
        },
        {
          "pitch": 40,
          "onset": 73.5,
          "duration": 0.5,
          "velocity": 100
        },
        {
          "pitch": 33,
          "onset": 74.0,
          "duration": 0.5,
          "velocity": 100
        },
        {
          "pitch": 45,
          "onset": 74.5,
          "duration": 0.5,
          "velocity": 100
        },
        {
          "pitch": 44,
          "onset": 75.0,
          "duration": 0.5,
          "velocity": 100
        },
        {
          "pitch": 42,
          "onset": 75.5,
          "duration": 0.5,
          "velocity": 100
        },
        {
          "pitch": 40,
          "onset": 76.0,
          "duration": 1.0,
          "velocity": 100
        },
        {
          "pitch": 42,
          "onset": 77.0,
          "duration": 1.0,
          "velocity": 100
        },
        {
          "pitch": 44,
          "onset": 78.0,
          "duration": 1.0,
          "velocity": 100
        },
        {
          "pitch": 45,
          "onset": 79.0,
          "duration": 0.5,
          "velocity": 100
        },
        {
          "pitch": 47,
          "onset": 79.5,
          "duration": 0.5,
          "velocity": 100
        },
        {
          "pitch": 49,
          "onset": 80.0,
          "duration": 0.5,
          "velocity": 100
        },
        {
          "pitch": 32,
          "onset": 80.5,
          "duration": 0.5,
          "velocity": 100
        },
        {
          "pitch": 33,
          "onset": 81.0,
          "duration": 0.5,
          "velocity": 100
        },
        {
          "pitch": 35,
          "onset": 81.5,
          "duration": 0.5,
          "velocity": 100
        },
        {
          "pitch": 28,
          "onset": 82.0,
          "duration": 0.5,
          "velocity": 100
        },
        {
          "pitch": 40,
          "onset": 82.5,
          "duration": 0.5,
          "velocity": 100
        },
        {
          "pitch": 38,
          "onset": 83.0,
          "duration": 0.5,
          "velocity": 100
        },
        {
          "pitch": 37,
          "onset": 83.5,
          "duration": 0.5,
          "velocity": 100
        },
        {
          "pitch": 35,
          "onset": 84.0,
          "duration": 1.0,
          "velocity": 100
        },
        {
          "pitch": 35,
          "onset": 85.5,
          "duration": 0.5,
          "velocity": 100
        },
        {
          "pitch": 30,
          "onset": 86.0,
          "duration": 0.5,
          "velocity": 100
        },
        {
          "pitch": 32,
          "onset": 86.5,
          "duration": 0.5,
          "velocity": 100
        },
        {
          "pitch": 33,
          "onset": 87.0,
          "duration": 0.5,
          "velocity": 100
        },
        {
          "pitch": 35,
          "onset": 87.5,
          "duration": 0.5,
          "velocity": 100
        },
        {
          "pitch": 37,
          "onset": 88.0,
          "duration": 0.5,
          "velocity": 100
        },
        {
          "pitch": 42,
          "onset": 88.5,
          "duration": 0.5,
          "velocity": 100
        },
        {
          "pitch": 38,
          "onset": 89.0,
          "duration": 0.5,
          "velocity": 100
        },
        {
          "pitch": 35,
          "onset": 89.5,
          "duration": 0.5,
          "velocity": 100
        },
        {
          "pitch": 32,
          "onset": 90.0,
          "duration": 0.5,
          "velocity": 100
        },
        {
          "pitch": 40,
          "onset": 90.5,
          "duration": 1.0,
          "velocity": 100
        },
        {
          "pitch": 38,
          "onset": 91.5,
          "duration": 0.5,
          "velocity": 100
        },
        {
          "pitch": 37,
          "onset": 92.0,
          "duration": 1.0,
          "velocity": 100
        },
        {
          "pitch": 35,
          "onset": 93.0,
          "duration": 1.0,
          "velocity": 100
        },
        {
          "pitch": 37,
          "onset": 94.0,
          "duration": 1.0,
          "velocity": 100
        },
        {
          "pitch": 38,
          "onset": 95.0,
          "duration": 0.5,
          "velocity": 100
        },
        {
          "pitch": 40,
          "onset": 95.5,
          "duration": 0.5,
          "velocity": 100
        },
        {
          "pitch": 42,
          "onset": 96.0,
          "duration": 0.5,
          "velocity": 100
        },
        {
          "pitch": 37,
          "onset": 96.5,
          "duration": 0.5,
          "velocity": 100
        },
        {
          "pitch": 38,
          "onset": 97.0,
          "duration": 0.5,
          "velocity": 100
        },
        {
          "pitch": 40,
          "onset": 97.5,
          "duration": 0.5,
          "velocity": 100
        },
        {
          "pitch": 33,
          "onset": 98.0,
          "duration": 5.9688,
          "velocity": 100
        },
        {
          "pitch": 42,
          "onset": 104.5,
          "duration": 0.5,
          "velocity": 100
        },
        {
          "pitch": 38,
          "onset": 105.0,
          "duration": 0.5,
          "velocity": 100
        },
        {
          "pitch": 35,
          "onset": 105.5,
          "duration": 0.5,
          "velocity": 100
        },
        {
          "pitch": 32,
          "onset": 106.0,
          "duration": 0.5,
          "velocity": 100
        },
        {
          "pitch": 37,
          "onset": 106.5,
          "duration": 1.0,
          "velocity": 100
        },
        {
          "pitch": 35,
          "onset": 107.5,
          "duration": 0.5,
          "velocity": 100
        },
        {
          "pitch": 33,
          "onset": 108.0,
          "duration": 0.5,
          "velocity": 100
        },
        {
          "pitch": 45,
          "onset": 108.5,
          "duration": 0.5,
          "velocity": 100
        },
        {
          "pitch": 44,
          "onset": 109.0,
          "duration": 0.5,
          "velocity": 100
        },
        {
          "pitch": 42,
          "onset": 109.5,
          "duration": 0.5,
          "velocity": 100
        },
        {
          "pitch": 41,
          "onset": 110.0,
          "duration": 1.0,
          "velocity": 100
        },
        {
          "pitch": 42,
          "onset": 111.0,
          "duration": 0.5,
          "velocity": 100
        },
        {
          "pitch": 44,
          "onset": 111.5,
          "duration": 0.5,
          "velocity": 100
        },
        {
          "pitch": 45,
          "onset": 112.0,
          "duration": 0.5,
          "velocity": 100
        },
        {
          "pitch": 47,
          "onset": 112.5,
          "duration": 0.5,
          "velocity": 100
        },
        {
          "pitch": 49,
          "onset": 113.0,
          "duration": 0.5,
          "velocity": 100
        },
        {
          "pitch": 37,
          "onset": 113.5,
          "duration": 0.5,
          "velocity": 100
        },
        {
          "pitch": 30,
          "onset": 114.0,
          "duration": 1.0,
          "velocity": 100
        },
        {
          "pitch": 42,
          "onset": 116.5,
          "duration": 0.5,
          "velocity": 100
        },
        {
          "pitch": 38,
          "onset": 117.0,
          "duration": 0.5,
          "velocity": 100
        },
        {
          "pitch": 35,
          "onset": 117.5,
          "duration": 0.5,
          "velocity": 100
        },
        {
          "pitch": 32,
          "onset": 118.0,
          "duration": 0.5,
          "velocity": 100
        },
        {
          "pitch": 40,
          "onset": 118.5,
          "duration": 1.0,
          "velocity": 100
        },
        {
          "pitch": 38,
          "onset": 119.5,
          "duration": 0.5,
          "velocity": 100
        },
        {
          "pitch": 37,
          "onset": 120.0,
          "duration": 0.5,
          "velocity": 100
        },
        {
          "pitch": 45,
          "onset": 120.5,
          "duration": 0.5,
          "velocity": 100
        },
        {
          "pitch": 42,
          "onset": 121.0,
          "duration": 0.5,
          "velocity": 100
        },
        {
          "pitch": 38,
          "onset": 121.5,
          "duration": 0.5,
          "velocity": 100
        },
        {
          "pitch": 35,
          "onset": 122.0,
          "duration": 0.5,
          "velocity": 100
        },
        {
          "pitch": 37,
          "onset": 122.5,
          "duration": 0.5,
          "velocity": 100
        },
        {
          "pitch": 38,
          "onset": 123.0,
          "duration": 0.5,
          "velocity": 100
        },
        {
          "pitch": 40,
          "onset": 123.5,
          "duration": 0.5,
          "velocity": 100
        },
        {
          "pitch": 42,
          "onset": 124.0,
          "duration": 0.5,
          "velocity": 100
        },
        {
          "pitch": 43,
          "onset": 124.5,
          "duration": 0.5,
          "velocity": 100
        },
        {
          "pitch": 42,
          "onset": 125.0,
          "duration": 0.5,
          "velocity": 100
        },
        {
          "pitch": 40,
          "onset": 125.5,
          "duration": 0.5,
          "velocity": 100
        },
        {
          "pitch": 38,
          "onset": 126.0,
          "duration": 0.5,
          "velocity": 100
        },
        {
          "pitch": 40,
          "onset": 126.5,
          "duration": 0.5,
          "velocity": 100
        },
        {
          "pitch": 42,
          "onset": 127.0,
          "duration": 0.5,
          "velocity": 100
        },
        {
          "pitch": 38,
          "onset": 127.5,
          "duration": 0.5,
          "velocity": 100
        },
        {
          "pitch": 45,
          "onset": 128.0,
          "duration": 1.9688,
          "velocity": 100
        },
        {
          "pitch": 33,
          "onset": 130.0,
          "duration": 2.0,
          "velocity": 100
        },
        {
          "pitch": 33,
          "onset": 133.0,
          "duration": 1.0,
          "velocity": 100
        },
        {
          "pitch": 35,
          "onset": 134.0,
          "duration": 1.0,
          "velocity": 100
        },
        {
          "pitch": 37,
          "onset": 135.0,
          "duration": 1.0,
          "velocity": 100
        },
        {
          "pitch": 38,
          "onset": 136.0,
          "duration": 1.0,
          "velocity": 100
        },
        {
          "pitch": 37,
          "onset": 137.0,
          "duration": 1.0,
          "velocity": 100
        },
        {
          "pitch": 35,
          "onset": 138.0,
          "duration": 1.0,
          "velocity": 100
        },
        {
          "pitch": 34,
          "onset": 139.0,
          "duration": 1.0,
          "velocity": 100
        },
        {
          "pitch": 35,
          "onset": 140.0,
          "duration": 0.5,
          "velocity": 100
        },
        {
          "pitch": 35,
          "onset": 140.5,
          "duration": 0.5,
          "velocity": 100
        },
        {
          "pitch": 37,
          "onset": 141.0,
          "duration": 0.5,
          "velocity": 100
        },
        {
          "pitch": 39,
          "onset": 141.5,
          "duration": 0.5,
          "velocity": 100
        },
        {
          "pitch": 40,
          "onset": 142.0,
          "duration": 0.5,
          "velocity": 100
        },
        {
          "pitch": 28,
          "onset": 142.5,
          "duration": 0.5,
          "velocity": 100
        },
        {
          "pitch": 30,
          "onset": 143.0,
          "duration": 0.5,
          "velocity": 100
        },
        {
          "pitch": 32,
          "onset": 143.5,
          "duration": 0.5,
          "velocity": 100
        },
        {
          "pitch": 33,
          "onset": 144.0,
          "duration": 0.5,
          "velocity": 100
        },
        {
          "pitch": 38,
          "onset": 144.5,
          "duration": 0.5,
          "velocity": 100
        },
        {
          "pitch": 35,
          "onset": 145.0,
          "duration": 0.5,
          "velocity": 100
        },
        {
          "pitch": 32,
          "onset": 145.5,
          "duration": 0.5,
          "velocity": 100
        },
        {
          "pitch": 28,
          "onset": 146.0,
          "duration": 0.5,
          "velocity": 100
        },
        {
          "pitch": 37,
          "onset": 146.5,
          "duration": 1.0,
          "velocity": 100
        },
        {
          "pitch": 35,
          "onset": 147.5,
          "duration": 0.5,
          "velocity": 100
        },
        {
          "pitch": 33,
          "onset": 148.0,
          "duration": 1.0,
          "velocity": 100
        },
        {
          "pitch": 32,
          "onset": 149.0,
          "duration": 1.0,
          "velocity": 100
        },
        {
          "pitch": 33,
          "onset": 150.0,
          "duration": 1.0,
          "velocity": 100
        },
        {
          "pitch": 35,
          "onset": 151.0,
          "duration": 0.5,
          "velocity": 100
        },
        {
          "pitch": 37,
          "onset": 151.5,
          "duration": 0.5,
          "velocity": 100
        },
        {
          "pitch": 38,
          "onset": 152.0,
          "duration": 0.5,
          "velocity": 100
        },
        {
          "pitch": 30,
          "onset": 152.5,
          "duration": 0.5,
          "velocity": 100
        },
        {
          "pitch": 32,
          "onset": 153.0,
          "duration": 0.5,
          "velocity": 100
        },
        {
          "pitch": 34,
          "onset": 153.5,
          "duration": 0.5,
          "velocity": 100
        },
        {
          "pitch": 35,
          "onset": 154.0,
          "duration": 0.5,
          "velocity": 100
        },
        {
          "pitch": 38,
          "onset": 154.5,
          "duration": 0.5,
          "velocity": 100
        },
        {
          "pitch": 43,
          "onset": 156.0,
          "duration": 0.5,
          "velocity": 100
        },
        {
          "pitch": 42,
          "onset": 157.0,
          "duration": 0.5,
          "velocity": 100
        },
        {
          "pitch": 30,
          "onset": 157.5,
          "duration": 0.5,
          "velocity": 100
        },
        {
          "pitch": 35,
          "onset": 158.0,
          "duration": 2.5,
          "velocity": 100
        },
        {
          "pitch": 47,
          "onset": 160.5,
          "duration": 0.5,
          "velocity": 100
        },
        {
          "pitch": 43,
          "onset": 161.0,
          "duration": 0.5,
          "velocity": 100
        },
        {
          "pitch": 40,
          "onset": 161.5,
          "duration": 0.5,
          "velocity": 100
        },
        {
          "pitch": 37,
          "onset": 162.0,
          "duration": 0.5,
          "velocity": 100
        },
        {
          "pitch": 45,
          "onset": 162.5,
          "duration": 1.0,
          "velocity": 100
        },
        {
          "pitch": 43,
          "onset": 163.5,
          "duration": 0.5,
          "velocity": 100
        },
        {
          "pitch": 42,
          "onset": 164.0,
          "duration": 0.5,
          "velocity": 100
        },
        {
          "pitch": 38,
          "onset": 164.5,
          "duration": 0.5,
          "velocity": 100
        },
        {
          "pitch": 35,
          "onset": 165.0,
          "duration": 0.5,
          "velocity": 100
        },
        {
          "pitch": 38,
          "onset": 165.5,
          "duration": 0.5,
          "velocity": 100
        },
        {
          "pitch": 40,
          "onset": 166.0,
          "duration": 0.5,
          "velocity": 100
        },
        {
          "pitch": 28,
          "onset": 166.5,
          "duration": 0.5,
          "velocity": 100
        },
        {
          "pitch": 30,
          "onset": 167.0,
          "duration": 0.5,
          "velocity": 100
        },
        {
          "pitch": 32,
          "onset": 167.5,
          "duration": 0.5,
          "velocity": 100
        },
        {
          "pitch": 33,
          "onset": 168.0,
          "duration": 1.0,
          "velocity": 100
        },
        {
          "pitch": 35,
          "onset": 169.0,
          "duration": 0.5,
          "velocity": 100
        },
        {
          "pitch": 47,
          "onset": 169.5,
          "duration": 0.5,
          "velocity": 100
        },
        {
          "pitch": 44,
          "onset": 170.0,
          "duration": 0.5,
          "velocity": 100
        },
        {
          "pitch": 40,
          "onset": 170.5,
          "duration": 0.5,
          "velocity": 100
        },
        {
          "pitch": 42,
          "onset": 171.0,
          "duration": 0.5,
          "velocity": 100
        },
        {
          "pitch": 44,
          "onset": 171.5,
          "duration": 0.5,
          "velocity": 100
        },
        {
          "pitch": 45,
          "onset": 172.0,
          "duration": 0.5,
          "velocity": 100
        },
        {
          "pitch": 42,
          "onset": 172.5,
          "duration": 0.5,
          "velocity": 100
        },
        {
          "pitch": 38,
          "onset": 173.0,
          "duration": 0.5,
          "velocity": 100
        },
        {
          "pitch": 35,
          "onset": 173.5,
          "duration": 0.5,
          "velocity": 100
        },
        {
          "pitch": 29,
          "onset": 174.0,
          "duration": 0.5,
          "velocity": 100
        },
        {
          "pitch": 37,
          "onset": 174.5,
          "duration": 1.0,
          "velocity": 100
        },
        {
          "pitch": 35,
          "onset": 175.5,
          "duration": 0.5,
          "velocity": 100
        },
        {
          "pitch": 33,
          "onset": 176.0,
          "duration": 0.5,
          "velocity": 100
        },
        {
          "pitch": 35,
          "onset": 176.5,
          "duration": 0.5,
          "velocity": 100
        },
        {
          "pitch": 37,
          "onset": 177.0,
          "duration": 1.0,
          "velocity": 100
        },
        {
          "pitch": 30,
          "onset": 178.0,
          "duration": 0.5,
          "velocity": 100
        },
        {
          "pitch": 42,
          "onset": 178.5,
          "duration": 1.0,
          "velocity": 100
        },
        {
          "pitch": 40,
          "onset": 179.5,
          "duration": 0.5,
          "velocity": 100
        },
        {
          "pitch": 38,
          "onset": 180.0,
          "duration": 1.0,
          "velocity": 100
        },
        {
          "pitch": 37,
          "onset": 181.0,
          "duration": 1.5,
          "velocity": 100
        },
        {
          "pitch": 35,
          "onset": 182.5,
          "duration": 0.5,
          "velocity": 100
        },
        {
          "pitch": 37,
          "onset": 183.0,
          "duration": 0.5,
          "velocity": 100
        },
        {
          "pitch": 39,
          "onset": 183.5,
          "duration": 0.5,
          "velocity": 100
        },
        {
          "pitch": 40,
          "onset": 184.0,
          "duration": 0.25,
          "velocity": 100
        },
        {
          "pitch": 35,
          "onset": 184.25,
          "duration": 0.25,
          "velocity": 100
        },
        {
          "pitch": 40,
          "onset": 184.5,
          "duration": 1.0,
          "velocity": 100
        },
        {
          "pitch": 38,
          "onset": 185.5,
          "duration": 0.5,
          "velocity": 100
        },
        {
          "pitch": 37,
          "onset": 186.0,
          "duration": 0.5,
          "velocity": 100
        },
        {
          "pitch": 40,
          "onset": 186.5,
          "duration": 0.5,
          "velocity": 100
        },
        {
          "pitch": 37,
          "onset": 187.0,
          "duration": 0.5,
          "velocity": 100
        },
        {
          "pitch": 33,
          "onset": 187.5,
          "duration": 0.5,
          "velocity": 100
        },
        {
          "pitch": 28,
          "onset": 188.0,
          "duration": 1.0,
          "velocity": 100
        },
        {
          "pitch": 33,
          "onset": 189.0,
          "duration": 0.5,
          "velocity": 100
        },
        {
          "pitch": 31,
          "onset": 189.5,
          "duration": 0.5,
          "velocity": 100
        },
        {
          "pitch": 30,
          "onset": 190.0,
          "duration": 0.5,
          "velocity": 100
        },
        {
          "pitch": 33,
          "onset": 190.5,
          "duration": 0.5,
          "velocity": 100
        },
        {
          "pitch": 32,
          "onset": 191.0,
          "duration": 1.0,
          "velocity": 100
        },
        {
          "pitch": 30,
          "onset": 192.0,
          "duration": 0.5,
          "velocity": 100
        },
        {
          "pitch": 42,
          "onset": 192.5,
          "duration": 0.5,
          "velocity": 100
        },
        {
          "pitch": 38,
          "onset": 193.0,
          "duration": 0.5,
          "velocity": 100
        },
        {
          "pitch": 35,
          "onset": 193.5,
          "duration": 0.5,
          "velocity": 100
        },
        {
          "pitch": 28,
          "onset": 194.0,
          "duration": 0.5,
          "velocity": 100
        },
        {
          "pitch": 40,
          "onset": 194.5,
          "duration": 1.0,
          "velocity": 100
        },
        {
          "pitch": 38,
          "onset": 195.5,
          "duration": 0.5,
          "velocity": 100
        },
        {
          "pitch": 37,
          "onset": 196.0,
          "duration": 0.5,
          "velocity": 100
        },
        {
          "pitch": 33,
          "onset": 196.5,
          "duration": 0.5,
          "velocity": 100
        },
        {
          "pitch": 38,
          "onset": 197.0,
          "duration": 0.5,
          "velocity": 100
        },
        {
          "pitch": 40,
          "onset": 197.5,
          "duration": 0.5,
          "velocity": 100
        },
        {
          "pitch": 42,
          "onset": 198.0,
          "duration": 0.5,
          "velocity": 100
        },
        {
          "pitch": 40,
          "onset": 198.5,
          "duration": 0.5,
          "velocity": 100
        },
        {
          "pitch": 38,
          "onset": 199.0,
          "duration": 0.5,
          "velocity": 100
        },
        {
          "pitch": 40,
          "onset": 199.5,
          "duration": 0.5,
          "velocity": 100
        },
        {
          "pitch": 42,
          "onset": 200.0,
          "duration": 0.5,
          "velocity": 100
        },
        {
          "pitch": 40,
          "onset": 200.5,
          "duration": 0.5,
          "velocity": 100
        },
        {
          "pitch": 42,
          "onset": 201.0,
          "duration": 0.25,
          "velocity": 100
        },
        {
          "pitch": 45,
          "onset": 201.25,
          "duration": 0.25,
          "velocity": 100
        },
        {
          "pitch": 44,
          "onset": 201.5,
          "duration": 0.25,
          "velocity": 100
        },
        {
          "pitch": 47,
          "onset": 201.75,
          "duration": 0.125,
          "velocity": 100
        },
        {
          "pitch": 45,
          "onset": 201.875,
          "duration": 0.125,
          "velocity": 100
        },
        {
          "pitch": 45,
          "onset": 202.0,
          "duration": 1.25,
          "velocity": 100
        },
        {
          "pitch": 43,
          "onset": 203.25,
          "duration": 0.25,
          "velocity": 100
        },
        {
          "pitch": 42,
          "onset": 203.5,
          "duration": 0.25,
          "velocity": 100
        },
        {
          "pitch": 43,
          "onset": 203.75,
          "duration": 0.125,
          "velocity": 100
        },
        {
          "pitch": 45,
          "onset": 203.875,
          "duration": 0.125,
          "velocity": 100
        },
        {
          "pitch": 39,
          "onset": 204.0,
          "duration": 1.0,
          "velocity": 100
        },
        {
          "pitch": 27,
          "onset": 209.5,
          "duration": 0.5,
          "velocity": 100
        },
        {
          "pitch": 28,
          "onset": 210.0,
          "duration": 1.9688,
          "velocity": 100
        },
        {
          "pitch": 33,
          "onset": 212.0,
          "duration": 5.0,
          "velocity": 100
        }
      ]
    }
  ]
}