{
  "bwv": 675,
  "category": "clavierubung3",
  "instrument": "organ",
  "form": "",
  "movement": null,
  "tonic": "F",
  "mode": "major",
  "confidence": "inferred",
  "ticks_per_beat": 480,
  "duration_seconds": 216.9,
  "tempos": [
    {
      "tick": 0,
      "bpm": 55
    },
    {
      "tick": 92160,
      "bpm": 55
    },
    {
      "tick": 92640,
      "bpm": 50
    },
    {
      "tick": 93120,
      "bpm": 50
    },
    {
      "tick": 93360,
      "bpm": 40
    }
  ],
  "time_signatures": [
    {
      "tick": 0,
      "numerator": 3,
      "denominator": 4
    }
  ],
  "track_type": "manual",
  "voice_count": 1,
  "total_notes": 1284,
  "tracks": [
    {
      "role": "manual",
      "notes": [
        {
          "pitch": 65,
          "onset": 1.0,
          "duration": 1.0,
          "velocity": 100
        },
        {
          "pitch": 67,
          "onset": 2.0,
          "duration": 1.0,
          "velocity": 100
        },
        {
          "pitch": 69,
          "onset": 3.0,
          "duration": 1.5,
          "velocity": 100
        },
        {
          "pitch": 60,
          "onset": 4.0,
          "duration": 1.0,
          "velocity": 100
        },
        {
          "pitch": 70,
          "onset": 4.5,
          "duration": 0.25,
          "velocity": 100
        },
        {
          "pitch": 72,
          "onset": 4.75,
          "duration": 0.25,
          "velocity": 100
        },
        {
          "pitch": 62,
          "onset": 5.0,
          "duration": 1.0,
          "velocity": 100
        },
        {
          "pitch": 70,
          "onset": 5.0,
          "duration": 0.1562,
          "velocity": 100
        },
        {
          "pitch": 69,
          "onset": 5.1562,
          "duration": 0.1562,
          "velocity": 100
        },
        {
          "pitch": 67,
          "onset": 5.3438,
          "duration": 0.1562,
          "velocity": 100
        },
        {
          "pitch": 69,
          "onset": 5.5,
          "duration": 0.1562,
          "velocity": 100
        },
        {
          "pitch": 67,
          "onset": 5.6562,
          "duration": 0.1562,
          "velocity": 100
        },
        {
          "pitch": 65,
          "onset": 5.8438,
          "duration": 0.1562,
          "velocity": 100
        },
        {
          "pitch": 64,
          "onset": 6.0,
          "duration": 1.5,
          "velocity": 100
        },
        {
          "pitch": 72,
          "onset": 6.0,
          "duration": 0.5,
          "velocity": 100
        },
        {
          "pitch": 60,
          "onset": 6.5,
          "duration": 0.5,
          "velocity": 100
        },
        {
          "pitch": 72,
          "onset": 7.0,
          "duration": 1.5,
          "velocity": 100
        },
        {
          "pitch": 65,
          "onset": 7.5,
          "duration": 0.25,
          "velocity": 100
        },
        {
          "pitch": 67,
          "onset": 7.75,
          "duration": 0.25,
          "velocity": 100
        },
        {
          "pitch": 65,
          "onset": 8.0,
          "duration": 0.1562,
          "velocity": 100
        },
        {
          "pitch": 64,
          "onset": 8.1562,
          "duration": 0.1562,
          "velocity": 100
        },
        {
          "pitch": 62,
          "onset": 8.3438,
          "duration": 0.1562,
          "velocity": 100
        },
        {
          "pitch": 64,
          "onset": 8.5,
          "duration": 0.1562,
          "velocity": 100
        },
        {
          "pitch": 70,
          "onset": 8.5,
          "duration": 1.0,
          "velocity": 100
        },
        {
          "pitch": 62,
          "onset": 8.6562,
          "duration": 0.1562,
          "velocity": 100
        },
        {
          "pitch": 60,
          "onset": 8.8438,
          "duration": 0.1562,
          "velocity": 100
        },
        {
          "pitch": 65,
          "onset": 9.0,
          "duration": 0.5,
          "velocity": 100
        },
        {
          "pitch": 53,
          "onset": 9.5,
          "duration": 0.5,
          "velocity": 100
        },
        {
          "pitch": 69,
          "onset": 9.5,
          "duration": 0.25,
          "velocity": 100
        },
        {
          "pitch": 67,
          "onset": 9.75,
          "duration": 0.25,
          "velocity": 100
        },
        {
          "pitch": 65,
          "onset": 10.0,
          "duration": 1.5,
          "velocity": 100
        },
        {
          "pitch": 69,
          "onset": 10.0,
          "duration": 0.5,
          "velocity": 100
        },
        {
          "pitch": 74,
          "onset": 10.5,
          "duration": 0.5,
          "velocity": 100
        },
        {
          "pitch": 67,
          "onset": 11.0,
          "duration": 0.5,
          "velocity": 100
        },
        {
          "pitch": 64,
          "onset": 11.5,
          "duration": 0.5,
          "velocity": 100
        },
        {
          "pitch": 72,
          "onset": 11.5,
          "duration": 0.5,
          "velocity": 100
        },
        {
          "pitch": 65,
          "onset": 12.0,
          "duration": 1.9688,
          "velocity": 100
        },
        {
          "pitch": 65,
          "onset": 12.0,
          "duration": 0.5,
          "velocity": 100
        },
        {
          "pitch": 69,
          "onset": 12.0,
          "duration": 0.25,
          "velocity": 100
        },
        {
          "pitch": 70,
          "onset": 12.25,
          "duration": 0.25,
          "velocity": 100
        },
        {
          "pitch": 57,
          "onset": 12.5,
          "duration": 0.25,
          "velocity": 100
        },
        {
          "pitch": 72,
          "onset": 12.5,
          "duration": 0.6562,
          "velocity": 100
        },
        {
          "pitch": 55,
          "onset": 12.75,
          "duration": 0.25,
          "velocity": 100
        },
        {
          "pitch": 57,
          "onset": 13.0,
          "duration": 0.5,
          "velocity": 100
        },
        {
          "pitch": 70,
          "onset": 13.1562,
          "duration": 0.1562,
          "velocity": 100
        },
        {
          "pitch": 69,
          "onset": 13.3438,
          "duration": 0.1562,
          "velocity": 100
        },
        {
          "pitch": 62,
          "onset": 13.5,
          "duration": 0.5,
          "velocity": 100
        },
        {
          "pitch": 77,
          "onset": 13.5,
          "duration": 0.6562,
          "velocity": 100
        },
        {
          "pitch": 55,
          "onset": 14.0,
          "duration": 0.5,
          "velocity": 100
        },
        {
          "pitch": 67,
          "onset": 14.0,
          "duration": 1.0,
          "velocity": 100
        },
        {
          "pitch": 76,
          "onset": 14.1562,
          "duration": 0.1562,
          "velocity": 100
        },
        {
          "pitch": 74,
          "onset": 14.3438,
          "duration": 0.1562,
          "velocity": 100
        },
        {
          "pitch": 60,
          "onset": 14.5,
          "duration": 0.5,
          "velocity": 100
        },
        {
          "pitch": 76,
          "onset": 14.5,
          "duration": 0.1562,
          "velocity": 100
        },
        {
          "pitch": 77,
          "onset": 14.6562,
          "duration": 0.1562,
          "velocity": 100
        },
        {
          "pitch": 79,
          "onset": 14.8438,
          "duration": 0.4062,
          "velocity": 100
        },
        {
          "pitch": 53,
          "onset": 15.0,
          "duration": 1.0,
          "velocity": 100
        },
        {
          "pitch": 69,
          "onset": 15.0,
          "duration": 1.9688,
          "velocity": 100
        },
        {
          "pitch": 72,
          "onset": 15.25,
          "duration": 0.25,
          "velocity": 100
        },
        {
          "pitch": 74,
          "onset": 15.5,
          "duration": 0.25,
          "velocity": 100
        },
        {
          "pitch": 76,
          "onset": 15.75,
          "duration": 0.25,
          "velocity": 100
        },
        {
          "pitch": 77,
          "onset": 16.0,
          "duration": 0.25,
          "velocity": 100
        },
        {
          "pitch": 79,
          "onset": 16.25,
          "duration": 0.25,
          "velocity": 100
        },
        {
          "pitch": 81,
          "onset": 16.5,
          "duration": 0.6562,
          "velocity": 100
        },
        {
          "pitch": 70,
          "onset": 17.0,
          "duration": 1.0,
          "velocity": 100
        },
        {
          "pitch": 79,
          "onset": 17.1562,
          "duration": 0.1562,
          "velocity": 100
        },
        {
          "pitch": 77,
          "onset": 17.3438,
          "duration": 0.1562,
          "velocity": 100
        },
        {
          "pitch": 79,
          "onset": 17.5,
          "duration": 0.1562,
          "velocity": 100
        },
        {
          "pitch": 81,
          "onset": 17.6562,
          "duration": 0.1562,
          "velocity": 100
        },
        {
          "pitch": 82,
          "onset": 17.8438,
          "duration": 0.6562,
          "velocity": 100
        },
        {
          "pitch": 72,
          "onset": 18.0,
          "duration": 1.9688,
          "velocity": 100
        },
        {
          "pitch": 45,
          "onset": 18.25,
          "duration": 0.25,
          "velocity": 100
        },
        {
          "pitch": 46,
          "onset": 18.5,
          "duration": 0.25,
          "velocity": 100
        },
        {
          "pitch": 81,
          "onset": 18.5,
          "duration": 0.25,
          "velocity": 100
        },
        {
          "pitch": 48,
          "onset": 18.75,
          "duration": 0.25,
          "velocity": 100
        },
        {
          "pitch": 79,
          "onset": 18.75,
          "duration": 0.25,
          "velocity": 100
        },
        {
          "pitch": 50,
          "onset": 19.0,
          "duration": 0.25,
          "velocity": 100
        },
        {
          "pitch": 77,
          "onset": 19.0,
          "duration": 0.5,
          "velocity": 100
        },
        {
          "pitch": 52,
          "onset": 19.25,
          "duration": 0.25,
          "velocity": 100
        },
        {
          "pitch": 53,
          "onset": 19.5,
          "duration": 0.6562,
          "velocity": 100
        },
        {
          "pitch": 81,
          "onset": 19.5,
          "duration": 0.5,
          "velocity": 100
        },
        {
          "pitch": 70,
          "onset": 20.0,
          "duration": 1.0,
          "velocity": 100
        },
        {
          "pitch": 74,
          "onset": 20.0,
          "duration": 0.5,
          "velocity": 100
        },
        {
          "pitch": 52,
          "onset": 20.1562,
          "duration": 0.1562,
          "velocity": 100
        },
        {
          "pitch": 50,
          "onset": 20.3438,
          "duration": 0.1562,
          "velocity": 100
        },
        {
          "pitch": 52,
          "onset": 20.5,
          "duration": 0.1562,
          "velocity": 100
        },
        {
          "pitch": 79,
          "onset": 20.5,
          "duration": 0.5,
          "velocity": 100
        },
        {
          "pitch": 53,
          "onset": 20.6562,
          "duration": 0.1562,
          "velocity": 100
        },
        {
          "pitch": 55,
          "onset": 20.8438,
          "duration": 0.3438,
          "velocity": 100
        },
        {
          "pitch": 69,
          "onset": 21.0,
          "duration": 1.0,
          "velocity": 100
        },
        {
          "pitch": 73,
          "onset": 21.0,
          "duration": 0.5,
          "velocity": 100
        },
        {
          "pitch": 53,
          "onset": 21.1562,
          "duration": 0.1562,
          "velocity": 100
        },
        {
          "pitch": 52,
          "onset": 21.3438,
          "duration": 0.1562,
          "velocity": 100
        },
        {
          "pitch": 53,
          "onset": 21.5,
          "duration": 0.1562,
          "velocity": 100
        },
        {
          "pitch": 74,
          "onset": 21.5,
          "duration": 0.6562,
          "velocity": 100
        },
        {
          "pitch": 55,
          "onset": 21.6562,
          "duration": 0.1562,
          "velocity": 100
        },
        {
          "pitch": 57,
          "onset": 21.8438,
          "duration": 0.1562,
          "velocity": 100
        },
        {
          "pitch": 46,
          "onset": 22.0,
          "duration": 0.5,
          "velocity": 100
        },
        {
          "pitch": 67,
          "onset": 22.0,
          "duration": 1.9688,
          "velocity": 100
        },
        {
          "pitch": 76,
          "onset": 22.1562,
          "duration": 0.1562,
          "velocity": 100
        },
        {
          "pitch": 77,
          "onset": 22.3438,
          "duration": 0.1562,
          "velocity": 100
        },
        {
          "pitch": 58,
          "onset": 22.5,
          "duration": 0.25,
          "velocity": 100
        },
        {
          "pitch": 76,
          "onset": 22.5,
          "duration": 0.1562,
          "velocity": 100
        },
        {
          "pitch": 74,
          "onset": 22.6562,
          "duration": 0.1562,
          "velocity": 100
        },
        {
          "pitch": 57,
          "onset": 22.75,
          "duration": 0.25,
          "velocity": 100
        },
        {
          "pitch": 73,
          "onset": 22.8438,
          "duration": 0.1562,
          "velocity": 100
        },
        {
          "pitch": 58,
          "onset": 23.0,
          "duration": 0.5,
          "velocity": 100
        },
        {
          "pitch": 74,
          "onset": 23.0,
          "duration": 0.1562,
          "velocity": 100
        },
        {
          "pitch": 76,
          "onset": 23.1562,
          "duration": 0.1562,
          "velocity": 100
        },
        {
          "pitch": 77,
          "onset": 23.3438,
          "duration": 0.1562,
          "velocity": 100
        },
        {
          "pitch": 50,
          "onset": 23.5,
          "duration": 0.5,
          "velocity": 100
        },
        {
          "pitch": 76,
          "onset": 23.5,
          "duration": 0.1562,
          "velocity": 100
        },
        {
          "pitch": 77,
          "onset": 23.6562,
          "duration": 0.1562,
          "velocity": 100
        },
        {
          "pitch": 79,
          "onset": 23.8438,
          "duration": 0.9062,
          "velocity": 100
        },
        {
          "pitch": 49,
          "onset": 24.0,
          "duration": 0.25,
          "velocity": 100
        },
        {
          "pitch": 69,
          "onset": 24.0,
          "duration": 1.9688,
          "velocity": 100
        },
        {
          "pitch": 57,
          "onset": 24.25,
          "duration": 0.25,
          "velocity": 100
        },
        {
          "pitch": 59,
          "onset": 24.5,
          "duration": 0.25,
          "velocity": 100
        },
        {
          "pitch": 61,
          "onset": 24.75,
          "duration": 0.25,
          "velocity": 100
        },
        {
          "pitch": 77,
          "onset": 24.75,
          "duration": 0.125,
          "velocity": 100
        },
        {
          "pitch": 76,
          "onset": 24.875,
          "duration": 0.125,
          "velocity": 100
        },
        {
          "pitch": 62,
          "onset": 25.0,
          "duration": 0.25,
          "velocity": 100
        },
        {
          "pitch": 77,
          "onset": 25.0,
          "duration": 0.1562,
          "velocity": 100
        },
        {
          "pitch": 76,
          "onset": 25.1562,
          "duration": 0.1562,
          "velocity": 100
        },
        {
          "pitch": 64,
          "onset": 25.25,
          "duration": 0.25,
          "velocity": 100
        },
        {
          "pitch": 74,
          "onset": 25.3438,
          "duration": 0.1562,
          "velocity": 100
        },
        {
          "pitch": 65,
          "onset": 25.5,
          "duration": 0.6562,
          "velocity": 100
        },
        {
          "pitch": 76,
          "onset": 25.5,
          "duration": 0.1562,
          "velocity": 100
        },
        {
          "pitch": 74,
          "onset": 25.6562,
          "duration": 0.1562,
          "velocity": 100
        },
        {
          "pitch": 73,
          "onset": 25.8438,
          "duration": 0.1562,
          "velocity": 100
        },
        {
          "pitch": 74,
          "onset": 26.0,
          "duration": 0.1562,
          "velocity": 100
        },
        {
          "pitch": 64,
          "onset": 26.1562,
          "duration": 0.1562,
          "velocity": 100
        },
        {
          "pitch": 72,
          "onset": 26.1562,
          "duration": 0.1562,
          "velocity": 100
        },
        {
          "pitch": 62,
          "onset": 26.3438,
          "duration": 0.1562,
          "velocity": 100
        },
        {
          "pitch": 70,
          "onset": 26.3438,
          "duration": 0.1562,
          "velocity": 100
        },
        {
          "pitch": 64,
          "onset": 26.5,
          "duration": 0.1562,
          "velocity": 100
        },
        {
          "pitch": 72,
          "onset": 26.5,
          "duration": 0.1562,
          "velocity": 100
        },
        {
          "pitch": 65,
          "onset": 26.6562,
          "duration": 0.1562,
          "velocity": 100
        },
        {
          "pitch": 70,
          "onset": 26.6562,
          "duration": 0.1562,
          "velocity": 100
        },
        {
          "pitch": 67,
          "onset": 26.8438,
          "duration": 0.1562,
          "velocity": 100
        },
        {
          "pitch": 69,
          "onset": 26.8438,
          "duration": 0.1562,
          "velocity": 100
        },
        {
          "pitch": 61,
          "onset": 27.0,
          "duration": 0.5,
          "velocity": 100
        },
        {
          "pitch": 70,
          "onset": 27.0,
          "duration": 0.1562,
          "velocity": 100
        },
        {
          "pitch": 69,
          "onset": 27.1562,
          "duration": 0.1562,
          "velocity": 100
        },
        {
          "pitch": 67,
          "onset": 27.3438,
          "duration": 0.1562,
          "velocity": 100
        },
        {
          "pitch": 53,
          "onset": 27.5,
          "duration": 0.25,
          "velocity": 100
        },
        {
          "pitch": 69,
          "onset": 27.5,
          "duration": 0.6562,
          "velocity": 100
        },
        {
          "pitch": 52,
          "onset": 27.75,
          "duration": 0.25,
          "velocity": 100
        },
        {
          "pitch": 53,
          "onset": 28.0,
          "duration": 0.5,
          "velocity": 100
        },
        {
          "pitch": 81,
          "onset": 28.1562,
          "duration": 0.1562,
          "velocity": 100
        },
        {
          "pitch": 79,
          "onset": 28.3438,
          "duration": 0.1562,
          "velocity": 100
        },
        {
          "pitch": 58,
          "onset": 28.5,
          "duration": 0.5,
          "velocity": 100
        },
        {
          "pitch": 77,
          "onset": 28.5,
          "duration": 0.1562,
          "velocity": 100
        },
        {
          "pitch": 76,
          "onset": 28.6562,
          "duration": 0.1562,
          "velocity": 100
        },
        {
          "pitch": 74,
          "onset": 28.8438,
          "duration": 0.3438,
          "velocity": 100
        },
        {
          "pitch": 52,
          "onset": 29.0,
          "duration": 0.5,
          "velocity": 100
        },
        {
          "pitch": 79,
          "onset": 29.1562,
          "duration": 0.1562,
          "velocity": 100
        },
        {
          "pitch": 77,
          "onset": 29.3438,
          "duration": 0.1562,
          "velocity": 100
        },
        {
          "pitch": 57,
          "onset": 29.5,
          "duration": 0.5,
          "velocity": 100
        },
        {
          "pitch": 76,
          "onset": 29.5,
          "duration": 0.1562,
          "velocity": 100
        },
        {
          "pitch": 74,
          "onset": 29.6562,
          "duration": 0.1562,
          "velocity": 100
        },
        {
          "pitch": 73,
          "onset": 29.8438,
          "duration": 0.1562,
          "velocity": 100
        },
        {
          "pitch": 53,
          "onset": 30.0,
          "duration": 0.5,
          "velocity": 100
        },
        {
          "pitch": 74,
          "onset": 30.0,
          "duration": 0.1562,
          "velocity": 100
        },
        {
          "pitch": 72,
          "onset": 30.1562,
          "duration": 0.1562,
          "velocity": 100
        },
        {
          "pitch": 70,
          "onset": 30.3438,
          "duration": 0.1562,
          "velocity": 100
        },
        {
          "pitch": 62,
          "onset": 30.5,
          "duration": 0.5,
          "velocity": 100
        },
        {
          "pitch": 69,
          "onset": 30.5,
          "duration": 0.1562,
          "velocity": 100
        },
        {
          "pitch": 67,
          "onset": 30.6562,
          "duration": 0.1562,
          "velocity": 100
        },
        {
          "pitch": 65,
          "onset": 30.8438,
          "duration": 0.1562,
          "velocity": 100
        },
        {
          "pitch": 55,
          "onset": 31.0,
          "duration": 0.5,
          "velocity": 100
        },
        {
          "pitch": 70,
          "onset": 31.0,
          "duration": 0.1562,
          "velocity": 100
        },
        {
          "pitch": 69,
          "onset": 31.1562,
          "duration": 0.1562,
          "velocity": 100
        },
        {
          "pitch": 67,
          "onset": 31.3438,
          "duration": 0.1562,
          "velocity": 100
        },
        {
          "pitch": 56,
          "onset": 31.5,
          "duration": 0.5,
          "velocity": 100
        },
        {
          "pitch": 65,
          "onset": 31.5,
          "duration": 0.1562,
          "velocity": 100
        },
        {
          "pitch": 64,
          "onset": 31.6562,
          "duration": 0.1562,
          "velocity": 100
        },
        {
          "pitch": 62,
          "onset": 31.8438,
          "duration": 0.1562,
          "velocity": 100
        },
        {
          "pitch": 57,
          "onset": 32.0,
          "duration": 0.5,
          "velocity": 100
        },
        {
          "pitch": 69,
          "onset": 32.0,
          "duration": 0.5,
          "velocity": 100
        },
        {
          "pitch": 64,
          "onset": 32.25,
          "duration": 0.25,
          "velocity": 100
        },
        {
          "pitch": 45,
          "onset": 32.5,
          "duration": 0.5,
          "velocity": 100
        },
        {
          "pitch": 67,
          "onset": 32.5,
          "duration": 0.5,
          "velocity": 100
        },
        {
          "pitch": 73,
          "onset": 32.75,
          "duration": 0.25,
          "velocity": 100
        },
        {
          "pitch": 50,
          "onset": 33.0,
          "duration": 0.25,
          "velocity": 100
        },
        {
          "pitch": 65,
          "onset": 33.0,
          "duration": 0.5,
          "velocity": 100
        },
        {
          "pitch": 69,
          "onset": 33.0,
          "duration": 1.9688,
          "velocity": 100
        },
        {
          "pitch": 74,
          "onset": 33.0,
          "duration": 0.5,
          "velocity": 100
        },
        {
          "pitch": 53,
          "onset": 33.25,
          "duration": 0.25,
          "velocity": 100
        },
        {
          "pitch": 55,
          "onset": 33.5,
          "duration": 0.25,
          "velocity": 100
        },
        {
          "pitch": 74,
          "onset": 33.5,
          "duration": 0.25,
          "velocity": 100
        },
        {
          "pitch": 57,
          "onset": 33.75,
          "duration": 0.25,
          "velocity": 100
        },
        {
          "pitch": 72,
          "onset": 33.75,
          "duration": 0.25,
          "velocity": 100
        },
        {
          "pitch": 58,
          "onset": 34.0,
          "duration": 0.25,
          "velocity": 100
        },
        {
          "pitch": 74,
          "onset": 34.0,
          "duration": 0.5,
          "velocity": 100
        },
        {
          "pitch": 60,
          "onset": 34.25,
          "duration": 0.25,
          "velocity": 100
        },
        {
          "pitch": 62,
          "onset": 34.5,
          "duration": 0.6562,
          "velocity": 100
        },
        {
          "pitch": 79,
          "onset": 34.5,
          "duration": 0.5,
          "velocity": 100
        },
        {
          "pitch": 67,
          "onset": 35.0,
          "duration": 0.5,
          "velocity": 100
        },
        {
          "pitch": 70,
          "onset": 35.0,
          "duration": 0.5,
          "velocity": 100
        },
        {
          "pitch": 60,
          "onset": 35.1562,
          "duration": 0.1562,
          "velocity": 100
        },
        {
          "pitch": 58,
          "onset": 35.3438,
          "duration": 0.1562,
          "velocity": 100
        },
        {
          "pitch": 60,
          "onset": 35.5,
          "duration": 0.1562,
          "velocity": 100
        },
        {
          "pitch": 69,
          "onset": 35.5,
          "duration": 0.5,
          "velocity": 100
        },
        {
          "pitch": 75,
          "onset": 35.5,
          "duration": 0.75,
          "velocity": 100
        },
        {
          "pitch": 62,
          "onset": 35.6562,
          "duration": 0.1562,
          "velocity": 100
        },
        {
          "pitch": 63,
          "onset": 35.8438,
          "duration": 0.1562,
          "velocity": 100
        },
        {
          "pitch": 55,
          "onset": 36.0,
          "duration": 0.5,
          "velocity": 100
        },
        {
          "pitch": 70,
          "onset": 36.0,
          "duration": 1.0,
          "velocity": 100
        },
        {
          "pitch": 74,
          "onset": 36.25,
          "duration": 0.25,
          "velocity": 100
        },
        {
          "pitch": 53,
          "onset": 36.5,
          "duration": 0.25,
          "velocity": 100
        },
        {
          "pitch": 79,
          "onset": 36.5,
          "duration": 0.6562,
          "velocity": 100
        },
        {
          "pitch": 52,
          "onset": 36.75,
          "duration": 0.25,
          "velocity": 100
        },
        {
          "pitch": 53,
          "onset": 37.0,
          "duration": 0.5,
          "velocity": 100
        },
        {
          "pitch": 69,
          "onset": 37.0,
          "duration": 1.0,
          "velocity": 100
        },
        {
          "pitch": 77,
          "onset": 37.1562,
          "duration": 0.1562,
          "velocity": 100
        },
        {
          "pitch": 76,
          "onset": 37.3438,
          "duration": 0.1562,
          "velocity": 100
        },
        {
          "pitch": 58,
          "onset": 37.5,
          "duration": 0.5,
          "velocity": 100
        },
        {
          "pitch": 74,
          "onset": 37.5,
          "duration": 0.1562,
          "velocity": 100
        },
        {
          "pitch": 73,
          "onset": 37.6562,
          "duration": 0.1562,
          "velocity": 100
        },
        {
          "pitch": 74,
          "onset": 37.8438,
          "duration": 0.3438,
          "velocity": 100
        },
        {
          "pitch": 52,
          "onset": 38.0,
          "duration": 0.5,
          "velocity": 100
        },
        {
          "pitch": 67,
          "onset": 38.0,
          "duration": 1.0,
          "velocity": 100
        },
        {
          "pitch": 76,
          "onset": 38.1562,
          "duration": 0.1562,
          "velocity": 100
        },
        {
          "pitch": 74,
          "onset": 38.3438,
          "duration": 0.1562,
          "velocity": 100
        },
        {
          "pitch": 57,
          "onset": 38.5,
          "duration": 0.5,
          "velocity": 100
        },
        {
          "pitch": 72,
          "onset": 38.5,
          "duration": 0.1562,
          "velocity": 100
        },
        {
          "pitch": 71,
          "onset": 38.6562,
          "duration": 0.1562,
          "velocity": 100
        },
        {
          "pitch": 72,
          "onset": 38.8438,
          "duration": 0.6562,
          "velocity": 100
        },
        {
          "pitch": 50,
          "onset": 39.0,
          "duration": 0.25,
          "velocity": 100
        },
        {
          "pitch": 65,
          "onset": 39.0,
          "duration": 1.0,
          "velocity": 100
        },
        {
          "pitch": 38,
          "onset": 39.25,
          "duration": 0.25,
          "velocity": 100
        },
        {
          "pitch": 40,
          "onset": 39.5,
          "duration": 0.25,
          "velocity": 100
        },
        {
          "pitch": 70,
          "onset": 39.5,
          "duration": 0.25,
          "velocity": 100
        },
        {
          "pitch": 41,
          "onset": 39.75,
          "duration": 0.25,
          "velocity": 100
        },
        {
          "pitch": 69,
          "onset": 39.75,
          "duration": 0.25,
          "velocity": 100
        },
        {
          "pitch": 43,
          "onset": 40.0,
          "duration": 0.25,
          "velocity": 100
        },
        {
          "pitch": 62,
          "onset": 40.0,
          "duration": 1.0,
          "velocity": 100
        },
        {
          "pitch": 70,
          "onset": 40.0,
          "duration": 0.5,
          "velocity": 100
        },
        {
          "pitch": 45,
          "onset": 40.25,
          "duration": 0.25,
          "velocity": 100
        },
        {
          "pitch": 46,
          "onset": 40.5,
          "duration": 0.6562,
          "velocity": 100
        },
        {
          "pitch": 74,
          "onset": 40.5,
          "duration": 0.5,
          "velocity": 100
        },
        {
          "pitch": 64,
          "onset": 41.0,
          "duration": 1.0,
          "velocity": 100
        },
        {
          "pitch": 67,
          "onset": 41.0,
          "duration": 0.5,
          "velocity": 100
        },
        {
          "pitch": 45,
          "onset": 41.1562,
          "duration": 0.1562,
          "velocity": 100
        },
        {
          "pitch": 43,
          "onset": 41.3438,
          "duration": 0.1562,
          "velocity": 100
        },
        {
          "pitch": 45,
          "onset": 41.5,
          "duration": 0.1562,
          "velocity": 100
        },
        {
          "pitch": 72,
          "onset": 41.5,
          "duration": 0.5,
          "velocity": 100
        },
        {
          "pitch": 46,
          "onset": 41.6562,
          "duration": 0.1562,
          "velocity": 100
        },
        {
          "pitch": 48,
          "onset": 41.8438,
          "duration": 0.3438,
          "velocity": 100
        },
        {
          "pitch": 65,
          "onset": 42.0,
          "duration": 2.9688,
          "velocity": 100
        },
        {
          "pitch": 70,
          "onset": 42.0,
          "duration": 0.1562,
          "velocity": 100
        },
        {
          "pitch": 46,
          "onset": 42.1562,
          "duration": 0.1562,
          "velocity": 100
        },
        {
          "pitch": 69,
          "onset": 42.1562,
          "duration": 0.3438,
          "velocity": 100
        },
        {
          "pitch": 45,
          "onset": 42.3438,
          "duration": 0.1562,
          "velocity": 100
        },
        {
          "pitch": 46,
          "onset": 42.5,
          "duration": 0.1562,
          "velocity": 100
        },
        {
          "pitch": 74,
          "onset": 42.5,
          "duration": 0.25,
          "velocity": 100
        },
        {
          "pitch": 48,
          "onset": 42.6562,
          "duration": 0.1562,
          "velocity": 100
        },
        {
          "pitch": 72,
          "onset": 42.75,
          "duration": 0.25,
          "velocity": 100
        },
        {
          "pitch": 50,
          "onset": 42.8438,
          "duration": 0.3438,
          "velocity": 100
        },
        {
          "pitch": 70,
          "onset": 43.0,
          "duration": 0.5,
          "velocity": 100
        },
        {
          "pitch": 48,
          "onset": 43.1562,
          "duration": 0.1562,
          "velocity": 100
        },
        {
          "pitch": 46,
          "onset": 43.3438,
          "duration": 0.1562,
          "velocity": 100
        },
        {
          "pitch": 48,
          "onset": 43.5,
          "duration": 0.1562,
          "velocity": 100
        },
        {
          "pitch": 75,
          "onset": 43.5,
          "duration": 0.5,
          "velocity": 100
        },
        {
          "pitch": 50,
          "onset": 43.6562,
          "duration": 0.1562,
          "velocity": 100
        },
        {
          "pitch": 51,
          "onset": 43.8438,
          "duration": 0.3438,
          "velocity": 100
        },
        {
          "pitch": 72,
          "onset": 44.0,
          "duration": 0.5,
          "velocity": 100
        },
        {
          "pitch": 50,
          "onset": 44.1562,
          "duration": 0.1562,
          "velocity": 100
        },
        {
          "pitch": 48,
          "onset": 44.3438,
          "duration": 0.1562,
          "velocity": 100
        },
        {
          "pitch": 50,
          "onset": 44.5,
          "duration": 0.1562,
          "velocity": 100
        },
        {
          "pitch": 77,
          "onset": 44.5,
          "duration": 0.5,
          "velocity": 100
        },
        {
          "pitch": 51,
          "onset": 44.6562,
          "duration": 0.1562,
          "velocity": 100
        },
        {
          "pitch": 53,
          "onset": 44.8438,
          "duration": 0.4062,
          "velocity": 100
        },
        {
          "pitch": 70,
          "onset": 45.0,
          "duration": 0.1562,
          "velocity": 100
        },
        {
          "pitch": 69,
          "onset": 45.1562,
          "duration": 0.1562,
          "velocity": 100
        },
        {
          "pitch": 52,
          "onset": 45.25,
          "duration": 0.25,
          "velocity": 100
        },
        {
          "pitch": 70,
          "onset": 45.3438,
          "duration": 0.1562,
          "velocity": 100
        },
        {
          "pitch": 50,
          "onset": 45.5,
          "duration": 0.25,
          "velocity": 100
        },
        {
          "pitch": 79,
          "onset": 45.5,
          "duration": 0.6562,
          "velocity": 100
        },
        {
          "pitch": 48,
          "onset": 45.75,
          "duration": 0.25,
          "velocity": 100
        },
        {
          "pitch": 53,
          "onset": 46.0,
          "duration": 0.5,
          "velocity": 100
        },
        {
          "pitch": 69,
          "onset": 46.1562,
          "duration": 0.1562,
          "velocity": 100
        },
        {
          "pitch": 70,
          "onset": 46.3438,
          "duration": 0.1562,
          "velocity": 100
        },
        {
          "pitch": 58,
          "onset": 46.5,
          "duration": 0.5,
          "velocity": 100
        },
        {
          "pitch": 72,
          "onset": 46.5,
          "duration": 0.1562,
          "velocity": 100
        },
        {
          "pitch": 74,
          "onset": 46.6562,
          "duration": 0.1562,
          "velocity": 100
        },
        {
          "pitch": 76,
          "onset": 46.8438,
          "duration": 0.1562,
          "velocity": 100
        },
        {
          "pitch": 50,
          "onset": 47.0,
          "duration": 0.5,
          "velocity": 100
        },
        {
          "pitch": 77,
          "onset": 47.0,
          "duration": 0.1562,
          "velocity": 100
        },
        {
          "pitch": 76,
          "onset": 47.1562,
          "duration": 0.1562,
          "velocity": 100
        },
        {
          "pitch": 74,
          "onset": 47.3438,
          "duration": 0.1562,
          "velocity": 100
        },
        {
          "pitch": 53,
          "onset": 47.5,
          "duration": 0.5,
          "velocity": 100
        },
        {
          "pitch": 72,
          "onset": 47.5,
          "duration": 0.1562,
          "velocity": 100
        },
        {
          "pitch": 70,
          "onset": 47.6562,
          "duration": 0.1562,
          "velocity": 100
        },
        {
          "pitch": 69,
          "onset": 47.8438,
          "duration": 0.1562,
          "velocity": 100
        },
        {
          "pitch": 58,
          "onset": 48.0,
          "duration": 0.5,
          "velocity": 100
        },
        {
          "pitch": 74,
          "onset": 48.0,
          "duration": 0.1562,
          "velocity": 100
        },
        {
          "pitch": 72,
          "onset": 48.1562,
          "duration": 0.1562,
          "velocity": 100
        },
        {
          "pitch": 70,
          "onset": 48.3438,
          "duration": 0.1562,
          "velocity": 100
        },
        {
          "pitch": 62,
          "onset": 48.5,
          "duration": 0.5,
          "velocity": 100
        },
        {
          "pitch": 69,
          "onset": 48.5,
          "duration": 0.1562,
          "velocity": 100
        },
        {
          "pitch": 67,
          "onset": 48.6562,
          "duration": 0.1562,
          "velocity": 100
        },
        {
          "pitch": 65,
          "onset": 48.8438,
          "duration": 0.1562,
          "velocity": 100
        },
        {
          "pitch": 55,
          "onset": 49.0,
          "duration": 0.5,
          "velocity": 100
        },
        {
          "pitch": 70,
          "onset": 49.0,
          "duration": 0.1562,
          "velocity": 100
        },
        {
          "pitch": 69,
          "onset": 49.1562,
          "duration": 0.1562,
          "velocity": 100
        },
        {
          "pitch": 67,
          "onset": 49.3438,
          "duration": 0.1562,
          "velocity": 100
        },
        {
          "pitch": 58,
          "onset": 49.5,
          "duration": 0.5,
          "velocity": 100
        },
        {
          "pitch": 65,
          "onset": 49.5,
          "duration": 0.1562,
          "velocity": 100
        },
        {
          "pitch": 64,
          "onset": 49.6562,
          "duration": 0.1562,
          "velocity": 100
        },
        {
          "pitch": 62,
          "onset": 49.8438,
          "duration": 0.1562,
          "velocity": 100
        },
        {
          "pitch": 52,
          "onset": 50.0,
          "duration": 0.5,
          "velocity": 100
        },
        {
          "pitch": 60,
          "onset": 50.0,
          "duration": 0.1562,
          "velocity": 100
        },
        {
          "pitch": 67,
          "onset": 50.1562,
          "duration": 0.1562,
          "velocity": 100
        },
        {
          "pitch": 69,
          "onset": 50.3438,
          "duration": 0.1562,
          "velocity": 100
        },
        {
          "pitch": 48,
          "onset": 50.5,
          "duration": 0.5,
          "velocity": 100
        },
        {
          "pitch": 70,
          "onset": 50.5,
          "duration": 0.1562,
          "velocity": 100
        },
        {
          "pitch": 69,
          "onset": 50.6562,
          "duration": 0.1562,
          "velocity": 100
        },
        {
          "pitch": 67,
          "onset": 50.8438,
          "duration": 0.1562,
          "velocity": 100
        },
        {
          "pitch": 53,
          "onset": 51.0,
          "duration": 0.5,
          "velocity": 100
        },
        {
          "pitch": 69,
          "onset": 51.0,
          "duration": 0.1562,
          "velocity": 100
        },
        {
          "pitch": 67,
          "onset": 51.1562,
          "duration": 0.1562,
          "velocity": 100
        },
        {
          "pitch": 65,
          "onset": 51.3438,
          "duration": 0.1562,
          "velocity": 100
        },
        {
          "pitch": 48,
          "onset": 51.5,
          "duration": 0.25,
          "velocity": 100
        },
        {
          "pitch": 67,
          "onset": 51.5,
          "duration": 0.1562,
          "velocity": 100
        },
        {
          "pitch": 65,
          "onset": 51.6562,
          "duration": 0.1562,
          "velocity": 100
        },
        {
          "pitch": 46,
          "onset": 51.75,
          "duration": 0.25,
          "velocity": 100
        },
        {
          "pitch": 64,
          "onset": 51.8438,
          "duration": 0.1562,
          "velocity": 100
        },
        {
          "pitch": 45,
          "onset": 52.0,
          "duration": 0.5,
          "velocity": 100
        },
        {
          "pitch": 65,
          "onset": 52.0,
          "duration": 0.1562,
          "velocity": 100
        },
        {
          "pitch": 69,
          "onset": 52.1562,
          "duration": 0.1562,
          "velocity": 100
        },
        {
          "pitch": 67,
          "onset": 52.3438,
          "duration": 0.1562,
          "velocity": 100
        },
        {
          "pitch": 50,
          "onset": 52.5,
          "duration": 0.5,
          "velocity": 100
        },
        {
          "pitch": 65,
          "onset": 52.5,
          "duration": 0.1562,
          "velocity": 100
        },
        {
          "pitch": 64,
          "onset": 52.6562,
          "duration": 0.1562,
          "velocity": 100
        },
        {
          "pitch": 62,
          "onset": 52.8438,
          "duration": 0.1562,
          "velocity": 100
        },
        {
          "pitch": 43,
          "onset": 53.0,
          "duration": 0.5,
          "velocity": 100
        },
        {
          "pitch": 60,
          "onset": 53.0,
          "duration": 0.1562,
          "velocity": 100
        },
        {
          "pitch": 58,
          "onset": 53.1562,
          "duration": 0.1562,
          "velocity": 100
        },
        {
          "pitch": 57,
          "onset": 53.3438,
          "duration": 0.1562,
          "velocity": 100
        },
        {
          "pitch": 48,
          "onset": 53.5,
          "duration": 0.5,
          "velocity": 100
        },
        {
          "pitch": 58,
          "onset": 53.5,
          "duration": 0.1562,
          "velocity": 100
        },
        {
          "pitch": 57,
          "onset": 53.6562,
          "duration": 0.1562,
          "velocity": 100
        },
        {
          "pitch": 55,
          "onset": 53.8438,
          "duration": 0.1562,
          "velocity": 100
        },
        {
          "pitch": 41,
          "onset": 54.0,
          "duration": 1.1562,
          "velocity": 100
        },
        {
          "pitch": 57,
          "onset": 54.0,
          "duration": 0.5,
          "velocity": 100
        },
        {
          "pitch": 53,
          "onset": 54.5,
          "duration": 0.5,
          "velocity": 100
        },
        {
          "pitch": 65,
          "onset": 55.0,
          "duration": 1.0,
          "velocity": 100
        },
        {
          "pitch": 43,
          "onset": 55.1562,
          "duration": 0.1562,
          "velocity": 100
        },
        {
          "pitch": 45,
          "onset": 55.3438,
          "duration": 0.1562,
          "velocity": 100
        },
        {
          "pitch": 46,
          "onset": 55.5,
          "duration": 0.1562,
          "velocity": 100
        },
        {
          "pitch": 48,
          "onset": 55.6562,
          "duration": 0.1562,
          "velocity": 100
        },
        {
          "pitch": 50,
          "onset": 55.8438,
          "duration": 0.1562,
          "velocity": 100
        },
        {
          "pitch": 52,
          "onset": 56.0,
          "duration": 0.1562,
          "velocity": 100
        },
        {
          "pitch": 67,
          "onset": 56.0,
          "duration": 1.0,
          "velocity": 100
        },
        {
          "pitch": 53,
          "onset": 56.1562,
          "duration": 0.1562,
          "velocity": 100
        },
        {
          "pitch": 55,
          "onset": 56.3438,
          "duration": 0.1562,
          "velocity": 100
        },
        {
          "pitch": 57,
          "onset": 56.5,
          "duration": 0.1562,
          "velocity": 100
        },
        {
          "pitch": 58,
          "onset": 56.6562,
          "duration": 0.1562,
          "velocity": 100
        },
        {
          "pitch": 60,
          "onset": 56.8438,
          "duration": 0.1562,
          "velocity": 100
        },
        {
          "pitch": 53,
          "onset": 57.0,
          "duration": 0.5,
          "velocity": 100
        },
        {
          "pitch": 69,
          "onset": 57.0,
          "duration": 1.5,
          "velocity": 100
        },
        {
          "pitch": 41,
          "onset": 57.5,
          "duration": 0.5,
          "velocity": 100
        },
        {
          "pitch": 60,
          "onset": 58.0,
          "duration": 1.0,
          "velocity": 100
        },
        {
          "pitch": 70,
          "onset": 58.5,
          "duration": 0.25,
          "velocity": 100
        },
        {
          "pitch": 72,
          "onset": 58.75,
          "duration": 0.25,
          "velocity": 100
        },
        {
          "pitch": 62,
          "onset": 59.0,
          "duration": 1.0,
          "velocity": 100
        },
        {
          "pitch": 70,
          "onset": 59.0,
          "duration": 0.1562,
          "velocity": 100
        },
        {
          "pitch": 69,
          "onset": 59.1562,
          "duration": 0.1562,
          "velocity": 100
        },
        {
          "pitch": 67,
          "onset": 59.3438,
          "duration": 0.1562,
          "velocity": 100
        },
        {
          "pitch": 69,
          "onset": 59.5,
          "duration": 0.1562,
          "velocity": 100
        },
        {
          "pitch": 67,
          "onset": 59.6562,
          "duration": 0.1562,
          "velocity": 100
        },
        {
          "pitch": 65,
          "onset": 59.8438,
          "duration": 0.1562,
          "velocity": 100
        },
        {
          "pitch": 64,
          "onset": 60.0,
          "duration": 1.5,
          "velocity": 100
        },
        {
          "pitch": 72,
          "onset": 60.0,
          "duration": 0.5,
          "velocity": 100
        },
        {
          "pitch": 60,
          "onset": 60.5,
          "duration": 0.5,
          "velocity": 100
        },
        {
          "pitch": 72,
          "onset": 61.0,
          "duration": 1.5,
          "velocity": 100
        },
        {
          "pitch": 65,
          "onset": 61.5,
          "duration": 0.25,
          "velocity": 100
        },
        {
          "pitch": 67,
          "onset": 61.75,
          "duration": 0.25,
          "velocity": 100
        },
        {
          "pitch": 65,
          "onset": 62.0,
          "duration": 0.1562,
          "velocity": 100
        },
        {
          "pitch": 64,
          "onset": 62.1562,
          "duration": 0.1562,
          "velocity": 100
        },
        {
          "pitch": 62,
          "onset": 62.3438,
          "duration": 0.1562,
          "velocity": 100
        },
        {
          "pitch": 64,
          "onset": 62.5,
          "duration": 0.1562,
          "velocity": 100
        },
        {
          "pitch": 70,
          "onset": 62.5,
          "duration": 1.0,
          "velocity": 100
        },
        {
          "pitch": 62,
          "onset": 62.6562,
          "duration": 0.1562,
          "velocity": 100
        },
        {
          "pitch": 60,
          "onset": 62.8438,
          "duration": 0.1562,
          "velocity": 100
        },
        {
          "pitch": 65,
          "onset": 63.0,
          "duration": 0.5,
          "velocity": 100
        },
        {
          "pitch": 53,
          "onset": 63.5,
          "duration": 0.5,
          "velocity": 100
        },
        {
          "pitch": 69,
          "onset": 63.5,
          "duration": 0.25,
          "velocity": 100
        },
        {
          "pitch": 67,
          "onset": 63.75,
          "duration": 0.25,
          "velocity": 100
        },
        {
          "pitch": 65,
          "onset": 64.0,
          "duration": 1.5,
          "velocity": 100
        },
        {
          "pitch": 69,
          "onset": 64.0,
          "duration": 0.5,
          "velocity": 100
        },
        {
          "pitch": 74,
          "onset": 64.5,
          "duration": 0.5,
          "velocity": 100
        },
        {
          "pitch": 67,
          "onset": 65.0,
          "duration": 0.5,
          "velocity": 100
        },
        {
          "pitch": 64,
          "onset": 65.5,
          "duration": 0.5,
          "velocity": 100
        },
        {
          "pitch": 72,
          "onset": 65.5,
          "duration": 0.5,
          "velocity": 100
        },
        {
          "pitch": 65,
          "onset": 66.0,
          "duration": 1.9688,
          "velocity": 100
        },
        {
          "pitch": 65,
          "onset": 66.0,
          "duration": 0.5,
          "velocity": 100
        },
        {
          "pitch": 69,
          "onset": 66.0,
          "duration": 0.25,
          "velocity": 100
        },
        {
          "pitch": 70,
          "onset": 66.25,
          "duration": 0.25,
          "velocity": 100
        },
        {
          "pitch": 57,
          "onset": 66.5,
          "duration": 0.25,
          "velocity": 100
        },
        {
          "pitch": 72,
          "onset": 66.5,
          "duration": 0.6562,
          "velocity": 100
        },
        {
          "pitch": 55,
          "onset": 66.75,
          "duration": 0.25,
          "velocity": 100
        },
        {
          "pitch": 57,
          "onset": 67.0,
          "duration": 0.5,
          "velocity": 100
        },
        {
          "pitch": 70,
          "onset": 67.1562,
          "duration": 0.1562,
          "velocity": 100
        },
        {
          "pitch": 69,
          "onset": 67.3438,
          "duration": 0.1562,
          "velocity": 100
        },
        {
          "pitch": 62,
          "onset": 67.5,
          "duration": 0.5,
          "velocity": 100
        },
        {
          "pitch": 77,
          "onset": 67.5,
          "duration": 0.6562,
          "velocity": 100
        },
        {
          "pitch": 55,
          "onset": 68.0,
          "duration": 0.5,
          "velocity": 100
        },
        {
          "pitch": 67,
          "onset": 68.0,
          "duration": 1.0,
          "velocity": 100
        },
        {
          "pitch": 76,
          "onset": 68.1562,
          "duration": 0.1562,
          "velocity": 100
        },
        {
          "pitch": 74,
          "onset": 68.3438,
          "duration": 0.1562,
          "velocity": 100
        },
        {
          "pitch": 60,
          "onset": 68.5,
          "duration": 0.5,
          "velocity": 100
        },
        {
          "pitch": 76,
          "onset": 68.5,
          "duration": 0.1562,
          "velocity": 100
        },
        {
          "pitch": 77,
          "onset": 68.6562,
          "duration": 0.1562,
          "velocity": 100
        },
        {
          "pitch": 79,
          "onset": 68.8438,
          "duration": 0.4062,
          "velocity": 100
        },
        {
          "pitch": 53,
          "onset": 69.0,
          "duration": 1.0,
          "velocity": 100
        },
        {
          "pitch": 69,
          "onset": 69.0,
          "duration": 1.9688,
          "velocity": 100
        },
        {
          "pitch": 72,
          "onset": 69.25,
          "duration": 0.25,
          "velocity": 100
        },
        {
          "pitch": 74,
          "onset": 69.5,
          "duration": 0.25,
          "velocity": 100
        },
        {
          "pitch": 76,
          "onset": 69.75,
          "duration": 0.25,
          "velocity": 100
        },
        {
          "pitch": 77,
          "onset": 70.0,
          "duration": 0.25,
          "velocity": 100
        },
        {
          "pitch": 79,
          "onset": 70.25,
          "duration": 0.25,
          "velocity": 100
        },
        {
          "pitch": 81,
          "onset": 70.5,
          "duration": 0.6562,
          "velocity": 100
        },
        {
          "pitch": 70,
          "onset": 71.0,
          "duration": 1.0,
          "velocity": 100
        },
        {
          "pitch": 79,
          "onset": 71.1562,
          "duration": 0.1562,
          "velocity": 100
        },
        {
          "pitch": 77,
          "onset": 71.3438,
          "duration": 0.1562,
          "velocity": 100
        },
        {
          "pitch": 79,
          "onset": 71.5,
          "duration": 0.1562,
          "velocity": 100
        },
        {
          "pitch": 81,
          "onset": 71.6562,
          "duration": 0.1562,
          "velocity": 100
        },
        {
          "pitch": 82,
          "onset": 71.8438,
          "duration": 0.6562,
          "velocity": 100
        },
        {
          "pitch": 72,
          "onset": 72.0,
          "duration": 1.9688,
          "velocity": 100
        },
        {
          "pitch": 45,
          "onset": 72.25,
          "duration": 0.25,
          "velocity": 100
        },
        {
          "pitch": 46,
          "onset": 72.5,
          "duration": 0.25,
          "velocity": 100
        },
        {
          "pitch": 81,
          "onset": 72.5,
          "duration": 0.25,
          "velocity": 100
        },
        {
          "pitch": 48,
          "onset": 72.75,
          "duration": 0.25,
          "velocity": 100
        },
        {
          "pitch": 79,
          "onset": 72.75,
          "duration": 0.25,
          "velocity": 100
        },
        {
          "pitch": 50,
          "onset": 73.0,
          "duration": 0.25,
          "velocity": 100
        },
        {
          "pitch": 77,
          "onset": 73.0,
          "duration": 0.5,
          "velocity": 100
        },
        {
          "pitch": 52,
          "onset": 73.25,
          "duration": 0.25,
          "velocity": 100
        },
        {
          "pitch": 53,
          "onset": 73.5,
          "duration": 0.6562,
          "velocity": 100
        },
        {
          "pitch": 81,
          "onset": 73.5,
          "duration": 0.5,
          "velocity": 100
        },
        {
          "pitch": 70,
          "onset": 74.0,
          "duration": 1.0,
          "velocity": 100
        },
        {
          "pitch": 74,
          "onset": 74.0,
          "duration": 0.5,
          "velocity": 100
        },
        {
          "pitch": 52,
          "onset": 74.1562,
          "duration": 0.1562,
          "velocity": 100
        },
        {
          "pitch": 50,
          "onset": 74.3438,
          "duration": 0.1562,
          "velocity": 100
        },
        {
          "pitch": 52,
          "onset": 74.5,
          "duration": 0.1562,
          "velocity": 100
        },
        {
          "pitch": 79,
          "onset": 74.5,
          "duration": 0.5,
          "velocity": 100
        },
        {
          "pitch": 53,
          "onset": 74.6562,
          "duration": 0.1562,
          "velocity": 100
        },
        {
          "pitch": 55,
          "onset": 74.8438,
          "duration": 0.3438,
          "velocity": 100
        },
        {
          "pitch": 69,
          "onset": 75.0,
          "duration": 1.0,
          "velocity": 100
        },
        {
          "pitch": 73,
          "onset": 75.0,
          "duration": 0.5,
          "velocity": 100
        },
        {
          "pitch": 53,
          "onset": 75.1562,
          "duration": 0.1562,
          "velocity": 100
        },
        {
          "pitch": 52,
          "onset": 75.3438,
          "duration": 0.1562,
          "velocity": 100
        },
        {
          "pitch": 53,
          "onset": 75.5,
          "duration": 0.1562,
          "velocity": 100
        },
        {
          "pitch": 74,
          "onset": 75.5,
          "duration": 0.6562,
          "velocity": 100
        },
        {
          "pitch": 55,
          "onset": 75.6562,
          "duration": 0.1562,
          "velocity": 100
        },
        {
          "pitch": 57,
          "onset": 75.8438,
          "duration": 0.1562,
          "velocity": 100
        },
        {
          "pitch": 46,
          "onset": 76.0,
          "duration": 0.5,
          "velocity": 100
        },
        {
          "pitch": 67,
          "onset": 76.0,
          "duration": 1.9688,
          "velocity": 100
        },
        {
          "pitch": 76,
          "onset": 76.1562,
          "duration": 0.1562,
          "velocity": 100
        },
        {
          "pitch": 77,
          "onset": 76.3438,
          "duration": 0.1562,
          "velocity": 100
        },
        {
          "pitch": 58,
          "onset": 76.5,
          "duration": 0.25,
          "velocity": 100
        },
        {
          "pitch": 76,
          "onset": 76.5,
          "duration": 0.1562,
          "velocity": 100
        },
        {
          "pitch": 74,
          "onset": 76.6562,
          "duration": 0.1562,
          "velocity": 100
        },
        {
          "pitch": 57,
          "onset": 76.75,
          "duration": 0.25,
          "velocity": 100
        },
        {
          "pitch": 73,
          "onset": 76.8438,
          "duration": 0.1562,
          "velocity": 100
        },
        {
          "pitch": 58,
          "onset": 77.0,
          "duration": 0.5,
          "velocity": 100
        },
        {
          "pitch": 74,
          "onset": 77.0,
          "duration": 0.1562,
          "velocity": 100
        },
        {
          "pitch": 76,
          "onset": 77.1562,
          "duration": 0.1562,
          "velocity": 100
        },
        {
          "pitch": 77,
          "onset": 77.3438,
          "duration": 0.1562,
          "velocity": 100
        },
        {
          "pitch": 50,
          "onset": 77.5,
          "duration": 0.5,
          "velocity": 100
        },
        {
          "pitch": 76,
          "onset": 77.5,
          "duration": 0.1562,
          "velocity": 100
        },
        {
          "pitch": 77,
          "onset": 77.6562,
          "duration": 0.1562,
          "velocity": 100
        },
        {
          "pitch": 79,
          "onset": 77.8438,
          "duration": 0.9062,
          "velocity": 100
        },
        {
          "pitch": 49,
          "onset": 78.0,
          "duration": 0.25,
          "velocity": 100
        },
        {
          "pitch": 69,
          "onset": 78.0,
          "duration": 1.9688,
          "velocity": 100
        },
        {
          "pitch": 57,
          "onset": 78.25,
          "duration": 0.25,
          "velocity": 100
        },
        {
          "pitch": 59,
          "onset": 78.5,
          "duration": 0.25,
          "velocity": 100
        },
        {
          "pitch": 61,
          "onset": 78.75,
          "duration": 0.25,
          "velocity": 100
        },
        {
          "pitch": 77,
          "onset": 78.75,
          "duration": 0.125,
          "velocity": 100
        },
        {
          "pitch": 76,
          "onset": 78.875,
          "duration": 0.125,
          "velocity": 100
        },
        {
          "pitch": 62,
          "onset": 79.0,
          "duration": 0.25,
          "velocity": 100
        },
        {
          "pitch": 77,
          "onset": 79.0,
          "duration": 0.1562,
          "velocity": 100
        },
        {
          "pitch": 76,
          "onset": 79.1562,
          "duration": 0.1562,
          "velocity": 100
        },
        {
          "pitch": 64,
          "onset": 79.25,
          "duration": 0.25,
          "velocity": 100
        },
        {
          "pitch": 74,
          "onset": 79.3438,
          "duration": 0.1562,
          "velocity": 100
        },
        {
          "pitch": 65,
          "onset": 79.5,
          "duration": 0.6562,
          "velocity": 100
        },
        {
          "pitch": 76,
          "onset": 79.5,
          "duration": 0.1562,
          "velocity": 100
        },
        {
          "pitch": 74,
          "onset": 79.6562,
          "duration": 0.1562,
          "velocity": 100
        },
        {
          "pitch": 73,
          "onset": 79.8438,
          "duration": 0.1562,
          "velocity": 100
        },
        {
          "pitch": 74,
          "onset": 80.0,
          "duration": 0.1562,
          "velocity": 100
        },
        {
          "pitch": 64,
          "onset": 80.1562,
          "duration": 0.1562,
          "velocity": 100
        },
        {
          "pitch": 72,
          "onset": 80.1562,
          "duration": 0.1562,
          "velocity": 100
        },
        {
          "pitch": 62,
          "onset": 80.3438,
          "duration": 0.1562,
          "velocity": 100
        },
        {
          "pitch": 70,
          "onset": 80.3438,
          "duration": 0.1562,
          "velocity": 100
        },
        {
          "pitch": 64,
          "onset": 80.5,
          "duration": 0.1562,
          "velocity": 100
        },
        {
          "pitch": 72,
          "onset": 80.5,
          "duration": 0.1562,
          "velocity": 100
        },
        {
          "pitch": 65,
          "onset": 80.6562,
          "duration": 0.1562,
          "velocity": 100
        },
        {
          "pitch": 70,
          "onset": 80.6562,
          "duration": 0.1562,
          "velocity": 100
        },
        {
          "pitch": 67,
          "onset": 80.8438,
          "duration": 0.1562,
          "velocity": 100
        },
        {
          "pitch": 69,
          "onset": 80.8438,
          "duration": 0.1562,
          "velocity": 100
        },
        {
          "pitch": 61,
          "onset": 81.0,
          "duration": 0.5,
          "velocity": 100
        },
        {
          "pitch": 70,
          "onset": 81.0,
          "duration": 0.1562,
          "velocity": 100
        },
        {
          "pitch": 69,
          "onset": 81.1562,
          "duration": 0.1562,
          "velocity": 100
        },
        {
          "pitch": 67,
          "onset": 81.3438,
          "duration": 0.1562,
          "velocity": 100
        },
        {
          "pitch": 53,
          "onset": 81.5,
          "duration": 0.25,
          "velocity": 100
        },
        {
          "pitch": 69,
          "onset": 81.5,
          "duration": 0.6562,
          "velocity": 100
        },
        {
          "pitch": 52,
          "onset": 81.75,
          "duration": 0.25,
          "velocity": 100
        },
        {
          "pitch": 53,
          "onset": 82.0,
          "duration": 0.5,
          "velocity": 100
        },
        {
          "pitch": 81,
          "onset": 82.1562,
          "duration": 0.1562,
          "velocity": 100
        },
        {
          "pitch": 79,
          "onset": 82.3438,
          "duration": 0.1562,
          "velocity": 100
        },
        {
          "pitch": 58,
          "onset": 82.5,
          "duration": 0.5,
          "velocity": 100
        },
        {
          "pitch": 77,
          "onset": 82.5,
          "duration": 0.1562,
          "velocity": 100
        },
        {
          "pitch": 76,
          "onset": 82.6562,
          "duration": 0.1562,
          "velocity": 100
        },
        {
          "pitch": 74,
          "onset": 82.8438,
          "duration": 0.3438,
          "velocity": 100
        },
        {
          "pitch": 52,
          "onset": 83.0,
          "duration": 0.5,
          "velocity": 100
        },
        {
          "pitch": 79,
          "onset": 83.1562,
          "duration": 0.1562,
          "velocity": 100
        },
        {
          "pitch": 77,
          "onset": 83.3438,
          "duration": 0.1562,
          "velocity": 100
        },
        {
          "pitch": 57,
          "onset": 83.5,
          "duration": 0.5,
          "velocity": 100
        },
        {
          "pitch": 76,
          "onset": 83.5,
          "duration": 0.1562,
          "velocity": 100
        },
        {
          "pitch": 74,
          "onset": 83.6562,
          "duration": 0.1562,
          "velocity": 100
        },
        {
          "pitch": 73,
          "onset": 83.8438,
          "duration": 0.1562,
          "velocity": 100
        },
        {
          "pitch": 53,
          "onset": 84.0,
          "duration": 0.5,
          "velocity": 100
        },
        {
          "pitch": 74,
          "onset": 84.0,
          "duration": 0.1562,
          "velocity": 100
        },
        {
          "pitch": 72,
          "onset": 84.1562,
          "duration": 0.1562,
          "velocity": 100
        },
        {
          "pitch": 70,
          "onset": 84.3438,
          "duration": 0.1562,
          "velocity": 100
        },
        {
          "pitch": 62,
          "onset": 84.5,
          "duration": 0.5,
          "velocity": 100
        },
        {
          "pitch": 69,
          "onset": 84.5,
          "duration": 0.1562,
          "velocity": 100
        },
        {
          "pitch": 67,
          "onset": 84.6562,
          "duration": 0.1562,
          "velocity": 100
        },
        {
          "pitch": 65,
          "onset": 84.8438,
          "duration": 0.1562,
          "velocity": 100
        },
        {
          "pitch": 55,
          "onset": 85.0,
          "duration": 0.5,
          "velocity": 100
        },
        {
          "pitch": 70,
          "onset": 85.0,
          "duration": 0.1562,
          "velocity": 100
        },
        {
          "pitch": 69,
          "onset": 85.1562,
          "duration": 0.1562,
          "velocity": 100
        },
        {
          "pitch": 67,
          "onset": 85.3438,
          "duration": 0.1562,
          "velocity": 100
        },
        {
          "pitch": 56,
          "onset": 85.5,
          "duration": 0.5,
          "velocity": 100
        },
        {
          "pitch": 65,
          "onset": 85.5,
          "duration": 0.1562,
          "velocity": 100
        },
        {
          "pitch": 64,
          "onset": 85.6562,
          "duration": 0.1562,
          "velocity": 100
        },
        {
          "pitch": 62,
          "onset": 85.8438,
          "duration": 0.1562,
          "velocity": 100
        },
        {
          "pitch": 57,
          "onset": 86.0,
          "duration": 0.5,
          "velocity": 100
        },
        {
          "pitch": 69,
          "onset": 86.0,
          "duration": 0.5,
          "velocity": 100
        },
        {
          "pitch": 64,
          "onset": 86.25,
          "duration": 0.25,
          "velocity": 100
        },
        {
          "pitch": 45,
          "onset": 86.5,
          "duration": 0.5,
          "velocity": 100
        },
        {
          "pitch": 67,
          "onset": 86.5,
          "duration": 0.5,
          "velocity": 100
        },
        {
          "pitch": 73,
          "onset": 86.75,
          "duration": 0.25,
          "velocity": 100
        },
        {
          "pitch": 50,
          "onset": 87.0,
          "duration": 0.25,
          "velocity": 100
        },
        {
          "pitch": 65,
          "onset": 87.0,
          "duration": 0.5,
          "velocity": 100
        },
        {
          "pitch": 69,
          "onset": 87.0,
          "duration": 1.9688,
          "velocity": 100
        },
        {
          "pitch": 74,
          "onset": 87.0,
          "duration": 0.5,
          "velocity": 100
        },
        {
          "pitch": 53,
          "onset": 87.25,
          "duration": 0.25,
          "velocity": 100
        },
        {
          "pitch": 55,
          "onset": 87.5,
          "duration": 0.25,
          "velocity": 100
        },
        {
          "pitch": 74,
          "onset": 87.5,
          "duration": 0.25,
          "velocity": 100
        },
        {
          "pitch": 57,
          "onset": 87.75,
          "duration": 0.25,
          "velocity": 100
        },
        {
          "pitch": 72,
          "onset": 87.75,
          "duration": 0.25,
          "velocity": 100
        },
        {
          "pitch": 58,
          "onset": 88.0,
          "duration": 0.25,
          "velocity": 100
        },
        {
          "pitch": 74,
          "onset": 88.0,
          "duration": 0.5,
          "velocity": 100
        },
        {
          "pitch": 60,
          "onset": 88.25,
          "duration": 0.25,
          "velocity": 100
        },
        {
          "pitch": 62,
          "onset": 88.5,
          "duration": 0.6562,
          "velocity": 100
        },
        {
          "pitch": 79,
          "onset": 88.5,
          "duration": 0.5,
          "velocity": 100
        },
        {
          "pitch": 67,
          "onset": 89.0,
          "duration": 0.5,
          "velocity": 100
        },
        {
          "pitch": 70,
          "onset": 89.0,
          "duration": 0.5,
          "velocity": 100
        },
        {
          "pitch": 60,
          "onset": 89.1562,
          "duration": 0.1562,
          "velocity": 100
        },
        {
          "pitch": 58,
          "onset": 89.3438,
          "duration": 0.1562,
          "velocity": 100
        },
        {
          "pitch": 60,
          "onset": 89.5,
          "duration": 0.1562,
          "velocity": 100
        },
        {
          "pitch": 69,
          "onset": 89.5,
          "duration": 0.5,
          "velocity": 100
        },
        {
          "pitch": 75,
          "onset": 89.5,
          "duration": 0.75,
          "velocity": 100
        },
        {
          "pitch": 62,
          "onset": 89.6562,
          "duration": 0.1562,
          "velocity": 100
        },
        {
          "pitch": 63,
          "onset": 89.8438,
          "duration": 0.1562,
          "velocity": 100
        },
        {
          "pitch": 55,
          "onset": 90.0,
          "duration": 0.5,
          "velocity": 100
        },
        {
          "pitch": 70,
          "onset": 90.0,
          "duration": 1.0,
          "velocity": 100
        },
        {
          "pitch": 74,
          "onset": 90.25,
          "duration": 0.25,
          "velocity": 100
        },
        {
          "pitch": 53,
          "onset": 90.5,
          "duration": 0.25,
          "velocity": 100
        },
        {
          "pitch": 79,
          "onset": 90.5,
          "duration": 0.6562,
          "velocity": 100
        },
        {
          "pitch": 52,
          "onset": 90.75,
          "duration": 0.25,
          "velocity": 100
        },
        {
          "pitch": 53,
          "onset": 91.0,
          "duration": 0.5,
          "velocity": 100
        },
        {
          "pitch": 69,
          "onset": 91.0,
          "duration": 1.0,
          "velocity": 100
        },
        {
          "pitch": 77,
          "onset": 91.1562,
          "duration": 0.1562,
          "velocity": 100
        },
        {
          "pitch": 76,
          "onset": 91.3438,
          "duration": 0.1562,
          "velocity": 100
        },
        {
          "pitch": 58,
          "onset": 91.5,
          "duration": 0.5,
          "velocity": 100
        },
        {
          "pitch": 74,
          "onset": 91.5,
          "duration": 0.1562,
          "velocity": 100
        },
        {
          "pitch": 73,
          "onset": 91.6562,
          "duration": 0.1562,
          "velocity": 100
        },
        {
          "pitch": 74,
          "onset": 91.8438,
          "duration": 0.3438,
          "velocity": 100
        },
        {
          "pitch": 52,
          "onset": 92.0,
          "duration": 0.5,
          "velocity": 100
        },
        {
          "pitch": 67,
          "onset": 92.0,
          "duration": 1.0,
          "velocity": 100
        },
        {
          "pitch": 76,
          "onset": 92.1562,
          "duration": 0.1562,
          "velocity": 100
        },
        {
          "pitch": 74,
          "onset": 92.3438,
          "duration": 0.1562,
          "velocity": 100
        },
        {
          "pitch": 57,
          "onset": 92.5,
          "duration": 0.5,
          "velocity": 100
        },
        {
          "pitch": 72,
          "onset": 92.5,
          "duration": 0.1562,
          "velocity": 100
        },
        {
          "pitch": 71,
          "onset": 92.6562,
          "duration": 0.1562,
          "velocity": 100
        },
        {
          "pitch": 72,
          "onset": 92.8438,
          "duration": 0.6562,
          "velocity": 100
        },
        {
          "pitch": 50,
          "onset": 93.0,
          "duration": 0.25,
          "velocity": 100
        },
        {
          "pitch": 65,
          "onset": 93.0,
          "duration": 1.0,
          "velocity": 100
        },
        {
          "pitch": 38,
          "onset": 93.25,
          "duration": 0.25,
          "velocity": 100
        },
        {
          "pitch": 40,
          "onset": 93.5,
          "duration": 0.25,
          "velocity": 100
        },
        {
          "pitch": 70,
          "onset": 93.5,
          "duration": 0.25,
          "velocity": 100
        },
        {
          "pitch": 41,
          "onset": 93.75,
          "duration": 0.25,
          "velocity": 100
        },
        {
          "pitch": 69,
          "onset": 93.75,
          "duration": 0.25,
          "velocity": 100
        },
        {
          "pitch": 43,
          "onset": 94.0,
          "duration": 0.25,
          "velocity": 100
        },
        {
          "pitch": 62,
          "onset": 94.0,
          "duration": 1.0,
          "velocity": 100
        },
        {
          "pitch": 70,
          "onset": 94.0,
          "duration": 0.5,
          "velocity": 100
        },
        {
          "pitch": 45,
          "onset": 94.25,
          "duration": 0.25,
          "velocity": 100
        },
        {
          "pitch": 46,
          "onset": 94.5,
          "duration": 0.6562,
          "velocity": 100
        },
        {
          "pitch": 74,
          "onset": 94.5,
          "duration": 0.5,
          "velocity": 100
        },
        {
          "pitch": 64,
          "onset": 95.0,
          "duration": 1.0,
          "velocity": 100
        },
        {
          "pitch": 67,
          "onset": 95.0,
          "duration": 0.5,
          "velocity": 100
        },
        {
          "pitch": 45,
          "onset": 95.1562,
          "duration": 0.1562,
          "velocity": 100
        },
        {
          "pitch": 43,
          "onset": 95.3438,
          "duration": 0.1562,
          "velocity": 100
        },
        {
          "pitch": 45,
          "onset": 95.5,
          "duration": 0.1562,
          "velocity": 100
        },
        {
          "pitch": 72,
          "onset": 95.5,
          "duration": 0.5,
          "velocity": 100
        },
        {
          "pitch": 46,
          "onset": 95.6562,
          "duration": 0.1562,
          "velocity": 100
        },
        {
          "pitch": 48,
          "onset": 95.8438,
          "duration": 0.3438,
          "velocity": 100
        },
        {
          "pitch": 65,
          "onset": 96.0,
          "duration": 2.9688,
          "velocity": 100
        },
        {
          "pitch": 70,
          "onset": 96.0,
          "duration": 0.1562,
          "velocity": 100
        },
        {
          "pitch": 46,
          "onset": 96.1562,
          "duration": 0.1562,
          "velocity": 100
        },
        {
          "pitch": 69,
          "onset": 96.1562,
          "duration": 0.3438,
          "velocity": 100
        },
        {
          "pitch": 45,
          "onset": 96.3438,
          "duration": 0.1562,
          "velocity": 100
        },
        {
          "pitch": 46,
          "onset": 96.5,
          "duration": 0.1562,
          "velocity": 100
        },
        {
          "pitch": 74,
          "onset": 96.5,
          "duration": 0.25,
          "velocity": 100
        },
        {
          "pitch": 48,
          "onset": 96.6562,
          "duration": 0.1562,
          "velocity": 100
        },
        {
          "pitch": 72,
          "onset": 96.75,
          "duration": 0.25,
          "velocity": 100
        },
        {
          "pitch": 50,
          "onset": 96.8438,
          "duration": 0.3438,
          "velocity": 100
        },
        {
          "pitch": 70,
          "onset": 97.0,
          "duration": 0.5,
          "velocity": 100
        },
        {
          "pitch": 48,
          "onset": 97.1562,
          "duration": 0.1562,
          "velocity": 100
        },
        {
          "pitch": 46,
          "onset": 97.3438,
          "duration": 0.1562,
          "velocity": 100
        },
        {
          "pitch": 48,
          "onset": 97.5,
          "duration": 0.1562,
          "velocity": 100
        },
        {
          "pitch": 75,
          "onset": 97.5,
          "duration": 0.5,
          "velocity": 100
        },
        {
          "pitch": 50,
          "onset": 97.6562,
          "duration": 0.1562,
          "velocity": 100
        },
        {
          "pitch": 51,
          "onset": 97.8438,
          "duration": 0.3438,
          "velocity": 100
        },
        {
          "pitch": 72,
          "onset": 98.0,
          "duration": 0.5,
          "velocity": 100
        },
        {
          "pitch": 50,
          "onset": 98.1562,
          "duration": 0.1562,
          "velocity": 100
        },
        {
          "pitch": 48,
          "onset": 98.3438,
          "duration": 0.1562,
          "velocity": 100
        },
        {
          "pitch": 50,
          "onset": 98.5,
          "duration": 0.1562,
          "velocity": 100
        },
        {
          "pitch": 77,
          "onset": 98.5,
          "duration": 0.5,
          "velocity": 100
        },
        {
          "pitch": 51,
          "onset": 98.6562,
          "duration": 0.1562,
          "velocity": 100
        },
        {
          "pitch": 53,
          "onset": 98.8438,
          "duration": 0.4062,
          "velocity": 100
        },
        {
          "pitch": 70,
          "onset": 99.0,
          "duration": 0.1562,
          "velocity": 100
        },
        {
          "pitch": 69,
          "onset": 99.1562,
          "duration": 0.1562,
          "velocity": 100
        },
        {
          "pitch": 52,
          "onset": 99.25,
          "duration": 0.25,
          "velocity": 100
        },
        {
          "pitch": 70,
          "onset": 99.3438,
          "duration": 0.1562,
          "velocity": 100
        },
        {
          "pitch": 50,
          "onset": 99.5,
          "duration": 0.25,
          "velocity": 100
        },
        {
          "pitch": 79,
          "onset": 99.5,
          "duration": 0.6562,
          "velocity": 100
        },
        {
          "pitch": 48,
          "onset": 99.75,
          "duration": 0.25,
          "velocity": 100
        },
        {
          "pitch": 53,
          "onset": 100.0,
          "duration": 0.5,
          "velocity": 100
        },
        {
          "pitch": 69,
          "onset": 100.1562,
          "duration": 0.1562,
          "velocity": 100
        },
        {
          "pitch": 70,
          "onset": 100.3438,
          "duration": 0.1562,
          "velocity": 100
        },
        {
          "pitch": 58,
          "onset": 100.5,
          "duration": 0.5,
          "velocity": 100
        },
        {
          "pitch": 72,
          "onset": 100.5,
          "duration": 0.1562,
          "velocity": 100
        },
        {
          "pitch": 74,
          "onset": 100.6562,
          "duration": 0.1562,
          "velocity": 100
        },
        {
          "pitch": 76,
          "onset": 100.8438,
          "duration": 0.1562,
          "velocity": 100
        },
        {
          "pitch": 50,
          "onset": 101.0,
          "duration": 0.5,
          "velocity": 100
        },
        {
          "pitch": 77,
          "onset": 101.0,
          "duration": 0.1562,
          "velocity": 100
        },
        {
          "pitch": 76,
          "onset": 101.1562,
          "duration": 0.1562,
          "velocity": 100
        },
        {
          "pitch": 74,
          "onset": 101.3438,
          "duration": 0.1562,
          "velocity": 100
        },
        {
          "pitch": 53,
          "onset": 101.5,
          "duration": 0.5,
          "velocity": 100
        },
        {
          "pitch": 72,
          "onset": 101.5,
          "duration": 0.1562,
          "velocity": 100
        },
        {
          "pitch": 70,
          "onset": 101.6562,
          "duration": 0.1562,
          "velocity": 100
        },
        {
          "pitch": 69,
          "onset": 101.8438,
          "duration": 0.1562,
          "velocity": 100
        },
        {
          "pitch": 58,
          "onset": 102.0,
          "duration": 0.5,
          "velocity": 100
        },
        {
          "pitch": 74,
          "onset": 102.0,
          "duration": 0.1562,
          "velocity": 100
        },
        {
          "pitch": 72,
          "onset": 102.1562,
          "duration": 0.1562,
          "velocity": 100
        },
        {
          "pitch": 70,
          "onset": 102.3438,
          "duration": 0.1562,
          "velocity": 100
        },
        {
          "pitch": 62,
          "onset": 102.5,
          "duration": 0.5,
          "velocity": 100
        },
        {
          "pitch": 69,
          "onset": 102.5,
          "duration": 0.1562,
          "velocity": 100
        },
        {
          "pitch": 67,
          "onset": 102.6562,
          "duration": 0.1562,
          "velocity": 100
        },
        {
          "pitch": 65,
          "onset": 102.8438,
          "duration": 0.1562,
          "velocity": 100
        },
        {
          "pitch": 55,
          "onset": 103.0,
          "duration": 0.5,
          "velocity": 100
        },
        {
          "pitch": 70,
          "onset": 103.0,
          "duration": 0.1562,
          "velocity": 100
        },
        {
          "pitch": 69,
          "onset": 103.1562,
          "duration": 0.1562,
          "velocity": 100
        },
        {
          "pitch": 67,
          "onset": 103.3438,
          "duration": 0.1562,
          "velocity": 100
        },
        {
          "pitch": 58,
          "onset": 103.5,
          "duration": 0.5,
          "velocity": 100
        },
        {
          "pitch": 65,
          "onset": 103.5,
          "duration": 0.1562,
          "velocity": 100
        },
        {
          "pitch": 64,
          "onset": 103.6562,
          "duration": 0.1562,
          "velocity": 100
        },
        {
          "pitch": 62,
          "onset": 103.8438,
          "duration": 0.1562,
          "velocity": 100
        },
        {
          "pitch": 52,
          "onset": 104.0,
          "duration": 0.5,
          "velocity": 100
        },
        {
          "pitch": 60,
          "onset": 104.0,
          "duration": 0.1562,
          "velocity": 100
        },
        {
          "pitch": 67,
          "onset": 104.1562,
          "duration": 0.1562,
          "velocity": 100
        },
        {
          "pitch": 69,
          "onset": 104.3438,
          "duration": 0.1562,
          "velocity": 100
        },
        {
          "pitch": 48,
          "onset": 104.5,
          "duration": 0.5,
          "velocity": 100
        },
        {
          "pitch": 70,
          "onset": 104.5,
          "duration": 0.1562,
          "velocity": 100
        },
        {
          "pitch": 69,
          "onset": 104.6562,
          "duration": 0.1562,
          "velocity": 100
        },
        {
          "pitch": 67,
          "onset": 104.8438,
          "duration": 0.1562,
          "velocity": 100
        },
        {
          "pitch": 53,
          "onset": 105.0,
          "duration": 0.5,
          "velocity": 100
        },
        {
          "pitch": 69,
          "onset": 105.0,
          "duration": 0.1562,
          "velocity": 100
        },
        {
          "pitch": 67,
          "onset": 105.1562,
          "duration": 0.1562,
          "velocity": 100
        },
        {
          "pitch": 65,
          "onset": 105.3438,
          "duration": 0.1562,
          "velocity": 100
        },
        {
          "pitch": 48,
          "onset": 105.5,
          "duration": 0.25,
          "velocity": 100
        },
        {
          "pitch": 67,
          "onset": 105.5,
          "duration": 0.1562,
          "velocity": 100
        },
        {
          "pitch": 65,
          "onset": 105.6562,
          "duration": 0.1562,
          "velocity": 100
        },
        {
          "pitch": 46,
          "onset": 105.75,
          "duration": 0.25,
          "velocity": 100
        },
        {
          "pitch": 64,
          "onset": 105.8438,
          "duration": 0.1562,
          "velocity": 100
        },
        {
          "pitch": 45,
          "onset": 106.0,
          "duration": 0.5,
          "velocity": 100
        },
        {
          "pitch": 65,
          "onset": 106.0,
          "duration": 0.1562,
          "velocity": 100
        },
        {
          "pitch": 69,
          "onset": 106.1562,
          "duration": 0.1562,
          "velocity": 100
        },
        {
          "pitch": 67,
          "onset": 106.3438,
          "duration": 0.1562,
          "velocity": 100
        },
        {
          "pitch": 50,
          "onset": 106.5,
          "duration": 0.5,
          "velocity": 100
        },
        {
          "pitch": 65,
          "onset": 106.5,
          "duration": 0.1562,
          "velocity": 100
        },
        {
          "pitch": 64,
          "onset": 106.6562,
          "duration": 0.1562,
          "velocity": 100
        },
        {
          "pitch": 62,
          "onset": 106.8438,
          "duration": 0.1562,
          "velocity": 100
        },
        {
          "pitch": 43,
          "onset": 107.0,
          "duration": 0.5,
          "velocity": 100
        },
        {
          "pitch": 60,
          "onset": 107.0,
          "duration": 0.1562,
          "velocity": 100
        },
        {
          "pitch": 58,
          "onset": 107.1562,
          "duration": 0.1562,
          "velocity": 100
        },
        {
          "pitch": 57,
          "onset": 107.3438,
          "duration": 0.1562,
          "velocity": 100
        },
        {
          "pitch": 48,
          "onset": 107.5,
          "duration": 0.5,
          "velocity": 100
        },
        {
          "pitch": 58,
          "onset": 107.5,
          "duration": 0.1562,
          "velocity": 100
        },
        {
          "pitch": 57,
          "onset": 107.6562,
          "duration": 0.1562,
          "velocity": 100
        },
        {
          "pitch": 55,
          "onset": 107.8438,
          "duration": 0.1562,
          "velocity": 100
        },
        {
          "pitch": 41,
          "onset": 108.0,
          "duration": 1.0,
          "velocity": 100
        },
        {
          "pitch": 57,
          "onset": 108.0,
          "duration": 0.5,
          "velocity": 100
        },
        {
          "pitch": 53,
          "onset": 108.5,
          "duration": 0.5,
          "velocity": 100
        },
        {
          "pitch": 48,
          "onset": 109.0,
          "duration": 1.0,
          "velocity": 100
        },
        {
          "pitch": 50,
          "onset": 110.0,
          "duration": 1.0,
          "velocity": 100
        },
        {
          "pitch": 51,
          "onset": 111.0,
          "duration": 1.5,
          "velocity": 100
        },
        {
          "pitch": 67,
          "onset": 112.0,
          "duration": 1.0,
          "velocity": 100
        },
        {
          "pitch": 53,
          "onset": 112.5,
          "duration": 0.25,
          "velocity": 100
        },
        {
          "pitch": 55,
          "onset": 112.75,
          "duration": 0.25,
          "velocity": 100
        },
        {
          "pitch": 53,
          "onset": 113.0,
          "duration": 0.1562,
          "velocity": 100
        },
        {
          "pitch": 69,
          "onset": 113.0,
          "duration": 1.0,
          "velocity": 100
        },
        {
          "pitch": 51,
          "onset": 113.1562,
          "duration": 0.1562,
          "velocity": 100
        },
        {
          "pitch": 50,
          "onset": 113.3438,
          "duration": 0.1562,
          "velocity": 100
        },
        {
          "pitch": 51,
          "onset": 113.5,
          "duration": 0.1562,
          "velocity": 100
        },
        {
          "pitch": 50,
          "onset": 113.6562,
          "duration": 0.1562,
          "velocity": 100
        },
        {
          "pitch": 48,
          "onset": 113.8438,
          "duration": 0.1562,
          "velocity": 100
        },
        {
          "pitch": 50,
          "onset": 114.0,
          "duration": 0.5,
          "velocity": 100
        },
        {
          "pitch": 70,
          "onset": 114.0,
          "duration": 1.5,
          "velocity": 100
        },
        {
          "pitch": 43,
          "onset": 114.5,
          "duration": 0.5,
          "velocity": 100
        },
        {
          "pitch": 55,
          "onset": 115.0,
          "duration": 2.5,
          "velocity": 100
        },
        {
          "pitch": 72,
          "onset": 115.5,
          "duration": 0.25,
          "velocity": 100
        },
        {
          "pitch": 74,
          "onset": 115.75,
          "duration": 0.25,
          "velocity": 100
        },
        {
          "pitch": 72,
          "onset": 116.0,
          "duration": 0.1562,
          "velocity": 100
        },
        {
          "pitch": 70,
          "onset": 116.1562,
          "duration": 0.1562,
          "velocity": 100
        },
        {
          "pitch": 69,
          "onset": 116.3438,
          "duration": 0.1562,
          "velocity": 100
        },
        {
          "pitch": 70,
          "onset": 116.5,
          "duration": 0.1562,
          "velocity": 100
        },
        {
          "pitch": 69,
          "onset": 116.6562,
          "duration": 0.1562,
          "velocity": 100
        },
        {
          "pitch": 67,
          "onset": 116.8438,
          "duration": 0.1562,
          "velocity": 100
        },
        {
          "pitch": 69,
          "onset": 117.0,
          "duration": 0.5,
          "velocity": 100
        },
        {
          "pitch": 53,
          "onset": 117.5,
          "duration": 0.25,
          "velocity": 100
        },
        {
          "pitch": 62,
          "onset": 117.5,
          "duration": 0.5,
          "velocity": 100
        },
        {
          "pitch": 52,
          "onset": 117.75,
          "duration": 0.25,
          "velocity": 100
        },
        {
          "pitch": 53,
          "onset": 118.0,
          "duration": 0.5,
          "velocity": 100
        },
        {
          "pitch": 74,
          "onset": 118.0,
          "duration": 1.5,
          "velocity": 100
        },
        {
          "pitch": 58,
          "onset": 118.5,
          "duration": 0.5,
          "velocity": 100
        },
        {
          "pitch": 52,
          "onset": 119.0,
          "duration": 0.5,
          "velocity": 100
        },
        {
          "pitch": 57,
          "onset": 119.5,
          "duration": 0.5,
          "velocity": 100
        },
        {
          "pitch": 73,
          "onset": 119.5,
          "duration": 0.5,
          "velocity": 100
        },
        {
          "pitch": 50,
          "onset": 120.0,
          "duration": 0.5,
          "velocity": 100
        },
        {
          "pitch": 77,
          "onset": 120.0,
          "duration": 0.5,
          "velocity": 100
        },
        {
          "pitch": 62,
          "onset": 120.5,
          "duration": 1.0,
          "velocity": 100
        },
        {
          "pitch": 70,
          "onset": 120.5,
          "duration": 0.25,
          "velocity": 100
        },
        {
          "pitch": 69,
          "onset": 120.75,
          "duration": 0.25,
          "velocity": 100
        },
        {
          "pitch": 70,
          "onset": 121.0,
          "duration": 0.5,
          "velocity": 100
        },
        {
          "pitch": 60,
          "onset": 121.5,
          "duration": 0.25,
          "velocity": 100
        },
        {
          "pitch": 75,
          "onset": 121.5,
          "duration": 0.5,
          "velocity": 100
        },
        {
          "pitch": 58,
          "onset": 121.75,
          "duration": 0.25,
          "velocity": 100
        },
        {
          "pitch": 60,
          "onset": 122.0,
          "duration": 0.5,
          "velocity": 100
        },
        {
          "pitch": 69,
          "onset": 122.0,
          "duration": 0.5,
          "velocity": 100
        },
        {
          "pitch": 65,
          "onset": 122.5,
          "duration": 0.5,
          "velocity": 100
        },
        {
          "pitch": 74,
          "onset": 122.5,
          "duration": 0.5,
          "velocity": 100
        },
        {
          "pitch": 58,
          "onset": 123.0,
          "duration": 0.5,
          "velocity": 100
        },
        {
          "pitch": 67,
          "onset": 123.0,
          "duration": 1.1562,
          "velocity": 100
        },
        {
          "pitch": 63,
          "onset": 123.5,
          "duration": 0.5,
          "velocity": 100
        },
        {
          "pitch": 57,
          "onset": 124.0,
          "duration": 0.5,
          "velocity": 100
        },
        {
          "pitch": 69,
          "onset": 124.1562,
          "duration": 0.1562,
          "velocity": 100
        },
        {
          "pitch": 70,
          "onset": 124.3438,
          "duration": 0.1562,
          "velocity": 100
        },
        {
          "pitch": 45,
          "onset": 124.5,
          "duration": 0.6562,
          "velocity": 100
        },
        {
          "pitch": 72,
          "onset": 124.5,
          "duration": 0.1562,
          "velocity": 100
        },
        {
          "pitch": 70,
          "onset": 124.6562,
          "duration": 0.1562,
          "velocity": 100
        },
        {
          "pitch": 69,
          "onset": 124.8438,
          "duration": 0.1562,
          "velocity": 100
        },
        {
          "pitch": 77,
          "onset": 125.0,
          "duration": 0.5,
          "velocity": 100
        },
        {
          "pitch": 46,
          "onset": 125.1562,
          "duration": 0.1562,
          "velocity": 100
        },
        {
          "pitch": 48,
          "onset": 125.3438,
          "duration": 0.1562,
          "velocity": 100
        },
        {
          "pitch": 50,
          "onset": 125.5,
          "duration": 0.1562,
          "velocity": 100
        },
        {
          "pitch": 65,
          "onset": 125.5,
          "duration": 0.6562,
          "velocity": 100
        },
        {
          "pitch": 48,
          "onset": 125.6562,
          "duration": 0.1562,
          "velocity": 100
        },
        {
          "pitch": 46,
          "onset": 125.8438,
          "duration": 0.1562,
          "velocity": 100
        },
        {
          "pitch": 55,
          "onset": 126.0,
          "duration": 0.5,
          "velocity": 100
        },
        {
          "pitch": 67,
          "onset": 126.1562,
          "duration": 0.1562,
          "velocity": 100
        },
        {
          "pitch": 69,
          "onset": 126.3438,
          "duration": 0.1562,
          "velocity": 100
        },
        {
          "pitch": 43,
          "onset": 126.5,
          "duration": 0.6562,
          "velocity": 100
        },
        {
          "pitch": 70,
          "onset": 126.5,
          "duration": 0.1562,
          "velocity": 100
        },
        {
          "pitch": 69,
          "onset": 126.6562,
          "duration": 0.1562,
          "velocity": 100
        },
        {
          "pitch": 67,
          "onset": 126.8438,
          "duration": 0.1562,
          "velocity": 100
        },
        {
          "pitch": 75,
          "onset": 127.0,
          "duration": 0.25,
          "velocity": 100
        },
        {
          "pitch": 45,
          "onset": 127.1562,
          "duration": 0.1562,
          "velocity": 100
        },
        {
          "pitch": 64,
          "onset": 127.25,
          "duration": 0.25,
          "velocity": 100
        },
        {
          "pitch": 46,
          "onset": 127.3438,
          "duration": 0.1562,
          "velocity": 100
        },
        {
          "pitch": 48,
          "onset": 127.5,
          "duration": 0.1562,
          "velocity": 100
        },
        {
          "pitch": 75,
          "onset": 127.5,
          "duration": 0.6562,
          "velocity": 100
        },
        {
          "pitch": 46,
          "onset": 127.6562,
          "duration": 0.1562,
          "velocity": 100
        },
        {
          "pitch": 45,
          "onset": 127.8438,
          "duration": 0.1562,
          "velocity": 100
        },
        {
          "pitch": 53,
          "onset": 128.0,
          "duration": 0.25,
          "velocity": 100
        },
        {
          "pitch": 72,
          "onset": 128.1562,
          "duration": 0.1562,
          "velocity": 100
        },
        {
          "pitch": 41,
          "onset": 128.25,
          "duration": 0.25,
          "velocity": 100
        },
        {
          "pitch": 70,
          "onset": 128.3438,
          "duration": 0.1562,
          "velocity": 100
        },
        {
          "pitch": 53,
          "onset": 128.5,
          "duration": 0.6562,
          "velocity": 100
        },
        {
          "pitch": 69,
          "onset": 128.5,
          "duration": 0.1562,
          "velocity": 100
        },
        {
          "pitch": 70,
          "onset": 128.6562,
          "duration": 0.1562,
          "velocity": 100
        },
        {
          "pitch": 72,
          "onset": 128.8438,
          "duration": 0.1562,
          "velocity": 100
        },
        {
          "pitch": 74,
          "onset": 129.0,
          "duration": 0.5,
          "velocity": 100
        },
        {
          "pitch": 58,
          "onset": 129.1562,
          "duration": 0.1562,
          "velocity": 100
        },
        {
          "pitch": 60,
          "onset": 129.3438,
          "duration": 0.1562,
          "velocity": 100
        },
        {
          "pitch": 62,
          "onset": 129.5,
          "duration": 0.1562,
          "velocity": 100
        },
        {
          "pitch": 70,
          "onset": 129.5,
          "duration": 0.5,
          "velocity": 100
        },
        {
          "pitch": 60,
          "onset": 129.6562,
          "duration": 0.1562,
          "velocity": 100
        },
        {
          "pitch": 58,
          "onset": 129.8438,
          "duration": 0.1562,
          "velocity": 100
        },
        {
          "pitch": 65,
          "onset": 130.0,
          "duration": 0.1562,
          "velocity": 100
        },
        {
          "pitch": 69,
          "onset": 130.0,
          "duration": 0.5,
          "velocity": 100
        },
        {
          "pitch": 53,
          "onset": 130.1562,
          "duration": 0.1562,
          "velocity": 100
        },
        {
          "pitch": 55,
          "onset": 130.3438,
          "duration": 0.1562,
          "velocity": 100
        },
        {
          "pitch": 57,
          "onset": 130.5,
          "duration": 0.1562,
          "velocity": 100
        },
        {
          "pitch": 65,
          "onset": 130.5,
          "duration": 0.5,
          "velocity": 100
        },
        {
          "pitch": 55,
          "onset": 130.6562,
          "duration": 0.1562,
          "velocity": 100
        },
        {
          "pitch": 53,
          "onset": 130.8438,
          "duration": 0.1562,
          "velocity": 100
        },
        {
          "pitch": 58,
          "onset": 131.0,
          "duration": 0.1562,
          "velocity": 100
        },
        {
          "pitch": 62,
          "onset": 131.0,
          "duration": 0.5,
          "velocity": 100
        },
        {
          "pitch": 65,
          "onset": 131.0,
          "duration": 1.0,
          "velocity": 100
        },
        {
          "pitch": 50,
          "onset": 131.1562,
          "duration": 0.1562,
          "velocity": 100
        },
        {
          "pitch": 48,
          "onset": 131.3438,
          "duration": 0.1562,
          "velocity": 100
        },
        {
          "pitch": 46,
          "onset": 131.5,
          "duration": 0.1562,
          "velocity": 100
        },
        {
          "pitch": 74,
          "onset": 131.5,
          "duration": 0.75,
          "velocity": 100
        },
        {
          "pitch": 48,
          "onset": 131.6562,
          "duration": 0.1562,
          "velocity": 100
        },
        {
          "pitch": 50,
          "onset": 131.8438,
          "duration": 0.1562,
          "velocity": 100
        },
        {
          "pitch": 51,
          "onset": 132.0,
          "duration": 1.1562,
          "velocity": 100
        },
        {
          "pitch": 67,
          "onset": 132.0,
          "duration": 1.9688,
          "velocity": 100
        },
        {
          "pitch": 72,
          "onset": 132.25,
          "duration": 0.25,
          "velocity": 100
        },
        {
          "pitch": 70,
          "onset": 132.5,
          "duration": 0.25,
          "velocity": 100
        },
        {
          "pitch": 69,
          "onset": 132.75,
          "duration": 0.25,
          "velocity": 100
        },
        {
          "pitch": 70,
          "onset": 133.0,
          "duration": 0.5,
          "velocity": 100
        },
        {
          "pitch": 50,
          "onset": 133.1562,
          "duration": 0.1562,
          "velocity": 100
        },
        {
          "pitch": 48,
          "onset": 133.3438,
          "duration": 0.1562,
          "velocity": 100
        },
        {
          "pitch": 46,
          "onset": 133.5,
          "duration": 0.1562,
          "velocity": 100
        },
        {
          "pitch": 75,
          "onset": 133.5,
          "duration": 0.5,
          "velocity": 100
        },
        {
          "pitch": 45,
          "onset": 133.6562,
          "duration": 0.1562,
          "velocity": 100
        },
        {
          "pitch": 43,
          "onset": 133.8438,
          "duration": 0.1562,
          "velocity": 100
        },
        {
          "pitch": 42,
          "onset": 134.0,
          "duration": 0.1562,
          "velocity": 100
        },
        {
          "pitch": 69,
          "onset": 134.0,
          "duration": 1.0,
          "velocity": 100
        },
        {
          "pitch": 45,
          "onset": 134.1562,
          "duration": 0.1562,
          "velocity": 100
        },
        {
          "pitch": 43,
          "onset": 134.3438,
          "duration": 0.1562,
          "velocity": 100
        },
        {
          "pitch": 42,
          "onset": 134.5,
          "duration": 0.1562,
          "velocity": 100
        },
        {
          "pitch": 74,
          "onset": 134.5,
          "duration": 0.5,
          "velocity": 100
        },
        {
          "pitch": 40,
          "onset": 134.6562,
          "duration": 0.1562,
          "velocity": 100
        },
        {
          "pitch": 38,
          "onset": 134.8438,
          "duration": 0.1562,
          "velocity": 100
        },
        {
          "pitch": 43,
          "onset": 135.0,
          "duration": 0.5,
          "velocity": 100
        },
        {
          "pitch": 60,
          "onset": 135.0,
          "duration": 0.25,
          "velocity": 100
        },
        {
          "pitch": 70,
          "onset": 135.0,
          "duration": 1.1562,
          "velocity": 100
        },
        {
          "pitch": 65,
          "onset": 135.25,
          "duration": 0.25,
          "velocity": 100
        },
        {
          "pitch": 55,
          "onset": 135.5,
          "duration": 0.25,
          "velocity": 100
        },
        {
          "pitch": 63,
          "onset": 135.5,
          "duration": 0.25,
          "velocity": 100
        },
        {
          "pitch": 54,
          "onset": 135.75,
          "duration": 0.25,
          "velocity": 100
        },
        {
          "pitch": 62,
          "onset": 135.75,
          "duration": 0.25,
          "velocity": 100
        },
        {
          "pitch": 55,
          "onset": 136.0,
          "duration": 0.5,
          "velocity": 100
        },
        {
          "pitch": 63,
          "onset": 136.0,
          "duration": 0.5,
          "velocity": 100
        },
        {
          "pitch": 72,
          "onset": 136.1562,
          "duration": 0.1562,
          "velocity": 100
        },
        {
          "pitch": 70,
          "onset": 136.3438,
          "duration": 0.1562,
          "velocity": 100
        },
        {
          "pitch": 60,
          "onset": 136.5,
          "duration": 0.5,
          "velocity": 100
        },
        {
          "pitch": 69,
          "onset": 136.5,
          "duration": 0.1562,
          "velocity": 100
        },
        {
          "pitch": 75,
          "onset": 136.5,
          "duration": 0.6562,
          "velocity": 100
        },
        {
          "pitch": 70,
          "onset": 136.6562,
          "duration": 0.1562,
          "velocity": 100
        },
        {
          "pitch": 67,
          "onset": 136.8438,
          "duration": 0.1562,
          "velocity": 100
        },
        {
          "pitch": 53,
          "onset": 137.0,
          "duration": 0.5,
          "velocity": 100
        },
        {
          "pitch": 69,
          "onset": 137.0,
          "duration": 1.0,
          "velocity": 100
        },
        {
          "pitch": 77,
          "onset": 137.1562,
          "duration": 0.1562,
          "velocity": 100
        },
        {
          "pitch": 75,
          "onset": 137.3438,
          "duration": 0.1562,
          "velocity": 100
        },
        {
          "pitch": 58,
          "onset": 137.5,
          "duration": 0.5,
          "velocity": 100
        },
        {
          "pitch": 74,
          "onset": 137.5,
          "duration": 0.1562,
          "velocity": 100
        },
        {
          "pitch": 72,
          "onset": 137.6562,
          "duration": 0.1562,
          "velocity": 100
        },
        {
          "pitch": 74,
          "onset": 137.8438,
          "duration": 0.3438,
          "velocity": 100
        },
        {
          "pitch": 51,
          "onset": 138.0,
          "duration": 0.5,
          "velocity": 100
        },
        {
          "pitch": 67,
          "onset": 138.0,
          "duration": 1.0,
          "velocity": 100
        },
        {
          "pitch": 75,
          "onset": 138.1562,
          "duration": 0.1562,
          "velocity": 100
        },
        {
          "pitch": 74,
          "onset": 138.3438,
          "duration": 0.1562,
          "velocity": 100
        },
        {
          "pitch": 63,
          "onset": 138.5,
          "duration": 0.5,
          "velocity": 100
        },
        {
          "pitch": 72,
          "onset": 138.5,
          "duration": 0.1562,
          "velocity": 100
        },
        {
          "pitch": 70,
          "onset": 138.6562,
          "duration": 0.1562,
          "velocity": 100
        },
        {
          "pitch": 72,
          "onset": 138.8438,
          "duration": 0.3438,
          "velocity": 100
        },
        {
          "pitch": 57,
          "onset": 139.0,
          "duration": 0.5,
          "velocity": 100
        },
        {
          "pitch": 66,
          "onset": 139.0,
          "duration": 1.9688,
          "velocity": 100
        },
        {
          "pitch": 72,
          "onset": 139.1562,
          "duration": 0.1562,
          "velocity": 100
        },
        {
          "pitch": 70,
          "onset": 139.3438,
          "duration": 0.1562,
          "velocity": 100
        },
        {
          "pitch": 62,
          "onset": 139.5,
          "duration": 0.25,
          "velocity": 100
        },
        {
          "pitch": 69,
          "onset": 139.5,
          "duration": 0.1562,
          "velocity": 100
        },
        {
          "pitch": 67,
          "onset": 139.6562,
          "duration": 0.1562,
          "velocity": 100
        },
        {
          "pitch": 60,
          "onset": 139.75,
          "duration": 0.25,
          "velocity": 100
        },
        {
          "pitch": 69,
          "onset": 139.8438,
          "duration": 0.3438,
          "velocity": 100
        },
        {
          "pitch": 62,
          "onset": 140.0,
          "duration": 0.5,
          "velocity": 100
        },
        {
          "pitch": 72,
          "onset": 140.1562,
          "duration": 0.1562,
          "velocity": 100
        },
        {
          "pitch": 74,
          "onset": 140.3438,
          "duration": 0.1562,
          "velocity": 100
        },
        {
          "pitch": 50,
          "onset": 140.5,
          "duration": 0.5,
          "velocity": 100
        },
        {
          "pitch": 75,
          "onset": 140.5,
          "duration": 0.1562,
          "velocity": 100
        },
        {
          "pitch": 74,
          "onset": 140.6562,
          "duration": 0.1562,
          "velocity": 100
        },
        {
          "pitch": 72,
          "onset": 140.8438,
          "duration": 0.1562,
          "velocity": 100
        },
        {
          "pitch": 43,
          "onset": 141.0,
          "duration": 0.25,
          "velocity": 100
        },
        {
          "pitch": 67,
          "onset": 141.0,
          "duration": 2.9688,
          "velocity": 100
        },
        {
          "pitch": 70,
          "onset": 141.0,
          "duration": 0.5,
          "velocity": 100
        },
        {
          "pitch": 55,
          "onset": 141.25,
          "duration": 0.25,
          "velocity": 100
        },
        {
          "pitch": 57,
          "onset": 141.5,
          "duration": 0.25,
          "velocity": 100
        },
        {
          "pitch": 75,
          "onset": 141.5,
          "duration": 0.6562,
          "velocity": 100
        },
        {
          "pitch": 58,
          "onset": 141.75,
          "duration": 0.25,
          "velocity": 100
        },
        {
          "pitch": 60,
          "onset": 142.0,
          "duration": 0.25,
          "velocity": 100
        },
        {
          "pitch": 74,
          "onset": 142.1562,
          "duration": 0.1562,
          "velocity": 100
        },
        {
          "pitch": 62,
          "onset": 142.25,
          "duration": 0.25,
          "velocity": 100
        },
        {
          "pitch": 72,
          "onset": 142.3438,
          "duration": 0.1562,
          "velocity": 100
        },
        {
          "pitch": 63,
          "onset": 142.5,
          "duration": 0.6562,
          "velocity": 100
        },
        {
          "pitch": 71,
          "onset": 142.5,
          "duration": 0.1562,
          "velocity": 100
        },
        {
          "pitch": 72,
          "onset": 142.6562,
          "duration": 0.1562,
          "velocity": 100
        },
        {
          "pitch": 74,
          "onset": 142.8438,
          "duration": 0.1562,
          "velocity": 100
        },
        {
          "pitch": 72,
          "onset": 143.0,
          "duration": 0.1562,
          "velocity": 100
        },
        {
          "pitch": 62,
          "onset": 143.1562,
          "duration": 0.1562,
          "velocity": 100
        },
        {
          "pitch": 74,
          "onset": 143.1562,
          "duration": 0.1562,
          "velocity": 100
        },
        {
          "pitch": 60,
          "onset": 143.3438,
          "duration": 0.1562,
          "velocity": 100
        },
        {
          "pitch": 75,
          "onset": 143.3438,
          "duration": 0.1562,
          "velocity": 100
        },
        {
          "pitch": 62,
          "onset": 143.5,
          "duration": 0.1562,
          "velocity": 100
        },
        {
          "pitch": 77,
          "onset": 143.5,
          "duration": 0.1562,
          "velocity": 100
        },
        {
          "pitch": 63,
          "onset": 143.6562,
          "duration": 0.1562,
          "velocity": 100
        },
        {
          "pitch": 75,
          "onset": 143.6562,
          "duration": 0.1562,
          "velocity": 100
        },
        {
          "pitch": 65,
          "onset": 143.8438,
          "duration": 0.1562,
          "velocity": 100
        },
        {
          "pitch": 74,
          "onset": 143.8438,
          "duration": 0.1562,
          "velocity": 100
        },
        {
          "pitch": 59,
          "onset": 144.0,
          "duration": 0.5,
          "velocity": 100
        },
        {
          "pitch": 80,
          "onset": 144.0,
          "duration": 0.1562,
          "velocity": 100
        },
        {
          "pitch": 79,
          "onset": 144.1562,
          "duration": 0.1562,
          "velocity": 100
        },
        {
          "pitch": 77,
          "onset": 144.3438,
          "duration": 0.1562,
          "velocity": 100
        },
        {
          "pitch": 46,
          "onset": 144.5,
          "duration": 0.25,
          "velocity": 100
        },
        {
          "pitch": 76,
          "onset": 144.5,
          "duration": 0.6562,
          "velocity": 100
        },
        {
          "pitch": 45,
          "onset": 144.75,
          "duration": 0.25,
          "velocity": 100
        },
        {
          "pitch": 46,
          "onset": 145.0,
          "duration": 0.5,
          "velocity": 100
        },
        {
          "pitch": 78,
          "onset": 145.1562,
          "duration": 0.1562,
          "velocity": 100
        },
        {
          "pitch": 79,
          "onset": 145.3438,
          "duration": 0.1562,
          "velocity": 100
        },
        {
          "pitch": 51,
          "onset": 145.5,
          "duration": 0.5,
          "velocity": 100
        },
        {
          "pitch": 72,
          "onset": 145.5,
          "duration": 0.1562,
          "velocity": 100
        },
        {
          "pitch": 71,
          "onset": 145.6562,
          "duration": 0.1562,
          "velocity": 100
        },
        {
          "pitch": 72,
          "onset": 145.8438,
          "duration": 0.3438,
          "velocity": 100
        },
        {
          "pitch": 45,
          "onset": 146.0,
          "duration": 0.5,
          "velocity": 100
        },
        {
          "pitch": 84,
          "onset": 146.1562,
          "duration": 0.1562,
          "velocity": 100
        },
        {
          "pitch": 82,
          "onset": 146.3438,
          "duration": 0.1562,
          "velocity": 100
        },
        {
          "pitch": 50,
          "onset": 146.5,
          "duration": 0.5,
          "velocity": 100
        },
        {
          "pitch": 81,
          "onset": 146.5,
          "duration": 0.1562,
          "velocity": 100
        },
        {
          "pitch": 79,
          "onset": 146.6562,
          "duration": 0.1562,
          "velocity": 100
        },
        {
          "pitch": 78,
          "onset": 146.8438,
          "duration": 0.1562,
          "velocity": 100
        },
        {
          "pitch": 46,
          "onset": 147.0,
          "duration": 0.5,
          "velocity": 100
        },
        {
          "pitch": 79,
          "onset": 147.0,
          "duration": 0.1562,
          "velocity": 100
        },
        {
          "pitch": 77,
          "onset": 147.1562,
          "duration": 0.1562,
          "velocity": 100
        },
        {
          "pitch": 75,
          "onset": 147.3438,
          "duration": 0.1562,
          "velocity": 100
        },
        {
          "pitch": 55,
          "onset": 147.5,
          "duration": 0.5,
          "velocity": 100
        },
        {
          "pitch": 74,
          "onset": 147.5,
          "duration": 0.1562,
          "velocity": 100
        },
        {
          "pitch": 72,
          "onset": 147.6562,
          "duration": 0.1562,
          "velocity": 100
        },
        {
          "pitch": 70,
          "onset": 147.8438,
          "duration": 0.1562,
          "velocity": 100
        },
        {
          "pitch": 60,
          "onset": 148.0,
          "duration": 0.5,
          "velocity": 100
        },
        {
          "pitch": 75,
          "onset": 148.0,
          "duration": 0.1562,
          "velocity": 100
        },
        {
          "pitch": 74,
          "onset": 148.1562,
          "duration": 0.1562,
          "velocity": 100
        },
        {
          "pitch": 72,
          "onset": 148.3438,
          "duration": 0.1562,
          "velocity": 100
        },
        {
          "pitch": 61,
          "onset": 148.5,
          "duration": 0.5,
          "velocity": 100
        },
        {
          "pitch": 70,
          "onset": 148.5,
          "duration": 0.1562,
          "velocity": 100
        },
        {
          "pitch": 69,
          "onset": 148.6562,
          "duration": 0.1562,
          "velocity": 100
        },
        {
          "pitch": 67,
          "onset": 148.8438,
          "duration": 0.1562,
          "velocity": 100
        },
        {
          "pitch": 62,
          "onset": 149.0,
          "duration": 0.5,
          "velocity": 100
        },
        {
          "pitch": 69,
          "onset": 149.25,
          "duration": 0.25,
          "velocity": 100
        },
        {
          "pitch": 50,
          "onset": 149.5,
          "duration": 0.5,
          "velocity": 100
        },
        {
          "pitch": 72,
          "onset": 149.5,
          "duration": 0.25,
          "velocity": 100
        },
        {
          "pitch": 78,
          "onset": 149.75,
          "duration": 0.25,
          "velocity": 100
        },
        {
          "pitch": 43,
          "onset": 150.0,
          "duration": 0.5,
          "velocity": 100
        },
        {
          "pitch": 79,
          "onset": 150.0,
          "duration": 0.1562,
          "velocity": 100
        },
        {
          "pitch": 62,
          "onset": 150.1562,
          "duration": 0.1562,
          "velocity": 100
        },
        {
          "pitch": 64,
          "onset": 150.3438,
          "duration": 0.1562,
          "velocity": 100
        },
        {
          "pitch": 66,
          "onset": 150.5,
          "duration": 0.1562,
          "velocity": 100
        },
        {
          "pitch": 67,
          "onset": 150.6562,
          "duration": 0.1562,
          "velocity": 100
        },
        {
          "pitch": 69,
          "onset": 150.8438,
          "duration": 0.1562,
          "velocity": 100
        },
        {
          "pitch": 70,
          "onset": 151.0,
          "duration": 1.1562,
          "velocity": 100
        },
        {
          "pitch": 55,
          "onset": 151.1562,
          "duration": 0.1562,
          "velocity": 100
        },
        {
          "pitch": 57,
          "onset": 151.3438,
          "duration": 0.1562,
          "velocity": 100
        },
        {
          "pitch": 58,
          "onset": 151.5,
          "duration": 0.1562,
          "velocity": 100
        },
        {
          "pitch": 60,
          "onset": 151.6562,
          "duration": 0.1562,
          "velocity": 100
        },
        {
          "pitch": 62,
          "onset": 151.8438,
          "duration": 0.1562,
          "velocity": 100
        },
        {
          "pitch": 52,
          "onset": 152.0,
          "duration": 0.5,
          "velocity": 100
        },
        {
          "pitch": 67,
          "onset": 152.0,
          "duration": 1.0,
          "velocity": 100
        },
        {
          "pitch": 70,
          "onset": 152.1562,
          "duration": 0.1562,
          "velocity": 100
        },
        {
          "pitch": 72,
          "onset": 152.3438,
          "duration": 0.1562,
          "velocity": 100
        },
        {
          "pitch": 48,
          "onset": 152.5,
          "duration": 0.5,
          "velocity": 100
        },
        {
          "pitch": 74,
          "onset": 152.5,
          "duration": 0.1562,
          "velocity": 100
        },
        {
          "pitch": 72,
          "onset": 152.6562,
          "duration": 0.1562,
          "velocity": 100
        },
        {
          "pitch": 70,
          "onset": 152.8438,
          "duration": 0.1562,
          "velocity": 100
        },
        {
          "pitch": 41,
          "onset": 153.0,
          "duration": 0.25,
          "velocity": 100
        },
        {
          "pitch": 69,
          "onset": 153.0,
          "duration": 1.9688,
          "velocity": 100
        },
        {
          "pitch": 48,
          "onset": 153.25,
          "duration": 0.25,
          "velocity": 100
        },
        {
          "pitch": 50,
          "onset": 153.5,
          "duration": 0.25,
          "velocity": 100
        },
        {
          "pitch": 65,
          "onset": 153.5,
          "duration": 0.5,
          "velocity": 100
        },
        {
          "pitch": 52,
          "onset": 153.75,
          "duration": 0.25,
          "velocity": 100
        },
        {
          "pitch": 53,
          "onset": 154.0,
          "duration": 0.25,
          "velocity": 100
        },
        {
          "pitch": 55,
          "onset": 154.25,
          "duration": 0.25,
          "velocity": 100
        },
        {
          "pitch": 57,
          "onset": 154.5,
          "duration": 0.6562,
          "velocity": 100
        },
        {
          "pitch": 70,
          "onset": 155.0,
          "duration": 1.0,
          "velocity": 100
        },
        {
          "pitch": 55,
          "onset": 155.1562,
          "duration": 0.1562,
          "velocity": 100
        },
        {
          "pitch": 53,
          "onset": 155.3438,
          "duration": 0.1562,
          "velocity": 100
        },
        {
          "pitch": 55,
          "onset": 155.5,
          "duration": 0.1562,
          "velocity": 100
        },
        {
          "pitch": 57,
          "onset": 155.6562,
          "duration": 0.1562,
          "velocity": 100
        },
        {
          "pitch": 58,
          "onset": 155.8438,
          "duration": 0.3438,
          "velocity": 100
        },
        {
          "pitch": 72,
          "onset": 156.0,
          "duration": 1.9688,
          "velocity": 100
        },
        {
          "pitch": 57,
          "onset": 156.1562,
          "duration": 0.1562,
          "velocity": 100
        },
        {
          "pitch": 55,
          "onset": 156.3438,
          "duration": 0.1562,
          "velocity": 100
        },
        {
          "pitch": 57,
          "onset": 156.5,
          "duration": 0.1562,
          "velocity": 100
        },
        {
          "pitch": 77,
          "onset": 156.5,
          "duration": 0.25,
          "velocity": 100
        },
        {
          "pitch": 58,
          "onset": 156.6562,
          "duration": 0.1562,
          "velocity": 100
        },
        {
          "pitch": 76,
          "onset": 156.75,
          "duration": 0.25,
          "velocity": 100
        },
        {
          "pitch": 60,
          "onset": 156.8438,
          "duration": 0.1562,
          "velocity": 100
        },
        {
          "pitch": 53,
          "onset": 157.0,
          "duration": 0.1562,
          "velocity": 100
        },
        {
          "pitch": 77,
          "onset": 157.0,
          "duration": 0.5,
          "velocity": 100
        },
        {
          "pitch": 57,
          "onset": 157.1562,
          "duration": 0.1562,
          "velocity": 100
        },
        {
          "pitch": 55,
          "onset": 157.3438,
          "duration": 0.1562,
          "velocity": 100
        },
        {
          "pitch": 53,
          "onset": 157.5,
          "duration": 0.1562,
          "velocity": 100
        },
        {
          "pitch": 81,
          "onset": 157.5,
          "duration": 0.5,
          "velocity": 100
        },
        {
          "pitch": 52,
          "onset": 157.6562,
          "duration": 0.1562,
          "velocity": 100
        },
        {
          "pitch": 53,
          "onset": 157.8438,
          "duration": 0.3438,
          "velocity": 100
        },
        {
          "pitch": 70,
          "onset": 158.0,
          "duration": 1.0,
          "velocity": 100
        },
        {
          "pitch": 74,
          "onset": 158.0,
          "duration": 0.5,
          "velocity": 100
        },
        {
          "pitch": 55,
          "onset": 158.1562,
          "duration": 0.1562,
          "velocity": 100
        },
        {
          "pitch": 53,
          "onset": 158.3438,
          "duration": 0.1562,
          "velocity": 100
        },
        {
          "pitch": 52,
          "onset": 158.5,
          "duration": 0.1562,
          "velocity": 100
        },
        {
          "pitch": 79,
          "onset": 158.5,
          "duration": 0.5,
          "velocity": 100
        },
        {
          "pitch": 50,
          "onset": 158.6562,
          "duration": 0.1562,
          "velocity": 100
        },
        {
          "pitch": 52,
          "onset": 158.8438,
          "duration": 0.1562,
          "velocity": 100
        },
        {
          "pitch": 53,
          "onset": 159.0,
          "duration": 0.25,
          "velocity": 100
        },
        {
          "pitch": 69,
          "onset": 159.0,
          "duration": 1.0,
          "velocity": 100
        },
        {
          "pitch": 72,
          "onset": 159.0,
          "duration": 0.5,
          "velocity": 100
        },
        {
          "pitch": 52,
          "onset": 159.25,
          "duration": 0.25,
          "velocity": 100
        },
        {
          "pitch": 50,
          "onset": 159.5,
          "duration": 0.25,
          "velocity": 100
        },
        {
          "pitch": 77,
          "onset": 159.5,
          "duration": 1.0,
          "velocity": 100
        },
        {
          "pitch": 48,
          "onset": 159.75,
          "duration": 0.25,
          "velocity": 100
        },
        {
          "pitch": 46,
          "onset": 160.0,
          "duration": 0.25,
          "velocity": 100
        },
        {
          "pitch": 67,
          "onset": 160.0,
          "duration": 1.9688,
          "velocity": 100
        },
        {
          "pitch": 45,
          "onset": 160.25,
          "duration": 0.25,
          "velocity": 100
        },
        {
          "pitch": 46,
          "onset": 160.5,
          "duration": 0.6562,
          "velocity": 100
        },
        {
          "pitch": 76,
          "onset": 160.5,
          "duration": 0.25,
          "velocity": 100
        },
        {
          "pitch": 74,
          "onset": 160.75,
          "duration": 0.25,
          "velocity": 100
        },
        {
          "pitch": 76,
          "onset": 161.0,
          "duration": 0.0625,
          "velocity": 100
        },
        {
          "pitch": 74,
          "onset": 161.0625,
          "duration": 0.0625,
          "velocity": 100
        },
        {
          "pitch": 76,
          "onset": 161.125,
          "duration": 0.875,
          "velocity": 100
        },
        {
          "pitch": 45,
          "onset": 161.1562,
          "duration": 0.1562,
          "velocity": 100
        },
        {
          "pitch": 43,
          "onset": 161.3438,
          "duration": 0.1562,
          "velocity": 100
        },
        {
          "pitch": 45,
          "onset": 161.5,
          "duration": 0.1562,
          "velocity": 100
        },
        {
          "pitch": 46,
          "onset": 161.6562,
          "duration": 0.1562,
          "velocity": 100
        },
        {
          "pitch": 48,
          "onset": 161.8438,
          "duration": 0.1562,
          "velocity": 100
        },
        {
          "pitch": 41,
          "onset": 162.0,
          "duration": 0.5,
          "velocity": 100
        },
        {
          "pitch": 69,
          "onset": 162.0,
          "duration": 1.9688,
          "velocity": 100
        },
        {
          "pitch": 77,
          "onset": 162.0,
          "duration": 0.5,
          "velocity": 100
        },
        {
          "pitch": 53,
          "onset": 162.5,
          "duration": 0.25,
          "velocity": 100
        },
        {
          "pitch": 52,
          "onset": 162.75,
          "duration": 0.25,
          "velocity": 100
        },
        {
          "pitch": 53,
          "onset": 163.0,
          "duration": 0.5,
          "velocity": 100
        },
        {
          "pitch": 74,
          "onset": 163.0,
          "duration": 0.25,
          "velocity": 100
        },
        {
          "pitch": 73,
          "onset": 163.25,
          "duration": 0.25,
          "velocity": 100
        },
        {
          "pitch": 58,
          "onset": 163.5,
          "duration": 0.5,
          "velocity": 100
        },
        {
          "pitch": 74,
          "onset": 163.5,
          "duration": 0.5,
          "velocity": 100
        },
        {
          "pitch": 52,
          "onset": 164.0,
          "duration": 0.5,
          "velocity": 100
        },
        {
          "pitch": 79,
          "onset": 164.0,
          "duration": 0.5,
          "velocity": 100
        },
        {
          "pitch": 57,
          "onset": 164.5,
          "duration": 0.5,
          "velocity": 100
        },
        {
          "pitch": 73,
          "onset": 164.5,
          "duration": 0.5,
          "velocity": 100
        },
        {
          "pitch": 50,
          "onset": 165.0,
          "duration": 1.1562,
          "velocity": 100
        },
        {
          "pitch": 77,
          "onset": 165.0,
          "duration": 0.5,
          "velocity": 100
        },
        {
          "pitch": 70,
          "onset": 165.5,
          "duration": 0.5,
          "velocity": 100
        },
        {
          "pitch": 75,
          "onset": 166.0,
          "duration": 1.1562,
          "velocity": 100
        },
        {
          "pitch": 51,
          "onset": 166.1562,
          "duration": 0.1562,
          "velocity": 100
        },
        {
          "pitch": 53,
          "onset": 166.3438,
          "duration": 0.1562,
          "velocity": 100
        },
        {
          "pitch": 55,
          "onset": 166.5,
          "duration": 0.1562,
          "velocity": 100
        },
        {
          "pitch": 53,
          "onset": 166.6562,
          "duration": 0.1562,
          "velocity": 100
        },
        {
          "pitch": 51,
          "onset": 166.8438,
          "duration": 0.1562,
          "velocity": 100
        },
        {
          "pitch": 60,
          "onset": 167.0,
          "duration": 0.5,
          "velocity": 100
        },
        {
          "pitch": 72,
          "onset": 167.1562,
          "duration": 0.1562,
          "velocity": 100
        },
        {
          "pitch": 70,
          "onset": 167.3438,
          "duration": 0.1562,
          "velocity": 100
        },
        {
          "pitch": 48,
          "onset": 167.5,
          "duration": 0.6562,
          "velocity": 100
        },
        {
          "pitch": 69,
          "onset": 167.5,
          "duration": 0.1562,
          "velocity": 100
        },
        {
          "pitch": 70,
          "onset": 167.6562,
          "duration": 0.1562,
          "velocity": 100
        },
        {
          "pitch": 72,
          "onset": 167.8438,
          "duration": 0.1562,
          "velocity": 100
        },
        {
          "pitch": 74,
          "onset": 168.0,
          "duration": 0.5,
          "velocity": 100
        },
        {
          "pitch": 50,
          "onset": 168.1562,
          "duration": 0.1562,
          "velocity": 100
        },
        {
          "pitch": 51,
          "onset": 168.3438,
          "duration": 0.1562,
          "velocity": 100
        },
        {
          "pitch": 53,
          "onset": 168.5,
          "duration": 0.1562,
          "velocity": 100
        },
        {
          "pitch": 62,
          "onset": 168.5,
          "duration": 0.6562,
          "velocity": 100
        },
        {
          "pitch": 51,
          "onset": 168.6562,
          "duration": 0.1562,
          "velocity": 100
        },
        {
          "pitch": 50,
          "onset": 168.8438,
          "duration": 0.1562,
          "velocity": 100
        },
        {
          "pitch": 58,
          "onset": 169.0,
          "duration": 0.25,
          "velocity": 100
        },
        {
          "pitch": 64,
          "onset": 169.1562,
          "duration": 0.1562,
          "velocity": 100
        },
        {
          "pitch": 46,
          "onset": 169.25,
          "duration": 0.25,
          "velocity": 100
        },
        {
          "pitch": 65,
          "onset": 169.3438,
          "duration": 0.1562,
          "velocity": 100
        },
        {
          "pitch": 58,
          "onset": 169.5,
          "duration": 0.6562,
          "velocity": 100
        },
        {
          "pitch": 67,
          "onset": 169.5,
          "duration": 0.1562,
          "velocity": 100
        },
        {
          "pitch": 65,
          "onset": 169.6562,
          "duration": 0.1562,
          "velocity": 100
        },
        {
          "pitch": 64,
          "onset": 169.8438,
          "duration": 0.1562,
          "velocity": 100
        },
        {
          "pitch": 72,
          "onset": 170.0,
          "duration": 0.25,
          "velocity": 100
        },
        {
          "pitch": 55,
          "onset": 170.1562,
          "duration": 0.1562,
          "velocity": 100
        },
        {
          "pitch": 60,
          "onset": 170.25,
          "duration": 0.25,
          "velocity": 100
        },
        {
          "pitch": 53,
          "onset": 170.3438,
          "duration": 0.1562,
          "velocity": 100
        },
        {
          "pitch": 52,
          "onset": 170.5,
          "duration": 0.1562,
          "velocity": 100
        },
        {
          "pitch": 72,
          "onset": 170.5,
          "duration": 0.25,
          "velocity": 100
        },
        {
          "pitch": 53,
          "onset": 170.6562,
          "duration": 0.1562,
          "velocity": 100
        },
        {
          "pitch": 70,
          "onset": 170.75,
          "duration": 0.25,
          "velocity": 100
        },
        {
          "pitch": 55,
          "onset": 170.8438,
          "duration": 0.1562,
          "velocity": 100
        },
        {
          "pitch": 57,
          "onset": 171.0,
          "duration": 0.1562,
          "velocity": 100
        },
        {
          "pitch": 72,
          "onset": 171.0,
          "duration": 0.5,
          "velocity": 100
        },
        {
          "pitch": 53,
          "onset": 171.1562,
          "duration": 0.1562,
          "velocity": 100
        },
        {
          "pitch": 52,
          "onset": 171.3438,
          "duration": 0.1562,
          "velocity": 100
        },
        {
          "pitch": 50,
          "onset": 171.5,
          "duration": 0.1562,
          "velocity": 100
        },
        {
          "pitch": 77,
          "onset": 171.5,
          "duration": 0.5,
          "velocity": 100
        },
        {
          "pitch": 52,
          "onset": 171.6562,
          "duration": 0.1562,
          "velocity": 100
        },
        {
          "pitch": 53,
          "onset": 171.8438,
          "duration": 0.1562,
          "velocity": 100
        },
        {
          "pitch": 55,
          "onset": 172.0,
          "duration": 0.1562,
          "velocity": 100
        },
        {
          "pitch": 70,
          "onset": 172.0,
          "duration": 0.5,
          "velocity": 100
        },
        {
          "pitch": 51,
          "onset": 172.1562,
          "duration": 0.1562,
          "velocity": 100
        },
        {
          "pitch": 50,
          "onset": 172.3438,
          "duration": 0.1562,
          "velocity": 100
        },
        {
          "pitch": 48,
          "onset": 172.5,
          "duration": 0.1562,
          "velocity": 100
        },
        {
          "pitch": 75,
          "onset": 172.5,
          "duration": 0.5,
          "velocity": 100
        },
        {
          "pitch": 50,
          "onset": 172.6562,
          "duration": 0.1562,
          "velocity": 100
        },
        {
          "pitch": 51,
          "onset": 172.8438,
          "duration": 0.1562,
          "velocity": 100
        },
        {
          "pitch": 53,
          "onset": 173.0,
          "duration": 0.25,
          "velocity": 100
        },
        {
          "pitch": 65,
          "onset": 173.0,
          "duration": 1.0,
          "velocity": 100
        },
        {
          "pitch": 69,
          "onset": 173.0,
          "duration": 0.1562,
          "velocity": 100
        },
        {
          "pitch": 70,
          "onset": 173.1562,
          "duration": 0.1562,
          "velocity": 100
        },
        {
          "pitch": 41,
          "onset": 173.25,
          "duration": 0.25,
          "velocity": 100
        },
        {
          "pitch": 72,
          "onset": 173.3438,
          "duration": 0.1562,
          "velocity": 100
        },
        {
          "pitch": 53,
          "onset": 173.5,
          "duration": 1.0,
          "velocity": 100
        },
        {
          "pitch": 74,
          "onset": 173.5,
          "duration": 0.1562,
          "velocity": 100
        },
        {
          "pitch": 72,
          "onset": 173.6562,
          "duration": 0.1562,
          "velocity": 100
        },
        {
          "pitch": 74,
          "onset": 173.8438,
          "duration": 0.1562,
          "velocity": 100
        },
        {
          "pitch": 67,
          "onset": 174.0,
          "duration": 1.9688,
          "velocity": 100
        },
        {
          "pitch": 72,
          "onset": 174.0,
          "duration": 0.125,
          "velocity": 100
        },
        {
          "pitch": 71,
          "onset": 174.125,
          "duration": 0.375,
          "velocity": 100
        },
        {
          "pitch": 51,
          "onset": 174.5,
          "duration": 0.25,
          "velocity": 100
        },
        {
          "pitch": 72,
          "onset": 174.5,
          "duration": 0.25,
          "velocity": 100
        },
        {
          "pitch": 50,
          "onset": 174.75,
          "duration": 0.25,
          "velocity": 100
        },
        {
          "pitch": 74,
          "onset": 174.75,
          "duration": 0.25,
          "velocity": 100
        },
        {
          "pitch": 48,
          "onset": 175.0,
          "duration": 0.5,
          "velocity": 100
        },
        {
          "pitch": 75,
          "onset": 175.0,
          "duration": 0.25,
          "velocity": 100
        },
        {
          "pitch": 77,
          "onset": 175.25,
          "duration": 0.25,
          "velocity": 100
        },
        {
          "pitch": 51,
          "onset": 175.5,
          "duration": 0.5,
          "velocity": 100
        },
        {
          "pitch": 79,
          "onset": 175.5,
          "duration": 0.6562,
          "velocity": 100
        },
        {
          "pitch": 45,
          "onset": 176.0,
          "duration": 0.5,
          "velocity": 100
        },
        {
          "pitch": 69,
          "onset": 176.0,
          "duration": 1.0,
          "velocity": 100
        },
        {
          "pitch": 81,
          "onset": 176.1562,
          "duration": 0.1562,
          "velocity": 100
        },
        {
          "pitch": 79,
          "onset": 176.3438,
          "duration": 0.1562,
          "velocity": 100
        },
        {
          "pitch": 50,
          "onset": 176.5,
          "duration": 0.5,
          "velocity": 100
        },
        {
          "pitch": 77,
          "onset": 176.5,
          "duration": 0.1562,
          "velocity": 100
        },
        {
          "pitch": 76,
          "onset": 176.6562,
          "duration": 0.1562,
          "velocity": 100
        },
        {
          "pitch": 77,
          "onset": 176.8438,
          "duration": 0.3438,
          "velocity": 100
        },
        {
          "pitch": 43,
          "onset": 177.0,
          "duration": 0.5,
          "velocity": 100
        },
        {
          "pitch": 70,
          "onset": 177.0,
          "duration": 1.0,
          "velocity": 100
        },
        {
          "pitch": 79,
          "onset": 177.1562,
          "duration": 0.1562,
          "velocity": 100
        },
        {
          "pitch": 77,
          "onset": 177.3438,
          "duration": 0.1562,
          "velocity": 100
        },
        {
          "pitch": 55,
          "onset": 177.5,
          "duration": 0.6562,
          "velocity": 100
        },
        {
          "pitch": 76,
          "onset": 177.5,
          "duration": 0.1562,
          "velocity": 100
        },
        {
          "pitch": 77,
          "onset": 177.6562,
          "duration": 0.1562,
          "velocity": 100
        },
        {
          "pitch": 79,
          "onset": 177.8438,
          "duration": 0.1562,
          "velocity": 100
        },
        {
          "pitch": 69,
          "onset": 178.0,
          "duration": 1.0,
          "velocity": 100
        },
        {
          "pitch": 73,
          "onset": 178.0,
          "duration": 0.5,
          "velocity": 100
        },
        {
          "pitch": 53,
          "onset": 178.1562,
          "duration": 0.1562,
          "velocity": 100
        },
        {
          "pitch": 52,
          "onset": 178.3438,
          "duration": 0.1562,
          "velocity": 100
        },
        {
          "pitch": 50,
          "onset": 178.5,
          "duration": 0.1562,
          "velocity": 100
        },
        {
          "pitch": 77,
          "onset": 178.5,
          "duration": 0.5,
          "velocity": 100
        },
        {
          "pitch": 49,
          "onset": 178.6562,
          "duration": 0.1562,
          "velocity": 100
        },
        {
          "pitch": 50,
          "onset": 178.8438,
          "duration": 0.3438,
          "velocity": 100
        },
        {
          "pitch": 67,
          "onset": 179.0,
          "duration": 1.0,
          "velocity": 100
        },
        {
          "pitch": 70,
          "onset": 179.0,
          "duration": 0.5,
          "velocity": 100
        },
        {
          "pitch": 52,
          "onset": 179.1562,
          "duration": 0.1562,
          "velocity": 100
        },
        {
          "pitch": 50,
          "onset": 179.3438,
          "duration": 0.1562,
          "velocity": 100
        },
        {
          "pitch": 49,
          "onset": 179.5,
          "duration": 0.1562,
          "velocity": 100
        },
        {
          "pitch": 76,
          "onset": 179.5,
          "duration": 0.5,
          "velocity": 100
        },
        {
          "pitch": 47,
          "onset": 179.6562,
          "duration": 0.1562,
          "velocity": 100
        },
        {
          "pitch": 49,
          "onset": 179.8438,
          "duration": 0.1562,
          "velocity": 100
        },
        {
          "pitch": 50,
          "onset": 180.0,
          "duration": 0.25,
          "velocity": 100
        },
        {
          "pitch": 65,
          "onset": 180.0,
          "duration": 1.0,
          "velocity": 100
        },
        {
          "pitch": 69,
          "onset": 180.0,
          "duration": 0.5,
          "velocity": 100
        },
        {
          "pitch": 38,
          "onset": 180.25,
          "duration": 0.25,
          "velocity": 100
        },
        {
          "pitch": 40,
          "onset": 180.5,
          "duration": 0.25,
          "velocity": 100
        },
        {
          "pitch": 67,
          "onset": 180.5,
          "duration": 0.25,
          "velocity": 100
        },
        {
          "pitch": 41,
          "onset": 180.75,
          "duration": 0.25,
          "velocity": 100
        },
        {
          "pitch": 69,
          "onset": 180.75,
          "duration": 0.25,
          "velocity": 100
        },
        {
          "pitch": 43,
          "onset": 181.0,
          "duration": 0.25,
          "velocity": 100
        },
        {
          "pitch": 62,
          "onset": 181.0,
          "duration": 1.0,
          "velocity": 100
        },
        {
          "pitch": 70,
          "onset": 181.0,
          "duration": 0.5,
          "velocity": 100
        },
        {
          "pitch": 45,
          "onset": 181.25,
          "duration": 0.25,
          "velocity": 100
        },
        {
          "pitch": 46,
          "onset": 181.5,
          "duration": 0.6562,
          "velocity": 100
        },
        {
          "pitch": 74,
          "onset": 181.5,
          "duration": 0.5,
          "velocity": 100
        },
        {
          "pitch": 64,
          "onset": 182.0,
          "duration": 1.0,
          "velocity": 100
        },
        {
          "pitch": 67,
          "onset": 182.0,
          "duration": 0.25,
          "velocity": 100
        },
        {
          "pitch": 48,
          "onset": 182.1562,
          "duration": 0.1562,
          "velocity": 100
        },
        {
          "pitch": 69,
          "onset": 182.25,
          "duration": 0.25,
          "velocity": 100
        },
        {
          "pitch": 46,
          "onset": 182.3438,
          "duration": 0.1562,
          "velocity": 100
        },
        {
          "pitch": 45,
          "onset": 182.5,
          "duration": 0.1562,
          "velocity": 100
        },
        {
          "pitch": 70,
          "onset": 182.5,
          "duration": 0.6562,
          "velocity": 100
        },
        {
          "pitch": 46,
          "onset": 182.6562,
          "duration": 0.1562,
          "velocity": 100
        },
        {
          "pitch": 48,
          "onset": 182.8438,
          "duration": 0.1562,
          "velocity": 100
        },
        {
          "pitch": 41,
          "onset": 183.0,
          "duration": 0.5,
          "velocity": 100
        },
        {
          "pitch": 65,
          "onset": 183.0,
          "duration": 2.9688,
          "velocity": 100
        },
        {
          "pitch": 69,
          "onset": 183.1562,
          "duration": 0.1562,
          "velocity": 100
        },
        {
          "pitch": 67,
          "onset": 183.3438,
          "duration": 0.1562,
          "velocity": 100
        },
        {
          "pitch": 53,
          "onset": 183.5,
          "duration": 0.25,
          "velocity": 100
        },
        {
          "pitch": 69,
          "onset": 183.5,
          "duration": 0.1562,
          "velocity": 100
        },
        {
          "pitch": 70,
          "onset": 183.6562,
          "duration": 0.1562,
          "velocity": 100
        },
        {
          "pitch": 51,
          "onset": 183.75,
          "duration": 0.25,
          "velocity": 100
        },
        {
          "pitch": 72,
          "onset": 183.8438,
          "duration": 0.3438,
          "velocity": 100
        },
        {
          "pitch": 50,
          "onset": 184.0,
          "duration": 0.5,
          "velocity": 100
        },
        {
          "pitch": 70,
          "onset": 184.1562,
          "duration": 0.1562,
          "velocity": 100
        },
        {
          "pitch": 69,
          "onset": 184.3438,
          "duration": 0.1562,
          "velocity": 100
        },
        {
          "pitch": 55,
          "onset": 184.5,
          "duration": 0.5,
          "velocity": 100
        },
        {
          "pitch": 70,
          "onset": 184.5,
          "duration": 0.1562,
          "velocity": 100
        },
        {
          "pitch": 72,
          "onset": 184.6562,
          "duration": 0.1562,
          "velocity": 100
        },
        {
          "pitch": 74,
          "onset": 184.8438,
          "duration": 0.3438,
          "velocity": 100
        },
        {
          "pitch": 48,
          "onset": 185.0,
          "duration": 0.5,
          "velocity": 100
        },
        {
          "pitch": 72,
          "onset": 185.1562,
          "duration": 0.1562,
          "velocity": 100
        },
        {
          "pitch": 70,
          "onset": 185.3438,
          "duration": 0.1562,
          "velocity": 100
        },
        {
          "pitch": 53,
          "onset": 185.5,
          "duration": 0.5,
          "velocity": 100
        },
        {
          "pitch": 72,
          "onset": 185.5,
          "duration": 0.1562,
          "velocity": 100
        },
        {
          "pitch": 74,
          "onset": 185.6562,
          "duration": 0.1562,
          "velocity": 100
        },
        {
          "pitch": 75,
          "onset": 185.8438,
          "duration": 0.3438,
          "velocity": 100
        },
        {
          "pitch": 46,
          "onset": 186.0,
          "duration": 0.5,
          "velocity": 100
        },
        {
          "pitch": 72,
          "onset": 186.1562,
          "duration": 0.1562,
          "velocity": 100
        },
        {
          "pitch": 74,
          "onset": 186.3438,
          "duration": 0.1562,
          "velocity": 100
        },
        {
          "pitch": 55,
          "onset": 186.5,
          "duration": 0.25,
          "velocity": 100
        },
        {
          "pitch": 82,
          "onset": 186.5,
          "duration": 0.6562,
          "velocity": 100
        },
        {
          "pitch": 53,
          "onset": 186.75,
          "duration": 0.25,
          "velocity": 100
        },
        {
          "pitch": 52,
          "onset": 187.0,
          "duration": 0.5,
          "velocity": 100
        },
        {
          "pitch": 72,
          "onset": 187.1562,
          "duration": 0.1562,
          "velocity": 100
        },
        {
          "pitch": 74,
          "onset": 187.3438,
          "duration": 0.1562,
          "velocity": 100
        },
        {
          "pitch": 48,
          "onset": 187.5,
          "duration": 0.5,
          "velocity": 100
        },
        {
          "pitch": 76,
          "onset": 187.5,
          "duration": 0.1562,
          "velocity": 100
        },
        {
          "pitch": 77,
          "onset": 187.6562,
          "duration": 0.1562,
          "velocity": 100
        },
        {
          "pitch": 79,
          "onset": 187.8438,
          "duration": 0.1562,
          "velocity": 100
        },
        {
          "pitch": 41,
          "onset": 188.0,
          "duration": 0.5,
          "velocity": 100
        },
        {
          "pitch": 81,
          "onset": 188.0,
          "duration": 0.1562,
          "velocity": 100
        },
        {
          "pitch": 79,
          "onset": 188.1562,
          "duration": 0.1562,
          "velocity": 100
        },
        {
          "pitch": 77,
          "onset": 188.3438,
          "duration": 0.1562,
          "velocity": 100
        },
        {
          "pitch": 43,
          "onset": 188.5,
          "duration": 0.5,
          "velocity": 100
        },
        {
          "pitch": 76,
          "onset": 188.5,
          "duration": 0.1562,
          "velocity": 100
        },
        {
          "pitch": 74,
          "onset": 188.6562,
          "duration": 0.1562,
          "velocity": 100
        },
        {
          "pitch": 72,
          "onset": 188.8438,
          "duration": 0.1562,
          "velocity": 100
        },
        {
          "pitch": 45,
          "onset": 189.0,
          "duration": 0.5,
          "velocity": 100
        },
        {
          "pitch": 77,
          "onset": 189.0,
          "duration": 0.1562,
          "velocity": 100
        },
        {
          "pitch": 76,
          "onset": 189.1562,
          "duration": 0.1562,
          "velocity": 100
        },
        {
          "pitch": 74,
          "onset": 189.3438,
          "duration": 0.1562,
          "velocity": 100
        },
        {
          "pitch": 53,
          "onset": 189.5,
          "duration": 0.5,
          "velocity": 100
        },
        {
          "pitch": 72,
          "onset": 189.5,
          "duration": 0.1562,
          "velocity": 100
        },
        {
          "pitch": 70,
          "onset": 189.6562,
          "duration": 0.1562,
          "velocity": 100
        },
        {
          "pitch": 69,
          "onset": 189.8438,
          "duration": 0.1562,
          "velocity": 100
        },
        {
          "pitch": 46,
          "onset": 190.0,
          "duration": 0.5,
          "velocity": 100
        },
        {
          "pitch": 74,
          "onset": 190.0,
          "duration": 0.1562,
          "velocity": 100
        },
        {
          "pitch": 72,
          "onset": 190.1562,
          "duration": 0.1562,
          "velocity": 100
        },
        {
          "pitch": 70,
          "onset": 190.3438,
          "duration": 0.1562,
          "velocity": 100
        },
        {
          "pitch": 50,
          "onset": 190.5,
          "duration": 0.5,
          "velocity": 100
        },
        {
          "pitch": 69,
          "onset": 190.5,
          "duration": 0.1562,
          "velocity": 100
        },
        {
          "pitch": 67,
          "onset": 190.6562,
          "duration": 0.1562,
          "velocity": 100
        },
        {
          "pitch": 65,
          "onset": 190.8438,
          "duration": 0.1562,
          "velocity": 100
        },
        {
          "pitch": 43,
          "onset": 191.0,
          "duration": 0.5,
          "velocity": 100
        },
        {
          "pitch": 64,
          "onset": 191.0,
          "duration": 0.1562,
          "velocity": 100
        },
        {
          "pitch": 67,
          "onset": 191.1562,
          "duration": 0.1562,
          "velocity": 100
        },
        {
          "pitch": 69,
          "onset": 191.3438,
          "duration": 0.1562,
          "velocity": 100
        },
        {
          "pitch": 52,
          "onset": 191.5,
          "duration": 0.5,
          "velocity": 100
        },
        {
          "pitch": 70,
          "onset": 191.5,
          "duration": 0.1562,
          "velocity": 100
        },
        {
          "pitch": 69,
          "onset": 191.6562,
          "duration": 0.1562,
          "velocity": 100
        },
        {
          "pitch": 67,
          "onset": 191.8438,
          "duration": 0.1562,
          "velocity": 100
        },
        {
          "pitch": 53,
          "onset": 192.0,
          "duration": 0.5,
          "velocity": 100
        },
        {
          "pitch": 69,
          "onset": 192.0,
          "duration": 0.1562,
          "velocity": 100
        },
        {
          "pitch": 67,
          "onset": 192.1562,
          "duration": 0.1562,
          "velocity": 100
        },
        {
          "pitch": 65,
          "onset": 192.3438,
          "duration": 0.1562,
          "velocity": 100
        },
        {
          "pitch": 48,
          "onset": 192.5,
          "duration": 0.25,
          "velocity": 100
        },
        {
          "pitch": 67,
          "onset": 192.5,
          "duration": 0.1562,
          "velocity": 100
        },
        {
          "pitch": 65,
          "onset": 192.6562,
          "duration": 0.1562,
          "velocity": 100
        },
        {
          "pitch": 46,
          "onset": 192.75,
          "duration": 0.25,
          "velocity": 100
        },
        {
          "pitch": 64,
          "onset": 192.8438,
          "duration": 0.1562,
          "velocity": 100
        },
        {
          "pitch": 45,
          "onset": 193.0,
          "duration": 0.5,
          "velocity": 100
        },
        {
          "pitch": 65,
          "onset": 193.0,
          "duration": 0.1562,
          "velocity": 100
        },
        {
          "pitch": 69,
          "onset": 193.1562,
          "duration": 0.1562,
          "velocity": 100
        },
        {
          "pitch": 67,
          "onset": 193.3438,
          "duration": 0.1562,
          "velocity": 100
        },
        {
          "pitch": 46,
          "onset": 193.5,
          "duration": 0.5,
          "velocity": 100
        },
        {
          "pitch": 65,
          "onset": 193.5,
          "duration": 0.1562,
          "velocity": 100
        },
        {
          "pitch": 64,
          "onset": 193.6562,
          "duration": 0.1562,
          "velocity": 100
        },
        {
          "pitch": 62,
          "onset": 193.8438,
          "duration": 0.1562,
          "velocity": 100
        },
        {
          "pitch": 48,
          "onset": 194.0,
          "duration": 0.5,
          "velocity": 100
        },
        {
          "pitch": 60,
          "onset": 194.0,
          "duration": 0.1562,
          "velocity": 100
        },
        {
          "pitch": 58,
          "onset": 194.1562,
          "duration": 0.1562,
          "velocity": 100
        },
        {
          "pitch": 57,
          "onset": 194.3438,
          "duration": 0.1562,
          "velocity": 100
        },
        {
          "pitch": 36,
          "onset": 194.5,
          "duration": 0.75,
          "velocity": 100
        },
        {
          "pitch": 58,
          "onset": 194.5,
          "duration": 0.1562,
          "velocity": 100
        },
        {
          "pitch": 57,
          "onset": 194.6562,
          "duration": 0.1562,
          "velocity": 100
        },
        {
          "pitch": 55,
          "onset": 194.8438,
          "duration": 0.4062,
          "velocity": 100
        },
        {
          "pitch": 41,
          "onset": 195.25,
          "duration": 2.7188,
          "velocity": 100
        },
        {
          "pitch": 57,
          "onset": 195.25,
          "duration": 0.125,
          "velocity": 100
        },
        {
          "pitch": 55,
          "onset": 195.375,
          "duration": 0.125,
          "velocity": 100
        },
        {
          "pitch": 57,
          "onset": 195.5,
          "duration": 2.4688,
          "velocity": 100
        },
        {
          "pitch": 57,
          "onset": 199.75,
          "duration": 0.25,
          "velocity": 1
        }
      ]
    }
  ]
}