{
  "bwv": 618,
  "category": "orgelbuchlein",
  "instrument": "organ",
  "form": "",
  "movement": null,
  "ticks_per_beat": 480,
  "duration_seconds": 206.9,
  "tempos": [
    {
      "tick": 0,
      "bpm": 30
    },
    {
      "tick": 48000,
      "bpm": 30
    },
    {
      "tick": 49920,
      "bpm": 30
    },
    {
      "tick": 50400,
      "bpm": 30
    }
  ],
  "time_signatures": [
    {
      "tick": 0,
      "numerator": 4,
      "denominator": 4
    }
  ],
  "track_type": "manual",
  "voice_count": 3,
  "total_notes": 889,
  "tracks": [
    {
      "role": "upper",
      "notes": [
        {
          "pitch": 72,
          "onset": 0.0,
          "duration": 0.0625,
          "velocity": 70
        },
        {
          "pitch": 70,
          "onset": 0.0625,
          "duration": 0.0625,
          "velocity": 70
        },
        {
          "pitch": 72,
          "onset": 0.125,
          "duration": 2.3438,
          "velocity": 70
        },
        {
          "pitch": 77,
          "onset": 2.5,
          "duration": 0.25,
          "velocity": 70
        },
        {
          "pitch": 76,
          "onset": 2.75,
          "duration": 0.25,
          "velocity": 70
        },
        {
          "pitch": 76,
          "onset": 3.0,
          "duration": 0.25,
          "velocity": 70
        },
        {
          "pitch": 74,
          "onset": 3.25,
          "duration": 0.25,
          "velocity": 70
        },
        {
          "pitch": 74,
          "onset": 3.5,
          "duration": 0.25,
          "velocity": 70
        },
        {
          "pitch": 72,
          "onset": 3.75,
          "duration": 0.25,
          "velocity": 70
        },
        {
          "pitch": 72,
          "onset": 4.0,
          "duration": 0.25,
          "velocity": 70
        },
        {
          "pitch": 74,
          "onset": 4.25,
          "duration": 0.125,
          "velocity": 70
        },
        {
          "pitch": 75,
          "onset": 4.375,
          "duration": 0.125,
          "velocity": 70
        },
        {
          "pitch": 74,
          "onset": 4.5,
          "duration": 0.25,
          "velocity": 70
        },
        {
          "pitch": 72,
          "onset": 4.75,
          "duration": 0.25,
          "velocity": 70
        },
        {
          "pitch": 72,
          "onset": 5.0,
          "duration": 0.25,
          "velocity": 70
        },
        {
          "pitch": 70,
          "onset": 5.25,
          "duration": 0.25,
          "velocity": 70
        },
        {
          "pitch": 70,
          "onset": 5.5,
          "duration": 0.25,
          "velocity": 70
        },
        {
          "pitch": 69,
          "onset": 5.75,
          "duration": 0.25,
          "velocity": 70
        },
        {
          "pitch": 60,
          "onset": 6.0,
          "duration": 1.9688,
          "velocity": 70
        },
        {
          "pitch": 69,
          "onset": 6.0,
          "duration": 0.25,
          "velocity": 70
        },
        {
          "pitch": 70,
          "onset": 6.25,
          "duration": 0.125,
          "velocity": 70
        },
        {
          "pitch": 72,
          "onset": 6.375,
          "duration": 0.125,
          "velocity": 70
        },
        {
          "pitch": 70,
          "onset": 6.5,
          "duration": 0.25,
          "velocity": 70
        },
        {
          "pitch": 69,
          "onset": 6.75,
          "duration": 0.25,
          "velocity": 70
        },
        {
          "pitch": 69,
          "onset": 7.0,
          "duration": 0.25,
          "velocity": 70
        },
        {
          "pitch": 67,
          "onset": 7.25,
          "duration": 0.25,
          "velocity": 70
        },
        {
          "pitch": 67,
          "onset": 7.5,
          "duration": 0.25,
          "velocity": 70
        },
        {
          "pitch": 69,
          "onset": 7.75,
          "duration": 0.125,
          "velocity": 70
        },
        {
          "pitch": 65,
          "onset": 7.875,
          "duration": 0.125,
          "velocity": 70
        },
        {
          "pitch": 60,
          "onset": 8.0,
          "duration": 1.0,
          "velocity": 70
        },
        {
          "pitch": 64,
          "onset": 8.0,
          "duration": 0.5,
          "velocity": 70
        },
        {
          "pitch": 76,
          "onset": 8.5,
          "duration": 0.25,
          "velocity": 70
        },
        {
          "pitch": 77,
          "onset": 8.75,
          "duration": 0.25,
          "velocity": 70
        },
        {
          "pitch": 60,
          "onset": 9.0,
          "duration": 1.0,
          "velocity": 70
        },
        {
          "pitch": 77,
          "onset": 9.0,
          "duration": 0.25,
          "velocity": 70
        },
        {
          "pitch": 79,
          "onset": 9.25,
          "duration": 0.25,
          "velocity": 70
        },
        {
          "pitch": 79,
          "onset": 9.5,
          "duration": 0.25,
          "velocity": 70
        },
        {
          "pitch": 81,
          "onset": 9.75,
          "duration": 0.25,
          "velocity": 70
        },
        {
          "pitch": 67,
          "onset": 10.0,
          "duration": 1.0,
          "velocity": 70
        },
        {
          "pitch": 74,
          "onset": 10.0,
          "duration": 0.5,
          "velocity": 70
        },
        {
          "pitch": 79,
          "onset": 10.5,
          "duration": 0.75,
          "velocity": 70
        },
        {
          "pitch": 67,
          "onset": 11.0,
          "duration": 1.0,
          "velocity": 70
        },
        {
          "pitch": 79,
          "onset": 11.25,
          "duration": 0.25,
          "velocity": 70
        },
        {
          "pitch": 81,
          "onset": 11.5,
          "duration": 0.25,
          "velocity": 70
        },
        {
          "pitch": 82,
          "onset": 11.75,
          "duration": 0.25,
          "velocity": 70
        },
        {
          "pitch": 69,
          "onset": 12.0,
          "duration": 1.9688,
          "velocity": 70
        },
        {
          "pitch": 76,
          "onset": 12.0,
          "duration": 0.25,
          "velocity": 70
        },
        {
          "pitch": 77,
          "onset": 12.25,
          "duration": 0.125,
          "velocity": 70
        },
        {
          "pitch": 79,
          "onset": 12.375,
          "duration": 0.125,
          "velocity": 70
        },
        {
          "pitch": 77,
          "onset": 12.5,
          "duration": 0.25,
          "velocity": 70
        },
        {
          "pitch": 76,
          "onset": 12.75,
          "duration": 0.25,
          "velocity": 70
        },
        {
          "pitch": 76,
          "onset": 13.0,
          "duration": 0.25,
          "velocity": 70
        },
        {
          "pitch": 74,
          "onset": 13.25,
          "duration": 0.25,
          "velocity": 70
        },
        {
          "pitch": 74,
          "onset": 13.5,
          "duration": 0.25,
          "velocity": 70
        },
        {
          "pitch": 72,
          "onset": 13.75,
          "duration": 0.25,
          "velocity": 70
        },
        {
          "pitch": 67,
          "onset": 14.0,
          "duration": 1.9688,
          "velocity": 70
        },
        {
          "pitch": 72,
          "onset": 14.0,
          "duration": 0.25,
          "velocity": 70
        },
        {
          "pitch": 74,
          "onset": 14.25,
          "duration": 0.125,
          "velocity": 70
        },
        {
          "pitch": 75,
          "onset": 14.375,
          "duration": 0.125,
          "velocity": 70
        },
        {
          "pitch": 74,
          "onset": 14.5,
          "duration": 0.25,
          "velocity": 70
        },
        {
          "pitch": 72,
          "onset": 14.75,
          "duration": 0.25,
          "velocity": 70
        },
        {
          "pitch": 72,
          "onset": 15.0,
          "duration": 0.25,
          "velocity": 70
        },
        {
          "pitch": 70,
          "onset": 15.25,
          "duration": 0.25,
          "velocity": 70
        },
        {
          "pitch": 70,
          "onset": 15.5,
          "duration": 0.25,
          "velocity": 70
        },
        {
          "pitch": 69,
          "onset": 15.75,
          "duration": 0.25,
          "velocity": 70
        },
        {
          "pitch": 69,
          "onset": 16.0,
          "duration": 0.25,
          "velocity": 70
        },
        {
          "pitch": 70,
          "onset": 16.25,
          "duration": 0.125,
          "velocity": 70
        },
        {
          "pitch": 72,
          "onset": 16.375,
          "duration": 0.125,
          "velocity": 70
        },
        {
          "pitch": 70,
          "onset": 16.5,
          "duration": 0.125,
          "velocity": 70
        },
        {
          "pitch": 67,
          "onset": 16.625,
          "duration": 0.125,
          "velocity": 70
        },
        {
          "pitch": 69,
          "onset": 16.75,
          "duration": 0.25,
          "velocity": 70
        },
        {
          "pitch": 64,
          "onset": 17.0,
          "duration": 0.75,
          "velocity": 70
        },
        {
          "pitch": 67,
          "onset": 17.0,
          "duration": 0.0625,
          "velocity": 70
        },
        {
          "pitch": 69,
          "onset": 17.0625,
          "duration": 0.0625,
          "velocity": 70
        },
        {
          "pitch": 67,
          "onset": 17.125,
          "duration": 0.0625,
          "velocity": 70
        },
        {
          "pitch": 69,
          "onset": 17.1875,
          "duration": 0.0625,
          "velocity": 70
        },
        {
          "pitch": 67,
          "onset": 17.25,
          "duration": 0.0625,
          "velocity": 70
        },
        {
          "pitch": 69,
          "onset": 17.3125,
          "duration": 0.0625,
          "velocity": 70
        },
        {
          "pitch": 67,
          "onset": 17.375,
          "duration": 0.0625,
          "velocity": 70
        },
        {
          "pitch": 69,
          "onset": 17.4375,
          "duration": 0.0625,
          "velocity": 70
        },
        {
          "pitch": 67,
          "onset": 17.5,
          "duration": 0.5,
          "velocity": 70
        },
        {
          "pitch": 65,
          "onset": 17.75,
          "duration": 0.25,
          "velocity": 70
        },
        {
          "pitch": 60,
          "onset": 18.0,
          "duration": 1.0,
          "velocity": 70
        },
        {
          "pitch": 65,
          "onset": 18.0,
          "duration": 1.0,
          "velocity": 70
        },
        {
          "pitch": 62,
          "onset": 19.0,
          "duration": 1.0,
          "velocity": 70
        },
        {
          "pitch": 64,
          "onset": 20.0,
          "duration": 1.0,
          "velocity": 70
        },
        {
          "pitch": 76,
          "onset": 20.5,
          "duration": 0.25,
          "velocity": 70
        },
        {
          "pitch": 74,
          "onset": 20.75,
          "duration": 0.25,
          "velocity": 70
        },
        {
          "pitch": 65,
          "onset": 21.0,
          "duration": 0.5,
          "velocity": 70
        },
        {
          "pitch": 74,
          "onset": 21.0,
          "duration": 0.25,
          "velocity": 70
        },
        {
          "pitch": 72,
          "onset": 21.25,
          "duration": 0.25,
          "velocity": 70
        },
        {
          "pitch": 64,
          "onset": 21.5,
          "duration": 0.5,
          "velocity": 70
        },
        {
          "pitch": 72,
          "onset": 21.5,
          "duration": 0.25,
          "velocity": 70
        },
        {
          "pitch": 71,
          "onset": 21.75,
          "duration": 0.25,
          "velocity": 70
        },
        {
          "pitch": 62,
          "onset": 22.0,
          "duration": 1.9688,
          "velocity": 70
        },
        {
          "pitch": 71,
          "onset": 22.0,
          "duration": 0.25,
          "velocity": 70
        },
        {
          "pitch": 72,
          "onset": 22.25,
          "duration": 0.125,
          "velocity": 70
        },
        {
          "pitch": 74,
          "onset": 22.375,
          "duration": 0.125,
          "velocity": 70
        },
        {
          "pitch": 72,
          "onset": 22.5,
          "duration": 0.25,
          "velocity": 70
        },
        {
          "pitch": 71,
          "onset": 22.75,
          "duration": 0.25,
          "velocity": 70
        },
        {
          "pitch": 71,
          "onset": 23.0,
          "duration": 0.25,
          "velocity": 70
        },
        {
          "pitch": 69,
          "onset": 23.25,
          "duration": 0.25,
          "velocity": 70
        },
        {
          "pitch": 69,
          "onset": 23.5,
          "duration": 0.25,
          "velocity": 70
        },
        {
          "pitch": 67,
          "onset": 23.75,
          "duration": 0.25,
          "velocity": 70
        },
        {
          "pitch": 60,
          "onset": 24.0,
          "duration": 1.0,
          "velocity": 70
        },
        {
          "pitch": 72,
          "onset": 24.0,
          "duration": 0.25,
          "velocity": 70
        },
        {
          "pitch": 74,
          "onset": 24.25,
          "duration": 0.125,
          "velocity": 70
        },
        {
          "pitch": 76,
          "onset": 24.375,
          "duration": 0.125,
          "velocity": 70
        },
        {
          "pitch": 77,
          "onset": 24.5,
          "duration": 0.125,
          "velocity": 70
        },
        {
          "pitch": 79,
          "onset": 24.625,
          "duration": 0.125,
          "velocity": 70
        },
        {
          "pitch": 81,
          "onset": 24.75,
          "duration": 0.25,
          "velocity": 70
        },
        {
          "pitch": 79,
          "onset": 25.0,
          "duration": 0.25,
          "velocity": 70
        },
        {
          "pitch": 77,
          "onset": 25.25,
          "duration": 0.25,
          "velocity": 70
        },
        {
          "pitch": 77,
          "onset": 25.5,
          "duration": 0.25,
          "velocity": 70
        },
        {
          "pitch": 76,
          "onset": 25.75,
          "duration": 0.25,
          "velocity": 70
        },
        {
          "pitch": 76,
          "onset": 26.0,
          "duration": 0.25,
          "velocity": 70
        },
        {
          "pitch": 79,
          "onset": 26.25,
          "duration": 0.125,
          "velocity": 70
        },
        {
          "pitch": 77,
          "onset": 26.375,
          "duration": 0.125,
          "velocity": 70
        },
        {
          "pitch": 79,
          "onset": 26.5,
          "duration": 0.375,
          "velocity": 70
        },
        {
          "pitch": 81,
          "onset": 26.875,
          "duration": 0.125,
          "velocity": 70
        },
        {
          "pitch": 74,
          "onset": 27.0,
          "duration": 0.75,
          "velocity": 70
        },
        {
          "pitch": 72,
          "onset": 27.75,
          "duration": 0.25,
          "velocity": 70
        },
        {
          "pitch": 72,
          "onset": 28.0,
          "duration": 0.0625,
          "velocity": 70
        },
        {
          "pitch": 70,
          "onset": 28.0625,
          "duration": 0.0625,
          "velocity": 70
        },
        {
          "pitch": 72,
          "onset": 28.125,
          "duration": 2.3438,
          "velocity": 70
        },
        {
          "pitch": 77,
          "onset": 30.5,
          "duration": 0.25,
          "velocity": 70
        },
        {
          "pitch": 76,
          "onset": 30.75,
          "duration": 0.25,
          "velocity": 70
        },
        {
          "pitch": 76,
          "onset": 31.0,
          "duration": 0.25,
          "velocity": 70
        },
        {
          "pitch": 74,
          "onset": 31.25,
          "duration": 0.25,
          "velocity": 70
        },
        {
          "pitch": 74,
          "onset": 31.5,
          "duration": 0.25,
          "velocity": 70
        },
        {
          "pitch": 72,
          "onset": 31.75,
          "duration": 0.25,
          "velocity": 70
        },
        {
          "pitch": 72,
          "onset": 32.0,
          "duration": 0.25,
          "velocity": 70
        },
        {
          "pitch": 74,
          "onset": 32.25,
          "duration": 0.125,
          "velocity": 70
        },
        {
          "pitch": 75,
          "onset": 32.375,
          "duration": 0.125,
          "velocity": 70
        },
        {
          "pitch": 74,
          "onset": 32.5,
          "duration": 0.25,
          "velocity": 70
        },
        {
          "pitch": 72,
          "onset": 32.75,
          "duration": 0.25,
          "velocity": 70
        },
        {
          "pitch": 72,
          "onset": 33.0,
          "duration": 0.25,
          "velocity": 70
        },
        {
          "pitch": 70,
          "onset": 33.25,
          "duration": 0.25,
          "velocity": 70
        },
        {
          "pitch": 70,
          "onset": 33.5,
          "duration": 0.25,
          "velocity": 70
        },
        {
          "pitch": 69,
          "onset": 33.75,
          "duration": 0.25,
          "velocity": 70
        },
        {
          "pitch": 60,
          "onset": 34.0,
          "duration": 1.9688,
          "velocity": 70
        },
        {
          "pitch": 69,
          "onset": 34.0,
          "duration": 0.25,
          "velocity": 70
        },
        {
          "pitch": 70,
          "onset": 34.25,
          "duration": 0.125,
          "velocity": 70
        },
        {
          "pitch": 72,
          "onset": 34.375,
          "duration": 0.125,
          "velocity": 70
        },
        {
          "pitch": 70,
          "onset": 34.5,
          "duration": 0.25,
          "velocity": 70
        },
        {
          "pitch": 69,
          "onset": 34.75,
          "duration": 0.25,
          "velocity": 70
        },
        {
          "pitch": 69,
          "onset": 35.0,
          "duration": 0.25,
          "velocity": 70
        },
        {
          "pitch": 67,
          "onset": 35.25,
          "duration": 0.25,
          "velocity": 70
        },
        {
          "pitch": 67,
          "onset": 35.5,
          "duration": 0.25,
          "velocity": 70
        },
        {
          "pitch": 69,
          "onset": 35.75,
          "duration": 0.125,
          "velocity": 70
        },
        {
          "pitch": 65,
          "onset": 35.875,
          "duration": 0.125,
          "velocity": 70
        },
        {
          "pitch": 60,
          "onset": 36.0,
          "duration": 1.0,
          "velocity": 70
        },
        {
          "pitch": 64,
          "onset": 36.0,
          "duration": 0.5,
          "velocity": 70
        },
        {
          "pitch": 76,
          "onset": 36.5,
          "duration": 0.25,
          "velocity": 70
        },
        {
          "pitch": 77,
          "onset": 36.75,
          "duration": 0.25,
          "velocity": 70
        },
        {
          "pitch": 60,
          "onset": 37.0,
          "duration": 1.0,
          "velocity": 70
        },
        {
          "pitch": 77,
          "onset": 37.0,
          "duration": 0.25,
          "velocity": 70
        },
        {
          "pitch": 79,
          "onset": 37.25,
          "duration": 0.25,
          "velocity": 70
        },
        {
          "pitch": 79,
          "onset": 37.5,
          "duration": 0.25,
          "velocity": 70
        },
        {
          "pitch": 81,
          "onset": 37.75,
          "duration": 0.25,
          "velocity": 70
        },
        {
          "pitch": 67,
          "onset": 38.0,
          "duration": 1.0,
          "velocity": 70
        },
        {
          "pitch": 74,
          "onset": 38.0,
          "duration": 0.5,
          "velocity": 70
        },
        {
          "pitch": 79,
          "onset": 38.5,
          "duration": 0.75,
          "velocity": 70
        },
        {
          "pitch": 67,
          "onset": 39.0,
          "duration": 1.0,
          "velocity": 70
        },
        {
          "pitch": 79,
          "onset": 39.25,
          "duration": 0.25,
          "velocity": 70
        },
        {
          "pitch": 81,
          "onset": 39.5,
          "duration": 0.25,
          "velocity": 70
        },
        {
          "pitch": 82,
          "onset": 39.75,
          "duration": 0.25,
          "velocity": 70
        },
        {
          "pitch": 69,
          "onset": 40.0,
          "duration": 1.9688,
          "velocity": 70
        },
        {
          "pitch": 76,
          "onset": 40.0,
          "duration": 0.25,
          "velocity": 70
        },
        {
          "pitch": 77,
          "onset": 40.25,
          "duration": 0.125,
          "velocity": 70
        },
        {
          "pitch": 79,
          "onset": 40.375,
          "duration": 0.125,
          "velocity": 70
        },
        {
          "pitch": 77,
          "onset": 40.5,
          "duration": 0.25,
          "velocity": 70
        },
        {
          "pitch": 76,
          "onset": 40.75,
          "duration": 0.25,
          "velocity": 70
        },
        {
          "pitch": 76,
          "onset": 41.0,
          "duration": 0.25,
          "velocity": 70
        },
        {
          "pitch": 74,
          "onset": 41.25,
          "duration": 0.25,
          "velocity": 70
        },
        {
          "pitch": 74,
          "onset": 41.5,
          "duration": 0.25,
          "velocity": 70
        },
        {
          "pitch": 72,
          "onset": 41.75,
          "duration": 0.25,
          "velocity": 70
        },
        {
          "pitch": 67,
          "onset": 42.0,
          "duration": 1.9688,
          "velocity": 70
        },
        {
          "pitch": 72,
          "onset": 42.0,
          "duration": 0.25,
          "velocity": 70
        },
        {
          "pitch": 74,
          "onset": 42.25,
          "duration": 0.125,
          "velocity": 70
        },
        {
          "pitch": 75,
          "onset": 42.375,
          "duration": 0.125,
          "velocity": 70
        },
        {
          "pitch": 74,
          "onset": 42.5,
          "duration": 0.25,
          "velocity": 70
        },
        {
          "pitch": 72,
          "onset": 42.75,
          "duration": 0.25,
          "velocity": 70
        },
        {
          "pitch": 72,
          "onset": 43.0,
          "duration": 0.25,
          "velocity": 70
        },
        {
          "pitch": 70,
          "onset": 43.25,
          "duration": 0.25,
          "velocity": 70
        },
        {
          "pitch": 70,
          "onset": 43.5,
          "duration": 0.25,
          "velocity": 70
        },
        {
          "pitch": 69,
          "onset": 43.75,
          "duration": 0.25,
          "velocity": 70
        },
        {
          "pitch": 69,
          "onset": 44.0,
          "duration": 0.25,
          "velocity": 70
        },
        {
          "pitch": 70,
          "onset": 44.25,
          "duration": 0.125,
          "velocity": 70
        },
        {
          "pitch": 72,
          "onset": 44.375,
          "duration": 0.125,
          "velocity": 70
        },
        {
          "pitch": 70,
          "onset": 44.5,
          "duration": 0.125,
          "velocity": 70
        },
        {
          "pitch": 67,
          "onset": 44.625,
          "duration": 0.125,
          "velocity": 70
        },
        {
          "pitch": 69,
          "onset": 44.75,
          "duration": 0.25,
          "velocity": 70
        },
        {
          "pitch": 64,
          "onset": 45.0,
          "duration": 0.75,
          "velocity": 70
        },
        {
          "pitch": 67,
          "onset": 45.0,
          "duration": 0.0625,
          "velocity": 70
        },
        {
          "pitch": 69,
          "onset": 45.0625,
          "duration": 0.0625,
          "velocity": 70
        },
        {
          "pitch": 67,
          "onset": 45.125,
          "duration": 0.0625,
          "velocity": 70
        },
        {
          "pitch": 69,
          "onset": 45.1875,
          "duration": 0.0625,
          "velocity": 70
        },
        {
          "pitch": 67,
          "onset": 45.25,
          "duration": 0.0625,
          "velocity": 70
        },
        {
          "pitch": 69,
          "onset": 45.3125,
          "duration": 0.0625,
          "velocity": 70
        },
        {
          "pitch": 67,
          "onset": 45.375,
          "duration": 0.0625,
          "velocity": 70
        },
        {
          "pitch": 69,
          "onset": 45.4375,
          "duration": 0.0625,
          "velocity": 70
        },
        {
          "pitch": 67,
          "onset": 45.5,
          "duration": 0.5,
          "velocity": 70
        },
        {
          "pitch": 65,
          "onset": 45.75,
          "duration": 0.25,
          "velocity": 70
        },
        {
          "pitch": 60,
          "onset": 46.0,
          "duration": 1.0,
          "velocity": 70
        },
        {
          "pitch": 65,
          "onset": 46.0,
          "duration": 1.0,
          "velocity": 70
        },
        {
          "pitch": 62,
          "onset": 47.0,
          "duration": 1.0,
          "velocity": 70
        },
        {
          "pitch": 64,
          "onset": 48.0,
          "duration": 1.0,
          "velocity": 70
        },
        {
          "pitch": 76,
          "onset": 48.5,
          "duration": 0.25,
          "velocity": 70
        },
        {
          "pitch": 74,
          "onset": 48.75,
          "duration": 0.25,
          "velocity": 70
        },
        {
          "pitch": 65,
          "onset": 49.0,
          "duration": 0.5,
          "velocity": 70
        },
        {
          "pitch": 74,
          "onset": 49.0,
          "duration": 0.25,
          "velocity": 70
        },
        {
          "pitch": 72,
          "onset": 49.25,
          "duration": 0.25,
          "velocity": 70
        },
        {
          "pitch": 64,
          "onset": 49.5,
          "duration": 0.5,
          "velocity": 70
        },
        {
          "pitch": 72,
          "onset": 49.5,
          "duration": 0.25,
          "velocity": 70
        },
        {
          "pitch": 71,
          "onset": 49.75,
          "duration": 0.25,
          "velocity": 70
        },
        {
          "pitch": 62,
          "onset": 50.0,
          "duration": 1.9688,
          "velocity": 70
        },
        {
          "pitch": 71,
          "onset": 50.0,
          "duration": 0.25,
          "velocity": 70
        },
        {
          "pitch": 72,
          "onset": 50.25,
          "duration": 0.125,
          "velocity": 70
        },
        {
          "pitch": 74,
          "onset": 50.375,
          "duration": 0.125,
          "velocity": 70
        },
        {
          "pitch": 72,
          "onset": 50.5,
          "duration": 0.25,
          "velocity": 70
        },
        {
          "pitch": 71,
          "onset": 50.75,
          "duration": 0.25,
          "velocity": 70
        },
        {
          "pitch": 71,
          "onset": 51.0,
          "duration": 0.25,
          "velocity": 70
        },
        {
          "pitch": 69,
          "onset": 51.25,
          "duration": 0.25,
          "velocity": 70
        },
        {
          "pitch": 69,
          "onset": 51.5,
          "duration": 0.25,
          "velocity": 70
        },
        {
          "pitch": 67,
          "onset": 51.75,
          "duration": 0.25,
          "velocity": 70
        },
        {
          "pitch": 60,
          "onset": 52.0,
          "duration": 1.0,
          "velocity": 70
        },
        {
          "pitch": 72,
          "onset": 52.0,
          "duration": 0.25,
          "velocity": 70
        },
        {
          "pitch": 74,
          "onset": 52.25,
          "duration": 0.125,
          "velocity": 70
        },
        {
          "pitch": 76,
          "onset": 52.375,
          "duration": 0.125,
          "velocity": 70
        },
        {
          "pitch": 77,
          "onset": 52.5,
          "duration": 0.125,
          "velocity": 70
        },
        {
          "pitch": 79,
          "onset": 52.625,
          "duration": 0.125,
          "velocity": 70
        },
        {
          "pitch": 81,
          "onset": 52.75,
          "duration": 0.25,
          "velocity": 70
        },
        {
          "pitch": 79,
          "onset": 53.0,
          "duration": 0.25,
          "velocity": 70
        },
        {
          "pitch": 77,
          "onset": 53.25,
          "duration": 0.25,
          "velocity": 70
        },
        {
          "pitch": 77,
          "onset": 53.5,
          "duration": 0.25,
          "velocity": 70
        },
        {
          "pitch": 76,
          "onset": 53.75,
          "duration": 0.25,
          "velocity": 70
        },
        {
          "pitch": 76,
          "onset": 54.0,
          "duration": 0.25,
          "velocity": 70
        },
        {
          "pitch": 79,
          "onset": 54.25,
          "duration": 0.125,
          "velocity": 70
        },
        {
          "pitch": 77,
          "onset": 54.375,
          "duration": 0.125,
          "velocity": 70
        },
        {
          "pitch": 79,
          "onset": 54.5,
          "duration": 0.375,
          "velocity": 70
        },
        {
          "pitch": 81,
          "onset": 54.875,
          "duration": 0.125,
          "velocity": 70
        },
        {
          "pitch": 74,
          "onset": 55.0,
          "duration": 0.75,
          "velocity": 70
        },
        {
          "pitch": 72,
          "onset": 55.75,
          "duration": 0.25,
          "velocity": 70
        },
        {
          "pitch": 72,
          "onset": 56.0,
          "duration": 4.5,
          "velocity": 70
        },
        {
          "pitch": 64,
          "onset": 60.0,
          "duration": 1.9688,
          "velocity": 70
        },
        {
          "pitch": 71,
          "onset": 60.5,
          "duration": 0.25,
          "velocity": 70
        },
        {
          "pitch": 72,
          "onset": 60.75,
          "duration": 0.25,
          "velocity": 70
        },
        {
          "pitch": 72,
          "onset": 61.0,
          "duration": 0.25,
          "velocity": 70
        },
        {
          "pitch": 74,
          "onset": 61.25,
          "duration": 0.25,
          "velocity": 70
        },
        {
          "pitch": 74,
          "onset": 61.5,
          "duration": 0.25,
          "velocity": 70
        },
        {
          "pitch": 76,
          "onset": 61.75,
          "duration": 0.25,
          "velocity": 70
        },
        {
          "pitch": 64,
          "onset": 62.0,
          "duration": 1.0,
          "velocity": 70
        },
        {
          "pitch": 76,
          "onset": 62.0,
          "duration": 0.5,
          "velocity": 70
        },
        {
          "pitch": 71,
          "onset": 62.5,
          "duration": 0.25,
          "velocity": 70
        },
        {
          "pitch": 69,
          "onset": 62.75,
          "duration": 0.25,
          "velocity": 70
        },
        {
          "pitch": 64,
          "onset": 63.0,
          "duration": 1.0,
          "velocity": 70
        },
        {
          "pitch": 69,
          "onset": 63.0,
          "duration": 0.25,
          "velocity": 70
        },
        {
          "pitch": 67,
          "onset": 63.25,
          "duration": 0.25,
          "velocity": 70
        },
        {
          "pitch": 67,
          "onset": 63.5,
          "duration": 0.25,
          "velocity": 70
        },
        {
          "pitch": 65,
          "onset": 63.75,
          "duration": 0.25,
          "velocity": 70
        },
        {
          "pitch": 62,
          "onset": 64.0,
          "duration": 0.75,
          "velocity": 70
        },
        {
          "pitch": 65,
          "onset": 64.0,
          "duration": 0.25,
          "velocity": 70
        },
        {
          "pitch": 67,
          "onset": 64.25,
          "duration": 0.125,
          "velocity": 70
        },
        {
          "pitch": 69,
          "onset": 64.375,
          "duration": 0.125,
          "velocity": 70
        },
        {
          "pitch": 67,
          "onset": 64.5,
          "duration": 0.25,
          "velocity": 70
        },
        {
          "pitch": 60,
          "onset": 64.75,
          "duration": 0.25,
          "velocity": 70
        },
        {
          "pitch": 65,
          "onset": 64.75,
          "duration": 0.25,
          "velocity": 70
        },
        {
          "pitch": 59,
          "onset": 65.0,
          "duration": 1.0,
          "velocity": 70
        },
        {
          "pitch": 65,
          "onset": 65.0,
          "duration": 0.25,
          "velocity": 70
        },
        {
          "pitch": 64,
          "onset": 65.25,
          "duration": 0.25,
          "velocity": 70
        },
        {
          "pitch": 64,
          "onset": 65.5,
          "duration": 0.25,
          "velocity": 70
        },
        {
          "pitch": 65,
          "onset": 65.75,
          "duration": 0.25,
          "velocity": 70
        },
        {
          "pitch": 60,
          "onset": 66.0,
          "duration": 0.5,
          "velocity": 70
        },
        {
          "pitch": 64,
          "onset": 66.0,
          "duration": 0.5,
          "velocity": 70
        },
        {
          "pitch": 59,
          "onset": 66.5,
          "duration": 0.5,
          "velocity": 70
        },
        {
          "pitch": 67,
          "onset": 66.5,
          "duration": 0.25,
          "velocity": 70
        },
        {
          "pitch": 69,
          "onset": 66.75,
          "duration": 0.25,
          "velocity": 70
        },
        {
          "pitch": 57,
          "onset": 67.0,
          "duration": 1.0,
          "velocity": 70
        },
        {
          "pitch": 69,
          "onset": 67.0,
          "duration": 0.25,
          "velocity": 70
        },
        {
          "pitch": 71,
          "onset": 67.25,
          "duration": 0.25,
          "velocity": 70
        },
        {
          "pitch": 71,
          "onset": 67.5,
          "duration": 0.25,
          "velocity": 70
        },
        {
          "pitch": 72,
          "onset": 67.75,
          "duration": 0.25,
          "velocity": 70
        },
        {
          "pitch": 55,
          "onset": 68.0,
          "duration": 1.9688,
          "velocity": 70
        },
        {
          "pitch": 72,
          "onset": 68.0,
          "duration": 0.25,
          "velocity": 70
        },
        {
          "pitch": 71,
          "onset": 68.25,
          "duration": 0.125,
          "velocity": 70
        },
        {
          "pitch": 69,
          "onset": 68.375,
          "duration": 0.125,
          "velocity": 70
        },
        {
          "pitch": 71,
          "onset": 68.5,
          "duration": 0.25,
          "velocity": 70
        },
        {
          "pitch": 72,
          "onset": 68.75,
          "duration": 0.25,
          "velocity": 70
        },
        {
          "pitch": 72,
          "onset": 69.0,
          "duration": 0.25,
          "velocity": 70
        },
        {
          "pitch": 74,
          "onset": 69.25,
          "duration": 0.25,
          "velocity": 70
        },
        {
          "pitch": 74,
          "onset": 69.5,
          "duration": 0.25,
          "velocity": 70
        },
        {
          "pitch": 76,
          "onset": 69.75,
          "duration": 0.25,
          "velocity": 70
        },
        {
          "pitch": 76,
          "onset": 70.0,
          "duration": 0.25,
          "velocity": 70
        },
        {
          "pitch": 74,
          "onset": 70.25,
          "duration": 0.125,
          "velocity": 70
        },
        {
          "pitch": 72,
          "onset": 70.375,
          "duration": 0.125,
          "velocity": 70
        },
        {
          "pitch": 74,
          "onset": 70.5,
          "duration": 0.25,
          "velocity": 70
        },
        {
          "pitch": 76,
          "onset": 70.75,
          "duration": 0.25,
          "velocity": 70
        },
        {
          "pitch": 76,
          "onset": 71.0,
          "duration": 0.25,
          "velocity": 70
        },
        {
          "pitch": 78,
          "onset": 71.25,
          "duration": 0.25,
          "velocity": 70
        },
        {
          "pitch": 78,
          "onset": 71.5,
          "duration": 0.25,
          "velocity": 70
        },
        {
          "pitch": 79,
          "onset": 71.75,
          "duration": 0.25,
          "velocity": 70
        },
        {
          "pitch": 67,
          "onset": 72.0,
          "duration": 1.9688,
          "velocity": 70
        },
        {
          "pitch": 79,
          "onset": 72.0,
          "duration": 0.5,
          "velocity": 70
        },
        {
          "pitch": 75,
          "onset": 72.5,
          "duration": 0.25,
          "velocity": 70
        },
        {
          "pitch": 74,
          "onset": 72.75,
          "duration": 0.25,
          "velocity": 70
        },
        {
          "pitch": 74,
          "onset": 73.0,
          "duration": 0.25,
          "velocity": 70
        },
        {
          "pitch": 72,
          "onset": 73.25,
          "duration": 0.25,
          "velocity": 70
        },
        {
          "pitch": 72,
          "onset": 73.5,
          "duration": 0.25,
          "velocity": 70
        },
        {
          "pitch": 70,
          "onset": 73.75,
          "duration": 0.25,
          "velocity": 70
        },
        {
          "pitch": 67,
          "onset": 74.0,
          "duration": 1.0,
          "velocity": 70
        },
        {
          "pitch": 70,
          "onset": 74.0,
          "duration": 0.25,
          "velocity": 70
        },
        {
          "pitch": 72,
          "onset": 74.25,
          "duration": 0.125,
          "velocity": 70
        },
        {
          "pitch": 74,
          "onset": 74.375,
          "duration": 0.125,
          "velocity": 70
        },
        {
          "pitch": 72,
          "onset": 74.5,
          "duration": 0.25,
          "velocity": 70
        },
        {
          "pitch": 70,
          "onset": 74.75,
          "duration": 0.25,
          "velocity": 70
        },
        {
          "pitch": 67,
          "onset": 75.0,
          "duration": 0.75,
          "velocity": 70
        },
        {
          "pitch": 70,
          "onset": 75.0,
          "duration": 0.25,
          "velocity": 70
        },
        {
          "pitch": 69,
          "onset": 75.25,
          "duration": 0.25,
          "velocity": 70
        },
        {
          "pitch": 69,
          "onset": 75.5,
          "duration": 0.25,
          "velocity": 70
        },
        {
          "pitch": 67,
          "onset": 75.75,
          "duration": 0.25,
          "velocity": 70
        },
        {
          "pitch": 70,
          "onset": 76.0,
          "duration": 1.0,
          "velocity": 70
        },
        {
          "pitch": 75,
          "onset": 76.0,
          "duration": 0.25,
          "velocity": 70
        },
        {
          "pitch": 74,
          "onset": 76.25,
          "duration": 0.25,
          "velocity": 70
        },
        {
          "pitch": 74,
          "onset": 76.5,
          "duration": 0.25,
          "velocity": 70
        },
        {
          "pitch": 76,
          "onset": 76.75,
          "duration": 0.25,
          "velocity": 70
        },
        {
          "pitch": 67,
          "onset": 77.0,
          "duration": 1.9688,
          "velocity": 70
        },
        {
          "pitch": 76,
          "onset": 77.0,
          "duration": 0.25,
          "velocity": 70
        },
        {
          "pitch": 77,
          "onset": 77.25,
          "duration": 0.25,
          "velocity": 70
        },
        {
          "pitch": 77,
          "onset": 77.5,
          "duration": 0.25,
          "velocity": 70
        },
        {
          "pitch": 79,
          "onset": 77.75,
          "duration": 0.25,
          "velocity": 70
        },
        {
          "pitch": 79,
          "onset": 78.0,
          "duration": 0.25,
          "velocity": 70
        },
        {
          "pitch": 77,
          "onset": 78.25,
          "duration": 0.125,
          "velocity": 70
        },
        {
          "pitch": 76,
          "onset": 78.375,
          "duration": 0.125,
          "velocity": 70
        },
        {
          "pitch": 74,
          "onset": 78.5,
          "duration": 0.25,
          "velocity": 70
        },
        {
          "pitch": 76,
          "onset": 78.75,
          "duration": 0.25,
          "velocity": 70
        },
        {
          "pitch": 65,
          "onset": 79.0,
          "duration": 1.0,
          "velocity": 70
        },
        {
          "pitch": 76,
          "onset": 79.0,
          "duration": 0.25,
          "velocity": 70
        },
        {
          "pitch": 74,
          "onset": 79.25,
          "duration": 0.25,
          "velocity": 70
        },
        {
          "pitch": 74,
          "onset": 79.5,
          "duration": 0.25,
          "velocity": 70
        },
        {
          "pitch": 73,
          "onset": 79.75,
          "duration": 0.25,
          "velocity": 70
        },
        {
          "pitch": 64,
          "onset": 80.0,
          "duration": 1.9688,
          "velocity": 70
        },
        {
          "pitch": 73,
          "onset": 80.0,
          "duration": 0.5,
          "velocity": 70
        },
        {
          "pitch": 70,
          "onset": 80.5,
          "duration": 0.25,
          "velocity": 70
        },
        {
          "pitch": 69,
          "onset": 80.75,
          "duration": 0.25,
          "velocity": 70
        },
        {
          "pitch": 69,
          "onset": 81.0,
          "duration": 0.25,
          "velocity": 70
        },
        {
          "pitch": 67,
          "onset": 81.25,
          "duration": 0.25,
          "velocity": 70
        },
        {
          "pitch": 67,
          "onset": 81.5,
          "duration": 0.25,
          "velocity": 70
        },
        {
          "pitch": 65,
          "onset": 81.75,
          "duration": 0.25,
          "velocity": 70
        },
        {
          "pitch": 65,
          "onset": 82.0,
          "duration": 0.5,
          "velocity": 70
        },
        {
          "pitch": 70,
          "onset": 82.5,
          "duration": 0.25,
          "velocity": 70
        },
        {
          "pitch": 72,
          "onset": 82.75,
          "duration": 0.125,
          "velocity": 70
        },
        {
          "pitch": 74,
          "onset": 82.875,
          "duration": 0.125,
          "velocity": 70
        },
        {
          "pitch": 72,
          "onset": 83.0,
          "duration": 0.25,
          "velocity": 70
        },
        {
          "pitch": 70,
          "onset": 83.25,
          "duration": 0.25,
          "velocity": 70
        },
        {
          "pitch": 70,
          "onset": 83.5,
          "duration": 0.25,
          "velocity": 70
        },
        {
          "pitch": 69,
          "onset": 83.75,
          "duration": 0.25,
          "velocity": 70
        },
        {
          "pitch": 69,
          "onset": 84.0,
          "duration": 1.9688,
          "velocity": 70
        },
        {
          "pitch": 72,
          "onset": 84.125,
          "duration": 0.125,
          "velocity": 70
        },
        {
          "pitch": 74,
          "onset": 84.25,
          "duration": 0.125,
          "velocity": 70
        },
        {
          "pitch": 76,
          "onset": 84.375,
          "duration": 0.125,
          "velocity": 70
        },
        {
          "pitch": 77,
          "onset": 84.5,
          "duration": 0.125,
          "velocity": 70
        },
        {
          "pitch": 79,
          "onset": 84.625,
          "duration": 0.125,
          "velocity": 70
        },
        {
          "pitch": 81,
          "onset": 84.75,
          "duration": 0.25,
          "velocity": 70
        },
        {
          "pitch": 79,
          "onset": 85.0,
          "duration": 0.25,
          "velocity": 70
        },
        {
          "pitch": 77,
          "onset": 85.25,
          "duration": 0.25,
          "velocity": 70
        },
        {
          "pitch": 77,
          "onset": 85.5,
          "duration": 0.25,
          "velocity": 70
        },
        {
          "pitch": 76,
          "onset": 85.75,
          "duration": 0.25,
          "velocity": 70
        },
        {
          "pitch": 67,
          "onset": 86.0,
          "duration": 2.9688,
          "velocity": 70
        },
        {
          "pitch": 76,
          "onset": 86.0,
          "duration": 0.25,
          "velocity": 70
        },
        {
          "pitch": 77,
          "onset": 86.25,
          "duration": 0.125,
          "velocity": 70
        },
        {
          "pitch": 79,
          "onset": 86.375,
          "duration": 0.125,
          "velocity": 70
        },
        {
          "pitch": 77,
          "onset": 86.5,
          "duration": 0.25,
          "velocity": 70
        },
        {
          "pitch": 76,
          "onset": 86.75,
          "duration": 0.25,
          "velocity": 70
        },
        {
          "pitch": 76,
          "onset": 87.0,
          "duration": 0.25,
          "velocity": 70
        },
        {
          "pitch": 74,
          "onset": 87.25,
          "duration": 0.25,
          "velocity": 70
        },
        {
          "pitch": 74,
          "onset": 87.5,
          "duration": 0.25,
          "velocity": 70
        },
        {
          "pitch": 72,
          "onset": 87.75,
          "duration": 0.25,
          "velocity": 70
        },
        {
          "pitch": 72,
          "onset": 88.0,
          "duration": 0.25,
          "velocity": 70
        },
        {
          "pitch": 74,
          "onset": 88.5,
          "duration": 0.25,
          "velocity": 70
        },
        {
          "pitch": 72,
          "onset": 88.75,
          "duration": 0.25,
          "velocity": 70
        },
        {
          "pitch": 65,
          "onset": 89.0,
          "duration": 0.5,
          "velocity": 70
        },
        {
          "pitch": 71,
          "onset": 89.0,
          "duration": 0.25,
          "velocity": 70
        },
        {
          "pitch": 72,
          "onset": 89.25,
          "duration": 0.25,
          "velocity": 70
        },
        {
          "pitch": 64,
          "onset": 89.5,
          "duration": 0.5,
          "velocity": 70
        },
        {
          "pitch": 72,
          "onset": 89.5,
          "duration": 0.25,
          "velocity": 70
        },
        {
          "pitch": 74,
          "onset": 89.75,
          "duration": 0.25,
          "velocity": 70
        },
        {
          "pitch": 62,
          "onset": 90.0,
          "duration": 2.9688,
          "velocity": 70
        },
        {
          "pitch": 74,
          "onset": 90.0,
          "duration": 0.5,
          "velocity": 70
        },
        {
          "pitch": 64,
          "onset": 90.5,
          "duration": 0.25,
          "velocity": 70
        },
        {
          "pitch": 66,
          "onset": 90.75,
          "duration": 0.25,
          "velocity": 70
        },
        {
          "pitch": 66,
          "onset": 91.0,
          "duration": 0.25,
          "velocity": 70
        },
        {
          "pitch": 67,
          "onset": 91.25,
          "duration": 0.25,
          "velocity": 70
        },
        {
          "pitch": 67,
          "onset": 91.5,
          "duration": 0.25,
          "velocity": 70
        },
        {
          "pitch": 69,
          "onset": 91.75,
          "duration": 0.25,
          "velocity": 70
        },
        {
          "pitch": 69,
          "onset": 92.0,
          "duration": 0.5,
          "velocity": 70
        },
        {
          "pitch": 74,
          "onset": 92.5,
          "duration": 0.5,
          "velocity": 70
        },
        {
          "pitch": 64,
          "onset": 93.0,
          "duration": 0.5,
          "velocity": 70
        },
        {
          "pitch": 74,
          "onset": 93.0,
          "duration": 0.0625,
          "velocity": 70
        },
        {
          "pitch": 72,
          "onset": 93.0625,
          "duration": 0.0625,
          "velocity": 70
        },
        {
          "pitch": 74,
          "onset": 93.125,
          "duration": 1.125,
          "velocity": 70
        },
        {
          "pitch": 66,
          "onset": 93.5,
          "duration": 0.5,
          "velocity": 70
        },
        {
          "pitch": 67,
          "onset": 94.0,
          "duration": 2.9688,
          "velocity": 70
        },
        {
          "pitch": 76,
          "onset": 94.25,
          "duration": 0.125,
          "velocity": 70
        },
        {
          "pitch": 77,
          "onset": 94.375,
          "duration": 0.125,
          "velocity": 70
        },
        {
          "pitch": 76,
          "onset": 94.5,
          "duration": 0.25,
          "velocity": 70
        },
        {
          "pitch": 74,
          "onset": 94.75,
          "duration": 0.25,
          "velocity": 70
        },
        {
          "pitch": 73,
          "onset": 95.0,
          "duration": 0.25,
          "velocity": 70
        },
        {
          "pitch": 74,
          "onset": 95.25,
          "duration": 0.25,
          "velocity": 70
        },
        {
          "pitch": 74,
          "onset": 95.5,
          "duration": 0.25,
          "velocity": 70
        },
        {
          "pitch": 76,
          "onset": 95.75,
          "duration": 0.25,
          "velocity": 70
        },
        {
          "pitch": 76,
          "onset": 96.0,
          "duration": 0.25,
          "velocity": 70
        },
        {
          "pitch": 77,
          "onset": 96.25,
          "duration": 0.125,
          "velocity": 70
        },
        {
          "pitch": 79,
          "onset": 96.375,
          "duration": 0.125,
          "velocity": 70
        },
        {
          "pitch": 77,
          "onset": 96.5,
          "duration": 0.25,
          "velocity": 70
        },
        {
          "pitch": 76,
          "onset": 96.75,
          "duration": 0.25,
          "velocity": 70
        },
        {
          "pitch": 65,
          "onset": 97.0,
          "duration": 1.0,
          "velocity": 70
        },
        {
          "pitch": 74,
          "onset": 97.0,
          "duration": 0.25,
          "velocity": 70
        },
        {
          "pitch": 72,
          "onset": 97.25,
          "duration": 0.25,
          "velocity": 70
        },
        {
          "pitch": 72,
          "onset": 97.5,
          "duration": 0.25,
          "velocity": 70
        },
        {
          "pitch": 71,
          "onset": 97.75,
          "duration": 0.25,
          "velocity": 70
        },
        {
          "pitch": 64,
          "onset": 98.0,
          "duration": 2.5,
          "velocity": 70
        },
        {
          "pitch": 72,
          "onset": 98.0,
          "duration": 2.25,
          "velocity": 70
        },
        {
          "pitch": 70,
          "onset": 100.25,
          "duration": 0.125,
          "velocity": 70
        },
        {
          "pitch": 69,
          "onset": 100.375,
          "duration": 0.125,
          "velocity": 70
        },
        {
          "pitch": 67,
          "onset": 100.5,
          "duration": 0.5,
          "velocity": 70
        },
        {
          "pitch": 69,
          "onset": 100.75,
          "duration": 0.25,
          "velocity": 70
        },
        {
          "pitch": 65,
          "onset": 101.0,
          "duration": 0.5,
          "velocity": 70
        },
        {
          "pitch": 69,
          "onset": 101.0,
          "duration": 0.25,
          "velocity": 70
        },
        {
          "pitch": 70,
          "onset": 101.25,
          "duration": 0.25,
          "velocity": 70
        },
        {
          "pitch": 64,
          "onset": 101.5,
          "duration": 0.5,
          "velocity": 70
        },
        {
          "pitch": 70,
          "onset": 101.5,
          "duration": 0.25,
          "velocity": 70
        },
        {
          "pitch": 69,
          "onset": 101.75,
          "duration": 0.25,
          "velocity": 70
        },
        {
          "pitch": 62,
          "onset": 102.0,
          "duration": 1.9688,
          "velocity": 70
        },
        {
          "pitch": 69,
          "onset": 102.0,
          "duration": 0.25,
          "velocity": 70
        },
        {
          "pitch": 67,
          "onset": 102.25,
          "duration": 0.125,
          "velocity": 70
        },
        {
          "pitch": 65,
          "onset": 102.375,
          "duration": 0.125,
          "velocity": 70
        },
        {
          "pitch": 67,
          "onset": 102.5,
          "duration": 0.25,
          "velocity": 70
        },
        {
          "pitch": 69,
          "onset": 102.75,
          "duration": 0.25,
          "velocity": 70
        },
        {
          "pitch": 69,
          "onset": 103.0,
          "duration": 0.25,
          "velocity": 70
        },
        {
          "pitch": 70,
          "onset": 103.25,
          "duration": 0.25,
          "velocity": 70
        },
        {
          "pitch": 70,
          "onset": 103.5,
          "duration": 0.75,
          "velocity": 70
        },
        {
          "pitch": 60,
          "onset": 104.0,
          "duration": 3.9688,
          "velocity": 70
        },
        {
          "pitch": 72,
          "onset": 104.25,
          "duration": 0.125,
          "velocity": 70
        },
        {
          "pitch": 74,
          "onset": 104.375,
          "duration": 0.125,
          "velocity": 70
        },
        {
          "pitch": 72,
          "onset": 104.5,
          "duration": 0.25,
          "velocity": 70
        },
        {
          "pitch": 70,
          "onset": 104.75,
          "duration": 0.25,
          "velocity": 70
        },
        {
          "pitch": 70,
          "onset": 105.0,
          "duration": 0.25,
          "velocity": 70
        },
        {
          "pitch": 69,
          "onset": 105.25,
          "duration": 0.25,
          "velocity": 70
        },
        {
          "pitch": 69,
          "onset": 105.5,
          "duration": 0.25,
          "velocity": 70
        },
        {
          "pitch": 67,
          "onset": 105.75,
          "duration": 0.5,
          "velocity": 70
        },
        {
          "pitch": 69,
          "onset": 106.25,
          "duration": 1.75,
          "velocity": 70
        },
        {
          "pitch": 69,
          "onset": 109.25,
          "duration": 0.25,
          "velocity": 1
        }
      ]
    },
    {
      "role": "lower",
      "notes": [
        {
          "pitch": 53,
          "onset": 0.5,
          "duration": 0.25,
          "velocity": 70
        },
        {
          "pitch": 52,
          "onset": 0.75,
          "duration": 0.25,
          "velocity": 70
        },
        {
          "pitch": 52,
          "onset": 1.0,
          "duration": 0.25,
          "velocity": 70
        },
        {
          "pitch": 50,
          "onset": 1.25,
          "duration": 0.25,
          "velocity": 70
        },
        {
          "pitch": 50,
          "onset": 1.5,
          "duration": 0.25,
          "velocity": 70
        },
        {
          "pitch": 48,
          "onset": 1.75,
          "duration": 0.25,
          "velocity": 70
        },
        {
          "pitch": 48,
          "onset": 2.0,
          "duration": 0.25,
          "velocity": 70
        },
        {
          "pitch": 50,
          "onset": 2.25,
          "duration": 0.125,
          "velocity": 70
        },
        {
          "pitch": 51,
          "onset": 2.375,
          "duration": 0.125,
          "velocity": 70
        },
        {
          "pitch": 50,
          "onset": 2.5,
          "duration": 0.25,
          "velocity": 70
        },
        {
          "pitch": 48,
          "onset": 2.75,
          "duration": 0.25,
          "velocity": 70
        },
        {
          "pitch": 48,
          "onset": 3.0,
          "duration": 0.25,
          "velocity": 70
        },
        {
          "pitch": 46,
          "onset": 3.25,
          "duration": 0.25,
          "velocity": 70
        },
        {
          "pitch": 46,
          "onset": 3.5,
          "duration": 0.25,
          "velocity": 70
        },
        {
          "pitch": 45,
          "onset": 3.75,
          "duration": 0.25,
          "velocity": 70
        },
        {
          "pitch": 45,
          "onset": 4.0,
          "duration": 0.25,
          "velocity": 70
        },
        {
          "pitch": 46,
          "onset": 4.25,
          "duration": 0.125,
          "velocity": 70
        },
        {
          "pitch": 48,
          "onset": 4.375,
          "duration": 0.125,
          "velocity": 70
        },
        {
          "pitch": 46,
          "onset": 4.5,
          "duration": 0.25,
          "velocity": 70
        },
        {
          "pitch": 45,
          "onset": 4.75,
          "duration": 0.25,
          "velocity": 70
        },
        {
          "pitch": 45,
          "onset": 5.0,
          "duration": 0.25,
          "velocity": 70
        },
        {
          "pitch": 43,
          "onset": 5.25,
          "duration": 0.25,
          "velocity": 70
        },
        {
          "pitch": 43,
          "onset": 5.5,
          "duration": 0.25,
          "velocity": 70
        },
        {
          "pitch": 41,
          "onset": 5.75,
          "duration": 0.25,
          "velocity": 70
        },
        {
          "pitch": 41,
          "onset": 6.0,
          "duration": 0.5,
          "velocity": 70
        },
        {
          "pitch": 52,
          "onset": 6.5,
          "duration": 0.5,
          "velocity": 70
        },
        {
          "pitch": 53,
          "onset": 7.0,
          "duration": 0.5,
          "velocity": 70
        },
        {
          "pitch": 55,
          "onset": 7.5,
          "duration": 0.5,
          "velocity": 70
        },
        {
          "pitch": 57,
          "onset": 8.0,
          "duration": 0.25,
          "velocity": 70
        },
        {
          "pitch": 58,
          "onset": 8.25,
          "duration": 0.125,
          "velocity": 70
        },
        {
          "pitch": 60,
          "onset": 8.375,
          "duration": 0.125,
          "velocity": 70
        },
        {
          "pitch": 58,
          "onset": 8.5,
          "duration": 0.25,
          "velocity": 70
        },
        {
          "pitch": 57,
          "onset": 8.75,
          "duration": 0.25,
          "velocity": 70
        },
        {
          "pitch": 57,
          "onset": 9.0,
          "duration": 0.25,
          "velocity": 70
        },
        {
          "pitch": 55,
          "onset": 9.25,
          "duration": 0.25,
          "velocity": 70
        },
        {
          "pitch": 55,
          "onset": 9.5,
          "duration": 0.25,
          "velocity": 70
        },
        {
          "pitch": 53,
          "onset": 9.75,
          "duration": 0.25,
          "velocity": 70
        },
        {
          "pitch": 58,
          "onset": 10.0,
          "duration": 0.25,
          "velocity": 70
        },
        {
          "pitch": 60,
          "onset": 10.25,
          "duration": 0.125,
          "velocity": 70
        },
        {
          "pitch": 62,
          "onset": 10.375,
          "duration": 0.125,
          "velocity": 70
        },
        {
          "pitch": 60,
          "onset": 10.5,
          "duration": 0.25,
          "velocity": 70
        },
        {
          "pitch": 58,
          "onset": 10.75,
          "duration": 0.25,
          "velocity": 70
        },
        {
          "pitch": 58,
          "onset": 11.0,
          "duration": 0.25,
          "velocity": 70
        },
        {
          "pitch": 57,
          "onset": 11.25,
          "duration": 0.25,
          "velocity": 70
        },
        {
          "pitch": 57,
          "onset": 11.5,
          "duration": 0.25,
          "velocity": 70
        },
        {
          "pitch": 55,
          "onset": 11.75,
          "duration": 0.25,
          "velocity": 70
        },
        {
          "pitch": 60,
          "onset": 12.0,
          "duration": 0.5,
          "velocity": 70
        },
        {
          "pitch": 57,
          "onset": 12.5,
          "duration": 0.25,
          "velocity": 70
        },
        {
          "pitch": 55,
          "onset": 12.75,
          "duration": 0.25,
          "velocity": 70
        },
        {
          "pitch": 55,
          "onset": 13.0,
          "duration": 0.25,
          "velocity": 70
        },
        {
          "pitch": 53,
          "onset": 13.25,
          "duration": 0.25,
          "velocity": 70
        },
        {
          "pitch": 53,
          "onset": 13.5,
          "duration": 0.25,
          "velocity": 70
        },
        {
          "pitch": 52,
          "onset": 13.75,
          "duration": 0.25,
          "velocity": 70
        },
        {
          "pitch": 52,
          "onset": 14.0,
          "duration": 0.25,
          "velocity": 70
        },
        {
          "pitch": 53,
          "onset": 14.25,
          "duration": 0.125,
          "velocity": 70
        },
        {
          "pitch": 55,
          "onset": 14.375,
          "duration": 0.125,
          "velocity": 70
        },
        {
          "pitch": 53,
          "onset": 14.5,
          "duration": 0.25,
          "velocity": 70
        },
        {
          "pitch": 52,
          "onset": 14.75,
          "duration": 0.25,
          "velocity": 70
        },
        {
          "pitch": 52,
          "onset": 15.0,
          "duration": 0.25,
          "velocity": 70
        },
        {
          "pitch": 50,
          "onset": 15.25,
          "duration": 0.25,
          "velocity": 70
        },
        {
          "pitch": 50,
          "onset": 15.5,
          "duration": 0.25,
          "velocity": 70
        },
        {
          "pitch": 52,
          "onset": 15.75,
          "duration": 0.25,
          "velocity": 70
        },
        {
          "pitch": 53,
          "onset": 16.0,
          "duration": 0.5,
          "velocity": 70
        },
        {
          "pitch": 50,
          "onset": 16.5,
          "duration": 0.25,
          "velocity": 70
        },
        {
          "pitch": 48,
          "onset": 16.75,
          "duration": 0.25,
          "velocity": 70
        },
        {
          "pitch": 48,
          "onset": 17.0,
          "duration": 0.25,
          "velocity": 70
        },
        {
          "pitch": 46,
          "onset": 17.25,
          "duration": 0.25,
          "velocity": 70
        },
        {
          "pitch": 46,
          "onset": 17.5,
          "duration": 0.25,
          "velocity": 70
        },
        {
          "pitch": 45,
          "onset": 17.75,
          "duration": 0.25,
          "velocity": 70
        },
        {
          "pitch": 45,
          "onset": 18.0,
          "duration": 0.25,
          "velocity": 70
        },
        {
          "pitch": 46,
          "onset": 18.25,
          "duration": 0.125,
          "velocity": 70
        },
        {
          "pitch": 48,
          "onset": 18.375,
          "duration": 0.125,
          "velocity": 70
        },
        {
          "pitch": 46,
          "onset": 18.5,
          "duration": 0.25,
          "velocity": 70
        },
        {
          "pitch": 45,
          "onset": 18.75,
          "duration": 0.25,
          "velocity": 70
        },
        {
          "pitch": 45,
          "onset": 19.0,
          "duration": 0.25,
          "velocity": 70
        },
        {
          "pitch": 43,
          "onset": 19.25,
          "duration": 0.25,
          "velocity": 70
        },
        {
          "pitch": 43,
          "onset": 19.5,
          "duration": 0.25,
          "velocity": 70
        },
        {
          "pitch": 41,
          "onset": 19.75,
          "duration": 0.25,
          "velocity": 70
        },
        {
          "pitch": 48,
          "onset": 20.0,
          "duration": 0.5,
          "velocity": 70
        },
        {
          "pitch": 36,
          "onset": 20.5,
          "duration": 0.5,
          "velocity": 70
        },
        {
          "pitch": 38,
          "onset": 21.0,
          "duration": 0.5,
          "velocity": 70
        },
        {
          "pitch": 40,
          "onset": 21.5,
          "duration": 0.5,
          "velocity": 70
        },
        {
          "pitch": 41,
          "onset": 22.0,
          "duration": 0.5,
          "velocity": 70
        },
        {
          "pitch": 40,
          "onset": 22.5,
          "duration": 0.5,
          "velocity": 70
        },
        {
          "pitch": 41,
          "onset": 23.0,
          "duration": 0.5,
          "velocity": 70
        },
        {
          "pitch": 43,
          "onset": 23.5,
          "duration": 0.5,
          "velocity": 70
        },
        {
          "pitch": 45,
          "onset": 24.0,
          "duration": 0.5,
          "velocity": 70
        },
        {
          "pitch": 53,
          "onset": 24.5,
          "duration": 0.25,
          "velocity": 70
        },
        {
          "pitch": 52,
          "onset": 24.75,
          "duration": 0.25,
          "velocity": 70
        },
        {
          "pitch": 52,
          "onset": 25.0,
          "duration": 0.25,
          "velocity": 70
        },
        {
          "pitch": 50,
          "onset": 25.25,
          "duration": 0.25,
          "velocity": 70
        },
        {
          "pitch": 50,
          "onset": 25.5,
          "duration": 0.25,
          "velocity": 70
        },
        {
          "pitch": 48,
          "onset": 25.75,
          "duration": 0.25,
          "velocity": 70
        },
        {
          "pitch": 48,
          "onset": 26.0,
          "duration": 0.5,
          "velocity": 70
        },
        {
          "pitch": 53,
          "onset": 26.5,
          "duration": 0.5,
          "velocity": 70
        },
        {
          "pitch": 55,
          "onset": 27.0,
          "duration": 0.5,
          "velocity": 70
        },
        {
          "pitch": 43,
          "onset": 27.5,
          "duration": 0.5,
          "velocity": 70
        },
        {
          "pitch": 48,
          "onset": 28.0,
          "duration": 0.5,
          "velocity": 70
        },
        {
          "pitch": 53,
          "onset": 28.5,
          "duration": 0.25,
          "velocity": 70
        },
        {
          "pitch": 52,
          "onset": 28.75,
          "duration": 0.25,
          "velocity": 70
        },
        {
          "pitch": 52,
          "onset": 29.0,
          "duration": 0.25,
          "velocity": 70
        },
        {
          "pitch": 50,
          "onset": 29.25,
          "duration": 0.25,
          "velocity": 70
        },
        {
          "pitch": 50,
          "onset": 29.5,
          "duration": 0.25,
          "velocity": 70
        },
        {
          "pitch": 48,
          "onset": 29.75,
          "duration": 0.25,
          "velocity": 70
        },
        {
          "pitch": 48,
          "onset": 30.0,
          "duration": 0.25,
          "velocity": 70
        },
        {
          "pitch": 50,
          "onset": 30.25,
          "duration": 0.125,
          "velocity": 70
        },
        {
          "pitch": 51,
          "onset": 30.375,
          "duration": 0.125,
          "velocity": 70
        },
        {
          "pitch": 50,
          "onset": 30.5,
          "duration": 0.25,
          "velocity": 70
        },
        {
          "pitch": 48,
          "onset": 30.75,
          "duration": 0.25,
          "velocity": 70
        },
        {
          "pitch": 48,
          "onset": 31.0,
          "duration": 0.25,
          "velocity": 70
        },
        {
          "pitch": 46,
          "onset": 31.25,
          "duration": 0.25,
          "velocity": 70
        },
        {
          "pitch": 46,
          "onset": 31.5,
          "duration": 0.25,
          "velocity": 70
        },
        {
          "pitch": 45,
          "onset": 31.75,
          "duration": 0.25,
          "velocity": 70
        },
        {
          "pitch": 45,
          "onset": 32.0,
          "duration": 0.25,
          "velocity": 70
        },
        {
          "pitch": 46,
          "onset": 32.25,
          "duration": 0.125,
          "velocity": 70
        },
        {
          "pitch": 48,
          "onset": 32.375,
          "duration": 0.125,
          "velocity": 70
        },
        {
          "pitch": 46,
          "onset": 32.5,
          "duration": 0.25,
          "velocity": 70
        },
        {
          "pitch": 45,
          "onset": 32.75,
          "duration": 0.25,
          "velocity": 70
        },
        {
          "pitch": 45,
          "onset": 33.0,
          "duration": 0.25,
          "velocity": 70
        },
        {
          "pitch": 43,
          "onset": 33.25,
          "duration": 0.25,
          "velocity": 70
        },
        {
          "pitch": 43,
          "onset": 33.5,
          "duration": 0.25,
          "velocity": 70
        },
        {
          "pitch": 41,
          "onset": 33.75,
          "duration": 0.25,
          "velocity": 70
        },
        {
          "pitch": 41,
          "onset": 34.0,
          "duration": 0.5,
          "velocity": 70
        },
        {
          "pitch": 52,
          "onset": 34.5,
          "duration": 0.5,
          "velocity": 70
        },
        {
          "pitch": 53,
          "onset": 35.0,
          "duration": 0.5,
          "velocity": 70
        },
        {
          "pitch": 55,
          "onset": 35.5,
          "duration": 0.5,
          "velocity": 70
        },
        {
          "pitch": 57,
          "onset": 36.0,
          "duration": 0.25,
          "velocity": 70
        },
        {
          "pitch": 58,
          "onset": 36.25,
          "duration": 0.125,
          "velocity": 70
        },
        {
          "pitch": 60,
          "onset": 36.375,
          "duration": 0.125,
          "velocity": 70
        },
        {
          "pitch": 58,
          "onset": 36.5,
          "duration": 0.25,
          "velocity": 70
        },
        {
          "pitch": 57,
          "onset": 36.75,
          "duration": 0.25,
          "velocity": 70
        },
        {
          "pitch": 57,
          "onset": 37.0,
          "duration": 0.25,
          "velocity": 70
        },
        {
          "pitch": 55,
          "onset": 37.25,
          "duration": 0.25,
          "velocity": 70
        },
        {
          "pitch": 55,
          "onset": 37.5,
          "duration": 0.25,
          "velocity": 70
        },
        {
          "pitch": 53,
          "onset": 37.75,
          "duration": 0.25,
          "velocity": 70
        },
        {
          "pitch": 58,
          "onset": 38.0,
          "duration": 0.25,
          "velocity": 70
        },
        {
          "pitch": 60,
          "onset": 38.25,
          "duration": 0.125,
          "velocity": 70
        },
        {
          "pitch": 62,
          "onset": 38.375,
          "duration": 0.125,
          "velocity": 70
        },
        {
          "pitch": 60,
          "onset": 38.5,
          "duration": 0.25,
          "velocity": 70
        },
        {
          "pitch": 58,
          "onset": 38.75,
          "duration": 0.25,
          "velocity": 70
        },
        {
          "pitch": 58,
          "onset": 39.0,
          "duration": 0.25,
          "velocity": 70
        },
        {
          "pitch": 57,
          "onset": 39.25,
          "duration": 0.25,
          "velocity": 70
        },
        {
          "pitch": 57,
          "onset": 39.5,
          "duration": 0.25,
          "velocity": 70
        },
        {
          "pitch": 55,
          "onset": 39.75,
          "duration": 0.25,
          "velocity": 70
        },
        {
          "pitch": 60,
          "onset": 40.0,
          "duration": 0.5,
          "velocity": 70
        },
        {
          "pitch": 57,
          "onset": 40.5,
          "duration": 0.25,
          "velocity": 70
        },
        {
          "pitch": 55,
          "onset": 40.75,
          "duration": 0.25,
          "velocity": 70
        },
        {
          "pitch": 55,
          "onset": 41.0,
          "duration": 0.25,
          "velocity": 70
        },
        {
          "pitch": 53,
          "onset": 41.25,
          "duration": 0.25,
          "velocity": 70
        },
        {
          "pitch": 53,
          "onset": 41.5,
          "duration": 0.25,
          "velocity": 70
        },
        {
          "pitch": 52,
          "onset": 41.75,
          "duration": 0.25,
          "velocity": 70
        },
        {
          "pitch": 52,
          "onset": 42.0,
          "duration": 0.25,
          "velocity": 70
        },
        {
          "pitch": 53,
          "onset": 42.25,
          "duration": 0.125,
          "velocity": 70
        },
        {
          "pitch": 55,
          "onset": 42.375,
          "duration": 0.125,
          "velocity": 70
        },
        {
          "pitch": 53,
          "onset": 42.5,
          "duration": 0.25,
          "velocity": 70
        },
        {
          "pitch": 52,
          "onset": 42.75,
          "duration": 0.25,
          "velocity": 70
        },
        {
          "pitch": 52,
          "onset": 43.0,
          "duration": 0.25,
          "velocity": 70
        },
        {
          "pitch": 50,
          "onset": 43.25,
          "duration": 0.25,
          "velocity": 70
        },
        {
          "pitch": 50,
          "onset": 43.5,
          "duration": 0.25,
          "velocity": 70
        },
        {
          "pitch": 52,
          "onset": 43.75,
          "duration": 0.25,
          "velocity": 70
        },
        {
          "pitch": 53,
          "onset": 44.0,
          "duration": 0.5,
          "velocity": 70
        },
        {
          "pitch": 50,
          "onset": 44.5,
          "duration": 0.25,
          "velocity": 70
        },
        {
          "pitch": 48,
          "onset": 44.75,
          "duration": 0.25,
          "velocity": 70
        },
        {
          "pitch": 48,
          "onset": 45.0,
          "duration": 0.25,
          "velocity": 70
        },
        {
          "pitch": 46,
          "onset": 45.25,
          "duration": 0.25,
          "velocity": 70
        },
        {
          "pitch": 46,
          "onset": 45.5,
          "duration": 0.25,
          "velocity": 70
        },
        {
          "pitch": 45,
          "onset": 45.75,
          "duration": 0.25,
          "velocity": 70
        },
        {
          "pitch": 45,
          "onset": 46.0,
          "duration": 0.25,
          "velocity": 70
        },
        {
          "pitch": 46,
          "onset": 46.25,
          "duration": 0.125,
          "velocity": 70
        },
        {
          "pitch": 48,
          "onset": 46.375,
          "duration": 0.125,
          "velocity": 70
        },
        {
          "pitch": 46,
          "onset": 46.5,
          "duration": 0.25,
          "velocity": 70
        },
        {
          "pitch": 45,
          "onset": 46.75,
          "duration": 0.25,
          "velocity": 70
        },
        {
          "pitch": 45,
          "onset": 47.0,
          "duration": 0.25,
          "velocity": 70
        },
        {
          "pitch": 43,
          "onset": 47.25,
          "duration": 0.25,
          "velocity": 70
        },
        {
          "pitch": 43,
          "onset": 47.5,
          "duration": 0.25,
          "velocity": 70
        },
        {
          "pitch": 41,
          "onset": 47.75,
          "duration": 0.25,
          "velocity": 70
        },
        {
          "pitch": 48,
          "onset": 48.0,
          "duration": 0.5,
          "velocity": 70
        },
        {
          "pitch": 36,
          "onset": 48.5,
          "duration": 0.5,
          "velocity": 70
        },
        {
          "pitch": 38,
          "onset": 49.0,
          "duration": 0.5,
          "velocity": 70
        },
        {
          "pitch": 40,
          "onset": 49.5,
          "duration": 0.5,
          "velocity": 70
        },
        {
          "pitch": 41,
          "onset": 50.0,
          "duration": 0.5,
          "velocity": 70
        },
        {
          "pitch": 40,
          "onset": 50.5,
          "duration": 0.5,
          "velocity": 70
        },
        {
          "pitch": 41,
          "onset": 51.0,
          "duration": 0.5,
          "velocity": 70
        },
        {
          "pitch": 43,
          "onset": 51.5,
          "duration": 0.5,
          "velocity": 70
        },
        {
          "pitch": 45,
          "onset": 52.0,
          "duration": 0.5,
          "velocity": 70
        },
        {
          "pitch": 53,
          "onset": 52.5,
          "duration": 0.25,
          "velocity": 70
        },
        {
          "pitch": 52,
          "onset": 52.75,
          "duration": 0.25,
          "velocity": 70
        },
        {
          "pitch": 52,
          "onset": 53.0,
          "duration": 0.25,
          "velocity": 70
        },
        {
          "pitch": 50,
          "onset": 53.25,
          "duration": 0.25,
          "velocity": 70
        },
        {
          "pitch": 50,
          "onset": 53.5,
          "duration": 0.25,
          "velocity": 70
        },
        {
          "pitch": 48,
          "onset": 53.75,
          "duration": 0.25,
          "velocity": 70
        },
        {
          "pitch": 48,
          "onset": 54.0,
          "duration": 0.5,
          "velocity": 70
        },
        {
          "pitch": 53,
          "onset": 54.5,
          "duration": 0.5,
          "velocity": 70
        },
        {
          "pitch": 55,
          "onset": 55.0,
          "duration": 0.5,
          "velocity": 70
        },
        {
          "pitch": 43,
          "onset": 55.5,
          "duration": 0.5,
          "velocity": 70
        },
        {
          "pitch": 48,
          "onset": 56.0,
          "duration": 0.5,
          "velocity": 70
        },
        {
          "pitch": 36,
          "onset": 56.5,
          "duration": 0.25,
          "velocity": 70
        },
        {
          "pitch": 38,
          "onset": 56.75,
          "duration": 0.25,
          "velocity": 70
        },
        {
          "pitch": 38,
          "onset": 57.0,
          "duration": 0.25,
          "velocity": 70
        },
        {
          "pitch": 40,
          "onset": 57.25,
          "duration": 0.25,
          "velocity": 70
        },
        {
          "pitch": 40,
          "onset": 57.5,
          "duration": 0.25,
          "velocity": 70
        },
        {
          "pitch": 41,
          "onset": 57.75,
          "duration": 0.25,
          "velocity": 70
        },
        {
          "pitch": 41,
          "onset": 58.0,
          "duration": 0.25,
          "velocity": 70
        },
        {
          "pitch": 40,
          "onset": 58.25,
          "duration": 0.125,
          "velocity": 70
        },
        {
          "pitch": 38,
          "onset": 58.375,
          "duration": 0.125,
          "velocity": 70
        },
        {
          "pitch": 40,
          "onset": 58.5,
          "duration": 0.25,
          "velocity": 70
        },
        {
          "pitch": 41,
          "onset": 58.75,
          "duration": 0.25,
          "velocity": 70
        },
        {
          "pitch": 41,
          "onset": 59.0,
          "duration": 0.25,
          "velocity": 70
        },
        {
          "pitch": 43,
          "onset": 59.25,
          "duration": 0.25,
          "velocity": 70
        },
        {
          "pitch": 43,
          "onset": 59.5,
          "duration": 0.25,
          "velocity": 70
        },
        {
          "pitch": 45,
          "onset": 59.75,
          "duration": 0.25,
          "velocity": 70
        },
        {
          "pitch": 45,
          "onset": 60.0,
          "duration": 0.25,
          "velocity": 70
        },
        {
          "pitch": 43,
          "onset": 60.25,
          "duration": 0.125,
          "velocity": 70
        },
        {
          "pitch": 41,
          "onset": 60.375,
          "duration": 0.125,
          "velocity": 70
        },
        {
          "pitch": 43,
          "onset": 60.5,
          "duration": 0.25,
          "velocity": 70
        },
        {
          "pitch": 45,
          "onset": 60.75,
          "duration": 0.25,
          "velocity": 70
        },
        {
          "pitch": 45,
          "onset": 61.0,
          "duration": 0.25,
          "velocity": 70
        },
        {
          "pitch": 47,
          "onset": 61.25,
          "duration": 0.25,
          "velocity": 70
        },
        {
          "pitch": 47,
          "onset": 61.5,
          "duration": 0.25,
          "velocity": 70
        },
        {
          "pitch": 48,
          "onset": 61.75,
          "duration": 0.25,
          "velocity": 70
        },
        {
          "pitch": 48,
          "onset": 62.0,
          "duration": 0.75,
          "velocity": 70
        },
        {
          "pitch": 48,
          "onset": 62.75,
          "duration": 0.0625,
          "velocity": 70
        },
        {
          "pitch": 50,
          "onset": 62.8125,
          "duration": 0.0625,
          "velocity": 70
        },
        {
          "pitch": 48,
          "onset": 62.875,
          "duration": 0.0625,
          "velocity": 70
        },
        {
          "pitch": 50,
          "onset": 62.9375,
          "duration": 0.0625,
          "velocity": 70
        },
        {
          "pitch": 49,
          "onset": 63.0,
          "duration": 0.0625,
          "velocity": 70
        },
        {
          "pitch": 50,
          "onset": 63.0625,
          "duration": 0.0625,
          "velocity": 70
        },
        {
          "pitch": 49,
          "onset": 63.125,
          "duration": 0.0625,
          "velocity": 70
        },
        {
          "pitch": 50,
          "onset": 63.1875,
          "duration": 0.0625,
          "velocity": 70
        },
        {
          "pitch": 49,
          "onset": 63.25,
          "duration": 0.5,
          "velocity": 70
        },
        {
          "pitch": 47,
          "onset": 63.75,
          "duration": 0.125,
          "velocity": 70
        },
        {
          "pitch": 49,
          "onset": 63.875,
          "duration": 0.125,
          "velocity": 70
        },
        {
          "pitch": 50,
          "onset": 64.0,
          "duration": 0.25,
          "velocity": 70
        },
        {
          "pitch": 52,
          "onset": 64.25,
          "duration": 0.25,
          "velocity": 70
        },
        {
          "pitch": 52,
          "onset": 64.5,
          "duration": 0.25,
          "velocity": 70
        },
        {
          "pitch": 53,
          "onset": 64.75,
          "duration": 0.25,
          "velocity": 70
        },
        {
          "pitch": 44,
          "onset": 65.0,
          "duration": 0.0625,
          "velocity": 70
        },
        {
          "pitch": 45,
          "onset": 65.0625,
          "duration": 0.0625,
          "velocity": 70
        },
        {
          "pitch": 44,
          "onset": 65.125,
          "duration": 0.0625,
          "velocity": 70
        },
        {
          "pitch": 45,
          "onset": 65.1875,
          "duration": 0.0625,
          "velocity": 70
        },
        {
          "pitch": 44,
          "onset": 65.25,
          "duration": 0.5,
          "velocity": 70
        },
        {
          "pitch": 42,
          "onset": 65.75,
          "duration": 0.125,
          "velocity": 70
        },
        {
          "pitch": 44,
          "onset": 65.875,
          "duration": 0.125,
          "velocity": 70
        },
        {
          "pitch": 45,
          "onset": 66.0,
          "duration": 0.5,
          "velocity": 70
        },
        {
          "pitch": 52,
          "onset": 66.5,
          "duration": 0.25,
          "velocity": 70
        },
        {
          "pitch": 53,
          "onset": 66.75,
          "duration": 0.25,
          "velocity": 70
        },
        {
          "pitch": 53,
          "onset": 67.0,
          "duration": 0.25,
          "velocity": 70
        },
        {
          "pitch": 55,
          "onset": 67.25,
          "duration": 0.125,
          "velocity": 70
        },
        {
          "pitch": 57,
          "onset": 67.375,
          "duration": 0.125,
          "velocity": 70
        },
        {
          "pitch": 55,
          "onset": 67.5,
          "duration": 0.25,
          "velocity": 70
        },
        {
          "pitch": 53,
          "onset": 67.75,
          "duration": 0.25,
          "velocity": 70
        },
        {
          "pitch": 52,
          "onset": 68.0,
          "duration": 0.25,
          "velocity": 70
        },
        {
          "pitch": 53,
          "onset": 68.25,
          "duration": 0.125,
          "velocity": 70
        },
        {
          "pitch": 55,
          "onset": 68.375,
          "duration": 0.125,
          "velocity": 70
        },
        {
          "pitch": 53,
          "onset": 68.5,
          "duration": 0.25,
          "velocity": 70
        },
        {
          "pitch": 52,
          "onset": 68.75,
          "duration": 0.25,
          "velocity": 70
        },
        {
          "pitch": 52,
          "onset": 69.0,
          "duration": 0.25,
          "velocity": 70
        },
        {
          "pitch": 50,
          "onset": 69.25,
          "duration": 0.25,
          "velocity": 70
        },
        {
          "pitch": 50,
          "onset": 69.5,
          "duration": 0.25,
          "velocity": 70
        },
        {
          "pitch": 48,
          "onset": 69.75,
          "duration": 0.25,
          "velocity": 70
        },
        {
          "pitch": 48,
          "onset": 70.0,
          "duration": 0.5,
          "velocity": 70
        },
        {
          "pitch": 47,
          "onset": 70.5,
          "duration": 0.5,
          "velocity": 70
        },
        {
          "pitch": 48,
          "onset": 71.0,
          "duration": 0.5,
          "velocity": 70
        },
        {
          "pitch": 50,
          "onset": 71.5,
          "duration": 0.5,
          "velocity": 70
        },
        {
          "pitch": 51,
          "onset": 72.0,
          "duration": 0.5,
          "velocity": 70
        },
        {
          "pitch": 48,
          "onset": 72.5,
          "duration": 0.25,
          "velocity": 70
        },
        {
          "pitch": 46,
          "onset": 72.75,
          "duration": 0.25,
          "velocity": 70
        },
        {
          "pitch": 46,
          "onset": 73.0,
          "duration": 0.25,
          "velocity": 70
        },
        {
          "pitch": 45,
          "onset": 73.25,
          "duration": 0.25,
          "velocity": 70
        },
        {
          "pitch": 45,
          "onset": 73.5,
          "duration": 0.25,
          "velocity": 70
        },
        {
          "pitch": 43,
          "onset": 73.75,
          "duration": 0.25,
          "velocity": 70
        },
        {
          "pitch": 43,
          "onset": 74.0,
          "duration": 0.5,
          "velocity": 70
        },
        {
          "pitch": 46,
          "onset": 74.5,
          "duration": 0.5,
          "velocity": 70
        },
        {
          "pitch": 51,
          "onset": 75.0,
          "duration": 0.5,
          "velocity": 70
        },
        {
          "pitch": 52,
          "onset": 75.5,
          "duration": 0.5,
          "velocity": 70
        },
        {
          "pitch": 53,
          "onset": 76.0,
          "duration": 0.5,
          "velocity": 70
        },
        {
          "pitch": 54,
          "onset": 76.5,
          "duration": 0.5,
          "velocity": 70
        },
        {
          "pitch": 55,
          "onset": 77.0,
          "duration": 0.5,
          "velocity": 70
        },
        {
          "pitch": 52,
          "onset": 77.5,
          "duration": 0.5,
          "velocity": 70
        },
        {
          "pitch": 49,
          "onset": 78.0,
          "duration": 0.5,
          "velocity": 70
        },
        {
          "pitch": 45,
          "onset": 78.5,
          "duration": 0.5,
          "velocity": 70
        },
        {
          "pitch": 50,
          "onset": 79.0,
          "duration": 0.5,
          "velocity": 70
        },
        {
          "pitch": 44,
          "onset": 79.5,
          "duration": 0.5,
          "velocity": 70
        },
        {
          "pitch": 45,
          "onset": 80.0,
          "duration": 0.5,
          "velocity": 70
        },
        {
          "pitch": 45,
          "onset": 80.5,
          "duration": 0.25,
          "velocity": 70
        },
        {
          "pitch": 47,
          "onset": 80.75,
          "duration": 0.25,
          "velocity": 70
        },
        {
          "pitch": 47,
          "onset": 81.0,
          "duration": 0.25,
          "velocity": 70
        },
        {
          "pitch": 49,
          "onset": 81.25,
          "duration": 0.25,
          "velocity": 70
        },
        {
          "pitch": 49,
          "onset": 81.5,
          "duration": 0.25,
          "velocity": 70
        },
        {
          "pitch": 50,
          "onset": 81.75,
          "duration": 0.25,
          "velocity": 70
        },
        {
          "pitch": 50,
          "onset": 82.0,
          "duration": 0.25,
          "velocity": 70
        },
        {
          "pitch": 48,
          "onset": 82.25,
          "duration": 0.125,
          "velocity": 70
        },
        {
          "pitch": 46,
          "onset": 82.375,
          "duration": 0.125,
          "velocity": 70
        },
        {
          "pitch": 48,
          "onset": 82.5,
          "duration": 0.25,
          "velocity": 70
        },
        {
          "pitch": 50,
          "onset": 82.75,
          "duration": 0.25,
          "velocity": 70
        },
        {
          "pitch": 50,
          "onset": 83.0,
          "duration": 0.25,
          "velocity": 70
        },
        {
          "pitch": 52,
          "onset": 83.25,
          "duration": 0.25,
          "velocity": 70
        },
        {
          "pitch": 52,
          "onset": 83.5,
          "duration": 0.25,
          "velocity": 70
        },
        {
          "pitch": 53,
          "onset": 83.75,
          "duration": 0.25,
          "velocity": 70
        },
        {
          "pitch": 53,
          "onset": 84.0,
          "duration": 0.5,
          "velocity": 70
        },
        {
          "pitch": 55,
          "onset": 84.5,
          "duration": 0.5,
          "velocity": 70
        },
        {
          "pitch": 57,
          "onset": 85.0,
          "duration": 0.5,
          "velocity": 70
        },
        {
          "pitch": 59,
          "onset": 85.5,
          "duration": 0.5,
          "velocity": 70
        },
        {
          "pitch": 60,
          "onset": 86.0,
          "duration": 0.5,
          "velocity": 70
        },
        {
          "pitch": 57,
          "onset": 86.5,
          "duration": 0.25,
          "velocity": 70
        },
        {
          "pitch": 55,
          "onset": 86.75,
          "duration": 0.25,
          "velocity": 70
        },
        {
          "pitch": 55,
          "onset": 87.0,
          "duration": 0.25,
          "velocity": 70
        },
        {
          "pitch": 53,
          "onset": 87.25,
          "duration": 0.25,
          "velocity": 70
        },
        {
          "pitch": 53,
          "onset": 87.5,
          "duration": 0.25,
          "velocity": 70
        },
        {
          "pitch": 52,
          "onset": 87.75,
          "duration": 0.25,
          "velocity": 70
        },
        {
          "pitch": 52,
          "onset": 88.0,
          "duration": 0.25,
          "velocity": 70
        },
        {
          "pitch": 53,
          "onset": 88.25,
          "duration": 0.125,
          "velocity": 70
        },
        {
          "pitch": 55,
          "onset": 88.375,
          "duration": 0.125,
          "velocity": 70
        },
        {
          "pitch": 53,
          "onset": 88.5,
          "duration": 0.25,
          "velocity": 70
        },
        {
          "pitch": 52,
          "onset": 88.75,
          "duration": 0.25,
          "velocity": 70
        },
        {
          "pitch": 50,
          "onset": 89.0,
          "duration": 0.25,
          "velocity": 70
        },
        {
          "pitch": 48,
          "onset": 89.25,
          "duration": 0.25,
          "velocity": 70
        },
        {
          "pitch": 48,
          "onset": 89.5,
          "duration": 0.25,
          "velocity": 70
        },
        {
          "pitch": 47,
          "onset": 89.75,
          "duration": 0.25,
          "velocity": 70
        },
        {
          "pitch": 47,
          "onset": 90.0,
          "duration": 0.25,
          "velocity": 70
        },
        {
          "pitch": 48,
          "onset": 90.25,
          "duration": 0.125,
          "velocity": 70
        },
        {
          "pitch": 50,
          "onset": 90.375,
          "duration": 0.125,
          "velocity": 70
        },
        {
          "pitch": 48,
          "onset": 90.5,
          "duration": 0.25,
          "velocity": 70
        },
        {
          "pitch": 46,
          "onset": 90.75,
          "duration": 0.25,
          "velocity": 70
        },
        {
          "pitch": 45,
          "onset": 91.0,
          "duration": 0.25,
          "velocity": 70
        },
        {
          "pitch": 43,
          "onset": 91.25,
          "duration": 0.25,
          "velocity": 70
        },
        {
          "pitch": 43,
          "onset": 91.5,
          "duration": 0.25,
          "velocity": 70
        },
        {
          "pitch": 42,
          "onset": 91.75,
          "duration": 0.25,
          "velocity": 70
        },
        {
          "pitch": 42,
          "onset": 92.0,
          "duration": 0.25,
          "velocity": 70
        },
        {
          "pitch": 43,
          "onset": 92.25,
          "duration": 0.25,
          "velocity": 70
        },
        {
          "pitch": 48,
          "onset": 92.75,
          "duration": 0.25,
          "velocity": 70
        },
        {
          "pitch": 46,
          "onset": 93.0,
          "duration": 0.25,
          "velocity": 70
        },
        {
          "pitch": 45,
          "onset": 93.25,
          "duration": 0.25,
          "velocity": 70
        },
        {
          "pitch": 45,
          "onset": 93.5,
          "duration": 0.25,
          "velocity": 70
        },
        {
          "pitch": 43,
          "onset": 93.75,
          "duration": 0.25,
          "velocity": 70
        },
        {
          "pitch": 43,
          "onset": 94.0,
          "duration": 0.25,
          "velocity": 70
        },
        {
          "pitch": 50,
          "onset": 94.25,
          "duration": 0.25,
          "velocity": 70
        },
        {
          "pitch": 55,
          "onset": 94.5,
          "duration": 0.25,
          "velocity": 70
        },
        {
          "pitch": 53,
          "onset": 94.75,
          "duration": 0.25,
          "velocity": 70
        },
        {
          "pitch": 52,
          "onset": 95.0,
          "duration": 0.25,
          "velocity": 70
        },
        {
          "pitch": 50,
          "onset": 95.25,
          "duration": 0.25,
          "velocity": 70
        },
        {
          "pitch": 50,
          "onset": 95.5,
          "duration": 0.25,
          "velocity": 70
        },
        {
          "pitch": 49,
          "onset": 95.75,
          "duration": 0.25,
          "velocity": 70
        },
        {
          "pitch": 49,
          "onset": 96.0,
          "duration": 0.25,
          "velocity": 70
        },
        {
          "pitch": 47,
          "onset": 96.25,
          "duration": 0.125,
          "velocity": 70
        },
        {
          "pitch": 45,
          "onset": 96.375,
          "duration": 0.125,
          "velocity": 70
        },
        {
          "pitch": 47,
          "onset": 96.5,
          "duration": 0.25,
          "velocity": 70
        },
        {
          "pitch": 49,
          "onset": 96.75,
          "duration": 0.25,
          "velocity": 70
        },
        {
          "pitch": 50,
          "onset": 97.0,
          "duration": 0.5,
          "velocity": 70
        },
        {
          "pitch": 38,
          "onset": 97.5,
          "duration": 0.5,
          "velocity": 70
        },
        {
          "pitch": 45,
          "onset": 98.0,
          "duration": 0.25,
          "velocity": 70
        },
        {
          "pitch": 43,
          "onset": 98.25,
          "duration": 0.125,
          "velocity": 70
        },
        {
          "pitch": 41,
          "onset": 98.375,
          "duration": 0.125,
          "velocity": 70
        },
        {
          "pitch": 43,
          "onset": 98.5,
          "duration": 0.25,
          "velocity": 70
        },
        {
          "pitch": 45,
          "onset": 98.75,
          "duration": 0.25,
          "velocity": 70
        },
        {
          "pitch": 45,
          "onset": 99.0,
          "duration": 0.25,
          "velocity": 70
        },
        {
          "pitch": 46,
          "onset": 99.25,
          "duration": 0.25,
          "velocity": 70
        },
        {
          "pitch": 46,
          "onset": 99.5,
          "duration": 0.25,
          "velocity": 70
        },
        {
          "pitch": 48,
          "onset": 99.75,
          "duration": 0.25,
          "velocity": 70
        },
        {
          "pitch": 48,
          "onset": 100.0,
          "duration": 0.5,
          "velocity": 70
        },
        {
          "pitch": 52,
          "onset": 100.5,
          "duration": 0.25,
          "velocity": 70
        },
        {
          "pitch": 50,
          "onset": 100.75,
          "duration": 0.25,
          "velocity": 70
        },
        {
          "pitch": 50,
          "onset": 101.0,
          "duration": 0.25,
          "velocity": 70
        },
        {
          "pitch": 49,
          "onset": 101.25,
          "duration": 0.25,
          "velocity": 70
        },
        {
          "pitch": 49,
          "onset": 101.5,
          "duration": 0.25,
          "velocity": 70
        },
        {
          "pitch": 50,
          "onset": 101.75,
          "duration": 0.25,
          "velocity": 70
        },
        {
          "pitch": 50,
          "onset": 102.0,
          "duration": 0.25,
          "velocity": 70
        },
        {
          "pitch": 52,
          "onset": 102.25,
          "duration": 0.125,
          "velocity": 70
        },
        {
          "pitch": 53,
          "onset": 102.375,
          "duration": 0.125,
          "velocity": 70
        },
        {
          "pitch": 51,
          "onset": 102.5,
          "duration": 0.25,
          "velocity": 70
        },
        {
          "pitch": 50,
          "onset": 102.75,
          "duration": 0.25,
          "velocity": 70
        },
        {
          "pitch": 50,
          "onset": 103.0,
          "duration": 0.25,
          "velocity": 70
        },
        {
          "pitch": 48,
          "onset": 103.25,
          "duration": 0.25,
          "velocity": 70
        },
        {
          "pitch": 48,
          "onset": 103.5,
          "duration": 0.25,
          "velocity": 70
        },
        {
          "pitch": 46,
          "onset": 103.75,
          "duration": 0.25,
          "velocity": 70
        },
        {
          "pitch": 53,
          "onset": 104.0,
          "duration": 2.25,
          "velocity": 70
        },
        {
          "pitch": 41,
          "onset": 106.25,
          "duration": 1.75,
          "velocity": 70
        }
      ]
    },
    {
      "role": "pedal",
      "notes": [
        {
          "pitch": 41,
          "onset": 4.0,
          "duration": 1.9688,
          "velocity": 70
        },
        {
          "pitch": 41,
          "onset": 6.0,
          "duration": 1.0,
          "velocity": 70
        },
        {
          "pitch": 41,
          "onset": 7.0,
          "duration": 1.0,
          "velocity": 70
        },
        {
          "pitch": 48,
          "onset": 8.0,
          "duration": 1.0,
          "velocity": 70
        },
        {
          "pitch": 48,
          "onset": 9.0,
          "duration": 1.0,
          "velocity": 70
        },
        {
          "pitch": 50,
          "onset": 10.0,
          "duration": 1.9688,
          "velocity": 70
        },
        {
          "pitch": 48,
          "onset": 12.0,
          "duration": 1.9688,
          "velocity": 70
        },
        {
          "pitch": 48,
          "onset": 15.0,
          "duration": 1.0,
          "velocity": 70
        },
        {
          "pitch": 41,
          "onset": 16.0,
          "duration": 1.0,
          "velocity": 70
        },
        {
          "pitch": 43,
          "onset": 17.0,
          "duration": 1.0,
          "velocity": 70
        },
        {
          "pitch": 45,
          "onset": 18.0,
          "duration": 1.0,
          "velocity": 70
        },
        {
          "pitch": 46,
          "onset": 19.0,
          "duration": 0.5,
          "velocity": 70
        },
        {
          "pitch": 45,
          "onset": 19.5,
          "duration": 0.5,
          "velocity": 70
        },
        {
          "pitch": 43,
          "onset": 20.0,
          "duration": 1.9688,
          "velocity": 70
        },
        {
          "pitch": 41,
          "onset": 22.0,
          "duration": 1.0,
          "velocity": 70
        },
        {
          "pitch": 41,
          "onset": 32.0,
          "duration": 1.9688,
          "velocity": 70
        },
        {
          "pitch": 41,
          "onset": 34.0,
          "duration": 1.0,
          "velocity": 70
        },
        {
          "pitch": 41,
          "onset": 35.0,
          "duration": 1.0,
          "velocity": 70
        },
        {
          "pitch": 48,
          "onset": 36.0,
          "duration": 1.0,
          "velocity": 70
        },
        {
          "pitch": 48,
          "onset": 37.0,
          "duration": 1.0,
          "velocity": 70
        },
        {
          "pitch": 50,
          "onset": 38.0,
          "duration": 1.9688,
          "velocity": 70
        },
        {
          "pitch": 48,
          "onset": 40.0,
          "duration": 1.9688,
          "velocity": 70
        },
        {
          "pitch": 48,
          "onset": 43.0,
          "duration": 1.0,
          "velocity": 70
        },
        {
          "pitch": 41,
          "onset": 44.0,
          "duration": 1.0,
          "velocity": 70
        },
        {
          "pitch": 43,
          "onset": 45.0,
          "duration": 1.0,
          "velocity": 70
        },
        {
          "pitch": 45,
          "onset": 46.0,
          "duration": 1.0,
          "velocity": 70
        },
        {
          "pitch": 46,
          "onset": 47.0,
          "duration": 0.5,
          "velocity": 70
        },
        {
          "pitch": 45,
          "onset": 47.5,
          "duration": 0.5,
          "velocity": 70
        },
        {
          "pitch": 43,
          "onset": 48.0,
          "duration": 1.9688,
          "velocity": 70
        },
        {
          "pitch": 41,
          "onset": 50.0,
          "duration": 1.0,
          "velocity": 70
        },
        {
          "pitch": 45,
          "onset": 58.0,
          "duration": 1.9688,
          "velocity": 70
        },
        {
          "pitch": 45,
          "onset": 60.0,
          "duration": 1.0,
          "velocity": 70
        },
        {
          "pitch": 45,
          "onset": 61.0,
          "duration": 1.0,
          "velocity": 70
        },
        {
          "pitch": 43,
          "onset": 62.0,
          "duration": 0.75,
          "velocity": 70
        },
        {
          "pitch": 41,
          "onset": 62.75,
          "duration": 0.25,
          "velocity": 70
        },
        {
          "pitch": 40,
          "onset": 63.0,
          "duration": 1.0,
          "velocity": 70
        },
        {
          "pitch": 41,
          "onset": 64.0,
          "duration": 0.5,
          "velocity": 70
        },
        {
          "pitch": 40,
          "onset": 64.5,
          "duration": 0.5,
          "velocity": 70
        },
        {
          "pitch": 38,
          "onset": 65.0,
          "duration": 1.0,
          "velocity": 70
        },
        {
          "pitch": 36,
          "onset": 66.0,
          "duration": 1.9688,
          "velocity": 70
        },
        {
          "pitch": 48,
          "onset": 70.0,
          "duration": 1.9688,
          "velocity": 70
        },
        {
          "pitch": 48,
          "onset": 72.0,
          "duration": 1.0,
          "velocity": 70
        },
        {
          "pitch": 48,
          "onset": 73.0,
          "duration": 1.0,
          "velocity": 70
        },
        {
          "pitch": 50,
          "onset": 74.0,
          "duration": 1.0,
          "velocity": 70
        },
        {
          "pitch": 48,
          "onset": 75.0,
          "duration": 1.9688,
          "velocity": 70
        },
        {
          "pitch": 46,
          "onset": 77.0,
          "duration": 1.0,
          "velocity": 70
        },
        {
          "pitch": 45,
          "onset": 78.0,
          "duration": 1.9688,
          "velocity": 70
        },
        {
          "pitch": 50,
          "onset": 82.0,
          "duration": 1.9688,
          "velocity": 70
        },
        {
          "pitch": 48,
          "onset": 84.0,
          "duration": 2.9688,
          "velocity": 70
        },
        {
          "pitch": 46,
          "onset": 87.0,
          "duration": 0.5,
          "velocity": 70
        },
        {
          "pitch": 45,
          "onset": 87.5,
          "duration": 0.5,
          "velocity": 70
        },
        {
          "pitch": 43,
          "onset": 88.0,
          "duration": 2.9688,
          "velocity": 70
        },
        {
          "pitch": 45,
          "onset": 91.0,
          "duration": 0.5,
          "velocity": 70
        },
        {
          "pitch": 46,
          "onset": 91.5,
          "duration": 0.5,
          "velocity": 70
        },
        {
          "pitch": 48,
          "onset": 92.0,
          "duration": 2.9688,
          "velocity": 70
        },
        {
          "pitch": 46,
          "onset": 95.0,
          "duration": 1.0,
          "velocity": 70
        },
        {
          "pitch": 45,
          "onset": 96.0,
          "duration": 2.5,
          "velocity": 70
        },
        {
          "pitch": 43,
          "onset": 100.0,
          "duration": 1.9688,
          "velocity": 70
        },
        {
          "pitch": 41,
          "onset": 102.0,
          "duration": 5.9688,
          "velocity": 70
        }
      ]
    }
  ]
}