{
  "bwv": 750,
  "category": "organ_chorale",
  "instrument": "organ",
  "form": "",
  "movement": null,
  "tonic": "D",
  "mode": "major",
  "confidence": "inferred",
  "ticks_per_beat": 480,
  "duration_seconds": 51.3,
  "tempos": [
    {
      "tick": 0,
      "bpm": 115
    },
    {
      "tick": 40800,
      "bpm": 110
    }
  ],
  "time_signatures": [
    {
      "tick": 0,
      "numerator": 4,
      "denominator": 4
    }
  ],
  "track_type": "manual",
  "voice_count": 1,
  "total_notes": 236,
  "tracks": [
    {
      "role": "manual",
      "notes": [
        {
          "pitch": 55,
          "onset": 1.0,
          "duration": 1.0,
          "velocity": 100
        },
        {
          "pitch": 55,
          "onset": 2.0,
          "duration": 1.0,
          "velocity": 100
        },
        {
          "pitch": 57,
          "onset": 3.0,
          "duration": 1.0,
          "velocity": 100
        },
        {
          "pitch": 59,
          "onset": 4.0,
          "duration": 0.5,
          "velocity": 100
        },
        {
          "pitch": 60,
          "onset": 4.5,
          "duration": 0.5,
          "velocity": 100
        },
        {
          "pitch": 62,
          "onset": 5.0,
          "duration": 1.0,
          "velocity": 100
        },
        {
          "pitch": 55,
          "onset": 6.0,
          "duration": 0.5,
          "velocity": 100
        },
        {
          "pitch": 57,
          "onset": 6.5,
          "duration": 0.5,
          "velocity": 100
        },
        {
          "pitch": 59,
          "onset": 7.0,
          "duration": 1.0,
          "velocity": 100
        },
        {
          "pitch": 57,
          "onset": 8.0,
          "duration": 1.9688,
          "velocity": 100
        },
        {
          "pitch": 50,
          "onset": 9.0,
          "duration": 1.0,
          "velocity": 100
        },
        {
          "pitch": 50,
          "onset": 10.0,
          "duration": 1.0,
          "velocity": 100
        },
        {
          "pitch": 62,
          "onset": 10.0,
          "duration": 1.0,
          "velocity": 100
        },
        {
          "pitch": 52,
          "onset": 11.0,
          "duration": 1.0,
          "velocity": 100
        },
        {
          "pitch": 61,
          "onset": 11.0,
          "duration": 1.0,
          "velocity": 100
        },
        {
          "pitch": 54,
          "onset": 12.0,
          "duration": 0.5,
          "velocity": 100
        },
        {
          "pitch": 62,
          "onset": 12.0,
          "duration": 1.0,
          "velocity": 100
        },
        {
          "pitch": 55,
          "onset": 12.5,
          "duration": 0.5,
          "velocity": 100
        },
        {
          "pitch": 57,
          "onset": 13.0,
          "duration": 1.0,
          "velocity": 100
        },
        {
          "pitch": 61,
          "onset": 13.0,
          "duration": 1.0,
          "velocity": 100
        },
        {
          "pitch": 50,
          "onset": 14.0,
          "duration": 0.5,
          "velocity": 100
        },
        {
          "pitch": 62,
          "onset": 14.0,
          "duration": 1.0,
          "velocity": 100
        },
        {
          "pitch": 52,
          "onset": 14.5,
          "duration": 0.5,
          "velocity": 100
        },
        {
          "pitch": 54,
          "onset": 15.0,
          "duration": 1.0,
          "velocity": 100
        },
        {
          "pitch": 62,
          "onset": 15.0,
          "duration": 1.9688,
          "velocity": 100
        },
        {
          "pitch": 52,
          "onset": 16.0,
          "duration": 1.0,
          "velocity": 100
        },
        {
          "pitch": 57,
          "onset": 17.0,
          "duration": 0.5,
          "velocity": 100
        },
        {
          "pitch": 60,
          "onset": 17.0,
          "duration": 1.9688,
          "velocity": 100
        },
        {
          "pitch": 55,
          "onset": 17.5,
          "duration": 0.5,
          "velocity": 100
        },
        {
          "pitch": 54,
          "onset": 18.0,
          "duration": 0.5,
          "velocity": 100
        },
        {
          "pitch": 50,
          "onset": 18.5,
          "duration": 0.5,
          "velocity": 100
        },
        {
          "pitch": 55,
          "onset": 19.0,
          "duration": 1.9688,
          "velocity": 100
        },
        {
          "pitch": 59,
          "onset": 19.0,
          "duration": 1.0,
          "velocity": 100
        },
        {
          "pitch": 57,
          "onset": 20.0,
          "duration": 1.9688,
          "velocity": 100
        },
        {
          "pitch": 54,
          "onset": 21.0,
          "duration": 1.0,
          "velocity": 100
        },
        {
          "pitch": 55,
          "onset": 22.0,
          "duration": 1.9688,
          "velocity": 100
        },
        {
          "pitch": 59,
          "onset": 22.0,
          "duration": 1.9688,
          "velocity": 100
        },
        {
          "pitch": 67,
          "onset": 23.0,
          "duration": 1.0,
          "velocity": 100
        },
        {
          "pitch": 55,
          "onset": 24.0,
          "duration": 1.0,
          "velocity": 100
        },
        {
          "pitch": 59,
          "onset": 24.0,
          "duration": 1.0,
          "velocity": 100
        },
        {
          "pitch": 67,
          "onset": 24.0,
          "duration": 1.0,
          "velocity": 100
        },
        {
          "pitch": 54,
          "onset": 25.0,
          "duration": 1.0,
          "velocity": 100
        },
        {
          "pitch": 62,
          "onset": 25.0,
          "duration": 1.0,
          "velocity": 100
        },
        {
          "pitch": 69,
          "onset": 25.0,
          "duration": 1.0,
          "velocity": 100
        },
        {
          "pitch": 55,
          "onset": 26.0,
          "duration": 0.5,
          "velocity": 100
        },
        {
          "pitch": 62,
          "onset": 26.0,
          "duration": 1.0,
          "velocity": 100
        },
        {
          "pitch": 71,
          "onset": 26.0,
          "duration": 0.5,
          "velocity": 100
        },
        {
          "pitch": 57,
          "onset": 26.5,
          "duration": 0.5,
          "velocity": 100
        },
        {
          "pitch": 72,
          "onset": 26.5,
          "duration": 0.5,
          "velocity": 100
        },
        {
          "pitch": 59,
          "onset": 27.0,
          "duration": 1.0,
          "velocity": 100
        },
        {
          "pitch": 62,
          "onset": 27.0,
          "duration": 1.0,
          "velocity": 100
        },
        {
          "pitch": 74,
          "onset": 27.0,
          "duration": 1.0,
          "velocity": 100
        },
        {
          "pitch": 60,
          "onset": 28.0,
          "duration": 1.0,
          "velocity": 100
        },
        {
          "pitch": 64,
          "onset": 28.0,
          "duration": 1.0,
          "velocity": 100
        },
        {
          "pitch": 67,
          "onset": 28.0,
          "duration": 0.5,
          "velocity": 100
        },
        {
          "pitch": 69,
          "onset": 28.5,
          "duration": 0.5,
          "velocity": 100
        },
        {
          "pitch": 55,
          "onset": 29.0,
          "duration": 1.0,
          "velocity": 100
        },
        {
          "pitch": 62,
          "onset": 29.0,
          "duration": 1.0,
          "velocity": 100
        },
        {
          "pitch": 71,
          "onset": 29.0,
          "duration": 1.0,
          "velocity": 100
        },
        {
          "pitch": 62,
          "onset": 30.0,
          "duration": 1.0,
          "velocity": 100
        },
        {
          "pitch": 66,
          "onset": 30.0,
          "duration": 1.0,
          "velocity": 100
        },
        {
          "pitch": 69,
          "onset": 30.0,
          "duration": 1.0,
          "velocity": 100
        },
        {
          "pitch": 66,
          "onset": 31.0,
          "duration": 1.0,
          "velocity": 100
        },
        {
          "pitch": 69,
          "onset": 31.0,
          "duration": 1.0,
          "velocity": 100
        },
        {
          "pitch": 67,
          "onset": 32.0,
          "duration": 0.5,
          "velocity": 100
        },
        {
          "pitch": 71,
          "onset": 32.0,
          "duration": 1.0,
          "velocity": 100
        },
        {
          "pitch": 66,
          "onset": 32.5,
          "duration": 0.5,
          "velocity": 100
        },
        {
          "pitch": 64,
          "onset": 33.0,
          "duration": 1.0,
          "velocity": 100
        },
        {
          "pitch": 72,
          "onset": 33.0,
          "duration": 1.0,
          "velocity": 100
        },
        {
          "pitch": 66,
          "onset": 34.0,
          "duration": 1.0,
          "velocity": 100
        },
        {
          "pitch": 74,
          "onset": 34.0,
          "duration": 0.5,
          "velocity": 100
        },
        {
          "pitch": 72,
          "onset": 34.5,
          "duration": 0.5,
          "velocity": 100
        },
        {
          "pitch": 67,
          "onset": 35.0,
          "duration": 1.0,
          "velocity": 100
        },
        {
          "pitch": 71,
          "onset": 35.0,
          "duration": 1.0,
          "velocity": 100
        },
        {
          "pitch": 60,
          "onset": 36.0,
          "duration": 1.0,
          "velocity": 100
        },
        {
          "pitch": 69,
          "onset": 36.0,
          "duration": 1.9688,
          "velocity": 100
        },
        {
          "pitch": 62,
          "onset": 37.0,
          "duration": 1.0,
          "velocity": 100
        },
        {
          "pitch": 64,
          "onset": 38.0,
          "duration": 1.9688,
          "velocity": 100
        },
        {
          "pitch": 67,
          "onset": 38.0,
          "duration": 0.5,
          "velocity": 100
        },
        {
          "pitch": 69,
          "onset": 38.5,
          "duration": 0.5,
          "velocity": 100
        },
        {
          "pitch": 71,
          "onset": 39.0,
          "duration": 0.5,
          "velocity": 100
        },
        {
          "pitch": 72,
          "onset": 39.5,
          "duration": 0.5,
          "velocity": 100
        },
        {
          "pitch": 66,
          "onset": 40.0,
          "duration": 1.9688,
          "velocity": 100
        },
        {
          "pitch": 69,
          "onset": 40.0,
          "duration": 0.5,
          "velocity": 100
        },
        {
          "pitch": 71,
          "onset": 40.5,
          "duration": 0.5,
          "velocity": 100
        },
        {
          "pitch": 72,
          "onset": 41.0,
          "duration": 0.5,
          "velocity": 100
        },
        {
          "pitch": 74,
          "onset": 41.5,
          "duration": 0.5,
          "velocity": 100
        },
        {
          "pitch": 67,
          "onset": 42.0,
          "duration": 0.5,
          "velocity": 100
        },
        {
          "pitch": 71,
          "onset": 42.0,
          "duration": 1.5,
          "velocity": 100
        },
        {
          "pitch": 62,
          "onset": 42.5,
          "duration": 0.5,
          "velocity": 100
        },
        {
          "pitch": 67,
          "onset": 43.0,
          "duration": 0.5,
          "velocity": 100
        },
        {
          "pitch": 66,
          "onset": 43.5,
          "duration": 0.5,
          "velocity": 100
        },
        {
          "pitch": 69,
          "onset": 43.5,
          "duration": 0.5,
          "velocity": 100
        },
        {
          "pitch": 64,
          "onset": 44.0,
          "duration": 0.5,
          "velocity": 100
        },
        {
          "pitch": 67,
          "onset": 44.0,
          "duration": 1.0,
          "velocity": 100
        },
        {
          "pitch": 62,
          "onset": 44.5,
          "duration": 0.5,
          "velocity": 100
        },
        {
          "pitch": 61,
          "onset": 45.0,
          "duration": 1.0,
          "velocity": 100
        },
        {
          "pitch": 69,
          "onset": 45.0,
          "duration": 0.5,
          "velocity": 100
        },
        {
          "pitch": 67,
          "onset": 45.5,
          "duration": 0.5,
          "velocity": 100
        },
        {
          "pitch": 62,
          "onset": 46.0,
          "duration": 1.9688,
          "velocity": 100
        },
        {
          "pitch": 66,
          "onset": 46.0,
          "duration": 1.9688,
          "velocity": 100
        },
        {
          "pitch": 74,
          "onset": 47.0,
          "duration": 1.0,
          "velocity": 100
        },
        {
          "pitch": 62,
          "onset": 48.0,
          "duration": 1.0,
          "velocity": 100
        },
        {
          "pitch": 66,
          "onset": 48.0,
          "duration": 1.0,
          "velocity": 100
        },
        {
          "pitch": 74,
          "onset": 48.0,
          "duration": 1.0,
          "velocity": 100
        },
        {
          "pitch": 61,
          "onset": 49.0,
          "duration": 1.0,
          "velocity": 100
        },
        {
          "pitch": 69,
          "onset": 49.0,
          "duration": 1.0,
          "velocity": 100
        },
        {
          "pitch": 76,
          "onset": 49.0,
          "duration": 1.0,
          "velocity": 100
        },
        {
          "pitch": 62,
          "onset": 50.0,
          "duration": 1.0,
          "velocity": 100
        },
        {
          "pitch": 69,
          "onset": 50.0,
          "duration": 1.0,
          "velocity": 100
        },
        {
          "pitch": 78,
          "onset": 50.0,
          "duration": 0.5,
          "velocity": 100
        },
        {
          "pitch": 79,
          "onset": 50.5,
          "duration": 0.5,
          "velocity": 100
        },
        {
          "pitch": 66,
          "onset": 51.0,
          "duration": 1.0,
          "velocity": 100
        },
        {
          "pitch": 69,
          "onset": 51.0,
          "duration": 1.0,
          "velocity": 100
        },
        {
          "pitch": 81,
          "onset": 51.0,
          "duration": 1.0,
          "velocity": 100
        },
        {
          "pitch": 67,
          "onset": 52.0,
          "duration": 1.0,
          "velocity": 100
        },
        {
          "pitch": 71,
          "onset": 52.0,
          "duration": 1.0,
          "velocity": 100
        },
        {
          "pitch": 74,
          "onset": 52.0,
          "duration": 0.5,
          "velocity": 100
        },
        {
          "pitch": 76,
          "onset": 52.5,
          "duration": 0.5,
          "velocity": 100
        },
        {
          "pitch": 62,
          "onset": 53.0,
          "duration": 1.0,
          "velocity": 100
        },
        {
          "pitch": 74,
          "onset": 53.0,
          "duration": 1.0,
          "velocity": 100
        },
        {
          "pitch": 78,
          "onset": 53.0,
          "duration": 1.0,
          "velocity": 100
        },
        {
          "pitch": 69,
          "onset": 54.0,
          "duration": 1.0,
          "velocity": 100
        },
        {
          "pitch": 73,
          "onset": 54.0,
          "duration": 1.0,
          "velocity": 100
        },
        {
          "pitch": 76,
          "onset": 54.0,
          "duration": 1.0,
          "velocity": 100
        },
        {
          "pitch": 69,
          "onset": 55.0,
          "duration": 1.0,
          "velocity": 100
        },
        {
          "pitch": 73,
          "onset": 55.0,
          "duration": 1.0,
          "velocity": 100
        },
        {
          "pitch": 76,
          "onset": 55.0,
          "duration": 1.0,
          "velocity": 100
        },
        {
          "pitch": 62,
          "onset": 56.0,
          "duration": 1.0,
          "velocity": 100
        },
        {
          "pitch": 74,
          "onset": 56.0,
          "duration": 1.0,
          "velocity": 100
        },
        {
          "pitch": 78,
          "onset": 56.0,
          "duration": 1.0,
          "velocity": 100
        },
        {
          "pitch": 71,
          "onset": 57.0,
          "duration": 1.0,
          "velocity": 100
        },
        {
          "pitch": 74,
          "onset": 57.0,
          "duration": 1.0,
          "velocity": 100
        },
        {
          "pitch": 79,
          "onset": 57.0,
          "duration": 1.0,
          "velocity": 100
        },
        {
          "pitch": 73,
          "onset": 58.0,
          "duration": 1.0,
          "velocity": 100
        },
        {
          "pitch": 76,
          "onset": 58.0,
          "duration": 1.0,
          "velocity": 100
        },
        {
          "pitch": 81,
          "onset": 58.0,
          "duration": 0.5,
          "velocity": 100
        },
        {
          "pitch": 79,
          "onset": 58.5,
          "duration": 0.5,
          "velocity": 100
        },
        {
          "pitch": 74,
          "onset": 59.0,
          "duration": 1.0,
          "velocity": 100
        },
        {
          "pitch": 78,
          "onset": 59.0,
          "duration": 1.0,
          "velocity": 100
        },
        {
          "pitch": 67,
          "onset": 60.0,
          "duration": 0.5,
          "velocity": 100
        },
        {
          "pitch": 74,
          "onset": 60.0,
          "duration": 1.0,
          "velocity": 100
        },
        {
          "pitch": 76,
          "onset": 60.0,
          "duration": 1.9688,
          "velocity": 100
        },
        {
          "pitch": 64,
          "onset": 60.5,
          "duration": 0.5,
          "velocity": 100
        },
        {
          "pitch": 69,
          "onset": 61.0,
          "duration": 0.5,
          "velocity": 100
        },
        {
          "pitch": 73,
          "onset": 61.0,
          "duration": 1.0,
          "velocity": 100
        },
        {
          "pitch": 67,
          "onset": 61.5,
          "duration": 0.5,
          "velocity": 100
        },
        {
          "pitch": 66,
          "onset": 62.0,
          "duration": 0.5,
          "velocity": 100
        },
        {
          "pitch": 69,
          "onset": 62.0,
          "duration": 1.9688,
          "velocity": 100
        },
        {
          "pitch": 74,
          "onset": 62.0,
          "duration": 1.5,
          "velocity": 100
        },
        {
          "pitch": 62,
          "onset": 62.5,
          "duration": 0.5,
          "velocity": 100
        },
        {
          "pitch": 64,
          "onset": 63.0,
          "duration": 0.5,
          "velocity": 100
        },
        {
          "pitch": 66,
          "onset": 63.5,
          "duration": 0.5,
          "velocity": 100
        },
        {
          "pitch": 73,
          "onset": 63.5,
          "duration": 0.5,
          "velocity": 100
        },
        {
          "pitch": 67,
          "onset": 64.0,
          "duration": 1.9688,
          "velocity": 100
        },
        {
          "pitch": 71,
          "onset": 64.0,
          "duration": 1.9688,
          "velocity": 100
        },
        {
          "pitch": 43,
          "onset": 65.0,
          "duration": 1.0,
          "velocity": 100
        },
        {
          "pitch": 43,
          "onset": 66.0,
          "duration": 1.0,
          "velocity": 100
        },
        {
          "pitch": 62,
          "onset": 66.0,
          "duration": 1.0,
          "velocity": 100
        },
        {
          "pitch": 67,
          "onset": 66.0,
          "duration": 1.0,
          "velocity": 100
        },
        {
          "pitch": 71,
          "onset": 66.0,
          "duration": 1.0,
          "velocity": 100
        },
        {
          "pitch": 45,
          "onset": 67.0,
          "duration": 1.0,
          "velocity": 100
        },
        {
          "pitch": 60,
          "onset": 67.0,
          "duration": 1.0,
          "velocity": 100
        },
        {
          "pitch": 66,
          "onset": 67.0,
          "duration": 1.0,
          "velocity": 100
        },
        {
          "pitch": 69,
          "onset": 67.0,
          "duration": 1.0,
          "velocity": 100
        },
        {
          "pitch": 47,
          "onset": 68.0,
          "duration": 0.5,
          "velocity": 100
        },
        {
          "pitch": 59,
          "onset": 68.0,
          "duration": 1.0,
          "velocity": 100
        },
        {
          "pitch": 62,
          "onset": 68.0,
          "duration": 1.0,
          "velocity": 100
        },
        {
          "pitch": 67,
          "onset": 68.0,
          "duration": 1.0,
          "velocity": 100
        },
        {
          "pitch": 48,
          "onset": 68.5,
          "duration": 0.5,
          "velocity": 100
        },
        {
          "pitch": 50,
          "onset": 69.0,
          "duration": 1.0,
          "velocity": 100
        },
        {
          "pitch": 57,
          "onset": 69.0,
          "duration": 1.0,
          "velocity": 100
        },
        {
          "pitch": 62,
          "onset": 69.0,
          "duration": 1.0,
          "velocity": 100
        },
        {
          "pitch": 66,
          "onset": 69.0,
          "duration": 1.0,
          "velocity": 100
        },
        {
          "pitch": 43,
          "onset": 70.0,
          "duration": 0.5,
          "velocity": 100
        },
        {
          "pitch": 59,
          "onset": 70.0,
          "duration": 1.9688,
          "velocity": 100
        },
        {
          "pitch": 62,
          "onset": 70.0,
          "duration": 1.9688,
          "velocity": 100
        },
        {
          "pitch": 67,
          "onset": 70.0,
          "duration": 1.9688,
          "velocity": 100
        },
        {
          "pitch": 45,
          "onset": 70.5,
          "duration": 0.5,
          "velocity": 100
        },
        {
          "pitch": 47,
          "onset": 71.0,
          "duration": 1.0,
          "velocity": 100
        },
        {
          "pitch": 45,
          "onset": 72.0,
          "duration": 1.9688,
          "velocity": 100
        },
        {
          "pitch": 61,
          "onset": 72.0,
          "duration": 1.0,
          "velocity": 100
        },
        {
          "pitch": 64,
          "onset": 72.0,
          "duration": 1.0,
          "velocity": 100
        },
        {
          "pitch": 67,
          "onset": 72.0,
          "duration": 1.0,
          "velocity": 100
        },
        {
          "pitch": 54,
          "onset": 73.0,
          "duration": 0.5,
          "velocity": 100
        },
        {
          "pitch": 62,
          "onset": 73.0,
          "duration": 1.9688,
          "velocity": 100
        },
        {
          "pitch": 66,
          "onset": 73.0,
          "duration": 1.0,
          "velocity": 100
        },
        {
          "pitch": 55,
          "onset": 73.5,
          "duration": 0.5,
          "velocity": 100
        },
        {
          "pitch": 57,
          "onset": 74.0,
          "duration": 1.5,
          "velocity": 100
        },
        {
          "pitch": 64,
          "onset": 74.0,
          "duration": 1.9688,
          "velocity": 100
        },
        {
          "pitch": 60,
          "onset": 75.0,
          "duration": 2.9688,
          "velocity": 100
        },
        {
          "pitch": 55,
          "onset": 75.5,
          "duration": 0.5,
          "velocity": 100
        },
        {
          "pitch": 54,
          "onset": 76.0,
          "duration": 0.5,
          "velocity": 100
        },
        {
          "pitch": 62,
          "onset": 76.0,
          "duration": 1.9688,
          "velocity": 100
        },
        {
          "pitch": 50,
          "onset": 76.5,
          "duration": 0.5,
          "velocity": 100
        },
        {
          "pitch": 52,
          "onset": 77.0,
          "duration": 0.5,
          "velocity": 100
        },
        {
          "pitch": 54,
          "onset": 77.5,
          "duration": 0.5,
          "velocity": 100
        },
        {
          "pitch": 55,
          "onset": 78.0,
          "duration": 0.5,
          "velocity": 100
        },
        {
          "pitch": 59,
          "onset": 78.0,
          "duration": 1.0,
          "velocity": 100
        },
        {
          "pitch": 59,
          "onset": 78.0,
          "duration": 1.0,
          "velocity": 100
        },
        {
          "pitch": 62,
          "onset": 78.0,
          "duration": 1.0,
          "velocity": 100
        },
        {
          "pitch": 43,
          "onset": 78.5,
          "duration": 0.5,
          "velocity": 100
        },
        {
          "pitch": 47,
          "onset": 79.0,
          "duration": 0.5,
          "velocity": 100
        },
        {
          "pitch": 59,
          "onset": 79.0,
          "duration": 1.0,
          "velocity": 100
        },
        {
          "pitch": 62,
          "onset": 79.0,
          "duration": 1.0,
          "velocity": 100
        },
        {
          "pitch": 67,
          "onset": 79.0,
          "duration": 1.0,
          "velocity": 100
        },
        {
          "pitch": 43,
          "onset": 79.5,
          "duration": 0.5,
          "velocity": 100
        },
        {
          "pitch": 48,
          "onset": 80.0,
          "duration": 0.5,
          "velocity": 100
        },
        {
          "pitch": 60,
          "onset": 80.0,
          "duration": 1.9688,
          "velocity": 100
        },
        {
          "pitch": 64,
          "onset": 80.0,
          "duration": 1.9688,
          "velocity": 100
        },
        {
          "pitch": 67,
          "onset": 80.0,
          "duration": 1.9688,
          "velocity": 100
        },
        {
          "pitch": 50,
          "onset": 80.5,
          "duration": 0.5,
          "velocity": 100
        },
        {
          "pitch": 52,
          "onset": 81.0,
          "duration": 0.5,
          "velocity": 100
        },
        {
          "pitch": 48,
          "onset": 81.5,
          "duration": 0.5,
          "velocity": 100
        },
        {
          "pitch": 50,
          "onset": 82.0,
          "duration": 1.9688,
          "velocity": 100
        },
        {
          "pitch": 60,
          "onset": 82.0,
          "duration": 1.0,
          "velocity": 100
        },
        {
          "pitch": 62,
          "onset": 82.0,
          "duration": 1.0,
          "velocity": 100
        },
        {
          "pitch": 66,
          "onset": 82.0,
          "duration": 1.0,
          "velocity": 100
        },
        {
          "pitch": 59,
          "onset": 83.0,
          "duration": 1.0,
          "velocity": 100
        },
        {
          "pitch": 62,
          "onset": 83.0,
          "duration": 1.0,
          "velocity": 100
        },
        {
          "pitch": 67,
          "onset": 83.0,
          "duration": 1.0,
          "velocity": 100
        },
        {
          "pitch": 50,
          "onset": 84.0,
          "duration": 4.5,
          "velocity": 100
        },
        {
          "pitch": 57,
          "onset": 84.0,
          "duration": 2.9688,
          "velocity": 100
        },
        {
          "pitch": 62,
          "onset": 84.0,
          "duration": 4.5,
          "velocity": 100
        },
        {
          "pitch": 67,
          "onset": 84.0,
          "duration": 1.0,
          "velocity": 100
        },
        {
          "pitch": 66,
          "onset": 85.0,
          "duration": 0.5,
          "velocity": 100
        },
        {
          "pitch": 64,
          "onset": 85.5,
          "duration": 0.5,
          "velocity": 100
        },
        {
          "pitch": 66,
          "onset": 86.0,
          "duration": 2.5,
          "velocity": 100
        },
        {
          "pitch": 59,
          "onset": 87.0,
          "duration": 0.5,
          "velocity": 100
        },
        {
          "pitch": 60,
          "onset": 87.5,
          "duration": 1.0,
          "velocity": 100
        },
        {
          "pitch": 43,
          "onset": 88.5,
          "duration": 6.4688,
          "velocity": 100
        },
        {
          "pitch": 50,
          "onset": 88.5,
          "duration": 6.4688,
          "velocity": 100
        },
        {
          "pitch": 59,
          "onset": 88.5,
          "duration": 6.4688,
          "velocity": 100
        },
        {
          "pitch": 62,
          "onset": 88.5,
          "duration": 6.4688,
          "velocity": 100
        },
        {
          "pitch": 67,
          "onset": 88.5,
          "duration": 6.4688,
          "velocity": 100
        },
        {
          "pitch": 67,
          "onset": 98.25,
          "duration": 0.25,
          "velocity": 1
        }
      ]
    }
  ]
}