{
  "bwv": 715,
  "category": "organ_chorale",
  "instrument": "organ",
  "form": "",
  "movement": null,
  "ticks_per_beat": 480,
  "duration_seconds": 105.3,
  "tempos": [
    {
      "tick": 0,
      "bpm": 55
    },
    {
      "tick": 120,
      "bpm": 240
    },
    {
      "tick": 1320,
      "bpm": 55
    },
    {
      "tick": 4320,
      "bpm": 50
    },
    {
      "tick": 4560,
      "bpm": 50
    },
    {
      "tick": 4800,
      "bpm": 55
    },
    {
      "tick": 12000,
      "bpm": 50
    },
    {
      "tick": 12240,
      "bpm": 45
    },
    {
      "tick": 12480,
      "bpm": 55
    },
    {
      "tick": 17760,
      "bpm": 50
    },
    {
      "tick": 18000,
      "bpm": 40
    },
    {
      "tick": 18240,
      "bpm": 55
    },
    {
      "tick": 25440,
      "bpm": 50
    },
    {
      "tick": 25680,
      "bpm": 40
    },
    {
      "tick": 25920,
      "bpm": 80
    },
    {
      "tick": 26880,
      "bpm": 55
    },
    {
      "tick": 31200,
      "bpm": 50
    },
    {
      "tick": 31440,
      "bpm": 40
    },
    {
      "tick": 31680,
      "bpm": 80
    },
    {
      "tick": 32640,
      "bpm": 55
    },
    {
      "tick": 36960,
      "bpm": 50
    },
    {
      "tick": 37440,
      "bpm": 40
    },
    {
      "tick": 37680,
      "bpm": 80
    },
    {
      "tick": 39120,
      "bpm": 55
    },
    {
      "tick": 44640,
      "bpm": 50
    }
  ],
  "time_signatures": [
    {
      "tick": 0,
      "numerator": 4,
      "denominator": 4
    }
  ],
  "track_type": "manual",
  "voice_count": 1,
  "total_notes": 450,
  "tracks": [
    {
      "role": "manual",
      "notes": [
        {
          "pitch": 43,
          "onset": 3.0,
          "duration": 1.0,
          "velocity": 100
        },
        {
          "pitch": 59,
          "onset": 3.0,
          "duration": 0.5,
          "velocity": 100
        },
        {
          "pitch": 62,
          "onset": 3.0,
          "duration": 1.0,
          "velocity": 100
        },
        {
          "pitch": 67,
          "onset": 3.0,
          "duration": 0.5,
          "velocity": 100
        },
        {
          "pitch": 60,
          "onset": 3.5,
          "duration": 0.5,
          "velocity": 100
        },
        {
          "pitch": 69,
          "onset": 3.5,
          "duration": 0.5,
          "velocity": 100
        },
        {
          "pitch": 55,
          "onset": 4.0,
          "duration": 0.5,
          "velocity": 100
        },
        {
          "pitch": 62,
          "onset": 4.0,
          "duration": 1.0,
          "velocity": 100
        },
        {
          "pitch": 67,
          "onset": 4.0,
          "duration": 1.0,
          "velocity": 100
        },
        {
          "pitch": 71,
          "onset": 4.0,
          "duration": 1.0,
          "velocity": 100
        },
        {
          "pitch": 54,
          "onset": 4.5,
          "duration": 0.5,
          "velocity": 100
        },
        {
          "pitch": 52,
          "onset": 5.0,
          "duration": 1.0,
          "velocity": 100
        },
        {
          "pitch": 64,
          "onset": 5.0,
          "duration": 1.0,
          "velocity": 100
        },
        {
          "pitch": 67,
          "onset": 5.0,
          "duration": 1.0,
          "velocity": 100
        },
        {
          "pitch": 54,
          "onset": 6.0,
          "duration": 0.5,
          "velocity": 100
        },
        {
          "pitch": 66,
          "onset": 6.0,
          "duration": 0.5,
          "velocity": 100
        },
        {
          "pitch": 69,
          "onset": 6.0,
          "duration": 0.5,
          "velocity": 100
        },
        {
          "pitch": 74,
          "onset": 6.0,
          "duration": 1.0,
          "velocity": 100
        },
        {
          "pitch": 56,
          "onset": 6.5,
          "duration": 0.5,
          "velocity": 100
        },
        {
          "pitch": 65,
          "onset": 6.5,
          "duration": 0.5,
          "velocity": 100
        },
        {
          "pitch": 71,
          "onset": 6.5,
          "duration": 0.5,
          "velocity": 100
        },
        {
          "pitch": 57,
          "onset": 7.0,
          "duration": 1.0,
          "velocity": 100
        },
        {
          "pitch": 64,
          "onset": 7.0,
          "duration": 1.0,
          "velocity": 100
        },
        {
          "pitch": 69,
          "onset": 7.0,
          "duration": 1.0,
          "velocity": 100
        },
        {
          "pitch": 72,
          "onset": 7.0,
          "duration": 1.0,
          "velocity": 100
        },
        {
          "pitch": 50,
          "onset": 8.0,
          "duration": 0.5,
          "velocity": 100
        },
        {
          "pitch": 62,
          "onset": 8.0,
          "duration": 1.0,
          "velocity": 100
        },
        {
          "pitch": 65,
          "onset": 8.0,
          "duration": 1.0,
          "velocity": 100
        },
        {
          "pitch": 71,
          "onset": 8.0,
          "duration": 1.0,
          "velocity": 100
        },
        {
          "pitch": 52,
          "onset": 8.5,
          "duration": 0.5,
          "velocity": 100
        },
        {
          "pitch": 54,
          "onset": 9.0,
          "duration": 1.0,
          "velocity": 100
        },
        {
          "pitch": 60,
          "onset": 9.0,
          "duration": 1.0,
          "velocity": 100
        },
        {
          "pitch": 64,
          "onset": 9.0,
          "duration": 0.5,
          "velocity": 100
        },
        {
          "pitch": 63,
          "onset": 9.5,
          "duration": 0.5,
          "velocity": 100
        },
        {
          "pitch": 44,
          "onset": 10.0,
          "duration": 1.9688,
          "velocity": 100
        },
        {
          "pitch": 59,
          "onset": 10.0,
          "duration": 1.9688,
          "velocity": 100
        },
        {
          "pitch": 64,
          "onset": 10.0,
          "duration": 1.9688,
          "velocity": 100
        },
        {
          "pitch": 71,
          "onset": 10.0,
          "duration": 3.125,
          "velocity": 100
        },
        {
          "pitch": 69,
          "onset": 13.125,
          "duration": 0.125,
          "velocity": 100
        },
        {
          "pitch": 72,
          "onset": 13.25,
          "duration": 0.125,
          "velocity": 100
        },
        {
          "pitch": 71,
          "onset": 13.375,
          "duration": 0.125,
          "velocity": 100
        },
        {
          "pitch": 69,
          "onset": 13.5,
          "duration": 0.125,
          "velocity": 100
        },
        {
          "pitch": 68,
          "onset": 13.625,
          "duration": 0.125,
          "velocity": 100
        },
        {
          "pitch": 66,
          "onset": 13.75,
          "duration": 0.125,
          "velocity": 100
        },
        {
          "pitch": 64,
          "onset": 13.875,
          "duration": 0.125,
          "velocity": 100
        },
        {
          "pitch": 63,
          "onset": 14.0,
          "duration": 0.125,
          "velocity": 100
        },
        {
          "pitch": 60,
          "onset": 14.125,
          "duration": 0.125,
          "velocity": 100
        },
        {
          "pitch": 59,
          "onset": 14.25,
          "duration": 0.125,
          "velocity": 100
        },
        {
          "pitch": 63,
          "onset": 14.375,
          "duration": 0.125,
          "velocity": 100
        },
        {
          "pitch": 66,
          "onset": 14.5,
          "duration": 0.125,
          "velocity": 100
        },
        {
          "pitch": 69,
          "onset": 14.625,
          "duration": 0.125,
          "velocity": 100
        },
        {
          "pitch": 72,
          "onset": 14.75,
          "duration": 0.125,
          "velocity": 100
        },
        {
          "pitch": 71,
          "onset": 14.875,
          "duration": 0.125,
          "velocity": 100
        },
        {
          "pitch": 43,
          "onset": 15.0,
          "duration": 1.0,
          "velocity": 100
        },
        {
          "pitch": 62,
          "onset": 15.0,
          "duration": 1.0,
          "velocity": 100
        },
        {
          "pitch": 65,
          "onset": 15.0,
          "duration": 1.0,
          "velocity": 100
        },
        {
          "pitch": 71,
          "onset": 15.0,
          "duration": 1.0,
          "velocity": 100
        },
        {
          "pitch": 48,
          "onset": 16.0,
          "duration": 0.5,
          "velocity": 100
        },
        {
          "pitch": 60,
          "onset": 16.0,
          "duration": 0.5,
          "velocity": 100
        },
        {
          "pitch": 64,
          "onset": 16.0,
          "duration": 0.5,
          "velocity": 100
        },
        {
          "pitch": 71,
          "onset": 16.0,
          "duration": 1.0,
          "velocity": 100
        },
        {
          "pitch": 50,
          "onset": 16.5,
          "duration": 0.5,
          "velocity": 100
        },
        {
          "pitch": 59,
          "onset": 16.5,
          "duration": 0.5,
          "velocity": 100
        },
        {
          "pitch": 65,
          "onset": 16.5,
          "duration": 0.5,
          "velocity": 100
        },
        {
          "pitch": 48,
          "onset": 17.0,
          "duration": 0.5,
          "velocity": 100
        },
        {
          "pitch": 60,
          "onset": 17.0,
          "duration": 0.5,
          "velocity": 100
        },
        {
          "pitch": 64,
          "onset": 17.0,
          "duration": 0.5,
          "velocity": 100
        },
        {
          "pitch": 69,
          "onset": 17.0,
          "duration": 0.5,
          "velocity": 100
        },
        {
          "pitch": 47,
          "onset": 17.5,
          "duration": 0.5,
          "velocity": 100
        },
        {
          "pitch": 62,
          "onset": 17.5,
          "duration": 0.5,
          "velocity": 100
        },
        {
          "pitch": 68,
          "onset": 17.5,
          "duration": 0.5,
          "velocity": 100
        },
        {
          "pitch": 71,
          "onset": 17.5,
          "duration": 0.5,
          "velocity": 100
        },
        {
          "pitch": 45,
          "onset": 18.0,
          "duration": 0.5,
          "velocity": 100
        },
        {
          "pitch": 64,
          "onset": 18.0,
          "duration": 0.5,
          "velocity": 100
        },
        {
          "pitch": 69,
          "onset": 18.0,
          "duration": 1.0,
          "velocity": 100
        },
        {
          "pitch": 72,
          "onset": 18.0,
          "duration": 1.0,
          "velocity": 100
        },
        {
          "pitch": 47,
          "onset": 18.5,
          "duration": 0.25,
          "velocity": 100
        },
        {
          "pitch": 63,
          "onset": 18.5,
          "duration": 0.5,
          "velocity": 100
        },
        {
          "pitch": 48,
          "onset": 18.75,
          "duration": 0.25,
          "velocity": 100
        },
        {
          "pitch": 39,
          "onset": 19.0,
          "duration": 1.0,
          "velocity": 100
        },
        {
          "pitch": 59,
          "onset": 19.0,
          "duration": 1.9688,
          "velocity": 100
        },
        {
          "pitch": 66,
          "onset": 19.0,
          "duration": 1.5,
          "velocity": 100
        },
        {
          "pitch": 71,
          "onset": 19.0,
          "duration": 0.5,
          "velocity": 100
        },
        {
          "pitch": 69,
          "onset": 19.5,
          "duration": 0.5,
          "velocity": 100
        },
        {
          "pitch": 40,
          "onset": 20.0,
          "duration": 0.5,
          "velocity": 100
        },
        {
          "pitch": 67,
          "onset": 20.0,
          "duration": 2.9688,
          "velocity": 100
        },
        {
          "pitch": 52,
          "onset": 20.5,
          "duration": 0.5,
          "velocity": 100
        },
        {
          "pitch": 49,
          "onset": 21.0,
          "duration": 1.0,
          "velocity": 100
        },
        {
          "pitch": 58,
          "onset": 21.0,
          "duration": 1.0,
          "velocity": 100
        },
        {
          "pitch": 64,
          "onset": 21.0,
          "duration": 1.0,
          "velocity": 100
        },
        {
          "pitch": 57,
          "onset": 22.0,
          "duration": 0.5,
          "velocity": 100
        },
        {
          "pitch": 62,
          "onset": 22.0,
          "duration": 1.0,
          "velocity": 100
        },
        {
          "pitch": 59,
          "onset": 22.5,
          "duration": 0.5,
          "velocity": 100
        },
        {
          "pitch": 60,
          "onset": 23.0,
          "duration": 1.9688,
          "velocity": 100
        },
        {
          "pitch": 62,
          "onset": 23.0,
          "duration": 1.0,
          "velocity": 100
        },
        {
          "pitch": 66,
          "onset": 23.0,
          "duration": 1.0,
          "velocity": 100
        },
        {
          "pitch": 43,
          "onset": 24.0,
          "duration": 3.625,
          "velocity": 100
        },
        {
          "pitch": 62,
          "onset": 24.0,
          "duration": 2.9688,
          "velocity": 100
        },
        {
          "pitch": 67,
          "onset": 24.0,
          "duration": 2.9688,
          "velocity": 100
        },
        {
          "pitch": 59,
          "onset": 25.0,
          "duration": 0.5,
          "velocity": 100
        },
        {
          "pitch": 57,
          "onset": 25.5,
          "duration": 0.5,
          "velocity": 100
        },
        {
          "pitch": 59,
          "onset": 26.0,
          "duration": 1.0,
          "velocity": 100
        },
        {
          "pitch": 45,
          "onset": 27.625,
          "duration": 0.125,
          "velocity": 100
        },
        {
          "pitch": 47,
          "onset": 27.75,
          "duration": 0.125,
          "velocity": 100
        },
        {
          "pitch": 48,
          "onset": 27.875,
          "duration": 0.125,
          "velocity": 100
        },
        {
          "pitch": 50,
          "onset": 28.0,
          "duration": 0.125,
          "velocity": 100
        },
        {
          "pitch": 52,
          "onset": 28.125,
          "duration": 0.125,
          "velocity": 100
        },
        {
          "pitch": 53,
          "onset": 28.25,
          "duration": 0.125,
          "velocity": 100
        },
        {
          "pitch": 55,
          "onset": 28.375,
          "duration": 0.125,
          "velocity": 100
        },
        {
          "pitch": 53,
          "onset": 28.5,
          "duration": 0.0625,
          "velocity": 100
        },
        {
          "pitch": 55,
          "onset": 28.5625,
          "duration": 0.0625,
          "velocity": 100
        },
        {
          "pitch": 53,
          "onset": 28.625,
          "duration": 0.0625,
          "velocity": 100
        },
        {
          "pitch": 55,
          "onset": 28.6875,
          "duration": 0.0625,
          "velocity": 100
        },
        {
          "pitch": 53,
          "onset": 28.75,
          "duration": 0.5,
          "velocity": 100
        },
        {
          "pitch": 52,
          "onset": 29.25,
          "duration": 0.125,
          "velocity": 100
        },
        {
          "pitch": 53,
          "onset": 29.375,
          "duration": 0.125,
          "velocity": 100
        },
        {
          "pitch": 55,
          "onset": 29.5,
          "duration": 0.125,
          "velocity": 100
        },
        {
          "pitch": 50,
          "onset": 29.625,
          "duration": 0.125,
          "velocity": 100
        },
        {
          "pitch": 52,
          "onset": 29.75,
          "duration": 0.125,
          "velocity": 100
        },
        {
          "pitch": 53,
          "onset": 29.875,
          "duration": 0.125,
          "velocity": 100
        },
        {
          "pitch": 47,
          "onset": 30.0,
          "duration": 0.125,
          "velocity": 100
        },
        {
          "pitch": 48,
          "onset": 30.125,
          "duration": 0.125,
          "velocity": 100
        },
        {
          "pitch": 50,
          "onset": 30.25,
          "duration": 0.125,
          "velocity": 100
        },
        {
          "pitch": 47,
          "onset": 30.375,
          "duration": 0.125,
          "velocity": 100
        },
        {
          "pitch": 43,
          "onset": 30.5,
          "duration": 0.125,
          "velocity": 100
        },
        {
          "pitch": 40,
          "onset": 30.625,
          "duration": 0.125,
          "velocity": 100
        },
        {
          "pitch": 41,
          "onset": 30.75,
          "duration": 0.125,
          "velocity": 100
        },
        {
          "pitch": 43,
          "onset": 30.875,
          "duration": 0.125,
          "velocity": 100
        },
        {
          "pitch": 36,
          "onset": 31.0,
          "duration": 0.5,
          "velocity": 100
        },
        {
          "pitch": 60,
          "onset": 31.0,
          "duration": 0.5,
          "velocity": 100
        },
        {
          "pitch": 64,
          "onset": 31.0,
          "duration": 0.5,
          "velocity": 100
        },
        {
          "pitch": 67,
          "onset": 31.0,
          "duration": 0.5,
          "velocity": 100
        },
        {
          "pitch": 48,
          "onset": 31.5,
          "duration": 0.5,
          "velocity": 100
        },
        {
          "pitch": 57,
          "onset": 31.5,
          "duration": 0.5,
          "velocity": 100
        },
        {
          "pitch": 66,
          "onset": 31.5,
          "duration": 0.5,
          "velocity": 100
        },
        {
          "pitch": 69,
          "onset": 31.5,
          "duration": 0.5,
          "velocity": 100
        },
        {
          "pitch": 47,
          "onset": 32.0,
          "duration": 1.0,
          "velocity": 100
        },
        {
          "pitch": 62,
          "onset": 32.0,
          "duration": 1.0,
          "velocity": 100
        },
        {
          "pitch": 71,
          "onset": 32.0,
          "duration": 1.0,
          "velocity": 100
        },
        {
          "pitch": 45,
          "onset": 33.0,
          "duration": 0.5,
          "velocity": 100
        },
        {
          "pitch": 64,
          "onset": 33.0,
          "duration": 1.0,
          "velocity": 100
        },
        {
          "pitch": 69,
          "onset": 33.0,
          "duration": 1.5,
          "velocity": 100
        },
        {
          "pitch": 72,
          "onset": 33.0,
          "duration": 0.5,
          "velocity": 100
        },
        {
          "pitch": 43,
          "onset": 33.5,
          "duration": 0.5,
          "velocity": 100
        },
        {
          "pitch": 73,
          "onset": 33.5,
          "duration": 0.5,
          "velocity": 100
        },
        {
          "pitch": 41,
          "onset": 34.0,
          "duration": 0.5,
          "velocity": 100
        },
        {
          "pitch": 69,
          "onset": 34.0,
          "duration": 0.5,
          "velocity": 100
        },
        {
          "pitch": 74,
          "onset": 34.0,
          "duration": 1.0,
          "velocity": 100
        },
        {
          "pitch": 53,
          "onset": 34.5,
          "duration": 1.0,
          "velocity": 100
        },
        {
          "pitch": 68,
          "onset": 34.5,
          "duration": 0.5,
          "velocity": 100
        },
        {
          "pitch": 71,
          "onset": 34.5,
          "duration": 0.5,
          "velocity": 100
        },
        {
          "pitch": 69,
          "onset": 35.0,
          "duration": 1.5,
          "velocity": 100
        },
        {
          "pitch": 69,
          "onset": 35.0,
          "duration": 0.5,
          "velocity": 100
        },
        {
          "pitch": 72,
          "onset": 35.0,
          "duration": 1.0,
          "velocity": 100
        },
        {
          "pitch": 52,
          "onset": 35.5,
          "duration": 0.5,
          "velocity": 100
        },
        {
          "pitch": 67,
          "onset": 35.5,
          "duration": 0.5,
          "velocity": 100
        },
        {
          "pitch": 51,
          "onset": 36.0,
          "duration": 0.5,
          "velocity": 100
        },
        {
          "pitch": 66,
          "onset": 36.0,
          "duration": 0.5,
          "velocity": 100
        },
        {
          "pitch": 71,
          "onset": 36.0,
          "duration": 1.0,
          "velocity": 100
        },
        {
          "pitch": 52,
          "onset": 36.5,
          "duration": 0.5,
          "velocity": 100
        },
        {
          "pitch": 64,
          "onset": 36.5,
          "duration": 1.0,
          "velocity": 100
        },
        {
          "pitch": 67,
          "onset": 36.5,
          "duration": 0.5,
          "velocity": 100
        },
        {
          "pitch": 60,
          "onset": 37.0,
          "duration": 1.0,
          "velocity": 100
        },
        {
          "pitch": 69,
          "onset": 37.0,
          "duration": 1.0,
          "velocity": 100
        },
        {
          "pitch": 63,
          "onset": 37.5,
          "duration": 0.5,
          "velocity": 100
        },
        {
          "pitch": 51,
          "onset": 38.0,
          "duration": 1.9688,
          "velocity": 100
        },
        {
          "pitch": 66,
          "onset": 38.0,
          "duration": 1.9688,
          "velocity": 100
        },
        {
          "pitch": 69,
          "onset": 38.0,
          "duration": 1.9688,
          "velocity": 100
        },
        {
          "pitch": 71,
          "onset": 38.0,
          "duration": 1.9688,
          "velocity": 100
        },
        {
          "pitch": 59,
          "onset": 40.25,
          "duration": 0.125,
          "velocity": 100
        },
        {
          "pitch": 61,
          "onset": 40.375,
          "duration": 0.125,
          "velocity": 100
        },
        {
          "pitch": 63,
          "onset": 40.5,
          "duration": 0.125,
          "velocity": 100
        },
        {
          "pitch": 64,
          "onset": 40.625,
          "duration": 0.125,
          "velocity": 100
        },
        {
          "pitch": 63,
          "onset": 40.75,
          "duration": 0.125,
          "velocity": 100
        },
        {
          "pitch": 64,
          "onset": 40.875,
          "duration": 0.125,
          "velocity": 100
        },
        {
          "pitch": 66,
          "onset": 41.0,
          "duration": 0.125,
          "velocity": 100
        },
        {
          "pitch": 67,
          "onset": 41.125,
          "duration": 0.125,
          "velocity": 100
        },
        {
          "pitch": 66,
          "onset": 41.25,
          "duration": 0.125,
          "velocity": 100
        },
        {
          "pitch": 67,
          "onset": 41.375,
          "duration": 0.125,
          "velocity": 100
        },
        {
          "pitch": 69,
          "onset": 41.5,
          "duration": 0.125,
          "velocity": 100
        },
        {
          "pitch": 71,
          "onset": 41.625,
          "duration": 0.125,
          "velocity": 100
        },
        {
          "pitch": 69,
          "onset": 41.75,
          "duration": 0.125,
          "velocity": 100
        },
        {
          "pitch": 71,
          "onset": 41.875,
          "duration": 0.125,
          "velocity": 100
        },
        {
          "pitch": 72,
          "onset": 42.0,
          "duration": 0.25,
          "velocity": 100
        },
        {
          "pitch": 69,
          "onset": 42.25,
          "duration": 0.25,
          "velocity": 100
        },
        {
          "pitch": 66,
          "onset": 42.5,
          "duration": 0.125,
          "velocity": 100
        },
        {
          "pitch": 67,
          "onset": 42.625,
          "duration": 0.125,
          "velocity": 100
        },
        {
          "pitch": 69,
          "onset": 42.75,
          "duration": 0.25,
          "velocity": 100
        },
        {
          "pitch": 47,
          "onset": 43.0,
          "duration": 1.0,
          "velocity": 100
        },
        {
          "pitch": 63,
          "onset": 43.0,
          "duration": 1.0,
          "velocity": 100
        },
        {
          "pitch": 66,
          "onset": 43.25,
          "duration": 0.75,
          "velocity": 100
        },
        {
          "pitch": 69,
          "onset": 43.5,
          "duration": 0.25,
          "velocity": 100
        },
        {
          "pitch": 72,
          "onset": 43.75,
          "duration": 0.125,
          "velocity": 100
        },
        {
          "pitch": 71,
          "onset": 43.875,
          "duration": 0.125,
          "velocity": 100
        },
        {
          "pitch": 52,
          "onset": 44.0,
          "duration": 0.5,
          "velocity": 100
        },
        {
          "pitch": 64,
          "onset": 44.0,
          "duration": 0.5,
          "velocity": 100
        },
        {
          "pitch": 67,
          "onset": 44.0,
          "duration": 0.5,
          "velocity": 100
        },
        {
          "pitch": 71,
          "onset": 44.0,
          "duration": 1.0,
          "velocity": 100
        },
        {
          "pitch": 54,
          "onset": 44.5,
          "duration": 0.5,
          "velocity": 100
        },
        {
          "pitch": 62,
          "onset": 44.5,
          "duration": 0.5,
          "velocity": 100
        },
        {
          "pitch": 66,
          "onset": 44.5,
          "duration": 0.5,
          "velocity": 100
        },
        {
          "pitch": 55,
          "onset": 45.0,
          "duration": 1.0,
          "velocity": 100
        },
        {
          "pitch": 60,
          "onset": 45.0,
          "duration": 0.5,
          "velocity": 100
        },
        {
          "pitch": 64,
          "onset": 45.0,
          "duration": 1.0,
          "velocity": 100
        },
        {
          "pitch": 69,
          "onset": 45.0,
          "duration": 0.5,
          "velocity": 100
        },
        {
          "pitch": 59,
          "onset": 45.5,
          "duration": 0.5,
          "velocity": 100
        },
        {
          "pitch": 71,
          "onset": 45.5,
          "duration": 0.5,
          "velocity": 100
        },
        {
          "pitch": 54,
          "onset": 46.0,
          "duration": 0.5,
          "velocity": 100
        },
        {
          "pitch": 57,
          "onset": 46.0,
          "duration": 0.5,
          "velocity": 100
        },
        {
          "pitch": 62,
          "onset": 46.0,
          "duration": 0.5,
          "velocity": 100
        },
        {
          "pitch": 72,
          "onset": 46.0,
          "duration": 0.5,
          "velocity": 100
        },
        {
          "pitch": 55,
          "onset": 46.5,
          "duration": 0.5,
          "velocity": 100
        },
        {
          "pitch": 62,
          "onset": 46.5,
          "duration": 0.5,
          "velocity": 100
        },
        {
          "pitch": 67,
          "onset": 46.5,
          "duration": 1.0,
          "velocity": 100
        },
        {
          "pitch": 71,
          "onset": 46.5,
          "duration": 0.5,
          "velocity": 100
        },
        {
          "pitch": 49,
          "onset": 47.0,
          "duration": 0.5,
          "velocity": 100
        },
        {
          "pitch": 64,
          "onset": 47.0,
          "duration": 0.5,
          "velocity": 100
        },
        {
          "pitch": 69,
          "onset": 47.0,
          "duration": 1.0,
          "velocity": 100
        },
        {
          "pitch": 51,
          "onset": 47.5,
          "duration": 0.5,
          "velocity": 100
        },
        {
          "pitch": 63,
          "onset": 47.5,
          "duration": 0.5,
          "velocity": 100
        },
        {
          "pitch": 66,
          "onset": 47.5,
          "duration": 0.25,
          "velocity": 100
        },
        {
          "pitch": 64,
          "onset": 47.75,
          "duration": 0.25,
          "velocity": 100
        },
        {
          "pitch": 47,
          "onset": 48.0,
          "duration": 0.5,
          "velocity": 100
        },
        {
          "pitch": 62,
          "onset": 48.0,
          "duration": 1.0,
          "velocity": 100
        },
        {
          "pitch": 65,
          "onset": 48.0,
          "duration": 1.0,
          "velocity": 100
        },
        {
          "pitch": 67,
          "onset": 48.0,
          "duration": 2.9688,
          "velocity": 100
        },
        {
          "pitch": 48,
          "onset": 48.5,
          "duration": 0.25,
          "velocity": 100
        },
        {
          "pitch": 50,
          "onset": 48.75,
          "duration": 0.25,
          "velocity": 100
        },
        {
          "pitch": 51,
          "onset": 49.0,
          "duration": 0.5,
          "velocity": 100
        },
        {
          "pitch": 60,
          "onset": 49.0,
          "duration": 0.5,
          "velocity": 100
        },
        {
          "pitch": 63,
          "onset": 49.0,
          "duration": 1.0,
          "velocity": 100
        },
        {
          "pitch": 50,
          "onset": 49.5,
          "duration": 0.5,
          "velocity": 100
        },
        {
          "pitch": 58,
          "onset": 49.5,
          "duration": 0.5,
          "velocity": 100
        },
        {
          "pitch": 49,
          "onset": 50.0,
          "duration": 1.0,
          "velocity": 100
        },
        {
          "pitch": 57,
          "onset": 50.0,
          "duration": 1.0,
          "velocity": 100
        },
        {
          "pitch": 64,
          "onset": 50.0,
          "duration": 1.0,
          "velocity": 100
        },
        {
          "pitch": 50,
          "onset": 51.0,
          "duration": 1.0,
          "velocity": 100
        },
        {
          "pitch": 57,
          "onset": 51.0,
          "duration": 0.5,
          "velocity": 100
        },
        {
          "pitch": 62,
          "onset": 51.0,
          "duration": 1.0,
          "velocity": 100
        },
        {
          "pitch": 66,
          "onset": 51.0,
          "duration": 1.0,
          "velocity": 100
        },
        {
          "pitch": 59,
          "onset": 51.5,
          "duration": 0.25,
          "velocity": 100
        },
        {
          "pitch": 61,
          "onset": 51.75,
          "duration": 1.25,
          "velocity": 100
        },
        {
          "pitch": 43,
          "onset": 52.0,
          "duration": 3.9688,
          "velocity": 100
        },
        {
          "pitch": 62,
          "onset": 52.0,
          "duration": 3.9688,
          "velocity": 100
        },
        {
          "pitch": 67,
          "onset": 52.0,
          "duration": 4.125,
          "velocity": 100
        },
        {
          "pitch": 59,
          "onset": 53.0,
          "duration": 0.5,
          "velocity": 100
        },
        {
          "pitch": 57,
          "onset": 53.5,
          "duration": 0.5,
          "velocity": 100
        },
        {
          "pitch": 59,
          "onset": 54.0,
          "duration": 1.9688,
          "velocity": 100
        },
        {
          "pitch": 69,
          "onset": 56.125,
          "duration": 0.125,
          "velocity": 100
        },
        {
          "pitch": 71,
          "onset": 56.25,
          "duration": 0.125,
          "velocity": 100
        },
        {
          "pitch": 72,
          "onset": 56.375,
          "duration": 0.125,
          "velocity": 100
        },
        {
          "pitch": 71,
          "onset": 56.5,
          "duration": 0.125,
          "velocity": 100
        },
        {
          "pitch": 69,
          "onset": 56.625,
          "duration": 0.125,
          "velocity": 100
        },
        {
          "pitch": 67,
          "onset": 56.75,
          "duration": 0.125,
          "velocity": 100
        },
        {
          "pitch": 66,
          "onset": 56.875,
          "duration": 0.125,
          "velocity": 100
        },
        {
          "pitch": 67,
          "onset": 57.0,
          "duration": 0.125,
          "velocity": 100
        },
        {
          "pitch": 66,
          "onset": 57.125,
          "duration": 0.125,
          "velocity": 100
        },
        {
          "pitch": 64,
          "onset": 57.25,
          "duration": 0.125,
          "velocity": 100
        },
        {
          "pitch": 62,
          "onset": 57.375,
          "duration": 0.125,
          "velocity": 100
        },
        {
          "pitch": 60,
          "onset": 57.5,
          "duration": 0.125,
          "velocity": 100
        },
        {
          "pitch": 59,
          "onset": 57.625,
          "duration": 0.125,
          "velocity": 100
        },
        {
          "pitch": 57,
          "onset": 57.75,
          "duration": 0.125,
          "velocity": 100
        },
        {
          "pitch": 55,
          "onset": 57.875,
          "duration": 0.125,
          "velocity": 100
        },
        {
          "pitch": 60,
          "onset": 58.0,
          "duration": 0.125,
          "velocity": 100
        },
        {
          "pitch": 59,
          "onset": 58.125,
          "duration": 0.125,
          "velocity": 100
        },
        {
          "pitch": 57,
          "onset": 58.25,
          "duration": 0.125,
          "velocity": 100
        },
        {
          "pitch": 55,
          "onset": 58.375,
          "duration": 0.125,
          "velocity": 100
        },
        {
          "pitch": 54,
          "onset": 58.5,
          "duration": 0.125,
          "velocity": 100
        },
        {
          "pitch": 52,
          "onset": 58.625,
          "duration": 0.125,
          "velocity": 100
        },
        {
          "pitch": 54,
          "onset": 58.75,
          "duration": 0.125,
          "velocity": 100
        },
        {
          "pitch": 51,
          "onset": 58.875,
          "duration": 0.125,
          "velocity": 100
        },
        {
          "pitch": 52,
          "onset": 59.0,
          "duration": 0.5,
          "velocity": 100
        },
        {
          "pitch": 59,
          "onset": 59.0,
          "duration": 1.0,
          "velocity": 100
        },
        {
          "pitch": 64,
          "onset": 59.0,
          "duration": 1.0,
          "velocity": 100
        },
        {
          "pitch": 67,
          "onset": 59.0,
          "duration": 1.0,
          "velocity": 100
        },
        {
          "pitch": 50,
          "onset": 59.5,
          "duration": 0.5,
          "velocity": 100
        },
        {
          "pitch": 48,
          "onset": 60.0,
          "duration": 1.0,
          "velocity": 100
        },
        {
          "pitch": 60,
          "onset": 60.0,
          "duration": 0.5,
          "velocity": 100
        },
        {
          "pitch": 64,
          "onset": 60.0,
          "duration": 1.0,
          "velocity": 100
        },
        {
          "pitch": 67,
          "onset": 60.0,
          "duration": 1.0,
          "velocity": 100
        },
        {
          "pitch": 58,
          "onset": 60.5,
          "duration": 0.5,
          "velocity": 100
        },
        {
          "pitch": 53,
          "onset": 61.0,
          "duration": 1.0,
          "velocity": 100
        },
        {
          "pitch": 57,
          "onset": 61.0,
          "duration": 1.0,
          "velocity": 100
        },
        {
          "pitch": 60,
          "onset": 61.0,
          "duration": 1.0,
          "velocity": 100
        },
        {
          "pitch": 65,
          "onset": 61.0,
          "duration": 1.0,
          "velocity": 100
        },
        {
          "pitch": 69,
          "onset": 61.0,
          "duration": 0.5,
          "velocity": 100
        },
        {
          "pitch": 71,
          "onset": 61.5,
          "duration": 0.5,
          "velocity": 100
        },
        {
          "pitch": 54,
          "onset": 62.0,
          "duration": 0.5,
          "velocity": 100
        },
        {
          "pitch": 57,
          "onset": 62.0,
          "duration": 0.75,
          "velocity": 100
        },
        {
          "pitch": 62,
          "onset": 62.0,
          "duration": 1.0,
          "velocity": 100
        },
        {
          "pitch": 69,
          "onset": 62.0,
          "duration": 1.0,
          "velocity": 100
        },
        {
          "pitch": 72,
          "onset": 62.0,
          "duration": 1.0,
          "velocity": 100
        },
        {
          "pitch": 56,
          "onset": 62.5,
          "duration": 0.25,
          "velocity": 100
        },
        {
          "pitch": 57,
          "onset": 62.75,
          "duration": 0.25,
          "velocity": 100
        },
        {
          "pitch": 50,
          "onset": 63.0,
          "duration": 0.25,
          "velocity": 100
        },
        {
          "pitch": 56,
          "onset": 63.0,
          "duration": 1.0,
          "velocity": 100
        },
        {
          "pitch": 65,
          "onset": 63.0,
          "duration": 1.0,
          "velocity": 100
        },
        {
          "pitch": 71,
          "onset": 63.0,
          "duration": 1.0,
          "velocity": 100
        },
        {
          "pitch": 53,
          "onset": 63.25,
          "duration": 0.25,
          "velocity": 100
        },
        {
          "pitch": 52,
          "onset": 63.5,
          "duration": 0.25,
          "velocity": 100
        },
        {
          "pitch": 50,
          "onset": 63.75,
          "duration": 0.25,
          "velocity": 100
        },
        {
          "pitch": 48,
          "onset": 64.0,
          "duration": 0.5,
          "velocity": 100
        },
        {
          "pitch": 57,
          "onset": 64.0,
          "duration": 0.5,
          "velocity": 100
        },
        {
          "pitch": 64,
          "onset": 64.0,
          "duration": 0.5,
          "velocity": 100
        },
        {
          "pitch": 69,
          "onset": 64.0,
          "duration": 1.5,
          "velocity": 100
        },
        {
          "pitch": 47,
          "onset": 64.5,
          "duration": 0.25,
          "velocity": 100
        },
        {
          "pitch": 60,
          "onset": 64.5,
          "duration": 0.5,
          "velocity": 100
        },
        {
          "pitch": 63,
          "onset": 64.5,
          "duration": 0.5,
          "velocity": 100
        },
        {
          "pitch": 45,
          "onset": 64.75,
          "duration": 0.25,
          "velocity": 100
        },
        {
          "pitch": 52,
          "onset": 65.0,
          "duration": 0.5,
          "velocity": 100
        },
        {
          "pitch": 59,
          "onset": 65.0,
          "duration": 0.5,
          "velocity": 100
        },
        {
          "pitch": 64,
          "onset": 65.0,
          "duration": 1.0,
          "velocity": 100
        },
        {
          "pitch": 40,
          "onset": 65.5,
          "duration": 0.5,
          "velocity": 100
        },
        {
          "pitch": 62,
          "onset": 65.5,
          "duration": 2.4688,
          "velocity": 100
        },
        {
          "pitch": 68,
          "onset": 65.5,
          "duration": 0.5,
          "velocity": 100
        },
        {
          "pitch": 64,
          "onset": 66.0,
          "duration": 1.9688,
          "velocity": 100
        },
        {
          "pitch": 69,
          "onset": 66.0,
          "duration": 1.9688,
          "velocity": 100
        },
        {
          "pitch": 60,
          "onset": 68.0,
          "duration": 0.25,
          "velocity": 100
        },
        {
          "pitch": 59,
          "onset": 68.25,
          "duration": 0.25,
          "velocity": 100
        },
        {
          "pitch": 60,
          "onset": 68.5,
          "duration": 0.125,
          "velocity": 100
        },
        {
          "pitch": 52,
          "onset": 68.625,
          "duration": 0.125,
          "velocity": 100
        },
        {
          "pitch": 57,
          "onset": 68.75,
          "duration": 0.125,
          "velocity": 100
        },
        {
          "pitch": 60,
          "onset": 68.875,
          "duration": 0.125,
          "velocity": 100
        },
        {
          "pitch": 64,
          "onset": 69.0,
          "duration": 0.125,
          "velocity": 100
        },
        {
          "pitch": 69,
          "onset": 69.125,
          "duration": 0.125,
          "velocity": 100
        },
        {
          "pitch": 64,
          "onset": 69.25,
          "duration": 0.125,
          "velocity": 100
        },
        {
          "pitch": 60,
          "onset": 69.375,
          "duration": 0.125,
          "velocity": 100
        },
        {
          "pitch": 57,
          "onset": 69.5,
          "duration": 0.125,
          "velocity": 100
        },
        {
          "pitch": 52,
          "onset": 69.625,
          "duration": 0.125,
          "velocity": 100
        },
        {
          "pitch": 48,
          "onset": 69.75,
          "duration": 0.125,
          "velocity": 100
        },
        {
          "pitch": 52,
          "onset": 69.875,
          "duration": 0.125,
          "velocity": 100
        },
        {
          "pitch": 57,
          "onset": 70.0,
          "duration": 0.25,
          "velocity": 100
        },
        {
          "pitch": 57,
          "onset": 70.25,
          "duration": 0.125,
          "velocity": 100
        },
        {
          "pitch": 52,
          "onset": 70.375,
          "duration": 0.125,
          "velocity": 100
        },
        {
          "pitch": 48,
          "onset": 70.5,
          "duration": 0.125,
          "velocity": 100
        },
        {
          "pitch": 45,
          "onset": 70.625,
          "duration": 0.125,
          "velocity": 100
        },
        {
          "pitch": 40,
          "onset": 70.75,
          "duration": 0.125,
          "velocity": 100
        },
        {
          "pitch": 43,
          "onset": 70.875,
          "duration": 0.125,
          "velocity": 100
        },
        {
          "pitch": 41,
          "onset": 71.0,
          "duration": 1.0,
          "velocity": 100
        },
        {
          "pitch": 69,
          "onset": 71.0,
          "duration": 1.0,
          "velocity": 100
        },
        {
          "pitch": 67,
          "onset": 71.125,
          "duration": 0.125,
          "velocity": 100
        },
        {
          "pitch": 66,
          "onset": 71.25,
          "duration": 0.125,
          "velocity": 100
        },
        {
          "pitch": 64,
          "onset": 71.375,
          "duration": 0.125,
          "velocity": 100
        },
        {
          "pitch": 62,
          "onset": 71.5,
          "duration": 0.125,
          "velocity": 100
        },
        {
          "pitch": 60,
          "onset": 71.625,
          "duration": 0.125,
          "velocity": 100
        },
        {
          "pitch": 59,
          "onset": 71.75,
          "duration": 0.125,
          "velocity": 100
        },
        {
          "pitch": 57,
          "onset": 71.875,
          "duration": 0.125,
          "velocity": 100
        },
        {
          "pitch": 53,
          "onset": 72.0,
          "duration": 1.0,
          "velocity": 100
        },
        {
          "pitch": 55,
          "onset": 72.0,
          "duration": 1.0,
          "velocity": 100
        },
        {
          "pitch": 62,
          "onset": 72.0,
          "duration": 1.0,
          "velocity": 100
        },
        {
          "pitch": 67,
          "onset": 72.0,
          "duration": 1.0,
          "velocity": 100
        },
        {
          "pitch": 71,
          "onset": 72.0,
          "duration": 1.0,
          "velocity": 100
        },
        {
          "pitch": 52,
          "onset": 73.0,
          "duration": 1.0,
          "velocity": 100
        },
        {
          "pitch": 55,
          "onset": 73.0,
          "duration": 1.0,
          "velocity": 100
        },
        {
          "pitch": 58,
          "onset": 73.0,
          "duration": 1.0,
          "velocity": 100
        },
        {
          "pitch": 64,
          "onset": 73.0,
          "duration": 1.0,
          "velocity": 100
        },
        {
          "pitch": 67,
          "onset": 73.0,
          "duration": 1.0,
          "velocity": 100
        },
        {
          "pitch": 73,
          "onset": 73.0,
          "duration": 1.0,
          "velocity": 100
        },
        {
          "pitch": 47,
          "onset": 74.0,
          "duration": 1.0,
          "velocity": 100
        },
        {
          "pitch": 53,
          "onset": 74.0,
          "duration": 1.0,
          "velocity": 100
        },
        {
          "pitch": 56,
          "onset": 74.0,
          "duration": 1.0,
          "velocity": 100
        },
        {
          "pitch": 62,
          "onset": 74.0,
          "duration": 1.0,
          "velocity": 100
        },
        {
          "pitch": 65,
          "onset": 74.0,
          "duration": 1.0,
          "velocity": 100
        },
        {
          "pitch": 74,
          "onset": 74.0,
          "duration": 1.0,
          "velocity": 100
        },
        {
          "pitch": 48,
          "onset": 75.0,
          "duration": 1.0,
          "velocity": 100
        },
        {
          "pitch": 51,
          "onset": 75.0,
          "duration": 1.0,
          "velocity": 100
        },
        {
          "pitch": 57,
          "onset": 75.0,
          "duration": 1.0,
          "velocity": 100
        },
        {
          "pitch": 63,
          "onset": 75.0,
          "duration": 1.0,
          "velocity": 100
        },
        {
          "pitch": 65,
          "onset": 75.0,
          "duration": 1.0,
          "velocity": 100
        },
        {
          "pitch": 72,
          "onset": 75.0,
          "duration": 1.0,
          "velocity": 100
        },
        {
          "pitch": 44,
          "onset": 76.0,
          "duration": 1.0,
          "velocity": 100
        },
        {
          "pitch": 53,
          "onset": 76.0,
          "duration": 1.0,
          "velocity": 100
        },
        {
          "pitch": 62,
          "onset": 76.0,
          "duration": 1.0,
          "velocity": 100
        },
        {
          "pitch": 65,
          "onset": 76.0,
          "duration": 1.0,
          "velocity": 100
        },
        {
          "pitch": 71,
          "onset": 76.0,
          "duration": 1.0,
          "velocity": 100
        },
        {
          "pitch": 45,
          "onset": 77.0,
          "duration": 1.0,
          "velocity": 100
        },
        {
          "pitch": 54,
          "onset": 77.0,
          "duration": 1.0,
          "velocity": 100
        },
        {
          "pitch": 57,
          "onset": 77.0,
          "duration": 1.5,
          "velocity": 100
        },
        {
          "pitch": 63,
          "onset": 77.0,
          "duration": 1.0,
          "velocity": 100
        },
        {
          "pitch": 69,
          "onset": 77.0,
          "duration": 1.0,
          "velocity": 100
        },
        {
          "pitch": 40,
          "onset": 78.0,
          "duration": 2.9688,
          "velocity": 100
        },
        {
          "pitch": 59,
          "onset": 78.0,
          "duration": 2.9688,
          "velocity": 100
        },
        {
          "pitch": 64,
          "onset": 78.0,
          "duration": 2.9688,
          "velocity": 100
        },
        {
          "pitch": 71,
          "onset": 78.0,
          "duration": 2.9688,
          "velocity": 100
        },
        {
          "pitch": 56,
          "onset": 78.5,
          "duration": 3.125,
          "velocity": 100
        },
        {
          "pitch": 54,
          "onset": 81.625,
          "duration": 0.125,
          "velocity": 100
        },
        {
          "pitch": 52,
          "onset": 81.75,
          "duration": 0.125,
          "velocity": 100
        },
        {
          "pitch": 54,
          "onset": 81.875,
          "duration": 0.125,
          "velocity": 100
        },
        {
          "pitch": 56,
          "onset": 82.0,
          "duration": 0.125,
          "velocity": 100
        },
        {
          "pitch": 57,
          "onset": 82.125,
          "duration": 0.125,
          "velocity": 100
        },
        {
          "pitch": 59,
          "onset": 82.25,
          "duration": 0.125,
          "velocity": 100
        },
        {
          "pitch": 60,
          "onset": 82.375,
          "duration": 0.125,
          "velocity": 100
        },
        {
          "pitch": 62,
          "onset": 82.5,
          "duration": 0.125,
          "velocity": 100
        },
        {
          "pitch": 60,
          "onset": 82.625,
          "duration": 0.125,
          "velocity": 100
        },
        {
          "pitch": 62,
          "onset": 82.75,
          "duration": 0.125,
          "velocity": 100
        },
        {
          "pitch": 59,
          "onset": 82.875,
          "duration": 0.125,
          "velocity": 100
        },
        {
          "pitch": 51,
          "onset": 83.0,
          "duration": 1.0,
          "velocity": 100
        },
        {
          "pitch": 55,
          "onset": 83.0,
          "duration": 1.0,
          "velocity": 100
        },
        {
          "pitch": 60,
          "onset": 83.0,
          "duration": 1.0,
          "velocity": 100
        },
        {
          "pitch": 67,
          "onset": 83.0,
          "duration": 1.0,
          "velocity": 100
        },
        {
          "pitch": 67,
          "onset": 83.0,
          "duration": 1.0,
          "velocity": 100
        },
        {
          "pitch": 50,
          "onset": 84.0,
          "duration": 1.9688,
          "velocity": 100
        },
        {
          "pitch": 54,
          "onset": 84.0,
          "duration": 1.0,
          "velocity": 100
        },
        {
          "pitch": 60,
          "onset": 84.0,
          "duration": 1.0,
          "velocity": 100
        },
        {
          "pitch": 62,
          "onset": 84.0,
          "duration": 1.0,
          "velocity": 100
        },
        {
          "pitch": 69,
          "onset": 84.0,
          "duration": 1.0,
          "velocity": 100
        },
        {
          "pitch": 56,
          "onset": 85.0,
          "duration": 1.0,
          "velocity": 100
        },
        {
          "pitch": 59,
          "onset": 85.0,
          "duration": 1.0,
          "velocity": 100
        },
        {
          "pitch": 62,
          "onset": 85.0,
          "duration": 1.0,
          "velocity": 100
        },
        {
          "pitch": 65,
          "onset": 85.0,
          "duration": 1.0,
          "velocity": 100
        },
        {
          "pitch": 71,
          "onset": 85.0,
          "duration": 1.0,
          "velocity": 100
        },
        {
          "pitch": 45,
          "onset": 86.0,
          "duration": 1.0,
          "velocity": 100
        },
        {
          "pitch": 57,
          "onset": 86.0,
          "duration": 1.0,
          "velocity": 100
        },
        {
          "pitch": 60,
          "onset": 86.0,
          "duration": 0.5,
          "velocity": 100
        },
        {
          "pitch": 64,
          "onset": 86.0,
          "duration": 1.5,
          "velocity": 100
        },
        {
          "pitch": 69,
          "onset": 86.0,
          "duration": 0.5,
          "velocity": 100
        },
        {
          "pitch": 72,
          "onset": 86.0,
          "duration": 0.5,
          "velocity": 100
        },
        {
          "pitch": 52,
          "onset": 86.5,
          "duration": 0.5,
          "velocity": 100
        },
        {
          "pitch": 67,
          "onset": 86.5,
          "duration": 0.5,
          "velocity": 100
        },
        {
          "pitch": 71,
          "onset": 86.5,
          "duration": 0.5,
          "velocity": 100
        },
        {
          "pitch": 47,
          "onset": 87.0,
          "duration": 1.0,
          "velocity": 100
        },
        {
          "pitch": 54,
          "onset": 87.0,
          "duration": 1.0,
          "velocity": 100
        },
        {
          "pitch": 59,
          "onset": 87.0,
          "duration": 1.0,
          "velocity": 100
        },
        {
          "pitch": 66,
          "onset": 87.0,
          "duration": 1.0,
          "velocity": 100
        },
        {
          "pitch": 69,
          "onset": 87.0,
          "duration": 1.0,
          "velocity": 100
        },
        {
          "pitch": 63,
          "onset": 87.5,
          "duration": 0.5,
          "velocity": 100
        },
        {
          "pitch": 46,
          "onset": 88.0,
          "duration": 1.0,
          "velocity": 100
        },
        {
          "pitch": 55,
          "onset": 88.0,
          "duration": 0.5,
          "velocity": 100
        },
        {
          "pitch": 60,
          "onset": 88.0,
          "duration": 1.0,
          "velocity": 100
        },
        {
          "pitch": 64,
          "onset": 88.0,
          "duration": 1.0,
          "velocity": 100
        },
        {
          "pitch": 67,
          "onset": 88.0,
          "duration": 2.9688,
          "velocity": 100
        },
        {
          "pitch": 57,
          "onset": 88.5,
          "duration": 0.5,
          "velocity": 100
        },
        {
          "pitch": 41,
          "onset": 89.0,
          "duration": 1.0,
          "velocity": 100
        },
        {
          "pitch": 58,
          "onset": 89.0,
          "duration": 1.5,
          "velocity": 100
        },
        {
          "pitch": 61,
          "onset": 89.0,
          "duration": 1.0,
          "velocity": 100
        },
        {
          "pitch": 38,
          "onset": 90.0,
          "duration": 1.9688,
          "velocity": 100
        },
        {
          "pitch": 50,
          "onset": 90.0,
          "duration": 7.9688,
          "velocity": 100
        },
        {
          "pitch": 62,
          "onset": 90.0,
          "duration": 1.9688,
          "velocity": 100
        },
        {
          "pitch": 57,
          "onset": 90.5,
          "duration": 0.25,
          "velocity": 100
        },
        {
          "pitch": 55,
          "onset": 90.75,
          "duration": 0.25,
          "velocity": 100
        },
        {
          "pitch": 57,
          "onset": 91.0,
          "duration": 0.5,
          "velocity": 100
        },
        {
          "pitch": 66,
          "onset": 91.0,
          "duration": 1.0,
          "velocity": 100
        },
        {
          "pitch": 59,
          "onset": 91.5,
          "duration": 0.25,
          "velocity": 100
        },
        {
          "pitch": 60,
          "onset": 91.75,
          "duration": 1.25,
          "velocity": 100
        },
        {
          "pitch": 43,
          "onset": 92.0,
          "duration": 5.9688,
          "velocity": 100
        },
        {
          "pitch": 67,
          "onset": 92.0,
          "duration": 5.9688,
          "velocity": 100
        },
        {
          "pitch": 59,
          "onset": 93.0,
          "duration": 0.5,
          "velocity": 100
        },
        {
          "pitch": 57,
          "onset": 93.5,
          "duration": 0.75,
          "velocity": 100
        },
        {
          "pitch": 59,
          "onset": 94.25,
          "duration": 3.7188,
          "velocity": 100
        },
        {
          "pitch": 67,
          "onset": 99.75,
          "duration": 0.25,
          "velocity": 1
        }
      ]
    }
  ]
}