{
  "bwv": 706,
  "category": "organ_chorale",
  "instrument": "organ",
  "form": "",
  "movement": null,
  "tonic": "A",
  "mode": "major",
  "confidence": "inferred",
  "ticks_per_beat": 480,
  "duration_seconds": 60.1,
  "tempos": [
    {
      "tick": 0,
      "bpm": 80
    },
    {
      "tick": 2400,
      "bpm": 75
    },
    {
      "tick": 2880,
      "bpm": 70
    },
    {
      "tick": 3120,
      "bpm": 60
    },
    {
      "tick": 3840,
      "bpm": 80
    },
    {
      "tick": 9120,
      "bpm": 75
    },
    {
      "tick": 9600,
      "bpm": 70
    },
    {
      "tick": 9840,
      "bpm": 60
    },
    {
      "tick": 10080,
      "bpm": 80
    },
    {
      "tick": 13920,
      "bpm": 75
    },
    {
      "tick": 14400,
      "bpm": 70
    },
    {
      "tick": 14640,
      "bpm": 60
    },
    {
      "tick": 15360,
      "bpm": 80
    },
    {
      "tick": 20640,
      "bpm": 75
    },
    {
      "tick": 21120,
      "bpm": 70
    },
    {
      "tick": 21360,
      "bpm": 60
    },
    {
      "tick": 21600,
      "bpm": 80
    },
    {
      "tick": 25440,
      "bpm": 75
    },
    {
      "tick": 25920,
      "bpm": 70
    },
    {
      "tick": 26160,
      "bpm": 60
    },
    {
      "tick": 26640,
      "bpm": 80
    },
    {
      "tick": 31680,
      "bpm": 80
    },
    {
      "tick": 32160,
      "bpm": 75
    },
    {
      "tick": 32640,
      "bpm": 70
    }
  ],
  "time_signatures": [
    {
      "tick": 0,
      "numerator": 4,
      "denominator": 4
    },
    {
      "tick": 1920,
      "numerator": 6,
      "denominator": 4
    },
    {
      "tick": 4800,
      "numerator": 4,
      "denominator": 4
    },
    {
      "tick": 8640,
      "numerator": 6,
      "denominator": 4
    },
    {
      "tick": 11520,
      "numerator": 4,
      "denominator": 4
    },
    {
      "tick": 13440,
      "numerator": 6,
      "denominator": 4
    },
    {
      "tick": 16320,
      "numerator": 4,
      "denominator": 4
    },
    {
      "tick": 20160,
      "numerator": 6,
      "denominator": 4
    },
    {
      "tick": 23040,
      "numerator": 4,
      "denominator": 4
    },
    {
      "tick": 24960,
      "numerator": 6,
      "denominator": 4
    },
    {
      "tick": 27840,
      "numerator": 4,
      "denominator": 4
    }
  ],
  "track_type": "voice",
  "voice_count": 4,
  "total_notes": 300,
  "tracks": [
    {
      "role": "v1",
      "notes": [
        {
          "pitch": 73,
          "onset": 0.0,
          "duration": 1.0,
          "velocity": 100
        },
        {
          "pitch": 71,
          "onset": 1.0,
          "duration": 0.5,
          "velocity": 100
        },
        {
          "pitch": 69,
          "onset": 1.5,
          "duration": 0.5,
          "velocity": 100
        },
        {
          "pitch": 71,
          "onset": 2.0,
          "duration": 1.0,
          "velocity": 100
        },
        {
          "pitch": 73,
          "onset": 3.0,
          "duration": 0.5,
          "velocity": 100
        },
        {
          "pitch": 74,
          "onset": 3.5,
          "duration": 0.25,
          "velocity": 100
        },
        {
          "pitch": 76,
          "onset": 3.75,
          "duration": 0.25,
          "velocity": 100
        },
        {
          "pitch": 73,
          "onset": 4.0,
          "duration": 1.0,
          "velocity": 100
        },
        {
          "pitch": 69,
          "onset": 5.0,
          "duration": 1.0,
          "velocity": 100
        },
        {
          "pitch": 71,
          "onset": 6.0,
          "duration": 3.9688,
          "velocity": 100
        },
        {
          "pitch": 69,
          "onset": 10.0,
          "duration": 1.0,
          "velocity": 100
        },
        {
          "pitch": 69,
          "onset": 11.0,
          "duration": 1.0,
          "velocity": 100
        },
        {
          "pitch": 69,
          "onset": 12.0,
          "duration": 1.0,
          "velocity": 100
        },
        {
          "pitch": 69,
          "onset": 13.0,
          "duration": 1.0,
          "velocity": 100
        },
        {
          "pitch": 71,
          "onset": 14.0,
          "duration": 1.0,
          "velocity": 100
        },
        {
          "pitch": 73,
          "onset": 15.0,
          "duration": 1.0,
          "velocity": 100
        },
        {
          "pitch": 71,
          "onset": 16.0,
          "duration": 1.9688,
          "velocity": 100
        },
        {
          "pitch": 69,
          "onset": 18.0,
          "duration": 5.9688,
          "velocity": 100
        },
        {
          "pitch": 73,
          "onset": 24.0,
          "duration": 1.0,
          "velocity": 100
        },
        {
          "pitch": 71,
          "onset": 25.0,
          "duration": 0.5,
          "velocity": 100
        },
        {
          "pitch": 69,
          "onset": 25.5,
          "duration": 0.5,
          "velocity": 100
        },
        {
          "pitch": 71,
          "onset": 26.0,
          "duration": 1.0,
          "velocity": 100
        },
        {
          "pitch": 73,
          "onset": 27.0,
          "duration": 0.5,
          "velocity": 100
        },
        {
          "pitch": 74,
          "onset": 27.5,
          "duration": 0.25,
          "velocity": 100
        },
        {
          "pitch": 76,
          "onset": 27.75,
          "duration": 0.25,
          "velocity": 100
        },
        {
          "pitch": 73,
          "onset": 28.0,
          "duration": 1.0,
          "velocity": 100
        },
        {
          "pitch": 69,
          "onset": 29.0,
          "duration": 1.0,
          "velocity": 100
        },
        {
          "pitch": 71,
          "onset": 30.0,
          "duration": 3.9688,
          "velocity": 100
        },
        {
          "pitch": 69,
          "onset": 34.0,
          "duration": 1.0,
          "velocity": 100
        },
        {
          "pitch": 69,
          "onset": 35.0,
          "duration": 1.0,
          "velocity": 100
        },
        {
          "pitch": 69,
          "onset": 36.0,
          "duration": 1.0,
          "velocity": 100
        },
        {
          "pitch": 69,
          "onset": 37.0,
          "duration": 1.0,
          "velocity": 100
        },
        {
          "pitch": 71,
          "onset": 38.0,
          "duration": 1.0,
          "velocity": 100
        },
        {
          "pitch": 73,
          "onset": 39.0,
          "duration": 1.0,
          "velocity": 100
        },
        {
          "pitch": 71,
          "onset": 40.0,
          "duration": 1.9688,
          "velocity": 100
        },
        {
          "pitch": 69,
          "onset": 42.0,
          "duration": 5.9688,
          "velocity": 100
        },
        {
          "pitch": 64,
          "onset": 48.0,
          "duration": 1.0,
          "velocity": 100
        },
        {
          "pitch": 64,
          "onset": 49.0,
          "duration": 1.0,
          "velocity": 100
        },
        {
          "pitch": 66,
          "onset": 50.0,
          "duration": 1.0,
          "velocity": 100
        },
        {
          "pitch": 68,
          "onset": 51.0,
          "duration": 1.0,
          "velocity": 100
        },
        {
          "pitch": 69,
          "onset": 52.0,
          "duration": 1.0,
          "velocity": 100
        },
        {
          "pitch": 71,
          "onset": 53.0,
          "duration": 0.5,
          "velocity": 100
        },
        {
          "pitch": 69,
          "onset": 53.5,
          "duration": 0.5,
          "velocity": 100
        },
        {
          "pitch": 68,
          "onset": 54.0,
          "duration": 1.0,
          "velocity": 100
        },
        {
          "pitch": 64,
          "onset": 55.0,
          "duration": 2.9688,
          "velocity": 100
        },
        {
          "pitch": 69,
          "onset": 58.0,
          "duration": 1.0,
          "velocity": 100
        },
        {
          "pitch": 69,
          "onset": 59.0,
          "duration": 1.0,
          "velocity": 100
        },
        {
          "pitch": 71,
          "onset": 60.0,
          "duration": 1.0,
          "velocity": 100
        },
        {
          "pitch": 73,
          "onset": 61.0,
          "duration": 1.0,
          "velocity": 100
        },
        {
          "pitch": 74,
          "onset": 62.0,
          "duration": 1.0,
          "velocity": 100
        },
        {
          "pitch": 73,
          "onset": 63.0,
          "duration": 1.0,
          "velocity": 100
        },
        {
          "pitch": 71,
          "onset": 64.0,
          "duration": 1.9688,
          "velocity": 100
        },
        {
          "pitch": 69,
          "onset": 66.0,
          "duration": 7.9688,
          "velocity": 100
        },
        {
          "pitch": 69,
          "onset": 76.25,
          "duration": 0.25,
          "velocity": 1
        }
      ]
    },
    {
      "role": "v2",
      "notes": [
        {
          "pitch": 64,
          "onset": 0.0,
          "duration": 1.0,
          "velocity": 100
        },
        {
          "pitch": 66,
          "onset": 1.0,
          "duration": 1.5,
          "velocity": 100
        },
        {
          "pitch": 64,
          "onset": 2.5,
          "duration": 0.25,
          "velocity": 100
        },
        {
          "pitch": 63,
          "onset": 2.75,
          "duration": 0.25,
          "velocity": 100
        },
        {
          "pitch": 64,
          "onset": 3.0,
          "duration": 2.5,
          "velocity": 100
        },
        {
          "pitch": 63,
          "onset": 5.5,
          "duration": 0.5,
          "velocity": 100
        },
        {
          "pitch": 64,
          "onset": 6.0,
          "duration": 4.5,
          "velocity": 100
        },
        {
          "pitch": 62,
          "onset": 10.5,
          "duration": 0.5,
          "velocity": 100
        },
        {
          "pitch": 61,
          "onset": 11.0,
          "duration": 0.5,
          "velocity": 100
        },
        {
          "pitch": 67,
          "onset": 11.5,
          "duration": 0.5,
          "velocity": 100
        },
        {
          "pitch": 66,
          "onset": 12.0,
          "duration": 1.0,
          "velocity": 100
        },
        {
          "pitch": 64,
          "onset": 13.0,
          "duration": 0.5,
          "velocity": 100
        },
        {
          "pitch": 66,
          "onset": 13.5,
          "duration": 0.5,
          "velocity": 100
        },
        {
          "pitch": 68,
          "onset": 14.0,
          "duration": 0.25,
          "velocity": 100
        },
        {
          "pitch": 69,
          "onset": 14.25,
          "duration": 0.25,
          "velocity": 100
        },
        {
          "pitch": 66,
          "onset": 14.5,
          "duration": 0.25,
          "velocity": 100
        },
        {
          "pitch": 68,
          "onset": 14.75,
          "duration": 0.25,
          "velocity": 100
        },
        {
          "pitch": 69,
          "onset": 15.0,
          "duration": 1.5,
          "velocity": 100
        },
        {
          "pitch": 68,
          "onset": 16.5,
          "duration": 0.25,
          "velocity": 100
        },
        {
          "pitch": 66,
          "onset": 16.75,
          "duration": 0.25,
          "velocity": 100
        },
        {
          "pitch": 68,
          "onset": 17.0,
          "duration": 1.0,
          "velocity": 100
        },
        {
          "pitch": 69,
          "onset": 18.0,
          "duration": 0.5,
          "velocity": 100
        },
        {
          "pitch": 68,
          "onset": 18.5,
          "duration": 0.5,
          "velocity": 100
        },
        {
          "pitch": 66,
          "onset": 19.0,
          "duration": 1.0,
          "velocity": 100
        },
        {
          "pitch": 64,
          "onset": 20.0,
          "duration": 3.9688,
          "velocity": 100
        },
        {
          "pitch": 64,
          "onset": 24.0,
          "duration": 1.0,
          "velocity": 100
        },
        {
          "pitch": 66,
          "onset": 25.0,
          "duration": 1.5,
          "velocity": 100
        },
        {
          "pitch": 64,
          "onset": 26.5,
          "duration": 0.25,
          "velocity": 100
        },
        {
          "pitch": 63,
          "onset": 26.75,
          "duration": 0.25,
          "velocity": 100
        },
        {
          "pitch": 64,
          "onset": 27.0,
          "duration": 2.5,
          "velocity": 100
        },
        {
          "pitch": 63,
          "onset": 29.5,
          "duration": 0.5,
          "velocity": 100
        },
        {
          "pitch": 64,
          "onset": 30.0,
          "duration": 4.5,
          "velocity": 100
        },
        {
          "pitch": 62,
          "onset": 34.5,
          "duration": 0.5,
          "velocity": 100
        },
        {
          "pitch": 61,
          "onset": 35.0,
          "duration": 0.5,
          "velocity": 100
        },
        {
          "pitch": 67,
          "onset": 35.5,
          "duration": 0.5,
          "velocity": 100
        },
        {
          "pitch": 66,
          "onset": 36.0,
          "duration": 1.0,
          "velocity": 100
        },
        {
          "pitch": 64,
          "onset": 37.0,
          "duration": 0.5,
          "velocity": 100
        },
        {
          "pitch": 66,
          "onset": 37.5,
          "duration": 0.5,
          "velocity": 100
        },
        {
          "pitch": 68,
          "onset": 38.0,
          "duration": 0.25,
          "velocity": 100
        },
        {
          "pitch": 69,
          "onset": 38.25,
          "duration": 0.25,
          "velocity": 100
        },
        {
          "pitch": 66,
          "onset": 38.5,
          "duration": 0.25,
          "velocity": 100
        },
        {
          "pitch": 68,
          "onset": 38.75,
          "duration": 0.25,
          "velocity": 100
        },
        {
          "pitch": 69,
          "onset": 39.0,
          "duration": 1.5,
          "velocity": 100
        },
        {
          "pitch": 68,
          "onset": 40.5,
          "duration": 0.25,
          "velocity": 100
        },
        {
          "pitch": 66,
          "onset": 40.75,
          "duration": 0.25,
          "velocity": 100
        },
        {
          "pitch": 68,
          "onset": 41.0,
          "duration": 1.0,
          "velocity": 100
        },
        {
          "pitch": 69,
          "onset": 42.0,
          "duration": 0.5,
          "velocity": 100
        },
        {
          "pitch": 68,
          "onset": 42.5,
          "duration": 0.5,
          "velocity": 100
        },
        {
          "pitch": 66,
          "onset": 43.0,
          "duration": 1.0,
          "velocity": 100
        },
        {
          "pitch": 64,
          "onset": 44.0,
          "duration": 3.9688,
          "velocity": 100
        },
        {
          "pitch": 61,
          "onset": 48.0,
          "duration": 1.0,
          "velocity": 100
        },
        {
          "pitch": 61,
          "onset": 49.0,
          "duration": 1.5,
          "velocity": 100
        },
        {
          "pitch": 59,
          "onset": 50.5,
          "duration": 0.25,
          "velocity": 100
        },
        {
          "pitch": 57,
          "onset": 50.75,
          "duration": 0.25,
          "velocity": 100
        },
        {
          "pitch": 59,
          "onset": 51.0,
          "duration": 1.0,
          "velocity": 100
        },
        {
          "pitch": 64,
          "onset": 52.0,
          "duration": 0.5,
          "velocity": 100
        },
        {
          "pitch": 63,
          "onset": 52.5,
          "duration": 0.25,
          "velocity": 100
        },
        {
          "pitch": 64,
          "onset": 52.75,
          "duration": 0.25,
          "velocity": 100
        },
        {
          "pitch": 66,
          "onset": 53.0,
          "duration": 1.5,
          "velocity": 100
        },
        {
          "pitch": 64,
          "onset": 54.5,
          "duration": 0.25,
          "velocity": 100
        },
        {
          "pitch": 63,
          "onset": 54.75,
          "duration": 0.25,
          "velocity": 100
        },
        {
          "pitch": 64,
          "onset": 55.0,
          "duration": 3.5,
          "velocity": 100
        },
        {
          "pitch": 62,
          "onset": 58.5,
          "duration": 0.5,
          "velocity": 100
        },
        {
          "pitch": 61,
          "onset": 59.0,
          "duration": 1.0,
          "velocity": 100
        },
        {
          "pitch": 66,
          "onset": 60.0,
          "duration": 0.5,
          "velocity": 100
        },
        {
          "pitch": 71,
          "onset": 60.5,
          "duration": 1.0,
          "velocity": 100
        },
        {
          "pitch": 69,
          "onset": 61.5,
          "duration": 0.25,
          "velocity": 100
        },
        {
          "pitch": 68,
          "onset": 61.75,
          "duration": 0.25,
          "velocity": 100
        },
        {
          "pitch": 69,
          "onset": 62.0,
          "duration": 0.5,
          "velocity": 100
        },
        {
          "pitch": 71,
          "onset": 62.5,
          "duration": 1.0,
          "velocity": 100
        },
        {
          "pitch": 69,
          "onset": 63.5,
          "duration": 1.9688,
          "velocity": 100
        },
        {
          "pitch": 68,
          "onset": 65.5,
          "duration": 0.5,
          "velocity": 100
        },
        {
          "pitch": 61,
          "onset": 66.0,
          "duration": 1.5,
          "velocity": 100
        },
        {
          "pitch": 69,
          "onset": 66.0,
          "duration": 0.5,
          "velocity": 100
        },
        {
          "pitch": 64,
          "onset": 66.5,
          "duration": 1.0,
          "velocity": 100
        },
        {
          "pitch": 57,
          "onset": 67.5,
          "duration": 6.4688,
          "velocity": 100
        },
        {
          "pitch": 62,
          "onset": 67.5,
          "duration": 1.0,
          "velocity": 100
        },
        {
          "pitch": 61,
          "onset": 68.5,
          "duration": 0.25,
          "velocity": 100
        },
        {
          "pitch": 59,
          "onset": 68.75,
          "duration": 0.5,
          "velocity": 100
        },
        {
          "pitch": 61,
          "onset": 69.25,
          "duration": 4.7188,
          "velocity": 100
        }
      ]
    },
    {
      "role": "v3",
      "notes": [
        {
          "pitch": 57,
          "onset": 0.0,
          "duration": 0.5,
          "velocity": 100
        },
        {
          "pitch": 59,
          "onset": 0.5,
          "duration": 0.5,
          "velocity": 100
        },
        {
          "pitch": 61,
          "onset": 1.0,
          "duration": 1.0,
          "velocity": 100
        },
        {
          "pitch": 59,
          "onset": 2.0,
          "duration": 1.0,
          "velocity": 100
        },
        {
          "pitch": 57,
          "onset": 3.0,
          "duration": 0.5,
          "velocity": 100
        },
        {
          "pitch": 56,
          "onset": 3.5,
          "duration": 0.5,
          "velocity": 100
        },
        {
          "pitch": 57,
          "onset": 4.0,
          "duration": 0.5,
          "velocity": 100
        },
        {
          "pitch": 59,
          "onset": 4.5,
          "duration": 0.5,
          "velocity": 100
        },
        {
          "pitch": 61,
          "onset": 5.0,
          "duration": 0.5,
          "velocity": 100
        },
        {
          "pitch": 59,
          "onset": 5.5,
          "duration": 0.25,
          "velocity": 100
        },
        {
          "pitch": 57,
          "onset": 5.75,
          "duration": 0.75,
          "velocity": 100
        },
        {
          "pitch": 56,
          "onset": 6.5,
          "duration": 0.25,
          "velocity": 100
        },
        {
          "pitch": 54,
          "onset": 6.75,
          "duration": 0.25,
          "velocity": 100
        },
        {
          "pitch": 56,
          "onset": 7.0,
          "duration": 2.9688,
          "velocity": 100
        },
        {
          "pitch": 57,
          "onset": 10.0,
          "duration": 1.9688,
          "velocity": 100
        },
        {
          "pitch": 57,
          "onset": 12.0,
          "duration": 0.5,
          "velocity": 100
        },
        {
          "pitch": 59,
          "onset": 12.5,
          "duration": 0.5,
          "velocity": 100
        },
        {
          "pitch": 61,
          "onset": 13.0,
          "duration": 1.0,
          "velocity": 100
        },
        {
          "pitch": 62,
          "onset": 14.0,
          "duration": 1.0,
          "velocity": 100
        },
        {
          "pitch": 64,
          "onset": 15.0,
          "duration": 1.0,
          "velocity": 100
        },
        {
          "pitch": 66,
          "onset": 16.0,
          "duration": 0.5,
          "velocity": 100
        },
        {
          "pitch": 59,
          "onset": 16.5,
          "duration": 1.0,
          "velocity": 100
        },
        {
          "pitch": 61,
          "onset": 17.5,
          "duration": 0.25,
          "velocity": 100
        },
        {
          "pitch": 62,
          "onset": 17.75,
          "duration": 0.25,
          "velocity": 100
        },
        {
          "pitch": 61,
          "onset": 18.0,
          "duration": 1.5,
          "velocity": 100
        },
        {
          "pitch": 62,
          "onset": 19.5,
          "duration": 1.0,
          "velocity": 100
        },
        {
          "pitch": 61,
          "onset": 20.5,
          "duration": 0.25,
          "velocity": 100
        },
        {
          "pitch": 59,
          "onset": 20.75,
          "duration": 0.25,
          "velocity": 100
        },
        {
          "pitch": 61,
          "onset": 21.0,
          "duration": 2.9688,
          "velocity": 100
        },
        {
          "pitch": 57,
          "onset": 24.0,
          "duration": 0.5,
          "velocity": 100
        },
        {
          "pitch": 59,
          "onset": 24.5,
          "duration": 0.5,
          "velocity": 100
        },
        {
          "pitch": 61,
          "onset": 25.0,
          "duration": 1.0,
          "velocity": 100
        },
        {
          "pitch": 59,
          "onset": 26.0,
          "duration": 1.0,
          "velocity": 100
        },
        {
          "pitch": 57,
          "onset": 27.0,
          "duration": 0.5,
          "velocity": 100
        },
        {
          "pitch": 56,
          "onset": 27.5,
          "duration": 0.5,
          "velocity": 100
        },
        {
          "pitch": 57,
          "onset": 28.0,
          "duration": 0.5,
          "velocity": 100
        },
        {
          "pitch": 59,
          "onset": 28.5,
          "duration": 0.5,
          "velocity": 100
        },
        {
          "pitch": 61,
          "onset": 29.0,
          "duration": 0.5,
          "velocity": 100
        },
        {
          "pitch": 59,
          "onset": 29.5,
          "duration": 0.25,
          "velocity": 100
        },
        {
          "pitch": 57,
          "onset": 29.75,
          "duration": 0.75,
          "velocity": 100
        },
        {
          "pitch": 56,
          "onset": 30.5,
          "duration": 0.25,
          "velocity": 100
        },
        {
          "pitch": 54,
          "onset": 30.75,
          "duration": 0.25,
          "velocity": 100
        },
        {
          "pitch": 56,
          "onset": 31.0,
          "duration": 2.9688,
          "velocity": 100
        },
        {
          "pitch": 57,
          "onset": 34.0,
          "duration": 1.9688,
          "velocity": 100
        },
        {
          "pitch": 57,
          "onset": 36.0,
          "duration": 0.5,
          "velocity": 100
        },
        {
          "pitch": 59,
          "onset": 36.5,
          "duration": 0.5,
          "velocity": 100
        },
        {
          "pitch": 61,
          "onset": 37.0,
          "duration": 1.0,
          "velocity": 100
        },
        {
          "pitch": 62,
          "onset": 38.0,
          "duration": 1.0,
          "velocity": 100
        },
        {
          "pitch": 64,
          "onset": 39.0,
          "duration": 1.0,
          "velocity": 100
        },
        {
          "pitch": 66,
          "onset": 40.0,
          "duration": 0.5,
          "velocity": 100
        },
        {
          "pitch": 59,
          "onset": 40.5,
          "duration": 1.0,
          "velocity": 100
        },
        {
          "pitch": 61,
          "onset": 41.5,
          "duration": 0.25,
          "velocity": 100
        },
        {
          "pitch": 62,
          "onset": 41.75,
          "duration": 0.25,
          "velocity": 100
        },
        {
          "pitch": 61,
          "onset": 42.0,
          "duration": 1.5,
          "velocity": 100
        },
        {
          "pitch": 62,
          "onset": 43.5,
          "duration": 1.0,
          "velocity": 100
        },
        {
          "pitch": 61,
          "onset": 44.5,
          "duration": 0.25,
          "velocity": 100
        },
        {
          "pitch": 59,
          "onset": 44.75,
          "duration": 0.25,
          "velocity": 100
        },
        {
          "pitch": 61,
          "onset": 45.0,
          "duration": 2.9688,
          "velocity": 100
        },
        {
          "pitch": 57,
          "onset": 48.0,
          "duration": 1.0,
          "velocity": 100
        },
        {
          "pitch": 57,
          "onset": 49.0,
          "duration": 0.5,
          "velocity": 100
        },
        {
          "pitch": 55,
          "onset": 49.5,
          "duration": 0.5,
          "velocity": 100
        },
        {
          "pitch": 54,
          "onset": 50.0,
          "duration": 1.0,
          "velocity": 100
        },
        {
          "pitch": 52,
          "onset": 51.0,
          "duration": 1.5,
          "velocity": 100
        },
        {
          "pitch": 57,
          "onset": 52.5,
          "duration": 0.5,
          "velocity": 100
        },
        {
          "pitch": 54,
          "onset": 53.0,
          "duration": 0.5,
          "velocity": 100
        },
        {
          "pitch": 51,
          "onset": 53.5,
          "duration": 0.5,
          "velocity": 100
        },
        {
          "pitch": 52,
          "onset": 54.0,
          "duration": 0.5,
          "velocity": 100
        },
        {
          "pitch": 54,
          "onset": 54.5,
          "duration": 0.5,
          "velocity": 100
        },
        {
          "pitch": 56,
          "onset": 55.0,
          "duration": 2.9688,
          "velocity": 100
        },
        {
          "pitch": 57,
          "onset": 58.0,
          "duration": 2.5,
          "velocity": 100
        },
        {
          "pitch": 56,
          "onset": 60.5,
          "duration": 0.25,
          "velocity": 100
        },
        {
          "pitch": 54,
          "onset": 60.75,
          "duration": 0.25,
          "velocity": 100
        },
        {
          "pitch": 56,
          "onset": 61.0,
          "duration": 0.5,
          "velocity": 100
        },
        {
          "pitch": 61,
          "onset": 61.5,
          "duration": 1.0,
          "velocity": 100
        },
        {
          "pitch": 59,
          "onset": 62.5,
          "duration": 0.5,
          "velocity": 100
        },
        {
          "pitch": 61,
          "onset": 63.0,
          "duration": 0.5,
          "velocity": 100
        },
        {
          "pitch": 62,
          "onset": 63.5,
          "duration": 0.25,
          "velocity": 100
        },
        {
          "pitch": 64,
          "onset": 63.75,
          "duration": 0.25,
          "velocity": 100
        },
        {
          "pitch": 66,
          "onset": 64.0,
          "duration": 0.25,
          "velocity": 100
        },
        {
          "pitch": 64,
          "onset": 64.25,
          "duration": 0.25,
          "velocity": 100
        },
        {
          "pitch": 62,
          "onset": 64.5,
          "duration": 0.25,
          "velocity": 100
        },
        {
          "pitch": 61,
          "onset": 64.75,
          "duration": 0.25,
          "velocity": 100
        },
        {
          "pitch": 59,
          "onset": 65.0,
          "duration": 0.25,
          "velocity": 100
        },
        {
          "pitch": 61,
          "onset": 65.25,
          "duration": 0.25,
          "velocity": 100
        },
        {
          "pitch": 62,
          "onset": 65.5,
          "duration": 0.25,
          "velocity": 100
        },
        {
          "pitch": 59,
          "onset": 65.75,
          "duration": 0.25,
          "velocity": 100
        },
        {
          "pitch": 61,
          "onset": 66.0,
          "duration": 0.25,
          "velocity": 100
        },
        {
          "pitch": 59,
          "onset": 66.25,
          "duration": 0.25,
          "velocity": 100
        },
        {
          "pitch": 57,
          "onset": 66.5,
          "duration": 0.25,
          "velocity": 100
        },
        {
          "pitch": 55,
          "onset": 66.75,
          "duration": 0.25,
          "velocity": 100
        },
        {
          "pitch": 54,
          "onset": 67.0,
          "duration": 0.25,
          "velocity": 100
        },
        {
          "pitch": 52,
          "onset": 67.25,
          "duration": 0.25,
          "velocity": 100
        },
        {
          "pitch": 54,
          "onset": 67.5,
          "duration": 0.25,
          "velocity": 100
        },
        {
          "pitch": 50,
          "onset": 67.75,
          "duration": 0.25,
          "velocity": 100
        },
        {
          "pitch": 52,
          "onset": 68.0,
          "duration": 5.9688,
          "velocity": 100
        }
      ]
    },
    {
      "role": "v4",
      "notes": [
        {
          "pitch": 33,
          "onset": 0.0,
          "duration": 1.0,
          "velocity": 100
        },
        {
          "pitch": 45,
          "onset": 1.0,
          "duration": 1.0,
          "velocity": 100
        },
        {
          "pitch": 44,
          "onset": 2.0,
          "duration": 1.0,
          "velocity": 100
        },
        {
          "pitch": 42,
          "onset": 3.0,
          "duration": 0.5,
          "velocity": 100
        },
        {
          "pitch": 40,
          "onset": 3.5,
          "duration": 0.5,
          "velocity": 100
        },
        {
          "pitch": 45,
          "onset": 4.0,
          "duration": 0.5,
          "velocity": 100
        },
        {
          "pitch": 44,
          "onset": 4.5,
          "duration": 0.5,
          "velocity": 100
        },
        {
          "pitch": 42,
          "onset": 5.0,
          "duration": 1.0,
          "velocity": 100
        },
        {
          "pitch": 40,
          "onset": 6.0,
          "duration": 1.5,
          "velocity": 100
        },
        {
          "pitch": 38,
          "onset": 7.5,
          "duration": 2.4688,
          "velocity": 100
        },
        {
          "pitch": 37,
          "onset": 10.0,
          "duration": 1.0,
          "velocity": 100
        },
        {
          "pitch": 42,
          "onset": 11.0,
          "duration": 0.5,
          "velocity": 100
        },
        {
          "pitch": 40,
          "onset": 11.5,
          "duration": 0.5,
          "velocity": 100
        },
        {
          "pitch": 38,
          "onset": 12.0,
          "duration": 1.0,
          "velocity": 100
        },
        {
          "pitch": 37,
          "onset": 13.0,
          "duration": 1.0,
          "velocity": 100
        },
        {
          "pitch": 35,
          "onset": 14.0,
          "duration": 1.0,
          "velocity": 100
        },
        {
          "pitch": 33,
          "onset": 15.0,
          "duration": 0.25,
          "velocity": 100
        },
        {
          "pitch": 37,
          "onset": 15.25,
          "duration": 0.25,
          "velocity": 100
        },
        {
          "pitch": 35,
          "onset": 15.5,
          "duration": 0.25,
          "velocity": 100
        },
        {
          "pitch": 33,
          "onset": 15.75,
          "duration": 0.25,
          "velocity": 100
        },
        {
          "pitch": 38,
          "onset": 16.0,
          "duration": 1.0,
          "velocity": 100
        },
        {
          "pitch": 40,
          "onset": 17.0,
          "duration": 1.0,
          "velocity": 100
        },
        {
          "pitch": 33,
          "onset": 18.0,
          "duration": 5.9688,
          "velocity": 100
        },
        {
          "pitch": 33,
          "onset": 24.0,
          "duration": 1.0,
          "velocity": 100
        },
        {
          "pitch": 45,
          "onset": 25.0,
          "duration": 1.0,
          "velocity": 100
        },
        {
          "pitch": 44,
          "onset": 26.0,
          "duration": 1.0,
          "velocity": 100
        },
        {
          "pitch": 42,
          "onset": 27.0,
          "duration": 0.5,
          "velocity": 100
        },
        {
          "pitch": 40,
          "onset": 27.5,
          "duration": 0.5,
          "velocity": 100
        },
        {
          "pitch": 45,
          "onset": 28.0,
          "duration": 0.5,
          "velocity": 100
        },
        {
          "pitch": 44,
          "onset": 28.5,
          "duration": 0.5,
          "velocity": 100
        },
        {
          "pitch": 42,
          "onset": 29.0,
          "duration": 1.0,
          "velocity": 100
        },
        {
          "pitch": 40,
          "onset": 30.0,
          "duration": 1.5,
          "velocity": 100
        },
        {
          "pitch": 38,
          "onset": 31.5,
          "duration": 2.4688,
          "velocity": 100
        },
        {
          "pitch": 37,
          "onset": 34.0,
          "duration": 1.0,
          "velocity": 100
        },
        {
          "pitch": 42,
          "onset": 35.0,
          "duration": 0.5,
          "velocity": 100
        },
        {
          "pitch": 40,
          "onset": 35.5,
          "duration": 0.5,
          "velocity": 100
        },
        {
          "pitch": 38,
          "onset": 36.0,
          "duration": 1.0,
          "velocity": 100
        },
        {
          "pitch": 37,
          "onset": 37.0,
          "duration": 1.0,
          "velocity": 100
        },
        {
          "pitch": 35,
          "onset": 38.0,
          "duration": 1.0,
          "velocity": 100
        },
        {
          "pitch": 33,
          "onset": 39.0,
          "duration": 0.25,
          "velocity": 100
        },
        {
          "pitch": 37,
          "onset": 39.25,
          "duration": 0.25,
          "velocity": 100
        },
        {
          "pitch": 35,
          "onset": 39.5,
          "duration": 0.25,
          "velocity": 100
        },
        {
          "pitch": 33,
          "onset": 39.75,
          "duration": 0.25,
          "velocity": 100
        },
        {
          "pitch": 38,
          "onset": 40.0,
          "duration": 1.0,
          "velocity": 100
        },
        {
          "pitch": 40,
          "onset": 41.0,
          "duration": 1.0,
          "velocity": 100
        },
        {
          "pitch": 33,
          "onset": 42.0,
          "duration": 5.9688,
          "velocity": 100
        },
        {
          "pitch": 33,
          "onset": 48.0,
          "duration": 0.5,
          "velocity": 100
        },
        {
          "pitch": 35,
          "onset": 48.5,
          "duration": 0.5,
          "velocity": 100
        },
        {
          "pitch": 37,
          "onset": 49.0,
          "duration": 1.0,
          "velocity": 100
        },
        {
          "pitch": 38,
          "onset": 50.0,
          "duration": 1.5,
          "velocity": 100
        },
        {
          "pitch": 37,
          "onset": 51.5,
          "duration": 0.25,
          "velocity": 100
        },
        {
          "pitch": 35,
          "onset": 51.75,
          "duration": 0.25,
          "velocity": 100
        },
        {
          "pitch": 37,
          "onset": 52.0,
          "duration": 0.5,
          "velocity": 100
        },
        {
          "pitch": 42,
          "onset": 52.5,
          "duration": 0.5,
          "velocity": 100
        },
        {
          "pitch": 39,
          "onset": 53.0,
          "duration": 0.5,
          "velocity": 100
        },
        {
          "pitch": 35,
          "onset": 53.5,
          "duration": 0.5,
          "velocity": 100
        },
        {
          "pitch": 40,
          "onset": 54.0,
          "duration": 1.5,
          "velocity": 100
        },
        {
          "pitch": 38,
          "onset": 55.5,
          "duration": 2.4688,
          "velocity": 100
        },
        {
          "pitch": 37,
          "onset": 58.0,
          "duration": 1.0,
          "velocity": 100
        },
        {
          "pitch": 42,
          "onset": 59.0,
          "duration": 0.5,
          "velocity": 100
        },
        {
          "pitch": 40,
          "onset": 59.5,
          "duration": 0.5,
          "velocity": 100
        },
        {
          "pitch": 39,
          "onset": 60.0,
          "duration": 1.0,
          "velocity": 100
        },
        {
          "pitch": 41,
          "onset": 61.0,
          "duration": 1.0,
          "velocity": 100
        },
        {
          "pitch": 42,
          "onset": 62.0,
          "duration": 0.5,
          "velocity": 100
        },
        {
          "pitch": 44,
          "onset": 62.5,
          "duration": 0.5,
          "velocity": 100
        },
        {
          "pitch": 45,
          "onset": 63.0,
          "duration": 0.5,
          "velocity": 100
        },
        {
          "pitch": 37,
          "onset": 63.5,
          "duration": 0.5,
          "velocity": 100
        },
        {
          "pitch": 38,
          "onset": 64.0,
          "duration": 0.5,
          "velocity": 100
        },
        {
          "pitch": 35,
          "onset": 64.5,
          "duration": 0.5,
          "velocity": 100
        },
        {
          "pitch": 40,
          "onset": 65.0,
          "duration": 1.0,
          "velocity": 100
        },
        {
          "pitch": 33,
          "onset": 66.0,
          "duration": 7.9688,
          "velocity": 100
        }
      ]
    }
  ],
  "variant": "a"
}