{
  "bwv": 718,
  "category": "organ_chorale",
  "instrument": "organ",
  "form": "",
  "movement": null,
  "tonic": "E",
  "mode": "minor",
  "confidence": "inferred",
  "ticks_per_beat": 480,
  "duration_seconds": 350.0,
  "tempos": [
    {
      "tick": 0,
      "bpm": 55
    },
    {
      "tick": 60960,
      "bpm": 50
    },
    {
      "tick": 61200,
      "bpm": 50
    },
    {
      "tick": 61320,
      "bpm": 45
    },
    {
      "tick": 61440,
      "bpm": 55
    },
    {
      "tick": 116160,
      "bpm": 50
    },
    {
      "tick": 116400,
      "bpm": 40
    },
    {
      "tick": 116760,
      "bpm": 55
    },
    {
      "tick": 141960,
      "bpm": 50
    },
    {
      "tick": 145920,
      "bpm": 50
    }
  ],
  "time_signatures": [
    {
      "tick": 0,
      "numerator": 4,
      "denominator": 4
    }
  ],
  "track_type": "manual",
  "voice_count": 2,
  "total_notes": 1644,
  "tracks": [
    {
      "role": "manual",
      "notes": [
        {
          "pitch": 59,
          "onset": 0.5,
          "duration": 0.25,
          "velocity": 70
        },
        {
          "pitch": 57,
          "onset": 0.75,
          "duration": 0.25,
          "velocity": 70
        },
        {
          "pitch": 55,
          "onset": 1.0,
          "duration": 0.5,
          "velocity": 70
        },
        {
          "pitch": 55,
          "onset": 1.5,
          "duration": 0.25,
          "velocity": 70
        },
        {
          "pitch": 54,
          "onset": 1.75,
          "duration": 0.25,
          "velocity": 70
        },
        {
          "pitch": 52,
          "onset": 2.0,
          "duration": 0.5,
          "velocity": 70
        },
        {
          "pitch": 57,
          "onset": 2.5,
          "duration": 0.25,
          "velocity": 70
        },
        {
          "pitch": 55,
          "onset": 2.75,
          "duration": 0.25,
          "velocity": 70
        },
        {
          "pitch": 54,
          "onset": 3.0,
          "duration": 0.5,
          "velocity": 70
        },
        {
          "pitch": 54,
          "onset": 3.5,
          "duration": 0.25,
          "velocity": 70
        },
        {
          "pitch": 52,
          "onset": 3.75,
          "duration": 0.25,
          "velocity": 70
        },
        {
          "pitch": 51,
          "onset": 4.0,
          "duration": 0.5,
          "velocity": 70
        },
        {
          "pitch": 52,
          "onset": 4.5,
          "duration": 0.25,
          "velocity": 70
        },
        {
          "pitch": 50,
          "onset": 4.75,
          "duration": 0.25,
          "velocity": 70
        },
        {
          "pitch": 48,
          "onset": 5.0,
          "duration": 0.5,
          "velocity": 70
        },
        {
          "pitch": 48,
          "onset": 5.5,
          "duration": 0.25,
          "velocity": 70
        },
        {
          "pitch": 47,
          "onset": 5.75,
          "duration": 0.25,
          "velocity": 70
        },
        {
          "pitch": 45,
          "onset": 6.0,
          "duration": 0.5,
          "velocity": 70
        },
        {
          "pitch": 43,
          "onset": 6.5,
          "duration": 0.25,
          "velocity": 70
        },
        {
          "pitch": 42,
          "onset": 6.75,
          "duration": 0.25,
          "velocity": 70
        },
        {
          "pitch": 47,
          "onset": 7.0,
          "duration": 0.5,
          "velocity": 70
        },
        {
          "pitch": 47,
          "onset": 7.5,
          "duration": 0.5,
          "velocity": 70
        },
        {
          "pitch": 40,
          "onset": 8.0,
          "duration": 0.5,
          "velocity": 70
        },
        {
          "pitch": 59,
          "onset": 8.5,
          "duration": 0.25,
          "velocity": 70
        },
        {
          "pitch": 57,
          "onset": 8.75,
          "duration": 0.25,
          "velocity": 70
        },
        {
          "pitch": 55,
          "onset": 9.0,
          "duration": 0.5,
          "velocity": 70
        },
        {
          "pitch": 55,
          "onset": 9.5,
          "duration": 0.25,
          "velocity": 70
        },
        {
          "pitch": 54,
          "onset": 9.75,
          "duration": 0.25,
          "velocity": 70
        },
        {
          "pitch": 52,
          "onset": 10.0,
          "duration": 0.5,
          "velocity": 70
        },
        {
          "pitch": 71,
          "onset": 10.0,
          "duration": 0.0625,
          "velocity": 100
        },
        {
          "pitch": 69,
          "onset": 10.0625,
          "duration": 0.0625,
          "velocity": 100
        },
        {
          "pitch": 71,
          "onset": 10.125,
          "duration": 0.875,
          "velocity": 100
        },
        {
          "pitch": 55,
          "onset": 10.5,
          "duration": 0.25,
          "velocity": 70
        },
        {
          "pitch": 54,
          "onset": 10.75,
          "duration": 0.25,
          "velocity": 70
        },
        {
          "pitch": 52,
          "onset": 11.0,
          "duration": 0.5,
          "velocity": 70
        },
        {
          "pitch": 74,
          "onset": 11.25,
          "duration": 0.25,
          "velocity": 100
        },
        {
          "pitch": 52,
          "onset": 11.5,
          "duration": 0.25,
          "velocity": 70
        },
        {
          "pitch": 73,
          "onset": 11.5,
          "duration": 0.0625,
          "velocity": 100
        },
        {
          "pitch": 74,
          "onset": 11.5625,
          "duration": 0.0625,
          "velocity": 100
        },
        {
          "pitch": 73,
          "onset": 11.625,
          "duration": 0.125,
          "velocity": 100
        },
        {
          "pitch": 50,
          "onset": 11.75,
          "duration": 0.25,
          "velocity": 70
        },
        {
          "pitch": 71,
          "onset": 11.75,
          "duration": 0.25,
          "velocity": 100
        },
        {
          "pitch": 49,
          "onset": 12.0,
          "duration": 0.5,
          "velocity": 70
        },
        {
          "pitch": 70,
          "onset": 12.0,
          "duration": 0.0625,
          "velocity": 100
        },
        {
          "pitch": 71,
          "onset": 12.0625,
          "duration": 0.0625,
          "velocity": 100
        },
        {
          "pitch": 70,
          "onset": 12.125,
          "duration": 0.875,
          "velocity": 100
        },
        {
          "pitch": 54,
          "onset": 12.5,
          "duration": 0.25,
          "velocity": 70
        },
        {
          "pitch": 52,
          "onset": 12.75,
          "duration": 0.25,
          "velocity": 70
        },
        {
          "pitch": 50,
          "onset": 13.0,
          "duration": 0.5,
          "velocity": 70
        },
        {
          "pitch": 71,
          "onset": 13.0,
          "duration": 0.0625,
          "velocity": 100
        },
        {
          "pitch": 70,
          "onset": 13.0625,
          "duration": 0.0625,
          "velocity": 100
        },
        {
          "pitch": 71,
          "onset": 13.125,
          "duration": 0.625,
          "velocity": 100
        },
        {
          "pitch": 50,
          "onset": 13.5,
          "duration": 0.25,
          "velocity": 70
        },
        {
          "pitch": 49,
          "onset": 13.75,
          "duration": 0.25,
          "velocity": 70
        },
        {
          "pitch": 73,
          "onset": 13.75,
          "duration": 0.25,
          "velocity": 100
        },
        {
          "pitch": 47,
          "onset": 14.0,
          "duration": 0.5,
          "velocity": 70
        },
        {
          "pitch": 74,
          "onset": 14.0,
          "duration": 0.0625,
          "velocity": 100
        },
        {
          "pitch": 73,
          "onset": 14.0625,
          "duration": 0.0625,
          "velocity": 100
        },
        {
          "pitch": 74,
          "onset": 14.125,
          "duration": 0.875,
          "velocity": 100
        },
        {
          "pitch": 59,
          "onset": 14.5,
          "duration": 0.25,
          "velocity": 70
        },
        {
          "pitch": 57,
          "onset": 14.75,
          "duration": 0.25,
          "velocity": 70
        },
        {
          "pitch": 55,
          "onset": 15.0,
          "duration": 0.5,
          "velocity": 70
        },
        {
          "pitch": 76,
          "onset": 15.0,
          "duration": 1.25,
          "velocity": 100
        },
        {
          "pitch": 54,
          "onset": 15.5,
          "duration": 0.25,
          "velocity": 70
        },
        {
          "pitch": 52,
          "onset": 15.75,
          "duration": 0.25,
          "velocity": 70
        },
        {
          "pitch": 54,
          "onset": 16.0,
          "duration": 1.0,
          "velocity": 70
        },
        {
          "pitch": 76,
          "onset": 16.25,
          "duration": 0.25,
          "velocity": 100
        },
        {
          "pitch": 74,
          "onset": 16.5,
          "duration": 0.0625,
          "velocity": 100
        },
        {
          "pitch": 76,
          "onset": 16.5625,
          "duration": 0.0625,
          "velocity": 100
        },
        {
          "pitch": 74,
          "onset": 16.625,
          "duration": 0.125,
          "velocity": 100
        },
        {
          "pitch": 73,
          "onset": 16.75,
          "duration": 0.25,
          "velocity": 100
        },
        {
          "pitch": 78,
          "onset": 17.0,
          "duration": 0.5,
          "velocity": 100
        },
        {
          "pitch": 55,
          "onset": 17.25,
          "duration": 0.25,
          "velocity": 70
        },
        {
          "pitch": 54,
          "onset": 17.5,
          "duration": 0.25,
          "velocity": 70
        },
        {
          "pitch": 70,
          "onset": 17.5,
          "duration": 0.5,
          "velocity": 100
        },
        {
          "pitch": 52,
          "onset": 17.75,
          "duration": 0.25,
          "velocity": 70
        },
        {
          "pitch": 50,
          "onset": 18.0,
          "duration": 0.5,
          "velocity": 70
        },
        {
          "pitch": 71,
          "onset": 18.0,
          "duration": 0.0625,
          "velocity": 100
        },
        {
          "pitch": 70,
          "onset": 18.0625,
          "duration": 0.0625,
          "velocity": 100
        },
        {
          "pitch": 71,
          "onset": 18.125,
          "duration": 0.625,
          "velocity": 100
        },
        {
          "pitch": 49,
          "onset": 18.5,
          "duration": 0.25,
          "velocity": 70
        },
        {
          "pitch": 47,
          "onset": 18.75,
          "duration": 0.25,
          "velocity": 70
        },
        {
          "pitch": 73,
          "onset": 18.75,
          "duration": 0.25,
          "velocity": 100
        },
        {
          "pitch": 54,
          "onset": 19.0,
          "duration": 0.5,
          "velocity": 70
        },
        {
          "pitch": 73,
          "onset": 19.0,
          "duration": 0.0625,
          "velocity": 100
        },
        {
          "pitch": 74,
          "onset": 19.0625,
          "duration": 0.0625,
          "velocity": 100
        },
        {
          "pitch": 73,
          "onset": 19.125,
          "duration": 0.625,
          "velocity": 100
        },
        {
          "pitch": 42,
          "onset": 19.5,
          "duration": 0.5,
          "velocity": 70
        },
        {
          "pitch": 71,
          "onset": 19.75,
          "duration": 0.25,
          "velocity": 100
        },
        {
          "pitch": 47,
          "onset": 20.0,
          "duration": 0.5,
          "velocity": 70
        },
        {
          "pitch": 71,
          "onset": 20.0,
          "duration": 1.0,
          "velocity": 100
        },
        {
          "pitch": 47,
          "onset": 20.5,
          "duration": 0.25,
          "velocity": 70
        },
        {
          "pitch": 49,
          "onset": 20.75,
          "duration": 0.25,
          "velocity": 70
        },
        {
          "pitch": 50,
          "onset": 21.0,
          "duration": 0.5,
          "velocity": 70
        },
        {
          "pitch": 50,
          "onset": 21.5,
          "duration": 0.25,
          "velocity": 70
        },
        {
          "pitch": 52,
          "onset": 21.75,
          "duration": 0.25,
          "velocity": 70
        },
        {
          "pitch": 54,
          "onset": 22.0,
          "duration": 0.5,
          "velocity": 70
        },
        {
          "pitch": 50,
          "onset": 22.5,
          "duration": 0.25,
          "velocity": 70
        },
        {
          "pitch": 52,
          "onset": 22.75,
          "duration": 0.25,
          "velocity": 70
        },
        {
          "pitch": 54,
          "onset": 23.0,
          "duration": 0.5,
          "velocity": 70
        },
        {
          "pitch": 54,
          "onset": 23.5,
          "duration": 0.25,
          "velocity": 70
        },
        {
          "pitch": 55,
          "onset": 23.75,
          "duration": 0.25,
          "velocity": 70
        },
        {
          "pitch": 57,
          "onset": 24.0,
          "duration": 0.5,
          "velocity": 70
        },
        {
          "pitch": 54,
          "onset": 24.5,
          "duration": 0.25,
          "velocity": 70
        },
        {
          "pitch": 55,
          "onset": 24.75,
          "duration": 0.25,
          "velocity": 70
        },
        {
          "pitch": 57,
          "onset": 25.0,
          "duration": 0.5,
          "velocity": 70
        },
        {
          "pitch": 59,
          "onset": 25.5,
          "duration": 0.25,
          "velocity": 70
        },
        {
          "pitch": 60,
          "onset": 25.75,
          "duration": 0.25,
          "velocity": 70
        },
        {
          "pitch": 51,
          "onset": 26.0,
          "duration": 0.5,
          "velocity": 70
        },
        {
          "pitch": 52,
          "onset": 26.5,
          "duration": 0.25,
          "velocity": 70
        },
        {
          "pitch": 45,
          "onset": 26.75,
          "duration": 0.25,
          "velocity": 70
        },
        {
          "pitch": 47,
          "onset": 27.0,
          "duration": 0.5,
          "velocity": 70
        },
        {
          "pitch": 47,
          "onset": 27.5,
          "duration": 0.5,
          "velocity": 70
        },
        {
          "pitch": 71,
          "onset": 27.5,
          "duration": 0.5,
          "velocity": 100
        },
        {
          "pitch": 40,
          "onset": 28.0,
          "duration": 0.5,
          "velocity": 70
        },
        {
          "pitch": 67,
          "onset": 28.0,
          "duration": 1.25,
          "velocity": 100
        },
        {
          "pitch": 55,
          "onset": 28.5,
          "duration": 0.25,
          "velocity": 70
        },
        {
          "pitch": 54,
          "onset": 28.75,
          "duration": 0.25,
          "velocity": 70
        },
        {
          "pitch": 52,
          "onset": 29.0,
          "duration": 0.5,
          "velocity": 70
        },
        {
          "pitch": 52,
          "onset": 29.5,
          "duration": 0.25,
          "velocity": 70
        },
        {
          "pitch": 66,
          "onset": 29.5,
          "duration": 0.25,
          "velocity": 100
        },
        {
          "pitch": 50,
          "onset": 29.75,
          "duration": 0.25,
          "velocity": 70
        },
        {
          "pitch": 67,
          "onset": 29.75,
          "duration": 0.25,
          "velocity": 100
        },
        {
          "pitch": 48,
          "onset": 30.0,
          "duration": 0.5,
          "velocity": 70
        },
        {
          "pitch": 69,
          "onset": 30.0,
          "duration": 0.0625,
          "velocity": 100
        },
        {
          "pitch": 67,
          "onset": 30.0625,
          "duration": 0.0625,
          "velocity": 100
        },
        {
          "pitch": 69,
          "onset": 30.125,
          "duration": 1.125,
          "velocity": 100
        },
        {
          "pitch": 47,
          "onset": 30.5,
          "duration": 0.25,
          "velocity": 70
        },
        {
          "pitch": 45,
          "onset": 30.75,
          "duration": 0.25,
          "velocity": 70
        },
        {
          "pitch": 50,
          "onset": 31.0,
          "duration": 0.5,
          "velocity": 70
        },
        {
          "pitch": 71,
          "onset": 31.25,
          "duration": 0.125,
          "velocity": 100
        },
        {
          "pitch": 69,
          "onset": 31.375,
          "duration": 0.125,
          "velocity": 100
        },
        {
          "pitch": 38,
          "onset": 31.5,
          "duration": 0.5,
          "velocity": 70
        },
        {
          "pitch": 67,
          "onset": 31.5,
          "duration": 0.25,
          "velocity": 100
        },
        {
          "pitch": 69,
          "onset": 31.75,
          "duration": 0.25,
          "velocity": 100
        },
        {
          "pitch": 43,
          "onset": 32.0,
          "duration": 0.5,
          "velocity": 70
        },
        {
          "pitch": 71,
          "onset": 32.0,
          "duration": 0.0625,
          "velocity": 100
        },
        {
          "pitch": 69,
          "onset": 32.0625,
          "duration": 0.0625,
          "velocity": 100
        },
        {
          "pitch": 71,
          "onset": 32.125,
          "duration": 1.125,
          "velocity": 100
        },
        {
          "pitch": 55,
          "onset": 32.5,
          "duration": 0.25,
          "velocity": 70
        },
        {
          "pitch": 57,
          "onset": 32.75,
          "duration": 0.25,
          "velocity": 70
        },
        {
          "pitch": 59,
          "onset": 33.0,
          "duration": 0.5,
          "velocity": 70
        },
        {
          "pitch": 69,
          "onset": 33.25,
          "duration": 0.25,
          "velocity": 100
        },
        {
          "pitch": 61,
          "onset": 33.5,
          "duration": 0.25,
          "velocity": 70
        },
        {
          "pitch": 71,
          "onset": 33.5,
          "duration": 0.25,
          "velocity": 100
        },
        {
          "pitch": 63,
          "onset": 33.75,
          "duration": 0.25,
          "velocity": 70
        },
        {
          "pitch": 66,
          "onset": 33.75,
          "duration": 0.25,
          "velocity": 100
        },
        {
          "pitch": 64,
          "onset": 34.0,
          "duration": 0.5,
          "velocity": 70
        },
        {
          "pitch": 67,
          "onset": 34.0,
          "duration": 1.0,
          "velocity": 100
        },
        {
          "pitch": 52,
          "onset": 34.5,
          "duration": 0.25,
          "velocity": 70
        },
        {
          "pitch": 54,
          "onset": 34.75,
          "duration": 0.25,
          "velocity": 70
        },
        {
          "pitch": 55,
          "onset": 35.0,
          "duration": 0.5,
          "velocity": 70
        },
        {
          "pitch": 75,
          "onset": 35.25,
          "duration": 0.25,
          "velocity": 100
        },
        {
          "pitch": 54,
          "onset": 35.5,
          "duration": 0.25,
          "velocity": 70
        },
        {
          "pitch": 76,
          "onset": 35.5,
          "duration": 0.25,
          "velocity": 100
        },
        {
          "pitch": 56,
          "onset": 35.75,
          "duration": 0.25,
          "velocity": 70
        },
        {
          "pitch": 71,
          "onset": 35.75,
          "duration": 0.25,
          "velocity": 100
        },
        {
          "pitch": 57,
          "onset": 36.0,
          "duration": 0.5,
          "velocity": 70
        },
        {
          "pitch": 72,
          "onset": 36.0,
          "duration": 0.25,
          "velocity": 100
        },
        {
          "pitch": 76,
          "onset": 36.25,
          "duration": 0.25,
          "velocity": 100
        },
        {
          "pitch": 55,
          "onset": 36.5,
          "duration": 0.25,
          "velocity": 70
        },
        {
          "pitch": 78,
          "onset": 36.5,
          "duration": 0.25,
          "velocity": 100
        },
        {
          "pitch": 57,
          "onset": 36.75,
          "duration": 0.25,
          "velocity": 70
        },
        {
          "pitch": 73,
          "onset": 36.75,
          "duration": 0.25,
          "velocity": 100
        },
        {
          "pitch": 59,
          "onset": 37.0,
          "duration": 0.5,
          "velocity": 70
        },
        {
          "pitch": 74,
          "onset": 37.0,
          "duration": 0.25,
          "velocity": 100
        },
        {
          "pitch": 78,
          "onset": 37.25,
          "duration": 0.25,
          "velocity": 100
        },
        {
          "pitch": 57,
          "onset": 37.5,
          "duration": 0.25,
          "velocity": 70
        },
        {
          "pitch": 79,
          "onset": 37.5,
          "duration": 0.25,
          "velocity": 100
        },
        {
          "pitch": 59,
          "onset": 37.75,
          "duration": 0.25,
          "velocity": 70
        },
        {
          "pitch": 75,
          "onset": 37.75,
          "duration": 0.25,
          "velocity": 100
        },
        {
          "pitch": 60,
          "onset": 38.0,
          "duration": 0.5,
          "velocity": 70
        },
        {
          "pitch": 76,
          "onset": 38.0,
          "duration": 0.25,
          "velocity": 100
        },
        {
          "pitch": 79,
          "onset": 38.25,
          "duration": 0.25,
          "velocity": 100
        },
        {
          "pitch": 59,
          "onset": 38.5,
          "duration": 0.25,
          "velocity": 70
        },
        {
          "pitch": 81,
          "onset": 38.5,
          "duration": 0.25,
          "velocity": 100
        },
        {
          "pitch": 61,
          "onset": 38.75,
          "duration": 0.25,
          "velocity": 70
        },
        {
          "pitch": 76,
          "onset": 38.75,
          "duration": 0.25,
          "velocity": 100
        },
        {
          "pitch": 62,
          "onset": 39.0,
          "duration": 0.5,
          "velocity": 70
        },
        {
          "pitch": 78,
          "onset": 39.0,
          "duration": 0.25,
          "velocity": 100
        },
        {
          "pitch": 81,
          "onset": 39.25,
          "duration": 0.25,
          "velocity": 100
        },
        {
          "pitch": 61,
          "onset": 39.5,
          "duration": 0.25,
          "velocity": 70
        },
        {
          "pitch": 83,
          "onset": 39.5,
          "duration": 0.25,
          "velocity": 100
        },
        {
          "pitch": 63,
          "onset": 39.75,
          "duration": 0.25,
          "velocity": 70
        },
        {
          "pitch": 78,
          "onset": 39.75,
          "duration": 0.25,
          "velocity": 100
        },
        {
          "pitch": 64,
          "onset": 40.0,
          "duration": 0.5,
          "velocity": 70
        },
        {
          "pitch": 79,
          "onset": 40.0,
          "duration": 0.5,
          "velocity": 100
        },
        {
          "pitch": 60,
          "onset": 40.5,
          "duration": 0.25,
          "velocity": 70
        },
        {
          "pitch": 78,
          "onset": 40.5,
          "duration": 0.125,
          "velocity": 100
        },
        {
          "pitch": 79,
          "onset": 40.625,
          "duration": 0.125,
          "velocity": 100
        },
        {
          "pitch": 57,
          "onset": 40.75,
          "duration": 0.25,
          "velocity": 70
        },
        {
          "pitch": 81,
          "onset": 40.75,
          "duration": 0.25,
          "velocity": 100
        },
        {
          "pitch": 59,
          "onset": 41.0,
          "duration": 0.5,
          "velocity": 70
        },
        {
          "pitch": 75,
          "onset": 41.0,
          "duration": 0.0625,
          "velocity": 100
        },
        {
          "pitch": 76,
          "onset": 41.0625,
          "duration": 0.0625,
          "velocity": 100
        },
        {
          "pitch": 75,
          "onset": 41.125,
          "duration": 0.625,
          "velocity": 100
        },
        {
          "pitch": 47,
          "onset": 41.5,
          "duration": 0.5,
          "velocity": 70
        },
        {
          "pitch": 76,
          "onset": 41.75,
          "duration": 0.25,
          "velocity": 100
        },
        {
          "pitch": 52,
          "onset": 42.0,
          "duration": 0.5,
          "velocity": 70
        },
        {
          "pitch": 76,
          "onset": 42.0,
          "duration": 1.0,
          "velocity": 100
        },
        {
          "pitch": 64,
          "onset": 42.5,
          "duration": 0.25,
          "velocity": 70
        },
        {
          "pitch": 62,
          "onset": 42.75,
          "duration": 0.25,
          "velocity": 70
        },
        {
          "pitch": 60,
          "onset": 43.0,
          "duration": 0.5,
          "velocity": 70
        },
        {
          "pitch": 60,
          "onset": 43.5,
          "duration": 0.25,
          "velocity": 70
        },
        {
          "pitch": 59,
          "onset": 43.75,
          "duration": 0.25,
          "velocity": 70
        },
        {
          "pitch": 57,
          "onset": 44.0,
          "duration": 0.5,
          "velocity": 70
        },
        {
          "pitch": 62,
          "onset": 44.5,
          "duration": 0.25,
          "velocity": 70
        },
        {
          "pitch": 60,
          "onset": 44.75,
          "duration": 0.25,
          "velocity": 70
        },
        {
          "pitch": 59,
          "onset": 45.0,
          "duration": 0.5,
          "velocity": 70
        },
        {
          "pitch": 59,
          "onset": 45.5,
          "duration": 0.25,
          "velocity": 70
        },
        {
          "pitch": 57,
          "onset": 45.75,
          "duration": 0.25,
          "velocity": 70
        },
        {
          "pitch": 55,
          "onset": 46.0,
          "duration": 0.5,
          "velocity": 70
        },
        {
          "pitch": 60,
          "onset": 46.5,
          "duration": 0.25,
          "velocity": 70
        },
        {
          "pitch": 59,
          "onset": 46.75,
          "duration": 0.25,
          "velocity": 70
        },
        {
          "pitch": 57,
          "onset": 47.0,
          "duration": 0.5,
          "velocity": 70
        },
        {
          "pitch": 57,
          "onset": 47.5,
          "duration": 0.25,
          "velocity": 70
        },
        {
          "pitch": 55,
          "onset": 47.75,
          "duration": 0.25,
          "velocity": 70
        },
        {
          "pitch": 54,
          "onset": 48.0,
          "duration": 0.5,
          "velocity": 70
        },
        {
          "pitch": 55,
          "onset": 48.5,
          "duration": 0.25,
          "velocity": 70
        },
        {
          "pitch": 57,
          "onset": 48.75,
          "duration": 0.25,
          "velocity": 70
        },
        {
          "pitch": 59,
          "onset": 49.0,
          "duration": 0.5,
          "velocity": 70
        },
        {
          "pitch": 47,
          "onset": 49.5,
          "duration": 0.5,
          "velocity": 70
        },
        {
          "pitch": 40,
          "onset": 50.0,
          "duration": 1.0,
          "velocity": 70
        },
        {
          "pitch": 59,
          "onset": 50.5,
          "duration": 0.5,
          "velocity": 70
        },
        {
          "pitch": 58,
          "onset": 51.0,
          "duration": 0.5,
          "velocity": 70
        },
        {
          "pitch": 52,
          "onset": 51.5,
          "duration": 0.5,
          "velocity": 70
        },
        {
          "pitch": 59,
          "onset": 51.5,
          "duration": 0.5,
          "velocity": 70
        },
        {
          "pitch": 54,
          "onset": 52.0,
          "duration": 0.5,
          "velocity": 70
        },
        {
          "pitch": 62,
          "onset": 52.0,
          "duration": 0.5,
          "velocity": 70
        },
        {
          "pitch": 56,
          "onset": 52.5,
          "duration": 0.25,
          "velocity": 70
        },
        {
          "pitch": 64,
          "onset": 52.5,
          "duration": 0.5,
          "velocity": 70
        },
        {
          "pitch": 58,
          "onset": 52.75,
          "duration": 0.25,
          "velocity": 70
        },
        {
          "pitch": 59,
          "onset": 53.0,
          "duration": 0.5,
          "velocity": 70
        },
        {
          "pitch": 62,
          "onset": 53.0,
          "duration": 0.5,
          "velocity": 70
        },
        {
          "pitch": 57,
          "onset": 53.5,
          "duration": 1.0,
          "velocity": 70
        },
        {
          "pitch": 61,
          "onset": 53.5,
          "duration": 0.5,
          "velocity": 70
        },
        {
          "pitch": 59,
          "onset": 54.0,
          "duration": 0.75,
          "velocity": 70
        },
        {
          "pitch": 55,
          "onset": 54.5,
          "duration": 0.75,
          "velocity": 70
        },
        {
          "pitch": 59,
          "onset": 54.75,
          "duration": 0.25,
          "velocity": 70
        },
        {
          "pitch": 57,
          "onset": 55.0,
          "duration": 0.0625,
          "velocity": 70
        },
        {
          "pitch": 59,
          "onset": 55.0625,
          "duration": 0.0625,
          "velocity": 70
        },
        {
          "pitch": 57,
          "onset": 55.125,
          "duration": 0.125,
          "velocity": 70
        },
        {
          "pitch": 55,
          "onset": 55.25,
          "duration": 0.25,
          "velocity": 70
        },
        {
          "pitch": 54,
          "onset": 55.5,
          "duration": 0.75,
          "velocity": 70
        },
        {
          "pitch": 57,
          "onset": 55.5,
          "duration": 0.25,
          "velocity": 70
        },
        {
          "pitch": 59,
          "onset": 55.75,
          "duration": 0.25,
          "velocity": 70
        },
        {
          "pitch": 55,
          "onset": 56.0,
          "duration": 0.75,
          "velocity": 70
        },
        {
          "pitch": 47,
          "onset": 56.25,
          "duration": 0.25,
          "velocity": 70
        },
        {
          "pitch": 52,
          "onset": 56.5,
          "duration": 1.0,
          "velocity": 70
        },
        {
          "pitch": 55,
          "onset": 56.75,
          "duration": 0.25,
          "velocity": 70
        },
        {
          "pitch": 54,
          "onset": 57.0,
          "duration": 0.5,
          "velocity": 70
        },
        {
          "pitch": 51,
          "onset": 57.5,
          "duration": 0.5,
          "velocity": 70
        },
        {
          "pitch": 55,
          "onset": 57.5,
          "duration": 0.25,
          "velocity": 70
        },
        {
          "pitch": 57,
          "onset": 57.75,
          "duration": 0.25,
          "velocity": 70
        },
        {
          "pitch": 52,
          "onset": 58.0,
          "duration": 0.75,
          "velocity": 70
        },
        {
          "pitch": 55,
          "onset": 58.0,
          "duration": 0.5,
          "velocity": 70
        },
        {
          "pitch": 71,
          "onset": 58.0,
          "duration": 0.0625,
          "velocity": 100
        },
        {
          "pitch": 69,
          "onset": 58.0625,
          "duration": 0.0625,
          "velocity": 100
        },
        {
          "pitch": 71,
          "onset": 58.125,
          "duration": 1.125,
          "velocity": 100
        },
        {
          "pitch": 52,
          "onset": 58.75,
          "duration": 0.25,
          "velocity": 70
        },
        {
          "pitch": 64,
          "onset": 59.0,
          "duration": 1.9688,
          "velocity": 70
        },
        {
          "pitch": 67,
          "onset": 59.0,
          "duration": 1.0,
          "velocity": 70
        },
        {
          "pitch": 74,
          "onset": 59.25,
          "duration": 0.25,
          "velocity": 100
        },
        {
          "pitch": 73,
          "onset": 59.5,
          "duration": 0.25,
          "velocity": 100
        },
        {
          "pitch": 74,
          "onset": 59.75,
          "duration": 0.125,
          "velocity": 100
        },
        {
          "pitch": 76,
          "onset": 59.875,
          "duration": 0.125,
          "velocity": 100
        },
        {
          "pitch": 66,
          "onset": 60.0,
          "duration": 1.0,
          "velocity": 70
        },
        {
          "pitch": 70,
          "onset": 60.0,
          "duration": 0.0625,
          "velocity": 100
        },
        {
          "pitch": 71,
          "onset": 60.0625,
          "duration": 0.0625,
          "velocity": 100
        },
        {
          "pitch": 70,
          "onset": 60.125,
          "duration": 0.375,
          "velocity": 100
        },
        {
          "pitch": 68,
          "onset": 60.5,
          "duration": 0.25,
          "velocity": 100
        },
        {
          "pitch": 66,
          "onset": 60.75,
          "duration": 0.25,
          "velocity": 100
        },
        {
          "pitch": 62,
          "onset": 61.0,
          "duration": 0.5,
          "velocity": 70
        },
        {
          "pitch": 78,
          "onset": 61.0,
          "duration": 0.5,
          "velocity": 100
        },
        {
          "pitch": 71,
          "onset": 61.25,
          "duration": 0.5,
          "velocity": 70
        },
        {
          "pitch": 61,
          "onset": 61.5,
          "duration": 0.5,
          "velocity": 70
        },
        {
          "pitch": 76,
          "onset": 61.5,
          "duration": 0.5,
          "velocity": 100
        },
        {
          "pitch": 70,
          "onset": 61.75,
          "duration": 0.25,
          "velocity": 70
        },
        {
          "pitch": 59,
          "onset": 62.0,
          "duration": 0.5,
          "velocity": 70
        },
        {
          "pitch": 71,
          "onset": 62.0,
          "duration": 1.0,
          "velocity": 70
        },
        {
          "pitch": 74,
          "onset": 62.0,
          "duration": 0.0625,
          "velocity": 100
        },
        {
          "pitch": 76,
          "onset": 62.0625,
          "duration": 0.0625,
          "velocity": 100
        },
        {
          "pitch": 74,
          "onset": 62.125,
          "duration": 0.375,
          "velocity": 100
        },
        {
          "pitch": 57,
          "onset": 62.5,
          "duration": 0.5,
          "velocity": 70
        },
        {
          "pitch": 73,
          "onset": 62.5,
          "duration": 0.25,
          "velocity": 100
        },
        {
          "pitch": 71,
          "onset": 62.75,
          "duration": 0.25,
          "velocity": 100
        },
        {
          "pitch": 55,
          "onset": 63.0,
          "duration": 0.5,
          "velocity": 70
        },
        {
          "pitch": 83,
          "onset": 63.0,
          "duration": 0.5,
          "velocity": 100
        },
        {
          "pitch": 64,
          "onset": 63.25,
          "duration": 0.5,
          "velocity": 70
        },
        {
          "pitch": 54,
          "onset": 63.5,
          "duration": 0.5,
          "velocity": 70
        },
        {
          "pitch": 81,
          "onset": 63.5,
          "duration": 0.5,
          "velocity": 100
        },
        {
          "pitch": 63,
          "onset": 63.75,
          "duration": 0.25,
          "velocity": 70
        },
        {
          "pitch": 64,
          "onset": 64.0,
          "duration": 1.0,
          "velocity": 70
        },
        {
          "pitch": 79,
          "onset": 64.0,
          "duration": 0.0625,
          "velocity": 100
        },
        {
          "pitch": 81,
          "onset": 64.0625,
          "duration": 0.0625,
          "velocity": 100
        },
        {
          "pitch": 79,
          "onset": 64.125,
          "duration": 0.625,
          "velocity": 100
        },
        {
          "pitch": 52,
          "onset": 64.5,
          "duration": 0.5,
          "velocity": 70
        },
        {
          "pitch": 81,
          "onset": 64.75,
          "duration": 0.25,
          "velocity": 100
        },
        {
          "pitch": 79,
          "onset": 65.0,
          "duration": 0.25,
          "velocity": 100
        },
        {
          "pitch": 78,
          "onset": 65.25,
          "duration": 0.25,
          "velocity": 100
        },
        {
          "pitch": 76,
          "onset": 65.5,
          "duration": 0.25,
          "velocity": 100
        },
        {
          "pitch": 74,
          "onset": 65.75,
          "duration": 0.25,
          "velocity": 100
        },
        {
          "pitch": 73,
          "onset": 66.0,
          "duration": 0.25,
          "velocity": 100
        },
        {
          "pitch": 71,
          "onset": 66.25,
          "duration": 0.25,
          "velocity": 100
        },
        {
          "pitch": 70,
          "onset": 66.5,
          "duration": 0.25,
          "velocity": 100
        },
        {
          "pitch": 71,
          "onset": 66.75,
          "duration": 0.125,
          "velocity": 100
        },
        {
          "pitch": 73,
          "onset": 66.875,
          "duration": 0.125,
          "velocity": 100
        },
        {
          "pitch": 66,
          "onset": 67.0,
          "duration": 0.75,
          "velocity": 100
        },
        {
          "pitch": 52,
          "onset": 67.5,
          "duration": 0.5,
          "velocity": 70
        },
        {
          "pitch": 58,
          "onset": 67.5,
          "duration": 0.5,
          "velocity": 70
        },
        {
          "pitch": 73,
          "onset": 67.75,
          "duration": 0.25,
          "velocity": 100
        },
        {
          "pitch": 50,
          "onset": 68.0,
          "duration": 0.5,
          "velocity": 70
        },
        {
          "pitch": 59,
          "onset": 68.0,
          "duration": 1.5,
          "velocity": 70
        },
        {
          "pitch": 78,
          "onset": 68.0,
          "duration": 0.25,
          "velocity": 100
        },
        {
          "pitch": 71,
          "onset": 68.25,
          "duration": 0.25,
          "velocity": 100
        },
        {
          "pitch": 52,
          "onset": 68.5,
          "duration": 0.5,
          "velocity": 70
        },
        {
          "pitch": 76,
          "onset": 68.5,
          "duration": 0.25,
          "velocity": 100
        },
        {
          "pitch": 74,
          "onset": 68.75,
          "duration": 0.25,
          "velocity": 100
        },
        {
          "pitch": 54,
          "onset": 69.0,
          "duration": 1.0,
          "velocity": 70
        },
        {
          "pitch": 73,
          "onset": 69.0,
          "duration": 0.0625,
          "velocity": 100
        },
        {
          "pitch": 74,
          "onset": 69.0625,
          "duration": 0.0625,
          "velocity": 100
        },
        {
          "pitch": 73,
          "onset": 69.125,
          "duration": 0.625,
          "velocity": 100
        },
        {
          "pitch": 71,
          "onset": 69.75,
          "duration": 0.25,
          "velocity": 100
        },
        {
          "pitch": 59,
          "onset": 70.0,
          "duration": 1.0,
          "velocity": 70
        },
        {
          "pitch": 71,
          "onset": 70.0,
          "duration": 1.0,
          "velocity": 100
        },
        {
          "pitch": 47,
          "onset": 70.5,
          "duration": 0.25,
          "velocity": 70
        },
        {
          "pitch": 49,
          "onset": 70.75,
          "duration": 0.25,
          "velocity": 70
        },
        {
          "pitch": 51,
          "onset": 71.0,
          "duration": 0.5,
          "velocity": 70
        },
        {
          "pitch": 59,
          "onset": 71.25,
          "duration": 0.25,
          "velocity": 70
        },
        {
          "pitch": 47,
          "onset": 71.5,
          "duration": 0.5,
          "velocity": 70
        },
        {
          "pitch": 57,
          "onset": 71.5,
          "duration": 0.25,
          "velocity": 70
        },
        {
          "pitch": 59,
          "onset": 71.75,
          "duration": 0.25,
          "velocity": 70
        },
        {
          "pitch": 55,
          "onset": 72.0,
          "duration": 1.0,
          "velocity": 70
        },
        {
          "pitch": 52,
          "onset": 72.25,
          "duration": 0.25,
          "velocity": 70
        },
        {
          "pitch": 50,
          "onset": 72.5,
          "duration": 0.25,
          "velocity": 70
        },
        {
          "pitch": 52,
          "onset": 72.75,
          "duration": 0.25,
          "velocity": 70
        },
        {
          "pitch": 49,
          "onset": 73.0,
          "duration": 0.25,
          "velocity": 70
        },
        {
          "pitch": 57,
          "onset": 73.0,
          "duration": 1.0,
          "velocity": 70
        },
        {
          "pitch": 54,
          "onset": 73.25,
          "duration": 0.25,
          "velocity": 70
        },
        {
          "pitch": 52,
          "onset": 73.5,
          "duration": 0.25,
          "velocity": 70
        },
        {
          "pitch": 54,
          "onset": 73.75,
          "duration": 0.25,
          "velocity": 70
        },
        {
          "pitch": 51,
          "onset": 74.0,
          "duration": 0.25,
          "velocity": 70
        },
        {
          "pitch": 59,
          "onset": 74.0,
          "duration": 1.5,
          "velocity": 70
        },
        {
          "pitch": 55,
          "onset": 74.25,
          "duration": 0.25,
          "velocity": 70
        },
        {
          "pitch": 54,
          "onset": 74.5,
          "duration": 0.25,
          "velocity": 70
        },
        {
          "pitch": 55,
          "onset": 74.75,
          "duration": 0.25,
          "velocity": 70
        },
        {
          "pitch": 49,
          "onset": 75.0,
          "duration": 0.25,
          "velocity": 70
        },
        {
          "pitch": 54,
          "onset": 75.25,
          "duration": 0.25,
          "velocity": 70
        },
        {
          "pitch": 52,
          "onset": 75.5,
          "duration": 0.25,
          "velocity": 70
        },
        {
          "pitch": 57,
          "onset": 75.5,
          "duration": 1.0,
          "velocity": 70
        },
        {
          "pitch": 54,
          "onset": 75.75,
          "duration": 0.25,
          "velocity": 70
        },
        {
          "pitch": 47,
          "onset": 76.0,
          "duration": 0.25,
          "velocity": 70
        },
        {
          "pitch": 52,
          "onset": 76.25,
          "duration": 0.25,
          "velocity": 70
        },
        {
          "pitch": 51,
          "onset": 76.5,
          "duration": 0.25,
          "velocity": 70
        },
        {
          "pitch": 55,
          "onset": 76.5,
          "duration": 0.5,
          "velocity": 70
        },
        {
          "pitch": 52,
          "onset": 76.75,
          "duration": 0.75,
          "velocity": 70
        },
        {
          "pitch": 72,
          "onset": 77.25,
          "duration": 0.25,
          "velocity": 100
        },
        {
          "pitch": 51,
          "onset": 77.5,
          "duration": 0.5,
          "velocity": 70
        },
        {
          "pitch": 71,
          "onset": 77.5,
          "duration": 0.25,
          "velocity": 100
        },
        {
          "pitch": 72,
          "onset": 77.75,
          "duration": 0.125,
          "velocity": 100
        },
        {
          "pitch": 69,
          "onset": 77.875,
          "duration": 0.125,
          "velocity": 100
        },
        {
          "pitch": 52,
          "onset": 78.0,
          "duration": 0.5,
          "velocity": 70
        },
        {
          "pitch": 67,
          "onset": 78.0,
          "duration": 1.5,
          "velocity": 100
        },
        {
          "pitch": 55,
          "onset": 78.25,
          "duration": 0.25,
          "velocity": 70
        },
        {
          "pitch": 50,
          "onset": 78.5,
          "duration": 0.5,
          "velocity": 70
        },
        {
          "pitch": 54,
          "onset": 78.5,
          "duration": 0.25,
          "velocity": 70
        },
        {
          "pitch": 55,
          "onset": 78.75,
          "duration": 0.25,
          "velocity": 70
        },
        {
          "pitch": 48,
          "onset": 79.0,
          "duration": 0.5,
          "velocity": 70
        },
        {
          "pitch": 52,
          "onset": 79.0,
          "duration": 0.25,
          "velocity": 70
        },
        {
          "pitch": 54,
          "onset": 79.25,
          "duration": 0.25,
          "velocity": 70
        },
        {
          "pitch": 47,
          "onset": 79.5,
          "duration": 0.5,
          "velocity": 70
        },
        {
          "pitch": 50,
          "onset": 79.5,
          "duration": 0.25,
          "velocity": 70
        },
        {
          "pitch": 67,
          "onset": 79.5,
          "duration": 1.9688,
          "velocity": 100
        },
        {
          "pitch": 52,
          "onset": 79.75,
          "duration": 0.25,
          "velocity": 70
        },
        {
          "pitch": 45,
          "onset": 80.0,
          "duration": 0.5,
          "velocity": 70
        },
        {
          "pitch": 48,
          "onset": 80.0,
          "duration": 0.25,
          "velocity": 70
        },
        {
          "pitch": 69,
          "onset": 80.0,
          "duration": 1.5,
          "velocity": 100
        },
        {
          "pitch": 57,
          "onset": 80.25,
          "duration": 0.25,
          "velocity": 70
        },
        {
          "pitch": 55,
          "onset": 80.5,
          "duration": 0.25,
          "velocity": 70
        },
        {
          "pitch": 57,
          "onset": 80.75,
          "duration": 0.25,
          "velocity": 70
        },
        {
          "pitch": 50,
          "onset": 81.0,
          "duration": 0.5,
          "velocity": 70
        },
        {
          "pitch": 54,
          "onset": 81.0,
          "duration": 0.25,
          "velocity": 70
        },
        {
          "pitch": 55,
          "onset": 81.25,
          "duration": 0.25,
          "velocity": 70
        },
        {
          "pitch": 48,
          "onset": 81.5,
          "duration": 0.5,
          "velocity": 70
        },
        {
          "pitch": 52,
          "onset": 81.5,
          "duration": 0.25,
          "velocity": 70
        },
        {
          "pitch": 66,
          "onset": 81.5,
          "duration": 0.5,
          "velocity": 100
        },
        {
          "pitch": 69,
          "onset": 81.5,
          "duration": 0.5,
          "velocity": 100
        },
        {
          "pitch": 54,
          "onset": 81.75,
          "duration": 0.25,
          "velocity": 70
        },
        {
          "pitch": 47,
          "onset": 82.0,
          "duration": 0.5,
          "velocity": 70
        },
        {
          "pitch": 50,
          "onset": 82.0,
          "duration": 0.25,
          "velocity": 70
        },
        {
          "pitch": 67,
          "onset": 82.0,
          "duration": 1.0,
          "velocity": 100
        },
        {
          "pitch": 71,
          "onset": 82.0,
          "duration": 1.1562,
          "velocity": 100
        },
        {
          "pitch": 52,
          "onset": 82.25,
          "duration": 0.25,
          "velocity": 70
        },
        {
          "pitch": 45,
          "onset": 82.5,
          "duration": 0.5,
          "velocity": 70
        },
        {
          "pitch": 48,
          "onset": 82.5,
          "duration": 0.25,
          "velocity": 70
        },
        {
          "pitch": 50,
          "onset": 82.75,
          "duration": 0.25,
          "velocity": 70
        },
        {
          "pitch": 43,
          "onset": 83.0,
          "duration": 0.5,
          "velocity": 70
        },
        {
          "pitch": 47,
          "onset": 83.0,
          "duration": 0.5,
          "velocity": 70
        },
        {
          "pitch": 72,
          "onset": 83.1562,
          "duration": 0.1562,
          "velocity": 100
        },
        {
          "pitch": 71,
          "onset": 83.3438,
          "duration": 0.1562,
          "velocity": 100
        },
        {
          "pitch": 42,
          "onset": 83.5,
          "duration": 0.5,
          "velocity": 70
        },
        {
          "pitch": 51,
          "onset": 83.5,
          "duration": 0.5,
          "velocity": 70
        },
        {
          "pitch": 69,
          "onset": 83.5,
          "duration": 0.1562,
          "velocity": 100
        },
        {
          "pitch": 71,
          "onset": 83.6562,
          "duration": 0.1562,
          "velocity": 100
        },
        {
          "pitch": 69,
          "onset": 83.8438,
          "duration": 0.1562,
          "velocity": 100
        },
        {
          "pitch": 40,
          "onset": 84.0,
          "duration": 0.5,
          "velocity": 70
        },
        {
          "pitch": 52,
          "onset": 84.0,
          "duration": 1.5,
          "velocity": 70
        },
        {
          "pitch": 67,
          "onset": 84.0,
          "duration": 0.0625,
          "velocity": 100
        },
        {
          "pitch": 69,
          "onset": 84.0625,
          "duration": 0.0625,
          "velocity": 100
        },
        {
          "pitch": 67,
          "onset": 84.125,
          "duration": 0.625,
          "velocity": 100
        },
        {
          "pitch": 43,
          "onset": 84.5,
          "duration": 0.5,
          "velocity": 70
        },
        {
          "pitch": 64,
          "onset": 84.75,
          "duration": 0.25,
          "velocity": 100
        },
        {
          "pitch": 45,
          "onset": 85.0,
          "duration": 0.5,
          "velocity": 70
        },
        {
          "pitch": 72,
          "onset": 85.0,
          "duration": 0.1562,
          "velocity": 100
        },
        {
          "pitch": 74,
          "onset": 85.1562,
          "duration": 0.1562,
          "velocity": 100
        },
        {
          "pitch": 72,
          "onset": 85.3438,
          "duration": 0.1562,
          "velocity": 100
        },
        {
          "pitch": 43,
          "onset": 85.5,
          "duration": 0.5,
          "velocity": 70
        },
        {
          "pitch": 52,
          "onset": 85.5,
          "duration": 0.5,
          "velocity": 70
        },
        {
          "pitch": 71,
          "onset": 85.5,
          "duration": 0.1562,
          "velocity": 100
        },
        {
          "pitch": 72,
          "onset": 85.6562,
          "duration": 0.1562,
          "velocity": 100
        },
        {
          "pitch": 71,
          "onset": 85.8438,
          "duration": 0.1562,
          "velocity": 100
        },
        {
          "pitch": 42,
          "onset": 86.0,
          "duration": 0.5,
          "velocity": 70
        },
        {
          "pitch": 51,
          "onset": 86.0,
          "duration": 0.5,
          "velocity": 70
        },
        {
          "pitch": 69,
          "onset": 86.0,
          "duration": 0.1562,
          "velocity": 100
        },
        {
          "pitch": 71,
          "onset": 86.1562,
          "duration": 0.1562,
          "velocity": 100
        },
        {
          "pitch": 69,
          "onset": 86.3438,
          "duration": 0.1562,
          "velocity": 100
        },
        {
          "pitch": 40,
          "onset": 86.5,
          "duration": 0.5,
          "velocity": 70
        },
        {
          "pitch": 52,
          "onset": 86.5,
          "duration": 1.0,
          "velocity": 70
        },
        {
          "pitch": 67,
          "onset": 86.5,
          "duration": 0.1562,
          "velocity": 100
        },
        {
          "pitch": 69,
          "onset": 86.6562,
          "duration": 0.1562,
          "velocity": 100
        },
        {
          "pitch": 66,
          "onset": 86.8438,
          "duration": 0.1562,
          "velocity": 100
        },
        {
          "pitch": 47,
          "onset": 87.0,
          "duration": 1.0,
          "velocity": 70
        },
        {
          "pitch": 67,
          "onset": 87.0,
          "duration": 0.5,
          "velocity": 100
        },
        {
          "pitch": 51,
          "onset": 87.5,
          "duration": 0.5,
          "velocity": 70
        },
        {
          "pitch": 66,
          "onset": 87.5,
          "duration": 0.0625,
          "velocity": 100
        },
        {
          "pitch": 67,
          "onset": 87.5625,
          "duration": 0.0625,
          "velocity": 100
        },
        {
          "pitch": 66,
          "onset": 87.625,
          "duration": 0.125,
          "velocity": 100
        },
        {
          "pitch": 64,
          "onset": 87.75,
          "duration": 0.25,
          "velocity": 100
        },
        {
          "pitch": 52,
          "onset": 88.0,
          "duration": 0.5,
          "velocity": 70
        },
        {
          "pitch": 64,
          "onset": 88.0,
          "duration": 1.9688,
          "velocity": 100
        },
        {
          "pitch": 59,
          "onset": 88.25,
          "duration": 0.25,
          "velocity": 70
        },
        {
          "pitch": 64,
          "onset": 88.5,
          "duration": 0.25,
          "velocity": 70
        },
        {
          "pitch": 62,
          "onset": 88.75,
          "duration": 0.25,
          "velocity": 70
        },
        {
          "pitch": 60,
          "onset": 89.0,
          "duration": 0.25,
          "velocity": 70
        },
        {
          "pitch": 59,
          "onset": 89.25,
          "duration": 0.25,
          "velocity": 70
        },
        {
          "pitch": 57,
          "onset": 89.5,
          "duration": 0.25,
          "velocity": 70
        },
        {
          "pitch": 55,
          "onset": 89.75,
          "duration": 0.25,
          "velocity": 70
        },
        {
          "pitch": 54,
          "onset": 90.0,
          "duration": 0.25,
          "velocity": 70
        },
        {
          "pitch": 52,
          "onset": 90.25,
          "duration": 0.25,
          "velocity": 70
        },
        {
          "pitch": 51,
          "onset": 90.5,
          "duration": 0.25,
          "velocity": 70
        },
        {
          "pitch": 52,
          "onset": 90.75,
          "duration": 0.25,
          "velocity": 70
        },
        {
          "pitch": 45,
          "onset": 91.0,
          "duration": 0.5,
          "velocity": 70
        },
        {
          "pitch": 47,
          "onset": 91.5,
          "duration": 0.5,
          "velocity": 70
        },
        {
          "pitch": 40,
          "onset": 92.0,
          "duration": 0.5,
          "velocity": 70
        },
        {
          "pitch": 52,
          "onset": 92.5,
          "duration": 0.0625,
          "velocity": 70
        },
        {
          "pitch": 50,
          "onset": 92.5625,
          "duration": 0.0625,
          "velocity": 70
        },
        {
          "pitch": 52,
          "onset": 92.625,
          "duration": 0.125,
          "velocity": 70
        },
        {
          "pitch": 54,
          "onset": 92.75,
          "duration": 0.25,
          "velocity": 70
        },
        {
          "pitch": 55,
          "onset": 93.0,
          "duration": 0.0625,
          "velocity": 70
        },
        {
          "pitch": 57,
          "onset": 93.0625,
          "duration": 0.0625,
          "velocity": 70
        },
        {
          "pitch": 55,
          "onset": 93.125,
          "duration": 0.625,
          "velocity": 70
        },
        {
          "pitch": 54,
          "onset": 93.75,
          "duration": 0.125,
          "velocity": 70
        },
        {
          "pitch": 55,
          "onset": 93.875,
          "duration": 0.125,
          "velocity": 70
        },
        {
          "pitch": 57,
          "onset": 94.0,
          "duration": 1.0,
          "velocity": 70
        },
        {
          "pitch": 45,
          "onset": 94.5,
          "duration": 0.25,
          "velocity": 70
        },
        {
          "pitch": 47,
          "onset": 94.75,
          "duration": 0.25,
          "velocity": 70
        },
        {
          "pitch": 48,
          "onset": 95.0,
          "duration": 0.5,
          "velocity": 70
        },
        {
          "pitch": 52,
          "onset": 95.0,
          "duration": 1.0,
          "velocity": 70
        },
        {
          "pitch": 47,
          "onset": 95.5,
          "duration": 0.25,
          "velocity": 70
        },
        {
          "pitch": 45,
          "onset": 95.75,
          "duration": 0.25,
          "velocity": 70
        },
        {
          "pitch": 52,
          "onset": 96.0,
          "duration": 0.25,
          "velocity": 70
        },
        {
          "pitch": 55,
          "onset": 96.0,
          "duration": 0.25,
          "velocity": 70
        },
        {
          "pitch": 52,
          "onset": 96.25,
          "duration": 0.25,
          "velocity": 70
        },
        {
          "pitch": 40,
          "onset": 96.5,
          "duration": 0.5,
          "velocity": 70
        },
        {
          "pitch": 60,
          "onset": 96.5,
          "duration": 0.25,
          "velocity": 70
        },
        {
          "pitch": 59,
          "onset": 96.75,
          "duration": 0.25,
          "velocity": 70
        },
        {
          "pitch": 42,
          "onset": 97.0,
          "duration": 0.5,
          "velocity": 70
        },
        {
          "pitch": 57,
          "onset": 97.0,
          "duration": 0.25,
          "velocity": 70
        },
        {
          "pitch": 50,
          "onset": 97.25,
          "duration": 0.25,
          "velocity": 70
        },
        {
          "pitch": 38,
          "onset": 97.5,
          "duration": 0.5,
          "velocity": 70
        },
        {
          "pitch": 62,
          "onset": 97.5,
          "duration": 0.25,
          "velocity": 70
        },
        {
          "pitch": 60,
          "onset": 97.75,
          "duration": 0.25,
          "velocity": 70
        },
        {
          "pitch": 43,
          "onset": 98.0,
          "duration": 0.5,
          "velocity": 70
        },
        {
          "pitch": 59,
          "onset": 98.0,
          "duration": 0.25,
          "velocity": 70
        },
        {
          "pitch": 52,
          "onset": 98.25,
          "duration": 0.25,
          "velocity": 70
        },
        {
          "pitch": 40,
          "onset": 98.5,
          "duration": 0.5,
          "velocity": 70
        },
        {
          "pitch": 64,
          "onset": 98.5,
          "duration": 0.25,
          "velocity": 70
        },
        {
          "pitch": 62,
          "onset": 98.75,
          "duration": 0.25,
          "velocity": 70
        },
        {
          "pitch": 45,
          "onset": 99.0,
          "duration": 0.5,
          "velocity": 70
        },
        {
          "pitch": 61,
          "onset": 99.0,
          "duration": 0.25,
          "velocity": 70
        },
        {
          "pitch": 54,
          "onset": 99.25,
          "duration": 0.25,
          "velocity": 70
        },
        {
          "pitch": 42,
          "onset": 99.5,
          "duration": 0.5,
          "velocity": 70
        },
        {
          "pitch": 66,
          "onset": 99.5,
          "duration": 0.25,
          "velocity": 70
        },
        {
          "pitch": 64,
          "onset": 99.75,
          "duration": 0.25,
          "velocity": 70
        },
        {
          "pitch": 47,
          "onset": 100.0,
          "duration": 0.5,
          "velocity": 70
        },
        {
          "pitch": 63,
          "onset": 100.0,
          "duration": 0.25,
          "velocity": 70
        },
        {
          "pitch": 61,
          "onset": 100.25,
          "duration": 0.25,
          "velocity": 70
        },
        {
          "pitch": 51,
          "onset": 100.5,
          "duration": 0.5,
          "velocity": 70
        },
        {
          "pitch": 59,
          "onset": 100.5,
          "duration": 0.25,
          "velocity": 70
        },
        {
          "pitch": 57,
          "onset": 100.75,
          "duration": 0.25,
          "velocity": 70
        },
        {
          "pitch": 52,
          "onset": 101.0,
          "duration": 0.5,
          "velocity": 70
        },
        {
          "pitch": 55,
          "onset": 101.0,
          "duration": 0.25,
          "velocity": 70
        },
        {
          "pitch": 57,
          "onset": 101.25,
          "duration": 0.25,
          "velocity": 70
        },
        {
          "pitch": 47,
          "onset": 101.5,
          "duration": 0.5,
          "velocity": 70
        },
        {
          "pitch": 59,
          "onset": 101.5,
          "duration": 0.25,
          "velocity": 70
        },
        {
          "pitch": 51,
          "onset": 101.75,
          "duration": 0.25,
          "velocity": 70
        },
        {
          "pitch": 48,
          "onset": 102.0,
          "duration": 0.5,
          "velocity": 70
        },
        {
          "pitch": 52,
          "onset": 102.0,
          "duration": 0.5,
          "velocity": 70
        },
        {
          "pitch": 45,
          "onset": 102.5,
          "duration": 0.5,
          "velocity": 70
        },
        {
          "pitch": 54,
          "onset": 102.5,
          "duration": 0.25,
          "velocity": 70
        },
        {
          "pitch": 55,
          "onset": 102.75,
          "duration": 0.125,
          "velocity": 70
        },
        {
          "pitch": 57,
          "onset": 102.875,
          "duration": 0.125,
          "velocity": 70
        },
        {
          "pitch": 47,
          "onset": 103.0,
          "duration": 1.0,
          "velocity": 70
        },
        {
          "pitch": 55,
          "onset": 103.0,
          "duration": 0.5,
          "velocity": 70
        },
        {
          "pitch": 54,
          "onset": 103.5,
          "duration": 0.0625,
          "velocity": 70
        },
        {
          "pitch": 55,
          "onset": 103.5625,
          "duration": 0.0625,
          "velocity": 70
        },
        {
          "pitch": 54,
          "onset": 103.625,
          "duration": 0.125,
          "velocity": 70
        },
        {
          "pitch": 52,
          "onset": 103.75,
          "duration": 0.25,
          "velocity": 70
        },
        {
          "pitch": 52,
          "onset": 104.0,
          "duration": 1.0,
          "velocity": 70
        },
        {
          "pitch": 64,
          "onset": 104.5,
          "duration": 0.0625,
          "velocity": 100
        },
        {
          "pitch": 62,
          "onset": 104.5625,
          "duration": 0.0625,
          "velocity": 100
        },
        {
          "pitch": 64,
          "onset": 104.625,
          "duration": 0.125,
          "velocity": 100
        },
        {
          "pitch": 66,
          "onset": 104.75,
          "duration": 0.25,
          "velocity": 100
        },
        {
          "pitch": 67,
          "onset": 105.0,
          "duration": 0.0625,
          "velocity": 100
        },
        {
          "pitch": 69,
          "onset": 105.0625,
          "duration": 0.0625,
          "velocity": 100
        },
        {
          "pitch": 67,
          "onset": 105.125,
          "duration": 0.625,
          "velocity": 100
        },
        {
          "pitch": 66,
          "onset": 105.75,
          "duration": 0.125,
          "velocity": 100
        },
        {
          "pitch": 67,
          "onset": 105.875,
          "duration": 0.125,
          "velocity": 100
        },
        {
          "pitch": 69,
          "onset": 106.0,
          "duration": 1.0,
          "velocity": 100
        },
        {
          "pitch": 45,
          "onset": 106.5,
          "duration": 0.25,
          "velocity": 70
        },
        {
          "pitch": 47,
          "onset": 106.75,
          "duration": 0.25,
          "velocity": 70
        },
        {
          "pitch": 48,
          "onset": 107.0,
          "duration": 0.0625,
          "velocity": 70
        },
        {
          "pitch": 50,
          "onset": 107.0625,
          "duration": 0.0625,
          "velocity": 70
        },
        {
          "pitch": 48,
          "onset": 107.125,
          "duration": 0.625,
          "velocity": 70
        },
        {
          "pitch": 64,
          "onset": 107.5,
          "duration": 0.5,
          "velocity": 100
        },
        {
          "pitch": 47,
          "onset": 107.75,
          "duration": 0.125,
          "velocity": 70
        },
        {
          "pitch": 45,
          "onset": 107.875,
          "duration": 0.125,
          "velocity": 70
        },
        {
          "pitch": 52,
          "onset": 108.0,
          "duration": 1.0,
          "velocity": 70
        },
        {
          "pitch": 67,
          "onset": 108.0,
          "duration": 0.25,
          "velocity": 100
        },
        {
          "pitch": 64,
          "onset": 108.25,
          "duration": 0.25,
          "velocity": 100
        },
        {
          "pitch": 72,
          "onset": 108.5,
          "duration": 0.25,
          "velocity": 100
        },
        {
          "pitch": 71,
          "onset": 108.75,
          "duration": 0.25,
          "velocity": 100
        },
        {
          "pitch": 69,
          "onset": 109.0,
          "duration": 0.25,
          "velocity": 100
        },
        {
          "pitch": 62,
          "onset": 109.25,
          "duration": 0.25,
          "velocity": 100
        },
        {
          "pitch": 54,
          "onset": 109.5,
          "duration": 0.5,
          "velocity": 70
        },
        {
          "pitch": 74,
          "onset": 109.5,
          "duration": 0.25,
          "velocity": 100
        },
        {
          "pitch": 72,
          "onset": 109.75,
          "duration": 0.25,
          "velocity": 100
        },
        {
          "pitch": 71,
          "onset": 110.0,
          "duration": 0.5,
          "velocity": 100
        },
        {
          "pitch": 55,
          "onset": 110.25,
          "duration": 0.25,
          "velocity": 70
        },
        {
          "pitch": 60,
          "onset": 110.5,
          "duration": 0.25,
          "velocity": 70
        },
        {
          "pitch": 76,
          "onset": 110.5,
          "duration": 0.25,
          "velocity": 100
        },
        {
          "pitch": 79,
          "onset": 110.5,
          "duration": 1.0,
          "velocity": 100
        },
        {
          "pitch": 59,
          "onset": 110.75,
          "duration": 0.25,
          "velocity": 70
        },
        {
          "pitch": 74,
          "onset": 110.75,
          "duration": 0.25,
          "velocity": 100
        },
        {
          "pitch": 57,
          "onset": 111.0,
          "duration": 0.25,
          "velocity": 70
        },
        {
          "pitch": 72,
          "onset": 111.0,
          "duration": 0.5,
          "velocity": 100
        },
        {
          "pitch": 50,
          "onset": 111.25,
          "duration": 0.25,
          "velocity": 70
        },
        {
          "pitch": 62,
          "onset": 111.5,
          "duration": 0.25,
          "velocity": 70
        },
        {
          "pitch": 69,
          "onset": 111.5,
          "duration": 0.5,
          "velocity": 100
        },
        {
          "pitch": 78,
          "onset": 111.5,
          "duration": 0.5,
          "velocity": 100
        },
        {
          "pitch": 60,
          "onset": 111.75,
          "duration": 0.25,
          "velocity": 70
        },
        {
          "pitch": 59,
          "onset": 112.0,
          "duration": 0.5,
          "velocity": 70
        },
        {
          "pitch": 74,
          "onset": 112.0,
          "duration": 0.25,
          "velocity": 100
        },
        {
          "pitch": 79,
          "onset": 112.0,
          "duration": 0.5,
          "velocity": 100
        },
        {
          "pitch": 67,
          "onset": 112.25,
          "duration": 0.25,
          "velocity": 100
        },
        {
          "pitch": 47,
          "onset": 112.5,
          "duration": 0.5,
          "velocity": 70
        },
        {
          "pitch": 79,
          "onset": 112.5,
          "duration": 0.25,
          "velocity": 100
        },
        {
          "pitch": 78,
          "onset": 112.75,
          "duration": 0.25,
          "velocity": 100
        },
        {
          "pitch": 49,
          "onset": 113.0,
          "duration": 0.5,
          "velocity": 70
        },
        {
          "pitch": 76,
          "onset": 113.0,
          "duration": 0.25,
          "velocity": 100
        },
        {
          "pitch": 69,
          "onset": 113.25,
          "duration": 0.25,
          "velocity": 100
        },
        {
          "pitch": 45,
          "onset": 113.5,
          "duration": 0.5,
          "velocity": 70
        },
        {
          "pitch": 81,
          "onset": 113.5,
          "duration": 0.25,
          "velocity": 100
        },
        {
          "pitch": 79,
          "onset": 113.75,
          "duration": 0.25,
          "velocity": 100
        },
        {
          "pitch": 78,
          "onset": 114.0,
          "duration": 0.5,
          "velocity": 100
        },
        {
          "pitch": 50,
          "onset": 114.25,
          "duration": 0.25,
          "velocity": 70
        },
        {
          "pitch": 55,
          "onset": 114.5,
          "duration": 0.25,
          "velocity": 70
        },
        {
          "pitch": 71,
          "onset": 114.5,
          "duration": 0.25,
          "velocity": 100
        },
        {
          "pitch": 74,
          "onset": 114.5,
          "duration": 1.0,
          "velocity": 100
        },
        {
          "pitch": 54,
          "onset": 114.75,
          "duration": 0.25,
          "velocity": 70
        },
        {
          "pitch": 69,
          "onset": 114.75,
          "duration": 0.25,
          "velocity": 100
        },
        {
          "pitch": 52,
          "onset": 115.0,
          "duration": 0.25,
          "velocity": 70
        },
        {
          "pitch": 67,
          "onset": 115.0,
          "duration": 0.5,
          "velocity": 100
        },
        {
          "pitch": 45,
          "onset": 115.25,
          "duration": 0.25,
          "velocity": 70
        },
        {
          "pitch": 57,
          "onset": 115.5,
          "duration": 0.25,
          "velocity": 70
        },
        {
          "pitch": 64,
          "onset": 115.5,
          "duration": 0.5,
          "velocity": 100
        },
        {
          "pitch": 73,
          "onset": 115.5,
          "duration": 0.5,
          "velocity": 100
        },
        {
          "pitch": 55,
          "onset": 115.75,
          "duration": 0.25,
          "velocity": 70
        },
        {
          "pitch": 54,
          "onset": 116.0,
          "duration": 0.5,
          "velocity": 70
        },
        {
          "pitch": 69,
          "onset": 116.0,
          "duration": 0.25,
          "velocity": 100
        },
        {
          "pitch": 74,
          "onset": 116.0,
          "duration": 0.5,
          "velocity": 100
        },
        {
          "pitch": 62,
          "onset": 116.25,
          "duration": 0.25,
          "velocity": 100
        },
        {
          "pitch": 42,
          "onset": 116.5,
          "duration": 0.5,
          "velocity": 70
        },
        {
          "pitch": 74,
          "onset": 116.5,
          "duration": 0.25,
          "velocity": 100
        },
        {
          "pitch": 72,
          "onset": 116.75,
          "duration": 0.25,
          "velocity": 100
        },
        {
          "pitch": 44,
          "onset": 117.0,
          "duration": 0.5,
          "velocity": 70
        },
        {
          "pitch": 71,
          "onset": 117.0,
          "duration": 0.25,
          "velocity": 100
        },
        {
          "pitch": 64,
          "onset": 117.25,
          "duration": 0.25,
          "velocity": 100
        },
        {
          "pitch": 42,
          "onset": 117.5,
          "duration": 0.5,
          "velocity": 70
        },
        {
          "pitch": 76,
          "onset": 117.5,
          "duration": 0.25,
          "velocity": 100
        },
        {
          "pitch": 74,
          "onset": 117.75,
          "duration": 0.25,
          "velocity": 100
        },
        {
          "pitch": 72,
          "onset": 118.0,
          "duration": 0.5,
          "velocity": 100
        },
        {
          "pitch": 45,
          "onset": 118.25,
          "duration": 0.25,
          "velocity": 70
        },
        {
          "pitch": 50,
          "onset": 118.5,
          "duration": 0.25,
          "velocity": 70
        },
        {
          "pitch": 65,
          "onset": 118.5,
          "duration": 0.25,
          "velocity": 100
        },
        {
          "pitch": 69,
          "onset": 118.5,
          "duration": 1.0,
          "velocity": 100
        },
        {
          "pitch": 48,
          "onset": 118.75,
          "duration": 0.25,
          "velocity": 70
        },
        {
          "pitch": 64,
          "onset": 118.75,
          "duration": 0.25,
          "velocity": 100
        },
        {
          "pitch": 47,
          "onset": 119.0,
          "duration": 0.25,
          "velocity": 70
        },
        {
          "pitch": 62,
          "onset": 119.0,
          "duration": 0.5,
          "velocity": 100
        },
        {
          "pitch": 40,
          "onset": 119.25,
          "duration": 0.25,
          "velocity": 70
        },
        {
          "pitch": 52,
          "onset": 119.5,
          "duration": 0.25,
          "velocity": 70
        },
        {
          "pitch": 59,
          "onset": 119.5,
          "duration": 0.5,
          "velocity": 100
        },
        {
          "pitch": 68,
          "onset": 119.5,
          "duration": 0.5,
          "velocity": 100
        },
        {
          "pitch": 50,
          "onset": 119.75,
          "duration": 0.25,
          "velocity": 70
        },
        {
          "pitch": 48,
          "onset": 120.0,
          "duration": 0.5,
          "velocity": 70
        },
        {
          "pitch": 64,
          "onset": 120.0,
          "duration": 0.25,
          "velocity": 100
        },
        {
          "pitch": 69,
          "onset": 120.0,
          "duration": 0.5,
          "velocity": 100
        },
        {
          "pitch": 57,
          "onset": 120.25,
          "duration": 0.25,
          "velocity": 100
        },
        {
          "pitch": 49,
          "onset": 120.5,
          "duration": 0.5,
          "velocity": 70
        },
        {
          "pitch": 69,
          "onset": 120.5,
          "duration": 0.25,
          "velocity": 100
        },
        {
          "pitch": 67,
          "onset": 120.75,
          "duration": 0.25,
          "velocity": 100
        },
        {
          "pitch": 50,
          "onset": 121.0,
          "duration": 0.5,
          "velocity": 70
        },
        {
          "pitch": 66,
          "onset": 121.0,
          "duration": 0.25,
          "velocity": 100
        },
        {
          "pitch": 59,
          "onset": 121.25,
          "duration": 0.25,
          "velocity": 100
        },
        {
          "pitch": 51,
          "onset": 121.5,
          "duration": 0.5,
          "velocity": 70
        },
        {
          "pitch": 71,
          "onset": 121.5,
          "duration": 0.25,
          "velocity": 100
        },
        {
          "pitch": 69,
          "onset": 121.75,
          "duration": 0.25,
          "velocity": 100
        },
        {
          "pitch": 67,
          "onset": 122.0,
          "duration": 0.5,
          "velocity": 100
        },
        {
          "pitch": 52,
          "onset": 122.25,
          "duration": 0.25,
          "velocity": 70
        },
        {
          "pitch": 57,
          "onset": 122.5,
          "duration": 0.25,
          "velocity": 70
        },
        {
          "pitch": 72,
          "onset": 122.5,
          "duration": 0.25,
          "velocity": 100
        },
        {
          "pitch": 76,
          "onset": 122.5,
          "duration": 1.0,
          "velocity": 100
        },
        {
          "pitch": 55,
          "onset": 122.75,
          "duration": 0.25,
          "velocity": 70
        },
        {
          "pitch": 71,
          "onset": 122.75,
          "duration": 0.25,
          "velocity": 100
        },
        {
          "pitch": 54,
          "onset": 123.0,
          "duration": 0.25,
          "velocity": 70
        },
        {
          "pitch": 69,
          "onset": 123.0,
          "duration": 0.5,
          "velocity": 100
        },
        {
          "pitch": 47,
          "onset": 123.25,
          "duration": 0.25,
          "velocity": 70
        },
        {
          "pitch": 59,
          "onset": 123.5,
          "duration": 0.25,
          "velocity": 70
        },
        {
          "pitch": 66,
          "onset": 123.5,
          "duration": 0.5,
          "velocity": 100
        },
        {
          "pitch": 75,
          "onset": 123.5,
          "duration": 0.5,
          "velocity": 100
        },
        {
          "pitch": 57,
          "onset": 123.75,
          "duration": 0.25,
          "velocity": 70
        },
        {
          "pitch": 55,
          "onset": 124.0,
          "duration": 0.5,
          "velocity": 70
        },
        {
          "pitch": 71,
          "onset": 124.0,
          "duration": 0.25,
          "velocity": 100
        },
        {
          "pitch": 76,
          "onset": 124.0,
          "duration": 0.5,
          "velocity": 100
        },
        {
          "pitch": 64,
          "onset": 124.25,
          "duration": 0.25,
          "velocity": 100
        },
        {
          "pitch": 52,
          "onset": 124.5,
          "duration": 0.5,
          "velocity": 70
        },
        {
          "pitch": 72,
          "onset": 124.5,
          "duration": 0.25,
          "velocity": 100
        },
        {
          "pitch": 71,
          "onset": 124.75,
          "duration": 0.25,
          "velocity": 100
        },
        {
          "pitch": 54,
          "onset": 125.0,
          "duration": 0.5,
          "velocity": 70
        },
        {
          "pitch": 69,
          "onset": 125.0,
          "duration": 0.25,
          "velocity": 100
        },
        {
          "pitch": 62,
          "onset": 125.25,
          "duration": 0.25,
          "velocity": 100
        },
        {
          "pitch": 50,
          "onset": 125.5,
          "duration": 0.5,
          "velocity": 70
        },
        {
          "pitch": 74,
          "onset": 125.5,
          "duration": 0.25,
          "velocity": 100
        },
        {
          "pitch": 72,
          "onset": 125.75,
          "duration": 0.25,
          "velocity": 100
        },
        {
          "pitch": 71,
          "onset": 126.0,
          "duration": 2.9688,
          "velocity": 100
        },
        {
          "pitch": 55,
          "onset": 126.25,
          "duration": 0.25,
          "velocity": 70
        },
        {
          "pitch": 54,
          "onset": 126.5,
          "duration": 0.25,
          "velocity": 70
        },
        {
          "pitch": 69,
          "onset": 126.5,
          "duration": 0.25,
          "velocity": 100
        },
        {
          "pitch": 52,
          "onset": 126.75,
          "duration": 0.25,
          "velocity": 70
        },
        {
          "pitch": 67,
          "onset": 126.75,
          "duration": 0.25,
          "velocity": 100
        },
        {
          "pitch": 51,
          "onset": 127.0,
          "duration": 0.5,
          "velocity": 70
        },
        {
          "pitch": 66,
          "onset": 127.0,
          "duration": 0.5,
          "velocity": 100
        },
        {
          "pitch": 57,
          "onset": 127.25,
          "duration": 0.25,
          "velocity": 70
        },
        {
          "pitch": 52,
          "onset": 127.5,
          "duration": 0.5,
          "velocity": 70
        },
        {
          "pitch": 55,
          "onset": 127.5,
          "duration": 0.25,
          "velocity": 70
        },
        {
          "pitch": 64,
          "onset": 127.5,
          "duration": 0.5,
          "velocity": 100
        },
        {
          "pitch": 57,
          "onset": 127.75,
          "duration": 0.25,
          "velocity": 70
        },
        {
          "pitch": 47,
          "onset": 128.0,
          "duration": 1.0,
          "velocity": 70
        },
        {
          "pitch": 54,
          "onset": 128.0,
          "duration": 1.0,
          "velocity": 70
        },
        {
          "pitch": 63,
          "onset": 128.0,
          "duration": 1.0,
          "velocity": 100
        },
        {
          "pitch": 59,
          "onset": 129.0,
          "duration": 0.3438,
          "velocity": 70
        },
        {
          "pitch": 59,
          "onset": 129.3438,
          "duration": 0.6562,
          "velocity": 70
        },
        {
          "pitch": 57,
          "onset": 129.6562,
          "duration": 0.3438,
          "velocity": 70
        },
        {
          "pitch": 55,
          "onset": 130.0,
          "duration": 0.3438,
          "velocity": 70
        },
        {
          "pitch": 64,
          "onset": 130.0,
          "duration": 1.0,
          "velocity": 70
        },
        {
          "pitch": 54,
          "onset": 130.3438,
          "duration": 0.3438,
          "velocity": 70
        },
        {
          "pitch": 52,
          "onset": 130.6562,
          "duration": 0.3438,
          "velocity": 70
        },
        {
          "pitch": 59,
          "onset": 131.0,
          "duration": 0.3438,
          "velocity": 70
        },
        {
          "pitch": 63,
          "onset": 131.0,
          "duration": 0.0625,
          "velocity": 70
        },
        {
          "pitch": 64,
          "onset": 131.0625,
          "duration": 0.0625,
          "velocity": 70
        },
        {
          "pitch": 63,
          "onset": 131.125,
          "duration": 0.875,
          "velocity": 70
        },
        {
          "pitch": 54,
          "onset": 131.3438,
          "duration": 0.3438,
          "velocity": 70
        },
        {
          "pitch": 57,
          "onset": 131.6562,
          "duration": 0.3438,
          "velocity": 70
        },
        {
          "pitch": 55,
          "onset": 132.0,
          "duration": 0.3438,
          "velocity": 70
        },
        {
          "pitch": 64,
          "onset": 132.0,
          "duration": 1.0,
          "velocity": 70
        },
        {
          "pitch": 54,
          "onset": 132.3438,
          "duration": 0.3438,
          "velocity": 70
        },
        {
          "pitch": 52,
          "onset": 132.6562,
          "duration": 0.3438,
          "velocity": 70
        },
        {
          "pitch": 71,
          "onset": 133.0,
          "duration": 1.0,
          "velocity": 100
        },
        {
          "pitch": 47,
          "onset": 133.3438,
          "duration": 0.3438,
          "velocity": 70
        },
        {
          "pitch": 45,
          "onset": 133.6562,
          "duration": 0.3438,
          "velocity": 70
        },
        {
          "pitch": 43,
          "onset": 134.0,
          "duration": 0.3438,
          "velocity": 70
        },
        {
          "pitch": 71,
          "onset": 134.0,
          "duration": 0.6562,
          "velocity": 100
        },
        {
          "pitch": 76,
          "onset": 134.0,
          "duration": 1.0,
          "velocity": 100
        },
        {
          "pitch": 42,
          "onset": 134.3438,
          "duration": 0.3438,
          "velocity": 70
        },
        {
          "pitch": 40,
          "onset": 134.6562,
          "duration": 0.3438,
          "velocity": 70
        },
        {
          "pitch": 67,
          "onset": 134.6562,
          "duration": 0.3438,
          "velocity": 100
        },
        {
          "pitch": 47,
          "onset": 135.0,
          "duration": 0.3438,
          "velocity": 70
        },
        {
          "pitch": 66,
          "onset": 135.0,
          "duration": 1.0,
          "velocity": 100
        },
        {
          "pitch": 75,
          "onset": 135.0,
          "duration": 1.0,
          "velocity": 100
        },
        {
          "pitch": 42,
          "onset": 135.3438,
          "duration": 0.3438,
          "velocity": 70
        },
        {
          "pitch": 45,
          "onset": 135.6562,
          "duration": 0.3438,
          "velocity": 70
        },
        {
          "pitch": 43,
          "onset": 136.0,
          "duration": 0.3438,
          "velocity": 70
        },
        {
          "pitch": 64,
          "onset": 136.0,
          "duration": 1.0,
          "velocity": 100
        },
        {
          "pitch": 76,
          "onset": 136.0,
          "duration": 1.0,
          "velocity": 100
        },
        {
          "pitch": 42,
          "onset": 136.3438,
          "duration": 0.3438,
          "velocity": 70
        },
        {
          "pitch": 40,
          "onset": 136.6562,
          "duration": 0.3438,
          "velocity": 70
        },
        {
          "pitch": 78,
          "onset": 137.0,
          "duration": 0.3438,
          "velocity": 100
        },
        {
          "pitch": 73,
          "onset": 137.3438,
          "duration": 0.3438,
          "velocity": 100
        },
        {
          "pitch": 58,
          "onset": 137.5,
          "duration": 0.5,
          "velocity": 70
        },
        {
          "pitch": 61,
          "onset": 137.5,
          "duration": 0.5,
          "velocity": 70
        },
        {
          "pitch": 76,
          "onset": 137.6562,
          "duration": 0.3438,
          "velocity": 100
        },
        {
          "pitch": 59,
          "onset": 138.0,
          "duration": 1.0,
          "velocity": 70
        },
        {
          "pitch": 74,
          "onset": 138.0,
          "duration": 0.0625,
          "velocity": 100
        },
        {
          "pitch": 76,
          "onset": 138.0625,
          "duration": 0.0625,
          "velocity": 100
        },
        {
          "pitch": 74,
          "onset": 138.125,
          "duration": 0.2188,
          "velocity": 100
        },
        {
          "pitch": 73,
          "onset": 138.3438,
          "duration": 0.3438,
          "velocity": 100
        },
        {
          "pitch": 47,
          "onset": 138.6562,
          "duration": 0.3438,
          "velocity": 70
        },
        {
          "pitch": 71,
          "onset": 138.6562,
          "duration": 0.3438,
          "velocity": 100
        },
        {
          "pitch": 54,
          "onset": 139.0,
          "duration": 0.3438,
          "velocity": 70
        },
        {
          "pitch": 61,
          "onset": 139.0,
          "duration": 1.0,
          "velocity": 100
        },
        {
          "pitch": 71,
          "onset": 139.0,
          "duration": 0.6562,
          "velocity": 100
        },
        {
          "pitch": 49,
          "onset": 139.3438,
          "duration": 0.3438,
          "velocity": 70
        },
        {
          "pitch": 52,
          "onset": 139.6562,
          "duration": 0.3438,
          "velocity": 70
        },
        {
          "pitch": 50,
          "onset": 140.0,
          "duration": 0.0625,
          "velocity": 70
        },
        {
          "pitch": 59,
          "onset": 140.0,
          "duration": 1.0,
          "velocity": 100
        },
        {
          "pitch": 71,
          "onset": 140.0,
          "duration": 1.0,
          "velocity": 100
        },
        {
          "pitch": 52,
          "onset": 140.0625,
          "duration": 0.0625,
          "velocity": 70
        },
        {
          "pitch": 50,
          "onset": 140.125,
          "duration": 0.2188,
          "velocity": 70
        },
        {
          "pitch": 49,
          "onset": 140.3438,
          "duration": 0.3438,
          "velocity": 70
        },
        {
          "pitch": 47,
          "onset": 140.6562,
          "duration": 0.3438,
          "velocity": 70
        },
        {
          "pitch": 47,
          "onset": 141.0,
          "duration": 0.6562,
          "velocity": 70
        },
        {
          "pitch": 49,
          "onset": 141.0,
          "duration": 1.0,
          "velocity": 70
        },
        {
          "pitch": 66,
          "onset": 141.0,
          "duration": 0.3438,
          "velocity": 100
        },
        {
          "pitch": 61,
          "onset": 141.3438,
          "duration": 0.3438,
          "velocity": 100
        },
        {
          "pitch": 46,
          "onset": 141.6562,
          "duration": 0.3438,
          "velocity": 70
        },
        {
          "pitch": 64,
          "onset": 141.6562,
          "duration": 0.3438,
          "velocity": 100
        },
        {
          "pitch": 47,
          "onset": 142.0,
          "duration": 1.0,
          "velocity": 70
        },
        {
          "pitch": 62,
          "onset": 142.0,
          "duration": 0.0625,
          "velocity": 100
        },
        {
          "pitch": 64,
          "onset": 142.0625,
          "duration": 0.0625,
          "velocity": 100
        },
        {
          "pitch": 62,
          "onset": 142.125,
          "duration": 0.2188,
          "velocity": 100
        },
        {
          "pitch": 61,
          "onset": 142.3438,
          "duration": 0.3438,
          "velocity": 100
        },
        {
          "pitch": 59,
          "onset": 142.6562,
          "duration": 0.3438,
          "velocity": 100
        },
        {
          "pitch": 71,
          "onset": 143.0,
          "duration": 0.3438,
          "velocity": 100
        },
        {
          "pitch": 66,
          "onset": 143.3438,
          "duration": 0.3438,
          "velocity": 100
        },
        {
          "pitch": 51,
          "onset": 143.5,
          "duration": 0.5,
          "velocity": 70
        },
        {
          "pitch": 54,
          "onset": 143.5,
          "duration": 0.5,
          "velocity": 70
        },
        {
          "pitch": 69,
          "onset": 143.6562,
          "duration": 0.3438,
          "velocity": 100
        },
        {
          "pitch": 52,
          "onset": 144.0,
          "duration": 1.0,
          "velocity": 70
        },
        {
          "pitch": 67,
          "onset": 144.0,
          "duration": 0.0625,
          "velocity": 100
        },
        {
          "pitch": 69,
          "onset": 144.0625,
          "duration": 0.0625,
          "velocity": 100
        },
        {
          "pitch": 67,
          "onset": 144.125,
          "duration": 0.2188,
          "velocity": 100
        },
        {
          "pitch": 66,
          "onset": 144.3438,
          "duration": 0.3438,
          "velocity": 100
        },
        {
          "pitch": 40,
          "onset": 144.6562,
          "duration": 0.3438,
          "velocity": 70
        },
        {
          "pitch": 64,
          "onset": 144.6562,
          "duration": 0.3438,
          "velocity": 100
        },
        {
          "pitch": 73,
          "onset": 145.0,
          "duration": 0.3438,
          "velocity": 100
        },
        {
          "pitch": 68,
          "onset": 145.3438,
          "duration": 0.3438,
          "velocity": 100
        },
        {
          "pitch": 53,
          "onset": 145.5,
          "duration": 0.5,
          "velocity": 70
        },
        {
          "pitch": 61,
          "onset": 145.5,
          "duration": 0.5,
          "velocity": 70
        },
        {
          "pitch": 71,
          "onset": 145.6562,
          "duration": 0.3438,
          "velocity": 100
        },
        {
          "pitch": 54,
          "onset": 146.0,
          "duration": 1.0,
          "velocity": 70
        },
        {
          "pitch": 61,
          "onset": 146.0,
          "duration": 1.0,
          "velocity": 70
        },
        {
          "pitch": 70,
          "onset": 146.0,
          "duration": 0.0625,
          "velocity": 100
        },
        {
          "pitch": 71,
          "onset": 146.0625,
          "duration": 0.0625,
          "velocity": 100
        },
        {
          "pitch": 70,
          "onset": 146.125,
          "duration": 0.2188,
          "velocity": 100
        },
        {
          "pitch": 68,
          "onset": 146.3438,
          "duration": 0.3438,
          "velocity": 100
        },
        {
          "pitch": 66,
          "onset": 146.6562,
          "duration": 0.3438,
          "velocity": 100
        },
        {
          "pitch": 78,
          "onset": 147.0,
          "duration": 0.3438,
          "velocity": 100
        },
        {
          "pitch": 73,
          "onset": 147.3438,
          "duration": 0.3438,
          "velocity": 100
        },
        {
          "pitch": 58,
          "onset": 147.5,
          "duration": 0.5,
          "velocity": 70
        },
        {
          "pitch": 61,
          "onset": 147.5,
          "duration": 0.5,
          "velocity": 70
        },
        {
          "pitch": 76,
          "onset": 147.6562,
          "duration": 0.3438,
          "velocity": 100
        },
        {
          "pitch": 59,
          "onset": 148.0,
          "duration": 0.3438,
          "velocity": 70
        },
        {
          "pitch": 74,
          "onset": 148.0,
          "duration": 0.0625,
          "velocity": 100
        },
        {
          "pitch": 76,
          "onset": 148.0625,
          "duration": 0.0625,
          "velocity": 100
        },
        {
          "pitch": 74,
          "onset": 148.125,
          "duration": 0.2188,
          "velocity": 100
        },
        {
          "pitch": 54,
          "onset": 148.3438,
          "duration": 0.3438,
          "velocity": 70
        },
        {
          "pitch": 73,
          "onset": 148.3438,
          "duration": 0.3438,
          "velocity": 100
        },
        {
          "pitch": 57,
          "onset": 148.6562,
          "duration": 0.3438,
          "velocity": 70
        },
        {
          "pitch": 71,
          "onset": 148.6562,
          "duration": 0.3438,
          "velocity": 100
        },
        {
          "pitch": 55,
          "onset": 149.0,
          "duration": 0.0625,
          "velocity": 70
        },
        {
          "pitch": 76,
          "onset": 149.0,
          "duration": 0.3438,
          "velocity": 100
        },
        {
          "pitch": 57,
          "onset": 149.0625,
          "duration": 0.0625,
          "velocity": 70
        },
        {
          "pitch": 55,
          "onset": 149.125,
          "duration": 0.2188,
          "velocity": 70
        },
        {
          "pitch": 54,
          "onset": 149.3438,
          "duration": 0.3438,
          "velocity": 70
        },
        {
          "pitch": 71,
          "onset": 149.3438,
          "duration": 0.3438,
          "velocity": 100
        },
        {
          "pitch": 52,
          "onset": 149.6562,
          "duration": 0.3438,
          "velocity": 70
        },
        {
          "pitch": 74,
          "onset": 149.6562,
          "duration": 0.3438,
          "velocity": 100
        },
        {
          "pitch": 57,
          "onset": 150.0,
          "duration": 0.3438,
          "velocity": 70
        },
        {
          "pitch": 73,
          "onset": 150.0,
          "duration": 0.0625,
          "velocity": 100
        },
        {
          "pitch": 74,
          "onset": 150.0625,
          "duration": 0.0625,
          "velocity": 100
        },
        {
          "pitch": 73,
          "onset": 150.125,
          "duration": 0.2188,
          "velocity": 100
        },
        {
          "pitch": 52,
          "onset": 150.3438,
          "duration": 0.3438,
          "velocity": 70
        },
        {
          "pitch": 71,
          "onset": 150.3438,
          "duration": 0.3438,
          "velocity": 100
        },
        {
          "pitch": 55,
          "onset": 150.6562,
          "duration": 0.3438,
          "velocity": 70
        },
        {
          "pitch": 69,
          "onset": 150.6562,
          "duration": 0.3438,
          "velocity": 100
        },
        {
          "pitch": 54,
          "onset": 151.0,
          "duration": 0.3438,
          "velocity": 70
        },
        {
          "pitch": 74,
          "onset": 151.0,
          "duration": 0.3438,
          "velocity": 100
        },
        {
          "pitch": 52,
          "onset": 151.3438,
          "duration": 0.3438,
          "velocity": 70
        },
        {
          "pitch": 69,
          "onset": 151.3438,
          "duration": 0.3438,
          "velocity": 100
        },
        {
          "pitch": 50,
          "onset": 151.6562,
          "duration": 0.3438,
          "velocity": 70
        },
        {
          "pitch": 73,
          "onset": 151.6562,
          "duration": 0.3438,
          "velocity": 100
        },
        {
          "pitch": 55,
          "onset": 152.0,
          "duration": 0.3438,
          "velocity": 70
        },
        {
          "pitch": 71,
          "onset": 152.0,
          "duration": 0.0625,
          "velocity": 100
        },
        {
          "pitch": 73,
          "onset": 152.0625,
          "duration": 0.0625,
          "velocity": 100
        },
        {
          "pitch": 71,
          "onset": 152.125,
          "duration": 0.2188,
          "velocity": 100
        },
        {
          "pitch": 50,
          "onset": 152.3438,
          "duration": 0.3438,
          "velocity": 70
        },
        {
          "pitch": 69,
          "onset": 152.3438,
          "duration": 0.3438,
          "velocity": 100
        },
        {
          "pitch": 54,
          "onset": 152.6562,
          "duration": 0.3438,
          "velocity": 70
        },
        {
          "pitch": 67,
          "onset": 152.6562,
          "duration": 0.3438,
          "velocity": 100
        },
        {
          "pitch": 52,
          "onset": 153.0,
          "duration": 0.3438,
          "velocity": 70
        },
        {
          "pitch": 73,
          "onset": 153.0,
          "duration": 0.3438,
          "velocity": 100
        },
        {
          "pitch": 50,
          "onset": 153.3438,
          "duration": 0.3438,
          "velocity": 70
        },
        {
          "pitch": 68,
          "onset": 153.3438,
          "duration": 0.3438,
          "velocity": 100
        },
        {
          "pitch": 49,
          "onset": 153.6562,
          "duration": 0.3438,
          "velocity": 70
        },
        {
          "pitch": 71,
          "onset": 153.6562,
          "duration": 0.3438,
          "velocity": 100
        },
        {
          "pitch": 54,
          "onset": 154.0,
          "duration": 0.3438,
          "velocity": 70
        },
        {
          "pitch": 70,
          "onset": 154.0,
          "duration": 0.0625,
          "velocity": 100
        },
        {
          "pitch": 71,
          "onset": 154.0625,
          "duration": 0.0625,
          "velocity": 100
        },
        {
          "pitch": 70,
          "onset": 154.125,
          "duration": 0.2188,
          "velocity": 100
        },
        {
          "pitch": 49,
          "onset": 154.3438,
          "duration": 0.3438,
          "velocity": 70
        },
        {
          "pitch": 68,
          "onset": 154.3438,
          "duration": 0.3438,
          "velocity": 100
        },
        {
          "pitch": 52,
          "onset": 154.6562,
          "duration": 0.3438,
          "velocity": 70
        },
        {
          "pitch": 66,
          "onset": 154.6562,
          "duration": 0.3438,
          "velocity": 100
        },
        {
          "pitch": 50,
          "onset": 155.0,
          "duration": 0.3438,
          "velocity": 70
        },
        {
          "pitch": 78,
          "onset": 155.0,
          "duration": 0.3438,
          "velocity": 100
        },
        {
          "pitch": 54,
          "onset": 155.3438,
          "duration": 0.3438,
          "velocity": 70
        },
        {
          "pitch": 73,
          "onset": 155.3438,
          "duration": 0.3438,
          "velocity": 100
        },
        {
          "pitch": 46,
          "onset": 155.6562,
          "duration": 0.3438,
          "velocity": 70
        },
        {
          "pitch": 76,
          "onset": 155.6562,
          "duration": 0.3438,
          "velocity": 100
        },
        {
          "pitch": 47,
          "onset": 156.0,
          "duration": 1.0,
          "velocity": 70
        },
        {
          "pitch": 74,
          "onset": 156.0,
          "duration": 0.0625,
          "velocity": 100
        },
        {
          "pitch": 76,
          "onset": 156.0625,
          "duration": 0.0625,
          "velocity": 100
        },
        {
          "pitch": 74,
          "onset": 156.125,
          "duration": 0.2188,
          "velocity": 100
        },
        {
          "pitch": 73,
          "onset": 156.3438,
          "duration": 0.3438,
          "velocity": 100
        },
        {
          "pitch": 71,
          "onset": 156.6562,
          "duration": 0.3438,
          "velocity": 100
        },
        {
          "pitch": 83,
          "onset": 157.0,
          "duration": 0.3438,
          "velocity": 100
        },
        {
          "pitch": 78,
          "onset": 157.3438,
          "duration": 0.3438,
          "velocity": 100
        },
        {
          "pitch": 51,
          "onset": 157.5,
          "duration": 0.5,
          "velocity": 70
        },
        {
          "pitch": 54,
          "onset": 157.5,
          "duration": 0.5,
          "velocity": 70
        },
        {
          "pitch": 81,
          "onset": 157.6562,
          "duration": 0.3438,
          "velocity": 100
        },
        {
          "pitch": 52,
          "onset": 158.0,
          "duration": 1.0,
          "velocity": 70
        },
        {
          "pitch": 79,
          "onset": 158.0,
          "duration": 0.0625,
          "velocity": 100
        },
        {
          "pitch": 81,
          "onset": 158.0625,
          "duration": 0.0625,
          "velocity": 100
        },
        {
          "pitch": 79,
          "onset": 158.125,
          "duration": 0.2188,
          "velocity": 100
        },
        {
          "pitch": 78,
          "onset": 158.3438,
          "duration": 0.3438,
          "velocity": 100
        },
        {
          "pitch": 55,
          "onset": 158.6562,
          "duration": 0.3438,
          "velocity": 70
        },
        {
          "pitch": 59,
          "onset": 158.6562,
          "duration": 1.0,
          "velocity": 70
        },
        {
          "pitch": 76,
          "onset": 158.6562,
          "duration": 0.6562,
          "velocity": 100
        },
        {
          "pitch": 49,
          "onset": 159.0,
          "duration": 0.6562,
          "velocity": 70
        },
        {
          "pitch": 74,
          "onset": 159.3438,
          "duration": 0.3438,
          "velocity": 100
        },
        {
          "pitch": 54,
          "onset": 159.6562,
          "duration": 0.3438,
          "velocity": 70
        },
        {
          "pitch": 58,
          "onset": 159.6562,
          "duration": 0.3438,
          "velocity": 70
        },
        {
          "pitch": 73,
          "onset": 159.6562,
          "duration": 0.3438,
          "velocity": 100
        },
        {
          "pitch": 50,
          "onset": 160.0,
          "duration": 0.6562,
          "velocity": 70
        },
        {
          "pitch": 59,
          "onset": 160.0,
          "duration": 1.3438,
          "velocity": 70
        },
        {
          "pitch": 78,
          "onset": 160.0,
          "duration": 0.3438,
          "velocity": 100
        },
        {
          "pitch": 71,
          "onset": 160.3438,
          "duration": 0.3438,
          "velocity": 100
        },
        {
          "pitch": 52,
          "onset": 160.6562,
          "duration": 0.3438,
          "velocity": 70
        },
        {
          "pitch": 73,
          "onset": 160.6562,
          "duration": 0.3438,
          "velocity": 100
        },
        {
          "pitch": 54,
          "onset": 161.0,
          "duration": 0.6562,
          "velocity": 70
        },
        {
          "pitch": 73,
          "onset": 161.0,
          "duration": 0.0625,
          "velocity": 100
        },
        {
          "pitch": 74,
          "onset": 161.0625,
          "duration": 0.0625,
          "velocity": 100
        },
        {
          "pitch": 73,
          "onset": 161.125,
          "duration": 0.5312,
          "velocity": 100
        },
        {
          "pitch": 58,
          "onset": 161.3438,
          "duration": 0.6562,
          "velocity": 70
        },
        {
          "pitch": 71,
          "onset": 161.6562,
          "duration": 0.3438,
          "velocity": 100
        },
        {
          "pitch": 47,
          "onset": 162.0,
          "duration": 0.3438,
          "velocity": 70
        },
        {
          "pitch": 59,
          "onset": 162.0,
          "duration": 0.3438,
          "velocity": 70
        },
        {
          "pitch": 71,
          "onset": 162.0,
          "duration": 1.0,
          "velocity": 100
        },
        {
          "pitch": 59,
          "onset": 162.3438,
          "duration": 0.6562,
          "velocity": 70
        },
        {
          "pitch": 57,
          "onset": 162.6562,
          "duration": 0.3438,
          "velocity": 70
        },
        {
          "pitch": 55,
          "onset": 163.0,
          "duration": 0.3438,
          "velocity": 70
        },
        {
          "pitch": 54,
          "onset": 163.3438,
          "duration": 0.3438,
          "velocity": 70
        },
        {
          "pitch": 52,
          "onset": 163.6562,
          "duration": 0.3438,
          "velocity": 70
        },
        {
          "pitch": 59,
          "onset": 163.6562,
          "duration": 0.3438,
          "velocity": 70
        },
        {
          "pitch": 67,
          "onset": 163.6562,
          "duration": 0.3438,
          "velocity": 70
        },
        {
          "pitch": 50,
          "onset": 164.0,
          "duration": 0.3438,
          "velocity": 70
        },
        {
          "pitch": 59,
          "onset": 164.0,
          "duration": 1.3438,
          "velocity": 70
        },
        {
          "pitch": 66,
          "onset": 164.0,
          "duration": 0.3438,
          "velocity": 70
        },
        {
          "pitch": 49,
          "onset": 164.3438,
          "duration": 0.3438,
          "velocity": 70
        },
        {
          "pitch": 64,
          "onset": 164.3438,
          "duration": 0.3438,
          "velocity": 70
        },
        {
          "pitch": 47,
          "onset": 164.6562,
          "duration": 0.3438,
          "velocity": 70
        },
        {
          "pitch": 62,
          "onset": 164.6562,
          "duration": 0.3438,
          "velocity": 70
        },
        {
          "pitch": 54,
          "onset": 165.0,
          "duration": 0.0625,
          "velocity": 70
        },
        {
          "pitch": 61,
          "onset": 165.0,
          "duration": 0.6562,
          "velocity": 70
        },
        {
          "pitch": 52,
          "onset": 165.0625,
          "duration": 0.0625,
          "velocity": 70
        },
        {
          "pitch": 54,
          "onset": 165.125,
          "duration": 0.5312,
          "velocity": 70
        },
        {
          "pitch": 58,
          "onset": 165.3438,
          "duration": 0.6562,
          "velocity": 70
        },
        {
          "pitch": 42,
          "onset": 165.6562,
          "duration": 0.3438,
          "velocity": 70
        },
        {
          "pitch": 59,
          "onset": 165.6562,
          "duration": 0.3438,
          "velocity": 70
        },
        {
          "pitch": 47,
          "onset": 166.0,
          "duration": 1.0,
          "velocity": 70
        },
        {
          "pitch": 59,
          "onset": 166.0,
          "duration": 1.0,
          "velocity": 70
        },
        {
          "pitch": 59,
          "onset": 166.0,
          "duration": 0.6562,
          "velocity": 70
        },
        {
          "pitch": 54,
          "onset": 166.3438,
          "duration": 0.3438,
          "velocity": 70
        },
        {
          "pitch": 59,
          "onset": 166.6562,
          "duration": 0.3438,
          "velocity": 70
        },
        {
          "pitch": 71,
          "onset": 167.25,
          "duration": 0.25,
          "velocity": 100
        },
        {
          "pitch": 69,
          "onset": 167.5,
          "duration": 0.0625,
          "velocity": 100
        },
        {
          "pitch": 71,
          "onset": 167.5625,
          "duration": 0.0625,
          "velocity": 100
        },
        {
          "pitch": 69,
          "onset": 167.625,
          "duration": 0.125,
          "velocity": 100
        },
        {
          "pitch": 67,
          "onset": 167.75,
          "duration": 0.25,
          "velocity": 100
        },
        {
          "pitch": 74,
          "onset": 168.0,
          "duration": 1.0,
          "velocity": 100
        },
        {
          "pitch": 66,
          "onset": 168.25,
          "duration": 0.25,
          "velocity": 100
        },
        {
          "pitch": 64,
          "onset": 168.5,
          "duration": 0.25,
          "velocity": 100
        },
        {
          "pitch": 62,
          "onset": 168.75,
          "duration": 0.25,
          "velocity": 100
        },
        {
          "pitch": 67,
          "onset": 169.0,
          "duration": 1.0,
          "velocity": 100
        },
        {
          "pitch": 71,
          "onset": 169.0,
          "duration": 1.0,
          "velocity": 100
        },
        {
          "pitch": 59,
          "onset": 169.25,
          "duration": 0.25,
          "velocity": 70
        },
        {
          "pitch": 57,
          "onset": 169.5,
          "duration": 0.25,
          "velocity": 70
        },
        {
          "pitch": 55,
          "onset": 169.75,
          "duration": 0.25,
          "velocity": 70
        },
        {
          "pitch": 62,
          "onset": 170.0,
          "duration": 1.0,
          "velocity": 100
        },
        {
          "pitch": 66,
          "onset": 170.0,
          "duration": 1.0,
          "velocity": 100
        },
        {
          "pitch": 74,
          "onset": 170.0,
          "duration": 1.0,
          "velocity": 100
        },
        {
          "pitch": 54,
          "onset": 170.25,
          "duration": 0.25,
          "velocity": 70
        },
        {
          "pitch": 52,
          "onset": 170.5,
          "duration": 0.25,
          "velocity": 70
        },
        {
          "pitch": 50,
          "onset": 170.75,
          "duration": 0.25,
          "velocity": 70
        },
        {
          "pitch": 55,
          "onset": 171.0,
          "duration": 1.0,
          "velocity": 70
        },
        {
          "pitch": 59,
          "onset": 171.25,
          "duration": 0.25,
          "velocity": 70
        },
        {
          "pitch": 57,
          "onset": 171.5,
          "duration": 0.25,
          "velocity": 70
        },
        {
          "pitch": 55,
          "onset": 171.75,
          "duration": 0.25,
          "velocity": 70
        },
        {
          "pitch": 62,
          "onset": 172.0,
          "duration": 1.0,
          "velocity": 70
        },
        {
          "pitch": 54,
          "onset": 172.25,
          "duration": 0.25,
          "velocity": 70
        },
        {
          "pitch": 52,
          "onset": 172.5,
          "duration": 0.25,
          "velocity": 70
        },
        {
          "pitch": 50,
          "onset": 172.75,
          "duration": 0.25,
          "velocity": 70
        },
        {
          "pitch": 55,
          "onset": 173.0,
          "duration": 1.0,
          "velocity": 70
        },
        {
          "pitch": 59,
          "onset": 173.0,
          "duration": 1.0,
          "velocity": 70
        },
        {
          "pitch": 47,
          "onset": 173.25,
          "duration": 0.25,
          "velocity": 70
        },
        {
          "pitch": 45,
          "onset": 173.5,
          "duration": 0.25,
          "velocity": 70
        },
        {
          "pitch": 43,
          "onset": 173.75,
          "duration": 0.25,
          "velocity": 70
        },
        {
          "pitch": 50,
          "onset": 174.0,
          "duration": 1.0,
          "velocity": 70
        },
        {
          "pitch": 54,
          "onset": 174.0,
          "duration": 1.0,
          "velocity": 70
        },
        {
          "pitch": 62,
          "onset": 174.0,
          "duration": 1.0,
          "velocity": 70
        },
        {
          "pitch": 42,
          "onset": 174.25,
          "duration": 0.25,
          "velocity": 70
        },
        {
          "pitch": 40,
          "onset": 174.5,
          "duration": 0.25,
          "velocity": 70
        },
        {
          "pitch": 38,
          "onset": 174.75,
          "duration": 0.25,
          "velocity": 70
        },
        {
          "pitch": 43,
          "onset": 175.0,
          "duration": 1.0,
          "velocity": 70
        },
        {
          "pitch": 74,
          "onset": 175.25,
          "duration": 0.25,
          "velocity": 100
        },
        {
          "pitch": 72,
          "onset": 175.5,
          "duration": 0.0625,
          "velocity": 100
        },
        {
          "pitch": 74,
          "onset": 175.5625,
          "duration": 0.0625,
          "velocity": 100
        },
        {
          "pitch": 72,
          "onset": 175.625,
          "duration": 0.125,
          "velocity": 100
        },
        {
          "pitch": 71,
          "onset": 175.75,
          "duration": 0.25,
          "velocity": 100
        },
        {
          "pitch": 76,
          "onset": 176.0,
          "duration": 1.0,
          "velocity": 100
        },
        {
          "pitch": 68,
          "onset": 176.25,
          "duration": 0.25,
          "velocity": 100
        },
        {
          "pitch": 66,
          "onset": 176.5,
          "duration": 0.25,
          "velocity": 100
        },
        {
          "pitch": 64,
          "onset": 176.75,
          "duration": 0.25,
          "velocity": 100
        },
        {
          "pitch": 69,
          "onset": 177.0,
          "duration": 1.0,
          "velocity": 100
        },
        {
          "pitch": 72,
          "onset": 177.0,
          "duration": 1.0,
          "velocity": 100
        },
        {
          "pitch": 60,
          "onset": 177.25,
          "duration": 0.25,
          "velocity": 70
        },
        {
          "pitch": 59,
          "onset": 177.5,
          "duration": 0.25,
          "velocity": 70
        },
        {
          "pitch": 57,
          "onset": 177.75,
          "duration": 0.25,
          "velocity": 70
        },
        {
          "pitch": 64,
          "onset": 178.0,
          "duration": 1.0,
          "velocity": 100
        },
        {
          "pitch": 68,
          "onset": 178.0,
          "duration": 1.0,
          "velocity": 100
        },
        {
          "pitch": 76,
          "onset": 178.0,
          "duration": 1.0,
          "velocity": 100
        },
        {
          "pitch": 56,
          "onset": 178.25,
          "duration": 0.25,
          "velocity": 70
        },
        {
          "pitch": 54,
          "onset": 178.5,
          "duration": 0.25,
          "velocity": 70
        },
        {
          "pitch": 52,
          "onset": 178.75,
          "duration": 0.25,
          "velocity": 70
        },
        {
          "pitch": 57,
          "onset": 179.0,
          "duration": 0.5,
          "velocity": 70
        },
        {
          "pitch": 60,
          "onset": 179.25,
          "duration": 0.25,
          "velocity": 70
        },
        {
          "pitch": 45,
          "onset": 179.5,
          "duration": 0.5,
          "velocity": 70
        },
        {
          "pitch": 59,
          "onset": 179.5,
          "duration": 0.25,
          "velocity": 70
        },
        {
          "pitch": 57,
          "onset": 179.75,
          "duration": 0.25,
          "velocity": 70
        },
        {
          "pitch": 64,
          "onset": 180.0,
          "duration": 1.0,
          "velocity": 70
        },
        {
          "pitch": 56,
          "onset": 180.25,
          "duration": 0.25,
          "velocity": 70
        },
        {
          "pitch": 54,
          "onset": 180.5,
          "duration": 0.25,
          "velocity": 70
        },
        {
          "pitch": 52,
          "onset": 180.75,
          "duration": 0.25,
          "velocity": 70
        },
        {
          "pitch": 57,
          "onset": 181.0,
          "duration": 1.0,
          "velocity": 70
        },
        {
          "pitch": 60,
          "onset": 181.0,
          "duration": 1.0,
          "velocity": 70
        },
        {
          "pitch": 48,
          "onset": 181.25,
          "duration": 0.25,
          "velocity": 70
        },
        {
          "pitch": 47,
          "onset": 181.5,
          "duration": 0.25,
          "velocity": 70
        },
        {
          "pitch": 45,
          "onset": 181.75,
          "duration": 0.25,
          "velocity": 70
        },
        {
          "pitch": 52,
          "onset": 182.0,
          "duration": 1.0,
          "velocity": 70
        },
        {
          "pitch": 55,
          "onset": 182.0,
          "duration": 1.0,
          "velocity": 70
        },
        {
          "pitch": 64,
          "onset": 182.0,
          "duration": 1.0,
          "velocity": 70
        },
        {
          "pitch": 44,
          "onset": 182.25,
          "duration": 0.25,
          "velocity": 70
        },
        {
          "pitch": 42,
          "onset": 182.5,
          "duration": 0.25,
          "velocity": 70
        },
        {
          "pitch": 40,
          "onset": 182.75,
          "duration": 0.25,
          "velocity": 70
        },
        {
          "pitch": 45,
          "onset": 183.0,
          "duration": 1.0,
          "velocity": 70
        },
        {
          "pitch": 76,
          "onset": 183.25,
          "duration": 0.25,
          "velocity": 100
        },
        {
          "pitch": 74,
          "onset": 183.5,
          "duration": 0.25,
          "velocity": 100
        },
        {
          "pitch": 72,
          "onset": 183.75,
          "duration": 0.25,
          "velocity": 100
        },
        {
          "pitch": 79,
          "onset": 184.0,
          "duration": 1.0,
          "velocity": 100
        },
        {
          "pitch": 71,
          "onset": 184.25,
          "duration": 0.25,
          "velocity": 100
        },
        {
          "pitch": 69,
          "onset": 184.5,
          "duration": 0.25,
          "velocity": 100
        },
        {
          "pitch": 67,
          "onset": 184.75,
          "duration": 0.25,
          "velocity": 100
        },
        {
          "pitch": 72,
          "onset": 185.0,
          "duration": 1.0,
          "velocity": 100
        },
        {
          "pitch": 76,
          "onset": 185.0,
          "duration": 1.0,
          "velocity": 100
        },
        {
          "pitch": 64,
          "onset": 185.25,
          "duration": 0.25,
          "velocity": 100
        },
        {
          "pitch": 62,
          "onset": 185.5,
          "duration": 0.25,
          "velocity": 100
        },
        {
          "pitch": 60,
          "onset": 185.75,
          "duration": 0.25,
          "velocity": 100
        },
        {
          "pitch": 67,
          "onset": 186.0,
          "duration": 1.0,
          "velocity": 100
        },
        {
          "pitch": 71,
          "onset": 186.0,
          "duration": 1.0,
          "velocity": 100
        },
        {
          "pitch": 79,
          "onset": 186.0,
          "duration": 1.0,
          "velocity": 100
        },
        {
          "pitch": 59,
          "onset": 186.25,
          "duration": 0.25,
          "velocity": 100
        },
        {
          "pitch": 57,
          "onset": 186.5,
          "duration": 0.25,
          "velocity": 100
        },
        {
          "pitch": 55,
          "onset": 186.75,
          "duration": 0.25,
          "velocity": 100
        },
        {
          "pitch": 60,
          "onset": 187.0,
          "duration": 0.5,
          "velocity": 100
        },
        {
          "pitch": 64,
          "onset": 187.25,
          "duration": 0.25,
          "velocity": 70
        },
        {
          "pitch": 48,
          "onset": 187.5,
          "duration": 0.5,
          "velocity": 100
        },
        {
          "pitch": 62,
          "onset": 187.5,
          "duration": 0.25,
          "velocity": 70
        },
        {
          "pitch": 60,
          "onset": 187.75,
          "duration": 0.25,
          "velocity": 70
        },
        {
          "pitch": 67,
          "onset": 188.0,
          "duration": 1.0,
          "velocity": 70
        },
        {
          "pitch": 59,
          "onset": 188.25,
          "duration": 0.25,
          "velocity": 70
        },
        {
          "pitch": 57,
          "onset": 188.5,
          "duration": 0.25,
          "velocity": 70
        },
        {
          "pitch": 55,
          "onset": 188.75,
          "duration": 0.25,
          "velocity": 70
        },
        {
          "pitch": 60,
          "onset": 189.0,
          "duration": 1.0,
          "velocity": 70
        },
        {
          "pitch": 64,
          "onset": 189.0,
          "duration": 1.0,
          "velocity": 70
        },
        {
          "pitch": 52,
          "onset": 189.25,
          "duration": 0.25,
          "velocity": 70
        },
        {
          "pitch": 50,
          "onset": 189.5,
          "duration": 0.25,
          "velocity": 70
        },
        {
          "pitch": 48,
          "onset": 189.75,
          "duration": 0.25,
          "velocity": 70
        },
        {
          "pitch": 55,
          "onset": 190.0,
          "duration": 1.0,
          "velocity": 70
        },
        {
          "pitch": 59,
          "onset": 190.0,
          "duration": 1.0,
          "velocity": 70
        },
        {
          "pitch": 67,
          "onset": 190.0,
          "duration": 1.0,
          "velocity": 70
        },
        {
          "pitch": 47,
          "onset": 190.25,
          "duration": 0.25,
          "velocity": 70
        },
        {
          "pitch": 45,
          "onset": 190.5,
          "duration": 0.25,
          "velocity": 70
        },
        {
          "pitch": 43,
          "onset": 190.75,
          "duration": 0.25,
          "velocity": 70
        },
        {
          "pitch": 48,
          "onset": 191.0,
          "duration": 0.5,
          "velocity": 70
        },
        {
          "pitch": 79,
          "onset": 191.25,
          "duration": 0.25,
          "velocity": 100
        },
        {
          "pitch": 36,
          "onset": 191.5,
          "duration": 0.5,
          "velocity": 70
        },
        {
          "pitch": 78,
          "onset": 191.5,
          "duration": 0.25,
          "velocity": 100
        },
        {
          "pitch": 76,
          "onset": 191.75,
          "duration": 0.25,
          "velocity": 100
        },
        {
          "pitch": 81,
          "onset": 192.0,
          "duration": 1.0,
          "velocity": 100
        },
        {
          "pitch": 73,
          "onset": 192.25,
          "duration": 0.25,
          "velocity": 100
        },
        {
          "pitch": 71,
          "onset": 192.5,
          "duration": 0.25,
          "velocity": 100
        },
        {
          "pitch": 69,
          "onset": 192.75,
          "duration": 0.25,
          "velocity": 100
        },
        {
          "pitch": 74,
          "onset": 193.0,
          "duration": 1.0,
          "velocity": 100
        },
        {
          "pitch": 78,
          "onset": 193.0,
          "duration": 1.0,
          "velocity": 100
        },
        {
          "pitch": 66,
          "onset": 193.25,
          "duration": 0.25,
          "velocity": 100
        },
        {
          "pitch": 64,
          "onset": 193.5,
          "duration": 0.25,
          "velocity": 100
        },
        {
          "pitch": 62,
          "onset": 193.75,
          "duration": 0.25,
          "velocity": 100
        },
        {
          "pitch": 69,
          "onset": 194.0,
          "duration": 1.0,
          "velocity": 100
        },
        {
          "pitch": 73,
          "onset": 194.0,
          "duration": 1.0,
          "velocity": 100
        },
        {
          "pitch": 81,
          "onset": 194.0,
          "duration": 1.0,
          "velocity": 100
        },
        {
          "pitch": 61,
          "onset": 194.25,
          "duration": 0.25,
          "velocity": 100
        },
        {
          "pitch": 59,
          "onset": 194.5,
          "duration": 0.25,
          "velocity": 100
        },
        {
          "pitch": 57,
          "onset": 194.75,
          "duration": 0.25,
          "velocity": 100
        },
        {
          "pitch": 62,
          "onset": 195.0,
          "duration": 0.5,
          "velocity": 100
        },
        {
          "pitch": 66,
          "onset": 195.25,
          "duration": 0.25,
          "velocity": 70
        },
        {
          "pitch": 50,
          "onset": 195.5,
          "duration": 0.5,
          "velocity": 100
        },
        {
          "pitch": 64,
          "onset": 195.5,
          "duration": 0.25,
          "velocity": 70
        },
        {
          "pitch": 62,
          "onset": 195.75,
          "duration": 0.25,
          "velocity": 70
        },
        {
          "pitch": 69,
          "onset": 196.0,
          "duration": 1.0,
          "velocity": 70
        },
        {
          "pitch": 61,
          "onset": 196.25,
          "duration": 0.25,
          "velocity": 70
        },
        {
          "pitch": 59,
          "onset": 196.5,
          "duration": 0.25,
          "velocity": 70
        },
        {
          "pitch": 57,
          "onset": 196.75,
          "duration": 0.25,
          "velocity": 70
        },
        {
          "pitch": 62,
          "onset": 197.0,
          "duration": 1.0,
          "velocity": 70
        },
        {
          "pitch": 66,
          "onset": 197.0,
          "duration": 1.0,
          "velocity": 70
        },
        {
          "pitch": 54,
          "onset": 197.25,
          "duration": 0.25,
          "velocity": 70
        },
        {
          "pitch": 52,
          "onset": 197.5,
          "duration": 0.25,
          "velocity": 70
        },
        {
          "pitch": 50,
          "onset": 197.75,
          "duration": 0.25,
          "velocity": 70
        },
        {
          "pitch": 57,
          "onset": 198.0,
          "duration": 1.0,
          "velocity": 70
        },
        {
          "pitch": 61,
          "onset": 198.0,
          "duration": 1.0,
          "velocity": 70
        },
        {
          "pitch": 69,
          "onset": 198.0,
          "duration": 1.0,
          "velocity": 70
        },
        {
          "pitch": 49,
          "onset": 198.25,
          "duration": 0.25,
          "velocity": 70
        },
        {
          "pitch": 47,
          "onset": 198.5,
          "duration": 0.25,
          "velocity": 70
        },
        {
          "pitch": 45,
          "onset": 198.75,
          "duration": 0.25,
          "velocity": 70
        },
        {
          "pitch": 50,
          "onset": 199.0,
          "duration": 0.5,
          "velocity": 70
        },
        {
          "pitch": 81,
          "onset": 199.25,
          "duration": 0.25,
          "velocity": 100
        },
        {
          "pitch": 38,
          "onset": 199.5,
          "duration": 0.5,
          "velocity": 70
        },
        {
          "pitch": 79,
          "onset": 199.5,
          "duration": 0.25,
          "velocity": 100
        },
        {
          "pitch": 78,
          "onset": 199.75,
          "duration": 0.25,
          "velocity": 100
        },
        {
          "pitch": 83,
          "onset": 200.0,
          "duration": 1.0,
          "velocity": 100
        },
        {
          "pitch": 75,
          "onset": 200.25,
          "duration": 0.25,
          "velocity": 100
        },
        {
          "pitch": 73,
          "onset": 200.5,
          "duration": 0.25,
          "velocity": 100
        },
        {
          "pitch": 71,
          "onset": 200.75,
          "duration": 0.25,
          "velocity": 100
        },
        {
          "pitch": 76,
          "onset": 201.0,
          "duration": 1.0,
          "velocity": 100
        },
        {
          "pitch": 79,
          "onset": 201.0,
          "duration": 1.0,
          "velocity": 100
        },
        {
          "pitch": 67,
          "onset": 201.25,
          "duration": 0.25,
          "velocity": 100
        },
        {
          "pitch": 66,
          "onset": 201.5,
          "duration": 0.25,
          "velocity": 100
        },
        {
          "pitch": 64,
          "onset": 201.75,
          "duration": 0.25,
          "velocity": 100
        },
        {
          "pitch": 71,
          "onset": 202.0,
          "duration": 1.0,
          "velocity": 100
        },
        {
          "pitch": 75,
          "onset": 202.0,
          "duration": 1.0,
          "velocity": 100
        },
        {
          "pitch": 83,
          "onset": 202.0,
          "duration": 1.0,
          "velocity": 100
        },
        {
          "pitch": 63,
          "onset": 202.25,
          "duration": 0.25,
          "velocity": 100
        },
        {
          "pitch": 61,
          "onset": 202.5,
          "duration": 0.25,
          "velocity": 100
        },
        {
          "pitch": 59,
          "onset": 202.75,
          "duration": 0.25,
          "velocity": 100
        },
        {
          "pitch": 64,
          "onset": 203.0,
          "duration": 0.5,
          "velocity": 100
        },
        {
          "pitch": 67,
          "onset": 203.25,
          "duration": 0.25,
          "velocity": 70
        },
        {
          "pitch": 52,
          "onset": 203.5,
          "duration": 0.5,
          "velocity": 100
        },
        {
          "pitch": 66,
          "onset": 203.5,
          "duration": 0.25,
          "velocity": 70
        },
        {
          "pitch": 64,
          "onset": 203.75,
          "duration": 0.25,
          "velocity": 70
        },
        {
          "pitch": 71,
          "onset": 204.0,
          "duration": 1.0,
          "velocity": 70
        },
        {
          "pitch": 63,
          "onset": 204.25,
          "duration": 0.25,
          "velocity": 70
        },
        {
          "pitch": 61,
          "onset": 204.5,
          "duration": 0.25,
          "velocity": 70
        },
        {
          "pitch": 59,
          "onset": 204.75,
          "duration": 0.25,
          "velocity": 70
        },
        {
          "pitch": 64,
          "onset": 205.0,
          "duration": 1.0,
          "velocity": 70
        },
        {
          "pitch": 67,
          "onset": 205.0,
          "duration": 1.0,
          "velocity": 70
        },
        {
          "pitch": 55,
          "onset": 205.25,
          "duration": 0.25,
          "velocity": 70
        },
        {
          "pitch": 54,
          "onset": 205.5,
          "duration": 0.25,
          "velocity": 70
        },
        {
          "pitch": 52,
          "onset": 205.75,
          "duration": 0.25,
          "velocity": 70
        },
        {
          "pitch": 59,
          "onset": 206.0,
          "duration": 1.0,
          "velocity": 70
        },
        {
          "pitch": 63,
          "onset": 206.0,
          "duration": 1.0,
          "velocity": 70
        },
        {
          "pitch": 71,
          "onset": 206.0,
          "duration": 1.0,
          "velocity": 70
        },
        {
          "pitch": 51,
          "onset": 206.25,
          "duration": 0.25,
          "velocity": 70
        },
        {
          "pitch": 49,
          "onset": 206.5,
          "duration": 0.25,
          "velocity": 70
        },
        {
          "pitch": 47,
          "onset": 206.75,
          "duration": 0.25,
          "velocity": 70
        },
        {
          "pitch": 52,
          "onset": 207.0,
          "duration": 0.5,
          "velocity": 70
        },
        {
          "pitch": 71,
          "onset": 207.25,
          "duration": 0.25,
          "velocity": 100
        },
        {
          "pitch": 40,
          "onset": 207.5,
          "duration": 0.5,
          "velocity": 70
        },
        {
          "pitch": 69,
          "onset": 207.5,
          "duration": 0.25,
          "velocity": 100
        },
        {
          "pitch": 67,
          "onset": 207.75,
          "duration": 0.25,
          "velocity": 100
        },
        {
          "pitch": 74,
          "onset": 208.0,
          "duration": 1.0,
          "velocity": 100
        },
        {
          "pitch": 66,
          "onset": 208.25,
          "duration": 0.25,
          "velocity": 100
        },
        {
          "pitch": 64,
          "onset": 208.5,
          "duration": 0.25,
          "velocity": 100
        },
        {
          "pitch": 62,
          "onset": 208.75,
          "duration": 0.25,
          "velocity": 100
        },
        {
          "pitch": 67,
          "onset": 209.0,
          "duration": 1.0,
          "velocity": 100
        },
        {
          "pitch": 71,
          "onset": 209.0,
          "duration": 1.0,
          "velocity": 100
        },
        {
          "pitch": 59,
          "onset": 209.25,
          "duration": 0.25,
          "velocity": 100
        },
        {
          "pitch": 57,
          "onset": 209.5,
          "duration": 0.25,
          "velocity": 100
        },
        {
          "pitch": 55,
          "onset": 209.75,
          "duration": 0.25,
          "velocity": 100
        },
        {
          "pitch": 62,
          "onset": 210.0,
          "duration": 1.0,
          "velocity": 100
        },
        {
          "pitch": 66,
          "onset": 210.0,
          "duration": 1.0,
          "velocity": 100
        },
        {
          "pitch": 74,
          "onset": 210.0,
          "duration": 1.0,
          "velocity": 100
        },
        {
          "pitch": 57,
          "onset": 210.25,
          "duration": 0.25,
          "velocity": 100
        },
        {
          "pitch": 54,
          "onset": 210.5,
          "duration": 0.25,
          "velocity": 100
        },
        {
          "pitch": 50,
          "onset": 210.75,
          "duration": 0.25,
          "velocity": 100
        },
        {
          "pitch": 51,
          "onset": 211.0,
          "duration": 1.0,
          "velocity": 100
        },
        {
          "pitch": 69,
          "onset": 211.25,
          "duration": 0.25,
          "velocity": 100
        },
        {
          "pitch": 71,
          "onset": 211.5,
          "duration": 0.25,
          "velocity": 100
        },
        {
          "pitch": 66,
          "onset": 211.75,
          "duration": 0.25,
          "velocity": 100
        },
        {
          "pitch": 52,
          "onset": 212.0,
          "duration": 1.0,
          "velocity": 100
        },
        {
          "pitch": 67,
          "onset": 212.0,
          "duration": 1.0,
          "velocity": 100
        },
        {
          "pitch": 63,
          "onset": 212.25,
          "duration": 0.25,
          "velocity": 100
        },
        {
          "pitch": 64,
          "onset": 212.5,
          "duration": 0.25,
          "velocity": 100
        },
        {
          "pitch": 61,
          "onset": 212.75,
          "duration": 0.25,
          "velocity": 100
        },
        {
          "pitch": 47,
          "onset": 213.0,
          "duration": 1.0,
          "velocity": 100
        },
        {
          "pitch": 63,
          "onset": 213.0,
          "duration": 1.0,
          "velocity": 100
        },
        {
          "pitch": 66,
          "onset": 213.0,
          "duration": 1.0,
          "velocity": 100
        },
        {
          "pitch": 57,
          "onset": 213.25,
          "duration": 0.25,
          "velocity": 100
        },
        {
          "pitch": 59,
          "onset": 213.5,
          "duration": 0.25,
          "velocity": 100
        },
        {
          "pitch": 54,
          "onset": 213.75,
          "duration": 0.25,
          "velocity": 100
        },
        {
          "pitch": 52,
          "onset": 214.0,
          "duration": 0.25,
          "velocity": 100
        },
        {
          "pitch": 55,
          "onset": 214.0,
          "duration": 1.0,
          "velocity": 100
        },
        {
          "pitch": 64,
          "onset": 214.0,
          "duration": 1.0,
          "velocity": 100
        },
        {
          "pitch": 47,
          "onset": 214.25,
          "duration": 0.25,
          "velocity": 100
        },
        {
          "pitch": 43,
          "onset": 214.5,
          "duration": 0.25,
          "velocity": 100
        },
        {
          "pitch": 40,
          "onset": 214.75,
          "duration": 0.25,
          "velocity": 100
        },
        {
          "pitch": 51,
          "onset": 215.0,
          "duration": 1.0,
          "velocity": 100
        },
        {
          "pitch": 69,
          "onset": 215.25,
          "duration": 0.25,
          "velocity": 70
        },
        {
          "pitch": 71,
          "onset": 215.5,
          "duration": 0.25,
          "velocity": 70
        },
        {
          "pitch": 67,
          "onset": 215.75,
          "duration": 0.25,
          "velocity": 70
        },
        {
          "pitch": 52,
          "onset": 216.0,
          "duration": 1.0,
          "velocity": 70
        },
        {
          "pitch": 67,
          "onset": 216.0,
          "duration": 1.0,
          "velocity": 70
        },
        {
          "pitch": 63,
          "onset": 216.25,
          "duration": 0.25,
          "velocity": 70
        },
        {
          "pitch": 64,
          "onset": 216.5,
          "duration": 0.25,
          "velocity": 70
        },
        {
          "pitch": 61,
          "onset": 216.75,
          "duration": 0.25,
          "velocity": 70
        },
        {
          "pitch": 47,
          "onset": 217.0,
          "duration": 1.0,
          "velocity": 70
        },
        {
          "pitch": 63,
          "onset": 217.0,
          "duration": 1.0,
          "velocity": 70
        },
        {
          "pitch": 66,
          "onset": 217.0,
          "duration": 1.0,
          "velocity": 70
        },
        {
          "pitch": 57,
          "onset": 217.25,
          "duration": 0.25,
          "velocity": 70
        },
        {
          "pitch": 59,
          "onset": 217.5,
          "duration": 0.25,
          "velocity": 70
        },
        {
          "pitch": 54,
          "onset": 217.75,
          "duration": 0.25,
          "velocity": 70
        },
        {
          "pitch": 52,
          "onset": 218.0,
          "duration": 0.25,
          "velocity": 70
        },
        {
          "pitch": 55,
          "onset": 218.0,
          "duration": 1.0,
          "velocity": 70
        },
        {
          "pitch": 64,
          "onset": 218.0,
          "duration": 1.0,
          "velocity": 70
        },
        {
          "pitch": 47,
          "onset": 218.25,
          "duration": 0.25,
          "velocity": 70
        },
        {
          "pitch": 43,
          "onset": 218.5,
          "duration": 0.25,
          "velocity": 70
        },
        {
          "pitch": 40,
          "onset": 218.75,
          "duration": 0.25,
          "velocity": 70
        },
        {
          "pitch": 67,
          "onset": 219.25,
          "duration": 0.25,
          "velocity": 100
        },
        {
          "pitch": 66,
          "onset": 219.5,
          "duration": 0.25,
          "velocity": 100
        },
        {
          "pitch": 64,
          "onset": 219.75,
          "duration": 0.25,
          "velocity": 100
        },
        {
          "pitch": 69,
          "onset": 220.0,
          "duration": 1.0,
          "velocity": 100
        },
        {
          "pitch": 61,
          "onset": 220.25,
          "duration": 0.25,
          "velocity": 100
        },
        {
          "pitch": 59,
          "onset": 220.5,
          "duration": 0.25,
          "velocity": 100
        },
        {
          "pitch": 57,
          "onset": 220.75,
          "duration": 0.25,
          "velocity": 100
        },
        {
          "pitch": 62,
          "onset": 221.0,
          "duration": 1.0,
          "velocity": 100
        },
        {
          "pitch": 66,
          "onset": 221.0,
          "duration": 1.0,
          "velocity": 100
        },
        {
          "pitch": 54,
          "onset": 221.25,
          "duration": 0.25,
          "velocity": 100
        },
        {
          "pitch": 52,
          "onset": 221.5,
          "duration": 0.25,
          "velocity": 100
        },
        {
          "pitch": 50,
          "onset": 221.75,
          "duration": 0.25,
          "velocity": 100
        },
        {
          "pitch": 61,
          "onset": 222.0,
          "duration": 1.0,
          "velocity": 100
        },
        {
          "pitch": 69,
          "onset": 222.0,
          "duration": 1.0,
          "velocity": 100
        },
        {
          "pitch": 52,
          "onset": 222.25,
          "duration": 0.25,
          "velocity": 100
        },
        {
          "pitch": 49,
          "onset": 222.5,
          "duration": 0.25,
          "velocity": 100
        },
        {
          "pitch": 45,
          "onset": 222.75,
          "duration": 0.25,
          "velocity": 100
        },
        {
          "pitch": 58,
          "onset": 223.0,
          "duration": 1.0,
          "velocity": 100
        },
        {
          "pitch": 76,
          "onset": 223.25,
          "duration": 0.25,
          "velocity": 100
        },
        {
          "pitch": 78,
          "onset": 223.5,
          "duration": 0.25,
          "velocity": 100
        },
        {
          "pitch": 73,
          "onset": 223.75,
          "duration": 0.25,
          "velocity": 100
        },
        {
          "pitch": 59,
          "onset": 224.0,
          "duration": 1.0,
          "velocity": 100
        },
        {
          "pitch": 74,
          "onset": 224.0,
          "duration": 1.0,
          "velocity": 100
        },
        {
          "pitch": 70,
          "onset": 224.25,
          "duration": 0.25,
          "velocity": 100
        },
        {
          "pitch": 71,
          "onset": 224.5,
          "duration": 0.25,
          "velocity": 100
        },
        {
          "pitch": 68,
          "onset": 224.75,
          "duration": 0.25,
          "velocity": 100
        },
        {
          "pitch": 54,
          "onset": 225.0,
          "duration": 1.0,
          "velocity": 100
        },
        {
          "pitch": 70,
          "onset": 225.0,
          "duration": 1.0,
          "velocity": 100
        },
        {
          "pitch": 73,
          "onset": 225.0,
          "duration": 1.0,
          "velocity": 100
        },
        {
          "pitch": 64,
          "onset": 225.25,
          "duration": 0.25,
          "velocity": 100
        },
        {
          "pitch": 66,
          "onset": 225.5,
          "duration": 0.25,
          "velocity": 100
        },
        {
          "pitch": 61,
          "onset": 225.75,
          "duration": 0.25,
          "velocity": 100
        },
        {
          "pitch": 59,
          "onset": 226.0,
          "duration": 0.25,
          "velocity": 100
        },
        {
          "pitch": 62,
          "onset": 226.0,
          "duration": 1.0,
          "velocity": 100
        },
        {
          "pitch": 71,
          "onset": 226.0,
          "duration": 1.0,
          "velocity": 100
        },
        {
          "pitch": 54,
          "onset": 226.25,
          "duration": 0.25,
          "velocity": 100
        },
        {
          "pitch": 50,
          "onset": 226.5,
          "duration": 0.25,
          "velocity": 100
        },
        {
          "pitch": 47,
          "onset": 226.75,
          "duration": 0.25,
          "velocity": 100
        },
        {
          "pitch": 58,
          "onset": 227.0,
          "duration": 1.0,
          "velocity": 100
        },
        {
          "pitch": 76,
          "onset": 227.25,
          "duration": 0.25,
          "velocity": 70
        },
        {
          "pitch": 78,
          "onset": 227.5,
          "duration": 0.25,
          "velocity": 70
        },
        {
          "pitch": 73,
          "onset": 227.75,
          "duration": 0.25,
          "velocity": 70
        },
        {
          "pitch": 59,
          "onset": 228.0,
          "duration": 1.0,
          "velocity": 70
        },
        {
          "pitch": 74,
          "onset": 228.0,
          "duration": 1.0,
          "velocity": 70
        },
        {
          "pitch": 70,
          "onset": 228.25,
          "duration": 0.25,
          "velocity": 70
        },
        {
          "pitch": 71,
          "onset": 228.5,
          "duration": 0.25,
          "velocity": 70
        },
        {
          "pitch": 68,
          "onset": 228.75,
          "duration": 0.25,
          "velocity": 70
        },
        {
          "pitch": 54,
          "onset": 229.0,
          "duration": 1.0,
          "velocity": 70
        },
        {
          "pitch": 70,
          "onset": 229.0,
          "duration": 1.0,
          "velocity": 70
        },
        {
          "pitch": 73,
          "onset": 229.0,
          "duration": 1.0,
          "velocity": 70
        },
        {
          "pitch": 64,
          "onset": 229.25,
          "duration": 0.25,
          "velocity": 70
        },
        {
          "pitch": 66,
          "onset": 229.5,
          "duration": 0.25,
          "velocity": 70
        },
        {
          "pitch": 61,
          "onset": 229.75,
          "duration": 0.25,
          "velocity": 70
        },
        {
          "pitch": 59,
          "onset": 230.0,
          "duration": 0.25,
          "velocity": 70
        },
        {
          "pitch": 62,
          "onset": 230.0,
          "duration": 1.0,
          "velocity": 70
        },
        {
          "pitch": 71,
          "onset": 230.0,
          "duration": 1.0,
          "velocity": 70
        },
        {
          "pitch": 54,
          "onset": 230.25,
          "duration": 0.25,
          "velocity": 70
        },
        {
          "pitch": 50,
          "onset": 230.5,
          "duration": 0.25,
          "velocity": 70
        },
        {
          "pitch": 47,
          "onset": 230.75,
          "duration": 0.25,
          "velocity": 70
        },
        {
          "pitch": 59,
          "onset": 231.25,
          "duration": 0.25,
          "velocity": 100
        },
        {
          "pitch": 57,
          "onset": 231.5,
          "duration": 0.25,
          "velocity": 100
        },
        {
          "pitch": 55,
          "onset": 231.75,
          "duration": 0.25,
          "velocity": 100
        },
        {
          "pitch": 62,
          "onset": 232.0,
          "duration": 1.0,
          "velocity": 100
        },
        {
          "pitch": 54,
          "onset": 232.25,
          "duration": 0.25,
          "velocity": 100
        },
        {
          "pitch": 52,
          "onset": 232.5,
          "duration": 0.25,
          "velocity": 100
        },
        {
          "pitch": 50,
          "onset": 232.75,
          "duration": 0.25,
          "velocity": 100
        },
        {
          "pitch": 55,
          "onset": 233.0,
          "duration": 1.0,
          "velocity": 100
        },
        {
          "pitch": 59,
          "onset": 233.0,
          "duration": 1.0,
          "velocity": 100
        },
        {
          "pitch": 47,
          "onset": 233.25,
          "duration": 0.25,
          "velocity": 100
        },
        {
          "pitch": 45,
          "onset": 233.5,
          "duration": 0.25,
          "velocity": 100
        },
        {
          "pitch": 43,
          "onset": 233.75,
          "duration": 0.25,
          "velocity": 100
        },
        {
          "pitch": 50,
          "onset": 234.0,
          "duration": 1.0,
          "velocity": 100
        },
        {
          "pitch": 54,
          "onset": 234.0,
          "duration": 1.0,
          "velocity": 100
        },
        {
          "pitch": 62,
          "onset": 234.0,
          "duration": 1.0,
          "velocity": 100
        },
        {
          "pitch": 45,
          "onset": 234.25,
          "duration": 0.25,
          "velocity": 100
        },
        {
          "pitch": 42,
          "onset": 234.5,
          "duration": 0.25,
          "velocity": 100
        },
        {
          "pitch": 38,
          "onset": 234.75,
          "duration": 0.25,
          "velocity": 100
        },
        {
          "pitch": 51,
          "onset": 235.0,
          "duration": 1.0,
          "velocity": 100
        },
        {
          "pitch": 69,
          "onset": 235.25,
          "duration": 0.25,
          "velocity": 100
        },
        {
          "pitch": 71,
          "onset": 235.5,
          "duration": 0.25,
          "velocity": 100
        },
        {
          "pitch": 67,
          "onset": 235.75,
          "duration": 0.25,
          "velocity": 100
        },
        {
          "pitch": 52,
          "onset": 236.0,
          "duration": 1.0,
          "velocity": 100
        },
        {
          "pitch": 67,
          "onset": 236.0,
          "duration": 1.0,
          "velocity": 100
        },
        {
          "pitch": 63,
          "onset": 236.25,
          "duration": 0.25,
          "velocity": 100
        },
        {
          "pitch": 64,
          "onset": 236.5,
          "duration": 0.25,
          "velocity": 100
        },
        {
          "pitch": 61,
          "onset": 236.75,
          "duration": 0.25,
          "velocity": 100
        },
        {
          "pitch": 47,
          "onset": 237.0,
          "duration": 1.0,
          "velocity": 100
        },
        {
          "pitch": 63,
          "onset": 237.0,
          "duration": 1.0,
          "velocity": 100
        },
        {
          "pitch": 66,
          "onset": 237.0,
          "duration": 1.0,
          "velocity": 100
        },
        {
          "pitch": 57,
          "onset": 237.25,
          "duration": 0.25,
          "velocity": 100
        },
        {
          "pitch": 59,
          "onset": 237.5,
          "duration": 0.25,
          "velocity": 100
        },
        {
          "pitch": 54,
          "onset": 237.75,
          "duration": 0.25,
          "velocity": 100
        },
        {
          "pitch": 52,
          "onset": 238.0,
          "duration": 0.25,
          "velocity": 100
        },
        {
          "pitch": 55,
          "onset": 238.0,
          "duration": 1.0,
          "velocity": 100
        },
        {
          "pitch": 64,
          "onset": 238.0,
          "duration": 1.0,
          "velocity": 100
        },
        {
          "pitch": 47,
          "onset": 238.25,
          "duration": 0.25,
          "velocity": 100
        },
        {
          "pitch": 43,
          "onset": 238.5,
          "duration": 0.25,
          "velocity": 100
        },
        {
          "pitch": 40,
          "onset": 238.75,
          "duration": 0.25,
          "velocity": 100
        },
        {
          "pitch": 51,
          "onset": 239.0,
          "duration": 1.0,
          "velocity": 100
        },
        {
          "pitch": 69,
          "onset": 239.25,
          "duration": 0.25,
          "velocity": 70
        },
        {
          "pitch": 71,
          "onset": 239.5,
          "duration": 0.25,
          "velocity": 70
        },
        {
          "pitch": 66,
          "onset": 239.75,
          "duration": 0.25,
          "velocity": 70
        },
        {
          "pitch": 52,
          "onset": 240.0,
          "duration": 1.0,
          "velocity": 70
        },
        {
          "pitch": 67,
          "onset": 240.0,
          "duration": 1.0,
          "velocity": 70
        },
        {
          "pitch": 63,
          "onset": 240.25,
          "duration": 0.25,
          "velocity": 70
        },
        {
          "pitch": 64,
          "onset": 240.5,
          "duration": 0.25,
          "velocity": 70
        },
        {
          "pitch": 61,
          "onset": 240.75,
          "duration": 0.25,
          "velocity": 70
        },
        {
          "pitch": 47,
          "onset": 241.0,
          "duration": 1.0,
          "velocity": 70
        },
        {
          "pitch": 63,
          "onset": 241.0,
          "duration": 1.0,
          "velocity": 70
        },
        {
          "pitch": 66,
          "onset": 241.0,
          "duration": 1.0,
          "velocity": 70
        },
        {
          "pitch": 57,
          "onset": 241.25,
          "duration": 0.25,
          "velocity": 70
        },
        {
          "pitch": 59,
          "onset": 241.5,
          "duration": 0.25,
          "velocity": 70
        },
        {
          "pitch": 54,
          "onset": 241.75,
          "duration": 0.25,
          "velocity": 70
        },
        {
          "pitch": 52,
          "onset": 242.0,
          "duration": 0.25,
          "velocity": 70
        },
        {
          "pitch": 55,
          "onset": 242.0,
          "duration": 1.0,
          "velocity": 70
        },
        {
          "pitch": 64,
          "onset": 242.0,
          "duration": 1.0,
          "velocity": 70
        },
        {
          "pitch": 47,
          "onset": 242.25,
          "duration": 0.25,
          "velocity": 70
        },
        {
          "pitch": 43,
          "onset": 242.5,
          "duration": 0.25,
          "velocity": 70
        },
        {
          "pitch": 40,
          "onset": 242.75,
          "duration": 0.25,
          "velocity": 70
        },
        {
          "pitch": 71,
          "onset": 243.25,
          "duration": 0.25,
          "velocity": 100
        },
        {
          "pitch": 69,
          "onset": 243.5,
          "duration": 0.25,
          "velocity": 100
        },
        {
          "pitch": 71,
          "onset": 243.75,
          "duration": 0.25,
          "velocity": 100
        },
        {
          "pitch": 67,
          "onset": 244.0,
          "duration": 0.25,
          "velocity": 100
        },
        {
          "pitch": 69,
          "onset": 244.25,
          "duration": 0.25,
          "velocity": 100
        },
        {
          "pitch": 66,
          "onset": 244.5,
          "duration": 0.25,
          "velocity": 100
        },
        {
          "pitch": 67,
          "onset": 244.75,
          "duration": 0.25,
          "velocity": 100
        },
        {
          "pitch": 64,
          "onset": 245.0,
          "duration": 0.25,
          "velocity": 100
        },
        {
          "pitch": 52,
          "onset": 245.25,
          "duration": 0.25,
          "velocity": 100
        },
        {
          "pitch": 67,
          "onset": 245.25,
          "duration": 0.25,
          "velocity": 100
        },
        {
          "pitch": 51,
          "onset": 245.5,
          "duration": 0.25,
          "velocity": 100
        },
        {
          "pitch": 66,
          "onset": 245.5,
          "duration": 0.25,
          "velocity": 100
        },
        {
          "pitch": 54,
          "onset": 245.75,
          "duration": 0.25,
          "velocity": 100
        },
        {
          "pitch": 69,
          "onset": 245.75,
          "duration": 0.25,
          "velocity": 100
        },
        {
          "pitch": 52,
          "onset": 246.0,
          "duration": 0.25,
          "velocity": 100
        },
        {
          "pitch": 67,
          "onset": 246.0,
          "duration": 0.25,
          "velocity": 100
        },
        {
          "pitch": 54,
          "onset": 246.25,
          "duration": 0.25,
          "velocity": 100
        },
        {
          "pitch": 69,
          "onset": 246.25,
          "duration": 0.25,
          "velocity": 100
        },
        {
          "pitch": 51,
          "onset": 246.5,
          "duration": 0.25,
          "velocity": 100
        },
        {
          "pitch": 66,
          "onset": 246.5,
          "duration": 0.25,
          "velocity": 100
        },
        {
          "pitch": 54,
          "onset": 246.75,
          "duration": 0.25,
          "velocity": 100
        },
        {
          "pitch": 69,
          "onset": 246.75,
          "duration": 0.25,
          "velocity": 100
        },
        {
          "pitch": 52,
          "onset": 247.0,
          "duration": 0.25,
          "velocity": 100
        },
        {
          "pitch": 67,
          "onset": 247.0,
          "duration": 0.25,
          "velocity": 100
        },
        {
          "pitch": 55,
          "onset": 247.25,
          "duration": 0.25,
          "velocity": 100
        },
        {
          "pitch": 71,
          "onset": 247.25,
          "duration": 0.25,
          "velocity": 100
        },
        {
          "pitch": 54,
          "onset": 247.5,
          "duration": 0.25,
          "velocity": 100
        },
        {
          "pitch": 69,
          "onset": 247.5,
          "duration": 0.25,
          "velocity": 100
        },
        {
          "pitch": 57,
          "onset": 247.75,
          "duration": 0.25,
          "velocity": 100
        },
        {
          "pitch": 72,
          "onset": 247.75,
          "duration": 0.25,
          "velocity": 100
        },
        {
          "pitch": 55,
          "onset": 248.0,
          "duration": 0.25,
          "velocity": 100
        },
        {
          "pitch": 71,
          "onset": 248.0,
          "duration": 0.25,
          "velocity": 100
        },
        {
          "pitch": 57,
          "onset": 248.25,
          "duration": 0.25,
          "velocity": 100
        },
        {
          "pitch": 72,
          "onset": 248.25,
          "duration": 0.25,
          "velocity": 100
        },
        {
          "pitch": 54,
          "onset": 248.5,
          "duration": 0.25,
          "velocity": 100
        },
        {
          "pitch": 69,
          "onset": 248.5,
          "duration": 0.25,
          "velocity": 100
        },
        {
          "pitch": 57,
          "onset": 248.75,
          "duration": 0.25,
          "velocity": 100
        },
        {
          "pitch": 72,
          "onset": 248.75,
          "duration": 0.25,
          "velocity": 100
        },
        {
          "pitch": 55,
          "onset": 249.0,
          "duration": 0.25,
          "velocity": 100
        },
        {
          "pitch": 71,
          "onset": 249.0,
          "duration": 0.25,
          "velocity": 100
        },
        {
          "pitch": 59,
          "onset": 249.25,
          "duration": 0.25,
          "velocity": 100
        },
        {
          "pitch": 74,
          "onset": 249.25,
          "duration": 0.25,
          "velocity": 100
        },
        {
          "pitch": 57,
          "onset": 249.5,
          "duration": 0.25,
          "velocity": 100
        },
        {
          "pitch": 72,
          "onset": 249.5,
          "duration": 0.25,
          "velocity": 100
        },
        {
          "pitch": 60,
          "onset": 249.75,
          "duration": 0.25,
          "velocity": 100
        },
        {
          "pitch": 76,
          "onset": 249.75,
          "duration": 0.25,
          "velocity": 100
        },
        {
          "pitch": 59,
          "onset": 250.0,
          "duration": 1.9688,
          "velocity": 100
        },
        {
          "pitch": 74,
          "onset": 250.0,
          "duration": 0.25,
          "velocity": 100
        },
        {
          "pitch": 69,
          "onset": 250.25,
          "duration": 0.25,
          "velocity": 100
        },
        {
          "pitch": 71,
          "onset": 250.5,
          "duration": 0.25,
          "velocity": 100
        },
        {
          "pitch": 66,
          "onset": 250.75,
          "duration": 0.25,
          "velocity": 100
        },
        {
          "pitch": 67,
          "onset": 251.0,
          "duration": 0.25,
          "velocity": 100
        },
        {
          "pitch": 74,
          "onset": 251.25,
          "duration": 0.25,
          "velocity": 100
        },
        {
          "pitch": 76,
          "onset": 251.5,
          "duration": 0.25,
          "velocity": 100
        },
        {
          "pitch": 71,
          "onset": 251.75,
          "duration": 0.25,
          "velocity": 100
        },
        {
          "pitch": 57,
          "onset": 252.0,
          "duration": 1.9688,
          "velocity": 100
        },
        {
          "pitch": 72,
          "onset": 252.0,
          "duration": 0.25,
          "velocity": 100
        },
        {
          "pitch": 67,
          "onset": 252.25,
          "duration": 0.25,
          "velocity": 100
        },
        {
          "pitch": 69,
          "onset": 252.5,
          "duration": 0.25,
          "velocity": 100
        },
        {
          "pitch": 64,
          "onset": 252.75,
          "duration": 0.25,
          "velocity": 100
        },
        {
          "pitch": 66,
          "onset": 253.0,
          "duration": 0.25,
          "velocity": 100
        },
        {
          "pitch": 72,
          "onset": 253.25,
          "duration": 0.25,
          "velocity": 100
        },
        {
          "pitch": 74,
          "onset": 253.5,
          "duration": 0.25,
          "velocity": 100
        },
        {
          "pitch": 69,
          "onset": 253.75,
          "duration": 0.25,
          "velocity": 100
        },
        {
          "pitch": 55,
          "onset": 254.0,
          "duration": 1.9688,
          "velocity": 100
        },
        {
          "pitch": 71,
          "onset": 254.0,
          "duration": 0.25,
          "velocity": 100
        },
        {
          "pitch": 66,
          "onset": 254.25,
          "duration": 0.25,
          "velocity": 100
        },
        {
          "pitch": 67,
          "onset": 254.5,
          "duration": 0.25,
          "velocity": 100
        },
        {
          "pitch": 63,
          "onset": 254.75,
          "duration": 0.25,
          "velocity": 100
        },
        {
          "pitch": 64,
          "onset": 255.0,
          "duration": 0.25,
          "velocity": 100
        },
        {
          "pitch": 71,
          "onset": 255.25,
          "duration": 0.25,
          "velocity": 100
        },
        {
          "pitch": 72,
          "onset": 255.5,
          "duration": 0.25,
          "velocity": 100
        },
        {
          "pitch": 67,
          "onset": 255.75,
          "duration": 0.25,
          "velocity": 100
        },
        {
          "pitch": 54,
          "onset": 256.0,
          "duration": 1.9688,
          "velocity": 100
        },
        {
          "pitch": 69,
          "onset": 256.0,
          "duration": 0.25,
          "velocity": 100
        },
        {
          "pitch": 64,
          "onset": 256.25,
          "duration": 0.25,
          "velocity": 100
        },
        {
          "pitch": 66,
          "onset": 256.5,
          "duration": 0.25,
          "velocity": 100
        },
        {
          "pitch": 61,
          "onset": 256.75,
          "duration": 0.25,
          "velocity": 100
        },
        {
          "pitch": 63,
          "onset": 257.0,
          "duration": 0.25,
          "velocity": 100
        },
        {
          "pitch": 69,
          "onset": 257.25,
          "duration": 0.25,
          "velocity": 100
        },
        {
          "pitch": 71,
          "onset": 257.5,
          "duration": 0.25,
          "velocity": 100
        },
        {
          "pitch": 66,
          "onset": 257.75,
          "duration": 0.25,
          "velocity": 100
        },
        {
          "pitch": 52,
          "onset": 258.0,
          "duration": 1.9688,
          "velocity": 100
        },
        {
          "pitch": 67,
          "onset": 258.0,
          "duration": 0.25,
          "velocity": 100
        },
        {
          "pitch": 71,
          "onset": 258.25,
          "duration": 0.25,
          "velocity": 100
        },
        {
          "pitch": 76,
          "onset": 258.5,
          "duration": 0.25,
          "velocity": 100
        },
        {
          "pitch": 70,
          "onset": 258.75,
          "duration": 0.25,
          "velocity": 100
        },
        {
          "pitch": 71,
          "onset": 259.0,
          "duration": 0.25,
          "velocity": 100
        },
        {
          "pitch": 66,
          "onset": 259.25,
          "duration": 0.25,
          "velocity": 100
        },
        {
          "pitch": 67,
          "onset": 259.5,
          "duration": 0.25,
          "velocity": 100
        },
        {
          "pitch": 63,
          "onset": 259.75,
          "duration": 0.25,
          "velocity": 100
        },
        {
          "pitch": 64,
          "onset": 260.0,
          "duration": 1.0,
          "velocity": 100
        },
        {
          "pitch": 59,
          "onset": 260.25,
          "duration": 0.25,
          "velocity": 100
        },
        {
          "pitch": 57,
          "onset": 260.5,
          "duration": 0.25,
          "velocity": 100
        },
        {
          "pitch": 59,
          "onset": 260.75,
          "duration": 0.25,
          "velocity": 100
        },
        {
          "pitch": 55,
          "onset": 261.0,
          "duration": 0.25,
          "velocity": 100
        },
        {
          "pitch": 57,
          "onset": 261.25,
          "duration": 0.25,
          "velocity": 100
        },
        {
          "pitch": 54,
          "onset": 261.5,
          "duration": 0.25,
          "velocity": 100
        },
        {
          "pitch": 55,
          "onset": 261.75,
          "duration": 0.25,
          "velocity": 100
        },
        {
          "pitch": 52,
          "onset": 262.0,
          "duration": 0.25,
          "velocity": 100
        },
        {
          "pitch": 55,
          "onset": 262.25,
          "duration": 0.25,
          "velocity": 100
        },
        {
          "pitch": 76,
          "onset": 262.25,
          "duration": 0.25,
          "velocity": 100
        },
        {
          "pitch": 54,
          "onset": 262.5,
          "duration": 0.25,
          "velocity": 100
        },
        {
          "pitch": 74,
          "onset": 262.5,
          "duration": 0.25,
          "velocity": 100
        },
        {
          "pitch": 52,
          "onset": 262.75,
          "duration": 0.25,
          "velocity": 100
        },
        {
          "pitch": 73,
          "onset": 262.75,
          "duration": 0.25,
          "velocity": 100
        },
        {
          "pitch": 50,
          "onset": 263.0,
          "duration": 0.25,
          "velocity": 100
        },
        {
          "pitch": 71,
          "onset": 263.0,
          "duration": 0.25,
          "velocity": 100
        },
        {
          "pitch": 52,
          "onset": 263.25,
          "duration": 0.25,
          "velocity": 100
        },
        {
          "pitch": 73,
          "onset": 263.25,
          "duration": 0.25,
          "velocity": 100
        },
        {
          "pitch": 49,
          "onset": 263.5,
          "duration": 0.25,
          "velocity": 100
        },
        {
          "pitch": 70,
          "onset": 263.5,
          "duration": 0.25,
          "velocity": 100
        },
        {
          "pitch": 52,
          "onset": 263.75,
          "duration": 0.25,
          "velocity": 100
        },
        {
          "pitch": 73,
          "onset": 263.75,
          "duration": 0.25,
          "velocity": 100
        },
        {
          "pitch": 50,
          "onset": 264.0,
          "duration": 0.25,
          "velocity": 100
        },
        {
          "pitch": 71,
          "onset": 264.0,
          "duration": 0.25,
          "velocity": 100
        },
        {
          "pitch": 54,
          "onset": 264.25,
          "duration": 0.25,
          "velocity": 100
        },
        {
          "pitch": 74,
          "onset": 264.25,
          "duration": 0.25,
          "velocity": 100
        },
        {
          "pitch": 46,
          "onset": 264.5,
          "duration": 0.25,
          "velocity": 100
        },
        {
          "pitch": 73,
          "onset": 264.5,
          "duration": 0.25,
          "velocity": 100
        },
        {
          "pitch": 49,
          "onset": 264.75,
          "duration": 0.25,
          "velocity": 100
        },
        {
          "pitch": 76,
          "onset": 264.75,
          "duration": 0.25,
          "velocity": 100
        },
        {
          "pitch": 47,
          "onset": 265.0,
          "duration": 0.25,
          "velocity": 100
        },
        {
          "pitch": 74,
          "onset": 265.0,
          "duration": 0.25,
          "velocity": 100
        },
        {
          "pitch": 49,
          "onset": 265.25,
          "duration": 0.25,
          "velocity": 100
        },
        {
          "pitch": 76,
          "onset": 265.25,
          "duration": 0.25,
          "velocity": 100
        },
        {
          "pitch": 46,
          "onset": 265.5,
          "duration": 0.25,
          "velocity": 100
        },
        {
          "pitch": 73,
          "onset": 265.5,
          "duration": 0.25,
          "velocity": 100
        },
        {
          "pitch": 49,
          "onset": 265.75,
          "duration": 0.25,
          "velocity": 100
        },
        {
          "pitch": 76,
          "onset": 265.75,
          "duration": 0.25,
          "velocity": 100
        },
        {
          "pitch": 47,
          "onset": 266.0,
          "duration": 0.25,
          "velocity": 100
        },
        {
          "pitch": 74,
          "onset": 266.0,
          "duration": 0.25,
          "velocity": 100
        },
        {
          "pitch": 50,
          "onset": 266.25,
          "duration": 0.25,
          "velocity": 100
        },
        {
          "pitch": 78,
          "onset": 266.25,
          "duration": 0.25,
          "velocity": 100
        },
        {
          "pitch": 49,
          "onset": 266.5,
          "duration": 0.25,
          "velocity": 100
        },
        {
          "pitch": 76,
          "onset": 266.5,
          "duration": 0.25,
          "velocity": 100
        },
        {
          "pitch": 52,
          "onset": 266.75,
          "duration": 0.25,
          "velocity": 100
        },
        {
          "pitch": 79,
          "onset": 266.75,
          "duration": 0.25,
          "velocity": 100
        },
        {
          "pitch": 50,
          "onset": 267.0,
          "duration": 0.25,
          "velocity": 100
        },
        {
          "pitch": 78,
          "onset": 267.0,
          "duration": 0.25,
          "velocity": 100
        },
        {
          "pitch": 52,
          "onset": 267.25,
          "duration": 0.25,
          "velocity": 100
        },
        {
          "pitch": 79,
          "onset": 267.25,
          "duration": 0.25,
          "velocity": 100
        },
        {
          "pitch": 49,
          "onset": 267.5,
          "duration": 0.25,
          "velocity": 100
        },
        {
          "pitch": 76,
          "onset": 267.5,
          "duration": 0.25,
          "velocity": 100
        },
        {
          "pitch": 52,
          "onset": 267.75,
          "duration": 0.25,
          "velocity": 100
        },
        {
          "pitch": 79,
          "onset": 267.75,
          "duration": 0.25,
          "velocity": 100
        },
        {
          "pitch": 50,
          "onset": 268.0,
          "duration": 0.25,
          "velocity": 100
        },
        {
          "pitch": 78,
          "onset": 268.0,
          "duration": 1.9688,
          "velocity": 100
        },
        {
          "pitch": 52,
          "onset": 268.25,
          "duration": 0.25,
          "velocity": 100
        },
        {
          "pitch": 54,
          "onset": 268.5,
          "duration": 0.25,
          "velocity": 100
        },
        {
          "pitch": 49,
          "onset": 268.75,
          "duration": 0.25,
          "velocity": 100
        },
        {
          "pitch": 50,
          "onset": 269.0,
          "duration": 0.25,
          "velocity": 100
        },
        {
          "pitch": 45,
          "onset": 269.25,
          "duration": 0.25,
          "velocity": 100
        },
        {
          "pitch": 47,
          "onset": 269.5,
          "duration": 0.25,
          "velocity": 100
        },
        {
          "pitch": 42,
          "onset": 269.75,
          "duration": 0.25,
          "velocity": 100
        },
        {
          "pitch": 43,
          "onset": 270.0,
          "duration": 0.25,
          "velocity": 100
        },
        {
          "pitch": 76,
          "onset": 270.0,
          "duration": 1.9688,
          "velocity": 100
        },
        {
          "pitch": 50,
          "onset": 270.25,
          "duration": 0.25,
          "velocity": 100
        },
        {
          "pitch": 52,
          "onset": 270.5,
          "duration": 0.25,
          "velocity": 100
        },
        {
          "pitch": 47,
          "onset": 270.75,
          "duration": 0.25,
          "velocity": 100
        },
        {
          "pitch": 49,
          "onset": 271.0,
          "duration": 0.25,
          "velocity": 100
        },
        {
          "pitch": 43,
          "onset": 271.25,
          "duration": 0.25,
          "velocity": 100
        },
        {
          "pitch": 45,
          "onset": 271.5,
          "duration": 0.25,
          "velocity": 100
        },
        {
          "pitch": 40,
          "onset": 271.75,
          "duration": 0.25,
          "velocity": 100
        },
        {
          "pitch": 42,
          "onset": 272.0,
          "duration": 0.25,
          "velocity": 100
        },
        {
          "pitch": 74,
          "onset": 272.0,
          "duration": 1.9688,
          "velocity": 100
        },
        {
          "pitch": 49,
          "onset": 272.25,
          "duration": 0.25,
          "velocity": 100
        },
        {
          "pitch": 50,
          "onset": 272.5,
          "duration": 0.25,
          "velocity": 100
        },
        {
          "pitch": 46,
          "onset": 272.75,
          "duration": 0.25,
          "velocity": 100
        },
        {
          "pitch": 47,
          "onset": 273.0,
          "duration": 0.25,
          "velocity": 100
        },
        {
          "pitch": 42,
          "onset": 273.25,
          "duration": 0.25,
          "velocity": 100
        },
        {
          "pitch": 43,
          "onset": 273.5,
          "duration": 0.25,
          "velocity": 100
        },
        {
          "pitch": 38,
          "onset": 273.75,
          "duration": 0.25,
          "velocity": 100
        },
        {
          "pitch": 40,
          "onset": 274.0,
          "duration": 0.25,
          "velocity": 100
        },
        {
          "pitch": 73,
          "onset": 274.0,
          "duration": 1.9688,
          "velocity": 100
        },
        {
          "pitch": 59,
          "onset": 274.25,
          "duration": 0.25,
          "velocity": 100
        },
        {
          "pitch": 61,
          "onset": 274.5,
          "duration": 0.25,
          "velocity": 100
        },
        {
          "pitch": 56,
          "onset": 274.75,
          "duration": 0.25,
          "velocity": 100
        },
        {
          "pitch": 58,
          "onset": 275.0,
          "duration": 0.25,
          "velocity": 100
        },
        {
          "pitch": 52,
          "onset": 275.25,
          "duration": 0.25,
          "velocity": 100
        },
        {
          "pitch": 54,
          "onset": 275.5,
          "duration": 0.25,
          "velocity": 100
        },
        {
          "pitch": 49,
          "onset": 275.75,
          "duration": 0.25,
          "velocity": 100
        },
        {
          "pitch": 50,
          "onset": 276.0,
          "duration": 0.25,
          "velocity": 100
        },
        {
          "pitch": 71,
          "onset": 276.0,
          "duration": 1.9688,
          "velocity": 100
        },
        {
          "pitch": 54,
          "onset": 276.25,
          "duration": 0.25,
          "velocity": 100
        },
        {
          "pitch": 59,
          "onset": 276.5,
          "duration": 0.25,
          "velocity": 100
        },
        {
          "pitch": 53,
          "onset": 276.75,
          "duration": 0.25,
          "velocity": 100
        },
        {
          "pitch": 54,
          "onset": 277.0,
          "duration": 0.25,
          "velocity": 100
        },
        {
          "pitch": 49,
          "onset": 277.25,
          "duration": 0.25,
          "velocity": 100
        },
        {
          "pitch": 50,
          "onset": 277.5,
          "duration": 0.25,
          "velocity": 100
        },
        {
          "pitch": 46,
          "onset": 277.75,
          "duration": 0.25,
          "velocity": 100
        },
        {
          "pitch": 47,
          "onset": 278.0,
          "duration": 1.0,
          "velocity": 100
        },
        {
          "pitch": 74,
          "onset": 278.25,
          "duration": 0.25,
          "velocity": 100
        },
        {
          "pitch": 78,
          "onset": 278.5,
          "duration": 0.25,
          "velocity": 100
        },
        {
          "pitch": 73,
          "onset": 278.75,
          "duration": 0.25,
          "velocity": 100
        },
        {
          "pitch": 74,
          "onset": 279.0,
          "duration": 0.25,
          "velocity": 100
        },
        {
          "pitch": 62,
          "onset": 279.25,
          "duration": 0.25,
          "velocity": 100
        },
        {
          "pitch": 71,
          "onset": 279.25,
          "duration": 0.25,
          "velocity": 100
        },
        {
          "pitch": 66,
          "onset": 279.5,
          "duration": 0.25,
          "velocity": 100
        },
        {
          "pitch": 73,
          "onset": 279.5,
          "duration": 0.25,
          "velocity": 100
        },
        {
          "pitch": 61,
          "onset": 279.75,
          "duration": 0.25,
          "velocity": 100
        },
        {
          "pitch": 70,
          "onset": 279.75,
          "duration": 0.25,
          "velocity": 100
        },
        {
          "pitch": 62,
          "onset": 280.0,
          "duration": 0.25,
          "velocity": 100
        },
        {
          "pitch": 71,
          "onset": 280.0,
          "duration": 1.0,
          "velocity": 100
        },
        {
          "pitch": 58,
          "onset": 280.25,
          "duration": 0.25,
          "velocity": 100
        },
        {
          "pitch": 59,
          "onset": 280.5,
          "duration": 0.25,
          "velocity": 100
        },
        {
          "pitch": 54,
          "onset": 280.75,
          "duration": 0.25,
          "velocity": 100
        },
        {
          "pitch": 55,
          "onset": 281.0,
          "duration": 1.0,
          "velocity": 100
        },
        {
          "pitch": 74,
          "onset": 281.25,
          "duration": 0.25,
          "velocity": 100
        },
        {
          "pitch": 76,
          "onset": 281.5,
          "duration": 0.25,
          "velocity": 100
        },
        {
          "pitch": 71,
          "onset": 281.75,
          "duration": 0.25,
          "velocity": 100
        },
        {
          "pitch": 72,
          "onset": 282.0,
          "duration": 0.25,
          "velocity": 100
        },
        {
          "pitch": 67,
          "onset": 282.25,
          "duration": 0.25,
          "velocity": 100
        },
        {
          "pitch": 69,
          "onset": 282.5,
          "duration": 0.25,
          "velocity": 100
        },
        {
          "pitch": 64,
          "onset": 282.75,
          "duration": 0.25,
          "velocity": 100
        },
        {
          "pitch": 66,
          "onset": 283.0,
          "duration": 1.0,
          "velocity": 100
        },
        {
          "pitch": 60,
          "onset": 283.25,
          "duration": 0.25,
          "velocity": 100
        },
        {
          "pitch": 62,
          "onset": 283.5,
          "duration": 0.25,
          "velocity": 100
        },
        {
          "pitch": 57,
          "onset": 283.75,
          "duration": 0.25,
          "velocity": 100
        },
        {
          "pitch": 59,
          "onset": 284.0,
          "duration": 0.25,
          "velocity": 100
        },
        {
          "pitch": 54,
          "onset": 284.25,
          "duration": 0.25,
          "velocity": 100
        },
        {
          "pitch": 55,
          "onset": 284.5,
          "duration": 0.25,
          "velocity": 100
        },
        {
          "pitch": 51,
          "onset": 284.75,
          "duration": 0.25,
          "velocity": 100
        },
        {
          "pitch": 52,
          "onset": 285.0,
          "duration": 1.0,
          "velocity": 100
        },
        {
          "pitch": 71,
          "onset": 285.25,
          "duration": 0.25,
          "velocity": 100
        },
        {
          "pitch": 72,
          "onset": 285.5,
          "duration": 0.25,
          "velocity": 100
        },
        {
          "pitch": 67,
          "onset": 285.75,
          "duration": 0.25,
          "velocity": 100
        },
        {
          "pitch": 69,
          "onset": 286.0,
          "duration": 0.25,
          "velocity": 100
        },
        {
          "pitch": 64,
          "onset": 286.25,
          "duration": 0.25,
          "velocity": 100
        },
        {
          "pitch": 66,
          "onset": 286.5,
          "duration": 0.25,
          "velocity": 100
        },
        {
          "pitch": 61,
          "onset": 286.75,
          "duration": 0.25,
          "velocity": 100
        },
        {
          "pitch": 63,
          "onset": 287.0,
          "duration": 0.0625,
          "velocity": 100
        },
        {
          "pitch": 64,
          "onset": 287.0625,
          "duration": 0.0625,
          "velocity": 100
        },
        {
          "pitch": 63,
          "onset": 287.125,
          "duration": 0.625,
          "velocity": 100
        },
        {
          "pitch": 57,
          "onset": 287.25,
          "duration": 0.25,
          "velocity": 100
        },
        {
          "pitch": 59,
          "onset": 287.5,
          "duration": 0.25,
          "velocity": 100
        },
        {
          "pitch": 54,
          "onset": 287.75,
          "duration": 0.25,
          "velocity": 100
        },
        {
          "pitch": 63,
          "onset": 287.75,
          "duration": 0.25,
          "velocity": 100
        },
        {
          "pitch": 55,
          "onset": 288.0,
          "duration": 0.25,
          "velocity": 100
        },
        {
          "pitch": 64,
          "onset": 288.0,
          "duration": 1.0,
          "velocity": 100
        },
        {
          "pitch": 51,
          "onset": 288.25,
          "duration": 0.25,
          "velocity": 100
        },
        {
          "pitch": 52,
          "onset": 288.5,
          "duration": 0.25,
          "velocity": 100
        },
        {
          "pitch": 47,
          "onset": 288.75,
          "duration": 0.25,
          "velocity": 100
        },
        {
          "pitch": 48,
          "onset": 289.0,
          "duration": 0.25,
          "velocity": 100
        },
        {
          "pitch": 45,
          "onset": 289.25,
          "duration": 0.25,
          "velocity": 100
        },
        {
          "pitch": 47,
          "onset": 289.5,
          "duration": 0.25,
          "velocity": 100
        },
        {
          "pitch": 42,
          "onset": 289.75,
          "duration": 0.25,
          "velocity": 100
        },
        {
          "pitch": 81,
          "onset": 289.75,
          "duration": 0.25,
          "velocity": 100
        },
        {
          "pitch": 43,
          "onset": 290.0,
          "duration": 0.25,
          "velocity": 100
        },
        {
          "pitch": 83,
          "onset": 290.0,
          "duration": 0.25,
          "velocity": 100
        },
        {
          "pitch": 39,
          "onset": 290.25,
          "duration": 0.25,
          "velocity": 100
        },
        {
          "pitch": 78,
          "onset": 290.25,
          "duration": 0.25,
          "velocity": 100
        },
        {
          "pitch": 40,
          "onset": 290.5,
          "duration": 0.25,
          "velocity": 100
        },
        {
          "pitch": 79,
          "onset": 290.5,
          "duration": 0.25,
          "velocity": 100
        },
        {
          "pitch": 42,
          "onset": 290.75,
          "duration": 0.25,
          "velocity": 100
        },
        {
          "pitch": 75,
          "onset": 290.75,
          "duration": 0.25,
          "velocity": 100
        },
        {
          "pitch": 43,
          "onset": 291.0,
          "duration": 0.25,
          "velocity": 100
        },
        {
          "pitch": 76,
          "onset": 291.0,
          "duration": 0.25,
          "velocity": 100
        },
        {
          "pitch": 42,
          "onset": 291.25,
          "duration": 0.25,
          "velocity": 100
        },
        {
          "pitch": 69,
          "onset": 291.25,
          "duration": 0.25,
          "velocity": 100
        },
        {
          "pitch": 43,
          "onset": 291.5,
          "duration": 0.25,
          "velocity": 100
        },
        {
          "pitch": 71,
          "onset": 291.5,
          "duration": 0.25,
          "velocity": 100
        },
        {
          "pitch": 45,
          "onset": 291.75,
          "duration": 0.25,
          "velocity": 100
        },
        {
          "pitch": 66,
          "onset": 291.75,
          "duration": 0.25,
          "velocity": 100
        },
        {
          "pitch": 47,
          "onset": 292.0,
          "duration": 0.25,
          "velocity": 100
        },
        {
          "pitch": 67,
          "onset": 292.0,
          "duration": 0.25,
          "velocity": 100
        },
        {
          "pitch": 42,
          "onset": 292.25,
          "duration": 0.25,
          "velocity": 100
        },
        {
          "pitch": 63,
          "onset": 292.25,
          "duration": 0.25,
          "velocity": 100
        },
        {
          "pitch": 43,
          "onset": 292.5,
          "duration": 0.25,
          "velocity": 100
        },
        {
          "pitch": 64,
          "onset": 292.5,
          "duration": 0.25,
          "velocity": 100
        },
        {
          "pitch": 39,
          "onset": 292.75,
          "duration": 0.25,
          "velocity": 100
        },
        {
          "pitch": 66,
          "onset": 292.75,
          "duration": 0.25,
          "velocity": 100
        },
        {
          "pitch": 40,
          "onset": 293.0,
          "duration": 0.25,
          "velocity": 100
        },
        {
          "pitch": 67,
          "onset": 293.0,
          "duration": 0.25,
          "velocity": 100
        },
        {
          "pitch": 42,
          "onset": 293.25,
          "duration": 0.25,
          "velocity": 100
        },
        {
          "pitch": 69,
          "onset": 293.25,
          "duration": 0.25,
          "velocity": 100
        },
        {
          "pitch": 43,
          "onset": 293.5,
          "duration": 0.25,
          "velocity": 100
        },
        {
          "pitch": 71,
          "onset": 293.5,
          "duration": 0.25,
          "velocity": 100
        },
        {
          "pitch": 45,
          "onset": 293.75,
          "duration": 0.25,
          "velocity": 100
        },
        {
          "pitch": 73,
          "onset": 293.75,
          "duration": 0.25,
          "velocity": 100
        },
        {
          "pitch": 47,
          "onset": 294.0,
          "duration": 0.25,
          "velocity": 100
        },
        {
          "pitch": 75,
          "onset": 294.0,
          "duration": 0.25,
          "velocity": 100
        },
        {
          "pitch": 49,
          "onset": 294.25,
          "duration": 0.25,
          "velocity": 100
        },
        {
          "pitch": 76,
          "onset": 294.25,
          "duration": 0.25,
          "velocity": 100
        },
        {
          "pitch": 51,
          "onset": 294.5,
          "duration": 0.25,
          "velocity": 100
        },
        {
          "pitch": 78,
          "onset": 294.5,
          "duration": 0.25,
          "velocity": 100
        },
        {
          "pitch": 52,
          "onset": 294.75,
          "duration": 0.25,
          "velocity": 100
        },
        {
          "pitch": 79,
          "onset": 294.75,
          "duration": 0.25,
          "velocity": 100
        },
        {
          "pitch": 54,
          "onset": 295.0,
          "duration": 0.25,
          "velocity": 100
        },
        {
          "pitch": 81,
          "onset": 295.0,
          "duration": 0.25,
          "velocity": 100
        },
        {
          "pitch": 55,
          "onset": 295.25,
          "duration": 0.25,
          "velocity": 100
        },
        {
          "pitch": 83,
          "onset": 295.25,
          "duration": 0.25,
          "velocity": 100
        },
        {
          "pitch": 57,
          "onset": 295.5,
          "duration": 0.25,
          "velocity": 100
        },
        {
          "pitch": 84,
          "onset": 295.5,
          "duration": 0.25,
          "velocity": 100
        },
        {
          "pitch": 59,
          "onset": 295.75,
          "duration": 0.25,
          "velocity": 100
        },
        {
          "pitch": 75,
          "onset": 295.75,
          "duration": 0.25,
          "velocity": 100
        },
        {
          "pitch": 55,
          "onset": 296.0,
          "duration": 1.0,
          "velocity": 100
        },
        {
          "pitch": 76,
          "onset": 296.0,
          "duration": 0.25,
          "velocity": 100
        },
        {
          "pitch": 69,
          "onset": 296.25,
          "duration": 0.25,
          "velocity": 100
        },
        {
          "pitch": 71,
          "onset": 296.5,
          "duration": 0.25,
          "velocity": 100
        },
        {
          "pitch": 66,
          "onset": 296.75,
          "duration": 0.25,
          "velocity": 100
        },
        {
          "pitch": 67,
          "onset": 297.0,
          "duration": 0.25,
          "velocity": 100
        },
        {
          "pitch": 63,
          "onset": 297.25,
          "duration": 0.25,
          "velocity": 100
        },
        {
          "pitch": 54,
          "onset": 297.5,
          "duration": 0.5,
          "velocity": 100
        },
        {
          "pitch": 60,
          "onset": 297.5,
          "duration": 0.5,
          "velocity": 100
        },
        {
          "pitch": 64,
          "onset": 297.5,
          "duration": 0.75,
          "velocity": 100
        },
        {
          "pitch": 55,
          "onset": 298.0,
          "duration": 1.0,
          "velocity": 100
        },
        {
          "pitch": 59,
          "onset": 298.0,
          "duration": 1.0,
          "velocity": 100
        },
        {
          "pitch": 67,
          "onset": 298.25,
          "duration": 0.25,
          "velocity": 100
        },
        {
          "pitch": 66,
          "onset": 298.5,
          "duration": 0.25,
          "velocity": 100
        },
        {
          "pitch": 67,
          "onset": 298.75,
          "duration": 0.125,
          "velocity": 100
        },
        {
          "pitch": 64,
          "onset": 298.875,
          "duration": 0.125,
          "velocity": 100
        },
        {
          "pitch": 54,
          "onset": 299.0,
          "duration": 1.0,
          "velocity": 100
        },
        {
          "pitch": 57,
          "onset": 299.0,
          "duration": 1.0,
          "velocity": 100
        },
        {
          "pitch": 63,
          "onset": 299.0,
          "duration": 0.0625,
          "velocity": 100
        },
        {
          "pitch": 64,
          "onset": 299.0625,
          "duration": 0.0625,
          "velocity": 100
        },
        {
          "pitch": 63,
          "onset": 299.125,
          "duration": 0.625,
          "velocity": 100
        },
        {
          "pitch": 64,
          "onset": 299.75,
          "duration": 0.25,
          "velocity": 100
        },
        {
          "pitch": 52,
          "onset": 300.0,
          "duration": 0.5,
          "velocity": 100
        },
        {
          "pitch": 56,
          "onset": 300.0,
          "duration": 0.5,
          "velocity": 100
        },
        {
          "pitch": 64,
          "onset": 300.0,
          "duration": 0.0625,
          "velocity": 100
        },
        {
          "pitch": 62,
          "onset": 300.0625,
          "duration": 0.0625,
          "velocity": 100
        },
        {
          "pitch": 64,
          "onset": 300.125,
          "duration": 0.875,
          "velocity": 100
        },
        {
          "pitch": 54,
          "onset": 300.5,
          "duration": 0.5,
          "velocity": 100
        },
        {
          "pitch": 57,
          "onset": 300.5,
          "duration": 0.5,
          "velocity": 100
        },
        {
          "pitch": 56,
          "onset": 301.0,
          "duration": 1.0,
          "velocity": 100
        },
        {
          "pitch": 59,
          "onset": 301.0,
          "duration": 1.0,
          "velocity": 100
        },
        {
          "pitch": 74,
          "onset": 301.25,
          "duration": 0.25,
          "velocity": 100
        },
        {
          "pitch": 76,
          "onset": 301.5,
          "duration": 0.25,
          "velocity": 100
        },
        {
          "pitch": 71,
          "onset": 301.75,
          "duration": 0.25,
          "velocity": 100
        },
        {
          "pitch": 57,
          "onset": 302.0,
          "duration": 0.5,
          "velocity": 100
        },
        {
          "pitch": 57,
          "onset": 302.0,
          "duration": 1.75,
          "velocity": 100
        },
        {
          "pitch": 72,
          "onset": 302.0,
          "duration": 0.25,
          "velocity": 100
        },
        {
          "pitch": 76,
          "onset": 302.25,
          "duration": 0.25,
          "velocity": 100
        },
        {
          "pitch": 81,
          "onset": 302.5,
          "duration": 0.25,
          "velocity": 100
        },
        {
          "pitch": 74,
          "onset": 302.75,
          "duration": 0.25,
          "velocity": 100
        },
        {
          "pitch": 60,
          "onset": 303.0,
          "duration": 0.75,
          "velocity": 100
        },
        {
          "pitch": 76,
          "onset": 303.0,
          "duration": 0.25,
          "velocity": 100
        },
        {
          "pitch": 71,
          "onset": 303.25,
          "duration": 0.25,
          "velocity": 100
        },
        {
          "pitch": 72,
          "onset": 303.5,
          "duration": 0.25,
          "velocity": 100
        },
        {
          "pitch": 59,
          "onset": 303.75,
          "duration": 0.25,
          "velocity": 100
        },
        {
          "pitch": 62,
          "onset": 303.75,
          "duration": 0.25,
          "velocity": 100
        },
        {
          "pitch": 68,
          "onset": 303.75,
          "duration": 0.25,
          "velocity": 100
        },
        {
          "pitch": 60,
          "onset": 304.0,
          "duration": 0.5,
          "velocity": 100
        },
        {
          "pitch": 64,
          "onset": 304.0,
          "duration": 0.5,
          "velocity": 100
        },
        {
          "pitch": 69,
          "onset": 304.0,
          "duration": 0.5,
          "velocity": 100
        },
        {
          "pitch": 57,
          "onset": 304.5,
          "duration": 0.5,
          "velocity": 100
        },
        {
          "pitch": 60,
          "onset": 304.5,
          "duration": 0.5,
          "velocity": 100
        },
        {
          "pitch": 71,
          "onset": 304.5,
          "duration": 0.25,
          "velocity": 100
        },
        {
          "pitch": 72,
          "onset": 304.75,
          "duration": 0.25,
          "velocity": 100
        },
        {
          "pitch": 54,
          "onset": 305.0,
          "duration": 1.25,
          "velocity": 100
        },
        {
          "pitch": 57,
          "onset": 305.0,
          "duration": 1.25,
          "velocity": 100
        },
        {
          "pitch": 63,
          "onset": 305.0,
          "duration": 0.75,
          "velocity": 100
        },
        {
          "pitch": 64,
          "onset": 305.75,
          "duration": 0.5,
          "velocity": 100
        },
        {
          "pitch": 52,
          "onset": 306.25,
          "duration": 4.7188,
          "velocity": 100
        },
        {
          "pitch": 56,
          "onset": 306.25,
          "duration": 4.7188,
          "velocity": 100
        },
        {
          "pitch": 59,
          "onset": 306.25,
          "duration": 4.7188,
          "velocity": 100
        },
        {
          "pitch": 64,
          "onset": 306.25,
          "duration": 0.75,
          "velocity": 100
        },
        {
          "pitch": 40,
          "onset": 307.0,
          "duration": 3.9688,
          "velocity": 100
        },
        {
          "pitch": 64,
          "onset": 313.25,
          "duration": 0.25,
          "velocity": 1
        }
      ]
    },
    {
      "role": "pedal",
      "notes": [
        {
          "pitch": 35,
          "onset": 280.0,
          "duration": 1.9688,
          "velocity": 100
        },
        {
          "pitch": 33,
          "onset": 282.0,
          "duration": 1.9688,
          "velocity": 100
        },
        {
          "pitch": 31,
          "onset": 284.0,
          "duration": 1.9688,
          "velocity": 100
        },
        {
          "pitch": 30,
          "onset": 286.0,
          "duration": 1.9688,
          "velocity": 100
        },
        {
          "pitch": 28,
          "onset": 288.0,
          "duration": 5.9688,
          "velocity": 100
        },
        {
          "pitch": 35,
          "onset": 294.0,
          "duration": 2.9688,
          "velocity": 100
        },
        {
          "pitch": 33,
          "onset": 297.5,
          "duration": 0.5,
          "velocity": 100
        },
        {
          "pitch": 35,
          "onset": 298.0,
          "duration": 1.9688,
          "velocity": 100
        },
        {
          "pitch": 28,
          "onset": 300.0,
          "duration": 7.9688,
          "velocity": 100
        }
      ]
    }
  ]
}