{
  "bwv": 749,
  "category": "organ_chorale",
  "instrument": "organ",
  "form": "",
  "movement": null,
  "tonic": "G",
  "mode": "major",
  "confidence": "inferred",
  "ticks_per_beat": 480,
  "duration_seconds": 56.5,
  "tempos": [
    {
      "tick": 0,
      "bpm": 110
    },
    {
      "tick": 39840,
      "bpm": 110
    },
    {
      "tick": 41760,
      "bpm": 105
    },
    {
      "tick": 42720,
      "bpm": 100
    }
  ],
  "time_signatures": [
    {
      "tick": 0,
      "numerator": 4,
      "denominator": 4
    }
  ],
  "track_type": "manual",
  "voice_count": 2,
  "total_notes": 210,
  "tracks": [
    {
      "role": "manual",
      "notes": [
        {
          "pitch": 67,
          "onset": 1.0,
          "duration": 1.0,
          "velocity": 100
        },
        {
          "pitch": 71,
          "onset": 2.0,
          "duration": 1.0,
          "velocity": 100
        },
        {
          "pitch": 74,
          "onset": 3.0,
          "duration": 1.0,
          "velocity": 100
        },
        {
          "pitch": 71,
          "onset": 4.0,
          "duration": 1.0,
          "velocity": 100
        },
        {
          "pitch": 69,
          "onset": 5.0,
          "duration": 1.0,
          "velocity": 100
        },
        {
          "pitch": 71,
          "onset": 6.0,
          "duration": 1.0,
          "velocity": 100
        },
        {
          "pitch": 73,
          "onset": 7.0,
          "duration": 1.0,
          "velocity": 100
        },
        {
          "pitch": 74,
          "onset": 8.0,
          "duration": 2.9688,
          "velocity": 100
        },
        {
          "pitch": 62,
          "onset": 9.0,
          "duration": 1.0,
          "velocity": 100
        },
        {
          "pitch": 66,
          "onset": 10.0,
          "duration": 1.0,
          "velocity": 100
        },
        {
          "pitch": 69,
          "onset": 11.0,
          "duration": 1.0,
          "velocity": 100
        },
        {
          "pitch": 73,
          "onset": 11.0,
          "duration": 1.0,
          "velocity": 100
        },
        {
          "pitch": 66,
          "onset": 12.0,
          "duration": 1.0,
          "velocity": 100
        },
        {
          "pitch": 74,
          "onset": 12.0,
          "duration": 1.0,
          "velocity": 100
        },
        {
          "pitch": 62,
          "onset": 13.0,
          "duration": 1.0,
          "velocity": 100
        },
        {
          "pitch": 72,
          "onset": 13.0,
          "duration": 0.5,
          "velocity": 100
        },
        {
          "pitch": 71,
          "onset": 13.5,
          "duration": 0.5,
          "velocity": 100
        },
        {
          "pitch": 64,
          "onset": 14.0,
          "duration": 1.0,
          "velocity": 100
        },
        {
          "pitch": 72,
          "onset": 14.0,
          "duration": 0.5,
          "velocity": 100
        },
        {
          "pitch": 76,
          "onset": 14.5,
          "duration": 0.5,
          "velocity": 100
        },
        {
          "pitch": 66,
          "onset": 15.0,
          "duration": 1.0,
          "velocity": 100
        },
        {
          "pitch": 74,
          "onset": 15.0,
          "duration": 0.5,
          "velocity": 100
        },
        {
          "pitch": 72,
          "onset": 15.5,
          "duration": 0.5,
          "velocity": 100
        },
        {
          "pitch": 67,
          "onset": 16.0,
          "duration": 1.0,
          "velocity": 100
        },
        {
          "pitch": 71,
          "onset": 16.0,
          "duration": 1.0,
          "velocity": 100
        },
        {
          "pitch": 55,
          "onset": 17.0,
          "duration": 1.0,
          "velocity": 100
        },
        {
          "pitch": 67,
          "onset": 17.0,
          "duration": 1.9688,
          "velocity": 100
        },
        {
          "pitch": 71,
          "onset": 17.0,
          "duration": 1.9688,
          "velocity": 100
        },
        {
          "pitch": 59,
          "onset": 18.0,
          "duration": 1.0,
          "velocity": 100
        },
        {
          "pitch": 62,
          "onset": 19.0,
          "duration": 1.0,
          "velocity": 100
        },
        {
          "pitch": 66,
          "onset": 19.0,
          "duration": 1.0,
          "velocity": 100
        },
        {
          "pitch": 69,
          "onset": 19.0,
          "duration": 1.0,
          "velocity": 100
        },
        {
          "pitch": 59,
          "onset": 20.0,
          "duration": 1.0,
          "velocity": 100
        },
        {
          "pitch": 67,
          "onset": 20.0,
          "duration": 5.0,
          "velocity": 100
        },
        {
          "pitch": 71,
          "onset": 20.0,
          "duration": 1.0,
          "velocity": 100
        },
        {
          "pitch": 55,
          "onset": 21.0,
          "duration": 1.0,
          "velocity": 100
        },
        {
          "pitch": 72,
          "onset": 21.0,
          "duration": 1.0,
          "velocity": 100
        },
        {
          "pitch": 59,
          "onset": 22.0,
          "duration": 1.0,
          "velocity": 100
        },
        {
          "pitch": 74,
          "onset": 22.0,
          "duration": 1.0,
          "velocity": 100
        },
        {
          "pitch": 61,
          "onset": 23.0,
          "duration": 1.0,
          "velocity": 100
        },
        {
          "pitch": 76,
          "onset": 23.0,
          "duration": 1.0,
          "velocity": 100
        },
        {
          "pitch": 62,
          "onset": 24.0,
          "duration": 1.0,
          "velocity": 100
        },
        {
          "pitch": 69,
          "onset": 24.0,
          "duration": 1.0,
          "velocity": 100
        },
        {
          "pitch": 66,
          "onset": 25.0,
          "duration": 1.9688,
          "velocity": 100
        },
        {
          "pitch": 74,
          "onset": 25.0,
          "duration": 1.9688,
          "velocity": 100
        },
        {
          "pitch": 64,
          "onset": 27.0,
          "duration": 1.0,
          "velocity": 100
        },
        {
          "pitch": 73,
          "onset": 27.0,
          "duration": 1.0,
          "velocity": 100
        },
        {
          "pitch": 69,
          "onset": 28.0,
          "duration": 1.0,
          "velocity": 100
        },
        {
          "pitch": 74,
          "onset": 28.0,
          "duration": 1.0,
          "velocity": 100
        },
        {
          "pitch": 66,
          "onset": 29.0,
          "duration": 1.0,
          "velocity": 100
        },
        {
          "pitch": 74,
          "onset": 29.0,
          "duration": 1.9688,
          "velocity": 100
        },
        {
          "pitch": 67,
          "onset": 30.0,
          "duration": 1.0,
          "velocity": 100
        },
        {
          "pitch": 69,
          "onset": 31.0,
          "duration": 1.0,
          "velocity": 100
        },
        {
          "pitch": 72,
          "onset": 31.0,
          "duration": 1.0,
          "velocity": 100
        },
        {
          "pitch": 67,
          "onset": 32.0,
          "duration": 1.0,
          "velocity": 100
        },
        {
          "pitch": 71,
          "onset": 32.0,
          "duration": 1.0,
          "velocity": 100
        },
        {
          "pitch": 68,
          "onset": 33.0,
          "duration": 1.0,
          "velocity": 100
        },
        {
          "pitch": 76,
          "onset": 33.0,
          "duration": 1.9688,
          "velocity": 100
        },
        {
          "pitch": 69,
          "onset": 34.0,
          "duration": 1.0,
          "velocity": 100
        },
        {
          "pitch": 71,
          "onset": 35.0,
          "duration": 1.0,
          "velocity": 100
        },
        {
          "pitch": 74,
          "onset": 35.0,
          "duration": 1.0,
          "velocity": 100
        },
        {
          "pitch": 64,
          "onset": 36.0,
          "duration": 1.0,
          "velocity": 100
        },
        {
          "pitch": 73,
          "onset": 36.0,
          "duration": 1.0,
          "velocity": 100
        },
        {
          "pitch": 70,
          "onset": 37.0,
          "duration": 1.0,
          "velocity": 100
        },
        {
          "pitch": 78,
          "onset": 37.0,
          "duration": 1.9688,
          "velocity": 100
        },
        {
          "pitch": 71,
          "onset": 38.0,
          "duration": 1.0,
          "velocity": 100
        },
        {
          "pitch": 73,
          "onset": 39.0,
          "duration": 1.0,
          "velocity": 100
        },
        {
          "pitch": 76,
          "onset": 39.0,
          "duration": 1.0,
          "velocity": 100
        },
        {
          "pitch": 66,
          "onset": 40.0,
          "duration": 1.0,
          "velocity": 100
        },
        {
          "pitch": 74,
          "onset": 40.0,
          "duration": 1.0,
          "velocity": 100
        },
        {
          "pitch": 71,
          "onset": 41.0,
          "duration": 1.0,
          "velocity": 100
        },
        {
          "pitch": 79,
          "onset": 41.0,
          "duration": 1.9688,
          "velocity": 100
        },
        {
          "pitch": 69,
          "onset": 42.0,
          "duration": 1.0,
          "velocity": 100
        },
        {
          "pitch": 50,
          "onset": 43.0,
          "duration": 1.0,
          "velocity": 100
        },
        {
          "pitch": 74,
          "onset": 43.0,
          "duration": 1.9688,
          "velocity": 100
        },
        {
          "pitch": 78,
          "onset": 43.0,
          "duration": 1.0,
          "velocity": 100
        },
        {
          "pitch": 54,
          "onset": 44.0,
          "duration": 1.0,
          "velocity": 100
        },
        {
          "pitch": 81,
          "onset": 44.0,
          "duration": 1.0,
          "velocity": 100
        },
        {
          "pitch": 57,
          "onset": 45.0,
          "duration": 1.0,
          "velocity": 100
        },
        {
          "pitch": 73,
          "onset": 45.0,
          "duration": 1.0,
          "velocity": 100
        },
        {
          "pitch": 76,
          "onset": 45.0,
          "duration": 1.0,
          "velocity": 100
        },
        {
          "pitch": 54,
          "onset": 46.0,
          "duration": 1.0,
          "velocity": 100
        },
        {
          "pitch": 74,
          "onset": 46.0,
          "duration": 1.9688,
          "velocity": 100
        },
        {
          "pitch": 78,
          "onset": 46.0,
          "duration": 1.9688,
          "velocity": 100
        },
        {
          "pitch": 50,
          "onset": 47.0,
          "duration": 1.0,
          "velocity": 100
        },
        {
          "pitch": 52,
          "onset": 48.0,
          "duration": 1.0,
          "velocity": 100
        },
        {
          "pitch": 72,
          "onset": 48.0,
          "duration": 1.5,
          "velocity": 100
        },
        {
          "pitch": 79,
          "onset": 48.0,
          "duration": 1.0,
          "velocity": 100
        },
        {
          "pitch": 54,
          "onset": 49.0,
          "duration": 1.0,
          "velocity": 100
        },
        {
          "pitch": 81,
          "onset": 49.0,
          "duration": 1.0,
          "velocity": 100
        },
        {
          "pitch": 69,
          "onset": 49.5,
          "duration": 0.5,
          "velocity": 100
        },
        {
          "pitch": 55,
          "onset": 50.0,
          "duration": 1.0,
          "velocity": 100
        },
        {
          "pitch": 71,
          "onset": 50.0,
          "duration": 1.0,
          "velocity": 100
        },
        {
          "pitch": 79,
          "onset": 50.0,
          "duration": 1.0,
          "velocity": 100
        },
        {
          "pitch": 71,
          "onset": 51.0,
          "duration": 1.9688,
          "velocity": 100
        },
        {
          "pitch": 74,
          "onset": 51.0,
          "duration": 1.9688,
          "velocity": 100
        },
        {
          "pitch": 79,
          "onset": 51.0,
          "duration": 1.9688,
          "velocity": 100
        },
        {
          "pitch": 69,
          "onset": 53.0,
          "duration": 1.0,
          "velocity": 100
        },
        {
          "pitch": 74,
          "onset": 53.0,
          "duration": 1.9688,
          "velocity": 100
        },
        {
          "pitch": 78,
          "onset": 53.0,
          "duration": 1.0,
          "velocity": 100
        },
        {
          "pitch": 71,
          "onset": 54.0,
          "duration": 1.0,
          "velocity": 100
        },
        {
          "pitch": 79,
          "onset": 54.0,
          "duration": 1.0,
          "velocity": 100
        },
        {
          "pitch": 67,
          "onset": 55.0,
          "duration": 1.0,
          "velocity": 100
        },
        {
          "pitch": 72,
          "onset": 55.0,
          "duration": 1.0,
          "velocity": 100
        },
        {
          "pitch": 79,
          "onset": 55.0,
          "duration": 1.0,
          "velocity": 100
        },
        {
          "pitch": 71,
          "onset": 56.0,
          "duration": 1.0,
          "velocity": 100
        },
        {
          "pitch": 74,
          "onset": 56.0,
          "duration": 1.0,
          "velocity": 100
        },
        {
          "pitch": 79,
          "onset": 56.0,
          "duration": 2.9688,
          "velocity": 100
        },
        {
          "pitch": 69,
          "onset": 57.0,
          "duration": 2.9688,
          "velocity": 100
        },
        {
          "pitch": 76,
          "onset": 57.0,
          "duration": 1.0,
          "velocity": 100
        },
        {
          "pitch": 74,
          "onset": 58.0,
          "duration": 1.9688,
          "velocity": 100
        },
        {
          "pitch": 62,
          "onset": 59.0,
          "duration": 1.0,
          "velocity": 100
        },
        {
          "pitch": 78,
          "onset": 59.0,
          "duration": 1.9688,
          "velocity": 100
        },
        {
          "pitch": 55,
          "onset": 60.0,
          "duration": 1.9688,
          "velocity": 100
        },
        {
          "pitch": 62,
          "onset": 60.0,
          "duration": 1.0,
          "velocity": 100
        },
        {
          "pitch": 71,
          "onset": 60.0,
          "duration": 1.9688,
          "velocity": 100
        },
        {
          "pitch": 60,
          "onset": 61.0,
          "duration": 1.0,
          "velocity": 100
        },
        {
          "pitch": 76,
          "onset": 61.0,
          "duration": 1.9688,
          "velocity": 100
        },
        {
          "pitch": 54,
          "onset": 62.0,
          "duration": 1.9688,
          "velocity": 100
        },
        {
          "pitch": 62,
          "onset": 62.0,
          "duration": 1.0,
          "velocity": 100
        },
        {
          "pitch": 69,
          "onset": 62.0,
          "duration": 1.9688,
          "velocity": 100
        },
        {
          "pitch": 59,
          "onset": 63.0,
          "duration": 1.0,
          "velocity": 100
        },
        {
          "pitch": 74,
          "onset": 63.0,
          "duration": 1.9688,
          "velocity": 100
        },
        {
          "pitch": 60,
          "onset": 64.0,
          "duration": 1.0,
          "velocity": 100
        },
        {
          "pitch": 64,
          "onset": 64.0,
          "duration": 1.9688,
          "velocity": 100
        },
        {
          "pitch": 67,
          "onset": 64.0,
          "duration": 1.9688,
          "velocity": 100
        },
        {
          "pitch": 57,
          "onset": 65.0,
          "duration": 1.0,
          "velocity": 100
        },
        {
          "pitch": 72,
          "onset": 65.0,
          "duration": 1.9688,
          "velocity": 100
        },
        {
          "pitch": 59,
          "onset": 66.0,
          "duration": 1.0,
          "velocity": 100
        },
        {
          "pitch": 62,
          "onset": 66.0,
          "duration": 1.9688,
          "velocity": 100
        },
        {
          "pitch": 66,
          "onset": 66.0,
          "duration": 1.9688,
          "velocity": 100
        },
        {
          "pitch": 55,
          "onset": 67.0,
          "duration": 1.0,
          "velocity": 100
        },
        {
          "pitch": 71,
          "onset": 67.0,
          "duration": 1.9688,
          "velocity": 100
        },
        {
          "pitch": 57,
          "onset": 68.0,
          "duration": 1.0,
          "velocity": 100
        },
        {
          "pitch": 60,
          "onset": 68.0,
          "duration": 1.9688,
          "velocity": 100
        },
        {
          "pitch": 64,
          "onset": 68.0,
          "duration": 1.9688,
          "velocity": 100
        },
        {
          "pitch": 54,
          "onset": 69.0,
          "duration": 1.0,
          "velocity": 100
        },
        {
          "pitch": 69,
          "onset": 69.0,
          "duration": 1.9688,
          "velocity": 100
        },
        {
          "pitch": 55,
          "onset": 70.0,
          "duration": 1.9688,
          "velocity": 100
        },
        {
          "pitch": 59,
          "onset": 70.0,
          "duration": 1.9688,
          "velocity": 100
        },
        {
          "pitch": 62,
          "onset": 70.0,
          "duration": 4.9688,
          "velocity": 100
        },
        {
          "pitch": 67,
          "onset": 71.0,
          "duration": 1.9688,
          "velocity": 100
        },
        {
          "pitch": 57,
          "onset": 72.0,
          "duration": 1.9688,
          "velocity": 100
        },
        {
          "pitch": 66,
          "onset": 73.0,
          "duration": 1.0,
          "velocity": 100
        },
        {
          "pitch": 59,
          "onset": 74.0,
          "duration": 1.0,
          "velocity": 100
        },
        {
          "pitch": 67,
          "onset": 74.0,
          "duration": 11.0,
          "velocity": 100
        },
        {
          "pitch": 62,
          "onset": 75.0,
          "duration": 1.0,
          "velocity": 100
        },
        {
          "pitch": 62,
          "onset": 76.0,
          "duration": 1.0,
          "velocity": 100
        },
        {
          "pitch": 64,
          "onset": 76.0,
          "duration": 2.9688,
          "velocity": 100
        },
        {
          "pitch": 60,
          "onset": 77.0,
          "duration": 0.5,
          "velocity": 100
        },
        {
          "pitch": 59,
          "onset": 77.5,
          "duration": 0.5,
          "velocity": 100
        },
        {
          "pitch": 60,
          "onset": 78.0,
          "duration": 1.9688,
          "velocity": 100
        },
        {
          "pitch": 62,
          "onset": 79.0,
          "duration": 0.5,
          "velocity": 100
        },
        {
          "pitch": 60,
          "onset": 79.5,
          "duration": 0.5,
          "velocity": 100
        },
        {
          "pitch": 60,
          "onset": 80.0,
          "duration": 1.0,
          "velocity": 100
        },
        {
          "pitch": 62,
          "onset": 80.0,
          "duration": 2.9688,
          "velocity": 100
        },
        {
          "pitch": 59,
          "onset": 81.0,
          "duration": 0.5,
          "velocity": 100
        },
        {
          "pitch": 57,
          "onset": 81.5,
          "duration": 0.5,
          "velocity": 100
        },
        {
          "pitch": 59,
          "onset": 82.0,
          "duration": 1.0,
          "velocity": 100
        },
        {
          "pitch": 55,
          "onset": 83.0,
          "duration": 1.0,
          "velocity": 100
        },
        {
          "pitch": 60,
          "onset": 83.0,
          "duration": 0.5,
          "velocity": 100
        },
        {
          "pitch": 59,
          "onset": 83.5,
          "duration": 0.5,
          "velocity": 100
        },
        {
          "pitch": 57,
          "onset": 84.0,
          "duration": 2.9688,
          "velocity": 100
        },
        {
          "pitch": 60,
          "onset": 84.0,
          "duration": 2.9688,
          "velocity": 100
        },
        {
          "pitch": 69,
          "onset": 85.0,
          "duration": 0.5,
          "velocity": 100
        },
        {
          "pitch": 67,
          "onset": 85.5,
          "duration": 0.5,
          "velocity": 100
        },
        {
          "pitch": 66,
          "onset": 86.0,
          "duration": 1.9688,
          "velocity": 100
        },
        {
          "pitch": 59,
          "onset": 87.0,
          "duration": 0.5,
          "velocity": 100
        },
        {
          "pitch": 62,
          "onset": 87.0,
          "duration": 0.5,
          "velocity": 100
        },
        {
          "pitch": 60,
          "onset": 87.5,
          "duration": 0.5,
          "velocity": 100
        },
        {
          "pitch": 64,
          "onset": 87.5,
          "duration": 0.5,
          "velocity": 100
        },
        {
          "pitch": 59,
          "onset": 88.0,
          "duration": 1.0,
          "velocity": 100
        },
        {
          "pitch": 62,
          "onset": 88.0,
          "duration": 1.0,
          "velocity": 100
        },
        {
          "pitch": 67,
          "onset": 88.0,
          "duration": 10.9688,
          "velocity": 100
        },
        {
          "pitch": 62,
          "onset": 89.0,
          "duration": 1.0,
          "velocity": 100
        },
        {
          "pitch": 65,
          "onset": 89.0,
          "duration": 1.0,
          "velocity": 100
        },
        {
          "pitch": 60,
          "onset": 90.0,
          "duration": 1.0,
          "velocity": 100
        },
        {
          "pitch": 64,
          "onset": 90.0,
          "duration": 1.0,
          "velocity": 100
        },
        {
          "pitch": 57,
          "onset": 91.0,
          "duration": 1.5,
          "velocity": 100
        },
        {
          "pitch": 60,
          "onset": 91.0,
          "duration": 1.5,
          "velocity": 100
        },
        {
          "pitch": 59,
          "onset": 92.5,
          "duration": 6.4688,
          "velocity": 100
        },
        {
          "pitch": 62,
          "onset": 92.5,
          "duration": 6.4688,
          "velocity": 100
        },
        {
          "pitch": 67,
          "onset": 103.25,
          "duration": 0.25,
          "velocity": 1
        }
      ]
    },
    {
      "role": "pedal",
      "notes": [
        {
          "pitch": 38,
          "onset": 25.0,
          "duration": 1.0,
          "velocity": 100
        },
        {
          "pitch": 42,
          "onset": 26.0,
          "duration": 1.0,
          "velocity": 100
        },
        {
          "pitch": 45,
          "onset": 27.0,
          "duration": 1.0,
          "velocity": 100
        },
        {
          "pitch": 42,
          "onset": 28.0,
          "duration": 1.0,
          "velocity": 100
        },
        {
          "pitch": 38,
          "onset": 29.0,
          "duration": 1.0,
          "velocity": 100
        },
        {
          "pitch": 40,
          "onset": 30.0,
          "duration": 1.0,
          "velocity": 100
        },
        {
          "pitch": 42,
          "onset": 31.0,
          "duration": 1.0,
          "velocity": 100
        },
        {
          "pitch": 43,
          "onset": 32.0,
          "duration": 1.0,
          "velocity": 100
        },
        {
          "pitch": 40,
          "onset": 33.0,
          "duration": 1.0,
          "velocity": 100
        },
        {
          "pitch": 42,
          "onset": 34.0,
          "duration": 1.0,
          "velocity": 100
        },
        {
          "pitch": 44,
          "onset": 35.0,
          "duration": 1.0,
          "velocity": 100
        },
        {
          "pitch": 45,
          "onset": 36.0,
          "duration": 1.0,
          "velocity": 100
        },
        {
          "pitch": 42,
          "onset": 37.0,
          "duration": 1.0,
          "velocity": 100
        },
        {
          "pitch": 44,
          "onset": 38.0,
          "duration": 1.0,
          "velocity": 100
        },
        {
          "pitch": 46,
          "onset": 39.0,
          "duration": 1.0,
          "velocity": 100
        },
        {
          "pitch": 47,
          "onset": 40.0,
          "duration": 1.0,
          "velocity": 100
        },
        {
          "pitch": 43,
          "onset": 41.0,
          "duration": 1.0,
          "velocity": 100
        },
        {
          "pitch": 38,
          "onset": 42.0,
          "duration": 1.0,
          "velocity": 100
        },
        {
          "pitch": 31,
          "onset": 51.0,
          "duration": 1.0,
          "velocity": 100
        },
        {
          "pitch": 35,
          "onset": 52.0,
          "duration": 1.0,
          "velocity": 100
        },
        {
          "pitch": 38,
          "onset": 53.0,
          "duration": 1.0,
          "velocity": 100
        },
        {
          "pitch": 35,
          "onset": 54.0,
          "duration": 1.0,
          "velocity": 100
        },
        {
          "pitch": 31,
          "onset": 55.0,
          "duration": 1.0,
          "velocity": 100
        },
        {
          "pitch": 35,
          "onset": 56.0,
          "duration": 1.0,
          "velocity": 100
        },
        {
          "pitch": 37,
          "onset": 57.0,
          "duration": 1.0,
          "velocity": 100
        },
        {
          "pitch": 38,
          "onset": 58.0,
          "duration": 15.9688,
          "velocity": 100
        },
        {
          "pitch": 43,
          "onset": 74.0,
          "duration": 24.9688,
          "velocity": 100
        }
      ]
    }
  ]
}