{
  "bwv": 759,
  "category": "organ_chorale",
  "instrument": "organ",
  "form": "",
  "movement": null,
  "tonic": "F",
  "mode": "major",
  "confidence": "inferred",
  "ticks_per_beat": 480,
  "duration_seconds": 124.7,
  "tempos": [
    {
      "tick": 0,
      "bpm": 60
    },
    {
      "tick": 55440,
      "bpm": 60
    },
    {
      "tick": 56040,
      "bpm": 55
    }
  ],
  "time_signatures": [
    {
      "tick": 0,
      "numerator": 4,
      "denominator": 4
    }
  ],
  "track_type": "manual",
  "voice_count": 2,
  "total_notes": 967,
  "tracks": [
    {
      "role": "manual",
      "notes": [
        {
          "pitch": 81,
          "onset": 0.0,
          "duration": 0.125,
          "velocity": 100
        },
        {
          "pitch": 79,
          "onset": 0.125,
          "duration": 0.125,
          "velocity": 100
        },
        {
          "pitch": 81,
          "onset": 0.25,
          "duration": 0.125,
          "velocity": 100
        },
        {
          "pitch": 84,
          "onset": 0.375,
          "duration": 0.125,
          "velocity": 100
        },
        {
          "pitch": 81,
          "onset": 0.5,
          "duration": 1.0,
          "velocity": 100
        },
        {
          "pitch": 79,
          "onset": 1.5,
          "duration": 0.5,
          "velocity": 100
        },
        {
          "pitch": 77,
          "onset": 2.0,
          "duration": 0.0938,
          "velocity": 100
        },
        {
          "pitch": 79,
          "onset": 2.0938,
          "duration": 0.0938,
          "velocity": 100
        },
        {
          "pitch": 77,
          "onset": 2.1562,
          "duration": 0.0938,
          "velocity": 100
        },
        {
          "pitch": 79,
          "onset": 2.25,
          "duration": 0.0938,
          "velocity": 100
        },
        {
          "pitch": 77,
          "onset": 2.3438,
          "duration": 0.0938,
          "velocity": 100
        },
        {
          "pitch": 79,
          "onset": 2.4062,
          "duration": 0.0938,
          "velocity": 100
        },
        {
          "pitch": 69,
          "onset": 2.5,
          "duration": 0.25,
          "velocity": 100
        },
        {
          "pitch": 77,
          "onset": 2.5,
          "duration": 0.0938,
          "velocity": 100
        },
        {
          "pitch": 79,
          "onset": 2.5938,
          "duration": 0.0938,
          "velocity": 100
        },
        {
          "pitch": 77,
          "onset": 2.6562,
          "duration": 0.0938,
          "velocity": 100
        },
        {
          "pitch": 70,
          "onset": 2.75,
          "duration": 0.25,
          "velocity": 100
        },
        {
          "pitch": 79,
          "onset": 2.75,
          "duration": 0.0938,
          "velocity": 100
        },
        {
          "pitch": 77,
          "onset": 2.8438,
          "duration": 0.0938,
          "velocity": 100
        },
        {
          "pitch": 79,
          "onset": 2.9062,
          "duration": 0.0938,
          "velocity": 100
        },
        {
          "pitch": 72,
          "onset": 3.0,
          "duration": 0.5,
          "velocity": 100
        },
        {
          "pitch": 77,
          "onset": 3.0,
          "duration": 1.5,
          "velocity": 100
        },
        {
          "pitch": 65,
          "onset": 3.5,
          "duration": 0.5,
          "velocity": 100
        },
        {
          "pitch": 67,
          "onset": 4.0,
          "duration": 0.25,
          "velocity": 100
        },
        {
          "pitch": 74,
          "onset": 4.25,
          "duration": 0.25,
          "velocity": 100
        },
        {
          "pitch": 72,
          "onset": 4.5,
          "duration": 0.25,
          "velocity": 100
        },
        {
          "pitch": 76,
          "onset": 4.5,
          "duration": 0.25,
          "velocity": 100
        },
        {
          "pitch": 70,
          "onset": 4.75,
          "duration": 0.25,
          "velocity": 100
        },
        {
          "pitch": 74,
          "onset": 4.75,
          "duration": 0.25,
          "velocity": 100
        },
        {
          "pitch": 69,
          "onset": 5.0,
          "duration": 0.5,
          "velocity": 100
        },
        {
          "pitch": 72,
          "onset": 5.0,
          "duration": 0.25,
          "velocity": 100
        },
        {
          "pitch": 77,
          "onset": 5.25,
          "duration": 0.25,
          "velocity": 100
        },
        {
          "pitch": 67,
          "onset": 5.5,
          "duration": 0.5,
          "velocity": 100
        },
        {
          "pitch": 70,
          "onset": 5.5,
          "duration": 0.25,
          "velocity": 100
        },
        {
          "pitch": 79,
          "onset": 5.75,
          "duration": 0.25,
          "velocity": 100
        },
        {
          "pitch": 65,
          "onset": 6.0,
          "duration": 1.0,
          "velocity": 100
        },
        {
          "pitch": 69,
          "onset": 6.0,
          "duration": 0.25,
          "velocity": 100
        },
        {
          "pitch": 81,
          "onset": 6.25,
          "duration": 0.25,
          "velocity": 100
        },
        {
          "pitch": 74,
          "onset": 6.5,
          "duration": 0.25,
          "velocity": 100
        },
        {
          "pitch": 77,
          "onset": 6.75,
          "duration": 0.25,
          "velocity": 100
        },
        {
          "pitch": 71,
          "onset": 7.0,
          "duration": 0.0938,
          "velocity": 100
        },
        {
          "pitch": 72,
          "onset": 7.0938,
          "duration": 0.0938,
          "velocity": 100
        },
        {
          "pitch": 71,
          "onset": 7.1562,
          "duration": 0.0938,
          "velocity": 100
        },
        {
          "pitch": 72,
          "onset": 7.25,
          "duration": 0.0938,
          "velocity": 100
        },
        {
          "pitch": 71,
          "onset": 7.3438,
          "duration": 0.0938,
          "velocity": 100
        },
        {
          "pitch": 72,
          "onset": 7.4062,
          "duration": 0.0938,
          "velocity": 100
        },
        {
          "pitch": 71,
          "onset": 7.5,
          "duration": 0.5,
          "velocity": 100
        },
        {
          "pitch": 64,
          "onset": 8.0,
          "duration": 0.125,
          "velocity": 100
        },
        {
          "pitch": 72,
          "onset": 8.0,
          "duration": 1.0,
          "velocity": 100
        },
        {
          "pitch": 62,
          "onset": 8.125,
          "duration": 0.125,
          "velocity": 100
        },
        {
          "pitch": 64,
          "onset": 8.25,
          "duration": 0.125,
          "velocity": 100
        },
        {
          "pitch": 67,
          "onset": 8.375,
          "duration": 0.125,
          "velocity": 100
        },
        {
          "pitch": 64,
          "onset": 8.5,
          "duration": 1.0,
          "velocity": 100
        },
        {
          "pitch": 62,
          "onset": 9.5,
          "duration": 0.5,
          "velocity": 100
        },
        {
          "pitch": 60,
          "onset": 10.0,
          "duration": 2.5,
          "velocity": 100
        },
        {
          "pitch": 76,
          "onset": 10.5,
          "duration": 0.25,
          "velocity": 100
        },
        {
          "pitch": 77,
          "onset": 10.75,
          "duration": 0.25,
          "velocity": 100
        },
        {
          "pitch": 79,
          "onset": 11.0,
          "duration": 0.5,
          "velocity": 100
        },
        {
          "pitch": 72,
          "onset": 11.5,
          "duration": 0.5,
          "velocity": 100
        },
        {
          "pitch": 74,
          "onset": 12.0,
          "duration": 0.25,
          "velocity": 100
        },
        {
          "pitch": 81,
          "onset": 12.25,
          "duration": 0.25,
          "velocity": 100
        },
        {
          "pitch": 64,
          "onset": 12.5,
          "duration": 0.25,
          "velocity": 100
        },
        {
          "pitch": 79,
          "onset": 12.5,
          "duration": 0.25,
          "velocity": 100
        },
        {
          "pitch": 62,
          "onset": 12.75,
          "duration": 0.25,
          "velocity": 100
        },
        {
          "pitch": 77,
          "onset": 12.75,
          "duration": 0.25,
          "velocity": 100
        },
        {
          "pitch": 60,
          "onset": 13.0,
          "duration": 0.5,
          "velocity": 100
        },
        {
          "pitch": 76,
          "onset": 13.0,
          "duration": 0.5,
          "velocity": 100
        },
        {
          "pitch": 59,
          "onset": 13.5,
          "duration": 0.5,
          "velocity": 100
        },
        {
          "pitch": 74,
          "onset": 13.5,
          "duration": 0.5,
          "velocity": 100
        },
        {
          "pitch": 60,
          "onset": 14.0,
          "duration": 0.5,
          "velocity": 100
        },
        {
          "pitch": 76,
          "onset": 14.0,
          "duration": 0.25,
          "velocity": 100
        },
        {
          "pitch": 72,
          "onset": 14.25,
          "duration": 0.125,
          "velocity": 100
        },
        {
          "pitch": 71,
          "onset": 14.375,
          "duration": 0.125,
          "velocity": 100
        },
        {
          "pitch": 72,
          "onset": 14.5,
          "duration": 0.25,
          "velocity": 100
        },
        {
          "pitch": 72,
          "onset": 14.5,
          "duration": 1.0,
          "velocity": 100
        },
        {
          "pitch": 76,
          "onset": 14.75,
          "duration": 0.25,
          "velocity": 100
        },
        {
          "pitch": 74,
          "onset": 15.0,
          "duration": 0.125,
          "velocity": 100
        },
        {
          "pitch": 72,
          "onset": 15.125,
          "duration": 0.125,
          "velocity": 100
        },
        {
          "pitch": 74,
          "onset": 15.25,
          "duration": 0.125,
          "velocity": 100
        },
        {
          "pitch": 77,
          "onset": 15.375,
          "duration": 0.125,
          "velocity": 100
        },
        {
          "pitch": 70,
          "onset": 15.5,
          "duration": 0.5,
          "velocity": 100
        },
        {
          "pitch": 76,
          "onset": 15.5,
          "duration": 0.125,
          "velocity": 100
        },
        {
          "pitch": 74,
          "onset": 15.625,
          "duration": 0.125,
          "velocity": 100
        },
        {
          "pitch": 76,
          "onset": 15.75,
          "duration": 0.125,
          "velocity": 100
        },
        {
          "pitch": 79,
          "onset": 15.875,
          "duration": 0.125,
          "velocity": 100
        },
        {
          "pitch": 69,
          "onset": 16.0,
          "duration": 0.25,
          "velocity": 100
        },
        {
          "pitch": 77,
          "onset": 16.0,
          "duration": 0.5,
          "velocity": 100
        },
        {
          "pitch": 65,
          "onset": 16.25,
          "duration": 0.125,
          "velocity": 100
        },
        {
          "pitch": 64,
          "onset": 16.375,
          "duration": 0.125,
          "velocity": 100
        },
        {
          "pitch": 65,
          "onset": 16.5,
          "duration": 0.25,
          "velocity": 100
        },
        {
          "pitch": 77,
          "onset": 16.5,
          "duration": 1.0,
          "velocity": 100
        },
        {
          "pitch": 69,
          "onset": 16.75,
          "duration": 0.25,
          "velocity": 100
        },
        {
          "pitch": 67,
          "onset": 17.0,
          "duration": 0.125,
          "velocity": 100
        },
        {
          "pitch": 65,
          "onset": 17.125,
          "duration": 0.125,
          "velocity": 100
        },
        {
          "pitch": 67,
          "onset": 17.25,
          "duration": 0.125,
          "velocity": 100
        },
        {
          "pitch": 70,
          "onset": 17.375,
          "duration": 0.125,
          "velocity": 100
        },
        {
          "pitch": 69,
          "onset": 17.5,
          "duration": 0.125,
          "velocity": 100
        },
        {
          "pitch": 75,
          "onset": 17.5,
          "duration": 0.5,
          "velocity": 100
        },
        {
          "pitch": 67,
          "onset": 17.625,
          "duration": 0.125,
          "velocity": 100
        },
        {
          "pitch": 69,
          "onset": 17.75,
          "duration": 0.125,
          "velocity": 100
        },
        {
          "pitch": 72,
          "onset": 17.875,
          "duration": 0.125,
          "velocity": 100
        },
        {
          "pitch": 70,
          "onset": 18.0,
          "duration": 0.125,
          "velocity": 100
        },
        {
          "pitch": 74,
          "onset": 18.0,
          "duration": 0.125,
          "velocity": 100
        },
        {
          "pitch": 69,
          "onset": 18.125,
          "duration": 0.125,
          "velocity": 100
        },
        {
          "pitch": 72,
          "onset": 18.125,
          "duration": 0.125,
          "velocity": 100
        },
        {
          "pitch": 70,
          "onset": 18.25,
          "duration": 0.125,
          "velocity": 100
        },
        {
          "pitch": 74,
          "onset": 18.25,
          "duration": 0.125,
          "velocity": 100
        },
        {
          "pitch": 74,
          "onset": 18.375,
          "duration": 0.125,
          "velocity": 100
        },
        {
          "pitch": 77,
          "onset": 18.375,
          "duration": 0.125,
          "velocity": 100
        },
        {
          "pitch": 70,
          "onset": 18.5,
          "duration": 1.0,
          "velocity": 100
        },
        {
          "pitch": 74,
          "onset": 18.5,
          "duration": 1.0,
          "velocity": 100
        },
        {
          "pitch": 69,
          "onset": 19.5,
          "duration": 0.5,
          "velocity": 100
        },
        {
          "pitch": 72,
          "onset": 19.5,
          "duration": 0.5,
          "velocity": 100
        },
        {
          "pitch": 67,
          "onset": 20.0,
          "duration": 0.125,
          "velocity": 100
        },
        {
          "pitch": 70,
          "onset": 20.0,
          "duration": 0.125,
          "velocity": 100
        },
        {
          "pitch": 65,
          "onset": 20.125,
          "duration": 0.125,
          "velocity": 100
        },
        {
          "pitch": 69,
          "onset": 20.125,
          "duration": 0.125,
          "velocity": 100
        },
        {
          "pitch": 67,
          "onset": 20.25,
          "duration": 0.125,
          "velocity": 100
        },
        {
          "pitch": 70,
          "onset": 20.25,
          "duration": 0.125,
          "velocity": 100
        },
        {
          "pitch": 70,
          "onset": 20.375,
          "duration": 0.125,
          "velocity": 100
        },
        {
          "pitch": 74,
          "onset": 20.375,
          "duration": 0.125,
          "velocity": 100
        },
        {
          "pitch": 67,
          "onset": 20.5,
          "duration": 1.0,
          "velocity": 100
        },
        {
          "pitch": 70,
          "onset": 20.5,
          "duration": 1.0,
          "velocity": 100
        },
        {
          "pitch": 65,
          "onset": 21.5,
          "duration": 0.5,
          "velocity": 100
        },
        {
          "pitch": 69,
          "onset": 21.5,
          "duration": 0.5,
          "velocity": 100
        },
        {
          "pitch": 64,
          "onset": 22.0,
          "duration": 0.25,
          "velocity": 100
        },
        {
          "pitch": 67,
          "onset": 22.0,
          "duration": 1.0,
          "velocity": 100
        },
        {
          "pitch": 60,
          "onset": 22.25,
          "duration": 0.25,
          "velocity": 100
        },
        {
          "pitch": 64,
          "onset": 22.5,
          "duration": 0.25,
          "velocity": 100
        },
        {
          "pitch": 67,
          "onset": 22.75,
          "duration": 0.25,
          "velocity": 100
        },
        {
          "pitch": 72,
          "onset": 23.0,
          "duration": 0.25,
          "velocity": 100
        },
        {
          "pitch": 70,
          "onset": 23.25,
          "duration": 0.25,
          "velocity": 100
        },
        {
          "pitch": 69,
          "onset": 23.5,
          "duration": 0.25,
          "velocity": 100
        },
        {
          "pitch": 67,
          "onset": 23.75,
          "duration": 0.25,
          "velocity": 100
        },
        {
          "pitch": 65,
          "onset": 24.0,
          "duration": 0.125,
          "velocity": 100
        },
        {
          "pitch": 69,
          "onset": 24.0,
          "duration": 1.0,
          "velocity": 100
        },
        {
          "pitch": 64,
          "onset": 24.125,
          "duration": 0.125,
          "velocity": 100
        },
        {
          "pitch": 65,
          "onset": 24.25,
          "duration": 0.125,
          "velocity": 100
        },
        {
          "pitch": 72,
          "onset": 24.375,
          "duration": 0.125,
          "velocity": 100
        },
        {
          "pitch": 65,
          "onset": 24.5,
          "duration": 1.0,
          "velocity": 100
        },
        {
          "pitch": 67,
          "onset": 25.0,
          "duration": 0.0938,
          "velocity": 100
        },
        {
          "pitch": 69,
          "onset": 25.0938,
          "duration": 0.0938,
          "velocity": 100
        },
        {
          "pitch": 67,
          "onset": 25.1562,
          "duration": 0.0938,
          "velocity": 100
        },
        {
          "pitch": 69,
          "onset": 25.25,
          "duration": 0.0938,
          "velocity": 100
        },
        {
          "pitch": 67,
          "onset": 25.3438,
          "duration": 0.0938,
          "velocity": 100
        },
        {
          "pitch": 69,
          "onset": 25.4062,
          "duration": 0.0938,
          "velocity": 100
        },
        {
          "pitch": 64,
          "onset": 25.5,
          "duration": 0.5,
          "velocity": 100
        },
        {
          "pitch": 67,
          "onset": 25.5,
          "duration": 0.125,
          "velocity": 100
        },
        {
          "pitch": 70,
          "onset": 25.625,
          "duration": 0.125,
          "velocity": 100
        },
        {
          "pitch": 69,
          "onset": 25.75,
          "duration": 0.125,
          "velocity": 100
        },
        {
          "pitch": 67,
          "onset": 25.875,
          "duration": 0.125,
          "velocity": 100
        },
        {
          "pitch": 62,
          "onset": 26.0,
          "duration": 0.125,
          "velocity": 100
        },
        {
          "pitch": 65,
          "onset": 26.0,
          "duration": 1.0,
          "velocity": 100
        },
        {
          "pitch": 61,
          "onset": 26.125,
          "duration": 0.125,
          "velocity": 100
        },
        {
          "pitch": 62,
          "onset": 26.25,
          "duration": 0.125,
          "velocity": 100
        },
        {
          "pitch": 69,
          "onset": 26.375,
          "duration": 0.125,
          "velocity": 100
        },
        {
          "pitch": 62,
          "onset": 26.5,
          "duration": 1.0,
          "velocity": 100
        },
        {
          "pitch": 67,
          "onset": 27.0,
          "duration": 0.0938,
          "velocity": 100
        },
        {
          "pitch": 69,
          "onset": 27.0938,
          "duration": 0.0938,
          "velocity": 100
        },
        {
          "pitch": 67,
          "onset": 27.1562,
          "duration": 0.0938,
          "velocity": 100
        },
        {
          "pitch": 69,
          "onset": 27.25,
          "duration": 0.0938,
          "velocity": 100
        },
        {
          "pitch": 67,
          "onset": 27.3438,
          "duration": 0.0938,
          "velocity": 100
        },
        {
          "pitch": 69,
          "onset": 27.4062,
          "duration": 0.0938,
          "velocity": 100
        },
        {
          "pitch": 60,
          "onset": 27.5,
          "duration": 0.5,
          "velocity": 100
        },
        {
          "pitch": 67,
          "onset": 27.5,
          "duration": 0.125,
          "velocity": 100
        },
        {
          "pitch": 65,
          "onset": 27.625,
          "duration": 0.125,
          "velocity": 100
        },
        {
          "pitch": 67,
          "onset": 27.75,
          "duration": 0.125,
          "velocity": 100
        },
        {
          "pitch": 70,
          "onset": 27.875,
          "duration": 0.125,
          "velocity": 100
        },
        {
          "pitch": 65,
          "onset": 28.0,
          "duration": 1.5,
          "velocity": 100
        },
        {
          "pitch": 69,
          "onset": 28.0,
          "duration": 0.25,
          "velocity": 100
        },
        {
          "pitch": 70,
          "onset": 28.25,
          "duration": 0.0938,
          "velocity": 100
        },
        {
          "pitch": 69,
          "onset": 28.3438,
          "duration": 0.0938,
          "velocity": 100
        },
        {
          "pitch": 67,
          "onset": 28.4062,
          "duration": 0.0938,
          "velocity": 100
        },
        {
          "pitch": 69,
          "onset": 28.5,
          "duration": 0.25,
          "velocity": 100
        },
        {
          "pitch": 70,
          "onset": 28.75,
          "duration": 0.25,
          "velocity": 100
        },
        {
          "pitch": 72,
          "onset": 29.0,
          "duration": 1.0,
          "velocity": 100
        },
        {
          "pitch": 63,
          "onset": 29.5,
          "duration": 0.5,
          "velocity": 100
        },
        {
          "pitch": 62,
          "onset": 30.0,
          "duration": 0.125,
          "velocity": 100
        },
        {
          "pitch": 70,
          "onset": 30.0,
          "duration": 0.0938,
          "velocity": 100
        },
        {
          "pitch": 72,
          "onset": 30.0938,
          "duration": 0.0938,
          "velocity": 100
        },
        {
          "pitch": 60,
          "onset": 30.125,
          "duration": 0.125,
          "velocity": 100
        },
        {
          "pitch": 70,
          "onset": 30.1562,
          "duration": 0.0938,
          "velocity": 100
        },
        {
          "pitch": 62,
          "onset": 30.25,
          "duration": 0.125,
          "velocity": 100
        },
        {
          "pitch": 72,
          "onset": 30.25,
          "duration": 0.0938,
          "velocity": 100
        },
        {
          "pitch": 70,
          "onset": 30.3438,
          "duration": 0.0938,
          "velocity": 100
        },
        {
          "pitch": 65,
          "onset": 30.375,
          "duration": 0.125,
          "velocity": 100
        },
        {
          "pitch": 72,
          "onset": 30.4062,
          "duration": 0.0938,
          "velocity": 100
        },
        {
          "pitch": 64,
          "onset": 30.5,
          "duration": 0.125,
          "velocity": 100
        },
        {
          "pitch": 70,
          "onset": 30.5,
          "duration": 0.0938,
          "velocity": 100
        },
        {
          "pitch": 72,
          "onset": 30.5938,
          "duration": 0.0938,
          "velocity": 100
        },
        {
          "pitch": 62,
          "onset": 30.625,
          "duration": 0.125,
          "velocity": 100
        },
        {
          "pitch": 70,
          "onset": 30.6562,
          "duration": 0.0938,
          "velocity": 100
        },
        {
          "pitch": 64,
          "onset": 30.75,
          "duration": 0.125,
          "velocity": 100
        },
        {
          "pitch": 72,
          "onset": 30.75,
          "duration": 0.0938,
          "velocity": 100
        },
        {
          "pitch": 70,
          "onset": 30.8438,
          "duration": 0.0938,
          "velocity": 100
        },
        {
          "pitch": 67,
          "onset": 30.875,
          "duration": 0.125,
          "velocity": 100
        },
        {
          "pitch": 72,
          "onset": 30.9062,
          "duration": 0.0938,
          "velocity": 100
        },
        {
          "pitch": 65,
          "onset": 31.0,
          "duration": 0.125,
          "velocity": 100
        },
        {
          "pitch": 70,
          "onset": 31.0,
          "duration": 1.0,
          "velocity": 100
        },
        {
          "pitch": 64,
          "onset": 31.125,
          "duration": 0.125,
          "velocity": 100
        },
        {
          "pitch": 65,
          "onset": 31.25,
          "duration": 0.125,
          "velocity": 100
        },
        {
          "pitch": 69,
          "onset": 31.375,
          "duration": 0.125,
          "velocity": 100
        },
        {
          "pitch": 67,
          "onset": 31.5,
          "duration": 0.125,
          "velocity": 100
        },
        {
          "pitch": 65,
          "onset": 31.625,
          "duration": 0.125,
          "velocity": 100
        },
        {
          "pitch": 64,
          "onset": 31.75,
          "duration": 0.125,
          "velocity": 100
        },
        {
          "pitch": 62,
          "onset": 31.875,
          "duration": 0.125,
          "velocity": 100
        },
        {
          "pitch": 60,
          "onset": 32.0,
          "duration": 0.25,
          "velocity": 100
        },
        {
          "pitch": 69,
          "onset": 32.0,
          "duration": 1.9688,
          "velocity": 100
        },
        {
          "pitch": 67,
          "onset": 32.25,
          "duration": 0.25,
          "velocity": 100
        },
        {
          "pitch": 65,
          "onset": 32.5,
          "duration": 0.25,
          "velocity": 100
        },
        {
          "pitch": 64,
          "onset": 32.75,
          "duration": 0.25,
          "velocity": 100
        },
        {
          "pitch": 65,
          "onset": 33.0,
          "duration": 0.25,
          "velocity": 100
        },
        {
          "pitch": 62,
          "onset": 33.25,
          "duration": 0.125,
          "velocity": 100
        },
        {
          "pitch": 60,
          "onset": 33.375,
          "duration": 0.125,
          "velocity": 100
        },
        {
          "pitch": 62,
          "onset": 33.5,
          "duration": 0.25,
          "velocity": 100
        },
        {
          "pitch": 65,
          "onset": 33.75,
          "duration": 0.25,
          "velocity": 100
        },
        {
          "pitch": 59,
          "onset": 34.0,
          "duration": 0.25,
          "velocity": 100
        },
        {
          "pitch": 60,
          "onset": 34.25,
          "duration": 0.25,
          "velocity": 100
        },
        {
          "pitch": 62,
          "onset": 34.5,
          "duration": 0.25,
          "velocity": 100
        },
        {
          "pitch": 64,
          "onset": 34.75,
          "duration": 0.25,
          "velocity": 100
        },
        {
          "pitch": 65,
          "onset": 35.0,
          "duration": 0.25,
          "velocity": 100
        },
        {
          "pitch": 67,
          "onset": 35.25,
          "duration": 0.25,
          "velocity": 100
        },
        {
          "pitch": 69,
          "onset": 35.5,
          "duration": 0.25,
          "velocity": 100
        },
        {
          "pitch": 65,
          "onset": 35.75,
          "duration": 0.25,
          "velocity": 100
        },
        {
          "pitch": 67,
          "onset": 36.0,
          "duration": 0.25,
          "velocity": 100
        },
        {
          "pitch": 72,
          "onset": 36.0,
          "duration": 1.0,
          "velocity": 100
        },
        {
          "pitch": 64,
          "onset": 36.25,
          "duration": 0.125,
          "velocity": 100
        },
        {
          "pitch": 62,
          "onset": 36.375,
          "duration": 0.125,
          "velocity": 100
        },
        {
          "pitch": 64,
          "onset": 36.5,
          "duration": 0.25,
          "velocity": 100
        },
        {
          "pitch": 67,
          "onset": 36.75,
          "duration": 0.25,
          "velocity": 100
        },
        {
          "pitch": 60,
          "onset": 37.0,
          "duration": 0.25,
          "velocity": 100
        },
        {
          "pitch": 70,
          "onset": 37.0,
          "duration": 0.5,
          "velocity": 100
        },
        {
          "pitch": 67,
          "onset": 37.25,
          "duration": 0.25,
          "velocity": 100
        },
        {
          "pitch": 65,
          "onset": 37.5,
          "duration": 0.25,
          "velocity": 100
        },
        {
          "pitch": 69,
          "onset": 37.5,
          "duration": 0.5,
          "velocity": 100
        },
        {
          "pitch": 64,
          "onset": 37.75,
          "duration": 0.25,
          "velocity": 100
        },
        {
          "pitch": 62,
          "onset": 38.0,
          "duration": 0.125,
          "velocity": 100
        },
        {
          "pitch": 70,
          "onset": 38.0,
          "duration": 0.0938,
          "velocity": 100
        },
        {
          "pitch": 72,
          "onset": 38.0938,
          "duration": 0.0938,
          "velocity": 100
        },
        {
          "pitch": 60,
          "onset": 38.125,
          "duration": 0.125,
          "velocity": 100
        },
        {
          "pitch": 70,
          "onset": 38.1562,
          "duration": 0.0938,
          "velocity": 100
        },
        {
          "pitch": 62,
          "onset": 38.25,
          "duration": 0.125,
          "velocity": 100
        },
        {
          "pitch": 72,
          "onset": 38.25,
          "duration": 0.0938,
          "velocity": 100
        },
        {
          "pitch": 70,
          "onset": 38.3438,
          "duration": 0.0938,
          "velocity": 100
        },
        {
          "pitch": 65,
          "onset": 38.375,
          "duration": 0.125,
          "velocity": 100
        },
        {
          "pitch": 72,
          "onset": 38.4062,
          "duration": 0.0938,
          "velocity": 100
        },
        {
          "pitch": 64,
          "onset": 38.5,
          "duration": 0.125,
          "velocity": 100
        },
        {
          "pitch": 70,
          "onset": 38.5,
          "duration": 0.5,
          "velocity": 100
        },
        {
          "pitch": 62,
          "onset": 38.625,
          "duration": 0.125,
          "velocity": 100
        },
        {
          "pitch": 64,
          "onset": 38.75,
          "duration": 0.125,
          "velocity": 100
        },
        {
          "pitch": 67,
          "onset": 38.875,
          "duration": 0.125,
          "velocity": 100
        },
        {
          "pitch": 65,
          "onset": 39.0,
          "duration": 0.5,
          "velocity": 100
        },
        {
          "pitch": 69,
          "onset": 39.0,
          "duration": 0.5,
          "velocity": 100
        },
        {
          "pitch": 64,
          "onset": 39.5,
          "duration": 0.5,
          "velocity": 100
        },
        {
          "pitch": 67,
          "onset": 39.5,
          "duration": 0.5,
          "velocity": 100
        },
        {
          "pitch": 62,
          "onset": 40.0,
          "duration": 0.25,
          "velocity": 100
        },
        {
          "pitch": 65,
          "onset": 40.0,
          "duration": 0.25,
          "velocity": 100
        },
        {
          "pitch": 61,
          "onset": 40.25,
          "duration": 0.25,
          "velocity": 100
        },
        {
          "pitch": 64,
          "onset": 40.25,
          "duration": 0.25,
          "velocity": 100
        },
        {
          "pitch": 62,
          "onset": 40.5,
          "duration": 0.25,
          "velocity": 100
        },
        {
          "pitch": 65,
          "onset": 40.5,
          "duration": 0.25,
          "velocity": 100
        },
        {
          "pitch": 64,
          "onset": 40.75,
          "duration": 0.25,
          "velocity": 100
        },
        {
          "pitch": 67,
          "onset": 40.75,
          "duration": 0.25,
          "velocity": 100
        },
        {
          "pitch": 65,
          "onset": 41.0,
          "duration": 1.25,
          "velocity": 100
        },
        {
          "pitch": 69,
          "onset": 41.0,
          "duration": 0.625,
          "velocity": 100
        },
        {
          "pitch": 67,
          "onset": 41.625,
          "duration": 0.125,
          "velocity": 100
        },
        {
          "pitch": 69,
          "onset": 41.75,
          "duration": 0.125,
          "velocity": 100
        },
        {
          "pitch": 70,
          "onset": 41.875,
          "duration": 0.125,
          "velocity": 100
        },
        {
          "pitch": 67,
          "onset": 42.0,
          "duration": 0.0938,
          "velocity": 100
        },
        {
          "pitch": 69,
          "onset": 42.0938,
          "duration": 0.0938,
          "velocity": 100
        },
        {
          "pitch": 67,
          "onset": 42.1562,
          "duration": 0.0938,
          "velocity": 100
        },
        {
          "pitch": 62,
          "onset": 42.25,
          "duration": 0.25,
          "velocity": 100
        },
        {
          "pitch": 69,
          "onset": 42.25,
          "duration": 0.0938,
          "velocity": 100
        },
        {
          "pitch": 67,
          "onset": 42.3438,
          "duration": 0.0938,
          "velocity": 100
        },
        {
          "pitch": 69,
          "onset": 42.4062,
          "duration": 0.0938,
          "velocity": 100
        },
        {
          "pitch": 64,
          "onset": 42.5,
          "duration": 0.25,
          "velocity": 100
        },
        {
          "pitch": 67,
          "onset": 42.5,
          "duration": 0.0938,
          "velocity": 100
        },
        {
          "pitch": 69,
          "onset": 42.5938,
          "duration": 0.0938,
          "velocity": 100
        },
        {
          "pitch": 67,
          "onset": 42.6562,
          "duration": 0.0938,
          "velocity": 100
        },
        {
          "pitch": 65,
          "onset": 42.75,
          "duration": 0.25,
          "velocity": 100
        },
        {
          "pitch": 69,
          "onset": 42.75,
          "duration": 0.0938,
          "velocity": 100
        },
        {
          "pitch": 67,
          "onset": 42.8438,
          "duration": 0.0938,
          "velocity": 100
        },
        {
          "pitch": 69,
          "onset": 42.9062,
          "duration": 0.0938,
          "velocity": 100
        },
        {
          "pitch": 64,
          "onset": 43.0,
          "duration": 0.25,
          "velocity": 100
        },
        {
          "pitch": 67,
          "onset": 43.0,
          "duration": 1.0,
          "velocity": 100
        },
        {
          "pitch": 62,
          "onset": 43.25,
          "duration": 0.25,
          "velocity": 100
        },
        {
          "pitch": 60,
          "onset": 43.5,
          "duration": 0.25,
          "velocity": 100
        },
        {
          "pitch": 58,
          "onset": 43.75,
          "duration": 0.25,
          "velocity": 100
        },
        {
          "pitch": 57,
          "onset": 44.0,
          "duration": 0.25,
          "velocity": 100
        },
        {
          "pitch": 65,
          "onset": 44.0,
          "duration": 1.9688,
          "velocity": 100
        },
        {
          "pitch": 69,
          "onset": 44.25,
          "duration": 0.25,
          "velocity": 100
        },
        {
          "pitch": 62,
          "onset": 44.5,
          "duration": 0.25,
          "velocity": 100
        },
        {
          "pitch": 65,
          "onset": 44.75,
          "duration": 0.25,
          "velocity": 100
        },
        {
          "pitch": 59,
          "onset": 45.0,
          "duration": 0.25,
          "velocity": 100
        },
        {
          "pitch": 60,
          "onset": 45.25,
          "duration": 0.25,
          "velocity": 100
        },
        {
          "pitch": 62,
          "onset": 45.5,
          "duration": 0.25,
          "velocity": 100
        },
        {
          "pitch": 59,
          "onset": 45.75,
          "duration": 0.25,
          "velocity": 100
        },
        {
          "pitch": 64,
          "onset": 46.0,
          "duration": 0.25,
          "velocity": 100
        },
        {
          "pitch": 60,
          "onset": 46.25,
          "duration": 0.25,
          "velocity": 100
        },
        {
          "pitch": 64,
          "onset": 46.5,
          "duration": 0.25,
          "velocity": 100
        },
        {
          "pitch": 67,
          "onset": 46.75,
          "duration": 0.25,
          "velocity": 100
        },
        {
          "pitch": 72,
          "onset": 47.0,
          "duration": 0.25,
          "velocity": 100
        },
        {
          "pitch": 70,
          "onset": 47.25,
          "duration": 0.25,
          "velocity": 100
        },
        {
          "pitch": 69,
          "onset": 47.5,
          "duration": 0.25,
          "velocity": 100
        },
        {
          "pitch": 67,
          "onset": 47.75,
          "duration": 0.25,
          "velocity": 100
        },
        {
          "pitch": 65,
          "onset": 48.0,
          "duration": 0.125,
          "velocity": 100
        },
        {
          "pitch": 69,
          "onset": 48.0,
          "duration": 1.0,
          "velocity": 100
        },
        {
          "pitch": 64,
          "onset": 48.125,
          "duration": 0.125,
          "velocity": 100
        },
        {
          "pitch": 65,
          "onset": 48.25,
          "duration": 0.125,
          "velocity": 100
        },
        {
          "pitch": 72,
          "onset": 48.375,
          "duration": 0.125,
          "velocity": 100
        },
        {
          "pitch": 65,
          "onset": 48.5,
          "duration": 1.0,
          "velocity": 100
        },
        {
          "pitch": 67,
          "onset": 49.0,
          "duration": 0.0938,
          "velocity": 100
        },
        {
          "pitch": 69,
          "onset": 49.0938,
          "duration": 0.0938,
          "velocity": 100
        },
        {
          "pitch": 67,
          "onset": 49.1562,
          "duration": 0.0938,
          "velocity": 100
        },
        {
          "pitch": 69,
          "onset": 49.25,
          "duration": 0.0938,
          "velocity": 100
        },
        {
          "pitch": 67,
          "onset": 49.3438,
          "duration": 0.0938,
          "velocity": 100
        },
        {
          "pitch": 69,
          "onset": 49.4062,
          "duration": 0.0938,
          "velocity": 100
        },
        {
          "pitch": 64,
          "onset": 49.5,
          "duration": 0.5,
          "velocity": 100
        },
        {
          "pitch": 67,
          "onset": 49.5,
          "duration": 0.125,
          "velocity": 100
        },
        {
          "pitch": 70,
          "onset": 49.625,
          "duration": 0.125,
          "velocity": 100
        },
        {
          "pitch": 69,
          "onset": 49.75,
          "duration": 0.125,
          "velocity": 100
        },
        {
          "pitch": 67,
          "onset": 49.875,
          "duration": 0.125,
          "velocity": 100
        },
        {
          "pitch": 62,
          "onset": 50.0,
          "duration": 0.125,
          "velocity": 100
        },
        {
          "pitch": 65,
          "onset": 50.0,
          "duration": 1.0,
          "velocity": 100
        },
        {
          "pitch": 61,
          "onset": 50.125,
          "duration": 0.125,
          "velocity": 100
        },
        {
          "pitch": 62,
          "onset": 50.25,
          "duration": 0.125,
          "velocity": 100
        },
        {
          "pitch": 69,
          "onset": 50.375,
          "duration": 0.125,
          "velocity": 100
        },
        {
          "pitch": 62,
          "onset": 50.5,
          "duration": 1.0,
          "velocity": 100
        },
        {
          "pitch": 67,
          "onset": 51.0,
          "duration": 0.0938,
          "velocity": 100
        },
        {
          "pitch": 69,
          "onset": 51.0938,
          "duration": 0.0938,
          "velocity": 100
        },
        {
          "pitch": 67,
          "onset": 51.1562,
          "duration": 0.0938,
          "velocity": 100
        },
        {
          "pitch": 69,
          "onset": 51.25,
          "duration": 0.0938,
          "velocity": 100
        },
        {
          "pitch": 67,
          "onset": 51.3438,
          "duration": 0.0938,
          "velocity": 100
        },
        {
          "pitch": 69,
          "onset": 51.4062,
          "duration": 0.0938,
          "velocity": 100
        },
        {
          "pitch": 60,
          "onset": 51.5,
          "duration": 0.5,
          "velocity": 100
        },
        {
          "pitch": 67,
          "onset": 51.5,
          "duration": 0.125,
          "velocity": 100
        },
        {
          "pitch": 65,
          "onset": 51.625,
          "duration": 0.125,
          "velocity": 100
        },
        {
          "pitch": 67,
          "onset": 51.75,
          "duration": 0.125,
          "velocity": 100
        },
        {
          "pitch": 70,
          "onset": 51.875,
          "duration": 0.125,
          "velocity": 100
        },
        {
          "pitch": 65,
          "onset": 52.0,
          "duration": 1.5,
          "velocity": 100
        },
        {
          "pitch": 69,
          "onset": 52.0,
          "duration": 0.25,
          "velocity": 100
        },
        {
          "pitch": 70,
          "onset": 52.25,
          "duration": 0.0938,
          "velocity": 100
        },
        {
          "pitch": 69,
          "onset": 52.3438,
          "duration": 0.0938,
          "velocity": 100
        },
        {
          "pitch": 67,
          "onset": 52.4062,
          "duration": 0.0938,
          "velocity": 100
        },
        {
          "pitch": 69,
          "onset": 52.5,
          "duration": 0.25,
          "velocity": 100
        },
        {
          "pitch": 70,
          "onset": 52.75,
          "duration": 0.25,
          "velocity": 100
        },
        {
          "pitch": 72,
          "onset": 53.0,
          "duration": 1.0,
          "velocity": 100
        },
        {
          "pitch": 63,
          "onset": 53.5,
          "duration": 0.5,
          "velocity": 100
        },
        {
          "pitch": 62,
          "onset": 54.0,
          "duration": 0.125,
          "velocity": 100
        },
        {
          "pitch": 70,
          "onset": 54.0,
          "duration": 0.0938,
          "velocity": 100
        },
        {
          "pitch": 72,
          "onset": 54.0938,
          "duration": 0.0938,
          "velocity": 100
        },
        {
          "pitch": 60,
          "onset": 54.125,
          "duration": 0.125,
          "velocity": 100
        },
        {
          "pitch": 70,
          "onset": 54.1562,
          "duration": 0.0938,
          "velocity": 100
        },
        {
          "pitch": 62,
          "onset": 54.25,
          "duration": 0.125,
          "velocity": 100
        },
        {
          "pitch": 72,
          "onset": 54.25,
          "duration": 0.0938,
          "velocity": 100
        },
        {
          "pitch": 70,
          "onset": 54.3438,
          "duration": 0.0938,
          "velocity": 100
        },
        {
          "pitch": 65,
          "onset": 54.375,
          "duration": 0.125,
          "velocity": 100
        },
        {
          "pitch": 72,
          "onset": 54.4062,
          "duration": 0.0938,
          "velocity": 100
        },
        {
          "pitch": 64,
          "onset": 54.5,
          "duration": 0.125,
          "velocity": 100
        },
        {
          "pitch": 70,
          "onset": 54.5,
          "duration": 0.0938,
          "velocity": 100
        },
        {
          "pitch": 72,
          "onset": 54.5938,
          "duration": 0.0938,
          "velocity": 100
        },
        {
          "pitch": 62,
          "onset": 54.625,
          "duration": 0.125,
          "velocity": 100
        },
        {
          "pitch": 70,
          "onset": 54.6562,
          "duration": 0.0938,
          "velocity": 100
        },
        {
          "pitch": 64,
          "onset": 54.75,
          "duration": 0.125,
          "velocity": 100
        },
        {
          "pitch": 72,
          "onset": 54.75,
          "duration": 0.0938,
          "velocity": 100
        },
        {
          "pitch": 70,
          "onset": 54.8438,
          "duration": 0.0938,
          "velocity": 100
        },
        {
          "pitch": 67,
          "onset": 54.875,
          "duration": 0.125,
          "velocity": 100
        },
        {
          "pitch": 72,
          "onset": 54.9062,
          "duration": 0.0938,
          "velocity": 100
        },
        {
          "pitch": 65,
          "onset": 55.0,
          "duration": 0.125,
          "velocity": 100
        },
        {
          "pitch": 70,
          "onset": 55.0,
          "duration": 1.0,
          "velocity": 100
        },
        {
          "pitch": 64,
          "onset": 55.125,
          "duration": 0.125,
          "velocity": 100
        },
        {
          "pitch": 65,
          "onset": 55.25,
          "duration": 0.125,
          "velocity": 100
        },
        {
          "pitch": 69,
          "onset": 55.375,
          "duration": 0.125,
          "velocity": 100
        },
        {
          "pitch": 67,
          "onset": 55.5,
          "duration": 0.125,
          "velocity": 100
        },
        {
          "pitch": 65,
          "onset": 55.625,
          "duration": 0.125,
          "velocity": 100
        },
        {
          "pitch": 64,
          "onset": 55.75,
          "duration": 0.125,
          "velocity": 100
        },
        {
          "pitch": 62,
          "onset": 55.875,
          "duration": 0.125,
          "velocity": 100
        },
        {
          "pitch": 60,
          "onset": 56.0,
          "duration": 0.25,
          "velocity": 100
        },
        {
          "pitch": 69,
          "onset": 56.0,
          "duration": 1.9688,
          "velocity": 100
        },
        {
          "pitch": 67,
          "onset": 56.25,
          "duration": 0.25,
          "velocity": 100
        },
        {
          "pitch": 65,
          "onset": 56.5,
          "duration": 0.25,
          "velocity": 100
        },
        {
          "pitch": 64,
          "onset": 56.75,
          "duration": 0.25,
          "velocity": 100
        },
        {
          "pitch": 65,
          "onset": 57.0,
          "duration": 0.25,
          "velocity": 100
        },
        {
          "pitch": 62,
          "onset": 57.25,
          "duration": 0.125,
          "velocity": 100
        },
        {
          "pitch": 60,
          "onset": 57.375,
          "duration": 0.125,
          "velocity": 100
        },
        {
          "pitch": 62,
          "onset": 57.5,
          "duration": 0.25,
          "velocity": 100
        },
        {
          "pitch": 65,
          "onset": 57.75,
          "duration": 0.25,
          "velocity": 100
        },
        {
          "pitch": 59,
          "onset": 58.0,
          "duration": 0.25,
          "velocity": 100
        },
        {
          "pitch": 60,
          "onset": 58.25,
          "duration": 0.25,
          "velocity": 100
        },
        {
          "pitch": 62,
          "onset": 58.5,
          "duration": 0.25,
          "velocity": 100
        },
        {
          "pitch": 64,
          "onset": 58.75,
          "duration": 0.25,
          "velocity": 100
        },
        {
          "pitch": 65,
          "onset": 59.0,
          "duration": 0.25,
          "velocity": 100
        },
        {
          "pitch": 67,
          "onset": 59.25,
          "duration": 0.25,
          "velocity": 100
        },
        {
          "pitch": 69,
          "onset": 59.5,
          "duration": 0.25,
          "velocity": 100
        },
        {
          "pitch": 65,
          "onset": 59.75,
          "duration": 0.25,
          "velocity": 100
        },
        {
          "pitch": 67,
          "onset": 60.0,
          "duration": 0.25,
          "velocity": 100
        },
        {
          "pitch": 72,
          "onset": 60.0,
          "duration": 1.0,
          "velocity": 100
        },
        {
          "pitch": 64,
          "onset": 60.25,
          "duration": 0.125,
          "velocity": 100
        },
        {
          "pitch": 62,
          "onset": 60.375,
          "duration": 0.125,
          "velocity": 100
        },
        {
          "pitch": 64,
          "onset": 60.5,
          "duration": 0.25,
          "velocity": 100
        },
        {
          "pitch": 67,
          "onset": 60.75,
          "duration": 0.25,
          "velocity": 100
        },
        {
          "pitch": 60,
          "onset": 61.0,
          "duration": 0.25,
          "velocity": 100
        },
        {
          "pitch": 70,
          "onset": 61.0,
          "duration": 0.5,
          "velocity": 100
        },
        {
          "pitch": 67,
          "onset": 61.25,
          "duration": 0.25,
          "velocity": 100
        },
        {
          "pitch": 65,
          "onset": 61.5,
          "duration": 0.25,
          "velocity": 100
        },
        {
          "pitch": 69,
          "onset": 61.5,
          "duration": 0.5,
          "velocity": 100
        },
        {
          "pitch": 64,
          "onset": 61.75,
          "duration": 0.25,
          "velocity": 100
        },
        {
          "pitch": 62,
          "onset": 62.0,
          "duration": 0.125,
          "velocity": 100
        },
        {
          "pitch": 70,
          "onset": 62.0,
          "duration": 0.0938,
          "velocity": 100
        },
        {
          "pitch": 72,
          "onset": 62.0938,
          "duration": 0.0938,
          "velocity": 100
        },
        {
          "pitch": 60,
          "onset": 62.125,
          "duration": 0.125,
          "velocity": 100
        },
        {
          "pitch": 70,
          "onset": 62.1562,
          "duration": 0.0938,
          "velocity": 100
        },
        {
          "pitch": 62,
          "onset": 62.25,
          "duration": 0.125,
          "velocity": 100
        },
        {
          "pitch": 72,
          "onset": 62.25,
          "duration": 0.0938,
          "velocity": 100
        },
        {
          "pitch": 70,
          "onset": 62.3438,
          "duration": 0.0938,
          "velocity": 100
        },
        {
          "pitch": 65,
          "onset": 62.375,
          "duration": 0.125,
          "velocity": 100
        },
        {
          "pitch": 72,
          "onset": 62.4062,
          "duration": 0.0938,
          "velocity": 100
        },
        {
          "pitch": 64,
          "onset": 62.5,
          "duration": 0.125,
          "velocity": 100
        },
        {
          "pitch": 70,
          "onset": 62.5,
          "duration": 0.5,
          "velocity": 100
        },
        {
          "pitch": 62,
          "onset": 62.625,
          "duration": 0.125,
          "velocity": 100
        },
        {
          "pitch": 64,
          "onset": 62.75,
          "duration": 0.125,
          "velocity": 100
        },
        {
          "pitch": 67,
          "onset": 62.875,
          "duration": 0.125,
          "velocity": 100
        },
        {
          "pitch": 65,
          "onset": 63.0,
          "duration": 0.5,
          "velocity": 100
        },
        {
          "pitch": 69,
          "onset": 63.0,
          "duration": 0.5,
          "velocity": 100
        },
        {
          "pitch": 64,
          "onset": 63.5,
          "duration": 0.5,
          "velocity": 100
        },
        {
          "pitch": 67,
          "onset": 63.5,
          "duration": 0.5,
          "velocity": 100
        },
        {
          "pitch": 62,
          "onset": 64.0,
          "duration": 0.25,
          "velocity": 100
        },
        {
          "pitch": 65,
          "onset": 64.0,
          "duration": 0.25,
          "velocity": 100
        },
        {
          "pitch": 61,
          "onset": 64.25,
          "duration": 0.25,
          "velocity": 100
        },
        {
          "pitch": 64,
          "onset": 64.25,
          "duration": 0.25,
          "velocity": 100
        },
        {
          "pitch": 62,
          "onset": 64.5,
          "duration": 0.25,
          "velocity": 100
        },
        {
          "pitch": 65,
          "onset": 64.5,
          "duration": 0.25,
          "velocity": 100
        },
        {
          "pitch": 64,
          "onset": 64.75,
          "duration": 0.25,
          "velocity": 100
        },
        {
          "pitch": 67,
          "onset": 64.75,
          "duration": 0.25,
          "velocity": 100
        },
        {
          "pitch": 65,
          "onset": 65.0,
          "duration": 1.25,
          "velocity": 100
        },
        {
          "pitch": 69,
          "onset": 65.0,
          "duration": 0.625,
          "velocity": 100
        },
        {
          "pitch": 67,
          "onset": 65.625,
          "duration": 0.125,
          "velocity": 100
        },
        {
          "pitch": 69,
          "onset": 65.75,
          "duration": 0.125,
          "velocity": 100
        },
        {
          "pitch": 70,
          "onset": 65.875,
          "duration": 0.125,
          "velocity": 100
        },
        {
          "pitch": 67,
          "onset": 66.0,
          "duration": 0.0938,
          "velocity": 100
        },
        {
          "pitch": 69,
          "onset": 66.0938,
          "duration": 0.0938,
          "velocity": 100
        },
        {
          "pitch": 67,
          "onset": 66.1562,
          "duration": 0.0938,
          "velocity": 100
        },
        {
          "pitch": 62,
          "onset": 66.25,
          "duration": 0.25,
          "velocity": 100
        },
        {
          "pitch": 69,
          "onset": 66.25,
          "duration": 0.0938,
          "velocity": 100
        },
        {
          "pitch": 67,
          "onset": 66.3438,
          "duration": 0.0938,
          "velocity": 100
        },
        {
          "pitch": 69,
          "onset": 66.4062,
          "duration": 0.0938,
          "velocity": 100
        },
        {
          "pitch": 64,
          "onset": 66.5,
          "duration": 0.25,
          "velocity": 100
        },
        {
          "pitch": 67,
          "onset": 66.5,
          "duration": 0.0938,
          "velocity": 100
        },
        {
          "pitch": 69,
          "onset": 66.5938,
          "duration": 0.0938,
          "velocity": 100
        },
        {
          "pitch": 67,
          "onset": 66.6562,
          "duration": 0.0938,
          "velocity": 100
        },
        {
          "pitch": 65,
          "onset": 66.75,
          "duration": 0.25,
          "velocity": 100
        },
        {
          "pitch": 69,
          "onset": 66.75,
          "duration": 0.0938,
          "velocity": 100
        },
        {
          "pitch": 67,
          "onset": 66.8438,
          "duration": 0.0938,
          "velocity": 100
        },
        {
          "pitch": 69,
          "onset": 66.9062,
          "duration": 0.0938,
          "velocity": 100
        },
        {
          "pitch": 64,
          "onset": 67.0,
          "duration": 0.25,
          "velocity": 100
        },
        {
          "pitch": 67,
          "onset": 67.0,
          "duration": 1.0,
          "velocity": 100
        },
        {
          "pitch": 62,
          "onset": 67.25,
          "duration": 0.25,
          "velocity": 100
        },
        {
          "pitch": 60,
          "onset": 67.5,
          "duration": 0.25,
          "velocity": 100
        },
        {
          "pitch": 58,
          "onset": 67.75,
          "duration": 0.25,
          "velocity": 100
        },
        {
          "pitch": 57,
          "onset": 68.0,
          "duration": 0.25,
          "velocity": 100
        },
        {
          "pitch": 65,
          "onset": 68.0,
          "duration": 1.9688,
          "velocity": 100
        },
        {
          "pitch": 69,
          "onset": 68.25,
          "duration": 0.25,
          "velocity": 100
        },
        {
          "pitch": 62,
          "onset": 68.5,
          "duration": 0.25,
          "velocity": 100
        },
        {
          "pitch": 65,
          "onset": 68.75,
          "duration": 0.25,
          "velocity": 100
        },
        {
          "pitch": 59,
          "onset": 69.0,
          "duration": 0.25,
          "velocity": 100
        },
        {
          "pitch": 60,
          "onset": 69.25,
          "duration": 0.25,
          "velocity": 100
        },
        {
          "pitch": 62,
          "onset": 69.5,
          "duration": 0.25,
          "velocity": 100
        },
        {
          "pitch": 59,
          "onset": 69.75,
          "duration": 0.25,
          "velocity": 100
        },
        {
          "pitch": 64,
          "onset": 70.0,
          "duration": 0.25,
          "velocity": 100
        },
        {
          "pitch": 60,
          "onset": 70.25,
          "duration": 0.25,
          "velocity": 100
        },
        {
          "pitch": 64,
          "onset": 70.5,
          "duration": 0.25,
          "velocity": 100
        },
        {
          "pitch": 67,
          "onset": 70.75,
          "duration": 0.25,
          "velocity": 100
        },
        {
          "pitch": 72,
          "onset": 71.0,
          "duration": 0.25,
          "velocity": 100
        },
        {
          "pitch": 70,
          "onset": 71.25,
          "duration": 0.25,
          "velocity": 100
        },
        {
          "pitch": 69,
          "onset": 71.5,
          "duration": 0.25,
          "velocity": 100
        },
        {
          "pitch": 67,
          "onset": 71.75,
          "duration": 0.25,
          "velocity": 100
        },
        {
          "pitch": 69,
          "onset": 72.0,
          "duration": 0.25,
          "velocity": 100
        },
        {
          "pitch": 70,
          "onset": 72.25,
          "duration": 0.125,
          "velocity": 100
        },
        {
          "pitch": 69,
          "onset": 72.375,
          "duration": 0.125,
          "velocity": 100
        },
        {
          "pitch": 67,
          "onset": 72.5,
          "duration": 0.25,
          "velocity": 100
        },
        {
          "pitch": 65,
          "onset": 72.75,
          "duration": 0.25,
          "velocity": 100
        },
        {
          "pitch": 64,
          "onset": 73.0,
          "duration": 0.25,
          "velocity": 100
        },
        {
          "pitch": 74,
          "onset": 73.25,
          "duration": 0.25,
          "velocity": 100
        },
        {
          "pitch": 72,
          "onset": 73.5,
          "duration": 0.25,
          "velocity": 100
        },
        {
          "pitch": 70,
          "onset": 73.75,
          "duration": 0.25,
          "velocity": 100
        },
        {
          "pitch": 69,
          "onset": 74.0,
          "duration": 0.125,
          "velocity": 100
        },
        {
          "pitch": 72,
          "onset": 74.0,
          "duration": 1.0,
          "velocity": 100
        },
        {
          "pitch": 67,
          "onset": 74.125,
          "duration": 0.125,
          "velocity": 100
        },
        {
          "pitch": 69,
          "onset": 74.25,
          "duration": 0.125,
          "velocity": 100
        },
        {
          "pitch": 72,
          "onset": 74.375,
          "duration": 0.125,
          "velocity": 100
        },
        {
          "pitch": 69,
          "onset": 74.5,
          "duration": 1.0,
          "velocity": 100
        },
        {
          "pitch": 72,
          "onset": 75.0,
          "duration": 1.0,
          "velocity": 100
        },
        {
          "pitch": 67,
          "onset": 75.5,
          "duration": 0.5,
          "velocity": 100
        },
        {
          "pitch": 69,
          "onset": 76.0,
          "duration": 0.125,
          "velocity": 100
        },
        {
          "pitch": 77,
          "onset": 76.0,
          "duration": 1.0,
          "velocity": 100
        },
        {
          "pitch": 67,
          "onset": 76.125,
          "duration": 0.125,
          "velocity": 100
        },
        {
          "pitch": 69,
          "onset": 76.25,
          "duration": 0.125,
          "velocity": 100
        },
        {
          "pitch": 72,
          "onset": 76.375,
          "duration": 0.125,
          "velocity": 100
        },
        {
          "pitch": 71,
          "onset": 76.5,
          "duration": 0.125,
          "velocity": 100
        },
        {
          "pitch": 69,
          "onset": 76.625,
          "duration": 0.125,
          "velocity": 100
        },
        {
          "pitch": 71,
          "onset": 76.75,
          "duration": 0.125,
          "velocity": 100
        },
        {
          "pitch": 74,
          "onset": 76.875,
          "duration": 0.125,
          "velocity": 100
        },
        {
          "pitch": 72,
          "onset": 77.0,
          "duration": 0.25,
          "velocity": 100
        },
        {
          "pitch": 76,
          "onset": 77.0,
          "duration": 1.0,
          "velocity": 100
        },
        {
          "pitch": 71,
          "onset": 77.25,
          "duration": 0.25,
          "velocity": 100
        },
        {
          "pitch": 72,
          "onset": 77.5,
          "duration": 0.25,
          "velocity": 100
        },
        {
          "pitch": 64,
          "onset": 77.75,
          "duration": 0.25,
          "velocity": 100
        },
        {
          "pitch": 65,
          "onset": 78.0,
          "duration": 0.125,
          "velocity": 100
        },
        {
          "pitch": 74,
          "onset": 78.0,
          "duration": 1.0,
          "velocity": 100
        },
        {
          "pitch": 64,
          "onset": 78.125,
          "duration": 0.125,
          "velocity": 100
        },
        {
          "pitch": 65,
          "onset": 78.25,
          "duration": 0.125,
          "velocity": 100
        },
        {
          "pitch": 67,
          "onset": 78.375,
          "duration": 0.125,
          "velocity": 100
        },
        {
          "pitch": 65,
          "onset": 78.5,
          "duration": 0.125,
          "velocity": 100
        },
        {
          "pitch": 64,
          "onset": 78.625,
          "duration": 0.125,
          "velocity": 100
        },
        {
          "pitch": 65,
          "onset": 78.75,
          "duration": 0.125,
          "velocity": 100
        },
        {
          "pitch": 62,
          "onset": 78.875,
          "duration": 0.125,
          "velocity": 100
        },
        {
          "pitch": 64,
          "onset": 79.0,
          "duration": 0.125,
          "velocity": 100
        },
        {
          "pitch": 72,
          "onset": 79.0,
          "duration": 1.0,
          "velocity": 100
        },
        {
          "pitch": 62,
          "onset": 79.125,
          "duration": 0.125,
          "velocity": 100
        },
        {
          "pitch": 64,
          "onset": 79.25,
          "duration": 0.125,
          "velocity": 100
        },
        {
          "pitch": 65,
          "onset": 79.375,
          "duration": 0.125,
          "velocity": 100
        },
        {
          "pitch": 64,
          "onset": 79.5,
          "duration": 0.125,
          "velocity": 100
        },
        {
          "pitch": 62,
          "onset": 79.625,
          "duration": 0.125,
          "velocity": 100
        },
        {
          "pitch": 64,
          "onset": 79.75,
          "duration": 0.125,
          "velocity": 100
        },
        {
          "pitch": 60,
          "onset": 79.875,
          "duration": 0.125,
          "velocity": 100
        },
        {
          "pitch": 62,
          "onset": 80.0,
          "duration": 0.25,
          "velocity": 100
        },
        {
          "pitch": 72,
          "onset": 80.0,
          "duration": 1.0,
          "velocity": 100
        },
        {
          "pitch": 69,
          "onset": 80.25,
          "duration": 0.25,
          "velocity": 100
        },
        {
          "pitch": 67,
          "onset": 80.5,
          "duration": 0.25,
          "velocity": 100
        },
        {
          "pitch": 65,
          "onset": 80.75,
          "duration": 0.25,
          "velocity": 100
        },
        {
          "pitch": 67,
          "onset": 81.0,
          "duration": 0.125,
          "velocity": 100
        },
        {
          "pitch": 71,
          "onset": 81.0,
          "duration": 0.0938,
          "velocity": 100
        },
        {
          "pitch": 72,
          "onset": 81.0938,
          "duration": 0.0938,
          "velocity": 100
        },
        {
          "pitch": 64,
          "onset": 81.125,
          "duration": 0.125,
          "velocity": 100
        },
        {
          "pitch": 71,
          "onset": 81.1562,
          "duration": 0.0938,
          "velocity": 100
        },
        {
          "pitch": 65,
          "onset": 81.25,
          "duration": 0.125,
          "velocity": 100
        },
        {
          "pitch": 72,
          "onset": 81.25,
          "duration": 0.0938,
          "velocity": 100
        },
        {
          "pitch": 71,
          "onset": 81.3438,
          "duration": 0.0938,
          "velocity": 100
        },
        {
          "pitch": 67,
          "onset": 81.375,
          "duration": 0.125,
          "velocity": 100
        },
        {
          "pitch": 72,
          "onset": 81.4062,
          "duration": 0.0938,
          "velocity": 100
        },
        {
          "pitch": 65,
          "onset": 81.5,
          "duration": 0.125,
          "velocity": 100
        },
        {
          "pitch": 71,
          "onset": 81.5,
          "duration": 0.5,
          "velocity": 100
        },
        {
          "pitch": 64,
          "onset": 81.625,
          "duration": 0.125,
          "velocity": 100
        },
        {
          "pitch": 65,
          "onset": 81.75,
          "duration": 0.125,
          "velocity": 100
        },
        {
          "pitch": 62,
          "onset": 81.875,
          "duration": 0.125,
          "velocity": 100
        },
        {
          "pitch": 64,
          "onset": 82.0,
          "duration": 0.25,
          "velocity": 100
        },
        {
          "pitch": 72,
          "onset": 82.0,
          "duration": 1.9688,
          "velocity": 100
        },
        {
          "pitch": 60,
          "onset": 82.25,
          "duration": 0.125,
          "velocity": 100
        },
        {
          "pitch": 62,
          "onset": 82.375,
          "duration": 0.125,
          "velocity": 100
        },
        {
          "pitch": 64,
          "onset": 82.5,
          "duration": 0.25,
          "velocity": 100
        },
        {
          "pitch": 65,
          "onset": 82.75,
          "duration": 0.25,
          "velocity": 100
        },
        {
          "pitch": 67,
          "onset": 83.0,
          "duration": 0.25,
          "velocity": 100
        },
        {
          "pitch": 69,
          "onset": 83.25,
          "duration": 0.25,
          "velocity": 100
        },
        {
          "pitch": 70,
          "onset": 83.5,
          "duration": 0.25,
          "velocity": 100
        },
        {
          "pitch": 67,
          "onset": 83.75,
          "duration": 0.25,
          "velocity": 100
        },
        {
          "pitch": 69,
          "onset": 84.0,
          "duration": 0.125,
          "velocity": 100
        },
        {
          "pitch": 72,
          "onset": 84.0,
          "duration": 1.0,
          "velocity": 100
        },
        {
          "pitch": 67,
          "onset": 84.125,
          "duration": 0.125,
          "velocity": 100
        },
        {
          "pitch": 69,
          "onset": 84.25,
          "duration": 0.125,
          "velocity": 100
        },
        {
          "pitch": 72,
          "onset": 84.375,
          "duration": 0.125,
          "velocity": 100
        },
        {
          "pitch": 69,
          "onset": 84.5,
          "duration": 1.0,
          "velocity": 100
        },
        {
          "pitch": 72,
          "onset": 85.0,
          "duration": 1.0,
          "velocity": 100
        },
        {
          "pitch": 67,
          "onset": 85.5,
          "duration": 0.5,
          "velocity": 100
        },
        {
          "pitch": 69,
          "onset": 86.0,
          "duration": 0.125,
          "velocity": 100
        },
        {
          "pitch": 77,
          "onset": 86.0,
          "duration": 1.0,
          "velocity": 100
        },
        {
          "pitch": 67,
          "onset": 86.125,
          "duration": 0.125,
          "velocity": 100
        },
        {
          "pitch": 69,
          "onset": 86.25,
          "duration": 0.125,
          "velocity": 100
        },
        {
          "pitch": 72,
          "onset": 86.375,
          "duration": 0.125,
          "velocity": 100
        },
        {
          "pitch": 71,
          "onset": 86.5,
          "duration": 0.125,
          "velocity": 100
        },
        {
          "pitch": 69,
          "onset": 86.625,
          "duration": 0.125,
          "velocity": 100
        },
        {
          "pitch": 71,
          "onset": 86.75,
          "duration": 0.125,
          "velocity": 100
        },
        {
          "pitch": 74,
          "onset": 86.875,
          "duration": 0.125,
          "velocity": 100
        },
        {
          "pitch": 72,
          "onset": 87.0,
          "duration": 0.25,
          "velocity": 100
        },
        {
          "pitch": 76,
          "onset": 87.0,
          "duration": 1.0,
          "velocity": 100
        },
        {
          "pitch": 71,
          "onset": 87.25,
          "duration": 0.25,
          "velocity": 100
        },
        {
          "pitch": 72,
          "onset": 87.5,
          "duration": 0.25,
          "velocity": 100
        },
        {
          "pitch": 64,
          "onset": 87.75,
          "duration": 0.25,
          "velocity": 100
        },
        {
          "pitch": 65,
          "onset": 88.0,
          "duration": 0.125,
          "velocity": 100
        },
        {
          "pitch": 74,
          "onset": 88.0,
          "duration": 1.0,
          "velocity": 100
        },
        {
          "pitch": 64,
          "onset": 88.125,
          "duration": 0.125,
          "velocity": 100
        },
        {
          "pitch": 65,
          "onset": 88.25,
          "duration": 0.125,
          "velocity": 100
        },
        {
          "pitch": 67,
          "onset": 88.375,
          "duration": 0.125,
          "velocity": 100
        },
        {
          "pitch": 65,
          "onset": 88.5,
          "duration": 0.125,
          "velocity": 100
        },
        {
          "pitch": 64,
          "onset": 88.625,
          "duration": 0.125,
          "velocity": 100
        },
        {
          "pitch": 65,
          "onset": 88.75,
          "duration": 0.125,
          "velocity": 100
        },
        {
          "pitch": 62,
          "onset": 88.875,
          "duration": 0.125,
          "velocity": 100
        },
        {
          "pitch": 64,
          "onset": 89.0,
          "duration": 0.125,
          "velocity": 100
        },
        {
          "pitch": 72,
          "onset": 89.0,
          "duration": 1.0,
          "velocity": 100
        },
        {
          "pitch": 62,
          "onset": 89.125,
          "duration": 0.125,
          "velocity": 100
        },
        {
          "pitch": 64,
          "onset": 89.25,
          "duration": 0.125,
          "velocity": 100
        },
        {
          "pitch": 65,
          "onset": 89.375,
          "duration": 0.125,
          "velocity": 100
        },
        {
          "pitch": 64,
          "onset": 89.5,
          "duration": 0.125,
          "velocity": 100
        },
        {
          "pitch": 62,
          "onset": 89.625,
          "duration": 0.125,
          "velocity": 100
        },
        {
          "pitch": 64,
          "onset": 89.75,
          "duration": 0.125,
          "velocity": 100
        },
        {
          "pitch": 60,
          "onset": 89.875,
          "duration": 0.125,
          "velocity": 100
        },
        {
          "pitch": 64,
          "onset": 90.0,
          "duration": 0.25,
          "velocity": 100
        },
        {
          "pitch": 72,
          "onset": 90.0,
          "duration": 1.0,
          "velocity": 100
        },
        {
          "pitch": 69,
          "onset": 90.25,
          "duration": 0.25,
          "velocity": 100
        },
        {
          "pitch": 67,
          "onset": 90.5,
          "duration": 0.25,
          "velocity": 100
        },
        {
          "pitch": 65,
          "onset": 90.75,
          "duration": 0.25,
          "velocity": 100
        },
        {
          "pitch": 67,
          "onset": 91.0,
          "duration": 0.25,
          "velocity": 100
        },
        {
          "pitch": 71,
          "onset": 91.0,
          "duration": 0.0938,
          "velocity": 100
        },
        {
          "pitch": 72,
          "onset": 91.0938,
          "duration": 0.0938,
          "velocity": 100
        },
        {
          "pitch": 71,
          "onset": 91.1562,
          "duration": 0.0938,
          "velocity": 100
        },
        {
          "pitch": 64,
          "onset": 91.25,
          "duration": 0.25,
          "velocity": 100
        },
        {
          "pitch": 72,
          "onset": 91.25,
          "duration": 0.0938,
          "velocity": 100
        },
        {
          "pitch": 71,
          "onset": 91.3438,
          "duration": 0.0938,
          "velocity": 100
        },
        {
          "pitch": 72,
          "onset": 91.4062,
          "duration": 0.0938,
          "velocity": 100
        },
        {
          "pitch": 65,
          "onset": 91.5,
          "duration": 0.25,
          "velocity": 100
        },
        {
          "pitch": 71,
          "onset": 91.5,
          "duration": 0.5,
          "velocity": 100
        },
        {
          "pitch": 62,
          "onset": 91.75,
          "duration": 0.25,
          "velocity": 100
        },
        {
          "pitch": 64,
          "onset": 92.0,
          "duration": 0.25,
          "velocity": 100
        },
        {
          "pitch": 72,
          "onset": 92.0,
          "duration": 1.9688,
          "velocity": 100
        },
        {
          "pitch": 67,
          "onset": 92.25,
          "duration": 0.25,
          "velocity": 100
        },
        {
          "pitch": 64,
          "onset": 92.5,
          "duration": 0.25,
          "velocity": 100
        },
        {
          "pitch": 60,
          "onset": 92.75,
          "duration": 0.25,
          "velocity": 100
        },
        {
          "pitch": 65,
          "onset": 93.0,
          "duration": 0.125,
          "velocity": 100
        },
        {
          "pitch": 64,
          "onset": 93.125,
          "duration": 0.125,
          "velocity": 100
        },
        {
          "pitch": 65,
          "onset": 93.25,
          "duration": 0.125,
          "velocity": 100
        },
        {
          "pitch": 69,
          "onset": 93.375,
          "duration": 0.125,
          "velocity": 100
        },
        {
          "pitch": 67,
          "onset": 93.5,
          "duration": 0.125,
          "velocity": 100
        },
        {
          "pitch": 65,
          "onset": 93.625,
          "duration": 0.125,
          "velocity": 100
        },
        {
          "pitch": 67,
          "onset": 93.75,
          "duration": 0.125,
          "velocity": 100
        },
        {
          "pitch": 70,
          "onset": 93.875,
          "duration": 0.125,
          "velocity": 100
        },
        {
          "pitch": 69,
          "onset": 94.0,
          "duration": 0.25,
          "velocity": 100
        },
        {
          "pitch": 70,
          "onset": 94.25,
          "duration": 0.25,
          "velocity": 100
        },
        {
          "pitch": 72,
          "onset": 94.5,
          "duration": 0.25,
          "velocity": 100
        },
        {
          "pitch": 67,
          "onset": 94.75,
          "duration": 0.25,
          "velocity": 100
        },
        {
          "pitch": 66,
          "onset": 95.0,
          "duration": 0.125,
          "velocity": 100
        },
        {
          "pitch": 74,
          "onset": 95.125,
          "duration": 0.125,
          "velocity": 100
        },
        {
          "pitch": 72,
          "onset": 95.25,
          "duration": 0.125,
          "velocity": 100
        },
        {
          "pitch": 70,
          "onset": 95.375,
          "duration": 0.125,
          "velocity": 100
        },
        {
          "pitch": 69,
          "onset": 95.5,
          "duration": 0.125,
          "velocity": 100
        },
        {
          "pitch": 72,
          "onset": 95.625,
          "duration": 0.125,
          "velocity": 100
        },
        {
          "pitch": 70,
          "onset": 95.75,
          "duration": 0.125,
          "velocity": 100
        },
        {
          "pitch": 69,
          "onset": 95.875,
          "duration": 0.125,
          "velocity": 100
        },
        {
          "pitch": 67,
          "onset": 96.0,
          "duration": 1.0,
          "velocity": 100
        },
        {
          "pitch": 70,
          "onset": 96.0,
          "duration": 0.125,
          "velocity": 100
        },
        {
          "pitch": 69,
          "onset": 96.125,
          "duration": 0.125,
          "velocity": 100
        },
        {
          "pitch": 70,
          "onset": 96.25,
          "duration": 0.125,
          "velocity": 100
        },
        {
          "pitch": 74,
          "onset": 96.375,
          "duration": 0.125,
          "velocity": 100
        },
        {
          "pitch": 67,
          "onset": 96.5,
          "duration": 1.0,
          "velocity": 100
        },
        {
          "pitch": 69,
          "onset": 97.0,
          "duration": 1.0,
          "velocity": 100
        },
        {
          "pitch": 66,
          "onset": 97.5,
          "duration": 0.5,
          "velocity": 100
        },
        {
          "pitch": 67,
          "onset": 98.0,
          "duration": 0.25,
          "velocity": 100
        },
        {
          "pitch": 70,
          "onset": 98.0,
          "duration": 1.25,
          "velocity": 100
        },
        {
          "pitch": 55,
          "onset": 98.25,
          "duration": 0.25,
          "velocity": 100
        },
        {
          "pitch": 58,
          "onset": 98.5,
          "duration": 0.25,
          "velocity": 100
        },
        {
          "pitch": 62,
          "onset": 98.75,
          "duration": 0.25,
          "velocity": 100
        },
        {
          "pitch": 67,
          "onset": 99.0,
          "duration": 1.25,
          "velocity": 100
        },
        {
          "pitch": 69,
          "onset": 99.25,
          "duration": 0.25,
          "velocity": 100
        },
        {
          "pitch": 70,
          "onset": 99.5,
          "duration": 0.25,
          "velocity": 100
        },
        {
          "pitch": 72,
          "onset": 99.75,
          "duration": 0.25,
          "velocity": 100
        },
        {
          "pitch": 69,
          "onset": 100.0,
          "duration": 1.0,
          "velocity": 100
        },
        {
          "pitch": 64,
          "onset": 100.25,
          "duration": 0.25,
          "velocity": 100
        },
        {
          "pitch": 66,
          "onset": 100.5,
          "duration": 0.25,
          "velocity": 100
        },
        {
          "pitch": 67,
          "onset": 100.75,
          "duration": 0.25,
          "velocity": 100
        },
        {
          "pitch": 66,
          "onset": 101.0,
          "duration": 0.25,
          "velocity": 100
        },
        {
          "pitch": 69,
          "onset": 101.0,
          "duration": 0.0938,
          "velocity": 100
        },
        {
          "pitch": 70,
          "onset": 101.0938,
          "duration": 0.0938,
          "velocity": 100
        },
        {
          "pitch": 69,
          "onset": 101.1562,
          "duration": 0.0938,
          "velocity": 100
        },
        {
          "pitch": 64,
          "onset": 101.25,
          "duration": 0.25,
          "velocity": 100
        },
        {
          "pitch": 70,
          "onset": 101.25,
          "duration": 0.0938,
          "velocity": 100
        },
        {
          "pitch": 69,
          "onset": 101.3438,
          "duration": 0.0938,
          "velocity": 100
        },
        {
          "pitch": 70,
          "onset": 101.4062,
          "duration": 0.0938,
          "velocity": 100
        },
        {
          "pitch": 62,
          "onset": 101.5,
          "duration": 0.25,
          "velocity": 100
        },
        {
          "pitch": 69,
          "onset": 101.5,
          "duration": 0.5,
          "velocity": 100
        },
        {
          "pitch": 60,
          "onset": 101.75,
          "duration": 0.25,
          "velocity": 100
        },
        {
          "pitch": 58,
          "onset": 102.0,
          "duration": 0.25,
          "velocity": 100
        },
        {
          "pitch": 67,
          "onset": 102.0,
          "duration": 1.0,
          "velocity": 100
        },
        {
          "pitch": 62,
          "onset": 102.25,
          "duration": 0.25,
          "velocity": 100
        },
        {
          "pitch": 59,
          "onset": 102.5,
          "duration": 0.25,
          "velocity": 100
        },
        {
          "pitch": 55,
          "onset": 102.75,
          "duration": 0.25,
          "velocity": 100
        },
        {
          "pitch": 60,
          "onset": 103.0,
          "duration": 0.25,
          "velocity": 100
        },
        {
          "pitch": 67,
          "onset": 103.0,
          "duration": 1.0,
          "velocity": 100
        },
        {
          "pitch": 67,
          "onset": 103.25,
          "duration": 0.25,
          "velocity": 100
        },
        {
          "pitch": 66,
          "onset": 103.5,
          "duration": 0.25,
          "velocity": 100
        },
        {
          "pitch": 62,
          "onset": 103.75,
          "duration": 0.25,
          "velocity": 100
        },
        {
          "pitch": 64,
          "onset": 104.0,
          "duration": 0.125,
          "velocity": 100
        },
        {
          "pitch": 72,
          "onset": 104.0,
          "duration": 1.0,
          "velocity": 100
        },
        {
          "pitch": 62,
          "onset": 104.125,
          "duration": 0.125,
          "velocity": 100
        },
        {
          "pitch": 64,
          "onset": 104.25,
          "duration": 0.125,
          "velocity": 100
        },
        {
          "pitch": 67,
          "onset": 104.375,
          "duration": 0.125,
          "velocity": 100
        },
        {
          "pitch": 65,
          "onset": 104.5,
          "duration": 0.125,
          "velocity": 100
        },
        {
          "pitch": 64,
          "onset": 104.625,
          "duration": 0.125,
          "velocity": 100
        },
        {
          "pitch": 65,
          "onset": 104.75,
          "duration": 0.125,
          "velocity": 100
        },
        {
          "pitch": 69,
          "onset": 104.875,
          "duration": 0.125,
          "velocity": 100
        },
        {
          "pitch": 67,
          "onset": 105.0,
          "duration": 0.5,
          "velocity": 100
        },
        {
          "pitch": 70,
          "onset": 105.0,
          "duration": 0.5,
          "velocity": 100
        },
        {
          "pitch": 65,
          "onset": 105.5,
          "duration": 0.25,
          "velocity": 100
        },
        {
          "pitch": 69,
          "onset": 105.5,
          "duration": 0.5,
          "velocity": 100
        },
        {
          "pitch": 64,
          "onset": 105.75,
          "duration": 0.25,
          "velocity": 100
        },
        {
          "pitch": 62,
          "onset": 106.0,
          "duration": 0.125,
          "velocity": 100
        },
        {
          "pitch": 70,
          "onset": 106.0,
          "duration": 1.0,
          "velocity": 100
        },
        {
          "pitch": 60,
          "onset": 106.125,
          "duration": 0.125,
          "velocity": 100
        },
        {
          "pitch": 62,
          "onset": 106.25,
          "duration": 0.125,
          "velocity": 100
        },
        {
          "pitch": 65,
          "onset": 106.375,
          "duration": 0.125,
          "velocity": 100
        },
        {
          "pitch": 64,
          "onset": 106.5,
          "duration": 0.125,
          "velocity": 100
        },
        {
          "pitch": 62,
          "onset": 106.625,
          "duration": 0.125,
          "velocity": 100
        },
        {
          "pitch": 64,
          "onset": 106.75,
          "duration": 0.125,
          "velocity": 100
        },
        {
          "pitch": 67,
          "onset": 106.875,
          "duration": 0.125,
          "velocity": 100
        },
        {
          "pitch": 65,
          "onset": 107.0,
          "duration": 0.5,
          "velocity": 100
        },
        {
          "pitch": 69,
          "onset": 107.0,
          "duration": 0.5,
          "velocity": 100
        },
        {
          "pitch": 64,
          "onset": 107.5,
          "duration": 0.5,
          "velocity": 100
        },
        {
          "pitch": 67,
          "onset": 107.5,
          "duration": 0.5,
          "velocity": 100
        },
        {
          "pitch": 62,
          "onset": 108.0,
          "duration": 0.25,
          "velocity": 100
        },
        {
          "pitch": 65,
          "onset": 108.0,
          "duration": 0.25,
          "velocity": 100
        },
        {
          "pitch": 61,
          "onset": 108.25,
          "duration": 0.25,
          "velocity": 100
        },
        {
          "pitch": 64,
          "onset": 108.25,
          "duration": 0.25,
          "velocity": 100
        },
        {
          "pitch": 62,
          "onset": 108.5,
          "duration": 0.25,
          "velocity": 100
        },
        {
          "pitch": 65,
          "onset": 108.5,
          "duration": 0.25,
          "velocity": 100
        },
        {
          "pitch": 64,
          "onset": 108.75,
          "duration": 0.25,
          "velocity": 100
        },
        {
          "pitch": 67,
          "onset": 108.75,
          "duration": 0.25,
          "velocity": 100
        },
        {
          "pitch": 65,
          "onset": 109.0,
          "duration": 1.25,
          "velocity": 100
        },
        {
          "pitch": 69,
          "onset": 109.0,
          "duration": 0.625,
          "velocity": 100
        },
        {
          "pitch": 67,
          "onset": 109.625,
          "duration": 0.125,
          "velocity": 100
        },
        {
          "pitch": 69,
          "onset": 109.75,
          "duration": 0.125,
          "velocity": 100
        },
        {
          "pitch": 70,
          "onset": 109.875,
          "duration": 0.125,
          "velocity": 100
        },
        {
          "pitch": 67,
          "onset": 110.0,
          "duration": 0.0938,
          "velocity": 100
        },
        {
          "pitch": 69,
          "onset": 110.0938,
          "duration": 0.0938,
          "velocity": 100
        },
        {
          "pitch": 67,
          "onset": 110.1562,
          "duration": 0.0938,
          "velocity": 100
        },
        {
          "pitch": 62,
          "onset": 110.25,
          "duration": 0.25,
          "velocity": 100
        },
        {
          "pitch": 69,
          "onset": 110.25,
          "duration": 0.0938,
          "velocity": 100
        },
        {
          "pitch": 67,
          "onset": 110.3438,
          "duration": 0.0938,
          "velocity": 100
        },
        {
          "pitch": 69,
          "onset": 110.4062,
          "duration": 0.0938,
          "velocity": 100
        },
        {
          "pitch": 64,
          "onset": 110.5,
          "duration": 0.25,
          "velocity": 100
        },
        {
          "pitch": 67,
          "onset": 110.5,
          "duration": 0.0938,
          "velocity": 100
        },
        {
          "pitch": 69,
          "onset": 110.5938,
          "duration": 0.0938,
          "velocity": 100
        },
        {
          "pitch": 67,
          "onset": 110.6562,
          "duration": 0.0938,
          "velocity": 100
        },
        {
          "pitch": 65,
          "onset": 110.75,
          "duration": 0.25,
          "velocity": 100
        },
        {
          "pitch": 69,
          "onset": 110.75,
          "duration": 0.0938,
          "velocity": 100
        },
        {
          "pitch": 67,
          "onset": 110.8438,
          "duration": 0.0938,
          "velocity": 100
        },
        {
          "pitch": 69,
          "onset": 110.9062,
          "duration": 0.0938,
          "velocity": 100
        },
        {
          "pitch": 64,
          "onset": 111.0,
          "duration": 0.25,
          "velocity": 100
        },
        {
          "pitch": 67,
          "onset": 111.0,
          "duration": 1.0,
          "velocity": 100
        },
        {
          "pitch": 62,
          "onset": 111.25,
          "duration": 0.25,
          "velocity": 100
        },
        {
          "pitch": 60,
          "onset": 111.5,
          "duration": 0.25,
          "velocity": 100
        },
        {
          "pitch": 58,
          "onset": 111.75,
          "duration": 0.25,
          "velocity": 100
        },
        {
          "pitch": 57,
          "onset": 112.0,
          "duration": 0.25,
          "velocity": 100
        },
        {
          "pitch": 65,
          "onset": 112.0,
          "duration": 1.9688,
          "velocity": 100
        },
        {
          "pitch": 60,
          "onset": 112.25,
          "duration": 0.125,
          "velocity": 100
        },
        {
          "pitch": 58,
          "onset": 112.375,
          "duration": 0.125,
          "velocity": 100
        },
        {
          "pitch": 60,
          "onset": 112.5,
          "duration": 0.25,
          "velocity": 100
        },
        {
          "pitch": 63,
          "onset": 112.75,
          "duration": 0.25,
          "velocity": 100
        },
        {
          "pitch": 62,
          "onset": 113.0,
          "duration": 0.125,
          "velocity": 100
        },
        {
          "pitch": 60,
          "onset": 113.125,
          "duration": 0.125,
          "velocity": 100
        },
        {
          "pitch": 62,
          "onset": 113.25,
          "duration": 0.125,
          "velocity": 100
        },
        {
          "pitch": 65,
          "onset": 113.375,
          "duration": 0.125,
          "velocity": 100
        },
        {
          "pitch": 60,
          "onset": 113.5,
          "duration": 0.125,
          "velocity": 100
        },
        {
          "pitch": 58,
          "onset": 113.625,
          "duration": 0.125,
          "velocity": 100
        },
        {
          "pitch": 60,
          "onset": 113.75,
          "duration": 0.125,
          "velocity": 100
        },
        {
          "pitch": 63,
          "onset": 113.875,
          "duration": 0.125,
          "velocity": 100
        },
        {
          "pitch": 62,
          "onset": 114.0,
          "duration": 1.9688,
          "velocity": 100
        },
        {
          "pitch": 74,
          "onset": 114.5,
          "duration": 0.25,
          "velocity": 100
        },
        {
          "pitch": 72,
          "onset": 114.75,
          "duration": 0.25,
          "velocity": 100
        },
        {
          "pitch": 70,
          "onset": 115.0,
          "duration": 0.125,
          "velocity": 100
        },
        {
          "pitch": 69,
          "onset": 115.125,
          "duration": 0.125,
          "velocity": 100
        },
        {
          "pitch": 70,
          "onset": 115.25,
          "duration": 0.125,
          "velocity": 100
        },
        {
          "pitch": 74,
          "onset": 115.375,
          "duration": 0.125,
          "velocity": 100
        },
        {
          "pitch": 67,
          "onset": 115.5,
          "duration": 0.125,
          "velocity": 100
        },
        {
          "pitch": 65,
          "onset": 115.625,
          "duration": 0.125,
          "velocity": 100
        },
        {
          "pitch": 67,
          "onset": 115.75,
          "duration": 0.125,
          "velocity": 100
        },
        {
          "pitch": 70,
          "onset": 115.875,
          "duration": 0.125,
          "velocity": 100
        },
        {
          "pitch": 60,
          "onset": 116.0,
          "duration": 0.25,
          "velocity": 100
        },
        {
          "pitch": 64,
          "onset": 116.0,
          "duration": 0.25,
          "velocity": 100
        },
        {
          "pitch": 64,
          "onset": 116.25,
          "duration": 0.25,
          "velocity": 100
        },
        {
          "pitch": 74,
          "onset": 116.25,
          "duration": 0.25,
          "velocity": 100
        },
        {
          "pitch": 65,
          "onset": 116.5,
          "duration": 0.25,
          "velocity": 100
        },
        {
          "pitch": 72,
          "onset": 116.5,
          "duration": 0.25,
          "velocity": 100
        },
        {
          "pitch": 67,
          "onset": 116.75,
          "duration": 0.25,
          "velocity": 100
        },
        {
          "pitch": 70,
          "onset": 116.75,
          "duration": 0.25,
          "velocity": 100
        },
        {
          "pitch": 65,
          "onset": 117.0,
          "duration": 0.5,
          "velocity": 100
        },
        {
          "pitch": 69,
          "onset": 117.0,
          "duration": 0.5,
          "velocity": 100
        },
        {
          "pitch": 64,
          "onset": 117.5,
          "duration": 0.75,
          "velocity": 100
        },
        {
          "pitch": 67,
          "onset": 117.5,
          "duration": 0.75,
          "velocity": 100
        },
        {
          "pitch": 65,
          "onset": 118.25,
          "duration": 3.7188,
          "velocity": 100
        },
        {
          "pitch": 65,
          "onset": 118.25,
          "duration": 3.7188,
          "velocity": 100
        },
        {
          "pitch": 65,
          "onset": 123.75,
          "duration": 0.25,
          "velocity": 1
        }
      ]
    },
    {
      "role": "pedal",
      "notes": [
        {
          "pitch": 41,
          "onset": 0.0,
          "duration": 1.0,
          "velocity": 100
        },
        {
          "pitch": 36,
          "onset": 1.0,
          "duration": 1.0,
          "velocity": 100
        },
        {
          "pitch": 38,
          "onset": 2.0,
          "duration": 1.0,
          "velocity": 100
        },
        {
          "pitch": 33,
          "onset": 3.0,
          "duration": 1.0,
          "velocity": 100
        },
        {
          "pitch": 34,
          "onset": 4.0,
          "duration": 1.0,
          "velocity": 100
        },
        {
          "pitch": 36,
          "onset": 5.0,
          "duration": 1.0,
          "velocity": 100
        },
        {
          "pitch": 29,
          "onset": 6.0,
          "duration": 0.5,
          "velocity": 100
        },
        {
          "pitch": 41,
          "onset": 6.5,
          "duration": 0.5,
          "velocity": 100
        },
        {
          "pitch": 43,
          "onset": 7.0,
          "duration": 0.5,
          "velocity": 100
        },
        {
          "pitch": 31,
          "onset": 7.5,
          "duration": 0.5,
          "velocity": 100
        },
        {
          "pitch": 36,
          "onset": 8.0,
          "duration": 1.0,
          "velocity": 100
        },
        {
          "pitch": 31,
          "onset": 9.0,
          "duration": 1.0,
          "velocity": 100
        },
        {
          "pitch": 33,
          "onset": 10.0,
          "duration": 1.0,
          "velocity": 100
        },
        {
          "pitch": 28,
          "onset": 11.0,
          "duration": 1.0,
          "velocity": 100
        },
        {
          "pitch": 29,
          "onset": 12.0,
          "duration": 1.0,
          "velocity": 100
        },
        {
          "pitch": 31,
          "onset": 13.0,
          "duration": 1.0,
          "velocity": 100
        },
        {
          "pitch": 36,
          "onset": 14.0,
          "duration": 0.5,
          "velocity": 100
        },
        {
          "pitch": 33,
          "onset": 14.5,
          "duration": 0.5,
          "velocity": 100
        },
        {
          "pitch": 34,
          "onset": 15.0,
          "duration": 0.5,
          "velocity": 100
        },
        {
          "pitch": 36,
          "onset": 15.5,
          "duration": 0.5,
          "velocity": 100
        },
        {
          "pitch": 29,
          "onset": 16.0,
          "duration": 0.5,
          "velocity": 100
        },
        {
          "pitch": 38,
          "onset": 16.5,
          "duration": 0.5,
          "velocity": 100
        },
        {
          "pitch": 39,
          "onset": 17.0,
          "duration": 0.5,
          "velocity": 100
        },
        {
          "pitch": 41,
          "onset": 17.5,
          "duration": 0.5,
          "velocity": 100
        },
        {
          "pitch": 34,
          "onset": 18.0,
          "duration": 1.0,
          "velocity": 100
        },
        {
          "pitch": 41,
          "onset": 19.0,
          "duration": 1.0,
          "velocity": 100
        },
        {
          "pitch": 40,
          "onset": 20.0,
          "duration": 1.0,
          "velocity": 100
        },
        {
          "pitch": 41,
          "onset": 21.0,
          "duration": 1.0,
          "velocity": 100
        },
        {
          "pitch": 36,
          "onset": 22.0,
          "duration": 0.5,
          "velocity": 100
        },
        {
          "pitch": 34,
          "onset": 22.5,
          "duration": 0.5,
          "velocity": 100
        },
        {
          "pitch": 33,
          "onset": 23.0,
          "duration": 0.5,
          "velocity": 100
        },
        {
          "pitch": 36,
          "onset": 23.5,
          "duration": 0.5,
          "velocity": 100
        },
        {
          "pitch": 41,
          "onset": 24.0,
          "duration": 1.0,
          "velocity": 100
        },
        {
          "pitch": 36,
          "onset": 25.0,
          "duration": 1.0,
          "velocity": 100
        },
        {
          "pitch": 38,
          "onset": 26.0,
          "duration": 1.0,
          "velocity": 100
        },
        {
          "pitch": 40,
          "onset": 27.0,
          "duration": 1.0,
          "velocity": 100
        },
        {
          "pitch": 41,
          "onset": 28.5,
          "duration": 0.5,
          "velocity": 100
        },
        {
          "pitch": 45,
          "onset": 29.0,
          "duration": 0.5,
          "velocity": 100
        },
        {
          "pitch": 41,
          "onset": 29.5,
          "duration": 0.5,
          "velocity": 100
        },
        {
          "pitch": 34,
          "onset": 30.0,
          "duration": 0.5,
          "velocity": 100
        },
        {
          "pitch": 36,
          "onset": 30.5,
          "duration": 0.5,
          "velocity": 100
        },
        {
          "pitch": 38,
          "onset": 31.0,
          "duration": 0.5,
          "velocity": 100
        },
        {
          "pitch": 40,
          "onset": 31.5,
          "duration": 0.5,
          "velocity": 100
        },
        {
          "pitch": 41,
          "onset": 32.0,
          "duration": 1.0,
          "velocity": 100
        },
        {
          "pitch": 29,
          "onset": 33.5,
          "duration": 0.5,
          "velocity": 100
        },
        {
          "pitch": 31,
          "onset": 34.0,
          "duration": 0.5,
          "velocity": 100
        },
        {
          "pitch": 43,
          "onset": 34.5,
          "duration": 1.0,
          "velocity": 100
        },
        {
          "pitch": 41,
          "onset": 35.5,
          "duration": 0.5,
          "velocity": 100
        },
        {
          "pitch": 40,
          "onset": 36.0,
          "duration": 1.0,
          "velocity": 100
        },
        {
          "pitch": 41,
          "onset": 37.5,
          "duration": 0.5,
          "velocity": 100
        },
        {
          "pitch": 43,
          "onset": 38.0,
          "duration": 0.5,
          "velocity": 100
        },
        {
          "pitch": 36,
          "onset": 38.5,
          "duration": 0.5,
          "velocity": 100
        },
        {
          "pitch": 41,
          "onset": 39.0,
          "duration": 0.5,
          "velocity": 100
        },
        {
          "pitch": 36,
          "onset": 39.5,
          "duration": 0.5,
          "velocity": 100
        },
        {
          "pitch": 38,
          "onset": 40.0,
          "duration": 1.0,
          "velocity": 100
        },
        {
          "pitch": 36,
          "onset": 41.5,
          "duration": 0.5,
          "velocity": 100
        },
        {
          "pitch": 34,
          "onset": 42.0,
          "duration": 0.5,
          "velocity": 100
        },
        {
          "pitch": 31,
          "onset": 42.5,
          "duration": 0.5,
          "velocity": 100
        },
        {
          "pitch": 36,
          "onset": 43.0,
          "duration": 0.5,
          "velocity": 100
        },
        {
          "pitch": 24,
          "onset": 43.5,
          "duration": 0.5,
          "velocity": 100
        },
        {
          "pitch": 29,
          "onset": 44.0,
          "duration": 0.5,
          "velocity": 100
        },
        {
          "pitch": 41,
          "onset": 44.5,
          "duration": 0.5,
          "velocity": 100
        },
        {
          "pitch": 43,
          "onset": 45.0,
          "duration": 0.5,
          "velocity": 100
        },
        {
          "pitch": 31,
          "onset": 45.5,
          "duration": 0.5,
          "velocity": 100
        },
        {
          "pitch": 36,
          "onset": 46.0,
          "duration": 0.5,
          "velocity": 100
        },
        {
          "pitch": 34,
          "onset": 46.5,
          "duration": 0.5,
          "velocity": 100
        },
        {
          "pitch": 33,
          "onset": 47.0,
          "duration": 0.5,
          "velocity": 100
        },
        {
          "pitch": 36,
          "onset": 47.5,
          "duration": 0.5,
          "velocity": 100
        },
        {
          "pitch": 41,
          "onset": 48.0,
          "duration": 1.0,
          "velocity": 100
        },
        {
          "pitch": 36,
          "onset": 49.0,
          "duration": 1.0,
          "velocity": 100
        },
        {
          "pitch": 38,
          "onset": 50.0,
          "duration": 1.0,
          "velocity": 100
        },
        {
          "pitch": 40,
          "onset": 51.0,
          "duration": 1.0,
          "velocity": 100
        },
        {
          "pitch": 41,
          "onset": 52.5,
          "duration": 0.5,
          "velocity": 100
        },
        {
          "pitch": 45,
          "onset": 53.0,
          "duration": 0.5,
          "velocity": 100
        },
        {
          "pitch": 41,
          "onset": 53.5,
          "duration": 0.5,
          "velocity": 100
        },
        {
          "pitch": 34,
          "onset": 54.0,
          "duration": 0.5,
          "velocity": 100
        },
        {
          "pitch": 36,
          "onset": 54.5,
          "duration": 0.5,
          "velocity": 100
        },
        {
          "pitch": 38,
          "onset": 55.0,
          "duration": 0.5,
          "velocity": 100
        },
        {
          "pitch": 40,
          "onset": 55.5,
          "duration": 0.5,
          "velocity": 100
        },
        {
          "pitch": 41,
          "onset": 56.0,
          "duration": 1.0,
          "velocity": 100
        },
        {
          "pitch": 29,
          "onset": 57.5,
          "duration": 0.5,
          "velocity": 100
        },
        {
          "pitch": 31,
          "onset": 58.0,
          "duration": 0.5,
          "velocity": 100
        },
        {
          "pitch": 43,
          "onset": 58.5,
          "duration": 1.0,
          "velocity": 100
        },
        {
          "pitch": 41,
          "onset": 59.5,
          "duration": 0.5,
          "velocity": 100
        },
        {
          "pitch": 40,
          "onset": 60.0,
          "duration": 1.0,
          "velocity": 100
        },
        {
          "pitch": 41,
          "onset": 61.5,
          "duration": 0.5,
          "velocity": 100
        },
        {
          "pitch": 43,
          "onset": 62.0,
          "duration": 0.5,
          "velocity": 100
        },
        {
          "pitch": 36,
          "onset": 62.5,
          "duration": 0.5,
          "velocity": 100
        },
        {
          "pitch": 41,
          "onset": 63.0,
          "duration": 0.5,
          "velocity": 100
        },
        {
          "pitch": 36,
          "onset": 63.5,
          "duration": 0.5,
          "velocity": 100
        },
        {
          "pitch": 38,
          "onset": 64.0,
          "duration": 1.0,
          "velocity": 100
        },
        {
          "pitch": 36,
          "onset": 65.5,
          "duration": 0.5,
          "velocity": 100
        },
        {
          "pitch": 34,
          "onset": 66.0,
          "duration": 0.5,
          "velocity": 100
        },
        {
          "pitch": 31,
          "onset": 66.5,
          "duration": 0.5,
          "velocity": 100
        },
        {
          "pitch": 36,
          "onset": 67.0,
          "duration": 0.5,
          "velocity": 100
        },
        {
          "pitch": 24,
          "onset": 67.5,
          "duration": 0.5,
          "velocity": 100
        },
        {
          "pitch": 29,
          "onset": 68.0,
          "duration": 0.5,
          "velocity": 100
        },
        {
          "pitch": 41,
          "onset": 68.5,
          "duration": 0.5,
          "velocity": 100
        },
        {
          "pitch": 43,
          "onset": 69.0,
          "duration": 0.5,
          "velocity": 100
        },
        {
          "pitch": 31,
          "onset": 69.5,
          "duration": 0.5,
          "velocity": 100
        },
        {
          "pitch": 36,
          "onset": 70.0,
          "duration": 0.5,
          "velocity": 100
        },
        {
          "pitch": 34,
          "onset": 70.5,
          "duration": 0.5,
          "velocity": 100
        },
        {
          "pitch": 33,
          "onset": 71.0,
          "duration": 0.5,
          "velocity": 100
        },
        {
          "pitch": 36,
          "onset": 71.5,
          "duration": 0.5,
          "velocity": 100
        },
        {
          "pitch": 29,
          "onset": 72.0,
          "duration": 0.5,
          "velocity": 100
        },
        {
          "pitch": 33,
          "onset": 72.5,
          "duration": 0.5,
          "velocity": 100
        },
        {
          "pitch": 36,
          "onset": 73.0,
          "duration": 0.5,
          "velocity": 100
        },
        {
          "pitch": 40,
          "onset": 73.5,
          "duration": 0.5,
          "velocity": 100
        },
        {
          "pitch": 41,
          "onset": 74.0,
          "duration": 1.0,
          "velocity": 100
        },
        {
          "pitch": 40,
          "onset": 75.0,
          "duration": 1.0,
          "velocity": 100
        },
        {
          "pitch": 38,
          "onset": 76.0,
          "duration": 0.5,
          "velocity": 100
        },
        {
          "pitch": 43,
          "onset": 76.5,
          "duration": 0.5,
          "velocity": 100
        },
        {
          "pitch": 36,
          "onset": 77.0,
          "duration": 0.5,
          "velocity": 100
        },
        {
          "pitch": 43,
          "onset": 77.5,
          "duration": 0.5,
          "velocity": 100
        },
        {
          "pitch": 35,
          "onset": 78.0,
          "duration": 0.5,
          "velocity": 100
        },
        {
          "pitch": 43,
          "onset": 78.5,
          "duration": 0.5,
          "velocity": 100
        },
        {
          "pitch": 36,
          "onset": 79.0,
          "duration": 0.5,
          "velocity": 100
        },
        {
          "pitch": 43,
          "onset": 79.5,
          "duration": 0.5,
          "velocity": 100
        },
        {
          "pitch": 41,
          "onset": 80.0,
          "duration": 0.5,
          "velocity": 100
        },
        {
          "pitch": 38,
          "onset": 80.5,
          "duration": 0.5,
          "velocity": 100
        },
        {
          "pitch": 43,
          "onset": 81.0,
          "duration": 0.5,
          "velocity": 100
        },
        {
          "pitch": 31,
          "onset": 81.5,
          "duration": 0.5,
          "velocity": 100
        },
        {
          "pitch": 36,
          "onset": 82.0,
          "duration": 1.0,
          "velocity": 100
        },
        {
          "pitch": 40,
          "onset": 83.0,
          "duration": 0.5,
          "velocity": 100
        },
        {
          "pitch": 36,
          "onset": 83.5,
          "duration": 0.5,
          "velocity": 100
        },
        {
          "pitch": 41,
          "onset": 84.0,
          "duration": 1.0,
          "velocity": 100
        },
        {
          "pitch": 40,
          "onset": 85.0,
          "duration": 1.0,
          "velocity": 100
        },
        {
          "pitch": 38,
          "onset": 86.0,
          "duration": 0.5,
          "velocity": 100
        },
        {
          "pitch": 43,
          "onset": 86.5,
          "duration": 0.5,
          "velocity": 100
        },
        {
          "pitch": 36,
          "onset": 87.0,
          "duration": 0.5,
          "velocity": 100
        },
        {
          "pitch": 43,
          "onset": 87.5,
          "duration": 0.5,
          "velocity": 100
        },
        {
          "pitch": 35,
          "onset": 88.0,
          "duration": 0.5,
          "velocity": 100
        },
        {
          "pitch": 43,
          "onset": 88.5,
          "duration": 0.5,
          "velocity": 100
        },
        {
          "pitch": 36,
          "onset": 89.0,
          "duration": 0.5,
          "velocity": 100
        },
        {
          "pitch": 43,
          "onset": 89.5,
          "duration": 0.5,
          "velocity": 100
        },
        {
          "pitch": 41,
          "onset": 90.0,
          "duration": 0.5,
          "velocity": 100
        },
        {
          "pitch": 38,
          "onset": 90.5,
          "duration": 0.5,
          "velocity": 100
        },
        {
          "pitch": 43,
          "onset": 91.0,
          "duration": 0.5,
          "velocity": 100
        },
        {
          "pitch": 31,
          "onset": 91.5,
          "duration": 0.5,
          "velocity": 100
        },
        {
          "pitch": 36,
          "onset": 92.0,
          "duration": 0.5,
          "velocity": 100
        },
        {
          "pitch": 48,
          "onset": 92.5,
          "duration": 0.5,
          "velocity": 100
        },
        {
          "pitch": 45,
          "onset": 93.0,
          "duration": 0.5,
          "velocity": 100
        },
        {
          "pitch": 40,
          "onset": 93.5,
          "duration": 0.5,
          "velocity": 100
        },
        {
          "pitch": 41,
          "onset": 94.0,
          "duration": 0.5,
          "velocity": 100
        },
        {
          "pitch": 39,
          "onset": 94.5,
          "duration": 0.5,
          "velocity": 100
        },
        {
          "pitch": 38,
          "onset": 95.0,
          "duration": 0.5,
          "velocity": 100
        },
        {
          "pitch": 42,
          "onset": 95.5,
          "duration": 0.5,
          "velocity": 100
        },
        {
          "pitch": 43,
          "onset": 96.0,
          "duration": 1.0,
          "velocity": 100
        },
        {
          "pitch": 38,
          "onset": 97.0,
          "duration": 1.0,
          "velocity": 100
        },
        {
          "pitch": 31,
          "onset": 98.0,
          "duration": 0.5,
          "velocity": 100
        },
        {
          "pitch": 38,
          "onset": 98.5,
          "duration": 0.5,
          "velocity": 100
        },
        {
          "pitch": 39,
          "onset": 99.0,
          "duration": 0.5,
          "velocity": 100
        },
        {
          "pitch": 38,
          "onset": 99.5,
          "duration": 0.5,
          "velocity": 100
        },
        {
          "pitch": 36,
          "onset": 100.0,
          "duration": 0.5,
          "velocity": 100
        },
        {
          "pitch": 33,
          "onset": 100.5,
          "duration": 0.5,
          "velocity": 100
        },
        {
          "pitch": 38,
          "onset": 101.0,
          "duration": 0.5,
          "velocity": 100
        },
        {
          "pitch": 26,
          "onset": 101.5,
          "duration": 0.5,
          "velocity": 100
        },
        {
          "pitch": 43,
          "onset": 102.0,
          "duration": 0.5,
          "velocity": 100
        },
        {
          "pitch": 41,
          "onset": 102.5,
          "duration": 0.5,
          "velocity": 100
        },
        {
          "pitch": 40,
          "onset": 103.0,
          "duration": 0.5,
          "velocity": 100
        },
        {
          "pitch": 38,
          "onset": 103.5,
          "duration": 0.5,
          "velocity": 100
        },
        {
          "pitch": 36,
          "onset": 104.0,
          "duration": 0.5,
          "velocity": 100
        },
        {
          "pitch": 38,
          "onset": 104.5,
          "duration": 0.5,
          "velocity": 100
        },
        {
          "pitch": 40,
          "onset": 105.0,
          "duration": 0.5,
          "velocity": 100
        },
        {
          "pitch": 41,
          "onset": 105.5,
          "duration": 0.5,
          "velocity": 100
        },
        {
          "pitch": 43,
          "onset": 106.0,
          "duration": 0.5,
          "velocity": 100
        },
        {
          "pitch": 36,
          "onset": 106.5,
          "duration": 0.5,
          "velocity": 100
        },
        {
          "pitch": 41,
          "onset": 107.0,
          "duration": 0.5,
          "velocity": 100
        },
        {
          "pitch": 36,
          "onset": 107.5,
          "duration": 0.5,
          "velocity": 100
        },
        {
          "pitch": 38,
          "onset": 108.0,
          "duration": 1.0,
          "velocity": 100
        },
        {
          "pitch": 36,
          "onset": 109.5,
          "duration": 0.5,
          "velocity": 100
        },
        {
          "pitch": 34,
          "onset": 110.0,
          "duration": 0.5,
          "velocity": 100
        },
        {
          "pitch": 31,
          "onset": 110.5,
          "duration": 0.5,
          "velocity": 100
        },
        {
          "pitch": 36,
          "onset": 111.0,
          "duration": 0.5,
          "velocity": 100
        },
        {
          "pitch": 24,
          "onset": 111.5,
          "duration": 0.5,
          "velocity": 100
        },
        {
          "pitch": 29,
          "onset": 112.0,
          "duration": 0.5,
          "velocity": 100
        },
        {
          "pitch": 33,
          "onset": 112.5,
          "duration": 0.5,
          "velocity": 100
        },
        {
          "pitch": 34,
          "onset": 113.0,
          "duration": 0.5,
          "velocity": 100
        },
        {
          "pitch": 33,
          "onset": 113.5,
          "duration": 0.5,
          "velocity": 100
        },
        {
          "pitch": 34,
          "onset": 114.0,
          "duration": 1.0,
          "velocity": 100
        },
        {
          "pitch": 31,
          "onset": 115.0,
          "duration": 0.5,
          "velocity": 100
        },
        {
          "pitch": 34,
          "onset": 115.5,
          "duration": 0.5,
          "velocity": 100
        },
        {
          "pitch": 36,
          "onset": 116.0,
          "duration": 0.25,
          "velocity": 100
        },
        {
          "pitch": 34,
          "onset": 116.25,
          "duration": 0.25,
          "velocity": 100
        },
        {
          "pitch": 33,
          "onset": 116.5,
          "duration": 0.25,
          "velocity": 100
        },
        {
          "pitch": 34,
          "onset": 116.75,
          "duration": 0.25,
          "velocity": 100
        },
        {
          "pitch": 36,
          "onset": 117.0,
          "duration": 0.5,
          "velocity": 100
        },
        {
          "pitch": 24,
          "onset": 117.5,
          "duration": 0.75,
          "velocity": 100
        },
        {
          "pitch": 29,
          "onset": 118.25,
          "duration": 3.7188,
          "velocity": 100
        }
      ]
    }
  ]
}