{
  "bwv": 885,
  "category": "wtc2",
  "instrument": "keyboard",
  "form": "prelude",
  "movement": null,
  "tonic": "G",
  "mode": "minor",
  "confidence": "verified",
  "ticks_per_beat": 384,
  "duration_seconds": 150.5,
  "tempos": [
    {
      "tick": 0,
      "bpm": 35
    },
    {
      "tick": 1344,
      "bpm": 35
    },
    {
      "tick": 1488,
      "bpm": 30
    },
    {
      "tick": 1536,
      "bpm": 35
    },
    {
      "tick": 7296,
      "bpm": 35
    },
    {
      "tick": 7488,
      "bpm": 30
    },
    {
      "tick": 7632,
      "bpm": 30
    },
    {
      "tick": 7680,
      "bpm": 35
    },
    {
      "tick": 8832,
      "bpm": 35
    },
    {
      "tick": 9024,
      "bpm": 30
    },
    {
      "tick": 9216,
      "bpm": 35
    },
    {
      "tick": 10368,
      "bpm": 35
    },
    {
      "tick": 10560,
      "bpm": 30
    },
    {
      "tick": 10656,
      "bpm": 30
    },
    {
      "tick": 10752,
      "bpm": 35
    },
    {
      "tick": 13440,
      "bpm": 35
    },
    {
      "tick": 13632,
      "bpm": 30
    },
    {
      "tick": 13824,
      "bpm": 35
    },
    {
      "tick": 14208,
      "bpm": 35
    },
    {
      "tick": 19584,
      "bpm": 35
    },
    {
      "tick": 19776,
      "bpm": 35
    },
    {
      "tick": 19968,
      "bpm": 35
    },
    {
      "tick": 21120,
      "bpm": 35
    },
    {
      "tick": 21312,
      "bpm": 35
    },
    {
      "tick": 21504,
      "bpm": 35
    },
    {
      "tick": 23424,
      "bpm": 35
    },
    {
      "tick": 23712,
      "bpm": 35
    },
    {
      "tick": 23808,
      "bpm": 35
    },
    {
      "tick": 26496,
      "bpm": 35
    },
    {
      "tick": 26688,
      "bpm": 35
    },
    {
      "tick": 26784,
      "bpm": 35
    },
    {
      "tick": 26880,
      "bpm": 35
    },
    {
      "tick": 28800,
      "bpm": 35
    },
    {
      "tick": 28992,
      "bpm": 35
    },
    {
      "tick": 29184,
      "bpm": 35
    },
    {
      "tick": 30528,
      "bpm": 30
    },
    {
      "tick": 31104,
      "bpm": 30
    },
    {
      "tick": 31296,
      "bpm": 25
    },
    {
      "tick": 31440,
      "bpm": 25
    }
  ],
  "time_signatures": [
    {
      "tick": 0,
      "numerator": 4,
      "denominator": 4
    }
  ],
  "track_type": "manual",
  "voice_count": 1,
  "total_notes": 511,
  "tracks": [
    {
      "role": "manual",
      "notes": [
        {
          "pitch": 43,
          "onset": 0.0,
          "duration": 4.0,
          "velocity": 100
        },
        {
          "pitch": 67,
          "onset": 0.375,
          "duration": 0.125,
          "velocity": 100
        },
        {
          "pitch": 62,
          "onset": 0.5,
          "duration": 0.375,
          "velocity": 100
        },
        {
          "pitch": 65,
          "onset": 0.875,
          "duration": 0.125,
          "velocity": 100
        },
        {
          "pitch": 63,
          "onset": 1.0,
          "duration": 1.3438,
          "velocity": 100
        },
        {
          "pitch": 58,
          "onset": 1.375,
          "duration": 0.125,
          "velocity": 100
        },
        {
          "pitch": 57,
          "onset": 1.5,
          "duration": 0.375,
          "velocity": 100
        },
        {
          "pitch": 60,
          "onset": 1.875,
          "duration": 0.125,
          "velocity": 100
        },
        {
          "pitch": 54,
          "onset": 2.0,
          "duration": 2.0,
          "velocity": 100
        },
        {
          "pitch": 63,
          "onset": 2.375,
          "duration": 0.125,
          "velocity": 100
        },
        {
          "pitch": 62,
          "onset": 2.5,
          "duration": 0.0625,
          "velocity": 100
        },
        {
          "pitch": 63,
          "onset": 2.5312,
          "duration": 0.0625,
          "velocity": 100
        },
        {
          "pitch": 62,
          "onset": 2.5938,
          "duration": 0.2812,
          "velocity": 100
        },
        {
          "pitch": 60,
          "onset": 2.875,
          "duration": 0.125,
          "velocity": 100
        },
        {
          "pitch": 69,
          "onset": 3.0,
          "duration": 0.375,
          "velocity": 100
        },
        {
          "pitch": 60,
          "onset": 3.375,
          "duration": 0.125,
          "velocity": 100
        },
        {
          "pitch": 58,
          "onset": 3.5,
          "duration": 0.0625,
          "velocity": 100
        },
        {
          "pitch": 60,
          "onset": 3.5312,
          "duration": 0.0625,
          "velocity": 100
        },
        {
          "pitch": 58,
          "onset": 3.5938,
          "duration": 0.2812,
          "velocity": 100
        },
        {
          "pitch": 57,
          "onset": 3.875,
          "duration": 0.125,
          "velocity": 100
        },
        {
          "pitch": 55,
          "onset": 4.0,
          "duration": 4.0,
          "velocity": 100
        },
        {
          "pitch": 58,
          "onset": 4.0,
          "duration": 0.5,
          "velocity": 100
        },
        {
          "pitch": 74,
          "onset": 4.375,
          "duration": 0.125,
          "velocity": 100
        },
        {
          "pitch": 60,
          "onset": 4.5,
          "duration": 0.5,
          "velocity": 100
        },
        {
          "pitch": 69,
          "onset": 4.5,
          "duration": 0.375,
          "velocity": 100
        },
        {
          "pitch": 72,
          "onset": 4.875,
          "duration": 0.125,
          "velocity": 100
        },
        {
          "pitch": 62,
          "onset": 5.0,
          "duration": 0.375,
          "velocity": 100
        },
        {
          "pitch": 70,
          "onset": 5.0,
          "duration": 1.3438,
          "velocity": 100
        },
        {
          "pitch": 65,
          "onset": 5.375,
          "duration": 0.125,
          "velocity": 100
        },
        {
          "pitch": 64,
          "onset": 5.5,
          "duration": 0.375,
          "velocity": 100
        },
        {
          "pitch": 67,
          "onset": 5.875,
          "duration": 0.125,
          "velocity": 100
        },
        {
          "pitch": 61,
          "onset": 6.0,
          "duration": 2.0,
          "velocity": 100
        },
        {
          "pitch": 70,
          "onset": 6.375,
          "duration": 0.125,
          "velocity": 100
        },
        {
          "pitch": 69,
          "onset": 6.5,
          "duration": 0.0625,
          "velocity": 100
        },
        {
          "pitch": 70,
          "onset": 6.5312,
          "duration": 0.0625,
          "velocity": 100
        },
        {
          "pitch": 69,
          "onset": 6.5938,
          "duration": 0.2812,
          "velocity": 100
        },
        {
          "pitch": 67,
          "onset": 6.875,
          "duration": 0.125,
          "velocity": 100
        },
        {
          "pitch": 76,
          "onset": 7.0,
          "duration": 0.375,
          "velocity": 100
        },
        {
          "pitch": 67,
          "onset": 7.375,
          "duration": 0.125,
          "velocity": 100
        },
        {
          "pitch": 66,
          "onset": 7.5,
          "duration": 0.0625,
          "velocity": 100
        },
        {
          "pitch": 67,
          "onset": 7.5312,
          "duration": 0.0625,
          "velocity": 100
        },
        {
          "pitch": 66,
          "onset": 7.5938,
          "duration": 0.2812,
          "velocity": 100
        },
        {
          "pitch": 64,
          "onset": 7.875,
          "duration": 0.125,
          "velocity": 100
        },
        {
          "pitch": 50,
          "onset": 8.0,
          "duration": 3.75,
          "velocity": 100
        },
        {
          "pitch": 62,
          "onset": 8.0,
          "duration": 0.75,
          "velocity": 100
        },
        {
          "pitch": 66,
          "onset": 8.0,
          "duration": 0.375,
          "velocity": 100
        },
        {
          "pitch": 67,
          "onset": 8.375,
          "duration": 0.125,
          "velocity": 100
        },
        {
          "pitch": 69,
          "onset": 8.5,
          "duration": 0.875,
          "velocity": 100
        },
        {
          "pitch": 60,
          "onset": 8.75,
          "duration": 0.25,
          "velocity": 100
        },
        {
          "pitch": 58,
          "onset": 9.0,
          "duration": 1.0,
          "velocity": 100
        },
        {
          "pitch": 62,
          "onset": 9.375,
          "duration": 0.125,
          "velocity": 100
        },
        {
          "pitch": 67,
          "onset": 9.5,
          "duration": 0.875,
          "velocity": 100
        },
        {
          "pitch": 70,
          "onset": 9.875,
          "duration": 0.125,
          "velocity": 100
        },
        {
          "pitch": 57,
          "onset": 10.0,
          "duration": 1.5,
          "velocity": 100
        },
        {
          "pitch": 72,
          "onset": 10.0,
          "duration": 1.3438,
          "velocity": 100
        },
        {
          "pitch": 67,
          "onset": 10.375,
          "duration": 0.125,
          "velocity": 100
        },
        {
          "pitch": 66,
          "onset": 10.5,
          "duration": 0.375,
          "velocity": 100
        },
        {
          "pitch": 64,
          "onset": 10.875,
          "duration": 0.125,
          "velocity": 100
        },
        {
          "pitch": 66,
          "onset": 11.0,
          "duration": 1.0,
          "velocity": 100
        },
        {
          "pitch": 74,
          "onset": 11.375,
          "duration": 0.125,
          "velocity": 100
        },
        {
          "pitch": 62,
          "onset": 11.5,
          "duration": 1.25,
          "velocity": 100
        },
        {
          "pitch": 69,
          "onset": 11.5,
          "duration": 0.375,
          "velocity": 100
        },
        {
          "pitch": 72,
          "onset": 11.875,
          "duration": 0.125,
          "velocity": 100
        },
        {
          "pitch": 53,
          "onset": 12.0,
          "duration": 1.0,
          "velocity": 100
        },
        {
          "pitch": 67,
          "onset": 12.0,
          "duration": 1.0,
          "velocity": 100
        },
        {
          "pitch": 71,
          "onset": 12.0,
          "duration": 0.375,
          "velocity": 100
        },
        {
          "pitch": 72,
          "onset": 12.375,
          "duration": 0.125,
          "velocity": 100
        },
        {
          "pitch": 74,
          "onset": 12.5,
          "duration": 0.875,
          "velocity": 100
        },
        {
          "pitch": 59,
          "onset": 12.75,
          "duration": 0.25,
          "velocity": 100
        },
        {
          "pitch": 51,
          "onset": 13.0,
          "duration": 1.0,
          "velocity": 100
        },
        {
          "pitch": 55,
          "onset": 13.0,
          "duration": 0.5,
          "velocity": 100
        },
        {
          "pitch": 67,
          "onset": 13.375,
          "duration": 0.125,
          "velocity": 100
        },
        {
          "pitch": 63,
          "onset": 13.5,
          "duration": 0.5,
          "velocity": 100
        },
        {
          "pitch": 72,
          "onset": 13.5,
          "duration": 0.875,
          "velocity": 100
        },
        {
          "pitch": 75,
          "onset": 13.875,
          "duration": 0.125,
          "velocity": 100
        },
        {
          "pitch": 50,
          "onset": 14.0,
          "duration": 1.0,
          "velocity": 100
        },
        {
          "pitch": 56,
          "onset": 14.0,
          "duration": 0.5,
          "velocity": 100
        },
        {
          "pitch": 77,
          "onset": 14.0,
          "duration": 1.3438,
          "velocity": 100
        },
        {
          "pitch": 72,
          "onset": 14.375,
          "duration": 0.125,
          "velocity": 100
        },
        {
          "pitch": 53,
          "onset": 14.5,
          "duration": 0.5,
          "velocity": 100
        },
        {
          "pitch": 71,
          "onset": 14.5,
          "duration": 0.375,
          "velocity": 100
        },
        {
          "pitch": 69,
          "onset": 14.875,
          "duration": 0.125,
          "velocity": 100
        },
        {
          "pitch": 55,
          "onset": 15.0,
          "duration": 2.0,
          "velocity": 100
        },
        {
          "pitch": 71,
          "onset": 15.0,
          "duration": 1.0,
          "velocity": 100
        },
        {
          "pitch": 79,
          "onset": 15.375,
          "duration": 0.125,
          "velocity": 100
        },
        {
          "pitch": 43,
          "onset": 15.5,
          "duration": 0.5,
          "velocity": 100
        },
        {
          "pitch": 74,
          "onset": 15.5,
          "duration": 0.375,
          "velocity": 100
        },
        {
          "pitch": 77,
          "onset": 15.875,
          "duration": 0.125,
          "velocity": 100
        },
        {
          "pitch": 48,
          "onset": 16.0,
          "duration": 4.0,
          "velocity": 100
        },
        {
          "pitch": 75,
          "onset": 16.0,
          "duration": 1.0,
          "velocity": 100
        },
        {
          "pitch": 72,
          "onset": 16.375,
          "duration": 0.125,
          "velocity": 100
        },
        {
          "pitch": 67,
          "onset": 16.5,
          "duration": 0.375,
          "velocity": 100
        },
        {
          "pitch": 70,
          "onset": 16.875,
          "duration": 0.125,
          "velocity": 100
        },
        {
          "pitch": 68,
          "onset": 17.0,
          "duration": 1.3438,
          "velocity": 100
        },
        {
          "pitch": 63,
          "onset": 17.375,
          "duration": 0.125,
          "velocity": 100
        },
        {
          "pitch": 62,
          "onset": 17.5,
          "duration": 0.375,
          "velocity": 100
        },
        {
          "pitch": 65,
          "onset": 17.875,
          "duration": 0.125,
          "velocity": 100
        },
        {
          "pitch": 59,
          "onset": 18.0,
          "duration": 2.0,
          "velocity": 100
        },
        {
          "pitch": 68,
          "onset": 18.375,
          "duration": 0.125,
          "velocity": 100
        },
        {
          "pitch": 67,
          "onset": 18.5,
          "duration": 0.375,
          "velocity": 100
        },
        {
          "pitch": 65,
          "onset": 18.875,
          "duration": 0.125,
          "velocity": 100
        },
        {
          "pitch": 74,
          "onset": 19.0,
          "duration": 1.5,
          "velocity": 100
        },
        {
          "pitch": 65,
          "onset": 19.375,
          "duration": 0.125,
          "velocity": 100
        },
        {
          "pitch": 63,
          "onset": 19.5,
          "duration": 0.375,
          "velocity": 100
        },
        {
          "pitch": 62,
          "onset": 19.875,
          "duration": 0.125,
          "velocity": 100
        },
        {
          "pitch": 60,
          "onset": 20.0,
          "duration": 1.3438,
          "velocity": 100
        },
        {
          "pitch": 63,
          "onset": 20.0,
          "duration": 1.3438,
          "velocity": 100
        },
        {
          "pitch": 79,
          "onset": 20.375,
          "duration": 0.125,
          "velocity": 100
        },
        {
          "pitch": 65,
          "onset": 20.5,
          "duration": 0.5,
          "velocity": 100
        },
        {
          "pitch": 71,
          "onset": 20.5,
          "duration": 0.5,
          "velocity": 100
        },
        {
          "pitch": 74,
          "onset": 20.5,
          "duration": 0.375,
          "velocity": 100
        },
        {
          "pitch": 77,
          "onset": 20.875,
          "duration": 0.125,
          "velocity": 100
        },
        {
          "pitch": 67,
          "onset": 21.0,
          "duration": 0.5,
          "velocity": 100
        },
        {
          "pitch": 72,
          "onset": 21.0,
          "duration": 1.875,
          "velocity": 100
        },
        {
          "pitch": 75,
          "onset": 21.0,
          "duration": 1.3438,
          "velocity": 100
        },
        {
          "pitch": 58,
          "onset": 21.375,
          "duration": 0.125,
          "velocity": 100
        },
        {
          "pitch": 57,
          "onset": 21.5,
          "duration": 0.375,
          "velocity": 100
        },
        {
          "pitch": 66,
          "onset": 21.5,
          "duration": 0.375,
          "velocity": 100
        },
        {
          "pitch": 60,
          "onset": 21.875,
          "duration": 0.125,
          "velocity": 100
        },
        {
          "pitch": 67,
          "onset": 21.875,
          "duration": 0.125,
          "velocity": 100
        },
        {
          "pitch": 54,
          "onset": 22.0,
          "duration": 2.0,
          "velocity": 100
        },
        {
          "pitch": 69,
          "onset": 22.0,
          "duration": 0.5,
          "velocity": 100
        },
        {
          "pitch": 75,
          "onset": 22.375,
          "duration": 0.125,
          "velocity": 100
        },
        {
          "pitch": 57,
          "onset": 22.5,
          "duration": 1.0,
          "velocity": 100
        },
        {
          "pitch": 74,
          "onset": 22.5,
          "duration": 0.375,
          "velocity": 100
        },
        {
          "pitch": 72,
          "onset": 22.875,
          "duration": 0.125,
          "velocity": 100
        },
        {
          "pitch": 81,
          "onset": 23.0,
          "duration": 1.3438,
          "velocity": 100
        },
        {
          "pitch": 72,
          "onset": 23.375,
          "duration": 0.125,
          "velocity": 100
        },
        {
          "pitch": 62,
          "onset": 23.5,
          "duration": 1.0,
          "velocity": 100
        },
        {
          "pitch": 70,
          "onset": 23.5,
          "duration": 0.375,
          "velocity": 100
        },
        {
          "pitch": 69,
          "onset": 23.875,
          "duration": 0.125,
          "velocity": 100
        },
        {
          "pitch": 55,
          "onset": 24.0,
          "duration": 2.3438,
          "velocity": 100
        },
        {
          "pitch": 70,
          "onset": 24.0,
          "duration": 2.0,
          "velocity": 100
        },
        {
          "pitch": 79,
          "onset": 24.375,
          "duration": 0.125,
          "velocity": 100
        },
        {
          "pitch": 67,
          "onset": 24.5,
          "duration": 0.875,
          "velocity": 100
        },
        {
          "pitch": 74,
          "onset": 24.5,
          "duration": 0.375,
          "velocity": 100
        },
        {
          "pitch": 77,
          "onset": 24.875,
          "duration": 0.125,
          "velocity": 100
        },
        {
          "pitch": 75,
          "onset": 25.0,
          "duration": 0.5,
          "velocity": 100
        },
        {
          "pitch": 67,
          "onset": 25.375,
          "duration": 0.125,
          "velocity": 100
        },
        {
          "pitch": 62,
          "onset": 25.5,
          "duration": 0.375,
          "velocity": 100
        },
        {
          "pitch": 79,
          "onset": 25.5,
          "duration": 0.5,
          "velocity": 100
        },
        {
          "pitch": 65,
          "onset": 25.875,
          "duration": 0.125,
          "velocity": 100
        },
        {
          "pitch": 64,
          "onset": 26.0,
          "duration": 1.0,
          "velocity": 100
        },
        {
          "pitch": 69,
          "onset": 26.0,
          "duration": 2.3438,
          "velocity": 100
        },
        {
          "pitch": 73,
          "onset": 26.0,
          "duration": 1.0,
          "velocity": 100
        },
        {
          "pitch": 57,
          "onset": 26.375,
          "duration": 0.125,
          "velocity": 100
        },
        {
          "pitch": 52,
          "onset": 26.5,
          "duration": 0.375,
          "velocity": 100
        },
        {
          "pitch": 55,
          "onset": 26.875,
          "duration": 0.125,
          "velocity": 100
        },
        {
          "pitch": 53,
          "onset": 27.0,
          "duration": 0.375,
          "velocity": 100
        },
        {
          "pitch": 65,
          "onset": 27.0,
          "duration": 1.3438,
          "velocity": 100
        },
        {
          "pitch": 74,
          "onset": 27.0,
          "duration": 3.3438,
          "velocity": 100
        },
        {
          "pitch": 50,
          "onset": 27.375,
          "duration": 0.125,
          "velocity": 100
        },
        {
          "pitch": 45,
          "onset": 27.5,
          "duration": 0.375,
          "velocity": 100
        },
        {
          "pitch": 48,
          "onset": 27.875,
          "duration": 0.125,
          "velocity": 100
        },
        {
          "pitch": 46,
          "onset": 28.0,
          "duration": 1.0,
          "velocity": 100
        },
        {
          "pitch": 64,
          "onset": 28.375,
          "duration": 0.125,
          "velocity": 100
        },
        {
          "pitch": 65,
          "onset": 28.5,
          "duration": 0.375,
          "velocity": 100
        },
        {
          "pitch": 62,
          "onset": 28.875,
          "duration": 0.125,
          "velocity": 100
        },
        {
          "pitch": 47,
          "onset": 29.0,
          "duration": 1.0,
          "velocity": 100
        },
        {
          "pitch": 68,
          "onset": 29.0,
          "duration": 0.0625,
          "velocity": 100
        },
        {
          "pitch": 69,
          "onset": 29.0312,
          "duration": 0.0625,
          "velocity": 100
        },
        {
          "pitch": 68,
          "onset": 29.0938,
          "duration": 0.5938,
          "velocity": 100
        },
        {
          "pitch": 49,
          "onset": 29.375,
          "duration": 0.125,
          "velocity": 100
        },
        {
          "pitch": 50,
          "onset": 29.5,
          "duration": 0.375,
          "velocity": 100
        },
        {
          "pitch": 68,
          "onset": 29.75,
          "duration": 0.25,
          "velocity": 100
        },
        {
          "pitch": 52,
          "onset": 29.875,
          "duration": 0.125,
          "velocity": 100
        },
        {
          "pitch": 45,
          "onset": 30.0,
          "duration": 2.0,
          "velocity": 100
        },
        {
          "pitch": 53,
          "onset": 30.0,
          "duration": 0.5,
          "velocity": 100
        },
        {
          "pitch": 69,
          "onset": 30.0,
          "duration": 0.5,
          "velocity": 100
        },
        {
          "pitch": 74,
          "onset": 30.375,
          "duration": 0.125,
          "velocity": 100
        },
        {
          "pitch": 55,
          "onset": 30.5,
          "duration": 0.5,
          "velocity": 100
        },
        {
          "pitch": 70,
          "onset": 30.5,
          "duration": 0.875,
          "velocity": 100
        },
        {
          "pitch": 76,
          "onset": 30.5,
          "duration": 0.375,
          "velocity": 100
        },
        {
          "pitch": 79,
          "onset": 30.875,
          "duration": 0.125,
          "velocity": 100
        },
        {
          "pitch": 57,
          "onset": 31.0,
          "duration": 0.5,
          "velocity": 100
        },
        {
          "pitch": 73,
          "onset": 31.0,
          "duration": 0.375,
          "velocity": 100
        },
        {
          "pitch": 69,
          "onset": 31.375,
          "duration": 0.125,
          "velocity": 100
        },
        {
          "pitch": 74,
          "onset": 31.375,
          "duration": 0.125,
          "velocity": 100
        },
        {
          "pitch": 49,
          "onset": 31.5,
          "duration": 0.5,
          "velocity": 100
        },
        {
          "pitch": 64,
          "onset": 31.5,
          "duration": 0.375,
          "velocity": 100
        },
        {
          "pitch": 76,
          "onset": 31.5,
          "duration": 0.875,
          "velocity": 100
        },
        {
          "pitch": 67,
          "onset": 31.875,
          "duration": 0.125,
          "velocity": 100
        },
        {
          "pitch": 50,
          "onset": 32.0,
          "duration": 4.0,
          "velocity": 100
        },
        {
          "pitch": 65,
          "onset": 32.0,
          "duration": 1.0,
          "velocity": 100
        },
        {
          "pitch": 74,
          "onset": 32.375,
          "duration": 0.125,
          "velocity": 100
        },
        {
          "pitch": 53,
          "onset": 32.5,
          "duration": 0.5,
          "velocity": 100
        },
        {
          "pitch": 69,
          "onset": 32.5,
          "duration": 0.375,
          "velocity": 100
        },
        {
          "pitch": 72,
          "onset": 32.875,
          "duration": 0.125,
          "velocity": 100
        },
        {
          "pitch": 55,
          "onset": 33.0,
          "duration": 0.375,
          "velocity": 100
        },
        {
          "pitch": 70,
          "onset": 33.0,
          "duration": 1.3438,
          "velocity": 100
        },
        {
          "pitch": 57,
          "onset": 33.375,
          "duration": 0.125,
          "velocity": 100
        },
        {
          "pitch": 65,
          "onset": 33.375,
          "duration": 0.125,
          "velocity": 100
        },
        {
          "pitch": 55,
          "onset": 33.5,
          "duration": 0.375,
          "velocity": 100
        },
        {
          "pitch": 64,
          "onset": 33.5,
          "duration": 0.375,
          "velocity": 100
        },
        {
          "pitch": 58,
          "onset": 33.875,
          "duration": 0.125,
          "velocity": 100
        },
        {
          "pitch": 67,
          "onset": 33.875,
          "duration": 0.125,
          "velocity": 100
        },
        {
          "pitch": 52,
          "onset": 34.0,
          "duration": 0.5,
          "velocity": 100
        },
        {
          "pitch": 61,
          "onset": 34.0,
          "duration": 2.0,
          "velocity": 100
        },
        {
          "pitch": 70,
          "onset": 34.375,
          "duration": 0.125,
          "velocity": 100
        },
        {
          "pitch": 53,
          "onset": 34.5,
          "duration": 0.5,
          "velocity": 100
        },
        {
          "pitch": 69,
          "onset": 34.5,
          "duration": 0.375,
          "velocity": 100
        },
        {
          "pitch": 67,
          "onset": 34.875,
          "duration": 0.125,
          "velocity": 100
        },
        {
          "pitch": 55,
          "onset": 35.0,
          "duration": 0.5,
          "velocity": 100
        },
        {
          "pitch": 76,
          "onset": 35.0,
          "duration": 0.375,
          "velocity": 100
        },
        {
          "pitch": 67,
          "onset": 35.375,
          "duration": 0.125,
          "velocity": 100
        },
        {
          "pitch": 58,
          "onset": 35.5,
          "duration": 0.5,
          "velocity": 100
        },
        {
          "pitch": 66,
          "onset": 35.5,
          "duration": 0.375,
          "velocity": 100
        },
        {
          "pitch": 64,
          "onset": 35.875,
          "duration": 0.125,
          "velocity": 100
        },
        {
          "pitch": 48,
          "onset": 36.0,
          "duration": 1.0,
          "velocity": 100
        },
        {
          "pitch": 57,
          "onset": 36.0,
          "duration": 0.75,
          "velocity": 100
        },
        {
          "pitch": 62,
          "onset": 36.0,
          "duration": 1.0,
          "velocity": 100
        },
        {
          "pitch": 66,
          "onset": 36.0,
          "duration": 0.375,
          "velocity": 100
        },
        {
          "pitch": 67,
          "onset": 36.25,
          "duration": 0.125,
          "velocity": 100
        },
        {
          "pitch": 69,
          "onset": 36.5,
          "duration": 0.875,
          "velocity": 100
        },
        {
          "pitch": 54,
          "onset": 36.75,
          "duration": 0.25,
          "velocity": 100
        },
        {
          "pitch": 46,
          "onset": 37.0,
          "duration": 1.0,
          "velocity": 100
        },
        {
          "pitch": 50,
          "onset": 37.0,
          "duration": 0.5,
          "velocity": 100
        },
        {
          "pitch": 62,
          "onset": 37.375,
          "duration": 0.125,
          "velocity": 100
        },
        {
          "pitch": 58,
          "onset": 37.5,
          "duration": 0.5,
          "velocity": 100
        },
        {
          "pitch": 67,
          "onset": 37.5,
          "duration": 0.875,
          "velocity": 100
        },
        {
          "pitch": 70,
          "onset": 37.875,
          "duration": 0.125,
          "velocity": 100
        },
        {
          "pitch": 45,
          "onset": 38.0,
          "duration": 1.0,
          "velocity": 100
        },
        {
          "pitch": 51,
          "onset": 38.0,
          "duration": 0.5,
          "velocity": 100
        },
        {
          "pitch": 72,
          "onset": 38.0,
          "duration": 1.3438,
          "velocity": 100
        },
        {
          "pitch": 67,
          "onset": 38.375,
          "duration": 0.125,
          "velocity": 100
        },
        {
          "pitch": 48,
          "onset": 38.5,
          "duration": 0.5,
          "velocity": 100
        },
        {
          "pitch": 66,
          "onset": 38.5,
          "duration": 0.375,
          "velocity": 100
        },
        {
          "pitch": 64,
          "onset": 38.875,
          "duration": 0.125,
          "velocity": 100
        },
        {
          "pitch": 50,
          "onset": 39.0,
          "duration": 1.5,
          "velocity": 100
        },
        {
          "pitch": 66,
          "onset": 39.0,
          "duration": 1.0,
          "velocity": 100
        },
        {
          "pitch": 74,
          "onset": 39.375,
          "duration": 0.125,
          "velocity": 100
        },
        {
          "pitch": 38,
          "onset": 39.5,
          "duration": 0.5,
          "velocity": 100
        },
        {
          "pitch": 69,
          "onset": 39.5,
          "duration": 0.375,
          "velocity": 100
        },
        {
          "pitch": 72,
          "onset": 39.875,
          "duration": 0.125,
          "velocity": 100
        },
        {
          "pitch": 43,
          "onset": 40.0,
          "duration": 0.5,
          "velocity": 100
        },
        {
          "pitch": 70,
          "onset": 40.0,
          "duration": 1.3438,
          "velocity": 100
        },
        {
          "pitch": 67,
          "onset": 40.375,
          "duration": 0.125,
          "velocity": 100
        },
        {
          "pitch": 46,
          "onset": 40.5,
          "duration": 0.375,
          "velocity": 100
        },
        {
          "pitch": 62,
          "onset": 40.5,
          "duration": 0.375,
          "velocity": 100
        },
        {
          "pitch": 50,
          "onset": 40.875,
          "duration": 0.125,
          "velocity": 100
        },
        {
          "pitch": 65,
          "onset": 40.875,
          "duration": 0.125,
          "velocity": 100
        },
        {
          "pitch": 55,
          "onset": 41.0,
          "duration": 1.3438,
          "velocity": 100
        },
        {
          "pitch": 63,
          "onset": 41.0,
          "duration": 0.5,
          "velocity": 100
        },
        {
          "pitch": 70,
          "onset": 41.375,
          "duration": 0.125,
          "velocity": 100
        },
        {
          "pitch": 58,
          "onset": 41.5,
          "duration": 0.5,
          "velocity": 100
        },
        {
          "pitch": 75,
          "onset": 41.5,
          "duration": 0.375,
          "velocity": 100
        },
        {
          "pitch": 79,
          "onset": 41.875,
          "duration": 0.125,
          "velocity": 100
        },
        {
          "pitch": 60,
          "onset": 42.0,
          "duration": 0.375,
          "velocity": 100
        },
        {
          "pitch": 68,
          "onset": 42.0,
          "duration": 2.3438,
          "velocity": 100
        },
        {
          "pitch": 53,
          "onset": 42.375,
          "duration": 0.125,
          "velocity": 100
        },
        {
          "pitch": 62,
          "onset": 42.375,
          "duration": 0.125,
          "velocity": 100
        },
        {
          "pitch": 48,
          "onset": 42.5,
          "duration": 0.375,
          "velocity": 100
        },
        {
          "pitch": 63,
          "onset": 42.5,
          "duration": 0.375,
          "velocity": 100
        },
        {
          "pitch": 51,
          "onset": 42.875,
          "duration": 0.125,
          "velocity": 100
        },
        {
          "pitch": 60,
          "onset": 42.875,
          "duration": 0.125,
          "velocity": 100
        },
        {
          "pitch": 50,
          "onset": 43.0,
          "duration": 0.375,
          "velocity": 100
        },
        {
          "pitch": 65,
          "onset": 43.0,
          "duration": 0.0625,
          "velocity": 100
        },
        {
          "pitch": 63,
          "onset": 43.0312,
          "duration": 0.0625,
          "velocity": 100
        },
        {
          "pitch": 65,
          "onset": 43.0938,
          "duration": 0.6562,
          "velocity": 100
        },
        {
          "pitch": 46,
          "onset": 43.375,
          "duration": 0.125,
          "velocity": 100
        },
        {
          "pitch": 41,
          "onset": 43.5,
          "duration": 0.375,
          "velocity": 100
        },
        {
          "pitch": 65,
          "onset": 43.75,
          "duration": 0.25,
          "velocity": 100
        },
        {
          "pitch": 44,
          "onset": 43.875,
          "duration": 0.125,
          "velocity": 100
        },
        {
          "pitch": 43,
          "onset": 44.0,
          "duration": 2.0,
          "velocity": 100
        },
        {
          "pitch": 58,
          "onset": 44.0,
          "duration": 1.3438,
          "velocity": 100
        },
        {
          "pitch": 62,
          "onset": 44.375,
          "duration": 0.125,
          "velocity": 100
        },
        {
          "pitch": 46,
          "onset": 44.5,
          "duration": 0.5,
          "velocity": 100
        },
        {
          "pitch": 65,
          "onset": 44.5,
          "duration": 0.375,
          "velocity": 100
        },
        {
          "pitch": 68,
          "onset": 44.875,
          "duration": 0.125,
          "velocity": 100
        },
        {
          "pitch": 51,
          "onset": 45.0,
          "duration": 0.5,
          "velocity": 100
        },
        {
          "pitch": 67,
          "onset": 45.0,
          "duration": 0.75,
          "velocity": 100
        },
        {
          "pitch": 58,
          "onset": 45.375,
          "duration": 0.125,
          "velocity": 100
        },
        {
          "pitch": 55,
          "onset": 45.5,
          "duration": 0.5,
          "velocity": 100
        },
        {
          "pitch": 63,
          "onset": 45.5,
          "duration": 0.875,
          "velocity": 100
        },
        {
          "pitch": 67,
          "onset": 45.75,
          "duration": 0.25,
          "velocity": 100
        },
        {
          "pitch": 45,
          "onset": 46.0,
          "duration": 1.0,
          "velocity": 100
        },
        {
          "pitch": 48,
          "onset": 46.0,
          "duration": 1.0,
          "velocity": 100
        },
        {
          "pitch": 65,
          "onset": 46.0,
          "duration": 1.3438,
          "velocity": 100
        },
        {
          "pitch": 63,
          "onset": 46.375,
          "duration": 0.125,
          "velocity": 100
        },
        {
          "pitch": 62,
          "onset": 46.5,
          "duration": 0.375,
          "velocity": 100
        },
        {
          "pitch": 60,
          "onset": 46.875,
          "duration": 0.125,
          "velocity": 100
        },
        {
          "pitch": 47,
          "onset": 47.0,
          "duration": 1.0,
          "velocity": 100
        },
        {
          "pitch": 55,
          "onset": 47.0,
          "duration": 1.75,
          "velocity": 100
        },
        {
          "pitch": 65,
          "onset": 47.375,
          "duration": 0.125,
          "velocity": 100
        },
        {
          "pitch": 67,
          "onset": 47.5,
          "duration": 0.375,
          "velocity": 100
        },
        {
          "pitch": 62,
          "onset": 47.875,
          "duration": 0.125,
          "velocity": 100
        },
        {
          "pitch": 48,
          "onset": 48.0,
          "duration": 1.5,
          "velocity": 100
        },
        {
          "pitch": 63,
          "onset": 48.0,
          "duration": 1.3438,
          "velocity": 100
        },
        {
          "pitch": 59,
          "onset": 48.375,
          "duration": 0.125,
          "velocity": 100
        },
        {
          "pitch": 60,
          "onset": 48.5,
          "duration": 0.5,
          "velocity": 100
        },
        {
          "pitch": 55,
          "onset": 48.75,
          "duration": 0.25,
          "velocity": 100
        },
        {
          "pitch": 51,
          "onset": 49.0,
          "duration": 0.375,
          "velocity": 100
        },
        {
          "pitch": 55,
          "onset": 49.375,
          "duration": 0.125,
          "velocity": 100
        },
        {
          "pitch": 75,
          "onset": 49.375,
          "duration": 0.125,
          "velocity": 100
        },
        {
          "pitch": 48,
          "onset": 49.5,
          "duration": 1.25,
          "velocity": 100
        },
        {
          "pitch": 69,
          "onset": 49.5,
          "duration": 0.375,
          "velocity": 100
        },
        {
          "pitch": 51,
          "onset": 49.875,
          "duration": 0.125,
          "velocity": 100
        },
        {
          "pitch": 72,
          "onset": 49.875,
          "duration": 0.125,
          "velocity": 100
        },
        {
          "pitch": 50,
          "onset": 50.0,
          "duration": 0.375,
          "velocity": 100
        },
        {
          "pitch": 66,
          "onset": 50.0,
          "duration": 0.375,
          "velocity": 100
        },
        {
          "pitch": 54,
          "onset": 50.375,
          "duration": 0.125,
          "velocity": 100
        },
        {
          "pitch": 62,
          "onset": 50.375,
          "duration": 0.125,
          "velocity": 100
        },
        {
          "pitch": 57,
          "onset": 50.5,
          "duration": 0.875,
          "velocity": 100
        },
        {
          "pitch": 66,
          "onset": 50.5,
          "duration": 0.375,
          "velocity": 100
        },
        {
          "pitch": 48,
          "onset": 50.75,
          "duration": 0.25,
          "velocity": 100
        },
        {
          "pitch": 69,
          "onset": 50.875,
          "duration": 0.125,
          "velocity": 100
        },
        {
          "pitch": 46,
          "onset": 51.0,
          "duration": 1.3438,
          "velocity": 100
        },
        {
          "pitch": 74,
          "onset": 51.0,
          "duration": 2.3438,
          "velocity": 100
        },
        {
          "pitch": 54,
          "onset": 51.375,
          "duration": 0.125,
          "velocity": 100
        },
        {
          "pitch": 69,
          "onset": 51.375,
          "duration": 0.125,
          "velocity": 100
        },
        {
          "pitch": 55,
          "onset": 51.5,
          "duration": 0.375,
          "velocity": 100
        },
        {
          "pitch": 70,
          "onset": 51.5,
          "duration": 0.375,
          "velocity": 100
        },
        {
          "pitch": 57,
          "onset": 51.875,
          "duration": 0.125,
          "velocity": 100
        },
        {
          "pitch": 66,
          "onset": 51.875,
          "duration": 0.125,
          "velocity": 100
        },
        {
          "pitch": 58,
          "onset": 52.0,
          "duration": 1.3438,
          "velocity": 100
        },
        {
          "pitch": 67,
          "onset": 52.0,
          "duration": 2.0,
          "velocity": 100
        },
        {
          "pitch": 46,
          "onset": 52.375,
          "duration": 0.125,
          "velocity": 100
        },
        {
          "pitch": 48,
          "onset": 52.5,
          "duration": 0.375,
          "velocity": 100
        },
        {
          "pitch": 50,
          "onset": 52.875,
          "duration": 0.125,
          "velocity": 100
        },
        {
          "pitch": 51,
          "onset": 53.0,
          "duration": 2.0,
          "velocity": 100
        },
        {
          "pitch": 58,
          "onset": 53.375,
          "duration": 0.125,
          "velocity": 100
        },
        {
          "pitch": 79,
          "onset": 53.375,
          "duration": 0.125,
          "velocity": 100
        },
        {
          "pitch": 57,
          "onset": 53.5,
          "duration": 0.375,
          "velocity": 100
        },
        {
          "pitch": 72,
          "onset": 53.5,
          "duration": 0.375,
          "velocity": 100
        },
        {
          "pitch": 58,
          "onset": 53.875,
          "duration": 0.125,
          "velocity": 100
        },
        {
          "pitch": 75,
          "onset": 53.875,
          "duration": 0.125,
          "velocity": 100
        },
        {
          "pitch": 60,
          "onset": 54.0,
          "duration": 0.375,
          "velocity": 100
        },
        {
          "pitch": 65,
          "onset": 54.0,
          "duration": 0.375,
          "velocity": 100
        },
        {
          "pitch": 69,
          "onset": 54.0,
          "duration": 0.375,
          "velocity": 100
        },
        {
          "pitch": 57,
          "onset": 54.375,
          "duration": 0.125,
          "velocity": 100
        },
        {
          "pitch": 65,
          "onset": 54.375,
          "duration": 0.125,
          "velocity": 100
        },
        {
          "pitch": 53,
          "onset": 54.5,
          "duration": 0.375,
          "velocity": 100
        },
        {
          "pitch": 69,
          "onset": 54.5,
          "duration": 0.375,
          "velocity": 100
        },
        {
          "pitch": 57,
          "onset": 54.875,
          "duration": 0.125,
          "velocity": 100
        },
        {
          "pitch": 72,
          "onset": 54.875,
          "duration": 0.125,
          "velocity": 100
        },
        {
          "pitch": 62,
          "onset": 55.0,
          "duration": 2.3438,
          "velocity": 100
        },
        {
          "pitch": 77,
          "onset": 55.0,
          "duration": 1.3438,
          "velocity": 100
        },
        {
          "pitch": 50,
          "onset": 55.375,
          "duration": 0.125,
          "velocity": 100
        },
        {
          "pitch": 65,
          "onset": 55.375,
          "duration": 0.125,
          "velocity": 100
        },
        {
          "pitch": 51,
          "onset": 55.5,
          "duration": 0.375,
          "velocity": 100
        },
        {
          "pitch": 67,
          "onset": 55.5,
          "duration": 0.375,
          "velocity": 100
        },
        {
          "pitch": 53,
          "onset": 55.875,
          "duration": 0.125,
          "velocity": 100
        },
        {
          "pitch": 69,
          "onset": 55.875,
          "duration": 0.125,
          "velocity": 100
        },
        {
          "pitch": 55,
          "onset": 56.0,
          "duration": 2.0,
          "velocity": 100
        },
        {
          "pitch": 70,
          "onset": 56.0,
          "duration": 1.3438,
          "velocity": 100
        },
        {
          "pitch": 82,
          "onset": 56.375,
          "duration": 0.125,
          "velocity": 100
        },
        {
          "pitch": 79,
          "onset": 56.5,
          "duration": 0.375,
          "velocity": 100
        },
        {
          "pitch": 74,
          "onset": 56.875,
          "duration": 0.125,
          "velocity": 100
        },
        {
          "pitch": 77,
          "onset": 57.0,
          "duration": 0.25,
          "velocity": 100
        },
        {
          "pitch": 76,
          "onset": 57.25,
          "duration": 0.0625,
          "velocity": 100
        },
        {
          "pitch": 77,
          "onset": 57.2812,
          "duration": 0.0625,
          "velocity": 100
        },
        {
          "pitch": 76,
          "onset": 57.3438,
          "duration": 0.0625,
          "velocity": 100
        },
        {
          "pitch": 61,
          "onset": 57.375,
          "duration": 0.125,
          "velocity": 100
        },
        {
          "pitch": 77,
          "onset": 57.375,
          "duration": 0.0625,
          "velocity": 100
        },
        {
          "pitch": 76,
          "onset": 57.4062,
          "duration": 0.3125,
          "velocity": 100
        },
        {
          "pitch": 60,
          "onset": 57.5,
          "duration": 0.375,
          "velocity": 100
        },
        {
          "pitch": 76,
          "onset": 57.75,
          "duration": 0.25,
          "velocity": 100
        },
        {
          "pitch": 58,
          "onset": 57.875,
          "duration": 0.125,
          "velocity": 100
        },
        {
          "pitch": 53,
          "onset": 58.0,
          "duration": 2.3438,
          "velocity": 100
        },
        {
          "pitch": 77,
          "onset": 58.0,
          "duration": 1.3438,
          "velocity": 100
        },
        {
          "pitch": 70,
          "onset": 58.375,
          "duration": 0.125,
          "velocity": 100
        },
        {
          "pitch": 68,
          "onset": 58.5,
          "duration": 0.375,
          "velocity": 100
        },
        {
          "pitch": 67,
          "onset": 58.875,
          "duration": 0.125,
          "velocity": 100
        },
        {
          "pitch": 68,
          "onset": 59.0,
          "duration": 1.0,
          "velocity": 100
        },
        {
          "pitch": 60,
          "onset": 59.375,
          "duration": 0.125,
          "velocity": 100
        },
        {
          "pitch": 75,
          "onset": 59.375,
          "duration": 0.125,
          "velocity": 100
        },
        {
          "pitch": 65,
          "onset": 59.5,
          "duration": 0.375,
          "velocity": 100
        },
        {
          "pitch": 74,
          "onset": 59.5,
          "duration": 0.375,
          "velocity": 100
        },
        {
          "pitch": 63,
          "onset": 59.875,
          "duration": 0.125,
          "velocity": 100
        },
        {
          "pitch": 77,
          "onset": 59.875,
          "duration": 0.125,
          "velocity": 100
        },
        {
          "pitch": 62,
          "onset": 60.0,
          "duration": 1.0,
          "velocity": 100
        },
        {
          "pitch": 71,
          "onset": 60.0,
          "duration": 1.0,
          "velocity": 100
        },
        {
          "pitch": 55,
          "onset": 60.375,
          "duration": 0.125,
          "velocity": 100
        },
        {
          "pitch": 50,
          "onset": 60.5,
          "duration": 0.375,
          "velocity": 100
        },
        {
          "pitch": 53,
          "onset": 60.875,
          "duration": 0.125,
          "velocity": 100
        },
        {
          "pitch": 51,
          "onset": 61.0,
          "duration": 0.375,
          "velocity": 100
        },
        {
          "pitch": 63,
          "onset": 61.0,
          "duration": 1.5,
          "velocity": 100
        },
        {
          "pitch": 72,
          "onset": 61.0,
          "duration": 1.3438,
          "velocity": 100
        },
        {
          "pitch": 48,
          "onset": 61.375,
          "duration": 0.125,
          "velocity": 100
        },
        {
          "pitch": 43,
          "onset": 61.5,
          "duration": 0.375,
          "velocity": 100
        },
        {
          "pitch": 46,
          "onset": 61.875,
          "duration": 0.125,
          "velocity": 100
        },
        {
          "pitch": 45,
          "onset": 62.0,
          "duration": 2.0,
          "velocity": 100
        },
        {
          "pitch": 74,
          "onset": 62.375,
          "duration": 0.125,
          "velocity": 100
        },
        {
          "pitch": 55,
          "onset": 62.5,
          "duration": 0.5,
          "velocity": 100
        },
        {
          "pitch": 75,
          "onset": 62.5,
          "duration": 0.375,
          "velocity": 100
        },
        {
          "pitch": 70,
          "onset": 62.875,
          "duration": 0.125,
          "velocity": 100
        },
        {
          "pitch": 54,
          "onset": 63.0,
          "duration": 0.5,
          "velocity": 100
        },
        {
          "pitch": 72,
          "onset": 63.0,
          "duration": 1.3438,
          "velocity": 100
        },
        {
          "pitch": 67,
          "onset": 63.375,
          "duration": 0.125,
          "velocity": 100
        },
        {
          "pitch": 57,
          "onset": 63.5,
          "duration": 1.0,
          "velocity": 100
        },
        {
          "pitch": 66,
          "onset": 63.5,
          "duration": 0.375,
          "velocity": 100
        },
        {
          "pitch": 69,
          "onset": 63.875,
          "duration": 0.125,
          "velocity": 100
        },
        {
          "pitch": 46,
          "onset": 64.0,
          "duration": 2.0,
          "velocity": 100
        },
        {
          "pitch": 62,
          "onset": 64.0,
          "duration": 1.3438,
          "velocity": 100
        },
        {
          "pitch": 72,
          "onset": 64.375,
          "duration": 0.125,
          "velocity": 100
        },
        {
          "pitch": 55,
          "onset": 64.5,
          "duration": 0.375,
          "velocity": 100
        },
        {
          "pitch": 74,
          "onset": 64.5,
          "duration": 0.375,
          "velocity": 100
        },
        {
          "pitch": 54,
          "onset": 64.875,
          "duration": 0.125,
          "velocity": 100
        },
        {
          "pitch": 69,
          "onset": 64.875,
          "duration": 0.125,
          "velocity": 100
        },
        {
          "pitch": 55,
          "onset": 65.0,
          "duration": 1.5,
          "velocity": 100
        },
        {
          "pitch": 70,
          "onset": 65.0,
          "duration": 1.3438,
          "velocity": 100
        },
        {
          "pitch": 66,
          "onset": 65.375,
          "duration": 0.125,
          "velocity": 100
        },
        {
          "pitch": 67,
          "onset": 65.5,
          "duration": 0.375,
          "velocity": 100
        },
        {
          "pitch": 62,
          "onset": 65.875,
          "duration": 0.125,
          "velocity": 100
        },
        {
          "pitch": 48,
          "onset": 66.0,
          "duration": 2.3438,
          "velocity": 100
        },
        {
          "pitch": 63,
          "onset": 66.0,
          "duration": 2.0,
          "velocity": 100
        },
        {
          "pitch": 75,
          "onset": 66.375,
          "duration": 0.125,
          "velocity": 100
        },
        {
          "pitch": 60,
          "onset": 66.5,
          "duration": 0.875,
          "velocity": 100
        },
        {
          "pitch": 67,
          "onset": 66.5,
          "duration": 0.375,
          "velocity": 100
        },
        {
          "pitch": 70,
          "onset": 66.875,
          "duration": 0.125,
          "velocity": 100
        },
        {
          "pitch": 68,
          "onset": 67.0,
          "duration": 0.5,
          "velocity": 100
        },
        {
          "pitch": 60,
          "onset": 67.375,
          "duration": 0.125,
          "velocity": 100
        },
        {
          "pitch": 55,
          "onset": 67.5,
          "duration": 0.375,
          "velocity": 100
        },
        {
          "pitch": 72,
          "onset": 67.5,
          "duration": 0.5,
          "velocity": 100
        },
        {
          "pitch": 58,
          "onset": 67.875,
          "duration": 0.125,
          "velocity": 100
        },
        {
          "pitch": 57,
          "onset": 68.0,
          "duration": 1.0,
          "velocity": 100
        },
        {
          "pitch": 62,
          "onset": 68.0,
          "duration": 3.0,
          "velocity": 100
        },
        {
          "pitch": 66,
          "onset": 68.0,
          "duration": 1.0,
          "velocity": 100
        },
        {
          "pitch": 50,
          "onset": 68.375,
          "duration": 0.125,
          "velocity": 100
        },
        {
          "pitch": 45,
          "onset": 68.5,
          "duration": 0.375,
          "velocity": 100
        },
        {
          "pitch": 48,
          "onset": 68.875,
          "duration": 0.125,
          "velocity": 100
        },
        {
          "pitch": 46,
          "onset": 69.0,
          "duration": 0.375,
          "velocity": 100
        },
        {
          "pitch": 58,
          "onset": 69.0,
          "duration": 1.0,
          "velocity": 100
        },
        {
          "pitch": 67,
          "onset": 69.0,
          "duration": 1.3438,
          "velocity": 100
        },
        {
          "pitch": 43,
          "onset": 69.375,
          "duration": 0.125,
          "velocity": 100
        },
        {
          "pitch": 38,
          "onset": 69.5,
          "duration": 0.375,
          "velocity": 100
        },
        {
          "pitch": 41,
          "onset": 69.875,
          "duration": 0.125,
          "velocity": 100
        },
        {
          "pitch": 39,
          "onset": 70.0,
          "duration": 0.5,
          "velocity": 100
        },
        {
          "pitch": 66,
          "onset": 70.375,
          "duration": 0.125,
          "velocity": 100
        },
        {
          "pitch": 51,
          "onset": 70.5,
          "duration": 0.375,
          "velocity": 100
        },
        {
          "pitch": 67,
          "onset": 70.5,
          "duration": 0.375,
          "velocity": 100
        },
        {
          "pitch": 50,
          "onset": 70.875,
          "duration": 0.125,
          "velocity": 100
        },
        {
          "pitch": 70,
          "onset": 70.875,
          "duration": 0.5,
          "velocity": 100
        },
        {
          "pitch": 51,
          "onset": 71.0,
          "duration": 0.5,
          "velocity": 100
        },
        {
          "pitch": 61,
          "onset": 71.0,
          "duration": 1.0,
          "velocity": 100
        },
        {
          "pitch": 54,
          "onset": 71.375,
          "duration": 0.125,
          "velocity": 100
        },
        {
          "pitch": 70,
          "onset": 71.375,
          "duration": 0.125,
          "velocity": 100
        },
        {
          "pitch": 52,
          "onset": 71.5,
          "duration": 0.375,
          "velocity": 100
        },
        {
          "pitch": 55,
          "onset": 71.5,
          "duration": 0.375,
          "velocity": 100
        },
        {
          "pitch": 69,
          "onset": 71.5,
          "duration": 0.375,
          "velocity": 100
        },
        {
          "pitch": 57,
          "onset": 71.875,
          "duration": 0.125,
          "velocity": 100
        },
        {
          "pitch": 67,
          "onset": 71.875,
          "duration": 0.125,
          "velocity": 100
        },
        {
          "pitch": 50,
          "onset": 72.0,
          "duration": 4.0,
          "velocity": 100
        },
        {
          "pitch": 58,
          "onset": 72.0,
          "duration": 1.3438,
          "velocity": 100
        },
        {
          "pitch": 62,
          "onset": 72.0,
          "duration": 0.375,
          "velocity": 100
        },
        {
          "pitch": 66,
          "onset": 72.0,
          "duration": 0.75,
          "velocity": 100
        },
        {
          "pitch": 61,
          "onset": 72.375,
          "duration": 0.125,
          "velocity": 100
        },
        {
          "pitch": 62,
          "onset": 72.5,
          "duration": 0.875,
          "velocity": 100
        },
        {
          "pitch": 66,
          "onset": 72.75,
          "duration": 0.25,
          "velocity": 100
        },
        {
          "pitch": 67,
          "onset": 73.0,
          "duration": 1.3438,
          "velocity": 100
        },
        {
          "pitch": 58,
          "onset": 73.375,
          "duration": 0.125,
          "velocity": 100
        },
        {
          "pitch": 61,
          "onset": 73.375,
          "duration": 0.125,
          "velocity": 100
        },
        {
          "pitch": 57,
          "onset": 73.5,
          "duration": 0.375,
          "velocity": 100
        },
        {
          "pitch": 62,
          "onset": 73.5,
          "duration": 1.0,
          "velocity": 100
        },
        {
          "pitch": 55,
          "onset": 73.875,
          "duration": 0.125,
          "velocity": 100
        },
        {
          "pitch": 57,
          "onset": 74.0,
          "duration": 2.0,
          "velocity": 100
        },
        {
          "pitch": 60,
          "onset": 74.0,
          "duration": 0.875,
          "velocity": 100
        },
        {
          "pitch": 70,
          "onset": 74.375,
          "duration": 0.125,
          "velocity": 100
        },
        {
          "pitch": 69,
          "onset": 74.5,
          "duration": 0.375,
          "velocity": 100
        },
        {
          "pitch": 72,
          "onset": 74.875,
          "duration": 0.125,
          "velocity": 100
        },
        {
          "pitch": 66,
          "onset": 75.0,
          "duration": 1.0,
          "velocity": 100
        },
        {
          "pitch": 63,
          "onset": 75.375,
          "duration": 0.125,
          "velocity": 100
        },
        {
          "pitch": 62,
          "onset": 75.5,
          "duration": 0.375,
          "velocity": 100
        },
        {
          "pitch": 60,
          "onset": 75.875,
          "duration": 0.5,
          "velocity": 100
        },
        {
          "pitch": 43,
          "onset": 76.0,
          "duration": 3.3438,
          "velocity": 100
        },
        {
          "pitch": 55,
          "onset": 76.0,
          "duration": 1.75,
          "velocity": 100
        },
        {
          "pitch": 67,
          "onset": 76.0,
          "duration": 0.75,
          "velocity": 100
        },
        {
          "pitch": 57,
          "onset": 76.375,
          "duration": 0.125,
          "velocity": 100
        },
        {
          "pitch": 59,
          "onset": 76.5,
          "duration": 0.875,
          "velocity": 100
        },
        {
          "pitch": 65,
          "onset": 76.75,
          "duration": 0.25,
          "velocity": 100
        },
        {
          "pitch": 63,
          "onset": 77.0,
          "duration": 0.75,
          "velocity": 100
        },
        {
          "pitch": 59,
          "onset": 77.375,
          "duration": 0.125,
          "velocity": 100
        },
        {
          "pitch": 60,
          "onset": 77.5,
          "duration": 0.875,
          "velocity": 100
        },
        {
          "pitch": 54,
          "onset": 77.75,
          "duration": 0.25,
          "velocity": 100
        },
        {
          "pitch": 63,
          "onset": 77.75,
          "duration": 0.25,
          "velocity": 100
        },
        {
          "pitch": 55,
          "onset": 78.0,
          "duration": 0.75,
          "velocity": 100
        },
        {
          "pitch": 62,
          "onset": 78.0,
          "duration": 0.5,
          "velocity": 100
        },
        {
          "pitch": 60,
          "onset": 78.375,
          "duration": 0.125,
          "velocity": 100
        },
        {
          "pitch": 59,
          "onset": 78.5,
          "duration": 0.5,
          "velocity": 100
        },
        {
          "pitch": 53,
          "onset": 78.75,
          "duration": 0.125,
          "velocity": 100
        },
        {
          "pitch": 67,
          "onset": 78.75,
          "duration": 0.25,
          "velocity": 100
        },
        {
          "pitch": 51,
          "onset": 78.875,
          "duration": 0.125,
          "velocity": 100
        },
        {
          "pitch": 50,
          "onset": 79.0,
          "duration": 0.375,
          "velocity": 100
        },
        {
          "pitch": 77,
          "onset": 79.0,
          "duration": 0.75,
          "velocity": 100
        },
        {
          "pitch": 43,
          "onset": 79.375,
          "duration": 5.625,
          "velocity": 100
        },
        {
          "pitch": 72,
          "onset": 79.375,
          "duration": 0.125,
          "velocity": 100
        },
        {
          "pitch": 55,
          "onset": 79.5,
          "duration": 0.875,
          "velocity": 100
        },
        {
          "pitch": 71,
          "onset": 79.5,
          "duration": 0.875,
          "velocity": 100
        },
        {
          "pitch": 74,
          "onset": 79.75,
          "duration": 0.25,
          "velocity": 100
        },
        {
          "pitch": 75,
          "onset": 80.0,
          "duration": 0.75,
          "velocity": 100
        },
        {
          "pitch": 53,
          "onset": 80.375,
          "duration": 0.125,
          "velocity": 100
        },
        {
          "pitch": 67,
          "onset": 80.375,
          "duration": 0.125,
          "velocity": 100
        },
        {
          "pitch": 51,
          "onset": 80.5,
          "duration": 0.375,
          "velocity": 100
        },
        {
          "pitch": 72,
          "onset": 80.5,
          "duration": 0.875,
          "velocity": 100
        },
        {
          "pitch": 74,
          "onset": 80.75,
          "duration": 0.25,
          "velocity": 100
        },
        {
          "pitch": 55,
          "onset": 80.875,
          "duration": 0.125,
          "velocity": 100
        },
        {
          "pitch": 48,
          "onset": 81.0,
          "duration": 0.375,
          "velocity": 100
        },
        {
          "pitch": 75,
          "onset": 81.0,
          "duration": 0.375,
          "velocity": 100
        },
        {
          "pitch": 51,
          "onset": 81.375,
          "duration": 0.125,
          "velocity": 100
        },
        {
          "pitch": 72,
          "onset": 81.375,
          "duration": 0.5,
          "velocity": 100
        },
        {
          "pitch": 50,
          "onset": 81.4375,
          "duration": 0.125,
          "velocity": 100
        },
        {
          "pitch": 51,
          "onset": 81.5,
          "duration": 0.5,
          "velocity": 100
        },
        {
          "pitch": 79,
          "onset": 81.5,
          "duration": 0.375,
          "velocity": 100
        },
        {
          "pitch": 78,
          "onset": 81.875,
          "duration": 0.125,
          "velocity": 100
        },
        {
          "pitch": 50,
          "onset": 82.0,
          "duration": 3.0,
          "velocity": 100
        },
        {
          "pitch": 79,
          "onset": 82.0,
          "duration": 2.0,
          "velocity": 100
        },
        {
          "pitch": 72,
          "onset": 82.375,
          "duration": 0.125,
          "velocity": 100
        },
        {
          "pitch": 74,
          "onset": 82.5,
          "duration": 2.5,
          "velocity": 100
        },
        {
          "pitch": 69,
          "onset": 82.875,
          "duration": 0.25,
          "velocity": 100
        },
        {
          "pitch": 71,
          "onset": 83.125,
          "duration": 1.875,
          "velocity": 100
        },
        {
          "pitch": 67,
          "onset": 86.25,
          "duration": 0.25,
          "velocity": 1
        }
      ]
    }
  ]
}