{
  "bwv": 876,
  "category": "wtc2",
  "instrument": "keyboard",
  "form": "fugue",
  "movement": null,
  "tonic": "Eb",
  "mode": "major",
  "confidence": "verified",
  "ticks_per_beat": 384,
  "duration_seconds": 83.6,
  "tempos": [
    {
      "tick": 0,
      "bpm": 215
    },
    {
      "tick": 99072,
      "bpm": 210
    },
    {
      "tick": 100608,
      "bpm": 210
    },
    {
      "tick": 101376,
      "bpm": 205
    },
    {
      "tick": 102144,
      "bpm": 200
    },
    {
      "tick": 102528,
      "bpm": 190
    },
    {
      "tick": 103296,
      "bpm": 185
    },
    {
      "tick": 103680,
      "bpm": 170
    },
    {
      "tick": 104064,
      "bpm": 160
    },
    {
      "tick": 104448,
      "bpm": 150
    },
    {
      "tick": 105216,
      "bpm": 140
    },
    {
      "tick": 105600,
      "bpm": 110
    }
  ],
  "time_signatures": [
    {
      "tick": 0,
      "numerator": 2,
      "denominator": 2
    }
  ],
  "track_type": "manual",
  "voice_count": 1,
  "total_notes": 698,
  "tracks": [
    {
      "role": "manual",
      "notes": [
        {
          "pitch": 51,
          "onset": 0.0,
          "duration": 3.9688,
          "velocity": 100
        },
        {
          "pitch": 58,
          "onset": 4.0,
          "duration": 1.9688,
          "velocity": 100
        },
        {
          "pitch": 56,
          "onset": 7.0,
          "duration": 0.9688,
          "velocity": 100
        },
        {
          "pitch": 55,
          "onset": 8.0,
          "duration": 0.9688,
          "velocity": 100
        },
        {
          "pitch": 60,
          "onset": 9.0,
          "duration": 1.9688,
          "velocity": 100
        },
        {
          "pitch": 58,
          "onset": 11.0,
          "duration": 0.9688,
          "velocity": 100
        },
        {
          "pitch": 56,
          "onset": 12.0,
          "duration": 0.9688,
          "velocity": 100
        },
        {
          "pitch": 56,
          "onset": 13.0,
          "duration": 0.4688,
          "velocity": 100
        },
        {
          "pitch": 55,
          "onset": 13.5,
          "duration": 0.4688,
          "velocity": 100
        },
        {
          "pitch": 56,
          "onset": 14.0,
          "duration": 0.9688,
          "velocity": 100
        },
        {
          "pitch": 60,
          "onset": 15.0,
          "duration": 0.9688,
          "velocity": 100
        },
        {
          "pitch": 53,
          "onset": 16.0,
          "duration": 0.9688,
          "velocity": 100
        },
        {
          "pitch": 58,
          "onset": 17.0,
          "duration": 1.9688,
          "velocity": 100
        },
        {
          "pitch": 56,
          "onset": 19.0,
          "duration": 0.9688,
          "velocity": 100
        },
        {
          "pitch": 55,
          "onset": 20.0,
          "duration": 0.9688,
          "velocity": 100
        },
        {
          "pitch": 55,
          "onset": 21.0,
          "duration": 0.4688,
          "velocity": 100
        },
        {
          "pitch": 53,
          "onset": 21.5,
          "duration": 0.4688,
          "velocity": 100
        },
        {
          "pitch": 55,
          "onset": 22.0,
          "duration": 0.9688,
          "velocity": 100
        },
        {
          "pitch": 58,
          "onset": 23.0,
          "duration": 0.9688,
          "velocity": 100
        },
        {
          "pitch": 51,
          "onset": 24.0,
          "duration": 0.9688,
          "velocity": 100
        },
        {
          "pitch": 58,
          "onset": 24.0,
          "duration": 3.9688,
          "velocity": 100
        },
        {
          "pitch": 51,
          "onset": 25.0,
          "duration": 0.4688,
          "velocity": 100
        },
        {
          "pitch": 50,
          "onset": 25.5,
          "duration": 0.4688,
          "velocity": 100
        },
        {
          "pitch": 51,
          "onset": 26.0,
          "duration": 0.9688,
          "velocity": 100
        },
        {
          "pitch": 55,
          "onset": 27.0,
          "duration": 0.9688,
          "velocity": 100
        },
        {
          "pitch": 48,
          "onset": 28.0,
          "duration": 0.9688,
          "velocity": 100
        },
        {
          "pitch": 63,
          "onset": 28.0,
          "duration": 1.9688,
          "velocity": 100
        },
        {
          "pitch": 50,
          "onset": 29.0,
          "duration": 0.4688,
          "velocity": 100
        },
        {
          "pitch": 51,
          "onset": 29.5,
          "duration": 0.4688,
          "velocity": 100
        },
        {
          "pitch": 53,
          "onset": 30.0,
          "duration": 1.9688,
          "velocity": 100
        },
        {
          "pitch": 63,
          "onset": 31.0,
          "duration": 0.9688,
          "velocity": 100
        },
        {
          "pitch": 46,
          "onset": 32.0,
          "duration": 1.9688,
          "velocity": 100
        },
        {
          "pitch": 62,
          "onset": 32.0,
          "duration": 0.9688,
          "velocity": 100
        },
        {
          "pitch": 67,
          "onset": 33.0,
          "duration": 1.9688,
          "velocity": 100
        },
        {
          "pitch": 58,
          "onset": 34.0,
          "duration": 3.9688,
          "velocity": 100
        },
        {
          "pitch": 65,
          "onset": 35.0,
          "duration": 0.9688,
          "velocity": 100
        },
        {
          "pitch": 63,
          "onset": 36.0,
          "duration": 0.9688,
          "velocity": 100
        },
        {
          "pitch": 63,
          "onset": 37.0,
          "duration": 0.4688,
          "velocity": 100
        },
        {
          "pitch": 62,
          "onset": 37.5,
          "duration": 0.4688,
          "velocity": 100
        },
        {
          "pitch": 57,
          "onset": 38.0,
          "duration": 0.9688,
          "velocity": 100
        },
        {
          "pitch": 63,
          "onset": 38.0,
          "duration": 0.9688,
          "velocity": 100
        },
        {
          "pitch": 55,
          "onset": 39.0,
          "duration": 0.9688,
          "velocity": 100
        },
        {
          "pitch": 67,
          "onset": 39.0,
          "duration": 0.9688,
          "velocity": 100
        },
        {
          "pitch": 57,
          "onset": 40.0,
          "duration": 1.4688,
          "velocity": 100
        },
        {
          "pitch": 60,
          "onset": 40.0,
          "duration": 0.9688,
          "velocity": 100
        },
        {
          "pitch": 65,
          "onset": 41.0,
          "duration": 1.9688,
          "velocity": 100
        },
        {
          "pitch": 58,
          "onset": 41.5,
          "duration": 0.4688,
          "velocity": 100
        },
        {
          "pitch": 57,
          "onset": 41.75,
          "duration": 0.4688,
          "velocity": 100
        },
        {
          "pitch": 55,
          "onset": 42.0,
          "duration": 0.9688,
          "velocity": 100
        },
        {
          "pitch": 57,
          "onset": 43.0,
          "duration": 0.9688,
          "velocity": 100
        },
        {
          "pitch": 63,
          "onset": 43.0,
          "duration": 0.9688,
          "velocity": 100
        },
        {
          "pitch": 58,
          "onset": 44.0,
          "duration": 0.9688,
          "velocity": 100
        },
        {
          "pitch": 62,
          "onset": 44.0,
          "duration": 0.9688,
          "velocity": 100
        },
        {
          "pitch": 46,
          "onset": 45.0,
          "duration": 0.9688,
          "velocity": 100
        },
        {
          "pitch": 62,
          "onset": 45.0,
          "duration": 0.4688,
          "velocity": 100
        },
        {
          "pitch": 60,
          "onset": 45.5,
          "duration": 0.4688,
          "velocity": 100
        },
        {
          "pitch": 58,
          "onset": 46.0,
          "duration": 0.9688,
          "velocity": 100
        },
        {
          "pitch": 62,
          "onset": 46.0,
          "duration": 0.9688,
          "velocity": 100
        },
        {
          "pitch": 56,
          "onset": 47.0,
          "duration": 0.9688,
          "velocity": 100
        },
        {
          "pitch": 65,
          "onset": 47.0,
          "duration": 0.9688,
          "velocity": 100
        },
        {
          "pitch": 55,
          "onset": 48.0,
          "duration": 0.9688,
          "velocity": 100
        },
        {
          "pitch": 58,
          "onset": 48.0,
          "duration": 0.9688,
          "velocity": 100
        },
        {
          "pitch": 43,
          "onset": 49.0,
          "duration": 0.9688,
          "velocity": 100
        },
        {
          "pitch": 58,
          "onset": 49.0,
          "duration": 0.4688,
          "velocity": 100
        },
        {
          "pitch": 56,
          "onset": 49.5,
          "duration": 0.4688,
          "velocity": 100
        },
        {
          "pitch": 55,
          "onset": 50.0,
          "duration": 0.9688,
          "velocity": 100
        },
        {
          "pitch": 58,
          "onset": 50.0,
          "duration": 0.9688,
          "velocity": 100
        },
        {
          "pitch": 53,
          "onset": 51.0,
          "duration": 0.9688,
          "velocity": 100
        },
        {
          "pitch": 62,
          "onset": 51.0,
          "duration": 0.9688,
          "velocity": 100
        },
        {
          "pitch": 51,
          "onset": 52.0,
          "duration": 0.9688,
          "velocity": 100
        },
        {
          "pitch": 55,
          "onset": 52.0,
          "duration": 0.9688,
          "velocity": 100
        },
        {
          "pitch": 63,
          "onset": 52.0,
          "duration": 3.9688,
          "velocity": 100
        },
        {
          "pitch": 53,
          "onset": 53.0,
          "duration": 0.4688,
          "velocity": 100
        },
        {
          "pitch": 56,
          "onset": 53.0,
          "duration": 0.4688,
          "velocity": 100
        },
        {
          "pitch": 55,
          "onset": 53.5,
          "duration": 0.4688,
          "velocity": 100
        },
        {
          "pitch": 58,
          "onset": 53.5,
          "duration": 0.4688,
          "velocity": 100
        },
        {
          "pitch": 56,
          "onset": 54.0,
          "duration": 2.9688,
          "velocity": 100
        },
        {
          "pitch": 60,
          "onset": 54.0,
          "duration": 0.9688,
          "velocity": 100
        },
        {
          "pitch": 58,
          "onset": 55.0,
          "duration": 0.4688,
          "velocity": 100
        },
        {
          "pitch": 60,
          "onset": 55.5,
          "duration": 0.4688,
          "velocity": 100
        },
        {
          "pitch": 62,
          "onset": 56.0,
          "duration": 0.9688,
          "velocity": 100
        },
        {
          "pitch": 70,
          "onset": 56.0,
          "duration": 1.9688,
          "velocity": 100
        },
        {
          "pitch": 55,
          "onset": 57.0,
          "duration": 0.4688,
          "velocity": 100
        },
        {
          "pitch": 65,
          "onset": 57.0,
          "duration": 0.9688,
          "velocity": 100
        },
        {
          "pitch": 53,
          "onset": 57.5,
          "duration": 0.4688,
          "velocity": 100
        },
        {
          "pitch": 55,
          "onset": 58.0,
          "duration": 0.9688,
          "velocity": 100
        },
        {
          "pitch": 58,
          "onset": 58.0,
          "duration": 0.9688,
          "velocity": 100
        },
        {
          "pitch": 58,
          "onset": 59.0,
          "duration": 0.9688,
          "velocity": 100
        },
        {
          "pitch": 62,
          "onset": 59.0,
          "duration": 0.9688,
          "velocity": 100
        },
        {
          "pitch": 68,
          "onset": 59.0,
          "duration": 0.9688,
          "velocity": 100
        },
        {
          "pitch": 51,
          "onset": 60.0,
          "duration": 0.9688,
          "velocity": 100
        },
        {
          "pitch": 63,
          "onset": 60.0,
          "duration": 5.9688,
          "velocity": 100
        },
        {
          "pitch": 67,
          "onset": 60.0,
          "duration": 0.9688,
          "velocity": 100
        },
        {
          "pitch": 56,
          "onset": 61.0,
          "duration": 0.4688,
          "velocity": 100
        },
        {
          "pitch": 72,
          "onset": 61.0,
          "duration": 1.9688,
          "velocity": 100
        },
        {
          "pitch": 55,
          "onset": 61.5,
          "duration": 0.4688,
          "velocity": 100
        },
        {
          "pitch": 56,
          "onset": 62.0,
          "duration": 0.9688,
          "velocity": 100
        },
        {
          "pitch": 60,
          "onset": 63.0,
          "duration": 0.9688,
          "velocity": 100
        },
        {
          "pitch": 70,
          "onset": 63.0,
          "duration": 0.9688,
          "velocity": 100
        },
        {
          "pitch": 53,
          "onset": 64.0,
          "duration": 2.9688,
          "velocity": 100
        },
        {
          "pitch": 68,
          "onset": 64.0,
          "duration": 0.9688,
          "velocity": 100
        },
        {
          "pitch": 68,
          "onset": 65.0,
          "duration": 0.4688,
          "velocity": 100
        },
        {
          "pitch": 67,
          "onset": 65.5,
          "duration": 0.4688,
          "velocity": 100
        },
        {
          "pitch": 62,
          "onset": 66.0,
          "duration": 0.9688,
          "velocity": 100
        },
        {
          "pitch": 68,
          "onset": 66.0,
          "duration": 0.9688,
          "velocity": 100
        },
        {
          "pitch": 55,
          "onset": 67.0,
          "duration": 0.4688,
          "velocity": 100
        },
        {
          "pitch": 60,
          "onset": 67.0,
          "duration": 0.9688,
          "velocity": 100
        },
        {
          "pitch": 72,
          "onset": 67.0,
          "duration": 0.9688,
          "velocity": 100
        },
        {
          "pitch": 56,
          "onset": 67.5,
          "duration": 0.4688,
          "velocity": 100
        },
        {
          "pitch": 58,
          "onset": 68.0,
          "duration": 3.9688,
          "velocity": 100
        },
        {
          "pitch": 62,
          "onset": 68.0,
          "duration": 1.4688,
          "velocity": 100
        },
        {
          "pitch": 65,
          "onset": 68.0,
          "duration": 0.9688,
          "velocity": 100
        },
        {
          "pitch": 70,
          "onset": 69.0,
          "duration": 1.9688,
          "velocity": 100
        },
        {
          "pitch": 60,
          "onset": 70.0,
          "duration": 0.9688,
          "velocity": 100
        },
        {
          "pitch": 62,
          "onset": 71.0,
          "duration": 0.9688,
          "velocity": 100
        },
        {
          "pitch": 68,
          "onset": 71.0,
          "duration": 0.9688,
          "velocity": 100
        },
        {
          "pitch": 51,
          "onset": 72.0,
          "duration": 2.9688,
          "velocity": 100
        },
        {
          "pitch": 63,
          "onset": 72.0,
          "duration": 0.9688,
          "velocity": 100
        },
        {
          "pitch": 67,
          "onset": 72.0,
          "duration": 0.9688,
          "velocity": 100
        },
        {
          "pitch": 58,
          "onset": 73.0,
          "duration": 0.4688,
          "velocity": 100
        },
        {
          "pitch": 67,
          "onset": 73.0,
          "duration": 0.4688,
          "velocity": 100
        },
        {
          "pitch": 56,
          "onset": 73.5,
          "duration": 0.4688,
          "velocity": 100
        },
        {
          "pitch": 65,
          "onset": 73.5,
          "duration": 0.4688,
          "velocity": 100
        },
        {
          "pitch": 58,
          "onset": 74.0,
          "duration": 2.9688,
          "velocity": 100
        },
        {
          "pitch": 67,
          "onset": 74.0,
          "duration": 0.9688,
          "velocity": 100
        },
        {
          "pitch": 50,
          "onset": 75.0,
          "duration": 0.9688,
          "velocity": 100
        },
        {
          "pitch": 70,
          "onset": 75.0,
          "duration": 0.9688,
          "velocity": 100
        },
        {
          "pitch": 48,
          "onset": 76.0,
          "duration": 1.9688,
          "velocity": 100
        },
        {
          "pitch": 63,
          "onset": 76.0,
          "duration": 0.9688,
          "velocity": 100
        },
        {
          "pitch": 56,
          "onset": 77.0,
          "duration": 0.4688,
          "velocity": 100
        },
        {
          "pitch": 65,
          "onset": 77.0,
          "duration": 0.4688,
          "velocity": 100
        },
        {
          "pitch": 55,
          "onset": 77.5,
          "duration": 0.4688,
          "velocity": 100
        },
        {
          "pitch": 63,
          "onset": 77.5,
          "duration": 0.4688,
          "velocity": 100
        },
        {
          "pitch": 56,
          "onset": 78.0,
          "duration": 2.9688,
          "velocity": 100
        },
        {
          "pitch": 65,
          "onset": 78.0,
          "duration": 0.9688,
          "velocity": 100
        },
        {
          "pitch": 53,
          "onset": 79.0,
          "duration": 0.9688,
          "velocity": 100
        },
        {
          "pitch": 68,
          "onset": 79.0,
          "duration": 0.9688,
          "velocity": 100
        },
        {
          "pitch": 46,
          "onset": 80.0,
          "duration": 5.9688,
          "velocity": 100
        },
        {
          "pitch": 62,
          "onset": 80.0,
          "duration": 0.9688,
          "velocity": 100
        },
        {
          "pitch": 70,
          "onset": 80.0,
          "duration": 3.9688,
          "velocity": 100
        },
        {
          "pitch": 55,
          "onset": 81.0,
          "duration": 0.9688,
          "velocity": 100
        },
        {
          "pitch": 63,
          "onset": 81.0,
          "duration": 1.9688,
          "velocity": 100
        },
        {
          "pitch": 53,
          "onset": 82.0,
          "duration": 0.9688,
          "velocity": 100
        },
        {
          "pitch": 58,
          "onset": 83.0,
          "duration": 0.9688,
          "velocity": 100
        },
        {
          "pitch": 62,
          "onset": 83.0,
          "duration": 0.9688,
          "velocity": 100
        },
        {
          "pitch": 55,
          "onset": 84.0,
          "duration": 1.9688,
          "velocity": 100
        },
        {
          "pitch": 60,
          "onset": 84.0,
          "duration": 0.9688,
          "velocity": 100
        },
        {
          "pitch": 75,
          "onset": 84.0,
          "duration": 1.9688,
          "velocity": 100
        },
        {
          "pitch": 67,
          "onset": 85.0,
          "duration": 0.9688,
          "velocity": 100
        },
        {
          "pitch": 44,
          "onset": 86.0,
          "duration": 1.9688,
          "velocity": 100
        },
        {
          "pitch": 53,
          "onset": 86.0,
          "duration": 2.9688,
          "velocity": 100
        },
        {
          "pitch": 72,
          "onset": 86.0,
          "duration": 2.9688,
          "velocity": 100
        },
        {
          "pitch": 75,
          "onset": 87.0,
          "duration": 0.9688,
          "velocity": 100
        },
        {
          "pitch": 46,
          "onset": 88.0,
          "duration": 1.9688,
          "velocity": 100
        },
        {
          "pitch": 74,
          "onset": 88.0,
          "duration": 0.9688,
          "velocity": 100
        },
        {
          "pitch": 50,
          "onset": 89.0,
          "duration": 0.9688,
          "velocity": 100
        },
        {
          "pitch": 70,
          "onset": 89.0,
          "duration": 0.4688,
          "velocity": 100
        },
        {
          "pitch": 79,
          "onset": 89.0,
          "duration": 1.9688,
          "velocity": 100
        },
        {
          "pitch": 69,
          "onset": 89.5,
          "duration": 0.4688,
          "velocity": 100
        },
        {
          "pitch": 55,
          "onset": 90.0,
          "duration": 2.9688,
          "velocity": 100
        },
        {
          "pitch": 70,
          "onset": 90.0,
          "duration": 3.9688,
          "velocity": 100
        },
        {
          "pitch": 43,
          "onset": 91.0,
          "duration": 0.9688,
          "velocity": 100
        },
        {
          "pitch": 77,
          "onset": 91.0,
          "duration": 0.9688,
          "velocity": 100
        },
        {
          "pitch": 48,
          "onset": 92.0,
          "duration": 1.9688,
          "velocity": 100
        },
        {
          "pitch": 75,
          "onset": 92.0,
          "duration": 0.9688,
          "velocity": 100
        },
        {
          "pitch": 60,
          "onset": 93.0,
          "duration": 0.4688,
          "velocity": 100
        },
        {
          "pitch": 75,
          "onset": 93.0,
          "duration": 0.4688,
          "velocity": 100
        },
        {
          "pitch": 58,
          "onset": 93.5,
          "duration": 0.4688,
          "velocity": 100
        },
        {
          "pitch": 74,
          "onset": 93.5,
          "duration": 0.4688,
          "velocity": 100
        },
        {
          "pitch": 60,
          "onset": 94.0,
          "duration": 3.4688,
          "velocity": 100
        },
        {
          "pitch": 69,
          "onset": 94.0,
          "duration": 0.9688,
          "velocity": 100
        },
        {
          "pitch": 75,
          "onset": 94.0,
          "duration": 0.9688,
          "velocity": 100
        },
        {
          "pitch": 51,
          "onset": 95.0,
          "duration": 0.9688,
          "velocity": 100
        },
        {
          "pitch": 67,
          "onset": 95.0,
          "duration": 0.9688,
          "velocity": 100
        },
        {
          "pitch": 79,
          "onset": 95.0,
          "duration": 0.9688,
          "velocity": 100
        },
        {
          "pitch": 69,
          "onset": 96.0,
          "duration": 1.4688,
          "velocity": 100
        },
        {
          "pitch": 72,
          "onset": 96.0,
          "duration": 0.9688,
          "velocity": 100
        },
        {
          "pitch": 77,
          "onset": 97.0,
          "duration": 1.9688,
          "velocity": 100
        },
        {
          "pitch": 62,
          "onset": 97.5,
          "duration": 0.4688,
          "velocity": 100
        },
        {
          "pitch": 70,
          "onset": 97.5,
          "duration": 0.4688,
          "velocity": 100
        },
        {
          "pitch": 60,
          "onset": 97.75,
          "duration": 0.4688,
          "velocity": 100
        },
        {
          "pitch": 69,
          "onset": 97.75,
          "duration": 0.4688,
          "velocity": 100
        },
        {
          "pitch": 58,
          "onset": 98.0,
          "duration": 0.9688,
          "velocity": 100
        },
        {
          "pitch": 67,
          "onset": 98.0,
          "duration": 0.9688,
          "velocity": 100
        },
        {
          "pitch": 53,
          "onset": 99.0,
          "duration": 0.9688,
          "velocity": 100
        },
        {
          "pitch": 60,
          "onset": 99.0,
          "duration": 0.9688,
          "velocity": 100
        },
        {
          "pitch": 69,
          "onset": 99.0,
          "duration": 0.9688,
          "velocity": 100
        },
        {
          "pitch": 75,
          "onset": 99.0,
          "duration": 0.9688,
          "velocity": 100
        },
        {
          "pitch": 58,
          "onset": 100.0,
          "duration": 0.9688,
          "velocity": 100
        },
        {
          "pitch": 62,
          "onset": 100.0,
          "duration": 1.9688,
          "velocity": 100
        },
        {
          "pitch": 70,
          "onset": 100.0,
          "duration": 1.9688,
          "velocity": 100
        },
        {
          "pitch": 74,
          "onset": 100.0,
          "duration": 0.9688,
          "velocity": 100
        },
        {
          "pitch": 53,
          "onset": 101.0,
          "duration": 0.9688,
          "velocity": 100
        },
        {
          "pitch": 74,
          "onset": 101.0,
          "duration": 0.4688,
          "velocity": 100
        },
        {
          "pitch": 72,
          "onset": 101.5,
          "duration": 0.4688,
          "velocity": 100
        },
        {
          "pitch": 58,
          "onset": 102.0,
          "duration": 0.9688,
          "velocity": 100
        },
        {
          "pitch": 74,
          "onset": 102.0,
          "duration": 0.9688,
          "velocity": 100
        },
        {
          "pitch": 57,
          "onset": 103.0,
          "duration": 0.9688,
          "velocity": 100
        },
        {
          "pitch": 60,
          "onset": 103.0,
          "duration": 0.9688,
          "velocity": 100
        },
        {
          "pitch": 65,
          "onset": 103.0,
          "duration": 0.9688,
          "velocity": 100
        },
        {
          "pitch": 77,
          "onset": 103.0,
          "duration": 0.9688,
          "velocity": 100
        },
        {
          "pitch": 55,
          "onset": 104.0,
          "duration": 0.9688,
          "velocity": 100
        },
        {
          "pitch": 62,
          "onset": 104.0,
          "duration": 1.9688,
          "velocity": 100
        },
        {
          "pitch": 67,
          "onset": 104.0,
          "duration": 1.9688,
          "velocity": 100
        },
        {
          "pitch": 70,
          "onset": 104.0,
          "duration": 0.9688,
          "velocity": 100
        },
        {
          "pitch": 50,
          "onset": 105.0,
          "duration": 0.9688,
          "velocity": 100
        },
        {
          "pitch": 70,
          "onset": 105.0,
          "duration": 0.4688,
          "velocity": 100
        },
        {
          "pitch": 69,
          "onset": 105.5,
          "duration": 0.4688,
          "velocity": 100
        },
        {
          "pitch": 55,
          "onset": 106.0,
          "duration": 0.9688,
          "velocity": 100
        },
        {
          "pitch": 70,
          "onset": 106.0,
          "duration": 0.9688,
          "velocity": 100
        },
        {
          "pitch": 53,
          "onset": 107.0,
          "duration": 0.9688,
          "velocity": 100
        },
        {
          "pitch": 56,
          "onset": 107.0,
          "duration": 0.9688,
          "velocity": 100
        },
        {
          "pitch": 62,
          "onset": 107.0,
          "duration": 0.9688,
          "velocity": 100
        },
        {
          "pitch": 74,
          "onset": 107.0,
          "duration": 0.9688,
          "velocity": 100
        },
        {
          "pitch": 51,
          "onset": 108.0,
          "duration": 2.9688,
          "velocity": 100
        },
        {
          "pitch": 58,
          "onset": 108.0,
          "duration": 0.9688,
          "velocity": 100
        },
        {
          "pitch": 63,
          "onset": 108.0,
          "duration": 0.9688,
          "velocity": 100
        },
        {
          "pitch": 67,
          "onset": 108.0,
          "duration": 0.9688,
          "velocity": 100
        },
        {
          "pitch": 60,
          "onset": 109.0,
          "duration": 0.9688,
          "velocity": 100
        },
        {
          "pitch": 65,
          "onset": 109.0,
          "duration": 0.9688,
          "velocity": 100
        },
        {
          "pitch": 69,
          "onset": 109.0,
          "duration": 0.9688,
          "velocity": 100
        },
        {
          "pitch": 61,
          "onset": 110.0,
          "duration": 1.9688,
          "velocity": 100
        },
        {
          "pitch": 67,
          "onset": 110.0,
          "duration": 1.9688,
          "velocity": 100
        },
        {
          "pitch": 70,
          "onset": 110.0,
          "duration": 3.9688,
          "velocity": 100
        },
        {
          "pitch": 52,
          "onset": 111.0,
          "duration": 0.9688,
          "velocity": 100
        },
        {
          "pitch": 53,
          "onset": 112.0,
          "duration": 3.9688,
          "velocity": 100
        },
        {
          "pitch": 60,
          "onset": 112.0,
          "duration": 0.9688,
          "velocity": 100
        },
        {
          "pitch": 65,
          "onset": 112.0,
          "duration": 2.9688,
          "velocity": 100
        },
        {
          "pitch": 58,
          "onset": 113.0,
          "duration": 0.9688,
          "velocity": 100
        },
        {
          "pitch": 60,
          "onset": 114.0,
          "duration": 1.9688,
          "velocity": 100
        },
        {
          "pitch": 69,
          "onset": 114.0,
          "duration": 1.9688,
          "velocity": 100
        },
        {
          "pitch": 63,
          "onset": 115.0,
          "duration": 0.9688,
          "velocity": 100
        },
        {
          "pitch": 46,
          "onset": 116.0,
          "duration": 1.9688,
          "velocity": 100
        },
        {
          "pitch": 58,
          "onset": 116.0,
          "duration": 1.9688,
          "velocity": 100
        },
        {
          "pitch": 62,
          "onset": 116.0,
          "duration": 0.9688,
          "velocity": 100
        },
        {
          "pitch": 70,
          "onset": 116.0,
          "duration": 0.9688,
          "velocity": 100
        },
        {
          "pitch": 65,
          "onset": 117.0,
          "duration": 0.4688,
          "velocity": 100
        },
        {
          "pitch": 74,
          "onset": 117.0,
          "duration": 0.4688,
          "velocity": 100
        },
        {
          "pitch": 67,
          "onset": 117.5,
          "duration": 0.4688,
          "velocity": 100
        },
        {
          "pitch": 75,
          "onset": 117.5,
          "duration": 0.4688,
          "velocity": 100
        },
        {
          "pitch": 58,
          "onset": 118.0,
          "duration": 1.9688,
          "velocity": 100
        },
        {
          "pitch": 68,
          "onset": 118.0,
          "duration": 2.9688,
          "velocity": 100
        },
        {
          "pitch": 77,
          "onset": 118.0,
          "duration": 0.9688,
          "velocity": 100
        },
        {
          "pitch": 74,
          "onset": 119.0,
          "duration": 0.9688,
          "velocity": 100
        },
        {
          "pitch": 63,
          "onset": 120.0,
          "duration": 1.9688,
          "velocity": 100
        },
        {
          "pitch": 70,
          "onset": 120.0,
          "duration": 0.9688,
          "velocity": 100
        },
        {
          "pitch": 67,
          "onset": 121.0,
          "duration": 0.4688,
          "velocity": 100
        },
        {
          "pitch": 75,
          "onset": 121.0,
          "duration": 0.4688,
          "velocity": 100
        },
        {
          "pitch": 68,
          "onset": 121.5,
          "duration": 0.4688,
          "velocity": 100
        },
        {
          "pitch": 77,
          "onset": 121.5,
          "duration": 0.4688,
          "velocity": 100
        },
        {
          "pitch": 51,
          "onset": 122.0,
          "duration": 1.9688,
          "velocity": 100
        },
        {
          "pitch": 70,
          "onset": 122.0,
          "duration": 0.9688,
          "velocity": 100
        },
        {
          "pitch": 79,
          "onset": 122.0,
          "duration": 0.9688,
          "velocity": 100
        },
        {
          "pitch": 63,
          "onset": 123.0,
          "duration": 0.9688,
          "velocity": 100
        },
        {
          "pitch": 67,
          "onset": 123.0,
          "duration": 0.9688,
          "velocity": 100
        },
        {
          "pitch": 75,
          "onset": 123.0,
          "duration": 0.9688,
          "velocity": 100
        },
        {
          "pitch": 58,
          "onset": 124.0,
          "duration": 1.9688,
          "velocity": 100
        },
        {
          "pitch": 62,
          "onset": 124.0,
          "duration": 0.9688,
          "velocity": 100
        },
        {
          "pitch": 65,
          "onset": 124.0,
          "duration": 0.9688,
          "velocity": 100
        },
        {
          "pitch": 77,
          "onset": 124.0,
          "duration": 0.9688,
          "velocity": 100
        },
        {
          "pitch": 67,
          "onset": 125.0,
          "duration": 1.9688,
          "velocity": 100
        },
        {
          "pitch": 70,
          "onset": 125.0,
          "duration": 0.9688,
          "velocity": 100
        },
        {
          "pitch": 75,
          "onset": 125.0,
          "duration": 0.4688,
          "velocity": 100
        },
        {
          "pitch": 74,
          "onset": 125.5,
          "duration": 0.4688,
          "velocity": 100
        },
        {
          "pitch": 68,
          "onset": 126.0,
          "duration": 0.9688,
          "velocity": 100
        },
        {
          "pitch": 72,
          "onset": 126.0,
          "duration": 0.9688,
          "velocity": 100
        },
        {
          "pitch": 56,
          "onset": 127.0,
          "duration": 0.9688,
          "velocity": 100
        },
        {
          "pitch": 65,
          "onset": 127.0,
          "duration": 0.9688,
          "velocity": 100
        },
        {
          "pitch": 70,
          "onset": 127.0,
          "duration": 0.9688,
          "velocity": 100
        },
        {
          "pitch": 74,
          "onset": 127.0,
          "duration": 0.9688,
          "velocity": 100
        },
        {
          "pitch": 55,
          "onset": 128.0,
          "duration": 0.9688,
          "velocity": 100
        },
        {
          "pitch": 58,
          "onset": 128.0,
          "duration": 0.9688,
          "velocity": 100
        },
        {
          "pitch": 63,
          "onset": 128.0,
          "duration": 0.9688,
          "velocity": 100
        },
        {
          "pitch": 75,
          "onset": 128.0,
          "duration": 0.9688,
          "velocity": 100
        },
        {
          "pitch": 60,
          "onset": 129.0,
          "duration": 1.9688,
          "velocity": 100
        },
        {
          "pitch": 63,
          "onset": 129.0,
          "duration": 0.4688,
          "velocity": 100
        },
        {
          "pitch": 62,
          "onset": 129.5,
          "duration": 0.4688,
          "velocity": 100
        },
        {
          "pitch": 63,
          "onset": 130.0,
          "duration": 0.9688,
          "velocity": 100
        },
        {
          "pitch": 58,
          "onset": 131.0,
          "duration": 0.9688,
          "velocity": 100
        },
        {
          "pitch": 67,
          "onset": 131.0,
          "duration": 0.9688,
          "velocity": 100
        },
        {
          "pitch": 56,
          "onset": 132.0,
          "duration": 0.9688,
          "velocity": 100
        },
        {
          "pitch": 60,
          "onset": 132.0,
          "duration": 0.9688,
          "velocity": 100
        },
        {
          "pitch": 56,
          "onset": 133.0,
          "duration": 0.4688,
          "velocity": 100
        },
        {
          "pitch": 65,
          "onset": 133.0,
          "duration": 1.9688,
          "velocity": 100
        },
        {
          "pitch": 55,
          "onset": 133.5,
          "duration": 0.4688,
          "velocity": 100
        },
        {
          "pitch": 56,
          "onset": 134.0,
          "duration": 0.9688,
          "velocity": 100
        },
        {
          "pitch": 60,
          "onset": 135.0,
          "duration": 0.9688,
          "velocity": 100
        },
        {
          "pitch": 63,
          "onset": 135.0,
          "duration": 0.9688,
          "velocity": 100
        },
        {
          "pitch": 53,
          "onset": 136.0,
          "duration": 0.9688,
          "velocity": 100
        },
        {
          "pitch": 62,
          "onset": 136.0,
          "duration": 0.9688,
          "velocity": 100
        },
        {
          "pitch": 58,
          "onset": 137.0,
          "duration": 1.9688,
          "velocity": 100
        },
        {
          "pitch": 62,
          "onset": 137.0,
          "duration": 0.4688,
          "velocity": 100
        },
        {
          "pitch": 60,
          "onset": 137.5,
          "duration": 0.4688,
          "velocity": 100
        },
        {
          "pitch": 62,
          "onset": 138.0,
          "duration": 0.9688,
          "velocity": 100
        },
        {
          "pitch": 56,
          "onset": 139.0,
          "duration": 0.9688,
          "velocity": 100
        },
        {
          "pitch": 65,
          "onset": 139.0,
          "duration": 0.9688,
          "velocity": 100
        },
        {
          "pitch": 55,
          "onset": 140.0,
          "duration": 0.9688,
          "velocity": 100
        },
        {
          "pitch": 58,
          "onset": 140.0,
          "duration": 0.9688,
          "velocity": 100
        },
        {
          "pitch": 55,
          "onset": 141.0,
          "duration": 0.4688,
          "velocity": 100
        },
        {
          "pitch": 58,
          "onset": 141.0,
          "duration": 0.4688,
          "velocity": 100
        },
        {
          "pitch": 53,
          "onset": 141.5,
          "duration": 0.4688,
          "velocity": 100
        },
        {
          "pitch": 56,
          "onset": 141.5,
          "duration": 0.4688,
          "velocity": 100
        },
        {
          "pitch": 55,
          "onset": 142.0,
          "duration": 0.9688,
          "velocity": 100
        },
        {
          "pitch": 58,
          "onset": 142.0,
          "duration": 0.9688,
          "velocity": 100
        },
        {
          "pitch": 58,
          "onset": 143.0,
          "duration": 0.9688,
          "velocity": 100
        },
        {
          "pitch": 62,
          "onset": 143.0,
          "duration": 0.9688,
          "velocity": 100
        },
        {
          "pitch": 51,
          "onset": 144.0,
          "duration": 0.9688,
          "velocity": 100
        },
        {
          "pitch": 55,
          "onset": 144.0,
          "duration": 1.9688,
          "velocity": 100
        },
        {
          "pitch": 70,
          "onset": 144.0,
          "duration": 3.9688,
          "velocity": 100
        },
        {
          "pitch": 51,
          "onset": 145.0,
          "duration": 0.4688,
          "velocity": 100
        },
        {
          "pitch": 50,
          "onset": 145.5,
          "duration": 0.4688,
          "velocity": 100
        },
        {
          "pitch": 51,
          "onset": 146.0,
          "duration": 0.9688,
          "velocity": 100
        },
        {
          "pitch": 67,
          "onset": 146.0,
          "duration": 2.9688,
          "velocity": 100
        },
        {
          "pitch": 55,
          "onset": 147.0,
          "duration": 0.9688,
          "velocity": 100
        },
        {
          "pitch": 48,
          "onset": 148.0,
          "duration": 1.9688,
          "velocity": 100
        },
        {
          "pitch": 75,
          "onset": 148.0,
          "duration": 2.9688,
          "velocity": 100
        },
        {
          "pitch": 67,
          "onset": 149.0,
          "duration": 0.4688,
          "velocity": 100
        },
        {
          "pitch": 65,
          "onset": 149.5,
          "duration": 0.4688,
          "velocity": 100
        },
        {
          "pitch": 60,
          "onset": 150.0,
          "duration": 1.9688,
          "velocity": 100
        },
        {
          "pitch": 67,
          "onset": 150.0,
          "duration": 0.9688,
          "velocity": 100
        },
        {
          "pitch": 69,
          "onset": 151.0,
          "duration": 0.9688,
          "velocity": 100
        },
        {
          "pitch": 75,
          "onset": 151.0,
          "duration": 0.9688,
          "velocity": 100
        },
        {
          "pitch": 58,
          "onset": 152.0,
          "duration": 0.9688,
          "velocity": 100
        },
        {
          "pitch": 70,
          "onset": 152.0,
          "duration": 0.9688,
          "velocity": 100
        },
        {
          "pitch": 74,
          "onset": 152.0,
          "duration": 0.9688,
          "velocity": 100
        },
        {
          "pitch": 82,
          "onset": 152.0,
          "duration": 1.9688,
          "velocity": 100
        },
        {
          "pitch": 58,
          "onset": 153.0,
          "duration": 0.4688,
          "velocity": 100
        },
        {
          "pitch": 62,
          "onset": 153.0,
          "duration": 0.4688,
          "velocity": 100
        },
        {
          "pitch": 79,
          "onset": 153.0,
          "duration": 1.9688,
          "velocity": 100
        },
        {
          "pitch": 56,
          "onset": 153.5,
          "duration": 0.4688,
          "velocity": 100
        },
        {
          "pitch": 60,
          "onset": 153.5,
          "duration": 0.4688,
          "velocity": 100
        },
        {
          "pitch": 58,
          "onset": 154.0,
          "duration": 0.9688,
          "velocity": 100
        },
        {
          "pitch": 62,
          "onset": 154.0,
          "duration": 0.9688,
          "velocity": 100
        },
        {
          "pitch": 62,
          "onset": 155.0,
          "duration": 0.9688,
          "velocity": 100
        },
        {
          "pitch": 65,
          "onset": 155.0,
          "duration": 0.9688,
          "velocity": 100
        },
        {
          "pitch": 77,
          "onset": 155.0,
          "duration": 0.9688,
          "velocity": 100
        },
        {
          "pitch": 80,
          "onset": 155.0,
          "duration": 0.9688,
          "velocity": 100
        },
        {
          "pitch": 63,
          "onset": 156.0,
          "duration": 1.9688,
          "velocity": 100
        },
        {
          "pitch": 67,
          "onset": 156.0,
          "duration": 0.9688,
          "velocity": 100
        },
        {
          "pitch": 75,
          "onset": 156.0,
          "duration": 0.9688,
          "velocity": 100
        },
        {
          "pitch": 79,
          "onset": 156.0,
          "duration": 0.9688,
          "velocity": 100
        },
        {
          "pitch": 67,
          "onset": 157.0,
          "duration": 0.4688,
          "velocity": 100
        },
        {
          "pitch": 75,
          "onset": 157.0,
          "duration": 0.4688,
          "velocity": 100
        },
        {
          "pitch": 84,
          "onset": 157.0,
          "duration": 1.9688,
          "velocity": 100
        },
        {
          "pitch": 65,
          "onset": 157.5,
          "duration": 0.4688,
          "velocity": 100
        },
        {
          "pitch": 74,
          "onset": 157.5,
          "duration": 0.4688,
          "velocity": 100
        },
        {
          "pitch": 67,
          "onset": 158.0,
          "duration": 2.9688,
          "velocity": 100
        },
        {
          "pitch": 75,
          "onset": 158.0,
          "duration": 0.9688,
          "velocity": 100
        },
        {
          "pitch": 64,
          "onset": 159.0,
          "duration": 0.9688,
          "velocity": 100
        },
        {
          "pitch": 79,
          "onset": 159.0,
          "duration": 0.9688,
          "velocity": 100
        },
        {
          "pitch": 82,
          "onset": 159.0,
          "duration": 0.9688,
          "velocity": 100
        },
        {
          "pitch": 65,
          "onset": 160.0,
          "duration": 0.9688,
          "velocity": 100
        },
        {
          "pitch": 72,
          "onset": 160.0,
          "duration": 0.9688,
          "velocity": 100
        },
        {
          "pitch": 80,
          "onset": 160.0,
          "duration": 0.9688,
          "velocity": 100
        },
        {
          "pitch": 53,
          "onset": 161.0,
          "duration": 0.4688,
          "velocity": 100
        },
        {
          "pitch": 60,
          "onset": 161.0,
          "duration": 0.9688,
          "velocity": 100
        },
        {
          "pitch": 77,
          "onset": 161.0,
          "duration": 1.9688,
          "velocity": 100
        },
        {
          "pitch": 80,
          "onset": 161.0,
          "duration": 0.4688,
          "velocity": 100
        },
        {
          "pitch": 52,
          "onset": 161.5,
          "duration": 0.4688,
          "velocity": 100
        },
        {
          "pitch": 79,
          "onset": 161.5,
          "duration": 0.4688,
          "velocity": 100
        },
        {
          "pitch": 53,
          "onset": 162.0,
          "duration": 0.9688,
          "velocity": 100
        },
        {
          "pitch": 65,
          "onset": 162.0,
          "duration": 2.9688,
          "velocity": 100
        },
        {
          "pitch": 80,
          "onset": 162.0,
          "duration": 0.9688,
          "velocity": 100
        },
        {
          "pitch": 57,
          "onset": 163.0,
          "duration": 0.9688,
          "velocity": 100
        },
        {
          "pitch": 75,
          "onset": 163.0,
          "duration": 0.9688,
          "velocity": 100
        },
        {
          "pitch": 84,
          "onset": 163.0,
          "duration": 0.9688,
          "velocity": 100
        },
        {
          "pitch": 58,
          "onset": 164.0,
          "duration": 1.9688,
          "velocity": 100
        },
        {
          "pitch": 74,
          "onset": 164.0,
          "duration": 0.9688,
          "velocity": 100
        },
        {
          "pitch": 77,
          "onset": 164.0,
          "duration": 0.9688,
          "velocity": 100
        },
        {
          "pitch": 65,
          "onset": 165.0,
          "duration": 0.4688,
          "velocity": 100
        },
        {
          "pitch": 74,
          "onset": 165.0,
          "duration": 0.4688,
          "velocity": 100
        },
        {
          "pitch": 82,
          "onset": 165.0,
          "duration": 1.9688,
          "velocity": 100
        },
        {
          "pitch": 63,
          "onset": 165.5,
          "duration": 0.4688,
          "velocity": 100
        },
        {
          "pitch": 72,
          "onset": 165.5,
          "duration": 0.4688,
          "velocity": 100
        },
        {
          "pitch": 65,
          "onset": 166.0,
          "duration": 2.9688,
          "velocity": 100
        },
        {
          "pitch": 74,
          "onset": 166.0,
          "duration": 0.9688,
          "velocity": 100
        },
        {
          "pitch": 62,
          "onset": 167.0,
          "duration": 0.9688,
          "velocity": 100
        },
        {
          "pitch": 77,
          "onset": 167.0,
          "duration": 0.9688,
          "velocity": 100
        },
        {
          "pitch": 80,
          "onset": 167.0,
          "duration": 0.9688,
          "velocity": 100
        },
        {
          "pitch": 63,
          "onset": 168.0,
          "duration": 0.9688,
          "velocity": 100
        },
        {
          "pitch": 70,
          "onset": 168.0,
          "duration": 0.9688,
          "velocity": 100
        },
        {
          "pitch": 79,
          "onset": 168.0,
          "duration": 0.9688,
          "velocity": 100
        },
        {
          "pitch": 51,
          "onset": 169.0,
          "duration": 0.9688,
          "velocity": 100
        },
        {
          "pitch": 58,
          "onset": 169.0,
          "duration": 0.9688,
          "velocity": 100
        },
        {
          "pitch": 70,
          "onset": 169.0,
          "duration": 0.4688,
          "velocity": 100
        },
        {
          "pitch": 79,
          "onset": 169.0,
          "duration": 0.4688,
          "velocity": 100
        },
        {
          "pitch": 68,
          "onset": 169.5,
          "duration": 0.4688,
          "velocity": 100
        },
        {
          "pitch": 77,
          "onset": 169.5,
          "duration": 0.4688,
          "velocity": 100
        },
        {
          "pitch": 63,
          "onset": 170.0,
          "duration": 0.9688,
          "velocity": 100
        },
        {
          "pitch": 70,
          "onset": 170.0,
          "duration": 0.9688,
          "velocity": 100
        },
        {
          "pitch": 79,
          "onset": 170.0,
          "duration": 0.9688,
          "velocity": 100
        },
        {
          "pitch": 62,
          "onset": 170.5,
          "duration": 0.4688,
          "velocity": 100
        },
        {
          "pitch": 60,
          "onset": 171.0,
          "duration": 0.4688,
          "velocity": 100
        },
        {
          "pitch": 74,
          "onset": 171.0,
          "duration": 0.9688,
          "velocity": 100
        },
        {
          "pitch": 82,
          "onset": 171.0,
          "duration": 0.9688,
          "velocity": 100
        },
        {
          "pitch": 58,
          "onset": 171.5,
          "duration": 0.4688,
          "velocity": 100
        },
        {
          "pitch": 60,
          "onset": 172.0,
          "duration": 0.9688,
          "velocity": 100
        },
        {
          "pitch": 67,
          "onset": 172.0,
          "duration": 0.9688,
          "velocity": 100
        },
        {
          "pitch": 75,
          "onset": 172.0,
          "duration": 0.9688,
          "velocity": 100
        },
        {
          "pitch": 48,
          "onset": 173.0,
          "duration": 0.9688,
          "velocity": 100
        },
        {
          "pitch": 69,
          "onset": 173.0,
          "duration": 0.4688,
          "velocity": 100
        },
        {
          "pitch": 75,
          "onset": 173.0,
          "duration": 0.4688,
          "velocity": 100
        },
        {
          "pitch": 71,
          "onset": 173.5,
          "duration": 0.4688,
          "velocity": 100
        },
        {
          "pitch": 74,
          "onset": 173.5,
          "duration": 0.4688,
          "velocity": 100
        },
        {
          "pitch": 60,
          "onset": 174.0,
          "duration": 0.4688,
          "velocity": 100
        },
        {
          "pitch": 72,
          "onset": 174.0,
          "duration": 0.9688,
          "velocity": 100
        },
        {
          "pitch": 75,
          "onset": 174.0,
          "duration": 0.9688,
          "velocity": 100
        },
        {
          "pitch": 58,
          "onset": 174.5,
          "duration": 0.4688,
          "velocity": 100
        },
        {
          "pitch": 56,
          "onset": 175.0,
          "duration": 0.4688,
          "velocity": 100
        },
        {
          "pitch": 71,
          "onset": 175.0,
          "duration": 0.9688,
          "velocity": 100
        },
        {
          "pitch": 79,
          "onset": 175.0,
          "duration": 0.9688,
          "velocity": 100
        },
        {
          "pitch": 55,
          "onset": 175.5,
          "duration": 0.4688,
          "velocity": 100
        },
        {
          "pitch": 56,
          "onset": 176.0,
          "duration": 0.9688,
          "velocity": 100
        },
        {
          "pitch": 72,
          "onset": 176.0,
          "duration": 2.4688,
          "velocity": 100
        },
        {
          "pitch": 44,
          "onset": 177.0,
          "duration": 0.9688,
          "velocity": 100
        },
        {
          "pitch": 74,
          "onset": 177.0,
          "duration": 0.4688,
          "velocity": 100
        },
        {
          "pitch": 75,
          "onset": 177.5,
          "duration": 0.4688,
          "velocity": 100
        },
        {
          "pitch": 56,
          "onset": 178.0,
          "duration": 0.9688,
          "velocity": 100
        },
        {
          "pitch": 77,
          "onset": 178.0,
          "duration": 3.9688,
          "velocity": 100
        },
        {
          "pitch": 71,
          "onset": 178.5,
          "duration": 0.4688,
          "velocity": 100
        },
        {
          "pitch": 55,
          "onset": 179.0,
          "duration": 0.4688,
          "velocity": 100
        },
        {
          "pitch": 72,
          "onset": 179.0,
          "duration": 0.4688,
          "velocity": 100
        },
        {
          "pitch": 53,
          "onset": 179.5,
          "duration": 0.4688,
          "velocity": 100
        },
        {
          "pitch": 74,
          "onset": 179.5,
          "duration": 0.4688,
          "velocity": 100
        },
        {
          "pitch": 55,
          "onset": 180.0,
          "duration": 4.4688,
          "velocity": 100
        },
        {
          "pitch": 71,
          "onset": 180.0,
          "duration": 0.9688,
          "velocity": 100
        },
        {
          "pitch": 67,
          "onset": 181.0,
          "duration": 0.9688,
          "velocity": 100
        },
        {
          "pitch": 72,
          "onset": 182.0,
          "duration": 3.9688,
          "velocity": 100
        },
        {
          "pitch": 75,
          "onset": 182.0,
          "duration": 0.4688,
          "velocity": 100
        },
        {
          "pitch": 74,
          "onset": 182.5,
          "duration": 0.4688,
          "velocity": 100
        },
        {
          "pitch": 75,
          "onset": 183.0,
          "duration": 0.4688,
          "velocity": 100
        },
        {
          "pitch": 77,
          "onset": 183.5,
          "duration": 0.4688,
          "velocity": 100
        },
        {
          "pitch": 74,
          "onset": 184.0,
          "duration": 0.9688,
          "velocity": 100
        },
        {
          "pitch": 53,
          "onset": 184.5,
          "duration": 0.4688,
          "velocity": 100
        },
        {
          "pitch": 55,
          "onset": 185.0,
          "duration": 0.4688,
          "velocity": 100
        },
        {
          "pitch": 79,
          "onset": 185.0,
          "duration": 1.9688,
          "velocity": 100
        },
        {
          "pitch": 56,
          "onset": 185.5,
          "duration": 0.4688,
          "velocity": 100
        },
        {
          "pitch": 55,
          "onset": 186.0,
          "duration": 0.4688,
          "velocity": 100
        },
        {
          "pitch": 70,
          "onset": 186.0,
          "duration": 3.9688,
          "velocity": 100
        },
        {
          "pitch": 53,
          "onset": 186.5,
          "duration": 0.4688,
          "velocity": 100
        },
        {
          "pitch": 52,
          "onset": 187.0,
          "duration": 0.4688,
          "velocity": 100
        },
        {
          "pitch": 77,
          "onset": 187.0,
          "duration": 0.9688,
          "velocity": 100
        },
        {
          "pitch": 50,
          "onset": 187.5,
          "duration": 0.4688,
          "velocity": 100
        },
        {
          "pitch": 48,
          "onset": 188.0,
          "duration": 4.4688,
          "velocity": 100
        },
        {
          "pitch": 76,
          "onset": 188.0,
          "duration": 0.9688,
          "velocity": 100
        },
        {
          "pitch": 72,
          "onset": 189.0,
          "duration": 0.9688,
          "velocity": 100
        },
        {
          "pitch": 68,
          "onset": 190.0,
          "duration": 0.4688,
          "velocity": 100
        },
        {
          "pitch": 77,
          "onset": 190.0,
          "duration": 3.9688,
          "velocity": 100
        },
        {
          "pitch": 67,
          "onset": 190.5,
          "duration": 0.4688,
          "velocity": 100
        },
        {
          "pitch": 68,
          "onset": 191.0,
          "duration": 0.4688,
          "velocity": 100
        },
        {
          "pitch": 70,
          "onset": 191.5,
          "duration": 0.4688,
          "velocity": 100
        },
        {
          "pitch": 67,
          "onset": 192.0,
          "duration": 0.9688,
          "velocity": 100
        },
        {
          "pitch": 46,
          "onset": 192.5,
          "duration": 0.4688,
          "velocity": 100
        },
        {
          "pitch": 48,
          "onset": 193.0,
          "duration": 0.4688,
          "velocity": 100
        },
        {
          "pitch": 72,
          "onset": 193.0,
          "duration": 1.9688,
          "velocity": 100
        },
        {
          "pitch": 50,
          "onset": 193.5,
          "duration": 0.4688,
          "velocity": 100
        },
        {
          "pitch": 48,
          "onset": 194.0,
          "duration": 0.4688,
          "velocity": 100
        },
        {
          "pitch": 75,
          "onset": 194.0,
          "duration": 3.9688,
          "velocity": 100
        },
        {
          "pitch": 46,
          "onset": 194.5,
          "duration": 0.4688,
          "velocity": 100
        },
        {
          "pitch": 45,
          "onset": 195.0,
          "duration": 0.4688,
          "velocity": 100
        },
        {
          "pitch": 70,
          "onset": 195.0,
          "duration": 0.9688,
          "velocity": 100
        },
        {
          "pitch": 43,
          "onset": 195.5,
          "duration": 0.4688,
          "velocity": 100
        },
        {
          "pitch": 41,
          "onset": 196.0,
          "duration": 4.4688,
          "velocity": 100
        },
        {
          "pitch": 69,
          "onset": 196.0,
          "duration": 0.9688,
          "velocity": 100
        },
        {
          "pitch": 65,
          "onset": 197.0,
          "duration": 0.9688,
          "velocity": 100
        },
        {
          "pitch": 70,
          "onset": 198.0,
          "duration": 3.9688,
          "velocity": 100
        },
        {
          "pitch": 74,
          "onset": 198.0,
          "duration": 0.4688,
          "velocity": 100
        },
        {
          "pitch": 72,
          "onset": 198.5,
          "duration": 0.4688,
          "velocity": 100
        },
        {
          "pitch": 74,
          "onset": 199.0,
          "duration": 0.4688,
          "velocity": 100
        },
        {
          "pitch": 75,
          "onset": 199.5,
          "duration": 0.4688,
          "velocity": 100
        },
        {
          "pitch": 72,
          "onset": 200.0,
          "duration": 0.9688,
          "velocity": 100
        },
        {
          "pitch": 51,
          "onset": 200.5,
          "duration": 0.4688,
          "velocity": 100
        },
        {
          "pitch": 53,
          "onset": 201.0,
          "duration": 0.4688,
          "velocity": 100
        },
        {
          "pitch": 77,
          "onset": 201.0,
          "duration": 1.9688,
          "velocity": 100
        },
        {
          "pitch": 55,
          "onset": 201.5,
          "duration": 0.4688,
          "velocity": 100
        },
        {
          "pitch": 53,
          "onset": 202.0,
          "duration": 0.4688,
          "velocity": 100
        },
        {
          "pitch": 68,
          "onset": 202.0,
          "duration": 3.9688,
          "velocity": 100
        },
        {
          "pitch": 51,
          "onset": 202.5,
          "duration": 0.4688,
          "velocity": 100
        },
        {
          "pitch": 50,
          "onset": 203.0,
          "duration": 0.4688,
          "velocity": 100
        },
        {
          "pitch": 75,
          "onset": 203.0,
          "duration": 0.9688,
          "velocity": 100
        },
        {
          "pitch": 48,
          "onset": 203.5,
          "duration": 0.4688,
          "velocity": 100
        },
        {
          "pitch": 46,
          "onset": 204.0,
          "duration": 4.4688,
          "velocity": 100
        },
        {
          "pitch": 74,
          "onset": 204.0,
          "duration": 0.9688,
          "velocity": 100
        },
        {
          "pitch": 70,
          "onset": 205.0,
          "duration": 0.9688,
          "velocity": 100
        },
        {
          "pitch": 67,
          "onset": 206.0,
          "duration": 0.4688,
          "velocity": 100
        },
        {
          "pitch": 75,
          "onset": 206.0,
          "duration": 3.9688,
          "velocity": 100
        },
        {
          "pitch": 65,
          "onset": 206.5,
          "duration": 0.4688,
          "velocity": 100
        },
        {
          "pitch": 67,
          "onset": 207.0,
          "duration": 0.4688,
          "velocity": 100
        },
        {
          "pitch": 68,
          "onset": 207.5,
          "duration": 0.4688,
          "velocity": 100
        },
        {
          "pitch": 65,
          "onset": 208.0,
          "duration": 0.9688,
          "velocity": 100
        },
        {
          "pitch": 56,
          "onset": 208.5,
          "duration": 0.4688,
          "velocity": 100
        },
        {
          "pitch": 58,
          "onset": 209.0,
          "duration": 0.4688,
          "velocity": 100
        },
        {
          "pitch": 70,
          "onset": 209.0,
          "duration": 1.9688,
          "velocity": 100
        },
        {
          "pitch": 60,
          "onset": 209.5,
          "duration": 0.4688,
          "velocity": 100
        },
        {
          "pitch": 58,
          "onset": 210.0,
          "duration": 1.9688,
          "velocity": 100
        },
        {
          "pitch": 73,
          "onset": 210.0,
          "duration": 2.9688,
          "velocity": 100
        },
        {
          "pitch": 56,
          "onset": 210.5,
          "duration": 0.4688,
          "velocity": 100
        },
        {
          "pitch": 55,
          "onset": 211.0,
          "duration": 0.4688,
          "velocity": 100
        },
        {
          "pitch": 68,
          "onset": 211.0,
          "duration": 0.9688,
          "velocity": 100
        },
        {
          "pitch": 53,
          "onset": 211.5,
          "duration": 0.4688,
          "velocity": 100
        },
        {
          "pitch": 55,
          "onset": 212.0,
          "duration": 0.9688,
          "velocity": 100
        },
        {
          "pitch": 63,
          "onset": 212.0,
          "duration": 1.9688,
          "velocity": 100
        },
        {
          "pitch": 70,
          "onset": 212.0,
          "duration": 0.9688,
          "velocity": 100
        },
        {
          "pitch": 56,
          "onset": 213.0,
          "duration": 0.9688,
          "velocity": 100
        },
        {
          "pitch": 68,
          "onset": 213.0,
          "duration": 1.9688,
          "velocity": 100
        },
        {
          "pitch": 72,
          "onset": 213.0,
          "duration": 0.9688,
          "velocity": 100
        },
        {
          "pitch": 50,
          "onset": 214.0,
          "duration": 0.9688,
          "velocity": 100
        },
        {
          "pitch": 70,
          "onset": 214.0,
          "duration": 1.9688,
          "velocity": 100
        },
        {
          "pitch": 52,
          "onset": 215.0,
          "duration": 0.9688,
          "velocity": 100
        },
        {
          "pitch": 61,
          "onset": 215.0,
          "duration": 0.9688,
          "velocity": 100
        },
        {
          "pitch": 67,
          "onset": 215.0,
          "duration": 1.9688,
          "velocity": 100
        },
        {
          "pitch": 53,
          "onset": 216.0,
          "duration": 2.4688,
          "velocity": 100
        },
        {
          "pitch": 60,
          "onset": 216.0,
          "duration": 0.9688,
          "velocity": 100
        },
        {
          "pitch": 68,
          "onset": 216.0,
          "duration": 1.9688,
          "velocity": 100
        },
        {
          "pitch": 65,
          "onset": 217.0,
          "duration": 1.9688,
          "velocity": 100
        },
        {
          "pitch": 67,
          "onset": 217.5,
          "duration": 0.4688,
          "velocity": 100
        },
        {
          "pitch": 68,
          "onset": 218.0,
          "duration": 2.9688,
          "velocity": 100
        },
        {
          "pitch": 51,
          "onset": 218.5,
          "duration": 0.4688,
          "velocity": 100
        },
        {
          "pitch": 49,
          "onset": 219.0,
          "duration": 0.4688,
          "velocity": 100
        },
        {
          "pitch": 63,
          "onset": 219.0,
          "duration": 0.9688,
          "velocity": 100
        },
        {
          "pitch": 48,
          "onset": 219.5,
          "duration": 0.4688,
          "velocity": 100
        },
        {
          "pitch": 46,
          "onset": 220.0,
          "duration": 2.4688,
          "velocity": 100
        },
        {
          "pitch": 61,
          "onset": 220.0,
          "duration": 0.9688,
          "velocity": 100
        },
        {
          "pitch": 61,
          "onset": 221.0,
          "duration": 0.4688,
          "velocity": 100
        },
        {
          "pitch": 65,
          "onset": 221.0,
          "duration": 0.9688,
          "velocity": 100
        },
        {
          "pitch": 60,
          "onset": 221.5,
          "duration": 0.4688,
          "velocity": 100
        },
        {
          "pitch": 61,
          "onset": 222.0,
          "duration": 0.9688,
          "velocity": 100
        },
        {
          "pitch": 70,
          "onset": 222.0,
          "duration": 0.9688,
          "velocity": 100
        },
        {
          "pitch": 46,
          "onset": 222.5,
          "duration": 0.4688,
          "velocity": 100
        },
        {
          "pitch": 48,
          "onset": 223.0,
          "duration": 0.4688,
          "velocity": 100
        },
        {
          "pitch": 65,
          "onset": 223.0,
          "duration": 0.9688,
          "velocity": 100
        },
        {
          "pitch": 68,
          "onset": 223.0,
          "duration": 0.9688,
          "velocity": 100
        },
        {
          "pitch": 49,
          "onset": 223.5,
          "duration": 0.4688,
          "velocity": 100
        },
        {
          "pitch": 51,
          "onset": 224.0,
          "duration": 2.4688,
          "velocity": 100
        },
        {
          "pitch": 58,
          "onset": 224.0,
          "duration": 0.9688,
          "velocity": 100
        },
        {
          "pitch": 67,
          "onset": 224.0,
          "duration": 0.9688,
          "velocity": 100
        },
        {
          "pitch": 63,
          "onset": 225.0,
          "duration": 1.9688,
          "velocity": 100
        },
        {
          "pitch": 67,
          "onset": 225.0,
          "duration": 0.4688,
          "velocity": 100
        },
        {
          "pitch": 65,
          "onset": 225.5,
          "duration": 0.4688,
          "velocity": 100
        },
        {
          "pitch": 67,
          "onset": 226.0,
          "duration": 0.9688,
          "velocity": 100
        },
        {
          "pitch": 39,
          "onset": 226.5,
          "duration": 0.4688,
          "velocity": 100
        },
        {
          "pitch": 41,
          "onset": 227.0,
          "duration": 0.4688,
          "velocity": 100
        },
        {
          "pitch": 61,
          "onset": 227.0,
          "duration": 0.9688,
          "velocity": 100
        },
        {
          "pitch": 70,
          "onset": 227.0,
          "duration": 0.9688,
          "velocity": 100
        },
        {
          "pitch": 43,
          "onset": 227.5,
          "duration": 0.4688,
          "velocity": 100
        },
        {
          "pitch": 44,
          "onset": 228.0,
          "duration": 0.4688,
          "velocity": 100
        },
        {
          "pitch": 60,
          "onset": 228.0,
          "duration": 0.9688,
          "velocity": 100
        },
        {
          "pitch": 63,
          "onset": 228.0,
          "duration": 0.9688,
          "velocity": 100
        },
        {
          "pitch": 46,
          "onset": 228.5,
          "duration": 0.4688,
          "velocity": 100
        },
        {
          "pitch": 48,
          "onset": 229.0,
          "duration": 0.4688,
          "velocity": 100
        },
        {
          "pitch": 60,
          "onset": 229.0,
          "duration": 0.4688,
          "velocity": 100
        },
        {
          "pitch": 68,
          "onset": 229.0,
          "duration": 1.9688,
          "velocity": 100
        },
        {
          "pitch": 50,
          "onset": 229.5,
          "duration": 0.4688,
          "velocity": 100
        },
        {
          "pitch": 58,
          "onset": 229.5,
          "duration": 0.4688,
          "velocity": 100
        },
        {
          "pitch": 51,
          "onset": 230.0,
          "duration": 3.9688,
          "velocity": 100
        },
        {
          "pitch": 60,
          "onset": 230.0,
          "duration": 0.9688,
          "velocity": 100
        },
        {
          "pitch": 63,
          "onset": 231.0,
          "duration": 0.9688,
          "velocity": 100
        },
        {
          "pitch": 67,
          "onset": 231.0,
          "duration": 0.9688,
          "velocity": 100
        },
        {
          "pitch": 56,
          "onset": 232.0,
          "duration": 0.9688,
          "velocity": 100
        },
        {
          "pitch": 65,
          "onset": 232.0,
          "duration": 0.9688,
          "velocity": 100
        },
        {
          "pitch": 70,
          "onset": 232.0,
          "duration": 3.9688,
          "velocity": 100
        },
        {
          "pitch": 56,
          "onset": 233.0,
          "duration": 0.4688,
          "velocity": 100
        },
        {
          "pitch": 65,
          "onset": 233.0,
          "duration": 0.4688,
          "velocity": 100
        },
        {
          "pitch": 55,
          "onset": 233.5,
          "duration": 0.4688,
          "velocity": 100
        },
        {
          "pitch": 63,
          "onset": 233.5,
          "duration": 0.4688,
          "velocity": 100
        },
        {
          "pitch": 50,
          "onset": 234.0,
          "duration": 1.9688,
          "velocity": 100
        },
        {
          "pitch": 56,
          "onset": 234.0,
          "duration": 0.9688,
          "velocity": 100
        },
        {
          "pitch": 65,
          "onset": 234.0,
          "duration": 0.9688,
          "velocity": 100
        },
        {
          "pitch": 58,
          "onset": 235.0,
          "duration": 0.4688,
          "velocity": 100
        },
        {
          "pitch": 67,
          "onset": 235.0,
          "duration": 0.4688,
          "velocity": 100
        },
        {
          "pitch": 56,
          "onset": 235.5,
          "duration": 0.4688,
          "velocity": 100
        },
        {
          "pitch": 65,
          "onset": 235.5,
          "duration": 0.4688,
          "velocity": 100
        },
        {
          "pitch": 51,
          "onset": 236.0,
          "duration": 3.9688,
          "velocity": 100
        },
        {
          "pitch": 55,
          "onset": 236.0,
          "duration": 0.9688,
          "velocity": 100
        },
        {
          "pitch": 63,
          "onset": 236.0,
          "duration": 0.9688,
          "velocity": 100
        },
        {
          "pitch": 75,
          "onset": 236.0,
          "duration": 1.9688,
          "velocity": 100
        },
        {
          "pitch": 58,
          "onset": 237.0,
          "duration": 0.4688,
          "velocity": 100
        },
        {
          "pitch": 67,
          "onset": 237.0,
          "duration": 0.4688,
          "velocity": 100
        },
        {
          "pitch": 56,
          "onset": 237.5,
          "duration": 0.4688,
          "velocity": 100
        },
        {
          "pitch": 65,
          "onset": 237.5,
          "duration": 0.4688,
          "velocity": 100
        },
        {
          "pitch": 58,
          "onset": 238.0,
          "duration": 0.9688,
          "velocity": 100
        },
        {
          "pitch": 67,
          "onset": 238.0,
          "duration": 0.9688,
          "velocity": 100
        },
        {
          "pitch": 60,
          "onset": 239.0,
          "duration": 0.9688,
          "velocity": 100
        },
        {
          "pitch": 69,
          "onset": 239.0,
          "duration": 0.4688,
          "velocity": 100
        },
        {
          "pitch": 75,
          "onset": 239.0,
          "duration": 0.9688,
          "velocity": 100
        },
        {
          "pitch": 67,
          "onset": 239.5,
          "duration": 0.4688,
          "velocity": 100
        },
        {
          "pitch": 58,
          "onset": 240.0,
          "duration": 1.9688,
          "velocity": 100
        },
        {
          "pitch": 62,
          "onset": 240.0,
          "duration": 0.9688,
          "velocity": 100
        },
        {
          "pitch": 65,
          "onset": 240.0,
          "duration": 0.9688,
          "velocity": 100
        },
        {
          "pitch": 74,
          "onset": 240.0,
          "duration": 0.9688,
          "velocity": 100
        },
        {
          "pitch": 62,
          "onset": 241.0,
          "duration": 0.4688,
          "velocity": 100
        },
        {
          "pitch": 70,
          "onset": 241.0,
          "duration": 0.4688,
          "velocity": 100
        },
        {
          "pitch": 79,
          "onset": 241.0,
          "duration": 1.9688,
          "velocity": 100
        },
        {
          "pitch": 60,
          "onset": 241.5,
          "duration": 0.4688,
          "velocity": 100
        },
        {
          "pitch": 68,
          "onset": 241.5,
          "duration": 0.4688,
          "velocity": 100
        },
        {
          "pitch": 62,
          "onset": 242.0,
          "duration": 0.9688,
          "velocity": 100
        },
        {
          "pitch": 70,
          "onset": 242.0,
          "duration": 0.9688,
          "velocity": 100
        },
        {
          "pitch": 56,
          "onset": 243.0,
          "duration": 0.9688,
          "velocity": 100
        },
        {
          "pitch": 65,
          "onset": 243.0,
          "duration": 0.9688,
          "velocity": 100
        },
        {
          "pitch": 74,
          "onset": 243.0,
          "duration": 0.9688,
          "velocity": 100
        },
        {
          "pitch": 77,
          "onset": 243.0,
          "duration": 0.9688,
          "velocity": 100
        },
        {
          "pitch": 55,
          "onset": 244.0,
          "duration": 0.9688,
          "velocity": 100
        },
        {
          "pitch": 70,
          "onset": 244.0,
          "duration": 0.9688,
          "velocity": 100
        },
        {
          "pitch": 75,
          "onset": 244.0,
          "duration": 0.9688,
          "velocity": 100
        },
        {
          "pitch": 60,
          "onset": 245.0,
          "duration": 1.9688,
          "velocity": 100
        },
        {
          "pitch": 67,
          "onset": 245.0,
          "duration": 0.9688,
          "velocity": 100
        },
        {
          "pitch": 72,
          "onset": 245.0,
          "duration": 0.9688,
          "velocity": 100
        },
        {
          "pitch": 75,
          "onset": 245.0,
          "duration": 0.4688,
          "velocity": 100
        },
        {
          "pitch": 74,
          "onset": 245.5,
          "duration": 0.4688,
          "velocity": 100
        },
        {
          "pitch": 63,
          "onset": 246.0,
          "duration": 2.9688,
          "velocity": 100
        },
        {
          "pitch": 67,
          "onset": 246.0,
          "duration": 1.9688,
          "velocity": 100
        },
        {
          "pitch": 75,
          "onset": 246.0,
          "duration": 0.9688,
          "velocity": 100
        },
        {
          "pitch": 58,
          "onset": 247.0,
          "duration": 0.9688,
          "velocity": 100
        },
        {
          "pitch": 79,
          "onset": 247.0,
          "duration": 0.9688,
          "velocity": 100
        },
        {
          "pitch": 56,
          "onset": 248.0,
          "duration": 0.9688,
          "velocity": 100
        },
        {
          "pitch": 68,
          "onset": 248.0,
          "duration": 0.9688,
          "velocity": 100
        },
        {
          "pitch": 72,
          "onset": 248.0,
          "duration": 0.9688,
          "velocity": 100
        },
        {
          "pitch": 56,
          "onset": 249.0,
          "duration": 0.4688,
          "velocity": 100
        },
        {
          "pitch": 60,
          "onset": 249.0,
          "duration": 0.4688,
          "velocity": 100
        },
        {
          "pitch": 68,
          "onset": 249.0,
          "duration": 1.9688,
          "velocity": 100
        },
        {
          "pitch": 77,
          "onset": 249.0,
          "duration": 1.9688,
          "velocity": 100
        },
        {
          "pitch": 55,
          "onset": 249.5,
          "duration": 0.4688,
          "velocity": 100
        },
        {
          "pitch": 58,
          "onset": 249.5,
          "duration": 0.4688,
          "velocity": 100
        },
        {
          "pitch": 56,
          "onset": 250.0,
          "duration": 0.9688,
          "velocity": 100
        },
        {
          "pitch": 60,
          "onset": 250.0,
          "duration": 0.9688,
          "velocity": 100
        },
        {
          "pitch": 60,
          "onset": 251.0,
          "duration": 0.9688,
          "velocity": 100
        },
        {
          "pitch": 63,
          "onset": 251.0,
          "duration": 0.9688,
          "velocity": 100
        },
        {
          "pitch": 67,
          "onset": 251.0,
          "duration": 0.9688,
          "velocity": 100
        },
        {
          "pitch": 75,
          "onset": 251.0,
          "duration": 0.9688,
          "velocity": 100
        },
        {
          "pitch": 53,
          "onset": 252.0,
          "duration": 0.9688,
          "velocity": 100
        },
        {
          "pitch": 65,
          "onset": 252.0,
          "duration": 0.9688,
          "velocity": 100
        },
        {
          "pitch": 68,
          "onset": 252.0,
          "duration": 0.9688,
          "velocity": 100
        },
        {
          "pitch": 74,
          "onset": 252.0,
          "duration": 0.9688,
          "velocity": 100
        },
        {
          "pitch": 58,
          "onset": 253.0,
          "duration": 1.9688,
          "velocity": 100
        },
        {
          "pitch": 62,
          "onset": 253.0,
          "duration": 0.9688,
          "velocity": 100
        },
        {
          "pitch": 65,
          "onset": 253.0,
          "duration": 0.9688,
          "velocity": 100
        },
        {
          "pitch": 74,
          "onset": 253.0,
          "duration": 0.4688,
          "velocity": 100
        },
        {
          "pitch": 72,
          "onset": 253.5,
          "duration": 0.4688,
          "velocity": 100
        },
        {
          "pitch": 67,
          "onset": 254.0,
          "duration": 0.9688,
          "velocity": 100
        },
        {
          "pitch": 70,
          "onset": 254.0,
          "duration": 2.9688,
          "velocity": 100
        },
        {
          "pitch": 74,
          "onset": 254.0,
          "duration": 0.9688,
          "velocity": 100
        },
        {
          "pitch": 56,
          "onset": 255.0,
          "duration": 0.9688,
          "velocity": 100
        },
        {
          "pitch": 62,
          "onset": 255.0,
          "duration": 0.9688,
          "velocity": 100
        },
        {
          "pitch": 77,
          "onset": 255.0,
          "duration": 0.9688,
          "velocity": 100
        },
        {
          "pitch": 55,
          "onset": 256.0,
          "duration": 0.9688,
          "velocity": 100
        },
        {
          "pitch": 63,
          "onset": 256.0,
          "duration": 0.9688,
          "velocity": 100
        },
        {
          "pitch": 55,
          "onset": 257.0,
          "duration": 0.4688,
          "velocity": 100
        },
        {
          "pitch": 75,
          "onset": 257.0,
          "duration": 0.9688,
          "velocity": 100
        },
        {
          "pitch": 53,
          "onset": 257.5,
          "duration": 0.4688,
          "velocity": 100
        },
        {
          "pitch": 55,
          "onset": 258.0,
          "duration": 0.9688,
          "velocity": 100
        },
        {
          "pitch": 73,
          "onset": 258.0,
          "duration": 2.9688,
          "velocity": 100
        },
        {
          "pitch": 58,
          "onset": 259.0,
          "duration": 0.9688,
          "velocity": 100
        },
        {
          "pitch": 65,
          "onset": 259.0,
          "duration": 0.9688,
          "velocity": 100
        },
        {
          "pitch": 68,
          "onset": 259.0,
          "duration": 0.9688,
          "velocity": 100
        },
        {
          "pitch": 51,
          "onset": 260.0,
          "duration": 0.9688,
          "velocity": 100
        },
        {
          "pitch": 63,
          "onset": 260.0,
          "duration": 1.9688,
          "velocity": 100
        },
        {
          "pitch": 67,
          "onset": 260.0,
          "duration": 1.9688,
          "velocity": 100
        },
        {
          "pitch": 51,
          "onset": 261.0,
          "duration": 0.4688,
          "velocity": 100
        },
        {
          "pitch": 72,
          "onset": 261.0,
          "duration": 0.9688,
          "velocity": 100
        },
        {
          "pitch": 50,
          "onset": 261.5,
          "duration": 0.4688,
          "velocity": 100
        },
        {
          "pitch": 51,
          "onset": 262.0,
          "duration": 0.9688,
          "velocity": 100
        },
        {
          "pitch": 70,
          "onset": 262.0,
          "duration": 2.9688,
          "velocity": 100
        },
        {
          "pitch": 55,
          "onset": 263.0,
          "duration": 0.9688,
          "velocity": 100
        },
        {
          "pitch": 62,
          "onset": 263.0,
          "duration": 0.9688,
          "velocity": 100
        },
        {
          "pitch": 65,
          "onset": 263.0,
          "duration": 0.9688,
          "velocity": 100
        },
        {
          "pitch": 48,
          "onset": 264.0,
          "duration": 0.9688,
          "velocity": 100
        },
        {
          "pitch": 60,
          "onset": 264.0,
          "duration": 2.9688,
          "velocity": 100
        },
        {
          "pitch": 63,
          "onset": 264.0,
          "duration": 2.9688,
          "velocity": 100
        },
        {
          "pitch": 50,
          "onset": 265.0,
          "duration": 0.4688,
          "velocity": 100
        },
        {
          "pitch": 68,
          "onset": 265.0,
          "duration": 0.4688,
          "velocity": 100
        },
        {
          "pitch": 51,
          "onset": 265.5,
          "duration": 0.4688,
          "velocity": 100
        },
        {
          "pitch": 67,
          "onset": 265.5,
          "duration": 0.4688,
          "velocity": 100
        },
        {
          "pitch": 53,
          "onset": 266.0,
          "duration": 1.9688,
          "velocity": 100
        },
        {
          "pitch": 68,
          "onset": 266.0,
          "duration": 3.9688,
          "velocity": 100
        },
        {
          "pitch": 56,
          "onset": 267.0,
          "duration": 0.9688,
          "velocity": 100
        },
        {
          "pitch": 62,
          "onset": 267.0,
          "duration": 0.4688,
          "velocity": 100
        },
        {
          "pitch": 60,
          "onset": 267.5,
          "duration": 0.4688,
          "velocity": 100
        },
        {
          "pitch": 46,
          "onset": 268.0,
          "duration": 1.9688,
          "velocity": 100
        },
        {
          "pitch": 53,
          "onset": 268.0,
          "duration": 1.9688,
          "velocity": 100
        },
        {
          "pitch": 62,
          "onset": 268.0,
          "duration": 0.9688,
          "velocity": 100
        },
        {
          "pitch": 58,
          "onset": 269.0,
          "duration": 0.9688,
          "velocity": 100
        },
        {
          "pitch": 45,
          "onset": 270.0,
          "duration": 1.9688,
          "velocity": 100
        },
        {
          "pitch": 63,
          "onset": 270.0,
          "duration": 3.9688,
          "velocity": 100
        },
        {
          "pitch": 66,
          "onset": 270.0,
          "duration": 1.9688,
          "velocity": 100
        },
        {
          "pitch": 60,
          "onset": 271.0,
          "duration": 0.9688,
          "velocity": 100
        },
        {
          "pitch": 46,
          "onset": 272.0,
          "duration": 3.9688,
          "velocity": 100
        },
        {
          "pitch": 53,
          "onset": 272.0,
          "duration": 0.9688,
          "velocity": 100
        },
        {
          "pitch": 65,
          "onset": 272.0,
          "duration": 3.9688,
          "velocity": 100
        },
        {
          "pitch": 53,
          "onset": 273.0,
          "duration": 0.4688,
          "velocity": 100
        },
        {
          "pitch": 51,
          "onset": 273.5,
          "duration": 0.4688,
          "velocity": 100
        },
        {
          "pitch": 53,
          "onset": 274.0,
          "duration": 0.9688,
          "velocity": 100
        },
        {
          "pitch": 62,
          "onset": 274.0,
          "duration": 1.9688,
          "velocity": 100
        },
        {
          "pitch": 58,
          "onset": 275.0,
          "duration": 0.9688,
          "velocity": 100
        },
        {
          "pitch": 39,
          "onset": 276.0,
          "duration": 5.9688,
          "velocity": 100
        },
        {
          "pitch": 55,
          "onset": 276.0,
          "duration": 5.9688,
          "velocity": 100
        },
        {
          "pitch": 58,
          "onset": 276.0,
          "duration": 5.9688,
          "velocity": 100
        },
        {
          "pitch": 63,
          "onset": 276.0,
          "duration": 5.9688,
          "velocity": 100
        },
        {
          "pitch": 63,
          "onset": 286.5,
          "duration": 0.4688,
          "velocity": 1
        }
      ]
    }
  ]
}