{
  "bwv": 883,
  "category": "wtc2",
  "instrument": "keyboard",
  "form": "prelude",
  "movement": null,
  "tonic": "F#",
  "mode": "minor",
  "confidence": "verified",
  "ticks_per_beat": 384,
  "duration_seconds": 201.9,
  "tempos": [
    {
      "tick": 0,
      "bpm": 40
    },
    {
      "tick": 1728,
      "bpm": 40
    },
    {
      "tick": 1824,
      "bpm": 35
    },
    {
      "tick": 2016,
      "bpm": 40
    },
    {
      "tick": 4416,
      "bpm": 40
    },
    {
      "tick": 4512,
      "bpm": 35
    },
    {
      "tick": 4608,
      "bpm": 40
    },
    {
      "tick": 6720,
      "bpm": 40
    },
    {
      "tick": 6816,
      "bpm": 35
    },
    {
      "tick": 6912,
      "bpm": 40
    },
    {
      "tick": 12480,
      "bpm": 40
    },
    {
      "tick": 12576,
      "bpm": 35
    },
    {
      "tick": 12672,
      "bpm": 40
    },
    {
      "tick": 19392,
      "bpm": 40
    },
    {
      "tick": 19488,
      "bpm": 35
    },
    {
      "tick": 19584,
      "bpm": 40
    },
    {
      "tick": 19680,
      "bpm": 40
    },
    {
      "tick": 20544,
      "bpm": 40
    },
    {
      "tick": 20640,
      "bpm": 35
    },
    {
      "tick": 20736,
      "bpm": 40
    },
    {
      "tick": 20832,
      "bpm": 40
    },
    {
      "tick": 22656,
      "bpm": 40
    },
    {
      "tick": 22848,
      "bpm": 35
    },
    {
      "tick": 22944,
      "bpm": 35
    },
    {
      "tick": 23040,
      "bpm": 35
    },
    {
      "tick": 23136,
      "bpm": 40
    },
    {
      "tick": 26304,
      "bpm": 40
    },
    {
      "tick": 26400,
      "bpm": 35
    },
    {
      "tick": 26496,
      "bpm": 40
    },
    {
      "tick": 26592,
      "bpm": 40
    },
    {
      "tick": 31488,
      "bpm": 40
    },
    {
      "tick": 31680,
      "bpm": 40
    },
    {
      "tick": 31872,
      "bpm": 35
    },
    {
      "tick": 32064,
      "bpm": 35
    },
    {
      "tick": 32256,
      "bpm": 30
    },
    {
      "tick": 33216,
      "bpm": 35
    },
    {
      "tick": 33312,
      "bpm": 40
    },
    {
      "tick": 37152,
      "bpm": 40
    },
    {
      "tick": 37248,
      "bpm": 40
    },
    {
      "tick": 38208,
      "bpm": 40
    },
    {
      "tick": 38304,
      "bpm": 35
    },
    {
      "tick": 38400,
      "bpm": 40
    },
    {
      "tick": 40320,
      "bpm": 40
    },
    {
      "tick": 40512,
      "bpm": 40
    },
    {
      "tick": 40608,
      "bpm": 35
    },
    {
      "tick": 40704,
      "bpm": 40
    },
    {
      "tick": 43584,
      "bpm": 40
    },
    {
      "tick": 43776,
      "bpm": 40
    },
    {
      "tick": 43968,
      "bpm": 35
    },
    {
      "tick": 44064,
      "bpm": 35
    },
    {
      "tick": 44160,
      "bpm": 40
    },
    {
      "tick": 44256,
      "bpm": 40
    },
    {
      "tick": 45120,
      "bpm": 40
    },
    {
      "tick": 45216,
      "bpm": 40
    },
    {
      "tick": 45408,
      "bpm": 40
    },
    {
      "tick": 45984,
      "bpm": 40
    },
    {
      "tick": 46368,
      "bpm": 35
    },
    {
      "tick": 48000,
      "bpm": 35
    },
    {
      "tick": 48192,
      "bpm": 35
    },
    {
      "tick": 48288,
      "bpm": 30
    },
    {
      "tick": 48768,
      "bpm": 35
    }
  ],
  "time_signatures": [
    {
      "tick": 0,
      "numerator": 3,
      "denominator": 4
    },
    {
      "tick": 32256,
      "numerator": 4,
      "denominator": 4
    },
    {
      "tick": 33792,
      "numerator": 3,
      "denominator": 4
    }
  ],
  "track_type": "manual",
  "voice_count": 1,
  "total_notes": 886,
  "tracks": [
    {
      "role": "manual",
      "notes": [
        {
          "pitch": 54,
          "onset": 0.0,
          "duration": 1.75,
          "velocity": 100
        },
        {
          "pitch": 78,
          "onset": 0.0,
          "duration": 0.5,
          "velocity": 100
        },
        {
          "pitch": 57,
          "onset": 0.5,
          "duration": 0.5,
          "velocity": 100
        },
        {
          "pitch": 73,
          "onset": 0.5,
          "duration": 1.0,
          "velocity": 100
        },
        {
          "pitch": 61,
          "onset": 1.0,
          "duration": 0.5,
          "velocity": 100
        },
        {
          "pitch": 66,
          "onset": 1.5,
          "duration": 1.0,
          "velocity": 100
        },
        {
          "pitch": 69,
          "onset": 1.5,
          "duration": 0.25,
          "velocity": 100
        },
        {
          "pitch": 56,
          "onset": 1.75,
          "duration": 0.25,
          "velocity": 100
        },
        {
          "pitch": 71,
          "onset": 1.75,
          "duration": 0.25,
          "velocity": 100
        },
        {
          "pitch": 57,
          "onset": 2.0,
          "duration": 0.5,
          "velocity": 100
        },
        {
          "pitch": 73,
          "onset": 2.0,
          "duration": 0.1562,
          "velocity": 100
        },
        {
          "pitch": 71,
          "onset": 2.1562,
          "duration": 0.1562,
          "velocity": 100
        },
        {
          "pitch": 69,
          "onset": 2.3438,
          "duration": 0.1562,
          "velocity": 100
        },
        {
          "pitch": 61,
          "onset": 2.5,
          "duration": 0.5,
          "velocity": 100
        },
        {
          "pitch": 65,
          "onset": 2.5,
          "duration": 0.5,
          "velocity": 100
        },
        {
          "pitch": 71,
          "onset": 2.5,
          "duration": 0.1562,
          "velocity": 100
        },
        {
          "pitch": 69,
          "onset": 2.6562,
          "duration": 0.1562,
          "velocity": 100
        },
        {
          "pitch": 68,
          "onset": 2.8438,
          "duration": 0.1562,
          "velocity": 100
        },
        {
          "pitch": 54,
          "onset": 3.0,
          "duration": 3.5,
          "velocity": 100
        },
        {
          "pitch": 66,
          "onset": 3.0,
          "duration": 0.5,
          "velocity": 100
        },
        {
          "pitch": 69,
          "onset": 3.0,
          "duration": 0.25,
          "velocity": 100
        },
        {
          "pitch": 71,
          "onset": 3.25,
          "duration": 0.25,
          "velocity": 100
        },
        {
          "pitch": 61,
          "onset": 3.5,
          "duration": 1.0,
          "velocity": 100
        },
        {
          "pitch": 69,
          "onset": 3.5,
          "duration": 0.25,
          "velocity": 100
        },
        {
          "pitch": 68,
          "onset": 3.75,
          "duration": 0.25,
          "velocity": 100
        },
        {
          "pitch": 69,
          "onset": 4.0,
          "duration": 0.25,
          "velocity": 100
        },
        {
          "pitch": 73,
          "onset": 4.25,
          "duration": 0.25,
          "velocity": 100
        },
        {
          "pitch": 57,
          "onset": 4.5,
          "duration": 0.25,
          "velocity": 100
        },
        {
          "pitch": 78,
          "onset": 4.5,
          "duration": 0.25,
          "velocity": 100
        },
        {
          "pitch": 59,
          "onset": 4.75,
          "duration": 0.25,
          "velocity": 100
        },
        {
          "pitch": 80,
          "onset": 4.75,
          "duration": 0.25,
          "velocity": 100
        },
        {
          "pitch": 61,
          "onset": 5.0,
          "duration": 0.1562,
          "velocity": 100
        },
        {
          "pitch": 81,
          "onset": 5.0,
          "duration": 0.1562,
          "velocity": 100
        },
        {
          "pitch": 59,
          "onset": 5.1562,
          "duration": 0.1562,
          "velocity": 100
        },
        {
          "pitch": 80,
          "onset": 5.1562,
          "duration": 0.1562,
          "velocity": 100
        },
        {
          "pitch": 57,
          "onset": 5.3438,
          "duration": 0.1562,
          "velocity": 100
        },
        {
          "pitch": 78,
          "onset": 5.3438,
          "duration": 0.1562,
          "velocity": 100
        },
        {
          "pitch": 59,
          "onset": 5.5,
          "duration": 0.1562,
          "velocity": 100
        },
        {
          "pitch": 80,
          "onset": 5.5,
          "duration": 0.1562,
          "velocity": 100
        },
        {
          "pitch": 57,
          "onset": 5.6562,
          "duration": 0.1562,
          "velocity": 100
        },
        {
          "pitch": 78,
          "onset": 5.6562,
          "duration": 0.1562,
          "velocity": 100
        },
        {
          "pitch": 56,
          "onset": 5.8438,
          "duration": 0.1562,
          "velocity": 100
        },
        {
          "pitch": 77,
          "onset": 5.8438,
          "duration": 0.1562,
          "velocity": 100
        },
        {
          "pitch": 57,
          "onset": 6.0,
          "duration": 0.5,
          "velocity": 100
        },
        {
          "pitch": 78,
          "onset": 6.0,
          "duration": 0.25,
          "velocity": 100
        },
        {
          "pitch": 73,
          "onset": 6.25,
          "duration": 0.5,
          "velocity": 100
        },
        {
          "pitch": 56,
          "onset": 6.5,
          "duration": 0.5,
          "velocity": 100
        },
        {
          "pitch": 59,
          "onset": 6.5,
          "duration": 0.5,
          "velocity": 100
        },
        {
          "pitch": 77,
          "onset": 6.75,
          "duration": 0.25,
          "velocity": 100
        },
        {
          "pitch": 57,
          "onset": 7.0,
          "duration": 0.5,
          "velocity": 100
        },
        {
          "pitch": 61,
          "onset": 7.0,
          "duration": 0.5,
          "velocity": 100
        },
        {
          "pitch": 78,
          "onset": 7.0,
          "duration": 0.25,
          "velocity": 100
        },
        {
          "pitch": 73,
          "onset": 7.25,
          "duration": 0.5,
          "velocity": 100
        },
        {
          "pitch": 59,
          "onset": 7.5,
          "duration": 0.5,
          "velocity": 100
        },
        {
          "pitch": 68,
          "onset": 7.5,
          "duration": 0.5,
          "velocity": 100
        },
        {
          "pitch": 77,
          "onset": 7.75,
          "duration": 0.25,
          "velocity": 100
        },
        {
          "pitch": 57,
          "onset": 8.0,
          "duration": 0.5,
          "velocity": 100
        },
        {
          "pitch": 66,
          "onset": 8.0,
          "duration": 0.5,
          "velocity": 100
        },
        {
          "pitch": 78,
          "onset": 8.0,
          "duration": 0.25,
          "velocity": 100
        },
        {
          "pitch": 73,
          "onset": 8.25,
          "duration": 0.25,
          "velocity": 100
        },
        {
          "pitch": 56,
          "onset": 8.5,
          "duration": 0.5,
          "velocity": 100
        },
        {
          "pitch": 65,
          "onset": 8.5,
          "duration": 0.5,
          "velocity": 100
        },
        {
          "pitch": 78,
          "onset": 8.5,
          "duration": 0.25,
          "velocity": 100
        },
        {
          "pitch": 80,
          "onset": 8.75,
          "duration": 0.25,
          "velocity": 100
        },
        {
          "pitch": 54,
          "onset": 9.0,
          "duration": 0.5,
          "velocity": 100
        },
        {
          "pitch": 66,
          "onset": 9.0,
          "duration": 0.5,
          "velocity": 100
        },
        {
          "pitch": 81,
          "onset": 9.0,
          "duration": 0.25,
          "velocity": 100
        },
        {
          "pitch": 77,
          "onset": 9.25,
          "duration": 0.25,
          "velocity": 100
        },
        {
          "pitch": 52,
          "onset": 9.5,
          "duration": 0.5,
          "velocity": 100
        },
        {
          "pitch": 61,
          "onset": 9.5,
          "duration": 0.5,
          "velocity": 100
        },
        {
          "pitch": 78,
          "onset": 9.5,
          "duration": 0.25,
          "velocity": 100
        },
        {
          "pitch": 81,
          "onset": 9.75,
          "duration": 0.25,
          "velocity": 100
        },
        {
          "pitch": 50,
          "onset": 10.0,
          "duration": 2.0,
          "velocity": 100
        },
        {
          "pitch": 54,
          "onset": 10.0,
          "duration": 0.5,
          "velocity": 100
        },
        {
          "pitch": 71,
          "onset": 10.0,
          "duration": 0.25,
          "velocity": 100
        },
        {
          "pitch": 81,
          "onset": 10.25,
          "duration": 0.25,
          "velocity": 100
        },
        {
          "pitch": 53,
          "onset": 10.5,
          "duration": 0.5,
          "velocity": 100
        },
        {
          "pitch": 80,
          "onset": 10.5,
          "duration": 0.25,
          "velocity": 100
        },
        {
          "pitch": 81,
          "onset": 10.75,
          "duration": 0.25,
          "velocity": 100
        },
        {
          "pitch": 54,
          "onset": 11.0,
          "duration": 0.5,
          "velocity": 100
        },
        {
          "pitch": 83,
          "onset": 11.0,
          "duration": 0.1562,
          "velocity": 100
        },
        {
          "pitch": 81,
          "onset": 11.1562,
          "duration": 0.1562,
          "velocity": 100
        },
        {
          "pitch": 80,
          "onset": 11.3438,
          "duration": 0.1562,
          "velocity": 100
        },
        {
          "pitch": 59,
          "onset": 11.5,
          "duration": 0.5,
          "velocity": 100
        },
        {
          "pitch": 81,
          "onset": 11.5,
          "duration": 0.1562,
          "velocity": 100
        },
        {
          "pitch": 80,
          "onset": 11.6562,
          "duration": 0.1562,
          "velocity": 100
        },
        {
          "pitch": 78,
          "onset": 11.8438,
          "duration": 0.1562,
          "velocity": 100
        },
        {
          "pitch": 49,
          "onset": 12.0,
          "duration": 4.0,
          "velocity": 100
        },
        {
          "pitch": 77,
          "onset": 12.0,
          "duration": 0.25,
          "velocity": 100
        },
        {
          "pitch": 72,
          "onset": 12.25,
          "duration": 0.5,
          "velocity": 100
        },
        {
          "pitch": 56,
          "onset": 12.5,
          "duration": 0.5,
          "velocity": 100
        },
        {
          "pitch": 73,
          "onset": 12.75,
          "duration": 0.25,
          "velocity": 100
        },
        {
          "pitch": 57,
          "onset": 13.0,
          "duration": 0.5,
          "velocity": 100
        },
        {
          "pitch": 78,
          "onset": 13.0,
          "duration": 0.25,
          "velocity": 100
        },
        {
          "pitch": 72,
          "onset": 13.25,
          "duration": 0.5,
          "velocity": 100
        },
        {
          "pitch": 54,
          "onset": 13.5,
          "duration": 0.5,
          "velocity": 100
        },
        {
          "pitch": 73,
          "onset": 13.75,
          "duration": 0.25,
          "velocity": 100
        },
        {
          "pitch": 53,
          "onset": 14.0,
          "duration": 1.1562,
          "velocity": 100
        },
        {
          "pitch": 80,
          "onset": 14.0,
          "duration": 0.1562,
          "velocity": 100
        },
        {
          "pitch": 71,
          "onset": 14.1562,
          "duration": 0.1562,
          "velocity": 100
        },
        {
          "pitch": 73,
          "onset": 14.3438,
          "duration": 0.1562,
          "velocity": 100
        },
        {
          "pitch": 74,
          "onset": 14.5,
          "duration": 0.1562,
          "velocity": 100
        },
        {
          "pitch": 73,
          "onset": 14.6562,
          "duration": 0.1562,
          "velocity": 100
        },
        {
          "pitch": 71,
          "onset": 14.8438,
          "duration": 0.1562,
          "velocity": 100
        },
        {
          "pitch": 69,
          "onset": 15.0,
          "duration": 1.1562,
          "velocity": 100
        },
        {
          "pitch": 53,
          "onset": 15.1562,
          "duration": 0.1562,
          "velocity": 100
        },
        {
          "pitch": 54,
          "onset": 15.3438,
          "duration": 0.1562,
          "velocity": 100
        },
        {
          "pitch": 56,
          "onset": 15.5,
          "duration": 0.1562,
          "velocity": 100
        },
        {
          "pitch": 54,
          "onset": 15.6562,
          "duration": 0.1562,
          "velocity": 100
        },
        {
          "pitch": 53,
          "onset": 15.8438,
          "duration": 0.1562,
          "velocity": 100
        },
        {
          "pitch": 54,
          "onset": 16.0,
          "duration": 0.1562,
          "velocity": 100
        },
        {
          "pitch": 56,
          "onset": 16.1562,
          "duration": 0.1562,
          "velocity": 100
        },
        {
          "pitch": 68,
          "onset": 16.1562,
          "duration": 0.1562,
          "velocity": 100
        },
        {
          "pitch": 57,
          "onset": 16.3438,
          "duration": 0.1562,
          "velocity": 100
        },
        {
          "pitch": 66,
          "onset": 16.3438,
          "duration": 0.1562,
          "velocity": 100
        },
        {
          "pitch": 59,
          "onset": 16.5,
          "duration": 0.1562,
          "velocity": 100
        },
        {
          "pitch": 65,
          "onset": 16.5,
          "duration": 0.1562,
          "velocity": 100
        },
        {
          "pitch": 57,
          "onset": 16.6562,
          "duration": 0.1562,
          "velocity": 100
        },
        {
          "pitch": 66,
          "onset": 16.6562,
          "duration": 0.1562,
          "velocity": 100
        },
        {
          "pitch": 56,
          "onset": 16.8438,
          "duration": 0.1562,
          "velocity": 100
        },
        {
          "pitch": 68,
          "onset": 16.8438,
          "duration": 0.1562,
          "velocity": 100
        },
        {
          "pitch": 57,
          "onset": 17.0,
          "duration": 1.1562,
          "velocity": 100
        },
        {
          "pitch": 66,
          "onset": 17.0,
          "duration": 0.1562,
          "velocity": 100
        },
        {
          "pitch": 65,
          "onset": 17.1562,
          "duration": 0.1562,
          "velocity": 100
        },
        {
          "pitch": 66,
          "onset": 17.3438,
          "duration": 0.1562,
          "velocity": 100
        },
        {
          "pitch": 48,
          "onset": 17.5,
          "duration": 0.5,
          "velocity": 100
        },
        {
          "pitch": 75,
          "onset": 17.5,
          "duration": 0.3125,
          "velocity": 100
        },
        {
          "pitch": 66,
          "onset": 17.8438,
          "duration": 0.1562,
          "velocity": 100
        },
        {
          "pitch": 49,
          "onset": 18.0,
          "duration": 1.5,
          "velocity": 100
        },
        {
          "pitch": 66,
          "onset": 18.0,
          "duration": 0.6562,
          "velocity": 100
        },
        {
          "pitch": 56,
          "onset": 18.1562,
          "duration": 0.1562,
          "velocity": 100
        },
        {
          "pitch": 54,
          "onset": 18.3438,
          "duration": 0.1562,
          "velocity": 100
        },
        {
          "pitch": 56,
          "onset": 18.5,
          "duration": 1.5,
          "velocity": 100
        },
        {
          "pitch": 65,
          "onset": 18.6562,
          "duration": 0.1562,
          "velocity": 100
        },
        {
          "pitch": 63,
          "onset": 18.8438,
          "duration": 0.1562,
          "velocity": 100
        },
        {
          "pitch": 65,
          "onset": 19.0,
          "duration": 0.1562,
          "velocity": 100
        },
        {
          "pitch": 61,
          "onset": 19.1562,
          "duration": 0.1562,
          "velocity": 100
        },
        {
          "pitch": 63,
          "onset": 19.3438,
          "duration": 0.1562,
          "velocity": 100
        },
        {
          "pitch": 49,
          "onset": 19.5,
          "duration": 0.5,
          "velocity": 100
        },
        {
          "pitch": 65,
          "onset": 19.5,
          "duration": 0.1562,
          "velocity": 100
        },
        {
          "pitch": 66,
          "onset": 19.6562,
          "duration": 0.1562,
          "velocity": 100
        },
        {
          "pitch": 68,
          "onset": 19.8438,
          "duration": 0.1562,
          "velocity": 100
        },
        {
          "pitch": 51,
          "onset": 20.0,
          "duration": 0.5,
          "velocity": 100
        },
        {
          "pitch": 66,
          "onset": 20.0,
          "duration": 0.1562,
          "velocity": 100
        },
        {
          "pitch": 65,
          "onset": 20.1562,
          "duration": 0.1562,
          "velocity": 100
        },
        {
          "pitch": 66,
          "onset": 20.3438,
          "duration": 0.1562,
          "velocity": 100
        },
        {
          "pitch": 53,
          "onset": 20.5,
          "duration": 0.5,
          "velocity": 100
        },
        {
          "pitch": 68,
          "onset": 20.5,
          "duration": 0.1562,
          "velocity": 100
        },
        {
          "pitch": 69,
          "onset": 20.6562,
          "duration": 0.1562,
          "velocity": 100
        },
        {
          "pitch": 71,
          "onset": 20.8438,
          "duration": 0.1562,
          "velocity": 100
        },
        {
          "pitch": 54,
          "onset": 21.0,
          "duration": 0.5,
          "velocity": 100
        },
        {
          "pitch": 69,
          "onset": 21.0,
          "duration": 0.1562,
          "velocity": 100
        },
        {
          "pitch": 68,
          "onset": 21.1562,
          "duration": 0.1562,
          "velocity": 100
        },
        {
          "pitch": 66,
          "onset": 21.3438,
          "duration": 0.3125,
          "velocity": 100
        },
        {
          "pitch": 42,
          "onset": 21.5,
          "duration": 0.5,
          "velocity": 100
        },
        {
          "pitch": 69,
          "onset": 21.6562,
          "duration": 0.1562,
          "velocity": 100
        },
        {
          "pitch": 73,
          "onset": 21.8438,
          "duration": 0.1562,
          "velocity": 100
        },
        {
          "pitch": 45,
          "onset": 22.0,
          "duration": 0.5,
          "velocity": 100
        },
        {
          "pitch": 78,
          "onset": 22.0,
          "duration": 0.1562,
          "velocity": 100
        },
        {
          "pitch": 73,
          "onset": 22.1562,
          "duration": 0.1562,
          "velocity": 100
        },
        {
          "pitch": 75,
          "onset": 22.3438,
          "duration": 0.1562,
          "velocity": 100
        },
        {
          "pitch": 49,
          "onset": 22.5,
          "duration": 0.5,
          "velocity": 100
        },
        {
          "pitch": 77,
          "onset": 22.5,
          "duration": 0.1562,
          "velocity": 100
        },
        {
          "pitch": 78,
          "onset": 22.6562,
          "duration": 0.1562,
          "velocity": 100
        },
        {
          "pitch": 80,
          "onset": 22.8438,
          "duration": 0.1562,
          "velocity": 100
        },
        {
          "pitch": 54,
          "onset": 23.0,
          "duration": 1.5,
          "velocity": 100
        },
        {
          "pitch": 81,
          "onset": 23.0,
          "duration": 0.1562,
          "velocity": 100
        },
        {
          "pitch": 80,
          "onset": 23.1562,
          "duration": 0.1562,
          "velocity": 100
        },
        {
          "pitch": 78,
          "onset": 23.3438,
          "duration": 0.1562,
          "velocity": 100
        },
        {
          "pitch": 57,
          "onset": 23.5,
          "duration": 1.25,
          "velocity": 100
        },
        {
          "pitch": 80,
          "onset": 23.5,
          "duration": 0.1562,
          "velocity": 100
        },
        {
          "pitch": 78,
          "onset": 23.6562,
          "duration": 0.1562,
          "velocity": 100
        },
        {
          "pitch": 76,
          "onset": 23.8438,
          "duration": 0.1562,
          "velocity": 100
        },
        {
          "pitch": 75,
          "onset": 24.0,
          "duration": 0.25,
          "velocity": 100
        },
        {
          "pitch": 76,
          "onset": 24.25,
          "duration": 0.25,
          "velocity": 100
        },
        {
          "pitch": 51,
          "onset": 24.5,
          "duration": 0.5,
          "velocity": 100
        },
        {
          "pitch": 78,
          "onset": 24.5,
          "duration": 0.75,
          "velocity": 100
        },
        {
          "pitch": 57,
          "onset": 24.75,
          "duration": 0.25,
          "velocity": 100
        },
        {
          "pitch": 48,
          "onset": 25.0,
          "duration": 1.0,
          "velocity": 100
        },
        {
          "pitch": 56,
          "onset": 25.0,
          "duration": 0.5,
          "velocity": 100
        },
        {
          "pitch": 76,
          "onset": 25.25,
          "duration": 0.25,
          "velocity": 100
        },
        {
          "pitch": 54,
          "onset": 25.5,
          "duration": 0.5,
          "velocity": 100
        },
        {
          "pitch": 75,
          "onset": 25.5,
          "duration": 0.25,
          "velocity": 100
        },
        {
          "pitch": 81,
          "onset": 25.75,
          "duration": 0.25,
          "velocity": 100
        },
        {
          "pitch": 52,
          "onset": 26.0,
          "duration": 0.5,
          "velocity": 100
        },
        {
          "pitch": 80,
          "onset": 26.0,
          "duration": 0.1562,
          "velocity": 100
        },
        {
          "pitch": 78,
          "onset": 26.1562,
          "duration": 0.1562,
          "velocity": 100
        },
        {
          "pitch": 76,
          "onset": 26.3438,
          "duration": 0.1562,
          "velocity": 100
        },
        {
          "pitch": 44,
          "onset": 26.5,
          "duration": 0.5,
          "velocity": 100
        },
        {
          "pitch": 51,
          "onset": 26.5,
          "duration": 0.5,
          "velocity": 100
        },
        {
          "pitch": 78,
          "onset": 26.5,
          "duration": 0.1562,
          "velocity": 100
        },
        {
          "pitch": 76,
          "onset": 26.6562,
          "duration": 0.1562,
          "velocity": 100
        },
        {
          "pitch": 75,
          "onset": 26.8438,
          "duration": 0.1562,
          "velocity": 100
        },
        {
          "pitch": 49,
          "onset": 27.0,
          "duration": 2.5,
          "velocity": 100
        },
        {
          "pitch": 76,
          "onset": 27.0,
          "duration": 0.25,
          "velocity": 100
        },
        {
          "pitch": 75,
          "onset": 27.25,
          "duration": 0.25,
          "velocity": 100
        },
        {
          "pitch": 73,
          "onset": 27.5,
          "duration": 0.75,
          "velocity": 100
        },
        {
          "pitch": 47,
          "onset": 27.75,
          "duration": 0.25,
          "velocity": 100
        },
        {
          "pitch": 45,
          "onset": 28.0,
          "duration": 0.5,
          "velocity": 100
        },
        {
          "pitch": 75,
          "onset": 28.25,
          "duration": 0.25,
          "velocity": 100
        },
        {
          "pitch": 44,
          "onset": 28.5,
          "duration": 0.5,
          "velocity": 100
        },
        {
          "pitch": 73,
          "onset": 28.5,
          "duration": 0.25,
          "velocity": 100
        },
        {
          "pitch": 72,
          "onset": 28.75,
          "duration": 0.25,
          "velocity": 100
        },
        {
          "pitch": 42,
          "onset": 29.0,
          "duration": 1.5,
          "velocity": 100
        },
        {
          "pitch": 73,
          "onset": 29.0,
          "duration": 0.25,
          "velocity": 100
        },
        {
          "pitch": 76,
          "onset": 29.25,
          "duration": 0.25,
          "velocity": 100
        },
        {
          "pitch": 49,
          "onset": 29.5,
          "duration": 0.5,
          "velocity": 100
        },
        {
          "pitch": 69,
          "onset": 29.5,
          "duration": 0.25,
          "velocity": 100
        },
        {
          "pitch": 68,
          "onset": 29.75,
          "duration": 0.25,
          "velocity": 100
        },
        {
          "pitch": 54,
          "onset": 30.0,
          "duration": 1.0,
          "velocity": 100
        },
        {
          "pitch": 69,
          "onset": 30.0,
          "duration": 0.25,
          "velocity": 100
        },
        {
          "pitch": 72,
          "onset": 30.25,
          "duration": 0.25,
          "velocity": 100
        },
        {
          "pitch": 44,
          "onset": 30.5,
          "duration": 0.5,
          "velocity": 100
        },
        {
          "pitch": 66,
          "onset": 30.5,
          "duration": 0.25,
          "velocity": 100
        },
        {
          "pitch": 64,
          "onset": 30.75,
          "duration": 0.25,
          "velocity": 100
        },
        {
          "pitch": 45,
          "onset": 31.0,
          "duration": 0.5,
          "velocity": 100
        },
        {
          "pitch": 66,
          "onset": 31.0,
          "duration": 0.25,
          "velocity": 100
        },
        {
          "pitch": 72,
          "onset": 31.25,
          "duration": 0.25,
          "velocity": 100
        },
        {
          "pitch": 42,
          "onset": 31.5,
          "duration": 0.5,
          "velocity": 100
        },
        {
          "pitch": 73,
          "onset": 31.5,
          "duration": 0.25,
          "velocity": 100
        },
        {
          "pitch": 75,
          "onset": 31.75,
          "duration": 0.25,
          "velocity": 100
        },
        {
          "pitch": 44,
          "onset": 32.0,
          "duration": 1.0,
          "velocity": 100
        },
        {
          "pitch": 76,
          "onset": 32.0,
          "duration": 0.1562,
          "velocity": 100
        },
        {
          "pitch": 75,
          "onset": 32.1562,
          "duration": 0.1562,
          "velocity": 100
        },
        {
          "pitch": 73,
          "onset": 32.3438,
          "duration": 0.1562,
          "velocity": 100
        },
        {
          "pitch": 54,
          "onset": 32.5,
          "duration": 1.0,
          "velocity": 100
        },
        {
          "pitch": 75,
          "onset": 32.5,
          "duration": 0.1562,
          "velocity": 100
        },
        {
          "pitch": 73,
          "onset": 32.6562,
          "duration": 0.1562,
          "velocity": 100
        },
        {
          "pitch": 72,
          "onset": 32.8438,
          "duration": 0.1562,
          "velocity": 100
        },
        {
          "pitch": 49,
          "onset": 33.0,
          "duration": 1.75,
          "velocity": 100
        },
        {
          "pitch": 73,
          "onset": 33.0,
          "duration": 0.5,
          "velocity": 100
        },
        {
          "pitch": 52,
          "onset": 33.5,
          "duration": 0.5,
          "velocity": 100
        },
        {
          "pitch": 68,
          "onset": 33.5,
          "duration": 1.0,
          "velocity": 100
        },
        {
          "pitch": 56,
          "onset": 34.0,
          "duration": 0.5,
          "velocity": 100
        },
        {
          "pitch": 61,
          "onset": 34.5,
          "duration": 1.0,
          "velocity": 100
        },
        {
          "pitch": 64,
          "onset": 34.5,
          "duration": 0.25,
          "velocity": 100
        },
        {
          "pitch": 51,
          "onset": 34.75,
          "duration": 0.25,
          "velocity": 100
        },
        {
          "pitch": 66,
          "onset": 34.75,
          "duration": 0.25,
          "velocity": 100
        },
        {
          "pitch": 52,
          "onset": 35.0,
          "duration": 0.5,
          "velocity": 100
        },
        {
          "pitch": 68,
          "onset": 35.0,
          "duration": 0.1562,
          "velocity": 100
        },
        {
          "pitch": 66,
          "onset": 35.1562,
          "duration": 0.1562,
          "velocity": 100
        },
        {
          "pitch": 64,
          "onset": 35.3438,
          "duration": 0.1562,
          "velocity": 100
        },
        {
          "pitch": 56,
          "onset": 35.5,
          "duration": 0.5,
          "velocity": 100
        },
        {
          "pitch": 60,
          "onset": 35.5,
          "duration": 0.5,
          "velocity": 100
        },
        {
          "pitch": 66,
          "onset": 35.5,
          "duration": 0.1562,
          "velocity": 100
        },
        {
          "pitch": 64,
          "onset": 35.6562,
          "duration": 0.1562,
          "velocity": 100
        },
        {
          "pitch": 63,
          "onset": 35.8438,
          "duration": 0.1562,
          "velocity": 100
        },
        {
          "pitch": 49,
          "onset": 36.0,
          "duration": 1.75,
          "velocity": 100
        },
        {
          "pitch": 61,
          "onset": 36.0,
          "duration": 0.5,
          "velocity": 100
        },
        {
          "pitch": 64,
          "onset": 36.0,
          "duration": 0.25,
          "velocity": 100
        },
        {
          "pitch": 66,
          "onset": 36.25,
          "duration": 0.25,
          "velocity": 100
        },
        {
          "pitch": 56,
          "onset": 36.5,
          "duration": 0.75,
          "velocity": 100
        },
        {
          "pitch": 64,
          "onset": 36.5,
          "duration": 0.25,
          "velocity": 100
        },
        {
          "pitch": 63,
          "onset": 36.75,
          "duration": 0.25,
          "velocity": 100
        },
        {
          "pitch": 64,
          "onset": 37.0,
          "duration": 0.25,
          "velocity": 100
        },
        {
          "pitch": 54,
          "onset": 37.25,
          "duration": 0.25,
          "velocity": 100
        },
        {
          "pitch": 68,
          "onset": 37.25,
          "duration": 0.25,
          "velocity": 100
        },
        {
          "pitch": 52,
          "onset": 37.5,
          "duration": 0.5,
          "velocity": 100
        },
        {
          "pitch": 73,
          "onset": 37.5,
          "duration": 0.25,
          "velocity": 100
        },
        {
          "pitch": 47,
          "onset": 37.75,
          "duration": 0.25,
          "velocity": 100
        },
        {
          "pitch": 75,
          "onset": 37.75,
          "duration": 0.25,
          "velocity": 100
        },
        {
          "pitch": 46,
          "onset": 38.0,
          "duration": 0.5,
          "velocity": 100
        },
        {
          "pitch": 76,
          "onset": 38.0,
          "duration": 0.1562,
          "velocity": 100
        },
        {
          "pitch": 79,
          "onset": 38.1562,
          "duration": 0.1562,
          "velocity": 100
        },
        {
          "pitch": 78,
          "onset": 38.3438,
          "duration": 0.1562,
          "velocity": 100
        },
        {
          "pitch": 49,
          "onset": 38.5,
          "duration": 0.5,
          "velocity": 100
        },
        {
          "pitch": 52,
          "onset": 38.5,
          "duration": 1.0,
          "velocity": 100
        },
        {
          "pitch": 76,
          "onset": 38.5,
          "duration": 0.1562,
          "velocity": 100
        },
        {
          "pitch": 74,
          "onset": 38.6562,
          "duration": 0.1562,
          "velocity": 100
        },
        {
          "pitch": 73,
          "onset": 38.8438,
          "duration": 0.1562,
          "velocity": 100
        },
        {
          "pitch": 42,
          "onset": 39.0,
          "duration": 1.0,
          "velocity": 100
        },
        {
          "pitch": 71,
          "onset": 39.0,
          "duration": 0.1562,
          "velocity": 100
        },
        {
          "pitch": 70,
          "onset": 39.1562,
          "duration": 0.1562,
          "velocity": 100
        },
        {
          "pitch": 73,
          "onset": 39.3438,
          "duration": 0.1562,
          "velocity": 100
        },
        {
          "pitch": 49,
          "onset": 39.5,
          "duration": 0.5,
          "velocity": 100
        },
        {
          "pitch": 64,
          "onset": 39.5,
          "duration": 0.625,
          "velocity": 100
        },
        {
          "pitch": 54,
          "onset": 40.0,
          "duration": 2.5,
          "velocity": 100
        },
        {
          "pitch": 66,
          "onset": 40.125,
          "duration": 0.125,
          "velocity": 100
        },
        {
          "pitch": 64,
          "onset": 40.25,
          "duration": 0.125,
          "velocity": 100
        },
        {
          "pitch": 63,
          "onset": 40.375,
          "duration": 0.125,
          "velocity": 100
        },
        {
          "pitch": 49,
          "onset": 40.5,
          "duration": 0.5,
          "velocity": 100
        },
        {
          "pitch": 64,
          "onset": 40.5,
          "duration": 0.25,
          "velocity": 100
        },
        {
          "pitch": 64,
          "onset": 40.75,
          "duration": 0.5,
          "velocity": 100
        },
        {
          "pitch": 46,
          "onset": 41.0,
          "duration": 0.5,
          "velocity": 100
        },
        {
          "pitch": 70,
          "onset": 41.25,
          "duration": 0.25,
          "velocity": 100
        },
        {
          "pitch": 42,
          "onset": 41.5,
          "duration": 0.5,
          "velocity": 100
        },
        {
          "pitch": 71,
          "onset": 41.5,
          "duration": 0.25,
          "velocity": 100
        },
        {
          "pitch": 73,
          "onset": 41.75,
          "duration": 0.25,
          "velocity": 100
        },
        {
          "pitch": 47,
          "onset": 42.0,
          "duration": 1.5,
          "velocity": 100
        },
        {
          "pitch": 62,
          "onset": 42.0,
          "duration": 0.25,
          "velocity": 100
        },
        {
          "pitch": 64,
          "onset": 42.25,
          "duration": 0.25,
          "velocity": 100
        },
        {
          "pitch": 54,
          "onset": 42.5,
          "duration": 0.5,
          "velocity": 100
        },
        {
          "pitch": 62,
          "onset": 42.5,
          "duration": 0.25,
          "velocity": 100
        },
        {
          "pitch": 61,
          "onset": 42.75,
          "duration": 0.25,
          "velocity": 100
        },
        {
          "pitch": 62,
          "onset": 43.0,
          "duration": 0.25,
          "velocity": 100
        },
        {
          "pitch": 54,
          "onset": 43.25,
          "duration": 0.5,
          "velocity": 100
        },
        {
          "pitch": 66,
          "onset": 43.25,
          "duration": 0.25,
          "velocity": 100
        },
        {
          "pitch": 50,
          "onset": 43.5,
          "duration": 0.5,
          "velocity": 100
        },
        {
          "pitch": 71,
          "onset": 43.5,
          "duration": 0.25,
          "velocity": 100
        },
        {
          "pitch": 54,
          "onset": 43.75,
          "duration": 0.5,
          "velocity": 100
        },
        {
          "pitch": 73,
          "onset": 43.75,
          "duration": 0.25,
          "velocity": 100
        },
        {
          "pitch": 47,
          "onset": 44.0,
          "duration": 0.25,
          "velocity": 100
        },
        {
          "pitch": 74,
          "onset": 44.0,
          "duration": 0.1562,
          "velocity": 100
        },
        {
          "pitch": 78,
          "onset": 44.1562,
          "duration": 0.1562,
          "velocity": 100
        },
        {
          "pitch": 50,
          "onset": 44.25,
          "duration": 1.25,
          "velocity": 100
        },
        {
          "pitch": 76,
          "onset": 44.3438,
          "duration": 0.1562,
          "velocity": 100
        },
        {
          "pitch": 44,
          "onset": 44.5,
          "duration": 0.25,
          "velocity": 100
        },
        {
          "pitch": 74,
          "onset": 44.5,
          "duration": 0.1562,
          "velocity": 100
        },
        {
          "pitch": 73,
          "onset": 44.6562,
          "duration": 0.1562,
          "velocity": 100
        },
        {
          "pitch": 47,
          "onset": 44.75,
          "duration": 0.25,
          "velocity": 100
        },
        {
          "pitch": 71,
          "onset": 44.8438,
          "duration": 0.1562,
          "velocity": 100
        },
        {
          "pitch": 40,
          "onset": 45.0,
          "duration": 1.0,
          "velocity": 100
        },
        {
          "pitch": 69,
          "onset": 45.0,
          "duration": 0.1562,
          "velocity": 100
        },
        {
          "pitch": 68,
          "onset": 45.1562,
          "duration": 0.1562,
          "velocity": 100
        },
        {
          "pitch": 71,
          "onset": 45.3438,
          "duration": 0.1562,
          "velocity": 100
        },
        {
          "pitch": 47,
          "onset": 45.5,
          "duration": 0.5,
          "velocity": 100
        },
        {
          "pitch": 62,
          "onset": 45.5,
          "duration": 0.625,
          "velocity": 100
        },
        {
          "pitch": 52,
          "onset": 46.0,
          "duration": 2.5,
          "velocity": 100
        },
        {
          "pitch": 64,
          "onset": 46.125,
          "duration": 0.125,
          "velocity": 100
        },
        {
          "pitch": 62,
          "onset": 46.25,
          "duration": 0.125,
          "velocity": 100
        },
        {
          "pitch": 61,
          "onset": 46.375,
          "duration": 0.125,
          "velocity": 100
        },
        {
          "pitch": 47,
          "onset": 46.5,
          "duration": 0.5,
          "velocity": 100
        },
        {
          "pitch": 62,
          "onset": 46.5,
          "duration": 0.25,
          "velocity": 100
        },
        {
          "pitch": 62,
          "onset": 46.75,
          "duration": 0.5,
          "velocity": 100
        },
        {
          "pitch": 44,
          "onset": 47.0,
          "duration": 0.5,
          "velocity": 100
        },
        {
          "pitch": 68,
          "onset": 47.25,
          "duration": 0.25,
          "velocity": 100
        },
        {
          "pitch": 40,
          "onset": 47.5,
          "duration": 0.5,
          "velocity": 100
        },
        {
          "pitch": 69,
          "onset": 47.5,
          "duration": 0.25,
          "velocity": 100
        },
        {
          "pitch": 71,
          "onset": 47.75,
          "duration": 0.25,
          "velocity": 100
        },
        {
          "pitch": 45,
          "onset": 48.0,
          "duration": 1.0,
          "velocity": 100
        },
        {
          "pitch": 61,
          "onset": 48.0,
          "duration": 0.25,
          "velocity": 100
        },
        {
          "pitch": 62,
          "onset": 48.25,
          "duration": 0.25,
          "velocity": 100
        },
        {
          "pitch": 52,
          "onset": 48.5,
          "duration": 0.5,
          "velocity": 100
        },
        {
          "pitch": 61,
          "onset": 48.5,
          "duration": 0.25,
          "velocity": 100
        },
        {
          "pitch": 59,
          "onset": 48.75,
          "duration": 0.25,
          "velocity": 100
        },
        {
          "pitch": 57,
          "onset": 49.0,
          "duration": 0.5,
          "velocity": 100
        },
        {
          "pitch": 61,
          "onset": 49.0,
          "duration": 0.25,
          "velocity": 100
        },
        {
          "pitch": 64,
          "onset": 49.25,
          "duration": 0.25,
          "velocity": 100
        },
        {
          "pitch": 56,
          "onset": 49.5,
          "duration": 0.5,
          "velocity": 100
        },
        {
          "pitch": 69,
          "onset": 49.5,
          "duration": 0.25,
          "velocity": 100
        },
        {
          "pitch": 71,
          "onset": 49.75,
          "duration": 0.25,
          "velocity": 100
        },
        {
          "pitch": 57,
          "onset": 50.0,
          "duration": 1.5,
          "velocity": 100
        },
        {
          "pitch": 73,
          "onset": 50.0,
          "duration": 1.25,
          "velocity": 100
        },
        {
          "pitch": 52,
          "onset": 50.25,
          "duration": 0.25,
          "velocity": 100
        },
        {
          "pitch": 49,
          "onset": 50.5,
          "duration": 0.25,
          "velocity": 100
        },
        {
          "pitch": 45,
          "onset": 50.75,
          "duration": 0.25,
          "velocity": 100
        },
        {
          "pitch": 50,
          "onset": 51.0,
          "duration": 1.5,
          "velocity": 100
        },
        {
          "pitch": 67,
          "onset": 51.25,
          "duration": 0.25,
          "velocity": 100
        },
        {
          "pitch": 57,
          "onset": 51.5,
          "duration": 0.5,
          "velocity": 100
        },
        {
          "pitch": 66,
          "onset": 51.5,
          "duration": 0.25,
          "velocity": 100
        },
        {
          "pitch": 64,
          "onset": 51.75,
          "duration": 0.25,
          "velocity": 100
        },
        {
          "pitch": 62,
          "onset": 52.0,
          "duration": 0.5,
          "velocity": 100
        },
        {
          "pitch": 66,
          "onset": 52.0,
          "duration": 0.25,
          "velocity": 100
        },
        {
          "pitch": 69,
          "onset": 52.25,
          "duration": 0.25,
          "velocity": 100
        },
        {
          "pitch": 54,
          "onset": 52.5,
          "duration": 0.5,
          "velocity": 100
        },
        {
          "pitch": 57,
          "onset": 52.5,
          "duration": 0.75,
          "velocity": 100
        },
        {
          "pitch": 74,
          "onset": 52.5,
          "duration": 0.25,
          "velocity": 100
        },
        {
          "pitch": 76,
          "onset": 52.75,
          "duration": 0.25,
          "velocity": 100
        },
        {
          "pitch": 51,
          "onset": 53.0,
          "duration": 0.5,
          "velocity": 100
        },
        {
          "pitch": 78,
          "onset": 53.0,
          "duration": 1.25,
          "velocity": 100
        },
        {
          "pitch": 54,
          "onset": 53.25,
          "duration": 0.25,
          "velocity": 100
        },
        {
          "pitch": 47,
          "onset": 53.5,
          "duration": 0.5,
          "velocity": 100
        },
        {
          "pitch": 56,
          "onset": 53.5,
          "duration": 0.25,
          "velocity": 100
        },
        {
          "pitch": 57,
          "onset": 53.75,
          "duration": 0.25,
          "velocity": 100
        },
        {
          "pitch": 52,
          "onset": 54.0,
          "duration": 2.5,
          "velocity": 100
        },
        {
          "pitch": 56,
          "onset": 54.0,
          "duration": 0.5,
          "velocity": 100
        },
        {
          "pitch": 69,
          "onset": 54.25,
          "duration": 0.25,
          "velocity": 100
        },
        {
          "pitch": 59,
          "onset": 54.5,
          "duration": 0.5,
          "velocity": 100
        },
        {
          "pitch": 68,
          "onset": 54.5,
          "duration": 0.25,
          "velocity": 100
        },
        {
          "pitch": 66,
          "onset": 54.75,
          "duration": 0.25,
          "velocity": 100
        },
        {
          "pitch": 64,
          "onset": 55.0,
          "duration": 0.5,
          "velocity": 100
        },
        {
          "pitch": 68,
          "onset": 55.0,
          "duration": 0.25,
          "velocity": 100
        },
        {
          "pitch": 71,
          "onset": 55.25,
          "duration": 0.25,
          "velocity": 100
        },
        {
          "pitch": 59,
          "onset": 55.5,
          "duration": 0.5,
          "velocity": 100
        },
        {
          "pitch": 76,
          "onset": 55.5,
          "duration": 0.25,
          "velocity": 100
        },
        {
          "pitch": 80,
          "onset": 55.75,
          "duration": 0.25,
          "velocity": 100
        },
        {
          "pitch": 56,
          "onset": 56.0,
          "duration": 1.0,
          "velocity": 100
        },
        {
          "pitch": 83,
          "onset": 56.0,
          "duration": 0.25,
          "velocity": 100
        },
        {
          "pitch": 74,
          "onset": 56.25,
          "duration": 0.25,
          "velocity": 100
        },
        {
          "pitch": 52,
          "onset": 56.5,
          "duration": 0.5,
          "velocity": 100
        },
        {
          "pitch": 73,
          "onset": 56.5,
          "duration": 0.25,
          "velocity": 100
        },
        {
          "pitch": 71,
          "onset": 56.75,
          "duration": 0.25,
          "velocity": 100
        },
        {
          "pitch": 45,
          "onset": 57.0,
          "duration": 0.5,
          "velocity": 100
        },
        {
          "pitch": 57,
          "onset": 57.0,
          "duration": 0.5,
          "velocity": 100
        },
        {
          "pitch": 73,
          "onset": 57.0,
          "duration": 0.25,
          "velocity": 100
        },
        {
          "pitch": 78,
          "onset": 57.25,
          "duration": 0.25,
          "velocity": 100
        },
        {
          "pitch": 47,
          "onset": 57.5,
          "duration": 0.5,
          "velocity": 100
        },
        {
          "pitch": 56,
          "onset": 57.5,
          "duration": 0.75,
          "velocity": 100
        },
        {
          "pitch": 76,
          "onset": 57.5,
          "duration": 0.25,
          "velocity": 100
        },
        {
          "pitch": 75,
          "onset": 57.75,
          "duration": 0.25,
          "velocity": 100
        },
        {
          "pitch": 49,
          "onset": 58.0,
          "duration": 0.5,
          "velocity": 100
        },
        {
          "pitch": 76,
          "onset": 58.0,
          "duration": 0.25,
          "velocity": 100
        },
        {
          "pitch": 57,
          "onset": 58.25,
          "duration": 0.5,
          "velocity": 100
        },
        {
          "pitch": 73,
          "onset": 58.25,
          "duration": 0.25,
          "velocity": 100
        },
        {
          "pitch": 50,
          "onset": 58.5,
          "duration": 0.5,
          "velocity": 100
        },
        {
          "pitch": 71,
          "onset": 58.5,
          "duration": 0.25,
          "velocity": 100
        },
        {
          "pitch": 59,
          "onset": 58.75,
          "duration": 0.5,
          "velocity": 100
        },
        {
          "pitch": 69,
          "onset": 58.75,
          "duration": 0.25,
          "velocity": 100
        },
        {
          "pitch": 52,
          "onset": 59.0,
          "duration": 0.5,
          "velocity": 100
        },
        {
          "pitch": 73,
          "onset": 59.0,
          "duration": 0.25,
          "velocity": 100
        },
        {
          "pitch": 57,
          "onset": 59.25,
          "duration": 0.5,
          "velocity": 100
        },
        {
          "pitch": 64,
          "onset": 59.25,
          "duration": 0.25,
          "velocity": 100
        },
        {
          "pitch": 52,
          "onset": 59.5,
          "duration": 0.5,
          "velocity": 100
        },
        {
          "pitch": 71,
          "onset": 59.5,
          "duration": 0.25,
          "velocity": 100
        },
        {
          "pitch": 56,
          "onset": 59.75,
          "duration": 0.25,
          "velocity": 100
        },
        {
          "pitch": 62,
          "onset": 59.75,
          "duration": 0.25,
          "velocity": 100
        },
        {
          "pitch": 57,
          "onset": 60.0,
          "duration": 1.0,
          "velocity": 100
        },
        {
          "pitch": 61,
          "onset": 60.0,
          "duration": 0.25,
          "velocity": 100
        },
        {
          "pitch": 64,
          "onset": 60.25,
          "duration": 0.25,
          "velocity": 100
        },
        {
          "pitch": 69,
          "onset": 60.5,
          "duration": 0.75,
          "velocity": 100
        },
        {
          "pitch": 52,
          "onset": 60.75,
          "duration": 0.25,
          "velocity": 100
        },
        {
          "pitch": 49,
          "onset": 61.0,
          "duration": 0.25,
          "velocity": 100
        },
        {
          "pitch": 45,
          "onset": 61.25,
          "duration": 0.25,
          "velocity": 100
        },
        {
          "pitch": 64,
          "onset": 61.25,
          "duration": 0.25,
          "velocity": 100
        },
        {
          "pitch": 49,
          "onset": 61.5,
          "duration": 0.25,
          "velocity": 100
        },
        {
          "pitch": 69,
          "onset": 61.5,
          "duration": 0.25,
          "velocity": 100
        },
        {
          "pitch": 52,
          "onset": 61.75,
          "duration": 0.25,
          "velocity": 100
        },
        {
          "pitch": 71,
          "onset": 61.75,
          "duration": 0.25,
          "velocity": 100
        },
        {
          "pitch": 57,
          "onset": 62.0,
          "duration": 1.0,
          "velocity": 100
        },
        {
          "pitch": 73,
          "onset": 62.0,
          "duration": 0.25,
          "velocity": 100
        },
        {
          "pitch": 69,
          "onset": 62.25,
          "duration": 0.25,
          "velocity": 100
        },
        {
          "pitch": 61,
          "onset": 62.5,
          "duration": 0.5,
          "velocity": 100
        },
        {
          "pitch": 66,
          "onset": 62.5,
          "duration": 0.25,
          "velocity": 100
        },
        {
          "pitch": 75,
          "onset": 62.75,
          "duration": 0.25,
          "velocity": 100
        },
        {
          "pitch": 55,
          "onset": 63.0,
          "duration": 0.5,
          "velocity": 100
        },
        {
          "pitch": 59,
          "onset": 63.0,
          "duration": 0.5,
          "velocity": 100
        },
        {
          "pitch": 76,
          "onset": 63.0,
          "duration": 0.25,
          "velocity": 100
        },
        {
          "pitch": 71,
          "onset": 63.25,
          "duration": 0.5,
          "velocity": 100
        },
        {
          "pitch": 54,
          "onset": 63.5,
          "duration": 0.5,
          "velocity": 100
        },
        {
          "pitch": 57,
          "onset": 63.5,
          "duration": 0.5,
          "velocity": 100
        },
        {
          "pitch": 75,
          "onset": 63.75,
          "duration": 0.25,
          "velocity": 100
        },
        {
          "pitch": 52,
          "onset": 64.0,
          "duration": 0.5,
          "velocity": 100
        },
        {
          "pitch": 55,
          "onset": 64.0,
          "duration": 0.5,
          "velocity": 100
        },
        {
          "pitch": 76,
          "onset": 64.0,
          "duration": 0.25,
          "velocity": 100
        },
        {
          "pitch": 71,
          "onset": 64.25,
          "duration": 0.5,
          "velocity": 100
        },
        {
          "pitch": 55,
          "onset": 64.5,
          "duration": 0.5,
          "velocity": 100
        },
        {
          "pitch": 59,
          "onset": 64.5,
          "duration": 0.5,
          "velocity": 100
        },
        {
          "pitch": 75,
          "onset": 64.75,
          "duration": 0.25,
          "velocity": 100
        },
        {
          "pitch": 49,
          "onset": 65.0,
          "duration": 0.5,
          "velocity": 100
        },
        {
          "pitch": 61,
          "onset": 65.0,
          "duration": 1.0,
          "velocity": 100
        },
        {
          "pitch": 76,
          "onset": 65.0,
          "duration": 0.25,
          "velocity": 100
        },
        {
          "pitch": 71,
          "onset": 65.25,
          "duration": 0.25,
          "velocity": 100
        },
        {
          "pitch": 54,
          "onset": 65.5,
          "duration": 0.5,
          "velocity": 100
        },
        {
          "pitch": 70,
          "onset": 65.5,
          "duration": 0.25,
          "velocity": 100
        },
        {
          "pitch": 76,
          "onset": 65.75,
          "duration": 0.25,
          "velocity": 100
        },
        {
          "pitch": 59,
          "onset": 66.0,
          "duration": 1.0,
          "velocity": 100
        },
        {
          "pitch": 74,
          "onset": 66.0,
          "duration": 0.0625,
          "velocity": 100
        },
        {
          "pitch": 76,
          "onset": 66.0312,
          "duration": 0.0625,
          "velocity": 100
        },
        {
          "pitch": 74,
          "onset": 66.0938,
          "duration": 0.1562,
          "velocity": 100
        },
        {
          "pitch": 73,
          "onset": 66.25,
          "duration": 0.25,
          "velocity": 100
        },
        {
          "pitch": 71,
          "onset": 66.5,
          "duration": 0.75,
          "velocity": 100
        },
        {
          "pitch": 54,
          "onset": 66.75,
          "duration": 0.25,
          "velocity": 100
        },
        {
          "pitch": 50,
          "onset": 67.0,
          "duration": 0.25,
          "velocity": 100
        },
        {
          "pitch": 47,
          "onset": 67.25,
          "duration": 0.25,
          "velocity": 100
        },
        {
          "pitch": 66,
          "onset": 67.25,
          "duration": 0.25,
          "velocity": 100
        },
        {
          "pitch": 50,
          "onset": 67.5,
          "duration": 0.25,
          "velocity": 100
        },
        {
          "pitch": 71,
          "onset": 67.5,
          "duration": 0.25,
          "velocity": 100
        },
        {
          "pitch": 54,
          "onset": 67.75,
          "duration": 0.25,
          "velocity": 100
        },
        {
          "pitch": 73,
          "onset": 67.75,
          "duration": 0.25,
          "velocity": 100
        },
        {
          "pitch": 59,
          "onset": 68.0,
          "duration": 1.0,
          "velocity": 100
        },
        {
          "pitch": 74,
          "onset": 68.0,
          "duration": 0.25,
          "velocity": 100
        },
        {
          "pitch": 71,
          "onset": 68.25,
          "duration": 0.25,
          "velocity": 100
        },
        {
          "pitch": 62,
          "onset": 68.5,
          "duration": 0.5,
          "velocity": 100
        },
        {
          "pitch": 68,
          "onset": 68.5,
          "duration": 0.25,
          "velocity": 100
        },
        {
          "pitch": 77,
          "onset": 68.75,
          "duration": 0.25,
          "velocity": 100
        },
        {
          "pitch": 57,
          "onset": 69.0,
          "duration": 0.5,
          "velocity": 100
        },
        {
          "pitch": 61,
          "onset": 69.0,
          "duration": 0.5,
          "velocity": 100
        },
        {
          "pitch": 78,
          "onset": 69.0,
          "duration": 0.25,
          "velocity": 100
        },
        {
          "pitch": 73,
          "onset": 69.25,
          "duration": 0.5,
          "velocity": 100
        },
        {
          "pitch": 56,
          "onset": 69.5,
          "duration": 0.5,
          "velocity": 100
        },
        {
          "pitch": 59,
          "onset": 69.5,
          "duration": 0.5,
          "velocity": 100
        },
        {
          "pitch": 77,
          "onset": 69.75,
          "duration": 0.25,
          "velocity": 100
        },
        {
          "pitch": 54,
          "onset": 70.0,
          "duration": 0.5,
          "velocity": 100
        },
        {
          "pitch": 57,
          "onset": 70.0,
          "duration": 0.5,
          "velocity": 100
        },
        {
          "pitch": 78,
          "onset": 70.0,
          "duration": 0.25,
          "velocity": 100
        },
        {
          "pitch": 73,
          "onset": 70.25,
          "duration": 0.5,
          "velocity": 100
        },
        {
          "pitch": 57,
          "onset": 70.5,
          "duration": 0.5,
          "velocity": 100
        },
        {
          "pitch": 61,
          "onset": 70.5,
          "duration": 0.5,
          "velocity": 100
        },
        {
          "pitch": 77,
          "onset": 70.75,
          "duration": 0.25,
          "velocity": 100
        },
        {
          "pitch": 51,
          "onset": 71.0,
          "duration": 0.5,
          "velocity": 100
        },
        {
          "pitch": 63,
          "onset": 71.0,
          "duration": 1.0,
          "velocity": 100
        },
        {
          "pitch": 78,
          "onset": 71.0,
          "duration": 0.25,
          "velocity": 100
        },
        {
          "pitch": 73,
          "onset": 71.25,
          "duration": 0.25,
          "velocity": 100
        },
        {
          "pitch": 56,
          "onset": 71.5,
          "duration": 0.5,
          "velocity": 100
        },
        {
          "pitch": 72,
          "onset": 71.5,
          "duration": 0.25,
          "velocity": 100
        },
        {
          "pitch": 78,
          "onset": 71.75,
          "duration": 0.25,
          "velocity": 100
        },
        {
          "pitch": 61,
          "onset": 72.0,
          "duration": 1.0,
          "velocity": 100
        },
        {
          "pitch": 76,
          "onset": 72.0,
          "duration": 0.0625,
          "velocity": 100
        },
        {
          "pitch": 78,
          "onset": 72.0312,
          "duration": 0.0625,
          "velocity": 100
        },
        {
          "pitch": 76,
          "onset": 72.0938,
          "duration": 0.1562,
          "velocity": 100
        },
        {
          "pitch": 75,
          "onset": 72.25,
          "duration": 0.25,
          "velocity": 100
        },
        {
          "pitch": 73,
          "onset": 72.5,
          "duration": 0.75,
          "velocity": 100
        },
        {
          "pitch": 56,
          "onset": 72.75,
          "duration": 0.25,
          "velocity": 100
        },
        {
          "pitch": 52,
          "onset": 73.0,
          "duration": 0.25,
          "velocity": 100
        },
        {
          "pitch": 49,
          "onset": 73.25,
          "duration": 0.25,
          "velocity": 100
        },
        {
          "pitch": 68,
          "onset": 73.25,
          "duration": 0.25,
          "velocity": 100
        },
        {
          "pitch": 52,
          "onset": 73.5,
          "duration": 0.25,
          "velocity": 100
        },
        {
          "pitch": 73,
          "onset": 73.5,
          "duration": 0.25,
          "velocity": 100
        },
        {
          "pitch": 56,
          "onset": 73.75,
          "duration": 0.25,
          "velocity": 100
        },
        {
          "pitch": 75,
          "onset": 73.75,
          "duration": 0.25,
          "velocity": 100
        },
        {
          "pitch": 61,
          "onset": 74.0,
          "duration": 1.5,
          "velocity": 100
        },
        {
          "pitch": 76,
          "onset": 74.0,
          "duration": 0.25,
          "velocity": 100
        },
        {
          "pitch": 73,
          "onset": 74.25,
          "duration": 0.25,
          "velocity": 100
        },
        {
          "pitch": 52,
          "onset": 74.5,
          "duration": 0.5,
          "velocity": 100
        },
        {
          "pitch": 70,
          "onset": 74.5,
          "duration": 0.25,
          "velocity": 100
        },
        {
          "pitch": 79,
          "onset": 74.75,
          "duration": 0.25,
          "velocity": 100
        },
        {
          "pitch": 50,
          "onset": 75.0,
          "duration": 1.0,
          "velocity": 100
        },
        {
          "pitch": 78,
          "onset": 75.0,
          "duration": 0.25,
          "velocity": 100
        },
        {
          "pitch": 74,
          "onset": 75.25,
          "duration": 0.25,
          "velocity": 100
        },
        {
          "pitch": 54,
          "onset": 75.5,
          "duration": 0.5,
          "velocity": 100
        },
        {
          "pitch": 71,
          "onset": 75.5,
          "duration": 0.25,
          "velocity": 100
        },
        {
          "pitch": 70,
          "onset": 75.75,
          "duration": 0.25,
          "velocity": 100
        },
        {
          "pitch": 50,
          "onset": 76.0,
          "duration": 0.25,
          "velocity": 100
        },
        {
          "pitch": 71,
          "onset": 76.0,
          "duration": 0.25,
          "velocity": 100
        },
        {
          "pitch": 47,
          "onset": 76.25,
          "duration": 0.25,
          "velocity": 100
        },
        {
          "pitch": 66,
          "onset": 76.25,
          "duration": 0.25,
          "velocity": 100
        },
        {
          "pitch": 50,
          "onset": 76.5,
          "duration": 0.25,
          "velocity": 100
        },
        {
          "pitch": 71,
          "onset": 76.5,
          "duration": 0.25,
          "velocity": 100
        },
        {
          "pitch": 54,
          "onset": 76.75,
          "duration": 0.25,
          "velocity": 100
        },
        {
          "pitch": 74,
          "onset": 76.75,
          "duration": 0.25,
          "velocity": 100
        },
        {
          "pitch": 59,
          "onset": 77.0,
          "duration": 0.5,
          "velocity": 100
        },
        {
          "pitch": 78,
          "onset": 77.0,
          "duration": 0.25,
          "velocity": 100
        },
        {
          "pitch": 74,
          "onset": 77.25,
          "duration": 0.25,
          "velocity": 100
        },
        {
          "pitch": 51,
          "onset": 77.5,
          "duration": 0.5,
          "velocity": 100
        },
        {
          "pitch": 54,
          "onset": 77.5,
          "duration": 0.5,
          "velocity": 100
        },
        {
          "pitch": 72,
          "onset": 77.5,
          "duration": 0.25,
          "velocity": 100
        },
        {
          "pitch": 81,
          "onset": 77.75,
          "duration": 0.25,
          "velocity": 100
        },
        {
          "pitch": 52,
          "onset": 78.0,
          "duration": 1.0,
          "velocity": 100
        },
        {
          "pitch": 61,
          "onset": 78.0,
          "duration": 0.5,
          "velocity": 100
        },
        {
          "pitch": 80,
          "onset": 78.0,
          "duration": 0.25,
          "velocity": 100
        },
        {
          "pitch": 76,
          "onset": 78.25,
          "duration": 0.25,
          "velocity": 100
        },
        {
          "pitch": 56,
          "onset": 78.5,
          "duration": 0.5,
          "velocity": 100
        },
        {
          "pitch": 73,
          "onset": 78.5,
          "duration": 0.25,
          "velocity": 100
        },
        {
          "pitch": 72,
          "onset": 78.75,
          "duration": 0.25,
          "velocity": 100
        },
        {
          "pitch": 52,
          "onset": 79.0,
          "duration": 0.25,
          "velocity": 100
        },
        {
          "pitch": 73,
          "onset": 79.0,
          "duration": 0.25,
          "velocity": 100
        },
        {
          "pitch": 49,
          "onset": 79.25,
          "duration": 0.25,
          "velocity": 100
        },
        {
          "pitch": 68,
          "onset": 79.25,
          "duration": 0.25,
          "velocity": 100
        },
        {
          "pitch": 52,
          "onset": 79.5,
          "duration": 0.25,
          "velocity": 100
        },
        {
          "pitch": 73,
          "onset": 79.5,
          "duration": 0.25,
          "velocity": 100
        },
        {
          "pitch": 56,
          "onset": 79.75,
          "duration": 0.25,
          "velocity": 100
        },
        {
          "pitch": 76,
          "onset": 79.75,
          "duration": 0.25,
          "velocity": 100
        },
        {
          "pitch": 61,
          "onset": 80.0,
          "duration": 0.5,
          "velocity": 100
        },
        {
          "pitch": 80,
          "onset": 80.0,
          "duration": 0.25,
          "velocity": 100
        },
        {
          "pitch": 76,
          "onset": 80.25,
          "duration": 0.25,
          "velocity": 100
        },
        {
          "pitch": 53,
          "onset": 80.5,
          "duration": 0.5,
          "velocity": 100
        },
        {
          "pitch": 56,
          "onset": 80.5,
          "duration": 0.5,
          "velocity": 100
        },
        {
          "pitch": 74,
          "onset": 80.5,
          "duration": 0.25,
          "velocity": 100
        },
        {
          "pitch": 83,
          "onset": 80.75,
          "duration": 0.25,
          "velocity": 100
        },
        {
          "pitch": 54,
          "onset": 81.0,
          "duration": 1.5,
          "velocity": 100
        },
        {
          "pitch": 81,
          "onset": 81.0,
          "duration": 0.25,
          "velocity": 100
        },
        {
          "pitch": 78,
          "onset": 81.25,
          "duration": 0.5,
          "velocity": 100
        },
        {
          "pitch": 56,
          "onset": 81.5,
          "duration": 0.5,
          "velocity": 100
        },
        {
          "pitch": 77,
          "onset": 81.75,
          "duration": 0.25,
          "velocity": 100
        },
        {
          "pitch": 57,
          "onset": 82.0,
          "duration": 0.5,
          "velocity": 100
        },
        {
          "pitch": 78,
          "onset": 82.0,
          "duration": 0.25,
          "velocity": 100
        },
        {
          "pitch": 74,
          "onset": 82.25,
          "duration": 0.5,
          "velocity": 100
        },
        {
          "pitch": 52,
          "onset": 82.5,
          "duration": 0.5,
          "velocity": 100
        },
        {
          "pitch": 56,
          "onset": 82.5,
          "duration": 0.5,
          "velocity": 100
        },
        {
          "pitch": 73,
          "onset": 82.75,
          "duration": 0.25,
          "velocity": 100
        },
        {
          "pitch": 51,
          "onset": 83.0,
          "duration": 0.5,
          "velocity": 100
        },
        {
          "pitch": 54,
          "onset": 83.0,
          "duration": 0.5,
          "velocity": 100
        },
        {
          "pitch": 73,
          "onset": 83.0,
          "duration": 0.25,
          "velocity": 100
        },
        {
          "pitch": 72,
          "onset": 83.25,
          "duration": 0.75,
          "velocity": 100
        },
        {
          "pitch": 50,
          "onset": 83.5,
          "duration": 0.5,
          "velocity": 100
        },
        {
          "pitch": 56,
          "onset": 83.5,
          "duration": 0.5,
          "velocity": 100
        },
        {
          "pitch": 78,
          "onset": 83.75,
          "duration": 0.25,
          "velocity": 100
        },
        {
          "pitch": 49,
          "onset": 84.0,
          "duration": 2.0,
          "velocity": 100
        },
        {
          "pitch": 57,
          "onset": 84.0,
          "duration": 0.5,
          "velocity": 100
        },
        {
          "pitch": 73,
          "onset": 84.0,
          "duration": 2.0,
          "velocity": 100
        },
        {
          "pitch": 78,
          "onset": 84.0,
          "duration": 0.5,
          "velocity": 100
        },
        {
          "pitch": 56,
          "onset": 84.5,
          "duration": 1.5,
          "velocity": 100
        },
        {
          "pitch": 77,
          "onset": 84.5,
          "duration": 1.5,
          "velocity": 100
        },
        {
          "pitch": 47,
          "onset": 86.5,
          "duration": 0.1562,
          "velocity": 100
        },
        {
          "pitch": 49,
          "onset": 86.6562,
          "duration": 0.1562,
          "velocity": 100
        },
        {
          "pitch": 50,
          "onset": 86.8438,
          "duration": 0.1562,
          "velocity": 100
        },
        {
          "pitch": 49,
          "onset": 87.0,
          "duration": 0.1562,
          "velocity": 100
        },
        {
          "pitch": 47,
          "onset": 87.1562,
          "duration": 0.1562,
          "velocity": 100
        },
        {
          "pitch": 45,
          "onset": 87.3438,
          "duration": 0.1562,
          "velocity": 100
        },
        {
          "pitch": 47,
          "onset": 87.5,
          "duration": 0.1562,
          "velocity": 100
        },
        {
          "pitch": 45,
          "onset": 87.6562,
          "duration": 0.1562,
          "velocity": 100
        },
        {
          "pitch": 44,
          "onset": 87.8438,
          "duration": 0.1562,
          "velocity": 100
        },
        {
          "pitch": 42,
          "onset": 88.0,
          "duration": 0.5,
          "velocity": 100
        },
        {
          "pitch": 78,
          "onset": 88.0,
          "duration": 0.5,
          "velocity": 100
        },
        {
          "pitch": 54,
          "onset": 88.5,
          "duration": 1.25,
          "velocity": 100
        },
        {
          "pitch": 57,
          "onset": 88.5,
          "duration": 0.5,
          "velocity": 100
        },
        {
          "pitch": 73,
          "onset": 88.5,
          "duration": 1.0,
          "velocity": 100
        },
        {
          "pitch": 61,
          "onset": 89.0,
          "duration": 0.5,
          "velocity": 100
        },
        {
          "pitch": 66,
          "onset": 89.5,
          "duration": 1.0,
          "velocity": 100
        },
        {
          "pitch": 69,
          "onset": 89.5,
          "duration": 0.25,
          "velocity": 100
        },
        {
          "pitch": 56,
          "onset": 89.75,
          "duration": 0.25,
          "velocity": 100
        },
        {
          "pitch": 71,
          "onset": 89.75,
          "duration": 0.25,
          "velocity": 100
        },
        {
          "pitch": 57,
          "onset": 90.0,
          "duration": 0.5,
          "velocity": 100
        },
        {
          "pitch": 73,
          "onset": 90.0,
          "duration": 0.1562,
          "velocity": 100
        },
        {
          "pitch": 71,
          "onset": 90.1562,
          "duration": 0.1562,
          "velocity": 100
        },
        {
          "pitch": 69,
          "onset": 90.3438,
          "duration": 0.1562,
          "velocity": 100
        },
        {
          "pitch": 61,
          "onset": 90.5,
          "duration": 0.5,
          "velocity": 100
        },
        {
          "pitch": 65,
          "onset": 90.5,
          "duration": 0.5,
          "velocity": 100
        },
        {
          "pitch": 71,
          "onset": 90.5,
          "duration": 0.1562,
          "velocity": 100
        },
        {
          "pitch": 69,
          "onset": 90.6562,
          "duration": 0.1562,
          "velocity": 100
        },
        {
          "pitch": 68,
          "onset": 90.8438,
          "duration": 0.1562,
          "velocity": 100
        },
        {
          "pitch": 54,
          "onset": 91.0,
          "duration": 3.5,
          "velocity": 100
        },
        {
          "pitch": 66,
          "onset": 91.0,
          "duration": 0.5,
          "velocity": 100
        },
        {
          "pitch": 69,
          "onset": 91.0,
          "duration": 0.25,
          "velocity": 100
        },
        {
          "pitch": 71,
          "onset": 91.25,
          "duration": 0.25,
          "velocity": 100
        },
        {
          "pitch": 61,
          "onset": 91.5,
          "duration": 1.0,
          "velocity": 100
        },
        {
          "pitch": 69,
          "onset": 91.5,
          "duration": 0.25,
          "velocity": 100
        },
        {
          "pitch": 68,
          "onset": 91.75,
          "duration": 0.25,
          "velocity": 100
        },
        {
          "pitch": 69,
          "onset": 92.0,
          "duration": 0.25,
          "velocity": 100
        },
        {
          "pitch": 73,
          "onset": 92.25,
          "duration": 0.25,
          "velocity": 100
        },
        {
          "pitch": 57,
          "onset": 92.5,
          "duration": 0.25,
          "velocity": 100
        },
        {
          "pitch": 78,
          "onset": 92.5,
          "duration": 0.25,
          "velocity": 100
        },
        {
          "pitch": 59,
          "onset": 92.75,
          "duration": 0.25,
          "velocity": 100
        },
        {
          "pitch": 80,
          "onset": 92.75,
          "duration": 0.25,
          "velocity": 100
        },
        {
          "pitch": 61,
          "onset": 93.0,
          "duration": 0.1562,
          "velocity": 100
        },
        {
          "pitch": 81,
          "onset": 93.0,
          "duration": 0.1562,
          "velocity": 100
        },
        {
          "pitch": 59,
          "onset": 93.1562,
          "duration": 0.1562,
          "velocity": 100
        },
        {
          "pitch": 80,
          "onset": 93.1562,
          "duration": 0.1562,
          "velocity": 100
        },
        {
          "pitch": 57,
          "onset": 93.3438,
          "duration": 0.1562,
          "velocity": 100
        },
        {
          "pitch": 78,
          "onset": 93.3438,
          "duration": 0.1562,
          "velocity": 100
        },
        {
          "pitch": 59,
          "onset": 93.5,
          "duration": 0.1562,
          "velocity": 100
        },
        {
          "pitch": 80,
          "onset": 93.5,
          "duration": 0.1562,
          "velocity": 100
        },
        {
          "pitch": 57,
          "onset": 93.6562,
          "duration": 0.1562,
          "velocity": 100
        },
        {
          "pitch": 78,
          "onset": 93.6562,
          "duration": 0.1562,
          "velocity": 100
        },
        {
          "pitch": 56,
          "onset": 93.8438,
          "duration": 0.1562,
          "velocity": 100
        },
        {
          "pitch": 77,
          "onset": 93.8438,
          "duration": 0.1562,
          "velocity": 100
        },
        {
          "pitch": 57,
          "onset": 94.0,
          "duration": 0.5,
          "velocity": 100
        },
        {
          "pitch": 78,
          "onset": 94.0,
          "duration": 0.25,
          "velocity": 100
        },
        {
          "pitch": 73,
          "onset": 94.25,
          "duration": 0.5,
          "velocity": 100
        },
        {
          "pitch": 56,
          "onset": 94.5,
          "duration": 0.5,
          "velocity": 100
        },
        {
          "pitch": 59,
          "onset": 94.5,
          "duration": 0.5,
          "velocity": 100
        },
        {
          "pitch": 77,
          "onset": 94.75,
          "duration": 0.25,
          "velocity": 100
        },
        {
          "pitch": 57,
          "onset": 95.0,
          "duration": 0.5,
          "velocity": 100
        },
        {
          "pitch": 61,
          "onset": 95.0,
          "duration": 0.5,
          "velocity": 100
        },
        {
          "pitch": 78,
          "onset": 95.0,
          "duration": 0.25,
          "velocity": 100
        },
        {
          "pitch": 73,
          "onset": 95.25,
          "duration": 0.5,
          "velocity": 100
        },
        {
          "pitch": 56,
          "onset": 95.5,
          "duration": 0.5,
          "velocity": 100
        },
        {
          "pitch": 59,
          "onset": 95.5,
          "duration": 0.5,
          "velocity": 100
        },
        {
          "pitch": 77,
          "onset": 95.75,
          "duration": 0.25,
          "velocity": 100
        },
        {
          "pitch": 54,
          "onset": 96.0,
          "duration": 0.5,
          "velocity": 100
        },
        {
          "pitch": 57,
          "onset": 96.0,
          "duration": 0.5,
          "velocity": 100
        },
        {
          "pitch": 78,
          "onset": 96.0,
          "duration": 0.25,
          "velocity": 100
        },
        {
          "pitch": 74,
          "onset": 96.25,
          "duration": 0.25,
          "velocity": 100
        },
        {
          "pitch": 52,
          "onset": 96.5,
          "duration": 0.5,
          "velocity": 100
        },
        {
          "pitch": 55,
          "onset": 96.5,
          "duration": 0.5,
          "velocity": 100
        },
        {
          "pitch": 73,
          "onset": 96.5,
          "duration": 0.25,
          "velocity": 100
        },
        {
          "pitch": 82,
          "onset": 96.75,
          "duration": 0.25,
          "velocity": 100
        },
        {
          "pitch": 50,
          "onset": 97.0,
          "duration": 0.5,
          "velocity": 100
        },
        {
          "pitch": 54,
          "onset": 97.0,
          "duration": 0.5,
          "velocity": 100
        },
        {
          "pitch": 83,
          "onset": 97.0,
          "duration": 0.25,
          "velocity": 100
        },
        {
          "pitch": 78,
          "onset": 97.25,
          "duration": 0.5,
          "velocity": 100
        },
        {
          "pitch": 49,
          "onset": 97.5,
          "duration": 0.5,
          "velocity": 100
        },
        {
          "pitch": 52,
          "onset": 97.5,
          "duration": 0.5,
          "velocity": 100
        },
        {
          "pitch": 82,
          "onset": 97.75,
          "duration": 0.25,
          "velocity": 100
        },
        {
          "pitch": 50,
          "onset": 98.0,
          "duration": 0.5,
          "velocity": 100
        },
        {
          "pitch": 54,
          "onset": 98.0,
          "duration": 0.5,
          "velocity": 100
        },
        {
          "pitch": 83,
          "onset": 98.0,
          "duration": 0.25,
          "velocity": 100
        },
        {
          "pitch": 78,
          "onset": 98.25,
          "duration": 0.5,
          "velocity": 100
        },
        {
          "pitch": 52,
          "onset": 98.5,
          "duration": 0.5,
          "velocity": 100
        },
        {
          "pitch": 61,
          "onset": 98.5,
          "duration": 0.5,
          "velocity": 100
        },
        {
          "pitch": 82,
          "onset": 98.75,
          "duration": 0.25,
          "velocity": 100
        },
        {
          "pitch": 50,
          "onset": 99.0,
          "duration": 0.5,
          "velocity": 100
        },
        {
          "pitch": 54,
          "onset": 99.0,
          "duration": 1.0,
          "velocity": 100
        },
        {
          "pitch": 83,
          "onset": 99.0,
          "duration": 0.1562,
          "velocity": 100
        },
        {
          "pitch": 81,
          "onset": 99.1562,
          "duration": 0.1562,
          "velocity": 100
        },
        {
          "pitch": 79,
          "onset": 99.3438,
          "duration": 0.1562,
          "velocity": 100
        },
        {
          "pitch": 49,
          "onset": 99.5,
          "duration": 0.5,
          "velocity": 100
        },
        {
          "pitch": 81,
          "onset": 99.5,
          "duration": 0.1562,
          "velocity": 100
        },
        {
          "pitch": 79,
          "onset": 99.6562,
          "duration": 0.1562,
          "velocity": 100
        },
        {
          "pitch": 78,
          "onset": 99.8438,
          "duration": 0.1562,
          "velocity": 100
        },
        {
          "pitch": 47,
          "onset": 100.0,
          "duration": 0.5,
          "velocity": 100
        },
        {
          "pitch": 59,
          "onset": 100.0,
          "duration": 0.5,
          "velocity": 100
        },
        {
          "pitch": 79,
          "onset": 100.0,
          "duration": 0.25,
          "velocity": 100
        },
        {
          "pitch": 74,
          "onset": 100.25,
          "duration": 0.5,
          "velocity": 100
        },
        {
          "pitch": 59,
          "onset": 100.5,
          "duration": 0.5,
          "velocity": 100
        },
        {
          "pitch": 62,
          "onset": 100.5,
          "duration": 0.5,
          "velocity": 100
        },
        {
          "pitch": 78,
          "onset": 100.75,
          "duration": 0.25,
          "velocity": 100
        },
        {
          "pitch": 59,
          "onset": 101.0,
          "duration": 0.5,
          "velocity": 100
        },
        {
          "pitch": 62,
          "onset": 101.0,
          "duration": 0.5,
          "velocity": 100
        },
        {
          "pitch": 79,
          "onset": 101.0,
          "duration": 0.25,
          "velocity": 100
        },
        {
          "pitch": 74,
          "onset": 101.25,
          "duration": 0.5,
          "velocity": 100
        },
        {
          "pitch": 59,
          "onset": 101.5,
          "duration": 0.5,
          "velocity": 100
        },
        {
          "pitch": 62,
          "onset": 101.5,
          "duration": 0.5,
          "velocity": 100
        },
        {
          "pitch": 78,
          "onset": 101.75,
          "duration": 0.25,
          "velocity": 100
        },
        {
          "pitch": 59,
          "onset": 102.0,
          "duration": 0.5,
          "velocity": 100
        },
        {
          "pitch": 62,
          "onset": 102.0,
          "duration": 0.5,
          "velocity": 100
        },
        {
          "pitch": 79,
          "onset": 102.0,
          "duration": 0.1562,
          "velocity": 100
        },
        {
          "pitch": 81,
          "onset": 102.1562,
          "duration": 0.1562,
          "velocity": 100
        },
        {
          "pitch": 83,
          "onset": 102.3438,
          "duration": 0.1562,
          "velocity": 100
        },
        {
          "pitch": 59,
          "onset": 102.5,
          "duration": 0.5,
          "velocity": 100
        },
        {
          "pitch": 62,
          "onset": 102.5,
          "duration": 0.5,
          "velocity": 100
        },
        {
          "pitch": 81,
          "onset": 102.5,
          "duration": 0.1562,
          "velocity": 100
        },
        {
          "pitch": 80,
          "onset": 102.6562,
          "duration": 0.1562,
          "velocity": 100
        },
        {
          "pitch": 78,
          "onset": 102.8438,
          "duration": 0.1562,
          "velocity": 100
        },
        {
          "pitch": 59,
          "onset": 103.0,
          "duration": 1.0,
          "velocity": 100
        },
        {
          "pitch": 61,
          "onset": 103.0,
          "duration": 1.0,
          "velocity": 100
        },
        {
          "pitch": 77,
          "onset": 103.0,
          "duration": 0.1562,
          "velocity": 100
        },
        {
          "pitch": 78,
          "onset": 103.1562,
          "duration": 0.1562,
          "velocity": 100
        },
        {
          "pitch": 80,
          "onset": 103.3438,
          "duration": 0.1562,
          "velocity": 100
        },
        {
          "pitch": 78,
          "onset": 103.5,
          "duration": 0.1562,
          "velocity": 100
        },
        {
          "pitch": 77,
          "onset": 103.6562,
          "duration": 0.1562,
          "velocity": 100
        },
        {
          "pitch": 75,
          "onset": 103.8438,
          "duration": 0.1562,
          "velocity": 100
        },
        {
          "pitch": 73,
          "onset": 104.0,
          "duration": 0.1562,
          "velocity": 100
        },
        {
          "pitch": 71,
          "onset": 104.1562,
          "duration": 0.1562,
          "velocity": 100
        },
        {
          "pitch": 73,
          "onset": 104.3438,
          "duration": 0.1562,
          "velocity": 100
        },
        {
          "pitch": 53,
          "onset": 104.5,
          "duration": 0.5,
          "velocity": 100
        },
        {
          "pitch": 56,
          "onset": 104.5,
          "duration": 0.5,
          "velocity": 100
        },
        {
          "pitch": 74,
          "onset": 104.5,
          "duration": 0.1562,
          "velocity": 100
        },
        {
          "pitch": 73,
          "onset": 104.6562,
          "duration": 0.1562,
          "velocity": 100
        },
        {
          "pitch": 71,
          "onset": 104.8438,
          "duration": 0.1562,
          "velocity": 100
        },
        {
          "pitch": 54,
          "onset": 105.0,
          "duration": 0.5,
          "velocity": 100
        },
        {
          "pitch": 61,
          "onset": 105.0,
          "duration": 1.5,
          "velocity": 100
        },
        {
          "pitch": 69,
          "onset": 105.0,
          "duration": 0.1562,
          "velocity": 100
        },
        {
          "pitch": 71,
          "onset": 105.1562,
          "duration": 0.1562,
          "velocity": 100
        },
        {
          "pitch": 73,
          "onset": 105.3438,
          "duration": 0.1562,
          "velocity": 100
        },
        {
          "pitch": 49,
          "onset": 105.5,
          "duration": 0.5,
          "velocity": 100
        },
        {
          "pitch": 71,
          "onset": 105.5,
          "duration": 0.1562,
          "velocity": 100
        },
        {
          "pitch": 69,
          "onset": 105.6562,
          "duration": 0.1562,
          "velocity": 100
        },
        {
          "pitch": 68,
          "onset": 105.8438,
          "duration": 0.1562,
          "velocity": 100
        },
        {
          "pitch": 50,
          "onset": 106.0,
          "duration": 1.5,
          "velocity": 100
        },
        {
          "pitch": 66,
          "onset": 106.0,
          "duration": 0.25,
          "velocity": 100
        },
        {
          "pitch": 77,
          "onset": 106.25,
          "duration": 0.5,
          "velocity": 100
        },
        {
          "pitch": 61,
          "onset": 106.5,
          "duration": 0.5,
          "velocity": 100
        },
        {
          "pitch": 78,
          "onset": 106.75,
          "duration": 0.25,
          "velocity": 100
        },
        {
          "pitch": 59,
          "onset": 107.0,
          "duration": 1.0,
          "velocity": 100
        },
        {
          "pitch": 68,
          "onset": 107.0,
          "duration": 0.25,
          "velocity": 100
        },
        {
          "pitch": 78,
          "onset": 107.25,
          "duration": 0.5,
          "velocity": 100
        },
        {
          "pitch": 50,
          "onset": 107.5,
          "duration": 0.5,
          "velocity": 100
        },
        {
          "pitch": 77,
          "onset": 107.75,
          "duration": 0.25,
          "velocity": 100
        },
        {
          "pitch": 49,
          "onset": 108.0,
          "duration": 0.5,
          "velocity": 100
        },
        {
          "pitch": 70,
          "onset": 108.0,
          "duration": 0.25,
          "velocity": 100
        },
        {
          "pitch": 76,
          "onset": 108.25,
          "duration": 0.5,
          "velocity": 100
        },
        {
          "pitch": 55,
          "onset": 108.5,
          "duration": 0.5,
          "velocity": 100
        },
        {
          "pitch": 58,
          "onset": 108.5,
          "duration": 0.5,
          "velocity": 100
        },
        {
          "pitch": 75,
          "onset": 108.75,
          "duration": 0.25,
          "velocity": 100
        },
        {
          "pitch": 54,
          "onset": 109.0,
          "duration": 1.5,
          "velocity": 100
        },
        {
          "pitch": 60,
          "onset": 109.0,
          "duration": 0.5,
          "velocity": 100
        },
        {
          "pitch": 75,
          "onset": 109.0,
          "duration": 0.1562,
          "velocity": 100
        },
        {
          "pitch": 76,
          "onset": 109.1562,
          "duration": 0.1562,
          "velocity": 100
        },
        {
          "pitch": 78,
          "onset": 109.3438,
          "duration": 0.1562,
          "velocity": 100
        },
        {
          "pitch": 61,
          "onset": 109.5,
          "duration": 0.5,
          "velocity": 100
        },
        {
          "pitch": 76,
          "onset": 109.5,
          "duration": 0.1562,
          "velocity": 100
        },
        {
          "pitch": 75,
          "onset": 109.6562,
          "duration": 0.1562,
          "velocity": 100
        },
        {
          "pitch": 73,
          "onset": 109.8438,
          "duration": 0.1562,
          "velocity": 100
        },
        {
          "pitch": 63,
          "onset": 110.0,
          "duration": 0.5,
          "velocity": 100
        },
        {
          "pitch": 72,
          "onset": 110.0,
          "duration": 0.1562,
          "velocity": 100
        },
        {
          "pitch": 73,
          "onset": 110.1562,
          "duration": 0.1562,
          "velocity": 100
        },
        {
          "pitch": 75,
          "onset": 110.3438,
          "duration": 0.1562,
          "velocity": 100
        },
        {
          "pitch": 52,
          "onset": 110.5,
          "duration": 1.0,
          "velocity": 100
        },
        {
          "pitch": 56,
          "onset": 110.5,
          "duration": 0.5,
          "velocity": 100
        },
        {
          "pitch": 73,
          "onset": 110.5,
          "duration": 0.1562,
          "velocity": 100
        },
        {
          "pitch": 72,
          "onset": 110.6562,
          "duration": 0.1562,
          "velocity": 100
        },
        {
          "pitch": 70,
          "onset": 110.8438,
          "duration": 0.1562,
          "velocity": 100
        },
        {
          "pitch": 58,
          "onset": 111.0,
          "duration": 0.5,
          "velocity": 100
        },
        {
          "pitch": 68,
          "onset": 111.0,
          "duration": 0.1562,
          "velocity": 100
        },
        {
          "pitch": 66,
          "onset": 111.1562,
          "duration": 0.1562,
          "velocity": 100
        },
        {
          "pitch": 68,
          "onset": 111.3438,
          "duration": 0.1562,
          "velocity": 100
        },
        {
          "pitch": 51,
          "onset": 111.5,
          "duration": 0.5,
          "velocity": 100
        },
        {
          "pitch": 60,
          "onset": 111.5,
          "duration": 0.5,
          "velocity": 100
        },
        {
          "pitch": 69,
          "onset": 111.5,
          "duration": 0.1562,
          "velocity": 100
        },
        {
          "pitch": 68,
          "onset": 111.6562,
          "duration": 0.1562,
          "velocity": 100
        },
        {
          "pitch": 66,
          "onset": 111.8438,
          "duration": 0.1562,
          "velocity": 100
        },
        {
          "pitch": 49,
          "onset": 112.0,
          "duration": 0.5,
          "velocity": 100
        },
        {
          "pitch": 59,
          "onset": 112.0,
          "duration": 0.5,
          "velocity": 100
        },
        {
          "pitch": 65,
          "onset": 112.0,
          "duration": 0.1562,
          "velocity": 100
        },
        {
          "pitch": 66,
          "onset": 112.1562,
          "duration": 0.1562,
          "velocity": 100
        },
        {
          "pitch": 68,
          "onset": 112.3438,
          "duration": 0.1562,
          "velocity": 100
        },
        {
          "pitch": 51,
          "onset": 112.5,
          "duration": 0.5,
          "velocity": 100
        },
        {
          "pitch": 57,
          "onset": 112.5,
          "duration": 0.5,
          "velocity": 100
        },
        {
          "pitch": 66,
          "onset": 112.5,
          "duration": 0.1562,
          "velocity": 100
        },
        {
          "pitch": 65,
          "onset": 112.6562,
          "duration": 0.1562,
          "velocity": 100
        },
        {
          "pitch": 63,
          "onset": 112.8438,
          "duration": 0.1562,
          "velocity": 100
        },
        {
          "pitch": 53,
          "onset": 113.0,
          "duration": 0.5,
          "velocity": 100
        },
        {
          "pitch": 56,
          "onset": 113.0,
          "duration": 0.5,
          "velocity": 100
        },
        {
          "pitch": 61,
          "onset": 113.0,
          "duration": 1.25,
          "velocity": 100
        },
        {
          "pitch": 54,
          "onset": 113.5,
          "duration": 0.5,
          "velocity": 100
        },
        {
          "pitch": 57,
          "onset": 113.5,
          "duration": 0.5,
          "velocity": 100
        },
        {
          "pitch": 56,
          "onset": 114.0,
          "duration": 0.5,
          "velocity": 100
        },
        {
          "pitch": 59,
          "onset": 114.0,
          "duration": 0.5,
          "velocity": 100
        },
        {
          "pitch": 65,
          "onset": 114.25,
          "duration": 0.125,
          "velocity": 100
        },
        {
          "pitch": 68,
          "onset": 114.375,
          "duration": 0.125,
          "velocity": 100
        },
        {
          "pitch": 44,
          "onset": 114.5,
          "duration": 0.5,
          "velocity": 100
        },
        {
          "pitch": 53,
          "onset": 114.5,
          "duration": 0.5,
          "velocity": 100
        },
        {
          "pitch": 71,
          "onset": 114.5,
          "duration": 0.25,
          "velocity": 100
        },
        {
          "pitch": 74,
          "onset": 114.75,
          "duration": 0.25,
          "velocity": 100
        },
        {
          "pitch": 45,
          "onset": 115.0,
          "duration": 1.5,
          "velocity": 100
        },
        {
          "pitch": 54,
          "onset": 115.0,
          "duration": 0.5,
          "velocity": 100
        },
        {
          "pitch": 73,
          "onset": 115.0,
          "duration": 0.1562,
          "velocity": 100
        },
        {
          "pitch": 75,
          "onset": 115.1562,
          "duration": 0.1562,
          "velocity": 100
        },
        {
          "pitch": 77,
          "onset": 115.3438,
          "duration": 0.1562,
          "velocity": 100
        },
        {
          "pitch": 49,
          "onset": 115.5,
          "duration": 0.5,
          "velocity": 100
        },
        {
          "pitch": 78,
          "onset": 115.5,
          "duration": 0.1562,
          "velocity": 100
        },
        {
          "pitch": 76,
          "onset": 115.6562,
          "duration": 0.1562,
          "velocity": 100
        },
        {
          "pitch": 74,
          "onset": 115.8438,
          "duration": 0.1562,
          "velocity": 100
        },
        {
          "pitch": 54,
          "onset": 116.0,
          "duration": 1.5,
          "velocity": 100
        },
        {
          "pitch": 73,
          "onset": 116.0,
          "duration": 0.1562,
          "velocity": 100
        },
        {
          "pitch": 71,
          "onset": 116.1562,
          "duration": 0.1562,
          "velocity": 100
        },
        {
          "pitch": 69,
          "onset": 116.3438,
          "duration": 0.1562,
          "velocity": 100
        },
        {
          "pitch": 47,
          "onset": 116.5,
          "duration": 0.5,
          "velocity": 100
        },
        {
          "pitch": 74,
          "onset": 116.5,
          "duration": 0.1562,
          "velocity": 100
        },
        {
          "pitch": 73,
          "onset": 116.6562,
          "duration": 0.1562,
          "velocity": 100
        },
        {
          "pitch": 71,
          "onset": 116.8438,
          "duration": 0.1562,
          "velocity": 100
        },
        {
          "pitch": 49,
          "onset": 117.0,
          "duration": 0.5,
          "velocity": 100
        },
        {
          "pitch": 69,
          "onset": 117.0,
          "duration": 0.1562,
          "velocity": 100
        },
        {
          "pitch": 68,
          "onset": 117.1562,
          "duration": 0.1562,
          "velocity": 100
        },
        {
          "pitch": 66,
          "onset": 117.3438,
          "duration": 0.1562,
          "velocity": 100
        },
        {
          "pitch": 47,
          "onset": 117.5,
          "duration": 0.5,
          "velocity": 100
        },
        {
          "pitch": 53,
          "onset": 117.5,
          "duration": 0.5,
          "velocity": 100
        },
        {
          "pitch": 68,
          "onset": 117.5,
          "duration": 0.1562,
          "velocity": 100
        },
        {
          "pitch": 66,
          "onset": 117.6562,
          "duration": 0.1562,
          "velocity": 100
        },
        {
          "pitch": 65,
          "onset": 117.8438,
          "duration": 0.1562,
          "velocity": 100
        },
        {
          "pitch": 46,
          "onset": 118.0,
          "duration": 0.5,
          "velocity": 100
        },
        {
          "pitch": 66,
          "onset": 118.0,
          "duration": 2.25,
          "velocity": 100
        },
        {
          "pitch": 64,
          "onset": 118.1562,
          "duration": 0.1562,
          "velocity": 100
        },
        {
          "pitch": 62,
          "onset": 118.3438,
          "duration": 0.1562,
          "velocity": 100
        },
        {
          "pitch": 54,
          "onset": 118.5,
          "duration": 0.5,
          "velocity": 100
        },
        {
          "pitch": 61,
          "onset": 118.5,
          "duration": 0.1562,
          "velocity": 100
        },
        {
          "pitch": 62,
          "onset": 118.6562,
          "duration": 0.1562,
          "velocity": 100
        },
        {
          "pitch": 64,
          "onset": 118.8438,
          "duration": 0.1562,
          "velocity": 100
        },
        {
          "pitch": 47,
          "onset": 119.0,
          "duration": 0.5,
          "velocity": 100
        },
        {
          "pitch": 62,
          "onset": 119.0,
          "duration": 0.1562,
          "velocity": 100
        },
        {
          "pitch": 61,
          "onset": 119.1562,
          "duration": 0.1562,
          "velocity": 100
        },
        {
          "pitch": 59,
          "onset": 119.3438,
          "duration": 0.1562,
          "velocity": 100
        },
        {
          "pitch": 49,
          "onset": 119.5,
          "duration": 0.5,
          "velocity": 100
        },
        {
          "pitch": 58,
          "onset": 119.5,
          "duration": 0.1562,
          "velocity": 100
        },
        {
          "pitch": 59,
          "onset": 119.6562,
          "duration": 0.1562,
          "velocity": 100
        },
        {
          "pitch": 61,
          "onset": 119.8438,
          "duration": 0.1562,
          "velocity": 100
        },
        {
          "pitch": 50,
          "onset": 120.0,
          "duration": 0.5,
          "velocity": 100
        },
        {
          "pitch": 59,
          "onset": 120.0,
          "duration": 0.5,
          "velocity": 100
        },
        {
          "pitch": 65,
          "onset": 120.25,
          "duration": 0.5,
          "velocity": 100
        },
        {
          "pitch": 47,
          "onset": 120.5,
          "duration": 0.5,
          "velocity": 100
        },
        {
          "pitch": 54,
          "onset": 120.5,
          "duration": 0.5,
          "velocity": 100
        },
        {
          "pitch": 56,
          "onset": 120.5,
          "duration": 0.5,
          "velocity": 100
        },
        {
          "pitch": 66,
          "onset": 120.75,
          "duration": 0.25,
          "velocity": 100
        },
        {
          "pitch": 49,
          "onset": 121.0,
          "duration": 1.5,
          "velocity": 100
        },
        {
          "pitch": 53,
          "onset": 121.0,
          "duration": 0.5,
          "velocity": 100
        },
        {
          "pitch": 56,
          "onset": 121.0,
          "duration": 0.5,
          "velocity": 100
        },
        {
          "pitch": 74,
          "onset": 121.0,
          "duration": 0.25,
          "velocity": 100
        },
        {
          "pitch": 72,
          "onset": 121.25,
          "duration": 0.5,
          "velocity": 100
        },
        {
          "pitch": 54,
          "onset": 121.5,
          "duration": 0.5,
          "velocity": 100
        },
        {
          "pitch": 57,
          "onset": 121.5,
          "duration": 0.5,
          "velocity": 100
        },
        {
          "pitch": 73,
          "onset": 121.75,
          "duration": 0.25,
          "velocity": 100
        },
        {
          "pitch": 56,
          "onset": 122.0,
          "duration": 0.5,
          "velocity": 100
        },
        {
          "pitch": 59,
          "onset": 122.0,
          "duration": 0.5,
          "velocity": 100
        },
        {
          "pitch": 65,
          "onset": 122.0,
          "duration": 0.25,
          "velocity": 100
        },
        {
          "pitch": 71,
          "onset": 122.25,
          "duration": 0.5,
          "velocity": 100
        },
        {
          "pitch": 50,
          "onset": 122.5,
          "duration": 0.5,
          "velocity": 100
        },
        {
          "pitch": 54,
          "onset": 122.5,
          "duration": 1.0,
          "velocity": 100
        },
        {
          "pitch": 69,
          "onset": 122.75,
          "duration": 0.25,
          "velocity": 100
        },
        {
          "pitch": 47,
          "onset": 123.0,
          "duration": 0.5,
          "velocity": 100
        },
        {
          "pitch": 68,
          "onset": 123.0,
          "duration": 0.1562,
          "velocity": 100
        },
        {
          "pitch": 71,
          "onset": 123.1562,
          "duration": 0.1562,
          "velocity": 100
        },
        {
          "pitch": 69,
          "onset": 123.3438,
          "duration": 0.1562,
          "velocity": 100
        },
        {
          "pitch": 49,
          "onset": 123.5,
          "duration": 0.5,
          "velocity": 100
        },
        {
          "pitch": 53,
          "onset": 123.5,
          "duration": 0.5,
          "velocity": 100
        },
        {
          "pitch": 68,
          "onset": 123.5,
          "duration": 0.1562,
          "velocity": 100
        },
        {
          "pitch": 66,
          "onset": 123.6562,
          "duration": 0.1562,
          "velocity": 100
        },
        {
          "pitch": 65,
          "onset": 123.8438,
          "duration": 0.1562,
          "velocity": 100
        },
        {
          "pitch": 45,
          "onset": 124.0,
          "duration": 0.5,
          "velocity": 100
        },
        {
          "pitch": 49,
          "onset": 124.0,
          "duration": 0.5,
          "velocity": 100
        },
        {
          "pitch": 66,
          "onset": 124.0,
          "duration": 0.1562,
          "velocity": 100
        },
        {
          "pitch": 68,
          "onset": 124.1562,
          "duration": 0.1562,
          "velocity": 100
        },
        {
          "pitch": 69,
          "onset": 124.3438,
          "duration": 0.1562,
          "velocity": 100
        },
        {
          "pitch": 44,
          "onset": 124.5,
          "duration": 0.5,
          "velocity": 100
        },
        {
          "pitch": 53,
          "onset": 124.5,
          "duration": 0.6562,
          "velocity": 100
        },
        {
          "pitch": 71,
          "onset": 124.5,
          "duration": 0.1562,
          "velocity": 100
        },
        {
          "pitch": 73,
          "onset": 124.6562,
          "duration": 0.1562,
          "velocity": 100
        },
        {
          "pitch": 74,
          "onset": 124.8438,
          "duration": 0.1562,
          "velocity": 100
        },
        {
          "pitch": 45,
          "onset": 125.0,
          "duration": 0.5,
          "velocity": 100
        },
        {
          "pitch": 61,
          "onset": 125.0,
          "duration": 0.5,
          "velocity": 100
        },
        {
          "pitch": 54,
          "onset": 125.1562,
          "duration": 0.1562,
          "velocity": 100
        },
        {
          "pitch": 52,
          "onset": 125.3438,
          "duration": 0.1562,
          "velocity": 100
        },
        {
          "pitch": 50,
          "onset": 125.5,
          "duration": 0.1562,
          "velocity": 100
        },
        {
          "pitch": 56,
          "onset": 125.5,
          "duration": 0.5,
          "velocity": 100
        },
        {
          "pitch": 66,
          "onset": 125.5,
          "duration": 0.75,
          "velocity": 100
        },
        {
          "pitch": 49,
          "onset": 125.6562,
          "duration": 0.1562,
          "velocity": 100
        },
        {
          "pitch": 47,
          "onset": 125.8438,
          "duration": 0.1562,
          "velocity": 100
        },
        {
          "pitch": 49,
          "onset": 126.0,
          "duration": 3.0,
          "velocity": 100
        },
        {
          "pitch": 57,
          "onset": 126.0,
          "duration": 0.5,
          "velocity": 100
        },
        {
          "pitch": 66,
          "onset": 126.25,
          "duration": 0.5,
          "velocity": 100
        },
        {
          "pitch": 37,
          "onset": 126.5,
          "duration": 0.75,
          "velocity": 100
        },
        {
          "pitch": 65,
          "onset": 126.75,
          "duration": 0.5,
          "velocity": 100
        },
        {
          "pitch": 42,
          "onset": 127.25,
          "duration": 2.75,
          "velocity": 100
        },
        {
          "pitch": 58,
          "onset": 127.25,
          "duration": 2.75,
          "velocity": 100
        },
        {
          "pitch": 66,
          "onset": 127.25,
          "duration": 2.75,
          "velocity": 100
        },
        {
          "pitch": 66,
          "onset": 131.25,
          "duration": 0.25,
          "velocity": 1
        }
      ]
    }
  ]
}