{
  "bwv": 851,
  "category": "wtc1",
  "instrument": "keyboard",
  "form": "prelude",
  "movement": null,
  "tonic": "D",
  "mode": "minor",
  "confidence": "verified",
  "ticks_per_beat": 384,
  "duration_seconds": 85.8,
  "tempos": [
    {
      "tick": 0,
      "bpm": 80
    },
    {
      "tick": 6912,
      "bpm": 80
    },
    {
      "tick": 7104,
      "bpm": 75
    },
    {
      "tick": 7296,
      "bpm": 75
    },
    {
      "tick": 7488,
      "bpm": 70
    },
    {
      "tick": 7776,
      "bpm": 80
    },
    {
      "tick": 10368,
      "bpm": 75
    },
    {
      "tick": 10560,
      "bpm": 70
    },
    {
      "tick": 10848,
      "bpm": 80
    },
    {
      "tick": 13440,
      "bpm": 75
    },
    {
      "tick": 13632,
      "bpm": 70
    },
    {
      "tick": 13728,
      "bpm": 65
    },
    {
      "tick": 13920,
      "bpm": 80
    },
    {
      "tick": 16512,
      "bpm": 75
    },
    {
      "tick": 16704,
      "bpm": 70
    },
    {
      "tick": 16992,
      "bpm": 80
    },
    {
      "tick": 20736,
      "bpm": 80
    },
    {
      "tick": 20928,
      "bpm": 75
    },
    {
      "tick": 21120,
      "bpm": 75
    },
    {
      "tick": 21312,
      "bpm": 70
    },
    {
      "tick": 21408,
      "bpm": 70
    },
    {
      "tick": 21600,
      "bpm": 80
    },
    {
      "tick": 28416,
      "bpm": 80
    },
    {
      "tick": 28608,
      "bpm": 75
    },
    {
      "tick": 28800,
      "bpm": 70
    },
    {
      "tick": 28992,
      "bpm": 70
    },
    {
      "tick": 29280,
      "bpm": 80
    },
    {
      "tick": 34560,
      "bpm": 80
    },
    {
      "tick": 34752,
      "bpm": 75
    },
    {
      "tick": 34944,
      "bpm": 70
    },
    {
      "tick": 35136,
      "bpm": 70
    },
    {
      "tick": 35424,
      "bpm": 75
    },
    {
      "tick": 37248,
      "bpm": 75
    },
    {
      "tick": 37440,
      "bpm": 70
    },
    {
      "tick": 37632,
      "bpm": 70
    },
    {
      "tick": 37824,
      "bpm": 65
    },
    {
      "tick": 37920,
      "bpm": 60
    },
    {
      "tick": 38016,
      "bpm": 55
    },
    {
      "tick": 38400,
      "bpm": 60
    },
    {
      "tick": 38784,
      "bpm": 40
    },
    {
      "tick": 39168,
      "bpm": 50
    }
  ],
  "time_signatures": [
    {
      "tick": 0,
      "numerator": 4,
      "denominator": 4
    }
  ],
  "track_type": "manual",
  "voice_count": 1,
  "total_notes": 785,
  "tracks": [
    {
      "role": "manual",
      "notes": [
        {
          "pitch": 50,
          "onset": 0.0,
          "duration": 0.5,
          "velocity": 100
        },
        {
          "pitch": 50,
          "onset": 0.5,
          "duration": 0.5,
          "velocity": 100
        },
        {
          "pitch": 69,
          "onset": 0.75,
          "duration": 0.25,
          "velocity": 100
        },
        {
          "pitch": 50,
          "onset": 1.0,
          "duration": 0.5,
          "velocity": 100
        },
        {
          "pitch": 65,
          "onset": 1.0,
          "duration": 0.3125,
          "velocity": 100
        },
        {
          "pitch": 62,
          "onset": 1.1562,
          "duration": 0.3125,
          "velocity": 100
        },
        {
          "pitch": 69,
          "onset": 1.3438,
          "duration": 0.3125,
          "velocity": 100
        },
        {
          "pitch": 50,
          "onset": 1.5,
          "duration": 0.5,
          "velocity": 100
        },
        {
          "pitch": 65,
          "onset": 1.5,
          "duration": 0.3125,
          "velocity": 100
        },
        {
          "pitch": 62,
          "onset": 1.6562,
          "duration": 0.3125,
          "velocity": 100
        },
        {
          "pitch": 74,
          "onset": 1.8438,
          "duration": 0.3125,
          "velocity": 100
        },
        {
          "pitch": 50,
          "onset": 2.0,
          "duration": 0.5,
          "velocity": 100
        },
        {
          "pitch": 70,
          "onset": 2.0,
          "duration": 0.3125,
          "velocity": 100
        },
        {
          "pitch": 67,
          "onset": 2.1562,
          "duration": 0.3125,
          "velocity": 100
        },
        {
          "pitch": 70,
          "onset": 2.3438,
          "duration": 0.3125,
          "velocity": 100
        },
        {
          "pitch": 50,
          "onset": 2.5,
          "duration": 0.5,
          "velocity": 100
        },
        {
          "pitch": 67,
          "onset": 2.5,
          "duration": 0.3125,
          "velocity": 100
        },
        {
          "pitch": 64,
          "onset": 2.6562,
          "duration": 0.3125,
          "velocity": 100
        },
        {
          "pitch": 67,
          "onset": 2.8438,
          "duration": 0.3125,
          "velocity": 100
        },
        {
          "pitch": 50,
          "onset": 3.0,
          "duration": 0.5,
          "velocity": 100
        },
        {
          "pitch": 64,
          "onset": 3.0,
          "duration": 0.3125,
          "velocity": 100
        },
        {
          "pitch": 61,
          "onset": 3.1562,
          "duration": 0.3125,
          "velocity": 100
        },
        {
          "pitch": 67,
          "onset": 3.3438,
          "duration": 0.3125,
          "velocity": 100
        },
        {
          "pitch": 50,
          "onset": 3.5,
          "duration": 0.5,
          "velocity": 100
        },
        {
          "pitch": 64,
          "onset": 3.5,
          "duration": 0.3125,
          "velocity": 100
        },
        {
          "pitch": 61,
          "onset": 3.6562,
          "duration": 0.3125,
          "velocity": 100
        },
        {
          "pitch": 69,
          "onset": 3.8438,
          "duration": 0.1562,
          "velocity": 100
        },
        {
          "pitch": 50,
          "onset": 4.0,
          "duration": 0.5,
          "velocity": 100
        },
        {
          "pitch": 65,
          "onset": 4.0,
          "duration": 0.3125,
          "velocity": 100
        },
        {
          "pitch": 62,
          "onset": 4.1562,
          "duration": 0.3125,
          "velocity": 100
        },
        {
          "pitch": 69,
          "onset": 4.3438,
          "duration": 0.3125,
          "velocity": 100
        },
        {
          "pitch": 50,
          "onset": 4.5,
          "duration": 0.5,
          "velocity": 100
        },
        {
          "pitch": 65,
          "onset": 4.5,
          "duration": 0.3125,
          "velocity": 100
        },
        {
          "pitch": 62,
          "onset": 4.6562,
          "duration": 0.3125,
          "velocity": 100
        },
        {
          "pitch": 81,
          "onset": 4.8438,
          "duration": 0.3125,
          "velocity": 100
        },
        {
          "pitch": 62,
          "onset": 5.0,
          "duration": 0.5,
          "velocity": 100
        },
        {
          "pitch": 77,
          "onset": 5.0,
          "duration": 0.3125,
          "velocity": 100
        },
        {
          "pitch": 74,
          "onset": 5.1562,
          "duration": 0.3125,
          "velocity": 100
        },
        {
          "pitch": 77,
          "onset": 5.3438,
          "duration": 0.3125,
          "velocity": 100
        },
        {
          "pitch": 62,
          "onset": 5.5,
          "duration": 0.5,
          "velocity": 100
        },
        {
          "pitch": 74,
          "onset": 5.5,
          "duration": 0.3125,
          "velocity": 100
        },
        {
          "pitch": 69,
          "onset": 5.6562,
          "duration": 0.3125,
          "velocity": 100
        },
        {
          "pitch": 74,
          "onset": 5.8438,
          "duration": 0.3125,
          "velocity": 100
        },
        {
          "pitch": 55,
          "onset": 6.0,
          "duration": 0.5,
          "velocity": 100
        },
        {
          "pitch": 70,
          "onset": 6.0,
          "duration": 0.3125,
          "velocity": 100
        },
        {
          "pitch": 67,
          "onset": 6.1562,
          "duration": 0.3125,
          "velocity": 100
        },
        {
          "pitch": 74,
          "onset": 6.3438,
          "duration": 0.3125,
          "velocity": 100
        },
        {
          "pitch": 55,
          "onset": 6.5,
          "duration": 0.5,
          "velocity": 100
        },
        {
          "pitch": 70,
          "onset": 6.5,
          "duration": 0.3125,
          "velocity": 100
        },
        {
          "pitch": 67,
          "onset": 6.6562,
          "duration": 0.3125,
          "velocity": 100
        },
        {
          "pitch": 79,
          "onset": 6.8438,
          "duration": 0.3125,
          "velocity": 100
        },
        {
          "pitch": 60,
          "onset": 7.0,
          "duration": 0.5,
          "velocity": 100
        },
        {
          "pitch": 76,
          "onset": 7.0,
          "duration": 0.3125,
          "velocity": 100
        },
        {
          "pitch": 72,
          "onset": 7.1562,
          "duration": 0.3125,
          "velocity": 100
        },
        {
          "pitch": 76,
          "onset": 7.3438,
          "duration": 0.3125,
          "velocity": 100
        },
        {
          "pitch": 60,
          "onset": 7.5,
          "duration": 0.5,
          "velocity": 100
        },
        {
          "pitch": 72,
          "onset": 7.5,
          "duration": 0.3125,
          "velocity": 100
        },
        {
          "pitch": 69,
          "onset": 7.6562,
          "duration": 0.3125,
          "velocity": 100
        },
        {
          "pitch": 72,
          "onset": 7.8438,
          "duration": 0.1562,
          "velocity": 100
        },
        {
          "pitch": 53,
          "onset": 8.0,
          "duration": 0.5,
          "velocity": 100
        },
        {
          "pitch": 69,
          "onset": 8.0,
          "duration": 0.3125,
          "velocity": 100
        },
        {
          "pitch": 65,
          "onset": 8.1562,
          "duration": 0.3125,
          "velocity": 100
        },
        {
          "pitch": 72,
          "onset": 8.3438,
          "duration": 0.3125,
          "velocity": 100
        },
        {
          "pitch": 53,
          "onset": 8.5,
          "duration": 0.5,
          "velocity": 100
        },
        {
          "pitch": 69,
          "onset": 8.5,
          "duration": 0.3125,
          "velocity": 100
        },
        {
          "pitch": 65,
          "onset": 8.6562,
          "duration": 0.3125,
          "velocity": 100
        },
        {
          "pitch": 77,
          "onset": 8.8438,
          "duration": 0.3125,
          "velocity": 100
        },
        {
          "pitch": 58,
          "onset": 9.0,
          "duration": 0.5,
          "velocity": 100
        },
        {
          "pitch": 74,
          "onset": 9.0,
          "duration": 0.3125,
          "velocity": 100
        },
        {
          "pitch": 70,
          "onset": 9.1562,
          "duration": 0.3125,
          "velocity": 100
        },
        {
          "pitch": 74,
          "onset": 9.3438,
          "duration": 0.3125,
          "velocity": 100
        },
        {
          "pitch": 55,
          "onset": 9.5,
          "duration": 0.5,
          "velocity": 100
        },
        {
          "pitch": 70,
          "onset": 9.5,
          "duration": 0.3125,
          "velocity": 100
        },
        {
          "pitch": 67,
          "onset": 9.6562,
          "duration": 0.3125,
          "velocity": 100
        },
        {
          "pitch": 79,
          "onset": 9.8438,
          "duration": 0.3125,
          "velocity": 100
        },
        {
          "pitch": 60,
          "onset": 10.0,
          "duration": 0.5,
          "velocity": 100
        },
        {
          "pitch": 76,
          "onset": 10.0,
          "duration": 0.3125,
          "velocity": 100
        },
        {
          "pitch": 72,
          "onset": 10.1562,
          "duration": 0.3125,
          "velocity": 100
        },
        {
          "pitch": 76,
          "onset": 10.3438,
          "duration": 0.3125,
          "velocity": 100
        },
        {
          "pitch": 57,
          "onset": 10.5,
          "duration": 0.5,
          "velocity": 100
        },
        {
          "pitch": 72,
          "onset": 10.5,
          "duration": 0.3125,
          "velocity": 100
        },
        {
          "pitch": 69,
          "onset": 10.6562,
          "duration": 0.3125,
          "velocity": 100
        },
        {
          "pitch": 81,
          "onset": 10.8438,
          "duration": 0.3125,
          "velocity": 100
        },
        {
          "pitch": 62,
          "onset": 11.0,
          "duration": 0.5,
          "velocity": 100
        },
        {
          "pitch": 77,
          "onset": 11.0,
          "duration": 0.3125,
          "velocity": 100
        },
        {
          "pitch": 74,
          "onset": 11.1562,
          "duration": 0.3125,
          "velocity": 100
        },
        {
          "pitch": 77,
          "onset": 11.3438,
          "duration": 0.3125,
          "velocity": 100
        },
        {
          "pitch": 50,
          "onset": 11.5,
          "duration": 0.5,
          "velocity": 100
        },
        {
          "pitch": 74,
          "onset": 11.5,
          "duration": 0.3125,
          "velocity": 100
        },
        {
          "pitch": 70,
          "onset": 11.6562,
          "duration": 0.3125,
          "velocity": 100
        },
        {
          "pitch": 82,
          "onset": 11.8438,
          "duration": 0.1562,
          "velocity": 100
        },
        {
          "pitch": 52,
          "onset": 12.0,
          "duration": 0.5,
          "velocity": 100
        },
        {
          "pitch": 79,
          "onset": 12.0,
          "duration": 0.3125,
          "velocity": 100
        },
        {
          "pitch": 76,
          "onset": 12.1562,
          "duration": 0.3125,
          "velocity": 100
        },
        {
          "pitch": 79,
          "onset": 12.3438,
          "duration": 0.3125,
          "velocity": 100
        },
        {
          "pitch": 48,
          "onset": 12.5,
          "duration": 0.5,
          "velocity": 100
        },
        {
          "pitch": 76,
          "onset": 12.5,
          "duration": 0.3125,
          "velocity": 100
        },
        {
          "pitch": 72,
          "onset": 12.6562,
          "duration": 0.3125,
          "velocity": 100
        },
        {
          "pitch": 84,
          "onset": 12.8438,
          "duration": 0.3125,
          "velocity": 100
        },
        {
          "pitch": 53,
          "onset": 13.0,
          "duration": 0.5,
          "velocity": 100
        },
        {
          "pitch": 81,
          "onset": 13.0,
          "duration": 0.3125,
          "velocity": 100
        },
        {
          "pitch": 77,
          "onset": 13.1562,
          "duration": 0.3125,
          "velocity": 100
        },
        {
          "pitch": 81,
          "onset": 13.3438,
          "duration": 0.3125,
          "velocity": 100
        },
        {
          "pitch": 52,
          "onset": 13.5,
          "duration": 0.5,
          "velocity": 100
        },
        {
          "pitch": 77,
          "onset": 13.5,
          "duration": 0.3125,
          "velocity": 100
        },
        {
          "pitch": 74,
          "onset": 13.6562,
          "duration": 0.3125,
          "velocity": 100
        },
        {
          "pitch": 81,
          "onset": 13.8438,
          "duration": 0.3125,
          "velocity": 100
        },
        {
          "pitch": 50,
          "onset": 14.0,
          "duration": 0.5,
          "velocity": 100
        },
        {
          "pitch": 77,
          "onset": 14.0,
          "duration": 0.3125,
          "velocity": 100
        },
        {
          "pitch": 74,
          "onset": 14.1562,
          "duration": 0.3125,
          "velocity": 100
        },
        {
          "pitch": 77,
          "onset": 14.3438,
          "duration": 0.3125,
          "velocity": 100
        },
        {
          "pitch": 48,
          "onset": 14.5,
          "duration": 0.5,
          "velocity": 100
        },
        {
          "pitch": 74,
          "onset": 14.5,
          "duration": 0.3125,
          "velocity": 100
        },
        {
          "pitch": 69,
          "onset": 14.6562,
          "duration": 0.3125,
          "velocity": 100
        },
        {
          "pitch": 77,
          "onset": 14.8438,
          "duration": 0.3125,
          "velocity": 100
        },
        {
          "pitch": 46,
          "onset": 15.0,
          "duration": 0.5,
          "velocity": 100
        },
        {
          "pitch": 74,
          "onset": 15.0,
          "duration": 0.3125,
          "velocity": 100
        },
        {
          "pitch": 70,
          "onset": 15.1562,
          "duration": 0.3125,
          "velocity": 100
        },
        {
          "pitch": 74,
          "onset": 15.3438,
          "duration": 0.3125,
          "velocity": 100
        },
        {
          "pitch": 45,
          "onset": 15.5,
          "duration": 0.5,
          "velocity": 100
        },
        {
          "pitch": 70,
          "onset": 15.5,
          "duration": 0.3125,
          "velocity": 100
        },
        {
          "pitch": 65,
          "onset": 15.6562,
          "duration": 0.3125,
          "velocity": 100
        },
        {
          "pitch": 74,
          "onset": 15.8438,
          "duration": 0.1562,
          "velocity": 100
        },
        {
          "pitch": 43,
          "onset": 16.0,
          "duration": 0.5,
          "velocity": 100
        },
        {
          "pitch": 70,
          "onset": 16.0,
          "duration": 0.3125,
          "velocity": 100
        },
        {
          "pitch": 67,
          "onset": 16.1562,
          "duration": 0.3125,
          "velocity": 100
        },
        {
          "pitch": 70,
          "onset": 16.3438,
          "duration": 0.3125,
          "velocity": 100
        },
        {
          "pitch": 41,
          "onset": 16.5,
          "duration": 0.5,
          "velocity": 100
        },
        {
          "pitch": 67,
          "onset": 16.5,
          "duration": 0.3125,
          "velocity": 100
        },
        {
          "pitch": 64,
          "onset": 16.6562,
          "duration": 0.3125,
          "velocity": 100
        },
        {
          "pitch": 70,
          "onset": 16.8438,
          "duration": 0.3125,
          "velocity": 100
        },
        {
          "pitch": 40,
          "onset": 17.0,
          "duration": 0.5,
          "velocity": 100
        },
        {
          "pitch": 67,
          "onset": 17.0,
          "duration": 0.3125,
          "velocity": 100
        },
        {
          "pitch": 60,
          "onset": 17.1562,
          "duration": 0.3125,
          "velocity": 100
        },
        {
          "pitch": 70,
          "onset": 17.3438,
          "duration": 0.3125,
          "velocity": 100
        },
        {
          "pitch": 36,
          "onset": 17.5,
          "duration": 0.5,
          "velocity": 100
        },
        {
          "pitch": 67,
          "onset": 17.5,
          "duration": 0.3125,
          "velocity": 100
        },
        {
          "pitch": 64,
          "onset": 17.6562,
          "duration": 0.3125,
          "velocity": 100
        },
        {
          "pitch": 70,
          "onset": 17.8438,
          "duration": 0.3125,
          "velocity": 100
        },
        {
          "pitch": 41,
          "onset": 18.0,
          "duration": 0.5,
          "velocity": 100
        },
        {
          "pitch": 69,
          "onset": 18.0,
          "duration": 0.3125,
          "velocity": 100
        },
        {
          "pitch": 65,
          "onset": 18.1562,
          "duration": 0.3125,
          "velocity": 100
        },
        {
          "pitch": 69,
          "onset": 18.3438,
          "duration": 0.3125,
          "velocity": 100
        },
        {
          "pitch": 45,
          "onset": 18.5,
          "duration": 0.5,
          "velocity": 100
        },
        {
          "pitch": 65,
          "onset": 18.5,
          "duration": 0.3125,
          "velocity": 100
        },
        {
          "pitch": 60,
          "onset": 18.6562,
          "duration": 0.3125,
          "velocity": 100
        },
        {
          "pitch": 65,
          "onset": 18.8438,
          "duration": 0.3125,
          "velocity": 100
        },
        {
          "pitch": 46,
          "onset": 19.0,
          "duration": 0.5,
          "velocity": 100
        },
        {
          "pitch": 62,
          "onset": 19.0,
          "duration": 0.3125,
          "velocity": 100
        },
        {
          "pitch": 58,
          "onset": 19.1562,
          "duration": 0.3125,
          "velocity": 100
        },
        {
          "pitch": 65,
          "onset": 19.3438,
          "duration": 0.3125,
          "velocity": 100
        },
        {
          "pitch": 48,
          "onset": 19.5,
          "duration": 0.5,
          "velocity": 100
        },
        {
          "pitch": 60,
          "onset": 19.5,
          "duration": 0.3125,
          "velocity": 100
        },
        {
          "pitch": 58,
          "onset": 19.6562,
          "duration": 0.3125,
          "velocity": 100
        },
        {
          "pitch": 64,
          "onset": 19.8438,
          "duration": 0.1562,
          "velocity": 100
        },
        {
          "pitch": 41,
          "onset": 20.0,
          "duration": 1.0,
          "velocity": 100
        },
        {
          "pitch": 60,
          "onset": 20.0,
          "duration": 0.3125,
          "velocity": 100
        },
        {
          "pitch": 57,
          "onset": 20.1562,
          "duration": 0.3125,
          "velocity": 100
        },
        {
          "pitch": 65,
          "onset": 20.3438,
          "duration": 0.3125,
          "velocity": 100
        },
        {
          "pitch": 60,
          "onset": 20.5,
          "duration": 0.3125,
          "velocity": 100
        },
        {
          "pitch": 57,
          "onset": 20.6562,
          "duration": 0.3125,
          "velocity": 100
        },
        {
          "pitch": 60,
          "onset": 20.8438,
          "duration": 0.3125,
          "velocity": 100
        },
        {
          "pitch": 57,
          "onset": 21.0,
          "duration": 0.3125,
          "velocity": 100
        },
        {
          "pitch": 53,
          "onset": 21.1562,
          "duration": 0.3125,
          "velocity": 100
        },
        {
          "pitch": 60,
          "onset": 21.3438,
          "duration": 0.3125,
          "velocity": 100
        },
        {
          "pitch": 51,
          "onset": 21.5,
          "duration": 0.5,
          "velocity": 100
        },
        {
          "pitch": 57,
          "onset": 21.5,
          "duration": 0.3125,
          "velocity": 100
        },
        {
          "pitch": 53,
          "onset": 21.6562,
          "duration": 0.3125,
          "velocity": 100
        },
        {
          "pitch": 60,
          "onset": 21.8438,
          "duration": 0.3125,
          "velocity": 100
        },
        {
          "pitch": 50,
          "onset": 22.0,
          "duration": 0.5,
          "velocity": 100
        },
        {
          "pitch": 57,
          "onset": 22.0,
          "duration": 0.3125,
          "velocity": 100
        },
        {
          "pitch": 54,
          "onset": 22.1562,
          "duration": 0.3125,
          "velocity": 100
        },
        {
          "pitch": 60,
          "onset": 22.3438,
          "duration": 0.3125,
          "velocity": 100
        },
        {
          "pitch": 48,
          "onset": 22.5,
          "duration": 0.5,
          "velocity": 100
        },
        {
          "pitch": 57,
          "onset": 22.5,
          "duration": 0.3125,
          "velocity": 100
        },
        {
          "pitch": 54,
          "onset": 22.6562,
          "duration": 0.3125,
          "velocity": 100
        },
        {
          "pitch": 63,
          "onset": 22.8438,
          "duration": 0.3125,
          "velocity": 100
        },
        {
          "pitch": 46,
          "onset": 23.0,
          "duration": 0.5,
          "velocity": 100
        },
        {
          "pitch": 57,
          "onset": 23.0,
          "duration": 0.3125,
          "velocity": 100
        },
        {
          "pitch": 54,
          "onset": 23.1562,
          "duration": 0.3125,
          "velocity": 100
        },
        {
          "pitch": 62,
          "onset": 23.3438,
          "duration": 0.3125,
          "velocity": 100
        },
        {
          "pitch": 45,
          "onset": 23.5,
          "duration": 0.5,
          "velocity": 100
        },
        {
          "pitch": 57,
          "onset": 23.5,
          "duration": 0.3125,
          "velocity": 100
        },
        {
          "pitch": 54,
          "onset": 23.6562,
          "duration": 0.3125,
          "velocity": 100
        },
        {
          "pitch": 60,
          "onset": 23.8438,
          "duration": 0.1562,
          "velocity": 100
        },
        {
          "pitch": 43,
          "onset": 24.0,
          "duration": 0.5,
          "velocity": 100
        },
        {
          "pitch": 58,
          "onset": 24.0,
          "duration": 0.3125,
          "velocity": 100
        },
        {
          "pitch": 55,
          "onset": 24.1562,
          "duration": 0.3125,
          "velocity": 100
        },
        {
          "pitch": 62,
          "onset": 24.3438,
          "duration": 0.3125,
          "velocity": 100
        },
        {
          "pitch": 46,
          "onset": 24.5,
          "duration": 0.5,
          "velocity": 100
        },
        {
          "pitch": 58,
          "onset": 24.5,
          "duration": 0.3125,
          "velocity": 100
        },
        {
          "pitch": 55,
          "onset": 24.6562,
          "duration": 0.3125,
          "velocity": 100
        },
        {
          "pitch": 62,
          "onset": 24.8438,
          "duration": 0.3125,
          "velocity": 100
        },
        {
          "pitch": 48,
          "onset": 25.0,
          "duration": 0.5,
          "velocity": 100
        },
        {
          "pitch": 58,
          "onset": 25.0,
          "duration": 0.3125,
          "velocity": 100
        },
        {
          "pitch": 55,
          "onset": 25.1562,
          "duration": 0.3125,
          "velocity": 100
        },
        {
          "pitch": 64,
          "onset": 25.3438,
          "duration": 0.3125,
          "velocity": 100
        },
        {
          "pitch": 50,
          "onset": 25.5,
          "duration": 0.5,
          "velocity": 100
        },
        {
          "pitch": 58,
          "onset": 25.5,
          "duration": 0.3125,
          "velocity": 100
        },
        {
          "pitch": 55,
          "onset": 25.6562,
          "duration": 0.3125,
          "velocity": 100
        },
        {
          "pitch": 66,
          "onset": 25.8438,
          "duration": 0.3125,
          "velocity": 100
        },
        {
          "pitch": 51,
          "onset": 26.0,
          "duration": 0.5,
          "velocity": 100
        },
        {
          "pitch": 58,
          "onset": 26.0,
          "duration": 0.3125,
          "velocity": 100
        },
        {
          "pitch": 55,
          "onset": 26.1562,
          "duration": 0.3125,
          "velocity": 100
        },
        {
          "pitch": 67,
          "onset": 26.3438,
          "duration": 0.3125,
          "velocity": 100
        },
        {
          "pitch": 46,
          "onset": 26.5,
          "duration": 0.5,
          "velocity": 100
        },
        {
          "pitch": 62,
          "onset": 26.5,
          "duration": 0.3125,
          "velocity": 100
        },
        {
          "pitch": 58,
          "onset": 26.6562,
          "duration": 0.3125,
          "velocity": 100
        },
        {
          "pitch": 67,
          "onset": 26.8438,
          "duration": 0.3125,
          "velocity": 100
        },
        {
          "pitch": 48,
          "onset": 27.0,
          "duration": 0.5,
          "velocity": 100
        },
        {
          "pitch": 63,
          "onset": 27.0,
          "duration": 0.3125,
          "velocity": 100
        },
        {
          "pitch": 57,
          "onset": 27.1562,
          "duration": 0.3125,
          "velocity": 100
        },
        {
          "pitch": 67,
          "onset": 27.3438,
          "duration": 0.3125,
          "velocity": 100
        },
        {
          "pitch": 50,
          "onset": 27.5,
          "duration": 0.5,
          "velocity": 100
        },
        {
          "pitch": 62,
          "onset": 27.5,
          "duration": 0.3125,
          "velocity": 100
        },
        {
          "pitch": 57,
          "onset": 27.6562,
          "duration": 0.3125,
          "velocity": 100
        },
        {
          "pitch": 66,
          "onset": 27.8438,
          "duration": 0.1562,
          "velocity": 100
        },
        {
          "pitch": 43,
          "onset": 28.0,
          "duration": 1.0,
          "velocity": 100
        },
        {
          "pitch": 62,
          "onset": 28.0,
          "duration": 0.3125,
          "velocity": 100
        },
        {
          "pitch": 58,
          "onset": 28.1562,
          "duration": 0.3125,
          "velocity": 100
        },
        {
          "pitch": 67,
          "onset": 28.3438,
          "duration": 0.3125,
          "velocity": 100
        },
        {
          "pitch": 62,
          "onset": 28.5,
          "duration": 0.3125,
          "velocity": 100
        },
        {
          "pitch": 58,
          "onset": 28.6562,
          "duration": 0.3125,
          "velocity": 100
        },
        {
          "pitch": 62,
          "onset": 28.8438,
          "duration": 0.3125,
          "velocity": 100
        },
        {
          "pitch": 58,
          "onset": 29.0,
          "duration": 0.3125,
          "velocity": 100
        },
        {
          "pitch": 55,
          "onset": 29.1562,
          "duration": 0.3125,
          "velocity": 100
        },
        {
          "pitch": 62,
          "onset": 29.3438,
          "duration": 0.3125,
          "velocity": 100
        },
        {
          "pitch": 53,
          "onset": 29.5,
          "duration": 0.5,
          "velocity": 100
        },
        {
          "pitch": 58,
          "onset": 29.5,
          "duration": 0.3125,
          "velocity": 100
        },
        {
          "pitch": 55,
          "onset": 29.6562,
          "duration": 0.3125,
          "velocity": 100
        },
        {
          "pitch": 62,
          "onset": 29.8438,
          "duration": 0.3125,
          "velocity": 100
        },
        {
          "pitch": 52,
          "onset": 30.0,
          "duration": 0.5,
          "velocity": 100
        },
        {
          "pitch": 59,
          "onset": 30.0,
          "duration": 0.3125,
          "velocity": 100
        },
        {
          "pitch": 56,
          "onset": 30.1562,
          "duration": 0.3125,
          "velocity": 100
        },
        {
          "pitch": 62,
          "onset": 30.3438,
          "duration": 0.3125,
          "velocity": 100
        },
        {
          "pitch": 50,
          "onset": 30.5,
          "duration": 0.5,
          "velocity": 100
        },
        {
          "pitch": 59,
          "onset": 30.5,
          "duration": 0.3125,
          "velocity": 100
        },
        {
          "pitch": 56,
          "onset": 30.6562,
          "duration": 0.3125,
          "velocity": 100
        },
        {
          "pitch": 65,
          "onset": 30.8438,
          "duration": 0.3125,
          "velocity": 100
        },
        {
          "pitch": 48,
          "onset": 31.0,
          "duration": 0.5,
          "velocity": 100
        },
        {
          "pitch": 59,
          "onset": 31.0,
          "duration": 0.3125,
          "velocity": 100
        },
        {
          "pitch": 56,
          "onset": 31.1562,
          "duration": 0.3125,
          "velocity": 100
        },
        {
          "pitch": 64,
          "onset": 31.3438,
          "duration": 0.3125,
          "velocity": 100
        },
        {
          "pitch": 47,
          "onset": 31.5,
          "duration": 0.5,
          "velocity": 100
        },
        {
          "pitch": 59,
          "onset": 31.5,
          "duration": 0.3125,
          "velocity": 100
        },
        {
          "pitch": 56,
          "onset": 31.6562,
          "duration": 0.3125,
          "velocity": 100
        },
        {
          "pitch": 62,
          "onset": 31.8438,
          "duration": 0.1562,
          "velocity": 100
        },
        {
          "pitch": 45,
          "onset": 32.0,
          "duration": 0.5,
          "velocity": 100
        },
        {
          "pitch": 60,
          "onset": 32.0,
          "duration": 0.3125,
          "velocity": 100
        },
        {
          "pitch": 57,
          "onset": 32.1562,
          "duration": 0.3125,
          "velocity": 100
        },
        {
          "pitch": 64,
          "onset": 32.3438,
          "duration": 0.3125,
          "velocity": 100
        },
        {
          "pitch": 48,
          "onset": 32.5,
          "duration": 0.5,
          "velocity": 100
        },
        {
          "pitch": 60,
          "onset": 32.5,
          "duration": 0.3125,
          "velocity": 100
        },
        {
          "pitch": 57,
          "onset": 32.6562,
          "duration": 0.3125,
          "velocity": 100
        },
        {
          "pitch": 64,
          "onset": 32.8438,
          "duration": 0.3125,
          "velocity": 100
        },
        {
          "pitch": 50,
          "onset": 33.0,
          "duration": 0.5,
          "velocity": 100
        },
        {
          "pitch": 60,
          "onset": 33.0,
          "duration": 0.3125,
          "velocity": 100
        },
        {
          "pitch": 57,
          "onset": 33.1562,
          "duration": 0.3125,
          "velocity": 100
        },
        {
          "pitch": 66,
          "onset": 33.3438,
          "duration": 0.3125,
          "velocity": 100
        },
        {
          "pitch": 52,
          "onset": 33.5,
          "duration": 0.5,
          "velocity": 100
        },
        {
          "pitch": 60,
          "onset": 33.5,
          "duration": 0.3125,
          "velocity": 100
        },
        {
          "pitch": 57,
          "onset": 33.6562,
          "duration": 0.3125,
          "velocity": 100
        },
        {
          "pitch": 68,
          "onset": 33.8438,
          "duration": 0.3125,
          "velocity": 100
        },
        {
          "pitch": 53,
          "onset": 34.0,
          "duration": 0.5,
          "velocity": 100
        },
        {
          "pitch": 60,
          "onset": 34.0,
          "duration": 0.3125,
          "velocity": 100
        },
        {
          "pitch": 57,
          "onset": 34.1562,
          "duration": 0.3125,
          "velocity": 100
        },
        {
          "pitch": 69,
          "onset": 34.3438,
          "duration": 0.3125,
          "velocity": 100
        },
        {
          "pitch": 48,
          "onset": 34.5,
          "duration": 0.5,
          "velocity": 100
        },
        {
          "pitch": 64,
          "onset": 34.5,
          "duration": 0.3125,
          "velocity": 100
        },
        {
          "pitch": 60,
          "onset": 34.6562,
          "duration": 0.3125,
          "velocity": 100
        },
        {
          "pitch": 69,
          "onset": 34.8438,
          "duration": 0.3125,
          "velocity": 100
        },
        {
          "pitch": 50,
          "onset": 35.0,
          "duration": 0.5,
          "velocity": 100
        },
        {
          "pitch": 65,
          "onset": 35.0,
          "duration": 0.3125,
          "velocity": 100
        },
        {
          "pitch": 59,
          "onset": 35.1562,
          "duration": 0.3125,
          "velocity": 100
        },
        {
          "pitch": 69,
          "onset": 35.3438,
          "duration": 0.3125,
          "velocity": 100
        },
        {
          "pitch": 52,
          "onset": 35.5,
          "duration": 0.5,
          "velocity": 100
        },
        {
          "pitch": 64,
          "onset": 35.5,
          "duration": 0.3125,
          "velocity": 100
        },
        {
          "pitch": 59,
          "onset": 35.6562,
          "duration": 0.3125,
          "velocity": 100
        },
        {
          "pitch": 68,
          "onset": 35.8438,
          "duration": 0.1562,
          "velocity": 100
        },
        {
          "pitch": 45,
          "onset": 36.0,
          "duration": 0.5,
          "velocity": 100
        },
        {
          "pitch": 64,
          "onset": 36.0,
          "duration": 0.3125,
          "velocity": 100
        },
        {
          "pitch": 60,
          "onset": 36.1562,
          "duration": 0.3125,
          "velocity": 100
        },
        {
          "pitch": 69,
          "onset": 36.3438,
          "duration": 0.3125,
          "velocity": 100
        },
        {
          "pitch": 57,
          "onset": 36.5,
          "duration": 0.5,
          "velocity": 100
        },
        {
          "pitch": 64,
          "onset": 36.5,
          "duration": 0.3125,
          "velocity": 100
        },
        {
          "pitch": 60,
          "onset": 36.6562,
          "duration": 0.3125,
          "velocity": 100
        },
        {
          "pitch": 72,
          "onset": 36.8438,
          "duration": 0.3125,
          "velocity": 100
        },
        {
          "pitch": 57,
          "onset": 37.0,
          "duration": 0.5,
          "velocity": 100
        },
        {
          "pitch": 65,
          "onset": 37.0,
          "duration": 0.3125,
          "velocity": 100
        },
        {
          "pitch": 62,
          "onset": 37.1562,
          "duration": 0.3125,
          "velocity": 100
        },
        {
          "pitch": 70,
          "onset": 37.3438,
          "duration": 0.3125,
          "velocity": 100
        },
        {
          "pitch": 55,
          "onset": 37.5,
          "duration": 0.5,
          "velocity": 100
        },
        {
          "pitch": 67,
          "onset": 37.5,
          "duration": 0.3125,
          "velocity": 100
        },
        {
          "pitch": 64,
          "onset": 37.6562,
          "duration": 0.3125,
          "velocity": 100
        },
        {
          "pitch": 70,
          "onset": 37.8438,
          "duration": 0.3125,
          "velocity": 100
        },
        {
          "pitch": 53,
          "onset": 38.0,
          "duration": 0.5,
          "velocity": 100
        },
        {
          "pitch": 69,
          "onset": 38.0,
          "duration": 0.3125,
          "velocity": 100
        },
        {
          "pitch": 65,
          "onset": 38.1562,
          "duration": 0.3125,
          "velocity": 100
        },
        {
          "pitch": 69,
          "onset": 38.3438,
          "duration": 0.3125,
          "velocity": 100
        },
        {
          "pitch": 41,
          "onset": 38.5,
          "duration": 0.5,
          "velocity": 100
        },
        {
          "pitch": 60,
          "onset": 38.5,
          "duration": 0.3125,
          "velocity": 100
        },
        {
          "pitch": 57,
          "onset": 38.6562,
          "duration": 0.3125,
          "velocity": 100
        },
        {
          "pitch": 69,
          "onset": 38.8438,
          "duration": 0.3125,
          "velocity": 100
        },
        {
          "pitch": 41,
          "onset": 39.0,
          "duration": 0.5,
          "velocity": 100
        },
        {
          "pitch": 62,
          "onset": 39.0,
          "duration": 0.3125,
          "velocity": 100
        },
        {
          "pitch": 59,
          "onset": 39.1562,
          "duration": 0.3125,
          "velocity": 100
        },
        {
          "pitch": 67,
          "onset": 39.3438,
          "duration": 0.3125,
          "velocity": 100
        },
        {
          "pitch": 40,
          "onset": 39.5,
          "duration": 0.5,
          "velocity": 100
        },
        {
          "pitch": 64,
          "onset": 39.5,
          "duration": 0.3125,
          "velocity": 100
        },
        {
          "pitch": 61,
          "onset": 39.6562,
          "duration": 0.3125,
          "velocity": 100
        },
        {
          "pitch": 67,
          "onset": 39.8438,
          "duration": 0.1562,
          "velocity": 100
        },
        {
          "pitch": 38,
          "onset": 40.0,
          "duration": 0.5,
          "velocity": 100
        },
        {
          "pitch": 65,
          "onset": 40.0,
          "duration": 0.3125,
          "velocity": 100
        },
        {
          "pitch": 62,
          "onset": 40.1562,
          "duration": 0.3125,
          "velocity": 100
        },
        {
          "pitch": 74,
          "onset": 40.3438,
          "duration": 0.3125,
          "velocity": 100
        },
        {
          "pitch": 50,
          "onset": 40.5,
          "duration": 0.5,
          "velocity": 100
        },
        {
          "pitch": 69,
          "onset": 40.5,
          "duration": 0.3125,
          "velocity": 100
        },
        {
          "pitch": 65,
          "onset": 40.6562,
          "duration": 0.3125,
          "velocity": 100
        },
        {
          "pitch": 77,
          "onset": 40.8438,
          "duration": 0.3125,
          "velocity": 100
        },
        {
          "pitch": 50,
          "onset": 41.0,
          "duration": 0.5,
          "velocity": 100
        },
        {
          "pitch": 70,
          "onset": 41.0,
          "duration": 0.3125,
          "velocity": 100
        },
        {
          "pitch": 67,
          "onset": 41.1562,
          "duration": 0.3125,
          "velocity": 100
        },
        {
          "pitch": 75,
          "onset": 41.3438,
          "duration": 0.3125,
          "velocity": 100
        },
        {
          "pitch": 48,
          "onset": 41.5,
          "duration": 0.5,
          "velocity": 100
        },
        {
          "pitch": 72,
          "onset": 41.5,
          "duration": 0.3125,
          "velocity": 100
        },
        {
          "pitch": 69,
          "onset": 41.6562,
          "duration": 0.3125,
          "velocity": 100
        },
        {
          "pitch": 75,
          "onset": 41.8438,
          "duration": 0.3125,
          "velocity": 100
        },
        {
          "pitch": 46,
          "onset": 42.0,
          "duration": 0.5,
          "velocity": 100
        },
        {
          "pitch": 74,
          "onset": 42.0,
          "duration": 0.3125,
          "velocity": 100
        },
        {
          "pitch": 70,
          "onset": 42.1562,
          "duration": 0.3125,
          "velocity": 100
        },
        {
          "pitch": 74,
          "onset": 42.3438,
          "duration": 0.3125,
          "velocity": 100
        },
        {
          "pitch": 58,
          "onset": 42.5,
          "duration": 0.5,
          "velocity": 100
        },
        {
          "pitch": 65,
          "onset": 42.5,
          "duration": 0.3125,
          "velocity": 100
        },
        {
          "pitch": 62,
          "onset": 42.6562,
          "duration": 0.3125,
          "velocity": 100
        },
        {
          "pitch": 74,
          "onset": 42.8438,
          "duration": 0.3125,
          "velocity": 100
        },
        {
          "pitch": 58,
          "onset": 43.0,
          "duration": 0.5,
          "velocity": 100
        },
        {
          "pitch": 67,
          "onset": 43.0,
          "duration": 0.3125,
          "velocity": 100
        },
        {
          "pitch": 64,
          "onset": 43.1562,
          "duration": 0.3125,
          "velocity": 100
        },
        {
          "pitch": 72,
          "onset": 43.3438,
          "duration": 0.3125,
          "velocity": 100
        },
        {
          "pitch": 57,
          "onset": 43.5,
          "duration": 0.5,
          "velocity": 100
        },
        {
          "pitch": 69,
          "onset": 43.5,
          "duration": 0.3125,
          "velocity": 100
        },
        {
          "pitch": 66,
          "onset": 43.6562,
          "duration": 0.3125,
          "velocity": 100
        },
        {
          "pitch": 72,
          "onset": 43.8438,
          "duration": 0.1562,
          "velocity": 100
        },
        {
          "pitch": 55,
          "onset": 44.0,
          "duration": 1.0,
          "velocity": 100
        },
        {
          "pitch": 70,
          "onset": 44.0,
          "duration": 0.3125,
          "velocity": 100
        },
        {
          "pitch": 67,
          "onset": 44.1562,
          "duration": 0.3125,
          "velocity": 100
        },
        {
          "pitch": 74,
          "onset": 44.3438,
          "duration": 0.3125,
          "velocity": 100
        },
        {
          "pitch": 70,
          "onset": 44.5,
          "duration": 0.3125,
          "velocity": 100
        },
        {
          "pitch": 67,
          "onset": 44.6562,
          "duration": 0.3125,
          "velocity": 100
        },
        {
          "pitch": 79,
          "onset": 44.8438,
          "duration": 0.3125,
          "velocity": 100
        },
        {
          "pitch": 75,
          "onset": 45.0,
          "duration": 0.3125,
          "velocity": 100
        },
        {
          "pitch": 67,
          "onset": 45.1562,
          "duration": 0.3125,
          "velocity": 100
        },
        {
          "pitch": 79,
          "onset": 45.3438,
          "duration": 0.3125,
          "velocity": 100
        },
        {
          "pitch": 58,
          "onset": 45.5,
          "duration": 0.5,
          "velocity": 100
        },
        {
          "pitch": 74,
          "onset": 45.5,
          "duration": 0.3125,
          "velocity": 100
        },
        {
          "pitch": 67,
          "onset": 45.6562,
          "duration": 0.3125,
          "velocity": 100
        },
        {
          "pitch": 79,
          "onset": 45.8438,
          "duration": 0.3125,
          "velocity": 100
        },
        {
          "pitch": 57,
          "onset": 46.0,
          "duration": 0.5,
          "velocity": 100
        },
        {
          "pitch": 73,
          "onset": 46.0,
          "duration": 0.3125,
          "velocity": 100
        },
        {
          "pitch": 69,
          "onset": 46.1562,
          "duration": 0.3125,
          "velocity": 100
        },
        {
          "pitch": 79,
          "onset": 46.3438,
          "duration": 0.3125,
          "velocity": 100
        },
        {
          "pitch": 55,
          "onset": 46.5,
          "duration": 0.5,
          "velocity": 100
        },
        {
          "pitch": 76,
          "onset": 46.5,
          "duration": 0.3125,
          "velocity": 100
        },
        {
          "pitch": 73,
          "onset": 46.6562,
          "duration": 0.3125,
          "velocity": 100
        },
        {
          "pitch": 82,
          "onset": 46.8438,
          "duration": 0.3125,
          "velocity": 100
        },
        {
          "pitch": 53,
          "onset": 47.0,
          "duration": 0.5,
          "velocity": 100
        },
        {
          "pitch": 76,
          "onset": 47.0,
          "duration": 0.3125,
          "velocity": 100
        },
        {
          "pitch": 73,
          "onset": 47.1562,
          "duration": 0.3125,
          "velocity": 100
        },
        {
          "pitch": 81,
          "onset": 47.3438,
          "duration": 0.3125,
          "velocity": 100
        },
        {
          "pitch": 52,
          "onset": 47.5,
          "duration": 0.5,
          "velocity": 100
        },
        {
          "pitch": 76,
          "onset": 47.5,
          "duration": 0.3125,
          "velocity": 100
        },
        {
          "pitch": 73,
          "onset": 47.6562,
          "duration": 0.3125,
          "velocity": 100
        },
        {
          "pitch": 79,
          "onset": 47.8438,
          "duration": 0.1562,
          "velocity": 100
        },
        {
          "pitch": 50,
          "onset": 48.0,
          "duration": 0.5,
          "velocity": 100
        },
        {
          "pitch": 77,
          "onset": 48.0,
          "duration": 0.3125,
          "velocity": 100
        },
        {
          "pitch": 74,
          "onset": 48.1562,
          "duration": 0.3125,
          "velocity": 100
        },
        {
          "pitch": 69,
          "onset": 48.3438,
          "duration": 0.3125,
          "velocity": 100
        },
        {
          "pitch": 53,
          "onset": 48.5,
          "duration": 0.5,
          "velocity": 100
        },
        {
          "pitch": 65,
          "onset": 48.5,
          "duration": 0.3125,
          "velocity": 100
        },
        {
          "pitch": 62,
          "onset": 48.6562,
          "duration": 0.3125,
          "velocity": 100
        },
        {
          "pitch": 69,
          "onset": 48.8438,
          "duration": 0.3125,
          "velocity": 100
        },
        {
          "pitch": 55,
          "onset": 49.0,
          "duration": 0.5,
          "velocity": 100
        },
        {
          "pitch": 65,
          "onset": 49.0,
          "duration": 0.3125,
          "velocity": 100
        },
        {
          "pitch": 62,
          "onset": 49.1562,
          "duration": 0.3125,
          "velocity": 100
        },
        {
          "pitch": 71,
          "onset": 49.3438,
          "duration": 0.3125,
          "velocity": 100
        },
        {
          "pitch": 57,
          "onset": 49.5,
          "duration": 0.5,
          "velocity": 100
        },
        {
          "pitch": 65,
          "onset": 49.5,
          "duration": 0.3125,
          "velocity": 100
        },
        {
          "pitch": 62,
          "onset": 49.6562,
          "duration": 0.3125,
          "velocity": 100
        },
        {
          "pitch": 73,
          "onset": 49.8438,
          "duration": 0.3125,
          "velocity": 100
        },
        {
          "pitch": 58,
          "onset": 50.0,
          "duration": 0.5,
          "velocity": 100
        },
        {
          "pitch": 65,
          "onset": 50.0,
          "duration": 0.3125,
          "velocity": 100
        },
        {
          "pitch": 64,
          "onset": 50.1562,
          "duration": 0.3125,
          "velocity": 100
        },
        {
          "pitch": 74,
          "onset": 50.3438,
          "duration": 0.3125,
          "velocity": 100
        },
        {
          "pitch": 53,
          "onset": 50.5,
          "duration": 0.5,
          "velocity": 100
        },
        {
          "pitch": 65,
          "onset": 50.5,
          "duration": 0.3125,
          "velocity": 100
        },
        {
          "pitch": 62,
          "onset": 50.6562,
          "duration": 0.3125,
          "velocity": 100
        },
        {
          "pitch": 69,
          "onset": 50.8438,
          "duration": 0.3125,
          "velocity": 100
        },
        {
          "pitch": 55,
          "onset": 51.0,
          "duration": 0.5,
          "velocity": 100
        },
        {
          "pitch": 65,
          "onset": 51.0,
          "duration": 0.3125,
          "velocity": 100
        },
        {
          "pitch": 62,
          "onset": 51.1562,
          "duration": 0.3125,
          "velocity": 100
        },
        {
          "pitch": 70,
          "onset": 51.3438,
          "duration": 0.3125,
          "velocity": 100
        },
        {
          "pitch": 57,
          "onset": 51.5,
          "duration": 0.5,
          "velocity": 100
        },
        {
          "pitch": 64,
          "onset": 51.5,
          "duration": 0.3125,
          "velocity": 100
        },
        {
          "pitch": 61,
          "onset": 51.6562,
          "duration": 0.3125,
          "velocity": 100
        },
        {
          "pitch": 69,
          "onset": 51.8438,
          "duration": 0.1562,
          "velocity": 100
        },
        {
          "pitch": 46,
          "onset": 52.0,
          "duration": 0.5,
          "velocity": 100
        },
        {
          "pitch": 64,
          "onset": 52.0,
          "duration": 0.3125,
          "velocity": 100
        },
        {
          "pitch": 61,
          "onset": 52.1562,
          "duration": 0.3125,
          "velocity": 100
        },
        {
          "pitch": 67,
          "onset": 52.3438,
          "duration": 0.3125,
          "velocity": 100
        },
        {
          "pitch": 41,
          "onset": 52.5,
          "duration": 0.5,
          "velocity": 100
        },
        {
          "pitch": 62,
          "onset": 52.5,
          "duration": 0.3125,
          "velocity": 100
        },
        {
          "pitch": 57,
          "onset": 52.6562,
          "duration": 0.3125,
          "velocity": 100
        },
        {
          "pitch": 65,
          "onset": 52.8438,
          "duration": 0.3125,
          "velocity": 100
        },
        {
          "pitch": 43,
          "onset": 53.0,
          "duration": 0.5,
          "velocity": 100
        },
        {
          "pitch": 62,
          "onset": 53.0,
          "duration": 0.3125,
          "velocity": 100
        },
        {
          "pitch": 58,
          "onset": 53.1562,
          "duration": 0.3125,
          "velocity": 100
        },
        {
          "pitch": 64,
          "onset": 53.3438,
          "duration": 0.3125,
          "velocity": 100
        },
        {
          "pitch": 45,
          "onset": 53.5,
          "duration": 0.5,
          "velocity": 100
        },
        {
          "pitch": 60,
          "onset": 53.5,
          "duration": 0.3125,
          "velocity": 100
        },
        {
          "pitch": 53,
          "onset": 53.6562,
          "duration": 0.3125,
          "velocity": 100
        },
        {
          "pitch": 63,
          "onset": 53.8438,
          "duration": 0.3125,
          "velocity": 100
        },
        {
          "pitch": 46,
          "onset": 54.0,
          "duration": 0.5,
          "velocity": 100
        },
        {
          "pitch": 58,
          "onset": 54.0,
          "duration": 0.3125,
          "velocity": 100
        },
        {
          "pitch": 53,
          "onset": 54.1562,
          "duration": 0.3125,
          "velocity": 100
        },
        {
          "pitch": 62,
          "onset": 54.3438,
          "duration": 0.3125,
          "velocity": 100
        },
        {
          "pitch": 41,
          "onset": 54.5,
          "duration": 0.5,
          "velocity": 100
        },
        {
          "pitch": 57,
          "onset": 54.5,
          "duration": 0.3125,
          "velocity": 100
        },
        {
          "pitch": 53,
          "onset": 54.6562,
          "duration": 0.3125,
          "velocity": 100
        },
        {
          "pitch": 62,
          "onset": 54.8438,
          "duration": 0.3125,
          "velocity": 100
        },
        {
          "pitch": 43,
          "onset": 55.0,
          "duration": 0.5,
          "velocity": 100
        },
        {
          "pitch": 58,
          "onset": 55.0,
          "duration": 0.3125,
          "velocity": 100
        },
        {
          "pitch": 50,
          "onset": 55.1562,
          "duration": 0.3125,
          "velocity": 100
        },
        {
          "pitch": 62,
          "onset": 55.3438,
          "duration": 0.3125,
          "velocity": 100
        },
        {
          "pitch": 45,
          "onset": 55.5,
          "duration": 0.5,
          "velocity": 100
        },
        {
          "pitch": 57,
          "onset": 55.5,
          "duration": 0.3125,
          "velocity": 100
        },
        {
          "pitch": 52,
          "onset": 55.6562,
          "duration": 0.3125,
          "velocity": 100
        },
        {
          "pitch": 61,
          "onset": 55.8438,
          "duration": 0.1562,
          "velocity": 100
        },
        {
          "pitch": 38,
          "onset": 56.0,
          "duration": 1.6562,
          "velocity": 100
        },
        {
          "pitch": 57,
          "onset": 56.0,
          "duration": 0.3125,
          "velocity": 100
        },
        {
          "pitch": 54,
          "onset": 56.1562,
          "duration": 0.3125,
          "velocity": 100
        },
        {
          "pitch": 57,
          "onset": 56.3438,
          "duration": 0.3125,
          "velocity": 100
        },
        {
          "pitch": 60,
          "onset": 56.5,
          "duration": 0.3125,
          "velocity": 100
        },
        {
          "pitch": 57,
          "onset": 56.6562,
          "duration": 0.3125,
          "velocity": 100
        },
        {
          "pitch": 60,
          "onset": 56.8438,
          "duration": 0.3125,
          "velocity": 100
        },
        {
          "pitch": 63,
          "onset": 57.0,
          "duration": 0.3125,
          "velocity": 100
        },
        {
          "pitch": 60,
          "onset": 57.1562,
          "duration": 0.3125,
          "velocity": 100
        },
        {
          "pitch": 63,
          "onset": 57.3438,
          "duration": 0.1562,
          "velocity": 100
        },
        {
          "pitch": 66,
          "onset": 57.5,
          "duration": 0.5,
          "velocity": 100
        },
        {
          "pitch": 42,
          "onset": 57.6562,
          "duration": 0.3125,
          "velocity": 100
        },
        {
          "pitch": 45,
          "onset": 57.8438,
          "duration": 0.1562,
          "velocity": 100
        },
        {
          "pitch": 50,
          "onset": 58.0,
          "duration": 1.6562,
          "velocity": 100
        },
        {
          "pitch": 58,
          "onset": 58.0,
          "duration": 0.3125,
          "velocity": 100
        },
        {
          "pitch": 55,
          "onset": 58.1562,
          "duration": 0.3125,
          "velocity": 100
        },
        {
          "pitch": 58,
          "onset": 58.3438,
          "duration": 0.3125,
          "velocity": 100
        },
        {
          "pitch": 62,
          "onset": 58.5,
          "duration": 0.3125,
          "velocity": 100
        },
        {
          "pitch": 58,
          "onset": 58.6562,
          "duration": 0.3125,
          "velocity": 100
        },
        {
          "pitch": 62,
          "onset": 58.8438,
          "duration": 0.3125,
          "velocity": 100
        },
        {
          "pitch": 67,
          "onset": 59.0,
          "duration": 0.3125,
          "velocity": 100
        },
        {
          "pitch": 62,
          "onset": 59.1562,
          "duration": 0.3125,
          "velocity": 100
        },
        {
          "pitch": 67,
          "onset": 59.3438,
          "duration": 0.1562,
          "velocity": 100
        },
        {
          "pitch": 70,
          "onset": 59.5,
          "duration": 0.6562,
          "velocity": 100
        },
        {
          "pitch": 55,
          "onset": 59.6562,
          "duration": 0.3125,
          "velocity": 100
        },
        {
          "pitch": 58,
          "onset": 59.8438,
          "duration": 0.1562,
          "velocity": 100
        },
        {
          "pitch": 61,
          "onset": 60.0,
          "duration": 0.5,
          "velocity": 100
        },
        {
          "pitch": 67,
          "onset": 60.1562,
          "duration": 0.3125,
          "velocity": 100
        },
        {
          "pitch": 76,
          "onset": 60.3438,
          "duration": 0.3125,
          "velocity": 100
        },
        {
          "pitch": 50,
          "onset": 60.5,
          "duration": 0.5,
          "velocity": 100
        },
        {
          "pitch": 70,
          "onset": 60.5,
          "duration": 0.3125,
          "velocity": 100
        },
        {
          "pitch": 67,
          "onset": 60.6562,
          "duration": 0.3125,
          "velocity": 100
        },
        {
          "pitch": 79,
          "onset": 60.8438,
          "duration": 0.3125,
          "velocity": 100
        },
        {
          "pitch": 61,
          "onset": 61.0,
          "duration": 0.5,
          "velocity": 100
        },
        {
          "pitch": 70,
          "onset": 61.0,
          "duration": 0.3125,
          "velocity": 100
        },
        {
          "pitch": 67,
          "onset": 61.1562,
          "duration": 0.3125,
          "velocity": 100
        },
        {
          "pitch": 76,
          "onset": 61.3438,
          "duration": 0.3125,
          "velocity": 100
        },
        {
          "pitch": 50,
          "onset": 61.5,
          "duration": 0.5,
          "velocity": 100
        },
        {
          "pitch": 70,
          "onset": 61.5,
          "duration": 0.3125,
          "velocity": 100
        },
        {
          "pitch": 67,
          "onset": 61.6562,
          "duration": 0.3125,
          "velocity": 100
        },
        {
          "pitch": 73,
          "onset": 61.8438,
          "duration": 0.1562,
          "velocity": 100
        },
        {
          "pitch": 61,
          "onset": 62.0,
          "duration": 0.5,
          "velocity": 100
        },
        {
          "pitch": 70,
          "onset": 62.0,
          "duration": 0.3125,
          "velocity": 100
        },
        {
          "pitch": 67,
          "onset": 62.1562,
          "duration": 0.3125,
          "velocity": 100
        },
        {
          "pitch": 76,
          "onset": 62.3438,
          "duration": 0.3125,
          "velocity": 100
        },
        {
          "pitch": 50,
          "onset": 62.5,
          "duration": 0.5,
          "velocity": 100
        },
        {
          "pitch": 70,
          "onset": 62.5,
          "duration": 0.3125,
          "velocity": 100
        },
        {
          "pitch": 67,
          "onset": 62.6562,
          "duration": 0.3125,
          "velocity": 100
        },
        {
          "pitch": 79,
          "onset": 62.8438,
          "duration": 0.3125,
          "velocity": 100
        },
        {
          "pitch": 61,
          "onset": 63.0,
          "duration": 0.5,
          "velocity": 100
        },
        {
          "pitch": 70,
          "onset": 63.0,
          "duration": 0.3125,
          "velocity": 100
        },
        {
          "pitch": 67,
          "onset": 63.1562,
          "duration": 0.3125,
          "velocity": 100
        },
        {
          "pitch": 76,
          "onset": 63.3438,
          "duration": 0.3125,
          "velocity": 100
        },
        {
          "pitch": 50,
          "onset": 63.5,
          "duration": 0.5,
          "velocity": 100
        },
        {
          "pitch": 70,
          "onset": 63.5,
          "duration": 0.3125,
          "velocity": 100
        },
        {
          "pitch": 67,
          "onset": 63.6562,
          "duration": 0.3125,
          "velocity": 100
        },
        {
          "pitch": 73,
          "onset": 63.8438,
          "duration": 0.1562,
          "velocity": 100
        },
        {
          "pitch": 60,
          "onset": 64.0,
          "duration": 0.5,
          "velocity": 100
        },
        {
          "pitch": 69,
          "onset": 64.0,
          "duration": 0.3125,
          "velocity": 100
        },
        {
          "pitch": 66,
          "onset": 64.1562,
          "duration": 0.3125,
          "velocity": 100
        },
        {
          "pitch": 74,
          "onset": 64.3438,
          "duration": 0.3125,
          "velocity": 100
        },
        {
          "pitch": 50,
          "onset": 64.5,
          "duration": 0.5,
          "velocity": 100
        },
        {
          "pitch": 69,
          "onset": 64.5,
          "duration": 0.3125,
          "velocity": 100
        },
        {
          "pitch": 66,
          "onset": 64.6562,
          "duration": 0.3125,
          "velocity": 100
        },
        {
          "pitch": 75,
          "onset": 64.8438,
          "duration": 0.3125,
          "velocity": 100
        },
        {
          "pitch": 60,
          "onset": 65.0,
          "duration": 0.5,
          "velocity": 100
        },
        {
          "pitch": 69,
          "onset": 65.0,
          "duration": 0.3125,
          "velocity": 100
        },
        {
          "pitch": 66,
          "onset": 65.1562,
          "duration": 0.3125,
          "velocity": 100
        },
        {
          "pitch": 74,
          "onset": 65.3438,
          "duration": 0.3125,
          "velocity": 100
        },
        {
          "pitch": 50,
          "onset": 65.5,
          "duration": 0.5,
          "velocity": 100
        },
        {
          "pitch": 69,
          "onset": 65.5,
          "duration": 0.3125,
          "velocity": 100
        },
        {
          "pitch": 66,
          "onset": 65.6562,
          "duration": 0.3125,
          "velocity": 100
        },
        {
          "pitch": 72,
          "onset": 65.8438,
          "duration": 0.1562,
          "velocity": 100
        },
        {
          "pitch": 60,
          "onset": 66.0,
          "duration": 0.5,
          "velocity": 100
        },
        {
          "pitch": 69,
          "onset": 66.0,
          "duration": 0.3125,
          "velocity": 100
        },
        {
          "pitch": 66,
          "onset": 66.1562,
          "duration": 0.3125,
          "velocity": 100
        },
        {
          "pitch": 74,
          "onset": 66.3438,
          "duration": 0.3125,
          "velocity": 100
        },
        {
          "pitch": 50,
          "onset": 66.5,
          "duration": 0.5,
          "velocity": 100
        },
        {
          "pitch": 69,
          "onset": 66.5,
          "duration": 0.3125,
          "velocity": 100
        },
        {
          "pitch": 66,
          "onset": 66.6562,
          "duration": 0.3125,
          "velocity": 100
        },
        {
          "pitch": 75,
          "onset": 66.8438,
          "duration": 0.3125,
          "velocity": 100
        },
        {
          "pitch": 60,
          "onset": 67.0,
          "duration": 0.5,
          "velocity": 100
        },
        {
          "pitch": 69,
          "onset": 67.0,
          "duration": 0.3125,
          "velocity": 100
        },
        {
          "pitch": 66,
          "onset": 67.1562,
          "duration": 0.3125,
          "velocity": 100
        },
        {
          "pitch": 74,
          "onset": 67.3438,
          "duration": 0.3125,
          "velocity": 100
        },
        {
          "pitch": 50,
          "onset": 67.5,
          "duration": 0.5,
          "velocity": 100
        },
        {
          "pitch": 69,
          "onset": 67.5,
          "duration": 0.3125,
          "velocity": 100
        },
        {
          "pitch": 66,
          "onset": 67.6562,
          "duration": 0.3125,
          "velocity": 100
        },
        {
          "pitch": 72,
          "onset": 67.8438,
          "duration": 0.1562,
          "velocity": 100
        },
        {
          "pitch": 58,
          "onset": 68.0,
          "duration": 0.5,
          "velocity": 100
        },
        {
          "pitch": 67,
          "onset": 68.0,
          "duration": 0.3125,
          "velocity": 100
        },
        {
          "pitch": 62,
          "onset": 68.1562,
          "duration": 0.3125,
          "velocity": 100
        },
        {
          "pitch": 67,
          "onset": 68.3438,
          "duration": 0.3125,
          "velocity": 100
        },
        {
          "pitch": 50,
          "onset": 68.5,
          "duration": 0.5,
          "velocity": 100
        },
        {
          "pitch": 70,
          "onset": 68.5,
          "duration": 0.3125,
          "velocity": 100
        },
        {
          "pitch": 67,
          "onset": 68.6562,
          "duration": 0.3125,
          "velocity": 100
        },
        {
          "pitch": 70,
          "onset": 68.8438,
          "duration": 0.3125,
          "velocity": 100
        },
        {
          "pitch": 58,
          "onset": 69.0,
          "duration": 0.5,
          "velocity": 100
        },
        {
          "pitch": 74,
          "onset": 69.0,
          "duration": 0.3125,
          "velocity": 100
        },
        {
          "pitch": 70,
          "onset": 69.1562,
          "duration": 0.3125,
          "velocity": 100
        },
        {
          "pitch": 74,
          "onset": 69.3438,
          "duration": 0.3125,
          "velocity": 100
        },
        {
          "pitch": 50,
          "onset": 69.5,
          "duration": 0.5,
          "velocity": 100
        },
        {
          "pitch": 79,
          "onset": 69.5,
          "duration": 0.3125,
          "velocity": 100
        },
        {
          "pitch": 74,
          "onset": 69.6562,
          "duration": 0.3125,
          "velocity": 100
        },
        {
          "pitch": 79,
          "onset": 69.8438,
          "duration": 0.3125,
          "velocity": 100
        },
        {
          "pitch": 55,
          "onset": 70.0,
          "duration": 0.5,
          "velocity": 100
        },
        {
          "pitch": 82,
          "onset": 70.0,
          "duration": 0.3125,
          "velocity": 100
        },
        {
          "pitch": 81,
          "onset": 70.1562,
          "duration": 0.3125,
          "velocity": 100
        },
        {
          "pitch": 79,
          "onset": 70.3438,
          "duration": 0.3125,
          "velocity": 100
        },
        {
          "pitch": 50,
          "onset": 70.5,
          "duration": 0.5,
          "velocity": 100
        },
        {
          "pitch": 77,
          "onset": 70.5,
          "duration": 0.3125,
          "velocity": 100
        },
        {
          "pitch": 76,
          "onset": 70.6562,
          "duration": 0.3125,
          "velocity": 100
        },
        {
          "pitch": 74,
          "onset": 70.8438,
          "duration": 0.3125,
          "velocity": 100
        },
        {
          "pitch": 55,
          "onset": 71.0,
          "duration": 0.5,
          "velocity": 100
        },
        {
          "pitch": 73,
          "onset": 71.0,
          "duration": 0.3125,
          "velocity": 100
        },
        {
          "pitch": 69,
          "onset": 71.1562,
          "duration": 0.3125,
          "velocity": 100
        },
        {
          "pitch": 73,
          "onset": 71.3438,
          "duration": 0.3125,
          "velocity": 100
        },
        {
          "pitch": 50,
          "onset": 71.5,
          "duration": 0.5,
          "velocity": 100
        },
        {
          "pitch": 76,
          "onset": 71.5,
          "duration": 0.3125,
          "velocity": 100
        },
        {
          "pitch": 73,
          "onset": 71.6562,
          "duration": 0.3125,
          "velocity": 100
        },
        {
          "pitch": 76,
          "onset": 71.8438,
          "duration": 0.1562,
          "velocity": 100
        },
        {
          "pitch": 52,
          "onset": 72.0,
          "duration": 0.5,
          "velocity": 100
        },
        {
          "pitch": 79,
          "onset": 72.0,
          "duration": 0.3125,
          "velocity": 100
        },
        {
          "pitch": 76,
          "onset": 72.1562,
          "duration": 0.3125,
          "velocity": 100
        },
        {
          "pitch": 74,
          "onset": 72.3438,
          "duration": 0.3125,
          "velocity": 100
        },
        {
          "pitch": 50,
          "onset": 72.5,
          "duration": 0.5,
          "velocity": 100
        },
        {
          "pitch": 73,
          "onset": 72.5,
          "duration": 0.3125,
          "velocity": 100
        },
        {
          "pitch": 71,
          "onset": 72.6562,
          "duration": 0.3125,
          "velocity": 100
        },
        {
          "pitch": 69,
          "onset": 72.8438,
          "duration": 0.3125,
          "velocity": 100
        },
        {
          "pitch": 52,
          "onset": 73.0,
          "duration": 0.5,
          "velocity": 100
        },
        {
          "pitch": 67,
          "onset": 73.0,
          "duration": 0.3125,
          "velocity": 100
        },
        {
          "pitch": 64,
          "onset": 73.1562,
          "duration": 0.3125,
          "velocity": 100
        },
        {
          "pitch": 67,
          "onset": 73.3438,
          "duration": 0.3125,
          "velocity": 100
        },
        {
          "pitch": 50,
          "onset": 73.5,
          "duration": 0.5,
          "velocity": 100
        },
        {
          "pitch": 70,
          "onset": 73.5,
          "duration": 0.3125,
          "velocity": 100
        },
        {
          "pitch": 67,
          "onset": 73.6562,
          "duration": 0.3125,
          "velocity": 100
        },
        {
          "pitch": 70,
          "onset": 73.8438,
          "duration": 0.3125,
          "velocity": 100
        },
        {
          "pitch": 52,
          "onset": 74.0,
          "duration": 0.5,
          "velocity": 100
        },
        {
          "pitch": 73,
          "onset": 74.0,
          "duration": 0.3125,
          "velocity": 100
        },
        {
          "pitch": 67,
          "onset": 74.1562,
          "duration": 0.3125,
          "velocity": 100
        },
        {
          "pitch": 76,
          "onset": 74.3438,
          "duration": 0.3125,
          "velocity": 100
        },
        {
          "pitch": 50,
          "onset": 74.5,
          "duration": 0.5,
          "velocity": 100
        },
        {
          "pitch": 73,
          "onset": 74.5,
          "duration": 0.3125,
          "velocity": 100
        },
        {
          "pitch": 70,
          "onset": 74.6562,
          "duration": 0.3125,
          "velocity": 100
        },
        {
          "pitch": 76,
          "onset": 74.8438,
          "duration": 0.3125,
          "velocity": 100
        },
        {
          "pitch": 52,
          "onset": 75.0,
          "duration": 0.5,
          "velocity": 100
        },
        {
          "pitch": 73,
          "onset": 75.0,
          "duration": 0.3125,
          "velocity": 100
        },
        {
          "pitch": 69,
          "onset": 75.1562,
          "duration": 0.3125,
          "velocity": 100
        },
        {
          "pitch": 76,
          "onset": 75.3438,
          "duration": 0.3125,
          "velocity": 100
        },
        {
          "pitch": 50,
          "onset": 75.5,
          "duration": 0.5,
          "velocity": 100
        },
        {
          "pitch": 73,
          "onset": 75.5,
          "duration": 0.3125,
          "velocity": 100
        },
        {
          "pitch": 67,
          "onset": 75.6562,
          "duration": 0.3125,
          "velocity": 100
        },
        {
          "pitch": 76,
          "onset": 75.8438,
          "duration": 0.1562,
          "velocity": 100
        },
        {
          "pitch": 54,
          "onset": 76.0,
          "duration": 0.5,
          "velocity": 100
        },
        {
          "pitch": 72,
          "onset": 76.0,
          "duration": 0.3125,
          "velocity": 100
        },
        {
          "pitch": 69,
          "onset": 76.1562,
          "duration": 0.3125,
          "velocity": 100
        },
        {
          "pitch": 74,
          "onset": 76.3438,
          "duration": 0.3125,
          "velocity": 100
        },
        {
          "pitch": 50,
          "onset": 76.5,
          "duration": 0.5,
          "velocity": 100
        },
        {
          "pitch": 70,
          "onset": 76.5,
          "duration": 0.3125,
          "velocity": 100
        },
        {
          "pitch": 67,
          "onset": 76.6562,
          "duration": 0.3125,
          "velocity": 100
        },
        {
          "pitch": 75,
          "onset": 76.8438,
          "duration": 0.3125,
          "velocity": 100
        },
        {
          "pitch": 54,
          "onset": 77.0,
          "duration": 0.5,
          "velocity": 100
        },
        {
          "pitch": 69,
          "onset": 77.0,
          "duration": 0.3125,
          "velocity": 100
        },
        {
          "pitch": 66,
          "onset": 77.1562,
          "duration": 0.3125,
          "velocity": 100
        },
        {
          "pitch": 74,
          "onset": 77.3438,
          "duration": 0.3125,
          "velocity": 100
        },
        {
          "pitch": 50,
          "onset": 77.5,
          "duration": 4.5,
          "velocity": 100
        },
        {
          "pitch": 69,
          "onset": 77.5,
          "duration": 0.3125,
          "velocity": 100
        },
        {
          "pitch": 66,
          "onset": 77.6562,
          "duration": 0.3125,
          "velocity": 100
        },
        {
          "pitch": 72,
          "onset": 77.8438,
          "duration": 0.3125,
          "velocity": 100
        },
        {
          "pitch": 55,
          "onset": 78.0,
          "duration": 0.5,
          "velocity": 100
        },
        {
          "pitch": 67,
          "onset": 78.0,
          "duration": 0.3125,
          "velocity": 100
        },
        {
          "pitch": 62,
          "onset": 78.1562,
          "duration": 0.3125,
          "velocity": 100
        },
        {
          "pitch": 70,
          "onset": 78.3438,
          "duration": 0.3125,
          "velocity": 100
        },
        {
          "pitch": 57,
          "onset": 78.5,
          "duration": 0.5,
          "velocity": 100
        },
        {
          "pitch": 67,
          "onset": 78.5,
          "duration": 0.3125,
          "velocity": 100
        },
        {
          "pitch": 65,
          "onset": 78.6562,
          "duration": 0.3125,
          "velocity": 100
        },
        {
          "pitch": 70,
          "onset": 78.8438,
          "duration": 0.3125,
          "velocity": 100
        },
        {
          "pitch": 55,
          "onset": 79.0,
          "duration": 0.5,
          "velocity": 100
        },
        {
          "pitch": 67,
          "onset": 79.0,
          "duration": 0.3125,
          "velocity": 100
        },
        {
          "pitch": 63,
          "onset": 79.1562,
          "duration": 0.3125,
          "velocity": 100
        },
        {
          "pitch": 70,
          "onset": 79.3438,
          "duration": 0.3125,
          "velocity": 100
        },
        {
          "pitch": 53,
          "onset": 79.5,
          "duration": 0.5,
          "velocity": 100
        },
        {
          "pitch": 67,
          "onset": 79.5,
          "duration": 0.3125,
          "velocity": 100
        },
        {
          "pitch": 62,
          "onset": 79.6562,
          "duration": 0.3125,
          "velocity": 100
        },
        {
          "pitch": 70,
          "onset": 79.8438,
          "duration": 0.1562,
          "velocity": 100
        },
        {
          "pitch": 52,
          "onset": 80.0,
          "duration": 0.5,
          "velocity": 100
        },
        {
          "pitch": 67,
          "onset": 80.0,
          "duration": 0.3125,
          "velocity": 100
        },
        {
          "pitch": 61,
          "onset": 80.1562,
          "duration": 0.3125,
          "velocity": 100
        },
        {
          "pitch": 70,
          "onset": 80.3438,
          "duration": 0.3125,
          "velocity": 100
        },
        {
          "pitch": 55,
          "onset": 80.5,
          "duration": 0.5,
          "velocity": 100
        },
        {
          "pitch": 64,
          "onset": 80.5,
          "duration": 0.3125,
          "velocity": 100
        },
        {
          "pitch": 61,
          "onset": 80.6562,
          "duration": 0.3125,
          "velocity": 100
        },
        {
          "pitch": 70,
          "onset": 80.8438,
          "duration": 0.3125,
          "velocity": 100
        },
        {
          "pitch": 53,
          "onset": 81.0,
          "duration": 0.5,
          "velocity": 100
        },
        {
          "pitch": 64,
          "onset": 81.0,
          "duration": 0.3125,
          "velocity": 100
        },
        {
          "pitch": 61,
          "onset": 81.1562,
          "duration": 0.3125,
          "velocity": 100
        },
        {
          "pitch": 69,
          "onset": 81.3438,
          "duration": 0.3125,
          "velocity": 100
        },
        {
          "pitch": 52,
          "onset": 81.5,
          "duration": 0.5,
          "velocity": 100
        },
        {
          "pitch": 64,
          "onset": 81.5,
          "duration": 0.3125,
          "velocity": 100
        },
        {
          "pitch": 61,
          "onset": 81.6562,
          "duration": 0.3125,
          "velocity": 100
        },
        {
          "pitch": 67,
          "onset": 81.8438,
          "duration": 0.3125,
          "velocity": 100
        },
        {
          "pitch": 44,
          "onset": 82.0,
          "duration": 1.5,
          "velocity": 100
        },
        {
          "pitch": 50,
          "onset": 82.0,
          "duration": 0.5,
          "velocity": 100
        },
        {
          "pitch": 62,
          "onset": 82.0,
          "duration": 0.3125,
          "velocity": 100
        },
        {
          "pitch": 59,
          "onset": 82.1562,
          "duration": 0.3125,
          "velocity": 100
        },
        {
          "pitch": 65,
          "onset": 82.3438,
          "duration": 0.3125,
          "velocity": 100
        },
        {
          "pitch": 52,
          "onset": 82.5,
          "duration": 0.5,
          "velocity": 100
        },
        {
          "pitch": 62,
          "onset": 82.5,
          "duration": 0.3125,
          "velocity": 100
        },
        {
          "pitch": 61,
          "onset": 82.6562,
          "duration": 0.3125,
          "velocity": 100
        },
        {
          "pitch": 65,
          "onset": 82.8438,
          "duration": 0.3125,
          "velocity": 100
        },
        {
          "pitch": 53,
          "onset": 83.0,
          "duration": 1.0,
          "velocity": 100
        },
        {
          "pitch": 62,
          "onset": 83.0,
          "duration": 0.3125,
          "velocity": 100
        },
        {
          "pitch": 59,
          "onset": 83.1562,
          "duration": 0.3125,
          "velocity": 100
        },
        {
          "pitch": 65,
          "onset": 83.3438,
          "duration": 0.3125,
          "velocity": 100
        },
        {
          "pitch": 45,
          "onset": 83.5,
          "duration": 0.5,
          "velocity": 100
        },
        {
          "pitch": 62,
          "onset": 83.5,
          "duration": 0.3125,
          "velocity": 100
        },
        {
          "pitch": 57,
          "onset": 83.6562,
          "duration": 0.3125,
          "velocity": 100
        },
        {
          "pitch": 65,
          "onset": 83.8438,
          "duration": 0.1562,
          "velocity": 100
        },
        {
          "pitch": 46,
          "onset": 84.0,
          "duration": 2.0,
          "velocity": 100
        },
        {
          "pitch": 52,
          "onset": 84.0,
          "duration": 0.5,
          "velocity": 100
        },
        {
          "pitch": 61,
          "onset": 84.0,
          "duration": 0.3125,
          "velocity": 100
        },
        {
          "pitch": 55,
          "onset": 84.1562,
          "duration": 0.3125,
          "velocity": 100
        },
        {
          "pitch": 64,
          "onset": 84.3438,
          "duration": 0.3125,
          "velocity": 100
        },
        {
          "pitch": 55,
          "onset": 84.5,
          "duration": 0.5,
          "velocity": 100
        },
        {
          "pitch": 61,
          "onset": 84.5,
          "duration": 0.3125,
          "velocity": 100
        },
        {
          "pitch": 58,
          "onset": 84.6562,
          "duration": 0.3125,
          "velocity": 100
        },
        {
          "pitch": 64,
          "onset": 84.8438,
          "duration": 0.3125,
          "velocity": 100
        },
        {
          "pitch": 53,
          "onset": 85.0,
          "duration": 0.5,
          "velocity": 100
        },
        {
          "pitch": 61,
          "onset": 85.0,
          "duration": 0.3125,
          "velocity": 100
        },
        {
          "pitch": 57,
          "onset": 85.1562,
          "duration": 0.3125,
          "velocity": 100
        },
        {
          "pitch": 64,
          "onset": 85.3438,
          "duration": 0.3125,
          "velocity": 100
        },
        {
          "pitch": 52,
          "onset": 85.5,
          "duration": 0.5,
          "velocity": 100
        },
        {
          "pitch": 61,
          "onset": 85.5,
          "duration": 0.3125,
          "velocity": 100
        },
        {
          "pitch": 55,
          "onset": 85.6562,
          "duration": 0.3125,
          "velocity": 100
        },
        {
          "pitch": 64,
          "onset": 85.8438,
          "duration": 0.3125,
          "velocity": 100
        },
        {
          "pitch": 47,
          "onset": 86.0,
          "duration": 1.5,
          "velocity": 100
        },
        {
          "pitch": 53,
          "onset": 86.0,
          "duration": 0.5,
          "velocity": 100
        },
        {
          "pitch": 59,
          "onset": 86.0,
          "duration": 0.3125,
          "velocity": 100
        },
        {
          "pitch": 56,
          "onset": 86.1562,
          "duration": 0.3125,
          "velocity": 100
        },
        {
          "pitch": 62,
          "onset": 86.3438,
          "duration": 0.3125,
          "velocity": 100
        },
        {
          "pitch": 52,
          "onset": 86.5,
          "duration": 0.5,
          "velocity": 100
        },
        {
          "pitch": 61,
          "onset": 86.5,
          "duration": 0.3125,
          "velocity": 100
        },
        {
          "pitch": 56,
          "onset": 86.6562,
          "duration": 0.3125,
          "velocity": 100
        },
        {
          "pitch": 64,
          "onset": 86.8438,
          "duration": 0.3125,
          "velocity": 100
        },
        {
          "pitch": 53,
          "onset": 87.0,
          "duration": 0.6562,
          "velocity": 100
        },
        {
          "pitch": 62,
          "onset": 87.0,
          "duration": 0.3125,
          "velocity": 100
        },
        {
          "pitch": 56,
          "onset": 87.1562,
          "duration": 0.3125,
          "velocity": 100
        },
        {
          "pitch": 65,
          "onset": 87.3438,
          "duration": 0.3125,
          "velocity": 100
        },
        {
          "pitch": 46,
          "onset": 87.5,
          "duration": 0.5,
          "velocity": 100
        },
        {
          "pitch": 55,
          "onset": 87.5,
          "duration": 0.6562,
          "velocity": 100
        },
        {
          "pitch": 52,
          "onset": 87.6562,
          "duration": 0.3125,
          "velocity": 100
        },
        {
          "pitch": 50,
          "onset": 87.8438,
          "duration": 0.1562,
          "velocity": 100
        },
        {
          "pitch": 45,
          "onset": 88.0,
          "duration": 1.5,
          "velocity": 100
        },
        {
          "pitch": 49,
          "onset": 88.0,
          "duration": 0.5,
          "velocity": 100
        },
        {
          "pitch": 52,
          "onset": 88.1562,
          "duration": 0.3125,
          "velocity": 100
        },
        {
          "pitch": 55,
          "onset": 88.3438,
          "duration": 0.3125,
          "velocity": 100
        },
        {
          "pitch": 52,
          "onset": 88.5,
          "duration": 0.5,
          "velocity": 100
        },
        {
          "pitch": 61,
          "onset": 88.5,
          "duration": 0.3125,
          "velocity": 100
        },
        {
          "pitch": 55,
          "onset": 88.6562,
          "duration": 0.3125,
          "velocity": 100
        },
        {
          "pitch": 61,
          "onset": 88.8438,
          "duration": 0.3125,
          "velocity": 100
        },
        {
          "pitch": 55,
          "onset": 89.0,
          "duration": 0.5,
          "velocity": 100
        },
        {
          "pitch": 64,
          "onset": 89.0,
          "duration": 0.3125,
          "velocity": 100
        },
        {
          "pitch": 61,
          "onset": 89.1562,
          "duration": 0.3125,
          "velocity": 100
        },
        {
          "pitch": 64,
          "onset": 89.3438,
          "duration": 0.3125,
          "velocity": 100
        },
        {
          "pitch": 58,
          "onset": 89.5,
          "duration": 0.5,
          "velocity": 100
        },
        {
          "pitch": 67,
          "onset": 89.5,
          "duration": 0.5,
          "velocity": 100
        },
        {
          "pitch": 49,
          "onset": 89.6562,
          "duration": 0.3125,
          "velocity": 100
        },
        {
          "pitch": 52,
          "onset": 89.8438,
          "duration": 0.3125,
          "velocity": 100
        },
        {
          "pitch": 57,
          "onset": 90.0,
          "duration": 1.5,
          "velocity": 100
        },
        {
          "pitch": 65,
          "onset": 90.0,
          "duration": 0.3125,
          "velocity": 100
        },
        {
          "pitch": 62,
          "onset": 90.1562,
          "duration": 0.3125,
          "velocity": 100
        },
        {
          "pitch": 65,
          "onset": 90.3438,
          "duration": 0.3125,
          "velocity": 100
        },
        {
          "pitch": 62,
          "onset": 90.5,
          "duration": 0.5,
          "velocity": 100
        },
        {
          "pitch": 69,
          "onset": 90.5,
          "duration": 0.3125,
          "velocity": 100
        },
        {
          "pitch": 65,
          "onset": 90.6562,
          "duration": 0.3125,
          "velocity": 100
        },
        {
          "pitch": 69,
          "onset": 90.8438,
          "duration": 0.3125,
          "velocity": 100
        },
        {
          "pitch": 65,
          "onset": 91.0,
          "duration": 0.5,
          "velocity": 100
        },
        {
          "pitch": 74,
          "onset": 91.0,
          "duration": 0.3125,
          "velocity": 100
        },
        {
          "pitch": 69,
          "onset": 91.1562,
          "duration": 0.3125,
          "velocity": 100
        },
        {
          "pitch": 74,
          "onset": 91.3438,
          "duration": 0.3125,
          "velocity": 100
        },
        {
          "pitch": 69,
          "onset": 91.5,
          "duration": 0.5,
          "velocity": 100
        },
        {
          "pitch": 77,
          "onset": 91.5,
          "duration": 0.6562,
          "velocity": 100
        },
        {
          "pitch": 62,
          "onset": 91.6562,
          "duration": 0.3125,
          "velocity": 100
        },
        {
          "pitch": 65,
          "onset": 91.8438,
          "duration": 0.1562,
          "velocity": 100
        },
        {
          "pitch": 68,
          "onset": 92.0,
          "duration": 0.5,
          "velocity": 100
        },
        {
          "pitch": 71,
          "onset": 92.1562,
          "duration": 0.3125,
          "velocity": 100
        },
        {
          "pitch": 74,
          "onset": 92.3438,
          "duration": 0.3125,
          "velocity": 100
        },
        {
          "pitch": 77,
          "onset": 92.5,
          "duration": 0.3125,
          "velocity": 100
        },
        {
          "pitch": 74,
          "onset": 92.6562,
          "duration": 0.3125,
          "velocity": 100
        },
        {
          "pitch": 77,
          "onset": 92.8438,
          "duration": 0.3125,
          "velocity": 100
        },
        {
          "pitch": 80,
          "onset": 93.0,
          "duration": 0.3125,
          "velocity": 100
        },
        {
          "pitch": 77,
          "onset": 93.1562,
          "duration": 0.3125,
          "velocity": 100
        },
        {
          "pitch": 80,
          "onset": 93.3438,
          "duration": 0.3125,
          "velocity": 100
        },
        {
          "pitch": 83,
          "onset": 93.5,
          "duration": 0.3125,
          "velocity": 100
        },
        {
          "pitch": 80,
          "onset": 93.6562,
          "duration": 0.3125,
          "velocity": 100
        },
        {
          "pitch": 77,
          "onset": 93.8438,
          "duration": 0.3125,
          "velocity": 100
        },
        {
          "pitch": 82,
          "onset": 94.0,
          "duration": 0.3125,
          "velocity": 100
        },
        {
          "pitch": 79,
          "onset": 94.1562,
          "duration": 0.3125,
          "velocity": 100
        },
        {
          "pitch": 76,
          "onset": 94.3438,
          "duration": 0.3125,
          "velocity": 100
        },
        {
          "pitch": 81,
          "onset": 94.5,
          "duration": 0.3125,
          "velocity": 100
        },
        {
          "pitch": 78,
          "onset": 94.6562,
          "duration": 0.3125,
          "velocity": 100
        },
        {
          "pitch": 75,
          "onset": 94.8438,
          "duration": 0.3125,
          "velocity": 100
        },
        {
          "pitch": 80,
          "onset": 95.0,
          "duration": 0.3125,
          "velocity": 100
        },
        {
          "pitch": 77,
          "onset": 95.1562,
          "duration": 0.3125,
          "velocity": 100
        },
        {
          "pitch": 74,
          "onset": 95.3438,
          "duration": 0.3125,
          "velocity": 100
        },
        {
          "pitch": 79,
          "onset": 95.5,
          "duration": 0.3125,
          "velocity": 100
        },
        {
          "pitch": 76,
          "onset": 95.6562,
          "duration": 0.3125,
          "velocity": 100
        },
        {
          "pitch": 73,
          "onset": 95.8438,
          "duration": 0.1562,
          "velocity": 100
        },
        {
          "pitch": 78,
          "onset": 96.0,
          "duration": 0.3125,
          "velocity": 100
        },
        {
          "pitch": 75,
          "onset": 96.1562,
          "duration": 0.3125,
          "velocity": 100
        },
        {
          "pitch": 72,
          "onset": 96.3438,
          "duration": 0.3125,
          "velocity": 100
        },
        {
          "pitch": 77,
          "onset": 96.5,
          "duration": 0.3125,
          "velocity": 100
        },
        {
          "pitch": 74,
          "onset": 96.6562,
          "duration": 0.3125,
          "velocity": 100
        },
        {
          "pitch": 71,
          "onset": 96.8438,
          "duration": 0.3125,
          "velocity": 100
        },
        {
          "pitch": 76,
          "onset": 97.0,
          "duration": 0.3125,
          "velocity": 100
        },
        {
          "pitch": 73,
          "onset": 97.1562,
          "duration": 0.3125,
          "velocity": 100
        },
        {
          "pitch": 70,
          "onset": 97.3438,
          "duration": 0.3125,
          "velocity": 100
        },
        {
          "pitch": 75,
          "onset": 97.5,
          "duration": 0.3125,
          "velocity": 100
        },
        {
          "pitch": 72,
          "onset": 97.6562,
          "duration": 0.3125,
          "velocity": 100
        },
        {
          "pitch": 69,
          "onset": 97.8438,
          "duration": 0.3125,
          "velocity": 100
        },
        {
          "pitch": 74,
          "onset": 98.0,
          "duration": 2.0,
          "velocity": 100
        },
        {
          "pitch": 47,
          "onset": 99.0,
          "duration": 1.0,
          "velocity": 100
        },
        {
          "pitch": 50,
          "onset": 99.0,
          "duration": 1.0,
          "velocity": 100
        },
        {
          "pitch": 53,
          "onset": 99.0,
          "duration": 1.0,
          "velocity": 100
        },
        {
          "pitch": 56,
          "onset": 99.0,
          "duration": 1.0,
          "velocity": 100
        },
        {
          "pitch": 62,
          "onset": 99.0,
          "duration": 1.0,
          "velocity": 100
        },
        {
          "pitch": 65,
          "onset": 99.0,
          "duration": 1.0,
          "velocity": 100
        },
        {
          "pitch": 68,
          "onset": 99.0,
          "duration": 1.0,
          "velocity": 100
        },
        {
          "pitch": 71,
          "onset": 99.0,
          "duration": 1.0,
          "velocity": 100
        },
        {
          "pitch": 45,
          "onset": 100.0,
          "duration": 2.0,
          "velocity": 100
        },
        {
          "pitch": 50,
          "onset": 100.0,
          "duration": 1.0,
          "velocity": 100
        },
        {
          "pitch": 53,
          "onset": 100.0,
          "duration": 1.0,
          "velocity": 100
        },
        {
          "pitch": 57,
          "onset": 100.0,
          "duration": 2.0,
          "velocity": 100
        },
        {
          "pitch": 62,
          "onset": 100.0,
          "duration": 1.0,
          "velocity": 100
        },
        {
          "pitch": 65,
          "onset": 100.0,
          "duration": 1.0,
          "velocity": 100
        },
        {
          "pitch": 69,
          "onset": 100.0,
          "duration": 2.0,
          "velocity": 100
        },
        {
          "pitch": 74,
          "onset": 100.0,
          "duration": 1.0,
          "velocity": 100
        },
        {
          "pitch": 52,
          "onset": 101.0,
          "duration": 1.0,
          "velocity": 100
        },
        {
          "pitch": 64,
          "onset": 101.0,
          "duration": 1.0,
          "velocity": 100
        },
        {
          "pitch": 67,
          "onset": 101.0,
          "duration": 1.0,
          "velocity": 100
        },
        {
          "pitch": 73,
          "onset": 101.0,
          "duration": 1.0,
          "velocity": 100
        },
        {
          "pitch": 38,
          "onset": 102.0,
          "duration": 3.0,
          "velocity": 100
        },
        {
          "pitch": 50,
          "onset": 102.0,
          "duration": 3.0,
          "velocity": 100
        },
        {
          "pitch": 62,
          "onset": 102.0,
          "duration": 3.0,
          "velocity": 100
        },
        {
          "pitch": 66,
          "onset": 102.0,
          "duration": 3.0,
          "velocity": 100
        },
        {
          "pitch": 69,
          "onset": 102.0,
          "duration": 3.0,
          "velocity": 100
        },
        {
          "pitch": 74,
          "onset": 102.0,
          "duration": 3.0,
          "velocity": 100
        },
        {
          "pitch": 62,
          "onset": 107.25,
          "duration": 0.25,
          "velocity": 1
        }
      ]
    }
  ]
}