{
  "bwv": 878,
  "category": "wtc2",
  "instrument": "keyboard",
  "form": "fugue",
  "movement": null,
  "ticks_per_beat": 384,
  "duration_seconds": 100.2,
  "tempos": [
    {
      "tick": 0,
      "bpm": 215
    },
    {
      "tick": 23040,
      "bpm": 210
    },
    {
      "tick": 23808,
      "bpm": 200
    },
    {
      "tick": 24192,
      "bpm": 190
    },
    {
      "tick": 25344,
      "bpm": 215
    },
    {
      "tick": 44544,
      "bpm": 210
    },
    {
      "tick": 45312,
      "bpm": 210
    },
    {
      "tick": 45696,
      "bpm": 200
    },
    {
      "tick": 46464,
      "bpm": 215
    },
    {
      "tick": 89088,
      "bpm": 210
    },
    {
      "tick": 89856,
      "bpm": 210
    },
    {
      "tick": 90624,
      "bpm": 215
    },
    {
      "tick": 102912,
      "bpm": 210
    },
    {
      "tick": 103680,
      "bpm": 210
    },
    {
      "tick": 104064,
      "bpm": 200
    },
    {
      "tick": 105216,
      "bpm": 215
    },
    {
      "tick": 125184,
      "bpm": 210
    },
    {
      "tick": 125952,
      "bpm": 210
    },
    {
      "tick": 126720,
      "bpm": 200
    },
    {
      "tick": 127488,
      "bpm": 190
    },
    {
      "tick": 129024,
      "bpm": 180
    },
    {
      "tick": 129792,
      "bpm": 160
    },
    {
      "tick": 130176,
      "bpm": 200
    }
  ],
  "time_signatures": [
    {
      "tick": 0,
      "numerator": 4,
      "denominator": 2
    }
  ],
  "track_type": "manual",
  "voice_count": 1,
  "total_notes": 741,
  "tracks": [
    {
      "role": "manual",
      "notes": [
        {
          "pitch": 52,
          "onset": 0.0,
          "duration": 3.9688,
          "velocity": 100
        },
        {
          "pitch": 54,
          "onset": 4.0,
          "duration": 1.9688,
          "velocity": 100
        },
        {
          "pitch": 57,
          "onset": 6.0,
          "duration": 1.9688,
          "velocity": 100
        },
        {
          "pitch": 56,
          "onset": 8.0,
          "duration": 1.9688,
          "velocity": 100
        },
        {
          "pitch": 54,
          "onset": 10.0,
          "duration": 1.9688,
          "velocity": 100
        },
        {
          "pitch": 52,
          "onset": 12.0,
          "duration": 0.9688,
          "velocity": 100
        },
        {
          "pitch": 59,
          "onset": 12.0,
          "duration": 3.9688,
          "velocity": 100
        },
        {
          "pitch": 51,
          "onset": 13.0,
          "duration": 0.4688,
          "velocity": 100
        },
        {
          "pitch": 49,
          "onset": 13.5,
          "duration": 0.4688,
          "velocity": 100
        },
        {
          "pitch": 51,
          "onset": 14.0,
          "duration": 0.9688,
          "velocity": 100
        },
        {
          "pitch": 47,
          "onset": 15.0,
          "duration": 0.9688,
          "velocity": 100
        },
        {
          "pitch": 52,
          "onset": 16.0,
          "duration": 0.9688,
          "velocity": 100
        },
        {
          "pitch": 61,
          "onset": 16.0,
          "duration": 1.9688,
          "velocity": 100
        },
        {
          "pitch": 54,
          "onset": 17.0,
          "duration": 0.9688,
          "velocity": 100
        },
        {
          "pitch": 56,
          "onset": 18.0,
          "duration": 0.9688,
          "velocity": 100
        },
        {
          "pitch": 64,
          "onset": 18.0,
          "duration": 1.9688,
          "velocity": 100
        },
        {
          "pitch": 58,
          "onset": 19.0,
          "duration": 0.9688,
          "velocity": 100
        },
        {
          "pitch": 59,
          "onset": 20.0,
          "duration": 0.4688,
          "velocity": 100
        },
        {
          "pitch": 63,
          "onset": 20.0,
          "duration": 1.9688,
          "velocity": 100
        },
        {
          "pitch": 54,
          "onset": 20.5,
          "duration": 0.4688,
          "velocity": 100
        },
        {
          "pitch": 59,
          "onset": 21.0,
          "duration": 1.9688,
          "velocity": 100
        },
        {
          "pitch": 61,
          "onset": 22.0,
          "duration": 1.9688,
          "velocity": 100
        },
        {
          "pitch": 57,
          "onset": 23.0,
          "duration": 1.9688,
          "velocity": 100
        },
        {
          "pitch": 59,
          "onset": 24.0,
          "duration": 2.9688,
          "velocity": 100
        },
        {
          "pitch": 64,
          "onset": 24.0,
          "duration": 3.9688,
          "velocity": 100
        },
        {
          "pitch": 56,
          "onset": 25.0,
          "duration": 0.4688,
          "velocity": 100
        },
        {
          "pitch": 54,
          "onset": 25.5,
          "duration": 0.4688,
          "velocity": 100
        },
        {
          "pitch": 56,
          "onset": 26.0,
          "duration": 3.9688,
          "velocity": 100
        },
        {
          "pitch": 59,
          "onset": 27.0,
          "duration": 0.9688,
          "velocity": 100
        },
        {
          "pitch": 57,
          "onset": 28.0,
          "duration": 0.9688,
          "velocity": 100
        },
        {
          "pitch": 66,
          "onset": 28.0,
          "duration": 1.9688,
          "velocity": 100
        },
        {
          "pitch": 59,
          "onset": 29.0,
          "duration": 0.9688,
          "velocity": 100
        },
        {
          "pitch": 54,
          "onset": 30.0,
          "duration": 1.9688,
          "velocity": 100
        },
        {
          "pitch": 61,
          "onset": 30.0,
          "duration": 0.9688,
          "velocity": 100
        },
        {
          "pitch": 69,
          "onset": 30.0,
          "duration": 1.9688,
          "velocity": 100
        },
        {
          "pitch": 63,
          "onset": 31.0,
          "duration": 0.9688,
          "velocity": 100
        },
        {
          "pitch": 56,
          "onset": 32.0,
          "duration": 1.9688,
          "velocity": 100
        },
        {
          "pitch": 64,
          "onset": 32.0,
          "duration": 0.4688,
          "velocity": 100
        },
        {
          "pitch": 68,
          "onset": 32.0,
          "duration": 1.9688,
          "velocity": 100
        },
        {
          "pitch": 59,
          "onset": 32.5,
          "duration": 0.4688,
          "velocity": 100
        },
        {
          "pitch": 64,
          "onset": 33.0,
          "duration": 1.9688,
          "velocity": 100
        },
        {
          "pitch": 57,
          "onset": 34.0,
          "duration": 0.9688,
          "velocity": 100
        },
        {
          "pitch": 66,
          "onset": 34.0,
          "duration": 1.9688,
          "velocity": 100
        },
        {
          "pitch": 59,
          "onset": 35.0,
          "duration": 0.4688,
          "velocity": 100
        },
        {
          "pitch": 63,
          "onset": 35.0,
          "duration": 0.9688,
          "velocity": 100
        },
        {
          "pitch": 57,
          "onset": 35.5,
          "duration": 0.4688,
          "velocity": 100
        },
        {
          "pitch": 56,
          "onset": 36.0,
          "duration": 0.9688,
          "velocity": 100
        },
        {
          "pitch": 64,
          "onset": 36.0,
          "duration": 1.9688,
          "velocity": 100
        },
        {
          "pitch": 71,
          "onset": 36.0,
          "duration": 3.9688,
          "velocity": 100
        },
        {
          "pitch": 54,
          "onset": 37.0,
          "duration": 0.9688,
          "velocity": 100
        },
        {
          "pitch": 52,
          "onset": 38.0,
          "duration": 0.9688,
          "velocity": 100
        },
        {
          "pitch": 56,
          "onset": 38.0,
          "duration": 0.9688,
          "velocity": 100
        },
        {
          "pitch": 51,
          "onset": 39.0,
          "duration": 0.9688,
          "velocity": 100
        },
        {
          "pitch": 54,
          "onset": 39.0,
          "duration": 0.9688,
          "velocity": 100
        },
        {
          "pitch": 59,
          "onset": 39.0,
          "duration": 0.9688,
          "velocity": 100
        },
        {
          "pitch": 49,
          "onset": 40.0,
          "duration": 3.9688,
          "velocity": 100
        },
        {
          "pitch": 56,
          "onset": 40.0,
          "duration": 1.9688,
          "velocity": 100
        },
        {
          "pitch": 64,
          "onset": 40.0,
          "duration": 0.9688,
          "velocity": 100
        },
        {
          "pitch": 73,
          "onset": 40.0,
          "duration": 1.9688,
          "velocity": 100
        },
        {
          "pitch": 66,
          "onset": 41.0,
          "duration": 0.9688,
          "velocity": 100
        },
        {
          "pitch": 52,
          "onset": 42.0,
          "duration": 1.9688,
          "velocity": 100
        },
        {
          "pitch": 68,
          "onset": 42.0,
          "duration": 0.9688,
          "velocity": 100
        },
        {
          "pitch": 76,
          "onset": 42.0,
          "duration": 1.9688,
          "velocity": 100
        },
        {
          "pitch": 70,
          "onset": 43.0,
          "duration": 0.9688,
          "velocity": 100
        },
        {
          "pitch": 47,
          "onset": 44.0,
          "duration": 1.9688,
          "velocity": 100
        },
        {
          "pitch": 54,
          "onset": 44.0,
          "duration": 4.9688,
          "velocity": 100
        },
        {
          "pitch": 71,
          "onset": 44.0,
          "duration": 0.4688,
          "velocity": 100
        },
        {
          "pitch": 75,
          "onset": 44.0,
          "duration": 1.9688,
          "velocity": 100
        },
        {
          "pitch": 66,
          "onset": 44.5,
          "duration": 0.4688,
          "velocity": 100
        },
        {
          "pitch": 71,
          "onset": 45.0,
          "duration": 1.9688,
          "velocity": 100
        },
        {
          "pitch": 42,
          "onset": 46.0,
          "duration": 1.9688,
          "velocity": 100
        },
        {
          "pitch": 73,
          "onset": 46.0,
          "duration": 1.9688,
          "velocity": 100
        },
        {
          "pitch": 69,
          "onset": 47.0,
          "duration": 1.9688,
          "velocity": 100
        },
        {
          "pitch": 44,
          "onset": 48.0,
          "duration": 2.9688,
          "velocity": 100
        },
        {
          "pitch": 47,
          "onset": 49.0,
          "duration": 0.9688,
          "velocity": 100
        },
        {
          "pitch": 68,
          "onset": 49.0,
          "duration": 0.4688,
          "velocity": 100
        },
        {
          "pitch": 66,
          "onset": 49.5,
          "duration": 0.4688,
          "velocity": 100
        },
        {
          "pitch": 52,
          "onset": 50.0,
          "duration": 2.9688,
          "velocity": 100
        },
        {
          "pitch": 68,
          "onset": 50.0,
          "duration": 1.9688,
          "velocity": 100
        },
        {
          "pitch": 40,
          "onset": 51.0,
          "duration": 0.9688,
          "velocity": 100
        },
        {
          "pitch": 45,
          "onset": 52.0,
          "duration": 2.9688,
          "velocity": 100
        },
        {
          "pitch": 61,
          "onset": 52.0,
          "duration": 2.9688,
          "velocity": 100
        },
        {
          "pitch": 49,
          "onset": 53.0,
          "duration": 0.9688,
          "velocity": 100
        },
        {
          "pitch": 69,
          "onset": 53.0,
          "duration": 0.4688,
          "velocity": 100
        },
        {
          "pitch": 68,
          "onset": 53.5,
          "duration": 0.4688,
          "velocity": 100
        },
        {
          "pitch": 54,
          "onset": 54.0,
          "duration": 2.9688,
          "velocity": 100
        },
        {
          "pitch": 69,
          "onset": 54.0,
          "duration": 3.9688,
          "velocity": 100
        },
        {
          "pitch": 42,
          "onset": 55.0,
          "duration": 0.9688,
          "velocity": 100
        },
        {
          "pitch": 63,
          "onset": 55.0,
          "duration": 0.4688,
          "velocity": 100
        },
        {
          "pitch": 64,
          "onset": 55.5,
          "duration": 0.4688,
          "velocity": 100
        },
        {
          "pitch": 47,
          "onset": 56.0,
          "duration": 9.9688,
          "velocity": 100
        },
        {
          "pitch": 63,
          "onset": 56.0,
          "duration": 1.9688,
          "velocity": 100
        },
        {
          "pitch": 52,
          "onset": 57.0,
          "duration": 0.4688,
          "velocity": 100
        },
        {
          "pitch": 54,
          "onset": 57.5,
          "duration": 0.4688,
          "velocity": 100
        },
        {
          "pitch": 56,
          "onset": 58.0,
          "duration": 0.9688,
          "velocity": 100
        },
        {
          "pitch": 64,
          "onset": 58.0,
          "duration": 2.9688,
          "velocity": 100
        },
        {
          "pitch": 68,
          "onset": 58.0,
          "duration": 1.9688,
          "velocity": 100
        },
        {
          "pitch": 57,
          "onset": 59.0,
          "duration": 0.9688,
          "velocity": 100
        },
        {
          "pitch": 59,
          "onset": 60.0,
          "duration": 0.4688,
          "velocity": 100
        },
        {
          "pitch": 66,
          "onset": 60.0,
          "duration": 1.9688,
          "velocity": 100
        },
        {
          "pitch": 54,
          "onset": 60.5,
          "duration": 0.4688,
          "velocity": 100
        },
        {
          "pitch": 59,
          "onset": 61.0,
          "duration": 1.9688,
          "velocity": 100
        },
        {
          "pitch": 63,
          "onset": 61.0,
          "duration": 0.9688,
          "velocity": 100
        },
        {
          "pitch": 61,
          "onset": 62.0,
          "duration": 1.9688,
          "velocity": 100
        },
        {
          "pitch": 64,
          "onset": 62.0,
          "duration": 1.9688,
          "velocity": 100
        },
        {
          "pitch": 58,
          "onset": 63.0,
          "duration": 0.9688,
          "velocity": 100
        },
        {
          "pitch": 54,
          "onset": 64.0,
          "duration": 1.9688,
          "velocity": 100
        },
        {
          "pitch": 59,
          "onset": 64.0,
          "duration": 1.9688,
          "velocity": 100
        },
        {
          "pitch": 63,
          "onset": 64.0,
          "duration": 1.9688,
          "velocity": 100
        },
        {
          "pitch": 59,
          "onset": 66.0,
          "duration": 1.9688,
          "velocity": 100
        },
        {
          "pitch": 52,
          "onset": 68.0,
          "duration": 3.9688,
          "velocity": 100
        },
        {
          "pitch": 61,
          "onset": 68.0,
          "duration": 1.9688,
          "velocity": 100
        },
        {
          "pitch": 64,
          "onset": 70.0,
          "duration": 1.9688,
          "velocity": 100
        },
        {
          "pitch": 54,
          "onset": 72.0,
          "duration": 1.9688,
          "velocity": 100
        },
        {
          "pitch": 63,
          "onset": 72.0,
          "duration": 1.9688,
          "velocity": 100
        },
        {
          "pitch": 57,
          "onset": 74.0,
          "duration": 1.9688,
          "velocity": 100
        },
        {
          "pitch": 61,
          "onset": 74.0,
          "duration": 1.9688,
          "velocity": 100
        },
        {
          "pitch": 47,
          "onset": 76.0,
          "duration": 3.9688,
          "velocity": 100
        },
        {
          "pitch": 56,
          "onset": 76.0,
          "duration": 1.9688,
          "velocity": 100
        },
        {
          "pitch": 59,
          "onset": 76.0,
          "duration": 0.9688,
          "velocity": 100
        },
        {
          "pitch": 64,
          "onset": 77.0,
          "duration": 1.9688,
          "velocity": 100
        },
        {
          "pitch": 54,
          "onset": 78.0,
          "duration": 1.9688,
          "velocity": 100
        },
        {
          "pitch": 63,
          "onset": 79.0,
          "duration": 1.9688,
          "velocity": 100
        },
        {
          "pitch": 49,
          "onset": 80.0,
          "duration": 1.9688,
          "velocity": 100
        },
        {
          "pitch": 52,
          "onset": 80.0,
          "duration": 0.9688,
          "velocity": 100
        },
        {
          "pitch": 64,
          "onset": 80.0,
          "duration": 3.9688,
          "velocity": 100
        },
        {
          "pitch": 57,
          "onset": 81.0,
          "duration": 1.9688,
          "velocity": 100
        },
        {
          "pitch": 61,
          "onset": 81.0,
          "duration": 1.9688,
          "velocity": 100
        },
        {
          "pitch": 52,
          "onset": 82.0,
          "duration": 1.9688,
          "velocity": 100
        },
        {
          "pitch": 56,
          "onset": 83.0,
          "duration": 0.9688,
          "velocity": 100
        },
        {
          "pitch": 59,
          "onset": 83.0,
          "duration": 0.4688,
          "velocity": 100
        },
        {
          "pitch": 58,
          "onset": 83.5,
          "duration": 0.4688,
          "velocity": 100
        },
        {
          "pitch": 54,
          "onset": 84.0,
          "duration": 0.9688,
          "velocity": 100
        },
        {
          "pitch": 59,
          "onset": 84.0,
          "duration": 0.9688,
          "velocity": 100
        },
        {
          "pitch": 66,
          "onset": 84.0,
          "duration": 0.9688,
          "velocity": 100
        },
        {
          "pitch": 52,
          "onset": 85.0,
          "duration": 0.4688,
          "velocity": 100
        },
        {
          "pitch": 66,
          "onset": 85.0,
          "duration": 1.9688,
          "velocity": 100
        },
        {
          "pitch": 51,
          "onset": 85.5,
          "duration": 0.4688,
          "velocity": 100
        },
        {
          "pitch": 49,
          "onset": 86.0,
          "duration": 1.9688,
          "velocity": 100
        },
        {
          "pitch": 52,
          "onset": 86.0,
          "duration": 0.9688,
          "velocity": 100
        },
        {
          "pitch": 69,
          "onset": 86.0,
          "duration": 1.9688,
          "velocity": 100
        },
        {
          "pitch": 54,
          "onset": 87.0,
          "duration": 0.9688,
          "velocity": 100
        },
        {
          "pitch": 64,
          "onset": 87.0,
          "duration": 0.4688,
          "velocity": 100
        },
        {
          "pitch": 63,
          "onset": 87.5,
          "duration": 0.4688,
          "velocity": 100
        },
        {
          "pitch": 47,
          "onset": 88.0,
          "duration": 5.9688,
          "velocity": 100
        },
        {
          "pitch": 56,
          "onset": 88.0,
          "duration": 0.9688,
          "velocity": 100
        },
        {
          "pitch": 64,
          "onset": 88.0,
          "duration": 2.9688,
          "velocity": 100
        },
        {
          "pitch": 68,
          "onset": 88.0,
          "duration": 1.9688,
          "velocity": 100
        },
        {
          "pitch": 57,
          "onset": 89.0,
          "duration": 0.9688,
          "velocity": 100
        },
        {
          "pitch": 59,
          "onset": 90.0,
          "duration": 0.4688,
          "velocity": 100
        },
        {
          "pitch": 66,
          "onset": 90.0,
          "duration": 1.9688,
          "velocity": 100
        },
        {
          "pitch": 54,
          "onset": 90.5,
          "duration": 0.4688,
          "velocity": 100
        },
        {
          "pitch": 59,
          "onset": 91.0,
          "duration": 0.4688,
          "velocity": 100
        },
        {
          "pitch": 63,
          "onset": 91.0,
          "duration": 0.9688,
          "velocity": 100
        },
        {
          "pitch": 57,
          "onset": 91.5,
          "duration": 0.4688,
          "velocity": 100
        },
        {
          "pitch": 56,
          "onset": 92.0,
          "duration": 1.9688,
          "velocity": 100
        },
        {
          "pitch": 61,
          "onset": 92.0,
          "duration": 3.9688,
          "velocity": 100
        },
        {
          "pitch": 65,
          "onset": 92.0,
          "duration": 0.9688,
          "velocity": 100
        },
        {
          "pitch": 66,
          "onset": 93.0,
          "duration": 0.9688,
          "velocity": 100
        },
        {
          "pitch": 45,
          "onset": 94.0,
          "duration": 1.9688,
          "velocity": 100
        },
        {
          "pitch": 54,
          "onset": 94.0,
          "duration": 3.9688,
          "velocity": 100
        },
        {
          "pitch": 68,
          "onset": 94.0,
          "duration": 0.9688,
          "velocity": 100
        },
        {
          "pitch": 69,
          "onset": 95.0,
          "duration": 0.9688,
          "velocity": 100
        },
        {
          "pitch": 44,
          "onset": 96.0,
          "duration": 3.9688,
          "velocity": 100
        },
        {
          "pitch": 59,
          "onset": 96.0,
          "duration": 0.9688,
          "velocity": 100
        },
        {
          "pitch": 71,
          "onset": 96.0,
          "duration": 0.9688,
          "velocity": 100
        },
        {
          "pitch": 61,
          "onset": 97.0,
          "duration": 0.9688,
          "velocity": 100
        },
        {
          "pitch": 66,
          "onset": 97.0,
          "duration": 0.9688,
          "velocity": 100
        },
        {
          "pitch": 52,
          "onset": 98.0,
          "duration": 1.9688,
          "velocity": 100
        },
        {
          "pitch": 63,
          "onset": 98.0,
          "duration": 0.9688,
          "velocity": 100
        },
        {
          "pitch": 71,
          "onset": 98.0,
          "duration": 3.9688,
          "velocity": 100
        },
        {
          "pitch": 64,
          "onset": 99.0,
          "duration": 0.9688,
          "velocity": 100
        },
        {
          "pitch": 42,
          "onset": 100.0,
          "duration": 0.9688,
          "velocity": 100
        },
        {
          "pitch": 51,
          "onset": 100.0,
          "duration": 0.9688,
          "velocity": 100
        },
        {
          "pitch": 66,
          "onset": 100.0,
          "duration": 0.9688,
          "velocity": 100
        },
        {
          "pitch": 44,
          "onset": 101.0,
          "duration": 0.9688,
          "velocity": 100
        },
        {
          "pitch": 53,
          "onset": 101.0,
          "duration": 0.9688,
          "velocity": 100
        },
        {
          "pitch": 61,
          "onset": 101.0,
          "duration": 0.9688,
          "velocity": 100
        },
        {
          "pitch": 45,
          "onset": 102.0,
          "duration": 0.9688,
          "velocity": 100
        },
        {
          "pitch": 54,
          "onset": 102.0,
          "duration": 1.9688,
          "velocity": 100
        },
        {
          "pitch": 66,
          "onset": 102.0,
          "duration": 3.9688,
          "velocity": 100
        },
        {
          "pitch": 47,
          "onset": 103.0,
          "duration": 0.9688,
          "velocity": 100
        },
        {
          "pitch": 49,
          "onset": 104.0,
          "duration": 0.9688,
          "velocity": 100
        },
        {
          "pitch": 68,
          "onset": 104.0,
          "duration": 6.9688,
          "velocity": 100
        },
        {
          "pitch": 44,
          "onset": 105.0,
          "duration": 0.9688,
          "velocity": 100
        },
        {
          "pitch": 51,
          "onset": 105.0,
          "duration": 0.9688,
          "velocity": 100
        },
        {
          "pitch": 49,
          "onset": 106.0,
          "duration": 3.9688,
          "velocity": 100
        },
        {
          "pitch": 52,
          "onset": 106.0,
          "duration": 0.9688,
          "velocity": 100
        },
        {
          "pitch": 64,
          "onset": 106.0,
          "duration": 1.9688,
          "velocity": 100
        },
        {
          "pitch": 54,
          "onset": 107.0,
          "duration": 0.9688,
          "velocity": 100
        },
        {
          "pitch": 56,
          "onset": 108.0,
          "duration": 0.9688,
          "velocity": 100
        },
        {
          "pitch": 63,
          "onset": 108.0,
          "duration": 3.9688,
          "velocity": 100
        },
        {
          "pitch": 51,
          "onset": 109.0,
          "duration": 0.9688,
          "velocity": 100
        },
        {
          "pitch": 47,
          "onset": 110.0,
          "duration": 1.9688,
          "velocity": 100
        },
        {
          "pitch": 56,
          "onset": 110.0,
          "duration": 3.9688,
          "velocity": 100
        },
        {
          "pitch": 69,
          "onset": 111.0,
          "duration": 0.4688,
          "velocity": 100
        },
        {
          "pitch": 71,
          "onset": 111.5,
          "duration": 0.4688,
          "velocity": 100
        },
        {
          "pitch": 45,
          "onset": 112.0,
          "duration": 3.9688,
          "velocity": 100
        },
        {
          "pitch": 61,
          "onset": 112.0,
          "duration": 0.9688,
          "velocity": 100
        },
        {
          "pitch": 73,
          "onset": 112.0,
          "duration": 0.9688,
          "velocity": 100
        },
        {
          "pitch": 63,
          "onset": 113.0,
          "duration": 0.9688,
          "velocity": 100
        },
        {
          "pitch": 72,
          "onset": 113.0,
          "duration": 0.9688,
          "velocity": 100
        },
        {
          "pitch": 54,
          "onset": 114.0,
          "duration": 2.9688,
          "velocity": 100
        },
        {
          "pitch": 64,
          "onset": 114.0,
          "duration": 0.9688,
          "velocity": 100
        },
        {
          "pitch": 73,
          "onset": 114.0,
          "duration": 0.9688,
          "velocity": 100
        },
        {
          "pitch": 66,
          "onset": 115.0,
          "duration": 0.9688,
          "velocity": 100
        },
        {
          "pitch": 75,
          "onset": 115.0,
          "duration": 0.9688,
          "velocity": 100
        },
        {
          "pitch": 44,
          "onset": 116.0,
          "duration": 3.9688,
          "velocity": 100
        },
        {
          "pitch": 68,
          "onset": 116.0,
          "duration": 1.9688,
          "velocity": 100
        },
        {
          "pitch": 72,
          "onset": 116.0,
          "duration": 0.9688,
          "velocity": 100
        },
        {
          "pitch": 52,
          "onset": 117.0,
          "duration": 0.9688,
          "velocity": 100
        },
        {
          "pitch": 73,
          "onset": 117.0,
          "duration": 1.9688,
          "velocity": 100
        },
        {
          "pitch": 51,
          "onset": 118.0,
          "duration": 1.9688,
          "velocity": 100
        },
        {
          "pitch": 66,
          "onset": 118.0,
          "duration": 1.9688,
          "velocity": 100
        },
        {
          "pitch": 72,
          "onset": 119.0,
          "duration": 0.9688,
          "velocity": 100
        },
        {
          "pitch": 49,
          "onset": 120.0,
          "duration": 1.9688,
          "velocity": 100
        },
        {
          "pitch": 64,
          "onset": 120.0,
          "duration": 3.9688,
          "velocity": 100
        },
        {
          "pitch": 73,
          "onset": 120.0,
          "duration": 3.9688,
          "velocity": 100
        },
        {
          "pitch": 56,
          "onset": 121.0,
          "duration": 0.9688,
          "velocity": 100
        },
        {
          "pitch": 61,
          "onset": 122.0,
          "duration": 2.9688,
          "velocity": 100
        },
        {
          "pitch": 49,
          "onset": 123.0,
          "duration": 0.9688,
          "velocity": 100
        },
        {
          "pitch": 50,
          "onset": 124.0,
          "duration": 2.9688,
          "velocity": 100
        },
        {
          "pitch": 66,
          "onset": 124.0,
          "duration": 1.9688,
          "velocity": 100
        },
        {
          "pitch": 59,
          "onset": 125.0,
          "duration": 0.4688,
          "velocity": 100
        },
        {
          "pitch": 58,
          "onset": 125.5,
          "duration": 0.4688,
          "velocity": 100
        },
        {
          "pitch": 59,
          "onset": 126.0,
          "duration": 2.9688,
          "velocity": 100
        },
        {
          "pitch": 69,
          "onset": 126.0,
          "duration": 1.9688,
          "velocity": 100
        },
        {
          "pitch": 51,
          "onset": 127.0,
          "duration": 0.9688,
          "velocity": 100
        },
        {
          "pitch": 52,
          "onset": 128.0,
          "duration": 2.9688,
          "velocity": 100
        },
        {
          "pitch": 68,
          "onset": 128.0,
          "duration": 1.9688,
          "velocity": 100
        },
        {
          "pitch": 71,
          "onset": 128.0,
          "duration": 3.9688,
          "velocity": 100
        },
        {
          "pitch": 57,
          "onset": 129.0,
          "duration": 0.4688,
          "velocity": 100
        },
        {
          "pitch": 56,
          "onset": 129.5,
          "duration": 0.4688,
          "velocity": 100
        },
        {
          "pitch": 57,
          "onset": 130.0,
          "duration": 0.9688,
          "velocity": 100
        },
        {
          "pitch": 66,
          "onset": 130.0,
          "duration": 1.9688,
          "velocity": 100
        },
        {
          "pitch": 51,
          "onset": 131.0,
          "duration": 0.9688,
          "velocity": 100
        },
        {
          "pitch": 59,
          "onset": 131.0,
          "duration": 0.4688,
          "velocity": 100
        },
        {
          "pitch": 57,
          "onset": 131.5,
          "duration": 0.4688,
          "velocity": 100
        },
        {
          "pitch": 52,
          "onset": 132.0,
          "duration": 1.9688,
          "velocity": 100
        },
        {
          "pitch": 56,
          "onset": 132.0,
          "duration": 2.9688,
          "velocity": 100
        },
        {
          "pitch": 64,
          "onset": 132.0,
          "duration": 0.9688,
          "velocity": 100
        },
        {
          "pitch": 73,
          "onset": 132.0,
          "duration": 1.9688,
          "velocity": 100
        },
        {
          "pitch": 61,
          "onset": 133.0,
          "duration": 0.9688,
          "velocity": 100
        },
        {
          "pitch": 49,
          "onset": 134.0,
          "duration": 1.9688,
          "velocity": 100
        },
        {
          "pitch": 68,
          "onset": 134.0,
          "duration": 2.9688,
          "velocity": 100
        },
        {
          "pitch": 76,
          "onset": 134.0,
          "duration": 1.9688,
          "velocity": 100
        },
        {
          "pitch": 56,
          "onset": 135.0,
          "duration": 0.9688,
          "velocity": 100
        },
        {
          "pitch": 54,
          "onset": 136.0,
          "duration": 1.9688,
          "velocity": 100
        },
        {
          "pitch": 57,
          "onset": 136.0,
          "duration": 2.9688,
          "velocity": 100
        },
        {
          "pitch": 75,
          "onset": 136.0,
          "duration": 1.9688,
          "velocity": 100
        },
        {
          "pitch": 66,
          "onset": 137.0,
          "duration": 0.4688,
          "velocity": 100
        },
        {
          "pitch": 65,
          "onset": 137.5,
          "duration": 0.4688,
          "velocity": 100
        },
        {
          "pitch": 52,
          "onset": 138.0,
          "duration": 1.9688,
          "velocity": 100
        },
        {
          "pitch": 66,
          "onset": 138.0,
          "duration": 2.9688,
          "velocity": 100
        },
        {
          "pitch": 73,
          "onset": 138.0,
          "duration": 1.9688,
          "velocity": 100
        },
        {
          "pitch": 58,
          "onset": 139.0,
          "duration": 0.9688,
          "velocity": 100
        },
        {
          "pitch": 51,
          "onset": 140.0,
          "duration": 1.9688,
          "velocity": 100
        },
        {
          "pitch": 59,
          "onset": 140.0,
          "duration": 2.9688,
          "velocity": 100
        },
        {
          "pitch": 71,
          "onset": 140.0,
          "duration": 1.9688,
          "velocity": 100
        },
        {
          "pitch": 64,
          "onset": 141.0,
          "duration": 0.4688,
          "velocity": 100
        },
        {
          "pitch": 63,
          "onset": 141.5,
          "duration": 0.4688,
          "velocity": 100
        },
        {
          "pitch": 49,
          "onset": 142.0,
          "duration": 1.9688,
          "velocity": 100
        },
        {
          "pitch": 64,
          "onset": 142.0,
          "duration": 0.9688,
          "velocity": 100
        },
        {
          "pitch": 73,
          "onset": 142.0,
          "duration": 1.9688,
          "velocity": 100
        },
        {
          "pitch": 58,
          "onset": 143.0,
          "duration": 0.9688,
          "velocity": 100
        },
        {
          "pitch": 66,
          "onset": 143.0,
          "duration": 0.4688,
          "velocity": 100
        },
        {
          "pitch": 64,
          "onset": 143.5,
          "duration": 0.4688,
          "velocity": 100
        },
        {
          "pitch": 47,
          "onset": 144.0,
          "duration": 3.9688,
          "velocity": 100
        },
        {
          "pitch": 59,
          "onset": 144.0,
          "duration": 1.4688,
          "velocity": 100
        },
        {
          "pitch": 63,
          "onset": 144.0,
          "duration": 0.9688,
          "velocity": 100
        },
        {
          "pitch": 66,
          "onset": 144.0,
          "duration": 0.9688,
          "velocity": 100
        },
        {
          "pitch": 63,
          "onset": 145.0,
          "duration": 1.9688,
          "velocity": 100
        },
        {
          "pitch": 57,
          "onset": 145.5,
          "duration": 0.4688,
          "velocity": 100
        },
        {
          "pitch": 56,
          "onset": 146.0,
          "duration": 0.4688,
          "velocity": 100
        },
        {
          "pitch": 68,
          "onset": 146.0,
          "duration": 2.9688,
          "velocity": 100
        },
        {
          "pitch": 54,
          "onset": 146.5,
          "duration": 0.4688,
          "velocity": 100
        },
        {
          "pitch": 52,
          "onset": 147.0,
          "duration": 0.4688,
          "velocity": 100
        },
        {
          "pitch": 56,
          "onset": 147.0,
          "duration": 0.9688,
          "velocity": 100
        },
        {
          "pitch": 51,
          "onset": 147.5,
          "duration": 0.4688,
          "velocity": 100
        },
        {
          "pitch": 49,
          "onset": 148.0,
          "duration": 1.9688,
          "velocity": 100
        },
        {
          "pitch": 52,
          "onset": 148.0,
          "duration": 1.9688,
          "velocity": 100
        },
        {
          "pitch": 57,
          "onset": 148.0,
          "duration": 2.9688,
          "velocity": 100
        },
        {
          "pitch": 66,
          "onset": 149.0,
          "duration": 0.4688,
          "velocity": 100
        },
        {
          "pitch": 64,
          "onset": 149.5,
          "duration": 0.4688,
          "velocity": 100
        },
        {
          "pitch": 52,
          "onset": 150.0,
          "duration": 1.9688,
          "velocity": 100
        },
        {
          "pitch": 66,
          "onset": 150.0,
          "duration": 2.9688,
          "velocity": 100
        },
        {
          "pitch": 58,
          "onset": 151.0,
          "duration": 0.9688,
          "velocity": 100
        },
        {
          "pitch": 51,
          "onset": 152.0,
          "duration": 1.9688,
          "velocity": 100
        },
        {
          "pitch": 54,
          "onset": 152.0,
          "duration": 3.9688,
          "velocity": 100
        },
        {
          "pitch": 59,
          "onset": 152.0,
          "duration": 2.9688,
          "velocity": 100
        },
        {
          "pitch": 64,
          "onset": 153.0,
          "duration": 0.4688,
          "velocity": 100
        },
        {
          "pitch": 63,
          "onset": 153.5,
          "duration": 0.4688,
          "velocity": 100
        },
        {
          "pitch": 49,
          "onset": 154.0,
          "duration": 1.9688,
          "velocity": 100
        },
        {
          "pitch": 64,
          "onset": 154.0,
          "duration": 0.9688,
          "velocity": 100
        },
        {
          "pitch": 58,
          "onset": 155.0,
          "duration": 0.9688,
          "velocity": 100
        },
        {
          "pitch": 66,
          "onset": 155.0,
          "duration": 0.4688,
          "velocity": 100
        },
        {
          "pitch": 64,
          "onset": 155.5,
          "duration": 0.4688,
          "velocity": 100
        },
        {
          "pitch": 47,
          "onset": 156.0,
          "duration": 0.9688,
          "velocity": 100
        },
        {
          "pitch": 56,
          "onset": 156.0,
          "duration": 1.9688,
          "velocity": 100
        },
        {
          "pitch": 59,
          "onset": 156.0,
          "duration": 1.9688,
          "velocity": 100
        },
        {
          "pitch": 63,
          "onset": 156.0,
          "duration": 0.9688,
          "velocity": 100
        },
        {
          "pitch": 44,
          "onset": 157.0,
          "duration": 1.9688,
          "velocity": 100
        },
        {
          "pitch": 71,
          "onset": 157.0,
          "duration": 0.9688,
          "velocity": 100
        },
        {
          "pitch": 59,
          "onset": 158.0,
          "duration": 1.9688,
          "velocity": 100
        },
        {
          "pitch": 62,
          "onset": 158.0,
          "duration": 1.9688,
          "velocity": 100
        },
        {
          "pitch": 65,
          "onset": 158.0,
          "duration": 2.9688,
          "velocity": 100
        },
        {
          "pitch": 45,
          "onset": 159.0,
          "duration": 0.4688,
          "velocity": 100
        },
        {
          "pitch": 47,
          "onset": 159.5,
          "duration": 0.4688,
          "velocity": 100
        },
        {
          "pitch": 49,
          "onset": 160.0,
          "duration": 1.9688,
          "velocity": 100
        },
        {
          "pitch": 57,
          "onset": 160.0,
          "duration": 1.9688,
          "velocity": 100
        },
        {
          "pitch": 61,
          "onset": 160.0,
          "duration": 5.9688,
          "velocity": 100
        },
        {
          "pitch": 66,
          "onset": 161.0,
          "duration": 1.9688,
          "velocity": 100
        },
        {
          "pitch": 47,
          "onset": 162.0,
          "duration": 1.9688,
          "velocity": 100
        },
        {
          "pitch": 56,
          "onset": 162.0,
          "duration": 2.9688,
          "velocity": 100
        },
        {
          "pitch": 65,
          "onset": 163.0,
          "duration": 0.9688,
          "velocity": 100
        },
        {
          "pitch": 45,
          "onset": 164.0,
          "duration": 1.9688,
          "velocity": 100
        },
        {
          "pitch": 73,
          "onset": 164.0,
          "duration": 1.9688,
          "velocity": 100
        },
        {
          "pitch": 54,
          "onset": 165.0,
          "duration": 1.9688,
          "velocity": 100
        },
        {
          "pitch": 44,
          "onset": 166.0,
          "duration": 1.9688,
          "velocity": 100
        },
        {
          "pitch": 68,
          "onset": 166.0,
          "duration": 1.9688,
          "velocity": 100
        },
        {
          "pitch": 71,
          "onset": 166.0,
          "duration": 2.9688,
          "velocity": 100
        },
        {
          "pitch": 53,
          "onset": 167.0,
          "duration": 0.9688,
          "velocity": 100
        },
        {
          "pitch": 42,
          "onset": 168.0,
          "duration": 1.9688,
          "velocity": 100
        },
        {
          "pitch": 54,
          "onset": 168.0,
          "duration": 1.9688,
          "velocity": 100
        },
        {
          "pitch": 61,
          "onset": 168.0,
          "duration": 1.9688,
          "velocity": 100
        },
        {
          "pitch": 69,
          "onset": 169.0,
          "duration": 1.9688,
          "velocity": 100
        },
        {
          "pitch": 47,
          "onset": 170.0,
          "duration": 1.9688,
          "velocity": 100
        },
        {
          "pitch": 50,
          "onset": 170.0,
          "duration": 1.9688,
          "velocity": 100
        },
        {
          "pitch": 59,
          "onset": 170.0,
          "duration": 1.9688,
          "velocity": 100
        },
        {
          "pitch": 68,
          "onset": 171.0,
          "duration": 1.9688,
          "velocity": 100
        },
        {
          "pitch": 49,
          "onset": 172.0,
          "duration": 6.9688,
          "velocity": 100
        },
        {
          "pitch": 57,
          "onset": 172.0,
          "duration": 1.9688,
          "velocity": 100
        },
        {
          "pitch": 66,
          "onset": 173.0,
          "duration": 1.9688,
          "velocity": 100
        },
        {
          "pitch": 37,
          "onset": 174.0,
          "duration": 1.9688,
          "velocity": 100
        },
        {
          "pitch": 56,
          "onset": 174.0,
          "duration": 1.9688,
          "velocity": 100
        },
        {
          "pitch": 65,
          "onset": 175.0,
          "duration": 0.9688,
          "velocity": 100
        },
        {
          "pitch": 42,
          "onset": 176.0,
          "duration": 0.9688,
          "velocity": 100
        },
        {
          "pitch": 57,
          "onset": 176.0,
          "duration": 0.9688,
          "velocity": 100
        },
        {
          "pitch": 66,
          "onset": 176.0,
          "duration": 3.9688,
          "velocity": 100
        },
        {
          "pitch": 44,
          "onset": 177.0,
          "duration": 0.9688,
          "velocity": 100
        },
        {
          "pitch": 59,
          "onset": 177.0,
          "duration": 0.9688,
          "velocity": 100
        },
        {
          "pitch": 45,
          "onset": 178.0,
          "duration": 0.9688,
          "velocity": 100
        },
        {
          "pitch": 61,
          "onset": 178.0,
          "duration": 3.9688,
          "velocity": 100
        },
        {
          "pitch": 42,
          "onset": 179.0,
          "duration": 0.9688,
          "velocity": 100
        },
        {
          "pitch": 51,
          "onset": 179.0,
          "duration": 0.9688,
          "velocity": 100
        },
        {
          "pitch": 49,
          "onset": 180.0,
          "duration": 0.9688,
          "velocity": 100
        },
        {
          "pitch": 53,
          "onset": 180.0,
          "duration": 0.9688,
          "velocity": 100
        },
        {
          "pitch": 68,
          "onset": 180.0,
          "duration": 0.9688,
          "velocity": 100
        },
        {
          "pitch": 49,
          "onset": 181.0,
          "duration": 0.9688,
          "velocity": 100
        },
        {
          "pitch": 69,
          "onset": 181.0,
          "duration": 0.9688,
          "velocity": 100
        },
        {
          "pitch": 47,
          "onset": 182.0,
          "duration": 0.9688,
          "velocity": 100
        },
        {
          "pitch": 56,
          "onset": 182.0,
          "duration": 1.9688,
          "velocity": 100
        },
        {
          "pitch": 63,
          "onset": 182.0,
          "duration": 0.9688,
          "velocity": 100
        },
        {
          "pitch": 71,
          "onset": 182.0,
          "duration": 2.9688,
          "velocity": 100
        },
        {
          "pitch": 49,
          "onset": 183.0,
          "duration": 0.9688,
          "velocity": 100
        },
        {
          "pitch": 65,
          "onset": 183.0,
          "duration": 0.9688,
          "velocity": 100
        },
        {
          "pitch": 50,
          "onset": 184.0,
          "duration": 0.9688,
          "velocity": 100
        },
        {
          "pitch": 54,
          "onset": 184.0,
          "duration": 1.9688,
          "velocity": 100
        },
        {
          "pitch": 66,
          "onset": 184.0,
          "duration": 2.9688,
          "velocity": 100
        },
        {
          "pitch": 49,
          "onset": 185.0,
          "duration": 0.9688,
          "velocity": 100
        },
        {
          "pitch": 69,
          "onset": 185.0,
          "duration": 0.9688,
          "velocity": 100
        },
        {
          "pitch": 48,
          "onset": 186.0,
          "duration": 0.9688,
          "velocity": 100
        },
        {
          "pitch": 56,
          "onset": 186.0,
          "duration": 0.9688,
          "velocity": 100
        },
        {
          "pitch": 68,
          "onset": 186.0,
          "duration": 1.9688,
          "velocity": 100
        },
        {
          "pitch": 49,
          "onset": 187.0,
          "duration": 1.9688,
          "velocity": 100
        },
        {
          "pitch": 64,
          "onset": 187.0,
          "duration": 0.9688,
          "velocity": 100
        },
        {
          "pitch": 42,
          "onset": 188.0,
          "duration": 0.9688,
          "velocity": 100
        },
        {
          "pitch": 63,
          "onset": 188.0,
          "duration": 1.9688,
          "velocity": 100
        },
        {
          "pitch": 66,
          "onset": 188.0,
          "duration": 1.9688,
          "velocity": 100
        },
        {
          "pitch": 44,
          "onset": 189.0,
          "duration": 0.9688,
          "velocity": 100
        },
        {
          "pitch": 48,
          "onset": 189.0,
          "duration": 0.9688,
          "velocity": 100
        },
        {
          "pitch": 45,
          "onset": 190.0,
          "duration": 1.9688,
          "velocity": 100
        },
        {
          "pitch": 49,
          "onset": 190.0,
          "duration": 0.9688,
          "velocity": 100
        },
        {
          "pitch": 61,
          "onset": 190.0,
          "duration": 2.9688,
          "velocity": 100
        },
        {
          "pitch": 64,
          "onset": 190.0,
          "duration": 0.9688,
          "velocity": 100
        },
        {
          "pitch": 51,
          "onset": 191.0,
          "duration": 0.9688,
          "velocity": 100
        },
        {
          "pitch": 66,
          "onset": 191.0,
          "duration": 0.9688,
          "velocity": 100
        },
        {
          "pitch": 44,
          "onset": 192.0,
          "duration": 3.9688,
          "velocity": 100
        },
        {
          "pitch": 52,
          "onset": 192.0,
          "duration": 0.9688,
          "velocity": 100
        },
        {
          "pitch": 68,
          "onset": 192.0,
          "duration": 2.9688,
          "velocity": 100
        },
        {
          "pitch": 54,
          "onset": 193.0,
          "duration": 0.4688,
          "velocity": 100
        },
        {
          "pitch": 63,
          "onset": 193.0,
          "duration": 0.4688,
          "velocity": 100
        },
        {
          "pitch": 52,
          "onset": 193.5,
          "duration": 0.4688,
          "velocity": 100
        },
        {
          "pitch": 61,
          "onset": 193.5,
          "duration": 0.4688,
          "velocity": 100
        },
        {
          "pitch": 51,
          "onset": 194.0,
          "duration": 3.9688,
          "velocity": 100
        },
        {
          "pitch": 60,
          "onset": 194.0,
          "duration": 1.9688,
          "velocity": 100
        },
        {
          "pitch": 69,
          "onset": 195.0,
          "duration": 0.9688,
          "velocity": 100
        },
        {
          "pitch": 46,
          "onset": 196.0,
          "duration": 0.9688,
          "velocity": 100
        },
        {
          "pitch": 61,
          "onset": 196.0,
          "duration": 0.9688,
          "velocity": 100
        },
        {
          "pitch": 68,
          "onset": 196.0,
          "duration": 0.9688,
          "velocity": 100
        },
        {
          "pitch": 48,
          "onset": 197.0,
          "duration": 0.9688,
          "velocity": 100
        },
        {
          "pitch": 63,
          "onset": 197.0,
          "duration": 0.9688,
          "velocity": 100
        },
        {
          "pitch": 66,
          "onset": 197.0,
          "duration": 0.9688,
          "velocity": 100
        },
        {
          "pitch": 49,
          "onset": 198.0,
          "duration": 2.9688,
          "velocity": 100
        },
        {
          "pitch": 52,
          "onset": 198.0,
          "duration": 0.9688,
          "velocity": 100
        },
        {
          "pitch": 56,
          "onset": 198.0,
          "duration": 1.9688,
          "velocity": 100
        },
        {
          "pitch": 64,
          "onset": 198.0,
          "duration": 1.9688,
          "velocity": 100
        },
        {
          "pitch": 54,
          "onset": 199.0,
          "duration": 0.9688,
          "velocity": 100
        },
        {
          "pitch": 56,
          "onset": 200.0,
          "duration": 2.9688,
          "velocity": 100
        },
        {
          "pitch": 63,
          "onset": 200.0,
          "duration": 0.9688,
          "velocity": 100
        },
        {
          "pitch": 47,
          "onset": 201.0,
          "duration": 0.9688,
          "velocity": 100
        },
        {
          "pitch": 64,
          "onset": 201.0,
          "duration": 0.4688,
          "velocity": 100
        },
        {
          "pitch": 63,
          "onset": 201.5,
          "duration": 0.4688,
          "velocity": 100
        },
        {
          "pitch": 45,
          "onset": 202.0,
          "duration": 1.9688,
          "velocity": 100
        },
        {
          "pitch": 61,
          "onset": 202.0,
          "duration": 0.9688,
          "velocity": 100
        },
        {
          "pitch": 54,
          "onset": 203.0,
          "duration": 0.9688,
          "velocity": 100
        },
        {
          "pitch": 69,
          "onset": 203.0,
          "duration": 0.9688,
          "velocity": 100
        },
        {
          "pitch": 44,
          "onset": 204.0,
          "duration": 5.9688,
          "velocity": 100
        },
        {
          "pitch": 52,
          "onset": 204.0,
          "duration": 1.9688,
          "velocity": 100
        },
        {
          "pitch": 60,
          "onset": 204.0,
          "duration": 0.9688,
          "velocity": 100
        },
        {
          "pitch": 61,
          "onset": 205.0,
          "duration": 1.9688,
          "velocity": 100
        },
        {
          "pitch": 51,
          "onset": 206.0,
          "duration": 1.9688,
          "velocity": 100
        },
        {
          "pitch": 68,
          "onset": 206.0,
          "duration": 1.9688,
          "velocity": 100
        },
        {
          "pitch": 60,
          "onset": 207.0,
          "duration": 0.9688,
          "velocity": 100
        },
        {
          "pitch": 52,
          "onset": 208.0,
          "duration": 1.9688,
          "velocity": 100
        },
        {
          "pitch": 61,
          "onset": 208.0,
          "duration": 1.9688,
          "velocity": 100
        },
        {
          "pitch": 69,
          "onset": 208.0,
          "duration": 0.9688,
          "velocity": 100
        },
        {
          "pitch": 73,
          "onset": 209.0,
          "duration": 0.9688,
          "velocity": 100
        },
        {
          "pitch": 42,
          "onset": 210.0,
          "duration": 1.9688,
          "velocity": 100
        },
        {
          "pitch": 63,
          "onset": 210.0,
          "duration": 1.9688,
          "velocity": 100
        },
        {
          "pitch": 71,
          "onset": 210.0,
          "duration": 0.9688,
          "velocity": 100
        },
        {
          "pitch": 69,
          "onset": 211.0,
          "duration": 0.9688,
          "velocity": 100
        },
        {
          "pitch": 40,
          "onset": 212.0,
          "duration": 0.9688,
          "velocity": 100
        },
        {
          "pitch": 64,
          "onset": 212.0,
          "duration": 0.9688,
          "velocity": 100
        },
        {
          "pitch": 68,
          "onset": 212.0,
          "duration": 0.9688,
          "velocity": 100
        },
        {
          "pitch": 37,
          "onset": 213.0,
          "duration": 0.9688,
          "velocity": 100
        },
        {
          "pitch": 68,
          "onset": 213.0,
          "duration": 0.9688,
          "velocity": 100
        },
        {
          "pitch": 42,
          "onset": 214.0,
          "duration": 1.9688,
          "velocity": 100
        },
        {
          "pitch": 66,
          "onset": 214.0,
          "duration": 0.9688,
          "velocity": 100
        },
        {
          "pitch": 70,
          "onset": 214.0,
          "duration": 1.9688,
          "velocity": 100
        },
        {
          "pitch": 64,
          "onset": 215.0,
          "duration": 0.9688,
          "velocity": 100
        },
        {
          "pitch": 47,
          "onset": 216.0,
          "duration": 1.9688,
          "velocity": 100
        },
        {
          "pitch": 63,
          "onset": 216.0,
          "duration": 0.9688,
          "velocity": 100
        },
        {
          "pitch": 71,
          "onset": 216.0,
          "duration": 6.9688,
          "velocity": 100
        },
        {
          "pitch": 69,
          "onset": 217.0,
          "duration": 0.9688,
          "velocity": 100
        },
        {
          "pitch": 59,
          "onset": 218.0,
          "duration": 1.9688,
          "velocity": 100
        },
        {
          "pitch": 68,
          "onset": 218.0,
          "duration": 0.9688,
          "velocity": 100
        },
        {
          "pitch": 66,
          "onset": 219.0,
          "duration": 0.9688,
          "velocity": 100
        },
        {
          "pitch": 61,
          "onset": 220.0,
          "duration": 0.9688,
          "velocity": 100
        },
        {
          "pitch": 64,
          "onset": 220.0,
          "duration": 0.9688,
          "velocity": 100
        },
        {
          "pitch": 64,
          "onset": 221.0,
          "duration": 0.9688,
          "velocity": 100
        },
        {
          "pitch": 68,
          "onset": 221.0,
          "duration": 0.9688,
          "velocity": 100
        },
        {
          "pitch": 54,
          "onset": 222.0,
          "duration": 1.9688,
          "velocity": 100
        },
        {
          "pitch": 63,
          "onset": 222.0,
          "duration": 0.9688,
          "velocity": 100
        },
        {
          "pitch": 66,
          "onset": 222.0,
          "duration": 0.9688,
          "velocity": 100
        },
        {
          "pitch": 61,
          "onset": 223.0,
          "duration": 0.9688,
          "velocity": 100
        },
        {
          "pitch": 64,
          "onset": 223.0,
          "duration": 0.9688,
          "velocity": 100
        },
        {
          "pitch": 70,
          "onset": 223.0,
          "duration": 0.9688,
          "velocity": 100
        },
        {
          "pitch": 56,
          "onset": 224.0,
          "duration": 0.9688,
          "velocity": 100
        },
        {
          "pitch": 59,
          "onset": 224.0,
          "duration": 0.9688,
          "velocity": 100
        },
        {
          "pitch": 63,
          "onset": 224.0,
          "duration": 0.9688,
          "velocity": 100
        },
        {
          "pitch": 71,
          "onset": 224.0,
          "duration": 0.9688,
          "velocity": 100
        },
        {
          "pitch": 59,
          "onset": 225.0,
          "duration": 0.9688,
          "velocity": 100
        },
        {
          "pitch": 62,
          "onset": 225.0,
          "duration": 0.9688,
          "velocity": 100
        },
        {
          "pitch": 64,
          "onset": 225.0,
          "duration": 0.9688,
          "velocity": 100
        },
        {
          "pitch": 68,
          "onset": 225.0,
          "duration": 0.9688,
          "velocity": 100
        },
        {
          "pitch": 57,
          "onset": 226.0,
          "duration": 0.9688,
          "velocity": 100
        },
        {
          "pitch": 61,
          "onset": 226.0,
          "duration": 0.9688,
          "velocity": 100
        },
        {
          "pitch": 66,
          "onset": 226.0,
          "duration": 0.9688,
          "velocity": 100
        },
        {
          "pitch": 69,
          "onset": 226.0,
          "duration": 0.9688,
          "velocity": 100
        },
        {
          "pitch": 56,
          "onset": 227.0,
          "duration": 0.9688,
          "velocity": 100
        },
        {
          "pitch": 59,
          "onset": 227.0,
          "duration": 0.9688,
          "velocity": 100
        },
        {
          "pitch": 68,
          "onset": 227.0,
          "duration": 0.9688,
          "velocity": 100
        },
        {
          "pitch": 71,
          "onset": 227.0,
          "duration": 0.9688,
          "velocity": 100
        },
        {
          "pitch": 54,
          "onset": 228.0,
          "duration": 1.9688,
          "velocity": 100
        },
        {
          "pitch": 57,
          "onset": 228.0,
          "duration": 1.9688,
          "velocity": 100
        },
        {
          "pitch": 69,
          "onset": 228.0,
          "duration": 2.9688,
          "velocity": 100
        },
        {
          "pitch": 73,
          "onset": 228.0,
          "duration": 0.9688,
          "velocity": 100
        },
        {
          "pitch": 75,
          "onset": 229.0,
          "duration": 0.9688,
          "velocity": 100
        },
        {
          "pitch": 52,
          "onset": 230.0,
          "duration": 1.9688,
          "velocity": 100
        },
        {
          "pitch": 59,
          "onset": 230.0,
          "duration": 1.9688,
          "velocity": 100
        },
        {
          "pitch": 76,
          "onset": 230.0,
          "duration": 4.9688,
          "velocity": 100
        },
        {
          "pitch": 68,
          "onset": 231.0,
          "duration": 0.9688,
          "velocity": 100
        },
        {
          "pitch": 59,
          "onset": 232.0,
          "duration": 2.9688,
          "velocity": 100
        },
        {
          "pitch": 66,
          "onset": 232.0,
          "duration": 0.9688,
          "velocity": 100
        },
        {
          "pitch": 64,
          "onset": 233.0,
          "duration": 0.9688,
          "velocity": 100
        },
        {
          "pitch": 47,
          "onset": 234.0,
          "duration": 1.9688,
          "velocity": 100
        },
        {
          "pitch": 66,
          "onset": 234.0,
          "duration": 1.9688,
          "velocity": 100
        },
        {
          "pitch": 57,
          "onset": 235.0,
          "duration": 0.9688,
          "velocity": 100
        },
        {
          "pitch": 75,
          "onset": 235.0,
          "duration": 0.9688,
          "velocity": 100
        },
        {
          "pitch": 49,
          "onset": 236.0,
          "duration": 0.9688,
          "velocity": 100
        },
        {
          "pitch": 56,
          "onset": 236.0,
          "duration": 2.9688,
          "velocity": 100
        },
        {
          "pitch": 64,
          "onset": 236.0,
          "duration": 3.9688,
          "velocity": 100
        },
        {
          "pitch": 76,
          "onset": 236.0,
          "duration": 0.9688,
          "velocity": 100
        },
        {
          "pitch": 52,
          "onset": 237.0,
          "duration": 0.9688,
          "velocity": 100
        },
        {
          "pitch": 71,
          "onset": 237.0,
          "duration": 1.9688,
          "velocity": 100
        },
        {
          "pitch": 51,
          "onset": 238.0,
          "duration": 0.9688,
          "velocity": 100
        },
        {
          "pitch": 49,
          "onset": 239.0,
          "duration": 0.9688,
          "velocity": 100
        },
        {
          "pitch": 61,
          "onset": 239.0,
          "duration": 0.9688,
          "velocity": 100
        },
        {
          "pitch": 70,
          "onset": 239.0,
          "duration": 0.9688,
          "velocity": 100
        },
        {
          "pitch": 51,
          "onset": 240.0,
          "duration": 0.9688,
          "velocity": 100
        },
        {
          "pitch": 54,
          "onset": 240.0,
          "duration": 0.9688,
          "velocity": 100
        },
        {
          "pitch": 66,
          "onset": 240.0,
          "duration": 1.9688,
          "velocity": 100
        },
        {
          "pitch": 71,
          "onset": 240.0,
          "duration": 1.9688,
          "velocity": 100
        },
        {
          "pitch": 47,
          "onset": 241.0,
          "duration": 0.9688,
          "velocity": 100
        },
        {
          "pitch": 51,
          "onset": 241.0,
          "duration": 0.9688,
          "velocity": 100
        },
        {
          "pitch": 49,
          "onset": 242.0,
          "duration": 0.9688,
          "velocity": 100
        },
        {
          "pitch": 52,
          "onset": 242.0,
          "duration": 0.9688,
          "velocity": 100
        },
        {
          "pitch": 69,
          "onset": 242.0,
          "duration": 1.9688,
          "velocity": 100
        },
        {
          "pitch": 51,
          "onset": 243.0,
          "duration": 0.9688,
          "velocity": 100
        },
        {
          "pitch": 54,
          "onset": 243.0,
          "duration": 0.9688,
          "velocity": 100
        },
        {
          "pitch": 78,
          "onset": 243.0,
          "duration": 0.9688,
          "velocity": 100
        },
        {
          "pitch": 52,
          "onset": 244.0,
          "duration": 2.9688,
          "velocity": 100
        },
        {
          "pitch": 56,
          "onset": 244.0,
          "duration": 0.9688,
          "velocity": 100
        },
        {
          "pitch": 68,
          "onset": 244.0,
          "duration": 0.9688,
          "velocity": 100
        },
        {
          "pitch": 71,
          "onset": 244.0,
          "duration": 0.9688,
          "velocity": 100
        },
        {
          "pitch": 59,
          "onset": 245.0,
          "duration": 0.9688,
          "velocity": 100
        },
        {
          "pitch": 68,
          "onset": 245.0,
          "duration": 0.9688,
          "velocity": 100
        },
        {
          "pitch": 61,
          "onset": 246.0,
          "duration": 0.9688,
          "velocity": 100
        },
        {
          "pitch": 66,
          "onset": 246.0,
          "duration": 1.9688,
          "velocity": 100
        },
        {
          "pitch": 69,
          "onset": 246.0,
          "duration": 0.9688,
          "velocity": 100
        },
        {
          "pitch": 51,
          "onset": 247.0,
          "duration": 0.9688,
          "velocity": 100
        },
        {
          "pitch": 63,
          "onset": 247.0,
          "duration": 0.9688,
          "velocity": 100
        },
        {
          "pitch": 71,
          "onset": 247.0,
          "duration": 0.9688,
          "velocity": 100
        },
        {
          "pitch": 52,
          "onset": 248.0,
          "duration": 0.9688,
          "velocity": 100
        },
        {
          "pitch": 56,
          "onset": 248.0,
          "duration": 0.9688,
          "velocity": 100
        },
        {
          "pitch": 64,
          "onset": 248.0,
          "duration": 0.9688,
          "velocity": 100
        },
        {
          "pitch": 73,
          "onset": 248.0,
          "duration": 1.9688,
          "velocity": 100
        },
        {
          "pitch": 49,
          "onset": 249.0,
          "duration": 0.9688,
          "velocity": 100
        },
        {
          "pitch": 52,
          "onset": 249.0,
          "duration": 0.9688,
          "velocity": 100
        },
        {
          "pitch": 69,
          "onset": 249.0,
          "duration": 1.9688,
          "velocity": 100
        },
        {
          "pitch": 51,
          "onset": 250.0,
          "duration": 0.9688,
          "velocity": 100
        },
        {
          "pitch": 54,
          "onset": 250.0,
          "duration": 0.9688,
          "velocity": 100
        },
        {
          "pitch": 71,
          "onset": 250.0,
          "duration": 1.9688,
          "velocity": 100
        },
        {
          "pitch": 53,
          "onset": 251.0,
          "duration": 0.9688,
          "velocity": 100
        },
        {
          "pitch": 56,
          "onset": 251.0,
          "duration": 0.9688,
          "velocity": 100
        },
        {
          "pitch": 68,
          "onset": 251.0,
          "duration": 0.9688,
          "velocity": 100
        },
        {
          "pitch": 54,
          "onset": 252.0,
          "duration": 2.9688,
          "velocity": 100
        },
        {
          "pitch": 57,
          "onset": 252.0,
          "duration": 0.9688,
          "velocity": 100
        },
        {
          "pitch": 66,
          "onset": 252.0,
          "duration": 0.9688,
          "velocity": 100
        },
        {
          "pitch": 69,
          "onset": 252.0,
          "duration": 1.9688,
          "velocity": 100
        },
        {
          "pitch": 59,
          "onset": 253.0,
          "duration": 0.9688,
          "velocity": 100
        },
        {
          "pitch": 74,
          "onset": 253.0,
          "duration": 0.9688,
          "velocity": 100
        },
        {
          "pitch": 61,
          "onset": 254.0,
          "duration": 2.9688,
          "velocity": 100
        },
        {
          "pitch": 68,
          "onset": 254.0,
          "duration": 1.9688,
          "velocity": 100
        },
        {
          "pitch": 73,
          "onset": 254.0,
          "duration": 0.9688,
          "velocity": 100
        },
        {
          "pitch": 53,
          "onset": 255.0,
          "duration": 0.9688,
          "velocity": 100
        },
        {
          "pitch": 71,
          "onset": 255.0,
          "duration": 0.9688,
          "velocity": 100
        },
        {
          "pitch": 54,
          "onset": 256.0,
          "duration": 0.9688,
          "velocity": 100
        },
        {
          "pitch": 66,
          "onset": 256.0,
          "duration": 0.9688,
          "velocity": 100
        },
        {
          "pitch": 69,
          "onset": 256.0,
          "duration": 0.9688,
          "velocity": 100
        },
        {
          "pitch": 51,
          "onset": 257.0,
          "duration": 0.9688,
          "velocity": 100
        },
        {
          "pitch": 61,
          "onset": 257.0,
          "duration": 0.9688,
          "velocity": 100
        },
        {
          "pitch": 67,
          "onset": 257.0,
          "duration": 0.9688,
          "velocity": 100
        },
        {
          "pitch": 76,
          "onset": 257.0,
          "duration": 0.9688,
          "velocity": 100
        },
        {
          "pitch": 53,
          "onset": 258.0,
          "duration": 0.9688,
          "velocity": 100
        },
        {
          "pitch": 59,
          "onset": 258.0,
          "duration": 0.9688,
          "velocity": 100
        },
        {
          "pitch": 68,
          "onset": 258.0,
          "duration": 0.9688,
          "velocity": 100
        },
        {
          "pitch": 75,
          "onset": 258.0,
          "duration": 0.9688,
          "velocity": 100
        },
        {
          "pitch": 55,
          "onset": 259.0,
          "duration": 0.9688,
          "velocity": 100
        },
        {
          "pitch": 58,
          "onset": 259.0,
          "duration": 0.9688,
          "velocity": 100
        },
        {
          "pitch": 70,
          "onset": 259.0,
          "duration": 0.9688,
          "velocity": 100
        },
        {
          "pitch": 73,
          "onset": 259.0,
          "duration": 0.9688,
          "velocity": 100
        },
        {
          "pitch": 56,
          "onset": 260.0,
          "duration": 2.9688,
          "velocity": 100
        },
        {
          "pitch": 59,
          "onset": 260.0,
          "duration": 0.9688,
          "velocity": 100
        },
        {
          "pitch": 68,
          "onset": 260.0,
          "duration": 0.9688,
          "velocity": 100
        },
        {
          "pitch": 71,
          "onset": 260.0,
          "duration": 1.9688,
          "velocity": 100
        },
        {
          "pitch": 63,
          "onset": 261.0,
          "duration": 0.9688,
          "velocity": 100
        },
        {
          "pitch": 66,
          "onset": 261.0,
          "duration": 0.9688,
          "velocity": 100
        },
        {
          "pitch": 61,
          "onset": 262.0,
          "duration": 1.9688,
          "velocity": 100
        },
        {
          "pitch": 64,
          "onset": 262.0,
          "duration": 1.9688,
          "velocity": 100
        },
        {
          "pitch": 70,
          "onset": 262.0,
          "duration": 2.9688,
          "velocity": 100
        },
        {
          "pitch": 55,
          "onset": 263.0,
          "duration": 0.9688,
          "velocity": 100
        },
        {
          "pitch": 56,
          "onset": 264.0,
          "duration": 1.9688,
          "velocity": 100
        },
        {
          "pitch": 59,
          "onset": 264.0,
          "duration": 2.9688,
          "velocity": 100
        },
        {
          "pitch": 63,
          "onset": 264.0,
          "duration": 1.9688,
          "velocity": 100
        },
        {
          "pitch": 68,
          "onset": 265.0,
          "duration": 0.4688,
          "velocity": 100
        },
        {
          "pitch": 67,
          "onset": 265.5,
          "duration": 0.4688,
          "velocity": 100
        },
        {
          "pitch": 53,
          "onset": 266.0,
          "duration": 1.9688,
          "velocity": 100
        },
        {
          "pitch": 62,
          "onset": 266.0,
          "duration": 1.9688,
          "velocity": 100
        },
        {
          "pitch": 68,
          "onset": 266.0,
          "duration": 4.9688,
          "velocity": 100
        },
        {
          "pitch": 58,
          "onset": 267.0,
          "duration": 0.4688,
          "velocity": 100
        },
        {
          "pitch": 56,
          "onset": 267.5,
          "duration": 0.4688,
          "velocity": 100
        },
        {
          "pitch": 51,
          "onset": 268.0,
          "duration": 1.9688,
          "velocity": 100
        },
        {
          "pitch": 58,
          "onset": 268.0,
          "duration": 0.9688,
          "velocity": 100
        },
        {
          "pitch": 63,
          "onset": 268.0,
          "duration": 3.9688,
          "velocity": 100
        },
        {
          "pitch": 59,
          "onset": 269.0,
          "duration": 0.9688,
          "velocity": 100
        },
        {
          "pitch": 39,
          "onset": 270.0,
          "duration": 1.9688,
          "velocity": 100
        },
        {
          "pitch": 61,
          "onset": 270.0,
          "duration": 1.9688,
          "velocity": 100
        },
        {
          "pitch": 67,
          "onset": 271.0,
          "duration": 0.9688,
          "velocity": 100
        },
        {
          "pitch": 44,
          "onset": 272.0,
          "duration": 1.9688,
          "velocity": 100
        },
        {
          "pitch": 59,
          "onset": 272.0,
          "duration": 1.9688,
          "velocity": 100
        },
        {
          "pitch": 63,
          "onset": 272.0,
          "duration": 1.9688,
          "velocity": 100
        },
        {
          "pitch": 68,
          "onset": 272.0,
          "duration": 1.9688,
          "velocity": 100
        },
        {
          "pitch": 59,
          "onset": 274.0,
          "duration": 1.9688,
          "velocity": 100
        },
        {
          "pitch": 71,
          "onset": 275.0,
          "duration": 0.9688,
          "velocity": 100
        },
        {
          "pitch": 52,
          "onset": 276.0,
          "duration": 3.9688,
          "velocity": 100
        },
        {
          "pitch": 61,
          "onset": 276.0,
          "duration": 1.9688,
          "velocity": 100
        },
        {
          "pitch": 68,
          "onset": 276.0,
          "duration": 0.9688,
          "velocity": 100
        },
        {
          "pitch": 64,
          "onset": 277.0,
          "duration": 0.9688,
          "velocity": 100
        },
        {
          "pitch": 64,
          "onset": 278.0,
          "duration": 1.9688,
          "velocity": 100
        },
        {
          "pitch": 66,
          "onset": 278.0,
          "duration": 0.9688,
          "velocity": 100
        },
        {
          "pitch": 68,
          "onset": 279.0,
          "duration": 0.9688,
          "velocity": 100
        },
        {
          "pitch": 54,
          "onset": 280.0,
          "duration": 1.9688,
          "velocity": 100
        },
        {
          "pitch": 63,
          "onset": 280.0,
          "duration": 1.9688,
          "velocity": 100
        },
        {
          "pitch": 69,
          "onset": 280.0,
          "duration": 0.9688,
          "velocity": 100
        },
        {
          "pitch": 71,
          "onset": 281.0,
          "duration": 0.9688,
          "velocity": 100
        },
        {
          "pitch": 57,
          "onset": 282.0,
          "duration": 1.9688,
          "velocity": 100
        },
        {
          "pitch": 61,
          "onset": 282.0,
          "duration": 1.9688,
          "velocity": 100
        },
        {
          "pitch": 73,
          "onset": 282.0,
          "duration": 0.9688,
          "velocity": 100
        },
        {
          "pitch": 75,
          "onset": 283.0,
          "duration": 0.9688,
          "velocity": 100
        },
        {
          "pitch": 47,
          "onset": 284.0,
          "duration": 3.9688,
          "velocity": 100
        },
        {
          "pitch": 56,
          "onset": 284.0,
          "duration": 1.9688,
          "velocity": 100
        },
        {
          "pitch": 59,
          "onset": 284.0,
          "duration": 1.9688,
          "velocity": 100
        },
        {
          "pitch": 76,
          "onset": 284.0,
          "duration": 0.4688,
          "velocity": 100
        },
        {
          "pitch": 71,
          "onset": 284.5,
          "duration": 0.4688,
          "velocity": 100
        },
        {
          "pitch": 76,
          "onset": 285.0,
          "duration": 1.9688,
          "velocity": 100
        },
        {
          "pitch": 54,
          "onset": 286.0,
          "duration": 1.9688,
          "velocity": 100
        },
        {
          "pitch": 71,
          "onset": 286.0,
          "duration": 1.9688,
          "velocity": 100
        },
        {
          "pitch": 75,
          "onset": 287.0,
          "duration": 1.9688,
          "velocity": 100
        },
        {
          "pitch": 49,
          "onset": 288.0,
          "duration": 1.9688,
          "velocity": 100
        },
        {
          "pitch": 52,
          "onset": 288.0,
          "duration": 1.9688,
          "velocity": 100
        },
        {
          "pitch": 68,
          "onset": 288.0,
          "duration": 0.9688,
          "velocity": 100
        },
        {
          "pitch": 64,
          "onset": 289.0,
          "duration": 0.9688,
          "velocity": 100
        },
        {
          "pitch": 73,
          "onset": 289.0,
          "duration": 0.4688,
          "velocity": 100
        },
        {
          "pitch": 71,
          "onset": 289.5,
          "duration": 0.4688,
          "velocity": 100
        },
        {
          "pitch": 52,
          "onset": 290.0,
          "duration": 1.9688,
          "velocity": 100
        },
        {
          "pitch": 68,
          "onset": 290.0,
          "duration": 0.9688,
          "velocity": 100
        },
        {
          "pitch": 73,
          "onset": 290.0,
          "duration": 1.9688,
          "velocity": 100
        },
        {
          "pitch": 70,
          "onset": 291.0,
          "duration": 0.9688,
          "velocity": 100
        },
        {
          "pitch": 51,
          "onset": 292.0,
          "duration": 1.9688,
          "velocity": 100
        },
        {
          "pitch": 71,
          "onset": 292.0,
          "duration": 0.9688,
          "velocity": 100
        },
        {
          "pitch": 66,
          "onset": 292.5,
          "duration": 0.4688,
          "velocity": 100
        },
        {
          "pitch": 71,
          "onset": 293.0,
          "duration": 1.9688,
          "velocity": 100
        },
        {
          "pitch": 49,
          "onset": 294.0,
          "duration": 1.9688,
          "velocity": 100
        },
        {
          "pitch": 76,
          "onset": 294.0,
          "duration": 1.9688,
          "velocity": 100
        },
        {
          "pitch": 52,
          "onset": 295.0,
          "duration": 0.9688,
          "velocity": 100
        },
        {
          "pitch": 69,
          "onset": 295.0,
          "duration": 1.9688,
          "velocity": 100
        },
        {
          "pitch": 47,
          "onset": 296.0,
          "duration": 0.9688,
          "velocity": 100
        },
        {
          "pitch": 51,
          "onset": 296.0,
          "duration": 0.9688,
          "velocity": 100
        },
        {
          "pitch": 78,
          "onset": 296.0,
          "duration": 1.9688,
          "velocity": 100
        },
        {
          "pitch": 59,
          "onset": 297.0,
          "duration": 0.9688,
          "velocity": 100
        },
        {
          "pitch": 63,
          "onset": 297.0,
          "duration": 0.9688,
          "velocity": 100
        },
        {
          "pitch": 61,
          "onset": 298.0,
          "duration": 0.9688,
          "velocity": 100
        },
        {
          "pitch": 64,
          "onset": 298.0,
          "duration": 0.9688,
          "velocity": 100
        },
        {
          "pitch": 81,
          "onset": 298.0,
          "duration": 1.9688,
          "velocity": 100
        },
        {
          "pitch": 63,
          "onset": 299.0,
          "duration": 0.9688,
          "velocity": 100
        },
        {
          "pitch": 66,
          "onset": 299.0,
          "duration": 0.9688,
          "velocity": 100
        },
        {
          "pitch": 64,
          "onset": 300.0,
          "duration": 0.4688,
          "velocity": 100
        },
        {
          "pitch": 68,
          "onset": 300.0,
          "duration": 0.9688,
          "velocity": 100
        },
        {
          "pitch": 80,
          "onset": 300.0,
          "duration": 1.9688,
          "velocity": 100
        },
        {
          "pitch": 59,
          "onset": 300.5,
          "duration": 0.4688,
          "velocity": 100
        },
        {
          "pitch": 64,
          "onset": 301.0,
          "duration": 1.9688,
          "velocity": 100
        },
        {
          "pitch": 73,
          "onset": 301.0,
          "duration": 0.9688,
          "velocity": 100
        },
        {
          "pitch": 69,
          "onset": 302.0,
          "duration": 0.9688,
          "velocity": 100
        },
        {
          "pitch": 78,
          "onset": 302.0,
          "duration": 1.9688,
          "velocity": 100
        },
        {
          "pitch": 63,
          "onset": 303.0,
          "duration": 1.4688,
          "velocity": 100
        },
        {
          "pitch": 71,
          "onset": 303.0,
          "duration": 0.9688,
          "velocity": 100
        },
        {
          "pitch": 68,
          "onset": 304.0,
          "duration": 0.9688,
          "velocity": 100
        },
        {
          "pitch": 76,
          "onset": 304.0,
          "duration": 1.9688,
          "velocity": 100
        },
        {
          "pitch": 56,
          "onset": 304.5,
          "duration": 0.4688,
          "velocity": 100
        },
        {
          "pitch": 61,
          "onset": 305.0,
          "duration": 1.9688,
          "velocity": 100
        },
        {
          "pitch": 69,
          "onset": 305.0,
          "duration": 0.9688,
          "velocity": 100
        },
        {
          "pitch": 66,
          "onset": 306.0,
          "duration": 0.9688,
          "velocity": 100
        },
        {
          "pitch": 75,
          "onset": 306.0,
          "duration": 1.9688,
          "velocity": 100
        },
        {
          "pitch": 59,
          "onset": 307.0,
          "duration": 1.4688,
          "velocity": 100
        },
        {
          "pitch": 68,
          "onset": 307.0,
          "duration": 0.9688,
          "velocity": 100
        },
        {
          "pitch": 64,
          "onset": 308.0,
          "duration": 0.9688,
          "velocity": 100
        },
        {
          "pitch": 73,
          "onset": 308.0,
          "duration": 1.9688,
          "velocity": 100
        },
        {
          "pitch": 52,
          "onset": 308.5,
          "duration": 0.4688,
          "velocity": 100
        },
        {
          "pitch": 57,
          "onset": 309.0,
          "duration": 1.9688,
          "velocity": 100
        },
        {
          "pitch": 66,
          "onset": 309.0,
          "duration": 0.9688,
          "velocity": 100
        },
        {
          "pitch": 63,
          "onset": 310.0,
          "duration": 0.9688,
          "velocity": 100
        },
        {
          "pitch": 71,
          "onset": 310.0,
          "duration": 2.9688,
          "velocity": 100
        },
        {
          "pitch": 56,
          "onset": 311.0,
          "duration": 0.9688,
          "velocity": 100
        },
        {
          "pitch": 64,
          "onset": 311.0,
          "duration": 1.9688,
          "velocity": 100
        },
        {
          "pitch": 47,
          "onset": 312.0,
          "duration": 3.9688,
          "velocity": 100
        },
        {
          "pitch": 54,
          "onset": 312.0,
          "duration": 3.9688,
          "velocity": 100
        },
        {
          "pitch": 63,
          "onset": 313.0,
          "duration": 0.4688,
          "velocity": 100
        },
        {
          "pitch": 73,
          "onset": 313.0,
          "duration": 0.9688,
          "velocity": 100
        },
        {
          "pitch": 61,
          "onset": 313.5,
          "duration": 0.4688,
          "velocity": 100
        },
        {
          "pitch": 63,
          "onset": 314.0,
          "duration": 1.9688,
          "velocity": 100
        },
        {
          "pitch": 71,
          "onset": 314.0,
          "duration": 0.9688,
          "velocity": 100
        },
        {
          "pitch": 69,
          "onset": 315.0,
          "duration": 0.9688,
          "velocity": 100
        },
        {
          "pitch": 49,
          "onset": 316.0,
          "duration": 1.9688,
          "velocity": 100
        },
        {
          "pitch": 52,
          "onset": 316.0,
          "duration": 0.9688,
          "velocity": 100
        },
        {
          "pitch": 68,
          "onset": 316.0,
          "duration": 1.9688,
          "velocity": 100
        },
        {
          "pitch": 56,
          "onset": 317.0,
          "duration": 0.9688,
          "velocity": 100
        },
        {
          "pitch": 64,
          "onset": 317.0,
          "duration": 0.4688,
          "velocity": 100
        },
        {
          "pitch": 66,
          "onset": 317.5,
          "duration": 0.4688,
          "velocity": 100
        },
        {
          "pitch": 52,
          "onset": 318.0,
          "duration": 1.9688,
          "velocity": 100
        },
        {
          "pitch": 61,
          "onset": 318.0,
          "duration": 0.9688,
          "velocity": 100
        },
        {
          "pitch": 68,
          "onset": 318.0,
          "duration": 0.9688,
          "velocity": 100
        },
        {
          "pitch": 54,
          "onset": 319.0,
          "duration": 1.9688,
          "velocity": 100
        },
        {
          "pitch": 70,
          "onset": 319.0,
          "duration": 0.9688,
          "velocity": 100
        },
        {
          "pitch": 51,
          "onset": 320.0,
          "duration": 1.9688,
          "velocity": 100
        },
        {
          "pitch": 71,
          "onset": 320.0,
          "duration": 0.4688,
          "velocity": 100
        },
        {
          "pitch": 66,
          "onset": 320.5,
          "duration": 0.4688,
          "velocity": 100
        },
        {
          "pitch": 54,
          "onset": 321.0,
          "duration": 0.9688,
          "velocity": 100
        },
        {
          "pitch": 71,
          "onset": 321.0,
          "duration": 1.9688,
          "velocity": 100
        },
        {
          "pitch": 49,
          "onset": 322.0,
          "duration": 1.9688,
          "velocity": 100
        },
        {
          "pitch": 56,
          "onset": 322.0,
          "duration": 0.9688,
          "velocity": 100
        },
        {
          "pitch": 76,
          "onset": 322.0,
          "duration": 1.9688,
          "velocity": 100
        },
        {
          "pitch": 57,
          "onset": 323.0,
          "duration": 0.9688,
          "velocity": 100
        },
        {
          "pitch": 69,
          "onset": 323.0,
          "duration": 1.4688,
          "velocity": 100
        },
        {
          "pitch": 47,
          "onset": 324.0,
          "duration": 1.9688,
          "velocity": 100
        },
        {
          "pitch": 59,
          "onset": 324.0,
          "duration": 0.9688,
          "velocity": 100
        },
        {
          "pitch": 75,
          "onset": 324.0,
          "duration": 1.9688,
          "velocity": 100
        },
        {
          "pitch": 64,
          "onset": 324.5,
          "duration": 0.4688,
          "velocity": 100
        },
        {
          "pitch": 51,
          "onset": 325.0,
          "duration": 0.9688,
          "velocity": 100
        },
        {
          "pitch": 68,
          "onset": 325.0,
          "duration": 1.9688,
          "velocity": 100
        },
        {
          "pitch": 45,
          "onset": 326.0,
          "duration": 1.9688,
          "velocity": 100
        },
        {
          "pitch": 52,
          "onset": 326.0,
          "duration": 0.9688,
          "velocity": 100
        },
        {
          "pitch": 73,
          "onset": 326.0,
          "duration": 1.9688,
          "velocity": 100
        },
        {
          "pitch": 54,
          "onset": 327.0,
          "duration": 0.9688,
          "velocity": 100
        },
        {
          "pitch": 66,
          "onset": 327.0,
          "duration": 1.4688,
          "velocity": 100
        },
        {
          "pitch": 44,
          "onset": 328.0,
          "duration": 1.9688,
          "velocity": 100
        },
        {
          "pitch": 56,
          "onset": 328.0,
          "duration": 1.9688,
          "velocity": 100
        },
        {
          "pitch": 71,
          "onset": 328.0,
          "duration": 1.9688,
          "velocity": 100
        },
        {
          "pitch": 59,
          "onset": 328.5,
          "duration": 0.4688,
          "velocity": 100
        },
        {
          "pitch": 64,
          "onset": 329.0,
          "duration": 1.9688,
          "velocity": 100
        },
        {
          "pitch": 42,
          "onset": 330.0,
          "duration": 1.9688,
          "velocity": 100
        },
        {
          "pitch": 57,
          "onset": 330.0,
          "duration": 1.9688,
          "velocity": 100
        },
        {
          "pitch": 69,
          "onset": 330.0,
          "duration": 1.9688,
          "velocity": 100
        },
        {
          "pitch": 63,
          "onset": 331.0,
          "duration": 0.9688,
          "velocity": 100
        },
        {
          "pitch": 40,
          "onset": 332.0,
          "duration": 0.9688,
          "velocity": 100
        },
        {
          "pitch": 59,
          "onset": 332.0,
          "duration": 0.9688,
          "velocity": 100
        },
        {
          "pitch": 64,
          "onset": 332.0,
          "duration": 0.9688,
          "velocity": 100
        },
        {
          "pitch": 68,
          "onset": 332.0,
          "duration": 0.4688,
          "velocity": 100
        },
        {
          "pitch": 66,
          "onset": 332.5,
          "duration": 0.4688,
          "velocity": 100
        },
        {
          "pitch": 42,
          "onset": 333.0,
          "duration": 0.9688,
          "velocity": 100
        },
        {
          "pitch": 68,
          "onset": 333.0,
          "duration": 0.4688,
          "velocity": 100
        },
        {
          "pitch": 69,
          "onset": 333.5,
          "duration": 0.4688,
          "velocity": 100
        },
        {
          "pitch": 44,
          "onset": 334.0,
          "duration": 0.9688,
          "velocity": 100
        },
        {
          "pitch": 71,
          "onset": 334.0,
          "duration": 0.9688,
          "velocity": 100
        },
        {
          "pitch": 45,
          "onset": 335.0,
          "duration": 0.9688,
          "velocity": 100
        },
        {
          "pitch": 61,
          "onset": 335.0,
          "duration": 0.9688,
          "velocity": 100
        },
        {
          "pitch": 64,
          "onset": 335.0,
          "duration": 0.9688,
          "velocity": 100
        },
        {
          "pitch": 69,
          "onset": 335.0,
          "duration": 0.9688,
          "velocity": 100
        },
        {
          "pitch": 47,
          "onset": 336.0,
          "duration": 4.9688,
          "velocity": 100
        },
        {
          "pitch": 59,
          "onset": 336.0,
          "duration": 3.9688,
          "velocity": 100
        },
        {
          "pitch": 64,
          "onset": 336.0,
          "duration": 1.9688,
          "velocity": 100
        },
        {
          "pitch": 68,
          "onset": 336.0,
          "duration": 1.9688,
          "velocity": 100
        },
        {
          "pitch": 63,
          "onset": 338.0,
          "duration": 2.9688,
          "velocity": 100
        },
        {
          "pitch": 66,
          "onset": 338.0,
          "duration": 2.9688,
          "velocity": 100
        },
        {
          "pitch": 57,
          "onset": 339.0,
          "duration": 1.9688,
          "velocity": 100
        },
        {
          "pitch": 40,
          "onset": 341.0,
          "duration": 10.9688,
          "velocity": 100
        },
        {
          "pitch": 56,
          "onset": 341.0,
          "duration": 10.9688,
          "velocity": 100
        },
        {
          "pitch": 59,
          "onset": 341.0,
          "duration": 10.9688,
          "velocity": 100
        },
        {
          "pitch": 64,
          "onset": 341.0,
          "duration": 10.9688,
          "velocity": 100
        },
        {
          "pitch": 64,
          "onset": 356.5,
          "duration": 0.2188,
          "velocity": 1
        }
      ]
    }
  ]
}