{
  "bwv": 850,
  "category": "wtc1",
  "instrument": "keyboard",
  "form": "fugue",
  "movement": null,
  "ticks_per_beat": 384,
  "duration_seconds": 110.3,
  "tempos": [
    {
      "tick": 0,
      "bpm": 60
    },
    {
      "tick": 11904,
      "bpm": 60
    },
    {
      "tick": 12288,
      "bpm": 55
    },
    {
      "tick": 12480,
      "bpm": 55
    },
    {
      "tick": 12672,
      "bpm": 60
    },
    {
      "tick": 23808,
      "bpm": 55
    },
    {
      "tick": 24192,
      "bpm": 55
    },
    {
      "tick": 24576,
      "bpm": 60
    },
    {
      "tick": 30336,
      "bpm": 60
    },
    {
      "tick": 30528,
      "bpm": 55
    },
    {
      "tick": 30912,
      "bpm": 55
    },
    {
      "tick": 31104,
      "bpm": 60
    },
    {
      "tick": 36480,
      "bpm": 60
    },
    {
      "tick": 36672,
      "bpm": 55
    },
    {
      "tick": 36864,
      "bpm": 60
    },
    {
      "tick": 38400,
      "bpm": 55
    },
    {
      "tick": 38784,
      "bpm": 50
    },
    {
      "tick": 39552,
      "bpm": 45
    },
    {
      "tick": 39936,
      "bpm": 80
    }
  ],
  "time_signatures": [
    {
      "tick": 0,
      "numerator": 4,
      "denominator": 4
    }
  ],
  "track_type": "manual",
  "voice_count": 2,
  "total_notes": 787,
  "tracks": [
    {
      "role": "upper",
      "notes": [
        {
          "pitch": 57,
          "onset": 5.0,
          "duration": 0.25,
          "velocity": 100
        },
        {
          "pitch": 59,
          "onset": 5.125,
          "duration": 0.25,
          "velocity": 100
        },
        {
          "pitch": 61,
          "onset": 5.25,
          "duration": 0.25,
          "velocity": 100
        },
        {
          "pitch": 62,
          "onset": 5.375,
          "duration": 0.25,
          "velocity": 100
        },
        {
          "pitch": 61,
          "onset": 5.5,
          "duration": 0.25,
          "velocity": 100
        },
        {
          "pitch": 59,
          "onset": 5.625,
          "duration": 0.25,
          "velocity": 100
        },
        {
          "pitch": 61,
          "onset": 5.75,
          "duration": 0.25,
          "velocity": 100
        },
        {
          "pitch": 57,
          "onset": 5.875,
          "duration": 0.25,
          "velocity": 100
        },
        {
          "pitch": 66,
          "onset": 6.0,
          "duration": 0.75,
          "velocity": 100
        },
        {
          "pitch": 66,
          "onset": 6.75,
          "duration": 0.25,
          "velocity": 100
        },
        {
          "pitch": 64,
          "onset": 7.0,
          "duration": 0.75,
          "velocity": 100
        },
        {
          "pitch": 62,
          "onset": 7.75,
          "duration": 0.25,
          "velocity": 100
        },
        {
          "pitch": 61,
          "onset": 8.0,
          "duration": 1.0,
          "velocity": 100
        },
        {
          "pitch": 66,
          "onset": 9.0,
          "duration": 0.75,
          "velocity": 100
        },
        {
          "pitch": 66,
          "onset": 9.75,
          "duration": 0.25,
          "velocity": 100
        },
        {
          "pitch": 59,
          "onset": 10.0,
          "duration": 0.625,
          "velocity": 100
        },
        {
          "pitch": 59,
          "onset": 10.625,
          "duration": 0.25,
          "velocity": 100
        },
        {
          "pitch": 61,
          "onset": 10.75,
          "duration": 0.25,
          "velocity": 100
        },
        {
          "pitch": 62,
          "onset": 10.875,
          "duration": 0.25,
          "velocity": 100
        },
        {
          "pitch": 64,
          "onset": 11.0,
          "duration": 0.25,
          "velocity": 100
        },
        {
          "pitch": 62,
          "onset": 11.25,
          "duration": 0.25,
          "velocity": 100
        },
        {
          "pitch": 64,
          "onset": 11.5,
          "duration": 0.25,
          "velocity": 100
        },
        {
          "pitch": 61,
          "onset": 11.75,
          "duration": 0.25,
          "velocity": 100
        },
        {
          "pitch": 57,
          "onset": 12.0,
          "duration": 1.0,
          "velocity": 100
        },
        {
          "pitch": 62,
          "onset": 13.0,
          "duration": 0.875,
          "velocity": 100
        },
        {
          "pitch": 64,
          "onset": 13.125,
          "duration": 0.25,
          "velocity": 100
        },
        {
          "pitch": 66,
          "onset": 13.25,
          "duration": 0.25,
          "velocity": 100
        },
        {
          "pitch": 67,
          "onset": 13.375,
          "duration": 0.25,
          "velocity": 100
        },
        {
          "pitch": 66,
          "onset": 13.5,
          "duration": 0.25,
          "velocity": 100
        },
        {
          "pitch": 64,
          "onset": 13.625,
          "duration": 0.25,
          "velocity": 100
        },
        {
          "pitch": 66,
          "onset": 13.75,
          "duration": 0.25,
          "velocity": 100
        },
        {
          "pitch": 62,
          "onset": 13.875,
          "duration": 1.125,
          "velocity": 100
        },
        {
          "pitch": 71,
          "onset": 14.0,
          "duration": 0.75,
          "velocity": 100
        },
        {
          "pitch": 71,
          "onset": 14.75,
          "duration": 0.25,
          "velocity": 100
        },
        {
          "pitch": 61,
          "onset": 15.0,
          "duration": 1.0,
          "velocity": 100
        },
        {
          "pitch": 69,
          "onset": 15.0,
          "duration": 0.75,
          "velocity": 100
        },
        {
          "pitch": 67,
          "onset": 15.75,
          "duration": 0.25,
          "velocity": 100
        },
        {
          "pitch": 62,
          "onset": 16.0,
          "duration": 1.0,
          "velocity": 100
        },
        {
          "pitch": 66,
          "onset": 16.0,
          "duration": 0.75,
          "velocity": 100
        },
        {
          "pitch": 68,
          "onset": 16.75,
          "duration": 0.25,
          "velocity": 100
        },
        {
          "pitch": 69,
          "onset": 17.0,
          "duration": 0.875,
          "velocity": 100
        },
        {
          "pitch": 71,
          "onset": 17.125,
          "duration": 0.25,
          "velocity": 100
        },
        {
          "pitch": 73,
          "onset": 17.25,
          "duration": 0.25,
          "velocity": 100
        },
        {
          "pitch": 74,
          "onset": 17.375,
          "duration": 0.25,
          "velocity": 100
        },
        {
          "pitch": 73,
          "onset": 17.5,
          "duration": 0.25,
          "velocity": 100
        },
        {
          "pitch": 71,
          "onset": 17.625,
          "duration": 0.25,
          "velocity": 100
        },
        {
          "pitch": 73,
          "onset": 17.75,
          "duration": 0.25,
          "velocity": 100
        },
        {
          "pitch": 69,
          "onset": 17.875,
          "duration": 1.125,
          "velocity": 100
        },
        {
          "pitch": 78,
          "onset": 18.0,
          "duration": 0.75,
          "velocity": 100
        },
        {
          "pitch": 78,
          "onset": 18.75,
          "duration": 0.25,
          "velocity": 100
        },
        {
          "pitch": 68,
          "onset": 19.0,
          "duration": 1.0,
          "velocity": 100
        },
        {
          "pitch": 76,
          "onset": 19.0,
          "duration": 0.75,
          "velocity": 100
        },
        {
          "pitch": 74,
          "onset": 19.75,
          "duration": 0.25,
          "velocity": 100
        },
        {
          "pitch": 69,
          "onset": 20.0,
          "duration": 1.0,
          "velocity": 100
        },
        {
          "pitch": 73,
          "onset": 20.0,
          "duration": 0.625,
          "velocity": 100
        },
        {
          "pitch": 76,
          "onset": 20.625,
          "duration": 0.125,
          "velocity": 100
        },
        {
          "pitch": 78,
          "onset": 20.75,
          "duration": 0.125,
          "velocity": 100
        },
        {
          "pitch": 79,
          "onset": 20.875,
          "duration": 0.125,
          "velocity": 100
        },
        {
          "pitch": 73,
          "onset": 21.0,
          "duration": 1.0,
          "velocity": 100
        },
        {
          "pitch": 81,
          "onset": 21.0,
          "duration": 0.75,
          "velocity": 100
        },
        {
          "pitch": 81,
          "onset": 21.75,
          "duration": 0.25,
          "velocity": 100
        },
        {
          "pitch": 74,
          "onset": 22.0,
          "duration": 0.625,
          "velocity": 100
        },
        {
          "pitch": 81,
          "onset": 22.0,
          "duration": 0.625,
          "velocity": 100
        },
        {
          "pitch": 74,
          "onset": 22.625,
          "duration": 0.125,
          "velocity": 100
        },
        {
          "pitch": 76,
          "onset": 22.75,
          "duration": 0.125,
          "velocity": 100
        },
        {
          "pitch": 78,
          "onset": 22.875,
          "duration": 0.125,
          "velocity": 100
        },
        {
          "pitch": 74,
          "onset": 23.0,
          "duration": 1.0,
          "velocity": 100
        },
        {
          "pitch": 79,
          "onset": 23.0,
          "duration": 0.75,
          "velocity": 100
        },
        {
          "pitch": 79,
          "onset": 23.75,
          "duration": 0.25,
          "velocity": 100
        },
        {
          "pitch": 73,
          "onset": 24.0,
          "duration": 0.625,
          "velocity": 100
        },
        {
          "pitch": 79,
          "onset": 24.0,
          "duration": 1.0,
          "velocity": 100
        },
        {
          "pitch": 76,
          "onset": 24.625,
          "duration": 0.125,
          "velocity": 100
        },
        {
          "pitch": 74,
          "onset": 24.75,
          "duration": 0.125,
          "velocity": 100
        },
        {
          "pitch": 73,
          "onset": 24.875,
          "duration": 0.125,
          "velocity": 100
        },
        {
          "pitch": 69,
          "onset": 25.0,
          "duration": 0.75,
          "velocity": 100
        },
        {
          "pitch": 74,
          "onset": 25.0,
          "duration": 0.75,
          "velocity": 100
        },
        {
          "pitch": 78,
          "onset": 25.0,
          "duration": 0.75,
          "velocity": 100
        },
        {
          "pitch": 67,
          "onset": 25.75,
          "duration": 0.25,
          "velocity": 100
        },
        {
          "pitch": 73,
          "onset": 25.75,
          "duration": 0.25,
          "velocity": 100
        },
        {
          "pitch": 76,
          "onset": 25.75,
          "duration": 0.25,
          "velocity": 100
        },
        {
          "pitch": 66,
          "onset": 26.0,
          "duration": 0.75,
          "velocity": 100
        },
        {
          "pitch": 71,
          "onset": 26.0,
          "duration": 1.0,
          "velocity": 100
        },
        {
          "pitch": 74,
          "onset": 26.0,
          "duration": 0.75,
          "velocity": 100
        },
        {
          "pitch": 67,
          "onset": 26.75,
          "duration": 0.25,
          "velocity": 100
        },
        {
          "pitch": 76,
          "onset": 26.75,
          "duration": 0.25,
          "velocity": 100
        },
        {
          "pitch": 64,
          "onset": 27.0,
          "duration": 1.0,
          "velocity": 100
        },
        {
          "pitch": 69,
          "onset": 27.0,
          "duration": 1.0,
          "velocity": 100
        },
        {
          "pitch": 73,
          "onset": 27.0,
          "duration": 0.75,
          "velocity": 100
        },
        {
          "pitch": 73,
          "onset": 27.75,
          "duration": 0.25,
          "velocity": 100
        },
        {
          "pitch": 62,
          "onset": 28.0,
          "duration": 1.0,
          "velocity": 100
        },
        {
          "pitch": 69,
          "onset": 28.0,
          "duration": 1.0,
          "velocity": 100
        },
        {
          "pitch": 73,
          "onset": 28.0,
          "duration": 1.0,
          "velocity": 100
        },
        {
          "pitch": 71,
          "onset": 29.0,
          "duration": 0.875,
          "velocity": 100
        },
        {
          "pitch": 73,
          "onset": 29.125,
          "duration": 0.25,
          "velocity": 100
        },
        {
          "pitch": 74,
          "onset": 29.25,
          "duration": 0.25,
          "velocity": 100
        },
        {
          "pitch": 76,
          "onset": 29.375,
          "duration": 0.25,
          "velocity": 100
        },
        {
          "pitch": 74,
          "onset": 29.5,
          "duration": 0.25,
          "velocity": 100
        },
        {
          "pitch": 73,
          "onset": 29.625,
          "duration": 0.25,
          "velocity": 100
        },
        {
          "pitch": 74,
          "onset": 29.75,
          "duration": 0.25,
          "velocity": 100
        },
        {
          "pitch": 71,
          "onset": 29.875,
          "duration": 1.0938,
          "velocity": 100
        },
        {
          "pitch": 79,
          "onset": 30.0,
          "duration": 0.75,
          "velocity": 100
        },
        {
          "pitch": 79,
          "onset": 30.75,
          "duration": 0.25,
          "velocity": 100
        },
        {
          "pitch": 70,
          "onset": 31.0,
          "duration": 1.0,
          "velocity": 100
        },
        {
          "pitch": 78,
          "onset": 31.0,
          "duration": 0.75,
          "velocity": 100
        },
        {
          "pitch": 76,
          "onset": 31.75,
          "duration": 0.25,
          "velocity": 100
        },
        {
          "pitch": 71,
          "onset": 32.0,
          "duration": 1.0,
          "velocity": 100
        },
        {
          "pitch": 74,
          "onset": 32.0,
          "duration": 1.0,
          "velocity": 100
        },
        {
          "pitch": 83,
          "onset": 33.0,
          "duration": 0.25,
          "velocity": 100
        },
        {
          "pitch": 81,
          "onset": 33.25,
          "duration": 0.25,
          "velocity": 100
        },
        {
          "pitch": 83,
          "onset": 33.5,
          "duration": 0.25,
          "velocity": 100
        },
        {
          "pitch": 80,
          "onset": 33.75,
          "duration": 0.25,
          "velocity": 100
        },
        {
          "pitch": 80,
          "onset": 34.0,
          "duration": 0.25,
          "velocity": 100
        },
        {
          "pitch": 78,
          "onset": 34.25,
          "duration": 0.25,
          "velocity": 100
        },
        {
          "pitch": 80,
          "onset": 34.5,
          "duration": 0.25,
          "velocity": 100
        },
        {
          "pitch": 76,
          "onset": 34.75,
          "duration": 0.25,
          "velocity": 100
        },
        {
          "pitch": 76,
          "onset": 35.0,
          "duration": 0.25,
          "velocity": 100
        },
        {
          "pitch": 74,
          "onset": 35.25,
          "duration": 0.25,
          "velocity": 100
        },
        {
          "pitch": 76,
          "onset": 35.5,
          "duration": 0.25,
          "velocity": 100
        },
        {
          "pitch": 73,
          "onset": 35.75,
          "duration": 0.25,
          "velocity": 100
        },
        {
          "pitch": 64,
          "onset": 36.0,
          "duration": 1.0,
          "velocity": 100
        },
        {
          "pitch": 69,
          "onset": 36.0,
          "duration": 1.0,
          "velocity": 100
        },
        {
          "pitch": 74,
          "onset": 36.0,
          "duration": 0.25,
          "velocity": 100
        },
        {
          "pitch": 73,
          "onset": 36.125,
          "duration": 0.875,
          "velocity": 100
        },
        {
          "pitch": 81,
          "onset": 37.0,
          "duration": 0.25,
          "velocity": 100
        },
        {
          "pitch": 79,
          "onset": 37.25,
          "duration": 0.25,
          "velocity": 100
        },
        {
          "pitch": 81,
          "onset": 37.5,
          "duration": 0.25,
          "velocity": 100
        },
        {
          "pitch": 78,
          "onset": 37.75,
          "duration": 0.25,
          "velocity": 100
        },
        {
          "pitch": 78,
          "onset": 38.0,
          "duration": 0.25,
          "velocity": 100
        },
        {
          "pitch": 76,
          "onset": 38.25,
          "duration": 0.25,
          "velocity": 100
        },
        {
          "pitch": 78,
          "onset": 38.5,
          "duration": 0.25,
          "velocity": 100
        },
        {
          "pitch": 74,
          "onset": 38.75,
          "duration": 0.25,
          "velocity": 100
        },
        {
          "pitch": 74,
          "onset": 39.0,
          "duration": 0.25,
          "velocity": 100
        },
        {
          "pitch": 72,
          "onset": 39.25,
          "duration": 0.25,
          "velocity": 100
        },
        {
          "pitch": 74,
          "onset": 39.5,
          "duration": 0.25,
          "velocity": 100
        },
        {
          "pitch": 71,
          "onset": 39.75,
          "duration": 0.25,
          "velocity": 100
        },
        {
          "pitch": 62,
          "onset": 40.0,
          "duration": 1.0,
          "velocity": 100
        },
        {
          "pitch": 67,
          "onset": 40.0,
          "duration": 1.0,
          "velocity": 100
        },
        {
          "pitch": 71,
          "onset": 40.0,
          "duration": 1.0,
          "velocity": 100
        },
        {
          "pitch": 67,
          "onset": 41.0,
          "duration": 0.25,
          "velocity": 100
        },
        {
          "pitch": 69,
          "onset": 41.125,
          "duration": 0.25,
          "velocity": 100
        },
        {
          "pitch": 71,
          "onset": 41.25,
          "duration": 0.25,
          "velocity": 100
        },
        {
          "pitch": 72,
          "onset": 41.375,
          "duration": 0.25,
          "velocity": 100
        },
        {
          "pitch": 71,
          "onset": 41.5,
          "duration": 0.25,
          "velocity": 100
        },
        {
          "pitch": 69,
          "onset": 41.625,
          "duration": 0.25,
          "velocity": 100
        },
        {
          "pitch": 71,
          "onset": 41.75,
          "duration": 0.25,
          "velocity": 100
        },
        {
          "pitch": 67,
          "onset": 41.875,
          "duration": 0.25,
          "velocity": 100
        },
        {
          "pitch": 76,
          "onset": 42.0,
          "duration": 0.75,
          "velocity": 100
        },
        {
          "pitch": 76,
          "onset": 42.75,
          "duration": 0.25,
          "velocity": 100
        },
        {
          "pitch": 74,
          "onset": 43.0,
          "duration": 0.75,
          "velocity": 100
        },
        {
          "pitch": 72,
          "onset": 43.75,
          "duration": 0.25,
          "velocity": 100
        },
        {
          "pitch": 71,
          "onset": 44.0,
          "duration": 0.75,
          "velocity": 100
        },
        {
          "pitch": 73,
          "onset": 44.75,
          "duration": 0.25,
          "velocity": 100
        },
        {
          "pitch": 74,
          "onset": 45.0,
          "duration": 2.0,
          "velocity": 100
        },
        {
          "pitch": 64,
          "onset": 45.125,
          "duration": 0.25,
          "velocity": 100
        },
        {
          "pitch": 66,
          "onset": 45.25,
          "duration": 0.25,
          "velocity": 100
        },
        {
          "pitch": 67,
          "onset": 45.375,
          "duration": 0.25,
          "velocity": 100
        },
        {
          "pitch": 66,
          "onset": 45.5,
          "duration": 0.25,
          "velocity": 100
        },
        {
          "pitch": 64,
          "onset": 45.625,
          "duration": 0.25,
          "velocity": 100
        },
        {
          "pitch": 66,
          "onset": 45.75,
          "duration": 0.25,
          "velocity": 100
        },
        {
          "pitch": 62,
          "onset": 45.875,
          "duration": 0.25,
          "velocity": 100
        },
        {
          "pitch": 71,
          "onset": 46.0,
          "duration": 0.75,
          "velocity": 100
        },
        {
          "pitch": 71,
          "onset": 46.75,
          "duration": 0.25,
          "velocity": 100
        },
        {
          "pitch": 69,
          "onset": 47.0,
          "duration": 0.75,
          "velocity": 100
        },
        {
          "pitch": 73,
          "onset": 47.0,
          "duration": 1.0,
          "velocity": 100
        },
        {
          "pitch": 67,
          "onset": 47.75,
          "duration": 0.25,
          "velocity": 100
        },
        {
          "pitch": 66,
          "onset": 48.0,
          "duration": 0.75,
          "velocity": 100
        },
        {
          "pitch": 74,
          "onset": 48.0,
          "duration": 1.0,
          "velocity": 100
        },
        {
          "pitch": 69,
          "onset": 48.75,
          "duration": 0.25,
          "velocity": 100
        },
        {
          "pitch": 74,
          "onset": 49.0,
          "duration": 0.875,
          "velocity": 100
        },
        {
          "pitch": 76,
          "onset": 49.125,
          "duration": 0.25,
          "velocity": 100
        },
        {
          "pitch": 78,
          "onset": 49.25,
          "duration": 0.25,
          "velocity": 100
        },
        {
          "pitch": 79,
          "onset": 49.375,
          "duration": 0.25,
          "velocity": 100
        },
        {
          "pitch": 78,
          "onset": 49.5,
          "duration": 0.25,
          "velocity": 100
        },
        {
          "pitch": 76,
          "onset": 49.625,
          "duration": 0.25,
          "velocity": 100
        },
        {
          "pitch": 78,
          "onset": 49.75,
          "duration": 0.25,
          "velocity": 100
        },
        {
          "pitch": 74,
          "onset": 49.875,
          "duration": 1.125,
          "velocity": 100
        },
        {
          "pitch": 83,
          "onset": 50.0,
          "duration": 0.75,
          "velocity": 100
        },
        {
          "pitch": 83,
          "onset": 50.75,
          "duration": 0.25,
          "velocity": 100
        },
        {
          "pitch": 72,
          "onset": 51.0,
          "duration": 2.0,
          "velocity": 100
        },
        {
          "pitch": 81,
          "onset": 51.0,
          "duration": 0.75,
          "velocity": 100
        },
        {
          "pitch": 79,
          "onset": 51.75,
          "duration": 0.25,
          "velocity": 100
        },
        {
          "pitch": 78,
          "onset": 52.0,
          "duration": 0.75,
          "velocity": 100
        },
        {
          "pitch": 74,
          "onset": 52.625,
          "duration": 0.125,
          "velocity": 100
        },
        {
          "pitch": 76,
          "onset": 52.75,
          "duration": 0.125,
          "velocity": 100
        },
        {
          "pitch": 78,
          "onset": 52.875,
          "duration": 0.125,
          "velocity": 100
        },
        {
          "pitch": 71,
          "onset": 53.0,
          "duration": 1.0,
          "velocity": 100
        },
        {
          "pitch": 79,
          "onset": 53.0,
          "duration": 0.75,
          "velocity": 100
        },
        {
          "pitch": 79,
          "onset": 53.75,
          "duration": 0.25,
          "velocity": 100
        },
        {
          "pitch": 69,
          "onset": 54.0,
          "duration": 2.0,
          "velocity": 100
        },
        {
          "pitch": 79,
          "onset": 54.0,
          "duration": 0.75,
          "velocity": 100
        },
        {
          "pitch": 81,
          "onset": 54.75,
          "duration": 0.25,
          "velocity": 100
        },
        {
          "pitch": 78,
          "onset": 55.0,
          "duration": 0.75,
          "velocity": 100
        },
        {
          "pitch": 78,
          "onset": 55.75,
          "duration": 0.25,
          "velocity": 100
        },
        {
          "pitch": 67,
          "onset": 56.0,
          "duration": 1.0,
          "velocity": 100
        },
        {
          "pitch": 78,
          "onset": 56.0,
          "duration": 0.75,
          "velocity": 100
        },
        {
          "pitch": 76,
          "onset": 56.75,
          "duration": 0.125,
          "velocity": 100
        },
        {
          "pitch": 75,
          "onset": 56.875,
          "duration": 0.125,
          "velocity": 100
        },
        {
          "pitch": 67,
          "onset": 57.0,
          "duration": 1.0,
          "velocity": 100
        },
        {
          "pitch": 71,
          "onset": 57.0,
          "duration": 1.0,
          "velocity": 100
        },
        {
          "pitch": 76,
          "onset": 57.0,
          "duration": 1.75,
          "velocity": 100
        },
        {
          "pitch": 66,
          "onset": 58.0,
          "duration": 2.875,
          "velocity": 100
        },
        {
          "pitch": 69,
          "onset": 58.0,
          "duration": 2.875,
          "velocity": 100
        },
        {
          "pitch": 75,
          "onset": 58.75,
          "duration": 0.25,
          "velocity": 100
        },
        {
          "pitch": 76,
          "onset": 59.0,
          "duration": 0.75,
          "velocity": 100
        },
        {
          "pitch": 78,
          "onset": 59.75,
          "duration": 0.25,
          "velocity": 100
        },
        {
          "pitch": 71,
          "onset": 60.0,
          "duration": 0.75,
          "velocity": 100
        },
        {
          "pitch": 72,
          "onset": 60.75,
          "duration": 0.125,
          "velocity": 100
        },
        {
          "pitch": 69,
          "onset": 60.875,
          "duration": 0.125,
          "velocity": 100
        },
        {
          "pitch": 64,
          "onset": 61.0,
          "duration": 0.75,
          "velocity": 100
        },
        {
          "pitch": 67,
          "onset": 61.0,
          "duration": 0.75,
          "velocity": 100
        },
        {
          "pitch": 71,
          "onset": 61.0,
          "duration": 0.75,
          "velocity": 100
        },
        {
          "pitch": 64,
          "onset": 61.75,
          "duration": 0.25,
          "velocity": 100
        },
        {
          "pitch": 72,
          "onset": 61.75,
          "duration": 0.25,
          "velocity": 100
        },
        {
          "pitch": 64,
          "onset": 62.0,
          "duration": 1.0,
          "velocity": 100
        },
        {
          "pitch": 67,
          "onset": 62.0,
          "duration": 1.0,
          "velocity": 100
        },
        {
          "pitch": 63,
          "onset": 63.0,
          "duration": 1.0,
          "velocity": 100
        },
        {
          "pitch": 66,
          "onset": 63.0,
          "duration": 1.0,
          "velocity": 100
        },
        {
          "pitch": 64,
          "onset": 64.0,
          "duration": 0.875,
          "velocity": 100
        },
        {
          "pitch": 66,
          "onset": 64.125,
          "duration": 0.25,
          "velocity": 100
        },
        {
          "pitch": 67,
          "onset": 64.25,
          "duration": 0.25,
          "velocity": 100
        },
        {
          "pitch": 69,
          "onset": 64.375,
          "duration": 0.25,
          "velocity": 100
        },
        {
          "pitch": 67,
          "onset": 64.5,
          "duration": 0.25,
          "velocity": 100
        },
        {
          "pitch": 66,
          "onset": 64.625,
          "duration": 0.25,
          "velocity": 100
        },
        {
          "pitch": 67,
          "onset": 64.75,
          "duration": 0.25,
          "velocity": 100
        },
        {
          "pitch": 64,
          "onset": 64.875,
          "duration": 0.25,
          "velocity": 100
        },
        {
          "pitch": 79,
          "onset": 65.0,
          "duration": 0.5,
          "velocity": 100
        },
        {
          "pitch": 59,
          "onset": 66.0,
          "duration": 0.75,
          "velocity": 100
        },
        {
          "pitch": 64,
          "onset": 66.0,
          "duration": 0.75,
          "velocity": 100
        },
        {
          "pitch": 55,
          "onset": 66.75,
          "duration": 0.25,
          "velocity": 100
        },
        {
          "pitch": 61,
          "onset": 66.75,
          "duration": 0.25,
          "velocity": 100
        },
        {
          "pitch": 55,
          "onset": 67.0,
          "duration": 0.75,
          "velocity": 100
        },
        {
          "pitch": 61,
          "onset": 67.0,
          "duration": 0.75,
          "velocity": 100
        },
        {
          "pitch": 52,
          "onset": 67.75,
          "duration": 0.25,
          "velocity": 100
        },
        {
          "pitch": 57,
          "onset": 67.75,
          "duration": 0.25,
          "velocity": 100
        },
        {
          "pitch": 69,
          "onset": 68.0,
          "duration": 0.25,
          "velocity": 100
        },
        {
          "pitch": 71,
          "onset": 68.125,
          "duration": 0.25,
          "velocity": 100
        },
        {
          "pitch": 73,
          "onset": 68.25,
          "duration": 0.25,
          "velocity": 100
        },
        {
          "pitch": 74,
          "onset": 68.375,
          "duration": 0.25,
          "velocity": 100
        },
        {
          "pitch": 73,
          "onset": 68.5,
          "duration": 0.25,
          "velocity": 100
        },
        {
          "pitch": 71,
          "onset": 68.625,
          "duration": 0.25,
          "velocity": 100
        },
        {
          "pitch": 73,
          "onset": 68.75,
          "duration": 0.25,
          "velocity": 100
        },
        {
          "pitch": 69,
          "onset": 68.875,
          "duration": 0.25,
          "velocity": 100
        },
        {
          "pitch": 78,
          "onset": 69.0,
          "duration": 0.5,
          "velocity": 100
        },
        {
          "pitch": 57,
          "onset": 70.0,
          "duration": 0.75,
          "velocity": 100
        },
        {
          "pitch": 62,
          "onset": 70.0,
          "duration": 0.75,
          "velocity": 100
        },
        {
          "pitch": 54,
          "onset": 70.75,
          "duration": 0.25,
          "velocity": 100
        },
        {
          "pitch": 59,
          "onset": 70.75,
          "duration": 0.25,
          "velocity": 100
        },
        {
          "pitch": 54,
          "onset": 71.0,
          "duration": 0.75,
          "velocity": 100
        },
        {
          "pitch": 59,
          "onset": 71.0,
          "duration": 0.75,
          "velocity": 100
        },
        {
          "pitch": 50,
          "onset": 71.75,
          "duration": 0.25,
          "velocity": 100
        },
        {
          "pitch": 55,
          "onset": 71.75,
          "duration": 0.25,
          "velocity": 100
        },
        {
          "pitch": 67,
          "onset": 72.0,
          "duration": 0.25,
          "velocity": 100
        },
        {
          "pitch": 69,
          "onset": 72.125,
          "duration": 0.25,
          "velocity": 100
        },
        {
          "pitch": 71,
          "onset": 72.25,
          "duration": 0.25,
          "velocity": 100
        },
        {
          "pitch": 73,
          "onset": 72.375,
          "duration": 0.25,
          "velocity": 100
        },
        {
          "pitch": 71,
          "onset": 72.5,
          "duration": 0.25,
          "velocity": 100
        },
        {
          "pitch": 69,
          "onset": 72.625,
          "duration": 0.25,
          "velocity": 100
        },
        {
          "pitch": 71,
          "onset": 72.75,
          "duration": 0.25,
          "velocity": 100
        },
        {
          "pitch": 67,
          "onset": 72.875,
          "duration": 0.25,
          "velocity": 100
        },
        {
          "pitch": 76,
          "onset": 73.0,
          "duration": 0.5,
          "velocity": 100
        },
        {
          "pitch": 55,
          "onset": 74.0,
          "duration": 0.75,
          "velocity": 100
        },
        {
          "pitch": 61,
          "onset": 74.0,
          "duration": 0.75,
          "velocity": 100
        },
        {
          "pitch": 52,
          "onset": 74.75,
          "duration": 0.25,
          "velocity": 100
        },
        {
          "pitch": 57,
          "onset": 74.75,
          "duration": 0.25,
          "velocity": 100
        },
        {
          "pitch": 52,
          "onset": 75.0,
          "duration": 0.75,
          "velocity": 100
        },
        {
          "pitch": 57,
          "onset": 75.0,
          "duration": 0.75,
          "velocity": 100
        },
        {
          "pitch": 49,
          "onset": 75.75,
          "duration": 0.25,
          "velocity": 100
        },
        {
          "pitch": 54,
          "onset": 75.75,
          "duration": 0.25,
          "velocity": 100
        },
        {
          "pitch": 66,
          "onset": 76.0,
          "duration": 0.25,
          "velocity": 100
        },
        {
          "pitch": 67,
          "onset": 76.125,
          "duration": 0.25,
          "velocity": 100
        },
        {
          "pitch": 69,
          "onset": 76.25,
          "duration": 0.25,
          "velocity": 100
        },
        {
          "pitch": 71,
          "onset": 76.375,
          "duration": 0.25,
          "velocity": 100
        },
        {
          "pitch": 69,
          "onset": 76.5,
          "duration": 0.25,
          "velocity": 100
        },
        {
          "pitch": 67,
          "onset": 76.625,
          "duration": 0.25,
          "velocity": 100
        },
        {
          "pitch": 69,
          "onset": 76.75,
          "duration": 0.25,
          "velocity": 100
        },
        {
          "pitch": 66,
          "onset": 76.875,
          "duration": 0.25,
          "velocity": 100
        },
        {
          "pitch": 74,
          "onset": 77.0,
          "duration": 0.75,
          "velocity": 100
        },
        {
          "pitch": 74,
          "onset": 77.75,
          "duration": 0.25,
          "velocity": 100
        },
        {
          "pitch": 67,
          "onset": 78.0,
          "duration": 2.0,
          "velocity": 100
        },
        {
          "pitch": 74,
          "onset": 78.0,
          "duration": 0.75,
          "velocity": 100
        },
        {
          "pitch": 76,
          "onset": 78.75,
          "duration": 0.25,
          "velocity": 100
        },
        {
          "pitch": 73,
          "onset": 79.0,
          "duration": 0.1562,
          "velocity": 100
        },
        {
          "pitch": 74,
          "onset": 79.0938,
          "duration": 0.1562,
          "velocity": 100
        },
        {
          "pitch": 73,
          "onset": 79.1562,
          "duration": 0.1562,
          "velocity": 100
        },
        {
          "pitch": 74,
          "onset": 79.25,
          "duration": 0.1562,
          "velocity": 100
        },
        {
          "pitch": 73,
          "onset": 79.3438,
          "duration": 0.1562,
          "velocity": 100
        },
        {
          "pitch": 74,
          "onset": 79.4062,
          "duration": 0.1562,
          "velocity": 100
        },
        {
          "pitch": 73,
          "onset": 79.5,
          "duration": 0.1562,
          "velocity": 100
        },
        {
          "pitch": 74,
          "onset": 79.5938,
          "duration": 0.1562,
          "velocity": 100
        },
        {
          "pitch": 73,
          "onset": 79.6562,
          "duration": 0.1562,
          "velocity": 100
        },
        {
          "pitch": 74,
          "onset": 79.75,
          "duration": 0.25,
          "velocity": 100
        },
        {
          "pitch": 76,
          "onset": 79.875,
          "duration": 0.125,
          "velocity": 100
        },
        {
          "pitch": 66,
          "onset": 80.0,
          "duration": 1.0,
          "velocity": 100
        },
        {
          "pitch": 78,
          "onset": 80.0,
          "duration": 1.0,
          "velocity": 100
        },
        {
          "pitch": 83,
          "onset": 81.0,
          "duration": 0.25,
          "velocity": 100
        },
        {
          "pitch": 81,
          "onset": 81.25,
          "duration": 0.25,
          "velocity": 100
        },
        {
          "pitch": 83,
          "onset": 81.5,
          "duration": 0.25,
          "velocity": 100
        },
        {
          "pitch": 79,
          "onset": 81.75,
          "duration": 0.25,
          "velocity": 100
        },
        {
          "pitch": 79,
          "onset": 82.0,
          "duration": 0.25,
          "velocity": 100
        },
        {
          "pitch": 78,
          "onset": 82.25,
          "duration": 0.25,
          "velocity": 100
        },
        {
          "pitch": 79,
          "onset": 82.5,
          "duration": 0.25,
          "velocity": 100
        },
        {
          "pitch": 76,
          "onset": 82.75,
          "duration": 0.25,
          "velocity": 100
        },
        {
          "pitch": 76,
          "onset": 83.0,
          "duration": 0.25,
          "velocity": 100
        },
        {
          "pitch": 74,
          "onset": 83.25,
          "duration": 0.25,
          "velocity": 100
        },
        {
          "pitch": 76,
          "onset": 83.5,
          "duration": 0.25,
          "velocity": 100
        },
        {
          "pitch": 73,
          "onset": 83.75,
          "duration": 0.25,
          "velocity": 100
        },
        {
          "pitch": 64,
          "onset": 84.0,
          "duration": 1.0,
          "velocity": 100
        },
        {
          "pitch": 69,
          "onset": 84.0,
          "duration": 1.0,
          "velocity": 100
        },
        {
          "pitch": 73,
          "onset": 84.0,
          "duration": 1.0,
          "velocity": 100
        },
        {
          "pitch": 66,
          "onset": 85.0,
          "duration": 0.75,
          "velocity": 100
        },
        {
          "pitch": 69,
          "onset": 85.0,
          "duration": 0.75,
          "velocity": 100
        },
        {
          "pitch": 74,
          "onset": 85.0,
          "duration": 0.75,
          "velocity": 100
        },
        {
          "pitch": 66,
          "onset": 85.75,
          "duration": 0.25,
          "velocity": 100
        },
        {
          "pitch": 69,
          "onset": 85.75,
          "duration": 0.25,
          "velocity": 100
        },
        {
          "pitch": 74,
          "onset": 85.75,
          "duration": 0.25,
          "velocity": 100
        },
        {
          "pitch": 66,
          "onset": 86.0,
          "duration": 0.875,
          "velocity": 100
        },
        {
          "pitch": 71,
          "onset": 86.0,
          "duration": 0.875,
          "velocity": 100
        },
        {
          "pitch": 74,
          "onset": 86.0,
          "duration": 0.875,
          "velocity": 100
        },
        {
          "pitch": 67,
          "onset": 86.875,
          "duration": 0.125,
          "velocity": 100
        },
        {
          "pitch": 71,
          "onset": 86.875,
          "duration": 0.125,
          "velocity": 100
        },
        {
          "pitch": 76,
          "onset": 86.875,
          "duration": 0.125,
          "velocity": 100
        },
        {
          "pitch": 64,
          "onset": 87.0,
          "duration": 1.0,
          "velocity": 100
        },
        {
          "pitch": 69,
          "onset": 87.0,
          "duration": 1.0,
          "velocity": 100
        },
        {
          "pitch": 74,
          "onset": 87.0,
          "duration": 0.25,
          "velocity": 100
        },
        {
          "pitch": 73,
          "onset": 87.125,
          "duration": 0.25,
          "velocity": 100
        },
        {
          "pitch": 71,
          "onset": 87.25,
          "duration": 0.25,
          "velocity": 100
        },
        {
          "pitch": 73,
          "onset": 87.375,
          "duration": 0.25,
          "velocity": 100
        },
        {
          "pitch": 74,
          "onset": 87.5,
          "duration": 0.25,
          "velocity": 100
        },
        {
          "pitch": 73,
          "onset": 87.625,
          "duration": 0.25,
          "velocity": 100
        },
        {
          "pitch": 74,
          "onset": 87.875,
          "duration": 0.125,
          "velocity": 100
        },
        {
          "pitch": 66,
          "onset": 88.0,
          "duration": 1.0,
          "velocity": 100
        },
        {
          "pitch": 69,
          "onset": 88.0,
          "duration": 1.0,
          "velocity": 100
        },
        {
          "pitch": 74,
          "onset": 88.0,
          "duration": 1.0,
          "velocity": 100
        },
        {
          "pitch": 71,
          "onset": 89.0,
          "duration": 0.25,
          "velocity": 100
        },
        {
          "pitch": 73,
          "onset": 89.125,
          "duration": 0.25,
          "velocity": 100
        },
        {
          "pitch": 74,
          "onset": 89.25,
          "duration": 0.25,
          "velocity": 100
        },
        {
          "pitch": 76,
          "onset": 89.375,
          "duration": 0.25,
          "velocity": 100
        },
        {
          "pitch": 74,
          "onset": 89.5,
          "duration": 0.25,
          "velocity": 100
        },
        {
          "pitch": 73,
          "onset": 89.625,
          "duration": 0.25,
          "velocity": 100
        },
        {
          "pitch": 74,
          "onset": 89.75,
          "duration": 0.25,
          "velocity": 100
        },
        {
          "pitch": 71,
          "onset": 89.875,
          "duration": 0.125,
          "velocity": 100
        },
        {
          "pitch": 64,
          "onset": 90.0,
          "duration": 1.0,
          "velocity": 100
        },
        {
          "pitch": 71,
          "onset": 90.0,
          "duration": 1.0,
          "velocity": 100
        },
        {
          "pitch": 76,
          "onset": 90.0,
          "duration": 1.0,
          "velocity": 100
        },
        {
          "pitch": 69,
          "onset": 91.0,
          "duration": 0.25,
          "velocity": 100
        },
        {
          "pitch": 71,
          "onset": 91.125,
          "duration": 0.25,
          "velocity": 100
        },
        {
          "pitch": 73,
          "onset": 91.25,
          "duration": 0.25,
          "velocity": 100
        },
        {
          "pitch": 74,
          "onset": 91.375,
          "duration": 0.25,
          "velocity": 100
        },
        {
          "pitch": 73,
          "onset": 91.5,
          "duration": 0.25,
          "velocity": 100
        },
        {
          "pitch": 71,
          "onset": 91.625,
          "duration": 0.25,
          "velocity": 100
        },
        {
          "pitch": 73,
          "onset": 91.75,
          "duration": 0.25,
          "velocity": 100
        },
        {
          "pitch": 69,
          "onset": 91.875,
          "duration": 0.125,
          "velocity": 100
        },
        {
          "pitch": 62,
          "onset": 92.0,
          "duration": 1.0,
          "velocity": 100
        },
        {
          "pitch": 69,
          "onset": 92.0,
          "duration": 1.0,
          "velocity": 100
        },
        {
          "pitch": 74,
          "onset": 92.0,
          "duration": 1.0,
          "velocity": 100
        },
        {
          "pitch": 67,
          "onset": 93.0,
          "duration": 0.25,
          "velocity": 100
        },
        {
          "pitch": 69,
          "onset": 93.125,
          "duration": 0.25,
          "velocity": 100
        },
        {
          "pitch": 71,
          "onset": 93.25,
          "duration": 0.25,
          "velocity": 100
        },
        {
          "pitch": 72,
          "onset": 93.375,
          "duration": 0.25,
          "velocity": 100
        },
        {
          "pitch": 71,
          "onset": 93.5,
          "duration": 0.25,
          "velocity": 100
        },
        {
          "pitch": 69,
          "onset": 93.625,
          "duration": 0.25,
          "velocity": 100
        },
        {
          "pitch": 71,
          "onset": 93.75,
          "duration": 0.25,
          "velocity": 100
        },
        {
          "pitch": 67,
          "onset": 93.875,
          "duration": 0.25,
          "velocity": 100
        },
        {
          "pitch": 73,
          "onset": 94.0,
          "duration": 0.25,
          "velocity": 100
        },
        {
          "pitch": 74,
          "onset": 94.125,
          "duration": 0.25,
          "velocity": 100
        },
        {
          "pitch": 76,
          "onset": 94.25,
          "duration": 0.25,
          "velocity": 100
        },
        {
          "pitch": 78,
          "onset": 94.375,
          "duration": 0.25,
          "velocity": 100
        },
        {
          "pitch": 76,
          "onset": 94.5,
          "duration": 0.25,
          "velocity": 100
        },
        {
          "pitch": 74,
          "onset": 94.625,
          "duration": 0.25,
          "velocity": 100
        },
        {
          "pitch": 76,
          "onset": 94.75,
          "duration": 0.25,
          "velocity": 100
        },
        {
          "pitch": 73,
          "onset": 94.875,
          "duration": 0.25,
          "velocity": 100
        },
        {
          "pitch": 78,
          "onset": 95.0,
          "duration": 0.25,
          "velocity": 100
        },
        {
          "pitch": 79,
          "onset": 95.125,
          "duration": 0.25,
          "velocity": 100
        },
        {
          "pitch": 81,
          "onset": 95.25,
          "duration": 0.25,
          "velocity": 100
        },
        {
          "pitch": 83,
          "onset": 95.375,
          "duration": 0.25,
          "velocity": 100
        },
        {
          "pitch": 81,
          "onset": 95.5,
          "duration": 0.25,
          "velocity": 100
        },
        {
          "pitch": 79,
          "onset": 95.625,
          "duration": 0.25,
          "velocity": 100
        },
        {
          "pitch": 81,
          "onset": 95.75,
          "duration": 0.25,
          "velocity": 100
        },
        {
          "pitch": 78,
          "onset": 95.875,
          "duration": 0.125,
          "velocity": 100
        },
        {
          "pitch": 83,
          "onset": 96.0,
          "duration": 0.75,
          "velocity": 100
        },
        {
          "pitch": 64,
          "onset": 96.75,
          "duration": 0.25,
          "velocity": 100
        },
        {
          "pitch": 69,
          "onset": 96.75,
          "duration": 0.25,
          "velocity": 100
        },
        {
          "pitch": 73,
          "onset": 96.75,
          "duration": 0.25,
          "velocity": 100
        },
        {
          "pitch": 66,
          "onset": 97.0,
          "duration": 0.75,
          "velocity": 100
        },
        {
          "pitch": 69,
          "onset": 97.0,
          "duration": 0.75,
          "velocity": 100
        },
        {
          "pitch": 74,
          "onset": 97.0,
          "duration": 0.75,
          "velocity": 100
        },
        {
          "pitch": 67,
          "onset": 97.75,
          "duration": 0.25,
          "velocity": 100
        },
        {
          "pitch": 73,
          "onset": 97.75,
          "duration": 0.25,
          "velocity": 100
        },
        {
          "pitch": 76,
          "onset": 97.75,
          "duration": 0.25,
          "velocity": 100
        },
        {
          "pitch": 69,
          "onset": 98.0,
          "duration": 0.75,
          "velocity": 100
        },
        {
          "pitch": 74,
          "onset": 98.0,
          "duration": 0.75,
          "velocity": 100
        },
        {
          "pitch": 78,
          "onset": 98.0,
          "duration": 0.75,
          "velocity": 100
        },
        {
          "pitch": 57,
          "onset": 98.75,
          "duration": 0.25,
          "velocity": 100
        },
        {
          "pitch": 62,
          "onset": 98.75,
          "duration": 0.25,
          "velocity": 100
        },
        {
          "pitch": 66,
          "onset": 98.75,
          "duration": 0.25,
          "velocity": 100
        },
        {
          "pitch": 59,
          "onset": 99.0,
          "duration": 0.75,
          "velocity": 100
        },
        {
          "pitch": 62,
          "onset": 99.0,
          "duration": 0.75,
          "velocity": 100
        },
        {
          "pitch": 67,
          "onset": 99.0,
          "duration": 0.75,
          "velocity": 100
        },
        {
          "pitch": 60,
          "onset": 99.75,
          "duration": 0.25,
          "velocity": 100
        },
        {
          "pitch": 66,
          "onset": 99.75,
          "duration": 0.25,
          "velocity": 100
        },
        {
          "pitch": 69,
          "onset": 99.75,
          "duration": 0.25,
          "velocity": 100
        },
        {
          "pitch": 62,
          "onset": 100.0,
          "duration": 0.75,
          "velocity": 100
        },
        {
          "pitch": 67,
          "onset": 100.0,
          "duration": 0.75,
          "velocity": 100
        },
        {
          "pitch": 71,
          "onset": 100.0,
          "duration": 0.75,
          "velocity": 100
        },
        {
          "pitch": 62,
          "onset": 100.75,
          "duration": 0.25,
          "velocity": 100
        },
        {
          "pitch": 67,
          "onset": 100.75,
          "duration": 0.25,
          "velocity": 100
        },
        {
          "pitch": 71,
          "onset": 100.75,
          "duration": 0.25,
          "velocity": 100
        },
        {
          "pitch": 64,
          "onset": 101.0,
          "duration": 0.75,
          "velocity": 100
        },
        {
          "pitch": 67,
          "onset": 101.0,
          "duration": 0.75,
          "velocity": 100
        },
        {
          "pitch": 73,
          "onset": 101.0,
          "duration": 0.75,
          "velocity": 100
        },
        {
          "pitch": 66,
          "onset": 101.75,
          "duration": 0.25,
          "velocity": 100
        },
        {
          "pitch": 69,
          "onset": 101.75,
          "duration": 0.25,
          "velocity": 100
        },
        {
          "pitch": 74,
          "onset": 101.75,
          "duration": 0.25,
          "velocity": 100
        },
        {
          "pitch": 57,
          "onset": 102.0,
          "duration": 1.0,
          "velocity": 100
        },
        {
          "pitch": 62,
          "onset": 102.0,
          "duration": 1.0,
          "velocity": 100
        },
        {
          "pitch": 66,
          "onset": 102.0,
          "duration": 1.0,
          "velocity": 100
        },
        {
          "pitch": 55,
          "onset": 103.0,
          "duration": 1.0,
          "velocity": 100
        },
        {
          "pitch": 61,
          "onset": 103.0,
          "duration": 1.0,
          "velocity": 100
        },
        {
          "pitch": 64,
          "onset": 103.0,
          "duration": 1.0,
          "velocity": 100
        },
        {
          "pitch": 54,
          "onset": 104.0,
          "duration": 4.0,
          "velocity": 100
        },
        {
          "pitch": 57,
          "onset": 104.0,
          "duration": 4.0,
          "velocity": 100
        },
        {
          "pitch": 62,
          "onset": 104.0,
          "duration": 4.0,
          "velocity": 100
        },
        {
          "pitch": 62,
          "onset": 110.375,
          "duration": 0.25,
          "velocity": 1
        }
      ]
    },
    {
      "role": "lower",
      "notes": [
        {
          "pitch": 50,
          "onset": 1.0,
          "duration": 0.25,
          "velocity": 100
        },
        {
          "pitch": 52,
          "onset": 1.125,
          "duration": 0.25,
          "velocity": 100
        },
        {
          "pitch": 54,
          "onset": 1.25,
          "duration": 0.25,
          "velocity": 100
        },
        {
          "pitch": 55,
          "onset": 1.375,
          "duration": 0.25,
          "velocity": 100
        },
        {
          "pitch": 54,
          "onset": 1.5,
          "duration": 0.25,
          "velocity": 100
        },
        {
          "pitch": 52,
          "onset": 1.625,
          "duration": 0.25,
          "velocity": 100
        },
        {
          "pitch": 54,
          "onset": 1.75,
          "duration": 0.25,
          "velocity": 100
        },
        {
          "pitch": 50,
          "onset": 1.875,
          "duration": 0.25,
          "velocity": 100
        },
        {
          "pitch": 59,
          "onset": 2.0,
          "duration": 0.75,
          "velocity": 100
        },
        {
          "pitch": 59,
          "onset": 2.75,
          "duration": 0.25,
          "velocity": 100
        },
        {
          "pitch": 57,
          "onset": 3.0,
          "duration": 0.75,
          "velocity": 100
        },
        {
          "pitch": 55,
          "onset": 3.75,
          "duration": 0.25,
          "velocity": 100
        },
        {
          "pitch": 54,
          "onset": 4.0,
          "duration": 0.75,
          "velocity": 100
        },
        {
          "pitch": 55,
          "onset": 4.75,
          "duration": 0.25,
          "velocity": 100
        },
        {
          "pitch": 54,
          "onset": 5.0,
          "duration": 0.75,
          "velocity": 100
        },
        {
          "pitch": 52,
          "onset": 5.75,
          "duration": 0.25,
          "velocity": 100
        },
        {
          "pitch": 50,
          "onset": 6.0,
          "duration": 1.0,
          "velocity": 100
        },
        {
          "pitch": 52,
          "onset": 7.0,
          "duration": 1.0,
          "velocity": 100
        },
        {
          "pitch": 45,
          "onset": 8.0,
          "duration": 0.625,
          "velocity": 100
        },
        {
          "pitch": 52,
          "onset": 8.625,
          "duration": 0.25,
          "velocity": 100
        },
        {
          "pitch": 54,
          "onset": 8.75,
          "duration": 0.25,
          "velocity": 100
        },
        {
          "pitch": 55,
          "onset": 8.875,
          "duration": 0.25,
          "velocity": 100
        },
        {
          "pitch": 57,
          "onset": 9.0,
          "duration": 2.0,
          "velocity": 100
        },
        {
          "pitch": 55,
          "onset": 11.0,
          "duration": 1.75,
          "velocity": 100
        },
        {
          "pitch": 54,
          "onset": 12.75,
          "duration": 0.25,
          "velocity": 100
        },
        {
          "pitch": 52,
          "onset": 12.875,
          "duration": 0.25,
          "velocity": 100
        },
        {
          "pitch": 54,
          "onset": 13.0,
          "duration": 0.75,
          "velocity": 100
        },
        {
          "pitch": 50,
          "onset": 13.75,
          "duration": 0.25,
          "velocity": 100
        },
        {
          "pitch": 55,
          "onset": 14.0,
          "duration": 0.75,
          "velocity": 100
        },
        {
          "pitch": 52,
          "onset": 14.75,
          "duration": 0.25,
          "velocity": 100
        },
        {
          "pitch": 57,
          "onset": 15.0,
          "duration": 0.75,
          "velocity": 100
        },
        {
          "pitch": 45,
          "onset": 15.75,
          "duration": 0.25,
          "velocity": 100
        },
        {
          "pitch": 50,
          "onset": 16.0,
          "duration": 0.75,
          "velocity": 100
        },
        {
          "pitch": 52,
          "onset": 16.75,
          "duration": 0.25,
          "velocity": 100
        },
        {
          "pitch": 54,
          "onset": 17.0,
          "duration": 0.75,
          "velocity": 100
        },
        {
          "pitch": 61,
          "onset": 17.0,
          "duration": 1.0,
          "velocity": 100
        },
        {
          "pitch": 52,
          "onset": 17.75,
          "duration": 0.25,
          "velocity": 100
        },
        {
          "pitch": 50,
          "onset": 18.0,
          "duration": 0.75,
          "velocity": 100
        },
        {
          "pitch": 59,
          "onset": 18.0,
          "duration": 2.0,
          "velocity": 100
        },
        {
          "pitch": 47,
          "onset": 18.75,
          "duration": 0.25,
          "velocity": 100
        },
        {
          "pitch": 52,
          "onset": 19.0,
          "duration": 1.0,
          "velocity": 100
        },
        {
          "pitch": 45,
          "onset": 20.0,
          "duration": 1.0,
          "velocity": 100
        },
        {
          "pitch": 57,
          "onset": 20.0,
          "duration": 1.0,
          "velocity": 100
        },
        {
          "pitch": 66,
          "onset": 21.0,
          "duration": 0.25,
          "velocity": 100
        },
        {
          "pitch": 67,
          "onset": 21.125,
          "duration": 0.25,
          "velocity": 100
        },
        {
          "pitch": 69,
          "onset": 21.25,
          "duration": 0.25,
          "velocity": 100
        },
        {
          "pitch": 71,
          "onset": 21.375,
          "duration": 0.25,
          "velocity": 100
        },
        {
          "pitch": 69,
          "onset": 21.5,
          "duration": 0.25,
          "velocity": 100
        },
        {
          "pitch": 67,
          "onset": 21.625,
          "duration": 0.25,
          "velocity": 100
        },
        {
          "pitch": 69,
          "onset": 21.75,
          "duration": 0.25,
          "velocity": 100
        },
        {
          "pitch": 66,
          "onset": 21.875,
          "duration": 0.25,
          "velocity": 100
        },
        {
          "pitch": 71,
          "onset": 22.0,
          "duration": 1.0,
          "velocity": 100
        },
        {
          "pitch": 64,
          "onset": 23.0,
          "duration": 0.25,
          "velocity": 100
        },
        {
          "pitch": 66,
          "onset": 23.125,
          "duration": 0.25,
          "velocity": 100
        },
        {
          "pitch": 67,
          "onset": 23.25,
          "duration": 0.25,
          "velocity": 100
        },
        {
          "pitch": 69,
          "onset": 23.375,
          "duration": 0.25,
          "velocity": 100
        },
        {
          "pitch": 67,
          "onset": 23.5,
          "duration": 0.25,
          "velocity": 100
        },
        {
          "pitch": 66,
          "onset": 23.625,
          "duration": 0.25,
          "velocity": 100
        },
        {
          "pitch": 67,
          "onset": 23.75,
          "duration": 0.25,
          "velocity": 100
        },
        {
          "pitch": 64,
          "onset": 23.875,
          "duration": 0.125,
          "velocity": 100
        },
        {
          "pitch": 69,
          "onset": 24.0,
          "duration": 1.0,
          "velocity": 100
        },
        {
          "pitch": 59,
          "onset": 25.0,
          "duration": 0.25,
          "velocity": 100
        },
        {
          "pitch": 61,
          "onset": 25.125,
          "duration": 0.25,
          "velocity": 100
        },
        {
          "pitch": 62,
          "onset": 25.25,
          "duration": 0.25,
          "velocity": 100
        },
        {
          "pitch": 64,
          "onset": 25.375,
          "duration": 0.25,
          "velocity": 100
        },
        {
          "pitch": 62,
          "onset": 25.5,
          "duration": 0.25,
          "velocity": 100
        },
        {
          "pitch": 61,
          "onset": 25.625,
          "duration": 0.25,
          "velocity": 100
        },
        {
          "pitch": 62,
          "onset": 25.75,
          "duration": 0.25,
          "velocity": 100
        },
        {
          "pitch": 59,
          "onset": 25.875,
          "duration": 0.25,
          "velocity": 100
        },
        {
          "pitch": 47,
          "onset": 26.0,
          "duration": 0.75,
          "velocity": 100
        },
        {
          "pitch": 47,
          "onset": 26.75,
          "duration": 0.25,
          "velocity": 100
        },
        {
          "pitch": 45,
          "onset": 27.0,
          "duration": 0.75,
          "velocity": 100
        },
        {
          "pitch": 43,
          "onset": 27.75,
          "duration": 0.25,
          "velocity": 100
        },
        {
          "pitch": 42,
          "onset": 28.0,
          "duration": 0.625,
          "velocity": 100
        },
        {
          "pitch": 50,
          "onset": 28.625,
          "duration": 0.125,
          "velocity": 100
        },
        {
          "pitch": 52,
          "onset": 28.75,
          "duration": 0.125,
          "velocity": 100
        },
        {
          "pitch": 54,
          "onset": 28.875,
          "duration": 0.125,
          "velocity": 100
        },
        {
          "pitch": 55,
          "onset": 29.0,
          "duration": 0.75,
          "velocity": 100
        },
        {
          "pitch": 62,
          "onset": 29.0,
          "duration": 1.0,
          "velocity": 100
        },
        {
          "pitch": 54,
          "onset": 29.75,
          "duration": 0.25,
          "velocity": 100
        },
        {
          "pitch": 52,
          "onset": 30.0,
          "duration": 0.75,
          "velocity": 100
        },
        {
          "pitch": 61,
          "onset": 30.0,
          "duration": 2.0,
          "velocity": 100
        },
        {
          "pitch": 49,
          "onset": 30.75,
          "duration": 0.25,
          "velocity": 100
        },
        {
          "pitch": 54,
          "onset": 31.0,
          "duration": 1.0,
          "velocity": 100
        },
        {
          "pitch": 47,
          "onset": 32.0,
          "duration": 0.25,
          "velocity": 100
        },
        {
          "pitch": 59,
          "onset": 32.0,
          "duration": 1.0,
          "velocity": 100
        },
        {
          "pitch": 49,
          "onset": 32.125,
          "duration": 0.25,
          "velocity": 100
        },
        {
          "pitch": 50,
          "onset": 32.25,
          "duration": 0.25,
          "velocity": 100
        },
        {
          "pitch": 52,
          "onset": 32.375,
          "duration": 0.25,
          "velocity": 100
        },
        {
          "pitch": 50,
          "onset": 32.5,
          "duration": 0.25,
          "velocity": 100
        },
        {
          "pitch": 49,
          "onset": 32.625,
          "duration": 0.25,
          "velocity": 100
        },
        {
          "pitch": 50,
          "onset": 32.75,
          "duration": 0.25,
          "velocity": 100
        },
        {
          "pitch": 47,
          "onset": 32.875,
          "duration": 0.25,
          "velocity": 100
        },
        {
          "pitch": 56,
          "onset": 33.0,
          "duration": 0.25,
          "velocity": 100
        },
        {
          "pitch": 71,
          "onset": 34.0,
          "duration": 0.75,
          "velocity": 100
        },
        {
          "pitch": 74,
          "onset": 34.0,
          "duration": 0.75,
          "velocity": 100
        },
        {
          "pitch": 68,
          "onset": 34.75,
          "duration": 0.25,
          "velocity": 100
        },
        {
          "pitch": 71,
          "onset": 34.75,
          "duration": 0.25,
          "velocity": 100
        },
        {
          "pitch": 68,
          "onset": 35.0,
          "duration": 0.75,
          "velocity": 100
        },
        {
          "pitch": 71,
          "onset": 35.0,
          "duration": 0.75,
          "velocity": 100
        },
        {
          "pitch": 64,
          "onset": 35.75,
          "duration": 0.25,
          "velocity": 100
        },
        {
          "pitch": 69,
          "onset": 35.75,
          "duration": 0.25,
          "velocity": 100
        },
        {
          "pitch": 45,
          "onset": 36.0,
          "duration": 0.25,
          "velocity": 100
        },
        {
          "pitch": 47,
          "onset": 36.125,
          "duration": 0.25,
          "velocity": 100
        },
        {
          "pitch": 49,
          "onset": 36.25,
          "duration": 0.25,
          "velocity": 100
        },
        {
          "pitch": 50,
          "onset": 36.375,
          "duration": 0.25,
          "velocity": 100
        },
        {
          "pitch": 49,
          "onset": 36.5,
          "duration": 0.25,
          "velocity": 100
        },
        {
          "pitch": 47,
          "onset": 36.625,
          "duration": 0.25,
          "velocity": 100
        },
        {
          "pitch": 49,
          "onset": 36.75,
          "duration": 0.25,
          "velocity": 100
        },
        {
          "pitch": 45,
          "onset": 36.875,
          "duration": 0.25,
          "velocity": 100
        },
        {
          "pitch": 54,
          "onset": 37.0,
          "duration": 0.5,
          "velocity": 100
        },
        {
          "pitch": 69,
          "onset": 38.0,
          "duration": 0.75,
          "velocity": 100
        },
        {
          "pitch": 72,
          "onset": 38.0,
          "duration": 0.75,
          "velocity": 100
        },
        {
          "pitch": 66,
          "onset": 38.75,
          "duration": 0.25,
          "velocity": 100
        },
        {
          "pitch": 69,
          "onset": 38.75,
          "duration": 0.25,
          "velocity": 100
        },
        {
          "pitch": 66,
          "onset": 39.0,
          "duration": 0.75,
          "velocity": 100
        },
        {
          "pitch": 69,
          "onset": 39.0,
          "duration": 0.75,
          "velocity": 100
        },
        {
          "pitch": 62,
          "onset": 39.75,
          "duration": 0.25,
          "velocity": 100
        },
        {
          "pitch": 67,
          "onset": 39.75,
          "duration": 0.25,
          "velocity": 100
        },
        {
          "pitch": 43,
          "onset": 40.0,
          "duration": 0.25,
          "velocity": 100
        },
        {
          "pitch": 45,
          "onset": 40.125,
          "duration": 0.25,
          "velocity": 100
        },
        {
          "pitch": 47,
          "onset": 40.25,
          "duration": 0.25,
          "velocity": 100
        },
        {
          "pitch": 48,
          "onset": 40.375,
          "duration": 0.25,
          "velocity": 100
        },
        {
          "pitch": 47,
          "onset": 40.5,
          "duration": 0.25,
          "velocity": 100
        },
        {
          "pitch": 45,
          "onset": 40.625,
          "duration": 0.25,
          "velocity": 100
        },
        {
          "pitch": 47,
          "onset": 40.75,
          "duration": 0.25,
          "velocity": 100
        },
        {
          "pitch": 43,
          "onset": 40.875,
          "duration": 0.25,
          "velocity": 100
        },
        {
          "pitch": 52,
          "onset": 41.0,
          "duration": 0.75,
          "velocity": 100
        },
        {
          "pitch": 50,
          "onset": 41.75,
          "duration": 0.25,
          "velocity": 100
        },
        {
          "pitch": 48,
          "onset": 42.0,
          "duration": 1.0,
          "velocity": 100
        },
        {
          "pitch": 50,
          "onset": 43.0,
          "duration": 1.0,
          "velocity": 100
        },
        {
          "pitch": 55,
          "onset": 44.0,
          "duration": 0.75,
          "velocity": 100
        },
        {
          "pitch": 57,
          "onset": 44.75,
          "duration": 0.25,
          "velocity": 100
        },
        {
          "pitch": 59,
          "onset": 45.0,
          "duration": 0.75,
          "velocity": 100
        },
        {
          "pitch": 62,
          "onset": 45.0,
          "duration": 0.25,
          "velocity": 100
        },
        {
          "pitch": 57,
          "onset": 45.75,
          "duration": 0.25,
          "velocity": 100
        },
        {
          "pitch": 55,
          "onset": 46.0,
          "duration": 0.75,
          "velocity": 100
        },
        {
          "pitch": 52,
          "onset": 46.75,
          "duration": 0.25,
          "velocity": 100
        },
        {
          "pitch": 57,
          "onset": 47.0,
          "duration": 0.75,
          "velocity": 100
        },
        {
          "pitch": 45,
          "onset": 47.75,
          "duration": 0.25,
          "velocity": 100
        },
        {
          "pitch": 50,
          "onset": 48.0,
          "duration": 0.25,
          "velocity": 100
        },
        {
          "pitch": 52,
          "onset": 48.125,
          "duration": 0.25,
          "velocity": 100
        },
        {
          "pitch": 54,
          "onset": 48.25,
          "duration": 0.25,
          "velocity": 100
        },
        {
          "pitch": 55,
          "onset": 48.375,
          "duration": 0.25,
          "velocity": 100
        },
        {
          "pitch": 54,
          "onset": 48.5,
          "duration": 0.25,
          "velocity": 100
        },
        {
          "pitch": 52,
          "onset": 48.625,
          "duration": 0.25,
          "velocity": 100
        },
        {
          "pitch": 54,
          "onset": 48.75,
          "duration": 0.25,
          "velocity": 100
        },
        {
          "pitch": 50,
          "onset": 48.875,
          "duration": 0.25,
          "velocity": 100
        },
        {
          "pitch": 59,
          "onset": 49.0,
          "duration": 0.75,
          "velocity": 100
        },
        {
          "pitch": 57,
          "onset": 49.75,
          "duration": 0.25,
          "velocity": 100
        },
        {
          "pitch": 55,
          "onset": 50.0,
          "duration": 0.75,
          "velocity": 100
        },
        {
          "pitch": 52,
          "onset": 50.75,
          "duration": 0.25,
          "velocity": 100
        },
        {
          "pitch": 57,
          "onset": 51.0,
          "duration": 0.75,
          "velocity": 100
        },
        {
          "pitch": 45,
          "onset": 51.75,
          "duration": 0.25,
          "velocity": 100
        },
        {
          "pitch": 50,
          "onset": 52.0,
          "duration": 1.0,
          "velocity": 100
        },
        {
          "pitch": 52,
          "onset": 53.0,
          "duration": 1.0,
          "velocity": 100
        },
        {
          "pitch": 55,
          "onset": 53.0,
          "duration": 0.25,
          "velocity": 100
        },
        {
          "pitch": 57,
          "onset": 53.125,
          "duration": 0.25,
          "velocity": 100
        },
        {
          "pitch": 59,
          "onset": 53.25,
          "duration": 0.25,
          "velocity": 100
        },
        {
          "pitch": 60,
          "onset": 53.375,
          "duration": 0.25,
          "velocity": 100
        },
        {
          "pitch": 59,
          "onset": 53.5,
          "duration": 0.25,
          "velocity": 100
        },
        {
          "pitch": 57,
          "onset": 53.625,
          "duration": 0.25,
          "velocity": 100
        },
        {
          "pitch": 59,
          "onset": 53.75,
          "duration": 0.25,
          "velocity": 100
        },
        {
          "pitch": 55,
          "onset": 53.875,
          "duration": 0.25,
          "velocity": 100
        },
        {
          "pitch": 60,
          "onset": 54.0,
          "duration": 0.75,
          "velocity": 100
        },
        {
          "pitch": 64,
          "onset": 54.0,
          "duration": 0.75,
          "velocity": 100
        },
        {
          "pitch": 60,
          "onset": 54.75,
          "duration": 0.25,
          "velocity": 100
        },
        {
          "pitch": 64,
          "onset": 54.75,
          "duration": 0.25,
          "velocity": 100
        },
        {
          "pitch": 62,
          "onset": 55.0,
          "duration": 0.75,
          "velocity": 100
        },
        {
          "pitch": 50,
          "onset": 55.75,
          "duration": 0.25,
          "velocity": 100
        },
        {
          "pitch": 60,
          "onset": 55.75,
          "duration": 0.25,
          "velocity": 100
        },
        {
          "pitch": 55,
          "onset": 56.0,
          "duration": 1.0,
          "velocity": 100
        },
        {
          "pitch": 59,
          "onset": 56.0,
          "duration": 1.0,
          "velocity": 100
        },
        {
          "pitch": 40,
          "onset": 57.0,
          "duration": 0.25,
          "velocity": 100
        },
        {
          "pitch": 42,
          "onset": 57.125,
          "duration": 0.25,
          "velocity": 100
        },
        {
          "pitch": 43,
          "onset": 57.25,
          "duration": 0.25,
          "velocity": 100
        },
        {
          "pitch": 45,
          "onset": 57.375,
          "duration": 0.25,
          "velocity": 100
        },
        {
          "pitch": 43,
          "onset": 57.5,
          "duration": 0.25,
          "velocity": 100
        },
        {
          "pitch": 42,
          "onset": 57.625,
          "duration": 0.25,
          "velocity": 100
        },
        {
          "pitch": 43,
          "onset": 57.75,
          "duration": 0.25,
          "velocity": 100
        },
        {
          "pitch": 40,
          "onset": 57.875,
          "duration": 0.25,
          "velocity": 100
        },
        {
          "pitch": 48,
          "onset": 58.0,
          "duration": 0.75,
          "velocity": 100
        },
        {
          "pitch": 48,
          "onset": 58.75,
          "duration": 0.25,
          "velocity": 100
        },
        {
          "pitch": 47,
          "onset": 59.0,
          "duration": 0.75,
          "velocity": 100
        },
        {
          "pitch": 45,
          "onset": 59.75,
          "duration": 0.25,
          "velocity": 100
        },
        {
          "pitch": 43,
          "onset": 60.0,
          "duration": 0.75,
          "velocity": 100
        },
        {
          "pitch": 42,
          "onset": 60.75,
          "duration": 0.25,
          "velocity": 100
        },
        {
          "pitch": 43,
          "onset": 61.0,
          "duration": 0.75,
          "velocity": 100
        },
        {
          "pitch": 45,
          "onset": 61.75,
          "duration": 0.25,
          "velocity": 100
        },
        {
          "pitch": 52,
          "onset": 61.75,
          "duration": 0.25,
          "velocity": 100
        },
        {
          "pitch": 47,
          "onset": 62.0,
          "duration": 2.0,
          "velocity": 100
        },
        {
          "pitch": 55,
          "onset": 62.0,
          "duration": 0.75,
          "velocity": 100
        },
        {
          "pitch": 57,
          "onset": 62.75,
          "duration": 0.25,
          "velocity": 100
        },
        {
          "pitch": 59,
          "onset": 63.0,
          "duration": 0.75,
          "velocity": 100
        },
        {
          "pitch": 57,
          "onset": 63.75,
          "duration": 0.25,
          "velocity": 100
        },
        {
          "pitch": 52,
          "onset": 64.0,
          "duration": 1.0,
          "velocity": 100
        },
        {
          "pitch": 55,
          "onset": 64.0,
          "duration": 1.0,
          "velocity": 100
        },
        {
          "pitch": 59,
          "onset": 65.0,
          "duration": 0.25,
          "velocity": 100
        },
        {
          "pitch": 57,
          "onset": 65.25,
          "duration": 0.25,
          "velocity": 100
        },
        {
          "pitch": 59,
          "onset": 65.5,
          "duration": 0.25,
          "velocity": 100
        },
        {
          "pitch": 55,
          "onset": 65.75,
          "duration": 0.25,
          "velocity": 100
        },
        {
          "pitch": 55,
          "onset": 66.0,
          "duration": 0.25,
          "velocity": 100
        },
        {
          "pitch": 54,
          "onset": 66.25,
          "duration": 0.25,
          "velocity": 100
        },
        {
          "pitch": 55,
          "onset": 66.5,
          "duration": 0.25,
          "velocity": 100
        },
        {
          "pitch": 52,
          "onset": 66.75,
          "duration": 0.25,
          "velocity": 100
        },
        {
          "pitch": 52,
          "onset": 67.0,
          "duration": 0.25,
          "velocity": 100
        },
        {
          "pitch": 50,
          "onset": 67.25,
          "duration": 0.25,
          "velocity": 100
        },
        {
          "pitch": 52,
          "onset": 67.5,
          "duration": 0.25,
          "velocity": 100
        },
        {
          "pitch": 49,
          "onset": 67.75,
          "duration": 0.25,
          "velocity": 100
        },
        {
          "pitch": 49,
          "onset": 68.0,
          "duration": 1.0,
          "velocity": 100
        },
        {
          "pitch": 52,
          "onset": 68.0,
          "duration": 1.0,
          "velocity": 100
        },
        {
          "pitch": 57,
          "onset": 68.0,
          "duration": 1.0,
          "velocity": 100
        },
        {
          "pitch": 57,
          "onset": 69.0,
          "duration": 0.25,
          "velocity": 100
        },
        {
          "pitch": 55,
          "onset": 69.25,
          "duration": 0.25,
          "velocity": 100
        },
        {
          "pitch": 57,
          "onset": 69.5,
          "duration": 0.25,
          "velocity": 100
        },
        {
          "pitch": 54,
          "onset": 69.75,
          "duration": 0.25,
          "velocity": 100
        },
        {
          "pitch": 54,
          "onset": 70.0,
          "duration": 0.25,
          "velocity": 100
        },
        {
          "pitch": 52,
          "onset": 70.25,
          "duration": 0.25,
          "velocity": 100
        },
        {
          "pitch": 54,
          "onset": 70.5,
          "duration": 0.25,
          "velocity": 100
        },
        {
          "pitch": 50,
          "onset": 70.75,
          "duration": 0.25,
          "velocity": 100
        },
        {
          "pitch": 50,
          "onset": 71.0,
          "duration": 0.25,
          "velocity": 100
        },
        {
          "pitch": 49,
          "onset": 71.25,
          "duration": 0.25,
          "velocity": 100
        },
        {
          "pitch": 50,
          "onset": 71.5,
          "duration": 0.25,
          "velocity": 100
        },
        {
          "pitch": 47,
          "onset": 71.75,
          "duration": 0.25,
          "velocity": 100
        },
        {
          "pitch": 47,
          "onset": 72.0,
          "duration": 1.0,
          "velocity": 100
        },
        {
          "pitch": 50,
          "onset": 72.0,
          "duration": 1.0,
          "velocity": 100
        },
        {
          "pitch": 55,
          "onset": 72.0,
          "duration": 1.0,
          "velocity": 100
        },
        {
          "pitch": 55,
          "onset": 73.0,
          "duration": 0.25,
          "velocity": 100
        },
        {
          "pitch": 54,
          "onset": 73.25,
          "duration": 0.25,
          "velocity": 100
        },
        {
          "pitch": 55,
          "onset": 73.5,
          "duration": 0.25,
          "velocity": 100
        },
        {
          "pitch": 52,
          "onset": 73.75,
          "duration": 0.25,
          "velocity": 100
        },
        {
          "pitch": 52,
          "onset": 74.0,
          "duration": 0.25,
          "velocity": 100
        },
        {
          "pitch": 50,
          "onset": 74.25,
          "duration": 0.25,
          "velocity": 100
        },
        {
          "pitch": 52,
          "onset": 74.5,
          "duration": 0.25,
          "velocity": 100
        },
        {
          "pitch": 49,
          "onset": 74.75,
          "duration": 0.25,
          "velocity": 100
        },
        {
          "pitch": 49,
          "onset": 75.0,
          "duration": 0.25,
          "velocity": 100
        },
        {
          "pitch": 47,
          "onset": 75.25,
          "duration": 0.25,
          "velocity": 100
        },
        {
          "pitch": 49,
          "onset": 75.5,
          "duration": 0.25,
          "velocity": 100
        },
        {
          "pitch": 45,
          "onset": 75.75,
          "duration": 0.25,
          "velocity": 100
        },
        {
          "pitch": 45,
          "onset": 76.0,
          "duration": 1.0,
          "velocity": 100
        },
        {
          "pitch": 49,
          "onset": 76.0,
          "duration": 1.0,
          "velocity": 100
        },
        {
          "pitch": 54,
          "onset": 76.0,
          "duration": 1.0,
          "velocity": 100
        },
        {
          "pitch": 59,
          "onset": 77.0,
          "duration": 0.25,
          "velocity": 100
        },
        {
          "pitch": 61,
          "onset": 77.125,
          "duration": 0.25,
          "velocity": 100
        },
        {
          "pitch": 62,
          "onset": 77.25,
          "duration": 0.25,
          "velocity": 100
        },
        {
          "pitch": 64,
          "onset": 77.375,
          "duration": 0.25,
          "velocity": 100
        },
        {
          "pitch": 62,
          "onset": 77.5,
          "duration": 0.25,
          "velocity": 100
        },
        {
          "pitch": 61,
          "onset": 77.625,
          "duration": 0.25,
          "velocity": 100
        },
        {
          "pitch": 62,
          "onset": 77.75,
          "duration": 0.25,
          "velocity": 100
        },
        {
          "pitch": 59,
          "onset": 77.875,
          "duration": 0.25,
          "velocity": 100
        },
        {
          "pitch": 52,
          "onset": 78.0,
          "duration": 0.25,
          "velocity": 100
        },
        {
          "pitch": 54,
          "onset": 78.125,
          "duration": 0.25,
          "velocity": 100
        },
        {
          "pitch": 55,
          "onset": 78.25,
          "duration": 0.25,
          "velocity": 100
        },
        {
          "pitch": 57,
          "onset": 78.375,
          "duration": 0.25,
          "velocity": 100
        },
        {
          "pitch": 55,
          "onset": 78.5,
          "duration": 0.25,
          "velocity": 100
        },
        {
          "pitch": 54,
          "onset": 78.625,
          "duration": 0.25,
          "velocity": 100
        },
        {
          "pitch": 55,
          "onset": 78.75,
          "duration": 0.25,
          "velocity": 100
        },
        {
          "pitch": 52,
          "onset": 78.875,
          "duration": 0.25,
          "velocity": 100
        },
        {
          "pitch": 57,
          "onset": 79.0,
          "duration": 0.875,
          "velocity": 100
        },
        {
          "pitch": 59,
          "onset": 79.125,
          "duration": 0.25,
          "velocity": 100
        },
        {
          "pitch": 61,
          "onset": 79.25,
          "duration": 0.25,
          "velocity": 100
        },
        {
          "pitch": 62,
          "onset": 79.375,
          "duration": 0.25,
          "velocity": 100
        },
        {
          "pitch": 61,
          "onset": 79.5,
          "duration": 0.25,
          "velocity": 100
        },
        {
          "pitch": 59,
          "onset": 79.625,
          "duration": 0.25,
          "velocity": 100
        },
        {
          "pitch": 61,
          "onset": 79.75,
          "duration": 0.25,
          "velocity": 100
        },
        {
          "pitch": 57,
          "onset": 79.875,
          "duration": 0.125,
          "velocity": 100
        },
        {
          "pitch": 50,
          "onset": 80.0,
          "duration": 0.25,
          "velocity": 100
        },
        {
          "pitch": 62,
          "onset": 80.0,
          "duration": 1.0,
          "velocity": 100
        },
        {
          "pitch": 52,
          "onset": 80.125,
          "duration": 0.25,
          "velocity": 100
        },
        {
          "pitch": 54,
          "onset": 80.25,
          "duration": 0.25,
          "velocity": 100
        },
        {
          "pitch": 55,
          "onset": 80.375,
          "duration": 0.25,
          "velocity": 100
        },
        {
          "pitch": 54,
          "onset": 80.5,
          "duration": 0.25,
          "velocity": 100
        },
        {
          "pitch": 52,
          "onset": 80.625,
          "duration": 0.25,
          "velocity": 100
        },
        {
          "pitch": 54,
          "onset": 80.75,
          "duration": 0.25,
          "velocity": 100
        },
        {
          "pitch": 50,
          "onset": 80.875,
          "duration": 0.25,
          "velocity": 100
        },
        {
          "pitch": 55,
          "onset": 81.0,
          "duration": 0.5,
          "velocity": 100
        },
        {
          "pitch": 71,
          "onset": 82.0,
          "duration": 0.75,
          "velocity": 100
        },
        {
          "pitch": 74,
          "onset": 82.0,
          "duration": 0.75,
          "velocity": 100
        },
        {
          "pitch": 67,
          "onset": 82.75,
          "duration": 0.25,
          "velocity": 100
        },
        {
          "pitch": 71,
          "onset": 82.75,
          "duration": 0.25,
          "velocity": 100
        },
        {
          "pitch": 67,
          "onset": 83.0,
          "duration": 0.75,
          "velocity": 100
        },
        {
          "pitch": 71,
          "onset": 83.0,
          "duration": 0.75,
          "velocity": 100
        },
        {
          "pitch": 64,
          "onset": 83.75,
          "duration": 0.25,
          "velocity": 100
        },
        {
          "pitch": 69,
          "onset": 83.75,
          "duration": 0.25,
          "velocity": 100
        },
        {
          "pitch": 43,
          "onset": 84.0,
          "duration": 1.0,
          "velocity": 100
        },
        {
          "pitch": 55,
          "onset": 84.0,
          "duration": 1.0,
          "velocity": 100
        },
        {
          "pitch": 54,
          "onset": 85.0,
          "duration": 0.25,
          "velocity": 100
        },
        {
          "pitch": 55,
          "onset": 85.125,
          "duration": 0.25,
          "velocity": 100
        },
        {
          "pitch": 57,
          "onset": 85.25,
          "duration": 0.25,
          "velocity": 100
        },
        {
          "pitch": 55,
          "onset": 85.375,
          "duration": 0.25,
          "velocity": 100
        },
        {
          "pitch": 54,
          "onset": 85.5,
          "duration": 0.25,
          "velocity": 100
        },
        {
          "pitch": 52,
          "onset": 85.625,
          "duration": 0.25,
          "velocity": 100
        },
        {
          "pitch": 50,
          "onset": 85.75,
          "duration": 0.25,
          "velocity": 100
        },
        {
          "pitch": 49,
          "onset": 85.875,
          "duration": 0.25,
          "velocity": 100
        },
        {
          "pitch": 47,
          "onset": 86.0,
          "duration": 0.25,
          "velocity": 100
        },
        {
          "pitch": 49,
          "onset": 86.125,
          "duration": 0.25,
          "velocity": 100
        },
        {
          "pitch": 50,
          "onset": 86.25,
          "duration": 0.25,
          "velocity": 100
        },
        {
          "pitch": 49,
          "onset": 86.375,
          "duration": 0.25,
          "velocity": 100
        },
        {
          "pitch": 47,
          "onset": 86.5,
          "duration": 0.25,
          "velocity": 100
        },
        {
          "pitch": 45,
          "onset": 86.625,
          "duration": 0.25,
          "velocity": 100
        },
        {
          "pitch": 47,
          "onset": 86.75,
          "duration": 0.25,
          "velocity": 100
        },
        {
          "pitch": 43,
          "onset": 86.875,
          "duration": 0.25,
          "velocity": 100
        },
        {
          "pitch": 45,
          "onset": 87.0,
          "duration": 0.875,
          "velocity": 100
        },
        {
          "pitch": 45,
          "onset": 87.875,
          "duration": 0.125,
          "velocity": 100
        },
        {
          "pitch": 38,
          "onset": 88.0,
          "duration": 0.75,
          "velocity": 100
        },
        {
          "pitch": 50,
          "onset": 88.625,
          "duration": 0.125,
          "velocity": 100
        },
        {
          "pitch": 52,
          "onset": 88.75,
          "duration": 0.125,
          "velocity": 100
        },
        {
          "pitch": 54,
          "onset": 88.875,
          "duration": 0.125,
          "velocity": 100
        },
        {
          "pitch": 55,
          "onset": 89.0,
          "duration": 1.0,
          "velocity": 100
        },
        {
          "pitch": 49,
          "onset": 90.0,
          "duration": 0.25,
          "velocity": 100
        },
        {
          "pitch": 50,
          "onset": 90.125,
          "duration": 0.25,
          "velocity": 100
        },
        {
          "pitch": 52,
          "onset": 90.25,
          "duration": 0.25,
          "velocity": 100
        },
        {
          "pitch": 54,
          "onset": 90.375,
          "duration": 0.25,
          "velocity": 100
        },
        {
          "pitch": 52,
          "onset": 90.5,
          "duration": 0.25,
          "velocity": 100
        },
        {
          "pitch": 50,
          "onset": 90.625,
          "duration": 0.25,
          "velocity": 100
        },
        {
          "pitch": 52,
          "onset": 90.75,
          "duration": 0.25,
          "velocity": 100
        },
        {
          "pitch": 49,
          "onset": 90.875,
          "duration": 0.25,
          "velocity": 100
        },
        {
          "pitch": 54,
          "onset": 91.0,
          "duration": 1.0,
          "velocity": 100
        },
        {
          "pitch": 47,
          "onset": 92.0,
          "duration": 0.25,
          "velocity": 100
        },
        {
          "pitch": 49,
          "onset": 92.125,
          "duration": 0.25,
          "velocity": 100
        },
        {
          "pitch": 50,
          "onset": 92.25,
          "duration": 0.25,
          "velocity": 100
        },
        {
          "pitch": 52,
          "onset": 92.375,
          "duration": 0.25,
          "velocity": 100
        },
        {
          "pitch": 50,
          "onset": 92.5,
          "duration": 0.25,
          "velocity": 100
        },
        {
          "pitch": 49,
          "onset": 92.625,
          "duration": 0.25,
          "velocity": 100
        },
        {
          "pitch": 50,
          "onset": 92.75,
          "duration": 0.25,
          "velocity": 100
        },
        {
          "pitch": 47,
          "onset": 92.875,
          "duration": 0.25,
          "velocity": 100
        },
        {
          "pitch": 52,
          "onset": 93.0,
          "duration": 0.25,
          "velocity": 100
        },
        {
          "pitch": 54,
          "onset": 93.125,
          "duration": 0.25,
          "velocity": 100
        },
        {
          "pitch": 55,
          "onset": 93.25,
          "duration": 0.25,
          "velocity": 100
        },
        {
          "pitch": 57,
          "onset": 93.375,
          "duration": 0.25,
          "velocity": 100
        },
        {
          "pitch": 55,
          "onset": 93.5,
          "duration": 0.25,
          "velocity": 100
        },
        {
          "pitch": 54,
          "onset": 93.625,
          "duration": 0.25,
          "velocity": 100
        },
        {
          "pitch": 55,
          "onset": 93.75,
          "duration": 0.25,
          "velocity": 100
        },
        {
          "pitch": 52,
          "onset": 93.875,
          "duration": 0.25,
          "velocity": 100
        },
        {
          "pitch": 57,
          "onset": 94.0,
          "duration": 0.25,
          "velocity": 100
        },
        {
          "pitch": 59,
          "onset": 94.125,
          "duration": 0.25,
          "velocity": 100
        },
        {
          "pitch": 61,
          "onset": 94.25,
          "duration": 0.25,
          "velocity": 100
        },
        {
          "pitch": 62,
          "onset": 94.375,
          "duration": 0.25,
          "velocity": 100
        },
        {
          "pitch": 61,
          "onset": 94.5,
          "duration": 0.25,
          "velocity": 100
        },
        {
          "pitch": 59,
          "onset": 94.625,
          "duration": 0.25,
          "velocity": 100
        },
        {
          "pitch": 61,
          "onset": 94.75,
          "duration": 0.25,
          "velocity": 100
        },
        {
          "pitch": 57,
          "onset": 94.875,
          "duration": 0.25,
          "velocity": 100
        },
        {
          "pitch": 62,
          "onset": 95.0,
          "duration": 0.25,
          "velocity": 100
        },
        {
          "pitch": 64,
          "onset": 95.125,
          "duration": 0.25,
          "velocity": 100
        },
        {
          "pitch": 66,
          "onset": 95.25,
          "duration": 0.25,
          "velocity": 100
        },
        {
          "pitch": 67,
          "onset": 95.375,
          "duration": 0.25,
          "velocity": 100
        },
        {
          "pitch": 66,
          "onset": 95.5,
          "duration": 0.25,
          "velocity": 100
        },
        {
          "pitch": 64,
          "onset": 95.625,
          "duration": 0.25,
          "velocity": 100
        },
        {
          "pitch": 66,
          "onset": 95.75,
          "duration": 0.25,
          "velocity": 100
        },
        {
          "pitch": 62,
          "onset": 95.875,
          "duration": 0.125,
          "velocity": 100
        },
        {
          "pitch": 67,
          "onset": 96.0,
          "duration": 0.75,
          "velocity": 100
        },
        {
          "pitch": 55,
          "onset": 96.75,
          "duration": 0.25,
          "velocity": 100
        },
        {
          "pitch": 54,
          "onset": 97.0,
          "duration": 0.75,
          "velocity": 100
        },
        {
          "pitch": 52,
          "onset": 97.75,
          "duration": 0.25,
          "velocity": 100
        },
        {
          "pitch": 50,
          "onset": 98.0,
          "duration": 0.75,
          "velocity": 100
        },
        {
          "pitch": 48,
          "onset": 98.75,
          "duration": 0.25,
          "velocity": 100
        },
        {
          "pitch": 47,
          "onset": 99.0,
          "duration": 0.75,
          "velocity": 100
        },
        {
          "pitch": 45,
          "onset": 99.75,
          "duration": 0.25,
          "velocity": 100
        },
        {
          "pitch": 43,
          "onset": 100.0,
          "duration": 0.75,
          "velocity": 100
        },
        {
          "pitch": 42,
          "onset": 100.75,
          "duration": 0.25,
          "velocity": 100
        },
        {
          "pitch": 40,
          "onset": 101.0,
          "duration": 0.75,
          "velocity": 100
        },
        {
          "pitch": 38,
          "onset": 101.75,
          "duration": 0.25,
          "velocity": 100
        },
        {
          "pitch": 45,
          "onset": 102.0,
          "duration": 2.0,
          "velocity": 100
        },
        {
          "pitch": 38,
          "onset": 104.0,
          "duration": 4.0,
          "velocity": 100
        }
      ]
    }
  ]
}