{
  "bwv": 860,
  "category": "wtc1",
  "instrument": "keyboard",
  "form": "prelude",
  "movement": null,
  "tonic": "G",
  "mode": "major",
  "confidence": "verified",
  "ticks_per_beat": 384,
  "duration_seconds": 49.7,
  "tempos": [
    {
      "tick": 0,
      "bpm": 95
    },
    {
      "tick": 2688,
      "bpm": 90
    },
    {
      "tick": 2880,
      "bpm": 90
    },
    {
      "tick": 3168,
      "bpm": 95
    },
    {
      "tick": 7296,
      "bpm": 95
    },
    {
      "tick": 7488,
      "bpm": 90
    },
    {
      "tick": 7776,
      "bpm": 95
    },
    {
      "tick": 10368,
      "bpm": 95
    },
    {
      "tick": 10560,
      "bpm": 90
    },
    {
      "tick": 10848,
      "bpm": 95
    },
    {
      "tick": 25728,
      "bpm": 95
    },
    {
      "tick": 26496,
      "bpm": 90
    },
    {
      "tick": 26688,
      "bpm": 90
    },
    {
      "tick": 26880,
      "bpm": 90
    },
    {
      "tick": 27072,
      "bpm": 85
    },
    {
      "tick": 27264,
      "bpm": 80
    },
    {
      "tick": 27456,
      "bpm": 70
    },
    {
      "tick": 27648,
      "bpm": 90
    }
  ],
  "time_signatures": [
    {
      "tick": 0,
      "numerator": 4,
      "denominator": 4
    }
  ],
  "track_type": "manual",
  "voice_count": 1,
  "total_notes": 609,
  "tracks": [
    {
      "role": "manual",
      "notes": [
        {
          "pitch": 55,
          "onset": 0.0,
          "duration": 0.5,
          "velocity": 100
        },
        {
          "pitch": 67,
          "onset": 0.0,
          "duration": 0.3125,
          "velocity": 100
        },
        {
          "pitch": 71,
          "onset": 0.1562,
          "duration": 0.3125,
          "velocity": 100
        },
        {
          "pitch": 74,
          "onset": 0.3438,
          "duration": 0.3125,
          "velocity": 100
        },
        {
          "pitch": 43,
          "onset": 0.5,
          "duration": 0.5,
          "velocity": 100
        },
        {
          "pitch": 79,
          "onset": 0.5,
          "duration": 0.3125,
          "velocity": 100
        },
        {
          "pitch": 74,
          "onset": 0.6562,
          "duration": 0.3125,
          "velocity": 100
        },
        {
          "pitch": 71,
          "onset": 0.8438,
          "duration": 0.3125,
          "velocity": 100
        },
        {
          "pitch": 74,
          "onset": 1.0,
          "duration": 0.3125,
          "velocity": 100
        },
        {
          "pitch": 71,
          "onset": 1.1562,
          "duration": 0.3125,
          "velocity": 100
        },
        {
          "pitch": 67,
          "onset": 1.3438,
          "duration": 0.3125,
          "velocity": 100
        },
        {
          "pitch": 55,
          "onset": 1.5,
          "duration": 0.5,
          "velocity": 100
        },
        {
          "pitch": 71,
          "onset": 1.5,
          "duration": 0.3125,
          "velocity": 100
        },
        {
          "pitch": 67,
          "onset": 1.6562,
          "duration": 0.3125,
          "velocity": 100
        },
        {
          "pitch": 62,
          "onset": 1.8438,
          "duration": 0.3125,
          "velocity": 100
        },
        {
          "pitch": 55,
          "onset": 2.0,
          "duration": 0.5,
          "velocity": 100
        },
        {
          "pitch": 64,
          "onset": 2.0,
          "duration": 0.3125,
          "velocity": 100
        },
        {
          "pitch": 67,
          "onset": 2.1562,
          "duration": 0.3125,
          "velocity": 100
        },
        {
          "pitch": 72,
          "onset": 2.3438,
          "duration": 0.3125,
          "velocity": 100
        },
        {
          "pitch": 43,
          "onset": 2.5,
          "duration": 0.5,
          "velocity": 100
        },
        {
          "pitch": 76,
          "onset": 2.5,
          "duration": 0.3125,
          "velocity": 100
        },
        {
          "pitch": 72,
          "onset": 2.6562,
          "duration": 0.3125,
          "velocity": 100
        },
        {
          "pitch": 67,
          "onset": 2.8438,
          "duration": 0.3125,
          "velocity": 100
        },
        {
          "pitch": 72,
          "onset": 3.0,
          "duration": 0.3125,
          "velocity": 100
        },
        {
          "pitch": 67,
          "onset": 3.1562,
          "duration": 0.3125,
          "velocity": 100
        },
        {
          "pitch": 64,
          "onset": 3.3438,
          "duration": 0.3125,
          "velocity": 100
        },
        {
          "pitch": 55,
          "onset": 3.5,
          "duration": 0.5,
          "velocity": 100
        },
        {
          "pitch": 67,
          "onset": 3.5,
          "duration": 0.3125,
          "velocity": 100
        },
        {
          "pitch": 64,
          "onset": 3.6562,
          "duration": 0.3125,
          "velocity": 100
        },
        {
          "pitch": 60,
          "onset": 3.8438,
          "duration": 0.1562,
          "velocity": 100
        },
        {
          "pitch": 55,
          "onset": 4.0,
          "duration": 0.5,
          "velocity": 100
        },
        {
          "pitch": 57,
          "onset": 4.0,
          "duration": 0.3125,
          "velocity": 100
        },
        {
          "pitch": 60,
          "onset": 4.1562,
          "duration": 0.3125,
          "velocity": 100
        },
        {
          "pitch": 66,
          "onset": 4.3438,
          "duration": 0.3125,
          "velocity": 100
        },
        {
          "pitch": 43,
          "onset": 4.5,
          "duration": 0.5,
          "velocity": 100
        },
        {
          "pitch": 69,
          "onset": 4.5,
          "duration": 0.3125,
          "velocity": 100
        },
        {
          "pitch": 66,
          "onset": 4.6562,
          "duration": 0.3125,
          "velocity": 100
        },
        {
          "pitch": 60,
          "onset": 4.8438,
          "duration": 0.3125,
          "velocity": 100
        },
        {
          "pitch": 66,
          "onset": 5.0,
          "duration": 0.3125,
          "velocity": 100
        },
        {
          "pitch": 60,
          "onset": 5.1562,
          "duration": 0.3125,
          "velocity": 100
        },
        {
          "pitch": 57,
          "onset": 5.3438,
          "duration": 0.3125,
          "velocity": 100
        },
        {
          "pitch": 55,
          "onset": 5.5,
          "duration": 0.5,
          "velocity": 100
        },
        {
          "pitch": 60,
          "onset": 5.5,
          "duration": 0.3125,
          "velocity": 100
        },
        {
          "pitch": 57,
          "onset": 5.6562,
          "duration": 0.3125,
          "velocity": 100
        },
        {
          "pitch": 54,
          "onset": 5.8438,
          "duration": 0.3125,
          "velocity": 100
        },
        {
          "pitch": 55,
          "onset": 6.0,
          "duration": 0.3125,
          "velocity": 100
        },
        {
          "pitch": 55,
          "onset": 6.0,
          "duration": 0.5,
          "velocity": 100
        },
        {
          "pitch": 59,
          "onset": 6.1562,
          "duration": 0.3125,
          "velocity": 100
        },
        {
          "pitch": 62,
          "onset": 6.3438,
          "duration": 0.3125,
          "velocity": 100
        },
        {
          "pitch": 43,
          "onset": 6.5,
          "duration": 0.5,
          "velocity": 100
        },
        {
          "pitch": 67,
          "onset": 6.5,
          "duration": 0.3125,
          "velocity": 100
        },
        {
          "pitch": 62,
          "onset": 6.6562,
          "duration": 0.3125,
          "velocity": 100
        },
        {
          "pitch": 59,
          "onset": 6.8438,
          "duration": 0.3125,
          "velocity": 100
        },
        {
          "pitch": 62,
          "onset": 7.0,
          "duration": 0.3125,
          "velocity": 100
        },
        {
          "pitch": 59,
          "onset": 7.1562,
          "duration": 0.3125,
          "velocity": 100
        },
        {
          "pitch": 55,
          "onset": 7.3438,
          "duration": 0.3125,
          "velocity": 100
        },
        {
          "pitch": 55,
          "onset": 7.5,
          "duration": 0.5,
          "velocity": 100
        },
        {
          "pitch": 59,
          "onset": 7.5,
          "duration": 0.3125,
          "velocity": 100
        },
        {
          "pitch": 55,
          "onset": 7.6562,
          "duration": 0.3125,
          "velocity": 100
        },
        {
          "pitch": 52,
          "onset": 7.8438,
          "duration": 0.1562,
          "velocity": 100
        },
        {
          "pitch": 55,
          "onset": 8.0,
          "duration": 0.5,
          "velocity": 100
        },
        {
          "pitch": 57,
          "onset": 8.0,
          "duration": 0.3125,
          "velocity": 100
        },
        {
          "pitch": 61,
          "onset": 8.1562,
          "duration": 0.3125,
          "velocity": 100
        },
        {
          "pitch": 64,
          "onset": 8.3438,
          "duration": 0.3125,
          "velocity": 100
        },
        {
          "pitch": 43,
          "onset": 8.5,
          "duration": 0.5,
          "velocity": 100
        },
        {
          "pitch": 69,
          "onset": 8.5,
          "duration": 0.3125,
          "velocity": 100
        },
        {
          "pitch": 64,
          "onset": 8.6562,
          "duration": 0.3125,
          "velocity": 100
        },
        {
          "pitch": 61,
          "onset": 8.8438,
          "duration": 0.3125,
          "velocity": 100
        },
        {
          "pitch": 64,
          "onset": 9.0,
          "duration": 0.3125,
          "velocity": 100
        },
        {
          "pitch": 61,
          "onset": 9.1562,
          "duration": 0.3125,
          "velocity": 100
        },
        {
          "pitch": 57,
          "onset": 9.3438,
          "duration": 0.3125,
          "velocity": 100
        },
        {
          "pitch": 55,
          "onset": 9.5,
          "duration": 0.5,
          "velocity": 100
        },
        {
          "pitch": 61,
          "onset": 9.5,
          "duration": 0.3125,
          "velocity": 100
        },
        {
          "pitch": 57,
          "onset": 9.6562,
          "duration": 0.3125,
          "velocity": 100
        },
        {
          "pitch": 52,
          "onset": 9.8438,
          "duration": 0.1562,
          "velocity": 100
        },
        {
          "pitch": 54,
          "onset": 10.0,
          "duration": 0.3125,
          "velocity": 100
        },
        {
          "pitch": 62,
          "onset": 10.0,
          "duration": 0.5,
          "velocity": 100
        },
        {
          "pitch": 57,
          "onset": 10.1562,
          "duration": 0.3125,
          "velocity": 100
        },
        {
          "pitch": 61,
          "onset": 10.3438,
          "duration": 0.3125,
          "velocity": 100
        },
        {
          "pitch": 62,
          "onset": 10.5,
          "duration": 0.3125,
          "velocity": 100
        },
        {
          "pitch": 57,
          "onset": 10.6562,
          "duration": 0.3125,
          "velocity": 100
        },
        {
          "pitch": 54,
          "onset": 10.8438,
          "duration": 0.3125,
          "velocity": 100
        },
        {
          "pitch": 57,
          "onset": 11.0,
          "duration": 0.3125,
          "velocity": 100
        },
        {
          "pitch": 54,
          "onset": 11.1562,
          "duration": 0.3125,
          "velocity": 100
        },
        {
          "pitch": 50,
          "onset": 11.3438,
          "duration": 0.3125,
          "velocity": 100
        },
        {
          "pitch": 54,
          "onset": 11.5,
          "duration": 0.3125,
          "velocity": 100
        },
        {
          "pitch": 62,
          "onset": 11.5,
          "duration": 0.5,
          "velocity": 100
        },
        {
          "pitch": 50,
          "onset": 11.6562,
          "duration": 0.3125,
          "velocity": 100
        },
        {
          "pitch": 47,
          "onset": 11.8438,
          "duration": 0.1562,
          "velocity": 100
        },
        {
          "pitch": 52,
          "onset": 12.0,
          "duration": 0.5,
          "velocity": 100
        },
        {
          "pitch": 62,
          "onset": 12.0,
          "duration": 0.3125,
          "velocity": 100
        },
        {
          "pitch": 61,
          "onset": 12.1562,
          "duration": 0.3125,
          "velocity": 100
        },
        {
          "pitch": 62,
          "onset": 12.3438,
          "duration": 0.3125,
          "velocity": 100
        },
        {
          "pitch": 40,
          "onset": 12.5,
          "duration": 0.5,
          "velocity": 100
        },
        {
          "pitch": 64,
          "onset": 12.5,
          "duration": 0.3125,
          "velocity": 100
        },
        {
          "pitch": 61,
          "onset": 12.6562,
          "duration": 0.3125,
          "velocity": 100
        },
        {
          "pitch": 62,
          "onset": 12.8438,
          "duration": 0.3125,
          "velocity": 100
        },
        {
          "pitch": 66,
          "onset": 13.0,
          "duration": 0.3125,
          "velocity": 100
        },
        {
          "pitch": 61,
          "onset": 13.1562,
          "duration": 0.3125,
          "velocity": 100
        },
        {
          "pitch": 62,
          "onset": 13.3438,
          "duration": 0.3125,
          "velocity": 100
        },
        {
          "pitch": 52,
          "onset": 13.5,
          "duration": 0.5,
          "velocity": 100
        },
        {
          "pitch": 67,
          "onset": 13.5,
          "duration": 0.3125,
          "velocity": 100
        },
        {
          "pitch": 61,
          "onset": 13.6562,
          "duration": 0.3125,
          "velocity": 100
        },
        {
          "pitch": 62,
          "onset": 13.8438,
          "duration": 0.3125,
          "velocity": 100
        },
        {
          "pitch": 49,
          "onset": 14.0,
          "duration": 0.5,
          "velocity": 100
        },
        {
          "pitch": 69,
          "onset": 14.0,
          "duration": 0.3125,
          "velocity": 100
        },
        {
          "pitch": 61,
          "onset": 14.1562,
          "duration": 0.3125,
          "velocity": 100
        },
        {
          "pitch": 62,
          "onset": 14.3438,
          "duration": 0.3125,
          "velocity": 100
        },
        {
          "pitch": 45,
          "onset": 14.5,
          "duration": 0.5,
          "velocity": 100
        },
        {
          "pitch": 71,
          "onset": 14.5,
          "duration": 0.3125,
          "velocity": 100
        },
        {
          "pitch": 61,
          "onset": 14.6562,
          "duration": 0.3125,
          "velocity": 100
        },
        {
          "pitch": 62,
          "onset": 14.8438,
          "duration": 0.3125,
          "velocity": 100
        },
        {
          "pitch": 47,
          "onset": 15.0,
          "duration": 0.5,
          "velocity": 100
        },
        {
          "pitch": 69,
          "onset": 15.0,
          "duration": 0.3125,
          "velocity": 100
        },
        {
          "pitch": 61,
          "onset": 15.1562,
          "duration": 0.3125,
          "velocity": 100
        },
        {
          "pitch": 62,
          "onset": 15.3438,
          "duration": 0.3125,
          "velocity": 100
        },
        {
          "pitch": 49,
          "onset": 15.5,
          "duration": 0.5,
          "velocity": 100
        },
        {
          "pitch": 67,
          "onset": 15.5,
          "duration": 0.3125,
          "velocity": 100
        },
        {
          "pitch": 61,
          "onset": 15.6562,
          "duration": 0.3125,
          "velocity": 100
        },
        {
          "pitch": 62,
          "onset": 15.8438,
          "duration": 0.1562,
          "velocity": 100
        },
        {
          "pitch": 50,
          "onset": 16.0,
          "duration": 0.3125,
          "velocity": 100
        },
        {
          "pitch": 66,
          "onset": 16.0,
          "duration": 0.5,
          "velocity": 100
        },
        {
          "pitch": 61,
          "onset": 16.1562,
          "duration": 0.3125,
          "velocity": 100
        },
        {
          "pitch": 62,
          "onset": 16.3438,
          "duration": 0.3125,
          "velocity": 100
        },
        {
          "pitch": 52,
          "onset": 16.5,
          "duration": 0.3125,
          "velocity": 100
        },
        {
          "pitch": 67,
          "onset": 16.5,
          "duration": 0.5,
          "velocity": 100
        },
        {
          "pitch": 61,
          "onset": 16.6562,
          "duration": 0.3125,
          "velocity": 100
        },
        {
          "pitch": 62,
          "onset": 16.8438,
          "duration": 0.3125,
          "velocity": 100
        },
        {
          "pitch": 54,
          "onset": 17.0,
          "duration": 0.3125,
          "velocity": 100
        },
        {
          "pitch": 69,
          "onset": 17.0,
          "duration": 0.5,
          "velocity": 100
        },
        {
          "pitch": 61,
          "onset": 17.1562,
          "duration": 0.3125,
          "velocity": 100
        },
        {
          "pitch": 62,
          "onset": 17.3438,
          "duration": 0.3125,
          "velocity": 100
        },
        {
          "pitch": 55,
          "onset": 17.5,
          "duration": 0.3125,
          "velocity": 100
        },
        {
          "pitch": 71,
          "onset": 17.5,
          "duration": 0.5,
          "velocity": 100
        },
        {
          "pitch": 61,
          "onset": 17.6562,
          "duration": 0.3125,
          "velocity": 100
        },
        {
          "pitch": 62,
          "onset": 17.8438,
          "duration": 0.3125,
          "velocity": 100
        },
        {
          "pitch": 54,
          "onset": 18.0,
          "duration": 0.3125,
          "velocity": 100
        },
        {
          "pitch": 69,
          "onset": 18.0,
          "duration": 0.5,
          "velocity": 100
        },
        {
          "pitch": 61,
          "onset": 18.1562,
          "duration": 0.3125,
          "velocity": 100
        },
        {
          "pitch": 62,
          "onset": 18.3438,
          "duration": 0.3125,
          "velocity": 100
        },
        {
          "pitch": 52,
          "onset": 18.5,
          "duration": 0.3125,
          "velocity": 100
        },
        {
          "pitch": 67,
          "onset": 18.5,
          "duration": 0.5,
          "velocity": 100
        },
        {
          "pitch": 61,
          "onset": 18.6562,
          "duration": 0.3125,
          "velocity": 100
        },
        {
          "pitch": 62,
          "onset": 18.8438,
          "duration": 0.3125,
          "velocity": 100
        },
        {
          "pitch": 50,
          "onset": 19.0,
          "duration": 0.3125,
          "velocity": 100
        },
        {
          "pitch": 66,
          "onset": 19.0,
          "duration": 0.5,
          "velocity": 100
        },
        {
          "pitch": 61,
          "onset": 19.1562,
          "duration": 0.3125,
          "velocity": 100
        },
        {
          "pitch": 62,
          "onset": 19.3438,
          "duration": 0.3125,
          "velocity": 100
        },
        {
          "pitch": 54,
          "onset": 19.5,
          "duration": 0.3125,
          "velocity": 100
        },
        {
          "pitch": 69,
          "onset": 19.5,
          "duration": 0.5,
          "velocity": 100
        },
        {
          "pitch": 61,
          "onset": 19.6562,
          "duration": 0.3125,
          "velocity": 100
        },
        {
          "pitch": 62,
          "onset": 19.8438,
          "duration": 0.1562,
          "velocity": 100
        },
        {
          "pitch": 47,
          "onset": 20.0,
          "duration": 0.5,
          "velocity": 100
        },
        {
          "pitch": 68,
          "onset": 20.0,
          "duration": 0.3125,
          "velocity": 100
        },
        {
          "pitch": 71,
          "onset": 20.1562,
          "duration": 0.3125,
          "velocity": 100
        },
        {
          "pitch": 74,
          "onset": 20.3438,
          "duration": 0.3125,
          "velocity": 100
        },
        {
          "pitch": 59,
          "onset": 20.5,
          "duration": 0.5,
          "velocity": 100
        },
        {
          "pitch": 77,
          "onset": 20.5,
          "duration": 0.3125,
          "velocity": 100
        },
        {
          "pitch": 74,
          "onset": 20.6562,
          "duration": 0.3125,
          "velocity": 100
        },
        {
          "pitch": 71,
          "onset": 20.8438,
          "duration": 0.3125,
          "velocity": 100
        },
        {
          "pitch": 74,
          "onset": 21.0,
          "duration": 0.3125,
          "velocity": 100
        },
        {
          "pitch": 71,
          "onset": 21.1562,
          "duration": 0.3125,
          "velocity": 100
        },
        {
          "pitch": 68,
          "onset": 21.3438,
          "duration": 0.3125,
          "velocity": 100
        },
        {
          "pitch": 57,
          "onset": 21.5,
          "duration": 0.5,
          "velocity": 100
        },
        {
          "pitch": 71,
          "onset": 21.5,
          "duration": 0.3125,
          "velocity": 100
        },
        {
          "pitch": 68,
          "onset": 21.6562,
          "duration": 0.3125,
          "velocity": 100
        },
        {
          "pitch": 64,
          "onset": 21.8438,
          "duration": 0.3125,
          "velocity": 100
        },
        {
          "pitch": 56,
          "onset": 22.0,
          "duration": 0.5,
          "velocity": 100
        },
        {
          "pitch": 62,
          "onset": 22.0,
          "duration": 0.3125,
          "velocity": 100
        },
        {
          "pitch": 65,
          "onset": 22.1562,
          "duration": 0.3125,
          "velocity": 100
        },
        {
          "pitch": 68,
          "onset": 22.3438,
          "duration": 0.3125,
          "velocity": 100
        },
        {
          "pitch": 44,
          "onset": 22.5,
          "duration": 0.5,
          "velocity": 100
        },
        {
          "pitch": 71,
          "onset": 22.5,
          "duration": 0.3125,
          "velocity": 100
        },
        {
          "pitch": 68,
          "onset": 22.6562,
          "duration": 0.3125,
          "velocity": 100
        },
        {
          "pitch": 65,
          "onset": 22.8438,
          "duration": 0.3125,
          "velocity": 100
        },
        {
          "pitch": 68,
          "onset": 23.0,
          "duration": 0.3125,
          "velocity": 100
        },
        {
          "pitch": 65,
          "onset": 23.1562,
          "duration": 0.3125,
          "velocity": 100
        },
        {
          "pitch": 62,
          "onset": 23.3438,
          "duration": 0.3125,
          "velocity": 100
        },
        {
          "pitch": 56,
          "onset": 23.5,
          "duration": 0.5,
          "velocity": 100
        },
        {
          "pitch": 65,
          "onset": 23.5,
          "duration": 0.3125,
          "velocity": 100
        },
        {
          "pitch": 62,
          "onset": 23.6562,
          "duration": 0.3125,
          "velocity": 100
        },
        {
          "pitch": 59,
          "onset": 23.8438,
          "duration": 0.1562,
          "velocity": 100
        },
        {
          "pitch": 57,
          "onset": 24.0,
          "duration": 0.3125,
          "velocity": 100
        },
        {
          "pitch": 60,
          "onset": 24.0,
          "duration": 0.5,
          "velocity": 100
        },
        {
          "pitch": 60,
          "onset": 24.1562,
          "duration": 0.3125,
          "velocity": 100
        },
        {
          "pitch": 64,
          "onset": 24.3438,
          "duration": 0.3125,
          "velocity": 100
        },
        {
          "pitch": 69,
          "onset": 24.5,
          "duration": 0.3125,
          "velocity": 100
        },
        {
          "pitch": 76,
          "onset": 24.5,
          "duration": 0.5,
          "velocity": 100
        },
        {
          "pitch": 64,
          "onset": 24.6562,
          "duration": 0.3125,
          "velocity": 100
        },
        {
          "pitch": 60,
          "onset": 24.8438,
          "duration": 0.3125,
          "velocity": 100
        },
        {
          "pitch": 64,
          "onset": 25.0,
          "duration": 0.3125,
          "velocity": 100
        },
        {
          "pitch": 72,
          "onset": 25.0,
          "duration": 0.5,
          "velocity": 100
        },
        {
          "pitch": 60,
          "onset": 25.1562,
          "duration": 0.3125,
          "velocity": 100
        },
        {
          "pitch": 57,
          "onset": 25.3438,
          "duration": 0.3125,
          "velocity": 100
        },
        {
          "pitch": 60,
          "onset": 25.5,
          "duration": 0.3125,
          "velocity": 100
        },
        {
          "pitch": 69,
          "onset": 25.5,
          "duration": 0.5,
          "velocity": 100
        },
        {
          "pitch": 57,
          "onset": 25.6562,
          "duration": 0.3125,
          "velocity": 100
        },
        {
          "pitch": 52,
          "onset": 25.8438,
          "duration": 0.3125,
          "velocity": 100
        },
        {
          "pitch": 48,
          "onset": 26.0,
          "duration": 0.3125,
          "velocity": 100
        },
        {
          "pitch": 64,
          "onset": 26.0,
          "duration": 0.5,
          "velocity": 100
        },
        {
          "pitch": 52,
          "onset": 26.1562,
          "duration": 0.3125,
          "velocity": 100
        },
        {
          "pitch": 57,
          "onset": 26.3438,
          "duration": 0.3125,
          "velocity": 100
        },
        {
          "pitch": 60,
          "onset": 26.5,
          "duration": 0.3125,
          "velocity": 100
        },
        {
          "pitch": 76,
          "onset": 26.5,
          "duration": 0.5,
          "velocity": 100
        },
        {
          "pitch": 57,
          "onset": 26.6562,
          "duration": 0.3125,
          "velocity": 100
        },
        {
          "pitch": 52,
          "onset": 26.8438,
          "duration": 0.3125,
          "velocity": 100
        },
        {
          "pitch": 57,
          "onset": 27.0,
          "duration": 0.3125,
          "velocity": 100
        },
        {
          "pitch": 72,
          "onset": 27.0,
          "duration": 0.5,
          "velocity": 100
        },
        {
          "pitch": 52,
          "onset": 27.1562,
          "duration": 0.3125,
          "velocity": 100
        },
        {
          "pitch": 48,
          "onset": 27.3438,
          "duration": 0.3125,
          "velocity": 100
        },
        {
          "pitch": 52,
          "onset": 27.5,
          "duration": 0.3125,
          "velocity": 100
        },
        {
          "pitch": 69,
          "onset": 27.5,
          "duration": 0.5,
          "velocity": 100
        },
        {
          "pitch": 48,
          "onset": 27.6562,
          "duration": 0.3125,
          "velocity": 100
        },
        {
          "pitch": 45,
          "onset": 27.8438,
          "duration": 0.1562,
          "velocity": 100
        },
        {
          "pitch": 42,
          "onset": 28.0,
          "duration": 0.5,
          "velocity": 100
        },
        {
          "pitch": 75,
          "onset": 28.0,
          "duration": 0.3125,
          "velocity": 100
        },
        {
          "pitch": 78,
          "onset": 28.1562,
          "duration": 0.3125,
          "velocity": 100
        },
        {
          "pitch": 81,
          "onset": 28.3438,
          "duration": 0.3125,
          "velocity": 100
        },
        {
          "pitch": 54,
          "onset": 28.5,
          "duration": 0.5,
          "velocity": 100
        },
        {
          "pitch": 84,
          "onset": 28.5,
          "duration": 0.3125,
          "velocity": 100
        },
        {
          "pitch": 81,
          "onset": 28.6562,
          "duration": 0.3125,
          "velocity": 100
        },
        {
          "pitch": 78,
          "onset": 28.8438,
          "duration": 0.3125,
          "velocity": 100
        },
        {
          "pitch": 81,
          "onset": 29.0,
          "duration": 0.3125,
          "velocity": 100
        },
        {
          "pitch": 78,
          "onset": 29.1562,
          "duration": 0.3125,
          "velocity": 100
        },
        {
          "pitch": 75,
          "onset": 29.3438,
          "duration": 0.3125,
          "velocity": 100
        },
        {
          "pitch": 52,
          "onset": 29.5,
          "duration": 0.5,
          "velocity": 100
        },
        {
          "pitch": 78,
          "onset": 29.5,
          "duration": 0.3125,
          "velocity": 100
        },
        {
          "pitch": 75,
          "onset": 29.6562,
          "duration": 0.3125,
          "velocity": 100
        },
        {
          "pitch": 71,
          "onset": 29.8438,
          "duration": 0.3125,
          "velocity": 100
        },
        {
          "pitch": 51,
          "onset": 30.0,
          "duration": 0.5,
          "velocity": 100
        },
        {
          "pitch": 69,
          "onset": 30.0,
          "duration": 0.3125,
          "velocity": 100
        },
        {
          "pitch": 72,
          "onset": 30.1562,
          "duration": 0.3125,
          "velocity": 100
        },
        {
          "pitch": 75,
          "onset": 30.3438,
          "duration": 0.3125,
          "velocity": 100
        },
        {
          "pitch": 39,
          "onset": 30.5,
          "duration": 0.5,
          "velocity": 100
        },
        {
          "pitch": 78,
          "onset": 30.5,
          "duration": 0.3125,
          "velocity": 100
        },
        {
          "pitch": 75,
          "onset": 30.6562,
          "duration": 0.3125,
          "velocity": 100
        },
        {
          "pitch": 72,
          "onset": 30.8438,
          "duration": 0.3125,
          "velocity": 100
        },
        {
          "pitch": 75,
          "onset": 31.0,
          "duration": 0.3125,
          "velocity": 100
        },
        {
          "pitch": 72,
          "onset": 31.1562,
          "duration": 0.3125,
          "velocity": 100
        },
        {
          "pitch": 69,
          "onset": 31.3438,
          "duration": 0.3125,
          "velocity": 100
        },
        {
          "pitch": 51,
          "onset": 31.5,
          "duration": 0.5,
          "velocity": 100
        },
        {
          "pitch": 72,
          "onset": 31.5,
          "duration": 0.3125,
          "velocity": 100
        },
        {
          "pitch": 69,
          "onset": 31.6562,
          "duration": 0.3125,
          "velocity": 100
        },
        {
          "pitch": 66,
          "onset": 31.8438,
          "duration": 0.1562,
          "velocity": 100
        },
        {
          "pitch": 52,
          "onset": 32.0,
          "duration": 0.3125,
          "velocity": 100
        },
        {
          "pitch": 67,
          "onset": 32.0,
          "duration": 0.5,
          "velocity": 100
        },
        {
          "pitch": 63,
          "onset": 32.1562,
          "duration": 0.3125,
          "velocity": 100
        },
        {
          "pitch": 64,
          "onset": 32.3438,
          "duration": 0.3125,
          "velocity": 100
        },
        {
          "pitch": 54,
          "onset": 32.5,
          "duration": 0.3125,
          "velocity": 100
        },
        {
          "pitch": 69,
          "onset": 32.5,
          "duration": 0.5,
          "velocity": 100
        },
        {
          "pitch": 63,
          "onset": 32.6562,
          "duration": 0.3125,
          "velocity": 100
        },
        {
          "pitch": 64,
          "onset": 32.8438,
          "duration": 0.3125,
          "velocity": 100
        },
        {
          "pitch": 55,
          "onset": 33.0,
          "duration": 0.3125,
          "velocity": 100
        },
        {
          "pitch": 71,
          "onset": 33.0,
          "duration": 0.5,
          "velocity": 100
        },
        {
          "pitch": 63,
          "onset": 33.1562,
          "duration": 0.3125,
          "velocity": 100
        },
        {
          "pitch": 64,
          "onset": 33.3438,
          "duration": 0.3125,
          "velocity": 100
        },
        {
          "pitch": 57,
          "onset": 33.5,
          "duration": 0.3125,
          "velocity": 100
        },
        {
          "pitch": 72,
          "onset": 33.5,
          "duration": 0.5,
          "velocity": 100
        },
        {
          "pitch": 63,
          "onset": 33.6562,
          "duration": 0.3125,
          "velocity": 100
        },
        {
          "pitch": 64,
          "onset": 33.8438,
          "duration": 0.3125,
          "velocity": 100
        },
        {
          "pitch": 55,
          "onset": 34.0,
          "duration": 0.3125,
          "velocity": 100
        },
        {
          "pitch": 71,
          "onset": 34.0,
          "duration": 0.5,
          "velocity": 100
        },
        {
          "pitch": 63,
          "onset": 34.1562,
          "duration": 0.3125,
          "velocity": 100
        },
        {
          "pitch": 64,
          "onset": 34.3438,
          "duration": 0.3125,
          "velocity": 100
        },
        {
          "pitch": 54,
          "onset": 34.5,
          "duration": 0.3125,
          "velocity": 100
        },
        {
          "pitch": 69,
          "onset": 34.5,
          "duration": 0.5,
          "velocity": 100
        },
        {
          "pitch": 63,
          "onset": 34.6562,
          "duration": 0.3125,
          "velocity": 100
        },
        {
          "pitch": 64,
          "onset": 34.8438,
          "duration": 0.3125,
          "velocity": 100
        },
        {
          "pitch": 52,
          "onset": 35.0,
          "duration": 0.3125,
          "velocity": 100
        },
        {
          "pitch": 67,
          "onset": 35.0,
          "duration": 0.5,
          "velocity": 100
        },
        {
          "pitch": 63,
          "onset": 35.1562,
          "duration": 0.3125,
          "velocity": 100
        },
        {
          "pitch": 64,
          "onset": 35.3438,
          "duration": 0.3125,
          "velocity": 100
        },
        {
          "pitch": 55,
          "onset": 35.5,
          "duration": 0.3125,
          "velocity": 100
        },
        {
          "pitch": 71,
          "onset": 35.5,
          "duration": 0.5,
          "velocity": 100
        },
        {
          "pitch": 63,
          "onset": 35.6562,
          "duration": 0.3125,
          "velocity": 100
        },
        {
          "pitch": 64,
          "onset": 35.8438,
          "duration": 0.1562,
          "velocity": 100
        },
        {
          "pitch": 49,
          "onset": 36.0,
          "duration": 0.5,
          "velocity": 100
        },
        {
          "pitch": 69,
          "onset": 36.0,
          "duration": 0.3125,
          "velocity": 100
        },
        {
          "pitch": 68,
          "onset": 36.1562,
          "duration": 0.3125,
          "velocity": 100
        },
        {
          "pitch": 69,
          "onset": 36.3438,
          "duration": 0.3125,
          "velocity": 100
        },
        {
          "pitch": 50,
          "onset": 36.5,
          "duration": 0.5,
          "velocity": 100
        },
        {
          "pitch": 71,
          "onset": 36.5,
          "duration": 0.3125,
          "velocity": 100
        },
        {
          "pitch": 68,
          "onset": 36.6562,
          "duration": 0.3125,
          "velocity": 100
        },
        {
          "pitch": 69,
          "onset": 36.8438,
          "duration": 0.3125,
          "velocity": 100
        },
        {
          "pitch": 52,
          "onset": 37.0,
          "duration": 0.5,
          "velocity": 100
        },
        {
          "pitch": 73,
          "onset": 37.0,
          "duration": 0.3125,
          "velocity": 100
        },
        {
          "pitch": 68,
          "onset": 37.1562,
          "duration": 0.3125,
          "velocity": 100
        },
        {
          "pitch": 69,
          "onset": 37.3438,
          "duration": 0.3125,
          "velocity": 100
        },
        {
          "pitch": 54,
          "onset": 37.5,
          "duration": 0.5,
          "velocity": 100
        },
        {
          "pitch": 74,
          "onset": 37.5,
          "duration": 0.3125,
          "velocity": 100
        },
        {
          "pitch": 68,
          "onset": 37.6562,
          "duration": 0.3125,
          "velocity": 100
        },
        {
          "pitch": 69,
          "onset": 37.8438,
          "duration": 0.3125,
          "velocity": 100
        },
        {
          "pitch": 49,
          "onset": 38.0,
          "duration": 0.5,
          "velocity": 100
        },
        {
          "pitch": 76,
          "onset": 38.0,
          "duration": 0.3125,
          "velocity": 100
        },
        {
          "pitch": 68,
          "onset": 38.1562,
          "duration": 0.3125,
          "velocity": 100
        },
        {
          "pitch": 69,
          "onset": 38.3438,
          "duration": 0.3125,
          "velocity": 100
        },
        {
          "pitch": 47,
          "onset": 38.5,
          "duration": 0.5,
          "velocity": 100
        },
        {
          "pitch": 78,
          "onset": 38.5,
          "duration": 0.3125,
          "velocity": 100
        },
        {
          "pitch": 68,
          "onset": 38.6562,
          "duration": 0.3125,
          "velocity": 100
        },
        {
          "pitch": 69,
          "onset": 38.8438,
          "duration": 0.3125,
          "velocity": 100
        },
        {
          "pitch": 45,
          "onset": 39.0,
          "duration": 0.5,
          "velocity": 100
        },
        {
          "pitch": 79,
          "onset": 39.0,
          "duration": 0.3125,
          "velocity": 100
        },
        {
          "pitch": 76,
          "onset": 39.1562,
          "duration": 0.3125,
          "velocity": 100
        },
        {
          "pitch": 73,
          "onset": 39.3438,
          "duration": 0.3125,
          "velocity": 100
        },
        {
          "pitch": 49,
          "onset": 39.5,
          "duration": 0.5,
          "velocity": 100
        },
        {
          "pitch": 69,
          "onset": 39.5,
          "duration": 0.3125,
          "velocity": 100
        },
        {
          "pitch": 73,
          "onset": 39.6562,
          "duration": 0.3125,
          "velocity": 100
        },
        {
          "pitch": 76,
          "onset": 39.8438,
          "duration": 0.1562,
          "velocity": 100
        },
        {
          "pitch": 50,
          "onset": 40.0,
          "duration": 0.3125,
          "velocity": 100
        },
        {
          "pitch": 78,
          "onset": 40.0,
          "duration": 0.5,
          "velocity": 100
        },
        {
          "pitch": 54,
          "onset": 40.1562,
          "duration": 0.3125,
          "velocity": 100
        },
        {
          "pitch": 57,
          "onset": 40.3438,
          "duration": 0.3125,
          "velocity": 100
        },
        {
          "pitch": 62,
          "onset": 40.5,
          "duration": 0.3125,
          "velocity": 100
        },
        {
          "pitch": 57,
          "onset": 40.6562,
          "duration": 0.3125,
          "velocity": 100
        },
        {
          "pitch": 54,
          "onset": 40.8438,
          "duration": 0.3125,
          "velocity": 100
        },
        {
          "pitch": 50,
          "onset": 41.0,
          "duration": 0.5,
          "velocity": 100
        },
        {
          "pitch": 81,
          "onset": 41.0,
          "duration": 0.3125,
          "velocity": 100
        },
        {
          "pitch": 78,
          "onset": 41.1562,
          "duration": 0.3125,
          "velocity": 100
        },
        {
          "pitch": 74,
          "onset": 41.3438,
          "duration": 0.3125,
          "velocity": 100
        },
        {
          "pitch": 62,
          "onset": 41.5,
          "duration": 0.5,
          "velocity": 100
        },
        {
          "pitch": 72,
          "onset": 41.5,
          "duration": 0.3125,
          "velocity": 100
        },
        {
          "pitch": 74,
          "onset": 41.6562,
          "duration": 0.3125,
          "velocity": 100
        },
        {
          "pitch": 78,
          "onset": 41.8438,
          "duration": 0.3125,
          "velocity": 100
        },
        {
          "pitch": 50,
          "onset": 42.0,
          "duration": 0.3125,
          "velocity": 100
        },
        {
          "pitch": 81,
          "onset": 42.0,
          "duration": 0.5,
          "velocity": 100
        },
        {
          "pitch": 55,
          "onset": 42.1562,
          "duration": 0.3125,
          "velocity": 100
        },
        {
          "pitch": 59,
          "onset": 42.3438,
          "duration": 0.3125,
          "velocity": 100
        },
        {
          "pitch": 62,
          "onset": 42.5,
          "duration": 0.3125,
          "velocity": 100
        },
        {
          "pitch": 79,
          "onset": 42.5,
          "duration": 0.5,
          "velocity": 100
        },
        {
          "pitch": 59,
          "onset": 42.6562,
          "duration": 0.3125,
          "velocity": 100
        },
        {
          "pitch": 55,
          "onset": 42.8438,
          "duration": 0.3125,
          "velocity": 100
        },
        {
          "pitch": 50,
          "onset": 43.0,
          "duration": 0.5,
          "velocity": 100
        },
        {
          "pitch": 79,
          "onset": 43.0,
          "duration": 0.3125,
          "velocity": 100
        },
        {
          "pitch": 76,
          "onset": 43.1562,
          "duration": 0.3125,
          "velocity": 100
        },
        {
          "pitch": 73,
          "onset": 43.3438,
          "duration": 0.3125,
          "velocity": 100
        },
        {
          "pitch": 62,
          "onset": 43.5,
          "duration": 0.5,
          "velocity": 100
        },
        {
          "pitch": 69,
          "onset": 43.5,
          "duration": 0.3125,
          "velocity": 100
        },
        {
          "pitch": 73,
          "onset": 43.6562,
          "duration": 0.3125,
          "velocity": 100
        },
        {
          "pitch": 76,
          "onset": 43.8438,
          "duration": 0.1562,
          "velocity": 100
        },
        {
          "pitch": 50,
          "onset": 44.0,
          "duration": 0.3125,
          "velocity": 100
        },
        {
          "pitch": 79,
          "onset": 44.0,
          "duration": 0.5,
          "velocity": 100
        },
        {
          "pitch": 57,
          "onset": 44.1562,
          "duration": 0.3125,
          "velocity": 100
        },
        {
          "pitch": 61,
          "onset": 44.3438,
          "duration": 0.3125,
          "velocity": 100
        },
        {
          "pitch": 62,
          "onset": 44.5,
          "duration": 0.3125,
          "velocity": 100
        },
        {
          "pitch": 78,
          "onset": 44.5,
          "duration": 0.5,
          "velocity": 100
        },
        {
          "pitch": 57,
          "onset": 44.6562,
          "duration": 0.3125,
          "velocity": 100
        },
        {
          "pitch": 54,
          "onset": 44.8438,
          "duration": 0.3125,
          "velocity": 100
        },
        {
          "pitch": 50,
          "onset": 45.0,
          "duration": 0.5,
          "velocity": 100
        },
        {
          "pitch": 78,
          "onset": 45.0,
          "duration": 0.3125,
          "velocity": 100
        },
        {
          "pitch": 74,
          "onset": 45.1562,
          "duration": 0.3125,
          "velocity": 100
        },
        {
          "pitch": 71,
          "onset": 45.3438,
          "duration": 0.3125,
          "velocity": 100
        },
        {
          "pitch": 62,
          "onset": 45.5,
          "duration": 0.5,
          "velocity": 100
        },
        {
          "pitch": 67,
          "onset": 45.5,
          "duration": 0.3125,
          "velocity": 100
        },
        {
          "pitch": 71,
          "onset": 45.6562,
          "duration": 0.3125,
          "velocity": 100
        },
        {
          "pitch": 74,
          "onset": 45.8438,
          "duration": 0.3125,
          "velocity": 100
        },
        {
          "pitch": 50,
          "onset": 46.0,
          "duration": 0.3125,
          "velocity": 100
        },
        {
          "pitch": 78,
          "onset": 46.0,
          "duration": 0.5,
          "velocity": 100
        },
        {
          "pitch": 52,
          "onset": 46.1562,
          "duration": 0.3125,
          "velocity": 100
        },
        {
          "pitch": 55,
          "onset": 46.3438,
          "duration": 0.3125,
          "velocity": 100
        },
        {
          "pitch": 59,
          "onset": 46.5,
          "duration": 0.3125,
          "velocity": 100
        },
        {
          "pitch": 76,
          "onset": 46.5,
          "duration": 0.5,
          "velocity": 100
        },
        {
          "pitch": 55,
          "onset": 46.6562,
          "duration": 0.3125,
          "velocity": 100
        },
        {
          "pitch": 52,
          "onset": 46.8438,
          "duration": 0.3125,
          "velocity": 100
        },
        {
          "pitch": 50,
          "onset": 47.0,
          "duration": 0.5,
          "velocity": 100
        },
        {
          "pitch": 76,
          "onset": 47.0,
          "duration": 0.3125,
          "velocity": 100
        },
        {
          "pitch": 73,
          "onset": 47.1562,
          "duration": 0.3125,
          "velocity": 100
        },
        {
          "pitch": 69,
          "onset": 47.3438,
          "duration": 0.3125,
          "velocity": 100
        },
        {
          "pitch": 62,
          "onset": 47.5,
          "duration": 0.5,
          "velocity": 100
        },
        {
          "pitch": 67,
          "onset": 47.5,
          "duration": 0.3125,
          "velocity": 100
        },
        {
          "pitch": 69,
          "onset": 47.6562,
          "duration": 0.3125,
          "velocity": 100
        },
        {
          "pitch": 73,
          "onset": 47.8438,
          "duration": 0.1562,
          "velocity": 100
        },
        {
          "pitch": 50,
          "onset": 48.0,
          "duration": 0.3125,
          "velocity": 100
        },
        {
          "pitch": 76,
          "onset": 48.0,
          "duration": 0.5,
          "velocity": 100
        },
        {
          "pitch": 54,
          "onset": 48.1562,
          "duration": 0.3125,
          "velocity": 100
        },
        {
          "pitch": 57,
          "onset": 48.3438,
          "duration": 0.3125,
          "velocity": 100
        },
        {
          "pitch": 62,
          "onset": 48.5,
          "duration": 0.3125,
          "velocity": 100
        },
        {
          "pitch": 74,
          "onset": 48.5,
          "duration": 0.5,
          "velocity": 100
        },
        {
          "pitch": 57,
          "onset": 48.6562,
          "duration": 0.3125,
          "velocity": 100
        },
        {
          "pitch": 54,
          "onset": 48.8438,
          "duration": 0.3125,
          "velocity": 100
        },
        {
          "pitch": 57,
          "onset": 49.0,
          "duration": 0.3125,
          "velocity": 100
        },
        {
          "pitch": 54,
          "onset": 49.1562,
          "duration": 0.3125,
          "velocity": 100
        },
        {
          "pitch": 50,
          "onset": 49.3438,
          "duration": 0.3125,
          "velocity": 100
        },
        {
          "pitch": 54,
          "onset": 49.5,
          "duration": 0.3125,
          "velocity": 100
        },
        {
          "pitch": 74,
          "onset": 49.5,
          "duration": 0.5,
          "velocity": 100
        },
        {
          "pitch": 50,
          "onset": 49.6562,
          "duration": 0.3125,
          "velocity": 100
        },
        {
          "pitch": 48,
          "onset": 49.8438,
          "duration": 0.3125,
          "velocity": 100
        },
        {
          "pitch": 47,
          "onset": 50.0,
          "duration": 0.3125,
          "velocity": 100
        },
        {
          "pitch": 74,
          "onset": 50.0,
          "duration": 0.3125,
          "velocity": 100
        },
        {
          "pitch": 50,
          "onset": 50.1562,
          "duration": 0.3125,
          "velocity": 100
        },
        {
          "pitch": 72,
          "onset": 50.1562,
          "duration": 0.3125,
          "velocity": 100
        },
        {
          "pitch": 54,
          "onset": 50.3438,
          "duration": 0.3125,
          "velocity": 100
        },
        {
          "pitch": 71,
          "onset": 50.3438,
          "duration": 0.1562,
          "velocity": 100
        },
        {
          "pitch": 55,
          "onset": 50.5,
          "duration": 0.3125,
          "velocity": 100
        },
        {
          "pitch": 71,
          "onset": 50.5,
          "duration": 0.3125,
          "velocity": 100
        },
        {
          "pitch": 50,
          "onset": 50.6562,
          "duration": 0.3125,
          "velocity": 100
        },
        {
          "pitch": 69,
          "onset": 50.6562,
          "duration": 0.3125,
          "velocity": 100
        },
        {
          "pitch": 47,
          "onset": 50.8438,
          "duration": 0.3125,
          "velocity": 100
        },
        {
          "pitch": 67,
          "onset": 50.8438,
          "duration": 0.1562,
          "velocity": 100
        },
        {
          "pitch": 50,
          "onset": 51.0,
          "duration": 0.3125,
          "velocity": 100
        },
        {
          "pitch": 67,
          "onset": 51.0,
          "duration": 0.3125,
          "velocity": 100
        },
        {
          "pitch": 47,
          "onset": 51.1562,
          "duration": 0.3125,
          "velocity": 100
        },
        {
          "pitch": 71,
          "onset": 51.1562,
          "duration": 0.3125,
          "velocity": 100
        },
        {
          "pitch": 43,
          "onset": 51.3438,
          "duration": 0.3125,
          "velocity": 100
        },
        {
          "pitch": 74,
          "onset": 51.3438,
          "duration": 0.3125,
          "velocity": 100
        },
        {
          "pitch": 47,
          "onset": 51.5,
          "duration": 0.3125,
          "velocity": 100
        },
        {
          "pitch": 77,
          "onset": 51.5,
          "duration": 0.3125,
          "velocity": 100
        },
        {
          "pitch": 43,
          "onset": 51.6562,
          "duration": 0.3125,
          "velocity": 100
        },
        {
          "pitch": 76,
          "onset": 51.6562,
          "duration": 0.3125,
          "velocity": 100
        },
        {
          "pitch": 41,
          "onset": 51.8438,
          "duration": 0.1562,
          "velocity": 100
        },
        {
          "pitch": 74,
          "onset": 51.8438,
          "duration": 0.1562,
          "velocity": 100
        },
        {
          "pitch": 40,
          "onset": 52.0,
          "duration": 0.3125,
          "velocity": 100
        },
        {
          "pitch": 74,
          "onset": 52.0,
          "duration": 0.3125,
          "velocity": 100
        },
        {
          "pitch": 43,
          "onset": 52.1562,
          "duration": 0.3125,
          "velocity": 100
        },
        {
          "pitch": 76,
          "onset": 52.1562,
          "duration": 0.3125,
          "velocity": 100
        },
        {
          "pitch": 47,
          "onset": 52.3438,
          "duration": 0.3125,
          "velocity": 100
        },
        {
          "pitch": 77,
          "onset": 52.3438,
          "duration": 0.3125,
          "velocity": 100
        },
        {
          "pitch": 48,
          "onset": 52.5,
          "duration": 0.3125,
          "velocity": 100
        },
        {
          "pitch": 76,
          "onset": 52.5,
          "duration": 0.5,
          "velocity": 100
        },
        {
          "pitch": 52,
          "onset": 52.6562,
          "duration": 0.3125,
          "velocity": 100
        },
        {
          "pitch": 55,
          "onset": 52.8438,
          "duration": 0.3125,
          "velocity": 100
        },
        {
          "pitch": 60,
          "onset": 53.0,
          "duration": 0.3125,
          "velocity": 100
        },
        {
          "pitch": 55,
          "onset": 53.1562,
          "duration": 0.3125,
          "velocity": 100
        },
        {
          "pitch": 52,
          "onset": 53.3438,
          "duration": 0.3125,
          "velocity": 100
        },
        {
          "pitch": 55,
          "onset": 53.5,
          "duration": 0.3125,
          "velocity": 100
        },
        {
          "pitch": 76,
          "onset": 53.5,
          "duration": 0.5,
          "velocity": 100
        },
        {
          "pitch": 52,
          "onset": 53.6562,
          "duration": 0.3125,
          "velocity": 100
        },
        {
          "pitch": 50,
          "onset": 53.8438,
          "duration": 0.3125,
          "velocity": 100
        },
        {
          "pitch": 49,
          "onset": 54.0,
          "duration": 0.3125,
          "velocity": 100
        },
        {
          "pitch": 76,
          "onset": 54.0,
          "duration": 0.3125,
          "velocity": 100
        },
        {
          "pitch": 52,
          "onset": 54.1562,
          "duration": 0.3125,
          "velocity": 100
        },
        {
          "pitch": 74,
          "onset": 54.1562,
          "duration": 0.3125,
          "velocity": 100
        },
        {
          "pitch": 55,
          "onset": 54.3438,
          "duration": 0.3125,
          "velocity": 100
        },
        {
          "pitch": 73,
          "onset": 54.3438,
          "duration": 0.1562,
          "velocity": 100
        },
        {
          "pitch": 57,
          "onset": 54.5,
          "duration": 0.3125,
          "velocity": 100
        },
        {
          "pitch": 73,
          "onset": 54.5,
          "duration": 0.3125,
          "velocity": 100
        },
        {
          "pitch": 52,
          "onset": 54.6562,
          "duration": 0.3125,
          "velocity": 100
        },
        {
          "pitch": 71,
          "onset": 54.6562,
          "duration": 0.3125,
          "velocity": 100
        },
        {
          "pitch": 49,
          "onset": 54.8438,
          "duration": 0.3125,
          "velocity": 100
        },
        {
          "pitch": 69,
          "onset": 54.8438,
          "duration": 0.1562,
          "velocity": 100
        },
        {
          "pitch": 52,
          "onset": 55.0,
          "duration": 0.3125,
          "velocity": 100
        },
        {
          "pitch": 69,
          "onset": 55.0,
          "duration": 0.3125,
          "velocity": 100
        },
        {
          "pitch": 49,
          "onset": 55.1562,
          "duration": 0.3125,
          "velocity": 100
        },
        {
          "pitch": 73,
          "onset": 55.1562,
          "duration": 0.3125,
          "velocity": 100
        },
        {
          "pitch": 45,
          "onset": 55.3438,
          "duration": 0.3125,
          "velocity": 100
        },
        {
          "pitch": 76,
          "onset": 55.3438,
          "duration": 0.3125,
          "velocity": 100
        },
        {
          "pitch": 49,
          "onset": 55.5,
          "duration": 0.3125,
          "velocity": 100
        },
        {
          "pitch": 79,
          "onset": 55.5,
          "duration": 0.3125,
          "velocity": 100
        },
        {
          "pitch": 45,
          "onset": 55.6562,
          "duration": 0.3125,
          "velocity": 100
        },
        {
          "pitch": 78,
          "onset": 55.6562,
          "duration": 0.3125,
          "velocity": 100
        },
        {
          "pitch": 43,
          "onset": 55.8438,
          "duration": 0.1562,
          "velocity": 100
        },
        {
          "pitch": 76,
          "onset": 55.8438,
          "duration": 0.1562,
          "velocity": 100
        },
        {
          "pitch": 42,
          "onset": 56.0,
          "duration": 0.3125,
          "velocity": 100
        },
        {
          "pitch": 76,
          "onset": 56.0,
          "duration": 0.3125,
          "velocity": 100
        },
        {
          "pitch": 45,
          "onset": 56.1562,
          "duration": 0.3125,
          "velocity": 100
        },
        {
          "pitch": 78,
          "onset": 56.1562,
          "duration": 0.3125,
          "velocity": 100
        },
        {
          "pitch": 49,
          "onset": 56.3438,
          "duration": 0.3125,
          "velocity": 100
        },
        {
          "pitch": 79,
          "onset": 56.3438,
          "duration": 0.1562,
          "velocity": 100
        },
        {
          "pitch": 50,
          "onset": 56.5,
          "duration": 0.3125,
          "velocity": 100
        },
        {
          "pitch": 78,
          "onset": 56.5,
          "duration": 0.5,
          "velocity": 100
        },
        {
          "pitch": 54,
          "onset": 56.6562,
          "duration": 0.3125,
          "velocity": 100
        },
        {
          "pitch": 57,
          "onset": 56.8438,
          "duration": 0.3125,
          "velocity": 100
        },
        {
          "pitch": 62,
          "onset": 57.0,
          "duration": 0.3125,
          "velocity": 100
        },
        {
          "pitch": 57,
          "onset": 57.1562,
          "duration": 0.3125,
          "velocity": 100
        },
        {
          "pitch": 54,
          "onset": 57.3438,
          "duration": 0.3125,
          "velocity": 100
        },
        {
          "pitch": 57,
          "onset": 57.5,
          "duration": 0.3125,
          "velocity": 100
        },
        {
          "pitch": 81,
          "onset": 57.5,
          "duration": 0.5,
          "velocity": 100
        },
        {
          "pitch": 54,
          "onset": 57.6562,
          "duration": 0.3125,
          "velocity": 100
        },
        {
          "pitch": 50,
          "onset": 57.8438,
          "duration": 0.3125,
          "velocity": 100
        },
        {
          "pitch": 54,
          "onset": 58.0,
          "duration": 0.3125,
          "velocity": 100
        },
        {
          "pitch": 81,
          "onset": 58.0,
          "duration": 0.3125,
          "velocity": 100
        },
        {
          "pitch": 50,
          "onset": 58.1562,
          "duration": 0.3125,
          "velocity": 100
        },
        {
          "pitch": 79,
          "onset": 58.1562,
          "duration": 0.3125,
          "velocity": 100
        },
        {
          "pitch": 47,
          "onset": 58.3438,
          "duration": 0.3125,
          "velocity": 100
        },
        {
          "pitch": 78,
          "onset": 58.3438,
          "duration": 0.1562,
          "velocity": 100
        },
        {
          "pitch": 50,
          "onset": 58.5,
          "duration": 0.3125,
          "velocity": 100
        },
        {
          "pitch": 78,
          "onset": 58.5,
          "duration": 0.3125,
          "velocity": 100
        },
        {
          "pitch": 47,
          "onset": 58.6562,
          "duration": 0.3125,
          "velocity": 100
        },
        {
          "pitch": 76,
          "onset": 58.6562,
          "duration": 0.3125,
          "velocity": 100
        },
        {
          "pitch": 42,
          "onset": 58.8438,
          "duration": 0.1562,
          "velocity": 100
        },
        {
          "pitch": 74,
          "onset": 58.8438,
          "duration": 0.1562,
          "velocity": 100
        },
        {
          "pitch": 38,
          "onset": 59.0,
          "duration": 0.5,
          "velocity": 100
        },
        {
          "pitch": 74,
          "onset": 59.0,
          "duration": 0.3125,
          "velocity": 100
        },
        {
          "pitch": 78,
          "onset": 59.1562,
          "duration": 0.3125,
          "velocity": 100
        },
        {
          "pitch": 81,
          "onset": 59.3438,
          "duration": 0.3125,
          "velocity": 100
        },
        {
          "pitch": 50,
          "onset": 59.5,
          "duration": 0.5,
          "velocity": 100
        },
        {
          "pitch": 84,
          "onset": 59.5,
          "duration": 0.3125,
          "velocity": 100
        },
        {
          "pitch": 83,
          "onset": 59.6562,
          "duration": 0.3125,
          "velocity": 100
        },
        {
          "pitch": 81,
          "onset": 59.8438,
          "duration": 0.1562,
          "velocity": 100
        },
        {
          "pitch": 43,
          "onset": 60.0,
          "duration": 0.6562,
          "velocity": 100
        },
        {
          "pitch": 81,
          "onset": 60.0,
          "duration": 0.3125,
          "velocity": 100
        },
        {
          "pitch": 83,
          "onset": 60.1562,
          "duration": 0.3125,
          "velocity": 100
        },
        {
          "pitch": 84,
          "onset": 60.3438,
          "duration": 0.3125,
          "velocity": 100
        },
        {
          "pitch": 83,
          "onset": 60.5,
          "duration": 0.6562,
          "velocity": 100
        },
        {
          "pitch": 47,
          "onset": 60.6562,
          "duration": 0.3125,
          "velocity": 100
        },
        {
          "pitch": 50,
          "onset": 60.8438,
          "duration": 0.3125,
          "velocity": 100
        },
        {
          "pitch": 55,
          "onset": 61.0,
          "duration": 0.3125,
          "velocity": 100
        },
        {
          "pitch": 57,
          "onset": 61.1562,
          "duration": 0.3125,
          "velocity": 100
        },
        {
          "pitch": 81,
          "onset": 61.1562,
          "duration": 0.3125,
          "velocity": 100
        },
        {
          "pitch": 59,
          "onset": 61.3438,
          "duration": 0.1562,
          "velocity": 100
        },
        {
          "pitch": 79,
          "onset": 61.3438,
          "duration": 0.3125,
          "velocity": 100
        },
        {
          "pitch": 59,
          "onset": 61.5,
          "duration": 0.3125,
          "velocity": 100
        },
        {
          "pitch": 77,
          "onset": 61.5,
          "duration": 0.3125,
          "velocity": 100
        },
        {
          "pitch": 60,
          "onset": 61.6562,
          "duration": 0.3125,
          "velocity": 100
        },
        {
          "pitch": 76,
          "onset": 61.6562,
          "duration": 0.3125,
          "velocity": 100
        },
        {
          "pitch": 62,
          "onset": 61.8438,
          "duration": 0.3125,
          "velocity": 100
        },
        {
          "pitch": 74,
          "onset": 61.8438,
          "duration": 0.3125,
          "velocity": 100
        },
        {
          "pitch": 64,
          "onset": 62.0,
          "duration": 0.5,
          "velocity": 100
        },
        {
          "pitch": 72,
          "onset": 62.0,
          "duration": 0.3125,
          "velocity": 100
        },
        {
          "pitch": 76,
          "onset": 62.1562,
          "duration": 0.3125,
          "velocity": 100
        },
        {
          "pitch": 79,
          "onset": 62.3438,
          "duration": 0.3125,
          "velocity": 100
        },
        {
          "pitch": 60,
          "onset": 62.5,
          "duration": 0.3125,
          "velocity": 100
        },
        {
          "pitch": 81,
          "onset": 62.5,
          "duration": 0.3125,
          "velocity": 100
        },
        {
          "pitch": 57,
          "onset": 62.6562,
          "duration": 0.3125,
          "velocity": 100
        },
        {
          "pitch": 78,
          "onset": 62.6562,
          "duration": 0.3125,
          "velocity": 100
        },
        {
          "pitch": 54,
          "onset": 62.8438,
          "duration": 0.3125,
          "velocity": 100
        },
        {
          "pitch": 74,
          "onset": 62.8438,
          "duration": 0.3125,
          "velocity": 100
        },
        {
          "pitch": 62,
          "onset": 63.0,
          "duration": 0.5,
          "velocity": 100
        },
        {
          "pitch": 71,
          "onset": 63.0,
          "duration": 0.3125,
          "velocity": 100
        },
        {
          "pitch": 74,
          "onset": 63.1562,
          "duration": 0.3125,
          "velocity": 100
        },
        {
          "pitch": 78,
          "onset": 63.3438,
          "duration": 0.3125,
          "velocity": 100
        },
        {
          "pitch": 59,
          "onset": 63.5,
          "duration": 0.3125,
          "velocity": 100
        },
        {
          "pitch": 79,
          "onset": 63.5,
          "duration": 0.3125,
          "velocity": 100
        },
        {
          "pitch": 55,
          "onset": 63.6562,
          "duration": 0.3125,
          "velocity": 100
        },
        {
          "pitch": 76,
          "onset": 63.6562,
          "duration": 0.3125,
          "velocity": 100
        },
        {
          "pitch": 52,
          "onset": 63.8438,
          "duration": 0.1562,
          "velocity": 100
        },
        {
          "pitch": 72,
          "onset": 63.8438,
          "duration": 0.1562,
          "velocity": 100
        },
        {
          "pitch": 60,
          "onset": 64.0,
          "duration": 0.5,
          "velocity": 100
        },
        {
          "pitch": 69,
          "onset": 64.0,
          "duration": 0.3125,
          "velocity": 100
        },
        {
          "pitch": 72,
          "onset": 64.1562,
          "duration": 0.3125,
          "velocity": 100
        },
        {
          "pitch": 76,
          "onset": 64.3438,
          "duration": 0.3125,
          "velocity": 100
        },
        {
          "pitch": 57,
          "onset": 64.5,
          "duration": 0.3125,
          "velocity": 100
        },
        {
          "pitch": 78,
          "onset": 64.5,
          "duration": 0.3125,
          "velocity": 100
        },
        {
          "pitch": 54,
          "onset": 64.6562,
          "duration": 0.3125,
          "velocity": 100
        },
        {
          "pitch": 74,
          "onset": 64.6562,
          "duration": 0.3125,
          "velocity": 100
        },
        {
          "pitch": 50,
          "onset": 64.8438,
          "duration": 0.3125,
          "velocity": 100
        },
        {
          "pitch": 71,
          "onset": 64.8438,
          "duration": 0.3125,
          "velocity": 100
        },
        {
          "pitch": 59,
          "onset": 65.0,
          "duration": 0.5,
          "velocity": 100
        },
        {
          "pitch": 67,
          "onset": 65.0,
          "duration": 0.3125,
          "velocity": 100
        },
        {
          "pitch": 71,
          "onset": 65.1562,
          "duration": 0.3125,
          "velocity": 100
        },
        {
          "pitch": 74,
          "onset": 65.3438,
          "duration": 0.3125,
          "velocity": 100
        },
        {
          "pitch": 55,
          "onset": 65.5,
          "duration": 0.3125,
          "velocity": 100
        },
        {
          "pitch": 76,
          "onset": 65.5,
          "duration": 0.3125,
          "velocity": 100
        },
        {
          "pitch": 52,
          "onset": 65.6562,
          "duration": 0.3125,
          "velocity": 100
        },
        {
          "pitch": 72,
          "onset": 65.6562,
          "duration": 0.3125,
          "velocity": 100
        },
        {
          "pitch": 48,
          "onset": 65.8438,
          "duration": 0.3125,
          "velocity": 100
        },
        {
          "pitch": 69,
          "onset": 65.8438,
          "duration": 0.3125,
          "velocity": 100
        },
        {
          "pitch": 57,
          "onset": 66.0,
          "duration": 0.5,
          "velocity": 100
        },
        {
          "pitch": 66,
          "onset": 66.0,
          "duration": 0.3125,
          "velocity": 100
        },
        {
          "pitch": 69,
          "onset": 66.1562,
          "duration": 0.3125,
          "velocity": 100
        },
        {
          "pitch": 72,
          "onset": 66.3438,
          "duration": 0.3125,
          "velocity": 100
        },
        {
          "pitch": 54,
          "onset": 66.5,
          "duration": 0.3125,
          "velocity": 100
        },
        {
          "pitch": 74,
          "onset": 66.5,
          "duration": 0.3125,
          "velocity": 100
        },
        {
          "pitch": 50,
          "onset": 66.6562,
          "duration": 0.3125,
          "velocity": 100
        },
        {
          "pitch": 71,
          "onset": 66.6562,
          "duration": 0.3125,
          "velocity": 100
        },
        {
          "pitch": 47,
          "onset": 66.8438,
          "duration": 0.3125,
          "velocity": 100
        },
        {
          "pitch": 67,
          "onset": 66.8438,
          "duration": 0.3125,
          "velocity": 100
        },
        {
          "pitch": 55,
          "onset": 67.0,
          "duration": 0.5,
          "velocity": 100
        },
        {
          "pitch": 64,
          "onset": 67.0,
          "duration": 0.3125,
          "velocity": 100
        },
        {
          "pitch": 67,
          "onset": 67.1562,
          "duration": 0.3125,
          "velocity": 100
        },
        {
          "pitch": 71,
          "onset": 67.3438,
          "duration": 0.3125,
          "velocity": 100
        },
        {
          "pitch": 52,
          "onset": 67.5,
          "duration": 0.3125,
          "velocity": 100
        },
        {
          "pitch": 72,
          "onset": 67.5,
          "duration": 0.3125,
          "velocity": 100
        },
        {
          "pitch": 48,
          "onset": 67.6562,
          "duration": 0.3125,
          "velocity": 100
        },
        {
          "pitch": 69,
          "onset": 67.6562,
          "duration": 0.3125,
          "velocity": 100
        },
        {
          "pitch": 45,
          "onset": 67.8438,
          "duration": 0.1562,
          "velocity": 100
        },
        {
          "pitch": 66,
          "onset": 67.8438,
          "duration": 0.1562,
          "velocity": 100
        },
        {
          "pitch": 54,
          "onset": 68.0,
          "duration": 0.5,
          "velocity": 100
        },
        {
          "pitch": 62,
          "onset": 68.0,
          "duration": 0.3125,
          "velocity": 100
        },
        {
          "pitch": 66,
          "onset": 68.1562,
          "duration": 0.3125,
          "velocity": 100
        },
        {
          "pitch": 69,
          "onset": 68.3438,
          "duration": 0.3125,
          "velocity": 100
        },
        {
          "pitch": 50,
          "onset": 68.5,
          "duration": 0.3125,
          "velocity": 100
        },
        {
          "pitch": 71,
          "onset": 68.5,
          "duration": 0.3125,
          "velocity": 100
        },
        {
          "pitch": 47,
          "onset": 68.6562,
          "duration": 0.3125,
          "velocity": 100
        },
        {
          "pitch": 67,
          "onset": 68.6562,
          "duration": 0.3125,
          "velocity": 100
        },
        {
          "pitch": 43,
          "onset": 68.8438,
          "duration": 0.3125,
          "velocity": 100
        },
        {
          "pitch": 64,
          "onset": 68.8438,
          "duration": 0.3125,
          "velocity": 100
        },
        {
          "pitch": 52,
          "onset": 69.0,
          "duration": 0.3125,
          "velocity": 100
        },
        {
          "pitch": 60,
          "onset": 69.0,
          "duration": 0.3125,
          "velocity": 100
        },
        {
          "pitch": 48,
          "onset": 69.1562,
          "duration": 0.3125,
          "velocity": 100
        },
        {
          "pitch": 64,
          "onset": 69.1562,
          "duration": 0.3125,
          "velocity": 100
        },
        {
          "pitch": 45,
          "onset": 69.3438,
          "duration": 0.3125,
          "velocity": 100
        },
        {
          "pitch": 67,
          "onset": 69.3438,
          "duration": 0.3125,
          "velocity": 100
        },
        {
          "pitch": 54,
          "onset": 69.5,
          "duration": 0.3125,
          "velocity": 100
        },
        {
          "pitch": 69,
          "onset": 69.5,
          "duration": 0.3125,
          "velocity": 100
        },
        {
          "pitch": 50,
          "onset": 69.6562,
          "duration": 0.3125,
          "velocity": 100
        },
        {
          "pitch": 66,
          "onset": 69.6562,
          "duration": 0.3125,
          "velocity": 100
        },
        {
          "pitch": 47,
          "onset": 69.8438,
          "duration": 0.3125,
          "velocity": 100
        },
        {
          "pitch": 62,
          "onset": 69.8438,
          "duration": 0.3125,
          "velocity": 100
        },
        {
          "pitch": 55,
          "onset": 70.0,
          "duration": 0.5,
          "velocity": 100
        },
        {
          "pitch": 59,
          "onset": 70.0,
          "duration": 0.3125,
          "velocity": 100
        },
        {
          "pitch": 62,
          "onset": 70.1562,
          "duration": 0.3125,
          "velocity": 100
        },
        {
          "pitch": 66,
          "onset": 70.3438,
          "duration": 0.3125,
          "velocity": 100
        },
        {
          "pitch": 52,
          "onset": 70.5,
          "duration": 0.5,
          "velocity": 100
        },
        {
          "pitch": 67,
          "onset": 70.5,
          "duration": 0.3125,
          "velocity": 100
        },
        {
          "pitch": 64,
          "onset": 70.6562,
          "duration": 0.3125,
          "velocity": 100
        },
        {
          "pitch": 60,
          "onset": 70.8438,
          "duration": 0.3125,
          "velocity": 100
        },
        {
          "pitch": 48,
          "onset": 71.0,
          "duration": 0.5,
          "velocity": 100
        },
        {
          "pitch": 57,
          "onset": 71.0,
          "duration": 0.3125,
          "velocity": 100
        },
        {
          "pitch": 60,
          "onset": 71.1562,
          "duration": 0.3125,
          "velocity": 100
        },
        {
          "pitch": 64,
          "onset": 71.3438,
          "duration": 0.3125,
          "velocity": 100
        },
        {
          "pitch": 50,
          "onset": 71.5,
          "duration": 1.0,
          "velocity": 100
        },
        {
          "pitch": 66,
          "onset": 71.5,
          "duration": 0.3125,
          "velocity": 100
        },
        {
          "pitch": 62,
          "onset": 71.6562,
          "duration": 0.3125,
          "velocity": 100
        },
        {
          "pitch": 60,
          "onset": 71.8438,
          "duration": 0.6562,
          "velocity": 100
        },
        {
          "pitch": 43,
          "onset": 72.5,
          "duration": 3.5,
          "velocity": 100
        },
        {
          "pitch": 59,
          "onset": 72.5,
          "duration": 3.5,
          "velocity": 100
        },
        {
          "pitch": 62,
          "onset": 72.5,
          "duration": 3.5,
          "velocity": 100
        },
        {
          "pitch": 67,
          "onset": 72.5,
          "duration": 3.5,
          "velocity": 100
        },
        {
          "pitch": 67,
          "onset": 78.25,
          "duration": 0.25,
          "velocity": 1
        }
      ]
    }
  ]
}