{
  "bwv": 995,
  "category": "lute_suite",
  "instrument": "lute",
  "form": "",
  "movement": 2,
  "tonic": "G",
  "mode": "minor",
  "confidence": "verified",
  "ticks_per_beat": 384,
  "duration_seconds": 287.2,
  "tempos": [
    {
      "tick": 0,
      "bpm": 65
    },
    {
      "tick": 48,
      "bpm": 240
    },
    {
      "tick": 1344,
      "bpm": 65
    },
    {
      "tick": 7680,
      "bpm": 60
    },
    {
      "tick": 8832,
      "bpm": 60
    },
    {
      "tick": 8928,
      "bpm": 60
    },
    {
      "tick": 9024,
      "bpm": 55
    },
    {
      "tick": 9120,
      "bpm": 55
    },
    {
      "tick": 9216,
      "bpm": 65
    },
    {
      "tick": 14976,
      "bpm": 60
    },
    {
      "tick": 15072,
      "bpm": 60
    },
    {
      "tick": 15168,
      "bpm": 55
    },
    {
      "tick": 15264,
      "bpm": 55
    },
    {
      "tick": 15360,
      "bpm": 65
    },
    {
      "tick": 16512,
      "bpm": 60
    },
    {
      "tick": 16608,
      "bpm": 60
    },
    {
      "tick": 16704,
      "bpm": 55
    },
    {
      "tick": 16800,
      "bpm": 50
    },
    {
      "tick": 16896,
      "bpm": 65
    },
    {
      "tick": 27648,
      "bpm": 60
    },
    {
      "tick": 28032,
      "bpm": 55
    },
    {
      "tick": 28800,
      "bpm": 65
    },
    {
      "tick": 34944,
      "bpm": 60
    },
    {
      "tick": 35136,
      "bpm": 60
    },
    {
      "tick": 35232,
      "bpm": 55
    },
    {
      "tick": 35328,
      "bpm": 65
    },
    {
      "tick": 36480,
      "bpm": 60
    },
    {
      "tick": 36672,
      "bpm": 60
    },
    {
      "tick": 36768,
      "bpm": 50
    },
    {
      "tick": 36864,
      "bpm": 65
    },
    {
      "tick": 42624,
      "bpm": 60
    },
    {
      "tick": 42720,
      "bpm": 60
    },
    {
      "tick": 42816,
      "bpm": 55
    },
    {
      "tick": 42912,
      "bpm": 55
    },
    {
      "tick": 43008,
      "bpm": 65
    },
    {
      "tick": 44160,
      "bpm": 60
    },
    {
      "tick": 44256,
      "bpm": 60
    },
    {
      "tick": 44352,
      "bpm": 55
    },
    {
      "tick": 44448,
      "bpm": 50
    },
    {
      "tick": 44544,
      "bpm": 65
    },
    {
      "tick": 52608,
      "bpm": 60
    },
    {
      "tick": 52800,
      "bpm": 60
    },
    {
      "tick": 52896,
      "bpm": 50
    },
    {
      "tick": 52992,
      "bpm": 65
    },
    {
      "tick": 54528,
      "bpm": 60
    },
    {
      "tick": 55296,
      "bpm": 55
    },
    {
      "tick": 56832,
      "bpm": 60
    },
    {
      "tick": 66816,
      "bpm": 55
    },
    {
      "tick": 67104,
      "bpm": 50
    },
    {
      "tick": 67200,
      "bpm": 50
    },
    {
      "tick": 67488,
      "bpm": 35
    },
    {
      "tick": 67584,
      "bpm": 60
    },
    {
      "tick": 79488,
      "bpm": 60
    },
    {
      "tick": 79584,
      "bpm": 55
    },
    {
      "tick": 79680,
      "bpm": 50
    },
    {
      "tick": 79776,
      "bpm": 35
    },
    {
      "tick": 79872,
      "bpm": 60
    },
    {
      "tick": 80160,
      "bpm": 65
    },
    {
      "tick": 83328,
      "bpm": 55
    },
    {
      "tick": 83424,
      "bpm": 50
    },
    {
      "tick": 83520,
      "bpm": 50
    },
    {
      "tick": 83616,
      "bpm": 40
    },
    {
      "tick": 83712,
      "bpm": 65
    },
    {
      "tick": 94464,
      "bpm": 60
    },
    {
      "tick": 94848,
      "bpm": 60
    },
    {
      "tick": 95136,
      "bpm": 55
    },
    {
      "tick": 95184,
      "bpm": 50
    },
    {
      "tick": 95232,
      "bpm": 60
    },
    {
      "tick": 95520,
      "bpm": 65
    },
    {
      "tick": 99072,
      "bpm": 60
    },
    {
      "tick": 99744,
      "bpm": 50
    },
    {
      "tick": 99840,
      "bpm": 60
    },
    {
      "tick": 102528,
      "bpm": 60
    },
    {
      "tick": 102720,
      "bpm": 55
    },
    {
      "tick": 102816,
      "bpm": 50
    },
    {
      "tick": 103200,
      "bpm": 60
    },
    {
      "tick": 104064,
      "bpm": 55
    },
    {
      "tick": 104352,
      "bpm": 50
    },
    {
      "tick": 104448,
      "bpm": 60
    },
    {
      "tick": 106752,
      "bpm": 65
    },
    {
      "tick": 106944,
      "bpm": 60
    },
    {
      "tick": 107136,
      "bpm": 60
    },
    {
      "tick": 107232,
      "bpm": 55
    },
    {
      "tick": 107328,
      "bpm": 50
    },
    {
      "tick": 107424,
      "bpm": 50
    },
    {
      "tick": 107520,
      "bpm": 60
    },
    {
      "tick": 107808,
      "bpm": 65
    },
    {
      "tick": 110400,
      "bpm": 60
    },
    {
      "tick": 110592,
      "bpm": 60
    },
    {
      "tick": 110976,
      "bpm": 55
    },
    {
      "tick": 111168,
      "bpm": 50
    },
    {
      "tick": 111264,
      "bpm": 40
    }
  ],
  "time_signatures": [
    {
      "tick": 0,
      "numerator": 4,
      "denominator": 4
    }
  ],
  "track_type": "voice",
  "voice_count": 3,
  "total_notes": 806,
  "tracks": [
    {
      "role": "v1",
      "notes": [
        {
          "pitch": 67,
          "onset": 0.0,
          "duration": 0.25,
          "velocity": 1
        },
        {
          "pitch": 67,
          "onset": 3.75,
          "duration": 0.25,
          "velocity": 100
        },
        {
          "pitch": 67,
          "onset": 4.0,
          "duration": 1.75,
          "velocity": 100
        },
        {
          "pitch": 65,
          "onset": 5.625,
          "duration": 0.375,
          "velocity": 100
        },
        {
          "pitch": 63,
          "onset": 6.0,
          "duration": 0.75,
          "velocity": 100
        },
        {
          "pitch": 60,
          "onset": 6.75,
          "duration": 0.25,
          "velocity": 100
        },
        {
          "pitch": 62,
          "onset": 7.0,
          "duration": 0.75,
          "velocity": 100
        },
        {
          "pitch": 57,
          "onset": 7.75,
          "duration": 0.25,
          "velocity": 100
        },
        {
          "pitch": 57,
          "onset": 8.0,
          "duration": 1.75,
          "velocity": 100
        },
        {
          "pitch": 53,
          "onset": 9.625,
          "duration": 0.375,
          "velocity": 100
        },
        {
          "pitch": 54,
          "onset": 11.0,
          "duration": 0.75,
          "velocity": 100
        },
        {
          "pitch": 57,
          "onset": 11.75,
          "duration": 0.25,
          "velocity": 100
        },
        {
          "pitch": 57,
          "onset": 12.0,
          "duration": 0.75,
          "velocity": 100
        },
        {
          "pitch": 55,
          "onset": 12.75,
          "duration": 0.25,
          "velocity": 100
        },
        {
          "pitch": 55,
          "onset": 13.0,
          "duration": 0.75,
          "velocity": 100
        },
        {
          "pitch": 62,
          "onset": 13.75,
          "duration": 0.25,
          "velocity": 100
        },
        {
          "pitch": 62,
          "onset": 14.75,
          "duration": 0.25,
          "velocity": 100
        },
        {
          "pitch": 60,
          "onset": 15.0,
          "duration": 0.25,
          "velocity": 100
        },
        {
          "pitch": 58,
          "onset": 15.25,
          "duration": 0.25,
          "velocity": 100
        },
        {
          "pitch": 57,
          "onset": 15.5,
          "duration": 0.25,
          "velocity": 100
        },
        {
          "pitch": 55,
          "onset": 15.75,
          "duration": 0.25,
          "velocity": 100
        },
        {
          "pitch": 54,
          "onset": 16.0,
          "duration": 0.75,
          "velocity": 100
        },
        {
          "pitch": 52,
          "onset": 16.75,
          "duration": 0.25,
          "velocity": 100
        },
        {
          "pitch": 50,
          "onset": 17.0,
          "duration": 0.375,
          "velocity": 100
        },
        {
          "pitch": 54,
          "onset": 17.25,
          "duration": 0.375,
          "velocity": 100
        },
        {
          "pitch": 57,
          "onset": 17.5,
          "duration": 0.375,
          "velocity": 100
        },
        {
          "pitch": 60,
          "onset": 17.75,
          "duration": 0.25,
          "velocity": 100
        },
        {
          "pitch": 63,
          "onset": 18.0,
          "duration": 0.75,
          "velocity": 100
        },
        {
          "pitch": 62,
          "onset": 18.75,
          "duration": 0.25,
          "velocity": 100
        },
        {
          "pitch": 60,
          "onset": 19.0,
          "duration": 0.25,
          "velocity": 100
        },
        {
          "pitch": 58,
          "onset": 19.25,
          "duration": 0.25,
          "velocity": 100
        },
        {
          "pitch": 60,
          "onset": 19.5,
          "duration": 0.25,
          "velocity": 100
        },
        {
          "pitch": 57,
          "onset": 19.75,
          "duration": 0.25,
          "velocity": 100
        },
        {
          "pitch": 58,
          "onset": 20.0,
          "duration": 0.75,
          "velocity": 100
        },
        {
          "pitch": 57,
          "onset": 20.75,
          "duration": 0.25,
          "velocity": 100
        },
        {
          "pitch": 55,
          "onset": 21.0,
          "duration": 0.25,
          "velocity": 100
        },
        {
          "pitch": 54,
          "onset": 21.25,
          "duration": 0.25,
          "velocity": 100
        },
        {
          "pitch": 55,
          "onset": 21.5,
          "duration": 0.25,
          "velocity": 100
        },
        {
          "pitch": 57,
          "onset": 21.75,
          "duration": 0.25,
          "velocity": 100
        },
        {
          "pitch": 58,
          "onset": 22.0,
          "duration": 0.25,
          "velocity": 100
        },
        {
          "pitch": 57,
          "onset": 22.25,
          "duration": 0.25,
          "velocity": 100
        },
        {
          "pitch": 58,
          "onset": 22.5,
          "duration": 0.25,
          "velocity": 100
        },
        {
          "pitch": 60,
          "onset": 22.75,
          "duration": 0.25,
          "velocity": 100
        },
        {
          "pitch": 62,
          "onset": 23.0,
          "duration": 0.25,
          "velocity": 100
        },
        {
          "pitch": 60,
          "onset": 23.25,
          "duration": 0.25,
          "velocity": 100
        },
        {
          "pitch": 62,
          "onset": 23.5,
          "duration": 0.25,
          "velocity": 100
        },
        {
          "pitch": 63,
          "onset": 23.75,
          "duration": 0.25,
          "velocity": 100
        },
        {
          "pitch": 65,
          "onset": 24.0,
          "duration": 1.75,
          "velocity": 100
        },
        {
          "pitch": 63,
          "onset": 25.625,
          "duration": 0.375,
          "velocity": 100
        },
        {
          "pitch": 62,
          "onset": 26.0,
          "duration": 0.75,
          "velocity": 100
        },
        {
          "pitch": 60,
          "onset": 26.75,
          "duration": 0.25,
          "velocity": 100
        },
        {
          "pitch": 68,
          "onset": 27.0,
          "duration": 0.75,
          "velocity": 100
        },
        {
          "pitch": 65,
          "onset": 27.75,
          "duration": 0.25,
          "velocity": 100
        },
        {
          "pitch": 67,
          "onset": 28.0,
          "duration": 1.75,
          "velocity": 100
        },
        {
          "pitch": 65,
          "onset": 29.625,
          "duration": 0.375,
          "velocity": 100
        },
        {
          "pitch": 63,
          "onset": 30.0,
          "duration": 0.75,
          "velocity": 100
        },
        {
          "pitch": 67,
          "onset": 30.75,
          "duration": 0.25,
          "velocity": 100
        },
        {
          "pitch": 59,
          "onset": 31.0,
          "duration": 0.75,
          "velocity": 100
        },
        {
          "pitch": 60,
          "onset": 31.75,
          "duration": 0.25,
          "velocity": 100
        },
        {
          "pitch": 62,
          "onset": 32.0,
          "duration": 1.25,
          "velocity": 100
        },
        {
          "pitch": 60,
          "onset": 33.25,
          "duration": 0.25,
          "velocity": 100
        },
        {
          "pitch": 59,
          "onset": 33.5,
          "duration": 0.25,
          "velocity": 100
        },
        {
          "pitch": 60,
          "onset": 33.75,
          "duration": 0.25,
          "velocity": 100
        },
        {
          "pitch": 65,
          "onset": 34.75,
          "duration": 0.25,
          "velocity": 100
        },
        {
          "pitch": 65,
          "onset": 35.0,
          "duration": 0.75,
          "velocity": 100
        },
        {
          "pitch": 65,
          "onset": 35.75,
          "duration": 0.25,
          "velocity": 100
        },
        {
          "pitch": 63,
          "onset": 36.0,
          "duration": 1.5,
          "velocity": 100
        },
        {
          "pitch": 67,
          "onset": 37.5,
          "duration": 0.25,
          "velocity": 100
        },
        {
          "pitch": 65,
          "onset": 37.75,
          "duration": 0.25,
          "velocity": 100
        },
        {
          "pitch": 63,
          "onset": 38.0,
          "duration": 0.25,
          "velocity": 100
        },
        {
          "pitch": 62,
          "onset": 38.25,
          "duration": 0.25,
          "velocity": 100
        },
        {
          "pitch": 60,
          "onset": 38.5,
          "duration": 0.25,
          "velocity": 100
        },
        {
          "pitch": 58,
          "onset": 38.75,
          "duration": 0.25,
          "velocity": 100
        },
        {
          "pitch": 57,
          "onset": 39.0,
          "duration": 0.25,
          "velocity": 100
        },
        {
          "pitch": 58,
          "onset": 39.25,
          "duration": 0.25,
          "velocity": 100
        },
        {
          "pitch": 60,
          "onset": 39.5,
          "duration": 0.25,
          "velocity": 100
        },
        {
          "pitch": 57,
          "onset": 39.75,
          "duration": 0.25,
          "velocity": 100
        },
        {
          "pitch": 60,
          "onset": 41.25,
          "duration": 0.25,
          "velocity": 100
        },
        {
          "pitch": 58,
          "onset": 41.5,
          "duration": 0.25,
          "velocity": 100
        },
        {
          "pitch": 57,
          "onset": 41.75,
          "duration": 0.25,
          "velocity": 100
        },
        {
          "pitch": 55,
          "onset": 42.0,
          "duration": 0.25,
          "velocity": 100
        },
        {
          "pitch": 53,
          "onset": 42.25,
          "duration": 0.25,
          "velocity": 100
        },
        {
          "pitch": 51,
          "onset": 42.5,
          "duration": 0.25,
          "velocity": 100
        },
        {
          "pitch": 50,
          "onset": 42.75,
          "duration": 0.25,
          "velocity": 100
        },
        {
          "pitch": 48,
          "onset": 43.0,
          "duration": 0.25,
          "velocity": 100
        },
        {
          "pitch": 50,
          "onset": 43.25,
          "duration": 0.25,
          "velocity": 100
        },
        {
          "pitch": 51,
          "onset": 43.5,
          "duration": 0.25,
          "velocity": 100
        },
        {
          "pitch": 48,
          "onset": 43.75,
          "duration": 0.25,
          "velocity": 100
        },
        {
          "pitch": 63,
          "onset": 44.0,
          "duration": 1.25,
          "velocity": 100
        },
        {
          "pitch": 62,
          "onset": 45.25,
          "duration": 0.25,
          "velocity": 100
        },
        {
          "pitch": 63,
          "onset": 45.5,
          "duration": 0.25,
          "velocity": 100
        },
        {
          "pitch": 60,
          "onset": 45.75,
          "duration": 0.25,
          "velocity": 100
        },
        {
          "pitch": 70,
          "onset": 46.0,
          "duration": 1.25,
          "velocity": 100
        },
        {
          "pitch": 67,
          "onset": 47.25,
          "duration": 0.25,
          "velocity": 100
        },
        {
          "pitch": 69,
          "onset": 47.5,
          "duration": 0.25,
          "velocity": 100
        },
        {
          "pitch": 65,
          "onset": 47.75,
          "duration": 0.25,
          "velocity": 100
        },
        {
          "pitch": 72,
          "onset": 48.0,
          "duration": 1.25,
          "velocity": 100
        },
        {
          "pitch": 70,
          "onset": 49.25,
          "duration": 0.25,
          "velocity": 100
        },
        {
          "pitch": 69,
          "onset": 49.5,
          "duration": 0.25,
          "velocity": 100
        },
        {
          "pitch": 67,
          "onset": 49.75,
          "duration": 0.25,
          "velocity": 100
        },
        {
          "pitch": 65,
          "onset": 50.0,
          "duration": 0.75,
          "velocity": 100
        },
        {
          "pitch": 63,
          "onset": 50.75,
          "duration": 0.25,
          "velocity": 100
        },
        {
          "pitch": 63,
          "onset": 51.0,
          "duration": 0.75,
          "velocity": 100
        },
        {
          "pitch": 72,
          "onset": 51.75,
          "duration": 0.25,
          "velocity": 100
        },
        {
          "pitch": 62,
          "onset": 52.0,
          "duration": 0.75,
          "velocity": 100
        },
        {
          "pitch": 63,
          "onset": 52.625,
          "duration": 0.375,
          "velocity": 100
        },
        {
          "pitch": 62,
          "onset": 53.0,
          "duration": 0.75,
          "velocity": 100
        },
        {
          "pitch": 63,
          "onset": 53.75,
          "duration": 0.25,
          "velocity": 100
        },
        {
          "pitch": 62,
          "onset": 54.0,
          "duration": 1.0,
          "velocity": 100
        },
        {
          "pitch": 60,
          "onset": 55.0,
          "duration": 0.75,
          "velocity": 100
        },
        {
          "pitch": 58,
          "onset": 55.75,
          "duration": 0.25,
          "velocity": 100
        },
        {
          "pitch": 57,
          "onset": 56.0,
          "duration": 1.5,
          "velocity": 100
        },
        {
          "pitch": 65,
          "onset": 57.75,
          "duration": 0.25,
          "velocity": 100
        },
        {
          "pitch": 65,
          "onset": 58.0,
          "duration": 1.0,
          "velocity": 100
        },
        {
          "pitch": 62,
          "onset": 59.0,
          "duration": 0.25,
          "velocity": 100
        },
        {
          "pitch": 61,
          "onset": 59.25,
          "duration": 0.25,
          "velocity": 100
        },
        {
          "pitch": 62,
          "onset": 59.5,
          "duration": 0.5,
          "velocity": 100
        },
        {
          "pitch": 69,
          "onset": 60.0,
          "duration": 1.25,
          "velocity": 100
        },
        {
          "pitch": 58,
          "onset": 61.25,
          "duration": 0.25,
          "velocity": 100
        },
        {
          "pitch": 57,
          "onset": 61.5,
          "duration": 0.25,
          "velocity": 100
        },
        {
          "pitch": 55,
          "onset": 61.75,
          "duration": 0.25,
          "velocity": 100
        },
        {
          "pitch": 53,
          "onset": 62.0,
          "duration": 0.75,
          "velocity": 100
        },
        {
          "pitch": 55,
          "onset": 62.75,
          "duration": 0.25,
          "velocity": 100
        },
        {
          "pitch": 57,
          "onset": 63.0,
          "duration": 0.25,
          "velocity": 100
        },
        {
          "pitch": 59,
          "onset": 63.25,
          "duration": 0.25,
          "velocity": 100
        },
        {
          "pitch": 61,
          "onset": 63.5,
          "duration": 0.25,
          "velocity": 100
        },
        {
          "pitch": 62,
          "onset": 63.75,
          "duration": 0.25,
          "velocity": 100
        },
        {
          "pitch": 64,
          "onset": 64.0,
          "duration": 0.25,
          "velocity": 100
        },
        {
          "pitch": 62,
          "onset": 64.25,
          "duration": 0.25,
          "velocity": 100
        },
        {
          "pitch": 61,
          "onset": 64.5,
          "duration": 0.25,
          "velocity": 100
        },
        {
          "pitch": 62,
          "onset": 64.75,
          "duration": 0.25,
          "velocity": 100
        },
        {
          "pitch": 64,
          "onset": 65.0,
          "duration": 0.25,
          "velocity": 100
        },
        {
          "pitch": 65,
          "onset": 65.25,
          "duration": 0.25,
          "velocity": 100
        },
        {
          "pitch": 67,
          "onset": 65.5,
          "duration": 0.25,
          "velocity": 100
        },
        {
          "pitch": 69,
          "onset": 65.75,
          "duration": 0.25,
          "velocity": 100
        },
        {
          "pitch": 70,
          "onset": 66.0,
          "duration": 0.75,
          "velocity": 100
        },
        {
          "pitch": 69,
          "onset": 66.75,
          "duration": 0.25,
          "velocity": 100
        },
        {
          "pitch": 69,
          "onset": 67.0,
          "duration": 0.75,
          "velocity": 100
        },
        {
          "pitch": 61,
          "onset": 67.75,
          "duration": 0.25,
          "velocity": 100
        },
        {
          "pitch": 62,
          "onset": 68.0,
          "duration": 1.25,
          "velocity": 100
        },
        {
          "pitch": 64,
          "onset": 69.25,
          "duration": 0.25,
          "velocity": 100
        },
        {
          "pitch": 62,
          "onset": 69.5,
          "duration": 0.25,
          "velocity": 100
        },
        {
          "pitch": 64,
          "onset": 69.75,
          "duration": 0.25,
          "velocity": 100
        },
        {
          "pitch": 64,
          "onset": 70.0,
          "duration": 1.5,
          "velocity": 100
        },
        {
          "pitch": 62,
          "onset": 71.5,
          "duration": 0.5,
          "velocity": 100
        },
        {
          "pitch": 62,
          "onset": 72.0,
          "duration": 0.75,
          "velocity": 100
        },
        {
          "pitch": 57,
          "onset": 72.75,
          "duration": 0.25,
          "velocity": 100
        },
        {
          "pitch": 55,
          "onset": 73.0,
          "duration": 0.75,
          "velocity": 100
        },
        {
          "pitch": 55,
          "onset": 73.75,
          "duration": 0.25,
          "velocity": 100
        },
        {
          "pitch": 67,
          "onset": 75.75,
          "duration": 0.25,
          "velocity": 100
        },
        {
          "pitch": 67,
          "onset": 76.0,
          "duration": 1.75,
          "velocity": 100
        },
        {
          "pitch": 65,
          "onset": 77.625,
          "duration": 0.375,
          "velocity": 100
        },
        {
          "pitch": 63,
          "onset": 78.0,
          "duration": 0.75,
          "velocity": 100
        },
        {
          "pitch": 60,
          "onset": 78.75,
          "duration": 0.25,
          "velocity": 100
        },
        {
          "pitch": 62,
          "onset": 79.0,
          "duration": 0.75,
          "velocity": 100
        },
        {
          "pitch": 57,
          "onset": 79.75,
          "duration": 0.25,
          "velocity": 100
        },
        {
          "pitch": 57,
          "onset": 80.0,
          "duration": 1.75,
          "velocity": 100
        },
        {
          "pitch": 53,
          "onset": 81.625,
          "duration": 0.375,
          "velocity": 100
        },
        {
          "pitch": 54,
          "onset": 83.0,
          "duration": 0.75,
          "velocity": 100
        },
        {
          "pitch": 57,
          "onset": 83.75,
          "duration": 0.25,
          "velocity": 100
        },
        {
          "pitch": 57,
          "onset": 84.0,
          "duration": 0.75,
          "velocity": 100
        },
        {
          "pitch": 55,
          "onset": 84.75,
          "duration": 0.25,
          "velocity": 100
        },
        {
          "pitch": 55,
          "onset": 85.0,
          "duration": 0.75,
          "velocity": 100
        },
        {
          "pitch": 62,
          "onset": 85.75,
          "duration": 0.25,
          "velocity": 100
        },
        {
          "pitch": 62,
          "onset": 86.75,
          "duration": 0.25,
          "velocity": 100
        },
        {
          "pitch": 60,
          "onset": 87.0,
          "duration": 0.25,
          "velocity": 100
        },
        {
          "pitch": 58,
          "onset": 87.25,
          "duration": 0.25,
          "velocity": 100
        },
        {
          "pitch": 57,
          "onset": 87.5,
          "duration": 0.25,
          "velocity": 100
        },
        {
          "pitch": 55,
          "onset": 87.75,
          "duration": 0.25,
          "velocity": 100
        },
        {
          "pitch": 54,
          "onset": 88.0,
          "duration": 0.75,
          "velocity": 100
        },
        {
          "pitch": 52,
          "onset": 88.75,
          "duration": 0.25,
          "velocity": 100
        },
        {
          "pitch": 50,
          "onset": 89.0,
          "duration": 0.375,
          "velocity": 100
        },
        {
          "pitch": 54,
          "onset": 89.25,
          "duration": 0.375,
          "velocity": 100
        },
        {
          "pitch": 57,
          "onset": 89.5,
          "duration": 0.375,
          "velocity": 100
        },
        {
          "pitch": 60,
          "onset": 89.75,
          "duration": 0.25,
          "velocity": 100
        },
        {
          "pitch": 63,
          "onset": 90.0,
          "duration": 0.75,
          "velocity": 100
        },
        {
          "pitch": 62,
          "onset": 90.75,
          "duration": 0.25,
          "velocity": 100
        },
        {
          "pitch": 60,
          "onset": 91.0,
          "duration": 0.25,
          "velocity": 100
        },
        {
          "pitch": 58,
          "onset": 91.25,
          "duration": 0.25,
          "velocity": 100
        },
        {
          "pitch": 60,
          "onset": 91.5,
          "duration": 0.25,
          "velocity": 100
        },
        {
          "pitch": 57,
          "onset": 91.75,
          "duration": 0.25,
          "velocity": 100
        },
        {
          "pitch": 58,
          "onset": 92.0,
          "duration": 0.75,
          "velocity": 100
        },
        {
          "pitch": 57,
          "onset": 92.75,
          "duration": 0.25,
          "velocity": 100
        },
        {
          "pitch": 55,
          "onset": 93.0,
          "duration": 0.25,
          "velocity": 100
        },
        {
          "pitch": 54,
          "onset": 93.25,
          "duration": 0.25,
          "velocity": 100
        },
        {
          "pitch": 55,
          "onset": 93.5,
          "duration": 0.25,
          "velocity": 100
        },
        {
          "pitch": 57,
          "onset": 93.75,
          "duration": 0.25,
          "velocity": 100
        },
        {
          "pitch": 58,
          "onset": 94.0,
          "duration": 0.25,
          "velocity": 100
        },
        {
          "pitch": 57,
          "onset": 94.25,
          "duration": 0.25,
          "velocity": 100
        },
        {
          "pitch": 58,
          "onset": 94.5,
          "duration": 0.25,
          "velocity": 100
        },
        {
          "pitch": 60,
          "onset": 94.75,
          "duration": 0.25,
          "velocity": 100
        },
        {
          "pitch": 62,
          "onset": 95.0,
          "duration": 0.25,
          "velocity": 100
        },
        {
          "pitch": 60,
          "onset": 95.25,
          "duration": 0.25,
          "velocity": 100
        },
        {
          "pitch": 62,
          "onset": 95.5,
          "duration": 0.25,
          "velocity": 100
        },
        {
          "pitch": 63,
          "onset": 95.75,
          "duration": 0.25,
          "velocity": 100
        },
        {
          "pitch": 65,
          "onset": 96.0,
          "duration": 1.75,
          "velocity": 100
        },
        {
          "pitch": 63,
          "onset": 97.625,
          "duration": 0.375,
          "velocity": 100
        },
        {
          "pitch": 62,
          "onset": 98.0,
          "duration": 0.75,
          "velocity": 100
        },
        {
          "pitch": 60,
          "onset": 98.75,
          "duration": 0.25,
          "velocity": 100
        },
        {
          "pitch": 68,
          "onset": 99.0,
          "duration": 0.75,
          "velocity": 100
        },
        {
          "pitch": 65,
          "onset": 99.75,
          "duration": 0.25,
          "velocity": 100
        },
        {
          "pitch": 67,
          "onset": 100.0,
          "duration": 1.75,
          "velocity": 100
        },
        {
          "pitch": 65,
          "onset": 101.625,
          "duration": 0.375,
          "velocity": 100
        },
        {
          "pitch": 63,
          "onset": 102.0,
          "duration": 0.75,
          "velocity": 100
        },
        {
          "pitch": 67,
          "onset": 102.75,
          "duration": 0.25,
          "velocity": 100
        },
        {
          "pitch": 59,
          "onset": 103.0,
          "duration": 0.75,
          "velocity": 100
        },
        {
          "pitch": 60,
          "onset": 103.75,
          "duration": 0.25,
          "velocity": 100
        },
        {
          "pitch": 62,
          "onset": 104.0,
          "duration": 1.25,
          "velocity": 100
        },
        {
          "pitch": 60,
          "onset": 105.25,
          "duration": 0.25,
          "velocity": 100
        },
        {
          "pitch": 59,
          "onset": 105.5,
          "duration": 0.25,
          "velocity": 100
        },
        {
          "pitch": 60,
          "onset": 105.75,
          "duration": 0.25,
          "velocity": 100
        },
        {
          "pitch": 65,
          "onset": 106.75,
          "duration": 0.25,
          "velocity": 100
        },
        {
          "pitch": 65,
          "onset": 107.0,
          "duration": 0.75,
          "velocity": 100
        },
        {
          "pitch": 65,
          "onset": 107.75,
          "duration": 0.25,
          "velocity": 100
        },
        {
          "pitch": 63,
          "onset": 108.0,
          "duration": 1.5,
          "velocity": 100
        },
        {
          "pitch": 67,
          "onset": 109.5,
          "duration": 0.25,
          "velocity": 100
        },
        {
          "pitch": 65,
          "onset": 109.75,
          "duration": 0.25,
          "velocity": 100
        },
        {
          "pitch": 63,
          "onset": 110.0,
          "duration": 0.25,
          "velocity": 100
        },
        {
          "pitch": 62,
          "onset": 110.25,
          "duration": 0.25,
          "velocity": 100
        },
        {
          "pitch": 60,
          "onset": 110.5,
          "duration": 0.25,
          "velocity": 100
        },
        {
          "pitch": 58,
          "onset": 110.75,
          "duration": 0.25,
          "velocity": 100
        },
        {
          "pitch": 57,
          "onset": 111.0,
          "duration": 0.25,
          "velocity": 100
        },
        {
          "pitch": 58,
          "onset": 111.25,
          "duration": 0.25,
          "velocity": 100
        },
        {
          "pitch": 60,
          "onset": 111.5,
          "duration": 0.25,
          "velocity": 100
        },
        {
          "pitch": 57,
          "onset": 111.75,
          "duration": 0.25,
          "velocity": 100
        },
        {
          "pitch": 60,
          "onset": 113.25,
          "duration": 0.25,
          "velocity": 100
        },
        {
          "pitch": 58,
          "onset": 113.5,
          "duration": 0.25,
          "velocity": 100
        },
        {
          "pitch": 57,
          "onset": 113.75,
          "duration": 0.25,
          "velocity": 100
        },
        {
          "pitch": 55,
          "onset": 114.0,
          "duration": 0.25,
          "velocity": 100
        },
        {
          "pitch": 53,
          "onset": 114.25,
          "duration": 0.25,
          "velocity": 100
        },
        {
          "pitch": 51,
          "onset": 114.5,
          "duration": 0.25,
          "velocity": 100
        },
        {
          "pitch": 50,
          "onset": 114.75,
          "duration": 0.25,
          "velocity": 100
        },
        {
          "pitch": 48,
          "onset": 115.0,
          "duration": 0.25,
          "velocity": 100
        },
        {
          "pitch": 50,
          "onset": 115.25,
          "duration": 0.25,
          "velocity": 100
        },
        {
          "pitch": 51,
          "onset": 115.5,
          "duration": 0.25,
          "velocity": 100
        },
        {
          "pitch": 48,
          "onset": 115.75,
          "duration": 0.25,
          "velocity": 100
        },
        {
          "pitch": 63,
          "onset": 116.0,
          "duration": 1.25,
          "velocity": 100
        },
        {
          "pitch": 62,
          "onset": 117.25,
          "duration": 0.25,
          "velocity": 100
        },
        {
          "pitch": 63,
          "onset": 117.5,
          "duration": 0.25,
          "velocity": 100
        },
        {
          "pitch": 60,
          "onset": 117.75,
          "duration": 0.25,
          "velocity": 100
        },
        {
          "pitch": 70,
          "onset": 118.0,
          "duration": 1.25,
          "velocity": 100
        },
        {
          "pitch": 67,
          "onset": 119.25,
          "duration": 0.25,
          "velocity": 100
        },
        {
          "pitch": 69,
          "onset": 119.5,
          "duration": 0.25,
          "velocity": 100
        },
        {
          "pitch": 65,
          "onset": 119.75,
          "duration": 0.25,
          "velocity": 100
        },
        {
          "pitch": 72,
          "onset": 120.0,
          "duration": 1.25,
          "velocity": 100
        },
        {
          "pitch": 70,
          "onset": 121.25,
          "duration": 0.25,
          "velocity": 100
        },
        {
          "pitch": 69,
          "onset": 121.5,
          "duration": 0.25,
          "velocity": 100
        },
        {
          "pitch": 67,
          "onset": 121.75,
          "duration": 0.25,
          "velocity": 100
        },
        {
          "pitch": 65,
          "onset": 122.0,
          "duration": 0.75,
          "velocity": 100
        },
        {
          "pitch": 63,
          "onset": 122.75,
          "duration": 0.25,
          "velocity": 100
        },
        {
          "pitch": 63,
          "onset": 123.0,
          "duration": 0.75,
          "velocity": 100
        },
        {
          "pitch": 72,
          "onset": 123.75,
          "duration": 0.25,
          "velocity": 100
        },
        {
          "pitch": 62,
          "onset": 124.0,
          "duration": 0.75,
          "velocity": 100
        },
        {
          "pitch": 63,
          "onset": 124.625,
          "duration": 0.375,
          "velocity": 100
        },
        {
          "pitch": 62,
          "onset": 125.0,
          "duration": 0.75,
          "velocity": 100
        },
        {
          "pitch": 63,
          "onset": 125.75,
          "duration": 0.25,
          "velocity": 100
        },
        {
          "pitch": 62,
          "onset": 126.0,
          "duration": 1.0,
          "velocity": 100
        },
        {
          "pitch": 60,
          "onset": 127.0,
          "duration": 0.75,
          "velocity": 100
        },
        {
          "pitch": 58,
          "onset": 127.75,
          "duration": 0.25,
          "velocity": 100
        },
        {
          "pitch": 57,
          "onset": 128.0,
          "duration": 1.5,
          "velocity": 100
        },
        {
          "pitch": 65,
          "onset": 129.75,
          "duration": 0.25,
          "velocity": 100
        },
        {
          "pitch": 65,
          "onset": 130.0,
          "duration": 1.0,
          "velocity": 100
        },
        {
          "pitch": 62,
          "onset": 131.0,
          "duration": 0.25,
          "velocity": 100
        },
        {
          "pitch": 61,
          "onset": 131.25,
          "duration": 0.25,
          "velocity": 100
        },
        {
          "pitch": 62,
          "onset": 131.5,
          "duration": 0.5,
          "velocity": 100
        },
        {
          "pitch": 69,
          "onset": 132.0,
          "duration": 1.25,
          "velocity": 100
        },
        {
          "pitch": 58,
          "onset": 133.25,
          "duration": 0.25,
          "velocity": 100
        },
        {
          "pitch": 57,
          "onset": 133.5,
          "duration": 0.25,
          "velocity": 100
        },
        {
          "pitch": 55,
          "onset": 133.75,
          "duration": 0.25,
          "velocity": 100
        },
        {
          "pitch": 53,
          "onset": 134.0,
          "duration": 0.75,
          "velocity": 100
        },
        {
          "pitch": 55,
          "onset": 134.75,
          "duration": 0.25,
          "velocity": 100
        },
        {
          "pitch": 57,
          "onset": 135.0,
          "duration": 0.25,
          "velocity": 100
        },
        {
          "pitch": 59,
          "onset": 135.25,
          "duration": 0.25,
          "velocity": 100
        },
        {
          "pitch": 61,
          "onset": 135.5,
          "duration": 0.25,
          "velocity": 100
        },
        {
          "pitch": 62,
          "onset": 135.75,
          "duration": 0.25,
          "velocity": 100
        },
        {
          "pitch": 64,
          "onset": 136.0,
          "duration": 0.25,
          "velocity": 100
        },
        {
          "pitch": 62,
          "onset": 136.25,
          "duration": 0.25,
          "velocity": 100
        },
        {
          "pitch": 61,
          "onset": 136.5,
          "duration": 0.25,
          "velocity": 100
        },
        {
          "pitch": 62,
          "onset": 136.75,
          "duration": 0.25,
          "velocity": 100
        },
        {
          "pitch": 64,
          "onset": 137.0,
          "duration": 0.25,
          "velocity": 100
        },
        {
          "pitch": 65,
          "onset": 137.25,
          "duration": 0.25,
          "velocity": 100
        },
        {
          "pitch": 67,
          "onset": 137.5,
          "duration": 0.25,
          "velocity": 100
        },
        {
          "pitch": 69,
          "onset": 137.75,
          "duration": 0.25,
          "velocity": 100
        },
        {
          "pitch": 70,
          "onset": 138.0,
          "duration": 0.75,
          "velocity": 100
        },
        {
          "pitch": 69,
          "onset": 138.75,
          "duration": 0.25,
          "velocity": 100
        },
        {
          "pitch": 69,
          "onset": 139.0,
          "duration": 0.75,
          "velocity": 100
        },
        {
          "pitch": 61,
          "onset": 139.75,
          "duration": 0.25,
          "velocity": 100
        },
        {
          "pitch": 62,
          "onset": 140.0,
          "duration": 1.25,
          "velocity": 100
        },
        {
          "pitch": 64,
          "onset": 141.25,
          "duration": 0.25,
          "velocity": 100
        },
        {
          "pitch": 62,
          "onset": 141.5,
          "duration": 0.25,
          "velocity": 100
        },
        {
          "pitch": 64,
          "onset": 141.75,
          "duration": 0.25,
          "velocity": 100
        },
        {
          "pitch": 64,
          "onset": 142.0,
          "duration": 1.5,
          "velocity": 100
        },
        {
          "pitch": 62,
          "onset": 143.5,
          "duration": 0.5,
          "velocity": 100
        },
        {
          "pitch": 62,
          "onset": 144.0,
          "duration": 0.75,
          "velocity": 100
        },
        {
          "pitch": 57,
          "onset": 144.75,
          "duration": 0.25,
          "velocity": 100
        },
        {
          "pitch": 55,
          "onset": 145.0,
          "duration": 0.75,
          "velocity": 100
        },
        {
          "pitch": 55,
          "onset": 145.75,
          "duration": 0.25,
          "velocity": 100
        },
        {
          "pitch": 69,
          "onset": 147.75,
          "duration": 0.25,
          "velocity": 100
        },
        {
          "pitch": 69,
          "onset": 148.0,
          "duration": 1.75,
          "velocity": 100
        },
        {
          "pitch": 67,
          "onset": 149.625,
          "duration": 0.375,
          "velocity": 100
        },
        {
          "pitch": 67,
          "onset": 150.0,
          "duration": 0.75,
          "velocity": 100
        },
        {
          "pitch": 63,
          "onset": 150.75,
          "duration": 0.25,
          "velocity": 100
        },
        {
          "pitch": 62,
          "onset": 151.0,
          "duration": 0.75,
          "velocity": 100
        },
        {
          "pitch": 60,
          "onset": 151.75,
          "duration": 0.25,
          "velocity": 100
        },
        {
          "pitch": 58,
          "onset": 152.0,
          "duration": 0.75,
          "velocity": 100
        },
        {
          "pitch": 62,
          "onset": 152.75,
          "duration": 0.25,
          "velocity": 100
        },
        {
          "pitch": 67,
          "onset": 153.0,
          "duration": 0.25,
          "velocity": 100
        },
        {
          "pitch": 57,
          "onset": 153.25,
          "duration": 0.25,
          "velocity": 100
        },
        {
          "pitch": 58,
          "onset": 153.5,
          "duration": 0.25,
          "velocity": 100
        },
        {
          "pitch": 60,
          "onset": 153.75,
          "duration": 0.25,
          "velocity": 100
        },
        {
          "pitch": 55,
          "onset": 154.0,
          "duration": 0.75,
          "velocity": 100
        },
        {
          "pitch": 62,
          "onset": 154.75,
          "duration": 0.25,
          "velocity": 100
        },
        {
          "pitch": 69,
          "onset": 155.0,
          "duration": 0.75,
          "velocity": 100
        },
        {
          "pitch": 70,
          "onset": 155.75,
          "duration": 0.25,
          "velocity": 100
        },
        {
          "pitch": 70,
          "onset": 156.0,
          "duration": 1.0,
          "velocity": 100
        },
        {
          "pitch": 69,
          "onset": 157.75,
          "duration": 0.25,
          "velocity": 100
        },
        {
          "pitch": 69,
          "onset": 158.0,
          "duration": 0.75,
          "velocity": 100
        },
        {
          "pitch": 65,
          "onset": 158.75,
          "duration": 0.25,
          "velocity": 100
        },
        {
          "pitch": 65,
          "onset": 159.0,
          "duration": 0.75,
          "velocity": 100
        },
        {
          "pitch": 67,
          "onset": 159.75,
          "duration": 0.25,
          "velocity": 100
        },
        {
          "pitch": 65,
          "onset": 160.0,
          "duration": 1.625,
          "velocity": 100
        },
        {
          "pitch": 64,
          "onset": 161.625,
          "duration": 0.375,
          "velocity": 100
        },
        {
          "pitch": 60,
          "onset": 162.0,
          "duration": 0.75,
          "velocity": 100
        },
        {
          "pitch": 62,
          "onset": 162.75,
          "duration": 0.25,
          "velocity": 100
        },
        {
          "pitch": 64,
          "onset": 163.0,
          "duration": 0.75,
          "velocity": 100
        },
        {
          "pitch": 62,
          "onset": 163.75,
          "duration": 0.25,
          "velocity": 100
        },
        {
          "pitch": 65,
          "onset": 164.0,
          "duration": 1.625,
          "velocity": 100
        },
        {
          "pitch": 65,
          "onset": 165.625,
          "duration": 0.375,
          "velocity": 100
        },
        {
          "pitch": 62,
          "onset": 166.0,
          "duration": 0.75,
          "velocity": 100
        },
        {
          "pitch": 58,
          "onset": 166.75,
          "duration": 0.25,
          "velocity": 100
        },
        {
          "pitch": 60,
          "onset": 167.0,
          "duration": 0.75,
          "velocity": 100
        },
        {
          "pitch": 62,
          "onset": 167.75,
          "duration": 0.25,
          "velocity": 100
        },
        {
          "pitch": 58,
          "onset": 168.0,
          "duration": 1.0,
          "velocity": 100
        },
        {
          "pitch": 63,
          "onset": 168.0,
          "duration": 1.0,
          "velocity": 100
        },
        {
          "pitch": 60,
          "onset": 170.75,
          "duration": 0.25,
          "velocity": 100
        },
        {
          "pitch": 62,
          "onset": 171.0,
          "duration": 0.75,
          "velocity": 100
        },
        {
          "pitch": 63,
          "onset": 171.75,
          "duration": 0.25,
          "velocity": 100
        },
        {
          "pitch": 57,
          "onset": 172.0,
          "duration": 0.75,
          "velocity": 100
        },
        {
          "pitch": 58,
          "onset": 172.75,
          "duration": 0.25,
          "velocity": 100
        },
        {
          "pitch": 55,
          "onset": 173.0,
          "duration": 0.25,
          "velocity": 100
        },
        {
          "pitch": 57,
          "onset": 173.25,
          "duration": 0.25,
          "velocity": 100
        },
        {
          "pitch": 53,
          "onset": 173.5,
          "duration": 0.5,
          "velocity": 100
        },
        {
          "pitch": 62,
          "onset": 174.0,
          "duration": 0.5938,
          "velocity": 100
        },
        {
          "pitch": 60,
          "onset": 174.625,
          "duration": 0.375,
          "velocity": 100
        },
        {
          "pitch": 58,
          "onset": 175.0,
          "duration": 0.75,
          "velocity": 100
        },
        {
          "pitch": 62,
          "onset": 175.75,
          "duration": 0.25,
          "velocity": 100
        },
        {
          "pitch": 50,
          "onset": 176.625,
          "duration": 0.375,
          "velocity": 100
        },
        {
          "pitch": 55,
          "onset": 177.0,
          "duration": 0.25,
          "velocity": 100
        },
        {
          "pitch": 53,
          "onset": 177.25,
          "duration": 0.25,
          "velocity": 100
        },
        {
          "pitch": 63,
          "onset": 177.5,
          "duration": 0.5,
          "velocity": 100
        },
        {
          "pitch": 63,
          "onset": 178.0,
          "duration": 1.0,
          "velocity": 100
        },
        {
          "pitch": 60,
          "onset": 179.0,
          "duration": 0.25,
          "velocity": 100
        },
        {
          "pitch": 59,
          "onset": 179.25,
          "duration": 0.25,
          "velocity": 100
        },
        {
          "pitch": 60,
          "onset": 179.5,
          "duration": 0.5,
          "velocity": 100
        },
        {
          "pitch": 53,
          "onset": 180.0,
          "duration": 1.625,
          "velocity": 100
        },
        {
          "pitch": 53,
          "onset": 181.625,
          "duration": 0.375,
          "velocity": 100
        },
        {
          "pitch": 60,
          "onset": 182.75,
          "duration": 0.25,
          "velocity": 100
        },
        {
          "pitch": 62,
          "onset": 183.0,
          "duration": 0.75,
          "velocity": 100
        },
        {
          "pitch": 63,
          "onset": 183.75,
          "duration": 0.25,
          "velocity": 100
        },
        {
          "pitch": 59,
          "onset": 184.0,
          "duration": 0.75,
          "velocity": 100
        },
        {
          "pitch": 65,
          "onset": 184.75,
          "duration": 0.25,
          "velocity": 100
        },
        {
          "pitch": 63,
          "onset": 185.0,
          "duration": 0.25,
          "velocity": 100
        },
        {
          "pitch": 65,
          "onset": 185.25,
          "duration": 0.25,
          "velocity": 100
        },
        {
          "pitch": 62,
          "onset": 185.5,
          "duration": 0.5,
          "velocity": 100
        },
        {
          "pitch": 62,
          "onset": 186.0,
          "duration": 1.5,
          "velocity": 100
        },
        {
          "pitch": 60,
          "onset": 187.5,
          "duration": 0.5,
          "velocity": 100
        },
        {
          "pitch": 60,
          "onset": 188.0,
          "duration": 1.5938,
          "velocity": 100
        },
        {
          "pitch": 60,
          "onset": 189.625,
          "duration": 0.375,
          "velocity": 100
        },
        {
          "pitch": 58,
          "onset": 190.0,
          "duration": 0.75,
          "velocity": 100
        },
        {
          "pitch": 67,
          "onset": 190.75,
          "duration": 0.25,
          "velocity": 100
        },
        {
          "pitch": 65,
          "onset": 191.0,
          "duration": 0.25,
          "velocity": 100
        },
        {
          "pitch": 64,
          "onset": 191.25,
          "duration": 0.25,
          "velocity": 100
        },
        {
          "pitch": 62,
          "onset": 191.5,
          "duration": 0.25,
          "velocity": 100
        },
        {
          "pitch": 60,
          "onset": 191.75,
          "duration": 0.25,
          "velocity": 100
        },
        {
          "pitch": 65,
          "onset": 192.0,
          "duration": 0.75,
          "velocity": 100
        },
        {
          "pitch": 63,
          "onset": 192.75,
          "duration": 0.25,
          "velocity": 100
        },
        {
          "pitch": 60,
          "onset": 193.0,
          "duration": 0.75,
          "velocity": 100
        },
        {
          "pitch": 62,
          "onset": 193.75,
          "duration": 0.25,
          "velocity": 100
        },
        {
          "pitch": 63,
          "onset": 194.0,
          "duration": 0.75,
          "velocity": 100
        },
        {
          "pitch": 62,
          "onset": 194.75,
          "duration": 0.25,
          "velocity": 100
        },
        {
          "pitch": 60,
          "onset": 195.0,
          "duration": 0.25,
          "velocity": 100
        },
        {
          "pitch": 58,
          "onset": 195.25,
          "duration": 0.25,
          "velocity": 100
        },
        {
          "pitch": 57,
          "onset": 195.5,
          "duration": 0.25,
          "velocity": 100
        },
        {
          "pitch": 58,
          "onset": 195.75,
          "duration": 0.25,
          "velocity": 100
        },
        {
          "pitch": 55,
          "onset": 196.0,
          "duration": 0.75,
          "velocity": 100
        },
        {
          "pitch": 62,
          "onset": 196.75,
          "duration": 0.25,
          "velocity": 100
        },
        {
          "pitch": 69,
          "onset": 197.0,
          "duration": 0.5,
          "velocity": 100
        },
        {
          "pitch": 70,
          "onset": 197.5,
          "duration": 0.5,
          "velocity": 100
        },
        {
          "pitch": 70,
          "onset": 198.0,
          "duration": 1.0,
          "velocity": 100
        },
        {
          "pitch": 62,
          "onset": 200.75,
          "duration": 0.25,
          "velocity": 100
        },
        {
          "pitch": 60,
          "onset": 201.0,
          "duration": 0.75,
          "velocity": 100
        },
        {
          "pitch": 70,
          "onset": 201.75,
          "duration": 0.25,
          "velocity": 100
        },
        {
          "pitch": 69,
          "onset": 202.0,
          "duration": 0.75,
          "velocity": 100
        },
        {
          "pitch": 67,
          "onset": 202.75,
          "duration": 0.25,
          "velocity": 100
        },
        {
          "pitch": 69,
          "onset": 203.0,
          "duration": 0.25,
          "velocity": 100
        },
        {
          "pitch": 66,
          "onset": 203.25,
          "duration": 0.25,
          "velocity": 100
        },
        {
          "pitch": 67,
          "onset": 203.5,
          "duration": 0.5,
          "velocity": 100
        },
        {
          "pitch": 66,
          "onset": 204.0,
          "duration": 0.75,
          "velocity": 100
        },
        {
          "pitch": 62,
          "onset": 204.75,
          "duration": 0.25,
          "velocity": 100
        },
        {
          "pitch": 63,
          "onset": 205.0,
          "duration": 0.25,
          "velocity": 100
        },
        {
          "pitch": 62,
          "onset": 205.25,
          "duration": 0.25,
          "velocity": 100
        },
        {
          "pitch": 60,
          "onset": 205.5,
          "duration": 0.25,
          "velocity": 100
        },
        {
          "pitch": 58,
          "onset": 205.75,
          "duration": 0.25,
          "velocity": 100
        },
        {
          "pitch": 57,
          "onset": 206.0,
          "duration": 0.25,
          "velocity": 100
        },
        {
          "pitch": 55,
          "onset": 206.25,
          "duration": 0.25,
          "velocity": 100
        },
        {
          "pitch": 54,
          "onset": 206.5,
          "duration": 0.25,
          "velocity": 100
        },
        {
          "pitch": 55,
          "onset": 206.75,
          "duration": 0.25,
          "velocity": 100
        },
        {
          "pitch": 57,
          "onset": 207.0,
          "duration": 0.25,
          "velocity": 100
        },
        {
          "pitch": 58,
          "onset": 207.25,
          "duration": 0.25,
          "velocity": 100
        },
        {
          "pitch": 60,
          "onset": 207.5,
          "duration": 0.25,
          "velocity": 100
        },
        {
          "pitch": 57,
          "onset": 207.75,
          "duration": 0.25,
          "velocity": 100
        },
        {
          "pitch": 66,
          "onset": 208.75,
          "duration": 0.25,
          "velocity": 100
        },
        {
          "pitch": 67,
          "onset": 209.0,
          "duration": 0.25,
          "velocity": 100
        },
        {
          "pitch": 66,
          "onset": 209.25,
          "duration": 0.25,
          "velocity": 100
        },
        {
          "pitch": 64,
          "onset": 209.5,
          "duration": 0.25,
          "velocity": 100
        },
        {
          "pitch": 62,
          "onset": 209.75,
          "duration": 0.25,
          "velocity": 100
        },
        {
          "pitch": 67,
          "onset": 210.0,
          "duration": 1.5,
          "velocity": 100
        },
        {
          "pitch": 61,
          "onset": 211.5,
          "duration": 0.5,
          "velocity": 100
        },
        {
          "pitch": 62,
          "onset": 212.0,
          "duration": 0.75,
          "velocity": 100
        },
        {
          "pitch": 70,
          "onset": 212.75,
          "duration": 0.25,
          "velocity": 100
        },
        {
          "pitch": 69,
          "onset": 213.0,
          "duration": 0.25,
          "velocity": 100
        },
        {
          "pitch": 70,
          "onset": 213.25,
          "duration": 0.25,
          "velocity": 100
        },
        {
          "pitch": 72,
          "onset": 213.5,
          "duration": 0.25,
          "velocity": 100
        },
        {
          "pitch": 69,
          "onset": 213.75,
          "duration": 0.25,
          "velocity": 100
        },
        {
          "pitch": 66,
          "onset": 214.0,
          "duration": 1.5,
          "velocity": 100
        },
        {
          "pitch": 67,
          "onset": 215.5,
          "duration": 0.5,
          "velocity": 100
        },
        {
          "pitch": 67,
          "onset": 216.0,
          "duration": 0.75,
          "velocity": 100
        },
        {
          "pitch": 62,
          "onset": 216.75,
          "duration": 0.25,
          "velocity": 100
        },
        {
          "pitch": 60,
          "onset": 217.0,
          "duration": 0.25,
          "velocity": 100
        },
        {
          "pitch": 58,
          "onset": 217.25,
          "duration": 0.25,
          "velocity": 100
        },
        {
          "pitch": 57,
          "onset": 217.5,
          "duration": 0.25,
          "velocity": 100
        },
        {
          "pitch": 55,
          "onset": 217.75,
          "duration": 0.25,
          "velocity": 100
        },
        {
          "pitch": 67,
          "onset": 218.0,
          "duration": 1.5,
          "velocity": 100
        },
        {
          "pitch": 69,
          "onset": 219.75,
          "duration": 0.25,
          "velocity": 100
        },
        {
          "pitch": 69,
          "onset": 220.0,
          "duration": 1.75,
          "velocity": 100
        },
        {
          "pitch": 67,
          "onset": 221.625,
          "duration": 0.375,
          "velocity": 100
        },
        {
          "pitch": 67,
          "onset": 222.0,
          "duration": 0.75,
          "velocity": 100
        },
        {
          "pitch": 63,
          "onset": 222.75,
          "duration": 0.25,
          "velocity": 100
        },
        {
          "pitch": 62,
          "onset": 223.0,
          "duration": 0.75,
          "velocity": 100
        },
        {
          "pitch": 60,
          "onset": 223.75,
          "duration": 0.25,
          "velocity": 100
        },
        {
          "pitch": 58,
          "onset": 224.0,
          "duration": 0.75,
          "velocity": 100
        },
        {
          "pitch": 62,
          "onset": 224.75,
          "duration": 0.25,
          "velocity": 100
        },
        {
          "pitch": 67,
          "onset": 225.0,
          "duration": 0.25,
          "velocity": 100
        },
        {
          "pitch": 57,
          "onset": 225.25,
          "duration": 0.25,
          "velocity": 100
        },
        {
          "pitch": 58,
          "onset": 225.5,
          "duration": 0.25,
          "velocity": 100
        },
        {
          "pitch": 60,
          "onset": 225.75,
          "duration": 0.25,
          "velocity": 100
        },
        {
          "pitch": 55,
          "onset": 226.0,
          "duration": 0.75,
          "velocity": 100
        },
        {
          "pitch": 62,
          "onset": 226.75,
          "duration": 0.25,
          "velocity": 100
        },
        {
          "pitch": 69,
          "onset": 227.0,
          "duration": 0.75,
          "velocity": 100
        },
        {
          "pitch": 70,
          "onset": 227.75,
          "duration": 0.25,
          "velocity": 100
        },
        {
          "pitch": 70,
          "onset": 228.0,
          "duration": 1.0,
          "velocity": 100
        },
        {
          "pitch": 69,
          "onset": 229.75,
          "duration": 0.25,
          "velocity": 100
        },
        {
          "pitch": 69,
          "onset": 230.0,
          "duration": 0.75,
          "velocity": 100
        },
        {
          "pitch": 65,
          "onset": 230.75,
          "duration": 0.25,
          "velocity": 100
        },
        {
          "pitch": 65,
          "onset": 231.0,
          "duration": 0.75,
          "velocity": 100
        },
        {
          "pitch": 67,
          "onset": 231.75,
          "duration": 0.25,
          "velocity": 100
        },
        {
          "pitch": 65,
          "onset": 232.0,
          "duration": 1.625,
          "velocity": 100
        },
        {
          "pitch": 64,
          "onset": 233.625,
          "duration": 0.375,
          "velocity": 100
        },
        {
          "pitch": 60,
          "onset": 234.0,
          "duration": 0.75,
          "velocity": 100
        },
        {
          "pitch": 62,
          "onset": 234.75,
          "duration": 0.25,
          "velocity": 100
        },
        {
          "pitch": 64,
          "onset": 235.0,
          "duration": 0.75,
          "velocity": 100
        },
        {
          "pitch": 62,
          "onset": 235.75,
          "duration": 0.25,
          "velocity": 100
        },
        {
          "pitch": 65,
          "onset": 236.0,
          "duration": 1.625,
          "velocity": 100
        },
        {
          "pitch": 65,
          "onset": 237.625,
          "duration": 0.375,
          "velocity": 100
        },
        {
          "pitch": 62,
          "onset": 238.0,
          "duration": 0.75,
          "velocity": 100
        },
        {
          "pitch": 58,
          "onset": 238.75,
          "duration": 0.25,
          "velocity": 100
        },
        {
          "pitch": 60,
          "onset": 239.0,
          "duration": 0.75,
          "velocity": 100
        },
        {
          "pitch": 62,
          "onset": 239.75,
          "duration": 0.25,
          "velocity": 100
        },
        {
          "pitch": 58,
          "onset": 240.0,
          "duration": 1.0,
          "velocity": 100
        },
        {
          "pitch": 63,
          "onset": 240.0,
          "duration": 1.0,
          "velocity": 100
        },
        {
          "pitch": 60,
          "onset": 242.75,
          "duration": 0.25,
          "velocity": 100
        },
        {
          "pitch": 62,
          "onset": 243.0,
          "duration": 0.75,
          "velocity": 100
        },
        {
          "pitch": 63,
          "onset": 243.75,
          "duration": 0.25,
          "velocity": 100
        },
        {
          "pitch": 57,
          "onset": 244.0,
          "duration": 0.75,
          "velocity": 100
        },
        {
          "pitch": 58,
          "onset": 244.75,
          "duration": 0.25,
          "velocity": 100
        },
        {
          "pitch": 55,
          "onset": 245.0,
          "duration": 0.25,
          "velocity": 100
        },
        {
          "pitch": 57,
          "onset": 245.25,
          "duration": 0.25,
          "velocity": 100
        },
        {
          "pitch": 53,
          "onset": 245.5,
          "duration": 0.5,
          "velocity": 100
        },
        {
          "pitch": 62,
          "onset": 246.0,
          "duration": 0.5938,
          "velocity": 100
        },
        {
          "pitch": 60,
          "onset": 246.625,
          "duration": 0.375,
          "velocity": 100
        },
        {
          "pitch": 58,
          "onset": 247.0,
          "duration": 0.75,
          "velocity": 100
        },
        {
          "pitch": 62,
          "onset": 247.75,
          "duration": 0.25,
          "velocity": 100
        },
        {
          "pitch": 50,
          "onset": 248.625,
          "duration": 0.375,
          "velocity": 100
        },
        {
          "pitch": 55,
          "onset": 249.0,
          "duration": 0.25,
          "velocity": 100
        },
        {
          "pitch": 53,
          "onset": 249.25,
          "duration": 0.25,
          "velocity": 100
        },
        {
          "pitch": 63,
          "onset": 249.5,
          "duration": 0.5,
          "velocity": 100
        },
        {
          "pitch": 63,
          "onset": 250.0,
          "duration": 1.0,
          "velocity": 100
        },
        {
          "pitch": 60,
          "onset": 251.0,
          "duration": 0.25,
          "velocity": 100
        },
        {
          "pitch": 59,
          "onset": 251.25,
          "duration": 0.25,
          "velocity": 100
        },
        {
          "pitch": 60,
          "onset": 251.5,
          "duration": 0.5,
          "velocity": 100
        },
        {
          "pitch": 53,
          "onset": 252.0,
          "duration": 1.625,
          "velocity": 100
        },
        {
          "pitch": 53,
          "onset": 253.625,
          "duration": 0.375,
          "velocity": 100
        },
        {
          "pitch": 60,
          "onset": 254.75,
          "duration": 0.25,
          "velocity": 100
        },
        {
          "pitch": 62,
          "onset": 255.0,
          "duration": 0.75,
          "velocity": 100
        },
        {
          "pitch": 63,
          "onset": 255.75,
          "duration": 0.25,
          "velocity": 100
        },
        {
          "pitch": 59,
          "onset": 256.0,
          "duration": 0.75,
          "velocity": 100
        },
        {
          "pitch": 65,
          "onset": 256.75,
          "duration": 0.25,
          "velocity": 100
        },
        {
          "pitch": 63,
          "onset": 257.0,
          "duration": 0.25,
          "velocity": 100
        },
        {
          "pitch": 65,
          "onset": 257.25,
          "duration": 0.25,
          "velocity": 100
        },
        {
          "pitch": 62,
          "onset": 257.5,
          "duration": 0.5,
          "velocity": 100
        },
        {
          "pitch": 62,
          "onset": 258.0,
          "duration": 1.5,
          "velocity": 100
        },
        {
          "pitch": 60,
          "onset": 259.5,
          "duration": 0.5,
          "velocity": 100
        },
        {
          "pitch": 60,
          "onset": 260.0,
          "duration": 1.5938,
          "velocity": 100
        },
        {
          "pitch": 60,
          "onset": 261.625,
          "duration": 0.375,
          "velocity": 100
        },
        {
          "pitch": 58,
          "onset": 262.0,
          "duration": 0.75,
          "velocity": 100
        },
        {
          "pitch": 67,
          "onset": 262.75,
          "duration": 0.25,
          "velocity": 100
        },
        {
          "pitch": 65,
          "onset": 263.0,
          "duration": 0.25,
          "velocity": 100
        },
        {
          "pitch": 64,
          "onset": 263.25,
          "duration": 0.25,
          "velocity": 100
        },
        {
          "pitch": 62,
          "onset": 263.5,
          "duration": 0.25,
          "velocity": 100
        },
        {
          "pitch": 60,
          "onset": 263.75,
          "duration": 0.25,
          "velocity": 100
        },
        {
          "pitch": 65,
          "onset": 264.0,
          "duration": 0.75,
          "velocity": 100
        },
        {
          "pitch": 63,
          "onset": 264.75,
          "duration": 0.25,
          "velocity": 100
        },
        {
          "pitch": 60,
          "onset": 265.0,
          "duration": 0.75,
          "velocity": 100
        },
        {
          "pitch": 62,
          "onset": 265.75,
          "duration": 0.25,
          "velocity": 100
        },
        {
          "pitch": 63,
          "onset": 266.0,
          "duration": 0.75,
          "velocity": 100
        },
        {
          "pitch": 62,
          "onset": 266.75,
          "duration": 0.25,
          "velocity": 100
        },
        {
          "pitch": 60,
          "onset": 267.0,
          "duration": 0.25,
          "velocity": 100
        },
        {
          "pitch": 58,
          "onset": 267.25,
          "duration": 0.25,
          "velocity": 100
        },
        {
          "pitch": 57,
          "onset": 267.5,
          "duration": 0.25,
          "velocity": 100
        },
        {
          "pitch": 58,
          "onset": 267.75,
          "duration": 0.25,
          "velocity": 100
        },
        {
          "pitch": 55,
          "onset": 268.0,
          "duration": 0.75,
          "velocity": 100
        },
        {
          "pitch": 62,
          "onset": 268.75,
          "duration": 0.25,
          "velocity": 100
        },
        {
          "pitch": 69,
          "onset": 269.0,
          "duration": 0.5,
          "velocity": 100
        },
        {
          "pitch": 70,
          "onset": 269.5,
          "duration": 0.5,
          "velocity": 100
        },
        {
          "pitch": 70,
          "onset": 270.0,
          "duration": 1.0,
          "velocity": 100
        },
        {
          "pitch": 62,
          "onset": 272.75,
          "duration": 0.25,
          "velocity": 100
        },
        {
          "pitch": 60,
          "onset": 273.0,
          "duration": 0.75,
          "velocity": 100
        },
        {
          "pitch": 70,
          "onset": 273.75,
          "duration": 0.25,
          "velocity": 100
        },
        {
          "pitch": 69,
          "onset": 274.0,
          "duration": 0.75,
          "velocity": 100
        },
        {
          "pitch": 67,
          "onset": 274.75,
          "duration": 0.25,
          "velocity": 100
        },
        {
          "pitch": 69,
          "onset": 275.0,
          "duration": 0.25,
          "velocity": 100
        },
        {
          "pitch": 66,
          "onset": 275.25,
          "duration": 0.25,
          "velocity": 100
        },
        {
          "pitch": 67,
          "onset": 275.5,
          "duration": 0.5,
          "velocity": 100
        },
        {
          "pitch": 66,
          "onset": 276.0,
          "duration": 0.75,
          "velocity": 100
        },
        {
          "pitch": 62,
          "onset": 276.75,
          "duration": 0.25,
          "velocity": 100
        },
        {
          "pitch": 63,
          "onset": 277.0,
          "duration": 0.25,
          "velocity": 100
        },
        {
          "pitch": 62,
          "onset": 277.25,
          "duration": 0.25,
          "velocity": 100
        },
        {
          "pitch": 60,
          "onset": 277.5,
          "duration": 0.25,
          "velocity": 100
        },
        {
          "pitch": 58,
          "onset": 277.75,
          "duration": 0.25,
          "velocity": 100
        },
        {
          "pitch": 57,
          "onset": 278.0,
          "duration": 0.25,
          "velocity": 100
        },
        {
          "pitch": 55,
          "onset": 278.25,
          "duration": 0.25,
          "velocity": 100
        },
        {
          "pitch": 54,
          "onset": 278.5,
          "duration": 0.25,
          "velocity": 100
        },
        {
          "pitch": 55,
          "onset": 278.75,
          "duration": 0.25,
          "velocity": 100
        },
        {
          "pitch": 57,
          "onset": 279.0,
          "duration": 0.25,
          "velocity": 100
        },
        {
          "pitch": 58,
          "onset": 279.25,
          "duration": 0.25,
          "velocity": 100
        },
        {
          "pitch": 60,
          "onset": 279.5,
          "duration": 0.25,
          "velocity": 100
        },
        {
          "pitch": 57,
          "onset": 279.75,
          "duration": 0.25,
          "velocity": 100
        },
        {
          "pitch": 66,
          "onset": 280.75,
          "duration": 0.25,
          "velocity": 100
        },
        {
          "pitch": 67,
          "onset": 281.0,
          "duration": 0.25,
          "velocity": 100
        },
        {
          "pitch": 66,
          "onset": 281.25,
          "duration": 0.25,
          "velocity": 100
        },
        {
          "pitch": 64,
          "onset": 281.5,
          "duration": 0.25,
          "velocity": 100
        },
        {
          "pitch": 62,
          "onset": 281.75,
          "duration": 0.25,
          "velocity": 100
        },
        {
          "pitch": 67,
          "onset": 282.0,
          "duration": 1.5,
          "velocity": 100
        },
        {
          "pitch": 61,
          "onset": 283.5,
          "duration": 0.5,
          "velocity": 100
        },
        {
          "pitch": 62,
          "onset": 284.0,
          "duration": 0.75,
          "velocity": 100
        },
        {
          "pitch": 70,
          "onset": 284.75,
          "duration": 0.25,
          "velocity": 100
        },
        {
          "pitch": 69,
          "onset": 285.0,
          "duration": 0.25,
          "velocity": 100
        },
        {
          "pitch": 70,
          "onset": 285.25,
          "duration": 0.25,
          "velocity": 100
        },
        {
          "pitch": 72,
          "onset": 285.5,
          "duration": 0.25,
          "velocity": 100
        },
        {
          "pitch": 69,
          "onset": 285.75,
          "duration": 0.25,
          "velocity": 100
        },
        {
          "pitch": 66,
          "onset": 286.0,
          "duration": 1.5,
          "velocity": 100
        },
        {
          "pitch": 67,
          "onset": 287.5,
          "duration": 0.5,
          "velocity": 100
        },
        {
          "pitch": 67,
          "onset": 288.0,
          "duration": 0.75,
          "velocity": 100
        },
        {
          "pitch": 62,
          "onset": 288.75,
          "duration": 0.25,
          "velocity": 100
        },
        {
          "pitch": 60,
          "onset": 289.0,
          "duration": 0.25,
          "velocity": 100
        },
        {
          "pitch": 58,
          "onset": 289.25,
          "duration": 0.25,
          "velocity": 100
        },
        {
          "pitch": 57,
          "onset": 289.5,
          "duration": 0.25,
          "velocity": 100
        },
        {
          "pitch": 55,
          "onset": 289.75,
          "duration": 0.25,
          "velocity": 100
        },
        {
          "pitch": 67,
          "onset": 290.25,
          "duration": 2.75,
          "velocity": 100
        },
        {
          "pitch": 67,
          "onset": 295.25,
          "duration": 0.25,
          "velocity": 1
        }
      ]
    },
    {
      "role": "v2",
      "notes": [
        {
          "pitch": 55,
          "onset": 0.0,
          "duration": 0.25,
          "velocity": 1
        },
        {
          "pitch": 50,
          "onset": 4.0,
          "duration": 1.0,
          "velocity": 100
        },
        {
          "pitch": 55,
          "onset": 4.0,
          "duration": 1.0,
          "velocity": 100
        },
        {
          "pitch": 58,
          "onset": 4.0,
          "duration": 1.0,
          "velocity": 100
        },
        {
          "pitch": 62,
          "onset": 4.0,
          "duration": 1.0,
          "velocity": 100
        },
        {
          "pitch": 54,
          "onset": 7.0,
          "duration": 1.0,
          "velocity": 100
        },
        {
          "pitch": 58,
          "onset": 8.0,
          "duration": 2.0,
          "velocity": 100
        },
        {
          "pitch": 51,
          "onset": 10.0,
          "duration": 0.75,
          "velocity": 100
        },
        {
          "pitch": 48,
          "onset": 10.75,
          "duration": 0.25,
          "velocity": 100
        },
        {
          "pitch": 50,
          "onset": 11.0,
          "duration": 0.75,
          "velocity": 100
        },
        {
          "pitch": 45,
          "onset": 11.75,
          "duration": 0.25,
          "velocity": 100
        },
        {
          "pitch": 50,
          "onset": 12.0,
          "duration": 1.0,
          "velocity": 100
        },
        {
          "pitch": 51,
          "onset": 14.0,
          "duration": 1.0,
          "velocity": 100
        },
        {
          "pitch": 50,
          "onset": 16.0,
          "duration": 1.0,
          "velocity": 100
        },
        {
          "pitch": 54,
          "onset": 18.0,
          "duration": 1.0,
          "velocity": 100
        },
        {
          "pitch": 57,
          "onset": 18.0,
          "duration": 1.0,
          "velocity": 100
        },
        {
          "pitch": 60,
          "onset": 18.0,
          "duration": 1.0,
          "velocity": 100
        },
        {
          "pitch": 50,
          "onset": 20.0,
          "duration": 1.0,
          "velocity": 100
        },
        {
          "pitch": 50,
          "onset": 24.0,
          "duration": 1.0,
          "velocity": 100
        },
        {
          "pitch": 53,
          "onset": 24.0,
          "duration": 1.0,
          "velocity": 100
        },
        {
          "pitch": 58,
          "onset": 24.0,
          "duration": 1.0,
          "velocity": 100
        },
        {
          "pitch": 58,
          "onset": 28.0,
          "duration": 1.0,
          "velocity": 100
        },
        {
          "pitch": 63,
          "onset": 28.0,
          "duration": 1.0,
          "velocity": 100
        },
        {
          "pitch": 50,
          "onset": 32.0,
          "duration": 1.0,
          "velocity": 100
        },
        {
          "pitch": 55,
          "onset": 32.0,
          "duration": 1.0,
          "velocity": 100
        },
        {
          "pitch": 55,
          "onset": 34.0,
          "duration": 0.75,
          "velocity": 100
        },
        {
          "pitch": 55,
          "onset": 36.0,
          "duration": 1.0,
          "velocity": 100
        },
        {
          "pitch": 60,
          "onset": 36.0,
          "duration": 1.0,
          "velocity": 100
        },
        {
          "pitch": 51,
          "onset": 40.0,
          "duration": 1.25,
          "velocity": 100
        },
        {
          "pitch": 53,
          "onset": 44.0,
          "duration": 1.0,
          "velocity": 100
        },
        {
          "pitch": 60,
          "onset": 44.0,
          "duration": 1.0,
          "velocity": 100
        },
        {
          "pitch": 63,
          "onset": 48.0,
          "duration": 1.0,
          "velocity": 100
        },
        {
          "pitch": 46,
          "onset": 52.0,
          "duration": 1.0,
          "velocity": 100
        },
        {
          "pitch": 54,
          "onset": 54.0,
          "duration": 1.0,
          "velocity": 100
        },
        {
          "pitch": 55,
          "onset": 56.0,
          "duration": 1.0,
          "velocity": 100
        },
        {
          "pitch": 52,
          "onset": 60.0,
          "duration": 1.0,
          "velocity": 100
        },
        {
          "pitch": 61,
          "onset": 60.0,
          "duration": 1.0,
          "velocity": 100
        },
        {
          "pitch": 52,
          "onset": 66.0,
          "duration": 1.0,
          "velocity": 100
        },
        {
          "pitch": 61,
          "onset": 66.0,
          "duration": 1.0,
          "velocity": 100
        },
        {
          "pitch": 55,
          "onset": 67.75,
          "duration": 0.25,
          "velocity": 100
        },
        {
          "pitch": 57,
          "onset": 67.75,
          "duration": 0.25,
          "velocity": 100
        },
        {
          "pitch": 53,
          "onset": 68.0,
          "duration": 1.0,
          "velocity": 100
        },
        {
          "pitch": 57,
          "onset": 68.0,
          "duration": 1.0,
          "velocity": 100
        },
        {
          "pitch": 61,
          "onset": 70.0,
          "duration": 2.0,
          "velocity": 100
        },
        {
          "pitch": 50,
          "onset": 74.0,
          "duration": 1.5,
          "velocity": 100
        },
        {
          "pitch": 50,
          "onset": 76.0,
          "duration": 1.0,
          "velocity": 100
        },
        {
          "pitch": 55,
          "onset": 76.0,
          "duration": 1.0,
          "velocity": 100
        },
        {
          "pitch": 58,
          "onset": 76.0,
          "duration": 1.0,
          "velocity": 100
        },
        {
          "pitch": 62,
          "onset": 76.0,
          "duration": 1.0,
          "velocity": 100
        },
        {
          "pitch": 54,
          "onset": 79.0,
          "duration": 1.0,
          "velocity": 100
        },
        {
          "pitch": 58,
          "onset": 80.0,
          "duration": 2.0,
          "velocity": 100
        },
        {
          "pitch": 51,
          "onset": 82.0,
          "duration": 0.75,
          "velocity": 100
        },
        {
          "pitch": 48,
          "onset": 82.75,
          "duration": 0.25,
          "velocity": 100
        },
        {
          "pitch": 50,
          "onset": 83.0,
          "duration": 0.75,
          "velocity": 100
        },
        {
          "pitch": 45,
          "onset": 83.75,
          "duration": 0.25,
          "velocity": 100
        },
        {
          "pitch": 50,
          "onset": 84.0,
          "duration": 1.0,
          "velocity": 100
        },
        {
          "pitch": 51,
          "onset": 86.0,
          "duration": 1.0,
          "velocity": 100
        },
        {
          "pitch": 50,
          "onset": 88.0,
          "duration": 1.0,
          "velocity": 100
        },
        {
          "pitch": 54,
          "onset": 90.0,
          "duration": 1.0,
          "velocity": 100
        },
        {
          "pitch": 57,
          "onset": 90.0,
          "duration": 1.0,
          "velocity": 100
        },
        {
          "pitch": 60,
          "onset": 90.0,
          "duration": 1.0,
          "velocity": 100
        },
        {
          "pitch": 50,
          "onset": 92.0,
          "duration": 1.0,
          "velocity": 100
        },
        {
          "pitch": 50,
          "onset": 96.0,
          "duration": 1.0,
          "velocity": 100
        },
        {
          "pitch": 53,
          "onset": 96.0,
          "duration": 1.0,
          "velocity": 100
        },
        {
          "pitch": 58,
          "onset": 96.0,
          "duration": 1.0,
          "velocity": 100
        },
        {
          "pitch": 58,
          "onset": 100.0,
          "duration": 1.0,
          "velocity": 100
        },
        {
          "pitch": 63,
          "onset": 100.0,
          "duration": 1.0,
          "velocity": 100
        },
        {
          "pitch": 50,
          "onset": 104.0,
          "duration": 1.0,
          "velocity": 100
        },
        {
          "pitch": 55,
          "onset": 104.0,
          "duration": 1.0,
          "velocity": 100
        },
        {
          "pitch": 55,
          "onset": 106.0,
          "duration": 0.75,
          "velocity": 100
        },
        {
          "pitch": 55,
          "onset": 108.0,
          "duration": 1.0,
          "velocity": 100
        },
        {
          "pitch": 60,
          "onset": 108.0,
          "duration": 1.0,
          "velocity": 100
        },
        {
          "pitch": 51,
          "onset": 112.0,
          "duration": 1.25,
          "velocity": 100
        },
        {
          "pitch": 53,
          "onset": 116.0,
          "duration": 1.0,
          "velocity": 100
        },
        {
          "pitch": 60,
          "onset": 116.0,
          "duration": 1.0,
          "velocity": 100
        },
        {
          "pitch": 63,
          "onset": 120.0,
          "duration": 1.0,
          "velocity": 100
        },
        {
          "pitch": 46,
          "onset": 124.0,
          "duration": 1.0,
          "velocity": 100
        },
        {
          "pitch": 54,
          "onset": 126.0,
          "duration": 1.0,
          "velocity": 100
        },
        {
          "pitch": 55,
          "onset": 128.0,
          "duration": 1.0,
          "velocity": 100
        },
        {
          "pitch": 52,
          "onset": 132.0,
          "duration": 1.0,
          "velocity": 100
        },
        {
          "pitch": 61,
          "onset": 132.0,
          "duration": 1.0,
          "velocity": 100
        },
        {
          "pitch": 52,
          "onset": 138.0,
          "duration": 1.0,
          "velocity": 100
        },
        {
          "pitch": 61,
          "onset": 138.0,
          "duration": 1.0,
          "velocity": 100
        },
        {
          "pitch": 55,
          "onset": 139.75,
          "duration": 0.25,
          "velocity": 100
        },
        {
          "pitch": 57,
          "onset": 139.75,
          "duration": 0.25,
          "velocity": 100
        },
        {
          "pitch": 53,
          "onset": 140.0,
          "duration": 1.0,
          "velocity": 100
        },
        {
          "pitch": 57,
          "onset": 140.0,
          "duration": 1.0,
          "velocity": 100
        },
        {
          "pitch": 61,
          "onset": 142.0,
          "duration": 2.0,
          "velocity": 100
        },
        {
          "pitch": 50,
          "onset": 146.0,
          "duration": 1.5,
          "velocity": 100
        },
        {
          "pitch": 57,
          "onset": 148.0,
          "duration": 1.0,
          "velocity": 100
        },
        {
          "pitch": 62,
          "onset": 148.0,
          "duration": 1.0,
          "velocity": 100
        },
        {
          "pitch": 66,
          "onset": 148.0,
          "duration": 1.0,
          "velocity": 100
        },
        {
          "pitch": 55,
          "onset": 156.0,
          "duration": 1.0,
          "velocity": 100
        },
        {
          "pitch": 58,
          "onset": 156.0,
          "duration": 1.0,
          "velocity": 100
        },
        {
          "pitch": 55,
          "onset": 160.0,
          "duration": 1.0,
          "velocity": 100
        },
        {
          "pitch": 60,
          "onset": 160.0,
          "duration": 1.0,
          "velocity": 100
        },
        {
          "pitch": 53,
          "onset": 164.0,
          "duration": 1.0,
          "velocity": 100
        },
        {
          "pitch": 57,
          "onset": 164.0,
          "duration": 1.0,
          "velocity": 100
        },
        {
          "pitch": 60,
          "onset": 164.0,
          "duration": 1.0,
          "velocity": 100
        },
        {
          "pitch": 55,
          "onset": 168.0,
          "duration": 1.25,
          "velocity": 100
        },
        {
          "pitch": 55,
          "onset": 169.25,
          "duration": 0.25,
          "velocity": 100
        },
        {
          "pitch": 57,
          "onset": 169.5,
          "duration": 0.25,
          "velocity": 100
        },
        {
          "pitch": 58,
          "onset": 169.75,
          "duration": 0.25,
          "velocity": 100
        },
        {
          "pitch": 57,
          "onset": 170.0,
          "duration": 0.75,
          "velocity": 100
        },
        {
          "pitch": 57,
          "onset": 170.75,
          "duration": 0.25,
          "velocity": 100
        },
        {
          "pitch": 58,
          "onset": 171.0,
          "duration": 0.75,
          "velocity": 100
        },
        {
          "pitch": 60,
          "onset": 171.75,
          "duration": 0.25,
          "velocity": 100
        },
        {
          "pitch": 60,
          "onset": 172.0,
          "duration": 1.0,
          "velocity": 100
        },
        {
          "pitch": 63,
          "onset": 172.0,
          "duration": 1.0,
          "velocity": 100
        },
        {
          "pitch": 58,
          "onset": 174.0,
          "duration": 0.5,
          "velocity": 100
        },
        {
          "pitch": 59,
          "onset": 180.0,
          "duration": 1.0,
          "velocity": 100
        },
        {
          "pitch": 51,
          "onset": 182.0,
          "duration": 1.0,
          "velocity": 100
        },
        {
          "pitch": 60,
          "onset": 185.0,
          "duration": 1.0,
          "velocity": 100
        },
        {
          "pitch": 59,
          "onset": 186.0,
          "duration": 2.0,
          "velocity": 100
        },
        {
          "pitch": 53,
          "onset": 192.0,
          "duration": 1.0,
          "velocity": 100
        },
        {
          "pitch": 60,
          "onset": 192.0,
          "duration": 1.0,
          "velocity": 100
        },
        {
          "pitch": 55,
          "onset": 198.0,
          "duration": 1.0,
          "velocity": 100
        },
        {
          "pitch": 62,
          "onset": 198.0,
          "duration": 1.0,
          "velocity": 100
        },
        {
          "pitch": 60,
          "onset": 204.0,
          "duration": 0.75,
          "velocity": 100
        },
        {
          "pitch": 52,
          "onset": 211.5,
          "duration": 0.5,
          "velocity": 100
        },
        {
          "pitch": 57,
          "onset": 214.0,
          "duration": 2.0,
          "velocity": 100
        },
        {
          "pitch": 55,
          "onset": 218.0,
          "duration": 1.5,
          "velocity": 100
        },
        {
          "pitch": 58,
          "onset": 218.0,
          "duration": 1.5,
          "velocity": 100
        },
        {
          "pitch": 62,
          "onset": 218.0,
          "duration": 1.5,
          "velocity": 100
        },
        {
          "pitch": 57,
          "onset": 220.0,
          "duration": 1.0,
          "velocity": 100
        },
        {
          "pitch": 62,
          "onset": 220.0,
          "duration": 1.0,
          "velocity": 100
        },
        {
          "pitch": 66,
          "onset": 220.0,
          "duration": 1.0,
          "velocity": 100
        },
        {
          "pitch": 55,
          "onset": 228.0,
          "duration": 1.0,
          "velocity": 100
        },
        {
          "pitch": 58,
          "onset": 228.0,
          "duration": 1.0,
          "velocity": 100
        },
        {
          "pitch": 55,
          "onset": 232.0,
          "duration": 1.0,
          "velocity": 100
        },
        {
          "pitch": 60,
          "onset": 232.0,
          "duration": 1.0,
          "velocity": 100
        },
        {
          "pitch": 53,
          "onset": 236.0,
          "duration": 1.0,
          "velocity": 100
        },
        {
          "pitch": 57,
          "onset": 236.0,
          "duration": 1.0,
          "velocity": 100
        },
        {
          "pitch": 60,
          "onset": 236.0,
          "duration": 1.0,
          "velocity": 100
        },
        {
          "pitch": 55,
          "onset": 240.0,
          "duration": 1.25,
          "velocity": 100
        },
        {
          "pitch": 55,
          "onset": 241.25,
          "duration": 0.25,
          "velocity": 100
        },
        {
          "pitch": 57,
          "onset": 241.5,
          "duration": 0.25,
          "velocity": 100
        },
        {
          "pitch": 58,
          "onset": 241.75,
          "duration": 0.25,
          "velocity": 100
        },
        {
          "pitch": 57,
          "onset": 242.0,
          "duration": 0.75,
          "velocity": 100
        },
        {
          "pitch": 57,
          "onset": 242.75,
          "duration": 0.25,
          "velocity": 100
        },
        {
          "pitch": 58,
          "onset": 243.0,
          "duration": 0.75,
          "velocity": 100
        },
        {
          "pitch": 60,
          "onset": 243.75,
          "duration": 0.25,
          "velocity": 100
        },
        {
          "pitch": 60,
          "onset": 244.0,
          "duration": 1.0,
          "velocity": 100
        },
        {
          "pitch": 63,
          "onset": 244.0,
          "duration": 1.0,
          "velocity": 100
        },
        {
          "pitch": 58,
          "onset": 246.0,
          "duration": 0.5,
          "velocity": 100
        },
        {
          "pitch": 59,
          "onset": 252.0,
          "duration": 1.0,
          "velocity": 100
        },
        {
          "pitch": 51,
          "onset": 254.0,
          "duration": 1.0,
          "velocity": 100
        },
        {
          "pitch": 60,
          "onset": 257.0,
          "duration": 1.0,
          "velocity": 100
        },
        {
          "pitch": 59,
          "onset": 258.0,
          "duration": 2.0,
          "velocity": 100
        },
        {
          "pitch": 53,
          "onset": 264.0,
          "duration": 1.0,
          "velocity": 100
        },
        {
          "pitch": 60,
          "onset": 264.0,
          "duration": 1.0,
          "velocity": 100
        },
        {
          "pitch": 55,
          "onset": 270.0,
          "duration": 1.0,
          "velocity": 100
        },
        {
          "pitch": 62,
          "onset": 270.0,
          "duration": 1.0,
          "velocity": 100
        },
        {
          "pitch": 60,
          "onset": 276.0,
          "duration": 0.75,
          "velocity": 100
        },
        {
          "pitch": 52,
          "onset": 283.5,
          "duration": 0.5,
          "velocity": 100
        },
        {
          "pitch": 57,
          "onset": 286.0,
          "duration": 2.0,
          "velocity": 100
        },
        {
          "pitch": 55,
          "onset": 290.0625,
          "duration": 2.9375,
          "velocity": 100
        },
        {
          "pitch": 58,
          "onset": 290.125,
          "duration": 2.875,
          "velocity": 100
        },
        {
          "pitch": 62,
          "onset": 290.1875,
          "duration": 2.8125,
          "velocity": 100
        }
      ]
    },
    {
      "role": "v3",
      "notes": [
        {
          "pitch": 55,
          "onset": 0.0,
          "duration": 0.25,
          "velocity": 1
        },
        {
          "pitch": 43,
          "onset": 4.0,
          "duration": 1.0,
          "velocity": 100
        },
        {
          "pitch": 46,
          "onset": 12.0,
          "duration": 1.0,
          "velocity": 100
        },
        {
          "pitch": 38,
          "onset": 18.0,
          "duration": 1.0,
          "velocity": 100
        },
        {
          "pitch": 43,
          "onset": 20.0,
          "duration": 1.0,
          "velocity": 100
        },
        {
          "pitch": 38,
          "onset": 24.0,
          "duration": 1.0,
          "velocity": 100
        },
        {
          "pitch": 39,
          "onset": 28.0,
          "duration": 1.0,
          "velocity": 100
        },
        {
          "pitch": 47,
          "onset": 32.0,
          "duration": 1.0,
          "velocity": 100
        },
        {
          "pitch": 48,
          "onset": 36.0,
          "duration": 1.0,
          "velocity": 100
        },
        {
          "pitch": 45,
          "onset": 44.0,
          "duration": 1.0,
          "velocity": 100
        },
        {
          "pitch": 43,
          "onset": 57.0,
          "duration": 1.0,
          "velocity": 100
        },
        {
          "pitch": 43,
          "onset": 60.0,
          "duration": 1.0,
          "velocity": 100
        },
        {
          "pitch": 41,
          "onset": 62.0,
          "duration": 1.0,
          "velocity": 100
        },
        {
          "pitch": 43,
          "onset": 69.0,
          "duration": 1.0,
          "velocity": 100
        },
        {
          "pitch": 45,
          "onset": 70.0,
          "duration": 2.0,
          "velocity": 100
        },
        {
          "pitch": 38,
          "onset": 72.0,
          "duration": 3.4688,
          "velocity": 100
        },
        {
          "pitch": 43,
          "onset": 76.0,
          "duration": 1.0,
          "velocity": 100
        },
        {
          "pitch": 46,
          "onset": 84.0,
          "duration": 1.0,
          "velocity": 100
        },
        {
          "pitch": 38,
          "onset": 90.0,
          "duration": 1.0,
          "velocity": 100
        },
        {
          "pitch": 43,
          "onset": 92.0,
          "duration": 1.0,
          "velocity": 100
        },
        {
          "pitch": 38,
          "onset": 96.0,
          "duration": 1.0,
          "velocity": 100
        },
        {
          "pitch": 39,
          "onset": 100.0,
          "duration": 1.0,
          "velocity": 100
        },
        {
          "pitch": 47,
          "onset": 104.0,
          "duration": 1.0,
          "velocity": 100
        },
        {
          "pitch": 48,
          "onset": 108.0,
          "duration": 1.0,
          "velocity": 100
        },
        {
          "pitch": 45,
          "onset": 116.0,
          "duration": 1.0,
          "velocity": 100
        },
        {
          "pitch": 43,
          "onset": 129.0,
          "duration": 1.0,
          "velocity": 100
        },
        {
          "pitch": 43,
          "onset": 132.0,
          "duration": 1.0,
          "velocity": 100
        },
        {
          "pitch": 41,
          "onset": 134.0,
          "duration": 1.0,
          "velocity": 100
        },
        {
          "pitch": 43,
          "onset": 141.0,
          "duration": 1.0,
          "velocity": 100
        },
        {
          "pitch": 45,
          "onset": 142.0,
          "duration": 2.0,
          "velocity": 100
        },
        {
          "pitch": 38,
          "onset": 144.0,
          "duration": 3.4688,
          "velocity": 100
        },
        {
          "pitch": 50,
          "onset": 148.0,
          "duration": 1.0,
          "velocity": 100
        },
        {
          "pitch": 43,
          "onset": 157.0,
          "duration": 1.0,
          "velocity": 100
        },
        {
          "pitch": 46,
          "onset": 160.0,
          "duration": 1.0,
          "velocity": 100
        },
        {
          "pitch": 45,
          "onset": 164.0,
          "duration": 1.0,
          "velocity": 100
        },
        {
          "pitch": 33,
          "onset": 165.0,
          "duration": 1.0,
          "velocity": 100
        },
        {
          "pitch": 50,
          "onset": 172.0,
          "duration": 1.0,
          "velocity": 100
        },
        {
          "pitch": 53,
          "onset": 172.0,
          "duration": 1.0,
          "velocity": 100
        },
        {
          "pitch": 44,
          "onset": 176.0,
          "duration": 1.0,
          "velocity": 100
        },
        {
          "pitch": 43,
          "onset": 180.0,
          "duration": 1.0,
          "velocity": 100
        },
        {
          "pitch": 43,
          "onset": 186.0,
          "duration": 1.0,
          "velocity": 100
        },
        {
          "pitch": 41,
          "onset": 187.0,
          "duration": 1.0,
          "velocity": 100
        },
        {
          "pitch": 40,
          "onset": 188.0,
          "duration": 1.0,
          "velocity": 100
        },
        {
          "pitch": 45,
          "onset": 192.0,
          "duration": 1.0,
          "velocity": 100
        },
        {
          "pitch": 43,
          "onset": 198.75,
          "duration": 0.25,
          "velocity": 100
        },
        {
          "pitch": 38,
          "onset": 199.0,
          "duration": 0.75,
          "velocity": 100
        },
        {
          "pitch": 39,
          "onset": 199.75,
          "duration": 0.25,
          "velocity": 100
        },
        {
          "pitch": 39,
          "onset": 200.0,
          "duration": 2.0,
          "velocity": 100
        },
        {
          "pitch": 50,
          "onset": 204.0,
          "duration": 1.0,
          "velocity": 100
        },
        {
          "pitch": 51,
          "onset": 208.0,
          "duration": 1.0,
          "velocity": 100
        },
        {
          "pitch": 50,
          "onset": 212.0,
          "duration": 2.0,
          "velocity": 100
        },
        {
          "pitch": 38,
          "onset": 214.0,
          "duration": 2.0,
          "velocity": 100
        },
        {
          "pitch": 43,
          "onset": 216.0,
          "duration": 2.0,
          "velocity": 100
        },
        {
          "pitch": 31,
          "onset": 218.0,
          "duration": 1.5,
          "velocity": 100
        },
        {
          "pitch": 50,
          "onset": 220.0,
          "duration": 1.0,
          "velocity": 100
        },
        {
          "pitch": 43,
          "onset": 229.0,
          "duration": 1.0,
          "velocity": 100
        },
        {
          "pitch": 46,
          "onset": 232.0,
          "duration": 1.0,
          "velocity": 100
        },
        {
          "pitch": 45,
          "onset": 236.0,
          "duration": 1.0,
          "velocity": 100
        },
        {
          "pitch": 33,
          "onset": 237.0,
          "duration": 1.0,
          "velocity": 100
        },
        {
          "pitch": 50,
          "onset": 244.0,
          "duration": 1.0,
          "velocity": 100
        },
        {
          "pitch": 53,
          "onset": 244.0,
          "duration": 1.0,
          "velocity": 100
        },
        {
          "pitch": 44,
          "onset": 248.0,
          "duration": 1.0,
          "velocity": 100
        },
        {
          "pitch": 43,
          "onset": 252.0,
          "duration": 1.0,
          "velocity": 100
        },
        {
          "pitch": 43,
          "onset": 258.0,
          "duration": 1.0,
          "velocity": 100
        },
        {
          "pitch": 41,
          "onset": 259.0,
          "duration": 1.0,
          "velocity": 100
        },
        {
          "pitch": 40,
          "onset": 260.0,
          "duration": 1.0,
          "velocity": 100
        },
        {
          "pitch": 45,
          "onset": 264.0,
          "duration": 1.0,
          "velocity": 100
        },
        {
          "pitch": 43,
          "onset": 270.75,
          "duration": 0.25,
          "velocity": 100
        },
        {
          "pitch": 38,
          "onset": 271.0,
          "duration": 0.75,
          "velocity": 100
        },
        {
          "pitch": 39,
          "onset": 271.75,
          "duration": 0.25,
          "velocity": 100
        },
        {
          "pitch": 39,
          "onset": 272.0,
          "duration": 2.0,
          "velocity": 100
        },
        {
          "pitch": 50,
          "onset": 276.0,
          "duration": 1.0,
          "velocity": 100
        },
        {
          "pitch": 51,
          "onset": 280.0,
          "duration": 1.0,
          "velocity": 100
        },
        {
          "pitch": 50,
          "onset": 284.0,
          "duration": 2.0,
          "velocity": 100
        },
        {
          "pitch": 38,
          "onset": 286.0,
          "duration": 2.0,
          "velocity": 100
        },
        {
          "pitch": 43,
          "onset": 288.0,
          "duration": 2.0,
          "velocity": 100
        },
        {
          "pitch": 31,
          "onset": 290.0,
          "duration": 3.0,
          "velocity": 100
        }
      ]
    }
  ]
}