{
  "bwv": 988,
  "category": "goldberg",
  "instrument": "keyboard",
  "form": "variation",
  "movement": 24,
  "ticks_per_beat": 480,
  "duration_seconds": 83.1,
  "tempos": [
    {
      "tick": 0,
      "bpm": 110
    },
    {
      "tick": 31680,
      "bpm": 105
    },
    {
      "tick": 33120,
      "bpm": 100
    },
    {
      "tick": 34560,
      "bpm": 110
    },
    {
      "tick": 66240,
      "bpm": 105
    },
    {
      "tick": 66960,
      "bpm": 100
    },
    {
      "tick": 67920,
      "bpm": 90
    }
  ],
  "time_signatures": [
    {
      "tick": 0,
      "numerator": 9,
      "denominator": 8
    }
  ],
  "track_type": "manual",
  "voice_count": 1,
  "total_notes": 631,
  "tracks": [
    {
      "role": "manual",
      "notes": [
        {
          "pitch": 55,
          "onset": 0.0,
          "duration": 1.5,
          "velocity": 100
        },
        {
          "pitch": 67,
          "onset": 0.0,
          "duration": 1.0,
          "velocity": 100
        },
        {
          "pitch": 66,
          "onset": 1.0,
          "duration": 0.5,
          "velocity": 100
        },
        {
          "pitch": 67,
          "onset": 1.5,
          "duration": 1.0,
          "velocity": 100
        },
        {
          "pitch": 54,
          "onset": 2.5,
          "duration": 0.5,
          "velocity": 100
        },
        {
          "pitch": 69,
          "onset": 2.5,
          "duration": 0.5,
          "velocity": 100
        },
        {
          "pitch": 55,
          "onset": 3.0,
          "duration": 1.0,
          "velocity": 100
        },
        {
          "pitch": 71,
          "onset": 3.0,
          "duration": 0.5,
          "velocity": 100
        },
        {
          "pitch": 74,
          "onset": 3.5,
          "duration": 0.5,
          "velocity": 100
        },
        {
          "pitch": 52,
          "onset": 4.0,
          "duration": 0.5,
          "velocity": 100
        },
        {
          "pitch": 73,
          "onset": 4.0,
          "duration": 0.5,
          "velocity": 100
        },
        {
          "pitch": 54,
          "onset": 4.5,
          "duration": 1.5,
          "velocity": 100
        },
        {
          "pitch": 74,
          "onset": 4.5,
          "duration": 1.0,
          "velocity": 100
        },
        {
          "pitch": 69,
          "onset": 5.5,
          "duration": 0.5,
          "velocity": 100
        },
        {
          "pitch": 74,
          "onset": 6.0,
          "duration": 1.0,
          "velocity": 100
        },
        {
          "pitch": 57,
          "onset": 7.0,
          "duration": 0.5,
          "velocity": 100
        },
        {
          "pitch": 76,
          "onset": 7.0,
          "duration": 0.5,
          "velocity": 100
        },
        {
          "pitch": 50,
          "onset": 7.5,
          "duration": 1.0,
          "velocity": 100
        },
        {
          "pitch": 76,
          "onset": 7.5,
          "duration": 0.2188,
          "velocity": 100
        },
        {
          "pitch": 78,
          "onset": 7.625,
          "duration": 0.2188,
          "velocity": 100
        },
        {
          "pitch": 79,
          "onset": 7.75,
          "duration": 0.25,
          "velocity": 100
        },
        {
          "pitch": 78,
          "onset": 8.0,
          "duration": 0.25,
          "velocity": 100
        },
        {
          "pitch": 76,
          "onset": 8.25,
          "duration": 0.25,
          "velocity": 100
        },
        {
          "pitch": 54,
          "onset": 8.5,
          "duration": 0.5,
          "velocity": 100
        },
        {
          "pitch": 74,
          "onset": 8.5,
          "duration": 0.5,
          "velocity": 100
        },
        {
          "pitch": 52,
          "onset": 9.0,
          "duration": 3.9688,
          "velocity": 100
        },
        {
          "pitch": 55,
          "onset": 9.0,
          "duration": 1.0,
          "velocity": 100
        },
        {
          "pitch": 79,
          "onset": 9.0,
          "duration": 0.5,
          "velocity": 100
        },
        {
          "pitch": 83,
          "onset": 9.5,
          "duration": 0.5,
          "velocity": 100
        },
        {
          "pitch": 54,
          "onset": 10.0,
          "duration": 0.5,
          "velocity": 100
        },
        {
          "pitch": 81,
          "onset": 10.0,
          "duration": 0.5,
          "velocity": 100
        },
        {
          "pitch": 55,
          "onset": 10.5,
          "duration": 1.0,
          "velocity": 100
        },
        {
          "pitch": 83,
          "onset": 10.5,
          "duration": 0.5,
          "velocity": 100
        },
        {
          "pitch": 79,
          "onset": 11.0,
          "duration": 0.5,
          "velocity": 100
        },
        {
          "pitch": 57,
          "onset": 11.5,
          "duration": 0.5,
          "velocity": 100
        },
        {
          "pitch": 78,
          "onset": 11.5,
          "duration": 0.5,
          "velocity": 100
        },
        {
          "pitch": 59,
          "onset": 12.0,
          "duration": 0.5,
          "velocity": 100
        },
        {
          "pitch": 79,
          "onset": 12.0,
          "duration": 1.9688,
          "velocity": 100
        },
        {
          "pitch": 62,
          "onset": 12.5,
          "duration": 0.5,
          "velocity": 100
        },
        {
          "pitch": 57,
          "onset": 13.0,
          "duration": 0.5,
          "velocity": 100
        },
        {
          "pitch": 61,
          "onset": 13.0,
          "duration": 0.5,
          "velocity": 100
        },
        {
          "pitch": 50,
          "onset": 13.5,
          "duration": 1.5,
          "velocity": 100
        },
        {
          "pitch": 62,
          "onset": 13.5,
          "duration": 1.0,
          "velocity": 100
        },
        {
          "pitch": 78,
          "onset": 14.0,
          "duration": 0.5,
          "velocity": 100
        },
        {
          "pitch": 57,
          "onset": 14.5,
          "duration": 0.5,
          "velocity": 100
        },
        {
          "pitch": 76,
          "onset": 14.5,
          "duration": 0.5,
          "velocity": 100
        },
        {
          "pitch": 62,
          "onset": 15.0,
          "duration": 1.0,
          "velocity": 100
        },
        {
          "pitch": 78,
          "onset": 15.0,
          "duration": 0.5,
          "velocity": 100
        },
        {
          "pitch": 79,
          "onset": 15.5,
          "duration": 0.5,
          "velocity": 100
        },
        {
          "pitch": 64,
          "onset": 16.0,
          "duration": 0.5,
          "velocity": 100
        },
        {
          "pitch": 81,
          "onset": 16.0,
          "duration": 0.5,
          "velocity": 100
        },
        {
          "pitch": 64,
          "onset": 16.5,
          "duration": 0.2188,
          "velocity": 100
        },
        {
          "pitch": 74,
          "onset": 16.5,
          "duration": 1.9688,
          "velocity": 100
        },
        {
          "pitch": 66,
          "onset": 16.625,
          "duration": 0.2188,
          "velocity": 100
        },
        {
          "pitch": 67,
          "onset": 16.75,
          "duration": 0.25,
          "velocity": 100
        },
        {
          "pitch": 66,
          "onset": 17.0,
          "duration": 0.25,
          "velocity": 100
        },
        {
          "pitch": 64,
          "onset": 17.25,
          "duration": 0.25,
          "velocity": 100
        },
        {
          "pitch": 60,
          "onset": 17.5,
          "duration": 0.5,
          "velocity": 100
        },
        {
          "pitch": 62,
          "onset": 17.5,
          "duration": 0.5,
          "velocity": 100
        },
        {
          "pitch": 59,
          "onset": 18.0,
          "duration": 1.5,
          "velocity": 100
        },
        {
          "pitch": 67,
          "onset": 18.0,
          "duration": 0.5,
          "velocity": 100
        },
        {
          "pitch": 71,
          "onset": 18.5,
          "duration": 0.5,
          "velocity": 100
        },
        {
          "pitch": 79,
          "onset": 18.5,
          "duration": 0.5,
          "velocity": 100
        },
        {
          "pitch": 69,
          "onset": 19.0,
          "duration": 0.5,
          "velocity": 100
        },
        {
          "pitch": 78,
          "onset": 19.0,
          "duration": 0.5,
          "velocity": 100
        },
        {
          "pitch": 71,
          "onset": 19.5,
          "duration": 0.5,
          "velocity": 100
        },
        {
          "pitch": 79,
          "onset": 19.5,
          "duration": 0.5,
          "velocity": 100
        },
        {
          "pitch": 67,
          "onset": 20.0,
          "duration": 0.5,
          "velocity": 100
        },
        {
          "pitch": 83,
          "onset": 20.0,
          "duration": 0.5,
          "velocity": 100
        },
        {
          "pitch": 62,
          "onset": 20.5,
          "duration": 0.5,
          "velocity": 100
        },
        {
          "pitch": 66,
          "onset": 20.5,
          "duration": 0.5,
          "velocity": 100
        },
        {
          "pitch": 81,
          "onset": 20.5,
          "duration": 0.5,
          "velocity": 100
        },
        {
          "pitch": 55,
          "onset": 21.0,
          "duration": 1.0,
          "velocity": 100
        },
        {
          "pitch": 67,
          "onset": 21.0,
          "duration": 1.9688,
          "velocity": 100
        },
        {
          "pitch": 83,
          "onset": 21.0,
          "duration": 0.5,
          "velocity": 100
        },
        {
          "pitch": 86,
          "onset": 21.5,
          "duration": 0.25,
          "velocity": 100
        },
        {
          "pitch": 84,
          "onset": 21.75,
          "duration": 0.25,
          "velocity": 100
        },
        {
          "pitch": 59,
          "onset": 22.0,
          "duration": 0.5,
          "velocity": 100
        },
        {
          "pitch": 83,
          "onset": 22.0,
          "duration": 0.25,
          "velocity": 100
        },
        {
          "pitch": 81,
          "onset": 22.25,
          "duration": 0.25,
          "velocity": 100
        },
        {
          "pitch": 64,
          "onset": 22.5,
          "duration": 1.0,
          "velocity": 100
        },
        {
          "pitch": 83,
          "onset": 22.5,
          "duration": 0.5,
          "velocity": 100
        },
        {
          "pitch": 66,
          "onset": 23.0,
          "duration": 0.5,
          "velocity": 100
        },
        {
          "pitch": 84,
          "onset": 23.0,
          "duration": 0.25,
          "velocity": 100
        },
        {
          "pitch": 83,
          "onset": 23.25,
          "duration": 0.25,
          "velocity": 100
        },
        {
          "pitch": 64,
          "onset": 23.5,
          "duration": 0.5,
          "velocity": 100
        },
        {
          "pitch": 81,
          "onset": 23.5,
          "duration": 0.25,
          "velocity": 100
        },
        {
          "pitch": 79,
          "onset": 23.75,
          "duration": 0.25,
          "velocity": 100
        },
        {
          "pitch": 66,
          "onset": 24.0,
          "duration": 0.5,
          "velocity": 100
        },
        {
          "pitch": 81,
          "onset": 24.0,
          "duration": 0.5,
          "velocity": 100
        },
        {
          "pitch": 67,
          "onset": 24.5,
          "duration": 0.5,
          "velocity": 100
        },
        {
          "pitch": 83,
          "onset": 24.5,
          "duration": 0.25,
          "velocity": 100
        },
        {
          "pitch": 81,
          "onset": 24.75,
          "duration": 0.25,
          "velocity": 100
        },
        {
          "pitch": 57,
          "onset": 25.0,
          "duration": 0.5,
          "velocity": 100
        },
        {
          "pitch": 69,
          "onset": 25.0,
          "duration": 0.5,
          "velocity": 100
        },
        {
          "pitch": 79,
          "onset": 25.0,
          "duration": 0.25,
          "velocity": 100
        },
        {
          "pitch": 78,
          "onset": 25.25,
          "duration": 0.25,
          "velocity": 100
        },
        {
          "pitch": 59,
          "onset": 25.5,
          "duration": 0.5,
          "velocity": 100
        },
        {
          "pitch": 62,
          "onset": 25.5,
          "duration": 1.9688,
          "velocity": 100
        },
        {
          "pitch": 79,
          "onset": 25.5,
          "duration": 0.5,
          "velocity": 100
        },
        {
          "pitch": 57,
          "onset": 26.0,
          "duration": 0.5,
          "velocity": 100
        },
        {
          "pitch": 81,
          "onset": 26.0,
          "duration": 0.25,
          "velocity": 100
        },
        {
          "pitch": 79,
          "onset": 26.25,
          "duration": 0.25,
          "velocity": 100
        },
        {
          "pitch": 59,
          "onset": 26.5,
          "duration": 0.5,
          "velocity": 100
        },
        {
          "pitch": 78,
          "onset": 26.5,
          "duration": 0.25,
          "velocity": 100
        },
        {
          "pitch": 76,
          "onset": 26.75,
          "duration": 0.25,
          "velocity": 100
        },
        {
          "pitch": 60,
          "onset": 27.0,
          "duration": 0.5,
          "velocity": 100
        },
        {
          "pitch": 74,
          "onset": 27.0,
          "duration": 0.5,
          "velocity": 100
        },
        {
          "pitch": 59,
          "onset": 27.5,
          "duration": 0.5,
          "velocity": 100
        },
        {
          "pitch": 67,
          "onset": 27.5,
          "duration": 0.5,
          "velocity": 100
        },
        {
          "pitch": 57,
          "onset": 28.0,
          "duration": 0.5,
          "velocity": 100
        },
        {
          "pitch": 66,
          "onset": 28.0,
          "duration": 0.5,
          "velocity": 100
        },
        {
          "pitch": 59,
          "onset": 28.5,
          "duration": 0.5,
          "velocity": 100
        },
        {
          "pitch": 67,
          "onset": 28.5,
          "duration": 0.5,
          "velocity": 100
        },
        {
          "pitch": 79,
          "onset": 28.5,
          "duration": 0.5,
          "velocity": 100
        },
        {
          "pitch": 62,
          "onset": 29.0,
          "duration": 0.5,
          "velocity": 100
        },
        {
          "pitch": 71,
          "onset": 29.0,
          "duration": 0.5,
          "velocity": 100
        },
        {
          "pitch": 60,
          "onset": 29.5,
          "duration": 0.5,
          "velocity": 100
        },
        {
          "pitch": 69,
          "onset": 29.5,
          "duration": 0.5,
          "velocity": 100
        },
        {
          "pitch": 62,
          "onset": 30.0,
          "duration": 1.0,
          "velocity": 100
        },
        {
          "pitch": 71,
          "onset": 30.0,
          "duration": 0.5,
          "velocity": 100
        },
        {
          "pitch": 78,
          "onset": 30.0,
          "duration": 0.5,
          "velocity": 100
        },
        {
          "pitch": 74,
          "onset": 30.5,
          "duration": 0.25,
          "velocity": 100
        },
        {
          "pitch": 72,
          "onset": 30.75,
          "duration": 0.25,
          "velocity": 100
        },
        {
          "pitch": 50,
          "onset": 31.0,
          "duration": 0.5,
          "velocity": 100
        },
        {
          "pitch": 71,
          "onset": 31.0,
          "duration": 0.25,
          "velocity": 100
        },
        {
          "pitch": 69,
          "onset": 31.25,
          "duration": 0.25,
          "velocity": 100
        },
        {
          "pitch": 55,
          "onset": 31.5,
          "duration": 1.0,
          "velocity": 100
        },
        {
          "pitch": 71,
          "onset": 31.5,
          "duration": 0.5,
          "velocity": 100
        },
        {
          "pitch": 79,
          "onset": 31.5,
          "duration": 0.5,
          "velocity": 100
        },
        {
          "pitch": 72,
          "onset": 32.0,
          "duration": 0.25,
          "velocity": 100
        },
        {
          "pitch": 71,
          "onset": 32.25,
          "duration": 0.25,
          "velocity": 100
        },
        {
          "pitch": 43,
          "onset": 32.5,
          "duration": 0.5,
          "velocity": 100
        },
        {
          "pitch": 69,
          "onset": 32.5,
          "duration": 0.25,
          "velocity": 100
        },
        {
          "pitch": 67,
          "onset": 32.75,
          "duration": 0.25,
          "velocity": 100
        },
        {
          "pitch": 43,
          "onset": 33.0,
          "duration": 1.0,
          "velocity": 100
        },
        {
          "pitch": 69,
          "onset": 33.0,
          "duration": 0.5,
          "velocity": 100
        },
        {
          "pitch": 72,
          "onset": 33.0,
          "duration": 0.5,
          "velocity": 100
        },
        {
          "pitch": 71,
          "onset": 33.5,
          "duration": 0.25,
          "velocity": 100
        },
        {
          "pitch": 69,
          "onset": 33.75,
          "duration": 0.25,
          "velocity": 100
        },
        {
          "pitch": 55,
          "onset": 34.0,
          "duration": 0.5,
          "velocity": 100
        },
        {
          "pitch": 67,
          "onset": 34.0,
          "duration": 0.25,
          "velocity": 100
        },
        {
          "pitch": 66,
          "onset": 34.25,
          "duration": 0.25,
          "velocity": 100
        },
        {
          "pitch": 55,
          "onset": 34.5,
          "duration": 0.5,
          "velocity": 100
        },
        {
          "pitch": 67,
          "onset": 34.5,
          "duration": 0.5,
          "velocity": 100
        },
        {
          "pitch": 71,
          "onset": 34.5,
          "duration": 0.5,
          "velocity": 100
        },
        {
          "pitch": 54,
          "onset": 35.0,
          "duration": 0.25,
          "velocity": 100
        },
        {
          "pitch": 69,
          "onset": 35.0,
          "duration": 0.25,
          "velocity": 100
        },
        {
          "pitch": 52,
          "onset": 35.25,
          "duration": 0.25,
          "velocity": 100
        },
        {
          "pitch": 67,
          "onset": 35.25,
          "duration": 0.25,
          "velocity": 100
        },
        {
          "pitch": 50,
          "onset": 35.5,
          "duration": 0.25,
          "velocity": 100
        },
        {
          "pitch": 66,
          "onset": 35.5,
          "duration": 0.25,
          "velocity": 100
        },
        {
          "pitch": 48,
          "onset": 35.75,
          "duration": 0.25,
          "velocity": 100
        },
        {
          "pitch": 64,
          "onset": 35.75,
          "duration": 0.25,
          "velocity": 100
        },
        {
          "pitch": 47,
          "onset": 36.0,
          "duration": 0.5,
          "velocity": 100
        },
        {
          "pitch": 62,
          "onset": 36.0,
          "duration": 0.5,
          "velocity": 100
        },
        {
          "pitch": 43,
          "onset": 36.5,
          "duration": 0.5,
          "velocity": 100
        },
        {
          "pitch": 71,
          "onset": 36.5,
          "duration": 0.5,
          "velocity": 100
        },
        {
          "pitch": 45,
          "onset": 37.0,
          "duration": 0.5,
          "velocity": 100
        },
        {
          "pitch": 69,
          "onset": 37.0,
          "duration": 0.5,
          "velocity": 100
        },
        {
          "pitch": 47,
          "onset": 37.5,
          "duration": 0.5,
          "velocity": 100
        },
        {
          "pitch": 67,
          "onset": 37.5,
          "duration": 0.5,
          "velocity": 100
        },
        {
          "pitch": 48,
          "onset": 38.0,
          "duration": 0.5,
          "velocity": 100
        },
        {
          "pitch": 69,
          "onset": 38.0,
          "duration": 0.5,
          "velocity": 100
        },
        {
          "pitch": 50,
          "onset": 38.5,
          "duration": 0.5,
          "velocity": 100
        },
        {
          "pitch": 66,
          "onset": 38.5,
          "duration": 0.5,
          "velocity": 100
        },
        {
          "pitch": 43,
          "onset": 39.0,
          "duration": 1.0,
          "velocity": 100
        },
        {
          "pitch": 64,
          "onset": 39.0,
          "duration": 0.25,
          "velocity": 100
        },
        {
          "pitch": 62,
          "onset": 39.25,
          "duration": 0.25,
          "velocity": 100
        },
        {
          "pitch": 61,
          "onset": 39.5,
          "duration": 0.5,
          "velocity": 100
        },
        {
          "pitch": 55,
          "onset": 40.0,
          "duration": 1.0,
          "velocity": 100
        },
        {
          "pitch": 62,
          "onset": 40.0,
          "duration": 0.5,
          "velocity": 100
        },
        {
          "pitch": 62,
          "onset": 40.5,
          "duration": 0.5,
          "velocity": 100
        },
        {
          "pitch": 54,
          "onset": 41.0,
          "duration": 0.5,
          "velocity": 100
        },
        {
          "pitch": 61,
          "onset": 41.0,
          "duration": 1.5,
          "velocity": 100
        },
        {
          "pitch": 52,
          "onset": 41.5,
          "duration": 0.5,
          "velocity": 100
        },
        {
          "pitch": 57,
          "onset": 42.0,
          "duration": 1.0,
          "velocity": 100
        },
        {
          "pitch": 62,
          "onset": 42.5,
          "duration": 0.5,
          "velocity": 100
        },
        {
          "pitch": 55,
          "onset": 43.0,
          "duration": 0.5,
          "velocity": 100
        },
        {
          "pitch": 64,
          "onset": 43.0,
          "duration": 0.5,
          "velocity": 100
        },
        {
          "pitch": 54,
          "onset": 43.5,
          "duration": 0.5,
          "velocity": 100
        },
        {
          "pitch": 57,
          "onset": 43.5,
          "duration": 0.5,
          "velocity": 100
        },
        {
          "pitch": 55,
          "onset": 44.0,
          "duration": 0.5,
          "velocity": 100
        },
        {
          "pitch": 59,
          "onset": 44.0,
          "duration": 0.5,
          "velocity": 100
        },
        {
          "pitch": 57,
          "onset": 44.5,
          "duration": 0.5,
          "velocity": 100
        },
        {
          "pitch": 61,
          "onset": 44.5,
          "duration": 0.5,
          "velocity": 100
        },
        {
          "pitch": 59,
          "onset": 45.0,
          "duration": 2.5,
          "velocity": 100
        },
        {
          "pitch": 62,
          "onset": 45.0,
          "duration": 1.0,
          "velocity": 100
        },
        {
          "pitch": 83,
          "onset": 45.5,
          "duration": 0.5,
          "velocity": 100
        },
        {
          "pitch": 66,
          "onset": 46.0,
          "duration": 0.5,
          "velocity": 100
        },
        {
          "pitch": 81,
          "onset": 46.0,
          "duration": 0.5,
          "velocity": 100
        },
        {
          "pitch": 67,
          "onset": 46.5,
          "duration": 1.0,
          "velocity": 100
        },
        {
          "pitch": 79,
          "onset": 46.5,
          "duration": 0.5,
          "velocity": 100
        },
        {
          "pitch": 81,
          "onset": 47.0,
          "duration": 0.5,
          "velocity": 100
        },
        {
          "pitch": 57,
          "onset": 47.5,
          "duration": 0.5,
          "velocity": 100
        },
        {
          "pitch": 69,
          "onset": 47.5,
          "duration": 0.5,
          "velocity": 100
        },
        {
          "pitch": 78,
          "onset": 47.5,
          "duration": 0.5,
          "velocity": 100
        },
        {
          "pitch": 55,
          "onset": 48.0,
          "duration": 1.0,
          "velocity": 100
        },
        {
          "pitch": 59,
          "onset": 48.0,
          "duration": 1.9688,
          "velocity": 100
        },
        {
          "pitch": 76,
          "onset": 48.0,
          "duration": 0.25,
          "velocity": 100
        },
        {
          "pitch": 74,
          "onset": 48.25,
          "duration": 0.25,
          "velocity": 100
        },
        {
          "pitch": 73,
          "onset": 48.5,
          "duration": 0.5,
          "velocity": 100
        },
        {
          "pitch": 52,
          "onset": 49.0,
          "duration": 0.5,
          "velocity": 100
        },
        {
          "pitch": 74,
          "onset": 49.0,
          "duration": 0.5,
          "velocity": 100
        },
        {
          "pitch": 45,
          "onset": 49.5,
          "duration": 1.0,
          "velocity": 100
        },
        {
          "pitch": 74,
          "onset": 49.5,
          "duration": 0.5,
          "velocity": 100
        },
        {
          "pitch": 57,
          "onset": 50.0,
          "duration": 0.5,
          "velocity": 100
        },
        {
          "pitch": 73,
          "onset": 50.0,
          "duration": 1.5,
          "velocity": 100
        },
        {
          "pitch": 56,
          "onset": 50.5,
          "duration": 0.5,
          "velocity": 100
        },
        {
          "pitch": 57,
          "onset": 51.0,
          "duration": 3.5,
          "velocity": 100
        },
        {
          "pitch": 74,
          "onset": 51.5,
          "duration": 0.5,
          "velocity": 100
        },
        {
          "pitch": 55,
          "onset": 52.0,
          "duration": 0.5,
          "velocity": 100
        },
        {
          "pitch": 76,
          "onset": 52.0,
          "duration": 0.5,
          "velocity": 100
        },
        {
          "pitch": 54,
          "onset": 52.5,
          "duration": 1.0,
          "velocity": 100
        },
        {
          "pitch": 69,
          "onset": 52.5,
          "duration": 0.5,
          "velocity": 100
        },
        {
          "pitch": 71,
          "onset": 53.0,
          "duration": 0.5,
          "velocity": 100
        },
        {
          "pitch": 52,
          "onset": 53.5,
          "duration": 0.5,
          "velocity": 100
        },
        {
          "pitch": 73,
          "onset": 53.5,
          "duration": 0.5,
          "velocity": 100
        },
        {
          "pitch": 54,
          "onset": 54.0,
          "duration": 1.0,
          "velocity": 100
        },
        {
          "pitch": 74,
          "onset": 54.0,
          "duration": 1.0,
          "velocity": 100
        },
        {
          "pitch": 62,
          "onset": 54.5,
          "duration": 0.5,
          "velocity": 100
        },
        {
          "pitch": 57,
          "onset": 55.0,
          "duration": 0.5,
          "velocity": 100
        },
        {
          "pitch": 61,
          "onset": 55.0,
          "duration": 0.5,
          "velocity": 100
        },
        {
          "pitch": 78,
          "onset": 55.0,
          "duration": 0.5,
          "velocity": 100
        },
        {
          "pitch": 59,
          "onset": 55.5,
          "duration": 1.0,
          "velocity": 100
        },
        {
          "pitch": 62,
          "onset": 55.5,
          "duration": 0.25,
          "velocity": 100
        },
        {
          "pitch": 79,
          "onset": 55.5,
          "duration": 1.0,
          "velocity": 100
        },
        {
          "pitch": 64,
          "onset": 55.75,
          "duration": 0.25,
          "velocity": 100
        },
        {
          "pitch": 66,
          "onset": 56.0,
          "duration": 0.5,
          "velocity": 100
        },
        {
          "pitch": 61,
          "onset": 56.5,
          "duration": 0.5,
          "velocity": 100
        },
        {
          "pitch": 64,
          "onset": 56.5,
          "duration": 0.5,
          "velocity": 100
        },
        {
          "pitch": 81,
          "onset": 56.5,
          "duration": 0.5,
          "velocity": 100
        },
        {
          "pitch": 62,
          "onset": 57.0,
          "duration": 1.0,
          "velocity": 100
        },
        {
          "pitch": 66,
          "onset": 57.0,
          "duration": 0.5,
          "velocity": 100
        },
        {
          "pitch": 71,
          "onset": 57.0,
          "duration": 1.9688,
          "velocity": 100
        },
        {
          "pitch": 69,
          "onset": 57.5,
          "duration": 0.25,
          "velocity": 100
        },
        {
          "pitch": 67,
          "onset": 57.75,
          "duration": 0.25,
          "velocity": 100
        },
        {
          "pitch": 50,
          "onset": 58.0,
          "duration": 0.5,
          "velocity": 100
        },
        {
          "pitch": 66,
          "onset": 58.0,
          "duration": 0.25,
          "velocity": 100
        },
        {
          "pitch": 64,
          "onset": 58.25,
          "duration": 0.25,
          "velocity": 100
        },
        {
          "pitch": 55,
          "onset": 58.5,
          "duration": 1.0,
          "velocity": 100
        },
        {
          "pitch": 66,
          "onset": 58.5,
          "duration": 0.5,
          "velocity": 100
        },
        {
          "pitch": 67,
          "onset": 59.0,
          "duration": 0.25,
          "velocity": 100
        },
        {
          "pitch": 69,
          "onset": 59.0,
          "duration": 0.5,
          "velocity": 100
        },
        {
          "pitch": 66,
          "onset": 59.25,
          "duration": 0.25,
          "velocity": 100
        },
        {
          "pitch": 47,
          "onset": 59.5,
          "duration": 0.5,
          "velocity": 100
        },
        {
          "pitch": 64,
          "onset": 59.5,
          "duration": 0.25,
          "velocity": 100
        },
        {
          "pitch": 67,
          "onset": 59.5,
          "duration": 0.5,
          "velocity": 100
        },
        {
          "pitch": 62,
          "onset": 59.75,
          "duration": 0.25,
          "velocity": 100
        },
        {
          "pitch": 49,
          "onset": 60.0,
          "duration": 0.5,
          "velocity": 100
        },
        {
          "pitch": 64,
          "onset": 60.0,
          "duration": 0.5,
          "velocity": 100
        },
        {
          "pitch": 69,
          "onset": 60.0,
          "duration": 3.5,
          "velocity": 100
        },
        {
          "pitch": 50,
          "onset": 60.5,
          "duration": 0.5,
          "velocity": 100
        },
        {
          "pitch": 66,
          "onset": 60.5,
          "duration": 0.25,
          "velocity": 100
        },
        {
          "pitch": 64,
          "onset": 60.75,
          "duration": 0.25,
          "velocity": 100
        },
        {
          "pitch": 52,
          "onset": 61.0,
          "duration": 0.5,
          "velocity": 100
        },
        {
          "pitch": 62,
          "onset": 61.0,
          "duration": 0.25,
          "velocity": 100
        },
        {
          "pitch": 61,
          "onset": 61.25,
          "duration": 0.25,
          "velocity": 100
        },
        {
          "pitch": 54,
          "onset": 61.5,
          "duration": 0.5,
          "velocity": 100
        },
        {
          "pitch": 62,
          "onset": 61.5,
          "duration": 0.5,
          "velocity": 100
        },
        {
          "pitch": 52,
          "onset": 62.0,
          "duration": 0.5,
          "velocity": 100
        },
        {
          "pitch": 64,
          "onset": 62.0,
          "duration": 0.25,
          "velocity": 100
        },
        {
          "pitch": 62,
          "onset": 62.25,
          "duration": 0.25,
          "velocity": 100
        },
        {
          "pitch": 54,
          "onset": 62.5,
          "duration": 0.5,
          "velocity": 100
        },
        {
          "pitch": 61,
          "onset": 62.5,
          "duration": 0.25,
          "velocity": 100
        },
        {
          "pitch": 59,
          "onset": 62.75,
          "duration": 0.25,
          "velocity": 100
        },
        {
          "pitch": 55,
          "onset": 63.0,
          "duration": 0.5,
          "velocity": 100
        },
        {
          "pitch": 57,
          "onset": 63.0,
          "duration": 1.0,
          "velocity": 100
        },
        {
          "pitch": 54,
          "onset": 63.5,
          "duration": 0.5,
          "velocity": 100
        },
        {
          "pitch": 74,
          "onset": 63.5,
          "duration": 0.5,
          "velocity": 100
        },
        {
          "pitch": 52,
          "onset": 64.0,
          "duration": 0.5,
          "velocity": 100
        },
        {
          "pitch": 73,
          "onset": 64.0,
          "duration": 0.5,
          "velocity": 100
        },
        {
          "pitch": 54,
          "onset": 64.5,
          "duration": 0.5,
          "velocity": 100
        },
        {
          "pitch": 62,
          "onset": 64.5,
          "duration": 0.5,
          "velocity": 100
        },
        {
          "pitch": 74,
          "onset": 64.5,
          "duration": 0.25,
          "velocity": 100
        },
        {
          "pitch": 76,
          "onset": 64.75,
          "duration": 0.25,
          "velocity": 100
        },
        {
          "pitch": 57,
          "onset": 65.0,
          "duration": 0.5,
          "velocity": 100
        },
        {
          "pitch": 78,
          "onset": 65.0,
          "duration": 0.5,
          "velocity": 100
        },
        {
          "pitch": 55,
          "onset": 65.5,
          "duration": 0.5,
          "velocity": 100
        },
        {
          "pitch": 76,
          "onset": 65.5,
          "duration": 0.5,
          "velocity": 100
        },
        {
          "pitch": 57,
          "onset": 66.0,
          "duration": 1.0,
          "velocity": 100
        },
        {
          "pitch": 61,
          "onset": 66.0,
          "duration": 0.5,
          "velocity": 100
        },
        {
          "pitch": 78,
          "onset": 66.0,
          "duration": 0.5,
          "velocity": 100
        },
        {
          "pitch": 81,
          "onset": 66.5,
          "duration": 0.25,
          "velocity": 100
        },
        {
          "pitch": 79,
          "onset": 66.75,
          "duration": 0.25,
          "velocity": 100
        },
        {
          "pitch": 45,
          "onset": 67.0,
          "duration": 0.5,
          "velocity": 100
        },
        {
          "pitch": 78,
          "onset": 67.0,
          "duration": 0.25,
          "velocity": 100
        },
        {
          "pitch": 76,
          "onset": 67.25,
          "duration": 0.25,
          "velocity": 100
        },
        {
          "pitch": 50,
          "onset": 67.5,
          "duration": 1.0,
          "velocity": 100
        },
        {
          "pitch": 62,
          "onset": 67.5,
          "duration": 0.5,
          "velocity": 100
        },
        {
          "pitch": 78,
          "onset": 67.5,
          "duration": 0.5,
          "velocity": 100
        },
        {
          "pitch": 79,
          "onset": 68.0,
          "duration": 0.25,
          "velocity": 100
        },
        {
          "pitch": 78,
          "onset": 68.25,
          "duration": 0.25,
          "velocity": 100
        },
        {
          "pitch": 38,
          "onset": 68.5,
          "duration": 0.5,
          "velocity": 100
        },
        {
          "pitch": 76,
          "onset": 68.5,
          "duration": 0.25,
          "velocity": 100
        },
        {
          "pitch": 74,
          "onset": 68.75,
          "duration": 0.25,
          "velocity": 100
        },
        {
          "pitch": 38,
          "onset": 69.0,
          "duration": 1.0,
          "velocity": 100
        },
        {
          "pitch": 67,
          "onset": 69.0,
          "duration": 0.5,
          "velocity": 100
        },
        {
          "pitch": 76,
          "onset": 69.0,
          "duration": 0.5,
          "velocity": 100
        },
        {
          "pitch": 78,
          "onset": 69.5,
          "duration": 0.25,
          "velocity": 100
        },
        {
          "pitch": 76,
          "onset": 69.75,
          "duration": 0.25,
          "velocity": 100
        },
        {
          "pitch": 50,
          "onset": 70.0,
          "duration": 0.5,
          "velocity": 100
        },
        {
          "pitch": 74,
          "onset": 70.0,
          "duration": 0.25,
          "velocity": 100
        },
        {
          "pitch": 73,
          "onset": 70.25,
          "duration": 0.25,
          "velocity": 100
        },
        {
          "pitch": 50,
          "onset": 70.5,
          "duration": 1.5,
          "velocity": 100
        },
        {
          "pitch": 66,
          "onset": 70.5,
          "duration": 1.5,
          "velocity": 100
        },
        {
          "pitch": 74,
          "onset": 70.5,
          "duration": 1.5,
          "velocity": 100
        },
        {
          "pitch": 50,
          "onset": 72.0,
          "duration": 0.5,
          "velocity": 100
        },
        {
          "pitch": 71,
          "onset": 72.0,
          "duration": 0.2188,
          "velocity": 100
        },
        {
          "pitch": 69,
          "onset": 72.125,
          "duration": 0.2188,
          "velocity": 100
        },
        {
          "pitch": 67,
          "onset": 72.25,
          "duration": 0.2188,
          "velocity": 100
        },
        {
          "pitch": 69,
          "onset": 72.375,
          "duration": 0.2188,
          "velocity": 100
        },
        {
          "pitch": 54,
          "onset": 72.5,
          "duration": 0.5,
          "velocity": 100
        },
        {
          "pitch": 71,
          "onset": 72.5,
          "duration": 0.2188,
          "velocity": 100
        },
        {
          "pitch": 69,
          "onset": 72.625,
          "duration": 0.2188,
          "velocity": 100
        },
        {
          "pitch": 71,
          "onset": 72.75,
          "duration": 0.2188,
          "velocity": 100
        },
        {
          "pitch": 69,
          "onset": 72.875,
          "duration": 0.2188,
          "velocity": 100
        },
        {
          "pitch": 57,
          "onset": 73.0,
          "duration": 0.5,
          "velocity": 100
        },
        {
          "pitch": 71,
          "onset": 73.0,
          "duration": 0.2188,
          "velocity": 100
        },
        {
          "pitch": 69,
          "onset": 73.125,
          "duration": 0.2188,
          "velocity": 100
        },
        {
          "pitch": 71,
          "onset": 73.25,
          "duration": 0.2188,
          "velocity": 100
        },
        {
          "pitch": 69,
          "onset": 73.375,
          "duration": 3.625,
          "velocity": 100
        },
        {
          "pitch": 62,
          "onset": 73.5,
          "duration": 0.5,
          "velocity": 100
        },
        {
          "pitch": 64,
          "onset": 74.0,
          "duration": 0.25,
          "velocity": 100
        },
        {
          "pitch": 62,
          "onset": 74.25,
          "duration": 0.25,
          "velocity": 100
        },
        {
          "pitch": 60,
          "onset": 74.5,
          "duration": 0.25,
          "velocity": 100
        },
        {
          "pitch": 59,
          "onset": 74.75,
          "duration": 0.25,
          "velocity": 100
        },
        {
          "pitch": 60,
          "onset": 75.0,
          "duration": 0.5,
          "velocity": 100
        },
        {
          "pitch": 62,
          "onset": 75.5,
          "duration": 0.25,
          "velocity": 100
        },
        {
          "pitch": 60,
          "onset": 75.75,
          "duration": 0.25,
          "velocity": 100
        },
        {
          "pitch": 59,
          "onset": 76.0,
          "duration": 0.25,
          "velocity": 100
        },
        {
          "pitch": 57,
          "onset": 76.25,
          "duration": 0.25,
          "velocity": 100
        },
        {
          "pitch": 59,
          "onset": 76.5,
          "duration": 1.9688,
          "velocity": 100
        },
        {
          "pitch": 67,
          "onset": 77.0,
          "duration": 0.5,
          "velocity": 100
        },
        {
          "pitch": 66,
          "onset": 77.5,
          "duration": 0.5,
          "velocity": 100
        },
        {
          "pitch": 67,
          "onset": 78.0,
          "duration": 0.5,
          "velocity": 100
        },
        {
          "pitch": 60,
          "onset": 78.5,
          "duration": 0.5,
          "velocity": 100
        },
        {
          "pitch": 71,
          "onset": 78.5,
          "duration": 0.5,
          "velocity": 100
        },
        {
          "pitch": 62,
          "onset": 79.0,
          "duration": 0.5,
          "velocity": 100
        },
        {
          "pitch": 69,
          "onset": 79.0,
          "duration": 0.5,
          "velocity": 100
        },
        {
          "pitch": 55,
          "onset": 79.5,
          "duration": 0.5,
          "velocity": 100
        },
        {
          "pitch": 71,
          "onset": 79.5,
          "duration": 1.0,
          "velocity": 100
        },
        {
          "pitch": 57,
          "onset": 80.0,
          "duration": 0.5,
          "velocity": 100
        },
        {
          "pitch": 59,
          "onset": 80.5,
          "duration": 0.5,
          "velocity": 100
        },
        {
          "pitch": 63,
          "onset": 80.5,
          "duration": 0.5,
          "velocity": 100
        },
        {
          "pitch": 60,
          "onset": 81.0,
          "duration": 0.5,
          "velocity": 100
        },
        {
          "pitch": 64,
          "onset": 81.0,
          "duration": 0.5,
          "velocity": 100
        },
        {
          "pitch": 83,
          "onset": 81.0,
          "duration": 0.2188,
          "velocity": 100
        },
        {
          "pitch": 81,
          "onset": 81.125,
          "duration": 0.2188,
          "velocity": 100
        },
        {
          "pitch": 79,
          "onset": 81.25,
          "duration": 0.2188,
          "velocity": 100
        },
        {
          "pitch": 81,
          "onset": 81.375,
          "duration": 0.2188,
          "velocity": 100
        },
        {
          "pitch": 67,
          "onset": 81.5,
          "duration": 0.25,
          "velocity": 100
        },
        {
          "pitch": 83,
          "onset": 81.5,
          "duration": 0.2188,
          "velocity": 100
        },
        {
          "pitch": 81,
          "onset": 81.625,
          "duration": 0.2188,
          "velocity": 100
        },
        {
          "pitch": 66,
          "onset": 81.75,
          "duration": 0.25,
          "velocity": 100
        },
        {
          "pitch": 83,
          "onset": 81.75,
          "duration": 0.2188,
          "velocity": 100
        },
        {
          "pitch": 81,
          "onset": 81.875,
          "duration": 0.2188,
          "velocity": 100
        },
        {
          "pitch": 64,
          "onset": 82.0,
          "duration": 0.25,
          "velocity": 100
        },
        {
          "pitch": 83,
          "onset": 82.0,
          "duration": 0.2188,
          "velocity": 100
        },
        {
          "pitch": 81,
          "onset": 82.125,
          "duration": 0.2188,
          "velocity": 100
        },
        {
          "pitch": 62,
          "onset": 82.25,
          "duration": 0.25,
          "velocity": 100
        },
        {
          "pitch": 83,
          "onset": 82.25,
          "duration": 0.2188,
          "velocity": 100
        },
        {
          "pitch": 81,
          "onset": 82.375,
          "duration": 3.625,
          "velocity": 100
        },
        {
          "pitch": 57,
          "onset": 82.5,
          "duration": 0.5,
          "velocity": 100
        },
        {
          "pitch": 60,
          "onset": 82.5,
          "duration": 0.5,
          "velocity": 100
        },
        {
          "pitch": 64,
          "onset": 83.0,
          "duration": 0.25,
          "velocity": 100
        },
        {
          "pitch": 62,
          "onset": 83.25,
          "duration": 0.25,
          "velocity": 100
        },
        {
          "pitch": 60,
          "onset": 83.5,
          "duration": 0.25,
          "velocity": 100
        },
        {
          "pitch": 59,
          "onset": 83.75,
          "duration": 0.25,
          "velocity": 100
        },
        {
          "pitch": 54,
          "onset": 84.0,
          "duration": 0.5,
          "velocity": 100
        },
        {
          "pitch": 57,
          "onset": 84.0,
          "duration": 0.5,
          "velocity": 100
        },
        {
          "pitch": 57,
          "onset": 84.0,
          "duration": 0.5,
          "velocity": 100
        },
        {
          "pitch": 60,
          "onset": 84.5,
          "duration": 0.25,
          "velocity": 100
        },
        {
          "pitch": 59,
          "onset": 84.75,
          "duration": 0.25,
          "velocity": 100
        },
        {
          "pitch": 57,
          "onset": 85.0,
          "duration": 0.25,
          "velocity": 100
        },
        {
          "pitch": 55,
          "onset": 85.25,
          "duration": 0.25,
          "velocity": 100
        },
        {
          "pitch": 51,
          "onset": 85.5,
          "duration": 1.0,
          "velocity": 100
        },
        {
          "pitch": 54,
          "onset": 85.5,
          "duration": 1.0,
          "velocity": 100
        },
        {
          "pitch": 79,
          "onset": 86.0,
          "duration": 0.5,
          "velocity": 100
        },
        {
          "pitch": 54,
          "onset": 86.5,
          "duration": 0.5,
          "velocity": 100
        },
        {
          "pitch": 64,
          "onset": 86.5,
          "duration": 0.5,
          "velocity": 100
        },
        {
          "pitch": 78,
          "onset": 86.5,
          "duration": 0.5,
          "velocity": 100
        },
        {
          "pitch": 59,
          "onset": 87.0,
          "duration": 1.9688,
          "velocity": 100
        },
        {
          "pitch": 63,
          "onset": 87.0,
          "duration": 0.5,
          "velocity": 100
        },
        {
          "pitch": 79,
          "onset": 87.0,
          "duration": 0.5,
          "velocity": 100
        },
        {
          "pitch": 66,
          "onset": 87.5,
          "duration": 0.2188,
          "velocity": 100
        },
        {
          "pitch": 83,
          "onset": 87.5,
          "duration": 0.5,
          "velocity": 100
        },
        {
          "pitch": 64,
          "onset": 87.625,
          "duration": 0.2188,
          "velocity": 100
        },
        {
          "pitch": 63,
          "onset": 87.75,
          "duration": 0.2188,
          "velocity": 100
        },
        {
          "pitch": 64,
          "onset": 87.875,
          "duration": 0.2188,
          "velocity": 100
        },
        {
          "pitch": 66,
          "onset": 88.0,
          "duration": 0.5,
          "velocity": 100
        },
        {
          "pitch": 81,
          "onset": 88.0,
          "duration": 0.5,
          "velocity": 100
        },
        {
          "pitch": 59,
          "onset": 88.5,
          "duration": 1.9688,
          "velocity": 100
        },
        {
          "pitch": 83,
          "onset": 88.5,
          "duration": 1.0,
          "velocity": 100
        },
        {
          "pitch": 55,
          "onset": 89.0,
          "duration": 0.5,
          "velocity": 100
        },
        {
          "pitch": 57,
          "onset": 89.5,
          "duration": 0.5,
          "velocity": 100
        },
        {
          "pitch": 75,
          "onset": 89.5,
          "duration": 0.5,
          "velocity": 100
        },
        {
          "pitch": 55,
          "onset": 90.0,
          "duration": 0.5,
          "velocity": 100
        },
        {
          "pitch": 76,
          "onset": 90.0,
          "duration": 0.5,
          "velocity": 100
        },
        {
          "pitch": 63,
          "onset": 90.5,
          "duration": 0.5,
          "velocity": 100
        },
        {
          "pitch": 79,
          "onset": 90.5,
          "duration": 0.25,
          "velocity": 100
        },
        {
          "pitch": 78,
          "onset": 90.75,
          "duration": 0.25,
          "velocity": 100
        },
        {
          "pitch": 64,
          "onset": 91.0,
          "duration": 0.75,
          "velocity": 100
        },
        {
          "pitch": 76,
          "onset": 91.0,
          "duration": 0.25,
          "velocity": 100
        },
        {
          "pitch": 74,
          "onset": 91.25,
          "duration": 0.25,
          "velocity": 100
        },
        {
          "pitch": 52,
          "onset": 91.5,
          "duration": 0.5,
          "velocity": 100
        },
        {
          "pitch": 72,
          "onset": 91.5,
          "duration": 0.5,
          "velocity": 100
        },
        {
          "pitch": 62,
          "onset": 91.75,
          "duration": 0.25,
          "velocity": 100
        },
        {
          "pitch": 60,
          "onset": 92.0,
          "duration": 0.25,
          "velocity": 100
        },
        {
          "pitch": 76,
          "onset": 92.0,
          "duration": 0.25,
          "velocity": 100
        },
        {
          "pitch": 59,
          "onset": 92.25,
          "duration": 0.25,
          "velocity": 100
        },
        {
          "pitch": 74,
          "onset": 92.25,
          "duration": 0.25,
          "velocity": 100
        },
        {
          "pitch": 60,
          "onset": 92.5,
          "duration": 0.75,
          "velocity": 100
        },
        {
          "pitch": 72,
          "onset": 92.5,
          "duration": 0.25,
          "velocity": 100
        },
        {
          "pitch": 71,
          "onset": 92.75,
          "duration": 0.25,
          "velocity": 100
        },
        {
          "pitch": 48,
          "onset": 93.0,
          "duration": 0.5,
          "velocity": 100
        },
        {
          "pitch": 69,
          "onset": 93.0,
          "duration": 0.5,
          "velocity": 100
        },
        {
          "pitch": 59,
          "onset": 93.25,
          "duration": 0.25,
          "velocity": 100
        },
        {
          "pitch": 57,
          "onset": 93.5,
          "duration": 0.25,
          "velocity": 100
        },
        {
          "pitch": 72,
          "onset": 93.5,
          "duration": 0.25,
          "velocity": 100
        },
        {
          "pitch": 55,
          "onset": 93.75,
          "duration": 0.25,
          "velocity": 100
        },
        {
          "pitch": 71,
          "onset": 93.75,
          "duration": 0.25,
          "velocity": 100
        },
        {
          "pitch": 57,
          "onset": 94.0,
          "duration": 1.0,
          "velocity": 100
        },
        {
          "pitch": 69,
          "onset": 94.0,
          "duration": 0.25,
          "velocity": 100
        },
        {
          "pitch": 67,
          "onset": 94.25,
          "duration": 0.25,
          "velocity": 100
        },
        {
          "pitch": 45,
          "onset": 94.5,
          "duration": 1.0,
          "velocity": 100
        },
        {
          "pitch": 66,
          "onset": 94.5,
          "duration": 1.0,
          "velocity": 100
        },
        {
          "pitch": 54,
          "onset": 95.0,
          "duration": 0.5,
          "velocity": 100
        },
        {
          "pitch": 46,
          "onset": 95.5,
          "duration": 0.5,
          "velocity": 100
        },
        {
          "pitch": 55,
          "onset": 95.5,
          "duration": 0.5,
          "velocity": 100
        },
        {
          "pitch": 76,
          "onset": 95.5,
          "duration": 0.5,
          "velocity": 100
        },
        {
          "pitch": 47,
          "onset": 96.0,
          "duration": 0.5,
          "velocity": 100
        },
        {
          "pitch": 75,
          "onset": 96.0,
          "duration": 0.5,
          "velocity": 100
        },
        {
          "pitch": 60,
          "onset": 96.5,
          "duration": 0.25,
          "velocity": 100
        },
        {
          "pitch": 78,
          "onset": 96.5,
          "duration": 0.2188,
          "velocity": 100
        },
        {
          "pitch": 76,
          "onset": 96.625,
          "duration": 0.2188,
          "velocity": 100
        },
        {
          "pitch": 59,
          "onset": 96.75,
          "duration": 0.25,
          "velocity": 100
        },
        {
          "pitch": 75,
          "onset": 96.75,
          "duration": 0.2188,
          "velocity": 100
        },
        {
          "pitch": 76,
          "onset": 96.875,
          "duration": 0.2188,
          "velocity": 100
        },
        {
          "pitch": 57,
          "onset": 97.0,
          "duration": 0.25,
          "velocity": 100
        },
        {
          "pitch": 78,
          "onset": 97.0,
          "duration": 0.5,
          "velocity": 100
        },
        {
          "pitch": 55,
          "onset": 97.25,
          "duration": 0.25,
          "velocity": 100
        },
        {
          "pitch": 57,
          "onset": 97.5,
          "duration": 0.5,
          "velocity": 100
        },
        {
          "pitch": 71,
          "onset": 97.5,
          "duration": 1.9688,
          "velocity": 100
        },
        {
          "pitch": 59,
          "onset": 98.0,
          "duration": 0.25,
          "velocity": 100
        },
        {
          "pitch": 57,
          "onset": 98.25,
          "duration": 0.25,
          "velocity": 100
        },
        {
          "pitch": 55,
          "onset": 98.5,
          "duration": 0.25,
          "velocity": 100
        },
        {
          "pitch": 54,
          "onset": 98.75,
          "duration": 0.25,
          "velocity": 100
        },
        {
          "pitch": 55,
          "onset": 99.0,
          "duration": 0.5,
          "velocity": 100
        },
        {
          "pitch": 57,
          "onset": 99.5,
          "duration": 0.25,
          "velocity": 100
        },
        {
          "pitch": 75,
          "onset": 99.5,
          "duration": 0.5,
          "velocity": 100
        },
        {
          "pitch": 55,
          "onset": 99.75,
          "duration": 0.25,
          "velocity": 100
        },
        {
          "pitch": 54,
          "onset": 100.0,
          "duration": 0.25,
          "velocity": 100
        },
        {
          "pitch": 76,
          "onset": 100.0,
          "duration": 0.75,
          "velocity": 100
        },
        {
          "pitch": 52,
          "onset": 100.25,
          "duration": 0.25,
          "velocity": 100
        },
        {
          "pitch": 60,
          "onset": 100.5,
          "duration": 0.5,
          "velocity": 100
        },
        {
          "pitch": 74,
          "onset": 100.75,
          "duration": 0.25,
          "velocity": 100
        },
        {
          "pitch": 51,
          "onset": 101.0,
          "duration": 0.5,
          "velocity": 100
        },
        {
          "pitch": 72,
          "onset": 101.0,
          "duration": 0.25,
          "velocity": 100
        },
        {
          "pitch": 71,
          "onset": 101.25,
          "duration": 0.25,
          "velocity": 100
        },
        {
          "pitch": 52,
          "onset": 101.5,
          "duration": 0.5,
          "velocity": 100
        },
        {
          "pitch": 72,
          "onset": 101.5,
          "duration": 0.75,
          "velocity": 100
        },
        {
          "pitch": 47,
          "onset": 102.0,
          "duration": 0.5,
          "velocity": 100
        },
        {
          "pitch": 71,
          "onset": 102.25,
          "duration": 0.25,
          "velocity": 100
        },
        {
          "pitch": 52,
          "onset": 102.5,
          "duration": 0.5,
          "velocity": 100
        },
        {
          "pitch": 69,
          "onset": 102.5,
          "duration": 0.25,
          "velocity": 100
        },
        {
          "pitch": 67,
          "onset": 102.75,
          "duration": 0.25,
          "velocity": 100
        },
        {
          "pitch": 51,
          "onset": 103.0,
          "duration": 0.5,
          "velocity": 100
        },
        {
          "pitch": 69,
          "onset": 103.0,
          "duration": 1.0,
          "velocity": 100
        },
        {
          "pitch": 52,
          "onset": 103.5,
          "duration": 0.2188,
          "velocity": 100
        },
        {
          "pitch": 50,
          "onset": 103.625,
          "duration": 0.2188,
          "velocity": 100
        },
        {
          "pitch": 52,
          "onset": 103.75,
          "duration": 1.75,
          "velocity": 100
        },
        {
          "pitch": 66,
          "onset": 104.0,
          "duration": 0.5,
          "velocity": 100
        },
        {
          "pitch": 67,
          "onset": 104.5,
          "duration": 0.5,
          "velocity": 100
        },
        {
          "pitch": 71,
          "onset": 105.0,
          "duration": 0.2188,
          "velocity": 100
        },
        {
          "pitch": 69,
          "onset": 105.125,
          "duration": 0.2188,
          "velocity": 100
        },
        {
          "pitch": 71,
          "onset": 105.25,
          "duration": 1.75,
          "velocity": 100
        },
        {
          "pitch": 55,
          "onset": 105.5,
          "duration": 0.5,
          "velocity": 100
        },
        {
          "pitch": 59,
          "onset": 106.0,
          "duration": 0.5,
          "velocity": 100
        },
        {
          "pitch": 64,
          "onset": 106.5,
          "duration": 1.0,
          "velocity": 100
        },
        {
          "pitch": 72,
          "onset": 107.0,
          "duration": 0.5,
          "velocity": 100
        },
        {
          "pitch": 62,
          "onset": 107.5,
          "duration": 0.5,
          "velocity": 100
        },
        {
          "pitch": 74,
          "onset": 107.5,
          "duration": 0.5,
          "velocity": 100
        },
        {
          "pitch": 60,
          "onset": 108.0,
          "duration": 1.9688,
          "velocity": 100
        },
        {
          "pitch": 76,
          "onset": 108.0,
          "duration": 0.5,
          "velocity": 100
        },
        {
          "pitch": 68,
          "onset": 108.5,
          "duration": 0.5,
          "velocity": 100
        },
        {
          "pitch": 71,
          "onset": 109.0,
          "duration": 0.5,
          "velocity": 100
        },
        {
          "pitch": 69,
          "onset": 109.5,
          "duration": 1.9688,
          "velocity": 100
        },
        {
          "pitch": 59,
          "onset": 110.0,
          "duration": 0.5,
          "velocity": 100
        },
        {
          "pitch": 60,
          "onset": 110.5,
          "duration": 0.5,
          "velocity": 100
        },
        {
          "pitch": 54,
          "onset": 111.0,
          "duration": 0.5,
          "velocity": 100
        },
        {
          "pitch": 55,
          "onset": 111.5,
          "duration": 0.5,
          "velocity": 100
        },
        {
          "pitch": 71,
          "onset": 111.5,
          "duration": 0.5,
          "velocity": 100
        },
        {
          "pitch": 57,
          "onset": 112.0,
          "duration": 0.5,
          "velocity": 100
        },
        {
          "pitch": 72,
          "onset": 112.0,
          "duration": 0.5,
          "velocity": 100
        },
        {
          "pitch": 59,
          "onset": 112.5,
          "duration": 0.5,
          "velocity": 100
        },
        {
          "pitch": 74,
          "onset": 112.5,
          "duration": 0.5,
          "velocity": 100
        },
        {
          "pitch": 50,
          "onset": 113.0,
          "duration": 0.5,
          "velocity": 100
        },
        {
          "pitch": 66,
          "onset": 113.0,
          "duration": 0.5,
          "velocity": 100
        },
        {
          "pitch": 54,
          "onset": 113.5,
          "duration": 0.5,
          "velocity": 100
        },
        {
          "pitch": 69,
          "onset": 113.5,
          "duration": 0.5,
          "velocity": 100
        },
        {
          "pitch": 47,
          "onset": 114.0,
          "duration": 0.5,
          "velocity": 100
        },
        {
          "pitch": 59,
          "onset": 114.0,
          "duration": 1.9688,
          "velocity": 100
        },
        {
          "pitch": 62,
          "onset": 114.0,
          "duration": 1.0,
          "velocity": 100
        },
        {
          "pitch": 48,
          "onset": 114.5,
          "duration": 0.5,
          "velocity": 100
        },
        {
          "pitch": 50,
          "onset": 115.0,
          "duration": 0.5,
          "velocity": 100
        },
        {
          "pitch": 66,
          "onset": 115.0,
          "duration": 0.5,
          "velocity": 100
        },
        {
          "pitch": 43,
          "onset": 115.5,
          "duration": 0.5,
          "velocity": 100
        },
        {
          "pitch": 71,
          "onset": 115.5,
          "duration": 2.5,
          "velocity": 100
        },
        {
          "pitch": 45,
          "onset": 116.0,
          "duration": 0.5,
          "velocity": 100
        },
        {
          "pitch": 60,
          "onset": 116.0,
          "duration": 0.5,
          "velocity": 100
        },
        {
          "pitch": 47,
          "onset": 116.5,
          "duration": 0.5,
          "velocity": 100
        },
        {
          "pitch": 62,
          "onset": 116.5,
          "duration": 0.5,
          "velocity": 100
        },
        {
          "pitch": 48,
          "onset": 117.0,
          "duration": 1.5,
          "velocity": 100
        },
        {
          "pitch": 64,
          "onset": 117.0,
          "duration": 0.5,
          "velocity": 100
        },
        {
          "pitch": 56,
          "onset": 117.5,
          "duration": 0.5,
          "velocity": 100
        },
        {
          "pitch": 59,
          "onset": 118.0,
          "duration": 0.5,
          "velocity": 100
        },
        {
          "pitch": 63,
          "onset": 118.0,
          "duration": 0.5,
          "velocity": 100
        },
        {
          "pitch": 48,
          "onset": 118.5,
          "duration": 1.5,
          "velocity": 100
        },
        {
          "pitch": 57,
          "onset": 118.5,
          "duration": 1.9688,
          "velocity": 100
        },
        {
          "pitch": 64,
          "onset": 118.5,
          "duration": 0.5,
          "velocity": 100
        },
        {
          "pitch": 66,
          "onset": 119.0,
          "duration": 0.5,
          "velocity": 100
        },
        {
          "pitch": 67,
          "onset": 119.5,
          "duration": 0.5,
          "velocity": 100
        },
        {
          "pitch": 48,
          "onset": 120.0,
          "duration": 1.9688,
          "velocity": 100
        },
        {
          "pitch": 66,
          "onset": 120.0,
          "duration": 0.5,
          "velocity": 100
        },
        {
          "pitch": 59,
          "onset": 120.5,
          "duration": 0.5,
          "velocity": 100
        },
        {
          "pitch": 67,
          "onset": 120.5,
          "duration": 0.5,
          "velocity": 100
        },
        {
          "pitch": 60,
          "onset": 121.0,
          "duration": 0.5,
          "velocity": 100
        },
        {
          "pitch": 69,
          "onset": 121.0,
          "duration": 0.5,
          "velocity": 100
        },
        {
          "pitch": 62,
          "onset": 121.5,
          "duration": 1.5,
          "velocity": 100
        },
        {
          "pitch": 50,
          "onset": 122.0,
          "duration": 0.25,
          "velocity": 100
        },
        {
          "pitch": 54,
          "onset": 122.0,
          "duration": 0.5,
          "velocity": 100
        },
        {
          "pitch": 48,
          "onset": 122.25,
          "duration": 0.25,
          "velocity": 100
        },
        {
          "pitch": 47,
          "onset": 122.5,
          "duration": 0.25,
          "velocity": 100
        },
        {
          "pitch": 57,
          "onset": 122.5,
          "duration": 0.5,
          "velocity": 100
        },
        {
          "pitch": 45,
          "onset": 122.75,
          "duration": 0.25,
          "velocity": 100
        },
        {
          "pitch": 47,
          "onset": 123.0,
          "duration": 0.5,
          "velocity": 100
        },
        {
          "pitch": 50,
          "onset": 123.0,
          "duration": 1.0,
          "velocity": 100
        },
        {
          "pitch": 62,
          "onset": 123.0,
          "duration": 1.5,
          "velocity": 100
        },
        {
          "pitch": 48,
          "onset": 123.5,
          "duration": 0.5,
          "velocity": 100
        },
        {
          "pitch": 50,
          "onset": 124.0,
          "duration": 0.5,
          "velocity": 100
        },
        {
          "pitch": 54,
          "onset": 124.0,
          "duration": 0.5,
          "velocity": 100
        },
        {
          "pitch": 43,
          "onset": 124.5,
          "duration": 0.5,
          "velocity": 100
        },
        {
          "pitch": 59,
          "onset": 124.5,
          "duration": 2.5,
          "velocity": 100
        },
        {
          "pitch": 62,
          "onset": 124.5,
          "duration": 1.9688,
          "velocity": 100
        },
        {
          "pitch": 45,
          "onset": 125.0,
          "duration": 0.5,
          "velocity": 100
        },
        {
          "pitch": 47,
          "onset": 125.5,
          "duration": 0.5,
          "velocity": 100
        },
        {
          "pitch": 40,
          "onset": 126.0,
          "duration": 0.5,
          "velocity": 100
        },
        {
          "pitch": 67,
          "onset": 126.5,
          "duration": 0.5,
          "velocity": 100
        },
        {
          "pitch": 51,
          "onset": 127.0,
          "duration": 0.5,
          "velocity": 100
        },
        {
          "pitch": 66,
          "onset": 127.0,
          "duration": 0.5,
          "velocity": 100
        },
        {
          "pitch": 52,
          "onset": 127.5,
          "duration": 0.5,
          "velocity": 100
        },
        {
          "pitch": 67,
          "onset": 127.5,
          "duration": 0.5,
          "velocity": 100
        },
        {
          "pitch": 54,
          "onset": 128.0,
          "duration": 0.5,
          "velocity": 100
        },
        {
          "pitch": 69,
          "onset": 128.0,
          "duration": 0.5,
          "velocity": 100
        },
        {
          "pitch": 55,
          "onset": 128.5,
          "duration": 0.5,
          "velocity": 100
        },
        {
          "pitch": 71,
          "onset": 128.5,
          "duration": 0.5,
          "velocity": 100
        },
        {
          "pitch": 45,
          "onset": 129.0,
          "duration": 0.5,
          "velocity": 100
        },
        {
          "pitch": 54,
          "onset": 129.0,
          "duration": 0.5,
          "velocity": 100
        },
        {
          "pitch": 72,
          "onset": 129.0,
          "duration": 0.5,
          "velocity": 100
        },
        {
          "pitch": 55,
          "onset": 129.5,
          "duration": 0.5,
          "velocity": 100
        },
        {
          "pitch": 74,
          "onset": 129.5,
          "duration": 0.25,
          "velocity": 100
        },
        {
          "pitch": 72,
          "onset": 129.75,
          "duration": 0.25,
          "velocity": 100
        },
        {
          "pitch": 57,
          "onset": 130.0,
          "duration": 0.5,
          "velocity": 100
        },
        {
          "pitch": 71,
          "onset": 130.0,
          "duration": 0.25,
          "velocity": 100
        },
        {
          "pitch": 69,
          "onset": 130.25,
          "duration": 0.25,
          "velocity": 100
        },
        {
          "pitch": 43,
          "onset": 130.5,
          "duration": 0.5,
          "velocity": 100
        },
        {
          "pitch": 50,
          "onset": 130.5,
          "duration": 1.5,
          "velocity": 100
        },
        {
          "pitch": 71,
          "onset": 130.5,
          "duration": 0.5,
          "velocity": 100
        },
        {
          "pitch": 45,
          "onset": 131.0,
          "duration": 0.5,
          "velocity": 100
        },
        {
          "pitch": 72,
          "onset": 131.0,
          "duration": 0.25,
          "velocity": 100
        },
        {
          "pitch": 71,
          "onset": 131.25,
          "duration": 0.25,
          "velocity": 100
        },
        {
          "pitch": 47,
          "onset": 131.5,
          "duration": 0.5,
          "velocity": 100
        },
        {
          "pitch": 69,
          "onset": 131.5,
          "duration": 0.25,
          "velocity": 100
        },
        {
          "pitch": 67,
          "onset": 131.75,
          "duration": 0.25,
          "velocity": 100
        },
        {
          "pitch": 48,
          "onset": 132.0,
          "duration": 0.5,
          "velocity": 100
        },
        {
          "pitch": 50,
          "onset": 132.0,
          "duration": 1.5,
          "velocity": 100
        },
        {
          "pitch": 69,
          "onset": 132.0,
          "duration": 0.5,
          "velocity": 100
        },
        {
          "pitch": 47,
          "onset": 132.5,
          "duration": 0.5,
          "velocity": 100
        },
        {
          "pitch": 71,
          "onset": 132.5,
          "duration": 0.25,
          "velocity": 100
        },
        {
          "pitch": 69,
          "onset": 132.75,
          "duration": 0.25,
          "velocity": 100
        },
        {
          "pitch": 45,
          "onset": 133.0,
          "duration": 0.5,
          "velocity": 100
        },
        {
          "pitch": 67,
          "onset": 133.0,
          "duration": 0.25,
          "velocity": 100
        },
        {
          "pitch": 66,
          "onset": 133.25,
          "duration": 0.25,
          "velocity": 100
        },
        {
          "pitch": 47,
          "onset": 133.5,
          "duration": 0.5,
          "velocity": 100
        },
        {
          "pitch": 50,
          "onset": 133.5,
          "duration": 1.9688,
          "velocity": 100
        },
        {
          "pitch": 67,
          "onset": 133.5,
          "duration": 0.5,
          "velocity": 100
        },
        {
          "pitch": 43,
          "onset": 134.0,
          "duration": 0.5,
          "velocity": 100
        },
        {
          "pitch": 71,
          "onset": 134.0,
          "duration": 0.25,
          "velocity": 100
        },
        {
          "pitch": 69,
          "onset": 134.25,
          "duration": 0.25,
          "velocity": 100
        },
        {
          "pitch": 45,
          "onset": 134.5,
          "duration": 0.5,
          "velocity": 100
        },
        {
          "pitch": 67,
          "onset": 134.5,
          "duration": 0.25,
          "velocity": 100
        },
        {
          "pitch": 66,
          "onset": 134.75,
          "duration": 0.25,
          "velocity": 100
        },
        {
          "pitch": 47,
          "onset": 135.0,
          "duration": 1.9688,
          "velocity": 100
        },
        {
          "pitch": 67,
          "onset": 135.0,
          "duration": 0.5,
          "velocity": 100
        },
        {
          "pitch": 55,
          "onset": 135.5,
          "duration": 0.5,
          "velocity": 100
        },
        {
          "pitch": 54,
          "onset": 136.0,
          "duration": 0.5,
          "velocity": 100
        },
        {
          "pitch": 55,
          "onset": 136.5,
          "duration": 0.5,
          "velocity": 100
        },
        {
          "pitch": 62,
          "onset": 136.5,
          "duration": 0.5,
          "velocity": 100
        },
        {
          "pitch": 45,
          "onset": 137.0,
          "duration": 0.5,
          "velocity": 100
        },
        {
          "pitch": 57,
          "onset": 137.0,
          "duration": 0.5,
          "velocity": 100
        },
        {
          "pitch": 43,
          "onset": 137.5,
          "duration": 0.5,
          "velocity": 100
        },
        {
          "pitch": 59,
          "onset": 137.5,
          "duration": 0.5,
          "velocity": 100
        },
        {
          "pitch": 50,
          "onset": 138.0,
          "duration": 1.0,
          "velocity": 100
        },
        {
          "pitch": 60,
          "onset": 138.0,
          "duration": 0.5,
          "velocity": 100
        },
        {
          "pitch": 66,
          "onset": 138.0,
          "duration": 0.5,
          "velocity": 100
        },
        {
          "pitch": 62,
          "onset": 138.5,
          "duration": 0.25,
          "velocity": 100
        },
        {
          "pitch": 60,
          "onset": 138.75,
          "duration": 0.25,
          "velocity": 100
        },
        {
          "pitch": 38,
          "onset": 139.0,
          "duration": 0.5,
          "velocity": 100
        },
        {
          "pitch": 59,
          "onset": 139.0,
          "duration": 0.25,
          "velocity": 100
        },
        {
          "pitch": 57,
          "onset": 139.25,
          "duration": 0.25,
          "velocity": 100
        },
        {
          "pitch": 43,
          "onset": 139.5,
          "duration": 1.0,
          "velocity": 100
        },
        {
          "pitch": 59,
          "onset": 139.5,
          "duration": 0.5,
          "velocity": 100
        },
        {
          "pitch": 67,
          "onset": 139.5,
          "duration": 0.5,
          "velocity": 100
        },
        {
          "pitch": 60,
          "onset": 140.0,
          "duration": 0.25,
          "velocity": 100
        },
        {
          "pitch": 59,
          "onset": 140.25,
          "duration": 0.25,
          "velocity": 100
        },
        {
          "pitch": 31,
          "onset": 140.5,
          "duration": 0.5,
          "velocity": 100
        },
        {
          "pitch": 57,
          "onset": 140.5,
          "duration": 0.25,
          "velocity": 100
        },
        {
          "pitch": 55,
          "onset": 140.75,
          "duration": 0.25,
          "velocity": 100
        },
        {
          "pitch": 31,
          "onset": 141.0,
          "duration": 1.0,
          "velocity": 100
        },
        {
          "pitch": 57,
          "onset": 141.0,
          "duration": 0.5,
          "velocity": 100
        },
        {
          "pitch": 60,
          "onset": 141.0,
          "duration": 0.5,
          "velocity": 100
        },
        {
          "pitch": 59,
          "onset": 141.5,
          "duration": 0.25,
          "velocity": 100
        },
        {
          "pitch": 57,
          "onset": 141.75,
          "duration": 0.25,
          "velocity": 100
        },
        {
          "pitch": 43,
          "onset": 142.0,
          "duration": 0.75,
          "velocity": 100
        },
        {
          "pitch": 55,
          "onset": 142.0,
          "duration": 0.25,
          "velocity": 100
        },
        {
          "pitch": 54,
          "onset": 142.25,
          "duration": 0.5,
          "velocity": 100
        },
        {
          "pitch": 43,
          "onset": 142.75,
          "duration": 3.2188,
          "velocity": 100
        },
        {
          "pitch": 55,
          "onset": 142.75,
          "duration": 3.2188,
          "velocity": 100
        },
        {
          "pitch": 59,
          "onset": 142.75,
          "duration": 3.2188,
          "velocity": 100
        },
        {
          "pitch": 59,
          "onset": 147.5,
          "duration": 0.25,
          "velocity": 1
        }
      ]
    }
  ]
}