{
  "bwv": 996,
  "category": "lute_suite",
  "instrument": "lute",
  "form": "",
  "movement": 4,
  "tonic": "E",
  "mode": "minor",
  "confidence": "verified",
  "ticks_per_beat": 384,
  "duration_seconds": 222.1,
  "tempos": [
    {
      "tick": 0,
      "bpm": 80
    },
    {
      "tick": 1920,
      "bpm": 75
    },
    {
      "tick": 2112,
      "bpm": 70
    },
    {
      "tick": 2304,
      "bpm": 80
    },
    {
      "tick": 6144,
      "bpm": 75
    },
    {
      "tick": 6528,
      "bpm": 70
    },
    {
      "tick": 6912,
      "bpm": 80
    },
    {
      "tick": 24192,
      "bpm": 80
    },
    {
      "tick": 24576,
      "bpm": 75
    },
    {
      "tick": 24960,
      "bpm": 70
    },
    {
      "tick": 25344,
      "bpm": 80
    },
    {
      "tick": 35712,
      "bpm": 75
    },
    {
      "tick": 36096,
      "bpm": 60
    },
    {
      "tick": 36864,
      "bpm": 80
    },
    {
      "tick": 54144,
      "bpm": 75
    },
    {
      "tick": 54528,
      "bpm": 75
    },
    {
      "tick": 55296,
      "bpm": 80
    },
    {
      "tick": 72576,
      "bpm": 75
    },
    {
      "tick": 72960,
      "bpm": 70
    },
    {
      "tick": 73728,
      "bpm": 80
    },
    {
      "tick": 84864,
      "bpm": 70
    },
    {
      "tick": 85248,
      "bpm": 80
    },
    {
      "tick": 91008,
      "bpm": 75
    },
    {
      "tick": 91392,
      "bpm": 70
    },
    {
      "tick": 92160,
      "bpm": 80
    },
    {
      "tick": 108288,
      "bpm": 70
    }
  ],
  "time_signatures": [
    {
      "tick": 0,
      "numerator": 6,
      "denominator": 4
    }
  ],
  "track_type": "voice",
  "voice_count": 3,
  "total_notes": 496,
  "tracks": [
    {
      "role": "v1",
      "notes": [
        {
          "pitch": 59,
          "onset": 0.0,
          "duration": 2.5,
          "velocity": 100
        },
        {
          "pitch": 64,
          "onset": 0.0,
          "duration": 0.25,
          "velocity": 1
        },
        {
          "pitch": 60,
          "onset": 2.5,
          "duration": 0.5,
          "velocity": 100
        },
        {
          "pitch": 59,
          "onset": 3.0,
          "duration": 0.5,
          "velocity": 100
        },
        {
          "pitch": 57,
          "onset": 3.5,
          "duration": 0.5,
          "velocity": 100
        },
        {
          "pitch": 55,
          "onset": 4.0,
          "duration": 1.0,
          "velocity": 100
        },
        {
          "pitch": 54,
          "onset": 5.0,
          "duration": 0.5,
          "velocity": 100
        },
        {
          "pitch": 52,
          "onset": 5.5,
          "duration": 0.5,
          "velocity": 100
        },
        {
          "pitch": 60,
          "onset": 6.0,
          "duration": 1.5,
          "velocity": 100
        },
        {
          "pitch": 59,
          "onset": 7.5,
          "duration": 0.5,
          "velocity": 100
        },
        {
          "pitch": 57,
          "onset": 8.0,
          "duration": 5.0,
          "velocity": 100
        },
        {
          "pitch": 57,
          "onset": 13.0,
          "duration": 1.0,
          "velocity": 100
        },
        {
          "pitch": 59,
          "onset": 14.0,
          "duration": 1.0,
          "velocity": 100
        },
        {
          "pitch": 60,
          "onset": 15.0,
          "duration": 1.0,
          "velocity": 100
        },
        {
          "pitch": 59,
          "onset": 16.0,
          "duration": 1.0,
          "velocity": 100
        },
        {
          "pitch": 57,
          "onset": 17.0,
          "duration": 1.0,
          "velocity": 100
        },
        {
          "pitch": 55,
          "onset": 18.0,
          "duration": 3.0,
          "velocity": 100
        },
        {
          "pitch": 54,
          "onset": 21.0,
          "duration": 1.0,
          "velocity": 100
        },
        {
          "pitch": 52,
          "onset": 22.0,
          "duration": 2.0,
          "velocity": 100
        },
        {
          "pitch": 67,
          "onset": 24.0,
          "duration": 1.0,
          "velocity": 100
        },
        {
          "pitch": 69,
          "onset": 25.0,
          "duration": 0.25,
          "velocity": 100
        },
        {
          "pitch": 67,
          "onset": 25.25,
          "duration": 0.25,
          "velocity": 100
        },
        {
          "pitch": 66,
          "onset": 25.5,
          "duration": 0.25,
          "velocity": 100
        },
        {
          "pitch": 64,
          "onset": 25.75,
          "duration": 0.25,
          "velocity": 100
        },
        {
          "pitch": 62,
          "onset": 26.0,
          "duration": 3.0,
          "velocity": 100
        },
        {
          "pitch": 60,
          "onset": 29.0,
          "duration": 1.0,
          "velocity": 100
        },
        {
          "pitch": 59,
          "onset": 30.0,
          "duration": 3.0,
          "velocity": 100
        },
        {
          "pitch": 59,
          "onset": 33.0,
          "duration": 1.0,
          "velocity": 100
        },
        {
          "pitch": 61,
          "onset": 34.0,
          "duration": 1.5,
          "velocity": 100
        },
        {
          "pitch": 63,
          "onset": 35.5,
          "duration": 0.5,
          "velocity": 100
        },
        {
          "pitch": 64,
          "onset": 36.0,
          "duration": 1.5,
          "velocity": 100
        },
        {
          "pitch": 55,
          "onset": 37.5,
          "duration": 0.5,
          "velocity": 100
        },
        {
          "pitch": 57,
          "onset": 38.0,
          "duration": 3.0,
          "velocity": 100
        },
        {
          "pitch": 59,
          "onset": 41.0,
          "duration": 0.25,
          "velocity": 100
        },
        {
          "pitch": 57,
          "onset": 41.25,
          "duration": 0.25,
          "velocity": 100
        },
        {
          "pitch": 55,
          "onset": 41.5,
          "duration": 0.25,
          "velocity": 100
        },
        {
          "pitch": 57,
          "onset": 41.75,
          "duration": 0.25,
          "velocity": 100
        },
        {
          "pitch": 59,
          "onset": 42.0,
          "duration": 3.0,
          "velocity": 100
        },
        {
          "pitch": 60,
          "onset": 45.0,
          "duration": 1.0,
          "velocity": 100
        },
        {
          "pitch": 59,
          "onset": 46.0,
          "duration": 2.0,
          "velocity": 100
        },
        {
          "pitch": 59,
          "onset": 48.25,
          "duration": 2.25,
          "velocity": 100
        },
        {
          "pitch": 60,
          "onset": 50.5,
          "duration": 0.5,
          "velocity": 100
        },
        {
          "pitch": 59,
          "onset": 51.0,
          "duration": 0.5,
          "velocity": 100
        },
        {
          "pitch": 57,
          "onset": 51.5,
          "duration": 0.5,
          "velocity": 100
        },
        {
          "pitch": 55,
          "onset": 52.0,
          "duration": 1.0,
          "velocity": 100
        },
        {
          "pitch": 54,
          "onset": 53.0,
          "duration": 0.5,
          "velocity": 100
        },
        {
          "pitch": 52,
          "onset": 53.5,
          "duration": 0.5,
          "velocity": 100
        },
        {
          "pitch": 60,
          "onset": 54.1562,
          "duration": 1.3125,
          "velocity": 100
        },
        {
          "pitch": 59,
          "onset": 55.5,
          "duration": 0.5,
          "velocity": 100
        },
        {
          "pitch": 57,
          "onset": 56.0,
          "duration": 5.0,
          "velocity": 100
        },
        {
          "pitch": 57,
          "onset": 61.0,
          "duration": 1.0,
          "velocity": 100
        },
        {
          "pitch": 59,
          "onset": 62.0,
          "duration": 1.0,
          "velocity": 100
        },
        {
          "pitch": 60,
          "onset": 63.0,
          "duration": 1.0,
          "velocity": 100
        },
        {
          "pitch": 59,
          "onset": 64.0,
          "duration": 1.0,
          "velocity": 100
        },
        {
          "pitch": 57,
          "onset": 65.0,
          "duration": 1.0,
          "velocity": 100
        },
        {
          "pitch": 55,
          "onset": 66.0,
          "duration": 3.0,
          "velocity": 100
        },
        {
          "pitch": 54,
          "onset": 69.0,
          "duration": 1.0,
          "velocity": 100
        },
        {
          "pitch": 52,
          "onset": 70.1562,
          "duration": 1.8125,
          "velocity": 100
        },
        {
          "pitch": 67,
          "onset": 72.25,
          "duration": 0.75,
          "velocity": 100
        },
        {
          "pitch": 69,
          "onset": 73.0,
          "duration": 0.25,
          "velocity": 100
        },
        {
          "pitch": 67,
          "onset": 73.25,
          "duration": 0.25,
          "velocity": 100
        },
        {
          "pitch": 66,
          "onset": 73.5,
          "duration": 0.25,
          "velocity": 100
        },
        {
          "pitch": 64,
          "onset": 73.75,
          "duration": 0.25,
          "velocity": 100
        },
        {
          "pitch": 62,
          "onset": 74.0,
          "duration": 3.0,
          "velocity": 100
        },
        {
          "pitch": 60,
          "onset": 77.0,
          "duration": 1.0,
          "velocity": 100
        },
        {
          "pitch": 59,
          "onset": 78.0,
          "duration": 3.0,
          "velocity": 100
        },
        {
          "pitch": 59,
          "onset": 81.0,
          "duration": 1.0,
          "velocity": 100
        },
        {
          "pitch": 61,
          "onset": 82.0,
          "duration": 1.5,
          "velocity": 100
        },
        {
          "pitch": 63,
          "onset": 83.5,
          "duration": 0.5,
          "velocity": 100
        },
        {
          "pitch": 64,
          "onset": 84.1562,
          "duration": 1.3125,
          "velocity": 100
        },
        {
          "pitch": 55,
          "onset": 85.5,
          "duration": 0.5,
          "velocity": 100
        },
        {
          "pitch": 57,
          "onset": 86.0,
          "duration": 3.0,
          "velocity": 100
        },
        {
          "pitch": 59,
          "onset": 89.0,
          "duration": 0.25,
          "velocity": 100
        },
        {
          "pitch": 57,
          "onset": 89.25,
          "duration": 0.25,
          "velocity": 100
        },
        {
          "pitch": 55,
          "onset": 89.5,
          "duration": 0.25,
          "velocity": 100
        },
        {
          "pitch": 57,
          "onset": 89.75,
          "duration": 0.25,
          "velocity": 100
        },
        {
          "pitch": 59,
          "onset": 90.0,
          "duration": 3.0,
          "velocity": 100
        },
        {
          "pitch": 60,
          "onset": 93.0,
          "duration": 1.0,
          "velocity": 100
        },
        {
          "pitch": 59,
          "onset": 94.1562,
          "duration": 1.8125,
          "velocity": 100
        },
        {
          "pitch": 66,
          "onset": 96.0,
          "duration": 2.5,
          "velocity": 100
        },
        {
          "pitch": 67,
          "onset": 98.5,
          "duration": 0.5,
          "velocity": 100
        },
        {
          "pitch": 66,
          "onset": 99.0,
          "duration": 0.5,
          "velocity": 100
        },
        {
          "pitch": 64,
          "onset": 99.5,
          "duration": 0.5,
          "velocity": 100
        },
        {
          "pitch": 62,
          "onset": 100.0,
          "duration": 1.0,
          "velocity": 100
        },
        {
          "pitch": 61,
          "onset": 101.0,
          "duration": 0.5,
          "velocity": 100
        },
        {
          "pitch": 59,
          "onset": 101.5,
          "duration": 0.5,
          "velocity": 100
        },
        {
          "pitch": 67,
          "onset": 102.0,
          "duration": 1.0,
          "velocity": 100
        },
        {
          "pitch": 66,
          "onset": 103.0,
          "duration": 0.5,
          "velocity": 100
        },
        {
          "pitch": 64,
          "onset": 103.5,
          "duration": 0.5,
          "velocity": 100
        },
        {
          "pitch": 64,
          "onset": 104.0,
          "duration": 2.75,
          "velocity": 100
        },
        {
          "pitch": 64,
          "onset": 106.75,
          "duration": 0.25,
          "velocity": 100
        },
        {
          "pitch": 66,
          "onset": 107.0,
          "duration": 0.25,
          "velocity": 100
        },
        {
          "pitch": 67,
          "onset": 107.25,
          "duration": 0.25,
          "velocity": 100
        },
        {
          "pitch": 69,
          "onset": 107.5,
          "duration": 0.25,
          "velocity": 100
        },
        {
          "pitch": 71,
          "onset": 107.75,
          "duration": 0.25,
          "velocity": 100
        },
        {
          "pitch": 66,
          "onset": 108.25,
          "duration": 1.75,
          "velocity": 100
        },
        {
          "pitch": 69,
          "onset": 108.3438,
          "duration": 1.6562,
          "velocity": 100
        },
        {
          "pitch": 72,
          "onset": 108.4062,
          "duration": 1.5625,
          "velocity": 100
        },
        {
          "pitch": 71,
          "onset": 110.0,
          "duration": 3.0,
          "velocity": 100
        },
        {
          "pitch": 69,
          "onset": 113.0,
          "duration": 1.0,
          "velocity": 100
        },
        {
          "pitch": 69,
          "onset": 114.0,
          "duration": 3.0,
          "velocity": 100
        },
        {
          "pitch": 71,
          "onset": 117.0,
          "duration": 1.0,
          "velocity": 100
        },
        {
          "pitch": 69,
          "onset": 118.0,
          "duration": 2.0,
          "velocity": 100
        },
        {
          "pitch": 70,
          "onset": 120.0,
          "duration": 1.5,
          "velocity": 100
        },
        {
          "pitch": 68,
          "onset": 121.5,
          "duration": 0.25,
          "velocity": 100
        },
        {
          "pitch": 70,
          "onset": 121.75,
          "duration": 0.25,
          "velocity": 100
        },
        {
          "pitch": 71,
          "onset": 122.0,
          "duration": 3.25,
          "velocity": 100
        },
        {
          "pitch": 69,
          "onset": 125.125,
          "duration": 0.25,
          "velocity": 100
        },
        {
          "pitch": 67,
          "onset": 125.25,
          "duration": 0.25,
          "velocity": 100
        },
        {
          "pitch": 66,
          "onset": 125.375,
          "duration": 0.25,
          "velocity": 100
        },
        {
          "pitch": 64,
          "onset": 125.5,
          "duration": 0.25,
          "velocity": 100
        },
        {
          "pitch": 62,
          "onset": 125.625,
          "duration": 0.25,
          "velocity": 100
        },
        {
          "pitch": 61,
          "onset": 125.75,
          "duration": 0.25,
          "velocity": 100
        },
        {
          "pitch": 59,
          "onset": 125.875,
          "duration": 0.125,
          "velocity": 100
        },
        {
          "pitch": 59,
          "onset": 126.0,
          "duration": 2.75,
          "velocity": 100
        },
        {
          "pitch": 66,
          "onset": 128.75,
          "duration": 0.25,
          "velocity": 100
        },
        {
          "pitch": 64,
          "onset": 129.0,
          "duration": 0.25,
          "velocity": 100
        },
        {
          "pitch": 63,
          "onset": 129.25,
          "duration": 0.25,
          "velocity": 100
        },
        {
          "pitch": 64,
          "onset": 129.5,
          "duration": 0.25,
          "velocity": 100
        },
        {
          "pitch": 66,
          "onset": 129.75,
          "duration": 0.125,
          "velocity": 100
        },
        {
          "pitch": 67,
          "onset": 129.875,
          "duration": 0.125,
          "velocity": 100
        },
        {
          "pitch": 58,
          "onset": 130.0,
          "duration": 2.0,
          "velocity": 100
        },
        {
          "pitch": 59,
          "onset": 132.0,
          "duration": 1.5,
          "velocity": 100
        },
        {
          "pitch": 61,
          "onset": 133.5,
          "duration": 0.5,
          "velocity": 100
        },
        {
          "pitch": 61,
          "onset": 134.0,
          "duration": 3.0,
          "velocity": 100
        },
        {
          "pitch": 59,
          "onset": 137.0,
          "duration": 1.0,
          "velocity": 100
        },
        {
          "pitch": 59,
          "onset": 138.0,
          "duration": 6.0,
          "velocity": 100
        },
        {
          "pitch": 62,
          "onset": 144.0,
          "duration": 2.0,
          "velocity": 100
        },
        {
          "pitch": 56,
          "onset": 146.0,
          "duration": 3.0,
          "velocity": 100
        },
        {
          "pitch": 56,
          "onset": 149.0,
          "duration": 1.0,
          "velocity": 100
        },
        {
          "pitch": 57,
          "onset": 150.0,
          "duration": 2.75,
          "velocity": 100
        },
        {
          "pitch": 71,
          "onset": 152.75,
          "duration": 0.25,
          "velocity": 100
        },
        {
          "pitch": 69,
          "onset": 153.0,
          "duration": 0.25,
          "velocity": 100
        },
        {
          "pitch": 67,
          "onset": 153.25,
          "duration": 0.25,
          "velocity": 100
        },
        {
          "pitch": 66,
          "onset": 153.5,
          "duration": 0.25,
          "velocity": 100
        },
        {
          "pitch": 64,
          "onset": 153.75,
          "duration": 0.25,
          "velocity": 100
        },
        {
          "pitch": 63,
          "onset": 154.0,
          "duration": 2.0,
          "velocity": 100
        },
        {
          "pitch": 64,
          "onset": 156.0,
          "duration": 2.0,
          "velocity": 100
        },
        {
          "pitch": 58,
          "onset": 158.0,
          "duration": 3.0,
          "velocity": 100
        },
        {
          "pitch": 58,
          "onset": 161.0,
          "duration": 1.0,
          "velocity": 100
        },
        {
          "pitch": 59,
          "onset": 162.0,
          "duration": 2.75,
          "velocity": 100
        },
        {
          "pitch": 72,
          "onset": 164.75,
          "duration": 0.25,
          "velocity": 100
        },
        {
          "pitch": 71,
          "onset": 165.0,
          "duration": 0.5,
          "velocity": 100
        },
        {
          "pitch": 69,
          "onset": 165.5,
          "duration": 0.25,
          "velocity": 100
        },
        {
          "pitch": 67,
          "onset": 165.75,
          "duration": 0.25,
          "velocity": 100
        },
        {
          "pitch": 66,
          "onset": 166.0,
          "duration": 2.0,
          "velocity": 100
        },
        {
          "pitch": 67,
          "onset": 168.0,
          "duration": 2.75,
          "velocity": 100
        },
        {
          "pitch": 71,
          "onset": 170.75,
          "duration": 0.25,
          "velocity": 100
        },
        {
          "pitch": 69,
          "onset": 171.0,
          "duration": 0.25,
          "velocity": 100
        },
        {
          "pitch": 67,
          "onset": 171.25,
          "duration": 0.25,
          "velocity": 100
        },
        {
          "pitch": 69,
          "onset": 171.5,
          "duration": 0.25,
          "velocity": 100
        },
        {
          "pitch": 71,
          "onset": 171.75,
          "duration": 0.25,
          "velocity": 100
        },
        {
          "pitch": 63,
          "onset": 172.0,
          "duration": 2.0,
          "velocity": 100
        },
        {
          "pitch": 64,
          "onset": 174.0,
          "duration": 3.0,
          "velocity": 100
        },
        {
          "pitch": 67,
          "onset": 177.0,
          "duration": 1.0,
          "velocity": 100
        },
        {
          "pitch": 66,
          "onset": 178.0,
          "duration": 1.0,
          "velocity": 100
        },
        {
          "pitch": 67,
          "onset": 179.0,
          "duration": 0.5,
          "velocity": 100
        },
        {
          "pitch": 69,
          "onset": 179.5,
          "duration": 0.5,
          "velocity": 100
        },
        {
          "pitch": 63,
          "onset": 180.0,
          "duration": 1.0,
          "velocity": 100
        },
        {
          "pitch": 64,
          "onset": 181.0,
          "duration": 0.5,
          "velocity": 100
        },
        {
          "pitch": 66,
          "onset": 181.5,
          "duration": 0.25,
          "velocity": 100
        },
        {
          "pitch": 67,
          "onset": 181.75,
          "duration": 0.25,
          "velocity": 100
        },
        {
          "pitch": 66,
          "onset": 182.0,
          "duration": 3.0,
          "velocity": 100
        },
        {
          "pitch": 64,
          "onset": 185.0,
          "duration": 1.0,
          "velocity": 100
        },
        {
          "pitch": 64,
          "onset": 186.0,
          "duration": 3.0,
          "velocity": 100
        },
        {
          "pitch": 66,
          "onset": 189.0,
          "duration": 1.0,
          "velocity": 100
        },
        {
          "pitch": 64,
          "onset": 190.0,
          "duration": 2.0,
          "velocity": 100
        },
        {
          "pitch": 66,
          "onset": 192.1562,
          "duration": 2.3125,
          "velocity": 100
        },
        {
          "pitch": 67,
          "onset": 194.5,
          "duration": 0.5,
          "velocity": 100
        },
        {
          "pitch": 66,
          "onset": 195.0,
          "duration": 0.5,
          "velocity": 100
        },
        {
          "pitch": 64,
          "onset": 195.5,
          "duration": 0.5,
          "velocity": 100
        },
        {
          "pitch": 62,
          "onset": 196.0,
          "duration": 1.0,
          "velocity": 100
        },
        {
          "pitch": 61,
          "onset": 197.0,
          "duration": 0.5,
          "velocity": 100
        },
        {
          "pitch": 59,
          "onset": 197.5,
          "duration": 0.5,
          "velocity": 100
        },
        {
          "pitch": 67,
          "onset": 198.25,
          "duration": 0.75,
          "velocity": 100
        },
        {
          "pitch": 66,
          "onset": 199.0,
          "duration": 0.5,
          "velocity": 100
        },
        {
          "pitch": 64,
          "onset": 199.5,
          "duration": 0.5,
          "velocity": 100
        },
        {
          "pitch": 64,
          "onset": 200.0,
          "duration": 2.75,
          "velocity": 100
        },
        {
          "pitch": 64,
          "onset": 202.75,
          "duration": 0.25,
          "velocity": 100
        },
        {
          "pitch": 66,
          "onset": 203.0,
          "duration": 0.25,
          "velocity": 100
        },
        {
          "pitch": 67,
          "onset": 203.25,
          "duration": 0.25,
          "velocity": 100
        },
        {
          "pitch": 69,
          "onset": 203.5,
          "duration": 0.25,
          "velocity": 100
        },
        {
          "pitch": 71,
          "onset": 203.75,
          "duration": 0.25,
          "velocity": 100
        },
        {
          "pitch": 66,
          "onset": 204.25,
          "duration": 1.75,
          "velocity": 100
        },
        {
          "pitch": 69,
          "onset": 204.3438,
          "duration": 1.6562,
          "velocity": 100
        },
        {
          "pitch": 72,
          "onset": 204.4062,
          "duration": 1.5625,
          "velocity": 100
        },
        {
          "pitch": 71,
          "onset": 206.3438,
          "duration": 2.6562,
          "velocity": 100
        },
        {
          "pitch": 69,
          "onset": 209.0,
          "duration": 1.0,
          "velocity": 100
        },
        {
          "pitch": 69,
          "onset": 210.0,
          "duration": 3.0,
          "velocity": 100
        },
        {
          "pitch": 71,
          "onset": 213.0,
          "duration": 1.0,
          "velocity": 100
        },
        {
          "pitch": 69,
          "onset": 214.0,
          "duration": 2.0,
          "velocity": 100
        },
        {
          "pitch": 70,
          "onset": 216.0,
          "duration": 1.5,
          "velocity": 100
        },
        {
          "pitch": 68,
          "onset": 217.5,
          "duration": 0.25,
          "velocity": 100
        },
        {
          "pitch": 70,
          "onset": 217.75,
          "duration": 0.25,
          "velocity": 100
        },
        {
          "pitch": 71,
          "onset": 218.0,
          "duration": 3.25,
          "velocity": 100
        },
        {
          "pitch": 69,
          "onset": 221.125,
          "duration": 0.25,
          "velocity": 100
        },
        {
          "pitch": 67,
          "onset": 221.25,
          "duration": 0.25,
          "velocity": 100
        },
        {
          "pitch": 66,
          "onset": 221.375,
          "duration": 0.25,
          "velocity": 100
        },
        {
          "pitch": 64,
          "onset": 221.5,
          "duration": 0.25,
          "velocity": 100
        },
        {
          "pitch": 62,
          "onset": 221.625,
          "duration": 0.25,
          "velocity": 100
        },
        {
          "pitch": 61,
          "onset": 221.75,
          "duration": 0.25,
          "velocity": 100
        },
        {
          "pitch": 59,
          "onset": 221.875,
          "duration": 0.125,
          "velocity": 100
        },
        {
          "pitch": 64,
          "onset": 222.25,
          "duration": 2.5,
          "velocity": 100
        },
        {
          "pitch": 66,
          "onset": 224.75,
          "duration": 0.25,
          "velocity": 100
        },
        {
          "pitch": 64,
          "onset": 225.0,
          "duration": 0.25,
          "velocity": 100
        },
        {
          "pitch": 63,
          "onset": 225.25,
          "duration": 0.25,
          "velocity": 100
        },
        {
          "pitch": 64,
          "onset": 225.5,
          "duration": 0.25,
          "velocity": 100
        },
        {
          "pitch": 66,
          "onset": 225.75,
          "duration": 0.125,
          "velocity": 100
        },
        {
          "pitch": 67,
          "onset": 225.875,
          "duration": 0.125,
          "velocity": 100
        },
        {
          "pitch": 58,
          "onset": 226.0,
          "duration": 2.0,
          "velocity": 100
        },
        {
          "pitch": 59,
          "onset": 228.0,
          "duration": 1.5,
          "velocity": 100
        },
        {
          "pitch": 61,
          "onset": 229.5,
          "duration": 0.5,
          "velocity": 100
        },
        {
          "pitch": 61,
          "onset": 230.0,
          "duration": 3.0,
          "velocity": 100
        },
        {
          "pitch": 59,
          "onset": 233.0,
          "duration": 1.0,
          "velocity": 100
        },
        {
          "pitch": 59,
          "onset": 234.0,
          "duration": 6.0,
          "velocity": 100
        },
        {
          "pitch": 62,
          "onset": 240.3438,
          "duration": 1.6562,
          "velocity": 100
        },
        {
          "pitch": 56,
          "onset": 242.0,
          "duration": 3.0,
          "velocity": 100
        },
        {
          "pitch": 56,
          "onset": 245.0,
          "duration": 1.0,
          "velocity": 100
        },
        {
          "pitch": 57,
          "onset": 246.1562,
          "duration": 2.5625,
          "velocity": 100
        },
        {
          "pitch": 71,
          "onset": 248.75,
          "duration": 0.25,
          "velocity": 100
        },
        {
          "pitch": 69,
          "onset": 249.0,
          "duration": 0.25,
          "velocity": 100
        },
        {
          "pitch": 67,
          "onset": 249.25,
          "duration": 0.25,
          "velocity": 100
        },
        {
          "pitch": 66,
          "onset": 249.5,
          "duration": 0.25,
          "velocity": 100
        },
        {
          "pitch": 64,
          "onset": 249.75,
          "duration": 0.25,
          "velocity": 100
        },
        {
          "pitch": 63,
          "onset": 250.0,
          "duration": 2.0,
          "velocity": 100
        },
        {
          "pitch": 64,
          "onset": 252.0,
          "duration": 2.0,
          "velocity": 100
        },
        {
          "pitch": 58,
          "onset": 254.1562,
          "duration": 2.8125,
          "velocity": 100
        },
        {
          "pitch": 58,
          "onset": 257.0,
          "duration": 1.0,
          "velocity": 100
        },
        {
          "pitch": 59,
          "onset": 258.1562,
          "duration": 2.5625,
          "velocity": 100
        },
        {
          "pitch": 72,
          "onset": 260.75,
          "duration": 0.25,
          "velocity": 100
        },
        {
          "pitch": 71,
          "onset": 261.0,
          "duration": 0.5,
          "velocity": 100
        },
        {
          "pitch": 69,
          "onset": 261.5,
          "duration": 0.25,
          "velocity": 100
        },
        {
          "pitch": 67,
          "onset": 261.75,
          "duration": 0.25,
          "velocity": 100
        },
        {
          "pitch": 66,
          "onset": 262.1562,
          "duration": 1.8125,
          "velocity": 100
        },
        {
          "pitch": 67,
          "onset": 264.1562,
          "duration": 2.5625,
          "velocity": 100
        },
        {
          "pitch": 71,
          "onset": 266.75,
          "duration": 0.25,
          "velocity": 100
        },
        {
          "pitch": 69,
          "onset": 267.0,
          "duration": 0.25,
          "velocity": 100
        },
        {
          "pitch": 67,
          "onset": 267.25,
          "duration": 0.25,
          "velocity": 100
        },
        {
          "pitch": 69,
          "onset": 267.5,
          "duration": 0.25,
          "velocity": 100
        },
        {
          "pitch": 71,
          "onset": 267.75,
          "duration": 0.25,
          "velocity": 100
        },
        {
          "pitch": 63,
          "onset": 268.1562,
          "duration": 1.8125,
          "velocity": 100
        },
        {
          "pitch": 64,
          "onset": 270.1562,
          "duration": 2.8125,
          "velocity": 100
        },
        {
          "pitch": 67,
          "onset": 273.0,
          "duration": 1.0,
          "velocity": 100
        },
        {
          "pitch": 66,
          "onset": 274.0,
          "duration": 1.0,
          "velocity": 100
        },
        {
          "pitch": 67,
          "onset": 275.0,
          "duration": 0.5,
          "velocity": 100
        },
        {
          "pitch": 69,
          "onset": 275.5,
          "duration": 0.5,
          "velocity": 100
        },
        {
          "pitch": 63,
          "onset": 276.0,
          "duration": 1.0,
          "velocity": 100
        },
        {
          "pitch": 64,
          "onset": 277.0,
          "duration": 0.5,
          "velocity": 100
        },
        {
          "pitch": 66,
          "onset": 277.5,
          "duration": 0.25,
          "velocity": 100
        },
        {
          "pitch": 67,
          "onset": 277.75,
          "duration": 0.25,
          "velocity": 100
        },
        {
          "pitch": 66,
          "onset": 278.0,
          "duration": 3.0,
          "velocity": 100
        },
        {
          "pitch": 64,
          "onset": 281.0,
          "duration": 1.0,
          "velocity": 100
        },
        {
          "pitch": 64,
          "onset": 282.25,
          "duration": 2.75,
          "velocity": 100
        },
        {
          "pitch": 66,
          "onset": 285.0,
          "duration": 1.25,
          "velocity": 100
        },
        {
          "pitch": 64,
          "onset": 286.25,
          "duration": 3.75,
          "velocity": 100
        },
        {
          "pitch": 64,
          "onset": 292.25,
          "duration": 0.25,
          "velocity": 1
        }
      ]
    },
    {
      "role": "v2",
      "notes": [
        {
          "pitch": 52,
          "onset": 0.0,
          "duration": 6.0,
          "velocity": 100
        },
        {
          "pitch": 55,
          "onset": 0.0,
          "duration": 6.0,
          "velocity": 100
        },
        {
          "pitch": 55,
          "onset": 6.0,
          "duration": 2.0,
          "velocity": 100
        },
        {
          "pitch": 54,
          "onset": 8.0,
          "duration": 10.0,
          "velocity": 100
        },
        {
          "pitch": 52,
          "onset": 18.0,
          "duration": 4.0,
          "velocity": 100
        },
        {
          "pitch": 47,
          "onset": 22.0,
          "duration": 2.0,
          "velocity": 100
        },
        {
          "pitch": 59,
          "onset": 24.0,
          "duration": 2.0,
          "velocity": 100
        },
        {
          "pitch": 64,
          "onset": 24.0,
          "duration": 2.0,
          "velocity": 100
        },
        {
          "pitch": 57,
          "onset": 26.0,
          "duration": 4.0,
          "velocity": 100
        },
        {
          "pitch": 55,
          "onset": 30.0,
          "duration": 4.0,
          "velocity": 100
        },
        {
          "pitch": 57,
          "onset": 34.0,
          "duration": 2.0,
          "velocity": 100
        },
        {
          "pitch": 55,
          "onset": 36.0,
          "duration": 1.0,
          "velocity": 100
        },
        {
          "pitch": 54,
          "onset": 37.0,
          "duration": 1.0,
          "velocity": 100
        },
        {
          "pitch": 54,
          "onset": 39.0,
          "duration": 0.5,
          "velocity": 100
        },
        {
          "pitch": 55,
          "onset": 39.5,
          "duration": 0.5,
          "velocity": 100
        },
        {
          "pitch": 54,
          "onset": 40.0,
          "duration": 1.0,
          "velocity": 100
        },
        {
          "pitch": 52,
          "onset": 41.0,
          "duration": 1.0,
          "velocity": 100
        },
        {
          "pitch": 51,
          "onset": 42.0,
          "duration": 3.0,
          "velocity": 100
        },
        {
          "pitch": 52,
          "onset": 45.0,
          "duration": 1.0,
          "velocity": 100
        },
        {
          "pitch": 51,
          "onset": 46.0,
          "duration": 2.0,
          "velocity": 100
        },
        {
          "pitch": 54,
          "onset": 46.0,
          "duration": 2.0,
          "velocity": 100
        },
        {
          "pitch": 52,
          "onset": 48.0938,
          "duration": 5.9062,
          "velocity": 100
        },
        {
          "pitch": 55,
          "onset": 48.1562,
          "duration": 5.8125,
          "velocity": 100
        },
        {
          "pitch": 55,
          "onset": 54.0938,
          "duration": 1.9062,
          "velocity": 100
        },
        {
          "pitch": 54,
          "onset": 56.0,
          "duration": 10.0,
          "velocity": 100
        },
        {
          "pitch": 52,
          "onset": 66.0,
          "duration": 4.0,
          "velocity": 100
        },
        {
          "pitch": 47,
          "onset": 70.0938,
          "duration": 1.9062,
          "velocity": 100
        },
        {
          "pitch": 59,
          "onset": 72.0938,
          "duration": 1.9062,
          "velocity": 100
        },
        {
          "pitch": 64,
          "onset": 72.1562,
          "duration": 1.8125,
          "velocity": 100
        },
        {
          "pitch": 57,
          "onset": 74.0,
          "duration": 4.0,
          "velocity": 100
        },
        {
          "pitch": 55,
          "onset": 78.0,
          "duration": 4.0,
          "velocity": 100
        },
        {
          "pitch": 57,
          "onset": 82.0,
          "duration": 2.0,
          "velocity": 100
        },
        {
          "pitch": 55,
          "onset": 84.0938,
          "duration": 0.9062,
          "velocity": 100
        },
        {
          "pitch": 54,
          "onset": 85.0,
          "duration": 1.0,
          "velocity": 100
        },
        {
          "pitch": 54,
          "onset": 87.0,
          "duration": 0.5,
          "velocity": 100
        },
        {
          "pitch": 55,
          "onset": 87.5,
          "duration": 0.5,
          "velocity": 100
        },
        {
          "pitch": 54,
          "onset": 88.0,
          "duration": 1.0,
          "velocity": 100
        },
        {
          "pitch": 52,
          "onset": 89.0,
          "duration": 1.0,
          "velocity": 100
        },
        {
          "pitch": 51,
          "onset": 90.0,
          "duration": 3.0,
          "velocity": 100
        },
        {
          "pitch": 52,
          "onset": 93.0,
          "duration": 1.0,
          "velocity": 100
        },
        {
          "pitch": 51,
          "onset": 94.0,
          "duration": 2.0,
          "velocity": 100
        },
        {
          "pitch": 54,
          "onset": 94.0938,
          "duration": 1.9062,
          "velocity": 100
        },
        {
          "pitch": 59,
          "onset": 96.0,
          "duration": 2.0,
          "velocity": 100
        },
        {
          "pitch": 54,
          "onset": 98.0,
          "duration": 2.0,
          "velocity": 100
        },
        {
          "pitch": 61,
          "onset": 98.0,
          "duration": 2.0,
          "velocity": 100
        },
        {
          "pitch": 54,
          "onset": 100.0,
          "duration": 2.0,
          "velocity": 100
        },
        {
          "pitch": 59,
          "onset": 100.0,
          "duration": 2.0,
          "velocity": 100
        },
        {
          "pitch": 55,
          "onset": 102.0,
          "duration": 2.0,
          "velocity": 100
        },
        {
          "pitch": 62,
          "onset": 102.0,
          "duration": 2.0,
          "velocity": 100
        },
        {
          "pitch": 55,
          "onset": 104.0,
          "duration": 4.0,
          "velocity": 100
        },
        {
          "pitch": 60,
          "onset": 104.0,
          "duration": 4.0,
          "velocity": 100
        },
        {
          "pitch": 57,
          "onset": 108.0938,
          "duration": 1.9062,
          "velocity": 100
        },
        {
          "pitch": 60,
          "onset": 108.1562,
          "duration": 1.8125,
          "velocity": 100
        },
        {
          "pitch": 50,
          "onset": 110.0,
          "duration": 2.0,
          "velocity": 100
        },
        {
          "pitch": 55,
          "onset": 110.0,
          "duration": 6.0,
          "velocity": 100
        },
        {
          "pitch": 67,
          "onset": 110.0,
          "duration": 4.0,
          "velocity": 100
        },
        {
          "pitch": 52,
          "onset": 112.0,
          "duration": 2.0,
          "velocity": 100
        },
        {
          "pitch": 62,
          "onset": 114.0,
          "duration": 6.0,
          "velocity": 100
        },
        {
          "pitch": 54,
          "onset": 116.0,
          "duration": 4.0,
          "velocity": 100
        },
        {
          "pitch": 61,
          "onset": 120.0,
          "duration": 2.0,
          "velocity": 100
        },
        {
          "pitch": 66,
          "onset": 120.0,
          "duration": 2.0,
          "velocity": 100
        },
        {
          "pitch": 59,
          "onset": 122.0,
          "duration": 4.0,
          "velocity": 100
        },
        {
          "pitch": 66,
          "onset": 122.0,
          "duration": 4.0,
          "velocity": 100
        },
        {
          "pitch": 52,
          "onset": 126.0,
          "duration": 6.0,
          "velocity": 100
        },
        {
          "pitch": 59,
          "onset": 126.0,
          "duration": 4.0,
          "velocity": 100
        },
        {
          "pitch": 54,
          "onset": 132.0,
          "duration": 1.0,
          "velocity": 100
        },
        {
          "pitch": 55,
          "onset": 133.0,
          "duration": 1.0,
          "velocity": 100
        },
        {
          "pitch": 54,
          "onset": 134.0,
          "duration": 4.0,
          "velocity": 100
        },
        {
          "pitch": 59,
          "onset": 134.0,
          "duration": 2.0,
          "velocity": 100
        },
        {
          "pitch": 58,
          "onset": 136.0,
          "duration": 2.0,
          "velocity": 100
        },
        {
          "pitch": 51,
          "onset": 140.0,
          "duration": 4.0,
          "velocity": 100
        },
        {
          "pitch": 54,
          "onset": 141.0,
          "duration": 3.0,
          "velocity": 100
        },
        {
          "pitch": 59,
          "onset": 142.0,
          "duration": 2.0,
          "velocity": 100
        },
        {
          "pitch": 50,
          "onset": 144.0,
          "duration": 2.0,
          "velocity": 100
        },
        {
          "pitch": 54,
          "onset": 144.0,
          "duration": 2.0,
          "velocity": 100
        },
        {
          "pitch": 59,
          "onset": 144.0,
          "duration": 2.0,
          "velocity": 100
        },
        {
          "pitch": 50,
          "onset": 146.0,
          "duration": 4.0,
          "velocity": 100
        },
        {
          "pitch": 52,
          "onset": 150.0,
          "duration": 4.0,
          "velocity": 100
        },
        {
          "pitch": 54,
          "onset": 154.0,
          "duration": 2.0,
          "velocity": 100
        },
        {
          "pitch": 55,
          "onset": 156.0,
          "duration": 2.0,
          "velocity": 100
        },
        {
          "pitch": 54,
          "onset": 158.0,
          "duration": 2.0,
          "velocity": 100
        },
        {
          "pitch": 52,
          "onset": 160.0,
          "duration": 2.0,
          "velocity": 100
        },
        {
          "pitch": 54,
          "onset": 162.0,
          "duration": 4.0,
          "velocity": 100
        },
        {
          "pitch": 59,
          "onset": 166.0,
          "duration": 2.0,
          "velocity": 100
        },
        {
          "pitch": 59,
          "onset": 168.0,
          "duration": 1.0,
          "velocity": 100
        },
        {
          "pitch": 57,
          "onset": 169.0,
          "duration": 1.0,
          "velocity": 100
        },
        {
          "pitch": 55,
          "onset": 170.0,
          "duration": 2.0,
          "velocity": 100
        },
        {
          "pitch": 57,
          "onset": 172.0,
          "duration": 2.0,
          "velocity": 100
        },
        {
          "pitch": 59,
          "onset": 174.0,
          "duration": 4.0,
          "velocity": 100
        },
        {
          "pitch": 52,
          "onset": 176.0,
          "duration": 4.0,
          "velocity": 100
        },
        {
          "pitch": 57,
          "onset": 178.0,
          "duration": 3.0,
          "velocity": 100
        },
        {
          "pitch": 54,
          "onset": 180.0,
          "duration": 1.0,
          "velocity": 100
        },
        {
          "pitch": 52,
          "onset": 181.0,
          "duration": 3.0,
          "velocity": 100
        },
        {
          "pitch": 55,
          "onset": 181.0,
          "duration": 0.5,
          "velocity": 100
        },
        {
          "pitch": 57,
          "onset": 181.5,
          "duration": 0.5,
          "velocity": 100
        },
        {
          "pitch": 59,
          "onset": 182.0,
          "duration": 2.0,
          "velocity": 100
        },
        {
          "pitch": 51,
          "onset": 184.0,
          "duration": 2.0,
          "velocity": 100
        },
        {
          "pitch": 57,
          "onset": 184.0,
          "duration": 4.0,
          "velocity": 100
        },
        {
          "pitch": 52,
          "onset": 186.0,
          "duration": 6.0,
          "velocity": 100
        },
        {
          "pitch": 56,
          "onset": 188.0,
          "duration": 4.0,
          "velocity": 100
        },
        {
          "pitch": 59,
          "onset": 192.0938,
          "duration": 1.9062,
          "velocity": 100
        },
        {
          "pitch": 54,
          "onset": 194.0,
          "duration": 2.0,
          "velocity": 100
        },
        {
          "pitch": 61,
          "onset": 194.0,
          "duration": 2.0,
          "velocity": 100
        },
        {
          "pitch": 54,
          "onset": 196.0,
          "duration": 2.0,
          "velocity": 100
        },
        {
          "pitch": 59,
          "onset": 196.0,
          "duration": 2.0,
          "velocity": 100
        },
        {
          "pitch": 55,
          "onset": 198.0938,
          "duration": 1.9062,
          "velocity": 100
        },
        {
          "pitch": 62,
          "onset": 198.1562,
          "duration": 1.8125,
          "velocity": 100
        },
        {
          "pitch": 55,
          "onset": 200.0,
          "duration": 4.0,
          "velocity": 100
        },
        {
          "pitch": 60,
          "onset": 200.0,
          "duration": 4.0,
          "velocity": 100
        },
        {
          "pitch": 57,
          "onset": 204.0938,
          "duration": 1.9062,
          "velocity": 100
        },
        {
          "pitch": 60,
          "onset": 204.1562,
          "duration": 1.8125,
          "velocity": 100
        },
        {
          "pitch": 50,
          "onset": 206.0938,
          "duration": 1.9062,
          "velocity": 100
        },
        {
          "pitch": 55,
          "onset": 206.1562,
          "duration": 5.8125,
          "velocity": 100
        },
        {
          "pitch": 67,
          "onset": 206.25,
          "duration": 3.75,
          "velocity": 100
        },
        {
          "pitch": 52,
          "onset": 208.0,
          "duration": 2.0,
          "velocity": 100
        },
        {
          "pitch": 62,
          "onset": 210.0,
          "duration": 6.0,
          "velocity": 100
        },
        {
          "pitch": 54,
          "onset": 212.0,
          "duration": 4.0,
          "velocity": 100
        },
        {
          "pitch": 61,
          "onset": 216.0,
          "duration": 2.0,
          "velocity": 100
        },
        {
          "pitch": 66,
          "onset": 216.0,
          "duration": 2.0,
          "velocity": 100
        },
        {
          "pitch": 59,
          "onset": 218.0,
          "duration": 4.0,
          "velocity": 100
        },
        {
          "pitch": 66,
          "onset": 218.0,
          "duration": 4.0,
          "velocity": 100
        },
        {
          "pitch": 52,
          "onset": 222.0938,
          "duration": 5.9062,
          "velocity": 100
        },
        {
          "pitch": 59,
          "onset": 222.1562,
          "duration": 3.8125,
          "velocity": 100
        },
        {
          "pitch": 54,
          "onset": 228.0,
          "duration": 1.0,
          "velocity": 100
        },
        {
          "pitch": 55,
          "onset": 229.0,
          "duration": 1.0,
          "velocity": 100
        },
        {
          "pitch": 54,
          "onset": 230.0,
          "duration": 4.0,
          "velocity": 100
        },
        {
          "pitch": 59,
          "onset": 230.0,
          "duration": 2.0,
          "velocity": 100
        },
        {
          "pitch": 58,
          "onset": 232.0,
          "duration": 2.0,
          "velocity": 100
        },
        {
          "pitch": 51,
          "onset": 236.0,
          "duration": 4.0,
          "velocity": 100
        },
        {
          "pitch": 54,
          "onset": 237.0,
          "duration": 3.0,
          "velocity": 100
        },
        {
          "pitch": 59,
          "onset": 238.0,
          "duration": 2.0,
          "velocity": 100
        },
        {
          "pitch": 50,
          "onset": 240.0938,
          "duration": 1.9062,
          "velocity": 100
        },
        {
          "pitch": 54,
          "onset": 240.1562,
          "duration": 1.8125,
          "velocity": 100
        },
        {
          "pitch": 59,
          "onset": 240.25,
          "duration": 1.75,
          "velocity": 100
        },
        {
          "pitch": 50,
          "onset": 242.0,
          "duration": 4.0,
          "velocity": 100
        },
        {
          "pitch": 52,
          "onset": 246.0938,
          "duration": 3.9062,
          "velocity": 100
        },
        {
          "pitch": 54,
          "onset": 250.0,
          "duration": 2.0,
          "velocity": 100
        },
        {
          "pitch": 55,
          "onset": 252.0,
          "duration": 2.0,
          "velocity": 100
        },
        {
          "pitch": 54,
          "onset": 254.0938,
          "duration": 1.9062,
          "velocity": 100
        },
        {
          "pitch": 52,
          "onset": 256.0,
          "duration": 2.0,
          "velocity": 100
        },
        {
          "pitch": 54,
          "onset": 258.0938,
          "duration": 3.9062,
          "velocity": 100
        },
        {
          "pitch": 59,
          "onset": 262.0938,
          "duration": 1.9062,
          "velocity": 100
        },
        {
          "pitch": 59,
          "onset": 264.0938,
          "duration": 0.9062,
          "velocity": 100
        },
        {
          "pitch": 57,
          "onset": 265.0,
          "duration": 1.0,
          "velocity": 100
        },
        {
          "pitch": 55,
          "onset": 266.0,
          "duration": 2.0,
          "velocity": 100
        },
        {
          "pitch": 57,
          "onset": 268.0938,
          "duration": 1.9062,
          "velocity": 100
        },
        {
          "pitch": 59,
          "onset": 270.0938,
          "duration": 3.9062,
          "velocity": 100
        },
        {
          "pitch": 52,
          "onset": 272.0,
          "duration": 4.0,
          "velocity": 100
        },
        {
          "pitch": 57,
          "onset": 274.0,
          "duration": 3.0,
          "velocity": 100
        },
        {
          "pitch": 54,
          "onset": 276.0,
          "duration": 1.0,
          "velocity": 100
        },
        {
          "pitch": 52,
          "onset": 277.0,
          "duration": 3.0,
          "velocity": 100
        },
        {
          "pitch": 55,
          "onset": 277.0,
          "duration": 0.5,
          "velocity": 100
        },
        {
          "pitch": 57,
          "onset": 277.5,
          "duration": 0.5,
          "velocity": 100
        },
        {
          "pitch": 59,
          "onset": 278.0,
          "duration": 2.0,
          "velocity": 100
        },
        {
          "pitch": 51,
          "onset": 280.0,
          "duration": 2.0,
          "velocity": 100
        },
        {
          "pitch": 57,
          "onset": 280.0,
          "duration": 2.0,
          "velocity": 100
        },
        {
          "pitch": 52,
          "onset": 282.0938,
          "duration": 7.9062,
          "velocity": 100
        },
        {
          "pitch": 57,
          "onset": 282.1562,
          "duration": 1.8125,
          "velocity": 100
        },
        {
          "pitch": 56,
          "onset": 284.0,
          "duration": 6.0,
          "velocity": 100
        }
      ]
    },
    {
      "role": "v3",
      "notes": [
        {
          "pitch": 40,
          "onset": 0.0,
          "duration": 6.0,
          "velocity": 100
        },
        {
          "pitch": 52,
          "onset": 0.0,
          "duration": 0.25,
          "velocity": 1
        },
        {
          "pitch": 52,
          "onset": 6.0,
          "duration": 5.0,
          "velocity": 100
        },
        {
          "pitch": 52,
          "onset": 11.0,
          "duration": 1.0,
          "velocity": 100
        },
        {
          "pitch": 51,
          "onset": 12.0,
          "duration": 6.0,
          "velocity": 100
        },
        {
          "pitch": 47,
          "onset": 20.0,
          "duration": 2.0,
          "velocity": 100
        },
        {
          "pitch": 40,
          "onset": 22.0,
          "duration": 2.0,
          "velocity": 100
        },
        {
          "pitch": 52,
          "onset": 24.0,
          "duration": 2.0,
          "velocity": 100
        },
        {
          "pitch": 54,
          "onset": 26.0,
          "duration": 4.0,
          "velocity": 100
        },
        {
          "pitch": 43,
          "onset": 32.0,
          "duration": 2.0,
          "velocity": 100
        },
        {
          "pitch": 54,
          "onset": 34.0,
          "duration": 2.0,
          "velocity": 100
        },
        {
          "pitch": 52,
          "onset": 36.0,
          "duration": 1.0,
          "velocity": 100
        },
        {
          "pitch": 50,
          "onset": 37.0,
          "duration": 1.0,
          "velocity": 100
        },
        {
          "pitch": 48,
          "onset": 38.0,
          "duration": 4.0,
          "velocity": 100
        },
        {
          "pitch": 47,
          "onset": 44.0,
          "duration": 4.0,
          "velocity": 100
        },
        {
          "pitch": 40,
          "onset": 48.0,
          "duration": 6.0,
          "velocity": 100
        },
        {
          "pitch": 52,
          "onset": 54.0,
          "duration": 5.0,
          "velocity": 100
        },
        {
          "pitch": 52,
          "onset": 59.0,
          "duration": 1.0,
          "velocity": 100
        },
        {
          "pitch": 51,
          "onset": 60.0,
          "duration": 6.0,
          "velocity": 100
        },
        {
          "pitch": 47,
          "onset": 68.0,
          "duration": 2.0,
          "velocity": 100
        },
        {
          "pitch": 40,
          "onset": 70.0,
          "duration": 2.0,
          "velocity": 100
        },
        {
          "pitch": 52,
          "onset": 72.0,
          "duration": 2.0,
          "velocity": 100
        },
        {
          "pitch": 54,
          "onset": 74.0,
          "duration": 4.0,
          "velocity": 100
        },
        {
          "pitch": 43,
          "onset": 80.0,
          "duration": 2.0,
          "velocity": 100
        },
        {
          "pitch": 54,
          "onset": 82.0,
          "duration": 2.0,
          "velocity": 100
        },
        {
          "pitch": 52,
          "onset": 84.0,
          "duration": 1.0,
          "velocity": 100
        },
        {
          "pitch": 50,
          "onset": 85.0,
          "duration": 1.0,
          "velocity": 100
        },
        {
          "pitch": 48,
          "onset": 86.0,
          "duration": 4.0,
          "velocity": 100
        },
        {
          "pitch": 47,
          "onset": 92.0,
          "duration": 4.0,
          "velocity": 100
        },
        {
          "pitch": 47,
          "onset": 96.0,
          "duration": 2.0,
          "velocity": 100
        },
        {
          "pitch": 46,
          "onset": 98.0,
          "duration": 2.0,
          "velocity": 100
        },
        {
          "pitch": 47,
          "onset": 100.0,
          "duration": 2.0,
          "velocity": 100
        },
        {
          "pitch": 47,
          "onset": 102.0,
          "duration": 2.0,
          "velocity": 100
        },
        {
          "pitch": 48,
          "onset": 104.0,
          "duration": 4.0,
          "velocity": 100
        },
        {
          "pitch": 45,
          "onset": 108.0,
          "duration": 2.0,
          "velocity": 100
        },
        {
          "pitch": 47,
          "onset": 110.0,
          "duration": 2.0,
          "velocity": 100
        },
        {
          "pitch": 48,
          "onset": 112.0,
          "duration": 2.0,
          "velocity": 100
        },
        {
          "pitch": 50,
          "onset": 114.0,
          "duration": 6.0,
          "velocity": 100
        },
        {
          "pitch": 50,
          "onset": 122.0,
          "duration": 4.0,
          "velocity": 100
        },
        {
          "pitch": 49,
          "onset": 126.0,
          "duration": 6.0,
          "velocity": 100
        },
        {
          "pitch": 50,
          "onset": 132.0,
          "duration": 1.0,
          "velocity": 100
        },
        {
          "pitch": 52,
          "onset": 133.0,
          "duration": 1.0,
          "velocity": 100
        },
        {
          "pitch": 42,
          "onset": 136.0,
          "duration": 2.0,
          "velocity": 100
        },
        {
          "pitch": 47,
          "onset": 139.0,
          "duration": 5.0,
          "velocity": 100
        },
        {
          "pitch": 47,
          "onset": 144.0,
          "duration": 6.0,
          "velocity": 100
        },
        {
          "pitch": 48,
          "onset": 150.0,
          "duration": 8.0,
          "velocity": 100
        },
        {
          "pitch": 49,
          "onset": 158.0,
          "duration": 4.0,
          "velocity": 100
        },
        {
          "pitch": 50,
          "onset": 162.0,
          "duration": 4.0,
          "velocity": 100
        },
        {
          "pitch": 51,
          "onset": 166.0,
          "duration": 2.0,
          "velocity": 100
        },
        {
          "pitch": 52,
          "onset": 168.0,
          "duration": 4.0,
          "velocity": 100
        },
        {
          "pitch": 54,
          "onset": 172.0,
          "duration": 2.0,
          "velocity": 100
        },
        {
          "pitch": 55,
          "onset": 174.0,
          "duration": 2.0,
          "velocity": 100
        },
        {
          "pitch": 48,
          "onset": 176.0,
          "duration": 4.0,
          "velocity": 100
        },
        {
          "pitch": 47,
          "onset": 180.0,
          "duration": 6.0,
          "velocity": 100
        },
        {
          "pitch": 40,
          "onset": 186.0,
          "duration": 6.0,
          "velocity": 100
        },
        {
          "pitch": 47,
          "onset": 192.0,
          "duration": 2.0,
          "velocity": 100
        },
        {
          "pitch": 46,
          "onset": 194.0,
          "duration": 2.0,
          "velocity": 100
        },
        {
          "pitch": 47,
          "onset": 196.0,
          "duration": 2.0,
          "velocity": 100
        },
        {
          "pitch": 47,
          "onset": 198.0,
          "duration": 2.0,
          "velocity": 100
        },
        {
          "pitch": 48,
          "onset": 200.0,
          "duration": 4.0,
          "velocity": 100
        },
        {
          "pitch": 45,
          "onset": 204.0,
          "duration": 2.0,
          "velocity": 100
        },
        {
          "pitch": 47,
          "onset": 206.0,
          "duration": 2.0,
          "velocity": 100
        },
        {
          "pitch": 48,
          "onset": 208.0,
          "duration": 2.0,
          "velocity": 100
        },
        {
          "pitch": 50,
          "onset": 210.0,
          "duration": 6.0,
          "velocity": 100
        },
        {
          "pitch": 50,
          "onset": 218.0,
          "duration": 4.0,
          "velocity": 100
        },
        {
          "pitch": 49,
          "onset": 222.0,
          "duration": 6.0,
          "velocity": 100
        },
        {
          "pitch": 50,
          "onset": 228.0,
          "duration": 1.0,
          "velocity": 100
        },
        {
          "pitch": 52,
          "onset": 229.0,
          "duration": 1.0,
          "velocity": 100
        },
        {
          "pitch": 42,
          "onset": 232.0,
          "duration": 2.0,
          "velocity": 100
        },
        {
          "pitch": 47,
          "onset": 235.0,
          "duration": 5.0,
          "velocity": 100
        },
        {
          "pitch": 47,
          "onset": 240.0,
          "duration": 6.0,
          "velocity": 100
        },
        {
          "pitch": 48,
          "onset": 246.0,
          "duration": 8.0,
          "velocity": 100
        },
        {
          "pitch": 49,
          "onset": 254.0,
          "duration": 4.0,
          "velocity": 100
        },
        {
          "pitch": 50,
          "onset": 258.0,
          "duration": 4.0,
          "velocity": 100
        },
        {
          "pitch": 51,
          "onset": 262.0,
          "duration": 2.0,
          "velocity": 100
        },
        {
          "pitch": 52,
          "onset": 264.0,
          "duration": 4.0,
          "velocity": 100
        },
        {
          "pitch": 54,
          "onset": 268.0,
          "duration": 2.0,
          "velocity": 100
        },
        {
          "pitch": 55,
          "onset": 270.0,
          "duration": 2.0,
          "velocity": 100
        },
        {
          "pitch": 48,
          "onset": 272.0,
          "duration": 4.0,
          "velocity": 100
        },
        {
          "pitch": 47,
          "onset": 276.0,
          "duration": 6.0,
          "velocity": 100
        },
        {
          "pitch": 40,
          "onset": 282.0,
          "duration": 8.0,
          "velocity": 100
        }
      ]
    }
  ]
}