{
  "bwv": 997,
  "category": "lute_suite",
  "instrument": "lute",
  "form": "",
  "movement": 4,
  "ticks_per_beat": 384,
  "duration_seconds": 166.3,
  "tempos": [
    {
      "tick": 0,
      "bpm": 110
    },
    {
      "tick": 48,
      "bpm": 240
    },
    {
      "tick": 904,
      "bpm": 110
    },
    {
      "tick": 18240,
      "bpm": 105
    },
    {
      "tick": 18432,
      "bpm": 100
    },
    {
      "tick": 19584,
      "bpm": 110
    },
    {
      "tick": 36672,
      "bpm": 105
    },
    {
      "tick": 36864,
      "bpm": 105
    },
    {
      "tick": 37056,
      "bpm": 100
    },
    {
      "tick": 38016,
      "bpm": 110
    },
    {
      "tick": 73536,
      "bpm": 105
    },
    {
      "tick": 73728,
      "bpm": 105
    },
    {
      "tick": 73920,
      "bpm": 100
    },
    {
      "tick": 74880,
      "bpm": 110
    },
    {
      "tick": 83328,
      "bpm": 105
    },
    {
      "tick": 83520,
      "bpm": 105
    },
    {
      "tick": 83712,
      "bpm": 100
    },
    {
      "tick": 84096,
      "bpm": 110
    },
    {
      "tick": 91968,
      "bpm": 105
    },
    {
      "tick": 92160,
      "bpm": 105
    },
    {
      "tick": 92352,
      "bpm": 100
    },
    {
      "tick": 93312,
      "bpm": 110
    },
    {
      "tick": 109824,
      "bpm": 105
    },
    {
      "tick": 110208,
      "bpm": 105
    },
    {
      "tick": 110400,
      "bpm": 100
    },
    {
      "tick": 110496,
      "bpm": 90
    }
  ],
  "time_signatures": [
    {
      "tick": 0,
      "numerator": 3,
      "denominator": 4
    }
  ],
  "track_type": "voice",
  "voice_count": 3,
  "total_notes": 1115,
  "tracks": [
    {
      "role": "v1",
      "notes": [
        {
          "pitch": 72,
          "onset": 0.0,
          "duration": 0.25,
          "velocity": 1
        },
        {
          "pitch": 67,
          "onset": 2.5,
          "duration": 0.5,
          "velocity": 100
        },
        {
          "pitch": 65,
          "onset": 3.0,
          "duration": 0.5,
          "velocity": 100
        },
        {
          "pitch": 63,
          "onset": 3.5,
          "duration": 0.5,
          "velocity": 100
        },
        {
          "pitch": 67,
          "onset": 4.0,
          "duration": 0.5,
          "velocity": 100
        },
        {
          "pitch": 63,
          "onset": 4.5,
          "duration": 0.5,
          "velocity": 100
        },
        {
          "pitch": 62,
          "onset": 5.0,
          "duration": 0.5,
          "velocity": 100
        },
        {
          "pitch": 67,
          "onset": 5.5,
          "duration": 0.5,
          "velocity": 100
        },
        {
          "pitch": 62,
          "onset": 6.0,
          "duration": 0.75,
          "velocity": 100
        },
        {
          "pitch": 59,
          "onset": 6.75,
          "duration": 0.25,
          "velocity": 100
        },
        {
          "pitch": 60,
          "onset": 7.0,
          "duration": 0.5,
          "velocity": 100
        },
        {
          "pitch": 72,
          "onset": 7.5,
          "duration": 1.0,
          "velocity": 100
        },
        {
          "pitch": 67,
          "onset": 8.5,
          "duration": 0.5,
          "velocity": 100
        },
        {
          "pitch": 67,
          "onset": 9.0,
          "duration": 0.75,
          "velocity": 100
        },
        {
          "pitch": 67,
          "onset": 9.75,
          "duration": 0.25,
          "velocity": 100
        },
        {
          "pitch": 65,
          "onset": 10.0,
          "duration": 0.5,
          "velocity": 100
        },
        {
          "pitch": 65,
          "onset": 10.5,
          "duration": 0.75,
          "velocity": 100
        },
        {
          "pitch": 65,
          "onset": 11.25,
          "duration": 0.25,
          "velocity": 100
        },
        {
          "pitch": 62,
          "onset": 11.5,
          "duration": 0.5,
          "velocity": 100
        },
        {
          "pitch": 62,
          "onset": 12.0,
          "duration": 0.75,
          "velocity": 100
        },
        {
          "pitch": 62,
          "onset": 12.75,
          "duration": 0.25,
          "velocity": 100
        },
        {
          "pitch": 60,
          "onset": 13.0,
          "duration": 0.5,
          "velocity": 100
        },
        {
          "pitch": 60,
          "onset": 13.5,
          "duration": 1.0,
          "velocity": 100
        },
        {
          "pitch": 67,
          "onset": 14.5,
          "duration": 0.5,
          "velocity": 100
        },
        {
          "pitch": 60,
          "onset": 15.0,
          "duration": 0.5,
          "velocity": 100
        },
        {
          "pitch": 59,
          "onset": 15.5,
          "duration": 0.5,
          "velocity": 100
        },
        {
          "pitch": 67,
          "onset": 16.0,
          "duration": 0.5,
          "velocity": 100
        },
        {
          "pitch": 62,
          "onset": 16.5,
          "duration": 0.5,
          "velocity": 100
        },
        {
          "pitch": 60,
          "onset": 17.0,
          "duration": 0.5,
          "velocity": 100
        },
        {
          "pitch": 67,
          "onset": 17.5,
          "duration": 0.5,
          "velocity": 100
        },
        {
          "pitch": 63,
          "onset": 18.0,
          "duration": 0.5,
          "velocity": 100
        },
        {
          "pitch": 62,
          "onset": 18.5,
          "duration": 0.5,
          "velocity": 100
        },
        {
          "pitch": 67,
          "onset": 19.0,
          "duration": 0.5,
          "velocity": 100
        },
        {
          "pitch": 65,
          "onset": 19.5,
          "duration": 0.5,
          "velocity": 100
        },
        {
          "pitch": 63,
          "onset": 20.0,
          "duration": 0.5,
          "velocity": 100
        },
        {
          "pitch": 67,
          "onset": 20.5,
          "duration": 0.5,
          "velocity": 100
        },
        {
          "pitch": 72,
          "onset": 21.0,
          "duration": 0.75,
          "velocity": 100
        },
        {
          "pitch": 71,
          "onset": 21.75,
          "duration": 0.25,
          "velocity": 100
        },
        {
          "pitch": 72,
          "onset": 22.0,
          "duration": 0.5,
          "velocity": 100
        },
        {
          "pitch": 74,
          "onset": 22.5,
          "duration": 0.75,
          "velocity": 100
        },
        {
          "pitch": 75,
          "onset": 23.25,
          "duration": 0.25,
          "velocity": 100
        },
        {
          "pitch": 72,
          "onset": 23.5,
          "duration": 0.5,
          "velocity": 100
        },
        {
          "pitch": 72,
          "onset": 24.0,
          "duration": 2.5,
          "velocity": 100
        },
        {
          "pitch": 74,
          "onset": 26.5,
          "duration": 0.5,
          "velocity": 100
        },
        {
          "pitch": 74,
          "onset": 27.0,
          "duration": 0.5,
          "velocity": 100
        },
        {
          "pitch": 75,
          "onset": 27.5,
          "duration": 0.5,
          "velocity": 100
        },
        {
          "pitch": 71,
          "onset": 28.0,
          "duration": 0.5,
          "velocity": 100
        },
        {
          "pitch": 71,
          "onset": 28.5,
          "duration": 0.5,
          "velocity": 100
        },
        {
          "pitch": 72,
          "onset": 29.0,
          "duration": 0.5,
          "velocity": 100
        },
        {
          "pitch": 67,
          "onset": 29.5,
          "duration": 0.5,
          "velocity": 100
        },
        {
          "pitch": 67,
          "onset": 30.0,
          "duration": 0.5,
          "velocity": 100
        },
        {
          "pitch": 68,
          "onset": 30.5,
          "duration": 0.5,
          "velocity": 100
        },
        {
          "pitch": 64,
          "onset": 31.0,
          "duration": 0.5,
          "velocity": 100
        },
        {
          "pitch": 64,
          "onset": 31.5,
          "duration": 0.5,
          "velocity": 100
        },
        {
          "pitch": 65,
          "onset": 32.0,
          "duration": 0.5,
          "velocity": 100
        },
        {
          "pitch": 72,
          "onset": 32.5,
          "duration": 0.5,
          "velocity": 100
        },
        {
          "pitch": 72,
          "onset": 33.0,
          "duration": 0.5,
          "velocity": 100
        },
        {
          "pitch": 74,
          "onset": 33.5,
          "duration": 0.5,
          "velocity": 100
        },
        {
          "pitch": 69,
          "onset": 34.0,
          "duration": 0.5,
          "velocity": 100
        },
        {
          "pitch": 69,
          "onset": 34.5,
          "duration": 0.5,
          "velocity": 100
        },
        {
          "pitch": 70,
          "onset": 35.0,
          "duration": 0.5,
          "velocity": 100
        },
        {
          "pitch": 66,
          "onset": 35.5,
          "duration": 0.5,
          "velocity": 100
        },
        {
          "pitch": 66,
          "onset": 36.0,
          "duration": 0.5,
          "velocity": 100
        },
        {
          "pitch": 67,
          "onset": 36.5,
          "duration": 0.5,
          "velocity": 100
        },
        {
          "pitch": 62,
          "onset": 37.0,
          "duration": 0.5,
          "velocity": 100
        },
        {
          "pitch": 62,
          "onset": 37.5,
          "duration": 0.5,
          "velocity": 100
        },
        {
          "pitch": 63,
          "onset": 38.0,
          "duration": 0.5,
          "velocity": 100
        },
        {
          "pitch": 71,
          "onset": 38.5,
          "duration": 0.5,
          "velocity": 100
        },
        {
          "pitch": 71,
          "onset": 39.0,
          "duration": 0.5,
          "velocity": 100
        },
        {
          "pitch": 72,
          "onset": 39.5,
          "duration": 0.5,
          "velocity": 100
        },
        {
          "pitch": 67,
          "onset": 40.0,
          "duration": 0.5,
          "velocity": 100
        },
        {
          "pitch": 67,
          "onset": 40.5,
          "duration": 0.5,
          "velocity": 100
        },
        {
          "pitch": 68,
          "onset": 41.0,
          "duration": 0.5,
          "velocity": 100
        },
        {
          "pitch": 74,
          "onset": 41.5,
          "duration": 0.5,
          "velocity": 100
        },
        {
          "pitch": 74,
          "onset": 42.0,
          "duration": 0.5,
          "velocity": 100
        },
        {
          "pitch": 75,
          "onset": 42.5,
          "duration": 0.5,
          "velocity": 100
        },
        {
          "pitch": 67,
          "onset": 43.0,
          "duration": 0.5,
          "velocity": 100
        },
        {
          "pitch": 67,
          "onset": 43.5,
          "duration": 0.5,
          "velocity": 100
        },
        {
          "pitch": 66,
          "onset": 44.0,
          "duration": 0.5,
          "velocity": 100
        },
        {
          "pitch": 72,
          "onset": 44.5,
          "duration": 0.125,
          "velocity": 100
        },
        {
          "pitch": 74,
          "onset": 44.625,
          "duration": 0.125,
          "velocity": 100
        },
        {
          "pitch": 75,
          "onset": 44.75,
          "duration": 0.25,
          "velocity": 100
        },
        {
          "pitch": 74,
          "onset": 45.0,
          "duration": 0.75,
          "velocity": 100
        },
        {
          "pitch": 66,
          "onset": 45.75,
          "duration": 0.25,
          "velocity": 100
        },
        {
          "pitch": 67,
          "onset": 46.0,
          "duration": 0.5,
          "velocity": 100
        },
        {
          "pitch": 69,
          "onset": 46.5,
          "duration": 0.25,
          "velocity": 100
        },
        {
          "pitch": 70,
          "onset": 46.75,
          "duration": 0.25,
          "velocity": 100
        },
        {
          "pitch": 72,
          "onset": 47.0,
          "duration": 0.25,
          "velocity": 100
        },
        {
          "pitch": 70,
          "onset": 47.25,
          "duration": 0.25,
          "velocity": 100
        },
        {
          "pitch": 69,
          "onset": 47.5,
          "duration": 0.5,
          "velocity": 100
        },
        {
          "pitch": 69,
          "onset": 48.0,
          "duration": 2.0,
          "velocity": 100
        },
        {
          "pitch": 80,
          "onset": 50.25,
          "duration": 0.25,
          "velocity": 100
        },
        {
          "pitch": 79,
          "onset": 50.5,
          "duration": 0.25,
          "velocity": 100
        },
        {
          "pitch": 77,
          "onset": 50.75,
          "duration": 0.25,
          "velocity": 100
        },
        {
          "pitch": 75,
          "onset": 51.0,
          "duration": 0.5,
          "velocity": 100
        },
        {
          "pitch": 79,
          "onset": 51.25,
          "duration": 0.5,
          "velocity": 100
        },
        {
          "pitch": 75,
          "onset": 51.5,
          "duration": 0.25,
          "velocity": 100
        },
        {
          "pitch": 72,
          "onset": 51.75,
          "duration": 0.25,
          "velocity": 100
        },
        {
          "pitch": 71,
          "onset": 52.0,
          "duration": 0.25,
          "velocity": 100
        },
        {
          "pitch": 72,
          "onset": 52.25,
          "duration": 0.25,
          "velocity": 100
        },
        {
          "pitch": 75,
          "onset": 52.5,
          "duration": 0.5,
          "velocity": 100
        },
        {
          "pitch": 79,
          "onset": 52.75,
          "duration": 0.5,
          "velocity": 100
        },
        {
          "pitch": 75,
          "onset": 53.0,
          "duration": 0.25,
          "velocity": 100
        },
        {
          "pitch": 72,
          "onset": 53.25,
          "duration": 0.25,
          "velocity": 100
        },
        {
          "pitch": 71,
          "onset": 53.5,
          "duration": 0.25,
          "velocity": 100
        },
        {
          "pitch": 72,
          "onset": 53.75,
          "duration": 0.25,
          "velocity": 100
        },
        {
          "pitch": 75,
          "onset": 54.0,
          "duration": 0.5,
          "velocity": 100
        },
        {
          "pitch": 79,
          "onset": 54.25,
          "duration": 0.5,
          "velocity": 100
        },
        {
          "pitch": 75,
          "onset": 54.5,
          "duration": 0.25,
          "velocity": 100
        },
        {
          "pitch": 72,
          "onset": 54.75,
          "duration": 0.25,
          "velocity": 100
        },
        {
          "pitch": 71,
          "onset": 55.0,
          "duration": 0.25,
          "velocity": 100
        },
        {
          "pitch": 72,
          "onset": 55.25,
          "duration": 0.25,
          "velocity": 100
        },
        {
          "pitch": 84,
          "onset": 55.5,
          "duration": 0.75,
          "velocity": 100
        },
        {
          "pitch": 72,
          "onset": 56.25,
          "duration": 0.5,
          "velocity": 100
        },
        {
          "pitch": 75,
          "onset": 56.5,
          "duration": 0.5,
          "velocity": 100
        },
        {
          "pitch": 79,
          "onset": 56.75,
          "duration": 0.25,
          "velocity": 100
        },
        {
          "pitch": 80,
          "onset": 57.0,
          "duration": 0.25,
          "velocity": 100
        },
        {
          "pitch": 79,
          "onset": 57.25,
          "duration": 0.25,
          "velocity": 100
        },
        {
          "pitch": 77,
          "onset": 57.5,
          "duration": 0.25,
          "velocity": 100
        },
        {
          "pitch": 75,
          "onset": 57.75,
          "duration": 0.25,
          "velocity": 100
        },
        {
          "pitch": 74,
          "onset": 58.0,
          "duration": 0.25,
          "velocity": 100
        },
        {
          "pitch": 72,
          "onset": 58.25,
          "duration": 0.25,
          "velocity": 100
        },
        {
          "pitch": 71,
          "onset": 58.5,
          "duration": 0.5,
          "velocity": 100
        },
        {
          "pitch": 80,
          "onset": 58.75,
          "duration": 0.25,
          "velocity": 100
        },
        {
          "pitch": 79,
          "onset": 59.0,
          "duration": 0.25,
          "velocity": 100
        },
        {
          "pitch": 77,
          "onset": 59.25,
          "duration": 0.25,
          "velocity": 100
        },
        {
          "pitch": 75,
          "onset": 59.5,
          "duration": 0.25,
          "velocity": 100
        },
        {
          "pitch": 74,
          "onset": 59.75,
          "duration": 0.25,
          "velocity": 100
        },
        {
          "pitch": 75,
          "onset": 60.0,
          "duration": 0.25,
          "velocity": 100
        },
        {
          "pitch": 74,
          "onset": 60.25,
          "duration": 0.25,
          "velocity": 100
        },
        {
          "pitch": 72,
          "onset": 60.5,
          "duration": 0.25,
          "velocity": 100
        },
        {
          "pitch": 71,
          "onset": 60.75,
          "duration": 0.25,
          "velocity": 100
        },
        {
          "pitch": 72,
          "onset": 61.0,
          "duration": 0.25,
          "velocity": 100
        },
        {
          "pitch": 67,
          "onset": 61.25,
          "duration": 0.25,
          "velocity": 100
        },
        {
          "pitch": 63,
          "onset": 61.5,
          "duration": 0.25,
          "velocity": 100
        },
        {
          "pitch": 67,
          "onset": 61.75,
          "duration": 0.25,
          "velocity": 100
        },
        {
          "pitch": 65,
          "onset": 62.0,
          "duration": 0.25,
          "velocity": 100
        },
        {
          "pitch": 63,
          "onset": 62.25,
          "duration": 0.25,
          "velocity": 100
        },
        {
          "pitch": 62,
          "onset": 62.5,
          "duration": 0.25,
          "velocity": 100
        },
        {
          "pitch": 60,
          "onset": 62.75,
          "duration": 0.25,
          "velocity": 100
        },
        {
          "pitch": 71,
          "onset": 63.75,
          "duration": 0.5,
          "velocity": 100
        },
        {
          "pitch": 78,
          "onset": 64.0,
          "duration": 0.5,
          "velocity": 100
        },
        {
          "pitch": 79,
          "onset": 64.25,
          "duration": 0.5,
          "velocity": 100
        },
        {
          "pitch": 72,
          "onset": 65.25,
          "duration": 0.5,
          "velocity": 100
        },
        {
          "pitch": 78,
          "onset": 65.5,
          "duration": 0.5,
          "velocity": 100
        },
        {
          "pitch": 79,
          "onset": 65.75,
          "duration": 0.25,
          "velocity": 100
        },
        {
          "pitch": 67,
          "onset": 66.75,
          "duration": 0.5,
          "velocity": 100
        },
        {
          "pitch": 74,
          "onset": 67.0,
          "duration": 0.5,
          "velocity": 100
        },
        {
          "pitch": 77,
          "onset": 67.25,
          "duration": 0.25,
          "velocity": 100
        },
        {
          "pitch": 75,
          "onset": 67.5,
          "duration": 0.25,
          "velocity": 100
        },
        {
          "pitch": 74,
          "onset": 67.75,
          "duration": 0.25,
          "velocity": 100
        },
        {
          "pitch": 72,
          "onset": 68.0,
          "duration": 0.25,
          "velocity": 100
        },
        {
          "pitch": 71,
          "onset": 68.25,
          "duration": 0.25,
          "velocity": 100
        },
        {
          "pitch": 72,
          "onset": 68.5,
          "duration": 0.25,
          "velocity": 100
        },
        {
          "pitch": 75,
          "onset": 68.75,
          "duration": 0.25,
          "velocity": 100
        },
        {
          "pitch": 65,
          "onset": 69.0,
          "duration": 0.5,
          "velocity": 100
        },
        {
          "pitch": 75,
          "onset": 69.25,
          "duration": 0.25,
          "velocity": 100
        },
        {
          "pitch": 74,
          "onset": 69.5,
          "duration": 0.25,
          "velocity": 100
        },
        {
          "pitch": 72,
          "onset": 69.75,
          "duration": 0.25,
          "velocity": 100
        },
        {
          "pitch": 74,
          "onset": 70.0,
          "duration": 0.25,
          "velocity": 100
        },
        {
          "pitch": 77,
          "onset": 70.25,
          "duration": 0.25,
          "velocity": 100
        },
        {
          "pitch": 80,
          "onset": 70.5,
          "duration": 0.25,
          "velocity": 100
        },
        {
          "pitch": 79,
          "onset": 70.75,
          "duration": 0.25,
          "velocity": 100
        },
        {
          "pitch": 77,
          "onset": 71.0,
          "duration": 0.25,
          "velocity": 100
        },
        {
          "pitch": 75,
          "onset": 71.25,
          "duration": 0.25,
          "velocity": 100
        },
        {
          "pitch": 74,
          "onset": 71.5,
          "duration": 0.25,
          "velocity": 100
        },
        {
          "pitch": 72,
          "onset": 71.75,
          "duration": 0.25,
          "velocity": 100
        },
        {
          "pitch": 71,
          "onset": 72.0,
          "duration": 0.5,
          "velocity": 100
        },
        {
          "pitch": 67,
          "onset": 73.0,
          "duration": 0.5,
          "velocity": 100
        },
        {
          "pitch": 71,
          "onset": 73.25,
          "duration": 0.5,
          "velocity": 100
        },
        {
          "pitch": 74,
          "onset": 73.5,
          "duration": 0.5,
          "velocity": 100
        },
        {
          "pitch": 77,
          "onset": 73.75,
          "duration": 0.5,
          "velocity": 100
        },
        {
          "pitch": 79,
          "onset": 74.0,
          "duration": 0.5,
          "velocity": 100
        },
        {
          "pitch": 83,
          "onset": 74.25,
          "duration": 0.5,
          "velocity": 100
        },
        {
          "pitch": 86,
          "onset": 74.5,
          "duration": 0.5,
          "velocity": 100
        },
        {
          "pitch": 89,
          "onset": 74.75,
          "duration": 0.25,
          "velocity": 100
        },
        {
          "pitch": 87,
          "onset": 75.0,
          "duration": 0.25,
          "velocity": 100
        },
        {
          "pitch": 86,
          "onset": 75.25,
          "duration": 0.25,
          "velocity": 100
        },
        {
          "pitch": 84,
          "onset": 75.5,
          "duration": 0.25,
          "velocity": 100
        },
        {
          "pitch": 83,
          "onset": 75.75,
          "duration": 0.25,
          "velocity": 100
        },
        {
          "pitch": 84,
          "onset": 76.0,
          "duration": 0.25,
          "velocity": 100
        },
        {
          "pitch": 87,
          "onset": 76.25,
          "duration": 0.5,
          "velocity": 100
        },
        {
          "pitch": 79,
          "onset": 76.5,
          "duration": 0.25,
          "velocity": 100
        },
        {
          "pitch": 80,
          "onset": 76.75,
          "duration": 0.25,
          "velocity": 100
        },
        {
          "pitch": 82,
          "onset": 77.0,
          "duration": 0.25,
          "velocity": 100
        },
        {
          "pitch": 85,
          "onset": 77.25,
          "duration": 0.25,
          "velocity": 100
        },
        {
          "pitch": 84,
          "onset": 77.5,
          "duration": 0.25,
          "velocity": 100
        },
        {
          "pitch": 82,
          "onset": 77.75,
          "duration": 0.25,
          "velocity": 100
        },
        {
          "pitch": 80,
          "onset": 78.0,
          "duration": 0.25,
          "velocity": 100
        },
        {
          "pitch": 79,
          "onset": 78.25,
          "duration": 0.25,
          "velocity": 100
        },
        {
          "pitch": 77,
          "onset": 78.5,
          "duration": 0.25,
          "velocity": 100
        },
        {
          "pitch": 76,
          "onset": 78.75,
          "duration": 0.25,
          "velocity": 100
        },
        {
          "pitch": 77,
          "onset": 79.0,
          "duration": 0.25,
          "velocity": 100
        },
        {
          "pitch": 80,
          "onset": 79.25,
          "duration": 0.5,
          "velocity": 100
        },
        {
          "pitch": 72,
          "onset": 79.5,
          "duration": 0.25,
          "velocity": 100
        },
        {
          "pitch": 74,
          "onset": 79.75,
          "duration": 0.25,
          "velocity": 100
        },
        {
          "pitch": 75,
          "onset": 80.0,
          "duration": 0.25,
          "velocity": 100
        },
        {
          "pitch": 79,
          "onset": 80.25,
          "duration": 0.25,
          "velocity": 100
        },
        {
          "pitch": 77,
          "onset": 80.5,
          "duration": 0.25,
          "velocity": 100
        },
        {
          "pitch": 75,
          "onset": 80.75,
          "duration": 0.25,
          "velocity": 100
        },
        {
          "pitch": 74,
          "onset": 81.0,
          "duration": 0.25,
          "velocity": 100
        },
        {
          "pitch": 72,
          "onset": 81.25,
          "duration": 0.25,
          "velocity": 100
        },
        {
          "pitch": 70,
          "onset": 81.5,
          "duration": 0.25,
          "velocity": 100
        },
        {
          "pitch": 69,
          "onset": 81.75,
          "duration": 0.25,
          "velocity": 100
        },
        {
          "pitch": 70,
          "onset": 82.0,
          "duration": 0.25,
          "velocity": 100
        },
        {
          "pitch": 74,
          "onset": 82.25,
          "duration": 0.25,
          "velocity": 100
        },
        {
          "pitch": 65,
          "onset": 82.5,
          "duration": 0.25,
          "velocity": 100
        },
        {
          "pitch": 67,
          "onset": 82.75,
          "duration": 0.25,
          "velocity": 100
        },
        {
          "pitch": 68,
          "onset": 83.0,
          "duration": 0.25,
          "velocity": 100
        },
        {
          "pitch": 72,
          "onset": 83.25,
          "duration": 0.25,
          "velocity": 100
        },
        {
          "pitch": 70,
          "onset": 83.5,
          "duration": 0.25,
          "velocity": 100
        },
        {
          "pitch": 68,
          "onset": 83.75,
          "duration": 0.25,
          "velocity": 100
        },
        {
          "pitch": 67,
          "onset": 84.0,
          "duration": 0.25,
          "velocity": 100
        },
        {
          "pitch": 65,
          "onset": 84.25,
          "duration": 0.25,
          "velocity": 100
        },
        {
          "pitch": 63,
          "onset": 84.5,
          "duration": 0.25,
          "velocity": 100
        },
        {
          "pitch": 62,
          "onset": 84.75,
          "duration": 0.25,
          "velocity": 100
        },
        {
          "pitch": 63,
          "onset": 85.0,
          "duration": 0.25,
          "velocity": 100
        },
        {
          "pitch": 67,
          "onset": 85.25,
          "duration": 0.25,
          "velocity": 100
        },
        {
          "pitch": 59,
          "onset": 85.5,
          "duration": 0.25,
          "velocity": 100
        },
        {
          "pitch": 60,
          "onset": 85.75,
          "duration": 0.25,
          "velocity": 100
        },
        {
          "pitch": 62,
          "onset": 86.0,
          "duration": 0.25,
          "velocity": 100
        },
        {
          "pitch": 65,
          "onset": 86.25,
          "duration": 0.25,
          "velocity": 100
        },
        {
          "pitch": 63,
          "onset": 86.5,
          "duration": 0.25,
          "velocity": 100
        },
        {
          "pitch": 62,
          "onset": 86.75,
          "duration": 0.25,
          "velocity": 100
        },
        {
          "pitch": 62,
          "onset": 87.75,
          "duration": 0.25,
          "velocity": 100
        },
        {
          "pitch": 63,
          "onset": 88.0,
          "duration": 0.25,
          "velocity": 100
        },
        {
          "pitch": 66,
          "onset": 88.25,
          "duration": 0.25,
          "velocity": 100
        },
        {
          "pitch": 63,
          "onset": 89.25,
          "duration": 0.25,
          "velocity": 100
        },
        {
          "pitch": 66,
          "onset": 89.5,
          "duration": 0.25,
          "velocity": 100
        },
        {
          "pitch": 67,
          "onset": 89.75,
          "duration": 0.25,
          "velocity": 100
        },
        {
          "pitch": 63,
          "onset": 90.75,
          "duration": 0.5,
          "velocity": 100
        },
        {
          "pitch": 69,
          "onset": 91.0,
          "duration": 0.25,
          "velocity": 100
        },
        {
          "pitch": 70,
          "onset": 91.25,
          "duration": 0.25,
          "velocity": 100
        },
        {
          "pitch": 72,
          "onset": 91.5,
          "duration": 0.5,
          "velocity": 100
        },
        {
          "pitch": 69,
          "onset": 91.75,
          "duration": 0.5,
          "velocity": 100
        },
        {
          "pitch": 66,
          "onset": 92.0,
          "duration": 0.25,
          "velocity": 100
        },
        {
          "pitch": 63,
          "onset": 92.25,
          "duration": 0.25,
          "velocity": 100
        },
        {
          "pitch": 62,
          "onset": 92.5,
          "duration": 0.25,
          "velocity": 100
        },
        {
          "pitch": 60,
          "onset": 92.75,
          "duration": 0.25,
          "velocity": 100
        },
        {
          "pitch": 74,
          "onset": 93.25,
          "duration": 0.25,
          "velocity": 100
        },
        {
          "pitch": 72,
          "onset": 93.5,
          "duration": 0.25,
          "velocity": 100
        },
        {
          "pitch": 70,
          "onset": 93.75,
          "duration": 0.25,
          "velocity": 100
        },
        {
          "pitch": 69,
          "onset": 94.0,
          "duration": 0.25,
          "velocity": 100
        },
        {
          "pitch": 67,
          "onset": 94.25,
          "duration": 0.25,
          "velocity": 100
        },
        {
          "pitch": 72,
          "onset": 94.75,
          "duration": 0.25,
          "velocity": 100
        },
        {
          "pitch": 70,
          "onset": 95.0,
          "duration": 0.25,
          "velocity": 100
        },
        {
          "pitch": 69,
          "onset": 95.25,
          "duration": 0.25,
          "velocity": 100
        },
        {
          "pitch": 67,
          "onset": 95.5,
          "duration": 0.25,
          "velocity": 100
        },
        {
          "pitch": 66,
          "onset": 95.75,
          "duration": 0.25,
          "velocity": 100
        },
        {
          "pitch": 67,
          "onset": 96.0,
          "duration": 0.75,
          "velocity": 100
        },
        {
          "pitch": 62,
          "onset": 96.25,
          "duration": 0.75,
          "velocity": 100
        },
        {
          "pitch": 59,
          "onset": 96.5,
          "duration": 0.75,
          "velocity": 100
        },
        {
          "pitch": 74,
          "onset": 98.5,
          "duration": 0.5,
          "velocity": 100
        },
        {
          "pitch": 72,
          "onset": 99.0,
          "duration": 0.5,
          "velocity": 100
        },
        {
          "pitch": 71,
          "onset": 99.5,
          "duration": 0.5,
          "velocity": 100
        },
        {
          "pitch": 74,
          "onset": 100.0,
          "duration": 0.5,
          "velocity": 100
        },
        {
          "pitch": 68,
          "onset": 100.5,
          "duration": 0.5,
          "velocity": 100
        },
        {
          "pitch": 67,
          "onset": 101.0,
          "duration": 0.5,
          "velocity": 100
        },
        {
          "pitch": 74,
          "onset": 101.5,
          "duration": 0.5,
          "velocity": 100
        },
        {
          "pitch": 65,
          "onset": 102.0,
          "duration": 0.5,
          "velocity": 100
        },
        {
          "pitch": 64,
          "onset": 102.5,
          "duration": 0.5,
          "velocity": 100
        },
        {
          "pitch": 70,
          "onset": 103.0,
          "duration": 0.5,
          "velocity": 100
        },
        {
          "pitch": 62,
          "onset": 103.5,
          "duration": 0.5,
          "velocity": 100
        },
        {
          "pitch": 60,
          "onset": 104.0,
          "duration": 0.5,
          "velocity": 100
        },
        {
          "pitch": 70,
          "onset": 104.5,
          "duration": 0.25,
          "velocity": 100
        },
        {
          "pitch": 72,
          "onset": 104.625,
          "duration": 0.25,
          "velocity": 100
        },
        {
          "pitch": 73,
          "onset": 104.75,
          "duration": 0.25,
          "velocity": 100
        },
        {
          "pitch": 72,
          "onset": 105.0,
          "duration": 0.75,
          "velocity": 100
        },
        {
          "pitch": 64,
          "onset": 105.75,
          "duration": 0.25,
          "velocity": 100
        },
        {
          "pitch": 65,
          "onset": 106.0,
          "duration": 0.5,
          "velocity": 100
        },
        {
          "pitch": 67,
          "onset": 106.5,
          "duration": 0.25,
          "velocity": 100
        },
        {
          "pitch": 68,
          "onset": 106.75,
          "duration": 0.25,
          "velocity": 100
        },
        {
          "pitch": 70,
          "onset": 107.0,
          "duration": 0.25,
          "velocity": 100
        },
        {
          "pitch": 68,
          "onset": 107.25,
          "duration": 0.25,
          "velocity": 100
        },
        {
          "pitch": 67,
          "onset": 107.5,
          "duration": 0.5,
          "velocity": 100
        },
        {
          "pitch": 70,
          "onset": 108.0,
          "duration": 0.75,
          "velocity": 100
        },
        {
          "pitch": 67,
          "onset": 108.75,
          "duration": 0.25,
          "velocity": 100
        },
        {
          "pitch": 68,
          "onset": 109.0,
          "duration": 0.5,
          "velocity": 100
        },
        {
          "pitch": 65,
          "onset": 109.5,
          "duration": 1.0,
          "velocity": 100
        },
        {
          "pitch": 68,
          "onset": 110.5,
          "duration": 0.5,
          "velocity": 100
        },
        {
          "pitch": 63,
          "onset": 111.0,
          "duration": 0.5,
          "velocity": 100
        },
        {
          "pitch": 62,
          "onset": 111.5,
          "duration": 0.5,
          "velocity": 100
        },
        {
          "pitch": 68,
          "onset": 112.0,
          "duration": 0.5,
          "velocity": 100
        },
        {
          "pitch": 60,
          "onset": 112.5,
          "duration": 0.5,
          "velocity": 100
        },
        {
          "pitch": 58,
          "onset": 113.0,
          "duration": 0.5,
          "velocity": 100
        },
        {
          "pitch": 68,
          "onset": 113.5,
          "duration": 0.5,
          "velocity": 100
        },
        {
          "pitch": 68,
          "onset": 114.0,
          "duration": 0.5,
          "velocity": 100
        },
        {
          "pitch": 67,
          "onset": 114.5,
          "duration": 0.5,
          "velocity": 100
        },
        {
          "pitch": 73,
          "onset": 115.0,
          "duration": 0.5,
          "velocity": 100
        },
        {
          "pitch": 73,
          "onset": 115.5,
          "duration": 0.5,
          "velocity": 100
        },
        {
          "pitch": 72,
          "onset": 116.0,
          "duration": 0.5,
          "velocity": 100
        },
        {
          "pitch": 63,
          "onset": 116.5,
          "duration": 0.5,
          "velocity": 100
        },
        {
          "pitch": 62,
          "onset": 117.0,
          "duration": 0.25,
          "velocity": 100
        },
        {
          "pitch": 63,
          "onset": 117.25,
          "duration": 0.25,
          "velocity": 100
        },
        {
          "pitch": 65,
          "onset": 117.5,
          "duration": 0.25,
          "velocity": 100
        },
        {
          "pitch": 67,
          "onset": 117.75,
          "duration": 0.25,
          "velocity": 100
        },
        {
          "pitch": 68,
          "onset": 118.0,
          "duration": 0.75,
          "velocity": 100
        },
        {
          "pitch": 67,
          "onset": 118.75,
          "duration": 0.25,
          "velocity": 100
        },
        {
          "pitch": 65,
          "onset": 119.0,
          "duration": 0.25,
          "velocity": 100
        },
        {
          "pitch": 63,
          "onset": 119.25,
          "duration": 0.25,
          "velocity": 100
        },
        {
          "pitch": 69,
          "onset": 119.5,
          "duration": 0.5,
          "velocity": 100
        },
        {
          "pitch": 69,
          "onset": 120.0,
          "duration": 2.5,
          "velocity": 100
        },
        {
          "pitch": 58,
          "onset": 122.5,
          "duration": 0.5,
          "velocity": 100
        },
        {
          "pitch": 65,
          "onset": 123.0,
          "duration": 0.5,
          "velocity": 100
        },
        {
          "pitch": 63,
          "onset": 123.5,
          "duration": 1.0,
          "velocity": 100
        },
        {
          "pitch": 67,
          "onset": 124.5,
          "duration": 0.5,
          "velocity": 100
        },
        {
          "pitch": 65,
          "onset": 125.0,
          "duration": 1.0,
          "velocity": 100
        },
        {
          "pitch": 68,
          "onset": 126.0,
          "duration": 0.5,
          "velocity": 100
        },
        {
          "pitch": 67,
          "onset": 126.5,
          "duration": 1.0,
          "velocity": 100
        },
        {
          "pitch": 70,
          "onset": 127.5,
          "duration": 0.5,
          "velocity": 100
        },
        {
          "pitch": 68,
          "onset": 128.0,
          "duration": 1.0,
          "velocity": 100
        },
        {
          "pitch": 70,
          "onset": 129.0,
          "duration": 0.25,
          "velocity": 100
        },
        {
          "pitch": 68,
          "onset": 129.25,
          "duration": 0.25,
          "velocity": 100
        },
        {
          "pitch": 67,
          "onset": 129.5,
          "duration": 0.25,
          "velocity": 100
        },
        {
          "pitch": 68,
          "onset": 129.75,
          "duration": 0.25,
          "velocity": 100
        },
        {
          "pitch": 70,
          "onset": 130.0,
          "duration": 0.5,
          "velocity": 100
        },
        {
          "pitch": 61,
          "onset": 130.5,
          "duration": 0.5,
          "velocity": 100
        },
        {
          "pitch": 60,
          "onset": 131.0,
          "duration": 0.5,
          "velocity": 100
        },
        {
          "pitch": 72,
          "onset": 131.5,
          "duration": 0.5,
          "velocity": 100
        },
        {
          "pitch": 74,
          "onset": 132.0,
          "duration": 0.25,
          "velocity": 100
        },
        {
          "pitch": 72,
          "onset": 132.25,
          "duration": 0.25,
          "velocity": 100
        },
        {
          "pitch": 71,
          "onset": 132.5,
          "duration": 0.25,
          "velocity": 100
        },
        {
          "pitch": 72,
          "onset": 132.75,
          "duration": 0.25,
          "velocity": 100
        },
        {
          "pitch": 74,
          "onset": 133.0,
          "duration": 0.5,
          "velocity": 100
        },
        {
          "pitch": 65,
          "onset": 133.5,
          "duration": 0.5,
          "velocity": 100
        },
        {
          "pitch": 63,
          "onset": 134.0,
          "duration": 0.5,
          "velocity": 100
        },
        {
          "pitch": 75,
          "onset": 134.5,
          "duration": 0.5,
          "velocity": 100
        },
        {
          "pitch": 70,
          "onset": 135.0,
          "duration": 0.5,
          "velocity": 100
        },
        {
          "pitch": 69,
          "onset": 135.5,
          "duration": 0.5,
          "velocity": 100
        },
        {
          "pitch": 72,
          "onset": 136.0,
          "duration": 0.5,
          "velocity": 100
        },
        {
          "pitch": 66,
          "onset": 136.5,
          "duration": 0.5,
          "velocity": 100
        },
        {
          "pitch": 65,
          "onset": 137.0,
          "duration": 0.5,
          "velocity": 100
        },
        {
          "pitch": 72,
          "onset": 137.5,
          "duration": 0.5,
          "velocity": 100
        },
        {
          "pitch": 63,
          "onset": 138.0,
          "duration": 0.5,
          "velocity": 100
        },
        {
          "pitch": 62,
          "onset": 138.5,
          "duration": 0.5,
          "velocity": 100
        },
        {
          "pitch": 68,
          "onset": 139.0,
          "duration": 0.5,
          "velocity": 100
        },
        {
          "pitch": 59,
          "onset": 139.5,
          "duration": 0.5,
          "velocity": 100
        },
        {
          "pitch": 58,
          "onset": 140.0,
          "duration": 0.5,
          "velocity": 100
        },
        {
          "pitch": 65,
          "onset": 140.5,
          "duration": 0.25,
          "velocity": 100
        },
        {
          "pitch": 67,
          "onset": 140.625,
          "duration": 0.25,
          "velocity": 100
        },
        {
          "pitch": 68,
          "onset": 140.75,
          "duration": 0.25,
          "velocity": 100
        },
        {
          "pitch": 67,
          "onset": 141.0,
          "duration": 0.75,
          "velocity": 100
        },
        {
          "pitch": 72,
          "onset": 141.75,
          "duration": 0.25,
          "velocity": 100
        },
        {
          "pitch": 70,
          "onset": 142.0,
          "duration": 0.5,
          "velocity": 100
        },
        {
          "pitch": 67,
          "onset": 142.5,
          "duration": 0.75,
          "velocity": 100
        },
        {
          "pitch": 65,
          "onset": 143.25,
          "duration": 0.25,
          "velocity": 100
        },
        {
          "pitch": 63,
          "onset": 143.5,
          "duration": 0.5,
          "velocity": 100
        },
        {
          "pitch": 63,
          "onset": 144.0,
          "duration": 2.5,
          "velocity": 100
        },
        {
          "pitch": 75,
          "onset": 146.5,
          "duration": 0.5,
          "velocity": 100
        },
        {
          "pitch": 71,
          "onset": 147.0,
          "duration": 0.5,
          "velocity": 100
        },
        {
          "pitch": 72,
          "onset": 147.5,
          "duration": 0.5,
          "velocity": 100
        },
        {
          "pitch": 67,
          "onset": 148.0,
          "duration": 0.5,
          "velocity": 100
        },
        {
          "pitch": 67,
          "onset": 148.5,
          "duration": 0.5,
          "velocity": 100
        },
        {
          "pitch": 68,
          "onset": 149.0,
          "duration": 0.5,
          "velocity": 100
        },
        {
          "pitch": 70,
          "onset": 149.5,
          "duration": 0.5,
          "velocity": 100
        },
        {
          "pitch": 64,
          "onset": 150.0,
          "duration": 0.5,
          "velocity": 100
        },
        {
          "pitch": 65,
          "onset": 150.5,
          "duration": 0.5,
          "velocity": 100
        },
        {
          "pitch": 60,
          "onset": 151.0,
          "duration": 0.5,
          "velocity": 100
        },
        {
          "pitch": 60,
          "onset": 151.5,
          "duration": 0.5,
          "velocity": 100
        },
        {
          "pitch": 61,
          "onset": 152.0,
          "duration": 0.5,
          "velocity": 100
        },
        {
          "pitch": 65,
          "onset": 152.5,
          "duration": 0.5,
          "velocity": 100
        },
        {
          "pitch": 59,
          "onset": 153.0,
          "duration": 0.25,
          "velocity": 100
        },
        {
          "pitch": 60,
          "onset": 153.25,
          "duration": 0.25,
          "velocity": 100
        },
        {
          "pitch": 62,
          "onset": 153.5,
          "duration": 0.25,
          "velocity": 100
        },
        {
          "pitch": 65,
          "onset": 153.75,
          "duration": 0.25,
          "velocity": 100
        },
        {
          "pitch": 63,
          "onset": 154.0,
          "duration": 0.25,
          "velocity": 100
        },
        {
          "pitch": 62,
          "onset": 154.25,
          "duration": 0.25,
          "velocity": 100
        },
        {
          "pitch": 63,
          "onset": 154.5,
          "duration": 0.5,
          "velocity": 100
        },
        {
          "pitch": 68,
          "onset": 154.75,
          "duration": 0.25,
          "velocity": 100
        },
        {
          "pitch": 67,
          "onset": 155.0,
          "duration": 0.25,
          "velocity": 100
        },
        {
          "pitch": 65,
          "onset": 155.25,
          "duration": 0.25,
          "velocity": 100
        },
        {
          "pitch": 63,
          "onset": 155.5,
          "duration": 0.25,
          "velocity": 100
        },
        {
          "pitch": 62,
          "onset": 155.75,
          "duration": 0.25,
          "velocity": 100
        },
        {
          "pitch": 60,
          "onset": 156.0,
          "duration": 0.5,
          "velocity": 100
        },
        {
          "pitch": 59,
          "onset": 156.5,
          "duration": 0.25,
          "velocity": 100
        },
        {
          "pitch": 60,
          "onset": 156.75,
          "duration": 0.25,
          "velocity": 100
        },
        {
          "pitch": 62,
          "onset": 157.0,
          "duration": 0.5,
          "velocity": 100
        },
        {
          "pitch": 55,
          "onset": 157.5,
          "duration": 1.0,
          "velocity": 100
        },
        {
          "pitch": 67,
          "onset": 158.5,
          "duration": 0.5,
          "velocity": 100
        },
        {
          "pitch": 65,
          "onset": 159.0,
          "duration": 0.5,
          "velocity": 100
        },
        {
          "pitch": 63,
          "onset": 159.5,
          "duration": 0.5,
          "velocity": 100
        },
        {
          "pitch": 67,
          "onset": 160.0,
          "duration": 0.5,
          "velocity": 100
        },
        {
          "pitch": 63,
          "onset": 160.5,
          "duration": 0.5,
          "velocity": 100
        },
        {
          "pitch": 62,
          "onset": 161.0,
          "duration": 0.5,
          "velocity": 100
        },
        {
          "pitch": 67,
          "onset": 161.5,
          "duration": 0.5,
          "velocity": 100
        },
        {
          "pitch": 62,
          "onset": 162.0,
          "duration": 0.75,
          "velocity": 100
        },
        {
          "pitch": 59,
          "onset": 162.75,
          "duration": 0.25,
          "velocity": 100
        },
        {
          "pitch": 60,
          "onset": 163.0,
          "duration": 0.5,
          "velocity": 100
        },
        {
          "pitch": 72,
          "onset": 163.5,
          "duration": 1.0,
          "velocity": 100
        },
        {
          "pitch": 67,
          "onset": 164.5,
          "duration": 0.5,
          "velocity": 100
        },
        {
          "pitch": 67,
          "onset": 165.0,
          "duration": 0.75,
          "velocity": 100
        },
        {
          "pitch": 67,
          "onset": 165.75,
          "duration": 0.25,
          "velocity": 100
        },
        {
          "pitch": 65,
          "onset": 166.0,
          "duration": 0.5,
          "velocity": 100
        },
        {
          "pitch": 65,
          "onset": 166.5,
          "duration": 0.75,
          "velocity": 100
        },
        {
          "pitch": 65,
          "onset": 167.25,
          "duration": 0.25,
          "velocity": 100
        },
        {
          "pitch": 62,
          "onset": 167.5,
          "duration": 0.5,
          "velocity": 100
        },
        {
          "pitch": 62,
          "onset": 168.0,
          "duration": 0.75,
          "velocity": 100
        },
        {
          "pitch": 62,
          "onset": 168.75,
          "duration": 0.25,
          "velocity": 100
        },
        {
          "pitch": 60,
          "onset": 169.0,
          "duration": 0.5,
          "velocity": 100
        },
        {
          "pitch": 70,
          "onset": 169.5,
          "duration": 1.0,
          "velocity": 100
        },
        {
          "pitch": 72,
          "onset": 170.5,
          "duration": 0.25,
          "velocity": 100
        },
        {
          "pitch": 70,
          "onset": 170.625,
          "duration": 0.25,
          "velocity": 100
        },
        {
          "pitch": 68,
          "onset": 170.75,
          "duration": 0.25,
          "velocity": 100
        },
        {
          "pitch": 67,
          "onset": 170.875,
          "duration": 0.125,
          "velocity": 100
        },
        {
          "pitch": 67,
          "onset": 171.0,
          "duration": 0.5,
          "velocity": 100
        },
        {
          "pitch": 68,
          "onset": 171.5,
          "duration": 0.5,
          "velocity": 100
        },
        {
          "pitch": 64,
          "onset": 172.0,
          "duration": 0.5,
          "velocity": 100
        },
        {
          "pitch": 64,
          "onset": 172.5,
          "duration": 0.5,
          "velocity": 100
        },
        {
          "pitch": 65,
          "onset": 173.0,
          "duration": 0.5,
          "velocity": 100
        },
        {
          "pitch": 60,
          "onset": 173.5,
          "duration": 0.5,
          "velocity": 100
        },
        {
          "pitch": 60,
          "onset": 174.0,
          "duration": 0.5,
          "velocity": 100
        },
        {
          "pitch": 61,
          "onset": 174.5,
          "duration": 0.5,
          "velocity": 100
        },
        {
          "pitch": 57,
          "onset": 175.0,
          "duration": 0.5,
          "velocity": 100
        },
        {
          "pitch": 57,
          "onset": 175.5,
          "duration": 0.5,
          "velocity": 100
        },
        {
          "pitch": 58,
          "onset": 176.0,
          "duration": 0.5,
          "velocity": 100
        },
        {
          "pitch": 65,
          "onset": 176.5,
          "duration": 0.5,
          "velocity": 100
        },
        {
          "pitch": 65,
          "onset": 177.0,
          "duration": 0.5,
          "velocity": 100
        },
        {
          "pitch": 67,
          "onset": 177.5,
          "duration": 0.5,
          "velocity": 100
        },
        {
          "pitch": 62,
          "onset": 178.0,
          "duration": 0.5,
          "velocity": 100
        },
        {
          "pitch": 62,
          "onset": 178.5,
          "duration": 0.5,
          "velocity": 100
        },
        {
          "pitch": 63,
          "onset": 179.0,
          "duration": 0.5,
          "velocity": 100
        },
        {
          "pitch": 59,
          "onset": 179.5,
          "duration": 0.5,
          "velocity": 100
        },
        {
          "pitch": 59,
          "onset": 180.0,
          "duration": 0.5,
          "velocity": 100
        },
        {
          "pitch": 60,
          "onset": 180.5,
          "duration": 0.5,
          "velocity": 100
        },
        {
          "pitch": 55,
          "onset": 181.0,
          "duration": 0.5,
          "velocity": 100
        },
        {
          "pitch": 55,
          "onset": 181.5,
          "duration": 0.5,
          "velocity": 100
        },
        {
          "pitch": 56,
          "onset": 182.0,
          "duration": 0.5,
          "velocity": 100
        },
        {
          "pitch": 64,
          "onset": 182.5,
          "duration": 0.5,
          "velocity": 100
        },
        {
          "pitch": 64,
          "onset": 183.0,
          "duration": 0.5,
          "velocity": 100
        },
        {
          "pitch": 65,
          "onset": 183.5,
          "duration": 0.5,
          "velocity": 100
        },
        {
          "pitch": 60,
          "onset": 184.0,
          "duration": 0.5,
          "velocity": 100
        },
        {
          "pitch": 60,
          "onset": 184.5,
          "duration": 0.5,
          "velocity": 100
        },
        {
          "pitch": 61,
          "onset": 185.0,
          "duration": 0.5,
          "velocity": 100
        },
        {
          "pitch": 67,
          "onset": 185.5,
          "duration": 0.5,
          "velocity": 100
        },
        {
          "pitch": 67,
          "onset": 186.0,
          "duration": 0.5,
          "velocity": 100
        },
        {
          "pitch": 68,
          "onset": 186.5,
          "duration": 0.5,
          "velocity": 100
        },
        {
          "pitch": 60,
          "onset": 187.0,
          "duration": 0.5,
          "velocity": 100
        },
        {
          "pitch": 60,
          "onset": 187.5,
          "duration": 0.5,
          "velocity": 100
        },
        {
          "pitch": 59,
          "onset": 188.0,
          "duration": 0.5,
          "velocity": 100
        },
        {
          "pitch": 65,
          "onset": 188.5,
          "duration": 0.25,
          "velocity": 100
        },
        {
          "pitch": 67,
          "onset": 188.625,
          "duration": 0.25,
          "velocity": 100
        },
        {
          "pitch": 68,
          "onset": 188.75,
          "duration": 0.25,
          "velocity": 100
        },
        {
          "pitch": 67,
          "onset": 189.0,
          "duration": 0.75,
          "velocity": 100
        },
        {
          "pitch": 59,
          "onset": 189.75,
          "duration": 0.25,
          "velocity": 100
        },
        {
          "pitch": 60,
          "onset": 190.0,
          "duration": 0.5,
          "velocity": 100
        },
        {
          "pitch": 62,
          "onset": 190.5,
          "duration": 0.25,
          "velocity": 100
        },
        {
          "pitch": 63,
          "onset": 190.75,
          "duration": 0.25,
          "velocity": 100
        },
        {
          "pitch": 65,
          "onset": 191.0,
          "duration": 0.25,
          "velocity": 100
        },
        {
          "pitch": 63,
          "onset": 191.25,
          "duration": 0.25,
          "velocity": 100
        },
        {
          "pitch": 62,
          "onset": 191.5,
          "duration": 0.5,
          "velocity": 100
        },
        {
          "pitch": 62,
          "onset": 192.0,
          "duration": 2.25,
          "velocity": 100
        },
        {
          "pitch": 87,
          "onset": 194.25,
          "duration": 0.25,
          "velocity": 100
        },
        {
          "pitch": 86,
          "onset": 194.5,
          "duration": 0.25,
          "velocity": 100
        },
        {
          "pitch": 84,
          "onset": 194.75,
          "duration": 0.25,
          "velocity": 100
        },
        {
          "pitch": 83,
          "onset": 195.0,
          "duration": 0.5,
          "velocity": 100
        },
        {
          "pitch": 86,
          "onset": 195.25,
          "duration": 0.5,
          "velocity": 100
        },
        {
          "pitch": 83,
          "onset": 195.5,
          "duration": 0.5,
          "velocity": 100
        },
        {
          "pitch": 79,
          "onset": 195.75,
          "duration": 0.25,
          "velocity": 100
        },
        {
          "pitch": 78,
          "onset": 196.0,
          "duration": 0.25,
          "velocity": 100
        },
        {
          "pitch": 79,
          "onset": 196.25,
          "duration": 0.25,
          "velocity": 100
        },
        {
          "pitch": 80,
          "onset": 196.5,
          "duration": 0.5,
          "velocity": 100
        },
        {
          "pitch": 86,
          "onset": 196.75,
          "duration": 0.5,
          "velocity": 100
        },
        {
          "pitch": 80,
          "onset": 197.0,
          "duration": 0.5,
          "velocity": 100
        },
        {
          "pitch": 77,
          "onset": 197.25,
          "duration": 0.25,
          "velocity": 100
        },
        {
          "pitch": 75,
          "onset": 197.5,
          "duration": 0.25,
          "velocity": 100
        },
        {
          "pitch": 74,
          "onset": 197.75,
          "duration": 0.25,
          "velocity": 100
        },
        {
          "pitch": 76,
          "onset": 198.0,
          "duration": 0.5,
          "velocity": 100
        },
        {
          "pitch": 79,
          "onset": 198.25,
          "duration": 0.5,
          "velocity": 100
        },
        {
          "pitch": 76,
          "onset": 198.5,
          "duration": 0.5,
          "velocity": 100
        },
        {
          "pitch": 72,
          "onset": 198.75,
          "duration": 0.25,
          "velocity": 100
        },
        {
          "pitch": 71,
          "onset": 199.0,
          "duration": 0.25,
          "velocity": 100
        },
        {
          "pitch": 72,
          "onset": 199.25,
          "duration": 0.25,
          "velocity": 100
        },
        {
          "pitch": 73,
          "onset": 199.5,
          "duration": 0.5,
          "velocity": 100
        },
        {
          "pitch": 77,
          "onset": 199.75,
          "duration": 0.5,
          "velocity": 100
        },
        {
          "pitch": 73,
          "onset": 200.0,
          "duration": 0.5,
          "velocity": 100
        },
        {
          "pitch": 70,
          "onset": 200.25,
          "duration": 0.25,
          "velocity": 100
        },
        {
          "pitch": 68,
          "onset": 200.5,
          "duration": 0.25,
          "velocity": 100
        },
        {
          "pitch": 67,
          "onset": 200.75,
          "duration": 0.25,
          "velocity": 100
        },
        {
          "pitch": 68,
          "onset": 201.0,
          "duration": 0.5,
          "velocity": 100
        },
        {
          "pitch": 72,
          "onset": 201.25,
          "duration": 0.25,
          "velocity": 100
        },
        {
          "pitch": 70,
          "onset": 201.5,
          "duration": 0.25,
          "velocity": 100
        },
        {
          "pitch": 68,
          "onset": 201.75,
          "duration": 0.25,
          "velocity": 100
        },
        {
          "pitch": 67,
          "onset": 202.0,
          "duration": 0.25,
          "velocity": 100
        },
        {
          "pitch": 65,
          "onset": 202.25,
          "duration": 0.25,
          "velocity": 100
        },
        {
          "pitch": 64,
          "onset": 202.5,
          "duration": 0.5,
          "velocity": 100
        },
        {
          "pitch": 85,
          "onset": 202.75,
          "duration": 0.25,
          "velocity": 100
        },
        {
          "pitch": 84,
          "onset": 203.0,
          "duration": 0.25,
          "velocity": 100
        },
        {
          "pitch": 82,
          "onset": 203.25,
          "duration": 0.25,
          "velocity": 100
        },
        {
          "pitch": 80,
          "onset": 203.5,
          "duration": 0.25,
          "velocity": 100
        },
        {
          "pitch": 79,
          "onset": 203.75,
          "duration": 0.25,
          "velocity": 100
        },
        {
          "pitch": 80,
          "onset": 204.0,
          "duration": 0.25,
          "velocity": 100
        },
        {
          "pitch": 79,
          "onset": 204.25,
          "duration": 0.25,
          "velocity": 100
        },
        {
          "pitch": 77,
          "onset": 204.5,
          "duration": 0.25,
          "velocity": 100
        },
        {
          "pitch": 76,
          "onset": 204.75,
          "duration": 0.25,
          "velocity": 100
        },
        {
          "pitch": 77,
          "onset": 205.0,
          "duration": 0.5,
          "velocity": 100
        },
        {
          "pitch": 72,
          "onset": 205.25,
          "duration": 0.5,
          "velocity": 100
        },
        {
          "pitch": 68,
          "onset": 205.5,
          "duration": 0.5,
          "velocity": 100
        },
        {
          "pitch": 72,
          "onset": 205.75,
          "duration": 0.5,
          "velocity": 100
        },
        {
          "pitch": 65,
          "onset": 206.0,
          "duration": 0.5,
          "velocity": 100
        },
        {
          "pitch": 68,
          "onset": 206.25,
          "duration": 0.5,
          "velocity": 100
        },
        {
          "pitch": 72,
          "onset": 206.5,
          "duration": 0.5,
          "velocity": 100
        },
        {
          "pitch": 75,
          "onset": 206.75,
          "duration": 0.25,
          "velocity": 100
        },
        {
          "pitch": 74,
          "onset": 207.0,
          "duration": 0.5,
          "velocity": 100
        },
        {
          "pitch": 67,
          "onset": 207.25,
          "duration": 0.5,
          "velocity": 100
        },
        {
          "pitch": 68,
          "onset": 207.5,
          "duration": 0.5,
          "velocity": 100
        },
        {
          "pitch": 65,
          "onset": 207.75,
          "duration": 0.5,
          "velocity": 100
        },
        {
          "pitch": 75,
          "onset": 208.25,
          "duration": 0.25,
          "velocity": 100
        },
        {
          "pitch": 77,
          "onset": 208.5,
          "duration": 0.5,
          "velocity": 100
        },
        {
          "pitch": 67,
          "onset": 208.75,
          "duration": 0.5,
          "velocity": 100
        },
        {
          "pitch": 68,
          "onset": 209.0,
          "duration": 0.5,
          "velocity": 100
        },
        {
          "pitch": 65,
          "onset": 209.25,
          "duration": 0.5,
          "velocity": 100
        },
        {
          "pitch": 77,
          "onset": 209.75,
          "duration": 0.25,
          "velocity": 100
        },
        {
          "pitch": 79,
          "onset": 210.0,
          "duration": 0.5,
          "velocity": 100
        },
        {
          "pitch": 72,
          "onset": 210.25,
          "duration": 0.5,
          "velocity": 100
        },
        {
          "pitch": 73,
          "onset": 210.5,
          "duration": 0.5,
          "velocity": 100
        },
        {
          "pitch": 70,
          "onset": 210.75,
          "duration": 0.5,
          "velocity": 100
        },
        {
          "pitch": 80,
          "onset": 211.25,
          "duration": 0.25,
          "velocity": 100
        },
        {
          "pitch": 82,
          "onset": 211.5,
          "duration": 0.5,
          "velocity": 100
        },
        {
          "pitch": 72,
          "onset": 211.75,
          "duration": 0.5,
          "velocity": 100
        },
        {
          "pitch": 73,
          "onset": 212.0,
          "duration": 0.5,
          "velocity": 100
        },
        {
          "pitch": 70,
          "onset": 212.25,
          "duration": 0.5,
          "velocity": 100
        },
        {
          "pitch": 73,
          "onset": 212.75,
          "duration": 0.25,
          "velocity": 100
        },
        {
          "pitch": 72,
          "onset": 213.0,
          "duration": 0.5,
          "velocity": 100
        },
        {
          "pitch": 75,
          "onset": 213.25,
          "duration": 0.25,
          "velocity": 100
        },
        {
          "pitch": 77,
          "onset": 213.5,
          "duration": 0.25,
          "velocity": 100
        },
        {
          "pitch": 79,
          "onset": 213.75,
          "duration": 0.25,
          "velocity": 100
        },
        {
          "pitch": 80,
          "onset": 214.0,
          "duration": 0.5,
          "velocity": 100
        },
        {
          "pitch": 74,
          "onset": 214.25,
          "duration": 0.25,
          "velocity": 100
        },
        {
          "pitch": 80,
          "onset": 214.5,
          "duration": 0.25,
          "velocity": 100
        },
        {
          "pitch": 79,
          "onset": 214.75,
          "duration": 0.25,
          "velocity": 100
        },
        {
          "pitch": 77,
          "onset": 215.0,
          "duration": 0.25,
          "velocity": 100
        },
        {
          "pitch": 75,
          "onset": 215.25,
          "duration": 0.5,
          "velocity": 100
        },
        {
          "pitch": 82,
          "onset": 215.5,
          "duration": 0.25,
          "velocity": 100
        },
        {
          "pitch": 81,
          "onset": 215.75,
          "duration": 0.25,
          "velocity": 100
        },
        {
          "pitch": 82,
          "onset": 216.0,
          "duration": 1.0,
          "velocity": 100
        },
        {
          "pitch": 62,
          "onset": 217.5,
          "duration": 0.5,
          "velocity": 100
        },
        {
          "pitch": 65,
          "onset": 217.75,
          "duration": 0.5,
          "velocity": 100
        },
        {
          "pitch": 68,
          "onset": 218.0,
          "duration": 0.5,
          "velocity": 100
        },
        {
          "pitch": 70,
          "onset": 218.25,
          "duration": 0.5,
          "velocity": 100
        },
        {
          "pitch": 74,
          "onset": 218.5,
          "duration": 0.5,
          "velocity": 100
        },
        {
          "pitch": 75,
          "onset": 219.25,
          "duration": 0.5,
          "velocity": 100
        },
        {
          "pitch": 70,
          "onset": 219.5,
          "duration": 0.5,
          "velocity": 100
        },
        {
          "pitch": 69,
          "onset": 219.75,
          "duration": 0.5,
          "velocity": 100
        },
        {
          "pitch": 70,
          "onset": 220.0,
          "duration": 0.5,
          "velocity": 100
        },
        {
          "pitch": 75,
          "onset": 220.25,
          "duration": 0.5,
          "velocity": 100
        },
        {
          "pitch": 77,
          "onset": 220.5,
          "duration": 0.5,
          "velocity": 100
        },
        {
          "pitch": 70,
          "onset": 220.75,
          "duration": 0.5,
          "velocity": 100
        },
        {
          "pitch": 79,
          "onset": 221.0,
          "duration": 0.5,
          "velocity": 100
        },
        {
          "pitch": 70,
          "onset": 221.25,
          "duration": 0.5,
          "velocity": 100
        },
        {
          "pitch": 80,
          "onset": 221.5,
          "duration": 0.5,
          "velocity": 100
        },
        {
          "pitch": 70,
          "onset": 221.75,
          "duration": 0.25,
          "velocity": 100
        },
        {
          "pitch": 79,
          "onset": 222.25,
          "duration": 0.5,
          "velocity": 100
        },
        {
          "pitch": 75,
          "onset": 222.5,
          "duration": 0.25,
          "velocity": 100
        },
        {
          "pitch": 74,
          "onset": 222.75,
          "duration": 0.25,
          "velocity": 100
        },
        {
          "pitch": 75,
          "onset": 223.0,
          "duration": 0.5,
          "velocity": 100
        },
        {
          "pitch": 79,
          "onset": 223.25,
          "duration": 0.5,
          "velocity": 100
        },
        {
          "pitch": 80,
          "onset": 223.5,
          "duration": 0.5,
          "velocity": 100
        },
        {
          "pitch": 75,
          "onset": 223.75,
          "duration": 0.5,
          "velocity": 100
        },
        {
          "pitch": 82,
          "onset": 224.0,
          "duration": 0.5,
          "velocity": 100
        },
        {
          "pitch": 75,
          "onset": 224.25,
          "duration": 0.5,
          "velocity": 100
        },
        {
          "pitch": 84,
          "onset": 224.5,
          "duration": 0.5,
          "velocity": 100
        },
        {
          "pitch": 75,
          "onset": 224.75,
          "duration": 0.25,
          "velocity": 100
        },
        {
          "pitch": 82,
          "onset": 225.0,
          "duration": 0.5,
          "velocity": 100
        },
        {
          "pitch": 75,
          "onset": 225.25,
          "duration": 0.25,
          "velocity": 100
        },
        {
          "pitch": 77,
          "onset": 225.5,
          "duration": 0.25,
          "velocity": 100
        },
        {
          "pitch": 73,
          "onset": 225.75,
          "duration": 0.25,
          "velocity": 100
        },
        {
          "pitch": 72,
          "onset": 226.0,
          "duration": 0.25,
          "velocity": 100
        },
        {
          "pitch": 70,
          "onset": 226.25,
          "duration": 0.25,
          "velocity": 100
        },
        {
          "pitch": 72,
          "onset": 226.5,
          "duration": 0.5,
          "velocity": 100
        },
        {
          "pitch": 67,
          "onset": 226.75,
          "duration": 0.5,
          "velocity": 100
        },
        {
          "pitch": 68,
          "onset": 227.0,
          "duration": 0.5,
          "velocity": 100
        },
        {
          "pitch": 63,
          "onset": 227.25,
          "duration": 0.5,
          "velocity": 100
        },
        {
          "pitch": 84,
          "onset": 227.75,
          "duration": 0.25,
          "velocity": 100
        },
        {
          "pitch": 86,
          "onset": 228.0,
          "duration": 0.5,
          "velocity": 100
        },
        {
          "pitch": 79,
          "onset": 228.25,
          "duration": 0.25,
          "velocity": 100
        },
        {
          "pitch": 80,
          "onset": 228.5,
          "duration": 0.25,
          "velocity": 100
        },
        {
          "pitch": 77,
          "onset": 228.75,
          "duration": 0.25,
          "velocity": 100
        },
        {
          "pitch": 75,
          "onset": 229.0,
          "duration": 0.25,
          "velocity": 100
        },
        {
          "pitch": 74,
          "onset": 229.25,
          "duration": 0.25,
          "velocity": 100
        },
        {
          "pitch": 75,
          "onset": 229.5,
          "duration": 0.5,
          "velocity": 100
        },
        {
          "pitch": 71,
          "onset": 229.75,
          "duration": 0.5,
          "velocity": 100
        },
        {
          "pitch": 72,
          "onset": 230.0,
          "duration": 0.5,
          "velocity": 100
        },
        {
          "pitch": 67,
          "onset": 230.25,
          "duration": 0.5,
          "velocity": 100
        },
        {
          "pitch": 82,
          "onset": 230.75,
          "duration": 0.25,
          "velocity": 100
        },
        {
          "pitch": 81,
          "onset": 231.0,
          "duration": 0.25,
          "velocity": 100
        },
        {
          "pitch": 82,
          "onset": 231.25,
          "duration": 0.25,
          "velocity": 100
        },
        {
          "pitch": 84,
          "onset": 231.5,
          "duration": 0.5,
          "velocity": 100
        },
        {
          "pitch": 81,
          "onset": 231.75,
          "duration": 0.25,
          "velocity": 100
        },
        {
          "pitch": 78,
          "onset": 232.0,
          "duration": 0.25,
          "velocity": 100
        },
        {
          "pitch": 77,
          "onset": 232.25,
          "duration": 0.25,
          "velocity": 100
        },
        {
          "pitch": 75,
          "onset": 232.5,
          "duration": 0.25,
          "velocity": 100
        },
        {
          "pitch": 77,
          "onset": 232.75,
          "duration": 0.25,
          "velocity": 100
        },
        {
          "pitch": 78,
          "onset": 233.0,
          "duration": 0.5,
          "velocity": 100
        },
        {
          "pitch": 75,
          "onset": 233.25,
          "duration": 0.25,
          "velocity": 100
        },
        {
          "pitch": 74,
          "onset": 233.5,
          "duration": 0.25,
          "velocity": 100
        },
        {
          "pitch": 72,
          "onset": 233.75,
          "duration": 0.25,
          "velocity": 100
        },
        {
          "pitch": 74,
          "onset": 234.0,
          "duration": 0.25,
          "velocity": 100
        },
        {
          "pitch": 75,
          "onset": 234.25,
          "duration": 0.25,
          "velocity": 100
        },
        {
          "pitch": 77,
          "onset": 234.5,
          "duration": 0.5,
          "velocity": 100
        },
        {
          "pitch": 74,
          "onset": 234.75,
          "duration": 0.25,
          "velocity": 100
        },
        {
          "pitch": 71,
          "onset": 235.0,
          "duration": 0.25,
          "velocity": 100
        },
        {
          "pitch": 70,
          "onset": 235.25,
          "duration": 0.25,
          "velocity": 100
        },
        {
          "pitch": 68,
          "onset": 235.5,
          "duration": 0.25,
          "velocity": 100
        },
        {
          "pitch": 70,
          "onset": 235.75,
          "duration": 0.25,
          "velocity": 100
        },
        {
          "pitch": 71,
          "onset": 236.0,
          "duration": 0.5,
          "velocity": 100
        },
        {
          "pitch": 68,
          "onset": 236.25,
          "duration": 0.25,
          "velocity": 100
        },
        {
          "pitch": 67,
          "onset": 236.5,
          "duration": 0.25,
          "velocity": 100
        },
        {
          "pitch": 65,
          "onset": 236.75,
          "duration": 0.25,
          "velocity": 100
        },
        {
          "pitch": 67,
          "onset": 237.0,
          "duration": 0.5,
          "velocity": 100
        },
        {
          "pitch": 70,
          "onset": 237.25,
          "duration": 0.25,
          "velocity": 100
        },
        {
          "pitch": 72,
          "onset": 237.5,
          "duration": 0.25,
          "velocity": 100
        },
        {
          "pitch": 74,
          "onset": 237.75,
          "duration": 0.25,
          "velocity": 100
        },
        {
          "pitch": 75,
          "onset": 238.0,
          "duration": 0.25,
          "velocity": 100
        },
        {
          "pitch": 77,
          "onset": 238.25,
          "duration": 0.25,
          "velocity": 100
        },
        {
          "pitch": 79,
          "onset": 238.5,
          "duration": 0.5,
          "velocity": 100
        },
        {
          "pitch": 82,
          "onset": 238.75,
          "duration": 0.5,
          "velocity": 100
        },
        {
          "pitch": 79,
          "onset": 239.0,
          "duration": 0.5,
          "velocity": 100
        },
        {
          "pitch": 75,
          "onset": 239.25,
          "duration": 0.5,
          "velocity": 100
        },
        {
          "pitch": 77,
          "onset": 239.5,
          "duration": 0.5,
          "velocity": 100
        },
        {
          "pitch": 74,
          "onset": 239.75,
          "duration": 0.25,
          "velocity": 100
        },
        {
          "pitch": 75,
          "onset": 240.0,
          "duration": 0.5,
          "velocity": 100
        },
        {
          "pitch": 70,
          "onset": 240.25,
          "duration": 0.5,
          "velocity": 100
        },
        {
          "pitch": 67,
          "onset": 240.5,
          "duration": 0.5,
          "velocity": 100
        },
        {
          "pitch": 63,
          "onset": 240.75,
          "duration": 0.5,
          "velocity": 100
        },
        {
          "pitch": 58,
          "onset": 241.0,
          "duration": 0.5,
          "velocity": 100
        },
        {
          "pitch": 55,
          "onset": 241.25,
          "duration": 0.5,
          "velocity": 100
        },
        {
          "pitch": 87,
          "onset": 242.25,
          "duration": 0.25,
          "velocity": 100
        },
        {
          "pitch": 86,
          "onset": 242.5,
          "duration": 0.25,
          "velocity": 100
        },
        {
          "pitch": 84,
          "onset": 242.75,
          "duration": 0.25,
          "velocity": 100
        },
        {
          "pitch": 83,
          "onset": 243.0,
          "duration": 0.25,
          "velocity": 100
        },
        {
          "pitch": 80,
          "onset": 243.25,
          "duration": 0.25,
          "velocity": 100
        },
        {
          "pitch": 79,
          "onset": 243.5,
          "duration": 0.25,
          "velocity": 100
        },
        {
          "pitch": 77,
          "onset": 243.75,
          "duration": 0.25,
          "velocity": 100
        },
        {
          "pitch": 79,
          "onset": 244.0,
          "duration": 0.5,
          "velocity": 100
        },
        {
          "pitch": 83,
          "onset": 244.25,
          "duration": 0.25,
          "velocity": 100
        },
        {
          "pitch": 84,
          "onset": 244.5,
          "duration": 0.5,
          "velocity": 100
        },
        {
          "pitch": 72,
          "onset": 244.75,
          "duration": 0.5,
          "velocity": 100
        },
        {
          "pitch": 82,
          "onset": 245.0,
          "duration": 0.25,
          "velocity": 100
        },
        {
          "pitch": 80,
          "onset": 245.25,
          "duration": 0.25,
          "velocity": 100
        },
        {
          "pitch": 79,
          "onset": 245.5,
          "duration": 0.25,
          "velocity": 100
        },
        {
          "pitch": 77,
          "onset": 245.75,
          "duration": 0.25,
          "velocity": 100
        },
        {
          "pitch": 76,
          "onset": 246.0,
          "duration": 0.25,
          "velocity": 100
        },
        {
          "pitch": 74,
          "onset": 246.25,
          "duration": 0.25,
          "velocity": 100
        },
        {
          "pitch": 72,
          "onset": 246.5,
          "duration": 0.25,
          "velocity": 100
        },
        {
          "pitch": 70,
          "onset": 246.75,
          "duration": 0.25,
          "velocity": 100
        },
        {
          "pitch": 72,
          "onset": 247.0,
          "duration": 0.5,
          "velocity": 100
        },
        {
          "pitch": 76,
          "onset": 247.25,
          "duration": 0.5,
          "velocity": 100
        },
        {
          "pitch": 77,
          "onset": 247.5,
          "duration": 0.5,
          "velocity": 100
        },
        {
          "pitch": 65,
          "onset": 247.75,
          "duration": 0.5,
          "velocity": 100
        },
        {
          "pitch": 75,
          "onset": 248.0,
          "duration": 0.25,
          "velocity": 100
        },
        {
          "pitch": 74,
          "onset": 248.25,
          "duration": 0.25,
          "velocity": 100
        },
        {
          "pitch": 72,
          "onset": 248.5,
          "duration": 0.25,
          "velocity": 100
        },
        {
          "pitch": 71,
          "onset": 248.75,
          "duration": 0.25,
          "velocity": 100
        },
        {
          "pitch": 74,
          "onset": 249.0,
          "duration": 0.5,
          "velocity": 100
        },
        {
          "pitch": 72,
          "onset": 249.25,
          "duration": 0.5,
          "velocity": 100
        },
        {
          "pitch": 75,
          "onset": 249.5,
          "duration": 0.5,
          "velocity": 100
        },
        {
          "pitch": 74,
          "onset": 249.75,
          "duration": 0.5,
          "velocity": 100
        },
        {
          "pitch": 77,
          "onset": 250.0,
          "duration": 0.5,
          "velocity": 100
        },
        {
          "pitch": 75,
          "onset": 250.25,
          "duration": 0.5,
          "velocity": 100
        },
        {
          "pitch": 79,
          "onset": 250.5,
          "duration": 0.5,
          "velocity": 100
        },
        {
          "pitch": 77,
          "onset": 250.75,
          "duration": 0.5,
          "velocity": 100
        },
        {
          "pitch": 80,
          "onset": 251.0,
          "duration": 0.5,
          "velocity": 100
        },
        {
          "pitch": 79,
          "onset": 251.25,
          "duration": 0.25,
          "velocity": 100
        },
        {
          "pitch": 77,
          "onset": 251.5,
          "duration": 0.25,
          "velocity": 100
        },
        {
          "pitch": 75,
          "onset": 251.75,
          "duration": 0.25,
          "velocity": 100
        },
        {
          "pitch": 74,
          "onset": 252.0,
          "duration": 0.25,
          "velocity": 100
        },
        {
          "pitch": 72,
          "onset": 252.25,
          "duration": 0.25,
          "velocity": 100
        },
        {
          "pitch": 71,
          "onset": 252.5,
          "duration": 0.25,
          "velocity": 100
        },
        {
          "pitch": 69,
          "onset": 252.75,
          "duration": 0.25,
          "velocity": 100
        },
        {
          "pitch": 67,
          "onset": 253.0,
          "duration": 0.25,
          "velocity": 100
        },
        {
          "pitch": 66,
          "onset": 253.25,
          "duration": 0.25,
          "velocity": 100
        },
        {
          "pitch": 67,
          "onset": 253.5,
          "duration": 1.0,
          "velocity": 100
        },
        {
          "pitch": 80,
          "onset": 254.25,
          "duration": 0.25,
          "velocity": 100
        },
        {
          "pitch": 79,
          "onset": 254.5,
          "duration": 0.25,
          "velocity": 100
        },
        {
          "pitch": 77,
          "onset": 254.75,
          "duration": 0.25,
          "velocity": 100
        },
        {
          "pitch": 75,
          "onset": 255.0,
          "duration": 0.5,
          "velocity": 100
        },
        {
          "pitch": 79,
          "onset": 255.25,
          "duration": 0.5,
          "velocity": 100
        },
        {
          "pitch": 75,
          "onset": 255.5,
          "duration": 0.5,
          "velocity": 100
        },
        {
          "pitch": 72,
          "onset": 255.75,
          "duration": 0.25,
          "velocity": 100
        },
        {
          "pitch": 71,
          "onset": 256.0,
          "duration": 0.25,
          "velocity": 100
        },
        {
          "pitch": 72,
          "onset": 256.25,
          "duration": 0.25,
          "velocity": 100
        },
        {
          "pitch": 75,
          "onset": 256.5,
          "duration": 0.5,
          "velocity": 100
        },
        {
          "pitch": 79,
          "onset": 256.75,
          "duration": 0.5,
          "velocity": 100
        },
        {
          "pitch": 75,
          "onset": 257.0,
          "duration": 0.5,
          "velocity": 100
        },
        {
          "pitch": 72,
          "onset": 257.25,
          "duration": 0.25,
          "velocity": 100
        },
        {
          "pitch": 71,
          "onset": 257.5,
          "duration": 0.25,
          "velocity": 100
        },
        {
          "pitch": 72,
          "onset": 257.75,
          "duration": 0.25,
          "velocity": 100
        },
        {
          "pitch": 75,
          "onset": 258.0,
          "duration": 0.5,
          "velocity": 100
        },
        {
          "pitch": 79,
          "onset": 258.25,
          "duration": 0.5,
          "velocity": 100
        },
        {
          "pitch": 75,
          "onset": 258.5,
          "duration": 0.5,
          "velocity": 100
        },
        {
          "pitch": 72,
          "onset": 258.75,
          "duration": 0.25,
          "velocity": 100
        },
        {
          "pitch": 71,
          "onset": 259.0,
          "duration": 0.25,
          "velocity": 100
        },
        {
          "pitch": 72,
          "onset": 259.25,
          "duration": 0.25,
          "velocity": 100
        },
        {
          "pitch": 84,
          "onset": 259.5,
          "duration": 0.75,
          "velocity": 100
        },
        {
          "pitch": 72,
          "onset": 260.25,
          "duration": 0.75,
          "velocity": 100
        },
        {
          "pitch": 75,
          "onset": 260.5,
          "duration": 0.5,
          "velocity": 100
        },
        {
          "pitch": 79,
          "onset": 260.75,
          "duration": 0.25,
          "velocity": 100
        },
        {
          "pitch": 80,
          "onset": 261.0,
          "duration": 0.25,
          "velocity": 100
        },
        {
          "pitch": 79,
          "onset": 261.25,
          "duration": 0.25,
          "velocity": 100
        },
        {
          "pitch": 77,
          "onset": 261.5,
          "duration": 0.25,
          "velocity": 100
        },
        {
          "pitch": 75,
          "onset": 261.75,
          "duration": 0.25,
          "velocity": 100
        },
        {
          "pitch": 74,
          "onset": 262.0,
          "duration": 0.25,
          "velocity": 100
        },
        {
          "pitch": 72,
          "onset": 262.25,
          "duration": 0.25,
          "velocity": 100
        },
        {
          "pitch": 71,
          "onset": 262.5,
          "duration": 0.5,
          "velocity": 100
        },
        {
          "pitch": 80,
          "onset": 262.75,
          "duration": 0.25,
          "velocity": 100
        },
        {
          "pitch": 79,
          "onset": 263.0,
          "duration": 0.25,
          "velocity": 100
        },
        {
          "pitch": 77,
          "onset": 263.25,
          "duration": 0.25,
          "velocity": 100
        },
        {
          "pitch": 75,
          "onset": 263.5,
          "duration": 0.25,
          "velocity": 100
        },
        {
          "pitch": 74,
          "onset": 263.75,
          "duration": 0.25,
          "velocity": 100
        },
        {
          "pitch": 75,
          "onset": 264.0,
          "duration": 0.25,
          "velocity": 100
        },
        {
          "pitch": 74,
          "onset": 264.25,
          "duration": 0.25,
          "velocity": 100
        },
        {
          "pitch": 72,
          "onset": 264.5,
          "duration": 0.25,
          "velocity": 100
        },
        {
          "pitch": 71,
          "onset": 264.75,
          "duration": 0.25,
          "velocity": 100
        },
        {
          "pitch": 72,
          "onset": 265.0,
          "duration": 0.5,
          "velocity": 100
        },
        {
          "pitch": 67,
          "onset": 265.25,
          "duration": 0.5,
          "velocity": 100
        },
        {
          "pitch": 70,
          "onset": 265.5,
          "duration": 0.5,
          "velocity": 100
        },
        {
          "pitch": 73,
          "onset": 265.75,
          "duration": 0.25,
          "velocity": 100
        },
        {
          "pitch": 76,
          "onset": 266.0,
          "duration": 0.25,
          "velocity": 100
        },
        {
          "pitch": 79,
          "onset": 266.25,
          "duration": 0.25,
          "velocity": 100
        },
        {
          "pitch": 80,
          "onset": 266.5,
          "duration": 0.25,
          "velocity": 100
        },
        {
          "pitch": 82,
          "onset": 266.75,
          "duration": 0.25,
          "velocity": 100
        },
        {
          "pitch": 80,
          "onset": 267.0,
          "duration": 0.25,
          "velocity": 100
        },
        {
          "pitch": 79,
          "onset": 267.25,
          "duration": 0.25,
          "velocity": 100
        },
        {
          "pitch": 77,
          "onset": 267.5,
          "duration": 0.25,
          "velocity": 100
        },
        {
          "pitch": 76,
          "onset": 267.75,
          "duration": 0.25,
          "velocity": 100
        },
        {
          "pitch": 77,
          "onset": 268.0,
          "duration": 0.5,
          "velocity": 100
        },
        {
          "pitch": 80,
          "onset": 268.25,
          "duration": 0.5,
          "velocity": 100
        },
        {
          "pitch": 72,
          "onset": 268.5,
          "duration": 0.5,
          "velocity": 100
        },
        {
          "pitch": 74,
          "onset": 268.75,
          "duration": 0.25,
          "velocity": 100
        },
        {
          "pitch": 75,
          "onset": 269.0,
          "duration": 0.25,
          "velocity": 100
        },
        {
          "pitch": 78,
          "onset": 269.25,
          "duration": 0.25,
          "velocity": 100
        },
        {
          "pitch": 77,
          "onset": 269.5,
          "duration": 0.25,
          "velocity": 100
        },
        {
          "pitch": 75,
          "onset": 269.75,
          "duration": 0.25,
          "velocity": 100
        },
        {
          "pitch": 74,
          "onset": 270.0,
          "duration": 0.25,
          "velocity": 100
        },
        {
          "pitch": 72,
          "onset": 270.25,
          "duration": 0.25,
          "velocity": 100
        },
        {
          "pitch": 70,
          "onset": 270.5,
          "duration": 0.25,
          "velocity": 100
        },
        {
          "pitch": 69,
          "onset": 270.75,
          "duration": 0.25,
          "velocity": 100
        },
        {
          "pitch": 70,
          "onset": 271.0,
          "duration": 0.5,
          "velocity": 100
        },
        {
          "pitch": 74,
          "onset": 271.25,
          "duration": 0.5,
          "velocity": 100
        },
        {
          "pitch": 65,
          "onset": 271.5,
          "duration": 0.5,
          "velocity": 100
        },
        {
          "pitch": 67,
          "onset": 271.75,
          "duration": 0.25,
          "velocity": 100
        },
        {
          "pitch": 68,
          "onset": 272.0,
          "duration": 0.25,
          "velocity": 100
        },
        {
          "pitch": 72,
          "onset": 272.25,
          "duration": 0.5,
          "velocity": 100
        },
        {
          "pitch": 70,
          "onset": 272.5,
          "duration": 0.25,
          "velocity": 100
        },
        {
          "pitch": 68,
          "onset": 272.75,
          "duration": 0.25,
          "velocity": 100
        },
        {
          "pitch": 67,
          "onset": 273.0,
          "duration": 0.25,
          "velocity": 100
        },
        {
          "pitch": 65,
          "onset": 273.25,
          "duration": 0.25,
          "velocity": 100
        },
        {
          "pitch": 63,
          "onset": 273.5,
          "duration": 0.25,
          "velocity": 100
        },
        {
          "pitch": 62,
          "onset": 273.75,
          "duration": 0.25,
          "velocity": 100
        },
        {
          "pitch": 63,
          "onset": 274.0,
          "duration": 0.25,
          "velocity": 100
        },
        {
          "pitch": 67,
          "onset": 274.25,
          "duration": 0.25,
          "velocity": 100
        },
        {
          "pitch": 58,
          "onset": 274.5,
          "duration": 0.25,
          "velocity": 100
        },
        {
          "pitch": 60,
          "onset": 274.75,
          "duration": 0.25,
          "velocity": 100
        },
        {
          "pitch": 61,
          "onset": 275.0,
          "duration": 0.25,
          "velocity": 100
        },
        {
          "pitch": 65,
          "onset": 275.25,
          "duration": 0.25,
          "velocity": 100
        },
        {
          "pitch": 63,
          "onset": 275.5,
          "duration": 0.25,
          "velocity": 100
        },
        {
          "pitch": 61,
          "onset": 275.75,
          "duration": 0.25,
          "velocity": 100
        },
        {
          "pitch": 60,
          "onset": 276.0,
          "duration": 0.25,
          "velocity": 100
        },
        {
          "pitch": 58,
          "onset": 276.25,
          "duration": 0.25,
          "velocity": 100
        },
        {
          "pitch": 56,
          "onset": 276.5,
          "duration": 0.25,
          "velocity": 100
        },
        {
          "pitch": 55,
          "onset": 276.75,
          "duration": 0.25,
          "velocity": 100
        },
        {
          "pitch": 56,
          "onset": 277.0,
          "duration": 0.25,
          "velocity": 100
        },
        {
          "pitch": 60,
          "onset": 277.25,
          "duration": 0.25,
          "velocity": 100
        },
        {
          "pitch": 51,
          "onset": 277.5,
          "duration": 0.25,
          "velocity": 100
        },
        {
          "pitch": 53,
          "onset": 277.75,
          "duration": 0.25,
          "velocity": 100
        },
        {
          "pitch": 55,
          "onset": 278.0,
          "duration": 0.25,
          "velocity": 100
        },
        {
          "pitch": 58,
          "onset": 278.25,
          "duration": 0.25,
          "velocity": 100
        },
        {
          "pitch": 56,
          "onset": 278.5,
          "duration": 0.25,
          "velocity": 100
        },
        {
          "pitch": 55,
          "onset": 278.75,
          "duration": 0.25,
          "velocity": 100
        },
        {
          "pitch": 55,
          "onset": 279.75,
          "duration": 0.75,
          "velocity": 100
        },
        {
          "pitch": 56,
          "onset": 280.0,
          "duration": 0.25,
          "velocity": 100
        },
        {
          "pitch": 59,
          "onset": 280.25,
          "duration": 0.25,
          "velocity": 100
        },
        {
          "pitch": 56,
          "onset": 281.25,
          "duration": 0.75,
          "velocity": 100
        },
        {
          "pitch": 58,
          "onset": 281.5,
          "duration": 0.25,
          "velocity": 100
        },
        {
          "pitch": 60,
          "onset": 281.75,
          "duration": 0.25,
          "velocity": 100
        },
        {
          "pitch": 56,
          "onset": 282.75,
          "duration": 0.5,
          "velocity": 100
        },
        {
          "pitch": 62,
          "onset": 283.0,
          "duration": 0.5,
          "velocity": 100
        },
        {
          "pitch": 63,
          "onset": 283.25,
          "duration": 0.5,
          "velocity": 100
        },
        {
          "pitch": 65,
          "onset": 283.5,
          "duration": 0.5,
          "velocity": 100
        },
        {
          "pitch": 62,
          "onset": 283.75,
          "duration": 0.5,
          "velocity": 100
        },
        {
          "pitch": 59,
          "onset": 284.0,
          "duration": 0.5,
          "velocity": 100
        },
        {
          "pitch": 67,
          "onset": 285.25,
          "duration": 0.25,
          "velocity": 100
        },
        {
          "pitch": 69,
          "onset": 285.5,
          "duration": 0.25,
          "velocity": 100
        },
        {
          "pitch": 71,
          "onset": 285.75,
          "duration": 0.25,
          "velocity": 100
        },
        {
          "pitch": 72,
          "onset": 286.0,
          "duration": 0.25,
          "velocity": 100
        },
        {
          "pitch": 74,
          "onset": 286.25,
          "duration": 0.25,
          "velocity": 100
        },
        {
          "pitch": 75,
          "onset": 286.5,
          "duration": 0.5,
          "velocity": 100
        },
        {
          "pitch": 79,
          "onset": 286.75,
          "duration": 0.5,
          "velocity": 100
        },
        {
          "pitch": 75,
          "onset": 287.0,
          "duration": 0.5,
          "velocity": 100
        },
        {
          "pitch": 72,
          "onset": 287.25,
          "duration": 0.5,
          "velocity": 100
        },
        {
          "pitch": 74,
          "onset": 287.5,
          "duration": 0.5,
          "velocity": 100
        },
        {
          "pitch": 71,
          "onset": 287.75,
          "duration": 0.25,
          "velocity": 100
        },
        {
          "pitch": 72,
          "onset": 288.0,
          "duration": 6.0,
          "velocity": 100
        },
        {
          "pitch": 67,
          "onset": 288.25,
          "duration": 5.75,
          "velocity": 100
        },
        {
          "pitch": 63,
          "onset": 288.5,
          "duration": 5.5,
          "velocity": 100
        },
        {
          "pitch": 60,
          "onset": 288.75,
          "duration": 5.25,
          "velocity": 100
        },
        {
          "pitch": 72,
          "onset": 297.25,
          "duration": 0.25,
          "velocity": 1
        }
      ]
    },
    {
      "role": "v2",
      "notes": [
        {
          "pitch": 48,
          "onset": 0.0,
          "duration": 0.25,
          "velocity": 1
        },
        {
          "pitch": 51,
          "onset": 55.5,
          "duration": 0.5,
          "velocity": 100
        },
        {
          "pitch": 60,
          "onset": 55.75,
          "duration": 0.5,
          "velocity": 100
        },
        {
          "pitch": 67,
          "onset": 56.0,
          "duration": 0.5,
          "velocity": 100
        },
        {
          "pitch": 55,
          "onset": 63.0,
          "duration": 0.75,
          "velocity": 100
        },
        {
          "pitch": 62,
          "onset": 63.25,
          "duration": 0.5,
          "velocity": 100
        },
        {
          "pitch": 65,
          "onset": 63.5,
          "duration": 0.5,
          "velocity": 100
        },
        {
          "pitch": 57,
          "onset": 64.5,
          "duration": 0.75,
          "velocity": 100
        },
        {
          "pitch": 60,
          "onset": 64.75,
          "duration": 0.5,
          "velocity": 100
        },
        {
          "pitch": 63,
          "onset": 65.0,
          "duration": 0.5,
          "velocity": 100
        },
        {
          "pitch": 59,
          "onset": 66.0,
          "duration": 0.25,
          "velocity": 100
        },
        {
          "pitch": 60,
          "onset": 66.25,
          "duration": 0.25,
          "velocity": 100
        },
        {
          "pitch": 62,
          "onset": 66.5,
          "duration": 0.25,
          "velocity": 100
        },
        {
          "pitch": 55,
          "onset": 72.25,
          "duration": 0.75,
          "velocity": 100
        },
        {
          "pitch": 59,
          "onset": 72.5,
          "duration": 0.5,
          "velocity": 100
        },
        {
          "pitch": 62,
          "onset": 72.75,
          "duration": 0.5,
          "velocity": 100
        },
        {
          "pitch": 57,
          "onset": 87.0,
          "duration": 0.5,
          "velocity": 100
        },
        {
          "pitch": 59,
          "onset": 87.25,
          "duration": 0.25,
          "velocity": 100
        },
        {
          "pitch": 60,
          "onset": 87.5,
          "duration": 0.25,
          "velocity": 100
        },
        {
          "pitch": 55,
          "onset": 88.5,
          "duration": 0.5,
          "velocity": 100
        },
        {
          "pitch": 59,
          "onset": 88.75,
          "duration": 0.25,
          "velocity": 100
        },
        {
          "pitch": 60,
          "onset": 89.0,
          "duration": 0.25,
          "velocity": 100
        },
        {
          "pitch": 54,
          "onset": 90.0,
          "duration": 0.5,
          "velocity": 100
        },
        {
          "pitch": 57,
          "onset": 90.25,
          "duration": 0.5,
          "velocity": 100
        },
        {
          "pitch": 60,
          "onset": 90.5,
          "duration": 0.5,
          "velocity": 100
        },
        {
          "pitch": 50,
          "onset": 91.5,
          "duration": 0.75,
          "velocity": 100
        },
        {
          "pitch": 55,
          "onset": 96.75,
          "duration": 0.75,
          "velocity": 100
        },
        {
          "pitch": 50,
          "onset": 97.0,
          "duration": 0.75,
          "velocity": 100
        },
        {
          "pitch": 47,
          "onset": 97.25,
          "duration": 0.75,
          "velocity": 100
        },
        {
          "pitch": 58,
          "onset": 124.0,
          "duration": 1.5,
          "velocity": 100
        },
        {
          "pitch": 58,
          "onset": 125.5,
          "duration": 1.5,
          "velocity": 100
        },
        {
          "pitch": 58,
          "onset": 127.0,
          "duration": 1.5,
          "velocity": 100
        },
        {
          "pitch": 58,
          "onset": 128.5,
          "duration": 0.5,
          "velocity": 100
        },
        {
          "pitch": 46,
          "onset": 216.25,
          "duration": 0.5,
          "velocity": 100
        },
        {
          "pitch": 50,
          "onset": 216.5,
          "duration": 0.5,
          "velocity": 100
        },
        {
          "pitch": 53,
          "onset": 216.75,
          "duration": 0.5,
          "velocity": 100
        },
        {
          "pitch": 56,
          "onset": 217.0,
          "duration": 0.5,
          "velocity": 100
        },
        {
          "pitch": 58,
          "onset": 217.25,
          "duration": 0.5,
          "velocity": 100
        },
        {
          "pitch": 51,
          "onset": 259.5,
          "duration": 1.5,
          "velocity": 100
        },
        {
          "pitch": 60,
          "onset": 259.75,
          "duration": 1.25,
          "velocity": 100
        },
        {
          "pitch": 67,
          "onset": 260.0,
          "duration": 1.0,
          "velocity": 100
        },
        {
          "pitch": 52,
          "onset": 279.25,
          "duration": 0.25,
          "velocity": 100
        },
        {
          "pitch": 53,
          "onset": 279.5,
          "duration": 0.25,
          "velocity": 100
        },
        {
          "pitch": 51,
          "onset": 280.75,
          "duration": 0.25,
          "velocity": 100
        },
        {
          "pitch": 53,
          "onset": 281.0,
          "duration": 0.25,
          "velocity": 100
        },
        {
          "pitch": 52,
          "onset": 282.25,
          "duration": 0.5,
          "velocity": 100
        },
        {
          "pitch": 53,
          "onset": 282.5,
          "duration": 0.5,
          "velocity": 100
        },
        {
          "pitch": 56,
          "onset": 284.25,
          "duration": 0.5,
          "velocity": 100
        },
        {
          "pitch": 55,
          "onset": 284.5,
          "duration": 0.5,
          "velocity": 100
        },
        {
          "pitch": 53,
          "onset": 284.75,
          "duration": 0.25,
          "velocity": 100
        },
        {
          "pitch": 55,
          "onset": 289.0,
          "duration": 5.0,
          "velocity": 100
        },
        {
          "pitch": 51,
          "onset": 289.25,
          "duration": 4.75,
          "velocity": 100
        },
        {
          "pitch": 48,
          "onset": 289.75,
          "duration": 4.25,
          "velocity": 100
        }
      ]
    },
    {
      "role": "v3",
      "notes": [
        {
          "pitch": 48,
          "onset": 0.0,
          "duration": 0.25,
          "velocity": 1
        },
        {
          "pitch": 48,
          "onset": 3.0,
          "duration": 1.5,
          "velocity": 100
        },
        {
          "pitch": 46,
          "onset": 4.5,
          "duration": 1.5,
          "velocity": 100
        },
        {
          "pitch": 44,
          "onset": 6.0,
          "duration": 1.5,
          "velocity": 100
        },
        {
          "pitch": 39,
          "onset": 7.5,
          "duration": 1.5,
          "velocity": 100
        },
        {
          "pitch": 41,
          "onset": 9.0,
          "duration": 1.5,
          "velocity": 100
        },
        {
          "pitch": 43,
          "onset": 10.5,
          "duration": 1.5,
          "velocity": 100
        },
        {
          "pitch": 36,
          "onset": 12.0,
          "duration": 1.0,
          "velocity": 100
        },
        {
          "pitch": 38,
          "onset": 13.0,
          "duration": 0.5,
          "velocity": 100
        },
        {
          "pitch": 39,
          "onset": 13.5,
          "duration": 0.5,
          "velocity": 100
        },
        {
          "pitch": 38,
          "onset": 14.0,
          "duration": 0.5,
          "velocity": 100
        },
        {
          "pitch": 36,
          "onset": 14.5,
          "duration": 0.5,
          "velocity": 100
        },
        {
          "pitch": 43,
          "onset": 15.0,
          "duration": 1.5,
          "velocity": 100
        },
        {
          "pitch": 45,
          "onset": 16.5,
          "duration": 1.5,
          "velocity": 100
        },
        {
          "pitch": 47,
          "onset": 18.0,
          "duration": 1.5,
          "velocity": 100
        },
        {
          "pitch": 48,
          "onset": 19.5,
          "duration": 1.5,
          "velocity": 100
        },
        {
          "pitch": 44,
          "onset": 21.0,
          "duration": 1.5,
          "velocity": 100
        },
        {
          "pitch": 41,
          "onset": 22.5,
          "duration": 1.5,
          "velocity": 100
        },
        {
          "pitch": 43,
          "onset": 24.0,
          "duration": 0.75,
          "velocity": 100
        },
        {
          "pitch": 47,
          "onset": 24.75,
          "duration": 0.25,
          "velocity": 100
        },
        {
          "pitch": 50,
          "onset": 25.0,
          "duration": 0.5,
          "velocity": 100
        },
        {
          "pitch": 55,
          "onset": 25.5,
          "duration": 0.75,
          "velocity": 100
        },
        {
          "pitch": 57,
          "onset": 26.25,
          "duration": 0.25,
          "velocity": 100
        },
        {
          "pitch": 59,
          "onset": 26.5,
          "duration": 0.5,
          "velocity": 100
        },
        {
          "pitch": 48,
          "onset": 27.0,
          "duration": 1.0,
          "velocity": 100
        },
        {
          "pitch": 50,
          "onset": 28.0,
          "duration": 0.5,
          "velocity": 100
        },
        {
          "pitch": 51,
          "onset": 28.5,
          "duration": 1.0,
          "velocity": 100
        },
        {
          "pitch": 52,
          "onset": 29.5,
          "duration": 0.5,
          "velocity": 100
        },
        {
          "pitch": 53,
          "onset": 30.0,
          "duration": 1.0,
          "velocity": 100
        },
        {
          "pitch": 55,
          "onset": 31.0,
          "duration": 0.5,
          "velocity": 100
        },
        {
          "pitch": 56,
          "onset": 31.5,
          "duration": 1.0,
          "velocity": 100
        },
        {
          "pitch": 57,
          "onset": 32.5,
          "duration": 0.5,
          "velocity": 100
        },
        {
          "pitch": 46,
          "onset": 33.0,
          "duration": 1.0,
          "velocity": 100
        },
        {
          "pitch": 48,
          "onset": 34.0,
          "duration": 0.5,
          "velocity": 100
        },
        {
          "pitch": 50,
          "onset": 34.5,
          "duration": 1.0,
          "velocity": 100
        },
        {
          "pitch": 48,
          "onset": 35.5,
          "duration": 0.5,
          "velocity": 100
        },
        {
          "pitch": 46,
          "onset": 36.0,
          "duration": 1.0,
          "velocity": 100
        },
        {
          "pitch": 44,
          "onset": 37.0,
          "duration": 0.5,
          "velocity": 100
        },
        {
          "pitch": 43,
          "onset": 37.5,
          "duration": 1.0,
          "velocity": 100
        },
        {
          "pitch": 41,
          "onset": 38.5,
          "duration": 0.5,
          "velocity": 100
        },
        {
          "pitch": 39,
          "onset": 39.0,
          "duration": 1.5,
          "velocity": 100
        },
        {
          "pitch": 47,
          "onset": 40.5,
          "duration": 1.5,
          "velocity": 100
        },
        {
          "pitch": 48,
          "onset": 42.0,
          "duration": 1.5,
          "velocity": 100
        },
        {
          "pitch": 45,
          "onset": 43.5,
          "duration": 1.5,
          "velocity": 100
        },
        {
          "pitch": 46,
          "onset": 45.0,
          "duration": 1.0,
          "velocity": 100
        },
        {
          "pitch": 43,
          "onset": 46.0,
          "duration": 0.5,
          "velocity": 100
        },
        {
          "pitch": 50,
          "onset": 46.5,
          "duration": 1.0,
          "velocity": 100
        },
        {
          "pitch": 38,
          "onset": 47.5,
          "duration": 0.5,
          "velocity": 100
        },
        {
          "pitch": 43,
          "onset": 48.0,
          "duration": 0.75,
          "velocity": 100
        },
        {
          "pitch": 47,
          "onset": 48.75,
          "duration": 0.25,
          "velocity": 100
        },
        {
          "pitch": 50,
          "onset": 49.0,
          "duration": 0.5,
          "velocity": 100
        },
        {
          "pitch": 55,
          "onset": 49.5,
          "duration": 1.0,
          "velocity": 100
        },
        {
          "pitch": 60,
          "onset": 51.0,
          "duration": 1.5,
          "velocity": 100
        },
        {
          "pitch": 58,
          "onset": 52.5,
          "duration": 1.5,
          "velocity": 100
        },
        {
          "pitch": 56,
          "onset": 54.0,
          "duration": 1.5,
          "velocity": 100
        },
        {
          "pitch": 53,
          "onset": 57.0,
          "duration": 1.5,
          "velocity": 100
        },
        {
          "pitch": 55,
          "onset": 58.5,
          "duration": 1.5,
          "velocity": 100
        },
        {
          "pitch": 48,
          "onset": 60.0,
          "duration": 1.5,
          "velocity": 100
        },
        {
          "pitch": 60,
          "onset": 67.5,
          "duration": 1.5,
          "velocity": 100
        },
        {
          "pitch": 56,
          "onset": 69.0,
          "duration": 1.5,
          "velocity": 100
        },
        {
          "pitch": 53,
          "onset": 70.5,
          "duration": 1.5,
          "velocity": 100
        },
        {
          "pitch": 48,
          "onset": 75.0,
          "duration": 1.5,
          "velocity": 100
        },
        {
          "pitch": 51,
          "onset": 76.5,
          "duration": 1.5,
          "velocity": 100
        },
        {
          "pitch": 53,
          "onset": 78.0,
          "duration": 1.5,
          "velocity": 100
        },
        {
          "pitch": 56,
          "onset": 79.5,
          "duration": 1.5,
          "velocity": 100
        },
        {
          "pitch": 46,
          "onset": 81.0,
          "duration": 1.5,
          "velocity": 100
        },
        {
          "pitch": 50,
          "onset": 82.5,
          "duration": 1.5,
          "velocity": 100
        },
        {
          "pitch": 51,
          "onset": 84.0,
          "duration": 1.5,
          "velocity": 100
        },
        {
          "pitch": 55,
          "onset": 85.5,
          "duration": 1.5,
          "velocity": 100
        },
        {
          "pitch": 58,
          "onset": 93.0,
          "duration": 1.5,
          "velocity": 100
        },
        {
          "pitch": 62,
          "onset": 94.5,
          "duration": 1.5,
          "velocity": 100
        },
        {
          "pitch": 55,
          "onset": 96.0,
          "duration": 1.5,
          "velocity": 100
        },
        {
          "pitch": 43,
          "onset": 97.5,
          "duration": 1.5,
          "velocity": 100
        },
        {
          "pitch": 43,
          "onset": 99.0,
          "duration": 1.5,
          "velocity": 100
        },
        {
          "pitch": 47,
          "onset": 100.5,
          "duration": 1.5,
          "velocity": 100
        },
        {
          "pitch": 48,
          "onset": 102.0,
          "duration": 1.5,
          "velocity": 100
        },
        {
          "pitch": 52,
          "onset": 103.5,
          "duration": 1.5,
          "velocity": 100
        },
        {
          "pitch": 53,
          "onset": 105.0,
          "duration": 1.0,
          "velocity": 100
        },
        {
          "pitch": 49,
          "onset": 106.0,
          "duration": 0.5,
          "velocity": 100
        },
        {
          "pitch": 46,
          "onset": 106.5,
          "duration": 1.0,
          "velocity": 100
        },
        {
          "pitch": 48,
          "onset": 107.5,
          "duration": 0.5,
          "velocity": 100
        },
        {
          "pitch": 41,
          "onset": 108.0,
          "duration": 1.0,
          "velocity": 100
        },
        {
          "pitch": 43,
          "onset": 109.0,
          "duration": 0.5,
          "velocity": 100
        },
        {
          "pitch": 44,
          "onset": 109.5,
          "duration": 0.5,
          "velocity": 100
        },
        {
          "pitch": 43,
          "onset": 110.0,
          "duration": 0.5,
          "velocity": 100
        },
        {
          "pitch": 41,
          "onset": 110.5,
          "duration": 0.5,
          "velocity": 100
        },
        {
          "pitch": 46,
          "onset": 111.0,
          "duration": 1.5,
          "velocity": 100
        },
        {
          "pitch": 50,
          "onset": 112.5,
          "duration": 1.5,
          "velocity": 100
        },
        {
          "pitch": 51,
          "onset": 114.0,
          "duration": 1.5,
          "velocity": 100
        },
        {
          "pitch": 56,
          "onset": 115.5,
          "duration": 1.0,
          "velocity": 100
        },
        {
          "pitch": 55,
          "onset": 116.5,
          "duration": 0.5,
          "velocity": 100
        },
        {
          "pitch": 53,
          "onset": 117.0,
          "duration": 1.0,
          "velocity": 100
        },
        {
          "pitch": 50,
          "onset": 118.0,
          "duration": 0.5,
          "velocity": 100
        },
        {
          "pitch": 51,
          "onset": 118.5,
          "duration": 1.0,
          "velocity": 100
        },
        {
          "pitch": 48,
          "onset": 119.5,
          "duration": 0.5,
          "velocity": 100
        },
        {
          "pitch": 46,
          "onset": 120.0,
          "duration": 1.0,
          "velocity": 100
        },
        {
          "pitch": 50,
          "onset": 120.5,
          "duration": 1.0,
          "velocity": 100
        },
        {
          "pitch": 53,
          "onset": 121.0,
          "duration": 1.0,
          "velocity": 100
        },
        {
          "pitch": 56,
          "onset": 121.5,
          "duration": 0.5,
          "velocity": 100
        },
        {
          "pitch": 55,
          "onset": 122.0,
          "duration": 0.5,
          "velocity": 100
        },
        {
          "pitch": 56,
          "onset": 122.5,
          "duration": 0.5,
          "velocity": 100
        },
        {
          "pitch": 55,
          "onset": 123.0,
          "duration": 1.5,
          "velocity": 100
        },
        {
          "pitch": 50,
          "onset": 124.5,
          "duration": 1.5,
          "velocity": 100
        },
        {
          "pitch": 51,
          "onset": 126.0,
          "duration": 1.5,
          "velocity": 100
        },
        {
          "pitch": 53,
          "onset": 127.5,
          "duration": 1.5,
          "velocity": 100
        },
        {
          "pitch": 55,
          "onset": 129.0,
          "duration": 1.5,
          "velocity": 100
        },
        {
          "pitch": 56,
          "onset": 130.5,
          "duration": 1.5,
          "velocity": 100
        },
        {
          "pitch": 47,
          "onset": 132.0,
          "duration": 1.5,
          "velocity": 100
        },
        {
          "pitch": 48,
          "onset": 133.5,
          "duration": 1.5,
          "velocity": 100
        },
        {
          "pitch": 41,
          "onset": 135.0,
          "duration": 1.5,
          "velocity": 100
        },
        {
          "pitch": 45,
          "onset": 136.5,
          "duration": 1.5,
          "velocity": 100
        },
        {
          "pitch": 46,
          "onset": 138.0,
          "duration": 1.5,
          "velocity": 100
        },
        {
          "pitch": 50,
          "onset": 139.5,
          "duration": 1.5,
          "velocity": 100
        },
        {
          "pitch": 46,
          "onset": 140.5,
          "duration": 0.5,
          "velocity": 100
        },
        {
          "pitch": 51,
          "onset": 141.0,
          "duration": 1.0,
          "velocity": 100
        },
        {
          "pitch": 55,
          "onset": 142.0,
          "duration": 0.5,
          "velocity": 100
        },
        {
          "pitch": 58,
          "onset": 142.5,
          "duration": 1.0,
          "velocity": 100
        },
        {
          "pitch": 46,
          "onset": 143.5,
          "duration": 0.5,
          "velocity": 100
        },
        {
          "pitch": 51,
          "onset": 144.0,
          "duration": 0.75,
          "velocity": 100
        },
        {
          "pitch": 55,
          "onset": 144.75,
          "duration": 0.25,
          "velocity": 100
        },
        {
          "pitch": 53,
          "onset": 145.0,
          "duration": 0.5,
          "velocity": 100
        },
        {
          "pitch": 51,
          "onset": 145.5,
          "duration": 0.75,
          "velocity": 100
        },
        {
          "pitch": 50,
          "onset": 146.25,
          "duration": 0.25,
          "velocity": 100
        },
        {
          "pitch": 48,
          "onset": 146.5,
          "duration": 0.5,
          "velocity": 100
        },
        {
          "pitch": 50,
          "onset": 147.0,
          "duration": 1.0,
          "velocity": 100
        },
        {
          "pitch": 52,
          "onset": 148.0,
          "duration": 0.5,
          "velocity": 100
        },
        {
          "pitch": 53,
          "onset": 148.5,
          "duration": 1.0,
          "velocity": 100
        },
        {
          "pitch": 55,
          "onset": 149.5,
          "duration": 0.5,
          "velocity": 100
        },
        {
          "pitch": 56,
          "onset": 150.0,
          "duration": 1.0,
          "velocity": 100
        },
        {
          "pitch": 55,
          "onset": 151.0,
          "duration": 0.5,
          "velocity": 100
        },
        {
          "pitch": 53,
          "onset": 151.5,
          "duration": 1.0,
          "velocity": 100
        },
        {
          "pitch": 51,
          "onset": 152.5,
          "duration": 0.5,
          "velocity": 100
        },
        {
          "pitch": 50,
          "onset": 153.0,
          "duration": 1.0,
          "velocity": 100
        },
        {
          "pitch": 43,
          "onset": 154.0,
          "duration": 0.5,
          "velocity": 100
        },
        {
          "pitch": 48,
          "onset": 154.5,
          "duration": 1.0,
          "velocity": 100
        },
        {
          "pitch": 44,
          "onset": 155.5,
          "duration": 0.5,
          "velocity": 100
        },
        {
          "pitch": 43,
          "onset": 156.0,
          "duration": 2.25,
          "velocity": 100
        },
        {
          "pitch": 45,
          "onset": 158.25,
          "duration": 0.25,
          "velocity": 100
        },
        {
          "pitch": 47,
          "onset": 158.5,
          "duration": 0.5,
          "velocity": 100
        },
        {
          "pitch": 48,
          "onset": 159.0,
          "duration": 1.5,
          "velocity": 100
        },
        {
          "pitch": 46,
          "onset": 160.5,
          "duration": 1.5,
          "velocity": 100
        },
        {
          "pitch": 44,
          "onset": 162.0,
          "duration": 1.5,
          "velocity": 100
        },
        {
          "pitch": 39,
          "onset": 163.5,
          "duration": 1.5,
          "velocity": 100
        },
        {
          "pitch": 41,
          "onset": 165.0,
          "duration": 1.5,
          "velocity": 100
        },
        {
          "pitch": 43,
          "onset": 166.5,
          "duration": 1.5,
          "velocity": 100
        },
        {
          "pitch": 48,
          "onset": 168.0,
          "duration": 1.0,
          "velocity": 100
        },
        {
          "pitch": 50,
          "onset": 169.0,
          "duration": 0.5,
          "velocity": 100
        },
        {
          "pitch": 52,
          "onset": 169.5,
          "duration": 1.0,
          "velocity": 100
        },
        {
          "pitch": 48,
          "onset": 170.5,
          "duration": 0.5,
          "velocity": 100
        },
        {
          "pitch": 41,
          "onset": 171.0,
          "duration": 1.0,
          "velocity": 100
        },
        {
          "pitch": 43,
          "onset": 172.0,
          "duration": 0.5,
          "velocity": 100
        },
        {
          "pitch": 44,
          "onset": 172.5,
          "duration": 1.0,
          "velocity": 100
        },
        {
          "pitch": 45,
          "onset": 173.5,
          "duration": 0.5,
          "velocity": 100
        },
        {
          "pitch": 46,
          "onset": 174.0,
          "duration": 1.0,
          "velocity": 100
        },
        {
          "pitch": 48,
          "onset": 175.0,
          "duration": 0.5,
          "velocity": 100
        },
        {
          "pitch": 49,
          "onset": 175.5,
          "duration": 1.0,
          "velocity": 100
        },
        {
          "pitch": 50,
          "onset": 176.5,
          "duration": 0.5,
          "velocity": 100
        },
        {
          "pitch": 51,
          "onset": 177.0,
          "duration": 1.0,
          "velocity": 100
        },
        {
          "pitch": 53,
          "onset": 178.0,
          "duration": 0.5,
          "velocity": 100
        },
        {
          "pitch": 55,
          "onset": 178.5,
          "duration": 1.0,
          "velocity": 100
        },
        {
          "pitch": 53,
          "onset": 179.5,
          "duration": 0.5,
          "velocity": 100
        },
        {
          "pitch": 51,
          "onset": 180.0,
          "duration": 1.0,
          "velocity": 100
        },
        {
          "pitch": 49,
          "onset": 181.0,
          "duration": 0.5,
          "velocity": 100
        },
        {
          "pitch": 48,
          "onset": 181.5,
          "duration": 1.0,
          "velocity": 100
        },
        {
          "pitch": 46,
          "onset": 182.5,
          "duration": 0.5,
          "velocity": 100
        },
        {
          "pitch": 44,
          "onset": 183.0,
          "duration": 1.5,
          "velocity": 100
        },
        {
          "pitch": 52,
          "onset": 184.5,
          "duration": 1.5,
          "velocity": 100
        },
        {
          "pitch": 53,
          "onset": 186.0,
          "duration": 1.5,
          "velocity": 100
        },
        {
          "pitch": 50,
          "onset": 187.5,
          "duration": 1.5,
          "velocity": 100
        },
        {
          "pitch": 51,
          "onset": 189.0,
          "duration": 1.0,
          "velocity": 100
        },
        {
          "pitch": 48,
          "onset": 190.0,
          "duration": 0.5,
          "velocity": 100
        },
        {
          "pitch": 55,
          "onset": 190.5,
          "duration": 1.0,
          "velocity": 100
        },
        {
          "pitch": 43,
          "onset": 191.5,
          "duration": 0.5,
          "velocity": 100
        },
        {
          "pitch": 48,
          "onset": 192.0,
          "duration": 0.75,
          "velocity": 100
        },
        {
          "pitch": 39,
          "onset": 192.75,
          "duration": 0.25,
          "velocity": 100
        },
        {
          "pitch": 43,
          "onset": 193.0,
          "duration": 0.5,
          "velocity": 100
        },
        {
          "pitch": 36,
          "onset": 193.5,
          "duration": 1.0,
          "velocity": 100
        },
        {
          "pitch": 43,
          "onset": 195.0,
          "duration": 1.5,
          "velocity": 100
        },
        {
          "pitch": 47,
          "onset": 196.5,
          "duration": 1.5,
          "velocity": 100
        },
        {
          "pitch": 46,
          "onset": 198.0,
          "duration": 1.5,
          "velocity": 100
        },
        {
          "pitch": 40,
          "onset": 199.5,
          "duration": 1.5,
          "velocity": 100
        },
        {
          "pitch": 41,
          "onset": 201.0,
          "duration": 1.0,
          "velocity": 100
        },
        {
          "pitch": 44,
          "onset": 202.0,
          "duration": 0.5,
          "velocity": 100
        },
        {
          "pitch": 43,
          "onset": 202.5,
          "duration": 1.0,
          "velocity": 100
        },
        {
          "pitch": 48,
          "onset": 203.5,
          "duration": 0.5,
          "velocity": 100
        },
        {
          "pitch": 41,
          "onset": 204.0,
          "duration": 1.5,
          "velocity": 100
        },
        {
          "pitch": 46,
          "onset": 207.0,
          "duration": 1.0,
          "velocity": 100
        },
        {
          "pitch": 58,
          "onset": 208.0,
          "duration": 0.5,
          "velocity": 100
        },
        {
          "pitch": 50,
          "onset": 208.5,
          "duration": 1.0,
          "velocity": 100
        },
        {
          "pitch": 58,
          "onset": 209.5,
          "duration": 0.5,
          "velocity": 100
        },
        {
          "pitch": 51,
          "onset": 210.0,
          "duration": 1.0,
          "velocity": 100
        },
        {
          "pitch": 63,
          "onset": 211.0,
          "duration": 0.5,
          "velocity": 100
        },
        {
          "pitch": 55,
          "onset": 211.5,
          "duration": 1.0,
          "velocity": 100
        },
        {
          "pitch": 63,
          "onset": 212.5,
          "duration": 0.5,
          "velocity": 100
        },
        {
          "pitch": 56,
          "onset": 213.0,
          "duration": 1.0,
          "velocity": 100
        },
        {
          "pitch": 53,
          "onset": 214.0,
          "duration": 0.5,
          "velocity": 100
        },
        {
          "pitch": 51,
          "onset": 214.5,
          "duration": 1.0,
          "velocity": 100
        },
        {
          "pitch": 48,
          "onset": 215.5,
          "duration": 0.5,
          "velocity": 100
        },
        {
          "pitch": 56,
          "onset": 218.75,
          "duration": 0.25,
          "velocity": 100
        },
        {
          "pitch": 55,
          "onset": 219.0,
          "duration": 1.0,
          "velocity": 100
        },
        {
          "pitch": 50,
          "onset": 220.5,
          "duration": 1.0,
          "velocity": 100
        },
        {
          "pitch": 51,
          "onset": 222.0,
          "duration": 1.0,
          "velocity": 100
        },
        {
          "pitch": 53,
          "onset": 223.5,
          "duration": 1.0,
          "velocity": 100
        },
        {
          "pitch": 55,
          "onset": 225.0,
          "duration": 1.0,
          "velocity": 100
        },
        {
          "pitch": 51,
          "onset": 226.0,
          "duration": 0.5,
          "velocity": 100
        },
        {
          "pitch": 44,
          "onset": 226.5,
          "duration": 1.0,
          "velocity": 100
        },
        {
          "pitch": 56,
          "onset": 227.5,
          "duration": 0.5,
          "velocity": 100
        },
        {
          "pitch": 47,
          "onset": 228.0,
          "duration": 1.0,
          "velocity": 100
        },
        {
          "pitch": 55,
          "onset": 229.0,
          "duration": 0.5,
          "velocity": 100
        },
        {
          "pitch": 48,
          "onset": 229.5,
          "duration": 1.0,
          "velocity": 100
        },
        {
          "pitch": 60,
          "onset": 230.5,
          "duration": 0.5,
          "velocity": 100
        },
        {
          "pitch": 53,
          "onset": 231.0,
          "duration": 1.5,
          "velocity": 100
        },
        {
          "pitch": 57,
          "onset": 232.5,
          "duration": 1.5,
          "velocity": 100
        },
        {
          "pitch": 58,
          "onset": 234.0,
          "duration": 1.5,
          "velocity": 100
        },
        {
          "pitch": 50,
          "onset": 235.5,
          "duration": 1.5,
          "velocity": 100
        },
        {
          "pitch": 51,
          "onset": 237.0,
          "duration": 1.0,
          "velocity": 100
        },
        {
          "pitch": 55,
          "onset": 238.0,
          "duration": 0.5,
          "velocity": 100
        },
        {
          "pitch": 58,
          "onset": 238.5,
          "duration": 1.0,
          "velocity": 100
        },
        {
          "pitch": 46,
          "onset": 239.5,
          "duration": 0.5,
          "velocity": 100
        },
        {
          "pitch": 39,
          "onset": 240.0,
          "duration": 1.5,
          "velocity": 100
        },
        {
          "pitch": 51,
          "onset": 241.5,
          "duration": 1.5,
          "velocity": 100
        },
        {
          "pitch": 50,
          "onset": 243.0,
          "duration": 0.5,
          "velocity": 100
        },
        {
          "pitch": 51,
          "onset": 243.5,
          "duration": 0.5,
          "velocity": 100
        },
        {
          "pitch": 53,
          "onset": 244.0,
          "duration": 0.5,
          "velocity": 100
        },
        {
          "pitch": 51,
          "onset": 244.5,
          "duration": 0.5,
          "velocity": 100
        },
        {
          "pitch": 52,
          "onset": 245.0,
          "duration": 0.5,
          "velocity": 100
        },
        {
          "pitch": 53,
          "onset": 245.5,
          "duration": 0.5,
          "velocity": 100
        },
        {
          "pitch": 55,
          "onset": 246.0,
          "duration": 0.5,
          "velocity": 100
        },
        {
          "pitch": 56,
          "onset": 246.5,
          "duration": 0.5,
          "velocity": 100
        },
        {
          "pitch": 58,
          "onset": 247.0,
          "duration": 0.5,
          "velocity": 100
        },
        {
          "pitch": 56,
          "onset": 247.5,
          "duration": 0.5,
          "velocity": 100
        },
        {
          "pitch": 53,
          "onset": 248.0,
          "duration": 0.5,
          "velocity": 100
        },
        {
          "pitch": 55,
          "onset": 248.5,
          "duration": 0.5,
          "velocity": 100
        },
        {
          "pitch": 57,
          "onset": 249.0,
          "duration": 0.5,
          "velocity": 100
        },
        {
          "pitch": 59,
          "onset": 249.5,
          "duration": 0.5,
          "velocity": 100
        },
        {
          "pitch": 60,
          "onset": 250.0,
          "duration": 0.5,
          "velocity": 100
        },
        {
          "pitch": 56,
          "onset": 250.5,
          "duration": 0.5,
          "velocity": 100
        },
        {
          "pitch": 51,
          "onset": 251.0,
          "duration": 0.5,
          "velocity": 100
        },
        {
          "pitch": 53,
          "onset": 251.5,
          "duration": 0.5,
          "velocity": 100
        },
        {
          "pitch": 55,
          "onset": 252.0,
          "duration": 2.0,
          "velocity": 100
        },
        {
          "pitch": 59,
          "onset": 254.0,
          "duration": 0.5,
          "velocity": 100
        },
        {
          "pitch": 55,
          "onset": 254.5,
          "duration": 0.5,
          "velocity": 100
        },
        {
          "pitch": 60,
          "onset": 255.0,
          "duration": 1.5,
          "velocity": 100
        },
        {
          "pitch": 58,
          "onset": 256.5,
          "duration": 1.5,
          "velocity": 100
        },
        {
          "pitch": 56,
          "onset": 258.0,
          "duration": 1.5,
          "velocity": 100
        },
        {
          "pitch": 53,
          "onset": 261.0,
          "duration": 1.5,
          "velocity": 100
        },
        {
          "pitch": 55,
          "onset": 262.5,
          "duration": 1.5,
          "velocity": 100
        },
        {
          "pitch": 48,
          "onset": 264.0,
          "duration": 1.5,
          "velocity": 100
        },
        {
          "pitch": 41,
          "onset": 267.0,
          "duration": 1.5,
          "velocity": 100
        },
        {
          "pitch": 44,
          "onset": 268.5,
          "duration": 1.5,
          "velocity": 100
        },
        {
          "pitch": 46,
          "onset": 270.0,
          "duration": 1.5,
          "velocity": 100
        },
        {
          "pitch": 50,
          "onset": 271.5,
          "duration": 1.5,
          "velocity": 100
        },
        {
          "pitch": 39,
          "onset": 273.0,
          "duration": 1.5,
          "velocity": 100
        },
        {
          "pitch": 43,
          "onset": 274.5,
          "duration": 1.5,
          "velocity": 100
        },
        {
          "pitch": 44,
          "onset": 276.0,
          "duration": 1.5,
          "velocity": 100
        },
        {
          "pitch": 48,
          "onset": 277.5,
          "duration": 1.5,
          "velocity": 100
        },
        {
          "pitch": 50,
          "onset": 279.0,
          "duration": 1.5,
          "velocity": 100
        },
        {
          "pitch": 48,
          "onset": 280.5,
          "duration": 1.5,
          "velocity": 100
        },
        {
          "pitch": 47,
          "onset": 282.0,
          "duration": 1.5,
          "velocity": 100
        },
        {
          "pitch": 43,
          "onset": 283.5,
          "duration": 1.5,
          "velocity": 100
        },
        {
          "pitch": 51,
          "onset": 285.0,
          "duration": 1.0,
          "velocity": 100
        },
        {
          "pitch": 48,
          "onset": 286.0,
          "duration": 0.5,
          "velocity": 100
        },
        {
          "pitch": 55,
          "onset": 286.5,
          "duration": 1.0,
          "velocity": 100
        },
        {
          "pitch": 43,
          "onset": 287.5,
          "duration": 0.5,
          "velocity": 100
        },
        {
          "pitch": 36,
          "onset": 288.0,
          "duration": 6.0,
          "velocity": 100
        }
      ]
    }
  ]
}