{
  "bwv": 996,
  "category": "lute_suite",
  "instrument": "lute",
  "form": "",
  "movement": 2,
  "tonic": "E",
  "mode": "minor",
  "confidence": "verified",
  "ticks_per_beat": 384,
  "duration_seconds": 154.9,
  "tempos": [
    {
      "tick": 0,
      "bpm": 60
    },
    {
      "tick": 48,
      "bpm": 240
    },
    {
      "tick": 1392,
      "bpm": 60
    },
    {
      "tick": 13152,
      "bpm": 60
    },
    {
      "tick": 13248,
      "bpm": 60
    },
    {
      "tick": 13344,
      "bpm": 55
    },
    {
      "tick": 13728,
      "bpm": 60
    },
    {
      "tick": 25152,
      "bpm": 60
    },
    {
      "tick": 25440,
      "bpm": 55
    },
    {
      "tick": 25536,
      "bpm": 55
    },
    {
      "tick": 25632,
      "bpm": 50
    },
    {
      "tick": 26016,
      "bpm": 60
    },
    {
      "tick": 39552,
      "bpm": 60
    },
    {
      "tick": 39936,
      "bpm": 60
    },
    {
      "tick": 40320,
      "bpm": 60
    },
    {
      "tick": 40512,
      "bpm": 60
    },
    {
      "tick": 40704,
      "bpm": 55
    },
    {
      "tick": 40896,
      "bpm": 55
    },
    {
      "tick": 40992,
      "bpm": 50
    },
    {
      "tick": 41376,
      "bpm": 60
    },
    {
      "tick": 54528,
      "bpm": 60
    },
    {
      "tick": 54912,
      "bpm": 55
    },
    {
      "tick": 55296,
      "bpm": 60
    },
    {
      "tick": 55680,
      "bpm": 60
    },
    {
      "tick": 55872,
      "bpm": 55
    },
    {
      "tick": 56064,
      "bpm": 50
    },
    {
      "tick": 56160,
      "bpm": 50
    }
  ],
  "time_signatures": [
    {
      "tick": 0,
      "numerator": 4,
      "denominator": 4
    }
  ],
  "track_type": "voice",
  "voice_count": 3,
  "total_notes": 718,
  "tracks": [
    {
      "role": "v1",
      "notes": [
        {
          "pitch": 64,
          "onset": 0.0,
          "duration": 0.25,
          "velocity": 1
        },
        {
          "pitch": 59,
          "onset": 3.75,
          "duration": 0.25,
          "velocity": 100
        },
        {
          "pitch": 59,
          "onset": 4.0,
          "duration": 1.0,
          "velocity": 100
        },
        {
          "pitch": 64,
          "onset": 5.25,
          "duration": 0.25,
          "velocity": 100
        },
        {
          "pitch": 62,
          "onset": 5.5,
          "duration": 0.25,
          "velocity": 100
        },
        {
          "pitch": 60,
          "onset": 5.75,
          "duration": 0.25,
          "velocity": 100
        },
        {
          "pitch": 59,
          "onset": 6.0,
          "duration": 0.25,
          "velocity": 100
        },
        {
          "pitch": 57,
          "onset": 6.25,
          "duration": 0.25,
          "velocity": 100
        },
        {
          "pitch": 55,
          "onset": 6.5,
          "duration": 0.25,
          "velocity": 100
        },
        {
          "pitch": 54,
          "onset": 6.75,
          "duration": 0.25,
          "velocity": 100
        },
        {
          "pitch": 64,
          "onset": 7.75,
          "duration": 0.25,
          "velocity": 100
        },
        {
          "pitch": 63,
          "onset": 8.0,
          "duration": 1.25,
          "velocity": 100
        },
        {
          "pitch": 64,
          "onset": 9.25,
          "duration": 0.25,
          "velocity": 100
        },
        {
          "pitch": 63,
          "onset": 9.5,
          "duration": 0.25,
          "velocity": 100
        },
        {
          "pitch": 64,
          "onset": 9.75,
          "duration": 0.25,
          "velocity": 100
        },
        {
          "pitch": 66,
          "onset": 10.0,
          "duration": 0.25,
          "velocity": 100
        },
        {
          "pitch": 59,
          "onset": 10.25,
          "duration": 0.25,
          "velocity": 100
        },
        {
          "pitch": 64,
          "onset": 10.5,
          "duration": 0.25,
          "velocity": 100
        },
        {
          "pitch": 67,
          "onset": 10.75,
          "duration": 0.25,
          "velocity": 100
        },
        {
          "pitch": 66,
          "onset": 11.0,
          "duration": 0.25,
          "velocity": 100
        },
        {
          "pitch": 61,
          "onset": 11.25,
          "duration": 0.25,
          "velocity": 100
        },
        {
          "pitch": 63,
          "onset": 11.5,
          "duration": 0.25,
          "velocity": 100
        },
        {
          "pitch": 57,
          "onset": 11.75,
          "duration": 0.25,
          "velocity": 100
        },
        {
          "pitch": 59,
          "onset": 12.25,
          "duration": 0.25,
          "velocity": 100
        },
        {
          "pitch": 64,
          "onset": 12.5,
          "duration": 0.75,
          "velocity": 100
        },
        {
          "pitch": 59,
          "onset": 13.25,
          "duration": 0.25,
          "velocity": 100
        },
        {
          "pitch": 60,
          "onset": 13.5,
          "duration": 0.25,
          "velocity": 100
        },
        {
          "pitch": 62,
          "onset": 13.75,
          "duration": 0.25,
          "velocity": 100
        },
        {
          "pitch": 60,
          "onset": 14.0,
          "duration": 0.25,
          "velocity": 100
        },
        {
          "pitch": 59,
          "onset": 14.25,
          "duration": 0.25,
          "velocity": 100
        },
        {
          "pitch": 57,
          "onset": 14.5,
          "duration": 0.25,
          "velocity": 100
        },
        {
          "pitch": 55,
          "onset": 14.75,
          "duration": 0.25,
          "velocity": 100
        },
        {
          "pitch": 57,
          "onset": 15.25,
          "duration": 0.25,
          "velocity": 100
        },
        {
          "pitch": 62,
          "onset": 15.5,
          "duration": 0.25,
          "velocity": 100
        },
        {
          "pitch": 57,
          "onset": 15.75,
          "duration": 0.25,
          "velocity": 100
        },
        {
          "pitch": 59,
          "onset": 16.0,
          "duration": 1.0,
          "velocity": 100
        },
        {
          "pitch": 62,
          "onset": 17.25,
          "duration": 0.25,
          "velocity": 100
        },
        {
          "pitch": 60,
          "onset": 17.5,
          "duration": 0.25,
          "velocity": 100
        },
        {
          "pitch": 59,
          "onset": 17.75,
          "duration": 0.25,
          "velocity": 100
        },
        {
          "pitch": 64,
          "onset": 18.0,
          "duration": 0.5,
          "velocity": 100
        },
        {
          "pitch": 59,
          "onset": 21.75,
          "duration": 0.25,
          "velocity": 100
        },
        {
          "pitch": 57,
          "onset": 22.0,
          "duration": 0.25,
          "velocity": 100
        },
        {
          "pitch": 59,
          "onset": 22.25,
          "duration": 0.5,
          "velocity": 100
        },
        {
          "pitch": 52,
          "onset": 22.5,
          "duration": 0.5,
          "velocity": 100
        },
        {
          "pitch": 55,
          "onset": 22.75,
          "duration": 0.5,
          "velocity": 100
        },
        {
          "pitch": 54,
          "onset": 23.0,
          "duration": 0.5,
          "velocity": 100
        },
        {
          "pitch": 59,
          "onset": 23.25,
          "duration": 0.5,
          "velocity": 100
        },
        {
          "pitch": 54,
          "onset": 23.5,
          "duration": 0.5,
          "velocity": 100
        },
        {
          "pitch": 57,
          "onset": 23.75,
          "duration": 0.25,
          "velocity": 100
        },
        {
          "pitch": 61,
          "onset": 26.25,
          "duration": 0.5,
          "velocity": 100
        },
        {
          "pitch": 61,
          "onset": 26.75,
          "duration": 0.25,
          "velocity": 100
        },
        {
          "pitch": 62,
          "onset": 27.0,
          "duration": 0.5,
          "velocity": 100
        },
        {
          "pitch": 64,
          "onset": 27.5,
          "duration": 0.5,
          "velocity": 100
        },
        {
          "pitch": 66,
          "onset": 28.0,
          "duration": 0.5,
          "velocity": 100
        },
        {
          "pitch": 71,
          "onset": 28.5,
          "duration": 0.25,
          "velocity": 100
        },
        {
          "pitch": 69,
          "onset": 28.75,
          "duration": 0.25,
          "velocity": 100
        },
        {
          "pitch": 67,
          "onset": 29.0,
          "duration": 0.25,
          "velocity": 100
        },
        {
          "pitch": 66,
          "onset": 29.25,
          "duration": 0.25,
          "velocity": 100
        },
        {
          "pitch": 64,
          "onset": 29.5,
          "duration": 0.25,
          "velocity": 100
        },
        {
          "pitch": 62,
          "onset": 29.75,
          "duration": 0.25,
          "velocity": 100
        },
        {
          "pitch": 61,
          "onset": 30.0,
          "duration": 0.25,
          "velocity": 100
        },
        {
          "pitch": 59,
          "onset": 30.25,
          "duration": 0.25,
          "velocity": 100
        },
        {
          "pitch": 58,
          "onset": 30.5,
          "duration": 0.25,
          "velocity": 100
        },
        {
          "pitch": 59,
          "onset": 30.75,
          "duration": 0.25,
          "velocity": 100
        },
        {
          "pitch": 59,
          "onset": 31.0,
          "duration": 0.75,
          "velocity": 100
        },
        {
          "pitch": 58,
          "onset": 31.75,
          "duration": 0.25,
          "velocity": 100
        },
        {
          "pitch": 59,
          "onset": 32.0,
          "duration": 1.0,
          "velocity": 100
        },
        {
          "pitch": 59,
          "onset": 34.0,
          "duration": 1.75,
          "velocity": 100
        },
        {
          "pitch": 59,
          "onset": 35.75,
          "duration": 0.25,
          "velocity": 100
        },
        {
          "pitch": 59,
          "onset": 36.0,
          "duration": 1.0,
          "velocity": 100
        },
        {
          "pitch": 64,
          "onset": 37.25,
          "duration": 0.25,
          "velocity": 100
        },
        {
          "pitch": 62,
          "onset": 37.5,
          "duration": 0.25,
          "velocity": 100
        },
        {
          "pitch": 60,
          "onset": 37.75,
          "duration": 0.25,
          "velocity": 100
        },
        {
          "pitch": 59,
          "onset": 38.0,
          "duration": 0.25,
          "velocity": 100
        },
        {
          "pitch": 57,
          "onset": 38.25,
          "duration": 0.25,
          "velocity": 100
        },
        {
          "pitch": 55,
          "onset": 38.5,
          "duration": 0.25,
          "velocity": 100
        },
        {
          "pitch": 54,
          "onset": 38.75,
          "duration": 0.25,
          "velocity": 100
        },
        {
          "pitch": 64,
          "onset": 39.75,
          "duration": 0.25,
          "velocity": 100
        },
        {
          "pitch": 63,
          "onset": 40.0,
          "duration": 1.25,
          "velocity": 100
        },
        {
          "pitch": 64,
          "onset": 41.25,
          "duration": 0.25,
          "velocity": 100
        },
        {
          "pitch": 63,
          "onset": 41.5,
          "duration": 0.25,
          "velocity": 100
        },
        {
          "pitch": 64,
          "onset": 41.75,
          "duration": 0.25,
          "velocity": 100
        },
        {
          "pitch": 66,
          "onset": 42.0,
          "duration": 0.25,
          "velocity": 100
        },
        {
          "pitch": 59,
          "onset": 42.25,
          "duration": 0.25,
          "velocity": 100
        },
        {
          "pitch": 64,
          "onset": 42.5,
          "duration": 0.25,
          "velocity": 100
        },
        {
          "pitch": 67,
          "onset": 42.75,
          "duration": 0.25,
          "velocity": 100
        },
        {
          "pitch": 66,
          "onset": 43.0,
          "duration": 0.25,
          "velocity": 100
        },
        {
          "pitch": 61,
          "onset": 43.25,
          "duration": 0.25,
          "velocity": 100
        },
        {
          "pitch": 63,
          "onset": 43.5,
          "duration": 0.25,
          "velocity": 100
        },
        {
          "pitch": 57,
          "onset": 43.75,
          "duration": 0.25,
          "velocity": 100
        },
        {
          "pitch": 59,
          "onset": 44.25,
          "duration": 0.25,
          "velocity": 100
        },
        {
          "pitch": 64,
          "onset": 44.5,
          "duration": 0.75,
          "velocity": 100
        },
        {
          "pitch": 59,
          "onset": 45.25,
          "duration": 0.25,
          "velocity": 100
        },
        {
          "pitch": 60,
          "onset": 45.5,
          "duration": 0.25,
          "velocity": 100
        },
        {
          "pitch": 62,
          "onset": 45.75,
          "duration": 0.25,
          "velocity": 100
        },
        {
          "pitch": 60,
          "onset": 46.0,
          "duration": 0.25,
          "velocity": 100
        },
        {
          "pitch": 59,
          "onset": 46.25,
          "duration": 0.25,
          "velocity": 100
        },
        {
          "pitch": 57,
          "onset": 46.5,
          "duration": 0.25,
          "velocity": 100
        },
        {
          "pitch": 55,
          "onset": 46.75,
          "duration": 0.25,
          "velocity": 100
        },
        {
          "pitch": 57,
          "onset": 47.25,
          "duration": 0.25,
          "velocity": 100
        },
        {
          "pitch": 62,
          "onset": 47.5,
          "duration": 0.25,
          "velocity": 100
        },
        {
          "pitch": 57,
          "onset": 47.75,
          "duration": 0.25,
          "velocity": 100
        },
        {
          "pitch": 59,
          "onset": 48.0,
          "duration": 1.0,
          "velocity": 100
        },
        {
          "pitch": 62,
          "onset": 49.25,
          "duration": 0.25,
          "velocity": 100
        },
        {
          "pitch": 60,
          "onset": 49.5,
          "duration": 0.25,
          "velocity": 100
        },
        {
          "pitch": 59,
          "onset": 49.75,
          "duration": 0.25,
          "velocity": 100
        },
        {
          "pitch": 64,
          "onset": 50.0,
          "duration": 0.5,
          "velocity": 100
        },
        {
          "pitch": 59,
          "onset": 53.75,
          "duration": 0.25,
          "velocity": 100
        },
        {
          "pitch": 57,
          "onset": 54.0,
          "duration": 0.25,
          "velocity": 100
        },
        {
          "pitch": 59,
          "onset": 54.25,
          "duration": 0.5,
          "velocity": 100
        },
        {
          "pitch": 52,
          "onset": 54.5,
          "duration": 0.5,
          "velocity": 100
        },
        {
          "pitch": 55,
          "onset": 54.75,
          "duration": 0.5,
          "velocity": 100
        },
        {
          "pitch": 54,
          "onset": 55.0,
          "duration": 0.5,
          "velocity": 100
        },
        {
          "pitch": 59,
          "onset": 55.25,
          "duration": 0.5,
          "velocity": 100
        },
        {
          "pitch": 54,
          "onset": 55.5,
          "duration": 0.5,
          "velocity": 100
        },
        {
          "pitch": 57,
          "onset": 55.75,
          "duration": 0.25,
          "velocity": 100
        },
        {
          "pitch": 61,
          "onset": 58.25,
          "duration": 0.5,
          "velocity": 100
        },
        {
          "pitch": 61,
          "onset": 58.75,
          "duration": 0.25,
          "velocity": 100
        },
        {
          "pitch": 62,
          "onset": 59.0,
          "duration": 0.5,
          "velocity": 100
        },
        {
          "pitch": 64,
          "onset": 59.5,
          "duration": 0.5,
          "velocity": 100
        },
        {
          "pitch": 66,
          "onset": 60.0,
          "duration": 0.5,
          "velocity": 100
        },
        {
          "pitch": 71,
          "onset": 60.5,
          "duration": 0.25,
          "velocity": 100
        },
        {
          "pitch": 69,
          "onset": 60.75,
          "duration": 0.25,
          "velocity": 100
        },
        {
          "pitch": 67,
          "onset": 61.0,
          "duration": 0.25,
          "velocity": 100
        },
        {
          "pitch": 66,
          "onset": 61.25,
          "duration": 0.25,
          "velocity": 100
        },
        {
          "pitch": 64,
          "onset": 61.5,
          "duration": 0.25,
          "velocity": 100
        },
        {
          "pitch": 62,
          "onset": 61.75,
          "duration": 0.25,
          "velocity": 100
        },
        {
          "pitch": 61,
          "onset": 62.0,
          "duration": 0.25,
          "velocity": 100
        },
        {
          "pitch": 59,
          "onset": 62.25,
          "duration": 0.25,
          "velocity": 100
        },
        {
          "pitch": 58,
          "onset": 62.5,
          "duration": 0.25,
          "velocity": 100
        },
        {
          "pitch": 59,
          "onset": 62.75,
          "duration": 0.25,
          "velocity": 100
        },
        {
          "pitch": 59,
          "onset": 63.0,
          "duration": 0.75,
          "velocity": 100
        },
        {
          "pitch": 58,
          "onset": 63.75,
          "duration": 0.25,
          "velocity": 100
        },
        {
          "pitch": 59,
          "onset": 64.0,
          "duration": 1.0,
          "velocity": 100
        },
        {
          "pitch": 59,
          "onset": 66.0,
          "duration": 1.75,
          "velocity": 100
        },
        {
          "pitch": 63,
          "onset": 67.75,
          "duration": 0.25,
          "velocity": 100
        },
        {
          "pitch": 63,
          "onset": 68.0,
          "duration": 1.0,
          "velocity": 100
        },
        {
          "pitch": 59,
          "onset": 69.0,
          "duration": 1.0,
          "velocity": 100
        },
        {
          "pitch": 71,
          "onset": 69.25,
          "duration": 0.25,
          "velocity": 100
        },
        {
          "pitch": 69,
          "onset": 69.5,
          "duration": 0.25,
          "velocity": 100
        },
        {
          "pitch": 67,
          "onset": 69.75,
          "duration": 0.25,
          "velocity": 100
        },
        {
          "pitch": 66,
          "onset": 70.0,
          "duration": 0.25,
          "velocity": 100
        },
        {
          "pitch": 64,
          "onset": 70.25,
          "duration": 0.25,
          "velocity": 100
        },
        {
          "pitch": 63,
          "onset": 70.5,
          "duration": 0.25,
          "velocity": 100
        },
        {
          "pitch": 61,
          "onset": 70.75,
          "duration": 0.25,
          "velocity": 100
        },
        {
          "pitch": 59,
          "onset": 71.0,
          "duration": 0.5,
          "velocity": 100
        },
        {
          "pitch": 63,
          "onset": 71.5,
          "duration": 0.5,
          "velocity": 100
        },
        {
          "pitch": 64,
          "onset": 72.0,
          "duration": 0.5,
          "velocity": 100
        },
        {
          "pitch": 67,
          "onset": 72.25,
          "duration": 0.5,
          "velocity": 100
        },
        {
          "pitch": 71,
          "onset": 72.5,
          "duration": 0.75,
          "velocity": 100
        },
        {
          "pitch": 69,
          "onset": 73.25,
          "duration": 0.25,
          "velocity": 100
        },
        {
          "pitch": 67,
          "onset": 73.5,
          "duration": 0.25,
          "velocity": 100
        },
        {
          "pitch": 66,
          "onset": 73.75,
          "duration": 0.25,
          "velocity": 100
        },
        {
          "pitch": 64,
          "onset": 74.0,
          "duration": 0.25,
          "velocity": 100
        },
        {
          "pitch": 62,
          "onset": 74.25,
          "duration": 0.25,
          "velocity": 100
        },
        {
          "pitch": 61,
          "onset": 74.5,
          "duration": 0.25,
          "velocity": 100
        },
        {
          "pitch": 59,
          "onset": 74.75,
          "duration": 0.25,
          "velocity": 100
        },
        {
          "pitch": 57,
          "onset": 75.0,
          "duration": 0.5,
          "velocity": 100
        },
        {
          "pitch": 61,
          "onset": 75.5,
          "duration": 0.5,
          "velocity": 100
        },
        {
          "pitch": 62,
          "onset": 76.0,
          "duration": 0.75,
          "velocity": 100
        },
        {
          "pitch": 57,
          "onset": 76.75,
          "duration": 0.25,
          "velocity": 100
        },
        {
          "pitch": 62,
          "onset": 77.0,
          "duration": 0.25,
          "velocity": 100
        },
        {
          "pitch": 64,
          "onset": 77.25,
          "duration": 0.25,
          "velocity": 100
        },
        {
          "pitch": 62,
          "onset": 77.5,
          "duration": 0.25,
          "velocity": 100
        },
        {
          "pitch": 60,
          "onset": 77.75,
          "duration": 0.25,
          "velocity": 100
        },
        {
          "pitch": 59,
          "onset": 78.0,
          "duration": 0.25,
          "velocity": 100
        },
        {
          "pitch": 57,
          "onset": 78.25,
          "duration": 0.25,
          "velocity": 100
        },
        {
          "pitch": 55,
          "onset": 78.5,
          "duration": 0.25,
          "velocity": 100
        },
        {
          "pitch": 54,
          "onset": 78.75,
          "duration": 0.25,
          "velocity": 100
        },
        {
          "pitch": 52,
          "onset": 79.0,
          "duration": 0.75,
          "velocity": 100
        },
        {
          "pitch": 64,
          "onset": 79.75,
          "duration": 0.25,
          "velocity": 100
        },
        {
          "pitch": 66,
          "onset": 80.0,
          "duration": 0.25,
          "velocity": 100
        },
        {
          "pitch": 67,
          "onset": 80.25,
          "duration": 0.25,
          "velocity": 100
        },
        {
          "pitch": 66,
          "onset": 80.5,
          "duration": 0.25,
          "velocity": 100
        },
        {
          "pitch": 64,
          "onset": 80.75,
          "duration": 0.25,
          "velocity": 100
        },
        {
          "pitch": 62,
          "onset": 81.0,
          "duration": 0.25,
          "velocity": 100
        },
        {
          "pitch": 61,
          "onset": 81.25,
          "duration": 0.25,
          "velocity": 100
        },
        {
          "pitch": 59,
          "onset": 81.5,
          "duration": 0.25,
          "velocity": 100
        },
        {
          "pitch": 58,
          "onset": 81.75,
          "duration": 0.25,
          "velocity": 100
        },
        {
          "pitch": 59,
          "onset": 82.0,
          "duration": 0.25,
          "velocity": 100
        },
        {
          "pitch": 58,
          "onset": 82.25,
          "duration": 0.25,
          "velocity": 100
        },
        {
          "pitch": 59,
          "onset": 82.5,
          "duration": 0.25,
          "velocity": 100
        },
        {
          "pitch": 61,
          "onset": 82.75,
          "duration": 0.25,
          "velocity": 100
        },
        {
          "pitch": 61,
          "onset": 83.0,
          "duration": 0.75,
          "velocity": 100
        },
        {
          "pitch": 59,
          "onset": 83.75,
          "duration": 0.25,
          "velocity": 100
        },
        {
          "pitch": 59,
          "onset": 84.0,
          "duration": 1.0,
          "velocity": 100
        },
        {
          "pitch": 59,
          "onset": 86.25,
          "duration": 0.5,
          "velocity": 100
        },
        {
          "pitch": 64,
          "onset": 86.5,
          "duration": 0.5,
          "velocity": 100
        },
        {
          "pitch": 56,
          "onset": 87.25,
          "duration": 0.5,
          "velocity": 100
        },
        {
          "pitch": 59,
          "onset": 87.5,
          "duration": 0.5,
          "velocity": 100
        },
        {
          "pitch": 52,
          "onset": 87.75,
          "duration": 0.25,
          "velocity": 100
        },
        {
          "pitch": 60,
          "onset": 88.0,
          "duration": 1.0,
          "velocity": 100
        },
        {
          "pitch": 60,
          "onset": 89.0,
          "duration": 1.0,
          "velocity": 100
        },
        {
          "pitch": 57,
          "onset": 90.25,
          "duration": 0.25,
          "velocity": 100
        },
        {
          "pitch": 62,
          "onset": 90.5,
          "duration": 1.0,
          "velocity": 100
        },
        {
          "pitch": 54,
          "onset": 91.25,
          "duration": 0.25,
          "velocity": 100
        },
        {
          "pitch": 57,
          "onset": 91.5,
          "duration": 0.25,
          "velocity": 100
        },
        {
          "pitch": 50,
          "onset": 91.75,
          "duration": 0.25,
          "velocity": 100
        },
        {
          "pitch": 59,
          "onset": 92.0,
          "duration": 1.0,
          "velocity": 100
        },
        {
          "pitch": 54,
          "onset": 94.25,
          "duration": 0.25,
          "velocity": 100
        },
        {
          "pitch": 59,
          "onset": 94.5,
          "duration": 1.0,
          "velocity": 100
        },
        {
          "pitch": 51,
          "onset": 95.25,
          "duration": 0.25,
          "velocity": 100
        },
        {
          "pitch": 54,
          "onset": 95.5,
          "duration": 0.25,
          "velocity": 100
        },
        {
          "pitch": 47,
          "onset": 95.75,
          "duration": 0.25,
          "velocity": 100
        },
        {
          "pitch": 55,
          "onset": 96.0,
          "duration": 1.0,
          "velocity": 100
        },
        {
          "pitch": 55,
          "onset": 97.25,
          "duration": 0.75,
          "velocity": 100
        },
        {
          "pitch": 59,
          "onset": 97.5,
          "duration": 0.5,
          "velocity": 100
        },
        {
          "pitch": 64,
          "onset": 97.75,
          "duration": 0.25,
          "velocity": 100
        },
        {
          "pitch": 60,
          "onset": 98.0,
          "duration": 1.0,
          "velocity": 100
        },
        {
          "pitch": 61,
          "onset": 99.25,
          "duration": 0.75,
          "velocity": 100
        },
        {
          "pitch": 66,
          "onset": 99.5,
          "duration": 0.5,
          "velocity": 100
        },
        {
          "pitch": 69,
          "onset": 99.75,
          "duration": 0.25,
          "velocity": 100
        },
        {
          "pitch": 63,
          "onset": 100.0,
          "duration": 1.25,
          "velocity": 100
        },
        {
          "pitch": 61,
          "onset": 101.25,
          "duration": 0.25,
          "velocity": 100
        },
        {
          "pitch": 63,
          "onset": 101.5,
          "duration": 0.25,
          "velocity": 100
        },
        {
          "pitch": 59,
          "onset": 101.75,
          "duration": 0.25,
          "velocity": 100
        },
        {
          "pitch": 64,
          "onset": 102.0,
          "duration": 0.25,
          "velocity": 100
        },
        {
          "pitch": 55,
          "onset": 102.25,
          "duration": 0.25,
          "velocity": 100
        },
        {
          "pitch": 54,
          "onset": 102.5,
          "duration": 0.25,
          "velocity": 100
        },
        {
          "pitch": 52,
          "onset": 102.75,
          "duration": 0.25,
          "velocity": 100
        },
        {
          "pitch": 51,
          "onset": 103.0,
          "duration": 0.75,
          "velocity": 100
        },
        {
          "pitch": 52,
          "onset": 103.75,
          "duration": 0.25,
          "velocity": 100
        },
        {
          "pitch": 52,
          "onset": 104.0,
          "duration": 0.25,
          "velocity": 100
        },
        {
          "pitch": 57,
          "onset": 105.0,
          "duration": 0.25,
          "velocity": 100
        },
        {
          "pitch": 59,
          "onset": 105.25,
          "duration": 0.25,
          "velocity": 100
        },
        {
          "pitch": 60,
          "onset": 105.5,
          "duration": 0.25,
          "velocity": 100
        },
        {
          "pitch": 62,
          "onset": 105.75,
          "duration": 0.25,
          "velocity": 100
        },
        {
          "pitch": 64,
          "onset": 106.0,
          "duration": 0.25,
          "velocity": 100
        },
        {
          "pitch": 57,
          "onset": 106.25,
          "duration": 0.25,
          "velocity": 100
        },
        {
          "pitch": 56,
          "onset": 106.5,
          "duration": 0.25,
          "velocity": 100
        },
        {
          "pitch": 54,
          "onset": 106.75,
          "duration": 0.25,
          "velocity": 100
        },
        {
          "pitch": 52,
          "onset": 107.0,
          "duration": 0.75,
          "velocity": 100
        },
        {
          "pitch": 63,
          "onset": 107.75,
          "duration": 0.25,
          "velocity": 100
        },
        {
          "pitch": 63,
          "onset": 108.0,
          "duration": 1.0,
          "velocity": 100
        },
        {
          "pitch": 59,
          "onset": 109.0,
          "duration": 1.0,
          "velocity": 100
        },
        {
          "pitch": 71,
          "onset": 109.25,
          "duration": 0.25,
          "velocity": 100
        },
        {
          "pitch": 69,
          "onset": 109.5,
          "duration": 0.25,
          "velocity": 100
        },
        {
          "pitch": 67,
          "onset": 109.75,
          "duration": 0.25,
          "velocity": 100
        },
        {
          "pitch": 66,
          "onset": 110.0,
          "duration": 0.25,
          "velocity": 100
        },
        {
          "pitch": 64,
          "onset": 110.25,
          "duration": 0.25,
          "velocity": 100
        },
        {
          "pitch": 63,
          "onset": 110.5,
          "duration": 0.25,
          "velocity": 100
        },
        {
          "pitch": 61,
          "onset": 110.75,
          "duration": 0.25,
          "velocity": 100
        },
        {
          "pitch": 59,
          "onset": 111.0,
          "duration": 0.5,
          "velocity": 100
        },
        {
          "pitch": 63,
          "onset": 111.5,
          "duration": 0.5,
          "velocity": 100
        },
        {
          "pitch": 64,
          "onset": 112.0,
          "duration": 0.5,
          "velocity": 100
        },
        {
          "pitch": 67,
          "onset": 112.25,
          "duration": 0.5,
          "velocity": 100
        },
        {
          "pitch": 71,
          "onset": 112.5,
          "duration": 0.75,
          "velocity": 100
        },
        {
          "pitch": 69,
          "onset": 113.25,
          "duration": 0.25,
          "velocity": 100
        },
        {
          "pitch": 67,
          "onset": 113.5,
          "duration": 0.25,
          "velocity": 100
        },
        {
          "pitch": 66,
          "onset": 113.75,
          "duration": 0.25,
          "velocity": 100
        },
        {
          "pitch": 64,
          "onset": 114.0,
          "duration": 0.25,
          "velocity": 100
        },
        {
          "pitch": 62,
          "onset": 114.25,
          "duration": 0.25,
          "velocity": 100
        },
        {
          "pitch": 61,
          "onset": 114.5,
          "duration": 0.25,
          "velocity": 100
        },
        {
          "pitch": 59,
          "onset": 114.75,
          "duration": 0.25,
          "velocity": 100
        },
        {
          "pitch": 57,
          "onset": 115.0,
          "duration": 0.5,
          "velocity": 100
        },
        {
          "pitch": 61,
          "onset": 115.5,
          "duration": 0.5,
          "velocity": 100
        },
        {
          "pitch": 62,
          "onset": 116.0,
          "duration": 0.75,
          "velocity": 100
        },
        {
          "pitch": 57,
          "onset": 116.75,
          "duration": 0.25,
          "velocity": 100
        },
        {
          "pitch": 62,
          "onset": 117.0,
          "duration": 0.25,
          "velocity": 100
        },
        {
          "pitch": 64,
          "onset": 117.25,
          "duration": 0.25,
          "velocity": 100
        },
        {
          "pitch": 62,
          "onset": 117.5,
          "duration": 0.25,
          "velocity": 100
        },
        {
          "pitch": 60,
          "onset": 117.75,
          "duration": 0.25,
          "velocity": 100
        },
        {
          "pitch": 59,
          "onset": 118.0,
          "duration": 0.25,
          "velocity": 100
        },
        {
          "pitch": 57,
          "onset": 118.25,
          "duration": 0.25,
          "velocity": 100
        },
        {
          "pitch": 55,
          "onset": 118.5,
          "duration": 0.25,
          "velocity": 100
        },
        {
          "pitch": 54,
          "onset": 118.75,
          "duration": 0.25,
          "velocity": 100
        },
        {
          "pitch": 52,
          "onset": 119.0,
          "duration": 0.75,
          "velocity": 100
        },
        {
          "pitch": 64,
          "onset": 119.75,
          "duration": 0.25,
          "velocity": 100
        },
        {
          "pitch": 66,
          "onset": 120.0,
          "duration": 0.25,
          "velocity": 100
        },
        {
          "pitch": 67,
          "onset": 120.25,
          "duration": 0.25,
          "velocity": 100
        },
        {
          "pitch": 66,
          "onset": 120.5,
          "duration": 0.25,
          "velocity": 100
        },
        {
          "pitch": 64,
          "onset": 120.75,
          "duration": 0.25,
          "velocity": 100
        },
        {
          "pitch": 62,
          "onset": 121.0,
          "duration": 0.25,
          "velocity": 100
        },
        {
          "pitch": 61,
          "onset": 121.25,
          "duration": 0.25,
          "velocity": 100
        },
        {
          "pitch": 59,
          "onset": 121.5,
          "duration": 0.25,
          "velocity": 100
        },
        {
          "pitch": 58,
          "onset": 121.75,
          "duration": 0.25,
          "velocity": 100
        },
        {
          "pitch": 59,
          "onset": 122.0,
          "duration": 0.25,
          "velocity": 100
        },
        {
          "pitch": 58,
          "onset": 122.25,
          "duration": 0.25,
          "velocity": 100
        },
        {
          "pitch": 59,
          "onset": 122.5,
          "duration": 0.25,
          "velocity": 100
        },
        {
          "pitch": 61,
          "onset": 122.75,
          "duration": 0.25,
          "velocity": 100
        },
        {
          "pitch": 61,
          "onset": 123.0,
          "duration": 0.75,
          "velocity": 100
        },
        {
          "pitch": 59,
          "onset": 123.75,
          "duration": 0.25,
          "velocity": 100
        },
        {
          "pitch": 59,
          "onset": 124.0,
          "duration": 1.0,
          "velocity": 100
        },
        {
          "pitch": 59,
          "onset": 126.25,
          "duration": 0.5,
          "velocity": 100
        },
        {
          "pitch": 64,
          "onset": 126.5,
          "duration": 0.5,
          "velocity": 100
        },
        {
          "pitch": 56,
          "onset": 127.25,
          "duration": 0.5,
          "velocity": 100
        },
        {
          "pitch": 59,
          "onset": 127.5,
          "duration": 0.5,
          "velocity": 100
        },
        {
          "pitch": 52,
          "onset": 127.75,
          "duration": 0.25,
          "velocity": 100
        },
        {
          "pitch": 60,
          "onset": 128.0,
          "duration": 1.0,
          "velocity": 100
        },
        {
          "pitch": 60,
          "onset": 129.0,
          "duration": 1.0,
          "velocity": 100
        },
        {
          "pitch": 57,
          "onset": 130.25,
          "duration": 0.25,
          "velocity": 100
        },
        {
          "pitch": 62,
          "onset": 130.5,
          "duration": 1.0,
          "velocity": 100
        },
        {
          "pitch": 54,
          "onset": 131.25,
          "duration": 0.25,
          "velocity": 100
        },
        {
          "pitch": 57,
          "onset": 131.5,
          "duration": 0.25,
          "velocity": 100
        },
        {
          "pitch": 50,
          "onset": 131.75,
          "duration": 0.25,
          "velocity": 100
        },
        {
          "pitch": 59,
          "onset": 132.0,
          "duration": 1.0,
          "velocity": 100
        },
        {
          "pitch": 54,
          "onset": 134.25,
          "duration": 0.25,
          "velocity": 100
        },
        {
          "pitch": 59,
          "onset": 134.5,
          "duration": 1.0,
          "velocity": 100
        },
        {
          "pitch": 51,
          "onset": 135.25,
          "duration": 0.25,
          "velocity": 100
        },
        {
          "pitch": 54,
          "onset": 135.5,
          "duration": 0.25,
          "velocity": 100
        },
        {
          "pitch": 47,
          "onset": 135.75,
          "duration": 0.25,
          "velocity": 100
        },
        {
          "pitch": 55,
          "onset": 136.0,
          "duration": 1.0,
          "velocity": 100
        },
        {
          "pitch": 55,
          "onset": 137.25,
          "duration": 0.75,
          "velocity": 100
        },
        {
          "pitch": 59,
          "onset": 137.5,
          "duration": 0.5,
          "velocity": 100
        },
        {
          "pitch": 64,
          "onset": 137.75,
          "duration": 0.25,
          "velocity": 100
        },
        {
          "pitch": 60,
          "onset": 138.0,
          "duration": 1.0,
          "velocity": 100
        },
        {
          "pitch": 61,
          "onset": 139.25,
          "duration": 0.75,
          "velocity": 100
        },
        {
          "pitch": 66,
          "onset": 139.5,
          "duration": 0.5,
          "velocity": 100
        },
        {
          "pitch": 69,
          "onset": 139.75,
          "duration": 0.25,
          "velocity": 100
        },
        {
          "pitch": 63,
          "onset": 140.0,
          "duration": 1.25,
          "velocity": 100
        },
        {
          "pitch": 61,
          "onset": 141.25,
          "duration": 0.25,
          "velocity": 100
        },
        {
          "pitch": 63,
          "onset": 141.5,
          "duration": 0.25,
          "velocity": 100
        },
        {
          "pitch": 59,
          "onset": 141.75,
          "duration": 0.25,
          "velocity": 100
        },
        {
          "pitch": 64,
          "onset": 142.0,
          "duration": 0.25,
          "velocity": 100
        },
        {
          "pitch": 55,
          "onset": 142.25,
          "duration": 0.25,
          "velocity": 100
        },
        {
          "pitch": 54,
          "onset": 142.5,
          "duration": 0.25,
          "velocity": 100
        },
        {
          "pitch": 52,
          "onset": 142.75,
          "duration": 0.25,
          "velocity": 100
        },
        {
          "pitch": 51,
          "onset": 143.0,
          "duration": 0.75,
          "velocity": 100
        },
        {
          "pitch": 52,
          "onset": 143.75,
          "duration": 0.25,
          "velocity": 100
        },
        {
          "pitch": 52,
          "onset": 144.0,
          "duration": 0.25,
          "velocity": 100
        },
        {
          "pitch": 57,
          "onset": 145.0,
          "duration": 0.25,
          "velocity": 100
        },
        {
          "pitch": 59,
          "onset": 145.25,
          "duration": 0.25,
          "velocity": 100
        },
        {
          "pitch": 60,
          "onset": 145.5,
          "duration": 0.25,
          "velocity": 100
        },
        {
          "pitch": 62,
          "onset": 145.75,
          "duration": 0.25,
          "velocity": 100
        },
        {
          "pitch": 64,
          "onset": 146.0,
          "duration": 0.25,
          "velocity": 100
        },
        {
          "pitch": 57,
          "onset": 146.25,
          "duration": 0.25,
          "velocity": 100
        },
        {
          "pitch": 56,
          "onset": 146.5,
          "duration": 0.25,
          "velocity": 100
        },
        {
          "pitch": 54,
          "onset": 146.75,
          "duration": 0.5,
          "velocity": 100
        },
        {
          "pitch": 52,
          "onset": 147.4375,
          "duration": 4.5625,
          "velocity": 100
        },
        {
          "pitch": 64,
          "onset": 154.25,
          "duration": 0.25,
          "velocity": 1
        }
      ]
    },
    {
      "role": "v2",
      "notes": [
        {
          "pitch": 52,
          "onset": 0.0,
          "duration": 0.25,
          "velocity": 1
        },
        {
          "pitch": 43,
          "onset": 4.5,
          "duration": 1.0,
          "velocity": 100
        },
        {
          "pitch": 47,
          "onset": 4.75,
          "duration": 0.75,
          "velocity": 100
        },
        {
          "pitch": 52,
          "onset": 5.0,
          "duration": 0.5,
          "velocity": 100
        },
        {
          "pitch": 55,
          "onset": 7.25,
          "duration": 0.75,
          "velocity": 100
        },
        {
          "pitch": 59,
          "onset": 7.5,
          "duration": 0.5,
          "velocity": 100
        },
        {
          "pitch": 51,
          "onset": 8.5,
          "duration": 0.5,
          "velocity": 100
        },
        {
          "pitch": 54,
          "onset": 8.75,
          "duration": 0.25,
          "velocity": 100
        },
        {
          "pitch": 59,
          "onset": 9.0,
          "duration": 1.25,
          "velocity": 100
        },
        {
          "pitch": 49,
          "onset": 9.5,
          "duration": 0.5,
          "velocity": 100
        },
        {
          "pitch": 51,
          "onset": 10.0,
          "duration": 0.5,
          "velocity": 100
        },
        {
          "pitch": 52,
          "onset": 10.5,
          "duration": 0.5,
          "velocity": 100
        },
        {
          "pitch": 55,
          "onset": 12.0,
          "duration": 1.0,
          "velocity": 100
        },
        {
          "pitch": 47,
          "onset": 12.75,
          "duration": 0.25,
          "velocity": 100
        },
        {
          "pitch": 52,
          "onset": 13.0,
          "duration": 1.5,
          "velocity": 100
        },
        {
          "pitch": 54,
          "onset": 15.0,
          "duration": 1.0,
          "velocity": 100
        },
        {
          "pitch": 54,
          "onset": 16.25,
          "duration": 0.25,
          "velocity": 100
        },
        {
          "pitch": 55,
          "onset": 16.5,
          "duration": 0.5,
          "velocity": 100
        },
        {
          "pitch": 50,
          "onset": 16.75,
          "duration": 0.25,
          "velocity": 100
        },
        {
          "pitch": 52,
          "onset": 17.0,
          "duration": 0.25,
          "velocity": 100
        },
        {
          "pitch": 47,
          "onset": 17.25,
          "duration": 0.25,
          "velocity": 100
        },
        {
          "pitch": 48,
          "onset": 17.5,
          "duration": 0.25,
          "velocity": 100
        },
        {
          "pitch": 50,
          "onset": 17.75,
          "duration": 0.25,
          "velocity": 100
        },
        {
          "pitch": 48,
          "onset": 18.0,
          "duration": 1.0,
          "velocity": 100
        },
        {
          "pitch": 59,
          "onset": 18.25,
          "duration": 0.25,
          "velocity": 100
        },
        {
          "pitch": 60,
          "onset": 18.5,
          "duration": 0.25,
          "velocity": 100
        },
        {
          "pitch": 62,
          "onset": 18.75,
          "duration": 0.25,
          "velocity": 100
        },
        {
          "pitch": 60,
          "onset": 19.0,
          "duration": 0.25,
          "velocity": 100
        },
        {
          "pitch": 59,
          "onset": 19.25,
          "duration": 0.25,
          "velocity": 100
        },
        {
          "pitch": 57,
          "onset": 19.5,
          "duration": 0.25,
          "velocity": 100
        },
        {
          "pitch": 55,
          "onset": 19.75,
          "duration": 0.25,
          "velocity": 100
        },
        {
          "pitch": 54,
          "onset": 20.0,
          "duration": 0.25,
          "velocity": 100
        },
        {
          "pitch": 52,
          "onset": 20.25,
          "duration": 0.25,
          "velocity": 100
        },
        {
          "pitch": 50,
          "onset": 20.5,
          "duration": 0.25,
          "velocity": 100
        },
        {
          "pitch": 48,
          "onset": 20.75,
          "duration": 0.25,
          "velocity": 100
        },
        {
          "pitch": 50,
          "onset": 21.25,
          "duration": 0.75,
          "velocity": 100
        },
        {
          "pitch": 55,
          "onset": 21.5,
          "duration": 0.5,
          "velocity": 100
        },
        {
          "pitch": 48,
          "onset": 22.0,
          "duration": 0.5,
          "velocity": 100
        },
        {
          "pitch": 49,
          "onset": 22.5,
          "duration": 0.5,
          "velocity": 100
        },
        {
          "pitch": 50,
          "onset": 23.0,
          "duration": 0.5,
          "velocity": 100
        },
        {
          "pitch": 51,
          "onset": 23.5,
          "duration": 0.5,
          "velocity": 100
        },
        {
          "pitch": 55,
          "onset": 24.0,
          "duration": 0.25,
          "velocity": 100
        },
        {
          "pitch": 57,
          "onset": 24.25,
          "duration": 0.25,
          "velocity": 100
        },
        {
          "pitch": 55,
          "onset": 24.5,
          "duration": 0.25,
          "velocity": 100
        },
        {
          "pitch": 54,
          "onset": 24.75,
          "duration": 0.25,
          "velocity": 100
        },
        {
          "pitch": 52,
          "onset": 25.0,
          "duration": 0.25,
          "velocity": 100
        },
        {
          "pitch": 50,
          "onset": 25.25,
          "duration": 0.25,
          "velocity": 100
        },
        {
          "pitch": 49,
          "onset": 25.5,
          "duration": 0.25,
          "velocity": 100
        },
        {
          "pitch": 47,
          "onset": 25.75,
          "duration": 0.25,
          "velocity": 100
        },
        {
          "pitch": 54,
          "onset": 26.5,
          "duration": 0.5,
          "velocity": 100
        },
        {
          "pitch": 59,
          "onset": 27.25,
          "duration": 0.5,
          "velocity": 100
        },
        {
          "pitch": 59,
          "onset": 27.75,
          "duration": 0.5,
          "velocity": 100
        },
        {
          "pitch": 59,
          "onset": 28.25,
          "duration": 0.5,
          "velocity": 100
        },
        {
          "pitch": 52,
          "onset": 29.0,
          "duration": 0.5,
          "velocity": 100
        },
        {
          "pitch": 54,
          "onset": 29.5,
          "duration": 0.5,
          "velocity": 100
        },
        {
          "pitch": 55,
          "onset": 30.0,
          "duration": 0.5,
          "velocity": 100
        },
        {
          "pitch": 52,
          "onset": 30.5,
          "duration": 0.5,
          "velocity": 100
        },
        {
          "pitch": 54,
          "onset": 31.0,
          "duration": 0.5,
          "velocity": 100
        },
        {
          "pitch": 47,
          "onset": 32.25,
          "duration": 0.25,
          "velocity": 100
        },
        {
          "pitch": 49,
          "onset": 32.5,
          "duration": 0.25,
          "velocity": 100
        },
        {
          "pitch": 51,
          "onset": 32.75,
          "duration": 0.25,
          "velocity": 100
        },
        {
          "pitch": 52,
          "onset": 33.0,
          "duration": 0.25,
          "velocity": 100
        },
        {
          "pitch": 54,
          "onset": 33.25,
          "duration": 0.25,
          "velocity": 100
        },
        {
          "pitch": 56,
          "onset": 33.5,
          "duration": 0.25,
          "velocity": 100
        },
        {
          "pitch": 58,
          "onset": 33.75,
          "duration": 0.25,
          "velocity": 100
        },
        {
          "pitch": 55,
          "onset": 34.25,
          "duration": 0.25,
          "velocity": 100
        },
        {
          "pitch": 54,
          "onset": 34.5,
          "duration": 0.25,
          "velocity": 100
        },
        {
          "pitch": 52,
          "onset": 34.75,
          "duration": 0.25,
          "velocity": 100
        },
        {
          "pitch": 51,
          "onset": 35.0,
          "duration": 0.75,
          "velocity": 100
        },
        {
          "pitch": 54,
          "onset": 35.0,
          "duration": 0.75,
          "velocity": 100
        },
        {
          "pitch": 43,
          "onset": 36.5,
          "duration": 1.0,
          "velocity": 100
        },
        {
          "pitch": 47,
          "onset": 36.75,
          "duration": 0.75,
          "velocity": 100
        },
        {
          "pitch": 52,
          "onset": 37.0,
          "duration": 0.5,
          "velocity": 100
        },
        {
          "pitch": 55,
          "onset": 39.25,
          "duration": 0.75,
          "velocity": 100
        },
        {
          "pitch": 59,
          "onset": 39.5,
          "duration": 0.5,
          "velocity": 100
        },
        {
          "pitch": 51,
          "onset": 40.5,
          "duration": 0.5,
          "velocity": 100
        },
        {
          "pitch": 54,
          "onset": 40.75,
          "duration": 0.25,
          "velocity": 100
        },
        {
          "pitch": 59,
          "onset": 41.0,
          "duration": 1.25,
          "velocity": 100
        },
        {
          "pitch": 49,
          "onset": 41.5,
          "duration": 0.5,
          "velocity": 100
        },
        {
          "pitch": 51,
          "onset": 42.0,
          "duration": 0.5,
          "velocity": 100
        },
        {
          "pitch": 52,
          "onset": 42.5,
          "duration": 0.5,
          "velocity": 100
        },
        {
          "pitch": 55,
          "onset": 44.0,
          "duration": 1.0,
          "velocity": 100
        },
        {
          "pitch": 47,
          "onset": 44.75,
          "duration": 0.25,
          "velocity": 100
        },
        {
          "pitch": 52,
          "onset": 45.0,
          "duration": 1.5,
          "velocity": 100
        },
        {
          "pitch": 54,
          "onset": 47.0,
          "duration": 1.0,
          "velocity": 100
        },
        {
          "pitch": 54,
          "onset": 48.25,
          "duration": 0.25,
          "velocity": 100
        },
        {
          "pitch": 55,
          "onset": 48.5,
          "duration": 0.5,
          "velocity": 100
        },
        {
          "pitch": 50,
          "onset": 48.75,
          "duration": 0.25,
          "velocity": 100
        },
        {
          "pitch": 52,
          "onset": 49.0,
          "duration": 0.25,
          "velocity": 100
        },
        {
          "pitch": 47,
          "onset": 49.25,
          "duration": 0.25,
          "velocity": 100
        },
        {
          "pitch": 48,
          "onset": 49.5,
          "duration": 0.25,
          "velocity": 100
        },
        {
          "pitch": 50,
          "onset": 49.75,
          "duration": 0.25,
          "velocity": 100
        },
        {
          "pitch": 48,
          "onset": 50.0,
          "duration": 1.0,
          "velocity": 100
        },
        {
          "pitch": 59,
          "onset": 50.25,
          "duration": 0.25,
          "velocity": 100
        },
        {
          "pitch": 60,
          "onset": 50.5,
          "duration": 0.25,
          "velocity": 100
        },
        {
          "pitch": 62,
          "onset": 50.75,
          "duration": 0.25,
          "velocity": 100
        },
        {
          "pitch": 60,
          "onset": 51.0,
          "duration": 0.25,
          "velocity": 100
        },
        {
          "pitch": 59,
          "onset": 51.25,
          "duration": 0.25,
          "velocity": 100
        },
        {
          "pitch": 57,
          "onset": 51.5,
          "duration": 0.25,
          "velocity": 100
        },
        {
          "pitch": 55,
          "onset": 51.75,
          "duration": 0.25,
          "velocity": 100
        },
        {
          "pitch": 54,
          "onset": 52.0,
          "duration": 0.25,
          "velocity": 100
        },
        {
          "pitch": 52,
          "onset": 52.25,
          "duration": 0.25,
          "velocity": 100
        },
        {
          "pitch": 50,
          "onset": 52.5,
          "duration": 0.25,
          "velocity": 100
        },
        {
          "pitch": 48,
          "onset": 52.75,
          "duration": 0.25,
          "velocity": 100
        },
        {
          "pitch": 50,
          "onset": 53.25,
          "duration": 0.75,
          "velocity": 100
        },
        {
          "pitch": 55,
          "onset": 53.5,
          "duration": 0.5,
          "velocity": 100
        },
        {
          "pitch": 48,
          "onset": 54.0,
          "duration": 0.5,
          "velocity": 100
        },
        {
          "pitch": 49,
          "onset": 54.5,
          "duration": 0.5,
          "velocity": 100
        },
        {
          "pitch": 50,
          "onset": 55.0,
          "duration": 0.5,
          "velocity": 100
        },
        {
          "pitch": 51,
          "onset": 55.5,
          "duration": 0.5,
          "velocity": 100
        },
        {
          "pitch": 55,
          "onset": 56.0,
          "duration": 0.25,
          "velocity": 100
        },
        {
          "pitch": 57,
          "onset": 56.25,
          "duration": 0.25,
          "velocity": 100
        },
        {
          "pitch": 55,
          "onset": 56.5,
          "duration": 0.25,
          "velocity": 100
        },
        {
          "pitch": 54,
          "onset": 56.75,
          "duration": 0.25,
          "velocity": 100
        },
        {
          "pitch": 52,
          "onset": 57.0,
          "duration": 0.25,
          "velocity": 100
        },
        {
          "pitch": 50,
          "onset": 57.25,
          "duration": 0.25,
          "velocity": 100
        },
        {
          "pitch": 49,
          "onset": 57.5,
          "duration": 0.25,
          "velocity": 100
        },
        {
          "pitch": 47,
          "onset": 57.75,
          "duration": 0.25,
          "velocity": 100
        },
        {
          "pitch": 54,
          "onset": 58.5,
          "duration": 0.5,
          "velocity": 100
        },
        {
          "pitch": 59,
          "onset": 59.25,
          "duration": 0.5,
          "velocity": 100
        },
        {
          "pitch": 59,
          "onset": 59.75,
          "duration": 0.5,
          "velocity": 100
        },
        {
          "pitch": 59,
          "onset": 60.25,
          "duration": 0.5,
          "velocity": 100
        },
        {
          "pitch": 52,
          "onset": 61.0,
          "duration": 0.5,
          "velocity": 100
        },
        {
          "pitch": 54,
          "onset": 61.5,
          "duration": 0.5,
          "velocity": 100
        },
        {
          "pitch": 55,
          "onset": 62.0,
          "duration": 0.5,
          "velocity": 100
        },
        {
          "pitch": 52,
          "onset": 62.5,
          "duration": 0.5,
          "velocity": 100
        },
        {
          "pitch": 54,
          "onset": 63.0,
          "duration": 0.5,
          "velocity": 100
        },
        {
          "pitch": 47,
          "onset": 64.25,
          "duration": 0.25,
          "velocity": 100
        },
        {
          "pitch": 49,
          "onset": 64.5,
          "duration": 0.25,
          "velocity": 100
        },
        {
          "pitch": 51,
          "onset": 64.75,
          "duration": 0.25,
          "velocity": 100
        },
        {
          "pitch": 52,
          "onset": 65.0,
          "duration": 0.25,
          "velocity": 100
        },
        {
          "pitch": 54,
          "onset": 65.25,
          "duration": 0.25,
          "velocity": 100
        },
        {
          "pitch": 56,
          "onset": 65.5,
          "duration": 0.25,
          "velocity": 100
        },
        {
          "pitch": 58,
          "onset": 65.75,
          "duration": 0.25,
          "velocity": 100
        },
        {
          "pitch": 55,
          "onset": 66.25,
          "duration": 0.25,
          "velocity": 100
        },
        {
          "pitch": 54,
          "onset": 66.5,
          "duration": 0.25,
          "velocity": 100
        },
        {
          "pitch": 52,
          "onset": 66.75,
          "duration": 0.25,
          "velocity": 100
        },
        {
          "pitch": 51,
          "onset": 67.0,
          "duration": 0.75,
          "velocity": 100
        },
        {
          "pitch": 54,
          "onset": 67.0,
          "duration": 0.75,
          "velocity": 100
        },
        {
          "pitch": 51,
          "onset": 68.5,
          "duration": 1.5,
          "velocity": 100
        },
        {
          "pitch": 54,
          "onset": 68.75,
          "duration": 1.25,
          "velocity": 100
        },
        {
          "pitch": 57,
          "onset": 71.25,
          "duration": 0.25,
          "velocity": 100
        },
        {
          "pitch": 55,
          "onset": 71.5,
          "duration": 0.25,
          "velocity": 100
        },
        {
          "pitch": 54,
          "onset": 71.75,
          "duration": 0.25,
          "velocity": 100
        },
        {
          "pitch": 55,
          "onset": 72.0,
          "duration": 0.5,
          "velocity": 100
        },
        {
          "pitch": 55,
          "onset": 72.5,
          "duration": 1.5,
          "velocity": 100
        },
        {
          "pitch": 59,
          "onset": 72.75,
          "duration": 1.25,
          "velocity": 100
        },
        {
          "pitch": 64,
          "onset": 73.0,
          "duration": 1.0,
          "velocity": 100
        },
        {
          "pitch": 55,
          "onset": 75.25,
          "duration": 0.25,
          "velocity": 100
        },
        {
          "pitch": 54,
          "onset": 75.5,
          "duration": 0.25,
          "velocity": 100
        },
        {
          "pitch": 52,
          "onset": 75.75,
          "duration": 0.25,
          "velocity": 100
        },
        {
          "pitch": 54,
          "onset": 76.0,
          "duration": 0.25,
          "velocity": 100
        },
        {
          "pitch": 50,
          "onset": 76.25,
          "duration": 0.25,
          "velocity": 100
        },
        {
          "pitch": 54,
          "onset": 76.5,
          "duration": 0.5,
          "velocity": 100
        },
        {
          "pitch": 58,
          "onset": 83.0,
          "duration": 1.0,
          "velocity": 100
        },
        {
          "pitch": 55,
          "onset": 84.25,
          "duration": 0.25,
          "velocity": 100
        },
        {
          "pitch": 54,
          "onset": 84.5,
          "duration": 0.25,
          "velocity": 100
        },
        {
          "pitch": 52,
          "onset": 84.75,
          "duration": 0.25,
          "velocity": 100
        },
        {
          "pitch": 51,
          "onset": 85.0,
          "duration": 0.5,
          "velocity": 100
        },
        {
          "pitch": 47,
          "onset": 86.75,
          "duration": 0.25,
          "velocity": 100
        },
        {
          "pitch": 52,
          "onset": 87.0,
          "duration": 0.5,
          "velocity": 100
        },
        {
          "pitch": 48,
          "onset": 88.5,
          "duration": 0.5,
          "velocity": 100
        },
        {
          "pitch": 52,
          "onset": 88.75,
          "duration": 0.25,
          "velocity": 100
        },
        {
          "pitch": 52,
          "onset": 89.0,
          "duration": 1.0,
          "velocity": 100
        },
        {
          "pitch": 57,
          "onset": 89.0,
          "duration": 1.0,
          "velocity": 100
        },
        {
          "pitch": 45,
          "onset": 90.75,
          "duration": 0.25,
          "velocity": 100
        },
        {
          "pitch": 50,
          "onset": 91.0,
          "duration": 0.5,
          "velocity": 100
        },
        {
          "pitch": 47,
          "onset": 92.5,
          "duration": 0.5,
          "velocity": 100
        },
        {
          "pitch": 50,
          "onset": 92.75,
          "duration": 0.25,
          "velocity": 100
        },
        {
          "pitch": 50,
          "onset": 93.0,
          "duration": 1.0,
          "velocity": 100
        },
        {
          "pitch": 55,
          "onset": 93.0,
          "duration": 1.0,
          "velocity": 100
        },
        {
          "pitch": 59,
          "onset": 93.0,
          "duration": 1.0,
          "velocity": 100
        },
        {
          "pitch": 42,
          "onset": 94.75,
          "duration": 0.25,
          "velocity": 100
        },
        {
          "pitch": 47,
          "onset": 95.0,
          "duration": 0.5,
          "velocity": 100
        },
        {
          "pitch": 43,
          "onset": 96.5,
          "duration": 0.5,
          "velocity": 100
        },
        {
          "pitch": 47,
          "onset": 96.75,
          "duration": 0.25,
          "velocity": 100
        },
        {
          "pitch": 52,
          "onset": 97.0,
          "duration": 1.0,
          "velocity": 100
        },
        {
          "pitch": 48,
          "onset": 98.5,
          "duration": 0.5,
          "velocity": 100
        },
        {
          "pitch": 52,
          "onset": 98.75,
          "duration": 0.25,
          "velocity": 100
        },
        {
          "pitch": 57,
          "onset": 99.0,
          "duration": 1.0,
          "velocity": 100
        },
        {
          "pitch": 51,
          "onset": 100.5,
          "duration": 0.5,
          "velocity": 100
        },
        {
          "pitch": 54,
          "onset": 100.75,
          "duration": 0.25,
          "velocity": 100
        },
        {
          "pitch": 59,
          "onset": 101.0,
          "duration": 0.5,
          "velocity": 100
        },
        {
          "pitch": 54,
          "onset": 101.5,
          "duration": 0.5,
          "velocity": 100
        },
        {
          "pitch": 52,
          "onset": 102.0,
          "duration": 0.5,
          "velocity": 100
        },
        {
          "pitch": 48,
          "onset": 102.5,
          "duration": 0.5,
          "velocity": 100
        },
        {
          "pitch": 47,
          "onset": 103.0,
          "duration": 1.0,
          "velocity": 100
        },
        {
          "pitch": 52,
          "onset": 104.25,
          "duration": 0.25,
          "velocity": 100
        },
        {
          "pitch": 54,
          "onset": 104.5,
          "duration": 0.25,
          "velocity": 100
        },
        {
          "pitch": 56,
          "onset": 104.75,
          "duration": 0.25,
          "velocity": 100
        },
        {
          "pitch": 44,
          "onset": 107.0,
          "duration": 0.75,
          "velocity": 100
        },
        {
          "pitch": 47,
          "onset": 107.0,
          "duration": 0.75,
          "velocity": 100
        },
        {
          "pitch": 51,
          "onset": 108.5,
          "duration": 1.5,
          "velocity": 100
        },
        {
          "pitch": 54,
          "onset": 108.75,
          "duration": 1.25,
          "velocity": 100
        },
        {
          "pitch": 57,
          "onset": 111.25,
          "duration": 0.25,
          "velocity": 100
        },
        {
          "pitch": 55,
          "onset": 111.5,
          "duration": 0.25,
          "velocity": 100
        },
        {
          "pitch": 54,
          "onset": 111.75,
          "duration": 0.25,
          "velocity": 100
        },
        {
          "pitch": 55,
          "onset": 112.0,
          "duration": 0.5,
          "velocity": 100
        },
        {
          "pitch": 55,
          "onset": 112.5,
          "duration": 1.5,
          "velocity": 100
        },
        {
          "pitch": 59,
          "onset": 112.75,
          "duration": 1.25,
          "velocity": 100
        },
        {
          "pitch": 64,
          "onset": 113.0,
          "duration": 1.0,
          "velocity": 100
        },
        {
          "pitch": 55,
          "onset": 115.25,
          "duration": 0.25,
          "velocity": 100
        },
        {
          "pitch": 54,
          "onset": 115.5,
          "duration": 0.25,
          "velocity": 100
        },
        {
          "pitch": 52,
          "onset": 115.75,
          "duration": 0.25,
          "velocity": 100
        },
        {
          "pitch": 54,
          "onset": 116.0,
          "duration": 0.25,
          "velocity": 100
        },
        {
          "pitch": 50,
          "onset": 116.25,
          "duration": 0.25,
          "velocity": 100
        },
        {
          "pitch": 54,
          "onset": 116.5,
          "duration": 0.5,
          "velocity": 100
        },
        {
          "pitch": 58,
          "onset": 123.0,
          "duration": 1.0,
          "velocity": 100
        },
        {
          "pitch": 55,
          "onset": 124.25,
          "duration": 0.25,
          "velocity": 100
        },
        {
          "pitch": 54,
          "onset": 124.5,
          "duration": 0.25,
          "velocity": 100
        },
        {
          "pitch": 52,
          "onset": 124.75,
          "duration": 0.25,
          "velocity": 100
        },
        {
          "pitch": 51,
          "onset": 125.0,
          "duration": 0.5,
          "velocity": 100
        },
        {
          "pitch": 47,
          "onset": 126.75,
          "duration": 0.25,
          "velocity": 100
        },
        {
          "pitch": 52,
          "onset": 127.0,
          "duration": 0.5,
          "velocity": 100
        },
        {
          "pitch": 48,
          "onset": 128.5,
          "duration": 0.5,
          "velocity": 100
        },
        {
          "pitch": 52,
          "onset": 128.75,
          "duration": 0.25,
          "velocity": 100
        },
        {
          "pitch": 52,
          "onset": 129.0,
          "duration": 1.0,
          "velocity": 100
        },
        {
          "pitch": 57,
          "onset": 129.0,
          "duration": 1.0,
          "velocity": 100
        },
        {
          "pitch": 45,
          "onset": 130.75,
          "duration": 0.25,
          "velocity": 100
        },
        {
          "pitch": 50,
          "onset": 131.0,
          "duration": 0.5,
          "velocity": 100
        },
        {
          "pitch": 47,
          "onset": 132.5,
          "duration": 0.5,
          "velocity": 100
        },
        {
          "pitch": 50,
          "onset": 132.75,
          "duration": 0.25,
          "velocity": 100
        },
        {
          "pitch": 50,
          "onset": 133.0,
          "duration": 1.0,
          "velocity": 100
        },
        {
          "pitch": 55,
          "onset": 133.0,
          "duration": 1.0,
          "velocity": 100
        },
        {
          "pitch": 59,
          "onset": 133.0,
          "duration": 1.0,
          "velocity": 100
        },
        {
          "pitch": 42,
          "onset": 134.75,
          "duration": 0.25,
          "velocity": 100
        },
        {
          "pitch": 47,
          "onset": 135.0,
          "duration": 0.5,
          "velocity": 100
        },
        {
          "pitch": 43,
          "onset": 136.5,
          "duration": 0.5,
          "velocity": 100
        },
        {
          "pitch": 47,
          "onset": 136.75,
          "duration": 0.25,
          "velocity": 100
        },
        {
          "pitch": 52,
          "onset": 137.0,
          "duration": 1.0,
          "velocity": 100
        },
        {
          "pitch": 48,
          "onset": 138.5,
          "duration": 0.5,
          "velocity": 100
        },
        {
          "pitch": 52,
          "onset": 138.75,
          "duration": 0.25,
          "velocity": 100
        },
        {
          "pitch": 57,
          "onset": 139.0,
          "duration": 1.0,
          "velocity": 100
        },
        {
          "pitch": 51,
          "onset": 140.5,
          "duration": 0.5,
          "velocity": 100
        },
        {
          "pitch": 54,
          "onset": 140.75,
          "duration": 0.25,
          "velocity": 100
        },
        {
          "pitch": 59,
          "onset": 141.0,
          "duration": 0.5,
          "velocity": 100
        },
        {
          "pitch": 54,
          "onset": 141.5,
          "duration": 0.5,
          "velocity": 100
        },
        {
          "pitch": 52,
          "onset": 142.0,
          "duration": 0.5,
          "velocity": 100
        },
        {
          "pitch": 48,
          "onset": 142.5,
          "duration": 0.5,
          "velocity": 100
        },
        {
          "pitch": 47,
          "onset": 143.0,
          "duration": 1.0,
          "velocity": 100
        },
        {
          "pitch": 52,
          "onset": 144.25,
          "duration": 0.25,
          "velocity": 100
        },
        {
          "pitch": 54,
          "onset": 144.5,
          "duration": 0.25,
          "velocity": 100
        },
        {
          "pitch": 56,
          "onset": 144.75,
          "duration": 0.25,
          "velocity": 100
        },
        {
          "pitch": 44,
          "onset": 147.3125,
          "duration": 4.6875,
          "velocity": 100
        },
        {
          "pitch": 47,
          "onset": 147.375,
          "duration": 4.625,
          "velocity": 100
        }
      ]
    },
    {
      "role": "v3",
      "notes": [
        {
          "pitch": 52,
          "onset": 0.0,
          "duration": 0.25,
          "velocity": 1
        },
        {
          "pitch": 40,
          "onset": 4.25,
          "duration": 1.25,
          "velocity": 100
        },
        {
          "pitch": 52,
          "onset": 7.0,
          "duration": 1.0,
          "velocity": 100
        },
        {
          "pitch": 47,
          "onset": 8.25,
          "duration": 1.25,
          "velocity": 100
        },
        {
          "pitch": 45,
          "onset": 11.0,
          "duration": 0.5,
          "velocity": 100
        },
        {
          "pitch": 47,
          "onset": 11.5,
          "duration": 0.5,
          "velocity": 100
        },
        {
          "pitch": 63,
          "onset": 11.5,
          "duration": 0.5,
          "velocity": 100
        },
        {
          "pitch": 40,
          "onset": 12.0,
          "duration": 1.5,
          "velocity": 100
        },
        {
          "pitch": 40,
          "onset": 13.5,
          "duration": 0.5,
          "velocity": 100
        },
        {
          "pitch": 45,
          "onset": 14.0,
          "duration": 0.5,
          "velocity": 100
        },
        {
          "pitch": 48,
          "onset": 14.5,
          "duration": 0.5,
          "velocity": 100
        },
        {
          "pitch": 50,
          "onset": 15.0,
          "duration": 0.5,
          "velocity": 100
        },
        {
          "pitch": 38,
          "onset": 15.5,
          "duration": 0.5,
          "velocity": 100
        },
        {
          "pitch": 43,
          "onset": 16.0,
          "duration": 1.0,
          "velocity": 100
        },
        {
          "pitch": 47,
          "onset": 21.0,
          "duration": 1.0,
          "velocity": 100
        },
        {
          "pitch": 52,
          "onset": 24.0,
          "duration": 1.0,
          "velocity": 100
        },
        {
          "pitch": 46,
          "onset": 26.0,
          "duration": 1.0,
          "velocity": 100
        },
        {
          "pitch": 47,
          "onset": 27.0,
          "duration": 0.5,
          "velocity": 100
        },
        {
          "pitch": 62,
          "onset": 27.0,
          "duration": 0.5,
          "velocity": 100
        },
        {
          "pitch": 49,
          "onset": 27.5,
          "duration": 0.5,
          "velocity": 100
        },
        {
          "pitch": 64,
          "onset": 27.5,
          "duration": 0.5,
          "velocity": 100
        },
        {
          "pitch": 50,
          "onset": 28.0,
          "duration": 0.5,
          "velocity": 100
        },
        {
          "pitch": 66,
          "onset": 28.0,
          "duration": 1.0,
          "velocity": 100
        },
        {
          "pitch": 47,
          "onset": 28.5,
          "duration": 0.5,
          "velocity": 100
        },
        {
          "pitch": 42,
          "onset": 31.5,
          "duration": 0.5,
          "velocity": 100
        },
        {
          "pitch": 52,
          "onset": 34.25,
          "duration": 0.25,
          "velocity": 100
        },
        {
          "pitch": 51,
          "onset": 34.5,
          "duration": 0.25,
          "velocity": 100
        },
        {
          "pitch": 49,
          "onset": 34.75,
          "duration": 0.25,
          "velocity": 100
        },
        {
          "pitch": 47,
          "onset": 35.0,
          "duration": 0.75,
          "velocity": 100
        },
        {
          "pitch": 40,
          "onset": 36.25,
          "duration": 1.25,
          "velocity": 100
        },
        {
          "pitch": 52,
          "onset": 39.0,
          "duration": 1.0,
          "velocity": 100
        },
        {
          "pitch": 47,
          "onset": 40.25,
          "duration": 1.25,
          "velocity": 100
        },
        {
          "pitch": 45,
          "onset": 43.0,
          "duration": 0.5,
          "velocity": 100
        },
        {
          "pitch": 47,
          "onset": 43.5,
          "duration": 0.5,
          "velocity": 100
        },
        {
          "pitch": 63,
          "onset": 43.5,
          "duration": 0.5,
          "velocity": 100
        },
        {
          "pitch": 40,
          "onset": 44.0,
          "duration": 1.5,
          "velocity": 100
        },
        {
          "pitch": 40,
          "onset": 45.5,
          "duration": 0.5,
          "velocity": 100
        },
        {
          "pitch": 45,
          "onset": 46.0,
          "duration": 0.5,
          "velocity": 100
        },
        {
          "pitch": 48,
          "onset": 46.5,
          "duration": 0.5,
          "velocity": 100
        },
        {
          "pitch": 50,
          "onset": 47.0,
          "duration": 0.5,
          "velocity": 100
        },
        {
          "pitch": 38,
          "onset": 47.5,
          "duration": 0.5,
          "velocity": 100
        },
        {
          "pitch": 43,
          "onset": 48.0,
          "duration": 1.0,
          "velocity": 100
        },
        {
          "pitch": 47,
          "onset": 53.0,
          "duration": 1.0,
          "velocity": 100
        },
        {
          "pitch": 52,
          "onset": 56.0,
          "duration": 1.0,
          "velocity": 100
        },
        {
          "pitch": 46,
          "onset": 58.0,
          "duration": 1.0,
          "velocity": 100
        },
        {
          "pitch": 47,
          "onset": 59.0,
          "duration": 0.5,
          "velocity": 100
        },
        {
          "pitch": 62,
          "onset": 59.0,
          "duration": 0.5,
          "velocity": 100
        },
        {
          "pitch": 49,
          "onset": 59.5,
          "duration": 0.5,
          "velocity": 100
        },
        {
          "pitch": 64,
          "onset": 59.5,
          "duration": 0.5,
          "velocity": 100
        },
        {
          "pitch": 50,
          "onset": 60.0,
          "duration": 0.5,
          "velocity": 100
        },
        {
          "pitch": 66,
          "onset": 60.0,
          "duration": 1.0,
          "velocity": 100
        },
        {
          "pitch": 47,
          "onset": 60.5,
          "duration": 0.5,
          "velocity": 100
        },
        {
          "pitch": 42,
          "onset": 63.5,
          "duration": 0.5,
          "velocity": 100
        },
        {
          "pitch": 52,
          "onset": 66.25,
          "duration": 0.25,
          "velocity": 100
        },
        {
          "pitch": 51,
          "onset": 66.5,
          "duration": 0.25,
          "velocity": 100
        },
        {
          "pitch": 49,
          "onset": 66.75,
          "duration": 0.25,
          "velocity": 100
        },
        {
          "pitch": 47,
          "onset": 67.0,
          "duration": 0.75,
          "velocity": 100
        },
        {
          "pitch": 47,
          "onset": 68.25,
          "duration": 1.75,
          "velocity": 100
        },
        {
          "pitch": 52,
          "onset": 72.25,
          "duration": 1.75,
          "velocity": 100
        },
        {
          "pitch": 50,
          "onset": 79.25,
          "duration": 0.25,
          "velocity": 100
        },
        {
          "pitch": 49,
          "onset": 79.5,
          "duration": 0.25,
          "velocity": 100
        },
        {
          "pitch": 47,
          "onset": 79.75,
          "duration": 0.25,
          "velocity": 100
        },
        {
          "pitch": 46,
          "onset": 80.0,
          "duration": 0.5,
          "velocity": 100
        },
        {
          "pitch": 42,
          "onset": 80.5,
          "duration": 0.5,
          "velocity": 100
        },
        {
          "pitch": 47,
          "onset": 81.0,
          "duration": 0.5,
          "velocity": 100
        },
        {
          "pitch": 49,
          "onset": 81.5,
          "duration": 0.5,
          "velocity": 100
        },
        {
          "pitch": 50,
          "onset": 82.0,
          "duration": 0.5,
          "velocity": 100
        },
        {
          "pitch": 47,
          "onset": 82.5,
          "duration": 0.5,
          "velocity": 100
        },
        {
          "pitch": 54,
          "onset": 83.0,
          "duration": 0.5,
          "velocity": 100
        },
        {
          "pitch": 42,
          "onset": 83.5,
          "duration": 0.5,
          "velocity": 100
        },
        {
          "pitch": 47,
          "onset": 84.0,
          "duration": 1.0,
          "velocity": 100
        },
        {
          "pitch": 48,
          "onset": 85.25,
          "duration": 0.25,
          "velocity": 100
        },
        {
          "pitch": 47,
          "onset": 85.5,
          "duration": 0.25,
          "velocity": 100
        },
        {
          "pitch": 45,
          "onset": 85.75,
          "duration": 0.25,
          "velocity": 100
        },
        {
          "pitch": 44,
          "onset": 86.0,
          "duration": 1.0,
          "velocity": 100
        },
        {
          "pitch": 40,
          "onset": 87.5,
          "duration": 0.5,
          "velocity": 100
        },
        {
          "pitch": 45,
          "onset": 88.25,
          "duration": 0.75,
          "velocity": 100
        },
        {
          "pitch": 47,
          "onset": 89.25,
          "duration": 0.25,
          "velocity": 100
        },
        {
          "pitch": 45,
          "onset": 89.5,
          "duration": 0.25,
          "velocity": 100
        },
        {
          "pitch": 43,
          "onset": 89.75,
          "duration": 0.25,
          "velocity": 100
        },
        {
          "pitch": 42,
          "onset": 90.0,
          "duration": 1.0,
          "velocity": 100
        },
        {
          "pitch": 38,
          "onset": 91.5,
          "duration": 0.5,
          "velocity": 100
        },
        {
          "pitch": 43,
          "onset": 92.25,
          "duration": 0.75,
          "velocity": 100
        },
        {
          "pitch": 43,
          "onset": 93.25,
          "duration": 0.25,
          "velocity": 100
        },
        {
          "pitch": 42,
          "onset": 93.5,
          "duration": 0.25,
          "velocity": 100
        },
        {
          "pitch": 40,
          "onset": 93.75,
          "duration": 0.25,
          "velocity": 100
        },
        {
          "pitch": 39,
          "onset": 94.0,
          "duration": 1.0,
          "velocity": 100
        },
        {
          "pitch": 39,
          "onset": 95.5,
          "duration": 0.5,
          "velocity": 100
        },
        {
          "pitch": 43,
          "onset": 96.25,
          "duration": 0.75,
          "velocity": 100
        },
        {
          "pitch": 45,
          "onset": 98.25,
          "duration": 0.75,
          "velocity": 100
        },
        {
          "pitch": 47,
          "onset": 100.25,
          "duration": 1.25,
          "velocity": 100
        },
        {
          "pitch": 45,
          "onset": 101.5,
          "duration": 0.5,
          "velocity": 100
        },
        {
          "pitch": 43,
          "onset": 102.0,
          "duration": 0.5,
          "velocity": 100
        },
        {
          "pitch": 45,
          "onset": 102.5,
          "duration": 0.5,
          "velocity": 100
        },
        {
          "pitch": 47,
          "onset": 103.0,
          "duration": 1.0,
          "velocity": 100
        },
        {
          "pitch": 51,
          "onset": 103.0,
          "duration": 1.0,
          "velocity": 100
        },
        {
          "pitch": 48,
          "onset": 106.25,
          "duration": 0.25,
          "velocity": 100
        },
        {
          "pitch": 47,
          "onset": 106.5,
          "duration": 0.25,
          "velocity": 100
        },
        {
          "pitch": 45,
          "onset": 106.75,
          "duration": 0.25,
          "velocity": 100
        },
        {
          "pitch": 40,
          "onset": 107.0,
          "duration": 0.75,
          "velocity": 100
        },
        {
          "pitch": 47,
          "onset": 108.25,
          "duration": 1.75,
          "velocity": 100
        },
        {
          "pitch": 52,
          "onset": 112.25,
          "duration": 1.75,
          "velocity": 100
        },
        {
          "pitch": 50,
          "onset": 119.25,
          "duration": 0.25,
          "velocity": 100
        },
        {
          "pitch": 49,
          "onset": 119.5,
          "duration": 0.25,
          "velocity": 100
        },
        {
          "pitch": 47,
          "onset": 119.75,
          "duration": 0.25,
          "velocity": 100
        },
        {
          "pitch": 46,
          "onset": 120.0,
          "duration": 0.5,
          "velocity": 100
        },
        {
          "pitch": 42,
          "onset": 120.5,
          "duration": 0.5,
          "velocity": 100
        },
        {
          "pitch": 47,
          "onset": 121.0,
          "duration": 0.5,
          "velocity": 100
        },
        {
          "pitch": 49,
          "onset": 121.5,
          "duration": 0.5,
          "velocity": 100
        },
        {
          "pitch": 50,
          "onset": 122.0,
          "duration": 0.5,
          "velocity": 100
        },
        {
          "pitch": 47,
          "onset": 122.5,
          "duration": 0.5,
          "velocity": 100
        },
        {
          "pitch": 54,
          "onset": 123.0,
          "duration": 0.5,
          "velocity": 100
        },
        {
          "pitch": 42,
          "onset": 123.5,
          "duration": 0.5,
          "velocity": 100
        },
        {
          "pitch": 47,
          "onset": 124.0,
          "duration": 1.0,
          "velocity": 100
        },
        {
          "pitch": 48,
          "onset": 125.25,
          "duration": 0.25,
          "velocity": 100
        },
        {
          "pitch": 47,
          "onset": 125.5,
          "duration": 0.25,
          "velocity": 100
        },
        {
          "pitch": 45,
          "onset": 125.75,
          "duration": 0.25,
          "velocity": 100
        },
        {
          "pitch": 44,
          "onset": 126.0,
          "duration": 1.0,
          "velocity": 100
        },
        {
          "pitch": 40,
          "onset": 127.5,
          "duration": 0.5,
          "velocity": 100
        },
        {
          "pitch": 45,
          "onset": 128.25,
          "duration": 0.75,
          "velocity": 100
        },
        {
          "pitch": 47,
          "onset": 129.25,
          "duration": 0.25,
          "velocity": 100
        },
        {
          "pitch": 45,
          "onset": 129.5,
          "duration": 0.25,
          "velocity": 100
        },
        {
          "pitch": 43,
          "onset": 129.75,
          "duration": 0.25,
          "velocity": 100
        },
        {
          "pitch": 42,
          "onset": 130.0,
          "duration": 1.0,
          "velocity": 100
        },
        {
          "pitch": 38,
          "onset": 131.5,
          "duration": 0.5,
          "velocity": 100
        },
        {
          "pitch": 43,
          "onset": 132.25,
          "duration": 0.75,
          "velocity": 100
        },
        {
          "pitch": 43,
          "onset": 133.25,
          "duration": 0.25,
          "velocity": 100
        },
        {
          "pitch": 42,
          "onset": 133.5,
          "duration": 0.25,
          "velocity": 100
        },
        {
          "pitch": 40,
          "onset": 133.75,
          "duration": 0.25,
          "velocity": 100
        },
        {
          "pitch": 39,
          "onset": 134.0,
          "duration": 1.0,
          "velocity": 100
        },
        {
          "pitch": 39,
          "onset": 135.5,
          "duration": 0.5,
          "velocity": 100
        },
        {
          "pitch": 43,
          "onset": 136.25,
          "duration": 0.75,
          "velocity": 100
        },
        {
          "pitch": 45,
          "onset": 138.25,
          "duration": 0.75,
          "velocity": 100
        },
        {
          "pitch": 47,
          "onset": 140.25,
          "duration": 1.25,
          "velocity": 100
        },
        {
          "pitch": 45,
          "onset": 141.5,
          "duration": 0.5,
          "velocity": 100
        },
        {
          "pitch": 43,
          "onset": 142.0,
          "duration": 0.5,
          "velocity": 100
        },
        {
          "pitch": 45,
          "onset": 142.5,
          "duration": 0.5,
          "velocity": 100
        },
        {
          "pitch": 47,
          "onset": 143.0,
          "duration": 1.0,
          "velocity": 100
        },
        {
          "pitch": 51,
          "onset": 143.0,
          "duration": 1.0,
          "velocity": 100
        },
        {
          "pitch": 48,
          "onset": 146.25,
          "duration": 0.25,
          "velocity": 100
        },
        {
          "pitch": 47,
          "onset": 146.5,
          "duration": 0.25,
          "velocity": 100
        },
        {
          "pitch": 45,
          "onset": 146.75,
          "duration": 0.5,
          "velocity": 100
        },
        {
          "pitch": 40,
          "onset": 147.25,
          "duration": 4.75,
          "velocity": 100
        }
      ]
    }
  ]
}